<?xml version="1.0" encoding="UTF-8"?>
<svg xmlns="http://www.w3.org/2000/svg" xmlns:xlink="http://www.w3.org/1999/xlink"
     width="500.0" height="500" viewBox="-250.0 -250.0 500 500">
<defs>
</defs>
<circle cx="0" cy="0" r="245.0" fill="white" stroke-width="2" stroke="black" />
<path d="M0.0,-245.0 L0.0,-245.0" stroke="#0d6d4d" stroke-width="0.1" fill="none" />
<path d="M2.247239144954703,-244.98969348979844 L46.901387565027996,-240.468833416048" stroke="#0d6d4d" stroke-width="0.1" fill="none" />
<path d="M4.494289218944729,-244.95877482632966 L92.067934313112,-227.04293750591867" stroke="#0d6d4d" stroke-width="0.1" fill="none" />
<path d="M6.7409611669128475,-244.90724661092855 L133.82896965374243,-205.21892427702102" stroke="#0d6d4d" stroke-width="0.1" fill="none" />
<path d="M8.98706596561537,-244.83511317891 L170.6397898493952,-175.8040446638081" stroke="#0d6d4d" stroke-width="0.1" fill="none" />
<path d="M11.232414639525595,-244.7423805992043 L201.13879523967512,-139.88632903015233" stroke="#0d6d4d" stroke-width="0.1" fill="none" />
<path d="M13.476818276733203,-244.62905667384632 L224.1978546076989,-98.79434188912396" stroke="#0d6d4d" stroke-width="0.1" fill="none" />
<path d="M15.720088044838333,-244.49515093731927 L238.96403375537867,-54.04803947747082" stroke="#0d6d4d" stroke-width="0.1" fill="none" />
<path d="M17.962035206838934,-244.34067465575248 L244.891144784538,-7.3025479196263925" stroke="#0d6d4d" stroke-width="0.1" fill="none" />
<path d="M20.202471137010154,-244.16564082597344 L241.75994910387323,39.7130584227986" stroke="#0d6d4d" stroke-width="0.1" fill="none" />
<path d="M22.441207336774266,-243.97006417441446 L229.68626687041333,85.25971388137116" stroke="#0d6d4d" stroke-width="0.1" fill="none" />
<path d="M24.678055450559988,-243.7539611558735 L209.1166929044154,127.65268798078799" stroke="#0d6d4d" stroke-width="0.1" fill="none" />
<path d="M26.91282728164975,-243.51734995212988 L180.81207754221313,165.32390212812152" stroke="#0d6d4d" stroke-width="0.1" fill="none" />
<path d="M29.14533480801354,-243.2602504704145 L145.81938345564978,196.87993145217766" stroke="#0d6d4d" stroke-width="0.1" fill="none" />
<path d="M31.37539019812813,-242.98268434173494 L105.43295942943979,221.15354635625923" stroke="#0d6d4d" stroke-width="0.1" fill="none" />
<path d="M33.60280582678022,-242.68467491905562 L61.14666354515762,237.2468873079166" stroke="#0d6d4d" stroke-width="0.1" fill="none" />
<path d="M35.827394290852276,-242.36624727533288 L14.598606692908193,244.5646758684209" stroke="#0d6d4d" stroke-width="0.1" fill="none" />
<path d="M38.048968425089605,-242.0274282014056 L-32.48943970072195,242.83623351537378" stroke="#0d6d4d" stroke-width="0.1" fill="none" />
<path d="M40.26734131784749,-241.668246203741 L-78.37573047391784,232.12549380169295" stroke="#0d6d4d" stroke-width="0.1" fill="none" />
<path d="M42.48232632681693,-241.28873150203646 L-121.36297234167468,212.82863751007267" stroke="#0d6d4d" stroke-width="0.1" fill="none" />
<path d="M44.69373709472782,-240.8889160266768 L-159.86110527225875,185.6594382764631" stroke="#0d6d4d" stroke-width="0.1" fill="none" />
<path d="M46.901387565027996,-240.468833416048 L-192.4461174005301,151.62286073498737" stroke="#0d6d4d" stroke-width="0.1" fill="none" />
<path d="M49.10509199753707,-240.02851901370684 L-217.9127179665437,111.97788776554762" stroke="#0d6d4d" stroke-width="0.1" fill="none" />
<path d="M51.30466498407375,-239.56800986540745 L-235.3189199540416,68.19095183133436" stroke="#0d6d4d" stroke-width="0.1" fill="none" />
<path d="M53.49992146405494,-239.0873447159844 L-244.0208833564993,21.881692939847238" stroke="#0d6d4d" stroke-width="0.1" fill="none" />
<path d="M55.69067674006591,-238.58656400609294 L-243.69673024914945,-25.236950407552822" stroke="#0d6d4d" stroke-width="0.1" fill="none" />
<path d="M57.87674649339971,-238.06570986880647 L-234.35845076854807,-71.42210129480955" stroke="#0d6d4d" stroke-width="0.1" fill="none" />
<path d="M60.057946799564775,-237.52482612607182 L-216.35145960803484,-114.96541186579933" stroke="#0d6d4d" stroke-width="0.1" fill="none" />
<path d="M62.23409414375944,-236.96395828502207 L-190.3418194339283,-154.25625359959264" stroke="#0d6d4d" stroke-width="0.1" fill="none" />
<path d="M64.40500543631185,-236.3831535341481 L-157.29160381698398,-187.84129303398907" stroke="#0d6d4d" stroke-width="0.1" fill="none" />
<path d="M66.57049802808413,-235.7824607393282 L-118.42331098247432,-214.47824928404322" stroke="#0d6d4d" stroke-width="0.1" fill="none" />
<path d="M68.73038972583971,-235.16193043971677 L-75.17464468278305,-233.1818449125431" stroke="#0d6d4d" stroke-width="0.1" fill="none" />
<path d="M70.88449880757186,-234.5216148434923 L-29.14533480801349,-243.2602504704145" stroke="#0d6d4d" stroke-width="0.1" fill="none" />
<path d="M73.03264403779306,-233.86156782346478 L17.962035206838934,-244.34067465575248" stroke="#0d6d4d" stroke-width="0.1" fill="none" />
<path d="M75.17464468278304,-233.18184491254314 L64.40500543631185,-236.3831535341481" stroke="#0d6d4d" stroke-width="0.1" fill="none" />
<path d="M77.31032052579488,-232.48250329906304 L108.46569151499075,-219.6820287692529" stroke="#0d6d4d" stroke-width="0.1" fill="none" />
<path d="M79.43949188221745,-231.76360182197527 L148.51432765980866,-194.85506018514118" stroke="#0d6d4d" stroke-width="0.1" fill="none" />
<path d="M81.56197961469316,-231.02520096589544 L183.06955026397165,-162.820575377153" stroke="#0d6d4d" stroke-width="0.1" fill="none" />
<path d="M83.6776051481896,-230.26736285601498 L210.8531922257246,-124.7635015868889" stroke="#0d6d4d" stroke-width="0.1" fill="none" />
<path d="M85.78619048502398,-229.49015125287443 L230.83756121823012,-82.09153629223822" stroke="#0d6d4d" stroke-width="0.1" fill="none" />
<path d="M87.88755821983887,-228.6936315469988 L242.28345311920074,-36.38307772352495" stroke="#0d6d4d" stroke-width="0.1" fill="none" />
<path d="M89.98153155452816,-227.877870753396 L244.76749451716543,10.671158690103947" stroke="#0d6d4d" stroke-width="0.1" fill="none" />
<path d="M92.067934313112,-227.04293750591867 L238.1978029192621,57.33067838807047" stroke="#0d6d4d" stroke-width="0.1" fill="none" />
<path d="M94.14659095655922,-226.18890205148952 L222.8173854033298,101.86958703177311" stroke="#0d6d4d" stroke-width="0.1" fill="none" />
<path d="M96.21732659755634,-225.3158362441912 L199.19515000116792,142.64042980870545" stroke="#0d6d4d" stroke-width="0.1" fill="none" />
<path d="M98.27996701522167,-224.4238135392208 L168.2048622939399,178.13512932792545" stroke="#0d6d4d" stroke-width="0.1" fill="none" />
<path d="M100.3343386697633,-223.51290898670985 L130.99282559663385,207.04076806805432" stroke="#0d6d4d" stroke-width="0.1" fill="none" />
<path d="M102.3802687170799,-222.58319922540989 L88.93548021295304,228.28815203442213" stroke="#0d6d4d" stroke-width="0.1" fill="none" />
<path d="M104.41758502330283,-221.63476247624453 L43.58849012667093,241.0913592986632" stroke="#0d6d4d" stroke-width="0.1" fill="none" />
<path d="M106.44611617927869,-220.66767853572824 L-3.3707996323206086,244.97681055528244" stroke="#0d6d4d" stroke-width="0.1" fill="none" />
<path d="M108.46569151499075,-219.6820287692529 L-50.20540649616792,239.80078640103443" stroke="#0d6d4d" stroke-width="0.1" fill="none" />
<path d="M110.47614111391813,-218.67789610424197 L-95.18295980696062,225.75474338845356" stroke="#0d6d4d" stroke-width="0.1" fill="none" />
<path d="M112.47729582733189,-217.65536502317343 L-136.63977967417028,203.3582322174202" stroke="#0d6d4d" stroke-width="0.1" fill="none" />
<path d="M114.46898728852614,-216.61452155647194 L-173.04241502139485,173.43968001458992" stroke="#0d6d4d" stroke-width="0.1" fill="none" />
<path d="M116.45104792698362,-215.5554532752706 L-203.04436458452727,137.10574754716" stroke="#0d6d4d" stroke-width="0.1" fill="none" />
<path d="M118.42331098247425,-214.47824928404322 L-225.53588280182132,95.70039482051845" stroke="#0d6d4d" stroke-width="0.1" fill="none" />
<path d="M120.3856105190853,-213.38300021310764 L-239.68502832006462,50.755169187086956" stroke="#0d6d4d" stroke-width="0.1" fill="none" />
<path d="M122.33778143918259,-212.2697982110003 L-244.9684367689408,3.9325547652200803" stroke="#0d6d4d" stroke-width="0.1" fill="none" />
<path d="M124.2796594973008,-211.1387369367236 L-241.19067954589548,-43.03552137698763" stroke="#0d6d4d" stroke-width="0.1" fill="none" />
<path d="M126.21108131396218,-209.98991155186584 L-228.4914925471845,-88.41175167114342" stroke="#0d6d4d" stroke-width="0.1" fill="none" />
<path d="M128.13188438942262,-208.82341871259467 L-207.340607460742,-130.51770951794433" stroke="#0d6d4d" stroke-width="0.1" fill="none" />
<path d="M130.04190711734347,-207.63935656152523 L-178.52037680676938,-167.79593280162982" stroke="#0d6d4d" stroke-width="0.1" fill="none" />
<path d="M131.94098879838808,-206.43782471946275 L-143.09683541041852,-198.86753303524333" stroke="#0d6d4d" stroke-width="0.1" fill="none" />
<path d="M133.82896965374243,-205.21892427702102 L-102.38026871708001,-222.58319922540986" stroke="#0d6d4d" stroke-width="0.1" fill="none" />
<path d="M135.705690838558,-203.9827577861171 L-57.87674649339976,-238.06570986880647" stroke="#0d6d4d" stroke-width="0.1" fill="none" />
<path d="M137.57099445531614,-202.72942925134322 L-11.23241463952558,-244.7423805992043" stroke="#0d6d4d" stroke-width="0.1" fill="none" />
<path d="M139.42472356711266,-201.45904412121638 L35.827394290852276,-242.36624727533288" stroke="#0d6d4d" stroke-width="0.1" fill="none" />
<path d="M141.2667222108619,-200.17170927930644 L81.56197961469316,-231.02520096589544" stroke="#0d6d4d" stroke-width="0.1" fill="none" />
<path d="M143.09683541041838,-198.8675330352434 L124.2796594973008,-211.1387369367236" stroke="#0d6d4d" stroke-width="0.1" fill="none" />
<path d="M144.91490918961594,-197.54662511560497 L162.40034476620144,-183.44243789215983" stroke="#0d6d4d" stroke-width="0.1" fill="none" />
<path d="M146.7207905852223,-196.20909665468457 L194.51398501120903,-148.96076542183565" stroke="#0d6d4d" stroke-width="0.1" fill="none" />
<path d="M148.51432765980866,-194.85506018514118 L219.43272510116253,-108.96916607314951" stroke="#0d6d4d" stroke-width="0.1" fill="none" />
<path d="M150.29536951453292,-193.48462962853145 L236.2348428939412,-64.94689371228564" stroke="#0d6d4d" stroke-width="0.1" fill="none" />
<path d="M152.06376630183556,-192.09792028572494 L244.29884292275102,-18.522293232886387" stroke="#0d6d4d" stroke-width="0.1" fill="none" />
<path d="M153.819369238047,-190.6950488272031 L243.32644496339995,28.587430480431355" stroke="#0d6d4d" stroke-width="0.1" fill="none" />
<path d="M155.5620306159053,-189.27613328324347 L233.35361715580402,74.63973044098195" stroke="#0d6d4d" stroke-width="0.1" fill="none" />
<path d="M157.29160381698384,-187.8412930339892 L214.74924557432473,117.93117283084385" stroke="#0d6d4d" stroke-width="0.1" fill="none" />
<path d="M159.00794332402683,-186.39064879940483 L188.20148945835336,156.86044551019643" stroke="#0d6d4d" stroke-width="0.1" fill="none" />
<path d="M160.71090473319222,-184.92432262911987 L154.6923268110865,189.9875891361644" stroke="#0d6d4d" stroke-width="0.1" fill="none" />
<path d="M162.40034476620144,-183.44243789215983 L115.46123190226726,216.08725998450456" stroke="#0d6d4d" stroke-width="0.1" fill="none" />
<path d="M164.07612128239373,-181.9451192665668 L71.9593282119175,234.19405432950157" stroke="#0d6d4d" stroke-width="0.1" fill="none" />
<path d="M165.73809329068536,-180.43249272890978 L25.79571265709845,243.63821787337145" stroke="#0d6d4d" stroke-width="0.1" fill="none" />
<path d="M167.3861209614318,-178.90468554368533 L-21.322063478953638,244.07041936498464" stroke="#0d6d4d" stroke-width="0.1" fill="none" />
<path d="M169.02006563819216,-177.36182625261057 L-67.65115535756317,235.47467205367727" stroke="#0d6d4d" stroke-width="0.1" fill="none" />
<path d="M170.6397898493952,-175.8040446638081 L-111.47789087272824,218.1689250250092" stroke="#0d6d4d" stroke-width="0.1" fill="none" />
<path d="M172.24515731990542,-174.23147184088478 L-151.18115786567333,192.79330254548356" stroke="#0d6d4d" stroke-width="0.1" fill="none" />
<path d="M173.83603298248838,-172.64424009190466 L-185.29236762887047,160.28642643245718" stroke="#0d6d4d" stroke-width="0.1" fill="none" />
<path d="M175.41228298917468,-171.04248295825718 L-212.54977670258774,121.85069726382403" stroke="#0d6d4d" stroke-width="0.1" fill="none" />
<path d="M176.97377472252134,-169.42633520342187 L-231.94515764878483,78.90781864479817" stroke="#0d6d4d" stroke-width="0.1" fill="none" />
<path d="M178.52037680676935,-167.79593280162987 L-242.7610924917357,33.04620964980615" stroke="#0d6d4d" stroke-width="0.1" fill="none" />
<path d="M180.05195911889695,-166.15141292642397 L-244.59750937401526,-14.037749393279329" stroke="#0d6d4d" stroke-width="0.1" fill="none" />
<path d="M181.56839279956768,-164.49291393911747 L-237.3864808604301,-60.6024645101224" stroke="#0d6d4d" stroke-width="0.1" fill="none" />
<path d="M183.06955026397165,-162.820575377153 L-221.39473651372865,-104.92554809967238" stroke="#0d6d4d" stroke-width="0.1" fill="none" />
<path d="M184.55530521256017,-161.1345379423628 L-197.21379680413847,-145.3675285271645" stroke="#0d6d4d" stroke-width="0.1" fill="none" />
<path d="M186.0255326416718,-159.43494348913072 L-165.7380932906854,-180.43249272890972" stroke="#0d6d4d" stroke-width="0.1" fill="none" />
<path d="M187.48010885404932,-157.72193501245735 L-128.13188438942265,-208.82341871259467" stroke="#0d6d4d" stroke-width="0.1" fill="none" />
<path d="M188.91891146924726,-155.9956566359292 L-85.78619048502412,-229.4901512528744" stroke="#0d6d4d" stroke-width="0.1" fill="none" />
<path d="M190.34181943392824,-154.2562535995927 L-40.267341317847574,-241.66824620374098" stroke="#0d6d4d" stroke-width="0.1" fill="none" />
<path d="M191.74871303204776,-152.50387224773473 L6.7409611669128475,-244.90724661092855" stroke="#0d6d4d" stroke-width="0.1" fill="none" />
<path d="M193.1394738949265,-150.73866001656975 L53.49992146405494,-239.0873447159844" stroke="#0d6d4d" stroke-width="0.1" fill="none" />
<path d="M194.51398501120903,-148.96076542183565 L98.27996701522167,-224.4238135392208" stroke="#0d6d4d" stroke-width="0.1" fill="none" />
<path d="M195.87213073670904,-147.1703380462978 L139.42472356711266,-201.45904412121638" stroke="#0d6d4d" stroke-width="0.1" fill="none" />
<path d="M197.2137968041385,-145.36752852716447 L175.41228298917468,-171.04248295825718" stroke="#0d6d4d" stroke-width="0.1" fill="none" />
<path d="M198.53887033272179,-143.55248854341286 L204.91149730841806,-134.29921172822338" stroke="#0d6d4d" stroke-width="0.1" fill="none" />
<path d="M199.8472398376929,-141.72537080302752 L226.83121669483307,-92.58833151505469" stroke="#0d6d4d" stroke-width="0.1" fill="none" />
<path d="M201.13879523967512,-139.88632903015233 L240.3606501279028,-47.45269086249915" stroke="#0d6d4d" stroke-width="0.1" fill="none" />
<path d="M202.4134278739425,-138.03551795215708 L244.99935583887827,-0.561817171945571" stroke="#0d6d4d" stroke-width="0.1" fill="none" />
<path d="M203.67103049956236,-136.17309328661938 L240.57575220889956,46.34983763857375" stroke="#0d6d4d" stroke-width="0.1" fill="none" />
<path d="M204.91149730841806,-134.29921172822338 L227.25346442122222,91.54705297579103" stroke="#0d6d4d" stroke-width="0.1" fill="none" />
<path d="M206.13472393411112,-132.41403093557645 L205.52527211050185,133.35802384522714" stroke="#0d6d4d" stroke-width="0.1" fill="none" />
<path d="M207.34060746074192,-130.51770951794444 L176.19488188023243,170.23619943834194" stroke="#0d6d4d" stroke-width="0.1" fill="none" />
<path d="M208.52904643156867,-128.61040702190732 L140.34719890678693,200.8174886781995" stroke="#0d6d4d" stroke-width="0.1" fill="none" />
<path d="M209.69994085754345,-126.6922839179355 L99.30819725711521,223.9707167411443" stroke="#0d6d4d" stroke-width="0.1" fill="none" />
<path d="M210.8531922257246,-124.7635015868889 L54.59587328153374,238.83946621240534" stroke="#0d6d4d" stroke-width="0.1" fill="none" />
<path d="M211.98870350756528,-122.82422230643913 L7.8640962721974805,244.87375520831463" stroke="#0d6d4d" stroke-width="0.1" fill="none" />
<path d="M213.10637916707688,-120.87460923741622 L-39.158566698294514,241.8503807194341" stroke="#0d6d4d" stroke-width="0.1" fill="none" />
<path d="M214.20612516886675,-118.91482641008142 L-84.73278894308206,229.88117469233342" stroke="#0d6d4d" stroke-width="0.1" fill="none" />
<path d="M215.2878489860501,-116.94503871032612 L-127.17282031583755,209.40886746486092" stroke="#0d6d4d" stroke-width="0.1" fill="none" />
<path d="M216.3514596080348,-114.96541186579942 L-164.90884161673944,181.1907115627762" stroke="#0d6d4d" stroke-width="0.1" fill="none" />
<path d="M217.396867548178,-112.9761124319648 L-196.5450308153393,146.2704715990118" stroke="#0d6d4d" stroke-width="0.1" fill="none" />
<path d="M218.4239848513157,-110.9773077780868 L-220.9111932721245,105.93981634440401" stroke="#0d6d4d" stroke-width="0.1" fill="none" />
<path d="M219.43272510116253,-108.96916607314951 L-237.10604620257826,61.69054104302234" stroke="#0d6d4d" stroke-width="0.1" fill="none" />
<path d="M220.42300342758227,-106.95185627170785 L-244.53055632971683,15.159387226374855" stroke="#0d6d4d" stroke-width="0.1" fill="none" />
<path d="M221.39473651372865,-104.92554809967238 L-242.9100975948439,-31.932498907279488" stroke="#0d6d4d" stroke-width="0.1" fill="none" />
<path d="M222.347842603055,-102.89041204002963 L-232.30460933240957,-77.84323016753976" stroke="#0d6d4d" stroke-width="0.1" fill="none" />
<path d="M223.28224150619292,-100.84661931849841 L-213.10637916707688,-120.87460923741621" stroke="#0d6d4d" stroke-width="0.1" fill="none" />
<path d="M224.1978546076989,-98.79434188912396 L-186.02553264167193,-159.43494348913055" stroke="#0d6d4d" stroke-width="0.1" fill="none" />
<path d="M225.09460487266867,-96.73375241981039 L-152.0637663018355,-192.097920285725" stroke="#0d6d4d" stroke-width="0.1" fill="none" />
<path d="M225.97241685321853,-94.66502427779356 L-112.47729582733193,-217.65536502317343" stroke="#0d6d4d" stroke-width="0.1" fill="none" />
<path d="M226.83121669483307,-92.58833151505469 L-68.73038972583969,-235.16193043971677" stroke="#0d6d4d" stroke-width="0.1" fill="none" />
<path d="M227.67093214257912,-90.50384885367657 L-22.441207336774177,-243.97006417441446" stroke="#0d6d4d" stroke-width="0.1" fill="none" />
<path d="M228.4914925471845,-88.41175167114339 L24.678055450559988,-243.7539611558735" stroke="#0d6d4d" stroke-width="0.1" fill="none" />
<path d="M229.29282887098248,-86.31221598558544 L70.88449880757186,-234.5216148434923" stroke="#0d6d4d" stroke-width="0.1" fill="none" />
<path d="M230.07487369371995,-84.20541844096974 L114.46898728852614,-216.61452155647194" stroke="#0d6d4d" stroke-width="0.1" fill="none" />
<path d="M230.83756121823012,-82.09153629223822 L153.819369238047,-190.6950488272031" stroke="#0d6d4d" stroke-width="0.1" fill="none" />
<path d="M231.58082727596803,-79.97074739039437 L187.48010885404932,-157.72193501245735" stroke="#0d6d4d" stroke-width="0.1" fill="none" />
<path d="M232.3046093324095,-77.84323016753986 L214.20612516886675,-118.91482641008142" stroke="#0d6d4d" stroke-width="0.1" fill="none" />
<path d="M233.0088464923126,-75.70916362186213 L233.0088464923126,-75.70916362186213" stroke="#0d6d4d" stroke-width="0.1" fill="none" />
<path d="M233.69347950484078,-73.56872730257443 L243.1927768035857,-29.70308587607271" stroke="#0d6d4d" stroke-width="0.1" fill="none" />
<path d="M234.3584507685481,-71.4221012948095 L244.38122153354524,17.401682728181346" stroke="#0d6d4d" stroke-width="0.1" fill="none" />
<path d="M235.0037043362254,-69.26946620446815 L236.53022116343806,63.862778489313136" stroke="#0d6d4d" stroke-width="0.1" fill="none" />
<path d="M235.62918591960766,-67.11100314302398 L219.9301772485917,107.96164659453397" stroke="#0d6d4d" stroke-width="0.1" fill="none" />
<path d="M236.2348428939412,-64.94689371228564 L195.19511072189667,148.06710894140704" stroke="#0d6d4d" stroke-width="0.1" fill="none" />
<path d="M236.82062430241143,-62.77731998911791 L163.23994980292517,182.69569997221743" stroke="#0d6d4d" stroke-width="0.1" fill="none" />
<path d="M237.3864808604301,-60.60246451012246 L125.24668761282688,210.56653875204142" stroke="#0d6d4d" stroke-width="0.1" fill="none" />
<path d="M237.93236495978184,-58.422510256280376 L82.62066129487633,230.6487076209128" stroke="#0d6d4d" stroke-width="0.1" fill="none" />
<path d="M238.45823067262953,-56.23764063755705 L36.938569837306495,242.19938492567323" stroke="#0d6d4d" stroke-width="0.1" fill="none" />
<path d="M238.96403375537867,-54.04803947747082 L-10.109846626841245,244.79132133550354" stroke="#0d6d4d" stroke-width="0.1" fill="none" />
<path d="M239.44973165239958,-51.8538909976275 L-56.784308811769,238.3286434165429" stroke="#0d6d4d" stroke-width="0.1" fill="none" />
<path d="M239.9152834996079,-49.655379802220445 L-101.35836966950768,223.05039990535641" stroke="#0d6d4d" stroke-width="0.1" fill="none" />
<path d="M240.3606501279028,-47.45269086249915 L-142.18327413826378,199.52171950773513" stroke="#0d6d4d" stroke-width="0.1" fill="none" />
<path d="M240.78579406646213,-45.24600950120671 L-177.74894513296138,168.61290728802314" stroke="#0d6d4d" stroke-width="0.1" fill="none" />
<path d="M241.19067954589548,-43.03552137698769 L-206.73983996015528,131.46725285503373" stroke="#0d6d4d" stroke-width="0.1" fill="none" />
<path d="M241.57527250125318,-40.82141246876778 L-228.08361107796932,89.45874109126305" stroke="#0d6d4d" stroke-width="0.1" fill="none" />
<path d="M241.93954057489267,-38.60386906010675 L-240.990771282611,44.14122966810363" stroke="#0d6d4d" stroke-width="0.1" fill="none" />
<path d="M242.28345311920074,-36.38307772352495 L-244.98389614132142,-2.8090267742124446" stroke="#0d6d4d" stroke-width="0.1" fill="none" />
<path d="M242.60698119917214,-34.15922530480663 L-239.9152834996079,-49.65537980222044" stroke="#0d6d4d" stroke-width="0.1" fill="none" />
<path d="M242.9100975948439,-31.932498907279495 L-225.9724168532185,-94.66502427779362" stroke="#0d6d4d" stroke-width="0.1" fill="none" />
<path d="M243.1927768035857,-29.70308587607271 L-203.67103049956245,-136.17309328661926" stroke="#0d6d4d" stroke-width="0.1" fill="none" />
<path d="M243.45499504224523,-27.471173782354956 L-173.83603298248838,-172.64424009190466" stroke="#0d6d4d" stroke-width="0.1" fill="none" />
<path d="M243.69673024914945,-25.236950407552825 L-137.57099445531625,-202.72942925134316" stroke="#0d6d4d" stroke-width="0.1" fill="none" />
<path d="M243.91796208596062,-23.000603727552065 L-96.21732659755642,-225.31583624419116" stroke="#0d6d4d" stroke-width="0.1" fill="none" />
<path d="M244.1186719393874,-20.76232189688224 L-51.304664984073774,-239.56800986540745" stroke="#0d6d4d" stroke-width="0.1" fill="none" />
<path d="M244.29884292275102,-18.522293232886387 L-4.494289218944672,-244.95877482632966" stroke="#0d6d4d" stroke-width="0.1" fill="none" />
<path d="M244.45845987740591,-16.28070619987697 L42.48232632681693,-241.28873150203646" stroke="#0d6d4d" stroke-width="0.1" fill="none" />
<path d="M244.59750937401526,-14.037749393279498 L87.88755821983887,-228.6936315469988" stroke="#0d6d4d" stroke-width="0.1" fill="none" />
<path d="M244.71597971368058,-11.793611523764994 L130.04190711734347,-207.63935656152523" stroke="#0d6d4d" stroke-width="0.1" fill="none" />
<path d="M244.81386092892623,-9.548481401373133 L167.3861209614318,-178.90468554368533" stroke="#0d6d4d" stroke-width="0.1" fill="none" />
<path d="M244.891144784538,-7.3025479196263925 L198.53887033272179,-143.55248854341286" stroke="#0d6d4d" stroke-width="0.1" fill="none" />
<path d="M244.94782477825598,-5.056000039637766 L222.347842603055,-102.89041204002963" stroke="#0d6d4d" stroke-width="0.1" fill="none" />
<path d="M244.98389614132142,-2.8090267742125046 L237.93236495978184,-58.422510256280376" stroke="#0d6d4d" stroke-width="0.1" fill="none" />
<path d="M244.99935583887827,-0.561817171945571 L244.71597971368058,-11.793611523764994" stroke="#0d6d4d" stroke-width="0.1" fill="none" />
<path d="M244.9942025702284,1.6854396986839264 L242.44776695870004,35.271522461326676" stroke="#0d6d4d" stroke-width="0.1" fill="none" />
<path d="M244.96843676894082,3.9325547652199653 L231.21162587721304,81.03199404689278" stroke="#0d6d4d" stroke-width="0.1" fill="none" />
<path d="M244.92206060281546,6.179338967137181 L211.4231713835135,123.79516388832593" stroke="#0d6d4d" stroke-width="0.1" fill="none" />
<path d="M244.85507797370084,8.425603271747372 L183.81436089596787,161.9792601798356" stroke="#0d6d4d" stroke-width="0.1" fill="none" />
<path d="M244.76749451716543,10.671158690103947 L149.4064198799137,194.17188699362976" stroke="#0d6d4d" stroke-width="0.1" fill="none" />
<path d="M244.6593176020239,12.915816292902248 L109.47206762151039,219.1822675552734" stroke="#0d6d4d" stroke-width="0.1" fill="none" />
<path d="M244.53055632971683,15.15938722637485 L65.48844046773783,236.0852900227025" stroke="#0d6d4d" stroke-width="0.1" fill="none" />
<path d="M244.38122153354524,17.401682728181346 L19.08245386023021,244.25572655451126" stroke="#0d6d4d" stroke-width="0.1" fill="none" />
<path d="M244.21132577775887,19.642514143289375 L-28.029375827042866,243.39135993446106" stroke="#0d6d4d" stroke-width="0.1" fill="none" />
<path d="M244.0208833564993,21.881692939847177 L-74.10442370928317,233.52416231883805" stroke="#0d6d4d" stroke-width="0.1" fill="none" />
<path d="M243.8099102925972,24.1190307250457 L-117.43841454307815,215.01911261468857" stroke="#0d6d4d" stroke-width="0.1" fill="none" />
<path d="M243.57842433622432,26.354339260968903 L-156.42846235932313,188.56069623306394" stroke="#0d6d4d" stroke-width="0.1" fill="none" />
<path d="M243.32644496339995,28.587430480431355 L-189.6323597966166,155.1275865794558" stroke="#0d6d4d" stroke-width="0.1" fill="none" />
<path d="M243.0539933743525,30.818116502800887 L-215.82192407516396,115.95644479068059" stroke="#0d6d4d" stroke-width="0.1" fill="none" />
<path d="M242.7610924917357,33.046209649806094 L-234.02842639082465,72.49617673391047" stroke="#0d6d4d" stroke-width="0.1" fill="none" />
<path d="M242.44776695870004,35.271522461326676 L-243.57842433622432,26.354339260968906" stroke="#0d6d4d" stroke-width="0.1" fill="none" />
<path d="M242.11404313681945,37.49386771116493 L-244.1186719393874,-20.762321896882128" stroke="#0d6d4d" stroke-width="0.1" fill="none" />
<path d="M241.75994910387323,39.7130584227986 L-235.62918591960766,-67.11100314302394" stroke="#0d6d4d" stroke-width="0.1" fill="none" />
<path d="M241.38551465148404,41.928907885111705 L-218.4239848513157,-110.9773077780868" stroke="#0d6d4d" stroke-width="0.1" fill="none" />
<path d="M240.99077128261104,44.141229668103456 L-193.13947389492657,-150.73866001656967" stroke="#0d6d4d" stroke-width="0.1" fill="none" />
<path d="M240.57575220889956,46.34983763857375 L-160.71090473319225,-184.9243226291198" stroke="#0d6d4d" stroke-width="0.1" fill="none" />
<path d="M240.14049234788698,48.55454597578314 L-122.33778143918275,-212.26979821100022" stroke="#0d6d4d" stroke-width="0.1" fill="none" />
<path d="M239.68502832006462,50.75516918708695 L-79.43949188221757,-231.76360182197527" stroke="#0d6d4d" stroke-width="0.1" fill="none" />
<path d="M239.209398445797,52.95152212354171 L-33.602805826780276,-242.68467491905562" stroke="#0d6d4d" stroke-width="0.1" fill="none" />
<path d="M238.71364274209762,55.143419995482546 L13.476818276733203,-244.62905667384632" stroke="#0d6d4d" stroke-width="0.1" fill="none" />
<path d="M238.1978029192621,57.33067838807047 L60.057946799564775,-237.52482612607182" stroke="#0d6d4d" stroke-width="0.1" fill="none" />
<path d="M237.661922377359,59.51311327680812 L104.41758502330283,-221.63476247624453" stroke="#0d6d4d" stroke-width="0.1" fill="none" />
<path d="M237.10604620257828,61.690541043022236 L144.91490918961594,-197.54662511560497" stroke="#0d6d4d" stroke-width="0.1" fill="none" />
<path d="M236.53022116343806,63.862778489313136 L180.05195911889695,-166.15141292642397" stroke="#0d6d4d" stroke-width="0.1" fill="none" />
<path d="M235.93449570684967,66.0296428549673 L208.52904643156867,-128.61040702190732" stroke="#0d6d4d" stroke-width="0.1" fill="none" />
<path d="M235.31891995404163,68.19095183133419 L229.29282887098248,-86.31221598558544" stroke="#0d6d4d" stroke-width="0.1" fill="none" />
<path d="M234.68354569634278,70.34652357716472 L241.57527250125318,-40.82141246876778" stroke="#0d6d4d" stroke-width="0.1" fill="none" />
<path d="M234.02842639082465,72.49617673391042 L244.92206060281546,6.179338967137181" stroke="#0d6d4d" stroke-width="0.1" fill="none" />
<path d="M233.35361715580402,74.63973044098195 L239.209398445797,52.95152212354171" stroke="#0d6d4d" stroke-width="0.1" fill="none" />
<path d="M232.65917476620552,76.77700435096588 L224.64859234751438,97.7650753402272" stroke="#0d6d4d" stroke-width="0.1" fill="none" />
<path d="M231.94515764878486,78.90781864479806 L201.77823363880796,138.96238494500093" stroke="#0d6d4d" stroke-width="0.1" fill="none" />
<path d="M231.21162587721304,81.03199404689278 L171.44427664738296,175.01959891639456" stroke="#0d6d4d" stroke-width="0.1" fill="none" />
<path d="M230.45864116702228,83.14935184022582 L134.7687475959216,204.60299282128491" stroke="#0d6d4d" stroke-width="0.1" fill="none" />
<path d="M229.68626687041333,85.25971388137116 L93.10824184513216,226.61830310129054" stroke="#0d6d4d" stroke-width="0.1" fill="none" />
<path d="M228.8945679709255,87.36290261548871 L48.003744631981995,240.25120291334122" stroke="#0d6d4d" stroke-width="0.1" fill="none" />
<path d="M228.08361107796932,89.45874109126305 L1.123631389599063,244.99742335890045" stroke="#0d6d4d" stroke-width="0.1" fill="none" />
<path d="M227.25346442122222,91.54705297579103 L-45.79804398343882,240.68140594422954" stroke="#0d6d4d" stroke-width="0.1" fill="none" />
<path d="M226.4041978448882,93.62766256941767 L-91.02569024212447,227.46279633369676" stroke="#0d6d4d" stroke-width="0.1" fill="none" />
<path d="M225.53588280182134,95.7003948205184 L-132.88637677912632,205.83053919794332" stroke="#0d6d4d" stroke-width="0.1" fill="none" />
<path d="M224.64859234751438,97.7650753402272 L-169.83171384736062,176.5847925832466" stroke="#0d6d4d" stroke-width="0.1" fill="none" />
<path d="M223.74240113395192,99.82153041710865 L-200.4951261263665,140.80733077355166" stroke="#0d6d4d" stroke-width="0.1" fill="none" />
<path d="M222.8173854033298,101.86958703177311 L-223.74240113395186,99.82153041710879" stroke="#0d6d4d" stroke-width="0.1" fill="none" />
<path d="M221.8736229816403,103.9090728714338 L-238.7136427420976,55.14341999548266" stroke="#0d6d4d" stroke-width="0.1" fill="none" />
<path d="M220.91119327212456,105.93981634440387 L-244.85507797370084,8.42560327174743" stroke="#0d6d4d" stroke-width="0.1" fill="none" />
<path d="M219.9301772485917,107.96164659453397 L-241.9395405748927,-38.60386906010659" stroke="#0d6d4d" stroke-width="0.1" fill="none" />
<path d="M218.93065744860618,109.9743935155864 L-230.07487369371998,-84.2054184409697" stroke="#0d6d4d" stroke-width="0.1" fill="none" />
<path d="M217.91271796654368,111.97788776554766 L-209.6999408575436,-126.69228391793528" stroke="#0d6d4d" stroke-width="0.1" fill="none" />
<path d="M216.87644444651573,113.9719607808753 L-181.56839279956765,-164.4929139391175" stroke="#0d6d4d" stroke-width="0.1" fill="none" />
<path d="M215.82192407516393,115.95644479068065 L-146.72079058522235,-196.20909665468452" stroke="#0d6d4d" stroke-width="0.1" fill="none" />
<path d="M214.74924557432473,117.93117283084385 L-106.4461161792787,-220.66767853572824" stroke="#0d6d4d" stroke-width="0.1" fill="none" />
<path d="M213.65849919356484,119.89597875806115 L-62.23409414375937,-236.9639582850221" stroke="#0d6d4d" stroke-width="0.1" fill="none" />
<path d="M212.54977670258782,121.85069726382388 L-15.720088044838414,-244.49515093731927" stroke="#0d6d4d" stroke-width="0.1" fill="none" />
<path d="M211.4231713835135,123.79516388832593 L31.37539019812813,-242.98268434173494" stroke="#0d6d4d" stroke-width="0.1" fill="none" />
<path d="M210.27877802302916,125.72921503430149 L77.31032052579488,-232.48250329906304" stroke="#0d6d4d" stroke-width="0.1" fill="none" />
<path d="M209.1166929044154,127.65268798078799 L120.3856105190853,-213.38300021310764" stroke="#0d6d4d" stroke-width="0.1" fill="none" />
<path d="M207.93701379944457,129.56542089681798 L159.00794332402683,-186.39064879940483" stroke="#0d6d4d" stroke-width="0.1" fill="none" />
<path d="M206.73983996015534,131.46725285503368 L191.74871303204776,-152.50387224773473" stroke="#0d6d4d" stroke-width="0.1" fill="none" />
<path d="M205.52527211050185,133.35802384522714 L217.396867548178,-112.9761124319648" stroke="#0d6d4d" stroke-width="0.1" fill="none" />
<path d="M204.29341243787943,135.23757478780254 L235.0037043362254,-69.26946620446815" stroke="#0d6d4d" stroke-width="0.1" fill="none" />
<path d="M203.04436458452727,137.10574754716004 L243.91796208596062,-23.000603727552065" stroke="#0d6d4d" stroke-width="0.1" fill="none" />
<path d="M201.77823363880796,138.96238494500093 L243.8099102925972,24.1190307250457" stroke="#0d6d4d" stroke-width="0.1" fill="none" />
<path d="M200.4951261263667,140.8073307735514 L234.68354569634278,70.34652357716472" stroke="#0d6d4d" stroke-width="0.1" fill="none" />
<path d="M199.19515000116792,142.64042980870545 L216.87644444651573,113.9719607808753" stroke="#0d6d4d" stroke-width="0.1" fill="none" />
<path d="M197.87841463641334,144.46152782308403 L191.04727545854686,153.38167602378755" stroke="#0d6d4d" stroke-width="0.1" fill="none" />
<path d="M196.54503081533935,146.27047159901176 L158.1514368337384,187.11793881780565" stroke="#0d6d4d" stroke-width="0.1" fill="none" />
<path d="M195.19511072189667,148.06710894140704 L119.40571652905216,213.93287465974845" stroke="#0d6d4d" stroke-width="0.1" fill="none" />
<path d="M193.8287679313116,149.85128869058735 L76.24328444747381,232.8346228048174" stroke="#0d6d4d" stroke-width="0.1" fill="none" />
<path d="M192.44611740053017,151.6228607349873 L30.26068075169828,243.12402431772102" stroke="#0d6d4d" stroke-width="0.1" fill="none" />
<path d="M191.04727545854686,153.38167602378755 L-16.841238743503443,244.42048334291528" stroke="#0d6d4d" stroke-width="0.1" fill="none" />
<path d="M189.63235979661658,155.12758657945582 L-63.32021572256736,236.67604500846198" stroke="#0d6d4d" stroke-width="0.1" fill="none" />
<path d="M188.20148945835336,156.86044551019643 L-107.45703396227806,220.17716923430052" stroke="#0d6d4d" stroke-width="0.1" fill="none" />
<path d="M186.75478482971414,158.58010702230962 L-147.61911161831168,195.53413483333404" stroke="#0d6d4d" stroke-width="0.1" fill="none" />
<path d="M185.2923676288706,160.28642643245703 L-182.3208889827731,163.65846583825515" stroke="#0d6d4d" stroke-width="0.1" fill="none" />
<path d="M183.81436089596787,161.9792601798356 L-210.2787780230292,125.72921503430146" stroke="#0d6d4d" stroke-width="0.1" fill="none" />
<path d="M182.32088898277317,163.6584658382551 L-230.45864116702222,83.14935184022598" stroke="#0d6d4d" stroke-width="0.1" fill="none" />
<path d="M180.81207754221313,165.32390212812152 L-242.11404313681945,37.493867711164995" stroke="#0d6d4d" stroke-width="0.1" fill="none" />
<path d="M179.28805351780193,166.97542892832402 L-244.81386092892623,-9.548481401373127" stroke="#0d6d4d" stroke-width="0.1" fill="none" />
<path d="M177.74894513296144,168.61290728802308 L-238.45823067262953,-56.23764063755704" stroke="#0d6d4d" stroke-width="0.1" fill="none" />
<path d="M176.19488188023243,170.23619943834194 L-223.28224150619297,-100.84661931849831" stroke="#0d6d4d" stroke-width="0.1" fill="none" />
<path d="M174.62599451038056,171.8451688039572 L-199.84723983769297,-141.72537080302746" stroke="#0d6d4d" stroke-width="0.1" fill="none" />
<path d="M173.0424150213949,173.4396800145899 L-169.02006563819228,-177.36182625261043" stroke="#0d6d4d" stroke-width="0.1" fill="none" />
<path d="M171.44427664738296,175.01959891639456 L-131.9409887983882,-206.4378247194627" stroke="#0d6d4d" stroke-width="0.1" fill="none" />
<path d="M169.83171384736065,176.58479258324655 L-89.9815315545282,-227.877870753396" stroke="#0d6d4d" stroke-width="0.1" fill="none" />
<path d="M168.2048622939399,178.13512932792545 L-44.6937370947278,-240.8889160266768" stroke="#0d6d4d" stroke-width="0.1" fill="none" />
<path d="M166.56385886191345,179.67047871319477 L2.247239144954703,-244.98969348979844" stroke="#0d6d4d" stroke-width="0.1" fill="none" />
<path d="M164.90884161673947,181.19071156277613 L49.10509199753707,-240.02851901370684" stroke="#0d6d4d" stroke-width="0.1" fill="none" />
<path d="M163.23994980292517,182.69569997221743 L94.14659095655922,-226.18890205148952" stroke="#0d6d4d" stroke-width="0.1" fill="none" />
<path d="M161.5573238323112,184.1853173196543 L135.705690838558,-203.9827577861171" stroke="#0d6d4d" stroke-width="0.1" fill="none" />
<path d="M159.8611052722588,185.65943827646305 L172.24515731990542,-174.23147184088478" stroke="#0d6d4d" stroke-width="0.1" fill="none" />
<path d="M158.1514368337384,187.11793881780565 L202.4134278739425,-138.03551795215708" stroke="#0d6d4d" stroke-width="0.1" fill="none" />
<path d="M156.4284623593232,188.56069623306394 L225.09460487266867,-96.73375241981039" stroke="#0d6d4d" stroke-width="0.1" fill="none" />
<path d="M154.6923268110865,189.9875891361644 L239.44973165239958,-51.8538909976275" stroke="#0d6d4d" stroke-width="0.1" fill="none" />
<path d="M152.94317625840597,191.39849747579044 L244.94782477825598,-5.056000039637766" stroke="#0d6d4d" stroke-width="0.1" fill="none" />
<path d="M151.18115786567336,192.79330254548353 L241.38551465148404,41.928907885111705" stroke="#0d6d4d" stroke-width="0.1" fill="none" />
<path d="M149.4064198799137,194.17188699362976 L228.8945679709255,87.36290261548871" stroke="#0d6d4d" stroke-width="0.1" fill="none" />
<path d="M147.6191116183117,195.53413483333398 L207.93701379944457,129.56542089681798" stroke="#0d6d4d" stroke-width="0.1" fill="none" />
<path d="M145.81938345564978,196.87993145217766 L179.28805351780193,166.97542892832402" stroke="#0d6d4d" stroke-width="0.1" fill="none" />
<path d="M144.00738681165595,198.2091636218621 L144.00738681165595,198.2091636218621" stroke="#0d6d4d" stroke-width="0.1" fill="none" />
<path d="M142.1832741382638,199.5217195077351 L103.40001431805494,222.11131677387814" stroke="#0d6d4d" stroke-width="0.1" fill="none" />
<path d="M140.34719890678693,200.8174886781995 L58.96796680683664,237.79776889337674" stroke="#0d6d4d" stroke-width="0.1" fill="none" />
<path d="M138.4993155950055,202.0963621140051 L12.354746391791995,244.6882919994222" stroke="#0d6d4d" stroke-width="0.1" fill="none" />
<path d="M136.63977967417034,203.35823221742018 L-34.715465157976766,242.5280117406344" stroke="#0d6d4d" stroke-width="0.1" fill="none" />
<path d="M134.7687475959216,204.60299282128491 L-80.5015823757439,231.39683497187536" stroke="#0d6d4d" stroke-width="0.1" fill="none" />
<path d="M132.88637677912646,205.83053919794324 L-123.31001730766444,211.70649407040753" stroke="#0d6d4d" stroke-width="0.1" fill="none" />
<path d="M130.99282559663385,207.04076806805432 L-161.55732383231114,184.1853173196543" stroke="#0d6d4d" stroke-width="0.1" fill="none" />
<path d="M129.08825336195076,208.23357760928184 L-193.8287679313116,149.85128869058735" stroke="#0d6d4d" stroke-width="0.1" fill="none" />
<path d="M127.1728203158376,209.40886746486092 L-218.93065744860618,109.97439351558646" stroke="#0d6d4d" stroke-width="0.1" fill="none" />
<path d="M125.24668761282688,210.56653875204142 L-235.93449570684967,66.0296428549673" stroke="#0d6d4d" stroke-width="0.1" fill="none" />
<path d="M123.3100173076645,211.7064940704075 L-244.21132577775887,19.642514143289485" stroke="#0d6d4d" stroke-width="0.1" fill="none" />
<path d="M121.36297234167472,212.8286375100726 L-243.45499504224523,-27.4711737823549" stroke="#0d6d4d" stroke-width="0.1" fill="none" />
<path d="M119.40571652905216,213.93287465974845 L-233.69347950484078,-73.56872730257443" stroke="#0d6d4d" stroke-width="0.1" fill="none" />
<path d="M117.43841454307821,215.01911261468854 L-215.2878489860501,-116.94503871032617" stroke="#0d6d4d" stroke-width="0.1" fill="none" />
<path d="M115.46123190226726,216.08725998450456 L-188.91891146924732,-155.9956566359291" stroke="#0d6d4d" stroke-width="0.1" fill="none" />
<path d="M113.47433495643999,217.13722690085564 L-155.5620306159053,-189.27613328324347" stroke="#0d6d4d" stroke-width="0.1" fill="none" />
<path d="M111.47789087272837,218.16892502500914 L-116.45104792698376,-215.55545327527054" stroke="#0d6d4d" stroke-width="0.1" fill="none" />
<path d="M109.47206762151039,219.1822675552734 L-73.03264403779313,-233.86156782346475" stroke="#0d6d4d" stroke-width="0.1" fill="none" />
<path d="M107.45703396227822,220.17716923430046 L-26.91282728164976,-243.51734995212988" stroke="#0d6d4d" stroke-width="0.1" fill="none" />
<path d="M105.43295942943979,221.15354635625923 L20.202471137010154,-244.16564082597344" stroke="#0d6d4d" stroke-width="0.1" fill="none" />
<path d="M103.40001431805494,222.11131677387814 L66.57049802808413,-235.7824607393282" stroke="#0d6d4d" stroke-width="0.1" fill="none" />
<path d="M101.35836966950762,223.05039990535644 L110.47614111391813,-218.67789610424197" stroke="#0d6d4d" stroke-width="0.1" fill="none" />
<path d="M99.30819725711521,223.9707167411443 L150.29536951453292,-193.48462962853145" stroke="#0d6d4d" stroke-width="0.1" fill="none" />
<path d="M97.24966957167693,224.8721898505897 L184.55530521256017,-161.1345379423628" stroke="#0d6d4d" stroke-width="0.1" fill="none" />
<path d="M95.18295980696078,225.75474338845348 L211.98870350756528,-122.82422230643913" stroke="#0d6d4d" stroke-width="0.1" fill="none" />
<path d="M93.10824184513216,226.61830310129054 L231.58082727596803,-79.97074739039437" stroke="#0d6d4d" stroke-width="0.1" fill="none" />
<path d="M91.02569024212461,227.4627963336967 L242.60698119917214,-34.15922530480663" stroke="#0d6d4d" stroke-width="0.1" fill="none" />
<path d="M88.93548021295304,228.28815203442213 L244.6593176020239,12.915816292902248" stroke="#0d6d4d" stroke-width="0.1" fill="none" />
<path d="M86.83778761697259,229.09430076234887 L237.661922377359,59.51311327680812" stroke="#0d6d4d" stroke-width="0.1" fill="none" />
<path d="M84.73278894308223,229.88117469233333 L221.8736229816403,103.9090728714338" stroke="#0d6d4d" stroke-width="0.1" fill="none" />
<path d="M82.62066129487633,230.6487076209128 L197.87841463641334,144.46152782308403" stroke="#0d6d4d" stroke-width="0.1" fill="none" />
<path d="M80.50158237574395,231.39683497187534 L166.56385886191345,179.67047871319477" stroke="#0d6d4d" stroke-width="0.1" fill="none" />
<path d="M78.37573047391778,232.12549380169295 L129.08825336195076,208.23357760928184" stroke="#0d6d4d" stroke-width="0.1" fill="none" />
<path d="M76.24328444747381,232.8346228048174 L86.83778761697259,229.09430076234887" stroke="#0d6d4d" stroke-width="0.1" fill="none" />
<path d="M74.10442370928311,233.52416231883808 L41.37526896199964,241.48102848530812" stroke="#0d6d4d" stroke-width="0.1" fill="none" />
<path d="M71.9593282119175,234.19405432950157 L-5.617684273566313,244.93558668230006" stroke="#0d6d4d" stroke-width="0.1" fill="none" />
<path d="M69.80817843250838,234.8442424755929 L-52.40284433966612,239.33019430300206" stroke="#0d6d4d" stroke-width="0.1" fill="none" />
<path d="M67.65115535756334,235.4746720536772 L-97.24966957167698,224.87218985058968" stroke="#0d6d4d" stroke-width="0.1" fill="none" />
<path d="M65.48844046773783,236.0852900227025 L-138.49931559500544,202.09636211400513" stroke="#0d6d4d" stroke-width="0.1" fill="none" />
<path d="M63.32021572256742,236.67604500846198 L-174.62599451038048,171.84516880395725" stroke="#0d6d4d" stroke-width="0.1" fill="none" />
<path d="M61.14666354515762,237.2468873079166 L-204.29341243787934,135.2375747878027" stroke="#0d6d4d" stroke-width="0.1" fill="none" />
<path d="M58.96796680683664,237.79776889337674 L-226.40419784488822,93.62766256941757" stroke="#0d6d4d" stroke-width="0.1" fill="none" />
<path d="M56.78430881176916,238.32864341654286 L-240.14049234788698,48.55454597578319" stroke="#0d6d4d" stroke-width="0.1" fill="none" />
<path d="M54.59587328153374,238.83946621240534 L-244.9942025702284,1.6854396986838778" stroke="#0d6d4d" stroke-width="0.1" fill="none" />
<path d="M52.402844339666274,239.33019430300203 L-240.78579406646216,-45.24600950120659" stroke="#0d6d4d" stroke-width="0.1" fill="none" />
<path d="M50.20540649616787,239.80078640103443 L-227.67093214257915,-90.50384885367653" stroke="#0d6d4d" stroke-width="0.1" fill="none" />
<path d="M48.003744631981995,240.25120291334122 L-206.13472393411112,-132.41403093557645" stroke="#0d6d4d" stroke-width="0.1" fill="none" />
<path d="M45.79804398343877,240.68140594422954 L-176.97377472252145,-169.42633520342176" stroke="#0d6d4d" stroke-width="0.1" fill="none" />
<path d="M43.58849012667093,241.0913592986632 L-141.26672221086193,-200.17170927930644" stroke="#0d6d4d" stroke-width="0.1" fill="none" />
<path d="M41.37526896199964,241.48102848530812 L-100.33433866976347,-223.5129089867098" stroke="#0d6d4d" stroke-width="0.1" fill="none" />
<path d="M39.158566698294564,241.85038071943407 L-55.690676740066024,-238.5865640060929" stroke="#0d6d4d" stroke-width="0.1" fill="none" />
<path d="M36.938569837306495,242.19938492567323 L-8.987065965615413,-244.83511317891" stroke="#0d6d4d" stroke-width="0.1" fill="none" />
<path d="M34.71546515797671,242.5280117406344 L38.048968425089605,-242.0274282014056" stroke="#0d6d4d" stroke-width="0.1" fill="none" />
<path d="M32.48943970072211,242.83623351537378 L83.6776051481896,-230.26736285601498" stroke="#0d6d4d" stroke-width="0.1" fill="none" />
<path d="M30.26068075169828,243.12402431772102 L126.21108131396218,-209.98991155186584" stroke="#0d6d4d" stroke-width="0.1" fill="none" />
<path d="M28.029375827042927,243.39135993446106 L164.07612128239373,-181.9451192665668" stroke="#0d6d4d" stroke-width="0.1" fill="none" />
<path d="M25.79571265709845,243.63821787337145 L195.87213073670904,-147.1703380462978" stroke="#0d6d4d" stroke-width="0.1" fill="none" />
<path d="M23.55987917061799,243.86457736511443 L220.42300342758227,-106.95185627170785" stroke="#0d6d4d" stroke-width="0.1" fill="none" />
<path d="M21.322063478953805,244.07041936498462 L236.82062430241143,-62.77731998911791" stroke="#0d6d4d" stroke-width="0.1" fill="none" />
<path d="M19.08245386023021,244.25572655451126 L244.45845987740591,-16.28070619987697" stroke="#0d6d4d" stroke-width="0.1" fill="none" />
<path d="M16.841238743503613,244.42048334291528 L243.0539933743525,30.818116502800887" stroke="#0d6d4d" stroke-width="0.1" fill="none" />
<path d="M14.598606692908193,244.5646758684209 L232.65917476620552,76.77700435096588" stroke="#0d6d4d" stroke-width="0.1" fill="none" />
<path d="M12.354746391791995,244.6882919994222 L213.65849919356484,119.89597875806115" stroke="#0d6d4d" stroke-width="0.1" fill="none" />
<path d="M10.109846626841197,244.79132133550354 L186.75478482971414,158.58010702230962" stroke="#0d6d4d" stroke-width="0.1" fill="none" />
<path d="M7.8640962721974805,244.87375520831463 L152.94317625840597,191.39849747579044" stroke="#0d6d4d" stroke-width="0.1" fill="none" />
<path d="M5.6176842735662635,244.93558668230008 L113.47433495643999,217.13722690085564" stroke="#0d6d4d" stroke-width="0.1" fill="none" />
<path d="M3.370799632320778,244.97681055528244 L69.80817843250838,234.8442424755929" stroke="#0d6d4d" stroke-width="0.1" fill="none" />
<path d="M1.123631389599063,244.99742335890045 L23.55987917061799,243.86457736511443" stroke="#0d6d4d" stroke-width="0.1" fill="none" />
<path d="M-1.123631389599112,244.99742335890045 L-23.55987917061804,243.86457736511443" stroke="#0d6d4d" stroke-width="0.1" fill="none" />
<path d="M-3.3707996323206086,244.97681055528244 L-69.80817843250844,234.8442424755929" stroke="#0d6d4d" stroke-width="0.1" fill="none" />
<path d="M-5.617684273566313,244.93558668230006 L-113.47433495643993,217.13722690085567" stroke="#0d6d4d" stroke-width="0.1" fill="none" />
<path d="M-7.86409627219742,244.87375520831466 L-152.94317625840594,191.39849747579046" stroke="#0d6d4d" stroke-width="0.1" fill="none" />
<path d="M-10.109846626841245,244.79132133550354 L-186.7547848297141,158.58010702230968" stroke="#0d6d4d" stroke-width="0.1" fill="none" />
<path d="M-12.354746391791933,244.6882919994222 L-213.6584991935647,119.8959787580614" stroke="#0d6d4d" stroke-width="0.1" fill="none" />
<path d="M-14.598606692908241,244.5646758684209 L-232.65917476620547,76.77700435096604" stroke="#0d6d4d" stroke-width="0.1" fill="none" />
<path d="M-16.841238743503443,244.42048334291528 L-243.05399337435247,30.818116502800994" stroke="#0d6d4d" stroke-width="0.1" fill="none" />
<path d="M-19.08245386023026,244.25572655451126 L-244.45845987740591,-16.280706199876967" stroke="#0d6d4d" stroke-width="0.1" fill="none" />
<path d="M-21.322063478953638,244.07041936498464 L-236.82062430241143,-62.77731998911781" stroke="#0d6d4d" stroke-width="0.1" fill="none" />
<path d="M-23.55987917061804,243.86457736511443 L-220.4230034275823,-106.9518562717078" stroke="#0d6d4d" stroke-width="0.1" fill="none" />
<path d="M-25.795712657098495,243.63821787337145 L-195.87213073670918,-147.1703380462976" stroke="#0d6d4d" stroke-width="0.1" fill="none" />
<path d="M-28.029375827042866,243.39135993446106 L-164.07612128239384,-181.9451192665667" stroke="#0d6d4d" stroke-width="0.1" fill="none" />
<path d="M-30.260680751698327,243.12402431772102 L-126.21108131396224,-209.9899115518658" stroke="#0d6d4d" stroke-width="0.1" fill="none" />
<path d="M-32.48943970072195,242.83623351537378 L-83.6776051481896,-230.26736285601498" stroke="#0d6d4d" stroke-width="0.1" fill="none" />
<path d="M-34.715465157976766,242.5280117406344 L-38.04896842508954,-242.0274282014056" stroke="#0d6d4d" stroke-width="0.1" fill="none" />
<path d="M-36.93856983730633,242.19938492567326 L8.98706596561537,-244.83511317891" stroke="#0d6d4d" stroke-width="0.1" fill="none" />
<path d="M-39.158566698294514,241.8503807194341 L55.69067674006591,-238.58656400609294" stroke="#0d6d4d" stroke-width="0.1" fill="none" />
<path d="M-41.375268961999474,241.48102848530814 L100.3343386697633,-223.51290898670985" stroke="#0d6d4d" stroke-width="0.1" fill="none" />
<path d="M-43.58849012667088,241.0913592986632 L141.2667222108619,-200.17170927930644" stroke="#0d6d4d" stroke-width="0.1" fill="none" />
<path d="M-45.79804398343882,240.68140594422954 L176.97377472252134,-169.42633520342187" stroke="#0d6d4d" stroke-width="0.1" fill="none" />
<path d="M-48.003744631981945,240.25120291334122 L206.13472393411112,-132.41403093557645" stroke="#0d6d4d" stroke-width="0.1" fill="none" />
<path d="M-50.20540649616792,239.80078640103443 L227.67093214257912,-90.50384885367657" stroke="#0d6d4d" stroke-width="0.1" fill="none" />
<path d="M-52.40284433966612,239.33019430300206 L240.78579406646213,-45.24600950120671" stroke="#0d6d4d" stroke-width="0.1" fill="none" />
<path d="M-54.5958732815338,238.8394662124053 L244.9942025702284,1.6854396986839264" stroke="#0d6d4d" stroke-width="0.1" fill="none" />
<path d="M-56.784308811769,238.3286434165429 L240.14049234788698,48.55454597578314" stroke="#0d6d4d" stroke-width="0.1" fill="none" />
<path d="M-58.9679668068367,237.79776889337674 L226.4041978448882,93.62766256941767" stroke="#0d6d4d" stroke-width="0.1" fill="none" />
<path d="M-61.146663545157466,237.24688730791667 L204.29341243787943,135.23757478780254" stroke="#0d6d4d" stroke-width="0.1" fill="none" />
<path d="M-63.32021572256736,236.67604500846198 L174.62599451038056,171.8451688039572" stroke="#0d6d4d" stroke-width="0.1" fill="none" />
<path d="M-65.48844046773768,236.08529002270257 L138.4993155950055,202.0963621140051" stroke="#0d6d4d" stroke-width="0.1" fill="none" />
<path d="M-67.65115535756317,235.47467205367727 L97.24966957167693,224.8721898505897" stroke="#0d6d4d" stroke-width="0.1" fill="none" />
<path d="M-69.80817843250844,234.8442424755929 L52.402844339666274,239.33019430300203" stroke="#0d6d4d" stroke-width="0.1" fill="none" />
<path d="M-71.95932821191734,234.19405432950163 L5.6176842735662635,244.93558668230008" stroke="#0d6d4d" stroke-width="0.1" fill="none" />
<path d="M-74.10442370928317,233.52416231883805 L-41.375268961999474,241.48102848530814" stroke="#0d6d4d" stroke-width="0.1" fill="none" />
<path d="M-76.24328444747364,232.83462280481746 L-86.83778761697245,229.09430076234892" stroke="#0d6d4d" stroke-width="0.1" fill="none" />
<path d="M-78.37573047391784,232.12549380169295 L-129.08825336195065,208.23357760928195" stroke="#0d6d4d" stroke-width="0.1" fill="none" />
<path d="M-80.5015823757439,231.39683497187536 L-166.56385886191342,179.67047871319483" stroke="#0d6d4d" stroke-width="0.1" fill="none" />
<path d="M-82.62066129487637,230.6487076209128 L-197.87841463641323,144.4615278230842" stroke="#0d6d4d" stroke-width="0.1" fill="none" />
<path d="M-84.73278894308206,229.88117469233342 L-221.8736229816403,103.90907287143376" stroke="#0d6d4d" stroke-width="0.1" fill="none" />
<path d="M-86.83778761697245,229.09430076234892 L-237.66192237735896,59.51311327680824" stroke="#0d6d4d" stroke-width="0.1" fill="none" />
<path d="M-88.93548021295288,228.28815203442218 L-244.6593176020239,12.915816292902306" stroke="#0d6d4d" stroke-width="0.1" fill="none" />
<path d="M-91.02569024212447,227.46279633369676 L-242.60698119917214,-34.159225304806576" stroke="#0d6d4d" stroke-width="0.1" fill="none" />
<path d="M-93.1082418451322,226.6183031012905 L-231.580827275968,-79.97074739039442" stroke="#0d6d4d" stroke-width="0.1" fill="none" />
<path d="M-95.18295980696062,225.75474338845356 L-211.98870350756536,-122.82422230643903" stroke="#0d6d4d" stroke-width="0.1" fill="none" />
<path d="M-97.24966957167698,224.87218985058968 L-184.55530521256023,-161.13453794236275" stroke="#0d6d4d" stroke-width="0.1" fill="none" />
<path d="M-99.30819725711515,223.97071674114432 L-150.29536951453306,-193.4846296285314" stroke="#0d6d4d" stroke-width="0.1" fill="none" />
<path d="M-101.35836966950768,223.05039990535641 L-110.47614111391825,-218.6778961042419" stroke="#0d6d4d" stroke-width="0.1" fill="none" />
<path d="M-103.40001431805489,222.11131677387814 L-66.57049802808417,-235.7824607393282" stroke="#0d6d4d" stroke-width="0.1" fill="none" />
<path d="M-105.43295942943976,221.15354635625926 L-20.202471137010125,-244.16564082597344" stroke="#0d6d4d" stroke-width="0.1" fill="none" />
<path d="M-107.45703396227806,220.17716923430052 L26.91282728164975,-243.51734995212988" stroke="#0d6d4d" stroke-width="0.1" fill="none" />
<path d="M-109.47206762151025,219.18226755527348 L73.03264403779306,-233.86156782346478" stroke="#0d6d4d" stroke-width="0.1" fill="none" />
<path d="M-111.47789087272824,218.1689250250092 L116.45104792698362,-215.5554532752706" stroke="#0d6d4d" stroke-width="0.1" fill="none" />
<path d="M-113.47433495643993,217.13722690085567 L155.5620306159053,-189.27613328324347" stroke="#0d6d4d" stroke-width="0.1" fill="none" />
<path d="M-115.4612319022673,216.08725998450453 L188.91891146924726,-155.9956566359292" stroke="#0d6d4d" stroke-width="0.1" fill="none" />
<path d="M-117.43841454307815,215.01911261468857 L215.2878489860501,-116.94503871032612" stroke="#0d6d4d" stroke-width="0.1" fill="none" />
<path d="M-119.4057165290521,213.93287465974848 L233.69347950484078,-73.56872730257443" stroke="#0d6d4d" stroke-width="0.1" fill="none" />
<path d="M-121.36297234167468,212.82863751007267 L243.45499504224523,-27.471173782354956" stroke="#0d6d4d" stroke-width="0.1" fill="none" />
<path d="M-123.31001730766444,211.70649407040753 L244.21132577775887,19.642514143289375" stroke="#0d6d4d" stroke-width="0.1" fill="none" />
<path d="M-125.24668761282685,210.56653875204142 L235.93449570684967,66.0296428549673" stroke="#0d6d4d" stroke-width="0.1" fill="none" />
<path d="M-127.17282031583755,209.40886746486092 L218.93065744860618,109.9743935155864" stroke="#0d6d4d" stroke-width="0.1" fill="none" />
<path d="M-129.08825336195065,208.23357760928195 L193.8287679313116,149.85128869058735" stroke="#0d6d4d" stroke-width="0.1" fill="none" />
<path d="M-130.99282559663382,207.04076806805438 L161.5573238323112,184.1853173196543" stroke="#0d6d4d" stroke-width="0.1" fill="none" />
<path d="M-132.88637677912632,205.83053919794332 L123.3100173076645,211.7064940704075" stroke="#0d6d4d" stroke-width="0.1" fill="none" />
<path d="M-134.76874759592155,204.60299282128494 L80.50158237574395,231.39683497187534" stroke="#0d6d4d" stroke-width="0.1" fill="none" />
<path d="M-136.63977967417028,203.3582322174202 L34.71546515797671,242.5280117406344" stroke="#0d6d4d" stroke-width="0.1" fill="none" />
<path d="M-138.49931559500544,202.09636211400513 L-12.354746391791933,244.6882919994222" stroke="#0d6d4d" stroke-width="0.1" fill="none" />
<path d="M-140.34719890678687,200.81748867819954 L-58.9679668068367,237.79776889337674" stroke="#0d6d4d" stroke-width="0.1" fill="none" />
<path d="M-142.18327413826378,199.52171950773513 L-103.40001431805489,222.11131677387814" stroke="#0d6d4d" stroke-width="0.1" fill="none" />
<path d="M-144.0073868116559,198.20916362186213 L-144.0073868116559,198.20916362186213" stroke="#0d6d4d" stroke-width="0.1" fill="none" />
<path d="M-145.81938345564976,196.8799314521777 L-179.28805351780187,166.9754289283241" stroke="#0d6d4d" stroke-width="0.1" fill="none" />
<path d="M-147.61911161831168,195.53413483333404 L-207.93701379944463,129.5654208968179" stroke="#0d6d4d" stroke-width="0.1" fill="none" />
<path d="M-149.40641987991356,194.17188699362987 L-228.89456797092546,87.36290261548876" stroke="#0d6d4d" stroke-width="0.1" fill="none" />
<path d="M-151.18115786567333,192.79330254548356 L-241.38551465148404,41.928907885111656" stroke="#0d6d4d" stroke-width="0.1" fill="none" />
<path d="M-152.94317625840594,191.39849747579046 L-244.94782477825598,-5.056000039637651" stroke="#0d6d4d" stroke-width="0.1" fill="none" />
<path d="M-154.69232681108647,189.98758913616442 L-239.44973165239958,-51.853890997627445" stroke="#0d6d4d" stroke-width="0.1" fill="none" />
<path d="M-156.42846235932313,188.56069623306394 L-225.09460487266867,-96.73375241981039" stroke="#0d6d4d" stroke-width="0.1" fill="none" />
<path d="M-158.15143683373833,187.1179388178057 L-202.41342787394248,-138.0355179521571" stroke="#0d6d4d" stroke-width="0.1" fill="none" />
<path d="M-159.86110527225875,185.6594382764631 L-172.24515731990547,-174.23147184088475" stroke="#0d6d4d" stroke-width="0.1" fill="none" />
<path d="M-161.55732383231114,184.1853173196543 L-135.705690838558,-203.9827577861171" stroke="#0d6d4d" stroke-width="0.1" fill="none" />
<path d="M-163.2399498029251,182.69569997221745 L-94.14659095655935,-226.18890205148946" stroke="#0d6d4d" stroke-width="0.1" fill="none" />
<path d="M-164.90884161673944,181.1907115627762 L-49.10509199753716,-240.0285190137068" stroke="#0d6d4d" stroke-width="0.1" fill="none" />
<path d="M-166.56385886191342,179.67047871319483 L-2.2472391449547042,-244.98969348979844" stroke="#0d6d4d" stroke-width="0.1" fill="none" />
<path d="M-168.20486229393978,178.13512932792557 L44.69373709472782,-240.8889160266768" stroke="#0d6d4d" stroke-width="0.1" fill="none" />
<path d="M-169.83171384736062,176.5847925832466 L89.98153155452816,-227.877870753396" stroke="#0d6d4d" stroke-width="0.1" fill="none" />
<path d="M-171.44427664738294,175.01959891639459 L131.94098879838808,-206.43782471946275" stroke="#0d6d4d" stroke-width="0.1" fill="none" />
<path d="M-173.04241502139485,173.43968001458992 L169.02006563819216,-177.36182625261057" stroke="#0d6d4d" stroke-width="0.1" fill="none" />
<path d="M-174.62599451038048,171.84516880395725 L199.8472398376929,-141.72537080302752" stroke="#0d6d4d" stroke-width="0.1" fill="none" />
<path d="M-176.1948818802324,170.23619943834203 L223.28224150619292,-100.84661931849841" stroke="#0d6d4d" stroke-width="0.1" fill="none" />
<path d="M-177.74894513296138,168.61290728802314 L238.45823067262953,-56.23764063755705" stroke="#0d6d4d" stroke-width="0.1" fill="none" />
<path d="M-179.28805351780187,166.9754289283241 L244.81386092892623,-9.548481401373133" stroke="#0d6d4d" stroke-width="0.1" fill="none" />
<path d="M-180.81207754221307,165.3239021281216 L242.11404313681945,37.49386771116493" stroke="#0d6d4d" stroke-width="0.1" fill="none" />
<path d="M-182.3208889827731,163.65846583825515 L230.45864116702228,83.14935184022582" stroke="#0d6d4d" stroke-width="0.1" fill="none" />
<path d="M-183.8143608959678,161.97926017983565 L210.27877802302916,125.72921503430149" stroke="#0d6d4d" stroke-width="0.1" fill="none" />
<path d="M-185.29236762887047,160.28642643245718 L182.32088898277317,163.6584658382551" stroke="#0d6d4d" stroke-width="0.1" fill="none" />
<path d="M-186.7547848297141,158.58010702230968 L147.6191116183117,195.53413483333398" stroke="#0d6d4d" stroke-width="0.1" fill="none" />
<path d="M-188.2014894583534,156.86044551019643 L107.45703396227822,220.17716923430046" stroke="#0d6d4d" stroke-width="0.1" fill="none" />
<path d="M-189.6323597966166,155.1275865794558 L63.32021572256742,236.67604500846198" stroke="#0d6d4d" stroke-width="0.1" fill="none" />
<path d="M-191.0472754585468,153.3816760237876 L16.841238743503613,244.42048334291528" stroke="#0d6d4d" stroke-width="0.1" fill="none" />
<path d="M-192.4461174005301,151.62286073498737 L-30.260680751698327,243.12402431772102" stroke="#0d6d4d" stroke-width="0.1" fill="none" />
<path d="M-193.8287679313116,149.85128869058735 L-76.24328444747364,232.83462280481746" stroke="#0d6d4d" stroke-width="0.1" fill="none" />
<path d="M-195.19511072189653,148.06710894140718 L-119.4057165290521,213.93287465974848" stroke="#0d6d4d" stroke-width="0.1" fill="none" />
<path d="M-196.5450308153393,146.2704715990118 L-158.15143683373833,187.1179388178057" stroke="#0d6d4d" stroke-width="0.1" fill="none" />
<path d="M-197.87841463641323,144.4615278230842 L-191.0472754585468,153.3816760237876" stroke="#0d6d4d" stroke-width="0.1" fill="none" />
<path d="M-199.19515000116792,142.64042980870542 L-216.87644444651565,113.97196078087545" stroke="#0d6d4d" stroke-width="0.1" fill="none" />
<path d="M-200.4951261263665,140.80733077355166 L-234.68354569634275,70.34652357716483" stroke="#0d6d4d" stroke-width="0.1" fill="none" />
<path d="M-201.7782336388079,138.962384945001 L-243.8099102925972,24.119030725045704" stroke="#0d6d4d" stroke-width="0.1" fill="none" />
<path d="M-203.04436458452727,137.10574754716 L-243.91796208596062,-23.000603727552114" stroke="#0d6d4d" stroke-width="0.1" fill="none" />
<path d="M-204.29341243787934,135.2375747878027 L-235.00370433622544,-69.26946620446803" stroke="#0d6d4d" stroke-width="0.1" fill="none" />
<path d="M-205.52527211050182,133.35802384522722 L-217.39686754817802,-112.97611243196476" stroke="#0d6d4d" stroke-width="0.1" fill="none" />
<path d="M-206.73983996015528,131.46725285503373 L-191.74871303204776,-152.50387224773473" stroke="#0d6d4d" stroke-width="0.1" fill="none" />
<path d="M-207.93701379944463,129.5654208968179 L-159.0079433240269,-186.39064879940477" stroke="#0d6d4d" stroke-width="0.1" fill="none" />
<path d="M-209.11669290441532,127.65268798078816 L-120.38561051908533,-213.3830002131076" stroke="#0d6d4d" stroke-width="0.1" fill="none" />
<path d="M-210.2787780230292,125.72921503430146 L-77.31032052579505,-232.48250329906298" stroke="#0d6d4d" stroke-width="0.1" fill="none" />
<path d="M-211.42317138351342,123.79516388832609 L-31.37539019812824,-242.98268434173494" stroke="#0d6d4d" stroke-width="0.1" fill="none" />
<path d="M-212.54977670258774,121.85069726382403 L15.720088044838333,-244.49515093731927" stroke="#0d6d4d" stroke-width="0.1" fill="none" />
<path d="M-213.6584991935647,119.8959787580614 L62.23409414375944,-236.96395828502207" stroke="#0d6d4d" stroke-width="0.1" fill="none" />
<path d="M-214.7492455743247,117.93117283084393 L106.44611617927869,-220.66767853572824" stroke="#0d6d4d" stroke-width="0.1" fill="none" />
<path d="M-215.82192407516396,115.95644479068059 L146.7207905852223,-196.20909665468457" stroke="#0d6d4d" stroke-width="0.1" fill="none" />
<path d="M-216.87644444651565,113.97196078087545 L181.56839279956768,-164.49291393911747" stroke="#0d6d4d" stroke-width="0.1" fill="none" />
<path d="M-217.9127179665437,111.97788776554762 L209.69994085754345,-126.6922839179355" stroke="#0d6d4d" stroke-width="0.1" fill="none" />
<path d="M-218.93065744860618,109.97439351558646 L230.07487369371995,-84.20541844096974" stroke="#0d6d4d" stroke-width="0.1" fill="none" />
<path d="M-219.93017724859172,107.96164659453383 L241.93954057489267,-38.60386906010675" stroke="#0d6d4d" stroke-width="0.1" fill="none" />
<path d="M-220.9111932721245,105.93981634440401 L244.85507797370084,8.425603271747372" stroke="#0d6d4d" stroke-width="0.1" fill="none" />
<path d="M-221.8736229816403,103.90907287143376 L238.71364274209762,55.143419995482546" stroke="#0d6d4d" stroke-width="0.1" fill="none" />
<path d="M-222.81738540332975,101.8695870317732 L223.74240113395192,99.82153041710865" stroke="#0d6d4d" stroke-width="0.1" fill="none" />
<path d="M-223.74240113395186,99.82153041710879 L200.4951261263667,140.8073307735514" stroke="#0d6d4d" stroke-width="0.1" fill="none" />
<path d="M-224.6485923475143,97.76507534022741 L169.83171384736065,176.58479258324655" stroke="#0d6d4d" stroke-width="0.1" fill="none" />
<path d="M-225.53588280182132,95.70039482051845 L132.88637677912646,205.83053919794324" stroke="#0d6d4d" stroke-width="0.1" fill="none" />
<path d="M-226.40419784488822,93.62766256941757 L91.02569024212461,227.4627963336967" stroke="#0d6d4d" stroke-width="0.1" fill="none" />
<path d="M-227.25346442122213,91.54705297579119 L45.79804398343877,240.68140594422954" stroke="#0d6d4d" stroke-width="0.1" fill="none" />
<path d="M-228.08361107796932,89.45874109126305 L-1.123631389599112,244.99742335890045" stroke="#0d6d4d" stroke-width="0.1" fill="none" />
<path d="M-228.89456797092546,87.36290261548876 L-48.003744631981945,240.25120291334122" stroke="#0d6d4d" stroke-width="0.1" fill="none" />
<path d="M-229.68626687041328,85.25971388137125 L-93.1082418451322,226.6183031012905" stroke="#0d6d4d" stroke-width="0.1" fill="none" />
<path d="M-230.45864116702222,83.14935184022598 L-134.76874759592155,204.60299282128494" stroke="#0d6d4d" stroke-width="0.1" fill="none" />
<path d="M-231.21162587721304,81.03199404689278 L-171.44427664738294,175.01959891639459" stroke="#0d6d4d" stroke-width="0.1" fill="none" />
<path d="M-231.94515764878483,78.90781864479817 L-201.7782336388079,138.962384945001" stroke="#0d6d4d" stroke-width="0.1" fill="none" />
<path d="M-232.65917476620547,76.77700435096604 L-224.6485923475143,97.76507534022741" stroke="#0d6d4d" stroke-width="0.1" fill="none" />
<path d="M-233.35361715580396,74.63973044098216 L-239.20939844579698,52.95152212354188" stroke="#0d6d4d" stroke-width="0.1" fill="none" />
<path d="M-234.02842639082465,72.49617673391047 L-244.92206060281546,6.179338967137241" stroke="#0d6d4d" stroke-width="0.1" fill="none" />
<path d="M-234.68354569634275,70.34652357716483 L-241.57527250125318,-40.82141246876783" stroke="#0d6d4d" stroke-width="0.1" fill="none" />
<path d="M-235.3189199540416,68.19095183133436 L-229.2928288709825,-86.31221598558534" stroke="#0d6d4d" stroke-width="0.1" fill="none" />
<path d="M-235.93449570684967,66.0296428549673 L-208.52904643156873,-128.61040702190726" stroke="#0d6d4d" stroke-width="0.1" fill="none" />
<path d="M-236.53022116343806,63.86277848931319 L-180.05195911889712,-166.15141292642386" stroke="#0d6d4d" stroke-width="0.1" fill="none" />
<path d="M-237.10604620257826,61.69054104302234 L-144.91490918961603,-197.54662511560488" stroke="#0d6d4d" stroke-width="0.1" fill="none" />
<path d="M-237.66192237735896,59.51311327680824 L-104.41758502330289,-221.6347624762445" stroke="#0d6d4d" stroke-width="0.1" fill="none" />
<path d="M-238.19780291926207,57.330678388070524 L-60.057946799564775,-237.52482612607182" stroke="#0d6d4d" stroke-width="0.1" fill="none" />
<path d="M-238.7136427420976,55.14341999548266 L-13.476818276733129,-244.62905667384632" stroke="#0d6d4d" stroke-width="0.1" fill="none" />
<path d="M-239.20939844579698,52.95152212354188 L33.60280582678022,-242.68467491905562" stroke="#0d6d4d" stroke-width="0.1" fill="none" />
<path d="M-239.68502832006462,50.755169187086956 L79.43949188221745,-231.76360182197527" stroke="#0d6d4d" stroke-width="0.1" fill="none" />
<path d="M-240.14049234788698,48.55454597578319 L122.33778143918259,-212.2697982110003" stroke="#0d6d4d" stroke-width="0.1" fill="none" />
<path d="M-240.57575220889956,46.349837638573874 L160.71090473319222,-184.92432262911987" stroke="#0d6d4d" stroke-width="0.1" fill="none" />
<path d="M-240.990771282611,44.14122966810363 L193.1394738949265,-150.73866001656975" stroke="#0d6d4d" stroke-width="0.1" fill="none" />
<path d="M-241.38551465148404,41.928907885111656 L218.4239848513157,-110.9773077780868" stroke="#0d6d4d" stroke-width="0.1" fill="none" />
<path d="M-241.75994910387323,39.71305842279861 L235.62918591960766,-67.11100314302398" stroke="#0d6d4d" stroke-width="0.1" fill="none" />
<path d="M-242.11404313681945,37.493867711164995 L244.1186719393874,-20.76232189688224" stroke="#0d6d4d" stroke-width="0.1" fill="none" />
<path d="M-242.44776695870004,35.271522461326796 L243.57842433622432,26.354339260968903" stroke="#0d6d4d" stroke-width="0.1" fill="none" />
<path d="M-242.7610924917357,33.04620964980615 L234.02842639082465,72.49617673391042" stroke="#0d6d4d" stroke-width="0.1" fill="none" />
<path d="M-243.05399337435247,30.818116502800994 L215.82192407516393,115.95644479068065" stroke="#0d6d4d" stroke-width="0.1" fill="none" />
<path d="M-243.32644496339992,28.58743048043152 L189.63235979661658,155.12758657945582" stroke="#0d6d4d" stroke-width="0.1" fill="none" />
<path d="M-243.57842433622432,26.354339260968906 L156.4284623593232,188.56069623306394" stroke="#0d6d4d" stroke-width="0.1" fill="none" />
<path d="M-243.8099102925972,24.119030725045704 L117.43841454307821,215.01911261468854" stroke="#0d6d4d" stroke-width="0.1" fill="none" />
<path d="M-244.0208833564993,21.881692939847238 L74.10442370928311,233.52416231883808" stroke="#0d6d4d" stroke-width="0.1" fill="none" />
<path d="M-244.21132577775887,19.642514143289485 L28.029375827042927,243.39135993446106" stroke="#0d6d4d" stroke-width="0.1" fill="none" />
<path d="M-244.38122153354524,17.401682728181296 L-19.08245386023026,244.25572655451126" stroke="#0d6d4d" stroke-width="0.1" fill="none" />
<path d="M-244.53055632971683,15.159387226374855 L-65.48844046773768,236.08529002270257" stroke="#0d6d4d" stroke-width="0.1" fill="none" />
<path d="M-244.6593176020239,12.915816292902306 L-109.47206762151025,219.18226755527348" stroke="#0d6d4d" stroke-width="0.1" fill="none" />
<path d="M-244.76749451716543,10.67115869010417 L-149.40641987991356,194.17188699362987" stroke="#0d6d4d" stroke-width="0.1" fill="none" />
<path d="M-244.85507797370084,8.42560327174743 L-183.8143608959678,161.97926017983565" stroke="#0d6d4d" stroke-width="0.1" fill="none" />
<path d="M-244.92206060281546,6.179338967137241 L-211.42317138351342,123.79516388832609" stroke="#0d6d4d" stroke-width="0.1" fill="none" />
<path d="M-244.9684367689408,3.9325547652200803 L-231.21162587721304,81.03199404689278" stroke="#0d6d4d" stroke-width="0.1" fill="none" />
<path d="M-244.9942025702284,1.6854396986838778 L-242.44776695870004,35.271522461326796" stroke="#0d6d4d" stroke-width="0.1" fill="none" />
<path d="M-244.99935583887827,-0.5618171719455654 L-244.71597971368058,-11.793611523764936" stroke="#0d6d4d" stroke-width="0.1" fill="none" />
<path d="M-244.98389614132142,-2.8090267742124446 L-237.93236495978184,-58.42251025628037" stroke="#0d6d4d" stroke-width="0.1" fill="none" />
<path d="M-244.94782477825598,-5.056000039637651 L-222.347842603055,-102.89041204002966" stroke="#0d6d4d" stroke-width="0.1" fill="none" />
<path d="M-244.891144784538,-7.302547919626441 L-198.53887033272187,-143.55248854341275" stroke="#0d6d4d" stroke-width="0.1" fill="none" />
<path d="M-244.81386092892623,-9.548481401373127 L-167.3861209614318,-178.9046855436853" stroke="#0d6d4d" stroke-width="0.1" fill="none" />
<path d="M-244.71597971368058,-11.793611523764936 L-130.04190711734364,-207.63935656152515" stroke="#0d6d4d" stroke-width="0.1" fill="none" />
<path d="M-244.59750937401526,-14.037749393279329 L-87.88755821983895,-228.69363154699874" stroke="#0d6d4d" stroke-width="0.1" fill="none" />
<path d="M-244.45845987740591,-16.280706199876967 L-42.48232632681697,-241.28873150203643" stroke="#0d6d4d" stroke-width="0.1" fill="none" />
<path d="M-244.29884292275102,-18.52229323288633 L4.494289218944729,-244.95877482632966" stroke="#0d6d4d" stroke-width="0.1" fill="none" />
<path d="M-244.1186719393874,-20.762321896882128 L51.30466498407375,-239.56800986540745" stroke="#0d6d4d" stroke-width="0.1" fill="none" />
<path d="M-243.91796208596062,-23.000603727552114 L96.21732659755634,-225.3158362441912" stroke="#0d6d4d" stroke-width="0.1" fill="none" />
<path d="M-243.69673024914945,-25.236950407552822 L137.57099445531614,-202.72942925134322" stroke="#0d6d4d" stroke-width="0.1" fill="none" />
<path d="M-243.45499504224523,-27.4711737823549 L173.83603298248838,-172.64424009190466" stroke="#0d6d4d" stroke-width="0.1" fill="none" />
<path d="M-243.1927768035857,-29.703085876072596 L203.67103049956236,-136.17309328661938" stroke="#0d6d4d" stroke-width="0.1" fill="none" />
<path d="M-242.9100975948439,-31.932498907279488 L225.97241685321853,-94.66502427779356" stroke="#0d6d4d" stroke-width="0.1" fill="none" />
<path d="M-242.60698119917214,-34.159225304806576 L239.9152834996079,-49.655379802220445" stroke="#0d6d4d" stroke-width="0.1" fill="none" />
<path d="M-242.28345311920077,-36.383077723524835 L244.98389614132142,-2.8090267742125046" stroke="#0d6d4d" stroke-width="0.1" fill="none" />
<path d="M-241.9395405748927,-38.60386906010659 L240.99077128261104,44.141229668103456" stroke="#0d6d4d" stroke-width="0.1" fill="none" />
<path d="M-241.57527250125318,-40.82141246876783 L228.08361107796932,89.45874109126305" stroke="#0d6d4d" stroke-width="0.1" fill="none" />
<path d="M-241.19067954589548,-43.03552137698763 L206.73983996015534,131.46725285503368" stroke="#0d6d4d" stroke-width="0.1" fill="none" />
<path d="M-240.78579406646216,-45.24600950120659 L177.74894513296144,168.61290728802308" stroke="#0d6d4d" stroke-width="0.1" fill="none" />
<path d="M-240.36065012790277,-47.4526908624992 L142.1832741382638,199.5217195077351" stroke="#0d6d4d" stroke-width="0.1" fill="none" />
<path d="M-239.9152834996079,-49.65537980222044 L101.35836966950762,223.05039990535644" stroke="#0d6d4d" stroke-width="0.1" fill="none" />
<path d="M-239.44973165239958,-51.853890997627445 L56.78430881176916,238.32864341654286" stroke="#0d6d4d" stroke-width="0.1" fill="none" />
<path d="M-238.9640337553787,-54.04803947747071 L10.109846626841197,244.79132133550354" stroke="#0d6d4d" stroke-width="0.1" fill="none" />
<path d="M-238.45823067262953,-56.23764063755704 L-36.93856983730633,242.19938492567326" stroke="#0d6d4d" stroke-width="0.1" fill="none" />
<path d="M-237.93236495978184,-58.42251025628037 L-82.62066129487637,230.6487076209128" stroke="#0d6d4d" stroke-width="0.1" fill="none" />
<path d="M-237.3864808604301,-60.6024645101224 L-125.24668761282685,210.56653875204142" stroke="#0d6d4d" stroke-width="0.1" fill="none" />
<path d="M-236.82062430241143,-62.77731998911781 L-163.2399498029251,182.69569997221745" stroke="#0d6d4d" stroke-width="0.1" fill="none" />
<path d="M-236.23484289394116,-64.94689371228569 L-195.19511072189653,148.06710894140718" stroke="#0d6d4d" stroke-width="0.1" fill="none" />
<path d="M-235.62918591960766,-67.11100314302394 L-219.93017724859172,107.96164659453383" stroke="#0d6d4d" stroke-width="0.1" fill="none" />
<path d="M-235.00370433622544,-69.26946620446803 L-236.53022116343806,63.86277848931319" stroke="#0d6d4d" stroke-width="0.1" fill="none" />
<path d="M-234.35845076854807,-71.42210129480955 L-244.38122153354524,17.401682728181296" stroke="#0d6d4d" stroke-width="0.1" fill="none" />
<path d="M-233.69347950484078,-73.56872730257443 L-243.1927768035857,-29.703085876072596" stroke="#0d6d4d" stroke-width="0.1" fill="none" />
<path d="M-233.00884649231264,-75.70916362186207 L-233.00884649231264,-75.70916362186207" stroke="#0d6d4d" stroke-width="0.1" fill="none" />
<path d="M-232.30460933240957,-77.84323016753976 L-214.20612516886675,-118.91482641008145" stroke="#0d6d4d" stroke-width="0.1" fill="none" />
<path d="M-231.580827275968,-79.97074739039442 L-187.48010885404926,-157.7219350124574" stroke="#0d6d4d" stroke-width="0.1" fill="none" />
<path d="M-230.83756121823012,-82.09153629223822 L-153.81936923804702,-190.69504882720304" stroke="#0d6d4d" stroke-width="0.1" fill="none" />
<path d="M-230.07487369371998,-84.2054184409697 L-114.46898728852614,-216.61452155647194" stroke="#0d6d4d" stroke-width="0.1" fill="none" />
<path d="M-229.2928288709825,-86.31221598558534 L-70.88449880757179,-234.52161484349233" stroke="#0d6d4d" stroke-width="0.1" fill="none" />
<path d="M-228.4914925471845,-88.41175167114342 L-24.67805545056006,-243.7539611558735" stroke="#0d6d4d" stroke-width="0.1" fill="none" />
<path d="M-227.67093214257915,-90.50384885367653 L22.441207336774266,-243.97006417441446" stroke="#0d6d4d" stroke-width="0.1" fill="none" />
<path d="M-226.83121669483313,-92.58833151505458 L68.73038972583971,-235.16193043971677" stroke="#0d6d4d" stroke-width="0.1" fill="none" />
<path d="M-225.9724168532185,-94.66502427779362 L112.47729582733189,-217.65536502317343" stroke="#0d6d4d" stroke-width="0.1" fill="none" />
<path d="M-225.09460487266867,-96.73375241981039 L152.06376630183556,-192.09792028572494" stroke="#0d6d4d" stroke-width="0.1" fill="none" />
<path d="M-224.1978546076989,-98.7943418891239 L186.0255326416718,-159.43494348913072" stroke="#0d6d4d" stroke-width="0.1" fill="none" />
<path d="M-223.28224150619297,-100.84661931849831 L213.10637916707688,-120.87460923741622" stroke="#0d6d4d" stroke-width="0.1" fill="none" />
<path d="M-222.347842603055,-102.89041204002966 L232.3046093324095,-77.84323016753986" stroke="#0d6d4d" stroke-width="0.1" fill="none" />
<path d="M-221.39473651372865,-104.92554809967238 L242.9100975948439,-31.932498907279495" stroke="#0d6d4d" stroke-width="0.1" fill="none" />
<path d="M-220.4230034275823,-106.9518562717078 L244.53055632971683,15.15938722637485" stroke="#0d6d4d" stroke-width="0.1" fill="none" />
<path d="M-219.4327251011626,-108.9691660731494 L237.10604620257828,61.690541043022236" stroke="#0d6d4d" stroke-width="0.1" fill="none" />
<path d="M-218.4239848513157,-110.9773077780868 L220.91119327212456,105.93981634440387" stroke="#0d6d4d" stroke-width="0.1" fill="none" />
<path d="M-217.39686754817802,-112.97611243196476 L196.54503081533935,146.27047159901176" stroke="#0d6d4d" stroke-width="0.1" fill="none" />
<path d="M-216.35145960803484,-114.96541186579933 L164.90884161673947,181.19071156277613" stroke="#0d6d4d" stroke-width="0.1" fill="none" />
<path d="M-215.2878489860501,-116.94503871032617 L127.1728203158376,209.40886746486092" stroke="#0d6d4d" stroke-width="0.1" fill="none" />
<path d="M-214.20612516886675,-118.91482641008145 L84.73278894308223,229.88117469233333" stroke="#0d6d4d" stroke-width="0.1" fill="none" />
<path d="M-213.10637916707688,-120.87460923741621 L39.158566698294564,241.85038071943407" stroke="#0d6d4d" stroke-width="0.1" fill="none" />
<path d="M-211.98870350756536,-122.82422230643903 L-7.86409627219742,244.87375520831466" stroke="#0d6d4d" stroke-width="0.1" fill="none" />
<path d="M-210.85319222572457,-124.76350158688894 L-54.5958732815338,238.8394662124053" stroke="#0d6d4d" stroke-width="0.1" fill="none" />
<path d="M-209.6999408575436,-126.69228391793528 L-99.30819725711515,223.97071674114432" stroke="#0d6d4d" stroke-width="0.1" fill="none" />
<path d="M-208.52904643156873,-128.61040702190726 L-140.34719890678687,200.81748867819954" stroke="#0d6d4d" stroke-width="0.1" fill="none" />
<path d="M-207.340607460742,-130.51770951794433 L-176.1948818802324,170.23619943834203" stroke="#0d6d4d" stroke-width="0.1" fill="none" />
<path d="M-206.13472393411112,-132.41403093557645 L-205.52527211050182,133.35802384522722" stroke="#0d6d4d" stroke-width="0.1" fill="none" />
<path d="M-204.9114973084181,-134.29921172822333 L-227.25346442122213,91.54705297579119" stroke="#0d6d4d" stroke-width="0.1" fill="none" />
<path d="M-203.67103049956245,-136.17309328661926 L-240.57575220889956,46.349837638573874" stroke="#0d6d4d" stroke-width="0.1" fill="none" />
<path d="M-202.41342787394248,-138.0355179521571 L-244.99935583887827,-0.5618171719455654" stroke="#0d6d4d" stroke-width="0.1" fill="none" />
<path d="M-201.13879523967512,-139.88632903015233 L-240.36065012790277,-47.4526908624992" stroke="#0d6d4d" stroke-width="0.1" fill="none" />
<path d="M-199.84723983769297,-141.72537080302746 L-226.83121669483313,-92.58833151505458" stroke="#0d6d4d" stroke-width="0.1" fill="none" />
<path d="M-198.53887033272187,-143.55248854341275 L-204.9114973084181,-134.29921172822333" stroke="#0d6d4d" stroke-width="0.1" fill="none" />
<path d="M-197.21379680413847,-145.3675285271645 L-175.41228298917483,-171.04248295825707" stroke="#0d6d4d" stroke-width="0.1" fill="none" />
<path d="M-195.87213073670918,-147.1703380462976 L-139.42472356711255,-201.4590441212165" stroke="#0d6d4d" stroke-width="0.1" fill="none" />
<path d="M-194.5139850112091,-148.96076542183556 L-98.27996701522169,-224.42381353922076" stroke="#0d6d4d" stroke-width="0.1" fill="none" />
<path d="M-193.13947389492657,-150.73866001656967 L-53.49992146405491,-239.08734471598441" stroke="#0d6d4d" stroke-width="0.1" fill="none" />
<path d="M-191.74871303204776,-152.50387224773473 L-6.740961166913166,-244.90724661092855" stroke="#0d6d4d" stroke-width="0.1" fill="none" />
<path d="M-190.3418194339283,-154.25625359959264 L40.26734131784749,-241.668246203741" stroke="#0d6d4d" stroke-width="0.1" fill="none" />
<path d="M-188.91891146924732,-155.9956566359291 L85.78619048502398,-229.49015125287443" stroke="#0d6d4d" stroke-width="0.1" fill="none" />
<path d="M-187.48010885404926,-157.7219350124574 L128.13188438942262,-208.82341871259467" stroke="#0d6d4d" stroke-width="0.1" fill="none" />
<path d="M-186.02553264167193,-159.43494348913055 L165.73809329068536,-180.43249272890978" stroke="#0d6d4d" stroke-width="0.1" fill="none" />
<path d="M-184.55530521256023,-161.13453794236275 L197.2137968041385,-145.36752852716447" stroke="#0d6d4d" stroke-width="0.1" fill="none" />
<path d="M-183.06955026397173,-162.8205753771529 L221.39473651372865,-104.92554809967238" stroke="#0d6d4d" stroke-width="0.1" fill="none" />
<path d="M-181.56839279956765,-164.4929139391175 L237.3864808604301,-60.60246451012246" stroke="#0d6d4d" stroke-width="0.1" fill="none" />
<path d="M-180.05195911889712,-166.15141292642386 L244.59750937401526,-14.037749393279498" stroke="#0d6d4d" stroke-width="0.1" fill="none" />
<path d="M-178.52037680676938,-167.79593280162982 L242.7610924917357,33.046209649806094" stroke="#0d6d4d" stroke-width="0.1" fill="none" />
<path d="M-176.97377472252145,-169.42633520342176 L231.94515764878486,78.90781864479806" stroke="#0d6d4d" stroke-width="0.1" fill="none" />
<path d="M-175.41228298917483,-171.04248295825707 L212.54977670258782,121.85069726382388" stroke="#0d6d4d" stroke-width="0.1" fill="none" />
<path d="M-173.83603298248838,-172.64424009190466 L185.2923676288706,160.28642643245703" stroke="#0d6d4d" stroke-width="0.1" fill="none" />
<path d="M-172.24515731990547,-174.23147184088475 L151.18115786567336,192.79330254548353" stroke="#0d6d4d" stroke-width="0.1" fill="none" />
<path d="M-170.63978984939516,-175.80404466380818 L111.47789087272837,218.16892502500914" stroke="#0d6d4d" stroke-width="0.1" fill="none" />
<path d="M-169.02006563819228,-177.36182625261043 L67.65115535756334,235.4746720536772" stroke="#0d6d4d" stroke-width="0.1" fill="none" />
<path d="M-167.3861209614318,-178.9046855436853 L21.322063478953805,244.07041936498462" stroke="#0d6d4d" stroke-width="0.1" fill="none" />
<path d="M-165.7380932906854,-180.43249272890972 L-25.795712657098495,243.63821787337145" stroke="#0d6d4d" stroke-width="0.1" fill="none" />
<path d="M-164.07612128239384,-181.9451192665667 L-71.95932821191734,234.19405432950163" stroke="#0d6d4d" stroke-width="0.1" fill="none" />
<path d="M-162.40034476620158,-183.4424378921597 L-115.4612319022673,216.08725998450453" stroke="#0d6d4d" stroke-width="0.1" fill="none" />
<path d="M-160.71090473319225,-184.9243226291198 L-154.69232681108647,189.98758913616442" stroke="#0d6d4d" stroke-width="0.1" fill="none" />
<path d="M-159.0079433240269,-186.39064879940477 L-188.2014894583534,156.86044551019643" stroke="#0d6d4d" stroke-width="0.1" fill="none" />
<path d="M-157.29160381698398,-187.84129303398907 L-214.7492455743247,117.93117283084393" stroke="#0d6d4d" stroke-width="0.1" fill="none" />
<path d="M-155.5620306159053,-189.27613328324347 L-233.35361715580396,74.63973044098216" stroke="#0d6d4d" stroke-width="0.1" fill="none" />
<path d="M-153.81936923804702,-190.69504882720304 L-243.32644496339992,28.58743048043152" stroke="#0d6d4d" stroke-width="0.1" fill="none" />
<path d="M-152.0637663018355,-192.097920285725 L-244.29884292275102,-18.52229323288633" stroke="#0d6d4d" stroke-width="0.1" fill="none" />
<path d="M-150.29536951453306,-193.4846296285314 L-236.23484289394116,-64.94689371228569" stroke="#0d6d4d" stroke-width="0.1" fill="none" />
<path d="M-148.51432765980866,-194.85506018514118 L-219.4327251011626,-108.9691660731494" stroke="#0d6d4d" stroke-width="0.1" fill="none" />
<path d="M-146.72079058522235,-196.20909665468452 L-194.5139850112091,-148.96076542183556" stroke="#0d6d4d" stroke-width="0.1" fill="none" />
<path d="M-144.91490918961603,-197.54662511560488 L-162.40034476620158,-183.4424378921597" stroke="#0d6d4d" stroke-width="0.1" fill="none" />
<path d="M-143.09683541041852,-198.86753303524333 L-124.27965949730088,-211.13873693672357" stroke="#0d6d4d" stroke-width="0.1" fill="none" />
<path d="M-141.26672221086193,-200.17170927930644 L-81.56197961469321,-231.0252009658954" stroke="#0d6d4d" stroke-width="0.1" fill="none" />
<path d="M-139.42472356711255,-201.4590441212165 L-35.82739429085227,-242.36624727533288" stroke="#0d6d4d" stroke-width="0.1" fill="none" />
<path d="M-137.57099445531625,-202.72942925134316 L11.232414639525595,-244.7423805992043" stroke="#0d6d4d" stroke-width="0.1" fill="none" />
<path d="M-135.705690838558,-203.9827577861171 L57.87674649339971,-238.06570986880647" stroke="#0d6d4d" stroke-width="0.1" fill="none" />
<path d="M-133.8289696537425,-205.21892427702096 L102.3802687170799,-222.58319922540989" stroke="#0d6d4d" stroke-width="0.1" fill="none" />
<path d="M-131.9409887983882,-206.4378247194627 L143.09683541041838,-198.8675330352434" stroke="#0d6d4d" stroke-width="0.1" fill="none" />
<path d="M-130.04190711734364,-207.63935656152515 L178.52037680676935,-167.79593280162987" stroke="#0d6d4d" stroke-width="0.1" fill="none" />
<path d="M-128.13188438942265,-208.82341871259467 L207.34060746074192,-130.51770951794444" stroke="#0d6d4d" stroke-width="0.1" fill="none" />
<path d="M-126.21108131396224,-209.9899115518658 L228.4914925471845,-88.41175167114339" stroke="#0d6d4d" stroke-width="0.1" fill="none" />
<path d="M-124.27965949730088,-211.13873693672357 L241.19067954589548,-43.03552137698769" stroke="#0d6d4d" stroke-width="0.1" fill="none" />
<path d="M-122.33778143918275,-212.26979821100022 L244.96843676894082,3.9325547652199653" stroke="#0d6d4d" stroke-width="0.1" fill="none" />
<path d="M-120.38561051908533,-213.3830002131076 L239.68502832006462,50.75516918708695" stroke="#0d6d4d" stroke-width="0.1" fill="none" />
<path d="M-118.42331098247432,-214.47824928404322 L225.53588280182134,95.7003948205184" stroke="#0d6d4d" stroke-width="0.1" fill="none" />
<path d="M-116.45104792698376,-215.55545327527054 L203.04436458452727,137.10574754716004" stroke="#0d6d4d" stroke-width="0.1" fill="none" />
<path d="M-114.46898728852614,-216.61452155647194 L173.0424150213949,173.4396800145899" stroke="#0d6d4d" stroke-width="0.1" fill="none" />
<path d="M-112.47729582733193,-217.65536502317343 L136.63977967417034,203.35823221742018" stroke="#0d6d4d" stroke-width="0.1" fill="none" />
<path d="M-110.47614111391825,-218.6778961042419 L95.18295980696078,225.75474338845348" stroke="#0d6d4d" stroke-width="0.1" fill="none" />
<path d="M-108.4656915149909,-219.68202876925287 L50.20540649616787,239.80078640103443" stroke="#0d6d4d" stroke-width="0.1" fill="none" />
<path d="M-106.4461161792787,-220.66767853572824 L3.370799632320778,244.97681055528244" stroke="#0d6d4d" stroke-width="0.1" fill="none" />
<path d="M-104.41758502330289,-221.6347624762445 L-43.58849012667088,241.0913592986632" stroke="#0d6d4d" stroke-width="0.1" fill="none" />
<path d="M-102.38026871708001,-222.58319922540986 L-88.93548021295288,228.28815203442218" stroke="#0d6d4d" stroke-width="0.1" fill="none" />
<path d="M-100.33433866976347,-223.5129089867098 L-130.99282559663382,207.04076806805438" stroke="#0d6d4d" stroke-width="0.1" fill="none" />
<path d="M-98.27996701522169,-224.42381353922076 L-168.20486229393978,178.13512932792557" stroke="#0d6d4d" stroke-width="0.1" fill="none" />
<path d="M-96.21732659755642,-225.31583624419116 L-199.19515000116792,142.64042980870542" stroke="#0d6d4d" stroke-width="0.1" fill="none" />
<path d="M-94.14659095655935,-226.18890205148946 L-222.81738540332975,101.8695870317732" stroke="#0d6d4d" stroke-width="0.1" fill="none" />
<path d="M-92.06793431311198,-227.04293750591867 L-238.19780291926207,57.330678388070524" stroke="#0d6d4d" stroke-width="0.1" fill="none" />
<path d="M-89.9815315545282,-227.877870753396 L-244.76749451716543,10.67115869010417" stroke="#0d6d4d" stroke-width="0.1" fill="none" />
<path d="M-87.88755821983895,-228.69363154699874 L-242.28345311920077,-36.383077723524835" stroke="#0d6d4d" stroke-width="0.1" fill="none" />
<path d="M-85.78619048502412,-229.4901512528744 L-230.83756121823012,-82.09153629223822" stroke="#0d6d4d" stroke-width="0.1" fill="none" />
<path d="M-83.6776051481896,-230.26736285601498 L-210.85319222572457,-124.76350158688894" stroke="#0d6d4d" stroke-width="0.1" fill="none" />
<path d="M-81.56197961469321,-231.0252009658954 L-183.06955026397173,-162.8205753771529" stroke="#0d6d4d" stroke-width="0.1" fill="none" />
<path d="M-79.43949188221757,-231.76360182197527 L-148.51432765980866,-194.85506018514118" stroke="#0d6d4d" stroke-width="0.1" fill="none" />
<path d="M-77.31032052579505,-232.48250329906298 L-108.4656915149909,-219.68202876925287" stroke="#0d6d4d" stroke-width="0.1" fill="none" />
<path d="M-75.17464468278305,-233.1818449125431 L-64.40500543631192,-236.3831535341481" stroke="#0d6d4d" stroke-width="0.1" fill="none" />
<path d="M-73.03264403779313,-233.86156782346475 L-17.962035206838962,-244.34067465575248" stroke="#0d6d4d" stroke-width="0.1" fill="none" />
<path d="M-70.88449880757179,-234.52161484349233 L29.14533480801354,-243.2602504704145" stroke="#0d6d4d" stroke-width="0.1" fill="none" />
<path d="M-68.73038972583969,-235.16193043971677 L75.17464468278304,-233.18184491254314" stroke="#0d6d4d" stroke-width="0.1" fill="none" />
<path d="M-66.57049802808417,-235.7824607393282 L118.42331098247425,-214.47824928404322" stroke="#0d6d4d" stroke-width="0.1" fill="none" />
<path d="M-64.40500543631192,-236.3831535341481 L157.29160381698384,-187.8412930339892" stroke="#0d6d4d" stroke-width="0.1" fill="none" />
<path d="M-62.23409414375937,-236.9639582850221 L190.34181943392824,-154.2562535995927" stroke="#0d6d4d" stroke-width="0.1" fill="none" />
<path d="M-60.057946799564775,-237.52482612607182 L216.3514596080348,-114.96541186579942" stroke="#0d6d4d" stroke-width="0.1" fill="none" />
<path d="M-57.87674649339976,-238.06570986880647 L234.3584507685481,-71.4221012948095" stroke="#0d6d4d" stroke-width="0.1" fill="none" />
<path d="M-55.690676740066024,-238.5865640060929 L243.69673024914945,-25.236950407552825" stroke="#0d6d4d" stroke-width="0.1" fill="none" />
<path d="M-53.49992146405491,-239.08734471598441 L244.0208833564993,21.881692939847177" stroke="#0d6d4d" stroke-width="0.1" fill="none" />
<path d="M-51.304664984073774,-239.56800986540745 L235.31891995404163,68.19095183133419" stroke="#0d6d4d" stroke-width="0.1" fill="none" />
<path d="M-49.10509199753716,-240.0285190137068 L217.91271796654368,111.97788776554766" stroke="#0d6d4d" stroke-width="0.1" fill="none" />
<path d="M-46.9013875650279,-240.468833416048 L192.44611740053017,151.6228607349873" stroke="#0d6d4d" stroke-width="0.1" fill="none" />
<path d="M-44.6937370947278,-240.8889160266768 L159.8611052722588,185.65943827646305" stroke="#0d6d4d" stroke-width="0.1" fill="none" />
<path d="M-42.48232632681697,-241.28873150203643 L121.36297234167472,212.8286375100726" stroke="#0d6d4d" stroke-width="0.1" fill="none" />
<path d="M-40.267341317847574,-241.66824620374098 L78.37573047391778,232.12549380169295" stroke="#0d6d4d" stroke-width="0.1" fill="none" />
<path d="M-38.04896842508954,-242.0274282014056 L32.48943970072211,242.83623351537378" stroke="#0d6d4d" stroke-width="0.1" fill="none" />
<path d="M-35.82739429085227,-242.36624727533288 L-14.598606692908241,244.5646758684209" stroke="#0d6d4d" stroke-width="0.1" fill="none" />
<path d="M-33.602805826780276,-242.68467491905562 L-61.146663545157466,237.24688730791667" stroke="#0d6d4d" stroke-width="0.1" fill="none" />
<path d="M-31.37539019812824,-242.98268434173494 L-105.43295942943976,221.15354635625926" stroke="#0d6d4d" stroke-width="0.1" fill="none" />
<path d="M-29.14533480801349,-243.2602504704145 L-145.81938345564976,196.8799314521777" stroke="#0d6d4d" stroke-width="0.1" fill="none" />
<path d="M-26.91282728164976,-243.51734995212988 L-180.81207754221307,165.3239021281216" stroke="#0d6d4d" stroke-width="0.1" fill="none" />
<path d="M-24.67805545056006,-243.7539611558735 L-209.11669290441532,127.65268798078816" stroke="#0d6d4d" stroke-width="0.1" fill="none" />
<path d="M-22.441207336774177,-243.97006417441446 L-229.68626687041328,85.25971388137125" stroke="#0d6d4d" stroke-width="0.1" fill="none" />
<path d="M-20.202471137010125,-244.16564082597344 L-241.75994910387323,39.71305842279861" stroke="#0d6d4d" stroke-width="0.1" fill="none" />
<path d="M-17.962035206838962,-244.34067465575248 L-244.891144784538,-7.302547919626441" stroke="#0d6d4d" stroke-width="0.1" fill="none" />
<path d="M-15.720088044838414,-244.49515093731927 L-238.9640337553787,-54.04803947747071" stroke="#0d6d4d" stroke-width="0.1" fill="none" />
<path d="M-13.476818276733129,-244.62905667384632 L-224.1978546076989,-98.7943418891239" stroke="#0d6d4d" stroke-width="0.1" fill="none" />
<path d="M-11.23241463952558,-244.7423805992043 L-201.13879523967512,-139.88632903015233" stroke="#0d6d4d" stroke-width="0.1" fill="none" />
<path d="M-8.987065965615413,-244.83511317891 L-170.63978984939516,-175.80404466380818" stroke="#0d6d4d" stroke-width="0.1" fill="none" />
<path d="M-6.740961166913166,-244.90724661092855 L-133.8289696537425,-205.21892427702096" stroke="#0d6d4d" stroke-width="0.1" fill="none" />
<path d="M-4.494289218944672,-244.95877482632966 L-92.06793431311198,-227.04293750591867" stroke="#0d6d4d" stroke-width="0.1" fill="none" />
<path d="M-2.2472391449547042,-244.98969348979844 L-46.9013875650279,-240.468833416048" stroke="#0d6d4d" stroke-width="0.1" fill="none" />
</svg>