<?xml version="1.0" encoding="UTF-8"?>
<svg xmlns="http://www.w3.org/2000/svg" xmlns:xlink="http://www.w3.org/1999/xlink"
     width="500.0" height="500" viewBox="-250.0 -250.0 500 500">
<defs>
</defs>
<circle cx="0" cy="0" r="245.0" fill="white" stroke-width="2" stroke="black" />
<path d="M0.0,-245.0 L0.0,-245.0" stroke="#0d6d4d" stroke-width="0.1" fill="none" />
<path d="M49.318137421721715,-239.98483560686114 L96.61718450276305,-225.1446638469565" stroke="#0d6d4d" stroke-width="0.1" fill="none" />
<path d="M96.61718450276305,-225.1446638469565 L177.57423287113437,-168.79689517354322" stroke="#0d6d4d" stroke-width="0.1" fill="none" />
<path d="M139.9607126982241,-201.0870430957827 L229.7492723760347,-85.08978694698096" stroke="#0d6d4d" stroke-width="0.1" fill="none" />
<path d="M177.57423287113437,-168.79689517354322 L244.68554425690792,12.409046365484597" stroke="#0d6d4d" stroke-width="0.1" fill="none" />
<path d="M207.91784308621396,-129.5961825301058 L219.9621121948317,107.89656713162043" stroke="#0d6d4d" stroke-width="0.1" fill="none" />
<path d="M229.7492723760347,-85.08978694698096 L159.58625826694444,185.89574005973378" stroke="#0d6d4d" stroke-width="0.1" fill="none" />
<path d="M242.1747394603873,-37.09980548862129 L73.3439651284727,233.76411781801195" stroke="#0d6d4d" stroke-width="0.1" fill="none" />
<path d="M244.68554425690792,12.409046365484597 L-24.78623888692085,243.7429842310143" stroke="#0d6d4d" stroke-width="0.1" fill="none" />
<path d="M237.17889412222004,61.4098704033865 L-118.89898082011482,214.21492095542263" stroke="#0d6d4d" stroke-width="0.1" fill="none" />
<path d="M219.9621121948317,107.89656713162043 L-193.74005554973616,149.96596572417738" stroke="#0d6d4d" stroke-width="0.1" fill="none" />
<path d="M193.7400555497362,149.9659657241773 L-237.17889412222,61.40987040338672" stroke="#0d6d4d" stroke-width="0.1" fill="none" />
<path d="M159.58625826694444,185.89574005973378 L-242.1747394603873,-37.099805488621286" stroke="#0d6d4d" stroke-width="0.1" fill="none" />
<path d="M118.89898082011486,214.2149209554226 L-207.917843086214,-129.59618253010578" stroke="#0d6d4d" stroke-width="0.1" fill="none" />
<path d="M73.3439651284727,233.76411781801195 L-139.96071269822414,-201.0870430957827" stroke="#0d6d4d" stroke-width="0.1" fill="none" />
<path d="M24.786238886921016,243.74298423101428 L-49.318137421721985,-239.98483560686108" stroke="#0d6d4d" stroke-width="0.1" fill="none" />
<path d="M-24.78623888692085,243.7429842310143 L49.318137421721715,-239.98483560686114" stroke="#0d6d4d" stroke-width="0.1" fill="none" />
<path d="M-73.34396512847276,233.76411781801195 L139.9607126982241,-201.0870430957827" stroke="#0d6d4d" stroke-width="0.1" fill="none" />
<path d="M-118.89898082011482,214.21492095542263 L207.91784308621396,-129.5961825301058" stroke="#0d6d4d" stroke-width="0.1" fill="none" />
<path d="M-159.5862582669444,185.8957400597338 L242.1747394603873,-37.09980548862129" stroke="#0d6d4d" stroke-width="0.1" fill="none" />
<path d="M-193.74005554973616,149.96596572417738 L237.17889412222004,61.4098704033865" stroke="#0d6d4d" stroke-width="0.1" fill="none" />
<path d="M-219.96211219483172,107.89656713162037 L193.7400555497362,149.9659657241773" stroke="#0d6d4d" stroke-width="0.1" fill="none" />
<path d="M-237.17889412222,61.40987040338672 L118.89898082011486,214.2149209554226" stroke="#0d6d4d" stroke-width="0.1" fill="none" />
<path d="M-244.68554425690792,12.40904636548482 L24.786238886921016,243.74298423101428" stroke="#0d6d4d" stroke-width="0.1" fill="none" />
<path d="M-242.1747394603873,-37.099805488621286 L-73.34396512847276,233.76411781801195" stroke="#0d6d4d" stroke-width="0.1" fill="none" />
<path d="M-229.7492723760347,-85.08978694698096 L-159.5862582669444,185.8957400597338" stroke="#0d6d4d" stroke-width="0.1" fill="none" />
<path d="M-207.917843086214,-129.59618253010578 L-219.96211219483172,107.89656713162037" stroke="#0d6d4d" stroke-width="0.1" fill="none" />
<path d="M-177.5742328711344,-168.79689517354316 L-244.68554425690792,12.40904636548482" stroke="#0d6d4d" stroke-width="0.1" fill="none" />
<path d="M-139.96071269822414,-201.0870430957827 L-229.7492723760347,-85.08978694698096" stroke="#0d6d4d" stroke-width="0.1" fill="none" />
<path d="M-96.61718450276308,-225.1446638469565 L-177.5742328711344,-168.79689517354316" stroke="#0d6d4d" stroke-width="0.1" fill="none" />
<path d="M-49.318137421721985,-239.98483560686108 L-96.61718450276308,-225.1446638469565" stroke="#0d6d4d" stroke-width="0.1" fill="none" />
</svg>