<?xml version="1.0" encoding="UTF-8"?>
<svg xmlns="http://www.w3.org/2000/svg" xmlns:xlink="http://www.w3.org/1999/xlink"
     width="500.0" height="500" viewBox="-250.0 -250.0 500 500">
<defs>
</defs>
<circle cx="0" cy="0" r="245.0" fill="white" stroke-width="2" stroke="black" />
<path d="M0.0,-245.0 L0.0,-245.0" stroke="#0d6d4d" stroke-width="0.1" fill="none" />
<path d="M16.36419526755478,-244.45288526267254 L32.65530406657581,-242.81398459792112" stroke="#0d6d4d" stroke-width="0.1" fill="none" />
<path d="M32.65530406657581,-242.81398459792112 L64.72787345846507,-236.29494788832227" stroke="#0d6d4d" stroke-width="0.1" fill="none" />
<path d="M48.800566350439844,-240.09061773396377 L95.64537241505623,-225.55922223572506" stroke="#0d6d4d" stroke-width="0.1" fill="none" />
<path d="M64.72787345846507,-236.29494788832227 L124.85607743501977,-210.79838691873414" stroke="#0d6d4d" stroke-width="0.1" fill="none" />
<path d="M80.36609017069442,-231.4439274439401 L151.83872279526,-192.27584939327195" stroke="#0d6d4d" stroke-width="0.1" fill="none" />
<path d="M95.64537241505623,-225.55922223572506 L176.11180255009268,-170.32214478028737" stroke="#0d6d4d" stroke-width="0.1" fill="none" />
<path d="M110.49747920794493,-218.6671147856709 L197.2421630162529,-145.32903745869206" stroke="#0d6d4d" stroke-width="0.1" fill="none" />
<path d="M124.85607743501977,-210.79838691873414 L214.85273241063453,-117.74253002073753" stroke="#0d6d4d" stroke-width="0.1" fill="none" />
<path d="M138.6570381109958,-201.98818228373128 L228.62924970519262,-88.05490434519064" stroke="#0d6d4d" stroke-width="0.1" fill="none" />
<path d="M151.83872279526,-192.27584939327195 L238.3258726224341,-56.795936815544465" stroke="#0d6d4d" stroke-width="0.1" fill="none" />
<path d="M164.34225888410975,-181.70476588374962 L243.7695646966835,-24.52344444790412" stroke="#0d6d4d" stroke-width="0.1" fill="none" />
<path d="M176.11180255009268,-170.32214478028737 L244.86318311391238,8.186669366880258" stroke="#0d6d4d" stroke-width="0.1" fill="none" />
<path d="M187.09478815409634,-158.1788236319066 L241.587212227557,40.75069187286686" stroke="#0d6d4d" stroke-width="0.1" fill="none" />
<path d="M197.2421630162529,-145.32903745869206 L234.00011181569354,72.58751731698028" stroke="#0d6d4d" stroke-width="0.1" fill="none" />
<path d="M206.50860649711527,-131.8301765250263 L222.2372738649135,103.12901679494205" stroke="#0d6d4d" stroke-width="0.1" fill="none" />
<path d="M214.85273241063453,-117.74253002073753 L206.5086064971153,131.83017652502627" stroke="#0d6d4d" stroke-width="0.1" fill="none" />
<path d="M222.23727386491348,-103.12901679494207 L187.09478815409636,158.17882363190657" stroke="#0d6d4d" stroke-width="0.1" fill="none" />
<path d="M228.62924970519262,-88.05490434519064 L164.34225888410975,181.70476588374962" stroke="#0d6d4d" stroke-width="0.1" fill="none" />
<path d="M234.00011181569354,-72.58751731698037 L138.65703811099587,201.98818228373122" stroke="#0d6d4d" stroke-width="0.1" fill="none" />
<path d="M238.3258726224341,-56.795936815544465 L110.49747920794502,218.66711478567086" stroke="#0d6d4d" stroke-width="0.1" fill="none" />
<path d="M241.587212227557,-40.75069187286684 L80.36609017069439,231.44392744394014" stroke="#0d6d4d" stroke-width="0.1" fill="none" />
<path d="M243.7695646966835,-24.52344444790412 L48.80056635043989,240.09061773396377" stroke="#0d6d4d" stroke-width="0.1" fill="none" />
<path d="M244.86318311391238,-8.186669366880288 L16.364195267554816,244.45288526267254" stroke="#0d6d4d" stroke-width="0.1" fill="none" />
<path d="M244.86318311391238,8.186669366880258 L-16.364195267554756,244.45288526267254" stroke="#0d6d4d" stroke-width="0.1" fill="none" />
<path d="M243.7695646966835,24.52344444790409 L-48.80056635043984,240.09061773396377" stroke="#0d6d4d" stroke-width="0.1" fill="none" />
<path d="M241.587212227557,40.75069187286686 L-80.36609017069443,231.4439274439401" stroke="#0d6d4d" stroke-width="0.1" fill="none" />
<path d="M238.3258726224341,56.79593681554438 L-110.49747920794488,218.66711478567095" stroke="#0d6d4d" stroke-width="0.1" fill="none" />
<path d="M234.00011181569354,72.58751731698028 L-138.65703811099576,201.98818228373133" stroke="#0d6d4d" stroke-width="0.1" fill="none" />
<path d="M228.62924970519262,88.05490434519066 L-164.34225888410978,181.7047658837496" stroke="#0d6d4d" stroke-width="0.1" fill="none" />
<path d="M222.2372738649135,103.12901679494205 L-187.0947881540963,158.17882363190665" stroke="#0d6d4d" stroke-width="0.1" fill="none" />
<path d="M214.85273241063456,117.7425300207375 L-206.50860649711524,131.83017652502633" stroke="#0d6d4d" stroke-width="0.1" fill="none" />
<path d="M206.5086064971153,131.83017652502627 L-222.23727386491348,103.12901679494209" stroke="#0d6d4d" stroke-width="0.1" fill="none" />
<path d="M197.24216301625293,145.329037458692 L-234.00011181569354,72.58751731698034" stroke="#0d6d4d" stroke-width="0.1" fill="none" />
<path d="M187.09478815409636,158.17882363190657 L-241.587212227557,40.75069187286687" stroke="#0d6d4d" stroke-width="0.1" fill="none" />
<path d="M176.1118025500927,170.32214478028735 L-244.86318311391238,8.186669366880261" stroke="#0d6d4d" stroke-width="0.1" fill="none" />
<path d="M164.34225888410975,181.70476588374962 L-243.7695646966835,-24.523444447904115" stroke="#0d6d4d" stroke-width="0.1" fill="none" />
<path d="M151.83872279526,192.27584939327195 L-238.3258726224341,-56.79593681554446" stroke="#0d6d4d" stroke-width="0.1" fill="none" />
<path d="M138.65703811099587,201.98818228373122 L-228.62924970519268,-88.05490434519048" stroke="#0d6d4d" stroke-width="0.1" fill="none" />
<path d="M124.85607743501984,210.79838691873408 L-214.8527324106346,-117.74253002073738" stroke="#0d6d4d" stroke-width="0.1" fill="none" />
<path d="M110.49747920794502,218.66711478567086 L-197.24216301625302,-145.3290374586919" stroke="#0d6d4d" stroke-width="0.1" fill="none" />
<path d="M95.6453724150563,225.55922223572503 L-176.1118025500928,-170.32214478028726" stroke="#0d6d4d" stroke-width="0.1" fill="none" />
<path d="M80.36609017069439,231.44392744394014 L-151.8387227952599,-192.275849393272" stroke="#0d6d4d" stroke-width="0.1" fill="none" />
<path d="M64.72787345846513,236.29494788832227 L-124.85607743501984,-210.79838691873408" stroke="#0d6d4d" stroke-width="0.1" fill="none" />
<path d="M48.80056635043989,240.09061773396377 L-95.64537241505631,-225.55922223572503" stroke="#0d6d4d" stroke-width="0.1" fill="none" />
<path d="M32.65530406657585,242.81398459792112 L-64.72787345846515,-236.29494788832224" stroke="#0d6d4d" stroke-width="0.1" fill="none" />
<path d="M16.364195267554816,244.45288526267254 L-32.65530406657589,-242.81398459792112" stroke="#0d6d4d" stroke-width="0.1" fill="none" />
<path d="M-7.879800983415519e-14,245.0 L0.0,-245.0" stroke="#0d6d4d" stroke-width="0.1" fill="none" />
<path d="M-16.364195267554756,244.45288526267254 L32.65530406657581,-242.81398459792112" stroke="#0d6d4d" stroke-width="0.1" fill="none" />
<path d="M-32.655304066575695,242.81398459792112 L64.72787345846507,-236.29494788832227" stroke="#0d6d4d" stroke-width="0.1" fill="none" />
<path d="M-48.80056635043984,240.09061773396377 L95.64537241505623,-225.55922223572506" stroke="#0d6d4d" stroke-width="0.1" fill="none" />
<path d="M-64.72787345846507,236.29494788832227 L124.85607743501977,-210.79838691873414" stroke="#0d6d4d" stroke-width="0.1" fill="none" />
<path d="M-80.36609017069443,231.4439274439401 L151.83872279526,-192.27584939327195" stroke="#0d6d4d" stroke-width="0.1" fill="none" />
<path d="M-95.64537241505624,225.55922223572506 L176.11180255009268,-170.32214478028737" stroke="#0d6d4d" stroke-width="0.1" fill="none" />
<path d="M-110.49747920794488,218.66711478567095 L197.2421630162529,-145.32903745869206" stroke="#0d6d4d" stroke-width="0.1" fill="none" />
<path d="M-124.8560774350198,210.79838691873414 L214.85273241063453,-117.74253002073753" stroke="#0d6d4d" stroke-width="0.1" fill="none" />
<path d="M-138.65703811099576,201.98818228373133 L228.62924970519262,-88.05490434519064" stroke="#0d6d4d" stroke-width="0.1" fill="none" />
<path d="M-151.83872279525994,192.27584939327198 L238.3258726224341,-56.795936815544465" stroke="#0d6d4d" stroke-width="0.1" fill="none" />
<path d="M-164.34225888410978,181.7047658837496 L243.7695646966835,-24.52344444790412" stroke="#0d6d4d" stroke-width="0.1" fill="none" />
<path d="M-176.11180255009265,170.3221447802874 L244.86318311391238,8.186669366880258" stroke="#0d6d4d" stroke-width="0.1" fill="none" />
<path d="M-187.0947881540963,158.17882363190665 L241.587212227557,40.75069187286686" stroke="#0d6d4d" stroke-width="0.1" fill="none" />
<path d="M-197.24216301625293,145.329037458692 L234.00011181569354,72.58751731698028" stroke="#0d6d4d" stroke-width="0.1" fill="none" />
<path d="M-206.50860649711524,131.83017652502633 L222.2372738649135,103.12901679494205" stroke="#0d6d4d" stroke-width="0.1" fill="none" />
<path d="M-214.85273241063456,117.74253002073748 L206.5086064971153,131.83017652502627" stroke="#0d6d4d" stroke-width="0.1" fill="none" />
<path d="M-222.23727386491348,103.12901679494209 L187.09478815409636,158.17882363190657" stroke="#0d6d4d" stroke-width="0.1" fill="none" />
<path d="M-228.6292497051926,88.05490434519078 L164.34225888410975,181.70476588374962" stroke="#0d6d4d" stroke-width="0.1" fill="none" />
<path d="M-234.00011181569354,72.58751731698034 L138.65703811099587,201.98818228373122" stroke="#0d6d4d" stroke-width="0.1" fill="none" />
<path d="M-238.32587262243408,56.79593681554454 L110.49747920794502,218.66711478567086" stroke="#0d6d4d" stroke-width="0.1" fill="none" />
<path d="M-241.587212227557,40.75069187286687 L80.36609017069439,231.44392744394014" stroke="#0d6d4d" stroke-width="0.1" fill="none" />
<path d="M-243.7695646966835,24.523444447904204 L48.80056635043989,240.09061773396377" stroke="#0d6d4d" stroke-width="0.1" fill="none" />
<path d="M-244.86318311391238,8.186669366880261 L16.364195267554816,244.45288526267254" stroke="#0d6d4d" stroke-width="0.1" fill="none" />
<path d="M-244.86318311391238,-8.186669366880174 L-16.364195267554756,244.45288526267254" stroke="#0d6d4d" stroke-width="0.1" fill="none" />
<path d="M-243.7695646966835,-24.523444447904115 L-48.80056635043984,240.09061773396377" stroke="#0d6d4d" stroke-width="0.1" fill="none" />
<path d="M-241.587212227557,-40.750691872866774 L-80.36609017069443,231.4439274439401" stroke="#0d6d4d" stroke-width="0.1" fill="none" />
<path d="M-238.3258726224341,-56.79593681554446 L-110.49747920794488,218.66711478567095" stroke="#0d6d4d" stroke-width="0.1" fill="none" />
<path d="M-234.00011181569357,-72.58751731698025 L-138.65703811099576,201.98818228373133" stroke="#0d6d4d" stroke-width="0.1" fill="none" />
<path d="M-228.62924970519268,-88.05490434519048 L-164.34225888410978,181.7047658837496" stroke="#0d6d4d" stroke-width="0.1" fill="none" />
<path d="M-222.2372738649135,-103.12901679494202 L-187.0947881540963,158.17882363190665" stroke="#0d6d4d" stroke-width="0.1" fill="none" />
<path d="M-214.8527324106346,-117.74253002073738 L-206.50860649711524,131.83017652502633" stroke="#0d6d4d" stroke-width="0.1" fill="none" />
<path d="M-206.50860649711532,-131.83017652502627 L-222.23727386491348,103.12901679494209" stroke="#0d6d4d" stroke-width="0.1" fill="none" />
<path d="M-197.24216301625302,-145.3290374586919 L-234.00011181569354,72.58751731698034" stroke="#0d6d4d" stroke-width="0.1" fill="none" />
<path d="M-187.0947881540964,-158.17882363190657 L-241.587212227557,40.75069187286687" stroke="#0d6d4d" stroke-width="0.1" fill="none" />
<path d="M-176.1118025500928,-170.32214478028726 L-244.86318311391238,8.186669366880261" stroke="#0d6d4d" stroke-width="0.1" fill="none" />
<path d="M-164.34225888410975,-181.7047658837496 L-243.7695646966835,-24.523444447904115" stroke="#0d6d4d" stroke-width="0.1" fill="none" />
<path d="M-151.8387227952599,-192.275849393272 L-238.3258726224341,-56.79593681554446" stroke="#0d6d4d" stroke-width="0.1" fill="none" />
<path d="M-138.6570381109958,-201.98818228373128 L-228.62924970519268,-88.05490434519048" stroke="#0d6d4d" stroke-width="0.1" fill="none" />
<path d="M-124.85607743501984,-210.79838691873408 L-214.8527324106346,-117.74253002073738" stroke="#0d6d4d" stroke-width="0.1" fill="none" />
<path d="M-110.49747920794515,-218.66711478567083 L-197.24216301625302,-145.3290374586919" stroke="#0d6d4d" stroke-width="0.1" fill="none" />
<path d="M-95.64537241505631,-225.55922223572503 L-176.1118025500928,-170.32214478028726" stroke="#0d6d4d" stroke-width="0.1" fill="none" />
<path d="M-80.3660901706944,-231.4439274439401 L-151.8387227952599,-192.275849393272" stroke="#0d6d4d" stroke-width="0.1" fill="none" />
<path d="M-64.72787345846515,-236.29494788832224 L-124.85607743501984,-210.79838691873408" stroke="#0d6d4d" stroke-width="0.1" fill="none" />
<path d="M-48.800566350439816,-240.09061773396377 L-95.64537241505631,-225.55922223572503" stroke="#0d6d4d" stroke-width="0.1" fill="none" />
<path d="M-32.65530406657589,-242.81398459792112 L-64.72787345846515,-236.29494788832224" stroke="#0d6d4d" stroke-width="0.1" fill="none" />
<path d="M-16.36419526755496,-244.45288526267254 L-32.65530406657589,-242.81398459792112" stroke="#0d6d4d" stroke-width="0.1" fill="none" />
</svg>