<?xml version="1.0" encoding="UTF-8"?>
<svg xmlns="http://www.w3.org/2000/svg" xmlns:xlink="http://www.w3.org/1999/xlink"
     width="500.0" height="500" viewBox="-250.0 -250.0 500 500">
<defs>
</defs>
<circle cx="0" cy="0" r="245.0" fill="white" stroke-width="2" stroke="black" />
<path d="M0.0,-245.0 L0.0,-245.0" stroke="#0d6d4d" stroke-width="0.1" fill="none" />
<path d="M2.2341931265612436,-244.9898128108049 L46.63244754896221,-240.52113178594783" stroke="#0d6d4d" stroke-width="0.1" fill="none" />
<path d="M4.468200455995315,-244.95925209039368 L91.55991071367544,-227.24828437219008" stroke="#0d6d4d" stroke-width="0.1" fill="none" />
<path d="M6.701836206626064,-244.90832038021813 L133.13974307204634,-205.66674212110593" stroke="#0d6d4d" stroke-width="0.1" fill="none" />
<path d="M8.93491462767811,-244.83702191579627 L169.85169491390735,-176.56557347023494" stroke="#0d6d4d" stroke-width="0.1" fill="none" />
<path d="M11.167250014723995,-244.7453626263604 L200.3534968990109,-141.00878086253357" stroke="#0d6d4d" stroke-width="0.1" fill="none" />
<path d="M13.398656725127525,-244.63335013436372 L223.52993636301105,-100.29639848742441" stroke="#0d6d4d" stroke-width="0.1" fill="none" />
<path d="M15.628949193481917,-244.50099375484663 L238.53363193423243,-55.916960184403145" stroke="#0d6d4d" stroke-width="0.1" fill="none" />
<path d="M17.85794194704158,-244.34830449466207 L244.8160156519628,-9.493075386717853" stroke="#0d6d4d" stroke-width="0.1" fill="none" />
<path d="M20.085449621146143,-244.17529505156003 L242.14738981218727,37.27789703221782" stroke="#0d6d4d" stroke-width="0.1" fill="none" />
<path d="M22.311286974635532,-243.98197981313183 L230.62532521857088,82.68590791560806" stroke="#0d6d4d" stroke-width="0.1" fill="none" />
<path d="M24.535268905254743,-243.7683748556134 L210.67109378024512,125.07074096460441" stroke="#0d6d4d" stroke-width="0.1" fill="none" />
<path d="M26.757210465047095,-243.53449794254854 L183.0142658884341,162.88271388123894" stroke="#0d6d4d" stroke-width="0.1" fill="none" />
<path d="M28.97692687573462,-243.28036852331164 L148.66603572555533,194.73933814627156" stroke="#0d6d4d" stroke-width="0.1" fill="none" />
<path d="M31.19423354408439,-243.00600773149029 L108.88224979189837,219.47586582641532" stroke="#0d6d4d" stroke-width="0.1" fill="none" />
<path d="M33.40894607725939,-242.71143838312767 L65.1174904078951,236.18787530899567" stroke="#0d6d4d" stroke-width="0.1" fill="none" />
<path d="M35.62088029815277,-242.39668497482523 L18.971892999673315,244.26433893634362" stroke="#0d6d4d" stroke-width="0.1" fill="none" />
<path d="M37.82985226070417,-242.06177368170566 L-27.867358355622933,243.4099635148062" stroke="#0d6d4d" stroke-width="0.1" fill="none" />
<path d="M40.03567826519677,-241.7067323552359 L-73.68771807378796,233.65598688045196" stroke="#0d6d4d" stroke-width="0.1" fill="none" />
<path d="M42.238174873533936,-241.33159052091122 L-116.81389347973462,215.35903577538883" stroke="#0d6d4d" stroke-width="0.1" fill="none" />
<path d="M44.437158924494014,-240.93637937579965 L-155.66909717575436,189.18808679323746" stroke="#0d6d4d" stroke-width="0.1" fill="none" />
<path d="M46.63244754896221,-240.52113178594783 L-188.83269784115623,156.10000713014267" stroke="#0d6d4d" stroke-width="0.1" fill="none" />
<path d="M48.82385818513806,-240.08588228364766 L-215.0921616238279,117.30456942501895" stroke="#0d6d4d" stroke-width="0.1" fill="none" />
<path d="M51.01120859371745,-239.63066706456468 L-233.4873850327138,74.22021982307284" stroke="#0d6d4d" stroke-width="0.1" fill="none" />
<path d="M53.19431687304775,-239.15552398472795 L-243.34579842359838,28.422216479040397" stroke="#0d6d4d" stroke-width="0.1" fill="none" />
<path d="M55.37300147425486,-238.66049255738196 L-244.30695661789022,-18.414965329978436" stroke="#0d6d4d" stroke-width="0.1" fill="none" />
<path d="M57.547081216341,-238.14561394970065 L-236.33571756754785,-64.57885568692166" stroke="#0d6d4d" stroke-width="0.1" fill="none" />
<path d="M59.71637530125182,-237.6109309793639 L-219.72352722529948,-108.38160168438681" stroke="#0d6d4d" stroke-width="0.1" fill="none" />
<path d="M61.880703328911714,-237.0564881109969 L-195.07776364248915,-148.2216790224869" stroke="#0d6d4d" stroke-width="0.1" fill="none" />
<path d="M64.039885312226,-236.48233145247224 L-163.299529897665,-182.64244724379276" stroke="#0d6d4d" stroke-width="0.1" fill="none" />
<path d="M66.19374169204879,-235.8885087510757 L-125.55070779505834,-210.38540769777705" stroke="#0d6d4d" stroke-width="0.1" fill="none" />
<path d="M68.34209335211527,-235.27506938953556 L-83.21147692188038,-230.4362170069613" stroke="#0d6d4d" stroke-width="0.1" fill="none" />
<path d="M70.48476163393711,-234.64206438191567 L-37.82985226070406,-242.0617736817057" stroke="#0d6d4d" stroke-width="0.1" fill="none" />
<path d="M72.6215683516599,-233.9895463693735 L8.93491462767811,-244.83702191579627" stroke="#0d6d4d" stroke-width="0.1" fill="none" />
<path d="M74.7523358068811,-233.317569615782 L55.37300147425486,-238.66049255738196" stroke="#0d6d4d" stroke-width="0.1" fill="none" />
<path d="M76.8768868034277,-232.62619000321732 L99.78653014760953,-223.75801304333262" stroke="#0d6d4d" stroke-width="0.1" fill="none" />
<path d="M78.99504466209186,-231.91546502731143 L140.55164479591372,-200.67445065369756" stroke="#0d6d4d" stroke-width="0.1" fill="none" />
<path d="M81.1066332353238,-231.18545379247084 L176.1778835723063,-170.25379097095868" stroke="#0d6d4d" stroke-width="0.1" fill="none" />
<path d="M83.21147692188026,-230.43621700696136 L205.36267318338474,-133.6082799192262" stroke="#0d6d4d" stroke-width="0.1" fill="none" />
<path d="M85.30940068142769,-229.66781697785962 L227.03895382079918,-92.07775761798837" stroke="#0d6d4d" stroke-width="0.1" fill="none" />
<path d="M87.40023004909872,-228.8803176058715 L240.41419320417577,-47.18067089375947" stroke="#0d6d4d" stroke-width="0.1" fill="none" />
<path d="M89.4837911500007,-228.07378438001825 L244.9993632965387,-0.5585555394594306" stroke="#0d6d4d" stroke-width="0.1" fill="none" />
<path d="M91.55991071367544,-227.24828437219008 L240.62682024006986,46.08398182832198" stroke="#0d6d4d" stroke-width="0.1" fill="none" />
<path d="M93.6284160885083,-226.4038862315688 L227.45643378260763,91.04158791946806" stroke="#0d6d4d" stroke-width="0.1" fill="none" />
<path d="M95.68913525608623,-225.54066017891859 L205.96974208963047,132.67051422049707" stroke="#0d6d4d" stroke-width="0.1" fill="none" />
<path d="M97.74189684550281,-224.65867800074648 L176.95234565459805,169.44871603920657" stroke="#0d6d4d" stroke-width="0.1" fill="none" />
<path d="M99.78653014760953,-223.75801304333262 L141.46518402483622,200.03150179114095" stroke="#0d6d4d" stroke-width="0.1" fill="none" />
<path d="M101.82286512921232,-222.8387402066307 L100.80574552875706,223.30069786812462" stroke="#0d6d4d" stroke-width="0.1" fill="none" />
<path d="M103.85073244721134,-221.90093593803908 L56.46062826171803,238.4055315136209" stroke="#0d6d4d" stroke-width="0.1" fill="none" />
<path d="M105.86996346268391,-220.94467822604366 L10.051186804745745,244.7937369374799" stroke="#0d6d4d" stroke-width="0.1" fill="none" />
<path d="M107.8803902549086,-219.97004659373198 L-36.72574804890624,242.23174736241378" stroke="#0d6d4d" stroke-width="0.1" fill="none" />
<path d="M109.88184563532941,-218.97712209218028 L-82.15990914277448,230.81323473676946" stroke="#0d6d4d" stroke-width="0.1" fill="none" />
<path d="M111.8741631614597,-217.96598729371306 L-124.59012406905894,210.95568488300214" stroke="#0d6d4d" stroke-width="0.1" fill="none" />
<path d="M113.8571771507233,-216.93672628503643 L-162.46505126899484,183.38513330191975" stroke="#0d6d4d" stroke-width="0.1" fill="none" />
<path d="M115.83072269423297,-215.88942466024523 L-194.39990047690557,149.1096197251177" stroke="#0d6d4d" stroke-width="0.1" fill="none" />
<path d="M117.79463567050438,-214.82416951370516 L-219.2270636843193,109.3823319752848" stroke="#0d6d4d" stroke-width="0.1" fill="none" />
<path d="M119.74875275910438,-213.74104943280992 L-236.03880544523741,65.65578667555023" stroke="#0d6d4d" stroke-width="0.1" fill="none" />
<path d="M121.6929114542331,-212.640154490614 L-244.22045167153104,19.52872206145025" stroke="#0d6d4d" stroke-width="0.1" fill="none" />
<path d="M123.62695007823787,-211.52157623834236 L-243.4728634634321,-27.31235538940105" stroke="#0d6d4d" stroke-width="0.1" fill="none" />
<path d="M125.55070779505846,-210.38540769777703 L-233.82337428267496,-73.15483332674677" stroke="#0d6d4d" stroke-width="0.1" fill="none" />
<path d="M127.46402462360241,-209.231743353521 L-215.6247905812886,-116.32261038497822" stroke="#0d6d4d" stroke-width="0.1" fill="none" />
<path d="M129.36674145104917,-208.06067914514122 L-189.5424924252393,-155.23737811889285" stroke="#0d6d4d" stroke-width="0.1" fill="none" />
<path d="M131.2587000460819,-206.8723124591899 L-156.53010574236876,-188.47632741615817" stroke="#0d6d4d" stroke-width="0.1" fill="none" />
<path d="M133.13974307204634,-205.66674212110593 L-117.7946356705043,-214.82416951370521" stroke="#0d6d4d" stroke-width="0.1" fill="none" />
<path d="M135.00971410003473,-204.44406838699643 L-74.75233580688123,-233.31756961578196" stroke="#0d6d4d" stroke-width="0.1" fill="none" />
<path d="M136.86845762189486,-203.20439293529947 L-28.97692687573455,-243.28036852331167" stroke="#0d6d4d" stroke-width="0.1" fill="none" />
<path d="M138.71581906316206,-201.94781885832808 L17.85794194704158,-244.34830449466207" stroke="#0d6d4d" stroke-width="0.1" fill="none" />
<path d="M140.55164479591372,-200.67445065369756 L64.039885312226,-236.48233145247224" stroke="#0d6d4d" stroke-width="0.1" fill="none" />
<path d="M142.37578215154528,-199.38439421563493 L107.8803902549086,-219.97004659373198" stroke="#0d6d4d" stroke-width="0.1" fill="none" />
<path d="M144.18807943346596,-198.07775682617296 L147.77655192549116,-195.4151752065653" stroke="#0d6d4d" stroke-width="0.1" fill="none" />
<path d="M145.98838592971427,-196.75464714622828 L182.26967930055278,-163.7154971518385" stroke="#0d6d4d" stroke-width="0.1" fill="none" />
<path d="M147.77655192549116,-195.4151752065653 L210.09862812047382,-126.0300220657556" stroke="#0d6d4d" stroke-width="0.1" fill="none" />
<path d="M149.55242871561035,-194.05945239864582 L230.24591108484583,-83.73661342990448" stroke="#0d6d4d" stroke-width="0.1" fill="none" />
<path d="M151.31586861686498,-192.68759146536567 L241.97489941596564,-38.38161086553443" stroke="#0d6d4d" stroke-width="0.1" fill="none" />
<path d="M153.0667249803088,-191.29970649167893 L244.8567556197986,8.376707428711178" stroke="#0d6d4d" stroke-width="0.1" fill="none" />
<path d="M154.80485220345184,-189.8959128951106 L238.78611272370134,54.82875495854158" stroke="#0d6d4d" stroke-width="0.1" fill="none" />
<path d="M156.53010574236862,-188.47632741615828 L223.98492672364276,99.27614315939348" stroke="#0d6d4d" stroke-width="0.1" fill="none" />
<path d="M158.2423421237187,-187.04106810858403 L200.99436138701824,140.0937782009776" stroke="#0d6d4d" stroke-width="0.1" fill="none" />
<path d="M159.94141895667778,-185.59025432959695 L170.6550021204343,175.7892779758611" stroke="#0d6d4d" stroke-width="0.1" fill="none" />
<path d="M161.6271949447794,-184.12400672992717 L134.0761223267792,205.05753685688939" stroke="#0d6d4d" stroke-width="0.1" fill="none" />
<path d="M163.2995298976649,-182.64244724379282 L92.5951259408565,226.828443216447" stroke="#0d6d4d" stroke-width="0.1" fill="none" />
<path d="M164.9582847427419,-181.1456990787595 L47.72864901327945,240.3060050505754" stroke="#0d6d4d" stroke-width="0.1" fill="none" />
<path d="M166.60332153674975,-179.63388670549435 L1.1171081757821648,244.99745318946398" stroke="#0d6d4d" stroke-width="0.1" fill="none" />
<path d="M168.23450347723085,-178.10713584741515 L-45.53527658253283,240.7312580172177" stroke="#0d6d4d" stroke-width="0.1" fill="none" />
<path d="M169.85169491390735,-176.56557347023494 L-90.52279192939002,227.66340097017869" stroke="#0d6d4d" stroke-width="0.1" fill="none" />
<path d="M171.45476135996182,-175.0093277714035 L-132.2005958034325,206.27167151409196" stroke="#0d6d4d" stroke-width="0.1" fill="none" />
<path d="M173.04356950322142,-173.4385281694462 L-169.0448564413709,177.33819811511648" stroke="#0d6d4d" stroke-width="0.1" fill="none" />
<path d="M174.61798721724404,-171.85330529320171 L-199.7084670036826,141.92085191063015" stroke="#0d6d4d" stroke-width="0.1" fill="none" />
<path d="M176.1778835723063,-170.25379097095868 L-223.0702987501586,101.31456862423582" stroke="#0d6d4d" stroke-width="0.1" fill="none" />
<path d="M177.7231288462915,-168.64011821949268 L-238.27619196135944,57.00400288044153" stroke="#0d6d4d" stroke-width="0.1" fill="none" />
<path d="M179.2535945354775,-167.01242123300483 L-244.77018588814295,10.609245980933396" stroke="#0d6d4d" stroke-width="0.1" fill="none" />
<path d="M180.76915336522316,-165.3708353719616 L-242.31484589393023,-36.173408180607694" stroke="#0d6d4d" stroke-width="0.1" fill="none" />
<path d="M182.26967930055278,-163.7154971518385 L-230.99994458488254,-81.63348333729977" stroke="#0d6d4d" stroke-width="0.1" fill="none" />
<path d="M183.755047556637,-162.0465442317672 L-211.23917952686324,-124.10885960646661" stroke="#0d6d4d" stroke-width="0.1" fill="none" />
<path d="M185.22513460917008,-160.36411540308768 L-183.755047556637,-162.04654423176717" stroke="#0d6d4d" stroke-width="0.1" fill="none" />
<path d="M186.67981820464234,-158.66835057780642 L-149.5524287156105,-194.0594523986457" stroke="#0d6d4d" stroke-width="0.1" fill="none" />
<path d="M188.11897737050677,-156.95939077696104 L-109.8818456353294,-218.9771220921803" stroke="#0d6d4d" stroke-width="0.1" fill="none" />
<path d="M189.5424924252393,-155.23737811889285 L-66.19374169204897,-235.88850875107565" stroke="#0d6d4d" stroke-width="0.1" fill="none" />
<path d="M190.95024498829142,-153.50245580742836 L-20.085449621146115,-244.17529505156006" stroke="#0d6d4d" stroke-width="0.1" fill="none" />
<path d="M192.34211798993502,-151.75476811997018 L26.757210465047095,-243.53449794254854" stroke="#0d6d4d" stroke-width="0.1" fill="none" />
<path d="M193.71799568099783,-149.99446039549898 L72.6215683516599,-233.9895463693735" stroke="#0d6d4d" stroke-width="0.1" fill="none" />
<path d="M195.0777636424892,-148.22167902248685 L115.83072269423297,-215.88942466024523" stroke="#0d6d4d" stroke-width="0.1" fill="none" />
<path d="M196.42130879511544,-146.4365714267236 L154.80485220345184,-189.8959128951106" stroke="#0d6d4d" stroke-width="0.1" fill="none" />
<path d="M197.7485194086833,-144.63928605905656 L188.11897737050677,-156.95939077696104" stroke="#0d6d4d" stroke-width="0.1" fill="none" />
<path d="M199.05928511139192,-142.82997238304566 L214.55506083793102,-118.2840896690325" stroke="#0d6d4d" stroke-width="0.1" fill="none" />
<path d="M200.3534968990109,-141.00878086253357 L233.14654151228558,-75.28406325949804" stroke="#0d6d4d" stroke-width="0.1" fill="none" />
<path d="M201.6310471439458,-139.17586294913318 L243.2136741540232,-29.531486662554137" stroke="#0d6d4d" stroke-width="0.1" fill="none" />
<path d="M202.89182960418793,-137.33137106963275 L244.38838235175032,17.30082574603564" stroke="#0d6d4d" stroke-width="0.1" fill="none" />
<path d="M204.13573943214993,-135.47545861332003 L236.62771620173146,63.500582085149695" stroke="#0d6d4d" stroke-width="0.1" fill="none" />
<path d="M205.36267318338474,-133.6082799192262 L220.21542265040898,107.37861810854959" stroke="#0d6d4d" stroke-width="0.1" fill="none" />
<path d="M206.57252882518836,-131.72999026329094 L195.75157108477651,147.33065674815168" stroke="#0d6d4d" stroke-width="0.1" fill="none" />
<path d="M207.7652057450846,-129.84074584544976 L164.13061348173684,181.895963996205" stroke="#0d6d4d" stroke-width="0.1" fill="none" />
<path d="M208.94060475919235,-127.94070377664403 L126.50868128542182,209.81075653889522" stroke="#0d6d4d" stroke-width="0.1" fill="none" />
<path d="M210.09862812047382,-126.0300220657556 L84.26131471024203,230.05440844135447" stroke="#0d6d4d" stroke-width="0.1" fill="none" />
<path d="M211.23917952686315,-124.1088596064668 L38.933169978899414,241.88676746650307" stroke="#0d6d4d" stroke-width="0.1" fill="none" />
<path d="M212.36216412927484,-122.17737616404655 L-7.818456691143352,244.8752166614023" stroke="#0d6d4d" stroke-width="0.1" fill="none" />
<path d="M213.4674885394917,-120.23573236206437 L-54.28422346602793,238.91049178026975" stroke="#0d6d4d" stroke-width="0.1" fill="none" />
<path d="M214.55506083793102,-118.2840896690325 L-98.76524017555315,224.21067622453955" stroke="#0d6d4d" stroke-width="0.1" fill="none" />
<path d="M215.62479058128852,-116.32261038497836 L-139.63518345752334,201.31322743621146" stroke="#0d6d4d" stroke-width="0.1" fill="none" />
<path d="M216.67658881005983,-114.35145762794743 L-175.39975870070768,171.05532627700757" stroke="#0d6d4d" stroke-width="0.1" fill="none" />
<path d="M217.71036805593846,-112.3707953204382 L-204.75133472758998,134.5432678630574" stroke="#0d6d4d" stroke-width="0.1" fill="none" />
<path d="M218.7260423490896,-110.38078817577029 L-226.61675365327912,93.11201299321698" stroke="#0d6d4d" stroke-width="0.1" fill="none" />
<path d="M219.72352722529945,-108.38160168438691 L-240.19656788746326,48.276379059362455" stroke="#0d6d4d" stroke-width="0.1" fill="none" />
<path d="M220.70273973299942,-106.37340210009229 L-244.99426968870392,1.6756550058465953" stroke="#0d6d4d" stroke-width="0.1" fill="none" />
<path d="M221.6635984401644,-104.35635642622609 L-240.83444457456773,-44.986334663533775" stroke="#0d6d4d" stroke-width="0.1" fill="none" />
<path d="M222.60602344108472,-102.33063240177519 L-227.86918485917494,-90.00352543992466" stroke="#0d6d4d" stroke-width="0.1" fill="none" />
<path d="M223.52993636301105,-100.29639848742441 L-206.57252882518836,-131.72999026329092" stroke="#0d6d4d" stroke-width="0.1" fill="none" />
<path d="M224.4352603726721,-98.25382385154731 L-177.72312884629153,-168.64011821949265" stroke="#0d6d4d" stroke-width="0.1" fill="none" />
<path d="M225.321920182664,-96.20307835613784 L-142.37578215154528,-199.38439421563493" stroke="#0d6d4d" stroke-width="0.1" fill="none" />
<path d="M226.1898420577114,-94.14433254268457 L-101.82286512921232,-222.8387402066307" stroke="#0d6d4d" stroke-width="0.1" fill="none" />
<path d="M227.03895382079918,-92.07775761798837 L-57.547081216341226,-238.1456139497006" stroke="#0d6d4d" stroke-width="0.1" fill="none" />
<path d="M227.86918485917494,-90.00352543992466 L-11.167250014724004,-244.7453626263604" stroke="#0d6d4d" stroke-width="0.1" fill="none" />
<path d="M228.6804661302209,-87.92180850315175 L35.62088029815277,-242.39668497482523" stroke="#0d6d4d" stroke-width="0.1" fill="none" />
<path d="M229.47273016719595,-85.8327799247658 L81.1066332353238,-231.18545379247084" stroke="#0d6d4d" stroke-width="0.1" fill="none" />
<path d="M230.24591108484583,-83.73661342990448 L123.62695007823787,-211.52157623834236" stroke="#0d6d4d" stroke-width="0.1" fill="none" />
<path d="M230.99994458488254,-81.63348333729977 L161.6271949447794,-184.12400672992717" stroke="#0d6d4d" stroke-width="0.1" fill="none" />
<path d="M231.73476796133113,-79.52356454478141 L193.71799568099783,-149.99446039549898" stroke="#0d6d4d" stroke-width="0.1" fill="none" />
<path d="M232.4503201057446,-77.40703251473262 L218.7260423490896,-110.38078817577029" stroke="#0d6d4d" stroke-width="0.1" fill="none" />
<path d="M233.14654151228558,-75.28406325949804 L235.73698600768938,-66.73135266132746" stroke="#0d6d4d" stroke-width="0.1" fill="none" />
<path d="M233.823374282675,-73.15483332674673 L244.12886931113573,-20.64207278512532" stroke="#0d6d4d" stroke-width="0.1" fill="none" />
<path d="M234.4807621310068,-71.01951978479022 L243.59486663180542,26.201926467970342" stroke="#0d6d4d" stroke-width="0.1" fill="none" />
<path d="M235.1186503884289,-68.87830020785745 L234.154502276855,72.08792592021437" stroke="#0d6d4d" stroke-width="0.1" fill="none" />
<path d="M235.73698600768938,-66.73135266132746 L216.1529366368024,115.33823296412376" stroke="#0d6d4d" stroke-width="0.1" fill="none" />
<path d="M236.3357175675479,-64.57885568692156 L190.2483463659204,154.37152167751918" stroke="#0d6d4d" stroke-width="0.1" fill="none" />
<path d="M236.91479527705192,-62.420988287855366 L157.3878600026767,187.76064956155705" stroke="#0d6d4d" stroke-width="0.1" fill="none" />
<path d="M237.47417097967755,-60.257929913952985 L118.77292887662746,214.28483699521905" stroke="#0d6d4d" stroke-width="0.1" fill="none" />
<path d="M238.01379815733404,-58.089860446723755 L75.81539941722798,232.97430161115665" stroke="#0d6d4d" stroke-width="0.1" fill="none" />
<path d="M238.53363193423243,-55.916960184403145 L30.085892957130604,243.14571566238234" stroke="#0d6d4d" stroke-width="0.1" fill="none" />
<path d="M239.0336290806173,-53.73940982695922 L-16.743619622616198,244.42718998084712" stroke="#0d6d4d" stroke-width="0.1" fill="none" />
<path d="M239.51374801636183,-51.55739046106516 L-62.96094880876391,236.77187105967678" stroke="#0d6d4d" stroke-width="0.1" fill="none" />
<path d="M239.97394881442582,-49.371083545040236 L-106.87628785331027,220.459654119969" stroke="#0d6d4d" stroke-width="0.1" fill="none" />
<path d="M240.41419320417577,-47.18067089375947 L-146.88399580804392,196.08694952867856" stroke="#0d6d4d" stroke-width="0.1" fill="none" />
<path d="M240.83444457456773,-44.98633466353384 L-181.52130327316422,164.5448767297601" stroke="#0d6d4d" stroke-width="0.1" fill="none" />
<path d="M241.23466797719172,-42.788257336961934 L-209.52179444927643,126.9866829661881" stroke="#0d6d4d" stroke-width="0.1" fill="none" />
<path d="M241.61483012917813,-40.58662170775482 L-229.86171007183734,84.78557803571663" stroke="#0d6d4d" stroke-width="0.1" fill="none" />
<path d="M241.97489941596564,-38.38161086553443 L-241.79737829139071,39.48452673402714" stroke="#0d6d4d" stroke-width="0.1" fill="none" />
<path d="M242.31484589393017,-36.173408180607915 L-244.89240494465463,-7.2601653165270585" stroke="#0d6d4d" stroke-width="0.1" fill="none" />
<path d="M242.63464129287507,-33.9621972887184 L-239.0336290806173,-53.739409826959154" stroke="#0d6d4d" stroke-width="0.1" fill="none" />
<path d="M242.9342590183822,-31.748162075773642 L-224.4352603726721,-98.25382385154727" stroke="#0d6d4d" stroke-width="0.1" fill="none" />
<path d="M243.2136741540232,-29.531486662554137 L-201.63104714394586,-139.17586294913312" stroke="#0d6d4d" stroke-width="0.1" fill="none" />
<path d="M243.4728634634321,-27.312355389401215 L-171.45476135996188,-175.00932777140343" stroke="#0d6d4d" stroke-width="0.1" fill="none" />
<path d="M243.7118053922371,-25.090952800887347 L-135.00971410003476,-204.44406838699643" stroke="#0d6d4d" stroke-width="0.1" fill="none" />
<path d="M243.93048006985345,-22.867463630469253 L-93.62841608850836,-226.4038862315688" stroke="#0d6d4d" stroke-width="0.1" fill="none" />
<path d="M244.12886931113573,-20.64207278512532 L-48.823858185138334,-240.08588228364763" stroke="#0d6d4d" stroke-width="0.1" fill="none" />
<path d="M244.30695661789022,-18.4149653299786 L-2.2341931265612933,-244.9898128108049" stroke="#0d6d4d" stroke-width="0.1" fill="none" />
<path d="M244.46472718024677,-16.186326472906675 L44.437158924494014,-240.93637937579965" stroke="#0d6d4d" stroke-width="0.1" fill="none" />
<path d="M244.60216787789057,-13.956341549139573 L89.4837911500007,-228.07378438001825" stroke="#0d6d4d" stroke-width="0.1" fill="none" />
<path d="M244.71926728115312,-11.725196005847302 L131.2587000460819,-206.8723124591899" stroke="#0d6d4d" stroke-width="0.1" fill="none" />
<path d="M244.8160156519628,-9.493075386717853 L168.23450347723085,-178.10713584741515" stroke="#0d6d4d" stroke-width="0.1" fill="none" />
<path d="M244.89240494465463,-7.260165316527118 L199.05928511139192,-142.82997238304566" stroke="#0d6d4d" stroke-width="0.1" fill="none" />
<path d="M244.94842880663938,-5.026651485702365 L222.60602344108472,-102.33063240177519" stroke="#0d6d4d" stroke-width="0.1" fill="none" />
<path d="M244.98408257893195,-2.792719634880038 L238.01379815733404,-58.089860446723755" stroke="#0d6d4d" stroke-width="0.1" fill="none" />
<path d="M244.9993632965387,-0.5585555394594306 L244.71926728115312,-11.725196005847302" stroke="#0d6d4d" stroke-width="0.1" fill="none" />
<path d="M244.99426968870392,1.6756550058465352 L242.47726417973388,35.0681672733484" stroke="#0d6d4d" stroke-width="0.1" fill="none" />
<path d="M244.9688021790158,3.909726202462131 L231.36976139533556,80.57936157519178" stroke="#0d6d4d" stroke-width="0.1" fill="none" />
<path d="M244.92296288537105,6.1434722633999685 L211.80287354966046,123.14439798913526" stroke="#0d6d4d" stroke-width="0.1" fill="none" />
<path d="M244.8567556197986,8.376707428711178 L184.4920089040957,161.20700558763278" stroke="#0d6d4d" stroke-width="0.1" fill="none" />
<path d="M244.77018588814295,10.609245980933391 L150.43571246728865,193.3755320987101" stroke="#0d6d4d" stroke-width="0.1" fill="none" />
<path d="M244.66326088960597,12.840902260534994 L110.87915700331412,218.47382576005398" stroke="#0d6d4d" stroke-width="0.1" fill="none" />
<path d="M244.5359895161484,15.071490681354796 L67.26861678911057,235.58423800262995" stroke="#0d6d4d" stroke-width="0.1" fill="none" />
<path d="M244.38838235175032,17.30082574603564 L21.198588660294753,244.08117469155957" stroke="#0d6d4d" stroke-width="0.1" fill="none" />
<path d="M244.22045167153104,19.528722061450303 L-25.646506284303708,243.65396921743175" stroke="#0d6d4d" stroke-width="0.1" fill="none" />
<path d="M244.03221144072813,21.75499435411902 L-71.55390880605906,234.31824114774798" stroke="#0d6d4d" stroke-width="0.1" fill="none" />
<path d="M243.82367731353634,23.979457485616933 L-114.84514375440514,216.41532514133561" stroke="#0d6d4d" stroke-width="0.1" fill="none" />
<path d="M243.59486663180542,26.201926467970342 L-153.93738879336468,190.59979100586781" stroke="#0d6d4d" stroke-width="0.1" fill="none" />
<path d="M243.34579842359835,28.422216479040443 L-187.40134585174636,157.81551119251287" stroke="#0d6d4d" stroke-width="0.1" fill="none" />
<path d="M243.07649340160864,30.64014287789327 L-214.01349939007903,119.26115075250884" stroke="#0d6d4d" stroke-width="0.1" fill="none" />
<path d="M242.786973961438,32.85552122015463 L-232.80085080762584,76.34634151840899" stroke="#0d6d4d" stroke-width="0.1" fill="none" />
<path d="M242.47726417973388,35.0681672733484 L-243.07649340160862,30.64014287789344" stroke="#0d6d4d" stroke-width="0.1" fill="none" />
<path d="M242.14738981218727,37.27789703221782 L-244.46472718024677,-16.186326472906728" stroke="#0d6d4d" stroke-width="0.1" fill="none" />
<path d="M241.79737829139071,39.484526734027085 L-236.91479527705195,-62.42098828785525" stroke="#0d6d4d" stroke-width="0.1" fill="none" />
<path d="M241.42725872455713,41.68787287384354 L-220.70273973299936,-106.37340210009239" stroke="#0d6d4d" stroke-width="0.1" fill="none" />
<path d="M241.03706189109928,43.8877522197979 L-196.4213087951155,-146.43657142672348" stroke="#0d6d4d" stroke-width="0.1" fill="none" />
<path d="M240.62682024006986,46.08398182832198 L-164.958284742742,-181.1456990787594" stroke="#0d6d4d" stroke-width="0.1" fill="none" />
<path d="M240.1965678874633,48.27637905936239 L-127.4640246236025,-209.23174335352095" stroke="#0d6d4d" stroke-width="0.1" fill="none" />
<path d="M239.7463406133785,50.46476159156908 L-85.30940068142779,-229.6678169778596" stroke="#0d6d4d" stroke-width="0.1" fill="none" />
<path d="M239.2761758590434,52.64894743745724 L-40.03567826519708,-241.70673235523586" stroke="#0d6d4d" stroke-width="0.1" fill="none" />
<path d="M238.78611272370134,54.82875495854158 L6.701836206626064,-244.90832038021813" stroke="#0d6d4d" stroke-width="0.1" fill="none" />
<path d="M238.27619196135944,57.004002880441526 L53.19431687304775,-239.15552398472795" stroke="#0d6d4d" stroke-width="0.1" fill="none" />
<path d="M237.74645597739962,59.17451030795595 L97.74189684550281,-224.65867800074648" stroke="#0d6d4d" stroke-width="0.1" fill="none" />
<path d="M237.19694882505198,61.34009674010689 L138.71581906316206,-201.94781885832808" stroke="#0d6d4d" stroke-width="0.1" fill="none" />
<path d="M236.62771620173146,63.500582085149695 L174.61798721724404,-171.85330529320171" stroke="#0d6d4d" stroke-width="0.1" fill="none" />
<path d="M236.03880544523744,65.65578667555006 L204.13573943214993,-135.47545861332003" stroke="#0d6d4d" stroke-width="0.1" fill="none" />
<path d="M235.4302655298173,67.805531282925 L226.1898420577114,-94.14433254268457" stroke="#0d6d4d" stroke-width="0.1" fill="none" />
<path d="M234.80214706209344,69.94963713294764 L239.97394881442582,-49.371083545040236" stroke="#0d6d4d" stroke-width="0.1" fill="none" />
<path d="M234.154502276855,72.08792592021437 L244.98408257893195,-2.792719634880038" stroke="#0d6d4d" stroke-width="0.1" fill="none" />
<path d="M233.48738503271386,74.22021982307268 L241.03706189109928,43.8877522197979" stroke="#0d6d4d" stroke-width="0.1" fill="none" />
<path d="M232.8008508076258,76.34634151840903 L228.27719846928645,88.9635917609783" stroke="#0d6d4d" stroke-width="0.1" fill="none" />
<path d="M232.0949566942769,78.46611419639522 L207.17102085794738,130.7867276013737" stroke="#0d6d4d" stroke-width="0.1" fill="none" />
<path d="M231.36976139533556,80.57936157519178 L178.4902171225806,167.82801432280021" stroke="#0d6d4d" stroke-width="0.1" fill="none" />
<path d="M230.62532521857088,82.68590791560806 L143.28342024444157,198.73314138073385" stroke="#0d6d4d" stroke-width="0.1" fill="none" />
<path d="M229.86171007183736,84.78557803571657 L102.83786780276372,222.3721496630846" stroke="#0d6d4d" stroke-width="0.1" fill="none" />
<path d="M229.07897945792664,86.87819732542124 L58.632337750451626,237.88074526938274" stroke="#0d6d4d" stroke-width="0.1" fill="none" />
<path d="M228.27719846928645,88.9635917609783 L12.283081054335002,244.69189998815375" stroke="#0d6d4d" stroke-width="0.1" fill="none" />
<path d="M227.45643378260763,91.04158791946806 L-34.5152719789646,242.55658308983928" stroke="#0d6d4d" stroke-width="0.1" fill="none" />
<path d="M226.61675365327915,93.11201299321692 L-80.0516710974399,231.55286643552333" stroke="#0d6d4d" stroke-width="0.1" fill="none" />
<path d="M225.7582279097119,95.17469480416828 L-122.66120584726168,212.08306999875236" stroke="#0d6d4d" stroke-width="0.1" fill="none" />
<path d="M224.8809279475319,97.22946181820079 L-160.78597834429462,184.85905216642223" stroke="#0d6d4d" stroke-width="0.1" fill="none" />
<path d="M223.98492672364276,99.27614315939348 L-193.03206343176416,150.87618263753689" stroke="#0d6d4d" stroke-width="0.1" fill="none" />
<path d="M223.0702987501586,101.31456862423582 L-218.22047363598915,111.37694952764939" stroke="#0d6d4d" stroke-width="0.1" fill="none" />
<path d="M222.13712008820772,103.34456869578186 L-235.43026552981732,67.80553128292495" stroke="#0d6d4d" stroke-width="0.1" fill="none" />
<path d="M221.18546834160713,105.36597455774753 L-244.03221144072813,21.754994354119187" stroke="#0d6d4d" stroke-width="0.1" fill="none" />
<path d="M220.21542265040898,107.37861810854959 L-243.7118053922371,-25.090952800887397" stroke="#0d6d4d" stroke-width="0.1" fill="none" />
<path d="M219.22706368431926,109.38233197528486 L-234.48076213100683,-71.01951978479008" stroke="#0d6d4d" stroke-width="0.1" fill="none" />
<path d="M218.22047363598924,111.37694952764924 L-216.6765888100598,-114.35145762794747" stroke="#0d6d4d" stroke-width="0.1" fill="none" />
<path d="M217.19573621418024,113.36230489179476 L-190.95024498829153,-153.5024558074282" stroke="#0d6d4d" stroke-width="0.1" fill="none" />
<path d="M216.1529366368024,115.33823296412376 L-158.24234212371863,-187.04106810858406" stroke="#0d6d4d" stroke-width="0.1" fill="none" />
<path d="M215.09216162382788,117.30456942501901 L-119.7487527591045,-213.74104943280986" stroke="#0d6d4d" stroke-width="0.1" fill="none" />
<path d="M214.01349939007912,119.26115075250868 L-76.87688680342761,-232.62619000321735" stroke="#0d6d4d" stroke-width="0.1" fill="none" />
<path d="M212.91703963789286,121.20781423586496 L-31.19423354408431,-243.0060077314903" stroke="#0d6d4d" stroke-width="0.1" fill="none" />
<path d="M211.80287354966046,123.14439798913526 L15.628949193481917,-244.50099375484663" stroke="#0d6d4d" stroke-width="0.1" fill="none" />
<path d="M210.67109378024512,125.07074096460441 L61.880703328911714,-237.0564881109969" stroke="#0d6d4d" stroke-width="0.1" fill="none" />
<path d="M209.52179444927646,126.98668296618801 L105.86996346268391,-220.94467822604366" stroke="#0d6d4d" stroke-width="0.1" fill="none" />
<path d="M208.35507113332372,128.8920646627542 L145.98838592971427,-196.75464714622828" stroke="#0d6d4d" stroke-width="0.1" fill="none" />
<path d="M207.17102085794738,130.7867276013737 L180.76915336522316,-165.3708353719616" stroke="#0d6d4d" stroke-width="0.1" fill="none" />
<path d="M205.96974208963047,132.67051422049707 L208.94060475919235,-127.94070377664403" stroke="#0d6d4d" stroke-width="0.1" fill="none" />
<path d="M204.75133472759,134.5432678630573 L229.47273016719595,-85.8327799247658" stroke="#0d6d4d" stroke-width="0.1" fill="none" />
<path d="M203.5159000954694,136.40483278949802 L241.61483012917813,-40.58662170775482" stroke="#0d6d4d" stroke-width="0.1" fill="none" />
<path d="M202.2635409329122,138.25505419072442 L244.92296288537105,6.1434722633999685" stroke="#0d6d4d" stroke-width="0.1" fill="none" />
<path d="M200.99436138701824,140.0937782009776 L239.2761758590434,52.64894743745724" stroke="#0d6d4d" stroke-width="0.1" fill="none" />
<path d="M199.70846700368267,141.92085191063006 L224.8809279475319,97.22946181820079" stroke="#0d6d4d" stroke-width="0.1" fill="none" />
<path d="M198.40596471881864,143.73612337890185 L202.2635409329122,138.25505419072442" stroke="#0d6d4d" stroke-width="0.1" fill="none" />
<path d="M197.08696284946467,145.53944164649573 L172.25095600526342,174.22573907225305" stroke="#0d6d4d" stroke-width="0.1" fill="none" />
<path d="M195.75157108477651,147.33065674815168 L135.9404989821692,203.8263494656146" stroke="#0d6d4d" stroke-width="0.1" fill="none" />
<path d="M194.39990047690569,149.10961972511757 L94.65975967422902,225.9746222442184" stroke="#0d6d4d" stroke-width="0.1" fill="none" />
<path d="M193.03206343176413,150.8761826375369 L49.91805229482174,239.86076806158076" stroke="#0d6d4d" stroke-width="0.1" fill="none" />
<path d="M191.64817369967645,152.63019857675167 L3.3512316278171443,244.97707902286842" stroke="#0d6d4d" stroke-width="0.1" fill="none" />
<path d="M190.2483463659204,154.37152167751918 L-43.33811740503037,241.1364915971612" stroke="#0d6d4d" stroke-width="0.1" fill="none" />
<path d="M188.83269784115635,156.10000713014253 L-88.44292997663501,228.47942606971867" stroke="#0d6d4d" stroke-width="0.1" fill="none" />
<path d="M187.40134585174633,157.81551119251287 L-130.31407538228052,207.46865246890025" stroke="#0d6d4d" stroke-width="0.1" fill="none" />
<path d="M185.95440942996402,159.5178912020633 L-167.42065286896042,178.87237068069248" stroke="#0d6d4d" stroke-width="0.1" fill="none" />
<path d="M184.4920089040957,161.20700558763278 L-198.40596471881864,143.73612337890182" stroke="#0d6d4d" stroke-width="0.1" fill="none" />
<path d="M183.0142658884341,162.88271388123894 L-222.13712008820767,103.34456869578202" stroke="#0d6d4d" stroke-width="0.1" fill="none" />
<path d="M181.52130327316425,164.54487672976003 L-237.74645597739962,59.174510307955956" stroke="#0d6d4d" stroke-width="0.1" fill="none" />
<path d="M180.01324521414435,166.19335590652335 L-244.66326088960597,12.840902260535163" stroke="#0d6d4d" stroke-width="0.1" fill="none" />
<path d="M178.4902171225806,167.82801432280021 L-242.63464129287507,-33.96219728871839" stroke="#0d6d4d" stroke-width="0.1" fill="none" />
<path d="M176.95234565459805,169.44871603920657 L-231.7347679613312,-79.52356454478125" stroke="#0d6d4d" stroke-width="0.1" fill="none" />
<path d="M175.39975870070776,171.0553262770075 L-212.36216412927484,-122.17737616404658" stroke="#0d6d4d" stroke-width="0.1" fill="none" />
<path d="M173.83258537517128,172.6477114293259 L-185.22513460917023,-160.3641154030875" stroke="#0d6d4d" stroke-width="0.1" fill="none" />
<path d="M172.25095600526342,174.22573907225305 L-151.31586861686495,-192.6875914653657" stroke="#0d6d4d" stroke-width="0.1" fill="none" />
<path d="M170.6550021204343,175.7892779758611 L-111.87416316145986,-217.965987293713" stroke="#0d6d4d" stroke-width="0.1" fill="none" />
<path d="M169.04485644137097,177.33819811511643 L-68.34209335211523,-235.27506938953556" stroke="#0d6d4d" stroke-width="0.1" fill="none" />
<path d="M167.42065286896036,178.87237068069254 L-22.31128697463549,-243.98197981313183" stroke="#0d6d4d" stroke-width="0.1" fill="none" />
<path d="M165.78252647315443,180.39166808968162 L24.535268905254743,-243.7683748556134" stroke="#0d6d4d" stroke-width="0.1" fill="none" />
<path d="M164.13061348173684,181.895963996205 L70.48476163393711,-234.64206438191567" stroke="#0d6d4d" stroke-width="0.1" fill="none" />
<path d="M162.4650512689948,183.38513330191978 L113.8571771507233,-216.93672628503643" stroke="#0d6d4d" stroke-width="0.1" fill="none" />
<path d="M160.78597834429468,184.8590521664222 L153.0667249803088,-191.29970649167893" stroke="#0d6d4d" stroke-width="0.1" fill="none" />
<path d="M159.09353434056342,186.3175980175463 L186.67981820464234,-158.66835057780642" stroke="#0d6d4d" stroke-width="0.1" fill="none" />
<path d="M157.3878600026767,187.76064956155705 L213.4674885394917,-120.23573236206437" stroke="#0d6d4d" stroke-width="0.1" fill="none" />
<path d="M155.66909717575442,189.1880867932374 L232.4503201057446,-77.40703251473262" stroke="#0d6d4d" stroke-width="0.1" fill="none" />
<path d="M153.93738879336468,190.5997910058678 L242.9342590183822,-31.748162075773642" stroke="#0d6d4d" stroke-width="0.1" fill="none" />
<path d="M152.19287886563754,191.99564480109794 L244.5359895161484,15.071490681354796" stroke="#0d6d4d" stroke-width="0.1" fill="none" />
<path d="M150.43571246728865,193.3755320987101 L237.19694882505198,61.34009674010689" stroke="#0d6d4d" stroke-width="0.1" fill="none" />
<path d="M148.66603572555533,194.73933814627156 L221.18546834160713,105.36597455774753" stroke="#0d6d4d" stroke-width="0.1" fill="none" />
<path d="M146.8839958080439,196.0869495286786 L197.08696284946467,145.53944164649573" stroke="#0d6d4d" stroke-width="0.1" fill="none" />
<path d="M145.0897409104914,197.41825417758733 L165.78252647315443,180.39166808968162" stroke="#0d6d4d" stroke-width="0.1" fill="none" />
<path d="M143.28342024444157,198.73314138073385 L128.416717947735,208.64838017950646" stroke="#0d6d4d" stroke-width="0.1" fill="none" />
<path d="M141.46518402483622,200.03150179114095 L86.35571304542573,229.27645065382552" stroke="#0d6d4d" stroke-width="0.1" fill="none" />
<path d="M139.63518345752328,201.3132274362115 L41.13735419812906,241.52167209088643" stroke="#0d6d4d" stroke-width="0.1" fill="none" />
<path d="M137.79357072668242,202.5782117267076 L-5.585076388989894,244.93633238400778" stroke="#0d6d4d" stroke-width="0.1" fill="none" />
<path d="M135.9404989821692,203.8263494656146 L-52.10330435478864,239.39558407646592" stroke="#0d6d4d" stroke-width="0.1" fill="none" />
<path d="M134.0761223267792,205.05753685688939 L-96.71652143306311,225.10200905786658" stroke="#0d6d4d" stroke-width="0.1" fill="none" />
<path d="M132.20059580343255,206.27167151409193 L-137.79357072668236,202.57821172670762" stroke="#0d6d4d" stroke-width="0.1" fill="none" />
<path d="M130.3140753822805,207.46865246890027 L-173.83258537517122,172.64771142932597" stroke="#0d6d4d" stroke-width="0.1" fill="none" />
<path d="M128.416717947735,208.64838017950646 L-203.51590009546936,136.4048327894981" stroke="#0d6d4d" stroke-width="0.1" fill="none" />
<path d="M126.50868128542182,209.81075653889522 L-225.75822790971188,95.17469480416831" stroke="#0d6d4d" stroke-width="0.1" fill="none" />
<path d="M124.590124069059,210.9556848830021 L-239.74634061337846,50.464761591569136" stroke="#0d6d4d" stroke-width="0.1" fill="none" />
<path d="M122.66120584726164,212.08306999875242 L-244.9688021790158,3.9097262024621915" stroke="#0d6d4d" stroke-width="0.1" fill="none" />
<path d="M120.72208703027356,213.19281813197895 L-241.23466797719172,-42.788257336961934" stroke="#0d6d4d" stroke-width="0.1" fill="none" />
<path d="M118.77292887662746,214.28483699521905 L-228.6804661302209,-87.92180850315175" stroke="#0d6d4d" stroke-width="0.1" fill="none" />
<path d="M116.81389347973467,215.3590357753888 L-207.7652057450846,-129.84074584544976" stroke="#0d6d4d" stroke-width="0.1" fill="none" />
<path d="M114.84514375440519,216.41532514133561 L-179.2535945354775,-167.0124212330048" stroke="#0d6d4d" stroke-width="0.1" fill="none" />
<path d="M112.86684342329968,217.4536172512666 L-144.18807943346596,-198.07775682617296" stroke="#0d6d4d" stroke-width="0.1" fill="none" />
<path d="M110.87915700331412,218.47382576005398 L-103.85073244721134,-221.90093593803908" stroke="#0d6d4d" stroke-width="0.1" fill="none" />
<path d="M108.88224979189837,219.47586582641532 L-59.71637530125183,-237.6109309793639" stroke="#0d6d4d" stroke-width="0.1" fill="none" />
<path d="M106.87628785331032,220.45965411996897 L-13.398656725127523,-244.63335013436372" stroke="#0d6d4d" stroke-width="0.1" fill="none" />
<path d="M104.86143800480528,221.42510882816424 L33.40894607725939,-242.71143838312767" stroke="#0d6d4d" stroke-width="0.1" fill="none" />
<path d="M102.83786780276372,222.3721496630846 L78.99504466209186,-231.91546502731143" stroke="#0d6d4d" stroke-width="0.1" fill="none" />
<path d="M100.80574552875706,223.30069786812462 L121.6929114542331,-212.640154490614" stroke="#0d6d4d" stroke-width="0.1" fill="none" />
<path d="M98.7652401755532,224.21067622453953 L159.94141895667778,-185.59025432959695" stroke="#0d6d4d" stroke-width="0.1" fill="none" />
<path d="M96.71652143306308,225.10200905786658 L192.34211798993502,-151.75476811997018" stroke="#0d6d4d" stroke-width="0.1" fill="none" />
<path d="M94.65975967422902,225.9746222442184 L217.71036805593846,-112.3707953204382" stroke="#0d6d4d" stroke-width="0.1" fill="none" />
<path d="M92.5951259408565,226.828443216447 L235.1186503884289,-68.87830020785745" stroke="#0d6d4d" stroke-width="0.1" fill="none" />
<path d="M90.52279192939008,227.66340097017866 L243.93048006985345,-22.867463630469253" stroke="#0d6d4d" stroke-width="0.1" fill="none" />
<path d="M88.44292997663506,228.47942606971864 L243.82367731353634,23.979457485616933" stroke="#0d6d4d" stroke-width="0.1" fill="none" />
<path d="M86.35571304542573,229.27645065382552 L234.80214706209344,69.94963713294764" stroke="#0d6d4d" stroke-width="0.1" fill="none" />
<path d="M84.26131471024203,230.05440844135447 L217.19573621418024,113.36230489179476" stroke="#0d6d4d" stroke-width="0.1" fill="none" />
<path d="M82.15990914277442,230.8132347367695 L191.64817369967645,152.63019857675167" stroke="#0d6d4d" stroke-width="0.1" fill="none" />
<path d="M80.05167109743995,231.5528664355233 L159.09353434056342,186.3175980175463" stroke="#0d6d4d" stroke-width="0.1" fill="none" />
<path d="M77.93677589684955,232.27324202930532 L120.72208703027356,213.19281813197895" stroke="#0d6d4d" stroke-width="0.1" fill="none" />
<path d="M75.81539941722798,232.97430161115665 L77.93677589684955,232.27324202930532" stroke="#0d6d4d" stroke-width="0.1" fill="none" />
<path d="M73.6877180737879,233.65598688045196 L32.30192559387376,242.8612476352039" stroke="#0d6d4d" stroke-width="0.1" fill="none" />
<path d="M71.55390880605908,234.31824114774798 L-14.513953833960013,244.56971428225876" stroke="#0d6d4d" stroke-width="0.1" fill="none" />
<path d="M69.41414906317391,234.96100933949756 L-60.79917133128629,237.33617668916153" stroke="#0d6d4d" stroke-width="0.1" fill="none" />
<path d="M67.26861678911057,235.58423800262995 L-104.86143800480534,221.4251088281642" stroke="#0d6d4d" stroke-width="0.1" fill="none" />
<path d="M65.1174904078951,236.18787530899567 L-145.08974091049134,197.41825417758736" stroke="#0d6d4d" stroke-width="0.1" fill="none" />
<path d="M62.96094880876385,236.77187105967678 L-180.01324521414438,166.19335590652332" stroke="#0d6d4d" stroke-width="0.1" fill="none" />
<path d="M60.79917133128634,237.3361766891615 L-208.3550711333237,128.89206466275428" stroke="#0d6d4d" stroke-width="0.1" fill="none" />
<path d="M58.632337750451626,237.88074526938274 L-229.0789794579266,86.8781973254213" stroke="#0d6d4d" stroke-width="0.1" fill="none" />
<path d="M56.46062826171803,238.4055315136209 L-241.42725872455713,41.6878728738436" stroke="#0d6d4d" stroke-width="0.1" fill="none" />
<path d="M54.28422346602788,238.91049178026978 L-244.94842880663938,-5.026651485702304" stroke="#0d6d4d" stroke-width="0.1" fill="none" />
<path d="M52.1033043547887,239.3955840764659 L-239.51374801636183,-51.557390461065104" stroke="#0d6d4d" stroke-width="0.1" fill="none" />
<path d="M49.91805229482174,239.86076806158076 L-225.32192018266403,-96.20307835613778" stroke="#0d6d4d" stroke-width="0.1" fill="none" />
<path d="M47.72864901327945,240.3060050505754 L-202.891829604188,-137.3313710696327" stroke="#0d6d4d" stroke-width="0.1" fill="none" />
<path d="M45.53527658253288,240.7312580172177 L-173.04356950322145,-173.43852816944616" stroke="#0d6d4d" stroke-width="0.1" fill="none" />
<path d="M43.338117405030424,241.1364915971612 L-136.8684576218949,-203.2043929352994" stroke="#0d6d4d" stroke-width="0.1" fill="none" />
<path d="M41.13735419812906,241.52167209088643 L-95.68913525608629,-225.54066017891856" stroke="#0d6d4d" stroke-width="0.1" fill="none" />
<path d="M38.933169978899414,241.88676746650307 L-51.0112085937175,-239.63066706456468" stroke="#0d6d4d" stroke-width="0.1" fill="none" />
<path d="M36.725748048906404,242.23174736241376 L-4.468200455995355,-244.95925209039368" stroke="#0d6d4d" stroke-width="0.1" fill="none" />
<path d="M34.51527197896454,242.55658308983928 L42.238174873533936,-241.33159052091122" stroke="#0d6d4d" stroke-width="0.1" fill="none" />
<path d="M32.30192559387376,242.8612476352039 L87.40023004909872,-228.8803176058715" stroke="#0d6d4d" stroke-width="0.1" fill="none" />
<path d="M30.085892957130604,243.14571566238234 L129.36674145104917,-208.06067914514122" stroke="#0d6d4d" stroke-width="0.1" fill="none" />
<path d="M27.867358355622997,243.4099635148062 L166.60332153674975,-179.63388670549435" stroke="#0d6d4d" stroke-width="0.1" fill="none" />
<path d="M25.646506284303662,243.65396921743175 L197.7485194086833,-144.63928605905656" stroke="#0d6d4d" stroke-width="0.1" fill="none" />
<path d="M23.4235214308478,243.87771247856702 L221.6635984401644,-104.35635642622609" stroke="#0d6d4d" stroke-width="0.1" fill="none" />
<path d="M21.198588660294753,244.08117469155957 L237.47417097967755,-60.257929913952985" stroke="#0d6d4d" stroke-width="0.1" fill="none" />
<path d="M18.971892999673315,244.26433893634362 L244.60216787789057,-13.956341549139573" stroke="#0d6d4d" stroke-width="0.1" fill="none" />
<path d="M16.743619622616368,244.42718998084712 L242.786973961438,32.85552122015463" stroke="#0d6d4d" stroke-width="0.1" fill="none" />
<path d="M14.513953833959965,244.56971428225876 L232.0949566942769,78.46611419639522" stroke="#0d6d4d" stroke-width="0.1" fill="none" />
<path d="M12.283081054335002,244.69189998815375 L212.91703963789286,121.20781423586496" stroke="#0d6d4d" stroke-width="0.1" fill="none" />
<path d="M10.051186804745745,244.7937369374799 L185.95440942996402,159.5178912020633" stroke="#0d6d4d" stroke-width="0.1" fill="none" />
<path d="M7.818456691143522,244.8752166614023 L152.19287886563754,191.99564480109794" stroke="#0d6d4d" stroke-width="0.1" fill="none" />
<path d="M5.585076388989844,244.93633238400778 L112.86684342329968,217.4536172512666" stroke="#0d6d4d" stroke-width="0.1" fill="none" />
<path d="M3.3512316278171443,244.97707902286842 L69.41414906317391,234.96100933949756" stroke="#0d6d4d" stroke-width="0.1" fill="none" />
<path d="M1.1171081757821648,244.99745318946398 L23.4235214308478,243.87771247856702" stroke="#0d6d4d" stroke-width="0.1" fill="none" />
<path d="M-1.1171081757822137,244.99745318946398 L-23.423521430847845,243.87771247856702" stroke="#0d6d4d" stroke-width="0.1" fill="none" />
<path d="M-3.351231627817084,244.97707902286842 L-69.41414906317385,234.9610093394976" stroke="#0d6d4d" stroke-width="0.1" fill="none" />
<path d="M-5.585076388989894,244.93633238400778 L-112.86684342329963,217.45361725126662" stroke="#0d6d4d" stroke-width="0.1" fill="none" />
<path d="M-7.818456691143352,244.8752166614023 L-152.19287886563748,191.995644801098" stroke="#0d6d4d" stroke-width="0.1" fill="none" />
<path d="M-10.051186804745793,244.7937369374799 L-185.9544094299639,159.51789120206345" stroke="#0d6d4d" stroke-width="0.1" fill="none" />
<path d="M-12.283081054334831,244.69189998815378 L-212.91703963789288,121.20781423586493" stroke="#0d6d4d" stroke-width="0.1" fill="none" />
<path d="M-14.513953833960013,244.56971428225876 L-232.09495669427687,78.46611419639532" stroke="#0d6d4d" stroke-width="0.1" fill="none" />
<path d="M-16.743619622616198,244.42718998084712 L-242.786973961438,32.85552122015453" stroke="#0d6d4d" stroke-width="0.1" fill="none" />
<path d="M-18.971892999673365,244.26433893634362 L-244.60216787789057,-13.956341549139458" stroke="#0d6d4d" stroke-width="0.1" fill="none" />
<path d="M-21.19858866029469,244.08117469155957 L-237.47417097967752,-60.25792991395308" stroke="#0d6d4d" stroke-width="0.1" fill="none" />
<path d="M-23.423521430847845,243.87771247856702 L-221.66359844016446,-104.356356426226" stroke="#0d6d4d" stroke-width="0.1" fill="none" />
<path d="M-25.646506284303708,243.65396921743175 L-197.7485194086834,-144.63928605905647" stroke="#0d6d4d" stroke-width="0.1" fill="none" />
<path d="M-27.867358355622933,243.4099635148062 L-166.6033215367498,-179.63388670549426" stroke="#0d6d4d" stroke-width="0.1" fill="none" />
<path d="M-30.08589295713065,243.14571566238232 L-129.36674145104925,-208.06067914514117" stroke="#0d6d4d" stroke-width="0.1" fill="none" />
<path d="M-32.3019255938736,242.86124763520394 L-87.40023004909878,-228.88031760587148" stroke="#0d6d4d" stroke-width="0.1" fill="none" />
<path d="M-34.5152719789646,242.55658308983928 L-42.23817487353402,-241.33159052091122" stroke="#0d6d4d" stroke-width="0.1" fill="none" />
<path d="M-36.72574804890624,242.23174736241378 L4.468200455995315,-244.95925209039368" stroke="#0d6d4d" stroke-width="0.1" fill="none" />
<path d="M-38.93316997889947,241.88676746650307 L51.01120859371745,-239.63066706456468" stroke="#0d6d4d" stroke-width="0.1" fill="none" />
<path d="M-41.13735419812901,241.52167209088643 L95.68913525608623,-225.54066017891859" stroke="#0d6d4d" stroke-width="0.1" fill="none" />
<path d="M-43.33811740503037,241.1364915971612 L136.86845762189486,-203.20439293529947" stroke="#0d6d4d" stroke-width="0.1" fill="none" />
<path d="M-45.53527658253283,240.7312580172177 L173.04356950322142,-173.4385281694462" stroke="#0d6d4d" stroke-width="0.1" fill="none" />
<path d="M-47.7286490132794,240.30600505057544 L202.89182960418793,-137.33137106963275" stroke="#0d6d4d" stroke-width="0.1" fill="none" />
<path d="M-49.91805229482179,239.86076806158073 L225.321920182664,-96.20307835613784" stroke="#0d6d4d" stroke-width="0.1" fill="none" />
<path d="M-52.10330435478864,239.39558407646592 L239.51374801636183,-51.55739046106516" stroke="#0d6d4d" stroke-width="0.1" fill="none" />
<path d="M-54.28422346602793,238.91049178026975 L244.94842880663938,-5.026651485702365" stroke="#0d6d4d" stroke-width="0.1" fill="none" />
<path d="M-56.46062826171797,238.4055315136209 L241.42725872455713,41.68787287384354" stroke="#0d6d4d" stroke-width="0.1" fill="none" />
<path d="M-58.63233775045168,237.88074526938274 L229.07897945792664,86.87819732542124" stroke="#0d6d4d" stroke-width="0.1" fill="none" />
<path d="M-60.79917133128629,237.33617668916153 L208.35507113332372,128.8920646627542" stroke="#0d6d4d" stroke-width="0.1" fill="none" />
<path d="M-62.96094880876391,236.77187105967678 L180.01324521414435,166.19335590652335" stroke="#0d6d4d" stroke-width="0.1" fill="none" />
<path d="M-65.11749040789513,236.18787530899567 L145.0897409104914,197.41825417758733" stroke="#0d6d4d" stroke-width="0.1" fill="none" />
<path d="M-67.26861678911051,235.58423800262995 L104.86143800480528,221.42510882816424" stroke="#0d6d4d" stroke-width="0.1" fill="none" />
<path d="M-69.41414906317385,234.9610093394976 L60.79917133128634,237.3361766891615" stroke="#0d6d4d" stroke-width="0.1" fill="none" />
<path d="M-71.55390880605906,234.31824114774798 L14.513953833959965,244.56971428225876" stroke="#0d6d4d" stroke-width="0.1" fill="none" />
<path d="M-73.68771807378796,233.65598688045196 L-32.3019255938736,242.86124763520394" stroke="#0d6d4d" stroke-width="0.1" fill="none" />
<path d="M-75.81539941722792,232.97430161115668 L-77.9367758968496,232.2732420293053" stroke="#0d6d4d" stroke-width="0.1" fill="none" />
<path d="M-77.9367758968496,232.2732420293053 L-120.7220870302735,213.19281813197898" stroke="#0d6d4d" stroke-width="0.1" fill="none" />
<path d="M-80.0516710974399,231.55286643552333 L-159.09353434056348,186.31759801754626" stroke="#0d6d4d" stroke-width="0.1" fill="none" />
<path d="M-82.15990914277448,230.81323473676946 L-191.6481736996763,152.6301985767518" stroke="#0d6d4d" stroke-width="0.1" fill="none" />
<path d="M-84.26131471024198,230.0544084413545 L-217.19573621418027,113.36230489179472" stroke="#0d6d4d" stroke-width="0.1" fill="none" />
<path d="M-86.35571304542577,229.2764506538255 L-234.80214706209338,69.94963713294781" stroke="#0d6d4d" stroke-width="0.1" fill="none" />
<path d="M-88.44292997663501,228.47942606971867 L-243.82367731353634,23.979457485616884" stroke="#0d6d4d" stroke-width="0.1" fill="none" />
<path d="M-90.52279192939002,227.66340097017869 L-243.93048006985345,-22.867463630469086" stroke="#0d6d4d" stroke-width="0.1" fill="none" />
<path d="M-92.59512594085646,226.82844321644703 L-235.1186503884289,-68.8783002078575" stroke="#0d6d4d" stroke-width="0.1" fill="none" />
<path d="M-94.65975967422898,225.97462224421844 L-217.71036805593855,-112.37079532043805" stroke="#0d6d4d" stroke-width="0.1" fill="none" />
<path d="M-96.71652143306311,225.10200905786658 L-192.342117989935,-151.7547681199702" stroke="#0d6d4d" stroke-width="0.1" fill="none" />
<path d="M-98.76524017555315,224.21067622453955 L-159.9414189566779,-185.59025432959686" stroke="#0d6d4d" stroke-width="0.1" fill="none" />
<path d="M-100.8057455287571,223.30069786812462 L-121.69291145423303,-212.64015449061404" stroke="#0d6d4d" stroke-width="0.1" fill="none" />
<path d="M-102.83786780276367,222.37214966308463 L-78.99504466209177,-231.91546502731146" stroke="#0d6d4d" stroke-width="0.1" fill="none" />
<path d="M-104.86143800480534,221.4251088281642 L-33.408946077259515,-242.71143838312764" stroke="#0d6d4d" stroke-width="0.1" fill="none" />
<path d="M-106.87628785331027,220.459654119969 L13.398656725127525,-244.63335013436372" stroke="#0d6d4d" stroke-width="0.1" fill="none" />
<path d="M-108.88224979189842,219.4758658264153 L59.71637530125182,-237.6109309793639" stroke="#0d6d4d" stroke-width="0.1" fill="none" />
<path d="M-110.87915700331406,218.47382576005398 L103.85073244721134,-221.90093593803908" stroke="#0d6d4d" stroke-width="0.1" fill="none" />
<path d="M-112.86684342329963,217.45361725126662 L144.18807943346596,-198.07775682617296" stroke="#0d6d4d" stroke-width="0.1" fill="none" />
<path d="M-114.84514375440514,216.41532514133561 L179.2535945354775,-167.01242123300483" stroke="#0d6d4d" stroke-width="0.1" fill="none" />
<path d="M-116.81389347973462,215.35903577538883 L207.7652057450846,-129.84074584544976" stroke="#0d6d4d" stroke-width="0.1" fill="none" />
<path d="M-118.77292887662752,214.28483699521902 L228.6804661302209,-87.92180850315175" stroke="#0d6d4d" stroke-width="0.1" fill="none" />
<path d="M-120.7220870302735,213.19281813197898 L241.23466797719172,-42.788257336961934" stroke="#0d6d4d" stroke-width="0.1" fill="none" />
<path d="M-122.66120584726168,212.08306999875236 L244.9688021790158,3.909726202462131" stroke="#0d6d4d" stroke-width="0.1" fill="none" />
<path d="M-124.59012406905894,210.95568488300214 L239.7463406133785,50.46476159156908" stroke="#0d6d4d" stroke-width="0.1" fill="none" />
<path d="M-126.50868128542184,209.8107565388952 L225.7582279097119,95.17469480416828" stroke="#0d6d4d" stroke-width="0.1" fill="none" />
<path d="M-128.41671794773495,208.6483801795065 L203.5159000954694,136.40483278949802" stroke="#0d6d4d" stroke-width="0.1" fill="none" />
<path d="M-130.31407538228052,207.46865246890025 L173.83258537517128,172.6477114293259" stroke="#0d6d4d" stroke-width="0.1" fill="none" />
<path d="M-132.2005958034325,206.27167151409196 L137.79357072668242,202.5782117267076" stroke="#0d6d4d" stroke-width="0.1" fill="none" />
<path d="M-134.07612232677917,205.0575368568894 L96.71652143306308,225.10200905786658" stroke="#0d6d4d" stroke-width="0.1" fill="none" />
<path d="M-135.94049898216917,203.82634946561464 L52.1033043547887,239.3955840764659" stroke="#0d6d4d" stroke-width="0.1" fill="none" />
<path d="M-137.79357072668236,202.57821172670762 L5.585076388989844,244.93633238400778" stroke="#0d6d4d" stroke-width="0.1" fill="none" />
<path d="M-139.63518345752334,201.31322743621146 L-41.13735419812901,241.52167209088643" stroke="#0d6d4d" stroke-width="0.1" fill="none" />
<path d="M-141.4651840248362,200.03150179114098 L-86.35571304542577,229.2764506538255" stroke="#0d6d4d" stroke-width="0.1" fill="none" />
<path d="M-143.2834202444416,198.73314138073383 L-128.41671794773495,208.6483801795065" stroke="#0d6d4d" stroke-width="0.1" fill="none" />
<path d="M-145.08974091049134,197.41825417758736 L-165.78252647315446,180.3916680896816" stroke="#0d6d4d" stroke-width="0.1" fill="none" />
<path d="M-146.88399580804392,196.08694952867856 L-197.08696284946456,145.5394416464959" stroke="#0d6d4d" stroke-width="0.1" fill="none" />
<path d="M-148.6660357255554,194.73933814627154 L-221.18546834160716,105.36597455774749" stroke="#0d6d4d" stroke-width="0.1" fill="none" />
<path d="M-150.4357124672887,193.37553209871007 L-237.19694882505195,61.34009674010704" stroke="#0d6d4d" stroke-width="0.1" fill="none" />
<path d="M-152.19287886563748,191.995644801098 L-244.5359895161484,15.071490681354748" stroke="#0d6d4d" stroke-width="0.1" fill="none" />
<path d="M-153.93738879336468,190.59979100586781 L-242.93425901838222,-31.74816207577347" stroke="#0d6d4d" stroke-width="0.1" fill="none" />
<path d="M-155.66909717575436,189.18808679323746 L-232.45032010574457,-77.40703251473266" stroke="#0d6d4d" stroke-width="0.1" fill="none" />
<path d="M-157.38786000267666,187.76064956155707 L-213.46748853949182,-120.23573236206418" stroke="#0d6d4d" stroke-width="0.1" fill="none" />
<path d="M-159.09353434056348,186.31759801754626 L-186.67981820464232,-158.66835057780645" stroke="#0d6d4d" stroke-width="0.1" fill="none" />
<path d="M-160.78597834429462,184.85905216642223 L-153.06672498030895,-191.29970649167882" stroke="#0d6d4d" stroke-width="0.1" fill="none" />
<path d="M-162.46505126899484,183.38513330191975 L-113.85717715072325,-216.93672628503646" stroke="#0d6d4d" stroke-width="0.1" fill="none" />
<path d="M-164.13061348173682,181.89596399620504 L-70.48476163393707,-234.6420643819157" stroke="#0d6d4d" stroke-width="0.1" fill="none" />
<path d="M-165.78252647315446,180.3916680896816 L-24.535268905254906,-243.76837485561336" stroke="#0d6d4d" stroke-width="0.1" fill="none" />
<path d="M-167.42065286896042,178.87237068069248 L22.311286974635532,-243.98197981313183" stroke="#0d6d4d" stroke-width="0.1" fill="none" />
<path d="M-169.0448564413709,177.33819811511648 L68.34209335211527,-235.27506938953556" stroke="#0d6d4d" stroke-width="0.1" fill="none" />
<path d="M-170.65500212043426,175.78927797586113 L111.8741631614597,-217.96598729371306" stroke="#0d6d4d" stroke-width="0.1" fill="none" />
<path d="M-172.2509560052634,174.22573907225305 L151.31586861686498,-192.68759146536567" stroke="#0d6d4d" stroke-width="0.1" fill="none" />
<path d="M-173.83258537517122,172.64771142932597 L185.22513460917008,-160.36411540308768" stroke="#0d6d4d" stroke-width="0.1" fill="none" />
<path d="M-175.39975870070768,171.05532627700757 L212.36216412927484,-122.17737616404655" stroke="#0d6d4d" stroke-width="0.1" fill="none" />
<path d="M-176.95234565459808,169.44871603920654 L231.73476796133113,-79.52356454478141" stroke="#0d6d4d" stroke-width="0.1" fill="none" />
<path d="M-178.49021712258053,167.8280143228003 L242.63464129287507,-33.9621972887184" stroke="#0d6d4d" stroke-width="0.1" fill="none" />
<path d="M-180.01324521414438,166.19335590652332 L244.66326088960597,12.840902260534994" stroke="#0d6d4d" stroke-width="0.1" fill="none" />
<path d="M-181.52130327316422,164.5448767297601 L237.74645597739962,59.17451030795595" stroke="#0d6d4d" stroke-width="0.1" fill="none" />
<path d="M-183.0142658884341,162.8827138812389 L222.13712008820772,103.34456869578186" stroke="#0d6d4d" stroke-width="0.1" fill="none" />
<path d="M-184.49200890409574,161.20700558763275 L198.40596471881864,143.73612337890185" stroke="#0d6d4d" stroke-width="0.1" fill="none" />
<path d="M-185.9544094299639,159.51789120206345 L167.42065286896036,178.87237068069254" stroke="#0d6d4d" stroke-width="0.1" fill="none" />
<path d="M-187.40134585174636,157.81551119251287 L130.3140753822805,207.46865246890027" stroke="#0d6d4d" stroke-width="0.1" fill="none" />
<path d="M-188.83269784115623,156.10000713014267 L88.44292997663506,228.47942606971864" stroke="#0d6d4d" stroke-width="0.1" fill="none" />
<path d="M-190.2483463659204,154.37152167751915 L43.338117405030424,241.1364915971612" stroke="#0d6d4d" stroke-width="0.1" fill="none" />
<path d="M-191.6481736996763,152.6301985767518 L-3.351231627817084,244.97707902286842" stroke="#0d6d4d" stroke-width="0.1" fill="none" />
<path d="M-193.03206343176416,150.87618263753689 L-49.91805229482179,239.86076806158073" stroke="#0d6d4d" stroke-width="0.1" fill="none" />
<path d="M-194.39990047690557,149.1096197251177 L-94.65975967422898,225.97462224421844" stroke="#0d6d4d" stroke-width="0.1" fill="none" />
<path d="M-195.75157108477654,147.33065674815165 L-135.94049898216917,203.82634946561464" stroke="#0d6d4d" stroke-width="0.1" fill="none" />
<path d="M-197.08696284946456,145.5394416464959 L-172.2509560052634,174.22573907225305" stroke="#0d6d4d" stroke-width="0.1" fill="none" />
<path d="M-198.40596471881864,143.73612337890182 L-202.26354093291215,138.25505419072448" stroke="#0d6d4d" stroke-width="0.1" fill="none" />
<path d="M-199.7084670036826,141.92085191063015 L-224.88092794753186,97.22946181820083" stroke="#0d6d4d" stroke-width="0.1" fill="none" />
<path d="M-200.99436138701822,140.09377820097768 L-239.2761758590434,52.6489474374573" stroke="#0d6d4d" stroke-width="0.1" fill="none" />
<path d="M-202.26354093291215,138.25505419072448 L-244.92296288537105,6.143472263400029" stroke="#0d6d4d" stroke-width="0.1" fill="none" />
<path d="M-203.51590009546936,136.4048327894981 L-241.61483012917813,-40.586621707754816" stroke="#0d6d4d" stroke-width="0.1" fill="none" />
<path d="M-204.75133472758998,134.5432678630574 L-229.47273016719595,-85.8327799247658" stroke="#0d6d4d" stroke-width="0.1" fill="none" />
<path d="M-205.96974208963042,132.67051422049713 L-208.94060475919235,-127.940703776644" stroke="#0d6d4d" stroke-width="0.1" fill="none" />
<path d="M-207.17102085794733,130.7867276013738 L-180.76915336522316,-165.3708353719616" stroke="#0d6d4d" stroke-width="0.1" fill="none" />
<path d="M-208.3550711333237,128.89206466275428 L-145.98838592971427,-196.75464714622828" stroke="#0d6d4d" stroke-width="0.1" fill="none" />
<path d="M-209.52179444927643,126.9866829661881 L-105.86996346268391,-220.94467822604366" stroke="#0d6d4d" stroke-width="0.1" fill="none" />
<path d="M-210.67109378024506,125.07074096460447 L-61.880703328911714,-237.0564881109969" stroke="#0d6d4d" stroke-width="0.1" fill="none" />
<path d="M-211.80287354966043,123.14439798913534 L-15.628949193482125,-244.50099375484663" stroke="#0d6d4d" stroke-width="0.1" fill="none" />
<path d="M-212.91703963789288,121.20781423586493 L31.19423354408439,-243.00600773149029" stroke="#0d6d4d" stroke-width="0.1" fill="none" />
<path d="M-214.01349939007903,119.26115075250884 L76.8768868034277,-232.62619000321732" stroke="#0d6d4d" stroke-width="0.1" fill="none" />
<path d="M-215.0921616238279,117.30456942501895 L119.74875275910438,-213.74104943280992" stroke="#0d6d4d" stroke-width="0.1" fill="none" />
<path d="M-216.15293663680234,115.3382329641239 L158.2423421237187,-187.04106810858403" stroke="#0d6d4d" stroke-width="0.1" fill="none" />
<path d="M-217.19573621418027,113.36230489179472 L190.95024498829142,-153.50245580742836" stroke="#0d6d4d" stroke-width="0.1" fill="none" />
<path d="M-218.22047363598915,111.37694952764939 L216.67658881005983,-114.35145762794743" stroke="#0d6d4d" stroke-width="0.1" fill="none" />
<path d="M-219.2270636843193,109.3823319752848 L234.4807621310068,-71.01951978479022" stroke="#0d6d4d" stroke-width="0.1" fill="none" />
<path d="M-220.21542265040893,107.37861810854973 L243.7118053922371,-25.090952800887347" stroke="#0d6d4d" stroke-width="0.1" fill="none" />
<path d="M-221.18546834160716,105.36597455774749 L244.03221144072813,21.75499435411902" stroke="#0d6d4d" stroke-width="0.1" fill="none" />
<path d="M-222.13712008820767,103.34456869578202 L235.4302655298173,67.805531282925" stroke="#0d6d4d" stroke-width="0.1" fill="none" />
<path d="M-223.0702987501586,101.31456862423582 L218.22047363598924,111.37694952764924" stroke="#0d6d4d" stroke-width="0.1" fill="none" />
<path d="M-223.98492672364273,99.27614315939353 L193.03206343176413,150.8761826375369" stroke="#0d6d4d" stroke-width="0.1" fill="none" />
<path d="M-224.88092794753186,97.22946181820083 L160.78597834429468,184.8590521664222" stroke="#0d6d4d" stroke-width="0.1" fill="none" />
<path d="M-225.75822790971188,95.17469480416831 L122.66120584726164,212.08306999875242" stroke="#0d6d4d" stroke-width="0.1" fill="none" />
<path d="M-226.61675365327912,93.11201299321698 L80.05167109743995,231.5528664355233" stroke="#0d6d4d" stroke-width="0.1" fill="none" />
<path d="M-227.4564337826076,91.04158791946811 L34.51527197896454,242.55658308983928" stroke="#0d6d4d" stroke-width="0.1" fill="none" />
<path d="M-228.27719846928642,88.96359176097835 L-12.283081054334831,244.69189998815378" stroke="#0d6d4d" stroke-width="0.1" fill="none" />
<path d="M-229.0789794579266,86.8781973254213 L-58.63233775045168,237.88074526938274" stroke="#0d6d4d" stroke-width="0.1" fill="none" />
<path d="M-229.86171007183734,84.78557803571663 L-102.83786780276367,222.37214966308463" stroke="#0d6d4d" stroke-width="0.1" fill="none" />
<path d="M-230.62532521857085,82.68590791560814 L-143.2834202444416,198.73314138073383" stroke="#0d6d4d" stroke-width="0.1" fill="none" />
<path d="M-231.3697613953355,80.57936157519188 L-178.49021712258053,167.8280143228003" stroke="#0d6d4d" stroke-width="0.1" fill="none" />
<path d="M-232.09495669427687,78.46611419639532 L-207.17102085794733,130.7867276013738" stroke="#0d6d4d" stroke-width="0.1" fill="none" />
<path d="M-232.80085080762584,76.34634151840899 L-228.27719846928642,88.96359176097835" stroke="#0d6d4d" stroke-width="0.1" fill="none" />
<path d="M-233.4873850327138,74.22021982307284 L-241.03706189109926,43.88775221979797" stroke="#0d6d4d" stroke-width="0.1" fill="none" />
<path d="M-234.154502276855,72.08792592021433 L-244.98408257893195,-2.792719634879978" stroke="#0d6d4d" stroke-width="0.1" fill="none" />
<path d="M-234.80214706209338,69.94963713294781 L-239.97394881442582,-49.37108354504018" stroke="#0d6d4d" stroke-width="0.1" fill="none" />
<path d="M-235.43026552981732,67.80553128292495 L-226.18984205771142,-94.14433254268451" stroke="#0d6d4d" stroke-width="0.1" fill="none" />
<path d="M-236.03880544523741,65.65578667555023 L-204.13573943215,-135.47545861331997" stroke="#0d6d4d" stroke-width="0.1" fill="none" />
<path d="M-236.62771620173146,63.500582085149645 L-174.61798721724412,-171.85330529320163" stroke="#0d6d4d" stroke-width="0.1" fill="none" />
<path d="M-237.19694882505195,61.34009674010704 L-138.7158190631621,-201.94781885832805" stroke="#0d6d4d" stroke-width="0.1" fill="none" />
<path d="M-237.74645597739962,59.174510307955956 L-97.74189684550282,-224.65867800074648" stroke="#0d6d4d" stroke-width="0.1" fill="none" />
<path d="M-238.27619196135944,57.00400288044153 L-53.19431687304778,-239.15552398472795" stroke="#0d6d4d" stroke-width="0.1" fill="none" />
<path d="M-238.7861127237013,54.82875495854164 L-6.701836206626093,-244.90832038021813" stroke="#0d6d4d" stroke-width="0.1" fill="none" />
<path d="M-239.2761758590434,52.6489474374573 L40.03567826519677,-241.7067323552359" stroke="#0d6d4d" stroke-width="0.1" fill="none" />
<path d="M-239.74634061337846,50.464761591569136 L85.30940068142769,-229.66781697785962" stroke="#0d6d4d" stroke-width="0.1" fill="none" />
<path d="M-240.19656788746326,48.276379059362455 L127.46402462360241,-209.231743353521" stroke="#0d6d4d" stroke-width="0.1" fill="none" />
<path d="M-240.62682024006983,46.08398182832204 L164.9582847427419,-181.1456990787595" stroke="#0d6d4d" stroke-width="0.1" fill="none" />
<path d="M-241.03706189109926,43.88775221979797 L196.42130879511544,-146.4365714267236" stroke="#0d6d4d" stroke-width="0.1" fill="none" />
<path d="M-241.42725872455713,41.6878728738436 L220.70273973299942,-106.37340210009229" stroke="#0d6d4d" stroke-width="0.1" fill="none" />
<path d="M-241.79737829139071,39.48452673402714 L236.91479527705192,-62.420988287855366" stroke="#0d6d4d" stroke-width="0.1" fill="none" />
<path d="M-242.14738981218724,37.27789703221787 L244.46472718024677,-16.186326472906675" stroke="#0d6d4d" stroke-width="0.1" fill="none" />
<path d="M-242.47726417973385,35.06816727334851 L243.07649340160864,30.64014287789327" stroke="#0d6d4d" stroke-width="0.1" fill="none" />
<path d="M-242.786973961438,32.85552122015453 L232.8008508076258,76.34634151840903" stroke="#0d6d4d" stroke-width="0.1" fill="none" />
<path d="M-243.07649340160862,30.64014287789344 L214.01349939007912,119.26115075250868" stroke="#0d6d4d" stroke-width="0.1" fill="none" />
<path d="M-243.34579842359838,28.422216479040397 L187.40134585174633,157.81551119251287" stroke="#0d6d4d" stroke-width="0.1" fill="none" />
<path d="M-243.5948666318054,26.20192646797051 L153.93738879336468,190.5997910058678" stroke="#0d6d4d" stroke-width="0.1" fill="none" />
<path d="M-243.82367731353634,23.979457485616884 L114.84514375440519,216.41532514133561" stroke="#0d6d4d" stroke-width="0.1" fill="none" />
<path d="M-244.03221144072813,21.754994354119187 L71.55390880605908,234.31824114774798" stroke="#0d6d4d" stroke-width="0.1" fill="none" />
<path d="M-244.22045167153104,19.52872206145025 L25.646506284303662,243.65396921743175" stroke="#0d6d4d" stroke-width="0.1" fill="none" />
<path d="M-244.38838235175032,17.3008257460358 L-21.19858866029469,244.08117469155957" stroke="#0d6d4d" stroke-width="0.1" fill="none" />
<path d="M-244.5359895161484,15.071490681354748 L-67.26861678911051,235.58423800262995" stroke="#0d6d4d" stroke-width="0.1" fill="none" />
<path d="M-244.66326088960597,12.840902260535163 L-110.87915700331406,218.47382576005398" stroke="#0d6d4d" stroke-width="0.1" fill="none" />
<path d="M-244.77018588814295,10.609245980933396 L-150.4357124672887,193.37553209871007" stroke="#0d6d4d" stroke-width="0.1" fill="none" />
<path d="M-244.8567556197986,8.376707428711235 L-184.49200890409574,161.20700558763275" stroke="#0d6d4d" stroke-width="0.1" fill="none" />
<path d="M-244.92296288537105,6.143472263400029 L-211.80287354966043,123.14439798913534" stroke="#0d6d4d" stroke-width="0.1" fill="none" />
<path d="M-244.9688021790158,3.9097262024621915 L-231.3697613953355,80.57936157519188" stroke="#0d6d4d" stroke-width="0.1" fill="none" />
<path d="M-244.99426968870392,1.6756550058465953 L-242.47726417973385,35.06816727334851" stroke="#0d6d4d" stroke-width="0.1" fill="none" />
<path d="M-244.9993632965387,-0.5585555394593706 L-244.71926728115312,-11.725196005847243" stroke="#0d6d4d" stroke-width="0.1" fill="none" />
<path d="M-244.98408257893195,-2.792719634879978 L-238.0137981573341,-58.089860446723634" stroke="#0d6d4d" stroke-width="0.1" fill="none" />
<path d="M-244.94842880663938,-5.026651485702304 L-222.60602344108477,-102.3306324017751" stroke="#0d6d4d" stroke-width="0.1" fill="none" />
<path d="M-244.89240494465463,-7.2601653165270585 L-199.05928511139197,-142.8299723830456" stroke="#0d6d4d" stroke-width="0.1" fill="none" />
<path d="M-244.8160156519628,-9.493075386717795 L-168.23450347723093,-178.1071358474151" stroke="#0d6d4d" stroke-width="0.1" fill="none" />
<path d="M-244.71926728115312,-11.725196005847243 L-131.258700046082,-206.87231245918986" stroke="#0d6d4d" stroke-width="0.1" fill="none" />
<path d="M-244.60216787789057,-13.956341549139458 L-89.48379115000077,-228.07378438001822" stroke="#0d6d4d" stroke-width="0.1" fill="none" />
<path d="M-244.46472718024677,-16.186326472906728 L-44.43715892449409,-240.93637937579965" stroke="#0d6d4d" stroke-width="0.1" fill="none" />
<path d="M-244.30695661789022,-18.414965329978436 L2.2341931265612436,-244.9898128108049" stroke="#0d6d4d" stroke-width="0.1" fill="none" />
<path d="M-244.12886931113573,-20.64207278512537 L48.82385818513806,-240.08588228364766" stroke="#0d6d4d" stroke-width="0.1" fill="none" />
<path d="M-243.93048006985345,-22.867463630469086 L93.6284160885083,-226.4038862315688" stroke="#0d6d4d" stroke-width="0.1" fill="none" />
<path d="M-243.7118053922371,-25.090952800887397 L135.00971410003473,-204.44406838699643" stroke="#0d6d4d" stroke-width="0.1" fill="none" />
<path d="M-243.4728634634321,-27.31235538940105 L171.45476135996182,-175.0093277714035" stroke="#0d6d4d" stroke-width="0.1" fill="none" />
<path d="M-243.2136741540232,-29.531486662554187 L201.6310471439458,-139.17586294913318" stroke="#0d6d4d" stroke-width="0.1" fill="none" />
<path d="M-242.93425901838222,-31.74816207577347 L224.4352603726721,-98.25382385154731" stroke="#0d6d4d" stroke-width="0.1" fill="none" />
<path d="M-242.63464129287507,-33.96219728871839 L239.0336290806173,-53.73940982695922" stroke="#0d6d4d" stroke-width="0.1" fill="none" />
<path d="M-242.31484589393023,-36.173408180607694 L244.89240494465463,-7.260165316527118" stroke="#0d6d4d" stroke-width="0.1" fill="none" />
<path d="M-241.97489941596564,-38.38161086553442 L241.79737829139071,39.484526734027085" stroke="#0d6d4d" stroke-width="0.1" fill="none" />
<path d="M-241.61483012917813,-40.586621707754816 L229.86171007183736,84.78557803571657" stroke="#0d6d4d" stroke-width="0.1" fill="none" />
<path d="M-241.23466797719172,-42.788257336961934 L209.52179444927646,126.98668296618801" stroke="#0d6d4d" stroke-width="0.1" fill="none" />
<path d="M-240.83444457456773,-44.986334663533775 L181.52130327316425,164.54487672976003" stroke="#0d6d4d" stroke-width="0.1" fill="none" />
<path d="M-240.4141932041758,-47.18067089375941 L146.8839958080439,196.0869495286786" stroke="#0d6d4d" stroke-width="0.1" fill="none" />
<path d="M-239.97394881442582,-49.37108354504018 L106.87628785331032,220.45965411996897" stroke="#0d6d4d" stroke-width="0.1" fill="none" />
<path d="M-239.51374801636183,-51.557390461065104 L62.96094880876385,236.77187105967678" stroke="#0d6d4d" stroke-width="0.1" fill="none" />
<path d="M-239.0336290806173,-53.739409826959154 L16.743619622616368,244.42718998084712" stroke="#0d6d4d" stroke-width="0.1" fill="none" />
<path d="M-238.53363193423246,-55.91696018440309 L-30.08589295713065,243.14571566238232" stroke="#0d6d4d" stroke-width="0.1" fill="none" />
<path d="M-238.0137981573341,-58.089860446723634 L-75.81539941722792,232.97430161115668" stroke="#0d6d4d" stroke-width="0.1" fill="none" />
<path d="M-237.47417097967752,-60.25792991395308 L-118.77292887662752,214.28483699521902" stroke="#0d6d4d" stroke-width="0.1" fill="none" />
<path d="M-236.91479527705195,-62.42098828785525 L-157.38786000267666,187.76064956155707" stroke="#0d6d4d" stroke-width="0.1" fill="none" />
<path d="M-236.33571756754785,-64.57885568692166 L-190.2483463659204,154.37152167751915" stroke="#0d6d4d" stroke-width="0.1" fill="none" />
<path d="M-235.7369860076894,-66.73135266132736 L-216.15293663680234,115.3382329641239" stroke="#0d6d4d" stroke-width="0.1" fill="none" />
<path d="M-235.1186503884289,-68.8783002078575 L-234.154502276855,72.08792592021433" stroke="#0d6d4d" stroke-width="0.1" fill="none" />
<path d="M-234.48076213100683,-71.01951978479008 L-243.5948666318054,26.20192646797051" stroke="#0d6d4d" stroke-width="0.1" fill="none" />
<path d="M-233.82337428267496,-73.15483332674677 L-244.12886931113573,-20.64207278512537" stroke="#0d6d4d" stroke-width="0.1" fill="none" />
<path d="M-233.1465415122856,-75.28406325949788 L-235.7369860076894,-66.73135266132736" stroke="#0d6d4d" stroke-width="0.1" fill="none" />
<path d="M-232.45032010574457,-77.40703251473266 L-218.72604234908954,-110.38078817577039" stroke="#0d6d4d" stroke-width="0.1" fill="none" />
<path d="M-231.7347679613312,-79.52356454478125 L-193.7179956809979,-149.99446039549886" stroke="#0d6d4d" stroke-width="0.1" fill="none" />
<path d="M-230.99994458488254,-81.63348333729977 L-161.62719494477932,-184.12400672992726" stroke="#0d6d4d" stroke-width="0.1" fill="none" />
<path d="M-230.24591108484583,-83.73661342990448 L-123.62695007823797,-211.5215762383423" stroke="#0d6d4d" stroke-width="0.1" fill="none" />
<path d="M-229.47273016719595,-85.8327799247658 L-81.10663323532391,-231.1854537924708" stroke="#0d6d4d" stroke-width="0.1" fill="none" />
<path d="M-228.6804661302209,-87.92180850315175 L-35.62088029815289,-242.3966849748252" stroke="#0d6d4d" stroke-width="0.1" fill="none" />
<path d="M-227.86918485917494,-90.00352543992466 L11.167250014723995,-244.7453626263604" stroke="#0d6d4d" stroke-width="0.1" fill="none" />
<path d="M-227.0389538207992,-92.07775761798833 L57.547081216341,-238.14561394970065" stroke="#0d6d4d" stroke-width="0.1" fill="none" />
<path d="M-226.18984205771142,-94.14433254268451 L101.82286512921232,-222.8387402066307" stroke="#0d6d4d" stroke-width="0.1" fill="none" />
<path d="M-225.32192018266403,-96.20307835613778 L142.37578215154528,-199.38439421563493" stroke="#0d6d4d" stroke-width="0.1" fill="none" />
<path d="M-224.4352603726721,-98.25382385154727 L177.7231288462915,-168.64011821949268" stroke="#0d6d4d" stroke-width="0.1" fill="none" />
<path d="M-223.52993636301107,-100.29639848742436 L206.57252882518836,-131.72999026329094" stroke="#0d6d4d" stroke-width="0.1" fill="none" />
<path d="M-222.60602344108477,-102.3306324017751 L227.86918485917494,-90.00352543992466" stroke="#0d6d4d" stroke-width="0.1" fill="none" />
<path d="M-221.66359844016446,-104.356356426226 L240.83444457456773,-44.98633466353384" stroke="#0d6d4d" stroke-width="0.1" fill="none" />
<path d="M-220.70273973299936,-106.37340210009239 L244.99426968870392,1.6756550058465352" stroke="#0d6d4d" stroke-width="0.1" fill="none" />
<path d="M-219.72352722529948,-108.38160168438681 L240.1965678874633,48.27637905936239" stroke="#0d6d4d" stroke-width="0.1" fill="none" />
<path d="M-218.72604234908954,-110.38078817577039 L226.61675365327915,93.11201299321692" stroke="#0d6d4d" stroke-width="0.1" fill="none" />
<path d="M-217.71036805593855,-112.37079532043805 L204.75133472759,134.5432678630573" stroke="#0d6d4d" stroke-width="0.1" fill="none" />
<path d="M-216.6765888100598,-114.35145762794747 L175.39975870070776,171.0553262770075" stroke="#0d6d4d" stroke-width="0.1" fill="none" />
<path d="M-215.6247905812886,-116.32261038497822 L139.63518345752328,201.3132274362115" stroke="#0d6d4d" stroke-width="0.1" fill="none" />
<path d="M-214.555060837931,-118.28408966903253 L98.7652401755532,224.21067622453953" stroke="#0d6d4d" stroke-width="0.1" fill="none" />
<path d="M-213.46748853949182,-120.23573236206418 L54.28422346602788,238.91049178026978" stroke="#0d6d4d" stroke-width="0.1" fill="none" />
<path d="M-212.36216412927484,-122.17737616404658 L7.818456691143522,244.8752166614023" stroke="#0d6d4d" stroke-width="0.1" fill="none" />
<path d="M-211.23917952686324,-124.10885960646661 L-38.93316997889947,241.88676746650307" stroke="#0d6d4d" stroke-width="0.1" fill="none" />
<path d="M-210.09862812047385,-126.03002206575557 L-84.26131471024198,230.0544084413545" stroke="#0d6d4d" stroke-width="0.1" fill="none" />
<path d="M-208.94060475919235,-127.940703776644 L-126.50868128542184,209.8107565388952" stroke="#0d6d4d" stroke-width="0.1" fill="none" />
<path d="M-207.7652057450846,-129.84074584544976 L-164.13061348173682,181.89596399620504" stroke="#0d6d4d" stroke-width="0.1" fill="none" />
<path d="M-206.57252882518836,-131.72999026329092 L-195.75157108477654,147.33065674815165" stroke="#0d6d4d" stroke-width="0.1" fill="none" />
<path d="M-205.3626731833848,-133.60827991922613 L-220.21542265040893,107.37861810854973" stroke="#0d6d4d" stroke-width="0.1" fill="none" />
<path d="M-204.13573943215,-135.47545861331997 L-236.62771620173146,63.500582085149645" stroke="#0d6d4d" stroke-width="0.1" fill="none" />
<path d="M-202.891829604188,-137.3313710696327 L-244.38838235175032,17.3008257460358" stroke="#0d6d4d" stroke-width="0.1" fill="none" />
<path d="M-201.63104714394586,-139.17586294913312 L-243.2136741540232,-29.531486662554187" stroke="#0d6d4d" stroke-width="0.1" fill="none" />
<path d="M-200.353496899011,-141.00878086253348 L-233.1465415122856,-75.28406325949788" stroke="#0d6d4d" stroke-width="0.1" fill="none" />
<path d="M-199.05928511139197,-142.8299723830456 L-214.555060837931,-118.28408966903253" stroke="#0d6d4d" stroke-width="0.1" fill="none" />
<path d="M-197.7485194086834,-144.63928605905647 L-188.1189773705069,-156.95939077696087" stroke="#0d6d4d" stroke-width="0.1" fill="none" />
<path d="M-196.4213087951155,-146.43657142672348 L-154.8048522034518,-189.8959128951106" stroke="#0d6d4d" stroke-width="0.1" fill="none" />
<path d="M-195.07776364248915,-148.2216790224869 L-115.83072269423312,-215.88942466024517" stroke="#0d6d4d" stroke-width="0.1" fill="none" />
<path d="M-193.7179956809979,-149.99446039549886 L-72.62156835166004,-233.98954636937344" stroke="#0d6d4d" stroke-width="0.1" fill="none" />
<path d="M-192.342117989935,-151.7547681199702 L-26.757210465047248,-243.5344979425485" stroke="#0d6d4d" stroke-width="0.1" fill="none" />
<path d="M-190.95024498829153,-153.5024558074282 L20.085449621146143,-244.17529505156003" stroke="#0d6d4d" stroke-width="0.1" fill="none" />
<path d="M-189.5424924252393,-155.23737811889285 L66.19374169204879,-235.8885087510757" stroke="#0d6d4d" stroke-width="0.1" fill="none" />
<path d="M-188.1189773705069,-156.95939077696087 L109.88184563532941,-218.97712209218028" stroke="#0d6d4d" stroke-width="0.1" fill="none" />
<path d="M-186.67981820464232,-158.66835057780645 L149.55242871561035,-194.05945239864582" stroke="#0d6d4d" stroke-width="0.1" fill="none" />
<path d="M-185.22513460917023,-160.3641154030875 L183.755047556637,-162.0465442317672" stroke="#0d6d4d" stroke-width="0.1" fill="none" />
<path d="M-183.755047556637,-162.04654423176717 L211.23917952686315,-124.1088596064668" stroke="#0d6d4d" stroke-width="0.1" fill="none" />
<path d="M-182.26967930055298,-163.71549715183832 L230.99994458488254,-81.63348333729977" stroke="#0d6d4d" stroke-width="0.1" fill="none" />
<path d="M-180.76915336522316,-165.3708353719616 L242.31484589393017,-36.173408180607915" stroke="#0d6d4d" stroke-width="0.1" fill="none" />
<path d="M-179.2535945354775,-167.0124212330048 L244.77018588814295,10.609245980933391" stroke="#0d6d4d" stroke-width="0.1" fill="none" />
<path d="M-177.72312884629153,-168.64011821949265 L238.27619196135944,57.004002880441526" stroke="#0d6d4d" stroke-width="0.1" fill="none" />
<path d="M-176.17788357230637,-170.2537909709586 L223.0702987501586,101.31456862423582" stroke="#0d6d4d" stroke-width="0.1" fill="none" />
<path d="M-174.61798721724412,-171.85330529320163 L199.70846700368267,141.92085191063006" stroke="#0d6d4d" stroke-width="0.1" fill="none" />
<path d="M-173.04356950322145,-173.43852816944616 L169.04485644137097,177.33819811511643" stroke="#0d6d4d" stroke-width="0.1" fill="none" />
<path d="M-171.45476135996188,-175.00932777140343 L132.20059580343255,206.27167151409193" stroke="#0d6d4d" stroke-width="0.1" fill="none" />
<path d="M-169.85169491390738,-176.5655734702349 L90.52279192939008,227.66340097017866" stroke="#0d6d4d" stroke-width="0.1" fill="none" />
<path d="M-168.23450347723093,-178.1071358474151 L45.53527658253288,240.7312580172177" stroke="#0d6d4d" stroke-width="0.1" fill="none" />
<path d="M-166.6033215367498,-179.63388670549426 L-1.1171081757822137,244.99745318946398" stroke="#0d6d4d" stroke-width="0.1" fill="none" />
<path d="M-164.958284742742,-181.1456990787594 L-47.7286490132794,240.30600505057544" stroke="#0d6d4d" stroke-width="0.1" fill="none" />
<path d="M-163.299529897665,-182.64244724379276 L-92.59512594085646,226.82844321644703" stroke="#0d6d4d" stroke-width="0.1" fill="none" />
<path d="M-161.62719494477932,-184.12400672992726 L-134.07612232677917,205.0575368568894" stroke="#0d6d4d" stroke-width="0.1" fill="none" />
<path d="M-159.9414189566779,-185.59025432959686 L-170.65500212043426,175.78927797586113" stroke="#0d6d4d" stroke-width="0.1" fill="none" />
<path d="M-158.24234212371863,-187.04106810858406 L-200.99436138701822,140.09377820097768" stroke="#0d6d4d" stroke-width="0.1" fill="none" />
<path d="M-156.53010574236876,-188.47632741615817 L-223.98492672364273,99.27614315939353" stroke="#0d6d4d" stroke-width="0.1" fill="none" />
<path d="M-154.8048522034518,-189.8959128951106 L-238.7861127237013,54.82875495854164" stroke="#0d6d4d" stroke-width="0.1" fill="none" />
<path d="M-153.06672498030895,-191.29970649167882 L-244.8567556197986,8.376707428711235" stroke="#0d6d4d" stroke-width="0.1" fill="none" />
<path d="M-151.31586861686495,-192.6875914653657 L-241.97489941596564,-38.38161086553442" stroke="#0d6d4d" stroke-width="0.1" fill="none" />
<path d="M-149.5524287156105,-194.0594523986457 L-230.24591108484583,-83.73661342990448" stroke="#0d6d4d" stroke-width="0.1" fill="none" />
<path d="M-147.77655192549116,-195.41517520656532 L-210.09862812047385,-126.03002206575557" stroke="#0d6d4d" stroke-width="0.1" fill="none" />
<path d="M-145.98838592971427,-196.75464714622828 L-182.26967930055298,-163.71549715183832" stroke="#0d6d4d" stroke-width="0.1" fill="none" />
<path d="M-144.18807943346596,-198.07775682617296 L-147.77655192549116,-195.41517520656532" stroke="#0d6d4d" stroke-width="0.1" fill="none" />
<path d="M-142.37578215154528,-199.38439421563493 L-107.88039025490876,-219.9700465937319" stroke="#0d6d4d" stroke-width="0.1" fill="none" />
<path d="M-140.55164479591375,-200.67445065369753 L-64.03988531222619,-236.48233145247218" stroke="#0d6d4d" stroke-width="0.1" fill="none" />
<path d="M-138.7158190631621,-201.94781885832805 L-17.857941947041777,-244.34830449466205" stroke="#0d6d4d" stroke-width="0.1" fill="none" />
<path d="M-136.8684576218949,-203.2043929352994 L28.97692687573462,-243.28036852331164" stroke="#0d6d4d" stroke-width="0.1" fill="none" />
<path d="M-135.00971410003476,-204.44406838699643 L74.7523358068811,-233.317569615782" stroke="#0d6d4d" stroke-width="0.1" fill="none" />
<path d="M-133.1397430720464,-205.6667421211059 L117.79463567050438,-214.82416951370516" stroke="#0d6d4d" stroke-width="0.1" fill="none" />
<path d="M-131.258700046082,-206.87231245918986 L156.53010574236862,-188.47632741615828" stroke="#0d6d4d" stroke-width="0.1" fill="none" />
<path d="M-129.36674145104925,-208.06067914514117 L189.5424924252393,-155.23737811889285" stroke="#0d6d4d" stroke-width="0.1" fill="none" />
<path d="M-127.4640246236025,-209.23174335352095 L215.62479058128852,-116.32261038497836" stroke="#0d6d4d" stroke-width="0.1" fill="none" />
<path d="M-125.55070779505834,-210.38540769777705 L233.823374282675,-73.15483332674673" stroke="#0d6d4d" stroke-width="0.1" fill="none" />
<path d="M-123.62695007823797,-211.5215762383423 L243.4728634634321,-27.312355389401215" stroke="#0d6d4d" stroke-width="0.1" fill="none" />
<path d="M-121.69291145423303,-212.64015449061404 L244.22045167153104,19.528722061450303" stroke="#0d6d4d" stroke-width="0.1" fill="none" />
<path d="M-119.7487527591045,-213.74104943280986 L236.03880544523744,65.65578667555006" stroke="#0d6d4d" stroke-width="0.1" fill="none" />
<path d="M-117.7946356705043,-214.82416951370521 L219.22706368431926,109.38233197528486" stroke="#0d6d4d" stroke-width="0.1" fill="none" />
<path d="M-115.83072269423312,-215.88942466024517 L194.39990047690569,149.10961972511757" stroke="#0d6d4d" stroke-width="0.1" fill="none" />
<path d="M-113.85717715072325,-216.93672628503646 L162.4650512689948,183.38513330191978" stroke="#0d6d4d" stroke-width="0.1" fill="none" />
<path d="M-111.87416316145986,-217.965987293713 L124.590124069059,210.9556848830021" stroke="#0d6d4d" stroke-width="0.1" fill="none" />
<path d="M-109.8818456353294,-218.9771220921803 L82.15990914277442,230.8132347367695" stroke="#0d6d4d" stroke-width="0.1" fill="none" />
<path d="M-107.88039025490876,-219.9700465937319 L36.725748048906404,242.23174736241376" stroke="#0d6d4d" stroke-width="0.1" fill="none" />
<path d="M-105.86996346268391,-220.94467822604366 L-10.051186804745793,244.7937369374799" stroke="#0d6d4d" stroke-width="0.1" fill="none" />
<path d="M-103.85073244721134,-221.90093593803908 L-56.46062826171797,238.4055315136209" stroke="#0d6d4d" stroke-width="0.1" fill="none" />
<path d="M-101.82286512921232,-222.8387402066307 L-100.8057455287571,223.30069786812462" stroke="#0d6d4d" stroke-width="0.1" fill="none" />
<path d="M-99.78653014760955,-223.75801304333262 L-141.4651840248362,200.03150179114098" stroke="#0d6d4d" stroke-width="0.1" fill="none" />
<path d="M-97.74189684550282,-224.65867800074648 L-176.95234565459808,169.44871603920654" stroke="#0d6d4d" stroke-width="0.1" fill="none" />
<path d="M-95.68913525608629,-225.54066017891856 L-205.96974208963042,132.67051422049713" stroke="#0d6d4d" stroke-width="0.1" fill="none" />
<path d="M-93.62841608850836,-226.4038862315688 L-227.4564337826076,91.04158791946811" stroke="#0d6d4d" stroke-width="0.1" fill="none" />
<path d="M-91.55991071367549,-227.24828437219008 L-240.62682024006983,46.08398182832204" stroke="#0d6d4d" stroke-width="0.1" fill="none" />
<path d="M-89.48379115000077,-228.07378438001822 L-244.9993632965387,-0.5585555394593706" stroke="#0d6d4d" stroke-width="0.1" fill="none" />
<path d="M-87.40023004909878,-228.88031760587148 L-240.4141932041758,-47.18067089375941" stroke="#0d6d4d" stroke-width="0.1" fill="none" />
<path d="M-85.30940068142779,-229.6678169778596 L-227.0389538207992,-92.07775761798833" stroke="#0d6d4d" stroke-width="0.1" fill="none" />
<path d="M-83.21147692188038,-230.4362170069613 L-205.3626731833848,-133.60827991922613" stroke="#0d6d4d" stroke-width="0.1" fill="none" />
<path d="M-81.10663323532391,-231.1854537924708 L-176.17788357230637,-170.2537909709586" stroke="#0d6d4d" stroke-width="0.1" fill="none" />
<path d="M-78.99504466209177,-231.91546502731146 L-140.55164479591375,-200.67445065369753" stroke="#0d6d4d" stroke-width="0.1" fill="none" />
<path d="M-76.87688680342761,-232.62619000321735 L-99.78653014760955,-223.75801304333262" stroke="#0d6d4d" stroke-width="0.1" fill="none" />
<path d="M-74.75233580688123,-233.31756961578196 L-55.373001474254885,-238.66049255738196" stroke="#0d6d4d" stroke-width="0.1" fill="none" />
<path d="M-72.62156835166004,-233.98954636937344 L-8.934914627678346,-244.83702191579627" stroke="#0d6d4d" stroke-width="0.1" fill="none" />
<path d="M-70.48476163393707,-234.6420643819157 L37.82985226070417,-242.06177368170566" stroke="#0d6d4d" stroke-width="0.1" fill="none" />
<path d="M-68.34209335211523,-235.27506938953556 L83.21147692188026,-230.43621700696136" stroke="#0d6d4d" stroke-width="0.1" fill="none" />
<path d="M-66.19374169204897,-235.88850875107565 L125.55070779505846,-210.38540769777703" stroke="#0d6d4d" stroke-width="0.1" fill="none" />
<path d="M-64.03988531222619,-236.48233145247218 L163.2995298976649,-182.64244724379282" stroke="#0d6d4d" stroke-width="0.1" fill="none" />
<path d="M-61.880703328911714,-237.0564881109969 L195.0777636424892,-148.22167902248685" stroke="#0d6d4d" stroke-width="0.1" fill="none" />
<path d="M-59.71637530125183,-237.6109309793639 L219.72352722529945,-108.38160168438691" stroke="#0d6d4d" stroke-width="0.1" fill="none" />
<path d="M-57.547081216341226,-238.1456139497006 L236.3357175675479,-64.57885568692156" stroke="#0d6d4d" stroke-width="0.1" fill="none" />
<path d="M-55.373001474254885,-238.66049255738196 L244.30695661789022,-18.4149653299786" stroke="#0d6d4d" stroke-width="0.1" fill="none" />
<path d="M-53.19431687304778,-239.15552398472795 L243.34579842359835,28.422216479040443" stroke="#0d6d4d" stroke-width="0.1" fill="none" />
<path d="M-51.0112085937175,-239.63066706456468 L233.48738503271386,74.22021982307268" stroke="#0d6d4d" stroke-width="0.1" fill="none" />
<path d="M-48.823858185138334,-240.08588228364763 L215.09216162382788,117.30456942501901" stroke="#0d6d4d" stroke-width="0.1" fill="none" />
<path d="M-46.632447548962055,-240.52113178594786 L188.83269784115635,156.10000713014253" stroke="#0d6d4d" stroke-width="0.1" fill="none" />
<path d="M-44.43715892449409,-240.93637937579965 L155.66909717575442,189.1880867932374" stroke="#0d6d4d" stroke-width="0.1" fill="none" />
<path d="M-42.23817487353402,-241.33159052091122 L116.81389347973467,215.3590357753888" stroke="#0d6d4d" stroke-width="0.1" fill="none" />
<path d="M-40.03567826519708,-241.70673235523586 L73.6877180737879,233.65598688045196" stroke="#0d6d4d" stroke-width="0.1" fill="none" />
<path d="M-37.82985226070406,-242.0617736817057 L27.867358355622997,243.4099635148062" stroke="#0d6d4d" stroke-width="0.1" fill="none" />
<path d="M-35.62088029815289,-242.3966849748252 L-18.971892999673365,244.26433893634362" stroke="#0d6d4d" stroke-width="0.1" fill="none" />
<path d="M-33.408946077259515,-242.71143838312764 L-65.11749040789513,236.18787530899567" stroke="#0d6d4d" stroke-width="0.1" fill="none" />
<path d="M-31.19423354408431,-243.0060077314903 L-108.88224979189842,219.4758658264153" stroke="#0d6d4d" stroke-width="0.1" fill="none" />
<path d="M-28.97692687573455,-243.28036852331167 L-148.6660357255554,194.73933814627154" stroke="#0d6d4d" stroke-width="0.1" fill="none" />
<path d="M-26.757210465047248,-243.5344979425485 L-183.0142658884341,162.8827138812389" stroke="#0d6d4d" stroke-width="0.1" fill="none" />
<path d="M-24.535268905254906,-243.76837485561336 L-210.67109378024506,125.07074096460447" stroke="#0d6d4d" stroke-width="0.1" fill="none" />
<path d="M-22.31128697463549,-243.98197981313183 L-230.62532521857085,82.68590791560814" stroke="#0d6d4d" stroke-width="0.1" fill="none" />
<path d="M-20.085449621146115,-244.17529505156006 L-242.14738981218724,37.27789703221787" stroke="#0d6d4d" stroke-width="0.1" fill="none" />
<path d="M-17.857941947041777,-244.34830449466205 L-244.8160156519628,-9.493075386717795" stroke="#0d6d4d" stroke-width="0.1" fill="none" />
<path d="M-15.628949193482125,-244.50099375484663 L-238.53363193423246,-55.91696018440309" stroke="#0d6d4d" stroke-width="0.1" fill="none" />
<path d="M-13.398656725127523,-244.63335013436372 L-223.52993636301107,-100.29639848742436" stroke="#0d6d4d" stroke-width="0.1" fill="none" />
<path d="M-11.167250014724004,-244.7453626263604 L-200.353496899011,-141.00878086253348" stroke="#0d6d4d" stroke-width="0.1" fill="none" />
<path d="M-8.934914627678346,-244.83702191579627 L-169.85169491390738,-176.5655734702349" stroke="#0d6d4d" stroke-width="0.1" fill="none" />
<path d="M-6.701836206626093,-244.90832038021813 L-133.1397430720464,-205.6667421211059" stroke="#0d6d4d" stroke-width="0.1" fill="none" />
<path d="M-4.468200455995355,-244.95925209039368 L-91.55991071367549,-227.24828437219008" stroke="#0d6d4d" stroke-width="0.1" fill="none" />
<path d="M-2.2341931265612933,-244.9898128108049 L-46.632447548962055,-240.52113178594786" stroke="#0d6d4d" stroke-width="0.1" fill="none" />
</svg>