<?xml version="1.0" encoding="UTF-8"?>
<svg xmlns="http://www.w3.org/2000/svg" xmlns:xlink="http://www.w3.org/1999/xlink"
     width="500.0" height="500" viewBox="-250.0 -250.0 500 500">
<defs>
</defs>
<circle cx="0" cy="0" r="245.0" fill="white" stroke-width="2" stroke="black" />
<path d="M0.0,-245.0 L0.0,-245.0" stroke="#0d6d4d" stroke-width="0.1" fill="none" />
<path d="M2.511180172534155,-244.98713022144872 L52.32942765745122,-239.34625754551413" stroke="#0d6d4d" stroke-width="0.1" fill="none" />
<path d="M5.022096521944041,-244.9485222378863 L102.24369525967077,-222.64596735545777" stroke="#0d6d4d" stroke-width="0.1" fill="none" />
<path d="M7.532485252822494,-244.88418010544495 L147.43910963255877,-195.66989791676778" stroke="#0d6d4d" stroke-width="0.1" fill="none" />
<path d="M10.042082625193645,-244.79411058387166 L185.8297668333554,-159.66307575222513" stroke="#0d6d4d" stroke-width="0.1" fill="none" />
<path d="M12.550624982221285,-244.67832313581775 L215.64382287453608,-116.28732371181185" stroke="#0d6d4d" stroke-width="0.1" fill="none" />
<path d="M15.057848777908504,-244.53682992584498 L235.50526963870942,-67.54456286333323" stroke="#0d6d4d" stroke-width="0.1" fill="none" />
<path d="M17.563490604785684,-244.3696458191475 L244.497441780748,-15.684417830118887" stroke="#0d6d4d" stroke-width="0.1" fill="none" />
<path d="M20.06728722158391,-244.17678837999006 L242.2053235831212,36.89961013338141" stroke="#0d6d4d" stroke-width="0.1" fill="none" />
<path d="M22.56897558089098,-243.9582778698627 L228.73470317615258,87.78061040410564" stroke="#0d6d4d" stroke-width="0.1" fill="none" />
<path d="M25.06829285678699,-243.7141372453522 L204.70729009847992,134.61027219546352" stroke="#0d6d4d" stroke-width="0.1" fill="none" />
<path d="M27.564976472456667,-243.44439215573013 L171.23202153694996,175.22726614419773" stroke="#0d6d4d" stroke-width="0.1" fill="none" />
<path d="M30.05876412777555,-243.1490709402583 L129.8538815490453,207.7569961436835" stroke="#0d6d4d" stroke-width="0.1" fill="none" />
<path d="M32.549393826867096,-242.82820462521133 L82.48259541425394,230.69811757734064" stroke="#0d6d4d" stroke-width="0.1" fill="none" />
<path d="M35.03660390562777,-242.48182692061718 L31.304490083954434,242.9918288761653" stroke="#0d6d4d" stroke-width="0.1" fill="none" />
<path d="M37.52013305921739,-242.10997421671547 L-21.318411365558823,244.0707383871504" stroke="#0d6d4d" stroke-width="0.1" fill="none" />
<path d="M39.99972036951162,-241.71268558013435 L-72.95740418323808,233.88505120003637" stroke="#0d6d4d" stroke-width="0.1" fill="none" />
<path d="M42.475105332513856,-241.29000274978623 L-121.22919395275522,212.90486733178568" stroke="#0d6d4d" stroke-width="0.1" fill="none" />
<path d="M44.94602788572366,-240.84197013248283 L-163.905892778813,182.09848520067445" stroke="#0d6d4d" stroke-width="0.1" fill="none" />
<path d="M47.41222843545878,-240.36863479826954 L-199.01784299634824,142.88771174975432" stroke="#0d6d4d" stroke-width="0.1" fill="none" />
<path d="M49.87344788412789,-239.8700464754805 L-224.94452278001714,97.08224179153648" stroke="#0d6d4d" stroke-width="0.1" fill="none" />
<path d="M52.32942765745122,-239.34625754551413 L-240.48933808739648,46.79613516398456" stroke="#0d6d4d" stroke-width="0.1" fill="none" />
<path d="M54.77990973162624,-238.79732303732987 L-244.93484906338065,-5.649753472404122" stroke="#0d6d4d" stroke-width="0.1" fill="none" />
<path d="M57.22463666043551,-238.22330062166702 L-238.07588204154666,-57.834889038880064" stroke="#0d6d4d" stroke-width="0.1" fill="none" />
<path d="M59.66335160229378,-237.62425060498575 L-220.2289989243048,-107.35077099303278" stroke="#0d6d4d" stroke-width="0.1" fill="none" />
<path d="M62.09579834723166,-237.0002359231314 L-192.2178869015342,-151.91209285342956" stroke="#0d6d4d" stroke-width="0.1" fill="none" />
<path d="M64.52172134381284,-236.3513221347225 L-155.3353428160145,-189.46221594880404" stroke="#0d6d4d" stroke-width="0.1" fill="none" />
<path d="M66.94086572598225,-235.67757741426317 L-111.28360671122135,-218.26808946188677" stroke="#0d6d4d" stroke-width="0.1" fill="none" />
<path d="M69.35297733984207,-234.97907254498082 L-62.095798347231586,-237.0002359231314" stroke="#0d6d4d" stroke-width="0.1" fill="none" />
<path d="M71.75780277035302,-234.25588091138954 L-10.042082625193773,-244.79411058387166" stroke="#0d6d4d" stroke-width="0.1" fill="none" />
<path d="M74.15508936795801,-233.5080784915806 L42.475105332513856,-241.29000274978623" stroke="#0d6d4d" stroke-width="0.1" fill="none" />
<path d="M76.54458527512531,-232.73574384924004 L93.03193976959119,-226.64963750843978" stroke="#0d6d4d" stroke-width="0.1" fill="none" />
<path d="M78.92603945280862,-231.93895812539492 L139.29507112504805,-201.54871163137662" stroke="#0d6d4d" stroke-width="0.1" fill="none" />
<path d="M81.29920170682101,-231.11780502988867 L179.1293171146248,-167.1457081412747" stroke="#0d6d4d" stroke-width="0.1" fill="none" />
<path d="M83.66382271412023,-230.27237083258657 L210.69620779796472,-125.02842884543047" stroke="#0d6d4d" stroke-width="0.1" fill="none" />
<path d="M86.01965404900241,-229.40274435431223 L232.53883648108803,-77.1407125195367" stroke="#0d6d4d" stroke-width="0.1" fill="none" />
<path d="M88.36644820920162,-228.50901695751634 L243.64910033049807,-25.69272091738987" stroke="#0d6d4d" stroke-width="0.1" fill="none" />
<path d="M90.70395864189211,-227.59128253667785 L243.514227342881,26.941066823711232" stroke="#0d6d4d" stroke-width="0.1" fill="none" />
<path d="M93.03193976959119,-226.64963750843978 L232.14044231118416,78.33144351770737" stroke="#0d6d4d" stroke-width="0.1" fill="none" />
<path d="M95.35014701595942,-225.68418080147956 L210.0526795317496,126.10658912813439" stroke="#0d6d4d" stroke-width="0.1" fill="none" />
<path d="M97.6583368314956,-224.69501384611576 L178.27035551192998,168.06153737738478" stroke="#0d6d4d" stroke-width="0.1" fill="none" />
<path d="M99.95626671912396,-223.6822405636517 L138.26031984040358,202.25994155449888" stroke="#0d6d4d" stroke-width="0.1" fill="none" />
<path d="M102.24369525967077,-222.64596735545777 L91.86915567865277,227.12344272419668" stroke="#0d6d4d" stroke-width="0.1" fill="none" />
<path d="M104.52038213722773,-221.58630309179284 L41.237954408998526,241.504515726231" stroke="#0d6d4d" stroke-width="0.1" fill="none" />
<path d="M106.78608816439936,-220.50335910036637 L-11.29650215517253,244.7394309036821" stroke="#0d6d4d" stroke-width="0.1" fill="none" />
<path d="M109.04057530743196,-219.39724915464245 L-63.309591259573054,236.67888721756697" stroke="#0d6d4d" stroke-width="0.1" fill="none" />
<path d="M111.28360671122121,-218.26808946188686 L-112.4007528220927,217.69490293763613" stroke="#0d6d4d" stroke-width="0.1" fill="none" />
<path d="M113.51494672419605,-217.11599865095832 L-156.3042824813763,188.66364588330768" stroke="#0d6d4d" stroke-width="0.1" fill="none" />
<path d="M115.73436092307621,-215.94109775984546 L-192.9939006493707,150.92499565062388" stroke="#0d6d4d" stroke-width="0.1" fill="none" />
<path d="M117.9416161375004,-214.74351022295065 L-220.77627139240045,106.22070414975202" stroke="#0d6d4d" stroke-width="0.1" fill="none" />
<path d="M120.13648047452322,-213.52336185812197 L-238.3691549638848,56.61400852972233" stroke="#0d6d4d" stroke-width="0.1" fill="none" />
<path d="M122.31872334297755,-212.28078085343506 L-244.9605870148856,4.394406595055149" stroke="#0d6d4d" stroke-width="0.1" fill="none" />
<path d="M124.48811547770049,-211.01589775372545 L-240.246353184402,-48.0280103855611" stroke="#0d6d4d" stroke-width="0.1" fill="none" />
<path d="M126.6444289636196,-209.7288454468739 L-224.44402950466082,-98.23379062069706" stroke="#0d6d4d" stroke-width="0.1" fill="none" />
<path d="M128.78743725969778,-208.41975914984505 L-198.28294061458178,-143.90578675381417" stroke="#0d6d4d" stroke-width="0.1" fill="none" />
<path d="M130.91691522273337,-207.0887763944817 L-162.97049923998878,-182.93609916434977" stroke="#0d6d4d" stroke-width="0.1" fill="none" />
<path d="M133.03263913101355,-205.73603701305595 L-120.13648047452325,-213.52336185812194" stroke="#0d6d4d" stroke-width="0.1" fill="none" />
<path d="M135.13438670781855,-204.3616831235781 L-71.75780277035324,-234.25588091138948" stroke="#0d6d4d" stroke-width="0.1" fill="none" />
<path d="M137.22193714477385,-202.96585911486625 L-20.06728722158389,-244.17678837999006" stroke="#0d6d4d" stroke-width="0.1" fill="none" />
<path d="M139.29507112504805,-201.54871163137662 L32.549393826867096,-242.82820462521133" stroke="#0d6d4d" stroke-width="0.1" fill="none" />
<path d="M141.3535708463944,-200.11038955779725 L83.66382271412023,-230.27237083258657" stroke="#0d6d4d" stroke-width="0.1" fill="none" />
<path d="M143.3972200440328,-198.65104400340624 L130.91691522273337,-207.0887763944817" stroke="#0d6d4d" stroke-width="0.1" fill="none" />
<path d="M145.42580401337042,-197.17082828619647 L172.12779939171304,-174.34741373638496" stroke="#0d6d4d" stroke-width="0.1" fill="none" />
<path d="M147.43910963255877,-195.66989791676778 L205.39446929932006,-133.55939495689051" stroke="#0d6d4d" stroke-width="0.1" fill="none" />
<path d="M149.43692538488364,-194.14841058198937 L229.18156834166862,-86.6072094715739" stroke="#0d6d4d" stroke-width="0.1" fill="none" />
<path d="M151.4190413809874,-192.60652612843322 L242.39125054549515,-35.657841479694085" stroke="#0d6d4d" stroke-width="0.1" fill="none" />
<path d="M153.3852493809196,-191.04440654558064 L244.41384945295445,16.93724285674955" stroke="#0d6d4d" stroke-width="0.1" fill="none" />
<path d="M155.3353428160145,-189.46221594880404 L235.15601605742202,68.7506226299186" stroke="#0d6d4d" stroke-width="0.1" fill="none" />
<path d="M157.26911681059326,-187.86012056212456 L215.04502714016218,117.39095494239288" stroke="#0d6d4d" stroke-width="0.1" fill="none" />
<path d="M159.18636820348783,-186.2382887007492 L185.0090651652011,160.6133425550268" stroke="#0d6d4d" stroke-width="0.1" fill="none" />
<path d="M161.08689556938518,-184.59689075338727 L146.4343798744095,196.42294262839343" stroke="#0d6d4d" stroke-width="0.1" fill="none" />
<path d="M162.97049923998873,-182.93609916434983 L101.10130870368106,223.1670347036116" stroke="#0d6d4d" stroke-width="0.1" fill="none" />
<path d="M164.83698132499543,-181.25608841543257 L51.1021088699152,239.61129870907035" stroke="#0d6d4d" stroke-width="0.1" fill="none" />
<path d="M166.6861457328861,-179.55703500758486 L-1.2556065755371941,244.99678253423548" stroke="#0d6d4d" stroke-width="0.1" fill="none" />
<path d="M168.51779819152662,-177.83911744236673 L-53.55537201117523,239.0749299461251" stroke="#0d6d4d" stroke-width="0.1" fill="none" />
<path d="M170.33174626857792,-176.10251620319565 L-103.38339638227977,222.11905220503806" stroke="#0d6d4d" stroke-width="0.1" fill="none" />
<path d="M172.12779939171304,-174.34741373638496 L-148.4399668985643,194.91171393005894" stroke="#0d6d4d" stroke-width="0.1" fill="none" />
<path d="M173.90576886863846,-172.57399443197605 L-186.6455876777315,158.70861539448399" stroke="#0d6d4d" stroke-width="0.1" fill="none" />
<path d="M175.6654679069179,-170.78244460436673 L-216.23695471815537,115.18063819157464" stroke="#0d6d4d" stroke-width="0.1" fill="none" />
<path d="M177.4067116335968,-168.97295247273695 L-235.84833766781372,66.33672903700422" stroke="#0d6d4d" stroke-width="0.1" fill="none" />
<path d="M179.1293171146248,-167.1457081412747 L-244.57461237671745,14.431180851835945" stroke="#0d6d4d" stroke-width="0.1" fill="none" />
<path d="M180.83310337407477,-165.30090357920366 L-242.0130350914688,-38.1404096178253" stroke="#0d6d4d" stroke-width="0.1" fill="none" />
<path d="M182.51789141315604,-163.43873260061514 L-228.28183028756206,-88.95170577656569" stroke="#0d6d4d" stroke-width="0.1" fill="none" />
<path d="M184.1835042290199,-161.55939084410602 L-204.01473425521007,-135.6576138916501" stroke="#0d6d4d" stroke-width="0.1" fill="none" />
<path d="M185.8297668333554,-159.66307575222513 L-170.331746268578,-176.10251620319562" stroke="#0d6d4d" stroke-width="0.1" fill="none" />
<path d="M187.45650627077342,-157.74998655072997 L-128.78743725969787,-208.419759149845" stroke="#0d6d4d" stroke-width="0.1" fill="none" />
<path d="M189.06355163697756,-155.82032422765624 L-81.29920170682107,-231.11780502988864" stroke="#0d6d4d" stroke-width="0.1" fill="none" />
<path d="M190.65073409671902,-153.8742915122021 L-30.0587641277756,-243.14907094025827" stroke="#0d6d4d" stroke-width="0.1" fill="none" />
<path d="M192.21788690153417,-151.9120928534296 L22.56897558089098,-243.9582778698627" stroke="#0d6d4d" stroke-width="0.1" fill="none" />
<path d="M193.7648454072635,-149.9339343987854 L74.15508936795801,-233.5080784915806" stroke="#0d6d4d" stroke-width="0.1" fill="none" />
<path d="M195.2914470913486,-147.94002397244293 L122.31872334297755,-212.28078085343506" stroke="#0d6d4d" stroke-width="0.1" fill="none" />
<path d="M196.79753156990697,-145.93057105346867 L164.83698132499543,-181.25608841543257" stroke="#0d6d4d" stroke-width="0.1" fill="none" />
<path d="M198.28294061458172,-143.90578675381425 L199.74751816916498,-141.8658837961372" stroke="#0d6d4d" stroke-width="0.1" fill="none" />
<path d="M199.74751816916498,-141.8658837961372 L225.439107881488,-95.92814309470816" stroke="#0d6d4d" stroke-width="0.1" fill="none" />
<path d="M201.1911103659931,-139.8110764914525 L240.7260065315173,-45.56303084067052" stroke="#0d6d4d" stroke-width="0.1" fill="none" />
<path d="M202.61356554211184,-137.7415807166171 L244.9026778915377,6.904951958827864" stroke="#0d6d4d" stroke-width="0.1" fill="none" />
<path d="M204.01473425521007,-135.65761389165007 L237.77635604982208,59.05425051313607" stroke="#0d6d4d" stroke-width="0.1" fill="none" />
<path d="M205.39446929932006,-133.55939495689051 L219.67594213568336,108.4780182654527" stroke="#0d6d4d" stroke-width="0.1" fill="none" />
<path d="M206.75262572028274,-131.44714434999597 L191.4368245457758,152.89520008106814" stroke="#0d6d4d" stroke-width="0.1" fill="none" />
<path d="M208.08906083097676,-129.32108398278314 L154.36232326373423,190.25580978414933" stroke="#0d6d4d" stroke-width="0.1" fill="none" />
<path d="M209.4036342263088,-127.18143721791431 L110.16353773345382,218.83554316895118" stroke="#0d6d4d" stroke-width="0.1" fill="none" />
<path d="M210.69620779796472,-125.02842884543047 L60.880374487091935,237.3153598111834" stroke="#0d6d4d" stroke-width="0.1" fill="none" />
<path d="M211.96664574891892,-122.86228505913567 L8.787399339647022,244.84236074022317" stroke="#0d6d4d" stroke-width="0.1" fill="none" />
<path d="M213.21481460770136,-120.6832334328325 L-43.711140646255615,241.0691522849891" stroke="#0d6d4d" stroke-width="0.1" fill="none" />
<path d="M214.44058324241968,-118.49150289641396 L-94.19228037415243,226.16987933391366" stroke="#0d6d4d" stroke-width="0.1" fill="none" />
<path d="M215.64382287453608,-116.28732371181185 L-140.32616382093735,200.83218802597221" stroke="#0d6d4d" stroke-width="0.1" fill="none" />
<path d="M216.8244070923965,-114.07092744880578 L-179.98357388103207,166.22548881868593" stroke="#0d6d4d" stroke-width="0.1" fill="none" />
<path d="M217.98221186451173,-111.8425469606943 L-211.33420212266708,123.94698468771111" stroke="#0d6d4d" stroke-width="0.1" fill="none" />
<path d="M219.11711555258768,-109.6024163598319 L-232.9311230122548,75.94795541849577" stroke="#0d6d4d" stroke-width="0.1" fill="none" />
<path d="M220.22899892430476,-107.35077099303282 L-243.77757386800192,24.443700191068984" stroke="#0d6d4d" stroke-width="0.1" fill="none" />
<path d="M221.31774516584449,-105.08784741684607 L-243.37295844759328,-28.188705122194506" stroke="#0d6d4d" stroke-width="0.1" fill="none" />
<path d="M222.38323989416173,-102.81388337270272 L-231.73595096637658,-79.5201171384267" stroke="#0d6d4d" stroke-width="0.1" fill="none" />
<path d="M223.42537116900178,-100.52911776193895 L-209.4036342263088,-127.18143721791428" stroke="#0d6d4d" stroke-width="0.1" fill="none" />
<path d="M224.44402950466076,-98.23379062069718 L-177.4067116335968,-168.97295247273695" stroke="#0d6d4d" stroke-width="0.1" fill="none" />
<path d="M225.439107881488,-95.92814309470816 L-137.22193714477382,-202.96585911486625" stroke="#0d6d4d" stroke-width="0.1" fill="none" />
<path d="M226.41050175712977,-93.61241741395607 L-90.70395864189224,-227.5912825366778" stroke="#0d6d4d" stroke-width="0.1" fill="none" />
<path d="M227.35810907751184,-91.28685686723047 L-39.999720369511735,-241.71268558013432" stroke="#0d6d4d" stroke-width="0.1" fill="none" />
<path d="M228.281830287562,-88.95170577656583 L12.550624982221285,-244.67832313581775" stroke="#0d6d4d" stroke-width="0.1" fill="none" />
<path d="M229.18156834166862,-86.6072094715739 L64.52172134381284,-236.3513221347225" stroke="#0d6d4d" stroke-width="0.1" fill="none" />
<path d="M230.05722871387653,-84.25361426366888 L113.51494672419605,-217.11599865095832" stroke="#0d6d4d" stroke-width="0.1" fill="none" />
<path d="M230.90871940781773,-81.89116742019071 L157.26911681059326,-187.86012056212456" stroke="#0d6d4d" stroke-width="0.1" fill="none" />
<path d="M231.73595096637658,-79.5201171384267 L193.7648454072635,-149.9339343987854" stroke="#0d6d4d" stroke-width="0.1" fill="none" />
<path d="M232.53883648108803,-77.1407125195367 L221.31774516584449,-105.08784741684607" stroke="#0d6d4d" stroke-width="0.1" fill="none" />
<path d="M233.31729160126815,-74.75320354238205 L238.6561671140155,-55.39164105212182" stroke="#0d6d4d" stroke-width="0.1" fill="none" />
<path d="M234.0712345428761,-72.35784103726347 L244.9798910700446,-3.138944298499512" stroke="#0d6d4d" stroke-width="0.1" fill="none" />
<path d="M234.80058609710616,-69.95487665956851 L239.99705820453872,49.258624150165296" stroke="#0d6d4d" stroke-width="0.1" fill="none" />
<path d="M235.50526963870942,-67.54456286333323 L223.9376412008882,99.38275933672926" stroke="#0d6d4d" stroke-width="0.1" fill="none" />
<path d="M236.18521113404404,-65.1271528747192 L197.5428303260958,144.92008206855022" stroke="#0d6d4d" stroke-width="0.1" fill="none" />
<path d="M236.84033914885305,-62.70290066540993 L162.03082527665896,183.76890830650547" stroke="#0d6d4d" stroke-width="0.1" fill="none" />
<path d="M237.4705848557694,-60.27206092592848 L119.04061160842997,214.13624818766888" stroke="#0d6d4d" stroke-width="0.1" fill="none" />
<path d="M238.07588204154663,-57.83488903888018 L70.55631663686593,234.6205578857878" stroke="#0d6d4d" stroke-width="0.1" fill="none" />
<path d="M238.6561671140155,-55.39164105212182 L18.8156360097754,244.27642506297582" stroke="#0d6d4d" stroke-width="0.1" fill="none" />
<path d="M239.21137910876473,-52.94257365186208 L-33.79344265908337,242.65820248499173" stroke="#0d6d4d" stroke-width="0.1" fill="none" />
<path d="M239.74145969554598,-50.487944135693425 L-84.8428525814532,229.840575977876" stroke="#0d6d4d" stroke-width="0.1" fill="none" />
<path d="M240.24635318440198,-48.02801038556127 L-131.9765103601543,206.4151174530492" stroke="#0d6d4d" stroke-width="0.1" fill="none" />
<path d="M240.7260065315173,-45.56303084067052 L-173.01905630523805,173.46298208910414" stroke="#0d6d4d" stroke-width="0.1" fill="none" />
<path d="M241.18036934479102,-43.09326447033451 L-206.07625380895047,132.50500977724968" stroke="#0d6d4d" stroke-width="0.1" fill="none" />
<path d="M241.60939388913098,-40.6189707467676 L-229.62241404718463,85.43153379837747" stroke="#0d6d4d" stroke-width="0.1" fill="none" />
<path d="M242.0130350914688,-38.140409617825306 L-242.570811095214,34.41513627184993" stroke="#0d6d4d" stroke-width="0.1" fill="none" />
<path d="M242.39125054549515,-35.657841479694085 L-244.32383758889162,-18.189623026245155" stroke="#0d6d4d" stroke-width="0.1" fill="none" />
<path d="M242.74400051611508,-33.17152714953466 L-234.8005860971062,-69.9548766595684" stroke="#0d6d4d" stroke-width="0.1" fill="none" />
<path d="M243.0712479436224,-30.681727838080317 L-214.4405832424197,-118.49150289641389" stroke="#0d6d4d" stroke-width="0.1" fill="none" />
<path d="M243.37295844759328,-28.188705122194563 L-184.18350422901992,-161.559390844106" stroke="#0d6d4d" stroke-width="0.1" fill="none" />
<path d="M243.64910033049807,-25.69272091738987 L-145.42580401337042,-197.17082828619647" stroke="#0d6d4d" stroke-width="0.1" fill="none" />
<path d="M243.89964458103168,-23.194037450311058 L-99.95626671912395,-223.6822405636517" stroke="#0d6d4d" stroke-width="0.1" fill="none" />
<path d="M244.12456487716122,-20.692917231185692 L-49.87344788412807,-239.87004647548045" stroke="#0d6d4d" stroke-width="0.1" fill="none" />
<path d="M244.3238375888916,-18.18962302624532 L2.511180172534155,-244.98713022144872" stroke="#0d6d4d" stroke-width="0.1" fill="none" />
<path d="M244.497441780748,-15.684417830118887 L54.77990973162624,-238.79732303732987" stroke="#0d6d4d" stroke-width="0.1" fill="none" />
<path d="M244.64535921397515,-13.177564838203345 L104.52038213722773,-221.58630309179284" stroke="#0d6d4d" stroke-width="0.1" fill="none" />
<path d="M244.76757434845393,-10.669327419011722 L149.43692538488364,-194.14841058198937" stroke="#0d6d4d" stroke-width="0.1" fill="none" />
<path d="M244.86407434433352,-8.15996908650445 L187.45650627077342,-157.74998655072997" stroke="#0d6d4d" stroke-width="0.1" fill="none" />
<path d="M244.93484906338065,-5.649753472404236 L216.8244070923965,-114.07092744880578" stroke="#0d6d4d" stroke-width="0.1" fill="none" />
<path d="M244.9798910700446,-3.138944298499512 L236.18521113404404,-65.1271528747192" stroke="#0d6d4d" stroke-width="0.1" fill="none" />
<path d="M244.99919563223844,-0.6278053489374836 L244.64535921397515,-13.177564838203345" stroke="#0d6d4d" stroke-width="0.1" fill="none" />
<path d="M244.99276072183613,1.883399557488225 L241.8143901210002,39.38020734339411" stroke="#0d6d4d" stroke-width="0.1" fill="none" />
<path d="M244.9605870148856,4.3944065950549795 L227.8229615706154,90.12046483010333" stroke="#0d6d4d" stroke-width="0.1" fill="none" />
<path d="M244.9026778915377,6.904951958827864 L203.31681995950828,136.70139253699247" stroke="#0d6d4d" stroke-width="0.1" fill="none" />
<path d="M244.81903943569125,9.414771892375352 L169.426997232351,176.97314092491246" stroke="#0d6d4d" stroke-width="0.1" fill="none" />
<path d="M244.70968043435352,11.923602715479042 L127.71761036487861,209.07704800547825" stroke="#0d6d4d" stroke-width="0.1" fill="none" />
<path d="M244.57461237671745,14.43118085183594 L80.11367267368867,231.53142216712848" stroke="#0d6d4d" stroke-width="0.1" fill="none" />
<path d="M244.41384945295445,16.93724285674955 L28.81224867735573,243.2999266875233" stroke="#0d6d4d" stroke-width="0.1" fill="none" />
<path d="M244.2274085527235,19.44152544480741 L-23.818947021478092,243.8394097819055" stroke="#0d6d4d" stroke-width="0.1" fill="none" />
<path d="M244.01530926339677,21.943765517541344 L-75.35082686727942,233.12497268722046" stroke="#0d6d4d" stroke-width="0.1" fill="none" />
<path d="M243.77757386800192,24.443700191068874 L-123.40504002867155,211.65111881471822" stroke="#0d6d4d" stroke-width="0.1" fill="none" />
<path d="M243.514227342881,26.941066823711232 L-165.7637404234706,180.4089309341981" stroke="#0d6d4d" stroke-width="0.1" fill="none" />
<path d="M243.22529735506623,29.435603043586546 L-200.4719469680938,140.84032973130172" stroke="#0d6d4d" stroke-width="0.1" fill="none" />
<path d="M242.9108142593737,31.927046776174663 L-225.92777181878267,94.7715248426449" stroke="#0d6d4d" stroke-width="0.1" fill="none" />
<path d="M242.570811095214,34.41513627185003 L-240.9563523006614,44.3287298031373" stroke="#0d6d4d" stroke-width="0.1" fill="none" />
<path d="M242.2053235831212,36.89961013338141 L-244.86407434433352,-8.159969086504228" stroke="#0d6d4d" stroke-width="0.1" fill="none" />
<path d="M241.8143901210002,39.38020734339411 L-237.47058485576937,-60.27206092592853" stroke="#0d6d4d" stroke-width="0.1" fill="none" />
<path d="M241.39805178009252,41.856667291791965 L-219.11711555258773,-109.60241635983175" stroke="#0d6d4d" stroke-width="0.1" fill="none" />
<path d="M240.9563523006614,44.32872980313729 L-190.65073409671896,-153.87429151220215" stroke="#0d6d4d" stroke-width="0.1" fill="none" />
<path d="M240.4893380873965,46.796135163984395 L-153.38524938091965,-191.0444065455806" stroke="#0d6d4d" stroke-width="0.1" fill="none" />
<path d="M239.99705820453872,49.258624150165296 L-109.04057530743201,-219.39724915464242" stroke="#0d6d4d" stroke-width="0.1" fill="none" />
<path d="M239.47956437072543,51.71593805402331 L-59.663351602293815,-237.62425060498575" stroke="#0d6d4d" stroke-width="0.1" fill="none" />
<path d="M238.93691095355695,54.167818711592886 L-7.532485252822497,-244.88418010544495" stroke="#0d6d4d" stroke-width="0.1" fill="none" />
<path d="M238.3691549638848,56.61400852972232 L44.94602788572366,-240.84197013248283" stroke="#0d6d4d" stroke-width="0.1" fill="none" />
<path d="M237.77635604982208,59.05425051313607 L95.35014701595942,-225.68418080147956" stroke="#0d6d4d" stroke-width="0.1" fill="none" />
<path d="M237.15857649047703,61.48828829143447 L141.3535708463944,-200.11038955779725" stroke="#0d6d4d" stroke-width="0.1" fill="none" />
<path d="M236.51588118940973,63.91586614602838 L180.83310337407477,-165.30090357920366" stroke="#0d6d4d" stroke-width="0.1" fill="none" />
<path d="M235.84833766781372,66.33672903700416 L211.96664574891892,-122.86228505913567" stroke="#0d6d4d" stroke-width="0.1" fill="none" />
<path d="M235.15601605742202,68.7506226299186 L233.31729160126815,-74.75320354238205" stroke="#0d6d4d" stroke-width="0.1" fill="none" />
<path d="M234.4389890931392,71.1572933225186 L243.89964458103168,-23.194037450311058" stroke="#0d6d4d" stroke-width="0.1" fill="none" />
<path d="M233.69733210539997,73.55648827138504 L243.22529735506623,29.435603043586546" stroke="#0d6d4d" stroke-width="0.1" fill="none" />
<path d="M232.93112301225477,75.94795541849587 L231.32537307064135,80.70670216115018" stroke="#0d6d4d" stroke-width="0.1" fill="none" />
<path d="M232.14044231118416,78.33144351770737 L208.74908892883465,128.2529448838563" stroke="#0d6d4d" stroke-width="0.1" fill="none" />
<path d="M231.32537307064135,80.70670216115018 L176.53840816325499,169.87992948898935" stroke="#0d6d4d" stroke-width="0.1" fill="none" />
<path d="M230.48600092132534,83.07348180553653 L136.1799503113083,203.666445771535" stroke="#0d6d4d" stroke-width="0.1" fill="none" />
<path d="M229.6224140471847,85.4315337983773 L89.53637926324062,228.053144658058" stroke="#0d6d4d" stroke-width="0.1" fill="none" />
<path d="M228.73470317615258,87.78061040410564 L38.76043573630331,241.91450684390944" stroke="#0d6d4d" stroke-width="0.1" fill="none" />
<path d="M227.8229615706154,90.12046483010333 L-13.804418166770308,244.61078888527575" stroke="#0d6d4d" stroke-width="0.1" fill="none" />
<path d="M226.88728501761446,92.45085125262922 L-65.73215676332202,236.0175492781036" stroke="#0d6d4d" stroke-width="0.1" fill="none" />
<path d="M225.9277718187827,94.77152484264487 L-114.62615915319863,216.53139180678994" stroke="#0d6d4d" stroke-width="0.1" fill="none" />
<path d="M224.9445227800171,97.08224179153652 L-158.22982046226608,187.05166108986853" stroke="#0d6d4d" stroke-width="0.1" fill="none" />
<path d="M223.9376412008882,99.38275933672926 L-194.53070092632808,148.9389351281642" stroke="#0d6d4d" stroke-width="0.1" fill="none" />
<path d="M222.9072328637875,101.67283578719152 L-221.85340602281374,103.95223054882729" stroke="#0d6d4d" stroke-width="0.1" fill="none" />
<path d="M221.85340602281383,103.95223054882713 L-238.93691095355692,54.167818711593" stroke="#0d6d4d" stroke-width="0.1" fill="none" />
<path d="M220.77627139240047,106.22070414975198 L-244.99276072183613,1.8833995574882851" stroke="#0d6d4d" stroke-width="0.1" fill="none" />
<path d="M219.67594213568336,108.4780182654527 L-239.741459695546,-50.487944135693205" stroke="#0d6d4d" stroke-width="0.1" fill="none" />
<path d="M218.55253385261267,110.72393574382457 L-223.42537116900178,-100.52911776193895" stroke="#0d6d4d" stroke-width="0.1" fill="none" />
<path d="M217.4061645678072,112.95822063008757 L-196.7975315699071,-145.93057105346853" stroke="#0d6d4d" stroke-width="0.1" fill="none" />
<path d="M216.2369547181554,115.1806381915746 L-161.08689556938532,-184.59689075338716" stroke="#0d6d4d" stroke-width="0.1" fill="none" />
<path d="M215.04502714016218,117.39095494239288 L-117.94161613750052,-214.74351022295056" stroke="#0d6d4d" stroke-width="0.1" fill="none" />
<path d="M213.83050705704366,119.58893866795376 L-69.35297733984216,-234.9790725449808" stroke="#0d6d4d" stroke-width="0.1" fill="none" />
<path d="M212.59352206557145,121.7743584493689 L-17.563490604785756,-244.3696458191475" stroke="#0d6d4d" stroke-width="0.1" fill="none" />
<path d="M211.33420212266716,123.94698468771095 L35.03660390562777,-242.48182692061718" stroke="#0d6d4d" stroke-width="0.1" fill="none" />
<path d="M210.0526795317496,126.10658912813439 L86.01965404900241,-229.40274435431223" stroke="#0d6d4d" stroke-width="0.1" fill="none" />
<path d="M208.74908892883465,128.2529448838563 L133.03263913101355,-205.73603701305595" stroke="#0d6d4d" stroke-width="0.1" fill="none" />
<path d="M207.42356726839074,130.38582645999284 L173.90576886863846,-172.57399443197605" stroke="#0d6d4d" stroke-width="0.1" fill="none" />
<path d="M206.07625380895047,132.5050097772497 L206.75262572028274,-131.44714434999597" stroke="#0d6d4d" stroke-width="0.1" fill="none" />
<path d="M204.70729009847992,134.61027219546352 L230.05722871387653,-84.25361426366888" stroke="#0d6d4d" stroke-width="0.1" fill="none" />
<path d="M203.31681995950828,136.70139253699247 L242.74400051611508,-33.17152714953466" stroke="#0d6d4d" stroke-width="0.1" fill="none" />
<path d="M201.9049894740171,138.77815110995337 L244.2274085527235,19.44152544480741" stroke="#0d6d4d" stroke-width="0.1" fill="none" />
<path d="M200.47194696809385,140.84032973130167 L234.4389890931392,71.1572933225186" stroke="#0d6d4d" stroke-width="0.1" fill="none" />
<path d="M199.01784299634835,142.88771174975417 L213.83050705704366,119.58893866795376" stroke="#0d6d4d" stroke-width="0.1" fill="none" />
<path d="M197.5428303260958,144.92008206855022 L183.35310570819186,162.50119577147925" stroke="#0d6d4d" stroke-width="0.1" fill="none" />
<path d="M196.04706392130706,146.9372271680494 L144.41340853971352,197.91353524694009" stroke="#0d6d4d" stroke-width="0.1" fill="none" />
<path d="M194.53070092632805,148.93893512816422 L98.80859938055774,224.19157140368245" stroke="#0d6d4d" stroke-width="0.1" fill="none" />
<path d="M192.99390064937074,150.92499565062383 L48.64347697090279,240.12249404872767" stroke="#0d6d4d" stroke-width="0.1" fill="none" />
<path d="M191.4368245457758,152.89520008106814 L-3.7666878133169366,244.971043315158" stroke="#0d6d4d" stroke-width="0.1" fill="none" />
<path d="M189.85963620105053,154.84934143096876 L-56.003008656288245,238.51344411048134" stroke="#0d6d4d" stroke-width="0.1" fill="none" />
<path d="M188.26250131368255,156.7872143993753 L-105.65462266155336,221.0477340083919" stroke="#0d6d4d" stroke-width="0.1" fill="none" />
<path d="M186.64558767773156,158.70861539448393 L-150.42995890637533,193.38000792074197" stroke="#0d6d4d" stroke-width="0.1" fill="none" />
<path d="M185.0090651652011,160.6133425550268 L-188.2625013136824,156.78721439937547" stroke="#0d6d4d" stroke-width="0.1" fill="none" />
<path d="M183.35310570819186,162.50119577147925 L-217.4061645678072,112.95822063008752" stroke="#0d6d4d" stroke-width="0.1" fill="none" />
<path d="M181.67788328083844,164.37197670708363 L-236.5158811894097,63.91586614602849" stroke="#0d6d4d" stroke-width="0.1" fill="none" />
<path d="M179.98357388103204,166.22548881868593 L-244.70968043435352,11.923602715479156" stroke="#0d6d4d" stroke-width="0.1" fill="none" />
<path d="M178.27035551192998,168.06153737738478 L-241.60939388913098,-40.61897074676754" stroke="#0d6d4d" stroke-width="0.1" fill="none" />
<path d="M176.53840816325499,169.87992948898935 L-227.35810907751187,-91.28685686723041" stroke="#0d6d4d" stroke-width="0.1" fill="none" />
<path d="M174.78791379238515,171.68047411428518 L-202.61356554211187,-137.74158071661705" stroke="#0d6d4d" stroke-width="0.1" fill="none" />
<path d="M173.01905630523808,173.46298208910412 L-168.51779819152662,-177.83911744236673" stroke="#0d6d4d" stroke-width="0.1" fill="none" />
<path d="M171.23202153694996,175.22726614419773 L-126.64442896361976,-209.72884544687378" stroke="#0d6d4d" stroke-width="0.1" fill="none" />
<path d="M169.426997232351,176.97314092491246 L-78.92603945280857,-231.93895812539495" stroke="#0d6d4d" stroke-width="0.1" fill="none" />
<path d="M167.6041730262419,178.70042301066206 L-27.564976472456802,-243.4443921557301" stroke="#0d6d4d" stroke-width="0.1" fill="none" />
<path d="M165.76374042347064,180.40893093419808 L25.06829285678699,-243.7141372453522" stroke="#0d6d4d" stroke-width="0.1" fill="none" />
<path d="M163.90589277881298,182.0984852006745 L76.54458527512531,-232.73574384924004" stroke="#0d6d4d" stroke-width="0.1" fill="none" />
<path d="M162.03082527665896,183.76890830650547 L124.48811547770049,-211.01589775372545" stroke="#0d6d4d" stroke-width="0.1" fill="none" />
<path d="M160.13873491050654,185.42002475801397 L166.6861457328861,-179.55703500758486" stroke="#0d6d4d" stroke-width="0.1" fill="none" />
<path d="M158.22982046226613,187.05166108986847 L201.1911103659931,-139.8110764914525" stroke="#0d6d4d" stroke-width="0.1" fill="none" />
<path d="M156.30428248137628,188.6636458833077 L226.41050175712977,-93.61241741395607" stroke="#0d6d4d" stroke-width="0.1" fill="none" />
<path d="M154.36232326373423,190.25580978414933 L241.18036934479102,-43.09326447033451" stroke="#0d6d4d" stroke-width="0.1" fill="none" />
<path d="M152.4041468304425,191.8279855205828 L244.81903943569125,9.414771892375352" stroke="#0d6d4d" stroke-width="0.1" fill="none" />
<path d="M150.42995890637528,193.380007920742 L237.15857649047703,61.48828829143447" stroke="#0d6d4d" stroke-width="0.1" fill="none" />
<path d="M148.43996689856436,194.91171393005888 L218.55253385261267,110.72393574382457" stroke="#0d6d4d" stroke-width="0.1" fill="none" />
<path d="M146.4343798744095,196.42294262839343 L189.85963620105053,154.84934143096876" stroke="#0d6d4d" stroke-width="0.1" fill="none" />
<path d="M144.41340853971352,197.91353524694009 L152.4041468304425,191.8279855205828" stroke="#0d6d4d" stroke-width="0.1" fill="none" />
<path d="M142.37726521654616,199.38333518490776 L107.91474892779384,219.9531926657379" stroke="#0d6d4d" stroke-width="0.1" fill="none" />
<path d="M140.3261638209374,200.83218802597216 L58.44476165797581,237.92690019151343" stroke="#0d6d4d" stroke-width="0.1" fill="none" />
<path d="M138.26031984040358,202.25994155449888 L6.277373325072229,244.91956758115035" stroke="#0d6d4d" stroke-width="0.1" fill="none" />
<path d="M136.1799503113083,203.666445771535 L-46.17973461657131,240.60846225921284" stroke="#0d6d4d" stroke-width="0.1" fill="none" />
<path d="M134.08527379606087,205.0515529105678 L-96.50550928361403,225.19255466802247" stroke="#0d6d4d" stroke-width="0.1" fill="none" />
<path d="M131.97651036015432,206.41511745304913 L-142.37726521654622,199.3833351849077" stroke="#0d6d4d" stroke-width="0.1" fill="none" />
<path d="M129.8538815490453,207.7569961436835 L-181.6778832808384,164.3719767070837" stroke="#0d6d4d" stroke-width="0.1" fill="none" />
<path d="M127.71761036487861,209.07704800547825 L-212.59352206557142,121.77435844936898" stroke="#0d6d4d" stroke-width="0.1" fill="none" />
<path d="M125.56792124305892,210.37513435455475 L-233.69733210539997,73.55648827138504" stroke="#0d6d4d" stroke-width="0.1" fill="none" />
<path d="M123.4050400286715,211.65111881471825 L-244.01530926339677,21.943765517541348" stroke="#0d6d4d" stroke-width="0.1" fill="none" />
<path d="M121.22919395275537,212.9048673317856 L-243.07124794362244,-30.681727838080146" stroke="#0d6d4d" stroke-width="0.1" fill="none" />
<path d="M119.04061160842997,214.13624818766888 L-230.9087194078177,-81.89116742019077" stroke="#0d6d4d" stroke-width="0.1" fill="none" />
<path d="M116.83952292688001,215.3451320142136 L-208.08906083097682,-129.32108398278305" stroke="#0d6d4d" stroke-width="0.1" fill="none" />
<path d="M114.62615915319857,216.53139180678997 L-175.665467906918,-170.78244460436665" stroke="#0d6d4d" stroke-width="0.1" fill="none" />
<path d="M112.40075282209285,217.69490293763607 L-135.1343867078186,-204.36168312357808" stroke="#0d6d4d" stroke-width="0.1" fill="none" />
<path d="M110.16353773345382,218.83554316895118 L-88.36644820920164,-228.5090169575163" stroke="#0d6d4d" stroke-width="0.1" fill="none" />
<path d="M107.91474892779384,219.9531926657379 L-37.520133059217386,-242.10997421671547" stroke="#0d6d4d" stroke-width="0.1" fill="none" />
<path d="M105.6546226615534,221.04773400839187 L15.057848777908504,-244.53682992584498" stroke="#0d6d4d" stroke-width="0.1" fill="none" />
<path d="M103.38339638227983,222.11905220503803 L66.94086572598225,-235.67757741426317" stroke="#0d6d4d" stroke-width="0.1" fill="none" />
<path d="M101.10130870368106,223.1670347036116 L115.73436092307621,-215.94109775984546" stroke="#0d6d4d" stroke-width="0.1" fill="none" />
<path d="M98.80859938055774,224.19157140368245 L159.18636820348783,-186.2382887007492" stroke="#0d6d4d" stroke-width="0.1" fill="none" />
<path d="M96.50550928361407,225.19255466802247 L195.2914470913486,-147.94002397244293" stroke="#0d6d4d" stroke-width="0.1" fill="none" />
<path d="M94.19228037415249,226.16987933391363 L222.38323989416173,-102.81388337270272" stroke="#0d6d4d" stroke-width="0.1" fill="none" />
<path d="M91.86915567865277,227.12344272419668 L239.21137910876473,-52.94257365186208" stroke="#0d6d4d" stroke-width="0.1" fill="none" />
<path d="M89.53637926324062,228.053144658058 L244.99919563223844,-0.6278053489374836" stroke="#0d6d4d" stroke-width="0.1" fill="none" />
<path d="M87.19419620804558,228.95888746155467 L239.47956437072543,51.71593805402331" stroke="#0d6d4d" stroke-width="0.1" fill="none" />
<path d="M84.84285258145337,229.84057597787594 L222.9072328637875,101.67283578719152" stroke="#0d6d4d" stroke-width="0.1" fill="none" />
<path d="M82.48259541425394,230.69811757734064 L196.04706392130706,146.9372271680494" stroke="#0d6d4d" stroke-width="0.1" fill="none" />
<path d="M80.11367267368867,231.53142216712848 L160.13873491050654,185.42002475801397" stroke="#0d6d4d" stroke-width="0.1" fill="none" />
<path d="M77.73633323739898,232.34040220074525 L116.83952292688001,215.3451320142136" stroke="#0d6d4d" stroke-width="0.1" fill="none" />
<path d="M75.35082686727958,233.1249726872204 L68.1478164850202,235.3314154725714" stroke="#0d6d4d" stroke-width="0.1" fill="none" />
<path d="M72.95740418323813,233.88505120003637 L16.310883894247258,244.45644820005953" stroke="#0d6d4d" stroke-width="0.1" fill="none" />
<path d="M70.55631663686593,234.6205578857878 L-36.27884491483678,242.29908256459663" stroke="#0d6d4d" stroke-width="0.1" fill="none" />
<path d="M68.1478164850202,235.3314154725714 L-87.19419620804554,228.9588874615547" stroke="#0d6d4d" stroke-width="0.1" fill="none" />
<path d="M65.73215676332218,236.01754927810353 L-134.08527379606093,205.05155291056778" stroke="#0d6d4d" stroke-width="0.1" fill="none" />
<path d="M63.30959125957311,236.67888721756697 L-174.787913792385,171.68047411428532" stroke="#0d6d4d" stroke-width="0.1" fill="none" />
<path d="M60.880374487091935,237.3153598111834 L-207.4235672683907,130.38582645999293" stroke="#0d6d4d" stroke-width="0.1" fill="none" />
<path d="M58.44476165797581,237.92690019151343 L-230.48600092132534,83.07348180553653" stroke="#0d6d4d" stroke-width="0.1" fill="none" />
<path d="M56.0030086562883,238.51344411048132 L-242.9108142593737,31.927046776174887" stroke="#0d6d4d" stroke-width="0.1" fill="none" />
<path d="M53.55537201117528,239.0749299461251 L-244.12456487716122,-20.69291723118569" stroke="#0d6d4d" stroke-width="0.1" fill="none" />
<path d="M51.1021088699152,239.61129870907035 L-234.07123454287614,-72.35784103726327" stroke="#0d6d4d" stroke-width="0.1" fill="none" />
<path d="M48.64347697090279,240.12249404872767 L-213.21481460770136,-120.68323343283252" stroke="#0d6d4d" stroke-width="0.1" fill="none" />
<path d="M46.179734616571466,240.6084622592128 L-182.51789141315615,-163.43873260061503" stroke="#0d6d4d" stroke-width="0.1" fill="none" />
<path d="M43.71114064625578,241.06915228498906 L-143.39722004403285,-198.6510440034062" stroke="#0d6d4d" stroke-width="0.1" fill="none" />
<path d="M41.237954408998526,241.504515726231 L-97.65833683149567,-224.69501384611573" stroke="#0d6d4d" stroke-width="0.1" fill="none" />
<path d="M38.76043573630331,241.91450684390944 L-47.41222843545884,-240.3686347982695" stroke="#0d6d4d" stroke-width="0.1" fill="none" />
<path d="M36.27884491483694,242.2990825645966 L5.022096521944041,-244.9485222378863" stroke="#0d6d4d" stroke-width="0.1" fill="none" />
<path d="M33.79344265908353,242.6582024849917 L57.22463666043551,-238.22330062166702" stroke="#0d6d4d" stroke-width="0.1" fill="none" />
<path d="M31.304490083954434,242.9918288761653 L106.78608816439936,-220.50335910036637" stroke="#0d6d4d" stroke-width="0.1" fill="none" />
<path d="M28.81224867735573,243.2999266875233 L151.4190413809874,-192.60652612843322" stroke="#0d6d4d" stroke-width="0.1" fill="none" />
<path d="M26.316980272715966,243.58246355048936 L189.06355163697756,-155.82032422765624" stroke="#0d6d4d" stroke-width="0.1" fill="none" />
<path d="M23.818947021478152,243.8394097819055 L217.98221186451173,-111.8425469606943" stroke="#0d6d4d" stroke-width="0.1" fill="none" />
<path d="M21.318411365558774,244.0707383871504 L236.84033914885305,-62.70290066540993" stroke="#0d6d4d" stroke-width="0.1" fill="none" />
<path d="M18.8156360097754,244.27642506297582 L244.76757434845393,-10.669327419011722" stroke="#0d6d4d" stroke-width="0.1" fill="none" />
<path d="M16.310883894247258,244.45644820005953 L241.39805178009252,41.856667291791965" stroke="#0d6d4d" stroke-width="0.1" fill="none" />
<path d="M13.804418166770478,244.61078888527572 L226.88728501761446,92.45085125262922" stroke="#0d6d4d" stroke-width="0.1" fill="none" />
<path d="M11.296502155172591,244.7394309036821 L201.9049894740171,138.77815110995337" stroke="#0d6d4d" stroke-width="0.1" fill="none" />
<path d="M8.787399339647022,244.84236074022317 L167.6041730262419,178.70042301066206" stroke="#0d6d4d" stroke-width="0.1" fill="none" />
<path d="M6.277373325072229,244.91956758115035 L125.56792124305892,210.37513435455475" stroke="#0d6d4d" stroke-width="0.1" fill="none" />
<path d="M3.766687813316997,244.971043315158 L77.73633323739898,232.34040220074525" stroke="#0d6d4d" stroke-width="0.1" fill="none" />
<path d="M1.255606575537145,244.99678253423548 L26.316980272715966,243.58246355048936" stroke="#0d6d4d" stroke-width="0.1" fill="none" />
<path d="M-1.2556065755371941,244.99678253423548 L-26.316980272715906,243.5824635504894" stroke="#0d6d4d" stroke-width="0.1" fill="none" />
<path d="M-3.7666878133169366,244.971043315158 L-77.73633323739904,232.34040220074522" stroke="#0d6d4d" stroke-width="0.1" fill="none" />
<path d="M-6.277373325072061,244.91956758115035 L-125.56792124305886,210.37513435455477" stroke="#0d6d4d" stroke-width="0.1" fill="none" />
<path d="M-8.78739933964696,244.84236074022317 L-167.60417302624188,178.70042301066212" stroke="#0d6d4d" stroke-width="0.1" fill="none" />
<path d="M-11.29650215517253,244.7394309036821 L-201.904989474017,138.77815110995354" stroke="#0d6d4d" stroke-width="0.1" fill="none" />
<path d="M-13.804418166770308,244.61078888527575 L-226.88728501761443,92.45085125262932" stroke="#0d6d4d" stroke-width="0.1" fill="none" />
<path d="M-16.310883894247088,244.45644820005953 L-241.3980517800925,41.85666729179207" stroke="#0d6d4d" stroke-width="0.1" fill="none" />
<path d="M-18.81563600977534,244.27642506297582 L-244.76757434845393,-10.669327419011662" stroke="#0d6d4d" stroke-width="0.1" fill="none" />
<path d="M-21.318411365558823,244.0707383871504 L-236.84033914885308,-62.702900665409885" stroke="#0d6d4d" stroke-width="0.1" fill="none" />
<path d="M-23.818947021478092,243.8394097819055 L-217.98221186451173,-111.8425469606943" stroke="#0d6d4d" stroke-width="0.1" fill="none" />
<path d="M-26.316980272715906,243.5824635504894 L-189.06355163697773,-155.82032422765604" stroke="#0d6d4d" stroke-width="0.1" fill="none" />
<path d="M-28.812248677355775,243.2999266875233 L-151.4190413809874,-192.60652612843325" stroke="#0d6d4d" stroke-width="0.1" fill="none" />
<path d="M-31.30449008395449,242.9918288761653 L-106.7860881643995,-220.5033591003663" stroke="#0d6d4d" stroke-width="0.1" fill="none" />
<path d="M-33.79344265908337,242.65820248499173 L-57.22463666043542,-238.22330062166705" stroke="#0d6d4d" stroke-width="0.1" fill="none" />
<path d="M-36.27884491483678,242.29908256459663 L-5.022096521944135,-244.9485222378863" stroke="#0d6d4d" stroke-width="0.1" fill="none" />
<path d="M-38.76043573630325,241.91450684390944 L47.41222843545878,-240.36863479826954" stroke="#0d6d4d" stroke-width="0.1" fill="none" />
<path d="M-41.23795440899847,241.504515726231 L97.6583368314956,-224.69501384611576" stroke="#0d6d4d" stroke-width="0.1" fill="none" />
<path d="M-43.711140646255615,241.0691522849891 L143.3972200440328,-198.65104400340624" stroke="#0d6d4d" stroke-width="0.1" fill="none" />
<path d="M-46.17973461657131,240.60846225921284 L182.51789141315604,-163.43873260061514" stroke="#0d6d4d" stroke-width="0.1" fill="none" />
<path d="M-48.64347697090273,240.12249404872767 L213.21481460770136,-120.6832334328325" stroke="#0d6d4d" stroke-width="0.1" fill="none" />
<path d="M-51.10210886991524,239.61129870907033 L234.0712345428761,-72.35784103726347" stroke="#0d6d4d" stroke-width="0.1" fill="none" />
<path d="M-53.55537201117523,239.0749299461251 L244.12456487716122,-20.692917231185692" stroke="#0d6d4d" stroke-width="0.1" fill="none" />
<path d="M-56.003008656288245,238.51344411048134 L242.9108142593737,31.927046776174663" stroke="#0d6d4d" stroke-width="0.1" fill="none" />
<path d="M-58.444761657975754,237.92690019151345 L230.48600092132534,83.07348180553653" stroke="#0d6d4d" stroke-width="0.1" fill="none" />
<path d="M-60.880374487091885,237.3153598111834 L207.42356726839074,130.38582645999284" stroke="#0d6d4d" stroke-width="0.1" fill="none" />
<path d="M-63.309591259573054,236.67888721756697 L174.78791379238515,171.68047411428518" stroke="#0d6d4d" stroke-width="0.1" fill="none" />
<path d="M-65.73215676332202,236.0175492781036 L134.08527379606087,205.0515529105678" stroke="#0d6d4d" stroke-width="0.1" fill="none" />
<path d="M-68.14781648502024,235.33141547257136 L87.19419620804558,228.95888746155467" stroke="#0d6d4d" stroke-width="0.1" fill="none" />
<path d="M-70.55631663686589,234.62055788578783 L36.27884491483694,242.2990825645966" stroke="#0d6d4d" stroke-width="0.1" fill="none" />
<path d="M-72.95740418323808,233.88505120003637 L-16.310883894247088,244.45644820005953" stroke="#0d6d4d" stroke-width="0.1" fill="none" />
<path d="M-75.35082686727942,233.12497268722046 L-68.14781648502024,235.33141547257136" stroke="#0d6d4d" stroke-width="0.1" fill="none" />
<path d="M-77.73633323739904,232.34040220074522 L-116.83952292687997,215.34513201421362" stroke="#0d6d4d" stroke-width="0.1" fill="none" />
<path d="M-80.11367267368861,231.53142216712848 L-160.1387349105065,185.420024758014" stroke="#0d6d4d" stroke-width="0.1" fill="none" />
<path d="M-82.48259541425388,230.69811757734067 L-196.047063921307,146.93722716804945" stroke="#0d6d4d" stroke-width="0.1" fill="none" />
<path d="M-84.8428525814532,229.840575977876 L-222.9072328637875,101.67283578719152" stroke="#0d6d4d" stroke-width="0.1" fill="none" />
<path d="M-87.19419620804554,228.9588874615547 L-239.4795643707254,51.71593805402348" stroke="#0d6d4d" stroke-width="0.1" fill="none" />
<path d="M-89.53637926324066,228.053144658058 L-244.99919563223844,-0.6278053489375869" stroke="#0d6d4d" stroke-width="0.1" fill="none" />
<path d="M-91.86915567865263,227.12344272419676 L-239.21137910876476,-52.94257365186196" stroke="#0d6d4d" stroke-width="0.1" fill="none" />
<path d="M-94.19228037415243,226.16987933391366 L-222.38323989416176,-102.81388337270266" stroke="#0d6d4d" stroke-width="0.1" fill="none" />
<path d="M-96.50550928361403,225.19255466802247 L-195.29144709134866,-147.94002397244287" stroke="#0d6d4d" stroke-width="0.1" fill="none" />
<path d="M-98.8085993805578,224.19157140368242 L-159.18636820348786,-186.23828870074917" stroke="#0d6d4d" stroke-width="0.1" fill="none" />
<path d="M-101.10130870368101,223.16703470361162 L-115.73436092307621,-215.94109775984546" stroke="#0d6d4d" stroke-width="0.1" fill="none" />
<path d="M-103.38339638227977,222.11905220503806 L-66.94086572598243,-235.6775774142631" stroke="#0d6d4d" stroke-width="0.1" fill="none" />
<path d="M-105.65462266155336,221.0477340083919 L-15.057848777908449,-244.53682992584498" stroke="#0d6d4d" stroke-width="0.1" fill="none" />
<path d="M-107.9147489277939,219.9531926657379 L37.52013305921739,-242.10997421671547" stroke="#0d6d4d" stroke-width="0.1" fill="none" />
<path d="M-110.16353773345368,218.83554316895126 L88.36644820920162,-228.50901695751634" stroke="#0d6d4d" stroke-width="0.1" fill="none" />
<path d="M-112.4007528220927,217.69490293763613 L135.13438670781855,-204.3616831235781" stroke="#0d6d4d" stroke-width="0.1" fill="none" />
<path d="M-114.62615915319863,216.53139180678994 L175.6654679069179,-170.78244460436673" stroke="#0d6d4d" stroke-width="0.1" fill="none" />
<path d="M-116.83952292687997,215.34513201421362 L208.08906083097676,-129.32108398278314" stroke="#0d6d4d" stroke-width="0.1" fill="none" />
<path d="M-119.04061160842993,214.1362481876689 L230.90871940781773,-81.89116742019071" stroke="#0d6d4d" stroke-width="0.1" fill="none" />
<path d="M-121.22919395275522,212.90486733178568 L243.0712479436224,-30.681727838080317" stroke="#0d6d4d" stroke-width="0.1" fill="none" />
<path d="M-123.40504002867155,211.65111881471822 L244.01530926339677,21.943765517541344" stroke="#0d6d4d" stroke-width="0.1" fill="none" />
<path d="M-125.56792124305886,210.37513435455477 L233.69733210539997,73.55648827138504" stroke="#0d6d4d" stroke-width="0.1" fill="none" />
<path d="M-127.71761036487855,209.07704800547828 L212.59352206557145,121.7743584493689" stroke="#0d6d4d" stroke-width="0.1" fill="none" />
<path d="M-129.85388154904516,207.75699614368358 L181.67788328083844,164.37197670708363" stroke="#0d6d4d" stroke-width="0.1" fill="none" />
<path d="M-131.9765103601543,206.4151174530492 L142.37726521654616,199.38333518490776" stroke="#0d6d4d" stroke-width="0.1" fill="none" />
<path d="M-134.08527379606093,205.05155291056778 L96.50550928361407,225.19255466802247" stroke="#0d6d4d" stroke-width="0.1" fill="none" />
<path d="M-136.17995031130815,203.66644577153508 L46.179734616571466,240.6084622592128" stroke="#0d6d4d" stroke-width="0.1" fill="none" />
<path d="M-138.26031984040355,202.2599415544989 L-6.277373325072061,244.91956758115035" stroke="#0d6d4d" stroke-width="0.1" fill="none" />
<path d="M-140.32616382093735,200.83218802597221 L-58.444761657975754,237.92690019151345" stroke="#0d6d4d" stroke-width="0.1" fill="none" />
<path d="M-142.37726521654622,199.3833351849077 L-107.9147489277939,219.9531926657379" stroke="#0d6d4d" stroke-width="0.1" fill="none" />
<path d="M-144.41340853971346,197.9135352469401 L-152.40414683044244,191.82798552058284" stroke="#0d6d4d" stroke-width="0.1" fill="none" />
<path d="M-146.43437987440947,196.42294262839343 L-189.85963620105048,154.84934143096885" stroke="#0d6d4d" stroke-width="0.1" fill="none" />
<path d="M-148.4399668985643,194.91171393005894 L-218.55253385261267,110.72393574382461" stroke="#0d6d4d" stroke-width="0.1" fill="none" />
<path d="M-150.42995890637533,193.38000792074197 L-237.15857649047703,61.48828829143447" stroke="#0d6d4d" stroke-width="0.1" fill="none" />
<path d="M-152.40414683044244,191.82798552058284 L-244.81903943569122,9.414771892375576" stroke="#0d6d4d" stroke-width="0.1" fill="none" />
<path d="M-154.36232326373408,190.25580978414945 L-241.180369344791,-43.09326447033456" stroke="#0d6d4d" stroke-width="0.1" fill="none" />
<path d="M-156.3042824813763,188.66364588330768 L-226.4105017571298,-93.61241741395598" stroke="#0d6d4d" stroke-width="0.1" fill="none" />
<path d="M-158.22982046226608,187.05166108986853 L-201.1911103659932,-139.81107649145238" stroke="#0d6d4d" stroke-width="0.1" fill="none" />
<path d="M-160.1387349105065,185.420024758014 L-166.6861457328862,-179.5570350075848" stroke="#0d6d4d" stroke-width="0.1" fill="none" />
<path d="M-162.03082527665882,183.76890830650558 L-124.48811547770055,-211.01589775372543" stroke="#0d6d4d" stroke-width="0.1" fill="none" />
<path d="M-163.905892778813,182.09848520067445 L-76.54458527512536,-232.73574384924" stroke="#0d6d4d" stroke-width="0.1" fill="none" />
<path d="M-165.7637404234706,180.4089309341981 L-25.068292856787004,-243.71413724535216" stroke="#0d6d4d" stroke-width="0.1" fill="none" />
<path d="M-167.60417302624188,178.70042301066212 L27.564976472456667,-243.44439215573013" stroke="#0d6d4d" stroke-width="0.1" fill="none" />
<path d="M-169.42699723235086,176.97314092491257 L78.92603945280862,-231.93895812539492" stroke="#0d6d4d" stroke-width="0.1" fill="none" />
<path d="M-171.23202153694993,175.22726614419778 L126.6444289636196,-209.7288454468739" stroke="#0d6d4d" stroke-width="0.1" fill="none" />
<path d="M-173.01905630523805,173.46298208910414 L168.51779819152662,-177.83911744236673" stroke="#0d6d4d" stroke-width="0.1" fill="none" />
<path d="M-174.787913792385,171.68047411428532 L202.61356554211184,-137.7415807166171" stroke="#0d6d4d" stroke-width="0.1" fill="none" />
<path d="M-176.53840816325493,169.8799294889894 L227.35810907751184,-91.28685686723047" stroke="#0d6d4d" stroke-width="0.1" fill="none" />
<path d="M-178.27035551192992,168.0615373773848 L241.60939388913098,-40.6189707467676" stroke="#0d6d4d" stroke-width="0.1" fill="none" />
<path d="M-179.98357388103207,166.22548881868593 L244.70968043435352,11.923602715479042" stroke="#0d6d4d" stroke-width="0.1" fill="none" />
<path d="M-181.6778832808384,164.3719767070837 L236.51588118940973,63.91586614602838" stroke="#0d6d4d" stroke-width="0.1" fill="none" />
<path d="M-183.3531057081918,162.5011957714793 L217.4061645678072,112.95822063008757" stroke="#0d6d4d" stroke-width="0.1" fill="none" />
<path d="M-185.009065165201,160.61334255502683 L188.26250131368255,156.7872143993753" stroke="#0d6d4d" stroke-width="0.1" fill="none" />
<path d="M-186.6455876777315,158.70861539448399 L150.42995890637528,193.380007920742" stroke="#0d6d4d" stroke-width="0.1" fill="none" />
<path d="M-188.2625013136824,156.78721439937547 L105.6546226615534,221.04773400839187" stroke="#0d6d4d" stroke-width="0.1" fill="none" />
<path d="M-189.85963620105048,154.84934143096885 L56.0030086562883,238.51344411048132" stroke="#0d6d4d" stroke-width="0.1" fill="none" />
<path d="M-191.43682454577566,152.89520008106825 L3.766687813316997,244.971043315158" stroke="#0d6d4d" stroke-width="0.1" fill="none" />
<path d="M-192.9939006493707,150.92499565062388 L-48.64347697090273,240.12249404872767" stroke="#0d6d4d" stroke-width="0.1" fill="none" />
<path d="M-194.53070092632808,148.9389351281642 L-98.8085993805578,224.19157140368242" stroke="#0d6d4d" stroke-width="0.1" fill="none" />
<path d="M-196.047063921307,146.93722716804945 L-144.41340853971346,197.9135352469401" stroke="#0d6d4d" stroke-width="0.1" fill="none" />
<path d="M-197.54283032609575,144.92008206855027 L-183.3531057081918,162.5011957714793" stroke="#0d6d4d" stroke-width="0.1" fill="none" />
<path d="M-199.01784299634824,142.88771174975432 L-213.8305070570436,119.58893866795383" stroke="#0d6d4d" stroke-width="0.1" fill="none" />
<path d="M-200.4719469680938,140.84032973130172 L-234.43898909313918,71.15729332251871" stroke="#0d6d4d" stroke-width="0.1" fill="none" />
<path d="M-201.904989474017,138.77815110995354 L-244.22740855272346,19.441525444807468" stroke="#0d6d4d" stroke-width="0.1" fill="none" />
<path d="M-203.31681995950822,136.70139253699256 L-242.74400051611508,-33.171527149534604" stroke="#0d6d4d" stroke-width="0.1" fill="none" />
<path d="M-204.7072900984799,134.61027219546358 L-230.05722871387653,-84.25361426366888" stroke="#0d6d4d" stroke-width="0.1" fill="none" />
<path d="M-206.07625380895047,132.50500977724968 L-206.75262572028274,-131.44714434999597" stroke="#0d6d4d" stroke-width="0.1" fill="none" />
<path d="M-207.4235672683907,130.38582645999293 L-173.9057688686386,-172.5739944319759" stroke="#0d6d4d" stroke-width="0.1" fill="none" />
<path d="M-208.74908892883468,128.25294488385626 L-133.0326391310135,-205.73603701305598" stroke="#0d6d4d" stroke-width="0.1" fill="none" />
<path d="M-210.05267953174956,126.10658912813444 L-86.01965404900253,-229.4027443543122" stroke="#0d6d4d" stroke-width="0.1" fill="none" />
<path d="M-211.33420212266708,123.94698468771111 L-35.03660390562786,-242.48182692061715" stroke="#0d6d4d" stroke-width="0.1" fill="none" />
<path d="M-212.59352206557142,121.77435844936898 L17.563490604785684,-244.3696458191475" stroke="#0d6d4d" stroke-width="0.1" fill="none" />
<path d="M-213.8305070570436,119.58893866795383 L69.35297733984207,-234.97907254498082" stroke="#0d6d4d" stroke-width="0.1" fill="none" />
<path d="M-215.04502714016218,117.39095494239284 L117.9416161375004,-214.74351022295065" stroke="#0d6d4d" stroke-width="0.1" fill="none" />
<path d="M-216.23695471815537,115.18063819157464 L161.08689556938518,-184.59689075338727" stroke="#0d6d4d" stroke-width="0.1" fill="none" />
<path d="M-217.4061645678072,112.95822063008752 L196.79753156990697,-145.93057105346867" stroke="#0d6d4d" stroke-width="0.1" fill="none" />
<path d="M-218.55253385261267,110.72393574382461 L223.42537116900178,-100.52911776193895" stroke="#0d6d4d" stroke-width="0.1" fill="none" />
<path d="M-219.67594213568336,108.47801826545273 L239.74145969554598,-50.487944135693425" stroke="#0d6d4d" stroke-width="0.1" fill="none" />
<path d="M-220.77627139240045,106.22070414975202 L244.99276072183613,1.883399557488225" stroke="#0d6d4d" stroke-width="0.1" fill="none" />
<path d="M-221.85340602281374,103.95223054882729 L238.93691095355695,54.167818711592886" stroke="#0d6d4d" stroke-width="0.1" fill="none" />
<path d="M-222.9072328637875,101.67283578719152 L221.85340602281383,103.95223054882713" stroke="#0d6d4d" stroke-width="0.1" fill="none" />
<path d="M-223.9376412008882,99.38275933672931 L194.53070092632805,148.93893512816422" stroke="#0d6d4d" stroke-width="0.1" fill="none" />
<path d="M-224.94452278001714,97.08224179153648 L158.22982046226613,187.05166108986847" stroke="#0d6d4d" stroke-width="0.1" fill="none" />
<path d="M-225.92777181878267,94.7715248426449 L114.62615915319857,216.53139180678997" stroke="#0d6d4d" stroke-width="0.1" fill="none" />
<path d="M-226.88728501761443,92.45085125262932 L65.73215676332218,236.01754927810353" stroke="#0d6d4d" stroke-width="0.1" fill="none" />
<path d="M-227.82296157061535,90.12046483010353 L13.804418166770478,244.61078888527572" stroke="#0d6d4d" stroke-width="0.1" fill="none" />
<path d="M-228.73470317615255,87.78061040410569 L-38.76043573630325,241.91450684390944" stroke="#0d6d4d" stroke-width="0.1" fill="none" />
<path d="M-229.62241404718463,85.43153379837747 L-89.53637926324066,228.053144658058" stroke="#0d6d4d" stroke-width="0.1" fill="none" />
<path d="M-230.48600092132534,83.07348180553653 L-136.17995031130815,203.66644577153508" stroke="#0d6d4d" stroke-width="0.1" fill="none" />
<path d="M-231.32537307064135,80.70670216115012 L-176.53840816325493,169.8799294889894" stroke="#0d6d4d" stroke-width="0.1" fill="none" />
<path d="M-232.14044231118413,78.33144351770743 L-208.74908892883468,128.25294488385626" stroke="#0d6d4d" stroke-width="0.1" fill="none" />
<path d="M-232.9311230122548,75.94795541849577 L-231.32537307064135,80.70670216115012" stroke="#0d6d4d" stroke-width="0.1" fill="none" />
<path d="M-233.69733210539997,73.55648827138504 L-243.22529735506623,29.43560304358671" stroke="#0d6d4d" stroke-width="0.1" fill="none" />
<path d="M-234.43898909313918,71.15729332251871 L-243.89964458103168,-23.194037450310947" stroke="#0d6d4d" stroke-width="0.1" fill="none" />
<path d="M-235.156016057422,68.75062262991875 L-233.31729160126818,-74.75320354238201" stroke="#0d6d4d" stroke-width="0.1" fill="none" />
<path d="M-235.84833766781372,66.33672903700422 L-211.96664574891898,-122.86228505913559" stroke="#0d6d4d" stroke-width="0.1" fill="none" />
<path d="M-236.5158811894097,63.91586614602849 L-180.8331033740748,-165.3009035792036" stroke="#0d6d4d" stroke-width="0.1" fill="none" />
<path d="M-237.15857649047703,61.48828829143447 L-141.35357084639458,-200.1103895577971" stroke="#0d6d4d" stroke-width="0.1" fill="none" />
<path d="M-237.77635604982208,59.054250513136125 L-95.3501470159594,-225.68418080147958" stroke="#0d6d4d" stroke-width="0.1" fill="none" />
<path d="M-238.3691549638848,56.61400852972233 L-44.94602788572381,-240.8419701324828" stroke="#0d6d4d" stroke-width="0.1" fill="none" />
<path d="M-238.93691095355692,54.167818711593 L7.532485252822494,-244.88418010544495" stroke="#0d6d4d" stroke-width="0.1" fill="none" />
<path d="M-239.4795643707254,51.71593805402348 L59.66335160229378,-237.62425060498575" stroke="#0d6d4d" stroke-width="0.1" fill="none" />
<path d="M-239.99705820453872,49.25862415016536 L109.04057530743196,-219.39724915464245" stroke="#0d6d4d" stroke-width="0.1" fill="none" />
<path d="M-240.48933808739648,46.79613516398456 L153.3852493809196,-191.04440654558064" stroke="#0d6d4d" stroke-width="0.1" fill="none" />
<path d="M-240.9563523006614,44.3287298031373 L190.65073409671902,-153.8742915122021" stroke="#0d6d4d" stroke-width="0.1" fill="none" />
<path d="M-241.3980517800925,41.85666729179207 L219.11711555258768,-109.6024163598319" stroke="#0d6d4d" stroke-width="0.1" fill="none" />
<path d="M-241.81439012100023,39.38020734339407 L237.4705848557694,-60.27206092592848" stroke="#0d6d4d" stroke-width="0.1" fill="none" />
<path d="M-242.2053235831212,36.89961013338147 L244.86407434433352,-8.15996908650445" stroke="#0d6d4d" stroke-width="0.1" fill="none" />
<path d="M-242.570811095214,34.41513627184993 L240.9563523006614,44.32872980313729" stroke="#0d6d4d" stroke-width="0.1" fill="none" />
<path d="M-242.9108142593737,31.927046776174887 L225.9277718187827,94.77152484264487" stroke="#0d6d4d" stroke-width="0.1" fill="none" />
<path d="M-243.22529735506623,29.43560304358671 L200.47194696809385,140.84032973130167" stroke="#0d6d4d" stroke-width="0.1" fill="none" />
<path d="M-243.514227342881,26.941066823711235 L165.76374042347064,180.40893093419808" stroke="#0d6d4d" stroke-width="0.1" fill="none" />
<path d="M-243.77757386800192,24.443700191068984 L123.4050400286715,211.65111881471825" stroke="#0d6d4d" stroke-width="0.1" fill="none" />
<path d="M-244.01530926339677,21.943765517541348 L75.35082686727958,233.1249726872204" stroke="#0d6d4d" stroke-width="0.1" fill="none" />
<path d="M-244.22740855272346,19.441525444807468 L23.818947021478152,243.8394097819055" stroke="#0d6d4d" stroke-width="0.1" fill="none" />
<path d="M-244.41384945295445,16.9372428567495 L-28.812248677355775,243.2999266875233" stroke="#0d6d4d" stroke-width="0.1" fill="none" />
<path d="M-244.57461237671745,14.431180851835945 L-80.11367267368861,231.53142216712848" stroke="#0d6d4d" stroke-width="0.1" fill="none" />
<path d="M-244.70968043435352,11.923602715479156 L-127.71761036487855,209.07704800547828" stroke="#0d6d4d" stroke-width="0.1" fill="none" />
<path d="M-244.81903943569122,9.414771892375576 L-169.42699723235086,176.97314092491257" stroke="#0d6d4d" stroke-width="0.1" fill="none" />
<path d="M-244.9026778915377,6.904951958827978 L-203.31681995950822,136.70139253699256" stroke="#0d6d4d" stroke-width="0.1" fill="none" />
<path d="M-244.9605870148856,4.394406595055149 L-227.82296157061535,90.12046483010353" stroke="#0d6d4d" stroke-width="0.1" fill="none" />
<path d="M-244.99276072183613,1.8833995574882851 L-241.81439012100023,39.38020734339407" stroke="#0d6d4d" stroke-width="0.1" fill="none" />
<path d="M-244.99919563223844,-0.6278053489375869 L-244.64535921397518,-13.177564838203176" stroke="#0d6d4d" stroke-width="0.1" fill="none" />
<path d="M-244.9798910700446,-3.1389442984994522 L-236.185211134044,-65.1271528747193" stroke="#0d6d4d" stroke-width="0.1" fill="none" />
<path d="M-244.93484906338065,-5.649753472404122 L-216.82440709239657,-114.07092744880569" stroke="#0d6d4d" stroke-width="0.1" fill="none" />
<path d="M-244.86407434433352,-8.159969086504228 L-187.4565062707735,-157.7499865507299" stroke="#0d6d4d" stroke-width="0.1" fill="none" />
<path d="M-244.76757434845393,-10.669327419011662 L-149.4369253848837,-194.14841058198934" stroke="#0d6d4d" stroke-width="0.1" fill="none" />
<path d="M-244.64535921397518,-13.177564838203176 L-104.52038213722776,-221.58630309179284" stroke="#0d6d4d" stroke-width="0.1" fill="none" />
<path d="M-244.497441780748,-15.684417830118885 L-54.77990973162624,-238.79732303732987" stroke="#0d6d4d" stroke-width="0.1" fill="none" />
<path d="M-244.32383758889162,-18.189623026245155 L-2.511180172534123,-244.98713022144872" stroke="#0d6d4d" stroke-width="0.1" fill="none" />
<path d="M-244.12456487716122,-20.69291723118569 L49.87344788412789,-239.8700464754805" stroke="#0d6d4d" stroke-width="0.1" fill="none" />
<path d="M-243.89964458103168,-23.194037450310947 L99.95626671912396,-223.6822405636517" stroke="#0d6d4d" stroke-width="0.1" fill="none" />
<path d="M-243.64910033049807,-25.692720917389924 L145.42580401337042,-197.17082828619647" stroke="#0d6d4d" stroke-width="0.1" fill="none" />
<path d="M-243.37295844759328,-28.188705122194506 L184.1835042290199,-161.55939084410602" stroke="#0d6d4d" stroke-width="0.1" fill="none" />
<path d="M-243.07124794362244,-30.681727838080146 L214.44058324241968,-118.49150289641396" stroke="#0d6d4d" stroke-width="0.1" fill="none" />
<path d="M-242.74400051611508,-33.171527149534604 L234.80058609710616,-69.95487665956851" stroke="#0d6d4d" stroke-width="0.1" fill="none" />
<path d="M-242.39125054549515,-35.657841479693964 L244.3238375888916,-18.18962302624532" stroke="#0d6d4d" stroke-width="0.1" fill="none" />
<path d="M-242.0130350914688,-38.1404096178253 L242.570811095214,34.41513627185003" stroke="#0d6d4d" stroke-width="0.1" fill="none" />
<path d="M-241.60939388913098,-40.61897074676754 L229.6224140471847,85.4315337983773" stroke="#0d6d4d" stroke-width="0.1" fill="none" />
<path d="M-241.180369344791,-43.09326447033456 L206.07625380895047,132.5050097772497" stroke="#0d6d4d" stroke-width="0.1" fill="none" />
<path d="M-240.72600653151733,-45.563030840670464 L173.01905630523808,173.46298208910412" stroke="#0d6d4d" stroke-width="0.1" fill="none" />
<path d="M-240.246353184402,-48.0280103855611 L131.97651036015432,206.41511745304913" stroke="#0d6d4d" stroke-width="0.1" fill="none" />
<path d="M-239.741459695546,-50.487944135693205 L84.84285258145337,229.84057597787594" stroke="#0d6d4d" stroke-width="0.1" fill="none" />
<path d="M-239.21137910876476,-52.94257365186196 L33.79344265908353,242.6582024849917" stroke="#0d6d4d" stroke-width="0.1" fill="none" />
<path d="M-238.6561671140155,-55.39164105212187 L-18.81563600977534,244.27642506297582" stroke="#0d6d4d" stroke-width="0.1" fill="none" />
<path d="M-238.07588204154666,-57.834889038880064 L-70.55631663686589,234.62055788578783" stroke="#0d6d4d" stroke-width="0.1" fill="none" />
<path d="M-237.47058485576937,-60.27206092592853 L-119.04061160842993,214.1362481876689" stroke="#0d6d4d" stroke-width="0.1" fill="none" />
<path d="M-236.84033914885308,-62.702900665409885 L-162.03082527665882,183.76890830650558" stroke="#0d6d4d" stroke-width="0.1" fill="none" />
<path d="M-236.185211134044,-65.1271528747193 L-197.54283032609575,144.92008206855027" stroke="#0d6d4d" stroke-width="0.1" fill="none" />
<path d="M-235.50526963870948,-67.544562863333 L-223.9376412008882,99.38275933672931" stroke="#0d6d4d" stroke-width="0.1" fill="none" />
<path d="M-234.8005860971062,-69.9548766595684 L-239.99705820453872,49.25862415016536" stroke="#0d6d4d" stroke-width="0.1" fill="none" />
<path d="M-234.07123454287614,-72.35784103726327 L-244.9798910700446,-3.1389442984994522" stroke="#0d6d4d" stroke-width="0.1" fill="none" />
<path d="M-233.31729160126818,-74.75320354238201 L-238.6561671140155,-55.39164105212187" stroke="#0d6d4d" stroke-width="0.1" fill="none" />
<path d="M-232.538836481088,-77.14071251953676 L-221.31774516584454,-105.08784741684595" stroke="#0d6d4d" stroke-width="0.1" fill="none" />
<path d="M-231.73595096637658,-79.5201171384267 L-193.76484540726346,-149.93393439878542" stroke="#0d6d4d" stroke-width="0.1" fill="none" />
<path d="M-230.9087194078177,-81.89116742019077 L-157.26911681059335,-187.8601205621245" stroke="#0d6d4d" stroke-width="0.1" fill="none" />
<path d="M-230.05722871387653,-84.25361426366888 L-113.51494672419594,-217.11599865095837" stroke="#0d6d4d" stroke-width="0.1" fill="none" />
<path d="M-229.18156834166865,-86.60720947157378 L-64.52172134381289,-236.3513221347225" stroke="#0d6d4d" stroke-width="0.1" fill="none" />
<path d="M-228.28183028756206,-88.95170577656569 L-12.550624982221537,-244.67832313581772" stroke="#0d6d4d" stroke-width="0.1" fill="none" />
<path d="M-227.35810907751187,-91.28685686723041 L39.99972036951162,-241.71268558013435" stroke="#0d6d4d" stroke-width="0.1" fill="none" />
<path d="M-226.4105017571298,-93.61241741395598 L90.70395864189211,-227.59128253667785" stroke="#0d6d4d" stroke-width="0.1" fill="none" />
<path d="M-225.43910788148804,-95.9281430947081 L137.22193714477385,-202.96585911486625" stroke="#0d6d4d" stroke-width="0.1" fill="none" />
<path d="M-224.44402950466082,-98.23379062069706 L177.4067116335968,-168.97295247273695" stroke="#0d6d4d" stroke-width="0.1" fill="none" />
<path d="M-223.42537116900178,-100.52911776193895 L209.4036342263088,-127.18143721791431" stroke="#0d6d4d" stroke-width="0.1" fill="none" />
<path d="M-222.38323989416176,-102.81388337270266 L231.73595096637658,-79.5201171384267" stroke="#0d6d4d" stroke-width="0.1" fill="none" />
<path d="M-221.31774516584454,-105.08784741684595 L243.37295844759328,-28.188705122194563" stroke="#0d6d4d" stroke-width="0.1" fill="none" />
<path d="M-220.2289989243048,-107.35077099303278 L243.77757386800192,24.443700191068874" stroke="#0d6d4d" stroke-width="0.1" fill="none" />
<path d="M-219.11711555258773,-109.60241635983175 L232.93112301225477,75.94795541849587" stroke="#0d6d4d" stroke-width="0.1" fill="none" />
<path d="M-217.98221186451173,-111.8425469606943 L211.33420212266716,123.94698468771095" stroke="#0d6d4d" stroke-width="0.1" fill="none" />
<path d="M-216.82440709239657,-114.07092744880569 L179.98357388103204,166.22548881868593" stroke="#0d6d4d" stroke-width="0.1" fill="none" />
<path d="M-215.64382287453606,-116.2873237118119 L140.3261638209374,200.83218802597216" stroke="#0d6d4d" stroke-width="0.1" fill="none" />
<path d="M-214.4405832424197,-118.49150289641389 L94.19228037415249,226.16987933391363" stroke="#0d6d4d" stroke-width="0.1" fill="none" />
<path d="M-213.21481460770136,-120.68323343283252 L43.71114064625578,241.06915228498906" stroke="#0d6d4d" stroke-width="0.1" fill="none" />
<path d="M-211.96664574891898,-122.86228505913559 L-8.78739933964696,244.84236074022317" stroke="#0d6d4d" stroke-width="0.1" fill="none" />
<path d="M-210.69620779796477,-125.02842884543037 L-60.880374487091885,237.3153598111834" stroke="#0d6d4d" stroke-width="0.1" fill="none" />
<path d="M-209.4036342263088,-127.18143721791428 L-110.16353773345368,218.83554316895126" stroke="#0d6d4d" stroke-width="0.1" fill="none" />
<path d="M-208.08906083097682,-129.32108398278305 L-154.36232326373408,190.25580978414945" stroke="#0d6d4d" stroke-width="0.1" fill="none" />
<path d="M-206.75262572028274,-131.44714434999597 L-191.43682454577566,152.89520008106825" stroke="#0d6d4d" stroke-width="0.1" fill="none" />
<path d="M-205.39446929932012,-133.55939495689043 L-219.67594213568336,108.47801826545273" stroke="#0d6d4d" stroke-width="0.1" fill="none" />
<path d="M-204.01473425521007,-135.6576138916501 L-237.77635604982208,59.054250513136125" stroke="#0d6d4d" stroke-width="0.1" fill="none" />
<path d="M-202.61356554211187,-137.74158071661705 L-244.9026778915377,6.904951958827978" stroke="#0d6d4d" stroke-width="0.1" fill="none" />
<path d="M-201.1911103659932,-139.81107649145238 L-240.72600653151733,-45.563030840670464" stroke="#0d6d4d" stroke-width="0.1" fill="none" />
<path d="M-199.74751816916512,-141.865883796137 L-225.43910788148804,-95.9281430947081" stroke="#0d6d4d" stroke-width="0.1" fill="none" />
<path d="M-198.28294061458178,-143.90578675381417 L-199.74751816916512,-141.865883796137" stroke="#0d6d4d" stroke-width="0.1" fill="none" />
<path d="M-196.7975315699071,-145.93057105346853 L-164.8369813249954,-181.25608841543257" stroke="#0d6d4d" stroke-width="0.1" fill="none" />
<path d="M-195.29144709134866,-147.94002397244287 L-122.3187233429777,-212.28078085343498" stroke="#0d6d4d" stroke-width="0.1" fill="none" />
<path d="M-193.76484540726346,-149.93393439878542 L-74.15508936795814,-233.50807849158053" stroke="#0d6d4d" stroke-width="0.1" fill="none" />
<path d="M-192.2178869015342,-151.91209285342956 L-22.568975580891085,-243.9582778698627" stroke="#0d6d4d" stroke-width="0.1" fill="none" />
<path d="M-190.65073409671896,-153.87429151220215 L30.05876412777555,-243.1490709402583" stroke="#0d6d4d" stroke-width="0.1" fill="none" />
<path d="M-189.06355163697773,-155.82032422765604 L81.29920170682101,-231.11780502988867" stroke="#0d6d4d" stroke-width="0.1" fill="none" />
<path d="M-187.4565062707735,-157.7499865507299 L128.78743725969778,-208.41975914984505" stroke="#0d6d4d" stroke-width="0.1" fill="none" />
<path d="M-185.82976683335548,-159.66307575222498 L170.33174626857792,-176.10251620319565" stroke="#0d6d4d" stroke-width="0.1" fill="none" />
<path d="M-184.18350422901992,-161.559390844106 L204.01473425521007,-135.65761389165007" stroke="#0d6d4d" stroke-width="0.1" fill="none" />
<path d="M-182.51789141315615,-163.43873260061503 L228.281830287562,-88.95170577656583" stroke="#0d6d4d" stroke-width="0.1" fill="none" />
<path d="M-180.8331033740748,-165.3009035792036 L242.0130350914688,-38.140409617825306" stroke="#0d6d4d" stroke-width="0.1" fill="none" />
<path d="M-179.1293171146249,-167.14570814127458 L244.57461237671745,14.43118085183594" stroke="#0d6d4d" stroke-width="0.1" fill="none" />
<path d="M-177.4067116335968,-168.97295247273695 L235.84833766781372,66.33672903700416" stroke="#0d6d4d" stroke-width="0.1" fill="none" />
<path d="M-175.665467906918,-170.78244460436665 L216.2369547181554,115.1806381915746" stroke="#0d6d4d" stroke-width="0.1" fill="none" />
<path d="M-173.9057688686386,-172.5739944319759 L186.64558767773156,158.70861539448393" stroke="#0d6d4d" stroke-width="0.1" fill="none" />
<path d="M-172.1277993917131,-174.3474137363849 L148.43996689856436,194.91171393005888" stroke="#0d6d4d" stroke-width="0.1" fill="none" />
<path d="M-170.331746268578,-176.10251620319562 L103.38339638227983,222.11905220503803" stroke="#0d6d4d" stroke-width="0.1" fill="none" />
<path d="M-168.51779819152662,-177.83911744236673 L53.55537201117528,239.0749299461251" stroke="#0d6d4d" stroke-width="0.1" fill="none" />
<path d="M-166.6861457328862,-179.5570350075848 L1.255606575537145,244.99678253423548" stroke="#0d6d4d" stroke-width="0.1" fill="none" />
<path d="M-164.8369813249954,-181.25608841543257 L-51.10210886991524,239.61129870907033" stroke="#0d6d4d" stroke-width="0.1" fill="none" />
<path d="M-162.97049923998878,-182.93609916434977 L-101.10130870368101,223.16703470361162" stroke="#0d6d4d" stroke-width="0.1" fill="none" />
<path d="M-161.08689556938532,-184.59689075338716 L-146.43437987440947,196.42294262839343" stroke="#0d6d4d" stroke-width="0.1" fill="none" />
<path d="M-159.18636820348786,-186.23828870074917 L-185.009065165201,160.61334255502683" stroke="#0d6d4d" stroke-width="0.1" fill="none" />
<path d="M-157.26911681059335,-187.8601205621245 L-215.04502714016218,117.39095494239284" stroke="#0d6d4d" stroke-width="0.1" fill="none" />
<path d="M-155.3353428160145,-189.46221594880404 L-235.156016057422,68.75062262991875" stroke="#0d6d4d" stroke-width="0.1" fill="none" />
<path d="M-153.38524938091965,-191.0444065455806 L-244.41384945295445,16.9372428567495" stroke="#0d6d4d" stroke-width="0.1" fill="none" />
<path d="M-151.4190413809874,-192.60652612843325 L-242.39125054549515,-35.657841479693964" stroke="#0d6d4d" stroke-width="0.1" fill="none" />
<path d="M-149.4369253848837,-194.14841058198934 L-229.18156834166865,-86.60720947157378" stroke="#0d6d4d" stroke-width="0.1" fill="none" />
<path d="M-147.43910963255868,-195.66989791676784 L-205.39446929932012,-133.55939495689043" stroke="#0d6d4d" stroke-width="0.1" fill="none" />
<path d="M-145.42580401337042,-197.17082828619647 L-172.1277993917131,-174.3474137363849" stroke="#0d6d4d" stroke-width="0.1" fill="none" />
<path d="M-143.39722004403285,-198.6510440034062 L-130.91691522273337,-207.0887763944817" stroke="#0d6d4d" stroke-width="0.1" fill="none" />
<path d="M-141.35357084639458,-200.1103895577971 L-83.66382271412022,-230.27237083258657" stroke="#0d6d4d" stroke-width="0.1" fill="none" />
<path d="M-139.29507112504814,-201.54871163137656 L-32.54939382686726,-242.8282046252113" stroke="#0d6d4d" stroke-width="0.1" fill="none" />
<path d="M-137.22193714477382,-202.96585911486625 L20.06728722158391,-244.17678837999006" stroke="#0d6d4d" stroke-width="0.1" fill="none" />
<path d="M-135.1343867078186,-204.36168312357808 L71.75780277035302,-234.25588091138954" stroke="#0d6d4d" stroke-width="0.1" fill="none" />
<path d="M-133.0326391310135,-205.73603701305598 L120.13648047452322,-213.52336185812197" stroke="#0d6d4d" stroke-width="0.1" fill="none" />
<path d="M-130.91691522273337,-207.0887763944817 L162.97049923998873,-182.93609916434983" stroke="#0d6d4d" stroke-width="0.1" fill="none" />
<path d="M-128.78743725969787,-208.419759149845 L198.28294061458172,-143.90578675381425" stroke="#0d6d4d" stroke-width="0.1" fill="none" />
<path d="M-126.64442896361976,-209.72884544687378 L224.44402950466076,-98.23379062069718" stroke="#0d6d4d" stroke-width="0.1" fill="none" />
<path d="M-124.48811547770055,-211.01589775372543 L240.24635318440198,-48.02801038556127" stroke="#0d6d4d" stroke-width="0.1" fill="none" />
<path d="M-122.3187233429777,-212.28078085343498 L244.9605870148856,4.3944065950549795" stroke="#0d6d4d" stroke-width="0.1" fill="none" />
<path d="M-120.13648047452325,-213.52336185812194 L238.3691549638848,56.61400852972232" stroke="#0d6d4d" stroke-width="0.1" fill="none" />
<path d="M-117.94161613750052,-214.74351022295056 L220.77627139240047,106.22070414975198" stroke="#0d6d4d" stroke-width="0.1" fill="none" />
<path d="M-115.73436092307621,-215.94109775984546 L192.99390064937074,150.92499565062383" stroke="#0d6d4d" stroke-width="0.1" fill="none" />
<path d="M-113.51494672419594,-217.11599865095837 L156.30428248137628,188.6636458833077" stroke="#0d6d4d" stroke-width="0.1" fill="none" />
<path d="M-111.28360671122135,-218.26808946188677 L112.40075282209285,217.69490293763607" stroke="#0d6d4d" stroke-width="0.1" fill="none" />
<path d="M-109.04057530743201,-219.39724915464242 L63.30959125957311,236.67888721756697" stroke="#0d6d4d" stroke-width="0.1" fill="none" />
<path d="M-106.7860881643995,-220.5033591003663 L11.296502155172591,244.7394309036821" stroke="#0d6d4d" stroke-width="0.1" fill="none" />
<path d="M-104.52038213722776,-221.58630309179284 L-41.23795440899847,241.504515726231" stroke="#0d6d4d" stroke-width="0.1" fill="none" />
<path d="M-102.24369525967086,-222.64596735545774 L-91.86915567865263,227.12344272419676" stroke="#0d6d4d" stroke-width="0.1" fill="none" />
<path d="M-99.95626671912395,-223.6822405636517 L-138.26031984040355,202.2599415544989" stroke="#0d6d4d" stroke-width="0.1" fill="none" />
<path d="M-97.65833683149567,-224.69501384611573 L-178.27035551192992,168.0615373773848" stroke="#0d6d4d" stroke-width="0.1" fill="none" />
<path d="M-95.3501470159594,-225.68418080147958 L-210.05267953174956,126.10658912813444" stroke="#0d6d4d" stroke-width="0.1" fill="none" />
<path d="M-93.03193976959125,-226.64963750843975 L-232.14044231118413,78.33144351770743" stroke="#0d6d4d" stroke-width="0.1" fill="none" />
<path d="M-90.70395864189224,-227.5912825366778 L-243.514227342881,26.941066823711235" stroke="#0d6d4d" stroke-width="0.1" fill="none" />
<path d="M-88.36644820920164,-228.5090169575163 L-243.64910033049807,-25.692720917389924" stroke="#0d6d4d" stroke-width="0.1" fill="none" />
<path d="M-86.01965404900253,-229.4027443543122 L-232.538836481088,-77.14071251953676" stroke="#0d6d4d" stroke-width="0.1" fill="none" />
<path d="M-83.66382271412022,-230.27237083258657 L-210.69620779796477,-125.02842884543037" stroke="#0d6d4d" stroke-width="0.1" fill="none" />
<path d="M-81.29920170682107,-231.11780502988864 L-179.1293171146249,-167.14570814127458" stroke="#0d6d4d" stroke-width="0.1" fill="none" />
<path d="M-78.92603945280857,-231.93895812539495 L-139.29507112504814,-201.54871163137656" stroke="#0d6d4d" stroke-width="0.1" fill="none" />
<path d="M-76.54458527512536,-232.73574384924 L-93.03193976959125,-226.64963750843975" stroke="#0d6d4d" stroke-width="0.1" fill="none" />
<path d="M-74.15508936795814,-233.50807849158053 L-42.47510533251388,-241.29000274978623" stroke="#0d6d4d" stroke-width="0.1" fill="none" />
<path d="M-71.75780277035324,-234.25588091138948 L10.042082625193645,-244.79411058387166" stroke="#0d6d4d" stroke-width="0.1" fill="none" />
<path d="M-69.35297733984216,-234.9790725449808 L62.09579834723166,-237.0002359231314" stroke="#0d6d4d" stroke-width="0.1" fill="none" />
<path d="M-66.94086572598243,-235.6775774142631 L111.28360671122121,-218.26808946188686" stroke="#0d6d4d" stroke-width="0.1" fill="none" />
<path d="M-64.52172134381289,-236.3513221347225 L155.3353428160145,-189.46221594880404" stroke="#0d6d4d" stroke-width="0.1" fill="none" />
<path d="M-62.095798347231586,-237.0002359231314 L192.21788690153417,-151.9120928534296" stroke="#0d6d4d" stroke-width="0.1" fill="none" />
<path d="M-59.663351602293815,-237.62425060498575 L220.22899892430476,-107.35077099303282" stroke="#0d6d4d" stroke-width="0.1" fill="none" />
<path d="M-57.22463666043542,-238.22330062166705 L238.07588204154663,-57.83488903888018" stroke="#0d6d4d" stroke-width="0.1" fill="none" />
<path d="M-54.77990973162624,-238.79732303732987 L244.93484906338065,-5.649753472404236" stroke="#0d6d4d" stroke-width="0.1" fill="none" />
<path d="M-52.329427657451305,-239.3462575455141 L240.4893380873965,46.796135163984395" stroke="#0d6d4d" stroke-width="0.1" fill="none" />
<path d="M-49.87344788412807,-239.87004647548045 L224.9445227800171,97.08224179153652" stroke="#0d6d4d" stroke-width="0.1" fill="none" />
<path d="M-47.41222843545884,-240.3686347982695 L199.01784299634835,142.88771174975417" stroke="#0d6d4d" stroke-width="0.1" fill="none" />
<path d="M-44.94602788572381,-240.8419701324828 L163.90589277881298,182.0984852006745" stroke="#0d6d4d" stroke-width="0.1" fill="none" />
<path d="M-42.47510533251388,-241.29000274978623 L121.22919395275537,212.9048673317856" stroke="#0d6d4d" stroke-width="0.1" fill="none" />
<path d="M-39.999720369511735,-241.71268558013432 L72.95740418323813,233.88505120003637" stroke="#0d6d4d" stroke-width="0.1" fill="none" />
<path d="M-37.520133059217386,-242.10997421671547 L21.318411365558774,244.0707383871504" stroke="#0d6d4d" stroke-width="0.1" fill="none" />
<path d="M-35.03660390562786,-242.48182692061715 L-31.30449008395449,242.9918288761653" stroke="#0d6d4d" stroke-width="0.1" fill="none" />
<path d="M-32.54939382686726,-242.8282046252113 L-82.48259541425388,230.69811757734067" stroke="#0d6d4d" stroke-width="0.1" fill="none" />
<path d="M-30.0587641277756,-243.14907094025827 L-129.85388154904516,207.75699614368358" stroke="#0d6d4d" stroke-width="0.1" fill="none" />
<path d="M-27.564976472456802,-243.4443921557301 L-171.23202153694993,175.22726614419778" stroke="#0d6d4d" stroke-width="0.1" fill="none" />
<path d="M-25.068292856787004,-243.71413724535216 L-204.7072900984799,134.61027219546358" stroke="#0d6d4d" stroke-width="0.1" fill="none" />
<path d="M-22.568975580891085,-243.9582778698627 L-228.73470317615255,87.78061040410569" stroke="#0d6d4d" stroke-width="0.1" fill="none" />
<path d="M-20.06728722158389,-244.17678837999006 L-242.2053235831212,36.89961013338147" stroke="#0d6d4d" stroke-width="0.1" fill="none" />
<path d="M-17.563490604785756,-244.3696458191475 L-244.497441780748,-15.684417830118885" stroke="#0d6d4d" stroke-width="0.1" fill="none" />
<path d="M-15.057848777908449,-244.53682992584498 L-235.50526963870948,-67.544562863333" stroke="#0d6d4d" stroke-width="0.1" fill="none" />
<path d="M-12.550624982221537,-244.67832313581772 L-215.64382287453606,-116.2873237118119" stroke="#0d6d4d" stroke-width="0.1" fill="none" />
<path d="M-10.042082625193773,-244.79411058387166 L-185.82976683335548,-159.66307575222498" stroke="#0d6d4d" stroke-width="0.1" fill="none" />
<path d="M-7.532485252822497,-244.88418010544495 L-147.43910963255868,-195.66989791676784" stroke="#0d6d4d" stroke-width="0.1" fill="none" />
<path d="M-5.022096521944135,-244.9485222378863 L-102.24369525967086,-222.64596735545774" stroke="#0d6d4d" stroke-width="0.1" fill="none" />
<path d="M-2.511180172534123,-244.98713022144872 L-52.329427657451305,-239.3462575455141" stroke="#0d6d4d" stroke-width="0.1" fill="none" />
</svg>