<?xml version="1.0" encoding="UTF-8"?>
<svg xmlns="http://www.w3.org/2000/svg" xmlns:xlink="http://www.w3.org/1999/xlink"
     width="500.0" height="500" viewBox="-250.0 -250.0 500 500">
<defs>
</defs>
<circle cx="0" cy="0" r="245.0" fill="white" stroke-width="2" stroke="black" />
<path d="M0.0,-245.0 L0.0,-245.0" stroke="#0d6d4d" stroke-width="0.1" fill="none" />
<path d="M2.332359315196278,-244.98889791177234 L48.654664328207645,-240.1202274676364" stroke="#0d6d4d" stroke-width="0.1" fill="none" />
<path d="M4.664507250319936,-244.9555926532638 L95.37117604776093,-225.67529501313828" stroke="#0d6d4d" stroke-width="0.1" fill="none" />
<path d="M6.996232444455582,-244.90008724290635 L138.28858862235845,-202.24061475587962" stroke="#0d6d4d" stroke-width="0.1" fill="none" />
<path d="M9.327323575000538,-244.82238671111602 L175.69729216594604,-170.7497043205469" stroke="#0d6d4d" stroke-width="0.1" fill="none" />
<path d="M11.657569376816861,-244.72249809983694 L206.1071155436394,-132.45700027662141" stroke="#0d6d4d" stroke-width="0.1" fill="none" />
<path d="M13.986758661378154,-244.60043046190324 L228.30668715680585,-88.88788781090703" stroke="#0d6d4d" stroke-width="0.1" fill="none" />
<path d="M16.31468033590943,-244.45619486021843 L241.4116897826848,-41.7779371949928" stroke="#0d6d4d" stroke-width="0.1" fill="none" />
<path d="M18.641123422518294,-244.28980436675297 L244.90008724290635,6.996232444455606" stroke="#0d6d4d" stroke-width="0.1" fill="none" />
<path d="M20.965877077315735,-244.1012740613594 L238.6329196508717,55.4917080193123" stroke="#0d6d4d" stroke-width="0.1" fill="none" />
<path d="M23.28873060952475,-243.89062103040573 L222.85983886185699,101.7766781854622" stroke="#0d6d4d" stroke-width="0.1" fill="none" />
<path d="M25.609473500575096,-243.65786436522694 L198.20916362186213,144.0073868116559" stroke="#0d6d4d" stroke-width="0.1" fill="none" />
<path d="M27.927895423182452,-243.4030251603948 L165.6628505671347,180.50157877971924" stroke="#0d6d4d" stroke-width="0.1" fill="none" />
<path d="M30.24378626041021,-243.12612651180584 L126.51737810154567,209.80551241163928" stroke="#0d6d4d" stroke-width="0.1" fill="none" />
<path d="M32.556936124712244,-242.8271935145885 L82.33210133778033,230.75186909168355" stroke="#0d6d4d" stroke-width="0.1" fill="none" />
<path d="M34.86713537695486,-242.50625326082852 L34.86713537695487,242.50625326082852" stroke="#0d6d4d" stroke-width="0.1" fill="none" />
<path d="M37.174174645416244,-242.16333483711378 L-13.986758661378204,244.60043046190324" stroke="#0d6d4d" stroke-width="0.1" fill="none" />
<path d="M39.4778448447617,-241.79846932189815 L-62.28349187740419,236.95097940197954" stroke="#0d6d4d" stroke-width="0.1" fill="none" />
<path d="M41.77793719499282,-241.4116897826848 L-108.09916980458927,219.8626150293828" stroke="#0d6d4d" stroke-width="0.1" fill="none" />
<path d="M44.0742432403692,-241.00303127302936 L-149.60873051068225,194.01605025095745" stroke="#0d6d4d" stroke-width="0.1" fill="none" />
<path d="M46.3665548683005,-240.57253082936313 L-185.1586457167933,160.4408798165948" stroke="#0d6d4d" stroke-width="0.1" fill="none" />
<path d="M48.654664328207645,-240.1202274676364 L-213.33278889434538,120.47456653817301" stroke="#0d6d4d" stroke-width="0.1" fill="none" />
<path d="M50.93836425035103,-239.64616217978238 L-233.0088464923126,75.70916362186215" stroke="#0d6d4d" stroke-width="0.1" fill="none" />
<path d="M53.2174476646244,-239.15037793000235 L-243.4030251603948,27.927895423182438" stroke="#0d6d4d" stroke-width="0.1" fill="none" />
<path d="M55.49170801931227,-238.6329196508717 L-244.1012740613594,-20.96587707731581" stroke="#0d6d4d" stroke-width="0.1" fill="none" />
<path d="M57.76093919980967,-238.0938342392677 L-235.07577853555188,-69.0244764261502" stroke="#0d6d4d" stroke-width="0.1" fill="none" />
<path d="M60.02493554730211,-237.53317055211937 L-216.68606809446453,-114.33349419029004" stroke="#0d6d4d" stroke-width="0.1" fill="none" />
<path d="M62.2834918774043,-236.9509794019795 L-189.66469460657518,-155.08805118317323" stroke="#0d6d4d" stroke-width="0.1" fill="none" />
<path d="M64.53640349875589,-236.34731355241965 L-155.08805118317318,-189.66469460657524" stroke="#0d6d4d" stroke-width="0.1" fill="none" />
<path d="M66.78346623157246,-235.72222771324817 L-114.33349419029011,-216.68606809446447" stroke="#0d6d4d" stroke-width="0.1" fill="none" />
<path d="M69.02447642615027,-235.07577853555185 L-69.02447642615029,-235.07577853555185" stroke="#0d6d4d" stroke-width="0.1" fill="none" />
<path d="M71.25923098132277,-234.4080246065618 L-20.9658770773157,-244.1012740613594" stroke="#0d6d4d" stroke-width="0.1" fill="none" />
<path d="M73.48752736286761,-233.7190264443436 L27.927895423182452,-243.4030251603948" stroke="#0d6d4d" stroke-width="0.1" fill="none" />
<path d="M75.70916362186212,-233.0088464923126 L75.70916362186212,-233.0088464923126" stroke="#0d6d4d" stroke-width="0.1" fill="none" />
<path d="M77.92393841298585,-232.27754911357488 L120.47456653817292,-213.3327888943454" stroke="#0d6d4d" stroke-width="0.1" fill="none" />
<path d="M80.13165101276829,-231.52520058509378 L160.44087981659484,-185.15864571679327" stroke="#0d6d4d" stroke-width="0.1" fill="none" />
<path d="M82.33210133778037,-230.75186909168355 L194.01605025095736,-149.60873051068236" stroke="#0d6d4d" stroke-width="0.1" fill="none" />
<path d="M84.52508996276781,-229.95762471982965 L219.86261502938282,-108.09916980458921" stroke="#0d6d4d" stroke-width="0.1" fill="none" />
<path d="M86.7104181387249,-229.14253945133692 L236.9509794019795,-62.28349187740429" stroke="#0d6d4d" stroke-width="0.1" fill="none" />
<path d="M88.88788781090705,-228.30668715680582 L244.60043046190324,-13.986758661378142" stroke="#0d6d4d" stroke-width="0.1" fill="none" />
<path d="M91.05730163678024,-227.45014358893778 L242.50625326082852,34.86713537695488" stroke="#0d6d4d" stroke-width="0.1" fill="none" />
<path d="M93.21846300390614,-226.57298637566964 L230.75186909168355,82.3321013377804" stroke="#0d6d4d" stroke-width="0.1" fill="none" />
<path d="M95.37117604776093,-225.67529501313828 L209.8055124116393,126.51737810154565" stroke="#0d6d4d" stroke-width="0.1" fill="none" />
<path d="M97.51524566948623,-224.75715085847602 L180.50157877971918,165.66285056713477" stroke="#0d6d4d" stroke-width="0.1" fill="none" />
<path d="M99.65047755357104,-223.81863712243722 L144.00738681165595,198.2091636218621" stroke="#0d6d4d" stroke-width="0.1" fill="none" />
<path d="M101.77667818546217,-222.85983886185699 L101.77667818546213,222.859838861857" stroke="#0d6d4d" stroke-width="0.1" fill="none" />
<path d="M103.89365486910242,-221.88084297194257 L55.491708019312284,238.6329196508717" stroke="#0d6d4d" stroke-width="0.1" fill="none" />
<path d="M106.00121574439453,-220.8817381783979 L6.996232444455543,244.90008724290635" stroke="#0d6d4d" stroke-width="0.1" fill="none" />
<path d="M108.09916980458921,-219.86261502938282 L-41.77793719499271,241.41168978268482" stroke="#0d6d4d" stroke-width="0.1" fill="none" />
<path d="M110.1873269135961,-218.82356588730636 L-88.8878878109071,228.30668715680582" stroke="#0d6d4d" stroke-width="0.1" fill="none" />
<path d="M112.26549782321555,-217.76468492045626 L-132.45700027662133,206.10711554363945" stroke="#0d6d4d" stroke-width="0.1" fill="none" />
<path d="M114.33349419029005,-216.6860680944645 L-170.74970432054695,175.697292165946" stroke="#0d6d4d" stroke-width="0.1" fill="none" />
<path d="M116.39112859377374,-215.58781316361004 L-202.24061475587962,138.28858862235845" stroke="#0d6d4d" stroke-width="0.1" fill="none" />
<path d="M118.43821455171813,-214.47001966195924 L-225.6752950131383,95.37117604776087" stroke="#0d6d4d" stroke-width="0.1" fill="none" />
<path d="M120.47456653817292,-213.3327888943454 L-240.12022746763637,48.654664328207744" stroke="#0d6d4d" stroke-width="0.1" fill="none" />
<path d="M122.5,-212.17622392718746 L-245.0,4.500576986866523e-14" stroke="#0d6d4d" stroke-width="0.1" fill="none" />
<path d="M124.51433137359942,-211.00042957914914 L-240.1202274676364,-48.65466432820765" stroke="#0d6d4d" stroke-width="0.1" fill="none" />
<path d="M126.51737810154565,-209.8055124116393 L-225.67529501313825,-95.37117604776098" stroke="#0d6d4d" stroke-width="0.1" fill="none" />
<path d="M128.5089586491326,-208.59158071915445 L-202.24061475587968,-138.28858862235836" stroke="#0d6d4d" stroke-width="0.1" fill="none" />
<path d="M130.48889252082594,-207.35874451946398 L-170.74970432054693,-175.69729216594604" stroke="#0d6d4d" stroke-width="0.1" fill="none" />
<path d="M132.45700027662141,-206.1071155436394 L-132.4570002766214,-206.1071155436394" stroke="#0d6d4d" stroke-width="0.1" fill="none" />
<path d="M134.41310354830716,-204.83680722592817 L-88.88788781090696,-228.30668715680585" stroke="#0d6d4d" stroke-width="0.1" fill="none" />
<path d="M136.3570250556292,-203.54793469347337 L-41.77793719499291,-241.4116897826848" stroke="#0d6d4d" stroke-width="0.1" fill="none" />
<path d="M138.28858862235845,-202.24061475587962 L6.996232444455582,-244.90008724290635" stroke="#0d6d4d" stroke-width="0.1" fill="none" />
<path d="M140.20761919225694,-200.91496589462682 L55.49170801931227,-238.6329196508717" stroke="#0d6d4d" stroke-width="0.1" fill="none" />
<path d="M142.11394284494355,-199.57110825233227 L101.77667818546217,-222.85983886185699" stroke="#0d6d4d" stroke-width="0.1" fill="none" />
<path d="M144.00738681165592,-198.20916362186213 L144.00738681165592,-198.20916362186213" stroke="#0d6d4d" stroke-width="0.1" fill="none" />
<path d="M145.88777949090854,-196.8292554352936 L180.50157877971918,-165.6628505671348" stroke="#0d6d4d" stroke-width="0.1" fill="none" />
<path d="M147.75495046404492,-195.43150875272806 L209.80551241163928,-126.51737810154567" stroke="#0d6d4d" stroke-width="0.1" fill="none" />
<path d="M149.60873051068236,-194.0160502509574 L230.75186909168355,-82.33210133778037" stroke="#0d6d4d" stroke-width="0.1" fill="none" />
<path d="M151.44895162404828,-192.58300821198293 L242.50625326082852,-34.867135376954856" stroke="#0d6d4d" stroke-width="0.1" fill="none" />
<path d="M153.27544702620676,-191.13251251138956 L244.60043046190324,13.986758661378111" stroke="#0d6d4d" stroke-width="0.1" fill="none" />
<path d="M155.08805118317323,-189.6646946065752 L236.9509794019795,62.28349187740426" stroke="#0d6d4d" stroke-width="0.1" fill="none" />
<path d="M156.88659981991694,-188.17968752483682 L219.86261502938282,108.09916980458918" stroke="#0d6d4d" stroke-width="0.1" fill="none" />
<path d="M158.67092993524898,-186.67762585131436 L194.0160502509574,149.60873051068236" stroke="#0d6d4d" stroke-width="0.1" fill="none" />
<path d="M160.44087981659484,-185.15864571679327 L160.44087981659487,185.15864571679325" stroke="#0d6d4d" stroke-width="0.1" fill="none" />
<path d="M162.19628905465052,-183.62288478536726 L120.47456653817291,213.3327888943454" stroke="#0d6d4d" stroke-width="0.1" fill="none" />
<path d="M163.93699855792028,-182.0704822419616 L75.70916362186215,233.0088464923126" stroke="#0d6d4d" stroke-width="0.1" fill="none" />
<path d="M165.66285056713474,-180.5015787797192 L27.927895423182424,243.4030251603948" stroke="#0d6d4d" stroke-width="0.1" fill="none" />
<path d="M167.37368866954895,-178.91631658724955 L-20.965877077315607,244.1012740613594" stroke="#0d6d4d" stroke-width="0.1" fill="none" />
<path d="M169.06935781311742,-177.3148393357422 L-69.02447642615031,235.07577853555185" stroke="#0d6d4d" stroke-width="0.1" fill="none" />
<path d="M170.7497043205469,-175.6972921659461 L-114.33349419028995,216.68606809446456" stroke="#0d6d4d" stroke-width="0.1" fill="none" />
<path d="M172.4145759032236,-174.06382167501536 L-155.08805118317326,189.66469460657518" stroke="#0d6d4d" stroke-width="0.1" fill="none" />
<path d="M174.06382167501533,-172.41457590322364 L-189.66469460657513,155.08805118317335" stroke="#0d6d4d" stroke-width="0.1" fill="none" />
<path d="M175.69729216594604,-170.7497043205469 L-216.68606809446447,114.3334941902901" stroke="#0d6d4d" stroke-width="0.1" fill="none" />
<path d="M177.31483933574216,-169.06935781311745 L-235.07577853555185,69.02447642615027" stroke="#0d6d4d" stroke-width="0.1" fill="none" />
<path d="M178.91631658724953,-167.37368866954895 L-244.1012740613594,20.96587707731568" stroke="#0d6d4d" stroke-width="0.1" fill="none" />
<path d="M180.50157877971918,-165.6628505671348 L-243.4030251603948,-27.92789542318235" stroke="#0d6d4d" stroke-width="0.1" fill="none" />
<path d="M182.07048224196157,-163.9369985579203 L-233.00884649231264,-75.70916362186207" stroke="#0d6d4d" stroke-width="0.1" fill="none" />
<path d="M183.62288478536723,-162.19628905465055 L-213.3327888943454,-120.47456653817292" stroke="#0d6d4d" stroke-width="0.1" fill="none" />
<path d="M185.15864571679327,-160.44087981659484 L-185.15864571679325,-160.44087981659487" stroke="#0d6d4d" stroke-width="0.1" fill="none" />
<path d="M186.67762585131433,-158.670929935249 L-149.60873051068242,-194.01605025095733" stroke="#0d6d4d" stroke-width="0.1" fill="none" />
<path d="M188.1796875248368,-156.886599819917 L-108.09916980458924,-219.8626150293828" stroke="#0d6d4d" stroke-width="0.1" fill="none" />
<path d="M189.66469460657518,-155.08805118317326 L-62.28349187740427,-236.9509794019795" stroke="#0d6d4d" stroke-width="0.1" fill="none" />
<path d="M191.13251251138956,-153.27544702620676 L-13.986758661378076,-244.60043046190324" stroke="#0d6d4d" stroke-width="0.1" fill="none" />
<path d="M192.5830082119829,-151.4489516240483 L34.86713537695486,-242.50625326082852" stroke="#0d6d4d" stroke-width="0.1" fill="none" />
<path d="M194.01605025095736,-149.60873051068236 L82.33210133778037,-230.75186909168355" stroke="#0d6d4d" stroke-width="0.1" fill="none" />
<path d="M195.43150875272806,-147.75495046404495 L126.51737810154565,-209.8055124116393" stroke="#0d6d4d" stroke-width="0.1" fill="none" />
<path d="M196.82925543529353,-145.8877794909086 L165.66285056713474,-180.5015787797192" stroke="#0d6d4d" stroke-width="0.1" fill="none" />
<path d="M198.20916362186213,-144.00738681165592 L198.20916362186213,-144.00738681165592" stroke="#0d6d4d" stroke-width="0.1" fill="none" />
<path d="M199.57110825233227,-142.11394284494358 L222.85983886185699,-101.77667818546217" stroke="#0d6d4d" stroke-width="0.1" fill="none" />
<path d="M200.9149658946268,-140.20761919225697 L238.6329196508717,-55.49170801931233" stroke="#0d6d4d" stroke-width="0.1" fill="none" />
<path d="M202.24061475587962,-138.28858862235847 L244.90008724290635,-6.996232444455637" stroke="#0d6d4d" stroke-width="0.1" fill="none" />
<path d="M203.54793469347337,-136.35702505562924 L241.41168978268482,41.77793719499278" stroke="#0d6d4d" stroke-width="0.1" fill="none" />
<path d="M204.83680722592817,-134.41310354830716 L228.30668715680585,88.887887810907" stroke="#0d6d4d" stroke-width="0.1" fill="none" />
<path d="M206.1071155436394,-132.45700027662141 L206.1071155436394,132.45700027662141" stroke="#0d6d4d" stroke-width="0.1" fill="none" />
<path d="M207.35874451946395,-130.488892520826 L175.6972921659461,170.74970432054687" stroke="#0d6d4d" stroke-width="0.1" fill="none" />
<path d="M208.59158071915445,-128.50895864913264 L138.28858862235842,202.24061475587962" stroke="#0d6d4d" stroke-width="0.1" fill="none" />
<path d="M209.80551241163928,-126.51737810154567 L95.37117604776094,225.67529501313828" stroke="#0d6d4d" stroke-width="0.1" fill="none" />
<path d="M211.0004295791491,-124.51433137359948 L48.654664328207616,240.1202274676364" stroke="#0d6d4d" stroke-width="0.1" fill="none" />
<path d="M212.1762239271875,-122.49999999999999 L1.388057029923755e-13,245.0" stroke="#0d6d4d" stroke-width="0.1" fill="none" />
<path d="M213.3327888943454,-120.47456653817295 L-48.654664328207666,240.12022746763637" stroke="#0d6d4d" stroke-width="0.1" fill="none" />
<path d="M214.4700196619592,-118.43821455171816 L-95.3711760477608,225.67529501313834" stroke="#0d6d4d" stroke-width="0.1" fill="none" />
<path d="M215.58781316361,-116.39112859377379 L-138.2885886223584,202.24061475587965" stroke="#0d6d4d" stroke-width="0.1" fill="none" />
<path d="M216.6860680944645,-114.33349419029008 L-175.69729216594595,170.749704320547" stroke="#0d6d4d" stroke-width="0.1" fill="none" />
<path d="M217.76468492045626,-112.26549782321557 L-206.1071155436394,132.4570002766214" stroke="#0d6d4d" stroke-width="0.1" fill="none" />
<path d="M218.82356588730633,-110.18732691359611 L-228.3066871568058,88.88788781090716" stroke="#0d6d4d" stroke-width="0.1" fill="none" />
<path d="M219.86261502938282,-108.09916980458921 L-241.4116897826848,41.777937194992894" stroke="#0d6d4d" stroke-width="0.1" fill="none" />
<path d="M220.88173817839788,-106.00121574439456 L-244.90008724290635,-6.996232444455576" stroke="#0d6d4d" stroke-width="0.1" fill="none" />
<path d="M221.88084297194254,-103.89365486910243 L-238.6329196508717,-55.49170801931232" stroke="#0d6d4d" stroke-width="0.1" fill="none" />
<path d="M222.85983886185699,-101.77667818546217 L-222.85983886185704,-101.77667818546207" stroke="#0d6d4d" stroke-width="0.1" fill="none" />
<path d="M223.81863712243722,-99.65047755357104 L-198.20916362186216,-144.00738681165586" stroke="#0d6d4d" stroke-width="0.1" fill="none" />
<path d="M224.75715085847602,-97.51524566948622 L-165.66285056713474,-180.5015787797192" stroke="#0d6d4d" stroke-width="0.1" fill="none" />
<path d="M225.67529501313828,-95.37117604776093 L-126.51737810154562,-209.80551241163934" stroke="#0d6d4d" stroke-width="0.1" fill="none" />
<path d="M226.57298637566964,-93.21846300390615 L-82.33210133778047,-230.75186909168355" stroke="#0d6d4d" stroke-width="0.1" fill="none" />
<path d="M227.45014358893778,-91.05730163678028 L-34.8671353769549,-242.50625326082852" stroke="#0d6d4d" stroke-width="0.1" fill="none" />
<path d="M228.30668715680585,-88.88788781090703 L13.986758661378154,-244.60043046190324" stroke="#0d6d4d" stroke-width="0.1" fill="none" />
<path d="M229.1425394513369,-86.71041813872492 L62.2834918774043,-236.9509794019795" stroke="#0d6d4d" stroke-width="0.1" fill="none" />
<path d="M229.95762471982962,-84.52508996276782 L108.09916980458921,-219.86261502938282" stroke="#0d6d4d" stroke-width="0.1" fill="none" />
<path d="M230.75186909168355,-82.33210133778037 L149.60873051068236,-194.0160502509574" stroke="#0d6d4d" stroke-width="0.1" fill="none" />
<path d="M231.52520058509378,-80.13165101276833 L185.15864571679327,-160.44087981659484" stroke="#0d6d4d" stroke-width="0.1" fill="none" />
<path d="M232.27754911357488,-77.92393841298582 L213.3327888943454,-120.47456653817295" stroke="#0d6d4d" stroke-width="0.1" fill="none" />
<path d="M233.0088464923126,-75.70916362186213 L233.0088464923126,-75.70916362186213" stroke="#0d6d4d" stroke-width="0.1" fill="none" />
<path d="M233.7190264443436,-73.48752736286761 L243.4030251603948,-27.92789542318246" stroke="#0d6d4d" stroke-width="0.1" fill="none" />
<path d="M234.4080246065618,-71.25923098132282 L244.1012740613594,20.965877077315678" stroke="#0d6d4d" stroke-width="0.1" fill="none" />
<path d="M235.07577853555185,-69.0244764261503 L235.07577853555188,69.02447642615023" stroke="#0d6d4d" stroke-width="0.1" fill="none" />
<path d="M235.72222771324817,-66.78346623157248 L216.6860680944645,114.33349419029007" stroke="#0d6d4d" stroke-width="0.1" fill="none" />
<path d="M236.34731355241965,-64.53640349875589 L189.66469460657524,155.08805118317318" stroke="#0d6d4d" stroke-width="0.1" fill="none" />
<path d="M236.9509794019795,-62.28349187740429 L155.08805118317323,189.6646946065752" stroke="#0d6d4d" stroke-width="0.1" fill="none" />
<path d="M237.53317055211937,-60.024935547302135 L114.3334941902901,216.6860680944645" stroke="#0d6d4d" stroke-width="0.1" fill="none" />
<path d="M238.0938342392677,-57.760939199809684 L69.02447642615026,235.07577853555185" stroke="#0d6d4d" stroke-width="0.1" fill="none" />
<path d="M238.6329196508717,-55.49170801931233 L20.965877077315778,244.1012740613594" stroke="#0d6d4d" stroke-width="0.1" fill="none" />
<path d="M239.15037793000235,-53.217447664624395 L-27.927895423182363,243.4030251603948" stroke="#0d6d4d" stroke-width="0.1" fill="none" />
<path d="M239.64616217978238,-50.938364250351064 L-75.70916362186219,233.00884649231259" stroke="#0d6d4d" stroke-width="0.1" fill="none" />
<path d="M240.1202274676364,-48.65466432820766 L-120.47456653817285,213.33278889434544" stroke="#0d6d4d" stroke-width="0.1" fill="none" />
<path d="M240.57253082936313,-46.366554868300504 L-160.44087981659473,185.15864571679336" stroke="#0d6d4d" stroke-width="0.1" fill="none" />
<path d="M241.00303127302936,-44.07424324036924 L-194.01605025095733,149.60873051068242" stroke="#0d6d4d" stroke-width="0.1" fill="none" />
<path d="M241.4116897826848,-41.7779371949928 L-219.8626150293828,108.09916980458922" stroke="#0d6d4d" stroke-width="0.1" fill="none" />
<path d="M241.79846932189815,-39.47784484476172 L-236.9509794019795,62.28349187740426" stroke="#0d6d4d" stroke-width="0.1" fill="none" />
<path d="M242.16333483711378,-37.17417464541625 L-244.60043046190324,13.986758661378278" stroke="#0d6d4d" stroke-width="0.1" fill="none" />
<path d="M242.50625326082852,-34.867135376954856 L-242.50625326082854,-34.86713537695479" stroke="#0d6d4d" stroke-width="0.1" fill="none" />
<path d="M242.8271935145885,-32.55693612471228 L-230.75186909168355,-82.33210133778037" stroke="#0d6d4d" stroke-width="0.1" fill="none" />
<path d="M243.12612651180584,-30.243786260410232 L-209.80551241163928,-126.5173781015457" stroke="#0d6d4d" stroke-width="0.1" fill="none" />
<path d="M243.4030251603948,-27.92789542318246 L-180.5015787797193,-165.66285056713465" stroke="#0d6d4d" stroke-width="0.1" fill="none" />
<path d="M243.65786436522694,-25.609473500575092 L-144.00738681165595,-198.2091636218621" stroke="#0d6d4d" stroke-width="0.1" fill="none" />
<path d="M243.89062103040573,-23.288730609524787 L-101.77667818546237,-222.8598388618569" stroke="#0d6d4d" stroke-width="0.1" fill="none" />
<path d="M244.1012740613594,-20.96587707731576 L-55.49170801931221,-238.6329196508717" stroke="#0d6d4d" stroke-width="0.1" fill="none" />
<path d="M244.28980436675297,-18.6411234225183 L-6.996232444455464,-244.90008724290635" stroke="#0d6d4d" stroke-width="0.1" fill="none" />
<path d="M244.45619486021843,-16.314680335909426 L41.77793719499282,-241.4116897826848" stroke="#0d6d4d" stroke-width="0.1" fill="none" />
<path d="M244.60043046190324,-13.986758661378142 L88.88788781090705,-228.30668715680582" stroke="#0d6d4d" stroke-width="0.1" fill="none" />
<path d="M244.72249809983694,-11.65756937681689 L132.45700027662141,-206.1071155436394" stroke="#0d6d4d" stroke-width="0.1" fill="none" />
<path d="M244.82238671111602,-9.327323575000552 L170.7497043205469,-175.6972921659461" stroke="#0d6d4d" stroke-width="0.1" fill="none" />
<path d="M244.90008724290635,-6.996232444455637 L202.24061475587962,-138.28858862235847" stroke="#0d6d4d" stroke-width="0.1" fill="none" />
<path d="M244.9555926532638,-4.664507250319978 L225.67529501313828,-95.37117604776093" stroke="#0d6d4d" stroke-width="0.1" fill="none" />
<path d="M244.98889791177234,-2.332359315196306 L240.1202274676364,-48.65466432820766" stroke="#0d6d4d" stroke-width="0.1" fill="none" />
<path d="M245.0,-6.940285149618775e-14 L245.0,-6.940285149618775e-14" stroke="#0d6d4d" stroke-width="0.1" fill="none" />
<path d="M244.98889791177234,2.332359315196276 L240.1202274676364,48.65466432820757" stroke="#0d6d4d" stroke-width="0.1" fill="none" />
<path d="M244.9555926532638,4.664507250319947 L225.6752950131383,95.37117604776087" stroke="#0d6d4d" stroke-width="0.1" fill="none" />
<path d="M244.90008724290635,6.996232444455606 L202.24061475587965,138.2885886223584" stroke="#0d6d4d" stroke-width="0.1" fill="none" />
<path d="M244.82238671111602,9.327323575000522 L170.7497043205469,175.69729216594604" stroke="#0d6d4d" stroke-width="0.1" fill="none" />
<path d="M244.72249809983694,11.657569376816857 L132.45700027662144,206.10711554363937" stroke="#0d6d4d" stroke-width="0.1" fill="none" />
<path d="M244.60043046190324,13.986758661378111 L88.88788781090705,228.30668715680582" stroke="#0d6d4d" stroke-width="0.1" fill="none" />
<path d="M244.45619486021843,16.314680335909397 L41.77793719499287,241.4116897826848" stroke="#0d6d4d" stroke-width="0.1" fill="none" />
<path d="M244.28980436675297,18.64112342251828 L-6.996232444455483,244.90008724290635" stroke="#0d6d4d" stroke-width="0.1" fill="none" />
<path d="M244.1012740613594,20.965877077315678 L-55.49170801931234,238.6329196508717" stroke="#0d6d4d" stroke-width="0.1" fill="none" />
<path d="M243.89062103040573,23.288730609524706 L-101.77667818546209,222.85983886185704" stroke="#0d6d4d" stroke-width="0.1" fill="none" />
<path d="M243.65786436522697,25.609473500575067 L-144.00738681165598,198.20916362186207" stroke="#0d6d4d" stroke-width="0.1" fill="none" />
<path d="M243.4030251603948,27.927895423182488 L-180.50157877971913,165.66285056713483" stroke="#0d6d4d" stroke-width="0.1" fill="none" />
<path d="M243.12612651180584,30.243786260410204 L-209.80551241163934,126.51737810154562" stroke="#0d6d4d" stroke-width="0.1" fill="none" />
<path d="M242.8271935145885,32.55693612471225 L-230.75186909168355,82.33210133778046" stroke="#0d6d4d" stroke-width="0.1" fill="none" />
<path d="M242.50625326082852,34.86713537695488 L-242.50625326082852,34.867135376954884" stroke="#0d6d4d" stroke-width="0.1" fill="none" />
<path d="M242.16333483711378,37.17417464541623 L-244.60043046190324,-13.986758661378191" stroke="#0d6d4d" stroke-width="0.1" fill="none" />
<path d="M241.79846932189815,39.47784484476169 L-236.95097940197954,-62.28349187740418" stroke="#0d6d4d" stroke-width="0.1" fill="none" />
<path d="M241.41168978268482,41.77793719499278 L-219.86261502938285,-108.09916980458915" stroke="#0d6d4d" stroke-width="0.1" fill="none" />
<path d="M241.0030312730294,44.074243240369164 L-194.01605025095756,-149.60873051068214" stroke="#0d6d4d" stroke-width="0.1" fill="none" />
<path d="M240.57253082936313,46.366554868300476 L-160.4408798165948,-185.1586457167933" stroke="#0d6d4d" stroke-width="0.1" fill="none" />
<path d="M240.1202274676364,48.65466432820757 L-120.47456653817301,-213.33278889434538" stroke="#0d6d4d" stroke-width="0.1" fill="none" />
<path d="M239.64616217978238,50.938364250351036 L-75.70916362186216,-233.0088464923126" stroke="#0d6d4d" stroke-width="0.1" fill="none" />
<path d="M239.15037793000235,53.217447664624416 L-27.927895423182672,-243.40302516039478" stroke="#0d6d4d" stroke-width="0.1" fill="none" />
<path d="M238.6329196508717,55.4917080193123 L20.965877077315735,-244.1012740613594" stroke="#0d6d4d" stroke-width="0.1" fill="none" />
<path d="M238.0938342392677,57.760939199809656 L69.02447642615027,-235.07577853555185" stroke="#0d6d4d" stroke-width="0.1" fill="none" />
<path d="M237.53317055211937,60.02493554730211 L114.33349419029005,-216.6860680944645" stroke="#0d6d4d" stroke-width="0.1" fill="none" />
<path d="M236.9509794019795,62.28349187740426 L155.08805118317323,-189.6646946065752" stroke="#0d6d4d" stroke-width="0.1" fill="none" />
<path d="M236.34731355241965,64.53640349875586 L189.66469460657518,-155.08805118317326" stroke="#0d6d4d" stroke-width="0.1" fill="none" />
<path d="M235.72222771324817,66.78346623157245 L216.6860680944645,-114.33349419029008" stroke="#0d6d4d" stroke-width="0.1" fill="none" />
<path d="M235.07577853555188,69.02447642615023 L235.07577853555185,-69.0244764261503" stroke="#0d6d4d" stroke-width="0.1" fill="none" />
<path d="M234.40802460656184,71.25923098132273 L244.1012740613594,-20.96587707731576" stroke="#0d6d4d" stroke-width="0.1" fill="none" />
<path d="M233.71902644434363,73.48752736286758 L243.4030251603948,27.927895423182488" stroke="#0d6d4d" stroke-width="0.1" fill="none" />
<path d="M233.0088464923126,75.70916362186215 L233.0088464923126,75.70916362186215" stroke="#0d6d4d" stroke-width="0.1" fill="none" />
<path d="M232.27754911357488,77.92393841298585 L213.3327888943454,120.47456653817295" stroke="#0d6d4d" stroke-width="0.1" fill="none" />
<path d="M231.52520058509378,80.1316510127683 L185.1586457167933,160.44087981659482" stroke="#0d6d4d" stroke-width="0.1" fill="none" />
<path d="M230.75186909168355,82.3321013377804 L149.6087305106824,194.01605025095733" stroke="#0d6d4d" stroke-width="0.1" fill="none" />
<path d="M229.95762471982965,84.5250899627678 L108.09916980458932,219.86261502938277" stroke="#0d6d4d" stroke-width="0.1" fill="none" />
<path d="M229.14253945133692,86.7104181387249 L62.28349187740435,236.95097940197948" stroke="#0d6d4d" stroke-width="0.1" fill="none" />
<path d="M228.30668715680585,88.887887810907 L13.986758661378266,244.60043046190324" stroke="#0d6d4d" stroke-width="0.1" fill="none" />
<path d="M227.4501435889378,91.05730163678021 L-34.86713537695492,242.50625326082852" stroke="#0d6d4d" stroke-width="0.1" fill="none" />
<path d="M226.57298637566964,93.21846300390614 L-82.33210133778029,230.75186909168357" stroke="#0d6d4d" stroke-width="0.1" fill="none" />
<path d="M225.6752950131383,95.37117604776087 L-126.51737810154573,209.80551241163926" stroke="#0d6d4d" stroke-width="0.1" fill="none" />
<path d="M224.75715085847602,97.51524566948625 L-165.66285056713468,180.50157877971927" stroke="#0d6d4d" stroke-width="0.1" fill="none" />
<path d="M223.81863712243722,99.65047755357106 L-198.2091636218621,144.00738681165595" stroke="#0d6d4d" stroke-width="0.1" fill="none" />
<path d="M222.85983886185699,101.7766781854622 L-222.859838861857,101.77667818546215" stroke="#0d6d4d" stroke-width="0.1" fill="none" />
<path d="M221.88084297194254,103.89365486910246 L-238.6329196508717,55.4917080193122" stroke="#0d6d4d" stroke-width="0.1" fill="none" />
<path d="M220.88173817839794,106.00121574439447 L-244.90008724290635,6.996232444455666" stroke="#0d6d4d" stroke-width="0.1" fill="none" />
<path d="M219.86261502938282,108.09916980458918 L-241.4116897826848,-41.777937194992795" stroke="#0d6d4d" stroke-width="0.1" fill="none" />
<path d="M218.82356588730636,110.18732691359608 L-228.30668715680582,-88.88788781090709" stroke="#0d6d4d" stroke-width="0.1" fill="none" />
<path d="M217.76468492045626,112.26549782321554 L-206.10711554363934,-132.45700027662147" stroke="#0d6d4d" stroke-width="0.1" fill="none" />
<path d="M216.6860680944645,114.33349419029007 L-175.69729216594612,-170.74970432054684" stroke="#0d6d4d" stroke-width="0.1" fill="none" />
<path d="M215.58781316361006,116.39112859377367 L-138.28858862235865,-202.2406147558795" stroke="#0d6d4d" stroke-width="0.1" fill="none" />
<path d="M214.47001966195927,118.43821455171806 L-95.37117604776087,-225.6752950131383" stroke="#0d6d4d" stroke-width="0.1" fill="none" />
<path d="M213.3327888943454,120.47456653817295 L-48.65466432820776,-240.12022746763637" stroke="#0d6d4d" stroke-width="0.1" fill="none" />
<path d="M212.17622392718746,122.50000000000003 L0.0,-245.0" stroke="#0d6d4d" stroke-width="0.1" fill="none" />
<path d="M211.00042957914917,124.51433137359939 L48.654664328207645,-240.1202274676364" stroke="#0d6d4d" stroke-width="0.1" fill="none" />
<path d="M209.8055124116393,126.51737810154565 L95.37117604776093,-225.67529501313828" stroke="#0d6d4d" stroke-width="0.1" fill="none" />
<path d="M208.59158071915448,128.50895864913258 L138.28858862235845,-202.24061475587962" stroke="#0d6d4d" stroke-width="0.1" fill="none" />
<path d="M207.35874451946398,130.48889252082594 L175.69729216594604,-170.7497043205469" stroke="#0d6d4d" stroke-width="0.1" fill="none" />
<path d="M206.1071155436394,132.45700027662141 L206.1071155436394,-132.45700027662141" stroke="#0d6d4d" stroke-width="0.1" fill="none" />
<path d="M204.83680722592823,134.41310354830705 L228.30668715680585,-88.88788781090703" stroke="#0d6d4d" stroke-width="0.1" fill="none" />
<path d="M203.54793469347342,136.35702505562915 L241.4116897826848,-41.7779371949928" stroke="#0d6d4d" stroke-width="0.1" fill="none" />
<path d="M202.24061475587965,138.2885886223584 L244.90008724290635,6.996232444455606" stroke="#0d6d4d" stroke-width="0.1" fill="none" />
<path d="M200.91496589462685,140.2076191922569 L238.6329196508717,55.4917080193123" stroke="#0d6d4d" stroke-width="0.1" fill="none" />
<path d="M199.5711082523323,142.11394284494352 L222.85983886185699,101.7766781854622" stroke="#0d6d4d" stroke-width="0.1" fill="none" />
<path d="M198.20916362186213,144.0073868116559 L198.20916362186213,144.0073868116559" stroke="#0d6d4d" stroke-width="0.1" fill="none" />
<path d="M196.8292554352936,145.88777949090854 L165.6628505671347,180.50157877971924" stroke="#0d6d4d" stroke-width="0.1" fill="none" />
<path d="M195.43150875272806,147.75495046404492 L126.51737810154567,209.80551241163928" stroke="#0d6d4d" stroke-width="0.1" fill="none" />
<path d="M194.0160502509574,149.60873051068236 L82.33210133778033,230.75186909168355" stroke="#0d6d4d" stroke-width="0.1" fill="none" />
<path d="M192.58300821198299,151.44895162404822 L34.86713537695487,242.50625326082852" stroke="#0d6d4d" stroke-width="0.1" fill="none" />
<path d="M191.13251251138962,153.2754470262067 L-13.986758661378204,244.60043046190324" stroke="#0d6d4d" stroke-width="0.1" fill="none" />
<path d="M189.66469460657524,155.08805118317318 L-62.28349187740419,236.95097940197954" stroke="#0d6d4d" stroke-width="0.1" fill="none" />
<path d="M188.17968752483685,156.8865998199169 L-108.09916980458927,219.8626150293828" stroke="#0d6d4d" stroke-width="0.1" fill="none" />
<path d="M186.6776258513144,158.67092993524898 L-149.60873051068225,194.01605025095745" stroke="#0d6d4d" stroke-width="0.1" fill="none" />
<path d="M185.1586457167933,160.44087981659482 L-185.1586457167933,160.4408798165948" stroke="#0d6d4d" stroke-width="0.1" fill="none" />
<path d="M183.62288478536726,162.19628905465052 L-213.33278889434538,120.47456653817301" stroke="#0d6d4d" stroke-width="0.1" fill="none" />
<path d="M182.0704822419616,163.93699855792028 L-233.0088464923126,75.70916362186215" stroke="#0d6d4d" stroke-width="0.1" fill="none" />
<path d="M180.50157877971918,165.66285056713477 L-243.4030251603948,27.927895423182438" stroke="#0d6d4d" stroke-width="0.1" fill="none" />
<path d="M178.91631658724953,167.37368866954895 L-244.1012740613594,-20.96587707731581" stroke="#0d6d4d" stroke-width="0.1" fill="none" />
<path d="M177.31483933574222,169.0693578131174 L-235.07577853555188,-69.0244764261502" stroke="#0d6d4d" stroke-width="0.1" fill="none" />
<path d="M175.6972921659461,170.74970432054687 L-216.68606809446453,-114.33349419029004" stroke="#0d6d4d" stroke-width="0.1" fill="none" />
<path d="M174.0638216750154,172.41457590322358 L-189.66469460657518,-155.08805118317323" stroke="#0d6d4d" stroke-width="0.1" fill="none" />
<path d="M172.41457590322364,174.06382167501533 L-155.08805118317318,-189.66469460657524" stroke="#0d6d4d" stroke-width="0.1" fill="none" />
<path d="M170.7497043205469,175.69729216594604 L-114.33349419029011,-216.68606809446447" stroke="#0d6d4d" stroke-width="0.1" fill="none" />
<path d="M169.0693578131175,177.3148393357421 L-69.02447642615029,-235.07577853555185" stroke="#0d6d4d" stroke-width="0.1" fill="none" />
<path d="M167.37368866954893,178.91631658724955 L-20.9658770773157,-244.1012740613594" stroke="#0d6d4d" stroke-width="0.1" fill="none" />
<path d="M165.6628505671347,180.50157877971924 L27.927895423182452,-243.4030251603948" stroke="#0d6d4d" stroke-width="0.1" fill="none" />
<path d="M163.93699855792022,182.07048224196163 L75.70916362186212,-233.0088464923126" stroke="#0d6d4d" stroke-width="0.1" fill="none" />
<path d="M162.19628905465058,183.6228847853672 L120.47456653817292,-213.3327888943454" stroke="#0d6d4d" stroke-width="0.1" fill="none" />
<path d="M160.44087981659487,185.15864571679325 L160.44087981659484,-185.15864571679327" stroke="#0d6d4d" stroke-width="0.1" fill="none" />
<path d="M158.670929935249,186.67762585131433 L194.01605025095736,-149.60873051068236" stroke="#0d6d4d" stroke-width="0.1" fill="none" />
<path d="M156.88659981991697,188.17968752483682 L219.86261502938282,-108.09916980458921" stroke="#0d6d4d" stroke-width="0.1" fill="none" />
<path d="M155.08805118317323,189.6646946065752 L236.9509794019795,-62.28349187740429" stroke="#0d6d4d" stroke-width="0.1" fill="none" />
<path d="M153.2754470262068,191.1325125113895 L244.60043046190324,-13.986758661378142" stroke="#0d6d4d" stroke-width="0.1" fill="none" />
<path d="M151.44895162404833,192.58300821198287 L242.50625326082852,34.86713537695488" stroke="#0d6d4d" stroke-width="0.1" fill="none" />
<path d="M149.6087305106824,194.01605025095733 L230.75186909168355,82.3321013377804" stroke="#0d6d4d" stroke-width="0.1" fill="none" />
<path d="M147.7549504640449,195.4315087527281 L209.8055124116393,126.51737810154565" stroke="#0d6d4d" stroke-width="0.1" fill="none" />
<path d="M145.8877794909086,196.82925543529353 L180.50157877971918,165.66285056713477" stroke="#0d6d4d" stroke-width="0.1" fill="none" />
<path d="M144.00738681165595,198.2091636218621 L144.00738681165595,198.2091636218621" stroke="#0d6d4d" stroke-width="0.1" fill="none" />
<path d="M142.11394284494358,199.57110825233227 L101.77667818546213,222.859838861857" stroke="#0d6d4d" stroke-width="0.1" fill="none" />
<path d="M140.20761919225694,200.91496589462682 L55.491708019312284,238.6329196508717" stroke="#0d6d4d" stroke-width="0.1" fill="none" />
<path d="M138.28858862235842,202.24061475587962 L6.996232444455543,244.90008724290635" stroke="#0d6d4d" stroke-width="0.1" fill="none" />
<path d="M136.3570250556293,203.54793469347334 L-41.77793719499271,241.41168978268482" stroke="#0d6d4d" stroke-width="0.1" fill="none" />
<path d="M134.4131035483072,204.83680722592817 L-88.8878878109071,228.30668715680582" stroke="#0d6d4d" stroke-width="0.1" fill="none" />
<path d="M132.45700027662144,206.10711554363937 L-132.45700027662133,206.10711554363945" stroke="#0d6d4d" stroke-width="0.1" fill="none" />
<path d="M130.488892520826,207.35874451946395 L-170.74970432054695,175.697292165946" stroke="#0d6d4d" stroke-width="0.1" fill="none" />
<path d="M128.50895864913264,208.59158071915445 L-202.24061475587962,138.28858862235845" stroke="#0d6d4d" stroke-width="0.1" fill="none" />
<path d="M126.51737810154567,209.80551241163928 L-225.6752950131383,95.37117604776087" stroke="#0d6d4d" stroke-width="0.1" fill="none" />
<path d="M124.51433137359942,211.00042957914914 L-240.12022746763637,48.654664328207744" stroke="#0d6d4d" stroke-width="0.1" fill="none" />
<path d="M122.49999999999999,212.1762239271875 L-245.0,4.500576986866523e-14" stroke="#0d6d4d" stroke-width="0.1" fill="none" />
<path d="M120.47456653817291,213.3327888943454 L-240.1202274676364,-48.65466432820765" stroke="#0d6d4d" stroke-width="0.1" fill="none" />
<path d="M118.43821455171819,214.47001966195918 L-225.67529501313825,-95.37117604776098" stroke="#0d6d4d" stroke-width="0.1" fill="none" />
<path d="M116.39112859377379,215.58781316361 L-202.24061475587968,-138.28858862235836" stroke="#0d6d4d" stroke-width="0.1" fill="none" />
<path d="M114.3334941902901,216.6860680944645 L-170.74970432054693,-175.69729216594604" stroke="#0d6d4d" stroke-width="0.1" fill="none" />
<path d="M112.26549782321558,217.76468492045623 L-132.4570002766214,-206.1071155436394" stroke="#0d6d4d" stroke-width="0.1" fill="none" />
<path d="M110.18732691359612,218.82356588730633 L-88.88788781090696,-228.30668715680585" stroke="#0d6d4d" stroke-width="0.1" fill="none" />
<path d="M108.09916980458932,219.86261502938277 L-41.77793719499291,-241.4116897826848" stroke="#0d6d4d" stroke-width="0.1" fill="none" />
<path d="M106.00121574439451,220.8817381783979 L6.996232444455582,-244.90008724290635" stroke="#0d6d4d" stroke-width="0.1" fill="none" />
<path d="M103.8936548691024,221.88084297194257 L55.49170801931227,-238.6329196508717" stroke="#0d6d4d" stroke-width="0.1" fill="none" />
<path d="M101.77667818546213,222.859838861857 L101.77667818546217,-222.85983886185699" stroke="#0d6d4d" stroke-width="0.1" fill="none" />
<path d="M99.65047755357111,223.8186371224372 L144.00738681165592,-198.20916362186213" stroke="#0d6d4d" stroke-width="0.1" fill="none" />
<path d="M97.51524566948629,224.757150858476 L180.50157877971918,-165.6628505671348" stroke="#0d6d4d" stroke-width="0.1" fill="none" />
<path d="M95.37117604776094,225.67529501313828 L209.80551241163928,-126.51737810154567" stroke="#0d6d4d" stroke-width="0.1" fill="none" />
<path d="M93.21846300390617,226.57298637566964 L230.75186909168355,-82.33210133778037" stroke="#0d6d4d" stroke-width="0.1" fill="none" />
<path d="M91.05730163678025,227.45014358893778 L242.50625326082852,-34.867135376954856" stroke="#0d6d4d" stroke-width="0.1" fill="none" />
<path d="M88.88788781090705,228.30668715680582 L244.60043046190324,13.986758661378111" stroke="#0d6d4d" stroke-width="0.1" fill="none" />
<path d="M86.71041813872499,229.14253945133686 L236.9509794019795,62.28349187740426" stroke="#0d6d4d" stroke-width="0.1" fill="none" />
<path d="M84.52508996276788,229.95762471982962 L219.86261502938282,108.09916980458918" stroke="#0d6d4d" stroke-width="0.1" fill="none" />
<path d="M82.33210133778033,230.75186909168355 L194.0160502509574,149.60873051068236" stroke="#0d6d4d" stroke-width="0.1" fill="none" />
<path d="M80.13165101276824,231.52520058509378 L160.44087981659487,185.15864571679325" stroke="#0d6d4d" stroke-width="0.1" fill="none" />
<path d="M77.92393841298588,232.27754911357485 L120.47456653817291,213.3327888943454" stroke="#0d6d4d" stroke-width="0.1" fill="none" />
<path d="M75.70916362186215,233.0088464923126 L75.70916362186215,233.0088464923126" stroke="#0d6d4d" stroke-width="0.1" fill="none" />
<path d="M73.48752736286762,233.7190264443436 L27.927895423182424,243.4030251603948" stroke="#0d6d4d" stroke-width="0.1" fill="none" />
<path d="M71.25923098132277,234.4080246065618 L-20.965877077315607,244.1012740613594" stroke="#0d6d4d" stroke-width="0.1" fill="none" />
<path d="M69.02447642615026,235.07577853555185 L-69.02447642615031,235.07577853555185" stroke="#0d6d4d" stroke-width="0.1" fill="none" />
<path d="M66.78346623157255,235.72222771324815 L-114.33349419028995,216.68606809446456" stroke="#0d6d4d" stroke-width="0.1" fill="none" />
<path d="M64.53640349875596,236.34731355241962 L-155.08805118317326,189.66469460657518" stroke="#0d6d4d" stroke-width="0.1" fill="none" />
<path d="M62.28349187740435,236.95097940197948 L-189.66469460657513,155.08805118317335" stroke="#0d6d4d" stroke-width="0.1" fill="none" />
<path d="M60.02493554730215,237.53317055211937 L-216.68606809446447,114.3334941902901" stroke="#0d6d4d" stroke-width="0.1" fill="none" />
<path d="M57.7609391998097,238.0938342392677 L-235.07577853555185,69.02447642615027" stroke="#0d6d4d" stroke-width="0.1" fill="none" />
<path d="M55.491708019312284,238.6329196508717 L-244.1012740613594,20.96587707731568" stroke="#0d6d4d" stroke-width="0.1" fill="none" />
<path d="M53.21744766462441,239.15037793000235 L-243.4030251603948,-27.92789542318235" stroke="#0d6d4d" stroke-width="0.1" fill="none" />
<path d="M50.93836425035103,239.64616217978238 L-233.00884649231264,-75.70916362186207" stroke="#0d6d4d" stroke-width="0.1" fill="none" />
<path d="M48.654664328207616,240.1202274676364 L-213.3327888943454,-120.47456653817292" stroke="#0d6d4d" stroke-width="0.1" fill="none" />
<path d="M46.36655486830057,240.5725308293631 L-185.15864571679325,-160.44087981659487" stroke="#0d6d4d" stroke-width="0.1" fill="none" />
<path d="M44.074243240369256,241.00303127302936 L-149.60873051068242,-194.01605025095733" stroke="#0d6d4d" stroke-width="0.1" fill="none" />
<path d="M41.77793719499287,241.4116897826848 L-108.09916980458924,-219.8626150293828" stroke="#0d6d4d" stroke-width="0.1" fill="none" />
<path d="M39.477844844761734,241.79846932189815 L-62.28349187740427,-236.9509794019795" stroke="#0d6d4d" stroke-width="0.1" fill="none" />
<path d="M37.174174645416265,242.16333483711378 L-13.986758661378076,-244.60043046190324" stroke="#0d6d4d" stroke-width="0.1" fill="none" />
<path d="M34.86713537695487,242.50625326082852 L34.86713537695486,-242.50625326082852" stroke="#0d6d4d" stroke-width="0.1" fill="none" />
<path d="M32.55693612471224,242.8271935145885 L82.33210133778037,-230.75186909168355" stroke="#0d6d4d" stroke-width="0.1" fill="none" />
<path d="M30.243786260410193,243.12612651180584 L126.51737810154565,-209.8055124116393" stroke="#0d6d4d" stroke-width="0.1" fill="none" />
<path d="M27.927895423182424,243.4030251603948 L165.66285056713474,-180.5015787797192" stroke="#0d6d4d" stroke-width="0.1" fill="none" />
<path d="M25.609473500575167,243.65786436522694 L198.20916362186213,-144.00738681165592" stroke="#0d6d4d" stroke-width="0.1" fill="none" />
<path d="M23.288730609524805,243.89062103040573 L222.85983886185699,-101.77667818546217" stroke="#0d6d4d" stroke-width="0.1" fill="none" />
<path d="M20.965877077315778,244.1012740613594 L238.6329196508717,-55.49170801931233" stroke="#0d6d4d" stroke-width="0.1" fill="none" />
<path d="M18.64112342251832,244.28980436675297 L244.90008724290635,-6.996232444455637" stroke="#0d6d4d" stroke-width="0.1" fill="none" />
<path d="M16.314680335909443,244.45619486021843 L241.41168978268482,41.77793719499278" stroke="#0d6d4d" stroke-width="0.1" fill="none" />
<path d="M13.986758661378266,244.60043046190324 L228.30668715680585,88.887887810907" stroke="#0d6d4d" stroke-width="0.1" fill="none" />
<path d="M11.657569376816959,244.72249809983694 L206.1071155436394,132.45700027662141" stroke="#0d6d4d" stroke-width="0.1" fill="none" />
<path d="M9.327323575000621,244.822386711116 L175.6972921659461,170.74970432054687" stroke="#0d6d4d" stroke-width="0.1" fill="none" />
<path d="M6.996232444455543,244.90008724290635 L138.28858862235842,202.24061475587962" stroke="#0d6d4d" stroke-width="0.1" fill="none" />
<path d="M4.664507250319992,244.9555926532638 L95.37117604776094,225.67529501313828" stroke="#0d6d4d" stroke-width="0.1" fill="none" />
<path d="M2.3323593151963213,244.98889791177234 L48.654664328207616,240.1202274676364" stroke="#0d6d4d" stroke-width="0.1" fill="none" />
<path d="M1.388057029923755e-13,245.0 L1.388057029923755e-13,245.0" stroke="#0d6d4d" stroke-width="0.1" fill="none" />
<path d="M-2.332359315196261,244.98889791177234 L-48.654664328207666,240.12022746763637" stroke="#0d6d4d" stroke-width="0.1" fill="none" />
<path d="M-4.664507250319932,244.9555926532638 L-95.3711760477608,225.67529501313834" stroke="#0d6d4d" stroke-width="0.1" fill="none" />
<path d="M-6.996232444455483,244.90008724290635 L-138.2885886223584,202.24061475587965" stroke="#0d6d4d" stroke-width="0.1" fill="none" />
<path d="M-9.32732357500056,244.82238671111602 L-175.69729216594595,170.749704320547" stroke="#0d6d4d" stroke-width="0.1" fill="none" />
<path d="M-11.657569376816788,244.72249809983694 L-206.1071155436394,132.4570002766214" stroke="#0d6d4d" stroke-width="0.1" fill="none" />
<path d="M-13.986758661378204,244.60043046190324 L-228.3066871568058,88.88788781090716" stroke="#0d6d4d" stroke-width="0.1" fill="none" />
<path d="M-16.314680335909383,244.45619486021843 L-241.4116897826848,41.777937194992894" stroke="#0d6d4d" stroke-width="0.1" fill="none" />
<path d="M-18.641123422518262,244.28980436675297 L-244.90008724290635,-6.996232444455576" stroke="#0d6d4d" stroke-width="0.1" fill="none" />
<path d="M-20.965877077315607,244.1012740613594 L-238.6329196508717,-55.49170801931232" stroke="#0d6d4d" stroke-width="0.1" fill="none" />
<path d="M-23.288730609524745,243.89062103040573 L-222.85983886185704,-101.77667818546207" stroke="#0d6d4d" stroke-width="0.1" fill="none" />
<path d="M-25.609473500575,243.65786436522697 L-198.20916362186216,-144.00738681165586" stroke="#0d6d4d" stroke-width="0.1" fill="none" />
<path d="M-27.927895423182363,243.4030251603948 L-165.66285056713474,-180.5015787797192" stroke="#0d6d4d" stroke-width="0.1" fill="none" />
<path d="M-30.24378626041024,243.12612651180584 L-126.51737810154562,-209.80551241163934" stroke="#0d6d4d" stroke-width="0.1" fill="none" />
<path d="M-32.55693612471218,242.8271935145885 L-82.33210133778047,-230.75186909168355" stroke="#0d6d4d" stroke-width="0.1" fill="none" />
<path d="M-34.86713537695492,242.50625326082852 L-34.8671353769549,-242.50625326082852" stroke="#0d6d4d" stroke-width="0.1" fill="none" />
<path d="M-37.17417464541622,242.16333483711378 L13.986758661378154,-244.60043046190324" stroke="#0d6d4d" stroke-width="0.1" fill="none" />
<path d="M-39.47784484476168,241.79846932189815 L62.2834918774043,-236.9509794019795" stroke="#0d6d4d" stroke-width="0.1" fill="none" />
<path d="M-41.77793719499271,241.41168978268482 L108.09916980458921,-219.86261502938282" stroke="#0d6d4d" stroke-width="0.1" fill="none" />
<path d="M-44.074243240369206,241.00303127302936 L149.60873051068236,-194.0160502509574" stroke="#0d6d4d" stroke-width="0.1" fill="none" />
<path d="M-46.366554868300405,240.57253082936316 L185.15864571679327,-160.44087981659484" stroke="#0d6d4d" stroke-width="0.1" fill="none" />
<path d="M-48.654664328207666,240.12022746763637 L213.3327888943454,-120.47456653817295" stroke="#0d6d4d" stroke-width="0.1" fill="none" />
<path d="M-50.93836425035097,239.64616217978238 L233.0088464923126,-75.70916362186213" stroke="#0d6d4d" stroke-width="0.1" fill="none" />
<path d="M-53.21744766462435,239.15037793000238 L243.4030251603948,-27.92789542318246" stroke="#0d6d4d" stroke-width="0.1" fill="none" />
<path d="M-55.49170801931234,238.6329196508717 L244.1012740613594,20.965877077315678" stroke="#0d6d4d" stroke-width="0.1" fill="none" />
<path d="M-57.76093919980964,238.09383423926772 L235.07577853555188,69.02447642615023" stroke="#0d6d4d" stroke-width="0.1" fill="none" />
<path d="M-60.02493554730209,237.53317055211937 L216.6860680944645,114.33349419029007" stroke="#0d6d4d" stroke-width="0.1" fill="none" />
<path d="M-62.28349187740419,236.95097940197954 L189.66469460657524,155.08805118317318" stroke="#0d6d4d" stroke-width="0.1" fill="none" />
<path d="M-64.5364034987559,236.34731355241965 L155.08805118317323,189.6646946065752" stroke="#0d6d4d" stroke-width="0.1" fill="none" />
<path d="M-66.7834662315724,235.7222277132482 L114.3334941902901,216.6860680944645" stroke="#0d6d4d" stroke-width="0.1" fill="none" />
<path d="M-69.02447642615031,235.07577853555185 L69.02447642615026,235.07577853555185" stroke="#0d6d4d" stroke-width="0.1" fill="none" />
<path d="M-71.25923098132272,234.40802460656184 L20.965877077315778,244.1012740613594" stroke="#0d6d4d" stroke-width="0.1" fill="none" />
<path d="M-73.48752736286757,233.71902644434363 L-27.927895423182363,243.4030251603948" stroke="#0d6d4d" stroke-width="0.1" fill="none" />
<path d="M-75.70916362186219,233.00884649231259 L-75.70916362186219,233.00884649231259" stroke="#0d6d4d" stroke-width="0.1" fill="none" />
<path d="M-77.92393841298583,232.27754911357488 L-120.47456653817285,213.33278889434544" stroke="#0d6d4d" stroke-width="0.1" fill="none" />
<path d="M-80.13165101276829,231.52520058509378 L-160.44087981659473,185.15864571679336" stroke="#0d6d4d" stroke-width="0.1" fill="none" />
<path d="M-82.33210133778029,230.75186909168357 L-194.01605025095733,149.60873051068242" stroke="#0d6d4d" stroke-width="0.1" fill="none" />
<path d="M-84.52508996276784,229.95762471982962 L-219.8626150293828,108.09916980458922" stroke="#0d6d4d" stroke-width="0.1" fill="none" />
<path d="M-86.71041813872485,229.14253945133692 L-236.9509794019795,62.28349187740426" stroke="#0d6d4d" stroke-width="0.1" fill="none" />
<path d="M-88.8878878109071,228.30668715680582 L-244.60043046190324,13.986758661378278" stroke="#0d6d4d" stroke-width="0.1" fill="none" />
<path d="M-91.0573016367802,227.4501435889378 L-242.50625326082854,-34.86713537695479" stroke="#0d6d4d" stroke-width="0.1" fill="none" />
<path d="M-93.21846300390612,226.57298637566964 L-230.75186909168355,-82.33210133778037" stroke="#0d6d4d" stroke-width="0.1" fill="none" />
<path d="M-95.3711760477608,225.67529501313834 L-209.80551241163928,-126.5173781015457" stroke="#0d6d4d" stroke-width="0.1" fill="none" />
<path d="M-97.51524566948623,224.75715085847602 L-180.5015787797193,-165.66285056713465" stroke="#0d6d4d" stroke-width="0.1" fill="none" />
<path d="M-99.65047755357105,223.81863712243722 L-144.00738681165595,-198.2091636218621" stroke="#0d6d4d" stroke-width="0.1" fill="none" />
<path d="M-101.77667818546209,222.85983886185704 L-101.77667818546237,-222.8598388618569" stroke="#0d6d4d" stroke-width="0.1" fill="none" />
<path d="M-103.89365486910245,221.88084297194254 L-55.49170801931221,-238.6329196508717" stroke="#0d6d4d" stroke-width="0.1" fill="none" />
<path d="M-106.00121574439446,220.88173817839794 L-6.996232444455464,-244.90008724290635" stroke="#0d6d4d" stroke-width="0.1" fill="none" />
<path d="M-108.09916980458927,219.8626150293828 L41.77793719499282,-241.4116897826848" stroke="#0d6d4d" stroke-width="0.1" fill="none" />
<path d="M-110.18732691359608,218.82356588730636 L88.88788781090705,-228.30668715680582" stroke="#0d6d4d" stroke-width="0.1" fill="none" />
<path d="M-112.26549782321553,217.76468492045626 L132.45700027662141,-206.1071155436394" stroke="#0d6d4d" stroke-width="0.1" fill="none" />
<path d="M-114.33349419028995,216.68606809446456 L170.7497043205469,-175.6972921659461" stroke="#0d6d4d" stroke-width="0.1" fill="none" />
<path d="M-116.39112859377374,215.58781316361004 L202.24061475587962,-138.28858862235847" stroke="#0d6d4d" stroke-width="0.1" fill="none" />
<path d="M-118.43821455171806,214.47001966195927 L225.67529501313828,-95.37117604776093" stroke="#0d6d4d" stroke-width="0.1" fill="none" />
<path d="M-120.47456653817285,213.33278889434544 L240.1202274676364,-48.65466432820766" stroke="#0d6d4d" stroke-width="0.1" fill="none" />
<path d="M-122.50000000000003,212.17622392718746 L245.0,-6.940285149618775e-14" stroke="#0d6d4d" stroke-width="0.1" fill="none" />
<path d="M-124.51433137359939,211.00042957914917 L240.1202274676364,48.65466432820757" stroke="#0d6d4d" stroke-width="0.1" fill="none" />
<path d="M-126.51737810154573,209.80551241163926 L225.6752950131383,95.37117604776087" stroke="#0d6d4d" stroke-width="0.1" fill="none" />
<path d="M-128.50895864913258,208.59158071915448 L202.24061475587965,138.2885886223584" stroke="#0d6d4d" stroke-width="0.1" fill="none" />
<path d="M-130.48889252082594,207.35874451946398 L170.7497043205469,175.69729216594604" stroke="#0d6d4d" stroke-width="0.1" fill="none" />
<path d="M-132.45700027662133,206.10711554363945 L132.45700027662144,206.10711554363937" stroke="#0d6d4d" stroke-width="0.1" fill="none" />
<path d="M-134.41310354830716,204.83680722592817 L88.88788781090705,228.30668715680582" stroke="#0d6d4d" stroke-width="0.1" fill="none" />
<path d="M-136.35702505562915,203.54793469347342 L41.77793719499287,241.4116897826848" stroke="#0d6d4d" stroke-width="0.1" fill="none" />
<path d="M-138.2885886223584,202.24061475587965 L-6.996232444455483,244.90008724290635" stroke="#0d6d4d" stroke-width="0.1" fill="none" />
<path d="M-140.2076191922569,200.91496589462685 L-55.49170801931234,238.6329196508717" stroke="#0d6d4d" stroke-width="0.1" fill="none" />
<path d="M-142.11394284494352,199.5711082523323 L-101.77667818546209,222.85983886185704" stroke="#0d6d4d" stroke-width="0.1" fill="none" />
<path d="M-144.00738681165598,198.20916362186207 L-144.00738681165598,198.20916362186207" stroke="#0d6d4d" stroke-width="0.1" fill="none" />
<path d="M-145.88777949090854,196.8292554352936 L-180.50157877971913,165.66285056713483" stroke="#0d6d4d" stroke-width="0.1" fill="none" />
<path d="M-147.75495046404492,195.43150875272806 L-209.80551241163934,126.51737810154562" stroke="#0d6d4d" stroke-width="0.1" fill="none" />
<path d="M-149.60873051068225,194.01605025095745 L-230.75186909168355,82.33210133778046" stroke="#0d6d4d" stroke-width="0.1" fill="none" />
<path d="M-151.4489516240483,192.5830082119829 L-242.50625326082852,34.867135376954884" stroke="#0d6d4d" stroke-width="0.1" fill="none" />
<path d="M-153.2754470262067,191.13251251138962 L-244.60043046190324,-13.986758661378191" stroke="#0d6d4d" stroke-width="0.1" fill="none" />
<path d="M-155.08805118317326,189.66469460657518 L-236.95097940197954,-62.28349187740418" stroke="#0d6d4d" stroke-width="0.1" fill="none" />
<path d="M-156.8865998199169,188.17968752483685 L-219.86261502938285,-108.09916980458915" stroke="#0d6d4d" stroke-width="0.1" fill="none" />
<path d="M-158.67092993524898,186.6776258513144 L-194.01605025095756,-149.60873051068214" stroke="#0d6d4d" stroke-width="0.1" fill="none" />
<path d="M-160.44087981659473,185.15864571679336 L-160.4408798165948,-185.1586457167933" stroke="#0d6d4d" stroke-width="0.1" fill="none" />
<path d="M-162.19628905465052,183.62288478536726 L-120.47456653817301,-213.33278889434538" stroke="#0d6d4d" stroke-width="0.1" fill="none" />
<path d="M-163.93699855792028,182.0704822419616 L-75.70916362186216,-233.0088464923126" stroke="#0d6d4d" stroke-width="0.1" fill="none" />
<path d="M-165.66285056713468,180.50157877971927 L-27.927895423182672,-243.40302516039478" stroke="#0d6d4d" stroke-width="0.1" fill="none" />
<path d="M-167.37368866954895,178.91631658724953 L20.965877077315735,-244.1012740613594" stroke="#0d6d4d" stroke-width="0.1" fill="none" />
<path d="M-169.0693578131174,177.31483933574222 L69.02447642615027,-235.07577853555185" stroke="#0d6d4d" stroke-width="0.1" fill="none" />
<path d="M-170.74970432054695,175.697292165946 L114.33349419029005,-216.6860680944645" stroke="#0d6d4d" stroke-width="0.1" fill="none" />
<path d="M-172.41457590322358,174.0638216750154 L155.08805118317323,-189.6646946065752" stroke="#0d6d4d" stroke-width="0.1" fill="none" />
<path d="M-174.06382167501533,172.41457590322366 L189.66469460657518,-155.08805118317326" stroke="#0d6d4d" stroke-width="0.1" fill="none" />
<path d="M-175.69729216594595,170.749704320547 L216.6860680944645,-114.33349419029008" stroke="#0d6d4d" stroke-width="0.1" fill="none" />
<path d="M-177.31483933574216,169.06935781311745 L235.07577853555185,-69.0244764261503" stroke="#0d6d4d" stroke-width="0.1" fill="none" />
<path d="M-178.91631658724955,167.37368866954895 L244.1012740613594,-20.96587707731576" stroke="#0d6d4d" stroke-width="0.1" fill="none" />
<path d="M-180.50157877971913,165.66285056713483 L243.4030251603948,27.927895423182488" stroke="#0d6d4d" stroke-width="0.1" fill="none" />
<path d="M-182.0704822419616,163.93699855792025 L233.0088464923126,75.70916362186215" stroke="#0d6d4d" stroke-width="0.1" fill="none" />
<path d="M-183.6228847853672,162.1962890546506 L213.3327888943454,120.47456653817295" stroke="#0d6d4d" stroke-width="0.1" fill="none" />
<path d="M-185.1586457167933,160.4408798165948 L185.1586457167933,160.44087981659482" stroke="#0d6d4d" stroke-width="0.1" fill="none" />
<path d="M-186.67762585131425,158.6709299352491 L149.6087305106824,194.01605025095733" stroke="#0d6d4d" stroke-width="0.1" fill="none" />
<path d="M-188.17968752483685,156.8865998199169 L108.09916980458932,219.86261502938277" stroke="#0d6d4d" stroke-width="0.1" fill="none" />
<path d="M-189.66469460657513,155.08805118317335 L62.28349187740435,236.95097940197948" stroke="#0d6d4d" stroke-width="0.1" fill="none" />
<path d="M-191.1325125113895,153.27544702620682 L13.986758661378266,244.60043046190324" stroke="#0d6d4d" stroke-width="0.1" fill="none" />
<path d="M-192.58300821198284,151.44895162404833 L-34.86713537695492,242.50625326082852" stroke="#0d6d4d" stroke-width="0.1" fill="none" />
<path d="M-194.01605025095733,149.60873051068242 L-82.33210133778029,230.75186909168357" stroke="#0d6d4d" stroke-width="0.1" fill="none" />
<path d="M-195.431508752728,147.754950464045 L-126.51737810154573,209.80551241163926" stroke="#0d6d4d" stroke-width="0.1" fill="none" />
<path d="M-196.82925543529353,145.8877794909086 L-165.66285056713468,180.50157877971927" stroke="#0d6d4d" stroke-width="0.1" fill="none" />
<path d="M-198.2091636218621,144.00738681165595 L-198.2091636218621,144.00738681165595" stroke="#0d6d4d" stroke-width="0.1" fill="none" />
<path d="M-199.57110825233224,142.11394284494358 L-222.859838861857,101.77667818546215" stroke="#0d6d4d" stroke-width="0.1" fill="none" />
<path d="M-200.9149658946268,140.20761919225697 L-238.6329196508717,55.4917080193122" stroke="#0d6d4d" stroke-width="0.1" fill="none" />
<path d="M-202.24061475587962,138.28858862235845 L-244.90008724290635,6.996232444455666" stroke="#0d6d4d" stroke-width="0.1" fill="none" />
<path d="M-203.54793469347337,136.3570250556292 L-241.4116897826848,-41.777937194992795" stroke="#0d6d4d" stroke-width="0.1" fill="none" />
<path d="M-204.83680722592808,134.41310354830728 L-228.30668715680582,-88.88788781090709" stroke="#0d6d4d" stroke-width="0.1" fill="none" />
<path d="M-206.1071155436394,132.4570002766214 L-206.10711554363934,-132.45700027662147" stroke="#0d6d4d" stroke-width="0.1" fill="none" />
<path d="M-207.35874451946387,130.4888925208261 L-175.69729216594612,-170.74970432054684" stroke="#0d6d4d" stroke-width="0.1" fill="none" />
<path d="M-208.59158071915448,128.50895864913255 L-138.28858862235865,-202.2406147558795" stroke="#0d6d4d" stroke-width="0.1" fill="none" />
<path d="M-209.80551241163934,126.51737810154562 L-95.37117604776087,-225.6752950131383" stroke="#0d6d4d" stroke-width="0.1" fill="none" />
<path d="M-211.00042957914906,124.51433137359956 L-48.65466432820776,-240.12022746763637" stroke="#0d6d4d" stroke-width="0.1" fill="none" />
<path d="M-212.17622392718752,122.49999999999991 L0.0,-245.0" stroke="#0d6d4d" stroke-width="0.1" fill="none" />
<path d="M-213.33278889434538,120.47456653817301 L48.654664328207645,-240.1202274676364" stroke="#0d6d4d" stroke-width="0.1" fill="none" />
<path d="M-214.47001966195918,118.43821455171822 L95.37117604776093,-225.67529501313828" stroke="#0d6d4d" stroke-width="0.1" fill="none" />
<path d="M-215.58781316361,116.3911285937738 L138.28858862235845,-202.24061475587962" stroke="#0d6d4d" stroke-width="0.1" fill="none" />
<path d="M-216.68606809446447,114.3334941902901 L175.69729216594604,-170.7497043205469" stroke="#0d6d4d" stroke-width="0.1" fill="none" />
<path d="M-217.76468492045623,112.2654978232156 L206.1071155436394,-132.45700027662141" stroke="#0d6d4d" stroke-width="0.1" fill="none" />
<path d="M-218.82356588730633,110.18732691359614 L228.30668715680585,-88.88788781090703" stroke="#0d6d4d" stroke-width="0.1" fill="none" />
<path d="M-219.8626150293828,108.09916980458922 L241.4116897826848,-41.7779371949928" stroke="#0d6d4d" stroke-width="0.1" fill="none" />
<path d="M-220.8817381783979,106.00121574439453 L244.90008724290635,6.996232444455606" stroke="#0d6d4d" stroke-width="0.1" fill="none" />
<path d="M-221.88084297194257,103.89365486910242 L238.6329196508717,55.4917080193123" stroke="#0d6d4d" stroke-width="0.1" fill="none" />
<path d="M-222.859838861857,101.77667818546215 L222.85983886185699,101.7766781854622" stroke="#0d6d4d" stroke-width="0.1" fill="none" />
<path d="M-223.81863712243725,99.65047755357102 L198.20916362186213,144.0073868116559" stroke="#0d6d4d" stroke-width="0.1" fill="none" />
<path d="M-224.75715085847594,97.5152456694864 L165.6628505671347,180.50157877971924" stroke="#0d6d4d" stroke-width="0.1" fill="none" />
<path d="M-225.6752950131383,95.37117604776087 L126.51737810154567,209.80551241163928" stroke="#0d6d4d" stroke-width="0.1" fill="none" />
<path d="M-226.5729863756696,93.21846300390628 L82.33210133778033,230.75186909168355" stroke="#0d6d4d" stroke-width="0.1" fill="none" />
<path d="M-227.45014358893783,91.05730163678017 L34.86713537695487,242.50625326082852" stroke="#0d6d4d" stroke-width="0.1" fill="none" />
<path d="M-228.3066871568058,88.88788781090716 L-13.986758661378204,244.60043046190324" stroke="#0d6d4d" stroke-width="0.1" fill="none" />
<path d="M-229.14253945133686,86.710418138725 L-62.28349187740419,236.95097940197954" stroke="#0d6d4d" stroke-width="0.1" fill="none" />
<path d="M-229.9576247198296,84.5250899627679 L-108.09916980458927,219.8626150293828" stroke="#0d6d4d" stroke-width="0.1" fill="none" />
<path d="M-230.75186909168355,82.33210133778046 L-149.60873051068225,194.01605025095745" stroke="#0d6d4d" stroke-width="0.1" fill="none" />
<path d="M-231.52520058509376,80.13165101276836 L-185.1586457167933,160.4408798165948" stroke="#0d6d4d" stroke-width="0.1" fill="none" />
<path d="M-232.27754911357485,77.92393841298589 L-213.33278889434538,120.47456653817301" stroke="#0d6d4d" stroke-width="0.1" fill="none" />
<path d="M-233.0088464923126,75.70916362186215 L-233.0088464923126,75.70916362186215" stroke="#0d6d4d" stroke-width="0.1" fill="none" />
<path d="M-233.7190264443436,73.48752736286764 L-243.4030251603948,27.927895423182438" stroke="#0d6d4d" stroke-width="0.1" fill="none" />
<path d="M-234.4080246065618,71.25923098132279 L-244.1012740613594,-20.96587707731581" stroke="#0d6d4d" stroke-width="0.1" fill="none" />
<path d="M-235.07577853555185,69.02447642615027 L-235.07577853555188,-69.0244764261502" stroke="#0d6d4d" stroke-width="0.1" fill="none" />
<path d="M-235.72222771324817,66.78346623157245 L-216.68606809446453,-114.33349419029004" stroke="#0d6d4d" stroke-width="0.1" fill="none" />
<path d="M-236.3473135524196,64.53640349875607 L-189.66469460657518,-155.08805118317323" stroke="#0d6d4d" stroke-width="0.1" fill="none" />
<path d="M-236.9509794019795,62.28349187740426 L-155.08805118317318,-189.66469460657524" stroke="#0d6d4d" stroke-width="0.1" fill="none" />
<path d="M-237.53317055211934,60.02493554730227 L-114.33349419029011,-216.68606809446447" stroke="#0d6d4d" stroke-width="0.1" fill="none" />
<path d="M-238.09383423926766,57.760939199809826 L-69.02447642615029,-235.07577853555185" stroke="#0d6d4d" stroke-width="0.1" fill="none" />
<path d="M-238.6329196508717,55.4917080193122 L-20.9658770773157,-244.1012740613594" stroke="#0d6d4d" stroke-width="0.1" fill="none" />
<path d="M-239.15037793000232,53.21744766462453 L27.927895423182452,-243.4030251603948" stroke="#0d6d4d" stroke-width="0.1" fill="none" />
<path d="M-239.64616217978238,50.93836425035094 L75.70916362186212,-233.0088464923126" stroke="#0d6d4d" stroke-width="0.1" fill="none" />
<path d="M-240.12022746763637,48.654664328207744 L120.47456653817292,-213.3327888943454" stroke="#0d6d4d" stroke-width="0.1" fill="none" />
<path d="M-240.5725308293631,46.36655486830059 L160.44087981659484,-185.15864571679327" stroke="#0d6d4d" stroke-width="0.1" fill="none" />
<path d="M-241.00303127302936,44.07424324036928 L194.01605025095736,-149.60873051068236" stroke="#0d6d4d" stroke-width="0.1" fill="none" />
<path d="M-241.4116897826848,41.777937194992894 L219.86261502938282,-108.09916980458921" stroke="#0d6d4d" stroke-width="0.1" fill="none" />
<path d="M-241.79846932189815,39.477844844761755 L236.9509794019795,-62.28349187740429" stroke="#0d6d4d" stroke-width="0.1" fill="none" />
<path d="M-242.16333483711378,37.17417464541629 L244.60043046190324,-13.986758661378142" stroke="#0d6d4d" stroke-width="0.1" fill="none" />
<path d="M-242.50625326082852,34.867135376954884 L242.50625326082852,34.86713537695488" stroke="#0d6d4d" stroke-width="0.1" fill="none" />
<path d="M-242.8271935145885,32.55693612471226 L230.75186909168355,82.3321013377804" stroke="#0d6d4d" stroke-width="0.1" fill="none" />
<path d="M-243.12612651180584,30.243786260410207 L209.8055124116393,126.51737810154565" stroke="#0d6d4d" stroke-width="0.1" fill="none" />
<path d="M-243.4030251603948,27.927895423182438 L180.50157877971918,165.66285056713477" stroke="#0d6d4d" stroke-width="0.1" fill="none" />
<path d="M-243.65786436522697,25.60947350057507 L144.00738681165595,198.2091636218621" stroke="#0d6d4d" stroke-width="0.1" fill="none" />
<path d="M-243.89062103040573,23.28873060952493 L101.77667818546213,222.859838861857" stroke="#0d6d4d" stroke-width="0.1" fill="none" />
<path d="M-244.1012740613594,20.96587707731568 L55.491708019312284,238.6329196508717" stroke="#0d6d4d" stroke-width="0.1" fill="none" />
<path d="M-244.28980436675295,18.64112342251844 L6.996232444455543,244.90008724290635" stroke="#0d6d4d" stroke-width="0.1" fill="none" />
<path d="M-244.45619486021843,16.314680335909348 L-41.77793719499271,241.41168978268482" stroke="#0d6d4d" stroke-width="0.1" fill="none" />
<path d="M-244.60043046190324,13.986758661378278 L-88.8878878109071,228.30668715680582" stroke="#0d6d4d" stroke-width="0.1" fill="none" />
<path d="M-244.72249809983694,11.657569376816973 L-132.45700027662133,206.10711554363945" stroke="#0d6d4d" stroke-width="0.1" fill="none" />
<path d="M-244.82238671111602,9.327323575000417 L-170.74970432054695,175.697292165946" stroke="#0d6d4d" stroke-width="0.1" fill="none" />
<path d="M-244.90008724290635,6.996232444455666 L-202.24061475587962,138.28858862235845" stroke="#0d6d4d" stroke-width="0.1" fill="none" />
<path d="M-244.9555926532638,4.664507250320008 L-225.6752950131383,95.37117604776087" stroke="#0d6d4d" stroke-width="0.1" fill="none" />
<path d="M-244.98889791177234,2.332359315196336 L-240.12022746763637,48.654664328207744" stroke="#0d6d4d" stroke-width="0.1" fill="none" />
<path d="M-245.0,4.500576986866523e-14 L-245.0,4.500576986866523e-14" stroke="#0d6d4d" stroke-width="0.1" fill="none" />
<path d="M-244.98889791177234,-2.332359315196246 L-240.1202274676364,-48.65466432820765" stroke="#0d6d4d" stroke-width="0.1" fill="none" />
<path d="M-244.9555926532638,-4.664507250319917 L-225.67529501313825,-95.37117604776098" stroke="#0d6d4d" stroke-width="0.1" fill="none" />
<path d="M-244.90008724290635,-6.996232444455576 L-202.24061475587968,-138.28858862235836" stroke="#0d6d4d" stroke-width="0.1" fill="none" />
<path d="M-244.82238671111602,-9.327323575000547 L-170.74970432054693,-175.69729216594604" stroke="#0d6d4d" stroke-width="0.1" fill="none" />
<path d="M-244.72249809983694,-11.657569376816665 L-132.4570002766214,-206.1071155436394" stroke="#0d6d4d" stroke-width="0.1" fill="none" />
<path d="M-244.60043046190324,-13.986758661378191 L-88.88788781090696,-228.30668715680585" stroke="#0d6d4d" stroke-width="0.1" fill="none" />
<path d="M-244.45619486021843,-16.314680335909475 L-41.77793719499291,-241.4116897826848" stroke="#0d6d4d" stroke-width="0.1" fill="none" />
<path d="M-244.28980436675297,-18.641123422518138 L6.996232444455582,-244.90008724290635" stroke="#0d6d4d" stroke-width="0.1" fill="none" />
<path d="M-244.1012740613594,-20.96587707731581 L55.49170801931227,-238.6329196508717" stroke="#0d6d4d" stroke-width="0.1" fill="none" />
<path d="M-243.89062103040575,-23.28873060952462 L101.77667818546217,-222.85983886185699" stroke="#0d6d4d" stroke-width="0.1" fill="none" />
<path d="M-243.65786436522694,-25.6094735005752 L144.00738681165592,-198.20916362186213" stroke="#0d6d4d" stroke-width="0.1" fill="none" />
<path d="M-243.4030251603948,-27.92789542318235 L180.50157877971918,-165.6628505671348" stroke="#0d6d4d" stroke-width="0.1" fill="none" />
<path d="M-243.12612651180584,-30.24378626041012 L209.80551241163928,-126.51737810154567" stroke="#0d6d4d" stroke-width="0.1" fill="none" />
<path d="M-242.8271935145885,-32.55693612471216 L230.75186909168355,-82.33210133778037" stroke="#0d6d4d" stroke-width="0.1" fill="none" />
<path d="M-242.50625326082854,-34.86713537695479 L242.50625326082852,-34.867135376954856" stroke="#0d6d4d" stroke-width="0.1" fill="none" />
<path d="M-242.16333483711378,-37.1741746454162 L244.60043046190324,13.986758661378111" stroke="#0d6d4d" stroke-width="0.1" fill="none" />
<path d="M-241.79846932189815,-39.477844844761655 L236.9509794019795,62.28349187740426" stroke="#0d6d4d" stroke-width="0.1" fill="none" />
<path d="M-241.4116897826848,-41.777937194992795 L219.86261502938282,108.09916980458918" stroke="#0d6d4d" stroke-width="0.1" fill="none" />
<path d="M-241.0030312730294,-44.074243240369185 L194.0160502509574,149.60873051068236" stroke="#0d6d4d" stroke-width="0.1" fill="none" />
<path d="M-240.57253082936313,-46.3665548683005 L160.44087981659487,185.15864571679325" stroke="#0d6d4d" stroke-width="0.1" fill="none" />
<path d="M-240.1202274676364,-48.65466432820765 L120.47456653817291,213.3327888943454" stroke="#0d6d4d" stroke-width="0.1" fill="none" />
<path d="M-239.64616217978238,-50.93836425035106 L75.70916362186215,233.0088464923126" stroke="#0d6d4d" stroke-width="0.1" fill="none" />
<path d="M-239.1503779300024,-53.217447664624224 L27.927895423182424,243.4030251603948" stroke="#0d6d4d" stroke-width="0.1" fill="none" />
<path d="M-238.6329196508717,-55.49170801931232 L-20.965877077315607,244.1012740613594" stroke="#0d6d4d" stroke-width="0.1" fill="none" />
<path d="M-238.09383423926775,-57.76093919980952 L-69.02447642615031,235.07577853555185" stroke="#0d6d4d" stroke-width="0.1" fill="none" />
<path d="M-237.5331705521194,-60.02493554730197 L-114.33349419028995,216.68606809446456" stroke="#0d6d4d" stroke-width="0.1" fill="none" />
<path d="M-236.95097940197954,-62.28349187740418 L-155.08805118317326,189.66469460657518" stroke="#0d6d4d" stroke-width="0.1" fill="none" />
<path d="M-236.34731355241968,-64.53640349875579 L-189.66469460657513,155.08805118317335" stroke="#0d6d4d" stroke-width="0.1" fill="none" />
<path d="M-235.72222771324815,-66.78346623157259 L-216.68606809446447,114.3334941902901" stroke="#0d6d4d" stroke-width="0.1" fill="none" />
<path d="M-235.07577853555188,-69.0244764261502 L-235.07577853555185,69.02447642615027" stroke="#0d6d4d" stroke-width="0.1" fill="none" />
<path d="M-234.40802460656184,-71.2592309813227 L-244.1012740613594,20.96587707731568" stroke="#0d6d4d" stroke-width="0.1" fill="none" />
<path d="M-233.71902644434363,-73.48752736286755 L-243.4030251603948,-27.92789542318235" stroke="#0d6d4d" stroke-width="0.1" fill="none" />
<path d="M-233.00884649231264,-75.70916362186207 L-233.00884649231264,-75.70916362186207" stroke="#0d6d4d" stroke-width="0.1" fill="none" />
<path d="M-232.27754911357488,-77.92393841298582 L-213.3327888943454,-120.47456653817292" stroke="#0d6d4d" stroke-width="0.1" fill="none" />
<path d="M-231.52520058509378,-80.13165101276827 L-185.15864571679325,-160.44087981659487" stroke="#0d6d4d" stroke-width="0.1" fill="none" />
<path d="M-230.75186909168355,-82.33210133778037 L-149.60873051068242,-194.01605025095733" stroke="#0d6d4d" stroke-width="0.1" fill="none" />
<path d="M-229.95762471982962,-84.52508996276782 L-108.09916980458924,-219.8626150293828" stroke="#0d6d4d" stroke-width="0.1" fill="none" />
<path d="M-229.14253945133697,-86.71041813872472 L-62.28349187740427,-236.9509794019795" stroke="#0d6d4d" stroke-width="0.1" fill="none" />
<path d="M-228.30668715680582,-88.88788781090709 L-13.986758661378076,-244.60043046190324" stroke="#0d6d4d" stroke-width="0.1" fill="none" />
<path d="M-227.45014358893778,-91.05730163678028 L34.86713537695486,-242.50625326082852" stroke="#0d6d4d" stroke-width="0.1" fill="none" />
<path d="M-226.5729863756697,-93.218463003906 L82.33210133778037,-230.75186909168355" stroke="#0d6d4d" stroke-width="0.1" fill="none" />
<path d="M-225.67529501313825,-95.37117604776098 L126.51737810154565,-209.8055124116393" stroke="#0d6d4d" stroke-width="0.1" fill="none" />
<path d="M-224.75715085847608,-97.51524566948612 L165.66285056713474,-180.5015787797192" stroke="#0d6d4d" stroke-width="0.1" fill="none" />
<path d="M-223.8186371224372,-99.65047755357115 L198.20916362186213,-144.00738681165592" stroke="#0d6d4d" stroke-width="0.1" fill="none" />
<path d="M-222.85983886185704,-101.77667818546207 L222.85983886185699,-101.77667818546217" stroke="#0d6d4d" stroke-width="0.1" fill="none" />
<path d="M-221.8808429719426,-103.89365486910235 L238.6329196508717,-55.49170801931233" stroke="#0d6d4d" stroke-width="0.1" fill="none" />
<path d="M-220.88173817839794,-106.00121574439446 L244.90008724290635,-6.996232444455637" stroke="#0d6d4d" stroke-width="0.1" fill="none" />
<path d="M-219.86261502938285,-108.09916980458915 L241.41168978268482,41.77793719499278" stroke="#0d6d4d" stroke-width="0.1" fill="none" />
<path d="M-218.82356588730636,-110.18732691359607 L228.30668715680585,88.887887810907" stroke="#0d6d4d" stroke-width="0.1" fill="none" />
<path d="M-217.7646849204563,-112.26549782321551 L206.1071155436394,132.45700027662141" stroke="#0d6d4d" stroke-width="0.1" fill="none" />
<path d="M-216.68606809446453,-114.33349419029004 L175.6972921659461,170.74970432054687" stroke="#0d6d4d" stroke-width="0.1" fill="none" />
<path d="M-215.58781316361004,-116.39112859377373 L138.28858862235842,202.24061475587962" stroke="#0d6d4d" stroke-width="0.1" fill="none" />
<path d="M-214.47001966195924,-118.43821455171813 L95.37117604776094,225.67529501313828" stroke="#0d6d4d" stroke-width="0.1" fill="none" />
<path d="M-213.3327888943454,-120.47456653817292 L48.654664328207616,240.1202274676364" stroke="#0d6d4d" stroke-width="0.1" fill="none" />
<path d="M-212.17622392718746,-122.5 L1.388057029923755e-13,245.0" stroke="#0d6d4d" stroke-width="0.1" fill="none" />
<path d="M-211.00042957914923,-124.51433137359926 L-48.654664328207666,240.12022746763637" stroke="#0d6d4d" stroke-width="0.1" fill="none" />
<path d="M-209.80551241163928,-126.5173781015457 L-95.3711760477608,225.67529501313834" stroke="#0d6d4d" stroke-width="0.1" fill="none" />
<path d="M-208.5915807191545,-128.50895864913247 L-138.2885886223584,202.24061475587965" stroke="#0d6d4d" stroke-width="0.1" fill="none" />
<path d="M-207.35874451946407,-130.48889252082583 L-175.69729216594595,170.749704320547" stroke="#0d6d4d" stroke-width="0.1" fill="none" />
<path d="M-206.10711554363934,-132.45700027662147 L-206.1071155436394,132.4570002766214" stroke="#0d6d4d" stroke-width="0.1" fill="none" />
<path d="M-204.83680722592823,-134.41310354830702 L-228.3066871568058,88.88788781090716" stroke="#0d6d4d" stroke-width="0.1" fill="none" />
<path d="M-203.5479346934733,-136.35702505562932 L-241.4116897826848,41.777937194992894" stroke="#0d6d4d" stroke-width="0.1" fill="none" />
<path d="M-202.24061475587968,-138.28858862235836 L-244.90008724290635,-6.996232444455576" stroke="#0d6d4d" stroke-width="0.1" fill="none" />
<path d="M-200.91496589462687,-140.20761919225689 L-238.6329196508717,-55.49170801931232" stroke="#0d6d4d" stroke-width="0.1" fill="none" />
<path d="M-199.5711082523323,-142.1139428449435 L-222.85983886185704,-101.77667818546207" stroke="#0d6d4d" stroke-width="0.1" fill="none" />
<path d="M-198.20916362186216,-144.00738681165586 L-198.20916362186216,-144.00738681165586" stroke="#0d6d4d" stroke-width="0.1" fill="none" />
<path d="M-196.8292554352936,-145.8877794909085 L-165.66285056713474,-180.5015787797192" stroke="#0d6d4d" stroke-width="0.1" fill="none" />
<path d="M-195.4315087527281,-147.75495046404492 L-126.51737810154562,-209.80551241163934" stroke="#0d6d4d" stroke-width="0.1" fill="none" />
<path d="M-194.01605025095756,-149.60873051068214 L-82.33210133778047,-230.75186909168355" stroke="#0d6d4d" stroke-width="0.1" fill="none" />
<path d="M-192.58300821198293,-151.44895162404828 L-34.8671353769549,-242.50625326082852" stroke="#0d6d4d" stroke-width="0.1" fill="none" />
<path d="M-191.13251251138956,-153.27544702620676 L13.986758661378154,-244.60043046190324" stroke="#0d6d4d" stroke-width="0.1" fill="none" />
<path d="M-189.66469460657518,-155.08805118317323 L62.2834918774043,-236.9509794019795" stroke="#0d6d4d" stroke-width="0.1" fill="none" />
<path d="M-188.1796875248368,-156.886599819917 L108.09916980458921,-219.86261502938282" stroke="#0d6d4d" stroke-width="0.1" fill="none" />
<path d="M-186.67762585131447,-158.67092993524886 L149.60873051068236,-194.0160502509574" stroke="#0d6d4d" stroke-width="0.1" fill="none" />
<path d="M-185.15864571679325,-160.44087981659487 L185.15864571679327,-160.44087981659484" stroke="#0d6d4d" stroke-width="0.1" fill="none" />
<path d="M-183.62288478536735,-162.19628905465044 L213.3327888943454,-120.47456653817295" stroke="#0d6d4d" stroke-width="0.1" fill="none" />
<path d="M-182.07048224196168,-163.93699855792016 L233.0088464923126,-75.70916362186213" stroke="#0d6d4d" stroke-width="0.1" fill="none" />
<path d="M-180.5015787797193,-165.66285056713465 L243.4030251603948,-27.92789542318246" stroke="#0d6d4d" stroke-width="0.1" fill="none" />
<path d="M-178.91631658724964,-167.37368866954887 L244.1012740613594,20.965877077315678" stroke="#0d6d4d" stroke-width="0.1" fill="none" />
<path d="M-177.31483933574225,-169.06935781311736 L235.07577853555188,69.02447642615023" stroke="#0d6d4d" stroke-width="0.1" fill="none" />
<path d="M-175.69729216594612,-170.74970432054684 L216.6860680944645,114.33349419029007" stroke="#0d6d4d" stroke-width="0.1" fill="none" />
<path d="M-174.0638216750154,-172.41457590322358 L189.66469460657524,155.08805118317318" stroke="#0d6d4d" stroke-width="0.1" fill="none" />
<path d="M-172.41457590322366,-174.06382167501533 L155.08805118317323,189.6646946065752" stroke="#0d6d4d" stroke-width="0.1" fill="none" />
<path d="M-170.74970432054693,-175.69729216594604 L114.3334941902901,216.6860680944645" stroke="#0d6d4d" stroke-width="0.1" fill="none" />
<path d="M-169.06935781311745,-177.31483933574216 L69.02447642615026,235.07577853555185" stroke="#0d6d4d" stroke-width="0.1" fill="none" />
<path d="M-167.37368866954895,-178.91631658724955 L20.965877077315778,244.1012740613594" stroke="#0d6d4d" stroke-width="0.1" fill="none" />
<path d="M-165.66285056713474,-180.5015787797192 L-27.927895423182363,243.4030251603948" stroke="#0d6d4d" stroke-width="0.1" fill="none" />
<path d="M-163.93699855792025,-182.0704822419616 L-75.70916362186219,233.00884649231259" stroke="#0d6d4d" stroke-width="0.1" fill="none" />
<path d="M-162.1962890546507,-183.6228847853671 L-120.47456653817285,213.33278889434544" stroke="#0d6d4d" stroke-width="0.1" fill="none" />
<path d="M-160.4408798165948,-185.1586457167933 L-160.44087981659473,185.15864571679336" stroke="#0d6d4d" stroke-width="0.1" fill="none" />
<path d="M-158.6709299352491,-186.67762585131425 L-194.01605025095733,149.60873051068242" stroke="#0d6d4d" stroke-width="0.1" fill="none" />
<path d="M-156.88659981991708,-188.1796875248367 L-219.8626150293828,108.09916980458922" stroke="#0d6d4d" stroke-width="0.1" fill="none" />
<path d="M-155.08805118317318,-189.66469460657524 L-236.9509794019795,62.28349187740426" stroke="#0d6d4d" stroke-width="0.1" fill="none" />
<path d="M-153.27544702620682,-191.1325125113895 L-244.60043046190324,13.986758661378278" stroke="#0d6d4d" stroke-width="0.1" fill="none" />
<path d="M-151.4489516240482,-192.58300821198299 L-242.50625326082854,-34.86713537695479" stroke="#0d6d4d" stroke-width="0.1" fill="none" />
<path d="M-149.60873051068242,-194.01605025095733 L-230.75186909168355,-82.33210133778037" stroke="#0d6d4d" stroke-width="0.1" fill="none" />
<path d="M-147.754950464045,-195.431508752728 L-209.80551241163928,-126.5173781015457" stroke="#0d6d4d" stroke-width="0.1" fill="none" />
<path d="M-145.8877794909086,-196.82925543529353 L-180.5015787797193,-165.66285056713465" stroke="#0d6d4d" stroke-width="0.1" fill="none" />
<path d="M-144.00738681165595,-198.2091636218621 L-144.00738681165595,-198.2091636218621" stroke="#0d6d4d" stroke-width="0.1" fill="none" />
<path d="M-142.11394284494358,-199.57110825233224 L-101.77667818546237,-222.8598388618569" stroke="#0d6d4d" stroke-width="0.1" fill="none" />
<path d="M-140.20761919225697,-200.9149658946268 L-55.49170801931221,-238.6329196508717" stroke="#0d6d4d" stroke-width="0.1" fill="none" />
<path d="M-138.28858862235865,-202.2406147558795 L-6.996232444455464,-244.90008724290635" stroke="#0d6d4d" stroke-width="0.1" fill="none" />
<path d="M-136.3570250556292,-203.54793469347337 L41.77793719499282,-241.4116897826848" stroke="#0d6d4d" stroke-width="0.1" fill="none" />
<path d="M-134.41310354830713,-204.83680722592817 L88.88788781090705,-228.30668715680582" stroke="#0d6d4d" stroke-width="0.1" fill="none" />
<path d="M-132.4570002766214,-206.1071155436394 L132.45700027662141,-206.1071155436394" stroke="#0d6d4d" stroke-width="0.1" fill="none" />
<path d="M-130.48889252082594,-207.35874451946398 L170.7497043205469,-175.6972921659461" stroke="#0d6d4d" stroke-width="0.1" fill="none" />
<path d="M-128.50895864913275,-208.59158071915436 L202.24061475587962,-138.28858862235847" stroke="#0d6d4d" stroke-width="0.1" fill="none" />
<path d="M-126.51737810154562,-209.80551241163934 L225.67529501313828,-95.37117604776093" stroke="#0d6d4d" stroke-width="0.1" fill="none" />
<path d="M-124.51433137359956,-211.00042957914906 L240.1202274676364,-48.65466432820766" stroke="#0d6d4d" stroke-width="0.1" fill="none" />
<path d="M-122.50000000000011,-212.1762239271874 L245.0,-6.940285149618775e-14" stroke="#0d6d4d" stroke-width="0.1" fill="none" />
<path d="M-120.47456653817301,-213.33278889434538 L240.1202274676364,48.65466432820757" stroke="#0d6d4d" stroke-width="0.1" fill="none" />
<path d="M-118.43821455171822,-214.47001966195918 L225.6752950131383,95.37117604776087" stroke="#0d6d4d" stroke-width="0.1" fill="none" />
<path d="M-116.39112859377381,-215.58781316361 L202.24061475587965,138.2885886223584" stroke="#0d6d4d" stroke-width="0.1" fill="none" />
<path d="M-114.33349419029011,-216.68606809446447 L170.7497043205469,175.69729216594604" stroke="#0d6d4d" stroke-width="0.1" fill="none" />
<path d="M-112.26549782321561,-217.76468492045623 L132.45700027662144,206.10711554363937" stroke="#0d6d4d" stroke-width="0.1" fill="none" />
<path d="M-110.18732691359615,-218.82356588730633 L88.88788781090705,228.30668715680582" stroke="#0d6d4d" stroke-width="0.1" fill="none" />
<path d="M-108.09916980458924,-219.8626150293828 L41.77793719499287,241.4116897826848" stroke="#0d6d4d" stroke-width="0.1" fill="none" />
<path d="M-106.00121574439454,-220.88173817839788 L-6.996232444455483,244.90008724290635" stroke="#0d6d4d" stroke-width="0.1" fill="none" />
<path d="M-103.89365486910242,-221.88084297194254 L-55.49170801931234,238.6329196508717" stroke="#0d6d4d" stroke-width="0.1" fill="none" />
<path d="M-101.77667818546237,-222.8598388618569 L-101.77667818546209,222.85983886185704" stroke="#0d6d4d" stroke-width="0.1" fill="none" />
<path d="M-99.65047755357104,-223.81863712243725 L-144.00738681165598,198.20916362186207" stroke="#0d6d4d" stroke-width="0.1" fill="none" />
<path d="M-97.51524566948642,-224.75715085847594 L-180.50157877971913,165.66285056713483" stroke="#0d6d4d" stroke-width="0.1" fill="none" />
<path d="M-95.37117604776087,-225.6752950131383 L-209.80551241163934,126.51737810154562" stroke="#0d6d4d" stroke-width="0.1" fill="none" />
<path d="M-93.2184630039061,-226.57298637566967 L-230.75186909168355,82.33210133778046" stroke="#0d6d4d" stroke-width="0.1" fill="none" />
<path d="M-91.05730163678038,-227.45014358893772 L-242.50625326082852,34.867135376954884" stroke="#0d6d4d" stroke-width="0.1" fill="none" />
<path d="M-88.88788781090696,-228.30668715680585 L-244.60043046190324,-13.986758661378191" stroke="#0d6d4d" stroke-width="0.1" fill="none" />
<path d="M-86.71041813872502,-229.14253945133686 L-236.95097940197954,-62.28349187740418" stroke="#0d6d4d" stroke-width="0.1" fill="none" />
<path d="M-84.52508996276791,-229.9576247198296 L-219.86261502938285,-108.09916980458915" stroke="#0d6d4d" stroke-width="0.1" fill="none" />
<path d="M-82.33210133778047,-230.75186909168355 L-194.01605025095756,-149.60873051068214" stroke="#0d6d4d" stroke-width="0.1" fill="none" />
<path d="M-80.13165101276837,-231.52520058509376 L-160.4408798165948,-185.1586457167933" stroke="#0d6d4d" stroke-width="0.1" fill="none" />
<path d="M-77.9239384129859,-232.27754911357485 L-120.47456653817301,-213.33278889434538" stroke="#0d6d4d" stroke-width="0.1" fill="none" />
<path d="M-75.70916362186216,-233.0088464923126 L-75.70916362186216,-233.0088464923126" stroke="#0d6d4d" stroke-width="0.1" fill="none" />
<path d="M-73.48752736286765,-233.7190264443436 L-27.927895423182672,-243.40302516039478" stroke="#0d6d4d" stroke-width="0.1" fill="none" />
<path d="M-71.2592309813228,-234.4080246065618 L20.965877077315735,-244.1012740613594" stroke="#0d6d4d" stroke-width="0.1" fill="none" />
<path d="M-69.02447642615029,-235.07577853555185 L69.02447642615027,-235.07577853555185" stroke="#0d6d4d" stroke-width="0.1" fill="none" />
<path d="M-66.78346623157246,-235.72222771324817 L114.33349419029005,-216.6860680944645" stroke="#0d6d4d" stroke-width="0.1" fill="none" />
<path d="M-64.53640349875587,-236.34731355241965 L155.08805118317323,-189.6646946065752" stroke="#0d6d4d" stroke-width="0.1" fill="none" />
<path d="M-62.28349187740427,-236.9509794019795 L189.66469460657518,-155.08805118317326" stroke="#0d6d4d" stroke-width="0.1" fill="none" />
<path d="M-60.02493554730207,-237.5331705521194 L216.6860680944645,-114.33349419029008" stroke="#0d6d4d" stroke-width="0.1" fill="none" />
<path d="M-57.76093919980984,-238.09383423926766 L235.07577853555185,-69.0244764261503" stroke="#0d6d4d" stroke-width="0.1" fill="none" />
<path d="M-55.49170801931221,-238.6329196508717 L244.1012740613594,-20.96587707731576" stroke="#0d6d4d" stroke-width="0.1" fill="none" />
<path d="M-53.217447664624544,-239.15037793000232 L243.4030251603948,27.927895423182488" stroke="#0d6d4d" stroke-width="0.1" fill="none" />
<path d="M-50.93836425035117,-239.64616217978238 L233.0088464923126,75.70916362186215" stroke="#0d6d4d" stroke-width="0.1" fill="none" />
<path d="M-48.65466432820776,-240.12022746763637 L213.3327888943454,120.47456653817295" stroke="#0d6d4d" stroke-width="0.1" fill="none" />
<path d="M-46.366554868300604,-240.5725308293631 L185.1586457167933,160.44087981659482" stroke="#0d6d4d" stroke-width="0.1" fill="none" />
<path d="M-44.07424324036908,-241.0030312730294 L149.6087305106824,194.01605025095733" stroke="#0d6d4d" stroke-width="0.1" fill="none" />
<path d="M-41.77793719499291,-241.4116897826848 L108.09916980458932,219.86261502938277" stroke="#0d6d4d" stroke-width="0.1" fill="none" />
<path d="M-39.47784484476176,-241.79846932189815 L62.28349187740435,236.95097940197948" stroke="#0d6d4d" stroke-width="0.1" fill="none" />
<path d="M-37.1741746454163,-242.16333483711378 L13.986758661378266,244.60043046190324" stroke="#0d6d4d" stroke-width="0.1" fill="none" />
<path d="M-34.8671353769549,-242.50625326082852 L-34.86713537695492,242.50625326082852" stroke="#0d6d4d" stroke-width="0.1" fill="none" />
<path d="M-32.55693612471227,-242.8271935145885 L-82.33210133778029,230.75186909168357" stroke="#0d6d4d" stroke-width="0.1" fill="none" />
<path d="M-30.243786260410225,-243.12612651180584 L-126.51737810154573,209.80551241163926" stroke="#0d6d4d" stroke-width="0.1" fill="none" />
<path d="M-27.927895423182672,-243.40302516039478 L-165.66285056713468,180.50157877971927" stroke="#0d6d4d" stroke-width="0.1" fill="none" />
<path d="M-25.60947350057509,-243.65786436522694 L-198.2091636218621,144.00738681165595" stroke="#0d6d4d" stroke-width="0.1" fill="none" />
<path d="M-23.288730609524944,-243.8906210304057 L-222.859838861857,101.77667818546215" stroke="#0d6d4d" stroke-width="0.1" fill="none" />
<path d="M-20.9658770773157,-244.1012740613594 L-238.6329196508717,55.4917080193122" stroke="#0d6d4d" stroke-width="0.1" fill="none" />
<path d="M-18.641123422518458,-244.28980436675295 L-244.90008724290635,6.996232444455666" stroke="#0d6d4d" stroke-width="0.1" fill="none" />
<path d="M-16.314680335909365,-244.45619486021843 L-241.4116897826848,-41.777937194992795" stroke="#0d6d4d" stroke-width="0.1" fill="none" />
<path d="M-13.986758661378076,-244.60043046190324 L-228.30668715680582,-88.88788781090709" stroke="#0d6d4d" stroke-width="0.1" fill="none" />
<path d="M-11.657569376816987,-244.72249809983694 L-206.10711554363934,-132.45700027662147" stroke="#0d6d4d" stroke-width="0.1" fill="none" />
<path d="M-9.327323575000651,-244.822386711116 L-175.69729216594612,-170.74970432054684" stroke="#0d6d4d" stroke-width="0.1" fill="none" />
<path d="M-6.996232444455464,-244.90008724290635 L-138.28858862235865,-202.2406147558795" stroke="#0d6d4d" stroke-width="0.1" fill="none" />
<path d="M-4.664507250320023,-244.9555926532638 L-95.37117604776087,-225.6752950131383" stroke="#0d6d4d" stroke-width="0.1" fill="none" />
<path d="M-2.332359315196351,-244.98889791177234 L-48.65466432820776,-240.12022746763637" stroke="#0d6d4d" stroke-width="0.1" fill="none" />
</svg>