<?xml version="1.0" encoding="UTF-8"?>
<svg xmlns="http://www.w3.org/2000/svg" xmlns:xlink="http://www.w3.org/1999/xlink"
     width="500.0" height="500" viewBox="-250.0 -250.0 500 500">
<defs>
</defs>
<circle cx="0" cy="0" r="245.0" fill="white" stroke-width="2" stroke="black" />
<path d="M0.0,-245.0 L0.0,-245.0" stroke="#0d6d4d" stroke-width="0.1" fill="none" />
<path d="M19.969774469030476,-244.18478271107733 L39.80665338375042,-241.74455598086578" stroke="#0d6d4d" stroke-width="0.1" fill="none" />
<path d="M39.80665338375042,-241.74455598086578 L78.5554428354202,-232.06473752151797" stroke="#0d6d4d" stroke-width="0.1" fill="none" />
<path d="M59.37862558783702,-237.6955591156458 L115.21661721322052,-216.2177863126487" stroke="#0d6d4d" stroke-width="0.1" fill="none" />
<path d="M78.5554428354202,-232.06473752151797 L148.8159038570481,-194.6248359259676" stroke="#0d6d4d" stroke-width="0.1" fill="none" />
<path d="M97.20948657166942,-224.88956338717105 L178.4603999362759,-167.85972016712185" stroke="#0d6d4d" stroke-width="0.1" fill="none" />
<path d="M115.21661721322052,-216.2177863126487 L203.3623013899947,-136.63372341177322" stroke="#0d6d4d" stroke-width="0.1" fill="none" />
<path d="M132.45700027662141,-206.1071155436394 L222.85983886185699,-101.77667818546217" stroke="#0d6d4d" stroke-width="0.1" fill="none" />
<path d="M148.8159038570481,-194.6248359259676 L236.43486425593926,-64.21491232008005" stroke="#0d6d4d" stroke-width="0.1" fill="none" />
<path d="M164.18446215020208,-181.84736013604615 L243.726620549966,-24.946631742439706" stroke="#0d6d4d" stroke-width="0.1" fill="none" />
<path d="M178.4603999362759,-167.85972016712185 L244.5413289323749,14.984606901351462" stroke="#0d6d4d" stroke-width="0.1" fill="none" />
<path d="M191.54871320466728,-152.75500145538976 L238.85733848454677,54.51762881929696" stroke="#0d6d4d" stroke-width="0.1" fill="none" />
<path d="M203.3623013899947,-136.63372341177322 L226.82570155512002,92.60184185008208" stroke="#0d6d4d" stroke-width="0.1" fill="none" />
<path d="M213.82254701198974,-119.6031704818289 L208.7661595357868,128.22515600567" stroke="#0d6d4d" stroke-width="0.1" fill="none" />
<path d="M222.85983886185699,-101.77667818546217 L185.1586457167933,160.44087981659482" stroke="#0d6d4d" stroke-width="0.1" fill="none" />
<path d="M230.4140352533838,-83.27287888774113 L156.63053103421018,188.39287870814366" stroke="#0d6d4d" stroke-width="0.1" fill="none" />
<path d="M236.43486425593926,-64.21491232008005 L123.93995165391976,211.33832682224025" stroke="#0d6d4d" stroke-width="0.1" fill="none" />
<path d="M240.88225824587823,-44.72960610564361 L87.95566146266168,228.66744765415484" stroke="#0d6d4d" stroke-width="0.1" fill="none" />
<path d="M243.726620549966,-24.946631742439706 L49.633944887259915,239.91971889556814" stroke="#0d6d4d" stroke-width="0.1" fill="none" />
<path d="M244.9490224063556,-4.997641660894332 L9.993203585088505,244.7961108394228" stroke="#0d6d4d" stroke-width="0.1" fill="none" />
<path d="M244.5413289323749,14.984606901351462 L-29.91310763416916,243.1670331103018" stroke="#0d6d4d" stroke-width="0.1" fill="none" />
<path d="M242.50625326082852,34.86713537695488 L-69.02447642615031,235.07577853555185" stroke="#0d6d4d" stroke-width="0.1" fill="none" />
<path d="M238.85733848454677,54.51762881929696 L-106.30151608380162,220.73737263609274" stroke="#0d6d4d" stroke-width="0.1" fill="none" />
<path d="M233.61886752933728,73.80531643662233 L-140.75358729443343,200.53285931175546" stroke="#0d6d4d" stroke-width="0.1" fill="none" />
<path d="M226.82570155512002,92.60184185008208 L-171.46512443217262,174.99917457936644" stroke="#0d6d4d" stroke-width="0.1" fill="none" />
<path d="M218.52304796065997,110.78211728425804 L-197.6199667631949,144.8148774695257" stroke="#0d6d4d" stroke-width="0.1" fill="none" />
<path d="M208.7661595357868,128.22515600567 L-218.52304796066005,110.7821172842579" stroke="#0d6d4d" stroke-width="0.1" fill="none" />
<path d="M197.6199667631949,144.8148774695257 L-233.61886752933725,73.80531643662245" stroke="#0d6d4d" stroke-width="0.1" fill="none" />
<path d="M185.1586457167933,160.44087981659482 L-242.50625326082852,34.867135376954884" stroke="#0d6d4d" stroke-width="0.1" fill="none" />
<path d="M171.46512443217264,174.99917457936638 L-244.9490224063556,-4.997641660894326" stroke="#0d6d4d" stroke-width="0.1" fill="none" />
<path d="M156.63053103421018,188.39287870814366 L-240.88225824587826,-44.72960610564344" stroke="#0d6d4d" stroke-width="0.1" fill="none" />
<path d="M140.75358729443357,200.53285931175537 L-230.41403525338384,-83.27287888774099" stroke="#0d6d4d" stroke-width="0.1" fill="none" />
<path d="M123.93995165391976,211.33832682224025 L-213.8225470119898,-119.60317048182883" stroke="#0d6d4d" stroke-width="0.1" fill="none" />
<path d="M106.30151608380177,220.73737263609266 L-191.54871320466734,-152.75500145538967" stroke="#0d6d4d" stroke-width="0.1" fill="none" />
<path d="M87.95566146266168,228.66744765415484 L-164.1844621502021,-181.84736013604615" stroke="#0d6d4d" stroke-width="0.1" fill="none" />
<path d="M69.02447642615036,235.07577853555182 L-132.45700027662156,-206.10711554363928" stroke="#0d6d4d" stroke-width="0.1" fill="none" />
<path d="M49.633944887259915,239.91971889556814 L-97.20948657166954,-224.88956338717097" stroke="#0d6d4d" stroke-width="0.1" fill="none" />
<path d="M29.913107634169226,243.1670331103018 L-59.378625587837135,-237.69555911564578" stroke="#0d6d4d" stroke-width="0.1" fill="none" />
<path d="M9.993203585088505,244.7961108394228 L-19.969774469030558,-244.18478271107733" stroke="#0d6d4d" stroke-width="0.1" fill="none" />
<path d="M-9.993203585088445,244.7961108394228 L19.969774469030476,-244.18478271107733" stroke="#0d6d4d" stroke-width="0.1" fill="none" />
<path d="M-29.91310763416916,243.1670331103018 L59.37862558783702,-237.6955591156458" stroke="#0d6d4d" stroke-width="0.1" fill="none" />
<path d="M-49.63394488725975,239.9197188955682 L97.20948657166942,-224.88956338717105" stroke="#0d6d4d" stroke-width="0.1" fill="none" />
<path d="M-69.02447642615031,235.07577853555185 L132.45700027662141,-206.1071155436394" stroke="#0d6d4d" stroke-width="0.1" fill="none" />
<path d="M-87.95566146266164,228.66744765415487 L164.18446215020208,-181.84736013604615" stroke="#0d6d4d" stroke-width="0.1" fill="none" />
<path d="M-106.30151608380162,220.73737263609274 L191.54871320466728,-152.75500145538976" stroke="#0d6d4d" stroke-width="0.1" fill="none" />
<path d="M-123.9399516539197,211.3383268222403 L213.82254701198974,-119.6031704818289" stroke="#0d6d4d" stroke-width="0.1" fill="none" />
<path d="M-140.75358729443343,200.53285931175546 L230.4140352533838,-83.27287888774113" stroke="#0d6d4d" stroke-width="0.1" fill="none" />
<path d="M-156.63053103421012,188.3928787081437 L240.88225824587823,-44.72960610564361" stroke="#0d6d4d" stroke-width="0.1" fill="none" />
<path d="M-171.46512443217262,174.99917457936644 L244.9490224063556,-4.997641660894332" stroke="#0d6d4d" stroke-width="0.1" fill="none" />
<path d="M-185.15864571679316,160.44087981659496 L242.50625326082852,34.86713537695488" stroke="#0d6d4d" stroke-width="0.1" fill="none" />
<path d="M-197.6199667631949,144.8148774695257 L233.61886752933728,73.80531643662233" stroke="#0d6d4d" stroke-width="0.1" fill="none" />
<path d="M-208.76615953578678,128.22515600567004 L218.52304796065997,110.78211728425804" stroke="#0d6d4d" stroke-width="0.1" fill="none" />
<path d="M-218.52304796066005,110.7821172842579 L197.6199667631949,144.8148774695257" stroke="#0d6d4d" stroke-width="0.1" fill="none" />
<path d="M-226.82570155512,92.60184185008218 L171.46512443217264,174.99917457936638" stroke="#0d6d4d" stroke-width="0.1" fill="none" />
<path d="M-233.61886752933725,73.80531643662245 L140.75358729443357,200.53285931175537" stroke="#0d6d4d" stroke-width="0.1" fill="none" />
<path d="M-238.85733848454677,54.51762881929707 L106.30151608380177,220.73737263609266" stroke="#0d6d4d" stroke-width="0.1" fill="none" />
<path d="M-242.50625326082852,34.867135376954884 L69.02447642615036,235.07577853555182" stroke="#0d6d4d" stroke-width="0.1" fill="none" />
<path d="M-244.5413289323749,14.984606901351468 L29.913107634169226,243.1670331103018" stroke="#0d6d4d" stroke-width="0.1" fill="none" />
<path d="M-244.9490224063556,-4.997641660894326 L-9.993203585088445,244.7961108394228" stroke="#0d6d4d" stroke-width="0.1" fill="none" />
<path d="M-243.726620549966,-24.946631742439703 L-49.63394488725975,239.9197188955682" stroke="#0d6d4d" stroke-width="0.1" fill="none" />
<path d="M-240.88225824587826,-44.72960610564344 L-87.95566146266164,228.66744765415487" stroke="#0d6d4d" stroke-width="0.1" fill="none" />
<path d="M-236.43486425593926,-64.2149123200801 L-123.9399516539197,211.3383268222403" stroke="#0d6d4d" stroke-width="0.1" fill="none" />
<path d="M-230.41403525338384,-83.27287888774099 L-156.63053103421012,188.3928787081437" stroke="#0d6d4d" stroke-width="0.1" fill="none" />
<path d="M-222.85983886185696,-101.77667818546227 L-185.15864571679316,160.44087981659496" stroke="#0d6d4d" stroke-width="0.1" fill="none" />
<path d="M-213.8225470119898,-119.60317048182883 L-208.76615953578678,128.22515600567004" stroke="#0d6d4d" stroke-width="0.1" fill="none" />
<path d="M-203.3623013899948,-136.63372341177316 L-226.82570155512,92.60184185008218" stroke="#0d6d4d" stroke-width="0.1" fill="none" />
<path d="M-191.54871320466734,-152.75500145538967 L-238.85733848454677,54.51762881929707" stroke="#0d6d4d" stroke-width="0.1" fill="none" />
<path d="M-178.46039993627593,-167.8597201671218 L-244.5413289323749,14.984606901351468" stroke="#0d6d4d" stroke-width="0.1" fill="none" />
<path d="M-164.1844621502021,-181.84736013604615 L-243.726620549966,-24.946631742439703" stroke="#0d6d4d" stroke-width="0.1" fill="none" />
<path d="M-148.8159038570481,-194.6248359259676 L-236.43486425593926,-64.2149123200801" stroke="#0d6d4d" stroke-width="0.1" fill="none" />
<path d="M-132.45700027662156,-206.10711554363928 L-222.85983886185696,-101.77667818546227" stroke="#0d6d4d" stroke-width="0.1" fill="none" />
<path d="M-115.21661721322047,-216.21778631264874 L-203.3623013899948,-136.63372341177316" stroke="#0d6d4d" stroke-width="0.1" fill="none" />
<path d="M-97.20948657166954,-224.88956338717097 L-178.46039993627593,-167.8597201671218" stroke="#0d6d4d" stroke-width="0.1" fill="none" />
<path d="M-78.55544283542031,-232.0647375215179 L-148.8159038570481,-194.6248359259676" stroke="#0d6d4d" stroke-width="0.1" fill="none" />
<path d="M-59.378625587837135,-237.69555911564578 L-115.21661721322047,-216.21778631264874" stroke="#0d6d4d" stroke-width="0.1" fill="none" />
<path d="M-39.80665338375052,-241.74455598086578 L-78.55544283542031,-232.0647375215179" stroke="#0d6d4d" stroke-width="0.1" fill="none" />
<path d="M-19.969774469030558,-244.18478271107733 L-39.80665338375052,-241.74455598086578" stroke="#0d6d4d" stroke-width="0.1" fill="none" />
</svg>