<?xml version="1.0" encoding="UTF-8"?>
<svg xmlns="http://www.w3.org/2000/svg" xmlns:xlink="http://www.w3.org/1999/xlink"
     width="500.0" height="500" viewBox="-250.0 -250.0 500 500">
<defs>
</defs>
<circle cx="0" cy="0" r="245.0" fill="white" stroke-width="2" stroke="black" />
<path d="M0.0,-245.0 L0.0,-245.0" stroke="#0d6d4d" stroke-width="0.1" fill="none" />
<path d="M21.65312562634891,-244.04127140836147 L43.13678618627886,-241.17258898456777" stroke="#0d6d4d" stroke-width="0.1" fill="none" />
<path d="M43.13678618627886,-241.17258898456777 L84.92579922464174,-229.80994022464702" stroke="#0d6d4d" stroke-width="0.1" fill="none" />
<path d="M64.28284290728489,-236.41640405808843 L124.06137602262277,-211.2670702674068" stroke="#0d6d4d" stroke-width="0.1" fill="none" />
<path d="M84.92579922464174,-229.80994022464702 L159.32075790485953,-186.1233357229048" stroke="#0d6d4d" stroke-width="0.1" fill="none" />
<path d="M104.90409601641153,-221.40490202111494 L189.60229469491617,-155.16433174677152" stroke="#0d6d4d" stroke-width="0.1" fill="none" />
<path d="M124.06137602262277,-211.2670702674068 L213.9598648623887,-119.35734677039515" stroke="#0d6d4d" stroke-width="0.1" fill="none" />
<path d="M142.24770755282657,-199.47578724237567 L231.63243630631274,-79.8211403752288" stroke="#0d6d4d" stroke-width="0.1" fill="none" />
<path d="M159.32075790485953,-186.1233357229048 L242.06784417268418,-37.79098857649908" stroke="#0d6d4d" stroke-width="0.1" fill="none" />
<path d="M175.14690731121982,-171.31421674605696 L244.94004278788452,5.419911352530759" stroke="#0d6d4d" stroke-width="0.1" fill="none" />
<path d="M189.60229469491617,-155.16433174677152 L240.1592926856417,48.46147064145174" stroke="#0d6d4d" stroke-width="0.1" fill="none" />
<path d="M202.57378705033258,-137.80007547199128 L227.8749644423096,89.98889142786535" stroke="#0d6d4d" stroke-width="0.1" fill="none" />
<path d="M213.9598648623887,-119.35734677039515 L208.4708717169552,128.70468385250325" stroke="#0d6d4d" stroke-width="0.1" fill="none" />
<path d="M223.67141663439023,-99.9804849996489 L182.55327931155,163.39920505497943" stroke="#0d6d4d" stroke-width="0.1" fill="none" />
<path d="M231.63243630631274,-79.8211403752288 L150.93196092948924,192.988453462841" stroke="#0d6d4d" stroke-width="0.1" fill="none" />
<path d="M237.78061810527396,-59.03708710187059 L114.59489846708315,216.5479375226624" stroke="#0d6d4d" stroke-width="0.1" fill="none" />
<path d="M242.06784417268418,-37.79098857649908 L74.67741333769524,233.34156067274216" stroke="#0d6d4d" stroke-width="0.1" fill="none" />
<path d="M244.4605611517299,-16.249124326600434 L32.42669429473443,242.8446200703566" stroke="#0d6d4d" stroke-width="0.1" fill="none" />
<path d="M244.94004278788452,5.419911352530759 L-10.837169947717758,244.76020049739353" stroke="#0d6d4d" stroke-width="0.1" fill="none" />
<path d="M243.50253648723992,27.046528876741053 L-53.76243579315776,239.0284512303642" stroke="#0d6d4d" stroke-width="0.1" fill="none" />
<path d="M240.1592926856417,48.46147064145174 L-95.00793887148605,225.8284560266752" stroke="#0d6d4d" stroke-width="0.1" fill="none" />
<path d="M234.93647679877483,69.49713569190268 L-133.2849976086694,205.57263780098992" stroke="#0d6d4d" stroke-width="0.1" fill="none" />
<path d="M227.8749644423096,89.98889142786535 L-167.39767701491982,178.8938728129295" stroke="#0d6d4d" stroke-width="0.1" fill="none" />
<path d="M219.03002152478754,109.77636207695672 L-196.28015468268327,146.6257169726441" stroke="#0d6d4d" stroke-width="0.1" fill="none" />
<path d="M208.4708717169552,128.70468385250325 L-219.03002152478757,109.77636207695666" stroke="#0d6d4d" stroke-width="0.1" fill="none" />
<path d="M196.28015468268333,146.62571697264403 L-234.93647679877483,69.49713569190274" stroke="#0d6d4d" stroke-width="0.1" fill="none" />
<path d="M182.55327931155,163.39920505497943 L-243.50253648723992,27.046528876741057" stroke="#0d6d4d" stroke-width="0.1" fill="none" />
<path d="M167.39767701491994,178.89387281292937 L-244.4605611517299,-16.249124326600377" stroke="#0d6d4d" stroke-width="0.1" fill="none" />
<path d="M150.93196092948924,192.988453462841 L-237.780618105274,-59.037087101870526" stroke="#0d6d4d" stroke-width="0.1" fill="none" />
<path d="M133.28499760866936,205.57263780098998 L-223.6714166343902,-99.980484999649" stroke="#0d6d4d" stroke-width="0.1" fill="none" />
<path d="M114.59489846708315,216.5479375226624 L-202.57378705033278,-137.80007547199105" stroke="#0d6d4d" stroke-width="0.1" fill="none" />
<path d="M95.00793887148608,225.82845602667518 L-175.1469073112199,-171.31421674605684" stroke="#0d6d4d" stroke-width="0.1" fill="none" />
<path d="M74.67741333769524,233.34156067274216 L-142.24770755282663,-199.47578724237565" stroke="#0d6d4d" stroke-width="0.1" fill="none" />
<path d="M53.76243579315782,239.02845123036417 L-104.9040960164115,-221.40490202111494" stroke="#0d6d4d" stroke-width="0.1" fill="none" />
<path d="M32.42669429473443,242.8446200703566 L-64.28284290728475,-236.41640405808846" stroke="#0d6d4d" stroke-width="0.1" fill="none" />
<path d="M10.837169947717928,244.76020049739353 L-21.653125626349123,-244.04127140836144" stroke="#0d6d4d" stroke-width="0.1" fill="none" />
<path d="M-10.837169947717758,244.76020049739353 L21.65312562634891,-244.04127140836147" stroke="#0d6d4d" stroke-width="0.1" fill="none" />
<path d="M-32.42669429473448,242.84462007035657 L64.28284290728489,-236.41640405808843" stroke="#0d6d4d" stroke-width="0.1" fill="none" />
<path d="M-53.76243579315776,239.0284512303642 L104.90409601641153,-221.40490202111494" stroke="#0d6d4d" stroke-width="0.1" fill="none" />
<path d="M-74.67741333769519,233.3415606727422 L142.24770755282657,-199.47578724237567" stroke="#0d6d4d" stroke-width="0.1" fill="none" />
<path d="M-95.00793887148605,225.8284560266752 L175.14690731121982,-171.31421674605696" stroke="#0d6d4d" stroke-width="0.1" fill="none" />
<path d="M-114.59489846708291,216.54793752266255 L202.57378705033258,-137.80007547199128" stroke="#0d6d4d" stroke-width="0.1" fill="none" />
<path d="M-133.2849976086694,205.57263780098992 L223.67141663439023,-99.9804849996489" stroke="#0d6d4d" stroke-width="0.1" fill="none" />
<path d="M-150.93196092948918,192.98845346284102 L237.78061810527396,-59.03708710187059" stroke="#0d6d4d" stroke-width="0.1" fill="none" />
<path d="M-167.39767701491982,178.8938728129295 L244.4605611517299,-16.249124326600434" stroke="#0d6d4d" stroke-width="0.1" fill="none" />
<path d="M-182.55327931155,163.39920505497943 L243.50253648723992,27.046528876741053" stroke="#0d6d4d" stroke-width="0.1" fill="none" />
<path d="M-196.28015468268327,146.6257169726441 L234.93647679877483,69.49713569190268" stroke="#0d6d4d" stroke-width="0.1" fill="none" />
<path d="M-208.4708717169553,128.7046838525031 L219.03002152478754,109.77636207695672" stroke="#0d6d4d" stroke-width="0.1" fill="none" />
<path d="M-219.03002152478757,109.77636207695666 L196.28015468268333,146.62571697264403" stroke="#0d6d4d" stroke-width="0.1" fill="none" />
<path d="M-227.8749644423095,89.98889142786561 L167.39767701491994,178.89387281292937" stroke="#0d6d4d" stroke-width="0.1" fill="none" />
<path d="M-234.93647679877483,69.49713569190274 L133.28499760866936,205.57263780098998" stroke="#0d6d4d" stroke-width="0.1" fill="none" />
<path d="M-240.15929268564167,48.46147064145185 L95.00793887148608,225.82845602667518" stroke="#0d6d4d" stroke-width="0.1" fill="none" />
<path d="M-243.50253648723992,27.046528876741057 L53.76243579315782,239.02845123036417" stroke="#0d6d4d" stroke-width="0.1" fill="none" />
<path d="M-244.94004278788452,5.41991135253082 L10.837169947717928,244.76020049739353" stroke="#0d6d4d" stroke-width="0.1" fill="none" />
<path d="M-244.4605611517299,-16.249124326600377 L-32.42669429473448,242.84462007035657" stroke="#0d6d4d" stroke-width="0.1" fill="none" />
<path d="M-242.06784417268418,-37.79098857649913 L-74.67741333769519,233.3415606727422" stroke="#0d6d4d" stroke-width="0.1" fill="none" />
<path d="M-237.780618105274,-59.037087101870526 L-114.59489846708291,216.54793752266255" stroke="#0d6d4d" stroke-width="0.1" fill="none" />
<path d="M-231.63243630631274,-79.82114037522874 L-150.93196092948918,192.98845346284102" stroke="#0d6d4d" stroke-width="0.1" fill="none" />
<path d="M-223.6714166343902,-99.980484999649 L-182.55327931155,163.39920505497943" stroke="#0d6d4d" stroke-width="0.1" fill="none" />
<path d="M-213.95986486238868,-119.35734677039517 L-208.4708717169553,128.7046838525031" stroke="#0d6d4d" stroke-width="0.1" fill="none" />
<path d="M-202.57378705033278,-137.80007547199105 L-227.8749644423095,89.98889142786561" stroke="#0d6d4d" stroke-width="0.1" fill="none" />
<path d="M-189.60229469491625,-155.1643317467714 L-240.15929268564167,48.46147064145185" stroke="#0d6d4d" stroke-width="0.1" fill="none" />
<path d="M-175.1469073112199,-171.31421674605684 L-244.94004278788452,5.41991135253082" stroke="#0d6d4d" stroke-width="0.1" fill="none" />
<path d="M-159.32075790485953,-186.1233357229048 L-242.06784417268418,-37.79098857649913" stroke="#0d6d4d" stroke-width="0.1" fill="none" />
<path d="M-142.24770755282663,-199.47578724237565 L-231.63243630631274,-79.82114037522874" stroke="#0d6d4d" stroke-width="0.1" fill="none" />
<path d="M-124.06137602262284,-211.26707026740675 L-213.95986486238868,-119.35734677039517" stroke="#0d6d4d" stroke-width="0.1" fill="none" />
<path d="M-104.9040960164115,-221.40490202111494 L-189.60229469491625,-155.1643317467714" stroke="#0d6d4d" stroke-width="0.1" fill="none" />
<path d="M-84.92579922464176,-229.80994022464702 L-159.32075790485953,-186.1233357229048" stroke="#0d6d4d" stroke-width="0.1" fill="none" />
<path d="M-64.28284290728475,-236.41640405808846 L-124.06137602262284,-211.26707026740675" stroke="#0d6d4d" stroke-width="0.1" fill="none" />
<path d="M-43.136786186278805,-241.1725889845678 L-84.92579922464176,-229.80994022464702" stroke="#0d6d4d" stroke-width="0.1" fill="none" />
<path d="M-21.653125626349123,-244.04127140836144 L-43.136786186278805,-241.1725889845678" stroke="#0d6d4d" stroke-width="0.1" fill="none" />
</svg>