<?xml version="1.0" encoding="UTF-8"?>
<svg xmlns="http://www.w3.org/2000/svg" xmlns:xlink="http://www.w3.org/1999/xlink"
     width="500.0" height="500" viewBox="-250.0 -250.0 500 500">
<defs>
</defs>
<circle cx="0" cy="0" r="245.0" fill="white" stroke-width="2" stroke="black" />
<path d="M0.0,-245.0 L0.0,-245.0" stroke="#0d6d4d" stroke-width="0.1" fill="none" />
<path d="M2.230955255071411,-244.98984231728846 L46.56569070934378,-240.53406504851188" stroke="#0d6d4d" stroke-width="0.1" fill="none" />
<path d="M4.461725519647926,-244.9593701114275 L91.43375410702188,-227.2990730511162" stroke="#0d6d4d" stroke-width="0.1" fill="none" />
<path d="M6.6921258185740395,-244.90858590916812 L132.96845262133414,-205.77752697388513" stroke="#0d6d4d" stroke-width="0.1" fill="none" />
<path d="M8.921971207371735,-244.83749392152916 L169.65557187028378,-176.75402946854413" stroke="#0d6d4d" stroke-width="0.1" fill="none" />
<path d="M11.15107678757608,-244.74610004344825 L200.1576237875583,-141.28667891814246" stroke="#0d6d4d" stroke-width="0.1" fill="none" />
<path d="M13.379257722066955,-244.63441185329285 L223.36260690581508,-100.66849475500428" stroke="#0d6d4d" stroke-width="0.1" fill="none" />
<path d="M15.606329250395735,-244.5024386122319 L238.424546162552,-56.38027835317168" stroke="#0d6d4d" stroke-width="0.1" fill="none" />
<path d="M17.8321067041056,-244.350191263468 L244.79433428459467,-10.03662802748548" stroke="#0d6d4d" stroke-width="0.1" fill="none" />
<path d="M20.056405522044212,-244.17768243132974 L242.23975037881826,36.67292375047038" stroke="#0d6d4d" stroke-width="0.1" fill="none" />
<path d="M22.279041265667505,-243.98492642022515 L230.85392591911102,82.04550498189161" stroke="#0d6d4d" stroke-width="0.1" fill="none" />
<path d="M24.49982963433329,-243.7719392134555 L211.05194948838,124.42698508424246" stroke="#0d6d4d" stroke-width="0.1" fill="none" />
<path d="M26.71858648058348,-243.53873847188987 L183.55573405520107,162.2722788878504" stroke="#0d6d4d" stroke-width="0.1" fill="none" />
<path d="M28.935127825413495,-243.28534353250092 L149.367698472935,194.20167520621027" stroke="#0d6d4d" stroke-width="0.1" fill="none" />
<path d="M31.14926987352786,-243.01177540676116 L109.73422268468009,219.05113643117454" stroke="#0d6d4d" stroke-width="0.1" fill="none" />
<path d="M33.36082902858042,-242.71805677890103 L66.10020893347095,235.91473540021084" stroke="#0d6d4d" stroke-width="0.1" fill="none" />
<path d="M35.56962190839814,-242.4042120040277 L20.05640552204419,244.17768243132974" stroke="#0d6d4d" stroke-width="0.1" fill="none" />
<path d="M37.77546536018719,-242.07026710610558 L-26.718586480583415,243.5387384718899" stroke="#0d6d4d" stroke-width="0.1" fill="none" />
<path d="M39.97817647571983,-241.7162497757985 L-72.51950934673779,234.02119725381377" stroke="#0d6d4d" stroke-width="0.1" fill="none" />
<path d="M42.177572606501236,-241.34218936817348 L-115.67661660916652,215.97203608304457" stroke="#0d6d4d" stroke-width="0.1" fill="none" />
<path d="M44.37347137891465,-240.94811690026683 L-154.61654635988296,190.04926622258284" stroke="#0d6d4d" stroke-width="0.1" fill="none" />
<path d="M46.56569070934378,-240.53406504851188 L-187.9196806945422,157.19794403127955" stroke="#0d6d4d" stroke-width="0.1" fill="none" />
<path d="M48.75404881927111,-240.10006814602977 L-214.37190017135475,118.61571741098528" stroke="#0d6d4d" stroke-width="0.1" fill="none" />
<path d="M50.93836425035103,-239.64616217978238 L-233.0088464923126,75.70916362186215" stroke="#0d6d4d" stroke-width="0.1" fill="none" />
<path d="M53.11845587945627,-239.1723847875884 L-243.15107973934437,30.04251024117304" stroke="#0d6d4d" stroke-width="0.1" fill="none" />
<path d="M55.294142933696605,-238.67877525500236 L-244.4288484516821,-16.719391274344392" stroke="#0d6d4d" stroke-width="0.1" fill="none" />
<path d="M57.46524500540856,-238.16537451205699 L-236.79556951134748,-62.87176043182347" stroke="#0d6d4d" stroke-width="0.1" fill="none" />
<path d="M59.631582067114756,-237.63222512986945 L-220.52952640580247,-106.73203822298379" stroke="#0d6d4d" stroke-width="0.1" fill="none" />
<path d="M61.79297448645178,-237.07937131711128 L-196.22372395486326,-146.7012275248085" stroke="#0d6d4d" stroke-width="0.1" fill="none" />
<path d="M63.94924304106526,-236.50685891634257 L-164.76426936415928,-181.32218711700662" stroke="#0d6d4d" stroke-width="0.1" fill="none" />
<path d="M66.10020893347095,-235.91473540021084 L-127.29806775868123,-209.3327541138897" stroke="#0d6d4d" stroke-width="0.1" fill="none" />
<path d="M68.2456938058806,-235.30304986751446 L-85.19100990781233,-229.71175814678497" stroke="#0d6d4d" stroke-width="0.1" fill="none" />
<path d="M70.38551975499144,-234.67185303913146 L-39.97817647571979,-241.7162497757985" stroke="#0d6d4d" stroke-width="0.1" fill="none" />
<path d="M72.51950934673773,-234.02119725381377 L6.6921258185740395,-244.90858590916812" stroke="#0d6d4d" stroke-width="0.1" fill="none" />
<path d="M74.64748563100369,-233.35113646384733 L53.11845587945627,-239.1723847875884" stroke="#0d6d4d" stroke-width="0.1" fill="none" />
<path d="M76.76927215629615,-232.66172623057824 L97.60826701232915,-224.716768868836" stroke="#0d6d4d" stroke-width="0.1" fill="none" />
<path d="M78.88469298437589,-231.9530237198057 L138.53961144149145,-202.0687409314973" stroke="#0d6d4d" stroke-width="0.1" fill="none" />
<path d="M80.9935727048464,-231.225087697042 L174.42027103063623,-172.0539713392266" stroke="#0d6d4d" stroke-width="0.1" fill="none" />
<path d="M83.09573644969885,-230.47797852263932 L203.9421585002402,-135.76669689678286" stroke="#0d6d4d" stroke-width="0.1" fill="none" />
<path d="M85.19100990781224,-229.711758146785 L226.02900585777758,-94.52982868356818" stroke="#0d6d4d" stroke-width="0.1" fill="none" />
<path d="M87.27921933940712,-228.92649010436443 L239.87560148216912,-49.846723197895265" stroke="#0d6d4d" stroke-width="0.1" fill="none" />
<path d="M89.36019159045212,-228.12223950969292 L244.9771454113079,-3.346375072658044" stroke="#0d6d4d" stroke-width="0.1" fill="none" />
<path d="M91.43375410702188,-227.2990730511162 L241.1476526383393,43.27597054970391" stroke="#0d6d4d" stroke-width="0.1" fill="none" />
<path d="M93.49973494960518,-226.45705898548093 L228.5267334948656,88.32062091135157" stroke="#0d6d4d" stroke-width="0.1" fill="none" />
<path d="M95.55796280736207,-225.59626713247454 L207.5745039312765,130.14540067818177" stroke="#0d6d4d" stroke-width="0.1" fill="none" />
<path d="M97.60826701232915,-224.716768868836 L179.05481124814048,167.2255200885702" stroke="#0d6d4d" stroke-width="0.1" fill="none" />
<path d="M99.65047755357104,-223.81863712243722 L144.00738681165595,198.2091636218621" stroke="#0d6d4d" stroke-width="0.1" fill="none" />
<path d="M101.68442509127792,-222.90194636623588 L103.70994097080697,221.96677261210004" stroke="#0d6d4d" stroke-width="0.1" fill="none" />
<path d="M103.70994097080697,-221.96677261210004 L59.63158206711474,237.63222512986945" stroke="#0d6d4d" stroke-width="0.1" fill="none" />
<path d="M105.72685723666734,-221.01319340450553 L13.379257722067022,244.63441185329285" stroke="#0d6d4d" stroke-width="0.1" fill="none" />
<path d="M107.73500664644695,-220.04128781410554 L-33.360829028580376,242.71805677890103" stroke="#0d6d4d" stroke-width="0.1" fill="none" />
<path d="M109.73422268468006,-219.05113643117457 L-78.88469298437576,231.95302371980574" stroke="#0d6d4d" stroke-width="0.1" fill="none" />
<path d="M111.72433957665504,-218.04282135892544 L-121.53268830722169,212.73176930778274" stroke="#0d6d4d" stroke-width="0.1" fill="none" />
<path d="M113.70519230216001,-217.01642620670174 L-159.75001358549977,185.7550353541799" stroke="#0d6d4d" stroke-width="0.1" fill="none" />
<path d="M115.67661660916653,-215.97203608304457 L-192.14339462563763,152.00630217769424" stroke="#0d6d4d" stroke-width="0.1" fill="none" />
<path d="M117.63844902744933,-214.90973758863558 L-217.53187850858188,112.7159342441324" stroke="#0d6d4d" stroke-width="0.1" fill="none" />
<path d="M119.59052688214112,-213.82961880911606 L-234.98988713198048,69.31632524664786" stroke="#0d6d4d" stroke-width="0.1" fill="none" />
<path d="M121.53268830722169,-212.73176930778274 L-243.88096065179568,23.389677884855583" stroke="#0d6d4d" stroke-width="0.1" fill="none" />
<path d="M123.46477225893977,-211.61628011816137 L-243.88096065179568,-23.389677884855494" stroke="#0d6d4d" stroke-width="0.1" fill="none" />
<path d="M125.38661852916678,-210.48324373645804 L-234.9898871319805,-69.31632524664778" stroke="#0d6d4d" stroke-width="0.1" fill="none" />
<path d="M127.29806775868123,-209.3327541138897 L-217.5318785085819,-112.71593424413233" stroke="#0d6d4d" stroke-width="0.1" fill="none" />
<path d="M129.1989614503827,-208.1649066488934 L-192.14339462563768,-152.00630217769415" stroke="#0d6d4d" stroke-width="0.1" fill="none" />
<path d="M131.08914198243465,-206.97979817921626 L-159.75001358549991,-185.7550353541798" stroke="#0d6d4d" stroke-width="0.1" fill="none" />
<path d="M132.96845262133414,-205.77752697388513 L-121.53268830722166,-212.73176930778277" stroke="#0d6d4d" stroke-width="0.1" fill="none" />
<path d="M134.83673753490802,-204.5581927250589 L-78.88469298437595,-231.9530237198057" stroke="#0d6d4d" stroke-width="0.1" fill="none" />
<path d="M136.69384180523517,-203.32189653976116 L-33.360829028580355,-242.71805677890103" stroke="#0d6d4d" stroke-width="0.1" fill="none" />
<path d="M138.53961144149145,-202.0687409314973 L13.379257722066955,-244.63441185329285" stroke="#0d6d4d" stroke-width="0.1" fill="none" />
<path d="M140.37389339271914,-200.79882981175342 L59.631582067114756,-237.63222512986945" stroke="#0d6d4d" stroke-width="0.1" fill="none" />
<path d="M142.19653556051776,-199.51226848138037 L103.70994097080697,-221.96677261210004" stroke="#0d6d4d" stroke-width="0.1" fill="none" />
<path d="M144.00738681165592,-198.20916362186213 L144.00738681165592,-198.20916362186213" stroke="#0d6d4d" stroke-width="0.1" fill="none" />
<path d="M145.80629699060347,-196.88962328646966 L179.0548112481404,-167.22552008857025" stroke="#0d6d4d" stroke-width="0.1" fill="none" />
<path d="M147.59311693198228,-195.5537568913014 L207.57450393127644,-130.14540067818186" stroke="#0d6d4d" stroke-width="0.1" fill="none" />
<path d="M149.36769847293493,-194.2016752062103 L228.5267334948656,-88.3206209113516" stroke="#0d6d4d" stroke-width="0.1" fill="none" />
<path d="M151.12989446541056,-192.83349034561883 L241.1476526383393,-43.275970549703935" stroke="#0d6d4d" stroke-width="0.1" fill="none" />
<path d="M152.87955878836615,-191.44931575922254 L244.9771454113079,3.34637507265796" stroke="#0d6d4d" stroke-width="0.1" fill="none" />
<path d="M154.61654635988296,-190.04926622258284 L239.87560148216912,49.846723197895244" stroke="#0d6d4d" stroke-width="0.1" fill="none" />
<path d="M156.34071314919663,-188.6334578276097 L226.0290058577776,94.52982868356816" stroke="#0d6d4d" stroke-width="0.1" fill="none" />
<path d="M158.05191618864046,-187.2020079729354 L203.94215850024025,135.76669689678278" stroke="#0d6d4d" stroke-width="0.1" fill="none" />
<path d="M159.75001358549983,-185.75503535417988 L174.4202710306363,172.05397133922654" stroke="#0d6d4d" stroke-width="0.1" fill="none" />
<path d="M161.4348645337783,-184.29265995410847 L138.53961144149145,202.0687409314973" stroke="#0d6d4d" stroke-width="0.1" fill="none" />
<path d="M163.10632932587296,-182.81500303268297 L97.60826701232914,224.716768868836" stroke="#0d6d4d" stroke-width="0.1" fill="none" />
<path d="M164.7642693641592,-181.32218711700673 L53.118455879456334,239.1723847875884" stroke="#0d6d4d" stroke-width="0.1" fill="none" />
<path d="M166.408547172483,-179.81433599116482 L6.6921258185740875,244.90858590916812" stroke="#0d6d4d" stroke-width="0.1" fill="none" />
<path d="M168.03902640756056,-178.29157468595977 L-39.97817647571991,241.71624977579847" stroke="#0d6d4d" stroke-width="0.1" fill="none" />
<path d="M169.65557187028378,-176.75402946854413 L-85.19100990781224,229.711758146785" stroke="#0d6d4d" stroke-width="0.1" fill="none" />
<path d="M171.25804951693112,-175.20182783195034 L-127.29806775868114,209.33275411388976" stroke="#0d6d4d" stroke-width="0.1" fill="none" />
<path d="M172.8463264702822,-173.63509848451903 L-164.76426936415913,181.32218711700676" stroke="#0d6d4d" stroke-width="0.1" fill="none" />
<path d="M174.42027103063623,-172.0539713392266 L-196.2237239548632,146.7012275248086" stroke="#0d6d4d" stroke-width="0.1" fill="none" />
<path d="M175.97975268673238,-170.4585775029127 L-220.52952640580241,106.73203822298387" stroke="#0d6d4d" stroke-width="0.1" fill="none" />
<path d="M177.52464212657193,-168.84904926540915 L-236.79556951134745,62.87176043182353" stroke="#0d6d4d" stroke-width="0.1" fill="none" />
<path d="M179.0548112481404,-167.22552008857025 L-244.4288484516821,16.71939127434448" stroke="#0d6d4d" stroke-width="0.1" fill="none" />
<path d="M180.57013317003023,-165.58812459520624 L-243.1510797393444,-30.04251024117296" stroke="#0d6d4d" stroke-width="0.1" fill="none" />
<path d="M182.07048224196157,-163.9369985579203 L-233.00884649231264,-75.70916362186207" stroke="#0d6d4d" stroke-width="0.1" fill="none" />
<path d="M183.55573405520107,-162.2722788878504 L-214.3719001713548,-118.6157174109852" stroke="#0d6d4d" stroke-width="0.1" fill="none" />
<path d="M185.02576545287803,-160.59410362331667 L-187.91968069454228,-157.19794403127943" stroke="#0d6d4d" stroke-width="0.1" fill="none" />
<path d="M186.48045454019638,-158.90261191837521 L-154.61654635988302,-190.0492662225828" stroke="#0d6d4d" stroke-width="0.1" fill="none" />
<path d="M187.91968069454225,-157.19794403127946 L-115.6766166091665,-215.97203608304457" stroke="#0d6d4d" stroke-width="0.1" fill="none" />
<path d="M189.34332457548618,-155.48024131285007 L-72.51950934673776,-234.02119725381377" stroke="#0d6d4d" stroke-width="0.1" fill="none" />
<path d="M190.75126813467836,-153.749646194754 L-26.718586480583614,-243.53873847188987" stroke="#0d6d4d" stroke-width="0.1" fill="none" />
<path d="M192.14339462563765,-152.00630217769415 L20.056405522044212,-244.17768243132974" stroke="#0d6d4d" stroke-width="0.1" fill="none" />
<path d="M193.51958861343186,-150.25035381951048 L66.10020893347095,-235.91473540021084" stroke="#0d6d4d" stroke-width="0.1" fill="none" />
<path d="M194.87973598424972,-148.48194672319303 L109.73422268468006,-219.05113643117457" stroke="#0d6d4d" stroke-width="0.1" fill="none" />
<path d="M196.2237239548632,-146.70122752480856 L149.36769847293493,-194.2016752062103" stroke="#0d6d4d" stroke-width="0.1" fill="none" />
<path d="M197.5514410819795,-144.90834388134172 L183.55573405520107,-162.2722788878504" stroke="#0d6d4d" stroke-width="0.1" fill="none" />
<path d="M198.86277727148178,-143.1034444584512 L211.05194948838,-124.42698508424246" stroke="#0d6d4d" stroke-width="0.1" fill="none" />
<path d="M200.1576237875583,-141.28667891814246 L230.85392591911102,-82.04550498189164" stroke="#0d6d4d" stroke-width="0.1" fill="none" />
<path d="M201.43587326171865,-139.45819790635764 L242.23975037881826,-36.67292375047035" stroke="#0d6d4d" stroke-width="0.1" fill="none" />
<path d="M202.69741970169687,-137.61815304048426 L244.79433428459467,10.036628027485506" stroke="#0d6d4d" stroke-width="0.1" fill="none" />
<path d="M203.9421585002402,-135.76669689678286 L238.424546162552,56.38027835317171" stroke="#0d6d4d" stroke-width="0.1" fill="none" />
<path d="M205.1699864437831,-133.90398299773557 L223.36260690581508,100.6684947550043" stroke="#0d6d4d" stroke-width="0.1" fill="none" />
<path d="M206.38080172100584,-132.03016579931597 L200.15762378755832,141.2866789181424" stroke="#0d6d4d" stroke-width="0.1" fill="none" />
<path d="M207.57450393127644,-130.14540067818186 L169.65557187028378,176.75402946854413" stroke="#0d6d4d" stroke-width="0.1" fill="none" />
<path d="M208.75099409297616,-128.2498439187909 L132.96845262133417,205.77752697388507" stroke="#0d6d4d" stroke-width="0.1" fill="none" />
<path d="M209.91017465170677,-126.34365270044222 L91.43375410702195,227.29907305111618" stroke="#0d6d4d" stroke-width="0.1" fill="none" />
<path d="M211.05194948838,-124.42698508424246 L46.565690709343826,240.53406504851185" stroke="#0d6d4d" stroke-width="0.1" fill="none" />
<path d="M212.1762239271875,-122.49999999999999 L3.0003846579110155e-14,245.0" stroke="#0d6d4d" stroke-width="0.1" fill="none" />
<path d="M213.2829047434514,-120.56285723304602 L-46.56569070934377,240.53406504851188" stroke="#0d6d4d" stroke-width="0.1" fill="none" />
<path d="M214.3719001713547,-118.61571741098535 L-91.4337541070219,227.2990730511162" stroke="#0d6d4d" stroke-width="0.1" fill="none" />
<path d="M215.44311991155018,-116.65874199037721 L-132.96845262133405,205.77752697388516" stroke="#0d6d4d" stroke-width="0.1" fill="none" />
<path d="M216.49647513864818,-114.69209324334737 L-169.65557187028384,176.7540294685441" stroke="#0d6d4d" stroke-width="0.1" fill="none" />
<path d="M217.53187850858194,-112.71593424413227 L-200.15762378755826,141.28667891814248" stroke="#0d6d4d" stroke-width="0.1" fill="none" />
<path d="M218.5492441658501,-110.73042885555732 L-223.3626069058151,100.6684947550042" stroke="#0d6d4d" stroke-width="0.1" fill="none" />
<path d="M219.54848775063593,-108.73574171544912 L-238.424546162552,56.38027835317166" stroke="#0d6d4d" stroke-width="0.1" fill="none" />
<path d="M220.5295264058025,-106.73203822298375 L-244.79433428459467,10.036628027485564" stroke="#0d6d4d" stroke-width="0.1" fill="none" />
<path d="M221.49227878376286,-104.71948452497212 L-242.2397503788183,-36.67292375047018" stroke="#0d6d4d" stroke-width="0.1" fill="none" />
<path d="M222.4366650532258,-102.69824750208272 L-230.85392591911102,-82.04550498189158" stroke="#0d6d4d" stroke-width="0.1" fill="none" />
<path d="M223.36260690581508,-100.66849475500428 L-211.05194948838005,-124.42698508424236" stroke="#0d6d4d" stroke-width="0.1" fill="none" />
<path d="M224.27002756256297,-98.63039459054819 L-183.55573405520124,-162.2722788878502" stroke="#0d6d4d" stroke-width="0.1" fill="none" />
<path d="M225.1588517802767,-96.58411600769242 L-149.36769847293502,-194.20167520621024" stroke="#0d6d4d" stroke-width="0.1" fill="none" />
<path d="M226.02900585777758,-94.52982868356818 L-109.73422268468022,-219.05113643117448" stroke="#0d6d4d" stroke-width="0.1" fill="none" />
<path d="M226.88041764201228,-92.46770295939058 L-66.10020893347118,-235.91473540021076" stroke="#0d6d4d" stroke-width="0.1" fill="none" />
<path d="M227.71301653403583,-90.39790982633355 L-20.056405522044326,-244.1776824313297" stroke="#0d6d4d" stroke-width="0.1" fill="none" />
<path d="M228.5267334948656,-88.3206209113516 L26.71858648058348,-243.53873847188987" stroke="#0d6d4d" stroke-width="0.1" fill="none" />
<path d="M229.321501051206,-86.23600846294845 L72.51950934673773,-234.02119725381377" stroke="#0d6d4d" stroke-width="0.1" fill="none" />
<path d="M230.09725330104354,-84.14424533689403 L115.67661660916653,-215.97203608304457" stroke="#0d6d4d" stroke-width="0.1" fill="none" />
<path d="M230.85392591911102,-82.04550498189164 L154.61654635988296,-190.04926622258284" stroke="#0d6d4d" stroke-width="0.1" fill="none" />
<path d="M231.5914561622218,-79.93996142519521 L187.91968069454225,-157.19794403127946" stroke="#0d6d4d" stroke-width="0.1" fill="none" />
<path d="M232.3097828744722,-77.82778925817935 L214.3719001713547,-118.61571741098535" stroke="#0d6d4d" stroke-width="0.1" fill="none" />
<path d="M233.0088464923126,-75.70916362186213 L233.0088464923126,-75.70916362186213" stroke="#0d6d4d" stroke-width="0.1" fill="none" />
<path d="M233.68858904948652,-73.58426019238219 L243.15107973934437,-30.04251024117312" stroke="#0d6d4d" stroke-width="0.1" fill="none" />
<path d="M234.348954181837,-71.45325516643213 L244.4288484516821,16.719391274344368" stroke="#0d6d4d" stroke-width="0.1" fill="none" />
<path d="M234.98988713198045,-69.31632524664789 L236.79556951134745,62.87176043182353" stroke="#0d6d4d" stroke-width="0.1" fill="none" />
<path d="M235.61133475384722,-67.1736476269568 L220.5295264058025,106.73203822298372" stroke="#0d6d4d" stroke-width="0.1" fill="none" />
<path d="M236.21324551708804,-65.02539997788472 L196.22372395486326,146.7012275248085" stroke="#0d6d4d" stroke-width="0.1" fill="none" />
<path d="M236.79556951134745,-62.87176043182356 L164.7642693641592,181.32218711700673" stroke="#0d6d4d" stroke-width="0.1" fill="none" />
<path d="M237.35825845040208,-60.71290756826048 L127.2980677586812,209.3327541138897" stroke="#0d6d4d" stroke-width="0.1" fill="none" />
<path d="M237.9012656761644,-58.54902039897033 L85.1910099078123,229.71175814678497" stroke="#0d6d4d" stroke-width="0.1" fill="none" />
<path d="M238.424546162552,-56.38027835317168 L39.97817647571986,241.71624977579847" stroke="#0d6d4d" stroke-width="0.1" fill="none" />
<path d="M238.92805651922072,-54.206861262648964 L-6.69212581857392,244.90858590916812" stroke="#0d6d4d" stroke-width="0.1" fill="none" />
<path d="M239.41175499516285,-52.02894934684063 L-53.11845587945628,239.1723847875884" stroke="#0d6d4d" stroke-width="0.1" fill="none" />
<path d="M239.87560148216912,-49.846723197895265 L-97.6082670123291,224.71676886883603" stroke="#0d6d4d" stroke-width="0.1" fill="none" />
<path d="M240.31955751815414,-47.660363765697284 L-138.53961144149147,202.06874093149727" stroke="#0d6d4d" stroke-width="0.1" fill="none" />
<path d="M240.74358629034623,-45.47005234286217 L-174.42027103063623,172.0539713392266" stroke="#0d6d4d" stroke-width="0.1" fill="none" />
<path d="M241.1476526383393,-43.275970549703935 L-203.9421585002402,135.76669689678286" stroke="#0d6d4d" stroke-width="0.1" fill="none" />
<path d="M241.53172305700892,-41.07830031917528 L-226.02900585777755,94.52982868356825" stroke="#0d6d4d" stroke-width="0.1" fill="none" />
<path d="M241.89576569929005,-38.8772238817816 L-239.87560148216912,49.84672319789525" stroke="#0d6d4d" stroke-width="0.1" fill="none" />
<path d="M242.23975037881826,-36.67292375047035 L-244.97714541130787,3.3463750726580743" stroke="#0d6d4d" stroke-width="0.1" fill="none" />
<path d="M242.56364857243247,-34.465582705497425 L-241.1476526383393,-43.27597054970398" stroke="#0d6d4d" stroke-width="0.1" fill="none" />
<path d="M242.86743342254013,-32.25538377927066 L-228.5267334948656,-88.3206209113516" stroke="#0d6d4d" stroke-width="0.1" fill="none" />
<path d="M243.15107973934437,-30.04251024117312 L-207.5745039312765,-130.14540067818174" stroke="#0d6d4d" stroke-width="0.1" fill="none" />
<path d="M243.41456400293262,-27.827145582366352 L-179.0548112481404,-167.22552008857025" stroke="#0d6d4d" stroke-width="0.1" fill="none" />
<path d="M243.65786436522694,-25.609473500575092 L-144.00738681165595,-198.2091636218621" stroke="#0d6d4d" stroke-width="0.1" fill="none" />
<path d="M243.88096065179568,-23.389677884855498 L-103.7099409708071,-221.9667726121" stroke="#0d6d4d" stroke-width="0.1" fill="none" />
<path d="M244.0838343635261,-21.167942800346687 L-59.631582067114984,-237.6322251298694" stroke="#0d6d4d" stroke-width="0.1" fill="none" />
<path d="M244.26646867815882,-18.94445247300825 L-13.37925772206705,-244.63441185329285" stroke="#0d6d4d" stroke-width="0.1" fill="none" />
<path d="M244.4288484516821,-16.71939127434445 L33.36082902858042,-242.71805677890103" stroke="#0d6d4d" stroke-width="0.1" fill="none" />
<path d="M244.57096021958813,-14.492943706115685 L78.88469298437589,-231.9530237198057" stroke="#0d6d4d" stroke-width="0.1" fill="none" />
<path d="M244.69279219798915,-12.265294385040312 L121.53268830722169,-212.73176930778274" stroke="#0d6d4d" stroke-width="0.1" fill="none" />
<path d="M244.79433428459467,-10.03662802748548 L159.75001358549983,-185.75503535417988" stroke="#0d6d4d" stroke-width="0.1" fill="none" />
<path d="M244.87557805954927,-7.807129434151141 L192.14339462563765,-152.00630217769415" stroke="#0d6d4d" stroke-width="0.1" fill="none" />
<path d="M244.93651678613054,-5.576983474745887 L217.53187850858194,-112.71593424413227" stroke="#0d6d4d" stroke-width="0.1" fill="none" />
<path d="M244.9771454113079,-3.346375072658044 L234.98988713198045,-69.31632524664789" stroke="#0d6d4d" stroke-width="0.1" fill="none" />
<path d="M244.99746056616146,-1.115489189621398 L243.88096065179568,-23.389677884855498" stroke="#0d6d4d" stroke-width="0.1" fill="none" />
<path d="M244.99746056616146,1.115489189621368 L243.88096065179568,23.38967788485547" stroke="#0d6d4d" stroke-width="0.1" fill="none" />
<path d="M244.9771454113079,3.34637507265796 L234.98988713198048,69.3163252466478" stroke="#0d6d4d" stroke-width="0.1" fill="none" />
<path d="M244.93651678613054,5.576983474745856 L217.53187850858194,112.71593424413226" stroke="#0d6d4d" stroke-width="0.1" fill="none" />
<path d="M244.87557805954927,7.807129434151055 L192.14339462563765,152.00630217769415" stroke="#0d6d4d" stroke-width="0.1" fill="none" />
<path d="M244.79433428459467,10.036628027485506 L159.7500135854999,185.7550353541798" stroke="#0d6d4d" stroke-width="0.1" fill="none" />
<path d="M244.69279219798915,12.265294385040281 L121.53268830722172,212.7317693077827" stroke="#0d6d4d" stroke-width="0.1" fill="none" />
<path d="M244.57096021958813,14.492943706115708 L78.88469298437592,231.9530237198057" stroke="#0d6d4d" stroke-width="0.1" fill="none" />
<path d="M244.4288484516821,16.719391274344368 L33.36082902858053,242.718056778901" stroke="#0d6d4d" stroke-width="0.1" fill="none" />
<path d="M244.26646867815882,18.944452473008223 L-13.379257722066962,244.63441185329285" stroke="#0d6d4d" stroke-width="0.1" fill="none" />
<path d="M244.08383436352614,21.167942800346605 L-59.63158206711469,237.63222512986945" stroke="#0d6d4d" stroke-width="0.1" fill="none" />
<path d="M243.88096065179568,23.38967788485547 L-103.70994097080693,221.96677261210007" stroke="#0d6d4d" stroke-width="0.1" fill="none" />
<path d="M243.65786436522697,25.609473500575067 L-144.0073868116558,198.20916362186222" stroke="#0d6d4d" stroke-width="0.1" fill="none" />
<path d="M243.41456400293265,27.827145582366274 L-179.0548112481404,167.22552008857025" stroke="#0d6d4d" stroke-width="0.1" fill="none" />
<path d="M243.15107973934437,30.042510241173094 L-207.57450393127644,130.14540067818183" stroke="#0d6d4d" stroke-width="0.1" fill="none" />
<path d="M242.8674334225401,32.25538377927068 L-228.52673349486557,88.32062091135167" stroke="#0d6d4d" stroke-width="0.1" fill="none" />
<path d="M242.56364857243247,34.465582705497404 L-241.14765263833928,43.27597054970408" stroke="#0d6d4d" stroke-width="0.1" fill="none" />
<path d="M242.23975037881826,36.67292375047038 L-244.9771454113079,-3.3463750726579846" stroke="#0d6d4d" stroke-width="0.1" fill="none" />
<path d="M241.89576569929005,38.877223881781575 L-239.87560148216915,-49.84672319789515" stroke="#0d6d4d" stroke-width="0.1" fill="none" />
<path d="M241.53172305700892,41.07830031917525 L-226.02900585777758,-94.52982868356818" stroke="#0d6d4d" stroke-width="0.1" fill="none" />
<path d="M241.1476526383393,43.27597054970391 L-203.94215850024025,-135.76669689678275" stroke="#0d6d4d" stroke-width="0.1" fill="none" />
<path d="M240.74358629034623,45.47005234286209 L-174.42027103063623,-172.0539713392266" stroke="#0d6d4d" stroke-width="0.1" fill="none" />
<path d="M240.31955751815417,47.660363765697255 L-138.53961144149147,-202.06874093149727" stroke="#0d6d4d" stroke-width="0.1" fill="none" />
<path d="M239.87560148216912,49.846723197895244 L-97.60826701232907,-224.71676886883603" stroke="#0d6d4d" stroke-width="0.1" fill="none" />
<path d="M239.41175499516288,52.02894934684055 L-53.11845587945626,-239.1723847875884" stroke="#0d6d4d" stroke-width="0.1" fill="none" />
<path d="M238.92805651922072,54.206861262648935 L-6.692125818574119,-244.90858590916812" stroke="#0d6d4d" stroke-width="0.1" fill="none" />
<path d="M238.424546162552,56.38027835317171 L39.97817647571983,-241.7162497757985" stroke="#0d6d4d" stroke-width="0.1" fill="none" />
<path d="M237.9012656761644,58.5490203989703 L85.19100990781224,-229.711758146785" stroke="#0d6d4d" stroke-width="0.1" fill="none" />
<path d="M237.35825845040205,60.71290756826051 L127.29806775868123,-209.3327541138897" stroke="#0d6d4d" stroke-width="0.1" fill="none" />
<path d="M236.79556951134745,62.87176043182353 L164.7642693641592,-181.32218711700673" stroke="#0d6d4d" stroke-width="0.1" fill="none" />
<path d="M236.21324551708804,65.02539997788469 L196.2237239548632,-146.70122752480856" stroke="#0d6d4d" stroke-width="0.1" fill="none" />
<path d="M235.61133475384722,67.17364762695676 L220.5295264058025,-106.73203822298375" stroke="#0d6d4d" stroke-width="0.1" fill="none" />
<path d="M234.98988713198048,69.3163252466478 L236.79556951134745,-62.87176043182356" stroke="#0d6d4d" stroke-width="0.1" fill="none" />
<path d="M234.348954181837,71.4532551664321 L244.4288484516821,-16.71939127434445" stroke="#0d6d4d" stroke-width="0.1" fill="none" />
<path d="M233.68858904948655,73.58426019238217 L243.15107973934437,30.042510241173094" stroke="#0d6d4d" stroke-width="0.1" fill="none" />
<path d="M233.00884649231264,75.70916362186206 L233.00884649231264,75.70916362186206" stroke="#0d6d4d" stroke-width="0.1" fill="none" />
<path d="M232.3097828744722,77.82778925817938 L214.37190017135472,118.61571741098531" stroke="#0d6d4d" stroke-width="0.1" fill="none" />
<path d="M231.5914561622218,79.93996142519522 L187.91968069454234,157.19794403127938" stroke="#0d6d4d" stroke-width="0.1" fill="none" />
<path d="M230.85392591911102,82.04550498189161 L154.616546359883,190.04926622258282" stroke="#0d6d4d" stroke-width="0.1" fill="none" />
<path d="M230.0972533010435,84.14424533689406 L115.67661660916657,215.97203608304454" stroke="#0d6d4d" stroke-width="0.1" fill="none" />
<path d="M229.32150105120604,86.23600846294842 L72.51950934673775,234.02119725381377" stroke="#0d6d4d" stroke-width="0.1" fill="none" />
<path d="M228.5267334948656,88.32062091135157 L26.718586480583475,243.53873847188987" stroke="#0d6d4d" stroke-width="0.1" fill="none" />
<path d="M227.71301653403583,90.39790982633352 L-20.056405522044233,244.17768243132974" stroke="#0d6d4d" stroke-width="0.1" fill="none" />
<path d="M226.88041764201228,92.46770295939051 L-66.1002089334709,235.91473540021084" stroke="#0d6d4d" stroke-width="0.1" fill="none" />
<path d="M226.0290058577776,94.52982868356816 L-109.73422268468015,219.0511364311745" stroke="#0d6d4d" stroke-width="0.1" fill="none" />
<path d="M225.15885178027673,96.58411600769234 L-149.36769847293493,194.2016752062103" stroke="#0d6d4d" stroke-width="0.1" fill="none" />
<path d="M224.27002756256303,98.63039459054814 L-183.5557340552011,162.27227888785038" stroke="#0d6d4d" stroke-width="0.1" fill="none" />
<path d="M223.36260690581508,100.6684947550043 L-211.05194948838,124.42698508424246" stroke="#0d6d4d" stroke-width="0.1" fill="none" />
<path d="M222.4366650532258,102.69824750208272 L-230.853925919111,82.04550498189167" stroke="#0d6d4d" stroke-width="0.1" fill="none" />
<path d="M221.49227878376286,104.71948452497209 L-242.23975037881826,36.672923750470495" stroke="#0d6d4d" stroke-width="0.1" fill="none" />
<path d="M220.5295264058025,106.73203822298372 L-244.79433428459467,-10.036628027485476" stroke="#0d6d4d" stroke-width="0.1" fill="none" />
<path d="M219.54848775063596,108.73574171544904 L-238.42454616255202,-56.38027835317157" stroke="#0d6d4d" stroke-width="0.1" fill="none" />
<path d="M218.54924416585007,110.73042885555734 L-223.36260690581517,-100.66849475500413" stroke="#0d6d4d" stroke-width="0.1" fill="none" />
<path d="M217.53187850858194,112.71593424413226 L-200.15762378755835,-141.28667891814237" stroke="#0d6d4d" stroke-width="0.1" fill="none" />
<path d="M216.4964751386482,114.6920932433473 L-169.6555718702839,-176.75402946854405" stroke="#0d6d4d" stroke-width="0.1" fill="none" />
<path d="M215.44311991155024,116.65874199037714 L-132.96845262133414,-205.77752697388513" stroke="#0d6d4d" stroke-width="0.1" fill="none" />
<path d="M214.37190017135472,118.61571741098531 L-91.43375410702198,-227.29907305111618" stroke="#0d6d4d" stroke-width="0.1" fill="none" />
<path d="M213.28290474345144,120.56285723304597 L-46.565690709343755,-240.53406504851188" stroke="#0d6d4d" stroke-width="0.1" fill="none" />
<path d="M212.17622392718746,122.50000000000003 L0.0,-245.0" stroke="#0d6d4d" stroke-width="0.1" fill="none" />
<path d="M211.05194948838,124.42698508424246 L46.56569070934378,-240.53406504851188" stroke="#0d6d4d" stroke-width="0.1" fill="none" />
<path d="M209.9101746517068,126.34365270044216 L91.43375410702188,-227.2990730511162" stroke="#0d6d4d" stroke-width="0.1" fill="none" />
<path d="M208.75099409297619,128.24984391879084 L132.96845262133414,-205.77752697388513" stroke="#0d6d4d" stroke-width="0.1" fill="none" />
<path d="M207.5745039312765,130.14540067818177 L169.65557187028378,-176.75402946854413" stroke="#0d6d4d" stroke-width="0.1" fill="none" />
<path d="M206.38080172100584,132.03016579931597 L200.1576237875583,-141.28667891814246" stroke="#0d6d4d" stroke-width="0.1" fill="none" />
<path d="M205.16998644378313,133.9039829977355 L223.36260690581508,-100.66849475500428" stroke="#0d6d4d" stroke-width="0.1" fill="none" />
<path d="M203.94215850024025,135.76669689678278 L238.424546162552,-56.38027835317168" stroke="#0d6d4d" stroke-width="0.1" fill="none" />
<path d="M202.69741970169693,137.61815304048417 L244.79433428459467,-10.03662802748548" stroke="#0d6d4d" stroke-width="0.1" fill="none" />
<path d="M201.43587326171868,139.45819790635764 L242.23975037881826,36.67292375047038" stroke="#0d6d4d" stroke-width="0.1" fill="none" />
<path d="M200.15762378755832,141.2866789181424 L230.85392591911102,82.04550498189161" stroke="#0d6d4d" stroke-width="0.1" fill="none" />
<path d="M198.86277727148178,143.10344445845124 L211.05194948838,124.42698508424246" stroke="#0d6d4d" stroke-width="0.1" fill="none" />
<path d="M197.5514410819795,144.90834388134172 L183.55573405520107,162.2722788878504" stroke="#0d6d4d" stroke-width="0.1" fill="none" />
<path d="M196.22372395486326,146.7012275248085 L149.367698472935,194.20167520621027" stroke="#0d6d4d" stroke-width="0.1" fill="none" />
<path d="M194.87973598424975,148.48194672319295 L109.73422268468009,219.05113643117454" stroke="#0d6d4d" stroke-width="0.1" fill="none" />
<path d="M193.51958861343192,150.25035381951042 L66.10020893347095,235.91473540021084" stroke="#0d6d4d" stroke-width="0.1" fill="none" />
<path d="M192.14339462563765,152.00630217769415 L20.05640552204419,244.17768243132974" stroke="#0d6d4d" stroke-width="0.1" fill="none" />
<path d="M190.7512681346784,153.74964619475395 L-26.718586480583415,243.5387384718899" stroke="#0d6d4d" stroke-width="0.1" fill="none" />
<path d="M189.3433245754862,155.48024131284998 L-72.51950934673779,234.02119725381377" stroke="#0d6d4d" stroke-width="0.1" fill="none" />
<path d="M187.91968069454234,157.19794403127938 L-115.67661660916652,215.97203608304457" stroke="#0d6d4d" stroke-width="0.1" fill="none" />
<path d="M186.48045454019638,158.9026119183752 L-154.61654635988296,190.04926622258284" stroke="#0d6d4d" stroke-width="0.1" fill="none" />
<path d="M185.02576545287803,160.59410362331664 L-187.9196806945422,157.19794403127955" stroke="#0d6d4d" stroke-width="0.1" fill="none" />
<path d="M183.55573405520107,162.2722788878504 L-214.37190017135475,118.61571741098528" stroke="#0d6d4d" stroke-width="0.1" fill="none" />
<path d="M182.0704822419616,163.93699855792028 L-233.0088464923126,75.70916362186215" stroke="#0d6d4d" stroke-width="0.1" fill="none" />
<path d="M180.5701331700303,165.58812459520618 L-243.15107973934437,30.04251024117304" stroke="#0d6d4d" stroke-width="0.1" fill="none" />
<path d="M179.05481124814048,167.2255200885702 L-244.4288484516821,-16.719391274344392" stroke="#0d6d4d" stroke-width="0.1" fill="none" />
<path d="M177.524642126572,168.8490492654091 L-236.79556951134748,-62.87176043182347" stroke="#0d6d4d" stroke-width="0.1" fill="none" />
<path d="M175.97975268673244,170.45857750291268 L-220.52952640580247,-106.73203822298379" stroke="#0d6d4d" stroke-width="0.1" fill="none" />
<path d="M174.4202710306363,172.05397133922654 L-196.22372395486326,-146.7012275248085" stroke="#0d6d4d" stroke-width="0.1" fill="none" />
<path d="M172.84632647028226,173.635098484519 L-164.76426936415928,-181.32218711700662" stroke="#0d6d4d" stroke-width="0.1" fill="none" />
<path d="M171.25804951693118,175.20182783195028 L-127.29806775868123,-209.3327541138897" stroke="#0d6d4d" stroke-width="0.1" fill="none" />
<path d="M169.65557187028378,176.75402946854413 L-85.19100990781233,-229.71175814678497" stroke="#0d6d4d" stroke-width="0.1" fill="none" />
<path d="M168.03902640756056,178.29157468595977 L-39.97817647571979,-241.7162497757985" stroke="#0d6d4d" stroke-width="0.1" fill="none" />
<path d="M166.40854717248297,179.81433599116482 L6.6921258185740395,-244.90858590916812" stroke="#0d6d4d" stroke-width="0.1" fill="none" />
<path d="M164.7642693641592,181.32218711700673 L53.11845587945627,-239.1723847875884" stroke="#0d6d4d" stroke-width="0.1" fill="none" />
<path d="M163.106329325873,182.81500303268294 L97.60826701232915,-224.716768868836" stroke="#0d6d4d" stroke-width="0.1" fill="none" />
<path d="M161.43486453377832,184.29265995410842 L138.53961144149145,-202.0687409314973" stroke="#0d6d4d" stroke-width="0.1" fill="none" />
<path d="M159.7500135854999,185.7550353541798 L174.42027103063623,-172.0539713392266" stroke="#0d6d4d" stroke-width="0.1" fill="none" />
<path d="M158.05191618864046,187.2020079729354 L203.9421585002402,-135.76669689678286" stroke="#0d6d4d" stroke-width="0.1" fill="none" />
<path d="M156.3407131491967,188.63345782760967 L226.02900585777758,-94.52982868356818" stroke="#0d6d4d" stroke-width="0.1" fill="none" />
<path d="M154.616546359883,190.04926622258282 L239.87560148216912,-49.846723197895265" stroke="#0d6d4d" stroke-width="0.1" fill="none" />
<path d="M152.8795587883662,191.44931575922251 L244.9771454113079,-3.346375072658044" stroke="#0d6d4d" stroke-width="0.1" fill="none" />
<path d="M151.1298944654106,192.8334903456188 L241.1476526383393,43.27597054970391" stroke="#0d6d4d" stroke-width="0.1" fill="none" />
<path d="M149.367698472935,194.20167520621027 L228.5267334948656,88.32062091135157" stroke="#0d6d4d" stroke-width="0.1" fill="none" />
<path d="M147.59311693198225,195.55375689130142 L207.5745039312765,130.14540067818177" stroke="#0d6d4d" stroke-width="0.1" fill="none" />
<path d="M145.80629699060347,196.88962328646966 L179.05481124814048,167.2255200885702" stroke="#0d6d4d" stroke-width="0.1" fill="none" />
<path d="M144.00738681165595,198.2091636218621 L144.00738681165595,198.2091636218621" stroke="#0d6d4d" stroke-width="0.1" fill="none" />
<path d="M142.1965355605178,199.51226848138035 L103.70994097080697,221.96677261210004" stroke="#0d6d4d" stroke-width="0.1" fill="none" />
<path d="M140.37389339271914,200.79882981175345 L59.63158206711474,237.63222512986945" stroke="#0d6d4d" stroke-width="0.1" fill="none" />
<path d="M138.53961144149145,202.0687409314973 L13.379257722067022,244.63441185329285" stroke="#0d6d4d" stroke-width="0.1" fill="none" />
<path d="M136.6938418052352,203.32189653976113 L-33.360829028580376,242.71805677890103" stroke="#0d6d4d" stroke-width="0.1" fill="none" />
<path d="M134.8367375349081,204.55819272505883 L-78.88469298437576,231.95302371980574" stroke="#0d6d4d" stroke-width="0.1" fill="none" />
<path d="M132.96845262133417,205.77752697388507 L-121.53268830722169,212.73176930778274" stroke="#0d6d4d" stroke-width="0.1" fill="none" />
<path d="M131.08914198243468,206.97979817921623 L-159.75001358549977,185.7550353541799" stroke="#0d6d4d" stroke-width="0.1" fill="none" />
<path d="M129.19896145038277,208.1649066488934 L-192.14339462563763,152.00630217769424" stroke="#0d6d4d" stroke-width="0.1" fill="none" />
<path d="M127.2980677586812,209.3327541138897 L-217.53187850858188,112.7159342441324" stroke="#0d6d4d" stroke-width="0.1" fill="none" />
<path d="M125.38661852916678,210.48324373645804 L-234.98988713198048,69.31632524664786" stroke="#0d6d4d" stroke-width="0.1" fill="none" />
<path d="M123.4647722589398,211.61628011816137 L-243.88096065179568,23.389677884855583" stroke="#0d6d4d" stroke-width="0.1" fill="none" />
<path d="M121.53268830722172,212.7317693077827 L-243.88096065179568,-23.389677884855494" stroke="#0d6d4d" stroke-width="0.1" fill="none" />
<path d="M119.59052688214109,213.82961880911606 L-234.9898871319805,-69.31632524664778" stroke="#0d6d4d" stroke-width="0.1" fill="none" />
<path d="M117.63844902744933,214.90973758863558 L-217.5318785085819,-112.71593424413233" stroke="#0d6d4d" stroke-width="0.1" fill="none" />
<path d="M115.67661660916657,215.97203608304454 L-192.14339462563768,-152.00630217769415" stroke="#0d6d4d" stroke-width="0.1" fill="none" />
<path d="M113.70519230216006,217.0164262067017 L-159.75001358549991,-185.7550353541798" stroke="#0d6d4d" stroke-width="0.1" fill="none" />
<path d="M111.72433957665513,218.04282135892538 L-121.53268830722166,-212.73176930778277" stroke="#0d6d4d" stroke-width="0.1" fill="none" />
<path d="M109.73422268468009,219.05113643117454 L-78.88469298437595,-231.9530237198057" stroke="#0d6d4d" stroke-width="0.1" fill="none" />
<path d="M107.73500664644698,220.04128781410552 L-33.360829028580355,-242.71805677890103" stroke="#0d6d4d" stroke-width="0.1" fill="none" />
<path d="M105.72685723666733,221.01319340450553 L13.379257722066955,-244.63441185329285" stroke="#0d6d4d" stroke-width="0.1" fill="none" />
<path d="M103.70994097080697,221.96677261210004 L59.631582067114756,-237.63222512986945" stroke="#0d6d4d" stroke-width="0.1" fill="none" />
<path d="M101.68442509127793,222.90194636623585 L103.70994097080697,-221.96677261210004" stroke="#0d6d4d" stroke-width="0.1" fill="none" />
<path d="M99.65047755357111,223.8186371224372 L144.00738681165592,-198.20916362186213" stroke="#0d6d4d" stroke-width="0.1" fill="none" />
<path d="M97.60826701232914,224.716768868836 L179.0548112481404,-167.22552008857025" stroke="#0d6d4d" stroke-width="0.1" fill="none" />
<path d="M95.5579628073621,225.59626713247454 L207.57450393127644,-130.14540067818186" stroke="#0d6d4d" stroke-width="0.1" fill="none" />
<path d="M93.49973494960521,226.4570589854809 L228.5267334948656,-88.3206209113516" stroke="#0d6d4d" stroke-width="0.1" fill="none" />
<path d="M91.43375410702195,227.29907305111618 L241.1476526383393,-43.275970549703935" stroke="#0d6d4d" stroke-width="0.1" fill="none" />
<path d="M89.36019159045222,228.12223950969286 L244.9771454113079,3.34637507265796" stroke="#0d6d4d" stroke-width="0.1" fill="none" />
<path d="M87.27921933940715,228.9264901043644 L239.87560148216912,49.846723197895244" stroke="#0d6d4d" stroke-width="0.1" fill="none" />
<path d="M85.1910099078123,229.71175814678497 L226.0290058577776,94.52982868356816" stroke="#0d6d4d" stroke-width="0.1" fill="none" />
<path d="M83.09573644969883,230.47797852263932 L203.94215850024025,135.76669689678278" stroke="#0d6d4d" stroke-width="0.1" fill="none" />
<path d="M80.9935727048464,231.225087697042 L174.4202710306363,172.05397133922654" stroke="#0d6d4d" stroke-width="0.1" fill="none" />
<path d="M78.88469298437592,231.9530237198057 L138.53961144149145,202.0687409314973" stroke="#0d6d4d" stroke-width="0.1" fill="none" />
<path d="M76.76927215629621,232.6617262305782 L97.60826701232914,224.716768868836" stroke="#0d6d4d" stroke-width="0.1" fill="none" />
<path d="M74.64748563100368,233.35113646384733 L53.118455879456334,239.1723847875884" stroke="#0d6d4d" stroke-width="0.1" fill="none" />
<path d="M72.51950934673775,234.02119725381377 L6.6921258185740875,244.90858590916812" stroke="#0d6d4d" stroke-width="0.1" fill="none" />
<path d="M70.38551975499149,234.67185303913143 L-39.97817647571991,241.71624977579847" stroke="#0d6d4d" stroke-width="0.1" fill="none" />
<path d="M68.24569380588069,235.30304986751443 L-85.19100990781224,229.711758146785" stroke="#0d6d4d" stroke-width="0.1" fill="none" />
<path d="M66.10020893347095,235.91473540021084 L-127.29806775868114,209.33275411388976" stroke="#0d6d4d" stroke-width="0.1" fill="none" />
<path d="M63.94924304106529,236.50685891634257 L-164.76426936415913,181.32218711700676" stroke="#0d6d4d" stroke-width="0.1" fill="none" />
<path d="M61.79297448645184,237.07937131711125 L-196.2237239548632,146.7012275248086" stroke="#0d6d4d" stroke-width="0.1" fill="none" />
<path d="M59.63158206711474,237.63222512986945 L-220.52952640580241,106.73203822298387" stroke="#0d6d4d" stroke-width="0.1" fill="none" />
<path d="M57.46524500540857,238.16537451205699 L-236.79556951134745,62.87176043182353" stroke="#0d6d4d" stroke-width="0.1" fill="none" />
<path d="M55.29414293369664,238.67877525500236 L-244.4288484516821,16.71939127434448" stroke="#0d6d4d" stroke-width="0.1" fill="none" />
<path d="M53.118455879456334,239.1723847875884 L-243.1510797393444,-30.04251024117296" stroke="#0d6d4d" stroke-width="0.1" fill="none" />
<path d="M50.93836425035103,239.64616217978238 L-233.00884649231264,-75.70916362186207" stroke="#0d6d4d" stroke-width="0.1" fill="none" />
<path d="M48.75404881927114,240.10006814602974 L-214.3719001713548,-118.6157174109852" stroke="#0d6d4d" stroke-width="0.1" fill="none" />
<path d="M46.565690709343826,240.53406504851185 L-187.91968069454228,-157.19794403127943" stroke="#0d6d4d" stroke-width="0.1" fill="none" />
<path d="M44.373471378914736,240.9481169002668 L-154.61654635988302,-190.0492662225828" stroke="#0d6d4d" stroke-width="0.1" fill="none" />
<path d="M42.17757260650135,241.34218936817348 L-115.6766166091665,-215.97203608304457" stroke="#0d6d4d" stroke-width="0.1" fill="none" />
<path d="M39.97817647571986,241.71624977579847 L-72.51950934673776,-234.02119725381377" stroke="#0d6d4d" stroke-width="0.1" fill="none" />
<path d="M37.775465360187255,242.07026710610558 L-26.718586480583614,-243.53873847188987" stroke="#0d6d4d" stroke-width="0.1" fill="none" />
<path d="M35.56962190839813,242.4042120040277 L20.056405522044212,-244.17768243132974" stroke="#0d6d4d" stroke-width="0.1" fill="none" />
<path d="M33.36082902858053,242.718056778901 L66.10020893347095,-235.91473540021084" stroke="#0d6d4d" stroke-width="0.1" fill="none" />
<path d="M31.1492698735279,243.01177540676113 L109.73422268468006,-219.05113643117457" stroke="#0d6d4d" stroke-width="0.1" fill="none" />
<path d="M28.935127825413463,243.28534353250092 L149.36769847293493,-194.2016752062103" stroke="#0d6d4d" stroke-width="0.1" fill="none" />
<path d="M26.718586480583475,243.53873847188987 L183.55573405520107,-162.2722788878504" stroke="#0d6d4d" stroke-width="0.1" fill="none" />
<path d="M24.49982963433332,243.77193921345548 L211.05194948838,-124.42698508424246" stroke="#0d6d4d" stroke-width="0.1" fill="none" />
<path d="M22.27904126566756,243.98492642022515 L230.85392591911102,-82.04550498189164" stroke="#0d6d4d" stroke-width="0.1" fill="none" />
<path d="M20.05640552204419,244.17768243132974 L242.23975037881826,-36.67292375047035" stroke="#0d6d4d" stroke-width="0.1" fill="none" />
<path d="M17.832106704105716,244.350191263468 L244.79433428459467,10.036628027485506" stroke="#0d6d4d" stroke-width="0.1" fill="none" />
<path d="M15.606329250395772,244.5024386122319 L238.424546162552,56.38027835317171" stroke="#0d6d4d" stroke-width="0.1" fill="none" />
<path d="M13.379257722067022,244.63441185329285 L223.36260690581508,100.6684947550043" stroke="#0d6d4d" stroke-width="0.1" fill="none" />
<path d="M11.15107678757607,244.74610004344825 L200.15762378755832,141.2866789181424" stroke="#0d6d4d" stroke-width="0.1" fill="none" />
<path d="M8.921971207371865,244.83749392152916 L169.65557187028378,176.75402946854413" stroke="#0d6d4d" stroke-width="0.1" fill="none" />
<path d="M6.6921258185740875,244.90858590916812 L132.96845262133417,205.77752697388507" stroke="#0d6d4d" stroke-width="0.1" fill="none" />
<path d="M4.461725519647897,244.9593701114275 L91.43375410702195,227.29907305111618" stroke="#0d6d4d" stroke-width="0.1" fill="none" />
<path d="M2.230955255071411,244.98984231728846 L46.565690709343826,240.53406504851185" stroke="#0d6d4d" stroke-width="0.1" fill="none" />
<path d="M3.0003846579110155e-14,245.0 L3.0003846579110155e-14,245.0" stroke="#0d6d4d" stroke-width="0.1" fill="none" />
<path d="M-2.230955255071351,244.98984231728846 L-46.56569070934377,240.53406504851188" stroke="#0d6d4d" stroke-width="0.1" fill="none" />
<path d="M-4.4617255196479455,244.9593701114275 L-91.4337541070219,227.2990730511162" stroke="#0d6d4d" stroke-width="0.1" fill="none" />
<path d="M-6.69212581857392,244.90858590916812 L-132.96845262133405,205.77752697388516" stroke="#0d6d4d" stroke-width="0.1" fill="none" />
<path d="M-8.921971207371694,244.83749392152916 L-169.65557187028384,176.7540294685441" stroke="#0d6d4d" stroke-width="0.1" fill="none" />
<path d="M-11.15107678757601,244.74610004344825 L-200.15762378755826,141.28667891814248" stroke="#0d6d4d" stroke-width="0.1" fill="none" />
<path d="M-13.379257722066962,244.63441185329285 L-223.3626069058151,100.6684947550042" stroke="#0d6d4d" stroke-width="0.1" fill="none" />
<path d="M-15.606329250395602,244.50243861223194 L-238.424546162552,56.38027835317166" stroke="#0d6d4d" stroke-width="0.1" fill="none" />
<path d="M-17.832106704105545,244.350191263468 L-244.79433428459467,10.036628027485564" stroke="#0d6d4d" stroke-width="0.1" fill="none" />
<path d="M-20.056405522044233,244.17768243132974 L-242.2397503788183,-36.67292375047018" stroke="#0d6d4d" stroke-width="0.1" fill="none" />
<path d="M-22.2790412656675,243.98492642022515 L-230.85392591911102,-82.04550498189158" stroke="#0d6d4d" stroke-width="0.1" fill="none" />
<path d="M-24.49982963433326,243.7719392134555 L-211.05194948838005,-124.42698508424236" stroke="#0d6d4d" stroke-width="0.1" fill="none" />
<path d="M-26.718586480583415,243.5387384718899 L-183.55573405520124,-162.2722788878502" stroke="#0d6d4d" stroke-width="0.1" fill="none" />
<path d="M-28.93512782541351,243.28534353250092 L-149.36769847293502,-194.20167520621024" stroke="#0d6d4d" stroke-width="0.1" fill="none" />
<path d="M-31.149269873527736,243.01177540676116 L-109.73422268468022,-219.05113643117448" stroke="#0d6d4d" stroke-width="0.1" fill="none" />
<path d="M-33.360829028580376,242.71805677890103 L-66.10020893347118,-235.91473540021076" stroke="#0d6d4d" stroke-width="0.1" fill="none" />
<path d="M-35.56962190839808,242.4042120040277 L-20.056405522044326,-244.1776824313297" stroke="#0d6d4d" stroke-width="0.1" fill="none" />
<path d="M-37.7754653601872,242.07026710610558 L26.71858648058348,-243.53873847188987" stroke="#0d6d4d" stroke-width="0.1" fill="none" />
<path d="M-39.97817647571991,241.71624977579847 L72.51950934673773,-234.02119725381377" stroke="#0d6d4d" stroke-width="0.1" fill="none" />
<path d="M-42.17757260650119,241.3421893681735 L115.67661660916653,-215.97203608304457" stroke="#0d6d4d" stroke-width="0.1" fill="none" />
<path d="M-44.37347137891468,240.9481169002668 L154.61654635988296,-190.04926622258284" stroke="#0d6d4d" stroke-width="0.1" fill="none" />
<path d="M-46.56569070934377,240.53406504851188 L187.91968069454225,-157.19794403127946" stroke="#0d6d4d" stroke-width="0.1" fill="none" />
<path d="M-48.754048819271084,240.10006814602977 L214.3719001713547,-118.61571741098535" stroke="#0d6d4d" stroke-width="0.1" fill="none" />
<path d="M-50.93836425035097,239.64616217978238 L233.0088464923126,-75.70916362186213" stroke="#0d6d4d" stroke-width="0.1" fill="none" />
<path d="M-53.11845587945628,239.1723847875884 L243.15107973934437,-30.04251024117312" stroke="#0d6d4d" stroke-width="0.1" fill="none" />
<path d="M-55.294142933696484,238.6787752550024 L244.4288484516821,16.719391274344368" stroke="#0d6d4d" stroke-width="0.1" fill="none" />
<path d="M-57.46524500540852,238.165374512057 L236.79556951134745,62.87176043182353" stroke="#0d6d4d" stroke-width="0.1" fill="none" />
<path d="M-59.63158206711469,237.63222512986945 L220.5295264058025,106.73203822298372" stroke="#0d6d4d" stroke-width="0.1" fill="none" />
<path d="M-61.79297448645178,237.07937131711128 L196.22372395486326,146.7012275248085" stroke="#0d6d4d" stroke-width="0.1" fill="none" />
<path d="M-63.949243041065344,236.50685891634257 L164.7642693641592,181.32218711700673" stroke="#0d6d4d" stroke-width="0.1" fill="none" />
<path d="M-66.1002089334709,235.91473540021084 L127.2980677586812,209.3327541138897" stroke="#0d6d4d" stroke-width="0.1" fill="none" />
<path d="M-68.24569380588063,235.30304986751443 L85.1910099078123,229.71175814678497" stroke="#0d6d4d" stroke-width="0.1" fill="none" />
<path d="M-70.38551975499144,234.67185303913146 L39.97817647571986,241.71624977579847" stroke="#0d6d4d" stroke-width="0.1" fill="none" />
<path d="M-72.51950934673779,234.02119725381377 L-6.69212581857392,244.90858590916812" stroke="#0d6d4d" stroke-width="0.1" fill="none" />
<path d="M-74.64748563100362,233.35113646384735 L-53.11845587945628,239.1723847875884" stroke="#0d6d4d" stroke-width="0.1" fill="none" />
<path d="M-76.76927215629615,232.66172623057824 L-97.6082670123291,224.71676886883603" stroke="#0d6d4d" stroke-width="0.1" fill="none" />
<path d="M-78.88469298437576,231.95302371980574 L-138.53961144149147,202.06874093149727" stroke="#0d6d4d" stroke-width="0.1" fill="none" />
<path d="M-80.99357270484634,231.225087697042 L-174.42027103063623,172.0539713392266" stroke="#0d6d4d" stroke-width="0.1" fill="none" />
<path d="M-83.09573644969878,230.47797852263935 L-203.9421585002402,135.76669689678286" stroke="#0d6d4d" stroke-width="0.1" fill="none" />
<path d="M-85.19100990781224,229.711758146785 L-226.02900585777755,94.52982868356825" stroke="#0d6d4d" stroke-width="0.1" fill="none" />
<path d="M-87.2792193394072,228.9264901043644 L-239.87560148216912,49.84672319789525" stroke="#0d6d4d" stroke-width="0.1" fill="none" />
<path d="M-89.36019159045208,228.12223950969292 L-244.97714541130787,3.3463750726580743" stroke="#0d6d4d" stroke-width="0.1" fill="none" />
<path d="M-91.4337541070219,227.2990730511162 L-241.1476526383393,-43.27597054970398" stroke="#0d6d4d" stroke-width="0.1" fill="none" />
<path d="M-93.49973494960517,226.45705898548093 L-228.5267334948656,-88.3206209113516" stroke="#0d6d4d" stroke-width="0.1" fill="none" />
<path d="M-95.55796280736216,225.5962671324745 L-207.5745039312765,-130.14540067818174" stroke="#0d6d4d" stroke-width="0.1" fill="none" />
<path d="M-97.6082670123291,224.71676886883603 L-179.0548112481404,-167.22552008857025" stroke="#0d6d4d" stroke-width="0.1" fill="none" />
<path d="M-99.65047755357105,223.81863712243722 L-144.00738681165595,-198.2091636218621" stroke="#0d6d4d" stroke-width="0.1" fill="none" />
<path d="M-101.68442509127779,222.90194636623593 L-103.7099409708071,-221.9667726121" stroke="#0d6d4d" stroke-width="0.1" fill="none" />
<path d="M-103.70994097080693,221.96677261210007 L-59.631582067114984,-237.6322251298694" stroke="#0d6d4d" stroke-width="0.1" fill="none" />
<path d="M-105.72685723666727,221.01319340450556 L-13.37925772206705,-244.63441185329285" stroke="#0d6d4d" stroke-width="0.1" fill="none" />
<path d="M-107.73500664644693,220.04128781410554 L33.36082902858042,-242.71805677890103" stroke="#0d6d4d" stroke-width="0.1" fill="none" />
<path d="M-109.73422268468015,219.0511364311745 L78.88469298437589,-231.9530237198057" stroke="#0d6d4d" stroke-width="0.1" fill="none" />
<path d="M-111.72433957665498,218.04282135892547 L121.53268830722169,-212.73176930778274" stroke="#0d6d4d" stroke-width="0.1" fill="none" />
<path d="M-113.70519230216003,217.0164262067017 L159.75001358549983,-185.75503535417988" stroke="#0d6d4d" stroke-width="0.1" fill="none" />
<path d="M-115.67661660916652,215.97203608304457 L192.14339462563765,-152.00630217769415" stroke="#0d6d4d" stroke-width="0.1" fill="none" />
<path d="M-117.63844902744937,214.90973758863558 L217.53187850858194,-112.71593424413227" stroke="#0d6d4d" stroke-width="0.1" fill="none" />
<path d="M-119.59052688214103,213.8296188091161 L234.98988713198045,-69.31632524664789" stroke="#0d6d4d" stroke-width="0.1" fill="none" />
<path d="M-121.53268830722169,212.73176930778274 L243.88096065179568,-23.389677884855498" stroke="#0d6d4d" stroke-width="0.1" fill="none" />
<path d="M-123.46477225893967,211.61628011816143 L243.88096065179568,23.38967788485547" stroke="#0d6d4d" stroke-width="0.1" fill="none" />
<path d="M-125.38661852916673,210.48324373645806 L234.98988713198048,69.3163252466478" stroke="#0d6d4d" stroke-width="0.1" fill="none" />
<path d="M-127.29806775868114,209.33275411388976 L217.53187850858194,112.71593424413226" stroke="#0d6d4d" stroke-width="0.1" fill="none" />
<path d="M-129.1989614503827,208.1649066488934 L192.14339462563765,152.00630217769415" stroke="#0d6d4d" stroke-width="0.1" fill="none" />
<path d="M-131.08914198243474,206.9797981792162 L159.7500135854999,185.7550353541798" stroke="#0d6d4d" stroke-width="0.1" fill="none" />
<path d="M-132.96845262133405,205.77752697388516 L121.53268830722172,212.7317693077827" stroke="#0d6d4d" stroke-width="0.1" fill="none" />
<path d="M-134.83673753490805,204.55819272505886 L78.88469298437592,231.9530237198057" stroke="#0d6d4d" stroke-width="0.1" fill="none" />
<path d="M-136.69384180523517,203.32189653976116 L33.36082902858053,242.718056778901" stroke="#0d6d4d" stroke-width="0.1" fill="none" />
<path d="M-138.53961144149147,202.06874093149727 L-13.379257722066962,244.63441185329285" stroke="#0d6d4d" stroke-width="0.1" fill="none" />
<path d="M-140.37389339271908,200.79882981175348 L-59.63158206711469,237.63222512986945" stroke="#0d6d4d" stroke-width="0.1" fill="none" />
<path d="M-142.19653556051776,199.51226848138037 L-103.70994097080693,221.96677261210007" stroke="#0d6d4d" stroke-width="0.1" fill="none" />
<path d="M-144.0073868116558,198.20916362186222 L-144.0073868116558,198.20916362186222" stroke="#0d6d4d" stroke-width="0.1" fill="none" />
<path d="M-145.80629699060344,196.88962328646969 L-179.0548112481404,167.22552008857025" stroke="#0d6d4d" stroke-width="0.1" fill="none" />
<path d="M-147.59311693198228,195.5537568913014 L-207.57450393127644,130.14540067818183" stroke="#0d6d4d" stroke-width="0.1" fill="none" />
<path d="M-149.36769847293493,194.2016752062103 L-228.52673349486557,88.32062091135167" stroke="#0d6d4d" stroke-width="0.1" fill="none" />
<path d="M-151.12989446541062,192.83349034561877 L-241.14765263833928,43.27597054970408" stroke="#0d6d4d" stroke-width="0.1" fill="none" />
<path d="M-152.8795587883661,191.4493157592226 L-244.9771454113079,-3.3463750726579846" stroke="#0d6d4d" stroke-width="0.1" fill="none" />
<path d="M-154.61654635988296,190.04926622258284 L-239.87560148216915,-49.84672319789515" stroke="#0d6d4d" stroke-width="0.1" fill="none" />
<path d="M-156.34071314919663,188.6334578276097 L-226.02900585777758,-94.52982868356818" stroke="#0d6d4d" stroke-width="0.1" fill="none" />
<path d="M-158.05191618864052,187.20200797293538 L-203.94215850024025,-135.76669689678275" stroke="#0d6d4d" stroke-width="0.1" fill="none" />
<path d="M-159.75001358549977,185.7550353541799 L-174.42027103063623,-172.0539713392266" stroke="#0d6d4d" stroke-width="0.1" fill="none" />
<path d="M-161.4348645337783,184.29265995410847 L-138.53961144149147,-202.06874093149727" stroke="#0d6d4d" stroke-width="0.1" fill="none" />
<path d="M-163.10632932587285,182.81500303268305 L-97.60826701232907,-224.71676886883603" stroke="#0d6d4d" stroke-width="0.1" fill="none" />
<path d="M-164.76426936415913,181.32218711700676 L-53.11845587945626,-239.1723847875884" stroke="#0d6d4d" stroke-width="0.1" fill="none" />
<path d="M-166.408547172483,179.8143359911648 L-6.692125818574119,-244.90858590916812" stroke="#0d6d4d" stroke-width="0.1" fill="none" />
<path d="M-168.03902640756053,178.29157468595977 L39.97817647571983,-241.7162497757985" stroke="#0d6d4d" stroke-width="0.1" fill="none" />
<path d="M-169.65557187028384,176.7540294685441 L85.19100990781224,-229.711758146785" stroke="#0d6d4d" stroke-width="0.1" fill="none" />
<path d="M-171.25804951693107,175.2018278319504 L127.29806775868123,-209.3327541138897" stroke="#0d6d4d" stroke-width="0.1" fill="none" />
<path d="M-172.8463264702822,173.63509848451903 L164.7642693641592,-181.32218711700673" stroke="#0d6d4d" stroke-width="0.1" fill="none" />
<path d="M-174.42027103063623,172.0539713392266 L196.2237239548632,-146.70122752480856" stroke="#0d6d4d" stroke-width="0.1" fill="none" />
<path d="M-175.97975268673244,170.45857750291265 L220.5295264058025,-106.73203822298375" stroke="#0d6d4d" stroke-width="0.1" fill="none" />
<path d="M-177.52464212657188,168.8490492654092 L236.79556951134745,-62.87176043182356" stroke="#0d6d4d" stroke-width="0.1" fill="none" />
<path d="M-179.0548112481404,167.22552008857025 L244.4288484516821,-16.71939127434445" stroke="#0d6d4d" stroke-width="0.1" fill="none" />
<path d="M-180.57013317003018,165.58812459520635 L243.15107973934437,30.042510241173094" stroke="#0d6d4d" stroke-width="0.1" fill="none" />
<path d="M-182.07048224196154,163.93699855792033 L233.00884649231264,75.70916362186206" stroke="#0d6d4d" stroke-width="0.1" fill="none" />
<path d="M-183.5557340552011,162.27227888785038 L214.37190017135472,118.61571741098531" stroke="#0d6d4d" stroke-width="0.1" fill="none" />
<path d="M-185.025765452878,160.5941036233167 L187.91968069454234,157.19794403127938" stroke="#0d6d4d" stroke-width="0.1" fill="none" />
<path d="M-186.4804545401964,158.9026119183752 L154.616546359883,190.04926622258282" stroke="#0d6d4d" stroke-width="0.1" fill="none" />
<path d="M-187.9196806945422,157.19794403127955 L115.67661660916657,215.97203608304454" stroke="#0d6d4d" stroke-width="0.1" fill="none" />
<path d="M-189.34332457548618,155.48024131285007 L72.51950934673775,234.02119725381377" stroke="#0d6d4d" stroke-width="0.1" fill="none" />
<path d="M-190.7512681346783,153.7496461947541 L26.718586480583475,243.53873847188987" stroke="#0d6d4d" stroke-width="0.1" fill="none" />
<path d="M-192.14339462563763,152.00630217769424 L-20.056405522044233,244.17768243132974" stroke="#0d6d4d" stroke-width="0.1" fill="none" />
<path d="M-193.51958861343186,150.25035381951048 L-66.1002089334709,235.91473540021084" stroke="#0d6d4d" stroke-width="0.1" fill="none" />
<path d="M-194.87973598424963,148.48194672319312 L-109.73422268468015,219.0511364311745" stroke="#0d6d4d" stroke-width="0.1" fill="none" />
<path d="M-196.2237239548632,146.7012275248086 L-149.36769847293493,194.2016752062103" stroke="#0d6d4d" stroke-width="0.1" fill="none" />
<path d="M-197.55144108197953,144.9083438813417 L-183.5557340552011,162.27227888785038" stroke="#0d6d4d" stroke-width="0.1" fill="none" />
<path d="M-198.86277727148186,143.1034444584511 L-211.05194948838,124.42698508424246" stroke="#0d6d4d" stroke-width="0.1" fill="none" />
<path d="M-200.15762378755826,141.28667891814248 L-230.853925919111,82.04550498189167" stroke="#0d6d4d" stroke-width="0.1" fill="none" />
<path d="M-201.43587326171868,139.4581979063576 L-242.23975037881826,36.672923750470495" stroke="#0d6d4d" stroke-width="0.1" fill="none" />
<path d="M-202.69741970169682,137.61815304048434 L-244.79433428459467,-10.036628027485476" stroke="#0d6d4d" stroke-width="0.1" fill="none" />
<path d="M-203.9421585002402,135.76669689678286 L-238.42454616255202,-56.38027835317157" stroke="#0d6d4d" stroke-width="0.1" fill="none" />
<path d="M-205.16998644378305,133.90398299773568 L-223.36260690581517,-100.66849475500413" stroke="#0d6d4d" stroke-width="0.1" fill="none" />
<path d="M-206.3808017210058,132.03016579931605 L-200.15762378755835,-141.28667891814237" stroke="#0d6d4d" stroke-width="0.1" fill="none" />
<path d="M-207.57450393127644,130.14540067818183 L-169.6555718702839,-176.75402946854405" stroke="#0d6d4d" stroke-width="0.1" fill="none" />
<path d="M-208.7509940929761,128.24984391879102 L-132.96845262133414,-205.77752697388513" stroke="#0d6d4d" stroke-width="0.1" fill="none" />
<path d="M-209.91017465170677,126.34365270044222 L-91.43375410702198,-227.29907305111618" stroke="#0d6d4d" stroke-width="0.1" fill="none" />
<path d="M-211.05194948838,124.42698508424246 L-46.565690709343755,-240.53406504851188" stroke="#0d6d4d" stroke-width="0.1" fill="none" />
<path d="M-212.17622392718752,122.49999999999991 L0.0,-245.0" stroke="#0d6d4d" stroke-width="0.1" fill="none" />
<path d="M-213.28290474345138,120.56285723304605 L46.56569070934378,-240.53406504851188" stroke="#0d6d4d" stroke-width="0.1" fill="none" />
<path d="M-214.37190017135475,118.61571741098528 L91.43375410702188,-227.2990730511162" stroke="#0d6d4d" stroke-width="0.1" fill="none" />
<path d="M-215.44311991155018,116.6587419903773 L132.96845262133414,-205.77752697388513" stroke="#0d6d4d" stroke-width="0.1" fill="none" />
<path d="M-216.49647513864818,114.69209324334734 L169.65557187028378,-176.75402946854413" stroke="#0d6d4d" stroke-width="0.1" fill="none" />
<path d="M-217.53187850858188,112.7159342441324 L200.1576237875583,-141.28667891814246" stroke="#0d6d4d" stroke-width="0.1" fill="none" />
<path d="M-218.54924416585004,110.73042885555739 L223.36260690581508,-100.66849475500428" stroke="#0d6d4d" stroke-width="0.1" fill="none" />
<path d="M-219.54848775063596,108.7357417154491 L238.424546162552,-56.38027835317168" stroke="#0d6d4d" stroke-width="0.1" fill="none" />
<path d="M-220.52952640580241,106.73203822298387 L244.79433428459467,-10.03662802748548" stroke="#0d6d4d" stroke-width="0.1" fill="none" />
<path d="M-221.49227878376283,104.71948452497213 L242.23975037881826,36.67292375047038" stroke="#0d6d4d" stroke-width="0.1" fill="none" />
<path d="M-222.43666505322582,102.6982475020827 L230.85392591911102,82.04550498189161" stroke="#0d6d4d" stroke-width="0.1" fill="none" />
<path d="M-223.3626069058151,100.6684947550042 L211.05194948838,124.42698508424246" stroke="#0d6d4d" stroke-width="0.1" fill="none" />
<path d="M-224.27002756256297,98.63039459054822 L183.55573405520107,162.2722788878504" stroke="#0d6d4d" stroke-width="0.1" fill="none" />
<path d="M-225.15885178027673,96.58411600769234 L149.367698472935,194.20167520621027" stroke="#0d6d4d" stroke-width="0.1" fill="none" />
<path d="M-226.02900585777755,94.52982868356825 L109.73422268468009,219.05113643117454" stroke="#0d6d4d" stroke-width="0.1" fill="none" />
<path d="M-226.88041764201228,92.46770295939055 L66.10020893347095,235.91473540021084" stroke="#0d6d4d" stroke-width="0.1" fill="none" />
<path d="M-227.71301653403577,90.39790982633366 L20.05640552204419,244.17768243132974" stroke="#0d6d4d" stroke-width="0.1" fill="none" />
<path d="M-228.52673349486557,88.32062091135167 L-26.718586480583415,243.5387384718899" stroke="#0d6d4d" stroke-width="0.1" fill="none" />
<path d="M-229.32150105120604,86.23600846294842 L-72.51950934673779,234.02119725381377" stroke="#0d6d4d" stroke-width="0.1" fill="none" />
<path d="M-230.09725330104348,84.14424533689416 L-115.67661660916652,215.97203608304457" stroke="#0d6d4d" stroke-width="0.1" fill="none" />
<path d="M-230.853925919111,82.04550498189167 L-154.61654635988296,190.04926622258284" stroke="#0d6d4d" stroke-width="0.1" fill="none" />
<path d="M-231.59145616222182,79.93996142519518 L-187.9196806945422,157.19794403127955" stroke="#0d6d4d" stroke-width="0.1" fill="none" />
<path d="M-232.30978287447223,77.82778925817928 L-214.37190017135475,118.61571741098528" stroke="#0d6d4d" stroke-width="0.1" fill="none" />
<path d="M-233.0088464923126,75.70916362186215 L-233.0088464923126,75.70916362186215" stroke="#0d6d4d" stroke-width="0.1" fill="none" />
<path d="M-233.68858904948655,73.58426019238217 L-243.15107973934437,30.04251024117304" stroke="#0d6d4d" stroke-width="0.1" fill="none" />
<path d="M-234.34895418183697,71.45325516643221 L-244.4288484516821,-16.719391274344392" stroke="#0d6d4d" stroke-width="0.1" fill="none" />
<path d="M-234.98988713198048,69.31632524664786 L-236.79556951134748,-62.87176043182347" stroke="#0d6d4d" stroke-width="0.1" fill="none" />
<path d="M-235.61133475384716,67.17364762695692 L-220.52952640580247,-106.73203822298379" stroke="#0d6d4d" stroke-width="0.1" fill="none" />
<path d="M-236.213245517088,65.02539997788477 L-196.22372395486326,-146.7012275248085" stroke="#0d6d4d" stroke-width="0.1" fill="none" />
<path d="M-236.79556951134745,62.87176043182353 L-164.76426936415928,-181.32218711700662" stroke="#0d6d4d" stroke-width="0.1" fill="none" />
<path d="M-237.35825845040202,60.71290756826061 L-127.29806775868123,-209.3327541138897" stroke="#0d6d4d" stroke-width="0.1" fill="none" />
<path d="M-237.90126567616437,58.549020398970356 L-85.19100990781233,-229.71175814678497" stroke="#0d6d4d" stroke-width="0.1" fill="none" />
<path d="M-238.424546162552,56.38027835317166 L-39.97817647571979,-241.7162497757985" stroke="#0d6d4d" stroke-width="0.1" fill="none" />
<path d="M-238.92805651922072,54.206861262648886 L6.6921258185740395,-244.90858590916812" stroke="#0d6d4d" stroke-width="0.1" fill="none" />
<path d="M-239.41175499516285,52.02894934684066 L53.11845587945627,-239.1723847875884" stroke="#0d6d4d" stroke-width="0.1" fill="none" />
<path d="M-239.87560148216912,49.84672319789525 L97.60826701232915,-224.716768868836" stroke="#0d6d4d" stroke-width="0.1" fill="none" />
<path d="M-240.31955751815414,47.66036376569737 L138.53961144149145,-202.0687409314973" stroke="#0d6d4d" stroke-width="0.1" fill="none" />
<path d="M-240.74358629034623,45.47005234286215 L174.42027103063623,-172.0539713392266" stroke="#0d6d4d" stroke-width="0.1" fill="none" />
<path d="M-241.14765263833928,43.27597054970408 L203.9421585002402,-135.76669689678286" stroke="#0d6d4d" stroke-width="0.1" fill="none" />
<path d="M-241.5317230570089,41.07830031917536 L226.02900585777758,-94.52982868356818" stroke="#0d6d4d" stroke-width="0.1" fill="none" />
<path d="M-241.89576569929005,38.87722388178158 L239.87560148216912,-49.846723197895265" stroke="#0d6d4d" stroke-width="0.1" fill="none" />
<path d="M-242.23975037881826,36.672923750470495 L244.9771454113079,-3.346375072658044" stroke="#0d6d4d" stroke-width="0.1" fill="none" />
<path d="M-242.56364857243247,34.46558270549746 L241.1476526383393,43.27597054970391" stroke="#0d6d4d" stroke-width="0.1" fill="none" />
<path d="M-242.86743342254013,32.25538377927064 L228.5267334948656,88.32062091135157" stroke="#0d6d4d" stroke-width="0.1" fill="none" />
<path d="M-243.15107973934437,30.04251024117304 L207.5745039312765,130.14540067818177" stroke="#0d6d4d" stroke-width="0.1" fill="none" />
<path d="M-243.41456400293262,27.82714558236638 L179.05481124814048,167.2255200885702" stroke="#0d6d4d" stroke-width="0.1" fill="none" />
<path d="M-243.65786436522697,25.60947350057507 L144.00738681165595,198.2091636218621" stroke="#0d6d4d" stroke-width="0.1" fill="none" />
<path d="M-243.88096065179568,23.389677884855583 L103.70994097080697,221.96677261210004" stroke="#0d6d4d" stroke-width="0.1" fill="none" />
<path d="M-244.08383436352614,21.167942800346662 L59.63158206711474,237.63222512986945" stroke="#0d6d4d" stroke-width="0.1" fill="none" />
<path d="M-244.2664686781588,18.94445247300839 L13.379257722067022,244.63441185329285" stroke="#0d6d4d" stroke-width="0.1" fill="none" />
<path d="M-244.4288484516821,16.71939127434448 L-33.360829028580376,242.71805677890103" stroke="#0d6d4d" stroke-width="0.1" fill="none" />
<path d="M-244.57096021958813,14.492943706115714 L-78.88469298437576,231.95302371980574" stroke="#0d6d4d" stroke-width="0.1" fill="none" />
<path d="M-244.69279219798915,12.265294385040448 L-121.53268830722169,212.73176930778274" stroke="#0d6d4d" stroke-width="0.1" fill="none" />
<path d="M-244.79433428459467,10.036628027485564 L-159.75001358549977,185.7550353541799" stroke="#0d6d4d" stroke-width="0.1" fill="none" />
<path d="M-244.87557805954927,7.807129434151115 L-192.14339462563763,152.00630217769424" stroke="#0d6d4d" stroke-width="0.1" fill="none" />
<path d="M-244.93651678613054,5.576983474745808 L-217.53187850858188,112.7159342441324" stroke="#0d6d4d" stroke-width="0.1" fill="none" />
<path d="M-244.97714541130787,3.3463750726580743 L-234.98988713198048,69.31632524664786" stroke="#0d6d4d" stroke-width="0.1" fill="none" />
<path d="M-244.99746056616146,1.1154891896213737 L-243.88096065179568,23.389677884855583" stroke="#0d6d4d" stroke-width="0.1" fill="none" />
<path d="M-244.99746056616146,-1.1154891896212835 L-243.88096065179568,-23.389677884855494" stroke="#0d6d4d" stroke-width="0.1" fill="none" />
<path d="M-244.9771454113079,-3.3463750726579846 L-234.9898871319805,-69.31632524664778" stroke="#0d6d4d" stroke-width="0.1" fill="none" />
<path d="M-244.93651678613054,-5.576983474745718 L-217.5318785085819,-112.71593424413233" stroke="#0d6d4d" stroke-width="0.1" fill="none" />
<path d="M-244.87557805954927,-7.807129434151027 L-192.14339462563768,-152.00630217769415" stroke="#0d6d4d" stroke-width="0.1" fill="none" />
<path d="M-244.79433428459467,-10.036628027485476 L-159.75001358549991,-185.7550353541798" stroke="#0d6d4d" stroke-width="0.1" fill="none" />
<path d="M-244.69279219798918,-12.265294385040143 L-121.53268830722166,-212.73176930778277" stroke="#0d6d4d" stroke-width="0.1" fill="none" />
<path d="M-244.57096021958816,-14.492943706115625 L-78.88469298437595,-231.9530237198057" stroke="#0d6d4d" stroke-width="0.1" fill="none" />
<path d="M-244.4288484516821,-16.719391274344392 L-33.360829028580355,-242.71805677890103" stroke="#0d6d4d" stroke-width="0.1" fill="none" />
<path d="M-244.2664686781588,-18.9444524730083 L13.379257722066955,-244.63441185329285" stroke="#0d6d4d" stroke-width="0.1" fill="none" />
<path d="M-244.08383436352614,-21.167942800346573 L59.631582067114756,-237.63222512986945" stroke="#0d6d4d" stroke-width="0.1" fill="none" />
<path d="M-243.88096065179568,-23.389677884855494 L103.70994097080697,-221.96677261210004" stroke="#0d6d4d" stroke-width="0.1" fill="none" />
<path d="M-243.65786436522697,-25.609473500574985 L144.00738681165592,-198.20916362186213" stroke="#0d6d4d" stroke-width="0.1" fill="none" />
<path d="M-243.41456400293265,-27.827145582366295 L179.0548112481404,-167.22552008857025" stroke="#0d6d4d" stroke-width="0.1" fill="none" />
<path d="M-243.1510797393444,-30.04251024117296 L207.57450393127644,-130.14540067818186" stroke="#0d6d4d" stroke-width="0.1" fill="none" />
<path d="M-242.86743342254013,-32.255383779270545 L228.5267334948656,-88.3206209113516" stroke="#0d6d4d" stroke-width="0.1" fill="none" />
<path d="M-242.56364857243247,-34.46558270549737 L241.1476526383393,-43.275970549703935" stroke="#0d6d4d" stroke-width="0.1" fill="none" />
<path d="M-242.2397503788183,-36.67292375047018 L244.9771454113079,3.34637507265796" stroke="#0d6d4d" stroke-width="0.1" fill="none" />
<path d="M-241.89576569929008,-38.87722388178148 L239.87560148216912,49.846723197895244" stroke="#0d6d4d" stroke-width="0.1" fill="none" />
<path d="M-241.53172305700892,-41.07830031917527 L226.0290058577776,94.52982868356816" stroke="#0d6d4d" stroke-width="0.1" fill="none" />
<path d="M-241.1476526383393,-43.27597054970398 L203.94215850024025,135.76669689678278" stroke="#0d6d4d" stroke-width="0.1" fill="none" />
<path d="M-240.74358629034626,-45.470052342862054 L174.4202710306363,172.05397133922654" stroke="#0d6d4d" stroke-width="0.1" fill="none" />
<path d="M-240.31955751815417,-47.66036376569728 L138.53961144149145,202.0687409314973" stroke="#0d6d4d" stroke-width="0.1" fill="none" />
<path d="M-239.87560148216915,-49.84672319789515 L97.60826701232914,224.716768868836" stroke="#0d6d4d" stroke-width="0.1" fill="none" />
<path d="M-239.41175499516288,-52.02894934684057 L53.118455879456334,239.1723847875884" stroke="#0d6d4d" stroke-width="0.1" fill="none" />
<path d="M-238.92805651922075,-54.20686126264879 L6.6921258185740875,244.90858590916812" stroke="#0d6d4d" stroke-width="0.1" fill="none" />
<path d="M-238.42454616255202,-56.38027835317157 L-39.97817647571991,241.71624977579847" stroke="#0d6d4d" stroke-width="0.1" fill="none" />
<path d="M-237.9012656761644,-58.54902039897027 L-85.19100990781224,229.711758146785" stroke="#0d6d4d" stroke-width="0.1" fill="none" />
<path d="M-237.35825845040205,-60.71290756826054 L-127.29806775868114,209.33275411388976" stroke="#0d6d4d" stroke-width="0.1" fill="none" />
<path d="M-236.79556951134748,-62.87176043182347 L-164.76426936415913,181.32218711700676" stroke="#0d6d4d" stroke-width="0.1" fill="none" />
<path d="M-236.21324551708804,-65.02539997788472 L-196.2237239548632,146.7012275248086" stroke="#0d6d4d" stroke-width="0.1" fill="none" />
<path d="M-235.6113347538472,-67.17364762695685 L-220.52952640580241,106.73203822298387" stroke="#0d6d4d" stroke-width="0.1" fill="none" />
<path d="M-234.9898871319805,-69.31632524664778 L-236.79556951134745,62.87176043182353" stroke="#0d6d4d" stroke-width="0.1" fill="none" />
<path d="M-234.348954181837,-71.45325516643213 L-244.4288484516821,16.71939127434448" stroke="#0d6d4d" stroke-width="0.1" fill="none" />
<path d="M-233.68858904948658,-73.58426019238209 L-243.1510797393444,-30.04251024117296" stroke="#0d6d4d" stroke-width="0.1" fill="none" />
<path d="M-233.00884649231264,-75.70916362186207 L-233.00884649231264,-75.70916362186207" stroke="#0d6d4d" stroke-width="0.1" fill="none" />
<path d="M-232.30978287447226,-77.8277892581792 L-214.3719001713548,-118.6157174109852" stroke="#0d6d4d" stroke-width="0.1" fill="none" />
<path d="M-231.59145616222185,-79.9399614251951 L-187.91968069454228,-157.19794403127943" stroke="#0d6d4d" stroke-width="0.1" fill="none" />
<path d="M-230.85392591911102,-82.04550498189158 L-154.61654635988302,-190.0492662225828" stroke="#0d6d4d" stroke-width="0.1" fill="none" />
<path d="M-230.0972533010435,-84.14424533689409 L-115.6766166091665,-215.97203608304457" stroke="#0d6d4d" stroke-width="0.1" fill="none" />
<path d="M-229.32150105120607,-86.23600846294835 L-72.51950934673776,-234.02119725381377" stroke="#0d6d4d" stroke-width="0.1" fill="none" />
<path d="M-228.5267334948656,-88.3206209113516 L-26.718586480583614,-243.53873847188987" stroke="#0d6d4d" stroke-width="0.1" fill="none" />
<path d="M-227.7130165340358,-90.39790982633359 L20.056405522044212,-244.17768243132974" stroke="#0d6d4d" stroke-width="0.1" fill="none" />
<path d="M-226.8804176420123,-92.46770295939048 L66.10020893347095,-235.91473540021084" stroke="#0d6d4d" stroke-width="0.1" fill="none" />
<path d="M-226.02900585777758,-94.52982868356818 L109.73422268468006,-219.05113643117457" stroke="#0d6d4d" stroke-width="0.1" fill="none" />
<path d="M-225.15885178027676,-96.58411600769226 L149.36769847293493,-194.2016752062103" stroke="#0d6d4d" stroke-width="0.1" fill="none" />
<path d="M-224.270027562563,-98.63039459054815 L183.55573405520107,-162.2722788878504" stroke="#0d6d4d" stroke-width="0.1" fill="none" />
<path d="M-223.36260690581517,-100.66849475500413 L211.05194948838,-124.42698508424246" stroke="#0d6d4d" stroke-width="0.1" fill="none" />
<path d="M-222.43666505322585,-102.69824750208261 L230.85392591911102,-82.04550498189164" stroke="#0d6d4d" stroke-width="0.1" fill="none" />
<path d="M-221.49227878376286,-104.71948452497206 L242.23975037881826,-36.67292375047035" stroke="#0d6d4d" stroke-width="0.1" fill="none" />
<path d="M-220.52952640580247,-106.73203822298379 L244.79433428459467,10.036628027485506" stroke="#0d6d4d" stroke-width="0.1" fill="none" />
<path d="M-219.54848775063599,-108.73574171544901 L238.424546162552,56.38027835317171" stroke="#0d6d4d" stroke-width="0.1" fill="none" />
<path d="M-218.5492441658501,-110.73042885555732 L223.36260690581508,100.6684947550043" stroke="#0d6d4d" stroke-width="0.1" fill="none" />
<path d="M-217.5318785085819,-112.71593424413233 L200.15762378755832,141.2866789181424" stroke="#0d6d4d" stroke-width="0.1" fill="none" />
<path d="M-216.49647513864824,-114.69209324334727 L169.65557187028378,176.75402946854413" stroke="#0d6d4d" stroke-width="0.1" fill="none" />
<path d="M-215.44311991155018,-116.65874199037721 L132.96845262133417,205.77752697388507" stroke="#0d6d4d" stroke-width="0.1" fill="none" />
<path d="M-214.3719001713548,-118.6157174109852 L91.43375410702195,227.29907305111618" stroke="#0d6d4d" stroke-width="0.1" fill="none" />
<path d="M-213.28290474345144,-120.56285723304595 L46.565690709343826,240.53406504851185" stroke="#0d6d4d" stroke-width="0.1" fill="none" />
<path d="M-212.17622392718758,-122.49999999999983 L3.0003846579110155e-14,245.0" stroke="#0d6d4d" stroke-width="0.1" fill="none" />
<path d="M-211.05194948838005,-124.42698508424236 L-46.56569070934377,240.53406504851188" stroke="#0d6d4d" stroke-width="0.1" fill="none" />
<path d="M-209.91017465170682,-126.34365270044215 L-91.4337541070219,227.2990730511162" stroke="#0d6d4d" stroke-width="0.1" fill="none" />
<path d="M-208.75099409297616,-128.24984391879093 L-132.96845262133405,205.77752697388516" stroke="#0d6d4d" stroke-width="0.1" fill="none" />
<path d="M-207.5745039312765,-130.14540067818174 L-169.65557187028384,176.7540294685441" stroke="#0d6d4d" stroke-width="0.1" fill="none" />
<path d="M-206.38080172100587,-132.03016579931597 L-200.15762378755826,141.28667891814248" stroke="#0d6d4d" stroke-width="0.1" fill="none" />
<path d="M-205.1699864437831,-133.90398299773557 L-223.3626069058151,100.6684947550042" stroke="#0d6d4d" stroke-width="0.1" fill="none" />
<path d="M-203.94215850024025,-135.76669689678275 L-238.424546162552,56.38027835317166" stroke="#0d6d4d" stroke-width="0.1" fill="none" />
<path d="M-202.6974197016969,-137.61815304048423 L-244.79433428459467,10.036628027485564" stroke="#0d6d4d" stroke-width="0.1" fill="none" />
<path d="M-201.43587326171874,-139.45819790635755 L-242.2397503788183,-36.67292375047018" stroke="#0d6d4d" stroke-width="0.1" fill="none" />
<path d="M-200.15762378755835,-141.28667891814237 L-230.85392591911102,-82.04550498189158" stroke="#0d6d4d" stroke-width="0.1" fill="none" />
<path d="M-198.86277727148192,-143.10344445845104 L-211.05194948838005,-124.42698508424236" stroke="#0d6d4d" stroke-width="0.1" fill="none" />
<path d="M-197.5514410819796,-144.9083438813416 L-183.55573405520124,-162.2722788878502" stroke="#0d6d4d" stroke-width="0.1" fill="none" />
<path d="M-196.22372395486326,-146.7012275248085 L-149.36769847293502,-194.20167520621024" stroke="#0d6d4d" stroke-width="0.1" fill="none" />
<path d="M-194.87973598424972,-148.48194672319303 L-109.73422268468022,-219.05113643117448" stroke="#0d6d4d" stroke-width="0.1" fill="none" />
<path d="M-193.51958861343195,-150.2503538195104 L-66.10020893347118,-235.91473540021076" stroke="#0d6d4d" stroke-width="0.1" fill="none" />
<path d="M-192.14339462563768,-152.00630217769415 L-20.056405522044326,-244.1776824313297" stroke="#0d6d4d" stroke-width="0.1" fill="none" />
<path d="M-190.75126813467836,-153.749646194754 L26.71858648058348,-243.53873847188987" stroke="#0d6d4d" stroke-width="0.1" fill="none" />
<path d="M-189.34332457548624,-155.48024131284998 L72.51950934673773,-234.02119725381377" stroke="#0d6d4d" stroke-width="0.1" fill="none" />
<path d="M-187.91968069454228,-157.19794403127943 L115.67661660916653,-215.97203608304457" stroke="#0d6d4d" stroke-width="0.1" fill="none" />
<path d="M-186.48045454019646,-158.90261191837507 L154.61654635988296,-190.04926622258284" stroke="#0d6d4d" stroke-width="0.1" fill="none" />
<path d="M-185.02576545287806,-160.5941036233166 L187.91968069454225,-157.19794403127946" stroke="#0d6d4d" stroke-width="0.1" fill="none" />
<path d="M-183.55573405520124,-162.2722788878502 L214.3719001713547,-118.61571741098535" stroke="#0d6d4d" stroke-width="0.1" fill="none" />
<path d="M-182.07048224196168,-163.93699855792016 L233.0088464923126,-75.70916362186213" stroke="#0d6d4d" stroke-width="0.1" fill="none" />
<path d="M-180.57013317003032,-165.58812459520618 L243.15107973934437,-30.04251024117312" stroke="#0d6d4d" stroke-width="0.1" fill="none" />
<path d="M-179.0548112481404,-167.22552008857025 L244.4288484516821,16.719391274344368" stroke="#0d6d4d" stroke-width="0.1" fill="none" />
<path d="M-177.52464212657202,-168.84904926540906 L236.79556951134745,62.87176043182353" stroke="#0d6d4d" stroke-width="0.1" fill="none" />
<path d="M-175.97975268673244,-170.45857750291265 L220.5295264058025,106.73203822298372" stroke="#0d6d4d" stroke-width="0.1" fill="none" />
<path d="M-174.42027103063623,-172.0539713392266 L196.22372395486326,146.7012275248085" stroke="#0d6d4d" stroke-width="0.1" fill="none" />
<path d="M-172.84632647028226,-173.63509848451898 L164.7642693641592,181.32218711700673" stroke="#0d6d4d" stroke-width="0.1" fill="none" />
<path d="M-171.25804951693112,-175.20182783195034 L127.2980677586812,209.3327541138897" stroke="#0d6d4d" stroke-width="0.1" fill="none" />
<path d="M-169.6555718702839,-176.75402946854405 L85.1910099078123,229.71175814678497" stroke="#0d6d4d" stroke-width="0.1" fill="none" />
<path d="M-168.03902640756058,-178.29157468595972 L39.97817647571986,241.71624977579847" stroke="#0d6d4d" stroke-width="0.1" fill="none" />
<path d="M-166.4085471724831,-179.81433599116468 L-6.69212581857392,244.90858590916812" stroke="#0d6d4d" stroke-width="0.1" fill="none" />
<path d="M-164.76426936415928,-181.32218711700662 L-53.11845587945628,239.1723847875884" stroke="#0d6d4d" stroke-width="0.1" fill="none" />
<path d="M-163.106329325873,-182.8150030326829 L-97.6082670123291,224.71676886883603" stroke="#0d6d4d" stroke-width="0.1" fill="none" />
<path d="M-161.43486453377827,-184.29265995410847 L-138.53961144149147,202.06874093149727" stroke="#0d6d4d" stroke-width="0.1" fill="none" />
<path d="M-159.75001358549991,-185.7550353541798 L-174.42027103063623,172.0539713392266" stroke="#0d6d4d" stroke-width="0.1" fill="none" />
<path d="M-158.0519161886405,-187.20200797293538 L-203.9421585002402,135.76669689678286" stroke="#0d6d4d" stroke-width="0.1" fill="none" />
<path d="M-156.3407131491966,-188.63345782760973 L-226.02900585777755,94.52982868356825" stroke="#0d6d4d" stroke-width="0.1" fill="none" />
<path d="M-154.61654635988302,-190.0492662225828 L-239.87560148216912,49.84672319789525" stroke="#0d6d4d" stroke-width="0.1" fill="none" />
<path d="M-152.87955878836615,-191.44931575922254 L-244.97714541130787,3.3463750726580743" stroke="#0d6d4d" stroke-width="0.1" fill="none" />
<path d="M-151.1298944654107,-192.8334903456187 L-241.1476526383393,-43.27597054970398" stroke="#0d6d4d" stroke-width="0.1" fill="none" />
<path d="M-149.36769847293502,-194.20167520621024 L-228.5267334948656,-88.3206209113516" stroke="#0d6d4d" stroke-width="0.1" fill="none" />
<path d="M-147.59311693198228,-195.5537568913014 L-207.5745039312765,-130.14540067818174" stroke="#0d6d4d" stroke-width="0.1" fill="none" />
<path d="M-145.80629699060358,-196.88962328646957 L-179.0548112481404,-167.22552008857025" stroke="#0d6d4d" stroke-width="0.1" fill="none" />
<path d="M-144.00738681165595,-198.2091636218621 L-144.00738681165595,-198.2091636218621" stroke="#0d6d4d" stroke-width="0.1" fill="none" />
<path d="M-142.19653556051773,-199.5122684813804 L-103.7099409708071,-221.9667726121" stroke="#0d6d4d" stroke-width="0.1" fill="none" />
<path d="M-140.37389339271925,-200.79882981175336 L-59.631582067114984,-237.6322251298694" stroke="#0d6d4d" stroke-width="0.1" fill="none" />
<path d="M-138.53961144149147,-202.06874093149727 L-13.37925772206705,-244.63441185329285" stroke="#0d6d4d" stroke-width="0.1" fill="none" />
<path d="M-136.69384180523514,-203.32189653976118 L33.36082902858042,-242.71805677890103" stroke="#0d6d4d" stroke-width="0.1" fill="none" />
<path d="M-134.83673753490814,-204.5581927250588 L78.88469298437589,-231.9530237198057" stroke="#0d6d4d" stroke-width="0.1" fill="none" />
<path d="M-132.96845262133414,-205.77752697388513 L121.53268830722169,-212.73176930778274" stroke="#0d6d4d" stroke-width="0.1" fill="none" />
<path d="M-131.08914198243482,-206.97979817921615 L159.75001358549983,-185.75503535417988" stroke="#0d6d4d" stroke-width="0.1" fill="none" />
<path d="M-129.1989614503828,-208.16490664889338 L192.14339462563765,-152.00630217769415" stroke="#0d6d4d" stroke-width="0.1" fill="none" />
<path d="M-127.29806775868123,-209.3327541138897 L217.53187850858194,-112.71593424413227" stroke="#0d6d4d" stroke-width="0.1" fill="none" />
<path d="M-125.3866185291669,-210.48324373645798 L234.98988713198045,-69.31632524664789" stroke="#0d6d4d" stroke-width="0.1" fill="none" />
<path d="M-123.46477225893983,-211.61628011816134 L243.88096065179568,-23.389677884855498" stroke="#0d6d4d" stroke-width="0.1" fill="none" />
<path d="M-121.53268830722166,-212.73176930778277 L243.88096065179568,23.38967788485547" stroke="#0d6d4d" stroke-width="0.1" fill="none" />
<path d="M-119.5905268821412,-213.829618809116 L234.98988713198048,69.3163252466478" stroke="#0d6d4d" stroke-width="0.1" fill="none" />
<path d="M-117.63844902744934,-214.90973758863558 L217.53187850858194,112.71593424413226" stroke="#0d6d4d" stroke-width="0.1" fill="none" />
<path d="M-115.6766166091665,-215.97203608304457 L192.14339462563765,152.00630217769415" stroke="#0d6d4d" stroke-width="0.1" fill="none" />
<path d="M-113.70519230216009,-217.01642620670168 L159.7500135854999,185.7550353541798" stroke="#0d6d4d" stroke-width="0.1" fill="none" />
<path d="M-111.72433957665505,-218.0428213589254 L121.53268830722172,212.7317693077827" stroke="#0d6d4d" stroke-width="0.1" fill="none" />
<path d="M-109.73422268468022,-219.05113643117448 L78.88469298437592,231.9530237198057" stroke="#0d6d4d" stroke-width="0.1" fill="none" />
<path d="M-107.73500664644699,-220.04128781410552 L33.36082902858053,242.718056778901" stroke="#0d6d4d" stroke-width="0.1" fill="none" />
<path d="M-105.72685723666734,-221.01319340450553 L-13.379257722066962,244.63441185329285" stroke="#0d6d4d" stroke-width="0.1" fill="none" />
<path d="M-103.7099409708071,-221.9667726121 L-59.63158206711469,237.63222512986945" stroke="#0d6d4d" stroke-width="0.1" fill="none" />
<path d="M-101.68442509127796,-222.90194636623585 L-103.70994097080693,221.96677261210007" stroke="#0d6d4d" stroke-width="0.1" fill="none" />
<path d="M-99.65047755357104,-223.81863712243725 L-144.0073868116558,198.20916362186222" stroke="#0d6d4d" stroke-width="0.1" fill="none" />
<path d="M-97.60826701232907,-224.71676886883603 L-179.0548112481404,167.22552008857025" stroke="#0d6d4d" stroke-width="0.1" fill="none" />
<path d="M-95.55796280736213,-225.5962671324745 L-207.57450393127644,130.14540067818183" stroke="#0d6d4d" stroke-width="0.1" fill="none" />
<path d="M-93.49973494960514,-226.45705898548093 L-228.52673349486557,88.32062091135167" stroke="#0d6d4d" stroke-width="0.1" fill="none" />
<path d="M-91.43375410702198,-227.29907305111618 L-241.14765263833928,43.27597054970408" stroke="#0d6d4d" stroke-width="0.1" fill="none" />
<path d="M-89.36019159045215,-228.1222395096929 L-244.9771454113079,-3.3463750726579846" stroke="#0d6d4d" stroke-width="0.1" fill="none" />
<path d="M-87.27921933940726,-228.92649010436438 L-239.87560148216915,-49.84672319789515" stroke="#0d6d4d" stroke-width="0.1" fill="none" />
<path d="M-85.19100990781233,-229.71175814678497 L-226.02900585777758,-94.52982868356818" stroke="#0d6d4d" stroke-width="0.1" fill="none" />
<path d="M-83.09573644969906,-230.47797852263923 L-203.94215850024025,-135.76669689678275" stroke="#0d6d4d" stroke-width="0.1" fill="none" />
<path d="M-80.99357270484631,-231.22508769704203 L-174.42027103063623,-172.0539713392266" stroke="#0d6d4d" stroke-width="0.1" fill="none" />
<path d="M-78.88469298437595,-231.9530237198057 L-138.53961144149147,-202.06874093149727" stroke="#0d6d4d" stroke-width="0.1" fill="none" />
<path d="M-76.76927215629614,-232.66172623057824 L-97.60826701232907,-224.71676886883603" stroke="#0d6d4d" stroke-width="0.1" fill="none" />
<path d="M-74.6474856310038,-233.3511364638473 L-53.11845587945626,-239.1723847875884" stroke="#0d6d4d" stroke-width="0.1" fill="none" />
<path d="M-72.51950934673776,-234.02119725381377 L-6.692125818574119,-244.90858590916812" stroke="#0d6d4d" stroke-width="0.1" fill="none" />
<path d="M-70.3855197549914,-234.67185303913146 L39.97817647571983,-241.7162497757985" stroke="#0d6d4d" stroke-width="0.1" fill="none" />
<path d="M-68.24569380588072,-235.30304986751443 L85.19100990781224,-229.711758146785" stroke="#0d6d4d" stroke-width="0.1" fill="none" />
<path d="M-66.10020893347118,-235.91473540021076 L127.29806775868123,-209.3327541138897" stroke="#0d6d4d" stroke-width="0.1" fill="none" />
<path d="M-63.9492430410652,-236.5068589163426 L164.7642693641592,-181.32218711700673" stroke="#0d6d4d" stroke-width="0.1" fill="none" />
<path d="M-61.79297448645186,-237.07937131711125 L196.2237239548632,-146.70122752480856" stroke="#0d6d4d" stroke-width="0.1" fill="none" />
<path d="M-59.631582067114984,-237.6322251298694 L220.5295264058025,-106.73203822298375" stroke="#0d6d4d" stroke-width="0.1" fill="none" />
<path d="M-57.4652450054085,-238.165374512057 L236.79556951134745,-62.87176043182356" stroke="#0d6d4d" stroke-width="0.1" fill="none" />
<path d="M-55.294142933696676,-238.67877525500236 L244.4288484516821,-16.71939127434445" stroke="#0d6d4d" stroke-width="0.1" fill="none" />
<path d="M-53.11845587945626,-239.1723847875884 L243.15107973934437,30.042510241173094" stroke="#0d6d4d" stroke-width="0.1" fill="none" />
<path d="M-50.93836425035117,-239.64616217978238 L233.00884649231264,75.70916362186206" stroke="#0d6d4d" stroke-width="0.1" fill="none" />
<path d="M-48.75404881927117,-240.10006814602974 L214.37190017135472,118.61571741098531" stroke="#0d6d4d" stroke-width="0.1" fill="none" />
<path d="M-46.565690709343755,-240.53406504851188 L187.91968069454234,157.19794403127938" stroke="#0d6d4d" stroke-width="0.1" fill="none" />
<path d="M-44.37347137891477,-240.9481169002668 L154.616546359883,190.04926622258282" stroke="#0d6d4d" stroke-width="0.1" fill="none" />
<path d="M-42.177572606501485,-241.34218936817345 L115.67661660916657,215.97203608304454" stroke="#0d6d4d" stroke-width="0.1" fill="none" />
<path d="M-39.97817647571979,-241.7162497757985 L72.51950934673775,234.02119725381377" stroke="#0d6d4d" stroke-width="0.1" fill="none" />
<path d="M-37.77546536018728,-242.07026710610558 L26.718586480583475,243.53873847188987" stroke="#0d6d4d" stroke-width="0.1" fill="none" />
<path d="M-35.56962190839838,-242.40421200402767 L-20.056405522044233,244.17768243132974" stroke="#0d6d4d" stroke-width="0.1" fill="none" />
<path d="M-33.360829028580355,-242.71805677890103 L-66.1002089334709,235.91473540021084" stroke="#0d6d4d" stroke-width="0.1" fill="none" />
<path d="M-31.149269873527935,-243.01177540676113 L-109.73422268468015,219.0511364311745" stroke="#0d6d4d" stroke-width="0.1" fill="none" />
<path d="M-28.935127825413495,-243.28534353250092 L-149.36769847293493,194.2016752062103" stroke="#0d6d4d" stroke-width="0.1" fill="none" />
<path d="M-26.718586480583614,-243.53873847188987 L-183.5557340552011,162.27227888785038" stroke="#0d6d4d" stroke-width="0.1" fill="none" />
<path d="M-24.499829634333352,-243.77193921345548 L-211.05194948838,124.42698508424246" stroke="#0d6d4d" stroke-width="0.1" fill="none" />
<path d="M-22.279041265667484,-243.98492642022515 L-230.853925919111,82.04550498189167" stroke="#0d6d4d" stroke-width="0.1" fill="none" />
<path d="M-20.056405522044326,-244.1776824313297 L-242.23975037881826,36.672923750470495" stroke="#0d6d4d" stroke-width="0.1" fill="none" />
<path d="M-17.832106704105858,-244.350191263468 L-244.79433428459467,-10.036628027485476" stroke="#0d6d4d" stroke-width="0.1" fill="none" />
<path d="M-15.606329250395694,-244.5024386122319 L-238.42454616255202,-56.38027835317157" stroke="#0d6d4d" stroke-width="0.1" fill="none" />
<path d="M-13.37925772206705,-244.63441185329285 L-223.36260690581517,-100.66849475500413" stroke="#0d6d4d" stroke-width="0.1" fill="none" />
<path d="M-11.151076787576317,-244.74610004344825 L-200.15762378755835,-141.28667891814237" stroke="#0d6d4d" stroke-width="0.1" fill="none" />
<path d="M-8.921971207371676,-244.83749392152916 L-169.6555718702839,-176.75402946854405" stroke="#0d6d4d" stroke-width="0.1" fill="none" />
<path d="M-6.692125818574119,-244.90858590916812 L-132.96845262133414,-205.77752697388513" stroke="#0d6d4d" stroke-width="0.1" fill="none" />
<path d="M-4.461725519647927,-244.9593701114275 L-91.43375410702198,-227.29907305111618" stroke="#0d6d4d" stroke-width="0.1" fill="none" />
<path d="M-2.2309552550715495,-244.98984231728846 L-46.565690709343755,-240.53406504851188" stroke="#0d6d4d" stroke-width="0.1" fill="none" />
</svg>