<?xml version="1.0" encoding="UTF-8"?>
<svg xmlns="http://www.w3.org/2000/svg" xmlns:xlink="http://www.w3.org/1999/xlink"
     width="500.0" height="500" viewBox="-250.0 -250.0 500 500">
<defs>
</defs>
<circle cx="0" cy="0" r="245.0" fill="white" stroke-width="2" stroke="black" />
<path d="M0.0,-245.0 L0.0,-245.0" stroke="#4c0618" stroke-width="0.1" fill="none" />
<path d="M50.93836425035103,-239.64616217978238 L99.65047755357104,-223.81863712243722" stroke="#4c0618" stroke-width="0.1" fill="none" />
<path d="M99.65047755357104,-223.81863712243722 L182.07048224196157,-163.9369985579203" stroke="#4c0618" stroke-width="0.1" fill="none" />
<path d="M144.00738681165592,-198.20916362186213 L233.0088464923126,-75.70916362186213" stroke="#4c0618" stroke-width="0.1" fill="none" />
<path d="M182.07048224196157,-163.9369985579203 L243.65786436522697,25.609473500575067" stroke="#4c0618" stroke-width="0.1" fill="none" />
<path d="M212.17622392718746,-122.50000000000003 L212.17622392718752,122.49999999999994" stroke="#4c0618" stroke-width="0.1" fill="none" />
<path d="M233.0088464923126,-75.70916362186213 L144.00738681165595,198.2091636218621" stroke="#4c0618" stroke-width="0.1" fill="none" />
<path d="M243.65786436522694,-25.609473500575092 L50.93836425035103,239.64616217978238" stroke="#4c0618" stroke-width="0.1" fill="none" />
<path d="M243.65786436522697,25.609473500575067 L-50.93836425035097,239.64616217978238" stroke="#4c0618" stroke-width="0.1" fill="none" />
<path d="M233.00884649231264,75.7091636218621 L-144.0073868116559,198.20916362186213" stroke="#4c0618" stroke-width="0.1" fill="none" />
<path d="M212.17622392718752,122.49999999999994 L-212.1762239271874,122.50000000000011" stroke="#4c0618" stroke-width="0.1" fill="none" />
<path d="M182.07048224196166,163.9369985579202 L-243.65786436522694,25.609473500575287" stroke="#4c0618" stroke-width="0.1" fill="none" />
<path d="M144.00738681165595,198.2091636218621 L-233.00884649231264,-75.70916362186207" stroke="#4c0618" stroke-width="0.1" fill="none" />
<path d="M99.65047755357101,223.81863712243725 L-182.07048224196154,-163.93699855792033" stroke="#4c0618" stroke-width="0.1" fill="none" />
<path d="M50.93836425035103,239.64616217978238 L-99.65047755357104,-223.81863712243725" stroke="#4c0618" stroke-width="0.1" fill="none" />
<path d="M1.388057029923755e-13,245.0 L0.0,-245.0" stroke="#4c0618" stroke-width="0.1" fill="none" />
<path d="M-50.93836425035097,239.64616217978238 L99.65047755357104,-223.81863712243722" stroke="#4c0618" stroke-width="0.1" fill="none" />
<path d="M-99.65047755357105,223.81863712243722 L182.07048224196157,-163.9369985579203" stroke="#4c0618" stroke-width="0.1" fill="none" />
<path d="M-144.0073868116559,198.20916362186213 L233.0088464923126,-75.70916362186213" stroke="#4c0618" stroke-width="0.1" fill="none" />
<path d="M-182.07048224196154,163.93699855792033 L243.65786436522697,25.609473500575067" stroke="#4c0618" stroke-width="0.1" fill="none" />
<path d="M-212.1762239271874,122.50000000000011 L212.17622392718752,122.49999999999994" stroke="#4c0618" stroke-width="0.1" fill="none" />
<path d="M-233.0088464923126,75.70916362186215 L144.00738681165595,198.2091636218621" stroke="#4c0618" stroke-width="0.1" fill="none" />
<path d="M-243.65786436522694,25.609473500575287 L50.93836425035103,239.64616217978238" stroke="#4c0618" stroke-width="0.1" fill="none" />
<path d="M-243.65786436522697,-25.609473500574985 L-50.93836425035097,239.64616217978238" stroke="#4c0618" stroke-width="0.1" fill="none" />
<path d="M-233.00884649231264,-75.70916362186207 L-144.0073868116559,198.20916362186213" stroke="#4c0618" stroke-width="0.1" fill="none" />
<path d="M-212.17622392718746,-122.5 L-212.1762239271874,122.50000000000011" stroke="#4c0618" stroke-width="0.1" fill="none" />
<path d="M-182.07048224196154,-163.93699855792033 L-243.65786436522694,25.609473500575287" stroke="#4c0618" stroke-width="0.1" fill="none" />
<path d="M-144.00738681165595,-198.2091636218621 L-233.00884649231264,-75.70916362186207" stroke="#4c0618" stroke-width="0.1" fill="none" />
<path d="M-99.65047755357104,-223.81863712243725 L-182.07048224196154,-163.93699855792033" stroke="#4c0618" stroke-width="0.1" fill="none" />
<path d="M-50.93836425035095,-239.64616217978238 L-99.65047755357104,-223.81863712243725" stroke="#4c0618" stroke-width="0.1" fill="none" />
</svg>