<?xml version="1.0" encoding="UTF-8"?>
<svg xmlns="http://www.w3.org/2000/svg" xmlns:xlink="http://www.w3.org/1999/xlink"
     width="500.0" height="500" viewBox="-250.0 -250.0 500 500">
<defs>
</defs>
<circle cx="0" cy="0" r="245.0" fill="white" stroke-width="2" stroke="black" />
<path d="M0.0,-245.0 L0.0,-245.0" stroke="#0d6d4d" stroke-width="0.1" fill="none" />
<path d="M2.2737936501125864,-244.98944847163665 L47.44862010963388,-240.36145375182693" stroke="#0d6d4d" stroke-width="0.1" fill="none" />
<path d="M4.547391447178711,-244.9577947954017 L93.10056578016138,-226.6214567321767" stroke="#0d6d4d" stroke-width="0.1" fill="none" />
<path d="M6.820597555021699,-244.90504169778217 L135.22719487842474,-204.3002833216649" stroke="#0d6d4d" stroke-width="0.1" fill="none" />
<path d="M9.093216171203,-244.83119372266225 L172.23335379338786,-174.24314001154158" stroke="#0d6d4d" stroke-width="0.1" fill="none" />
<path d="M11.36505154388761,-244.73625723093173 L202.7177790181585,-137.5881610820679" stroke="#0d6d4d" stroke-width="0.1" fill="none" />
<path d="M13.635907988705146,-244.62024039993824 L225.52615695066257,-95.72331236989825" stroke="#0d6d4d" stroke-width="0.1" fill="none" />
<path d="M15.905589905605108,-244.48315322278285 L239.7948327673431,-50.233834992780906" stroke="#0d6d4d" stroke-width="0.1" fill="none" />
<path d="M18.17390179570487,-244.32500750745936 L244.98351330349928,-2.8422191108708885" stroke="#0d6d4d" stroke-width="0.1" fill="none" />
<path d="M20.440648278128954,-244.1458168758372 L240.89572562334357,44.65701934077967" stroke="#0d6d4d" stroke-width="0.1" fill="none" />
<path d="M22.70563410683817,-243.94559676248798 L227.6862566020362,90.46528922493826" stroke="#0d6d4d" stroke-width="0.1" fill="none" />
<path d="M24.96866418744708,-243.7243644133563 L205.8552918148354,132.84802908522568" stroke="#0d6d4d" stroke-width="0.1" fill="none" />
<path d="M27.229543594028495,-243.48213888427404 L176.2294756683345,170.20038750150925" stroke="#0d6d4d" stroke-width="0.1" fill="none" />
<path d="M29.48807758590336,-243.21894103931902 L139.93060994486325,201.1079918860972" stroke="#0d6d4d" stroke-width="0.1" fill="none" />
<path d="M31.744071624414712,-242.93479354901805 L98.33317601107107,224.40050466871887" stroke="#0d6d4d" stroke-width="0.1" fill="none" />
<path d="M33.99733138968432,-242.62972088839402 L53.01228914130274,239.19593892873456" stroke="#0d6d4d" stroke-width="0.1" fill="none" />
<path d="M36.24766279735039,-242.30374933485777 L5.684055700893864,244.93405543286366" stroke="#0d6d4d" stroke-width="0.1" fill="none" />
<path d="M38.49487201528492,-241.9569069659447 L-41.85940839458257,241.39757647676487" stroke="#0d6d4d" stroke-width="0.1" fill="none" />
<path d="M40.73876548028954,-241.5892236568965 L-87.81783737365556,228.72041325385496" stroke="#0d6d4d" stroke-width="0.1" fill="none" />
<path d="M42.97914991476801,-241.2007310780875 L-130.45098390315914,207.3825952164205" stroke="#0d6d4d" stroke-width="0.1" fill="none" />
<path d="M45.21583234337418,-240.79146269229705 L-168.1445147432385,178.19209343223076" stroke="#0d6d4d" stroke-width="0.1" fill="none" />
<path d="M47.44862010963388,-240.36145375182693 L-199.47113857912893,142.25422620768052" stroke="#0d6d4d" stroke-width="0.1" fill="none" />
<path d="M49.677320892539356,-239.9107412954653 L-223.24465138257037,100.92980545445742" stroke="#0d6d4d" stroke-width="0.1" fill="none" />
<path d="M51.90174272311496,-239.43936414529585 L-238.56485283829477,55.783608616176515" stroke="#0d6d4d" stroke-width="0.1" fill="none" />
<path d="M54.12169400095217,-238.9473629033543 L-244.85163304439448,8.525127300702792" stroke="#0d6d4d" stroke-width="0.1" fill="none" />
<path d="M56.336983510713274,-238.43477994813094 L-241.8669387703545,-39.05616378828825" stroke="#0d6d4d" stroke-width="0.1" fill="none" />
<path d="M58.547420438601584,-237.90165943092035 L-229.72378750537297,-85.15856653435546" stroke="#0d6d4d" stroke-width="0.1" fill="none" />
<path d="M60.752814388797134,-237.3480472720186 L-208.88198797386787,-128.0363819392165" stroke="#0d6d4d" stroke-width="0.1" fill="none" />
<path d="M62.95297539985658,-236.77399115676758 L-180.13072916377394,-166.06601220878133" stroke="#0d6d4d" stroke-width="0.1" fill="none" />
<path d="M65.14771396107528,-236.17954053144805 L-144.55869714597992,-197.8074393936104" stroke="#0d6d4d" stroke-width="0.1" fill="none" />
<path d="M67.33684102881097,-235.56474659902028 L-103.51285123196301,-222.05875265305235" stroke="#0d6d4d" stroke-width="0.1" fill="none" />
<path d="M69.52016804276697,-234.92966231471377 L-58.54742043860165,-237.90165943092035" stroke="#0d6d4d" stroke-width="0.1" fill="none" />
<path d="M71.69750694223376,-234.27434238146597 L-11.36505154388753,-244.73625723093173" stroke="#0d6d4d" stroke-width="0.1" fill="none" />
<path d="M73.86867018228763,-233.59884324521045 L36.24766279735039,-242.30374933485777" stroke="#0d6d4d" stroke-width="0.1" fill="none" />
<path d="M76.03347074994483,-232.90322309001496 L82.48783460574191,-230.69624431718816" stroke="#0d6d4d" stroke-width="0.1" fill="none" />
<path d="M78.19172218026992,-232.18754183306967 L125.60454816327317,-210.35326829098707" stroke="#0d6d4d" stroke-width="0.1" fill="none" />
<path d="M80.34323857243693,-231.45186111952628 L163.96515963397815,-182.04512195113622" stroke="#0d6d4d" stroke-width="0.1" fill="none" />
<path d="M82.48783460574191,-230.69624431718816 L196.11711823895834,-146.84371261190051" stroke="#0d6d4d" stroke-width="0.1" fill="none" />
<path d="M84.62532555556545,-229.92075651105222 L220.84296808467462,-106.08196570365472" stroke="#0d6d4d" stroke-width="0.1" fill="none" />
<path d="M86.75552730928405,-229.1254644977028 L237.2064479626802,-61.30335264019663" stroke="#0d6d4d" stroke-width="0.1" fill="none" />
<path d="M88.87825638212851,-228.3104367795582 L244.58794352036125,-14.20344621845605" stroke="#0d6d4d" stroke-width="0.1" fill="none" />
<path d="M90.99332993298846,-227.47574355897004 L242.70794938200373,33.43428340465401" stroke="#0d6d4d" stroke-width="0.1" fill="none" />
<path d="M93.10056578016138,-226.6214567321767 L231.63765281093055,79.80600102901289" stroke="#0d6d4d" stroke-width="0.1" fill="none" />
<path d="M95.19978241704469,-225.7476498831103 L211.79623815510837,123.1558098643528" stroke="#0d6d4d" stroke-width="0.1" fill="none" />
<path d="M97.29079902776998,-224.85439827705855 L183.93501414523274,161.84223976265602" stroke="#0d6d4d" stroke-width="0.1" fill="none" />
<path d="M99.37343550277745,-223.94177885418193 L149.10896507600188,194.40040260751428" stroke="#0d6d4d" stroke-width="0.1" fill="none" />
<path d="M101.44751245432963,-223.0098702228864 L108.63680310454846,219.5974613041407" stroke="#0d6d4d" stroke-width="0.1" fill="none" />
<path d="M103.51285123196301,-222.05875265305235 L64.05103431306154,236.4793119988026" stroke="#0d6d4d" stroke-width="0.1" fill="none" />
<path d="M105.56927393787602,-221.0885080691208 L17.039929318272836,244.406711873525" stroke="#0d6d4d" stroke-width="0.1" fill="none" />
<path d="M107.61660344225224,-220.09922004303658 L-30.616404249645626,243.0794845124168" stroke="#0d6d4d" stroke-width="0.1" fill="none" />
<path d="M109.65466339851757,-219.09097378704996 L-77.11342673948467,232.5478862868767" stroke="#0d6d4d" stroke-width="0.1" fill="none" />
<path d="M111.68327825852961,-218.0638561463771 L-120.69049660657906,213.210703363732" stroke="#0d6d4d" stroke-width="0.1" fill="none" />
<path d="M113.70227328769877,-217.01795559171933 L-159.6975383085749,185.80015139439809" stroke="#0d6d4d" stroke-width="0.1" fill="none" />
<path d="M115.71147458003874,-215.9533622116429 L-192.65752354392808,151.35414966865227" stroke="#0d6d4d" stroke-width="0.1" fill="none" />
<path d="M117.71070907314606,-214.8701677048193 L-218.32239993832633,111.17701959114342" stroke="#0d6d4d" stroke-width="0.1" fill="none" />
<path d="M119.69980456310687,-213.76846537212643 L-235.72034940108315,66.79009565969548" stroke="#0d6d4d" stroke-width="0.1" fill="none" />
<path d="M121.67858971932937,-212.6483501086127 L-244.19258668153444,19.874119094472874" stroke="#0d6d4d" stroke-width="0.1" fill="none" />
<path d="M123.6468940993018,-211.50991839532264 L-243.41830472293836,-27.794404577373506" stroke="#0d6d4d" stroke-width="0.1" fill="none" />
<path d="M125.60454816327317,-210.35326829098707 L-233.42682224100162,-74.41047411801536" stroke="#0d6d4d" stroke-width="0.1" fill="none" />
<path d="M127.55138328885673,-209.17849942357643 L-214.5964735506653,-118.2089401848211" stroke="#0d6d4d" stroke-width="0.1" fill="none" />
<path d="M129.48723178555406,-207.9857129817195 L-187.6402826786178,-157.5313439169755" stroke="#0d6d4d" stroke-width="0.1" fill="none" />
<path d="M131.4119269091993,-206.77501170598745 L-153.57896422105992,-190.88871561406242" stroke="#0d6d4d" stroke-width="0.1" fill="none" />
<path d="M133.32530287632164,-205.54649988004442 L-113.70227328769883,-217.01795559171927" stroke="#0d6d4d" stroke-width="0.1" fill="none" />
<path d="M135.22719487842474,-204.3002833216649 L-69.52016804276712,-234.9296623147137" stroke="#0d6d4d" stroke-width="0.1" fill="none" />
<path d="M137.1174390961829,-203.0364693736191 L-22.705634106838385,-243.94559676248795" stroke="#0d6d4d" stroke-width="0.1" fill="none" />
<path d="M138.9958727135514,-201.7551668944273 L24.96866418744708,-243.7243644133563" stroke="#0d6d4d" stroke-width="0.1" fill="none" />
<path d="M140.8623339317907,-200.45648624898294 L71.69750694223376,-234.27434238146597" stroke="#0d6d4d" stroke-width="0.1" fill="none" />
<path d="M142.71666198340296,-199.14053929904657 L115.71147458003874,-215.9533622116429" stroke="#0d6d4d" stroke-width="0.1" fill="none" />
<path d="M144.55869714597983,-197.80743939361048 L155.34394812573095,-189.4551603433124" stroke="#0d6d4d" stroke-width="0.1" fill="none" />
<path d="M146.38828075595987,-196.4573013591357 L189.09421687342322,-155.78310930594108" stroke="#0d6d4d" stroke-width="0.1" fill="none" />
<path d="M148.2052552222954,-195.0902414896611 L215.68430382332417,-116.2122243322448" stroke="#0d6d4d" stroke-width="0.1" fill="none" />
<path d="M150.0094640400262,-193.70637753678656 L234.10735715453535,-72.24088403472669" stroke="#0d6d4d" stroke-width="0.1" fill="none" />
<path d="M151.80075180376033,-192.30582869953045 L243.66577535759242,-25.534093275135184" stroke="#0d6d4d" stroke-width="0.1" fill="none" />
<path d="M153.5789642210599,-190.88871561406242 L243.99762239254227,22.139563382920596" stroke="#0d6d4d" stroke-width="0.1" fill="none" />
<path d="M155.34394812573095,-189.4551603433124 L235.09033264453643,68.97489033758016" stroke="#0d6d4d" stroke-width="0.1" fill="none" />
<path d="M157.09555149101655,-188.0052863664567 L217.28118672942801,113.19843591433337" stroke="#0d6d4d" stroke-width="0.1" fill="none" />
<path d="M158.83362344269133,-186.53921856828214 L191.2445401326675,153.13564532611122" stroke="#0d6d4d" stroke-width="0.1" fill="none" />
<path d="M160.55801427205756,-185.05708322842918 L157.9662882778176,187.2742688351217" stroke="#0d6d4d" stroke-width="0.1" fill="none" />
<path d="M162.26857544883958,-183.55900801051484 L118.70653492232356,214.32162412303427" stroke="#0d6d4d" stroke-width="0.1" fill="none" />
<path d="M163.96515963397815,-182.04512195113622 L74.95187746725755,233.25354459071616" stroke="#0d6d4d" stroke-width="0.1" fill="none" />
<path d="M165.64762069232094,-180.5155554487562 L28.35911593040177,243.3531601266892" stroke="#0d6d4d" stroke-width="0.1" fill="none" />
<path d="M167.31581370521022,-178.9704402524713 L-19.307482919111223,244.23804188399527" stroke="#0d6d4d" stroke-width="0.1" fill="none" />
<path d="M168.9695949829652,-177.40990945066372 L-66.24299072816598,235.87468320993696" stroke="#0d6d4d" stroke-width="0.1" fill="none" />
<path d="M170.60882207725894,-175.8340974595377 L-110.67016240571148,218.57976839838918" stroke="#0d6d4d" stroke-width="0.1" fill="none" />
<path d="M172.23335379338786,-174.24314001154158 L-150.90673272316127,193.0081812225077" stroke="#0d6d4d" stroke-width="0.1" fill="none" />
<path d="M173.84305020243377,-172.6371741436765 L-185.42911643736971,160.12820731294158" stroke="#0d6d4d" stroke-width="0.1" fill="none" />
<path d="M175.43777265331659,-171.01633818569266 L-212.9300998874752,121.18486936045205" stroke="#0d6d4d" stroke-width="0.1" fill="none" />
<path d="M177.01738378473692,-169.3807717481744 L-232.36833953385707,77.6527834805561" stroke="#0d6d4d" stroke-width="0.1" fill="none" />
<path d="M178.58174753700774,-167.73061571051488 L-243.00779314318598,31.180321866179323" stroke="#0d6d4d" stroke-width="0.1" fill="none" />
<path d="M180.13072916377402,-166.06601220878127 L-244.44559053079132,-16.472803952354152" stroke="#0d6d4d" stroke-width="0.1" fill="none" />
<path d="M181.6641952436188,-164.38710462347208 L-236.627288515629,-63.50217578745838" stroke="#0d6d4d" stroke-width="0.1" fill="none" />
<path d="M183.18201369155562,-162.694037567167 L-219.8489324485521,-108.12699432256494" stroke="#0d6d4d" stroke-width="0.1" fill="none" />
<path d="M184.6840537704057,-160.9869568720705 L-194.74584625270722,-148.6575102957026" stroke="#0d6d4d" stroke-width="0.1" fill="none" />
<path d="M186.17018610205895,-159.26600957745106 L-162.2685754488395,-183.5590080105149" stroke="#0d6d4d" stroke-width="0.1" fill="none" />
<path d="M187.6402826786178,-157.5313439169755 L-123.64689409930195,-211.50991839532256" stroke="#0d6d4d" stroke-width="0.1" fill="none" />
<path d="M189.09421687342322,-155.78310930594108 L-80.34323857243695,-231.45186111952628" stroke="#0d6d4d" stroke-width="0.1" fill="none" />
<path d="M190.5318634519618,-154.0214563284057 L-33.997331389684405,-242.629720888394" stroke="#0d6d4d" stroke-width="0.1" fill="none" />
<path d="M191.9530985826528,-152.24653672421707 L13.635907988705146,-244.62024039993824" stroke="#0d6d4d" stroke-width="0.1" fill="none" />
<path d="M193.35779984751412,-150.45850337594305 L60.752814388797134,-237.3480472720186" stroke="#0d6d4d" stroke-width="0.1" fill="none" />
<path d="M194.7458462527072,-148.65751029570262 L105.56927393787602,-221.0885080691208" stroke="#0d6d4d" stroke-width="0.1" fill="none" />
<path d="M196.11711823895834,-146.84371261190051 L146.38828075595987,-196.4573013591357" stroke="#0d6d4d" stroke-width="0.1" fill="none" />
<path d="M197.47149769185737,-145.01726655586492 L181.6641952436188,-164.38710462347208" stroke="#0d6d4d" stroke-width="0.1" fill="none" />
<path d="M198.80886795203108,-143.1783294483906 L210.06127078209673,-126.09227778659023" stroke="#0d6d4d" stroke-width="0.1" fill="none" />
<path d="M200.12911382519187,-141.3270596861882 L230.50423269222568,-83.02288064725458" stroke="#0d6d4d" stroke-width="0.1" fill="none" />
<path d="M201.43212159205999,-139.46361672824054 L242.2189942452727,-36.80976537290804" stroke="#0d6d4d" stroke-width="0.1" fill="none" />
<path d="M202.7177790181585,-137.5881610820679 L244.7619679861348,10.797176832594628" stroke="#0d6d4d" stroke-width="0.1" fill="none" />
<path d="M203.98597536348097,-135.70085428990245 L238.03686247558844,57.995276555748895" stroke="#0d6d4d" stroke-width="0.1" fill="none" />
<path d="M205.23660139202977,-133.80185891477402 L222.2983284314664,102.99734548315263" stroke="#0d6d4d" stroke-width="0.1" fill="none" />
<path d="M206.46954938122522,-131.8913385265075 L198.14231620513274,144.09934950882047" stroke="#0d6d4d" stroke-width="0.1" fill="none" />
<path d="M207.68471313118422,-129.9694576876341 L166.483509714002,179.74493315058368" stroke="#0d6d4d" stroke-width="0.1" fill="none" />
<path d="M208.88198797386784,-128.0363819392165 L128.52069130967493,208.58435201443862" stroke="#0d6d4d" stroke-width="0.1" fill="none" />
<path d="M210.06127078209673,-126.09227778659023 L85.69134906463678,229.5255817887901" stroke="#0d6d4d" stroke-width="0.1" fill="none" />
<path d="M211.2224599784342,-124.13731268502134 L39.61724530364233,241.7756684915813" stroke="#0d6d4d" stroke-width="0.1" fill="none" />
<path d="M212.36545554393544,-122.1716550252831 L-7.9569925354433435,244.87075421493458" stroke="#0d6d4d" stroke-width="0.1" fill="none" />
<path d="M213.49015902676265,-120.19547411915141 L-55.229933412308434,238.6936414219532" stroke="#0d6d4d" stroke-width="0.1" fill="none" />
<path d="M214.59647355066522,-118.20894018482123 L-100.41155510209985,223.47823071157953" stroke="#0d6d4d" stroke-width="0.1" fill="none" />
<path d="M215.68430382332417,-116.2122243322448 L-141.79102461073157,199.8006640125075" stroke="#0d6d4d" stroke-width="0.1" fill="none" />
<path d="M216.75355614456006,-114.20549854839321 L-177.80148003583096,168.5575085751685" stroke="#0d6d4d" stroke-width="0.1" fill="none" />
<path d="M217.804138414404,-112.18893568244216 L-207.07936086387056,130.931807839848" stroke="#0d6d4d" stroke-width="0.1" fill="none" />
<path d="M218.83596014103045,-110.16270943088375 L-228.51604012122306,88.34828468802083" stroke="#0d6d4d" stroke-width="0.1" fill="none" />
<path d="M219.8489324485521,-108.12699432256494 L-241.29980329243946,42.41939333642127" stroke="#0d6d4d" stroke-width="0.1" fill="none" />
<path d="M220.84296808467462,-106.08196570365472 L-244.94658444531274,-5.115737344243048" stroke="#0d6d4d" stroke-width="0.1" fill="none" />
<path d="M221.81798142821273,-104.02779972254083 L-239.31829571833617,-52.457157132949995" stroke="#0d6d4d" stroke-width="0.1" fill="none" />
<path d="M222.7738884964648,-101.96467331465671 L-224.62805611198436,-97.81225080403374" stroke="#0d6d4d" stroke-width="0.1" fill="none" />
<path d="M223.7106069524468,-99.89276418724164 L-201.43212159206,-139.46361672824042" stroke="#0d6d4d" stroke-width="0.1" fill="none" />
<path d="M224.62805611198434,-97.8122508040338 L-170.6088220772589,-175.83409745953773" stroke="#0d6d4d" stroke-width="0.1" fill="none" />
<path d="M225.52615695066257,-95.72331236989825 L-133.32530287632167,-205.54649988004442" stroke="#0d6d4d" stroke-width="0.1" fill="none" />
<path d="M226.40483211063267,-93.62612881539124 L-90.99332993298854,-227.47574355897" stroke="#0d6d4d" stroke-width="0.1" fill="none" />
<path d="M227.2640059072753,-91.52088078126182 L-45.215832343374124,-240.79146269229705" stroke="#0d6d4d" stroke-width="0.1" fill="none" />
<path d="M228.10360433571955,-89.40774960289237 L2.2737936501125864,-244.98944847163665" stroke="#0d6d4d" stroke-width="0.1" fill="none" />
<path d="M228.9235550772174,-87.28691729467938 L49.677320892539356,-239.9107412954653" stroke="#0d6d4d" stroke-width="0.1" fill="none" />
<path d="M229.723787505373,-85.15856653435542 L95.19978241704469,-225.7476498831103" stroke="#0d6d4d" stroke-width="0.1" fill="none" />
<path d="M230.50423269222568,-83.02288064725458 L137.1174390961829,-203.0364693736191" stroke="#0d6d4d" stroke-width="0.1" fill="none" />
<path d="M231.26482341418753,-80.88004359052151 L173.84305020243377,-172.6371741436765" stroke="#0d6d4d" stroke-width="0.1" fill="none" />
<path d="M232.00549415783348,-78.73023993726616 L203.98597536348097,-135.70085428990245" stroke="#0d6d4d" stroke-width="0.1" fill="none" />
<path d="M232.72618112554423,-76.57365486066588 L226.40483211063267,-93.62612881539124" stroke="#0d6d4d" stroke-width="0.1" fill="none" />
<path d="M233.42682224100162,-74.41047411801536 L240.2507151063148,-48.00618596498128" stroke="#0d6d4d" stroke-width="0.1" fill="none" />
<path d="M234.10735715453535,-72.24088403472669 L244.99934052503946,-0.5684560631674876" stroke="#0d6d4d" stroke-width="0.1" fill="none" />
<path d="M234.76772724832142,-70.06507148827973 L240.47089841888828,46.89079881610794" stroke="#0d6d4d" stroke-width="0.1" fill="none" />
<path d="M235.40787564143113,-67.8832238921259 L226.83686134411886,92.57450154091565" stroke="#0d6d4d" stroke-width="0.1" fill="none" />
<path d="M236.02774719473032,-65.69552917954519 L204.61349143559343,134.7528074755266" stroke="#0d6d4d" stroke-width="0.1" fill="none" />
<path d="M236.62728851562898,-63.50217578745854 L174.6422917880952,171.82860623016705" stroke="#0d6d4d" stroke-width="0.1" fill="none" />
<path d="M237.2064479626802,-61.30335264019663 L138.05814236634396,202.39799733780546" stroke="#0d6d4d" stroke-width="0.1" fill="none" />
<path d="M237.7651756500281,-59.099249133227424 L96.24632699926079,225.30344990512543" stroke="#0d6d4d" stroke-width="0.1" fill="none" />
<path d="M238.3034234517051,-56.890055116842085 L50.79007866072572,239.6776333111567" stroke="#0d6d4d" stroke-width="0.1" fill="none" />
<path d="M238.8211450057769,-54.67596087980234 L3.410629270630689,244.97625927419645" stroke="#0d6d4d" stroke-width="0.1" fill="none" />
<path d="M239.31829571833612,-52.457157132950215 L-44.09796592850298,240.99869169970322" stroke="#0d6d4d" stroke-width="0.1" fill="none" />
<path d="M239.7948327673431,-50.233834992780906 L-89.93676149980199,227.89554390318327" stroke="#0d6d4d" stroke-width="0.1" fill="none" />
<path d="M240.2507151063148,-48.00618596498128 L-132.37004011087464,206.16297553403095" stroke="#0d6d4d" stroke-width="0.1" fill="none" />
<path d="M240.68590346785984,-45.774401927934036 L-169.79103665723852,176.62390515120055" stroke="#0d6d4d" stroke-width="0.1" fill="none" />
<path d="M241.10036036706123,-43.53867511619081 L-200.7827795214813,140.39684984937603" stroke="#0d6d4d" stroke-width="0.1" fill="none" />
<path d="M241.49405010470483,-41.29919810391378 L-224.17174517227812,98.85357184449738" stroke="#0d6d4d" stroke-width="0.1" fill="none" />
<path d="M241.86693877035447,-39.05616378828842 L-239.0722944351952,53.56713575963653" stroke="#0d6d4d" stroke-width="0.1" fill="none" />
<path d="M242.2189942452727,-36.80976537290804 L-244.92020782550412,6.252343457606587" stroke="#0d6d4d" stroke-width="0.1" fill="none" />
<path d="M242.55018620518754,-34.56019635113278 L-241.49405010470483,-41.299198103913724" stroke="#0d6d4d" stroke-width="0.1" fill="none" />
<path d="M242.86048612290412,-32.30765048942253 L-228.9235550772175,-87.28691729467923" stroke="#0d6d4d" stroke-width="0.1" fill="none" />
<path d="M243.1498672707623,-30.052321810646983 L-207.68471313118425,-129.9694576876341" stroke="#0d6d4d" stroke-width="0.1" fill="none" />
<path d="M243.41830472293833,-27.794404577373726 L-178.58174753700783,-167.73061571051483" stroke="#0d6d4d" stroke-width="0.1" fill="none" />
<path d="M243.66577535759242,-25.534093275135184 L-142.71666198340287,-199.14053929904662" stroke="#0d6d4d" stroke-width="0.1" fill="none" />
<path d="M243.89225785885984,-23.271582595676954 L-101.44751245432978,-223.00987022288632" stroke="#0d6d4d" stroke-width="0.1" fill="none" />
<path d="M244.09773271868727,-21.007067420187497 L-56.3369835107135,-238.43477994813088" stroke="#0d6d4d" stroke-width="0.1" fill="none" />
<path d="M244.28218223851297,-18.74074280251261 L-9.093216171203078,-244.83119372266225" stroke="#0d6d4d" stroke-width="0.1" fill="none" />
<path d="M244.44559053079132,-16.47280395235421 L38.49487201528492,-241.9569069659447" stroke="#0d6d4d" stroke-width="0.1" fill="none" />
<path d="M244.58794352036125,-14.20344621845605 L84.62532555556545,-229.92075651105222" stroke="#0d6d4d" stroke-width="0.1" fill="none" />
<path d="M244.7092289456586,-11.932865071777169 L127.55138328885673,-209.17849942357643" stroke="#0d6d4d" stroke-width="0.1" fill="none" />
<path d="M244.80943635977232,-9.661256088655339 L165.64762069232094,-180.5155554487562" stroke="#0d6d4d" stroke-width="0.1" fill="none" />
<path d="M244.8885571313443,-7.3888149339608455 L197.47149769185737,-145.01726655586492" stroke="#0d6d4d" stroke-width="0.1" fill="none" />
<path d="M244.94658444531274,-5.115737344243162 L221.81798142821273,-104.02779972254083" stroke="#0d6d4d" stroke-width="0.1" fill="none" />
<path d="M244.98351330349928,-2.8422191108708885 L237.7651756500281,-59.099249133227424" stroke="#0d6d4d" stroke-width="0.1" fill="none" />
<path d="M244.99934052503946,-0.5684560631674876 L244.7092289456586,-11.932865071777169" stroke="#0d6d4d" stroke-width="0.1" fill="none" />
<path d="M244.9940647466568,1.705355948456462 L242.38719998970382,35.685365083621285" stroke="#0d6d4d" stroke-width="0.1" fill="none" />
<path d="M244.96768642278005,3.979021069373039 L230.88701399605583,81.95234449352333" stroke="#0d6d4d" stroke-width="0.1" fill="none" />
<path d="M244.92020782550412,6.252343457606581 L210.6441333695648,125.11614235175654" stroke="#0d6d4d" stroke-width="0.1" fill="none" />
<path d="M244.85163304439448,8.525127300702732 L182.42506862437116,163.54233194311945" stroke="#0d6d4d" stroke-width="0.1" fill="none" />
<path d="M244.7619679861348,10.797176832594628 L147.29835393925683,195.77587932834174" stroke="#0d6d4d" stroke-width="0.1" fill="none" />
<path d="M244.65122037401818,13.06829635046541 L106.59408638045275,220.59623919894142" stroke="#0d6d4d" stroke-width="0.1" fill="none" />
<path d="M244.5193997472819,15.338290231604741 L61.8535608668936,237.063571659767" stroke="#0d6d4d" stroke-width="0.1" fill="none" />
<path d="M244.3665174602859,17.60696295025903 L14.770907984393473,244.55432990915654" stroke="#0d6d4d" stroke-width="0.1" fill="none" />
<path d="M244.19258668153444,19.87411909447276 L-32.87105542719324,242.78487126487593" stroke="#0d6d4d" stroke-width="0.1" fill="none" />
<path d="M243.99762239254227,22.139563382920596 L-79.26833385245111,231.82219748819645" stroke="#0d6d4d" stroke-width="0.1" fill="none" />
<path d="M243.78164138654384,24.403100681727718 L-122.6640626239112,212.08141771639777" stroke="#0d6d4d" stroke-width="0.1" fill="none" />
<path d="M243.544662267047,26.66453602127767 L-161.4150328037812,184.31003007149184" stroke="#0d6d4d" stroke-width="0.1" fill="none" />
<path d="M243.28670544623054,28.923674613006252 L-194.05391241376765,149.55961713280024" stroke="#0d6d4d" stroke-width="0.1" fill="none" />
<path d="M243.00779314318598,31.180321866179316 L-219.34480796358943,109.14602704366325" stroke="#0d6d4d" stroke-width="0.1" fill="none" />
<path d="M242.70794938200373,33.43428340465401 L-236.33006240291542,64.59954802190258" stroke="#0d6d4d" stroke-width="0.1" fill="none" />
<path d="M242.38719998970382,35.685365083621285 L-244.36651746028588,17.60696295025909" stroke="#0d6d4d" stroke-width="0.1" fill="none" />
<path d="M242.0455725940112,37.93337300632873 L-243.14986727076231,-30.052321810646816" stroke="#0d6d4d" stroke-width="0.1" fill="none" />
<path d="M241.6830966209761,40.178113540781574 L-232.7261811255443,-76.57365486066567" stroke="#0d6d4d" stroke-width="0.1" fill="none" />
<path d="M241.29980329243946,42.419393336421216 L-213.4901590267627,-120.19547411915133" stroke="#0d6d4d" stroke-width="0.1" fill="none" />
<path d="M240.89572562334357,44.65701934077967 L-186.17018610205906,-159.26600957745094" stroke="#0d6d4d" stroke-width="0.1" fill="none" />
<path d="M240.47089841888828,46.89079881610794 L-151.8007518037603,-192.30582869953048" stroke="#0d6d4d" stroke-width="0.1" fill="none" />
<path d="M240.0253582715332,49.12053935597748 L-111.68327825852964,-218.0638561463771" stroke="#0d6d4d" stroke-width="0.1" fill="none" />
<path d="M239.55914355784563,51.34604890185329 L-67.33684102881107,-235.56474659902028" stroke="#0d6d4d" stroke-width="0.1" fill="none" />
<path d="M239.0722944351952,53.56713575963658 L-20.440648278128897,-244.1458168758372" stroke="#0d6d4d" stroke-width="0.1" fill="none" />
<path d="M238.56485283829477,55.78360861617651 L27.229543594028495,-243.48213888427404" stroke="#0d6d4d" stroke-width="0.1" fill="none" />
<path d="M238.03686247558844,57.995276555748895 L73.86867018228763,-233.59884324521045" stroke="#0d6d4d" stroke-width="0.1" fill="none" />
<path d="M237.48836882548676,60.201949076500675 L117.71070907314606,-214.8701677048193" stroke="#0d6d4d" stroke-width="0.1" fill="none" />
<path d="M236.91941913244926,62.403436106858955 L157.09555149101655,-188.0052863664567" stroke="#0d6d4d" stroke-width="0.1" fill="none" />
<path d="M236.33006240291542,64.59954802190258 L190.5318634519618,-154.0214563284057" stroke="#0d6d4d" stroke-width="0.1" fill="none" />
<path d="M235.72034940108315,66.79009565969542 L216.75355614456006,-114.20549854839321" stroke="#0d6d4d" stroke-width="0.1" fill="none" />
<path d="M235.09033264453643,68.97489033758016 L234.76772724832142,-70.06507148827973" stroke="#0d6d4d" stroke-width="0.1" fill="none" />
<path d="M234.4400663997215,71.15374386843015 L243.89225785885984,-23.271582595676954" stroke="#0d6d4d" stroke-width="0.1" fill="none" />
<path d="M233.76960667727298,73.32646857685897 L243.78164138654384,24.403100681727718" stroke="#0d6d4d" stroke-width="0.1" fill="none" />
<path d="M233.07901122718894,75.49287731538604 L234.4400663997215,71.15374386843015" stroke="#0d6d4d" stroke-width="0.1" fill="none" />
<path d="M232.36833953385704,77.65278348055615 L216.22125802171664,115.21010189868868" stroke="#0d6d4d" stroke-width="0.1" fill="none" />
<path d="M231.63765281093055,79.80600102901289 L189.81508388720653,154.90395065618162" stroke="#0d6d4d" stroke-width="0.1" fill="none" />
<path d="M230.88701399605583,81.95234449352333 L156.2214318326012,188.73225542066712" stroke="#0d6d4d" stroke-width="0.1" fill="none" />
<path d="M230.11648774545128,84.09162899895317 L116.71234845953617,215.41408430522785" stroke="#0d6d4d" stroke-width="0.1" fill="none" />
<path d="M229.3261404283379,86.22367027819128 L72.78387222065513,233.93911161788947" stroke="#0d6d4d" stroke-width="0.1" fill="none" />
<path d="M228.51604012122306,88.34828468802083 L26.099384900822024,243.6058745346646" stroke="#0d6d4d" stroke-width="0.1" fill="none" />
<path d="M227.6862566020362,90.46528922493826 L-21.57337347134827,244.04833446894435" stroke="#0d6d4d" stroke-width="0.1" fill="none" />
<path d="M226.83686134411886,92.57450154091565 L-68.42924130820494,235.2497373728257" stroke="#0d6d4d" stroke-width="0.1" fill="none" />
<path d="M225.96792751006825,94.67573995910746 L-112.69398914068995,217.5432481405894" stroke="#0d6d4d" stroke-width="0.1" fill="none" />
<path d="M225.07952994543535,96.76882348949924 L-152.691502030153,191.5993350922069" stroke="#0d6d4d" stroke-width="0.1" fill="none" />
<path d="M224.17174517227815,98.85357184449728 L-186.90724680639246,158.40038223203345" stroke="#0d6d4d" stroke-width="0.1" fill="none" />
<path d="M223.24465138257034,100.92980545445748 L-214.0456209015697,119.20349060686733" stroke="#0d6d4d" stroke-width="0.1" fill="none" />
<path d="M222.2983284314664,102.99734548315263 L-233.07901122718894,75.49287731538612" stroke="#0d6d4d" stroke-width="0.1" fill="none" />
<path d="M221.33285783042302,105.05601384317676 L-243.28670544623054,28.923674613006202" stroke="#0d6d4d" stroke-width="0.1" fill="none" />
<path d="M220.3483227401786,107.10563321128399 L-244.28218223851297,-18.740742802512607" stroke="#0d6d4d" stroke-width="0.1" fill="none" />
<path d="M219.34480796358952,109.14602704366311 L-236.02774719473035,-65.69552917954513" stroke="#0d6d4d" stroke-width="0.1" fill="none" />
<path d="M218.32239993832633,111.17701959114346 L-218.83596014103054,-110.16270943088361" stroke="#0d6d4d" stroke-width="0.1" fill="none" />
<path d="M217.28118672942801,113.19843591433337 L-193.35779984751414,-150.45850337594305" stroke="#0d6d4d" stroke-width="0.1" fill="none" />
<path d="M216.22125802171664,115.21010189868868 L-160.55801427205756,-185.05708322842918" stroke="#0d6d4d" stroke-width="0.1" fill="none" />
<path d="M215.14270511207238,117.21184426951 L-121.67858971932927,-212.64835010861273" stroke="#0d6d4d" stroke-width="0.1" fill="none" />
<path d="M214.04562090156975,119.20349060686725 L-78.19172218027008,-232.18754183306964" stroke="#0d6d4d" stroke-width="0.1" fill="none" />
<path d="M212.93009988747525,121.18486936045198 L-31.74407162441495,-242.93479354901802" stroke="#0d6d4d" stroke-width="0.1" fill="none" />
<path d="M211.79623815510837,123.1558098643528 L15.905589905605108,-244.48315322278285" stroke="#0d6d4d" stroke-width="0.1" fill="none" />
<path d="M210.6441333695648,125.11614235175654 L62.95297539985658,-236.77399115676758" stroke="#0d6d4d" stroke-width="0.1" fill="none" />
<path d="M209.47388476730424,127.06569796957065 L107.61660344225224,-220.09922004303658" stroke="#0d6d4d" stroke-width="0.1" fill="none" />
<path d="M208.28559314760287,129.00430879296727 L148.2052552222954,-195.0902414896611" stroke="#0d6d4d" stroke-width="0.1" fill="none" />
<path d="M207.07936086387068,130.93180783984783 L183.18201369155562,-162.694037567167" stroke="#0d6d4d" stroke-width="0.1" fill="none" />
<path d="M205.8552918148354,132.84802908522568 L211.2224599784342,-124.13731268502134" stroke="#0d6d4d" stroke-width="0.1" fill="none" />
<path d="M204.61349143559343,134.7528074755266 L231.26482341418753,-80.88004359052151" stroke="#0d6d4d" stroke-width="0.1" fill="none" />
<path d="M203.35406668852772,136.64597894280612 L242.55018620518754,-34.56019635113278" stroke="#0d6d4d" stroke-width="0.1" fill="none" />
<path d="M202.0771260540949,138.52738041888125 L244.65122037401818,13.06829635046541" stroke="#0d6d4d" stroke-width="0.1" fill="none" />
<path d="M200.78277952148133,140.39684984937597 L237.48836882548676,60.201949076500675" stroke="#0d6d4d" stroke-width="0.1" fill="none" />
<path d="M199.471138579129,142.25422620768043 L221.33285783042302,105.05601384317676" stroke="#0d6d4d" stroke-width="0.1" fill="none" />
<path d="M198.14231620513274,144.09934950882047 L196.79642685750855,145.93206082323817" stroke="#0d6d4d" stroke-width="0.1" fill="none" />
<path d="M196.79642685750855,145.93206082323817 L164.80816464007353,181.28229055252586" stroke="#0d6d4d" stroke-width="0.1" fill="none" />
<path d="M195.433586464335,147.75220229048128 L126.57932859603036,209.7681424148533" stroke="#0d6d4d" stroke-width="0.1" fill="none" />
<path d="M194.05391241376776,149.55961713280007 L83.55747973765766,230.310980154857" stroke="#0d6d4d" stroke-width="0.1" fill="none" />
<path d="M192.65752354392822,151.35414966865213 L37.371669784232544,242.13293517722508" stroke="#0d6d4d" stroke-width="0.1" fill="none" />
<path d="M191.2445401326675,153.13564532611122 L-10.229243995034313,244.78636107285482" stroke="#0d6d4d" stroke-width="0.1" fill="none" />
<path d="M189.81508388720653,154.90395065618162 L-57.44282045711893,238.17078405617093" stroke="#0d6d4d" stroke-width="0.1" fill="none" />
<path d="M188.36927793365226,156.65891334601577 L-102.48128525131916,222.53670747370592" stroke="#0d6d4d" stroke-width="0.1" fill="none" />
<path d="M186.90724680639255,158.4003822320333 L-143.63922611727068,198.47612632362507" stroke="#0d6d4d" stroke-width="0.1" fill="none" />
<path d="M185.42911643736977,160.1282073129415 L-179.35816948610608,166.90011096039828" stroke="#0d6d4d" stroke-width="0.1" fill="none" />
<path d="M183.93501414523274,161.84223976265602 L-208.28559314760278,129.00430879296744" stroke="#0d6d4d" stroke-width="0.1" fill="none" />
<path d="M182.42506862437116,163.54233194311945 L-229.32614042833785,86.22367027819139" stroke="#0d6d4d" stroke-width="0.1" fill="none" />
<path d="M180.8994099338298,165.22833741701876 L-241.6830966209761,40.17811354078158" stroke="#0d6d4d" stroke-width="0.1" fill="none" />
<path d="M179.35816948610605,166.90011096039828 L-244.8885571313443,-7.388814933960786" stroke="#0d6d4d" stroke-width="0.1" fill="none" />
<path d="M177.80148003583102,168.55750857516844 L-238.82114500577694,-54.675960879802176" stroke="#0d6d4d" stroke-width="0.1" fill="none" />
<path d="M176.2294756683345,170.20038750150925 L-223.71060695244688,-99.89276418724144" stroke="#0d6d4d" stroke-width="0.1" fill="none" />
<path d="M174.6422917880952,171.82860623016705 L-200.12911382519192,-141.3270596861881" stroke="#0d6d4d" stroke-width="0.1" fill="none" />
<path d="M173.04006510707856,173.442024514643 L-168.9695949829653,-177.40990945066366" stroke="#0d6d4d" stroke-width="0.1" fill="none" />
<path d="M171.42293363296005,175.0405033832735 L-131.4119269091993,-206.77501170598748" stroke="#0d6d4d" stroke-width="0.1" fill="none" />
<path d="M169.79103665723855,176.62390515120052 L-88.87825638212854,-228.31043677955816" stroke="#0d6d4d" stroke-width="0.1" fill="none" />
<path d="M168.14451474323852,178.19209343223073 L-42.979149914768115,-241.2007310780875" stroke="#0d6d4d" stroke-width="0.1" fill="none" />
<path d="M166.483509714002,179.74493315058368 L4.547391447178711,-244.9577947954017" stroke="#0d6d4d" stroke-width="0.1" fill="none" />
<path d="M164.80816464007353,181.28229055252586 L51.90174272311496,-239.43936414529585" stroke="#0d6d4d" stroke-width="0.1" fill="none" />
<path d="M163.11862382717598,182.80403321789225 L97.29079902776998,-224.85439827705855" stroke="#0d6d4d" stroke-width="0.1" fill="none" />
<path d="M161.41503280378117,184.3100300714919 L138.9958727135514,-201.7551668944273" stroke="#0d6d4d" stroke-width="0.1" fill="none" />
<path d="M159.69753830857493,185.80015139439809 L175.43777265331659,-171.01633818569266" stroke="#0d6d4d" stroke-width="0.1" fill="none" />
<path d="M157.9662882778176,187.2742688351217 L205.23660139202977,-133.80185891477402" stroke="#0d6d4d" stroke-width="0.1" fill="none" />
<path d="M156.2214318326012,188.73225542066712 L227.2640059072753,-91.52088078126182" stroke="#0d6d4d" stroke-width="0.1" fill="none" />
<path d="M154.4631192660058,190.17398556746835 L240.68590346785984,-45.774401927934036" stroke="#0d6d4d" stroke-width="0.1" fill="none" />
<path d="M152.69150203015303,191.59933509220684 L244.9940647466568,1.705355948456462" stroke="#0d6d4d" stroke-width="0.1" fill="none" />
<path d="M150.9067327231613,193.00818122250766 L240.0253582715332,49.12053935597748" stroke="#0d6d4d" stroke-width="0.1" fill="none" />
<path d="M149.10896507600188,194.40040260751428 L225.96792751006825,94.67573995910746" stroke="#0d6d4d" stroke-width="0.1" fill="none" />
<path d="M147.29835393925683,195.77587932834174 L203.35406668852772,136.64597894280612" stroke="#0d6d4d" stroke-width="0.1" fill="none" />
<path d="M145.47505526978154,197.1344929084051 L173.04006510707856,173.442024514643" stroke="#0d6d4d" stroke-width="0.1" fill="none" />
<path d="M143.63922611727082,198.47612632362498 L136.17378316002888,203.6705692531089" stroke="#0d6d4d" stroke-width="0.1" fill="none" />
<path d="M141.79102461073163,199.80066401250747 L94.15118781725293,226.18698864567867" stroke="#0d6d4d" stroke-width="0.1" fill="none" />
<path d="M139.93060994486325,201.1079918860972 L48.56349338051154,240.1386830785099" stroke="#0d6d4d" stroke-width="0.1" fill="none" />
<path d="M138.05814236634396,202.39799733780546 L1.1369090660693442,244.99736210370816" stroke="#0d6d4d" stroke-width="0.1" fill="none" />
<path d="M136.17378316002888,203.6705692531089 L-46.33272508741697,240.57904851830685" stroke="#0d6d4d" stroke-width="0.1" fill="none" />
<path d="M134.27769463505794,204.92559801912046 L-92.04793892970464,227.051044786835" stroke="#0d6d4d" stroke-width="0.1" fill="none" />
<path d="M132.37004011087467,206.16297553403092 L-134.27769463505788,204.92559801912046" stroke="#0d6d4d" stroke-width="0.1" fill="none" />
<path d="M130.45098390315917,207.38259521642047 L-171.42293363296,175.04050338327352" stroke="#0d6d4d" stroke-width="0.1" fill="none" />
<path d="M128.52069130967493,208.58435201443862 L-202.07712605409478,138.52738041888142" stroke="#0d6d4d" stroke-width="0.1" fill="none" />
<path d="M126.57932859603036,209.7681424148533 L-225.07952994543535,96.7688234894993" stroke="#0d6d4d" stroke-width="0.1" fill="none" />
<path d="M124.62706298135815,210.9338644519665 L-239.55914355784563,51.3460489018534" stroke="#0d6d4d" stroke-width="0.1" fill="none" />
<path d="M122.66406262391133,212.08141771639765 L-244.96768642278005,3.9790210693729904" stroke="#0d6d4d" stroke-width="0.1" fill="none" />
<path d="M120.69049660657912,213.21070336373197 L-241.10036036706123,-43.5386751161908" stroke="#0d6d4d" stroke-width="0.1" fill="none" />
<path d="M118.70653492232356,214.32162412303427 L-228.10360433571958,-89.40774960289231" stroke="#0d6d4d" stroke-width="0.1" fill="none" />
<path d="M116.71234845953617,215.41408430522785 L-206.4695493812253,-131.89133852650735" stroke="#0d6d4d" stroke-width="0.1" fill="none" />
<path d="M114.70810898731911,216.48798981133646 L-177.01738378473695,-169.3807717481744" stroke="#0d6d4d" stroke-width="0.1" fill="none" />
<path d="M112.69398914069,217.54324814058938 L-140.86233393179072,-200.4564862489829" stroke="#0d6d4d" stroke-width="0.1" fill="none" />
<path d="M110.67016240571152,218.57976839838915 L-99.37343550277734,-223.941778854182" stroke="#0d6d4d" stroke-width="0.1" fill="none" />
<path d="M108.63680310454846,219.5974613041407 L-54.12169400095213,-238.9473629033543" stroke="#0d6d4d" stroke-width="0.1" fill="none" />
<path d="M106.59408638045275,220.59623919894142 L-6.820597555021937,-244.90504169778217" stroke="#0d6d4d" stroke-width="0.1" fill="none" />
<path d="M104.54218818267685,221.57601605313192 L40.73876548028954,-241.5892236568965" stroke="#0d6d4d" stroke-width="0.1" fill="none" />
<path d="M102.48128525131922,222.5367074737059 L86.75552730928405,-229.1254644977028" stroke="#0d6d4d" stroke-width="0.1" fill="none" />
<path d="M100.41155510210001,223.47823071157944 L129.48723178555406,-207.9857129817195" stroke="#0d6d4d" stroke-width="0.1" fill="none" />
<path d="M98.33317601107107,224.40050466871887 L167.31581370521022,-178.9704402524713" stroke="#0d6d4d" stroke-width="0.1" fill="none" />
<path d="M96.24632699926079,225.30344990512543 L198.80886795203108,-143.1783294483906" stroke="#0d6d4d" stroke-width="0.1" fill="none" />
<path d="M94.15118781725293,226.18698864567867 L222.7738884964648,-101.96467331465671" stroke="#0d6d4d" stroke-width="0.1" fill="none" />
<path d="M92.0479389297046,227.05104478683504 L238.3034234517051,-56.890055116842085" stroke="#0d6d4d" stroke-width="0.1" fill="none" />
<path d="M89.93676149980203,227.89554390318327 L244.80943635977232,-9.661256088655339" stroke="#0d6d4d" stroke-width="0.1" fill="none" />
<path d="M87.8178373736556,228.72041325385493 L242.0455725940112,37.93337300632873" stroke="#0d6d4d" stroke-width="0.1" fill="none" />
<path d="M85.69134906463678,229.5255817887901 L230.11648774545128,84.09162899895317" stroke="#0d6d4d" stroke-width="0.1" fill="none" />
<path d="M83.55747973765766,230.310980154857 L209.47388476730424,127.06569796957065" stroke="#0d6d4d" stroke-width="0.1" fill="none" />
<path d="M81.41641319339335,231.076540701826 L180.8994099338298,165.22833741701876" stroke="#0d6d4d" stroke-width="0.1" fill="none" />
<path d="M79.26833385245116,231.82219748819642 L145.47505526978154,197.1344929084051" stroke="#0d6d4d" stroke-width="0.1" fill="none" />
<path d="M77.11342673948481,232.54788628687663 L104.54218818267685,221.57601605313192" stroke="#0d6d4d" stroke-width="0.1" fill="none" />
<path d="M74.95187746725755,233.25354459071616 L59.65075966887386,237.62741186766786" stroke="#0d6d4d" stroke-width="0.1" fill="none" />
<path d="M72.78387222065513,233.93911161788947 L12.500614359456671,244.68088327582143" stroke="#0d6d4d" stroke-width="0.1" fill="none" />
<path d="M70.60959774064754,234.6045283171319 L-35.12287525883331,242.4693457605568" stroke="#0d6d4d" stroke-width="0.1" fill="none" />
<path d="M68.42924130820488,235.2497373728257 L-81.4164131933933,231.07654070182602" stroke="#0d6d4d" stroke-width="0.1" fill="none" />
<path d="M66.24299072816602,235.87468320993696 L-124.62706298135812,210.93386445196654" stroke="#0d6d4d" stroke-width="0.1" fill="none" />
<path d="M64.05103431306154,236.4793119988026 L-163.11862382717587,182.80403321789237" stroke="#0d6d4d" stroke-width="0.1" fill="none" />
<path d="M61.8535608668936,237.063571659767 L-195.43358646433495,147.75220229048136" stroke="#0d6d4d" stroke-width="0.1" fill="none" />
<path d="M59.65075966887386,237.62741186766786 L-220.34832274017853,107.10563321128411" stroke="#0d6d4d" stroke-width="0.1" fill="none" />
<path d="M57.44282045711898,238.1707840561709 L-236.9194191324492,62.403436106859175" stroke="#0d6d4d" stroke-width="0.1" fill="none" />
<path d="M55.22993341230848,238.69364142195317 L-244.5193997472819,15.3382902316048" stroke="#0d6d4d" stroke-width="0.1" fill="none" />
<path d="M53.01228914130274,239.19593892873456 L-242.86048612290415,-32.307650489422414" stroke="#0d6d4d" stroke-width="0.1" fill="none" />
<path d="M50.79007866072572,239.6776333111567 L-232.00549415783354,-78.730239937266" stroke="#0d6d4d" stroke-width="0.1" fill="none" />
<path d="M48.56349338051154,240.1386830785099 L-212.36545554393558,-122.17165502528289" stroke="#0d6d4d" stroke-width="0.1" fill="none" />
<path d="M46.332725087417124,240.57904851830682 L-184.68405377040577,-160.98695687207044" stroke="#0d6d4d" stroke-width="0.1" fill="none" />
<path d="M44.09796592850293,240.99869169970322 L-150.00946404002627,-193.7063775367865" stroke="#0d6d4d" stroke-width="0.1" fill="none" />
<path d="M41.859408394582616,241.39757647676487 L-109.65466339851753,-219.09097378705" stroke="#0d6d4d" stroke-width="0.1" fill="none" />
<path d="M39.61724530364233,241.7756684915813 L-65.14771396107531,-236.17954053144803" stroke="#0d6d4d" stroke-width="0.1" fill="none" />
<path d="M37.371669784232544,242.13293517722508 L-18.17390179570497,-244.32500750745936" stroke="#0d6d4d" stroke-width="0.1" fill="none" />
<path d="M35.12287525883336,242.4693457605568 L29.48807758590336,-243.21894103931902" stroke="#0d6d4d" stroke-width="0.1" fill="none" />
<path d="M32.8710554271933,242.78487126487593 L76.03347074994483,-232.90322309001496" stroke="#0d6d4d" stroke-width="0.1" fill="none" />
<path d="M30.61640424964579,243.07948451241677 L119.69980456310687,-213.76846537212643" stroke="#0d6d4d" stroke-width="0.1" fill="none" />
<path d="M28.35911593040177,243.3531601266892 L158.83362344269133,-186.53921856828214" stroke="#0d6d4d" stroke-width="0.1" fill="none" />
<path d="M26.099384900822024,243.6058745346646 L191.9530985826528,-152.24653672421707" stroke="#0d6d4d" stroke-width="0.1" fill="none" />
<path d="M23.83740580267079,243.8376059688062 L217.804138414404,-112.18893568244216" stroke="#0d6d4d" stroke-width="0.1" fill="none" />
<path d="M21.573373471348436,244.04833446894432 L235.40787564143113,-67.8832238921259" stroke="#0d6d4d" stroke-width="0.1" fill="none" />
<path d="M19.307482919111287,244.23804188399527 L244.09773271868727,-21.007067420187497" stroke="#0d6d4d" stroke-width="0.1" fill="none" />
<path d="M17.039929318272836,244.406711873525 L243.544662267047,26.66453602127767" stroke="#0d6d4d" stroke-width="0.1" fill="none" />
<path d="M14.770907984393473,244.55432990915654 L233.76960667727298,73.32646857685897" stroke="#0d6d4d" stroke-width="0.1" fill="none" />
<path d="M12.500614359456671,244.68088327582143 L215.14270511207238,117.21184426951" stroke="#0d6d4d" stroke-width="0.1" fill="none" />
<path d="M10.229243995034267,244.78636107285482 L188.36927793365226,156.65891334601577" stroke="#0d6d4d" stroke-width="0.1" fill="none" />
<path d="M7.956992535443405,244.87075421493458 L154.4631192660058,190.17398556746835" stroke="#0d6d4d" stroke-width="0.1" fill="none" />
<path d="M5.684055700893864,244.93405543286366 L114.70810898731911,216.48798981133646" stroke="#0d6d4d" stroke-width="0.1" fill="none" />
<path d="M3.410629270630689,244.97625927419645 L70.60959774064754,234.6045283171319" stroke="#0d6d4d" stroke-width="0.1" fill="none" />
<path d="M1.1369090660693442,244.99736210370816 L23.83740580267079,243.8376059688062" stroke="#0d6d4d" stroke-width="0.1" fill="none" />
<path d="M-1.1369090660692842,244.99736210370816 L-23.83740580267073,243.83760596880623" stroke="#0d6d4d" stroke-width="0.1" fill="none" />
<path d="M-3.4106292706305203,244.97625927419645 L-70.60959774064739,234.60452831713192" stroke="#0d6d4d" stroke-width="0.1" fill="none" />
<path d="M-5.684055700893804,244.93405543286366 L-114.70810898731915,216.48798981133646" stroke="#0d6d4d" stroke-width="0.1" fill="none" />
<path d="M-7.9569925354433435,244.87075421493458 L-154.46311926600578,190.1739855674684" stroke="#0d6d4d" stroke-width="0.1" fill="none" />
<path d="M-10.229243995034313,244.78636107285482 L-188.3692779336521,156.6589133460159" stroke="#0d6d4d" stroke-width="0.1" fill="none" />
<path d="M-12.50061435945661,244.68088327582143 L-215.14270511207232,117.21184426951012" stroke="#0d6d4d" stroke-width="0.1" fill="none" />
<path d="M-14.77090798439352,244.55432990915654 L-233.76960667727295,73.32646857685903" stroke="#0d6d4d" stroke-width="0.1" fill="none" />
<path d="M-17.039929318272772,244.406711873525 L-243.544662267047,26.664536021277783" stroke="#0d6d4d" stroke-width="0.1" fill="none" />
<path d="M-19.307482919111223,244.23804188399527 L-244.09773271868727,-21.007067420187546" stroke="#0d6d4d" stroke-width="0.1" fill="none" />
<path d="M-21.57337347134827,244.04833446894435 L-235.40787564143113,-67.8832238921259" stroke="#0d6d4d" stroke-width="0.1" fill="none" />
<path d="M-23.83740580267073,243.83760596880623 L-217.80413841440404,-112.18893568244211" stroke="#0d6d4d" stroke-width="0.1" fill="none" />
<path d="M-26.099384900821963,243.6058745346646 L-191.95309858265287,-152.24653672421695" stroke="#0d6d4d" stroke-width="0.1" fill="none" />
<path d="M-28.3591159304016,243.35316012668923 L-158.83362344269133,-186.53921856828214" stroke="#0d6d4d" stroke-width="0.1" fill="none" />
<path d="M-30.616404249645626,243.0794845124168 L-119.6998045631069,-213.76846537212643" stroke="#0d6d4d" stroke-width="0.1" fill="none" />
<path d="M-32.87105542719324,242.78487126487593 L-76.03347074994473,-232.903223090015" stroke="#0d6d4d" stroke-width="0.1" fill="none" />
<path d="M-35.12287525883331,242.4693457605568 L-29.488077585903316,-243.21894103931905" stroke="#0d6d4d" stroke-width="0.1" fill="none" />
<path d="M-37.37166978423249,242.1329351772251 L18.17390179570487,-244.32500750745936" stroke="#0d6d4d" stroke-width="0.1" fill="none" />
<path d="M-39.61724530364228,241.7756684915813 L65.14771396107528,-236.17954053144805" stroke="#0d6d4d" stroke-width="0.1" fill="none" />
<path d="M-41.85940839458257,241.39757647676487 L109.65466339851757,-219.09097378704996" stroke="#0d6d4d" stroke-width="0.1" fill="none" />
<path d="M-44.09796592850298,240.99869169970322 L150.0094640400262,-193.70637753678656" stroke="#0d6d4d" stroke-width="0.1" fill="none" />
<path d="M-46.33272508741697,240.57904851830685 L184.6840537704057,-160.9869568720705" stroke="#0d6d4d" stroke-width="0.1" fill="none" />
<path d="M-48.56349338051159,240.1386830785099 L212.36545554393544,-122.1716550252831" stroke="#0d6d4d" stroke-width="0.1" fill="none" />
<path d="M-50.79007866072567,239.6776333111567 L232.00549415783348,-78.73023993726616" stroke="#0d6d4d" stroke-width="0.1" fill="none" />
<path d="M-53.01228914130269,239.1959389287346 L242.86048612290412,-32.30765048942253" stroke="#0d6d4d" stroke-width="0.1" fill="none" />
<path d="M-55.229933412308434,238.6936414219532 L244.5193997472819,15.338290231604741" stroke="#0d6d4d" stroke-width="0.1" fill="none" />
<path d="M-57.44282045711893,238.17078405617093 L236.91941913244926,62.403436106858955" stroke="#0d6d4d" stroke-width="0.1" fill="none" />
<path d="M-59.65075966887381,237.62741186766786 L220.3483227401786,107.10563321128399" stroke="#0d6d4d" stroke-width="0.1" fill="none" />
<path d="M-61.85356086689357,237.06357165976704 L195.433586464335,147.75220229048128" stroke="#0d6d4d" stroke-width="0.1" fill="none" />
<path d="M-64.05103431306148,236.4793119988026 L163.11862382717598,182.80403321789225" stroke="#0d6d4d" stroke-width="0.1" fill="none" />
<path d="M-66.24299072816598,235.87468320993696 L124.62706298135815,210.9338644519665" stroke="#0d6d4d" stroke-width="0.1" fill="none" />
<path d="M-68.42924130820494,235.2497373728257 L81.41641319339335,231.076540701826" stroke="#0d6d4d" stroke-width="0.1" fill="none" />
<path d="M-70.60959774064739,234.60452831713192 L35.12287525883336,242.4693457605568" stroke="#0d6d4d" stroke-width="0.1" fill="none" />
<path d="M-72.78387222065507,233.93911161788947 L-12.50061435945661,244.68088327582143" stroke="#0d6d4d" stroke-width="0.1" fill="none" />
<path d="M-74.95187746725749,233.2535445907162 L-59.65075966887381,237.62741186766786" stroke="#0d6d4d" stroke-width="0.1" fill="none" />
<path d="M-77.11342673948467,232.5478862868767 L-104.54218818267681,221.57601605313195" stroke="#0d6d4d" stroke-width="0.1" fill="none" />
<path d="M-79.26833385245111,231.82219748819645 L-145.4750552697815,197.1344929084051" stroke="#0d6d4d" stroke-width="0.1" fill="none" />
<path d="M-81.4164131933933,231.07654070182602 L-180.89940993382965,165.2283374170189" stroke="#0d6d4d" stroke-width="0.1" fill="none" />
<path d="M-83.55747973765762,230.310980154857 L-209.47388476730418,127.06569796957073" stroke="#0d6d4d" stroke-width="0.1" fill="none" />
<path d="M-85.69134906463674,229.5255817887901 L-230.1164877454512,84.09162899895331" stroke="#0d6d4d" stroke-width="0.1" fill="none" />
<path d="M-87.81783737365556,228.72041325385496 L-242.0455725940112,37.933373006328736" stroke="#0d6d4d" stroke-width="0.1" fill="none" />
<path d="M-89.93676149980199,227.89554390318327 L-244.80943635977232,-9.66125608865528" stroke="#0d6d4d" stroke-width="0.1" fill="none" />
<path d="M-92.04793892970464,227.051044786835 L-238.30342345170513,-56.89005511684198" stroke="#0d6d4d" stroke-width="0.1" fill="none" />
<path d="M-94.15118781725278,226.18698864567872 L-222.77388849646488,-101.96467331465657" stroke="#0d6d4d" stroke-width="0.1" fill="none" />
<path d="M-96.24632699926073,225.30344990512546 L-198.80886795203122,-143.1783294483904" stroke="#0d6d4d" stroke-width="0.1" fill="none" />
<path d="M-98.33317601107103,224.40050466871887 L-167.31581370521025,-178.97044025247123" stroke="#0d6d4d" stroke-width="0.1" fill="none" />
<path d="M-100.41155510209985,223.47823071157953 L-129.48723178555414,-207.98571298171944" stroke="#0d6d4d" stroke-width="0.1" fill="none" />
<path d="M-102.48128525131916,222.53670747370592 L-86.75552730928402,-229.1254644977028" stroke="#0d6d4d" stroke-width="0.1" fill="none" />
<path d="M-104.54218818267681,221.57601605313195 L-40.73876548028958,-241.5892236568965" stroke="#0d6d4d" stroke-width="0.1" fill="none" />
<path d="M-106.5940863804527,220.59623919894145 L6.820597555021699,-244.90504169778217" stroke="#0d6d4d" stroke-width="0.1" fill="none" />
<path d="M-108.6368031045484,219.5974613041407 L54.12169400095217,-238.9473629033543" stroke="#0d6d4d" stroke-width="0.1" fill="none" />
<path d="M-110.67016240571148,218.57976839838918 L99.37343550277745,-223.94177885418193" stroke="#0d6d4d" stroke-width="0.1" fill="none" />
<path d="M-112.69398914068995,217.5432481405894 L140.8623339317907,-200.45648624898294" stroke="#0d6d4d" stroke-width="0.1" fill="none" />
<path d="M-114.70810898731915,216.48798981133646 L177.01738378473692,-169.3807717481744" stroke="#0d6d4d" stroke-width="0.1" fill="none" />
<path d="M-116.71234845953603,215.41408430522793 L206.46954938122522,-131.8913385265075" stroke="#0d6d4d" stroke-width="0.1" fill="none" />
<path d="M-118.7065349223235,214.32162412303427 L228.10360433571955,-89.40774960289237" stroke="#0d6d4d" stroke-width="0.1" fill="none" />
<path d="M-120.69049660657906,213.210703363732 L241.10036036706123,-43.53867511619081" stroke="#0d6d4d" stroke-width="0.1" fill="none" />
<path d="M-122.6640626239112,212.08141771639777 L244.96768642278005,3.979021069373039" stroke="#0d6d4d" stroke-width="0.1" fill="none" />
<path d="M-124.62706298135812,210.93386445196654 L239.55914355784563,51.34604890185329" stroke="#0d6d4d" stroke-width="0.1" fill="none" />
<path d="M-126.57932859603032,209.76814241485332 L225.07952994543535,96.76882348949924" stroke="#0d6d4d" stroke-width="0.1" fill="none" />
<path d="M-128.5206913096749,208.58435201443865 L202.0771260540949,138.52738041888125" stroke="#0d6d4d" stroke-width="0.1" fill="none" />
<path d="M-130.45098390315914,207.3825952164205 L171.42293363296005,175.0405033832735" stroke="#0d6d4d" stroke-width="0.1" fill="none" />
<path d="M-132.37004011087464,206.16297553403095 L134.27769463505794,204.92559801912046" stroke="#0d6d4d" stroke-width="0.1" fill="none" />
<path d="M-134.27769463505788,204.92559801912046 L92.0479389297046,227.05104478683504" stroke="#0d6d4d" stroke-width="0.1" fill="none" />
<path d="M-136.17378316002893,203.67056925310888 L46.332725087417124,240.57904851830682" stroke="#0d6d4d" stroke-width="0.1" fill="none" />
<path d="M-138.05814236634382,202.39799733780558 L-1.1369090660692842,244.99736210370816" stroke="#0d6d4d" stroke-width="0.1" fill="none" />
<path d="M-139.9306099448632,201.10799188609724 L-48.56349338051159,240.1386830785099" stroke="#0d6d4d" stroke-width="0.1" fill="none" />
<path d="M-141.79102461073157,199.8006640125075 L-94.15118781725278,226.18698864567872" stroke="#0d6d4d" stroke-width="0.1" fill="none" />
<path d="M-143.63922611727068,198.47612632362507 L-136.17378316002893,203.67056925310888" stroke="#0d6d4d" stroke-width="0.1" fill="none" />
<path d="M-145.4750552697815,197.1344929084051 L-173.0400651070785,173.442024514643" stroke="#0d6d4d" stroke-width="0.1" fill="none" />
<path d="M-147.29835393925677,195.77587932834177 L-203.3540666885276,136.6459789428063" stroke="#0d6d4d" stroke-width="0.1" fill="none" />
<path d="M-149.10896507600182,194.4004026075143 L-225.9679275100682,94.67573995910763" stroke="#0d6d4d" stroke-width="0.1" fill="none" />
<path d="M-150.90673272316127,193.0081812225077 L-240.02535827153318,49.120539355977535" stroke="#0d6d4d" stroke-width="0.1" fill="none" />
<path d="M-152.691502030153,191.5993350922069 L-244.9940647466568,1.7053559484565766" stroke="#0d6d4d" stroke-width="0.1" fill="none" />
<path d="M-154.46311926600578,190.1739855674684 L-240.68590346785984,-45.774401927934086" stroke="#0d6d4d" stroke-width="0.1" fill="none" />
<path d="M-156.22143183260127,188.7322554206671 L-227.2640059072753,-91.52088078126182" stroke="#0d6d4d" stroke-width="0.1" fill="none" />
<path d="M-157.96628827781745,187.2742688351218 L-205.23660139202983,-133.8018589147739" stroke="#0d6d4d" stroke-width="0.1" fill="none" />
<path d="M-159.6975383085749,185.80015139439809 L-175.43777265331673,-171.01633818569255" stroke="#0d6d4d" stroke-width="0.1" fill="none" />
<path d="M-161.4150328037812,184.31003007149184 L-138.9958727135514,-201.7551668944273" stroke="#0d6d4d" stroke-width="0.1" fill="none" />
<path d="M-163.11862382717587,182.80403321789237 L-97.29079902777003,-224.85439827705855" stroke="#0d6d4d" stroke-width="0.1" fill="none" />
<path d="M-164.8081646400735,181.28229055252592 L-51.90174272311485,-239.43936414529585" stroke="#0d6d4d" stroke-width="0.1" fill="none" />
<path d="M-166.48350971400197,179.74493315058373 L-4.547391447178672,-244.9577947954017" stroke="#0d6d4d" stroke-width="0.1" fill="none" />
<path d="M-168.1445147432385,178.19209343223076 L42.97914991476801,-241.2007310780875" stroke="#0d6d4d" stroke-width="0.1" fill="none" />
<path d="M-169.79103665723852,176.62390515120055 L88.87825638212851,-228.3104367795582" stroke="#0d6d4d" stroke-width="0.1" fill="none" />
<path d="M-171.42293363296,175.04050338327352 L131.4119269091993,-206.77501170598745" stroke="#0d6d4d" stroke-width="0.1" fill="none" />
<path d="M-173.0400651070785,173.442024514643 L168.9695949829652,-177.40990945066372" stroke="#0d6d4d" stroke-width="0.1" fill="none" />
<path d="M-174.64229178809526,171.82860623016703 L200.12911382519187,-141.3270596861882" stroke="#0d6d4d" stroke-width="0.1" fill="none" />
<path d="M-176.22947566833435,170.2003875015094 L223.7106069524468,-99.89276418724164" stroke="#0d6d4d" stroke-width="0.1" fill="none" />
<path d="M-177.80148003583096,168.5575085751685 L238.8211450057769,-54.67596087980234" stroke="#0d6d4d" stroke-width="0.1" fill="none" />
<path d="M-179.35816948610608,166.90011096039828 L244.8885571313443,-7.3888149339608455" stroke="#0d6d4d" stroke-width="0.1" fill="none" />
<path d="M-180.89940993382965,165.2283374170189 L241.6830966209761,40.178113540781574" stroke="#0d6d4d" stroke-width="0.1" fill="none" />
<path d="M-182.4250686243711,163.5423319431195 L229.3261404283379,86.22367027819128" stroke="#0d6d4d" stroke-width="0.1" fill="none" />
<path d="M-183.93501414523269,161.84223976265605 L208.28559314760287,129.00430879296727" stroke="#0d6d4d" stroke-width="0.1" fill="none" />
<path d="M-185.42911643736971,160.12820731294158 L179.35816948610605,166.90011096039828" stroke="#0d6d4d" stroke-width="0.1" fill="none" />
<path d="M-186.90724680639246,158.40038223203345 L143.63922611727082,198.47612632362498" stroke="#0d6d4d" stroke-width="0.1" fill="none" />
<path d="M-188.3692779336521,156.6589133460159 L102.48128525131922,222.5367074737059" stroke="#0d6d4d" stroke-width="0.1" fill="none" />
<path d="M-189.8150838872065,154.90395065618168 L57.44282045711898,238.1707840561709" stroke="#0d6d4d" stroke-width="0.1" fill="none" />
<path d="M-191.24454013266754,153.1356453261112 L10.229243995034267,244.78636107285482" stroke="#0d6d4d" stroke-width="0.1" fill="none" />
<path d="M-192.65752354392808,151.35414966865227 L-37.37166978423249,242.1329351772251" stroke="#0d6d4d" stroke-width="0.1" fill="none" />
<path d="M-194.05391241376765,149.55961713280024 L-83.55747973765762,230.310980154857" stroke="#0d6d4d" stroke-width="0.1" fill="none" />
<path d="M-195.43358646433495,147.75220229048136 L-126.57932859603032,209.76814241485332" stroke="#0d6d4d" stroke-width="0.1" fill="none" />
<path d="M-196.79642685750852,145.93206082323823 L-164.8081646400735,181.28229055252592" stroke="#0d6d4d" stroke-width="0.1" fill="none" />
<path d="M-198.14231620513274,144.09934950882044 L-196.79642685750852,145.93206082323823" stroke="#0d6d4d" stroke-width="0.1" fill="none" />
<path d="M-199.47113857912893,142.25422620768052 L-221.332857830423,105.0560138431768" stroke="#0d6d4d" stroke-width="0.1" fill="none" />
<path d="M-200.7827795214813,140.39684984937603 L-237.4883688254867,60.20194907650084" stroke="#0d6d4d" stroke-width="0.1" fill="none" />
<path d="M-202.07712605409478,138.52738041888142 L-244.65122037401818,13.068296350465415" stroke="#0d6d4d" stroke-width="0.1" fill="none" />
<path d="M-203.3540666885276,136.6459789428063 L-242.55018620518754,-34.560196351132774" stroke="#0d6d4d" stroke-width="0.1" fill="none" />
<path d="M-204.61349143559337,134.75280747552665 L-231.2648234141875,-80.88004359052162" stroke="#0d6d4d" stroke-width="0.1" fill="none" />
<path d="M-205.85529181483543,132.84802908522565 L-211.2224599784343,-124.13731268502119" stroke="#0d6d4d" stroke-width="0.1" fill="none" />
<path d="M-207.07936086387056,130.931807839848 L-183.1820136915558,-162.6940375671668" stroke="#0d6d4d" stroke-width="0.1" fill="none" />
<path d="M-208.28559314760278,129.00430879296744 L-148.20525522229542,-195.09024148966105" stroke="#0d6d4d" stroke-width="0.1" fill="none" />
<path d="M-209.47388476730418,127.06569796957073 L-107.61660344225237,-220.0992200430365" stroke="#0d6d4d" stroke-width="0.1" fill="none" />
<path d="M-210.64413336956474,125.11614235175661 L-62.95297539985655,-236.77399115676758" stroke="#0d6d4d" stroke-width="0.1" fill="none" />
<path d="M-211.79623815510837,123.15580986435278 L-15.905589905605149,-244.48315322278285" stroke="#0d6d4d" stroke-width="0.1" fill="none" />
<path d="M-212.9300998874752,121.18486936045205 L31.744071624414712,-242.93479354901805" stroke="#0d6d4d" stroke-width="0.1" fill="none" />
<path d="M-214.0456209015697,119.20349060686733 L78.19172218026992,-232.18754183306967" stroke="#0d6d4d" stroke-width="0.1" fill="none" />
<path d="M-215.14270511207232,117.21184426951012 L121.67858971932937,-212.6483501086127" stroke="#0d6d4d" stroke-width="0.1" fill="none" />
<path d="M-216.22125802171658,115.21010189868883 L160.55801427205756,-185.05708322842918" stroke="#0d6d4d" stroke-width="0.1" fill="none" />
<path d="M-217.281186729428,113.19843591433342 L193.35779984751412,-150.45850337594305" stroke="#0d6d4d" stroke-width="0.1" fill="none" />
<path d="M-218.32239993832633,111.17701959114342 L218.83596014103045,-110.16270943088375" stroke="#0d6d4d" stroke-width="0.1" fill="none" />
<path d="M-219.34480796358943,109.14602704366325 L236.02774719473032,-65.69552917954519" stroke="#0d6d4d" stroke-width="0.1" fill="none" />
<path d="M-220.34832274017853,107.10563321128411 L244.28218223851297,-18.74074280251261" stroke="#0d6d4d" stroke-width="0.1" fill="none" />
<path d="M-221.332857830423,105.0560138431768 L243.28670544623054,28.923674613006252" stroke="#0d6d4d" stroke-width="0.1" fill="none" />
<path d="M-222.2983284314664,102.99734548315269 L233.07901122718894,75.49287731538604" stroke="#0d6d4d" stroke-width="0.1" fill="none" />
<path d="M-223.24465138257037,100.92980545445742 L214.04562090156975,119.20349060686725" stroke="#0d6d4d" stroke-width="0.1" fill="none" />
<path d="M-224.17174517227812,98.85357184449738 L186.90724680639255,158.4003822320333" stroke="#0d6d4d" stroke-width="0.1" fill="none" />
<path d="M-225.07952994543535,96.7688234894993 L152.69150203015303,191.59933509220684" stroke="#0d6d4d" stroke-width="0.1" fill="none" />
<path d="M-225.9679275100682,94.67573995910763 L112.69398914069,217.54324814058938" stroke="#0d6d4d" stroke-width="0.1" fill="none" />
<path d="M-226.83686134411883,92.57450154091575 L68.42924130820488,235.2497373728257" stroke="#0d6d4d" stroke-width="0.1" fill="none" />
<path d="M-227.68625660203617,90.46528922493832 L21.573373471348436,244.04833446894432" stroke="#0d6d4d" stroke-width="0.1" fill="none" />
<path d="M-228.51604012122306,88.34828468802083 L-26.099384900821963,243.6058745346646" stroke="#0d6d4d" stroke-width="0.1" fill="none" />
<path d="M-229.32614042833785,86.22367027819139 L-72.78387222065507,233.93911161788947" stroke="#0d6d4d" stroke-width="0.1" fill="none" />
<path d="M-230.1164877454512,84.09162899895331 L-116.71234845953603,215.41408430522793" stroke="#0d6d4d" stroke-width="0.1" fill="none" />
<path d="M-230.88701399605583,81.95234449352338 L-156.22143183260127,188.7322554206671" stroke="#0d6d4d" stroke-width="0.1" fill="none" />
<path d="M-231.63765281093055,79.80600102901289 L-189.8150838872065,154.90395065618168" stroke="#0d6d4d" stroke-width="0.1" fill="none" />
<path d="M-232.36833953385707,77.6527834805561 L-216.22125802171658,115.21010189868883" stroke="#0d6d4d" stroke-width="0.1" fill="none" />
<path d="M-233.07901122718894,75.49287731538612 L-234.44006639972147,71.15374386843031" stroke="#0d6d4d" stroke-width="0.1" fill="none" />
<path d="M-233.76960667727295,73.32646857685903 L-243.78164138654384,24.40310068172772" stroke="#0d6d4d" stroke-width="0.1" fill="none" />
<path d="M-234.44006639972147,71.15374386843031 L-243.89225785885986,-23.27158259567684" stroke="#0d6d4d" stroke-width="0.1" fill="none" />
<path d="M-235.09033264453637,68.97489033758026 L-234.76772724832142,-70.06507148827977" stroke="#0d6d4d" stroke-width="0.1" fill="none" />
<path d="M-235.72034940108315,66.79009565969548 L-216.75355614456006,-114.20549854839321" stroke="#0d6d4d" stroke-width="0.1" fill="none" />
<path d="M-236.33006240291542,64.59954802190258 L-190.53186345196187,-154.0214563284056" stroke="#0d6d4d" stroke-width="0.1" fill="none" />
<path d="M-236.9194191324492,62.403436106859175 L-157.0955514910166,-188.00528636645657" stroke="#0d6d4d" stroke-width="0.1" fill="none" />
<path d="M-237.4883688254867,60.20194907650084 L-117.71070907314606,-214.8701677048193" stroke="#0d6d4d" stroke-width="0.1" fill="none" />
<path d="M-238.03686247558844,57.99527655574896 L-73.86867018228767,-233.59884324521045" stroke="#0d6d4d" stroke-width="0.1" fill="none" />
<path d="M-238.56485283829477,55.783608616176515 L-27.2295435940284,-243.48213888427404" stroke="#0d6d4d" stroke-width="0.1" fill="none" />
<path d="M-239.0722944351952,53.56713575963653 L20.440648278128954,-244.1458168758372" stroke="#0d6d4d" stroke-width="0.1" fill="none" />
<path d="M-239.55914355784563,51.3460489018534 L67.33684102881097,-235.56474659902028" stroke="#0d6d4d" stroke-width="0.1" fill="none" />
<path d="M-240.02535827153318,49.120539355977535 L111.68327825852961,-218.0638561463771" stroke="#0d6d4d" stroke-width="0.1" fill="none" />
<path d="M-240.47089841888825,46.8907988161081 L151.80075180376033,-192.30582869953045" stroke="#0d6d4d" stroke-width="0.1" fill="none" />
<path d="M-240.89572562334357,44.657019340779776 L186.17018610205895,-159.26600957745106" stroke="#0d6d4d" stroke-width="0.1" fill="none" />
<path d="M-241.29980329243946,42.41939333642127 L213.49015902676265,-120.19547411915141" stroke="#0d6d4d" stroke-width="0.1" fill="none" />
<path d="M-241.6830966209761,40.17811354078158 L232.72618112554423,-76.57365486066588" stroke="#0d6d4d" stroke-width="0.1" fill="none" />
<path d="M-242.0455725940112,37.933373006328736 L243.1498672707623,-30.052321810646983" stroke="#0d6d4d" stroke-width="0.1" fill="none" />
<path d="M-242.3871999897038,35.685365083621456 L244.3665174602859,17.60696295025903" stroke="#0d6d4d" stroke-width="0.1" fill="none" />
<path d="M-242.7079493820037,33.43428340465407 L236.33006240291542,64.59954802190258" stroke="#0d6d4d" stroke-width="0.1" fill="none" />
<path d="M-243.00779314318598,31.180321866179323 L219.34480796358952,109.14602704366311" stroke="#0d6d4d" stroke-width="0.1" fill="none" />
<path d="M-243.28670544623054,28.923674613006202 L194.05391241376776,149.55961713280007" stroke="#0d6d4d" stroke-width="0.1" fill="none" />
<path d="M-243.544662267047,26.664536021277783 L161.41503280378117,184.3100300714919" stroke="#0d6d4d" stroke-width="0.1" fill="none" />
<path d="M-243.78164138654384,24.40310068172772 L122.66406262391133,212.08141771639765" stroke="#0d6d4d" stroke-width="0.1" fill="none" />
<path d="M-243.99762239254227,22.139563382920763 L79.26833385245116,231.82219748819642" stroke="#0d6d4d" stroke-width="0.1" fill="none" />
<path d="M-244.19258668153444,19.874119094472874 L32.8710554271933,242.78487126487593" stroke="#0d6d4d" stroke-width="0.1" fill="none" />
<path d="M-244.36651746028588,17.60696295025909 L-14.77090798439352,244.55432990915654" stroke="#0d6d4d" stroke-width="0.1" fill="none" />
<path d="M-244.5193997472819,15.3382902316048 L-61.85356086689357,237.06357165976704" stroke="#0d6d4d" stroke-width="0.1" fill="none" />
<path d="M-244.65122037401818,13.068296350465415 L-106.5940863804527,220.59623919894145" stroke="#0d6d4d" stroke-width="0.1" fill="none" />
<path d="M-244.7619679861348,10.797176832594797 L-147.29835393925677,195.77587932834177" stroke="#0d6d4d" stroke-width="0.1" fill="none" />
<path d="M-244.85163304439448,8.525127300702792 L-182.4250686243711,163.5423319431195" stroke="#0d6d4d" stroke-width="0.1" fill="none" />
<path d="M-244.92020782550412,6.252343457606587 L-210.64413336956474,125.11614235175661" stroke="#0d6d4d" stroke-width="0.1" fill="none" />
<path d="M-244.96768642278005,3.9790210693729904 L-230.88701399605583,81.95234449352338" stroke="#0d6d4d" stroke-width="0.1" fill="none" />
<path d="M-244.9940647466568,1.7053559484565766 L-242.3871999897038,35.685365083621456" stroke="#0d6d4d" stroke-width="0.1" fill="none" />
<path d="M-244.99934052503946,-0.568456063167482 L-244.7092289456586,-11.932865071777163" stroke="#0d6d4d" stroke-width="0.1" fill="none" />
<path d="M-244.98351330349928,-2.8422191108707198 L-237.7651756500281,-59.09924913322742" stroke="#0d6d4d" stroke-width="0.1" fill="none" />
<path d="M-244.94658444531274,-5.115737344243048 L-221.81798142821268,-104.02779972254093" stroke="#0d6d4d" stroke-width="0.1" fill="none" />
<path d="M-244.8885571313443,-7.388814933960786 L-197.47149769185745,-145.01726655586475" stroke="#0d6d4d" stroke-width="0.1" fill="none" />
<path d="M-244.80943635977232,-9.66125608865528 L-165.64762069232108,-180.51555544875603" stroke="#0d6d4d" stroke-width="0.1" fill="none" />
<path d="M-244.7092289456586,-11.932865071777163 L-127.55138328885675,-209.17849942357643" stroke="#0d6d4d" stroke-width="0.1" fill="none" />
<path d="M-244.58794352036128,-14.20344621845588 L-84.62532555556558,-229.92075651105216" stroke="#0d6d4d" stroke-width="0.1" fill="none" />
<path d="M-244.44559053079132,-16.472803952354152 L-38.494872015285104,-241.95690696594468" stroke="#0d6d4d" stroke-width="0.1" fill="none" />
<path d="M-244.28218223851297,-18.740742802512607 L9.093216171203,-244.83119372266225" stroke="#0d6d4d" stroke-width="0.1" fill="none" />
<path d="M-244.09773271868727,-21.007067420187546 L56.336983510713274,-238.43477994813094" stroke="#0d6d4d" stroke-width="0.1" fill="none" />
<path d="M-243.89225785885986,-23.27158259567684 L101.44751245432963,-223.0098702228864" stroke="#0d6d4d" stroke-width="0.1" fill="none" />
<path d="M-243.66577535759242,-25.53409327513518 L142.71666198340296,-199.14053929904657" stroke="#0d6d4d" stroke-width="0.1" fill="none" />
<path d="M-243.41830472293836,-27.794404577373506 L178.58174753700774,-167.73061571051488" stroke="#0d6d4d" stroke-width="0.1" fill="none" />
<path d="M-243.14986727076231,-30.052321810646816 L207.68471313118422,-129.9694576876341" stroke="#0d6d4d" stroke-width="0.1" fill="none" />
<path d="M-242.86048612290415,-32.307650489422414 L228.9235550772174,-87.28691729467938" stroke="#0d6d4d" stroke-width="0.1" fill="none" />
<path d="M-242.55018620518754,-34.560196351132774 L241.49405010470483,-41.29919810391378" stroke="#0d6d4d" stroke-width="0.1" fill="none" />
<path d="M-242.2189942452727,-36.80976537290809 L244.92020782550412,6.252343457606581" stroke="#0d6d4d" stroke-width="0.1" fill="none" />
<path d="M-241.8669387703545,-39.05616378828825 L239.0722944351952,53.56713575963658" stroke="#0d6d4d" stroke-width="0.1" fill="none" />
<path d="M-241.49405010470483,-41.299198103913724 L224.17174517227815,98.85357184449728" stroke="#0d6d4d" stroke-width="0.1" fill="none" />
<path d="M-241.10036036706123,-43.5386751161908 L200.78277952148133,140.39684984937597" stroke="#0d6d4d" stroke-width="0.1" fill="none" />
<path d="M-240.68590346785984,-45.774401927934086 L169.79103665723855,176.62390515120052" stroke="#0d6d4d" stroke-width="0.1" fill="none" />
<path d="M-240.25071510631483,-48.00618596498116 L132.37004011087467,206.16297553403092" stroke="#0d6d4d" stroke-width="0.1" fill="none" />
<path d="M-239.7948327673431,-50.2338349927809 L89.93676149980203,227.89554390318327" stroke="#0d6d4d" stroke-width="0.1" fill="none" />
<path d="M-239.31829571833617,-52.457157132949995 L44.09796592850293,240.99869169970322" stroke="#0d6d4d" stroke-width="0.1" fill="none" />
<path d="M-238.82114500577694,-54.675960879802176 L-3.4106292706305203,244.97625927419645" stroke="#0d6d4d" stroke-width="0.1" fill="none" />
<path d="M-238.30342345170513,-56.89005511684198 L-50.79007866072567,239.6776333111567" stroke="#0d6d4d" stroke-width="0.1" fill="none" />
<path d="M-237.7651756500281,-59.09924913322742 L-96.24632699926073,225.30344990512546" stroke="#0d6d4d" stroke-width="0.1" fill="none" />
<path d="M-237.20644796268016,-61.303352640196685 L-138.05814236634382,202.39799733780558" stroke="#0d6d4d" stroke-width="0.1" fill="none" />
<path d="M-236.627288515629,-63.50217578745838 L-174.64229178809526,171.82860623016703" stroke="#0d6d4d" stroke-width="0.1" fill="none" />
<path d="M-236.02774719473035,-65.69552917954513 L-204.61349143559337,134.75280747552665" stroke="#0d6d4d" stroke-width="0.1" fill="none" />
<path d="M-235.40787564143113,-67.8832238921259 L-226.83686134411883,92.57450154091575" stroke="#0d6d4d" stroke-width="0.1" fill="none" />
<path d="M-234.76772724832142,-70.06507148827977 L-240.47089841888825,46.8907988161081" stroke="#0d6d4d" stroke-width="0.1" fill="none" />
<path d="M-234.10735715453538,-72.2408840347266 L-244.99934052503946,-0.568456063167482" stroke="#0d6d4d" stroke-width="0.1" fill="none" />
<path d="M-233.42682224100162,-74.41047411801536 L-240.25071510631483,-48.00618596498116" stroke="#0d6d4d" stroke-width="0.1" fill="none" />
<path d="M-232.7261811255443,-76.57365486066567 L-226.40483211063264,-93.6261288153913" stroke="#0d6d4d" stroke-width="0.1" fill="none" />
<path d="M-232.00549415783354,-78.730239937266 L-203.98597536348097,-135.70085428990245" stroke="#0d6d4d" stroke-width="0.1" fill="none" />
<path d="M-231.2648234141875,-80.88004359052162 L-173.84305020243386,-172.63717414367642" stroke="#0d6d4d" stroke-width="0.1" fill="none" />
<path d="M-230.50423269222568,-83.02288064725458 L-137.117439096183,-203.03646937361904" stroke="#0d6d4d" stroke-width="0.1" fill="none" />
<path d="M-229.72378750537297,-85.15856653435546 L-95.19978241704467,-225.7476498831103" stroke="#0d6d4d" stroke-width="0.1" fill="none" />
<path d="M-228.9235550772175,-87.28691729467923 L-49.67732089253942,-239.91074129546527" stroke="#0d6d4d" stroke-width="0.1" fill="none" />
<path d="M-228.10360433571958,-89.40774960289231 L-2.273793650112488,-244.98944847163665" stroke="#0d6d4d" stroke-width="0.1" fill="none" />
<path d="M-227.2640059072753,-91.52088078126182 L45.21583234337418,-240.79146269229705" stroke="#0d6d4d" stroke-width="0.1" fill="none" />
<path d="M-226.40483211063264,-93.6261288153913 L90.99332993298846,-227.47574355897004" stroke="#0d6d4d" stroke-width="0.1" fill="none" />
<path d="M-225.52615695066262,-95.72331236989815 L133.32530287632164,-205.54649988004442" stroke="#0d6d4d" stroke-width="0.1" fill="none" />
<path d="M-224.62805611198436,-97.81225080403374 L170.60882207725894,-175.8340974595377" stroke="#0d6d4d" stroke-width="0.1" fill="none" />
<path d="M-223.71060695244688,-99.89276418724144 L201.43212159205999,-139.46361672824054" stroke="#0d6d4d" stroke-width="0.1" fill="none" />
<path d="M-222.77388849646488,-101.96467331465657 L224.62805611198434,-97.8122508040338" stroke="#0d6d4d" stroke-width="0.1" fill="none" />
<path d="M-221.81798142821268,-104.02779972254093 L239.31829571833612,-52.457157132950215" stroke="#0d6d4d" stroke-width="0.1" fill="none" />
<path d="M-220.84296808467462,-106.08196570365472 L244.94658444531274,-5.115737344243162" stroke="#0d6d4d" stroke-width="0.1" fill="none" />
<path d="M-219.8489324485521,-108.12699432256494 L241.29980329243946,42.419393336421216" stroke="#0d6d4d" stroke-width="0.1" fill="none" />
<path d="M-218.83596014103054,-110.16270943088361 L228.51604012122306,88.34828468802083" stroke="#0d6d4d" stroke-width="0.1" fill="none" />
<path d="M-217.80413841440404,-112.18893568244211 L207.07936086387068,130.93180783984783" stroke="#0d6d4d" stroke-width="0.1" fill="none" />
<path d="M-216.75355614456006,-114.20549854839321 L177.80148003583102,168.55750857516844" stroke="#0d6d4d" stroke-width="0.1" fill="none" />
<path d="M-215.68430382332414,-116.21222433224486 L141.79102461073163,199.80066401250747" stroke="#0d6d4d" stroke-width="0.1" fill="none" />
<path d="M-214.5964735506653,-118.2089401848211 L100.41155510210001,223.47823071157944" stroke="#0d6d4d" stroke-width="0.1" fill="none" />
<path d="M-213.4901590267627,-120.19547411915133 L55.22993341230848,238.69364142195317" stroke="#0d6d4d" stroke-width="0.1" fill="none" />
<path d="M-212.36545554393558,-122.17165502528289 L7.956992535443405,244.87075421493458" stroke="#0d6d4d" stroke-width="0.1" fill="none" />
<path d="M-211.2224599784343,-124.13731268502119 L-39.61724530364228,241.7756684915813" stroke="#0d6d4d" stroke-width="0.1" fill="none" />
<path d="M-210.06127078209667,-126.09227778659032 L-85.69134906463674,229.5255817887901" stroke="#0d6d4d" stroke-width="0.1" fill="none" />
<path d="M-208.88198797386787,-128.0363819392165 L-128.5206913096749,208.58435201443865" stroke="#0d6d4d" stroke-width="0.1" fill="none" />
<path d="M-207.68471313118425,-129.9694576876341 L-166.48350971400197,179.74493315058373" stroke="#0d6d4d" stroke-width="0.1" fill="none" />
<path d="M-206.4695493812253,-131.89133852650735 L-198.14231620513274,144.09934950882044" stroke="#0d6d4d" stroke-width="0.1" fill="none" />
<path d="M-205.23660139202983,-133.8018589147739 L-222.2983284314664,102.99734548315269" stroke="#0d6d4d" stroke-width="0.1" fill="none" />
<path d="M-203.98597536348097,-135.70085428990245 L-238.03686247558844,57.99527655574896" stroke="#0d6d4d" stroke-width="0.1" fill="none" />
<path d="M-202.71777901815847,-137.58816108206793 L-244.7619679861348,10.797176832594797" stroke="#0d6d4d" stroke-width="0.1" fill="none" />
<path d="M-201.43212159206,-139.46361672824042 L-242.2189942452727,-36.80976537290809" stroke="#0d6d4d" stroke-width="0.1" fill="none" />
<path d="M-200.12911382519192,-141.3270596861881 L-230.50423269222568,-83.02288064725458" stroke="#0d6d4d" stroke-width="0.1" fill="none" />
<path d="M-198.80886795203122,-143.1783294483904 L-210.06127078209667,-126.09227778659032" stroke="#0d6d4d" stroke-width="0.1" fill="none" />
<path d="M-197.47149769185745,-145.01726655586475 L-181.66419524361888,-164.38710462347197" stroke="#0d6d4d" stroke-width="0.1" fill="none" />
<path d="M-196.11711823895826,-146.84371261190063 L-146.38828075596004,-196.45730135913556" stroke="#0d6d4d" stroke-width="0.1" fill="none" />
<path d="M-194.74584625270722,-148.6575102957026 L-105.56927393787606,-221.0885080691208" stroke="#0d6d4d" stroke-width="0.1" fill="none" />
<path d="M-193.35779984751414,-150.45850337594305 L-60.75281438879727,-237.34804727201856" stroke="#0d6d4d" stroke-width="0.1" fill="none" />
<path d="M-191.95309858265287,-152.24653672421695 L-13.635907988705343,-244.6202403999382" stroke="#0d6d4d" stroke-width="0.1" fill="none" />
<path d="M-190.53186345196187,-154.0214563284056 L33.99733138968432,-242.62972088839402" stroke="#0d6d4d" stroke-width="0.1" fill="none" />
<path d="M-189.09421687342322,-155.78310930594105 L80.34323857243693,-231.45186111952628" stroke="#0d6d4d" stroke-width="0.1" fill="none" />
<path d="M-187.6402826786178,-157.5313439169755 L123.6468940993018,-211.50991839532264" stroke="#0d6d4d" stroke-width="0.1" fill="none" />
<path d="M-186.17018610205906,-159.26600957745094 L162.26857544883958,-183.55900801051484" stroke="#0d6d4d" stroke-width="0.1" fill="none" />
<path d="M-184.68405377040577,-160.98695687207044 L194.7458462527072,-148.65751029570262" stroke="#0d6d4d" stroke-width="0.1" fill="none" />
<path d="M-183.1820136915558,-162.6940375671668 L219.8489324485521,-108.12699432256494" stroke="#0d6d4d" stroke-width="0.1" fill="none" />
<path d="M-181.66419524361888,-164.38710462347197 L236.62728851562898,-63.50217578745854" stroke="#0d6d4d" stroke-width="0.1" fill="none" />
<path d="M-180.13072916377394,-166.06601220878133 L244.44559053079132,-16.47280395235421" stroke="#0d6d4d" stroke-width="0.1" fill="none" />
<path d="M-178.58174753700783,-167.73061571051483 L243.00779314318598,31.180321866179316" stroke="#0d6d4d" stroke-width="0.1" fill="none" />
<path d="M-177.01738378473695,-169.3807717481744 L232.36833953385704,77.65278348055615" stroke="#0d6d4d" stroke-width="0.1" fill="none" />
<path d="M-175.43777265331673,-171.01633818569255 L212.93009988747525,121.18486936045198" stroke="#0d6d4d" stroke-width="0.1" fill="none" />
<path d="M-173.84305020243386,-172.63717414367642 L185.42911643736977,160.1282073129415" stroke="#0d6d4d" stroke-width="0.1" fill="none" />
<path d="M-172.23335379338786,-174.24314001154158 L150.9067327231613,193.00818122250766" stroke="#0d6d4d" stroke-width="0.1" fill="none" />
<path d="M-170.6088220772589,-175.83409745953773 L110.67016240571152,218.57976839838915" stroke="#0d6d4d" stroke-width="0.1" fill="none" />
<path d="M-168.9695949829653,-177.40990945066366 L66.24299072816602,235.87468320993696" stroke="#0d6d4d" stroke-width="0.1" fill="none" />
<path d="M-167.31581370521025,-178.97044025247123 L19.307482919111287,244.23804188399527" stroke="#0d6d4d" stroke-width="0.1" fill="none" />
<path d="M-165.64762069232108,-180.51555544875603 L-28.3591159304016,243.35316012668923" stroke="#0d6d4d" stroke-width="0.1" fill="none" />
<path d="M-163.96515963397826,-182.04512195113614 L-74.95187746725749,233.2535445907162" stroke="#0d6d4d" stroke-width="0.1" fill="none" />
<path d="M-162.2685754488395,-183.5590080105149 L-118.7065349223235,214.32162412303427" stroke="#0d6d4d" stroke-width="0.1" fill="none" />
<path d="M-160.55801427205756,-185.05708322842918 L-157.96628827781745,187.2742688351218" stroke="#0d6d4d" stroke-width="0.1" fill="none" />
<path d="M-158.83362344269133,-186.53921856828214 L-191.24454013266754,153.1356453261112" stroke="#0d6d4d" stroke-width="0.1" fill="none" />
<path d="M-157.0955514910166,-188.00528636645657 L-217.281186729428,113.19843591433342" stroke="#0d6d4d" stroke-width="0.1" fill="none" />
<path d="M-155.34394812573103,-189.45516034331234 L-235.09033264453637,68.97489033758026" stroke="#0d6d4d" stroke-width="0.1" fill="none" />
<path d="M-153.57896422105992,-190.88871561406242 L-243.99762239254227,22.139563382920763" stroke="#0d6d4d" stroke-width="0.1" fill="none" />
<path d="M-151.8007518037603,-192.30582869953048 L-243.66577535759242,-25.53409327513518" stroke="#0d6d4d" stroke-width="0.1" fill="none" />
<path d="M-150.00946404002627,-193.7063775367865 L-234.10735715453538,-72.2408840347266" stroke="#0d6d4d" stroke-width="0.1" fill="none" />
<path d="M-148.20525522229542,-195.09024148966105 L-215.68430382332414,-116.21222433224486" stroke="#0d6d4d" stroke-width="0.1" fill="none" />
<path d="M-146.38828075596004,-196.45730135913556 L-189.09421687342322,-155.78310930594105" stroke="#0d6d4d" stroke-width="0.1" fill="none" />
<path d="M-144.55869714597992,-197.8074393936104 L-155.34394812573103,-189.45516034331234" stroke="#0d6d4d" stroke-width="0.1" fill="none" />
<path d="M-142.71666198340287,-199.14053929904662 L-115.71147458003885,-215.95336221164285" stroke="#0d6d4d" stroke-width="0.1" fill="none" />
<path d="M-140.86233393179072,-200.4564862489829 L-71.69750694223374,-234.274342381466" stroke="#0d6d4d" stroke-width="0.1" fill="none" />
<path d="M-138.9958727135514,-201.7551668944273 L-24.968664187447143,-243.7243644133563" stroke="#0d6d4d" stroke-width="0.1" fill="none" />
<path d="M-137.117439096183,-203.03646937361904 L22.70563410683817,-243.94559676248798" stroke="#0d6d4d" stroke-width="0.1" fill="none" />
<path d="M-135.22719487842483,-204.30028332166484 L69.52016804276697,-234.92966231471377" stroke="#0d6d4d" stroke-width="0.1" fill="none" />
<path d="M-133.32530287632167,-205.54649988004442 L113.70227328769877,-217.01795559171933" stroke="#0d6d4d" stroke-width="0.1" fill="none" />
<path d="M-131.4119269091993,-206.77501170598748 L153.5789642210599,-190.88871561406242" stroke="#0d6d4d" stroke-width="0.1" fill="none" />
<path d="M-129.48723178555414,-207.98571298171944 L187.6402826786178,-157.5313439169755" stroke="#0d6d4d" stroke-width="0.1" fill="none" />
<path d="M-127.55138328885675,-209.17849942357643 L214.59647355066522,-118.20894018482123" stroke="#0d6d4d" stroke-width="0.1" fill="none" />
<path d="M-125.60454816327317,-210.35326829098707 L233.42682224100162,-74.41047411801536" stroke="#0d6d4d" stroke-width="0.1" fill="none" />
<path d="M-123.64689409930195,-211.50991839532256 L243.41830472293833,-27.794404577373726" stroke="#0d6d4d" stroke-width="0.1" fill="none" />
<path d="M-121.67858971932927,-212.64835010861273 L244.19258668153444,19.87411909447276" stroke="#0d6d4d" stroke-width="0.1" fill="none" />
<path d="M-119.6998045631069,-213.76846537212643 L235.72034940108315,66.79009565969542" stroke="#0d6d4d" stroke-width="0.1" fill="none" />
<path d="M-117.71070907314606,-214.8701677048193 L218.32239993832633,111.17701959114346" stroke="#0d6d4d" stroke-width="0.1" fill="none" />
<path d="M-115.71147458003885,-215.95336221164285 L192.65752354392822,151.35414966865213" stroke="#0d6d4d" stroke-width="0.1" fill="none" />
<path d="M-113.70227328769883,-217.01795559171927 L159.69753830857493,185.80015139439809" stroke="#0d6d4d" stroke-width="0.1" fill="none" />
<path d="M-111.68327825852964,-218.0638561463771 L120.69049660657912,213.21070336373197" stroke="#0d6d4d" stroke-width="0.1" fill="none" />
<path d="M-109.65466339851753,-219.09097378705 L77.11342673948481,232.54788628687663" stroke="#0d6d4d" stroke-width="0.1" fill="none" />
<path d="M-107.61660344225237,-220.0992200430365 L30.61640424964579,243.07948451241677" stroke="#0d6d4d" stroke-width="0.1" fill="none" />
<path d="M-105.56927393787606,-221.0885080691208 L-17.039929318272772,244.406711873525" stroke="#0d6d4d" stroke-width="0.1" fill="none" />
<path d="M-103.51285123196301,-222.05875265305235 L-64.05103431306148,236.4793119988026" stroke="#0d6d4d" stroke-width="0.1" fill="none" />
<path d="M-101.44751245432978,-223.00987022288632 L-108.6368031045484,219.5974613041407" stroke="#0d6d4d" stroke-width="0.1" fill="none" />
<path d="M-99.37343550277734,-223.941778854182 L-149.10896507600182,194.4004026075143" stroke="#0d6d4d" stroke-width="0.1" fill="none" />
<path d="M-97.29079902777003,-224.85439827705855 L-183.93501414523269,161.84223976265605" stroke="#0d6d4d" stroke-width="0.1" fill="none" />
<path d="M-95.19978241704467,-225.7476498831103 L-211.79623815510837,123.15580986435278" stroke="#0d6d4d" stroke-width="0.1" fill="none" />
<path d="M-93.1005657801615,-226.62145673217665 L-231.63765281093055,79.80600102901289" stroke="#0d6d4d" stroke-width="0.1" fill="none" />
<path d="M-90.99332993298854,-227.47574355897 L-242.7079493820037,33.43428340465407" stroke="#0d6d4d" stroke-width="0.1" fill="none" />
<path d="M-88.87825638212854,-228.31043677955816 L-244.58794352036128,-14.20344621845588" stroke="#0d6d4d" stroke-width="0.1" fill="none" />
<path d="M-86.75552730928402,-229.1254644977028 L-237.20644796268016,-61.303352640196685" stroke="#0d6d4d" stroke-width="0.1" fill="none" />
<path d="M-84.62532555556558,-229.92075651105216 L-220.84296808467462,-106.08196570365472" stroke="#0d6d4d" stroke-width="0.1" fill="none" />
<path d="M-82.48783460574198,-230.69624431718813 L-196.11711823895826,-146.84371261190063" stroke="#0d6d4d" stroke-width="0.1" fill="none" />
<path d="M-80.34323857243695,-231.45186111952628 L-163.96515963397826,-182.04512195113614" stroke="#0d6d4d" stroke-width="0.1" fill="none" />
<path d="M-78.19172218027008,-232.18754183306964 L-125.60454816327317,-210.35326829098707" stroke="#0d6d4d" stroke-width="0.1" fill="none" />
<path d="M-76.03347074994473,-232.903223090015 L-82.48783460574198,-230.69624431718813" stroke="#0d6d4d" stroke-width="0.1" fill="none" />
<path d="M-73.86867018228767,-233.59884324521045 L-36.2476627973503,-242.30374933485777" stroke="#0d6d4d" stroke-width="0.1" fill="none" />
<path d="M-71.69750694223374,-234.274342381466 L11.36505154388761,-244.73625723093173" stroke="#0d6d4d" stroke-width="0.1" fill="none" />
<path d="M-69.52016804276712,-234.9296623147137 L58.547420438601584,-237.90165943092035" stroke="#0d6d4d" stroke-width="0.1" fill="none" />
<path d="M-67.33684102881107,-235.56474659902028 L103.51285123196301,-222.05875265305235" stroke="#0d6d4d" stroke-width="0.1" fill="none" />
<path d="M-65.14771396107531,-236.17954053144803 L144.55869714597983,-197.80743939361048" stroke="#0d6d4d" stroke-width="0.1" fill="none" />
<path d="M-62.95297539985655,-236.77399115676758 L180.13072916377402,-166.06601220878127" stroke="#0d6d4d" stroke-width="0.1" fill="none" />
<path d="M-60.75281438879727,-237.34804727201856 L208.88198797386784,-128.0363819392165" stroke="#0d6d4d" stroke-width="0.1" fill="none" />
<path d="M-58.54742043860165,-237.90165943092035 L229.723787505373,-85.15856653435542" stroke="#0d6d4d" stroke-width="0.1" fill="none" />
<path d="M-56.3369835107135,-238.43477994813088 L241.86693877035447,-39.05616378828842" stroke="#0d6d4d" stroke-width="0.1" fill="none" />
<path d="M-54.12169400095213,-238.9473629033543 L244.85163304439448,8.525127300702732" stroke="#0d6d4d" stroke-width="0.1" fill="none" />
<path d="M-51.90174272311485,-239.43936414529585 L238.56485283829477,55.78360861617651" stroke="#0d6d4d" stroke-width="0.1" fill="none" />
<path d="M-49.67732089253942,-239.91074129546527 L223.24465138257034,100.92980545445748" stroke="#0d6d4d" stroke-width="0.1" fill="none" />
<path d="M-47.44862010963408,-240.3614537518269 L199.471138579129,142.25422620768043" stroke="#0d6d4d" stroke-width="0.1" fill="none" />
<path d="M-45.215832343374124,-240.79146269229705 L168.14451474323852,178.19209343223073" stroke="#0d6d4d" stroke-width="0.1" fill="none" />
<path d="M-42.979149914768115,-241.2007310780875 L130.45098390315917,207.38259521642047" stroke="#0d6d4d" stroke-width="0.1" fill="none" />
<path d="M-40.73876548028958,-241.5892236568965 L87.8178373736556,228.72041325385493" stroke="#0d6d4d" stroke-width="0.1" fill="none" />
<path d="M-38.494872015285104,-241.95690696594468 L41.859408394582616,241.39757647676487" stroke="#0d6d4d" stroke-width="0.1" fill="none" />
<path d="M-36.2476627973503,-242.30374933485777 L-5.684055700893804,244.93405543286366" stroke="#0d6d4d" stroke-width="0.1" fill="none" />
<path d="M-33.997331389684405,-242.629720888394 L-53.01228914130269,239.1959389287346" stroke="#0d6d4d" stroke-width="0.1" fill="none" />
<path d="M-31.74407162441495,-242.93479354901802 L-98.33317601107103,224.40050466871887" stroke="#0d6d4d" stroke-width="0.1" fill="none" />
<path d="M-29.488077585903316,-243.21894103931905 L-139.9306099448632,201.10799188609724" stroke="#0d6d4d" stroke-width="0.1" fill="none" />
<path d="M-27.2295435940284,-243.48213888427404 L-176.22947566833435,170.2003875015094" stroke="#0d6d4d" stroke-width="0.1" fill="none" />
<path d="M-24.968664187447143,-243.7243644133563 L-205.85529181483543,132.84802908522565" stroke="#0d6d4d" stroke-width="0.1" fill="none" />
<path d="M-22.705634106838385,-243.94559676248795 L-227.68625660203617,90.46528922493832" stroke="#0d6d4d" stroke-width="0.1" fill="none" />
<path d="M-20.440648278128897,-244.1458168758372 L-240.89572562334357,44.657019340779776" stroke="#0d6d4d" stroke-width="0.1" fill="none" />
<path d="M-18.17390179570497,-244.32500750745936 L-244.98351330349928,-2.8422191108707198" stroke="#0d6d4d" stroke-width="0.1" fill="none" />
<path d="M-15.905589905605149,-244.48315322278285 L-239.7948327673431,-50.2338349927809" stroke="#0d6d4d" stroke-width="0.1" fill="none" />
<path d="M-13.635907988705343,-244.6202403999382 L-225.52615695066262,-95.72331236989815" stroke="#0d6d4d" stroke-width="0.1" fill="none" />
<path d="M-11.36505154388753,-244.73625723093173 L-202.71777901815847,-137.58816108206793" stroke="#0d6d4d" stroke-width="0.1" fill="none" />
<path d="M-9.093216171203078,-244.83119372266225 L-172.23335379338786,-174.24314001154158" stroke="#0d6d4d" stroke-width="0.1" fill="none" />
<path d="M-6.820597555021937,-244.90504169778217 L-135.22719487842483,-204.30028332166484" stroke="#0d6d4d" stroke-width="0.1" fill="none" />
<path d="M-4.547391447178672,-244.9577947954017 L-93.1005657801615,-226.62145673217665" stroke="#0d6d4d" stroke-width="0.1" fill="none" />
<path d="M-2.273793650112488,-244.98944847163665 L-47.44862010963408,-240.3614537518269" stroke="#0d6d4d" stroke-width="0.1" fill="none" />
</svg>