<?xml version="1.0" encoding="UTF-8"?>
<svg xmlns="http://www.w3.org/2000/svg" xmlns:xlink="http://www.w3.org/1999/xlink"
     width="500.0" height="500" viewBox="-250.0 -250.0 500 500">
<defs>
</defs>
<circle cx="0" cy="0" r="245.0" fill="white" stroke-width="2" stroke="black" />
<path d="M0.0,-245.0 L0.0,-245.0" stroke="#0d6d4d" stroke-width="0.1" fill="none" />
<path d="M2.3253131243406875,-244.98896489204114 L48.509626085928645,-240.14957042852146" stroke="#0d6d4d" stroke-width="0.1" fill="none" />
<path d="M4.650416778629414,-244.95586056223485 L95.09849686680786,-225.79033613880318" stroke="#0d6d4d" stroke-width="0.1" fill="none" />
<path d="M6.975101511683808,-244.90068999270238 L137.9219100035571,-202.49085594409124" stroke="#0d6d4d" stroke-width="0.1" fill="none" />
<path d="M9.299157910058971,-244.82345815334727 L175.28425774572628,-171.17368076468355" stroke="#0d6d4d" stroke-width="0.1" fill="none" />
<path d="M11.622376616911984,-244.72417200140785 L205.70616510271557,-133.0788249073996" stroke="#0d6d4d" stroke-width="0.1" fill="none" />
<path d="M13.944548350861272,-244.60284048083025 L227.98306620460565,-89.7146672732302" stroke="#0d6d4d" stroke-width="0.1" fill="none" />
<path d="M16.26546392483922,-244.45947452146285 L241.23289950147392,-42.79822657671442" stroke="#0d6d4d" stroke-width="0.1" fill="none" />
<path d="M18.584914264936256,-244.29408703807172 L244.93103329339968,5.812824599756794" stroke="#0d6d4d" stroke-width="0.1" fill="none" />
<path d="M20.902690429234767,-244.10669292917714 L238.93103870280217,54.19371498984038" stroke="#0d6d4d" stroke-width="0.1" fill="none" />
<path d="M23.218583626631094,-243.8973090757115 L223.47048757613808,100.42878662257701" stroke="#0d6d4d" stroke-width="0.1" fill="none" />
<path d="M25.53238523564398,-243.6659543394987 L199.16154574504932,142.68734595766583" stroke="#0d6d4d" stroke-width="0.1" fill="none" />
<path d="M27.84388682320771,-243.41264956155504 L166.9667341100164,179.29615082492734" stroke="#0d6d4d" stroke-width="0.1" fill="none" />
<path d="M30.152880163448266,-243.13741756021167 L128.16081729473512,208.80566302269082" stroke="#0d6d4d" stroke-width="0.1" fill="none" />
<path d="M32.45915725644087,-242.8402831290592 L84.2803289030356,230.04744328072013" stroke="#0d6d4d" stroke-width="0.1" fill="none" />
<path d="M34.76251034694712,-242.5212730347142 L37.06273194313005,242.1804160144079" stroke="#0d6d4d" stroke-width="0.1" fill="none" />
<path d="M37.06273194313011,-242.1804160144079 L-11.622376616912035,244.72417200140785" stroke="#0d6d4d" stroke-width="0.1" fill="none" />
<path d="M39.359614835245814,-241.8177427733976 L-59.847293183210915,237.57799034978555" stroke="#0d6d4d" stroke-width="0.1" fill="none" />
<path d="M41.65295211430907,-241.43328598220063 L-105.70253562192802,221.02482657632612" stroke="#0d6d4d" stroke-width="0.1" fill="none" />
<path d="M43.94253719073242,-241.0270802736512 L-147.37244986014807,195.720108885669" stroke="#0d6d4d" stroke-width="0.1" fill="none" />
<path d="M46.22816381293631,-240.59916223978072 L-183.2071013324671,162.66578626544407" stroke="#0d6d4d" stroke-width="0.1" fill="none" />
<path d="M48.509626085928645,-240.14957042852146 L-211.7876047067627,123.170655971997" stroke="#0d6d4d" stroke-width="0.1" fill="none" />
<path d="M50.786718489852376,-239.67834534023405 L-231.98230513622323,78.79854125352963" stroke="#0d6d4d" stroke-width="0.1" fill="none" />
<path d="M53.0592358984993,-239.185529424059 L-242.99158652166344,31.306371231507256" stroke="#0d6d4d" stroke-width="0.1" fill="none" />
<path d="M55.326973597788225,-238.67116707409306 L-244.37953258559216,-17.42538531130686" stroke="#0d6d4d" stroke-width="0.1" fill="none" />
<path d="M57.58972730420623,-238.13530462538972 L-236.09118712693098,-65.4671777381343" stroke="#0d6d4d" stroke-width="0.1" fill="none" />
<path d="M59.84729318321097,-237.57799034978552 L-218.45473003067028,-110.91677477833079" stroke="#0d6d4d" stroke-width="0.1" fill="none" />
<path d="M62.099467867592686,-236.99927445155149 L-192.16848287261274,-151.97458402785102" stroke="#0d6d4d" stroke-width="0.1" fill="none" />
<path d="M64.34604847579395,-236.39920906287054 L-158.27325863674707,-187.01490742853997" stroke="#0d6d4d" stroke-width="0.1" fill="none" />
<path d="M66.58683263018575,-235.77784823914146 L-118.11115036769,-214.65031134107613" stroke="#0d6d4d" stroke-width="0.1" fill="none" />
<path d="M68.82161847529828,-235.13524795410933 L-73.27239053565485,-233.78656245642193" stroke="#0d6d4d" stroke-width="0.1" fill="none" />
<path d="M71.05020469600446,-234.47146609482328 L-25.53238523564409,-243.6659543394987" stroke="#0d6d4d" stroke-width="0.1" fill="none" />
<path d="M73.27239053565498,-233.7865624564219 L23.218583626631094,-243.8973090757115" stroke="#0d6d4d" stroke-width="0.1" fill="none" />
<path d="M75.48797581416292,-233.08059873674674 L71.05020469600446,-234.47146609482328" stroke="#0d6d4d" stroke-width="0.1" fill="none" />
<path d="M77.69676094603656,-232.35363853078448 L116.0685685089117,-215.7616448868799" stroke="#0d6d4d" stroke-width="0.1" fill="none" />
<path d="M79.8985469583584,-231.60574732493794 L156.49115748904498,-188.5086672483229" stroke="#0d6d4d" stroke-width="0.1" fill="none" />
<path d="M82.09313550870931,-230.83699249112718 L190.71742534297607,-153.791624188531" stroke="#0d6d4d" stroke-width="0.1" fill="none" />
<path d="M84.28032890303555,-230.04744328072013 L217.3921712403372,-112.98514895070018" stroke="#0d6d4d" stroke-width="0.1" fill="none" />
<path d="M86.45993011345769,-229.2371708182947 L235.4591994561305,-67.70498793647444" stroke="#0d6d4d" stroke-width="0.1" fill="none" />
<path d="M88.6317427960193,-228.40624809523115 L244.20313980319992,-19.74402467225951" stroke="#0d6d4d" stroke-width="0.1" fill="none" />
<path d="M90.79557130837406,-227.55474996313737 L243.27777296047876,28.998710029754072" stroke="#0d6d4d" stroke-width="0.1" fill="none" />
<path d="M92.95122072740988,-226.68275312710566 L232.71973914591308,76.59323084880391" stroke="#0d6d4d" stroke-width="0.1" fill="none" />
<path d="M95.09849686680786,-225.79033613880318 L212.94708733444858,121.15501638716711" stroke="#0d6d4d" stroke-width="0.1" fill="none" />
<path d="M97.23720629453521,-224.87757938939578 L184.7427224652924,160.91962744212387" stroke="#0d6d4d" stroke-width="0.1" fill="none" />
<path d="M99.36715635027011,-223.94456510230603 L149.2234060519639,194.31257058216974" stroke="#0d6d4d" stroke-width="0.1" fill="none" />
<path d="M101.48815516275694,-222.9913773258064 L107.79553762662569,220.01164075518076" stroke="#0d6d4d" stroke-width="0.1" fill="none" />
<path d="M103.60001166709057,-222.0181019254482 L62.09946786759277,236.99927445155146" stroke="#0d6d4d" stroke-width="0.1" fill="none" />
<path d="M105.70253562192799,-221.02482657632615 L13.944548350861378,244.60284048083025" stroke="#0d6d4d" stroke-width="0.1" fill="none" />
<path d="M107.79553762662572,-220.01164075518076 L-34.76251034694701,242.52127303471423" stroke="#0d6d4d" stroke-width="0.1" fill="none" />
<path d="M109.87882913830146,-218.97863573233798 L-82.0931355087093,230.83699249112718" stroke="#0d6d4d" stroke-width="0.1" fill="none" />
<path d="M111.95222248881856,-217.92590456348705 L-126.17325477588504,210.01264195104923" stroke="#0d6d4d" stroke-width="0.1" fill="none" />
<path d="M114.0155309016916,-216.8535420812983 L-165.2575006871862,180.87276872604306" stroke="#0d6d4d" stroke-width="0.1" fill="none" />
<path d="M116.0685685089117,-215.7616448868799 L-197.79831910263604,144.57117610426974" stroke="#0d6d4d" stroke-width="0.1" fill="none" />
<path d="M118.11115036768994,-214.65031134107616 L-222.50724514123561,102.54523811303032" stroke="#0d6d4d" stroke-width="0.1" fill="none" />
<path d="M120.14309247711756,-213.51964155560674 L-238.405920390437,56.45898620050318" stroke="#0d6d4d" stroke-width="0.1" fill="none" />
<path d="M122.16421179474115,-212.36973738404825 L-244.86483134349692,8.137221339056701" stroke="#0d6d4d" stroke-width="0.1" fill="none" />
<path d="M124.17432625305156,-211.20070241265938 L-241.62823520297644,-40.50673959596224" stroke="#0d6d4d" stroke-width="0.1" fill="none" />
<path d="M126.17325477588504,-210.01264195104923 L-228.82428610463802,-87.54682226501865" stroke="#0d6d4d" stroke-width="0.1" fill="none" />
<path d="M128.16081729473512,-208.80566302269085 L-206.95996081042708,-131.12045843935448" stroke="#0d6d4d" stroke-width="0.1" fill="none" />
<path d="M130.13683476497337,-207.57987435528045 L-176.90098478946544,-169.50233502969013" stroke="#0d6d4d" stroke-width="0.1" fill="none" />
<path d="M132.10112918197856,-206.33538637094273 L-139.8375535207776,-201.1727084505343" stroke="#0d6d4d" stroke-width="0.1" fill="none" />
<path d="M134.05352359717145,-205.07231117628385 L-97.23720629453514,-224.8775793893958" stroke="#0d6d4d" stroke-width="0.1" fill="none" />
<path d="M135.99384213395484,-203.79076255229276 L-50.78671848985254,-239.67834534023402" stroke="#0d6d4d" stroke-width="0.1" fill="none" />
<path d="M137.9219100035571,-202.49085594409124 L-2.3253131243406333,-244.98896489204114" stroke="#0d6d4d" stroke-width="0.1" fill="none" />
<path d="M139.83755352077748,-201.17270845053434 L46.22816381293631,-240.59916223978072" stroke="#0d6d4d" stroke-width="0.1" fill="none" />
<path d="M141.7406001196321,-199.83643881366217 L92.95122072740988,-226.68275312710566" stroke="#0d6d4d" stroke-width="0.1" fill="none" />
<path d="M143.63087836889923,-198.48216740800288 L135.99384213395484,-203.79076255229276" stroke="#0d6d4d" stroke-width="0.1" fill="none" />
<path d="M145.508217987562,-197.11001622972927 L173.6517406553935,-172.82960674419172" stroke="#0d6d4d" stroke-width="0.1" fill="none" />
<path d="M147.37244986014815,-195.72010888566896 L204.43383886651674,-135.02520330034343" stroke="#0d6d4d" stroke-width="0.1" fill="none" />
<path d="M149.22340605196393,-194.3125705821697 L227.1213090168315,-91.8744305586757" stroke="#0d6d4d" stroke-width="0.1" fill="none" />
<path d="M151.0609198242224,-192.8875281138204 L240.81583293393692,-45.085858185623856" stroke="#0d6d4d" stroke-width="0.1" fill="none" />
<path d="M152.88482564906352,-191.445109852029 L244.975171240079,3.487904226603852" stroke="#0d6d4d" stroke-width="0.1" fill="none" />
<path d="M154.6949592244654,-189.9854457334587 L239.4346335065403,51.92356187309107" stroke="#0d6d4d" stroke-width="0.1" fill="none" />
<path d="M156.49115748904498,-188.5086672483229 L224.41359922772614,98.30328825455187" stroke="#0d6d4d" stroke-width="0.1" fill="none" />
<path d="M158.27325863674702,-187.01490742854 L200.50683141473974,140.79066217622932" stroke="#0d6d4d" stroke-width="0.1" fill="none" />
<path d="M160.04110213142,-185.5043008357499 L168.660926749692,177.70338147580372" stroke="#0d6d4d" stroke-width="0.1" fill="none" />
<path d="M161.79452872127771,-183.9769835491919 L130.1368347649734,207.57987435528042" stroke="#0d6d4d" stroke-width="0.1" fill="none" />
<path d="M163.5333804532449,-182.43309315344698 L86.45993011345773,229.2371708182947" stroke="#0d6d4d" stroke-width="0.1" fill="none" />
<path d="M165.2575006871861,-180.87276872604312 L39.35961483524586,241.8177427733976" stroke="#0d6d4d" stroke-width="0.1" fill="none" />
<path d="M166.9667341100164,-179.29615082492734 L-9.29915791005892,244.82345815334727" stroke="#0d6d4d" stroke-width="0.1" fill="none" />
<path d="M168.660926749692,-177.70338147580375 L-57.58972730420627,238.13530462538972" stroke="#0d6d4d" stroke-width="0.1" fill="none" />
<path d="M170.3399259890809,-176.09460415933944 L-103.6000116670905,222.01810192544824" stroke="#0d6d4d" stroke-width="0.1" fill="none" />
<path d="M172.00358057971067,-174.46996379823943 L-145.50821798756203,197.11001622972924" stroke="#0d6d4d" stroke-width="0.1" fill="none" />
<path d="M173.6517406553935,-172.82960674419172 L-181.65497644338024,164.39729174580393" stroke="#0d6d4d" stroke-width="0.1" fill="none" />
<path d="M175.28425774572628,-171.17368076468355 L-210.6090437192214,125.175200034492" stroke="#0d6d4d" stroke-width="0.1" fill="none" />
<path d="M176.9009847894655,-169.50233502969004 L-231.22397357729483,80.99675328756373" stroke="#0d6d4d" stroke-width="0.1" fill="none" />
<path d="M178.50177614777468,-167.81572009823677 L-242.68351078986566,33.61121227663714" stroke="#0d6d4d" stroke-width="0.1" fill="none" />
<path d="M180.08648761734395,-166.11398790483665 L-244.53391104533117,-15.105176227838781" stroke="#0d6d4d" stroke-width="0.1" fill="none" />
<path d="M181.65497644338026,-164.3972917458039 L-236.7019071100736,-63.223470091842444" stroke="#0d6d4d" stroke-width="0.1" fill="none" />
<path d="M183.2071013324671,-162.66578626544407 L-219.49760986973803,-108.83840894405009" stroke="#0d6d4d" stroke-width="0.1" fill="none" />
<path d="M184.74272246529242,-160.91962744212387 L-193.60222938221017,-150.1438536145855" stroke="#0d6d4d" stroke-width="0.1" fill="none" />
<path d="M186.26170150924412,-159.1589725742198 L-160.04110213142,-185.5043008357499" stroke="#0d6d4d" stroke-width="0.1" fill="none" />
<path d="M187.7639016308713,-157.3839802659486 L-120.14309247711772,-213.51964155560663" stroke="#0d6d4d" stroke-width="0.1" fill="none" />
<path d="M189.2491875082105,-155.59481041307959 L-75.48797581416292,-233.08059873674677" stroke="#0d6d4d" stroke-width="0.1" fill="none" />
<path d="M190.71742534297607,-153.791624188531 L-27.843886823207917,-243.412649561555" stroke="#0d6d4d" stroke-width="0.1" fill="none" />
<path d="M192.16848287261269,-151.97458402785108 L20.902690429234767,-244.10669292917714" stroke="#0d6d4d" stroke-width="0.1" fill="none" />
<path d="M193.6022293822102,-150.14385361458548 L68.82161847529828,-235.13524795410933" stroke="#0d6d4d" stroke-width="0.1" fill="none" />
<path d="M195.01853571627862,-148.29959786553215 L114.0155309016916,-216.8535420812983" stroke="#0d6d4d" stroke-width="0.1" fill="none" />
<path d="M196.41727429038298,-146.44198291588538 L154.6949592244654,-189.9854457334587" stroke="#0d6d4d" stroke-width="0.1" fill="none" />
<path d="M197.79831910263607,-144.57117610426968 L189.2491875082105,-155.59481041307959" stroke="#0d6d4d" stroke-width="0.1" fill="none" />
<path d="M199.16154574504932,-142.68734595766585 L216.31002921670574,-115.0433451368131" stroke="#0d6d4d" stroke-width="0.1" fill="none" />
<path d="M200.50683141473974,-140.79066217622935 L234.80600102871045,-69.93669909929426" stroke="#0d6d4d" stroke-width="0.1" fill="none" />
<path d="M201.8340549249922,-138.88129561800335 L244.00474858805978,-22.06088544183413" stroke="#0d6d4d" stroke-width="0.1" fill="none" />
<path d="M203.1430967161763,-136.95941828352744 L243.54204432591763,26.688436551300114" stroke="#0d6d4d" stroke-width="0.1" fill="none" />
<path d="M204.43383886651674,-135.02520330034343 L233.43620917645492,74.3810207332918" stroke="#0d6d4d" stroke-width="0.1" fill="none" />
<path d="M205.70616510271557,-133.0788249073996 L214.08738715316912,119.12846285388342" stroke="#0d6d4d" stroke-width="0.1" fill="none" />
<path d="M206.959960810427,-131.1204584393546 L186.26170150924418,159.15897257421975" stroke="#0d6d4d" stroke-width="0.1" fill="none" />
<path d="M208.1951130445817,-129.1502803107831 L151.06091982422245,192.88752811382034" stroke="#0d6d4d" stroke-width="0.1" fill="none" />
<path d="M209.41151053956122,-127.16846800028391 L109.87882913830153,218.97863573233792" stroke="#0d6d4d" stroke-width="0.1" fill="none" />
<path d="M210.60904371922135,-125.17520003449211 L64.34604847579402,236.3992090628705" stroke="#0d6d4d" stroke-width="0.1" fill="none" />
<path d="M211.7876047067627,-123.17065597199696 L16.26546392483932,244.45947452146285" stroke="#0d6d4d" stroke-width="0.1" fill="none" />
<path d="M212.9470873344486,-121.15501638716705 L-32.45915725644087,242.8402831290592" stroke="#0d6d4d" stroke-width="0.1" fill="none" />
<path d="M214.08738715316912,-119.12846285388336 L-79.8985469583584,231.60574732493794" stroke="#0d6d4d" stroke-width="0.1" fill="none" />
<path d="M215.20840144184993,-117.09117792918286 L-124.17432625305153,211.20070241265938" stroke="#0d6d4d" stroke-width="0.1" fill="none" />
<path d="M216.31002921670574,-115.0433451368131 L-163.53338045324486,182.433093153447" stroke="#0d6d4d" stroke-width="0.1" fill="none" />
<path d="M217.3921712403372,-112.98514895070018 L-196.41727429038303,146.4419829158853" stroke="#0d6d4d" stroke-width="0.1" fill="none" />
<path d="M218.45473003067028,-110.91677477833083 L-221.52395869431868,104.65245207064088" stroke="#0d6d4d" stroke-width="0.1" fill="none" />
<path d="M219.49760986973794,-108.83840894405024 L-237.8593258734226,58.71917144375383" stroke="#0d6d4d" stroke-width="0.1" fill="none" />
<path d="M220.5207168123026,-106.75023867227766 L-244.7765713540089,10.460885057001652" stroke="#0d6d4d" stroke-width="0.1" fill="none" />
<path d="M221.52395869431874,-104.65245207064075 L-242.00180442561057,-38.211603666275565" stroke="#0d6d4d" stroke-width="0.1" fill="none" />
<path d="M222.50724514123561,-102.5452381130303 L-229.6448929377254,-85.37109081896895" stroke="#0d6d4d" stroke-width="0.1" fill="none" />
<path d="M223.4704875761381,-100.428786622577 L-208.1951130445817,-129.15028031078307" stroke="#0d6d4d" stroke-width="0.1" fill="none" />
<path d="M224.41359922772614,-98.30328825455184 L-178.50177614777473,-167.8157200982367" stroke="#0d6d4d" stroke-width="0.1" fill="none" />
<path d="M225.33649513813123,-96.16893447919118 L-141.7406001196323,-199.83643881366203" stroke="#0d6d4d" stroke-width="0.1" fill="none" />
<path d="M226.2390921705696,-94.02591756444876 L-99.36715635027014,-223.944565102306" stroke="#0d6d4d" stroke-width="0.1" fill="none" />
<path d="M227.1213090168315,-91.8744305586757 L-53.059235898499345,-239.185529424059" stroke="#0d6d4d" stroke-width="0.1" fill="none" />
<path d="M227.98306620460565,-89.7146672732302 L-4.650416778629681,-244.95586056223485" stroke="#0d6d4d" stroke-width="0.1" fill="none" />
<path d="M228.82428610463805,-87.54682226501856 L43.94253719073242,-241.0270802736512" stroke="#0d6d4d" stroke-width="0.1" fill="none" />
<path d="M229.6448929377254,-85.37109081896895 L90.79557130837406,-227.55474996313737" stroke="#0d6d4d" stroke-width="0.1" fill="none" />
<path d="M230.44481278154115,-83.18766893043976 L134.05352359717145,-205.07231117628385" stroke="#0d6d4d" stroke-width="0.1" fill="none" />
<path d="M231.22397357729486,-80.99675328756366 L172.00358057971067,-174.46996379823943" stroke="#0d6d4d" stroke-width="0.1" fill="none" />
<path d="M231.98230513622323,-78.7985412535296 L203.1430967161763,-136.95941828352744" stroke="#0d6d4d" stroke-width="0.1" fill="none" />
<path d="M232.71973914591308,-76.59323084880388 L226.2390921705696,-94.02591756444876" stroke="#0d6d4d" stroke-width="0.1" fill="none" />
<path d="M233.43620917645492,-74.38102073329179 L240.3770730707703,-47.369428347084344" stroke="#0d6d4d" stroke-width="0.1" fill="none" />
<path d="M234.1316506864272,-72.16211018844187 L244.99724120747777,1.16266965426976" stroke="#0d6d4d" stroke-width="0.1" fill="none" />
<path d="M234.80600102871045,-69.93669909929426 L239.91665943656554,49.648731351354996" stroke="#0d6d4d" stroke-width="0.1" fill="none" />
<path d="M235.4591994561305,-67.70498793647444 L225.33649513813123,96.16893447919121" stroke="#0d6d4d" stroke-width="0.1" fill="none" />
<path d="M236.09118712693095,-65.46717773813432 L201.83405492499227,138.8812956180032" stroke="#0d6d4d" stroke-width="0.1" fill="none" />
<path d="M236.70190711007362,-63.22347009184239 L170.3399259890809,176.0946041593394" stroke="#0d6d4d" stroke-width="0.1" fill="none" />
<path d="M237.29130439036706,-60.974067116423946 L132.1011291819786,206.3353863709427" stroke="#0d6d4d" stroke-width="0.1" fill="none" />
<path d="M237.8593258734226,-58.7191714437539 L88.63174279601932,228.40624809523115" stroke="#0d6d4d" stroke-width="0.1" fill="none" />
<path d="M238.40592039043702,-56.458986200503155 L41.6529521143091,241.43328598220063" stroke="#0d6d4d" stroke-width="0.1" fill="none" />
<path d="M238.93103870280217,-54.19371498984035 L-6.97510151168387,244.90068999270238" stroke="#0d6d4d" stroke-width="0.1" fill="none" />
<path d="M239.43463350654034,-51.92356187309104 L-55.326973597788175,238.67116707409306" stroke="#0d6d4d" stroke-width="0.1" fill="none" />
<path d="M239.91665943656557,-49.648731351354975 L-101.48815516275698,222.99137732580638" stroke="#0d6d4d" stroke-width="0.1" fill="none" />
<path d="M240.3770730707703,-47.369428347084344 L-143.63087836889915,198.4821674080029" stroke="#0d6d4d" stroke-width="0.1" fill="none" />
<path d="M240.81583293393692,-45.085858185623856 L-180.08648761734398,166.11398790483662" stroke="#0d6d4d" stroke-width="0.1" fill="none" />
<path d="M241.23289950147392,-42.79822657671442 L-209.41151053956125,127.16846800028388" stroke="#0d6d4d" stroke-width="0.1" fill="none" />
<path d="M241.6282352029764,-40.50673959596235 L-230.44481278154115,83.18766893043973" stroke="#0d6d4d" stroke-width="0.1" fill="none" />
<path d="M242.00180442561057,-38.21160366627557 L-242.35357351732168,35.91302553926846" stroke="#0d6d4d" stroke-width="0.1" fill="none" />
<path d="M242.35357351732168,-35.91302553926848 L-244.66626127561722,-12.783606432122657" stroke="#0d6d4d" stroke-width="0.1" fill="none" />
<path d="M242.68351078986564,-33.61121227663727 L-237.29130439036706,-60.97406711642389" stroke="#0d6d4d" stroke-width="0.1" fill="none" />
<path d="M242.99158652166344,-31.306371231507278 L-220.5207168123026,-106.75023867227762" stroke="#0d6d4d" stroke-width="0.1" fill="none" />
<path d="M243.27777296047876,-28.998710029754044 L-195.01853571627868,-148.2995978655321" stroke="#0d6d4d" stroke-width="0.1" fill="none" />
<path d="M243.54204432591763,-26.688436551300086 L-161.79452872127777,-183.97698354919186" stroke="#0d6d4d" stroke-width="0.1" fill="none" />
<path d="M243.78437681175117,-24.375758911388193 L-122.16421179474119,-212.36973738404822" stroke="#0d6d4d" stroke-width="0.1" fill="none" />
<path d="M244.00474858805978,-22.06088544183413 L-77.69676094603663,-232.35363853078445" stroke="#0d6d4d" stroke-width="0.1" fill="none" />
<path d="M244.20313980319992,-19.74402467225951 L-30.15288016344836,-243.13741756021167" stroke="#0d6d4d" stroke-width="0.1" fill="none" />
<path d="M244.37953258559216,-17.425385311306865 L18.584914264936256,-244.29408703807172" stroke="#0d6d4d" stroke-width="0.1" fill="none" />
<path d="M244.53391104533114,-15.10517622783895 L66.58683263018575,-235.77784823914146" stroke="#0d6d4d" stroke-width="0.1" fill="none" />
<path d="M244.66626127561722,-12.783606432122717 L111.95222248881856,-217.92590456348705" stroke="#0d6d4d" stroke-width="0.1" fill="none" />
<path d="M244.7765713540089,-10.460885057001732 L152.88482564906352,-191.445109852029" stroke="#0d6d4d" stroke-width="0.1" fill="none" />
<path d="M244.86483134349692,-8.137221339056673 L187.7639016308713,-157.3839802659486" stroke="#0d6d4d" stroke-width="0.1" fill="none" />
<path d="M244.93103329339968,-5.8128245997568255 L215.20840144184993,-117.09117792918286" stroke="#0d6d4d" stroke-width="0.1" fill="none" />
<path d="M244.975171240079,-3.4879042266038818 L234.1316506864272,-72.16211018844187" stroke="#0d6d4d" stroke-width="0.1" fill="none" />
<path d="M244.99724120747777,-1.1626696542697903 L243.78437681175117,-24.375758911388193" stroke="#0d6d4d" stroke-width="0.1" fill="none" />
<path d="M244.99724120747777,1.16266965426976 L243.78437681175117,24.37575891138811" stroke="#0d6d4d" stroke-width="0.1" fill="none" />
<path d="M244.975171240079,3.487904226603852 L234.1316506864272,72.16211018844184" stroke="#0d6d4d" stroke-width="0.1" fill="none" />
<path d="M244.93103329339968,5.812824599756794 L215.20840144185,117.09117792918279" stroke="#0d6d4d" stroke-width="0.1" fill="none" />
<path d="M244.86483134349692,8.137221339056643 L187.76390163087135,157.3839802659485" stroke="#0d6d4d" stroke-width="0.1" fill="none" />
<path d="M244.7765713540089,10.460885057001702 L152.88482564906357,191.44510985202893" stroke="#0d6d4d" stroke-width="0.1" fill="none" />
<path d="M244.66626127561722,12.783606432122685 L111.95222248881863,217.92590456348702" stroke="#0d6d4d" stroke-width="0.1" fill="none" />
<path d="M244.53391104533114,15.105176227838864 L66.58683263018584,235.77784823914143" stroke="#0d6d4d" stroke-width="0.1" fill="none" />
<path d="M244.37953258559216,17.42538531130684 L18.58491426493635,244.29408703807172" stroke="#0d6d4d" stroke-width="0.1" fill="none" />
<path d="M244.20313980319992,19.744024672259428 L-30.152880163448163,243.1374175602117" stroke="#0d6d4d" stroke-width="0.1" fill="none" />
<path d="M244.00474858805978,22.06088544183405 L-77.69676094603656,232.35363853078448" stroke="#0d6d4d" stroke-width="0.1" fill="none" />
<path d="M243.78437681175117,24.37575891138811 L-122.16421179474112,212.36973738404828" stroke="#0d6d4d" stroke-width="0.1" fill="none" />
<path d="M243.54204432591763,26.688436551300114 L-161.7945287212778,183.97698354919186" stroke="#0d6d4d" stroke-width="0.1" fill="none" />
<path d="M243.27777296047876,28.998710029754072 L-195.01853571627862,148.29959786553218" stroke="#0d6d4d" stroke-width="0.1" fill="none" />
<path d="M242.99158652166344,31.30637123150725 L-220.52071681230257,106.75023867227769" stroke="#0d6d4d" stroke-width="0.1" fill="none" />
<path d="M242.68351078986564,33.61121227663724 L-237.29130439036706,60.97406711642397" stroke="#0d6d4d" stroke-width="0.1" fill="none" />
<path d="M242.35357351732168,35.91302553926845 L-244.66626127561722,12.783606432122745" stroke="#0d6d4d" stroke-width="0.1" fill="none" />
<path d="M242.00180442561057,38.21160366627554 L-242.3535735173217,-35.91302553926837" stroke="#0d6d4d" stroke-width="0.1" fill="none" />
<path d="M241.62823520297644,40.50673959596233 L-230.44481278154117,-83.18766893043964" stroke="#0d6d4d" stroke-width="0.1" fill="none" />
<path d="M241.23289950147392,42.79822657671439 L-209.4115105395613,-127.1684680002838" stroke="#0d6d4d" stroke-width="0.1" fill="none" />
<path d="M240.81583293393695,45.08585818562378 L-180.08648761734406,-166.11398790483656" stroke="#0d6d4d" stroke-width="0.1" fill="none" />
<path d="M240.3770730707703,47.36942834708427 L-143.63087836889932,-198.4821674080028" stroke="#0d6d4d" stroke-width="0.1" fill="none" />
<path d="M239.91665943656554,49.648731351354996 L-101.48815516275705,-222.99137732580635" stroke="#0d6d4d" stroke-width="0.1" fill="none" />
<path d="M239.4346335065403,51.92356187309107 L-55.32697359778837,-238.67116707409303" stroke="#0d6d4d" stroke-width="0.1" fill="none" />
<path d="M238.93103870280217,54.19371498984038 L-6.97510151168396,-244.90068999270238" stroke="#0d6d4d" stroke-width="0.1" fill="none" />
<path d="M238.40592039043702,56.458986200503126 L41.65295211430907,-241.43328598220063" stroke="#0d6d4d" stroke-width="0.1" fill="none" />
<path d="M237.8593258734226,58.71917144375387 L88.6317427960193,-228.40624809523115" stroke="#0d6d4d" stroke-width="0.1" fill="none" />
<path d="M237.29130439036706,60.97406711642392 L132.10112918197856,-206.33538637094273" stroke="#0d6d4d" stroke-width="0.1" fill="none" />
<path d="M236.70190711007362,63.22347009184236 L170.3399259890809,-176.09460415933944" stroke="#0d6d4d" stroke-width="0.1" fill="none" />
<path d="M236.09118712693095,65.4671777381343 L201.8340549249922,-138.88129561800335" stroke="#0d6d4d" stroke-width="0.1" fill="none" />
<path d="M235.4591994561305,67.70498793647441 L225.33649513813123,-96.16893447919118" stroke="#0d6d4d" stroke-width="0.1" fill="none" />
<path d="M234.80600102871045,69.93669909929423 L239.91665943656557,-49.648731351354975" stroke="#0d6d4d" stroke-width="0.1" fill="none" />
<path d="M234.1316506864272,72.16211018844184 L244.99724120747777,-1.1626696542697903" stroke="#0d6d4d" stroke-width="0.1" fill="none" />
<path d="M233.43620917645492,74.3810207332918 L240.3770730707703,47.36942834708427" stroke="#0d6d4d" stroke-width="0.1" fill="none" />
<path d="M232.71973914591308,76.59323084880391 L226.23909217056962,94.02591756444873" stroke="#0d6d4d" stroke-width="0.1" fill="none" />
<path d="M231.98230513622323,78.79854125352963 L203.1430967161764,136.95941828352733" stroke="#0d6d4d" stroke-width="0.1" fill="none" />
<path d="M231.22397357729486,80.99675328756364 L172.0035805797107,174.4699637982394" stroke="#0d6d4d" stroke-width="0.1" fill="none" />
<path d="M230.44481278154115,83.18766893043973 L134.05352359717145,205.07231117628385" stroke="#0d6d4d" stroke-width="0.1" fill="none" />
<path d="M229.6448929377254,85.37109081896892 L90.7955713083741,227.55474996313734" stroke="#0d6d4d" stroke-width="0.1" fill="none" />
<path d="M228.82428610463808,87.54682226501853 L43.94253719073246,241.0270802736512" stroke="#0d6d4d" stroke-width="0.1" fill="none" />
<path d="M227.98306620460568,89.71466727323018 L-4.650416778629373,244.95586056223485" stroke="#0d6d4d" stroke-width="0.1" fill="none" />
<path d="M227.12130901683153,91.87443055867567 L-53.05923589849937,239.185529424059" stroke="#0d6d4d" stroke-width="0.1" fill="none" />
<path d="M226.23909217056962,94.02591756444873 L-99.36715635027006,223.94456510230603" stroke="#0d6d4d" stroke-width="0.1" fill="none" />
<path d="M225.33649513813123,96.16893447919121 L-141.74060011963215,199.83643881366214" stroke="#0d6d4d" stroke-width="0.1" fill="none" />
<path d="M224.41359922772614,98.30328825455187 L-178.50177614777462,167.8157200982368" stroke="#0d6d4d" stroke-width="0.1" fill="none" />
<path d="M223.47048757613808,100.42878662257701 L-208.19511304458175,129.150280310783" stroke="#0d6d4d" stroke-width="0.1" fill="none" />
<path d="M222.50724514123564,102.54523811303028 L-229.64489293772536,85.37109081896904" stroke="#0d6d4d" stroke-width="0.1" fill="none" />
<path d="M221.52395869431876,104.65245207064072 L-242.00180442561057,38.211603666275664" stroke="#0d6d4d" stroke-width="0.1" fill="none" />
<path d="M220.5207168123026,106.75023867227763 L-244.7765713540089,-10.460885057001564" stroke="#0d6d4d" stroke-width="0.1" fill="none" />
<path d="M219.49760986973797,108.83840894405022 L-237.85932587342262,-58.71917144375374" stroke="#0d6d4d" stroke-width="0.1" fill="none" />
<path d="M218.45473003067028,110.9167747783308 L-221.52395869431882,-104.65245207064059" stroke="#0d6d4d" stroke-width="0.1" fill="none" />
<path d="M217.3921712403372,112.98514895070015 L-196.4172742903831,-146.4419829158852" stroke="#0d6d4d" stroke-width="0.1" fill="none" />
<path d="M216.3100292167058,115.04334513681304 L-163.53338045324486,-182.433093153447" stroke="#0d6d4d" stroke-width="0.1" fill="none" />
<path d="M215.20840144185,117.09117792918279 L-124.17432625305169,-211.20070241265933" stroke="#0d6d4d" stroke-width="0.1" fill="none" />
<path d="M214.08738715316912,119.12846285388342 L-79.89854695835837,-231.60574732493794" stroke="#0d6d4d" stroke-width="0.1" fill="none" />
<path d="M212.94708733444858,121.15501638716711 L-32.45915725644107,-242.8402831290592" stroke="#0d6d4d" stroke-width="0.1" fill="none" />
<path d="M211.7876047067627,123.17065597199702 L16.26546392483922,-244.45947452146285" stroke="#0d6d4d" stroke-width="0.1" fill="none" />
<path d="M210.60904371922135,125.17520003449211 L64.34604847579395,-236.39920906287054" stroke="#0d6d4d" stroke-width="0.1" fill="none" />
<path d="M209.41151053956122,127.16846800028391 L109.87882913830146,-218.97863573233798" stroke="#0d6d4d" stroke-width="0.1" fill="none" />
<path d="M208.1951130445817,129.1502803107831 L151.0609198242224,-192.8875281138204" stroke="#0d6d4d" stroke-width="0.1" fill="none" />
<path d="M206.95996081042705,131.1204584393545 L186.26170150924412,-159.1589725742198" stroke="#0d6d4d" stroke-width="0.1" fill="none" />
<path d="M205.70616510271563,133.0788249073995 L214.08738715316912,-119.12846285388336" stroke="#0d6d4d" stroke-width="0.1" fill="none" />
<path d="M204.4338388665168,135.02520330034338 L233.43620917645492,-74.38102073329179" stroke="#0d6d4d" stroke-width="0.1" fill="none" />
<path d="M203.1430967161764,136.95941828352733 L243.54204432591763,-26.688436551300086" stroke="#0d6d4d" stroke-width="0.1" fill="none" />
<path d="M201.83405492499227,138.8812956180032 L244.00474858805978,22.06088544183405" stroke="#0d6d4d" stroke-width="0.1" fill="none" />
<path d="M200.50683141473974,140.79066217622932 L234.80600102871045,69.93669909929423" stroke="#0d6d4d" stroke-width="0.1" fill="none" />
<path d="M199.16154574504932,142.68734595766583 L216.3100292167058,115.04334513681304" stroke="#0d6d4d" stroke-width="0.1" fill="none" />
<path d="M197.7983191026361,144.57117610426965 L189.24918750821058,155.59481041307953" stroke="#0d6d4d" stroke-width="0.1" fill="none" />
<path d="M196.417274290383,146.44198291588532 L154.69495922446544,189.98544573345868" stroke="#0d6d4d" stroke-width="0.1" fill="none" />
<path d="M195.01853571627868,148.29959786553212 L114.01553090169166,216.85354208129826" stroke="#0d6d4d" stroke-width="0.1" fill="none" />
<path d="M193.60222938221023,150.14385361458545 L68.82161847529837,235.13524795410933" stroke="#0d6d4d" stroke-width="0.1" fill="none" />
<path d="M192.1684828726127,151.97458402785105 L20.902690429234852,244.10669292917714" stroke="#0d6d4d" stroke-width="0.1" fill="none" />
<path d="M190.7174253429761,153.79162418853093 L-27.84388682320772,243.41264956155504" stroke="#0d6d4d" stroke-width="0.1" fill="none" />
<path d="M189.24918750821058,155.59481041307953 L-75.48797581416292,233.08059873674674" stroke="#0d6d4d" stroke-width="0.1" fill="none" />
<path d="M187.76390163087135,157.3839802659485 L-120.14309247711756,213.51964155560674" stroke="#0d6d4d" stroke-width="0.1" fill="none" />
<path d="M186.26170150924418,159.15897257421975 L-160.04110213142,185.5043008357499" stroke="#0d6d4d" stroke-width="0.1" fill="none" />
<path d="M184.7427224652924,160.91962744212387 L-193.60222938221023,150.14385361458542" stroke="#0d6d4d" stroke-width="0.1" fill="none" />
<path d="M183.20710133246706,162.66578626544407 L-219.497609869738,108.83840894405016" stroke="#0d6d4d" stroke-width="0.1" fill="none" />
<path d="M181.65497644338026,164.39729174580387 L-236.70190711007356,63.22347009184252" stroke="#0d6d4d" stroke-width="0.1" fill="none" />
<path d="M180.08648761734398,166.11398790483665 L-244.53391104533114,15.10517622783887" stroke="#0d6d4d" stroke-width="0.1" fill="none" />
<path d="M178.5017761477747,167.81572009823674 L-242.68351078986566,-33.61121227663704" stroke="#0d6d4d" stroke-width="0.1" fill="none" />
<path d="M176.9009847894655,169.50233502969004 L-231.22397357729486,-80.99675328756366" stroke="#0d6d4d" stroke-width="0.1" fill="none" />
<path d="M175.28425774572628,171.17368076468355 L-210.60904371922146,-125.1752000344919" stroke="#0d6d4d" stroke-width="0.1" fill="none" />
<path d="M173.6517406553935,172.82960674419172 L-181.6549764433803,-164.39729174580384" stroke="#0d6d4d" stroke-width="0.1" fill="none" />
<path d="M172.0035805797107,174.4699637982394 L-145.5082179875622,-197.11001622972913" stroke="#0d6d4d" stroke-width="0.1" fill="none" />
<path d="M170.3399259890809,176.0946041593394 L-103.60001166709057,-222.01810192544818" stroke="#0d6d4d" stroke-width="0.1" fill="none" />
<path d="M168.660926749692,177.70338147580372 L-57.58972730420625,-238.13530462538972" stroke="#0d6d4d" stroke-width="0.1" fill="none" />
<path d="M166.9667341100164,179.29615082492734 L-9.299157910059009,-244.82345815334727" stroke="#0d6d4d" stroke-width="0.1" fill="none" />
<path d="M165.25750068718614,180.87276872604312 L39.359614835245814,-241.8177427733976" stroke="#0d6d4d" stroke-width="0.1" fill="none" />
<path d="M163.53338045324492,182.43309315344695 L86.45993011345769,-229.2371708182947" stroke="#0d6d4d" stroke-width="0.1" fill="none" />
<path d="M161.79452872127774,183.97698354919189 L130.13683476497337,-207.57987435528045" stroke="#0d6d4d" stroke-width="0.1" fill="none" />
<path d="M160.04110213142005,185.50430083574983 L168.660926749692,-177.70338147580375" stroke="#0d6d4d" stroke-width="0.1" fill="none" />
<path d="M158.27325863674704,187.01490742853997 L200.50683141473974,-140.79066217622935" stroke="#0d6d4d" stroke-width="0.1" fill="none" />
<path d="M156.491157489045,188.50866724832284 L224.41359922772614,-98.30328825455184" stroke="#0d6d4d" stroke-width="0.1" fill="none" />
<path d="M154.69495922446544,189.98544573345868 L239.43463350654034,-51.92356187309104" stroke="#0d6d4d" stroke-width="0.1" fill="none" />
<path d="M152.88482564906357,191.44510985202893 L244.975171240079,-3.4879042266038818" stroke="#0d6d4d" stroke-width="0.1" fill="none" />
<path d="M151.06091982422245,192.88752811382034 L240.81583293393695,45.08585818562378" stroke="#0d6d4d" stroke-width="0.1" fill="none" />
<path d="M149.2234060519639,194.31257058216974 L227.12130901683153,91.87443055867567" stroke="#0d6d4d" stroke-width="0.1" fill="none" />
<path d="M147.37244986014812,195.72010888566896 L204.4338388665168,135.02520330034338" stroke="#0d6d4d" stroke-width="0.1" fill="none" />
<path d="M145.508217987562,197.1100162297293 L173.6517406553935,172.82960674419172" stroke="#0d6d4d" stroke-width="0.1" fill="none" />
<path d="M143.6308783688992,198.4821674080029 L135.99384213395484,203.79076255229276" stroke="#0d6d4d" stroke-width="0.1" fill="none" />
<path d="M141.7406001196321,199.83643881366217 L92.9512207274099,226.68275312710566" stroke="#0d6d4d" stroke-width="0.1" fill="none" />
<path d="M139.83755352077748,201.17270845053434 L46.22816381293633,240.59916223978072" stroke="#0d6d4d" stroke-width="0.1" fill="none" />
<path d="M137.9219100035571,202.49085594409124 L-2.3253131243407608,244.98896489204114" stroke="#0d6d4d" stroke-width="0.1" fill="none" />
<path d="M135.99384213395484,203.79076255229276 L-50.78671848985235,239.67834534023405" stroke="#0d6d4d" stroke-width="0.1" fill="none" />
<path d="M134.05352359717145,205.07231117628385 L-97.23720629453528,224.87757938939575" stroke="#0d6d4d" stroke-width="0.1" fill="none" />
<path d="M132.1011291819786,206.3353863709427 L-139.83755352077742,201.17270845053437" stroke="#0d6d4d" stroke-width="0.1" fill="none" />
<path d="M130.1368347649734,207.57987435528042 L-176.90098478946553,169.50233502969004" stroke="#0d6d4d" stroke-width="0.1" fill="none" />
<path d="M128.16081729473512,208.80566302269082 L-206.95996081042702,131.12045843935456" stroke="#0d6d4d" stroke-width="0.1" fill="none" />
<path d="M126.17325477588507,210.0126419510492 L-228.824286104638,87.54682226501873" stroke="#0d6d4d" stroke-width="0.1" fill="none" />
<path d="M124.17432625305159,211.20070241265938 L-241.62823520297644,40.50673959596234" stroke="#0d6d4d" stroke-width="0.1" fill="none" />
<path d="M122.16421179474118,212.36973738404825 L-244.86483134349692,-8.137221339056614" stroke="#0d6d4d" stroke-width="0.1" fill="none" />
<path d="M120.1430924771176,213.5196415556067 L-238.40592039043702,-56.45898620050309" stroke="#0d6d4d" stroke-width="0.1" fill="none" />
<path d="M118.11115036769,214.65031134107613 L-222.50724514123564,-102.54523811303025" stroke="#0d6d4d" stroke-width="0.1" fill="none" />
<path d="M116.06856850891175,215.76164488687988 L-197.79831910263613,-144.57117610426965" stroke="#0d6d4d" stroke-width="0.1" fill="none" />
<path d="M114.01553090169166,216.85354208129826 L-165.25750068718617,-180.8727687260431" stroke="#0d6d4d" stroke-width="0.1" fill="none" />
<path d="M111.95222248881863,217.92590456348702 L-126.1732547758851,-210.0126419510492" stroke="#0d6d4d" stroke-width="0.1" fill="none" />
<path d="M109.87882913830153,218.97863573233792 L-82.09313550870937,-230.83699249112715" stroke="#0d6d4d" stroke-width="0.1" fill="none" />
<path d="M107.79553762662569,220.01164075518076 L-34.76251034694721,-242.5212730347142" stroke="#0d6d4d" stroke-width="0.1" fill="none" />
<path d="M105.70253562192796,221.02482657632615 L13.944548350861272,-244.60284048083025" stroke="#0d6d4d" stroke-width="0.1" fill="none" />
<path d="M103.60001166709056,222.0181019254482 L62.099467867592686,-236.99927445155149" stroke="#0d6d4d" stroke-width="0.1" fill="none" />
<path d="M101.48815516275693,222.9913773258064 L107.79553762662572,-220.01164075518076" stroke="#0d6d4d" stroke-width="0.1" fill="none" />
<path d="M99.36715635027012,223.944565102306 L149.22340605196393,-194.3125705821697" stroke="#0d6d4d" stroke-width="0.1" fill="none" />
<path d="M97.23720629453523,224.87757938939578 L184.74272246529242,-160.91962744212387" stroke="#0d6d4d" stroke-width="0.1" fill="none" />
<path d="M95.09849686680786,225.79033613880318 L212.9470873344486,-121.15501638716705" stroke="#0d6d4d" stroke-width="0.1" fill="none" />
<path d="M92.9512207274099,226.68275312710566 L232.71973914591308,-76.59323084880388" stroke="#0d6d4d" stroke-width="0.1" fill="none" />
<path d="M90.7955713083741,227.55474996313734 L243.27777296047876,-28.998710029754044" stroke="#0d6d4d" stroke-width="0.1" fill="none" />
<path d="M88.63174279601932,228.40624809523115 L244.20313980319992,19.744024672259428" stroke="#0d6d4d" stroke-width="0.1" fill="none" />
<path d="M86.45993011345773,229.2371708182947 L235.4591994561305,67.70498793647441" stroke="#0d6d4d" stroke-width="0.1" fill="none" />
<path d="M84.2803289030356,230.04744328072013 L217.3921712403372,112.98514895070015" stroke="#0d6d4d" stroke-width="0.1" fill="none" />
<path d="M82.09313550870935,230.83699249112715 L190.7174253429761,153.79162418853093" stroke="#0d6d4d" stroke-width="0.1" fill="none" />
<path d="M79.89854695835845,231.6057473249379 L156.491157489045,188.50866724832284" stroke="#0d6d4d" stroke-width="0.1" fill="none" />
<path d="M77.69676094603662,232.35363853078445 L116.06856850891175,215.76164488687988" stroke="#0d6d4d" stroke-width="0.1" fill="none" />
<path d="M75.48797581416298,233.08059873674674 L71.05020469600453,234.47146609482326" stroke="#0d6d4d" stroke-width="0.1" fill="none" />
<path d="M73.27239053565505,233.78656245642188 L23.21858362663118,243.8973090757115" stroke="#0d6d4d" stroke-width="0.1" fill="none" />
<path d="M71.05020469600453,234.47146609482326 L-25.532385235644,243.6659543394987" stroke="#0d6d4d" stroke-width="0.1" fill="none" />
<path d="M68.82161847529837,235.13524795410933 L-73.27239053565499,233.7865624564219" stroke="#0d6d4d" stroke-width="0.1" fill="none" />
<path d="M66.58683263018584,235.77784823914143 L-118.11115036768994,214.65031134107616" stroke="#0d6d4d" stroke-width="0.1" fill="none" />
<path d="M64.34604847579402,236.3992090628705 L-158.27325863674693,187.01490742854008" stroke="#0d6d4d" stroke-width="0.1" fill="none" />
<path d="M62.09946786759277,236.99927445155146 L-192.16848287261266,151.9745840278511" stroke="#0d6d4d" stroke-width="0.1" fill="none" />
<path d="M59.847293183210965,237.57799034978552 L-218.45473003067025,110.91677477833085" stroke="#0d6d4d" stroke-width="0.1" fill="none" />
<path d="M57.58972730420622,238.13530462538972 L-236.09118712693095,65.46717773813435" stroke="#0d6d4d" stroke-width="0.1" fill="none" />
<path d="M55.326973597788225,238.67116707409306 L-244.37953258559213,17.42538531130695" stroke="#0d6d4d" stroke-width="0.1" fill="none" />
<path d="M53.05923589849931,239.185529424059 L-242.99158652166346,-31.30637123150716" stroke="#0d6d4d" stroke-width="0.1" fill="none" />
<path d="M50.7867184898524,239.67834534023405 L-231.98230513622326,-78.79854125352955" stroke="#0d6d4d" stroke-width="0.1" fill="none" />
<path d="M48.50962608592866,240.14957042852146 L-211.78760470676272,-123.17065597199688" stroke="#0d6d4d" stroke-width="0.1" fill="none" />
<path d="M46.22816381293633,240.59916223978072 L-183.20710133246718,-162.66578626544398" stroke="#0d6d4d" stroke-width="0.1" fill="none" />
<path d="M43.94253719073246,241.0270802736512 L-147.37244986014824,-195.7201088856689" stroke="#0d6d4d" stroke-width="0.1" fill="none" />
<path d="M41.6529521143091,241.43328598220063 L-105.70253562192808,-221.0248265763261" stroke="#0d6d4d" stroke-width="0.1" fill="none" />
<path d="M39.35961483524586,241.8177427733976 L-59.8472931832111,-237.5779903497855" stroke="#0d6d4d" stroke-width="0.1" fill="none" />
<path d="M37.06273194313005,242.1804160144079 L-11.622376616911907,-244.72417200140785" stroke="#0d6d4d" stroke-width="0.1" fill="none" />
<path d="M34.76251034694707,242.52127303471423 L37.06273194313011,-242.1804160144079" stroke="#0d6d4d" stroke-width="0.1" fill="none" />
<path d="M32.459157256440925,242.8402831290592 L84.28032890303555,-230.04744328072013" stroke="#0d6d4d" stroke-width="0.1" fill="none" />
<path d="M30.15288016344833,243.13741756021167 L128.16081729473512,-208.80566302269085" stroke="#0d6d4d" stroke-width="0.1" fill="none" />
<path d="M27.843886823207782,243.41264956155504 L166.9667341100164,-179.29615082492734" stroke="#0d6d4d" stroke-width="0.1" fill="none" />
<path d="M25.53238523564406,243.6659543394987 L199.16154574504932,-142.68734595766585" stroke="#0d6d4d" stroke-width="0.1" fill="none" />
<path d="M23.21858362663118,243.8973090757115 L223.4704875761381,-100.428786622577" stroke="#0d6d4d" stroke-width="0.1" fill="none" />
<path d="M20.902690429234852,244.10669292917714 L238.93103870280217,-54.19371498984035" stroke="#0d6d4d" stroke-width="0.1" fill="none" />
<path d="M18.58491426493635,244.29408703807172 L244.93103329339968,-5.8128245997568255" stroke="#0d6d4d" stroke-width="0.1" fill="none" />
<path d="M16.26546392483932,244.45947452146285 L241.23289950147392,42.79822657671439" stroke="#0d6d4d" stroke-width="0.1" fill="none" />
<path d="M13.944548350861378,244.60284048083025 L227.98306620460568,89.71466727323018" stroke="#0d6d4d" stroke-width="0.1" fill="none" />
<path d="M11.622376616912096,244.72417200140785 L205.70616510271563,133.0788249073995" stroke="#0d6d4d" stroke-width="0.1" fill="none" />
<path d="M9.29915791005898,244.82345815334727 L175.28425774572628,171.17368076468355" stroke="#0d6d4d" stroke-width="0.1" fill="none" />
<path d="M6.9751015116839294,244.90068999270238 L137.9219100035571,202.49085594409124" stroke="#0d6d4d" stroke-width="0.1" fill="none" />
<path d="M4.650416778629433,244.95586056223485 L95.09849686680786,225.79033613880318" stroke="#0d6d4d" stroke-width="0.1" fill="none" />
<path d="M2.325313124340821,244.98896489204114 L48.50962608592866,240.14957042852146" stroke="#0d6d4d" stroke-width="0.1" fill="none" />
<path d="M3.0003846579110155e-14,245.0 L3.0003846579110155e-14,245.0" stroke="#0d6d4d" stroke-width="0.1" fill="none" />
<path d="M-2.3253131243407608,244.98896489204114 L-48.5096260859285,240.14957042852149" stroke="#0d6d4d" stroke-width="0.1" fill="none" />
<path d="M-4.650416778629373,244.95586056223485 L-95.09849686680782,225.7903361388032" stroke="#0d6d4d" stroke-width="0.1" fill="none" />
<path d="M-6.97510151168387,244.90068999270238 L-137.92191000355706,202.49085594409124" stroke="#0d6d4d" stroke-width="0.1" fill="none" />
<path d="M-9.29915791005892,244.82345815334727 L-175.28425774572622,171.1736807646836" stroke="#0d6d4d" stroke-width="0.1" fill="none" />
<path d="M-11.622376616912035,244.72417200140785 L-205.70616510271554,133.07882490739968" stroke="#0d6d4d" stroke-width="0.1" fill="none" />
<path d="M-13.944548350861208,244.60284048083025 L-227.98306620460562,89.71466727323026" stroke="#0d6d4d" stroke-width="0.1" fill="none" />
<path d="M-16.26546392483926,244.45947452146285 L-241.23289950147392,42.798226576714505" stroke="#0d6d4d" stroke-width="0.1" fill="none" />
<path d="M-18.58491426493618,244.29408703807175 L-244.93103329339968,-5.812824599756656" stroke="#0d6d4d" stroke-width="0.1" fill="none" />
<path d="M-20.90269042923479,244.10669292917714 L-238.9310387028022,-54.19371498984024" stroke="#0d6d4d" stroke-width="0.1" fill="none" />
<path d="M-23.21858362663101,243.8973090757115 L-223.47048757613805,-100.42878662257709" stroke="#0d6d4d" stroke-width="0.1" fill="none" />
<path d="M-25.532385235644,243.6659543394987 L-199.1615457450494,-142.68734595766574" stroke="#0d6d4d" stroke-width="0.1" fill="none" />
<path d="M-27.84388682320772,243.41264956155504 L-166.96673411001632,-179.2961508249274" stroke="#0d6d4d" stroke-width="0.1" fill="none" />
<path d="M-30.152880163448163,243.1374175602117 L-128.16081729473527,-208.80566302269077" stroke="#0d6d4d" stroke-width="0.1" fill="none" />
<path d="M-32.45915725644087,242.8402831290592 L-84.28032890303551,-230.04744328072016" stroke="#0d6d4d" stroke-width="0.1" fill="none" />
<path d="M-34.76251034694701,242.52127303471423 L-37.062731943130295,-242.18041601440788" stroke="#0d6d4d" stroke-width="0.1" fill="none" />
<path d="M-37.06273194313011,242.1804160144079 L11.622376616911984,-244.72417200140785" stroke="#0d6d4d" stroke-width="0.1" fill="none" />
<path d="M-39.359614835245694,241.81774277339764 L59.84729318321097,-237.57799034978552" stroke="#0d6d4d" stroke-width="0.1" fill="none" />
<path d="M-41.65295211430905,241.43328598220063 L105.70253562192799,-221.02482657632615" stroke="#0d6d4d" stroke-width="0.1" fill="none" />
<path d="M-43.942537190732295,241.02708027365122 L147.37244986014815,-195.72010888566896" stroke="#0d6d4d" stroke-width="0.1" fill="none" />
<path d="M-46.22816381293629,240.59916223978072 L183.2071013324671,-162.66578626544407" stroke="#0d6d4d" stroke-width="0.1" fill="none" />
<path d="M-48.5096260859285,240.14957042852149 L211.7876047067627,-123.17065597199696" stroke="#0d6d4d" stroke-width="0.1" fill="none" />
<path d="M-50.78671848985235,239.67834534023405 L231.98230513622323,-78.7985412535296" stroke="#0d6d4d" stroke-width="0.1" fill="none" />
<path d="M-53.05923589849937,239.185529424059 L242.99158652166344,-31.306371231507278" stroke="#0d6d4d" stroke-width="0.1" fill="none" />
<path d="M-55.326973597788175,238.67116707409306 L244.37953258559216,17.42538531130684" stroke="#0d6d4d" stroke-width="0.1" fill="none" />
<path d="M-57.58972730420627,238.13530462538972 L236.09118712693095,65.4671777381343" stroke="#0d6d4d" stroke-width="0.1" fill="none" />
<path d="M-59.847293183210915,237.57799034978555 L218.45473003067028,110.9167747783308" stroke="#0d6d4d" stroke-width="0.1" fill="none" />
<path d="M-62.09946786759273,236.99927445155146 L192.1684828726127,151.97458402785105" stroke="#0d6d4d" stroke-width="0.1" fill="none" />
<path d="M-64.34604847579386,236.39920906287057 L158.27325863674704,187.01490742853997" stroke="#0d6d4d" stroke-width="0.1" fill="none" />
<path d="M-66.58683263018578,235.77784823914146 L118.11115036769,214.65031134107613" stroke="#0d6d4d" stroke-width="0.1" fill="none" />
<path d="M-68.8216184752982,235.13524795410936 L73.27239053565505,233.78656245642188" stroke="#0d6d4d" stroke-width="0.1" fill="none" />
<path d="M-71.05020469600447,234.47146609482328 L25.53238523564406,243.6659543394987" stroke="#0d6d4d" stroke-width="0.1" fill="none" />
<path d="M-73.27239053565499,233.7865624564219 L-23.21858362663101,243.8973090757115" stroke="#0d6d4d" stroke-width="0.1" fill="none" />
<path d="M-75.48797581416292,233.08059873674674 L-71.05020469600447,234.47146609482328" stroke="#0d6d4d" stroke-width="0.1" fill="none" />
<path d="M-77.69676094603656,232.35363853078448 L-116.0685685089116,215.76164488687996" stroke="#0d6d4d" stroke-width="0.1" fill="none" />
<path d="M-79.8985469583584,231.60574732493794 L-156.49115748904498,188.5086672483229" stroke="#0d6d4d" stroke-width="0.1" fill="none" />
<path d="M-82.0931355087093,230.83699249112718 L-190.717425342976,153.7916241885311" stroke="#0d6d4d" stroke-width="0.1" fill="none" />
<path d="M-84.28032890303554,230.04744328072013 L-217.39217124033723,112.98514895070011" stroke="#0d6d4d" stroke-width="0.1" fill="none" />
<path d="M-86.45993011345767,229.2371708182947 L-235.45919945613048,67.70498793647455" stroke="#0d6d4d" stroke-width="0.1" fill="none" />
<path d="M-88.63174279601917,228.4062480952312 L-244.20313980319992,19.74402467225943" stroke="#0d6d4d" stroke-width="0.1" fill="none" />
<path d="M-90.79557130837405,227.55474996313737 L-243.27777296047879,-28.998710029753877" stroke="#0d6d4d" stroke-width="0.1" fill="none" />
<path d="M-92.95122072740975,226.6827531271057 L-232.71973914591308,-76.59323084880394" stroke="#0d6d4d" stroke-width="0.1" fill="none" />
<path d="M-95.09849686680782,225.7903361388032 L-212.9470873344487,-121.1550163871669" stroke="#0d6d4d" stroke-width="0.1" fill="none" />
<path d="M-97.23720629453528,224.87757938939575 L-184.74272246529242,-160.91962744212387" stroke="#0d6d4d" stroke-width="0.1" fill="none" />
<path d="M-99.36715635027006,223.94456510230603 L-149.22340605196413,-194.31257058216963" stroke="#0d6d4d" stroke-width="0.1" fill="none" />
<path d="M-101.48815516275698,222.99137732580638 L-107.79553762662572,-220.01164075518076" stroke="#0d6d4d" stroke-width="0.1" fill="none" />
<path d="M-103.6000116670905,222.01810192544824 L-62.0994678675927,-236.99927445155149" stroke="#0d6d4d" stroke-width="0.1" fill="none" />
<path d="M-105.70253562192802,221.02482657632612 L-13.944548350861513,-244.60284048083025" stroke="#0d6d4d" stroke-width="0.1" fill="none" />
<path d="M-107.79553762662563,220.0116407551808 L34.76251034694712,-242.5212730347142" stroke="#0d6d4d" stroke-width="0.1" fill="none" />
<path d="M-109.87882913830147,218.97863573233795 L82.09313550870931,-230.83699249112718" stroke="#0d6d4d" stroke-width="0.1" fill="none" />
<path d="M-111.95222248881848,217.92590456348708 L126.17325477588504,-210.01264195104923" stroke="#0d6d4d" stroke-width="0.1" fill="none" />
<path d="M-114.01553090169162,216.85354208129826 L165.2575006871861,-180.87276872604312" stroke="#0d6d4d" stroke-width="0.1" fill="none" />
<path d="M-116.0685685089116,215.76164488687996 L197.79831910263607,-144.57117610426968" stroke="#0d6d4d" stroke-width="0.1" fill="none" />
<path d="M-118.11115036768994,214.65031134107616 L222.50724514123561,-102.5452381130303" stroke="#0d6d4d" stroke-width="0.1" fill="none" />
<path d="M-120.14309247711756,213.51964155560674 L238.40592039043702,-56.458986200503155" stroke="#0d6d4d" stroke-width="0.1" fill="none" />
<path d="M-122.16421179474112,212.36973738404828 L244.86483134349692,-8.137221339056673" stroke="#0d6d4d" stroke-width="0.1" fill="none" />
<path d="M-124.17432625305153,211.20070241265938 L241.62823520297644,40.50673959596233" stroke="#0d6d4d" stroke-width="0.1" fill="none" />
<path d="M-126.17325477588504,210.01264195104923 L228.82428610463808,87.54682226501853" stroke="#0d6d4d" stroke-width="0.1" fill="none" />
<path d="M-128.1608172947351,208.80566302269085 L206.95996081042705,131.1204584393545" stroke="#0d6d4d" stroke-width="0.1" fill="none" />
<path d="M-130.13683476497334,207.57987435528045 L176.9009847894655,169.50233502969004" stroke="#0d6d4d" stroke-width="0.1" fill="none" />
<path d="M-132.10112918197854,206.33538637094273 L139.83755352077748,201.17270845053434" stroke="#0d6d4d" stroke-width="0.1" fill="none" />
<path d="M-134.0535235971714,205.07231117628388 L97.23720629453523,224.87757938939578" stroke="#0d6d4d" stroke-width="0.1" fill="none" />
<path d="M-135.9938421339548,203.7907625522928 L50.7867184898524,239.67834534023405" stroke="#0d6d4d" stroke-width="0.1" fill="none" />
<path d="M-137.92191000355706,202.49085594409124 L2.325313124340821,244.98896489204114" stroke="#0d6d4d" stroke-width="0.1" fill="none" />
<path d="M-139.83755352077742,201.17270845053437 L-46.22816381293629,240.59916223978072" stroke="#0d6d4d" stroke-width="0.1" fill="none" />
<path d="M-141.74060011963215,199.83643881366214 L-92.95122072740975,226.6827531271057" stroke="#0d6d4d" stroke-width="0.1" fill="none" />
<path d="M-143.63087836889915,198.4821674080029 L-135.9938421339548,203.7907625522928" stroke="#0d6d4d" stroke-width="0.1" fill="none" />
<path d="M-145.50821798756203,197.11001622972924 L-173.65174065539344,172.82960674419178" stroke="#0d6d4d" stroke-width="0.1" fill="none" />
<path d="M-147.37244986014807,195.720108885669 L-204.43383886651674,135.0252033003434" stroke="#0d6d4d" stroke-width="0.1" fill="none" />
<path d="M-149.22340605196396,194.3125705821697 L-227.12130901683147,91.87443055867587" stroke="#0d6d4d" stroke-width="0.1" fill="none" />
<path d="M-151.06091982422234,192.88752811382042 L-240.81583293393692,45.08585818562384" stroke="#0d6d4d" stroke-width="0.1" fill="none" />
<path d="M-152.88482564906352,191.445109852029 L-244.97517124007902,-3.487904226603822" stroke="#0d6d4d" stroke-width="0.1" fill="none" />
<path d="M-154.69495922446535,189.9854457334588 L-239.43463350654034,-51.92356187309103" stroke="#0d6d4d" stroke-width="0.1" fill="none" />
<path d="M-156.49115748904498,188.5086672483229 L-224.41359922772614,-98.30328825455184" stroke="#0d6d4d" stroke-width="0.1" fill="none" />
<path d="M-158.27325863674693,187.01490742854008 L-200.50683141473976,-140.7906621762293" stroke="#0d6d4d" stroke-width="0.1" fill="none" />
<path d="M-160.04110213142,185.5043008357499 L-168.660926749692,-177.7033814758037" stroke="#0d6d4d" stroke-width="0.1" fill="none" />
<path d="M-161.7945287212778,183.97698354919186 L-130.13683476497343,-207.57987435528042" stroke="#0d6d4d" stroke-width="0.1" fill="none" />
<path d="M-163.53338045324486,182.433093153447 L-86.45993011345774,-229.23717081829466" stroke="#0d6d4d" stroke-width="0.1" fill="none" />
<path d="M-165.2575006871862,180.87276872604306 L-39.35961483524589,-241.8177427733976" stroke="#0d6d4d" stroke-width="0.1" fill="none" />
<path d="M-166.96673411001635,179.2961508249274 L9.299157910058971,-244.82345815334727" stroke="#0d6d4d" stroke-width="0.1" fill="none" />
<path d="M-168.66092674969198,177.70338147580375 L57.58972730420623,-238.13530462538972" stroke="#0d6d4d" stroke-width="0.1" fill="none" />
<path d="M-170.33992598908088,176.09460415933944 L103.60001166709057,-222.0181019254482" stroke="#0d6d4d" stroke-width="0.1" fill="none" />
<path d="M-172.00358057971067,174.46996379823946 L145.508217987562,-197.11001622972927" stroke="#0d6d4d" stroke-width="0.1" fill="none" />
<path d="M-173.65174065539344,172.82960674419178 L181.65497644338026,-164.3972917458039" stroke="#0d6d4d" stroke-width="0.1" fill="none" />
<path d="M-175.28425774572622,171.1736807646836 L210.60904371922135,-125.17520003449211" stroke="#0d6d4d" stroke-width="0.1" fill="none" />
<path d="M-176.90098478946553,169.50233502969004 L231.22397357729486,-80.99675328756366" stroke="#0d6d4d" stroke-width="0.1" fill="none" />
<path d="M-178.50177614777462,167.8157200982368 L242.68351078986564,-33.61121227663727" stroke="#0d6d4d" stroke-width="0.1" fill="none" />
<path d="M-180.08648761734398,166.11398790483662 L244.53391104533114,15.105176227838864" stroke="#0d6d4d" stroke-width="0.1" fill="none" />
<path d="M-181.65497644338024,164.39729174580393 L236.70190711007362,63.22347009184236" stroke="#0d6d4d" stroke-width="0.1" fill="none" />
<path d="M-183.2071013324671,162.66578626544407 L219.49760986973797,108.83840894405022" stroke="#0d6d4d" stroke-width="0.1" fill="none" />
<path d="M-184.74272246529233,160.91962744212395 L193.60222938221023,150.14385361458545" stroke="#0d6d4d" stroke-width="0.1" fill="none" />
<path d="M-186.26170150924412,159.1589725742198 L160.04110213142005,185.50430083574983" stroke="#0d6d4d" stroke-width="0.1" fill="none" />
<path d="M-187.76390163087123,157.38398026594868 L120.1430924771176,213.5196415556067" stroke="#0d6d4d" stroke-width="0.1" fill="none" />
<path d="M-189.24918750821053,155.59481041307956 L75.48797581416298,233.08059873674674" stroke="#0d6d4d" stroke-width="0.1" fill="none" />
<path d="M-190.717425342976,153.7916241885311 L27.843886823207782,243.41264956155504" stroke="#0d6d4d" stroke-width="0.1" fill="none" />
<path d="M-192.16848287261266,151.9745840278511 L-20.90269042923479,244.10669292917714" stroke="#0d6d4d" stroke-width="0.1" fill="none" />
<path d="M-193.60222938221023,150.14385361458542 L-68.8216184752982,235.13524795410936" stroke="#0d6d4d" stroke-width="0.1" fill="none" />
<path d="M-195.01853571627862,148.29959786553218 L-114.01553090169162,216.85354208129826" stroke="#0d6d4d" stroke-width="0.1" fill="none" />
<path d="M-196.41727429038303,146.4419829158853 L-154.69495922446535,189.9854457334588" stroke="#0d6d4d" stroke-width="0.1" fill="none" />
<path d="M-197.79831910263604,144.57117610426974 L-189.24918750821053,155.59481041307956" stroke="#0d6d4d" stroke-width="0.1" fill="none" />
<path d="M-199.16154574504935,142.68734595766583 L-216.31002921670577,115.04334513681309" stroke="#0d6d4d" stroke-width="0.1" fill="none" />
<path d="M-200.50683141473974,140.79066217622938 L-234.80600102871045,69.93669909929429" stroke="#0d6d4d" stroke-width="0.1" fill="none" />
<path d="M-201.83405492499222,138.8812956180033 L-244.00474858805978,22.060885441834163" stroke="#0d6d4d" stroke-width="0.1" fill="none" />
<path d="M-203.14309671617627,136.9594182835275 L-243.54204432591763,-26.68843655130003" stroke="#0d6d4d" stroke-width="0.1" fill="none" />
<path d="M-204.43383886651674,135.0252033003434 L-233.43620917645495,-74.38102073329173" stroke="#0d6d4d" stroke-width="0.1" fill="none" />
<path d="M-205.70616510271554,133.07882490739968 L-214.08738715316917,-119.1284628538833" stroke="#0d6d4d" stroke-width="0.1" fill="none" />
<path d="M-206.95996081042702,131.12045843935456 L-186.26170150924418,-159.15897257421972" stroke="#0d6d4d" stroke-width="0.1" fill="none" />
<path d="M-208.19511304458175,129.150280310783 L-151.06091982422248,-192.8875281138203" stroke="#0d6d4d" stroke-width="0.1" fill="none" />
<path d="M-209.41151053956125,127.16846800028388 L-109.87882913830155,-218.97863573233792" stroke="#0d6d4d" stroke-width="0.1" fill="none" />
<path d="M-210.6090437192214,125.175200034492 L-64.34604847579405,-236.3992090628705" stroke="#0d6d4d" stroke-width="0.1" fill="none" />
<path d="M-211.7876047067627,123.170655971997 L-16.265463924839352,-244.45947452146285" stroke="#0d6d4d" stroke-width="0.1" fill="none" />
<path d="M-212.94708733444864,121.15501638716698 L32.45915725644087,-242.8402831290592" stroke="#0d6d4d" stroke-width="0.1" fill="none" />
<path d="M-214.08738715316912,119.12846285388339 L79.8985469583584,-231.60574732493794" stroke="#0d6d4d" stroke-width="0.1" fill="none" />
<path d="M-215.20840144185001,117.09117792918275 L124.17432625305156,-211.20070241265938" stroke="#0d6d4d" stroke-width="0.1" fill="none" />
<path d="M-216.31002921670577,115.04334513681309 L163.5333804532449,-182.43309315344698" stroke="#0d6d4d" stroke-width="0.1" fill="none" />
<path d="M-217.39217124033723,112.98514895070011 L196.41727429038298,-146.44198291588538" stroke="#0d6d4d" stroke-width="0.1" fill="none" />
<path d="M-218.45473003067025,110.91677477833085 L221.52395869431874,-104.65245207064075" stroke="#0d6d4d" stroke-width="0.1" fill="none" />
<path d="M-219.497609869738,108.83840894405016 L237.8593258734226,-58.7191714437539" stroke="#0d6d4d" stroke-width="0.1" fill="none" />
<path d="M-220.52071681230257,106.75023867227769 L244.7765713540089,-10.460885057001732" stroke="#0d6d4d" stroke-width="0.1" fill="none" />
<path d="M-221.52395869431868,104.65245207064088 L242.00180442561057,38.21160366627554" stroke="#0d6d4d" stroke-width="0.1" fill="none" />
<path d="M-222.50724514123561,102.54523811303032 L229.6448929377254,85.37109081896892" stroke="#0d6d4d" stroke-width="0.1" fill="none" />
<path d="M-223.47048757613803,100.42878662257716 L208.1951130445817,129.1502803107831" stroke="#0d6d4d" stroke-width="0.1" fill="none" />
<path d="M-224.4135992277261,98.3032882545519 L178.5017761477747,167.81572009823674" stroke="#0d6d4d" stroke-width="0.1" fill="none" />
<path d="M-225.33649513813114,96.16893447919135 L141.7406001196321,199.83643881366217" stroke="#0d6d4d" stroke-width="0.1" fill="none" />
<path d="M-226.23909217056956,94.02591756444883 L99.36715635027012,223.944565102306" stroke="#0d6d4d" stroke-width="0.1" fill="none" />
<path d="M-227.12130901683147,91.87443055867587 L53.05923589849931,239.185529424059" stroke="#0d6d4d" stroke-width="0.1" fill="none" />
<path d="M-227.98306620460562,89.71466727323026 L4.650416778629433,244.95586056223485" stroke="#0d6d4d" stroke-width="0.1" fill="none" />
<path d="M-228.824286104638,87.54682226501873 L-43.942537190732295,241.02708027365122" stroke="#0d6d4d" stroke-width="0.1" fill="none" />
<path d="M-229.64489293772536,85.37109081896904 L-90.79557130837405,227.55474996313737" stroke="#0d6d4d" stroke-width="0.1" fill="none" />
<path d="M-230.44481278154115,83.18766893043973 L-134.0535235971714,205.07231117628388" stroke="#0d6d4d" stroke-width="0.1" fill="none" />
<path d="M-231.22397357729483,80.99675328756373 L-172.00358057971067,174.46996379823946" stroke="#0d6d4d" stroke-width="0.1" fill="none" />
<path d="M-231.98230513622323,78.79854125352963 L-203.14309671617627,136.9594182835275" stroke="#0d6d4d" stroke-width="0.1" fill="none" />
<path d="M-232.71973914591305,76.59323084880403 L-226.23909217056956,94.02591756444883" stroke="#0d6d4d" stroke-width="0.1" fill="none" />
<path d="M-233.43620917645492,74.3810207332918 L-240.37707307077028,47.36942834708444" stroke="#0d6d4d" stroke-width="0.1" fill="none" />
<path d="M-234.13165068642718,72.162110188442 L-244.99724120747777,-1.1626696542696213" stroke="#0d6d4d" stroke-width="0.1" fill="none" />
<path d="M-234.80600102871045,69.93669909929429 L-239.91665943656557,-49.648731351354854" stroke="#0d6d4d" stroke-width="0.1" fill="none" />
<path d="M-235.45919945613048,67.70498793647455 L-225.33649513813117,-96.16893447919128" stroke="#0d6d4d" stroke-width="0.1" fill="none" />
<path d="M-236.09118712693095,65.46717773813435 L-201.83405492499227,-138.8812956180032" stroke="#0d6d4d" stroke-width="0.1" fill="none" />
<path d="M-236.70190711007356,63.22347009184252 L-170.33992598908085,-176.09460415933947" stroke="#0d6d4d" stroke-width="0.1" fill="none" />
<path d="M-237.29130439036706,60.97406711642397 L-132.1011291819787,-206.33538637094262" stroke="#0d6d4d" stroke-width="0.1" fill="none" />
<path d="M-237.8593258734226,58.71917144375383 L-88.63174279601924,-228.40624809523118" stroke="#0d6d4d" stroke-width="0.1" fill="none" />
<path d="M-238.405920390437,56.45898620050318 L-41.65295211430924,-241.4332859822006" stroke="#0d6d4d" stroke-width="0.1" fill="none" />
<path d="M-238.93103870280217,54.19371498984033 L6.975101511683808,-244.90068999270238" stroke="#0d6d4d" stroke-width="0.1" fill="none" />
<path d="M-239.4346335065403,51.923561873091124 L55.326973597788225,-238.67116707409306" stroke="#0d6d4d" stroke-width="0.1" fill="none" />
<path d="M-239.91665943656557,49.648731351354954 L101.48815516275694,-222.9913773258064" stroke="#0d6d4d" stroke-width="0.1" fill="none" />
<path d="M-240.37707307077028,47.36942834708444 L143.63087836889923,-198.48216740800288" stroke="#0d6d4d" stroke-width="0.1" fill="none" />
<path d="M-240.81583293393692,45.08585818562384 L180.08648761734395,-166.11398790483665" stroke="#0d6d4d" stroke-width="0.1" fill="none" />
<path d="M-241.23289950147392,42.798226576714505 L209.41151053956122,-127.16846800028391" stroke="#0d6d4d" stroke-width="0.1" fill="none" />
<path d="M-241.62823520297644,40.50673959596234 L230.44481278154115,-83.18766893043976" stroke="#0d6d4d" stroke-width="0.1" fill="none" />
<path d="M-242.00180442561057,38.211603666275664 L242.35357351732168,-35.91302553926848" stroke="#0d6d4d" stroke-width="0.1" fill="none" />
<path d="M-242.35357351732168,35.91302553926846 L244.66626127561722,12.783606432122685" stroke="#0d6d4d" stroke-width="0.1" fill="none" />
<path d="M-242.68351078986566,33.61121227663714 L237.29130439036706,60.97406711642392" stroke="#0d6d4d" stroke-width="0.1" fill="none" />
<path d="M-242.99158652166344,31.306371231507256 L220.5207168123026,106.75023867227763" stroke="#0d6d4d" stroke-width="0.1" fill="none" />
<path d="M-243.27777296047876,28.998710029753966 L195.01853571627868,148.29959786553212" stroke="#0d6d4d" stroke-width="0.1" fill="none" />
<path d="M-243.54204432591763,26.688436551300118 L161.79452872127774,183.97698354919189" stroke="#0d6d4d" stroke-width="0.1" fill="none" />
<path d="M-243.78437681175117,24.375758911388115 L122.16421179474118,212.36973738404825" stroke="#0d6d4d" stroke-width="0.1" fill="none" />
<path d="M-244.00474858805978,22.060885441834163 L77.69676094603662,232.35363853078445" stroke="#0d6d4d" stroke-width="0.1" fill="none" />
<path d="M-244.20313980319992,19.74402467225943 L30.15288016344833,243.13741756021167" stroke="#0d6d4d" stroke-width="0.1" fill="none" />
<path d="M-244.37953258559213,17.42538531130695 L-18.58491426493618,244.29408703807175" stroke="#0d6d4d" stroke-width="0.1" fill="none" />
<path d="M-244.53391104533114,15.10517622783887 L-66.58683263018578,235.77784823914146" stroke="#0d6d4d" stroke-width="0.1" fill="none" />
<path d="M-244.66626127561722,12.783606432122745 L-111.95222248881848,217.92590456348708" stroke="#0d6d4d" stroke-width="0.1" fill="none" />
<path d="M-244.7765713540089,10.460885057001652 L-152.88482564906352,191.445109852029" stroke="#0d6d4d" stroke-width="0.1" fill="none" />
<path d="M-244.86483134349692,8.137221339056701 L-187.76390163087123,157.38398026594868" stroke="#0d6d4d" stroke-width="0.1" fill="none" />
<path d="M-244.93103329339968,5.8128245997567465 L-215.20840144185001,117.09117792918275" stroke="#0d6d4d" stroke-width="0.1" fill="none" />
<path d="M-244.975171240079,3.487904226603912 L-234.13165068642718,72.162110188442" stroke="#0d6d4d" stroke-width="0.1" fill="none" />
<path d="M-244.99724120747777,1.1626696542697115 L-243.78437681175117,24.375758911388115" stroke="#0d6d4d" stroke-width="0.1" fill="none" />
<path d="M-244.99724120747777,-1.1626696542696213 L-243.78437681175117,-24.37575891138803" stroke="#0d6d4d" stroke-width="0.1" fill="none" />
<path d="M-244.97517124007902,-3.487904226603822 L-234.13165068642718,-72.16211018844193" stroke="#0d6d4d" stroke-width="0.1" fill="none" />
<path d="M-244.93103329339968,-5.812824599756656 L-215.20840144185004,-117.09117792918266" stroke="#0d6d4d" stroke-width="0.1" fill="none" />
<path d="M-244.86483134349692,-8.137221339056614 L-187.7639016308713,-157.3839802659486" stroke="#0d6d4d" stroke-width="0.1" fill="none" />
<path d="M-244.7765713540089,-10.460885057001564 L-152.88482564906352,-191.445109852029" stroke="#0d6d4d" stroke-width="0.1" fill="none" />
<path d="M-244.66626127561722,-12.783606432122657 L-111.95222248881855,-217.92590456348705" stroke="#0d6d4d" stroke-width="0.1" fill="none" />
<path d="M-244.53391104533117,-15.105176227838781 L-66.58683263018575,-235.77784823914146" stroke="#0d6d4d" stroke-width="0.1" fill="none" />
<path d="M-244.37953258559216,-17.42538531130686 L-18.584914264936273,-244.29408703807172" stroke="#0d6d4d" stroke-width="0.1" fill="none" />
<path d="M-244.20313980319992,-19.744024672259343 L30.152880163448266,-243.13741756021167" stroke="#0d6d4d" stroke-width="0.1" fill="none" />
<path d="M-244.00474858805978,-22.060885441834074 L77.69676094603656,-232.35363853078448" stroke="#0d6d4d" stroke-width="0.1" fill="none" />
<path d="M-243.78437681175117,-24.37575891138803 L122.16421179474115,-212.36973738404825" stroke="#0d6d4d" stroke-width="0.1" fill="none" />
<path d="M-243.54204432591763,-26.68843655130003 L161.79452872127771,-183.9769835491919" stroke="#0d6d4d" stroke-width="0.1" fill="none" />
<path d="M-243.27777296047879,-28.998710029753877 L195.01853571627862,-148.29959786553215" stroke="#0d6d4d" stroke-width="0.1" fill="none" />
<path d="M-242.99158652166346,-31.30637123150716 L220.5207168123026,-106.75023867227766" stroke="#0d6d4d" stroke-width="0.1" fill="none" />
<path d="M-242.68351078986566,-33.61121227663704 L237.29130439036706,-60.974067116423946" stroke="#0d6d4d" stroke-width="0.1" fill="none" />
<path d="M-242.3535735173217,-35.91302553926837 L244.66626127561722,-12.783606432122717" stroke="#0d6d4d" stroke-width="0.1" fill="none" />
<path d="M-242.00180442561057,-38.211603666275565 L242.35357351732168,35.91302553926845" stroke="#0d6d4d" stroke-width="0.1" fill="none" />
<path d="M-241.62823520297644,-40.50673959596224 L230.44481278154115,83.18766893043973" stroke="#0d6d4d" stroke-width="0.1" fill="none" />
<path d="M-241.23289950147392,-42.79822657671441 L209.41151053956122,127.16846800028391" stroke="#0d6d4d" stroke-width="0.1" fill="none" />
<path d="M-240.81583293393695,-45.08585818562374 L180.08648761734398,166.11398790483665" stroke="#0d6d4d" stroke-width="0.1" fill="none" />
<path d="M-240.3770730707703,-47.36942834708434 L143.6308783688992,198.4821674080029" stroke="#0d6d4d" stroke-width="0.1" fill="none" />
<path d="M-239.91665943656557,-49.648731351354854 L101.48815516275693,222.9913773258064" stroke="#0d6d4d" stroke-width="0.1" fill="none" />
<path d="M-239.43463350654034,-51.92356187309103 L55.326973597788225,238.67116707409306" stroke="#0d6d4d" stroke-width="0.1" fill="none" />
<path d="M-238.9310387028022,-54.19371498984024 L6.9751015116839294,244.90068999270238" stroke="#0d6d4d" stroke-width="0.1" fill="none" />
<path d="M-238.40592039043702,-56.45898620050309 L-41.65295211430905,241.43328598220063" stroke="#0d6d4d" stroke-width="0.1" fill="none" />
<path d="M-237.85932587342262,-58.71917144375374 L-88.63174279601917,228.4062480952312" stroke="#0d6d4d" stroke-width="0.1" fill="none" />
<path d="M-237.29130439036706,-60.97406711642389 L-132.10112918197854,206.33538637094273" stroke="#0d6d4d" stroke-width="0.1" fill="none" />
<path d="M-236.7019071100736,-63.223470091842444 L-170.33992598908088,176.09460415933944" stroke="#0d6d4d" stroke-width="0.1" fill="none" />
<path d="M-236.09118712693098,-65.4671777381343 L-201.83405492499222,138.8812956180033" stroke="#0d6d4d" stroke-width="0.1" fill="none" />
<path d="M-235.45919945613048,-67.70498793647448 L-225.33649513813114,96.16893447919135" stroke="#0d6d4d" stroke-width="0.1" fill="none" />
<path d="M-234.80600102871048,-69.93669909929422 L-239.91665943656557,49.648731351354954" stroke="#0d6d4d" stroke-width="0.1" fill="none" />
<path d="M-234.13165068642718,-72.16211018844193 L-244.99724120747777,1.1626696542697115" stroke="#0d6d4d" stroke-width="0.1" fill="none" />
<path d="M-233.43620917645495,-74.38102073329173 L-240.3770730707703,-47.36942834708434" stroke="#0d6d4d" stroke-width="0.1" fill="none" />
<path d="M-232.71973914591308,-76.59323084880394 L-226.2390921705696,-94.02591756444876" stroke="#0d6d4d" stroke-width="0.1" fill="none" />
<path d="M-231.98230513622326,-78.79854125352955 L-203.14309671617633,-136.95941828352738" stroke="#0d6d4d" stroke-width="0.1" fill="none" />
<path d="M-231.22397357729486,-80.99675328756366 L-172.00358057971073,-174.4699637982394" stroke="#0d6d4d" stroke-width="0.1" fill="none" />
<path d="M-230.44481278154117,-83.18766893043964 L-134.05352359717148,-205.07231117628385" stroke="#0d6d4d" stroke-width="0.1" fill="none" />
<path d="M-229.6448929377254,-85.37109081896895 L-90.79557130837411,-227.55474996313734" stroke="#0d6d4d" stroke-width="0.1" fill="none" />
<path d="M-228.82428610463802,-87.54682226501865 L-43.942537190732494,-241.0270802736512" stroke="#0d6d4d" stroke-width="0.1" fill="none" />
<path d="M-227.98306620460565,-89.7146672732302 L4.650416778629414,-244.95586056223485" stroke="#0d6d4d" stroke-width="0.1" fill="none" />
<path d="M-227.12130901683147,-91.8744305586758 L53.0592358984993,-239.185529424059" stroke="#0d6d4d" stroke-width="0.1" fill="none" />
<path d="M-226.2390921705696,-94.02591756444876 L99.36715635027011,-223.94456510230603" stroke="#0d6d4d" stroke-width="0.1" fill="none" />
<path d="M-225.33649513813117,-96.16893447919128 L141.7406001196321,-199.83643881366217" stroke="#0d6d4d" stroke-width="0.1" fill="none" />
<path d="M-224.41359922772614,-98.30328825455184 L178.50177614777468,-167.81572009823677" stroke="#0d6d4d" stroke-width="0.1" fill="none" />
<path d="M-223.47048757613805,-100.42878662257709 L208.1951130445817,-129.1502803107831" stroke="#0d6d4d" stroke-width="0.1" fill="none" />
<path d="M-222.50724514123564,-102.54523811303025 L229.6448929377254,-85.37109081896895" stroke="#0d6d4d" stroke-width="0.1" fill="none" />
<path d="M-221.52395869431882,-104.65245207064059 L242.00180442561057,-38.21160366627557" stroke="#0d6d4d" stroke-width="0.1" fill="none" />
<path d="M-220.5207168123026,-106.75023867227762 L244.7765713540089,10.460885057001702" stroke="#0d6d4d" stroke-width="0.1" fill="none" />
<path d="M-219.49760986973803,-108.83840894405009 L237.8593258734226,58.71917144375387" stroke="#0d6d4d" stroke-width="0.1" fill="none" />
<path d="M-218.45473003067028,-110.91677477833079 L221.52395869431876,104.65245207064072" stroke="#0d6d4d" stroke-width="0.1" fill="none" />
<path d="M-217.3921712403373,-112.98514895070004 L196.417274290383,146.44198291588532" stroke="#0d6d4d" stroke-width="0.1" fill="none" />
<path d="M-216.3100292167058,-115.04334513681302 L163.53338045324492,182.43309315344695" stroke="#0d6d4d" stroke-width="0.1" fill="none" />
<path d="M-215.20840144185004,-117.09117792918266 L124.17432625305159,211.20070241265938" stroke="#0d6d4d" stroke-width="0.1" fill="none" />
<path d="M-214.08738715316917,-119.1284628538833 L79.89854695835845,231.6057473249379" stroke="#0d6d4d" stroke-width="0.1" fill="none" />
<path d="M-212.9470873344487,-121.1550163871669 L32.459157256440925,242.8402831290592" stroke="#0d6d4d" stroke-width="0.1" fill="none" />
<path d="M-211.78760470676272,-123.17065597199688 L-16.26546392483926,244.45947452146285" stroke="#0d6d4d" stroke-width="0.1" fill="none" />
<path d="M-210.60904371922146,-125.1752000344919 L-64.34604847579386,236.39920906287057" stroke="#0d6d4d" stroke-width="0.1" fill="none" />
<path d="M-209.4115105395613,-127.1684680002838 L-109.87882913830147,218.97863573233795" stroke="#0d6d4d" stroke-width="0.1" fill="none" />
<path d="M-208.1951130445817,-129.15028031078307 L-151.06091982422234,192.88752811382042" stroke="#0d6d4d" stroke-width="0.1" fill="none" />
<path d="M-206.95996081042708,-131.12045843935448 L-186.26170150924412,159.1589725742198" stroke="#0d6d4d" stroke-width="0.1" fill="none" />
<path d="M-205.7061651027156,-133.07882490739956 L-214.08738715316912,119.12846285388339" stroke="#0d6d4d" stroke-width="0.1" fill="none" />
<path d="M-204.4338388665168,-135.02520330034335 L-233.43620917645492,74.3810207332918" stroke="#0d6d4d" stroke-width="0.1" fill="none" />
<path d="M-203.14309671617633,-136.95941828352738 L-243.54204432591763,26.688436551300118" stroke="#0d6d4d" stroke-width="0.1" fill="none" />
<path d="M-201.83405492499227,-138.8812956180032 L-244.00474858805978,-22.060885441834074" stroke="#0d6d4d" stroke-width="0.1" fill="none" />
<path d="M-200.50683141473976,-140.7906621762293 L-234.80600102871048,-69.93669909929422" stroke="#0d6d4d" stroke-width="0.1" fill="none" />
<path d="M-199.1615457450494,-142.68734595766574 L-216.3100292167058,-115.04334513681302" stroke="#0d6d4d" stroke-width="0.1" fill="none" />
<path d="M-197.79831910263613,-144.57117610426965 L-189.2491875082106,-155.5948104130795" stroke="#0d6d4d" stroke-width="0.1" fill="none" />
<path d="M-196.4172742903831,-146.4419829158852 L-154.69495922446546,-189.98544573345865" stroke="#0d6d4d" stroke-width="0.1" fill="none" />
<path d="M-195.01853571627868,-148.2995978655321 L-114.01553090169169,-216.85354208129826" stroke="#0d6d4d" stroke-width="0.1" fill="none" />
<path d="M-193.60222938221017,-150.1438536145855 L-68.82161847529817,-235.1352479541094" stroke="#0d6d4d" stroke-width="0.1" fill="none" />
<path d="M-192.16848287261274,-151.97458402785102 L-20.902690429234667,-244.10669292917714" stroke="#0d6d4d" stroke-width="0.1" fill="none" />
<path d="M-190.71742534297607,-153.791624188531 L27.84388682320771,-243.41264956155504" stroke="#0d6d4d" stroke-width="0.1" fill="none" />
<path d="M-189.2491875082106,-155.5948104130795 L75.48797581416292,-233.08059873674674" stroke="#0d6d4d" stroke-width="0.1" fill="none" />
<path d="M-187.7639016308713,-157.3839802659486 L120.14309247711756,-213.51964155560674" stroke="#0d6d4d" stroke-width="0.1" fill="none" />
<path d="M-186.26170150924418,-159.15897257421972 L160.04110213142,-185.5043008357499" stroke="#0d6d4d" stroke-width="0.1" fill="none" />
<path d="M-184.74272246529242,-160.91962744212387 L193.6022293822102,-150.14385361458548" stroke="#0d6d4d" stroke-width="0.1" fill="none" />
<path d="M-183.20710133246718,-162.66578626544398 L219.49760986973794,-108.83840894405024" stroke="#0d6d4d" stroke-width="0.1" fill="none" />
<path d="M-181.6549764433803,-164.39729174580384 L236.70190711007362,-63.22347009184239" stroke="#0d6d4d" stroke-width="0.1" fill="none" />
<path d="M-180.08648761734406,-166.11398790483656 L244.53391104533114,-15.10517622783895" stroke="#0d6d4d" stroke-width="0.1" fill="none" />
<path d="M-178.50177614777473,-167.8157200982367 L242.68351078986564,33.61121227663724" stroke="#0d6d4d" stroke-width="0.1" fill="none" />
<path d="M-176.90098478946544,-169.50233502969013 L231.22397357729486,80.99675328756364" stroke="#0d6d4d" stroke-width="0.1" fill="none" />
<path d="M-175.28425774572628,-171.17368076468355 L210.60904371922135,125.17520003449211" stroke="#0d6d4d" stroke-width="0.1" fill="none" />
<path d="M-173.65174065539344,-172.82960674419178 L181.65497644338026,164.39729174580387" stroke="#0d6d4d" stroke-width="0.1" fill="none" />
<path d="M-172.00358057971073,-174.4699637982394 L145.508217987562,197.1100162297293" stroke="#0d6d4d" stroke-width="0.1" fill="none" />
<path d="M-170.33992598908085,-176.09460415933947 L103.60001166709056,222.0181019254482" stroke="#0d6d4d" stroke-width="0.1" fill="none" />
<path d="M-168.660926749692,-177.7033814758037 L57.58972730420622,238.13530462538972" stroke="#0d6d4d" stroke-width="0.1" fill="none" />
<path d="M-166.96673411001632,-179.2961508249274 L9.29915791005898,244.82345815334727" stroke="#0d6d4d" stroke-width="0.1" fill="none" />
<path d="M-165.25750068718617,-180.8727687260431 L-39.359614835245694,241.81774277339764" stroke="#0d6d4d" stroke-width="0.1" fill="none" />
<path d="M-163.53338045324486,-182.433093153447 L-86.45993011345767,229.2371708182947" stroke="#0d6d4d" stroke-width="0.1" fill="none" />
<path d="M-161.79452872127777,-183.97698354919186 L-130.13683476497334,207.57987435528045" stroke="#0d6d4d" stroke-width="0.1" fill="none" />
<path d="M-160.04110213142,-185.5043008357499 L-168.66092674969198,177.70338147580375" stroke="#0d6d4d" stroke-width="0.1" fill="none" />
<path d="M-158.27325863674707,-187.01490742853997 L-200.50683141473974,140.79066217622938" stroke="#0d6d4d" stroke-width="0.1" fill="none" />
<path d="M-156.49115748904495,-188.5086672483229 L-224.4135992277261,98.3032882545519" stroke="#0d6d4d" stroke-width="0.1" fill="none" />
<path d="M-154.69495922446546,-189.98544573345865 L-239.4346335065403,51.923561873091124" stroke="#0d6d4d" stroke-width="0.1" fill="none" />
<path d="M-152.88482564906352,-191.445109852029 L-244.975171240079,3.487904226603912" stroke="#0d6d4d" stroke-width="0.1" fill="none" />
<path d="M-151.06091982422248,-192.8875281138203 L-240.81583293393695,-45.08585818562374" stroke="#0d6d4d" stroke-width="0.1" fill="none" />
<path d="M-149.22340605196413,-194.31257058216963 L-227.12130901683147,-91.8744305586758" stroke="#0d6d4d" stroke-width="0.1" fill="none" />
<path d="M-147.37244986014824,-195.7201088856689 L-204.4338388665168,-135.02520330034335" stroke="#0d6d4d" stroke-width="0.1" fill="none" />
<path d="M-145.5082179875622,-197.11001622972913 L-173.65174065539344,-172.82960674419178" stroke="#0d6d4d" stroke-width="0.1" fill="none" />
<path d="M-143.63087836889932,-198.4821674080028 L-135.99384213395493,-203.7907625522927" stroke="#0d6d4d" stroke-width="0.1" fill="none" />
<path d="M-141.7406001196323,-199.83643881366203 L-92.95122072740982,-226.68275312710568" stroke="#0d6d4d" stroke-width="0.1" fill="none" />
<path d="M-139.8375535207776,-201.1727084505343 L-46.22816381293648,-240.5991622397807" stroke="#0d6d4d" stroke-width="0.1" fill="none" />
<path d="M-137.92191000355712,-202.4908559440912 L2.3253131243406875,-244.98896489204114" stroke="#0d6d4d" stroke-width="0.1" fill="none" />
<path d="M-135.99384213395493,-203.7907625522927 L50.786718489852376,-239.67834534023405" stroke="#0d6d4d" stroke-width="0.1" fill="none" />
<path d="M-134.05352359717148,-205.07231117628385 L97.23720629453521,-224.87757938939578" stroke="#0d6d4d" stroke-width="0.1" fill="none" />
<path d="M-132.1011291819787,-206.33538637094262 L139.83755352077748,-201.17270845053434" stroke="#0d6d4d" stroke-width="0.1" fill="none" />
<path d="M-130.13683476497343,-207.57987435528042 L176.9009847894655,-169.50233502969004" stroke="#0d6d4d" stroke-width="0.1" fill="none" />
<path d="M-128.16081729473527,-208.80566302269077 L206.959960810427,-131.1204584393546" stroke="#0d6d4d" stroke-width="0.1" fill="none" />
<path d="M-126.1732547758851,-210.0126419510492 L228.82428610463805,-87.54682226501856" stroke="#0d6d4d" stroke-width="0.1" fill="none" />
<path d="M-124.17432625305169,-211.20070241265933 L241.6282352029764,-40.50673959596235" stroke="#0d6d4d" stroke-width="0.1" fill="none" />
<path d="M-122.16421179474119,-212.36973738404822 L244.86483134349692,8.137221339056643" stroke="#0d6d4d" stroke-width="0.1" fill="none" />
<path d="M-120.14309247711772,-213.51964155560663 L238.40592039043702,56.458986200503126" stroke="#0d6d4d" stroke-width="0.1" fill="none" />
<path d="M-118.11115036769,-214.65031134107613 L222.50724514123564,102.54523811303028" stroke="#0d6d4d" stroke-width="0.1" fill="none" />
<path d="M-116.06856850891168,-215.7616448868799 L197.7983191026361,144.57117610426965" stroke="#0d6d4d" stroke-width="0.1" fill="none" />
<path d="M-114.01553090169169,-216.85354208129826 L165.25750068718614,180.87276872604312" stroke="#0d6d4d" stroke-width="0.1" fill="none" />
<path d="M-111.95222248881855,-217.92590456348705 L126.17325477588507,210.0126419510492" stroke="#0d6d4d" stroke-width="0.1" fill="none" />
<path d="M-109.87882913830155,-218.97863573233792 L82.09313550870935,230.83699249112715" stroke="#0d6d4d" stroke-width="0.1" fill="none" />
<path d="M-107.79553762662572,-220.01164075518076 L34.76251034694707,242.52127303471423" stroke="#0d6d4d" stroke-width="0.1" fill="none" />
<path d="M-105.70253562192808,-221.0248265763261 L-13.944548350861208,244.60284048083025" stroke="#0d6d4d" stroke-width="0.1" fill="none" />
<path d="M-103.60001166709057,-222.01810192544818 L-62.09946786759273,236.99927445155146" stroke="#0d6d4d" stroke-width="0.1" fill="none" />
<path d="M-101.48815516275705,-222.99137732580635 L-107.79553762662563,220.0116407551808" stroke="#0d6d4d" stroke-width="0.1" fill="none" />
<path d="M-99.36715635027014,-223.944565102306 L-149.22340605196396,194.3125705821697" stroke="#0d6d4d" stroke-width="0.1" fill="none" />
<path d="M-97.23720629453514,-224.8775793893958 L-184.74272246529233,160.91962744212395" stroke="#0d6d4d" stroke-width="0.1" fill="none" />
<path d="M-95.09849686680789,-225.79033613880318 L-212.94708733444864,121.15501638716698" stroke="#0d6d4d" stroke-width="0.1" fill="none" />
<path d="M-92.95122072740982,-226.68275312710568 L-232.71973914591305,76.59323084880403" stroke="#0d6d4d" stroke-width="0.1" fill="none" />
<path d="M-90.79557130837411,-227.55474996313734 L-243.27777296047876,28.998710029753966" stroke="#0d6d4d" stroke-width="0.1" fill="none" />
<path d="M-88.63174279601924,-228.40624809523118 L-244.20313980319992,-19.744024672259343" stroke="#0d6d4d" stroke-width="0.1" fill="none" />
<path d="M-86.45993011345774,-229.23717081829466 L-235.45919945613048,-67.70498793647448" stroke="#0d6d4d" stroke-width="0.1" fill="none" />
<path d="M-84.28032890303551,-230.04744328072016 L-217.3921712403373,-112.98514895070004" stroke="#0d6d4d" stroke-width="0.1" fill="none" />
<path d="M-82.09313550870937,-230.83699249112715 L-190.71742534297607,-153.791624188531" stroke="#0d6d4d" stroke-width="0.1" fill="none" />
<path d="M-79.89854695835837,-231.60574732493794 L-156.49115748904495,-188.5086672483229" stroke="#0d6d4d" stroke-width="0.1" fill="none" />
<path d="M-77.69676094603663,-232.35363853078445 L-116.06856850891168,-215.7616448868799" stroke="#0d6d4d" stroke-width="0.1" fill="none" />
<path d="M-75.48797581416292,-233.08059873674677 L-71.05020469600446,-234.47146609482328" stroke="#0d6d4d" stroke-width="0.1" fill="none" />
<path d="M-73.27239053565485,-233.78656245642193 L-23.218583626631318,-243.89730907571146" stroke="#0d6d4d" stroke-width="0.1" fill="none" />
<path d="M-71.05020469600446,-234.47146609482328 L25.53238523564398,-243.6659543394987" stroke="#0d6d4d" stroke-width="0.1" fill="none" />
<path d="M-68.82161847529817,-235.1352479541094 L73.27239053565498,-233.7865624564219" stroke="#0d6d4d" stroke-width="0.1" fill="none" />
<path d="M-66.58683263018575,-235.77784823914146 L118.11115036768994,-214.65031134107616" stroke="#0d6d4d" stroke-width="0.1" fill="none" />
<path d="M-64.34604847579405,-236.3992090628705 L158.27325863674702,-187.01490742854" stroke="#0d6d4d" stroke-width="0.1" fill="none" />
<path d="M-62.0994678675927,-236.99927445155149 L192.16848287261269,-151.97458402785108" stroke="#0d6d4d" stroke-width="0.1" fill="none" />
<path d="M-59.8472931832111,-237.5779903497855 L218.45473003067028,-110.91677477833083" stroke="#0d6d4d" stroke-width="0.1" fill="none" />
<path d="M-57.58972730420625,-238.13530462538972 L236.09118712693095,-65.46717773813432" stroke="#0d6d4d" stroke-width="0.1" fill="none" />
<path d="M-55.32697359778837,-238.67116707409303 L244.37953258559216,-17.425385311306865" stroke="#0d6d4d" stroke-width="0.1" fill="none" />
<path d="M-53.059235898499345,-239.185529424059 L242.99158652166344,31.30637123150725" stroke="#0d6d4d" stroke-width="0.1" fill="none" />
<path d="M-50.78671848985254,-239.67834534023402 L231.98230513622323,78.79854125352963" stroke="#0d6d4d" stroke-width="0.1" fill="none" />
<path d="M-48.509626085928694,-240.14957042852146 L211.7876047067627,123.17065597199702" stroke="#0d6d4d" stroke-width="0.1" fill="none" />
<path d="M-46.22816381293648,-240.5991622397807 L183.20710133246706,162.66578626544407" stroke="#0d6d4d" stroke-width="0.1" fill="none" />
<path d="M-43.942537190732494,-241.0270802736512 L147.37244986014812,195.72010888566896" stroke="#0d6d4d" stroke-width="0.1" fill="none" />
<path d="M-41.65295211430924,-241.4332859822006 L105.70253562192796,221.02482657632615" stroke="#0d6d4d" stroke-width="0.1" fill="none" />
<path d="M-39.35961483524589,-241.8177427733976 L59.847293183210965,237.57799034978552" stroke="#0d6d4d" stroke-width="0.1" fill="none" />
<path d="M-37.062731943130295,-242.18041601440788 L11.622376616912096,244.72417200140785" stroke="#0d6d4d" stroke-width="0.1" fill="none" />
<path d="M-34.76251034694721,-242.5212730347142 L-37.06273194313011,242.1804160144079" stroke="#0d6d4d" stroke-width="0.1" fill="none" />
<path d="M-32.45915725644107,-242.8402831290592 L-84.28032890303554,230.04744328072013" stroke="#0d6d4d" stroke-width="0.1" fill="none" />
<path d="M-30.15288016344836,-243.13741756021167 L-128.1608172947351,208.80566302269085" stroke="#0d6d4d" stroke-width="0.1" fill="none" />
<path d="M-27.843886823207917,-243.412649561555 L-166.96673411001635,179.2961508249274" stroke="#0d6d4d" stroke-width="0.1" fill="none" />
<path d="M-25.53238523564409,-243.6659543394987 L-199.16154574504935,142.68734595766583" stroke="#0d6d4d" stroke-width="0.1" fill="none" />
<path d="M-23.218583626631318,-243.89730907571146 L-223.47048757613803,100.42878662257716" stroke="#0d6d4d" stroke-width="0.1" fill="none" />
<path d="M-20.902690429234667,-244.10669292917714 L-238.93103870280217,54.19371498984033" stroke="#0d6d4d" stroke-width="0.1" fill="none" />
<path d="M-18.584914264936273,-244.29408703807172 L-244.93103329339968,5.8128245997567465" stroke="#0d6d4d" stroke-width="0.1" fill="none" />
<path d="M-16.265463924839352,-244.45947452146285 L-241.23289950147392,-42.79822657671441" stroke="#0d6d4d" stroke-width="0.1" fill="none" />
<path d="M-13.944548350861513,-244.60284048083025 L-227.98306620460565,-89.7146672732302" stroke="#0d6d4d" stroke-width="0.1" fill="none" />
<path d="M-11.622376616911907,-244.72417200140785 L-205.7061651027156,-133.07882490739956" stroke="#0d6d4d" stroke-width="0.1" fill="none" />
<path d="M-9.299157910059009,-244.82345815334727 L-175.28425774572628,-171.17368076468355" stroke="#0d6d4d" stroke-width="0.1" fill="none" />
<path d="M-6.97510151168396,-244.90068999270238 L-137.92191000355712,-202.4908559440912" stroke="#0d6d4d" stroke-width="0.1" fill="none" />
<path d="M-4.650416778629681,-244.95586056223485 L-95.09849686680789,-225.79033613880318" stroke="#0d6d4d" stroke-width="0.1" fill="none" />
<path d="M-2.3253131243406333,-244.98896489204114 L-48.509626085928694,-240.14957042852146" stroke="#0d6d4d" stroke-width="0.1" fill="none" />
</svg>