<?xml version="1.0" encoding="UTF-8"?>
<svg xmlns="http://www.w3.org/2000/svg" xmlns:xlink="http://www.w3.org/1999/xlink"
     width="500.0" height="500" viewBox="-250.0 -250.0 500 500">
<defs>
</defs>
<circle cx="0" cy="0" r="245.0" fill="white" stroke-width="2" stroke="black" />
<path d="M0.0,-245.0 L0.0,-245.0" stroke="#0d6d4d" stroke-width="0.1" fill="none" />
<path d="M27.927895423182452,-243.4030251603948 L55.49170801931227,-238.6329196508717" stroke="#0d6d4d" stroke-width="0.1" fill="none" />
<path d="M55.49170801931227,-238.6329196508717 L108.09916980458921,-219.86261502938282" stroke="#0d6d4d" stroke-width="0.1" fill="none" />
<path d="M82.33210133778037,-230.75186909168355 L155.08805118317323,-189.6646946065752" stroke="#0d6d4d" stroke-width="0.1" fill="none" />
<path d="M108.09916980458921,-219.86261502938282 L194.01605025095736,-149.60873051068236" stroke="#0d6d4d" stroke-width="0.1" fill="none" />
<path d="M132.45700027662141,-206.1071155436394 L222.85983886185699,-101.77667818546217" stroke="#0d6d4d" stroke-width="0.1" fill="none" />
<path d="M155.08805118317323,-189.6646946065752 L240.1202274676364,-48.65466432820766" stroke="#0d6d4d" stroke-width="0.1" fill="none" />
<path d="M175.69729216594604,-170.74970432054693 L244.90008724290635,6.9962324444555515" stroke="#0d6d4d" stroke-width="0.1" fill="none" />
<path d="M194.01605025095736,-149.60873051068236 L236.9509794019795,62.28349187740426" stroke="#0d6d4d" stroke-width="0.1" fill="none" />
<path d="M209.80551241163928,-126.51737810154567 L216.6860680944645,114.33349419029007" stroke="#0d6d4d" stroke-width="0.1" fill="none" />
<path d="M222.85983886185699,-101.77667818546217 L185.1586457167933,160.44087981659482" stroke="#0d6d4d" stroke-width="0.1" fill="none" />
<path d="M233.0088464923126,-75.70916362186217 L144.00738681165603,198.20916362186205" stroke="#0d6d4d" stroke-width="0.1" fill="none" />
<path d="M240.1202274676364,-48.65466432820766 L95.37117604776094,225.67529501313828" stroke="#0d6d4d" stroke-width="0.1" fill="none" />
<path d="M244.1012740613594,-20.965877077315707 L41.77793719499277,241.41168978268482" stroke="#0d6d4d" stroke-width="0.1" fill="none" />
<path d="M244.90008724290635,6.9962324444555515 L-13.986758661378095,244.60043046190324" stroke="#0d6d4d" stroke-width="0.1" fill="none" />
<path d="M242.50625326082854,34.86713537695483 L-69.02447642615022,235.07577853555188" stroke="#0d6d4d" stroke-width="0.1" fill="none" />
<path d="M236.9509794019795,62.28349187740426 L-120.47456653817285,213.33278889434544" stroke="#0d6d4d" stroke-width="0.1" fill="none" />
<path d="M228.30668715680582,88.88788781090706 L-165.66285056713477,180.50157877971918" stroke="#0d6d4d" stroke-width="0.1" fill="none" />
<path d="M216.6860680944645,114.33349419029007 L-202.24061475587962,138.28858862235845" stroke="#0d6d4d" stroke-width="0.1" fill="none" />
<path d="M202.24061475587965,138.2885886223584 L-228.3066871568058,88.88788781090716" stroke="#0d6d4d" stroke-width="0.1" fill="none" />
<path d="M185.1586457167933,160.44087981659482 L-242.50625326082852,34.867135376954884" stroke="#0d6d4d" stroke-width="0.1" fill="none" />
<path d="M165.6628505671347,180.50157877971924 L-244.1012740613594,-20.96587707731581" stroke="#0d6d4d" stroke-width="0.1" fill="none" />
<path d="M144.00738681165603,198.20916362186205 L-233.0088464923127,-75.70916362186186" stroke="#0d6d4d" stroke-width="0.1" fill="none" />
<path d="M120.47456653817301,213.33278889434538 L-209.8055124116394,-126.51737810154552" stroke="#0d6d4d" stroke-width="0.1" fill="none" />
<path d="M95.37117604776094,225.67529501313828 L-175.69729216594612,-170.74970432054684" stroke="#0d6d4d" stroke-width="0.1" fill="none" />
<path d="M69.02447642615026,235.07577853555185 L-132.4570002766214,-206.1071155436394" stroke="#0d6d4d" stroke-width="0.1" fill="none" />
<path d="M41.77793719499277,241.41168978268482 L-82.33210133778026,-230.75186909168357" stroke="#0d6d4d" stroke-width="0.1" fill="none" />
<path d="M13.986758661378266,244.60043046190324 L-27.927895423182672,-243.40302516039478" stroke="#0d6d4d" stroke-width="0.1" fill="none" />
<path d="M-13.986758661378095,244.60043046190324 L27.927895423182452,-243.4030251603948" stroke="#0d6d4d" stroke-width="0.1" fill="none" />
<path d="M-41.777937194992816,241.4116897826848 L82.33210133778037,-230.75186909168355" stroke="#0d6d4d" stroke-width="0.1" fill="none" />
<path d="M-69.02447642615022,235.07577853555188 L132.45700027662141,-206.1071155436394" stroke="#0d6d4d" stroke-width="0.1" fill="none" />
<path d="M-95.3711760477609,225.67529501313828 L175.69729216594604,-170.74970432054693" stroke="#0d6d4d" stroke-width="0.1" fill="none" />
<path d="M-120.47456653817285,213.33278889434544 L209.80551241163928,-126.51737810154567" stroke="#0d6d4d" stroke-width="0.1" fill="none" />
<path d="M-144.0073868116559,198.20916362186213 L233.0088464923126,-75.70916362186217" stroke="#0d6d4d" stroke-width="0.1" fill="none" />
<path d="M-165.66285056713477,180.50157877971918 L244.1012740613594,-20.965877077315707" stroke="#0d6d4d" stroke-width="0.1" fill="none" />
<path d="M-185.15864571679325,160.44087981659487 L242.50625326082854,34.86713537695483" stroke="#0d6d4d" stroke-width="0.1" fill="none" />
<path d="M-202.24061475587962,138.28858862235845 L228.30668715680582,88.88788781090706" stroke="#0d6d4d" stroke-width="0.1" fill="none" />
<path d="M-216.68606809446447,114.3334941902901 L202.24061475587965,138.2885886223584" stroke="#0d6d4d" stroke-width="0.1" fill="none" />
<path d="M-228.3066871568058,88.88788781090716 L165.6628505671347,180.50157877971924" stroke="#0d6d4d" stroke-width="0.1" fill="none" />
<path d="M-236.95097940197945,62.283491877404465 L120.47456653817301,213.33278889434538" stroke="#0d6d4d" stroke-width="0.1" fill="none" />
<path d="M-242.50625326082852,34.867135376954884 L69.02447642615026,235.07577853555185" stroke="#0d6d4d" stroke-width="0.1" fill="none" />
<path d="M-244.90008724290635,6.996232444455666 L13.986758661378266,244.60043046190324" stroke="#0d6d4d" stroke-width="0.1" fill="none" />
<path d="M-244.1012740613594,-20.96587707731581 L-41.777937194992816,241.4116897826848" stroke="#0d6d4d" stroke-width="0.1" fill="none" />
<path d="M-240.1202274676364,-48.65466432820765 L-95.3711760477609,225.67529501313828" stroke="#0d6d4d" stroke-width="0.1" fill="none" />
<path d="M-233.0088464923127,-75.70916362186186 L-144.0073868116559,198.20916362186213" stroke="#0d6d4d" stroke-width="0.1" fill="none" />
<path d="M-222.85983886185704,-101.77667818546207 L-185.15864571679325,160.44087981659487" stroke="#0d6d4d" stroke-width="0.1" fill="none" />
<path d="M-209.8055124116394,-126.51737810154552 L-216.68606809446447,114.3334941902901" stroke="#0d6d4d" stroke-width="0.1" fill="none" />
<path d="M-194.0160502509574,-149.60873051068234 L-236.95097940197945,62.283491877404465" stroke="#0d6d4d" stroke-width="0.1" fill="none" />
<path d="M-175.69729216594612,-170.74970432054684 L-244.90008724290635,6.996232444455666" stroke="#0d6d4d" stroke-width="0.1" fill="none" />
<path d="M-155.08805118317335,-189.66469460657513 L-240.1202274676364,-48.65466432820765" stroke="#0d6d4d" stroke-width="0.1" fill="none" />
<path d="M-132.4570002766214,-206.1071155436394 L-222.85983886185704,-101.77667818546207" stroke="#0d6d4d" stroke-width="0.1" fill="none" />
<path d="M-108.09916980458924,-219.8626150293828 L-194.0160502509574,-149.60873051068234" stroke="#0d6d4d" stroke-width="0.1" fill="none" />
<path d="M-82.33210133778026,-230.75186909168357 L-155.08805118317335,-189.66469460657513" stroke="#0d6d4d" stroke-width="0.1" fill="none" />
<path d="M-55.49170801931221,-238.6329196508717 L-108.09916980458924,-219.8626150293828" stroke="#0d6d4d" stroke-width="0.1" fill="none" />
<path d="M-27.927895423182672,-243.40302516039478 L-55.49170801931221,-238.6329196508717" stroke="#0d6d4d" stroke-width="0.1" fill="none" />
</svg>