<?xml version="1.0" encoding="UTF-8"?>
<svg xmlns="http://www.w3.org/2000/svg" xmlns:xlink="http://www.w3.org/1999/xlink"
     width="500.0" height="500" viewBox="-250.0 -250.0 500 500">
<defs>
</defs>
<circle cx="0" cy="0" r="245.0" fill="white" stroke-width="2" stroke="black" />
<path d="M0.0,-245.0 L0.0,-245.0" stroke="#0d6d4d" stroke-width="0.1" fill="none" />
<path d="M21.061375690674385,-244.09305285897892 L41.96682032446201,-241.37892615523486" stroke="#0d6d4d" stroke-width="0.1" fill="none" />
<path d="M41.96682032446201,-241.37892615523486 L82.69311040055776,-230.62274279064755" stroke="#0d6d4d" stroke-width="0.1" fill="none" />
<path d="M62.561557303465825,-236.877714333293 L120.97500978919443,-213.0494003899197" stroke="#0d6d4d" stroke-width="0.1" fill="none" />
<path d="M82.69311040055776,-230.62274279064755 L155.68091371809348,-189.17836320229523" stroke="#0d6d4d" stroke-width="0.1" fill="none" />
<path d="M102.21243264001761,-222.6603211481782 L185.7849230772478,-159.7152539902846" stroke="#0d6d4d" stroke-width="0.1" fill="none" />
<path d="M120.97500978919443,-213.0494003899197 L210.39716977757172,-125.53099597146377" stroke="#0d6d4d" stroke-width="0.1" fill="none" />
<path d="M138.84193029132382,-201.86113641060078 L228.79012106161667,-87.63606851411573" stroke="#0d6d4d" stroke-width="0.1" fill="none" />
<path d="M155.68091371809348,-189.17836320229523 L240.4200852165443,-47.15063758285334" stroke="#0d6d4d" stroke-width="0.1" fill="none" />
<path d="M171.36729012765352,-175.09497958052546 L244.94328298507327,-5.271443871874453" stroke="#0d6d4d" stroke-width="0.1" fill="none" />
<path d="M185.7849230772478,-159.7152539902846 L242.22600960692338,36.763572594439886" stroke="#0d6d4d" stroke-width="0.1" fill="none" />
<path d="M198.82706945680343,-143.15305253895033 L232.34858710298204,77.7118657043309" stroke="#0d6d4d" stroke-width="0.1" fill="none" />
<path d="M210.39716977757172,-125.53099597146377 L215.6029899735162,116.36301265642733" stroke="#0d6d4d" stroke-width="0.1" fill="none" />
<path d="M220.4095630647996,-106.97955182923565 L192.484214494285,151.57449379931333" stroke="#0d6d4d" stroke-width="0.1" fill="none" />
<path d="M228.79012106161667,-87.63606851411573 L163.6756467323157,182.30546526848337" stroke="#0d6d4d" stroke-width="0.1" fill="none" />
<path d="M235.47679704871368,-67.64375840887992 L130.02886179967376,207.64752610874356" stroke="#0d6d4d" stroke-width="0.1" fill="none" />
<path d="M240.4200852165443,-47.15063758285334 L92.5384514749714,226.8515704124932" stroke="#0d6d4d" stroke-width="0.1" fill="none" />
<path d="M243.58338718901823,-26.308429932719953 L52.31262428275005,239.3499307304095" stroke="#0d6d4d" stroke-width="0.1" fill="none" />
<path d="M244.94328298507327,-5.271443871874453 L10.540447086109994,244.77315820004634" stroke="#0d6d4d" stroke-width="0.1" fill="none" />
<path d="M244.48970441202107,15.804570115082477 L-31.54330347588226,242.96094337532605" stroke="#0d6d4d" stroke-width="0.1" fill="none" />
<path d="M242.22600960692338,36.763572594439886 L-72.69464072200508,233.96685493953754" stroke="#0d6d4d" stroke-width="0.1" fill="none" />
<path d="M238.16895817412,57.45039044475041 L-111.69713990957246,218.05675622649576" stroke="#0d6d4d" stroke-width="0.1" fill="none" />
<path d="M232.34858710298204,77.7118657043309 L-147.3978954901059,195.70094635715952" stroke="#0d6d4d" stroke-width="0.1" fill="none" />
<path d="M224.8079883845515,97.39798949922617 L-178.7416007511894,167.56025829802965" stroke="#0d6d4d" stroke-width="0.1" fill="none" />
<path d="M215.6029899735162,116.36301265642733 L-204.80174245756604,134.4665247797562" stroke="#0d6d4d" stroke-width="0.1" fill="none" />
<path d="M204.801742457566,134.4665247797562 L-224.8079883845515,97.39798949922617" stroke="#0d6d4d" stroke-width="0.1" fill="none" />
<path d="M192.484214494285,151.57449379931333 L-238.16895817412,57.45039044475037" stroke="#0d6d4d" stroke-width="0.1" fill="none" />
<path d="M178.74160075118945,167.56025829802957 L-244.48970441202107,15.80457011508248" stroke="#0d6d4d" stroke-width="0.1" fill="none" />
<path d="M163.6756467323157,182.30546526848337 L-243.58338718901823,-26.30842993271995" stroke="#0d6d4d" stroke-width="0.1" fill="none" />
<path d="M147.39789549010604,195.7009463571594 L-235.47679704871368,-67.64375840887986" stroke="#0d6d4d" stroke-width="0.1" fill="none" />
<path d="M130.02886179967376,207.64752610874356 L-220.4095630647997,-106.97955182923545" stroke="#0d6d4d" stroke-width="0.1" fill="none" />
<path d="M111.69713990957241,218.0567562264958 L-198.82706945680349,-143.15305253895025" stroke="#0d6d4d" stroke-width="0.1" fill="none" />
<path d="M92.5384514749714,226.8515704124932 L-171.36729012765355,-175.0949795805254" stroke="#0d6d4d" stroke-width="0.1" fill="none" />
<path d="M72.69464072200512,233.9668549395375 L-138.84193029132385,-201.86113641060078" stroke="#0d6d4d" stroke-width="0.1" fill="none" />
<path d="M52.31262428275005,239.3499307304095 L-102.21243264001765,-222.66032114817818" stroke="#0d6d4d" stroke-width="0.1" fill="none" />
<path d="M31.543303475882315,242.96094337532605 L-62.56155730346587,-236.877714333293" stroke="#0d6d4d" stroke-width="0.1" fill="none" />
<path d="M10.540447086109994,244.77315820004634 L-21.061375690674446,-244.0930528589789" stroke="#0d6d4d" stroke-width="0.1" fill="none" />
<path d="M-10.540447086109934,244.77315820004634 L21.061375690674385,-244.09305285897892" stroke="#0d6d4d" stroke-width="0.1" fill="none" />
<path d="M-31.54330347588226,242.96094337532605 L62.561557303465825,-236.877714333293" stroke="#0d6d4d" stroke-width="0.1" fill="none" />
<path d="M-52.312624282749994,239.3499307304095 L102.21243264001761,-222.6603211481782" stroke="#0d6d4d" stroke-width="0.1" fill="none" />
<path d="M-72.69464072200508,233.96685493953754 L138.84193029132382,-201.86113641060078" stroke="#0d6d4d" stroke-width="0.1" fill="none" />
<path d="M-92.53845147497124,226.8515704124933 L171.36729012765352,-175.09497958052546" stroke="#0d6d4d" stroke-width="0.1" fill="none" />
<path d="M-111.69713990957246,218.05675622649576 L198.82706945680343,-143.15305253895033" stroke="#0d6d4d" stroke-width="0.1" fill="none" />
<path d="M-130.02886179967362,207.64752610874365 L220.4095630647996,-106.97955182923565" stroke="#0d6d4d" stroke-width="0.1" fill="none" />
<path d="M-147.3978954901059,195.70094635715952 L235.47679704871368,-67.64375840887992" stroke="#0d6d4d" stroke-width="0.1" fill="none" />
<path d="M-163.67564673231564,182.3054652684834 L243.58338718901823,-26.308429932719953" stroke="#0d6d4d" stroke-width="0.1" fill="none" />
<path d="M-178.7416007511894,167.56025829802965 L244.48970441202107,15.804570115082477" stroke="#0d6d4d" stroke-width="0.1" fill="none" />
<path d="M-192.48421449428503,151.57449379931333 L238.16895817412,57.45039044475041" stroke="#0d6d4d" stroke-width="0.1" fill="none" />
<path d="M-204.80174245756604,134.4665247797562 L224.8079883845515,97.39798949922617" stroke="#0d6d4d" stroke-width="0.1" fill="none" />
<path d="M-215.60298997351612,116.36301265642749 L204.801742457566,134.4665247797562" stroke="#0d6d4d" stroke-width="0.1" fill="none" />
<path d="M-224.8079883845515,97.39798949922617 L178.74160075118945,167.56025829802957" stroke="#0d6d4d" stroke-width="0.1" fill="none" />
<path d="M-232.34858710298204,77.71186570433095 L147.39789549010604,195.7009463571594" stroke="#0d6d4d" stroke-width="0.1" fill="none" />
<path d="M-238.16895817412,57.45039044475037 L111.69713990957241,218.0567562264958" stroke="#0d6d4d" stroke-width="0.1" fill="none" />
<path d="M-242.22600960692338,36.76357259443989 L72.69464072200512,233.9668549395375" stroke="#0d6d4d" stroke-width="0.1" fill="none" />
<path d="M-244.48970441202107,15.80457011508248 L31.543303475882315,242.96094337532605" stroke="#0d6d4d" stroke-width="0.1" fill="none" />
<path d="M-244.94328298507327,-5.271443871874447 L-10.540447086109934,244.77315820004634" stroke="#0d6d4d" stroke-width="0.1" fill="none" />
<path d="M-243.58338718901823,-26.30842993271995 L-52.312624282749994,239.3499307304095" stroke="#0d6d4d" stroke-width="0.1" fill="none" />
<path d="M-240.42008521654435,-47.15063758285312 L-92.53845147497124,226.8515704124933" stroke="#0d6d4d" stroke-width="0.1" fill="none" />
<path d="M-235.47679704871368,-67.64375840887986 L-130.02886179967362,207.64752610874365" stroke="#0d6d4d" stroke-width="0.1" fill="none" />
<path d="M-228.79012106161667,-87.63606851411573 L-163.67564673231564,182.3054652684834" stroke="#0d6d4d" stroke-width="0.1" fill="none" />
<path d="M-220.4095630647997,-106.97955182923545 L-192.48421449428503,151.57449379931333" stroke="#0d6d4d" stroke-width="0.1" fill="none" />
<path d="M-210.39716977757175,-125.53099597146377 L-215.60298997351612,116.36301265642749" stroke="#0d6d4d" stroke-width="0.1" fill="none" />
<path d="M-198.82706945680349,-143.15305253895025 L-232.34858710298204,77.71186570433095" stroke="#0d6d4d" stroke-width="0.1" fill="none" />
<path d="M-185.7849230772478,-159.71525399028457 L-242.22600960692338,36.76357259443989" stroke="#0d6d4d" stroke-width="0.1" fill="none" />
<path d="M-171.36729012765355,-175.0949795805254 L-244.94328298507327,-5.271443871874447" stroke="#0d6d4d" stroke-width="0.1" fill="none" />
<path d="M-155.6809137180935,-189.17836320229523 L-240.42008521654435,-47.15063758285312" stroke="#0d6d4d" stroke-width="0.1" fill="none" />
<path d="M-138.84193029132385,-201.86113641060078 L-228.79012106161667,-87.63606851411573" stroke="#0d6d4d" stroke-width="0.1" fill="none" />
<path d="M-120.97500978919446,-213.04940038991967 L-210.39716977757175,-125.53099597146377" stroke="#0d6d4d" stroke-width="0.1" fill="none" />
<path d="M-102.21243264001765,-222.66032114817818 L-185.7849230772478,-159.71525399028457" stroke="#0d6d4d" stroke-width="0.1" fill="none" />
<path d="M-82.69311040055779,-230.62274279064752 L-155.6809137180935,-189.17836320229523" stroke="#0d6d4d" stroke-width="0.1" fill="none" />
<path d="M-62.56155730346587,-236.877714333293 L-120.97500978919446,-213.04940038991967" stroke="#0d6d4d" stroke-width="0.1" fill="none" />
<path d="M-41.96682032446206,-241.37892615523486 L-82.69311040055779,-230.62274279064752" stroke="#0d6d4d" stroke-width="0.1" fill="none" />
<path d="M-21.061375690674446,-244.0930528589789 L-41.96682032446206,-241.37892615523486" stroke="#0d6d4d" stroke-width="0.1" fill="none" />
</svg>