<?xml version="1.0" encoding="UTF-8"?>
<svg xmlns="http://www.w3.org/2000/svg" xmlns:xlink="http://www.w3.org/1999/xlink"
     width="500.0" height="500" viewBox="-250.0 -250.0 500 500">
<defs>
</defs>
<circle cx="0" cy="0" r="245.0" fill="white" stroke-width="2" stroke="black" />
<path d="M0.0,-245.0 L0.0,-245.0" stroke="#0d6d4d" stroke-width="0.1" fill="none" />
<path d="M2.3044276970535242,-244.98916223577945 L48.07961855352255,-240.23603035295886" stroke="#0d6d4d" stroke-width="0.1" fill="none" />
<path d="M4.608651517829138,-244.95664990195144 L94.28944246679778,-226.1293900387573" stroke="#0d6d4d" stroke-width="0.1" fill="none" />
<path d="M6.9124676040861806,-244.90246587493246 L136.8323925682505,-203.22867992497564" stroke="#0d6d4d" stroke-width="0.1" fill="none" />
<path d="M9.215672133656891,-244.82661494846704 L174.05399275193042,-172.42449828000355" stroke="#0d6d4d" stroke-width="0.1" fill="none" />
<path d="M11.518061338478882,-244.7291038332038 L204.50671180567966,-134.91480580880915" stroke="#0d6d4d" stroke-width="0.1" fill="none" />
<path d="M13.819431522622791,-244.6099411561017 L227.00625724589054,-92.1583375024342" stroke="#0d6d4d" stroke-width="0.1" fill="none" />
<path d="M16.119579080313603,-244.4691374596669 L240.67763191705785,-45.817873093337866" stroke="#0d6d4d" stroke-width="0.1" fill="none" />
<path d="M18.418300513943947,-244.30670520101992 L244.98916223577945,2.304427697053525" stroke="#0d6d4d" stroke-width="0.1" fill="none" />
<path d="M20.715392452077854,-244.12265875079353 L239.7731747361721,50.337110335587255" stroke="#0d6d4d" stroke-width="0.1" fill="none" />
<path d="M23.010651667443334,-243.91701439186153 L225.23251681519483,96.41220549854141" stroke="#0d6d4d" stroke-width="0.1" fill="none" />
<path d="M25.30387509491221,-243.68979031789797 L201.93266808903982,138.73787355456213" stroke="#0d6d4d" stroke-width="0.1" fill="none" />
<path d="M27.594859849465617,-243.44100663176766 L170.779749146377,175.66808839826476" stroke="#0d6d4d" stroke-width="0.1" fill="none" />
<path d="M29.88340324414353,-243.1706853437476 L132.98528292810067,205.76665066169744" stroke="#0d6d4d" stroke-width="0.1" fill="none" />
<path d="M32.1693028079768,-242.87885036957974 L90.0190791475987,227.86304085879826" stroke="#0d6d4d" stroke-width="0.1" fill="none" />
<path d="M34.452356303900075,-242.56552752835495 L43.55207405514763,241.0979403592966" stroke="#0d6d4d" stroke-width="0.1" fill="none" />
<path d="M36.73236174664406,-242.23074454022898 L-4.6086515178291405,244.95664990195144" stroke="#0d6d4d" stroke-width="0.1" fill="none" />
<path d="M39.00911742060539,-241.87453102396998 L-52.590148715746906,239.28910601624895" stroke="#0d6d4d" stroke-width="0.1" fill="none" />
<path d="M41.28242189769279,-241.49691849433793 L-98.52643879354072,224.31571692296257" stroke="#0d6d4d" stroke-width="0.1" fill="none" />
<path d="M43.55207405514767,-241.0979403592966 L-140.6310801868978,200.61879095804142" stroke="#0d6d4d" stroke-width="0.1" fill="none" />
<path d="M45.81787309333786,-240.67763191705785 L-177.2666424174714,169.11989086454713" stroke="#0d6d4d" stroke-width="0.1" fill="none" />
<path d="M48.07961855352255,-240.23603035295886 L-207.00838502429195,131.04399463399494" stroke="#0d6d4d" stroke-width="0.1" fill="none" />
<path d="M50.33711033558725,-239.7731747361721 L-228.6996650765108,87.87185666578229" stroke="#0d6d4d" stroke-width="0.1" fill="none" />
<path d="M52.59014871574695,-239.28910601624892 L-241.49691849433793,41.2824218976928" stroke="#0d6d4d" stroke-width="0.1" fill="none" />
<path d="M54.83853436421599,-238.78386701949674 L-244.90246587493246,-6.912467604086129" stroke="#0d6d4d" stroke-width="0.1" fill="none" />
<path d="M57.08206836284307,-238.25750244519 L-238.78386701949677,-54.838534364215896" stroke="#0d6d4d" stroke-width="0.1" fill="none" />
<path d="M59.32055222270982,-237.7100588616156 L-223.37907147276312,-100.63195530231037" stroke="#0d6d4d" stroke-width="0.1" fill="none" />
<path d="M61.553787901691464,-237.14158470195306 L-199.28716477271948,-142.51184497034254" stroke="#0d6d4d" stroke-width="0.1" fill="none" />
<path d="M63.78157782197794,-236.55213025998935 L-167.4450702847402,-178.84951338300704" stroke="#0d6d4d" stroke-width="0.1" fill="none" />
<path d="M66.00372488755379,-235.94174768566947 L-129.09111267526566,-208.23180503530642" stroke="#0d6d4d" stroke-width="0.1" fill="none" />
<path d="M68.22003250163566,-235.31049098048257 L-85.7168600250747,-229.5160558815913" stroke="#0d6d4d" stroke-width="0.1" fill="none" />
<path d="M70.4303045840655,-234.65841599268447 L-39.009117420605556,-241.87453102396995" stroke="#0d6d4d" stroke-width="0.1" fill="none" />
<path d="M72.6343455886581,-233.98558041235657 L9.215672133656891,-244.82661494846704" stroke="#0d6d4d" stroke-width="0.1" fill="none" />
<path d="M74.83196052050126,-233.29204376630193 L57.08206836284307,-238.25750244519" stroke="#0d6d4d" stroke-width="0.1" fill="none" />
<path d="M77.02295495320742,-232.57786741277894 L102.7285687465524,-222.4226633310663" stroke="#0d6d4d" stroke-width="0.1" fill="none" />
<path d="M79.20713504611473,-231.84311453607273 L144.38000151073066,-197.9379073440997" stroke="#0d6d4d" stroke-width="0.1" fill="none" />
<path d="M81.38430756143661,-231.08785014090526 L180.4165612558324,-165.75543558091985" stroke="#0d6d4d" stroke-width="0.1" fill="none" />
<path d="M83.55427988135764,-230.3121410466842 L209.43680245688253,-127.12680982639641" stroke="#0d6d4d" stroke-width="0.1" fill="none" />
<path d="M85.7168600250748,-229.51605588159129 L230.3121410466842,-83.55427988135764" stroke="#0d6d4d" stroke-width="0.1" fill="none" />
<path d="M87.87185666578232,-228.6996650765108 L242.23074454022898,-36.732361746644116" stroke="#0d6d4d" stroke-width="0.1" fill="none" />
<path d="M90.01907914759869,-227.86304085879826 L244.7291038332038,11.518061338478837" stroke="#0d6d4d" stroke-width="0.1" fill="none" />
<path d="M92.15833750243418,-227.00625724589054 L237.71005886161564,59.32055222270978" stroke="#0d6d4d" stroke-width="0.1" fill="none" />
<path d="M94.28944246679778,-226.1293900387573 L221.44657711277765,104.81609363563703" stroke="#0d6d4d" stroke-width="0.1" fill="none" />
<path d="M96.41220549854138,-225.23251681519486 L196.5711380430709,146.23538452936748" stroke="#0d6d4d" stroke-width="0.1" fill="none" />
<path d="M98.52643879354069,-224.31571692296257 L164.05113623767826,181.96764739680165" stroke="#0d6d4d" stroke-width="0.1" fill="none" />
<path d="M100.6319553023103,-223.37907147276314 L125.15125987229445,210.6232706810371" stroke="#0d6d4d" stroke-width="0.1" fill="none" />
<path d="M102.7285687465524,-222.4226633310663 L81.38430756143667,231.08785014090526" stroke="#0d6d4d" stroke-width="0.1" fill="none" />
<path d="M104.816093635637,-221.44657711277765 L34.452356303900075,242.56552752835495" stroke="#0d6d4d" stroke-width="0.1" fill="none" />
<path d="M106.89434528301268,-220.45089917375267 L-13.819431522622748,244.6099411561017" stroke="#0d6d4d" stroke-width="0.1" fill="none" />
<path d="M108.96313982254597,-219.4357176031566 L-61.55378790169139,237.1415847019531" stroke="#0d6d4d" stroke-width="0.1" fill="none" />
<path d="M111.02229422478844,-218.4011222156711 L-106.89434528301265,220.45089917375267" stroke="#0d6d4d" stroke-width="0.1" fill="none" />
<path d="M113.07162631316936,-217.34720454354823 L-148.0778298776513,195.18697778982428" stroke="#0d6d4d" stroke-width="0.1" fill="none" />
<path d="M115.11095478011343,-216.2740578285123 L-183.50263457892797,162.33232303701078" stroke="#0d6d4d" stroke-width="0.1" fill="none" />
<path d="M117.14009920308104,-215.18177701351092 L-211.79110473909358,123.16463759291577" stroke="#0d6d4d" stroke-width="0.1" fill="none" />
<path d="M119.15888006053079,-214.07045873431494 L-231.8431145360727,79.20713504611484" stroke="#0d6d4d" stroke-width="0.1" fill="none" />
<path d="M121.16711874780194,-212.94020131096914 L-242.8788503695797,32.16930280797696" stroke="#0d6d4d" stroke-width="0.1" fill="none" />
<path d="M123.1646375929157,-211.79110473909364 L-244.4691374596669,-16.119579080313617" stroke="#0d6d4d" stroke-width="0.1" fill="none" />
<path d="M125.15125987229442,-210.62327068103713 L-236.55213025998935,-63.78157782197791" stroke="#0d6d4d" stroke-width="0.1" fill="none" />
<path d="M127.1268098263964,-209.43680245688256 L-219.43571760315663,-108.96313982254591" stroke="#0d6d4d" stroke-width="0.1" fill="none" />
<path d="M129.09111267526558,-208.23180503530648 L-193.78554904315556,-149.9071745515963" stroke="#0d6d4d" stroke-width="0.1" fill="none" />
<path d="M131.0439946339948,-207.00838502429204 L-160.59914804497635,-185.0213869995244" stroke="#0d6d4d" stroke-width="0.1" fill="none" />
<path d="M132.98528292810067,-205.7666506616974 L-121.16711874780194,-212.94020131096914" stroke="#0d6d4d" stroke-width="0.1" fill="none" />
<path d="M134.91480580880912,-204.50671180567969 L-77.02295495320745,-232.57786741277894" stroke="#0d6d4d" stroke-width="0.1" fill="none" />
<path d="M136.8323925682505,-203.22867992497564 L-29.88340324414363,-243.1706853437476" stroke="#0d6d4d" stroke-width="0.1" fill="none" />
<path d="M138.7378735545621,-201.93266808903985 L18.418300513943947,-244.30670520101992" stroke="#0d6d4d" stroke-width="0.1" fill="none" />
<path d="M140.63108018689783,-200.61879095804142 L66.00372488755379,-235.94174768566947" stroke="#0d6d4d" stroke-width="0.1" fill="none" />
<path d="M142.5118449703425,-199.2871647727195 L111.02229422478844,-218.4011222156711" stroke="#0d6d4d" stroke-width="0.1" fill="none" />
<path d="M144.38000151073066,-197.9379073440997 L151.7232567062536,-192.36697578963046" stroke="#0d6d4d" stroke-width="0.1" fill="none" />
<path d="M146.2353845293675,-196.5711380430709 L186.52377029221813,-158.85176459824373" stroke="#0d6d4d" stroke-width="0.1" fill="none" />
<path d="M148.0778298776514,-195.18697778982423 L214.07045873431494,-119.1588800605308" stroke="#0d6d4d" stroke-width="0.1" fill="none" />
<path d="M149.9071745515964,-193.78554904315547 L233.29204376630193,-74.83196052050126" stroke="#0d6d4d" stroke-width="0.1" fill="none" />
<path d="M151.7232567062536,-192.36697578963046 L243.44100663176766,-27.59485984946566" stroke="#0d6d4d" stroke-width="0.1" fill="none" />
<path d="M153.52591567002946,-190.93138353261625 L244.12265875079353,20.715392452077822" stroke="#0d6d4d" stroke-width="0.1" fill="none" />
<path d="M155.314991958901,-189.47889928117726 L235.3104909804826,68.22003250163559" stroke="#0d6d4d" stroke-width="0.1" fill="none" />
<path d="M157.09032729052547,-188.0096515388388 L217.34720454354823,113.07162631316935" stroke="#0d6d4d" stroke-width="0.1" fill="none" />
<path d="M158.8517645982437,-186.52377029221816 L190.9313835326163,153.5259156700294" stroke="#0d6d4d" stroke-width="0.1" fill="none" />
<path d="M160.59914804497635,-185.02138699952437 L157.09032729052547,188.0096515388388" stroke="#0d6d4d" stroke-width="0.1" fill="none" />
<path d="M162.33232303701078,-183.502634578928 L117.14009920308108,215.1817770135109" stroke="#0d6d4d" stroke-width="0.1" fill="none" />
<path d="M164.0511362376782,-181.9676473968017 L72.6343455886582,233.98558041235654" stroke="#0d6d4d" stroke-width="0.1" fill="none" />
<path d="M165.75543558091982,-180.41656125583242 L25.303875094912257,243.68979031789797" stroke="#0d6d4d" stroke-width="0.1" fill="none" />
<path d="M167.44507028474018,-178.84951338300706 L-23.010651667443245,243.91701439186156" stroke="#0d6d4d" stroke-width="0.1" fill="none" />
<path d="M169.11989086454713,-177.2666424174714 L-70.4303045840656,234.65841599268444" stroke="#0d6d4d" stroke-width="0.1" fill="none" />
<path d="M170.77974914637693,-175.66808839826479 L-115.11095478011335,216.27405782851235" stroke="#0d6d4d" stroke-width="0.1" fill="none" />
<path d="M172.42449828000355,-174.05399275193042 L-155.314991958901,189.47889928117726" stroke="#0d6d4d" stroke-width="0.1" fill="none" />
<path d="M174.05399275193042,-172.42449828000355 L-189.4788992811773,155.31499195890098" stroke="#0d6d4d" stroke-width="0.1" fill="none" />
<path d="M175.66808839826476,-170.779749146377 L-216.27405782851233,115.11095478011342" stroke="#0d6d4d" stroke-width="0.1" fill="none" />
<path d="M177.26664241747136,-169.11989086454716 L-234.65841599268447,70.43030458406555" stroke="#0d6d4d" stroke-width="0.1" fill="none" />
<path d="M178.849513383007,-167.44507028474024 L-243.91701439186156,23.01065166744321" stroke="#0d6d4d" stroke-width="0.1" fill="none" />
<path d="M180.4165612558324,-165.75543558091985 L-243.68979031789797,-25.303875094912073" stroke="#0d6d4d" stroke-width="0.1" fill="none" />
<path d="M181.96764739680168,-164.0511362376782 L-233.98558041235663,-72.63434558865794" stroke="#0d6d4d" stroke-width="0.1" fill="none" />
<path d="M183.50263457892797,-162.33232303701078 L-215.18177701351092,-117.14009920308104" stroke="#0d6d4d" stroke-width="0.1" fill="none" />
<path d="M185.02138699952437,-160.59914804497637 L-188.00965153883882,-157.0903272905254" stroke="#0d6d4d" stroke-width="0.1" fill="none" />
<path d="M186.52377029221813,-158.85176459824373 L-153.52591567002955,-190.93138353261617" stroke="#0d6d4d" stroke-width="0.1" fill="none" />
<path d="M188.00965153883877,-157.0903272905255 L-113.07162631316952,-217.34720454354814" stroke="#0d6d4d" stroke-width="0.1" fill="none" />
<path d="M189.47889928117723,-155.31499195890103 L-68.22003250163566,-235.31049098048257" stroke="#0d6d4d" stroke-width="0.1" fill="none" />
<path d="M190.93138353261625,-153.52591567002946 L-20.715392452077893,-244.12265875079353" stroke="#0d6d4d" stroke-width="0.1" fill="none" />
<path d="M192.36697578963046,-151.7232567062536 L27.594859849465617,-243.44100663176766" stroke="#0d6d4d" stroke-width="0.1" fill="none" />
<path d="M193.78554904315544,-149.90717455159643 L74.83196052050126,-233.29204376630193" stroke="#0d6d4d" stroke-width="0.1" fill="none" />
<path d="M195.18697778982423,-148.07782987765142 L119.15888006053079,-214.07045873431494" stroke="#0d6d4d" stroke-width="0.1" fill="none" />
<path d="M196.5711380430709,-146.2353845293675 L158.8517645982437,-186.52377029221816" stroke="#0d6d4d" stroke-width="0.1" fill="none" />
<path d="M197.9379073440997,-144.38000151073066 L192.36697578963046,-151.7232567062536" stroke="#0d6d4d" stroke-width="0.1" fill="none" />
<path d="M199.28716477271948,-142.51184497034254 L218.4011222156711,-111.02229422478842" stroke="#0d6d4d" stroke-width="0.1" fill="none" />
<path d="M200.6187909580414,-140.63108018689786 L235.94174768566947,-66.00372488755377" stroke="#0d6d4d" stroke-width="0.1" fill="none" />
<path d="M201.93266808903982,-138.73787355456216 L244.3067052010199,-18.41830051394398" stroke="#0d6d4d" stroke-width="0.1" fill="none" />
<path d="M203.22867992497564,-136.8323925682505 L243.17068534374764,29.883403244143505" stroke="#0d6d4d" stroke-width="0.1" fill="none" />
<path d="M204.50671180567966,-134.91480580880915 L232.57786741277897,77.0229549532074" stroke="#0d6d4d" stroke-width="0.1" fill="none" />
<path d="M205.7666506616974,-132.9852829281007 L212.94020131096914,121.16711874780195" stroke="#0d6d4d" stroke-width="0.1" fill="none" />
<path d="M207.00838502429204,-131.04399463399483 L185.02138699952437,160.59914804497635" stroke="#0d6d4d" stroke-width="0.1" fill="none" />
<path d="M208.23180503530645,-129.09111267526563 L149.90717455159643,193.7855490431554" stroke="#0d6d4d" stroke-width="0.1" fill="none" />
<path d="M209.43680245688253,-127.12680982639641 L108.96313982254597,219.4357176031566" stroke="#0d6d4d" stroke-width="0.1" fill="none" />
<path d="M210.6232706810371,-125.15125987229445 L63.78157782197798,236.55213025998935" stroke="#0d6d4d" stroke-width="0.1" fill="none" />
<path d="M211.79110473909364,-123.1646375929157 L16.11957908031358,244.46913745966694" stroke="#0d6d4d" stroke-width="0.1" fill="none" />
<path d="M212.94020131096914,-121.16711874780195 L-32.16930280797667,242.87885036957977" stroke="#0d6d4d" stroke-width="0.1" fill="none" />
<path d="M214.07045873431494,-119.1588800605308 L-79.20713504611477,231.8431145360727" stroke="#0d6d4d" stroke-width="0.1" fill="none" />
<path d="M215.1817770135109,-117.14009920308106 L-123.16463759291561,211.7911047390937" stroke="#0d6d4d" stroke-width="0.1" fill="none" />
<path d="M216.27405782851233,-115.11095478011339 L-162.3323230370108,183.50263457892797" stroke="#0d6d4d" stroke-width="0.1" fill="none" />
<path d="M217.3472045435482,-113.07162631316938 L-195.18697778982417,148.07782987765145" stroke="#0d6d4d" stroke-width="0.1" fill="none" />
<path d="M218.4011222156711,-111.02229422478842 L-220.4508991737527,106.89434528301261" stroke="#0d6d4d" stroke-width="0.1" fill="none" />
<path d="M219.43571760315658,-108.96313982254601 L-237.14158470195306,61.55378790169145" stroke="#0d6d4d" stroke-width="0.1" fill="none" />
<path d="M220.45089917375267,-106.8943452830127 L-244.60994115610168,13.819431522622823" stroke="#0d6d4d" stroke-width="0.1" fill="none" />
<path d="M221.44657711277762,-104.81609363563706 L-242.56552752835495,-34.452356303900004" stroke="#0d6d4d" stroke-width="0.1" fill="none" />
<path d="M222.4226633310663,-102.7285687465524 L-231.08785014090523,-81.38430756143671" stroke="#0d6d4d" stroke-width="0.1" fill="none" />
<path d="M223.37907147276314,-100.63195530231033 L-210.6232706810372,-125.15125987229428" stroke="#0d6d4d" stroke-width="0.1" fill="none" />
<path d="M224.31571692296257,-98.5264387935407 L-181.9676473968017,-164.0511362376782" stroke="#0d6d4d" stroke-width="0.1" fill="none" />
<path d="M225.23251681519483,-96.41220549854144 L-146.23538452936754,-196.57113804307085" stroke="#0d6d4d" stroke-width="0.1" fill="none" />
<path d="M226.1293900387573,-94.2894424667978 L-104.8160936356371,-221.44657711277762" stroke="#0d6d4d" stroke-width="0.1" fill="none" />
<path d="M227.00625724589054,-92.1583375024342 L-59.320552222709956,-237.71005886161558" stroke="#0d6d4d" stroke-width="0.1" fill="none" />
<path d="M227.86304085879826,-90.01907914759869 L-11.518061338479075,-244.7291038332038" stroke="#0d6d4d" stroke-width="0.1" fill="none" />
<path d="M228.69966507651077,-87.87185666578236 L36.73236174664406,-242.23074454022898" stroke="#0d6d4d" stroke-width="0.1" fill="none" />
<path d="M229.51605588159129,-85.71686002507482 L83.55427988135764,-230.3121410466842" stroke="#0d6d4d" stroke-width="0.1" fill="none" />
<path d="M230.3121410466842,-83.55427988135764 L127.1268098263964,-209.43680245688256" stroke="#0d6d4d" stroke-width="0.1" fill="none" />
<path d="M231.0878501409053,-81.3843075614366 L165.75543558091982,-180.41656125583242" stroke="#0d6d4d" stroke-width="0.1" fill="none" />
<path d="M231.84311453607273,-79.20713504611476 L197.9379073440997,-144.38000151073066" stroke="#0d6d4d" stroke-width="0.1" fill="none" />
<path d="M232.57786741277894,-77.02295495320742 L222.4226633310663,-102.7285687465524" stroke="#0d6d4d" stroke-width="0.1" fill="none" />
<path d="M233.29204376630193,-74.83196052050126 L238.25750244519,-57.08206836284304" stroke="#0d6d4d" stroke-width="0.1" fill="none" />
<path d="M233.98558041235657,-72.63434558865814 L244.826614948467,-9.215672133656918" stroke="#0d6d4d" stroke-width="0.1" fill="none" />
<path d="M234.65841599268447,-70.43030458406552 L241.87453102396998,39.009117420605385" stroke="#0d6d4d" stroke-width="0.1" fill="none" />
<path d="M235.31049098048257,-68.22003250163567 L229.51605588159129,85.7168600250748" stroke="#0d6d4d" stroke-width="0.1" fill="none" />
<path d="M235.94174768566947,-66.00372488755377 L208.23180503530648,129.09111267526558" stroke="#0d6d4d" stroke-width="0.1" fill="none" />
<path d="M236.55213025998935,-63.78157782197797 L178.8495133830071,167.44507028474015" stroke="#0d6d4d" stroke-width="0.1" fill="none" />
<path d="M237.14158470195306,-61.55378790169148 L142.5118449703425,199.2871647727195" stroke="#0d6d4d" stroke-width="0.1" fill="none" />
<path d="M237.7100588616156,-59.320552222709864 L100.63195530231035,223.37907147276314" stroke="#0d6d4d" stroke-width="0.1" fill="none" />
<path d="M238.25750244519,-57.08206836284304 L54.83853436421607,238.78386701949674" stroke="#0d6d4d" stroke-width="0.1" fill="none" />
<path d="M238.78386701949674,-54.838534364216 L6.912467604086204,244.90246587493246" stroke="#0d6d4d" stroke-width="0.1" fill="none" />
<path d="M239.28910601624892,-52.59014871574695 L-41.28242189769272,241.49691849433796" stroke="#0d6d4d" stroke-width="0.1" fill="none" />
<path d="M239.77317473617208,-50.33711033558728 L-87.87185666578232,228.6996650765108" stroke="#0d6d4d" stroke-width="0.1" fill="none" />
<path d="M240.23603035295886,-48.07961855352257 L-131.0439946339947,207.00838502429212" stroke="#0d6d4d" stroke-width="0.1" fill="none" />
<path d="M240.67763191705785,-45.817873093337866 L-169.11989086454716,177.26664241747136" stroke="#0d6d4d" stroke-width="0.1" fill="none" />
<path d="M241.0979403592966,-43.55207405514767 L-200.61879095804136,140.6310801868979" stroke="#0d6d4d" stroke-width="0.1" fill="none" />
<path d="M241.49691849433793,-41.282421897692814 L-224.31571692296254,98.52643879354078" stroke="#0d6d4d" stroke-width="0.1" fill="none" />
<path d="M241.87453102396998,-39.009117420605406 L-239.2891060162489,52.59014871574709" stroke="#0d6d4d" stroke-width="0.1" fill="none" />
<path d="M242.23074454022898,-36.732361746644116 L-244.95664990195144,4.608651517829107" stroke="#0d6d4d" stroke-width="0.1" fill="none" />
<path d="M242.56552752835492,-34.45235630390012 L-241.0979403592966,-43.55207405514766" stroke="#0d6d4d" stroke-width="0.1" fill="none" />
<path d="M242.87885036957974,-32.16930280797682 L-227.86304085879829,-90.01907914759863" stroke="#0d6d4d" stroke-width="0.1" fill="none" />
<path d="M243.1706853437476,-29.88340324414353 L-205.76665066169744,-132.9852829281006" stroke="#0d6d4d" stroke-width="0.1" fill="none" />
<path d="M243.44100663176766,-27.59485984946566 L-175.66808839826473,-170.779749146377" stroke="#0d6d4d" stroke-width="0.1" fill="none" />
<path d="M243.68979031789797,-25.30387509491224 L-138.7378735545623,-201.93266808903974" stroke="#0d6d4d" stroke-width="0.1" fill="none" />
<path d="M243.91701439186153,-23.01065166744334 L-96.41220549854143,-225.23251681519483" stroke="#0d6d4d" stroke-width="0.1" fill="none" />
<path d="M244.12265875079353,-20.715392452077847 L-50.337110335587326,-239.77317473617208" stroke="#0d6d4d" stroke-width="0.1" fill="none" />
<path d="M244.3067052010199,-18.41830051394398 L-2.3044276970536544,-244.98916223577942" stroke="#0d6d4d" stroke-width="0.1" fill="none" />
<path d="M244.4691374596669,-16.11957908031362 L45.81787309333786,-240.67763191705785" stroke="#0d6d4d" stroke-width="0.1" fill="none" />
<path d="M244.6099411561017,-13.819431522622793 L92.15833750243418,-227.00625724589054" stroke="#0d6d4d" stroke-width="0.1" fill="none" />
<path d="M244.7291038332038,-11.518061338478923 L134.91480580880912,-204.50671180567969" stroke="#0d6d4d" stroke-width="0.1" fill="none" />
<path d="M244.826614948467,-9.215672133656918 L172.42449828000355,-174.05399275193042" stroke="#0d6d4d" stroke-width="0.1" fill="none" />
<path d="M244.90246587493246,-6.912467604086244 L203.22867992497564,-136.8323925682505" stroke="#0d6d4d" stroke-width="0.1" fill="none" />
<path d="M244.95664990195144,-4.608651517829186 L226.1293900387573,-94.2894424667978" stroke="#0d6d4d" stroke-width="0.1" fill="none" />
<path d="M244.98916223577945,-2.3044276970535007 L240.23603035295886,-48.07961855352257" stroke="#0d6d4d" stroke-width="0.1" fill="none" />
<path d="M245.0,3.9399004917077596e-14 L245.0,3.9399004917077596e-14" stroke="#0d6d4d" stroke-width="0.1" fill="none" />
<path d="M244.98916223577945,2.304427697053525 L240.23603035295886,48.07961855352254" stroke="#0d6d4d" stroke-width="0.1" fill="none" />
<path d="M244.95664990195144,4.608651517829155 L226.1293900387573,94.28944246679778" stroke="#0d6d4d" stroke-width="0.1" fill="none" />
<path d="M244.90246587493246,6.912467604086158 L203.2286799249756,136.83239256825053" stroke="#0d6d4d" stroke-width="0.1" fill="none" />
<path d="M244.82661494846704,9.215672133656886 L172.42449828000355,174.05399275193045" stroke="#0d6d4d" stroke-width="0.1" fill="none" />
<path d="M244.7291038332038,11.518061338478837 L134.91480580880918,204.50671180567966" stroke="#0d6d4d" stroke-width="0.1" fill="none" />
<path d="M244.6099411561017,13.819431522622763 L92.15833750243426,227.0062572458905" stroke="#0d6d4d" stroke-width="0.1" fill="none" />
<path d="M244.46913745966694,16.11957908031354 L45.81787309333788,240.67763191705785" stroke="#0d6d4d" stroke-width="0.1" fill="none" />
<path d="M244.30670520101992,18.4183005139439 L-2.3044276970534554,244.98916223577945" stroke="#0d6d4d" stroke-width="0.1" fill="none" />
<path d="M244.12265875079353,20.715392452077822 L-50.33711033558725,239.7731747361721" stroke="#0d6d4d" stroke-width="0.1" fill="none" />
<path d="M243.91701439186153,23.01065166744337 L-96.41220549854134,225.23251681519486" stroke="#0d6d4d" stroke-width="0.1" fill="none" />
<path d="M243.68979031789797,25.30387509491221 L-138.73787355456213,201.93266808903982" stroke="#0d6d4d" stroke-width="0.1" fill="none" />
<path d="M243.44100663176766,27.59485984946563 L-175.66808839826473,170.779749146377" stroke="#0d6d4d" stroke-width="0.1" fill="none" />
<path d="M243.17068534374764,29.883403244143505 L-205.7666506616974,132.98528292810067" stroke="#0d6d4d" stroke-width="0.1" fill="none" />
<path d="M242.87885036957974,32.16930280797679 L-227.86304085879823,90.01907914759872" stroke="#0d6d4d" stroke-width="0.1" fill="none" />
<path d="M242.56552752835492,34.45235630390009 L-241.09794035929656,43.552074055147756" stroke="#0d6d4d" stroke-width="0.1" fill="none" />
<path d="M242.230744540229,36.73236174664403 L-244.95664990195144,-4.608651517829016" stroke="#0d6d4d" stroke-width="0.1" fill="none" />
<path d="M241.87453102396998,39.009117420605385 L-239.28910601624892,-52.590148715747" stroke="#0d6d4d" stroke-width="0.1" fill="none" />
<path d="M241.49691849433793,41.282421897692736 L-224.31571692296257,-98.5264387935407" stroke="#0d6d4d" stroke-width="0.1" fill="none" />
<path d="M241.0979403592966,43.55207405514764 L-200.61879095804142,-140.63108018689778" stroke="#0d6d4d" stroke-width="0.1" fill="none" />
<path d="M240.67763191705785,45.817873093337894 L-169.11989086454722,-177.26664241747133" stroke="#0d6d4d" stroke-width="0.1" fill="none" />
<path d="M240.23603035295886,48.07961855352254 L-131.04399463399494,-207.00838502429195" stroke="#0d6d4d" stroke-width="0.1" fill="none" />
<path d="M239.7731747361721,50.337110335587255 L-87.87185666578229,-228.6996650765108" stroke="#0d6d4d" stroke-width="0.1" fill="none" />
<path d="M239.28910601624892,52.59014871574698 L-41.28242189769302,-241.4969184943379" stroke="#0d6d4d" stroke-width="0.1" fill="none" />
<path d="M238.78386701949674,54.838534364215974 L6.9124676040861806,-244.90246587493246" stroke="#0d6d4d" stroke-width="0.1" fill="none" />
<path d="M238.25750244519,57.08206836284307 L54.83853436421599,-238.78386701949674" stroke="#0d6d4d" stroke-width="0.1" fill="none" />
<path d="M237.71005886161564,59.32055222270978 L100.6319553023103,-223.37907147276314" stroke="#0d6d4d" stroke-width="0.1" fill="none" />
<path d="M237.14158470195306,61.55378790169145 L142.5118449703425,-199.2871647727195" stroke="#0d6d4d" stroke-width="0.1" fill="none" />
<path d="M236.55213025998938,63.78157782197788 L178.849513383007,-167.44507028474024" stroke="#0d6d4d" stroke-width="0.1" fill="none" />
<path d="M235.94174768566947,66.00372488755374 L208.23180503530645,-129.09111267526563" stroke="#0d6d4d" stroke-width="0.1" fill="none" />
<path d="M235.3104909804826,68.22003250163559 L229.51605588159129,-85.71686002507482" stroke="#0d6d4d" stroke-width="0.1" fill="none" />
<path d="M234.65841599268447,70.43030458406555 L241.87453102396998,-39.009117420605406" stroke="#0d6d4d" stroke-width="0.1" fill="none" />
<path d="M233.98558041235657,72.63434558865812 L244.82661494846704,9.215672133656886" stroke="#0d6d4d" stroke-width="0.1" fill="none" />
<path d="M233.29204376630193,74.83196052050128 L238.25750244519,57.08206836284307" stroke="#0d6d4d" stroke-width="0.1" fill="none" />
<path d="M232.57786741277897,77.0229549532074 L222.4226633310663,102.72856874655237" stroke="#0d6d4d" stroke-width="0.1" fill="none" />
<path d="M231.84311453607273,79.20713504611473 L197.9379073440997,144.38000151073066" stroke="#0d6d4d" stroke-width="0.1" fill="none" />
<path d="M231.0878501409053,81.38430756143657 L165.75543558091985,180.4165612558324" stroke="#0d6d4d" stroke-width="0.1" fill="none" />
<path d="M230.31214104668422,83.55427988135762 L127.12680982639637,209.43680245688256" stroke="#0d6d4d" stroke-width="0.1" fill="none" />
<path d="M229.51605588159129,85.7168600250748 L83.55427988135766,230.3121410466842" stroke="#0d6d4d" stroke-width="0.1" fill="none" />
<path d="M228.6996650765108,87.87185666578229 L36.73236174664413,242.23074454022898" stroke="#0d6d4d" stroke-width="0.1" fill="none" />
<path d="M227.86304085879826,90.01907914759866 L-11.518061338478768,244.7291038332038" stroke="#0d6d4d" stroke-width="0.1" fill="none" />
<path d="M227.00625724589054,92.15833750243422 L-59.32055222270977,237.71005886161564" stroke="#0d6d4d" stroke-width="0.1" fill="none" />
<path d="M226.1293900387573,94.28944246679778 L-104.81609363563692,221.4465771127777" stroke="#0d6d4d" stroke-width="0.1" fill="none" />
<path d="M225.23251681519483,96.41220549854141 L-146.23538452936748,196.5711380430709" stroke="#0d6d4d" stroke-width="0.1" fill="none" />
<path d="M224.3157169229626,98.52643879354068 L-181.96764739680162,164.05113623767826" stroke="#0d6d4d" stroke-width="0.1" fill="none" />
<path d="M223.37907147276314,100.6319553023103 L-210.62327068103716,125.15125987229436" stroke="#0d6d4d" stroke-width="0.1" fill="none" />
<path d="M222.4226633310663,102.72856874655237 L-231.0878501409052,81.38430756143678" stroke="#0d6d4d" stroke-width="0.1" fill="none" />
<path d="M221.44657711277765,104.81609363563703 L-242.56552752835492,34.452356303900096" stroke="#0d6d4d" stroke-width="0.1" fill="none" />
<path d="M220.45089917375267,106.89434528301267 L-244.6099411561017,-13.819431522622734" stroke="#0d6d4d" stroke-width="0.1" fill="none" />
<path d="M219.43571760315663,108.96313982254594 L-237.1415847019531,-61.55378790169138" stroke="#0d6d4d" stroke-width="0.1" fill="none" />
<path d="M218.40112221567117,111.02229422478835 L-220.45089917375273,-106.89434528301254" stroke="#0d6d4d" stroke-width="0.1" fill="none" />
<path d="M217.34720454354823,113.07162631316935 L-195.18697778982423,-148.0778298776514" stroke="#0d6d4d" stroke-width="0.1" fill="none" />
<path d="M216.2740578285123,115.11095478011346 L-162.33232303701078,-183.50263457892797" stroke="#0d6d4d" stroke-width="0.1" fill="none" />
<path d="M215.18177701351092,117.14009920308105 L-123.16463759291577,-211.79110473909358" stroke="#0d6d4d" stroke-width="0.1" fill="none" />
<path d="M214.07045873431497,119.15888006053076 L-79.20713504611486,-231.8431145360727" stroke="#0d6d4d" stroke-width="0.1" fill="none" />
<path d="M212.94020131096914,121.16711874780195 L-32.169302807976756,-242.87885036957974" stroke="#0d6d4d" stroke-width="0.1" fill="none" />
<path d="M211.79110473909364,123.1646375929157 L16.119579080313603,-244.4691374596669" stroke="#0d6d4d" stroke-width="0.1" fill="none" />
<path d="M210.62327068103713,125.15125987229439 L63.78157782197794,-236.55213025998935" stroke="#0d6d4d" stroke-width="0.1" fill="none" />
<path d="M209.43680245688262,127.12680982639631 L108.96313982254597,-219.4357176031566" stroke="#0d6d4d" stroke-width="0.1" fill="none" />
<path d="M208.23180503530648,129.09111267526558 L149.9071745515964,-193.78554904315547" stroke="#0d6d4d" stroke-width="0.1" fill="none" />
<path d="M207.00838502429207,131.04399463399477 L185.02138699952437,-160.59914804497637" stroke="#0d6d4d" stroke-width="0.1" fill="none" />
<path d="M205.76665066169744,132.98528292810062 L212.94020131096914,-121.16711874780195" stroke="#0d6d4d" stroke-width="0.1" fill="none" />
<path d="M204.50671180567969,134.91480580880912 L232.57786741277894,-77.02295495320742" stroke="#0d6d4d" stroke-width="0.1" fill="none" />
<path d="M203.2286799249756,136.83239256825053 L243.1706853437476,-29.88340324414353" stroke="#0d6d4d" stroke-width="0.1" fill="none" />
<path d="M201.93266808903982,138.73787355456213 L244.30670520101992,18.4183005139439" stroke="#0d6d4d" stroke-width="0.1" fill="none" />
<path d="M200.61879095804142,140.6310801868978 L235.94174768566947,66.00372488755374" stroke="#0d6d4d" stroke-width="0.1" fill="none" />
<path d="M199.28716477271954,142.51184497034248 L218.40112221567117,111.02229422478835" stroke="#0d6d4d" stroke-width="0.1" fill="none" />
<path d="M197.9379073440997,144.38000151073066 L192.3669757896305,151.72325670625358" stroke="#0d6d4d" stroke-width="0.1" fill="none" />
<path d="M196.5711380430709,146.23538452936748 L158.8517645982438,186.5237702922181" stroke="#0d6d4d" stroke-width="0.1" fill="none" />
<path d="M195.18697778982428,148.0778298776513 L119.1588800605308,214.07045873431494" stroke="#0d6d4d" stroke-width="0.1" fill="none" />
<path d="M193.78554904315547,149.9071745515964 L74.83196052050133,233.2920437663019" stroke="#0d6d4d" stroke-width="0.1" fill="none" />
<path d="M192.3669757896305,151.72325670625358 L27.59485984946562,243.44100663176766" stroke="#0d6d4d" stroke-width="0.1" fill="none" />
<path d="M190.9313835326163,153.5259156700294 L-20.71539245207791,244.12265875079353" stroke="#0d6d4d" stroke-width="0.1" fill="none" />
<path d="M189.47889928117732,155.31499195890092 L-68.22003250163569,235.31049098048257" stroke="#0d6d4d" stroke-width="0.1" fill="none" />
<path d="M188.00965153883882,157.09032729052544 L-113.07162631316943,217.34720454354817" stroke="#0d6d4d" stroke-width="0.1" fill="none" />
<path d="M186.52377029221813,158.85176459824373 L-153.5259156700294,190.9313835326163" stroke="#0d6d4d" stroke-width="0.1" fill="none" />
<path d="M185.02138699952437,160.59914804497635 L-188.00965153883877,157.0903272905255" stroke="#0d6d4d" stroke-width="0.1" fill="none" />
<path d="M183.50263457892802,162.33232303701075 L-215.18177701351087,117.14009920308109" stroke="#0d6d4d" stroke-width="0.1" fill="none" />
<path d="M181.96764739680168,164.0511362376782 L-233.98558041235654,72.63434558865822" stroke="#0d6d4d" stroke-width="0.1" fill="none" />
<path d="M180.41656125583242,165.7554355809198 L-243.68979031789797,25.30387509491216" stroke="#0d6d4d" stroke-width="0.1" fill="none" />
<path d="M178.8495133830071,167.44507028474015 L-243.91701439186156,-23.01065166744312" stroke="#0d6d4d" stroke-width="0.1" fill="none" />
<path d="M177.26664241747145,169.11989086454707 L-234.6584159926845,-70.43030458406548" stroke="#0d6d4d" stroke-width="0.1" fill="none" />
<path d="M175.66808839826479,170.77974914637693 L-216.27405782851235,-115.11095478011335" stroke="#0d6d4d" stroke-width="0.1" fill="none" />
<path d="M174.05399275193048,172.4244982800035 L-189.47889928117732,-155.3149919589009" stroke="#0d6d4d" stroke-width="0.1" fill="none" />
<path d="M172.42449828000355,174.05399275193045 L-155.31499195890115,-189.47889928117715" stroke="#0d6d4d" stroke-width="0.1" fill="none" />
<path d="M170.779749146377,175.66808839826476 L-115.11095478011343,-216.2740578285123" stroke="#0d6d4d" stroke-width="0.1" fill="none" />
<path d="M169.1198908645471,177.2666424174714 L-70.43030458406557,-234.65841599268447" stroke="#0d6d4d" stroke-width="0.1" fill="none" />
<path d="M167.44507028474018,178.84951338300706 L-23.010651667443444,-243.91701439186153" stroke="#0d6d4d" stroke-width="0.1" fill="none" />
<path d="M165.75543558091985,180.4165612558324 L25.30387509491221,-243.68979031789797" stroke="#0d6d4d" stroke-width="0.1" fill="none" />
<path d="M164.05113623767826,181.96764739680165 L72.6343455886581,-233.98558041235657" stroke="#0d6d4d" stroke-width="0.1" fill="none" />
<path d="M162.33232303701078,183.502634578928 L117.14009920308104,-215.18177701351092" stroke="#0d6d4d" stroke-width="0.1" fill="none" />
<path d="M160.5991480449764,185.02138699952434 L157.09032729052547,-188.0096515388388" stroke="#0d6d4d" stroke-width="0.1" fill="none" />
<path d="M158.8517645982438,186.5237702922181 L190.93138353261625,-153.52591567002946" stroke="#0d6d4d" stroke-width="0.1" fill="none" />
<path d="M157.09032729052547,188.0096515388388 L217.3472045435482,-113.07162631316938" stroke="#0d6d4d" stroke-width="0.1" fill="none" />
<path d="M155.31499195890106,189.47889928117723 L235.31049098048257,-68.22003250163567" stroke="#0d6d4d" stroke-width="0.1" fill="none" />
<path d="M153.52591567002946,190.93138353261625 L244.12265875079353,-20.715392452077847" stroke="#0d6d4d" stroke-width="0.1" fill="none" />
<path d="M151.7232567062536,192.36697578963046 L243.44100663176766,27.59485984946563" stroke="#0d6d4d" stroke-width="0.1" fill="none" />
<path d="M149.90717455159643,193.7855490431554 L233.29204376630193,74.83196052050128" stroke="#0d6d4d" stroke-width="0.1" fill="none" />
<path d="M148.07782987765137,195.18697778982425 L214.07045873431497,119.15888006053076" stroke="#0d6d4d" stroke-width="0.1" fill="none" />
<path d="M146.2353845293675,196.57113804307087 L186.52377029221813,158.85176459824373" stroke="#0d6d4d" stroke-width="0.1" fill="none" />
<path d="M144.38000151073072,197.93790734409967 L151.7232567062536,192.36697578963046" stroke="#0d6d4d" stroke-width="0.1" fill="none" />
<path d="M142.5118449703425,199.2871647727195 L111.0222942247884,218.40112221567114" stroke="#0d6d4d" stroke-width="0.1" fill="none" />
<path d="M140.63108018689786,200.6187909580414 L66.00372488755379,235.94174768566947" stroke="#0d6d4d" stroke-width="0.1" fill="none" />
<path d="M138.73787355456216,201.93266808903982 L18.418300513943997,244.3067052010199" stroke="#0d6d4d" stroke-width="0.1" fill="none" />
<path d="M136.83239256825058,203.22867992497558 L-29.88340324414354,243.1706853437476" stroke="#0d6d4d" stroke-width="0.1" fill="none" />
<path d="M134.91480580880918,204.50671180567966 L-77.02295495320739,232.57786741277897" stroke="#0d6d4d" stroke-width="0.1" fill="none" />
<path d="M132.98528292810067,205.76665066169744 L-121.16711874780195,212.94020131096914" stroke="#0d6d4d" stroke-width="0.1" fill="none" />
<path d="M131.04399463399483,207.00838502429204 L-160.59914804497635,185.02138699952437" stroke="#0d6d4d" stroke-width="0.1" fill="none" />
<path d="M129.09111267526563,208.23180503530645 L-193.78554904315547,149.9071745515964" stroke="#0d6d4d" stroke-width="0.1" fill="none" />
<path d="M127.12680982639637,209.43680245688256 L-219.4357176031566,108.96313982254598" stroke="#0d6d4d" stroke-width="0.1" fill="none" />
<path d="M125.15125987229445,210.6232706810371 L-236.55213025998935,63.78157782197799" stroke="#0d6d4d" stroke-width="0.1" fill="none" />
<path d="M123.16463759291574,211.7911047390936 L-244.4691374596669,16.119579080313706" stroke="#0d6d4d" stroke-width="0.1" fill="none" />
<path d="M121.167118747802,212.94020131096912 L-242.87885036957974,-32.16930280797686" stroke="#0d6d4d" stroke-width="0.1" fill="none" />
<path d="M119.1588800605308,214.07045873431494 L-231.84311453607273,-79.20713504611476" stroke="#0d6d4d" stroke-width="0.1" fill="none" />
<path d="M117.14009920308108,215.1817770135109 L-211.79110473909367,-123.16463759291567" stroke="#0d6d4d" stroke-width="0.1" fill="none" />
<path d="M115.11095478011349,216.27405782851227 L-183.50263457892805,-162.33232303701072" stroke="#0d6d4d" stroke-width="0.1" fill="none" />
<path d="M113.07162631316939,217.3472045435482 L-148.0778298776513,-195.18697778982428" stroke="#0d6d4d" stroke-width="0.1" fill="none" />
<path d="M111.0222942247884,218.40112221567114 L-106.89434528301283,-220.4508991737526" stroke="#0d6d4d" stroke-width="0.1" fill="none" />
<path d="M108.96313982254597,219.4357176031566 L-61.553787901691464,-237.14158470195306" stroke="#0d6d4d" stroke-width="0.1" fill="none" />
<path d="M106.89434528301271,220.45089917375265 L-13.819431522622837,-244.60994115610168" stroke="#0d6d4d" stroke-width="0.1" fill="none" />
<path d="M104.81609363563707,221.44657711277762 L34.452356303900075,-242.56552752835495" stroke="#0d6d4d" stroke-width="0.1" fill="none" />
<path d="M102.7285687465524,222.4226633310663 L81.38430756143661,-231.08785014090526" stroke="#0d6d4d" stroke-width="0.1" fill="none" />
<path d="M100.63195530231035,223.37907147276314 L125.15125987229442,-210.62327068103713" stroke="#0d6d4d" stroke-width="0.1" fill="none" />
<path d="M98.52643879354076,224.31571692296254 L164.0511362376782,-181.9676473968017" stroke="#0d6d4d" stroke-width="0.1" fill="none" />
<path d="M96.4122054985414,225.23251681519486 L196.5711380430709,-146.2353845293675" stroke="#0d6d4d" stroke-width="0.1" fill="none" />
<path d="M94.2894424667978,226.1293900387573 L221.44657711277762,-104.81609363563706" stroke="#0d6d4d" stroke-width="0.1" fill="none" />
<path d="M92.15833750243426,227.0062572458905 L237.7100588616156,-59.320552222709864" stroke="#0d6d4d" stroke-width="0.1" fill="none" />
<path d="M90.0190791475987,227.86304085879826 L244.7291038332038,-11.518061338478923" stroke="#0d6d4d" stroke-width="0.1" fill="none" />
<path d="M87.87185666578237,228.69966507651077 L242.230744540229,36.73236174664403" stroke="#0d6d4d" stroke-width="0.1" fill="none" />
<path d="M85.71686002507478,229.51605588159129 L230.31214104668422,83.55427988135762" stroke="#0d6d4d" stroke-width="0.1" fill="none" />
<path d="M83.55427988135766,230.3121410466842 L209.43680245688262,127.12680982639631" stroke="#0d6d4d" stroke-width="0.1" fill="none" />
<path d="M81.38430756143667,231.08785014090526 L180.41656125583242,165.7554355809198" stroke="#0d6d4d" stroke-width="0.1" fill="none" />
<path d="M79.20713504611471,231.84311453607273 L144.38000151073072,197.93790734409967" stroke="#0d6d4d" stroke-width="0.1" fill="none" />
<path d="M77.02295495320743,232.57786741277894 L102.7285687465524,222.4226633310663" stroke="#0d6d4d" stroke-width="0.1" fill="none" />
<path d="M74.83196052050133,233.2920437663019 L57.08206836284311,238.25750244518997" stroke="#0d6d4d" stroke-width="0.1" fill="none" />
<path d="M72.6343455886582,233.98558041235654 L9.215672133656987,244.826614948467" stroke="#0d6d4d" stroke-width="0.1" fill="none" />
<path d="M70.43030458406554,234.65841599268447 L-39.00911742060537,241.87453102397" stroke="#0d6d4d" stroke-width="0.1" fill="none" />
<path d="M68.22003250163571,235.31049098048257 L-85.71686002507472,229.5160558815913" stroke="#0d6d4d" stroke-width="0.1" fill="none" />
<path d="M66.00372488755379,235.94174768566947 L-129.09111267526558,208.23180503530648" stroke="#0d6d4d" stroke-width="0.1" fill="none" />
<path d="M63.78157782197798,236.55213025998935 L-167.44507028474015,178.8495133830071" stroke="#0d6d4d" stroke-width="0.1" fill="none" />
<path d="M61.55378790169145,237.14158470195306 L-199.28716477271945,142.51184497034262" stroke="#0d6d4d" stroke-width="0.1" fill="none" />
<path d="M59.32055222270982,237.7100588616156 L-223.3790714727631,100.63195530231046" stroke="#0d6d4d" stroke-width="0.1" fill="none" />
<path d="M57.08206836284311,238.25750244518997 L-238.78386701949674,54.83853436421598" stroke="#0d6d4d" stroke-width="0.1" fill="none" />
<path d="M54.83853436421607,238.78386701949674 L-244.90246587493246,6.912467604086219" stroke="#0d6d4d" stroke-width="0.1" fill="none" />
<path d="M52.59014871574696,239.28910601624892 L-241.49691849433796,-41.2824218976927" stroke="#0d6d4d" stroke-width="0.1" fill="none" />
<path d="M50.3371103355873,239.77317473617208 L-228.69966507651083,-87.8718566657822" stroke="#0d6d4d" stroke-width="0.1" fill="none" />
<path d="M48.079618553522636,240.23603035295884 L-207.008385024292,-131.04399463399486" stroke="#0d6d4d" stroke-width="0.1" fill="none" />
<path d="M45.81787309333788,240.67763191705785 L-177.2666424174714,-169.11989086454713" stroke="#0d6d4d" stroke-width="0.1" fill="none" />
<path d="M43.55207405514763,241.0979403592966 L-140.6310801868979,-200.61879095804136" stroke="#0d6d4d" stroke-width="0.1" fill="none" />
<path d="M41.28242189769278,241.49691849433793 L-98.52643879354079,-224.31571692296254" stroke="#0d6d4d" stroke-width="0.1" fill="none" />
<path d="M39.00911742060542,241.87453102396998 L-52.590148715746885,-239.28910601624895" stroke="#0d6d4d" stroke-width="0.1" fill="none" />
<path d="M36.73236174664413,242.23074454022898 L-4.6086515178293395,-244.95664990195144" stroke="#0d6d4d" stroke-width="0.1" fill="none" />
<path d="M34.452356303900075,242.56552752835495 L43.55207405514767,-241.0979403592966" stroke="#0d6d4d" stroke-width="0.1" fill="none" />
<path d="M32.169302807976834,242.87885036957974 L90.01907914759869,-227.86304085879826" stroke="#0d6d4d" stroke-width="0.1" fill="none" />
<path d="M29.883403244143604,243.1706853437476 L132.98528292810067,-205.7666506616974" stroke="#0d6d4d" stroke-width="0.1" fill="none" />
<path d="M27.59485984946562,243.44100663176766 L170.77974914637693,-175.66808839826479" stroke="#0d6d4d" stroke-width="0.1" fill="none" />
<path d="M25.303875094912257,243.68979031789797 L201.93266808903982,-138.73787355456216" stroke="#0d6d4d" stroke-width="0.1" fill="none" />
<path d="M23.010651667443415,243.91701439186153 L225.23251681519483,-96.41220549854144" stroke="#0d6d4d" stroke-width="0.1" fill="none" />
<path d="M20.71539245207797,244.12265875079353 L239.77317473617208,-50.33711033558728" stroke="#0d6d4d" stroke-width="0.1" fill="none" />
<path d="M18.418300513943997,244.3067052010199 L244.98916223577945,-2.3044276970535007" stroke="#0d6d4d" stroke-width="0.1" fill="none" />
<path d="M16.11957908031358,244.46913745966694 L240.67763191705785,45.817873093337894" stroke="#0d6d4d" stroke-width="0.1" fill="none" />
<path d="M13.819431522622917,244.60994115610168 L227.00625724589054,92.15833750243422" stroke="#0d6d4d" stroke-width="0.1" fill="none" />
<path d="M11.518061338478937,244.7291038332038 L204.50671180567969,134.91480580880912" stroke="#0d6d4d" stroke-width="0.1" fill="none" />
<path d="M9.215672133656987,244.826614948467 L174.05399275193048,172.4244982800035" stroke="#0d6d4d" stroke-width="0.1" fill="none" />
<path d="M6.912467604086204,244.90246587493246 L136.83239256825058,203.22867992497558" stroke="#0d6d4d" stroke-width="0.1" fill="none" />
<path d="M4.608651517829092,244.95664990195144 L94.2894424667978,226.1293900387573" stroke="#0d6d4d" stroke-width="0.1" fill="none" />
<path d="M2.3044276970536246,244.98916223577942 L48.079618553522636,240.23603035295884" stroke="#0d6d4d" stroke-width="0.1" fill="none" />
<path d="M-7.879800983415519e-14,245.0 L-7.879800983415519e-14,245.0" stroke="#0d6d4d" stroke-width="0.1" fill="none" />
<path d="M-2.3044276970534554,244.98916223577945 L-48.07961855352247,240.2360303529589" stroke="#0d6d4d" stroke-width="0.1" fill="none" />
<path d="M-4.6086515178291405,244.95664990195144 L-94.28944246679777,226.1293900387573" stroke="#0d6d4d" stroke-width="0.1" fill="none" />
<path d="M-6.912467604086144,244.90246587493246 L-136.83239256825044,203.22867992497567" stroke="#0d6d4d" stroke-width="0.1" fill="none" />
<path d="M-9.215672133656925,244.826614948467 L-174.05399275193042,172.42449828000355" stroke="#0d6d4d" stroke-width="0.1" fill="none" />
<path d="M-11.518061338478768,244.7291038332038 L-204.50671180567963,134.9148058088092" stroke="#0d6d4d" stroke-width="0.1" fill="none" />
<path d="M-13.819431522622748,244.6099411561017 L-227.00625724589057,92.15833750243408" stroke="#0d6d4d" stroke-width="0.1" fill="none" />
<path d="M-16.11957908031352,244.46913745966694 L-240.67763191705782,45.81787309333801" stroke="#0d6d4d" stroke-width="0.1" fill="none" />
<path d="M-18.41830051394394,244.30670520101992 L-244.98916223577945,-2.3044276970535496" stroke="#0d6d4d" stroke-width="0.1" fill="none" />
<path d="M-20.71539245207791,244.12265875079353 L-239.7731747361721,-50.33711033558723" stroke="#0d6d4d" stroke-width="0.1" fill="none" />
<path d="M-23.010651667443245,243.91701439186156 L-225.23251681519486,-96.41220549854133" stroke="#0d6d4d" stroke-width="0.1" fill="none" />
<path d="M-25.303875094912193,243.68979031789797 L-201.9326680890399,-138.73787355456201" stroke="#0d6d4d" stroke-width="0.1" fill="none" />
<path d="M-27.59485984946556,243.4410066317677 L-170.77974914637707,-175.66808839826464" stroke="#0d6d4d" stroke-width="0.1" fill="none" />
<path d="M-29.88340324414354,243.1706853437476 L-132.98528292810067,-205.7666506616974" stroke="#0d6d4d" stroke-width="0.1" fill="none" />
<path d="M-32.16930280797667,242.87885036957977 L-90.01907914759873,-227.86304085879823" stroke="#0d6d4d" stroke-width="0.1" fill="none" />
<path d="M-34.45235630390013,242.56552752835492 L-43.55207405514777,-241.09794035929656" stroke="#0d6d4d" stroke-width="0.1" fill="none" />
<path d="M-36.73236174664397,242.230744540229 L4.608651517829138,-244.95664990195144" stroke="#0d6d4d" stroke-width="0.1" fill="none" />
<path d="M-39.00911742060537,241.87453102397 L52.59014871574695,-239.28910601624892" stroke="#0d6d4d" stroke-width="0.1" fill="none" />
<path d="M-41.28242189769272,241.49691849433796 L98.52643879354069,-224.31571692296257" stroke="#0d6d4d" stroke-width="0.1" fill="none" />
<path d="M-43.55207405514768,241.0979403592966 L140.63108018689783,-200.61879095804142" stroke="#0d6d4d" stroke-width="0.1" fill="none" />
<path d="M-45.81787309333794,240.67763191705782 L177.26664241747136,-169.11989086454716" stroke="#0d6d4d" stroke-width="0.1" fill="none" />
<path d="M-48.07961855352247,240.2360303529589 L207.00838502429204,-131.04399463399483" stroke="#0d6d4d" stroke-width="0.1" fill="none" />
<path d="M-50.33711033558725,239.7731747361721 L228.69966507651077,-87.87185666578236" stroke="#0d6d4d" stroke-width="0.1" fill="none" />
<path d="M-52.590148715746906,239.28910601624895 L241.49691849433793,-41.282421897692814" stroke="#0d6d4d" stroke-width="0.1" fill="none" />
<path d="M-54.83853436421602,238.78386701949674 L244.90246587493246,6.912467604086158" stroke="#0d6d4d" stroke-width="0.1" fill="none" />
<path d="M-57.082068362842946,238.25750244519003 L238.78386701949674,54.838534364215974" stroke="#0d6d4d" stroke-width="0.1" fill="none" />
<path d="M-59.32055222270977,237.71005886161564 L223.37907147276314,100.6319553023103" stroke="#0d6d4d" stroke-width="0.1" fill="none" />
<path d="M-61.55378790169139,237.1415847019531 L199.28716477271954,142.51184497034248" stroke="#0d6d4d" stroke-width="0.1" fill="none" />
<path d="M-63.781577821977926,236.55213025998935 L167.44507028474018,178.84951338300706" stroke="#0d6d4d" stroke-width="0.1" fill="none" />
<path d="M-66.00372488755384,235.94174768566944 L129.09111267526563,208.23180503530645" stroke="#0d6d4d" stroke-width="0.1" fill="none" />
<path d="M-68.22003250163569,235.31049098048257 L85.71686002507478,229.51605588159129" stroke="#0d6d4d" stroke-width="0.1" fill="none" />
<path d="M-70.4303045840656,234.65841599268444 L39.00911742060542,241.87453102396998" stroke="#0d6d4d" stroke-width="0.1" fill="none" />
<path d="M-72.63434558865805,233.9855804123566 L-9.215672133656925,244.826614948467" stroke="#0d6d4d" stroke-width="0.1" fill="none" />
<path d="M-74.83196052050127,233.29204376630193 L-57.082068362842946,238.25750244519003" stroke="#0d6d4d" stroke-width="0.1" fill="none" />
<path d="M-77.02295495320739,232.57786741277897 L-102.72856874655245,222.42266333106627" stroke="#0d6d4d" stroke-width="0.1" fill="none" />
<path d="M-79.20713504611477,231.8431145360727 L-144.38000151073058,197.93790734409978" stroke="#0d6d4d" stroke-width="0.1" fill="none" />
<path d="M-81.38430756143653,231.08785014090532 L-180.4165612558324,165.75543558091988" stroke="#0d6d4d" stroke-width="0.1" fill="none" />
<path d="M-83.55427988135762,230.31214104668422 L-209.43680245688256,127.1268098263964" stroke="#0d6d4d" stroke-width="0.1" fill="none" />
<path d="M-85.71686002507472,229.5160558815913 L-230.3121410466842,83.55427988135767" stroke="#0d6d4d" stroke-width="0.1" fill="none" />
<path d="M-87.87185666578232,228.6996650765108 L-242.23074454022898,36.73236174664415" stroke="#0d6d4d" stroke-width="0.1" fill="none" />
<path d="M-90.01907914759875,227.86304085879823 L-244.7291038332038,-11.51806133847897" stroke="#0d6d4d" stroke-width="0.1" fill="none" />
<path d="M-92.15833750243411,227.00625724589057 L-237.71005886161566,-59.320552222709644" stroke="#0d6d4d" stroke-width="0.1" fill="none" />
<path d="M-94.28944246679777,226.1293900387573 L-221.44657711277765,-104.816093635637" stroke="#0d6d4d" stroke-width="0.1" fill="none" />
<path d="M-96.41220549854134,225.23251681519486 L-196.57113804307093,-146.23538452936745" stroke="#0d6d4d" stroke-width="0.1" fill="none" />
<path d="M-98.52643879354072,224.31571692296257 L-164.05113623767826,-181.96764739680162" stroke="#0d6d4d" stroke-width="0.1" fill="none" />
<path d="M-100.6319553023102,223.37907147276317 L-125.15125987229455,-210.62327068103704" stroke="#0d6d4d" stroke-width="0.1" fill="none" />
<path d="M-102.72856874655245,222.42266333106627 L-81.38430756143659,-231.0878501409053" stroke="#0d6d4d" stroke-width="0.1" fill="none" />
<path d="M-104.81609363563692,221.4465771127777 L-34.45235630389989,-242.56552752835495" stroke="#0d6d4d" stroke-width="0.1" fill="none" />
<path d="M-106.89434528301265,220.45089917375267 L13.819431522622791,-244.6099411561017" stroke="#0d6d4d" stroke-width="0.1" fill="none" />
<path d="M-108.96313982254593,219.43571760315663 L61.553787901691464,-237.14158470195306" stroke="#0d6d4d" stroke-width="0.1" fill="none" />
<path d="M-111.02229422478844,218.4011222156711 L106.89434528301268,-220.45089917375267" stroke="#0d6d4d" stroke-width="0.1" fill="none" />
<path d="M-113.07162631316943,217.34720454354817 L148.0778298776514,-195.18697778982423" stroke="#0d6d4d" stroke-width="0.1" fill="none" />
<path d="M-115.11095478011335,216.27405782851235 L183.50263457892797,-162.33232303701078" stroke="#0d6d4d" stroke-width="0.1" fill="none" />
<path d="M-117.14009920308104,215.18177701351092 L211.79110473909364,-123.1646375929157" stroke="#0d6d4d" stroke-width="0.1" fill="none" />
<path d="M-119.15888006053076,214.07045873431497 L231.84311453607273,-79.20713504611476" stroke="#0d6d4d" stroke-width="0.1" fill="none" />
<path d="M-121.16711874780195,212.94020131096914 L242.87885036957974,-32.16930280797682" stroke="#0d6d4d" stroke-width="0.1" fill="none" />
<path d="M-123.16463759291561,211.7911047390937 L244.46913745966694,16.11957908031354" stroke="#0d6d4d" stroke-width="0.1" fill="none" />
<path d="M-125.15125987229439,210.62327068103713 L236.55213025998938,63.78157782197788" stroke="#0d6d4d" stroke-width="0.1" fill="none" />
<path d="M-127.12680982639631,209.43680245688262 L219.43571760315663,108.96313982254594" stroke="#0d6d4d" stroke-width="0.1" fill="none" />
<path d="M-129.09111267526558,208.23180503530648 L193.78554904315547,149.9071745515964" stroke="#0d6d4d" stroke-width="0.1" fill="none" />
<path d="M-131.0439946339947,207.00838502429212 L160.5991480449764,185.02138699952434" stroke="#0d6d4d" stroke-width="0.1" fill="none" />
<path d="M-132.9852829281007,205.7666506616974 L121.167118747802,212.94020131096912" stroke="#0d6d4d" stroke-width="0.1" fill="none" />
<path d="M-134.9148058088092,204.50671180567963 L77.02295495320743,232.57786741277894" stroke="#0d6d4d" stroke-width="0.1" fill="none" />
<path d="M-136.83239256825044,203.22867992497567 L29.883403244143604,243.1706853437476" stroke="#0d6d4d" stroke-width="0.1" fill="none" />
<path d="M-138.73787355456213,201.93266808903982 L-18.41830051394394,244.30670520101992" stroke="#0d6d4d" stroke-width="0.1" fill="none" />
<path d="M-140.6310801868978,200.61879095804142 L-66.00372488755384,235.94174768566944" stroke="#0d6d4d" stroke-width="0.1" fill="none" />
<path d="M-142.51184497034257,199.28716477271948 L-111.02229422478844,218.4011222156711" stroke="#0d6d4d" stroke-width="0.1" fill="none" />
<path d="M-144.38000151073058,197.93790734409978 L-151.72325670625347,192.36697578963057" stroke="#0d6d4d" stroke-width="0.1" fill="none" />
<path d="M-146.23538452936748,196.5711380430709 L-186.52377029221807,158.8517645982438" stroke="#0d6d4d" stroke-width="0.1" fill="none" />
<path d="M-148.0778298776513,195.18697778982428 L-214.07045873431485,119.15888006053093" stroke="#0d6d4d" stroke-width="0.1" fill="none" />
<path d="M-149.9071745515964,193.78554904315547 L-233.29204376630193,74.83196052050123" stroke="#0d6d4d" stroke-width="0.1" fill="none" />
<path d="M-151.72325670625347,192.36697578963057 L-243.44100663176766,27.594859849465635" stroke="#0d6d4d" stroke-width="0.1" fill="none" />
<path d="M-153.5259156700294,190.9313835326163 L-244.12265875079353,-20.715392452077793" stroke="#0d6d4d" stroke-width="0.1" fill="none" />
<path d="M-155.314991958901,189.47889928117726 L-235.3104909804826,-68.22003250163556" stroke="#0d6d4d" stroke-width="0.1" fill="none" />
<path d="M-157.09032729052544,188.00965153883882 L-217.3472045435482,-113.07162631316942" stroke="#0d6d4d" stroke-width="0.1" fill="none" />
<path d="M-158.85176459824373,186.52377029221813 L-190.9313835326164,-153.5259156700293" stroke="#0d6d4d" stroke-width="0.1" fill="none" />
<path d="M-160.59914804497635,185.02138699952437 L-157.0903272905255,-188.00965153883877" stroke="#0d6d4d" stroke-width="0.1" fill="none" />
<path d="M-162.3323230370108,183.50263457892797 L-117.1400992030811,-215.18177701351087" stroke="#0d6d4d" stroke-width="0.1" fill="none" />
<path d="M-164.05113623767812,181.96764739680174 L-72.63434558865823,-233.98558041235654" stroke="#0d6d4d" stroke-width="0.1" fill="none" />
<path d="M-165.7554355809198,180.41656125583242 L-25.30387509491218,-243.68979031789797" stroke="#0d6d4d" stroke-width="0.1" fill="none" />
<path d="M-167.44507028474015,178.8495133830071 L23.010651667443334,-243.91701439186153" stroke="#0d6d4d" stroke-width="0.1" fill="none" />
<path d="M-169.11989086454716,177.26664241747136 L70.4303045840655,-234.65841599268447" stroke="#0d6d4d" stroke-width="0.1" fill="none" />
<path d="M-170.77974914637701,175.6680883982647 L115.11095478011343,-216.2740578285123" stroke="#0d6d4d" stroke-width="0.1" fill="none" />
<path d="M-172.4244982800035,174.05399275193048 L155.314991958901,-189.47889928117726" stroke="#0d6d4d" stroke-width="0.1" fill="none" />
<path d="M-174.05399275193042,172.42449828000355 L189.47889928117723,-155.31499195890103" stroke="#0d6d4d" stroke-width="0.1" fill="none" />
<path d="M-175.66808839826473,170.779749146377 L216.27405782851233,-115.11095478011339" stroke="#0d6d4d" stroke-width="0.1" fill="none" />
<path d="M-177.2666424174714,169.11989086454713 L234.65841599268447,-70.43030458406552" stroke="#0d6d4d" stroke-width="0.1" fill="none" />
<path d="M-178.84951338300695,167.4450702847403 L243.91701439186153,-23.01065166744334" stroke="#0d6d4d" stroke-width="0.1" fill="none" />
<path d="M-180.4165612558324,165.75543558091988 L243.68979031789797,25.30387509491221" stroke="#0d6d4d" stroke-width="0.1" fill="none" />
<path d="M-181.96764739680162,164.05113623767826 L233.98558041235657,72.63434558865812" stroke="#0d6d4d" stroke-width="0.1" fill="none" />
<path d="M-183.50263457892797,162.33232303701078 L215.18177701351092,117.14009920308105" stroke="#0d6d4d" stroke-width="0.1" fill="none" />
<path d="M-185.0213869995243,160.59914804497643 L188.00965153883882,157.09032729052544" stroke="#0d6d4d" stroke-width="0.1" fill="none" />
<path d="M-186.52377029221807,158.8517645982438 L153.52591567002946,190.93138353261625" stroke="#0d6d4d" stroke-width="0.1" fill="none" />
<path d="M-188.00965153883877,157.0903272905255 L113.07162631316939,217.3472045435482" stroke="#0d6d4d" stroke-width="0.1" fill="none" />
<path d="M-189.4788992811773,155.31499195890098 L68.22003250163571,235.31049098048257" stroke="#0d6d4d" stroke-width="0.1" fill="none" />
<path d="M-190.9313835326163,153.52591567002938 L20.71539245207797,244.12265875079353" stroke="#0d6d4d" stroke-width="0.1" fill="none" />
<path d="M-192.36697578963046,151.72325670625364 L-27.59485984946556,243.4410066317677" stroke="#0d6d4d" stroke-width="0.1" fill="none" />
<path d="M-193.78554904315547,149.9071745515964 L-74.83196052050127,233.29204376630193" stroke="#0d6d4d" stroke-width="0.1" fill="none" />
<path d="M-195.18697778982417,148.07782987765145 L-119.15888006053076,214.07045873431497" stroke="#0d6d4d" stroke-width="0.1" fill="none" />
<path d="M-196.57113804307085,146.23538452936754 L-158.85176459824373,186.52377029221813" stroke="#0d6d4d" stroke-width="0.1" fill="none" />
<path d="M-197.93790734409959,144.38000151073084 L-192.36697578963046,151.72325670625364" stroke="#0d6d4d" stroke-width="0.1" fill="none" />
<path d="M-199.28716477271945,142.51184497034262 L-218.40112221567108,111.0222942247885" stroke="#0d6d4d" stroke-width="0.1" fill="none" />
<path d="M-200.61879095804136,140.6310801868979 L-235.94174768566944,66.0037248875539" stroke="#0d6d4d" stroke-width="0.1" fill="none" />
<path d="M-201.93266808903985,138.7378735545621 L-244.30670520101992,18.418300513943905" stroke="#0d6d4d" stroke-width="0.1" fill="none" />
<path d="M-203.2286799249757,136.8323925682504 L-243.1706853437476,-29.883403244143526" stroke="#0d6d4d" stroke-width="0.1" fill="none" />
<path d="M-204.50671180567963,134.9148058088092 L-232.57786741277897,-77.02295495320737" stroke="#0d6d4d" stroke-width="0.1" fill="none" />
<path d="M-205.7666506616974,132.98528292810067 L-212.9402013109692,-121.16711874780184" stroke="#0d6d4d" stroke-width="0.1" fill="none" />
<path d="M-207.00838502429195,131.04399463399494 L-185.0213869995243,-160.59914804497643" stroke="#0d6d4d" stroke-width="0.1" fill="none" />
<path d="M-208.23180503530642,129.09111267526566 L-149.9071745515964,-193.78554904315547" stroke="#0d6d4d" stroke-width="0.1" fill="none" />
<path d="M-209.43680245688256,127.1268098263964 L-108.963139822546,-219.4357176031566" stroke="#0d6d4d" stroke-width="0.1" fill="none" />
<path d="M-210.62327068103716,125.15125987229436 L-63.781577821978004,-236.55213025998935" stroke="#0d6d4d" stroke-width="0.1" fill="none" />
<path d="M-211.79110473909358,123.16463759291577 L-16.119579080313503,-244.46913745966694" stroke="#0d6d4d" stroke-width="0.1" fill="none" />
<path d="M-212.94020131096914,121.16711874780194 L32.1693028079768,-242.87885036957974" stroke="#0d6d4d" stroke-width="0.1" fill="none" />
<path d="M-214.07045873431485,119.15888006053093 L79.20713504611473,-231.84311453607273" stroke="#0d6d4d" stroke-width="0.1" fill="none" />
<path d="M-215.18177701351087,117.14009920308109 L123.1646375929157,-211.79110473909364" stroke="#0d6d4d" stroke-width="0.1" fill="none" />
<path d="M-216.27405782851233,115.11095478011342 L162.33232303701078,-183.502634578928" stroke="#0d6d4d" stroke-width="0.1" fill="none" />
<path d="M-217.34720454354814,113.0716263131695 L195.18697778982423,-148.07782987765142" stroke="#0d6d4d" stroke-width="0.1" fill="none" />
<path d="M-218.40112221567108,111.0222942247885 L220.45089917375267,-106.8943452830127" stroke="#0d6d4d" stroke-width="0.1" fill="none" />
<path d="M-219.4357176031566,108.96313982254598 L237.14158470195306,-61.55378790169148" stroke="#0d6d4d" stroke-width="0.1" fill="none" />
<path d="M-220.4508991737527,106.89434528301261 L244.6099411561017,-13.819431522622793" stroke="#0d6d4d" stroke-width="0.1" fill="none" />
<path d="M-221.44657711277762,104.81609363563709 L242.56552752835492,34.45235630390009" stroke="#0d6d4d" stroke-width="0.1" fill="none" />
<path d="M-222.4226633310663,102.72856874655241 L231.0878501409053,81.38430756143657" stroke="#0d6d4d" stroke-width="0.1" fill="none" />
<path d="M-223.3790714727631,100.63195530231046 L210.62327068103713,125.15125987229439" stroke="#0d6d4d" stroke-width="0.1" fill="none" />
<path d="M-224.31571692296254,98.52643879354078 L181.96764739680168,164.0511362376782" stroke="#0d6d4d" stroke-width="0.1" fill="none" />
<path d="M-225.23251681519483,96.41220549854141 L146.2353845293675,196.57113804307087" stroke="#0d6d4d" stroke-width="0.1" fill="none" />
<path d="M-226.12939003875732,94.28944246679772 L104.81609363563707,221.44657711277762" stroke="#0d6d4d" stroke-width="0.1" fill="none" />
<path d="M-227.00625724589057,92.15833750243408 L59.32055222270982,237.7100588616156" stroke="#0d6d4d" stroke-width="0.1" fill="none" />
<path d="M-227.86304085879823,90.01907914759872 L11.518061338478937,244.7291038332038" stroke="#0d6d4d" stroke-width="0.1" fill="none" />
<path d="M-228.6996650765108,87.87185666578229 L-36.73236174664397,242.230744540229" stroke="#0d6d4d" stroke-width="0.1" fill="none" />
<path d="M-229.51605588159126,85.7168600250749 L-83.55427988135762,230.31214104668422" stroke="#0d6d4d" stroke-width="0.1" fill="none" />
<path d="M-230.3121410466842,83.55427988135767 L-127.12680982639631,209.43680245688262" stroke="#0d6d4d" stroke-width="0.1" fill="none" />
<path d="M-231.0878501409052,81.38430756143678 L-165.7554355809198,180.41656125583242" stroke="#0d6d4d" stroke-width="0.1" fill="none" />
<path d="M-231.8431145360727,79.20713504611484 L-197.93790734409959,144.38000151073084" stroke="#0d6d4d" stroke-width="0.1" fill="none" />
<path d="M-232.57786741277894,77.02295495320743 L-222.4226633310663,102.72856874655241" stroke="#0d6d4d" stroke-width="0.1" fill="none" />
<path d="M-233.29204376630193,74.83196052050123 L-238.25750244518997,57.08206836284313" stroke="#0d6d4d" stroke-width="0.1" fill="none" />
<path d="M-233.98558041235654,72.63434558865822 L-244.826614948467,9.215672133657002" stroke="#0d6d4d" stroke-width="0.1" fill="none" />
<path d="M-234.65841599268447,70.43030458406555 L-241.87453102397,-39.009117420605236" stroke="#0d6d4d" stroke-width="0.1" fill="none" />
<path d="M-235.31049098048257,68.22003250163564 L-229.51605588159129,-85.71686002507482" stroke="#0d6d4d" stroke-width="0.1" fill="none" />
<path d="M-235.94174768566944,66.0037248875539 L-208.2318050353065,-129.09111267526555" stroke="#0d6d4d" stroke-width="0.1" fill="none" />
<path d="M-236.55213025998935,63.78157782197799 L-178.84951338300712,-167.44507028474013" stroke="#0d6d4d" stroke-width="0.1" fill="none" />
<path d="M-237.14158470195306,61.55378790169145 L-142.51184497034262,-199.28716477271945" stroke="#0d6d4d" stroke-width="0.1" fill="none" />
<path d="M-237.71005886161564,59.320552222709736 L-100.63195530231027,-223.37907147276317" stroke="#0d6d4d" stroke-width="0.1" fill="none" />
<path d="M-238.25750244518997,57.08206836284313 L-54.838534364215995,-238.78386701949674" stroke="#0d6d4d" stroke-width="0.1" fill="none" />
<path d="M-238.78386701949674,54.83853436421598 L-6.912467604086235,-244.90246587493246" stroke="#0d6d4d" stroke-width="0.1" fill="none" />
<path d="M-239.2891060162489,52.59014871574709 L41.28242189769279,-241.49691849433793" stroke="#0d6d4d" stroke-width="0.1" fill="none" />
<path d="M-239.77317473617208,50.33711033558731 L87.87185666578232,-228.6996650765108" stroke="#0d6d4d" stroke-width="0.1" fill="none" />
<path d="M-240.23603035295884,48.07961855352276 L131.0439946339948,-207.00838502429204" stroke="#0d6d4d" stroke-width="0.1" fill="none" />
<path d="M-240.67763191705782,45.81787309333801 L169.11989086454713,-177.2666424174714" stroke="#0d6d4d" stroke-width="0.1" fill="none" />
<path d="M-241.09794035929656,43.552074055147756 L200.6187909580414,-140.63108018689786" stroke="#0d6d4d" stroke-width="0.1" fill="none" />
<path d="M-241.49691849433793,41.2824218976928 L224.31571692296257,-98.5264387935407" stroke="#0d6d4d" stroke-width="0.1" fill="none" />
<path d="M-241.87453102397,39.009117420605335 L239.28910601624892,-52.59014871574695" stroke="#0d6d4d" stroke-width="0.1" fill="none" />
<path d="M-242.23074454022898,36.73236174664415 L244.95664990195144,-4.608651517829186" stroke="#0d6d4d" stroke-width="0.1" fill="none" />
<path d="M-242.56552752835492,34.452356303900096 L241.0979403592966,43.55207405514764" stroke="#0d6d4d" stroke-width="0.1" fill="none" />
<path d="M-242.8788503695797,32.16930280797696 L227.86304085879826,90.01907914759866" stroke="#0d6d4d" stroke-width="0.1" fill="none" />
<path d="M-243.1706853437476,29.883403244143615 L205.76665066169744,132.98528292810062" stroke="#0d6d4d" stroke-width="0.1" fill="none" />
<path d="M-243.44100663176766,27.594859849465635 L175.66808839826479,170.77974914637693" stroke="#0d6d4d" stroke-width="0.1" fill="none" />
<path d="M-243.68979031789797,25.30387509491216 L138.73787355456216,201.93266808903982" stroke="#0d6d4d" stroke-width="0.1" fill="none" />
<path d="M-243.91701439186156,23.01065166744321 L96.4122054985414,225.23251681519486" stroke="#0d6d4d" stroke-width="0.1" fill="none" />
<path d="M-244.12265875079353,20.715392452077875 L50.3371103355873,239.77317473617208" stroke="#0d6d4d" stroke-width="0.1" fill="none" />
<path d="M-244.30670520101992,18.418300513943905 L2.3044276970536246,244.98916223577942" stroke="#0d6d4d" stroke-width="0.1" fill="none" />
<path d="M-244.4691374596669,16.119579080313706 L-45.81787309333794,240.67763191705782" stroke="#0d6d4d" stroke-width="0.1" fill="none" />
<path d="M-244.60994115610168,13.819431522622823 L-92.15833750243411,227.00625724589057" stroke="#0d6d4d" stroke-width="0.1" fill="none" />
<path d="M-244.7291038332038,11.51806133847906 L-134.9148058088092,204.50671180567963" stroke="#0d6d4d" stroke-width="0.1" fill="none" />
<path d="M-244.826614948467,9.215672133657002 L-172.4244982800035,174.05399275193048" stroke="#0d6d4d" stroke-width="0.1" fill="none" />
<path d="M-244.90246587493246,6.912467604086219 L-203.2286799249757,136.8323925682504" stroke="#0d6d4d" stroke-width="0.1" fill="none" />
<path d="M-244.95664990195144,4.608651517829107 L-226.12939003875732,94.28944246679772" stroke="#0d6d4d" stroke-width="0.1" fill="none" />
<path d="M-244.98916223577942,2.3044276970536397 L-240.23603035295884,48.07961855352276" stroke="#0d6d4d" stroke-width="0.1" fill="none" />
<path d="M-245.0,4.500576986866523e-14 L-245.0,4.500576986866523e-14" stroke="#0d6d4d" stroke-width="0.1" fill="none" />
<path d="M-244.98916223577945,-2.3044276970535496 L-240.2360303529589,-48.07961855352245" stroke="#0d6d4d" stroke-width="0.1" fill="none" />
<path d="M-244.95664990195144,-4.608651517829016 L-226.12939003875735,-94.28944246679764" stroke="#0d6d4d" stroke-width="0.1" fill="none" />
<path d="M-244.90246587493246,-6.912467604086129 L-203.22867992497572,-136.83239256825033" stroke="#0d6d4d" stroke-width="0.1" fill="none" />
<path d="M-244.82661494846704,-9.215672133656913 L-172.42449828000355,-174.05399275193042" stroke="#0d6d4d" stroke-width="0.1" fill="none" />
<path d="M-244.7291038332038,-11.51806133847897 L-134.9148058088092,-204.50671180567963" stroke="#0d6d4d" stroke-width="0.1" fill="none" />
<path d="M-244.6099411561017,-13.819431522622734 L-92.15833750243429,-227.0062572458905" stroke="#0d6d4d" stroke-width="0.1" fill="none" />
<path d="M-244.4691374596669,-16.119579080313617 L-45.81787309333802,-240.67763191705782" stroke="#0d6d4d" stroke-width="0.1" fill="none" />
<path d="M-244.30670520101992,-18.418300513943816 L2.3044276970535242,-244.98916223577945" stroke="#0d6d4d" stroke-width="0.1" fill="none" />
<path d="M-244.12265875079353,-20.715392452077793 L50.33711033558725,-239.7731747361721" stroke="#0d6d4d" stroke-width="0.1" fill="none" />
<path d="M-243.91701439186156,-23.01065166744312 L96.41220549854138,-225.23251681519486" stroke="#0d6d4d" stroke-width="0.1" fill="none" />
<path d="M-243.68979031789797,-25.303875094912073 L138.7378735545621,-201.93266808903985" stroke="#0d6d4d" stroke-width="0.1" fill="none" />
<path d="M-243.4410066317677,-27.594859849465546 L175.66808839826476,-170.779749146377" stroke="#0d6d4d" stroke-width="0.1" fill="none" />
<path d="M-243.1706853437476,-29.883403244143526 L205.7666506616974,-132.9852829281007" stroke="#0d6d4d" stroke-width="0.1" fill="none" />
<path d="M-242.87885036957974,-32.16930280797686 L227.86304085879826,-90.01907914759869" stroke="#0d6d4d" stroke-width="0.1" fill="none" />
<path d="M-242.56552752835495,-34.452356303900004 L241.0979403592966,-43.55207405514767" stroke="#0d6d4d" stroke-width="0.1" fill="none" />
<path d="M-242.230744540229,-36.73236174664405 L244.95664990195144,4.608651517829155" stroke="#0d6d4d" stroke-width="0.1" fill="none" />
<path d="M-241.87453102397,-39.009117420605236 L239.28910601624892,52.59014871574698" stroke="#0d6d4d" stroke-width="0.1" fill="none" />
<path d="M-241.49691849433796,-41.2824218976927 L224.3157169229626,98.52643879354068" stroke="#0d6d4d" stroke-width="0.1" fill="none" />
<path d="M-241.0979403592966,-43.55207405514766 L200.61879095804142,140.6310801868978" stroke="#0d6d4d" stroke-width="0.1" fill="none" />
<path d="M-240.67763191705782,-45.817873093337916 L169.1198908645471,177.2666424174714" stroke="#0d6d4d" stroke-width="0.1" fill="none" />
<path d="M-240.2360303529589,-48.07961855352245 L131.04399463399483,207.00838502429204" stroke="#0d6d4d" stroke-width="0.1" fill="none" />
<path d="M-239.7731747361721,-50.33711033558723 L87.87185666578237,228.69966507651077" stroke="#0d6d4d" stroke-width="0.1" fill="none" />
<path d="M-239.28910601624892,-52.590148715747 L41.28242189769278,241.49691849433793" stroke="#0d6d4d" stroke-width="0.1" fill="none" />
<path d="M-238.78386701949677,-54.838534364215896 L-6.912467604086144,244.90246587493246" stroke="#0d6d4d" stroke-width="0.1" fill="none" />
<path d="M-238.25750244519,-57.08206836284303 L-54.83853436421602,238.78386701949674" stroke="#0d6d4d" stroke-width="0.1" fill="none" />
<path d="M-237.71005886161566,-59.320552222709644 L-100.6319553023102,223.37907147276317" stroke="#0d6d4d" stroke-width="0.1" fill="none" />
<path d="M-237.1415847019531,-61.55378790169138 L-142.51184497034257,199.28716477271948" stroke="#0d6d4d" stroke-width="0.1" fill="none" />
<path d="M-236.55213025998935,-63.78157782197791 L-178.84951338300695,167.4450702847403" stroke="#0d6d4d" stroke-width="0.1" fill="none" />
<path d="M-235.94174768566944,-66.00372488755383 L-208.23180503530642,129.09111267526566" stroke="#0d6d4d" stroke-width="0.1" fill="none" />
<path d="M-235.3104909804826,-68.22003250163556 L-229.51605588159126,85.7168600250749" stroke="#0d6d4d" stroke-width="0.1" fill="none" />
<path d="M-234.6584159926845,-70.43030458406548 L-241.87453102397,39.009117420605335" stroke="#0d6d4d" stroke-width="0.1" fill="none" />
<path d="M-233.98558041235663,-72.63434558865794 L-244.82661494846704,-9.215672133656913" stroke="#0d6d4d" stroke-width="0.1" fill="none" />
<path d="M-233.29204376630196,-74.83196052050117 L-238.25750244519,-57.08206836284303" stroke="#0d6d4d" stroke-width="0.1" fill="none" />
<path d="M-232.57786741277897,-77.02295495320737 L-222.42266333106633,-102.72856874655234" stroke="#0d6d4d" stroke-width="0.1" fill="none" />
<path d="M-231.84311453607273,-79.20713504611476 L-197.93790734409967,-144.38000151073075" stroke="#0d6d4d" stroke-width="0.1" fill="none" />
<path d="M-231.08785014090523,-81.38430756143671 L-165.75543558091996,-180.41656125583233" stroke="#0d6d4d" stroke-width="0.1" fill="none" />
<path d="M-230.31214104668422,-83.5542798813576 L-127.1268098263964,-209.43680245688256" stroke="#0d6d4d" stroke-width="0.1" fill="none" />
<path d="M-229.51605588159129,-85.71686002507482 L-83.55427988135769,-230.3121410466842" stroke="#0d6d4d" stroke-width="0.1" fill="none" />
<path d="M-228.69966507651083,-87.8718566657822 L-36.732361746644166,-242.23074454022898" stroke="#0d6d4d" stroke-width="0.1" fill="none" />
<path d="M-227.86304085879829,-90.01907914759863 L11.518061338478882,-244.7291038332038" stroke="#0d6d4d" stroke-width="0.1" fill="none" />
<path d="M-227.0062572458906,-92.15833750243401 L59.32055222270982,-237.7100588616156" stroke="#0d6d4d" stroke-width="0.1" fill="none" />
<path d="M-226.12939003875735,-94.28944246679764 L104.816093635637,-221.44657711277765" stroke="#0d6d4d" stroke-width="0.1" fill="none" />
<path d="M-225.23251681519486,-96.41220549854133 L146.2353845293675,-196.5711380430709" stroke="#0d6d4d" stroke-width="0.1" fill="none" />
<path d="M-224.31571692296257,-98.5264387935407 L181.96764739680168,-164.0511362376782" stroke="#0d6d4d" stroke-width="0.1" fill="none" />
<path d="M-223.37907147276312,-100.63195530231037 L210.6232706810371,-125.15125987229445" stroke="#0d6d4d" stroke-width="0.1" fill="none" />
<path d="M-222.42266333106633,-102.72856874655234 L231.0878501409053,-81.3843075614366" stroke="#0d6d4d" stroke-width="0.1" fill="none" />
<path d="M-221.44657711277765,-104.816093635637 L242.56552752835492,-34.45235630390012" stroke="#0d6d4d" stroke-width="0.1" fill="none" />
<path d="M-220.45089917375273,-106.89434528301254 L244.6099411561017,13.819431522622763" stroke="#0d6d4d" stroke-width="0.1" fill="none" />
<path d="M-219.43571760315663,-108.96313982254591 L237.14158470195306,61.55378790169145" stroke="#0d6d4d" stroke-width="0.1" fill="none" />
<path d="M-218.4011222156711,-111.02229422478842 L220.45089917375267,106.89434528301267" stroke="#0d6d4d" stroke-width="0.1" fill="none" />
<path d="M-217.3472045435482,-113.07162631316942 L195.18697778982428,148.0778298776513" stroke="#0d6d4d" stroke-width="0.1" fill="none" />
<path d="M-216.27405782851235,-115.11095478011335 L162.33232303701078,183.502634578928" stroke="#0d6d4d" stroke-width="0.1" fill="none" />
<path d="M-215.18177701351092,-117.14009920308104 L123.16463759291574,211.7911047390936" stroke="#0d6d4d" stroke-width="0.1" fill="none" />
<path d="M-214.0704587343149,-119.15888006053083 L79.20713504611471,231.84311453607273" stroke="#0d6d4d" stroke-width="0.1" fill="none" />
<path d="M-212.9402013109692,-121.16711874780184 L32.169302807976834,242.87885036957974" stroke="#0d6d4d" stroke-width="0.1" fill="none" />
<path d="M-211.79110473909367,-123.16463759291567 L-16.11957908031352,244.46913745966694" stroke="#0d6d4d" stroke-width="0.1" fill="none" />
<path d="M-210.6232706810372,-125.15125987229428 L-63.781577821977926,236.55213025998935" stroke="#0d6d4d" stroke-width="0.1" fill="none" />
<path d="M-209.43680245688262,-127.12680982639628 L-108.96313982254593,219.43571760315663" stroke="#0d6d4d" stroke-width="0.1" fill="none" />
<path d="M-208.2318050353065,-129.09111267526555 L-149.9071745515964,193.78554904315547" stroke="#0d6d4d" stroke-width="0.1" fill="none" />
<path d="M-207.008385024292,-131.04399463399486 L-185.0213869995243,160.59914804497643" stroke="#0d6d4d" stroke-width="0.1" fill="none" />
<path d="M-205.76665066169744,-132.9852829281006 L-212.94020131096914,121.16711874780194" stroke="#0d6d4d" stroke-width="0.1" fill="none" />
<path d="M-204.50671180567969,-134.9148058088091 L-232.57786741277894,77.02295495320743" stroke="#0d6d4d" stroke-width="0.1" fill="none" />
<path d="M-203.22867992497572,-136.83239256825033 L-243.1706853437476,29.883403244143615" stroke="#0d6d4d" stroke-width="0.1" fill="none" />
<path d="M-201.9326680890399,-138.73787355456201 L-244.30670520101992,-18.418300513943816" stroke="#0d6d4d" stroke-width="0.1" fill="none" />
<path d="M-200.61879095804142,-140.63108018689778 L-235.94174768566944,-66.00372488755383" stroke="#0d6d4d" stroke-width="0.1" fill="none" />
<path d="M-199.28716477271948,-142.51184497034254 L-218.4011222156711,-111.02229422478842" stroke="#0d6d4d" stroke-width="0.1" fill="none" />
<path d="M-197.93790734409967,-144.38000151073075 L-192.36697578963052,-151.72325670625355" stroke="#0d6d4d" stroke-width="0.1" fill="none" />
<path d="M-196.57113804307093,-146.23538452936745 L-158.8517645982438,-186.52377029221807" stroke="#0d6d4d" stroke-width="0.1" fill="none" />
<path d="M-195.18697778982423,-148.0778298776514 L-119.15888006053073,-214.07045873431497" stroke="#0d6d4d" stroke-width="0.1" fill="none" />
<path d="M-193.78554904315556,-149.9071745515963 L-74.83196052050145,-233.29204376630187" stroke="#0d6d4d" stroke-width="0.1" fill="none" />
<path d="M-192.36697578963052,-151.72325670625355 L-27.59485984946587,-243.44100663176764" stroke="#0d6d4d" stroke-width="0.1" fill="none" />
<path d="M-190.9313835326164,-153.5259156700293 L20.715392452077854,-244.12265875079353" stroke="#0d6d4d" stroke-width="0.1" fill="none" />
<path d="M-189.47889928117732,-155.3149919589009 L68.22003250163566,-235.31049098048257" stroke="#0d6d4d" stroke-width="0.1" fill="none" />
<path d="M-188.00965153883882,-157.0903272905254 L113.07162631316936,-217.34720454354823" stroke="#0d6d4d" stroke-width="0.1" fill="none" />
<path d="M-186.52377029221816,-158.8517645982437 L153.52591567002946,-190.93138353261625" stroke="#0d6d4d" stroke-width="0.1" fill="none" />
<path d="M-185.0213869995243,-160.59914804497643 L188.00965153883877,-157.0903272905255" stroke="#0d6d4d" stroke-width="0.1" fill="none" />
<path d="M-183.50263457892805,-162.33232303701072 L215.1817770135109,-117.14009920308106" stroke="#0d6d4d" stroke-width="0.1" fill="none" />
<path d="M-181.9676473968017,-164.0511362376782 L233.98558041235657,-72.63434558865814" stroke="#0d6d4d" stroke-width="0.1" fill="none" />
<path d="M-180.41656125583253,-165.7554355809197 L243.68979031789797,-25.30387509491224" stroke="#0d6d4d" stroke-width="0.1" fill="none" />
<path d="M-178.84951338300712,-167.44507028474013 L243.91701439186153,23.01065166744337" stroke="#0d6d4d" stroke-width="0.1" fill="none" />
<path d="M-177.2666424174714,-169.11989086454713 L234.65841599268447,70.43030458406555" stroke="#0d6d4d" stroke-width="0.1" fill="none" />
<path d="M-175.66808839826473,-170.779749146377 L216.2740578285123,115.11095478011346" stroke="#0d6d4d" stroke-width="0.1" fill="none" />
<path d="M-174.05399275193054,-172.42449828000346 L189.47889928117732,155.31499195890092" stroke="#0d6d4d" stroke-width="0.1" fill="none" />
<path d="M-172.42449828000355,-174.05399275193042 L155.31499195890106,189.47889928117723" stroke="#0d6d4d" stroke-width="0.1" fill="none" />
<path d="M-170.77974914637707,-175.66808839826464 L115.11095478011349,216.27405782851227" stroke="#0d6d4d" stroke-width="0.1" fill="none" />
<path d="M-169.11989086454722,-177.26664241747133 L70.43030458406554,234.65841599268447" stroke="#0d6d4d" stroke-width="0.1" fill="none" />
<path d="M-167.4450702847402,-178.84951338300704 L23.010651667443415,243.91701439186153" stroke="#0d6d4d" stroke-width="0.1" fill="none" />
<path d="M-165.75543558091996,-180.41656125583233 L-25.303875094912193,243.68979031789797" stroke="#0d6d4d" stroke-width="0.1" fill="none" />
<path d="M-164.05113623767826,-181.96764739680162 L-72.63434558865805,233.9855804123566" stroke="#0d6d4d" stroke-width="0.1" fill="none" />
<path d="M-162.33232303701078,-183.50263457892797 L-117.14009920308104,215.18177701351092" stroke="#0d6d4d" stroke-width="0.1" fill="none" />
<path d="M-160.59914804497635,-185.0213869995244 L-157.09032729052544,188.00965153883882" stroke="#0d6d4d" stroke-width="0.1" fill="none" />
<path d="M-158.8517645982438,-186.52377029221807 L-190.9313835326163,153.52591567002938" stroke="#0d6d4d" stroke-width="0.1" fill="none" />
<path d="M-157.0903272905255,-188.00965153883877 L-217.34720454354814,113.0716263131695" stroke="#0d6d4d" stroke-width="0.1" fill="none" />
<path d="M-155.31499195890115,-189.47889928117715 L-235.31049098048257,68.22003250163564" stroke="#0d6d4d" stroke-width="0.1" fill="none" />
<path d="M-153.52591567002955,-190.93138353261617 L-244.12265875079353,20.715392452077875" stroke="#0d6d4d" stroke-width="0.1" fill="none" />
<path d="M-151.72325670625364,-192.36697578963046 L-243.4410066317677,-27.594859849465546" stroke="#0d6d4d" stroke-width="0.1" fill="none" />
<path d="M-149.9071745515964,-193.78554904315547 L-233.29204376630196,-74.83196052050117" stroke="#0d6d4d" stroke-width="0.1" fill="none" />
<path d="M-148.0778298776513,-195.18697778982428 L-214.0704587343149,-119.15888006053083" stroke="#0d6d4d" stroke-width="0.1" fill="none" />
<path d="M-146.23538452936754,-196.57113804307085 L-186.52377029221816,-158.8517645982437" stroke="#0d6d4d" stroke-width="0.1" fill="none" />
<path d="M-144.38000151073066,-197.93790734409973 L-151.72325670625364,-192.36697578963046" stroke="#0d6d4d" stroke-width="0.1" fill="none" />
<path d="M-142.51184497034262,-199.28716477271945 L-111.02229422478851,-218.40112221567108" stroke="#0d6d4d" stroke-width="0.1" fill="none" />
<path d="M-140.6310801868979,-200.61879095804136 L-66.00372488755391,-235.94174768566944" stroke="#0d6d4d" stroke-width="0.1" fill="none" />
<path d="M-138.7378735545623,-201.93266808903974 L-18.418300513944136,-244.3067052010199" stroke="#0d6d4d" stroke-width="0.1" fill="none" />
<path d="M-136.8323925682506,-203.22867992497555 L29.88340324414353,-243.1706853437476" stroke="#0d6d4d" stroke-width="0.1" fill="none" />
<path d="M-134.9148058088092,-204.50671180567963 L77.02295495320742,-232.57786741277894" stroke="#0d6d4d" stroke-width="0.1" fill="none" />
<path d="M-132.98528292810067,-205.7666506616974 L121.16711874780194,-212.94020131096914" stroke="#0d6d4d" stroke-width="0.1" fill="none" />
<path d="M-131.04399463399494,-207.00838502429195 L160.59914804497635,-185.02138699952437" stroke="#0d6d4d" stroke-width="0.1" fill="none" />
<path d="M-129.09111267526566,-208.23180503530642 L193.78554904315544,-149.90717455159643" stroke="#0d6d4d" stroke-width="0.1" fill="none" />
<path d="M-127.1268098263964,-209.43680245688256 L219.43571760315658,-108.96313982254601" stroke="#0d6d4d" stroke-width="0.1" fill="none" />
<path d="M-125.15125987229455,-210.62327068103704 L236.55213025998935,-63.78157782197797" stroke="#0d6d4d" stroke-width="0.1" fill="none" />
<path d="M-123.16463759291577,-211.79110473909358 L244.4691374596669,-16.11957908031362" stroke="#0d6d4d" stroke-width="0.1" fill="none" />
<path d="M-121.16711874780194,-212.94020131096914 L242.87885036957974,32.16930280797679" stroke="#0d6d4d" stroke-width="0.1" fill="none" />
<path d="M-119.15888006053073,-214.07045873431497 L231.84311453607273,79.20713504611473" stroke="#0d6d4d" stroke-width="0.1" fill="none" />
<path d="M-117.1400992030811,-215.18177701351087 L211.79110473909364,123.1646375929157" stroke="#0d6d4d" stroke-width="0.1" fill="none" />
<path d="M-115.11095478011343,-216.2740578285123 L183.50263457892802,162.33232303701075" stroke="#0d6d4d" stroke-width="0.1" fill="none" />
<path d="M-113.07162631316952,-217.34720454354814 L148.07782987765137,195.18697778982425" stroke="#0d6d4d" stroke-width="0.1" fill="none" />
<path d="M-111.02229422478851,-218.40112221567108 L106.89434528301271,220.45089917375265" stroke="#0d6d4d" stroke-width="0.1" fill="none" />
<path d="M-108.963139822546,-219.4357176031566 L61.55378790169145,237.14158470195306" stroke="#0d6d4d" stroke-width="0.1" fill="none" />
<path d="M-106.89434528301283,-220.4508991737526 L13.819431522622917,244.60994115610168" stroke="#0d6d4d" stroke-width="0.1" fill="none" />
<path d="M-104.8160936356371,-221.44657711277762 L-34.45235630390013,242.56552752835492" stroke="#0d6d4d" stroke-width="0.1" fill="none" />
<path d="M-102.72856874655243,-222.42266333106627 L-81.38430756143653,231.08785014090532" stroke="#0d6d4d" stroke-width="0.1" fill="none" />
<path d="M-100.63195530231027,-223.37907147276317 L-125.15125987229439,210.62327068103713" stroke="#0d6d4d" stroke-width="0.1" fill="none" />
<path d="M-98.52643879354079,-224.31571692296254 L-164.05113623767812,181.96764739680174" stroke="#0d6d4d" stroke-width="0.1" fill="none" />
<path d="M-96.41220549854143,-225.23251681519483 L-196.57113804307085,146.23538452936754" stroke="#0d6d4d" stroke-width="0.1" fill="none" />
<path d="M-94.28944246679794,-226.12939003875726 L-221.44657711277762,104.81609363563709" stroke="#0d6d4d" stroke-width="0.1" fill="none" />
<path d="M-92.15833750243429,-227.0062572458905 L-237.71005886161564,59.320552222709736" stroke="#0d6d4d" stroke-width="0.1" fill="none" />
<path d="M-90.01907914759873,-227.86304085879823 L-244.7291038332038,11.51806133847906" stroke="#0d6d4d" stroke-width="0.1" fill="none" />
<path d="M-87.87185666578229,-228.6996650765108 L-242.230744540229,-36.73236174664405" stroke="#0d6d4d" stroke-width="0.1" fill="none" />
<path d="M-85.7168600250747,-229.5160558815913 L-230.31214104668422,-83.5542798813576" stroke="#0d6d4d" stroke-width="0.1" fill="none" />
<path d="M-83.55427988135769,-230.3121410466842 L-209.43680245688262,-127.12680982639628" stroke="#0d6d4d" stroke-width="0.1" fill="none" />
<path d="M-81.38430756143659,-231.0878501409053 L-180.41656125583253,-165.7554355809197" stroke="#0d6d4d" stroke-width="0.1" fill="none" />
<path d="M-79.20713504611486,-231.8431145360727 L-144.38000151073066,-197.93790734409973" stroke="#0d6d4d" stroke-width="0.1" fill="none" />
<path d="M-77.02295495320745,-232.57786741277894 L-102.72856874655243,-222.42266333106627" stroke="#0d6d4d" stroke-width="0.1" fill="none" />
<path d="M-74.83196052050145,-233.29204376630187 L-57.08206836284314,-238.25750244518997" stroke="#0d6d4d" stroke-width="0.1" fill="none" />
<path d="M-72.63434558865823,-233.98558041235654 L-9.215672133656799,-244.82661494846704" stroke="#0d6d4d" stroke-width="0.1" fill="none" />
<path d="M-70.43030458406557,-234.65841599268447 L39.00911742060539,-241.87453102396998" stroke="#0d6d4d" stroke-width="0.1" fill="none" />
<path d="M-68.22003250163566,-235.31049098048257 L85.7168600250748,-229.51605588159129" stroke="#0d6d4d" stroke-width="0.1" fill="none" />
<path d="M-66.00372488755391,-235.94174768566944 L129.09111267526558,-208.23180503530648" stroke="#0d6d4d" stroke-width="0.1" fill="none" />
<path d="M-63.781577821978004,-236.55213025998935 L167.44507028474018,-178.84951338300706" stroke="#0d6d4d" stroke-width="0.1" fill="none" />
<path d="M-61.553787901691464,-237.14158470195306 L199.28716477271948,-142.51184497034254" stroke="#0d6d4d" stroke-width="0.1" fill="none" />
<path d="M-59.320552222709956,-237.71005886161558 L223.37907147276314,-100.63195530231033" stroke="#0d6d4d" stroke-width="0.1" fill="none" />
<path d="M-57.08206836284314,-238.25750244518997 L238.78386701949674,-54.838534364216" stroke="#0d6d4d" stroke-width="0.1" fill="none" />
<path d="M-54.838534364215995,-238.78386701949674 L244.90246587493246,-6.912467604086244" stroke="#0d6d4d" stroke-width="0.1" fill="none" />
<path d="M-52.590148715746885,-239.28910601624895 L241.49691849433793,41.282421897692736" stroke="#0d6d4d" stroke-width="0.1" fill="none" />
<path d="M-50.337110335587326,-239.77317473617208 L228.6996650765108,87.87185666578229" stroke="#0d6d4d" stroke-width="0.1" fill="none" />
<path d="M-48.079618553522565,-240.23603035295886 L207.00838502429207,131.04399463399477" stroke="#0d6d4d" stroke-width="0.1" fill="none" />
<path d="M-45.81787309333802,-240.67763191705782 L177.26664241747145,169.11989086454707" stroke="#0d6d4d" stroke-width="0.1" fill="none" />
<path d="M-43.55207405514777,-241.09794035929656 L140.63108018689786,200.6187909580414" stroke="#0d6d4d" stroke-width="0.1" fill="none" />
<path d="M-41.28242189769302,-241.4969184943379 L98.52643879354076,224.31571692296254" stroke="#0d6d4d" stroke-width="0.1" fill="none" />
<path d="M-39.009117420605556,-241.87453102396995 L52.59014871574696,239.28910601624892" stroke="#0d6d4d" stroke-width="0.1" fill="none" />
<path d="M-36.732361746644166,-242.23074454022898 L4.608651517829092,244.95664990195144" stroke="#0d6d4d" stroke-width="0.1" fill="none" />
<path d="M-34.45235630389989,-242.56552752835495 L-43.55207405514768,241.0979403592966" stroke="#0d6d4d" stroke-width="0.1" fill="none" />
<path d="M-32.169302807976756,-242.87885036957974 L-90.01907914759875,227.86304085879823" stroke="#0d6d4d" stroke-width="0.1" fill="none" />
<path d="M-29.88340324414363,-243.1706853437476 L-132.9852829281007,205.7666506616974" stroke="#0d6d4d" stroke-width="0.1" fill="none" />
<path d="M-27.59485984946587,-243.44100663176764 L-170.77974914637701,175.6680883982647" stroke="#0d6d4d" stroke-width="0.1" fill="none" />
<path d="M-25.30387509491218,-243.68979031789797 L-201.93266808903985,138.7378735545621" stroke="#0d6d4d" stroke-width="0.1" fill="none" />
<path d="M-23.010651667443444,-243.91701439186153 L-225.23251681519483,96.41220549854141" stroke="#0d6d4d" stroke-width="0.1" fill="none" />
<path d="M-20.715392452077893,-244.12265875079353 L-239.77317473617208,50.33711033558731" stroke="#0d6d4d" stroke-width="0.1" fill="none" />
<path d="M-18.418300513944136,-244.3067052010199 L-244.98916223577942,2.3044276970536397" stroke="#0d6d4d" stroke-width="0.1" fill="none" />
<path d="M-16.119579080313503,-244.46913745966694 L-240.67763191705782,-45.817873093337916" stroke="#0d6d4d" stroke-width="0.1" fill="none" />
<path d="M-13.819431522622837,-244.60994115610168 L-227.0062572458906,-92.15833750243401" stroke="#0d6d4d" stroke-width="0.1" fill="none" />
<path d="M-11.518061338479075,-244.7291038332038 L-204.50671180567969,-134.9148058088091" stroke="#0d6d4d" stroke-width="0.1" fill="none" />
<path d="M-9.215672133656799,-244.82661494846704 L-174.05399275193054,-172.42449828000346" stroke="#0d6d4d" stroke-width="0.1" fill="none" />
<path d="M-6.912467604086235,-244.90246587493246 L-136.8323925682506,-203.22867992497555" stroke="#0d6d4d" stroke-width="0.1" fill="none" />
<path d="M-4.6086515178293395,-244.95664990195144 L-94.28944246679794,-226.12939003875726" stroke="#0d6d4d" stroke-width="0.1" fill="none" />
<path d="M-2.3044276970536544,-244.98916223577942 L-48.079618553522565,-240.23603035295886" stroke="#0d6d4d" stroke-width="0.1" fill="none" />
</svg>