<?xml version="1.0" encoding="UTF-8"?>
<svg xmlns="http://www.w3.org/2000/svg" xmlns:xlink="http://www.w3.org/1999/xlink"
     width="500.0" height="500" viewBox="-250.0 -250.0 500 500">
<defs>
</defs>
<circle cx="0" cy="0" r="245.0" fill="white" stroke-width="2" stroke="black" />
<path d="M0.0,-245.0 L0.0,-245.0" stroke="#4c0618" stroke-width="0.1" fill="none" />
<path d="M17.090336067310698,-244.40319231365692 L34.09740973521603,-242.61567684168475" stroke="#4c0618" stroke-width="0.1" fill="none" />
<path d="M34.09740973521603,-242.61567684168475 L67.53115217516479,-235.50911550488814" stroke="#4c0618" stroke-width="0.1" fill="none" />
<path d="M50.93836425035103,-239.64616217978238 L99.65047755357104,-223.81863712243722" stroke="#4c0618" stroke-width="0.1" fill="none" />
<path d="M67.53115217516479,-235.50911550488814 L129.8302197371352,-207.77178355832436" stroke="#4c0618" stroke-width="0.1" fill="none" />
<path d="M83.79493511478883,-230.22469209254757 L157.48296437320212,-187.68088856414965" stroke="#4c0618" stroke-width="0.1" fill="none" />
<path d="M99.65047755357104,-223.81863712243722 L182.07048224196157,-163.9369985579203" stroke="#4c0618" stroke-width="0.1" fill="none" />
<path d="M115.02053288254325,-216.32216025043712 L203.1142052759852,-137.002261350333" stroke="#4c0618" stroke-width="0.1" fill="none" />
<path d="M129.8302197371352,-207.77178355832436 L220.20454134329592,-107.40093096332396" stroke="#4c0618" stroke-width="0.1" fill="none" />
<path d="M144.00738681165592,-198.20916362186213 L233.0088464923126,-75.70916362186213" stroke="#4c0618" stroke-width="0.1" fill="none" />
<path d="M157.48296437320212,-187.68088856414965 L241.27789948799096,-42.54380352839795" stroke="#4c0618" stroke-width="0.1" fill="none" />
<path d="M170.19130076245432,-176.23825108296955 L244.85075261967847,-8.550376692112765" stroke="#4c0618" stroke-width="0.1" fill="none" />
<path d="M182.07048224196157,-163.9369985579203 L243.65786436522697,25.609473500575067" stroke="#4c0618" stroke-width="0.1" fill="none" />
<path d="M193.06263463364687,-150.8370614547863 L237.72245293761912,59.27086442191861" stroke="#4c0618" stroke-width="0.1" fill="none" />
<path d="M203.1142052759852,-137.002261350333 L227.1600443688629,91.77861538689845" stroke="#4c0618" stroke-width="0.1" fill="none" />
<path d="M212.17622392718746,-122.50000000000003 L212.17622392718752,122.49999999999994" stroke="#4c0618" stroke-width="0.1" fill="none" />
<path d="M220.20454134329592,-107.40093096332396 L193.0626346336469,150.83706145478627" stroke="#4c0618" stroke-width="0.1" fill="none" />
<path d="M227.1600443688629,-91.77861538689842 L170.1913007624543,176.23825108296958" stroke="#4c0618" stroke-width="0.1" fill="none" />
<path d="M233.0088464923126,-75.70916362186213 L144.00738681165595,198.2091636218621" stroke="#4c0618" stroke-width="0.1" fill="none" />
<path d="M237.72245293761912,-59.27086442191863 L115.02053288254332,216.32216025043707" stroke="#4c0618" stroke-width="0.1" fill="none" />
<path d="M241.27789948799096,-42.54380352839795 L83.79493511478887,230.22469209254754" stroke="#4c0618" stroke-width="0.1" fill="none" />
<path d="M243.65786436522694,-25.609473500575092 L50.93836425035103,239.64616217978238" stroke="#4c0618" stroke-width="0.1" fill="none" />
<path d="M244.85075261967847,-8.550376692112765 L17.090336067310755,244.40319231365692" stroke="#4c0618" stroke-width="0.1" fill="none" />
<path d="M244.85075261967847,8.55037669211268 L-17.090336067310584,244.40319231365694" stroke="#4c0618" stroke-width="0.1" fill="none" />
<path d="M243.65786436522697,25.609473500575067 L-50.93836425035097,239.64616217978238" stroke="#4c0618" stroke-width="0.1" fill="none" />
<path d="M241.27789948799096,42.54380352839792 L-83.79493511478883,230.22469209254757" stroke="#4c0618" stroke-width="0.1" fill="none" />
<path d="M237.72245293761912,59.27086442191861 L-115.02053288254326,216.3221602504371" stroke="#4c0618" stroke-width="0.1" fill="none" />
<path d="M233.00884649231264,75.7091636218621 L-144.0073868116559,198.20916362186213" stroke="#4c0618" stroke-width="0.1" fill="none" />
<path d="M227.1600443688629,91.77861538689845 L-170.19130076245435,176.23825108296953" stroke="#4c0618" stroke-width="0.1" fill="none" />
<path d="M220.2045413432959,107.40093096332399 L-193.0626346336469,150.83706145478627" stroke="#4c0618" stroke-width="0.1" fill="none" />
<path d="M212.17622392718752,122.49999999999994 L-212.1762239271874,122.50000000000011" stroke="#4c0618" stroke-width="0.1" fill="none" />
<path d="M203.11420527598526,137.00226135033293 L-227.16004436886288,91.77861538689851" stroke="#4c0618" stroke-width="0.1" fill="none" />
<path d="M193.0626346336469,150.83706145478627 L-237.72245293761912,59.27086442191862" stroke="#4c0618" stroke-width="0.1" fill="none" />
<path d="M182.0704822419616,163.93699855792028 L-243.65786436522697,25.60947350057507" stroke="#4c0618" stroke-width="0.1" fill="none" />
<path d="M170.1913007624543,176.23825108296958 L-244.85075261967847,-8.550376692112813" stroke="#4c0618" stroke-width="0.1" fill="none" />
<path d="M157.48296437320218,187.6808885641496 L-241.277899487991,-42.543803528397845" stroke="#4c0618" stroke-width="0.1" fill="none" />
<path d="M144.00738681165595,198.2091636218621 L-233.00884649231264,-75.70916362186207" stroke="#4c0618" stroke-width="0.1" fill="none" />
<path d="M129.8302197371352,207.77178355832436 L-220.20454134329592,-107.40093096332396" stroke="#4c0618" stroke-width="0.1" fill="none" />
<path d="M115.02053288254332,216.32216025043707 L-203.1142052759853,-137.00226135033282" stroke="#4c0618" stroke-width="0.1" fill="none" />
<path d="M99.65047755357111,223.8186371224372 L-182.07048224196168,-163.93699855792016" stroke="#4c0618" stroke-width="0.1" fill="none" />
<path d="M83.79493511478887,230.22469209254754 L-157.4829643732022,-187.6808885641496" stroke="#4c0618" stroke-width="0.1" fill="none" />
<path d="M67.53115217516492,235.5091155048881 L-129.83021973713542,-207.77178355832422" stroke="#4c0618" stroke-width="0.1" fill="none" />
<path d="M50.93836425035103,239.64616217978238 L-99.65047755357104,-223.81863712243725" stroke="#4c0618" stroke-width="0.1" fill="none" />
<path d="M34.097409735216104,242.61567684168472 L-67.53115217516495,-235.5091155048881" stroke="#4c0618" stroke-width="0.1" fill="none" />
<path d="M17.090336067310755,244.40319231365692 L-34.09740973521614,-242.61567684168472" stroke="#4c0618" stroke-width="0.1" fill="none" />
<path d="M3.0003846579110155e-14,245.0 L0.0,-245.0" stroke="#4c0618" stroke-width="0.1" fill="none" />
<path d="M-17.090336067310584,244.40319231365694 L34.09740973521603,-242.61567684168475" stroke="#4c0618" stroke-width="0.1" fill="none" />
<path d="M-34.097409735216054,242.61567684168472 L67.53115217516479,-235.50911550488814" stroke="#4c0618" stroke-width="0.1" fill="none" />
<path d="M-50.93836425035097,239.64616217978238 L99.65047755357104,-223.81863712243722" stroke="#4c0618" stroke-width="0.1" fill="none" />
<path d="M-67.53115217516475,235.50911550488814 L129.8302197371352,-207.77178355832436" stroke="#4c0618" stroke-width="0.1" fill="none" />
<path d="M-83.79493511478883,230.22469209254757 L157.48296437320212,-187.68088856414965" stroke="#4c0618" stroke-width="0.1" fill="none" />
<path d="M-99.65047755357095,223.81863712243728 L182.07048224196157,-163.9369985579203" stroke="#4c0618" stroke-width="0.1" fill="none" />
<path d="M-115.02053288254326,216.3221602504371 L203.1142052759852,-137.002261350333" stroke="#4c0618" stroke-width="0.1" fill="none" />
<path d="M-129.83021973713517,207.7717835583244 L220.20454134329592,-107.40093096332396" stroke="#4c0618" stroke-width="0.1" fill="none" />
<path d="M-144.0073868116559,198.20916362186213 L233.0088464923126,-75.70916362186213" stroke="#4c0618" stroke-width="0.1" fill="none" />
<path d="M-157.48296437320212,187.68088856414965 L241.27789948799096,-42.54380352839795" stroke="#4c0618" stroke-width="0.1" fill="none" />
<path d="M-170.19130076245435,176.23825108296953 L244.85075261967847,-8.550376692112765" stroke="#4c0618" stroke-width="0.1" fill="none" />
<path d="M-182.07048224196154,163.93699855792033 L243.65786436522697,25.609473500575067" stroke="#4c0618" stroke-width="0.1" fill="none" />
<path d="M-193.0626346336469,150.83706145478627 L237.72245293761912,59.27086442191861" stroke="#4c0618" stroke-width="0.1" fill="none" />
<path d="M-203.11420527598514,137.0022613503331 L227.1600443688629,91.77861538689845" stroke="#4c0618" stroke-width="0.1" fill="none" />
<path d="M-212.1762239271874,122.50000000000011 L212.17622392718752,122.49999999999994" stroke="#4c0618" stroke-width="0.1" fill="none" />
<path d="M-220.20454134329586,107.40093096332404 L193.0626346336469,150.83706145478627" stroke="#4c0618" stroke-width="0.1" fill="none" />
<path d="M-227.16004436886288,91.77861538689851 L170.1913007624543,176.23825108296958" stroke="#4c0618" stroke-width="0.1" fill="none" />
<path d="M-233.0088464923126,75.70916362186215 L144.00738681165595,198.2091636218621" stroke="#4c0618" stroke-width="0.1" fill="none" />
<path d="M-237.72245293761912,59.27086442191862 L115.02053288254332,216.32216025043707" stroke="#4c0618" stroke-width="0.1" fill="none" />
<path d="M-241.27789948799096,42.54380352839793 L83.79493511478887,230.22469209254754" stroke="#4c0618" stroke-width="0.1" fill="none" />
<path d="M-243.65786436522697,25.60947350057507 L50.93836425035103,239.64616217978238" stroke="#4c0618" stroke-width="0.1" fill="none" />
<path d="M-244.85075261967845,8.550376692112902 L17.090336067310755,244.40319231365692" stroke="#4c0618" stroke-width="0.1" fill="none" />
<path d="M-244.85075261967847,-8.550376692112813 L-17.090336067310584,244.40319231365694" stroke="#4c0618" stroke-width="0.1" fill="none" />
<path d="M-243.65786436522697,-25.609473500574985 L-50.93836425035097,239.64616217978238" stroke="#4c0618" stroke-width="0.1" fill="none" />
<path d="M-241.277899487991,-42.543803528397845 L-83.79493511478883,230.22469209254757" stroke="#4c0618" stroke-width="0.1" fill="none" />
<path d="M-237.72245293761915,-59.27086442191852 L-115.02053288254326,216.3221602504371" stroke="#4c0618" stroke-width="0.1" fill="none" />
<path d="M-233.00884649231264,-75.70916362186207 L-144.0073868116559,198.20916362186213" stroke="#4c0618" stroke-width="0.1" fill="none" />
<path d="M-227.1600443688629,-91.77861538689842 L-170.19130076245435,176.23825108296953" stroke="#4c0618" stroke-width="0.1" fill="none" />
<path d="M-220.20454134329592,-107.40093096332396 L-193.0626346336469,150.83706145478627" stroke="#4c0618" stroke-width="0.1" fill="none" />
<path d="M-212.17622392718746,-122.5 L-212.1762239271874,122.50000000000011" stroke="#4c0618" stroke-width="0.1" fill="none" />
<path d="M-203.1142052759853,-137.00226135033282 L-227.16004436886288,91.77861538689851" stroke="#4c0618" stroke-width="0.1" fill="none" />
<path d="M-193.06263463364684,-150.83706145478632 L-237.72245293761912,59.27086442191862" stroke="#4c0618" stroke-width="0.1" fill="none" />
<path d="M-182.07048224196168,-163.93699855792016 L-243.65786436522697,25.60947350057507" stroke="#4c0618" stroke-width="0.1" fill="none" />
<path d="M-170.1913007624544,-176.23825108296947 L-244.85075261967847,-8.550376692112813" stroke="#4c0618" stroke-width="0.1" fill="none" />
<path d="M-157.4829643732022,-187.6808885641496 L-241.277899487991,-42.543803528397845" stroke="#4c0618" stroke-width="0.1" fill="none" />
<path d="M-144.00738681165595,-198.2091636218621 L-233.00884649231264,-75.70916362186207" stroke="#4c0618" stroke-width="0.1" fill="none" />
<path d="M-129.83021973713542,-207.77178355832422 L-220.20454134329592,-107.40093096332396" stroke="#4c0618" stroke-width="0.1" fill="none" />
<path d="M-115.02053288254325,-216.32216025043712 L-203.1142052759853,-137.00226135033282" stroke="#4c0618" stroke-width="0.1" fill="none" />
<path d="M-99.65047755357104,-223.81863712243725 L-182.07048224196168,-163.93699855792016" stroke="#4c0618" stroke-width="0.1" fill="none" />
<path d="M-83.7949351147888,-230.22469209254757 L-157.4829643732022,-187.6808885641496" stroke="#4c0618" stroke-width="0.1" fill="none" />
<path d="M-67.53115217516495,-235.5091155048881 L-129.83021973713542,-207.77178355832422" stroke="#4c0618" stroke-width="0.1" fill="none" />
<path d="M-50.93836425035117,-239.64616217978238 L-99.65047755357104,-223.81863712243725" stroke="#4c0618" stroke-width="0.1" fill="none" />
<path d="M-34.09740973521614,-242.61567684168472 L-67.53115217516495,-235.5091155048881" stroke="#4c0618" stroke-width="0.1" fill="none" />
<path d="M-17.090336067310567,-244.40319231365694 L-34.09740973521614,-242.61567684168472" stroke="#4c0618" stroke-width="0.1" fill="none" />
</svg>