<?xml version="1.0" encoding="UTF-8"?>
<svg xmlns="http://www.w3.org/2000/svg" xmlns:xlink="http://www.w3.org/1999/xlink"
     width="500.0" height="500" viewBox="-250.0 -250.0 500 500">
<defs>
</defs>
<circle cx="0" cy="0" r="245.0" fill="white" stroke-width="2" stroke="black" />
<path d="M0.0,-245.0 L0.0,-245.0" stroke="#0d6d4d" stroke-width="0.1" fill="none" />
<path d="M2.4868400093230467,-244.98737850503244 L51.82994011744585,-239.45491706670376" stroke="#0d6d4d" stroke-width="0.1" fill="none" />
<path d="M4.973423793024355,-244.94951532055535 L101.31374703996096,-223.07067189732226" stroke="#0d6d4d" stroke-width="0.1" fill="none" />
<path d="M7.459495151881786,-244.8864143477115 L146.2114875982346,-196.58891345727326" stroke="#0d6d4d" stroke-width="0.1" fill="none" />
<path d="M9.944797939469664,-244.79808208795902 L184.49082142562804,-161.208364577329" stroke="#0d6d4d" stroke-width="0.1" fill="none" />
<path d="M12.429076088550225,-244.68452764240126 L214.4189968429231,-118.53056058618189" stroke="#0d6d4d" stroke-width="0.1" fill="none" />
<path d="M14.912073637456883,-244.5457627108494 L234.64128556660026,-70.4873542392758" stroke="#0d6d4d" stroke-width="0.1" fill="none" />
<path d="M17.393534756466636,-244.38180159061676 L244.24230581646478,-19.25346850457044" stroke="#0d6d4d" stroke-width="0.1" fill="none" />
<path d="M19.873203774158863,-244.19266117504588 L242.78745797186568,32.85194441063657" stroke="#0d6d4d" stroke-width="0.1" fill="none" />
<path d="M22.35082520375782,-243.97836095176774 L230.3425971507917,83.47028176439859" stroke="#0d6d4d" stroke-width="0.1" fill="none" />
<path d="M24.826143769456134,-243.73892300069411 L207.47105221321175,130.3102547520446" stroke="#0d6d4d" stroke-width="0.1" fill="none" />
<path d="M27.29890443271648,-243.47437199174252 L175.20812612640327,171.25160594655563" stroke="#0d6d4d" stroke-width="0.1" fill="none" />
<path d="M29.76885241854893,-243.1847351822944 L135.01423195830225,204.44108483548447" stroke="#0d6d4d" stroke-width="0.1" fill="none" />
<path d="M32.235733241761054,-242.87004241438677 L88.70878584420876,228.37633702738626" stroke="#0d6d4d" stroke-width="0.1" fill="none" />
<path d="M34.699292733178176,-242.53032611163744 L38.38784932670177,241.97390980035522" stroke="#0d6d4d" stroke-width="0.1" fill="none" />
<path d="M37.159277065831134,-242.16562127590447 L-13.670750930784335,244.6182956546555" stroke="#0d6d4d" stroke-width="0.1" fill="none" />
<path d="M39.615432781108716,-241.77596548367967 L-65.1105312072775,236.18979386481996" stroke="#0d6d4d" stroke-width="0.1" fill="none" />
<path d="M42.06750681487214,-241.36139888221703 L-113.60301927662513,217.06992885066953" stroke="#0d6d4d" stroke-width="0.1" fill="none" />
<path d="M44.51524652352893,-240.92196418539643 L-156.95315499199947,188.12418009936252" stroke="#0d6d4d" stroke-width="0.1" fill="none" />
<path d="M46.95839971006347,-240.45770666932242 L-193.19865184147045,150.66280538553065" stroke="#0d6d4d" stroke-width="0.1" fill="none" />
<path d="M49.39671465002147,-239.96867416765954 L-220.69882177614997,106.381530664957" stroke="#0d6d4d" stroke-width="0.1" fill="none" />
<path d="M51.82994011744585,-239.45491706670376 L-238.2088425677313,57.28479137207184" stroke="#0d6d4d" stroke-width="0.1" fill="none" />
<path d="M54.25782541076114,-238.9164883001911 L-244.93610591047533,5.594999679392905" stroke="#0d6d4d" stroke-width="0.1" fill="none" />
<path d="M56.68012037860402,-238.3534433438438 L-240.57609561540534,-46.34805517437968" stroke="#0d6d4d" stroke-width="0.1" fill="none" />
<path d="M59.09657544559695,-237.76584020965433 L-225.32617183498,-96.19311974456942" stroke="#0d6d4d" stroke-width="0.1" fill="none" />
<path d="M61.50694163806263,-237.15373943990838 L-199.87663736176188,-141.6839081792803" stroke="#0d6d4d" stroke-width="0.1" fill="none" />
<path d="M63.91097060967643,-236.5172041009471 L-165.3794903938551,-180.76123521670456" stroke="#0d6d4d" stroke-width="0.1" fill="none" />
<path d="M66.30841466705414,-235.8562997766691 L-123.39627820390587,-211.65622723044146" stroke="#0d6d4d" stroke-width="0.1" fill="none" />
<path d="M68.69902679527245,-235.17109456177315 L-75.82741216660375,-232.9703920332281" stroke="#0d6d4d" stroke-width="0.1" fill="none" />
<path d="M71.08256068331954,-234.46165905474226 L-24.8261437694561,-243.73892300069411" stroke="#0d6d4d" stroke-width="0.1" fill="none" />
<path d="M73.45877074947319,-233.72806635056975 L27.29890443271648,-243.47437199174252" stroke="#0d6d4d" stroke-width="0.1" fill="none" />
<path d="M75.82741216660368,-232.97039203322814 L78.18824088739896,-232.1887141678813" stroke="#0d6d4d" stroke-width="0.1" fill="none" />
<path d="M78.18824088739896,-232.1887141678813 L125.53830974919028,-210.3928059257644" stroke="#0d6d4d" stroke-width="0.1" fill="none" />
<path d="M80.54101366950948,-231.38311329284141 L167.20576359983792,-179.07326048015963" stroke="#0d6d4d" stroke-width="0.1" fill="none" />
<path d="M82.8854881006101,-230.55367241127092 L201.30448417631237,-139.64778784681414" stroke="#0d6d4d" stroke-width="0.1" fill="none" />
<path d="M85.22142262337648,-229.70047698263025 L226.29095936828006,-93.90102080479967" stroke="#0d6d4d" stroke-width="0.1" fill="none" />
<path d="M87.5485765603733,-228.82361491387303 L241.03415181124953,-43.90373173924409" stroke="#0d6d4d" stroke-width="0.1" fill="none" />
<path d="M89.866710138852,-227.9231765503885 L244.8666964048305,8.080902906518011" stroke="#0d6d4d" stroke-width="0.1" fill="none" />
<path d="M92.175584515455,-226.99925466669316 L237.61510925010893,59.69974753764699" stroke="#0d6d4d" stroke-width="0.1" fill="none" />
<path d="M94.47496180082459,-226.05194445687198 L219.60764056888866,108.6162244039343" stroke="#0d6d4d" stroke-width="0.1" fill="none" />
<path d="M96.76460508411313,-225.08134352477023 L191.65941613468877,152.616081088823" stroke="#0d6d4d" stroke-width="0.1" fill="none" />
<path d="M99.04427845739261,-224.08755187393717 L155.03553980323187,189.7076208219388" stroke="#0d6d4d" stroke-width="0.1" fill="none" />
<path d="M101.31374703996096,-223.07067189732226 L111.39382734265438,218.21185859149568" stroke="#0d6d4d" stroke-width="0.1" fill="none" />
<path d="M103.5727770025423,-222.03080836672564 L62.70976377291517,236.83852205151337" stroke="#0d6d4d" stroke-width="0.1" fill="none" />
<path d="M105.82113559137902,-220.96806842200297 L11.187081094210903,244.744456968062" stroke="#0d6d4d" stroke-width="0.1" fill="none" />
<path d="M108.05859115221307,-219.88256156002655 L-40.84199580856599,241.57179342459062" stroke="#0d6d4d" stroke-width="0.1" fill="none" />
<path d="M110.28491315415381,-218.77439962340372 L-91.02231961811995,227.46414515553175" stroke="#0d6d4d" stroke-width="0.1" fill="none" />
<path d="M112.49987221343028,-217.64369678895332 L-137.0824286434821,203.0601087294219" stroke="#0d6d4d" stroke-width="0.1" fill="none" />
<path d="M114.70324011702517,-216.49056955594176 L-176.93736676659321,169.4643568474034" stroke="#0d6d4d" stroke-width="0.1" fill="none" />
<path d="M116.89478984618823,-215.31513673407983 L-208.78306103076687,128.1976342473724" stroke="#0d6d4d" stroke-width="0.1" fill="none" />
<path d="M119.07429559982658,-214.1175194312813 L-231.17798477671178,81.1279196983284" stroke="#0d6d4d" stroke-width="0.1" fill="none" />
<path d="M121.24153281776958,-212.89784104118507 L-243.10840976396955,30.38587010493339" stroke="#0d6d4d" stroke-width="0.1" fill="none" />
<path d="M123.39627820390592,-211.65622723044143 L-244.0342935763459,-21.731625771990192" stroke="#0d6d4d" stroke-width="0.1" fill="none" />
<path d="M125.53830974919028,-210.3928059257644 L-233.91372517281044,-72.86541824335403" stroke="#0d6d4d" stroke-width="0.1" fill="none" />
<path d="M127.6674067545176,-209.10770730075103 L-213.2048220319729,-120.70088592183058" stroke="#0d6d4d" stroke-width="0.1" fill="none" />
<path d="M129.78334985346225,-207.80106376246925 L-182.8449930140255,-163.07270933452037" stroke="#0d6d4d" stroke-width="0.1" fill="none" />
<path d="M131.88592103488003,-206.47300993781582 L-144.2085056270926,-198.06288623768162" stroke="#0d6d4d" stroke-width="0.1" fill="none" />
<path d="M133.97490366537014,-205.1236826596451 L-99.0442784573926,-224.08755187393717" stroke="#0d6d4d" stroke-width="0.1" fill="none" />
<path d="M136.05008251159586,-203.75322095267097 L-49.396714650021565,-239.96867416765954" stroke="#0d6d4d" stroke-width="0.1" fill="none" />
<path d="M138.11124376246025,-202.36176601914278 L2.4868400093230467,-244.98737850503244" stroke="#0d6d4d" stroke-width="0.1" fill="none" />
<path d="M140.158175051136,-200.94946122429667 L54.25782541076114,-238.9164883001911" stroke="#0d6d4d" stroke-width="0.1" fill="none" />
<path d="M142.19066547694592,-199.51645208158465 L103.5727770025423,-222.03080836672564" stroke="#0d6d4d" stroke-width="0.1" fill="none" />
<path d="M144.20850562709253,-198.06288623768168 L148.19940501790796,-195.09468560762508" stroke="#0d6d4d" stroke-width="0.1" fill="none" />
<path d="M146.2114875982346,-196.58891345727326 L186.11764126601275,-159.32741010126222" stroke="#0d6d4d" stroke-width="0.1" fill="none" />
<path d="M148.19940501790796,-195.09468560762508 L215.61107950457048,-116.34802273727641" stroke="#0d6d4d" stroke-width="0.1" fill="none" />
<path d="M150.17205306578842,-193.5803566429353 L235.34467025585982,-68.10202773897855" stroke="#0d6d4d" stroke-width="0.1" fill="none" />
<path d="M152.12922849479511,-192.04608258847253 L244.4251531338594,-16.77332750200087" stroke="#0d6d4d" stroke-width="0.1" fill="none" />
<path d="M154.07072965203147,-190.49202152450016 L242.44149115381094,35.31463389469871" stroke="#0d6d4d" stroke-width="0.1" fill="none" />
<path d="M155.99635649956207,-188.91833356998873 L229.4834767254369,85.80404366931586" stroke="#0d6d4d" stroke-width="0.1" fill="none" />
<path d="M157.9059106350232,-187.32518086611867 L206.13766711123665,132.4094490508022" stroke="#0d6d4d" stroke-width="0.1" fill="none" />
<path d="M159.79919531206446,-185.71272755957435 L173.4608333353383,173.02121054544148" stroke="#0d6d4d" stroke-width="0.1" fill="none" />
<path d="M161.67601546062042,-184.08113978563154 L132.93212440414914,205.8009968425805" stroke="#0d6d4d" stroke-width="0.1" fill="none" />
<path d="M163.53617770700893,-182.43058565104042 L86.38611217238639,229.2649986887224" stroke="#0d6d4d" stroke-width="0.1" fill="none" />
<path d="M165.37949039385504,-180.76123521670462 L35.929747644452945,242.3510949721621" stroke="#0d6d4d" stroke-width="0.1" fill="none" />
<path d="M167.20576359983792,-179.07326048015963 L-16.153012234181702,244.4669306793096" stroke="#0d6d4d" stroke-width="0.1" fill="none" />
<path d="M169.01480915925904,-177.36683535785164 L-67.50459013354208,235.51673042674165" stroke="#0d6d4d" stroke-width="0.1" fill="none" />
<path d="M170.8064406814291,-175.64213566721804 L-115.80050639479113,215.9056338280915" stroke="#0d6d4d" stroke-width="0.1" fill="none" />
<path d="M172.58047356987277,-173.89933910857292 L-158.85459888724964,186.5213564511341" stroke="#0d6d4d" stroke-width="0.1" fill="none" />
<path d="M174.33672504134776,-172.13862524679783 L-194.71798178652207,148.69400649987094" stroke="#0d6d4d" stroke-width="0.1" fill="none" />
<path d="M176.0750141446777,-170.36017549284088 L-221.76726380734277,104.1358761590089" stroke="#0d6d4d" stroke-width="0.1" fill="none" />
<path d="M177.79516177939587,-168.56417308502554 L-238.77803260610722,54.86393300481466" stroke="#0d6d4d" stroke-width="0.1" fill="none" />
<path d="M179.49699071419846,-166.750803070171 L-244.98027900936,3.108519984836688" stroke="#0d6d4d" stroke-width="0.1" fill="none" />
<path d="M181.18032560520524,-164.92025228452633 L-240.0932522360499,-48.78760324833069" stroke="#0d6d4d" stroke-width="0.1" fill="none" />
<path d="M182.84499301402553,-163.07270933452034 L-224.33816835764824,-98.47530765595748" stroke="#0d6d4d" stroke-width="0.1" fill="none" />
<path d="M184.49082142562804,-161.208364577329 L-198.42819673519008,-143.70543044861145" stroke="#0d6d4d" stroke-width="0.1" fill="none" />
<path d="M186.11764126601275,-159.32741010126222 L-163.53617770700893,-182.43058565104042" stroke="#0d6d4d" stroke-width="0.1" fill="none" />
<path d="M187.72528491968225,-157.43003970597266 L-121.24153281776948,-212.89784104118513" stroke="#0d6d4d" stroke-width="0.1" fill="none" />
<path d="M189.31358674691177,-155.51644888248805 L-73.45877074947319,-233.72806635056975" stroke="#0d6d4d" stroke-width="0.1" fill="none" />
<path d="M190.88238310081542,-153.58683479306922 L-22.35082520375771,-243.97836095176774" stroke="#0d6d4d" stroke-width="0.1" fill="none" />
<path d="M192.43151234420722,-151.64139625089592 L29.76885241854893,-243.1847351822944" stroke="#0d6d4d" stroke-width="0.1" fill="none" />
<path d="M193.9608148662549,-149.68033369958255 L80.54101366950948,-231.38311329284141" stroke="#0d6d4d" stroke-width="0.1" fill="none" />
<path d="M195.47013309892515,-147.7038491925261 L127.6674067545176,-209.10770730075103" stroke="#0d6d4d" stroke-width="0.1" fill="none" />
<path d="M196.95931153321808,-145.71214637208777 L169.01480915925904,-177.36683535785164" stroke="#0d6d4d" stroke-width="0.1" fill="none" />
<path d="M198.42819673519,-143.70543044861157 L202.71159006405495,-137.59727923800872" stroke="#0d6d4d" stroke-width="0.1" fill="none" />
<path d="M199.87663736176177,-141.68390817928048 L227.23243155296896,-91.59924699758879" stroke="#0d6d4d" stroke-width="0.1" fill="none" />
<path d="M201.30448417631237,-139.64778784681414 L241.46737362885622,-41.45488478795161" stroke="#0d6d4d" stroke-width="0.1" fill="none" />
<path d="M202.71159006405495,-137.59727923800872 L244.77205764386812,10.565973537109508" stroke="#0d6d4d" stroke-width="0.1" fill="none" />
<path d="M204.0978100471946,-135.53259362212205 L236.99689382713458,62.10855268229891" stroke="#0d6d4d" stroke-width="0.1" fill="none" />
<path d="M205.46300129986565,-133.45394372910604 L218.49383261280866,110.83972712960798" stroke="#0d6d4d" stroke-width="0.1" fill="none" />
<path d="M206.80702316284754,-131.36154372768857 L190.10043325765196,154.55363235865087" stroke="#0d6d4d" stroke-width="0.1" fill="none" />
<path d="M208.12973715805714,-129.25560920330713 L153.10195089784852,191.2715154728293" stroke="#0d6d4d" stroke-width="0.1" fill="none" />
<path d="M209.4310070028166,-127.13635713589635 L109.17315821169392,219.33130539456616" stroke="#0d6d4d" stroke-width="0.1" fill="none" />
<path d="M210.71069862389496,-125.0040058775323 L60.30253518779471,237.46284814666228" stroke="#0d6d4d" stroke-width="0.1" fill="none" />
<path d="M211.96868017132192,-122.85877512993463 L8.702258623451948,244.8454016207994" stroke="#0d6d4d" stroke-width="0.1" fill="none" />
<path d="M213.20482203197287,-120.70088592183065 L-43.29193423292375,241.14478727596872" stroke="#0d6d4d" stroke-width="0.1" fill="none" />
<path d="M214.4189968429231,-118.53056058618189 L-93.32647512469225,226.5285170586701" stroke="#0d6d4d" stroke-width="0.1" fill="none" />
<path d="M215.61107950457048,-116.34802273727641 L-139.13650136798236,201.65821080996787" stroke="#0d6d4d" stroke-width="0.1" fill="none" />
<path d="M216.78094719352464,-114.15349724768966 L-178.64837708772822,167.65964739292772" stroke="#0d6d4d" stroke-width="0.1" fill="none" />
<path d="M217.92847937526193,-111.94721022511476 L-210.073558384207,126.07180520559375" stroke="#0d6d4d" stroke-width="0.1" fill="none" />
<path d="M219.0535578165443,-109.72938898906652 L-231.98955353102804,78.7771988107871" stroke="#0d6d4d" stroke-width="0.1" fill="none" />
<path d="M220.15606659760135,-107.50026204745974 L-243.4043134616211,27.91666506366574" stroke="#0d6d4d" stroke-width="0.1" fill="none" />
<path d="M221.2358921240736,-105.26005907306563 L-243.80113784554706,-24.20754397324425" stroke="#0d6d4d" stroke-width="0.1" fill="none" />
<path d="M222.2929231387165,-103.00901087984812 L-233.16206403693792,-75.23597473306806" stroke="#0d6d4d" stroke-width="0.1" fill="none" />
<path d="M223.3270507328638,-100.74734939918217 L-211.96868017132192,-122.8587751299346" stroke="#0d6d4d" stroke-width="0.1" fill="none" />
<path d="M224.33816835764824,-98.47530765595748 L-181.1803256052052,-164.92025228452638" stroke="#0d6d4d" stroke-width="0.1" fill="none" />
<path d="M225.32617183497996,-96.19311974456947 L-142.19066547694592,-199.51645208158465" stroke="#0d6d4d" stroke-width="0.1" fill="none" />
<path d="M226.29095936828006,-93.90102080479967 L-96.76460508411303,-225.08134352477026" stroke="#0d6d4d" stroke-width="0.1" fill="none" />
<path d="M227.23243155296896,-91.59924699758879 L-46.95839971006348,-240.45770666932242" stroke="#0d6d4d" stroke-width="0.1" fill="none" />
<path d="M228.15049138670835,-89.28803548070434 L4.973423793024355,-244.94951532055535" stroke="#0d6d4d" stroke-width="0.1" fill="none" />
<path d="M229.04504427939565,-86.9676243843057 L56.68012037860402,-238.3534433438438" stroke="#0d6d4d" stroke-width="0.1" fill="none" />
<path d="M229.91599806290972,-84.63825278640908 L105.82113559137902,-220.96806842200297" stroke="#0d6d4d" stroke-width="0.1" fill="none" />
<path d="M230.76326300060742,-82.30016068825441 L150.17205306578842,-193.5803566429353" stroke="#0d6d4d" stroke-width="0.1" fill="none" />
<path d="M231.58675179656908,-79.95358898957764 L187.72528491968225,-157.43003970597266" stroke="#0d6d4d" stroke-width="0.1" fill="none" />
<path d="M232.38637960459315,-77.59877946379014 L216.78094719352464,-114.15349724768966" stroke="#0d6d4d" stroke-width="0.1" fill="none" />
<path d="M233.16206403693795,-75.23597473306796 L236.02380676902735,-65.70968450888226" stroke="#0d6d4d" stroke-width="0.1" fill="none" />
<path d="M233.91372517281036,-72.86541824335423 L244.582816689293,-14.291458299687232" stroke="#0d6d4d" stroke-width="0.1" fill="none" />
<path d="M234.64128556660026,-70.4873542392758 L242.07054495567033,37.773684819789516" stroke="#0d6d4d" stroke-width="0.1" fill="none" />
<path d="M235.34467025585982,-68.10202773897855 L228.6007120180688,88.12896495949543" stroke="#0d6d4d" stroke-width="0.1" fill="none" />
<path d="M236.02380676902735,-65.70968450888226 L204.78304310699167,134.4950008581731" stroke="#0d6d4d" stroke-width="0.1" fill="none" />
<path d="M236.67862513289396,-63.31057103835857 L171.69566842153864,174.77298831707677" stroke="#0d6d4d" stroke-width="0.1" fill="none" />
<path d="M237.30905787981328,-60.9049345143349 L130.83632050600266,207.13970463542364" stroke="#0d6d4d" stroke-width="0.1" fill="none" />
<path d="M237.91504005465274,-58.49302279582569 L84.05453791378821,230.13003857840795" stroke="#0d6d4d" stroke-width="0.1" fill="none" />
<path d="M238.496509221486,-56.07508438839521 L33.46794402645664,242.70331007763772" stroke="#0d6d4d" stroke-width="0.1" fill="none" />
<path d="M239.05340547002604,-53.651368418553254 L-18.633609250537123,244.2903776375531" stroke="#0d6d4d" stroke-width="0.1" fill="none" />
<path d="M239.58567142179774,-51.22212460808677 L-69.89169388556465,234.81940108476243" stroke="#0d6d4d" stroke-width="0.1" fill="none" />
<path d="M240.09325223604986,-48.7876032483308 L-117.98606228431447,214.71909348411907" stroke="#0d6d4d" stroke-width="0.1" fill="none" />
<path d="M240.57609561540534,-46.34805517437985 L-160.73967557825156,184.89931502036032" stroke="#0d6d4d" stroke-width="0.1" fill="none" />
<path d="M241.03415181124953,-43.90373173924409 L-196.2172494293107,146.70988728233576" stroke="#0d6d4d" stroke-width="0.1" fill="none" />
<path d="M241.46737362885622,-41.45488478795161 L-222.812856578094,101.8794922617389" stroke="#0d6d4d" stroke-width="0.1" fill="none" />
<path d="M241.87571643225,-39.0017666316001 L-239.32262072010028,52.4374218632365" stroke="#0d6d4d" stroke-width="0.1" fill="none" />
<path d="M242.25913814880516,-36.54463002136064 L-244.9992111502147,0.6217200113470406" stroke="#0d6d4d" stroke-width="0.1" fill="none" />
<path d="M242.61759927358082,-34.083728122436284 L-239.58567142179777,-51.222124608086766" stroke="#0d6d4d" stroke-width="0.1" fill="none" />
<path d="M242.951062873391,-31.61931448797735 L-223.32705073286377,-100.74734939918221" stroke="#0d6d4d" stroke-width="0.1" fill="none" />
<path d="M243.25949459060996,-29.151643032957807 L-196.9593115332181,-145.71214637208777" stroke="#0d6d4d" stroke-width="0.1" fill="none" />
<path d="M243.5428626467123,-26.680968008013068 L-161.67601546062033,-184.08113978563162" stroke="#0d6d4d" stroke-width="0.1" fill="none" />
<path d="M243.80113784554706,-24.207543973244253 L-119.07429559982661,-214.11751943128127" stroke="#0d6d4d" stroke-width="0.1" fill="none" />
<path d="M244.03429357634587,-21.731625771990302 L-71.08256068331946,-234.46165905474228" stroke="#0d6d4d" stroke-width="0.1" fill="none" />
<path d="M244.24230581646478,-19.25346850457044 L-19.873203774158892,-244.19266117504588" stroke="#0d6d4d" stroke-width="0.1" fill="none" />
<path d="M244.4251531338594,-16.77332750200087 L32.235733241761054,-242.87004241438677" stroke="#0d6d4d" stroke-width="0.1" fill="none" />
<path d="M244.582816689293,-14.291458299687232 L82.8854881006101,-230.55367241127092" stroke="#0d6d4d" stroke-width="0.1" fill="none" />
<path d="M244.71528023827764,-11.808116611095915 L129.78334985346225,-207.80106376246925" stroke="#0d6d4d" stroke-width="0.1" fill="none" />
<path d="M244.82253013274791,-9.323558301407646 L170.8064406814291,-175.64213566721804" stroke="#0d6d4d" stroke-width="0.1" fill="none" />
<path d="M244.904555322467,-6.838039361154579 L204.0978100471946,-135.53259362212205" stroke="#0d6d4d" stroke-width="0.1" fill="none" />
<path d="M244.96134735616542,-4.35181587984531 L228.15049138670835,-89.28803548070434" stroke="#0d6d4d" stroke-width="0.1" fill="none" />
<path d="M244.99290038241156,-1.8651440195791382 L241.87571643225,-39.0017666316001" stroke="#0d6d4d" stroke-width="0.1" fill="none" />
<path d="M244.9992111502147,0.6217200113471438 L244.65219937846697,13.049955527849418" stroke="#0d6d4d" stroke-width="0.1" fill="none" />
<path d="M244.98027900936,3.1085199848366822 L236.35425999515803,64.51095862054171" stroke="#0d6d4d" stroke-width="0.1" fill="none" />
<path d="M244.93610591047533,5.59499967939279 L217.35751266645306,113.05180974868425" stroke="#0d6d4d" stroke-width="0.1" fill="none" />
<path d="M244.8666964048305,8.080902906518011 L188.52186383643814,156.4752595640457" stroke="#0d6d4d" stroke-width="0.1" fill="none" />
<path d="M244.77205764386812,10.565973537109508 L151.15258749856503,192.8157029198832" stroke="#0d6d4d" stroke-width="0.1" fill="none" />
<path d="M244.65219937846697,13.049955527849418 L106.94124068508488,220.4281539203528" stroke="#0d6d4d" stroke-width="0.1" fill="none" />
<path d="M244.50713395793719,15.532592947585016 L57.88909347496484,238.06270782431838" stroke="#0d6d4d" stroke-width="0.1" fill="none" />
<path d="M244.3368763287479,18.013630003698403 L6.216539536256892,244.92111921227652" stroke="#0d6d4d" stroke-width="0.1" fill="none" />
<path d="M244.14144403298747,20.492811068461315 L-45.7374121762196,240.69293535004843" stroke="#0d6d4d" stroke-width="0.1" fill="none" />
<path d="M243.9208572065557,22.969880705372976 L-95.62101496076576,225.56954913700787" stroke="#0d6d4d" stroke-width="0.1" fill="none" />
<path d="M243.6751385770895,25.444583695478748 L-141.17623849532472,200.23553551832697" stroke="#0d6d4d" stroke-width="0.1" fill="none" />
<path d="M243.40431346162111,27.91666506366568 L-180.34098079994604,165.83766352705737" stroke="#0d6d4d" stroke-width="0.1" fill="none" />
<path d="M243.10840976396955,30.385870104933222 L-211.34241131021884,123.93298665642772" stroke="#0d6d4d" stroke-width="0.1" fill="none" />
<path d="M242.78745797186568,32.85194441063657 L-232.7772197956919,76.41836130268786" stroke="#0d6d4d" stroke-width="0.1" fill="none" />
<path d="M242.44149115381094,35.31463389469871 L-243.6751385770895,25.444583695478805" stroke="#0d6d4d" stroke-width="0.1" fill="none" />
<path d="M242.07054495567033,37.773684819789516 L-243.5428626467123,-26.680968008013117" stroke="#0d6d4d" stroke-width="0.1" fill="none" />
<path d="M241.67465759699945,40.22884382346927 L-232.38637960459317,-77.59877946379008" stroke="#0d6d4d" stroke-width="0.1" fill="none" />
<path d="M241.25386986710697,42.6798579442929 L-210.71069862389493,-125.0040058775323" stroke="#0d6d4d" stroke-width="0.1" fill="none" />
<path d="M240.80822512085174,45.12647464787364 L-179.49699071419855,-166.75080307017095" stroke="#0d6d4d" stroke-width="0.1" fill="none" />
<path d="M240.33776927417608,47.56844185290192 L-140.15817505113597,-200.94946122429673" stroke="#0d6d4d" stroke-width="0.1" fill="none" />
<path d="M239.84255079937458,50.00550795711826 L-94.47496180082462,-226.05194445687198" stroke="#0d6d4d" stroke-width="0.1" fill="none" />
<path d="M239.32262072010028,52.43742186323644 L-44.51524652352887,-240.92196418539643" stroke="#0d6d4d" stroke-width="0.1" fill="none" />
<path d="M238.77803260610725,54.8639330048146 L7.459495151881786,-244.8864143477115" stroke="#0d6d4d" stroke-width="0.1" fill="none" />
<path d="M238.20884256773135,57.28479137207167 L59.09657544559695,-237.76584020965433" stroke="#0d6d4d" stroke-width="0.1" fill="none" />
<path d="M237.61510925010893,59.69974753764699 L108.05859115221307,-219.88256156002655" stroke="#0d6d4d" stroke-width="0.1" fill="none" />
<path d="M236.99689382713458,62.10855268229891 L152.12922849479511,-192.04608258847253" stroke="#0d6d4d" stroke-width="0.1" fill="none" />
<path d="M236.35425999515803,64.51095862054171 L189.31358674691177,-155.51644888248805" stroke="#0d6d4d" stroke-width="0.1" fill="none" />
<path d="M235.68727396642154,66.90671782621645 L217.92847937526193,-111.94721022511476" stroke="#0d6d4d" stroke-width="0.1" fill="none" />
<path d="M234.99600446223783,69.29558345799455 L236.67862513289396,-63.31057103835857" stroke="#0d6d4d" stroke-width="0.1" fill="none" />
<path d="M234.2805227059095,71.67730938481033 L244.71528023827764,-11.808116611095915" stroke="#0d6d4d" stroke-width="0.1" fill="none" />
<path d="M233.54090241539075,74.05165021122043 L241.67465759699945,40.22884382346927" stroke="#0d6d4d" stroke-width="0.1" fill="none" />
<path d="M232.77721979569188,76.41836130268788 L227.69439398224097,90.44480609222417" stroke="#0d6d4d" stroke-width="0.1" fill="none" />
<path d="M231.98955353102804,78.77719881078716 L203.40731977092616,136.56669529430738" stroke="#0d6d4d" stroke-width="0.1" fill="none" />
<path d="M231.1779847767118,81.12791969832836 L169.91281325455586,176.50675877122222" stroke="#0d6d4d" stroke-width="0.1" fill="none" />
<path d="M230.3425971507917,83.47028176439859 L128.7270362000126,208.45707028345342" stroke="#0d6d4d" stroke-width="0.1" fill="none" />
<path d="M229.4834767254369,85.80404366931586 L81.7143032966,230.97136756912374" stroke="#0d6d4d" stroke-width="0.1" fill="none" />
<path d="M228.6007120180688,88.12896495949543 L31.002692118769684,243.03051882713984" stroke="#0d6d4d" stroke-width="0.1" fill="none" />
<path d="M227.69439398224097,90.44480609222417 L-21.11228639746085,244.08865472010694" stroke="#0d6d4d" stroke-width="0.1" fill="none" />
<path d="M226.76461599826794,92.75132846034116 L-72.2715965138103,234.0978776865459" stroke="#0d6d4d" stroke-width="0.1" fill="none" />
<path d="M225.8114738636039,95.04829441682229 L-120.1594617616636,213.51043007110286" stroke="#0d6d4d" stroke-width="0.1" fill="none" />
<path d="M224.83506578297266,97.33546729926535 L-162.60819084062967,183.25822293020676" stroke="#0d6d4d" stroke-width="0.1" fill="none" />
<path d="M223.8354923582491,99.61261145427427 L-197.6963002963751,144.71065216191056" stroke="#0d6d4d" stroke-width="0.1" fill="none" />
<path d="M222.81285657809397,101.87949226173895 L-223.83549235824904,99.61261145427437" stroke="#0d6d4d" stroke-width="0.1" fill="none" />
<path d="M221.76726380734286,104.13587615900875 L-239.84255079937458,50.00550795711826" stroke="#0d6d4d" stroke-width="0.1" fill="none" />
<path d="M220.69882177615,106.38153066495694 L-244.99290038241156,-1.8651440195790783" stroke="#0d6d4d" stroke-width="0.1" fill="none" />
<path d="M219.60764056888866,108.6162244039343 L-239.053405470026,-53.651368418553304" stroke="#0d6d4d" stroke-width="0.1" fill="none" />
<path d="M218.49383261280866,110.83972712960798 L-222.29292313871653,-103.00901087984806" stroke="#0d6d4d" stroke-width="0.1" fill="none" />
<path d="M217.35751266645306,113.05180974868425 L-195.47013309892512,-147.70384919252612" stroke="#0d6d4d" stroke-width="0.1" fill="none" />
<path d="M216.19879780783393,115.25224434451304 L-159.7991953120645,-185.7127275595743" stroke="#0d6d4d" stroke-width="0.1" fill="none" />
<path d="M215.0178074223697,117.44080420057044 L-116.89478984618819,-215.31513673407983" stroke="#0d6d4d" stroke-width="0.1" fill="none" />
<path d="M213.81466319058455,119.617263823818 L-68.69902679527249,-235.17109456177312" stroke="#0d6d4d" stroke-width="0.1" fill="none" />
<path d="M212.58948907557118,121.781398967936 L-17.39353475646659,-244.3818015906168" stroke="#0d6d4d" stroke-width="0.1" fill="none" />
<path d="M211.34241131021886,123.93298665642763 L34.699292733178176,-242.53032611163744" stroke="#0d6d4d" stroke-width="0.1" fill="none" />
<path d="M210.07355838420705,126.07180520559366 L85.22142262337648,-229.70047698263025" stroke="#0d6d4d" stroke-width="0.1" fill="none" />
<path d="M208.783061030767,128.19763424737224 L131.88592103488003,-206.47300993781582" stroke="#0d6d4d" stroke-width="0.1" fill="none" />
<path d="M207.47105221321175,130.3102547520446 L172.58047356987277,-173.89933910857292" stroke="#0d6d4d" stroke-width="0.1" fill="none" />
<path d="M206.13766711123665,132.4094490508022 L205.46300129986565,-133.45394372910604" stroke="#0d6d4d" stroke-width="0.1" fill="none" />
<path d="M204.78304310699167,134.4950008581731 L229.04504427939565,-86.9676243843057" stroke="#0d6d4d" stroke-width="0.1" fill="none" />
<path d="M203.40731977092616,136.56669529430738 L242.25913814880516,-36.54463002136064" stroke="#0d6d4d" stroke-width="0.1" fill="none" />
<path d="M202.01063884740873,138.624318907116 L244.50713395793719,15.532592947585016" stroke="#0d6d4d" stroke-width="0.1" fill="none" />
<path d="M200.5931442401231,140.66765969426362 L235.68727396642154,66.90671782621645" stroke="#0d6d4d" stroke-width="0.1" fill="none" />
<path d="M199.1549819972411,142.6965071250119 L216.19879780783393,115.25224434451304" stroke="#0d6d4d" stroke-width="0.1" fill="none" />
<path d="M197.69630029637509,144.7106521619106 L186.9238705151779,158.3807647147374" stroke="#0d6d4d" stroke-width="0.1" fill="none" />
<path d="M196.21724942931075,146.7098872823357 L149.18765045338398,194.34002406143443" stroke="#0d6d4d" stroke-width="0.1" fill="none" />
<path d="M194.71798178652213,148.69400649987088 L104.69830472311968,221.50229115768707" stroke="#0d6d4d" stroke-width="0.1" fill="none" />
<path d="M193.19865184147056,150.6628053855305 L55.46968729762908,238.63803927937232" stroke="#0d6d4d" stroke-width="0.1" fill="none" />
<path d="M191.65941613468877,152.616081088823 L3.730179942755939,244.97160194111206" stroke="#0d6d4d" stroke-width="0.1" fill="none" />
<path d="M190.10043325765196,154.55363235865087 L-48.178177674473936,240.21628420231386" stroke="#0d6d4d" stroke-width="0.1" fill="none" />
<path d="M188.52186383643814,156.4752595640457 L-97.90570271390747,224.58734019551497" stroke="#0d6d4d" stroke-width="0.1" fill="none" />
<path d="M186.9238705151779,158.3807647147374 L-143.20142986606558,198.7922294364503" stroke="#0d6d4d" stroke-width="0.1" fill="none" />
<path d="M185.30661793929704,160.26995148155314 L-182.01500350986484,163.99859297354928" stroke="#0d6d4d" stroke-width="0.1" fill="none" />
<path d="M183.67027273855274,162.14262521664577 L-212.5894890755712,121.78139896793598" stroke="#0d6d4d" stroke-width="0.1" fill="none" />
<path d="M182.01500350986498,163.99859297354914 L-233.54090241539072,74.05165021122053" stroke="#0d6d4d" stroke-width="0.1" fill="none" />
<path d="M180.3409807999461,165.83766352705732 L-243.9208572065557,22.96988070537298" stroke="#0d6d4d" stroke-width="0.1" fill="none" />
<path d="M178.64837708772836,167.65964739292758 L-243.25949459060996,-29.15164303295775" stroke="#0d6d4d" stroke-width="0.1" fill="none" />
<path d="M176.93736676659321,169.4643568474034 L-231.58675179656905,-79.9535889895777" stroke="#0d6d4d" stroke-width="0.1" fill="none" />
<path d="M175.20812612640327,171.25160594655563 L-209.43100700281667,-127.13635713589626" stroke="#0d6d4d" stroke-width="0.1" fill="none" />
<path d="M173.4608333353383,173.02121054544148 L-177.79516177939584,-168.56417308502554" stroke="#0d6d4d" stroke-width="0.1" fill="none" />
<path d="M171.69566842153864,174.77298831707677 L-138.11124376246033,-202.36176601914272" stroke="#0d6d4d" stroke-width="0.1" fill="none" />
<path d="M169.91281325455586,176.50675877122222 L-92.17558451545496,-226.99925466669316" stroke="#0d6d4d" stroke-width="0.1" fill="none" />
<path d="M168.11245152661456,178.22234327297932 L-42.06750681487221,-241.36139888221703" stroke="#0d6d4d" stroke-width="0.1" fill="none" />
<path d="M166.29476873368608,179.91956506119578 L9.944797939469664,-244.79808208795902" stroke="#0d6d4d" stroke-width="0.1" fill="none" />
<path d="M164.4599521563763,181.59824926667775 L61.50694163806263,-237.15373943990838" stroke="#0d6d4d" stroke-width="0.1" fill="none" />
<path d="M162.6081908406298,183.25822293020664 L110.28491315415381,-218.77439962340372" stroke="#0d6d4d" stroke-width="0.1" fill="none" />
<path d="M160.73967557825162,184.89931502036026 L154.07072965203147,-190.49202152450016" stroke="#0d6d4d" stroke-width="0.1" fill="none" />
<path d="M158.85459888724978,186.52135645113398 L190.88238310081542,-153.58683479306922" stroke="#0d6d4d" stroke-width="0.1" fill="none" />
<path d="M156.95315499199944,188.12418009936255 L219.0535578165443,-109.72938898906652" stroke="#0d6d4d" stroke-width="0.1" fill="none" />
<path d="M155.03553980323187,189.7076208219388 L237.30905787981328,-60.9049345143349" stroke="#0d6d4d" stroke-width="0.1" fill="none" />
<path d="M153.10195089784852,191.2715154728293 L244.82253013274791,-9.323558301407646" stroke="#0d6d4d" stroke-width="0.1" fill="none" />
<path d="M151.15258749856503,192.8157029198832 L241.25386986710697,42.6798579442929" stroke="#0d6d4d" stroke-width="0.1" fill="none" />
<path d="M149.18765045338398,194.34002406143443 L226.76461599826794,92.75132846034116" stroke="#0d6d4d" stroke-width="0.1" fill="none" />
<path d="M147.2073422149016,195.84432184269437 L202.01063884740873,138.624318907116" stroke="#0d6d4d" stroke-width="0.1" fill="none" />
<path d="M145.2118668194481,197.3284412719334 L168.11245152661456,178.22234327297932" stroke="#0d6d4d" stroke-width="0.1" fill="none" />
<path d="M143.20142986606564,198.79222943645027 L126.60448881125039,209.7529580550462" stroke="#0d6d4d" stroke-width="0.1" fill="none" />
<path d="M141.17623849532487,200.2355355183269 L79.365649441307,231.78889897654625" stroke="#0d6d4d" stroke-width="0.1" fill="none" />
<path d="M139.13650136798242,201.65821080996784 L28.534245922735323,243.33268750749633" stroke="#0d6d4d" stroke-width="0.1" fill="none" />
<path d="M137.08242864348213,203.06010872942187 L-23.588788290372168,243.8617827110103" stroke="#0d6d4d" stroke-width="0.1" fill="none" />
<path d="M135.01423195830225,204.44108483548447 L-74.64405281069533,233.35223457253227" stroke="#0d6d4d" stroke-width="0.1" fill="none" />
<path d="M132.93212440414914,205.8009968425805 L-122.32048089581318,212.2797681207915" stroke="#0d6d4d" stroke-width="0.1" fill="none" />
<path d="M130.83632050600266,207.13970463542364 L-164.45995215637626,181.59824926667778" stroke="#0d6d4d" stroke-width="0.1" fill="none" />
<path d="M128.7270362000126,208.45707028345342 L-199.15498199724104,142.69650712501198" stroke="#0d6d4d" stroke-width="0.1" fill="none" />
<path d="M126.60448881125039,209.7529580550462 L-224.83506578297266,97.33546729926535" stroke="#0d6d4d" stroke-width="0.1" fill="none" />
<path d="M124.46889703131758,211.0272344315 L-240.33776927417605,47.568441852902026" stroke="#0d6d4d" stroke-width="0.1" fill="none" />
<path d="M122.32048089581323,212.27976812079146 L-244.96134735616542,-4.351815879845359" stroke="#0d6d4d" stroke-width="0.1" fill="none" />
<path d="M120.15946176166364,213.51043007110283 L-238.49650922148604,-56.075084388395155" stroke="#0d6d4d" stroke-width="0.1" fill="none" />
<path d="M117.9860622843146,214.71909348411899 L-221.2358921240736,-105.26005907306569" stroke="#0d6d4d" stroke-width="0.1" fill="none" />
<path d="M115.80050639479117,215.9056338280915 L-193.96081486625496,-149.68033369958246" stroke="#0d6d4d" stroke-width="0.1" fill="none" />
<path d="M113.60301927662519,217.06992885066953 L-157.9059106350232,-187.3251808661187" stroke="#0d6d4d" stroke-width="0.1" fill="none" />
<path d="M111.39382734265438,218.21185859149568 L-114.70324011702525,-216.49056955594176" stroke="#0d6d4d" stroke-width="0.1" fill="none" />
<path d="M109.17315821169392,219.33130539456616 L-66.30841466705411,-235.8562997766691" stroke="#0d6d4d" stroke-width="0.1" fill="none" />
<path d="M106.94124068508488,220.4281539203528 L-14.912073637456974,-244.5457627108494" stroke="#0d6d4d" stroke-width="0.1" fill="none" />
<path d="M104.69830472311968,221.50229115768707 L37.159277065831134,-242.16562127590447" stroke="#0d6d4d" stroke-width="0.1" fill="none" />
<path d="M102.44458142134896,222.5536064354038 L87.5485765603733,-228.82361491387303" stroke="#0d6d4d" stroke-width="0.1" fill="none" />
<path d="M100.18030298677107,223.58199143374392 L133.97490366537014,-205.1236826596451" stroke="#0d6d4d" stroke-width="0.1" fill="none" />
<path d="M97.90570271390763,224.5873401955149 L174.33672504134776,-172.13862524679783" stroke="#0d6d4d" stroke-width="0.1" fill="none" />
<path d="M95.62101496076582,225.56954913700784 L206.80702316284754,-131.36154372768857" stroke="#0d6d4d" stroke-width="0.1" fill="none" />
<path d="M93.32647512469241,226.52851705867005 L229.91599806290972,-84.63825278640908" stroke="#0d6d4d" stroke-width="0.1" fill="none" />
<path d="M91.0223196181199,227.46414515553175 L242.61759927358082,-34.083728122436284" stroke="#0d6d4d" stroke-width="0.1" fill="none" />
<path d="M88.70878584420876,228.37633702738626 L244.3368763287479,18.013630003698403" stroke="#0d6d4d" stroke-width="0.1" fill="none" />
<path d="M86.38611217238639,229.2649986887224 L234.99600446223783,69.29558345799455" stroke="#0d6d4d" stroke-width="0.1" fill="none" />
<path d="M84.05453791378821,230.13003857840795 L215.0178074223697,117.44080420057044" stroke="#0d6d4d" stroke-width="0.1" fill="none" />
<path d="M81.7143032966,230.97136756912374 L185.30661793929704,160.26995148155314" stroke="#0d6d4d" stroke-width="0.1" fill="none" />
<path d="M79.365649441307,231.78889897654625 L147.2073422149016,195.84432184269437" stroke="#0d6d4d" stroke-width="0.1" fill="none" />
<path d="M77.00881833585056,232.5825485682792 L102.44458142134896,222.5536064354038" stroke="#0d6d4d" stroke-width="0.1" fill="none" />
<path d="M74.64405281069538,233.35223457253227 L53.04456593352532,239.1887832339215" stroke="#0d6d4d" stroke-width="0.1" fill="none" />
<path d="M72.27159651381044,234.09787768654584 L1.2434360190723275,244.9968446059387" stroke="#0d6d4d" stroke-width="0.1" fill="none" />
<path d="M69.8916938855647,234.8194010847624 L-50.61397924924193,239.71488294337777" stroke="#0d6d4d" stroke-width="0.1" fill="none" />
<path d="M67.50459013354224,235.51673042674162 L-100.18030298677104,223.58199143374395" stroke="#0d6d4d" stroke-width="0.1" fill="none" />
<path d="M65.11053120727755,236.18979386481993 L-145.21186681944798,197.3284412719335" stroke="#0d6d4d" stroke-width="0.1" fill="none" />
<path d="M62.70976377291517,236.83852205151337 L-183.67027273855268,162.14262521664583" stroke="#0d6d4d" stroke-width="0.1" fill="none" />
<path d="M60.30253518779471,237.46284814666228 L-213.81466319058447,119.61726382381818" stroke="#0d6d4d" stroke-width="0.1" fill="none" />
<path d="M57.88909347496484,238.06270782431838 L-234.2805227059095,71.67730938481033" stroke="#0d6d4d" stroke-width="0.1" fill="none" />
<path d="M55.46968729762908,238.63803927937232 L-244.14144403298747,20.492811068461428" stroke="#0d6d4d" stroke-width="0.1" fill="none" />
<path d="M53.04456593352532,239.1887832339215 L-242.95106287339098,-31.619314487977398" stroke="#0d6d4d" stroke-width="0.1" fill="none" />
<path d="M50.61397924924198,239.71488294337775 L-230.76326300060745,-82.30016068825431" stroke="#0d6d4d" stroke-width="0.1" fill="none" />
<path d="M48.17817767447399,240.21628420231383 L-208.12973715805717,-129.2556092033071" stroke="#0d6d4d" stroke-width="0.1" fill="none" />
<path d="M45.73741217621976,240.6929353500484 L-176.07501414467777,-170.36017549284082" stroke="#0d6d4d" stroke-width="0.1" fill="none" />
<path d="M43.29193423292381,241.1447872759687 L-136.05008251159583,-203.753220952671" stroke="#0d6d4d" stroke-width="0.1" fill="none" />
<path d="M40.84199580856615,241.5717934245906 L-89.86671013885207,-227.92317655038846" stroke="#0d6d4d" stroke-width="0.1" fill="none" />
<path d="M38.38784932670177,241.97390980035522 L-39.615432781108716,-241.77596548367967" stroke="#0d6d4d" stroke-width="0.1" fill="none" />
<path d="M35.929747644452945,242.3510949721621 L12.429076088550225,-244.68452764240126" stroke="#0d6d4d" stroke-width="0.1" fill="none" />
<path d="M33.46794402645664,242.70331007763772 L63.91097060967643,-236.5172041009471" stroke="#0d6d4d" stroke-width="0.1" fill="none" />
<path d="M31.002692118769684,243.03051882713984 L112.49987221343028,-217.64369678895332" stroke="#0d6d4d" stroke-width="0.1" fill="none" />
<path d="M28.534245922735323,243.33268750749633 L155.99635649956207,-188.91833356998873" stroke="#0d6d4d" stroke-width="0.1" fill="none" />
<path d="M26.062859768812658,243.60978498547877 L192.43151234420722,-151.64139625089592" stroke="#0d6d4d" stroke-width="0.1" fill="none" />
<path d="M23.58878829037223,243.86178271101028 L220.15606659760135,-107.50026204745974" stroke="#0d6d4d" stroke-width="0.1" fill="none" />
<path d="M21.11228639746091,244.08865472010694 L237.91504005465274,-58.49302279582569" stroke="#0d6d4d" stroke-width="0.1" fill="none" />
<path d="M18.633609250537184,244.2903776375531 L244.904555322467,-6.838039361154579" stroke="#0d6d4d" stroke-width="0.1" fill="none" />
<path d="M16.153012234181762,244.4669306793096 L240.80822512085174,45.12647464787364" stroke="#0d6d4d" stroke-width="0.1" fill="none" />
<path d="M13.670750930784395,244.6182956546555 L225.8114738636039,95.04829441682229" stroke="#0d6d4d" stroke-width="0.1" fill="none" />
<path d="M11.187081094210903,244.744456968062 L200.5931442401231,140.66765969426362" stroke="#0d6d4d" stroke-width="0.1" fill="none" />
<path d="M8.702258623451948,244.8454016207994 L166.29476873368608,179.91956506119578" stroke="#0d6d4d" stroke-width="0.1" fill="none" />
<path d="M6.216539536256892,244.92111921227652 L124.46889703131758,211.0272344315" stroke="#0d6d4d" stroke-width="0.1" fill="none" />
<path d="M3.730179942755939,244.97160194111206 L77.00881833585056,232.5825485682792" stroke="#0d6d4d" stroke-width="0.1" fill="none" />
<path d="M1.2434360190723275,244.9968446059387 L26.062859768812658,243.60978498547877" stroke="#0d6d4d" stroke-width="0.1" fill="none" />
<path d="M-1.2434360190722675,244.9968446059387 L-26.062859768812594,243.6097849854788" stroke="#0d6d4d" stroke-width="0.1" fill="none" />
<path d="M-3.730179942755879,244.97160194111206 L-77.0088183358504,232.58254856827926" stroke="#0d6d4d" stroke-width="0.1" fill="none" />
<path d="M-6.216539536256833,244.92111921227652 L-124.46889703131752,211.02723443150006" stroke="#0d6d4d" stroke-width="0.1" fill="none" />
<path d="M-8.702258623451886,244.8454016207994 L-166.29476873368597,179.9195650611959" stroke="#0d6d4d" stroke-width="0.1" fill="none" />
<path d="M-11.187081094210841,244.744456968062 L-200.59314424012308,140.66765969426368" stroke="#0d6d4d" stroke-width="0.1" fill="none" />
<path d="M-13.670750930784335,244.6182956546555 L-225.81147386360388,95.04829441682239" stroke="#0d6d4d" stroke-width="0.1" fill="none" />
<path d="M-16.153012234181702,244.4669306793096 L-240.80822512085174,45.12647464787365" stroke="#0d6d4d" stroke-width="0.1" fill="none" />
<path d="M-18.633609250537123,244.2903776375531 L-244.904555322467,-6.838039361154465" stroke="#0d6d4d" stroke-width="0.1" fill="none" />
<path d="M-21.11228639746085,244.08865472010694 L-237.91504005465274,-58.49302279582568" stroke="#0d6d4d" stroke-width="0.1" fill="none" />
<path d="M-23.588788290372168,243.8617827110103 L-220.1560665976014,-107.50026204745963" stroke="#0d6d4d" stroke-width="0.1" fill="none" />
<path d="M-26.062859768812594,243.6097849854788 L-192.43151234420725,-151.6413962508959" stroke="#0d6d4d" stroke-width="0.1" fill="none" />
<path d="M-28.534245922735263,243.33268750749633 L-155.99635649956218,-188.91833356998868" stroke="#0d6d4d" stroke-width="0.1" fill="none" />
<path d="M-31.00269211876963,243.03051882713984 L-112.49987221343028,-217.64369678895332" stroke="#0d6d4d" stroke-width="0.1" fill="none" />
<path d="M-33.467944026456586,242.70331007763772 L-63.91097060967654,-236.51720410094708" stroke="#0d6d4d" stroke-width="0.1" fill="none" />
<path d="M-35.92974764445289,242.3510949721621 L-12.429076088550238,-244.68452764240126" stroke="#0d6d4d" stroke-width="0.1" fill="none" />
<path d="M-38.38784932670171,241.97390980035524 L39.615432781108716,-241.77596548367967" stroke="#0d6d4d" stroke-width="0.1" fill="none" />
<path d="M-40.84199580856599,241.57179342459062 L89.866710138852,-227.9231765503885" stroke="#0d6d4d" stroke-width="0.1" fill="none" />
<path d="M-43.29193423292375,241.14478727596872 L136.05008251159586,-203.75322095267097" stroke="#0d6d4d" stroke-width="0.1" fill="none" />
<path d="M-45.7374121762196,240.69293535004843 L176.0750141446777,-170.36017549284088" stroke="#0d6d4d" stroke-width="0.1" fill="none" />
<path d="M-48.178177674473936,240.21628420231386 L208.12973715805714,-129.25560920330713" stroke="#0d6d4d" stroke-width="0.1" fill="none" />
<path d="M-50.61397924924193,239.71488294337777 L230.76326300060742,-82.30016068825441" stroke="#0d6d4d" stroke-width="0.1" fill="none" />
<path d="M-53.04456593352528,239.1887832339215 L242.951062873391,-31.61931448797735" stroke="#0d6d4d" stroke-width="0.1" fill="none" />
<path d="M-55.46968729762913,238.63803927937232 L244.14144403298747,20.492811068461315" stroke="#0d6d4d" stroke-width="0.1" fill="none" />
<path d="M-57.88909347496478,238.0627078243184 L234.2805227059095,71.67730938481033" stroke="#0d6d4d" stroke-width="0.1" fill="none" />
<path d="M-60.30253518779477,237.46284814666225 L213.81466319058455,119.617263823818" stroke="#0d6d4d" stroke-width="0.1" fill="none" />
<path d="M-62.70976377291511,236.83852205151337 L183.67027273855274,162.14262521664577" stroke="#0d6d4d" stroke-width="0.1" fill="none" />
<path d="M-65.1105312072775,236.18979386481996 L145.2118668194481,197.3284412719334" stroke="#0d6d4d" stroke-width="0.1" fill="none" />
<path d="M-67.50459013354208,235.51673042674165 L100.18030298677107,223.58199143374392" stroke="#0d6d4d" stroke-width="0.1" fill="none" />
<path d="M-69.89169388556465,234.81940108476243 L50.61397924924198,239.71488294337775" stroke="#0d6d4d" stroke-width="0.1" fill="none" />
<path d="M-72.2715965138103,234.0978776865459 L-1.2434360190722675,244.9968446059387" stroke="#0d6d4d" stroke-width="0.1" fill="none" />
<path d="M-74.64405281069533,233.35223457253227 L-53.04456593352528,239.1887832339215" stroke="#0d6d4d" stroke-width="0.1" fill="none" />
<path d="M-77.0088183358504,232.58254856827926 L-102.4445814213488,222.55360643540385" stroke="#0d6d4d" stroke-width="0.1" fill="none" />
<path d="M-79.36564944130694,231.78889897654628 L-147.20734221490153,195.8443218426944" stroke="#0d6d4d" stroke-width="0.1" fill="none" />
<path d="M-81.71430329660005,230.97136756912374 L-185.30661793929693,160.26995148155325" stroke="#0d6d4d" stroke-width="0.1" fill="none" />
<path d="M-84.05453791378817,230.13003857840798 L-215.01780742236969,117.44080420057048" stroke="#0d6d4d" stroke-width="0.1" fill="none" />
<path d="M-86.38611217238645,229.26499868872236 L-234.9960044622378,69.2955834579947" stroke="#0d6d4d" stroke-width="0.1" fill="none" />
<path d="M-88.7087858442087,228.37633702738626 L-244.3368763287479,18.01363000369846" stroke="#0d6d4d" stroke-width="0.1" fill="none" />
<path d="M-91.02231961811995,227.46414515553175 L-242.61759927358085,-34.08372812243611" stroke="#0d6d4d" stroke-width="0.1" fill="none" />
<path d="M-93.32647512469225,226.5285170586701 L-229.91599806290975,-84.63825278640904" stroke="#0d6d4d" stroke-width="0.1" fill="none" />
<path d="M-95.62101496076576,225.56954913700787 L-206.80702316284763,-131.36154372768843" stroke="#0d6d4d" stroke-width="0.1" fill="none" />
<path d="M-97.90570271390747,224.58734019551497 L-174.33672504134782,-172.1386252467978" stroke="#0d6d4d" stroke-width="0.1" fill="none" />
<path d="M-100.18030298677104,223.58199143374395 L-133.97490366537025,-205.12368265964503" stroke="#0d6d4d" stroke-width="0.1" fill="none" />
<path d="M-102.4445814213488,222.55360643540385 L-87.54857656037333,-228.823614913873" stroke="#0d6d4d" stroke-width="0.1" fill="none" />
<path d="M-104.69830472311962,221.5022911576871 L-37.159277065831276,-242.16562127590447" stroke="#0d6d4d" stroke-width="0.1" fill="none" />
<path d="M-106.94124068508494,220.42815392035277 L14.912073637456883,-244.5457627108494" stroke="#0d6d4d" stroke-width="0.1" fill="none" />
<path d="M-109.17315821169386,219.3313053945662 L66.30841466705414,-235.8562997766691" stroke="#0d6d4d" stroke-width="0.1" fill="none" />
<path d="M-111.39382734265433,218.2118585914957 L114.70324011702517,-216.49056955594176" stroke="#0d6d4d" stroke-width="0.1" fill="none" />
<path d="M-113.60301927662513,217.06992885066953 L157.9059106350232,-187.32518086611867" stroke="#0d6d4d" stroke-width="0.1" fill="none" />
<path d="M-115.80050639479113,215.9056338280915 L193.9608148662549,-149.68033369958255" stroke="#0d6d4d" stroke-width="0.1" fill="none" />
<path d="M-117.98606228431447,214.71909348411907 L221.2358921240736,-105.26005907306563" stroke="#0d6d4d" stroke-width="0.1" fill="none" />
<path d="M-120.1594617616636,213.51043007110286 L238.496509221486,-56.07508438839521" stroke="#0d6d4d" stroke-width="0.1" fill="none" />
<path d="M-122.32048089581318,212.2797681207915 L244.96134735616542,-4.35181587984531" stroke="#0d6d4d" stroke-width="0.1" fill="none" />
<path d="M-124.46889703131752,211.02723443150006 L240.33776927417608,47.56844185290192" stroke="#0d6d4d" stroke-width="0.1" fill="none" />
<path d="M-126.60448881125045,209.75295805504618 L224.83506578297266,97.33546729926535" stroke="#0d6d4d" stroke-width="0.1" fill="none" />
<path d="M-128.72703620001255,208.45707028345345 L199.1549819972411,142.6965071250119" stroke="#0d6d4d" stroke-width="0.1" fill="none" />
<path d="M-130.83632050600272,207.1397046354236 L164.4599521563763,181.59824926667775" stroke="#0d6d4d" stroke-width="0.1" fill="none" />
<path d="M-132.93212440414908,205.8009968425805 L122.32048089581323,212.27976812079146" stroke="#0d6d4d" stroke-width="0.1" fill="none" />
<path d="M-135.01423195830222,204.4410848354845 L74.64405281069538,233.35223457253227" stroke="#0d6d4d" stroke-width="0.1" fill="none" />
<path d="M-137.0824286434821,203.0601087294219 L23.58878829037223,243.86178271101028" stroke="#0d6d4d" stroke-width="0.1" fill="none" />
<path d="M-139.13650136798236,201.65821080996787 L-28.534245922735263,243.33268750749633" stroke="#0d6d4d" stroke-width="0.1" fill="none" />
<path d="M-141.17623849532472,200.23553551832697 L-79.36564944130694,231.78889897654628" stroke="#0d6d4d" stroke-width="0.1" fill="none" />
<path d="M-143.20142986606558,198.7922294364503 L-126.60448881125045,209.75295805504618" stroke="#0d6d4d" stroke-width="0.1" fill="none" />
<path d="M-145.21186681944798,197.3284412719335 L-168.1124515266145,178.22234327297937" stroke="#0d6d4d" stroke-width="0.1" fill="none" />
<path d="M-147.20734221490153,195.8443218426944 L-202.01063884740861,138.62431890711616" stroke="#0d6d4d" stroke-width="0.1" fill="none" />
<path d="M-149.18765045338404,194.3400240614344 L-226.7646159982679,92.7513284603412" stroke="#0d6d4d" stroke-width="0.1" fill="none" />
<path d="M-151.152587498565,192.81570291988322 L-241.25386986710694,42.67985794429307" stroke="#0d6d4d" stroke-width="0.1" fill="none" />
<path d="M-153.10195089784858,191.27151547282926 L-244.82253013274791,-9.323558301407587" stroke="#0d6d4d" stroke-width="0.1" fill="none" />
<path d="M-155.0355398032318,189.70762082193883 L-237.30905787981334,-60.904934514334734" stroke="#0d6d4d" stroke-width="0.1" fill="none" />
<path d="M-156.95315499199947,188.12418009936252 L-219.05355781654433,-109.72938898906649" stroke="#0d6d4d" stroke-width="0.1" fill="none" />
<path d="M-158.85459888724964,186.5213564511341 L-190.88238310081553,-153.58683479306907" stroke="#0d6d4d" stroke-width="0.1" fill="none" />
<path d="M-160.73967557825156,184.89931502036032 L-154.0707296520315,-190.49202152450013" stroke="#0d6d4d" stroke-width="0.1" fill="none" />
<path d="M-162.60819084062967,183.25822293020676 L-110.28491315415394,-218.77439962340367" stroke="#0d6d4d" stroke-width="0.1" fill="none" />
<path d="M-164.45995215637626,181.59824926667778 L-61.50694163806266,-237.15373943990835" stroke="#0d6d4d" stroke-width="0.1" fill="none" />
<path d="M-166.29476873368597,179.9195650611959 L-9.944797939469817,-244.79808208795902" stroke="#0d6d4d" stroke-width="0.1" fill="none" />
<path d="M-168.1124515266145,178.22234327297937 L42.06750681487214,-241.36139888221703" stroke="#0d6d4d" stroke-width="0.1" fill="none" />
<path d="M-169.9128132545559,176.5067587712222 L92.175584515455,-226.99925466669316" stroke="#0d6d4d" stroke-width="0.1" fill="none" />
<path d="M-171.6956684215386,174.77298831707682 L138.11124376246025,-202.36176601914278" stroke="#0d6d4d" stroke-width="0.1" fill="none" />
<path d="M-173.46083333533832,173.02121054544145 L177.79516177939587,-168.56417308502554" stroke="#0d6d4d" stroke-width="0.1" fill="none" />
<path d="M-175.20812612640322,171.25160594655569 L209.4310070028166,-127.13635713589635" stroke="#0d6d4d" stroke-width="0.1" fill="none" />
<path d="M-176.93736676659321,169.4643568474034 L231.58675179656908,-79.95358898957764" stroke="#0d6d4d" stroke-width="0.1" fill="none" />
<path d="M-178.64837708772822,167.65964739292772 L243.25949459060996,-29.151643032957807" stroke="#0d6d4d" stroke-width="0.1" fill="none" />
<path d="M-180.34098079994604,165.83766352705737 L243.9208572065557,22.969880705372976" stroke="#0d6d4d" stroke-width="0.1" fill="none" />
<path d="M-182.01500350986484,163.99859297354928 L233.54090241539075,74.05165021122043" stroke="#0d6d4d" stroke-width="0.1" fill="none" />
<path d="M-183.67027273855268,162.14262521664583 L212.58948907557118,121.781398967936" stroke="#0d6d4d" stroke-width="0.1" fill="none" />
<path d="M-185.30661793929693,160.26995148155325 L182.01500350986498,163.99859297354914" stroke="#0d6d4d" stroke-width="0.1" fill="none" />
<path d="M-186.92387051517784,158.38076471473747 L143.20142986606564,198.79222943645027" stroke="#0d6d4d" stroke-width="0.1" fill="none" />
<path d="M-188.52186383643817,156.47525956404567 L97.90570271390763,224.5873401955149" stroke="#0d6d4d" stroke-width="0.1" fill="none" />
<path d="M-190.10043325765193,154.5536323586509 L48.17817767447399,240.21628420231383" stroke="#0d6d4d" stroke-width="0.1" fill="none" />
<path d="M-191.6594161346887,152.61608108882308 L-3.730179942755879,244.97160194111206" stroke="#0d6d4d" stroke-width="0.1" fill="none" />
<path d="M-193.19865184147045,150.66280538553065 L-55.46968729762913,238.63803927937232" stroke="#0d6d4d" stroke-width="0.1" fill="none" />
<path d="M-194.71798178652207,148.69400649987094 L-104.69830472311962,221.5022911576871" stroke="#0d6d4d" stroke-width="0.1" fill="none" />
<path d="M-196.2172494293107,146.70988728233576 L-149.18765045338404,194.3400240614344" stroke="#0d6d4d" stroke-width="0.1" fill="none" />
<path d="M-197.6963002963751,144.71065216191056 L-186.92387051517784,158.38076471473747" stroke="#0d6d4d" stroke-width="0.1" fill="none" />
<path d="M-199.15498199724104,142.69650712501198 L-216.19879780783396,115.25224434451299" stroke="#0d6d4d" stroke-width="0.1" fill="none" />
<path d="M-200.59314424012308,140.66765969426368 L-235.68727396642151,66.90671782621651" stroke="#0d6d4d" stroke-width="0.1" fill="none" />
<path d="M-202.01063884740861,138.62431890711616 L-244.50713395793716,15.532592947585183" stroke="#0d6d4d" stroke-width="0.1" fill="none" />
<path d="M-203.4073197709261,136.56669529430744 L-242.25913814880516,-36.544630021360575" stroke="#0d6d4d" stroke-width="0.1" fill="none" />
<path d="M-204.78304310699167,134.49500085817309 L-229.0450442793957,-86.96762438430555" stroke="#0d6d4d" stroke-width="0.1" fill="none" />
<path d="M-206.13766711123662,132.40944905080227 L-205.4630012998657,-133.45394372910596" stroke="#0d6d4d" stroke-width="0.1" fill="none" />
<path d="M-207.4710522132117,130.31025475204467 L-172.5804735698729,-173.89933910857283" stroke="#0d6d4d" stroke-width="0.1" fill="none" />
<path d="M-208.78306103076687,128.1976342473724 L-131.88592103488006,-206.4730099378158" stroke="#0d6d4d" stroke-width="0.1" fill="none" />
<path d="M-210.073558384207,126.07180520559375 L-85.22142262337663,-229.7004769826302" stroke="#0d6d4d" stroke-width="0.1" fill="none" />
<path d="M-211.34241131021884,123.93298665642772 L-34.69929273317824,-242.53032611163744" stroke="#0d6d4d" stroke-width="0.1" fill="none" />
<path d="M-212.5894890755712,121.78139896793598 L17.393534756466636,-244.38180159061676" stroke="#0d6d4d" stroke-width="0.1" fill="none" />
<path d="M-213.81466319058447,119.61726382381818 L68.69902679527245,-235.17109456177315" stroke="#0d6d4d" stroke-width="0.1" fill="none" />
<path d="M-215.01780742236969,117.44080420057048 L116.89478984618823,-215.31513673407983" stroke="#0d6d4d" stroke-width="0.1" fill="none" />
<path d="M-216.19879780783396,115.25224434451299 L159.79919531206446,-185.71272755957435" stroke="#0d6d4d" stroke-width="0.1" fill="none" />
<path d="M-217.35751266645303,113.0518097486843 L195.47013309892515,-147.7038491925261" stroke="#0d6d4d" stroke-width="0.1" fill="none" />
<path d="M-218.49383261280866,110.83972712960794 L222.2929231387165,-103.00901087984812" stroke="#0d6d4d" stroke-width="0.1" fill="none" />
<path d="M-219.60764056888857,108.61622440393444 L239.05340547002604,-53.651368418553254" stroke="#0d6d4d" stroke-width="0.1" fill="none" />
<path d="M-220.69882177614997,106.381530664957 L244.99290038241156,-1.8651440195791382" stroke="#0d6d4d" stroke-width="0.1" fill="none" />
<path d="M-221.76726380734277,104.1358761590089 L239.84255079937458,50.00550795711826" stroke="#0d6d4d" stroke-width="0.1" fill="none" />
<path d="M-222.812856578094,101.8794922617389 L223.8354923582491,99.61261145427427" stroke="#0d6d4d" stroke-width="0.1" fill="none" />
<path d="M-223.83549235824904,99.61261145427437 L197.69630029637509,144.7106521619106" stroke="#0d6d4d" stroke-width="0.1" fill="none" />
<path d="M-224.83506578297266,97.33546729926535 L162.6081908406298,183.25822293020664" stroke="#0d6d4d" stroke-width="0.1" fill="none" />
<path d="M-225.81147386360388,95.04829441682239 L120.15946176166364,213.51043007110283" stroke="#0d6d4d" stroke-width="0.1" fill="none" />
<path d="M-226.7646159982679,92.7513284603412 L72.27159651381044,234.09787768654584" stroke="#0d6d4d" stroke-width="0.1" fill="none" />
<path d="M-227.694393982241,90.44480609222413 L21.11228639746091,244.08865472010694" stroke="#0d6d4d" stroke-width="0.1" fill="none" />
<path d="M-228.60071201806875,88.12896495949553 L-31.00269211876963,243.03051882713984" stroke="#0d6d4d" stroke-width="0.1" fill="none" />
<path d="M-229.4834767254369,85.80404366931586 L-81.71430329660005,230.97136756912374" stroke="#0d6d4d" stroke-width="0.1" fill="none" />
<path d="M-230.34259715079165,83.47028176439868 L-128.72703620001255,208.45707028345345" stroke="#0d6d4d" stroke-width="0.1" fill="none" />
<path d="M-231.17798477671178,81.1279196983284 L-169.9128132545559,176.5067587712222" stroke="#0d6d4d" stroke-width="0.1" fill="none" />
<path d="M-231.98955353102804,78.7771988107871 L-203.4073197709261,136.56669529430744" stroke="#0d6d4d" stroke-width="0.1" fill="none" />
<path d="M-232.7772197956919,76.41836130268786 L-227.694393982241,90.44480609222413" stroke="#0d6d4d" stroke-width="0.1" fill="none" />
<path d="M-233.54090241539072,74.05165021122053 L-241.67465759699942,40.228843823469326" stroke="#0d6d4d" stroke-width="0.1" fill="none" />
<path d="M-234.2805227059095,71.67730938481033 L-244.71528023827767,-11.808116611095747" stroke="#0d6d4d" stroke-width="0.1" fill="none" />
<path d="M-234.9960044622378,69.2955834579947 L-236.67862513289398,-63.31057103835851" stroke="#0d6d4d" stroke-width="0.1" fill="none" />
<path d="M-235.68727396642151,66.90671782621651 L-217.928479375262,-111.94721022511462" stroke="#0d6d4d" stroke-width="0.1" fill="none" />
<path d="M-236.35425999515803,64.51095862054167 L-189.31358674691182,-155.516448882488" stroke="#0d6d4d" stroke-width="0.1" fill="none" />
<path d="M-236.99689382713456,62.10855268229901 L-152.12922849479526,-192.04608258847242" stroke="#0d6d4d" stroke-width="0.1" fill="none" />
<path d="M-237.61510925010893,59.699747537647 L-108.05859115221313,-219.88256156002652" stroke="#0d6d4d" stroke-width="0.1" fill="none" />
<path d="M-238.2088425677313,57.28479137207184 L-59.096575445597125,-237.76584020965427" stroke="#0d6d4d" stroke-width="0.1" fill="none" />
<path d="M-238.77803260610722,54.86393300481466 L-7.459495151881862,-244.8864143477115" stroke="#0d6d4d" stroke-width="0.1" fill="none" />
<path d="M-239.32262072010028,52.4374218632365 L44.51524652352893,-240.92196418539643" stroke="#0d6d4d" stroke-width="0.1" fill="none" />
<path d="M-239.84255079937458,50.00550795711826 L94.47496180082459,-226.05194445687198" stroke="#0d6d4d" stroke-width="0.1" fill="none" />
<path d="M-240.33776927417605,47.568441852902026 L140.158175051136,-200.94946122429667" stroke="#0d6d4d" stroke-width="0.1" fill="none" />
<path d="M-240.80822512085174,45.12647464787365 L179.49699071419846,-166.750803070171" stroke="#0d6d4d" stroke-width="0.1" fill="none" />
<path d="M-241.25386986710694,42.67985794429307 L210.71069862389496,-125.0040058775323" stroke="#0d6d4d" stroke-width="0.1" fill="none" />
<path d="M-241.67465759699942,40.228843823469326 L232.38637960459315,-77.59877946379014" stroke="#0d6d4d" stroke-width="0.1" fill="none" />
<path d="M-242.07054495567033,37.773684819789516 L243.5428626467123,-26.680968008013068" stroke="#0d6d4d" stroke-width="0.1" fill="none" />
<path d="M-242.44149115381094,35.31463389469882 L243.6751385770895,25.444583695478748" stroke="#0d6d4d" stroke-width="0.1" fill="none" />
<path d="M-242.78745797186568,32.85194441063663 L232.77721979569188,76.41836130268788" stroke="#0d6d4d" stroke-width="0.1" fill="none" />
<path d="M-243.10840976396955,30.38587010493339 L211.34241131021886,123.93298665642763" stroke="#0d6d4d" stroke-width="0.1" fill="none" />
<path d="M-243.4043134616211,27.91666506366574 L180.3409807999461,165.83766352705732" stroke="#0d6d4d" stroke-width="0.1" fill="none" />
<path d="M-243.6751385770895,25.444583695478805 L141.17623849532487,200.2355355183269" stroke="#0d6d4d" stroke-width="0.1" fill="none" />
<path d="M-243.9208572065557,22.96988070537298 L95.62101496076582,225.56954913700784" stroke="#0d6d4d" stroke-width="0.1" fill="none" />
<path d="M-244.14144403298747,20.492811068461428 L45.73741217621976,240.6929353500484" stroke="#0d6d4d" stroke-width="0.1" fill="none" />
<path d="M-244.3368763287479,18.01363000369846 L-6.216539536256833,244.92111921227652" stroke="#0d6d4d" stroke-width="0.1" fill="none" />
<path d="M-244.50713395793716,15.532592947585183 L-57.88909347496478,238.0627078243184" stroke="#0d6d4d" stroke-width="0.1" fill="none" />
<path d="M-244.65219937846695,13.049955527849477 L-106.94124068508494,220.42815392035277" stroke="#0d6d4d" stroke-width="0.1" fill="none" />
<path d="M-244.77205764386812,10.565973537109514 L-151.152587498565,192.81570291988322" stroke="#0d6d4d" stroke-width="0.1" fill="none" />
<path d="M-244.8666964048305,8.080902906518125 L-188.52186383643817,156.47525956404567" stroke="#0d6d4d" stroke-width="0.1" fill="none" />
<path d="M-244.93610591047533,5.594999679392905 L-217.35751266645303,113.0518097486843" stroke="#0d6d4d" stroke-width="0.1" fill="none" />
<path d="M-244.98027900936,3.108519984836688 L-236.35425999515803,64.51095862054167" stroke="#0d6d4d" stroke-width="0.1" fill="none" />
<path d="M-244.9992111502147,0.6217200113470406 L-244.65219937846695,13.049955527849477" stroke="#0d6d4d" stroke-width="0.1" fill="none" />
<path d="M-244.99290038241156,-1.8651440195790783 L-241.87571643225004,-39.00176663159987" stroke="#0d6d4d" stroke-width="0.1" fill="none" />
<path d="M-244.96134735616542,-4.351815879845359 L-228.15049138670838,-89.28803548070424" stroke="#0d6d4d" stroke-width="0.1" fill="none" />
<path d="M-244.904555322467,-6.838039361154465 L-204.0978100471947,-135.53259362212185" stroke="#0d6d4d" stroke-width="0.1" fill="none" />
<path d="M-244.82253013274791,-9.323558301407587 L-170.80644068142917,-175.64213566721799" stroke="#0d6d4d" stroke-width="0.1" fill="none" />
<path d="M-244.71528023827767,-11.808116611095747 L-129.78334985346243,-207.80106376246917" stroke="#0d6d4d" stroke-width="0.1" fill="none" />
<path d="M-244.582816689293,-14.291458299687118 L-82.88548810061019,-230.5536724112709" stroke="#0d6d4d" stroke-width="0.1" fill="none" />
<path d="M-244.4251531338594,-16.773327502000868 L-32.23573324176125,-242.87004241438675" stroke="#0d6d4d" stroke-width="0.1" fill="none" />
<path d="M-244.2423058164648,-19.25346850457027 L19.873203774158863,-244.19266117504588" stroke="#0d6d4d" stroke-width="0.1" fill="none" />
<path d="M-244.0342935763459,-21.731625771990192 L71.08256068331954,-234.46165905474226" stroke="#0d6d4d" stroke-width="0.1" fill="none" />
<path d="M-243.80113784554706,-24.20754397324425 L119.07429559982658,-214.1175194312813" stroke="#0d6d4d" stroke-width="0.1" fill="none" />
<path d="M-243.5428626467123,-26.680968008013117 L161.67601546062042,-184.08113978563154" stroke="#0d6d4d" stroke-width="0.1" fill="none" />
<path d="M-243.25949459060996,-29.15164303295775 L196.95931153321808,-145.71214637208777" stroke="#0d6d4d" stroke-width="0.1" fill="none" />
<path d="M-242.95106287339098,-31.619314487977398 L223.3270507328638,-100.74734939918217" stroke="#0d6d4d" stroke-width="0.1" fill="none" />
<path d="M-242.61759927358085,-34.08372812243611 L239.58567142179774,-51.22212460808677" stroke="#0d6d4d" stroke-width="0.1" fill="none" />
<path d="M-242.25913814880516,-36.544630021360575 L244.9992111502147,0.6217200113471438" stroke="#0d6d4d" stroke-width="0.1" fill="none" />
<path d="M-241.87571643225004,-39.00176663159987 L239.32262072010028,52.43742186323644" stroke="#0d6d4d" stroke-width="0.1" fill="none" />
<path d="M-241.46737362885625,-41.45488478795149 L222.81285657809397,101.87949226173895" stroke="#0d6d4d" stroke-width="0.1" fill="none" />
<path d="M-241.03415181124956,-43.90373173924408 L196.21724942931075,146.7098872823357" stroke="#0d6d4d" stroke-width="0.1" fill="none" />
<path d="M-240.57609561540534,-46.34805517437968 L160.73967557825162,184.89931502036026" stroke="#0d6d4d" stroke-width="0.1" fill="none" />
<path d="M-240.0932522360499,-48.78760324833069 L117.9860622843146,214.71909348411899" stroke="#0d6d4d" stroke-width="0.1" fill="none" />
<path d="M-239.58567142179777,-51.222124608086766 L69.8916938855647,234.8194010847624" stroke="#0d6d4d" stroke-width="0.1" fill="none" />
<path d="M-239.053405470026,-53.651368418553304 L18.633609250537184,244.2903776375531" stroke="#0d6d4d" stroke-width="0.1" fill="none" />
<path d="M-238.49650922148604,-56.075084388395155 L-33.467944026456586,242.70331007763772" stroke="#0d6d4d" stroke-width="0.1" fill="none" />
<path d="M-237.91504005465274,-58.49302279582568 L-84.05453791378817,230.13003857840798" stroke="#0d6d4d" stroke-width="0.1" fill="none" />
<path d="M-237.30905787981334,-60.904934514334734 L-130.83632050600272,207.1397046354236" stroke="#0d6d4d" stroke-width="0.1" fill="none" />
<path d="M-236.67862513289398,-63.31057103835851 L-171.6956684215386,174.77298831707682" stroke="#0d6d4d" stroke-width="0.1" fill="none" />
<path d="M-236.02380676902735,-65.70968450888226 L-204.78304310699167,134.49500085817309" stroke="#0d6d4d" stroke-width="0.1" fill="none" />
<path d="M-235.34467025585988,-68.10202773897844 L-228.60071201806875,88.12896495949553" stroke="#0d6d4d" stroke-width="0.1" fill="none" />
<path d="M-234.6412855666003,-70.48735423927575 L-242.07054495567033,37.773684819789516" stroke="#0d6d4d" stroke-width="0.1" fill="none" />
<path d="M-233.91372517281044,-72.86541824335403 L-244.582816689293,-14.291458299687118" stroke="#0d6d4d" stroke-width="0.1" fill="none" />
<path d="M-233.16206403693792,-75.23597473306806 L-236.02380676902735,-65.70968450888226" stroke="#0d6d4d" stroke-width="0.1" fill="none" />
<path d="M-232.38637960459317,-77.59877946379008 L-216.78094719352467,-114.15349724768956" stroke="#0d6d4d" stroke-width="0.1" fill="none" />
<path d="M-231.58675179656905,-79.9535889895777 L-187.7252849196824,-157.43003970597246" stroke="#0d6d4d" stroke-width="0.1" fill="none" />
<path d="M-230.76326300060745,-82.30016068825431 L-150.1720530657885,-193.58035664293524" stroke="#0d6d4d" stroke-width="0.1" fill="none" />
<path d="M-229.91599806290975,-84.63825278640904 L-105.8211355913792,-220.96806842200286" stroke="#0d6d4d" stroke-width="0.1" fill="none" />
<path d="M-229.0450442793957,-86.96762438430555 L-56.68012037860413,-238.3534433438438" stroke="#0d6d4d" stroke-width="0.1" fill="none" />
<path d="M-228.15049138670838,-89.28803548070424 L-4.973423793024572,-244.94951532055532" stroke="#0d6d4d" stroke-width="0.1" fill="none" />
<path d="M-227.23243155296896,-91.59924699758879 L46.95839971006347,-240.45770666932242" stroke="#0d6d4d" stroke-width="0.1" fill="none" />
<path d="M-226.2909593682801,-93.90102080479956 L96.76460508411313,-225.08134352477023" stroke="#0d6d4d" stroke-width="0.1" fill="none" />
<path d="M-225.32617183498,-96.19311974456942 L142.19066547694592,-199.51645208158465" stroke="#0d6d4d" stroke-width="0.1" fill="none" />
<path d="M-224.33816835764824,-98.47530765595748 L181.18032560520524,-164.92025228452633" stroke="#0d6d4d" stroke-width="0.1" fill="none" />
<path d="M-223.32705073286377,-100.74734939918221 L211.96868017132192,-122.85877512993463" stroke="#0d6d4d" stroke-width="0.1" fill="none" />
<path d="M-222.29292313871653,-103.00901087984806 L233.16206403693795,-75.23597473306796" stroke="#0d6d4d" stroke-width="0.1" fill="none" />
<path d="M-221.2358921240736,-105.26005907306569 L243.80113784554706,-24.207543973244253" stroke="#0d6d4d" stroke-width="0.1" fill="none" />
<path d="M-220.1560665976014,-107.50026204745963 L243.40431346162111,27.91666506366568" stroke="#0d6d4d" stroke-width="0.1" fill="none" />
<path d="M-219.05355781654433,-109.72938898906649 L231.98955353102804,78.77719881078716" stroke="#0d6d4d" stroke-width="0.1" fill="none" />
<path d="M-217.928479375262,-111.94721022511462 L210.07355838420705,126.07180520559366" stroke="#0d6d4d" stroke-width="0.1" fill="none" />
<path d="M-216.78094719352467,-114.15349724768956 L178.64837708772836,167.65964739292758" stroke="#0d6d4d" stroke-width="0.1" fill="none" />
<path d="M-215.61107950457048,-116.34802273727641 L139.13650136798242,201.65821080996784" stroke="#0d6d4d" stroke-width="0.1" fill="none" />
<path d="M-214.41899684292318,-118.53056058618172 L93.32647512469241,226.52851705867005" stroke="#0d6d4d" stroke-width="0.1" fill="none" />
<path d="M-213.2048220319729,-120.70088592183058 L43.29193423292381,241.1447872759687" stroke="#0d6d4d" stroke-width="0.1" fill="none" />
<path d="M-211.96868017132192,-122.8587751299346 L-8.702258623451886,244.8454016207994" stroke="#0d6d4d" stroke-width="0.1" fill="none" />
<path d="M-210.71069862389493,-125.0040058775323 L-60.30253518779477,237.46284814666225" stroke="#0d6d4d" stroke-width="0.1" fill="none" />
<path d="M-209.43100700281667,-127.13635713589626 L-109.17315821169386,219.3313053945662" stroke="#0d6d4d" stroke-width="0.1" fill="none" />
<path d="M-208.12973715805717,-129.2556092033071 L-153.10195089784858,191.27151547282926" stroke="#0d6d4d" stroke-width="0.1" fill="none" />
<path d="M-206.80702316284763,-131.36154372768843 L-190.10043325765193,154.5536323586509" stroke="#0d6d4d" stroke-width="0.1" fill="none" />
<path d="M-205.4630012998657,-133.45394372910596 L-218.49383261280866,110.83972712960794" stroke="#0d6d4d" stroke-width="0.1" fill="none" />
<path d="M-204.0978100471947,-135.53259362212185 L-236.99689382713456,62.10855268229901" stroke="#0d6d4d" stroke-width="0.1" fill="none" />
<path d="M-202.71159006405503,-137.59727923800858 L-244.77205764386812,10.565973537109514" stroke="#0d6d4d" stroke-width="0.1" fill="none" />
<path d="M-201.30448417631237,-139.64778784681408 L-241.46737362885625,-41.45488478795149" stroke="#0d6d4d" stroke-width="0.1" fill="none" />
<path d="M-199.87663736176188,-141.6839081792803 L-227.23243155296896,-91.59924699758879" stroke="#0d6d4d" stroke-width="0.1" fill="none" />
<path d="M-198.42819673519008,-143.70543044861145 L-202.71159006405503,-137.59727923800858" stroke="#0d6d4d" stroke-width="0.1" fill="none" />
<path d="M-196.9593115332181,-145.71214637208777 L-169.01480915925904,-177.36683535785164" stroke="#0d6d4d" stroke-width="0.1" fill="none" />
<path d="M-195.47013309892512,-147.70384919252612 L-127.66740675451767,-209.10770730075097" stroke="#0d6d4d" stroke-width="0.1" fill="none" />
<path d="M-193.96081486625496,-149.68033369958246 L-80.5410136695097,-231.38311329284136" stroke="#0d6d4d" stroke-width="0.1" fill="none" />
<path d="M-192.43151234420725,-151.6413962508959 L-29.768852418549056,-243.18473518229436" stroke="#0d6d4d" stroke-width="0.1" fill="none" />
<path d="M-190.88238310081553,-153.58683479306907 L22.35082520375782,-243.97836095176774" stroke="#0d6d4d" stroke-width="0.1" fill="none" />
<path d="M-189.31358674691182,-155.516448882488 L73.45877074947319,-233.72806635056975" stroke="#0d6d4d" stroke-width="0.1" fill="none" />
<path d="M-187.7252849196824,-157.43003970597246 L121.24153281776958,-212.89784104118507" stroke="#0d6d4d" stroke-width="0.1" fill="none" />
<path d="M-186.11764126601287,-159.32741010126207 L163.53617770700893,-182.43058565104042" stroke="#0d6d4d" stroke-width="0.1" fill="none" />
<path d="M-184.4908214256281,-161.20836457732895 L198.42819673519,-143.70543044861157" stroke="#0d6d4d" stroke-width="0.1" fill="none" />
<path d="M-182.8449930140255,-163.07270933452037 L224.33816835764824,-98.47530765595748" stroke="#0d6d4d" stroke-width="0.1" fill="none" />
<path d="M-181.1803256052052,-164.92025228452638 L240.09325223604986,-48.7876032483308" stroke="#0d6d4d" stroke-width="0.1" fill="none" />
<path d="M-179.49699071419855,-166.75080307017095 L244.98027900936,3.1085199848366822" stroke="#0d6d4d" stroke-width="0.1" fill="none" />
<path d="M-177.79516177939584,-168.56417308502554 L238.77803260610725,54.8639330048146" stroke="#0d6d4d" stroke-width="0.1" fill="none" />
<path d="M-176.07501414467777,-170.36017549284082 L221.76726380734286,104.13587615900875" stroke="#0d6d4d" stroke-width="0.1" fill="none" />
<path d="M-174.33672504134782,-172.1386252467978 L194.71798178652213,148.69400649987088" stroke="#0d6d4d" stroke-width="0.1" fill="none" />
<path d="M-172.5804735698729,-173.89933910857283 L158.85459888724978,186.52135645113398" stroke="#0d6d4d" stroke-width="0.1" fill="none" />
<path d="M-170.80644068142917,-175.64213566721799 L115.80050639479117,215.9056338280915" stroke="#0d6d4d" stroke-width="0.1" fill="none" />
<path d="M-169.01480915925904,-177.36683535785164 L67.50459013354224,235.51673042674162" stroke="#0d6d4d" stroke-width="0.1" fill="none" />
<path d="M-167.20576359983804,-179.07326048015958 L16.153012234181762,244.4669306793096" stroke="#0d6d4d" stroke-width="0.1" fill="none" />
<path d="M-165.3794903938551,-180.76123521670456 L-35.92974764445289,242.3510949721621" stroke="#0d6d4d" stroke-width="0.1" fill="none" />
<path d="M-163.53617770700893,-182.43058565104042 L-86.38611217238645,229.26499868872236" stroke="#0d6d4d" stroke-width="0.1" fill="none" />
<path d="M-161.67601546062033,-184.08113978563162 L-132.93212440414908,205.8009968425805" stroke="#0d6d4d" stroke-width="0.1" fill="none" />
<path d="M-159.7991953120645,-185.7127275595743 L-173.46083333533832,173.02121054544145" stroke="#0d6d4d" stroke-width="0.1" fill="none" />
<path d="M-157.9059106350232,-187.3251808661187 L-206.13766711123662,132.40944905080227" stroke="#0d6d4d" stroke-width="0.1" fill="none" />
<path d="M-155.99635649956218,-188.91833356998868 L-229.4834767254369,85.80404366931586" stroke="#0d6d4d" stroke-width="0.1" fill="none" />
<path d="M-154.0707296520315,-190.49202152450013 L-242.44149115381094,35.31463389469882" stroke="#0d6d4d" stroke-width="0.1" fill="none" />
<path d="M-152.12922849479526,-192.04608258847242 L-244.4251531338594,-16.773327502000868" stroke="#0d6d4d" stroke-width="0.1" fill="none" />
<path d="M-150.1720530657885,-193.58035664293524 L-235.34467025585988,-68.10202773897844" stroke="#0d6d4d" stroke-width="0.1" fill="none" />
<path d="M-148.199405017908,-195.09468560762508 L-215.61107950457048,-116.34802273727641" stroke="#0d6d4d" stroke-width="0.1" fill="none" />
<path d="M-146.21148759823475,-196.5889134572732 L-186.11764126601287,-159.32741010126207" stroke="#0d6d4d" stroke-width="0.1" fill="none" />
<path d="M-144.2085056270926,-198.06288623768162 L-148.199405017908,-195.09468560762508" stroke="#0d6d4d" stroke-width="0.1" fill="none" />
<path d="M-142.19066547694592,-199.51645208158465 L-103.57277700254241,-222.03080836672558" stroke="#0d6d4d" stroke-width="0.1" fill="none" />
<path d="M-140.15817505113597,-200.94946122429673 L-54.25782541076139,-238.91648830019105" stroke="#0d6d4d" stroke-width="0.1" fill="none" />
<path d="M-138.11124376246033,-202.36176601914272 L-2.4868400093231844,-244.98737850503244" stroke="#0d6d4d" stroke-width="0.1" fill="none" />
<path d="M-136.05008251159583,-203.753220952671 L49.39671465002147,-239.96867416765954" stroke="#0d6d4d" stroke-width="0.1" fill="none" />
<path d="M-133.97490366537025,-205.12368265964503 L99.04427845739261,-224.08755187393717" stroke="#0d6d4d" stroke-width="0.1" fill="none" />
<path d="M-131.88592103488006,-206.4730099378158 L144.20850562709253,-198.06288623768168" stroke="#0d6d4d" stroke-width="0.1" fill="none" />
<path d="M-129.78334985346243,-207.80106376246917 L182.84499301402553,-163.07270933452034" stroke="#0d6d4d" stroke-width="0.1" fill="none" />
<path d="M-127.66740675451767,-209.10770730075097 L213.20482203197287,-120.70088592183065" stroke="#0d6d4d" stroke-width="0.1" fill="none" />
<path d="M-125.53830974919028,-210.39280592576438 L233.91372517281036,-72.86541824335423" stroke="#0d6d4d" stroke-width="0.1" fill="none" />
<path d="M-123.39627820390587,-211.65622723044146 L244.03429357634587,-21.731625771990302" stroke="#0d6d4d" stroke-width="0.1" fill="none" />
<path d="M-121.24153281776948,-212.89784104118513 L243.10840976396955,30.385870104933222" stroke="#0d6d4d" stroke-width="0.1" fill="none" />
<path d="M-119.07429559982661,-214.11751943128127 L231.1779847767118,81.12791969832836" stroke="#0d6d4d" stroke-width="0.1" fill="none" />
<path d="M-116.89478984618819,-215.31513673407983 L208.783061030767,128.19763424737224" stroke="#0d6d4d" stroke-width="0.1" fill="none" />
<path d="M-114.70324011702525,-216.49056955594176 L176.93736676659321,169.4643568474034" stroke="#0d6d4d" stroke-width="0.1" fill="none" />
<path d="M-112.49987221343028,-217.64369678895332 L137.08242864348213,203.06010872942187" stroke="#0d6d4d" stroke-width="0.1" fill="none" />
<path d="M-110.28491315415394,-218.77439962340367 L91.0223196181199,227.46414515553175" stroke="#0d6d4d" stroke-width="0.1" fill="none" />
<path d="M-108.05859115221313,-219.88256156002652 L40.84199580856615,241.5717934245906" stroke="#0d6d4d" stroke-width="0.1" fill="none" />
<path d="M-105.8211355913792,-220.96806842200286 L-11.187081094210841,244.744456968062" stroke="#0d6d4d" stroke-width="0.1" fill="none" />
<path d="M-103.57277700254241,-222.03080836672558 L-62.70976377291511,236.83852205151337" stroke="#0d6d4d" stroke-width="0.1" fill="none" />
<path d="M-101.31374703996102,-223.07067189732223 L-111.39382734265433,218.2118585914957" stroke="#0d6d4d" stroke-width="0.1" fill="none" />
<path d="M-99.0442784573926,-224.08755187393717 L-155.0355398032318,189.70762082193883" stroke="#0d6d4d" stroke-width="0.1" fill="none" />
<path d="M-96.76460508411303,-225.08134352477026 L-191.6594161346887,152.61608108882308" stroke="#0d6d4d" stroke-width="0.1" fill="none" />
<path d="M-94.47496180082462,-226.05194445687198 L-219.60764056888857,108.61622440393444" stroke="#0d6d4d" stroke-width="0.1" fill="none" />
<path d="M-92.17558451545496,-226.99925466669316 L-237.61510925010893,59.699747537647" stroke="#0d6d4d" stroke-width="0.1" fill="none" />
<path d="M-89.86671013885207,-227.92317655038846 L-244.8666964048305,8.080902906518125" stroke="#0d6d4d" stroke-width="0.1" fill="none" />
<path d="M-87.54857656037333,-228.823614913873 L-241.03415181124956,-43.90373173924408" stroke="#0d6d4d" stroke-width="0.1" fill="none" />
<path d="M-85.22142262337663,-229.7004769826302 L-226.2909593682801,-93.90102080479956" stroke="#0d6d4d" stroke-width="0.1" fill="none" />
<path d="M-82.88548810061019,-230.5536724112709 L-201.30448417631237,-139.64778784681408" stroke="#0d6d4d" stroke-width="0.1" fill="none" />
<path d="M-80.5410136695097,-231.38311329284136 L-167.20576359983804,-179.07326048015958" stroke="#0d6d4d" stroke-width="0.1" fill="none" />
<path d="M-78.1882408873991,-232.18871416788124 L-125.53830974919028,-210.39280592576438" stroke="#0d6d4d" stroke-width="0.1" fill="none" />
<path d="M-75.82741216660375,-232.9703920332281 L-78.1882408873991,-232.18871416788124" stroke="#0d6d4d" stroke-width="0.1" fill="none" />
<path d="M-73.45877074947319,-233.72806635056975 L-27.298904432716526,-243.47437199174252" stroke="#0d6d4d" stroke-width="0.1" fill="none" />
<path d="M-71.08256068331946,-234.46165905474228 L24.826143769456134,-243.73892300069411" stroke="#0d6d4d" stroke-width="0.1" fill="none" />
<path d="M-68.69902679527249,-235.17109456177312 L75.82741216660368,-232.97039203322814" stroke="#0d6d4d" stroke-width="0.1" fill="none" />
<path d="M-66.30841466705411,-235.8562997766691 L123.39627820390592,-211.65622723044143" stroke="#0d6d4d" stroke-width="0.1" fill="none" />
<path d="M-63.91097060967654,-236.51720410094708 L165.37949039385504,-180.76123521670462" stroke="#0d6d4d" stroke-width="0.1" fill="none" />
<path d="M-61.50694163806266,-237.15373943990835 L199.87663736176177,-141.68390817928048" stroke="#0d6d4d" stroke-width="0.1" fill="none" />
<path d="M-59.096575445597125,-237.76584020965427 L225.32617183497996,-96.19311974456947" stroke="#0d6d4d" stroke-width="0.1" fill="none" />
<path d="M-56.68012037860413,-238.3534433438438 L240.57609561540534,-46.34805517437985" stroke="#0d6d4d" stroke-width="0.1" fill="none" />
<path d="M-54.25782541076139,-238.91648830019105 L244.93610591047533,5.59499967939279" stroke="#0d6d4d" stroke-width="0.1" fill="none" />
<path d="M-51.829940117446014,-239.45491706670373 L238.20884256773135,57.28479137207167" stroke="#0d6d4d" stroke-width="0.1" fill="none" />
<path d="M-49.396714650021565,-239.96867416765954 L220.69882177615,106.38153066495694" stroke="#0d6d4d" stroke-width="0.1" fill="none" />
<path d="M-46.95839971006348,-240.45770666932242 L193.19865184147056,150.6628053855305" stroke="#0d6d4d" stroke-width="0.1" fill="none" />
<path d="M-44.51524652352887,-240.92196418539643 L156.95315499199944,188.12418009936255" stroke="#0d6d4d" stroke-width="0.1" fill="none" />
<path d="M-42.06750681487221,-241.36139888221703 L113.60301927662519,217.06992885066953" stroke="#0d6d4d" stroke-width="0.1" fill="none" />
<path d="M-39.615432781108716,-241.77596548367967 L65.11053120727755,236.18979386481993" stroke="#0d6d4d" stroke-width="0.1" fill="none" />
<path d="M-37.159277065831276,-242.16562127590447 L13.670750930784395,244.6182956546555" stroke="#0d6d4d" stroke-width="0.1" fill="none" />
<path d="M-34.69929273317824,-242.53032611163744 L-38.38784932670171,241.97390980035524" stroke="#0d6d4d" stroke-width="0.1" fill="none" />
<path d="M-32.23573324176125,-242.87004241438675 L-88.7087858442087,228.37633702738626" stroke="#0d6d4d" stroke-width="0.1" fill="none" />
<path d="M-29.768852418549056,-243.18473518229436 L-135.01423195830222,204.4410848354845" stroke="#0d6d4d" stroke-width="0.1" fill="none" />
<path d="M-27.298904432716526,-243.47437199174252 L-175.20812612640322,171.25160594655569" stroke="#0d6d4d" stroke-width="0.1" fill="none" />
<path d="M-24.8261437694561,-243.73892300069411 L-207.4710522132117,130.31025475204467" stroke="#0d6d4d" stroke-width="0.1" fill="none" />
<path d="M-22.35082520375771,-243.97836095176774 L-230.34259715079165,83.47028176439868" stroke="#0d6d4d" stroke-width="0.1" fill="none" />
<path d="M-19.873203774158892,-244.19266117504588 L-242.78745797186568,32.85194441063663" stroke="#0d6d4d" stroke-width="0.1" fill="none" />
<path d="M-17.39353475646659,-244.3818015906168 L-244.2423058164648,-19.25346850457027" stroke="#0d6d4d" stroke-width="0.1" fill="none" />
<path d="M-14.912073637456974,-244.5457627108494 L-234.6412855666003,-70.48735423927575" stroke="#0d6d4d" stroke-width="0.1" fill="none" />
<path d="M-12.429076088550238,-244.68452764240126 L-214.41899684292318,-118.53056058618172" stroke="#0d6d4d" stroke-width="0.1" fill="none" />
<path d="M-9.944797939469817,-244.79808208795902 L-184.4908214256281,-161.20836457732895" stroke="#0d6d4d" stroke-width="0.1" fill="none" />
<path d="M-7.459495151881862,-244.8864143477115 L-146.21148759823475,-196.5889134572732" stroke="#0d6d4d" stroke-width="0.1" fill="none" />
<path d="M-4.973423793024572,-244.94951532055532 L-101.31374703996102,-223.07067189732223" stroke="#0d6d4d" stroke-width="0.1" fill="none" />
<path d="M-2.4868400093231844,-244.98737850503244 L-51.829940117446014,-239.45491706670373" stroke="#0d6d4d" stroke-width="0.1" fill="none" />
</svg>