<?xml version="1.0" encoding="UTF-8"?>
<svg xmlns="http://www.w3.org/2000/svg" xmlns:xlink="http://www.w3.org/1999/xlink"
     width="500.0" height="500" viewBox="-250.0 -250.0 500 500">
<defs>
</defs>
<circle cx="0" cy="0" r="245.0" fill="white" stroke-width="2" stroke="black" />
<path d="M0.0,-245.0 L0.0,-245.0" stroke="#4c0618" stroke-width="0.1" fill="none" />
<path d="M16.5398879802995,-244.44106059661732 L33.00430824533594,-242.7667926987685" stroke="#4c0618" stroke-width="0.1" fill="none" />
<path d="M33.00430824533594,-242.7667926987685 L65.40693924866716,-236.1078827530355" stroke="#4c0618" stroke-width="0.1" fill="none" />
<path d="M49.318137421721715,-239.98483560686114 L96.61718450276305,-225.1446638469565" stroke="#4c0618" stroke-width="0.1" fill="none" />
<path d="M65.40693924866716,-236.1078827530355 L126.06607300701404,-210.0769983520095" stroke="#4c0618" stroke-width="0.1" fill="none" />
<path d="M81.19730421356576,-231.15362378394516 L153.21674375880104,-191.1795737832625" stroke="#4c0618" stroke-width="0.1" fill="none" />
<path d="M96.61718450276305,-225.1446638469565 L177.57423287113437,-168.79689517354322" stroke="#4c0618" stroke-width="0.1" fill="none" />
<path d="M111.59622273920534,-218.10842044804616 L198.69449689482778,-143.3370046558504" stroke="#4c0618" stroke-width="0.1" fill="none" />
<path d="M126.06607300701404,-210.0769983520095 L216.19250784766368,-115.26404274767512" stroke="#4c0618" stroke-width="0.1" fill="none" />
<path d="M139.9607126982241,-201.0870430957827 L229.7492723760347,-85.08978694698096" stroke="#4c0618" stroke-width="0.1" fill="none" />
<path d="M153.21674375880104,-191.1795737832625 L239.11764708789326,-53.36432189346862" stroke="#4c0618" stroke-width="0.1" fill="none" />
<path d="M165.77368195942057,-180.39979592454335 L244.12684404195608,-20.666011180546022" stroke="#4c0618" stroke-width="0.1" fill="none" />
<path d="M177.57423287113437,-168.79689517354322 L244.68554425690792,12.409046365484597" stroke="#4c0618" stroke-width="0.1" fill="none" />
<path d="M188.56455328670842,-156.42381290514595 L240.78356248051023,45.25788372421138" stroke="#4c0618" stroke-width="0.1" fill="none" />
<path d="M198.69449689482778,-143.3370046558504 L232.49203286943492,77.2816579288876" stroke="#4c0618" stroke-width="0.1" fill="none" />
<path d="M207.91784308621394,-129.59618253010584 L219.96211219483175,107.89656713162033" stroke="#4c0618" stroke-width="0.1" fill="none" />
<path d="M216.19250784766368,-115.26404274767512 L203.42222421453224,136.5444934649969" stroke="#4c0618" stroke-width="0.1" fill="none" />
<path d="M223.48073578174868,-100.40597957516391 L183.17389544771316,162.70317767797357" stroke="#4c0618" stroke-width="0.1" fill="none" />
<path d="M229.7492723760347,-85.08978694698096 L159.58625826694444,185.89574005973378" stroke="#4c0618" stroke-width="0.1" fill="none" />
<path d="M234.96951573579452,-69.38534913716451 L133.08932151770264,205.6993740825615" stroke="#4c0618" stroke-width="0.1" fill="none" />
<path d="M239.11764708789326,-53.36432189346862 L104.16613134373195,221.75305427632873" stroke="#4c0618" stroke-width="0.1" fill="none" />
<path d="M242.1747394603873,-37.09980548862129 L73.3439651284727,233.76411781801195" stroke="#4c0618" stroke-width="0.1" fill="none" />
<path d="M244.12684404195608,-20.666011180546022 L41.184719089326364,241.5135998521269" stroke="#4c0618" stroke-width="0.1" fill="none" />
<path d="M244.9650538271289,-4.13792260341317 L8.2746647614498,244.8602252777809" stroke="#4c0618" stroke-width="0.1" fill="none" />
<path d="M244.68554425690792,12.409046365484597 L-24.78623888692085,243.7429842310143" stroke="#4c0618" stroke-width="0.1" fill="none" />
<path d="M243.28959066935374,28.89939570195729 L-57.39528286466016,238.1822443107077" stroke="#4c0618" stroke-width="0.1" fill="none" />
<path d="M240.78356248051023,45.25788372421138 L-88.95799570158626,228.27937927188376" stroke="#4c0618" stroke-width="0.1" fill="none" />
<path d="M237.17889412222004,61.4098704033865 L-118.89898082011482,214.21492095542263" stroke="#4c0618" stroke-width="0.1" fill="none" />
<path d="M232.49203286943492,77.2816579288876 L-146.6724061665907,196.24526814499922" stroke="#4c0618" stroke-width="0.1" fill="none" />
<path d="M226.7443637950721,92.80082697459112 L-171.7719548735529,174.698012349649" stroke="#4c0618" stroke-width="0.1" fill="none" />
<path d="M219.96211219483175,107.89656713162033 L-193.74005554973604,149.96596572417755" stroke="#4c0618" stroke-width="0.1" fill="none" />
<path d="M212.17622392718752,122.49999999999994 L-212.1762239271874,122.50000000000011" stroke="#4c0618" stroke-width="0.1" fill="none" />
<path d="M203.42222421453224,136.5444934649969 L-226.74436379507208,92.80082697459117" stroke="#4c0618" stroke-width="0.1" fill="none" />
<path d="M193.74005554973616,149.96596572417738 L-237.17889412222004,61.4098704033865" stroke="#4c0618" stroke-width="0.1" fill="none" />
<path d="M183.17389544771316,162.70317767797357 L-243.28959066935377,28.899395701957186" stroke="#4c0618" stroke-width="0.1" fill="none" />
<path d="M171.77195487355294,174.69801234964896 L-244.9650538271289,-4.137922603413055" stroke="#4c0618" stroke-width="0.1" fill="none" />
<path d="M159.58625826694444,185.89574005973378 L-242.1747394603873,-37.099805488621286" stroke="#4c0618" stroke-width="0.1" fill="none" />
<path d="M146.67240616659063,196.24526814499924 L-234.9695157357945,-69.38534913716455" stroke="#4c0618" stroke-width="0.1" fill="none" />
<path d="M133.08932151770264,205.6993740825615 L-223.4807357817487,-100.40597957516388" stroke="#4c0618" stroke-width="0.1" fill="none" />
<path d="M118.89898082011486,214.2149209554226 L-207.917843086214,-129.59618253010578" stroke="#4c0618" stroke-width="0.1" fill="none" />
<path d="M104.16613134373195,221.75305427632873 L-188.5645532867084,-156.42381290514598" stroke="#4c0618" stroke-width="0.1" fill="none" />
<path d="M88.95799570158631,228.27937927188376 L-165.77368195942063,-180.39979592454327" stroke="#4c0618" stroke-width="0.1" fill="none" />
<path d="M73.3439651284727,233.76411781801195 L-139.96071269822414,-201.0870430957827" stroke="#4c0618" stroke-width="0.1" fill="none" />
<path d="M57.39528286466022,238.1822443107077 L-111.59622273920549,-218.10842044804605" stroke="#4c0618" stroke-width="0.1" fill="none" />
<path d="M41.184719089326364,241.5135998521269 L-81.19730421356587,-231.1536237839451" stroke="#4c0618" stroke-width="0.1" fill="none" />
<path d="M24.78623888692091,243.7429842310143 L-49.31813742172177,-239.98483560686114" stroke="#4c0618" stroke-width="0.1" fill="none" />
<path d="M8.2746647614498,244.8602252777809 L-16.539887980299703,-244.4410605966173" stroke="#4c0618" stroke-width="0.1" fill="none" />
<path d="M-8.27466476144974,244.8602252777809 L16.5398879802995,-244.44106059661732" stroke="#4c0618" stroke-width="0.1" fill="none" />
<path d="M-24.78623888692085,243.7429842310143 L49.318137421721715,-239.98483560686114" stroke="#4c0618" stroke-width="0.1" fill="none" />
<path d="M-41.1847190893262,241.51359985212693 L81.19730421356576,-231.15362378394516" stroke="#4c0618" stroke-width="0.1" fill="none" />
<path d="M-57.39528286466016,238.1822443107077 L111.59622273920534,-218.10842044804616" stroke="#4c0618" stroke-width="0.1" fill="none" />
<path d="M-73.34396512847266,233.76411781801198 L139.9607126982241,-201.0870430957827" stroke="#4c0618" stroke-width="0.1" fill="none" />
<path d="M-88.95799570158626,228.27937927188376 L165.77368195942057,-180.39979592454335" stroke="#4c0618" stroke-width="0.1" fill="none" />
<path d="M-104.16613134373199,221.7530542763287 L188.56455328670842,-156.42381290514595" stroke="#4c0618" stroke-width="0.1" fill="none" />
<path d="M-118.89898082011482,214.21492095542263 L207.91784308621394,-129.59618253010584" stroke="#4c0618" stroke-width="0.1" fill="none" />
<path d="M-133.0893215177026,205.69937408256152 L223.48073578174868,-100.40597957516391" stroke="#4c0618" stroke-width="0.1" fill="none" />
<path d="M-146.6724061665907,196.24526814499922 L234.96951573579452,-69.38534913716451" stroke="#4c0618" stroke-width="0.1" fill="none" />
<path d="M-159.5862582669444,185.8957400597338 L242.1747394603873,-37.09980548862129" stroke="#4c0618" stroke-width="0.1" fill="none" />
<path d="M-171.7719548735529,174.698012349649 L244.9650538271289,-4.13792260341317" stroke="#4c0618" stroke-width="0.1" fill="none" />
<path d="M-183.17389544771314,162.70317767797366 L243.28959066935374,28.89939570195729" stroke="#4c0618" stroke-width="0.1" fill="none" />
<path d="M-193.74005554973604,149.96596572417755 L237.17889412222004,61.4098704033865" stroke="#4c0618" stroke-width="0.1" fill="none" />
<path d="M-203.42222421453218,136.54449346499695 L226.7443637950721,92.80082697459112" stroke="#4c0618" stroke-width="0.1" fill="none" />
<path d="M-212.1762239271874,122.50000000000011 L212.17622392718752,122.49999999999994" stroke="#4c0618" stroke-width="0.1" fill="none" />
<path d="M-219.96211219483172,107.89656713162037 L193.74005554973616,149.96596572417738" stroke="#4c0618" stroke-width="0.1" fill="none" />
<path d="M-226.74436379507208,92.80082697459117 L171.77195487355294,174.69801234964896" stroke="#4c0618" stroke-width="0.1" fill="none" />
<path d="M-232.49203286943487,77.2816579288877 L146.67240616659063,196.24526814499924" stroke="#4c0618" stroke-width="0.1" fill="none" />
<path d="M-237.17889412222004,61.4098704033865 L118.89898082011486,214.2149209554226" stroke="#4c0618" stroke-width="0.1" fill="none" />
<path d="M-240.7835624805102,45.25788372421144 L88.95799570158631,228.27937927188376" stroke="#4c0618" stroke-width="0.1" fill="none" />
<path d="M-243.28959066935377,28.899395701957186 L57.39528286466022,238.1822443107077" stroke="#4c0618" stroke-width="0.1" fill="none" />
<path d="M-244.68554425690792,12.409046365484603 L24.78623888692091,243.7429842310143" stroke="#4c0618" stroke-width="0.1" fill="none" />
<path d="M-244.9650538271289,-4.137922603413055 L-8.27466476144974,244.8602252777809" stroke="#4c0618" stroke-width="0.1" fill="none" />
<path d="M-244.12684404195608,-20.66601118054607 L-41.1847190893262,241.51359985212693" stroke="#4c0618" stroke-width="0.1" fill="none" />
<path d="M-242.1747394603873,-37.099805488621286 L-73.34396512847266,233.76411781801198" stroke="#4c0618" stroke-width="0.1" fill="none" />
<path d="M-239.11764708789326,-53.364321893468556 L-104.16613134373199,221.7530542763287" stroke="#4c0618" stroke-width="0.1" fill="none" />
<path d="M-234.9695157357945,-69.38534913716455 L-133.0893215177026,205.69937408256152" stroke="#4c0618" stroke-width="0.1" fill="none" />
<path d="M-229.7492723760347,-85.08978694698096 L-159.5862582669444,185.8957400597338" stroke="#4c0618" stroke-width="0.1" fill="none" />
<path d="M-223.4807357817487,-100.40597957516388 L-183.17389544771314,162.70317767797366" stroke="#4c0618" stroke-width="0.1" fill="none" />
<path d="M-216.19250784766365,-115.26404274767518 L-203.42222421453218,136.54449346499695" stroke="#4c0618" stroke-width="0.1" fill="none" />
<path d="M-207.917843086214,-129.59618253010578 L-219.96211219483172,107.89656713162037" stroke="#4c0618" stroke-width="0.1" fill="none" />
<path d="M-198.69449689482784,-143.3370046558503 L-232.49203286943487,77.2816579288877" stroke="#4c0618" stroke-width="0.1" fill="none" />
<path d="M-188.5645532867084,-156.42381290514598 L-240.7835624805102,45.25788372421144" stroke="#4c0618" stroke-width="0.1" fill="none" />
<path d="M-177.5742328711344,-168.79689517354316 L-244.68554425690792,12.409046365484603" stroke="#4c0618" stroke-width="0.1" fill="none" />
<path d="M-165.77368195942063,-180.39979592454327 L-244.12684404195608,-20.66601118054607" stroke="#4c0618" stroke-width="0.1" fill="none" />
<path d="M-153.216743758801,-191.1795737832625 L-239.11764708789326,-53.364321893468556" stroke="#4c0618" stroke-width="0.1" fill="none" />
<path d="M-139.96071269822414,-201.0870430957827 L-229.7492723760347,-85.08978694698096" stroke="#4c0618" stroke-width="0.1" fill="none" />
<path d="M-126.06607300701415,-210.07699835200944 L-216.19250784766365,-115.26404274767518" stroke="#4c0618" stroke-width="0.1" fill="none" />
<path d="M-111.59622273920549,-218.10842044804605 L-198.69449689482784,-143.3370046558503" stroke="#4c0618" stroke-width="0.1" fill="none" />
<path d="M-96.61718450276308,-225.1446638469565 L-177.5742328711344,-168.79689517354316" stroke="#4c0618" stroke-width="0.1" fill="none" />
<path d="M-81.19730421356587,-231.1536237839451 L-153.216743758801,-191.1795737832625" stroke="#4c0618" stroke-width="0.1" fill="none" />
<path d="M-65.40693924866713,-236.10788275303554 L-126.06607300701415,-210.07699835200944" stroke="#4c0618" stroke-width="0.1" fill="none" />
<path d="M-49.31813742172177,-239.98483560686114 L-96.61718450276308,-225.1446638469565" stroke="#4c0618" stroke-width="0.1" fill="none" />
<path d="M-33.00430824533607,-242.7667926987685 L-65.40693924866713,-236.10788275303554" stroke="#4c0618" stroke-width="0.1" fill="none" />
<path d="M-16.539887980299703,-244.4410605966173 L-33.00430824533607,-242.7667926987685" stroke="#4c0618" stroke-width="0.1" fill="none" />
</svg>