<?xml version="1.0" encoding="UTF-8"?>
<svg xmlns="http://www.w3.org/2000/svg" xmlns:xlink="http://www.w3.org/1999/xlink"
     width="500.0" height="500" viewBox="-250.0 -250.0 500 500">
<defs>
</defs>
<circle cx="0" cy="0" r="245.0" fill="white" stroke-width="2" stroke="black" />
<path d="M0.0,-245.0 L0.0,-245.0" stroke="#4c0618" stroke-width="0.1" fill="none" />
<path d="M47.797128893951424,-240.29239369879144 L93.757440929447,-226.35048546526525" stroke="#4c0618" stroke-width="0.1" fill="none" />
<path d="M93.757440929447,-226.35048546526525 L173.24116139070412,-173.24116139070415" stroke="#4c0618" stroke-width="0.1" fill="none" />
<path d="M136.11470708980252,-203.71005501412358 L226.35048546526525,-93.75744092944701" stroke="#4c0618" stroke-width="0.1" fill="none" />
<path d="M173.24116139070412,-173.24116139070415 L245.0,-1.5001923289555078e-14" stroke="#4c0618" stroke-width="0.1" fill="none" />
<path d="M203.71005501412355,-136.11470708980255 L226.35048546526525,93.75744092944699" stroke="#4c0618" stroke-width="0.1" fill="none" />
<path d="M226.35048546526525,-93.75744092944701 L173.24116139070415,173.24116139070412" stroke="#4c0618" stroke-width="0.1" fill="none" />
<path d="M240.29239369879144,-47.79712889395143 L93.75744092944701,226.35048546526525" stroke="#4c0618" stroke-width="0.1" fill="none" />
<path d="M245.0,-1.5001923289555078e-14 L3.0003846579110155e-14,245.0" stroke="#4c0618" stroke-width="0.1" fill="none" />
<path d="M240.29239369879144,47.79712889395141 L-93.75744092944697,226.35048546526525" stroke="#4c0618" stroke-width="0.1" fill="none" />
<path d="M226.35048546526525,93.75744092944699 L-173.24116139070412,173.24116139070418" stroke="#4c0618" stroke-width="0.1" fill="none" />
<path d="M203.71005501412364,136.11470708980247 L-226.3504854652652,93.75744092944713" stroke="#4c0618" stroke-width="0.1" fill="none" />
<path d="M173.24116139070415,173.24116139070412 L-245.0,4.500576986866523e-14" stroke="#4c0618" stroke-width="0.1" fill="none" />
<path d="M136.11470708980252,203.7100550141236 L-226.35048546526522,-93.75744092944706" stroke="#4c0618" stroke-width="0.1" fill="none" />
<path d="M93.75744092944701,226.35048546526525 L-173.24116139070418,-173.24116139070412" stroke="#4c0618" stroke-width="0.1" fill="none" />
<path d="M47.7971288939515,240.29239369879144 L-93.75744092944714,-226.3504854652652" stroke="#4c0618" stroke-width="0.1" fill="none" />
<path d="M3.0003846579110155e-14,245.0 L0.0,-245.0" stroke="#4c0618" stroke-width="0.1" fill="none" />
<path d="M-47.797128893951445,240.29239369879144 L93.757440929447,-226.35048546526525" stroke="#4c0618" stroke-width="0.1" fill="none" />
<path d="M-93.75744092944697,226.35048546526525 L173.24116139070412,-173.24116139070415" stroke="#4c0618" stroke-width="0.1" fill="none" />
<path d="M-136.11470708980247,203.71005501412364 L226.35048546526525,-93.75744092944701" stroke="#4c0618" stroke-width="0.1" fill="none" />
<path d="M-173.24116139070412,173.24116139070418 L245.0,-1.5001923289555078e-14" stroke="#4c0618" stroke-width="0.1" fill="none" />
<path d="M-203.71005501412358,136.11470708980252 L226.35048546526525,93.75744092944699" stroke="#4c0618" stroke-width="0.1" fill="none" />
<path d="M-226.3504854652652,93.75744092944713 L173.24116139070415,173.24116139070412" stroke="#4c0618" stroke-width="0.1" fill="none" />
<path d="M-240.29239369879141,47.79712889395152 L93.75744092944701,226.35048546526525" stroke="#4c0618" stroke-width="0.1" fill="none" />
<path d="M-245.0,4.500576986866523e-14 L3.0003846579110155e-14,245.0" stroke="#4c0618" stroke-width="0.1" fill="none" />
<path d="M-240.29239369879144,-47.79712889395143 L-93.75744092944697,226.35048546526525" stroke="#4c0618" stroke-width="0.1" fill="none" />
<path d="M-226.35048546526522,-93.75744092944706 L-173.24116139070412,173.24116139070418" stroke="#4c0618" stroke-width="0.1" fill="none" />
<path d="M-203.71005501412367,-136.11470708980247 L-226.3504854652652,93.75744092944713" stroke="#4c0618" stroke-width="0.1" fill="none" />
<path d="M-173.24116139070418,-173.24116139070412 L-245.0,4.500576986866523e-14" stroke="#4c0618" stroke-width="0.1" fill="none" />
<path d="M-136.11470708980252,-203.71005501412358 L-226.35048546526522,-93.75744092944706" stroke="#4c0618" stroke-width="0.1" fill="none" />
<path d="M-93.75744092944714,-226.3504854652652 L-173.24116139070418,-173.24116139070412" stroke="#4c0618" stroke-width="0.1" fill="none" />
<path d="M-47.79712889395154,-240.29239369879141 L-93.75744092944714,-226.3504854652652" stroke="#4c0618" stroke-width="0.1" fill="none" />
</svg>