<?xml version="1.0" encoding="UTF-8"?>
<svg xmlns="http://www.w3.org/2000/svg" xmlns:xlink="http://www.w3.org/1999/xlink"
     width="500.0" height="500" viewBox="-250.0 -250.0 500 500">
<defs>
</defs>
<circle cx="0" cy="0" r="245.0" fill="white" stroke-width="2" stroke="black" />
<path d="M0.0,-245.0 L0.0,-245.0" stroke="#4c0618" stroke-width="0.1" fill="none" />
<path d="M28.97692687573462,-243.28036852331164 L57.547081216341,-238.14561394970065" stroke="#4c0618" stroke-width="0.1" fill="none" />
<path d="M57.547081216341,-238.14561394970065 L111.8741631614597,-217.96598729371306" stroke="#4c0618" stroke-width="0.1" fill="none" />
<path d="M85.30940068142769,-229.66781697785962 L159.94141895667778,-185.59025432959695" stroke="#4c0618" stroke-width="0.1" fill="none" />
<path d="M111.8741631614597,-217.96598729371306 L199.05928511139192,-142.82997238304566" stroke="#4c0618" stroke-width="0.1" fill="none" />
<path d="M136.86845762189486,-203.20439293529947 L227.03895382079918,-92.07775761798837" stroke="#4c0618" stroke-width="0.1" fill="none" />
<path d="M159.94141895667778,-185.59025432959695 L242.31484589393017,-36.173408180607915" stroke="#4c0618" stroke-width="0.1" fill="none" />
<path d="M180.76915336522316,-165.3708353719616 L244.03221144072813,21.75499435411902" stroke="#4c0618" stroke-width="0.1" fill="none" />
<path d="M199.05928511139192,-142.82997238304566 L232.0949566942769,78.46611419639522" stroke="#4c0618" stroke-width="0.1" fill="none" />
<path d="M214.55506083793102,-118.2840896690325 L207.17102085794738,130.7867276013737" stroke="#4c0618" stroke-width="0.1" fill="none" />
<path d="M227.03895382079918,-92.07775761798837 L170.6550021204343,175.7892779758611" stroke="#4c0618" stroke-width="0.1" fill="none" />
<path d="M236.33571756754787,-64.57885568692161 L124.59012406905909,210.95568488300205" stroke="#4c0618" stroke-width="0.1" fill="none" />
<path d="M242.31484589393017,-36.173408180607915 L71.55390880605908,234.31824114774798" stroke="#4c0618" stroke-width="0.1" fill="none" />
<path d="M244.89240494465463,-7.260165316527118 L14.513953833959965,244.56971428225876" stroke="#4c0618" stroke-width="0.1" fill="none" />
<path d="M244.03221144072813,21.75499435411902 L-43.33811740503037,241.1364915971612" stroke="#4c0618" stroke-width="0.1" fill="none" />
<path d="M239.7463406133785,50.46476159156908 L-98.76524017555315,224.21067622453955" stroke="#4c0618" stroke-width="0.1" fill="none" />
<path d="M232.0949566942769,78.46611419639522 L-148.6660357255554,194.73933814627154" stroke="#4c0618" stroke-width="0.1" fill="none" />
<path d="M221.18546834160713,105.36597455774753 L-190.2483463659204,154.37152167751915" stroke="#4c0618" stroke-width="0.1" fill="none" />
<path d="M207.17102085794738,130.7867276013737 L-221.18546834160716,105.36597455774749" stroke="#4c0618" stroke-width="0.1" fill="none" />
<path d="M190.2483463659204,154.37152167751918 L-239.74634061337846,50.464761591569136" stroke="#4c0618" stroke-width="0.1" fill="none" />
<path d="M170.6550021204343,175.7892779758611 L-244.89240494465463,-7.2601653165270585" stroke="#4c0618" stroke-width="0.1" fill="none" />
<path d="M148.66603572555533,194.73933814627156 L-236.33571756754785,-64.57885568692166" stroke="#4c0618" stroke-width="0.1" fill="none" />
<path d="M124.59012406905909,210.95568488300205 L-214.5550608379311,-118.28408966903234" stroke="#4c0618" stroke-width="0.1" fill="none" />
<path d="M98.76524017555329,224.2106762245395 L-180.76915336522333,-165.37083537196142" stroke="#4c0618" stroke-width="0.1" fill="none" />
<path d="M71.55390880605908,234.31824114774798 L-136.8684576218949,-203.2043929352994" stroke="#4c0618" stroke-width="0.1" fill="none" />
<path d="M43.338117405030424,241.1364915971612 L-85.30940068142779,-229.6678169778596" stroke="#4c0618" stroke-width="0.1" fill="none" />
<path d="M14.513953833959965,244.56971428225876 L-28.97692687573455,-243.28036852331167" stroke="#4c0618" stroke-width="0.1" fill="none" />
<path d="M-14.513953833959903,244.56971428225876 L28.97692687573462,-243.28036852331164" stroke="#4c0618" stroke-width="0.1" fill="none" />
<path d="M-43.33811740503037,241.1364915971612 L85.30940068142769,-229.66781697785962" stroke="#4c0618" stroke-width="0.1" fill="none" />
<path d="M-71.55390880605906,234.31824114774798 L136.86845762189486,-203.20439293529947" stroke="#4c0618" stroke-width="0.1" fill="none" />
<path d="M-98.76524017555315,224.21067622453955 L180.76915336522316,-165.3708353719616" stroke="#4c0618" stroke-width="0.1" fill="none" />
<path d="M-124.59012406905894,210.95568488300214 L214.55506083793102,-118.2840896690325" stroke="#4c0618" stroke-width="0.1" fill="none" />
<path d="M-148.6660357255554,194.73933814627154 L236.33571756754787,-64.57885568692161" stroke="#4c0618" stroke-width="0.1" fill="none" />
<path d="M-170.65500212043426,175.78927797586113 L244.89240494465463,-7.260165316527118" stroke="#4c0618" stroke-width="0.1" fill="none" />
<path d="M-190.2483463659204,154.37152167751915 L239.7463406133785,50.46476159156908" stroke="#4c0618" stroke-width="0.1" fill="none" />
<path d="M-207.17102085794733,130.7867276013738 L221.18546834160713,105.36597455774753" stroke="#4c0618" stroke-width="0.1" fill="none" />
<path d="M-221.18546834160716,105.36597455774749 L190.2483463659204,154.37152167751918" stroke="#4c0618" stroke-width="0.1" fill="none" />
<path d="M-232.09495669427687,78.46611419639532 L148.66603572555533,194.73933814627156" stroke="#4c0618" stroke-width="0.1" fill="none" />
<path d="M-239.74634061337846,50.464761591569136 L98.76524017555329,224.2106762245395" stroke="#4c0618" stroke-width="0.1" fill="none" />
<path d="M-244.03221144072813,21.754994354119187 L43.338117405030424,241.1364915971612" stroke="#4c0618" stroke-width="0.1" fill="none" />
<path d="M-244.89240494465463,-7.2601653165270585 L-14.513953833959903,244.56971428225876" stroke="#4c0618" stroke-width="0.1" fill="none" />
<path d="M-242.31484589393023,-36.173408180607694 L-71.55390880605906,234.31824114774798" stroke="#4c0618" stroke-width="0.1" fill="none" />
<path d="M-236.33571756754785,-64.57885568692166 L-124.59012406905894,210.95568488300214" stroke="#4c0618" stroke-width="0.1" fill="none" />
<path d="M-227.0389538207992,-92.07775761798833 L-170.65500212043426,175.78927797586113" stroke="#4c0618" stroke-width="0.1" fill="none" />
<path d="M-214.5550608379311,-118.28408966903234 L-207.17102085794733,130.7867276013738" stroke="#4c0618" stroke-width="0.1" fill="none" />
<path d="M-199.05928511139197,-142.8299723830456 L-232.09495669427687,78.46611419639532" stroke="#4c0618" stroke-width="0.1" fill="none" />
<path d="M-180.76915336522333,-165.37083537196142 L-244.03221144072813,21.754994354119187" stroke="#4c0618" stroke-width="0.1" fill="none" />
<path d="M-159.94141895667775,-185.59025432959697 L-242.31484589393023,-36.173408180607694" stroke="#4c0618" stroke-width="0.1" fill="none" />
<path d="M-136.8684576218949,-203.2043929352994 L-227.0389538207992,-92.07775761798833" stroke="#4c0618" stroke-width="0.1" fill="none" />
<path d="M-111.87416316145986,-217.965987293713 L-199.05928511139197,-142.8299723830456" stroke="#4c0618" stroke-width="0.1" fill="none" />
<path d="M-85.30940068142779,-229.6678169778596 L-159.94141895667775,-185.59025432959697" stroke="#4c0618" stroke-width="0.1" fill="none" />
<path d="M-57.54708121634101,-238.14561394970065 L-111.87416316145986,-217.965987293713" stroke="#4c0618" stroke-width="0.1" fill="none" />
<path d="M-28.97692687573455,-243.28036852331167 L-57.54708121634101,-238.14561394970065" stroke="#4c0618" stroke-width="0.1" fill="none" />
</svg>