<?xml version="1.0" encoding="UTF-8"?>
<svg xmlns="http://www.w3.org/2000/svg" xmlns:xlink="http://www.w3.org/1999/xlink"
     width="500.0" height="500" viewBox="-250.0 -250.0 500 500">
<defs>
</defs>
<circle cx="0" cy="0" r="245.0" fill="white" stroke-width="2" stroke="black" />
<path d="M0.0,-245.0 L0.0,-245.0" stroke="#0d6d4d" stroke-width="0.1" fill="none" />
<path d="M2.4395482751788444,-244.98785399323998 L50.85881885503513,-239.66305627833157" stroke="#0d6d4d" stroke-width="0.1" fill="none" />
<path d="M4.878854666522246,-244.95141717724957 L99.5018772694184,-223.8847391401692" stroke="#0d6d4d" stroke-width="0.1" fill="none" />
<path d="M7.3176773141778035,-244.89069316477824 L143.8099485883956,-198.35246075358637" stroke="#0d6d4d" stroke-width="0.1" fill="none" />
<path d="M9.755774406256828,-244.80568797667718 L181.85266805241523,-164.17858301927836" stroke="#0d6d4d" stroke-width="0.1" fill="none" />
<path d="M12.192904202810237,-244.6964100413022 L211.97263278148802,-122.85195542474864" stroke="#0d6d4d" stroke-width="0.1" fill="none" />
<path d="M14.62882505979735,-244.56287019367812 L232.8576096600409,-76.17305050614706" stroke="#0d6d4d" stroke-width="0.1" fill="none" />
<path d="M17.063295453045136,-244.40508167442445 L243.59770524946825,-26.17552286379763" stroke="#0d6d4d" stroke-width="0.1" fill="none" />
<path d="M19.49607400219561,-244.22306012844263 L243.7250070132304,24.962390839036157" stroke="#0d6d4d" stroke-width="0.1" fill="none" />
<path d="M21.926919494638938,-244.01682360336474 L233.23396880970392,75.01277086785991" stroke="#0d6d4d" stroke-width="0.1" fill="none" />
<path d="M24.355590909429964,-243.78639254776402 L212.58165252031003,121.79507794543325" stroke="#0d6d4d" stroke-width="0.1" fill="none" />
<path d="M26.781847441185636,-243.5317898091275 L182.66781528593515,163.2711525612025" stroke="#0d6d4d" stroke-width="0.1" fill="none" />
<path d="M29.205448523961177,-243.25304063159058 L144.7957098887753,197.6340112374528" stroke="#0d6d4d" stroke-width="0.1" fill="none" />
<path d="M31.626153855102427,-242.95017265343398 L100.61530608495892,223.3865711752388" stroke="#0d6d4d" stroke-width="0.1" fill="none" />
<path d="M34.0437234190721,-242.6232159043436 L52.05140655776402,239.40687349230046" stroke="#0d6d4d" stroke-width="0.1" fill="none" />
<path d="M36.45791751124761,-242.27220280243264 L1.2197892556101855,244.99696347949273" stroke="#0d6d4d" stroke-width="0.1" fill="none" />
<path d="M38.86849676168805,-241.89716815102784 L-49.66497046784559,239.91329831509555" stroke="#0d6d4d" stroke-width="0.1" fill="none" />
<path d="M41.27522215886791,-241.4981491352182 L-98.38598200905462,224.377357467535" stroke="#0d6d4d" stroke-width="0.1" fill="none" />
<path d="M43.67785507337543,-241.07518531816837 L-142.82062253815434,199.06599352429342" stroke="#0d6d4d" stroke-width="0.1" fill="none" />
<path d="M46.07615728157287,-240.62831863719566 L-181.03301306905166,165.08194383136086" stroke="#0d6d4d" stroke-width="0.1" fill="none" />
<path d="M48.4698909892167,-240.15759339961218 L-211.35835868147075,123.90578765931296" stroke="#0d6d4d" stroke-width="0.1" fill="none" />
<path d="M50.85881885503513,-239.66305627833157 L-232.4754784539941,77.33144197276116" stroke="#0d6d4d" stroke-width="0.1" fill="none" />
<path d="M53.24270401426073,-239.1447563072413 L-243.46436520466517,27.38800605172675" stroke="#0d6d4d" stroke-width="0.1" fill="none" />
<path d="M55.6213101021159,-238.60274487634098 L-243.84626734040538,-23.74864004846483" stroke="#0d6d4d" stroke-width="0.1" fill="none" />
<path d="M57.99440127724861,-238.03707572664698 L-233.6045465738218,-73.85063181882137" stroke="#0d6d4d" stroke-width="0.1" fill="none" />
<path d="M60.36174224511638,-237.44780494486392 L-213.18540280160275,-120.73518141916378" stroke="#0d6d4d" stroke-width="0.1" fill="none" />
<path d="M62.72309828131594,-236.8349909578236 L-183.478434563805,-162.3596749504492" stroke="#0d6d4d" stroke-width="0.1" fill="none" />
<path d="M65.07823525485642,-236.198694526692 L-145.77788200431883,-196.91066278476364" stroke="#0d6d4d" stroke-width="0.1" fill="none" />
<path d="M67.42691965137377,-235.53897874094469 L-101.72624085608906,-222.88286592129276" stroke="#0d6d4d" stroke-width="0.1" fill="none" />
<path d="M69.76891859628384,-234.8559090121113 L-53.24270401426083,-239.14475630724127" stroke="#0d6d4d" stroke-width="0.1" fill="none" />
<path d="M72.10399987787218,-234.14955306729033 L-2.439548275178826,-244.98785399323998" stroke="#0d6d4d" stroke-width="0.1" fill="none" />
<path d="M74.43193197031816,-233.4199809424333 L48.4698909892167,-240.15759339961218" stroke="#0d6d4d" stroke-width="0.1" fill="none" />
<path d="M76.7524840566509,-232.6672649754012 L97.26764796459302,-224.86441394635125" stroke="#0d6d4d" stroke-width="0.1" fill="none" />
<path d="M79.06542605163504,-231.89147979879172 L141.82775626138906,-199.774591862579" stroke="#0d6d4d" stroke-width="0.1" fill="none" />
<path d="M81.37052862458405,-231.09270233253957 L180.2088706533888,-165.98121260501196" stroke="#0d6d4d" stroke-width="0.1" fill="none" />
<path d="M83.66756322209842,-230.27101177628973 L210.73884544683705,-124.95654852681444" stroke="#0d6d4d" stroke-width="0.1" fill="none" />
<path d="M85.95630209072718,-229.4264896015446 L232.08758466380237,-78.48791655358401" stroke="#0d6d4d" stroke-width="0.1" fill="none" />
<path d="M88.23651829954974,-228.55921954358615 L243.32499018404388,-28.59981034788425" stroke="#0d6d4d" stroke-width="0.1" fill="none" />
<path d="M90.5079857626764,-227.66928759317355 L243.9614832252016,22.534300578444526" stroke="#0d6d4d" stroke-width="0.1" fill="none" />
<path d="M92.77047926166503,-226.7567819880168 L233.96933376654167,72.68666216604412" stroke="#0d6d4d" stroke-width="0.1" fill="none" />
<path d="M95.02377446785168,-225.82179320402818 L213.78386865965084,119.67229211857342" stroke="#0d6d4d" stroke-width="0.1" fill="none" />
<path d="M97.26764796459302,-224.86441394635125 L184.284505792457,161.4441727806547" stroke="#0d6d4d" stroke-width="0.1" fill="none" />
<path d="M99.5018772694184,-223.8847391401692 L146.75644058901972,196.18243332582438" stroke="#0d6d4d" stroke-width="0.1" fill="none" />
<path d="M101.72624085608908,-222.88286592129273 L102.83465404504386,222.3736358641378" stroke="#0d6d4d" stroke-width="0.1" fill="none" />
<path d="M103.94051817656293,-221.85889362652918 L54.432681694736225,238.8767112204945" stroke="#0d6d4d" stroke-width="0.1" fill="none" />
<path d="M106.14448968286202,-220.8129237838329 L3.6592468234139157,244.972671767047" stroke="#0d6d4d" stroke-width="0.1" fill="none" />
<path d="M108.33793684884088,-219.74506010223885 L-47.27361004268598,240.39593547631387" stroke="#0d6d4d" stroke-width="0.1" fill="none" />
<path d="M110.52064219185378,-218.65540846157964 L-96.14690285721107,225.34589650349974" stroke="#0d6d4d" stroke-width="0.1" fill="none" />
<path d="M112.69238929431822,-217.54407690198747 L-140.83137436919202,200.47823820376237" stroke="#0d6d4d" stroke-width="0.1" fill="none" />
<path d="M114.8529628251731,-216.4111756131818 L-179.3802612342048,166.87636704922733" stroke="#0d6d4d" stroke-width="0.1" fill="none" />
<path d="M117.00214856122895,-215.25681692354394 L-210.1141084340328,126.0042119810743" stroke="#0d6d4d" stroke-width="0.1" fill="none" />
<path d="M119.13973340840835,-214.08111528897965 L-231.69393790454683,79.64244558201355" stroke="#0d6d4d" stroke-width="0.1" fill="none" />
<path d="M121.26550542287461,-212.88418728157046 L-243.17958364242156,29.81090571415916" stroke="#0d6d4d" stroke-width="0.1" fill="none" />
<path d="M123.37925383204593,-211.66615157801584 L-244.0706518116566,-21.31940252992754" stroke="#0d6d4d" stroke-width="0.1" fill="none" />
<path d="M125.48076905549414,-210.42712894786584 L-234.32832134554684,-71.52089076191754" stroke="#0d6d4d" stroke-width="0.1" fill="none" />
<path d="M127.56984272572434,-209.1672422415469 L-214.37703525972907,-118.60643639047959" stroke="#0d6d4d" stroke-width="0.1" fill="none" />
<path d="M129.64626770883518,-207.8866163781811 L-185.08600899105994,-160.52466874521582" stroke="#0d6d4d" stroke-width="0.1" fill="none" />
<path d="M131.70983812505622,-206.58537833320025 L-147.7313613864437,-195.44934091193036" stroke="#0d6d4d" stroke-width="0.1" fill="none" />
<path d="M133.76034936916113,-205.26365712575608 L-103.94051817656306,-221.85889362652912" stroke="#0d6d4d" stroke-width="0.1" fill="none" />
<path d="M135.7975981307545,-203.92158380592798 L-55.621310102116134,-238.60274487634092" stroke="#0d6d4d" stroke-width="0.1" fill="none" />
<path d="M137.82138241443042,-202.55929144172904 L-4.878854666522368,-244.95141717724957" stroke="#0d6d4d" stroke-width="0.1" fill="none" />
<path d="M139.8315015598004,-201.17691510591254 L46.07615728157287,-240.62831863719566" stroke="#0d6d4d" stroke-width="0.1" fill="none" />
<path d="M141.82775626138906,-199.774591862579 L95.02377446785168,-225.82179320402818" stroke="#0d6d4d" stroke-width="0.1" fill="none" />
<path d="M143.8099485883956,-198.35246075358637 L139.8315015598004,-201.17691510591254" stroke="#0d6d4d" stroke-width="0.1" fill="none" />
<path d="M145.7778820043188,-196.9106627847637 L178.54720535100583,-167.7673849749878" stroke="#0d6d4d" stroke-width="0.1" fill="none" />
<path d="M147.73136138644367,-195.44934091193036 L209.48416312899096,-127.04875205269161" stroke="#0d6d4d" stroke-width="0.1" fill="none" />
<path d="M149.67019304518848,-193.96864002672189 L231.2945479339129,-80.79500043967363" stroke="#0d6d4d" stroke-width="0.1" fill="none" />
<path d="M151.5941847433088,-192.46870694222363 L243.02814918412437,-31.0212621300131" stroke="#0d6d4d" stroke-width="0.1" fill="none" />
<path d="M153.50314571495832,-190.9496903784143 L244.173770393708,20.103976017712778" stroke="#0d6d4d" stroke-width="0.1" fill="none" />
<path d="M155.39688668460346,-189.41174094741993 L234.6815004122809,70.3533465034933" stroke="#0d6d4d" stroke-width="0.1" fill="none" />
<path d="M157.27521988579014,-187.85501113858092 L214.96488789846973,117.53764065523157" stroke="#0d6d4d" stroke-width="0.1" fill="none" />
<path d="M159.13795907976126,-186.27965530333213 L185.88292429201456,159.6011856367276" stroke="#0d6d4d" stroke-width="0.1" fill="none" />
<path d="M160.984919573922,-184.68582963989917 L148.70262023032967,194.71140371491947" stroke="#0d6d4d" stroke-width="0.1" fill="none" />
<path d="M162.81591824015297,-183.07369217781078 L105.04380583857208,221.33865196785757" stroke="#0d6d4d" stroke-width="0.1" fill="none" />
<path d="M164.63077353296694,-181.4434027622304 L56.80855977277104,238.32286406583717" stroke="#0d6d4d" stroke-width="0.1" fill="none" />
<path d="M166.42930550750953,-179.79512303810705 L6.098341572959248,244.92409075070486" stroke="#0d6d4d" stroke-width="0.1" fill="none" />
<path d="M168.21133583740107,-178.1290164341483 L-44.87756238824363,240.85473712196176" stroke="#0d6d4d" stroke-width="0.1" fill="none" />
<path d="M169.97668783241755,-176.44524814661594 L-93.89829063653428,226.29209225144598" stroke="#0d6d4d" stroke-width="0.1" fill="none" />
<path d="M171.72518645600988,-174.74398512294675 L-138.82816261798393,201.8706052502806" stroke="#0d6d4d" stroke-width="0.1" fill="none" />
<path d="M173.45665834265887,-173.02539604519941 L-177.70972365351656,168.6542442958101" stroke="#0d6d4d" stroke-width="0.1" fill="none" />
<path d="M175.1709318150646,-171.28965131332947 L-208.84902514674664,128.09014284968842" stroke="#0d6d4d" stroke-width="0.1" fill="none" />
<path d="M176.8678369011684,-169.536923028294 L-230.88942465194813,81.94555255712392" stroke="#0d6d4d" stroke-width="0.1" fill="none" />
<path d="M178.54720535100583,-167.7673849749878 L-242.87069056289786,32.23084959322542" stroke="#0d6d4d" stroke-width="0.1" fill="none" />
<path d="M180.2088706533888,-165.98121260501196 L-244.2708364152603,-18.88805116969821" stroke="#0d6d4d" stroke-width="0.1" fill="none" />
<path d="M181.85266805241523,-164.17858301927836 L-235.0288622121687,-69.18405833176757" stroke="#0d6d4d" stroke-width="0.1" fill="none" />
<path d="M183.478434563805,-162.3596749504492 L-215.54741200422728,-116.46593140605495" stroke="#0d6d4d" stroke-width="0.1" fill="none" />
<path d="M185.08600899105983,-160.52466874521596 L-186.67523194144627,-158.67374634641752" stroke="#0d6d4d" stroke-width="0.1" fill="none" />
<path d="M186.6752319414462,-158.67374634641754 L-149.6701930451886,-193.96864002672177" stroke="#0d6d4d" stroke-width="0.1" fill="none" />
<path d="M188.24594584179917,-156.80709127500074 L-106.14448968286206,-220.81292378383287" stroke="#0d6d4d" stroke-width="0.1" fill="none" />
<path d="M189.7979949541461,-154.92488861182352 L-57.99440127724877,-238.03707572664692" stroke="#0d6d4d" stroke-width="0.1" fill="none" />
<path d="M191.33122539114814,-153.0273249793045 L-7.317677314177849,-244.89069316477824" stroke="#0d6d4d" stroke-width="0.1" fill="none" />
<path d="M192.84548513135832,-151.11458852291878 L43.67785507337543,-241.07518531816837" stroke="#0d6d4d" stroke-width="0.1" fill="none" />
<path d="M194.34062403429468,-149.1868688925434 L92.77047926166503,-226.7567819880168" stroke="#0d6d4d" stroke-width="0.1" fill="none" />
<path d="M195.81649385532677,-147.2443572236531 L137.82138241443042,-202.55929144172904" stroke="#0d6d4d" stroke-width="0.1" fill="none" />
<path d="M197.2729482603745,-145.28724611836924 L176.8678369011684,-169.536923028294" stroke="#0d6d4d" stroke-width="0.1" fill="none" />
<path d="M198.70984284041702,-143.31572962636298 L208.20871023105113,-129.12835855815013" stroke="#0d6d4d" stroke-width="0.1" fill="none" />
<path d="M200.12703512581118,-141.33000322561497 L230.47857810081723,-83.09407341456726" stroke="#0d6d4d" stroke-width="0.1" fill="none" />
<path d="M201.52438460041756,-139.33026380303377 L242.70721168181416,-33.439638120635585" stroke="#0d6d4d" stroke-width="0.1" fill="none" />
<path d="M202.90175271553284,-137.31670963493397 L244.36184747024853,17.671658126135195" stroke="#0d6d4d" stroke-width="0.1" fill="none" />
<path d="M204.25900290362685,-135.2895403673771 L235.37039813483275,68.01305523096518" stroke="#0d6d4d" stroke-width="0.1" fill="none" />
<path d="M205.59600059188364,-133.24895699637642 L216.1245931374391,115.39133520839601" stroke="#0d6d4d" stroke-width="0.1" fill="none" />
<path d="M206.91261321554433,-131.1951618479681 L187.4629122996944,157.74237386357885" stroke="#0d6d4d" stroke-width="0.1" fill="none" />
<path d="M208.20871023105113,-129.12835855815013 L150.63405584690045,193.22106825890617" stroke="#0d6d4d" stroke-width="0.1" fill="none" />
<path d="M209.48416312899096,-127.04875205269161 L107.24254242576716,220.2817221061646" stroke="#0d6d4d" stroke-width="0.1" fill="none" />
<path d="M210.73884544683705,-124.95654852681444 L59.178805221001554,237.74538694286954" stroke="#0d6d4d" stroke-width="0.1" fill="none" />
<path d="M211.97263278148802,-122.85195542474864 L8.536831665378296,244.85122524732645" stroke="#0d6d4d" stroke-width="0.1" fill="none" />
<path d="M213.1854028016027,-120.7351814191639 L-42.477065075220324,241.2896577613626" stroke="#0d6d4d" stroke-width="0.1" fill="none" />
<path d="M214.37703525972907,-118.60643639047962 L-91.64036829934476,227.21585089504748" stroke="#0d6d4d" stroke-width="0.1" fill="none" />
<path d="M215.5474120042272,-116.4659314060551 L-136.81118590512963,203.24295660915794" stroke="#0d6d4d" stroke-width="0.1" fill="none" />
<path d="M216.69641699098406,-114.31387869926188 L-176.02156596258496,170.41539929266764" stroke="#0d6d4d" stroke-width="0.1" fill="none" />
<path d="M217.82393629491935,-112.15049164844046 L-207.56323425398088,130.16337344286623" stroke="#0d6d4d" stroke-width="0.1" fill="none" />
<path d="M218.92985812128128,-109.97598475574401 L-230.06201846455255,84.24053454255785" stroke="#0d6d4d" stroke-width="0.1" fill="none" />
<path d="M220.01407281673136,-107.79057362586968 L-242.53771659317505,34.64759774888727" stroke="#0d6d4d" stroke-width="0.1" fill="none" />
<path d="M221.07647288021624,-105.59447494468172 L-244.44680130269765,-16.454827038879788" stroke="#0d6d4d" stroke-width="0.1" fill="none" />
<path d="M222.11695297362695,-103.38790645772643 L-235.70609971430707,-66.84036622782021" stroke="#0d6d4d" stroke-width="0.1" fill="none" />
<path d="M223.13540993224316,-101.1710869486426 L-216.69641699098412,-114.31387869926176" stroke="#0d6d4d" stroke-width="0.1" fill="none" />
<path d="M224.13174277496194,-98.944236217469 L-188.2459458417992,-156.80709127500072" stroke="#0d6d4d" stroke-width="0.1" fill="none" />
<path d="M225.10585271431023,-96.70757505885085 L-151.59418474330886,-192.46870694222358" stroke="#0d6d4d" stroke-width="0.1" fill="none" />
<path d="M226.05764316623987,-94.46132524014774 L-108.33793684884085,-219.74506010223885" stroke="#0d6d4d" stroke-width="0.1" fill="none" />
<path d="M226.98701975970377,-92.20570947944522 L-60.36174224511645,-237.4478049448639" stroke="#0d6d4d" stroke-width="0.1" fill="none" />
<path d="M227.89389034601308,-89.94095142347204 L-9.755774406256794,-244.80568797667718" stroke="#0d6d4d" stroke-width="0.1" fill="none" />
<path d="M228.77816500797377,-87.66727562542548 L41.27522215886791,-241.4981491352182" stroke="#0d6d4d" stroke-width="0.1" fill="none" />
<path d="M229.63975606880194,-85.38490752270647 L90.5079857626764,-227.66928759317355" stroke="#0d6d4d" stroke-width="0.1" fill="none" />
<path d="M230.47857810081723,-83.09407341456726 L135.7975981307545,-203.92158380592798" stroke="#0d6d4d" stroke-width="0.1" fill="none" />
<path d="M231.2945479339129,-80.79500043967363 L175.1709318150646,-171.28965131332947" stroke="#0d6d4d" stroke-width="0.1" fill="none" />
<path d="M232.08758466380237,-78.48791655358401 L206.91261321554433,-131.1951618479681" stroke="#0d6d4d" stroke-width="0.1" fill="none" />
<path d="M232.8576096600409,-76.17305050614706 L229.63975606880194,-85.38490752270647" stroke="#0d6d4d" stroke-width="0.1" fill="none" />
<path d="M233.6045465738218,-73.85063181882137 L242.36220949841172,-35.854698535170954" stroke="#0d6d4d" stroke-width="0.1" fill="none" />
<path d="M234.3283213455468,-71.52089076191764 L244.5256958067787,15.237588070646913" stroke="#0d6d4d" stroke-width="0.1" fill="none" />
<path d="M235.0288622121687,-69.18405833176763 L236.035958629247,65.6660203908566" stroke="#0d6d4d" stroke-width="0.1" fill="none" />
<path d="M235.70609971430707,-66.84036622782021 L217.2628693905369,113.23358858656076" stroke="#0d6d4d" stroke-width="0.1" fill="none" />
<path d="M236.35996670313523,-64.49004682966827 L189.02431315798606,155.8679217643952" stroke="#0d6d4d" stroke-width="0.1" fill="none" />
<path d="M236.99039834703785,-62.133333174008264 L152.55055593481313,191.7115747261481" stroke="#0d6d4d" stroke-width="0.1" fill="none" />
<path d="M237.5973321380394,-59.770458931533874 L109.43064579953139,219.20295107479166" stroke="#0d6d4d" stroke-width="0.1" fill="none" />
<path d="M238.1807078980017,-57.40165838376785 L61.54318302704205,237.1443371090695" stroke="#0d6d4d" stroke-width="0.1" fill="none" />
<path d="M238.74046778459063,-55.02716639983232 L10.974475321755463,244.75408248160474" stroke="#0d6d4d" stroke-width="0.1" fill="none" />
<path d="M239.27655629701144,-52.64721841316141 L-40.072356115507034,241.70065427166716" stroke="#0d6d4d" stroke-width="0.1" fill="none" />
<path d="M239.7889202815114,-50.2620503981579 L-89.37335972107061,228.11708084264123" stroke="#0d6d4d" stroke-width="0.1" fill="none" />
<path d="M240.27750893665043,-47.87189884679603 L-134.78064421604006,204.59515621028086" stroke="#0d6d4d" stroke-width="0.1" fill="none" />
<path d="M240.74227381833782,-45.47700074517285 L-174.31595554406073,172.159657419388" stroke="#0d6d4d" stroke-width="0.1" fill="none" />
<path d="M241.18316884463567,-43.0775935500111 L-206.2568632432855,132.22369819756454" stroke="#0d6d4d" stroke-width="0.1" fill="none" />
<path d="M241.6001503003279,-40.67391516511489 L-229.21180138057318,86.52716398838388" stroke="#0d6d4d" stroke-width="0.1" fill="none" />
<path d="M241.99317684125467,-38.26620391778153 L-242.18069474798037,37.060910557965855" stroke="#0d6d4d" stroke-width="0.1" fill="none" />
<path d="M242.36220949841172,-35.854698535170954 L-244.59852902686083,-14.01997139426178" stroke="#0d6d4d" stroke-width="0.1" fill="none" />
<path d="M242.70721168181416,-33.439638120635585 L-236.35996670313526,-64.49004682966817" stroke="#0d6d4d" stroke-width="0.1" fill="none" />
<path d="M243.02814918412437,-31.0212621300131 L-217.82393629491935,-112.15049164844046" stroke="#0d6d4d" stroke-width="0.1" fill="none" />
<path d="M243.32499018404388,-28.59981034788425 L-189.79799495414622,-154.9248886118234" stroke="#0d6d4d" stroke-width="0.1" fill="none" />
<path d="M243.59770524946825,-26.17552286379763 L-153.50314571495832,-190.9496903784143" stroke="#0d6d4d" stroke-width="0.1" fill="none" />
<path d="M243.84626734040538,-23.748640048464942 L-110.52064219185385,-218.65540846157958" stroke="#0d6d4d" stroke-width="0.1" fill="none" />
<path d="M244.0706518116566,-21.319402529927544 L-62.72309828131593,-236.8349909578236" stroke="#0d6d4d" stroke-width="0.1" fill="none" />
<path d="M244.2708364152603,-18.888051169698375 L-12.192904202810343,-244.6964100413022" stroke="#0d6d4d" stroke-width="0.1" fill="none" />
<path d="M244.44680130269765,-16.4548270388799 L38.86849676168805,-241.89716815102784" stroke="#0d6d4d" stroke-width="0.1" fill="none" />
<path d="M244.59852902686083,-14.019971394261841 L88.23651829954974,-228.55921954358615" stroke="#0d6d4d" stroke-width="0.1" fill="none" />
<path d="M244.72600454378278,-11.583725654400215 L133.76034936916113,-205.26365712575608" stroke="#0d6d4d" stroke-width="0.1" fill="none" />
<path d="M244.82921521412888,-9.14633137568059 L173.45665834265887,-173.02539604519941" stroke="#0d6d4d" stroke-width="0.1" fill="none" />
<path d="M244.90815080445017,-6.708030228367406 L205.59600059188364,-133.24895699637642" stroke="#0d6d4d" stroke-width="0.1" fill="none" />
<path d="M244.96280348819795,-4.269063972641972 L228.77816500797377,-87.66727562542548" stroke="#0d6d4d" stroke-width="0.1" fill="none" />
<path d="M244.99316784649986,-1.829674434631826 L241.99317684125467,-38.26620391778153" stroke="#0d6d4d" stroke-width="0.1" fill="none" />
<path d="M244.99924086869711,0.6098965175664968 L244.6652991575598,12.802007191912054" stroke="#0d6d4d" stroke-width="0.1" fill="none" />
<path d="M244.98102195264298,3.0494069978690486 L236.67811590448477,63.31247469419648" stroke="#0d6d4d" stroke-width="0.1" fill="none" />
<path d="M244.93851290476266,5.4886151261878435 L218.3796037964485,111.0646147326239" stroke="#0d6d4d" stroke-width="0.1" fill="none" />
<path d="M244.8717179398739,7.927279052413367 L190.56697205231512,153.97801519311824" stroke="#0d6d4d" stroke-width="0.1" fill="none" />
<path d="M244.78064368076937,10.365156980394381 L154.45193047102282,190.18307278455237" stroke="#0d6d4d" stroke-width="0.1" fill="none" />
<path d="M244.6652991575598,12.802007191912054 L111.60789900706197,218.10244583504664" stroke="#0d6d4d" stroke-width="0.1" fill="none" />
<path d="M244.5256958067787,15.237588070646913 L63.90145876029016,236.51977415917457" stroke="#0d6d4d" stroke-width="0.1" fill="none" />
<path d="M244.36184747024853,17.671658126135195 L13.411030847100529,244.63267208534944" stroke="#0d6d4d" stroke-width="0.1" fill="none" />
<path d="M244.173770393708,20.103976017712778 L-37.66367393858328,242.08768590212946" stroke="#0d6d4d" stroke-width="0.1" fill="none" />
<path d="M243.9614832252016,22.534300578444526 L-87.09748967805075,228.99569273630857" stroke="#0d6d4d" stroke-width="0.1" fill="none" />
<path d="M243.7250070132304,24.962390839036157 L-132.73673888110736,205.92706998160472" stroke="#0d6d4d" stroke-width="0.1" fill="none" />
<path d="M243.46436520466517,27.388006051726748 L-172.5930615110514,173.88684573090177" stroke="#0d6d4d" stroke-width="0.1" fill="none" />
<path d="M243.1795836424216,29.810905714159045 L-204.93004164275118,134.270912830368" stroke="#0d6d4d" stroke-width="0.1" fill="none" />
<path d="M242.87069056289786,32.23084959322536 L-228.33885769994853,88.8052141728325" stroke="#0d6d4d" stroke-width="0.1" fill="none" />
<path d="M242.53771659317505,34.647597748887264 L-241.79966042641388,39.47054873789998" stroke="#0d6d4d" stroke-width="0.1" fill="none" />
<path d="M242.1806947479804,37.06091055796569 L-244.72600454378278,-11.583725654400046" stroke="#0d6d4d" stroke-width="0.1" fill="none" />
<path d="M241.79966042641388,39.470548737899925 L-236.99039834703785,-62.13333317400821" stroke="#0d6d4d" stroke-width="0.1" fill="none" />
<path d="M241.3946514084383,41.87627337047253 L-218.92985812128137,-109.97598475574387" stroke="#0d6d4d" stroke-width="0.1" fill="none" />
<path d="M240.96570785113343,44.27784592549869 L-191.3312253911482,-153.02732497930444" stroke="#0d6d4d" stroke-width="0.1" fill="none" />
<path d="M240.51287228471435,46.67502828447653 L-155.39688668460357,-189.41174094741984" stroke="#0d6d4d" stroke-width="0.1" fill="none" />
<path d="M240.03618960831452,49.06758276419658 L-112.69238929431823,-217.54407690198747" stroke="#0d6d4d" stroke-width="0.1" fill="none" />
<path d="M239.53570708553403,51.455272140308914 L-65.07823525485655,-236.19869452669195" stroke="#0d6d4d" stroke-width="0.1" fill="none" />
<path d="M239.0114743397533,53.8378596708436 L-14.628825059797379,-244.5628701936781" stroke="#0d6d4d" stroke-width="0.1" fill="none" />
<path d="M238.46354334921298,56.21510911968436 L36.45791751124761,-242.27220280243264" stroke="#0d6d4d" stroke-width="0.1" fill="none" />
<path d="M237.89196844186012,58.586784779991376 L85.95630209072718,-229.4264896015446" stroke="#0d6d4d" stroke-width="0.1" fill="none" />
<path d="M237.29680628996152,60.952651497572035 L131.70983812505622,-206.58537833320025" stroke="#0d6d4d" stroke-width="0.1" fill="none" />
<path d="M236.67811590448477,63.31247469419648 L171.72518645600988,-174.74398512294675" stroke="#0d6d4d" stroke-width="0.1" fill="none" />
<path d="M236.035958629247,65.6660203908566 L204.25900290362685,-135.2895403673771" stroke="#0d6d4d" stroke-width="0.1" fill="none" />
<path d="M235.37039813483275,68.01305523096518 L227.89389034601308,-89.94095142347204" stroke="#0d6d4d" stroke-width="0.1" fill="none" />
<path d="M234.6815004122809,70.3533465034933 L241.6001503003279,-40.67391516511489" stroke="#0d6d4d" stroke-width="0.1" fill="none" />
<path d="M233.96933376654167,72.68666216604412 L244.78064368076937,10.365156980394381" stroke="#0d6d4d" stroke-width="0.1" fill="none" />
<path d="M233.23396880970392,75.01277086785991 L237.29680628996152,60.952651497572035" stroke="#0d6d4d" stroke-width="0.1" fill="none" />
<path d="M232.47547845399413,77.33144197276106 L219.47468562975632,108.8846287026761" stroke="#0d6d4d" stroke-width="0.1" fill="none" />
<path d="M231.69393790454683,79.64244558201355 L192.0907360263929,152.07284153601736" stroke="#0d6d4d" stroke-width="0.1" fill="none" />
<path d="M230.8894246519482,81.94555255712376 L156.33799093219903,188.63571398673065" stroke="#0d6d4d" stroke-width="0.1" fill="none" />
<path d="M230.06201846455252,84.24053454255795 L113.77408617136145,216.98031550320786" stroke="#0d6d4d" stroke-width="0.1" fill="none" />
<path d="M229.21180138057318,86.52716398838382 L66.2533985951703,235.87176001927293" stroke="#0d6d4d" stroke-width="0.1" fill="none" />
<path d="M228.33885769994862,88.80521417283235 L15.846256654312308,244.48700609653199" stroke="#0d6d4d" stroke-width="0.1" fill="none" />
<path d="M227.44327397598363,91.07445922477743 L-35.25125736787777,242.45071427814693" stroke="#0d6d4d" stroke-width="0.1" fill="none" />
<path d="M226.52513900676777,93.33467414613142 L-84.81298382524814,229.85159946073512" stroke="#0d6d4d" stroke-width="0.1" fill="none" />
<path d="M225.58454382637075,95.5856348341539 L-130.67967255574402,207.23856586244636" stroke="#0d6d4d" stroke-width="0.1" fill="none" />
<path d="M224.62158169581645,97.8271181036713 L-170.85305469035364,175.59679297462986" stroke="#0d6d4d" stroke-width="0.1" fill="none" />
<path d="M223.63634809383584,100.05890170920674 L-203.58290100816686,136.30481435774354" stroke="#0d6d4d" stroke-width="0.1" fill="none" />
<path d="M222.62894070740026,102.28076436701504 L-227.4432739759836,91.07445922477754" stroke="#0d6d4d" stroke-width="0.1" fill="none" />
<path d="M221.59945942203564,104.49248577702409 L-241.3946514084383,41.87627337047276" stroke="#0d6d4d" stroke-width="0.1" fill="none" />
<path d="M220.5480063119187,106.69384664467708 L-244.82921521412888,-9.146331375680532" stroke="#0d6d4d" stroke-width="0.1" fill="none" />
<path d="M219.47468562975632,108.8846287026761 L-237.59733213803946,-59.77045893153371" stroke="#0d6d4d" stroke-width="0.1" fill="none" />
<path d="M218.3796037964485,111.0646147326239 L-220.01407281673139,-107.79057362586963" stroke="#0d6d4d" stroke-width="0.1" fill="none" />
<path d="M217.2628693905369,113.23358858656076 L-192.84548513135846,-151.1145885229186" stroke="#0d6d4d" stroke-width="0.1" fill="none" />
<path d="M216.1245931374391,115.39133520839601 L-157.2752198857902,-187.85501113858086" stroke="#0d6d4d" stroke-width="0.1" fill="none" />
<path d="M214.96488789846973,117.53764065523157 L-114.85296282517324,-216.4111756131817" stroke="#0d6d4d" stroke-width="0.1" fill="none" />
<path d="M213.78386865965084,119.67229211857342 L-67.42691965137382,-235.53897874094466" stroke="#0d6d4d" stroke-width="0.1" fill="none" />
<path d="M212.58165252031003,121.79507794543325 L-17.063295453045306,-244.40508167442442" stroke="#0d6d4d" stroke-width="0.1" fill="none" />
<path d="M211.35835868147075,123.90578765931299 L34.0437234190721,-242.6232159043436" stroke="#0d6d4d" stroke-width="0.1" fill="none" />
<path d="M210.11410843403291,126.00421198107414 L83.66756322209842,-230.27101177628973" stroke="#0d6d4d" stroke-width="0.1" fill="none" />
<path d="M208.8490251467467,128.09014284968833 L129.64626770883518,-207.8866163781811" stroke="#0d6d4d" stroke-width="0.1" fill="none" />
<path d="M207.56323425398085,130.16337344286626 L169.97668783241755,-176.44524814661594" stroke="#0d6d4d" stroke-width="0.1" fill="none" />
<path d="M206.25686324328547,132.22369819756457 L202.90175271553284,-137.31670963493397" stroke="#0d6d4d" stroke-width="0.1" fill="none" />
<path d="M204.9300416427512,134.2709128303679 L226.98701975970377,-92.20570947944522" stroke="#0d6d4d" stroke-width="0.1" fill="none" />
<path d="M203.58290100816703,136.3048143577433 L241.18316884463567,-43.0775935500111" stroke="#0d6d4d" stroke-width="0.1" fill="none" />
<path d="M202.2155749099757,138.32520111616685 L244.8717179398739,7.927279052413367" stroke="#0d6d4d" stroke-width="0.1" fill="none" />
<path d="M200.8281989200305,140.33187278211838 L237.89196844186012,58.586784779991376" stroke="#0d6d4d" stroke-width="0.1" fill="none" />
<path d="M199.4209105981533,142.32463039194354 L220.5480063119187,106.69384664467708" stroke="#0d6d4d" stroke-width="0.1" fill="none" />
<path d="M197.99384947849475,144.30327636158216 L193.59545399738235,150.15258969310992" stroke="#0d6d4d" stroke-width="0.1" fill="none" />
<path d="M196.54715705569987,146.26761450615805 L158.20855031341833,187.06965175497223" stroke="#0d6d4d" stroke-width="0.1" fill="none" />
<path d="M195.0809767708783,148.21745005943146 L115.92899251264244,215.83667133970468" stroke="#0d6d4d" stroke-width="0.1" fill="none" />
<path d="M193.59545399738235,150.15258969310992 L68.598769334318,235.20035894066368" stroke="#0d6d4d" stroke-width="0.1" fill="none" />
<path d="M192.0907360263929,152.07284153601736 L18.2799112881326,244.31709895809175" stroke="#0d6d4d" stroke-width="0.1" fill="none" />
<path d="M190.56697205231512,153.97801519311824 L-32.83534559708836,242.7897034050657" stroke="#0d6d4d" stroke-width="0.1" fill="none" />
<path d="M189.02431315798606,155.8679217643952 L-82.52006867387499,230.6847161518486" stroke="#0d6d4d" stroke-width="0.1" fill="none" />
<path d="M187.4629122996944,157.74237386357885 L-128.60964920028889,208.52951381657854" stroke="#0d6d4d" stroke-width="0.1" fill="none" />
<path d="M185.88292429201456,159.6011856367276 L-169.09610760551516,177.2893296074641" stroke="#0d6d4d" stroke-width="0.1" fill="none" />
<path d="M184.284505792457,161.4441727806547 L-202.21557490997557,138.32520111616702" stroke="#0d6d4d" stroke-width="0.1" fill="none" />
<path d="M182.66781528593515,163.2711525612025 L-226.52513900676766,93.33467414613168" stroke="#0d6d4d" stroke-width="0.1" fill="none" />
<path d="M181.03301306905172,165.08194383136077 L-240.96570785113343,44.27784592549885" stroke="#0d6d4d" stroke-width="0.1" fill="none" />
<path d="M179.38026123420488,166.87636704922727 L-244.9081508044502,-6.708030228367182" stroke="#0d6d4d" stroke-width="0.1" fill="none" />
<path d="M177.70972365351662,168.65424429581 L-238.18070789800174,-57.40165838376774" stroke="#0d6d4d" stroke-width="0.1" fill="none" />
<path d="M176.02156596258493,170.41539929266767 L-221.07647288021633,-105.59447494468152" stroke="#0d6d4d" stroke-width="0.1" fill="none" />
<path d="M174.31595554406078,172.15965741938794 L-194.34062403429473,-149.1868688925433" stroke="#0d6d4d" stroke-width="0.1" fill="none" />
<path d="M172.5930615110515,173.88684573090165 L-159.13795907976137,-186.279655303332" stroke="#0d6d4d" stroke-width="0.1" fill="none" />
<path d="M170.8530546903538,175.59679297462975 L-117.00214856122902,-215.25681692354388" stroke="#0d6d4d" stroke-width="0.1" fill="none" />
<path d="M169.09610760551524,177.289329607464 L-69.76891859628402,-234.85590901211125" stroke="#0d6d4d" stroke-width="0.1" fill="none" />
<path d="M167.32239445972922,178.96428781257663 L-19.496074002195698,-244.22306012844263" stroke="#0d6d4d" stroke-width="0.1" fill="none" />
<path d="M165.53209111856188,180.6215015160602 L31.626153855102427,-242.95017265343398" stroke="#0d6d4d" stroke-width="0.1" fill="none" />
<path d="M163.72537509251518,182.2608064033933 L81.37052862458405,-231.09270233253957" stroke="#0d6d4d" stroke-width="0.1" fill="none" />
<path d="M161.9024255194264,183.88203993573322 L127.56984272572434,-209.1672422415469" stroke="#0d6d4d" stroke-width="0.1" fill="none" />
<path d="M160.06342314670636,185.48504136603157 L168.21133583740107,-178.1290164341483" stroke="#0d6d4d" stroke-width="0.1" fill="none" />
<path d="M158.20855031341833,187.06965175497223 L201.52438460041756,-139.33026380303377" stroke="#0d6d4d" stroke-width="0.1" fill="none" />
<path d="M156.33799093219903,188.63571398673065 L226.05764316623987,-94.46132524014774" stroke="#0d6d4d" stroke-width="0.1" fill="none" />
<path d="M154.45193047102282,190.18307278455237 L240.74227381833782,-45.47700074517285" stroke="#0d6d4d" stroke-width="0.1" fill="none" />
<path d="M152.55055593481313,191.7115747261481 L244.93851290476266,5.4886151261878435" stroke="#0d6d4d" stroke-width="0.1" fill="none" />
<path d="M150.63405584690045,193.22106825890617 L238.46354334921298,56.21510911968436" stroke="#0d6d4d" stroke-width="0.1" fill="none" />
<path d="M148.70262023032967,194.71140371491947 L221.59945942203564,104.49248577702409" stroke="#0d6d4d" stroke-width="0.1" fill="none" />
<path d="M146.75644058901972,196.18243332582438 L195.0809767708783,148.21745005943146" stroke="#0d6d4d" stroke-width="0.1" fill="none" />
<path d="M144.7957098887753,197.6340112374528 L160.06342314670636,185.48504136603157" stroke="#0d6d4d" stroke-width="0.1" fill="none" />
<path d="M142.82062253815434,199.06599352429348 L118.0724043696236,214.67162673808593" stroke="#0d6d4d" stroke-width="0.1" fill="none" />
<path d="M140.83137436919205,200.47823820376234 L70.93733843170203,234.50563749348578" stroke="#0d6d4d" stroke-width="0.1" fill="none" />
<path d="M138.8281626179839,201.87060525028062 L20.711753449087052,244.12296751650433" stroke="#0d6d4d" stroke-width="0.1" fill="none" />
<path d="M136.8111859051297,203.24295660915791 L-30.416178166465365,243.10461967174922" stroke="#0d6d4d" stroke-width="0.1" fill="none" />
<path d="M134.7806442160401,204.59515621028086 L-80.218971568935,231.49496020523299" stroke="#0d6d4d" stroke-width="0.1" fill="none" />
<path d="M132.73673888110739,205.9270699816047 L-126.52687405978382,209.7997858451233" stroke="#0d6d4d" stroke-width="0.1" fill="none" />
<path d="M130.67967255574416,207.23856586244628 L-167.3223944597292,178.96428781257669" stroke="#0d6d4d" stroke-width="0.1" fill="none" />
<path d="M128.6096492002889,208.52951381657854 L-200.8281989200305,140.33187278211835" stroke="#0d6d4d" stroke-width="0.1" fill="none" />
<path d="M126.52687405978396,209.7997858451232 L-225.5845438263708,95.58563483415378" stroke="#0d6d4d" stroke-width="0.1" fill="none" />
<path d="M124.4315536436247,211.0492559992424 L-240.51287228471435,46.67502828447654" stroke="#0d6d4d" stroke-width="0.1" fill="none" />
<path d="M122.32389570508407,212.27780039262635 L-244.96280348819795,-4.26906397264202" stroke="#0d6d4d" stroke-width="0.1" fill="none" />
<path d="M120.2041092207138,213.48529721377702 L-238.74046778459066,-55.02716639983226" stroke="#0d6d4d" stroke-width="0.1" fill="none" />
<path d="M118.0724043696236,214.67162673808593 L-222.11695297362692,-103.38790645772647" stroke="#0d6d4d" stroke-width="0.1" fill="none" />
<path d="M115.92899251264244,215.83667133970468 L-195.81649385532683,-147.24435722365308" stroke="#0d6d4d" stroke-width="0.1" fill="none" />
<path d="M113.77408617136145,216.98031550320786 L-160.98491957392199,-184.68582963989923" stroke="#0d6d4d" stroke-width="0.1" fill="none" />
<path d="M111.60789900706197,218.10244583504664 L-119.13973340840836,-214.08111528897962" stroke="#0d6d4d" stroke-width="0.1" fill="none" />
<path d="M109.43064579953139,219.20295107479166 L-72.1039998778721,-234.14955306729036" stroke="#0d6d4d" stroke-width="0.1" fill="none" />
<path d="M107.24254242576716,220.2817221061646 L-21.926919494638955,-244.01682360336474" stroke="#0d6d4d" stroke-width="0.1" fill="none" />
<path d="M105.04380583857208,221.33865196785757 L29.205448523961177,-243.25304063159058" stroke="#0d6d4d" stroke-width="0.1" fill="none" />
<path d="M102.83465404504386,222.3736358641378 L79.06542605163504,-231.89147979879172" stroke="#0d6d4d" stroke-width="0.1" fill="none" />
<path d="M100.61530608495892,223.3865711752388 L125.48076905549414,-210.42712894786584" stroke="#0d6d4d" stroke-width="0.1" fill="none" />
<path d="M98.38598200905466,224.37735746753498 L166.42930550750953,-179.79512303810705" stroke="#0d6d4d" stroke-width="0.1" fill="none" />
<path d="M96.14690285721112,225.34589650349972 L200.12703512581118,-141.33000322561497" stroke="#0d6d4d" stroke-width="0.1" fill="none" />
<path d="M93.89829063653434,226.29209225144595 L225.10585271431023,-96.70757505885085" stroke="#0d6d4d" stroke-width="0.1" fill="none" />
<path d="M91.64036829934471,227.21585089504748 L240.27750893665043,-47.87189884679603" stroke="#0d6d4d" stroke-width="0.1" fill="none" />
<path d="M89.37335972107066,228.11708084264123 L244.98102195264298,3.0494069978690486" stroke="#0d6d4d" stroke-width="0.1" fill="none" />
<path d="M87.09748967805089,228.9956927363085 L239.0114743397533,53.8378596708436" stroke="#0d6d4d" stroke-width="0.1" fill="none" />
<path d="M84.81298382524828,229.85159946073506 L222.62894070740026,102.28076436701504" stroke="#0d6d4d" stroke-width="0.1" fill="none" />
<path d="M82.52006867387514,230.68471615184853 L196.54715705569987,146.26761450615805" stroke="#0d6d4d" stroke-width="0.1" fill="none" />
<path d="M80.21897156893506,231.49496020523296 L161.9024255194264,183.88203993573322" stroke="#0d6d4d" stroke-width="0.1" fill="none" />
<path d="M77.90992066668103,232.2822512843189 L120.2041092207138,213.48529721377702" stroke="#0d6d4d" stroke-width="0.1" fill="none" />
<path d="M75.59314491199362,233.04651132834906 L73.26887401568092,233.78766456011806" stroke="#0d6d4d" stroke-width="0.1" fill="none" />
<path d="M73.26887401568092,233.78766456011806 L23.141542017409634,243.90463102011094" stroke="#0d6d4d" stroke-width="0.1" fill="none" />
<path d="M70.93733843170203,234.50563749348578 L-27.99399493906198,243.39543185391088" stroke="#0d6d4d" stroke-width="0.1" fill="none" />
<path d="M68.598769334318,235.20035894066368 L-77.90992066668099,232.28225128431893" stroke="#0d6d4d" stroke-width="0.1" fill="none" />
<path d="M66.2533985951703,235.87176001927293 L-124.43155364362464,211.0492559992424" stroke="#0d6d4d" stroke-width="0.1" fill="none" />
<path d="M63.90145876029016,236.51977415917457 L-165.53209111856185,180.6215015160602" stroke="#0d6d4d" stroke-width="0.1" fill="none" />
<path d="M61.54318302704205,237.1443371090695 L-199.42091059815334,142.32463039194351" stroke="#0d6d4d" stroke-width="0.1" fill="none" />
<path d="M59.178805221001554,237.74538694286954 L-224.62158169581645,97.82711810367135" stroke="#0d6d4d" stroke-width="0.1" fill="none" />
<path d="M56.80855977277104,238.32286406583717 L-240.03618960831452,49.06758276419653" stroke="#0d6d4d" stroke-width="0.1" fill="none" />
<path d="M54.432681694736225,238.8767112204945 L-244.99316784649986,-1.829674434631766" stroke="#0d6d4d" stroke-width="0.1" fill="none" />
<path d="M52.05140655776402,239.40687349230046 L-239.2765562970114,-52.647218413161454" stroke="#0d6d4d" stroke-width="0.1" fill="none" />
<path d="M49.66497046784554,239.91329831509555 L-223.13540993224316,-101.17108694864254" stroke="#0d6d4d" stroke-width="0.1" fill="none" />
<path d="M47.27361004268604,240.39593547631384 L-197.27294826037448,-145.2872461183693" stroke="#0d6d4d" stroke-width="0.1" fill="none" />
<path d="M44.87756238824358,240.85473712196176 L-162.81591824015302,-183.07369217781076" stroke="#0d6d4d" stroke-width="0.1" fill="none" />
<path d="M42.477065075220374,241.2896577613626 L-121.26550542287454,-212.8841872815705" stroke="#0d6d4d" stroke-width="0.1" fill="none" />
<path d="M40.07235611550709,241.70065427166716 L-74.4319319703182,-233.4199809424333" stroke="#0d6d4d" stroke-width="0.1" fill="none" />
<path d="M37.66367393858333,242.08768590212944 L-24.355590909429903,-243.78639254776402" stroke="#0d6d4d" stroke-width="0.1" fill="none" />
<path d="M35.25125736787793,242.4507142781469 L26.781847441185636,-243.5317898091275" stroke="#0d6d4d" stroke-width="0.1" fill="none" />
<path d="M32.83534559708842,242.7897034050657 L76.7524840566509,-232.6672649754012" stroke="#0d6d4d" stroke-width="0.1" fill="none" />
<path d="M30.416178166465535,243.1046196717492 L123.37925383204593,-211.66615157801584" stroke="#0d6d4d" stroke-width="0.1" fill="none" />
<path d="M27.993994939062148,243.39543185391085 L164.63077353296694,-181.4434027622304" stroke="#0d6d4d" stroke-width="0.1" fill="none" />
<path d="M25.569036076950223,243.66211111721006 L198.70984284041702,-143.31572962636298" stroke="#0d6d4d" stroke-width="0.1" fill="none" />
<path d="M23.141542017409634,243.90463102011094 L224.13174277496194,-98.944236217469" stroke="#0d6d4d" stroke-width="0.1" fill="none" />
<path d="M20.711753449087052,244.12296751650433 L239.7889202815114,-50.2620503981579" stroke="#0d6d4d" stroke-width="0.1" fill="none" />
<path d="M18.2799112881326,244.31709895809175 L244.99924086869711,0.6098965175664968" stroke="#0d6d4d" stroke-width="0.1" fill="none" />
<path d="M15.846256654312308,244.48700609653199 L239.53570708553403,51.455272140308914" stroke="#0d6d4d" stroke-width="0.1" fill="none" />
<path d="M13.411030847100529,244.63267208534944 L223.63634809383584,100.05890170920674" stroke="#0d6d4d" stroke-width="0.1" fill="none" />
<path d="M10.974475321755463,244.75408248160474 L197.99384947849475,144.30327636158216" stroke="#0d6d4d" stroke-width="0.1" fill="none" />
<path d="M8.536831665378296,244.85122524732645 L163.72537509251518,182.2608064033933" stroke="#0d6d4d" stroke-width="0.1" fill="none" />
<path d="M6.098341572959248,244.92409075070486 L122.32389570508407,212.27780039262635" stroke="#0d6d4d" stroke-width="0.1" fill="none" />
<path d="M3.6592468234139157,244.972671767047 L75.59314491199362,233.04651132834906" stroke="#0d6d4d" stroke-width="0.1" fill="none" />
<path d="M1.2197892556101855,244.99696347949273 L25.569036076950223,243.66211111721006" stroke="#0d6d4d" stroke-width="0.1" fill="none" />
<path d="M-1.2197892556102343,244.99696347949273 L-25.569036076950162,243.66211111721006" stroke="#0d6d4d" stroke-width="0.1" fill="none" />
<path d="M-3.6592468234138558,244.972671767047 L-75.59314491199368,233.04651132834906" stroke="#0d6d4d" stroke-width="0.1" fill="none" />
<path d="M-6.098341572959188,244.92409075070486 L-122.32389570508403,212.27780039262638" stroke="#0d6d4d" stroke-width="0.1" fill="none" />
<path d="M-8.536831665378234,244.85122524732645 L-163.7253750925152,182.26080640339327" stroke="#0d6d4d" stroke-width="0.1" fill="none" />
<path d="M-10.974475321755401,244.75408248160477 L-197.99384947849472,144.30327636158225" stroke="#0d6d4d" stroke-width="0.1" fill="none" />
<path d="M-13.411030847100468,244.63267208534947 L-223.63634809383586,100.05890170920668" stroke="#0d6d4d" stroke-width="0.1" fill="none" />
<path d="M-15.846256654312137,244.48700609653199 L-239.535707085534,51.45527214030897" stroke="#0d6d4d" stroke-width="0.1" fill="none" />
<path d="M-18.27991128813254,244.31709895809175 L-244.99924086869711,0.609896517566448" stroke="#0d6d4d" stroke-width="0.1" fill="none" />
<path d="M-20.71175344908699,244.12296751650433 L-239.78892028151142,-50.26205039815785" stroke="#0d6d4d" stroke-width="0.1" fill="none" />
<path d="M-23.141542017409463,243.90463102011094 L-224.1317427749619,-98.94423621746904" stroke="#0d6d4d" stroke-width="0.1" fill="none" />
<path d="M-25.569036076950162,243.66211111721006 L-198.70984284041708,-143.3157296263629" stroke="#0d6d4d" stroke-width="0.1" fill="none" />
<path d="M-27.99399493906198,243.39543185391088 L-164.6307735329669,-181.44340276223042" stroke="#0d6d4d" stroke-width="0.1" fill="none" />
<path d="M-30.416178166465365,243.10461967174922 L-123.37925383204602,-211.6661515780158" stroke="#0d6d4d" stroke-width="0.1" fill="none" />
<path d="M-32.83534559708836,242.7897034050657 L-76.75248405665087,-232.6672649754012" stroke="#0d6d4d" stroke-width="0.1" fill="none" />
<path d="M-35.25125736787777,242.45071427814693 L-26.781847441185718,-243.5317898091275" stroke="#0d6d4d" stroke-width="0.1" fill="none" />
<path d="M-37.66367393858328,242.08768590212946 L24.355590909429964,-243.78639254776402" stroke="#0d6d4d" stroke-width="0.1" fill="none" />
<path d="M-40.072356115507034,241.70065427166716 L74.43193197031816,-233.4199809424333" stroke="#0d6d4d" stroke-width="0.1" fill="none" />
<path d="M-42.477065075220324,241.2896577613626 L121.26550542287461,-212.88418728157046" stroke="#0d6d4d" stroke-width="0.1" fill="none" />
<path d="M-44.87756238824363,240.85473712196176 L162.81591824015297,-183.07369217781078" stroke="#0d6d4d" stroke-width="0.1" fill="none" />
<path d="M-47.27361004268598,240.39593547631387 L197.2729482603745,-145.28724611836924" stroke="#0d6d4d" stroke-width="0.1" fill="none" />
<path d="M-49.66497046784559,239.91329831509555 L223.13540993224316,-101.1710869486426" stroke="#0d6d4d" stroke-width="0.1" fill="none" />
<path d="M-52.05140655776397,239.40687349230046 L239.27655629701144,-52.64721841316141" stroke="#0d6d4d" stroke-width="0.1" fill="none" />
<path d="M-54.432681694736175,238.8767112204945 L244.99316784649986,-1.829674434631826" stroke="#0d6d4d" stroke-width="0.1" fill="none" />
<path d="M-56.80855977277088,238.32286406583722 L240.03618960831452,49.06758276419658" stroke="#0d6d4d" stroke-width="0.1" fill="none" />
<path d="M-59.1788052210015,237.74538694286954 L224.62158169581645,97.8271181036713" stroke="#0d6d4d" stroke-width="0.1" fill="none" />
<path d="M-61.543183027041884,237.14433710906954 L199.4209105981533,142.32463039194354" stroke="#0d6d4d" stroke-width="0.1" fill="none" />
<path d="M-63.90145876029011,236.51977415917457 L165.53209111856188,180.6215015160602" stroke="#0d6d4d" stroke-width="0.1" fill="none" />
<path d="M-66.25339859517025,235.87176001927295 L124.4315536436247,211.0492559992424" stroke="#0d6d4d" stroke-width="0.1" fill="none" />
<path d="M-68.59876933431795,235.2003589406637 L77.90992066668103,232.2822512843189" stroke="#0d6d4d" stroke-width="0.1" fill="none" />
<path d="M-70.93733843170209,234.50563749348578 L27.993994939062148,243.39543185391085" stroke="#0d6d4d" stroke-width="0.1" fill="none" />
<path d="M-73.26887401568075,233.7876645601181 L-23.141542017409463,243.90463102011094" stroke="#0d6d4d" stroke-width="0.1" fill="none" />
<path d="M-75.59314491199368,233.04651132834906 L-73.26887401568075,233.7876645601181" stroke="#0d6d4d" stroke-width="0.1" fill="none" />
<path d="M-77.90992066668099,232.28225128431893 L-120.20410922071375,213.48529721377705" stroke="#0d6d4d" stroke-width="0.1" fill="none" />
<path d="M-80.218971568935,231.49496020523299 L-161.90242551942626,183.88203993573333" stroke="#0d6d4d" stroke-width="0.1" fill="none" />
<path d="M-82.52006867387499,230.6847161518486 L-196.5471570556998,146.2676145061581" stroke="#0d6d4d" stroke-width="0.1" fill="none" />
<path d="M-84.81298382524814,229.85159946073512 L-222.6289407074002,102.2807643670152" stroke="#0d6d4d" stroke-width="0.1" fill="none" />
<path d="M-87.09748967805075,228.99569273630857 L-239.0114743397533,53.837859670843606" stroke="#0d6d4d" stroke-width="0.1" fill="none" />
<path d="M-89.37335972107061,228.11708084264123 L-244.98102195264298,3.049406997869163" stroke="#0d6d4d" stroke-width="0.1" fill="none" />
<path d="M-91.64036829934476,227.21585089504748 L-240.27750893665043,-47.87189884679602" stroke="#0d6d4d" stroke-width="0.1" fill="none" />
<path d="M-93.89829063653428,226.29209225144598 L-225.10585271431026,-96.70757505885076" stroke="#0d6d4d" stroke-width="0.1" fill="none" />
<path d="M-96.14690285721107,225.34589650349974 L-200.12703512581118,-141.33000322561497" stroke="#0d6d4d" stroke-width="0.1" fill="none" />
<path d="M-98.38598200905462,224.377357467535 L-166.4293055075096,-179.79512303810696" stroke="#0d6d4d" stroke-width="0.1" fill="none" />
<path d="M-100.61530608495897,223.38657117523877 L-125.48076905549414,-210.42712894786584" stroke="#0d6d4d" stroke-width="0.1" fill="none" />
<path d="M-102.8346540450437,222.37363586413784 L-79.06542605163516,-231.8914797987917" stroke="#0d6d4d" stroke-width="0.1" fill="none" />
<path d="M-105.04380583857204,221.33865196785757 L-29.205448523961177,-243.25304063159058" stroke="#0d6d4d" stroke-width="0.1" fill="none" />
<path d="M-107.24254242576701,220.2817221061647 L21.926919494638938,-244.01682360336474" stroke="#0d6d4d" stroke-width="0.1" fill="none" />
<path d="M-109.43064579953133,219.20295107479168 L72.10399987787218,-234.14955306729033" stroke="#0d6d4d" stroke-width="0.1" fill="none" />
<path d="M-111.60789900706202,218.10244583504664 L119.13973340840835,-214.08111528897965" stroke="#0d6d4d" stroke-width="0.1" fill="none" />
<path d="M-113.7740861713613,216.98031550320792 L160.984919573922,-184.68582963989917" stroke="#0d6d4d" stroke-width="0.1" fill="none" />
<path d="M-115.9289925126425,215.83667133970465 L195.81649385532677,-147.2443572236531" stroke="#0d6d4d" stroke-width="0.1" fill="none" />
<path d="M-118.07240436962357,214.67162673808596 L222.11695297362695,-103.38790645772643" stroke="#0d6d4d" stroke-width="0.1" fill="none" />
<path d="M-120.20410922071375,213.48529721377705 L238.74046778459063,-55.02716639983232" stroke="#0d6d4d" stroke-width="0.1" fill="none" />
<path d="M-122.32389570508403,212.27780039262638 L244.96280348819795,-4.269063972641972" stroke="#0d6d4d" stroke-width="0.1" fill="none" />
<path d="M-124.43155364362464,211.0492559992424 L240.51287228471435,46.67502828447653" stroke="#0d6d4d" stroke-width="0.1" fill="none" />
<path d="M-126.52687405978382,209.7997858451233 L225.58454382637075,95.5856348341539" stroke="#0d6d4d" stroke-width="0.1" fill="none" />
<path d="M-128.60964920028889,208.52951381657854 L200.8281989200305,140.33187278211838" stroke="#0d6d4d" stroke-width="0.1" fill="none" />
<path d="M-130.67967255574402,207.23856586244636 L167.32239445972922,178.96428781257663" stroke="#0d6d4d" stroke-width="0.1" fill="none" />
<path d="M-132.73673888110736,205.92706998160472 L126.52687405978396,209.7997858451232" stroke="#0d6d4d" stroke-width="0.1" fill="none" />
<path d="M-134.78064421604006,204.59515621028086 L80.21897156893506,231.49496020523296" stroke="#0d6d4d" stroke-width="0.1" fill="none" />
<path d="M-136.81118590512963,203.24295660915794 L30.416178166465535,243.1046196717492" stroke="#0d6d4d" stroke-width="0.1" fill="none" />
<path d="M-138.82816261798393,201.8706052502806 L-20.71175344908699,244.12296751650433" stroke="#0d6d4d" stroke-width="0.1" fill="none" />
<path d="M-140.83137436919202,200.47823820376237 L-70.93733843170209,234.50563749348578" stroke="#0d6d4d" stroke-width="0.1" fill="none" />
<path d="M-142.82062253815434,199.06599352429342 L-118.07240436962357,214.67162673808596" stroke="#0d6d4d" stroke-width="0.1" fill="none" />
<path d="M-144.79570988877524,197.63401123745282 L-160.06342314670638,185.4850413660315" stroke="#0d6d4d" stroke-width="0.1" fill="none" />
<path d="M-146.75644058901966,196.18243332582443 L-195.08097677087815,148.21745005943157" stroke="#0d6d4d" stroke-width="0.1" fill="none" />
<path d="M-148.70262023032953,194.71140371491956 L-221.5994594220356,104.49248577702414" stroke="#0d6d4d" stroke-width="0.1" fill="none" />
<path d="M-150.6340558469004,193.22106825890623 L-238.46354334921296,56.21510911968452" stroke="#0d6d4d" stroke-width="0.1" fill="none" />
<path d="M-152.550555934813,191.71157472614814 L-244.93851290476263,5.488615126187904" stroke="#0d6d4d" stroke-width="0.1" fill="none" />
<path d="M-154.45193047102276,190.1830727845524 L-240.74227381833785,-45.47700074517269" stroke="#0d6d4d" stroke-width="0.1" fill="none" />
<path d="M-156.337990932199,188.63571398673068 L-226.05764316623987,-94.46132524014769" stroke="#0d6d4d" stroke-width="0.1" fill="none" />
<path d="M-158.20855031341833,187.06965175497226 L-201.52438460041768,-139.33026380303363" stroke="#0d6d4d" stroke-width="0.1" fill="none" />
<path d="M-160.06342314670638,185.4850413660315 L-168.2113358374011,-178.12901643414824" stroke="#0d6d4d" stroke-width="0.1" fill="none" />
<path d="M-161.90242551942626,183.88203993573333 L-127.56984272572446,-209.1672422415468" stroke="#0d6d4d" stroke-width="0.1" fill="none" />
<path d="M-163.7253750925152,182.26080640339327 L-81.37052862458428,-231.0927023325395" stroke="#0d6d4d" stroke-width="0.1" fill="none" />
<path d="M-165.53209111856185,180.6215015160602 L-31.62615385510256,-242.95017265343398" stroke="#0d6d4d" stroke-width="0.1" fill="none" />
<path d="M-167.3223944597292,178.96428781257669 L19.49607400219561,-244.22306012844263" stroke="#0d6d4d" stroke-width="0.1" fill="none" />
<path d="M-169.09610760551516,177.2893296074641 L69.76891859628384,-234.8559090121113" stroke="#0d6d4d" stroke-width="0.1" fill="none" />
<path d="M-170.85305469035364,175.59679297462986 L117.00214856122895,-215.25681692354394" stroke="#0d6d4d" stroke-width="0.1" fill="none" />
<path d="M-172.5930615110514,173.88684573090177 L159.13795907976126,-186.27965530333213" stroke="#0d6d4d" stroke-width="0.1" fill="none" />
<path d="M-174.31595554406073,172.159657419388 L194.34062403429468,-149.1868688925434" stroke="#0d6d4d" stroke-width="0.1" fill="none" />
<path d="M-176.02156596258496,170.41539929266764 L221.07647288021624,-105.59447494468172" stroke="#0d6d4d" stroke-width="0.1" fill="none" />
<path d="M-177.70972365351656,168.6542442958101 L238.1807078980017,-57.40165838376785" stroke="#0d6d4d" stroke-width="0.1" fill="none" />
<path d="M-179.3802612342048,166.87636704922733 L244.90815080445017,-6.708030228367406" stroke="#0d6d4d" stroke-width="0.1" fill="none" />
<path d="M-181.03301306905166,165.08194383136086 L240.96570785113343,44.27784592549869" stroke="#0d6d4d" stroke-width="0.1" fill="none" />
<path d="M-182.66781528593518,163.2711525612025 L226.52513900676777,93.33467414613142" stroke="#0d6d4d" stroke-width="0.1" fill="none" />
<path d="M-184.28450579245686,161.4441727806548 L202.2155749099757,138.32520111616685" stroke="#0d6d4d" stroke-width="0.1" fill="none" />
<path d="M-185.88292429201445,159.60118563672773 L169.09610760551524,177.289329607464" stroke="#0d6d4d" stroke-width="0.1" fill="none" />
<path d="M-187.4629122996942,157.74237386357908 L128.6096492002889,208.52951381657854" stroke="#0d6d4d" stroke-width="0.1" fill="none" />
<path d="M-189.024313157986,155.86792176439525 L82.52006867387514,230.68471615184853" stroke="#0d6d4d" stroke-width="0.1" fill="none" />
<path d="M-190.56697205231498,153.97801519311838 L32.83534559708842,242.7897034050657" stroke="#0d6d4d" stroke-width="0.1" fill="none" />
<path d="M-192.09073602639285,152.0728415360174 L-18.27991128813254,244.31709895809175" stroke="#0d6d4d" stroke-width="0.1" fill="none" />
<path d="M-193.5954539973823,150.15258969311 L-68.59876933431795,235.2003589406637" stroke="#0d6d4d" stroke-width="0.1" fill="none" />
<path d="M-195.08097677087815,148.21745005943157 L-115.9289925126425,215.83667133970465" stroke="#0d6d4d" stroke-width="0.1" fill="none" />
<path d="M-196.5471570556998,146.2676145061581 L-158.20855031341833,187.06965175497226" stroke="#0d6d4d" stroke-width="0.1" fill="none" />
<path d="M-197.99384947849472,144.30327636158225 L-193.5954539973823,150.15258969311" stroke="#0d6d4d" stroke-width="0.1" fill="none" />
<path d="M-199.42091059815334,142.32463039194351 L-220.54800631191873,106.69384664467702" stroke="#0d6d4d" stroke-width="0.1" fill="none" />
<path d="M-200.8281989200305,140.33187278211835 L-237.8919684418601,58.58678477999149" stroke="#0d6d4d" stroke-width="0.1" fill="none" />
<path d="M-202.21557490997557,138.32520111616702 L-244.8717179398739,7.927279052413373" stroke="#0d6d4d" stroke-width="0.1" fill="none" />
<path d="M-203.58290100816686,136.30481435774354 L-241.1831688446357,-43.07759355001099" stroke="#0d6d4d" stroke-width="0.1" fill="none" />
<path d="M-204.93004164275118,134.270912830368 L-226.98701975970377,-92.20570947944522" stroke="#0d6d4d" stroke-width="0.1" fill="none" />
<path d="M-206.2568632432855,132.22369819756454 L-202.9017527155329,-137.3167096349339" stroke="#0d6d4d" stroke-width="0.1" fill="none" />
<path d="M-207.56323425398088,130.16337344286623 L-169.9766878324175,-176.44524814661594" stroke="#0d6d4d" stroke-width="0.1" fill="none" />
<path d="M-208.84902514674664,128.09014284968842 L-129.64626770883524,-207.88661637818106" stroke="#0d6d4d" stroke-width="0.1" fill="none" />
<path d="M-210.1141084340328,126.0042119810743 L-83.66756322209838,-230.27101177628973" stroke="#0d6d4d" stroke-width="0.1" fill="none" />
<path d="M-211.35835868147075,123.90578765931296 L-34.04372341907216,-242.62321590434357" stroke="#0d6d4d" stroke-width="0.1" fill="none" />
<path d="M-212.58165252031,121.79507794543332 L17.063295453045136,-244.40508167442445" stroke="#0d6d4d" stroke-width="0.1" fill="none" />
<path d="M-213.78386865965084,119.6722921185734 L67.42691965137377,-235.53897874094469" stroke="#0d6d4d" stroke-width="0.1" fill="none" />
<path d="M-214.96488789846973,117.53764065523154 L114.8529628251731,-216.4111756131818" stroke="#0d6d4d" stroke-width="0.1" fill="none" />
<path d="M-216.12459313743904,115.39133520839617 L157.27521988579014,-187.85501113858092" stroke="#0d6d4d" stroke-width="0.1" fill="none" />
<path d="M-217.26286939053685,113.2335885865609 L192.84548513135832,-151.11458852291878" stroke="#0d6d4d" stroke-width="0.1" fill="none" />
<path d="M-218.37960379644846,111.06461473262395 L220.01407281673136,-107.79057362586968" stroke="#0d6d4d" stroke-width="0.1" fill="none" />
<path d="M-219.47468562975635,108.88462870267604 L237.5973321380394,-59.770458931533874" stroke="#0d6d4d" stroke-width="0.1" fill="none" />
<path d="M-220.54800631191873,106.69384664467702 L244.82921521412888,-9.14633137568059" stroke="#0d6d4d" stroke-width="0.1" fill="none" />
<path d="M-221.5994594220356,104.49248577702414 L241.3946514084383,41.87627337047253" stroke="#0d6d4d" stroke-width="0.1" fill="none" />
<path d="M-222.6289407074002,102.2807643670152 L227.44327397598363,91.07445922477743" stroke="#0d6d4d" stroke-width="0.1" fill="none" />
<path d="M-223.63634809383586,100.05890170920668 L203.58290100816703,136.3048143577433" stroke="#0d6d4d" stroke-width="0.1" fill="none" />
<path d="M-224.62158169581645,97.82711810367135 L170.8530546903538,175.59679297462975" stroke="#0d6d4d" stroke-width="0.1" fill="none" />
<path d="M-225.5845438263708,95.58563483415378 L130.67967255574416,207.23856586244628" stroke="#0d6d4d" stroke-width="0.1" fill="none" />
<path d="M-226.52513900676766,93.33467414613168 L84.81298382524828,229.85159946073506" stroke="#0d6d4d" stroke-width="0.1" fill="none" />
<path d="M-227.4432739759836,91.07445922477754 L35.25125736787793,242.4507142781469" stroke="#0d6d4d" stroke-width="0.1" fill="none" />
<path d="M-228.33885769994853,88.8052141728325 L-15.846256654312137,244.48700609653199" stroke="#0d6d4d" stroke-width="0.1" fill="none" />
<path d="M-229.21180138057318,86.52716398838388 L-66.25339859517025,235.87176001927295" stroke="#0d6d4d" stroke-width="0.1" fill="none" />
<path d="M-230.06201846455255,84.24053454255785 L-113.7740861713613,216.98031550320792" stroke="#0d6d4d" stroke-width="0.1" fill="none" />
<path d="M-230.88942465194813,81.94555255712392 L-156.337990932199,188.63571398673068" stroke="#0d6d4d" stroke-width="0.1" fill="none" />
<path d="M-231.69393790454683,79.64244558201355 L-192.09073602639285,152.0728415360174" stroke="#0d6d4d" stroke-width="0.1" fill="none" />
<path d="M-232.4754784539941,77.33144197276116 L-219.47468562975635,108.88462870267604" stroke="#0d6d4d" stroke-width="0.1" fill="none" />
<path d="M-233.23396880970392,75.01277086785987 L-237.29680628996152,60.952651497572035" stroke="#0d6d4d" stroke-width="0.1" fill="none" />
<path d="M-233.96933376654167,72.68666216604412 L-244.78064368076937,10.365156980394495" stroke="#0d6d4d" stroke-width="0.1" fill="none" />
<path d="M-234.68150041228088,70.35334650349341 L-241.6001503003279,-40.673915165114884" stroke="#0d6d4d" stroke-width="0.1" fill="none" />
<path d="M-235.3703981348327,68.01305523096538 L-227.89389034601314,-89.94095142347196" stroke="#0d6d4d" stroke-width="0.1" fill="none" />
<path d="M-236.03595862924698,65.6660203908567 L-204.25900290362685,-135.2895403673771" stroke="#0d6d4d" stroke-width="0.1" fill="none" />
<path d="M-236.6781159044847,63.31247469419663 L-171.72518645600996,-174.7439851229467" stroke="#0d6d4d" stroke-width="0.1" fill="none" />
<path d="M-237.29680628996152,60.952651497572035 L-131.70983812505622,-206.58537833320025" stroke="#0d6d4d" stroke-width="0.1" fill="none" />
<path d="M-237.8919684418601,58.58678477999149 L-85.95630209072728,-229.42648960154455" stroke="#0d6d4d" stroke-width="0.1" fill="none" />
<path d="M-238.46354334921296,56.21510911968452 L-36.4579175112476,-242.27220280243267" stroke="#0d6d4d" stroke-width="0.1" fill="none" />
<path d="M-239.0114743397533,53.837859670843606 L14.62882505979735,-244.56287019367812" stroke="#0d6d4d" stroke-width="0.1" fill="none" />
<path d="M-239.535707085534,51.45527214030897 L65.07823525485642,-236.198694526692" stroke="#0d6d4d" stroke-width="0.1" fill="none" />
<path d="M-240.03618960831452,49.06758276419653 L112.69238929431822,-217.54407690198747" stroke="#0d6d4d" stroke-width="0.1" fill="none" />
<path d="M-240.51287228471435,46.67502828447654 L155.39688668460346,-189.41174094741993" stroke="#0d6d4d" stroke-width="0.1" fill="none" />
<path d="M-240.96570785113343,44.27784592549885 L191.33122539114814,-153.0273249793045" stroke="#0d6d4d" stroke-width="0.1" fill="none" />
<path d="M-241.3946514084383,41.87627337047276 L218.92985812128128,-109.97598475574401" stroke="#0d6d4d" stroke-width="0.1" fill="none" />
<path d="M-241.79966042641388,39.47054873789998 L236.99039834703785,-62.133333174008264" stroke="#0d6d4d" stroke-width="0.1" fill="none" />
<path d="M-242.18069474798037,37.060910557965855 L244.72600454378278,-11.583725654400215" stroke="#0d6d4d" stroke-width="0.1" fill="none" />
<path d="M-242.53771659317505,34.64759774888727 L241.79966042641388,39.470548737899925" stroke="#0d6d4d" stroke-width="0.1" fill="none" />
<path d="M-242.87069056289786,32.23084959322542 L228.33885769994862,88.80521417283235" stroke="#0d6d4d" stroke-width="0.1" fill="none" />
<path d="M-243.17958364242156,29.81090571415916 L204.9300416427512,134.2709128303679" stroke="#0d6d4d" stroke-width="0.1" fill="none" />
<path d="M-243.46436520466517,27.38800605172675 L172.5930615110515,173.88684573090165" stroke="#0d6d4d" stroke-width="0.1" fill="none" />
<path d="M-243.7250070132304,24.962390839036214 L132.73673888110739,205.9270699816047" stroke="#0d6d4d" stroke-width="0.1" fill="none" />
<path d="M-243.96148322520162,22.534300578444423 L87.09748967805089,228.9956927363085" stroke="#0d6d4d" stroke-width="0.1" fill="none" />
<path d="M-244.173770393708,20.10397601771278 L37.66367393858333,242.08768590212944" stroke="#0d6d4d" stroke-width="0.1" fill="none" />
<path d="M-244.3618474702485,17.67165812613531 L-13.411030847100468,244.63267208534947" stroke="#0d6d4d" stroke-width="0.1" fill="none" />
<path d="M-244.5256958067787,15.237588070647135 L-63.90145876029011,236.51977415917457" stroke="#0d6d4d" stroke-width="0.1" fill="none" />
<path d="M-244.6652991575598,12.802007191912113 L-111.60789900706202,218.10244583504664" stroke="#0d6d4d" stroke-width="0.1" fill="none" />
<path d="M-244.78064368076937,10.365156980394495 L-154.45193047102276,190.1830727845524" stroke="#0d6d4d" stroke-width="0.1" fill="none" />
<path d="M-244.8717179398739,7.927279052413373 L-190.56697205231498,153.97801519311838" stroke="#0d6d4d" stroke-width="0.1" fill="none" />
<path d="M-244.93851290476263,5.488615126187904 L-218.37960379644846,111.06461473262395" stroke="#0d6d4d" stroke-width="0.1" fill="none" />
<path d="M-244.98102195264298,3.049406997869163 L-236.6781159044847,63.31247469419663" stroke="#0d6d4d" stroke-width="0.1" fill="none" />
<path d="M-244.99924086869711,0.609896517566448 L-244.6652991575598,12.802007191912113" stroke="#0d6d4d" stroke-width="0.1" fill="none" />
<path d="M-244.99316784649986,-1.829674434631766 L-241.9931768412547,-38.26620391778142" stroke="#0d6d4d" stroke-width="0.1" fill="none" />
<path d="M-244.96280348819795,-4.26906397264202 L-228.77816500797377,-87.66727562542548" stroke="#0d6d4d" stroke-width="0.1" fill="none" />
<path d="M-244.9081508044502,-6.708030228367182 L-205.59600059188372,-133.24895699637634" stroke="#0d6d4d" stroke-width="0.1" fill="none" />
<path d="M-244.82921521412888,-9.146331375680532 L-173.4566583426589,-173.0253960451994" stroke="#0d6d4d" stroke-width="0.1" fill="none" />
<path d="M-244.72600454378278,-11.583725654400046 L-133.76034936916125,-205.26365712575603" stroke="#0d6d4d" stroke-width="0.1" fill="none" />
<path d="M-244.59852902686083,-14.01997139426178 L-88.23651829954976,-228.55921954358615" stroke="#0d6d4d" stroke-width="0.1" fill="none" />
<path d="M-244.44680130269765,-16.454827038879788 L-38.868496761688164,-241.89716815102784" stroke="#0d6d4d" stroke-width="0.1" fill="none" />
<path d="M-244.2708364152603,-18.88805116969821 L12.192904202810237,-244.6964100413022" stroke="#0d6d4d" stroke-width="0.1" fill="none" />
<path d="M-244.0706518116566,-21.31940252992754 L62.72309828131594,-236.8349909578236" stroke="#0d6d4d" stroke-width="0.1" fill="none" />
<path d="M-243.84626734040538,-23.74864004846483 L110.52064219185378,-218.65540846157964" stroke="#0d6d4d" stroke-width="0.1" fill="none" />
<path d="M-243.59770524946825,-26.17552286379768 L153.50314571495832,-190.9496903784143" stroke="#0d6d4d" stroke-width="0.1" fill="none" />
<path d="M-243.32499018404388,-28.599810347884194 L189.7979949541461,-154.92488861182352" stroke="#0d6d4d" stroke-width="0.1" fill="none" />
<path d="M-243.02814918412437,-31.021262130012982 L217.82393629491935,-112.15049164844046" stroke="#0d6d4d" stroke-width="0.1" fill="none" />
<path d="M-242.7072116818142,-33.43963812063536 L236.35996670313523,-64.49004682966827" stroke="#0d6d4d" stroke-width="0.1" fill="none" />
<path d="M-242.36220949841174,-35.8546985351709 L244.59852902686083,-14.019971394261841" stroke="#0d6d4d" stroke-width="0.1" fill="none" />
<path d="M-241.9931768412547,-38.26620391778142 L242.1806947479804,37.06091055796569" stroke="#0d6d4d" stroke-width="0.1" fill="none" />
<path d="M-241.6001503003279,-40.673915165114884 L229.21180138057318,86.52716398838382" stroke="#0d6d4d" stroke-width="0.1" fill="none" />
<path d="M-241.1831688446357,-43.07759355001099 L206.25686324328547,132.22369819756457" stroke="#0d6d4d" stroke-width="0.1" fill="none" />
<path d="M-240.74227381833785,-45.47700074517269 L174.31595554406078,172.15965741938794" stroke="#0d6d4d" stroke-width="0.1" fill="none" />
<path d="M-240.27750893665043,-47.87189884679602 L134.7806442160401,204.59515621028086" stroke="#0d6d4d" stroke-width="0.1" fill="none" />
<path d="M-239.78892028151142,-50.26205039815785 L89.37335972107066,228.11708084264123" stroke="#0d6d4d" stroke-width="0.1" fill="none" />
<path d="M-239.2765562970114,-52.647218413161454 L40.07235611550709,241.70065427166716" stroke="#0d6d4d" stroke-width="0.1" fill="none" />
<path d="M-238.74046778459066,-55.02716639983226 L-10.974475321755401,244.75408248160477" stroke="#0d6d4d" stroke-width="0.1" fill="none" />
<path d="M-238.18070789800174,-57.40165838376774 L-61.543183027041884,237.14433710906954" stroke="#0d6d4d" stroke-width="0.1" fill="none" />
<path d="M-237.59733213803946,-59.77045893153371 L-109.43064579953133,219.20295107479168" stroke="#0d6d4d" stroke-width="0.1" fill="none" />
<path d="M-236.99039834703785,-62.13333317400821 L-152.550555934813,191.71157472614814" stroke="#0d6d4d" stroke-width="0.1" fill="none" />
<path d="M-236.35996670313526,-64.49004682966817 L-189.024313157986,155.86792176439525" stroke="#0d6d4d" stroke-width="0.1" fill="none" />
<path d="M-235.70609971430707,-66.84036622782021 L-217.26286939053685,113.2335885865609" stroke="#0d6d4d" stroke-width="0.1" fill="none" />
<path d="M-235.0288622121687,-69.18405833176757 L-236.03595862924698,65.6660203908567" stroke="#0d6d4d" stroke-width="0.1" fill="none" />
<path d="M-234.32832134554684,-71.52089076191754 L-244.5256958067787,15.237588070647135" stroke="#0d6d4d" stroke-width="0.1" fill="none" />
<path d="M-233.6045465738218,-73.85063181882137 L-242.36220949841174,-35.8546985351709" stroke="#0d6d4d" stroke-width="0.1" fill="none" />
<path d="M-232.8576096600409,-76.173050506147 L-229.639756068802,-85.38490752270631" stroke="#0d6d4d" stroke-width="0.1" fill="none" />
<path d="M-232.08758466380235,-78.48791655358406 L-206.91261321554435,-131.19516184796805" stroke="#0d6d4d" stroke-width="0.1" fill="none" />
<path d="M-231.2945479339129,-80.79500043967363 L-175.17093181506473,-171.28965131332933" stroke="#0d6d4d" stroke-width="0.1" fill="none" />
<path d="M-230.4785781008173,-83.09407341456716 L-135.79759813075455,-203.92158380592792" stroke="#0d6d4d" stroke-width="0.1" fill="none" />
<path d="M-229.639756068802,-85.38490752270631 L-90.50798576267654,-227.6692875931735" stroke="#0d6d4d" stroke-width="0.1" fill="none" />
<path d="M-228.77816500797377,-87.66727562542548 L-41.275222158867955,-241.4981491352182" stroke="#0d6d4d" stroke-width="0.1" fill="none" />
<path d="M-227.89389034601314,-89.94095142347196 L9.755774406256828,-244.80568797667718" stroke="#0d6d4d" stroke-width="0.1" fill="none" />
<path d="M-226.98701975970377,-92.20570947944522 L60.36174224511638,-237.44780494486392" stroke="#0d6d4d" stroke-width="0.1" fill="none" />
<path d="M-226.05764316623987,-94.46132524014769 L108.33793684884088,-219.74506010223885" stroke="#0d6d4d" stroke-width="0.1" fill="none" />
<path d="M-225.10585271431026,-96.70757505885076 L151.5941847433088,-192.46870694222363" stroke="#0d6d4d" stroke-width="0.1" fill="none" />
<path d="M-224.1317427749619,-98.94423621746904 L188.24594584179917,-156.80709127500074" stroke="#0d6d4d" stroke-width="0.1" fill="none" />
<path d="M-223.13540993224316,-101.17108694864254 L216.69641699098406,-114.31387869926188" stroke="#0d6d4d" stroke-width="0.1" fill="none" />
<path d="M-222.11695297362692,-103.38790645772647 L235.70609971430707,-66.84036622782021" stroke="#0d6d4d" stroke-width="0.1" fill="none" />
<path d="M-221.07647288021633,-105.59447494468152 L244.44680130269765,-16.4548270388799" stroke="#0d6d4d" stroke-width="0.1" fill="none" />
<path d="M-220.01407281673139,-107.79057362586963 L242.53771659317505,34.647597748887264" stroke="#0d6d4d" stroke-width="0.1" fill="none" />
<path d="M-218.92985812128137,-109.97598475574387 L230.06201846455252,84.24053454255795" stroke="#0d6d4d" stroke-width="0.1" fill="none" />
<path d="M-217.82393629491935,-112.15049164844046 L207.56323425398085,130.16337344286626" stroke="#0d6d4d" stroke-width="0.1" fill="none" />
<path d="M-216.69641699098412,-114.31387869926176 L176.02156596258493,170.41539929266767" stroke="#0d6d4d" stroke-width="0.1" fill="none" />
<path d="M-215.54741200422728,-116.46593140605495 L136.8111859051297,203.24295660915791" stroke="#0d6d4d" stroke-width="0.1" fill="none" />
<path d="M-214.37703525972907,-118.60643639047959 L91.64036829934471,227.21585089504748" stroke="#0d6d4d" stroke-width="0.1" fill="none" />
<path d="M-213.18540280160275,-120.73518141916378 L42.477065075220374,241.2896577613626" stroke="#0d6d4d" stroke-width="0.1" fill="none" />
<path d="M-211.97263278148802,-122.85195542474867 L-8.536831665378234,244.85122524732645" stroke="#0d6d4d" stroke-width="0.1" fill="none" />
<path d="M-210.73884544683705,-124.95654852681442 L-59.1788052210015,237.74538694286954" stroke="#0d6d4d" stroke-width="0.1" fill="none" />
<path d="M-209.484163128991,-127.0487520526915 L-107.24254242576701,220.2817221061647" stroke="#0d6d4d" stroke-width="0.1" fill="none" />
<path d="M-208.20871023105127,-129.12835855814993 L-150.6340558469004,193.22106825890623" stroke="#0d6d4d" stroke-width="0.1" fill="none" />
<path d="M-206.91261321554435,-131.19516184796805 L-187.4629122996942,157.74237386357908" stroke="#0d6d4d" stroke-width="0.1" fill="none" />
<path d="M-205.59600059188372,-133.24895699637634 L-216.12459313743904,115.39133520839617" stroke="#0d6d4d" stroke-width="0.1" fill="none" />
<path d="M-204.25900290362685,-135.2895403673771 L-235.3703981348327,68.01305523096538" stroke="#0d6d4d" stroke-width="0.1" fill="none" />
<path d="M-202.9017527155329,-137.3167096349339 L-244.3618474702485,17.67165812613531" stroke="#0d6d4d" stroke-width="0.1" fill="none" />
<path d="M-201.52438460041768,-139.33026380303363 L-242.7072116818142,-33.43963812063536" stroke="#0d6d4d" stroke-width="0.1" fill="none" />
<path d="M-200.12703512581118,-141.33000322561497 L-230.4785781008173,-83.09407341456716" stroke="#0d6d4d" stroke-width="0.1" fill="none" />
<path d="M-198.70984284041708,-143.3157296263629 L-208.20871023105127,-129.12835855814993" stroke="#0d6d4d" stroke-width="0.1" fill="none" />
<path d="M-197.27294826037448,-145.2872461183693 L-176.8678369011685,-169.53692302829393" stroke="#0d6d4d" stroke-width="0.1" fill="none" />
<path d="M-195.81649385532683,-147.24435722365308 L-137.8213824144306,-202.55929144172893" stroke="#0d6d4d" stroke-width="0.1" fill="none" />
<path d="M-194.34062403429473,-149.1868688925433 L-92.7704792616651,-226.75678198801677" stroke="#0d6d4d" stroke-width="0.1" fill="none" />
<path d="M-192.84548513135846,-151.1145885229186 L-43.67785507337561,-241.0751853181683" stroke="#0d6d4d" stroke-width="0.1" fill="none" />
<path d="M-191.3312253911482,-153.02732497930444 L7.3176773141778035,-244.89069316477824" stroke="#0d6d4d" stroke-width="0.1" fill="none" />
<path d="M-189.79799495414622,-154.9248886118234 L57.99440127724861,-238.03707572664698" stroke="#0d6d4d" stroke-width="0.1" fill="none" />
<path d="M-188.2459458417992,-156.80709127500072 L106.14448968286202,-220.8129237838329" stroke="#0d6d4d" stroke-width="0.1" fill="none" />
<path d="M-186.67523194144627,-158.67374634641752 L149.67019304518848,-193.96864002672189" stroke="#0d6d4d" stroke-width="0.1" fill="none" />
<path d="M-185.08600899105994,-160.52466874521582 L186.6752319414462,-158.67374634641754" stroke="#0d6d4d" stroke-width="0.1" fill="none" />
<path d="M-183.478434563805,-162.3596749504492 L215.5474120042272,-116.4659314060551" stroke="#0d6d4d" stroke-width="0.1" fill="none" />
<path d="M-181.85266805241528,-164.1785830192783 L235.0288622121687,-69.18405833176763" stroke="#0d6d4d" stroke-width="0.1" fill="none" />
<path d="M-180.20887065338874,-165.98121260501202 L244.2708364152603,-18.888051169698375" stroke="#0d6d4d" stroke-width="0.1" fill="none" />
<path d="M-178.54720535100586,-167.76738497498775 L242.87069056289786,32.23084959322536" stroke="#0d6d4d" stroke-width="0.1" fill="none" />
<path d="M-176.8678369011685,-169.53692302829393 L230.8894246519482,81.94555255712376" stroke="#0d6d4d" stroke-width="0.1" fill="none" />
<path d="M-175.17093181506473,-171.28965131332933 L208.8490251467467,128.09014284968833" stroke="#0d6d4d" stroke-width="0.1" fill="none" />
<path d="M-173.4566583426589,-173.0253960451994 L177.70972365351662,168.65424429581" stroke="#0d6d4d" stroke-width="0.1" fill="none" />
<path d="M-171.72518645600996,-174.7439851229467 L138.8281626179839,201.87060525028062" stroke="#0d6d4d" stroke-width="0.1" fill="none" />
<path d="M-169.9766878324175,-176.44524814661594 L93.89829063653434,226.29209225144595" stroke="#0d6d4d" stroke-width="0.1" fill="none" />
<path d="M-168.2113358374011,-178.12901643414824 L44.87756238824358,240.85473712196176" stroke="#0d6d4d" stroke-width="0.1" fill="none" />
<path d="M-166.4293055075096,-179.79512303810696 L-6.098341572959188,244.92409075070486" stroke="#0d6d4d" stroke-width="0.1" fill="none" />
<path d="M-164.6307735329669,-181.44340276223042 L-56.80855977277088,238.32286406583722" stroke="#0d6d4d" stroke-width="0.1" fill="none" />
<path d="M-162.81591824015302,-183.07369217781076 L-105.04380583857204,221.33865196785757" stroke="#0d6d4d" stroke-width="0.1" fill="none" />
<path d="M-160.98491957392199,-184.68582963989923 L-148.70262023032953,194.71140371491956" stroke="#0d6d4d" stroke-width="0.1" fill="none" />
<path d="M-159.13795907976137,-186.279655303332 L-185.88292429201445,159.60118563672773" stroke="#0d6d4d" stroke-width="0.1" fill="none" />
<path d="M-157.2752198857902,-187.85501113858086 L-214.96488789846973,117.53764065523154" stroke="#0d6d4d" stroke-width="0.1" fill="none" />
<path d="M-155.39688668460357,-189.41174094741984 L-234.68150041228088,70.35334650349341" stroke="#0d6d4d" stroke-width="0.1" fill="none" />
<path d="M-153.50314571495832,-190.9496903784143 L-244.173770393708,20.10397601771278" stroke="#0d6d4d" stroke-width="0.1" fill="none" />
<path d="M-151.59418474330886,-192.46870694222358 L-243.02814918412437,-31.021262130012982" stroke="#0d6d4d" stroke-width="0.1" fill="none" />
<path d="M-149.6701930451886,-193.96864002672177 L-231.2945479339129,-80.79500043967363" stroke="#0d6d4d" stroke-width="0.1" fill="none" />
<path d="M-147.7313613864437,-195.44934091193036 L-209.484163128991,-127.0487520526915" stroke="#0d6d4d" stroke-width="0.1" fill="none" />
<path d="M-145.77788200431883,-196.91066278476364 L-178.54720535100586,-167.76738497498775" stroke="#0d6d4d" stroke-width="0.1" fill="none" />
<path d="M-143.80994858839554,-198.3524607535864 L-139.83150155980047,-201.17691510591249" stroke="#0d6d4d" stroke-width="0.1" fill="none" />
<path d="M-141.82775626138906,-199.774591862579 L-95.02377446785168,-225.82179320402818" stroke="#0d6d4d" stroke-width="0.1" fill="none" />
<path d="M-139.83150155980047,-201.17691510591249 L-46.07615728157298,-240.62831863719563" stroke="#0d6d4d" stroke-width="0.1" fill="none" />
<path d="M-137.8213824144306,-202.55929144172893 L4.878854666522246,-244.95141717724957" stroke="#0d6d4d" stroke-width="0.1" fill="none" />
<path d="M-135.79759813075455,-203.92158380592792 L55.6213101021159,-238.60274487634098" stroke="#0d6d4d" stroke-width="0.1" fill="none" />
<path d="M-133.76034936916125,-205.26365712575603 L103.94051817656293,-221.85889362652918" stroke="#0d6d4d" stroke-width="0.1" fill="none" />
<path d="M-131.70983812505622,-206.58537833320025 L147.73136138644367,-195.44934091193036" stroke="#0d6d4d" stroke-width="0.1" fill="none" />
<path d="M-129.64626770883524,-207.88661637818106 L185.08600899105983,-160.52466874521596" stroke="#0d6d4d" stroke-width="0.1" fill="none" />
<path d="M-127.56984272572446,-209.1672422415468 L214.37703525972907,-118.60643639047962" stroke="#0d6d4d" stroke-width="0.1" fill="none" />
<path d="M-125.48076905549414,-210.42712894786584 L234.3283213455468,-71.52089076191764" stroke="#0d6d4d" stroke-width="0.1" fill="none" />
<path d="M-123.37925383204602,-211.6661515780158 L244.0706518116566,-21.319402529927544" stroke="#0d6d4d" stroke-width="0.1" fill="none" />
<path d="M-121.26550542287454,-212.8841872815705 L243.1795836424216,29.810905714159045" stroke="#0d6d4d" stroke-width="0.1" fill="none" />
<path d="M-119.13973340840836,-214.08111528897962 L231.69393790454683,79.64244558201355" stroke="#0d6d4d" stroke-width="0.1" fill="none" />
<path d="M-117.00214856122902,-215.25681692354388 L210.11410843403291,126.00421198107414" stroke="#0d6d4d" stroke-width="0.1" fill="none" />
<path d="M-114.85296282517324,-216.4111756131817 L179.38026123420488,166.87636704922727" stroke="#0d6d4d" stroke-width="0.1" fill="none" />
<path d="M-112.69238929431823,-217.54407690198747 L140.83137436919205,200.47823820376234" stroke="#0d6d4d" stroke-width="0.1" fill="none" />
<path d="M-110.52064219185385,-218.65540846157958 L96.14690285721112,225.34589650349972" stroke="#0d6d4d" stroke-width="0.1" fill="none" />
<path d="M-108.33793684884085,-219.74506010223885 L47.27361004268604,240.39593547631384" stroke="#0d6d4d" stroke-width="0.1" fill="none" />
<path d="M-106.14448968286206,-220.81292378383287 L-3.6592468234138558,244.972671767047" stroke="#0d6d4d" stroke-width="0.1" fill="none" />
<path d="M-103.94051817656306,-221.85889362652912 L-54.432681694736175,238.8767112204945" stroke="#0d6d4d" stroke-width="0.1" fill="none" />
<path d="M-101.72624085608906,-222.88286592129276 L-102.8346540450437,222.37363586413784" stroke="#0d6d4d" stroke-width="0.1" fill="none" />
<path d="M-99.50187726941846,-223.88473914016916 L-146.75644058901966,196.18243332582443" stroke="#0d6d4d" stroke-width="0.1" fill="none" />
<path d="M-97.26764796459295,-224.86441394635128 L-184.28450579245686,161.4441727806548" stroke="#0d6d4d" stroke-width="0.1" fill="none" />
<path d="M-95.02377446785168,-225.82179320402818 L-213.78386865965084,119.6722921185734" stroke="#0d6d4d" stroke-width="0.1" fill="none" />
<path d="M-92.7704792616651,-226.75678198801677 L-233.96933376654167,72.68666216604412" stroke="#0d6d4d" stroke-width="0.1" fill="none" />
<path d="M-90.50798576267654,-227.6692875931735 L-243.96148322520162,22.534300578444423" stroke="#0d6d4d" stroke-width="0.1" fill="none" />
<path d="M-88.23651829954976,-228.55921954358615 L-243.32499018404388,-28.599810347884194" stroke="#0d6d4d" stroke-width="0.1" fill="none" />
<path d="M-85.95630209072728,-229.42648960154455 L-232.08758466380235,-78.48791655358406" stroke="#0d6d4d" stroke-width="0.1" fill="none" />
<path d="M-83.66756322209838,-230.27101177628973 L-210.73884544683705,-124.95654852681442" stroke="#0d6d4d" stroke-width="0.1" fill="none" />
<path d="M-81.37052862458428,-231.0927023325395 L-180.20887065338874,-165.98121260501202" stroke="#0d6d4d" stroke-width="0.1" fill="none" />
<path d="M-79.06542605163516,-231.8914797987917 L-141.82775626138906,-199.774591862579" stroke="#0d6d4d" stroke-width="0.1" fill="none" />
<path d="M-76.75248405665087,-232.6672649754012 L-97.26764796459295,-224.86441394635128" stroke="#0d6d4d" stroke-width="0.1" fill="none" />
<path d="M-74.4319319703182,-233.4199809424333 L-48.469890989216736,-240.15759339961215" stroke="#0d6d4d" stroke-width="0.1" fill="none" />
<path d="M-72.1039998778721,-234.14955306729036 L2.4395482751788444,-244.98785399323998" stroke="#0d6d4d" stroke-width="0.1" fill="none" />
<path d="M-69.76891859628402,-234.85590901211125 L53.24270401426073,-239.1447563072413" stroke="#0d6d4d" stroke-width="0.1" fill="none" />
<path d="M-67.42691965137382,-235.53897874094466 L101.72624085608908,-222.88286592129273" stroke="#0d6d4d" stroke-width="0.1" fill="none" />
<path d="M-65.07823525485655,-236.19869452669195 L145.7778820043188,-196.9106627847637" stroke="#0d6d4d" stroke-width="0.1" fill="none" />
<path d="M-62.72309828131593,-236.8349909578236 L183.478434563805,-162.3596749504492" stroke="#0d6d4d" stroke-width="0.1" fill="none" />
<path d="M-60.36174224511645,-237.4478049448639 L213.1854028016027,-120.7351814191639" stroke="#0d6d4d" stroke-width="0.1" fill="none" />
<path d="M-57.99440127724877,-238.03707572664692 L233.6045465738218,-73.85063181882137" stroke="#0d6d4d" stroke-width="0.1" fill="none" />
<path d="M-55.621310102116134,-238.60274487634092 L243.84626734040538,-23.748640048464942" stroke="#0d6d4d" stroke-width="0.1" fill="none" />
<path d="M-53.24270401426083,-239.14475630724127 L243.46436520466517,27.388006051726748" stroke="#0d6d4d" stroke-width="0.1" fill="none" />
<path d="M-50.85881885503508,-239.66305627833157 L232.47547845399413,77.33144197276106" stroke="#0d6d4d" stroke-width="0.1" fill="none" />
<path d="M-48.469890989216736,-240.15759339961215 L211.35835868147075,123.90578765931299" stroke="#0d6d4d" stroke-width="0.1" fill="none" />
<path d="M-46.07615728157298,-240.62831863719563 L181.03301306905172,165.08194383136077" stroke="#0d6d4d" stroke-width="0.1" fill="none" />
<path d="M-43.67785507337561,-241.0751853181683 L142.82062253815434,199.06599352429348" stroke="#0d6d4d" stroke-width="0.1" fill="none" />
<path d="M-41.275222158867955,-241.4981491352182 L98.38598200905466,224.37735746753498" stroke="#0d6d4d" stroke-width="0.1" fill="none" />
<path d="M-38.868496761688164,-241.89716815102784 L49.66497046784554,239.91329831509555" stroke="#0d6d4d" stroke-width="0.1" fill="none" />
<path d="M-36.4579175112476,-242.27220280243267 L-1.2197892556102343,244.99696347949273" stroke="#0d6d4d" stroke-width="0.1" fill="none" />
<path d="M-34.04372341907216,-242.62321590434357 L-52.05140655776397,239.40687349230046" stroke="#0d6d4d" stroke-width="0.1" fill="none" />
<path d="M-31.62615385510256,-242.95017265343398 L-100.61530608495897,223.38657117523877" stroke="#0d6d4d" stroke-width="0.1" fill="none" />
<path d="M-29.205448523961177,-243.25304063159058 L-144.79570988877524,197.63401123745282" stroke="#0d6d4d" stroke-width="0.1" fill="none" />
<path d="M-26.781847441185718,-243.5317898091275 L-182.66781528593518,163.2711525612025" stroke="#0d6d4d" stroke-width="0.1" fill="none" />
<path d="M-24.355590909429903,-243.78639254776402 L-212.58165252031,121.79507794543332" stroke="#0d6d4d" stroke-width="0.1" fill="none" />
<path d="M-21.926919494638955,-244.01682360336474 L-233.23396880970392,75.01277086785987" stroke="#0d6d4d" stroke-width="0.1" fill="none" />
<path d="M-19.496074002195698,-244.22306012844263 L-243.7250070132304,24.962390839036214" stroke="#0d6d4d" stroke-width="0.1" fill="none" />
<path d="M-17.063295453045306,-244.40508167442442 L-243.59770524946825,-26.17552286379768" stroke="#0d6d4d" stroke-width="0.1" fill="none" />
<path d="M-14.628825059797379,-244.5628701936781 L-232.8576096600409,-76.173050506147" stroke="#0d6d4d" stroke-width="0.1" fill="none" />
<path d="M-12.192904202810343,-244.6964100413022 L-211.97263278148802,-122.85195542474867" stroke="#0d6d4d" stroke-width="0.1" fill="none" />
<path d="M-9.755774406256794,-244.80568797667718 L-181.85266805241528,-164.1785830192783" stroke="#0d6d4d" stroke-width="0.1" fill="none" />
<path d="M-7.317677314177849,-244.89069316477824 L-143.80994858839554,-198.3524607535864" stroke="#0d6d4d" stroke-width="0.1" fill="none" />
<path d="M-4.878854666522368,-244.95141717724957 L-99.50187726941846,-223.88473914016916" stroke="#0d6d4d" stroke-width="0.1" fill="none" />
<path d="M-2.439548275178826,-244.98785399323998 L-50.85881885503508,-239.66305627833157" stroke="#0d6d4d" stroke-width="0.1" fill="none" />
</svg>