<?xml version="1.0" encoding="UTF-8"?>
<svg xmlns="http://www.w3.org/2000/svg" xmlns:xlink="http://www.w3.org/1999/xlink"
     width="500.0" height="500" viewBox="-250.0 -250.0 500 500">
<defs>
</defs>
<circle cx="0" cy="0" r="245.0" fill="white" stroke-width="2" stroke="black" />
<path d="M0.0,-245.0 L0.0,-245.0" stroke="#0d6d4d" stroke-width="0.1" fill="none" />
<path d="M2.4241815450605446,-244.9880065305985 L50.543087486870256,-239.72984025209414" stroke="#0d6d4d" stroke-width="0.1" fill="none" />
<path d="M4.848125748511421,-244.9520272966252 L98.91172480877572,-224.14609230444557" stroke="#0d6d4d" stroke-width="0.1" fill="none" />
<path d="M7.2715952919801,-244.89206582065833 L143.0250103700024,-198.91919567668853" stroke="#0d6d4d" stroke-width="0.1" fill="none" />
<path d="M9.69435290356605,-244.80812797327854 L180.98511509371227,-165.13445465594305" stroke="#0d6d4d" stroke-width="0.1" fill="none" />
<path d="M12.116161381071054,-244.700221972494 L211.15893027834474,-124.24534664809443" stroke="#0d6d4d" stroke-width="0.1" fill="none" />
<path d="M14.536783615222692,-244.56835838293594 L232.24832673021157,-78.01099109110781" stroke="#0d6d4d" stroke-width="0.1" fill="none" />
<path d="M16.955982612888743,-244.41255011482414 L243.34600250410244,-28.42046912479393" stroke="#0d6d4d" stroke-width="0.1" fill="none" />
<path d="M19.373521520280182,-244.232812422703 L243.97451658647566,22.392750085586044" stroke="#0d6d4d" stroke-width="0.1" fill="none" />
<path d="M21.789163646140583,-244.02916290394825 L234.1068292253482,72.24259484579478" stroke="#0d6d4d" stroke-width="0.1" fill="none" />
<path d="M24.202672484919564,-243.8016214970436 L214.16746522672443,118.984439479958" stroke="#0d6d4d" stroke-width="0.1" fill="none" />
<path d="M26.61381173992808,-243.55021047962916 L185.01425017055854,160.60736979922802" stroke="#0d6d4d" stroke-width="0.1" fill="none" />
<path d="M29.022345346473266,-243.27495446631994 L147.90140528551206,195.3206960733314" stroke="#0d6d4d" stroke-width="0.1" fill="none" />
<path d="M31.428037494970507,-242.97588040629614 L104.42558870418476,221.63099156883374" stroke="#0d6d4d" stroke-width="0.1" fill="none" />
<path d="M33.83065265403066,-242.65301758066462 L56.4572044964071,238.40634232429906" stroke="#0d6d4d" stroke-width="0.1" fill="none" />
<path d="M36.22995559351989,-242.30639759959203 L6.0599346835987,244.92504402700536" stroke="#0d6d4d" stroke-width="0.1" fill="none" />
<path d="M38.625711407590124,-241.93605439921012 L-44.598043895286665,240.90665096819987" stroke="#0d6d4d" stroke-width="0.1" fill="none" />
<path d="M41.017685537677686,-241.54202423829312 L-93.33733826378598,226.52404129767683" stroke="#0d6d4d" stroke-width="0.1" fill="none" />
<path d="M43.405643795467974,-241.12434569470778 L-138.06110052539182,202.3959795097661" stroke="#0d6d4d" stroke-width="0.1" fill="none" />
<path d="M45.789352385823875,-240.68305966163646 L-176.84523785034037,169.56049613532198" stroke="#0d6d4d" stroke-width="0.1" fill="none" />
<path d="M48.168577929675685,-240.2182093435732 L-208.02119024363432,129.4302298909405" stroke="#0d6d4d" stroke-width="0.1" fill="none" />
<path d="M50.543087486870256,-239.72984025209414 L-230.2477148529815,83.73165354261276" stroke="#0d6d4d" stroke-width="0.1" fill="none" />
<path d="M52.912648578977226,-239.21800020140137 L-242.56858853281454,34.43079809121647" stroke="#0d6d4d" stroke-width="0.1" fill="none" />
<path d="M55.27702921205005,-238.68273930364165 L-244.4537462012845,-16.35132924743374" stroke="#0d6d4d" stroke-width="0.1" fill="none" />
<path d="M57.63599789933956,-238.12410996400033 L-235.82208514767441,-66.42999440465879" stroke="#0d6d4d" stroke-width="0.1" fill="none" />
<path d="M59.9893236839578,-237.5421668755704 L-217.04495420988073,-113.65072745931185" stroke="#0d6d4d" stroke-width="0.1" fill="none" />
<path d="M62.33677616149017,-236.93696701399776 L-188.93017771157284,-155.9820116227301" stroke="#0d6d4d" stroke-width="0.1" fill="none" />
<path d="M64.67812550255333,-236.30856963190303 L-152.6873014766101,-191.60268256940134" stroke="#0d6d4d" stroke-width="0.1" fill="none" />
<path d="M67.01314247529682,-235.65703625308024 L-109.87555609668071,-218.9802780444969" stroke="#0d6d4d" stroke-width="0.1" fill="none" />
<path d="M69.34159846784624,-234.9824306664734 L-62.33677616149032,-236.93696701399773" stroke="#0d6d4d" stroke-width="0.1" fill="none" />
<path d="M71.66326551068566,-234.28481891993124 L-12.116161381070924,-244.700221972494" stroke="#0d6d4d" stroke-width="0.1" fill="none" />
<path d="M73.97791629897725,-233.56426931374054 L38.625711407590124,-241.93605439921012" stroke="#0d6d4d" stroke-width="0.1" fill="none" />
<path d="M76.28532421481562,-232.82085239393928 L87.70583995547979,-228.76338351603337" stroke="#0d6d4d" stroke-width="0.1" fill="none" />
<path d="M78.58526334941523,-232.0546409454098 L133.01271309610706,-205.7489201789713" stroke="#0d6d4d" stroke-width="0.1" fill="none" />
<path d="M80.87750852522798,-231.26570998475256 L172.59715157127434,-173.88278600678836" stroke="#0d6d4d" stroke-width="0.1" fill="none" />
<path d="M83.1618353179896,-230.45413675294176 L204.75616506020376,-134.53591665365275" stroke="#0d6d4d" stroke-width="0.1" fill="none" />
<path d="M85.43802007869198,-229.6200007077629 L228.10621773904458,-89.40108180994001" stroke="#0d6d4d" stroke-width="0.1" fill="none" />
<path d="M87.70583995547979,-228.76338351603337 L241.64275036094367,-40.42005935174574" stroke="#0d6d4d" stroke-width="0.1" fill="none" />
<path d="M89.96507291546892,-227.88436904560692 L244.78339811487947,10.299903268109928" stroke="#0d6d4d" stroke-width="0.1" fill="none" />
<path d="M92.2154977664849,-226.9830433571623 L237.3930449569732,60.57674641359088" stroke="#0d6d4d" stroke-width="0.1" fill="none" />
<path d="M94.45689417871881,-226.05949469577763 L219.78963653404617,108.24747420716973" stroke="#0d6d4d" stroke-width="0.1" fill="none" />
<path d="M96.6890427062989,-225.11381348229057 L192.73050161749805,151.26121031602113" stroke="#0d6d4d" stroke-width="0.1" fill="none" />
<path d="M98.91172480877572,-224.14609230444557 L157.37977052284182,187.76743016342758" stroke="#0d6d4d" stroke-width="0.1" fill="none" />
<path d="M101.12472287251829,-223.156425907829 L115.25829223027415,216.19557366458898" stroke="#0d6d4d" stroke-width="0.1" fill="none" />
<path d="M103.32782023202002,-222.14491118659316 L68.17820485750771,235.32261341062767" stroke="#0d6d4d" stroke-width="0.1" fill="none" />
<path d="M105.52080119111137,-221.11164717396943 L18.164974375153392,244.3256714018198" stroke="#0d6d4d" stroke-width="0.1" fill="none" />
<path d="M107.70345104407778,-220.0567350325728 L-32.629744407394305,242.81742066809812" stroke="#0d6d4d" stroke-width="0.1" fill="none" />
<path d="M109.8755560966807,-218.9802780444969 L-82.0206757159801,230.8627487384962" stroke="#0d6d4d" stroke-width="0.1" fill="none" />
<path d="M112.03690368707939,-217.88238160120267 L-127.88293711718326,208.9759660685471" stroke="#0d6d4d" stroke-width="0.1" fill="none" />
<path d="M114.1872822066519,-216.7631531931994 L-168.24345559888468,178.09867952386992" stroke="#0d6d4d" stroke-width="0.1" fill="none" />
<path d="M116.32648112071274,-215.62270239952116 L-201.36585254959982,139.55928284056503" stroke="#0d6d4d" stroke-width="0.1" fill="none" />
<path d="M118.4542909891254,-214.46114087699806 L-225.82514573941975,95.01580685217498" stroke="#0d6d4d" stroke-width="0.1" fill="none" />
<path d="M120.57050348680784,-213.27858234932467 L-240.56905449543686,46.384588164297966" stroke="#0d6d4d" stroke-width="0.1" fill="none" />
<path d="M122.67491142412874,-212.0751425959256 L-244.9632706180366,-4.242174927388413" stroke="#0d6d4d" stroke-width="0.1" fill="none" />
<path d="M124.76730876719253,-210.85093944062007 L-238.81874740572573,-54.686432390129106" stroke="#0d6d4d" stroke-width="0.1" fill="none" />
<path d="M126.84749065801142,-209.60609274008638 L-222.39983276792148,-102.77798589581606" stroke="#0d6d4d" stroke-width="0.1" fill="none" />
<path d="M128.91525343456206,-208.3407243721271 L-196.41289652526413,-146.4478544689402" stroke="#0d6d4d" stroke-width="0.1" fill="none" />
<path d="M130.97039465072532,-207.05495822373646 L-161.97594117046776,-183.81728559072232" stroke="#0d6d4d" stroke-width="0.1" fill="none" />
<path d="M133.01271309610706,-205.7489201789713 L-120.57050348680787,-213.27858234932464" stroke="#0d6d4d" stroke-width="0.1" fill="none" />
<path d="M135.04200881573757,-204.42273810662616 L-73.97791629897742,-233.56426931374045" stroke="#0d6d4d" stroke-width="0.1" fill="none" />
<path d="M137.0580831296485,-203.07654184771405 L-24.202672484919685,-243.80162149704358" stroke="#0d6d4d" stroke-width="0.1" fill="none" />
<path d="M139.06073865232486,-201.71046320275457 L26.61381173992808,-243.55021047962916" stroke="#0d6d4d" stroke-width="0.1" fill="none" />
<path d="M141.04977931203,-200.32463591886952 L76.28532421481562,-232.82085239393928" stroke="#0d6d4d" stroke-width="0.1" fill="none" />
<path d="M143.0250103700024,-198.91919567668853 L122.67491142412874,-212.0751425959256" stroke="#0d6d4d" stroke-width="0.1" fill="none" />
<path d="M144.98623843952157,-197.494280077065 L163.78681389658178,-182.20559704247972" stroke="#0d6d4d" stroke-width="0.1" fill="none" />
<path d="M146.93327150484188,-196.0500286276042 L197.8523271948673,-144.49725472677727" stroke="#0d6d4d" stroke-width="0.1" fill="none" />
<path d="M148.865918939992,-194.58658272900453 L223.40589460897425,-100.57239310051186" stroke="#0d6d4d" stroke-width="0.1" fill="none" />
<path d="M150.78399152743822,-193.1040856612139 L239.348157915219,-52.320734920214825" stroke="#0d6d4d" stroke-width="0.1" fill="none" />
<path d="M152.68730147661003,-191.60268256940142 L244.99325364938048,-1.8181491386330935" stroke="#0d6d4d" stroke-width="0.1" fill="none" />
<path d="M154.57566244228587,-190.08252044974702 L240.0983201272852,48.76265653197809" stroke="#0d6d4d" stroke-width="0.1" fill="none" />
<path d="M156.44888954283752,-188.5437481350496 L224.87394577029497,97.24560922580737" stroke="#0d6d4d" stroke-width="0.1" fill="none" />
<path d="M158.30679937833102,-186.98651628015548 L199.97510923084457,141.54488930410656" stroke="#0d6d4d" stroke-width="0.1" fill="none" />
<path d="M160.14921004848256,-185.41097734720836 L166.47300108934132,179.75466588744828" stroke="#0d6d4d" stroke-width="0.1" fill="none" />
<path d="M161.97594117046768,-183.81728559072238 L125.80893940127375,210.23108896337533" stroke="#0d6d4d" stroke-width="0.1" fill="none" />
<path d="M163.78681389658178,-182.20559704247972 L79.73236172659938,231.66301062858247" stroke="#0d6d4d" stroke-width="0.1" fill="none" />
<path d="M165.58165093175026,-180.57606949625412 L30.225561330480275,243.12839291670025" stroke="#0d6d4d" stroke-width="0.1" fill="none" />
<path d="M167.36027655088697,-178.92886249236213 L-20.581594467122457,244.13397545034758" stroke="#0d6d4d" stroke-width="0.1" fill="none" />
<path d="M169.12251661609852,-177.2641373020428 L-70.50329483037162,234.63649634714054" stroke="#0d6d4d" stroke-width="0.1" fill="none" />
<path d="M170.86819859373344,-175.58205691166873 L-117.39182273231629,215.044553419947" stroke="#0d6d4d" stroke-width="0.1" fill="none" />
<path d="M172.59715157127434,-173.88278600678836 L-159.2299534187742,186.201025599364" stroke="#0d6d4d" stroke-width="0.1" fill="none" />
<path d="M174.30920627407113,-172.1664909560026 L-194.217738871203,149.34681083892346" stroke="#0d6d4d" stroke-width="0.1" fill="none" />
<path d="M176.00419508191413,-170.4333397946761 L-220.8499446523805,106.06744056043057" stroke="#0d6d4d" stroke-width="0.1" fill="none" />
<path d="M177.68195204544486,-168.6835022084858 L-237.98080766919696,58.224867377407456" stroke="#0d6d4d" stroke-width="0.1" fill="none" />
<path d="M179.34231290240385,-166.91714951680748 L-244.8733288627292,7.877360705571321" stroke="#0d6d4d" stroke-width="0.1" fill="none" />
<path d="M180.98511509371227,-165.13445465594305 L-241.23098016966497,-42.80904351165429" stroke="#0d6d4d" stroke-width="0.1" fill="none" />
<path d="M182.61019777938813,-163.33559216218845 L-227.21046166731048,-91.65372937817445" stroke="#0d6d4d" stroke-width="0.1" fill="none" />
<path d="M184.21740185429277,-161.52073815474594 L-203.41496006795887,-136.55531487478143" stroke="#0d6d4d" stroke-width="0.1" fill="none" />
<path d="M185.80656996370885,-159.69007031848088 L-170.8681985937334,-175.58205691166876" stroke="#0d6d4d" stroke-width="0.1" fill="none" />
<path d="M187.3775465187457,-157.84376788652537 L-130.9703946507254,-207.0549582237364" stroke="#0d6d4d" stroke-width="0.1" fill="none" />
<path d="M188.93017771157284,-155.9820116227301 L-85.43802007869198,-229.6200007077629" stroke="#0d6d4d" stroke-width="0.1" fill="none" />
<path d="M190.4643115304783,-154.10498380396692 L-36.22995559352003,-242.306397599592" stroke="#0d6d4d" stroke-width="0.1" fill="none" />
<path d="M191.97979777475186,-152.2128682022824 L14.536783615222692,-244.56835838293594" stroke="#0d6d4d" stroke-width="0.1" fill="none" />
<path d="M193.47648806939017,-150.30585006690563 L64.67812550255333,-236.30856963190303" stroke="#0d6d4d" stroke-width="0.1" fill="none" />
<path d="M194.95423587962392,-148.38411610611143 L112.03690368707939,-217.88238160120267" stroke="#0d6d4d" stroke-width="0.1" fill="none" />
<path d="M196.41289652526413,-146.4478544689402 L154.57566244228587,-190.08252044974702" stroke="#0d6d4d" stroke-width="0.1" fill="none" />
<path d="M197.8523271948673,-144.49725472677727 L190.4643115304783,-154.10498380396692" stroke="#0d6d4d" stroke-width="0.1" fill="none" />
<path d="M199.27238695971772,-142.53250785479264 L218.15885981833992,-111.49758689210233" stroke="#0d6d4d" stroke-width="0.1" fill="none" />
<path d="M200.67293678762476,-140.55380621324332 L236.46784041915134,-64.09337288287124" stroke="#0d6d4d" stroke-width="0.1" fill="none" />
<path d="M202.05383955653534,-138.56134352864032 L244.60356963832,-13.931752229764053" stroke="#0d6d4d" stroke-width="0.1" fill="none" />
<path d="M203.41496006795884,-136.55531487478146 L242.21603447461555,36.82923625860109" stroke="#0d6d4d" stroke-width="0.1" fill="none" />
<path d="M204.75616506020376,-134.53591665365275 L229.40795077878457,86.005767943079" stroke="#0d6d4d" stroke-width="0.1" fill="none" />
<path d="M206.07732322142485,-132.50334657619928 L206.73034424177877,131.48218422917856" stroke="#0d6d4d" stroke-width="0.1" fill="none" />
<path d="M207.37830520247954,-130.45780364296823 L175.15884432604858,171.30201182228737" stroke="#0d6d4d" stroke-width="0.1" fill="none" />
<path d="M208.65898362959152,-128.39948812462558 L136.05171101556857,203.7521335587341" stroke="#0d6d4d" stroke-width="0.1" fill="none" />
<path d="M209.91923311682186,-126.32860154234828 L91.09140014567652,227.43648963941615" stroke="#0d6d4d" stroke-width="0.1" fill="none" />
<path d="M211.15893027834474,-124.24534664809443 L42.2121812722896,241.3361385127295" stroke="#0d6d4d" stroke-width="0.1" fill="none" />
<path d="M212.3779537405277,-122.14992740475242 L-8.483077916301589,244.85309348477907" stroke="#0d6d4d" stroke-width="0.1" fill="none" />
<path d="M213.5761841538148,-120.0425489661719 L-58.813380567971635,237.83604913083914" stroke="#0d6d4d" stroke-width="0.1" fill="none" />
<path d="M214.7535042044119,-117.92341765707789 L-106.61343088570234,220.58689071379462" stroke="#0d6d4d" stroke-width="0.1" fill="none" />
<path d="M215.909798625772,-115.79274095287055 L-149.82678886024934,193.84770656323553" stroke="#0d6d4d" stroke-width="0.1" fill="none" />
<path d="M217.04495420988073,-113.65072745931185 L-186.59434184043496,158.76886216489333" stroke="#0d6d4d" stroke-width="0.1" fill="none" />
<path d="M218.15885981833992,-111.49758689210233 L-215.33428674262524,116.85950946775729" stroke="#0d6d4d" stroke-width="0.1" fill="none" />
<path d="M219.25140639324903,-109.33353005634802 L-234.81018192779499,69.92266058321738" stroke="#0d6d4d" stroke-width="0.1" fill="none" />
<path d="M220.32248696788213,-107.15876882592207 L-244.18414103790917,19.977619116863767" stroke="#0d6d4d" stroke-width="0.1" fill="none" />
<path d="M221.37199667716092,-104.97351612272044 L-243.0528803016972,-30.826893730132" stroke="#0d6d4d" stroke-width="0.1" fill="none" />
<path d="M222.39983276792145,-102.7779858958161 L-231.46506849300698,-80.3051808261932" stroke="#0d6d4d" stroke-width="0.1" fill="none" />
<path d="M223.40589460897425,-100.57239310051186 L-209.9192331168219,-126.3286015423482" stroke="#0d6d4d" stroke-width="0.1" fill="none" />
<path d="M224.3900837009568,-98.35695367729517 L-179.34231290240385,-166.9171495168075" stroke="#0d6d4d" stroke-width="0.1" fill="none" />
<path d="M225.35230368597732,-96.13188453069596 L-141.0497793120301,-200.32463591886946" stroke="#0d6d4d" stroke-width="0.1" fill="none" />
<path d="M226.2924603570483,-93.8974035080509 L-96.68904270629895,-225.11381348229057" stroke="#0d6d4d" stroke-width="0.1" fill="none" />
<path d="M227.2104616673105,-91.65372937817435 L-48.168577929675855,-240.2182093435732" stroke="#0d6d4d" stroke-width="0.1" fill="none" />
<path d="M228.10621773904458,-89.40108180994001 L2.4241815450605446,-244.9880065305985" stroke="#0d6d4d" stroke-width="0.1" fill="none" />
<path d="M228.97964087247055,-87.13968135077387 L52.912648578977226,-239.21800020140137" stroke="#0d6d4d" stroke-width="0.1" fill="none" />
<path d="M229.83064555433438,-84.86974940506138 L101.12472287251829,-223.156425907829" stroke="#0d6d4d" stroke-width="0.1" fill="none" />
<path d="M230.65914846628004,-82.59150821247046 L144.98623843952157,-197.494280077065" stroke="#0d6d4d" stroke-width="0.1" fill="none" />
<path d="M231.46506849300692,-80.30518082619335 L182.61019777938813,-163.33559216218845" stroke="#0d6d4d" stroke-width="0.1" fill="none" />
<path d="M232.24832673021157,-78.01099109110781 L212.3779537405277,-122.14992740475242" stroke="#0d6d4d" stroke-width="0.1" fill="none" />
<path d="M233.0088464923126,-75.70916362186213 L233.0088464923126,-75.70916362186213" stroke="#0d6d4d" stroke-width="0.1" fill="none" />
<path d="M233.74655331995922,-73.39992378088326 L243.615299703773,-26.01126198862442" stroke="#0d6d4d" stroke-width="0.1" fill="none" />
<path d="M234.4613749873205,-71.08349765631313 L243.7410055970877,24.805688672569826" stroke="#0d6d4d" stroke-width="0.1" fill="none" />
<path d="M235.15324150915745,-68.76011203987282 L233.3805560894892,74.55545613408034" stroke="#0d6d4d" stroke-width="0.1" fill="none" />
<path d="M235.82208514767444,-66.42999440465869 L212.97967545824415,121.09772021677783" stroke="#0d6d4d" stroke-width="0.1" fill="none" />
<path d="M236.46784041915134,-64.09337288287124 L183.41604451906355,162.43015302886621" stroke="#0d6d4d" stroke-width="0.1" fill="none" />
<path d="M237.09044410035477,-61.75047624347969 L145.96154129462198,196.77456254022866" stroke="#0d6d4d" stroke-width="0.1" fill="none" />
<path d="M237.689835234728,-59.401533869824 L102.22752264427668,222.65339344823357" stroke="#0d6d4d" stroke-width="0.1" fill="none" />
<path d="M238.26595513835898,-57.04677573715719 L54.095500932968065,238.95329413676484" stroke="#0d6d4d" stroke-width="0.1" fill="none" />
<path d="M238.81874740572576,-54.686432390129 L3.6361981477023684,244.97301496905868" stroke="#0d6d4d" stroke-width="0.1" fill="none" />
<path d="M239.348157915219,-52.320734920214825 L-46.979540107876836,240.45357724777645" stroke="#0d6d4d" stroke-width="0.1" fill="none" />
<path d="M239.85413483444077,-49.94991494308975 L-95.57413810834066,225.58941492199455" stroke="#0d6d4d" stroke-width="0.1" fill="none" />
<path d="M240.33662862527925,-47.574204575952685 L-140.05697304268705,201.02000970580028" stroke="#0d6d4d" stroke-width="0.1" fill="none" />
<path d="M240.79559204875883,-45.19383641480021 L-178.5143171872939,167.8023794800128" stroke="#0d6d4d" stroke-width="0.1" fill="none" />
<path d="M241.23098016966495,-42.809043511654515 L-209.2916697493262,127.36560357309575" stroke="#0d6d4d" stroke-width="0.1" fill="none" />
<path d="M241.64275036094367,-40.42005935174574 L-231.06493632372667,81.44934132153644" stroke="#0d6d4d" stroke-width="0.1" fill="none" />
<path d="M242.03086230787517,-38.027117830653076 L-242.8973937016721,32.028988946498096" stroke="#0d6d4d" stroke-width="0.1" fill="none" />
<path d="M242.39527801202053,-35.6304532314042 L-244.27998930690092,-18.769305373944174" stroke="#0d6d4d" stroke-width="0.1" fill="none" />
<path d="M242.7359617949422,-33.23030020153832 L-235.1532415091575,-68.76011203987265" stroke="#0d6d4d" stroke-width="0.1" fill="none" />
<path d="M243.05288030169717,-30.826893730132223 L-215.90979862577205,-115.79274095287045" stroke="#0d6d4d" stroke-width="0.1" fill="none" />
<path d="M243.34600250410244,-28.42046912479393 L-187.37754651874573,-157.8437678865253" stroke="#0d6d4d" stroke-width="0.1" fill="none" />
<path d="M243.615299703773,-26.01126198862442 L-150.78399152743813,-193.10408566121396" stroke="#0d6d4d" stroke-width="0.1" fill="none" />
<path d="M243.8607455349315,-23.599508197150847 L-107.70345104407784,-220.05673503257276" stroke="#0d6d4d" stroke-width="0.1" fill="none" />
<path d="M244.08231596698965,-21.18544387523271 L-59.989323683957785,-237.54216687557042" stroke="#0d6d4d" stroke-width="0.1" fill="none" />
<path d="M244.27998930690092,-18.76930537394423 L-9.694352903566177,-244.80812797327854" stroke="#0d6d4d" stroke-width="0.1" fill="none" />
<path d="M244.4537462012845,-16.351329247433743 L41.017685537677686,-241.54202423829312" stroke="#0d6d4d" stroke-width="0.1" fill="none" />
<path d="M244.60356963832,-13.931752229764053 L89.96507291546892,-227.88436904560692" stroke="#0d6d4d" stroke-width="0.1" fill="none" />
<path d="M244.72944494941308,-11.510811211734552 L135.04200881573757,-204.42273810662616" stroke="#0d6d4d" stroke-width="0.1" fill="none" />
<path d="M244.83135981063154,-9.088743217688338 L174.30920627407113,-172.1664909560026" stroke="#0d6d4d" stroke-width="0.1" fill="none" />
<path d="M244.90930424391195,-6.665785382305913 L206.07732322142485,-132.50334657619928" stroke="#0d6d4d" stroke-width="0.1" fill="none" />
<path d="M244.9632706180366,-4.24217492738869 L228.97964087247055,-87.13968135077387" stroke="#0d6d4d" stroke-width="0.1" fill="none" />
<path d="M244.99325364938048,-1.8181491386330935 L242.03086230787517,-38.027117830653076" stroke="#0d6d4d" stroke-width="0.1" fill="none" />
<path d="M244.99925040242877,0.6060546576004466 L244.6695016348234,12.721437409630822" stroke="#0d6d4d" stroke-width="0.1" fill="none" />
<path d="M244.98126029006414,3.0301991175239062 L236.7820400715183,62.92269463055363" stroke="#0d6d4d" stroke-width="0.1" fill="none" />
<path d="M244.9392850736242,5.4540469031583605 L218.70780971954426,110.41690979048279" stroke="#0d6d4d" stroke-width="0.1" fill="none" />
<path d="M244.8733288627292,7.877360705571261 L191.22439491584296,153.16080043232256" stroke="#0d6d4d" stroke-width="0.1" fill="none" />
<path d="M244.78339811487947,10.299903268109928 L155.51417922313644,189.31545119338304" stroke="#0d6d4d" stroke-width="0.1" fill="none" />
<path d="M244.6695016348234,12.721437409630822 L113.11347726454926,217.32542709292508" stroke="#0d6d4d" stroke-width="0.1" fill="none" />
<path d="M244.53165057369523,15.141726047720573 L65.84643983800055,235.98569100829096" stroke="#0d6d4d" stroke-width="0.1" fill="none" />
<path d="M244.36985842792342,17.56053222190802 L15.746575825515912,244.49344643521894" stroke="#0d6d4d" stroke-width="0.1" fill="none" />
<path d="M244.18414103790917,19.977619116863707 L-35.030732840707344,242.48267516802719" stroke="#0d6d4d" stroke-width="0.1" fill="none" />
<path d="M243.97451658647566,22.392750085586044 L-84.30095939952842,230.0398840295288" stroke="#0d6d4d" stroke-width="0.1" fill="none" />
<path d="M243.7410055970877,24.805688672569826 L-129.94441434253554,207.7003831993948" stroke="#0d6d4d" stroke-width="0.1" fill="none" />
<path d="M243.48363093184253,27.216198636957113 L-169.99743808608758,176.42525625365212" stroke="#0d6d4d" stroke-width="0.1" fill="none" />
<path d="M243.20241778923128,29.624043975666176 L-202.73688096883623,137.56001270364848" stroke="#0d6d4d" stroke-width="0.1" fill="none" />
<path d="M242.89739370167212,32.02898894649798 L-226.75423610058138,92.77670187305542" stroke="#0d6d4d" stroke-width="0.1" fill="none" />
<path d="M242.56858853281454,34.4307980912164 L-241.01623574037194,44.001978473035344" stroke="#0d6d4d" stroke-width="0.1" fill="none" />
<path d="M242.21603447461555,36.82923625860109 L-244.90930424391195,-6.665785382305852" stroke="#0d6d4d" stroke-width="0.1" fill="none" />
<path d="M241.83976604418783,39.22406862747035 L-238.26595513835903,-57.04677573715697" stroke="#0d6d4d" stroke-width="0.1" fill="none" />
<path d="M241.43982008042042,41.615060729671114 L-221.37199667716098,-104.97351612272034" stroke="#0d6d4d" stroke-width="0.1" fill="none" />
<path d="M241.01623574037197,44.00197847303523 L-194.95423587962395,-148.38411610611138" stroke="#0d6d4d" stroke-width="0.1" fill="none" />
<path d="M240.5690544954369,46.3845881642979 L-160.14921004848253,-185.4109773472084" stroke="#0d6d4d" stroke-width="0.1" fill="none" />
<path d="M240.0983201272852,48.76265653197809 L-118.45429098912548,-214.46114087699803" stroke="#0d6d4d" stroke-width="0.1" fill="none" />
<path d="M239.60407872357607,51.135950749217095 L-71.66326551068566,-234.28481891993124" stroke="#0d6d4d" stroke-width="0.1" fill="none" />
<path d="M239.0863786734454,53.50423845657339 L-21.78916364614074,-244.02916290394822" stroke="#0d6d4d" stroke-width="0.1" fill="none" />
<path d="M238.54527066276836,55.86728778477237 L29.022345346473266,-243.27495446631994" stroke="#0d6d4d" stroke-width="0.1" fill="none" />
<path d="M237.980807669197,58.22486737740734 L78.58526334941523,-232.0546409454098" stroke="#0d6d4d" stroke-width="0.1" fill="none" />
<path d="M237.3930449569732,60.57674641359088 L124.76730876719253,-210.85093944062007" stroke="#0d6d4d" stroke-width="0.1" fill="none" />
<path d="M236.7820400715183,62.92269463055363 L165.58165093175026,-180.57606949625412" stroke="#0d6d4d" stroke-width="0.1" fill="none" />
<path d="M236.1478528337988,65.2624823461881 L199.27238695971772,-142.53250785479264" stroke="#0d6d4d" stroke-width="0.1" fill="none" />
<path d="M235.49054533446957,67.59588048153626 L224.3900837009568,-98.35695367729517" stroke="#0d6d4d" stroke-width="0.1" fill="none" />
<path d="M234.810181927795,69.92266058321728 L239.85413483444077,-49.94991494308975" stroke="#0d6d4d" stroke-width="0.1" fill="none" />
<path d="M234.1068292253482,72.24259484579478 L244.99925040242877,0.6060546576004466" stroke="#0d6d4d" stroke-width="0.1" fill="none" />
<path d="M233.3805560894892,74.55545613408034 L239.60407872357607,51.135950749217095" stroke="#0d6d4d" stroke-width="0.1" fill="none" />
<path d="M232.63143362662322,76.86101800537114 L223.90072932126986,99.46589068320581" stroke="#0d6d4d" stroke-width="0.1" fill="none" />
<path d="M231.8595351802387,79.15905473162023 L198.56478717450878,143.5166376917395" stroke="#0d6d4d" stroke-width="0.1" fill="none" />
<path d="M231.06493632372664,81.44934132153648 L164.6862478953511,181.39305321359737" stroke="#0d6d4d" stroke-width="0.1" fill="none" />
<path d="M230.24771485298152,83.7316535426126 L123.7226242513629,211.46562899997733" stroke="#0d6d4d" stroke-width="0.1" fill="none" />
<path d="M229.40795077878457,86.005767943079 L77.4362414707641,232.44059134944894" stroke="#0d6d4d" stroke-width="0.1" fill="none" />
<path d="M228.54572631897034,88.27146187378064 L27.81841899360744,243.41556146782418" stroke="#0d6d4d" stroke-width="0.1" fill="none" />
<path d="M227.66112589037695,90.52851350997616 L-22.996199500124767,243.91837734896168" stroke="#0d6d4d" stroke-width="0.1" fill="none" />
<path d="M226.75423610058135,92.77670187305547 L-72.82148211662926,233.92740699271954" stroke="#0d6d4d" stroke-width="0.1" fill="none" />
<path d="M225.82514573941984,95.01580685217482 L-119.51385988551023,213.87247905064044" stroke="#0d6d4d" stroke-width="0.1" fill="none" />
<path d="M224.87394577029497,97.24560922580737 L-161.0645467671627,184.61639086139792" stroke="#0d6d4d" stroke-width="0.1" fill="none" />
<path d="M223.90072932126986,99.46589068320581 L-195.68596106769684,147.4177894319808" stroke="#0d6d4d" stroke-width="0.1" fill="none" />
<path d="M222.9055916759502,101.67643384577649 L-221.88863026415555,103.87702228836204" stroke="#0d6d4d" stroke-width="0.1" fill="none" />
<path d="M221.88863026415558,103.877022288362 L-238.5452706627684,55.86728778477232" stroke="#0d6d4d" stroke-width="0.1" fill="none" />
<path d="M220.84994465238046,106.06744056043063 L-244.9392850736242,5.454046903158475" stroke="#0d6d4d" stroke-width="0.1" fill="none" />
<path d="M219.78963653404617,108.24747420716973 L-240.79559204875883,-45.1938364148002" stroke="#0d6d4d" stroke-width="0.1" fill="none" />
<path d="M218.70780971954426,110.41690979048279 L-226.29246035704833,-93.89740350805074" stroke="#0d6d4d" stroke-width="0.1" fill="none" />
<path d="M217.60457012607313,112.57553490988585 L-202.0538395565354,-138.56134352864024" stroke="#0d6d4d" stroke-width="0.1" fill="none" />
<path d="M216.48002576726782,114.72313822330291 L-169.1225166160985,-177.2641373020428" stroke="#0d6d4d" stroke-width="0.1" fill="none" />
<path d="M215.3342867426252,116.85950946775733 L-128.91525343456198,-208.34072437212714" stroke="#0d6d4d" stroke-width="0.1" fill="none" />
<path d="M214.16746522672443,118.984439479958 L-83.16183531798963,-230.45413675294174" stroke="#0d6d4d" stroke-width="0.1" fill="none" />
<path d="M212.97967545824415,121.09772021677783 L-33.83065265403062,-242.65301758066462" stroke="#0d6d4d" stroke-width="0.1" fill="none" />
<path d="M211.77103372877812,123.19914477562219 L16.955982612888743,-244.41255011482414" stroke="#0d6d4d" stroke-width="0.1" fill="none" />
<path d="M210.54165837144978,125.2885074146856 L67.01314247529682,-235.65703625308024" stroke="#0d6d4d" stroke-width="0.1" fill="none" />
<path d="M209.29166974932622,127.36560357309567 L114.1872822066519,-216.7631531931994" stroke="#0d6d4d" stroke-width="0.1" fill="none" />
<path d="M208.02119024363435,129.4302298909404 L156.44888954283752,-188.5437481350496" stroke="#0d6d4d" stroke-width="0.1" fill="none" />
<path d="M206.73034424177877,131.48218422917856 L191.97979777475186,-152.2128682022824" stroke="#0d6d4d" stroke-width="0.1" fill="none" />
<path d="M205.41925812516394,133.5212656894297 L219.25140639324903,-109.33353005634802" stroke="#0d6d4d" stroke-width="0.1" fill="none" />
<path d="M204.0880602568201,135.5472746336442 L237.09044410035477,-61.75047624347969" stroke="#0d6d4d" stroke-width="0.1" fill="none" />
<path d="M202.7368809688363,137.5600127036484 L244.72944494941308,-11.510811211734552" stroke="#0d6d4d" stroke-width="0.1" fill="none" />
<path d="M201.3658525495998,139.55928284056503 L241.83976604418783,39.22406862747035" stroke="#0d6d4d" stroke-width="0.1" fill="none" />
<path d="M199.97510923084457,141.54488930410656 L228.54572631897034,88.27146187378064" stroke="#0d6d4d" stroke-width="0.1" fill="none" />
<path d="M198.56478717450878,143.5166376917395 L205.41925812516394,133.5212656894297" stroke="#0d6d4d" stroke-width="0.1" fill="none" />
<path d="M197.13502445940415,145.47433495771728 L173.45530172224795,173.0267560362961" stroke="#0d6d4d" stroke-width="0.1" fill="none" />
<path d="M195.6859610676969,147.41778943198074 L134.02900124425065,205.08833907725875" stroke="#0d6d4d" stroke-width="0.1" fill="none" />
<path d="M194.21773887120307,149.3468108389234 L88.83654364454344,228.32667061316147" stroke="#0d6d4d" stroke-width="0.1" fill="none" />
<path d="M192.73050161749805,151.26121031602113 L39.822185828848035,241.7419978320124" stroke="#0d6d4d" stroke-width="0.1" fill="none" />
<path d="M191.22439491584296,153.16080043232256 L-10.905390605858148,244.7571703867604" stroke="#0d6d4d" stroke-width="0.1" fill="none" />
<path d="M189.69956622292875,155.0453952067996 L-61.163798464187536,237.24247039143782" stroke="#0d6d4d" stroke-width="0.1" fill="none" />
<path d="M188.15616482843933,156.91481012655615 L-108.790834986231,219.52119310672182" stroke="#0d6d4d" stroke-width="0.1" fill="none" />
<path d="M186.59434184043502,158.76886216489328 L-151.73750351247463,192.35573822426443" stroke="#0d6d4d" stroke-width="0.1" fill="none" />
<path d="M185.01425017055854,160.60736979922802 L-188.15616482843922,156.9148101265563" stroke="#0d6d4d" stroke-width="0.1" fill="none" />
<path d="M183.41604451906355,162.43015302886621 L-216.4800257672678,114.72313822330295" stroke="#0d6d4d" stroke-width="0.1" fill="none" />
<path d="M181.79988135966926,164.2370333926249 L-235.49054533446957,67.59588048153621" stroke="#0d6d4d" stroke-width="0.1" fill="none" />
<path d="M180.16591892423997,166.02783398630538 L-244.36985842792342,17.56053222190808" stroke="#0d6d4d" stroke-width="0.1" fill="none" />
<path d="M178.51431718729398,167.80237948001275 L-242.7359617949422,-33.23030020153826" stroke="#0d6d4d" stroke-width="0.1" fill="none" />
<path d="M176.84523785034042,169.56049613532193 L-230.6591484662801,-82.59150821247032" stroke="#0d6d4d" stroke-width="0.1" fill="none" />
<path d="M175.15884432604858,171.30201182228737 L-208.65898362959157,-128.39948812462546" stroke="#0d6d4d" stroke-width="0.1" fill="none" />
<path d="M173.45530172224795,173.0267560362961 L-177.68195204544506,-168.68350220848558" stroke="#0d6d4d" stroke-width="0.1" fill="none" />
<path d="M171.73477682576387,174.73455991476064 L-139.0607386523248,-201.7104632027546" stroke="#0d6d4d" stroke-width="0.1" fill="none" />
<path d="M169.9974380860876,176.4252562536521 L-94.45689417871887,-226.0594946957776" stroke="#0d6d4d" stroke-width="0.1" fill="none" />
<path d="M168.2434555988847,178.09867952386986 L-45.789352385823875,-240.68305966163646" stroke="#0d6d4d" stroke-width="0.1" fill="none" />
<path d="M166.47300108934132,179.75466588744828 L4.848125748511421,-244.9520272966252" stroke="#0d6d4d" stroke-width="0.1" fill="none" />
<path d="M164.6862478953511,181.39305321359737 L55.27702921205005,-238.68273930364165" stroke="#0d6d4d" stroke-width="0.1" fill="none" />
<path d="M162.88337095054464,183.0136810945763 L103.32782023202002,-222.14491118659316" stroke="#0d6d4d" stroke-width="0.1" fill="none" />
<path d="M161.06454676716277,184.6163908613979 L146.93327150484188,-196.0500286276042" stroke="#0d6d4d" stroke-width="0.1" fill="none" />
<path d="M159.22995341877422,186.20102559936396 L184.21740185429277,-161.52073815474594" stroke="#0d6d4d" stroke-width="0.1" fill="none" />
<path d="M157.37977052284182,187.76743016342758 L213.5761841538148,-120.0425489661719" stroke="#0d6d4d" stroke-width="0.1" fill="none" />
<path d="M155.51417922313644,189.31545119338304 L233.74655331995922,-73.39992378088326" stroke="#0d6d4d" stroke-width="0.1" fill="none" />
<path d="M153.6333621720025,190.8449371288804 L243.8607455349315,-23.599508197150847" stroke="#0d6d4d" stroke-width="0.1" fill="none" />
<path d="M151.7375035124747,192.3557382242644 L243.48363093184253,27.216198636957113" stroke="#0d6d4d" stroke-width="0.1" fill="none" />
<path d="M149.82678886024937,193.84770656323548 L232.63143362662322,76.86101800537114" stroke="#0d6d4d" stroke-width="0.1" fill="none" />
<path d="M147.90140528551206,195.3206960733314 L211.77103372877812,123.19914477562219" stroke="#0d6d4d" stroke-width="0.1" fill="none" />
<path d="M145.96154129462198,196.77456254022866 L181.79988135966926,164.2370333926249" stroke="#0d6d4d" stroke-width="0.1" fill="none" />
<path d="M144.00738681165595,198.2091636218621 L144.00738681165595,198.2091636218621" stroke="#0d6d4d" stroke-width="0.1" fill="none" />
<path d="M142.03913315981387,199.62435886236096 L100.0194479095537,223.65399625284604" stroke="#0d6d4d" stroke-width="0.1" fill="none" />
<path d="M140.0569730426871,201.02000970580025 L51.72850110230283,239.47685101844198" stroke="#0d6d4d" stroke-width="0.1" fill="none" />
<path d="M138.06110052539185,202.39597950976608 L1.2121056066532034,244.99700161430204" stroke="#0d6d4d" stroke-width="0.1" fill="none" />
<path d="M136.05171101556857,203.7521335587341 L-49.356436747595566,239.97696171003707" stroke="#0d6d4d" stroke-width="0.1" fill="none" />
<path d="M134.02900124425065,205.08833907725875 L-97.80158068349952,224.63270201778045" stroke="#0d6d4d" stroke-width="0.1" fill="none" />
<path d="M131.99316924660357,206.40446524297255 L-142.03913315981382,199.624358862361" stroke="#0d6d4d" stroke-width="0.1" fill="none" />
<path d="M129.94441434253557,207.70038319939476 L-180.16591892423986,166.02783398630552" stroke="#0d6d4d" stroke-width="0.1" fill="none" />
<path d="M127.88293711718332,208.97596606854708 L-210.54165837144973,125.28850741468568" stroke="#0d6d4d" stroke-width="0.1" fill="none" />
<path d="M125.80893940127375,210.23108896337533 L-231.8595351802387,79.15905473162023" stroke="#0d6d4d" stroke-width="0.1" fill="none" />
<path d="M123.7226242513629,211.46562899997733 L-243.2024177892313,29.624043975666122" stroke="#0d6d4d" stroke-width="0.1" fill="none" />
<path d="M121.62419592995646,212.67946530963343 L-244.08231596698965,-21.185443875232657" stroke="#0d6d4d" stroke-width="0.1" fill="none" />
<path d="M119.51385988551027,213.8724790506404 L-234.4613749873205,-71.08349765631313" stroke="#0d6d4d" stroke-width="0.1" fill="none" />
<path d="M117.39182273231644,215.0445534199469 L-214.753504204412,-117.92341765707776" stroke="#0d6d4d" stroke-width="0.1" fill="none" />
<path d="M115.25829223027415,216.19557366458898 L-185.8065699637089,-159.69007031848082" stroke="#0d6d4d" stroke-width="0.1" fill="none" />
<path d="M113.11347726454926,217.32542709292508 L-148.86591893999216,-194.58658272900445" stroke="#0d6d4d" stroke-width="0.1" fill="none" />
<path d="M110.95758782512263,218.43400308566933 L-105.52080119111146,-221.1116471739694" stroke="#0d6d4d" stroke-width="0.1" fill="none" />
<path d="M108.79083498623106,219.5211931067218 L-57.635997899339586,-238.12410996400033" stroke="#0d6d4d" stroke-width="0.1" fill="none" />
<path d="M106.6134308857022,220.5868907137947 L-7.271595291980047,-244.89206582065833" stroke="#0d6d4d" stroke-width="0.1" fill="none" />
<path d="M104.42558870418476,221.63099156883374 L43.405643795467974,-241.12434569470778" stroke="#0d6d4d" stroke-width="0.1" fill="none" />
<path d="M102.22752264427668,222.65339344823357 L92.2154977664849,-226.9830433571623" stroke="#0d6d4d" stroke-width="0.1" fill="none" />
<path d="M100.0194479095537,223.65399625284604 L137.0580831296485,-203.07654184771405" stroke="#0d6d4d" stroke-width="0.1" fill="none" />
<path d="M97.80158068349958,224.63270201778042 L176.00419508191413,-170.4333397946761" stroke="#0d6d4d" stroke-width="0.1" fill="none" />
<path d="M95.5741381083407,225.58941492199455 L207.37830520247954,-130.45780364296823" stroke="#0d6d4d" stroke-width="0.1" fill="none" />
<path d="M93.33733826378614,226.52404129767677 L229.83064555433438,-84.86974940506138" stroke="#0d6d4d" stroke-width="0.1" fill="none" />
<path d="M91.09140014567652,227.43648963941615 L242.39527801202053,-35.6304532314042" stroke="#0d6d4d" stroke-width="0.1" fill="none" />
<path d="M88.83654364454344,228.32667061316147 L244.53165057369523,15.141726047720573" stroke="#0d6d4d" stroke-width="0.1" fill="none" />
<path d="M86.57298952408031,229.1944970649677 L236.1478528337988,65.2624823461881" stroke="#0d6d4d" stroke-width="0.1" fill="none" />
<path d="M84.3009593995286,230.03988402952874 L217.60457012607313,112.57553490988585" stroke="#0d6d4d" stroke-width="0.1" fill="none" />
<path d="M82.02067571598026,230.86274873849615 L189.69956622292875,155.0453952067996" stroke="#0d6d4d" stroke-width="0.1" fill="none" />
<path d="M79.73236172659938,231.66301062858247 L153.6333621720025,190.8449371288804" stroke="#0d6d4d" stroke-width="0.1" fill="none" />
<path d="M77.4362414707641,232.44059134944894 L110.95758782512263,218.43400308566933" stroke="#0d6d4d" stroke-width="0.1" fill="none" />
<path d="M75.13253975213175,233.19541477137656 L63.50822806533904,236.62566422093965" stroke="#0d6d4d" stroke-width="0.1" fill="none" />
<path d="M72.82148211662931,233.9274069927195 L13.326635593630856,244.63728412438397" stroke="#0d6d4d" stroke-width="0.1" fill="none" />
<path d="M70.50329483037157,234.63649634714054 L-37.428291559551305,242.12418919003778" stroke="#0d6d4d" stroke-width="0.1" fill="none" />
<path d="M68.17820485750771,235.32261341062767 L-86.57298952408026,229.19449706496772" stroke="#0d6d4d" stroke-width="0.1" fill="none" />
<path d="M65.84643983800055,235.98569100829096 L-131.99316924660351,206.40446524297258" stroke="#0d6d4d" stroke-width="0.1" fill="none" />
<path d="M63.50822806533904,236.62566422093965 L-171.73477682576382,174.7345599147607" stroke="#0d6d4d" stroke-width="0.1" fill="none" />
<path d="M61.16379846418749,237.24247039143782 L-204.08806025682,135.54727463364438" stroke="#0d6d4d" stroke-width="0.1" fill="none" />
<path d="M58.81338056797179,237.83604913083911 L-227.66112589037692,90.52851350997621" stroke="#0d6d4d" stroke-width="0.1" fill="none" />
<path d="M56.4572044964071,238.40634232429906 L-241.4398200804204,41.615060729671335" stroke="#0d6d4d" stroke-width="0.1" fill="none" />
<path d="M54.095500932968065,238.95329413676484 L-244.83135981063154,-9.088743217688224" stroke="#0d6d4d" stroke-width="0.1" fill="none" />
<path d="M51.72850110230283,239.47685101844198 L-237.689835234728,-59.401533869824" stroke="#0d6d4d" stroke-width="0.1" fill="none" />
<path d="M49.35643674759562,239.97696171003705 L-220.3224869678822,-107.15876882592191" stroke="#0d6d4d" stroke-width="0.1" fill="none" />
<path d="M46.979540107877,240.45357724777642 L-193.47648806939026,-150.30585006690555" stroke="#0d6d4d" stroke-width="0.1" fill="none" />
<path d="M44.59804389528661,240.9066509681999 L-158.30679937833116,-186.98651628015534" stroke="#0d6d4d" stroke-width="0.1" fill="none" />
<path d="M42.2121812722896,241.3361385127295 L-116.32648112071286,-215.6227023995211" stroke="#0d6d4d" stroke-width="0.1" fill="none" />
<path d="M39.822185828848035,241.7419978320124 L-69.34159846784628,-234.9824306664734" stroke="#0d6d4d" stroke-width="0.1" fill="none" />
<path d="M37.42829155955147,242.12418919003778 L-19.373521520280157,-244.232812422703" stroke="#0d6d4d" stroke-width="0.1" fill="none" />
<path d="M35.03073284070729,242.48267516802719 L31.428037494970507,-242.97588040629614" stroke="#0d6d4d" stroke-width="0.1" fill="none" />
<path d="M32.629744407394355,242.81742066809812 L80.87750852522798,-231.26570998475256" stroke="#0d6d4d" stroke-width="0.1" fill="none" />
<path d="M30.225561330480275,243.12839291670025 L126.84749065801142,-209.60609274008638" stroke="#0d6d4d" stroke-width="0.1" fill="none" />
<path d="M27.81841899360744,243.41556146782418 L167.36027655088697,-178.92886249236213" stroke="#0d6d4d" stroke-width="0.1" fill="none" />
<path d="M25.40855307014677,243.6788982059824 L200.67293678762476,-140.55380621324332" stroke="#0d6d4d" stroke-width="0.1" fill="none" />
<path d="M22.996199500124717,243.91837734896168 L225.35230368597732,-96.13188453069596" stroke="#0d6d4d" stroke-width="0.1" fill="none" />
<path d="M20.581594467122628,244.13397545034755 L240.33662862527925,-47.574204575952685" stroke="#0d6d4d" stroke-width="0.1" fill="none" />
<path d="M18.164974375153392,244.3256714018198 L244.98126029006414,3.0301991175239062" stroke="#0d6d4d" stroke-width="0.1" fill="none" />
<path d="M15.746575825515912,244.49344643521894 L239.0863786734454,53.50423845657339" stroke="#0d6d4d" stroke-width="0.1" fill="none" />
<path d="M13.326635593630856,244.63728412438397 L222.9055916759502,101.67643384577649" stroke="#0d6d4d" stroke-width="0.1" fill="none" />
<path d="M10.905390605858319,244.75717038676038 L197.13502445940415,145.47433495771728" stroke="#0d6d4d" stroke-width="0.1" fill="none" />
<path d="M8.483077916301758,244.85309348477907 L162.88337095054464,183.0136810945763" stroke="#0d6d4d" stroke-width="0.1" fill="none" />
<path d="M6.0599346835987,244.92504402700536 L121.62419592995646,212.67946530963343" stroke="#0d6d4d" stroke-width="0.1" fill="none" />
<path d="M3.6361981477023684,244.97301496905868 L75.13253975213175,233.19541477137656" stroke="#0d6d4d" stroke-width="0.1" fill="none" />
<path d="M1.2121056066532034,244.99700161430204 L25.40855307014677,243.6788982059824" stroke="#0d6d4d" stroke-width="0.1" fill="none" />
<path d="M-1.2121056066531435,244.99700161430204 L-25.40855307014671,243.67889820598242" stroke="#0d6d4d" stroke-width="0.1" fill="none" />
<path d="M-3.6361981477024172,244.97301496905865 L-75.13253975213169,233.19541477137656" stroke="#0d6d4d" stroke-width="0.1" fill="none" />
<path d="M-6.059934683598748,244.92504402700536 L-121.6241959299564,212.67946530963346" stroke="#0d6d4d" stroke-width="0.1" fill="none" />
<path d="M-8.483077916301589,244.85309348477907 L-162.8833709505447,183.01368109457624" stroke="#0d6d4d" stroke-width="0.1" fill="none" />
<path d="M-10.905390605858148,244.7571703867604 L-197.13502445940404,145.47433495771745" stroke="#0d6d4d" stroke-width="0.1" fill="none" />
<path d="M-13.326635593630796,244.63728412438397 L-222.90559167595018,101.67643384577653" stroke="#0d6d4d" stroke-width="0.1" fill="none" />
<path d="M-15.746575825515851,244.49344643521894 L-239.08637867344535,53.50423845657361" stroke="#0d6d4d" stroke-width="0.1" fill="none" />
<path d="M-18.16497437515322,244.3256714018198 L-244.98126029006414,3.0301991175240204" stroke="#0d6d4d" stroke-width="0.1" fill="none" />
<path d="M-20.581594467122457,244.13397545034758 L-240.33662862527925,-47.57420457595262" stroke="#0d6d4d" stroke-width="0.1" fill="none" />
<path d="M-22.996199500124767,243.91837734896168 L-225.3523036859773,-96.13188453069601" stroke="#0d6d4d" stroke-width="0.1" fill="none" />
<path d="M-25.40855307014671,243.67889820598242 L-200.67293678762485,-140.5538062132432" stroke="#0d6d4d" stroke-width="0.1" fill="none" />
<path d="M-27.81841899360738,243.4155614678242 L-167.360276550887,-178.92886249236213" stroke="#0d6d4d" stroke-width="0.1" fill="none" />
<path d="M-30.225561330480215,243.12839291670025 L-126.84749065801157,-209.60609274008635" stroke="#0d6d4d" stroke-width="0.1" fill="none" />
<path d="M-32.629744407394305,242.81742066809812 L-80.87750852522805,-231.26570998475253" stroke="#0d6d4d" stroke-width="0.1" fill="none" />
<path d="M-35.030732840707344,242.48267516802719 L-31.428037494970514,-242.97588040629614" stroke="#0d6d4d" stroke-width="0.1" fill="none" />
<path d="M-37.428291559551305,242.12418919003778 L19.373521520280182,-244.232812422703" stroke="#0d6d4d" stroke-width="0.1" fill="none" />
<path d="M-39.822185828847985,241.7419978320124 L69.34159846784624,-234.9824306664734" stroke="#0d6d4d" stroke-width="0.1" fill="none" />
<path d="M-42.212181272289556,241.33613851272952 L116.32648112071274,-215.62270239952116" stroke="#0d6d4d" stroke-width="0.1" fill="none" />
<path d="M-44.598043895286665,240.90665096819987 L158.30679937833102,-186.98651628015548" stroke="#0d6d4d" stroke-width="0.1" fill="none" />
<path d="M-46.979540107876836,240.45357724777645 L193.47648806939017,-150.30585006690563" stroke="#0d6d4d" stroke-width="0.1" fill="none" />
<path d="M-49.356436747595566,239.97696171003707 L220.32248696788213,-107.15876882592207" stroke="#0d6d4d" stroke-width="0.1" fill="none" />
<path d="M-51.72850110230277,239.47685101844198 L237.689835234728,-59.401533869824" stroke="#0d6d4d" stroke-width="0.1" fill="none" />
<path d="M-54.095500932968015,238.95329413676484 L244.83135981063154,-9.088743217688338" stroke="#0d6d4d" stroke-width="0.1" fill="none" />
<path d="M-56.457204496406945,238.4063423242991 L241.43982008042042,41.615060729671114" stroke="#0d6d4d" stroke-width="0.1" fill="none" />
<path d="M-58.813380567971635,237.83604913083914 L227.66112589037695,90.52851350997616" stroke="#0d6d4d" stroke-width="0.1" fill="none" />
<path d="M-61.163798464187536,237.24247039143782 L204.0880602568201,135.5472746336442" stroke="#0d6d4d" stroke-width="0.1" fill="none" />
<path d="M-63.50822806533898,236.62566422093968 L171.73477682576387,174.73455991476064" stroke="#0d6d4d" stroke-width="0.1" fill="none" />
<path d="M-65.84643983800049,235.98569100829096 L131.99316924660357,206.40446524297255" stroke="#0d6d4d" stroke-width="0.1" fill="none" />
<path d="M-68.17820485750765,235.32261341062767 L86.57298952408031,229.1944970649677" stroke="#0d6d4d" stroke-width="0.1" fill="none" />
<path d="M-70.50329483037162,234.63649634714054 L37.42829155955147,242.12418919003778" stroke="#0d6d4d" stroke-width="0.1" fill="none" />
<path d="M-72.82148211662926,233.92740699271954 L-13.326635593630796,244.63728412438397" stroke="#0d6d4d" stroke-width="0.1" fill="none" />
<path d="M-75.13253975213169,233.19541477137656 L-63.50822806533898,236.62566422093968" stroke="#0d6d4d" stroke-width="0.1" fill="none" />
<path d="M-77.43624147076406,232.44059134944894 L-110.95758782512257,218.43400308566936" stroke="#0d6d4d" stroke-width="0.1" fill="none" />
<path d="M-79.73236172659942,231.66301062858244 L-153.63336217200248,190.84493712888042" stroke="#0d6d4d" stroke-width="0.1" fill="none" />
<path d="M-82.0206757159801,230.8627487384962 L-189.69956622292875,155.04539520679958" stroke="#0d6d4d" stroke-width="0.1" fill="none" />
<path d="M-84.30095939952842,230.0398840295288 L-217.60457012607304,112.57553490988599" stroke="#0d6d4d" stroke-width="0.1" fill="none" />
<path d="M-86.57298952408026,229.19449706496772 L-236.14785283379877,65.26248234618815" stroke="#0d6d4d" stroke-width="0.1" fill="none" />
<path d="M-88.83654364454338,228.32667061316147 L-244.5316505736952,15.141726047720738" stroke="#0d6d4d" stroke-width="0.1" fill="none" />
<path d="M-91.09140014567656,227.43648963941612 L-242.39527801202053,-35.63045323140415" stroke="#0d6d4d" stroke-width="0.1" fill="none" />
<path d="M-93.33733826378598,226.52404129767683 L-229.83064555433438,-84.86974940506138" stroke="#0d6d4d" stroke-width="0.1" fill="none" />
<path d="M-95.57413810834066,225.58941492199455 L-207.37830520247962,-130.4578036429681" stroke="#0d6d4d" stroke-width="0.1" fill="none" />
<path d="M-97.80158068349952,224.63270201778045 L-176.0041950819142,-170.43333979467604" stroke="#0d6d4d" stroke-width="0.1" fill="none" />
<path d="M-100.01944790955365,223.65399625284607 L-137.05808312964868,-203.07654184771397" stroke="#0d6d4d" stroke-width="0.1" fill="none" />
<path d="M-102.22752264427652,222.65339344823363 L-92.215497766485,-226.98304335716225" stroke="#0d6d4d" stroke-width="0.1" fill="none" />
<path d="M-104.4255887041847,221.63099156883376 L-43.40564379546801,-241.12434569470778" stroke="#0d6d4d" stroke-width="0.1" fill="none" />
<path d="M-106.61343088570234,220.58689071379462 L7.2715952919801,-244.89206582065833" stroke="#0d6d4d" stroke-width="0.1" fill="none" />
<path d="M-108.790834986231,219.52119310672182 L57.63599789933956,-238.12410996400033" stroke="#0d6d4d" stroke-width="0.1" fill="none" />
<path d="M-110.95758782512257,218.43400308566936 L105.52080119111137,-221.11164717396943" stroke="#0d6d4d" stroke-width="0.1" fill="none" />
<path d="M-113.11347726454922,217.3254270929251 L148.865918939992,-194.58658272900453" stroke="#0d6d4d" stroke-width="0.1" fill="none" />
<path d="M-115.2582922302742,216.19557366458895 L185.80656996370885,-159.69007031848088" stroke="#0d6d4d" stroke-width="0.1" fill="none" />
<path d="M-117.39182273231629,215.044553419947 L214.7535042044119,-117.92341765707789" stroke="#0d6d4d" stroke-width="0.1" fill="none" />
<path d="M-119.51385988551023,213.87247905064044 L234.4613749873205,-71.08349765631313" stroke="#0d6d4d" stroke-width="0.1" fill="none" />
<path d="M-121.6241959299564,212.67946530963346 L244.08231596698965,-21.18544387523271" stroke="#0d6d4d" stroke-width="0.1" fill="none" />
<path d="M-123.72262425136296,211.46562899997733 L243.20241778923128,29.624043975666176" stroke="#0d6d4d" stroke-width="0.1" fill="none" />
<path d="M-125.8089394012736,210.2310889633754 L231.8595351802387,79.15905473162023" stroke="#0d6d4d" stroke-width="0.1" fill="none" />
<path d="M-127.88293711718326,208.9759660685471 L210.54165837144978,125.2885074146856" stroke="#0d6d4d" stroke-width="0.1" fill="none" />
<path d="M-129.94441434253554,207.7003831993948 L180.16591892423997,166.02783398630538" stroke="#0d6d4d" stroke-width="0.1" fill="none" />
<path d="M-131.99316924660351,206.40446524297258 L142.03913315981387,199.62435886236096" stroke="#0d6d4d" stroke-width="0.1" fill="none" />
<path d="M-134.0290012442507,205.08833907725872 L97.80158068349958,224.63270201778042" stroke="#0d6d4d" stroke-width="0.1" fill="none" />
<path d="M-136.05171101556843,203.7521335587342 L49.35643674759562,239.97696171003705" stroke="#0d6d4d" stroke-width="0.1" fill="none" />
<path d="M-138.06110052539182,202.3959795097661 L-1.2121056066531435,244.99700161430204" stroke="#0d6d4d" stroke-width="0.1" fill="none" />
<path d="M-140.05697304268705,201.02000970580028 L-51.72850110230277,239.47685101844198" stroke="#0d6d4d" stroke-width="0.1" fill="none" />
<path d="M-142.03913315981382,199.624358862361 L-100.01944790955365,223.65399625284607" stroke="#0d6d4d" stroke-width="0.1" fill="none" />
<path d="M-144.0073868116558,198.20916362186222 L-144.0073868116558,198.20916362186222" stroke="#0d6d4d" stroke-width="0.1" fill="none" />
<path d="M-145.96154129462195,196.7745625402287 L-181.79988135966926,164.2370333926249" stroke="#0d6d4d" stroke-width="0.1" fill="none" />
<path d="M-147.90140528551203,195.32069607333145 L-211.77103372877806,123.19914477562227" stroke="#0d6d4d" stroke-width="0.1" fill="none" />
<path d="M-149.82678886024934,193.84770656323553 L-232.63143362662322,76.86101800537118" stroke="#0d6d4d" stroke-width="0.1" fill="none" />
<path d="M-151.73750351247463,192.35573822426443 L-243.4836309318425,27.21619863695728" stroke="#0d6d4d" stroke-width="0.1" fill="none" />
<path d="M-153.63336217200248,190.84493712888042 L-243.8607455349315,-23.599508197150737" stroke="#0d6d4d" stroke-width="0.1" fill="none" />
<path d="M-155.5141792231365,189.315451193383 L-233.74655331995922,-73.39992378088326" stroke="#0d6d4d" stroke-width="0.1" fill="none" />
<path d="M-157.37977052284168,187.7674301634277 L-213.5761841538148,-120.04254896617194" stroke="#0d6d4d" stroke-width="0.1" fill="none" />
<path d="M-159.2299534187742,186.201025599364 L-184.21740185429286,-161.52073815474586" stroke="#0d6d4d" stroke-width="0.1" fill="none" />
<path d="M-161.0645467671627,184.61639086139792 L-146.93327150484188,-196.0500286276042" stroke="#0d6d4d" stroke-width="0.1" fill="none" />
<path d="M-162.8833709505447,183.01368109457624 L-103.32782023202014,-222.14491118659308" stroke="#0d6d4d" stroke-width="0.1" fill="none" />
<path d="M-164.686247895351,181.39305321359745 L-55.277029212050124,-238.68273930364163" stroke="#0d6d4d" stroke-width="0.1" fill="none" />
<path d="M-166.47300108934127,179.7546658874483 L-4.848125748511406,-244.9520272966252" stroke="#0d6d4d" stroke-width="0.1" fill="none" />
<path d="M-168.24345559888468,178.09867952386992 L45.789352385823875,-240.68305966163646" stroke="#0d6d4d" stroke-width="0.1" fill="none" />
<path d="M-169.99743808608758,176.42525625365212 L94.45689417871881,-226.05949469577763" stroke="#0d6d4d" stroke-width="0.1" fill="none" />
<path d="M-171.73477682576382,174.7345599147607 L139.06073865232486,-201.71046320275457" stroke="#0d6d4d" stroke-width="0.1" fill="none" />
<path d="M-173.4553017222478,173.02675603629623 L177.68195204544486,-168.6835022084858" stroke="#0d6d4d" stroke-width="0.1" fill="none" />
<path d="M-175.15884432604852,171.30201182228743 L208.65898362959152,-128.39948812462558" stroke="#0d6d4d" stroke-width="0.1" fill="none" />
<path d="M-176.84523785034037,169.56049613532198 L230.65914846628004,-82.59150821247046" stroke="#0d6d4d" stroke-width="0.1" fill="none" />
<path d="M-178.5143171872939,167.8023794800128 L242.7359617949422,-33.23030020153832" stroke="#0d6d4d" stroke-width="0.1" fill="none" />
<path d="M-180.16591892423986,166.02783398630552 L244.36985842792342,17.56053222190802" stroke="#0d6d4d" stroke-width="0.1" fill="none" />
<path d="M-181.79988135966926,164.2370333926249 L235.49054533446957,67.59588048153626" stroke="#0d6d4d" stroke-width="0.1" fill="none" />
<path d="M-183.4160445190635,162.43015302886627 L216.48002576726782,114.72313822330291" stroke="#0d6d4d" stroke-width="0.1" fill="none" />
<path d="M-185.01425017055846,160.60736979922808 L188.15616482843933,156.91481012655615" stroke="#0d6d4d" stroke-width="0.1" fill="none" />
<path d="M-186.59434184043496,158.76886216489333 L151.7375035124747,192.3557382242644" stroke="#0d6d4d" stroke-width="0.1" fill="none" />
<path d="M-188.15616482843922,156.9148101265563 L108.79083498623106,219.5211931067218" stroke="#0d6d4d" stroke-width="0.1" fill="none" />
<path d="M-189.69956622292875,155.04539520679958 L61.16379846418749,237.24247039143782" stroke="#0d6d4d" stroke-width="0.1" fill="none" />
<path d="M-191.2243949158429,153.1608004323226 L10.905390605858319,244.75717038676038" stroke="#0d6d4d" stroke-width="0.1" fill="none" />
<path d="M-192.730501617498,151.26121031602122 L-39.822185828847985,241.7419978320124" stroke="#0d6d4d" stroke-width="0.1" fill="none" />
<path d="M-194.217738871203,149.34681083892346 L-88.83654364454338,228.32667061316147" stroke="#0d6d4d" stroke-width="0.1" fill="none" />
<path d="M-195.68596106769684,147.4177894319808 L-134.0290012442507,205.08833907725872" stroke="#0d6d4d" stroke-width="0.1" fill="none" />
<path d="M-197.13502445940404,145.47433495771745 L-173.4553017222478,173.02675603629623" stroke="#0d6d4d" stroke-width="0.1" fill="none" />
<path d="M-198.5647871745088,143.51663769173948 L-205.41925812516394,133.52126568942967" stroke="#0d6d4d" stroke-width="0.1" fill="none" />
<path d="M-199.97510923084445,141.54488930410673 L-228.54572631897028,88.27146187378074" stroke="#0d6d4d" stroke-width="0.1" fill="none" />
<path d="M-201.36585254959982,139.55928284056503 L-241.8397660441878,39.22406862747036" stroke="#0d6d4d" stroke-width="0.1" fill="none" />
<path d="M-202.73688096883623,137.56001270364848 L-244.72944494941308,-11.510811211734438" stroke="#0d6d4d" stroke-width="0.1" fill="none" />
<path d="M-204.08806025682,135.54727463364438 L-237.09044410035477,-61.75047624347965" stroke="#0d6d4d" stroke-width="0.1" fill="none" />
<path d="M-205.41925812516394,133.52126568942967 L-219.251406393249,-109.33353005634808" stroke="#0d6d4d" stroke-width="0.1" fill="none" />
<path d="M-206.73034424177868,131.4821842291787 L-191.9797977747518,-152.21286820228246" stroke="#0d6d4d" stroke-width="0.1" fill="none" />
<path d="M-208.02119024363432,129.4302298909405 L-156.44888954283755,-188.54374813504958" stroke="#0d6d4d" stroke-width="0.1" fill="none" />
<path d="M-209.2916697493262,127.36560357309575 L-114.18728220665206,-216.76315319319932" stroke="#0d6d4d" stroke-width="0.1" fill="none" />
<path d="M-210.54165837144973,125.28850741468568 L-67.0131424752969,-235.6570362530802" stroke="#0d6d4d" stroke-width="0.1" fill="none" />
<path d="M-211.77103372877806,123.19914477562227 L-16.95598261288897,-244.4125501148241" stroke="#0d6d4d" stroke-width="0.1" fill="none" />
<path d="M-212.97967545824415,121.0977202167778 L33.83065265403066,-242.65301758066462" stroke="#0d6d4d" stroke-width="0.1" fill="none" />
<path d="M-214.16746522672432,118.98443947995816 L83.1618353179896,-230.45413675294176" stroke="#0d6d4d" stroke-width="0.1" fill="none" />
<path d="M-215.33428674262524,116.85950946775729 L128.91525343456206,-208.3407243721271" stroke="#0d6d4d" stroke-width="0.1" fill="none" />
<path d="M-216.4800257672678,114.72313822330295 L169.12251661609852,-177.2641373020428" stroke="#0d6d4d" stroke-width="0.1" fill="none" />
<path d="M-217.60457012607304,112.57553490988599 L202.05383955653534,-138.56134352864032" stroke="#0d6d4d" stroke-width="0.1" fill="none" />
<path d="M-218.7078097195443,110.41690979048275 L226.2924603570483,-93.8974035080509" stroke="#0d6d4d" stroke-width="0.1" fill="none" />
<path d="M-219.7896365340461,108.24747420716987 L240.79559204875883,-45.19383641480021" stroke="#0d6d4d" stroke-width="0.1" fill="none" />
<path d="M-220.8499446523805,106.06744056043057 L244.9392850736242,5.4540469031583605" stroke="#0d6d4d" stroke-width="0.1" fill="none" />
<path d="M-221.88863026415555,103.87702228836204 L238.54527066276836,55.86728778477237" stroke="#0d6d4d" stroke-width="0.1" fill="none" />
<path d="M-222.90559167595018,101.67643384577653 L221.88863026415558,103.877022288362" stroke="#0d6d4d" stroke-width="0.1" fill="none" />
<path d="M-223.90072932126984,99.46589068320587 L195.6859610676969,147.41778943198074" stroke="#0d6d4d" stroke-width="0.1" fill="none" />
<path d="M-224.87394577029494,97.24560922580747 L161.06454676716277,184.6163908613979" stroke="#0d6d4d" stroke-width="0.1" fill="none" />
<path d="M-225.82514573941975,95.01580685217498 L119.51385988551027,213.8724790506404" stroke="#0d6d4d" stroke-width="0.1" fill="none" />
<path d="M-226.75423610058138,92.77670187305542 L72.82148211662931,233.9274069927195" stroke="#0d6d4d" stroke-width="0.1" fill="none" />
<path d="M-227.66112589037692,90.52851350997621 L22.996199500124717,243.91837734896168" stroke="#0d6d4d" stroke-width="0.1" fill="none" />
<path d="M-228.54572631897028,88.27146187378074 L-27.81841899360738,243.4155614678242" stroke="#0d6d4d" stroke-width="0.1" fill="none" />
<path d="M-229.4079507787846,86.0057679430789 L-77.43624147076406,232.44059134944894" stroke="#0d6d4d" stroke-width="0.1" fill="none" />
<path d="M-230.2477148529815,83.73165354261276 L-123.72262425136296,211.46562899997733" stroke="#0d6d4d" stroke-width="0.1" fill="none" />
<path d="M-231.06493632372667,81.44934132153644 L-164.686247895351,181.39305321359745" stroke="#0d6d4d" stroke-width="0.1" fill="none" />
<path d="M-231.8595351802387,79.15905473162023 L-198.5647871745088,143.51663769173948" stroke="#0d6d4d" stroke-width="0.1" fill="none" />
<path d="M-232.63143362662322,76.86101800537118 L-223.90072932126984,99.46589068320587" stroke="#0d6d4d" stroke-width="0.1" fill="none" />
<path d="M-233.3805560894892,74.5554561340804 L-239.60407872357607,51.1359507492171" stroke="#0d6d4d" stroke-width="0.1" fill="none" />
<path d="M-234.10682922534818,72.24259484579487 L-244.99925040242877,0.6060546576006155" stroke="#0d6d4d" stroke-width="0.1" fill="none" />
<path d="M-234.81018192779499,69.92266058321738 L-239.85413483444077,-49.949914943089695" stroke="#0d6d4d" stroke-width="0.1" fill="none" />
<path d="M-235.49054533446957,67.59588048153621 L-224.3900837009568,-98.35695367729517" stroke="#0d6d4d" stroke-width="0.1" fill="none" />
<path d="M-236.14785283379877,65.26248234618815 L-199.2723869597177,-142.53250785479267" stroke="#0d6d4d" stroke-width="0.1" fill="none" />
<path d="M-236.78204007151828,62.92269463055368 L-165.58165093175032,-180.57606949625412" stroke="#0d6d4d" stroke-width="0.1" fill="none" />
<path d="M-237.39304495697317,60.57674641359099 L-124.76730876719252,-210.8509394406201" stroke="#0d6d4d" stroke-width="0.1" fill="none" />
<path d="M-237.98080766919696,58.224867377407456 L-78.58526334941533,-232.05464094540974" stroke="#0d6d4d" stroke-width="0.1" fill="none" />
<path d="M-238.5452706627684,55.86728778477232 L-29.02234534647331,-243.27495446631994" stroke="#0d6d4d" stroke-width="0.1" fill="none" />
<path d="M-239.08637867344535,53.50423845657361 L21.789163646140583,-244.02916290394825" stroke="#0d6d4d" stroke-width="0.1" fill="none" />
<path d="M-239.60407872357607,51.1359507492171 L71.66326551068566,-234.28481891993124" stroke="#0d6d4d" stroke-width="0.1" fill="none" />
<path d="M-240.0983201272852,48.762656531978145 L118.4542909891254,-214.46114087699806" stroke="#0d6d4d" stroke-width="0.1" fill="none" />
<path d="M-240.56905449543686,46.384588164297966 L160.14921004848256,-185.41097734720836" stroke="#0d6d4d" stroke-width="0.1" fill="none" />
<path d="M-241.01623574037194,44.001978473035344 L194.95423587962392,-148.38411610611143" stroke="#0d6d4d" stroke-width="0.1" fill="none" />
<path d="M-241.4398200804204,41.615060729671335 L221.37199667716092,-104.97351612272044" stroke="#0d6d4d" stroke-width="0.1" fill="none" />
<path d="M-241.8397660441878,39.22406862747036 L238.26595513835898,-57.04677573715719" stroke="#0d6d4d" stroke-width="0.1" fill="none" />
<path d="M-242.21603447461553,36.829236258601156 L244.90930424391195,-6.665785382305913" stroke="#0d6d4d" stroke-width="0.1" fill="none" />
<path d="M-242.56858853281454,34.43079809121647 L241.01623574037197,44.00197847303523" stroke="#0d6d4d" stroke-width="0.1" fill="none" />
<path d="M-242.8973937016721,32.028988946498096 L226.75423610058135,92.77670187305547" stroke="#0d6d4d" stroke-width="0.1" fill="none" />
<path d="M-243.2024177892313,29.624043975666122 L202.7368809688363,137.5600127036484" stroke="#0d6d4d" stroke-width="0.1" fill="none" />
<path d="M-243.4836309318425,27.21619863695728 L169.9974380860876,176.4252562536521" stroke="#0d6d4d" stroke-width="0.1" fill="none" />
<path d="M-243.7410055970877,24.80568867256983 L129.94441434253557,207.70038319939476" stroke="#0d6d4d" stroke-width="0.1" fill="none" />
<path d="M-243.97451658647566,22.392750085586048 L84.3009593995286,230.03988402952874" stroke="#0d6d4d" stroke-width="0.1" fill="none" />
<path d="M-244.18414103790917,19.977619116863767 L35.03073284070729,242.48267516802719" stroke="#0d6d4d" stroke-width="0.1" fill="none" />
<path d="M-244.36985842792342,17.56053222190808 L-15.746575825515851,244.49344643521894" stroke="#0d6d4d" stroke-width="0.1" fill="none" />
<path d="M-244.5316505736952,15.141726047720738 L-65.84643983800049,235.98569100829096" stroke="#0d6d4d" stroke-width="0.1" fill="none" />
<path d="M-244.6695016348234,12.721437409630827 L-113.11347726454922,217.3254270929251" stroke="#0d6d4d" stroke-width="0.1" fill="none" />
<path d="M-244.78339811487947,10.299903268109988 L-155.5141792231365,189.315451193383" stroke="#0d6d4d" stroke-width="0.1" fill="none" />
<path d="M-244.8733288627292,7.877360705571321 L-191.2243949158429,153.1608004323226" stroke="#0d6d4d" stroke-width="0.1" fill="none" />
<path d="M-244.9392850736242,5.454046903158475 L-218.7078097195443,110.41690979048275" stroke="#0d6d4d" stroke-width="0.1" fill="none" />
<path d="M-244.98126029006414,3.0301991175240204 L-236.78204007151828,62.92269463055368" stroke="#0d6d4d" stroke-width="0.1" fill="none" />
<path d="M-244.99925040242877,0.6060546576006155 L-244.6695016348234,12.721437409630827" stroke="#0d6d4d" stroke-width="0.1" fill="none" />
<path d="M-244.99325364938048,-1.8181491386331423 L-242.03086230787517,-38.02711783065296" stroke="#0d6d4d" stroke-width="0.1" fill="none" />
<path d="M-244.9632706180366,-4.242174927388413 L-228.97964087247055,-87.13968135077387" stroke="#0d6d4d" stroke-width="0.1" fill="none" />
<path d="M-244.90930424391195,-6.665785382305852 L-206.07732322142496,-132.5033465761991" stroke="#0d6d4d" stroke-width="0.1" fill="none" />
<path d="M-244.83135981063154,-9.088743217688224 L-174.30920627407104,-172.16649095600266" stroke="#0d6d4d" stroke-width="0.1" fill="none" />
<path d="M-244.72944494941308,-11.510811211734438 L-135.04200881573757,-204.42273810662616" stroke="#0d6d4d" stroke-width="0.1" fill="none" />
<path d="M-244.60356963831998,-13.931752229764102 L-89.96507291546907,-227.88436904560686" stroke="#0d6d4d" stroke-width="0.1" fill="none" />
<path d="M-244.4537462012845,-16.35132924743374 L-41.01768553767775,-241.5420242382931" stroke="#0d6d4d" stroke-width="0.1" fill="none" />
<path d="M-244.27998930690092,-18.769305373944174 L9.69435290356605,-244.80812797327854" stroke="#0d6d4d" stroke-width="0.1" fill="none" />
<path d="M-244.08231596698965,-21.185443875232657 L59.9893236839578,-237.5421668755704" stroke="#0d6d4d" stroke-width="0.1" fill="none" />
<path d="M-243.8607455349315,-23.599508197150737 L107.70345104407778,-220.0567350325728" stroke="#0d6d4d" stroke-width="0.1" fill="none" />
<path d="M-243.615299703773,-26.011261988624305 L150.78399152743822,-193.1040856612139" stroke="#0d6d4d" stroke-width="0.1" fill="none" />
<path d="M-243.34600250410244,-28.420469124793982 L187.3775465187457,-157.84376788652537" stroke="#0d6d4d" stroke-width="0.1" fill="none" />
<path d="M-243.0528803016972,-30.826893730132 L215.909798625772,-115.79274095287055" stroke="#0d6d4d" stroke-width="0.1" fill="none" />
<path d="M-242.7359617949422,-33.23030020153826 L235.15324150915745,-68.76011203987282" stroke="#0d6d4d" stroke-width="0.1" fill="none" />
<path d="M-242.39527801202053,-35.63045323140415 L244.27998930690092,-18.76930537394423" stroke="#0d6d4d" stroke-width="0.1" fill="none" />
<path d="M-242.03086230787517,-38.02711783065296 L242.89739370167212,32.02898894649798" stroke="#0d6d4d" stroke-width="0.1" fill="none" />
<path d="M-241.64275036094367,-40.42005935174584 L231.06493632372664,81.44934132153648" stroke="#0d6d4d" stroke-width="0.1" fill="none" />
<path d="M-241.23098016966497,-42.80904351165429 L209.29166974932622,127.36560357309567" stroke="#0d6d4d" stroke-width="0.1" fill="none" />
<path d="M-240.79559204875883,-45.1938364148002 L178.51431718729398,167.80237948001275" stroke="#0d6d4d" stroke-width="0.1" fill="none" />
<path d="M-240.33662862527925,-47.57420457595262 L140.0569730426871,201.02000970580025" stroke="#0d6d4d" stroke-width="0.1" fill="none" />
<path d="M-239.85413483444077,-49.949914943089695 L95.5741381083407,225.58941492199455" stroke="#0d6d4d" stroke-width="0.1" fill="none" />
<path d="M-239.34815791521902,-52.32073492021471 L46.979540107877,240.45357724777642" stroke="#0d6d4d" stroke-width="0.1" fill="none" />
<path d="M-238.81874740572573,-54.686432390129106 L-3.6361981477024172,244.97301496905865" stroke="#0d6d4d" stroke-width="0.1" fill="none" />
<path d="M-238.26595513835903,-57.04677573715697 L-54.095500932968015,238.95329413676484" stroke="#0d6d4d" stroke-width="0.1" fill="none" />
<path d="M-237.689835234728,-59.401533869824 L-102.22752264427652,222.65339344823363" stroke="#0d6d4d" stroke-width="0.1" fill="none" />
<path d="M-237.09044410035477,-61.75047624347965 L-145.96154129462195,196.7745625402287" stroke="#0d6d4d" stroke-width="0.1" fill="none" />
<path d="M-236.46784041915137,-64.09337288287118 L-183.4160445190635,162.43015302886627" stroke="#0d6d4d" stroke-width="0.1" fill="none" />
<path d="M-235.82208514767441,-66.42999440465879 L-212.97967545824415,121.0977202167778" stroke="#0d6d4d" stroke-width="0.1" fill="none" />
<path d="M-235.1532415091575,-68.76011203987265 L-233.3805560894892,74.5554561340804" stroke="#0d6d4d" stroke-width="0.1" fill="none" />
<path d="M-234.4613749873205,-71.08349765631313 L-243.7410055970877,24.80568867256983" stroke="#0d6d4d" stroke-width="0.1" fill="none" />
<path d="M-233.74655331995922,-73.39992378088326 L-243.615299703773,-26.011261988624305" stroke="#0d6d4d" stroke-width="0.1" fill="none" />
<path d="M-233.00884649231264,-75.70916362186207 L-233.00884649231264,-75.70916362186207" stroke="#0d6d4d" stroke-width="0.1" fill="none" />
<path d="M-232.24832673021157,-78.01099109110775 L-212.37795374052777,-122.14992740475223" stroke="#0d6d4d" stroke-width="0.1" fill="none" />
<path d="M-231.46506849300698,-80.3051808261932 L-182.61019777938822,-163.33559216218833" stroke="#0d6d4d" stroke-width="0.1" fill="none" />
<path d="M-230.6591484662801,-82.59150821247032 L-144.9862384395216,-197.494280077065" stroke="#0d6d4d" stroke-width="0.1" fill="none" />
<path d="M-229.83064555433438,-84.86974940506138 L-101.12472287251826,-223.15642590782903" stroke="#0d6d4d" stroke-width="0.1" fill="none" />
<path d="M-228.97964087247055,-87.13968135077387 L-52.912648578977326,-239.21800020140134" stroke="#0d6d4d" stroke-width="0.1" fill="none" />
<path d="M-228.1062177390446,-89.40108180993995 L-2.424181545060567,-244.9880065305985" stroke="#0d6d4d" stroke-width="0.1" fill="none" />
<path d="M-227.21046166731048,-91.65372937817445 L48.168577929675685,-240.2182093435732" stroke="#0d6d4d" stroke-width="0.1" fill="none" />
<path d="M-226.29246035704833,-93.89740350805074 L96.6890427062989,-225.11381348229057" stroke="#0d6d4d" stroke-width="0.1" fill="none" />
<path d="M-225.3523036859773,-96.13188453069601 L141.04977931203,-200.32463591886952" stroke="#0d6d4d" stroke-width="0.1" fill="none" />
<path d="M-224.3900837009568,-98.35695367729517 L179.34231290240385,-166.91714951680748" stroke="#0d6d4d" stroke-width="0.1" fill="none" />
<path d="M-223.40589460897425,-100.57239310051186 L209.91923311682186,-126.32860154234828" stroke="#0d6d4d" stroke-width="0.1" fill="none" />
<path d="M-222.39983276792148,-102.77798589581606 L231.46506849300692,-80.30518082619335" stroke="#0d6d4d" stroke-width="0.1" fill="none" />
<path d="M-221.37199667716098,-104.97351612272034 L243.05288030169717,-30.826893730132223" stroke="#0d6d4d" stroke-width="0.1" fill="none" />
<path d="M-220.3224869678822,-107.15876882592191 L244.18414103790917,19.977619116863707" stroke="#0d6d4d" stroke-width="0.1" fill="none" />
<path d="M-219.251406393249,-109.33353005634808 L234.810181927795,69.92266058321728" stroke="#0d6d4d" stroke-width="0.1" fill="none" />
<path d="M-218.15885981833992,-111.49758689210233 L215.3342867426252,116.85950946775733" stroke="#0d6d4d" stroke-width="0.1" fill="none" />
<path d="M-217.04495420988073,-113.65072745931185 L186.59434184043502,158.76886216489328" stroke="#0d6d4d" stroke-width="0.1" fill="none" />
<path d="M-215.90979862577205,-115.79274095287045 L149.82678886024937,193.84770656323548" stroke="#0d6d4d" stroke-width="0.1" fill="none" />
<path d="M-214.753504204412,-117.92341765707776 L106.6134308857022,220.5868907137947" stroke="#0d6d4d" stroke-width="0.1" fill="none" />
<path d="M-213.5761841538148,-120.04254896617194 L58.81338056797179,237.83604913083911" stroke="#0d6d4d" stroke-width="0.1" fill="none" />
<path d="M-212.37795374052777,-122.14992740475223 L8.483077916301758,244.85309348477907" stroke="#0d6d4d" stroke-width="0.1" fill="none" />
<path d="M-211.15893027834474,-124.2453466480944 L-42.212181272289556,241.33613851272952" stroke="#0d6d4d" stroke-width="0.1" fill="none" />
<path d="M-209.9192331168219,-126.3286015423482 L-91.09140014567656,227.43648963941612" stroke="#0d6d4d" stroke-width="0.1" fill="none" />
<path d="M-208.65898362959157,-128.39948812462546 L-136.05171101556843,203.7521335587342" stroke="#0d6d4d" stroke-width="0.1" fill="none" />
<path d="M-207.37830520247962,-130.4578036429681 L-175.15884432604852,171.30201182228743" stroke="#0d6d4d" stroke-width="0.1" fill="none" />
<path d="M-206.07732322142496,-132.5033465761991 L-206.73034424177868,131.4821842291787" stroke="#0d6d4d" stroke-width="0.1" fill="none" />
<path d="M-204.75616506020376,-134.53591665365275 L-229.4079507787846,86.0057679430789" stroke="#0d6d4d" stroke-width="0.1" fill="none" />
<path d="M-203.41496006795887,-136.55531487478143 L-242.21603447461553,36.829236258601156" stroke="#0d6d4d" stroke-width="0.1" fill="none" />
<path d="M-202.0538395565354,-138.56134352864024 L-244.60356963831998,-13.931752229764102" stroke="#0d6d4d" stroke-width="0.1" fill="none" />
<path d="M-200.67293678762485,-140.5538062132432 L-236.46784041915137,-64.09337288287118" stroke="#0d6d4d" stroke-width="0.1" fill="none" />
<path d="M-199.2723869597177,-142.53250785479267 L-218.15885981833992,-111.49758689210233" stroke="#0d6d4d" stroke-width="0.1" fill="none" />
<path d="M-197.85232719486746,-144.49725472677713 L-190.46431153047843,-154.1049838039668" stroke="#0d6d4d" stroke-width="0.1" fill="none" />
<path d="M-196.41289652526413,-146.4478544689402 L-154.5756624422859,-190.082520449747" stroke="#0d6d4d" stroke-width="0.1" fill="none" />
<path d="M-194.95423587962395,-148.38411610611138 L-112.03690368707937,-217.88238160120267" stroke="#0d6d4d" stroke-width="0.1" fill="none" />
<path d="M-193.47648806939026,-150.30585006690555 L-64.67812550255344,-236.308569631903" stroke="#0d6d4d" stroke-width="0.1" fill="none" />
<path d="M-191.9797977747518,-152.21286820228246 L-14.536783615222744,-244.56835838293594" stroke="#0d6d4d" stroke-width="0.1" fill="none" />
<path d="M-190.46431153047843,-154.1049838039668 L36.22995559351989,-242.30639759959203" stroke="#0d6d4d" stroke-width="0.1" fill="none" />
<path d="M-188.93017771157284,-155.9820116227301 L85.43802007869198,-229.6200007077629" stroke="#0d6d4d" stroke-width="0.1" fill="none" />
<path d="M-187.37754651874573,-157.8437678865253 L130.97039465072532,-207.05495822373646" stroke="#0d6d4d" stroke-width="0.1" fill="none" />
<path d="M-185.8065699637089,-159.69007031848082 L170.86819859373344,-175.58205691166873" stroke="#0d6d4d" stroke-width="0.1" fill="none" />
<path d="M-184.21740185429286,-161.52073815474586 L203.41496006795884,-136.55531487478146" stroke="#0d6d4d" stroke-width="0.1" fill="none" />
<path d="M-182.61019777938822,-163.33559216218833 L227.2104616673105,-91.65372937817435" stroke="#0d6d4d" stroke-width="0.1" fill="none" />
<path d="M-180.98511509371238,-165.13445465594296 L241.23098016966495,-42.809043511654515" stroke="#0d6d4d" stroke-width="0.1" fill="none" />
<path d="M-179.34231290240385,-166.9171495168075 L244.8733288627292,7.877360705571261" stroke="#0d6d4d" stroke-width="0.1" fill="none" />
<path d="M-177.68195204544506,-168.68350220848558 L237.980807669197,58.22486737740734" stroke="#0d6d4d" stroke-width="0.1" fill="none" />
<path d="M-176.0041950819142,-170.43333979467604 L220.84994465238046,106.06744056043063" stroke="#0d6d4d" stroke-width="0.1" fill="none" />
<path d="M-174.30920627407104,-172.16649095600266 L194.21773887120307,149.3468108389234" stroke="#0d6d4d" stroke-width="0.1" fill="none" />
<path d="M-172.5971515712744,-173.88278600678828 L159.22995341877422,186.20102559936396" stroke="#0d6d4d" stroke-width="0.1" fill="none" />
<path d="M-170.8681985937334,-175.58205691166876 L117.39182273231644,215.0445534199469" stroke="#0d6d4d" stroke-width="0.1" fill="none" />
<path d="M-169.1225166160985,-177.2641373020428 L70.50329483037157,234.63649634714054" stroke="#0d6d4d" stroke-width="0.1" fill="none" />
<path d="M-167.360276550887,-178.92886249236213 L20.581594467122628,244.13397545034755" stroke="#0d6d4d" stroke-width="0.1" fill="none" />
<path d="M-165.58165093175032,-180.57606949625412 L-30.225561330480215,243.12839291670025" stroke="#0d6d4d" stroke-width="0.1" fill="none" />
<path d="M-163.78681389658183,-182.20559704247967 L-79.73236172659942,231.66301062858244" stroke="#0d6d4d" stroke-width="0.1" fill="none" />
<path d="M-161.97594117046776,-183.81728559072232 L-125.8089394012736,210.2310889633754" stroke="#0d6d4d" stroke-width="0.1" fill="none" />
<path d="M-160.14921004848253,-185.4109773472084 L-166.47300108934127,179.7546658874483" stroke="#0d6d4d" stroke-width="0.1" fill="none" />
<path d="M-158.30679937833116,-186.98651628015534 L-199.97510923084445,141.54488930410673" stroke="#0d6d4d" stroke-width="0.1" fill="none" />
<path d="M-156.44888954283755,-188.54374813504958 L-224.87394577029494,97.24560922580747" stroke="#0d6d4d" stroke-width="0.1" fill="none" />
<path d="M-154.5756624422859,-190.082520449747 L-240.0983201272852,48.762656531978145" stroke="#0d6d4d" stroke-width="0.1" fill="none" />
<path d="M-152.6873014766101,-191.60268256940134 L-244.99325364938048,-1.8181491386331423" stroke="#0d6d4d" stroke-width="0.1" fill="none" />
<path d="M-150.78399152743813,-193.10408566121396 L-239.34815791521902,-52.32073492021471" stroke="#0d6d4d" stroke-width="0.1" fill="none" />
<path d="M-148.86591893999216,-194.58658272900445 L-223.40589460897425,-100.57239310051186" stroke="#0d6d4d" stroke-width="0.1" fill="none" />
<path d="M-146.93327150484188,-196.0500286276042 L-197.85232719486746,-144.49725472677713" stroke="#0d6d4d" stroke-width="0.1" fill="none" />
<path d="M-144.9862384395216,-197.494280077065 L-163.78681389658183,-182.20559704247967" stroke="#0d6d4d" stroke-width="0.1" fill="none" />
<path d="M-143.02501037000243,-198.9191956766885 L-122.67491142412874,-212.0751425959256" stroke="#0d6d4d" stroke-width="0.1" fill="none" />
<path d="M-141.0497793120301,-200.32463591886946 L-76.28532421481557,-232.8208523939393" stroke="#0d6d4d" stroke-width="0.1" fill="none" />
<path d="M-139.0607386523248,-201.7104632027546 L-26.613811739928167,-243.55021047962916" stroke="#0d6d4d" stroke-width="0.1" fill="none" />
<path d="M-137.05808312964868,-203.07654184771397 L24.202672484919564,-243.8016214970436" stroke="#0d6d4d" stroke-width="0.1" fill="none" />
<path d="M-135.04200881573757,-204.42273810662616 L73.97791629897725,-233.56426931374054" stroke="#0d6d4d" stroke-width="0.1" fill="none" />
<path d="M-133.0127130961071,-205.7489201789713 L120.57050348680784,-213.27858234932467" stroke="#0d6d4d" stroke-width="0.1" fill="none" />
<path d="M-130.9703946507254,-207.0549582237364 L161.97594117046768,-183.81728559072238" stroke="#0d6d4d" stroke-width="0.1" fill="none" />
<path d="M-128.91525343456198,-208.34072437212714 L196.41289652526413,-146.4478544689402" stroke="#0d6d4d" stroke-width="0.1" fill="none" />
<path d="M-126.84749065801157,-209.60609274008635 L222.39983276792145,-102.7779858958161" stroke="#0d6d4d" stroke-width="0.1" fill="none" />
<path d="M-124.76730876719252,-210.8509394406201 L238.81874740572576,-54.686432390129" stroke="#0d6d4d" stroke-width="0.1" fill="none" />
<path d="M-122.67491142412874,-212.0751425959256 L244.9632706180366,-4.24217492738869" stroke="#0d6d4d" stroke-width="0.1" fill="none" />
<path d="M-120.57050348680787,-213.27858234932464 L240.5690544954369,46.3845881642979" stroke="#0d6d4d" stroke-width="0.1" fill="none" />
<path d="M-118.45429098912548,-214.46114087699803 L225.82514573941984,95.01580685217482" stroke="#0d6d4d" stroke-width="0.1" fill="none" />
<path d="M-116.32648112071286,-215.6227023995211 L201.3658525495998,139.55928284056503" stroke="#0d6d4d" stroke-width="0.1" fill="none" />
<path d="M-114.18728220665206,-216.76315319319932 L168.2434555988847,178.09867952386986" stroke="#0d6d4d" stroke-width="0.1" fill="none" />
<path d="M-112.03690368707937,-217.88238160120267 L127.88293711718332,208.97596606854708" stroke="#0d6d4d" stroke-width="0.1" fill="none" />
<path d="M-109.87555609668071,-218.9802780444969 L82.02067571598026,230.86274873849615" stroke="#0d6d4d" stroke-width="0.1" fill="none" />
<path d="M-107.70345104407784,-220.05673503257276 L32.629744407394355,242.81742066809812" stroke="#0d6d4d" stroke-width="0.1" fill="none" />
<path d="M-105.52080119111146,-221.1116471739694 L-18.16497437515322,244.3256714018198" stroke="#0d6d4d" stroke-width="0.1" fill="none" />
<path d="M-103.32782023202014,-222.14491118659308 L-68.17820485750765,235.32261341062767" stroke="#0d6d4d" stroke-width="0.1" fill="none" />
<path d="M-101.12472287251826,-223.15642590782903 L-115.2582922302742,216.19557366458895" stroke="#0d6d4d" stroke-width="0.1" fill="none" />
<path d="M-98.9117248087759,-224.14609230444546 L-157.37977052284168,187.7674301634277" stroke="#0d6d4d" stroke-width="0.1" fill="none" />
<path d="M-96.68904270629895,-225.11381348229057 L-192.730501617498,151.26121031602122" stroke="#0d6d4d" stroke-width="0.1" fill="none" />
<path d="M-94.45689417871887,-226.0594946957776 L-219.7896365340461,108.24747420716987" stroke="#0d6d4d" stroke-width="0.1" fill="none" />
<path d="M-92.215497766485,-226.98304335716225 L-237.39304495697317,60.57674641359099" stroke="#0d6d4d" stroke-width="0.1" fill="none" />
<path d="M-89.96507291546907,-227.88436904560686 L-244.78339811487947,10.299903268109988" stroke="#0d6d4d" stroke-width="0.1" fill="none" />
<path d="M-87.70583995547975,-228.76338351603337 L-241.64275036094367,-40.42005935174584" stroke="#0d6d4d" stroke-width="0.1" fill="none" />
<path d="M-85.43802007869198,-229.6200007077629 L-228.1062177390446,-89.40108180993995" stroke="#0d6d4d" stroke-width="0.1" fill="none" />
<path d="M-83.16183531798963,-230.45413675294174 L-204.75616506020376,-134.53591665365275" stroke="#0d6d4d" stroke-width="0.1" fill="none" />
<path d="M-80.87750852522805,-231.26570998475253 L-172.5971515712744,-173.88278600678828" stroke="#0d6d4d" stroke-width="0.1" fill="none" />
<path d="M-78.58526334941533,-232.05464094540974 L-133.0127130961071,-205.7489201789713" stroke="#0d6d4d" stroke-width="0.1" fill="none" />
<path d="M-76.28532421481557,-232.8208523939393 L-87.70583995547975,-228.76338351603337" stroke="#0d6d4d" stroke-width="0.1" fill="none" />
<path d="M-73.97791629897742,-233.56426931374045 L-38.62571140759001,-241.93605439921012" stroke="#0d6d4d" stroke-width="0.1" fill="none" />
<path d="M-71.66326551068566,-234.28481891993124 L12.116161381071054,-244.700221972494" stroke="#0d6d4d" stroke-width="0.1" fill="none" />
<path d="M-69.34159846784628,-234.9824306664734 L62.33677616149017,-236.93696701399776" stroke="#0d6d4d" stroke-width="0.1" fill="none" />
<path d="M-67.0131424752969,-235.6570362530802 L109.8755560966807,-218.9802780444969" stroke="#0d6d4d" stroke-width="0.1" fill="none" />
<path d="M-64.67812550255344,-236.308569631903 L152.68730147661003,-191.60268256940142" stroke="#0d6d4d" stroke-width="0.1" fill="none" />
<path d="M-62.33677616149032,-236.93696701399773 L188.93017771157284,-155.9820116227301" stroke="#0d6d4d" stroke-width="0.1" fill="none" />
<path d="M-59.989323683957785,-237.54216687557042 L217.04495420988073,-113.65072745931185" stroke="#0d6d4d" stroke-width="0.1" fill="none" />
<path d="M-57.635997899339586,-238.12410996400033 L235.82208514767444,-66.42999440465869" stroke="#0d6d4d" stroke-width="0.1" fill="none" />
<path d="M-55.277029212050124,-238.68273930364163 L244.4537462012845,-16.351329247433743" stroke="#0d6d4d" stroke-width="0.1" fill="none" />
<path d="M-52.912648578977326,-239.21800020140134 L242.56858853281454,34.4307980912164" stroke="#0d6d4d" stroke-width="0.1" fill="none" />
<path d="M-50.54308748687017,-239.72984025209416 L230.24771485298152,83.7316535426126" stroke="#0d6d4d" stroke-width="0.1" fill="none" />
<path d="M-48.168577929675855,-240.2182093435732 L208.02119024363435,129.4302298909404" stroke="#0d6d4d" stroke-width="0.1" fill="none" />
<path d="M-45.789352385823875,-240.68305966163646 L176.84523785034042,169.56049613532193" stroke="#0d6d4d" stroke-width="0.1" fill="none" />
<path d="M-43.40564379546801,-241.12434569470778 L138.06110052539185,202.39597950976608" stroke="#0d6d4d" stroke-width="0.1" fill="none" />
<path d="M-41.01768553767775,-241.5420242382931 L93.33733826378614,226.52404129767677" stroke="#0d6d4d" stroke-width="0.1" fill="none" />
<path d="M-38.62571140759001,-241.93605439921012 L44.59804389528661,240.9066509681999" stroke="#0d6d4d" stroke-width="0.1" fill="none" />
<path d="M-36.22995559352003,-242.306397599592 L-6.059934683598748,244.92504402700536" stroke="#0d6d4d" stroke-width="0.1" fill="none" />
<path d="M-33.83065265403062,-242.65301758066462 L-56.457204496406945,238.4063423242991" stroke="#0d6d4d" stroke-width="0.1" fill="none" />
<path d="M-31.428037494970514,-242.97588040629614 L-104.4255887041847,221.63099156883376" stroke="#0d6d4d" stroke-width="0.1" fill="none" />
<path d="M-29.02234534647331,-243.27495446631994 L-147.90140528551203,195.32069607333145" stroke="#0d6d4d" stroke-width="0.1" fill="none" />
<path d="M-26.613811739928167,-243.55021047962916 L-185.01425017055846,160.60736979922808" stroke="#0d6d4d" stroke-width="0.1" fill="none" />
<path d="M-24.202672484919685,-243.80162149704358 L-214.16746522672432,118.98443947995816" stroke="#0d6d4d" stroke-width="0.1" fill="none" />
<path d="M-21.78916364614074,-244.02916290394822 L-234.10682922534818,72.24259484579487" stroke="#0d6d4d" stroke-width="0.1" fill="none" />
<path d="M-19.373521520280157,-244.232812422703 L-243.97451658647566,22.392750085586048" stroke="#0d6d4d" stroke-width="0.1" fill="none" />
<path d="M-16.95598261288897,-244.4125501148241 L-243.34600250410244,-28.420469124793982" stroke="#0d6d4d" stroke-width="0.1" fill="none" />
<path d="M-14.536783615222744,-244.56835838293594 L-232.24832673021157,-78.01099109110775" stroke="#0d6d4d" stroke-width="0.1" fill="none" />
<path d="M-12.116161381070924,-244.700221972494 L-211.15893027834474,-124.2453466480944" stroke="#0d6d4d" stroke-width="0.1" fill="none" />
<path d="M-9.694352903566177,-244.80812797327854 L-180.98511509371238,-165.13445465594296" stroke="#0d6d4d" stroke-width="0.1" fill="none" />
<path d="M-7.271595291980047,-244.89206582065833 L-143.02501037000243,-198.9191956766885" stroke="#0d6d4d" stroke-width="0.1" fill="none" />
<path d="M-4.848125748511406,-244.9520272966252 L-98.9117248087759,-224.14609230444546" stroke="#0d6d4d" stroke-width="0.1" fill="none" />
<path d="M-2.424181545060567,-244.9880065305985 L-50.54308748687017,-239.72984025209416" stroke="#0d6d4d" stroke-width="0.1" fill="none" />
</svg>