<?xml version="1.0" encoding="UTF-8"?>
<svg xmlns="http://www.w3.org/2000/svg" xmlns:xlink="http://www.w3.org/1999/xlink"
     width="500.0" height="500" viewBox="-250.0 -250.0 500 500">
<defs>
</defs>
<circle cx="0" cy="0" r="245.0" fill="white" stroke-width="2" stroke="black" />
<path d="M0.0,-245.0 L0.0,-245.0" stroke="#0d6d4d" stroke-width="0.1" fill="none" />
<path d="M2.3646029196154115,-244.98858882207665 L49.318137421721715,-239.98483560686114" stroke="#0d6d4d" stroke-width="0.1" fill="none" />
<path d="M4.7289855706215675,-244.9543563512861 L96.61718450276305,-225.1446638469565" stroke="#0d6d4d" stroke-width="0.1" fill="none" />
<path d="M7.092927704927778,-244.89730577646762 L139.9607126982241,-201.0870430957827" stroke="#0d6d4d" stroke-width="0.1" fill="none" />
<path d="M9.456209115478574,-244.8174424120233 L177.57423287113437,-168.79689517354322" stroke="#0d6d4d" stroke-width="0.1" fill="none" />
<path d="M11.818609656766538,-244.71477369742306 L207.91784308621396,-129.5961825301058" stroke="#0d6d4d" stroke-width="0.1" fill="none" />
<path d="M14.1799092653394,-244.58930919651158 L229.7492723760347,-85.08978694698096" stroke="#0d6d4d" stroke-width="0.1" fill="none" />
<path d="M16.5398879802995,-244.44106059661732 L242.1747394603873,-37.09980548862129" stroke="#0d6d4d" stroke-width="0.1" fill="none" />
<path d="M18.898325963793678,-244.270041707464 L244.68554425690792,12.409046365484597" stroke="#0d6d4d" stroke-width="0.1" fill="none" />
<path d="M21.255003521491727,-244.076268459884 L237.17889412222004,61.409870403386556" stroke="#0d6d4d" stroke-width="0.1" fill="none" />
<path d="M23.609701123051448,-243.85975890433457 L219.9621121948317,107.89656713162043" stroke="#0d6d4d" stroke-width="0.1" fill="none" />
<path d="M25.962199422568457,-243.62053320921615 L193.74005554973616,149.96596572417738" stroke="#0d6d4d" stroke-width="0.1" fill="none" />
<path d="M28.3122792790088,-243.3586136589938 L159.58625826694444,185.89574005973378" stroke="#0d6d4d" stroke-width="0.1" fill="none" />
<path d="M30.659721776622465,-243.07402465212138 L118.89898082011486,214.2149209554226" stroke="#0d6d4d" stroke-width="0.1" fill="none" />
<path d="M33.00430824533594,-242.7667926987685 L73.3439651284727,233.76411781801195" stroke="#0d6d4d" stroke-width="0.1" fill="none" />
<path d="M35.34582028112187,-242.43694641835148 L24.78623888692091,243.7429842310143" stroke="#0d6d4d" stroke-width="0.1" fill="none" />
<path d="M37.68403976634393,-242.08451653686694 L-24.78623888692085,243.7429842310143" stroke="#0d6d4d" stroke-width="0.1" fill="none" />
<path d="M40.018748890075024,-241.70953588402986 L-73.34396512847266,233.76411781801198" stroke="#0d6d4d" stroke-width="0.1" fill="none" />
<path d="M42.34973016838689,-241.3120393902153 L-118.89898082011491,214.21492095542257" stroke="#0d6d4d" stroke-width="0.1" fill="none" />
<path d="M44.67676646460932,-240.89206408320462 L-159.5862582669444,185.8957400597338" stroke="#0d6d4d" stroke-width="0.1" fill="none" />
<path d="M46.999641009556925,-240.4496490847362 L-193.74005554973616,149.96596572417738" stroke="#0d6d4d" stroke-width="0.1" fill="none" />
<path d="M49.318137421721715,-239.98483560686114 L-219.96211219483172,107.89656713162037" stroke="#0d6d4d" stroke-width="0.1" fill="none" />
<path d="M51.63203972742964,-239.49766694810435 L-237.17889412222004,61.4098704033865" stroke="#0d6d4d" stroke-width="0.1" fill="none" />
<path d="M53.94113238095899,-238.9881884894311 L-244.68554425690792,12.409046365484603" stroke="#0d6d4d" stroke-width="0.1" fill="none" />
<path d="M56.24520028461908,-238.45644769001967 L-242.1747394603873,-37.099805488621286" stroke="#0d6d4d" stroke-width="0.1" fill="none" />
<path d="M58.54402880878708,-237.90249408284038 L-229.7492723760347,-85.08978694698096" stroke="#0d6d4d" stroke-width="0.1" fill="none" />
<path d="M60.83740381190132,-237.32637927004166 L-207.917843086214,-129.59618253010578" stroke="#0d6d4d" stroke-width="0.1" fill="none" />
<path d="M63.125111660409075,-236.7281569181429 L-177.5742328711344,-168.79689517354316" stroke="#0d6d4d" stroke-width="0.1" fill="none" />
<path d="M65.40693924866716,-236.1078827530355 L-139.96071269822414,-201.0870430957827" stroke="#0d6d4d" stroke-width="0.1" fill="none" />
<path d="M67.68267401879308,-235.46561455479184 L-96.61718450276308,-225.1446638469565" stroke="#0d6d4d" stroke-width="0.1" fill="none" />
<path d="M69.9521039804655,-234.80141215228272 L-49.31813742172177,-239.98483560686114" stroke="#0d6d4d" stroke-width="0.1" fill="none" />
<path d="M72.21501773067152,-234.11533741760448 L0.0,-245.0" stroke="#0d6d4d" stroke-width="0.1" fill="none" />
<path d="M74.4712044733995,-233.40745426031518 L49.318137421721715,-239.98483560686114" stroke="#0d6d4d" stroke-width="0.1" fill="none" />
<path d="M76.72045403927513,-232.6778286214814 L96.61718450276305,-225.1446638469565" stroke="#0d6d4d" stroke-width="0.1" fill="none" />
<path d="M78.96255690513934,-231.92652846753566 L139.9607126982241,-201.0870430957827" stroke="#0d6d4d" stroke-width="0.1" fill="none" />
<path d="M81.19730421356574,-231.15362378394516 L177.57423287113437,-168.79689517354322" stroke="#0d6d4d" stroke-width="0.1" fill="none" />
<path d="M83.42448779231647,-230.35918656869242 L207.91784308621396,-129.5961825301058" stroke="#0d6d4d" stroke-width="0.1" fill="none" />
<path d="M85.64390017373361,-229.5432908255686 L229.7492723760347,-85.08978694698096" stroke="#0d6d4d" stroke-width="0.1" fill="none" />
<path d="M87.8553346140656,-228.70601255727968 L242.1747394603873,-37.09980548862129" stroke="#0d6d4d" stroke-width="0.1" fill="none" />
<path d="M90.0585851127258,-227.84742975836687 L244.68554425690792,12.409046365484597" stroke="#0d6d4d" stroke-width="0.1" fill="none" />
<path d="M92.25344643148195,-226.96762240794104 L237.17889412222004,61.409870403386556" stroke="#0d6d4d" stroke-width="0.1" fill="none" />
<path d="M94.43971411357465,-226.06667246223245 L219.9621121948317,107.89656713162043" stroke="#0d6d4d" stroke-width="0.1" fill="none" />
<path d="M96.61718450276305,-225.1446638469565 L193.74005554973616,149.96596572417738" stroke="#0d6d4d" stroke-width="0.1" fill="none" />
<path d="M98.78565476229582,-224.20168244949568 L159.58625826694444,185.89574005973378" stroke="#0d6d4d" stroke-width="0.1" fill="none" />
<path d="M100.94492289380602,-223.237816110899 L118.89898082011486,214.2149209554226" stroke="#0d6d4d" stroke-width="0.1" fill="none" />
<path d="M103.09478775612767,-222.25315461769938 L73.3439651284727,233.76411781801195" stroke="#0d6d4d" stroke-width="0.1" fill="none" />
<path d="M105.23504908403253,-221.24778969354986 L24.78623888692091,243.7429842310143" stroke="#0d6d4d" stroke-width="0.1" fill="none" />
<path d="M107.36550750688542,-220.2218149906792 L-24.78623888692085,243.7429842310143" stroke="#0d6d4d" stroke-width="0.1" fill="none" />
<path d="M109.48596456721592,-219.17532608116804 L-73.34396512847266,233.76411781801198" stroke="#0d6d4d" stroke-width="0.1" fill="none" />
<path d="M111.59622273920533,-218.10842044804616 L-118.89898082011491,214.21492095542257" stroke="#0d6d4d" stroke-width="0.1" fill="none" />
<path d="M113.69608544708659,-217.02119747621148 L-159.5862582669444,185.8957400597338" stroke="#0d6d4d" stroke-width="0.1" fill="none" />
<path d="M115.7853570834558,-215.91375844317247 L-193.74005554973616,149.96596572417738" stroke="#0d6d4d" stroke-width="0.1" fill="none" />
<path d="M117.86384302749363,-214.7862065096135 L-219.96211219483172,107.89656713162037" stroke="#0d6d4d" stroke-width="0.1" fill="none" />
<path d="M119.9313496630946,-213.6386467097855 L-237.17889412222004,61.4098704033865" stroke="#0d6d4d" stroke-width="0.1" fill="none" />
<path d="M121.98768439690296,-212.47118594172153 L-244.68554425690792,12.409046365484603" stroke="#0d6d4d" stroke-width="0.1" fill="none" />
<path d="M124.03265567625331,-211.28393295727903 L-242.1747394603873,-37.099805488621286" stroke="#0d6d4d" stroke-width="0.1" fill="none" />
<path d="M126.06607300701404,-210.0769983520095 L-229.7492723760347,-85.08978694698096" stroke="#0d6d4d" stroke-width="0.1" fill="none" />
<path d="M128.0877469713325,-208.8504945548559 L-207.917843086214,-129.59618253010578" stroke="#0d6d4d" stroke-width="0.1" fill="none" />
<path d="M130.09748924527963,-207.60453581767993 L-177.5742328711344,-168.79689517354316" stroke="#0d6d4d" stroke-width="0.1" fill="none" />
<path d="M132.0951126163928,-206.339238204619 L-139.96071269822414,-201.0870430957827" stroke="#0d6d4d" stroke-width="0.1" fill="none" />
<path d="M134.08043100111524,-205.05471958127464 L-96.61718450276308,-225.1446638469565" stroke="#0d6d4d" stroke-width="0.1" fill="none" />
<path d="M136.05325946213,-203.75109960373302 L-49.31813742172177,-239.98483560686114" stroke="#0d6d4d" stroke-width="0.1" fill="none" />
<path d="M138.01341422558738,-202.42849970741875 L0.0,-245.0" stroke="#0d6d4d" stroke-width="0.1" fill="none" />
<path d="M139.9607126982241,-201.0870430957827 L49.318137421721715,-239.98483560686114" stroke="#0d6d4d" stroke-width="0.1" fill="none" />
<path d="M141.89497348437203,-199.7268547288255 L96.61718450276305,-225.1446638469565" stroke="#0d6d4d" stroke-width="0.1" fill="none" />
<path d="M143.8160164028558,-198.348061311457 L139.9607126982241,-201.0870430957827" stroke="#0d6d4d" stroke-width="0.1" fill="none" />
<path d="M145.72366250377715,-196.95079128169365 L177.57423287113437,-168.79689517354322" stroke="#0d6d4d" stroke-width="0.1" fill="none" />
<path d="M147.61773408518442,-195.5351747986939 L207.91784308621396,-129.5961825301058" stroke="#0d6d4d" stroke-width="0.1" fill="none" />
<path d="M149.49805470962616,-194.10134373063374 L229.7492723760347,-85.08978694698096" stroke="#0d6d4d" stroke-width="0.1" fill="none" />
<path d="M151.36444922058635,-192.6494316424228 L242.1747394603873,-37.09980548862129" stroke="#0d6d4d" stroke-width="0.1" fill="none" />
<path d="M153.21674375880102,-191.1795737832625 L244.68554425690792,12.409046365484597" stroke="#0d6d4d" stroke-width="0.1" fill="none" />
<path d="M155.05476577845354,-189.6919070740471 L237.17889412222004,61.409870403386556" stroke="#0d6d4d" stroke-width="0.1" fill="none" />
<path d="M156.8783440632476,-188.18657009460932 L219.9621121948317,107.89656713162043" stroke="#0d6d4d" stroke-width="0.1" fill="none" />
<path d="M158.6873087423566,-186.66370307081127 L193.74005554973616,149.96596572417738" stroke="#0d6d4d" stroke-width="0.1" fill="none" />
<path d="M160.4814913062473,-185.12344786148208 L159.58625826694444,185.89574005973378" stroke="#0d6d4d" stroke-width="0.1" fill="none" />
<path d="M162.26072462237724,-183.5659479452032 L118.89898082011486,214.2149209554226" stroke="#0d6d4d" stroke-width="0.1" fill="none" />
<path d="M164.02484295076323,-181.99134840694342 L73.3439651284727,233.76411781801195" stroke="#0d6d4d" stroke-width="0.1" fill="none" />
<path d="M165.77368195942057,-180.39979592454335 L24.78623888692091,243.7429842310143" stroke="#0d6d4d" stroke-width="0.1" fill="none" />
<path d="M167.50707873967096,-178.79143875505244 L-24.78623888692085,243.7429842310143" stroke="#0d6d4d" stroke-width="0.1" fill="none" />
<path d="M169.224871821318,-177.16642672091825 L-73.34396512847266,233.76411781801198" stroke="#0d6d4d" stroke-width="0.1" fill="none" />
<path d="M170.92690118768823,-175.52491119603013 L-118.89898082011491,214.21492095542257" stroke="#0d6d4d" stroke-width="0.1" fill="none" />
<path d="M172.61300829053732,-173.86704509161848 L-159.5862582669444,185.8957400597338" stroke="#0d6d4d" stroke-width="0.1" fill="none" />
<path d="M174.28303606481916,-172.19298284201054 L-193.74005554973616,149.96596572417738" stroke="#0d6d4d" stroke-width="0.1" fill="none" />
<path d="M175.93682894331698,-170.5028803902445 L-219.96211219483172,107.89656713162037" stroke="#0d6d4d" stroke-width="0.1" fill="none" />
<path d="M177.57423287113437,-168.79689517354322 L-237.17889412222004,61.4098704033865" stroke="#0d6d4d" stroke-width="0.1" fill="none" />
<path d="M179.19509532004656,-167.0751861086482 L-244.68554425690792,12.409046365484603" stroke="#0d6d4d" stroke-width="0.1" fill="none" />
<path d="M180.79926530270822,-165.33791357701634 L-242.1747394603873,-37.099805488621286" stroke="#0d6d4d" stroke-width="0.1" fill="none" />
<path d="M182.38659338671866,-163.58523940988 L-229.7492723760347,-85.08978694698096" stroke="#0d6d4d" stroke-width="0.1" fill="none" />
<path d="M183.95693170854162,-161.8173268731719 L-207.917843086214,-129.59618253010578" stroke="#0d6d4d" stroke-width="0.1" fill="none" />
<path d="M185.51013398727918,-160.03434065231664 L-177.5742328711344,-168.79689517354316" stroke="#0d6d4d" stroke-width="0.1" fill="none" />
<path d="M187.0460555382983,-158.2364468368897 L-139.96071269822414,-201.0870430957827" stroke="#0d6d4d" stroke-width="0.1" fill="none" />
<path d="M188.56455328670842,-156.42381290514595 L-96.61718450276308,-225.1446638469565" stroke="#0d6d4d" stroke-width="0.1" fill="none" />
<path d="M190.0654857806892,-154.5966077084185 L-49.31813742172177,-239.98483560686114" stroke="#0d6d4d" stroke-width="0.1" fill="none" />
<path d="M191.54871320466728,-152.75500145538976 L0.0,-245.0" stroke="#0d6d4d" stroke-width="0.1" fill="none" />
<path d="M193.01409739234037,-150.89916569623617 L49.318137421721715,-239.98483560686114" stroke="#0d6d4d" stroke-width="0.1" fill="none" />
<path d="M194.4615018395477,-149.02927330664798 L96.61718450276305,-225.1446638469565" stroke="#0d6d4d" stroke-width="0.1" fill="none" />
<path d="M195.89079171698577,-147.14549847172523 L139.9607126982241,-201.0870430957827" stroke="#0d6d4d" stroke-width="0.1" fill="none" />
<path d="M197.30183388276816,-145.24801666975202 L177.57423287113437,-168.79689517354322" stroke="#0d6d4d" stroke-width="0.1" fill="none" />
<path d="M198.69449689482775,-143.33700465585042 L207.91784308621396,-129.5961825301058" stroke="#0d6d4d" stroke-width="0.1" fill="none" />
<path d="M200.06865102316124,-141.41264044551505 L229.7492723760347,-85.08978694698096" stroke="#0d6d4d" stroke-width="0.1" fill="none" />
<path d="M201.4241682619134,-139.47510329803092 L242.1747394603873,-37.09980548862129" stroke="#0d6d4d" stroke-width="0.1" fill="none" />
<path d="M202.76092234130152,-137.52457369977446 L244.68554425690792,12.409046365484597" stroke="#0d6d4d" stroke-width="0.1" fill="none" />
<path d="M204.0787887393775,-135.56123334740107 L237.17889412222004,61.409870403386556" stroke="#0d6d4d" stroke-width="0.1" fill="none" />
<path d="M205.37764469362747,-133.5852651309197 L219.9621121948317,107.89656713162043" stroke="#0d6d4d" stroke-width="0.1" fill="none" />
<path d="M206.6573692124075,-131.59685311665586 L193.74005554973616,149.96596572417738" stroke="#0d6d4d" stroke-width="0.1" fill="none" />
<path d="M207.91784308621396,-129.5961825301058 L159.58625826694444,185.89574005973378" stroke="#0d6d4d" stroke-width="0.1" fill="none" />
<path d="M209.1589488987887,-127.58343973868197 L118.89898082011486,214.2149209554226" stroke="#0d6d4d" stroke-width="0.1" fill="none" />
<path d="M210.38057103805613,-125.55881223435263 L73.3439651284727,233.76411781801195" stroke="#0d6d4d" stroke-width="0.1" fill="none" />
<path d="M211.58259570689313,-123.52248861617633 L24.78623888692091,243.7429842310143" stroke="#0d6d4d" stroke-width="0.1" fill="none" />
<path d="M212.76491093372937,-121.47465857273363 L-24.78623888692085,243.7429842310143" stroke="#0d6d4d" stroke-width="0.1" fill="none" />
<path d="M213.9274065829778,-119.41551286445707 L-73.34396512847266,233.76411781801198" stroke="#0d6d4d" stroke-width="0.1" fill="none" />
<path d="M215.069974365294,-117.34524330586127 L-118.89898082011491,214.21492095542257" stroke="#0d6d4d" stroke-width="0.1" fill="none" />
<path d="M216.19250784766368,-115.26404274767512 L-159.5862582669444,185.8957400597338" stroke="#0d6d4d" stroke-width="0.1" fill="none" />
<path d="M217.29490246331707,-113.17210505887708 L-193.74005554973616,149.96596572417738" stroke="#0d6d4d" stroke-width="0.1" fill="none" />
<path d="M218.37705552146974,-111.0696251086359 L-219.96211219483172,107.89656713162037" stroke="#0d6d4d" stroke-width="0.1" fill="none" />
<path d="M219.4388662168883,-108.956798748158 L-237.17889412222004,61.4098704033865" stroke="#0d6d4d" stroke-width="0.1" fill="none" />
<path d="M220.4802356392807,-106.83382279244367 L-244.68554425690792,12.409046365484603" stroke="#0d6d4d" stroke-width="0.1" fill="none" />
<path d="M221.5010667825102,-104.70089500195284 L-242.1747394603873,-37.099805488621286" stroke="#0d6d4d" stroke-width="0.1" fill="none" />
<path d="M222.50126455363142,-102.55821406418366 L-229.7492723760347,-85.08978694698096" stroke="#0d6d4d" stroke-width="0.1" fill="none" />
<path d="M223.48073578174865,-100.40597957516397 L-207.917843086214,-129.59618253010578" stroke="#0d6d4d" stroke-width="0.1" fill="none" />
<path d="M224.4393892266949,-98.24439202085858 L-177.5742328711344,-168.79689517354316" stroke="#0d6d4d" stroke-width="0.1" fill="none" />
<path d="M225.37713558753123,-96.07365275849338 L-139.96071269822414,-201.0870430957827" stroke="#0d6d4d" stroke-width="0.1" fill="none" />
<path d="M226.29388751086515,-93.89396399779866 L-96.61718450276308,-225.1446638469565" stroke="#0d6d4d" stroke-width="0.1" fill="none" />
<path d="M227.18955959898804,-91.70552878217245 L-49.31813742172177,-239.98483560686114" stroke="#0d6d4d" stroke-width="0.1" fill="none" />
<path d="M228.06406841783001,-89.50855096976683 L0.0,-245.0" stroke="#0d6d4d" stroke-width="0.1" fill="none" />
<path d="M228.91733250473214,-87.30323521449766 L49.318137421721715,-239.98483560686114" stroke="#0d6d4d" stroke-width="0.1" fill="none" />
<path d="M229.7492723760347,-85.08978694698096 L96.61718450276305,-225.1446638469565" stroke="#0d6d4d" stroke-width="0.1" fill="none" />
<path d="M230.55981053448141,-82.86841235539647 L139.9607126982241,-201.0870430957827" stroke="#0d6d4d" stroke-width="0.1" fill="none" />
<path d="M231.3488714764385,-80.63931836628048 L177.57423287113437,-168.79689517354322" stroke="#0d6d4d" stroke-width="0.1" fill="none" />
<path d="M232.11638169892797,-78.40271262525022 L207.91784308621396,-129.5961825301058" stroke="#0d6d4d" stroke-width="0.1" fill="none" />
<path d="M232.8622697064747,-76.1588034776613 L229.7492723760347,-85.08978694698096" stroke="#0d6d4d" stroke-width="0.1" fill="none" />
<path d="M233.5864660177663,-73.90779994919961 L242.1747394603873,-37.09980548862129" stroke="#0d6d4d" stroke-width="0.1" fill="none" />
<path d="M234.28890317212554,-71.64991172641022 L244.68554425690792,12.409046365484597" stroke="#0d6d4d" stroke-width="0.1" fill="none" />
<path d="M234.96951573579452,-69.38534913716451 L237.17889412222004,61.409870403386556" stroke="#0d6d4d" stroke-width="0.1" fill="none" />
<path d="M235.6282403080298,-67.11432313106755 L219.9621121948317,107.89656713162043" stroke="#0d6d4d" stroke-width="0.1" fill="none" />
<path d="M236.26501552700864,-64.83704525980771 L193.74005554973616,149.96596572417738" stroke="#0d6d4d" stroke-width="0.1" fill="none" />
<path d="M236.87978207554477,-62.55372765745 L159.58625826694444,185.89574005973378" stroke="#0d6d4d" stroke-width="0.1" fill="none" />
<path d="M237.47248268661386,-60.26458302067545 L118.89898082011486,214.2149209554226" stroke="#0d6d4d" stroke-width="0.1" fill="none" />
<path d="M238.0430621486884,-57.969824588967654 L73.3439651284727,233.76411781801195" stroke="#0d6d4d" stroke-width="0.1" fill="none" />
<path d="M238.59146731088052,-55.669666124749135 L24.78623888692091,243.7429842310143" stroke="#0d6d4d" stroke-width="0.1" fill="none" />
<path d="M239.11764708789323,-53.36432189346866 L-24.78623888692085,243.7429842310143" stroke="#0d6d4d" stroke-width="0.1" fill="none" />
<path d="M239.6215524647792,-51.054006643642204 L-73.34396512847266,233.76411781801198" stroke="#0d6d4d" stroke-width="0.1" fill="none" />
<path d="M240.1031365015065,-48.73893558684826 L-118.89898082011491,214.21492095542257" stroke="#0d6d4d" stroke-width="0.1" fill="none" />
<path d="M240.56235433733113,-46.41932437768069 L-159.5862582669444,185.8957400597338" stroke="#0d6d4d" stroke-width="0.1" fill="none" />
<path d="M240.99916319497618,-44.09538909365961 L-193.74005554973616,149.96596572417738" stroke="#0d6d4d" stroke-width="0.1" fill="none" />
<path d="M241.4135223846164,-41.76734621510345 L-219.96211219483172,107.89656713162037" stroke="#0d6d4d" stroke-width="0.1" fill="none" />
<path d="M241.8053933076686,-39.43541260496325 L-237.17889412222004,61.4098704033865" stroke="#0d6d4d" stroke-width="0.1" fill="none" />
<path d="M242.1747394603873,-37.09980548862129 L-244.68554425690792,12.409046365484603" stroke="#0d6d4d" stroke-width="0.1" fill="none" />
<path d="M242.521526437265,-34.76074243365604 L-242.1747394603873,-37.099805488621286" stroke="#0d6d4d" stroke-width="0.1" fill="none" />
<path d="M242.84572193423725,-32.41844132957523 L-229.7492723760347,-85.08978694698096" stroke="#0d6d4d" stroke-width="0.1" fill="none" />
<path d="M243.14729575169187,-30.07312036751883 L-207.917843086214,-129.59618253010578" stroke="#0d6d4d" stroke-width="0.1" fill="none" />
<path d="M243.42621979728202,-27.724998019934073 L-177.5742328711344,-168.79689517354316" stroke="#0d6d4d" stroke-width="0.1" fill="none" />
<path d="M243.68246808854306,-25.374293020224176 L-139.96071269822414,-201.0870430957827" stroke="#0d6d4d" stroke-width="0.1" fill="none" />
<path d="M243.91601675531302,-23.021224342372786 L-96.61718450276308,-225.1446638469565" stroke="#0d6d4d" stroke-width="0.1" fill="none" />
<path d="M244.12684404195608,-20.666011180546022 L-49.31813742172177,-239.98483560686114" stroke="#0d6d4d" stroke-width="0.1" fill="none" />
<path d="M244.31493030938913,-18.308872928673974 L0.0,-245.0" stroke="#0d6d4d" stroke-width="0.1" fill="none" />
<path d="M244.48025803691127,-15.95002916001364 L49.318137421721715,-239.98483560686114" stroke="#0d6d4d" stroke-width="0.1" fill="none" />
<path d="M244.6228118238358,-13.589699606695127 L96.61718450276305,-225.1446638469565" stroke="#0d6d4d" stroke-width="0.1" fill="none" />
<path d="M244.74257839092505,-11.228104139252995 L139.9607126982241,-201.0870430957827" stroke="#0d6d4d" stroke-width="0.1" fill="none" />
<path d="M244.83954658162702,-8.865462746144997 L177.57423287113437,-168.79689517354322" stroke="#0d6d4d" stroke-width="0.1" fill="none" />
<path d="M244.91370736311504,-6.501995513259296 L207.91784308621396,-129.5961825301058" stroke="#0d6d4d" stroke-width="0.1" fill="none" />
<path d="M244.9650538271289,-4.137922603413116 L229.7492723760347,-85.08978694698096" stroke="#0d6d4d" stroke-width="0.1" fill="none" />
<path d="M244.99358119061853,-1.7734642358440469 L242.1747394603873,-37.09980548862129" stroke="#0d6d4d" stroke-width="0.1" fill="none" />
<path d="M244.9992867961894,0.591159334304145 L244.68554425690792,12.409046365484597" stroke="#0d6d4d" stroke-width="0.1" fill="none" />
<path d="M244.9821701123503,2.955727836498502 L237.17889412222004,61.409870403386556" stroke="#0d6d4d" stroke-width="0.1" fill="none" />
<path d="M244.9422327335627,5.320021005335835 L219.9621121948317,107.89656713162043" stroke="#0d6d4d" stroke-width="0.1" fill="none" />
<path d="M244.87947838009208,7.683818601061052 L193.74005554973616,149.96596572417738" stroke="#0d6d4d" stroke-width="0.1" fill="none" />
<path d="M244.79391289766173,10.046900430082589 L159.58625826694444,185.89574005973378" stroke="#0d6d4d" stroke-width="0.1" fill="none" />
<path d="M244.68554425690792,12.409046365484597 L118.89898082011486,214.2149209554226" stroke="#0d6d4d" stroke-width="0.1" fill="none" />
<path d="M244.55438255263752,14.770036367532084 L73.3439651284727,233.76411781801195" stroke="#0d6d4d" stroke-width="0.1" fill="none" />
<path d="M244.4004400028876,17.129650504167948 L24.78623888692091,243.7429842310143" stroke="#0d6d4d" stroke-width="0.1" fill="none" />
<path d="M244.22373094778735,19.487668971500398 L-24.78623888692085,243.7429842310143" stroke="#0d6d4d" stroke-width="0.1" fill="none" />
<path d="M244.02427184822224,21.8438721142782 L-73.34396512847266,233.76411781801198" stroke="#0d6d4d" stroke-width="0.1" fill="none" />
<path d="M243.80208128430058,24.198040446352074 L-118.89898082011491,214.21492095542257" stroke="#0d6d4d" stroke-width="0.1" fill="none" />
<path d="M243.5571799536229,26.549954671120403 L-159.5862582669444,185.8957400597338" stroke="#0d6d4d" stroke-width="0.1" fill="none" />
<path d="M243.28959066935374,28.899395701957232 L-193.74005554973616,149.96596572417738" stroke="#0d6d4d" stroke-width="0.1" fill="none" />
<path d="M242.99933835809662,31.24614468262074 L-219.96211219483172,107.89656713162037" stroke="#0d6d4d" stroke-width="0.1" fill="none" />
<path d="M242.6864500575721,33.589983007640285 L-237.17889412222004,61.4098704033865" stroke="#0d6d4d" stroke-width="0.1" fill="none" />
<path d="M242.35095491409908,35.93069234267985 L-244.68554425690792,12.409046365484603" stroke="#0d6d4d" stroke-width="0.1" fill="none" />
<path d="M241.9928841798798,38.268054644876706 L-242.1747394603873,-37.099805488621286" stroke="#0d6d4d" stroke-width="0.1" fill="none" />
<path d="M241.61227121008866,40.60185218315248 L-229.7492723760347,-85.08978694698096" stroke="#0d6d4d" stroke-width="0.1" fill="none" />
<path d="M241.20915145976494,42.93186755849537 L-207.917843086214,-129.59618253010578" stroke="#0d6d4d" stroke-width="0.1" fill="none" />
<path d="M240.78356248051023,45.25788372421138 L-177.5742328711344,-168.79689517354316" stroke="#0d6d4d" stroke-width="0.1" fill="none" />
<path d="M240.33554391699033,47.57968400614283 L-139.96071269822414,-201.0870430957827" stroke="#0d6d4d" stroke-width="0.1" fill="none" />
<path d="M239.86513750324244,49.89705212285192 L-96.61718450276308,-225.1446638469565" stroke="#0d6d4d" stroke-width="0.1" fill="none" />
<path d="M239.3723870587871,52.209772205768225 L-49.31813742172177,-239.98483560686114" stroke="#0d6d4d" stroke-width="0.1" fill="none" />
<path d="M238.85733848454677,54.51762881929696 L0.0,-245.0" stroke="#0d6d4d" stroke-width="0.1" fill="none" />
<path d="M238.32003975856978,56.82040698088772 L49.318137421721715,-239.98483560686114" stroke="#0d6d4d" stroke-width="0.1" fill="none" />
<path d="M237.7605409315611,59.11789218106012 L96.61718450276305,-225.1446638469565" stroke="#0d6d4d" stroke-width="0.1" fill="none" />
<path d="M237.17889412222004,61.409870403386556 L139.9607126982241,-201.0870430957827" stroke="#0d6d4d" stroke-width="0.1" fill="none" />
<path d="M236.57515351238519,63.696128144427924 L177.57423287113437,-168.79689517354322" stroke="#0d6d4d" stroke-width="0.1" fill="none" />
<path d="M235.94937534198732,65.97645243362201 L207.91784308621396,-129.5961825301058" stroke="#0d6d4d" stroke-width="0.1" fill="none" />
<path d="M235.3016179038104,68.25063085312252 L229.7492723760347,-85.08978694698096" stroke="#0d6d4d" stroke-width="0.1" fill="none" />
<path d="M234.6319415380617,70.51845155758592 L242.1747394603873,-37.09980548862129" stroke="#0d6d4d" stroke-width="0.1" fill="none" />
<path d="M233.9404086267506,72.77970329390564 L244.68554425690792,12.409046365484597" stroke="#0d6d4d" stroke-width="0.1" fill="none" />
<path d="M233.22708358787793,75.0341754208907 L237.17889412222004,61.409870403386556" stroke="#0d6d4d" stroke-width="0.1" fill="none" />
<path d="M232.49203286943492,77.28165792888754 L219.9621121948317,107.89656713162043" stroke="#0d6d4d" stroke-width="0.1" fill="none" />
<path d="M231.73532494321373,79.52194145934286 L193.74005554973616,149.96596572417738" stroke="#0d6d4d" stroke-width="0.1" fill="none" />
<path d="M230.95703029842883,81.75481732430596 L159.58625826694444,185.89574005973378" stroke="#0d6d4d" stroke-width="0.1" fill="none" />
<path d="M230.15722143515103,83.98007752586837 L118.89898082011486,214.2149209554226" stroke="#0d6d4d" stroke-width="0.1" fill="none" />
<path d="M229.3359728575537,86.19751477553964 L73.3439651284727,233.76411781801195" stroke="#0d6d4d" stroke-width="0.1" fill="none" />
<path d="M228.4933610669728,88.40692251355662 L24.78623888692091,243.7429842310143" stroke="#0d6d4d" stroke-width="0.1" fill="none" />
<path d="M227.6294645547801,90.60809492812497 L-24.78623888692085,243.7429842310143" stroke="#0d6d4d" stroke-width="0.1" fill="none" />
<path d="M226.7443637950721,92.80082697459112 L-73.34396512847266,233.76411781801198" stroke="#0d6d4d" stroke-width="0.1" fill="none" />
<path d="M225.83814123717323,94.98491439454264 L-118.89898082011491,214.21492095542257" stroke="#0d6d4d" stroke-width="0.1" fill="none" />
<path d="M224.91088129795574,97.1601537348355 L-159.5862582669444,185.8957400597338" stroke="#0d6d4d" stroke-width="0.1" fill="none" />
<path d="M223.96267035397588,99.32634236654609 L-193.74005554973616,149.96596572417738" stroke="#0d6d4d" stroke-width="0.1" fill="none" />
<path d="M222.99359673342798,101.48327850384668 L-219.96211219483172,107.89656713162037" stroke="#0d6d4d" stroke-width="0.1" fill="none" />
<path d="M222.00375070791594,103.6307612228025 L-237.17889412222004,61.4098704033865" stroke="#0d6d4d" stroke-width="0.1" fill="none" />
<path d="M220.99322448404504,105.76859048008761 L-244.68554425690792,12.409046365484603" stroke="#0d6d4d" stroke-width="0.1" fill="none" />
<path d="M219.9621121948317,107.89656713162043 L-242.1747394603873,-37.099805488621286" stroke="#0d6d4d" stroke-width="0.1" fill="none" />
<path d="M218.91050989093557,110.0144929511135 L-229.7492723760347,-85.08978694698096" stroke="#0d6d4d" stroke-width="0.1" fill="none" />
<path d="M217.8385155317116,112.12217064853964 L-207.917843086214,-129.59618253010578" stroke="#0d6d4d" stroke-width="0.1" fill="none" />
<path d="M216.74622897608535,114.21940388850918 L-177.5742328711344,-168.79689517354316" stroke="#0d6d4d" stroke-width="0.1" fill="none" />
<path d="M215.63375197325038,116.3059973085599 L-139.96071269822414,-201.0870430957827" stroke="#0d6d4d" stroke-width="0.1" fill="none" />
<path d="M214.50118815319064,118.38175653735468 L-96.61718450276308,-225.1446638469565" stroke="#0d6d4d" stroke-width="0.1" fill="none" />
<path d="M213.3486430170265,120.44648821278852 L-49.31813742172177,-239.98483560686114" stroke="#0d6d4d" stroke-width="0.1" fill="none" />
<path d="M212.17622392718752,122.49999999999994 L0.0,-245.0" stroke="#0d6d4d" stroke-width="0.1" fill="none" />
<path d="M210.98404009741105,124.54210060928811 L49.318137421721715,-239.98483560686114" stroke="#0d6d4d" stroke-width="0.1" fill="none" />
<path d="M209.772202582569,126.57259981393139 L96.61718450276305,-225.1446638469565" stroke="#0d6d4d" stroke-width="0.1" fill="none" />
<path d="M208.5408242683226,128.59130846790768 L139.9607126982241,-201.0870430957827" stroke="#0d6d4d" stroke-width="0.1" fill="none" />
<path d="M207.29001986060672,130.59803852351408 L177.57423287113437,-168.79689517354322" stroke="#0d6d4d" stroke-width="0.1" fill="none" />
<path d="M206.01990587494507,132.5926030488834 L207.91784308621396,-129.5961825301058" stroke="#0d6d4d" stroke-width="0.1" fill="none" />
<path d="M204.73060062559614,134.57481624539807 L229.7492723760347,-85.08978694698096" stroke="#0d6d4d" stroke-width="0.1" fill="none" />
<path d="M203.42222421453224,136.5444934649969 L242.1747394603873,-37.09980548862129" stroke="#0d6d4d" stroke-width="0.1" fill="none" />
<path d="M202.0948985202514,138.5014512273763 L244.68554425690792,12.409046365484597" stroke="#0d6d4d" stroke-width="0.1" fill="none" />
<path d="M200.74874718642428,140.4455072370815 L237.17889412222004,61.409870403386556" stroke="#0d6d4d" stroke-width="0.1" fill="none" />
<path d="M199.38389561037656,142.37648040048774 L219.9621121948317,107.89656713162043" stroke="#0d6d4d" stroke-width="0.1" fill="none" />
<path d="M198.00047093140745,144.29419084267 L193.74005554973616,149.96596572417738" stroke="#0d6d4d" stroke-width="0.1" fill="none" />
<path d="M196.598602018947,146.19845992415821 L159.58625826694444,185.89574005973378" stroke="#0d6d4d" stroke-width="0.1" fill="none" />
<path d="M195.17841946055074,148.08911025757874 L118.89898082011486,214.2149209554226" stroke="#0d6d4d" stroke-width="0.1" fill="none" />
<path d="M193.74005554973616,149.96596572417738 L73.3439651284727,233.76411781801195" stroke="#0d6d4d" stroke-width="0.1" fill="none" />
<path d="M192.28364427365827,151.82885149022647 L24.78623888692091,243.7429842310143" stroke="#0d6d4d" stroke-width="0.1" fill="none" />
<path d="M190.80932130062888,153.67759402331032 L-24.78623888692085,243.7429842310143" stroke="#0d6d4d" stroke-width="0.1" fill="none" />
<path d="M189.31722396747875,155.51202110849016 L-73.34396512847266,233.76411781801198" stroke="#0d6d4d" stroke-width="0.1" fill="none" />
<path d="M187.80749126676412,157.33196186434694 L-118.89898082011491,214.21492095542257" stroke="#0d6d4d" stroke-width="0.1" fill="none" />
<path d="M186.28026383381953,159.1372467588986 L-159.5862582669444,185.8957400597338" stroke="#0d6d4d" stroke-width="0.1" fill="none" />
<path d="M184.7356839336568,160.92770762539325 L-193.74005554973616,149.96596572417738" stroke="#0d6d4d" stroke-width="0.1" fill="none" />
<path d="M183.17389544771325,162.70317767797349 L-219.96211219483172,107.89656713162037" stroke="#0d6d4d" stroke-width="0.1" fill="none" />
<path d="M181.5950438604483,164.4634915272136 L-237.17889412222004,61.4098704033865" stroke="#0d6d4d" stroke-width="0.1" fill="none" />
<path d="M179.99927624579166,166.20848519552538 L-244.68554425690792,12.409046365484603" stroke="#0d6d4d" stroke-width="0.1" fill="none" />
<path d="M178.38674125344264,167.93799613243368 L-242.1747394603873,-37.099805488621286" stroke="#0d6d4d" stroke-width="0.1" fill="none" />
<path d="M176.75758909502335,169.65186322971786 L-229.7492723760347,-85.08978694698096" stroke="#0d6d4d" stroke-width="0.1" fill="none" />
<path d="M175.111971530086,171.34992683641957 L-207.917843086214,-129.59618253010578" stroke="#0d6d4d" stroke-width="0.1" fill="none" />
<path d="M173.4500418519761,173.032028773715 L-177.5742328711344,-168.79689517354316" stroke="#0d6d4d" stroke-width="0.1" fill="none" />
<path d="M171.77195487355294,174.69801234964896 L-139.96071269822414,-201.0870430957827" stroke="#0d6d4d" stroke-width="0.1" fill="none" />
<path d="M170.07786691276803,176.34772237373176 L-96.61718450276308,-225.1446638469565" stroke="#0d6d4d" stroke-width="0.1" fill="none" />
<path d="M168.36793577810434,177.98100517139503 L-49.31813742172177,-239.98483560686114" stroke="#0d6d4d" stroke-width="0.1" fill="none" />
<path d="M166.6423207538753,179.59770859830738 L0.0,-245.0" stroke="#0d6d4d" stroke-width="0.1" fill="none" />
<path d="M164.90118258538763,181.19768205454687 L49.318137421721715,-239.98483560686114" stroke="#0d6d4d" stroke-width="0.1" fill="none" />
<path d="M163.14468346396734,182.7807764986294 L96.61718450276305,-225.1446638469565" stroke="#0d6d4d" stroke-width="0.1" fill="none" />
<path d="M161.37298701185097,184.34684446139286 L139.9607126982241,-201.0870430957827" stroke="#0d6d4d" stroke-width="0.1" fill="none" />
<path d="M159.58625826694444,185.89574005973378 L177.57423287113437,-168.79689517354322" stroke="#0d6d4d" stroke-width="0.1" fill="none" />
<path d="M157.7846636674484,187.42731901019707 L207.91784308621396,-129.5961825301058" stroke="#0d6d4d" stroke-width="0.1" fill="none" />
<path d="M155.96837103635505,188.94143864241607 L229.7492723760347,-85.08978694698096" stroke="#0d6d4d" stroke-width="0.1" fill="none" />
<path d="M154.13754956581425,190.43795791240294 L242.1747394603873,-37.09980548862129" stroke="#0d6d4d" stroke-width="0.1" fill="none" />
<path d="M152.2923698013733,191.91673741568704 L244.68554425690792,12.409046365484597" stroke="#0d6d4d" stroke-width="0.1" fill="none" />
<path d="M150.43300362609023,193.3776394003007 L237.17889412222004,61.409870403386556" stroke="#0d6d4d" stroke-width="0.1" fill="none" />
<path d="M148.55962424452196,194.82052777961164 L219.9621121948317,107.89656713162043" stroke="#0d6d4d" stroke-width="0.1" fill="none" />
<path d="M146.67240616659072,196.2452681449992 L193.74005554973616,149.96596572417738" stroke="#0d6d4d" stroke-width="0.1" fill="none" />
<path d="M144.7715251913271,197.65172777837523 L159.58625826694444,185.89574005973378" stroke="#0d6d4d" stroke-width="0.1" fill="none" />
<path d="M142.85715839049462,199.03977566454685 L118.89898082011486,214.2149209554226" stroke="#0d6d4d" stroke-width="0.1" fill="none" />
<path d="M140.92948409209455,200.40928250342114 L73.3439651284727,233.76411781801195" stroke="#0d6d4d" stroke-width="0.1" fill="none" />
<path d="M138.98868186375478,201.76012072204944 L24.78623888692091,243.7429842310143" stroke="#0d6d4d" stroke-width="0.1" fill="none" />
<path d="M137.0349324960022,203.0921644865112 L-24.78623888692085,243.7429842310143" stroke="#0d6d4d" stroke-width="0.1" fill="none" />
<path d="M135.06841798542158,204.40528971363594 L-73.34396512847266,233.76411781801198" stroke="#0d6d4d" stroke-width="0.1" fill="none" />
<path d="M133.08932151770264,205.6993740825615 L-118.89898082011491,214.21492095542257" stroke="#0d6d4d" stroke-width="0.1" fill="none" />
<path d="M131.09782745057515,206.97429704612895 L-159.5862582669444,185.8957400597338" stroke="#0d6d4d" stroke-width="0.1" fill="none" />
<path d="M129.09412129663633,208.2299398421114 L-193.74005554973616,149.96596572417738" stroke="#0d6d4d" stroke-width="0.1" fill="none" />
<path d="M127.07838970606906,209.4661855042776 L-219.96211219483172,107.89656713162037" stroke="#0d6d4d" stroke-width="0.1" fill="none" />
<path d="M125.05082044925578,210.68291887328692 L-237.17889412222004,61.4098704033865" stroke="#0d6d4d" stroke-width="0.1" fill="none" />
<path d="M123.01160239928652,211.88002660741725 L-244.68554425690792,12.409046365484603" stroke="#0d6d4d" stroke-width="0.1" fill="none" />
<path d="M120.96092551436516,213.05739719312305 L-242.1747394603873,-37.099805488621286" stroke="#0d6d4d" stroke-width="0.1" fill="none" />
<path d="M118.89898082011486,214.2149209554226 L-229.7492723760347,-85.08978694698096" stroke="#0d6d4d" stroke-width="0.1" fill="none" />
<path d="M116.82596039178249,215.35249006811523 L-207.917843086214,-129.59618253010578" stroke="#0d6d4d" stroke-width="0.1" fill="none" />
<path d="M114.7420573363474,216.46999856382493 L-177.5742328711344,-168.79689517354316" stroke="#0d6d4d" stroke-width="0.1" fill="none" />
<path d="M112.64746577453218,217.567342343872 L-139.96071269822414,-201.0870430957827" stroke="#0d6d4d" stroke-width="0.1" fill="none" />
<path d="M110.54238082272059,218.64441918796973 L-96.61718450276308,-225.1446638469565" stroke="#0d6d4d" stroke-width="0.1" fill="none" />
<path d="M108.42699857478134,219.70112876374662 L-49.31813742172177,-239.98483560686114" stroke="#0d6d4d" stroke-width="0.1" fill="none" />
<path d="M106.30151608380177,220.73737263609266 L0.0,-245.0" stroke="#0d6d4d" stroke-width="0.1" fill="none" />
<path d="M104.16613134373205,221.75305427632867 L49.318137421721715,-239.98483560686114" stroke="#0d6d4d" stroke-width="0.1" fill="none" />
<path d="M102.02104327094101,222.74807907119822 L96.61718450276305,-225.1446638469565" stroke="#0d6d4d" stroke-width="0.1" fill="none" />
<path d="M99.86645168568732,223.72235433168115 L139.9607126982241,-201.0870430957827" stroke="#0d6d4d" stroke-width="0.1" fill="none" />
<path d="M97.7025572935049,224.67578930162767 L177.57423287113437,-168.79689517354322" stroke="#0d6d4d" stroke-width="0.1" fill="none" />
<path d="M95.52956166650742,225.6082951662127 L207.91784308621396,-129.5961825301058" stroke="#0d6d4d" stroke-width="0.1" fill="none" />
<path d="M93.34766722461116,226.51978506020893 L229.7492723760347,-85.08978694698096" stroke="#0d6d4d" stroke-width="0.1" fill="none" />
<path d="M91.15707721667864,227.41017407607885 L242.1747394603873,-37.09980548862129" stroke="#0d6d4d" stroke-width="0.1" fill="none" />
<path d="M88.95799570158631,228.27937927188376 L244.68554425690792,12.409046365484597" stroke="#0d6d4d" stroke-width="0.1" fill="none" />
<path d="M86.75062752921505,229.12731967901033 L237.17889412222004,61.409870403386556" stroke="#0d6d4d" stroke-width="0.1" fill="none" />
<path d="M84.53517832136885,229.95391630971275 L219.9621121948317,107.89656713162043" stroke="#0d6d4d" stroke-width="0.1" fill="none" />
<path d="M82.3118544526196,230.75909216447087 L193.74005554973616,149.96596572417738" stroke="#0d6d4d" stroke-width="0.1" fill="none" />
<path d="M80.08086303108387,231.54277223916273 L159.58625826694444,185.89574005973378" stroke="#0d6d4d" stroke-width="0.1" fill="none" />
<path d="M77.84241187912923,232.30488353205146 L118.89898082011486,214.2149209554226" stroke="#0d6d4d" stroke-width="0.1" fill="none" />
<path d="M75.59670951401606,233.04535505058556 L73.3439651284727,233.76411781801195" stroke="#0d6d4d" stroke-width="0.1" fill="none" />
<path d="M73.3439651284727,233.76411781801195 L24.78623888692091,243.7429842310143" stroke="#0d6d4d" stroke-width="0.1" fill="none" />
<path d="M71.08438857120949,234.46110487980155 L-24.78623888692085,243.7429842310143" stroke="#0d6d4d" stroke-width="0.1" fill="none" />
<path d="M68.8181903273704,235.13625130988592 L-73.34396512847266,233.76411781801198" stroke="#0d6d4d" stroke-width="0.1" fill="none" />
<path d="M66.54558149892559,235.78949421670563 L-118.89898082011491,214.21492095542257" stroke="#0d6d4d" stroke-width="0.1" fill="none" />
<path d="M64.26677378500744,236.42077274906848 L-159.5862582669444,185.8957400597338" stroke="#0d6d4d" stroke-width="0.1" fill="none" />
<path d="M61.981979462189436,237.0300281018182 L-193.74005554973616,149.96596572417738" stroke="#0d6d4d" stroke-width="0.1" fill="none" />
<path d="M59.6914113647129,237.61720352131204 L-219.96211219483172,107.89656713162037" stroke="#0d6d4d" stroke-width="0.1" fill="none" />
<path d="M57.39528286466022,238.1822443107077 L-237.17889412222004,61.4098704033865" stroke="#0d6d4d" stroke-width="0.1" fill="none" />
<path d="M55.093807852079024,238.7250978350584 L-244.68554425690792,12.409046365484603" stroke="#0d6d4d" stroke-width="0.1" fill="none" />
<path d="M52.78720071505815,239.2457135262159 L-242.1747394603873,-37.099805488621286" stroke="#0d6d4d" stroke-width="0.1" fill="none" />
<path d="M50.47567631975607,239.74404288754127 L-229.7492723760347,-85.08978694698096" stroke="#0d6d4d" stroke-width="0.1" fill="none" />
<path d="M48.15944999038635,240.2200394984221 L-207.917843086214,-129.59618253010578" stroke="#0d6d4d" stroke-width="0.1" fill="none" />
<path d="M45.83873748915936,240.67365901859708 L-177.5742328711344,-168.79689517354316" stroke="#0d6d4d" stroke-width="0.1" fill="none" />
<path d="M43.51375499618311,241.1048591922862 L-139.96071269822414,-201.0870430957827" stroke="#0d6d4d" stroke-width="0.1" fill="none" />
<path d="M41.184719089326364,241.5135998521269 L-96.61718450276308,-225.1446638469565" stroke="#0d6d4d" stroke-width="0.1" fill="none" />
<path d="M38.851846724042964,241.89984292291606 L-49.31813742172177,-239.98483560686114" stroke="#0d6d4d" stroke-width="0.1" fill="none" />
<path d="M36.5153552131628,242.2635524251565 L0.0,-245.0" stroke="#0d6d4d" stroke-width="0.1" fill="none" />
<path d="M34.17546220664765,242.60469447840865 L49.318137421721715,-239.98483560686114" stroke="#0d6d4d" stroke-width="0.1" fill="none" />
<path d="M31.8323856713175,242.92323730444664 L96.61718450276305,-225.1446638469565" stroke="#0d6d4d" stroke-width="0.1" fill="none" />
<path d="M29.486343870545447,243.2191512302186 L139.9607126982241,-201.0870430957827" stroke="#0d6d4d" stroke-width="0.1" fill="none" />
<path d="M27.137555343926838,243.49240869061052 L177.57423287113437,-168.79689517354322" stroke="#0d6d4d" stroke-width="0.1" fill="none" />
<path d="M24.78623888692091,243.7429842310143 L207.91784308621396,-129.5961825301058" stroke="#0d6d4d" stroke-width="0.1" fill="none" />
<path d="M22.43261353047017,243.97085450969868 L229.7492723760347,-85.08978694698096" stroke="#0d6d4d" stroke-width="0.1" fill="none" />
<path d="M20.07689852059683,244.17599829998375 L242.1747394603873,-37.09980548862129" stroke="#0d6d4d" stroke-width="0.1" fill="none" />
<path d="M17.719313297979163,244.35839649221808 L244.68554425690792,12.409046365484597" stroke="#0d6d4d" stroke-width="0.1" fill="none" />
<path d="M15.360077477510805,244.51803209555908 L237.17889412222004,61.409870403386556" stroke="#0d6d4d" stroke-width="0.1" fill="none" />
<path d="M12.999410827842238,244.65489023955556 L219.9621121948317,107.89656713162043" stroke="#0d6d4d" stroke-width="0.1" fill="none" />
<path d="M10.637533250909659,244.76895817553293 L193.74005554973616,149.96596572417738" stroke="#0d6d4d" stroke-width="0.1" fill="none" />
<path d="M8.274664761449692,244.8602252777809 L159.58625826694444,185.89574005973378" stroke="#0d6d4d" stroke-width="0.1" fill="none" />
<path d="M5.911025466505353,244.92868304454325 L118.89898082011486,214.2149209554226" stroke="#0d6d4d" stroke-width="0.1" fill="none" />
<path d="M3.5468355449217692,244.97432509880963 L73.3439651284727,233.76411781801195" stroke="#0d6d4d" stroke-width="0.1" fill="none" />
<path d="M1.1823152268362964,244.99714718890993 L24.78623888692091,243.7429842310143" stroke="#0d6d4d" stroke-width="0.1" fill="none" />
<path d="M-1.1823152268361277,244.99714718890993 L-24.78623888692085,243.7429842310143" stroke="#0d6d4d" stroke-width="0.1" fill="none" />
<path d="M-3.546835544921709,244.97432509880963 L-73.34396512847266,233.76411781801198" stroke="#0d6d4d" stroke-width="0.1" fill="none" />
<path d="M-5.911025466505185,244.92868304454325 L-118.89898082011491,214.21492095542257" stroke="#0d6d4d" stroke-width="0.1" fill="none" />
<path d="M-8.274664761449632,244.8602252777809 L-159.5862582669444,185.8957400597338" stroke="#0d6d4d" stroke-width="0.1" fill="none" />
<path d="M-10.63753325090949,244.76895817553293 L-193.74005554973616,149.96596572417738" stroke="#0d6d4d" stroke-width="0.1" fill="none" />
<path d="M-12.999410827842176,244.65489023955558 L-219.96211219483172,107.89656713162037" stroke="#0d6d4d" stroke-width="0.1" fill="none" />
<path d="M-15.360077477510853,244.51803209555908 L-237.17889412222004,61.4098704033865" stroke="#0d6d4d" stroke-width="0.1" fill="none" />
<path d="M-17.719313297979102,244.35839649221808 L-244.68554425690792,12.409046365484603" stroke="#0d6d4d" stroke-width="0.1" fill="none" />
<path d="M-20.076898520596878,244.17599829998375 L-242.1747394603873,-37.099805488621286" stroke="#0d6d4d" stroke-width="0.1" fill="none" />
<path d="M-22.43261353047011,243.9708545096987 L-229.7492723760347,-85.08978694698096" stroke="#0d6d4d" stroke-width="0.1" fill="none" />
<path d="M-24.78623888692085,243.7429842310143 L-207.917843086214,-129.59618253010578" stroke="#0d6d4d" stroke-width="0.1" fill="none" />
<path d="M-27.13755534392667,243.49240869061055 L-177.5742328711344,-168.79689517354316" stroke="#0d6d4d" stroke-width="0.1" fill="none" />
<path d="M-29.486343870545387,243.2191512302186 L-139.96071269822414,-201.0870430957827" stroke="#0d6d4d" stroke-width="0.1" fill="none" />
<path d="M-31.832385671317336,242.92323730444667 L-96.61718450276308,-225.1446638469565" stroke="#0d6d4d" stroke-width="0.1" fill="none" />
<path d="M-34.17546220664761,242.60469447840865 L-49.31813742172177,-239.98483560686114" stroke="#0d6d4d" stroke-width="0.1" fill="none" />
<path d="M-36.515355213162636,242.26355242515652 L0.0,-245.0" stroke="#0d6d4d" stroke-width="0.1" fill="none" />
<path d="M-38.851846724042915,241.8998429229161 L49.318137421721715,-239.98483560686114" stroke="#0d6d4d" stroke-width="0.1" fill="none" />
<path d="M-41.18471908932631,241.51359985212693 L96.61718450276305,-225.1446638469565" stroke="#0d6d4d" stroke-width="0.1" fill="none" />
<path d="M-43.51375499618305,241.1048591922862 L139.9607126982241,-201.0870430957827" stroke="#0d6d4d" stroke-width="0.1" fill="none" />
<path d="M-45.8387374891593,240.67365901859708 L177.57423287113437,-168.79689517354322" stroke="#0d6d4d" stroke-width="0.1" fill="none" />
<path d="M-48.1594499903863,240.22003949842212 L207.91784308621396,-129.5961825301058" stroke="#0d6d4d" stroke-width="0.1" fill="none" />
<path d="M-50.47567631975602,239.74404288754127 L229.7492723760347,-85.08978694698096" stroke="#0d6d4d" stroke-width="0.1" fill="none" />
<path d="M-52.787200715057985,239.24571352621595 L242.1747394603873,-37.09980548862129" stroke="#0d6d4d" stroke-width="0.1" fill="none" />
<path d="M-55.09380785207897,238.7250978350584 L244.68554425690792,12.409046365484597" stroke="#0d6d4d" stroke-width="0.1" fill="none" />
<path d="M-57.395282864660054,238.18224431070772 L237.17889412222004,61.409870403386556" stroke="#0d6d4d" stroke-width="0.1" fill="none" />
<path d="M-59.69141136471285,237.61720352131206 L219.9621121948317,107.89656713162043" stroke="#0d6d4d" stroke-width="0.1" fill="none" />
<path d="M-61.98197946218938,237.0300281018182 L193.74005554973616,149.96596572417738" stroke="#0d6d4d" stroke-width="0.1" fill="none" />
<path d="M-64.26677378500739,236.42077274906848 L159.58625826694444,185.89574005973378" stroke="#0d6d4d" stroke-width="0.1" fill="none" />
<path d="M-66.54558149892564,235.7894942167056 L118.89898082011486,214.2149209554226" stroke="#0d6d4d" stroke-width="0.1" fill="none" />
<path d="M-68.81819032737035,235.13625130988592 L73.3439651284727,233.76411781801195" stroke="#0d6d4d" stroke-width="0.1" fill="none" />
<path d="M-71.08438857120954,234.46110487980152 L24.78623888692091,243.7429842310143" stroke="#0d6d4d" stroke-width="0.1" fill="none" />
<path d="M-73.34396512847266,233.76411781801198 L-24.78623888692085,243.7429842310143" stroke="#0d6d4d" stroke-width="0.1" fill="none" />
<path d="M-75.59670951401601,233.04535505058556 L-73.34396512847266,233.76411781801198" stroke="#0d6d4d" stroke-width="0.1" fill="none" />
<path d="M-77.84241187912917,232.3048835320515 L-118.89898082011491,214.21492095542257" stroke="#0d6d4d" stroke-width="0.1" fill="none" />
<path d="M-80.08086303108381,231.54277223916276 L-159.5862582669444,185.8957400597338" stroke="#0d6d4d" stroke-width="0.1" fill="none" />
<path d="M-82.31185445261954,230.7590921644709 L-193.74005554973616,149.96596572417738" stroke="#0d6d4d" stroke-width="0.1" fill="none" />
<path d="M-84.53517832136879,229.95391630971275 L-219.96211219483172,107.89656713162037" stroke="#0d6d4d" stroke-width="0.1" fill="none" />
<path d="M-86.75062752921511,229.1273196790103 L-237.17889412222004,61.4098704033865" stroke="#0d6d4d" stroke-width="0.1" fill="none" />
<path d="M-88.95799570158626,228.27937927188376 L-244.68554425690792,12.409046365484603" stroke="#0d6d4d" stroke-width="0.1" fill="none" />
<path d="M-91.1570772166787,227.41017407607882 L-242.1747394603873,-37.099805488621286" stroke="#0d6d4d" stroke-width="0.1" fill="none" />
<path d="M-93.34766722461111,226.51978506020896 L-229.7492723760347,-85.08978694698096" stroke="#0d6d4d" stroke-width="0.1" fill="none" />
<path d="M-95.52956166650748,225.60829516621268 L-207.917843086214,-129.59618253010578" stroke="#0d6d4d" stroke-width="0.1" fill="none" />
<path d="M-97.70255729350474,224.67578930162776 L-177.5742328711344,-168.79689517354316" stroke="#0d6d4d" stroke-width="0.1" fill="none" />
<path d="M-99.86645168568727,223.72235433168115 L-139.96071269822414,-201.0870430957827" stroke="#0d6d4d" stroke-width="0.1" fill="none" />
<path d="M-102.02104327094086,222.7480790711983 L-96.61718450276308,-225.1446638469565" stroke="#0d6d4d" stroke-width="0.1" fill="none" />
<path d="M-104.16613134373199,221.7530542763287 L-49.31813742172177,-239.98483560686114" stroke="#0d6d4d" stroke-width="0.1" fill="none" />
<path d="M-106.30151608380162,220.73737263609274 L0.0,-245.0" stroke="#0d6d4d" stroke-width="0.1" fill="none" />
<path d="M-108.4269985747813,219.70112876374662 L49.318137421721715,-239.98483560686114" stroke="#0d6d4d" stroke-width="0.1" fill="none" />
<path d="M-110.54238082272063,218.6444191879697 L96.61718450276305,-225.1446638469565" stroke="#0d6d4d" stroke-width="0.1" fill="none" />
<path d="M-112.64746577453212,217.56734234387204 L139.9607126982241,-201.0870430957827" stroke="#0d6d4d" stroke-width="0.1" fill="none" />
<path d="M-114.74205733634746,216.4699985638249 L177.57423287113437,-168.79689517354322" stroke="#0d6d4d" stroke-width="0.1" fill="none" />
<path d="M-116.82596039178244,215.35249006811526 L207.91784308621396,-129.5961825301058" stroke="#0d6d4d" stroke-width="0.1" fill="none" />
<path d="M-118.89898082011491,214.21492095542257 L229.7492723760347,-85.08978694698096" stroke="#0d6d4d" stroke-width="0.1" fill="none" />
<path d="M-120.9609255143651,213.0573971931231 L242.1747394603873,-37.09980548862129" stroke="#0d6d4d" stroke-width="0.1" fill="none" />
<path d="M-123.01160239928649,211.88002660741728 L244.68554425690792,12.409046365484597" stroke="#0d6d4d" stroke-width="0.1" fill="none" />
<path d="M-125.05082044925564,210.68291887328698 L237.17889412222004,61.409870403386556" stroke="#0d6d4d" stroke-width="0.1" fill="none" />
<path d="M-127.078389706069,209.46618550427766 L219.9621121948317,107.89656713162043" stroke="#0d6d4d" stroke-width="0.1" fill="none" />
<path d="M-129.0941212966362,208.22993984211152 L193.74005554973616,149.96596572417738" stroke="#0d6d4d" stroke-width="0.1" fill="none" />
<path d="M-131.0978274505751,206.974297046129 L159.58625826694444,185.89574005973378" stroke="#0d6d4d" stroke-width="0.1" fill="none" />
<path d="M-133.08932151770267,205.69937408256146 L118.89898082011486,214.2149209554226" stroke="#0d6d4d" stroke-width="0.1" fill="none" />
<path d="M-135.06841798542152,204.405289713636 L73.3439651284727,233.76411781801195" stroke="#0d6d4d" stroke-width="0.1" fill="none" />
<path d="M-137.03493249600217,203.09216448651122 L24.78623888692091,243.7429842310143" stroke="#0d6d4d" stroke-width="0.1" fill="none" />
<path d="M-138.98868186375475,201.76012072204946 L-24.78623888692085,243.7429842310143" stroke="#0d6d4d" stroke-width="0.1" fill="none" />
<path d="M-140.92948409209453,200.40928250342117 L-73.34396512847266,233.76411781801198" stroke="#0d6d4d" stroke-width="0.1" fill="none" />
<path d="M-142.8571583904945,199.03977566454694 L-118.89898082011491,214.21492095542257" stroke="#0d6d4d" stroke-width="0.1" fill="none" />
<path d="M-144.77152519132704,197.65172777837526 L-159.5862582669444,185.8957400597338" stroke="#0d6d4d" stroke-width="0.1" fill="none" />
<path d="M-146.67240616659063,196.24526814499927 L-193.74005554973616,149.96596572417738" stroke="#0d6d4d" stroke-width="0.1" fill="none" />
<path d="M-148.55962424452193,194.8205277796117 L-219.96211219483172,107.89656713162037" stroke="#0d6d4d" stroke-width="0.1" fill="none" />
<path d="M-150.43300362609008,193.3776394003008 L-237.17889412222004,61.4098704033865" stroke="#0d6d4d" stroke-width="0.1" fill="none" />
<path d="M-152.29236980137327,191.91673741568707 L-244.68554425690792,12.409046365484603" stroke="#0d6d4d" stroke-width="0.1" fill="none" />
<path d="M-154.13754956581423,190.43795791240294 L-242.1747394603873,-37.099805488621286" stroke="#0d6d4d" stroke-width="0.1" fill="none" />
<path d="M-155.96837103635502,188.9414386424161 L-229.7492723760347,-85.08978694698096" stroke="#0d6d4d" stroke-width="0.1" fill="none" />
<path d="M-157.78466366744846,187.42731901019704 L-207.917843086214,-129.59618253010578" stroke="#0d6d4d" stroke-width="0.1" fill="none" />
<path d="M-159.5862582669444,185.8957400597338 L-177.5742328711344,-168.79689517354316" stroke="#0d6d4d" stroke-width="0.1" fill="none" />
<path d="M-161.37298701185102,184.34684446139283 L-139.96071269822414,-201.0870430957827" stroke="#0d6d4d" stroke-width="0.1" fill="none" />
<path d="M-163.14468346396725,182.78077649862945 L-96.61718450276308,-225.1446638469565" stroke="#0d6d4d" stroke-width="0.1" fill="none" />
<path d="M-164.9011825853876,181.1976820545469 L-49.31813742172177,-239.98483560686114" stroke="#0d6d4d" stroke-width="0.1" fill="none" />
<path d="M-166.64232075387523,179.5977085983075 L0.0,-245.0" stroke="#0d6d4d" stroke-width="0.1" fill="none" />
<path d="M-168.36793577810428,177.98100517139505 L49.318137421721715,-239.98483560686114" stroke="#0d6d4d" stroke-width="0.1" fill="none" />
<path d="M-170.07786691276797,176.34772237373178 L96.61718450276305,-225.1446638469565" stroke="#0d6d4d" stroke-width="0.1" fill="none" />
<path d="M-171.7719548735529,174.698012349649 L139.9607126982241,-201.0870430957827" stroke="#0d6d4d" stroke-width="0.1" fill="none" />
<path d="M-173.45004185197612,173.03202877371498 L177.57423287113437,-168.79689517354322" stroke="#0d6d4d" stroke-width="0.1" fill="none" />
<path d="M-175.11197153008592,171.34992683641963 L207.91784308621396,-129.5961825301058" stroke="#0d6d4d" stroke-width="0.1" fill="none" />
<path d="M-176.75758909502335,169.65186322971783 L229.7492723760347,-85.08978694698096" stroke="#0d6d4d" stroke-width="0.1" fill="none" />
<path d="M-178.38674125344255,167.93799613243374 L242.1747394603873,-37.09980548862129" stroke="#0d6d4d" stroke-width="0.1" fill="none" />
<path d="M-179.9992762457916,166.20848519552544 L244.68554425690792,12.409046365484597" stroke="#0d6d4d" stroke-width="0.1" fill="none" />
<path d="M-181.59504386044824,164.46349152721365 L237.17889412222004,61.409870403386556" stroke="#0d6d4d" stroke-width="0.1" fill="none" />
<path d="M-183.1738954477132,162.70317767797357 L219.9621121948317,107.89656713162043" stroke="#0d6d4d" stroke-width="0.1" fill="none" />
<path d="M-184.73568393365665,160.92770762539342 L193.74005554973616,149.96596572417738" stroke="#0d6d4d" stroke-width="0.1" fill="none" />
<path d="M-186.28026383381948,159.1372467588987 L159.58625826694444,185.89574005973378" stroke="#0d6d4d" stroke-width="0.1" fill="none" />
<path d="M-187.80749126676415,157.3319618643469 L118.89898082011486,214.2149209554226" stroke="#0d6d4d" stroke-width="0.1" fill="none" />
<path d="M-189.31722396747864,155.5120211084903 L73.3439651284727,233.76411781801195" stroke="#0d6d4d" stroke-width="0.1" fill="none" />
<path d="M-190.80932130062882,153.67759402331038 L24.78623888692091,243.7429842310143" stroke="#0d6d4d" stroke-width="0.1" fill="none" />
<path d="M-192.28364427365824,151.82885149022653 L-24.78623888692085,243.7429842310143" stroke="#0d6d4d" stroke-width="0.1" fill="none" />
<path d="M-193.74005554973616,149.96596572417738 L-73.34396512847266,233.76411781801198" stroke="#0d6d4d" stroke-width="0.1" fill="none" />
<path d="M-195.17841946055069,148.08911025757882 L-118.89898082011491,214.21492095542257" stroke="#0d6d4d" stroke-width="0.1" fill="none" />
<path d="M-196.59860201894688,146.19845992415836 L-159.5862582669444,185.8957400597338" stroke="#0d6d4d" stroke-width="0.1" fill="none" />
<path d="M-198.00047093140742,144.29419084267008 L-193.74005554973616,149.96596572417738" stroke="#0d6d4d" stroke-width="0.1" fill="none" />
<path d="M-199.3838956103765,142.37648040048782 L-219.96211219483172,107.89656713162037" stroke="#0d6d4d" stroke-width="0.1" fill="none" />
<path d="M-200.74874718642417,140.44550723708167 L-237.17889412222004,61.4098704033865" stroke="#0d6d4d" stroke-width="0.1" fill="none" />
<path d="M-202.0948985202513,138.50145122737646 L-244.68554425690792,12.409046365484603" stroke="#0d6d4d" stroke-width="0.1" fill="none" />
<path d="M-203.42222421453218,136.54449346499695 L-242.1747394603873,-37.099805488621286" stroke="#0d6d4d" stroke-width="0.1" fill="none" />
<path d="M-204.73060062559617,134.57481624539804 L-229.7492723760347,-85.08978694698096" stroke="#0d6d4d" stroke-width="0.1" fill="none" />
<path d="M-206.0199058749451,132.59260304888338 L-207.917843086214,-129.59618253010578" stroke="#0d6d4d" stroke-width="0.1" fill="none" />
<path d="M-207.2900198606067,130.59803852351416 L-177.5742328711344,-168.79689517354316" stroke="#0d6d4d" stroke-width="0.1" fill="none" />
<path d="M-208.54082426832258,128.59130846790777 L-139.96071269822414,-201.0870430957827" stroke="#0d6d4d" stroke-width="0.1" fill="none" />
<path d="M-209.772202582569,126.57259981393136 L-96.61718450276308,-225.1446638469565" stroke="#0d6d4d" stroke-width="0.1" fill="none" />
<path d="M-210.98404009741105,124.54210060928808 L-49.31813742172177,-239.98483560686114" stroke="#0d6d4d" stroke-width="0.1" fill="none" />
<path d="M-212.1762239271874,122.50000000000011 L0.0,-245.0" stroke="#0d6d4d" stroke-width="0.1" fill="none" />
<path d="M-213.34864301702643,120.4464882127886 L49.318137421721715,-239.98483560686114" stroke="#0d6d4d" stroke-width="0.1" fill="none" />
<path d="M-214.50118815319058,118.38175653735473 L96.61718450276305,-225.1446638469565" stroke="#0d6d4d" stroke-width="0.1" fill="none" />
<path d="M-215.6337519732504,116.30599730855984 L139.9607126982241,-201.0870430957827" stroke="#0d6d4d" stroke-width="0.1" fill="none" />
<path d="M-216.74622897608538,114.21940388850915 L177.57423287113437,-168.79689517354322" stroke="#0d6d4d" stroke-width="0.1" fill="none" />
<path d="M-217.83851553171158,112.12217064853968 L207.91784308621396,-129.5961825301058" stroke="#0d6d4d" stroke-width="0.1" fill="none" />
<path d="M-218.91050989093554,110.01449295111355 L229.7492723760347,-85.08978694698096" stroke="#0d6d4d" stroke-width="0.1" fill="none" />
<path d="M-219.96211219483172,107.89656713162037 L242.1747394603873,-37.09980548862129" stroke="#0d6d4d" stroke-width="0.1" fill="none" />
<path d="M-220.99322448404504,105.76859048008757 L244.68554425690792,12.409046365484597" stroke="#0d6d4d" stroke-width="0.1" fill="none" />
<path d="M-222.0037507079159,103.63076122280255 L237.17889412222004,61.409870403386556" stroke="#0d6d4d" stroke-width="0.1" fill="none" />
<path d="M-222.99359673342792,101.48327850384678 L219.9621121948317,107.89656713162043" stroke="#0d6d4d" stroke-width="0.1" fill="none" />
<path d="M-223.96267035397582,99.32634236654629 L193.74005554973616,149.96596572417738" stroke="#0d6d4d" stroke-width="0.1" fill="none" />
<path d="M-224.91088129795577,97.16015373483545 L159.58625826694444,185.89574005973378" stroke="#0d6d4d" stroke-width="0.1" fill="none" />
<path d="M-225.83814123717318,94.98491439454276 L118.89898082011486,214.2149209554226" stroke="#0d6d4d" stroke-width="0.1" fill="none" />
<path d="M-226.74436379507208,92.80082697459117 L73.3439651284727,233.76411781801195" stroke="#0d6d4d" stroke-width="0.1" fill="none" />
<path d="M-227.6294645547801,90.60809492812497 L24.78623888692091,243.7429842310143" stroke="#0d6d4d" stroke-width="0.1" fill="none" />
<path d="M-228.49336106697274,88.40692251355678 L-24.78623888692085,243.7429842310143" stroke="#0d6d4d" stroke-width="0.1" fill="none" />
<path d="M-229.33597285755377,86.19751477553956 L-73.34396512847266,233.76411781801198" stroke="#0d6d4d" stroke-width="0.1" fill="none" />
<path d="M-230.157221435151,83.98007752586841 L-118.89898082011491,214.21492095542257" stroke="#0d6d4d" stroke-width="0.1" fill="none" />
<path d="M-230.95703029842883,81.75481732430596 L-159.5862582669444,185.8957400597338" stroke="#0d6d4d" stroke-width="0.1" fill="none" />
<path d="M-231.73532494321364,79.52194145934305 L-193.74005554973616,149.96596572417738" stroke="#0d6d4d" stroke-width="0.1" fill="none" />
<path d="M-232.49203286943495,77.2816579288875 L-219.96211219483172,107.89656713162037" stroke="#0d6d4d" stroke-width="0.1" fill="none" />
<path d="M-233.2270835878779,75.03417542089082 L-237.17889412222004,61.4098704033865" stroke="#0d6d4d" stroke-width="0.1" fill="none" />
<path d="M-233.9404086267506,72.7797032939057 L-244.68554425690792,12.409046365484603" stroke="#0d6d4d" stroke-width="0.1" fill="none" />
<path d="M-234.63194153806162,70.51845155758613 L-242.1747394603873,-37.099805488621286" stroke="#0d6d4d" stroke-width="0.1" fill="none" />
<path d="M-235.3016179038104,68.25063085312269 L-229.7492723760347,-85.08978694698096" stroke="#0d6d4d" stroke-width="0.1" fill="none" />
<path d="M-235.94937534198735,65.9764524336219 L-207.917843086214,-129.59618253010578" stroke="#0d6d4d" stroke-width="0.1" fill="none" />
<path d="M-236.57515351238519,63.696128144427924 L-177.5742328711344,-168.79689517354316" stroke="#0d6d4d" stroke-width="0.1" fill="none" />
<path d="M-237.17889412222004,61.4098704033865 L-139.96071269822414,-201.0870430957827" stroke="#0d6d4d" stroke-width="0.1" fill="none" />
<path d="M-237.76054093156108,59.117892181060235 L-96.61718450276308,-225.1446638469565" stroke="#0d6d4d" stroke-width="0.1" fill="none" />
<path d="M-238.32003975856978,56.820406980887775 L-49.31813742172177,-239.98483560686114" stroke="#0d6d4d" stroke-width="0.1" fill="none" />
<path d="M-238.85733848454677,54.51762881929707 L0.0,-245.0" stroke="#0d6d4d" stroke-width="0.1" fill="none" />
<path d="M-239.3723870587871,52.20977220576829 L49.318137421721715,-239.98483560686114" stroke="#0d6d4d" stroke-width="0.1" fill="none" />
<path d="M-239.8651375032424,49.89705212285214 L96.61718450276305,-225.1446638469565" stroke="#0d6d4d" stroke-width="0.1" fill="none" />
<path d="M-240.33554391699033,47.579684006142934 L139.9607126982241,-201.0870430957827" stroke="#0d6d4d" stroke-width="0.1" fill="none" />
<path d="M-240.7835624805102,45.25788372421144 L177.57423287113437,-168.79689517354322" stroke="#0d6d4d" stroke-width="0.1" fill="none" />
<path d="M-241.20915145976494,42.93186755849538 L207.91784308621396,-129.5961825301058" stroke="#0d6d4d" stroke-width="0.1" fill="none" />
<path d="M-241.61227121008866,40.60185218315244 L229.7492723760347,-85.08978694698096" stroke="#0d6d4d" stroke-width="0.1" fill="none" />
<path d="M-241.9928841798798,38.26805464487682 L242.1747394603873,-37.09980548862129" stroke="#0d6d4d" stroke-width="0.1" fill="none" />
<path d="M-242.35095491409908,35.93069234267991 L244.68554425690792,12.409046365484597" stroke="#0d6d4d" stroke-width="0.1" fill="none" />
<path d="M-242.6864500575721,33.58998300764029 L237.17889412222004,61.409870403386556" stroke="#0d6d4d" stroke-width="0.1" fill="none" />
<path d="M-242.99933835809662,31.24614468262075 L219.9621121948317,107.89656713162043" stroke="#0d6d4d" stroke-width="0.1" fill="none" />
<path d="M-243.28959066935374,28.8993957019574 L193.74005554973616,149.96596572417738" stroke="#0d6d4d" stroke-width="0.1" fill="none" />
<path d="M-243.5571799536229,26.549954671120517 L159.58625826694444,185.89574005973378" stroke="#0d6d4d" stroke-width="0.1" fill="none" />
<path d="M-243.80208128430058,24.19804044635213 L118.89898082011486,214.2149209554226" stroke="#0d6d4d" stroke-width="0.1" fill="none" />
<path d="M-244.02427184822224,21.843872114278202 L73.3439651284727,233.76411781801195" stroke="#0d6d4d" stroke-width="0.1" fill="none" />
<path d="M-244.22373094778732,19.487668971500565 L24.78623888692091,243.7429842310143" stroke="#0d6d4d" stroke-width="0.1" fill="none" />
<path d="M-244.4004400028876,17.12965050416806 L-24.78623888692085,243.7429842310143" stroke="#0d6d4d" stroke-width="0.1" fill="none" />
<path d="M-244.55438255263752,14.770036367532143 L-73.34396512847266,233.76411781801198" stroke="#0d6d4d" stroke-width="0.1" fill="none" />
<path d="M-244.68554425690792,12.409046365484603 L-118.89898082011491,214.21492095542257" stroke="#0d6d4d" stroke-width="0.1" fill="none" />
<path d="M-244.79391289766176,10.046900430082486 L-159.5862582669444,185.8957400597338" stroke="#0d6d4d" stroke-width="0.1" fill="none" />
<path d="M-244.87947838009208,7.683818601061112 L-193.74005554973616,149.96596572417738" stroke="#0d6d4d" stroke-width="0.1" fill="none" />
<path d="M-244.9422327335627,5.320021005335951 L-219.96211219483172,107.89656713162037" stroke="#0d6d4d" stroke-width="0.1" fill="none" />
<path d="M-244.9821701123503,2.955727836498562 L-237.17889412222004,61.4098704033865" stroke="#0d6d4d" stroke-width="0.1" fill="none" />
<path d="M-244.9992867961894,0.5911593343041507 L-244.68554425690792,12.409046365484603" stroke="#0d6d4d" stroke-width="0.1" fill="none" />
<path d="M-244.99358119061853,-1.773464235843878 L-242.1747394603873,-37.099805488621286" stroke="#0d6d4d" stroke-width="0.1" fill="none" />
<path d="M-244.9650538271289,-4.137922603413055 L-229.7492723760347,-85.08978694698096" stroke="#0d6d4d" stroke-width="0.1" fill="none" />
<path d="M-244.91370736311504,-6.50199551325929 L-207.917843086214,-129.59618253010578" stroke="#0d6d4d" stroke-width="0.1" fill="none" />
<path d="M-244.83954658162702,-8.865462746145047 L-177.5742328711344,-168.79689517354316" stroke="#0d6d4d" stroke-width="0.1" fill="none" />
<path d="M-244.74257839092505,-11.228104139253098 L-139.96071269822414,-201.0870430957827" stroke="#0d6d4d" stroke-width="0.1" fill="none" />
<path d="M-244.62281182383583,-13.589699606695014 L-96.61718450276308,-225.1446638469565" stroke="#0d6d4d" stroke-width="0.1" fill="none" />
<path d="M-244.48025803691127,-15.950029160013582 L-49.31813742172177,-239.98483560686114" stroke="#0d6d4d" stroke-width="0.1" fill="none" />
<path d="M-244.31493030938915,-18.30887292867375 L0.0,-245.0" stroke="#0d6d4d" stroke-width="0.1" fill="none" />
<path d="M-244.12684404195608,-20.66601118054607 L49.318137421721715,-239.98483560686114" stroke="#0d6d4d" stroke-width="0.1" fill="none" />
<path d="M-243.91601675531302,-23.021224342372676 L96.61718450276305,-225.1446638469565" stroke="#0d6d4d" stroke-width="0.1" fill="none" />
<path d="M-243.68246808854306,-25.37429302022412 L139.9607126982241,-201.0870430957827" stroke="#0d6d4d" stroke-width="0.1" fill="none" />
<path d="M-243.42621979728204,-27.724998019933853 L177.57423287113437,-168.79689517354322" stroke="#0d6d4d" stroke-width="0.1" fill="none" />
<path d="M-243.1472957516919,-30.073120367518666 L207.91784308621396,-129.5961825301058" stroke="#0d6d4d" stroke-width="0.1" fill="none" />
<path d="M-242.84572193423725,-32.41844132957533 L229.7492723760347,-85.08978694698096" stroke="#0d6d4d" stroke-width="0.1" fill="none" />
<path d="M-242.521526437265,-34.760742433655984 L242.1747394603873,-37.09980548862129" stroke="#0d6d4d" stroke-width="0.1" fill="none" />
<path d="M-242.1747394603873,-37.099805488621286 L244.68554425690792,12.409046365484597" stroke="#0d6d4d" stroke-width="0.1" fill="none" />
<path d="M-241.80539330766862,-39.43541260496308 L237.17889412222004,61.409870403386556" stroke="#0d6d4d" stroke-width="0.1" fill="none" />
<path d="M-241.41352238461639,-41.76734621510356 L219.9621121948317,107.89656713162043" stroke="#0d6d4d" stroke-width="0.1" fill="none" />
<path d="M-240.9991631949762,-44.09538909365955 L193.74005554973616,149.96596572417738" stroke="#0d6d4d" stroke-width="0.1" fill="none" />
<path d="M-240.56235433733113,-46.41932437768068 L159.58625826694444,185.89574005973378" stroke="#0d6d4d" stroke-width="0.1" fill="none" />
<path d="M-240.10313650150653,-48.738935586848086 L118.89898082011486,214.2149209554226" stroke="#0d6d4d" stroke-width="0.1" fill="none" />
<path d="M-239.62155246477926,-51.05400664364203 L73.3439651284727,233.76411781801195" stroke="#0d6d4d" stroke-width="0.1" fill="none" />
<path d="M-239.11764708789326,-53.364321893468556 L24.78623888692091,243.7429842310143" stroke="#0d6d4d" stroke-width="0.1" fill="none" />
<path d="M-238.59146731088052,-55.66966612474907 L-24.78623888692085,243.7429842310143" stroke="#0d6d4d" stroke-width="0.1" fill="none" />
<path d="M-238.04306214868836,-57.9698245889677 L-73.34396512847266,233.76411781801198" stroke="#0d6d4d" stroke-width="0.1" fill="none" />
<path d="M-237.4724826866139,-60.264583020675346 L-118.89898082011491,214.21492095542257" stroke="#0d6d4d" stroke-width="0.1" fill="none" />
<path d="M-236.87978207554477,-62.55372765744994 L-159.5862582669444,185.8957400597338" stroke="#0d6d4d" stroke-width="0.1" fill="none" />
<path d="M-236.26501552700867,-64.83704525980765 L-193.74005554973616,149.96596572417738" stroke="#0d6d4d" stroke-width="0.1" fill="none" />
<path d="M-235.6282403080298,-67.11432313106755 L-219.96211219483172,107.89656713162037" stroke="#0d6d4d" stroke-width="0.1" fill="none" />
<path d="M-234.96951573579454,-69.38534913716435 L-237.17889412222004,61.4098704033865" stroke="#0d6d4d" stroke-width="0.1" fill="none" />
<path d="M-234.28890317212557,-71.64991172641012 L-244.68554425690792,12.409046365484603" stroke="#0d6d4d" stroke-width="0.1" fill="none" />
<path d="M-233.58646601776633,-73.90779994919956 L-242.1747394603873,-37.099805488621286" stroke="#0d6d4d" stroke-width="0.1" fill="none" />
<path d="M-232.8622697064747,-76.1588034776613 L-229.7492723760347,-85.08978694698096" stroke="#0d6d4d" stroke-width="0.1" fill="none" />
<path d="M-232.11638169892802,-78.40271262525008 L-207.917843086214,-129.59618253010578" stroke="#0d6d4d" stroke-width="0.1" fill="none" />
<path d="M-231.34887147643855,-80.63931836628036 L-177.5742328711344,-168.79689517354316" stroke="#0d6d4d" stroke-width="0.1" fill="none" />
<path d="M-230.55981053448144,-82.86841235539644 L-139.96071269822414,-201.0870430957827" stroke="#0d6d4d" stroke-width="0.1" fill="none" />
<path d="M-229.7492723760347,-85.08978694698096 L-96.61718450276308,-225.1446638469565" stroke="#0d6d4d" stroke-width="0.1" fill="none" />
<path d="M-228.91733250473214,-87.30323521449766 L-49.31813742172177,-239.98483560686114" stroke="#0d6d4d" stroke-width="0.1" fill="none" />
<path d="M-228.0640684178301,-89.50855096976667 L0.0,-245.0" stroke="#0d6d4d" stroke-width="0.1" fill="none" />
<path d="M-227.18955959898807,-91.7055287821724 L49.318137421721715,-239.98483560686114" stroke="#0d6d4d" stroke-width="0.1" fill="none" />
<path d="M-226.29388751086515,-93.89396399779866 L96.61718450276305,-225.1446638469565" stroke="#0d6d4d" stroke-width="0.1" fill="none" />
<path d="M-225.3771355875312,-96.07365275849342 L139.9607126982241,-201.0870430957827" stroke="#0d6d4d" stroke-width="0.1" fill="none" />
<path d="M-224.439389226695,-98.24439202085843 L177.57423287113437,-168.79689517354322" stroke="#0d6d4d" stroke-width="0.1" fill="none" />
<path d="M-223.4807357817487,-100.40597957516388 L207.91784308621396,-129.5961825301058" stroke="#0d6d4d" stroke-width="0.1" fill="none" />
<path d="M-222.50126455363144,-102.5582140641836 L229.7492723760347,-85.08978694698096" stroke="#0d6d4d" stroke-width="0.1" fill="none" />
<path d="M-221.5010667825102,-104.70089500195284 L242.1747394603873,-37.09980548862129" stroke="#0d6d4d" stroke-width="0.1" fill="none" />
<path d="M-220.48023563928066,-106.83382279244373 L244.68554425690792,12.409046365484597" stroke="#0d6d4d" stroke-width="0.1" fill="none" />
<path d="M-219.43886621688833,-108.95679874815794 L237.17889412222004,61.409870403386556" stroke="#0d6d4d" stroke-width="0.1" fill="none" />
<path d="M-218.37705552146977,-111.06962510863585 L219.9621121948317,107.89656713162043" stroke="#0d6d4d" stroke-width="0.1" fill="none" />
<path d="M-217.29490246331707,-113.17210505887708 L193.74005554973616,149.96596572417738" stroke="#0d6d4d" stroke-width="0.1" fill="none" />
<path d="M-216.19250784766365,-115.26404274767518 L159.58625826694444,185.89574005973378" stroke="#0d6d4d" stroke-width="0.1" fill="none" />
<path d="M-215.06997436529406,-117.34524330586119 L118.89898082011486,214.2149209554226" stroke="#0d6d4d" stroke-width="0.1" fill="none" />
<path d="M-213.92740658297785,-119.41551286445699 L73.3439651284727,233.76411781801195" stroke="#0d6d4d" stroke-width="0.1" fill="none" />
<path d="M-212.76491093372948,-121.4746585727334 L24.78623888692091,243.7429842310143" stroke="#0d6d4d" stroke-width="0.1" fill="none" />
<path d="M-211.5825957068931,-123.52248861617633 L-24.78623888692085,243.7429842310143" stroke="#0d6d4d" stroke-width="0.1" fill="none" />
<path d="M-210.38057103805608,-125.55881223435269 L-73.34396512847266,233.76411781801198" stroke="#0d6d4d" stroke-width="0.1" fill="none" />
<path d="M-209.15894889878874,-127.58343973868192 L-118.89898082011491,214.21492095542257" stroke="#0d6d4d" stroke-width="0.1" fill="none" />
<path d="M-207.917843086214,-129.59618253010578 L-159.5862582669444,185.8957400597338" stroke="#0d6d4d" stroke-width="0.1" fill="none" />
<path d="M-206.65736921240756,-131.5968531166557 L-193.74005554973616,149.96596572417738" stroke="#0d6d4d" stroke-width="0.1" fill="none" />
<path d="M-205.37764469362745,-133.58526513091974 L-219.96211219483172,107.89656713162037" stroke="#0d6d4d" stroke-width="0.1" fill="none" />
<path d="M-204.07878873937756,-135.561233347401 L-237.17889412222004,61.4098704033865" stroke="#0d6d4d" stroke-width="0.1" fill="none" />
<path d="M-202.76092234130155,-137.5245736997744 L-244.68554425690792,12.409046365484603" stroke="#0d6d4d" stroke-width="0.1" fill="none" />
<path d="M-201.42416826191354,-139.47510329803072 L-242.1747394603873,-37.099805488621286" stroke="#0d6d4d" stroke-width="0.1" fill="none" />
<path d="M-200.0686510231612,-141.4126404455151 L-229.7492723760347,-85.08978694698096" stroke="#0d6d4d" stroke-width="0.1" fill="none" />
<path d="M-198.69449689482784,-143.3370046558503 L-207.917843086214,-129.59618253010578" stroke="#0d6d4d" stroke-width="0.1" fill="none" />
<path d="M-197.3018338827682,-145.24801666975193 L-177.5742328711344,-168.79689517354316" stroke="#0d6d4d" stroke-width="0.1" fill="none" />
<path d="M-195.8907917169858,-147.1454984717252 L-139.96071269822414,-201.0870430957827" stroke="#0d6d4d" stroke-width="0.1" fill="none" />
<path d="M-194.46150183954782,-149.02927330664787 L-96.61718450276308,-225.1446638469565" stroke="#0d6d4d" stroke-width="0.1" fill="none" />
<path d="M-193.01409739234035,-150.89916569623625 L-49.31813742172177,-239.98483560686114" stroke="#0d6d4d" stroke-width="0.1" fill="none" />
<path d="M-191.54871320466734,-152.75500145538967 L0.0,-245.0" stroke="#0d6d4d" stroke-width="0.1" fill="none" />
<path d="M-190.06548578068922,-154.59660770841845 L49.318137421721715,-239.98483560686114" stroke="#0d6d4d" stroke-width="0.1" fill="none" />
<path d="M-188.56455328670853,-156.42381290514584 L96.61718450276305,-225.1446638469565" stroke="#0d6d4d" stroke-width="0.1" fill="none" />
<path d="M-187.0460555382984,-158.2364468368896 L139.9607126982241,-201.0870430957827" stroke="#0d6d4d" stroke-width="0.1" fill="none" />
<path d="M-185.51013398727923,-160.03434065231656 L177.57423287113437,-168.79689517354322" stroke="#0d6d4d" stroke-width="0.1" fill="none" />
<path d="M-183.95693170854165,-161.81732687317188 L207.91784308621396,-129.5961825301058" stroke="#0d6d4d" stroke-width="0.1" fill="none" />
<path d="M-182.3865933867188,-163.58523940987985 L229.7492723760347,-85.08978694698096" stroke="#0d6d4d" stroke-width="0.1" fill="none" />
<path d="M-180.79926530270836,-165.33791357701622 L242.1747394603873,-37.09980548862129" stroke="#0d6d4d" stroke-width="0.1" fill="none" />
<path d="M-179.19509532004662,-167.0751861086481 L244.68554425690792,12.409046365484597" stroke="#0d6d4d" stroke-width="0.1" fill="none" />
<path d="M-177.5742328711344,-168.79689517354316 L237.17889412222004,61.409870403386556" stroke="#0d6d4d" stroke-width="0.1" fill="none" />
<path d="M-175.93682894331695,-170.50288039024454 L219.9621121948317,107.89656713162043" stroke="#0d6d4d" stroke-width="0.1" fill="none" />
<path d="M-174.28303606481933,-172.19298284201042 L193.74005554973616,149.96596572417738" stroke="#0d6d4d" stroke-width="0.1" fill="none" />
<path d="M-172.61300829053738,-173.8670450916184 L159.58625826694444,185.89574005973378" stroke="#0d6d4d" stroke-width="0.1" fill="none" />
<path d="M-170.92690118768826,-175.5249111960301 L118.89898082011486,214.2149209554226" stroke="#0d6d4d" stroke-width="0.1" fill="none" />
<path d="M-169.224871821318,-177.16642672091825 L73.3439651284727,233.76411781801195" stroke="#0d6d4d" stroke-width="0.1" fill="none" />
<path d="M-167.5070787396711,-178.79143875505233 L24.78623888692091,243.7429842310143" stroke="#0d6d4d" stroke-width="0.1" fill="none" />
<path d="M-165.77368195942063,-180.39979592454327 L-24.78623888692085,243.7429842310143" stroke="#0d6d4d" stroke-width="0.1" fill="none" />
<path d="M-164.02484295076326,-181.99134840694336 L-73.34396512847266,233.76411781801198" stroke="#0d6d4d" stroke-width="0.1" fill="none" />
<path d="M-162.26072462237724,-183.5659479452032 L-118.89898082011491,214.21492095542257" stroke="#0d6d4d" stroke-width="0.1" fill="none" />
<path d="M-160.48149130624728,-185.1234478614821 L-159.5862582669444,185.8957400597338" stroke="#0d6d4d" stroke-width="0.1" fill="none" />
<path d="M-158.68730874235666,-186.6637030708112 L-193.74005554973616,149.96596572417738" stroke="#0d6d4d" stroke-width="0.1" fill="none" />
<path d="M-156.87834406324765,-188.1865700946093 L-219.96211219483172,107.89656713162037" stroke="#0d6d4d" stroke-width="0.1" fill="none" />
<path d="M-155.05476577845354,-189.6919070740471 L-237.17889412222004,61.4098704033865" stroke="#0d6d4d" stroke-width="0.1" fill="none" />
<path d="M-153.216743758801,-191.1795737832625 L-244.68554425690792,12.409046365484603" stroke="#0d6d4d" stroke-width="0.1" fill="none" />
<path d="M-151.3644492205864,-192.64943164242274 L-242.1747394603873,-37.099805488621286" stroke="#0d6d4d" stroke-width="0.1" fill="none" />
<path d="M-149.49805470962622,-194.1013437306337 L-229.7492723760347,-85.08978694698096" stroke="#0d6d4d" stroke-width="0.1" fill="none" />
<path d="M-147.61773408518445,-195.53517479869387 L-207.917843086214,-129.59618253010578" stroke="#0d6d4d" stroke-width="0.1" fill="none" />
<path d="M-145.72366250377715,-196.95079128169368 L-177.5742328711344,-168.79689517354316" stroke="#0d6d4d" stroke-width="0.1" fill="none" />
<path d="M-143.81601640285592,-198.34806131145692 L-139.96071269822414,-201.0870430957827" stroke="#0d6d4d" stroke-width="0.1" fill="none" />
<path d="M-141.8949734843721,-199.72685472882543 L-96.61718450276308,-225.1446638469565" stroke="#0d6d4d" stroke-width="0.1" fill="none" />
<path d="M-139.96071269822414,-201.0870430957827 L-49.31813742172177,-239.98483560686114" stroke="#0d6d4d" stroke-width="0.1" fill="none" />
<path d="M-138.01341422558738,-202.42849970741875 L0.0,-245.0" stroke="#0d6d4d" stroke-width="0.1" fill="none" />
<path d="M-136.05325946212992,-203.75109960373305 L49.318137421721715,-239.98483560686114" stroke="#0d6d4d" stroke-width="0.1" fill="none" />
<path d="M-134.08043100111533,-205.05471958127455 L96.61718450276305,-225.1446638469565" stroke="#0d6d4d" stroke-width="0.1" fill="none" />
<path d="M-132.09511261639287,-206.33923820461897 L139.9607126982241,-201.0870430957827" stroke="#0d6d4d" stroke-width="0.1" fill="none" />
<path d="M-130.09748924527983,-207.60453581767982 L177.57423287113437,-168.79689517354322" stroke="#0d6d4d" stroke-width="0.1" fill="none" />
<path d="M-128.08774697133245,-208.85049455485594 L207.91784308621396,-129.5961825301058" stroke="#0d6d4d" stroke-width="0.1" fill="none" />
<path d="M-126.06607300701415,-210.07699835200944 L229.7492723760347,-85.08978694698096" stroke="#0d6d4d" stroke-width="0.1" fill="none" />
<path d="M-124.03265567625336,-211.28393295727903 L242.1747394603873,-37.09980548862129" stroke="#0d6d4d" stroke-width="0.1" fill="none" />
<path d="M-121.98768439690316,-212.47118594172142 L244.68554425690792,12.409046365484597" stroke="#0d6d4d" stroke-width="0.1" fill="none" />
<path d="M-119.93134966309455,-213.63864670978552 L237.17889412222004,61.409870403386556" stroke="#0d6d4d" stroke-width="0.1" fill="none" />
<path d="M-117.86384302749353,-214.78620650961355 L219.9621121948317,107.89656713162043" stroke="#0d6d4d" stroke-width="0.1" fill="none" />
<path d="M-115.78535708345586,-215.91375844317244 L193.74005554973616,149.96596572417738" stroke="#0d6d4d" stroke-width="0.1" fill="none" />
<path d="M-113.69608544708659,-217.02119747621148 L159.58625826694444,185.89574005973378" stroke="#0d6d4d" stroke-width="0.1" fill="none" />
<path d="M-111.59622273920549,-218.10842044804605 L118.89898082011486,214.2149209554226" stroke="#0d6d4d" stroke-width="0.1" fill="none" />
<path d="M-109.48596456721585,-219.17532608116807 L73.3439651284727,233.76411781801195" stroke="#0d6d4d" stroke-width="0.1" fill="none" />
<path d="M-107.36550750688549,-220.22181499067915 L24.78623888692091,243.7429842310143" stroke="#0d6d4d" stroke-width="0.1" fill="none" />
<path d="M-105.23504908403255,-221.24778969354983 L-24.78623888692085,243.7429842310143" stroke="#0d6d4d" stroke-width="0.1" fill="none" />
<path d="M-103.09478775612783,-222.2531546176993 L-73.34396512847266,233.76411781801198" stroke="#0d6d4d" stroke-width="0.1" fill="none" />
<path d="M-100.94492289380617,-223.23781611089893 L-118.89898082011491,214.21492095542257" stroke="#0d6d4d" stroke-width="0.1" fill="none" />
<path d="M-98.78565476229592,-224.20168244949565 L-159.5862582669444,185.8957400597338" stroke="#0d6d4d" stroke-width="0.1" fill="none" />
<path d="M-96.61718450276308,-225.1446638469565 L-193.74005554973616,149.96596572417738" stroke="#0d6d4d" stroke-width="0.1" fill="none" />
<path d="M-94.43971411357465,-226.06667246223245 L-219.96211219483172,107.89656713162037" stroke="#0d6d4d" stroke-width="0.1" fill="none" />
<path d="M-92.25344643148209,-226.96762240794095 L-237.17889412222004,61.4098704033865" stroke="#0d6d4d" stroke-width="0.1" fill="none" />
<path d="M-90.0585851127259,-227.84742975836684 L-244.68554425690792,12.409046365484603" stroke="#0d6d4d" stroke-width="0.1" fill="none" />
<path d="M-87.85533461406565,-228.70601255727965 L-242.1747394603873,-37.099805488621286" stroke="#0d6d4d" stroke-width="0.1" fill="none" />
<path d="M-85.64390017373361,-229.5432908255686 L-229.7492723760347,-85.08978694698096" stroke="#0d6d4d" stroke-width="0.1" fill="none" />
<path d="M-83.42448779231663,-230.35918656869237 L-207.917843086214,-129.59618253010578" stroke="#0d6d4d" stroke-width="0.1" fill="none" />
<path d="M-81.19730421356587,-231.1536237839451 L-177.5742328711344,-168.79689517354316" stroke="#0d6d4d" stroke-width="0.1" fill="none" />
<path d="M-78.9625569051394,-231.92652846753563 L-139.96071269822414,-201.0870430957827" stroke="#0d6d4d" stroke-width="0.1" fill="none" />
<path d="M-76.72045403927514,-232.6778286214814 L-96.61718450276308,-225.1446638469565" stroke="#0d6d4d" stroke-width="0.1" fill="none" />
<path d="M-74.47120447339945,-233.4074542603152 L-49.31813742172177,-239.98483560686114" stroke="#0d6d4d" stroke-width="0.1" fill="none" />
<path d="M-72.21501773067165,-234.11533741760445 L0.0,-245.0" stroke="#0d6d4d" stroke-width="0.1" fill="none" />
<path d="M-69.95210398046558,-234.8014121522827 L49.318137421721715,-239.98483560686114" stroke="#0d6d4d" stroke-width="0.1" fill="none" />
<path d="M-67.68267401879311,-235.46561455479184 L96.61718450276305,-225.1446638469565" stroke="#0d6d4d" stroke-width="0.1" fill="none" />
<path d="M-65.40693924866713,-236.10788275303554 L139.9607126982241,-201.0870430957827" stroke="#0d6d4d" stroke-width="0.1" fill="none" />
<path d="M-63.12511166040922,-236.72815691814287 L177.57423287113437,-168.79689517354322" stroke="#0d6d4d" stroke-width="0.1" fill="none" />
<path d="M-60.837403811901396,-237.32637927004163 L207.91784308621396,-129.5961825301058" stroke="#0d6d4d" stroke-width="0.1" fill="none" />
<path d="M-58.544028808787125,-237.90249408284038 L229.7492723760347,-85.08978694698096" stroke="#0d6d4d" stroke-width="0.1" fill="none" />
<path d="M-56.24520028461908,-238.45644769001967 L242.1747394603873,-37.09980548862129" stroke="#0d6d4d" stroke-width="0.1" fill="none" />
<path d="M-53.941132380959154,-238.98818848943108 L244.68554425690792,12.409046365484597" stroke="#0d6d4d" stroke-width="0.1" fill="none" />
<path d="M-51.63203972742974,-239.49766694810435 L237.17889412222004,61.409870403386556" stroke="#0d6d4d" stroke-width="0.1" fill="none" />
<path d="M-49.31813742172177,-239.98483560686114 L219.9621121948317,107.89656713162043" stroke="#0d6d4d" stroke-width="0.1" fill="none" />
<path d="M-46.999641009556925,-240.4496490847362 L193.74005554973616,149.96596572417738" stroke="#0d6d4d" stroke-width="0.1" fill="none" />
<path d="M-44.67676646460927,-240.89206408320464 L159.58625826694444,185.89574005973378" stroke="#0d6d4d" stroke-width="0.1" fill="none" />
<path d="M-42.349730168387005,-241.31203939021526 L118.89898082011486,214.2149209554226" stroke="#0d6d4d" stroke-width="0.1" fill="none" />
<path d="M-40.01874889007509,-241.70953588402983 L73.3439651284727,233.76411781801195" stroke="#0d6d4d" stroke-width="0.1" fill="none" />
<path d="M-37.68403976634394,-242.08451653686694 L24.78623888692091,243.7429842310143" stroke="#0d6d4d" stroke-width="0.1" fill="none" />
<path d="M-35.34582028112184,-242.4369464183515 L-24.78623888692085,243.7429842310143" stroke="#0d6d4d" stroke-width="0.1" fill="none" />
<path d="M-33.00430824533607,-242.7667926987685 L-73.34396512847266,233.76411781801198" stroke="#0d6d4d" stroke-width="0.1" fill="none" />
<path d="M-30.65972177662254,-243.07402465212135 L-118.89898082011491,214.21492095542257" stroke="#0d6d4d" stroke-width="0.1" fill="none" />
<path d="M-28.31227927900904,-243.35861365899376 L-159.5862582669444,185.8957400597338" stroke="#0d6d4d" stroke-width="0.1" fill="none" />
<path d="M-25.962199422568432,-243.62053320921615 L-193.74005554973616,149.96596572417738" stroke="#0d6d4d" stroke-width="0.1" fill="none" />
<path d="M-23.60970112305137,-243.85975890433457 L-219.96211219483172,107.89656713162037" stroke="#0d6d4d" stroke-width="0.1" fill="none" />
<path d="M-21.255003521491815,-244.076268459884 L-237.17889412222004,61.4098704033865" stroke="#0d6d4d" stroke-width="0.1" fill="none" />
<path d="M-18.898325963793717,-244.270041707464 L-244.68554425690792,12.409046365484603" stroke="#0d6d4d" stroke-width="0.1" fill="none" />
<path d="M-16.539887980299486,-244.44106059661732 L-242.1747394603873,-37.099805488621286" stroke="#0d6d4d" stroke-width="0.1" fill="none" />
<path d="M-14.179909265339333,-244.58930919651158 L-229.7492723760347,-85.08978694698096" stroke="#0d6d4d" stroke-width="0.1" fill="none" />
<path d="M-11.818609656766638,-244.71477369742306 L-207.917843086214,-129.59618253010578" stroke="#0d6d4d" stroke-width="0.1" fill="none" />
<path d="M-9.456209115478622,-244.8174424120233 L-177.5742328711344,-168.79689517354316" stroke="#0d6d4d" stroke-width="0.1" fill="none" />
<path d="M-7.092927704927993,-244.8973057764676 L-139.96071269822414,-201.0870430957827" stroke="#0d6d4d" stroke-width="0.1" fill="none" />
<path d="M-4.7289855706215125,-244.9543563512861 L-96.61718450276308,-225.1446638469565" stroke="#0d6d4d" stroke-width="0.1" fill="none" />
<path d="M-2.3646029196155225,-244.98858882207665 L-49.31813742172177,-239.98483560686114" stroke="#0d6d4d" stroke-width="0.1" fill="none" />
</svg>