<?xml version="1.0" encoding="UTF-8"?>
<svg xmlns="http://www.w3.org/2000/svg" xmlns:xlink="http://www.w3.org/1999/xlink"
     width="500.0" height="500" viewBox="-250.0 -250.0 500 500">
<defs>
</defs>
<circle cx="0" cy="0" r="245.0" fill="white" stroke-width="2" stroke="black" />
<path d="M0.0,-245.0 L0.0,-245.0" stroke="#0d6d4d" stroke-width="0.1" fill="none" />
<path d="M2.3501630407333853,-244.98872776860975 L49.021055799735386,-240.04569583368755" stroke="#0d6d4d" stroke-width="0.1" fill="none" />
<path d="M4.70010982365779,-244.95491211168957 L96.05953836693472,-225.38315174105492" stroke="#0d6d4d" stroke-width="0.1" fill="none" />
<path d="M7.049624110863895,-244.89855614089586 L139.213056271723,-201.6053693815869" stroke="#0d6d4d" stroke-width="0.1" fill="none" />
<path d="M9.39848970423986,-244.81966504200454 L176.73633887290234,-169.67400072433793" stroke="#0d6d4d" stroke-width="0.1" fill="none" />
<path d="M11.746490465365497,-244.71824607443367 L207.11182082088308,-130.88045566950944" stroke="#0d6d4d" stroke-width="0.1" fill="none" />
<path d="M14.093410335400936,-244.59430857057572 L229.1110174073498,-86.79367317131504" stroke="#0d6d4d" stroke-width="0.1" fill="none" />
<path d="M16.43903335496798,-244.4478639349386 L241.84420854002616,-39.19666817024543" stroke="#0d6d4d" stroke-width="0.1" fill="none" />
<path d="M18.783143684022292,-244.2789256430963 L244.7964219586748,9.985579413856119" stroke="#0d6d4d" stroke-width="0.1" fill="none" />
<path d="M21.125525621714623,-244.087509240449 L237.84826041235817,58.763977220871055" stroke="#0d6d4d" stroke-width="0.1" fill="none" />
<path d="M23.465963626239205,-243.87363234079248 L221.28073047819564,105.16576590809453" stroke="#0d6d4d" stroke-width="0.1" fill="none" />
<path d="M25.80424233466754,-243.63731462469732 L195.7638777282552,147.3143040468126" stroke="#0d6d4d" stroke-width="0.1" fill="none" />
<path d="M28.140146582765695,-243.37857783769806 L162.32968787592645,183.50496569331386" stroke="#0d6d4d" stroke-width="0.1" fill="none" />
<path d="M30.47346142479335,-243.09744578829213 L122.33034986882288,212.2740810861547" stroke="#0d6d4d" stroke-width="0.1" fill="none" />
<path d="M32.80397215328269,-242.793944345749 L77.38356890644117,232.45813228042178" stroke="#0d6d4d" stroke-width="0.1" fill="none" />
<path d="M35.13146431879545,-242.46810143772976 L29.307141104571222,243.24080965223897" stroke="#0d6d4d" stroke-width="0.1" fill="none" />
<path d="M37.45572374965612,-242.11994704771732 L-19.954564177111667,244.186026153221" stroke="#0d6d4d" stroke-width="0.1" fill="none" />
<path d="M39.77653657165969,-241.74951321225743 L-68.4092410470425,235.25555410949949" stroke="#0d6d4d" stroke-width="0.1" fill="none" />
<path d="M42.093689227751916,-241.35683401801043 L-114.09722250527038,216.81057127497917" stroke="#0d6d4d" stroke-width="0.1" fill="none" />
<path d="M44.40696849768051,-240.94194559861515 L-155.17073584249772,189.59705361133067" stroke="#0d6d4d" stroke-width="0.1" fill="none" />
<path d="M46.71616151761526,-240.50488613136343 L-189.9686326648333,154.71560555888868" stroke="#0d6d4d" stroke-width="0.1" fill="none" />
<path d="M49.021055799735386,-240.04569583368755 L-217.08357121549471,113.57694796184317" stroke="#0d6d4d" stroke-width="0.1" fill="none" />
<path d="M51.32143925178227,-239.56441695945918 L-235.41893391872026,67.84486386288373" stroke="#0d6d4d" stroke-width="0.1" fill="none" />
<path d="M53.61710019657589,-239.06109379510156 L-244.23317821262032,19.36890962760806" stroke="#0d6d4d" stroke-width="0.1" fill="none" />
<path d="M55.90782739149285,-238.53577265551397 L-243.16982697696514,-29.89038721717793" stroke="#0d6d4d" stroke-width="0.1" fill="none" />
<path d="M58.193410047904635,-237.98850187981023 L-232.27188564405722,-77.94081818504347" stroke="#0d6d4d" stroke-width="0.1" fill="none" />
<path d="M60.47363785057398,-237.41933182687046 L-211.98010291716068,-122.83906531405214" stroke="#0d6d4d" stroke-width="0.1" fill="none" />
<path d="M62.7483009770077,-236.82831487070726 L-183.1151454387716,-162.76929535676416" stroke="#0d6d4d" stroke-width="0.1" fill="none" />
<path d="M65.01719011676423,-236.21550539564615 L-146.84440732395623,-196.116598067772" stroke="#0d6d4d" stroke-width="0.1" fill="none" />
<path d="M67.28009649071387,-235.58095979132148 L-104.6347968907346,-221.53229850212523" stroke="#0d6d4d" stroke-width="0.1" fill="none" />
<path d="M69.53681187025043,-234.92473644748736 L-58.193410047904635,-237.98850187981023" stroke="#0d6d4d" stroke-width="0.1" fill="none" />
<path d="M71.78712859645196,-234.24689574864482 L-9.39848970423984,-244.81966504200454" stroke="#0d6d4d" stroke-width="0.1" fill="none" />
<path d="M74.03083959918914,-233.54750006848528 L39.77653657165969,-241.74951321225743" stroke="#0d6d4d" stroke-width="0.1" fill="none" />
<path d="M76.26773841617957,-232.82661376415112 L87.34286847320452,-228.90221345996744" stroke="#0d6d4d" stroke-width="0.1" fill="none" />
<path d="M78.49761921198599,-232.08430317031363 L131.37676660189643,-206.7973529744296" stroke="#0d6d4d" stroke-width="0.1" fill="none" />
<path d="M80.72027679695698,-231.3206365930689 L170.09735483562974,-176.3289252446174" stroke="#0d6d4d" stroke-width="0.1" fill="none" />
<path d="M82.93550664610802,-230.53568430365257 L201.93864483474346,-138.72917401292108" stroke="#0d6d4d" stroke-width="0.1" fill="none" />
<path d="M85.14310491794167,-229.72951853197355 L225.61286977716935,-95.51875727264266" stroke="#0d6d4d" stroke-width="0.1" fill="none" />
<path d="M87.34286847320452,-228.90221345996744 L240.16256589746672,-48.44524684161451" stroke="#0d6d4d" stroke-width="0.1" fill="none" />
<path d="M89.53459489357985,-228.0538452147706 L244.99929548047334,0.5875492079070296" stroke="#0d6d4d" stroke-width="0.1" fill="none" />
<path d="M91.7180825003138,-227.18449186171497 L239.92744522394915,49.59658282894982" stroke="#0d6d4d" stroke-width="0.1" fill="none" />
<path d="M93.8931303727733,-226.2942333971447 L225.15213748590887,96.59976700554917" stroke="#0d6d4d" stroke-width="0.1" fill="none" />
<path d="M96.05953836693472,-225.38315174105492 L201.2709344597005,139.69613789120638" stroke="#0d6d4d" stroke-width="0.1" fill="none" />
<path d="M98.21710713380051,-224.45133072955383 L169.24967078735904,177.14273605872353" stroke="#0d6d4d" stroke-width="0.1" fill="none" />
<path d="M100.36563813774306,-223.4988561071479 L130.38339202008837,207.42509753001434" stroke="#0d6d4d" stroke-width="0.1" fill="none" />
<path d="M102.50493367477364,-222.52581551885223 L86.24397870340482,229.31850369607474" stroke="#0d6d4d" stroke-width="0.1" fill="none" />
<path d="M104.63479689073459,-221.53229850212523 L38.61657434174462,241.93751297826577" stroke="#0d6d4d" stroke-width="0.1" fill="none" />
<path d="M106.75503179941371,-220.5183964786298 L-10.572611694609748,244.7717710071057" stroke="#0d6d4d" stroke-width="0.1" fill="none" />
<path d="M108.8654433005784,-219.48420274582077 L-59.334206431638115,237.70665103679315" stroke="#0d6d4d" stroke-width="0.1" fill="none" />
<path d="M110.9658371979285,-218.42981246835978 L-105.69613009822488,221.02788982899673" stroke="#0d6d4d" stroke-width="0.1" fill="none" />
<path d="M113.05602021696588,-217.3553226693586 L-147.78335353861777,195.41003151547753" stroke="#0d6d4d" stroke-width="0.1" fill="none" />
<path d="M115.13580002277916,-216.26083222145107 L-183.89373057780261,161.88914680786525" stroke="#0d6d4d" stroke-width="0.1" fill="none" />
<path d="M117.20498523774219,-215.1464418376949 L-212.56683842873957,121.82093087975535" stroke="#0d6d4d" stroke-width="0.1" fill="none" />
<path d="M119.26338545912404,-214.01225406230458 L-232.64304200826945,76.82587458101976" stroke="#0d6d4d" stroke-width="0.1" fill="none" />
<path d="M121.31081127660968,-212.85837326121515 L-243.31039340587952,28.723726441326257" stroke="#0d6d4d" stroke-width="0.1" fill="none" />
<path d="M123.34707428972925,-211.6849056124787 L-244.13746973607837,-20.54010396432852" stroke="#0d6d4d" stroke-width="0.1" fill="none" />
<path d="M125.37198712519405,-210.49195909649416 L-235.09082130328585,-68.97322479735544" stroke="#0d6d4d" stroke-width="0.1" fill="none" />
<path d="M127.38536345413856,-209.27964348607108 L-216.53632441788372,-114.61684085505506" stroke="#0d6d4d" stroke-width="0.1" fill="none" />
<path d="M129.3870180092661,-208.0480703363284 L-189.2243841510813,-155.62497371130382" stroke="#0d6d4d" stroke-width="0.1" fill="none" />
<path d="M131.37676660189643,-206.7973529744296 L-154.25958547801292,-190.33911917457124" stroke="#0d6d4d" stroke-width="0.1" fill="none" />
<path d="M133.35442613891504,-205.52760648915427 L-113.0560202169658,-217.35532266935866" stroke="#0d6d4d" stroke-width="0.1" fill="none" />
<path d="M135.31981463962057,-204.23894772030806 L-67.280096490714,-235.58095979132145" stroke="#0d6d4d" stroke-width="0.1" fill="none" />
<path d="M137.27275125247053,-202.93149524797118 L-18.783143684022413,-244.27892564309627" stroke="#0d6d4d" stroke-width="0.1" fill="none" />
<path d="M139.213056271723,-201.6053693815869 L30.47346142479335,-243.09744578829213" stroke="#0d6d4d" stroke-width="0.1" fill="none" />
<path d="M141.14055115397264,-200.26069214889085 L78.49761921198599,-232.08430317031363" stroke="#0d6d4d" stroke-width="0.1" fill="none" />
<path d="M143.05505853458018,-198.89758728468234 L123.34707428972925,-211.6849056124787" stroke="#0d6d4d" stroke-width="0.1" fill="none" />
<path d="M144.95640224399307,-197.5161802194384 L163.20796672211688,-182.72427205610202" stroke="#0d6d4d" stroke-width="0.1" fill="none" />
<path d="M146.8444073239562,-196.11659806777203 L196.4681905054697,-146.37366607250934" stroke="#0d6d4d" stroke-width="0.1" fill="none" />
<path d="M148.71890004361137,-194.69896961673507 L221.7825924539725,-104.10322609984348" stroke="#0d6d4d" stroke-width="0.1" fill="none" />
<path d="M150.57970791548374,-193.26342531396782 L238.12737463259538,-57.622508194173335" stroke="#0d6d4d" stroke-width="0.1" fill="none" />
<path d="M152.4266597113536,-191.8100972556951 L244.8415001234197,-8.81134594221938" stroke="#0d6d4d" stroke-width="0.1" fill="none" />
<path d="M154.25958547801278,-190.33911917457132 L241.65342753956932,40.3561762110599" stroke="#0d6d4d" stroke-width="0.1" fill="none" />
<path d="M156.0783165529032,-188.85062642737444 L228.69209305479666,87.89156145055235" stroke="#0d6d4d" stroke-width="0.1" fill="none" />
<path d="M157.88268557963696,-187.3447559825508 L206.48169579921506,131.87232196287596" stroke="#0d6d4d" stroke-width="0.1" fill="none" />
<path d="M159.6725265233963,-185.82164640761124 L175.9204975169778,170.51973068644875" stroke="#0d6d4d" stroke-width="0.1" fill="none" />
<path d="M161.44767468621163,-184.2814378563809 L138.24449389769458,202.27075890244313" stroke="#0d6d4d" stroke-width="0.1" fill="none" />
<path d="M163.20796672211688,-182.72427205610202 L94.97742683280234,225.84129027310235" stroke="#0d6d4d" stroke-width="0.1" fill="none" />
<path d="M164.9532406521803,-181.1502922943926 L47.86915926616824,240.2780547431459" stroke="#0d6d4d" stroke-width="0.1" fill="none" />
<path d="M166.68333587940938,-179.55964340606155 L-1.1750950367129174,244.9971819259452" stroke="#0d6d4d" stroke-width="0.1" fill="none" />
<path d="M168.39809320352882,-177.9524717597809 L-50.171824619298576,239.80781474833205" stroke="#0d6d4d" stroke-width="0.1" fill="none" />
<path d="M170.09735483562974,-176.3289252446174 L-97.139440081534,224.91982834033567" stroke="#0d6d4d" stroke-width="0.1" fill="none" />
<path d="M171.78096441268914,-174.68915325642408 L-140.17841609308226,200.93534199247952" stroke="#0d6d4d" stroke-width="0.1" fill="none" />
<path d="M173.44876701195835,-173.03330668409302 L-177.54811446481773,168.82436746509072" stroke="#0d6d4d" stroke-width="0.1" fill="none" />
<path d="M175.1006091652185,-171.36153789567078 L-207.73718130011278,129.8855785123355" stroke="#0d6d4d" stroke-width="0.1" fill="none" />
<path d="M176.73633887290234,-169.67400072433793 L-229.5246711328513,85.6937882308657" stroke="#0d6d4d" stroke-width="0.1" fill="none" />
<path d="M178.35580561808138,-167.97085045425345 L-242.02942599036558,38.03625842238103" stroke="#0d6d4d" stroke-width="0.1" fill="none" />
<path d="M179.95886038031574,-166.25224380626574 L-244.7457123290693,-11.159583170372139" stroke="#0d6d4d" stroke-width="0.1" fill="none" />
<path d="M181.54535564936694,-164.51833892349168 L-237.56367456753608,-59.90409440071524" stroke="#0d6d4d" stroke-width="0.1" fill="none" />
<path d="M183.11514543877155,-162.76929535676422 L-220.7737780086606,-106.22588641090579" stroke="#0d6d4d" stroke-width="0.1" fill="none" />
<path d="M184.66808529927457,-161.00527404995108 L-195.05506146447195,-148.25155310178397" stroke="#0d6d4d" stroke-width="0.1" fill="none" />
<path d="M186.2040323321213,-159.22643732514499 L-161.44767468621168,-184.28143785638085" stroke="#0d6d4d" stroke-width="0.1" fill="none" />
<path d="M187.72284520220688,-157.4329488677268 L-121.31081127660977,-212.8583732612151" stroke="#0d6d4d" stroke-width="0.1" fill="none" />
<path d="M189.2243841510813,-155.62497371130382 L-76.26773841617961,-232.8266137641511" stroke="#0d6d4d" stroke-width="0.1" fill="none" />
<path d="M190.70851100981017,-153.8026782225235 L-28.140146582765738,-243.37857783769806" stroke="#0d6d4d" stroke-width="0.1" fill="none" />
<path d="M192.17508921168852,-151.96623008576464 L21.125525621714623,-244.087509240449" stroke="#0d6d4d" stroke-width="0.1" fill="none" />
<path d="M193.62398380480735,-150.11579828770755 L69.53681187025043,-234.92473644748736" stroke="#0d6d4d" stroke-width="0.1" fill="none" />
<path d="M195.05506146447186,-148.25155310178408 L115.13580002277916,-216.26083222145107" stroke="#0d6d4d" stroke-width="0.1" fill="none" />
<path d="M196.4681905054697,-146.37366607250934 L156.0783165529032,-188.85062642737444" stroke="#0d6d4d" stroke-width="0.1" fill="none" />
<path d="M197.8632408941883,-144.48230999969655 L190.70851100981017,-153.8026782225235" stroke="#0d6d4d" stroke-width="0.1" fill="none" />
<path d="M199.24008426058046,-142.57765892255628 L217.62582407367924,-112.53444226658792" stroke="#0d6d4d" stroke-width="0.1" fill="none" />
<path d="M200.59859390997673,-140.65988810368168 L235.74163079546332,-66.71494217861144" stroke="#0d6d4d" stroke-width="0.1" fill="none" />
<path d="M201.93864483474346,-138.72917401292108 L244.3232681815473,-18.197269715199933" stroke="#0d6d4d" stroke-width="0.1" fill="none" />
<path d="M203.26011372578603,-136.78569431113962 L243.02366650249718,31.056360374052606" stroke="#0d6d4d" stroke-width="0.1" fill="none" />
<path d="M204.56287898389525,-134.82962783387126 L231.89538593801157,79.0539687850058" stroke="#0d6d4d" stroke-width="0.1" fill="none" />
<path d="M205.84682073093703,-132.86115457486235 L211.38849086984166,123.85437387420306" stroke="#0d6d4d" stroke-width="0.1" fill="none" />
<path d="M207.11182082088308,-130.88045566950944 L182.33234779328833,163.64569944910664" stroke="#0d6d4d" stroke-width="0.1" fill="none" />
<path d="M208.35776285068255,-128.88771337819105 L145.9020829997896,196.8186530192769" stroke="#0d6d4d" stroke-width="0.1" fill="none" />
<path d="M209.58453217097338,-126.88311106949669 L103.57105659258036,222.031610894252" stroke="#0d6d4d" stroke-width="0.1" fill="none" />
<path d="M210.7920158966319,-124.86683320335341 L57.05127494303641,238.26487787203146" stroke="#0d6d4d" stroke-width="0.1" fill="none" />
<path d="M211.98010291716065,-122.83906531405219 L8.224151504564102,244.86192707734287" stroke="#0d6d4d" stroke-width="0.1" fill="none" />
<path d="M213.1486839069121,-120.79999399317562 L-40.935583754834425,241.55595207456787" stroke="#0d6d4d" stroke-width="0.1" fill="none" />
<path d="M214.29765133514903,-118.7498068724278 L-88.43974894772653,228.48065740027778" stroke="#0d6d4d" stroke-width="0.1" fill="none" />
<path d="M215.4268994759391,-116.6886926063688 L-132.36711890241997,206.16485111064063" stroke="#0d6d4d" stroke-width="0.1" fill="none" />
<path d="M216.5363244178836,-114.61684085505526 L-170.94112584763553,175.5110580389248" stroke="#0d6d4d" stroke-width="0.1" fill="none" />
<path d="M217.62582407367924,-112.53444226658792 L-202.60170967463822,137.759018713526" stroke="#0d6d4d" stroke-width="0.1" fill="none" />
<path d="M218.69529818951204,-110.44168845956865 L-226.06841191516656,94.4355501607026" stroke="#0d6d4d" stroke-width="0.1" fill="none" />
<path d="M219.7446483542823,-108.33877200546819 L-240.39216170652804,47.29279638657965" stroke="#0d6d4d" stroke-width="0.1" fill="none" />
<path d="M220.77377800866054,-106.22588641090587 L-244.99365934857101,-1.762634107335956" stroke="#0d6d4d" stroke-width="0.1" fill="none" />
<path d="M221.7825924539725,-104.10322609984348 L-239.68680509485267,-50.74677786246251" stroke="#0d6d4d" stroke-width="0.1" fill="none" />
<path d="M222.7709988609133,-101.97098639569481 L-224.6862256403869,-97.67855449113249" stroke="#0d6d4d" stroke-width="0.1" fill="none" />
<path d="M223.73890627808916,-99.82936350335223 L-200.59859390997676,-140.65988810368165" stroke="#0d6d4d" stroke-width="0.1" fill="none" />
<path d="M224.6862256403869,-97.67855449113249 L-168.39809320352882,-177.9524717597809" stroke="#0d6d4d" stroke-width="0.1" fill="none" />
<path d="M225.61286977716935,-95.51875727264266 L-129.38701800926623,-208.04807033632832" stroke="#0d6d4d" stroke-width="0.1" fill="none" />
<path d="M226.51875342029666,-93.35017058856846 L-85.14310491794164,-229.72951853197355" stroke="#0d6d4d" stroke-width="0.1" fill="none" />
<path d="M227.4037932119727,-91.17299398838654 L-37.4557237496563,-242.1199470477173" stroke="#0d6d4d" stroke-width="0.1" fill="none" />
<path d="M228.26790771241514,-88.98742781200234 L11.746490465365497,-244.71824607443367" stroke="#0d6d4d" stroke-width="0.1" fill="none" />
<path d="M229.1110174073498,-86.79367317131504 L60.47363785057398,-237.41933182687046" stroke="#0d6d4d" stroke-width="0.1" fill="none" />
<path d="M229.93304471532716,-84.59193193171184 L106.75503179941371,-220.5183964786298" stroke="#0d6d4d" stroke-width="0.1" fill="none" />
<path d="M230.73391399486118,-82.38240669349251 L148.71890004361137,-194.69896961673507" stroke="#0d6d4d" stroke-width="0.1" fill="none" />
<path d="M231.5135515513901,-80.16530077322633 L184.66808529927457,-161.00527404995108" stroke="#0d6d4d" stroke-width="0.1" fill="none" />
<path d="M232.2718856440572,-77.94081818504355 L213.1486839069121,-120.79999399317562" stroke="#0d6d4d" stroke-width="0.1" fill="none" />
<path d="M233.0088464923126,-75.70916362186213 L233.0088464923126,-75.70916362186213" stroke="#0d6d4d" stroke-width="0.1" fill="none" />
<path d="M233.72436628233427,-73.47054243655246 L243.44536255555374,-27.556404885162344" stroke="#0d6d4d" stroke-width="0.1" fill="none" />
<path d="M234.41837917326788,-71.22516062304109 L244.0361449536648,21.710825782404054" stroke="#0d6d4d" stroke-width="0.1" fill="none" />
<path d="M235.09082130328585,-68.97322479735544 L234.7573004972879,70.099999024437" stroke="#0d6d4d" stroke-width="0.1" fill="none" />
<path d="M235.74163079546332,-66.71494217861144 L215.9840962700867,115.65409702381461" stroke="#0d6d4d" stroke-width="0.1" fill="none" />
<path d="M236.37074776347225,-64.45052056994552 L188.47578258975793,156.53076176003972" stroke="#0d6d4d" stroke-width="0.1" fill="none" />
<path d="M236.97811431709198,-62.180168339393255 L153.34488642017652,191.07680604611113" stroke="#0d6d4d" stroke-width="0.1" fill="none" />
<path d="M237.5636745675361,-59.904094400715145 L112.01221711039764,217.8950738727545" stroke="#0d6d4d" stroke-width="0.1" fill="none" />
<path d="M238.12737463259538,-57.622508194173335 L66.14940417688048,235.90094600709787" stroke="#0d6d4d" stroke-width="0.1" fill="none" />
<path d="M238.66916264159573,-55.33561966725887 L17.611291090607345,244.3662055729513" stroke="#0d6d4d" stroke-width="0.1" fill="none" />
<path d="M239.18898874017145,-53.04363925537286 L-31.639080712599057,242.94848954389826" stroke="#0d6d4d" stroke-width="0.1" fill="none" />
<path d="M239.68680509485264,-50.74677786246257 L-79.60986370443638,231.70513503364802" stroke="#0d6d4d" stroke-width="0.1" fill="none" />
<path d="M240.16256589746672,-48.44524684161451 L-124.36096114990252,211.090860393984" stroke="#0d6d4d" stroke-width="0.1" fill="none" />
<path d="M240.61622736935362,-46.13925797560604 L-164.08249102025385,181.9393749043574" stroke="#0d6d4d" stroke-width="0.1" fill="none" />
<path d="M241.0477477653943,-43.829023457417364 L-197.16798359362082,145.4296608179558" stroke="#0d6d4d" stroke-width="0.1" fill="none" />
<path d="M241.45708737785205,-41.51475587070606 L-222.2793523908139,103.0382914295476" stroke="#0d6d4d" stroke-width="0.1" fill="none" />
<path d="M241.84420854002616,-39.19666817024543 L-238.40101080731262,56.47971357975899" stroke="#0d6d4d" stroke-width="0.1" fill="none" />
<path d="M242.20907562971817,-36.874973662329005 L-244.88094578629492,7.636909768334576" stroke="#0d6d4d" stroke-width="0.1" fill="none" />
<path d="M242.55165507250962,-34.54988598514207 L-241.45708737785208,-41.51475587070584" stroke="#0d6d4d" stroke-width="0.1" fill="none" />
<path d="M242.87191534485152,-32.22161908910349 L-228.26790771241514,-88.98742781200234" stroke="#0d6d4d" stroke-width="0.1" fill="none" />
<path d="M243.16982697696514,-29.890387217178045 L-205.84682073093714,-132.8611545748622" stroke="#0d6d4d" stroke-width="0.1" fill="none" />
<path d="M243.44536255555374,-27.556404885162344 L-175.1006091652184,-171.36153789567084" stroke="#0d6d4d" stroke-width="0.1" fill="none" />
<path d="M243.69849672632506,-25.219886861945366 L-137.27275125247064,-202.9314952479711" stroke="#0d6d4d" stroke-width="0.1" fill="none" />
<path d="M243.92920619632451,-22.88104814974599 L-93.89313037277341,-226.29423339714464" stroke="#0d6d4d" stroke-width="0.1" fill="none" />
<path d="M244.13746973607834,-20.54010396432874 L-46.716161517615355,-240.5048861313634" stroke="#0d6d4d" stroke-width="0.1" fill="none" />
<path d="M244.3232681815473,-18.197269715199933 L2.3501630407333853,-244.98872776860975" stroke="#0d6d4d" stroke-width="0.1" fill="none" />
<path d="M244.48658443588994,-15.85276098578622 L51.32143925178227,-239.56441695945918" stroke="#0d6d4d" stroke-width="0.1" fill="none" />
<path d="M244.62740347103602,-13.506793513596895 L98.21710713380051,-224.45133072955383" stroke="#0d6d4d" stroke-width="0.1" fill="none" />
<path d="M244.74571232906928,-11.159583170372308 L141.14055115397264,-200.26069214889085" stroke="#0d6d4d" stroke-width="0.1" fill="none" />
<path d="M244.8415001234197,-8.81134594221938 L178.35580561808138,-167.97085045425345" stroke="#0d6d4d" stroke-width="0.1" fill="none" />
<path d="M244.91475803986538,-6.462297909737359 L208.35776285068255,-128.88771337819105" stroke="#0d6d4d" stroke-width="0.1" fill="none" />
<path d="M244.96547933734357,-4.112655228134102 L229.93304471532716,-84.59193193171184" stroke="#0d6d4d" stroke-width="0.1" fill="none" />
<path d="M244.99365934857101,-1.7626341073360705 L242.20907562971817,-36.874973662329005" stroke="#0d6d4d" stroke-width="0.1" fill="none" />
<path d="M244.99929548047334,0.5875492079070296 L244.68937240116225,12.333330204179909" stroke="#0d6d4d" stroke-width="0.1" fill="none" />
<path d="M244.98238721442377,2.937678457920486 L237.27362364493726,61.0428335056678" stroke="#0d6d4d" stroke-width="0.1" fill="none" />
<path d="M244.9429361062908,5.287537388004843 L220.26174670764962,107.28356322053816" stroke="#0d6d4d" stroke-width="0.1" fill="none" />
<path d="M244.88094578629492,7.6369097683346245 L194.34175802021528,149.1853916763035" stroke="#0d6d4d" stroke-width="0.1" fill="none" />
<path d="M244.7964219586748,9.985579413856119 L160.56194744340914,185.05367068280466" stroke="#0d6d4d" stroke-width="0.1" fill="none" />
<path d="M244.68937240116225,12.333330204179909 L120.28848196725517,213.43776869620177" stroke="#0d6d4d" stroke-width="0.1" fill="none" />
<path d="M244.55980696426644,14.67994610346799 L75.15015341053149,233.18973914470075" stroke="#0d6d4d" stroke-width="0.1" fill="none" />
<path d="M244.40773757036771,17.025211180313068 L26.97250470571951,243.5107471753556" stroke="#0d6d4d" stroke-width="0.1" fill="none" />
<path d="M244.23317821262032,19.368909627607945 L-22.296001080230557,243.983377171131" stroke="#0d6d4d" stroke-width="0.1" fill="none" />
<path d="M244.0361449536648,21.710825782404054 L-70.66278302092456,234.5885144156417" stroke="#0d6d4d" stroke-width="0.1" fill="none" />
<path d="M243.81665592415004,24.050744145756138 L-116.17172887734243,215.70611815534866" stroke="#0d6d4d" stroke-width="0.1" fill="none" />
<path d="M243.5747313210649,26.388449402552144 L-156.98230673061977,188.09985479402587" stroke="#0d6d4d" stroke-width="0.1" fill="none" />
<path d="M243.31039340587952,28.7237264413262 L-191.44400216534294,152.886212703815" stroke="#0d6d4d" stroke-width="0.1" fill="none" />
<path d="M243.02366650249718,31.056360374052606 L-218.16307051808036,111.4893477518059" stroke="#0d6d4d" stroke-width="0.1" fill="none" />
<path d="M242.71457699501588,33.38613655591961 L-236.0589045099747,65.58348573803198" stroke="#0d6d4d" stroke-width="0.1" fill="none" />
<path d="M242.38315332530047,35.71284060508057 L-244.40773757036774,17.025211180312965" stroke="#0d6d4d" stroke-width="0.1" fill="none" />
<path d="M242.02942599036558,38.03625842238108 L-242.87191534485154,-32.22161908910338" stroke="#0d6d4d" stroke-width="0.1" fill="none" />
<path d="M241.65342753956932,40.3561762110599 L-231.51355155139012,-80.16530077322625" stroke="#0d6d4d" stroke-width="0.1" fill="none" />
<path d="M241.25519257161815,42.67238049642223 L-210.79201589663197,-124.86683320335327" stroke="#0d6d4d" stroke-width="0.1" fill="none" />
<path d="M240.83475773138318,44.98465814548304 L-181.545355649367,-164.5183389234916" stroke="#0d6d4d" stroke-width="0.1" fill="none" />
<path d="M240.39216170652807,47.29279638657954 L-144.9564022439931,-197.51618021943838" stroke="#0d6d4d" stroke-width="0.1" fill="none" />
<path d="M239.92744522394915,49.59658282894982 L-102.50493367477365,-222.52581551885223" stroke="#0d6d4d" stroke-width="0.1" fill="none" />
<path d="M239.44065104602788,51.89580548227672 L-55.907827391492866,-238.53577265551397" stroke="#0d6d4d" stroke-width="0.1" fill="none" />
<path d="M238.9318239666958,54.19025277619491 L-7.049624110864113,-244.89855614089586" stroke="#0d6d4d" stroke-width="0.1" fill="none" />
<path d="M238.40101080731267,56.47971357975878 L42.093689227751916,-241.35683401801043" stroke="#0d6d4d" stroke-width="0.1" fill="none" />
<path d="M237.84826041235817,58.763977220871055 L89.53459489357985,-228.0538452147706" stroke="#0d6d4d" stroke-width="0.1" fill="none" />
<path d="M237.27362364493726,61.0428335056678 L133.35442613891504,-205.52760648915427" stroke="#0d6d4d" stroke-width="0.1" fill="none" />
<path d="M236.6771533820997,63.31607273786053 L171.78096441268914,-174.68915325642408" stroke="#0d6d4d" stroke-width="0.1" fill="none" />
<path d="M236.05890450997475,65.58348573803181 L203.26011372578603,-136.78569431113962" stroke="#0d6d4d" stroke-width="0.1" fill="none" />
<path d="M235.41893391872023,67.84486386288384 L226.51875342029666,-93.35017058856846" stroke="#0d6d4d" stroke-width="0.1" fill="none" />
<path d="M234.7573004972879,70.099999024437 L240.61622736935362,-46.13925797560604" stroke="#0d6d4d" stroke-width="0.1" fill="none" />
<path d="M234.0740651280045,72.34868370917822 L244.98238721442377,2.937678457920486" stroke="#0d6d4d" stroke-width="0.1" fill="none" />
<path d="M233.36929068096939,74.59071099715577 L239.44065104602788,51.89580548227672" stroke="#0d6d4d" stroke-width="0.1" fill="none" />
<path d="M232.6430420082695,76.82587458101965 L224.21514495875928,98.75509491222496" stroke="#0d6d4d" stroke-width="0.1" fill="none" />
<path d="M231.89538593801157,79.0539687850058 L199.9216386525557,141.62040247957543" stroke="#0d6d4d" stroke-width="0.1" fill="none" />
<path d="M231.12639126817302,81.27478858386151 L167.5426416744144,178.75811372007365" stroke="#0d6d4d" stroke-width="0.1" fill="none" />
<path d="M230.33612876027107,83.48812962171228 L128.3876674907012,208.66625706207782" stroke="#0d6d4d" stroke-width="0.1" fill="none" />
<path d="M229.52467113285132,85.69378823086556 L84.04027244207114,230.13524851239643" stroke="#0d6d4d" stroke-width="0.1" fill="none" />
<path d="M228.69209305479666,87.89156145055235 L36.294011500397886,242.2968112237736" stroke="#0d6d4d" stroke-width="0.1" fill="none" />
<path d="M227.838471138456,90.08124704560302 L-12.920099011794656,244.6590914753127" stroke="#0d6d4d" stroke-width="0.1" fill="none" />
<path d="M226.96388393259463,92.26264352505684 L-61.61167809245003,237.1265508597304" stroke="#0d6d4d" stroke-width="0.1" fill="none" />
<path d="M226.0684119151666,94.43555016070252 L-107.81147763459987,220.003830171759" stroke="#0d6d4d" stroke-width="0.1" fill="none" />
<path d="M225.15213748590887,96.59976700554917 L-149.65102531698315,193.98342872930067" stroke="#0d6d4d" stroke-width="0.1" fill="none" />
<path d="M224.21514495875928,98.75509491222496 L-185.43819178940015,160.11769741623706" stroke="#0d6d4d" stroke-width="0.1" fill="none" />
<path d="M223.25752055409802,100.90133555130234 L-213.72562596650556,119.77627814064589" stroke="#0d6d4d" stroke-width="0.1" fill="none" />
<path d="M222.27935239081387,103.03829142954764 L-233.36929068096936,74.59071099715587" stroke="#0d6d4d" stroke-width="0.1" fill="none" />
<path d="M221.28073047819564,105.16576590809453 L-243.57473132106486,26.388449402552254" stroke="#0d6d4d" stroke-width="0.1" fill="none" />
<path d="M220.26174670764962,107.28356322053816 L-243.92920619632451,-22.881048149745986" stroke="#0d6d4d" stroke-width="0.1" fill="none" />
<path d="M219.2224948442439,109.39148849094916 L-234.41837917326794,-71.22516062304089" stroke="#0d6d4d" stroke-width="0.1" fill="none" />
<path d="M218.16307051808033,111.48934775180592 L-215.4268994759391,-116.6886926063688" stroke="#0d6d4d" stroke-width="0.1" fill="none" />
<path d="M217.0835712154948,113.57694796184303 L-187.722845202207,-157.43294886772665" stroke="#0d6d4d" stroke-width="0.1" fill="none" />
<path d="M215.9840962700867,115.65409702381461 L-152.4266597113536,-191.81009725569513" stroke="#0d6d4d" stroke-width="0.1" fill="none" />
<path d="M214.8647468535784,117.72060380217081 L-110.96583719792866,-218.42981246835973" stroke="#0d6d4d" stroke-width="0.1" fill="none" />
<path d="M213.72562596650565,119.77627814064572 L-65.01719011676416,-236.21550539564618" stroke="#0d6d4d" stroke-width="0.1" fill="none" />
<path d="M212.5668384287396,121.82093087975528 L-16.43903335496812,-244.44786393493857" stroke="#0d6d4d" stroke-width="0.1" fill="none" />
<path d="M211.38849086984166,123.85437387420306 L32.80397215328269,-242.793944345749" stroke="#0d6d4d" stroke-width="0.1" fill="none" />
<path d="M210.1906917192512,125.87642001019378 L80.72027679695698,-231.3206365930689" stroke="#0d6d4d" stroke-width="0.1" fill="none" />
<path d="M208.97355119630862,127.88688322265023 L125.37198712519405,-210.49195909649416" stroke="#0d6d4d" stroke-width="0.1" fill="none" />
<path d="M207.73718130011278,129.88557851233554 L164.9532406521803,-181.1502922943926" stroke="#0d6d4d" stroke-width="0.1" fill="none" />
<path d="M206.48169579921506,131.87232196287596 L197.8632408941883,-144.48230999969655" stroke="#0d6d4d" stroke-width="0.1" fill="none" />
<path d="M205.20721022115077,133.84693075768465 L222.7709988609133,-101.97098639569481" stroke="#0d6d4d" stroke-width="0.1" fill="none" />
<path d="M203.91384184180845,135.80922319678413 L238.66916264159573,-55.33561966725887" stroke="#0d6d4d" stroke-width="0.1" fill="none" />
<path d="M202.60170967463822,137.759018713526 L244.91475803986538,-6.462297909737359" stroke="#0d6d4d" stroke-width="0.1" fill="none" />
<path d="M201.2709344597005,139.69613789120638 L241.25519257161815,42.67238049642223" stroke="#0d6d4d" stroke-width="0.1" fill="none" />
<path d="M199.9216386525557,141.62040247957543 L227.838471138456,90.08124704560302" stroke="#0d6d4d" stroke-width="0.1" fill="none" />
<path d="M198.5539464129961,143.53163541123985 L205.20721022115077,133.84693075768465" stroke="#0d6d4d" stroke-width="0.1" fill="none" />
<path d="M197.16798359362085,145.42966081795575 L174.2766926788986,172.19940298649334" stroke="#0d6d4d" stroke-width="0.1" fill="none" />
<path d="M195.7638777282552,147.3143040468126 L136.29785069068538,203.58756321813874" stroke="#0d6d4d" stroke-width="0.1" fill="none" />
<path d="M194.34175802021528,149.1853916763035 L92.80667393074727,226.74197069336756" stroke="#0d6d4d" stroke-width="0.1" fill="none" />
<path d="M192.90175533041864,151.04275153228406 L45.56208907842791,240.72618478015514" stroke="#0d6d4d" stroke-width="0.1" fill="none" />
<path d="M191.44400216534305,152.88621270381486 L-3.5251769799905723,244.9746377224788" stroke="#0d6d4d" stroke-width="0.1" fill="none" />
<path d="M189.96863266483328,154.7156055588887 L-52.46987325066248,239.31550806635875" stroke="#0d6d4d" stroke-width="0.1" fill="none" />
<path d="M188.47578258975793,156.53076176003972 L-99.29251473234157,223.97766968635005" stroke="#0d6d4d" stroke-width="0.1" fill="none" />
<path d="M186.96558930951667,158.33151427983356 L-142.099439320779,199.58143537092886" stroke="#0d6d4d" stroke-width="0.1" fill="none" />
<path d="M185.43819178940026,160.11769741623695 L-179.15939375201162,167.11346932671722" stroke="#0d6d4d" stroke-width="0.1" fill="none" />
<path d="M183.89373057780267,161.8891468078652 L-208.9735511963085,127.8868832226504" stroke="#0d6d4d" stroke-width="0.1" fill="none" />
<path d="M182.33234779328833,163.64569944910664 L-230.3361287602711,83.48812962171223" stroke="#0d6d4d" stroke-width="0.1" fill="none" />
<path d="M180.75418711151482,165.38719370512183 L-242.38315332530044,35.71284060508074" stroke="#0d6d4d" stroke-width="0.1" fill="none" />
<path d="M179.15939375201162,167.11346932671722 L-244.62740347103602,-13.506793513596945" stroke="#0d6d4d" stroke-width="0.1" fill="none" />
<path d="M177.5481144648178,168.82436746509066 L-236.97811431709204,-62.18016833939309" stroke="#0d6d4d" stroke-width="0.1" fill="none" />
<path d="M175.9204975169778,170.51973068644875 L-219.74464835428225,-108.33877200546829" stroke="#0d6d4d" stroke-width="0.1" fill="none" />
<path d="M174.2766926788986,172.19940298649334 L-193.62398380480744,-150.11579828770743" stroke="#0d6d4d" stroke-width="0.1" fill="none" />
<path d="M172.61685121056792,173.86322980477686 L-159.67252652339639,-185.82164640761118" stroke="#0d6d4d" stroke-width="0.1" fill="none" />
<path d="M170.9411258476356,175.51105803892474 L-119.2633854591241,-214.01225406230455" stroke="#0d6d4d" stroke-width="0.1" fill="none" />
<path d="M169.24967078735904,177.14273605872353 L-74.0308395991892,-233.54750006848525" stroke="#0d6d4d" stroke-width="0.1" fill="none" />
<path d="M167.5426416744144,178.75811372007365 L-25.8042423346676,-243.63731462469732" stroke="#0d6d4d" stroke-width="0.1" fill="none" />
<path d="M165.82019558657433,180.3570423788055 L23.465963626239205,-243.87363234079248" stroke="#0d6d4d" stroke-width="0.1" fill="none" />
<path d="M164.0824910202539,181.93937490435735 L71.78712859645196,-234.24689574864482" stroke="#0d6d4d" stroke-width="0.1" fill="none" />
<path d="M162.32968787592645,183.50496569331386 L117.20498523774219,-215.1464418376949" stroke="#0d6d4d" stroke-width="0.1" fill="none" />
<path d="M160.56194744340914,185.05367068280466 L157.88268557963696,-187.3447559825508" stroke="#0d6d4d" stroke-width="0.1" fill="none" />
<path d="M158.7794323870221,186.58534736376023 L192.17508921168852,-151.96623008576464" stroke="#0d6d4d" stroke-width="0.1" fill="none" />
<path d="M156.9823067306197,188.0998547940259 L218.69529818951204,-110.44168845956865" stroke="#0d6d4d" stroke-width="0.1" fill="none" />
<path d="M155.17073584249778,189.5970536113306 L236.37074776347225,-64.45052056994552" stroke="#0d6d4d" stroke-width="0.1" fill="none" />
<path d="M153.34488642017652,191.07680604611113 L244.48658443588994,-15.85276098578622" stroke="#0d6d4d" stroke-width="0.1" fill="none" />
<path d="M151.50492647506147,192.53897593418904 L242.71457699501588,33.38613655591961" stroke="#0d6d4d" stroke-width="0.1" fill="none" />
<path d="M149.6510253169832,193.98342872930064 L231.12639126817302,81.27478858386151" stroke="#0d6d4d" stroke-width="0.1" fill="none" />
<path d="M147.7833535386179,195.4100315154774 L210.1906917192512,125.87642001019378" stroke="#0d6d4d" stroke-width="0.1" fill="none" />
<path d="M145.9020829997896,196.8186530192769 L180.75418711151482,165.38719370512183" stroke="#0d6d4d" stroke-width="0.1" fill="none" />
<path d="M144.00738681165595,198.2091636218621 L144.00738681165595,198.2091636218621" stroke="#0d6d4d" stroke-width="0.1" fill="none" />
<path d="M142.0994393207791,199.58143537092874 L101.4364526631378,223.01490100690359" stroke="#0d6d4d" stroke-width="0.1" fill="none" />
<path d="M140.1784160930822,200.93534199247955 L54.76309369792635,238.80117999840817" stroke="#0d6d4d" stroke-width="0.1" fill="none" />
<path d="M138.24449389769458,202.27075890244313 L5.8749345427736195,244.92955139002342" stroke="#0d6d4d" stroke-width="0.1" fill="none" />
<path d="M136.29785069068538,203.58756321813874 L-43.250826348559336,241.15216362323346" stroke="#0d6d4d" stroke-width="0.1" fill="none" />
<path d="M134.33866559868858,204.8856337695831 L-90.62738112417708,227.6217867221263" stroke="#0d6d4d" stroke-width="0.1" fill="none" />
<path d="M132.36711890242,206.1648511106406 L-134.33866559868852,204.88563376958314" stroke="#0d6d4d" stroke-width="0.1" fill="none" />
<path d="M130.38339202008837,207.42509753001434 L-172.6168512105679,173.86322980477692" stroke="#0d6d4d" stroke-width="0.1" fill="none" />
<path d="M128.3876674907012,208.66625706207782 L-203.91384184180836,135.8092231967843" stroke="#0d6d4d" stroke-width="0.1" fill="none" />
<path d="M126.38012895726827,209.88821549754584 L-226.96388393259465,92.26264352505675" stroke="#0d6d4d" stroke-width="0.1" fill="none" />
<path d="M124.36096114990266,211.0908603939839 L-240.83475773138315,44.98465814548315" stroke="#0d6d4d" stroke-width="0.1" fill="none" />
<path d="M122.33034986882288,212.2740810861547 L-244.96547933734357,-4.112655228133987" stroke="#0d6d4d" stroke-width="0.1" fill="none" />
<path d="M120.28848196725517,213.43776869620177 L-239.18898874017148,-53.04363925537275" stroke="#0d6d4d" stroke-width="0.1" fill="none" />
<path d="M118.23554533423984,214.58181614366794 L-223.7389062780892,-99.82936350335217" stroke="#0d6d4d" stroke-width="0.1" fill="none" />
<path d="M116.17172887734249,215.70611815534863 L-199.2400842605805,-142.57765892255622" stroke="#0d6d4d" stroke-width="0.1" fill="none" />
<path d="M114.09722250527034,216.8105712749792 L-166.6833358794094,-179.55964340606155" stroke="#0d6d4d" stroke-width="0.1" fill="none" />
<path d="M112.01221711039764,217.8950738727545 L-127.38536345413858,-209.27964348607105" stroke="#0d6d4d" stroke-width="0.1" fill="none" />
<path d="M109.91690455120002,218.9595261546809 L-82.93550664610802,-230.5356843036526" stroke="#0d6d4d" stroke-width="0.1" fill="none" />
<path d="M107.81147763459991,220.00383017175898 L-35.13146431879543,-242.46810143772976" stroke="#0d6d4d" stroke-width="0.1" fill="none" />
<path d="M105.69613009822493,221.0278898289967 L14.093410335400936,-244.59430857057572" stroke="#0d6d4d" stroke-width="0.1" fill="none" />
<path d="M103.57105659258036,222.031610894252 L62.7483009770077,-236.82831487070726" stroke="#0d6d4d" stroke-width="0.1" fill="none" />
<path d="M101.4364526631378,223.01490100690359 L108.8654433005784,-219.48420274582077" stroke="#0d6d4d" stroke-width="0.1" fill="none" />
<path d="M99.29251473234162,223.97766968635003 L150.57970791548374,-193.26342531396782" stroke="#0d6d4d" stroke-width="0.1" fill="none" />
<path d="M97.13944008153415,224.9198283403356 L186.2040323321213,-159.22643732514499" stroke="#0d6d4d" stroke-width="0.1" fill="none" />
<path d="M94.97742683280234,225.84129027310235 L214.29765133514903,-118.7498068724278" stroke="#0d6d4d" stroke-width="0.1" fill="none" />
<path d="M92.80667393074727,226.74197069336756 L233.72436628233427,-73.47054243655246" stroke="#0d6d4d" stroke-width="0.1" fill="none" />
<path d="M90.62738112417703,227.6217867221263 L243.69849672632506,-25.219886861945366" stroke="#0d6d4d" stroke-width="0.1" fill="none" />
<path d="M88.43974894772659,228.48065740027775 L243.81665592415004,24.050744145756138" stroke="#0d6d4d" stroke-width="0.1" fill="none" />
<path d="M86.24397870340482,229.31850369607474 L234.0740651280045,72.34868370917822" stroke="#0d6d4d" stroke-width="0.1" fill="none" />
<path d="M84.04027244207114,230.13524851239643 L214.8647468535784,117.72060380217081" stroke="#0d6d4d" stroke-width="0.1" fill="none" />
<path d="M81.82883294484301,230.93081669384225 L186.96558930951667,158.33151427983356" stroke="#0d6d4d" stroke-width="0.1" fill="none" />
<path d="M79.60986370443652,231.70513503364796 L151.50492647506147,192.53897593418904" stroke="#0d6d4d" stroke-width="0.1" fill="none" />
<path d="M77.38356890644117,232.45813228042178 L109.91690455120002,218.9595261546809" stroke="#0d6d4d" stroke-width="0.1" fill="none" />
<path d="M75.15015341053149,233.18973914470075 L63.88348035659425,236.52463072062628" stroke="#0d6d4d" stroke-width="0.1" fill="none" />
<path d="M72.90982273161562,233.89988830532687 L15.266397444525483,244.5238988505332" stroke="#0d6d4d" stroke-width="0.1" fill="none" />
<path d="M70.66278302092451,234.58851441564173 L-33.96810894888202,242.6338137491081" stroke="#0d6d4d" stroke-width="0.1" fill="none" />
<path d="M68.40924104704256,235.25555410949946 L-81.82883294484296,230.93081669384227" stroke="#0d6d4d" stroke-width="0.1" fill="none" />
<path d="M66.14940417688048,235.90094600709787 L-126.38012895726813,209.88821549754593" stroke="#0d6d4d" stroke-width="0.1" fill="none" />
<path d="M63.88348035659425,236.52463072062628 L-165.8201955865741,180.3570423788057" stroke="#0d6d4d" stroke-width="0.1" fill="none" />
<path d="M61.61167809245008,237.12655085973037 L-198.55394641299605,143.5316354112399" stroke="#0d6d4d" stroke-width="0.1" fill="none" />
<path d="M59.334206431638165,237.70665103679312 L-223.25752055409802,100.90133555130234" stroke="#0d6d4d" stroke-width="0.1" fill="none" />
<path d="M57.05127494303641,238.26487787203146 L-238.9318239666958,54.19025277619491" stroke="#0d6d4d" stroke-width="0.1" fill="none" />
<path d="M54.76309369792635,238.80117999840817 L-244.94293610629077,5.287537388005012" stroke="#0d6d4d" stroke-width="0.1" fill="none" />
<path d="M52.46987325066264,239.31550806635872 L-241.0477477653943,-43.82902345741736" stroke="#0d6d4d" stroke-width="0.1" fill="none" />
<path d="M50.171824619298626,239.80781474833205 L-227.40379321197275,-91.17299398838634" stroke="#0d6d4d" stroke-width="0.1" fill="none" />
<path d="M47.86915926616824,240.2780547431459 L-204.56287898389525,-134.82962783387126" stroke="#0d6d4d" stroke-width="0.1" fill="none" />
<path d="M45.56208907842791,240.72618478015514 L-173.44876701195847,-173.03330668409288" stroke="#0d6d4d" stroke-width="0.1" fill="none" />
<path d="M43.25082634855939,241.15216362323343 L-135.31981463962052,-204.2389477203081" stroke="#0d6d4d" stroke-width="0.1" fill="none" />
<path d="M40.93558375483437,241.5559520745679 L-91.71808250031391,-227.18449186171492" stroke="#0d6d4d" stroke-width="0.1" fill="none" />
<path d="M38.61657434174462,241.93751297826577 L-44.40696849768063,-240.94194559861512" stroke="#0d6d4d" stroke-width="0.1" fill="none" />
<path d="M36.294011500397886,242.2968112237736 L4.70010982365779,-244.95491211168957" stroke="#0d6d4d" stroke-width="0.1" fill="none" />
<path d="M33.968108948882076,242.6338137491081 L53.61710019657589,-239.06109379510156" stroke="#0d6d4d" stroke-width="0.1" fill="none" />
<path d="M31.63908071259922,242.94848954389823 L100.36563813774306,-223.4988561071479" stroke="#0d6d4d" stroke-width="0.1" fill="none" />
<path d="M29.307141104571222,243.24080965223897 L143.05505853458018,-198.89758728468234" stroke="#0d6d4d" stroke-width="0.1" fill="none" />
<path d="M26.97250470571951,243.5107471753556 L179.95886038031574,-166.25224380626574" stroke="#0d6d4d" stroke-width="0.1" fill="none" />
<path d="M24.63538634511908,243.7582772740789 L209.58453217097338,-126.88311106949669" stroke="#0d6d4d" stroke-width="0.1" fill="none" />
<path d="M22.296001080230727,243.98337717113097 L230.73391399486118,-82.38240669349251" stroke="#0d6d4d" stroke-width="0.1" fill="none" />
<path d="M19.954564177111617,244.186026153221 L242.55165507250962,-34.54988598514207" stroke="#0d6d4d" stroke-width="0.1" fill="none" />
<path d="M17.611291090607345,244.3662055729513 L244.55980696426644,14.67994610346799" stroke="#0d6d4d" stroke-width="0.1" fill="none" />
<path d="M15.266397444525483,244.5238988505332 L236.6771533820997,63.31607273786053" stroke="#0d6d4d" stroke-width="0.1" fill="none" />
<path d="M12.920099011794717,244.6590914753127 L219.2224948442439,109.39148849094916" stroke="#0d6d4d" stroke-width="0.1" fill="none" />
<path d="M10.5726116946097,244.7717710071057 L192.90175533041864,151.04275153228406" stroke="#0d6d4d" stroke-width="0.1" fill="none" />
<path d="M8.224151504564102,244.86192707734287 L158.7794323870221,186.58534736376023" stroke="#0d6d4d" stroke-width="0.1" fill="none" />
<path d="M5.8749345427736195,244.92955139002342 L118.23554533423984,214.58181614366794" stroke="#0d6d4d" stroke-width="0.1" fill="none" />
<path d="M3.5251769799907415,244.9746377224788 L72.90982273161562,233.89988830532687" stroke="#0d6d4d" stroke-width="0.1" fill="none" />
<path d="M1.1750950367129773,244.9971819259452 L24.63538634511908,243.7582772740789" stroke="#0d6d4d" stroke-width="0.1" fill="none" />
<path d="M-1.1750950367129174,244.9971819259452 L-24.63538634511902,243.7582772740789" stroke="#0d6d4d" stroke-width="0.1" fill="none" />
<path d="M-3.5251769799905723,244.9746377224788 L-72.90982273161546,233.89988830532693" stroke="#0d6d4d" stroke-width="0.1" fill="none" />
<path d="M-5.874934542773452,244.92955139002342 L-118.2355453342399,214.58181614366794" stroke="#0d6d4d" stroke-width="0.1" fill="none" />
<path d="M-8.22415150456404,244.86192707734287 L-158.77943238702207,186.58534736376026" stroke="#0d6d4d" stroke-width="0.1" fill="none" />
<path d="M-10.572611694609748,244.7717710071057 L-192.90175533041867,151.04275153228403" stroke="#0d6d4d" stroke-width="0.1" fill="none" />
<path d="M-12.920099011794656,244.6590914753127 L-219.2224948442438,109.39148849094931" stroke="#0d6d4d" stroke-width="0.1" fill="none" />
<path d="M-15.26639744452553,244.5238988505332 L-236.67715338209973,63.31607273786047" stroke="#0d6d4d" stroke-width="0.1" fill="none" />
<path d="M-17.61129109060728,244.36620557295132 L-244.55980696426644,14.679946103468158" stroke="#0d6d4d" stroke-width="0.1" fill="none" />
<path d="M-19.954564177111667,244.186026153221 L-242.55165507250962,-34.54988598514217" stroke="#0d6d4d" stroke-width="0.1" fill="none" />
<path d="M-22.296001080230557,243.983377171131 L-230.73391399486124,-82.3824066934924" stroke="#0d6d4d" stroke-width="0.1" fill="none" />
<path d="M-24.63538634511902,243.7582772740789 L-209.58453217097343,-126.88311106949658" stroke="#0d6d4d" stroke-width="0.1" fill="none" />
<path d="M-26.97250470571934,243.5107471753556 L-179.9588603803158,-166.25224380626565" stroke="#0d6d4d" stroke-width="0.1" fill="none" />
<path d="M-29.307141104571162,243.24080965223897 L-143.05505853458027,-198.89758728468232" stroke="#0d6d4d" stroke-width="0.1" fill="none" />
<path d="M-31.639080712599057,242.94848954389826 L-100.36563813774312,-223.4988561071479" stroke="#0d6d4d" stroke-width="0.1" fill="none" />
<path d="M-33.96810894888202,242.6338137491081 L-53.61710019657593,-239.06109379510156" stroke="#0d6d4d" stroke-width="0.1" fill="none" />
<path d="M-36.294011500397836,242.2968112237736 L-4.700109823657593,-244.95491211168957" stroke="#0d6d4d" stroke-width="0.1" fill="none" />
<path d="M-38.61657434174456,241.93751297826577 L44.40696849768051,-240.94194559861515" stroke="#0d6d4d" stroke-width="0.1" fill="none" />
<path d="M-40.935583754834425,241.55595207456787 L91.7180825003138,-227.18449186171497" stroke="#0d6d4d" stroke-width="0.1" fill="none" />
<path d="M-43.250826348559336,241.15216362323346 L135.31981463962057,-204.23894772030806" stroke="#0d6d4d" stroke-width="0.1" fill="none" />
<path d="M-45.56208907842796,240.72618478015514 L173.44876701195835,-173.03330668409302" stroke="#0d6d4d" stroke-width="0.1" fill="none" />
<path d="M-47.86915926616808,240.27805474314593 L204.56287898389525,-134.82962783387126" stroke="#0d6d4d" stroke-width="0.1" fill="none" />
<path d="M-50.171824619298576,239.80781474833205 L227.4037932119727,-91.17299398838654" stroke="#0d6d4d" stroke-width="0.1" fill="none" />
<path d="M-52.46987325066248,239.31550806635875 L241.0477477653943,-43.829023457417364" stroke="#0d6d4d" stroke-width="0.1" fill="none" />
<path d="M-54.763093697926195,238.8011799984082 L244.9429361062908,5.287537388004843" stroke="#0d6d4d" stroke-width="0.1" fill="none" />
<path d="M-57.051274943036255,238.2648778720315 L238.9318239666958,54.19025277619491" stroke="#0d6d4d" stroke-width="0.1" fill="none" />
<path d="M-59.334206431638115,237.70665103679315 L223.25752055409802,100.90133555130234" stroke="#0d6d4d" stroke-width="0.1" fill="none" />
<path d="M-61.61167809245003,237.1265508597304 L198.5539464129961,143.53163541123985" stroke="#0d6d4d" stroke-width="0.1" fill="none" />
<path d="M-63.88348035659419,236.5246307206263 L165.82019558657433,180.3570423788055" stroke="#0d6d4d" stroke-width="0.1" fill="none" />
<path d="M-66.14940417688054,235.90094600709784 L126.38012895726827,209.88821549754584" stroke="#0d6d4d" stroke-width="0.1" fill="none" />
<path d="M-68.4092410470425,235.25555410949949 L81.82883294484301,230.93081669384225" stroke="#0d6d4d" stroke-width="0.1" fill="none" />
<path d="M-70.66278302092456,234.5885144156417 L33.968108948882076,242.6338137491081" stroke="#0d6d4d" stroke-width="0.1" fill="none" />
<path d="M-72.90982273161546,233.89988830532693 L-15.26639744452553,244.5238988505332" stroke="#0d6d4d" stroke-width="0.1" fill="none" />
<path d="M-75.15015341053143,233.18973914470078 L-63.88348035659419,236.5246307206263" stroke="#0d6d4d" stroke-width="0.1" fill="none" />
<path d="M-77.38356890644101,232.45813228042184 L-109.91690455119996,218.95952615468093" stroke="#0d6d4d" stroke-width="0.1" fill="none" />
<path d="M-79.60986370443638,231.70513503364802 L-151.50492647506144,192.53897593418907" stroke="#0d6d4d" stroke-width="0.1" fill="none" />
<path d="M-81.82883294484296,230.93081669384227 L-186.9655893095167,158.33151427983353" stroke="#0d6d4d" stroke-width="0.1" fill="none" />
<path d="M-84.04027244207109,230.13524851239643 L-214.8647468535783,117.72060380217098" stroke="#0d6d4d" stroke-width="0.1" fill="none" />
<path d="M-86.24397870340478,229.31850369607477 L-234.07406512800446,72.34868370917832" stroke="#0d6d4d" stroke-width="0.1" fill="none" />
<path d="M-88.43974894772653,228.48065740027778 L-243.81665592415004,24.050744145756244" stroke="#0d6d4d" stroke-width="0.1" fill="none" />
<path d="M-90.62738112417708,227.6217867221263 L-243.6984967263251,-25.219886861945305" stroke="#0d6d4d" stroke-width="0.1" fill="none" />
<path d="M-92.80667393074722,226.7419706933676 L-233.72436628233427,-73.47054243655246" stroke="#0d6d4d" stroke-width="0.1" fill="none" />
<path d="M-94.9774268328024,225.84129027310235 L-214.29765133514906,-118.74980687242777" stroke="#0d6d4d" stroke-width="0.1" fill="none" />
<path d="M-97.139440081534,224.91982834033567 L-186.20403233212133,-159.22643732514496" stroke="#0d6d4d" stroke-width="0.1" fill="none" />
<path d="M-99.29251473234157,223.97766968635005 L-150.57970791548388,-193.26342531396767" stroke="#0d6d4d" stroke-width="0.1" fill="none" />
<path d="M-101.43645266313764,223.01490100690364 L-108.86544330057838,-219.48420274582077" stroke="#0d6d4d" stroke-width="0.1" fill="none" />
<path d="M-103.57105659258023,222.03161089425205 L-62.748300977007865,-236.8283148707072" stroke="#0d6d4d" stroke-width="0.1" fill="none" />
<path d="M-105.69613009822488,221.02788982899673 L-14.093410335400877,-244.59430857057572" stroke="#0d6d4d" stroke-width="0.1" fill="none" />
<path d="M-107.81147763459987,220.003830171759 L35.13146431879545,-242.46810143772976" stroke="#0d6d4d" stroke-width="0.1" fill="none" />
<path d="M-109.91690455119996,218.95952615468093 L82.93550664610802,-230.53568430365257" stroke="#0d6d4d" stroke-width="0.1" fill="none" />
<path d="M-112.0122171103976,217.89507387275452 L127.38536345413856,-209.27964348607108" stroke="#0d6d4d" stroke-width="0.1" fill="none" />
<path d="M-114.09722250527038,216.81057127497917 L166.68333587940938,-179.55964340606155" stroke="#0d6d4d" stroke-width="0.1" fill="none" />
<path d="M-116.17172887734243,215.70611815534866 L199.24008426058046,-142.57765892255628" stroke="#0d6d4d" stroke-width="0.1" fill="none" />
<path d="M-118.2355453342399,214.58181614366794 L223.73890627808916,-99.82936350335223" stroke="#0d6d4d" stroke-width="0.1" fill="none" />
<path d="M-120.28848196725501,213.43776869620186 L239.18898874017145,-53.04363925537286" stroke="#0d6d4d" stroke-width="0.1" fill="none" />
<path d="M-122.33034986882284,212.27408108615475 L244.96547933734357,-4.112655228134102" stroke="#0d6d4d" stroke-width="0.1" fill="none" />
<path d="M-124.36096114990252,211.090860393984 L240.83475773138318,44.98465814548304" stroke="#0d6d4d" stroke-width="0.1" fill="none" />
<path d="M-126.38012895726813,209.88821549754593 L226.96388393259463,92.26264352505684" stroke="#0d6d4d" stroke-width="0.1" fill="none" />
<path d="M-128.38766749070118,208.66625706207785 L203.91384184180845,135.80922319678413" stroke="#0d6d4d" stroke-width="0.1" fill="none" />
<path d="M-130.3833920200883,207.42509753001437 L172.61685121056792,173.86322980477686" stroke="#0d6d4d" stroke-width="0.1" fill="none" />
<path d="M-132.36711890241997,206.16485111064063 L134.33866559868858,204.8856337695831" stroke="#0d6d4d" stroke-width="0.1" fill="none" />
<path d="M-134.33866559868852,204.88563376958314 L90.62738112417703,227.6217867221263" stroke="#0d6d4d" stroke-width="0.1" fill="none" />
<path d="M-136.29785069068544,203.5875632181387 L43.25082634855939,241.15216362323343" stroke="#0d6d4d" stroke-width="0.1" fill="none" />
<path d="M-138.24449389769453,202.27075890244316 L-5.874934542773452,244.92955139002342" stroke="#0d6d4d" stroke-width="0.1" fill="none" />
<path d="M-140.17841609308226,200.93534199247952 L-54.763093697926195,238.8011799984082" stroke="#0d6d4d" stroke-width="0.1" fill="none" />
<path d="M-142.099439320779,199.58143537092886 L-101.43645266313764,223.01490100690364" stroke="#0d6d4d" stroke-width="0.1" fill="none" />
<path d="M-144.0073868116559,198.20916362186213 L-144.0073868116559,198.20916362186213" stroke="#0d6d4d" stroke-width="0.1" fill="none" />
<path d="M-145.90208299978937,196.81865301927704 L-180.7541871115147,165.38719370512194" stroke="#0d6d4d" stroke-width="0.1" fill="none" />
<path d="M-147.78335353861777,195.41003151547753 L-210.19069171925122,125.87642001019375" stroke="#0d6d4d" stroke-width="0.1" fill="none" />
<path d="M-149.65102531698315,193.98342872930067 L-231.12639126817297,81.27478858386172" stroke="#0d6d4d" stroke-width="0.1" fill="none" />
<path d="M-151.50492647506144,192.53897593418907 L-242.71457699501588,33.38613655591957" stroke="#0d6d4d" stroke-width="0.1" fill="none" />
<path d="M-153.34488642017646,191.07680604611116 L-244.48658443588994,-15.852760985785999" stroke="#0d6d4d" stroke-width="0.1" fill="none" />
<path d="M-155.17073584249772,189.59705361133067 L-236.37074776347225,-64.45052056994558" stroke="#0d6d4d" stroke-width="0.1" fill="none" />
<path d="M-156.98230673061977,188.09985479402587 L-218.69529818951207,-110.44168845956851" stroke="#0d6d4d" stroke-width="0.1" fill="none" />
<path d="M-158.77943238702207,186.58534736376026 L-192.1750892116885,-151.96623008576466" stroke="#0d6d4d" stroke-width="0.1" fill="none" />
<path d="M-160.5619474434092,185.0536706828046 L-157.88268557963707,-187.34475598255068" stroke="#0d6d4d" stroke-width="0.1" fill="none" />
<path d="M-162.3296878759263,183.50496569331398 L-117.20498523774228,-215.14644183769485" stroke="#0d6d4d" stroke-width="0.1" fill="none" />
<path d="M-164.08249102025385,181.9393749043574 L-71.78712859645204,-234.2468957486448" stroke="#0d6d4d" stroke-width="0.1" fill="none" />
<path d="M-165.8201955865741,180.3570423788057 L-23.465963626239283,-243.87363234079248" stroke="#0d6d4d" stroke-width="0.1" fill="none" />
<path d="M-167.54264167441428,178.75811372007377 L25.80424233466754,-243.63731462469732" stroke="#0d6d4d" stroke-width="0.1" fill="none" />
<path d="M-169.24967078735898,177.14273605872356 L74.03083959918914,-233.54750006848528" stroke="#0d6d4d" stroke-width="0.1" fill="none" />
<path d="M-170.94112584763553,175.5110580389248 L119.26338545912404,-214.01225406230458" stroke="#0d6d4d" stroke-width="0.1" fill="none" />
<path d="M-172.6168512105679,173.86322980477692 L159.6725265233963,-185.82164640761124" stroke="#0d6d4d" stroke-width="0.1" fill="none" />
<path d="M-174.2766926788985,172.1994029864934 L193.62398380480735,-150.11579828770755" stroke="#0d6d4d" stroke-width="0.1" fill="none" />
<path d="M-175.92049751697783,170.51973068644872 L219.7446483542823,-108.33877200546819" stroke="#0d6d4d" stroke-width="0.1" fill="none" />
<path d="M-177.54811446481773,168.82436746509072 L236.97811431709198,-62.180168339393255" stroke="#0d6d4d" stroke-width="0.1" fill="none" />
<path d="M-179.15939375201162,167.11346932671722 L244.62740347103602,-13.506793513596895" stroke="#0d6d4d" stroke-width="0.1" fill="none" />
<path d="M-180.7541871115147,165.38719370512194 L242.38315332530047,35.71284060508057" stroke="#0d6d4d" stroke-width="0.1" fill="none" />
<path d="M-182.33234779328828,163.6456994491067 L230.33612876027107,83.48812962171228" stroke="#0d6d4d" stroke-width="0.1" fill="none" />
<path d="M-183.89373057780261,161.88914680786525 L208.97355119630862,127.88688322265023" stroke="#0d6d4d" stroke-width="0.1" fill="none" />
<path d="M-185.43819178940015,160.11769741623706 L179.15939375201162,167.11346932671722" stroke="#0d6d4d" stroke-width="0.1" fill="none" />
<path d="M-186.9655893095167,158.33151427983353 L142.0994393207791,199.58143537092874" stroke="#0d6d4d" stroke-width="0.1" fill="none" />
<path d="M-188.47578258975778,156.53076176003987 L99.29251473234162,223.97766968635003" stroke="#0d6d4d" stroke-width="0.1" fill="none" />
<path d="M-189.9686326648333,154.71560555888868 L52.46987325066264,239.31550806635872" stroke="#0d6d4d" stroke-width="0.1" fill="none" />
<path d="M-191.44400216534294,152.886212703815 L3.5251769799907415,244.9746377224788" stroke="#0d6d4d" stroke-width="0.1" fill="none" />
<path d="M-192.90175533041867,151.04275153228403 L-45.56208907842796,240.72618478015514" stroke="#0d6d4d" stroke-width="0.1" fill="none" />
<path d="M-194.34175802021517,149.18539167630368 L-92.80667393074722,226.7419706933676" stroke="#0d6d4d" stroke-width="0.1" fill="none" />
<path d="M-195.76387772825524,147.31430404681257 L-136.29785069068544,203.5875632181387" stroke="#0d6d4d" stroke-width="0.1" fill="none" />
<path d="M-197.16798359362082,145.4296608179558 L-174.2766926788985,172.1994029864934" stroke="#0d6d4d" stroke-width="0.1" fill="none" />
<path d="M-198.55394641299605,143.5316354112399 L-205.20721022115077,133.84693075768462" stroke="#0d6d4d" stroke-width="0.1" fill="none" />
<path d="M-199.9216386525556,141.6204024795756 L-227.83847113845593,90.08124704560318" stroke="#0d6d4d" stroke-width="0.1" fill="none" />
<path d="M-201.27093445970038,139.69613789120652 L-241.25519257161818,42.67238049642213" stroke="#0d6d4d" stroke-width="0.1" fill="none" />
<path d="M-202.60170967463822,137.759018713526 L-244.91475803986538,-6.462297909737244" stroke="#0d6d4d" stroke-width="0.1" fill="none" />
<path d="M-203.91384184180836,135.8092231967843 L-238.66916264159576,-55.335619667258754" stroke="#0d6d4d" stroke-width="0.1" fill="none" />
<path d="M-205.20721022115077,133.84693075768462 L-222.77099886091332,-101.97098639569471" stroke="#0d6d4d" stroke-width="0.1" fill="none" />
<path d="M-206.48169579921495,131.87232196287613 L-197.86324089418832,-144.4823099996965" stroke="#0d6d4d" stroke-width="0.1" fill="none" />
<path d="M-207.73718130011278,129.8855785123355 L-164.95324065218034,-181.1502922943926" stroke="#0d6d4d" stroke-width="0.1" fill="none" />
<path d="M-208.9735511963085,127.8868832226504 L-125.37198712519407,-210.49195909649416" stroke="#0d6d4d" stroke-width="0.1" fill="none" />
<path d="M-210.19069171925122,125.87642001019375 L-80.720276796957,-231.3206365930689" stroke="#0d6d4d" stroke-width="0.1" fill="none" />
<path d="M-211.3884908698416,123.85437387420315 L-32.80397215328269,-242.793944345749" stroke="#0d6d4d" stroke-width="0.1" fill="none" />
<path d="M-212.56683842873957,121.82093087975535 L16.43903335496798,-244.4478639349386" stroke="#0d6d4d" stroke-width="0.1" fill="none" />
<path d="M-213.72562596650556,119.77627814064589 L65.01719011676423,-236.21550539564615" stroke="#0d6d4d" stroke-width="0.1" fill="none" />
<path d="M-214.8647468535783,117.72060380217098 L110.9658371979285,-218.42981246835978" stroke="#0d6d4d" stroke-width="0.1" fill="none" />
<path d="M-215.9840962700867,115.65409702381459 L152.4266597113536,-191.8100972556951" stroke="#0d6d4d" stroke-width="0.1" fill="none" />
<path d="M-217.08357121549471,113.57694796184317 L187.72284520220688,-157.4329488677268" stroke="#0d6d4d" stroke-width="0.1" fill="none" />
<path d="M-218.16307051808036,111.4893477518059 L215.4268994759391,-116.6886926063688" stroke="#0d6d4d" stroke-width="0.1" fill="none" />
<path d="M-219.2224948442438,109.39148849094931 L234.41837917326788,-71.22516062304109" stroke="#0d6d4d" stroke-width="0.1" fill="none" />
<path d="M-220.26174670764962,107.2835632205381 L243.92920619632451,-22.88104814974599" stroke="#0d6d4d" stroke-width="0.1" fill="none" />
<path d="M-221.28073047819558,105.16576590809468 L243.5747313210649,26.388449402552144" stroke="#0d6d4d" stroke-width="0.1" fill="none" />
<path d="M-222.2793523908139,103.0382914295476 L233.36929068096939,74.59071099715577" stroke="#0d6d4d" stroke-width="0.1" fill="none" />
<path d="M-223.25752055409802,100.90133555130234 L213.72562596650565,119.77627814064572" stroke="#0d6d4d" stroke-width="0.1" fill="none" />
<path d="M-224.21514495875925,98.75509491222506 L185.43819178940026,160.11769741623695" stroke="#0d6d4d" stroke-width="0.1" fill="none" />
<path d="M-225.15213748590884,96.59976700554928 L149.6510253169832,193.98342872930064" stroke="#0d6d4d" stroke-width="0.1" fill="none" />
<path d="M-226.06841191516656,94.4355501607026 L107.81147763459991,220.00383017175898" stroke="#0d6d4d" stroke-width="0.1" fill="none" />
<path d="M-226.96388393259465,92.26264352505675 L61.61167809245008,237.12655085973037" stroke="#0d6d4d" stroke-width="0.1" fill="none" />
<path d="M-227.83847113845593,90.08124704560318 L12.920099011794717,244.6590914753127" stroke="#0d6d4d" stroke-width="0.1" fill="none" />
<path d="M-228.6920930547967,87.89156145055229 L-36.294011500397836,242.2968112237736" stroke="#0d6d4d" stroke-width="0.1" fill="none" />
<path d="M-229.5246711328513,85.6937882308657 L-84.04027244207109,230.13524851239643" stroke="#0d6d4d" stroke-width="0.1" fill="none" />
<path d="M-230.3361287602711,83.48812962171223 L-128.38766749070118,208.66625706207785" stroke="#0d6d4d" stroke-width="0.1" fill="none" />
<path d="M-231.12639126817297,81.27478858386172 L-167.54264167441428,178.75811372007377" stroke="#0d6d4d" stroke-width="0.1" fill="none" />
<path d="M-231.89538593801157,79.0539687850058 L-199.9216386525556,141.6204024795756" stroke="#0d6d4d" stroke-width="0.1" fill="none" />
<path d="M-232.64304200826945,76.82587458101976 L-224.21514495875925,98.75509491222506" stroke="#0d6d4d" stroke-width="0.1" fill="none" />
<path d="M-233.36929068096936,74.59071099715587 L-239.44065104602785,51.895805482276835" stroke="#0d6d4d" stroke-width="0.1" fill="none" />
<path d="M-234.07406512800446,72.34868370917832 L-244.98238721442377,2.937678457920546" stroke="#0d6d4d" stroke-width="0.1" fill="none" />
<path d="M-234.75730049728787,70.09999902443708 L-240.61622736935365,-46.13925797560583" stroke="#0d6d4d" stroke-width="0.1" fill="none" />
<path d="M-235.41893391872026,67.84486386288373 L-226.51875342029666,-93.35017058856846" stroke="#0d6d4d" stroke-width="0.1" fill="none" />
<path d="M-236.0589045099747,65.58348573803198 L-203.2601137257861,-136.78569431113948" stroke="#0d6d4d" stroke-width="0.1" fill="none" />
<path d="M-236.67715338209973,63.31607273786047 L-171.78096441268914,-174.68915325642413" stroke="#0d6d4d" stroke-width="0.1" fill="none" />
<path d="M-237.2736236449372,61.04283350566796 L-133.3544261389152,-205.52760648915418" stroke="#0d6d4d" stroke-width="0.1" fill="none" />
<path d="M-237.8482604123582,58.763977220871006 L-89.53459489357981,-228.05384521477063" stroke="#0d6d4d" stroke-width="0.1" fill="none" />
<path d="M-238.40101080731262,56.47971357975899 L-42.09368922775206,-241.3568340180104" stroke="#0d6d4d" stroke-width="0.1" fill="none" />
<path d="M-238.9318239666958,54.19025277619491 L7.049624110863895,-244.89855614089586" stroke="#0d6d4d" stroke-width="0.1" fill="none" />
<path d="M-239.44065104602785,51.895805482276835 L55.90782739149285,-238.53577265551397" stroke="#0d6d4d" stroke-width="0.1" fill="none" />
<path d="M-239.92744522394912,49.596582828949934 L102.50493367477364,-222.52581551885223" stroke="#0d6d4d" stroke-width="0.1" fill="none" />
<path d="M-240.39216170652804,47.29279638657965 L144.95640224399307,-197.5161802194384" stroke="#0d6d4d" stroke-width="0.1" fill="none" />
<path d="M-240.83475773138315,44.98465814548315 L181.54535564936694,-164.51833892349168" stroke="#0d6d4d" stroke-width="0.1" fill="none" />
<path d="M-241.25519257161818,42.67238049642213 L210.7920158966319,-124.86683320335341" stroke="#0d6d4d" stroke-width="0.1" fill="none" />
<path d="M-241.6534275395693,40.356176211060074 L231.5135515513901,-80.16530077322633" stroke="#0d6d4d" stroke-width="0.1" fill="none" />
<path d="M-242.02942599036558,38.03625842238103 L242.87191534485152,-32.22161908910349" stroke="#0d6d4d" stroke-width="0.1" fill="none" />
<path d="M-242.38315332530044,35.71284060508074 L244.40773757036771,17.025211180313068" stroke="#0d6d4d" stroke-width="0.1" fill="none" />
<path d="M-242.71457699501588,33.38613655591957 L236.05890450997475,65.58348573803181" stroke="#0d6d4d" stroke-width="0.1" fill="none" />
<path d="M-243.02366650249715,31.05636037405283 L218.16307051808033,111.48934775180592" stroke="#0d6d4d" stroke-width="0.1" fill="none" />
<path d="M-243.31039340587952,28.723726441326257 L191.44400216534305,152.88621270381486" stroke="#0d6d4d" stroke-width="0.1" fill="none" />
<path d="M-243.57473132106486,26.388449402552254 L156.9823067306197,188.0998547940259" stroke="#0d6d4d" stroke-width="0.1" fill="none" />
<path d="M-243.81665592415004,24.050744145756244 L116.17172887734249,215.70611815534863" stroke="#0d6d4d" stroke-width="0.1" fill="none" />
<path d="M-244.0361449536648,21.710825782404164 L70.66278302092451,234.58851441564173" stroke="#0d6d4d" stroke-width="0.1" fill="none" />
<path d="M-244.23317821262032,19.36890962760806 L22.296001080230727,243.98337717113097" stroke="#0d6d4d" stroke-width="0.1" fill="none" />
<path d="M-244.40773757036774,17.025211180312965 L-26.97250470571934,243.5107471753556" stroke="#0d6d4d" stroke-width="0.1" fill="none" />
<path d="M-244.55980696426644,14.679946103468158 L-75.15015341053143,233.18973914470078" stroke="#0d6d4d" stroke-width="0.1" fill="none" />
<path d="M-244.68937240116225,12.333330204179859 L-120.28848196725501,213.43776869620186" stroke="#0d6d4d" stroke-width="0.1" fill="none" />
<path d="M-244.7964219586748,9.985579413856286 L-160.5619474434092,185.0536706828046" stroke="#0d6d4d" stroke-width="0.1" fill="none" />
<path d="M-244.88094578629492,7.636909768334576 L-194.34175802021517,149.18539167630368" stroke="#0d6d4d" stroke-width="0.1" fill="none" />
<path d="M-244.94293610629077,5.287537388005012 L-220.26174670764962,107.2835632205381" stroke="#0d6d4d" stroke-width="0.1" fill="none" />
<path d="M-244.98238721442377,2.937678457920546 L-237.2736236449372,61.04283350566796" stroke="#0d6d4d" stroke-width="0.1" fill="none" />
<path d="M-244.99929548047334,0.5875492079070895 L-244.68937240116225,12.333330204179859" stroke="#0d6d4d" stroke-width="0.1" fill="none" />
<path d="M-244.99365934857101,-1.762634107335956 L-242.2090756297182,-36.87497366232884" stroke="#0d6d4d" stroke-width="0.1" fill="none" />
<path d="M-244.96547933734357,-4.112655228133987 L-229.9330447153271,-84.59193193171195" stroke="#0d6d4d" stroke-width="0.1" fill="none" />
<path d="M-244.91475803986538,-6.462297909737244 L-208.35776285068263,-128.88771337819094" stroke="#0d6d4d" stroke-width="0.1" fill="none" />
<path d="M-244.8415001234197,-8.811345942219482 L-178.35580561808146,-167.97085045425334" stroke="#0d6d4d" stroke-width="0.1" fill="none" />
<path d="M-244.7457123290693,-11.159583170372139 L-141.1405511539727,-200.2606921488908" stroke="#0d6d4d" stroke-width="0.1" fill="none" />
<path d="M-244.62740347103602,-13.506793513596945 L-98.21710713380057,-224.4513307295538" stroke="#0d6d4d" stroke-width="0.1" fill="none" />
<path d="M-244.48658443588994,-15.852760985785999 L-51.32143925178234,-239.56441695945918" stroke="#0d6d4d" stroke-width="0.1" fill="none" />
<path d="M-244.3232681815473,-18.19726971519993 L-2.3501630407334253,-244.98872776860975" stroke="#0d6d4d" stroke-width="0.1" fill="none" />
<path d="M-244.13746973607837,-20.54010396432852 L46.71616151761526,-240.50488613136343" stroke="#0d6d4d" stroke-width="0.1" fill="none" />
<path d="M-243.92920619632451,-22.881048149745986 L93.8931303727733,-226.2942333971447" stroke="#0d6d4d" stroke-width="0.1" fill="none" />
<path d="M-243.6984967263251,-25.219886861945305 L137.27275125247053,-202.93149524797118" stroke="#0d6d4d" stroke-width="0.1" fill="none" />
<path d="M-243.44536255555374,-27.55640488516223 L175.1006091652185,-171.36153789567078" stroke="#0d6d4d" stroke-width="0.1" fill="none" />
<path d="M-243.16982697696514,-29.89038721717793 L205.84682073093703,-132.86115457486235" stroke="#0d6d4d" stroke-width="0.1" fill="none" />
<path d="M-242.87191534485154,-32.22161908910338 L228.26790771241514,-88.98742781200234" stroke="#0d6d4d" stroke-width="0.1" fill="none" />
<path d="M-242.55165507250962,-34.54988598514217 L241.45708737785205,-41.51475587070606" stroke="#0d6d4d" stroke-width="0.1" fill="none" />
<path d="M-242.2090756297182,-36.87497366232884 L244.88094578629492,7.6369097683346245" stroke="#0d6d4d" stroke-width="0.1" fill="none" />
<path d="M-241.84420854002616,-39.19666817024548 L238.40101080731267,56.47971357975878" stroke="#0d6d4d" stroke-width="0.1" fill="none" />
<path d="M-241.45708737785208,-41.51475587070584 L222.27935239081387,103.03829142954764" stroke="#0d6d4d" stroke-width="0.1" fill="none" />
<path d="M-241.0477477653943,-43.82902345741736 L197.16798359362085,145.42966081795575" stroke="#0d6d4d" stroke-width="0.1" fill="none" />
<path d="M-240.61622736935365,-46.13925797560583 L164.0824910202539,181.93937490435735" stroke="#0d6d4d" stroke-width="0.1" fill="none" />
<path d="M-240.16256589746672,-48.445246841614505 L124.36096114990266,211.0908603939839" stroke="#0d6d4d" stroke-width="0.1" fill="none" />
<path d="M-239.68680509485267,-50.74677786246251 L79.60986370443652,231.70513503364796" stroke="#0d6d4d" stroke-width="0.1" fill="none" />
<path d="M-239.18898874017148,-53.04363925537275 L31.63908071259922,242.94848954389823" stroke="#0d6d4d" stroke-width="0.1" fill="none" />
<path d="M-238.66916264159576,-55.335619667258754 L-17.61129109060728,244.36620557295132" stroke="#0d6d4d" stroke-width="0.1" fill="none" />
<path d="M-238.1273746325954,-57.62250819417323 L-66.14940417688054,235.90094600709784" stroke="#0d6d4d" stroke-width="0.1" fill="none" />
<path d="M-237.56367456753608,-59.90409440071524 L-112.0122171103976,217.89507387275452" stroke="#0d6d4d" stroke-width="0.1" fill="none" />
<path d="M-236.97811431709204,-62.18016833939309 L-153.34488642017646,191.07680604611116" stroke="#0d6d4d" stroke-width="0.1" fill="none" />
<path d="M-236.37074776347225,-64.45052056994558 L-188.47578258975778,156.53076176003987" stroke="#0d6d4d" stroke-width="0.1" fill="none" />
<path d="M-235.74163079546338,-66.71494217861122 L-215.9840962700867,115.65409702381459" stroke="#0d6d4d" stroke-width="0.1" fill="none" />
<path d="M-235.09082130328585,-68.97322479735544 L-234.75730049728787,70.09999902443708" stroke="#0d6d4d" stroke-width="0.1" fill="none" />
<path d="M-234.41837917326794,-71.22516062304089 L-244.0361449536648,21.710825782404164" stroke="#0d6d4d" stroke-width="0.1" fill="none" />
<path d="M-233.72436628233427,-73.47054243655246 L-243.44536255555374,-27.55640488516223" stroke="#0d6d4d" stroke-width="0.1" fill="none" />
<path d="M-233.00884649231264,-75.70916362186207 L-233.00884649231264,-75.70916362186207" stroke="#0d6d4d" stroke-width="0.1" fill="none" />
<path d="M-232.27188564405722,-77.94081818504347 L-213.14868390691214,-120.79999399317559" stroke="#0d6d4d" stroke-width="0.1" fill="none" />
<path d="M-231.51355155139012,-80.16530077322625 L-184.66808529927457,-161.00527404995105" stroke="#0d6d4d" stroke-width="0.1" fill="none" />
<path d="M-230.73391399486124,-82.3824066934924 L-148.71890004361137,-194.69896961673507" stroke="#0d6d4d" stroke-width="0.1" fill="none" />
<path d="M-229.9330447153271,-84.59193193171195 L-106.75503179941391,-220.5183964786297" stroke="#0d6d4d" stroke-width="0.1" fill="none" />
<path d="M-229.11101740734986,-86.7936731713149 L-60.47363785057395,-237.4193318268705" stroke="#0d6d4d" stroke-width="0.1" fill="none" />
<path d="M-228.26790771241514,-88.98742781200234 L-11.746490465365673,-244.71824607443367" stroke="#0d6d4d" stroke-width="0.1" fill="none" />
<path d="M-227.40379321197275,-91.17299398838634 L37.45572374965612,-242.11994704771732" stroke="#0d6d4d" stroke-width="0.1" fill="none" />
<path d="M-226.51875342029666,-93.35017058856846 L85.14310491794167,-229.72951853197355" stroke="#0d6d4d" stroke-width="0.1" fill="none" />
<path d="M-225.6128697771694,-95.51875727264247 L129.3870180092661,-208.0480703363284" stroke="#0d6d4d" stroke-width="0.1" fill="none" />
<path d="M-224.6862256403869,-97.67855449113249 L168.39809320352882,-177.9524717597809" stroke="#0d6d4d" stroke-width="0.1" fill="none" />
<path d="M-223.7389062780892,-99.82936350335217 L200.59859390997673,-140.65988810368168" stroke="#0d6d4d" stroke-width="0.1" fill="none" />
<path d="M-222.77099886091332,-101.97098639569471 L224.6862256403869,-97.67855449113249" stroke="#0d6d4d" stroke-width="0.1" fill="none" />
<path d="M-221.78259245397257,-104.10322609984338 L239.68680509485264,-50.74677786246257" stroke="#0d6d4d" stroke-width="0.1" fill="none" />
<path d="M-220.7737780086606,-106.22588641090579 L244.99365934857101,-1.7626341073360705" stroke="#0d6d4d" stroke-width="0.1" fill="none" />
<path d="M-219.74464835428225,-108.33877200546829 L240.39216170652807,47.29279638657954" stroke="#0d6d4d" stroke-width="0.1" fill="none" />
<path d="M-218.69529818951207,-110.44168845956851 L226.0684119151666,94.43555016070252" stroke="#0d6d4d" stroke-width="0.1" fill="none" />
<path d="M-217.62582407367924,-112.53444226658792 L202.60170967463822,137.759018713526" stroke="#0d6d4d" stroke-width="0.1" fill="none" />
<path d="M-216.53632441788372,-114.61684085505506 L170.9411258476356,175.51105803892474" stroke="#0d6d4d" stroke-width="0.1" fill="none" />
<path d="M-215.4268994759391,-116.6886926063688 L132.36711890242,206.1648511106406" stroke="#0d6d4d" stroke-width="0.1" fill="none" />
<path d="M-214.29765133514906,-118.74980687242777 L88.43974894772659,228.48065740027775" stroke="#0d6d4d" stroke-width="0.1" fill="none" />
<path d="M-213.14868390691214,-120.79999399317559 L40.93558375483437,241.5559520745679" stroke="#0d6d4d" stroke-width="0.1" fill="none" />
<path d="M-211.98010291716068,-122.83906531405214 L-8.22415150456404,244.86192707734287" stroke="#0d6d4d" stroke-width="0.1" fill="none" />
<path d="M-210.79201589663197,-124.86683320335327 L-57.051274943036255,238.2648778720315" stroke="#0d6d4d" stroke-width="0.1" fill="none" />
<path d="M-209.58453217097343,-126.88311106949658 L-103.57105659258023,222.03161089425205" stroke="#0d6d4d" stroke-width="0.1" fill="none" />
<path d="M-208.35776285068263,-128.88771337819094 L-145.90208299978937,196.81865301927704" stroke="#0d6d4d" stroke-width="0.1" fill="none" />
<path d="M-207.11182082088303,-130.8804556695095 L-182.33234779328828,163.6456994491067" stroke="#0d6d4d" stroke-width="0.1" fill="none" />
<path d="M-205.84682073093714,-132.8611545748622 L-211.3884908698416,123.85437387420315" stroke="#0d6d4d" stroke-width="0.1" fill="none" />
<path d="M-204.56287898389525,-134.82962783387126 L-231.89538593801157,79.0539687850058" stroke="#0d6d4d" stroke-width="0.1" fill="none" />
<path d="M-203.2601137257861,-136.78569431113948 L-243.02366650249715,31.05636037405283" stroke="#0d6d4d" stroke-width="0.1" fill="none" />
<path d="M-201.93864483474349,-138.72917401292108 L-244.3232681815473,-18.19726971519993" stroke="#0d6d4d" stroke-width="0.1" fill="none" />
<path d="M-200.59859390997676,-140.65988810368165 L-235.74163079546338,-66.71494217861122" stroke="#0d6d4d" stroke-width="0.1" fill="none" />
<path d="M-199.2400842605805,-142.57765892255622 L-217.62582407367924,-112.53444226658792" stroke="#0d6d4d" stroke-width="0.1" fill="none" />
<path d="M-197.86324089418832,-144.4823099996965 L-190.70851100981034,-153.80267822252335" stroke="#0d6d4d" stroke-width="0.1" fill="none" />
<path d="M-196.46819050546975,-146.37366607250925 L-156.07831655290315,-188.85062642737452" stroke="#0d6d4d" stroke-width="0.1" fill="none" />
<path d="M-195.05506146447195,-148.25155310178397 L-115.13580002277926,-216.260832221451" stroke="#0d6d4d" stroke-width="0.1" fill="none" />
<path d="M-193.62398380480744,-150.11579828770743 L-69.53681187025055,-234.92473644748733" stroke="#0d6d4d" stroke-width="0.1" fill="none" />
<path d="M-192.1750892116885,-151.96623008576466 L-21.125525621714722,-244.087509240449" stroke="#0d6d4d" stroke-width="0.1" fill="none" />
<path d="M-190.70851100981034,-153.80267822252335 L28.140146582765695,-243.37857783769806" stroke="#0d6d4d" stroke-width="0.1" fill="none" />
<path d="M-189.2243841510813,-155.62497371130382 L76.26773841617957,-232.82661376415112" stroke="#0d6d4d" stroke-width="0.1" fill="none" />
<path d="M-187.722845202207,-157.43294886772665 L121.31081127660968,-212.85837326121515" stroke="#0d6d4d" stroke-width="0.1" fill="none" />
<path d="M-186.20403233212133,-159.22643732514496 L161.44767468621163,-184.2814378563809" stroke="#0d6d4d" stroke-width="0.1" fill="none" />
<path d="M-184.66808529927457,-161.00527404995105 L195.05506146447186,-148.25155310178408" stroke="#0d6d4d" stroke-width="0.1" fill="none" />
<path d="M-183.1151454387716,-162.76929535676416 L220.77377800866054,-106.22588641090587" stroke="#0d6d4d" stroke-width="0.1" fill="none" />
<path d="M-181.545355649367,-164.5183389234916 L237.5636745675361,-59.904094400715145" stroke="#0d6d4d" stroke-width="0.1" fill="none" />
<path d="M-179.9588603803158,-166.25224380626565 L244.74571232906928,-11.159583170372308" stroke="#0d6d4d" stroke-width="0.1" fill="none" />
<path d="M-178.35580561808146,-167.97085045425334 L242.02942599036558,38.03625842238108" stroke="#0d6d4d" stroke-width="0.1" fill="none" />
<path d="M-176.73633887290245,-169.67400072433784 L229.52467113285132,85.69378823086556" stroke="#0d6d4d" stroke-width="0.1" fill="none" />
<path d="M-175.1006091652184,-171.36153789567084 L207.73718130011278,129.88557851233554" stroke="#0d6d4d" stroke-width="0.1" fill="none" />
<path d="M-173.44876701195847,-173.03330668409288 L177.5481144648178,168.82436746509066" stroke="#0d6d4d" stroke-width="0.1" fill="none" />
<path d="M-171.78096441268914,-174.68915325642413 L140.1784160930822,200.93534199247955" stroke="#0d6d4d" stroke-width="0.1" fill="none" />
<path d="M-170.09735483562986,-176.32892524461727 L97.13944008153415,224.9198283403356" stroke="#0d6d4d" stroke-width="0.1" fill="none" />
<path d="M-168.39809320352882,-177.9524717597809 L50.171824619298626,239.80781474833205" stroke="#0d6d4d" stroke-width="0.1" fill="none" />
<path d="M-166.6833358794094,-179.55964340606155 L1.1750950367129773,244.9971819259452" stroke="#0d6d4d" stroke-width="0.1" fill="none" />
<path d="M-164.95324065218034,-181.1502922943926 L-47.86915926616808,240.27805474314593" stroke="#0d6d4d" stroke-width="0.1" fill="none" />
<path d="M-163.20796672211694,-182.72427205610197 L-94.9774268328024,225.84129027310235" stroke="#0d6d4d" stroke-width="0.1" fill="none" />
<path d="M-161.44767468621168,-184.28143785638085 L-138.24449389769453,202.27075890244316" stroke="#0d6d4d" stroke-width="0.1" fill="none" />
<path d="M-159.67252652339639,-185.82164640761118 L-175.92049751697783,170.51973068644872" stroke="#0d6d4d" stroke-width="0.1" fill="none" />
<path d="M-157.88268557963707,-187.34475598255068 L-206.48169579921495,131.87232196287613" stroke="#0d6d4d" stroke-width="0.1" fill="none" />
<path d="M-156.07831655290315,-188.85062642737452 L-228.6920930547967,87.89156145055229" stroke="#0d6d4d" stroke-width="0.1" fill="none" />
<path d="M-154.25958547801292,-190.33911917457124 L-241.6534275395693,40.356176211060074" stroke="#0d6d4d" stroke-width="0.1" fill="none" />
<path d="M-152.4266597113536,-191.81009725569513 L-244.8415001234197,-8.811345942219482" stroke="#0d6d4d" stroke-width="0.1" fill="none" />
<path d="M-150.57970791548388,-193.26342531396767 L-238.1273746325954,-57.62250819417323" stroke="#0d6d4d" stroke-width="0.1" fill="none" />
<path d="M-148.71890004361137,-194.69896961673507 L-221.78259245397257,-104.10322609984338" stroke="#0d6d4d" stroke-width="0.1" fill="none" />
<path d="M-146.84440732395623,-196.116598067772 L-196.46819050546975,-146.37366607250925" stroke="#0d6d4d" stroke-width="0.1" fill="none" />
<path d="M-144.9564022439931,-197.51618021943838 L-163.20796672211694,-182.72427205610197" stroke="#0d6d4d" stroke-width="0.1" fill="none" />
<path d="M-143.05505853458027,-198.89758728468232 L-123.34707428972928,-211.68490561247867" stroke="#0d6d4d" stroke-width="0.1" fill="none" />
<path d="M-141.1405511539727,-200.2606921488908 L-78.49761921198602,-232.0843031703136" stroke="#0d6d4d" stroke-width="0.1" fill="none" />
<path d="M-139.21305627172308,-201.60536938158683 L-30.473461424793364,-243.09744578829213" stroke="#0d6d4d" stroke-width="0.1" fill="none" />
<path d="M-137.27275125247064,-202.9314952479711 L18.783143684022292,-244.2789256430963" stroke="#0d6d4d" stroke-width="0.1" fill="none" />
<path d="M-135.31981463962052,-204.2389477203081 L67.28009649071387,-235.58095979132148" stroke="#0d6d4d" stroke-width="0.1" fill="none" />
<path d="M-133.3544261389152,-205.52760648915418 L113.05602021696588,-217.3553226693586" stroke="#0d6d4d" stroke-width="0.1" fill="none" />
<path d="M-131.3767666018964,-206.7973529744296 L154.25958547801278,-190.33911917457132" stroke="#0d6d4d" stroke-width="0.1" fill="none" />
<path d="M-129.38701800926623,-208.04807033632832 L189.2243841510813,-155.62497371130382" stroke="#0d6d4d" stroke-width="0.1" fill="none" />
<path d="M-127.38536345413858,-209.27964348607105 L216.5363244178836,-114.61684085505526" stroke="#0d6d4d" stroke-width="0.1" fill="none" />
<path d="M-125.37198712519407,-210.49195909649416 L235.09082130328585,-68.97322479735544" stroke="#0d6d4d" stroke-width="0.1" fill="none" />
<path d="M-123.34707428972928,-211.68490561247867 L244.13746973607834,-20.54010396432874" stroke="#0d6d4d" stroke-width="0.1" fill="none" />
<path d="M-121.31081127660977,-212.8583732612151 L243.31039340587952,28.7237264413262" stroke="#0d6d4d" stroke-width="0.1" fill="none" />
<path d="M-119.2633854591241,-214.01225406230455 L232.6430420082695,76.82587458101965" stroke="#0d6d4d" stroke-width="0.1" fill="none" />
<path d="M-117.20498523774228,-215.14644183769485 L212.5668384287396,121.82093087975528" stroke="#0d6d4d" stroke-width="0.1" fill="none" />
<path d="M-115.13580002277926,-216.260832221451 L183.89373057780267,161.8891468078652" stroke="#0d6d4d" stroke-width="0.1" fill="none" />
<path d="M-113.0560202169658,-217.35532266935866 L147.7833535386179,195.4100315154774" stroke="#0d6d4d" stroke-width="0.1" fill="none" />
<path d="M-110.96583719792866,-218.42981246835973 L105.69613009822493,221.0278898289967" stroke="#0d6d4d" stroke-width="0.1" fill="none" />
<path d="M-108.86544330057838,-219.48420274582077 L59.334206431638165,237.70665103679312" stroke="#0d6d4d" stroke-width="0.1" fill="none" />
<path d="M-106.75503179941391,-220.5183964786297 L10.5726116946097,244.7717710071057" stroke="#0d6d4d" stroke-width="0.1" fill="none" />
<path d="M-104.6347968907346,-221.53229850212523 L-38.61657434174456,241.93751297826577" stroke="#0d6d4d" stroke-width="0.1" fill="none" />
<path d="M-102.50493367477365,-222.52581551885223 L-86.24397870340478,229.31850369607477" stroke="#0d6d4d" stroke-width="0.1" fill="none" />
<path d="M-100.36563813774312,-223.4988561071479 L-130.3833920200883,207.42509753001437" stroke="#0d6d4d" stroke-width="0.1" fill="none" />
<path d="M-98.21710713380057,-224.4513307295538 L-169.24967078735898,177.14273605872356" stroke="#0d6d4d" stroke-width="0.1" fill="none" />
<path d="M-96.0595383669348,-225.3831517410549 L-201.27093445970038,139.69613789120652" stroke="#0d6d4d" stroke-width="0.1" fill="none" />
<path d="M-93.89313037277341,-226.29423339714464 L-225.15213748590884,96.59976700554928" stroke="#0d6d4d" stroke-width="0.1" fill="none" />
<path d="M-91.71808250031391,-227.18449186171492 L-239.92744522394912,49.596582828949934" stroke="#0d6d4d" stroke-width="0.1" fill="none" />
<path d="M-89.53459489357981,-228.05384521477063 L-244.99929548047334,0.5875492079070895" stroke="#0d6d4d" stroke-width="0.1" fill="none" />
<path d="M-87.34286847320467,-228.90221345996736 L-240.16256589746672,-48.445246841614505" stroke="#0d6d4d" stroke-width="0.1" fill="none" />
<path d="M-85.14310491794164,-229.72951853197355 L-225.6128697771694,-95.51875727264247" stroke="#0d6d4d" stroke-width="0.1" fill="none" />
<path d="M-82.93550664610802,-230.5356843036526 L-201.93864483474349,-138.72917401292108" stroke="#0d6d4d" stroke-width="0.1" fill="none" />
<path d="M-80.720276796957,-231.3206365930689 L-170.09735483562986,-176.32892524461727" stroke="#0d6d4d" stroke-width="0.1" fill="none" />
<path d="M-78.49761921198602,-232.0843031703136 L-131.3767666018964,-206.7973529744296" stroke="#0d6d4d" stroke-width="0.1" fill="none" />
<path d="M-76.26773841617961,-232.8266137641511 L-87.34286847320467,-228.90221345996736" stroke="#0d6d4d" stroke-width="0.1" fill="none" />
<path d="M-74.0308395991892,-233.54750006848525 L-39.77653657165963,-241.74951321225743" stroke="#0d6d4d" stroke-width="0.1" fill="none" />
<path d="M-71.78712859645204,-234.2468957486448 L9.39848970423986,-244.81966504200454" stroke="#0d6d4d" stroke-width="0.1" fill="none" />
<path d="M-69.53681187025055,-234.92473644748733 L58.193410047904635,-237.98850187981023" stroke="#0d6d4d" stroke-width="0.1" fill="none" />
<path d="M-67.280096490714,-235.58095979132145 L104.63479689073459,-221.53229850212523" stroke="#0d6d4d" stroke-width="0.1" fill="none" />
<path d="M-65.01719011676416,-236.21550539564618 L146.8444073239562,-196.11659806777203" stroke="#0d6d4d" stroke-width="0.1" fill="none" />
<path d="M-62.748300977007865,-236.8283148707072 L183.11514543877155,-162.76929535676422" stroke="#0d6d4d" stroke-width="0.1" fill="none" />
<path d="M-60.47363785057395,-237.4193318268705 L211.98010291716065,-122.83906531405219" stroke="#0d6d4d" stroke-width="0.1" fill="none" />
<path d="M-58.193410047904635,-237.98850187981023 L232.2718856440572,-77.94081818504355" stroke="#0d6d4d" stroke-width="0.1" fill="none" />
<path d="M-55.907827391492866,-238.53577265551397 L243.16982697696514,-29.890387217178045" stroke="#0d6d4d" stroke-width="0.1" fill="none" />
<path d="M-53.61710019657593,-239.06109379510156 L244.23317821262032,19.368909627607945" stroke="#0d6d4d" stroke-width="0.1" fill="none" />
<path d="M-51.32143925178234,-239.56441695945918 L235.41893391872023,67.84486386288384" stroke="#0d6d4d" stroke-width="0.1" fill="none" />
<path d="M-49.02105579973546,-240.04569583368752 L217.0835712154948,113.57694796184303" stroke="#0d6d4d" stroke-width="0.1" fill="none" />
<path d="M-46.716161517615355,-240.5048861313634 L189.96863266483328,154.7156055588887" stroke="#0d6d4d" stroke-width="0.1" fill="none" />
<path d="M-44.40696849768063,-240.94194559861512 L155.17073584249778,189.5970536113306" stroke="#0d6d4d" stroke-width="0.1" fill="none" />
<path d="M-42.09368922775206,-241.3568340180104 L114.09722250527034,216.8105712749792" stroke="#0d6d4d" stroke-width="0.1" fill="none" />
<path d="M-39.77653657165963,-241.74951321225743 L68.40924104704256,235.25555410949946" stroke="#0d6d4d" stroke-width="0.1" fill="none" />
<path d="M-37.4557237496563,-242.1199470477173 L19.954564177111617,244.186026153221" stroke="#0d6d4d" stroke-width="0.1" fill="none" />
<path d="M-35.13146431879543,-242.46810143772976 L-29.307141104571162,243.24080965223897" stroke="#0d6d4d" stroke-width="0.1" fill="none" />
<path d="M-32.80397215328269,-242.793944345749 L-77.38356890644101,232.45813228042184" stroke="#0d6d4d" stroke-width="0.1" fill="none" />
<path d="M-30.473461424793364,-243.09744578829213 L-122.33034986882284,212.27408108615475" stroke="#0d6d4d" stroke-width="0.1" fill="none" />
<path d="M-28.140146582765738,-243.37857783769806 L-162.3296878759263,183.50496569331398" stroke="#0d6d4d" stroke-width="0.1" fill="none" />
<path d="M-25.8042423346676,-243.63731462469732 L-195.76387772825524,147.31430404681257" stroke="#0d6d4d" stroke-width="0.1" fill="none" />
<path d="M-23.465963626239283,-243.87363234079248 L-221.28073047819558,105.16576590809468" stroke="#0d6d4d" stroke-width="0.1" fill="none" />
<path d="M-21.125525621714722,-244.087509240449 L-237.8482604123582,58.763977220871006" stroke="#0d6d4d" stroke-width="0.1" fill="none" />
<path d="M-18.783143684022413,-244.27892564309627 L-244.7964219586748,9.985579413856286" stroke="#0d6d4d" stroke-width="0.1" fill="none" />
<path d="M-16.43903335496812,-244.44786393493857 L-241.84420854002616,-39.19666817024548" stroke="#0d6d4d" stroke-width="0.1" fill="none" />
<path d="M-14.093410335400877,-244.59430857057572 L-229.11101740734986,-86.7936731713149" stroke="#0d6d4d" stroke-width="0.1" fill="none" />
<path d="M-11.746490465365673,-244.71824607443367 L-207.11182082088303,-130.8804556695095" stroke="#0d6d4d" stroke-width="0.1" fill="none" />
<path d="M-9.39848970423984,-244.81966504200454 L-176.73633887290245,-169.67400072433784" stroke="#0d6d4d" stroke-width="0.1" fill="none" />
<path d="M-7.049624110864113,-244.89855614089586 L-139.21305627172308,-201.60536938158683" stroke="#0d6d4d" stroke-width="0.1" fill="none" />
<path d="M-4.700109823657593,-244.95491211168957 L-96.0595383669348,-225.3831517410549" stroke="#0d6d4d" stroke-width="0.1" fill="none" />
<path d="M-2.3501630407334253,-244.98872776860975 L-49.02105579973546,-240.04569583368752" stroke="#0d6d4d" stroke-width="0.1" fill="none" />
</svg>