<?xml version="1.0" encoding="UTF-8"?>
<svg xmlns="http://www.w3.org/2000/svg" xmlns:xlink="http://www.w3.org/1999/xlink"
     width="500.0" height="500" viewBox="-250.0 -250.0 500 500">
<defs>
</defs>
<circle cx="0" cy="0" r="245.0" fill="white" stroke-width="2" stroke="black" />
<path d="M0.0,-245.0 L0.0,-245.0" stroke="#0d6d4d" stroke-width="0.1" fill="none" />
<path d="M2.5401861707247004,-244.9868311853069 L52.92436638423847,-239.21540803808372" stroke="#0d6d4d" stroke-width="0.1" fill="none" />
<path d="M5.080099270094558,-244.94732615688213 L103.34958285520527,-222.13478728838277" stroke="#0d6d4d" stroke-width="0.1" fill="none" />
<path d="M7.619466256110044,-244.88148916153708 L148.89451225473024,-194.5647044569646" stroke="#0d6d4d" stroke-width="0.1" fill="none" />
<path d="M10.158014145479106,-244.78932727678355 L187.40847023578866,-157.80705080534744" stroke="#0d6d4d" stroke-width="0.1" fill="none" />
<path d="M12.695470042963011,-244.6708504100728 L217.0727830697371,-113.5975653364052" stroke="#0d6d4d" stroke-width="0.1" fill="none" />
<path d="M15.231561170712729,-244.52607129773062 L236.48666752739175,-64.02387118715087" stroke="#0d6d4d" stroke-width="0.1" fill="none" />
<path d="M17.766014897592704,-244.35500550358796 L244.73337748643965,-11.426895644917314" stroke="#0d6d4d" stroke-width="0.1" fill="none" />
<path d="M20.298558768488828,-244.15767141730814 L241.42349374572692,41.70967115198769" stroke="#0d6d4d" stroke-width="0.1" fill="none" />
<path d="M22.828920533597536,-243.93409025240956 L226.71331285122417,92.87665894089297" stroke="#0d6d4d" stroke-width="0.1" fill="none" />
<path d="M25.356828177692762,-243.68428604398554 L201.2974665919982,139.65790326237672" stroke="#0d6d4d" stroke-width="0.1" fill="none" />
<path d="M27.88200994936777,-243.40828564612045 L166.37612068214204,179.84433954606774" stroke="#0d6d4d" stroke-width="0.1" fill="none" />
<path d="M30.404194390248538,-243.10611872900273 L123.59830154491675,211.53831769968255" stroke="#0d6d4d" stroke-width="0.1" fill="none" />
<path d="M32.923110364175685,-242.77781777573566 L74.98402737403238,233.24321134551883" stroke="#0d6d4d" stroke-width="0.1" fill="none" />
<path d="M35.43848708635176,-242.423418078845 L22.828920533597568,243.93409025240956" stroke="#0d6d4d" stroke-width="0.1" fill="none" />
<path d="M37.95005415245074,-242.0429577364854 L-30.404194390248556,243.10611872900273" stroke="#0d6d4d" stroke-width="0.1" fill="none" />
<path d="M40.45754156768665,-241.63647764834454 L-82.20158802039369,230.79839455014732" stroke="#0d6d4d" stroke-width="0.1" fill="none" />
<path d="M42.960679775838116,-241.20402151124657 L-130.11732740303233,207.59210271465554" stroke="#0d6d4d" stroke-width="0.1" fill="none" />
<path d="M45.45919968822585,-240.7456358144546 L-171.88877579627032,174.58307121613913" stroke="#0d6d4d" stroke-width="0.1" fill="none" />
<path d="M47.95283271263977,-240.26136983467316 L-205.54343699918374,133.33002477522678" stroke="#0d6d4d" stroke-width="0.1" fill="none" />
<path d="M50.44131078221286,-239.75127563075077 L-229.49209890830036,85.78098005189078" stroke="#0d6d4d" stroke-width="0.1" fill="none" />
<path d="M52.92436638423847,-239.21540803808372 L-242.603877954819,34.181258041261145" stroke="#0d6d4d" stroke-width="0.1" fill="none" />
<path d="M55.40173258892801,-238.65382466272126 L-244.25962073727916,-19.032542585806574" stroke="#0d6d4d" stroke-width="0.1" fill="none" />
<path d="M57.87314307810623,-238.06658587517285 L-234.38114116269784,-71.34760449567665" stroke="#0d6d4d" stroke-width="0.1" fill="none" />
<path d="M60.33833217384033,-237.4537548039182 L-213.43491248448788,-120.29354983846389" stroke="#0d6d4d" stroke-width="0.1" fill="none" />
<path d="M62.79703486700065,-236.81539732862117 L-182.41003989484875,-163.55909435295763" stroke="#0d6d4d" stroke-width="0.1" fill="none" />
<path d="M65.24898684574922,-236.1515820730474 L-142.77155383134368,-199.10118888792135" stroke="#0d6d4d" stroke-width="0.1" fill="none" />
<path d="M67.69392452395341,-235.46238039768753 L-96.39122954185444,-225.24149455064787" stroke="#0d6d4d" stroke-width="0.1" fill="none" />
<path d="M70.13158506952166,-234.74786639208557 L-45.45919968822592,-240.7456358144546" stroke="#0d6d4d" stroke-width="0.1" fill="none" />
<path d="M72.56170643265796,-234.00811686687445 L7.619466256110044,-244.88148916153708" stroke="#0d6d4d" stroke-width="0.1" fill="none" />
<path d="M74.9840273740324,-233.24321134551883 L60.33833217384033,-237.4537548039182" stroke="#0d6d4d" stroke-width="0.1" fill="none" />
<path d="M77.39828749286453,-232.4532320557662 L110.20795212187078,-218.81317896576394" stroke="#0d6d4d" stroke-width="0.1" fill="none" />
<path d="M79.80422725491661,-231.63826392080742 L154.87342485371,-189.839991240208" stroke="#0d6d4d" stroke-width="0.1" fill="none" />
<path d="M82.20158802039361,-230.79839455014732 L192.2255949853596,-151.90233912788995" stroke="#0d6d4d" stroke-width="0.1" fill="none" />
<path d="M84.5901120717472,-229.9337142301869 L220.50064975678987,-106.79168252646593" stroke="#0d6d4d" stroke-width="0.1" fill="none" />
<path d="M86.96954264138044,-229.0443159145171 L238.36340831450215,-56.638198918167596" stroke="#0d6d4d" stroke-width="0.1" fill="none" />
<path d="M89.33962393925052,-228.1302952139266 L244.97037049873663,-3.810193920485998" stroke="#0d6d4d" stroke-width="0.1" fill="none" />
<path d="M91.70010118036625,-227.19175038612337 L240.00954789852503,49.19773284965099" stroke="#0d6d4d" stroke-width="0.1" fill="none" />
<path d="M94.0507206121776,-226.22878232517215 L223.71519630601162,99.88248566071373" stroke="#0d6d4d" stroke-width="0.1" fill="none" />
<path d="M96.39122954185432,-225.24149455064793 L196.85675388647553,145.85067174778317" stroke="#0d6d4d" stroke-width="0.1" fill="none" />
<path d="M98.72137636345042,-224.2299931965079 L160.70250741648533,184.93162009254792" stroke="#0d6d4d" stroke-width="0.1" fill="none" />
<path d="M101.04091058495197,-223.19438699968183 L116.95970231252612,215.27988302432084" stroke="#0d6d4d" stroke-width="0.1" fill="none" />
<path d="M103.34958285520527,-222.13478728838277 L67.69392452395347,235.46238039768753" stroke="#0d6d4d" stroke-width="0.1" fill="none" />
<path d="M105.64714499072197,-221.0513079701393 L15.231561170712729,244.52607129773062" stroke="#0d6d4d" stroke-width="0.1" fill="none" />
<path d="M107.93335000235916,-219.9440655195503 L-37.9500541524507,242.04295773648542" stroke="#0d6d4d" stroke-width="0.1" fill="none" />
<path d="M110.20795212187078,-218.81317896576394 L-89.33962393925042,228.13029521392662" stroke="#0d6d4d" stroke-width="0.1" fill="none" />
<path d="M112.47070682832768,-217.658769879682 L-136.51047315037994,203.44505577737542" stroke="#0d6d4d" stroke-width="0.1" fill="none" />
<path d="M114.72137087440397,-216.48096236089089 L-177.23513962107612,169.15290504007805" stroke="#0d6d4d" stroke-width="0.1" fill="none" />
<path d="M116.95970231252612,-215.27988302432084 L-209.5905574058851,126.87315810008978" stroke="#0d6d4d" stroke-width="0.1" fill="none" />
<path d="M119.18546052088244,-214.0556609866349 L-232.04886618119502,78.60231360476509" stroke="#0d6d4d" stroke-width="0.1" fill="none" />
<path d="M121.39840622929009,-212.80842785234861 L-243.5495585803129,26.619776770941222" stroke="#0d6d4d" stroke-width="0.1" fill="none" />
<path d="M123.59830154491675,-211.53831769968255 L-243.5495585803129,-26.619776770941137" stroke="#0d6d4d" stroke-width="0.1" fill="none" />
<path d="M125.78490997785418,-210.24546706614893 L-232.04886618119505,-78.602313604765" stroke="#0d6d4d" stroke-width="0.1" fill="none" />
<path d="M127.95799646654112,-208.9300149338736 L-209.59055740588516,-126.8731581000897" stroke="#0d6d4d" stroke-width="0.1" fill="none" />
<path d="M130.11732740303236,-207.59210271465548 L-177.23513962107617,-169.15290504007797" stroke="#0d6d4d" stroke-width="0.1" fill="none" />
<path d="M132.262670658112,-206.2318742347647 L-136.5104731503801,-203.4450557773753" stroke="#0d6d4d" stroke-width="0.1" fill="none" />
<path d="M134.39379560624695,-204.8494757194812 L-89.33962393925059,-228.13029521392656" stroke="#0d6d4d" stroke-width="0.1" fill="none" />
<path d="M136.51047315038,-203.4450557773754 L-37.95005415245078,-242.0429577364854" stroke="#0d6d4d" stroke-width="0.1" fill="none" />
<path d="M138.6124757465572,-202.01876538433277 L15.231561170712729,-244.52607129773062" stroke="#0d6d4d" stroke-width="0.1" fill="none" />
<path d="M140.69957742838946,-200.5707578673238 L67.69392452395341,-235.46238039768753" stroke="#0d6d4d" stroke-width="0.1" fill="none" />
<path d="M142.7715538313437,-199.10118888792135 L116.95970231252612,-215.27988302432084" stroke="#0d6d4d" stroke-width="0.1" fill="none" />
<path d="M144.82818221686247,-197.61021642556665 L160.70250741648528,-184.93162009254797" stroke="#0d6d4d" stroke-width="0.1" fill="none" />
<path d="M146.86924149630812,-196.09800076058687 L196.85675388647553,-145.8506717477832" stroke="#0d6d4d" stroke-width="0.1" fill="none" />
<path d="M148.89451225473024,-194.5647044569646 L223.71519630601162,-99.88248566071375" stroke="#0d6d4d" stroke-width="0.1" fill="none" />
<path d="M150.90377677445278,-193.01049234486226 L240.009547898525,-49.19773284965102" stroke="#0d6d4d" stroke-width="0.1" fill="none" />
<path d="M152.89681905847868,-191.43553150290265 L244.97037049873663,3.8101939204859683" stroke="#0d6d4d" stroke-width="0.1" fill="none" />
<path d="M154.87342485371,-189.839991240208 L238.36340831450218,56.63819891816751" stroke="#0d6d4d" stroke-width="0.1" fill="none" />
<path d="M156.83338167397972,-188.22404307819923 L220.50064975678987,106.79168252646592" stroke="#0d6d4d" stroke-width="0.1" fill="none" />
<path d="M158.77647882289472,-186.58786073215714 L192.2255949853597,151.90233912788986" stroke="#0d6d4d" stroke-width="0.1" fill="none" />
<path d="M160.70250741648528,-184.93162009254797 L154.87342485371,189.839991240208" stroke="#0d6d4d" stroke-width="0.1" fill="none" />
<path d="M162.61126040566046,-183.2554992061152 L110.20795212187083,218.8131789657639" stroke="#0d6d4d" stroke-width="0.1" fill="none" />
<path d="M164.5025325984659,-181.55967825673923 L60.33833217384034,237.4537548039182" stroke="#0d6d4d" stroke-width="0.1" fill="none" />
<path d="M166.37612068214204,-179.84433954606772 L7.619466256110113,244.88148916153708" stroke="#0d6d4d" stroke-width="0.1" fill="none" />
<path d="M168.2318232449805,-178.10966747391802 L-45.45919968822584,240.7456358144546" stroke="#0d6d4d" stroke-width="0.1" fill="none" />
<path d="M170.06944079797572,-176.35584851845385 L-96.39122954185426,225.24149455064793" stroke="#0d6d4d" stroke-width="0.1" fill="none" />
<path d="M171.88877579627027,-174.5830712161392 L-142.7715538313438,199.10118888792127" stroke="#0d6d4d" stroke-width="0.1" fill="none" />
<path d="M173.68963266039106,-172.7915261414703 L-182.4100398948487,163.5590943529577" stroke="#0d6d4d" stroke-width="0.1" fill="none" />
<path d="M175.47181779727416,-170.98140588648877 L-213.43491248448782,120.29354983846397" stroke="#0d6d4d" stroke-width="0.1" fill="none" />
<path d="M177.23513962107617,-169.15290504007797 L-234.38114116269784,71.34760449567673" stroke="#0d6d4d" stroke-width="0.1" fill="none" />
<path d="M178.9794085737698,-167.30622016704453 L-244.25962073727916,19.032542585806663" stroke="#0d6d4d" stroke-width="0.1" fill="none" />
<path d="M180.70443714552147,-165.44154978698757 L-242.603877954819,-34.18125804126105" stroke="#0d6d4d" stroke-width="0.1" fill="none" />
<path d="M182.4100398948487,-163.55909435295763 L-229.49209890830042,-85.7809800518907" stroke="#0d6d4d" stroke-width="0.1" fill="none" />
<path d="M184.09603346855525,-161.6590562299081 L-205.5434369991838,-133.3300247752267" stroke="#0d6d4d" stroke-width="0.1" fill="none" />
<path d="M185.76223662144156,-159.74163967294052 L-171.88877579627035,-174.58307121613907" stroke="#0d6d4d" stroke-width="0.1" fill="none" />
<path d="M187.40847023578866,-157.80705080534744 L-130.11732740303248,-207.59210271465543" stroke="#0d6d4d" stroke-width="0.1" fill="none" />
<path d="M189.03455734061373,-155.85549759645383 L-82.20158802039366,-230.79839455014732" stroke="#0d6d4d" stroke-width="0.1" fill="none" />
<path d="M190.6403231306942,-153.88718983926017 L-30.404194390248538,-243.10611872900273" stroke="#0d6d4d" stroke-width="0.1" fill="none" />
<path d="M192.2255949853596,-151.90233912788995 L22.828920533597536,-243.93409025240956" stroke="#0d6d4d" stroke-width="0.1" fill="none" />
<path d="M193.79020248704845,-149.90115883484273 L74.9840273740324,-233.24321134551883" stroke="#0d6d4d" stroke-width="0.1" fill="none" />
<path d="M195.33397743962803,-147.88386408805692 L123.59830154491675,-211.53831769968255" stroke="#0d6d4d" stroke-width="0.1" fill="none" />
<path d="M196.85675388647553,-145.8506717477832 L166.37612068214204,-179.84433954606772" stroke="#0d6d4d" stroke-width="0.1" fill="none" />
<path d="M198.35836812831883,-143.8018003832718 L201.29746659199813,-139.6579032623768" stroke="#0d6d4d" stroke-width="0.1" fill="none" />
<path d="M199.8386587408339,-141.73747024927644 L226.71331285122417,-92.87665894089294" stroke="#0d6d4d" stroke-width="0.1" fill="none" />
<path d="M201.29746659199813,-139.6579032623768 L241.42349374572692,-41.70967115198766" stroke="#0d6d4d" stroke-width="0.1" fill="none" />
<path d="M202.73463485919717,-137.56332297712208 L244.73337748643965,11.426895644917284" stroke="#0d6d4d" stroke-width="0.1" fill="none" />
<path d="M204.15000904608323,-135.45395456199918 L236.48666752739172,64.02387118715089" stroke="#0d6d4d" stroke-width="0.1" fill="none" />
<path d="M205.54343699918377,-133.33002477522672 L217.0727830697371,113.59756533640522" stroke="#0d6d4d" stroke-width="0.1" fill="none" />
<path d="M206.914768924258,-131.1917619403784 L187.40847023578868,157.80705080534744" stroke="#0d6d4d" stroke-width="0.1" fill="none" />
<path d="M208.26385740239976,-129.03939592183818 L148.89451225473033,194.56470445696456" stroke="#0d6d4d" stroke-width="0.1" fill="none" />
<path d="M209.59055740588514,-126.87315810008973 L103.34958285520527,222.13478728838277" stroke="#0d6d4d" stroke-width="0.1" fill="none" />
<path d="M210.89472631376313,-124.69328134684298 L52.92436638423853,239.21540803808372" stroke="#0d6d4d" stroke-width="0.1" fill="none" />
<path d="M212.17622392718746,-122.50000000000003 L3.0003846579110155e-14,245.0" stroke="#0d6d4d" stroke-width="0.1" fill="none" />
<path d="M213.43491248448785,-120.29354983846395 L-52.924366384238375,239.21540803808375" stroke="#0d6d4d" stroke-width="0.1" fill="none" />
<path d="M214.6706566759797,-118.0741680567924 L-103.34958285520533,222.13478728838277" stroke="#0d6d4d" stroke-width="0.1" fill="none" />
<path d="M215.88332365850982,-115.84209323969891 L-148.8945122547302,194.56470445696465" stroke="#0d6d4d" stroke-width="0.1" fill="none" />
<path d="M217.0727830697371,-113.5975653364052 L-187.40847023578863,157.8070508053475" stroke="#0d6d4d" stroke-width="0.1" fill="none" />
<path d="M218.23890704214682,-111.3408256348461 L-217.0727830697371,113.59756533640518" stroke="#0d6d4d" stroke-width="0.1" fill="none" />
<path d="M219.38157021679595,-109.07211673573144 L-236.48666752739175,64.0238711871508" stroke="#0d6d4d" stroke-width="0.1" fill="none" />
<path d="M220.50064975678987,-106.79168252646593 L-244.73337748643965,11.426895644917398" stroke="#0d6d4d" stroke-width="0.1" fill="none" />
<path d="M221.59602536048698,-104.49976815493142 L-241.42349374572692,-41.70967115198761" stroke="#0d6d4d" stroke-width="0.1" fill="none" />
<path d="M222.66757927443146,-102.19662000313308 L-226.71331285122417,-92.87665894089294" stroke="#0d6d4d" stroke-width="0.1" fill="none" />
<path d="M223.71519630601162,-99.88248566071375 L-201.29746659199813,-139.6579032623768" stroke="#0d6d4d" stroke-width="0.1" fill="none" />
<path d="M224.7387638358433,-97.55761389833727 L-166.37612068214213,-179.84433954606766" stroke="#0d6d4d" stroke-width="0.1" fill="none" />
<path d="M225.73817182987656,-95.22225464094585 L-123.59830154491678,-211.53831769968252" stroke="#0d6d4d" stroke-width="0.1" fill="none" />
<path d="M226.71331285122417,-92.87665894089294 L-74.98402737403241,-233.2432113455188" stroke="#0d6d4d" stroke-width="0.1" fill="none" />
<path d="M227.66408207171145,-90.52107895095509 L-22.828920533597707,-243.93409025240953" stroke="#0d6d4d" stroke-width="0.1" fill="none" />
<path d="M228.59037728314496,-88.15576789722523 L30.404194390248538,-243.10611872900273" stroke="#0d6d4d" stroke-width="0.1" fill="none" />
<path d="M229.4920989083004,-85.78098005189075 L82.20158802039361,-230.79839455014732" stroke="#0d6d4d" stroke-width="0.1" fill="none" />
<path d="M230.3691500116268,-83.3969707058991 L130.11732740303236,-207.59210271465548" stroke="#0d6d4d" stroke-width="0.1" fill="none" />
<path d="M231.22143630966738,-81.0039961415141 L171.88877579627027,-174.5830712161392" stroke="#0d6d4d" stroke-width="0.1" fill="none" />
<path d="M232.04886618119502,-78.60231360476511 L205.54343699918377,-133.33002477522672" stroke="#0d6d4d" stroke-width="0.1" fill="none" />
<path d="M232.8513506770616,-76.19218127779313 L229.4920989083004,-85.78098005189075" stroke="#0d6d4d" stroke-width="0.1" fill="none" />
<path d="M233.62880352975992,-73.7738582510962 L242.603877954819,-34.18125804126117" stroke="#0d6d4d" stroke-width="0.1" fill="none" />
<path d="M234.38114116269784,-71.34760449567676 L244.25962073727916,19.032542585806496" stroke="#0d6d4d" stroke-width="0.1" fill="none" />
<path d="M235.1082826991824,-68.9136808350949 L234.38114116269784,71.34760449567673" stroke="#0d6d4d" stroke-width="0.1" fill="none" />
<path d="M235.8101499711145,-66.47234891742949 L213.43491248448788,120.2935498384639" stroke="#0d6d4d" stroke-width="0.1" fill="none" />
<path d="M236.48666752739175,-64.02387118715087 L182.41003989484872,163.55909435295763" stroke="#0d6d4d" stroke-width="0.1" fill="none" />
<path d="M237.1377626420195,-61.5685108569082 L142.77155383134374,199.1011888879213" stroke="#0d6d4d" stroke-width="0.1" fill="none" />
<path d="M237.76336532192914,-59.106531879233685 L96.3912295418543,225.24149455064793" stroke="#0d6d4d" stroke-width="0.1" fill="none" />
<path d="M238.36340831450215,-56.638198918167596 L45.45919968822589,240.7456358144546" stroke="#0d6d4d" stroke-width="0.1" fill="none" />
<path d="M238.93782711480003,-54.163777320806766 L-7.619466256110054,244.88148916153708" stroke="#0d6d4d" stroke-width="0.1" fill="none" />
<path d="M239.4865599724983,-51.683533088779576 L-60.33833217384029,237.4537548039182" stroke="#0d6d4d" stroke-width="0.1" fill="none" />
<path d="M240.009547898525,-49.19773284965102 L-110.20795212187068,218.813178965764" stroke="#0d6d4d" stroke-width="0.1" fill="none" />
<path d="M240.50673467140192,-46.70664382825945 L-154.87342485371002,189.83999124020795" stroke="#0d6d4d" stroke-width="0.1" fill="none" />
<path d="M240.97806684328833,-44.210533817990246 L-192.22559498535963,151.90233912788992" stroke="#0d6d4d" stroke-width="0.1" fill="none" />
<path d="M241.42349374572692,-41.70967115198766 L-220.5006497567899,106.79168252646588" stroke="#0d6d4d" stroke-width="0.1" fill="none" />
<path d="M241.84296749509042,-39.20432467430907 L-238.36340831450215,56.638198918167674" stroke="#0d6d4d" stroke-width="0.1" fill="none" />
<path d="M242.23644299772923,-36.69476371102396 L-244.97037049873663,3.8101939204860282" stroke="#0d6d4d" stroke-width="0.1" fill="none" />
<path d="M242.603877954819,-34.18125804126117 L-240.009547898525,-49.19773284965101" stroke="#0d6d4d" stroke-width="0.1" fill="none" />
<path d="M242.94523286690787,-31.664077868207514 L-223.7151963060116,-99.8824856607138" stroke="#0d6d4d" stroke-width="0.1" fill="none" />
<path d="M243.26047103816245,-29.143493790061065 L-196.85675388647562,-145.85067174778305" stroke="#0d6d4d" stroke-width="0.1" fill="none" />
<path d="M243.5495585803129,-26.6197767709413 L-160.70250741648533,-184.93162009254792" stroke="#0d6d4d" stroke-width="0.1" fill="none" />
<path d="M243.8124644162957,-24.09319811176052 L-116.95970231252615,-215.27988302432084" stroke="#0d6d4d" stroke-width="0.1" fill="none" />
<path d="M244.04916028359472,-21.564029421058933 L-67.69392452395338,-235.46238039768753" stroke="#0d6d4d" stroke-width="0.1" fill="none" />
<path d="M244.25962073727916,-19.032542585806524 L-15.231561170712867,-244.52607129773062" stroke="#0d6d4d" stroke-width="0.1" fill="none" />
<path d="M244.44382315273916,-16.499009742174923 L37.95005415245074,-242.0429577364854" stroke="#0d6d4d" stroke-width="0.1" fill="none" />
<path d="M244.60174772811774,-13.9637032462828 L89.33962393925052,-228.1302952139266" stroke="#0d6d4d" stroke-width="0.1" fill="none" />
<path d="M244.73337748643965,-11.426895644917314 L136.51047315038,-203.4450557773754" stroke="#0d6d4d" stroke-width="0.1" fill="none" />
<path d="M244.83869827743638,-8.888859646235376 L177.23513962107617,-169.15290504007797" stroke="#0d6d4d" stroke-width="0.1" fill="none" />
<path d="M244.91769877906725,-6.349868090447254 L209.59055740588514,-126.87315810008973" stroke="#0d6d4d" stroke-width="0.1" fill="none" />
<path d="M244.97037049873663,-3.810193920485998 L232.04886618119502,-78.60231360476511" stroke="#0d6d4d" stroke-width="0.1" fill="none" />
<path d="M244.9967077742068,-1.2701101526660465 L243.5495585803129,-26.6197767709413" stroke="#0d6d4d" stroke-width="0.1" fill="none" />
<path d="M244.9967077742068,1.2701101526660166 L243.5495585803129,26.61977677094122" stroke="#0d6d4d" stroke-width="0.1" fill="none" />
<path d="M244.97037049873663,3.8101939204859683 L232.04886618119505,78.60231360476503" stroke="#0d6d4d" stroke-width="0.1" fill="none" />
<path d="M244.91769877906725,6.349868090447223 L209.59055740588514,126.87315810008973" stroke="#0d6d4d" stroke-width="0.1" fill="none" />
<path d="M244.83869827743638,8.888859646235346 L177.2351396210762,169.1529050400779" stroke="#0d6d4d" stroke-width="0.1" fill="none" />
<path d="M244.73337748643965,11.426895644917284 L136.51047315038,203.4450557773754" stroke="#0d6d4d" stroke-width="0.1" fill="none" />
<path d="M244.60174772811774,13.963703246282714 L89.33962393925056,228.13029521392656" stroke="#0d6d4d" stroke-width="0.1" fill="none" />
<path d="M244.44382315273918,16.4990097421749 L37.95005415245075,242.0429577364854" stroke="#0d6d4d" stroke-width="0.1" fill="none" />
<path d="M244.25962073727916,19.032542585806496 L-15.231561170712668,244.52607129773062" stroke="#0d6d4d" stroke-width="0.1" fill="none" />
<path d="M244.04916028359472,21.56402942105896 L-67.69392452395331,235.46238039768753" stroke="#0d6d4d" stroke-width="0.1" fill="none" />
<path d="M243.8124644162957,24.09319811176049 L-116.95970231252608,215.27988302432087" stroke="#0d6d4d" stroke-width="0.1" fill="none" />
<path d="M243.5495585803129,26.61977677094122 L-160.7025074164852,184.93162009254803" stroke="#0d6d4d" stroke-width="0.1" fill="none" />
<path d="M243.26047103816245,29.143493790060987 L-196.85675388647556,145.85067174778317" stroke="#0d6d4d" stroke-width="0.1" fill="none" />
<path d="M242.94523286690787,31.66407786820749 L-223.71519630601156,99.88248566071388" stroke="#0d6d4d" stroke-width="0.1" fill="none" />
<path d="M242.603877954819,34.18125804126108 L-240.009547898525,49.19773284965111" stroke="#0d6d4d" stroke-width="0.1" fill="none" />
<path d="M242.23644299772923,36.69476371102399 L-244.97037049873663,-3.810193920485938" stroke="#0d6d4d" stroke-width="0.1" fill="none" />
<path d="M241.8429674950904,39.2043246743091 L-238.36340831450215,-56.63819891816759" stroke="#0d6d4d" stroke-width="0.1" fill="none" />
<path d="M241.42349374572692,41.70967115198769 L-220.5006497567899,-106.7916825264658" stroke="#0d6d4d" stroke-width="0.1" fill="none" />
<path d="M240.97806684328833,44.210533817990225 L-192.22559498535972,-151.90233912788983" stroke="#0d6d4d" stroke-width="0.1" fill="none" />
<path d="M240.50673467140192,46.70664382825943 L-154.87342485371,-189.83999124020798" stroke="#0d6d4d" stroke-width="0.1" fill="none" />
<path d="M240.00954789852503,49.19773284965099 L-110.20795212187076,-218.81317896576397" stroke="#0d6d4d" stroke-width="0.1" fill="none" />
<path d="M239.4865599724983,51.683533088779605 L-60.33833217384048,-237.45375480391817" stroke="#0d6d4d" stroke-width="0.1" fill="none" />
<path d="M238.93782711480003,54.16377732080669 L-7.619466256110144,-244.88148916153708" stroke="#0d6d4d" stroke-width="0.1" fill="none" />
<path d="M238.36340831450218,56.63819891816751 L45.45919968822585,-240.7456358144546" stroke="#0d6d4d" stroke-width="0.1" fill="none" />
<path d="M237.76336532192917,59.10653187923361 L96.39122954185432,-225.24149455064793" stroke="#0d6d4d" stroke-width="0.1" fill="none" />
<path d="M237.1377626420195,61.56851085690817 L142.7715538313437,-199.10118888792135" stroke="#0d6d4d" stroke-width="0.1" fill="none" />
<path d="M236.48666752739172,64.02387118715089 L182.4100398948487,-163.55909435295763" stroke="#0d6d4d" stroke-width="0.1" fill="none" />
<path d="M235.8101499711145,66.47234891742946 L213.43491248448785,-120.29354983846395" stroke="#0d6d4d" stroke-width="0.1" fill="none" />
<path d="M235.1082826991824,68.91368083509487 L234.38114116269784,-71.34760449567676" stroke="#0d6d4d" stroke-width="0.1" fill="none" />
<path d="M234.38114116269784,71.34760449567673 L244.25962073727916,-19.032542585806524" stroke="#0d6d4d" stroke-width="0.1" fill="none" />
<path d="M233.62880352975992,73.77385825109619 L242.603877954819,34.18125804126108" stroke="#0d6d4d" stroke-width="0.1" fill="none" />
<path d="M232.85135067706162,76.1921812777931 L229.49209890830042,85.78098005189067" stroke="#0d6d4d" stroke-width="0.1" fill="none" />
<path d="M232.04886618119505,78.60231360476503 L205.54343699918385,133.33002477522663" stroke="#0d6d4d" stroke-width="0.1" fill="none" />
<path d="M231.22143630966738,81.00399614151407 L171.8887757962703,174.5830712161392" stroke="#0d6d4d" stroke-width="0.1" fill="none" />
<path d="M230.3691500116268,83.39697070589907 L130.11732740303245,207.59210271465545" stroke="#0d6d4d" stroke-width="0.1" fill="none" />
<path d="M229.49209890830042,85.78098005189067 L82.20158802039363,230.79839455014732" stroke="#0d6d4d" stroke-width="0.1" fill="none" />
<path d="M228.59037728314493,88.15576789722526 L30.404194390248616,243.10611872900273" stroke="#0d6d4d" stroke-width="0.1" fill="none" />
<path d="M227.66408207171142,90.52107895095511 L-22.82892053359751,243.93409025240956" stroke="#0d6d4d" stroke-width="0.1" fill="none" />
<path d="M226.71331285122417,92.87665894089297 L-74.98402737403232,233.24321134551883" stroke="#0d6d4d" stroke-width="0.1" fill="none" />
<path d="M225.73817182987656,95.22225464094582 L-123.59830154491681,211.53831769968252" stroke="#0d6d4d" stroke-width="0.1" fill="none" />
<path d="M224.73876383584332,97.55761389833724 L-166.37612068214202,179.84433954606777" stroke="#0d6d4d" stroke-width="0.1" fill="none" />
<path d="M223.71519630601162,99.88248566071373 L-201.2974665919982,139.6579032623767" stroke="#0d6d4d" stroke-width="0.1" fill="none" />
<path d="M222.66757927443146,102.19662000313305 L-226.71331285122415,92.87665894089302" stroke="#0d6d4d" stroke-width="0.1" fill="none" />
<path d="M221.596025360487,104.49976815493129 L-241.42349374572692,41.7096711519877" stroke="#0d6d4d" stroke-width="0.1" fill="none" />
<path d="M220.50064975678987,106.79168252646592 L-244.73337748643965,-11.426895644917309" stroke="#0d6d4d" stroke-width="0.1" fill="none" />
<path d="M219.38157021679595,109.07211673573143 L-236.48666752739177,-64.02387118715072" stroke="#0d6d4d" stroke-width="0.1" fill="none" />
<path d="M218.23890704214682,111.34082563484608 L-217.07278306973717,-113.5975653364051" stroke="#0d6d4d" stroke-width="0.1" fill="none" />
<path d="M217.0727830697371,113.59756533640522 L-187.4084702357887,-157.80705080534742" stroke="#0d6d4d" stroke-width="0.1" fill="none" />
<path d="M215.8833236585098,115.84209323969894 L-148.89451225473024,-194.5647044569646" stroke="#0d6d4d" stroke-width="0.1" fill="none" />
<path d="M214.67065667597973,118.07416805679237 L-103.3495828552054,-222.1347872883827" stroke="#0d6d4d" stroke-width="0.1" fill="none" />
<path d="M213.43491248448788,120.2935498384639 L-52.92436638423857,-239.2154080380837" stroke="#0d6d4d" stroke-width="0.1" fill="none" />
<path d="M212.17622392718752,122.49999999999994 L0.0,-245.0" stroke="#0d6d4d" stroke-width="0.1" fill="none" />
<path d="M210.89472631376313,124.69328134684298 L52.92436638423847,-239.21540803808372" stroke="#0d6d4d" stroke-width="0.1" fill="none" />
<path d="M209.59055740588514,126.87315810008973 L103.34958285520527,-222.13478728838277" stroke="#0d6d4d" stroke-width="0.1" fill="none" />
<path d="M208.26385740239976,129.03939592183812 L148.89451225473024,-194.5647044569646" stroke="#0d6d4d" stroke-width="0.1" fill="none" />
<path d="M206.91476892425806,131.1917619403783 L187.40847023578866,-157.80705080534744" stroke="#0d6d4d" stroke-width="0.1" fill="none" />
<path d="M205.54343699918385,133.33002477522663 L217.0727830697371,-113.5975653364052" stroke="#0d6d4d" stroke-width="0.1" fill="none" />
<path d="M204.15000904608323,135.45395456199918 L236.48666752739175,-64.02387118715087" stroke="#0d6d4d" stroke-width="0.1" fill="none" />
<path d="M202.73463485919717,137.56332297712206 L244.73337748643965,-11.426895644917314" stroke="#0d6d4d" stroke-width="0.1" fill="none" />
<path d="M201.2974665919982,139.65790326237672 L241.42349374572692,41.70967115198769" stroke="#0d6d4d" stroke-width="0.1" fill="none" />
<path d="M199.83865874083395,141.73747024927638 L226.71331285122417,92.87665894089297" stroke="#0d6d4d" stroke-width="0.1" fill="none" />
<path d="M198.35836812831883,143.8018003832718 L201.2974665919982,139.65790326237672" stroke="#0d6d4d" stroke-width="0.1" fill="none" />
<path d="M196.85675388647553,145.85067174778317 L166.37612068214204,179.84433954606774" stroke="#0d6d4d" stroke-width="0.1" fill="none" />
<path d="M195.33397743962803,147.8838640880569 L123.59830154491675,211.53831769968255" stroke="#0d6d4d" stroke-width="0.1" fill="none" />
<path d="M193.7902024870485,149.90115883484268 L74.98402737403238,233.24321134551883" stroke="#0d6d4d" stroke-width="0.1" fill="none" />
<path d="M192.2255949853597,151.90233912788986 L22.828920533597568,243.93409025240956" stroke="#0d6d4d" stroke-width="0.1" fill="none" />
<path d="M190.64032313069427,153.8871898392601 L-30.404194390248556,243.10611872900273" stroke="#0d6d4d" stroke-width="0.1" fill="none" />
<path d="M189.03455734061382,155.85549759645372 L-82.20158802039369,230.79839455014732" stroke="#0d6d4d" stroke-width="0.1" fill="none" />
<path d="M187.40847023578868,157.80705080534744 L-130.11732740303233,207.59210271465554" stroke="#0d6d4d" stroke-width="0.1" fill="none" />
<path d="M185.7622366214415,159.74163967294058 L-171.88877579627032,174.58307121613913" stroke="#0d6d4d" stroke-width="0.1" fill="none" />
<path d="M184.09603346855525,161.6590562299081 L-205.54343699918374,133.33002477522678" stroke="#0d6d4d" stroke-width="0.1" fill="none" />
<path d="M182.41003989484872,163.55909435295763 L-229.49209890830036,85.78098005189078" stroke="#0d6d4d" stroke-width="0.1" fill="none" />
<path d="M180.7044371455215,165.44154978698754 L-242.603877954819,34.181258041261145" stroke="#0d6d4d" stroke-width="0.1" fill="none" />
<path d="M178.97940857376983,167.3062201670445 L-244.25962073727916,-19.032542585806574" stroke="#0d6d4d" stroke-width="0.1" fill="none" />
<path d="M177.2351396210762,169.1529050400779 L-234.38114116269784,-71.34760449567665" stroke="#0d6d4d" stroke-width="0.1" fill="none" />
<path d="M175.47181779727424,170.9814058864887 L-213.43491248448788,-120.29354983846389" stroke="#0d6d4d" stroke-width="0.1" fill="none" />
<path d="M173.68963266039114,172.79152614147023 L-182.41003989484875,-163.55909435295763" stroke="#0d6d4d" stroke-width="0.1" fill="none" />
<path d="M171.8887757962703,174.5830712161392 L-142.77155383134368,-199.10118888792135" stroke="#0d6d4d" stroke-width="0.1" fill="none" />
<path d="M170.06944079797572,176.35584851845383 L-96.39122954185444,-225.24149455064787" stroke="#0d6d4d" stroke-width="0.1" fill="none" />
<path d="M168.23182324498046,178.10966747391802 L-45.45919968822592,-240.7456358144546" stroke="#0d6d4d" stroke-width="0.1" fill="none" />
<path d="M166.37612068214204,179.84433954606774 L7.619466256110044,-244.88148916153708" stroke="#0d6d4d" stroke-width="0.1" fill="none" />
<path d="M164.5025325984659,181.55967825673923 L60.33833217384033,-237.4537548039182" stroke="#0d6d4d" stroke-width="0.1" fill="none" />
<path d="M162.61126040566046,183.25549920611516 L110.20795212187078,-218.81317896576394" stroke="#0d6d4d" stroke-width="0.1" fill="none" />
<path d="M160.70250741648533,184.93162009254792 L154.87342485371,-189.839991240208" stroke="#0d6d4d" stroke-width="0.1" fill="none" />
<path d="M158.77647882289477,186.58786073215708 L192.2255949853596,-151.90233912788995" stroke="#0d6d4d" stroke-width="0.1" fill="none" />
<path d="M156.83338167397972,188.22404307819923 L220.50064975678987,-106.79168252646593" stroke="#0d6d4d" stroke-width="0.1" fill="none" />
<path d="M154.87342485371,189.839991240208 L238.36340831450215,-56.638198918167596" stroke="#0d6d4d" stroke-width="0.1" fill="none" />
<path d="M152.89681905847874,191.43553150290262 L244.97037049873663,-3.810193920485998" stroke="#0d6d4d" stroke-width="0.1" fill="none" />
<path d="M150.90377677445284,193.01049234486223 L240.00954789852503,49.19773284965099" stroke="#0d6d4d" stroke-width="0.1" fill="none" />
<path d="M148.89451225473033,194.56470445696456 L223.71519630601162,99.88248566071373" stroke="#0d6d4d" stroke-width="0.1" fill="none" />
<path d="M146.86924149630812,196.09800076058687 L196.85675388647553,145.85067174778317" stroke="#0d6d4d" stroke-width="0.1" fill="none" />
<path d="M144.82818221686247,197.61021642556662 L160.70250741648533,184.93162009254792" stroke="#0d6d4d" stroke-width="0.1" fill="none" />
<path d="M142.77155383134374,199.1011888879213 L116.95970231252612,215.27988302432084" stroke="#0d6d4d" stroke-width="0.1" fill="none" />
<path d="M140.6995774283895,200.57075786732378 L67.69392452395347,235.46238039768753" stroke="#0d6d4d" stroke-width="0.1" fill="none" />
<path d="M138.61247574655718,202.0187653843328 L15.231561170712729,244.52607129773062" stroke="#0d6d4d" stroke-width="0.1" fill="none" />
<path d="M136.51047315038,203.4450557773754 L-37.9500541524507,242.04295773648542" stroke="#0d6d4d" stroke-width="0.1" fill="none" />
<path d="M134.39379560624698,204.84947571948118 L-89.33962393925042,228.13029521392662" stroke="#0d6d4d" stroke-width="0.1" fill="none" />
<path d="M132.26267065811203,206.2318742347647 L-136.51047315037994,203.44505577737542" stroke="#0d6d4d" stroke-width="0.1" fill="none" />
<path d="M130.11732740303245,207.59210271465545 L-177.23513962107612,169.15290504007805" stroke="#0d6d4d" stroke-width="0.1" fill="none" />
<path d="M127.9579964665412,208.93001493387354 L-209.5905574058851,126.87315810008978" stroke="#0d6d4d" stroke-width="0.1" fill="none" />
<path d="M125.78490997785418,210.24546706614893 L-232.04886618119502,78.60231360476509" stroke="#0d6d4d" stroke-width="0.1" fill="none" />
<path d="M123.59830154491675,211.53831769968255 L-243.5495585803129,26.619776770941222" stroke="#0d6d4d" stroke-width="0.1" fill="none" />
<path d="M121.39840622929005,212.80842785234864 L-243.5495585803129,-26.619776770941137" stroke="#0d6d4d" stroke-width="0.1" fill="none" />
<path d="M119.18546052088242,214.0556609866349 L-232.04886618119505,-78.602313604765" stroke="#0d6d4d" stroke-width="0.1" fill="none" />
<path d="M116.95970231252612,215.27988302432084 L-209.59055740588516,-126.8731581000897" stroke="#0d6d4d" stroke-width="0.1" fill="none" />
<path d="M114.72137087440399,216.48096236089089 L-177.23513962107617,-169.15290504007797" stroke="#0d6d4d" stroke-width="0.1" fill="none" />
<path d="M112.47070682832772,217.65876987968198 L-136.5104731503801,-203.4450557773753" stroke="#0d6d4d" stroke-width="0.1" fill="none" />
<path d="M110.20795212187083,218.8131789657639 L-89.33962393925059,-228.13029521392656" stroke="#0d6d4d" stroke-width="0.1" fill="none" />
<path d="M107.93335000235925,219.94406551955026 L-37.95005415245078,-242.0429577364854" stroke="#0d6d4d" stroke-width="0.1" fill="none" />
<path d="M105.64714499072207,221.05130797013925 L15.231561170712729,-244.52607129773062" stroke="#0d6d4d" stroke-width="0.1" fill="none" />
<path d="M103.34958285520527,222.13478728838277 L67.69392452395341,-235.46238039768753" stroke="#0d6d4d" stroke-width="0.1" fill="none" />
<path d="M101.04091058495193,223.19438699968185 L116.95970231252612,-215.27988302432084" stroke="#0d6d4d" stroke-width="0.1" fill="none" />
<path d="M98.72137636345037,224.2299931965079 L160.70250741648528,-184.93162009254797" stroke="#0d6d4d" stroke-width="0.1" fill="none" />
<path d="M96.3912295418543,225.24149455064793 L196.85675388647553,-145.8506717477832" stroke="#0d6d4d" stroke-width="0.1" fill="none" />
<path d="M94.05072061217761,226.22878232517215 L223.71519630601162,-99.88248566071375" stroke="#0d6d4d" stroke-width="0.1" fill="none" />
<path d="M91.70010118036627,227.19175038612337 L240.009547898525,-49.19773284965102" stroke="#0d6d4d" stroke-width="0.1" fill="none" />
<path d="M89.33962393925056,228.13029521392656 L244.97037049873663,3.8101939204859683" stroke="#0d6d4d" stroke-width="0.1" fill="none" />
<path d="M86.96954264138051,229.04431591451709 L238.36340831450218,56.63819891816751" stroke="#0d6d4d" stroke-width="0.1" fill="none" />
<path d="M84.59011207174719,229.9337142301869 L220.50064975678987,106.79168252646592" stroke="#0d6d4d" stroke-width="0.1" fill="none" />
<path d="M82.20158802039363,230.79839455014732 L192.2255949853597,151.90233912788986" stroke="#0d6d4d" stroke-width="0.1" fill="none" />
<path d="M79.80422725491664,231.6382639208074 L154.87342485371,189.839991240208" stroke="#0d6d4d" stroke-width="0.1" fill="none" />
<path d="M77.39828749286448,232.4532320557662 L110.20795212187083,218.8131789657639" stroke="#0d6d4d" stroke-width="0.1" fill="none" />
<path d="M74.98402737403238,233.24321134551883 L60.33833217384034,237.4537548039182" stroke="#0d6d4d" stroke-width="0.1" fill="none" />
<path d="M72.56170643265796,234.00811686687445 L7.619466256110113,244.88148916153708" stroke="#0d6d4d" stroke-width="0.1" fill="none" />
<path d="M70.13158506952168,234.74786639208554 L-45.45919968822584,240.7456358144546" stroke="#0d6d4d" stroke-width="0.1" fill="none" />
<path d="M67.69392452395347,235.46238039768753 L-96.39122954185426,225.24149455064793" stroke="#0d6d4d" stroke-width="0.1" fill="none" />
<path d="M65.24898684574929,236.15158207304736 L-142.7715538313438,199.10118888792127" stroke="#0d6d4d" stroke-width="0.1" fill="none" />
<path d="M62.79703486700063,236.81539732862117 L-182.4100398948487,163.5590943529577" stroke="#0d6d4d" stroke-width="0.1" fill="none" />
<path d="M60.33833217384034,237.4537548039182 L-213.43491248448782,120.29354983846397" stroke="#0d6d4d" stroke-width="0.1" fill="none" />
<path d="M57.87314307810627,238.06658587517285 L-234.38114116269784,71.34760449567673" stroke="#0d6d4d" stroke-width="0.1" fill="none" />
<path d="M55.40173258892807,238.65382466272126 L-244.25962073727916,19.032542585806663" stroke="#0d6d4d" stroke-width="0.1" fill="none" />
<path d="M52.92436638423853,239.21540803808372 L-242.603877954819,-34.18125804126105" stroke="#0d6d4d" stroke-width="0.1" fill="none" />
<path d="M50.44131078221285,239.75127563075077 L-229.49209890830042,-85.7809800518907" stroke="#0d6d4d" stroke-width="0.1" fill="none" />
<path d="M47.95283271263979,240.26136983467313 L-205.5434369991838,-133.3300247752267" stroke="#0d6d4d" stroke-width="0.1" fill="none" />
<path d="M45.45919968822589,240.7456358144546 L-171.88877579627035,-174.58307121613907" stroke="#0d6d4d" stroke-width="0.1" fill="none" />
<path d="M42.960679775838074,241.20402151124657 L-130.11732740303248,-207.59210271465543" stroke="#0d6d4d" stroke-width="0.1" fill="none" />
<path d="M40.457541567686626,241.63647764834454 L-82.20158802039366,-230.79839455014732" stroke="#0d6d4d" stroke-width="0.1" fill="none" />
<path d="M37.95005415245075,242.0429577364854 L-30.404194390248538,-243.10611872900273" stroke="#0d6d4d" stroke-width="0.1" fill="none" />
<path d="M35.43848708635179,242.423418078845 L22.828920533597536,-243.93409025240956" stroke="#0d6d4d" stroke-width="0.1" fill="none" />
<path d="M32.923110364175734,242.77781777573566 L74.9840273740324,-233.24321134551883" stroke="#0d6d4d" stroke-width="0.1" fill="none" />
<path d="M30.404194390248616,243.10611872900273 L123.59830154491675,-211.53831769968255" stroke="#0d6d4d" stroke-width="0.1" fill="none" />
<path d="M27.88200994936787,243.40828564612042 L166.37612068214204,-179.84433954606772" stroke="#0d6d4d" stroke-width="0.1" fill="none" />
<path d="M25.356828177692886,243.6842860439855 L201.29746659199813,-139.6579032623768" stroke="#0d6d4d" stroke-width="0.1" fill="none" />
<path d="M22.828920533597568,243.93409025240956 L226.71331285122417,-92.87665894089294" stroke="#0d6d4d" stroke-width="0.1" fill="none" />
<path d="M20.298558768488782,244.15767141730814 L241.42349374572692,-41.70967115198766" stroke="#0d6d4d" stroke-width="0.1" fill="none" />
<path d="M17.76601489759268,244.35500550358796 L244.73337748643965,11.426895644917284" stroke="#0d6d4d" stroke-width="0.1" fill="none" />
<path d="M15.231561170712729,244.52607129773062 L236.48666752739172,64.02387118715089" stroke="#0d6d4d" stroke-width="0.1" fill="none" />
<path d="M12.695470042963032,244.6708504100728 L217.0727830697371,113.59756533640522" stroke="#0d6d4d" stroke-width="0.1" fill="none" />
<path d="M10.158014145479152,244.78932727678355 L187.40847023578868,157.80705080534744" stroke="#0d6d4d" stroke-width="0.1" fill="none" />
<path d="M7.619466256110113,244.88148916153708 L148.89451225473033,194.56470445696456" stroke="#0d6d4d" stroke-width="0.1" fill="none" />
<path d="M5.08009927009465,244.94732615688213 L103.34958285520527,222.13478728838277" stroke="#0d6d4d" stroke-width="0.1" fill="none" />
<path d="M2.540186170724707,244.9868311853069 L52.92436638423853,239.21540803808372" stroke="#0d6d4d" stroke-width="0.1" fill="none" />
<path d="M3.0003846579110155e-14,245.0 L3.0003846579110155e-14,245.0" stroke="#0d6d4d" stroke-width="0.1" fill="none" />
<path d="M-2.5401861707246467,244.9868311853069 L-52.924366384238375,239.21540803808375" stroke="#0d6d4d" stroke-width="0.1" fill="none" />
<path d="M-5.080099270094591,244.94732615688213 L-103.34958285520533,222.13478728838277" stroke="#0d6d4d" stroke-width="0.1" fill="none" />
<path d="M-7.619466256110054,244.88148916153708 L-148.8945122547302,194.56470445696465" stroke="#0d6d4d" stroke-width="0.1" fill="none" />
<path d="M-10.15801414547909,244.78932727678355 L-187.40847023578863,157.8070508053475" stroke="#0d6d4d" stroke-width="0.1" fill="none" />
<path d="M-12.695470042962972,244.6708504100728 L-217.0727830697371,113.59756533640518" stroke="#0d6d4d" stroke-width="0.1" fill="none" />
<path d="M-15.231561170712668,244.52607129773062 L-236.48666752739175,64.0238711871508" stroke="#0d6d4d" stroke-width="0.1" fill="none" />
<path d="M-17.76601489759262,244.355005503588 L-244.73337748643965,11.426895644917398" stroke="#0d6d4d" stroke-width="0.1" fill="none" />
<path d="M-20.298558768488828,244.15767141730814 L-241.42349374572692,-41.70967115198761" stroke="#0d6d4d" stroke-width="0.1" fill="none" />
<path d="M-22.82892053359751,243.93409025240956 L-226.71331285122417,-92.87665894089294" stroke="#0d6d4d" stroke-width="0.1" fill="none" />
<path d="M-25.356828177692716,243.68428604398554 L-201.29746659199813,-139.6579032623768" stroke="#0d6d4d" stroke-width="0.1" fill="none" />
<path d="M-27.8820099493677,243.40828564612045 L-166.37612068214213,-179.84433954606766" stroke="#0d6d4d" stroke-width="0.1" fill="none" />
<path d="M-30.404194390248556,243.10611872900273 L-123.59830154491678,-211.53831769968252" stroke="#0d6d4d" stroke-width="0.1" fill="none" />
<path d="M-32.92311036417568,242.77781777573566 L-74.98402737403241,-233.2432113455188" stroke="#0d6d4d" stroke-width="0.1" fill="none" />
<path d="M-35.438487086351735,242.423418078845 L-22.828920533597707,-243.93409025240953" stroke="#0d6d4d" stroke-width="0.1" fill="none" />
<path d="M-37.9500541524507,242.04295773648542 L30.404194390248538,-243.10611872900273" stroke="#0d6d4d" stroke-width="0.1" fill="none" />
<path d="M-40.45754156768668,241.63647764834454 L82.20158802039361,-230.79839455014732" stroke="#0d6d4d" stroke-width="0.1" fill="none" />
<path d="M-42.96067977583812,241.20402151124657 L130.11732740303236,-207.59210271465548" stroke="#0d6d4d" stroke-width="0.1" fill="none" />
<path d="M-45.45919968822584,240.7456358144546 L171.88877579627027,-174.5830712161392" stroke="#0d6d4d" stroke-width="0.1" fill="none" />
<path d="M-47.95283271263974,240.26136983467316 L205.54343699918377,-133.33002477522672" stroke="#0d6d4d" stroke-width="0.1" fill="none" />
<path d="M-50.44131078221281,239.75127563075077 L229.4920989083004,-85.78098005189075" stroke="#0d6d4d" stroke-width="0.1" fill="none" />
<path d="M-52.924366384238375,239.21540803808375 L242.603877954819,-34.18125804126117" stroke="#0d6d4d" stroke-width="0.1" fill="none" />
<path d="M-55.40173258892791,238.6538246627213 L244.25962073727916,19.032542585806496" stroke="#0d6d4d" stroke-width="0.1" fill="none" />
<path d="M-57.873143078106104,238.06658587517285 L234.38114116269784,71.34760449567673" stroke="#0d6d4d" stroke-width="0.1" fill="none" />
<path d="M-60.33833217384029,237.4537548039182 L213.43491248448788,120.2935498384639" stroke="#0d6d4d" stroke-width="0.1" fill="none" />
<path d="M-62.79703486700059,236.81539732862117 L182.41003989484872,163.55909435295763" stroke="#0d6d4d" stroke-width="0.1" fill="none" />
<path d="M-65.24898684574923,236.1515820730474 L142.77155383134374,199.1011888879213" stroke="#0d6d4d" stroke-width="0.1" fill="none" />
<path d="M-67.69392452395331,235.46238039768753 L96.3912295418543,225.24149455064793" stroke="#0d6d4d" stroke-width="0.1" fill="none" />
<path d="M-70.13158506952165,234.74786639208557 L45.45919968822589,240.7456358144546" stroke="#0d6d4d" stroke-width="0.1" fill="none" />
<path d="M-72.561706432658,234.00811686687442 L-7.619466256110054,244.88148916153708" stroke="#0d6d4d" stroke-width="0.1" fill="none" />
<path d="M-74.98402737403232,233.24321134551883 L-60.33833217384029,237.4537548039182" stroke="#0d6d4d" stroke-width="0.1" fill="none" />
<path d="M-77.39828749286454,232.4532320557662 L-110.20795212187068,218.813178965764" stroke="#0d6d4d" stroke-width="0.1" fill="none" />
<path d="M-79.8042272549166,231.63826392080742 L-154.87342485371002,189.83999124020795" stroke="#0d6d4d" stroke-width="0.1" fill="none" />
<path d="M-82.20158802039369,230.79839455014732 L-192.22559498535963,151.90233912788992" stroke="#0d6d4d" stroke-width="0.1" fill="none" />
<path d="M-84.59011207174714,229.93371423018692 L-220.5006497567899,106.79168252646588" stroke="#0d6d4d" stroke-width="0.1" fill="none" />
<path d="M-86.96954264138047,229.0443159145171 L-238.36340831450215,56.638198918167674" stroke="#0d6d4d" stroke-width="0.1" fill="none" />
<path d="M-89.33962393925042,228.13029521392662 L-244.97037049873663,3.8101939204860282" stroke="#0d6d4d" stroke-width="0.1" fill="none" />
<path d="M-91.70010118036622,227.1917503861234 L-240.009547898525,-49.19773284965101" stroke="#0d6d4d" stroke-width="0.1" fill="none" />
<path d="M-94.05072061217747,226.22878232517218 L-223.7151963060116,-99.8824856607138" stroke="#0d6d4d" stroke-width="0.1" fill="none" />
<path d="M-96.39122954185426,225.24149455064793 L-196.85675388647562,-145.85067174778305" stroke="#0d6d4d" stroke-width="0.1" fill="none" />
<path d="M-98.72137636345043,224.2299931965079 L-160.70250741648533,-184.93162009254792" stroke="#0d6d4d" stroke-width="0.1" fill="none" />
<path d="M-101.04091058495197,223.19438699968183 L-116.95970231252615,-215.27988302432084" stroke="#0d6d4d" stroke-width="0.1" fill="none" />
<path d="M-103.34958285520533,222.13478728838277 L-67.69392452395338,-235.46238039768753" stroke="#0d6d4d" stroke-width="0.1" fill="none" />
<path d="M-105.64714499072191,221.05130797013933 L-15.231561170712867,-244.52607129773062" stroke="#0d6d4d" stroke-width="0.1" fill="none" />
<path d="M-107.9333500023592,219.94406551955026 L37.95005415245074,-242.0429577364854" stroke="#0d6d4d" stroke-width="0.1" fill="none" />
<path d="M-110.20795212187068,218.813178965764 L89.33962393925052,-228.1302952139266" stroke="#0d6d4d" stroke-width="0.1" fill="none" />
<path d="M-112.47070682832766,217.658769879682 L136.51047315038,-203.4450557773754" stroke="#0d6d4d" stroke-width="0.1" fill="none" />
<path d="M-114.72137087440386,216.48096236089094 L177.23513962107617,-169.15290504007797" stroke="#0d6d4d" stroke-width="0.1" fill="none" />
<path d="M-116.95970231252608,215.27988302432087 L209.59055740588514,-126.87315810008973" stroke="#0d6d4d" stroke-width="0.1" fill="none" />
<path d="M-119.18546052088237,214.05566098663493 L232.04886618119502,-78.60231360476511" stroke="#0d6d4d" stroke-width="0.1" fill="none" />
<path d="M-121.39840622929009,212.80842785234861 L243.5495585803129,-26.6197767709413" stroke="#0d6d4d" stroke-width="0.1" fill="none" />
<path d="M-123.59830154491681,211.53831769968252 L243.5495585803129,26.61977677094122" stroke="#0d6d4d" stroke-width="0.1" fill="none" />
<path d="M-125.78490997785416,210.24546706614896 L232.04886618119505,78.60231360476503" stroke="#0d6d4d" stroke-width="0.1" fill="none" />
<path d="M-127.95799646654115,208.9300149338736 L209.59055740588514,126.87315810008973" stroke="#0d6d4d" stroke-width="0.1" fill="none" />
<path d="M-130.11732740303233,207.59210271465554 L177.2351396210762,169.1529050400779" stroke="#0d6d4d" stroke-width="0.1" fill="none" />
<path d="M-132.26267065811197,206.23187423476472 L136.51047315038,203.4450557773754" stroke="#0d6d4d" stroke-width="0.1" fill="none" />
<path d="M-134.39379560624687,204.84947571948126 L89.33962393925056,228.13029521392656" stroke="#0d6d4d" stroke-width="0.1" fill="none" />
<path d="M-136.51047315037994,203.44505577737542 L37.95005415245075,242.0429577364854" stroke="#0d6d4d" stroke-width="0.1" fill="none" />
<path d="M-138.61247574655712,202.01876538433282 L-15.231561170712668,244.52607129773062" stroke="#0d6d4d" stroke-width="0.1" fill="none" />
<path d="M-140.69957742838946,200.5707578673238 L-67.69392452395331,235.46238039768753" stroke="#0d6d4d" stroke-width="0.1" fill="none" />
<path d="M-142.7715538313438,199.10118888792127 L-116.95970231252608,215.27988302432087" stroke="#0d6d4d" stroke-width="0.1" fill="none" />
<path d="M-144.82818221686244,197.61021642556665 L-160.7025074164852,184.93162009254803" stroke="#0d6d4d" stroke-width="0.1" fill="none" />
<path d="M-146.86924149630818,196.09800076058684 L-196.85675388647556,145.85067174778317" stroke="#0d6d4d" stroke-width="0.1" fill="none" />
<path d="M-148.8945122547302,194.56470445696465 L-223.71519630601156,99.88248566071388" stroke="#0d6d4d" stroke-width="0.1" fill="none" />
<path d="M-150.90377677445278,193.01049234486226 L-240.009547898525,49.19773284965111" stroke="#0d6d4d" stroke-width="0.1" fill="none" />
<path d="M-152.89681905847868,191.43553150290265 L-244.97037049873663,-3.810193920485938" stroke="#0d6d4d" stroke-width="0.1" fill="none" />
<path d="M-154.87342485371002,189.83999124020795 L-238.36340831450215,-56.63819891816759" stroke="#0d6d4d" stroke-width="0.1" fill="none" />
<path d="M-156.83338167397966,188.2240430781993 L-220.5006497567899,-106.7916825264658" stroke="#0d6d4d" stroke-width="0.1" fill="none" />
<path d="M-158.77647882289472,186.58786073215714 L-192.22559498535972,-151.90233912788983" stroke="#0d6d4d" stroke-width="0.1" fill="none" />
<path d="M-160.7025074164852,184.93162009254803 L-154.87342485371,-189.83999124020798" stroke="#0d6d4d" stroke-width="0.1" fill="none" />
<path d="M-162.61126040566046,183.2554992061152 L-110.20795212187076,-218.81317896576397" stroke="#0d6d4d" stroke-width="0.1" fill="none" />
<path d="M-164.50253259846593,181.55967825673918 L-60.33833217384048,-237.45375480391817" stroke="#0d6d4d" stroke-width="0.1" fill="none" />
<path d="M-166.37612068214202,179.84433954606777 L-7.619466256110144,-244.88148916153708" stroke="#0d6d4d" stroke-width="0.1" fill="none" />
<path d="M-168.23182324498052,178.10966747391797 L45.45919968822585,-240.7456358144546" stroke="#0d6d4d" stroke-width="0.1" fill="none" />
<path d="M-170.0694407979757,176.35584851845385 L96.39122954185432,-225.24149455064793" stroke="#0d6d4d" stroke-width="0.1" fill="none" />
<path d="M-171.88877579627032,174.58307121613913 L142.7715538313437,-199.10118888792135" stroke="#0d6d4d" stroke-width="0.1" fill="none" />
<path d="M-173.68963266039103,172.79152614147034 L182.4100398948487,-163.55909435295763" stroke="#0d6d4d" stroke-width="0.1" fill="none" />
<path d="M-175.4718177972742,170.98140588648874 L213.43491248448785,-120.29354983846395" stroke="#0d6d4d" stroke-width="0.1" fill="none" />
<path d="M-177.23513962107612,169.15290504007805 L234.38114116269784,-71.34760449567676" stroke="#0d6d4d" stroke-width="0.1" fill="none" />
<path d="M-178.97940857376977,167.30622016704456 L244.25962073727916,-19.032542585806524" stroke="#0d6d4d" stroke-width="0.1" fill="none" />
<path d="M-180.70443714552135,165.44154978698768 L242.603877954819,34.18125804126108" stroke="#0d6d4d" stroke-width="0.1" fill="none" />
<path d="M-182.4100398948487,163.5590943529577 L229.49209890830042,85.78098005189067" stroke="#0d6d4d" stroke-width="0.1" fill="none" />
<path d="M-184.09603346855528,161.65905622990806 L205.54343699918385,133.33002477522663" stroke="#0d6d4d" stroke-width="0.1" fill="none" />
<path d="M-185.76223662144145,159.74163967294064 L171.8887757962703,174.5830712161392" stroke="#0d6d4d" stroke-width="0.1" fill="none" />
<path d="M-187.40847023578863,157.8070508053475 L130.11732740303245,207.59210271465545" stroke="#0d6d4d" stroke-width="0.1" fill="none" />
<path d="M-189.03455734061362,155.85549759645397 L82.20158802039363,230.79839455014732" stroke="#0d6d4d" stroke-width="0.1" fill="none" />
<path d="M-190.64032313069416,153.88718983926023 L30.404194390248616,243.10611872900273" stroke="#0d6d4d" stroke-width="0.1" fill="none" />
<path d="M-192.22559498535963,151.90233912788992 L-22.82892053359751,243.93409025240956" stroke="#0d6d4d" stroke-width="0.1" fill="none" />
<path d="M-193.79020248704853,149.90115883484265 L-74.98402737403232,233.24321134551883" stroke="#0d6d4d" stroke-width="0.1" fill="none" />
<path d="M-195.33397743962797,147.88386408805698 L-123.59830154491681,211.53831769968252" stroke="#0d6d4d" stroke-width="0.1" fill="none" />
<path d="M-196.85675388647556,145.85067174778317 L-166.37612068214202,179.84433954606777" stroke="#0d6d4d" stroke-width="0.1" fill="none" />
<path d="M-198.35836812831877,143.80180038327185 L-201.2974665919982,139.6579032623767" stroke="#0d6d4d" stroke-width="0.1" fill="none" />
<path d="M-199.8386587408339,141.73747024927644 L-226.71331285122415,92.87665894089302" stroke="#0d6d4d" stroke-width="0.1" fill="none" />
<path d="M-201.2974665919982,139.6579032623767 L-241.42349374572692,41.7096711519877" stroke="#0d6d4d" stroke-width="0.1" fill="none" />
<path d="M-202.73463485919712,137.5633229771221 L-244.73337748643965,-11.426895644917309" stroke="#0d6d4d" stroke-width="0.1" fill="none" />
<path d="M-204.15000904608323,135.45395456199918 L-236.48666752739177,-64.02387118715072" stroke="#0d6d4d" stroke-width="0.1" fill="none" />
<path d="M-205.54343699918374,133.33002477522678 L-217.07278306973717,-113.5975653364051" stroke="#0d6d4d" stroke-width="0.1" fill="none" />
<path d="M-206.91476892425803,131.19176194037837 L-187.4084702357887,-157.80705080534742" stroke="#0d6d4d" stroke-width="0.1" fill="none" />
<path d="M-208.26385740239968,129.0393959218383 L-148.89451225473024,-194.5647044569646" stroke="#0d6d4d" stroke-width="0.1" fill="none" />
<path d="M-209.5905574058851,126.87315810008978 L-103.3495828552054,-222.1347872883827" stroke="#0d6d4d" stroke-width="0.1" fill="none" />
<path d="M-210.89472631376304,124.69328134684314 L-52.92436638423857,-239.2154080380837" stroke="#0d6d4d" stroke-width="0.1" fill="none" />
<path d="M-212.1762239271874,122.50000000000011 L0.0,-245.0" stroke="#0d6d4d" stroke-width="0.1" fill="none" />
<path d="M-213.43491248448782,120.29354983846397 L52.92436638423847,-239.21540803808372" stroke="#0d6d4d" stroke-width="0.1" fill="none" />
<path d="M-214.67065667597973,118.07416805679235 L103.34958285520527,-222.13478728838277" stroke="#0d6d4d" stroke-width="0.1" fill="none" />
<path d="M-215.88332365850988,115.8420932396988 L148.89451225473024,-194.5647044569646" stroke="#0d6d4d" stroke-width="0.1" fill="none" />
<path d="M-217.0727830697371,113.59756533640518 L187.40847023578866,-157.80705080534744" stroke="#0d6d4d" stroke-width="0.1" fill="none" />
<path d="M-218.23890704214685,111.34082563484603 L217.0727830697371,-113.5975653364052" stroke="#0d6d4d" stroke-width="0.1" fill="none" />
<path d="M-219.38157021679592,109.07211673573147 L236.48666752739175,-64.02387118715087" stroke="#0d6d4d" stroke-width="0.1" fill="none" />
<path d="M-220.5006497567899,106.79168252646588 L244.73337748643965,-11.426895644917314" stroke="#0d6d4d" stroke-width="0.1" fill="none" />
<path d="M-221.59602536048698,104.49976815493144 L241.42349374572692,41.70967115198769" stroke="#0d6d4d" stroke-width="0.1" fill="none" />
<path d="M-222.66757927443146,102.1966200031331 L226.71331285122417,92.87665894089297" stroke="#0d6d4d" stroke-width="0.1" fill="none" />
<path d="M-223.71519630601156,99.88248566071388 L201.2974665919982,139.65790326237672" stroke="#0d6d4d" stroke-width="0.1" fill="none" />
<path d="M-224.7387638358433,97.5576138983373 L166.37612068214204,179.84433954606774" stroke="#0d6d4d" stroke-width="0.1" fill="none" />
<path d="M-225.7381718298766,95.22225464094578 L123.59830154491675,211.53831769968255" stroke="#0d6d4d" stroke-width="0.1" fill="none" />
<path d="M-226.71331285122415,92.87665894089302 L74.98402737403238,233.24321134551883" stroke="#0d6d4d" stroke-width="0.1" fill="none" />
<path d="M-227.66408207171142,90.52107895095511 L22.828920533597568,243.93409025240956" stroke="#0d6d4d" stroke-width="0.1" fill="none" />
<path d="M-228.5903772831449,88.15576789722535 L-30.404194390248556,243.10611872900273" stroke="#0d6d4d" stroke-width="0.1" fill="none" />
<path d="M-229.49209890830036,85.78098005189078 L-82.20158802039369,230.79839455014732" stroke="#0d6d4d" stroke-width="0.1" fill="none" />
<path d="M-230.36915001162674,83.39697070589928 L-130.11732740303233,207.59210271465554" stroke="#0d6d4d" stroke-width="0.1" fill="none" />
<path d="M-231.22143630966735,81.00399614151418 L-171.88877579627032,174.58307121613913" stroke="#0d6d4d" stroke-width="0.1" fill="none" />
<path d="M-232.04886618119502,78.60231360476509 L-205.54343699918374,133.33002477522678" stroke="#0d6d4d" stroke-width="0.1" fill="none" />
<path d="M-232.85135067706162,76.19218127779304 L-229.49209890830036,85.78098005189078" stroke="#0d6d4d" stroke-width="0.1" fill="none" />
<path d="M-233.6288035297599,73.77385825109623 L-242.603877954819,34.181258041261145" stroke="#0d6d4d" stroke-width="0.1" fill="none" />
<path d="M-234.38114116269784,71.34760449567673 L-244.25962073727916,-19.032542585806574" stroke="#0d6d4d" stroke-width="0.1" fill="none" />
<path d="M-235.10828269918247,68.91368083509478 L-234.38114116269784,-71.34760449567665" stroke="#0d6d4d" stroke-width="0.1" fill="none" />
<path d="M-235.8101499711145,66.47234891742946 L-213.43491248448788,-120.29354983846389" stroke="#0d6d4d" stroke-width="0.1" fill="none" />
<path d="M-236.48666752739175,64.0238711871508 L-182.41003989484875,-163.55909435295763" stroke="#0d6d4d" stroke-width="0.1" fill="none" />
<path d="M-237.13776264201948,61.568510856908276 L-142.77155383134368,-199.10118888792135" stroke="#0d6d4d" stroke-width="0.1" fill="none" />
<path d="M-237.76336532192914,59.10653187923367 L-96.39122954185444,-225.24149455064787" stroke="#0d6d4d" stroke-width="0.1" fill="none" />
<path d="M-238.36340831450215,56.638198918167674 L-45.45919968822592,-240.7456358144546" stroke="#0d6d4d" stroke-width="0.1" fill="none" />
<path d="M-238.93782711480003,54.163777320806744 L7.619466256110044,-244.88148916153708" stroke="#0d6d4d" stroke-width="0.1" fill="none" />
<path d="M-239.48655997249824,51.68353308877977 L60.33833217384033,-237.4537548039182" stroke="#0d6d4d" stroke-width="0.1" fill="none" />
<path d="M-240.009547898525,49.19773284965111 L110.20795212187078,-218.81317896576394" stroke="#0d6d4d" stroke-width="0.1" fill="none" />
<path d="M-240.50673467140186,46.70664382825965 L154.87342485371,-189.839991240208" stroke="#0d6d4d" stroke-width="0.1" fill="none" />
<path d="M-240.97806684328833,44.21053381799034 L192.2255949853596,-151.90233912788995" stroke="#0d6d4d" stroke-width="0.1" fill="none" />
<path d="M-241.42349374572692,41.7096711519877 L220.50064975678987,-106.79168252646593" stroke="#0d6d4d" stroke-width="0.1" fill="none" />
<path d="M-241.84296749509042,39.20432467430905 L238.36340831450215,-56.638198918167596" stroke="#0d6d4d" stroke-width="0.1" fill="none" />
<path d="M-242.23644299772926,36.69476371102384 L244.97037049873663,-3.810193920485998" stroke="#0d6d4d" stroke-width="0.1" fill="none" />
<path d="M-242.603877954819,34.181258041261145 L240.00954789852503,49.19773284965099" stroke="#0d6d4d" stroke-width="0.1" fill="none" />
<path d="M-242.94523286690787,31.66407786820744 L223.71519630601162,99.88248566071373" stroke="#0d6d4d" stroke-width="0.1" fill="none" />
<path d="M-243.26047103816245,29.143493790061093 L196.85675388647553,145.85067174778317" stroke="#0d6d4d" stroke-width="0.1" fill="none" />
<path d="M-243.5495585803129,26.619776770941222 L160.70250741648533,184.93162009254792" stroke="#0d6d4d" stroke-width="0.1" fill="none" />
<path d="M-243.8124644162957,24.093198111760604 L116.95970231252612,215.27988302432084" stroke="#0d6d4d" stroke-width="0.1" fill="none" />
<path d="M-244.04916028359472,21.564029421058965 L67.69392452395347,235.46238039768753" stroke="#0d6d4d" stroke-width="0.1" fill="none" />
<path d="M-244.25962073727916,19.032542585806663 L15.231561170712729,244.52607129773062" stroke="#0d6d4d" stroke-width="0.1" fill="none" />
<path d="M-244.44382315273916,16.499009742174955 L-37.9500541524507,242.04295773648542" stroke="#0d6d4d" stroke-width="0.1" fill="none" />
<path d="M-244.60174772811774,13.96370324628272 L-89.33962393925042,228.13029521392662" stroke="#0d6d4d" stroke-width="0.1" fill="none" />
<path d="M-244.73337748643965,11.426895644917398 L-136.51047315037994,203.44505577737542" stroke="#0d6d4d" stroke-width="0.1" fill="none" />
<path d="M-244.83869827743638,8.888859646235405 L-177.23513962107612,169.15290504007805" stroke="#0d6d4d" stroke-width="0.1" fill="none" />
<path d="M-244.91769877906725,6.3498680904473925 L-209.5905574058851,126.87315810008978" stroke="#0d6d4d" stroke-width="0.1" fill="none" />
<path d="M-244.97037049873663,3.8101939204860282 L-232.04886618119502,78.60231360476509" stroke="#0d6d4d" stroke-width="0.1" fill="none" />
<path d="M-244.9967077742068,1.2701101526662397 L-243.5495585803129,26.619776770941222" stroke="#0d6d4d" stroke-width="0.1" fill="none" />
<path d="M-244.9967077742068,-1.2701101526659322 L-243.5495585803129,-26.619776770941137" stroke="#0d6d4d" stroke-width="0.1" fill="none" />
<path d="M-244.97037049873663,-3.810193920485938 L-232.04886618119505,-78.602313604765" stroke="#0d6d4d" stroke-width="0.1" fill="none" />
<path d="M-244.91769877906725,-6.349868090447302 L-209.59055740588516,-126.8731581000897" stroke="#0d6d4d" stroke-width="0.1" fill="none" />
<path d="M-244.83869827743638,-8.888859646235318 L-177.23513962107617,-169.15290504007797" stroke="#0d6d4d" stroke-width="0.1" fill="none" />
<path d="M-244.73337748643965,-11.426895644917309 L-136.5104731503801,-203.4450557773753" stroke="#0d6d4d" stroke-width="0.1" fill="none" />
<path d="M-244.60174772811774,-13.963703246282849 L-89.33962393925059,-228.13029521392656" stroke="#0d6d4d" stroke-width="0.1" fill="none" />
<path d="M-244.44382315273918,-16.499009742174866 L-37.95005415245078,-242.0429577364854" stroke="#0d6d4d" stroke-width="0.1" fill="none" />
<path d="M-244.25962073727916,-19.032542585806574 L15.231561170712729,-244.52607129773062" stroke="#0d6d4d" stroke-width="0.1" fill="none" />
<path d="M-244.04916028359472,-21.564029421058876 L67.69392452395341,-235.46238039768753" stroke="#0d6d4d" stroke-width="0.1" fill="none" />
<path d="M-243.8124644162957,-24.093198111760515 L116.95970231252612,-215.27988302432084" stroke="#0d6d4d" stroke-width="0.1" fill="none" />
<path d="M-243.5495585803129,-26.619776770941137 L160.70250741648528,-184.93162009254797" stroke="#0d6d4d" stroke-width="0.1" fill="none" />
<path d="M-243.26047103816245,-29.143493790061008 L196.85675388647553,-145.8506717477832" stroke="#0d6d4d" stroke-width="0.1" fill="none" />
<path d="M-242.9452328669079,-31.664077868207343 L223.71519630601162,-99.88248566071375" stroke="#0d6d4d" stroke-width="0.1" fill="none" />
<path d="M-242.603877954819,-34.18125804126105 L240.009547898525,-49.19773284965102" stroke="#0d6d4d" stroke-width="0.1" fill="none" />
<path d="M-242.23644299772926,-36.69476371102375 L244.97037049873663,3.8101939204859683" stroke="#0d6d4d" stroke-width="0.1" fill="none" />
<path d="M-241.84296749509042,-39.20432467430896 L238.36340831450218,56.63819891816751" stroke="#0d6d4d" stroke-width="0.1" fill="none" />
<path d="M-241.42349374572692,-41.70967115198761 L220.50064975678987,106.79168252646592" stroke="#0d6d4d" stroke-width="0.1" fill="none" />
<path d="M-240.97806684328833,-44.21053381799024 L192.2255949853597,151.90233912788986" stroke="#0d6d4d" stroke-width="0.1" fill="none" />
<path d="M-240.5067346714019,-46.70664382825955 L154.87342485371,189.839991240208" stroke="#0d6d4d" stroke-width="0.1" fill="none" />
<path d="M-240.009547898525,-49.19773284965101 L110.20795212187083,218.8131789657639" stroke="#0d6d4d" stroke-width="0.1" fill="none" />
<path d="M-239.48655997249827,-51.68353308877968 L60.33833217384034,237.4537548039182" stroke="#0d6d4d" stroke-width="0.1" fill="none" />
<path d="M-238.93782711480006,-54.16377732080665 L7.619466256110113,244.88148916153708" stroke="#0d6d4d" stroke-width="0.1" fill="none" />
<path d="M-238.36340831450215,-56.63819891816759 L-45.45919968822584,240.7456358144546" stroke="#0d6d4d" stroke-width="0.1" fill="none" />
<path d="M-237.76336532192917,-59.10653187923357 L-96.39122954185426,225.24149455064793" stroke="#0d6d4d" stroke-width="0.1" fill="none" />
<path d="M-237.1377626420195,-61.5685108569082 L-142.7715538313438,199.10118888792127" stroke="#0d6d4d" stroke-width="0.1" fill="none" />
<path d="M-236.48666752739177,-64.02387118715072 L-182.4100398948487,163.5590943529577" stroke="#0d6d4d" stroke-width="0.1" fill="none" />
<path d="M-235.81014997111453,-66.47234891742937 L-213.43491248448782,120.29354983846397" stroke="#0d6d4d" stroke-width="0.1" fill="none" />
<path d="M-235.1082826991824,-68.9136808350949 L-234.38114116269784,71.34760449567673" stroke="#0d6d4d" stroke-width="0.1" fill="none" />
<path d="M-234.38114116269784,-71.34760449567665 L-244.25962073727916,19.032542585806663" stroke="#0d6d4d" stroke-width="0.1" fill="none" />
<path d="M-233.62880352975992,-73.77385825109616 L-242.603877954819,-34.18125804126105" stroke="#0d6d4d" stroke-width="0.1" fill="none" />
<path d="M-232.85135067706165,-76.19218127779297 L-229.49209890830042,-85.7809800518907" stroke="#0d6d4d" stroke-width="0.1" fill="none" />
<path d="M-232.04886618119505,-78.602313604765 L-205.5434369991838,-133.3300247752267" stroke="#0d6d4d" stroke-width="0.1" fill="none" />
<path d="M-231.22143630966747,-81.0039961415139 L-171.88877579627035,-174.58307121613907" stroke="#0d6d4d" stroke-width="0.1" fill="none" />
<path d="M-230.3691500116268,-83.396970705899 L-130.11732740303248,-207.59210271465543" stroke="#0d6d4d" stroke-width="0.1" fill="none" />
<path d="M-229.49209890830042,-85.7809800518907 L-82.20158802039366,-230.79839455014732" stroke="#0d6d4d" stroke-width="0.1" fill="none" />
<path d="M-228.59037728314493,-88.15576789722529 L-30.404194390248538,-243.10611872900273" stroke="#0d6d4d" stroke-width="0.1" fill="none" />
<path d="M-227.66408207171136,-90.52107895095523 L22.828920533597536,-243.93409025240956" stroke="#0d6d4d" stroke-width="0.1" fill="none" />
<path d="M-226.71331285122417,-92.87665894089294 L74.9840273740324,-233.24321134551883" stroke="#0d6d4d" stroke-width="0.1" fill="none" />
<path d="M-225.73817182987653,-95.22225464094589 L123.59830154491675,-211.53831769968255" stroke="#0d6d4d" stroke-width="0.1" fill="none" />
<path d="M-224.73876383584332,-97.55761389833721 L166.37612068214204,-179.84433954606772" stroke="#0d6d4d" stroke-width="0.1" fill="none" />
<path d="M-223.7151963060116,-99.8824856607138 L201.29746659199813,-139.6579032623768" stroke="#0d6d4d" stroke-width="0.1" fill="none" />
<path d="M-222.6675792744315,-102.19662000313303 L226.71331285122417,-92.87665894089294" stroke="#0d6d4d" stroke-width="0.1" fill="none" />
<path d="M-221.59602536048698,-104.49976815493137 L241.42349374572692,-41.70967115198766" stroke="#0d6d4d" stroke-width="0.1" fill="none" />
<path d="M-220.5006497567899,-106.7916825264658 L244.73337748643965,11.426895644917284" stroke="#0d6d4d" stroke-width="0.1" fill="none" />
<path d="M-219.38157021679598,-109.0721167357314 L236.48666752739172,64.02387118715089" stroke="#0d6d4d" stroke-width="0.1" fill="none" />
<path d="M-218.2389070421469,-111.34082563484597 L217.0727830697371,113.59756533640522" stroke="#0d6d4d" stroke-width="0.1" fill="none" />
<path d="M-217.07278306973717,-113.5975653364051 L187.40847023578868,157.80705080534744" stroke="#0d6d4d" stroke-width="0.1" fill="none" />
<path d="M-215.88332365850982,-115.84209323969891 L148.89451225473033,194.56470445696456" stroke="#0d6d4d" stroke-width="0.1" fill="none" />
<path d="M-214.67065667597979,-118.07416805679225 L103.34958285520527,222.13478728838277" stroke="#0d6d4d" stroke-width="0.1" fill="none" />
<path d="M-213.43491248448788,-120.29354983846389 L52.92436638423853,239.21540803808372" stroke="#0d6d4d" stroke-width="0.1" fill="none" />
<path d="M-212.17622392718746,-122.5 L3.0003846579110155e-14,245.0" stroke="#0d6d4d" stroke-width="0.1" fill="none" />
<path d="M-210.8947263137631,-124.69328134684304 L-52.924366384238375,239.21540803808375" stroke="#0d6d4d" stroke-width="0.1" fill="none" />
<path d="M-209.59055740588516,-126.8731581000897 L-103.34958285520533,222.13478728838277" stroke="#0d6d4d" stroke-width="0.1" fill="none" />
<path d="M-208.26385740239974,-129.03939592183818 L-148.8945122547302,194.56470445696465" stroke="#0d6d4d" stroke-width="0.1" fill="none" />
<path d="M-206.91476892425808,-131.19176194037829 L-187.40847023578863,157.8070508053475" stroke="#0d6d4d" stroke-width="0.1" fill="none" />
<path d="M-205.5434369991838,-133.3300247752267 L-217.0727830697371,113.59756533640518" stroke="#0d6d4d" stroke-width="0.1" fill="none" />
<path d="M-204.15000904608328,-135.45395456199907 L-236.48666752739175,64.0238711871508" stroke="#0d6d4d" stroke-width="0.1" fill="none" />
<path d="M-202.73463485919717,-137.56332297712203 L-244.73337748643965,11.426895644917398" stroke="#0d6d4d" stroke-width="0.1" fill="none" />
<path d="M-201.29746659199813,-139.6579032623768 L-241.42349374572692,-41.70967115198761" stroke="#0d6d4d" stroke-width="0.1" fill="none" />
<path d="M-199.83865874083395,-141.73747024927636 L-226.71331285122417,-92.87665894089294" stroke="#0d6d4d" stroke-width="0.1" fill="none" />
<path d="M-198.35836812831883,-143.8018003832718 L-201.29746659199813,-139.6579032623768" stroke="#0d6d4d" stroke-width="0.1" fill="none" />
<path d="M-196.85675388647562,-145.85067174778305 L-166.37612068214213,-179.84433954606766" stroke="#0d6d4d" stroke-width="0.1" fill="none" />
<path d="M-195.33397743962806,-147.88386408805687 L-123.59830154491678,-211.53831769968252" stroke="#0d6d4d" stroke-width="0.1" fill="none" />
<path d="M-193.7902024870486,-149.90115883484256 L-74.98402737403241,-233.2432113455188" stroke="#0d6d4d" stroke-width="0.1" fill="none" />
<path d="M-192.22559498535972,-151.90233912788983 L-22.828920533597707,-243.93409025240953" stroke="#0d6d4d" stroke-width="0.1" fill="none" />
<path d="M-190.64032313069436,-153.88718983926 L30.404194390248538,-243.10611872900273" stroke="#0d6d4d" stroke-width="0.1" fill="none" />
<path d="M-189.03455734061384,-155.8554975964537 L82.20158802039361,-230.79839455014732" stroke="#0d6d4d" stroke-width="0.1" fill="none" />
<path d="M-187.4084702357887,-157.80705080534742 L130.11732740303236,-207.59210271465548" stroke="#0d6d4d" stroke-width="0.1" fill="none" />
<path d="M-185.76223662144153,-159.74163967294055 L171.88877579627027,-174.5830712161392" stroke="#0d6d4d" stroke-width="0.1" fill="none" />
<path d="M-184.0960334685552,-161.65905622990815 L205.54343699918377,-133.33002477522672" stroke="#0d6d4d" stroke-width="0.1" fill="none" />
<path d="M-182.41003989484875,-163.55909435295763 L229.4920989083004,-85.78098005189075" stroke="#0d6d4d" stroke-width="0.1" fill="none" />
<path d="M-180.70443714552144,-165.4415497869876 L242.603877954819,-34.18125804126117" stroke="#0d6d4d" stroke-width="0.1" fill="none" />
<path d="M-178.97940857376986,-167.30622016704447 L244.25962073727916,19.032542585806496" stroke="#0d6d4d" stroke-width="0.1" fill="none" />
<path d="M-177.23513962107617,-169.15290504007797 L234.38114116269784,71.34760449567673" stroke="#0d6d4d" stroke-width="0.1" fill="none" />
<path d="M-175.47181779727424,-170.9814058864887 L213.43491248448788,120.2935498384639" stroke="#0d6d4d" stroke-width="0.1" fill="none" />
<path d="M-173.68963266039108,-172.79152614147029 L182.41003989484872,163.55909435295763" stroke="#0d6d4d" stroke-width="0.1" fill="none" />
<path d="M-171.88877579627035,-174.58307121613907 L142.77155383134374,199.1011888879213" stroke="#0d6d4d" stroke-width="0.1" fill="none" />
<path d="M-170.06944079797574,-176.3558485184538 L96.3912295418543,225.24149455064793" stroke="#0d6d4d" stroke-width="0.1" fill="none" />
<path d="M-168.23182324498066,-178.10966747391785 L45.45919968822589,240.7456358144546" stroke="#0d6d4d" stroke-width="0.1" fill="none" />
<path d="M-166.37612068214213,-179.84433954606766 L-7.619466256110054,244.88148916153708" stroke="#0d6d4d" stroke-width="0.1" fill="none" />
<path d="M-164.50253259846593,-181.55967825673918 L-60.33833217384029,237.4537548039182" stroke="#0d6d4d" stroke-width="0.1" fill="none" />
<path d="M-162.61126040566057,-183.25549920611508 L-110.20795212187068,218.813178965764" stroke="#0d6d4d" stroke-width="0.1" fill="none" />
<path d="M-160.70250741648533,-184.93162009254792 L-154.87342485371002,189.83999124020795" stroke="#0d6d4d" stroke-width="0.1" fill="none" />
<path d="M-158.77647882289472,-186.58786073215714 L-192.22559498535963,151.90233912788992" stroke="#0d6d4d" stroke-width="0.1" fill="none" />
<path d="M-156.83338167397963,-188.2240430781993 L-220.5006497567899,106.79168252646588" stroke="#0d6d4d" stroke-width="0.1" fill="none" />
<path d="M-154.87342485371,-189.83999124020798 L-238.36340831450215,56.638198918167674" stroke="#0d6d4d" stroke-width="0.1" fill="none" />
<path d="M-152.89681905847868,-191.43553150290268 L-244.97037049873663,3.8101939204860282" stroke="#0d6d4d" stroke-width="0.1" fill="none" />
<path d="M-150.90377677445284,-193.0104923448622 L-240.009547898525,-49.19773284965101" stroke="#0d6d4d" stroke-width="0.1" fill="none" />
<path d="M-148.89451225473024,-194.5647044569646 L-223.7151963060116,-99.8824856607138" stroke="#0d6d4d" stroke-width="0.1" fill="none" />
<path d="M-146.86924149630806,-196.0980007605869 L-196.85675388647562,-145.85067174778305" stroke="#0d6d4d" stroke-width="0.1" fill="none" />
<path d="M-144.8281822168625,-197.6102164255666 L-160.70250741648533,-184.93162009254792" stroke="#0d6d4d" stroke-width="0.1" fill="none" />
<path d="M-142.77155383134368,-199.10118888792135 L-116.95970231252615,-215.27988302432084" stroke="#0d6d4d" stroke-width="0.1" fill="none" />
<path d="M-140.69957742838952,-200.57075786732378 L-67.69392452395338,-235.46238039768753" stroke="#0d6d4d" stroke-width="0.1" fill="none" />
<path d="M-138.6124757465572,-202.01876538433277 L-15.231561170712867,-244.52607129773062" stroke="#0d6d4d" stroke-width="0.1" fill="none" />
<path d="M-136.5104731503801,-203.4450557773753 L37.95005415245074,-242.0429577364854" stroke="#0d6d4d" stroke-width="0.1" fill="none" />
<path d="M-134.393795606247,-204.84947571948115 L89.33962393925052,-228.1302952139266" stroke="#0d6d4d" stroke-width="0.1" fill="none" />
<path d="M-132.26267065811214,-206.2318742347646 L136.51047315038,-203.4450557773754" stroke="#0d6d4d" stroke-width="0.1" fill="none" />
<path d="M-130.11732740303248,-207.59210271465543 L177.23513962107617,-169.15290504007797" stroke="#0d6d4d" stroke-width="0.1" fill="none" />
<path d="M-127.95799646654132,-208.93001493387348 L209.59055740588514,-126.87315810008973" stroke="#0d6d4d" stroke-width="0.1" fill="none" />
<path d="M-125.78490997785431,-210.24546706614885 L232.04886618119502,-78.60231360476511" stroke="#0d6d4d" stroke-width="0.1" fill="none" />
<path d="M-123.59830154491678,-211.53831769968252 L243.5495585803129,-26.6197767709413" stroke="#0d6d4d" stroke-width="0.1" fill="none" />
<path d="M-121.39840622929006,-212.80842785234861 L243.5495585803129,26.61977677094122" stroke="#0d6d4d" stroke-width="0.1" fill="none" />
<path d="M-119.18546052088234,-214.05566098663496 L232.04886618119505,78.60231360476503" stroke="#0d6d4d" stroke-width="0.1" fill="none" />
<path d="M-116.95970231252615,-215.27988302432084 L209.59055740588514,126.87315810008973" stroke="#0d6d4d" stroke-width="0.1" fill="none" />
<path d="M-114.72137087440393,-216.4809623608909 L177.2351396210762,169.1529050400779" stroke="#0d6d4d" stroke-width="0.1" fill="none" />
<path d="M-112.47070682832775,-217.65876987968198 L136.51047315038,203.4450557773754" stroke="#0d6d4d" stroke-width="0.1" fill="none" />
<path d="M-110.20795212187076,-218.81317896576397 L89.33962393925056,228.13029521392656" stroke="#0d6d4d" stroke-width="0.1" fill="none" />
<path d="M-107.93335000235928,-219.94406551955026 L37.95005415245075,242.0429577364854" stroke="#0d6d4d" stroke-width="0.1" fill="none" />
<path d="M-105.64714499072198,-221.0513079701393 L-15.231561170712668,244.52607129773062" stroke="#0d6d4d" stroke-width="0.1" fill="none" />
<path d="M-103.3495828552054,-222.1347872883827 L-67.69392452395331,235.46238039768753" stroke="#0d6d4d" stroke-width="0.1" fill="none" />
<path d="M-101.04091058495206,-223.1943869996818 L-116.95970231252608,215.27988302432087" stroke="#0d6d4d" stroke-width="0.1" fill="none" />
<path d="M-98.7213763634504,-224.2299931965079 L-160.7025074164852,184.93162009254803" stroke="#0d6d4d" stroke-width="0.1" fill="none" />
<path d="M-96.39122954185444,-225.24149455064787 L-196.85675388647556,145.85067174778317" stroke="#0d6d4d" stroke-width="0.1" fill="none" />
<path d="M-94.05072061217763,-226.22878232517212 L-223.71519630601156,99.88248566071388" stroke="#0d6d4d" stroke-width="0.1" fill="none" />
<path d="M-91.70010118036639,-227.19175038612332 L-240.009547898525,49.19773284965111" stroke="#0d6d4d" stroke-width="0.1" fill="none" />
<path d="M-89.33962393925059,-228.13029521392656 L-244.97037049873663,-3.810193920485938" stroke="#0d6d4d" stroke-width="0.1" fill="none" />
<path d="M-86.96954264138044,-229.0443159145171 L-238.36340831450215,-56.63819891816759" stroke="#0d6d4d" stroke-width="0.1" fill="none" />
<path d="M-84.59011207174713,-229.93371423018692 L-220.5006497567899,-106.7916825264658" stroke="#0d6d4d" stroke-width="0.1" fill="none" />
<path d="M-82.20158802039366,-230.79839455014732 L-192.22559498535972,-151.90233912788983" stroke="#0d6d4d" stroke-width="0.1" fill="none" />
<path d="M-79.80422725491657,-231.63826392080742 L-154.87342485371,-189.83999124020798" stroke="#0d6d4d" stroke-width="0.1" fill="none" />
<path d="M-77.39828749286463,-232.45323205576616 L-110.20795212187076,-218.81317896576397" stroke="#0d6d4d" stroke-width="0.1" fill="none" />
<path d="M-74.98402737403241,-233.2432113455188 L-60.33833217384048,-237.45375480391817" stroke="#0d6d4d" stroke-width="0.1" fill="none" />
<path d="M-72.56170643265789,-234.00811686687445 L-7.619466256110144,-244.88148916153708" stroke="#0d6d4d" stroke-width="0.1" fill="none" />
<path d="M-70.1315850695217,-234.74786639208554 L45.45919968822585,-240.7456358144546" stroke="#0d6d4d" stroke-width="0.1" fill="none" />
<path d="M-67.69392452395338,-235.46238039768753 L96.39122954185432,-225.24149455064793" stroke="#0d6d4d" stroke-width="0.1" fill="none" />
<path d="M-65.24898684574931,-236.15158207304736 L142.7715538313437,-199.10118888792135" stroke="#0d6d4d" stroke-width="0.1" fill="none" />
<path d="M-62.79703486700066,-236.81539732862115 L182.4100398948487,-163.55909435295763" stroke="#0d6d4d" stroke-width="0.1" fill="none" />
<path d="M-60.33833217384048,-237.45375480391817 L213.43491248448785,-120.29354983846395" stroke="#0d6d4d" stroke-width="0.1" fill="none" />
<path d="M-57.87314307810629,-238.06658587517285 L234.38114116269784,-71.34760449567676" stroke="#0d6d4d" stroke-width="0.1" fill="none" />
<path d="M-55.40173258892821,-238.65382466272123 L244.25962073727916,-19.032542585806524" stroke="#0d6d4d" stroke-width="0.1" fill="none" />
<path d="M-52.92436638423857,-239.2154080380837 L242.603877954819,34.18125804126108" stroke="#0d6d4d" stroke-width="0.1" fill="none" />
<path d="M-50.44131078221311,-239.7512756307507 L229.49209890830042,85.78098005189067" stroke="#0d6d4d" stroke-width="0.1" fill="none" />
<path d="M-47.952832712639925,-240.2613698346731 L205.54343699918385,133.33002477522663" stroke="#0d6d4d" stroke-width="0.1" fill="none" />
<path d="M-45.45919968822592,-240.7456358144546 L171.8887757962703,174.5830712161392" stroke="#0d6d4d" stroke-width="0.1" fill="none" />
<path d="M-42.96067977583811,-241.20402151124657 L130.11732740303245,207.59210271465545" stroke="#0d6d4d" stroke-width="0.1" fill="none" />
<path d="M-40.457541567686555,-241.63647764834454 L82.20158802039363,230.79839455014732" stroke="#0d6d4d" stroke-width="0.1" fill="none" />
<path d="M-37.95005415245078,-242.0429577364854 L30.404194390248616,243.10611872900273" stroke="#0d6d4d" stroke-width="0.1" fill="none" />
<path d="M-35.438487086351714,-242.42341807884503 L-22.82892053359751,243.93409025240956" stroke="#0d6d4d" stroke-width="0.1" fill="none" />
<path d="M-32.92311036417577,-242.77781777573566 L-74.98402737403232,233.24321134551883" stroke="#0d6d4d" stroke-width="0.1" fill="none" />
<path d="M-30.404194390248538,-243.10611872900273 L-123.59830154491681,211.53831769968252" stroke="#0d6d4d" stroke-width="0.1" fill="none" />
<path d="M-27.8820099493679,-243.40828564612042 L-166.37612068214202,179.84433954606777" stroke="#0d6d4d" stroke-width="0.1" fill="none" />
<path d="M-25.356828177692808,-243.68428604398554 L-201.2974665919982,139.6579032623767" stroke="#0d6d4d" stroke-width="0.1" fill="none" />
<path d="M-22.828920533597707,-243.93409025240953 L-226.71331285122415,92.87665894089302" stroke="#0d6d4d" stroke-width="0.1" fill="none" />
<path d="M-20.29855876848892,-244.15767141730814 L-241.42349374572692,41.7096711519877" stroke="#0d6d4d" stroke-width="0.1" fill="none" />
<path d="M-17.76601489759271,-244.35500550358796 L-244.73337748643965,-11.426895644917309" stroke="#0d6d4d" stroke-width="0.1" fill="none" />
<path d="M-15.231561170712867,-244.52607129773062 L-236.48666752739177,-64.02387118715072" stroke="#0d6d4d" stroke-width="0.1" fill="none" />
<path d="M-12.695470042963063,-244.6708504100728 L-217.07278306973717,-113.5975653364051" stroke="#0d6d4d" stroke-width="0.1" fill="none" />
<path d="M-10.158014145479289,-244.78932727678355 L-187.4084702357887,-157.80705080534742" stroke="#0d6d4d" stroke-width="0.1" fill="none" />
<path d="M-7.619466256110144,-244.88148916153708 L-148.89451225473024,-194.5647044569646" stroke="#0d6d4d" stroke-width="0.1" fill="none" />
<path d="M-5.080099270094572,-244.94732615688213 L-103.3495828552054,-222.1347872883827" stroke="#0d6d4d" stroke-width="0.1" fill="none" />
<path d="M-2.540186170724628,-244.9868311853069 L-52.92436638423857,-239.2154080380837" stroke="#0d6d4d" stroke-width="0.1" fill="none" />
</svg>