<?xml version="1.0" encoding="UTF-8"?>
<svg xmlns="http://www.w3.org/2000/svg" xmlns:xlink="http://www.w3.org/1999/xlink"
     width="500.0" height="500" viewBox="-250.0 -250.0 500 500">
<defs>
</defs>
<circle cx="0" cy="0" r="245.0" fill="white" stroke-width="2" stroke="black" />
<path d="M0.0,-245.0 L0.0,-245.0" stroke="#0d6d4d" stroke-width="0.1" fill="none" />
<path d="M40.32567461877981,-241.65851933366696 L79.55136995514745,-231.72522421665548" stroke="#0d6d4d" stroke-width="0.1" fill="none" />
<path d="M79.55136995514745,-231.72522421665548 L150.4821146089686,-193.33942480211644" stroke="#0d6d4d" stroke-width="0.1" fill="none" />
<path d="M116.60711129408303,-215.47106904558981 L205.1057871743195,-134.0022987399946" stroke="#0d6d4d" stroke-width="0.1" fill="none" />
<path d="M150.4821146089686,-193.33942480211644 L237.50306515513594,-60.14394434949581" stroke="#0d6d4d" stroke-width="0.1" fill="none" />
<path d="M180.25235811491723,-165.93398504830657 L244.16320078663412,20.23193964072141" stroke="#0d6d4d" stroke-width="0.1" fill="none" />
<path d="M205.1057871743195,-134.0022987399946 L224.36446503048907,98.41537903997751" stroke="#0d6d4d" stroke-width="0.1" fill="none" />
<path d="M224.36446503048907,-98.41537903997754 L180.25235811491726,165.9339850483065" stroke="#0d6d4d" stroke-width="0.1" fill="none" />
<path d="M237.50306515513594,-60.14394434949581 L116.60711129408305,215.4710690455898" stroke="#0d6d4d" stroke-width="0.1" fill="none" />
<path d="M244.16320078663412,-20.231939640721436 L40.325674618779836,241.65851933366696" stroke="#0d6d4d" stroke-width="0.1" fill="none" />
<path d="M244.16320078663412,20.23193964072141 L-40.325674618779786,241.658519333667" stroke="#0d6d4d" stroke-width="0.1" fill="none" />
<path d="M237.50306515513597,60.14394434949573 L-116.60711129408291,215.47106904558987" stroke="#0d6d4d" stroke-width="0.1" fill="none" />
<path d="M224.36446503048907,98.41537903997751 L-180.25235811491723,165.93398504830657" stroke="#0d6d4d" stroke-width="0.1" fill="none" />
<path d="M205.1057871743195,134.00229873999461 L-224.36446503048913,98.41537903997741" stroke="#0d6d4d" stroke-width="0.1" fill="none" />
<path d="M180.25235811491726,165.9339850483065 L-244.16320078663412,20.23193964072152" stroke="#0d6d4d" stroke-width="0.1" fill="none" />
<path d="M150.48211460896863,193.3394248021164 L-237.50306515513597,-60.1439443494957" stroke="#0d6d4d" stroke-width="0.1" fill="none" />
<path d="M116.60711129408305,215.4710690455898 L-205.10578717431954,-134.0022987399945" stroke="#0d6d4d" stroke-width="0.1" fill="none" />
<path d="M79.55136995514738,231.7252242166555 L-150.48211460896852,-193.3394248021165" stroke="#0d6d4d" stroke-width="0.1" fill="none" />
<path d="M40.325674618779836,241.65851933366696 L-79.55136995514752,-231.72522421665548" stroke="#0d6d4d" stroke-width="0.1" fill="none" />
<path d="M3.0003846579110155e-14,245.0 L0.0,-245.0" stroke="#0d6d4d" stroke-width="0.1" fill="none" />
<path d="M-40.325674618779786,241.658519333667 L79.55136995514745,-231.72522421665548" stroke="#0d6d4d" stroke-width="0.1" fill="none" />
<path d="M-79.55136995514744,231.7252242166555 L150.4821146089686,-193.33942480211644" stroke="#0d6d4d" stroke-width="0.1" fill="none" />
<path d="M-116.60711129408291,215.47106904558987 L205.1057871743195,-134.0022987399946" stroke="#0d6d4d" stroke-width="0.1" fill="none" />
<path d="M-150.48211460896854,193.3394248021165 L237.50306515513594,-60.14394434949581" stroke="#0d6d4d" stroke-width="0.1" fill="none" />
<path d="M-180.25235811491723,165.93398504830657 L244.16320078663412,20.23193964072141" stroke="#0d6d4d" stroke-width="0.1" fill="none" />
<path d="M-205.1057871743195,134.0022987399946 L224.36446503048907,98.41537903997751" stroke="#0d6d4d" stroke-width="0.1" fill="none" />
<path d="M-224.36446503048913,98.41537903997741 L180.25235811491726,165.9339850483065" stroke="#0d6d4d" stroke-width="0.1" fill="none" />
<path d="M-237.50306515513594,60.14394434949579 L116.60711129408305,215.4710690455898" stroke="#0d6d4d" stroke-width="0.1" fill="none" />
<path d="M-244.16320078663412,20.23193964072152 L40.325674618779836,241.65851933366696" stroke="#0d6d4d" stroke-width="0.1" fill="none" />
<path d="M-244.16320078663412,-20.231939640721432 L-40.325674618779786,241.658519333667" stroke="#0d6d4d" stroke-width="0.1" fill="none" />
<path d="M-237.50306515513597,-60.1439443494957 L-116.60711129408291,215.47106904558987" stroke="#0d6d4d" stroke-width="0.1" fill="none" />
<path d="M-224.36446503048916,-98.41537903997735 L-180.25235811491723,165.93398504830657" stroke="#0d6d4d" stroke-width="0.1" fill="none" />
<path d="M-205.10578717431954,-134.0022987399945 L-224.36446503048913,98.41537903997741" stroke="#0d6d4d" stroke-width="0.1" fill="none" />
<path d="M-180.25235811491723,-165.93398504830657 L-244.16320078663412,20.23193964072152" stroke="#0d6d4d" stroke-width="0.1" fill="none" />
<path d="M-150.48211460896852,-193.3394248021165 L-237.50306515513597,-60.1439443494957" stroke="#0d6d4d" stroke-width="0.1" fill="none" />
<path d="M-116.60711129408317,-215.47106904558973 L-205.10578717431954,-134.0022987399945" stroke="#0d6d4d" stroke-width="0.1" fill="none" />
<path d="M-79.55136995514752,-231.72522421665548 L-150.48211460896852,-193.3394248021165" stroke="#0d6d4d" stroke-width="0.1" fill="none" />
<path d="M-40.325674618779765,-241.658519333667 L-79.55136995514752,-231.72522421665548" stroke="#0d6d4d" stroke-width="0.1" fill="none" />
</svg>