<?xml version="1.0" encoding="UTF-8"?>
<svg xmlns="http://www.w3.org/2000/svg" xmlns:xlink="http://www.w3.org/1999/xlink"
     width="500.0" height="500" viewBox="-250.0 -250.0 500 500">
<defs>
</defs>
<circle cx="0" cy="0" r="245.0" fill="white" stroke-width="2" stroke="black" />
<path d="M0.0,-245.0 L0.0,-245.0" stroke="#4c0618" stroke-width="0.1" fill="none" />
<path d="M18.754566944941434,-244.28112129001642 L37.39907463362425,-242.1287038261854" stroke="#4c0618" stroke-width="0.1" fill="none" />
<path d="M37.39907463362425,-242.1287038261854 L73.92154665582213,-233.58211605345798" stroke="#4c0618" stroke-width="0.1" fill="none" />
<path d="M55.8241096812687,-238.55537885005586 L108.71136027740512,-219.5605614554586" stroke="#4c0618" stroke-width="0.1" fill="none" />
<path d="M73.92154665582213,-233.58211605345798 L140.95307175356206,-200.3926933878458" stroke="#4c0618" stroke-width="0.1" fill="none" />
<path d="M91.58518260098833,-227.2381005200132 L169.89096269409922,-176.52779043219283" stroke="#4c0618" stroke-width="0.1" fill="none" />
<path d="M108.71136027740512,-219.5605614554586 L194.84675346198946,-148.52522568682633" stroke="#4c0618" stroke-width="0.1" fill="none" />
<path d="M125.19957646454203,-210.59455371186428 L215.23550147318088,-117.04135553550442" stroke="#4c0618" stroke-width="0.1" fill="none" />
<path d="M140.95307175356206,-200.3926933878458 L230.5793117549926,-82.81413521008317" stroke="#4c0618" stroke-width="0.1" fill="none" />
<path d="M155.87939837000715,-189.01484905637602 L240.51853839922947,-46.64582174534375" stroke="#4c0618" stroke-width="0.1" fill="none" />
<path d="M169.89096269409922,-176.52779043219283 L244.82021435744846,-9.384169754058698" stroke="#4c0618" stroke-width="0.1" fill="none" />
<path d="M182.90553929493083,-163.00479654056355 L243.3835119911204,28.09743922260805" stroke="#4c0618" stroke-width="0.1" fill="none" />
<path d="M194.84675346198946,-148.52522568682633 L236.24210638601954,64.92046803818208" stroke="#4c0618" stroke-width="0.1" fill="none" />
<path d="M205.64452940232772,-133.1740497502992 L223.56338603675474,100.22181610697828" stroke="#4c0618" stroke-width="0.1" fill="none" />
<path d="M215.23550147318088,-117.04135553550442 L205.64452940232778,133.17404975029916" stroke="#4c0618" stroke-width="0.1" fill="none" />
<path d="M223.56338603675474,-100.22181610697831 L182.9055392949309,163.00479654056346" stroke="#4c0618" stroke-width="0.1" fill="none" />
<path d="M230.5793117549926,-82.81413521008317 L155.87939837000712,189.01484905637602" stroke="#4c0618" stroke-width="0.1" fill="none" />
<path d="M236.24210638601954,-64.92046803818211 L125.19957646454203,210.59455371186428" stroke="#4c0618" stroke-width="0.1" fill="none" />
<path d="M240.51853839922947,-46.64582174534375 L91.58518260098836,227.23810052001318" stroke="#4c0618" stroke-width="0.1" fill="none" />
<path d="M243.38351199112037,-28.09743922260813 L55.824109681268745,238.55537885005586" stroke="#4c0618" stroke-width="0.1" fill="none" />
<path d="M244.82021435744846,-9.384169754058698 L18.754566944941505,244.28112129001642" stroke="#4c0618" stroke-width="0.1" fill="none" />
<path d="M244.82021435744846,9.384169754058666 L-18.754566944941445,244.28112129001642" stroke="#4c0618" stroke-width="0.1" fill="none" />
<path d="M243.3835119911204,28.09743922260805 L-55.82410968126859,238.5553788500559" stroke="#4c0618" stroke-width="0.1" fill="none" />
<path d="M240.51853839922947,46.64582174534374 L-91.58518260098833,227.2381005200132" stroke="#4c0618" stroke-width="0.1" fill="none" />
<path d="M236.24210638601954,64.92046803818208 L-125.19957646454198,210.5945537118643" stroke="#4c0618" stroke-width="0.1" fill="none" />
<path d="M230.57931175499257,82.8141352100832 L-155.87939837000718,189.014849056376" stroke="#4c0618" stroke-width="0.1" fill="none" />
<path d="M223.56338603675474,100.22181610697828 L-182.90553929493083,163.00479654056355" stroke="#4c0618" stroke-width="0.1" fill="none" />
<path d="M215.23550147318093,117.04135553550437 L-205.64452940232766,133.1740497502993" stroke="#4c0618" stroke-width="0.1" fill="none" />
<path d="M205.64452940232778,133.17404975029916 L-223.5633860367547,100.22181610697831" stroke="#4c0618" stroke-width="0.1" fill="none" />
<path d="M194.84675346198946,148.52522568682633 L-236.24210638601954,64.92046803818208" stroke="#4c0618" stroke-width="0.1" fill="none" />
<path d="M182.9055392949309,163.00479654056346 L-243.38351199112037,28.097439222608212" stroke="#4c0618" stroke-width="0.1" fill="none" />
<path d="M169.89096269409922,176.5277904321928 L-244.82021435744846,-9.384169754058638" stroke="#4c0618" stroke-width="0.1" fill="none" />
<path d="M155.87939837000712,189.01484905637602 L-240.51853839922947,-46.6458217453438" stroke="#4c0618" stroke-width="0.1" fill="none" />
<path d="M140.95307175356206,200.39269338784578 L-230.5793117549926,-82.81413521008311" stroke="#4c0618" stroke-width="0.1" fill="none" />
<path d="M125.19957646454203,210.59455371186428 L-215.23550147318088,-117.04135553550442" stroke="#4c0618" stroke-width="0.1" fill="none" />
<path d="M108.71136027740518,219.56056145545858 L-194.84675346198955,-148.52522568682622" stroke="#4c0618" stroke-width="0.1" fill="none" />
<path d="M91.58518260098836,227.23810052001318 L-169.89096269409924,-176.5277904321928" stroke="#4c0618" stroke-width="0.1" fill="none" />
<path d="M73.9215466558221,233.58211605345798 L-140.953071753562,-200.39269338784584" stroke="#4c0618" stroke-width="0.1" fill="none" />
<path d="M55.824109681268745,238.55537885005586 L-108.7113602774052,-219.56056145545858" stroke="#4c0618" stroke-width="0.1" fill="none" />
<path d="M37.39907463362425,242.1287038261854 L-73.92154665582213,-233.58211605345798" stroke="#4c0618" stroke-width="0.1" fill="none" />
<path d="M18.754566944941505,244.28112129001642 L-37.399074633624394,-242.12870382618536" stroke="#4c0618" stroke-width="0.1" fill="none" />
<path d="M1.388057029923755e-13,245.0 L0.0,-245.0" stroke="#4c0618" stroke-width="0.1" fill="none" />
<path d="M-18.754566944941445,244.28112129001642 L37.39907463362425,-242.1287038261854" stroke="#4c0618" stroke-width="0.1" fill="none" />
<path d="M-37.399074633624195,242.1287038261854 L73.92154665582213,-233.58211605345798" stroke="#4c0618" stroke-width="0.1" fill="none" />
<path d="M-55.82410968126859,238.5553788500559 L108.71136027740512,-219.5605614554586" stroke="#4c0618" stroke-width="0.1" fill="none" />
<path d="M-73.92154665582216,233.58211605345798 L140.95307175356206,-200.3926933878458" stroke="#4c0618" stroke-width="0.1" fill="none" />
<path d="M-91.58518260098833,227.2381005200132 L169.89096269409922,-176.52779043219283" stroke="#4c0618" stroke-width="0.1" fill="none" />
<path d="M-108.71136027740513,219.5605614554586 L194.84675346198946,-148.52522568682633" stroke="#4c0618" stroke-width="0.1" fill="none" />
<path d="M-125.19957646454198,210.5945537118643 L215.23550147318088,-117.04135553550442" stroke="#4c0618" stroke-width="0.1" fill="none" />
<path d="M-140.95307175356194,200.3926933878459 L230.5793117549926,-82.81413521008317" stroke="#4c0618" stroke-width="0.1" fill="none" />
<path d="M-155.87939837000718,189.014849056376 L240.51853839922947,-46.64582174534375" stroke="#4c0618" stroke-width="0.1" fill="none" />
<path d="M-169.8909626940992,176.52779043219286 L244.82021435744846,-9.384169754058698" stroke="#4c0618" stroke-width="0.1" fill="none" />
<path d="M-182.90553929493083,163.00479654056355 L243.3835119911204,28.09743922260805" stroke="#4c0618" stroke-width="0.1" fill="none" />
<path d="M-194.8467534619895,148.5252256868263 L236.24210638601954,64.92046803818208" stroke="#4c0618" stroke-width="0.1" fill="none" />
<path d="M-205.64452940232766,133.1740497502993 L223.56338603675474,100.22181610697828" stroke="#4c0618" stroke-width="0.1" fill="none" />
<path d="M-215.23550147318096,117.04135553550431 L205.64452940232778,133.17404975029916" stroke="#4c0618" stroke-width="0.1" fill="none" />
<path d="M-223.5633860367547,100.22181610697831 L182.9055392949309,163.00479654056346" stroke="#4c0618" stroke-width="0.1" fill="none" />
<path d="M-230.57931175499257,82.8141352100832 L155.87939837000712,189.01484905637602" stroke="#4c0618" stroke-width="0.1" fill="none" />
<path d="M-236.24210638601954,64.92046803818208 L125.19957646454203,210.59455371186428" stroke="#4c0618" stroke-width="0.1" fill="none" />
<path d="M-240.51853839922944,46.6458217453439 L91.58518260098836,227.23810052001318" stroke="#4c0618" stroke-width="0.1" fill="none" />
<path d="M-243.38351199112037,28.097439222608212 L55.824109681268745,238.55537885005586" stroke="#4c0618" stroke-width="0.1" fill="none" />
<path d="M-244.82021435744846,9.384169754058727 L18.754566944941505,244.28112129001642" stroke="#4c0618" stroke-width="0.1" fill="none" />
<path d="M-244.82021435744846,-9.384169754058638 L-18.754566944941445,244.28112129001642" stroke="#4c0618" stroke-width="0.1" fill="none" />
<path d="M-243.38351199112037,-28.097439222608127 L-55.82410968126859,238.5553788500559" stroke="#4c0618" stroke-width="0.1" fill="none" />
<path d="M-240.51853839922947,-46.6458217453438 L-91.58518260098833,227.2381005200132" stroke="#4c0618" stroke-width="0.1" fill="none" />
<path d="M-236.24210638601957,-64.920468038182 L-125.19957646454198,210.5945537118643" stroke="#4c0618" stroke-width="0.1" fill="none" />
<path d="M-230.5793117549926,-82.81413521008311 L-155.87939837000718,189.014849056376" stroke="#4c0618" stroke-width="0.1" fill="none" />
<path d="M-223.56338603675476,-100.22181610697825 L-182.90553929493083,163.00479654056355" stroke="#4c0618" stroke-width="0.1" fill="none" />
<path d="M-215.23550147318088,-117.04135553550442 L-205.64452940232766,133.1740497502993" stroke="#4c0618" stroke-width="0.1" fill="none" />
<path d="M-205.64452940232772,-133.17404975029922 L-223.5633860367547,100.22181610697831" stroke="#4c0618" stroke-width="0.1" fill="none" />
<path d="M-194.84675346198955,-148.52522568682622 L-236.24210638601954,64.92046803818208" stroke="#4c0618" stroke-width="0.1" fill="none" />
<path d="M-182.90553929493092,-163.00479654056343 L-243.38351199112037,28.097439222608212" stroke="#4c0618" stroke-width="0.1" fill="none" />
<path d="M-169.89096269409924,-176.5277904321928 L-244.82021435744846,-9.384169754058638" stroke="#4c0618" stroke-width="0.1" fill="none" />
<path d="M-155.87939837000732,-189.01484905637588 L-240.51853839922947,-46.6458217453438" stroke="#4c0618" stroke-width="0.1" fill="none" />
<path d="M-140.953071753562,-200.39269338784584 L-230.5793117549926,-82.81413521008311" stroke="#4c0618" stroke-width="0.1" fill="none" />
<path d="M-125.19957646454213,-210.59455371186422 L-215.23550147318088,-117.04135553550442" stroke="#4c0618" stroke-width="0.1" fill="none" />
<path d="M-108.7113602774052,-219.56056145545858 L-194.84675346198955,-148.52522568682622" stroke="#4c0618" stroke-width="0.1" fill="none" />
<path d="M-91.58518260098839,-227.23810052001318 L-169.89096269409924,-176.5277904321928" stroke="#4c0618" stroke-width="0.1" fill="none" />
<path d="M-73.92154665582213,-233.58211605345798 L-140.953071753562,-200.39269338784584" stroke="#4c0618" stroke-width="0.1" fill="none" />
<path d="M-55.82410968126868,-238.55537885005586 L-108.7113602774052,-219.56056145545858" stroke="#4c0618" stroke-width="0.1" fill="none" />
<path d="M-37.399074633624394,-242.12870382618536 L-73.92154665582213,-233.58211605345798" stroke="#4c0618" stroke-width="0.1" fill="none" />
<path d="M-18.754566944941537,-244.28112129001642 L-37.399074633624394,-242.12870382618536" stroke="#4c0618" stroke-width="0.1" fill="none" />
</svg>