<?xml version="1.0" encoding="UTF-8"?>
<svg xmlns="http://www.w3.org/2000/svg" xmlns:xlink="http://www.w3.org/1999/xlink"
     width="500.0" height="500" viewBox="-250.0 -250.0 500 500">
<defs>
</defs>
<circle cx="0" cy="0" r="245.0" fill="white" stroke-width="2" stroke="black" />
<path d="M0.0,-245.0 L0.0,-245.0" stroke="#0d6d4d" stroke-width="0.1" fill="none" />
<path d="M2.375549813064707,-244.9884829192704 L49.54330522134929,-239.9384523325601" stroke="#0d6d4d" stroke-width="0.1" fill="none" />
<path d="M4.750876284096971,-244.95393275988286 L97.03954267959341,-224.96294618566714" stroke="#0d6d4d" stroke-width="0.1" fill="none" />
<path d="M7.125756092062294,-244.89635277013915 L140.52622690600631,-200.69225085080296" stroke="#0d6d4d" stroke-width="0.1" fill="none" />
<path d="M9.499965957920093,-244.81574836353636 L178.20654218539693,-168.12920127783974" stroke="#0d6d4d" stroke-width="0.1" fill="none" />
<path d="M11.873282665615724,-244.71212711825783 L208.52358474706494,-128.61926218196726" stroke="#0d6d4d" stroke-width="0.1" fill="none" />
<path d="M14.245483083066578,-244.5854987764607 L230.22469209254757,-83.79493511478881" stroke="#0d6d4d" stroke-width="0.1" fill="none" />
<path d="M16.61634418314029,-244.43587524335993 L242.4132014523314,-35.50830553027544" stroke="#0d6d4d" stroke-width="0.1" fill="none" />
<path d="M18.98564306462308,-244.26327058610906 L244.5854987764607,14.245483083066565" stroke="#0d6d4d" stroke-width="0.1" fill="none" />
<path d="M21.35315697317625,-244.06770103247766 L236.65182744082173,63.410666050117605" stroke="#0d6d4d" stroke-width="0.1" fill="none" />
<path d="M23.71866332227888,-243.84918496932562 L218.93999687923602,109.95579914911323" stroke="#0d6d4d" stroke-width="0.1" fill="none" />
<path d="M26.081939714154718,-243.60774294087452 L192.18183790529608,151.95769536072368" stroke="#0d6d4d" stroke-width="0.1" fill="none" />
<path d="M28.442763960681408,-243.34339764677605 L157.4829643732021,187.68088856414965" stroke="#0d6d4d" stroke-width="0.1" fill="none" />
<path d="M30.800914104279865,-243.05617393997787 L116.27709058817186,215.64934083912723" stroke="#0d6d4d" stroke-width="0.1" fill="none" />
<path d="M33.15616843878212,-242.7460988243871 L70.26679201421709,234.70743051729477" stroke="#0d6d4d" stroke-width="0.1" fill="none" />
<path d="M35.50830553027545,-242.4132014523314 L21.353156973176258,244.06770103247766" stroke="#0d6d4d" stroke-width="0.1" fill="none" />
<path d="M37.857104237920915,-242.0575131218182 L-28.44276396068138,243.34339764677605" stroke="#0d6d4d" stroke-width="0.1" fill="none" />
<path d="M40.202343734744375,-241.6790672735921 L-77.0634652571453,232.56444767539332" stroke="#0d6d4d" stroke-width="0.1" fill="none" />
<path d="M42.54380352839793,-241.27789948799096 L-122.50000000000003,212.17622392718746" stroke="#0d6d4d" stroke-width="0.1" fill="none" />
<path d="M44.881263481890024,-240.8540474816007 L-162.8749870754147,183.02114245404408" stroke="#0d6d4d" stroke-width="0.1" fill="none" />
<path d="M47.21450383428197,-240.40755110370924 L-196.52018222498572,146.30385496718262" stroke="#0d6d4d" stroke-width="0.1" fill="none" />
<path d="M49.54330522134929,-239.9384523325601 L-222.0454078239792,103.54147412647148" stroke="#0d6d4d" stroke-width="0.1" fill="none" />
<path d="M51.86744869620562,-239.4467952714057 L-238.39599329205683,56.5008883318979" stroke="#0d6d4d" stroke-width="0.1" fill="none" />
<path d="M54.1867157498875,-238.93262614436082 L-244.89635277013915,7.125756092062259" stroke="#0d6d4d" stroke-width="0.1" fill="none" />
<path d="M56.50088833189784,-238.39599329205683 L-241.27789948799096,-42.54380352839805" stroke="#0d6d4d" stroke-width="0.1" fill="none" />
<path d="M58.80974887070645,-237.8369471670969 L-227.69014343557149,-90.45550609160769" stroke="#0d6d4d" stroke-width="0.1" fill="none" />
<path d="M61.113080294205425,-237.25554032931245 L-204.6945137961694,-134.62969962734752" stroke="#0d6d4d" stroke-width="0.1" fill="none" />
<path d="M63.410666050117584,-236.65182744082173 L-173.24116139070418,-173.24116139070412" stroke="#0d6d4d" stroke-width="0.1" fill="none" />
<path d="M65.70229012635615,-236.02586526089067 L-134.62969962734743,-204.69451379616945" stroke="#0d6d4d" stroke-width="0.1" fill="none" />
<path d="M67.98773707133346,-235.3777126405965 L-90.45550609160777,-227.69014343557146" stroke="#0d6d4d" stroke-width="0.1" fill="none" />
<path d="M70.2667920142171,-234.70743051729477 L-42.543803528397945,-241.27789948799096" stroke="#0d6d4d" stroke-width="0.1" fill="none" />
<path d="M72.53924068513147,-234.01508190889015 L7.125756092062294,-244.89635277013915" stroke="#0d6d4d" stroke-width="0.1" fill="none" />
<path d="M74.8048694353027,-233.30073190791174 L56.50088833189784,-238.39599329205683" stroke="#0d6d4d" stroke-width="0.1" fill="none" />
<path d="M77.06346525714534,-232.5644476753933 L103.54147412647136,-222.04540782397925" stroke="#0d6d4d" stroke-width="0.1" fill="none" />
<path d="M79.31481580428866,-231.80629843455884 L146.30385496718262,-196.52018222498575" stroke="#0d6d4d" stroke-width="0.1" fill="none" />
<path d="M81.55870941154076,-231.0263554643146 L183.02114245404397,-162.87498707541482" stroke="#0d6d4d" stroke-width="0.1" fill="none" />
<path d="M83.79493511478883,-230.22469209254757 L212.17622392718746,-122.50000000000003" stroke="#0d6d4d" stroke-width="0.1" fill="none" />
<path d="M86.02328267083325,-229.40138368923132 L232.5644476753933,-77.06346525714534" stroke="#0d6d4d" stroke-width="0.1" fill="none" />
<path d="M88.24354257715405,-228.55650765934013 L243.34339764677605,-28.442763960681425" stroke="#0d6d4d" stroke-width="0.1" fill="none" />
<path d="M90.45550609160769,-227.69014343557149 L244.06770103247766,21.353156973176212" stroke="#0d6d4d" stroke-width="0.1" fill="none" />
<path d="M92.65896525205241,-226.80237247087817 L234.70743051729477,70.2667920142171" stroke="#0d6d4d" stroke-width="0.1" fill="none" />
<path d="M94.85371289590013,-225.89327823081 L215.6493408391272,116.27709058817193" stroke="#0d6d4d" stroke-width="0.1" fill="none" />
<path d="M97.03954267959341,-224.96294618566714 L187.68088856414965,157.48296437320212" stroke="#0d6d4d" stroke-width="0.1" fill="none" />
<path d="M99.21624909800504,-224.01146380246394 L151.95769536072373,192.18183790529605" stroke="#0d6d4d" stroke-width="0.1" fill="none" />
<path d="M101.38362750375909,-223.03892053670594 L109.95579914911328,218.939996879236" stroke="#0d6d4d" stroke-width="0.1" fill="none" />
<path d="M103.54147412647136,-222.04540782397925 L63.41066605011765,236.6518274408217" stroke="#0d6d4d" stroke-width="0.1" fill="none" />
<path d="M105.68958609190707,-221.03101907135425 L14.245483083066556,244.5854987764607" stroke="#0d6d4d" stroke-width="0.1" fill="none" />
<path d="M107.82776144105468,-219.99584964860358 L-35.508305530275344,242.41320145233144" stroke="#0d6d4d" stroke-width="0.1" fill="none" />
<path d="M109.95579914911323,-218.93999687923602 L-83.79493511478883,230.22469209254757" stroke="#0d6d4d" stroke-width="0.1" fill="none" />
<path d="M112.07349914439229,-217.863560031346 L-128.61926218196723,208.52358474706497" stroke="#0d6d4d" stroke-width="0.1" fill="none" />
<path d="M114.18066232712201,-216.76664030828115 L-168.12920127783977,178.2065421853969" stroke="#0d6d4d" stroke-width="0.1" fill="none" />
<path d="M116.2770905881719,-215.6493408391272 L-200.69225085080294,140.52622690600637" stroke="#0d6d4d" stroke-width="0.1" fill="none" />
<path d="M118.36258682767644,-214.51176666901227 L-224.96294618566714,97.03954267959341" stroke="#0d6d4d" stroke-width="0.1" fill="none" />
<path d="M120.43695497356578,-213.35402474923058 L-239.93845233256008,49.54330522134942" stroke="#0d6d4d" stroke-width="0.1" fill="none" />
<path d="M122.49999999999999,-212.1762239271875 L-245.0,4.500576986866523e-14" stroke="#0d6d4d" stroke-width="0.1" fill="none" />
<path d="M124.55152794570462,-210.97847493616584 L-239.93845233256016,-49.543305221349115" stroke="#0d6d4d" stroke-width="0.1" fill="none" />
<path d="M126.5913459322064,-209.76089038491529 L-224.96294618566716,-97.03954267959334" stroke="#0d6d4d" stroke-width="0.1" fill="none" />
<path d="M128.61926218196726,-208.52358474706494 L-200.692250850803,-140.5262269060063" stroke="#0d6d4d" stroke-width="0.1" fill="none" />
<path d="M130.63508603641432,-207.26667435036106 L-168.12920127783966,-178.20654218539698" stroke="#0d6d4d" stroke-width="0.1" fill="none" />
<path d="M132.63862797386554,-205.9902773657303 L-128.61926218196726,-208.52358474706492" stroke="#0d6d4d" stroke-width="0.1" fill="none" />
<path d="M134.62969962734746,-204.69451379616945 L-83.7949351147888,-230.22469209254757" stroke="#0d6d4d" stroke-width="0.1" fill="none" />
<path d="M136.6081138023052,-203.3795054654633 L-35.50830553027554,-242.4132014523314" stroke="#0d6d4d" stroke-width="0.1" fill="none" />
<path d="M138.57368449420196,-202.04537600673115 L14.245483083066578,-244.5854987764607" stroke="#0d6d4d" stroke-width="0.1" fill="none" />
<path d="M140.52622690600631,-200.69225085080296 L63.410666050117584,-236.65182744082173" stroke="#0d6d4d" stroke-width="0.1" fill="none" />
<path d="M142.46555746556652,-199.32025721442707 L109.95579914911323,-218.93999687923602" stroke="#0d6d4d" stroke-width="0.1" fill="none" />
<path d="M144.39149384286947,-197.92952408830925 L151.9576953607237,-192.18183790529605" stroke="#0d6d4d" stroke-width="0.1" fill="none" />
<path d="M146.30385496718262,-196.52018222498575 L187.68088856414963,-157.48296437320215" stroke="#0d6d4d" stroke-width="0.1" fill="none" />
<path d="M148.20246104407772,-195.09236412653019 L215.6493408391272,-116.2770905881719" stroke="#0d6d4d" stroke-width="0.1" fill="none" />
<path d="M150.0871335723347,-193.64620403209602 L234.70743051729477,-70.26679201421713" stroke="#0d6d4d" stroke-width="0.1" fill="none" />
<path d="M151.9576953607237,-192.18183790529605 L244.06770103247766,-21.35315697317624" stroke="#0d6d4d" stroke-width="0.1" fill="none" />
<path d="M153.81397054466416,-190.6994034214192 L243.34339764677605,28.442763960681344" stroke="#0d6d4d" stroke-width="0.1" fill="none" />
<path d="M155.65578460275884,-189.19903995448695 L232.5644476753933,77.06346525714531" stroke="#0d6d4d" stroke-width="0.1" fill="none" />
<path d="M157.48296437320212,-187.68088856414965 L212.17622392718752,122.49999999999994" stroke="#0d6d4d" stroke-width="0.1" fill="none" />
<path d="M159.29533807005996,-186.1450919824246 L183.02114245404408,162.8749870754147" stroke="#0d6d4d" stroke-width="0.1" fill="none" />
<path d="M161.09273529942058,-184.5917946002769 L146.30385496718262,196.52018222498575" stroke="#0d6d4d" stroke-width="0.1" fill="none" />
<path d="M162.87498707541477,-183.02114245404402 L103.54147412647137,222.04540782397925" stroke="#0d6d4d" stroke-width="0.1" fill="none" />
<path d="M164.64192583610298,-181.43328321170614 L56.500888331897876,238.39599329205683" stroke="#0d6d4d" stroke-width="0.1" fill="none" />
<path d="M166.39338545922934,-179.82836615900263 L7.125756092062352,244.89635277013915" stroke="#0d6d4d" stroke-width="0.1" fill="none" />
<path d="M168.12920127783974,-178.20654218539693 L-42.54380352839786,241.277899487991" stroke="#0d6d4d" stroke-width="0.1" fill="none" />
<path d="M169.84921009576342,-176.56796376989007 L-90.4555060916077,227.69014343557149" stroke="#0d6d4d" stroke-width="0.1" fill="none" />
<path d="M171.5532502029563,-174.91278496668525 L-134.62969962734746,204.69451379616945" stroke="#0d6d4d" stroke-width="0.1" fill="none" />
<path d="M173.24116139070412,-173.24116139070415 L-173.24116139070404,173.24116139070424" stroke="#0d6d4d" stroke-width="0.1" fill="none" />
<path d="M174.91278496668525,-171.55325020295632 L-204.69451379616945,134.62969962734743" stroke="#0d6d4d" stroke-width="0.1" fill="none" />
<path d="M176.56796376989007,-169.84921009576342 L-227.69014343557146,90.45550609160776" stroke="#0d6d4d" stroke-width="0.1" fill="none" />
<path d="M178.20654218539693,-168.12920127783974 L-241.27789948799096,42.54380352839793" stroke="#0d6d4d" stroke-width="0.1" fill="none" />
<path d="M179.82836615900263,-166.39338545922936 L-244.89635277013915,-7.125756092062169" stroke="#0d6d4d" stroke-width="0.1" fill="none" />
<path d="M181.4332832117061,-164.64192583610298 L-238.39599329205686,-56.500888331897805" stroke="#0d6d4d" stroke-width="0.1" fill="none" />
<path d="M183.02114245404397,-162.87498707541482 L-222.0454078239793,-103.54147412647121" stroke="#0d6d4d" stroke-width="0.1" fill="none" />
<path d="M184.59179460027684,-161.09273529942064 L-196.52018222498577,-146.30385496718253" stroke="#0d6d4d" stroke-width="0.1" fill="none" />
<path d="M186.14509198242456,-159.29533807005996 L-162.8749870754149,-183.02114245404385" stroke="#0d6d4d" stroke-width="0.1" fill="none" />
<path d="M187.68088856414963,-157.48296437320215 L-122.50000000000011,-212.1762239271874" stroke="#0d6d4d" stroke-width="0.1" fill="none" />
<path d="M189.19903995448692,-155.65578460275887 L-77.06346525714538,-232.5644476753933" stroke="#0d6d4d" stroke-width="0.1" fill="none" />
<path d="M190.6994034214192,-153.8139705446642 L-28.442763960681365,-243.34339764677605" stroke="#0d6d4d" stroke-width="0.1" fill="none" />
<path d="M192.18183790529602,-151.95769536072373 L21.35315697317625,-244.06770103247766" stroke="#0d6d4d" stroke-width="0.1" fill="none" />
<path d="M193.64620403209602,-150.0871335723347 L70.2667920142171,-234.70743051729477" stroke="#0d6d4d" stroke-width="0.1" fill="none" />
<path d="M195.09236412653016,-148.20246104407772 L116.2770905881719,-215.6493408391272" stroke="#0d6d4d" stroke-width="0.1" fill="none" />
<path d="M196.52018222498572,-146.30385496718262 L157.48296437320212,-187.68088856414965" stroke="#0d6d4d" stroke-width="0.1" fill="none" />
<path d="M197.92952408830922,-144.3914938428695 L192.18183790529602,-151.95769536072373" stroke="#0d6d4d" stroke-width="0.1" fill="none" />
<path d="M199.32025721442704,-142.46555746556658 L218.939996879236,-109.95579914911326" stroke="#0d6d4d" stroke-width="0.1" fill="none" />
<path d="M200.69225085080296,-140.52622690600631 L236.6518274408217,-63.410666050117634" stroke="#0d6d4d" stroke-width="0.1" fill="none" />
<path d="M202.04537600673112,-138.57368449420196 L244.5854987764607,-14.245483083066595" stroke="#0d6d4d" stroke-width="0.1" fill="none" />
<path d="M203.3795054654633,-136.60811380230524 L242.4132014523314,35.508305530275464" stroke="#0d6d4d" stroke-width="0.1" fill="none" />
<path d="M204.69451379616942,-134.6296996273475 L230.22469209254757,83.79493511478883" stroke="#0d6d4d" stroke-width="0.1" fill="none" />
<path d="M205.99027736573024,-132.6386279738656 L208.52358474706497,128.61926218196723" stroke="#0d6d4d" stroke-width="0.1" fill="none" />
<path d="M207.26667435036106,-130.63508603641432 L178.20654218539698,168.12920127783968" stroke="#0d6d4d" stroke-width="0.1" fill="none" />
<path d="M208.52358474706494,-128.61926218196726 L140.52622690600637,200.69225085080296" stroke="#0d6d4d" stroke-width="0.1" fill="none" />
<path d="M209.76089038491526,-126.59134593220645 L97.03954267959351,224.9629461856671" stroke="#0d6d4d" stroke-width="0.1" fill="none" />
<path d="M210.97847493616584,-124.55152794570462 L49.54330522134941,239.93845233256008" stroke="#0d6d4d" stroke-width="0.1" fill="none" />
<path d="M212.17622392718746,-122.50000000000003 L3.0003846579110155e-14,245.0" stroke="#0d6d4d" stroke-width="0.1" fill="none" />
<path d="M213.35402474923052,-120.43695497356585 L-49.54330522134935,239.9384523325601" stroke="#0d6d4d" stroke-width="0.1" fill="none" />
<path d="M214.51176666901227,-118.36258682767641 L-97.03954267959335,224.96294618566716" stroke="#0d6d4d" stroke-width="0.1" fill="none" />
<path d="M215.6493408391272,-116.2770905881719 L-140.52622690600631,200.69225085080296" stroke="#0d6d4d" stroke-width="0.1" fill="none" />
<path d="M216.76664030828113,-114.18066232712204 L-178.20654218539693,168.12920127783974" stroke="#0d6d4d" stroke-width="0.1" fill="none" />
<path d="M217.863560031346,-112.0734991443923 L-208.52358474706492,128.61926218196726" stroke="#0d6d4d" stroke-width="0.1" fill="none" />
<path d="M218.939996879236,-109.95579914911326 L-230.2246920925475,83.79493511478898" stroke="#0d6d4d" stroke-width="0.1" fill="none" />
<path d="M219.99584964860358,-107.82776144105468 L-242.4132014523314,35.50830553027553" stroke="#0d6d4d" stroke-width="0.1" fill="none" />
<path d="M221.03101907135422,-105.68958609190712 L-244.5854987764607,-14.24548308306659" stroke="#0d6d4d" stroke-width="0.1" fill="none" />
<path d="M222.04540782397925,-103.54147412647136 L-236.6518274408217,-63.41066605011769" stroke="#0d6d4d" stroke-width="0.1" fill="none" />
<path d="M223.03892053670594,-101.38362750375912 L-218.93999687923602,-109.9557991491132" stroke="#0d6d4d" stroke-width="0.1" fill="none" />
<path d="M224.01146380246394,-99.21624909800504 L-192.18183790529602,-151.95769536072373" stroke="#0d6d4d" stroke-width="0.1" fill="none" />
<path d="M224.96294618566714,-97.03954267959344 L-157.4829643732022,-187.6808885641496" stroke="#0d6d4d" stroke-width="0.1" fill="none" />
<path d="M225.89327823081,-94.85371289590014 L-116.27709058817207,-215.64934083912715" stroke="#0d6d4d" stroke-width="0.1" fill="none" />
<path d="M226.80237247087814,-92.65896525205243 L-70.26679201421722,-234.70743051729477" stroke="#0d6d4d" stroke-width="0.1" fill="none" />
<path d="M227.69014343557149,-90.45550609160769 L-21.353156973176286,-244.06770103247766" stroke="#0d6d4d" stroke-width="0.1" fill="none" />
<path d="M228.5565076593401,-88.24354257715407 L28.442763960681408,-243.34339764677605" stroke="#0d6d4d" stroke-width="0.1" fill="none" />
<path d="M229.4013836892313,-86.02328267083331 L77.06346525714534,-232.5644476753933" stroke="#0d6d4d" stroke-width="0.1" fill="none" />
<path d="M230.22469209254757,-83.79493511478881 L122.49999999999999,-212.1762239271875" stroke="#0d6d4d" stroke-width="0.1" fill="none" />
<path d="M231.0263554643146,-81.55870941154076 L162.87498707541477,-183.02114245404402" stroke="#0d6d4d" stroke-width="0.1" fill="none" />
<path d="M231.80629843455884,-79.31481580428867 L196.52018222498572,-146.30385496718262" stroke="#0d6d4d" stroke-width="0.1" fill="none" />
<path d="M232.5644476753933,-77.06346525714534 L222.04540782397925,-103.54147412647136" stroke="#0d6d4d" stroke-width="0.1" fill="none" />
<path d="M233.30073190791174,-74.80486943530273 L238.39599329205683,-56.50088833189786" stroke="#0d6d4d" stroke-width="0.1" fill="none" />
<path d="M234.01508190889015,-72.53924068513147 L244.89635277013915,-7.125756092062283" stroke="#0d6d4d" stroke-width="0.1" fill="none" />
<path d="M234.70743051729477,-70.26679201421713 L241.27789948799096,42.54380352839792" stroke="#0d6d4d" stroke-width="0.1" fill="none" />
<path d="M235.3777126405965,-67.98773707133346 L227.69014343557149,90.45550609160772" stroke="#0d6d4d" stroke-width="0.1" fill="none" />
<path d="M236.02586526089067,-65.70229012635616 L204.69451379616945,134.62969962734746" stroke="#0d6d4d" stroke-width="0.1" fill="none" />
<path d="M236.6518274408217,-63.410666050117634 L173.24116139070415,173.24116139070412" stroke="#0d6d4d" stroke-width="0.1" fill="none" />
<path d="M237.25554032931245,-61.11308029420538 L134.62969962734752,204.6945137961694" stroke="#0d6d4d" stroke-width="0.1" fill="none" />
<path d="M237.8369471670969,-58.80974887070644 L90.45550609160766,227.6901434355715" stroke="#0d6d4d" stroke-width="0.1" fill="none" />
<path d="M238.39599329205683,-56.50088833189786 L42.54380352839791,241.277899487991" stroke="#0d6d4d" stroke-width="0.1" fill="none" />
<path d="M238.93262614436082,-54.1867157498875 L-7.125756092062293,244.89635277013915" stroke="#0d6d4d" stroke-width="0.1" fill="none" />
<path d="M239.44679527140568,-51.86744869620565 L-56.50088833189772,238.39599329205686" stroke="#0d6d4d" stroke-width="0.1" fill="none" />
<path d="M239.9384523325601,-49.543305221349335 L-103.54147412647133,222.04540782397928" stroke="#0d6d4d" stroke-width="0.1" fill="none" />
<path d="M240.40755110370924,-47.21450383428199 L-146.30385496718256,196.52018222498577" stroke="#0d6d4d" stroke-width="0.1" fill="none" />
<path d="M240.8540474816007,-44.88126348189002 L-183.02114245404402,162.87498707541477" stroke="#0d6d4d" stroke-width="0.1" fill="none" />
<path d="M241.27789948799096,-42.54380352839795 L-212.1762239271874,122.50000000000011" stroke="#0d6d4d" stroke-width="0.1" fill="none" />
<path d="M241.6790672735921,-40.20234373474442 L-232.5644476753933,77.06346525714537" stroke="#0d6d4d" stroke-width="0.1" fill="none" />
<path d="M242.0575131218182,-37.857104237920936 L-243.34339764677603,28.44276396068156" stroke="#0d6d4d" stroke-width="0.1" fill="none" />
<path d="M242.4132014523314,-35.50830553027544 L-244.06770103247766,-21.353156973176183" stroke="#0d6d4d" stroke-width="0.1" fill="none" />
<path d="M242.7460988243871,-33.15616843878214 L-234.70743051729477,-70.26679201421713" stroke="#0d6d4d" stroke-width="0.1" fill="none" />
<path d="M243.05617393997787,-30.80091410427985 L-215.64934083912718,-116.277090588172" stroke="#0d6d4d" stroke-width="0.1" fill="none" />
<path d="M243.34339764677605,-28.442763960681425 L-187.68088856414965,-157.48296437320212" stroke="#0d6d4d" stroke-width="0.1" fill="none" />
<path d="M243.60774294087452,-26.081939714154768 L-151.95769536072365,-192.1818379052961" stroke="#0d6d4d" stroke-width="0.1" fill="none" />
<path d="M243.84918496932562,-23.718663322278893 L-109.95579914911329,-218.939996879236" stroke="#0d6d4d" stroke-width="0.1" fill="none" />
<path d="M244.06770103247766,-21.35315697317624 L-63.41066605011757,-236.65182744082173" stroke="#0d6d4d" stroke-width="0.1" fill="none" />
<path d="M244.26327058610906,-18.985643064623094 L-14.245483083066693,-244.5854987764607" stroke="#0d6d4d" stroke-width="0.1" fill="none" />
<path d="M244.43587524335993,-16.616344183140335 L35.50830553027545,-242.4132014523314" stroke="#0d6d4d" stroke-width="0.1" fill="none" />
<path d="M244.5854987764607,-14.245483083066595 L83.79493511478883,-230.22469209254757" stroke="#0d6d4d" stroke-width="0.1" fill="none" />
<path d="M244.71212711825783,-11.873282665615768 L128.61926218196726,-208.52358474706494" stroke="#0d6d4d" stroke-width="0.1" fill="none" />
<path d="M244.81574836353636,-9.49996595792011 L168.12920127783974,-178.20654218539693" stroke="#0d6d4d" stroke-width="0.1" fill="none" />
<path d="M244.89635277013915,-7.125756092062283 L200.69225085080296,-140.52622690600631" stroke="#0d6d4d" stroke-width="0.1" fill="none" />
<path d="M244.95393275988286,-4.750876284096987 L224.96294618566714,-97.03954267959344" stroke="#0d6d4d" stroke-width="0.1" fill="none" />
<path d="M244.9884829192704,-2.3755498130647497 L239.9384523325601,-49.543305221349335" stroke="#0d6d4d" stroke-width="0.1" fill="none" />
<path d="M245.0,-1.5001923289555078e-14 L245.0,-1.5001923289555078e-14" stroke="#0d6d4d" stroke-width="0.1" fill="none" />
<path d="M244.9884829192704,2.3755498130646653 L239.93845233256013,49.54330522134926" stroke="#0d6d4d" stroke-width="0.1" fill="none" />
<path d="M244.95393275988286,4.750876284096901 L224.96294618566714,97.03954267959341" stroke="#0d6d4d" stroke-width="0.1" fill="none" />
<path d="M244.89635277013915,7.125756092062254 L200.69225085080305,140.52622690600623" stroke="#0d6d4d" stroke-width="0.1" fill="none" />
<path d="M244.81574836353636,9.499965957920134 L168.12920127783974,178.20654218539693" stroke="#0d6d4d" stroke-width="0.1" fill="none" />
<path d="M244.71212711825783,11.873282665615738 L128.61926218196726,208.52358474706494" stroke="#0d6d4d" stroke-width="0.1" fill="none" />
<path d="M244.5854987764607,14.245483083066565 L83.79493511478887,230.22469209254754" stroke="#0d6d4d" stroke-width="0.1" fill="none" />
<path d="M244.43587524335993,16.616344183140306 L35.50830553027551,242.4132014523314" stroke="#0d6d4d" stroke-width="0.1" fill="none" />
<path d="M244.26327058610906,18.98564306462307 L-14.245483083066494,244.5854987764607" stroke="#0d6d4d" stroke-width="0.1" fill="none" />
<path d="M244.06770103247766,21.353156973176212 L-63.4106660501176,236.65182744082173" stroke="#0d6d4d" stroke-width="0.1" fill="none" />
<path d="M243.84918496932562,23.718663322278868 L-109.95579914911312,218.93999687923605" stroke="#0d6d4d" stroke-width="0.1" fill="none" />
<path d="M243.60774294087452,26.081939714154686 L-151.95769536072368,192.18183790529608" stroke="#0d6d4d" stroke-width="0.1" fill="none" />
<path d="M243.34339764677605,28.442763960681344 L-187.6808885641496,157.4829643732022" stroke="#0d6d4d" stroke-width="0.1" fill="none" />
<path d="M243.05617393997787,30.800914104279823 L-215.64934083912723,116.27709058817187" stroke="#0d6d4d" stroke-width="0.1" fill="none" />
<path d="M242.7460988243871,33.15616843878205 L-234.70743051729477,70.2667920142172" stroke="#0d6d4d" stroke-width="0.1" fill="none" />
<path d="M242.4132014523314,35.508305530275464 L-244.06770103247766,21.353156973176272" stroke="#0d6d4d" stroke-width="0.1" fill="none" />
<path d="M242.0575131218182,37.85710423792091 L-243.34339764677605,-28.44276396068126" stroke="#0d6d4d" stroke-width="0.1" fill="none" />
<path d="M241.6790672735921,40.20234373474439 L-232.56444767539332,-77.0634652571453" stroke="#0d6d4d" stroke-width="0.1" fill="none" />
<path d="M241.27789948799096,42.54380352839792 L-212.17622392718758,-122.49999999999983" stroke="#0d6d4d" stroke-width="0.1" fill="none" />
<path d="M240.8540474816007,44.88126348188999 L-183.02114245404408,-162.87498707541468" stroke="#0d6d4d" stroke-width="0.1" fill="none" />
<path d="M240.40755110370924,47.21450383428196 L-146.30385496718262,-196.52018222498572" stroke="#0d6d4d" stroke-width="0.1" fill="none" />
<path d="M239.93845233256013,49.54330522134926 L-103.5414741264713,-222.04540782397928" stroke="#0d6d4d" stroke-width="0.1" fill="none" />
<path d="M239.4467952714057,51.86744869620557 L-56.50088833189791,-238.39599329205683" stroke="#0d6d4d" stroke-width="0.1" fill="none" />
<path d="M238.93262614436082,54.18671574988747 L-7.125756092062273,-244.89635277013915" stroke="#0d6d4d" stroke-width="0.1" fill="none" />
<path d="M238.39599329205686,56.500888331897784 L42.54380352839793,-241.27789948799096" stroke="#0d6d4d" stroke-width="0.1" fill="none" />
<path d="M237.8369471670969,58.809748870706464 L90.45550609160769,-227.69014343557149" stroke="#0d6d4d" stroke-width="0.1" fill="none" />
<path d="M237.25554032931245,61.11308029420541 L134.62969962734746,-204.69451379616945" stroke="#0d6d4d" stroke-width="0.1" fill="none" />
<path d="M236.65182744082173,63.410666050117605 L173.24116139070412,-173.24116139070415" stroke="#0d6d4d" stroke-width="0.1" fill="none" />
<path d="M236.02586526089067,65.70229012635615 L204.69451379616942,-134.6296996273475" stroke="#0d6d4d" stroke-width="0.1" fill="none" />
<path d="M235.3777126405965,67.98773707133343 L227.69014343557149,-90.45550609160769" stroke="#0d6d4d" stroke-width="0.1" fill="none" />
<path d="M234.70743051729477,70.2667920142171 L241.27789948799096,-42.54380352839795" stroke="#0d6d4d" stroke-width="0.1" fill="none" />
<path d="M234.01508190889018,72.53924068513145 L244.89635277013915,7.125756092062254" stroke="#0d6d4d" stroke-width="0.1" fill="none" />
<path d="M233.30073190791174,74.8048694353027 L238.39599329205686,56.500888331897784" stroke="#0d6d4d" stroke-width="0.1" fill="none" />
<path d="M232.5644476753933,77.06346525714531 L222.04540782397928,103.54147412647134" stroke="#0d6d4d" stroke-width="0.1" fill="none" />
<path d="M231.80629843455887,79.3148158042886 L196.52018222498577,146.30385496718256" stroke="#0d6d4d" stroke-width="0.1" fill="none" />
<path d="M231.02635546431463,81.55870941154073 L162.87498707541485,183.02114245404397" stroke="#0d6d4d" stroke-width="0.1" fill="none" />
<path d="M230.22469209254757,83.79493511478883 L122.50000000000009,212.17622392718744" stroke="#0d6d4d" stroke-width="0.1" fill="none" />
<path d="M229.40138368923132,86.02328267083328 L77.06346525714535,232.5644476753933" stroke="#0d6d4d" stroke-width="0.1" fill="none" />
<path d="M228.55650765934013,88.24354257715405 L28.44276396068144,243.34339764677605" stroke="#0d6d4d" stroke-width="0.1" fill="none" />
<path d="M227.69014343557149,90.45550609160772 L-21.353156973176198,244.06770103247766" stroke="#0d6d4d" stroke-width="0.1" fill="none" />
<path d="M226.80237247087817,92.65896525205241 L-70.26679201421715,234.70743051729477" stroke="#0d6d4d" stroke-width="0.1" fill="none" />
<path d="M225.89327823081,94.85371289590012 L-116.27709058817182,215.64934083912726" stroke="#0d6d4d" stroke-width="0.1" fill="none" />
<path d="M224.96294618566714,97.03954267959341 L-157.48296437320212,187.68088856414965" stroke="#0d6d4d" stroke-width="0.1" fill="none" />
<path d="M224.01146380246396,99.21624909800501 L-192.18183790529594,151.95769536072385" stroke="#0d6d4d" stroke-width="0.1" fill="none" />
<path d="M223.03892053670597,101.38362750375904 L-218.939996879236,109.95579914911329" stroke="#0d6d4d" stroke-width="0.1" fill="none" />
<path d="M222.04540782397928,103.54147412647134 L-236.65182744082173,63.410666050117555" stroke="#0d6d4d" stroke-width="0.1" fill="none" />
<path d="M221.03101907135422,105.68958609190715 L-244.5854987764607,14.245483083066679" stroke="#0d6d4d" stroke-width="0.1" fill="none" />
<path d="M219.99584964860358,107.8277614410547 L-242.41320145233144,-35.508305530275436" stroke="#0d6d4d" stroke-width="0.1" fill="none" />
<path d="M218.93999687923602,109.95579914911323 L-230.2246920925476,-83.79493511478871" stroke="#0d6d4d" stroke-width="0.1" fill="none" />
<path d="M217.863560031346,112.07349914439227 L-208.52358474706497,-128.6192621819672" stroke="#0d6d4d" stroke-width="0.1" fill="none" />
<path d="M216.76664030828118,114.18066232712195 L-178.20654218539704,-168.1292012778396" stroke="#0d6d4d" stroke-width="0.1" fill="none" />
<path d="M215.6493408391272,116.27709058817193 L-140.52622690600637,-200.69225085080294" stroke="#0d6d4d" stroke-width="0.1" fill="none" />
<path d="M214.51176666901227,118.36258682767641 L-97.03954267959364,-224.96294618566705" stroke="#0d6d4d" stroke-width="0.1" fill="none" />
<path d="M213.35402474923058,120.43695497356576 L-49.543305221349435,-239.93845233256008" stroke="#0d6d4d" stroke-width="0.1" fill="none" />
<path d="M212.17622392718752,122.49999999999994 L0.0,-245.0" stroke="#0d6d4d" stroke-width="0.1" fill="none" />
<path d="M210.9784749361659,124.55152794570454 L49.54330522134929,-239.9384523325601" stroke="#0d6d4d" stroke-width="0.1" fill="none" />
<path d="M209.76089038491534,126.59134593220631 L97.03954267959341,-224.96294618566714" stroke="#0d6d4d" stroke-width="0.1" fill="none" />
<path d="M208.52358474706497,128.61926218196723 L140.52622690600631,-200.69225085080296" stroke="#0d6d4d" stroke-width="0.1" fill="none" />
<path d="M207.26667435036103,130.63508603641438 L178.20654218539693,-168.12920127783974" stroke="#0d6d4d" stroke-width="0.1" fill="none" />
<path d="M205.99027736573026,132.63862797386557 L208.52358474706494,-128.61926218196726" stroke="#0d6d4d" stroke-width="0.1" fill="none" />
<path d="M204.69451379616945,134.62969962734746 L230.22469209254757,-83.79493511478881" stroke="#0d6d4d" stroke-width="0.1" fill="none" />
<path d="M203.37950546546332,136.6081138023052 L242.4132014523314,-35.50830553027544" stroke="#0d6d4d" stroke-width="0.1" fill="none" />
<path d="M202.04537600673117,138.57368449420193 L244.5854987764607,14.245483083066565" stroke="#0d6d4d" stroke-width="0.1" fill="none" />
<path d="M200.69225085080305,140.52622690600623 L236.65182744082173,63.410666050117605" stroke="#0d6d4d" stroke-width="0.1" fill="none" />
<path d="M199.32025721442707,142.46555746556652 L218.93999687923602,109.95579914911323" stroke="#0d6d4d" stroke-width="0.1" fill="none" />
<path d="M197.92952408830925,144.39149384286947 L192.18183790529608,151.95769536072368" stroke="#0d6d4d" stroke-width="0.1" fill="none" />
<path d="M196.52018222498577,146.30385496718256 L157.4829643732021,187.68088856414965" stroke="#0d6d4d" stroke-width="0.1" fill="none" />
<path d="M195.0923641265302,148.20246104407764 L116.27709058817186,215.64934083912723" stroke="#0d6d4d" stroke-width="0.1" fill="none" />
<path d="M193.64620403209602,150.0871335723347 L70.26679201421709,234.70743051729477" stroke="#0d6d4d" stroke-width="0.1" fill="none" />
<path d="M192.18183790529608,151.95769536072368 L21.353156973176258,244.06770103247766" stroke="#0d6d4d" stroke-width="0.1" fill="none" />
<path d="M190.69940342141925,153.8139705446641 L-28.44276396068138,243.34339764677605" stroke="#0d6d4d" stroke-width="0.1" fill="none" />
<path d="M189.19903995448692,155.65578460275887 L-77.0634652571453,232.56444767539332" stroke="#0d6d4d" stroke-width="0.1" fill="none" />
<path d="M187.68088856414965,157.48296437320212 L-122.50000000000003,212.17622392718746" stroke="#0d6d4d" stroke-width="0.1" fill="none" />
<path d="M186.14509198242462,159.29533807005993 L-162.8749870754147,183.02114245404408" stroke="#0d6d4d" stroke-width="0.1" fill="none" />
<path d="M184.59179460027693,161.09273529942055 L-196.52018222498572,146.30385496718262" stroke="#0d6d4d" stroke-width="0.1" fill="none" />
<path d="M183.02114245404408,162.8749870754147 L-222.0454078239792,103.54147412647148" stroke="#0d6d4d" stroke-width="0.1" fill="none" />
<path d="M181.43328321170614,164.64192583610298 L-238.39599329205683,56.5008883318979" stroke="#0d6d4d" stroke-width="0.1" fill="none" />
<path d="M179.82836615900268,166.3933854592293 L-244.89635277013915,7.125756092062259" stroke="#0d6d4d" stroke-width="0.1" fill="none" />
<path d="M178.20654218539698,168.12920127783968 L-241.27789948799096,-42.54380352839805" stroke="#0d6d4d" stroke-width="0.1" fill="none" />
<path d="M176.56796376989007,169.84921009576342 L-227.69014343557149,-90.45550609160769" stroke="#0d6d4d" stroke-width="0.1" fill="none" />
<path d="M174.91278496668525,171.5532502029563 L-204.6945137961694,-134.62969962734752" stroke="#0d6d4d" stroke-width="0.1" fill="none" />
<path d="M173.24116139070415,173.24116139070412 L-173.24116139070418,-173.24116139070412" stroke="#0d6d4d" stroke-width="0.1" fill="none" />
<path d="M171.55325020295632,174.91278496668525 L-134.62969962734743,-204.69451379616945" stroke="#0d6d4d" stroke-width="0.1" fill="none" />
<path d="M169.84921009576342,176.5679637698901 L-90.45550609160777,-227.69014343557146" stroke="#0d6d4d" stroke-width="0.1" fill="none" />
<path d="M168.12920127783974,178.20654218539693 L-42.543803528397945,-241.27789948799096" stroke="#0d6d4d" stroke-width="0.1" fill="none" />
<path d="M166.39338545922936,179.82836615900263 L7.125756092062294,-244.89635277013915" stroke="#0d6d4d" stroke-width="0.1" fill="none" />
<path d="M164.641925836103,181.43328321170608 L56.50088833189784,-238.39599329205683" stroke="#0d6d4d" stroke-width="0.1" fill="none" />
<path d="M162.87498707541485,183.02114245404397 L103.54147412647136,-222.04540782397925" stroke="#0d6d4d" stroke-width="0.1" fill="none" />
<path d="M161.09273529942067,184.5917946002768 L146.30385496718262,-196.52018222498575" stroke="#0d6d4d" stroke-width="0.1" fill="none" />
<path d="M159.29533807005996,186.14509198242456 L183.02114245404397,-162.87498707541482" stroke="#0d6d4d" stroke-width="0.1" fill="none" />
<path d="M157.4829643732021,187.68088856414965 L212.17622392718746,-122.50000000000003" stroke="#0d6d4d" stroke-width="0.1" fill="none" />
<path d="M155.6557846027588,189.19903995448695 L232.5644476753933,-77.06346525714534" stroke="#0d6d4d" stroke-width="0.1" fill="none" />
<path d="M153.81397054466416,190.6994034214192 L243.34339764677605,-28.442763960681425" stroke="#0d6d4d" stroke-width="0.1" fill="none" />
<path d="M151.95769536072373,192.18183790529605 L244.06770103247766,21.353156973176212" stroke="#0d6d4d" stroke-width="0.1" fill="none" />
<path d="M150.08713357233472,193.646204032096 L234.70743051729477,70.2667920142171" stroke="#0d6d4d" stroke-width="0.1" fill="none" />
<path d="M148.20246104407778,195.09236412653013 L215.6493408391272,116.27709058817193" stroke="#0d6d4d" stroke-width="0.1" fill="none" />
<path d="M146.30385496718262,196.52018222498575 L187.68088856414965,157.48296437320212" stroke="#0d6d4d" stroke-width="0.1" fill="none" />
<path d="M144.3914938428695,197.92952408830922 L151.95769536072373,192.18183790529605" stroke="#0d6d4d" stroke-width="0.1" fill="none" />
<path d="M142.46555746556658,199.32025721442704 L109.95579914911328,218.939996879236" stroke="#0d6d4d" stroke-width="0.1" fill="none" />
<path d="M140.52622690600637,200.69225085080296 L63.41066605011765,236.6518274408217" stroke="#0d6d4d" stroke-width="0.1" fill="none" />
<path d="M138.57368449420196,202.04537600673115 L14.245483083066556,244.5854987764607" stroke="#0d6d4d" stroke-width="0.1" fill="none" />
<path d="M136.60811380230524,203.3795054654633 L-35.508305530275344,242.41320145233144" stroke="#0d6d4d" stroke-width="0.1" fill="none" />
<path d="M134.62969962734752,204.6945137961694 L-83.79493511478883,230.22469209254757" stroke="#0d6d4d" stroke-width="0.1" fill="none" />
<path d="M132.6386279738655,205.9902773657303 L-128.61926218196723,208.52358474706497" stroke="#0d6d4d" stroke-width="0.1" fill="none" />
<path d="M130.63508603641432,207.26667435036106 L-168.12920127783977,178.2065421853969" stroke="#0d6d4d" stroke-width="0.1" fill="none" />
<path d="M128.61926218196726,208.52358474706494 L-200.69225085080294,140.52622690600637" stroke="#0d6d4d" stroke-width="0.1" fill="none" />
<path d="M126.59134593220645,209.76089038491526 L-224.96294618566714,97.03954267959341" stroke="#0d6d4d" stroke-width="0.1" fill="none" />
<path d="M124.55152794570466,210.97847493616584 L-239.93845233256008,49.54330522134942" stroke="#0d6d4d" stroke-width="0.1" fill="none" />
<path d="M122.50000000000009,212.17622392718744 L-245.0,4.500576986866523e-14" stroke="#0d6d4d" stroke-width="0.1" fill="none" />
<path d="M120.4369549735658,213.35402474923055 L-239.93845233256016,-49.543305221349115" stroke="#0d6d4d" stroke-width="0.1" fill="none" />
<path d="M118.36258682767637,214.5117666690123 L-224.96294618566716,-97.03954267959334" stroke="#0d6d4d" stroke-width="0.1" fill="none" />
<path d="M116.27709058817186,215.64934083912723 L-200.692250850803,-140.5262269060063" stroke="#0d6d4d" stroke-width="0.1" fill="none" />
<path d="M114.180662327122,216.76664030828115 L-168.12920127783966,-178.20654218539698" stroke="#0d6d4d" stroke-width="0.1" fill="none" />
<path d="M112.07349914439231,217.86356003134597 L-128.61926218196726,-208.52358474706492" stroke="#0d6d4d" stroke-width="0.1" fill="none" />
<path d="M109.95579914911328,218.939996879236 L-83.7949351147888,-230.22469209254757" stroke="#0d6d4d" stroke-width="0.1" fill="none" />
<path d="M107.82776144105475,219.99584964860355 L-35.50830553027554,-242.4132014523314" stroke="#0d6d4d" stroke-width="0.1" fill="none" />
<path d="M105.68958609190707,221.03101907135425 L14.245483083066578,-244.5854987764607" stroke="#0d6d4d" stroke-width="0.1" fill="none" />
<path d="M103.54147412647137,222.04540782397925 L63.410666050117584,-236.65182744082173" stroke="#0d6d4d" stroke-width="0.1" fill="none" />
<path d="M101.38362750375913,223.03892053670592 L109.95579914911323,-218.93999687923602" stroke="#0d6d4d" stroke-width="0.1" fill="none" />
<path d="M99.21624909800508,224.0114638024639 L151.9576953607237,-192.18183790529605" stroke="#0d6d4d" stroke-width="0.1" fill="none" />
<path d="M97.03954267959351,224.9629461856671 L187.68088856414963,-157.48296437320215" stroke="#0d6d4d" stroke-width="0.1" fill="none" />
<path d="M94.85371289590016,225.89327823080998 L215.6493408391272,-116.2770905881719" stroke="#0d6d4d" stroke-width="0.1" fill="none" />
<path d="M92.65896525205244,226.80237247087814 L234.70743051729477,-70.26679201421713" stroke="#0d6d4d" stroke-width="0.1" fill="none" />
<path d="M90.45550609160766,227.6901434355715 L244.06770103247766,-21.35315697317624" stroke="#0d6d4d" stroke-width="0.1" fill="none" />
<path d="M88.24354257715403,228.55650765934013 L243.34339764677605,28.442763960681344" stroke="#0d6d4d" stroke-width="0.1" fill="none" />
<path d="M86.02328267083327,229.40138368923132 L232.5644476753933,77.06346525714531" stroke="#0d6d4d" stroke-width="0.1" fill="none" />
<path d="M83.79493511478887,230.22469209254754 L212.17622392718752,122.49999999999994" stroke="#0d6d4d" stroke-width="0.1" fill="none" />
<path d="M81.55870941154082,231.02635546431458 L183.02114245404408,162.8749870754147" stroke="#0d6d4d" stroke-width="0.1" fill="none" />
<path d="M79.31481580428873,231.8062984345588 L146.30385496718262,196.52018222498575" stroke="#0d6d4d" stroke-width="0.1" fill="none" />
<path d="M77.06346525714535,232.5644476753933 L103.54147412647137,222.04540782397925" stroke="#0d6d4d" stroke-width="0.1" fill="none" />
<path d="M74.80486943530275,233.30073190791174 L56.500888331897876,238.39599329205683" stroke="#0d6d4d" stroke-width="0.1" fill="none" />
<path d="M72.53924068513155,234.01508190889015 L7.125756092062352,244.89635277013915" stroke="#0d6d4d" stroke-width="0.1" fill="none" />
<path d="M70.26679201421709,234.70743051729477 L-42.54380352839786,241.277899487991" stroke="#0d6d4d" stroke-width="0.1" fill="none" />
<path d="M67.98773707133347,235.3777126405965 L-90.4555060916077,227.69014343557149" stroke="#0d6d4d" stroke-width="0.1" fill="none" />
<path d="M65.70229012635617,236.02586526089067 L-134.62969962734746,204.69451379616945" stroke="#0d6d4d" stroke-width="0.1" fill="none" />
<path d="M63.41066605011765,236.6518274408217 L-173.24116139070404,173.24116139070424" stroke="#0d6d4d" stroke-width="0.1" fill="none" />
<path d="M61.113080294205396,237.25554032931245 L-204.69451379616945,134.62969962734743" stroke="#0d6d4d" stroke-width="0.1" fill="none" />
<path d="M58.80974887070646,237.8369471670969 L-227.69014343557146,90.45550609160776" stroke="#0d6d4d" stroke-width="0.1" fill="none" />
<path d="M56.500888331897876,238.39599329205683 L-241.27789948799096,42.54380352839793" stroke="#0d6d4d" stroke-width="0.1" fill="none" />
<path d="M54.18671574988757,238.9326261443608 L-244.89635277013915,-7.125756092062169" stroke="#0d6d4d" stroke-width="0.1" fill="none" />
<path d="M51.86744869620572,239.44679527140568 L-238.39599329205686,-56.500888331897805" stroke="#0d6d4d" stroke-width="0.1" fill="none" />
<path d="M49.54330522134941,239.93845233256008 L-222.0454078239793,-103.54147412647121" stroke="#0d6d4d" stroke-width="0.1" fill="none" />
<path d="M47.214503834282006,240.40755110370924 L-196.52018222498577,-146.30385496718253" stroke="#0d6d4d" stroke-width="0.1" fill="none" />
<path d="M44.881263481889974,240.8540474816007 L-162.8749870754149,-183.02114245404385" stroke="#0d6d4d" stroke-width="0.1" fill="none" />
<path d="M42.54380352839791,241.277899487991 L-122.50000000000011,-212.1762239271874" stroke="#0d6d4d" stroke-width="0.1" fill="none" />
<path d="M40.202343734744375,241.6790672735921 L-77.06346525714538,-232.5644476753933" stroke="#0d6d4d" stroke-width="0.1" fill="none" />
<path d="M37.85710423792095,242.0575131218182 L-28.442763960681365,-243.34339764677605" stroke="#0d6d4d" stroke-width="0.1" fill="none" />
<path d="M35.50830553027551,242.4132014523314 L21.35315697317625,-244.06770103247766" stroke="#0d6d4d" stroke-width="0.1" fill="none" />
<path d="M33.1561684387822,242.74609882438708 L70.2667920142171,-234.70743051729477" stroke="#0d6d4d" stroke-width="0.1" fill="none" />
<path d="M30.800914104279865,243.05617393997787 L116.2770905881719,-215.6493408391272" stroke="#0d6d4d" stroke-width="0.1" fill="none" />
<path d="M28.44276396068144,243.34339764677605 L157.48296437320212,-187.68088856414965" stroke="#0d6d4d" stroke-width="0.1" fill="none" />
<path d="M26.08193971415478,243.60774294087452 L192.18183790529602,-151.95769536072373" stroke="#0d6d4d" stroke-width="0.1" fill="none" />
<path d="M23.718663322278967,243.84918496932562 L218.939996879236,-109.95579914911326" stroke="#0d6d4d" stroke-width="0.1" fill="none" />
<path d="M21.353156973176258,244.06770103247766 L236.6518274408217,-63.410666050117634" stroke="#0d6d4d" stroke-width="0.1" fill="none" />
<path d="M18.985643064623112,244.26327058610906 L244.5854987764607,-14.245483083066595" stroke="#0d6d4d" stroke-width="0.1" fill="none" />
<path d="M16.61634418314035,244.43587524335993 L242.4132014523314,35.508305530275464" stroke="#0d6d4d" stroke-width="0.1" fill="none" />
<path d="M14.245483083066556,244.5854987764607 L230.22469209254757,83.79493511478883" stroke="#0d6d4d" stroke-width="0.1" fill="none" />
<path d="M11.87328266561573,244.71212711825783 L208.52358474706497,128.61926218196723" stroke="#0d6d4d" stroke-width="0.1" fill="none" />
<path d="M9.499965957920127,244.81574836353636 L178.20654218539698,168.12920127783968" stroke="#0d6d4d" stroke-width="0.1" fill="none" />
<path d="M7.125756092062352,244.89635277013915 L140.52622690600637,200.69225085080296" stroke="#0d6d4d" stroke-width="0.1" fill="none" />
<path d="M4.750876284097056,244.95393275988283 L97.03954267959351,224.9629461856671" stroke="#0d6d4d" stroke-width="0.1" fill="none" />
<path d="M2.3755498130647106,244.9884829192704 L49.54330522134941,239.93845233256008" stroke="#0d6d4d" stroke-width="0.1" fill="none" />
<path d="M3.0003846579110155e-14,245.0 L3.0003846579110155e-14,245.0" stroke="#0d6d4d" stroke-width="0.1" fill="none" />
<path d="M-2.37554981306465,244.9884829192704 L-49.54330522134935,239.9384523325601" stroke="#0d6d4d" stroke-width="0.1" fill="none" />
<path d="M-4.750876284096887,244.95393275988286 L-97.03954267959335,224.96294618566716" stroke="#0d6d4d" stroke-width="0.1" fill="none" />
<path d="M-7.125756092062293,244.89635277013915 L-140.52622690600631,200.69225085080296" stroke="#0d6d4d" stroke-width="0.1" fill="none" />
<path d="M-9.499965957919956,244.81574836353636 L-178.20654218539693,168.12920127783974" stroke="#0d6d4d" stroke-width="0.1" fill="none" />
<path d="M-11.873282665615669,244.71212711825785 L-208.52358474706492,128.61926218196726" stroke="#0d6d4d" stroke-width="0.1" fill="none" />
<path d="M-14.245483083066494,244.5854987764607 L-230.2246920925475,83.79493511478898" stroke="#0d6d4d" stroke-width="0.1" fill="none" />
<path d="M-16.61634418314029,244.43587524335993 L-242.4132014523314,35.50830553027553" stroke="#0d6d4d" stroke-width="0.1" fill="none" />
<path d="M-18.98564306462316,244.26327058610906 L-244.5854987764607,-14.24548308306659" stroke="#0d6d4d" stroke-width="0.1" fill="none" />
<path d="M-21.353156973176198,244.06770103247766 L-236.6518274408217,-63.41066605011769" stroke="#0d6d4d" stroke-width="0.1" fill="none" />
<path d="M-23.718663322278903,243.84918496932562 L-218.93999687923602,-109.9557991491132" stroke="#0d6d4d" stroke-width="0.1" fill="none" />
<path d="M-26.081939714154615,243.60774294087454 L-192.18183790529602,-151.95769536072373" stroke="#0d6d4d" stroke-width="0.1" fill="none" />
<path d="M-28.44276396068138,243.34339764677605 L-157.4829643732022,-187.6808885641496" stroke="#0d6d4d" stroke-width="0.1" fill="none" />
<path d="M-30.80091410427981,243.05617393997787 L-116.27709058817207,-215.64934083912715" stroke="#0d6d4d" stroke-width="0.1" fill="none" />
<path d="M-33.15616843878215,242.7460988243871 L-70.26679201421722,-234.70743051729477" stroke="#0d6d4d" stroke-width="0.1" fill="none" />
<path d="M-35.508305530275344,242.41320145233144 L-21.353156973176286,-244.06770103247766" stroke="#0d6d4d" stroke-width="0.1" fill="none" />
<path d="M-37.85710423792089,242.0575131218182 L28.442763960681408,-243.34339764677605" stroke="#0d6d4d" stroke-width="0.1" fill="none" />
<path d="M-40.20234373474421,241.67906727359212 L77.06346525714534,-232.5644476753933" stroke="#0d6d4d" stroke-width="0.1" fill="none" />
<path d="M-42.54380352839786,241.277899487991 L122.49999999999999,-212.1762239271875" stroke="#0d6d4d" stroke-width="0.1" fill="none" />
<path d="M-44.88126348189003,240.8540474816007 L162.87498707541477,-183.02114245404402" stroke="#0d6d4d" stroke-width="0.1" fill="none" />
<path d="M-47.21450383428195,240.40755110370924 L196.52018222498572,-146.30385496718262" stroke="#0d6d4d" stroke-width="0.1" fill="none" />
<path d="M-49.54330522134935,239.9384523325601 L222.04540782397925,-103.54147412647136" stroke="#0d6d4d" stroke-width="0.1" fill="none" />
<path d="M-51.86744869620556,239.4467952714057 L238.39599329205683,-56.50088833189786" stroke="#0d6d4d" stroke-width="0.1" fill="none" />
<path d="M-54.18671574988751,238.93262614436082 L244.89635277013915,-7.125756092062283" stroke="#0d6d4d" stroke-width="0.1" fill="none" />
<path d="M-56.50088833189772,238.39599329205686 L241.27789948799096,42.54380352839792" stroke="#0d6d4d" stroke-width="0.1" fill="none" />
<path d="M-58.80974887070641,237.83694716709692 L227.69014343557149,90.45550609160772" stroke="#0d6d4d" stroke-width="0.1" fill="none" />
<path d="M-61.11308029420534,237.25554032931245 L204.69451379616945,134.62969962734746" stroke="#0d6d4d" stroke-width="0.1" fill="none" />
<path d="M-63.4106660501176,236.65182744082173 L173.24116139070415,173.24116139070412" stroke="#0d6d4d" stroke-width="0.1" fill="none" />
<path d="M-65.70229012635603,236.0258652608907 L134.62969962734752,204.6945137961694" stroke="#0d6d4d" stroke-width="0.1" fill="none" />
<path d="M-67.98773707133341,235.3777126405965 L90.45550609160766,227.6901434355715" stroke="#0d6d4d" stroke-width="0.1" fill="none" />
<path d="M-70.26679201421715,234.70743051729477 L42.54380352839791,241.277899487991" stroke="#0d6d4d" stroke-width="0.1" fill="none" />
<path d="M-72.53924068513138,234.01508190889018 L-7.125756092062293,244.89635277013915" stroke="#0d6d4d" stroke-width="0.1" fill="none" />
<path d="M-74.80486943530269,233.30073190791174 L-56.50088833189772,238.39599329205686" stroke="#0d6d4d" stroke-width="0.1" fill="none" />
<path d="M-77.0634652571453,232.56444767539332 L-103.54147412647133,222.04540782397928" stroke="#0d6d4d" stroke-width="0.1" fill="none" />
<path d="M-79.31481580428868,231.80629843455884 L-146.30385496718256,196.52018222498577" stroke="#0d6d4d" stroke-width="0.1" fill="none" />
<path d="M-81.55870941154066,231.02635546431463 L-183.02114245404402,162.87498707541477" stroke="#0d6d4d" stroke-width="0.1" fill="none" />
<path d="M-83.79493511478883,230.22469209254757 L-212.1762239271874,122.50000000000011" stroke="#0d6d4d" stroke-width="0.1" fill="none" />
<path d="M-86.02328267083311,229.40138368923135 L-232.5644476753933,77.06346525714537" stroke="#0d6d4d" stroke-width="0.1" fill="none" />
<path d="M-88.24354257715399,228.55650765934016 L-243.34339764677603,28.44276396068156" stroke="#0d6d4d" stroke-width="0.1" fill="none" />
<path d="M-90.4555060916077,227.69014343557149 L-244.06770103247766,-21.353156973176183" stroke="#0d6d4d" stroke-width="0.1" fill="none" />
<path d="M-92.6589652520524,226.80237247087817 L-234.70743051729477,-70.26679201421713" stroke="#0d6d4d" stroke-width="0.1" fill="none" />
<path d="M-94.85371289590022,225.89327823080998 L-215.64934083912718,-116.277090588172" stroke="#0d6d4d" stroke-width="0.1" fill="none" />
<path d="M-97.03954267959335,224.96294618566716 L-187.68088856414965,-157.48296437320212" stroke="#0d6d4d" stroke-width="0.1" fill="none" />
<path d="M-99.21624909800505,224.01146380246394 L-151.95769536072365,-192.1818379052961" stroke="#0d6d4d" stroke-width="0.1" fill="none" />
<path d="M-101.38362750375897,223.038920536706 L-109.95579914911329,-218.939996879236" stroke="#0d6d4d" stroke-width="0.1" fill="none" />
<path d="M-103.54147412647133,222.04540782397928 L-63.41066605011757,-236.65182744082173" stroke="#0d6d4d" stroke-width="0.1" fill="none" />
<path d="M-105.68958609190703,221.03101907135428 L-14.245483083066693,-244.5854987764607" stroke="#0d6d4d" stroke-width="0.1" fill="none" />
<path d="M-107.82776144105469,219.99584964860358 L35.50830553027545,-242.4132014523314" stroke="#0d6d4d" stroke-width="0.1" fill="none" />
<path d="M-109.95579914911312,218.93999687923605 L83.79493511478883,-230.22469209254757" stroke="#0d6d4d" stroke-width="0.1" fill="none" />
<path d="M-112.07349914439226,217.863560031346 L128.61926218196726,-208.52358474706494" stroke="#0d6d4d" stroke-width="0.1" fill="none" />
<path d="M-114.18066232712205,216.76664030828113 L168.12920127783974,-178.20654218539693" stroke="#0d6d4d" stroke-width="0.1" fill="none" />
<path d="M-116.27709058817182,215.64934083912726 L200.69225085080296,-140.52622690600631" stroke="#0d6d4d" stroke-width="0.1" fill="none" />
<path d="M-118.36258682767641,214.51176666901227 L224.96294618566714,-97.03954267959344" stroke="#0d6d4d" stroke-width="0.1" fill="none" />
<path d="M-120.43695497356576,213.35402474923058 L239.9384523325601,-49.543305221349335" stroke="#0d6d4d" stroke-width="0.1" fill="none" />
<path d="M-122.50000000000003,212.17622392718746 L245.0,-1.5001923289555078e-14" stroke="#0d6d4d" stroke-width="0.1" fill="none" />
<path d="M-124.55152794570454,210.9784749361659 L239.93845233256013,49.54330522134926" stroke="#0d6d4d" stroke-width="0.1" fill="none" />
<path d="M-126.5913459322064,209.76089038491529 L224.96294618566714,97.03954267959341" stroke="#0d6d4d" stroke-width="0.1" fill="none" />
<path d="M-128.61926218196723,208.52358474706497 L200.69225085080305,140.52622690600623" stroke="#0d6d4d" stroke-width="0.1" fill="none" />
<path d="M-130.63508603641432,207.2666743503611 L168.12920127783974,178.20654218539693" stroke="#0d6d4d" stroke-width="0.1" fill="none" />
<path d="M-132.63862797386548,205.99027736573035 L128.61926218196726,208.52358474706494" stroke="#0d6d4d" stroke-width="0.1" fill="none" />
<path d="M-134.62969962734746,204.69451379616945 L83.79493511478887,230.22469209254754" stroke="#0d6d4d" stroke-width="0.1" fill="none" />
<path d="M-136.6081138023053,203.37950546546327 L35.50830553027551,242.4132014523314" stroke="#0d6d4d" stroke-width="0.1" fill="none" />
<path d="M-138.57368449420193,202.04537600673117 L-14.245483083066494,244.5854987764607" stroke="#0d6d4d" stroke-width="0.1" fill="none" />
<path d="M-140.52622690600631,200.69225085080296 L-63.4106660501176,236.65182744082173" stroke="#0d6d4d" stroke-width="0.1" fill="none" />
<path d="M-142.46555746556652,199.32025721442707 L-109.95579914911312,218.93999687923605" stroke="#0d6d4d" stroke-width="0.1" fill="none" />
<path d="M-144.39149384286947,197.92952408830925 L-151.95769536072368,192.18183790529608" stroke="#0d6d4d" stroke-width="0.1" fill="none" />
<path d="M-146.30385496718256,196.52018222498577 L-187.6808885641496,157.4829643732022" stroke="#0d6d4d" stroke-width="0.1" fill="none" />
<path d="M-148.20246104407772,195.09236412653016 L-215.64934083912723,116.27709058817187" stroke="#0d6d4d" stroke-width="0.1" fill="none" />
<path d="M-150.0871335723346,193.64620403209608 L-234.70743051729477,70.2667920142172" stroke="#0d6d4d" stroke-width="0.1" fill="none" />
<path d="M-151.95769536072368,192.18183790529608 L-244.06770103247766,21.353156973176272" stroke="#0d6d4d" stroke-width="0.1" fill="none" />
<path d="M-153.8139705446641,190.69940342141925 L-243.34339764677605,-28.44276396068126" stroke="#0d6d4d" stroke-width="0.1" fill="none" />
<path d="M-155.65578460275887,189.19903995448692 L-232.56444767539332,-77.0634652571453" stroke="#0d6d4d" stroke-width="0.1" fill="none" />
<path d="M-157.48296437320212,187.68088856414965 L-212.17622392718758,-122.49999999999983" stroke="#0d6d4d" stroke-width="0.1" fill="none" />
<path d="M-159.29533807005993,186.14509198242462 L-183.02114245404408,-162.87498707541468" stroke="#0d6d4d" stroke-width="0.1" fill="none" />
<path d="M-161.09273529942064,184.59179460027684 L-146.30385496718262,-196.52018222498572" stroke="#0d6d4d" stroke-width="0.1" fill="none" />
<path d="M-162.8749870754147,183.02114245404408 L-103.5414741264713,-222.04540782397928" stroke="#0d6d4d" stroke-width="0.1" fill="none" />
<path d="M-164.64192583610298,181.43328321170614 L-56.50088833189791,-238.39599329205683" stroke="#0d6d4d" stroke-width="0.1" fill="none" />
<path d="M-166.3933854592293,179.82836615900268 L-7.125756092062273,-244.89635277013915" stroke="#0d6d4d" stroke-width="0.1" fill="none" />
<path d="M-168.12920127783977,178.2065421853969 L42.54380352839793,-241.27789948799096" stroke="#0d6d4d" stroke-width="0.1" fill="none" />
<path d="M-169.8492100957634,176.56796376989013 L90.45550609160769,-227.69014343557149" stroke="#0d6d4d" stroke-width="0.1" fill="none" />
<path d="M-171.5532502029563,174.91278496668525 L134.62969962734746,-204.69451379616945" stroke="#0d6d4d" stroke-width="0.1" fill="none" />
<path d="M-173.24116139070404,173.24116139070424 L173.24116139070412,-173.24116139070415" stroke="#0d6d4d" stroke-width="0.1" fill="none" />
<path d="M-174.9127849666852,171.55325020295632 L204.69451379616942,-134.6296996273475" stroke="#0d6d4d" stroke-width="0.1" fill="none" />
<path d="M-176.56796376989007,169.84921009576342 L227.69014343557149,-90.45550609160769" stroke="#0d6d4d" stroke-width="0.1" fill="none" />
<path d="M-178.20654218539693,168.12920127783974 L241.27789948799096,-42.54380352839795" stroke="#0d6d4d" stroke-width="0.1" fill="none" />
<path d="M-179.82836615900268,166.39338545922928 L244.89635277013915,7.125756092062254" stroke="#0d6d4d" stroke-width="0.1" fill="none" />
<path d="M-181.43328321170608,164.64192583610304 L238.39599329205686,56.500888331897784" stroke="#0d6d4d" stroke-width="0.1" fill="none" />
<path d="M-183.02114245404402,162.87498707541477 L222.04540782397928,103.54147412647134" stroke="#0d6d4d" stroke-width="0.1" fill="none" />
<path d="M-184.59179460027678,161.0927352994207 L196.52018222498577,146.30385496718256" stroke="#0d6d4d" stroke-width="0.1" fill="none" />
<path d="M-186.14509198242456,159.29533807005998 L162.87498707541485,183.02114245404397" stroke="#0d6d4d" stroke-width="0.1" fill="none" />
<path d="M-187.6808885641496,157.4829643732022 L122.50000000000009,212.17622392718744" stroke="#0d6d4d" stroke-width="0.1" fill="none" />
<path d="M-189.19903995448686,155.65578460275893 L77.06346525714535,232.5644476753933" stroke="#0d6d4d" stroke-width="0.1" fill="none" />
<path d="M-190.69940342141925,153.81397054466407 L28.44276396068144,243.34339764677605" stroke="#0d6d4d" stroke-width="0.1" fill="none" />
<path d="M-192.18183790529594,151.95769536072385 L-21.353156973176198,244.06770103247766" stroke="#0d6d4d" stroke-width="0.1" fill="none" />
<path d="M-193.64620403209605,150.08713357233466 L-70.26679201421715,234.70743051729477" stroke="#0d6d4d" stroke-width="0.1" fill="none" />
<path d="M-195.09236412653019,148.20246104407772 L-116.27709058817182,215.64934083912726" stroke="#0d6d4d" stroke-width="0.1" fill="none" />
<path d="M-196.52018222498572,146.30385496718262 L-157.48296437320212,187.68088856414965" stroke="#0d6d4d" stroke-width="0.1" fill="none" />
<path d="M-197.92952408830922,144.39149384286952 L-192.18183790529594,151.95769536072385" stroke="#0d6d4d" stroke-width="0.1" fill="none" />
<path d="M-199.32025721442702,142.4655574655666 L-218.939996879236,109.95579914911329" stroke="#0d6d4d" stroke-width="0.1" fill="none" />
<path d="M-200.69225085080294,140.52622690600637 L-236.65182744082173,63.410666050117555" stroke="#0d6d4d" stroke-width="0.1" fill="none" />
<path d="M-202.0453760067311,138.57368449420204 L-244.5854987764607,14.245483083066679" stroke="#0d6d4d" stroke-width="0.1" fill="none" />
<path d="M-203.37950546546324,136.60811380230535 L-242.41320145233144,-35.508305530275436" stroke="#0d6d4d" stroke-width="0.1" fill="none" />
<path d="M-204.69451379616945,134.62969962734743 L-230.2246920925476,-83.79493511478871" stroke="#0d6d4d" stroke-width="0.1" fill="none" />
<path d="M-205.9902773657303,132.63862797386554 L-208.52358474706497,-128.6192621819672" stroke="#0d6d4d" stroke-width="0.1" fill="none" />
<path d="M-207.26667435036106,130.63508603641435 L-178.20654218539704,-168.1292012778396" stroke="#0d6d4d" stroke-width="0.1" fill="none" />
<path d="M-208.52358474706492,128.61926218196726 L-140.52622690600637,-200.69225085080294" stroke="#0d6d4d" stroke-width="0.1" fill="none" />
<path d="M-209.76089038491523,126.59134593220647 L-97.03954267959364,-224.96294618566705" stroke="#0d6d4d" stroke-width="0.1" fill="none" />
<path d="M-210.9784749361658,124.55152794570469 L-49.543305221349435,-239.93845233256008" stroke="#0d6d4d" stroke-width="0.1" fill="none" />
<path d="M-212.1762239271874,122.50000000000011 L0.0,-245.0" stroke="#0d6d4d" stroke-width="0.1" fill="none" />
<path d="M-213.3540247492306,120.43695497356575 L49.54330522134929,-239.9384523325601" stroke="#0d6d4d" stroke-width="0.1" fill="none" />
<path d="M-214.5117666690122,118.3625868276766 L97.03954267959341,-224.96294618566714" stroke="#0d6d4d" stroke-width="0.1" fill="none" />
<path d="M-215.64934083912723,116.27709058817187 L140.52622690600631,-200.69225085080296" stroke="#0d6d4d" stroke-width="0.1" fill="none" />
<path d="M-216.76664030828107,114.1806623271222 L178.20654218539693,-168.12920127783974" stroke="#0d6d4d" stroke-width="0.1" fill="none" />
<path d="M-217.86356003134597,112.07349914439231 L208.52358474706494,-128.61926218196726" stroke="#0d6d4d" stroke-width="0.1" fill="none" />
<path d="M-218.939996879236,109.95579914911329 L230.22469209254757,-83.79493511478881" stroke="#0d6d4d" stroke-width="0.1" fill="none" />
<path d="M-219.99584964860355,107.82776144105476 L242.4132014523314,-35.50830553027544" stroke="#0d6d4d" stroke-width="0.1" fill="none" />
<path d="M-221.03101907135428,105.68958609190699 L244.5854987764607,14.245483083066565" stroke="#0d6d4d" stroke-width="0.1" fill="none" />
<path d="M-222.0454078239792,103.54147412647148 L236.65182744082173,63.410666050117605" stroke="#0d6d4d" stroke-width="0.1" fill="none" />
<path d="M-223.03892053670597,101.38362750375904 L218.93999687923602,109.95579914911323" stroke="#0d6d4d" stroke-width="0.1" fill="none" />
<path d="M-224.01146380246388,99.21624909800519 L192.18183790529608,151.95769536072368" stroke="#0d6d4d" stroke-width="0.1" fill="none" />
<path d="M-224.96294618566714,97.03954267959341 L157.4829643732021,187.68088856414965" stroke="#0d6d4d" stroke-width="0.1" fill="none" />
<path d="M-225.89327823080998,94.85371289590017 L116.27709058817186,215.64934083912723" stroke="#0d6d4d" stroke-width="0.1" fill="none" />
<path d="M-226.80237247087814,92.65896525205245 L70.26679201421709,234.70743051729477" stroke="#0d6d4d" stroke-width="0.1" fill="none" />
<path d="M-227.69014343557146,90.45550609160776 L21.353156973176258,244.06770103247766" stroke="#0d6d4d" stroke-width="0.1" fill="none" />
<path d="M-228.55650765934007,88.24354257715416 L-28.44276396068138,243.34339764677605" stroke="#0d6d4d" stroke-width="0.1" fill="none" />
<path d="M-229.40138368923135,86.02328267083318 L-77.0634652571453,232.56444767539332" stroke="#0d6d4d" stroke-width="0.1" fill="none" />
<path d="M-230.2246920925475,83.79493511478898 L-122.50000000000003,212.17622392718746" stroke="#0d6d4d" stroke-width="0.1" fill="none" />
<path d="M-231.02635546431463,81.55870941154073 L-162.8749870754147,183.02114245404408" stroke="#0d6d4d" stroke-width="0.1" fill="none" />
<path d="M-231.80629843455884,79.31481580428864 L-196.52018222498572,146.30385496718262" stroke="#0d6d4d" stroke-width="0.1" fill="none" />
<path d="M-232.5644476753933,77.06346525714537 L-222.0454078239792,103.54147412647148" stroke="#0d6d4d" stroke-width="0.1" fill="none" />
<path d="M-233.30073190791174,74.80486943530276 L-238.39599329205683,56.5008883318979" stroke="#0d6d4d" stroke-width="0.1" fill="none" />
<path d="M-234.01508190889012,72.53924068513156 L-244.89635277013915,7.125756092062259" stroke="#0d6d4d" stroke-width="0.1" fill="none" />
<path d="M-234.70743051729477,70.2667920142172 L-241.27789948799096,-42.54380352839805" stroke="#0d6d4d" stroke-width="0.1" fill="none" />
<path d="M-235.37771264059649,67.98773707133358 L-227.69014343557149,-90.45550609160769" stroke="#0d6d4d" stroke-width="0.1" fill="none" />
<path d="M-236.02586526089064,65.7022901263563 L-204.6945137961694,-134.62969962734752" stroke="#0d6d4d" stroke-width="0.1" fill="none" />
<path d="M-236.65182744082173,63.410666050117555 L-173.24116139070418,-173.24116139070412" stroke="#0d6d4d" stroke-width="0.1" fill="none" />
<path d="M-237.25554032931245,61.11308029420541 L-134.62969962734743,-204.69451379616945" stroke="#0d6d4d" stroke-width="0.1" fill="none" />
<path d="M-237.8369471670969,58.80974887070647 L-90.45550609160777,-227.69014343557146" stroke="#0d6d4d" stroke-width="0.1" fill="none" />
<path d="M-238.39599329205683,56.5008883318979 L-42.543803528397945,-241.27789948799096" stroke="#0d6d4d" stroke-width="0.1" fill="none" />
<path d="M-238.9326261443608,54.18671574988758 L7.125756092062294,-244.89635277013915" stroke="#0d6d4d" stroke-width="0.1" fill="none" />
<path d="M-239.44679527140568,51.867448696205734 L56.50088833189784,-238.39599329205683" stroke="#0d6d4d" stroke-width="0.1" fill="none" />
<path d="M-239.93845233256008,49.54330522134942 L103.54147412647136,-222.04540782397925" stroke="#0d6d4d" stroke-width="0.1" fill="none" />
<path d="M-240.40755110370924,47.21450383428192 L146.30385496718262,-196.52018222498575" stroke="#0d6d4d" stroke-width="0.1" fill="none" />
<path d="M-240.85404748160065,44.88126348189021 L183.02114245404397,-162.87498707541482" stroke="#0d6d4d" stroke-width="0.1" fill="none" />
<path d="M-241.27789948799096,42.54380352839793 L212.17622392718746,-122.50000000000003" stroke="#0d6d4d" stroke-width="0.1" fill="none" />
<path d="M-241.6790672735921,40.202343734744396 L232.5644476753933,-77.06346525714534" stroke="#0d6d4d" stroke-width="0.1" fill="none" />
<path d="M-242.05751312181818,37.85710423792097 L243.34339764677605,-28.442763960681425" stroke="#0d6d4d" stroke-width="0.1" fill="none" />
<path d="M-242.4132014523314,35.50830553027553 L244.06770103247766,21.353156973176212" stroke="#0d6d4d" stroke-width="0.1" fill="none" />
<path d="M-242.74609882438708,33.156168438782224 L234.70743051729477,70.2667920142171" stroke="#0d6d4d" stroke-width="0.1" fill="none" />
<path d="M-243.05617393997787,30.800914104279776 L215.6493408391272,116.27709058817193" stroke="#0d6d4d" stroke-width="0.1" fill="none" />
<path d="M-243.34339764677603,28.44276396068156 L187.68088856414965,157.48296437320212" stroke="#0d6d4d" stroke-width="0.1" fill="none" />
<path d="M-243.60774294087452,26.08193971415469 L151.95769536072373,192.18183790529605" stroke="#0d6d4d" stroke-width="0.1" fill="none" />
<path d="M-243.84918496932562,23.71866332227887 L109.95579914911328,218.939996879236" stroke="#0d6d4d" stroke-width="0.1" fill="none" />
<path d="M-244.06770103247766,21.353156973176272 L63.41066605011765,236.6518274408217" stroke="#0d6d4d" stroke-width="0.1" fill="none" />
<path d="M-244.26327058610906,18.985643064623126 L14.245483083066556,244.5854987764607" stroke="#0d6d4d" stroke-width="0.1" fill="none" />
<path d="M-244.43587524335993,16.616344183140363 L-35.508305530275344,242.41320145233144" stroke="#0d6d4d" stroke-width="0.1" fill="none" />
<path d="M-244.5854987764607,14.245483083066679 L-83.79493511478883,230.22469209254757" stroke="#0d6d4d" stroke-width="0.1" fill="none" />
<path d="M-244.71212711825783,11.87328266561585 L-128.61926218196723,208.52358474706497" stroke="#0d6d4d" stroke-width="0.1" fill="none" />
<path d="M-244.81574836353636,9.49996595792003 L-168.12920127783977,178.2065421853969" stroke="#0d6d4d" stroke-width="0.1" fill="none" />
<path d="M-244.89635277013915,7.125756092062259 L-200.69225085080294,140.52622690600637" stroke="#0d6d4d" stroke-width="0.1" fill="none" />
<path d="M-244.95393275988286,4.750876284096962 L-224.96294618566714,97.03954267959341" stroke="#0d6d4d" stroke-width="0.1" fill="none" />
<path d="M-244.9884829192704,2.3755498130647252 L-239.93845233256008,49.54330522134942" stroke="#0d6d4d" stroke-width="0.1" fill="none" />
<path d="M-245.0,4.500576986866523e-14 L-245.0,4.500576986866523e-14" stroke="#0d6d4d" stroke-width="0.1" fill="none" />
<path d="M-244.9884829192704,-2.375549813064635 L-239.93845233256016,-49.543305221349115" stroke="#0d6d4d" stroke-width="0.1" fill="none" />
<path d="M-244.95393275988286,-4.750876284096872 L-224.96294618566716,-97.03954267959334" stroke="#0d6d4d" stroke-width="0.1" fill="none" />
<path d="M-244.89635277013915,-7.125756092062169 L-200.692250850803,-140.5262269060063" stroke="#0d6d4d" stroke-width="0.1" fill="none" />
<path d="M-244.81574836353636,-9.49996595792016 L-168.12920127783966,-178.20654218539698" stroke="#0d6d4d" stroke-width="0.1" fill="none" />
<path d="M-244.71212711825783,-11.873282665615763 L-128.61926218196726,-208.52358474706492" stroke="#0d6d4d" stroke-width="0.1" fill="none" />
<path d="M-244.5854987764607,-14.24548308306659 L-83.7949351147888,-230.22469209254757" stroke="#0d6d4d" stroke-width="0.1" fill="none" />
<path d="M-244.43587524335993,-16.616344183140274 L-35.50830553027554,-242.4132014523314" stroke="#0d6d4d" stroke-width="0.1" fill="none" />
<path d="M-244.26327058610906,-18.98564306462304 L14.245483083066578,-244.5854987764607" stroke="#0d6d4d" stroke-width="0.1" fill="none" />
<path d="M-244.06770103247766,-21.353156973176183 L63.410666050117584,-236.65182744082173" stroke="#0d6d4d" stroke-width="0.1" fill="none" />
<path d="M-243.84918496932562,-23.718663322278783 L109.95579914911323,-218.93999687923602" stroke="#0d6d4d" stroke-width="0.1" fill="none" />
<path d="M-243.60774294087452,-26.081939714154817 L151.9576953607237,-192.18183790529605" stroke="#0d6d4d" stroke-width="0.1" fill="none" />
<path d="M-243.34339764677605,-28.44276396068126 L187.68088856414963,-157.48296437320215" stroke="#0d6d4d" stroke-width="0.1" fill="none" />
<path d="M-243.05617393997787,-30.800914104279897 L215.6493408391272,-116.2770905881719" stroke="#0d6d4d" stroke-width="0.1" fill="none" />
<path d="M-242.74609882438713,-33.15616843878191 L234.70743051729477,-70.26679201421713" stroke="#0d6d4d" stroke-width="0.1" fill="none" />
<path d="M-242.41320145233144,-35.508305530275436 L244.06770103247766,-21.35315697317624" stroke="#0d6d4d" stroke-width="0.1" fill="none" />
<path d="M-242.0575131218182,-37.85710423792088 L243.34339764677605,28.442763960681344" stroke="#0d6d4d" stroke-width="0.1" fill="none" />
<path d="M-241.67906727359212,-40.202343734744304 L232.5644476753933,77.06346525714531" stroke="#0d6d4d" stroke-width="0.1" fill="none" />
<path d="M-241.27789948799096,-42.54380352839805 L212.17622392718752,122.49999999999994" stroke="#0d6d4d" stroke-width="0.1" fill="none" />
<path d="M-240.85404748160073,-44.8812634818899 L183.02114245404408,162.8749870754147" stroke="#0d6d4d" stroke-width="0.1" fill="none" />
<path d="M-240.4075511037092,-47.21450383428204 L146.30385496718262,196.52018222498575" stroke="#0d6d4d" stroke-width="0.1" fill="none" />
<path d="M-239.93845233256016,-49.543305221349115 L103.54147412647137,222.04540782397925" stroke="#0d6d4d" stroke-width="0.1" fill="none" />
<path d="M-239.44679527140568,-51.86744869620564 L56.500888331897876,238.39599329205683" stroke="#0d6d4d" stroke-width="0.1" fill="none" />
<path d="M-238.93262614436082,-54.18671574988749 L7.125756092062352,244.89635277013915" stroke="#0d6d4d" stroke-width="0.1" fill="none" />
<path d="M-238.39599329205686,-56.500888331897805 L-42.54380352839786,241.277899487991" stroke="#0d6d4d" stroke-width="0.1" fill="none" />
<path d="M-237.83694716709692,-58.809748870706386 L-90.4555060916077,227.69014343557149" stroke="#0d6d4d" stroke-width="0.1" fill="none" />
<path d="M-237.25554032931248,-61.113080294205325 L-134.62969962734746,204.69451379616945" stroke="#0d6d4d" stroke-width="0.1" fill="none" />
<path d="M-236.6518274408217,-63.41066605011769 L-173.24116139070404,173.24116139070424" stroke="#0d6d4d" stroke-width="0.1" fill="none" />
<path d="M-236.0258652608907,-65.70229012635602 L-204.69451379616945,134.62969962734743" stroke="#0d6d4d" stroke-width="0.1" fill="none" />
<path d="M-235.3777126405965,-67.98773707133351 L-227.69014343557146,90.45550609160776" stroke="#0d6d4d" stroke-width="0.1" fill="none" />
<path d="M-234.70743051729477,-70.26679201421713 L-241.27789948799096,42.54380352839793" stroke="#0d6d4d" stroke-width="0.1" fill="none" />
<path d="M-234.01508190889015,-72.53924068513147 L-244.89635277013915,-7.125756092062169" stroke="#0d6d4d" stroke-width="0.1" fill="none" />
<path d="M-233.30073190791174,-74.80486943530268 L-238.39599329205686,-56.500888331897805" stroke="#0d6d4d" stroke-width="0.1" fill="none" />
<path d="M-232.56444767539332,-77.0634652571453 L-222.0454078239793,-103.54147412647121" stroke="#0d6d4d" stroke-width="0.1" fill="none" />
<path d="M-231.8062984345589,-79.31481580428857 L-196.52018222498577,-146.30385496718253" stroke="#0d6d4d" stroke-width="0.1" fill="none" />
<path d="M-231.02635546431466,-81.55870941154065 L-162.8749870754149,-183.02114245404385" stroke="#0d6d4d" stroke-width="0.1" fill="none" />
<path d="M-230.2246920925476,-83.79493511478871 L-122.50000000000011,-212.1762239271874" stroke="#0d6d4d" stroke-width="0.1" fill="none" />
<path d="M-229.4013836892313,-86.02328267083331 L-77.06346525714538,-232.5644476753933" stroke="#0d6d4d" stroke-width="0.1" fill="none" />
<path d="M-228.5565076593401,-88.24354257715407 L-28.442763960681365,-243.34339764677605" stroke="#0d6d4d" stroke-width="0.1" fill="none" />
<path d="M-227.69014343557149,-90.45550609160769 L21.35315697317625,-244.06770103247766" stroke="#0d6d4d" stroke-width="0.1" fill="none" />
<path d="M-226.80237247087817,-92.65896525205238 L70.2667920142171,-234.70743051729477" stroke="#0d6d4d" stroke-width="0.1" fill="none" />
<path d="M-225.89327823081004,-94.8537128959001 L116.2770905881719,-215.6493408391272" stroke="#0d6d4d" stroke-width="0.1" fill="none" />
<path d="M-224.96294618566716,-97.03954267959334 L157.48296437320212,-187.68088856414965" stroke="#0d6d4d" stroke-width="0.1" fill="none" />
<path d="M-224.011463802464,-99.21624909800492 L192.18183790529602,-151.95769536072373" stroke="#0d6d4d" stroke-width="0.1" fill="none" />
<path d="M-223.03892053670592,-101.38362750375917 L218.939996879236,-109.95579914911326" stroke="#0d6d4d" stroke-width="0.1" fill="none" />
<path d="M-222.0454078239793,-103.54147412647121 L236.6518274408217,-63.410666050117634" stroke="#0d6d4d" stroke-width="0.1" fill="none" />
<path d="M-221.03101907135422,-105.68958609190712 L244.5854987764607,-14.245483083066595" stroke="#0d6d4d" stroke-width="0.1" fill="none" />
<path d="M-219.9958496486037,-107.82776144105449 L242.4132014523314,35.508305530275464" stroke="#0d6d4d" stroke-width="0.1" fill="none" />
<path d="M-218.93999687923602,-109.9557991491132 L230.22469209254757,83.79493511478883" stroke="#0d6d4d" stroke-width="0.1" fill="none" />
<path d="M-217.86356003134603,-112.07349914439224 L208.52358474706497,128.61926218196723" stroke="#0d6d4d" stroke-width="0.1" fill="none" />
<path d="M-216.76664030828118,-114.18066232712194 L178.20654218539698,168.12920127783968" stroke="#0d6d4d" stroke-width="0.1" fill="none" />
<path d="M-215.64934083912718,-116.277090588172 L140.52622690600637,200.69225085080296" stroke="#0d6d4d" stroke-width="0.1" fill="none" />
<path d="M-214.51176666901233,-118.3625868276763 L97.03954267959351,224.9629461856671" stroke="#0d6d4d" stroke-width="0.1" fill="none" />
<path d="M-213.35402474923055,-120.43695497356582 L49.54330522134941,239.93845233256008" stroke="#0d6d4d" stroke-width="0.1" fill="none" />
<path d="M-212.17622392718758,-122.49999999999983 L3.0003846579110155e-14,245.0" stroke="#0d6d4d" stroke-width="0.1" fill="none" />
<path d="M-210.97847493616587,-124.55152794570462 L-49.54330522134935,239.9384523325601" stroke="#0d6d4d" stroke-width="0.1" fill="none" />
<path d="M-209.7608903849153,-126.5913459322064 L-97.03954267959335,224.96294618566716" stroke="#0d6d4d" stroke-width="0.1" fill="none" />
<path d="M-208.52358474706497,-128.6192621819672 L-140.52622690600631,200.69225085080296" stroke="#0d6d4d" stroke-width="0.1" fill="none" />
<path d="M-207.266674350361,-130.63508603641446 L-178.20654218539693,168.12920127783974" stroke="#0d6d4d" stroke-width="0.1" fill="none" />
<path d="M-205.99027736573035,-132.63862797386545 L-208.52358474706492,128.61926218196726" stroke="#0d6d4d" stroke-width="0.1" fill="none" />
<path d="M-204.6945137961694,-134.62969962734752 L-230.2246920925475,83.79493511478898" stroke="#0d6d4d" stroke-width="0.1" fill="none" />
<path d="M-203.3795054654634,-136.6081138023051 L-242.4132014523314,35.50830553027553" stroke="#0d6d4d" stroke-width="0.1" fill="none" />
<path d="M-202.04537600673112,-138.57368449420196 L-244.5854987764607,-14.24548308306659" stroke="#0d6d4d" stroke-width="0.1" fill="none" />
<path d="M-200.692250850803,-140.5262269060063 L-236.6518274408217,-63.41066605011769" stroke="#0d6d4d" stroke-width="0.1" fill="none" />
<path d="M-199.3202572144271,-142.4655574655665 L-218.93999687923602,-109.9557991491132" stroke="#0d6d4d" stroke-width="0.1" fill="none" />
<path d="M-197.92952408830928,-144.39149384286944 L-192.18183790529602,-151.95769536072373" stroke="#0d6d4d" stroke-width="0.1" fill="none" />
<path d="M-196.52018222498577,-146.30385496718253 L-157.4829643732022,-187.6808885641496" stroke="#0d6d4d" stroke-width="0.1" fill="none" />
<path d="M-195.0923641265302,-148.20246104407764 L-116.27709058817207,-215.64934083912715" stroke="#0d6d4d" stroke-width="0.1" fill="none" />
<path d="M-193.6462040320961,-150.08713357233458 L-70.26679201421722,-234.70743051729477" stroke="#0d6d4d" stroke-width="0.1" fill="none" />
<path d="M-192.18183790529602,-151.95769536072373 L-21.353156973176286,-244.06770103247766" stroke="#0d6d4d" stroke-width="0.1" fill="none" />
<path d="M-190.6994034214192,-153.81397054466416 L28.442763960681408,-243.34339764677605" stroke="#0d6d4d" stroke-width="0.1" fill="none" />
<path d="M-189.19903995448695,-155.65578460275884 L77.06346525714534,-232.5644476753933" stroke="#0d6d4d" stroke-width="0.1" fill="none" />
<path d="M-187.68088856414965,-157.48296437320212 L122.49999999999999,-212.1762239271875" stroke="#0d6d4d" stroke-width="0.1" fill="none" />
<path d="M-186.14509198242462,-159.2953380700599 L162.87498707541477,-183.02114245404402" stroke="#0d6d4d" stroke-width="0.1" fill="none" />
<path d="M-184.59179460027693,-161.09273529942053 L196.52018222498572,-146.30385496718262" stroke="#0d6d4d" stroke-width="0.1" fill="none" />
<path d="M-183.02114245404408,-162.87498707541468 L222.04540782397925,-103.54147412647136" stroke="#0d6d4d" stroke-width="0.1" fill="none" />
<path d="M-181.43328321170625,-164.64192583610287 L238.39599329205683,-56.50088833189786" stroke="#0d6d4d" stroke-width="0.1" fill="none" />
<path d="M-179.8283661590026,-166.39338545922936 L244.89635277013915,-7.125756092062283" stroke="#0d6d4d" stroke-width="0.1" fill="none" />
<path d="M-178.20654218539704,-168.1292012778396 L241.27789948799096,42.54380352839792" stroke="#0d6d4d" stroke-width="0.1" fill="none" />
<path d="M-176.56796376989007,-169.84921009576342 L227.69014343557149,90.45550609160772" stroke="#0d6d4d" stroke-width="0.1" fill="none" />
<path d="M-174.91278496668528,-171.55325020295626 L204.69451379616945,134.62969962734746" stroke="#0d6d4d" stroke-width="0.1" fill="none" />
<path d="M-173.24116139070418,-173.24116139070412 L173.24116139070415,173.24116139070412" stroke="#0d6d4d" stroke-width="0.1" fill="none" />
<path d="M-171.55325020295632,-174.9127849666852 L134.62969962734752,204.6945137961694" stroke="#0d6d4d" stroke-width="0.1" fill="none" />
<path d="M-169.8492100957635,-176.56796376989 L90.45550609160766,227.6901434355715" stroke="#0d6d4d" stroke-width="0.1" fill="none" />
<path d="M-168.12920127783966,-178.20654218539698 L42.54380352839791,241.277899487991" stroke="#0d6d4d" stroke-width="0.1" fill="none" />
<path d="M-166.39338545922945,-179.8283661590025 L-7.125756092062293,244.89635277013915" stroke="#0d6d4d" stroke-width="0.1" fill="none" />
<path d="M-164.64192583610296,-181.43328321170614 L-56.50088833189772,238.39599329205686" stroke="#0d6d4d" stroke-width="0.1" fill="none" />
<path d="M-162.8749870754149,-183.02114245404385 L-103.54147412647133,222.04540782397928" stroke="#0d6d4d" stroke-width="0.1" fill="none" />
<path d="M-161.0927352994206,-184.59179460027687 L-146.30385496718256,196.52018222498577" stroke="#0d6d4d" stroke-width="0.1" fill="none" />
<path d="M-159.29533807005998,-186.14509198242456 L-183.02114245404402,162.87498707541477" stroke="#0d6d4d" stroke-width="0.1" fill="none" />
<path d="M-157.4829643732022,-187.6808885641496 L-212.1762239271874,122.50000000000011" stroke="#0d6d4d" stroke-width="0.1" fill="none" />
<path d="M-155.65578460275876,-189.199039954487 L-232.5644476753933,77.06346525714537" stroke="#0d6d4d" stroke-width="0.1" fill="none" />
<path d="M-153.81397054466424,-190.69940342141913 L-243.34339764677603,28.44276396068156" stroke="#0d6d4d" stroke-width="0.1" fill="none" />
<path d="M-151.95769536072365,-192.1818379052961 L-244.06770103247766,-21.353156973176183" stroke="#0d6d4d" stroke-width="0.1" fill="none" />
<path d="M-150.08713357233484,-193.6462040320959 L-234.70743051729477,-70.26679201421713" stroke="#0d6d4d" stroke-width="0.1" fill="none" />
<path d="M-148.20246104407772,-195.09236412653019 L-215.64934083912718,-116.277090588172" stroke="#0d6d4d" stroke-width="0.1" fill="none" />
<path d="M-146.30385496718262,-196.52018222498572 L-187.68088856414965,-157.48296437320212" stroke="#0d6d4d" stroke-width="0.1" fill="none" />
<path d="M-144.39149384286952,-197.92952408830922 L-151.95769536072365,-192.1818379052961" stroke="#0d6d4d" stroke-width="0.1" fill="none" />
<path d="M-142.4655574655666,-199.32025721442702 L-109.95579914911329,-218.939996879236" stroke="#0d6d4d" stroke-width="0.1" fill="none" />
<path d="M-140.52622690600637,-200.69225085080294 L-63.41066605011757,-236.65182744082173" stroke="#0d6d4d" stroke-width="0.1" fill="none" />
<path d="M-138.57368449420204,-202.0453760067311 L-14.245483083066693,-244.5854987764607" stroke="#0d6d4d" stroke-width="0.1" fill="none" />
<path d="M-136.60811380230535,-203.37950546546324 L35.50830553027545,-242.4132014523314" stroke="#0d6d4d" stroke-width="0.1" fill="none" />
<path d="M-134.62969962734743,-204.69451379616945 L83.79493511478883,-230.22469209254757" stroke="#0d6d4d" stroke-width="0.1" fill="none" />
<path d="M-132.63862797386554,-205.9902773657303 L128.61926218196726,-208.52358474706494" stroke="#0d6d4d" stroke-width="0.1" fill="none" />
<path d="M-130.63508603641435,-207.26667435036106 L168.12920127783974,-178.20654218539693" stroke="#0d6d4d" stroke-width="0.1" fill="none" />
<path d="M-128.61926218196726,-208.52358474706492 L200.69225085080296,-140.52622690600631" stroke="#0d6d4d" stroke-width="0.1" fill="none" />
<path d="M-126.59134593220647,-209.76089038491523 L224.96294618566714,-97.03954267959344" stroke="#0d6d4d" stroke-width="0.1" fill="none" />
<path d="M-124.55152794570469,-210.9784749361658 L239.9384523325601,-49.543305221349335" stroke="#0d6d4d" stroke-width="0.1" fill="none" />
<path d="M-122.50000000000011,-212.1762239271874 L245.0,-1.5001923289555078e-14" stroke="#0d6d4d" stroke-width="0.1" fill="none" />
<path d="M-120.43695497356593,-213.3540247492305 L239.93845233256013,49.54330522134926" stroke="#0d6d4d" stroke-width="0.1" fill="none" />
<path d="M-118.3625868276764,-214.51176666901227 L224.96294618566714,97.03954267959341" stroke="#0d6d4d" stroke-width="0.1" fill="none" />
<path d="M-116.27709058817207,-215.64934083912715 L200.69225085080305,140.52622690600623" stroke="#0d6d4d" stroke-width="0.1" fill="none" />
<path d="M-114.18066232712202,-216.76664030828113 L168.12920127783974,178.20654218539693" stroke="#0d6d4d" stroke-width="0.1" fill="none" />
<path d="M-112.07349914439231,-217.86356003134597 L128.61926218196726,208.52358474706494" stroke="#0d6d4d" stroke-width="0.1" fill="none" />
<path d="M-109.95579914911329,-218.939996879236 L83.79493511478887,230.22469209254754" stroke="#0d6d4d" stroke-width="0.1" fill="none" />
<path d="M-107.82776144105478,-219.99584964860355 L35.50830553027551,242.4132014523314" stroke="#0d6d4d" stroke-width="0.1" fill="none" />
<path d="M-105.68958609190722,-221.0310190713542 L-14.245483083066494,244.5854987764607" stroke="#0d6d4d" stroke-width="0.1" fill="none" />
<path d="M-103.5414741264713,-222.04540782397928 L-63.4106660501176,236.65182744082173" stroke="#0d6d4d" stroke-width="0.1" fill="none" />
<path d="M-101.38362750375924,-223.03892053670586 L-109.95579914911312,218.93999687923605" stroke="#0d6d4d" stroke-width="0.1" fill="none" />
<path d="M-99.21624909800502,-224.01146380246394 L-151.95769536072368,192.18183790529608" stroke="#0d6d4d" stroke-width="0.1" fill="none" />
<path d="M-97.03954267959364,-224.96294618566705 L-187.6808885641496,157.4829643732022" stroke="#0d6d4d" stroke-width="0.1" fill="none" />
<path d="M-94.85371289590019,-225.89327823080998 L-215.64934083912723,116.27709058817187" stroke="#0d6d4d" stroke-width="0.1" fill="none" />
<path d="M-92.65896525205247,-226.80237247087814 L-234.70743051729477,70.2667920142172" stroke="#0d6d4d" stroke-width="0.1" fill="none" />
<path d="M-90.45550609160777,-227.69014343557146 L-244.06770103247766,21.353156973176272" stroke="#0d6d4d" stroke-width="0.1" fill="none" />
<path d="M-88.24354257715396,-228.55650765934016 L-243.34339764677605,-28.44276396068126" stroke="#0d6d4d" stroke-width="0.1" fill="none" />
<path d="M-86.0232826708334,-229.40138368923127 L-232.56444767539332,-77.0634652571453" stroke="#0d6d4d" stroke-width="0.1" fill="none" />
<path d="M-83.7949351147888,-230.22469209254757 L-212.17622392718758,-122.49999999999983" stroke="#0d6d4d" stroke-width="0.1" fill="none" />
<path d="M-81.55870941154095,-231.02635546431455 L-183.02114245404408,-162.87498707541468" stroke="#0d6d4d" stroke-width="0.1" fill="none" />
<path d="M-79.31481580428866,-231.80629843455884 L-146.30385496718262,-196.52018222498572" stroke="#0d6d4d" stroke-width="0.1" fill="none" />
<path d="M-77.06346525714538,-232.5644476753933 L-103.5414741264713,-222.04540782397928" stroke="#0d6d4d" stroke-width="0.1" fill="none" />
<path d="M-74.80486943530278,-233.3007319079117 L-56.50088833189791,-238.39599329205683" stroke="#0d6d4d" stroke-width="0.1" fill="none" />
<path d="M-72.53924068513156,-234.01508190889012 L-7.125756092062273,-244.89635277013915" stroke="#0d6d4d" stroke-width="0.1" fill="none" />
<path d="M-70.26679201421722,-234.70743051729477 L42.54380352839793,-241.27789948799096" stroke="#0d6d4d" stroke-width="0.1" fill="none" />
<path d="M-67.98773707133338,-235.3777126405965 L90.45550609160769,-227.69014343557149" stroke="#0d6d4d" stroke-width="0.1" fill="none" />
<path d="M-65.70229012635632,-236.02586526089064 L134.62969962734746,-204.69451379616945" stroke="#0d6d4d" stroke-width="0.1" fill="none" />
<path d="M-63.41066605011757,-236.65182744082173 L173.24116139070412,-173.24116139070415" stroke="#0d6d4d" stroke-width="0.1" fill="none" />
<path d="M-61.113080294205425,-237.25554032931245 L204.69451379616942,-134.6296996273475" stroke="#0d6d4d" stroke-width="0.1" fill="none" />
<path d="M-58.809748870706485,-237.8369471670969 L227.69014343557149,-90.45550609160769" stroke="#0d6d4d" stroke-width="0.1" fill="none" />
<path d="M-56.50088833189791,-238.39599329205683 L241.27789948799096,-42.54380352839795" stroke="#0d6d4d" stroke-width="0.1" fill="none" />
<path d="M-54.1867157498876,-238.9326261443608 L244.89635277013915,7.125756092062254" stroke="#0d6d4d" stroke-width="0.1" fill="none" />
<path d="M-51.86744869620575,-239.44679527140568 L238.39599329205686,56.500888331897784" stroke="#0d6d4d" stroke-width="0.1" fill="none" />
<path d="M-49.543305221349435,-239.93845233256008 L222.04540782397928,103.54147412647134" stroke="#0d6d4d" stroke-width="0.1" fill="none" />
<path d="M-47.21450383428214,-240.4075511037092 L196.52018222498577,146.30385496718256" stroke="#0d6d4d" stroke-width="0.1" fill="none" />
<path d="M-44.88126348189001,-240.8540474816007 L162.87498707541485,183.02114245404397" stroke="#0d6d4d" stroke-width="0.1" fill="none" />
<path d="M-42.543803528397945,-241.27789948799096 L122.50000000000009,212.17622392718744" stroke="#0d6d4d" stroke-width="0.1" fill="none" />
<path d="M-40.20234373474441,-241.6790672735921 L77.06346525714535,232.5644476753933" stroke="#0d6d4d" stroke-width="0.1" fill="none" />
<path d="M-37.857104237920986,-242.05751312181818 L28.44276396068144,243.34339764677605" stroke="#0d6d4d" stroke-width="0.1" fill="none" />
<path d="M-35.50830553027554,-242.4132014523314 L-21.353156973176198,244.06770103247766" stroke="#0d6d4d" stroke-width="0.1" fill="none" />
<path d="M-33.15616843878224,-242.74609882438708 L-70.26679201421715,234.70743051729477" stroke="#0d6d4d" stroke-width="0.1" fill="none" />
<path d="M-30.800914104280007,-243.05617393997784 L-116.27709058817182,215.64934083912726" stroke="#0d6d4d" stroke-width="0.1" fill="none" />
<path d="M-28.442763960681365,-243.34339764677605 L-157.48296437320212,187.68088856414965" stroke="#0d6d4d" stroke-width="0.1" fill="none" />
<path d="M-26.081939714154924,-243.6077429408745 L-192.18183790529594,151.95769536072385" stroke="#0d6d4d" stroke-width="0.1" fill="none" />
<path d="M-23.71866332227889,-243.84918496932562 L-218.939996879236,109.95579914911329" stroke="#0d6d4d" stroke-width="0.1" fill="none" />
<path d="M-21.353156973176286,-244.06770103247766 L-236.65182744082173,63.410666050117555" stroke="#0d6d4d" stroke-width="0.1" fill="none" />
<path d="M-18.985643064623144,-244.26327058610906 L-244.5854987764607,14.245483083066679" stroke="#0d6d4d" stroke-width="0.1" fill="none" />
<path d="M-16.61634418314038,-244.43587524335993 L-242.41320145233144,-35.508305530275436" stroke="#0d6d4d" stroke-width="0.1" fill="none" />
<path d="M-14.245483083066693,-244.5854987764607 L-230.2246920925476,-83.79493511478871" stroke="#0d6d4d" stroke-width="0.1" fill="none" />
<path d="M-11.87328266561565,-244.71212711825785 L-208.52358474706497,-128.6192621819672" stroke="#0d6d4d" stroke-width="0.1" fill="none" />
<path d="M-9.499965957920264,-244.81574836353636 L-178.20654218539704,-168.1292012778396" stroke="#0d6d4d" stroke-width="0.1" fill="none" />
<path d="M-7.125756092062273,-244.89635277013915 L-140.52622690600637,-200.69225085080294" stroke="#0d6d4d" stroke-width="0.1" fill="none" />
<path d="M-4.750876284096977,-244.95393275988286 L-97.03954267959364,-224.96294618566705" stroke="#0d6d4d" stroke-width="0.1" fill="none" />
<path d="M-2.3755498130647403,-244.9884829192704 L-49.543305221349435,-239.93845233256008" stroke="#0d6d4d" stroke-width="0.1" fill="none" />
</svg>