<?xml version="1.0" encoding="UTF-8"?>
<svg xmlns="http://www.w3.org/2000/svg" xmlns:xlink="http://www.w3.org/1999/xlink"
     width="500.0" height="500" viewBox="-250.0 -250.0 500 500">
<defs>
</defs>
<circle cx="0" cy="0" r="245.0" fill="white" stroke-width="2" stroke="black" />
<path d="M0.0,-245.0 L0.0,-245.0" stroke="#0d6d4d" stroke-width="0.1" fill="none" />
<path d="M2.294125043435898,-244.98925892839685 L47.86744175144351,-240.2783969069466" stroke="#0d6d4d" stroke-width="0.1" fill="none" />
<path d="M4.588048932901526,-244.9570366553884 L93.88989524957951,-226.29557567487478" stroke="#0d6d4d" stroke-width="0.1" fill="none" />
<path d="M6.881570532064241,-244.90333600629498 L136.29348491247575,-203.59048595259247" stroke="#0d6d4d" stroke-width="0.1" fill="none" />
<path d="M9.174488739865101,-244.8281616897086 L173.44381955556966,-173.0382658777387" stroke="#0d6d4d" stroke-width="0.1" fill="none" />
<path d="M11.466602508151864,-244.73152029707992 L203.9089878730753,-135.81651101606911" stroke="#0d6d4d" stroke-width="0.1" fill="none" />
<path d="M13.757710859307322,-244.6134203021406 L226.51474959594498,-93.35988547275716" stroke="#0d6d4d" stroke-width="0.1" fill="none" />
<path d="M16.04761290387147,-244.47387206016003 L240.3897950550234,-47.30482463136133" stroke="#0d6d4d" stroke-width="0.1" fill="none" />
<path d="M18.33610785815595,-244.31288780703744 L244.9993286784261,0.5735391185715825" stroke="#0d6d4d" stroke-width="0.1" fill="none" />
<path d="M20.62299506184918,-244.13048165822912 L240.1656819909385,48.42979654951482" stroke="#0d6d4d" stroke-width="0.1" fill="none" />
<path d="M22.908073995610735,-243.92666960751055 L226.07516161419622,94.41939049324061" stroke="#0d6d4d" stroke-width="0.1" fill="none" />
<path d="M25.1911442986533,-243.7014695255743 L203.2708683203916,136.7697118965819" stroke="#0d6d4d" stroke-width="0.1" fill="none" />
<path d="M27.472005786310742,-243.45490115846283 L172.63176391973627,173.84842273072383" stroke="#0d6d4d" stroke-width="0.1" fill="none" />
<path d="M29.750458467590775,-243.18698612583725 L135.33879282126313,204.22637233639347" stroke="#0d6d4d" stroke-width="0.1" fill="none" />
<path d="M32.02630256271058,-242.89774791908164 L92.82936406732058,226.7326821762951" stroke="#0d6d4d" stroke-width="0.1" fill="none" />
<path d="M34.299338520614,-242.58721189924321 L46.741948272509134,240.49987582468745" stroke="#0d6d4d" stroke-width="0.1" fill="none" />
<path d="M36.569367036468506,-242.25540529480872 L-1.1470750940477872,244.9973147173834" stroke="#0d6d4d" stroke-width="0.1" fill="none" />
<path d="M38.83618906914081,-241.90235719931698 L-48.99188594377179,240.05165092469676" stroke="#0d6d4d" stroke-width="0.1" fill="none" />
<path d="M41.099605858649156,-241.5280985688077 L-94.94836830201328,225.85350862181716" stroke="#0d6d4d" stroke-width="0.1" fill="none" />
<path d="M43.35941894359106,-241.1326622191074 L-137.2451893585798,202.9501367280337" stroke="#0d6d4d" stroke-width="0.1" fill="none" />
<path d="M45.615430178544855,-240.71608282295205 L-174.25207318590427,172.22431590926487" stroke="#0d6d4d" stroke-width="0.1" fill="none" />
<path d="M47.86744175144351,-240.2783969069466 L-204.54263760322416,134.86033294603754" stroke="#0d6d4d" stroke-width="0.1" fill="none" />
<path d="M50.1152562009192,-239.81964284836266 L-226.9493722216163,92.29833394062027" stroke="#0d6d4d" stroke-width="0.1" fill="none" />
<path d="M52.358676433617234,-239.33986087177325 L-240.6086386126767,46.17881575954865" stroke="#0d6d4d" stroke-width="0.1" fill="none" />
<path d="M54.597505741477555,-238.8390930455258 L-244.99395812790874,-1.72060478335057" stroke="#0d6d4d" stroke-width="0.1" fill="none" />
<path d="M56.8315478189826,-238.31738327805357 L-239.9363043331316,-49.55370685386576" stroke="#0d6d4d" stroke-width="0.1" fill="none" />
<path d="M59.06060678036975,-237.77477731402576 L-225.63061791243507,-95.47682577700587" stroke="#0d6d4d" stroke-width="0.1" fill="none" />
<path d="M61.28448717680709,-237.21132273033632 L-202.62829293318424,-137.71991469276938" stroke="#0d6d4d" stroke-width="0.1" fill="none" />
<path d="M63.502994013530724,-236.62706893193237 L-171.81592407921133,-174.65476870903552" stroke="#0d6d4d" stroke-width="0.1" fill="none" />
<path d="M65.71593276694243,-236.02206714748243 L-134.38113401243652,-204.8577819403783" stroke="#0d6d4d" stroke-width="0.1" fill="none" />
<path d="M67.92310940166581,-235.39637042488428 L-91.76679800279518,-227.16481854440883" stroke="#0d6d4d" stroke-width="0.1" fill="none" />
<path d="M70.1243303875599,-234.75003362661388 L-45.61543017854487,-240.71608282295205" stroke="#0d6d4d" stroke-width="0.1" fill="none" />
<path d="M72.31940271668815,-234.0831134249147 L2.294125043435898,-244.98925892839685" stroke="#0d6d4d" stroke-width="0.1" fill="none" />
<path d="M74.50813392024189,-233.39566829682872 L50.1152562009192,-239.81964284836266" stroke="#0d6d4d" stroke-width="0.1" fill="none" />
<path d="M76.6903320854164,-232.68775851906895 L96.00476002217863,-225.40649070753017" stroke="#0d6d4d" stroke-width="0.1" fill="none" />
<path d="M78.8658058722383,-231.95944616273428 L138.1938852975722,-202.30533869960394" stroke="#0d6d4d" stroke-width="0.1" fill="none" />
<path d="M81.03436453034251,-231.21079508786687 L175.0565070932753,-171.4065906676347" stroke="#0d6d4d" stroke-width="0.1" fill="none" />
<path d="M83.1958179156979,-230.44187093785288 L205.1718036208091,-133.90119864655486" stroke="#0d6d4d" stroke-width="0.1" fill="none" />
<path d="M85.34997650727927,-229.65274113366658 L227.379019963989,-91.2347591667556" stroke="#0d6d4d" stroke-width="0.1" fill="none" />
<path d="M87.49665142368521,-228.8434748679589 L240.82220786670013,-45.051794616950325" stroke="#0d6d4d" stroke-width="0.1" fill="none" />
<path d="M89.6356544396995,-228.0141430989902 L244.98321714460013,2.867632731312083" stroke="#0d6d4d" stroke-width="0.1" fill="none" />
<path d="M91.76679800279516,-227.16481854440883 L239.70166710971552,50.67653090754263" stroke="#0d6d4d" stroke-width="0.1" fill="none" />
<path d="M93.88989524957951,-226.29557567487478 L225.18112823535915,96.53216814435866" stroke="#0d6d4d" stroke-width="0.1" fill="none" />
<path d="M96.00476002217863,-225.40649070753017 L201.9812757971389,138.6670985755457" stroke="#0d6d4d" stroke-width="0.1" fill="none" />
<path d="M98.11120688456027,-224.49764159931615 L170.99631791775417,175.45728613702636" stroke="#0d6d4d" stroke-width="0.1" fill="none" />
<path d="M100.20905113879323,-223.5691080401376 L133.42052947852284,205.4847009236226" stroke="#0d6d4d" stroke-width="0.1" fill="none" />
<path d="M102.29810884124197,-222.6209714458757 L90.70222034816805,227.5919753064953" stroke="#0d6d4d" stroke-width="0.1" fill="none" />
<path d="M104.37819681869537,-221.65331495124923 L44.48791216358702,240.92701316233712" stroke="#0d6d4d" stroke-width="0.1" fill="none" />
<path d="M106.44913268442764,-220.6662234025251 L-3.4411247040558077,244.97583280962866" stroke="#0d6d4d" stroke-width="0.1" fill="none" />
<path d="M108.51073485419049,-219.65978335007884 L-51.237527897851784,239.58237776371794" stroke="#0d6d4d" stroke-width="0.1" fill="none" />
<path d="M110.56282256213474,-218.63408304080568 L-97.05904725325658,224.95453173094805" stroke="#0d6d4d" stroke-width="0.1" fill="none" />
<path d="M112.60521587666034,-217.5892124103829 L-139.13955193339794,201.65610600171087" stroke="#0d6d4d" stroke-width="0.1" fill="none" />
<path d="M114.63773571619315,-216.525263075384 L-175.85710364394896,170.58510807793684" stroke="#0d6d4d" stroke-width="0.1" fill="none" />
<path d="M116.66020386488715,-215.4423283252457 L-205.79647213408634,132.93912914249225" stroke="#0d6d4d" stroke-width="0.1" fill="none" />
<path d="M118.67244298825096,-214.34050311408788 L-227.80368340489488,90.1691844654393" stroke="#0d6d4d" stroke-width="0.1" fill="none" />
<path d="M120.67427664869678,-213.21988405238804 L-241.0304981355115,43.9237859086303" stroke="#0d6d4d" stroke-width="0.1" fill="none" />
<path d="M122.66552932101081,-212.08056939851005 L-244.96710596394988,-4.014597818830182" stroke="#0d6d4d" stroke-width="0.1" fill="none" />
<path d="M124.64602640774385,-210.92265905008884 L-239.46177546409658,-51.7982440974845" stroke="#0d6d4d" stroke-width="0.1" fill="none" />
<path d="M126.61559425452022,-209.74625453527105 L-224.72670243608542,-97.58539446148235" stroke="#0d6d4d" stroke-width="0.1" fill="none" />
<path d="M128.5740601652642,-208.55145900381282 L-201.32983109530767,-139.61124278200123" stroke="#0d6d4d" stroke-width="0.1" fill="none" />
<path d="M130.5212524173426,-207.33837721803542 L-170.17296340168477,-176.25595742297295" stroke="#0d6d4d" stroke-width="0.1" fill="none" />
<path d="M132.45700027662141,-206.1071155436394 L-132.4570002766214,-206.1071155436394" stroke="#0d6d4d" stroke-width="0.1" fill="none" />
<path d="M134.38113401243646,-204.85778194037832 L-89.63565443969947,-228.01414309899022" stroke="#0d6d4d" stroke-width="0.1" fill="none" />
<path d="M136.29348491247575,-203.59048595259247 L-43.35941894359123,-241.1326622191074" stroke="#0d6d4d" stroke-width="0.1" fill="none" />
<path d="M138.1938852975722,-202.30533869960394 L4.588048932901526,-244.9570366553884" stroke="#0d6d4d" stroke-width="0.1" fill="none" />
<path d="M140.08216853640667,-201.00245286597314 L52.358676433617234,-239.33986087177325" stroke="#0d6d4d" stroke-width="0.1" fill="none" />
<path d="M141.95816906011814,-199.6819426916188 L98.11120688456027,-224.49764159931615" stroke="#0d6d4d" stroke-width="0.1" fill="none" />
<path d="M143.82172237682116,-198.3439239618007 L140.08216853640667,-201.00245286597314" stroke="#0d6d4d" stroke-width="0.1" fill="none" />
<path d="M145.6726650860292,-196.98851399696775 L176.65384528830916,-169.75988614762363" stroke="#0d6d4d" stroke-width="0.1" fill="none" />
<path d="M147.5108348929817,-195.61583164247082 L206.41662944990097,-131.97414552306174" stroke="#0d6d4d" stroke-width="0.1" fill="none" />
<path d="M149.33607062287436,-194.22599725814223 L228.22335323542498,-89.10163319478742" stroke="#0d6d4d" stroke-width="0.1" fill="none" />
<path d="M151.14821223499163,-192.81913270774226 L241.23350485324772,-42.7948143612999" stroke="#0d6d4d" stroke-width="0.1" fill="none" />
<path d="M152.94710083673903,-191.395361348274 L244.94562493912588,5.161474903656622" stroke="#0d6d4d" stroke-width="0.1" fill="none" />
<path d="M154.7325786975756,-189.95480801916696 L239.2166346548614,52.918821834982" stroke="#0d6d4d" stroke-width="0.1" fill="none" />
<path d="M156.50448926284378,-188.49759903133096 L224.26735047593388,98.63648164094579" stroke="#0d6d4d" stroke-width="0.1" fill="none" />
<path d="M158.26267716749655,-187.02386215608095 L200.67397310779774,140.55232661585814" stroke="#0d6d4d" stroke-width="0.1" fill="none" />
<path d="M160.00698824972025,-185.53372661393368 L169.34587857948938,177.0507650594621" stroke="#0d6d4d" stroke-width="0.1" fill="none" />
<path d="M161.73726956445176,-184.02732306327738 L131.49056752794212,206.7250121566805" stroke="#0d6d4d" stroke-width="0.1" fill="none" />
<path d="M163.45336939678907,-182.5047835889153 L88.56712365723342,228.43131266769083" stroke="#0d6d4d" stroke-width="0.1" fill="none" />
<path d="M165.15513727529407,-180.96624169048428 L42.2299752558893,241.33302548529693" stroke="#0d6d4d" stroke-width="0.1" fill="none" />
<path d="M166.84242398518595,-179.41183227074922 L-5.734872588620332,244.93287087770048" stroke="#0d6d4d" stroke-width="0.1" fill="none" />
<path d="M168.51508158142502,-177.84169162377438 L-53.47867723188336,239.09209748866238" stroke="#0d6d4d" stroke-width="0.1" fill="none" />
<path d="M170.17296340168477,-176.25595742297295 L-99.16121585204075,224.0358303279745" stroke="#0d6d4d" stroke-width="0.1" fill="none" />
<path d="M171.8159240792113,-174.65476870903552 L-141.02171444380667,200.3443936209083" stroke="#0d6d4d" stroke-width="0.1" fill="none" />
<path d="M173.44381955556966,-173.0382658777387 L-177.44671456124146,168.93094296611648" stroke="#0d6d4d" stroke-width="0.1" fill="none" />
<path d="M175.0565070932753,-171.4065906676347 L-207.0322619739863,131.00626894135527" stroke="#0d6d4d" stroke-width="0.1" fill="none" />
<path d="M176.65384528830916,-169.75988614762363 L-228.63802025613344,88.03212875624394" stroke="#0d6d4d" stroke-width="0.1" fill="none" />
<path d="M178.23569408251683,-168.09829670440888 L-241.43122356986453,41.66490472277704" stroke="#0d6d4d" stroke-width="0.1" fill="none" />
<path d="M179.80191477588878,-166.42196802983685 L-244.91877454100668,-6.308238845472215" stroke="#0d6d4d" stroke-width="0.1" fill="none" />
<path d="M181.35237003872203,-164.73104710812237 L-238.96625005566185,-54.038239556215125" stroke="#0d6d4d" stroke-width="0.1" fill="none" />
<path d="M182.8869239236615,-163.025682202961 L-223.80308242420924,-99.68540664220919" stroke="#0d6d4d" stroke-width="0.1" fill="none" />
<path d="M184.4054418776203,-161.30602284452868 L-200.0137162114586,-141.49032944792413" stroke="#0d6d4d" stroke-width="0.1" fill="none" />
<path d="M185.90779075357725,-159.57221981637073 L-168.51508158142502,-177.84169162377444" stroke="#0d6d4d" stroke-width="0.1" fill="none" />
<path d="M187.39383882225206,-157.82442514218076 L-130.5212524173427,-207.33837721803533" stroke="#0d6d4d" stroke-width="0.1" fill="none" />
<path d="M188.8634557836552,-156.06279207247098 L-87.49665142368512,-228.8434748679589" stroke="#0d6d4d" stroke-width="0.1" fill="none" />
<path d="M190.31651277851316,-154.28747507113476 L-41.09960585864904,-241.5280985688077" stroke="#0d6d4d" stroke-width="0.1" fill="none" />
<path d="M191.7528823995669,-152.498629801903 L6.881570532064241,-244.90333600629498" stroke="#0d6d4d" stroke-width="0.1" fill="none" />
<path d="M193.17243870274342,-150.69641311469508 L54.597505741477555,-238.8390930455258" stroke="#0d6d4d" stroke-width="0.1" fill="none" />
<path d="M194.5750572181986,-148.8809830318659 L100.20905113879323,-223.5691080401376" stroke="#0d6d4d" stroke-width="0.1" fill="none" />
<path d="M195.96061496123124,-147.05249873435022 L141.95816906011814,-199.6819426916188" stroke="#0d6d4d" stroke-width="0.1" fill="none" />
<path d="M197.32899044306635,-145.21112054770538 L178.23569408251683,-168.09829670440888" stroke="#0d6d4d" stroke-width="0.1" fill="none" />
<path d="M198.6800636815078,-143.3570099280534 L207.64335621126224,-130.0355206138802" stroke="#0d6d4d" stroke-width="0.1" fill="none" />
<path d="M200.0137162114585,-141.4903294479243 L229.04767537723964,-86.96069459406738" stroke="#0d6d4d" stroke-width="0.1" fill="none" />
<path d="M201.32983109530764,-139.61124278200126 L241.6236499512344,-40.53408176144301" stroke="#0d6d4d" stroke-width="0.1" fill="none" />
<path d="M202.62829293318418,-137.71991469276946 L244.88655535817122,7.454864506437803" stroke="#0d6d4d" stroke-width="0.1" fill="none" />
<path d="M203.9089878730753,-135.81651101606911 L238.71062715509711,55.156472722792984" stroke="#0d6d4d" stroke-width="0.1" fill="none" />
<path d="M205.1718036208091,-133.90119864655486 L223.33390845798039,100.73214647212893" stroke="#0d6d4d" stroke-width="0.1" fill="none" />
<path d="M206.41662944990097,-131.97414552306174 L199.34907487956644,142.42523071654477" stroke="#0d6d4d" stroke-width="0.1" fill="none" />
<path d="M207.64335621126224,-130.0355206138802 L167.68059061912234,178.6287197782661" stroke="#0d6d4d" stroke-width="0.1" fill="none" />
<path d="M208.8518763427706,-128.0854939019406 L129.54907619286377,207.94719728232832" stroke="#0d6d4d" stroke-width="0.1" fill="none" />
<path d="M210.04208387870142,-126.12423636990853 L86.42426120452826,229.25062066492092" stroke="#0d6d4d" stroke-width="0.1" fill="none" />
<path d="M211.21387445901905,-124.15191998519289 L39.96833553033018,241.7178771935062" stroke="#0d6d4d" stroke-width="0.1" fill="none" />
<path d="M212.36714533852737,-122.16871768486725 L-8.02811762684089,244.86843268859627" stroke="#0d6d4d" stroke-width="0.1" fill="none" />
<path d="M213.50179539587864,-120.17480336050633 L-55.7151374369241,238.58085308839154" stroke="#0d6d4d" stroke-width="0.1" fill="none" />
<path d="M214.6177251424402,-118.17035184293897 L-101.2546897755616,223.09748496667277" stroke="#0d6d4d" stroke-width="0.1" fill="none" />
<path d="M215.71483673101758,-116.15553888691844 L-142.89151185762412,199.01511459947577" stroke="#0d6d4d" stroke-width="0.1" fill="none" />
<path d="M216.79303396443427,-114.1305411557119 L-179.0207665571719,167.26196561466853" stroke="#0d6d4d" stroke-width="0.1" fill="none" />
<path d="M217.85222230396624,-112.09553620561019 L-208.249898766131,129.06192182009454" stroke="#0d6d4d" stroke-width="0.1" fill="none" />
<path d="M218.89230887763154,-110.05070247035933 L-229.4523096188269,85.88735419481735" stroke="#0d6d4d" stroke-width="0.1" fill="none" />
<path d="M219.9132024883333,-107.99621924551487 L-241.81077977924124,39.40237026569958" stroke="#0d6d4d" stroke-width="0.1" fill="none" />
<path d="M220.91481362185624,-105.93226667272114 L-244.84896809688559,-8.601326751745633" stroke="#0d6d4d" stroke-width="0.1" fill="none" />
<path d="M221.8970544547155,-103.85902572391589 L-238.4497715565937,-56.27349682229" stroke="#0d6d4d" stroke-width="0.1" fill="none" />
<path d="M222.85983886185699,-101.77667818546217 L-222.85983886185704,-101.77667818546207" stroke="#0d6d4d" stroke-width="0.1" fill="none" />
<path d="M223.80308242420926,-99.68540664220913 L-198.6800636815079,-143.3570099280533" stroke="#0d6d4d" stroke-width="0.1" fill="none" />
<path d="M224.72670243608542,-97.58539446148241 L-166.842423985186,-179.41183227074916" stroke="#0d6d4d" stroke-width="0.1" fill="none" />
<path d="M225.63061791243504,-95.47682577700598 L-128.57406016526429,-208.55145900381277" stroke="#0d6d4d" stroke-width="0.1" fill="none" />
<path d="M226.51474959594498,-93.35988547275716 L-85.34997650727932,-229.65274113366655" stroke="#0d6d4d" stroke-width="0.1" fill="none" />
<path d="M227.379019963989,-91.2347591667556 L-38.83618906914085,-241.90235719931698" stroke="#0d6d4d" stroke-width="0.1" fill="none" />
<path d="M228.22335323542498,-89.10163319478742 L9.174488739865101,-244.8281616897086" stroke="#0d6d4d" stroke-width="0.1" fill="none" />
<path d="M229.04767537723964,-86.96069459406738 L56.8315478189826,-238.31738327805357" stroke="#0d6d4d" stroke-width="0.1" fill="none" />
<path d="M229.8519141110399,-84.81213108683887 L102.29810884124197,-222.6209714458757" stroke="#0d6d4d" stroke-width="0.1" fill="none" />
<path d="M230.63599891939054,-82.65613106391379 L143.82172237682116,-198.3439239618007" stroke="#0d6d4d" stroke-width="0.1" fill="none" />
<path d="M231.39986105199702,-80.49288356815448 L179.80191477588878,-166.42196802983685" stroke="#0d6d4d" stroke-width="0.1" fill="none" />
<path d="M232.14343353173396,-78.3225782778977 L208.8518763427706,-128.0854939019406" stroke="#0d6d4d" stroke-width="0.1" fill="none" />
<path d="M232.86665116051776,-76.1454054903231 L229.8519141110399,-84.81213108683887" stroke="#0d6d4d" stroke-width="0.1" fill="none" />
<path d="M233.5694505250232,-73.96155610476794 L241.99260895187302,-38.26979504342634" stroke="#0d6d4d" stroke-width="0.1" fill="none" />
<path d="M234.25177000224377,-71.77122160598825 L244.806013581088,9.74760045017037" stroke="#0d6d4d" stroke-width="0.1" fill="none" />
<path d="M234.91354976489492,-69.57459404736927 L238.18368897828222,57.38928736878444" stroke="#0d6d4d" stroke-width="0.1" fill="none" />
<path d="M235.55473178665977,-67.37186603408563 L222.38088402776438,102.8189788853692" stroke="#0d6d4d" stroke-width="0.1" fill="none" />
<path d="M236.175259847277,-65.16323070621338 L198.0066972824593,144.28564665722135" stroke="#0d6d4d" stroke-width="0.1" fill="none" />
<path d="M236.77507953747048,-62.9488817217949 L166.00060005279374,180.19101193486986" stroke="#0d6d4d" stroke-width="0.1" fill="none" />
<path d="M237.3541382637199,-60.729013239858766 L127.59622570755276,209.15114913666446" stroke="#0d6d4d" stroke-width="0.1" fill="none" />
<path d="M237.9123852528722,-58.50381990339531 L84.27382088098346,230.04982745944392" stroke="#0d6d4d" stroke-width="0.1" fill="none" />
<path d="M238.44977155659373,-56.2734968222899 L37.70319129249511,242.0815345423139" stroke="#0d6d4d" stroke-width="0.1" fill="none" />
<path d="M238.96625005566182,-54.03823955621534 L-10.320658741908455,244.78252389239938" stroke="#0d6d4d" stroke-width="0.1" fill="none" />
<path d="M239.46177546409658,-51.798244097484556 L-57.946712415184436,238.04868938994792" stroke="#0d6d4d" stroke-width="0.1" fill="none" />
<path d="M239.93630433313157,-49.553706853865876 L-103.33928546338441,222.13957792324433" stroke="#0d6d4d" stroke-width="0.1" fill="none" />
<path d="M240.3897950550234,-47.30482463136133 L-144.74878022686718,197.66838549154517" stroke="#0d6d4d" stroke-width="0.1" fill="none" />
<path d="M240.82220786670013,-45.051794616950325 L-180.57912161537152,165.5783223632275" stroke="#0d6d4d" stroke-width="0.1" fill="none" />
<path d="M241.23350485324772,-42.7948143612999 L-209.4492757454266,127.10625826337679" stroke="#0d6d4d" stroke-width="0.1" fill="none" />
<path d="M241.6236499512344,-40.53408176144301 L-230.24648009427855,83.73504883974802" stroke="#0d6d4d" stroke-width="0.1" fill="none" />
<path d="M241.99260895187302,-38.26979504342634 L-242.16913348331167,37.136380921435745" stroke="#0d6d4d" stroke-width="0.1" fill="none" />
<path d="M242.3403495040204,-36.002152744929674 L-244.75769275237036,-10.893660474619084" stroke="#0d6d4d" stroke-width="0.1" fill="none" />
<path d="M242.66684111701383,-33.73135369785749 L-237.9123852528722,-58.503819903395254" stroke="#0d6d4d" stroke-width="0.1" fill="none" />
<path d="M242.97205516334486,-31.45759701090499 L-221.89705445471552,-103.85902572391583" stroke="#0d6d4d" stroke-width="0.1" fill="none" />
<path d="M243.2559648811692,-29.181082052099775 L-197.3289904430664,-145.21112054770535" stroke="#0d6d4d" stroke-width="0.1" fill="none" />
<path d="M243.51854537665326,-26.902008431320912 L-165.15513727529407,-180.96624169048428" stroke="#0d6d4d" stroke-width="0.1" fill="none" />
<path d="M243.75977362615708,-24.620575982796453 L-126.61559425452022,-209.74625453527105" stroke="#0d6d4d" stroke-width="0.1" fill="none" />
<path d="M243.97962847825286,-22.336984747581806 L-83.19581791569789,-230.44187093785288" stroke="#0d6d4d" stroke-width="0.1" fill="none" />
<path d="M244.17809065557972,-20.051434956019733 L-36.569367036468705,-242.25540529480872" stroke="#0d6d4d" stroke-width="0.1" fill="none" />
<path d="M244.35514275653392,-17.764127010183255 L11.466602508151864,-244.73152029707992" stroke="#0d6d4d" stroke-width="0.1" fill="none" />
<path d="M244.51076925679473,-15.475261466304465 L59.06060678036975,-237.77477731402576" stroke="#0d6d4d" stroke-width="0.1" fill="none" />
<path d="M244.6449565106855,-13.1850390171891 L104.37819681869537,-221.65331495124923" stroke="#0d6d4d" stroke-width="0.1" fill="none" />
<path d="M244.75769275237036,-10.893660474619198 L145.6726650860292,-196.98851399696775" stroke="#0d6d4d" stroke-width="0.1" fill="none" />
<path d="M244.84896809688559,-8.601326751745802 L181.35237003872203,-164.73104710812237" stroke="#0d6d4d" stroke-width="0.1" fill="none" />
<path d="M244.91877454100668,-6.3082388454722755 L210.04208387870142,-126.12423636990853" stroke="#0d6d4d" stroke-width="0.1" fill="none" />
<path d="M244.96710596394988,-4.014597818830188 L230.63599891939054,-82.65613106391379" stroke="#0d6d4d" stroke-width="0.1" fill="none" />
<path d="M244.99395812790874,-1.720604783350467 L242.3403495040204,-36.002152744929674" stroke="#0d6d4d" stroke-width="0.1" fill="none" />
<path d="M244.9993286784261,0.5735391185715825 L244.7040066699578,12.039481702683393" stroke="#0d6d4d" stroke-width="0.1" fill="none" />
<path d="M244.98321714460013,2.867632731312083 L237.63586632752435,59.61706999481763" stroke="#0d6d4d" stroke-width="0.1" fill="none" />
<path d="M244.94562493912588,5.161474903656622 L221.40836074858095,104.89679590257391" stroke="#0d6d4d" stroke-width="0.1" fill="none" />
<path d="M244.88655535817122,7.454864506437803 L196.64695801912018,146.13341131249342" stroke="#0d6d4d" stroke-width="0.1" fill="none" />
<path d="M244.806013581088,9.74760045017037 L164.30605418580126,181.73750454403336" stroke="#0d6d4d" stroke-width="0.1" fill="none" />
<path d="M244.7040066699578,12.039481702683393 L125.6321873022694,210.3367621545209" stroke="#0d6d4d" stroke-width="0.1" fill="none" />
<path d="M244.58054356897276,14.33030730674711 L82.11599124197464,230.82886297503597" stroke="#0d6d4d" stroke-width="0.1" fill="none" />
<path d="M244.43563510365135,16.61987639769352 L35.434741155253306,242.42396564543736" stroke="#0d6d4d" stroke-width="0.1" fill="none" />
<path d="M244.26929397988906,18.90798822102832 L-12.612294918734781,244.67515202178348" stroke="#0d6d4d" stroke-width="0.1" fill="none" />
<path d="M244.0815347828444,21.194442150033748 L-60.17320649722268,237.49565305462457" stroke="#0d6d4d" stroke-width="0.1" fill="none" />
<path d="M243.87237397566008,23.479037703359765 L-105.41482013353708,221.1621931891028" stroke="#0d6d4d" stroke-width="0.1" fill="none" />
<path d="M243.64182989801944,25.761574562602913 L-146.5933567021277,196.30432438131044" stroke="#0d6d4d" stroke-width="0.1" fill="none" />
<path d="M243.38992276453837,28.04185258987071 L-182.12164309581343,163.88016083736665" stroke="#0d6d4d" stroke-width="0.1" fill="none" />
<path d="M243.11667466299286,30.31967184532992 L-210.6302877478407,125.13944974811834" stroke="#0d6d4d" stroke-width="0.1" fill="none" />
<path d="M242.82210955238222,32.59483260473785 L-231.02046204786035,81.57540140994172" stroke="#0d6d4d" stroke-width="0.1" fill="none" />
<path d="M242.50625326082854,34.86713537695483 L-242.50625326082852,34.867135376954884" stroke="#0d6d4d" stroke-width="0.1" fill="none" />
<path d="M242.16913348331167,37.136380921435624 L-244.6449565106855,-13.18503901718904" stroke="#0d6d4d" stroke-width="0.1" fill="none" />
<path d="M241.81077977924124,39.40237026569962 L-237.3541382637199,-60.729013239858766" stroke="#0d6d4d" stroke-width="0.1" fill="none" />
<path d="M241.43122356986453,41.66490472277699 L-220.91481362185635,-105.93226667272096" stroke="#0d6d4d" stroke-width="0.1" fill="none" />
<path d="M241.0304981355115,43.92378590863024 L-195.96061496123124,-147.05249873435025" stroke="#0d6d4d" stroke-width="0.1" fill="none" />
<path d="M240.60863861267674,46.178815759548534 L-163.45336939678924,-182.5047835889152" stroke="#0d6d4d" stroke-width="0.1" fill="none" />
<path d="M240.1656819909385,48.42979654951482 L-124.64602640774382,-210.92265905008884" stroke="#0d6d4d" stroke-width="0.1" fill="none" />
<path d="M239.70166710971552,50.67653090754263 L-81.03436453034266,-231.2107950878668" stroke="#0d6d4d" stroke-width="0.1" fill="none" />
<path d="M239.2166346548614,52.918821834982 L-34.299338520614135,-242.5872118992432" stroke="#0d6d4d" stroke-width="0.1" fill="none" />
<path d="M238.71062715509711,55.156472722792984 L13.757710859307322,-244.6134203021406" stroke="#0d6d4d" stroke-width="0.1" fill="none" />
<path d="M238.18368897828222,57.38928736878444 L61.28448717680709,-237.21132273033632" stroke="#0d6d4d" stroke-width="0.1" fill="none" />
<path d="M237.63586632752435,59.61706999481763 L106.44913268442764,-220.6662234025251" stroke="#0d6d4d" stroke-width="0.1" fill="none" />
<path d="M237.0672072371281,61.83962526397264 L147.5108348929817,-195.61583164247082" stroke="#0d6d4d" stroke-width="0.1" fill="none" />
<path d="M236.47776156838333,64.05675829767564 L182.8869239236615,-163.025682202961" stroke="#0d6d4d" stroke-width="0.1" fill="none" />
<path d="M235.86758100519327,66.26827469278642 L211.21387445901905,-124.15191998519289" stroke="#0d6d4d" stroke-width="0.1" fill="none" />
<path d="M235.23671904954244,68.47398053864435 L231.39986105199702,-80.49288356815448" stroke="#0d6d4d" stroke-width="0.1" fill="none" />
<path d="M234.58523101680592,70.67368243407016 L242.66684111701383,-33.73135369785749" stroke="#0d6d4d" stroke-width="0.1" fill="none" />
<path d="M233.91317403089886,72.86718750432473 L244.58054356897276,14.33030730674711" stroke="#0d6d4d" stroke-width="0.1" fill="none" />
<path d="M233.22060701926787,75.05430341802008 L237.0672072371281,61.83962526397264" stroke="#0d6d4d" stroke-width="0.1" fill="none" />
<path d="M232.50759070772403,77.23483840398367 L220.4164238934274,106.96541533613991" stroke="#0d6d4d" stroke-width="0.1" fill="none" />
<path d="M231.77418761511848,79.4086012680734 L195.2699763145025,147.96836266625934" stroke="#0d6d4d" stroke-width="0.1" fill="none" />
<path d="M231.02046204786038,81.57540140994168 L162.59710159968344,183.26806200585585" stroke="#0d6d4d" stroke-width="0.1" fill="none" />
<path d="M230.2464800942786,83.73504883974793 L123.65713318825557,211.5039323787197" stroke="#0d6d4d" stroke-width="0.1" fill="none" />
<path d="M229.45230961882694,85.88735419481715 L79.95096149078874,231.58765890413594" stroke="#0d6d4d" stroke-width="0.1" fill="none" />
<path d="M228.63802025613347,88.03212875624388 L33.16318402134221,242.74514047775827" stroke="#0d6d4d" stroke-width="0.1" fill="none" />
<path d="M227.8036834048949,90.16918446543926 L-14.902825221579157,244.54632649135226" stroke="#0d6d4d" stroke-width="0.1" fill="none" />
<path d="M226.94937222161627,92.29833394062037 L-62.39442445910111,236.92179257387346" stroke="#0d6d4d" stroke-width="0.1" fill="none" />
<path d="M226.07516161419622,94.41939049324061 L-107.48111179853814,220.1654164635085" stroke="#0d6d4d" stroke-width="0.1" fill="none" />
<path d="M225.18112823535915,96.53216814435866 L-148.4250795468503,194.92305087267428" stroke="#0d6d4d" stroke-width="0.1" fill="none" />
<path d="M224.26735047593388,98.63648164094579 L-183.6481957467944,162.16762993565357" stroke="#0d6d4d" stroke-width="0.1" fill="none" />
<path d="M223.33390845798039,100.73214647212893 L-211.79283121962206,123.16166872845092" stroke="#0d6d4d" stroke-width="0.1" fill="none" />
<path d="M222.38088402776438,102.8189788853692 L-231.77418761511848,79.4086012680734" stroke="#0d6d4d" stroke-width="0.1" fill="none" />
<path d="M221.40836074858095,104.89679590257391 L-242.8221095523822,32.59483260473808" stroke="#0d6d4d" stroke-width="0.1" fill="none" />
<path d="M220.4164238934274,106.96541533613991 L-244.51076925679473,-15.475261466304516" stroke="#0d6d4d" stroke-width="0.1" fill="none" />
<path d="M219.4051604375266,109.02465580492888 L-236.77507953747053,-62.948881721794734" stroke="#0d6d4d" stroke-width="0.1" fill="none" />
<path d="M218.37465905070033,111.07433675017094 L-219.9132024883333,-107.99621924551492" stroke="#0d6d4d" stroke-width="0.1" fill="none" />
<path d="M217.32501008959514,113.11427845129624 L-194.5750572181987,-148.88098303186575" stroke="#0d6d4d" stroke-width="0.1" fill="none" />
<path d="M216.2563055897591,115.14430204169342 L-161.73726956445185,-184.0273230632773" stroke="#0d6d4d" stroke-width="0.1" fill="none" />
<path d="M215.16863925757232,117.16422952439325 L-122.6655293210109,-212.08056939851" stroke="#0d6d4d" stroke-width="0.1" fill="none" />
<path d="M214.06210646203027,119.17388378767563 L-78.86580587223837,-231.95944616273425" stroke="#0d6d4d" stroke-width="0.1" fill="none" />
<path d="M212.93680422638192,121.17308862059885 L-32.02630256271045,-242.89774791908164" stroke="#0d6d4d" stroke-width="0.1" fill="none" />
<path d="M211.79283121962223,123.16166872845065 L16.04761290387147,-244.47387206016003" stroke="#0d6d4d" stroke-width="0.1" fill="none" />
<path d="M210.63028774784073,125.13944974811825 L63.502994013530724,-236.62706893193237" stroke="#0d6d4d" stroke-width="0.1" fill="none" />
<path d="M209.44927574542672,127.10625826337663 L108.51073485419049,-219.65978335007884" stroke="#0d6d4d" stroke-width="0.1" fill="none" />
<path d="M208.24989876613097,129.06192182009457 L149.33607062287436,-194.22599725814223" stroke="#0d6d4d" stroke-width="0.1" fill="none" />
<path d="M207.03226197398635,131.00626894135522 L184.4054418776203,-161.30602284452868" stroke="#0d6d4d" stroke-width="0.1" fill="none" />
<path d="M205.79647213408643,132.93912914249208 L212.36714533852737,-122.16871768486725" stroke="#0d6d4d" stroke-width="0.1" fill="none" />
<path d="M204.54263760322428,134.86033294603737 L232.14343353173396,-78.3225782778977" stroke="#0d6d4d" stroke-width="0.1" fill="none" />
<path d="M203.2708683203916,136.7697118965819 L242.97205516334486,-31.45759701090499" stroke="#0d6d4d" stroke-width="0.1" fill="none" />
<path d="M201.9812757971389,138.6670985755457 L244.43563510365135,16.61987639769352" stroke="#0d6d4d" stroke-width="0.1" fill="none" />
<path d="M200.67397310779774,140.55232661585814 L236.47776156838333,64.05675829767564" stroke="#0d6d4d" stroke-width="0.1" fill="none" />
<path d="M199.34907487956644,142.42523071654477 L219.4051604375266,109.02465580492888" stroke="#0d6d4d" stroke-width="0.1" fill="none" />
<path d="M198.0066972824593,144.28564665722135 L193.8758729054151,149.79033982591577" stroke="#0d6d4d" stroke-width="0.1" fill="none" />
<path d="M196.64695801912018,146.13341131249342 L160.8738921391923,184.7825501176654" stroke="#0d6d4d" stroke-width="0.1" fill="none" />
<path d="M195.2699763145025,147.96836266625934 L121.67123654263517,212.65255746918754" stroke="#0d6d4d" stroke-width="0.1" fill="none" />
<path d="M193.8758729054151,149.79033982591577 L77.77892146203446,232.32614871383433" stroke="#0d6d4d" stroke-width="0.1" fill="none" />
<path d="M192.46477002993592,151.59918303646586 L30.888719065927653,243.0450308779552" stroke="#0d6d4d" stroke-width="0.1" fill="none" />
<path d="M191.0367914166936,153.39473369452645 L-17.192048811666034,244.39605859681387" stroke="#0d6d4d" stroke-width="0.1" fill="none" />
<path d="M189.59206227401916,155.17683436223473 L-64.6101715395038,236.327158265054" stroke="#0d6d4d" stroke-width="0.1" fill="none" />
<path d="M188.13070927896703,156.94532878105286 L-109.53797928135293,219.14933514605488" stroke="#0d6d4d" stroke-width="0.1" fill="none" />
<path d="M186.65286056620778,158.70006188546935 L-150.24378815151488,193.52468607876028" stroke="#0d6d4d" stroke-width="0.1" fill="none" />
<path d="M185.1586457167933,160.44087981659482 L-185.1586457167933,160.4408798165948" stroke="#0d6d4d" stroke-width="0.1" fill="none" />
<path d="M183.64819574679447,162.1676299356535 L-212.9368042263818,121.17308862059902" stroke="#0d6d4d" stroke-width="0.1" fill="none" />
<path d="M182.12164309581348,163.8801608373666 L-232.507590707724,77.23483840398382" stroke="#0d6d4d" stroke-width="0.1" fill="none" />
<path d="M180.57912161537155,165.57832236322741 L-243.11667466299284,30.31967184533003" stroke="#0d6d4d" stroke-width="0.1" fill="none" />
<path d="M179.02076655717204,167.26196561466838 L-244.35514275653392,-17.76412701018314" stroke="#0d6d4d" stroke-width="0.1" fill="none" />
<path d="M177.44671456124152,168.93094296611642 L-236.17525984727703,-65.16323070621327" stroke="#0d6d4d" stroke-width="0.1" fill="none" />
<path d="M175.8571036439491,170.5851080779367 L-218.8923088776316,-110.05070247035923" stroke="#0d6d4d" stroke-width="0.1" fill="none" />
<path d="M174.25207318590427,172.22431590926487 L-193.17243870274348,-150.696413114695" stroke="#0d6d4d" stroke-width="0.1" fill="none" />
<path d="M172.63176391973627,173.84842273072383 L-160.00698824972028,-185.53372661393365" stroke="#0d6d4d" stroke-width="0.1" fill="none" />
<path d="M170.99631791775417,175.45728613702636 L-120.6742766486968,-213.219884052388" stroke="#0d6d4d" stroke-width="0.1" fill="none" />
<path d="M169.34587857948938,177.0507650594621 L-76.69033208541641,-232.68775851906895" stroke="#0d6d4d" stroke-width="0.1" fill="none" />
<path d="M167.68059061912234,178.6287197782661 L-29.750458467590782,-243.18698612583725" stroke="#0d6d4d" stroke-width="0.1" fill="none" />
<path d="M166.00060005279374,180.19101193486986 L18.33610785815595,-244.31288780703744" stroke="#0d6d4d" stroke-width="0.1" fill="none" />
<path d="M164.30605418580126,181.73750454403336 L65.71593276694243,-236.02206714748243" stroke="#0d6d4d" stroke-width="0.1" fill="none" />
<path d="M162.59710159968344,183.26806200585585 L110.56282256213474,-218.63408304080568" stroke="#0d6d4d" stroke-width="0.1" fill="none" />
<path d="M160.8738921391923,184.7825501176654 L151.14821223499163,-192.81913270774226" stroke="#0d6d4d" stroke-width="0.1" fill="none" />
<path d="M159.13657689915382,186.2808360857866 L185.90779075357725,-159.57221981637073" stroke="#0d6d4d" stroke-width="0.1" fill="none" />
<path d="M157.38530821122018,187.7627885371839 L213.50179539587864,-120.17480336050633" stroke="#0d6d4d" stroke-width="0.1" fill="none" />
<path d="M155.62023963051283,189.22827753098048 L232.86665116051776,-76.1454054903231" stroke="#0d6d4d" stroke-width="0.1" fill="none" />
<path d="M153.84152592215844,190.6771745698521 L243.2559648811692,-29.181082052099775" stroke="#0d6d4d" stroke-width="0.1" fill="none" />
<path d="M152.04932304771853,192.10935261129407 L244.26929397988906,18.90798822102832" stroke="#0d6d4d" stroke-width="0.1" fill="none" />
<path d="M150.24378815151493,193.52468607876023 L235.86758100519327,66.26827469278642" stroke="#0d6d4d" stroke-width="0.1" fill="none" />
<path d="M148.42507954685044,194.9230508726742 L218.37465905070033,111.07433675017094" stroke="#0d6d4d" stroke-width="0.1" fill="none" />
<path d="M146.59335670212772,196.3043243813104 L192.46477002993592,151.59918303646586" stroke="#0d6d4d" stroke-width="0.1" fill="none" />
<path d="M144.7487802268673,197.66838549154508 L159.13657689915382,186.2808360857866" stroke="#0d6d4d" stroke-width="0.1" fill="none" />
<path d="M142.89151185762415,199.01511459947574 L119.67467149322908,213.78253671193" stroke="#0d6d4d" stroke-width="0.1" fill="none" />
<path d="M141.02171444380673,200.34439362090828 L75.60006160499755,233.0442676517073" stroke="#0d6d4d" stroke-width="0.1" fill="none" />
<path d="M139.139551933398,201.65610600171084 L28.611545719140008,243.32361055097294" stroke="#0d6d4d" stroke-width="0.1" fill="none" />
<path d="M137.24518935857984,202.95013672803367 L-19.479764964795322,244.22436151399052" stroke="#0d6d4d" stroke-width="0.1" fill="none" />
<path d="M135.33879282126313,204.22637233639347 L-66.82025345681458,235.7118022670207" stroke="#0d6d4d" stroke-width="0.1" fill="none" />
<path d="M133.42052947852284,205.4847009236226 L-111.58524223128012,218.11403832900473" stroke="#0d6d4d" stroke-width="0.1" fill="none" />
<path d="M131.49056752794212,206.7250121566805 L-152.0493230477186,192.10935261129404" stroke="#0d6d4d" stroke-width="0.1" fill="none" />
<path d="M129.54907619286377,207.94719728232832 L-186.65286056620772,158.7000618854694" stroke="#0d6d4d" stroke-width="0.1" fill="none" />
<path d="M127.59622570755276,209.15114913666446 L-214.06210646203033,119.1738837876755" stroke="#0d6d4d" stroke-width="0.1" fill="none" />
<path d="M125.6321873022694,210.3367621545209 L-233.22060701926785,75.05430341802014" stroke="#0d6d4d" stroke-width="0.1" fill="none" />
<path d="M123.65713318825557,211.5039323787197 L-243.38992276453837,28.041852589870768" stroke="#0d6d4d" stroke-width="0.1" fill="none" />
<path d="M121.67123654263517,212.65255746918754 L-244.17809065557972,-20.051434956019676" stroke="#0d6d4d" stroke-width="0.1" fill="none" />
<path d="M119.67467149322908,213.78253671193 L-235.55473178665977,-67.37186603408563" stroke="#0d6d4d" stroke-width="0.1" fill="none" />
<path d="M117.66761310328745,214.8937710278617 L-217.85222230396624,-112.09553620561019" stroke="#0d6d4d" stroke-width="0.1" fill="none" />
<path d="M115.65023735614,215.98616298149398 L-191.75288239956706,-152.4986298019028" stroke="#0d6d4d" stroke-width="0.1" fill="none" />
<path d="M113.6227211397652,217.05961678947827 L-158.26267716749655,-187.02386215608095" stroke="#0d6d4d" stroke-width="0.1" fill="none" />
<path d="M111.58524223128016,218.1140383290047 L-118.67244298825113,-214.3405031140878" stroke="#0d6d4d" stroke-width="0.1" fill="none" />
<path d="M109.5379792813529,219.1493351460549 L-74.50813392024183,-233.39566829682875" stroke="#0d6d4d" stroke-width="0.1" fill="none" />
<path d="M107.48111179853817,220.16541646350848 L-27.472005786310906,-243.45490115846283" stroke="#0d6d4d" stroke-width="0.1" fill="none" />
<path d="M105.41482013353723,221.1621931891027 L20.62299506184918,-244.13048165822912" stroke="#0d6d4d" stroke-width="0.1" fill="none" />
<path d="M103.33928546338444,222.1395779232443 L67.92310940166581,-235.39637042488428" stroke="#0d6d4d" stroke-width="0.1" fill="none" />
<path d="M101.25468977556174,223.09748496667268 L112.60521587666034,-217.5892124103829" stroke="#0d6d4d" stroke-width="0.1" fill="none" />
<path d="M99.1612158520407,224.0358303279745 L152.94710083673903,-191.395361348274" stroke="#0d6d4d" stroke-width="0.1" fill="none" />
<path d="M97.05904725325674,224.95453173094796 L187.39383882225206,-157.82442514218076" stroke="#0d6d4d" stroke-width="0.1" fill="none" />
<path d="M94.94836830201334,225.85350862181713 L214.6177251424402,-118.17035184293897" stroke="#0d6d4d" stroke-width="0.1" fill="none" />
<path d="M92.82936406732058,226.7326821762951 L233.5694505250232,-73.96155610476794" stroke="#0d6d4d" stroke-width="0.1" fill="none" />
<path d="M90.70222034816805,227.5919753064953 L243.51854537665326,-26.902008431320912" stroke="#0d6d4d" stroke-width="0.1" fill="none" />
<path d="M88.56712365723342,228.43131266769083 L244.0815347828444,21.194442150033748" stroke="#0d6d4d" stroke-width="0.1" fill="none" />
<path d="M86.42426120452826,229.25062066492092 L235.23671904954244,68.47398053864435" stroke="#0d6d4d" stroke-width="0.1" fill="none" />
<path d="M84.27382088098346,230.04982745944392 L217.32501008959514,113.11427845129624" stroke="#0d6d4d" stroke-width="0.1" fill="none" />
<path d="M82.11599124197464,230.82886297503597 L191.0367914166936,153.39473369452645" stroke="#0d6d4d" stroke-width="0.1" fill="none" />
<path d="M79.95096149078874,231.58765890413594 L157.38530821122018,187.7627885371839" stroke="#0d6d4d" stroke-width="0.1" fill="none" />
<path d="M77.77892146203446,232.32614871383433 L117.66761310328745,214.8937710278617" stroke="#0d6d4d" stroke-width="0.1" fill="none" />
<path d="M75.60006160499755,233.0442676517073 L73.41457296694101,233.7419527514941" stroke="#0d6d4d" stroke-width="0.1" fill="none" />
<path d="M73.41457296694101,233.7419527514941 L26.331863648587092,243.58085507032817" stroke="#0d6d4d" stroke-width="0.1" fill="none" />
<path d="M71.22264717635416,234.4191428386184 L-21.765773088942684,244.031250297663" stroke="#0d6d4d" stroke-width="0.1" fill="none" />
<path d="M69.02447642615026,235.07577853555185 L-69.02447642615022,235.07577853555188" stroke="#0d6d4d" stroke-width="0.1" fill="none" />
<path d="M66.82025345681453,235.7118022670207 L-113.62272113976526,217.05961678947824" stroke="#0d6d4d" stroke-width="0.1" fill="none" />
<path d="M64.61017153950385,236.327158265054 L-153.84152592215838,190.67717456985216" stroke="#0d6d4d" stroke-width="0.1" fill="none" />
<path d="M62.39442445910105,236.9217925738735 L-188.130709278967,156.94532878105295" stroke="#0d6d4d" stroke-width="0.1" fill="none" />
<path d="M60.173206497222736,237.49565305462454 L-215.1686392575723,117.16422952439329" stroke="#0d6d4d" stroke-width="0.1" fill="none" />
<path d="M57.94671241518449,238.04868938994792 L-233.91317403089886,72.86718750432473" stroke="#0d6d4d" stroke-width="0.1" fill="none" />
<path d="M55.71513743692416,238.58085308839154 L-243.64182989801944,25.761574562602917" stroke="#0d6d4d" stroke-width="0.1" fill="none" />
<path d="M53.478677231883516,239.09209748866235 L-243.97962847825286,-22.336984747581855" stroke="#0d6d4d" stroke-width="0.1" fill="none" />
<path d="M51.23752789785184,239.58237776371794 L-234.91354976489492,-69.57459404736932" stroke="#0d6d4d" stroke-width="0.1" fill="none" />
<path d="M48.99188594377195,240.0516509246967 L-216.79303396443424,-114.13054115571195" stroke="#0d6d4d" stroke-width="0.1" fill="none" />
<path d="M46.741948272509134,240.49987582468745 L-190.31651277851327,-154.28747507113465" stroke="#0d6d4d" stroke-width="0.1" fill="none" />
<path d="M44.48791216358702,240.92701316233712 L-156.5044892628439,-188.49759903133085" stroke="#0d6d4d" stroke-width="0.1" fill="none" />
<path d="M42.2299752558893,241.33302548529693 L-116.66020386488727,-215.44232832524565" stroke="#0d6d4d" stroke-width="0.1" fill="none" />
<path d="M39.96833553033018,241.7178771935062 L-72.31940271668824,-234.08311342491464" stroke="#0d6d4d" stroke-width="0.1" fill="none" />
<path d="M37.70319129249511,242.0815345423139 L-25.191144298653615,-243.70146952557428" stroke="#0d6d4d" stroke-width="0.1" fill="none" />
<path d="M35.434741155253306,242.42396564543736 L22.908073995610735,-243.92666960751055" stroke="#0d6d4d" stroke-width="0.1" fill="none" />
<path d="M33.16318402134221,242.74514047775827 L70.1243303875599,-234.75003362661388" stroke="#0d6d4d" stroke-width="0.1" fill="none" />
<path d="M30.888719065927653,243.0450308779552 L114.63773571619315,-216.525263075384" stroke="#0d6d4d" stroke-width="0.1" fill="none" />
<path d="M28.611545719140008,243.32361055097294 L154.7325786975756,-189.95480801916696" stroke="#0d6d4d" stroke-width="0.1" fill="none" />
<path d="M26.331863648587092,243.58085507032817 L188.8634557836552,-156.06279207247098" stroke="#0d6d4d" stroke-width="0.1" fill="none" />
<path d="M24.049872741847178,243.81674188025104 L215.71483673101758,-116.15553888691844" stroke="#0d6d4d" stroke-width="0.1" fill="none" />
<path d="M21.765773088942744,244.031250297663 L234.25177000224377,-71.77122160598825" stroke="#0d6d4d" stroke-width="0.1" fill="none" />
<path d="M19.479764964795383,244.22436151399052 L243.75977362615708,-24.620575982796453" stroke="#0d6d4d" stroke-width="0.1" fill="none" />
<path d="M17.192048811666094,244.39605859681387 L243.87237397566008,23.479037703359765" stroke="#0d6d4d" stroke-width="0.1" fill="none" />
<path d="M14.902825221579219,244.54632649135226 L234.58523101680592,70.67368243407016" stroke="#0d6d4d" stroke-width="0.1" fill="none" />
<path d="M12.61229491873506,244.67515202178348 L216.2563055897591,115.14430204169342" stroke="#0d6d4d" stroke-width="0.1" fill="none" />
<path d="M10.320658741908515,244.78252389239938 L189.59206227401916,155.17683436223473" stroke="#0d6d4d" stroke-width="0.1" fill="none" />
<path d="M8.028117626840952,244.86843268859627 L155.62023963051283,189.22827753098048" stroke="#0d6d4d" stroke-width="0.1" fill="none" />
<path d="M5.734872588620392,244.93287087770048 L115.65023735614,215.98616298149398" stroke="#0d6d4d" stroke-width="0.1" fill="none" />
<path d="M3.441124704055868,244.97583280962866 L71.22264717635416,234.4191428386184" stroke="#0d6d4d" stroke-width="0.1" fill="none" />
<path d="M1.1470750940478471,244.9973147173834 L24.049872741847178,243.81674188025104" stroke="#0d6d4d" stroke-width="0.1" fill="none" />
<path d="M-1.1470750940477872,244.9973147173834 L-24.049872741847118,243.81674188025104" stroke="#0d6d4d" stroke-width="0.1" fill="none" />
<path d="M-3.4411247040558077,244.97583280962866 L-71.2226471763541,234.4191428386184" stroke="#0d6d4d" stroke-width="0.1" fill="none" />
<path d="M-5.734872588620332,244.93287087770048 L-115.65023735613995,215.986162981494" stroke="#0d6d4d" stroke-width="0.1" fill="none" />
<path d="M-8.02811762684089,244.86843268859627 L-155.62023963051286,189.22827753098042" stroke="#0d6d4d" stroke-width="0.1" fill="none" />
<path d="M-10.320658741908455,244.78252389239938 L-189.59206227401918,155.17683436223473" stroke="#0d6d4d" stroke-width="0.1" fill="none" />
<path d="M-12.612294918734781,244.67515202178348 L-216.25630558975914,115.14430204169336" stroke="#0d6d4d" stroke-width="0.1" fill="none" />
<path d="M-14.902825221579157,244.54632649135226 L-234.5852310168059,70.6736824340703" stroke="#0d6d4d" stroke-width="0.1" fill="none" />
<path d="M-17.192048811666034,244.39605859681387 L-243.87237397566008,23.47903770335966" stroke="#0d6d4d" stroke-width="0.1" fill="none" />
<path d="M-19.479764964795322,244.22436151399052 L-243.75977362615708,-24.62057598279629" stroke="#0d6d4d" stroke-width="0.1" fill="none" />
<path d="M-21.765773088942684,244.031250297663 L-234.25177000224375,-71.77122160598836" stroke="#0d6d4d" stroke-width="0.1" fill="none" />
<path d="M-24.049872741847118,243.81674188025104 L-215.71483673101764,-116.15553888691834" stroke="#0d6d4d" stroke-width="0.1" fill="none" />
<path d="M-26.33186364858703,243.58085507032817 L-188.86345578365516,-156.06279207247104" stroke="#0d6d4d" stroke-width="0.1" fill="none" />
<path d="M-28.611545719139844,243.32361055097297 L-154.73257869757566,-189.9548080191669" stroke="#0d6d4d" stroke-width="0.1" fill="none" />
<path d="M-30.8887190659276,243.0450308779552 L-114.63773571619318,-216.52526307538398" stroke="#0d6d4d" stroke-width="0.1" fill="none" />
<path d="M-33.16318402134205,242.7451404777583 L-70.12433038755995,-234.75003362661386" stroke="#0d6d4d" stroke-width="0.1" fill="none" />
<path d="M-35.434741155253256,242.4239656454374 L-22.908073995610774,-243.92666960751055" stroke="#0d6d4d" stroke-width="0.1" fill="none" />
<path d="M-37.70319129249506,242.0815345423139 L25.1911442986533,-243.7014695255743" stroke="#0d6d4d" stroke-width="0.1" fill="none" />
<path d="M-39.96833553033012,241.7178771935062 L72.31940271668815,-234.0831134249147" stroke="#0d6d4d" stroke-width="0.1" fill="none" />
<path d="M-42.22997525588935,241.3330254852969 L116.66020386488715,-215.4423283252457" stroke="#0d6d4d" stroke-width="0.1" fill="none" />
<path d="M-44.48791216358707,240.92701316233712 L156.50448926284378,-188.49759903133096" stroke="#0d6d4d" stroke-width="0.1" fill="none" />
<path d="M-46.74194827250919,240.49987582468745 L190.31651277851316,-154.28747507113476" stroke="#0d6d4d" stroke-width="0.1" fill="none" />
<path d="M-48.99188594377179,240.05165092469676 L216.79303396443427,-114.1305411557119" stroke="#0d6d4d" stroke-width="0.1" fill="none" />
<path d="M-51.237527897851784,239.58237776371794 L234.91354976489492,-69.57459404736927" stroke="#0d6d4d" stroke-width="0.1" fill="none" />
<path d="M-53.47867723188336,239.09209748866238 L243.97962847825286,-22.336984747581806" stroke="#0d6d4d" stroke-width="0.1" fill="none" />
<path d="M-55.7151374369241,238.58085308839154 L243.64182989801944,25.761574562602913" stroke="#0d6d4d" stroke-width="0.1" fill="none" />
<path d="M-57.946712415184436,238.04868938994792 L233.91317403089886,72.86718750432473" stroke="#0d6d4d" stroke-width="0.1" fill="none" />
<path d="M-60.17320649722268,237.49565305462457 L215.16863925757232,117.16422952439325" stroke="#0d6d4d" stroke-width="0.1" fill="none" />
<path d="M-62.39442445910111,236.92179257387346 L188.13070927896703,156.94532878105286" stroke="#0d6d4d" stroke-width="0.1" fill="none" />
<path d="M-64.6101715395038,236.327158265054 L153.84152592215844,190.6771745698521" stroke="#0d6d4d" stroke-width="0.1" fill="none" />
<path d="M-66.82025345681458,235.7118022670207 L113.6227211397652,217.05961678947827" stroke="#0d6d4d" stroke-width="0.1" fill="none" />
<path d="M-69.02447642615022,235.07577853555188 L69.02447642615026,235.07577853555185" stroke="#0d6d4d" stroke-width="0.1" fill="none" />
<path d="M-71.2226471763541,234.4191428386184 L21.765773088942744,244.031250297663" stroke="#0d6d4d" stroke-width="0.1" fill="none" />
<path d="M-73.41457296694085,233.74195275149415 L-26.33186364858703,243.58085507032817" stroke="#0d6d4d" stroke-width="0.1" fill="none" />
<path d="M-75.60006160499749,233.0442676517073 L-73.41457296694085,233.74195275149415" stroke="#0d6d4d" stroke-width="0.1" fill="none" />
<path d="M-77.77892146203442,232.32614871383436 L-117.66761310328741,214.89377102786173" stroke="#0d6d4d" stroke-width="0.1" fill="none" />
<path d="M-79.95096149078869,231.58765890413596 L-157.38530821122012,187.76278853718392" stroke="#0d6d4d" stroke-width="0.1" fill="none" />
<path d="M-82.11599124197448,230.82886297503603 L-191.03679141669363,153.39473369452642" stroke="#0d6d4d" stroke-width="0.1" fill="none" />
<path d="M-84.27382088098341,230.04982745944392 L-217.32501008959508,113.1142784512963" stroke="#0d6d4d" stroke-width="0.1" fill="none" />
<path d="M-86.42426120452822,229.25062066492094 L-235.23671904954242,68.47398053864441" stroke="#0d6d4d" stroke-width="0.1" fill="none" />
<path d="M-88.56712365723337,228.43131266769083 L-244.08153478284436,21.194442150033808" stroke="#0d6d4d" stroke-width="0.1" fill="none" />
<path d="M-90.70222034816811,227.59197530649527 L-243.5185453766533,-26.902008431320805" stroke="#0d6d4d" stroke-width="0.1" fill="none" />
<path d="M-92.82936406732053,226.73268217629513 L-233.56945052502323,-73.96155610476788" stroke="#0d6d4d" stroke-width="0.1" fill="none" />
<path d="M-94.94836830201328,225.85350862181716 L-214.61772514244024,-118.1703518429389" stroke="#0d6d4d" stroke-width="0.1" fill="none" />
<path d="M-97.05904725325658,224.95453173094805 L-187.3938388222521,-157.8244251421807" stroke="#0d6d4d" stroke-width="0.1" fill="none" />
<path d="M-99.16121585204075,224.0358303279745 L-152.94710083673905,-191.39536134827398" stroke="#0d6d4d" stroke-width="0.1" fill="none" />
<path d="M-101.2546897755616,223.09748496667277 L-112.60521587666034,-217.5892124103829" stroke="#0d6d4d" stroke-width="0.1" fill="none" />
<path d="M-103.33928546338441,222.13957792324433 L-67.9231094016658,-235.39637042488428" stroke="#0d6d4d" stroke-width="0.1" fill="none" />
<path d="M-105.41482013353708,221.1621931891028 L-20.622995061849156,-244.13048165822912" stroke="#0d6d4d" stroke-width="0.1" fill="none" />
<path d="M-107.48111179853814,220.1654164635085 L27.472005786310742,-243.45490115846283" stroke="#0d6d4d" stroke-width="0.1" fill="none" />
<path d="M-109.53797928135293,219.14933514605488 L74.50813392024189,-233.39566829682872" stroke="#0d6d4d" stroke-width="0.1" fill="none" />
<path d="M-111.58524223128012,218.11403832900473 L118.67244298825096,-214.34050311408788" stroke="#0d6d4d" stroke-width="0.1" fill="none" />
<path d="M-113.62272113976526,217.05961678947824 L158.26267716749655,-187.02386215608095" stroke="#0d6d4d" stroke-width="0.1" fill="none" />
<path d="M-115.65023735613995,215.986162981494 L191.7528823995669,-152.498629801903" stroke="#0d6d4d" stroke-width="0.1" fill="none" />
<path d="M-117.66761310328741,214.89377102786173 L217.85222230396624,-112.09553620561019" stroke="#0d6d4d" stroke-width="0.1" fill="none" />
<path d="M-119.67467149322893,213.78253671193008 L235.55473178665977,-67.37186603408563" stroke="#0d6d4d" stroke-width="0.1" fill="none" />
<path d="M-121.67123654263513,212.6525574691876 L244.17809065557972,-20.051434956019733" stroke="#0d6d4d" stroke-width="0.1" fill="none" />
<path d="M-123.65713318825551,211.5039323787197 L243.38992276453837,28.04185258987071" stroke="#0d6d4d" stroke-width="0.1" fill="none" />
<path d="M-125.63218730226937,210.33676215452093 L233.22060701926787,75.05430341802008" stroke="#0d6d4d" stroke-width="0.1" fill="none" />
<path d="M-127.59622570755263,209.15114913666451 L214.06210646203027,119.17388378767563" stroke="#0d6d4d" stroke-width="0.1" fill="none" />
<path d="M-129.5490761928638,207.9471972823283 L186.65286056620778,158.70006188546935" stroke="#0d6d4d" stroke-width="0.1" fill="none" />
<path d="M-131.49056752794218,206.72501215668046 L152.04932304771853,192.10935261129407" stroke="#0d6d4d" stroke-width="0.1" fill="none" />
<path d="M-133.42052947852278,205.48470092362263 L111.58524223128016,218.1140383290047" stroke="#0d6d4d" stroke-width="0.1" fill="none" />
<path d="M-135.33879282126307,204.2263723363935 L66.82025345681453,235.7118022670207" stroke="#0d6d4d" stroke-width="0.1" fill="none" />
<path d="M-137.2451893585798,202.9501367280337 L19.479764964795383,244.22436151399052" stroke="#0d6d4d" stroke-width="0.1" fill="none" />
<path d="M-139.13955193339794,201.65610600171087 L-28.611545719139844,243.32361055097297" stroke="#0d6d4d" stroke-width="0.1" fill="none" />
<path d="M-141.02171444380667,200.3443936209083 L-75.60006160499749,233.0442676517073" stroke="#0d6d4d" stroke-width="0.1" fill="none" />
<path d="M-142.89151185762412,199.01511459947577 L-119.67467149322893,213.78253671193008" stroke="#0d6d4d" stroke-width="0.1" fill="none" />
<path d="M-144.74878022686718,197.66838549154517 L-159.1365768991538,186.28083608578663" stroke="#0d6d4d" stroke-width="0.1" fill="none" />
<path d="M-146.5933567021277,196.30432438131044 L-192.4647700299358,151.59918303646603" stroke="#0d6d4d" stroke-width="0.1" fill="none" />
<path d="M-148.4250795468503,194.92305087267428 L-218.3746590507003,111.074336750171" stroke="#0d6d4d" stroke-width="0.1" fill="none" />
<path d="M-150.24378815151488,193.52468607876028 L-235.86758100519324,66.26827469278652" stroke="#0d6d4d" stroke-width="0.1" fill="none" />
<path d="M-152.0493230477186,192.10935261129404 L-244.26929397988906,18.907988221028376" stroke="#0d6d4d" stroke-width="0.1" fill="none" />
<path d="M-153.84152592215838,190.67717456985216 L-243.2559648811692,-29.18108205209977" stroke="#0d6d4d" stroke-width="0.1" fill="none" />
<path d="M-155.62023963051286,189.22827753098042 L-232.86665116051776,-76.1454054903231" stroke="#0d6d4d" stroke-width="0.1" fill="none" />
<path d="M-157.38530821122012,187.76278853718392 L-213.50179539587867,-120.17480336050632" stroke="#0d6d4d" stroke-width="0.1" fill="none" />
<path d="M-159.1365768991538,186.28083608578663 L-185.90779075357725,-159.57221981637073" stroke="#0d6d4d" stroke-width="0.1" fill="none" />
<path d="M-160.87389213919215,184.78255011766552 L-151.14821223499177,-192.81913270774217" stroke="#0d6d4d" stroke-width="0.1" fill="none" />
<path d="M-162.59710159968338,183.26806200585588 L-110.56282256213468,-218.6340830408057" stroke="#0d6d4d" stroke-width="0.1" fill="none" />
<path d="M-164.30605418580112,181.73750454403347 L-65.71593276694256,-236.0220671474824" stroke="#0d6d4d" stroke-width="0.1" fill="none" />
<path d="M-166.00060005279371,180.1910119348699 L-18.336107858156076,-244.31288780703744" stroke="#0d6d4d" stroke-width="0.1" fill="none" />
<path d="M-167.68059061912237,178.62871977826606 L29.750458467590775,-243.18698612583725" stroke="#0d6d4d" stroke-width="0.1" fill="none" />
<path d="M-169.34587857948935,177.0507650594621 L76.6903320854164,-232.68775851906895" stroke="#0d6d4d" stroke-width="0.1" fill="none" />
<path d="M-170.9963179177542,175.45728613702633 L120.67427664869678,-213.21988405238804" stroke="#0d6d4d" stroke-width="0.1" fill="none" />
<path d="M-172.6317639197363,173.84842273072377 L160.00698824972025,-185.53372661393368" stroke="#0d6d4d" stroke-width="0.1" fill="none" />
<path d="M-174.25207318590427,172.22431590926487 L193.17243870274342,-150.69641311469508" stroke="#0d6d4d" stroke-width="0.1" fill="none" />
<path d="M-175.85710364394896,170.58510807793684 L218.89230887763154,-110.05070247035933" stroke="#0d6d4d" stroke-width="0.1" fill="none" />
<path d="M-177.44671456124146,168.93094296611648 L236.175259847277,-65.16323070621338" stroke="#0d6d4d" stroke-width="0.1" fill="none" />
<path d="M-179.0207665571719,167.26196561466853 L244.35514275653392,-17.764127010183255" stroke="#0d6d4d" stroke-width="0.1" fill="none" />
<path d="M-180.57912161537152,165.5783223632275 L243.11667466299286,30.31967184532992" stroke="#0d6d4d" stroke-width="0.1" fill="none" />
<path d="M-182.12164309581343,163.88016083736665 L232.50759070772403,77.23483840398367" stroke="#0d6d4d" stroke-width="0.1" fill="none" />
<path d="M-183.6481957467944,162.16762993565357 L212.93680422638192,121.17308862059885" stroke="#0d6d4d" stroke-width="0.1" fill="none" />
<path d="M-185.1586457167933,160.4408798165948 L185.1586457167933,160.44087981659482" stroke="#0d6d4d" stroke-width="0.1" fill="none" />
<path d="M-186.65286056620772,158.7000618854694 L150.24378815151493,193.52468607876023" stroke="#0d6d4d" stroke-width="0.1" fill="none" />
<path d="M-188.130709278967,156.94532878105295 L109.5379792813529,219.1493351460549" stroke="#0d6d4d" stroke-width="0.1" fill="none" />
<path d="M-189.59206227401918,155.17683436223473 L64.61017153950385,236.327158265054" stroke="#0d6d4d" stroke-width="0.1" fill="none" />
<path d="M-191.03679141669363,153.39473369452642 L17.192048811666094,244.39605859681387" stroke="#0d6d4d" stroke-width="0.1" fill="none" />
<path d="M-192.4647700299358,151.59918303646603 L-30.8887190659276,243.0450308779552" stroke="#0d6d4d" stroke-width="0.1" fill="none" />
<path d="M-193.87587290541506,149.79033982591582 L-77.77892146203442,232.32614871383436" stroke="#0d6d4d" stroke-width="0.1" fill="none" />
<path d="M-195.26997631450234,147.96836266625948 L-121.67123654263513,212.6525574691876" stroke="#0d6d4d" stroke-width="0.1" fill="none" />
<path d="M-196.64695801912006,146.1334113124936 L-160.87389213919215,184.78255011766552" stroke="#0d6d4d" stroke-width="0.1" fill="none" />
<path d="M-198.00669728245924,144.2856466572214 L-193.87587290541506,149.79033982591582" stroke="#0d6d4d" stroke-width="0.1" fill="none" />
<path d="M-199.34907487956647,142.42523071654475 L-219.40516043752658,109.02465580492894" stroke="#0d6d4d" stroke-width="0.1" fill="none" />
<path d="M-200.67397310779776,140.5523266158581 L-236.47776156838333,64.05675829767564" stroke="#0d6d4d" stroke-width="0.1" fill="none" />
<path d="M-201.98127579713886,138.6670985755458 L-244.43563510365132,16.61987639769374" stroke="#0d6d4d" stroke-width="0.1" fill="none" />
<path d="M-203.27086832039163,136.76971189658187 L-242.97205516334486,-31.45759701090504" stroke="#0d6d4d" stroke-width="0.1" fill="none" />
<path d="M-204.54263760322416,134.86033294603754 L-232.14343353173402,-78.32257827789755" stroke="#0d6d4d" stroke-width="0.1" fill="none" />
<path d="M-205.79647213408634,132.93912914249225 L-212.36714533852734,-122.16871768486727" stroke="#0d6d4d" stroke-width="0.1" fill="none" />
<path d="M-207.0322619739863,131.00626894135527 L-184.40544187762035,-161.3060228445286" stroke="#0d6d4d" stroke-width="0.1" fill="none" />
<path d="M-208.249898766131,129.06192182009454 L-149.33607062287447,-194.22599725814217" stroke="#0d6d4d" stroke-width="0.1" fill="none" />
<path d="M-209.4492757454266,127.10625826337679 L-108.51073485419057,-219.65978335007878" stroke="#0d6d4d" stroke-width="0.1" fill="none" />
<path d="M-210.6302877478407,125.13944974811834 L-63.50299401353081,-236.62706893193237" stroke="#0d6d4d" stroke-width="0.1" fill="none" />
<path d="M-211.79283121962206,123.16166872845092 L-16.04761290387132,-244.47387206016003" stroke="#0d6d4d" stroke-width="0.1" fill="none" />
<path d="M-212.9368042263818,121.17308862059902 L32.02630256271058,-242.89774791908164" stroke="#0d6d4d" stroke-width="0.1" fill="none" />
<path d="M-214.06210646203033,119.1738837876755 L78.8658058722383,-231.95944616273428" stroke="#0d6d4d" stroke-width="0.1" fill="none" />
<path d="M-215.1686392575723,117.16422952439329 L122.66552932101081,-212.08056939851005" stroke="#0d6d4d" stroke-width="0.1" fill="none" />
<path d="M-216.25630558975914,115.14430204169336 L161.73726956445176,-184.02732306327738" stroke="#0d6d4d" stroke-width="0.1" fill="none" />
<path d="M-217.32501008959508,113.1142784512963 L194.5750572181986,-148.8809830318659" stroke="#0d6d4d" stroke-width="0.1" fill="none" />
<path d="M-218.3746590507003,111.074336750171 L219.9132024883333,-107.99621924551487" stroke="#0d6d4d" stroke-width="0.1" fill="none" />
<path d="M-219.40516043752658,109.02465580492894 L236.77507953747048,-62.9488817217949" stroke="#0d6d4d" stroke-width="0.1" fill="none" />
<path d="M-220.41642389342744,106.96541533613986 L244.51076925679473,-15.475261466304465" stroke="#0d6d4d" stroke-width="0.1" fill="none" />
<path d="M-221.40836074858092,104.89679590257397 L242.82210955238222,32.59483260473785" stroke="#0d6d4d" stroke-width="0.1" fill="none" />
<path d="M-222.38088402776438,102.81897888536926 L231.77418761511848,79.4086012680734" stroke="#0d6d4d" stroke-width="0.1" fill="none" />
<path d="M-223.33390845798033,100.73214647212909 L211.79283121962223,123.16166872845065" stroke="#0d6d4d" stroke-width="0.1" fill="none" />
<path d="M-224.26735047593385,98.63648164094589 L183.64819574679447,162.1676299356535" stroke="#0d6d4d" stroke-width="0.1" fill="none" />
<path d="M-225.18112823535913,96.53216814435872 L148.42507954685044,194.9230508726742" stroke="#0d6d4d" stroke-width="0.1" fill="none" />
<path d="M-226.07516161419625,94.41939049324057 L107.48111179853817,220.16541646350848" stroke="#0d6d4d" stroke-width="0.1" fill="none" />
<path d="M-226.9493722216163,92.29833394062027 L62.39442445910105,236.9217925738735" stroke="#0d6d4d" stroke-width="0.1" fill="none" />
<path d="M-227.80368340489488,90.1691844654393 L14.902825221579219,244.54632649135226" stroke="#0d6d4d" stroke-width="0.1" fill="none" />
<path d="M-228.63802025613344,88.03212875624394 L-33.16318402134205,242.7451404777583" stroke="#0d6d4d" stroke-width="0.1" fill="none" />
<path d="M-229.4523096188269,85.88735419481735 L-79.95096149078869,231.58765890413596" stroke="#0d6d4d" stroke-width="0.1" fill="none" />
<path d="M-230.24648009427855,83.73504883974802 L-123.65713318825551,211.5039323787197" stroke="#0d6d4d" stroke-width="0.1" fill="none" />
<path d="M-231.02046204786035,81.57540140994172 L-162.59710159968338,183.26806200585588" stroke="#0d6d4d" stroke-width="0.1" fill="none" />
<path d="M-231.77418761511848,79.4086012680734 L-195.26997631450234,147.96836266625948" stroke="#0d6d4d" stroke-width="0.1" fill="none" />
<path d="M-232.507590707724,77.23483840398382 L-220.41642389342744,106.96541533613986" stroke="#0d6d4d" stroke-width="0.1" fill="none" />
<path d="M-233.22060701926785,75.05430341802014 L-237.06720723712803,61.8396252639728" stroke="#0d6d4d" stroke-width="0.1" fill="none" />
<path d="M-233.91317403089886,72.86718750432473 L-244.58054356897276,14.330307306747278" stroke="#0d6d4d" stroke-width="0.1" fill="none" />
<path d="M-234.5852310168059,70.6736824340703 L-242.66684111701386,-33.73135369785737" stroke="#0d6d4d" stroke-width="0.1" fill="none" />
<path d="M-235.23671904954242,68.47398053864441 L-231.39986105199705,-80.49288356815443" stroke="#0d6d4d" stroke-width="0.1" fill="none" />
<path d="M-235.86758100519324,66.26827469278652 L-211.2138744590191,-124.15191998519282" stroke="#0d6d4d" stroke-width="0.1" fill="none" />
<path d="M-236.47776156838333,64.05675829767564 L-182.88692392366158,-163.02568220296095" stroke="#0d6d4d" stroke-width="0.1" fill="none" />
<path d="M-237.06720723712803,61.8396252639728 L-147.51083489298173,-195.61583164247082" stroke="#0d6d4d" stroke-width="0.1" fill="none" />
<path d="M-237.63586632752433,59.61706999481775 L-106.44913268442767,-220.66622340252508" stroke="#0d6d4d" stroke-width="0.1" fill="none" />
<path d="M-238.18368897828216,57.389287368784665 L-61.284487176807104,-237.21132273033632" stroke="#0d6d4d" stroke-width="0.1" fill="none" />
<path d="M-238.71062715509711,55.156472722792934 L-13.757710859307323,-244.6134203021406" stroke="#0d6d4d" stroke-width="0.1" fill="none" />
<path d="M-239.21663465486137,52.918821834982104 L34.299338520614,-242.58721189924321" stroke="#0d6d4d" stroke-width="0.1" fill="none" />
<path d="M-239.70166710971552,50.676530907542634 L81.03436453034251,-231.21079508786687" stroke="#0d6d4d" stroke-width="0.1" fill="none" />
<path d="M-240.1656819909385,48.42979654951477 L124.64602640774385,-210.92265905008884" stroke="#0d6d4d" stroke-width="0.1" fill="none" />
<path d="M-240.6086386126767,46.17881575954865 L163.45336939678907,-182.5047835889153" stroke="#0d6d4d" stroke-width="0.1" fill="none" />
<path d="M-241.0304981355115,43.9237859086303 L195.96061496123124,-147.05249873435022" stroke="#0d6d4d" stroke-width="0.1" fill="none" />
<path d="M-241.43122356986453,41.66490472277704 L220.91481362185624,-105.93226667272114" stroke="#0d6d4d" stroke-width="0.1" fill="none" />
<path d="M-241.81077977924124,39.40237026569958 L237.3541382637199,-60.729013239858766" stroke="#0d6d4d" stroke-width="0.1" fill="none" />
<path d="M-242.16913348331167,37.136380921435745 L244.6449565106855,-13.1850390171891" stroke="#0d6d4d" stroke-width="0.1" fill="none" />
<path d="M-242.50625326082852,34.867135376954884 L242.50625326082854,34.86713537695483" stroke="#0d6d4d" stroke-width="0.1" fill="none" />
<path d="M-242.8221095523822,32.59483260473808 L231.02046204786038,81.57540140994168" stroke="#0d6d4d" stroke-width="0.1" fill="none" />
<path d="M-243.11667466299284,30.31967184533003 L210.63028774784073,125.13944974811825" stroke="#0d6d4d" stroke-width="0.1" fill="none" />
<path d="M-243.38992276453837,28.041852589870768 L182.12164309581348,163.8801608373666" stroke="#0d6d4d" stroke-width="0.1" fill="none" />
<path d="M-243.64182989801944,25.761574562602917 L146.59335670212772,196.3043243813104" stroke="#0d6d4d" stroke-width="0.1" fill="none" />
<path d="M-243.87237397566008,23.47903770335966 L105.41482013353723,221.1621931891027" stroke="#0d6d4d" stroke-width="0.1" fill="none" />
<path d="M-244.08153478284436,21.194442150033808 L60.173206497222736,237.49565305462454" stroke="#0d6d4d" stroke-width="0.1" fill="none" />
<path d="M-244.26929397988906,18.907988221028376 L12.61229491873506,244.67515202178348" stroke="#0d6d4d" stroke-width="0.1" fill="none" />
<path d="M-244.43563510365132,16.61987639769374 L-35.434741155253256,242.4239656454374" stroke="#0d6d4d" stroke-width="0.1" fill="none" />
<path d="M-244.58054356897276,14.330307306747278 L-82.11599124197448,230.82886297503603" stroke="#0d6d4d" stroke-width="0.1" fill="none" />
<path d="M-244.7040066699578,12.039481702683451 L-125.63218730226937,210.33676215452093" stroke="#0d6d4d" stroke-width="0.1" fill="none" />
<path d="M-244.806013581088,9.747600450170374 L-164.30605418580112,181.73750454403347" stroke="#0d6d4d" stroke-width="0.1" fill="none" />
<path d="M-244.8865553581712,7.454864506437972 L-196.64695801912006,146.1334113124936" stroke="#0d6d4d" stroke-width="0.1" fill="none" />
<path d="M-244.94562493912588,5.161474903656737 L-221.40836074858092,104.89679590257397" stroke="#0d6d4d" stroke-width="0.1" fill="none" />
<path d="M-244.98321714460013,2.867632731312088 L-237.63586632752433,59.61706999481775" stroke="#0d6d4d" stroke-width="0.1" fill="none" />
<path d="M-244.9993286784261,0.5735391185715337 L-244.7040066699578,12.039481702683451" stroke="#0d6d4d" stroke-width="0.1" fill="none" />
<path d="M-244.99395812790874,-1.72060478335057 L-242.3403495040204,-36.00215274492961" stroke="#0d6d4d" stroke-width="0.1" fill="none" />
<path d="M-244.96710596394988,-4.014597818830182 L-230.63599891939054,-82.65613106391379" stroke="#0d6d4d" stroke-width="0.1" fill="none" />
<path d="M-244.91877454100668,-6.308238845472215 L-210.04208387870145,-126.1242363699085" stroke="#0d6d4d" stroke-width="0.1" fill="none" />
<path d="M-244.84896809688559,-8.601326751745633 L-181.35237003872203,-164.73104710812237" stroke="#0d6d4d" stroke-width="0.1" fill="none" />
<path d="M-244.75769275237036,-10.893660474619084 L-145.67266508602918,-196.98851399696775" stroke="#0d6d4d" stroke-width="0.1" fill="none" />
<path d="M-244.6449565106855,-13.18503901718904 L-104.37819681869553,-221.65331495124917" stroke="#0d6d4d" stroke-width="0.1" fill="none" />
<path d="M-244.51076925679473,-15.475261466304516 L-59.06060678036971,-237.77477731402576" stroke="#0d6d4d" stroke-width="0.1" fill="none" />
<path d="M-244.35514275653392,-17.76412701018314 L-11.46660250815202,-244.73152029707992" stroke="#0d6d4d" stroke-width="0.1" fill="none" />
<path d="M-244.17809065557972,-20.051434956019676 L36.569367036468506,-242.25540529480872" stroke="#0d6d4d" stroke-width="0.1" fill="none" />
<path d="M-243.97962847825286,-22.336984747581855 L83.1958179156979,-230.44187093785288" stroke="#0d6d4d" stroke-width="0.1" fill="none" />
<path d="M-243.75977362615708,-24.62057598279629 L126.61559425452022,-209.74625453527105" stroke="#0d6d4d" stroke-width="0.1" fill="none" />
<path d="M-243.5185453766533,-26.902008431320805 L165.15513727529407,-180.96624169048428" stroke="#0d6d4d" stroke-width="0.1" fill="none" />
<path d="M-243.2559648811692,-29.18108205209977 L197.32899044306635,-145.21112054770538" stroke="#0d6d4d" stroke-width="0.1" fill="none" />
<path d="M-242.97205516334486,-31.45759701090504 L221.8970544547155,-103.85902572391589" stroke="#0d6d4d" stroke-width="0.1" fill="none" />
<path d="M-242.66684111701386,-33.73135369785737 L237.9123852528722,-58.50381990339531" stroke="#0d6d4d" stroke-width="0.1" fill="none" />
<path d="M-242.3403495040204,-36.00215274492961 L244.75769275237036,-10.893660474619198" stroke="#0d6d4d" stroke-width="0.1" fill="none" />
<path d="M-241.99260895187308,-38.269795043426114 L242.16913348331167,37.136380921435624" stroke="#0d6d4d" stroke-width="0.1" fill="none" />
<path d="M-241.62364995123443,-40.53408176144284 L230.2464800942786,83.73504883974793" stroke="#0d6d4d" stroke-width="0.1" fill="none" />
<path d="M-241.23350485324772,-42.794814361299835 L209.44927574542672,127.10625826337663" stroke="#0d6d4d" stroke-width="0.1" fill="none" />
<path d="M-240.82220786670013,-45.05179461695032 L180.57912161537155,165.57832236322741" stroke="#0d6d4d" stroke-width="0.1" fill="none" />
<path d="M-240.38979505502337,-47.30482463136137 L144.7487802268673,197.66838549154508" stroke="#0d6d4d" stroke-width="0.1" fill="none" />
<path d="M-239.9363043331316,-49.55370685386576 L103.33928546338444,222.1395779232443" stroke="#0d6d4d" stroke-width="0.1" fill="none" />
<path d="M-239.46177546409658,-51.7982440974845 L57.94671241518449,238.04868938994792" stroke="#0d6d4d" stroke-width="0.1" fill="none" />
<path d="M-238.96625005566185,-54.038239556215125 L10.320658741908515,244.78252389239938" stroke="#0d6d4d" stroke-width="0.1" fill="none" />
<path d="M-238.4497715565937,-56.27349682229 L-37.70319129249506,242.0815345423139" stroke="#0d6d4d" stroke-width="0.1" fill="none" />
<path d="M-237.9123852528722,-58.503819903395254 L-84.27382088098341,230.04982745944392" stroke="#0d6d4d" stroke-width="0.1" fill="none" />
<path d="M-237.3541382637199,-60.729013239858766 L-127.59622570755263,209.15114913666451" stroke="#0d6d4d" stroke-width="0.1" fill="none" />
<path d="M-236.77507953747053,-62.948881721794734 L-166.00060005279371,180.1910119348699" stroke="#0d6d4d" stroke-width="0.1" fill="none" />
<path d="M-236.17525984727703,-65.16323070621327 L-198.00669728245924,144.2856466572214" stroke="#0d6d4d" stroke-width="0.1" fill="none" />
<path d="M-235.55473178665977,-67.37186603408563 L-222.38088402776438,102.81897888536926" stroke="#0d6d4d" stroke-width="0.1" fill="none" />
<path d="M-234.91354976489492,-69.57459404736932 L-238.18368897828216,57.389287368784665" stroke="#0d6d4d" stroke-width="0.1" fill="none" />
<path d="M-234.25177000224375,-71.77122160598836 L-244.806013581088,9.747600450170374" stroke="#0d6d4d" stroke-width="0.1" fill="none" />
<path d="M-233.56945052502323,-73.96155610476788 L-241.99260895187308,-38.269795043426114" stroke="#0d6d4d" stroke-width="0.1" fill="none" />
<path d="M-232.86665116051776,-76.1454054903231 L-229.8519141110399,-84.81213108683887" stroke="#0d6d4d" stroke-width="0.1" fill="none" />
<path d="M-232.14343353173402,-78.32257827789755 L-208.8518763427707,-128.08549390194042" stroke="#0d6d4d" stroke-width="0.1" fill="none" />
<path d="M-231.39986105199705,-80.49288356815443 L-179.80191477588875,-166.42196802983688" stroke="#0d6d4d" stroke-width="0.1" fill="none" />
<path d="M-230.63599891939054,-82.65613106391379 L-143.82172237682127,-198.34392396180064" stroke="#0d6d4d" stroke-width="0.1" fill="none" />
<path d="M-229.8519141110399,-84.81213108683887 L-102.29810884124208,-222.62097144587565" stroke="#0d6d4d" stroke-width="0.1" fill="none" />
<path d="M-229.04767537723967,-86.96069459406728 L-56.831547818982706,-238.31738327805354" stroke="#0d6d4d" stroke-width="0.1" fill="none" />
<path d="M-228.22335323542498,-89.10163319478737 L-9.174488739865195,-244.82816168970857" stroke="#0d6d4d" stroke-width="0.1" fill="none" />
<path d="M-227.379019963989,-91.2347591667556 L38.83618906914081,-241.90235719931698" stroke="#0d6d4d" stroke-width="0.1" fill="none" />
<path d="M-226.51474959594503,-93.35988547275706 L85.34997650727927,-229.65274113366658" stroke="#0d6d4d" stroke-width="0.1" fill="none" />
<path d="M-225.63061791243507,-95.47682577700587 L128.5740601652642,-208.55145900381282" stroke="#0d6d4d" stroke-width="0.1" fill="none" />
<path d="M-224.72670243608542,-97.58539446148235 L166.84242398518595,-179.41183227074922" stroke="#0d6d4d" stroke-width="0.1" fill="none" />
<path d="M-223.80308242420924,-99.68540664220919 L198.6800636815078,-143.3570099280534" stroke="#0d6d4d" stroke-width="0.1" fill="none" />
<path d="M-222.85983886185704,-101.77667818546207 L222.85983886185699,-101.77667818546217" stroke="#0d6d4d" stroke-width="0.1" fill="none" />
<path d="M-221.89705445471552,-103.85902572391583 L238.44977155659373,-56.2734968222899" stroke="#0d6d4d" stroke-width="0.1" fill="none" />
<path d="M-220.91481362185635,-105.93226667272096 L244.84896809688559,-8.601326751745802" stroke="#0d6d4d" stroke-width="0.1" fill="none" />
<path d="M-219.9132024883333,-107.99621924551492 L241.81077977924124,39.40237026569962" stroke="#0d6d4d" stroke-width="0.1" fill="none" />
<path d="M-218.8923088776316,-110.05070247035923 L229.45230961882694,85.88735419481715" stroke="#0d6d4d" stroke-width="0.1" fill="none" />
<path d="M-217.85222230396624,-112.09553620561019 L208.24989876613097,129.06192182009457" stroke="#0d6d4d" stroke-width="0.1" fill="none" />
<path d="M-216.79303396443424,-114.13054115571195 L179.02076655717204,167.26196561466838" stroke="#0d6d4d" stroke-width="0.1" fill="none" />
<path d="M-215.71483673101764,-116.15553888691834 L142.89151185762415,199.01511459947574" stroke="#0d6d4d" stroke-width="0.1" fill="none" />
<path d="M-214.61772514244024,-118.1703518429389 L101.25468977556174,223.09748496667268" stroke="#0d6d4d" stroke-width="0.1" fill="none" />
<path d="M-213.50179539587867,-120.17480336050632 L55.71513743692416,238.58085308839154" stroke="#0d6d4d" stroke-width="0.1" fill="none" />
<path d="M-212.36714533852734,-122.16871768486727 L8.028117626840952,244.86843268859627" stroke="#0d6d4d" stroke-width="0.1" fill="none" />
<path d="M-211.2138744590191,-124.15191998519282 L-39.96833553033012,241.7178771935062" stroke="#0d6d4d" stroke-width="0.1" fill="none" />
<path d="M-210.04208387870145,-126.1242363699085 L-86.42426120452822,229.25062066492094" stroke="#0d6d4d" stroke-width="0.1" fill="none" />
<path d="M-208.8518763427707,-128.08549390194042 L-129.5490761928638,207.9471972823283" stroke="#0d6d4d" stroke-width="0.1" fill="none" />
<path d="M-207.6433562112623,-130.0355206138801 L-167.68059061912237,178.62871977826606" stroke="#0d6d4d" stroke-width="0.1" fill="none" />
<path d="M-206.416629449901,-131.97414552306165 L-199.34907487956647,142.42523071654475" stroke="#0d6d4d" stroke-width="0.1" fill="none" />
<path d="M-205.1718036208091,-133.90119864655486 L-223.33390845798033,100.73214647212909" stroke="#0d6d4d" stroke-width="0.1" fill="none" />
<path d="M-203.90898787307526,-135.8165110160692 L-238.71062715509711,55.156472722792934" stroke="#0d6d4d" stroke-width="0.1" fill="none" />
<path d="M-202.62829293318424,-137.71991469276938 L-244.8865553581712,7.454864506437972" stroke="#0d6d4d" stroke-width="0.1" fill="none" />
<path d="M-201.32983109530767,-139.61124278200123 L-241.62364995123443,-40.53408176144284" stroke="#0d6d4d" stroke-width="0.1" fill="none" />
<path d="M-200.0137162114586,-141.49032944792413 L-229.04767537723967,-86.96069459406728" stroke="#0d6d4d" stroke-width="0.1" fill="none" />
<path d="M-198.6800636815079,-143.3570099280533 L-207.6433562112623,-130.0355206138801" stroke="#0d6d4d" stroke-width="0.1" fill="none" />
<path d="M-197.3289904430664,-145.21112054770535 L-178.2356940825169,-168.09829670440877" stroke="#0d6d4d" stroke-width="0.1" fill="none" />
<path d="M-195.96061496123124,-147.05249873435025 L-141.95816906011817,-199.68194269161876" stroke="#0d6d4d" stroke-width="0.1" fill="none" />
<path d="M-194.5750572181987,-148.88098303186575 L-100.20905113879328,-223.56910804013756" stroke="#0d6d4d" stroke-width="0.1" fill="none" />
<path d="M-193.17243870274348,-150.696413114695 L-54.597505741477605,-238.83909304552577" stroke="#0d6d4d" stroke-width="0.1" fill="none" />
<path d="M-191.75288239956706,-152.4986298019028 L-6.881570532064272,-244.90333600629498" stroke="#0d6d4d" stroke-width="0.1" fill="none" />
<path d="M-190.31651277851327,-154.28747507113465 L41.099605858649156,-241.5280985688077" stroke="#0d6d4d" stroke-width="0.1" fill="none" />
<path d="M-188.86345578365516,-156.06279207247104 L87.49665142368521,-228.8434748679589" stroke="#0d6d4d" stroke-width="0.1" fill="none" />
<path d="M-187.3938388222521,-157.8244251421807 L130.5212524173426,-207.33837721803542" stroke="#0d6d4d" stroke-width="0.1" fill="none" />
<path d="M-185.90779075357725,-159.57221981637073 L168.51508158142502,-177.84169162377438" stroke="#0d6d4d" stroke-width="0.1" fill="none" />
<path d="M-184.40544187762035,-161.3060228445286 L200.0137162114585,-141.4903294479243" stroke="#0d6d4d" stroke-width="0.1" fill="none" />
<path d="M-182.88692392366158,-163.02568220296095 L223.80308242420926,-99.68540664220913" stroke="#0d6d4d" stroke-width="0.1" fill="none" />
<path d="M-181.35237003872203,-164.73104710812237 L238.96625005566182,-54.03823955621534" stroke="#0d6d4d" stroke-width="0.1" fill="none" />
<path d="M-179.80191477588875,-166.42196802983688 L244.91877454100668,-6.3082388454722755" stroke="#0d6d4d" stroke-width="0.1" fill="none" />
<path d="M-178.2356940825169,-168.09829670440877 L241.43122356986453,41.66490472277699" stroke="#0d6d4d" stroke-width="0.1" fill="none" />
<path d="M-176.65384528830918,-169.75988614762358 L228.63802025613347,88.03212875624388" stroke="#0d6d4d" stroke-width="0.1" fill="none" />
<path d="M-175.05650709327543,-171.40659066763453 L207.03226197398635,131.00626894135522" stroke="#0d6d4d" stroke-width="0.1" fill="none" />
<path d="M-173.44381955556977,-173.03826587773858 L177.44671456124152,168.93094296611642" stroke="#0d6d4d" stroke-width="0.1" fill="none" />
<path d="M-171.81592407921133,-174.65476870903552 L141.02171444380673,200.34439362090828" stroke="#0d6d4d" stroke-width="0.1" fill="none" />
<path d="M-170.17296340168477,-176.25595742297295 L99.1612158520407,224.0358303279745" stroke="#0d6d4d" stroke-width="0.1" fill="none" />
<path d="M-168.51508158142502,-177.84169162377444 L53.478677231883516,239.09209748866235" stroke="#0d6d4d" stroke-width="0.1" fill="none" />
<path d="M-166.842423985186,-179.41183227074916 L5.734872588620392,244.93287087770048" stroke="#0d6d4d" stroke-width="0.1" fill="none" />
<path d="M-165.15513727529407,-180.96624169048428 L-42.22997525588935,241.3330254852969" stroke="#0d6d4d" stroke-width="0.1" fill="none" />
<path d="M-163.45336939678924,-182.5047835889152 L-88.56712365723337,228.43131266769083" stroke="#0d6d4d" stroke-width="0.1" fill="none" />
<path d="M-161.73726956445185,-184.0273230632773 L-131.49056752794218,206.72501215668046" stroke="#0d6d4d" stroke-width="0.1" fill="none" />
<path d="M-160.00698824972028,-185.53372661393365 L-169.34587857948935,177.0507650594621" stroke="#0d6d4d" stroke-width="0.1" fill="none" />
<path d="M-158.26267716749655,-187.02386215608095 L-200.67397310779776,140.5523266158581" stroke="#0d6d4d" stroke-width="0.1" fill="none" />
<path d="M-156.5044892628439,-188.49759903133085 L-224.26735047593385,98.63648164094589" stroke="#0d6d4d" stroke-width="0.1" fill="none" />
<path d="M-154.73257869757566,-189.9548080191669 L-239.21663465486137,52.918821834982104" stroke="#0d6d4d" stroke-width="0.1" fill="none" />
<path d="M-152.94710083673905,-191.39536134827398 L-244.94562493912588,5.161474903656737" stroke="#0d6d4d" stroke-width="0.1" fill="none" />
<path d="M-151.14821223499177,-192.81913270774217 L-241.23350485324772,-42.794814361299835" stroke="#0d6d4d" stroke-width="0.1" fill="none" />
<path d="M-149.33607062287447,-194.22599725814217 L-228.22335323542498,-89.10163319478737" stroke="#0d6d4d" stroke-width="0.1" fill="none" />
<path d="M-147.51083489298173,-195.61583164247082 L-206.416629449901,-131.97414552306165" stroke="#0d6d4d" stroke-width="0.1" fill="none" />
<path d="M-145.67266508602918,-196.98851399696775 L-176.65384528830918,-169.75988614762358" stroke="#0d6d4d" stroke-width="0.1" fill="none" />
<path d="M-143.82172237682127,-198.34392396180064 L-140.08216853640684,-201.00245286597303" stroke="#0d6d4d" stroke-width="0.1" fill="none" />
<path d="M-141.95816906011817,-199.68194269161876 L-98.11120688456027,-224.49764159931615" stroke="#0d6d4d" stroke-width="0.1" fill="none" />
<path d="M-140.08216853640684,-201.00245286597303 L-52.358676433617426,-239.33986087177323" stroke="#0d6d4d" stroke-width="0.1" fill="none" />
<path d="M-138.19388529757214,-202.30533869960394 L-4.588048932901494,-244.9570366553884" stroke="#0d6d4d" stroke-width="0.1" fill="none" />
<path d="M-136.29348491247578,-203.59048595259245 L43.35941894359106,-241.1326622191074" stroke="#0d6d4d" stroke-width="0.1" fill="none" />
<path d="M-134.38113401243652,-204.8577819403783 L89.6356544396995,-228.0141430989902" stroke="#0d6d4d" stroke-width="0.1" fill="none" />
<path d="M-132.4570002766214,-206.1071155436394 L132.45700027662141,-206.1071155436394" stroke="#0d6d4d" stroke-width="0.1" fill="none" />
<path d="M-130.5212524173427,-207.33837721803533 L170.17296340168477,-176.25595742297295" stroke="#0d6d4d" stroke-width="0.1" fill="none" />
<path d="M-128.57406016526429,-208.55145900381277 L201.32983109530764,-139.61124278200126" stroke="#0d6d4d" stroke-width="0.1" fill="none" />
<path d="M-126.61559425452022,-209.74625453527105 L224.72670243608542,-97.58539446148241" stroke="#0d6d4d" stroke-width="0.1" fill="none" />
<path d="M-124.64602640774382,-210.92265905008884 L239.46177546409658,-51.798244097484556" stroke="#0d6d4d" stroke-width="0.1" fill="none" />
<path d="M-122.6655293210109,-212.08056939851 L244.96710596394988,-4.014597818830188" stroke="#0d6d4d" stroke-width="0.1" fill="none" />
<path d="M-120.6742766486968,-213.219884052388 L241.0304981355115,43.92378590863024" stroke="#0d6d4d" stroke-width="0.1" fill="none" />
<path d="M-118.67244298825113,-214.3405031140878 L227.8036834048949,90.16918446543926" stroke="#0d6d4d" stroke-width="0.1" fill="none" />
<path d="M-116.66020386488727,-215.44232832524565 L205.79647213408643,132.93912914249208" stroke="#0d6d4d" stroke-width="0.1" fill="none" />
<path d="M-114.63773571619318,-216.52526307538398 L175.8571036439491,170.5851080779367" stroke="#0d6d4d" stroke-width="0.1" fill="none" />
<path d="M-112.60521587666034,-217.5892124103829 L139.139551933398,201.65610600171084" stroke="#0d6d4d" stroke-width="0.1" fill="none" />
<path d="M-110.56282256213468,-218.6340830408057 L97.05904725325674,224.95453173094796" stroke="#0d6d4d" stroke-width="0.1" fill="none" />
<path d="M-108.51073485419057,-219.65978335007878 L51.23752789785184,239.58237776371794" stroke="#0d6d4d" stroke-width="0.1" fill="none" />
<path d="M-106.44913268442767,-220.66622340252508 L3.441124704055868,244.97583280962866" stroke="#0d6d4d" stroke-width="0.1" fill="none" />
<path d="M-104.37819681869553,-221.65331495124917 L-44.48791216358707,240.92701316233712" stroke="#0d6d4d" stroke-width="0.1" fill="none" />
<path d="M-102.29810884124208,-222.62097144587565 L-90.70222034816811,227.59197530649527" stroke="#0d6d4d" stroke-width="0.1" fill="none" />
<path d="M-100.20905113879328,-223.56910804013756 L-133.42052947852278,205.48470092362263" stroke="#0d6d4d" stroke-width="0.1" fill="none" />
<path d="M-98.11120688456027,-224.49764159931615 L-170.9963179177542,175.45728613702633" stroke="#0d6d4d" stroke-width="0.1" fill="none" />
<path d="M-96.00476002217877,-225.40649070753014 L-201.98127579713886,138.6670985755458" stroke="#0d6d4d" stroke-width="0.1" fill="none" />
<path d="M-93.88989524957958,-226.29557567487475 L-225.18112823535913,96.53216814435872" stroke="#0d6d4d" stroke-width="0.1" fill="none" />
<path d="M-91.76679800279518,-227.16481854440883 L-239.70166710971552,50.676530907542634" stroke="#0d6d4d" stroke-width="0.1" fill="none" />
<path d="M-89.63565443969947,-228.01414309899022 L-244.98321714460013,2.867632731312088" stroke="#0d6d4d" stroke-width="0.1" fill="none" />
<path d="M-87.49665142368512,-228.8434748679589 L-240.82220786670013,-45.05179461695032" stroke="#0d6d4d" stroke-width="0.1" fill="none" />
<path d="M-85.34997650727932,-229.65274113366655 L-227.379019963989,-91.2347591667556" stroke="#0d6d4d" stroke-width="0.1" fill="none" />
<path d="M-83.19581791569789,-230.44187093785288 L-205.1718036208091,-133.90119864655486" stroke="#0d6d4d" stroke-width="0.1" fill="none" />
<path d="M-81.03436453034266,-231.2107950878668 L-175.05650709327543,-171.40659066763453" stroke="#0d6d4d" stroke-width="0.1" fill="none" />
<path d="M-78.86580587223837,-231.95944616273425 L-138.19388529757214,-202.30533869960394" stroke="#0d6d4d" stroke-width="0.1" fill="none" />
<path d="M-76.69033208541641,-232.68775851906895 L-96.00476002217877,-225.40649070753014" stroke="#0d6d4d" stroke-width="0.1" fill="none" />
<path d="M-74.50813392024183,-233.39566829682875 L-50.11525620091933,-239.81964284836263" stroke="#0d6d4d" stroke-width="0.1" fill="none" />
<path d="M-72.31940271668824,-234.08311342491464 L-2.294125043436021,-244.98925892839685" stroke="#0d6d4d" stroke-width="0.1" fill="none" />
<path d="M-70.12433038755995,-234.75003362661386 L45.615430178544855,-240.71608282295205" stroke="#0d6d4d" stroke-width="0.1" fill="none" />
<path d="M-67.9231094016658,-235.39637042488428 L91.76679800279516,-227.16481854440883" stroke="#0d6d4d" stroke-width="0.1" fill="none" />
<path d="M-65.71593276694256,-236.0220671474824 L134.38113401243646,-204.85778194037832" stroke="#0d6d4d" stroke-width="0.1" fill="none" />
<path d="M-63.50299401353081,-236.62706893193237 L171.8159240792113,-174.65476870903552" stroke="#0d6d4d" stroke-width="0.1" fill="none" />
<path d="M-61.284487176807104,-237.21132273033632 L202.62829293318418,-137.71991469276946" stroke="#0d6d4d" stroke-width="0.1" fill="none" />
<path d="M-59.06060678036971,-237.77477731402576 L225.63061791243504,-95.47682577700598" stroke="#0d6d4d" stroke-width="0.1" fill="none" />
<path d="M-56.831547818982706,-238.31738327805354 L239.93630433313157,-49.553706853865876" stroke="#0d6d4d" stroke-width="0.1" fill="none" />
<path d="M-54.597505741477605,-238.83909304552577 L244.99395812790874,-1.720604783350467" stroke="#0d6d4d" stroke-width="0.1" fill="none" />
<path d="M-52.358676433617426,-239.33986087177323 L240.60863861267674,46.178815759548534" stroke="#0d6d4d" stroke-width="0.1" fill="none" />
<path d="M-50.11525620091933,-239.81964284836263 L226.94937222161627,92.29833394062037" stroke="#0d6d4d" stroke-width="0.1" fill="none" />
<path d="M-47.86744175144358,-240.27839690694657 L204.54263760322428,134.86033294603737" stroke="#0d6d4d" stroke-width="0.1" fill="none" />
<path d="M-45.61543017854487,-240.71608282295205 L174.25207318590427,172.22431590926487" stroke="#0d6d4d" stroke-width="0.1" fill="none" />
<path d="M-43.35941894359123,-241.1326622191074 L137.24518935857984,202.95013672803367" stroke="#0d6d4d" stroke-width="0.1" fill="none" />
<path d="M-41.09960585864904,-241.5280985688077 L94.94836830201334,225.85350862181713" stroke="#0d6d4d" stroke-width="0.1" fill="none" />
<path d="M-38.83618906914085,-241.90235719931698 L48.99188594377195,240.0516509246967" stroke="#0d6d4d" stroke-width="0.1" fill="none" />
<path d="M-36.569367036468705,-242.25540529480872 L1.1470750940478471,244.9973147173834" stroke="#0d6d4d" stroke-width="0.1" fill="none" />
<path d="M-34.299338520614135,-242.5872118992432 L-46.74194827250919,240.49987582468745" stroke="#0d6d4d" stroke-width="0.1" fill="none" />
<path d="M-32.02630256271045,-242.89774791908164 L-92.82936406732053,226.73268217629513" stroke="#0d6d4d" stroke-width="0.1" fill="none" />
<path d="M-29.750458467590782,-243.18698612583725 L-135.33879282126307,204.2263723363935" stroke="#0d6d4d" stroke-width="0.1" fill="none" />
<path d="M-27.472005786310906,-243.45490115846283 L-172.6317639197363,173.84842273072377" stroke="#0d6d4d" stroke-width="0.1" fill="none" />
<path d="M-25.191144298653615,-243.70146952557428 L-203.27086832039163,136.76971189658187" stroke="#0d6d4d" stroke-width="0.1" fill="none" />
<path d="M-22.908073995610774,-243.92666960751055 L-226.07516161419625,94.41939049324057" stroke="#0d6d4d" stroke-width="0.1" fill="none" />
<path d="M-20.622995061849156,-244.13048165822912 L-240.1656819909385,48.42979654951477" stroke="#0d6d4d" stroke-width="0.1" fill="none" />
<path d="M-18.336107858156076,-244.31288780703744 L-244.9993286784261,0.5735391185715337" stroke="#0d6d4d" stroke-width="0.1" fill="none" />
<path d="M-16.04761290387132,-244.47387206016003 L-240.38979505502337,-47.30482463136137" stroke="#0d6d4d" stroke-width="0.1" fill="none" />
<path d="M-13.757710859307323,-244.6134203021406 L-226.51474959594503,-93.35988547275706" stroke="#0d6d4d" stroke-width="0.1" fill="none" />
<path d="M-11.46660250815202,-244.73152029707992 L-203.90898787307526,-135.8165110160692" stroke="#0d6d4d" stroke-width="0.1" fill="none" />
<path d="M-9.174488739865195,-244.82816168970857 L-173.44381955556977,-173.03826587773858" stroke="#0d6d4d" stroke-width="0.1" fill="none" />
<path d="M-6.881570532064272,-244.90333600629498 L-136.29348491247578,-203.59048595259245" stroke="#0d6d4d" stroke-width="0.1" fill="none" />
<path d="M-4.588048932901494,-244.9570366553884 L-93.88989524957958,-226.29557567487475" stroke="#0d6d4d" stroke-width="0.1" fill="none" />
<path d="M-2.294125043436021,-244.98925892839685 L-47.86744175144358,-240.27839690694657" stroke="#0d6d4d" stroke-width="0.1" fill="none" />
</svg>