<?xml version="1.0" encoding="UTF-8"?>
<svg xmlns="http://www.w3.org/2000/svg" xmlns:xlink="http://www.w3.org/1999/xlink"
     width="500.0" height="500" viewBox="-250.0 -250.0 500 500">
<defs>
</defs>
<circle cx="0" cy="0" r="245.0" fill="white" stroke-width="2" stroke="black" />
<path d="M0.0,-245.0 L0.0,-245.0" stroke="#0d6d4d" stroke-width="0.1" fill="none" />
<path d="M2.515283264061027,-244.9870881293574 L52.41360538559187,-239.32783785110217" stroke="#0d6d4d" stroke-width="0.1" fill="none" />
<path d="M5.030301409655645,-244.9483538783799 L102.40028449726194,-222.5739915957833" stroke="#0d6d4d" stroke-width="0.1" fill="none" />
<path d="M7.544789346261736,-244.88380132977466 L147.64548591291782,-195.51422068365866" stroke="#0d6d4d" stroke-width="0.1" fill="none" />
<path d="M10.05848203924281,-244.79343728757564 L186.05420458040325,-159.40148355003933" stroke="#0d6d4d" stroke-width="0.1" fill="none" />
<path d="M12.571114537783464,-244.67727127642635 L215.8479876000172,-115.90792142482246" stroke="#0d6d4d" stroke-width="0.1" fill="none" />
<path d="M15.082422002815994,-244.5353155405758 L235.64728257734066,-67.04743256766028" stroke="#0d6d4d" stroke-width="0.1" fill="none" />
<path d="M17.59213973493524,-244.36758504258808 L244.5353155405758,-15.082422002815967" stroke="#0d6d4d" stroke-width="0.1" fill="none" />
<path d="M20.1000032022987,-244.17409746176514 L242.10054065990855,37.5809554452779" stroke="#0d6d4d" stroke-width="0.1" fill="none" />
<path d="M22.605748068508987,-243.95487319228346 L228.45569620406718,88.50420821585247" stroke="#0d6d4d" stroke-width="0.1" fill="none" />
<path d="M25.109110220475685,-243.70993534104431 L204.23258437917428,135.3294183753239" stroke="#0d6d4d" stroke-width="0.1" fill="none" />
<path d="M27.60982579625367,-243.43930972523833 L170.55281676091704,175.88842115078825" stroke="#0d6d4d" stroke-width="0.1" fill="none" />
<path d="M30.107631212854958,-243.14302486962424 L128.97587990495217,208.30319825375548" stroke="#0d6d4d" stroke-width="0.1" fill="none" />
<path d="M32.60226319403115,-242.8211120035223 L81.42692587251662,231.07283644546297" stroke="#0d6d4d" stroke-width="0.1" fill="none" />
<path d="M35.09345879802351,-242.47360505752255 L30.107631212854905,243.14302486962424" stroke="#0d6d4d" stroke-width="0.1" fill="none" />
<path d="M37.58095544527791,-242.10054065990855 L-22.605748068509,243.95487319228346" stroke="#0d6d4d" stroke-width="0.1" fill="none" />
<path d="M40.064490946121424,-241.7019581327966 L-74.27240515769564,233.47079010465336" stroke="#0d6d4d" stroke-width="0.1" fill="none" />
<path d="M42.54380352839794,-241.27789948799096 L-122.49999999999994,212.17622392718752" stroke="#0d6d4d" stroke-width="0.1" fill="none" />
<path d="M45.01863186505973,-240.82840942255595 L-165.05543269340652,181.05718471906147" stroke="#0d6d4d" stroke-width="0.1" fill="none" />
<path d="M47.488715101712145,-240.35353531410436 L-199.9682435272743,141.55458869502158" stroke="#0d6d4d" stroke-width="0.1" fill="none" />
<path d="M49.953792884108445,-239.85332721580411 L-225.62185189651365,95.49753895670642" stroke="#0d6d4d" stroke-width="0.1" fill="none" />
<path d="M52.41360538559187,-239.32783785110217 L-240.82840942255592,45.01863186505986" stroke="#0d6d4d" stroke-width="0.1" fill="none" />
<path d="M54.867893334482225,-238.77712260816756 L-244.88380132977466,-7.54478934626167" stroke="#0d6d4d" stroke-width="0.1" fill="none" />
<path d="M57.316398041403886,-238.20123953405312 L-237.60024932857732,-59.7588614265524" stroke="#0d6d4d" stroke-width="0.1" fill="none" />
<path d="M59.7588614265524,-237.60024932857732 L-219.31500638199026,-109.20589716525194" stroke="#0d6d4d" stroke-width="0.1" fill="none" />
<path d="M62.19502604689693,-236.97421533792618 L-190.87474075878933,-153.596332444056" stroke="#0d6d4d" stroke-width="0.1" fill="none" />
<path d="M64.62463512331551,-236.3232035479765 L-153.59633244405612,-190.87474075878924" stroke="#0d6d4d" stroke-width="0.1" fill="none" />
<path d="M67.0474325676603,-235.64728257734066 L-109.20589716525203,-219.3150063819902" stroke="#0d6d4d" stroke-width="0.1" fill="none" />
<path d="M69.46316300975015,-234.9465236701341 L-59.75886142655229,-237.60024932857735" stroke="#0d6d4d" stroke-width="0.1" fill="none" />
<path d="M71.8715718242873,-234.22100068846584 L-7.544789346261775,-244.88380132977466" stroke="#0d6d4d" stroke-width="0.1" fill="none" />
<path d="M74.27240515769566,-233.47079010465336 L45.01863186505973,-240.82840942255595" stroke="#0d6d4d" stroke-width="0.1" fill="none" />
<path d="M76.66540995487782,-232.69597099316206 L95.49753895670644,-225.62185189651365" stroke="#0d6d4d" stroke-width="0.1" fill="none" />
<path d="M79.05033398588773,-231.89662502227065 L141.5545886950215,-199.96824352727432" stroke="#0d6d4d" stroke-width="0.1" fill="none" />
<path d="M81.4269258725166,-231.07283644546297 L181.05718471906147,-165.05543269340654" stroke="#0d6d4d" stroke-width="0.1" fill="none" />
<path d="M83.79493511478884,-230.22469209254757 L212.17622392718746,-122.50000000000003" stroke="#0d6d4d" stroke-width="0.1" fill="none" />
<path d="M86.15411211736549,-229.35228136050537 L233.47079010465333,-74.27240515769566" stroke="#0d6d4d" stroke-width="0.1" fill="none" />
<path d="M88.50420821585247,-228.45569620406718 L243.95487319228346,-22.60574806850899" stroke="#0d6d4d" stroke-width="0.1" fill="none" />
<path d="M90.8449757030104,-227.53503112602124 L243.14302486962424,30.107631212854916" stroke="#0d6d4d" stroke-width="0.1" fill="none" />
<path d="M93.17616785486378,-226.59038316725238 L231.072836445463,81.42692587251658" stroke="#0d6d4d" stroke-width="0.1" fill="none" />
<path d="M95.49753895670644,-225.62185189651365 L208.3031982537555,128.9758799049521" stroke="#0d6d4d" stroke-width="0.1" fill="none" />
<path d="M97.80884432900056,-224.62953939993142 L175.88842115078828,170.552816760917" stroke="#0d6d4d" stroke-width="0.1" fill="none" />
<path d="M100.10984035316672,-223.61355027024518 L135.32941837532397,204.23258437917426" stroke="#0d6d4d" stroke-width="0.1" fill="none" />
<path d="M102.40028449726194,-222.5739915957833 L88.50420821585256,228.45569620406715" stroke="#0d6d4d" stroke-width="0.1" fill="none" />
<path d="M104.67993534154333,-221.5109729491754 L37.580955445277944,242.10054065990855" stroke="#0d6d4d" stroke-width="0.1" fill="none" />
<path d="M106.94855260391446,-220.4246063758031 L-15.082422002815921,244.5353155405758" stroke="#0d6d4d" stroke-width="0.1" fill="none" />
<path d="M109.20589716525187,-219.3150063819903 L-67.0474325676603,235.64728257734066" stroke="#0d6d4d" stroke-width="0.1" fill="none" />
<path d="M111.45173109460882,-218.1822899229335 L-115.90792142482252,215.84798760001718" stroke="#0d6d4d" stroke-width="0.1" fill="none" />
<path d="M113.68581767429406,-217.02657639037474 L-159.40148355003925,186.0542045804033" stroke="#0d6d4d" stroke-width="0.1" fill="none" />
<path d="M115.90792142482246,-215.8479876000172 L-195.51422068365864,147.64548591291785" stroke="#0d6d4d" stroke-width="0.1" fill="none" />
<path d="M118.11780812973545,-214.64664777868532 L-222.57399159578333,102.4002844972619" stroke="#0d6d4d" stroke-width="0.1" fill="none" />
<path d="M120.31524486028803,-213.42268355123113 L-239.3278378511022,52.41360538559177" stroke="#0d6d4d" stroke-width="0.1" fill="none" />
<path d="M122.49999999999999,-212.1762239271875 L-245.0,4.500576986866523e-14" stroke="#0d6d4d" stroke-width="0.1" fill="none" />
<path d="M124.6718432690694,-210.90740028717008 L-239.32783785110223,-52.41360538559168" stroke="#0d6d4d" stroke-width="0.1" fill="none" />
<path d="M126.8305457486444,-209.61634636902966 L-222.57399159578335,-102.40028449726182" stroke="#0d6d4d" stroke-width="0.1" fill="none" />
<path d="M128.97587990495217,-208.30319825375548 L-195.51422068365872,-147.64548591291776" stroke="#0d6d4d" stroke-width="0.1" fill="none" />
<path d="M131.1076196132816,-206.96809435113195 L-159.4014835500393,-186.05420458040325" stroke="#0d6d4d" stroke-width="0.1" fill="none" />
<path d="M133.2255401818175,-205.61117538515003 L-115.9079214248226,-215.84798760001715" stroke="#0d6d4d" stroke-width="0.1" fill="none" />
<path d="M135.3294183753239,-204.23258437917428 L-67.04743256766038,-235.64728257734063" stroke="#0d6d4d" stroke-width="0.1" fill="none" />
<path d="M137.4190324386736,-202.83246664086786 L-15.082422002816228,-244.53531554057577" stroke="#0d6d4d" stroke-width="0.1" fill="none" />
<path d="M139.49416212022183,-201.41096974687667 L37.58095544527791,-242.10054065990855" stroke="#0d6d4d" stroke-width="0.1" fill="none" />
<path d="M141.5545886950215,-199.96824352727432 L88.50420821585247,-228.45569620406718" stroke="#0d6d4d" stroke-width="0.1" fill="none" />
<path d="M143.6000949878776,-198.5044400497695 L135.3294183753239,-204.23258437917428" stroke="#0d6d4d" stroke-width="0.1" fill="none" />
<path d="M145.63046539623775,-197.01971360367773 L175.88842115078825,-170.55281676091704" stroke="#0d6d4d" stroke-width="0.1" fill="none" />
<path d="M147.64548591291782,-195.51422068365866 L208.30319825375545,-128.9758799049522" stroke="#0d6d4d" stroke-width="0.1" fill="none" />
<path d="M149.6449441486585,-193.98811997322125 L231.07283644546297,-81.42692587251666" stroke="#0d6d4d" stroke-width="0.1" fill="none" />
<path d="M151.62862935451216,-192.44157232799773 L243.14302486962424,-30.107631212854994" stroke="#0d6d4d" stroke-width="0.1" fill="none" />
<path d="M153.5963324440561,-190.87474075878927 L243.95487319228346,22.605748068508962" stroke="#0d6d4d" stroke-width="0.1" fill="none" />
<path d="M155.54784601543108,-189.28779041438395 L233.47079010465336,74.27240515769566" stroke="#0d6d4d" stroke-width="0.1" fill="none" />
<path d="M157.48296437320215,-187.68088856414963 L212.17622392718752,122.49999999999994" stroke="#0d6d4d" stroke-width="0.1" fill="none" />
<path d="M159.4014835500393,-186.05420458040325 L181.05718471906147,165.05543269340652" stroke="#0d6d4d" stroke-width="0.1" fill="none" />
<path d="M161.30320132821663,-184.4079099205585 L141.55458869502155,199.9682435272743" stroke="#0d6d4d" stroke-width="0.1" fill="none" />
<path d="M163.18791726092627,-182.74217810905364 L95.49753895670652,225.6218518965136" stroke="#0d6d4d" stroke-width="0.1" fill="none" />
<path d="M165.05543269340652,-181.05718471906147 L45.01863186505974,240.82840942255595" stroke="#0d6d4d" stroke-width="0.1" fill="none" />
<path d="M166.90555078388024,-179.3531073539836 L-7.544789346261686,244.88380132977466" stroke="#0d6d4d" stroke-width="0.1" fill="none" />
<path d="M168.73807652430298,-177.6301256287302 L-59.75886142655231,237.60024932857735" stroke="#0d6d4d" stroke-width="0.1" fill="none" />
<path d="M170.55281676091704,-175.88842115078828 L-109.20589716525186,219.3150063819903" stroke="#0d6d4d" stroke-width="0.1" fill="none" />
<path d="M172.34958021461068,-174.1281775010796 L-153.59633244405603,190.8747407587893" stroke="#0d6d4d" stroke-width="0.1" fill="none" />
<path d="M174.12817750107956,-172.34958021461068 L-190.87474075878924,153.59633244405612" stroke="#0d6d4d" stroke-width="0.1" fill="none" />
<path d="M175.88842115078825,-170.55281676091704 L-219.3150063819902,109.20589716525201" stroke="#0d6d4d" stroke-width="0.1" fill="none" />
<path d="M177.6301256287302,-168.73807652430298 L-237.6002493285773,59.758861426552485" stroke="#0d6d4d" stroke-width="0.1" fill="none" />
<path d="M179.3531073539836,-166.9055507838803 L-244.88380132977466,7.54478934626176" stroke="#0d6d4d" stroke-width="0.1" fill="none" />
<path d="M181.05718471906147,-165.05543269340654 L-240.82840942255595,-45.018631865059774" stroke="#0d6d4d" stroke-width="0.1" fill="none" />
<path d="M182.74217810905358,-163.18791726092633 L-225.62185189651368,-95.49753895670635" stroke="#0d6d4d" stroke-width="0.1" fill="none" />
<path d="M184.4079099205585,-161.30320132821663 L-199.96824352727435,-141.55458869502147" stroke="#0d6d4d" stroke-width="0.1" fill="none" />
<path d="M186.05420458040325,-159.40148355003933 L-165.05543269340666,-181.05718471906135" stroke="#0d6d4d" stroke-width="0.1" fill="none" />
<path d="M187.68088856414963,-157.48296437320215 L-122.49999999999991,-212.17622392718752" stroke="#0d6d4d" stroke-width="0.1" fill="none" />
<path d="M189.28779041438392,-155.5478460154311 L-74.2724051576957,-233.47079010465333" stroke="#0d6d4d" stroke-width="0.1" fill="none" />
<path d="M190.87474075878924,-153.59633244405612 L-22.605748068508984,-243.95487319228346" stroke="#0d6d4d" stroke-width="0.1" fill="none" />
<path d="M192.4415723279977,-151.62862935451219 L30.107631212854958,-243.14302486962424" stroke="#0d6d4d" stroke-width="0.1" fill="none" />
<path d="M193.98811997322122,-149.64494414865854 L81.4269258725166,-231.07283644546297" stroke="#0d6d4d" stroke-width="0.1" fill="none" />
<path d="M195.51422068365866,-147.64548591291782 L128.97587990495217,-208.30319825375548" stroke="#0d6d4d" stroke-width="0.1" fill="none" />
<path d="M197.0197136036777,-145.6304653962378 L170.55281676091704,-175.88842115078828" stroke="#0d6d4d" stroke-width="0.1" fill="none" />
<path d="M198.5044400497695,-143.60009498787764 L204.23258437917426,-135.32941837532394" stroke="#0d6d4d" stroke-width="0.1" fill="none" />
<path d="M199.9682435272743,-141.55458869502155 L228.45569620406718,-88.50420821585249" stroke="#0d6d4d" stroke-width="0.1" fill="none" />
<path d="M201.41096974687667,-139.49416212022183 L242.10054065990855,-37.58095544527793" stroke="#0d6d4d" stroke-width="0.1" fill="none" />
<path d="M202.83246664086786,-137.4190324386736 L244.5353155405758,15.08242200281599" stroke="#0d6d4d" stroke-width="0.1" fill="none" />
<path d="M204.23258437917426,-135.32941837532394 L235.64728257734066,67.04743256766031" stroke="#0d6d4d" stroke-width="0.1" fill="none" />
<path d="M205.61117538515003,-133.22554018181754 L215.84798760001723,115.90792142482243" stroke="#0d6d4d" stroke-width="0.1" fill="none" />
<path d="M206.96809435113192,-131.10761961328166 L186.05420458040325,159.40148355003933" stroke="#0d6d4d" stroke-width="0.1" fill="none" />
<path d="M208.30319825375545,-128.9758799049522 L147.64548591291782,195.51422068365866" stroke="#0d6d4d" stroke-width="0.1" fill="none" />
<path d="M209.61634636902966,-126.8305457486444 L102.40028449726199,222.5739915957833" stroke="#0d6d4d" stroke-width="0.1" fill="none" />
<path d="M210.90740028717008,-124.6718432690694 L52.41360538559186,239.32783785110217" stroke="#0d6d4d" stroke-width="0.1" fill="none" />
<path d="M212.17622392718746,-122.50000000000003 L3.0003846579110155e-14,245.0" stroke="#0d6d4d" stroke-width="0.1" fill="none" />
<path d="M213.42268355123113,-120.31524486028803 L-52.41360538559191,239.32783785110217" stroke="#0d6d4d" stroke-width="0.1" fill="none" />
<path d="M214.64664777868532,-118.11780812973545 L-102.40028449726184,222.57399159578335" stroke="#0d6d4d" stroke-width="0.1" fill="none" />
<path d="M215.8479876000172,-115.90792142482246 L-147.6454859129178,195.5142206836587" stroke="#0d6d4d" stroke-width="0.1" fill="none" />
<path d="M217.02657639037474,-113.68581767429406 L-186.05420458040325,159.4014835500393" stroke="#0d6d4d" stroke-width="0.1" fill="none" />
<path d="M218.1822899229335,-111.45173109460882 L-215.84798760001726,115.90792142482239" stroke="#0d6d4d" stroke-width="0.1" fill="none" />
<path d="M219.3150063819903,-109.20589716525188 L-235.64728257734066,67.04743256766037" stroke="#0d6d4d" stroke-width="0.1" fill="none" />
<path d="M220.42460637580308,-106.94855260391451 L-244.5353155405758,15.082422002815996" stroke="#0d6d4d" stroke-width="0.1" fill="none" />
<path d="M221.5109729491754,-104.67993534154334 L-242.10054065990857,-37.580955445277766" stroke="#0d6d4d" stroke-width="0.1" fill="none" />
<path d="M222.57399159578333,-102.40028449726192 L-228.4556962040672,-88.5042082158524" stroke="#0d6d4d" stroke-width="0.1" fill="none" />
<path d="M223.61355027024518,-100.10984035316673 L-204.2325843791743,-135.32941837532388" stroke="#0d6d4d" stroke-width="0.1" fill="none" />
<path d="M224.6295393999314,-97.8088443290006 L-170.55281676091698,-175.8884211507883" stroke="#0d6d4d" stroke-width="0.1" fill="none" />
<path d="M225.62185189651365,-95.49753895670645 L-128.97587990495225,-208.30319825375543" stroke="#0d6d4d" stroke-width="0.1" fill="none" />
<path d="M226.59038316725238,-93.17616785486376 L-81.42692587251665,-231.07283644546297" stroke="#0d6d4d" stroke-width="0.1" fill="none" />
<path d="M227.53503112602124,-90.8449757030104 L-30.107631212854933,-243.14302486962424" stroke="#0d6d4d" stroke-width="0.1" fill="none" />
<path d="M228.45569620406718,-88.50420821585249 L22.605748068508987,-243.95487319228346" stroke="#0d6d4d" stroke-width="0.1" fill="none" />
<path d="M229.35228136050537,-86.15411211736549 L74.27240515769566,-233.47079010465336" stroke="#0d6d4d" stroke-width="0.1" fill="none" />
<path d="M230.22469209254754,-83.79493511478886 L122.49999999999999,-212.1762239271875" stroke="#0d6d4d" stroke-width="0.1" fill="none" />
<path d="M231.07283644546297,-81.42692587251666 L165.05543269340652,-181.05718471906147" stroke="#0d6d4d" stroke-width="0.1" fill="none" />
<path d="M231.89662502227065,-79.05033398588776 L199.9682435272743,-141.55458869502155" stroke="#0d6d4d" stroke-width="0.1" fill="none" />
<path d="M232.69597099316206,-76.66540995487782 L225.62185189651365,-95.49753895670645" stroke="#0d6d4d" stroke-width="0.1" fill="none" />
<path d="M233.47079010465333,-74.27240515769566 L240.82840942255595,-45.01863186505978" stroke="#0d6d4d" stroke-width="0.1" fill="none" />
<path d="M234.22100068846584,-71.87157182428733 L244.88380132977466,7.5447893462617" stroke="#0d6d4d" stroke-width="0.1" fill="none" />
<path d="M234.9465236701341,-69.46316300975016 L237.60024932857732,59.758861426552436" stroke="#0d6d4d" stroke-width="0.1" fill="none" />
<path d="M235.64728257734066,-67.04743256766028 L219.3150063819903,109.20589716525187" stroke="#0d6d4d" stroke-width="0.1" fill="none" />
<path d="M236.3232035479765,-64.62463512331551 L190.87474075878924,153.59633244405612" stroke="#0d6d4d" stroke-width="0.1" fill="none" />
<path d="M236.97421533792618,-62.195026046896956 L153.59633244405617,190.8747407587892" stroke="#0d6d4d" stroke-width="0.1" fill="none" />
<path d="M237.60024932857732,-59.75886142655241 L109.2058971652519,219.31500638199026" stroke="#0d6d4d" stroke-width="0.1" fill="none" />
<path d="M238.20123953405312,-57.31639804140392 L59.75886142655247,237.6002493285773" stroke="#0d6d4d" stroke-width="0.1" fill="none" />
<path d="M238.77712260816756,-54.86789333448223 L7.544789346261854,244.88380132977466" stroke="#0d6d4d" stroke-width="0.1" fill="none" />
<path d="M239.32783785110217,-52.4136053855919 L-45.01863186505969,240.82840942255595" stroke="#0d6d4d" stroke-width="0.1" fill="none" />
<path d="M239.85332721580411,-49.953792884108445 L-95.49753895670646,225.62185189651362" stroke="#0d6d4d" stroke-width="0.1" fill="none" />
<path d="M240.35353531410436,-47.488715101712174 L-141.5545886950215,199.96824352727432" stroke="#0d6d4d" stroke-width="0.1" fill="none" />
<path d="M240.82840942255595,-45.01863186505978 L-181.05718471906147,165.0554326934065" stroke="#0d6d4d" stroke-width="0.1" fill="none" />
<path d="M241.277899487991,-42.543803528397895 L-212.1762239271874,122.50000000000011" stroke="#0d6d4d" stroke-width="0.1" fill="none" />
<path d="M241.7019581327966,-40.06449094612142 L-233.47079010465333,74.27240515769569" stroke="#0d6d4d" stroke-width="0.1" fill="none" />
<path d="M242.10054065990855,-37.58095544527793 L-243.95487319228346,22.605748068508966" stroke="#0d6d4d" stroke-width="0.1" fill="none" />
<path d="M242.47360505752255,-35.093458798023555 L-243.14302486962424,-30.107631212855047" stroke="#0d6d4d" stroke-width="0.1" fill="none" />
<path d="M242.8211120035223,-32.60226319403116 L-231.072836445463,-81.42692587251655" stroke="#0d6d4d" stroke-width="0.1" fill="none" />
<path d="M243.14302486962424,-30.107631212854994 L-208.30319825375548,-128.97587990495217" stroke="#0d6d4d" stroke-width="0.1" fill="none" />
<path d="M243.43930972523833,-27.60982579625368 L-175.8884211507884,-170.5528167609169" stroke="#0d6d4d" stroke-width="0.1" fill="none" />
<path d="M243.70993534104431,-25.109110220475664 L-135.3294183753238,-204.23258437917437" stroke="#0d6d4d" stroke-width="0.1" fill="none" />
<path d="M243.95487319228346,-22.60574806850899 L-88.50420821585249,-228.45569620406718" stroke="#0d6d4d" stroke-width="0.1" fill="none" />
<path d="M244.17409746176514,-20.10000320229873 L-37.580955445278086,-242.10054065990852" stroke="#0d6d4d" stroke-width="0.1" fill="none" />
<path d="M244.36758504258808,-17.592139734935298 L15.082422002815994,-244.5353155405758" stroke="#0d6d4d" stroke-width="0.1" fill="none" />
<path d="M244.5353155405758,-15.082422002815967 L67.0474325676603,-235.64728257734066" stroke="#0d6d4d" stroke-width="0.1" fill="none" />
<path d="M244.67727127642635,-12.571114537783462 L115.90792142482246,-215.8479876000172" stroke="#0d6d4d" stroke-width="0.1" fill="none" />
<path d="M244.79343728757564,-10.058482039242834 L159.4014835500393,-186.05420458040325" stroke="#0d6d4d" stroke-width="0.1" fill="none" />
<path d="M244.88380132977466,-7.54478934626173 L195.51422068365866,-147.64548591291782" stroke="#0d6d4d" stroke-width="0.1" fill="none" />
<path d="M244.9483538783799,-5.030301409655665 L222.57399159578333,-102.40028449726192" stroke="#0d6d4d" stroke-width="0.1" fill="none" />
<path d="M244.9870881293574,-2.515283264061071 L239.32783785110217,-52.4136053855919" stroke="#0d6d4d" stroke-width="0.1" fill="none" />
<path d="M245.0,-1.5001923289555078e-14 L245.0,-1.5001923289555078e-14" stroke="#0d6d4d" stroke-width="0.1" fill="none" />
<path d="M244.9870881293574,2.515283264061041 L239.3278378511022,52.413605385591815" stroke="#0d6d4d" stroke-width="0.1" fill="none" />
<path d="M244.9483538783799,5.030301409655634 L222.5739915957833,102.40028449726195" stroke="#0d6d4d" stroke-width="0.1" fill="none" />
<path d="M244.88380132977466,7.5447893462617 L195.5142206836587,147.6454859129178" stroke="#0d6d4d" stroke-width="0.1" fill="none" />
<path d="M244.79343728757564,10.05848203924275 L159.4014835500394,186.05420458040322" stroke="#0d6d4d" stroke-width="0.1" fill="none" />
<path d="M244.67727127642635,12.571114537783485 L115.90792142482248,215.8479876000172" stroke="#0d6d4d" stroke-width="0.1" fill="none" />
<path d="M244.5353155405758,15.08242200281599 L67.04743256766035,235.64728257734066" stroke="#0d6d4d" stroke-width="0.1" fill="none" />
<path d="M244.36758504258808,17.592139734935216 L15.082422002815983,244.5353155405758" stroke="#0d6d4d" stroke-width="0.1" fill="none" />
<path d="M244.17409746176514,20.100003202298705 L-37.580955445277894,242.10054065990855" stroke="#0d6d4d" stroke-width="0.1" fill="none" />
<path d="M243.95487319228346,22.605748068508962 L-88.50420821585242,228.4556962040672" stroke="#0d6d4d" stroke-width="0.1" fill="none" />
<path d="M243.70993534104431,25.10911022047564 L-135.329418375324,204.2325843791742" stroke="#0d6d4d" stroke-width="0.1" fill="none" />
<path d="M243.43930972523836,27.6098257962536 L-175.88842115078822,170.55281676091707" stroke="#0d6d4d" stroke-width="0.1" fill="none" />
<path d="M243.14302486962424,30.107631212854916 L-208.30319825375543,128.97587990495225" stroke="#0d6d4d" stroke-width="0.1" fill="none" />
<path d="M242.82111200352227,32.60226319403118 L-231.07283644546297,81.42692587251663" stroke="#0d6d4d" stroke-width="0.1" fill="none" />
<path d="M242.47360505752255,35.093458798023526 L-243.14302486962424,30.107631212855136" stroke="#0d6d4d" stroke-width="0.1" fill="none" />
<path d="M242.10054065990855,37.5809554452779 L-243.95487319228346,-22.60574806850888" stroke="#0d6d4d" stroke-width="0.1" fill="none" />
<path d="M241.7019581327966,40.06449094612144 L-233.47079010465336,-74.27240515769563" stroke="#0d6d4d" stroke-width="0.1" fill="none" />
<path d="M241.27789948799096,42.54380352839792 L-212.17622392718746,-122.5" stroke="#0d6d4d" stroke-width="0.1" fill="none" />
<path d="M240.82840942255595,45.018631865059696 L-181.05718471906158,-165.0554326934064" stroke="#0d6d4d" stroke-width="0.1" fill="none" />
<path d="M240.35353531410436,47.488715101712145 L-141.55458869502158,-199.9682435272743" stroke="#0d6d4d" stroke-width="0.1" fill="none" />
<path d="M239.85332721580411,49.95379288410842 L-95.49753895670663,-225.62185189651353" stroke="#0d6d4d" stroke-width="0.1" fill="none" />
<path d="M239.3278378511022,52.413605385591815 L-45.01863186505967,-240.82840942255595" stroke="#0d6d4d" stroke-width="0.1" fill="none" />
<path d="M238.77712260816756,54.867893334482204 L7.544789346261736,-244.88380132977466" stroke="#0d6d4d" stroke-width="0.1" fill="none" />
<path d="M238.20123953405312,57.316398041403836 L59.7588614265524,-237.60024932857732" stroke="#0d6d4d" stroke-width="0.1" fill="none" />
<path d="M237.60024932857732,59.758861426552436 L109.20589716525187,-219.3150063819903" stroke="#0d6d4d" stroke-width="0.1" fill="none" />
<path d="M236.97421533792618,62.19502604689693 L153.5963324440561,-190.87474075878927" stroke="#0d6d4d" stroke-width="0.1" fill="none" />
<path d="M236.3232035479765,64.62463512331549 L190.87474075878924,-153.59633244405612" stroke="#0d6d4d" stroke-width="0.1" fill="none" />
<path d="M235.64728257734066,67.04743256766031 L219.3150063819903,-109.20589716525188" stroke="#0d6d4d" stroke-width="0.1" fill="none" />
<path d="M234.9465236701341,69.46316300975013 L237.60024932857732,-59.75886142655241" stroke="#0d6d4d" stroke-width="0.1" fill="none" />
<path d="M234.22100068846586,71.87157182428726 L244.88380132977466,-7.54478934626173" stroke="#0d6d4d" stroke-width="0.1" fill="none" />
<path d="M233.47079010465336,74.27240515769566 L240.82840942255595,45.018631865059696" stroke="#0d6d4d" stroke-width="0.1" fill="none" />
<path d="M232.69597099316206,76.66540995487779 L225.62185189651365,95.49753895670642" stroke="#0d6d4d" stroke-width="0.1" fill="none" />
<path d="M231.89662502227065,79.05033398588768 L199.96824352727432,141.5545886950215" stroke="#0d6d4d" stroke-width="0.1" fill="none" />
<path d="M231.072836445463,81.42692587251658 L165.05543269340654,181.05718471906144" stroke="#0d6d4d" stroke-width="0.1" fill="none" />
<path d="M230.22469209254754,83.79493511478888 L122.49999999999999,212.1762239271875" stroke="#0d6d4d" stroke-width="0.1" fill="none" />
<path d="M229.35228136050537,86.15411211736551 L74.27240515769567,233.47079010465333" stroke="#0d6d4d" stroke-width="0.1" fill="none" />
<path d="M228.45569620406718,88.50420821585247 L22.60574806850895,243.95487319228346" stroke="#0d6d4d" stroke-width="0.1" fill="none" />
<path d="M227.53503112602124,90.84497570301038 L-30.10763121285495,243.14302486962424" stroke="#0d6d4d" stroke-width="0.1" fill="none" />
<path d="M226.59038316725238,93.17616785486379 L-81.42692587251656,231.072836445463" stroke="#0d6d4d" stroke-width="0.1" fill="none" />
<path d="M225.62185189651365,95.49753895670642 L-128.9758799049522,208.30319825375545" stroke="#0d6d4d" stroke-width="0.1" fill="none" />
<path d="M224.62953939993142,97.80884432900052 L-170.55281676091693,175.8884211507884" stroke="#0d6d4d" stroke-width="0.1" fill="none" />
<path d="M223.61355027024518,100.10984035316672 L-204.23258437917423,135.329418375324" stroke="#0d6d4d" stroke-width="0.1" fill="none" />
<path d="M222.5739915957833,102.40028449726195 L-228.45569620406718,88.50420821585247" stroke="#0d6d4d" stroke-width="0.1" fill="none" />
<path d="M221.51097294917543,104.67993534154327 L-242.10054065990857,37.58095544527786" stroke="#0d6d4d" stroke-width="0.1" fill="none" />
<path d="M220.4246063758031,106.94855260391445 L-244.5353155405758,-15.082422002815909" stroke="#0d6d4d" stroke-width="0.1" fill="none" />
<path d="M219.3150063819903,109.20589716525187 L-235.64728257734066,-67.04743256766028" stroke="#0d6d4d" stroke-width="0.1" fill="none" />
<path d="M218.1822899229335,111.45173109460883 L-215.8479876000173,-115.90792142482232" stroke="#0d6d4d" stroke-width="0.1" fill="none" />
<path d="M217.02657639037474,113.68581767429409 L-186.05420458040334,-159.40148355003922" stroke="#0d6d4d" stroke-width="0.1" fill="none" />
<path d="M215.84798760001723,115.90792142482243 L-147.64548591291785,-195.51422068365864" stroke="#0d6d4d" stroke-width="0.1" fill="none" />
<path d="M214.64664777868532,118.11780812973545 L-102.40028449726191,-222.57399159578333" stroke="#0d6d4d" stroke-width="0.1" fill="none" />
<path d="M213.42268355123113,120.31524486028803 L-52.413605385592,-239.32783785110215" stroke="#0d6d4d" stroke-width="0.1" fill="none" />
<path d="M212.17622392718752,122.49999999999994 L0.0,-245.0" stroke="#0d6d4d" stroke-width="0.1" fill="none" />
<path d="M210.9074002871701,124.67184326906937 L52.41360538559187,-239.32783785110217" stroke="#0d6d4d" stroke-width="0.1" fill="none" />
<path d="M209.61634636902966,126.8305457486444 L102.40028449726194,-222.5739915957833" stroke="#0d6d4d" stroke-width="0.1" fill="none" />
<path d="M208.3031982537555,128.9758799049521 L147.64548591291782,-195.51422068365866" stroke="#0d6d4d" stroke-width="0.1" fill="none" />
<path d="M206.96809435113192,131.10761961328166 L186.05420458040325,-159.40148355003933" stroke="#0d6d4d" stroke-width="0.1" fill="none" />
<path d="M205.61117538515006,133.2255401818175 L215.8479876000172,-115.90792142482246" stroke="#0d6d4d" stroke-width="0.1" fill="none" />
<path d="M204.23258437917428,135.3294183753239 L235.64728257734066,-67.04743256766028" stroke="#0d6d4d" stroke-width="0.1" fill="none" />
<path d="M202.83246664086786,137.4190324386736 L244.5353155405758,-15.082422002815967" stroke="#0d6d4d" stroke-width="0.1" fill="none" />
<path d="M201.41096974687673,139.49416212022177 L242.10054065990855,37.5809554452779" stroke="#0d6d4d" stroke-width="0.1" fill="none" />
<path d="M199.96824352727432,141.5545886950215 L228.45569620406718,88.50420821585247" stroke="#0d6d4d" stroke-width="0.1" fill="none" />
<path d="M198.5044400497695,143.6000949878776 L204.23258437917428,135.3294183753239" stroke="#0d6d4d" stroke-width="0.1" fill="none" />
<path d="M197.01971360367776,145.6304653962377 L170.55281676091704,175.88842115078825" stroke="#0d6d4d" stroke-width="0.1" fill="none" />
<path d="M195.5142206836587,147.6454859129178 L128.97587990495217,208.30319825375548" stroke="#0d6d4d" stroke-width="0.1" fill="none" />
<path d="M193.98811997322125,149.6449441486585 L81.42692587251662,231.07283644546297" stroke="#0d6d4d" stroke-width="0.1" fill="none" />
<path d="M192.44157232799776,151.62862935451207 L30.107631212854905,243.14302486962424" stroke="#0d6d4d" stroke-width="0.1" fill="none" />
<path d="M190.87474075878924,153.59633244405612 L-22.605748068509,243.95487319228346" stroke="#0d6d4d" stroke-width="0.1" fill="none" />
<path d="M189.28779041438398,155.54784601543108 L-74.27240515769564,233.47079010465336" stroke="#0d6d4d" stroke-width="0.1" fill="none" />
<path d="M187.68088856414965,157.48296437320212 L-122.49999999999994,212.17622392718752" stroke="#0d6d4d" stroke-width="0.1" fill="none" />
<path d="M186.05420458040325,159.40148355003933 L-165.05543269340652,181.05718471906147" stroke="#0d6d4d" stroke-width="0.1" fill="none" />
<path d="M184.40790992055852,161.30320132821657 L-199.9682435272743,141.55458869502158" stroke="#0d6d4d" stroke-width="0.1" fill="none" />
<path d="M182.74217810905364,163.18791726092627 L-225.62185189651365,95.49753895670642" stroke="#0d6d4d" stroke-width="0.1" fill="none" />
<path d="M181.05718471906147,165.05543269340652 L-240.82840942255592,45.01863186505986" stroke="#0d6d4d" stroke-width="0.1" fill="none" />
<path d="M179.35310735398363,166.90555078388022 L-244.88380132977466,-7.54478934626167" stroke="#0d6d4d" stroke-width="0.1" fill="none" />
<path d="M177.63012562873024,168.73807652430293 L-237.60024932857732,-59.7588614265524" stroke="#0d6d4d" stroke-width="0.1" fill="none" />
<path d="M175.88842115078828,170.552816760917 L-219.31500638199026,-109.20589716525194" stroke="#0d6d4d" stroke-width="0.1" fill="none" />
<path d="M174.12817750107968,172.3495802146106 L-190.87474075878933,-153.596332444056" stroke="#0d6d4d" stroke-width="0.1" fill="none" />
<path d="M172.34958021461065,174.12817750107962 L-153.59633244405612,-190.87474075878924" stroke="#0d6d4d" stroke-width="0.1" fill="none" />
<path d="M170.55281676091704,175.88842115078825 L-109.20589716525203,-219.3150063819902" stroke="#0d6d4d" stroke-width="0.1" fill="none" />
<path d="M168.73807652430298,177.6301256287302 L-59.75886142655229,-237.60024932857735" stroke="#0d6d4d" stroke-width="0.1" fill="none" />
<path d="M166.90555078388024,179.3531073539836 L-7.544789346261775,-244.88380132977466" stroke="#0d6d4d" stroke-width="0.1" fill="none" />
<path d="M165.05543269340654,181.05718471906144 L45.01863186505973,-240.82840942255595" stroke="#0d6d4d" stroke-width="0.1" fill="none" />
<path d="M163.1879172609263,182.74217810905358 L95.49753895670644,-225.62185189651365" stroke="#0d6d4d" stroke-width="0.1" fill="none" />
<path d="M161.30320132821663,184.4079099205585 L141.5545886950215,-199.96824352727432" stroke="#0d6d4d" stroke-width="0.1" fill="none" />
<path d="M159.4014835500394,186.05420458040322 L181.05718471906147,-165.05543269340654" stroke="#0d6d4d" stroke-width="0.1" fill="none" />
<path d="M157.48296437320218,187.6808885641496 L212.17622392718746,-122.50000000000003" stroke="#0d6d4d" stroke-width="0.1" fill="none" />
<path d="M155.5478460154311,189.28779041438392 L233.47079010465333,-74.27240515769566" stroke="#0d6d4d" stroke-width="0.1" fill="none" />
<path d="M153.59633244405617,190.8747407587892 L243.95487319228346,-22.60574806850899" stroke="#0d6d4d" stroke-width="0.1" fill="none" />
<path d="M151.62862935451213,192.44157232799773 L243.14302486962424,30.107631212854916" stroke="#0d6d4d" stroke-width="0.1" fill="none" />
<path d="M149.64494414865854,193.9881199732212 L231.072836445463,81.42692587251658" stroke="#0d6d4d" stroke-width="0.1" fill="none" />
<path d="M147.64548591291782,195.51422068365866 L208.3031982537555,128.9758799049521" stroke="#0d6d4d" stroke-width="0.1" fill="none" />
<path d="M145.63046539623775,197.01971360367773 L175.88842115078828,170.552816760917" stroke="#0d6d4d" stroke-width="0.1" fill="none" />
<path d="M143.60009498787767,198.50444004976947 L135.32941837532397,204.23258437917426" stroke="#0d6d4d" stroke-width="0.1" fill="none" />
<path d="M141.55458869502155,199.9682435272743 L88.50420821585256,228.45569620406715" stroke="#0d6d4d" stroke-width="0.1" fill="none" />
<path d="M139.49416212022183,201.41096974687667 L37.580955445277944,242.10054065990855" stroke="#0d6d4d" stroke-width="0.1" fill="none" />
<path d="M137.41903243867367,202.83246664086784 L-15.082422002815921,244.5353155405758" stroke="#0d6d4d" stroke-width="0.1" fill="none" />
<path d="M135.32941837532397,204.23258437917426 L-67.0474325676603,235.64728257734066" stroke="#0d6d4d" stroke-width="0.1" fill="none" />
<path d="M133.22554018181754,205.61117538515003 L-115.90792142482252,215.84798760001718" stroke="#0d6d4d" stroke-width="0.1" fill="none" />
<path d="M131.1076196132816,206.96809435113195 L-159.40148355003925,186.0542045804033" stroke="#0d6d4d" stroke-width="0.1" fill="none" />
<path d="M128.97587990495217,208.30319825375548 L-195.51422068365864,147.64548591291785" stroke="#0d6d4d" stroke-width="0.1" fill="none" />
<path d="M126.83054574864443,209.61634636902966 L-222.57399159578333,102.4002844972619" stroke="#0d6d4d" stroke-width="0.1" fill="none" />
<path d="M124.6718432690694,210.90740028717008 L-239.3278378511022,52.41360538559177" stroke="#0d6d4d" stroke-width="0.1" fill="none" />
<path d="M122.49999999999999,212.1762239271875 L-245.0,4.500576986866523e-14" stroke="#0d6d4d" stroke-width="0.1" fill="none" />
<path d="M120.31524486028808,213.4226835512311 L-239.32783785110223,-52.41360538559168" stroke="#0d6d4d" stroke-width="0.1" fill="none" />
<path d="M118.11780812973551,214.6466477786853 L-222.57399159578335,-102.40028449726182" stroke="#0d6d4d" stroke-width="0.1" fill="none" />
<path d="M115.90792142482248,215.8479876000172 L-195.51422068365872,-147.64548591291776" stroke="#0d6d4d" stroke-width="0.1" fill="none" />
<path d="M113.68581767429413,217.02657639037471 L-159.4014835500393,-186.05420458040325" stroke="#0d6d4d" stroke-width="0.1" fill="none" />
<path d="M111.45173109460887,218.18228992293348 L-115.9079214248226,-215.84798760001715" stroke="#0d6d4d" stroke-width="0.1" fill="none" />
<path d="M109.2058971652519,219.31500638199026 L-67.04743256766038,-235.64728257734063" stroke="#0d6d4d" stroke-width="0.1" fill="none" />
<path d="M106.94855260391446,220.42460637580308 L-15.082422002816228,-244.53531554057577" stroke="#0d6d4d" stroke-width="0.1" fill="none" />
<path d="M104.6799353415433,221.5109729491754 L37.58095544527791,-242.10054065990855" stroke="#0d6d4d" stroke-width="0.1" fill="none" />
<path d="M102.40028449726199,222.5739915957833 L88.50420821585247,-228.45569620406718" stroke="#0d6d4d" stroke-width="0.1" fill="none" />
<path d="M100.10984035316675,223.61355027024518 L135.3294183753239,-204.23258437917428" stroke="#0d6d4d" stroke-width="0.1" fill="none" />
<path d="M97.80884432900056,224.62953939993142 L175.88842115078825,-170.55281676091704" stroke="#0d6d4d" stroke-width="0.1" fill="none" />
<path d="M95.49753895670652,225.6218518965136 L208.30319825375545,-128.9758799049522" stroke="#0d6d4d" stroke-width="0.1" fill="none" />
<path d="M93.17616785486383,226.59038316725236 L231.07283644546297,-81.42692587251666" stroke="#0d6d4d" stroke-width="0.1" fill="none" />
<path d="M90.84497570301042,227.53503112602124 L243.14302486962424,-30.107631212854994" stroke="#0d6d4d" stroke-width="0.1" fill="none" />
<path d="M88.50420821585256,228.45569620406715 L243.95487319228346,22.605748068508962" stroke="#0d6d4d" stroke-width="0.1" fill="none" />
<path d="M86.15411211736556,229.35228136050534 L233.47079010465336,74.27240515769566" stroke="#0d6d4d" stroke-width="0.1" fill="none" />
<path d="M83.79493511478877,230.22469209254757 L212.17622392718752,122.49999999999994" stroke="#0d6d4d" stroke-width="0.1" fill="none" />
<path d="M81.42692587251662,231.07283644546297 L181.05718471906147,165.05543269340652" stroke="#0d6d4d" stroke-width="0.1" fill="none" />
<path d="M79.05033398588772,231.89662502227065 L141.55458869502155,199.9682435272743" stroke="#0d6d4d" stroke-width="0.1" fill="none" />
<path d="M76.66540995487787,232.69597099316204 L95.49753895670652,225.6218518965136" stroke="#0d6d4d" stroke-width="0.1" fill="none" />
<path d="M74.27240515769567,233.47079010465333 L45.01863186505974,240.82840942255595" stroke="#0d6d4d" stroke-width="0.1" fill="none" />
<path d="M71.8715718242873,234.22100068846584 L-7.544789346261686,244.88380132977466" stroke="#0d6d4d" stroke-width="0.1" fill="none" />
<path d="M69.46316300975023,234.94652367013407 L-59.75886142655231,237.60024932857735" stroke="#0d6d4d" stroke-width="0.1" fill="none" />
<path d="M67.04743256766035,235.64728257734066 L-109.20589716525186,219.3150063819903" stroke="#0d6d4d" stroke-width="0.1" fill="none" />
<path d="M64.62463512331553,236.3232035479765 L-153.59633244405603,190.8747407587893" stroke="#0d6d4d" stroke-width="0.1" fill="none" />
<path d="M62.19502604689703,236.97421533792615 L-190.87474075878924,153.59633244405612" stroke="#0d6d4d" stroke-width="0.1" fill="none" />
<path d="M59.75886142655247,237.6002493285773 L-219.3150063819902,109.20589716525201" stroke="#0d6d4d" stroke-width="0.1" fill="none" />
<path d="M57.31639804140382,238.20123953405314 L-237.6002493285773,59.758861426552485" stroke="#0d6d4d" stroke-width="0.1" fill="none" />
<path d="M54.86789333448225,238.77712260816753 L-244.88380132977466,7.54478934626176" stroke="#0d6d4d" stroke-width="0.1" fill="none" />
<path d="M52.41360538559186,239.32783785110217 L-240.82840942255595,-45.018631865059774" stroke="#0d6d4d" stroke-width="0.1" fill="none" />
<path d="M49.9537928841084,239.85332721580411 L-225.62185189651368,-95.49753895670635" stroke="#0d6d4d" stroke-width="0.1" fill="none" />
<path d="M47.48871510171219,240.35353531410436 L-199.96824352727435,-141.55458869502147" stroke="#0d6d4d" stroke-width="0.1" fill="none" />
<path d="M45.01863186505974,240.82840942255595 L-165.05543269340666,-181.05718471906135" stroke="#0d6d4d" stroke-width="0.1" fill="none" />
<path d="M42.54380352839802,241.27789948799096 L-122.49999999999991,-212.17622392718752" stroke="#0d6d4d" stroke-width="0.1" fill="none" />
<path d="M40.06449094612148,241.7019581327966 L-74.2724051576957,-233.47079010465333" stroke="#0d6d4d" stroke-width="0.1" fill="none" />
<path d="M37.580955445277944,242.10054065990855 L-22.605748068508984,-243.95487319228346" stroke="#0d6d4d" stroke-width="0.1" fill="none" />
<path d="M35.09345879802362,242.47360505752255 L30.107631212854958,-243.14302486962424" stroke="#0d6d4d" stroke-width="0.1" fill="none" />
<path d="M32.60226319403122,242.82111200352227 L81.4269258725166,-231.07283644546297" stroke="#0d6d4d" stroke-width="0.1" fill="none" />
<path d="M30.107631212854905,243.14302486962424 L128.97587990495217,-208.30319825375548" stroke="#0d6d4d" stroke-width="0.1" fill="none" />
<path d="M27.6098257962537,243.43930972523833 L170.55281676091704,-175.88842115078828" stroke="#0d6d4d" stroke-width="0.1" fill="none" />
<path d="M25.10911022047568,243.70993534104431 L204.23258437917426,-135.32941837532394" stroke="#0d6d4d" stroke-width="0.1" fill="none" />
<path d="M22.60574806850895,243.95487319228346 L228.45569620406718,-88.50420821585249" stroke="#0d6d4d" stroke-width="0.1" fill="none" />
<path d="M20.100003202298748,244.17409746176514 L242.10054065990855,-37.58095544527793" stroke="#0d6d4d" stroke-width="0.1" fill="none" />
<path d="M17.59213973493526,244.36758504258808 L244.5353155405758,15.08242200281599" stroke="#0d6d4d" stroke-width="0.1" fill="none" />
<path d="M15.082422002815983,244.5353155405758 L235.64728257734066,67.04743256766031" stroke="#0d6d4d" stroke-width="0.1" fill="none" />
<path d="M12.571114537783531,244.67727127642635 L215.84798760001723,115.90792142482243" stroke="#0d6d4d" stroke-width="0.1" fill="none" />
<path d="M10.058482039242849,244.79343728757564 L186.05420458040325,159.40148355003933" stroke="#0d6d4d" stroke-width="0.1" fill="none" />
<path d="M7.544789346261854,244.88380132977466 L147.64548591291782,195.51422068365866" stroke="#0d6d4d" stroke-width="0.1" fill="none" />
<path d="M5.030301409655734,244.9483538783799 L102.40028449726199,222.5739915957833" stroke="#0d6d4d" stroke-width="0.1" fill="none" />
<path d="M2.5152832640609777,244.9870881293574 L52.41360538559186,239.32783785110217" stroke="#0d6d4d" stroke-width="0.1" fill="none" />
<path d="M3.0003846579110155e-14,245.0 L3.0003846579110155e-14,245.0" stroke="#0d6d4d" stroke-width="0.1" fill="none" />
<path d="M-2.515283264061026,244.9870881293574 L-52.41360538559191,239.32783785110217" stroke="#0d6d4d" stroke-width="0.1" fill="none" />
<path d="M-5.030301409655674,244.9483538783799 L-102.40028449726184,222.57399159578335" stroke="#0d6d4d" stroke-width="0.1" fill="none" />
<path d="M-7.544789346261686,244.88380132977466 L-147.6454859129178,195.5142206836587" stroke="#0d6d4d" stroke-width="0.1" fill="none" />
<path d="M-10.058482039242788,244.79343728757564 L-186.05420458040325,159.4014835500393" stroke="#0d6d4d" stroke-width="0.1" fill="none" />
<path d="M-12.571114537783469,244.67727127642635 L-215.84798760001726,115.90792142482239" stroke="#0d6d4d" stroke-width="0.1" fill="none" />
<path d="M-15.082422002815921,244.5353155405758 L-235.64728257734066,67.04743256766037" stroke="#0d6d4d" stroke-width="0.1" fill="none" />
<path d="M-17.5921397349352,244.36758504258808 L-244.5353155405758,15.082422002815996" stroke="#0d6d4d" stroke-width="0.1" fill="none" />
<path d="M-20.100003202298577,244.17409746176517 L-242.10054065990857,-37.580955445277766" stroke="#0d6d4d" stroke-width="0.1" fill="none" />
<path d="M-22.605748068509,243.95487319228346 L-228.4556962040672,-88.5042082158524" stroke="#0d6d4d" stroke-width="0.1" fill="none" />
<path d="M-25.10911022047573,243.70993534104431 L-204.2325843791743,-135.32941837532388" stroke="#0d6d4d" stroke-width="0.1" fill="none" />
<path d="M-27.609825796253634,243.43930972523833 L-170.55281676091698,-175.8884211507883" stroke="#0d6d4d" stroke-width="0.1" fill="none" />
<path d="M-30.10763121285495,243.14302486962424 L-128.97587990495225,-208.30319825375543" stroke="#0d6d4d" stroke-width="0.1" fill="none" />
<path d="M-32.60226319403117,242.8211120035223 L-81.42692587251665,-231.07283644546297" stroke="#0d6d4d" stroke-width="0.1" fill="none" />
<path d="M-35.093458798023455,242.47360505752255 L-30.107631212854933,-243.14302486962424" stroke="#0d6d4d" stroke-width="0.1" fill="none" />
<path d="M-37.580955445277894,242.10054065990855 L22.605748068508987,-243.95487319228346" stroke="#0d6d4d" stroke-width="0.1" fill="none" />
<path d="M-40.064490946121424,241.7019581327966 L74.27240515769566,-233.47079010465336" stroke="#0d6d4d" stroke-width="0.1" fill="none" />
<path d="M-42.54380352839786,241.277899487991 L122.49999999999999,-212.1762239271875" stroke="#0d6d4d" stroke-width="0.1" fill="none" />
<path d="M-45.01863186505969,240.82840942255595 L165.05543269340652,-181.05718471906147" stroke="#0d6d4d" stroke-width="0.1" fill="none" />
<path d="M-47.48871510171213,240.35353531410436 L199.9682435272743,-141.55458869502155" stroke="#0d6d4d" stroke-width="0.1" fill="none" />
<path d="M-49.95379288410835,239.85332721580414 L225.62185189651365,-95.49753895670645" stroke="#0d6d4d" stroke-width="0.1" fill="none" />
<path d="M-52.41360538559191,239.32783785110217 L240.82840942255595,-45.01863186505978" stroke="#0d6d4d" stroke-width="0.1" fill="none" />
<path d="M-54.86789333448208,238.7771226081676 L244.88380132977466,7.5447893462617" stroke="#0d6d4d" stroke-width="0.1" fill="none" />
<path d="M-57.31639804140388,238.20123953405312 L237.60024932857732,59.758861426552436" stroke="#0d6d4d" stroke-width="0.1" fill="none" />
<path d="M-59.75886142655231,237.60024932857735 L219.3150063819903,109.20589716525187" stroke="#0d6d4d" stroke-width="0.1" fill="none" />
<path d="M-62.19502604689688,236.9742153379262 L190.87474075878924,153.59633244405612" stroke="#0d6d4d" stroke-width="0.1" fill="none" />
<path d="M-64.62463512331558,236.32320354797648 L153.59633244405617,190.8747407587892" stroke="#0d6d4d" stroke-width="0.1" fill="none" />
<path d="M-67.0474325676603,235.64728257734066 L109.2058971652519,219.31500638199026" stroke="#0d6d4d" stroke-width="0.1" fill="none" />
<path d="M-69.46316300975018,234.94652367013407 L59.75886142655247,237.6002493285773" stroke="#0d6d4d" stroke-width="0.1" fill="none" />
<path d="M-71.87157182428724,234.22100068846586 L7.544789346261854,244.88380132977466" stroke="#0d6d4d" stroke-width="0.1" fill="none" />
<path d="M-74.27240515769564,233.47079010465336 L-45.01863186505969,240.82840942255595" stroke="#0d6d4d" stroke-width="0.1" fill="none" />
<path d="M-76.66540995487772,232.6959709931621 L-95.49753895670646,225.62185189651362" stroke="#0d6d4d" stroke-width="0.1" fill="none" />
<path d="M-79.05033398588778,231.89662502227063 L-141.5545886950215,199.96824352727432" stroke="#0d6d4d" stroke-width="0.1" fill="none" />
<path d="M-81.42692587251656,231.072836445463 L-181.05718471906147,165.0554326934065" stroke="#0d6d4d" stroke-width="0.1" fill="none" />
<path d="M-83.79493511478883,230.22469209254757 L-212.1762239271874,122.50000000000011" stroke="#0d6d4d" stroke-width="0.1" fill="none" />
<path d="M-86.15411211736541,229.3522813605054 L-233.47079010465333,74.27240515769569" stroke="#0d6d4d" stroke-width="0.1" fill="none" />
<path d="M-88.50420821585242,228.4556962040672 L-243.95487319228346,22.605748068508966" stroke="#0d6d4d" stroke-width="0.1" fill="none" />
<path d="M-90.84497570301048,227.5350311260212 L-243.14302486962424,-30.107631212855047" stroke="#0d6d4d" stroke-width="0.1" fill="none" />
<path d="M-93.17616785486378,226.59038316725238 L-231.072836445463,-81.42692587251655" stroke="#0d6d4d" stroke-width="0.1" fill="none" />
<path d="M-95.49753895670646,225.62185189651362 L-208.30319825375548,-128.97587990495217" stroke="#0d6d4d" stroke-width="0.1" fill="none" />
<path d="M-97.80884432900051,224.62953939993142 L-175.8884211507884,-170.5528167609169" stroke="#0d6d4d" stroke-width="0.1" fill="none" />
<path d="M-100.1098403531667,223.61355027024518 L-135.3294183753238,-204.23258437917437" stroke="#0d6d4d" stroke-width="0.1" fill="none" />
<path d="M-102.40028449726184,222.57399159578335 L-88.50420821585249,-228.45569620406718" stroke="#0d6d4d" stroke-width="0.1" fill="none" />
<path d="M-104.67993534154336,221.51097294917537 L-37.580955445278086,-242.10054065990852" stroke="#0d6d4d" stroke-width="0.1" fill="none" />
<path d="M-106.94855260391444,220.4246063758031 L15.082422002815994,-244.5353155405758" stroke="#0d6d4d" stroke-width="0.1" fill="none" />
<path d="M-109.20589716525186,219.3150063819903 L67.0474325676603,-235.64728257734066" stroke="#0d6d4d" stroke-width="0.1" fill="none" />
<path d="M-111.45173109460872,218.18228992293353 L115.90792142482246,-215.8479876000172" stroke="#0d6d4d" stroke-width="0.1" fill="none" />
<path d="M-113.68581767429397,217.0265763903748 L159.4014835500393,-186.05420458040325" stroke="#0d6d4d" stroke-width="0.1" fill="none" />
<path d="M-115.90792142482252,215.84798760001718 L195.51422068365866,-147.64548591291782" stroke="#0d6d4d" stroke-width="0.1" fill="none" />
<path d="M-118.11780812973545,214.64664777868532 L222.57399159578333,-102.40028449726192" stroke="#0d6d4d" stroke-width="0.1" fill="none" />
<path d="M-120.31524486028803,213.42268355123113 L239.32783785110217,-52.4136053855919" stroke="#0d6d4d" stroke-width="0.1" fill="none" />
<path d="M-122.49999999999994,212.17622392718752 L245.0,-1.5001923289555078e-14" stroke="#0d6d4d" stroke-width="0.1" fill="none" />
<path d="M-124.67184326906937,210.9074002871701 L239.3278378511022,52.413605385591815" stroke="#0d6d4d" stroke-width="0.1" fill="none" />
<path d="M-126.8305457486443,209.61634636902974 L222.5739915957833,102.40028449726195" stroke="#0d6d4d" stroke-width="0.1" fill="none" />
<path d="M-128.9758799049522,208.30319825375545 L195.5142206836587,147.6454859129178" stroke="#0d6d4d" stroke-width="0.1" fill="none" />
<path d="M-131.10761961328154,206.96809435113198 L159.4014835500394,186.05420458040322" stroke="#0d6d4d" stroke-width="0.1" fill="none" />
<path d="M-133.2255401818175,205.61117538515006 L115.90792142482248,215.8479876000172" stroke="#0d6d4d" stroke-width="0.1" fill="none" />
<path d="M-135.329418375324,204.2325843791742 L67.04743256766035,235.64728257734066" stroke="#0d6d4d" stroke-width="0.1" fill="none" />
<path d="M-137.41903243867353,202.83246664086792 L15.082422002815983,244.5353155405758" stroke="#0d6d4d" stroke-width="0.1" fill="none" />
<path d="M-139.49416212022186,201.41096974687665 L-37.580955445277894,242.10054065990855" stroke="#0d6d4d" stroke-width="0.1" fill="none" />
<path d="M-141.5545886950215,199.96824352727432 L-88.50420821585242,228.4556962040672" stroke="#0d6d4d" stroke-width="0.1" fill="none" />
<path d="M-143.6000949878776,198.5044400497695 L-135.329418375324,204.2325843791742" stroke="#0d6d4d" stroke-width="0.1" fill="none" />
<path d="M-145.6304653962377,197.01971360367776 L-175.88842115078822,170.55281676091707" stroke="#0d6d4d" stroke-width="0.1" fill="none" />
<path d="M-147.6454859129178,195.5142206836587 L-208.30319825375543,128.97587990495225" stroke="#0d6d4d" stroke-width="0.1" fill="none" />
<path d="M-149.64494414865842,193.9881199732213 L-231.07283644546297,81.42692587251663" stroke="#0d6d4d" stroke-width="0.1" fill="none" />
<path d="M-151.62862935451219,192.4415723279977 L-243.14302486962424,30.107631212855136" stroke="#0d6d4d" stroke-width="0.1" fill="none" />
<path d="M-153.59633244405603,190.8747407587893 L-243.95487319228346,-22.60574806850888" stroke="#0d6d4d" stroke-width="0.1" fill="none" />
<path d="M-155.54784601543108,189.28779041438398 L-233.47079010465336,-74.27240515769563" stroke="#0d6d4d" stroke-width="0.1" fill="none" />
<path d="M-157.48296437320224,187.68088856414957 L-212.17622392718746,-122.5" stroke="#0d6d4d" stroke-width="0.1" fill="none" />
<path d="M-159.40148355003925,186.0542045804033 L-181.05718471906158,-165.0554326934064" stroke="#0d6d4d" stroke-width="0.1" fill="none" />
<path d="M-161.30320132821666,184.40790992055847 L-141.55458869502158,-199.9682435272743" stroke="#0d6d4d" stroke-width="0.1" fill="none" />
<path d="M-163.18791726092627,182.74217810905364 L-95.49753895670663,-225.62185189651353" stroke="#0d6d4d" stroke-width="0.1" fill="none" />
<path d="M-165.05543269340652,181.05718471906147 L-45.01863186505967,-240.82840942255595" stroke="#0d6d4d" stroke-width="0.1" fill="none" />
<path d="M-166.90555078388022,179.35310735398363 L7.544789346261736,-244.88380132977466" stroke="#0d6d4d" stroke-width="0.1" fill="none" />
<path d="M-168.73807652430293,177.63012562873024 L59.7588614265524,-237.60024932857732" stroke="#0d6d4d" stroke-width="0.1" fill="none" />
<path d="M-170.55281676091693,175.8884211507884 L109.20589716525187,-219.3150063819903" stroke="#0d6d4d" stroke-width="0.1" fill="none" />
<path d="M-172.34958021461068,174.12817750107956 L153.5963324440561,-190.87474075878927" stroke="#0d6d4d" stroke-width="0.1" fill="none" />
<path d="M-174.1281775010795,172.34958021461077 L190.87474075878924,-153.59633244405612" stroke="#0d6d4d" stroke-width="0.1" fill="none" />
<path d="M-175.88842115078822,170.55281676091707 L219.3150063819903,-109.20589716525188" stroke="#0d6d4d" stroke-width="0.1" fill="none" />
<path d="M-177.63012562873027,168.73807652430293 L237.60024932857732,-59.75886142655241" stroke="#0d6d4d" stroke-width="0.1" fill="none" />
<path d="M-179.35310735398355,166.90555078388036 L244.88380132977466,-7.54478934626173" stroke="#0d6d4d" stroke-width="0.1" fill="none" />
<path d="M-181.05718471906147,165.0554326934065 L240.82840942255595,45.018631865059696" stroke="#0d6d4d" stroke-width="0.1" fill="none" />
<path d="M-182.74217810905358,163.18791726092633 L225.62185189651365,95.49753895670642" stroke="#0d6d4d" stroke-width="0.1" fill="none" />
<path d="M-184.4079099205585,161.30320132821663 L199.96824352727432,141.5545886950215" stroke="#0d6d4d" stroke-width="0.1" fill="none" />
<path d="M-186.05420458040325,159.4014835500393 L165.05543269340654,181.05718471906144" stroke="#0d6d4d" stroke-width="0.1" fill="none" />
<path d="M-187.6808885641496,157.4829643732022 L122.49999999999999,212.1762239271875" stroke="#0d6d4d" stroke-width="0.1" fill="none" />
<path d="M-189.28779041438384,155.54784601543122 L74.27240515769567,233.47079010465333" stroke="#0d6d4d" stroke-width="0.1" fill="none" />
<path d="M-190.87474075878924,153.59633244405612 L22.60574806850895,243.95487319228346" stroke="#0d6d4d" stroke-width="0.1" fill="none" />
<path d="M-192.44157232799765,151.6286293545122 L-30.10763121285495,243.14302486962424" stroke="#0d6d4d" stroke-width="0.1" fill="none" />
<path d="M-193.98811997322125,149.64494414865848 L-81.42692587251656,231.072836445463" stroke="#0d6d4d" stroke-width="0.1" fill="none" />
<path d="M-195.51422068365864,147.64548591291785 L-128.9758799049522,208.30319825375545" stroke="#0d6d4d" stroke-width="0.1" fill="none" />
<path d="M-197.01971360367764,145.63046539623787 L-170.55281676091693,175.8884211507884" stroke="#0d6d4d" stroke-width="0.1" fill="none" />
<path d="M-198.50444004976953,143.60009498787758 L-204.23258437917423,135.329418375324" stroke="#0d6d4d" stroke-width="0.1" fill="none" />
<path d="M-199.9682435272743,141.55458869502158 L-228.45569620406718,88.50420821585247" stroke="#0d6d4d" stroke-width="0.1" fill="none" />
<path d="M-201.41096974687673,139.49416212022174 L-242.10054065990857,37.58095544527786" stroke="#0d6d4d" stroke-width="0.1" fill="none" />
<path d="M-202.83246664086786,137.4190324386736 L-244.5353155405758,-15.082422002815909" stroke="#0d6d4d" stroke-width="0.1" fill="none" />
<path d="M-204.23258437917423,135.329418375324 L-235.64728257734066,-67.04743256766028" stroke="#0d6d4d" stroke-width="0.1" fill="none" />
<path d="M-205.61117538514995,133.22554018181765 L-215.8479876000173,-115.90792142482232" stroke="#0d6d4d" stroke-width="0.1" fill="none" />
<path d="M-206.96809435113195,131.10761961328163 L-186.05420458040334,-159.40148355003922" stroke="#0d6d4d" stroke-width="0.1" fill="none" />
<path d="M-208.30319825375543,128.97587990495225 L-147.64548591291785,-195.51422068365864" stroke="#0d6d4d" stroke-width="0.1" fill="none" />
<path d="M-209.61634636902969,126.83054574864437 L-102.40028449726191,-222.57399159578333" stroke="#0d6d4d" stroke-width="0.1" fill="none" />
<path d="M-210.90740028717008,124.67184326906943 L-52.413605385592,-239.32783785110215" stroke="#0d6d4d" stroke-width="0.1" fill="none" />
<path d="M-212.1762239271874,122.50000000000011 L0.0,-245.0" stroke="#0d6d4d" stroke-width="0.1" fill="none" />
<path d="M-213.42268355123113,120.315244860288 L52.41360538559187,-239.32783785110217" stroke="#0d6d4d" stroke-width="0.1" fill="none" />
<path d="M-214.6466477786853,118.11780812973554 L102.40028449726194,-222.5739915957833" stroke="#0d6d4d" stroke-width="0.1" fill="none" />
<path d="M-215.84798760001726,115.90792142482239 L147.64548591291782,-195.51422068365866" stroke="#0d6d4d" stroke-width="0.1" fill="none" />
<path d="M-217.02657639037477,113.68581767429404 L186.05420458040325,-159.40148355003933" stroke="#0d6d4d" stroke-width="0.1" fill="none" />
<path d="M-218.18228992293348,111.45173109460889 L215.8479876000172,-115.90792142482246" stroke="#0d6d4d" stroke-width="0.1" fill="none" />
<path d="M-219.3150063819902,109.20589716525201 L235.64728257734066,-67.04743256766028" stroke="#0d6d4d" stroke-width="0.1" fill="none" />
<path d="M-220.42460637580308,106.94855260391448 L244.5353155405758,-15.082422002815967" stroke="#0d6d4d" stroke-width="0.1" fill="none" />
<path d="M-221.51097294917545,104.67993534154321 L242.10054065990855,37.5809554452779" stroke="#0d6d4d" stroke-width="0.1" fill="none" />
<path d="M-222.57399159578333,102.4002844972619 L228.45569620406718,88.50420821585247" stroke="#0d6d4d" stroke-width="0.1" fill="none" />
<path d="M-223.61355027024516,100.10984035316676 L204.23258437917428,135.3294183753239" stroke="#0d6d4d" stroke-width="0.1" fill="none" />
<path d="M-224.62953939993136,97.80884432900068 L170.55281676091704,175.88842115078825" stroke="#0d6d4d" stroke-width="0.1" fill="none" />
<path d="M-225.62185189651365,95.49753895670642 L128.97587990495217,208.30319825375548" stroke="#0d6d4d" stroke-width="0.1" fill="none" />
<path d="M-226.59038316725236,93.17616785486385 L81.42692587251662,231.07283644546297" stroke="#0d6d4d" stroke-width="0.1" fill="none" />
<path d="M-227.53503112602127,90.84497570301032 L30.107631212854905,243.14302486962424" stroke="#0d6d4d" stroke-width="0.1" fill="none" />
<path d="M-228.45569620406718,88.50420821585247 L-22.605748068509,243.95487319228346" stroke="#0d6d4d" stroke-width="0.1" fill="none" />
<path d="M-229.35228136050534,86.15411211736557 L-74.27240515769564,233.47079010465336" stroke="#0d6d4d" stroke-width="0.1" fill="none" />
<path d="M-230.2246920925475,83.79493511478898 L-122.49999999999994,212.17622392718752" stroke="#0d6d4d" stroke-width="0.1" fill="none" />
<path d="M-231.07283644546297,81.42692587251663 L-165.05543269340652,181.05718471906147" stroke="#0d6d4d" stroke-width="0.1" fill="none" />
<path d="M-231.89662502227068,79.05033398588763 L-199.9682435272743,141.55458869502158" stroke="#0d6d4d" stroke-width="0.1" fill="none" />
<path d="M-232.69597099316206,76.66540995487779 L-225.62185189651365,95.49753895670642" stroke="#0d6d4d" stroke-width="0.1" fill="none" />
<path d="M-233.47079010465333,74.27240515769569 L-240.82840942255592,45.01863186505986" stroke="#0d6d4d" stroke-width="0.1" fill="none" />
<path d="M-234.2210006884658,71.8715718242874 L-244.88380132977466,-7.54478934626167" stroke="#0d6d4d" stroke-width="0.1" fill="none" />
<path d="M-234.9465236701341,69.46316300975013 L-237.60024932857732,-59.7588614265524" stroke="#0d6d4d" stroke-width="0.1" fill="none" />
<path d="M-235.64728257734066,67.04743256766037 L-219.31500638199026,-109.20589716525194" stroke="#0d6d4d" stroke-width="0.1" fill="none" />
<path d="M-236.32320354797653,64.62463512331543 L-190.87474075878933,-153.596332444056" stroke="#0d6d4d" stroke-width="0.1" fill="none" />
<path d="M-236.97421533792618,62.19502604689693 L-153.59633244405612,-190.87474075878924" stroke="#0d6d4d" stroke-width="0.1" fill="none" />
<path d="M-237.6002493285773,59.758861426552485 L-109.20589716525203,-219.3150063819902" stroke="#0d6d4d" stroke-width="0.1" fill="none" />
<path d="M-238.20123953405306,57.31639804140406 L-59.75886142655229,-237.60024932857735" stroke="#0d6d4d" stroke-width="0.1" fill="none" />
<path d="M-238.77712260816753,54.86789333448227 L-7.544789346261775,-244.88380132977466" stroke="#0d6d4d" stroke-width="0.1" fill="none" />
<path d="M-239.3278378511022,52.41360538559177 L45.01863186505973,-240.82840942255595" stroke="#0d6d4d" stroke-width="0.1" fill="none" />
<path d="M-239.85332721580411,49.953792884108424 L95.49753895670644,-225.62185189651365" stroke="#0d6d4d" stroke-width="0.1" fill="none" />
<path d="M-240.35353531410436,47.48871510171221 L141.5545886950215,-199.96824352727432" stroke="#0d6d4d" stroke-width="0.1" fill="none" />
<path d="M-240.82840942255592,45.01863186505986 L181.05718471906147,-165.05543269340654" stroke="#0d6d4d" stroke-width="0.1" fill="none" />
<path d="M-241.27789948799096,42.54380352839793 L212.17622392718746,-122.50000000000003" stroke="#0d6d4d" stroke-width="0.1" fill="none" />
<path d="M-241.7019581327966,40.0644909461215 L233.47079010465333,-74.27240515769566" stroke="#0d6d4d" stroke-width="0.1" fill="none" />
<path d="M-242.10054065990857,37.58095544527786 L243.95487319228346,-22.60574806850899" stroke="#0d6d4d" stroke-width="0.1" fill="none" />
<path d="M-242.47360505752255,35.09345879802353 L243.14302486962424,30.107631212854916" stroke="#0d6d4d" stroke-width="0.1" fill="none" />
<path d="M-242.82111200352227,32.60226319403124 L231.072836445463,81.42692587251658" stroke="#0d6d4d" stroke-width="0.1" fill="none" />
<path d="M-243.14302486962424,30.107631212855136 L208.3031982537555,128.9758799049521" stroke="#0d6d4d" stroke-width="0.1" fill="none" />
<path d="M-243.43930972523833,27.609825796253713 L175.88842115078828,170.552816760917" stroke="#0d6d4d" stroke-width="0.1" fill="none" />
<path d="M-243.70993534104434,25.109110220475586 L135.32941837532397,204.23258437917426" stroke="#0d6d4d" stroke-width="0.1" fill="none" />
<path d="M-243.95487319228346,22.605748068508966 L88.50420821585256,228.45569620406715" stroke="#0d6d4d" stroke-width="0.1" fill="none" />
<path d="M-244.17409746176514,20.100003202298762 L37.580955445277944,242.10054065990855" stroke="#0d6d4d" stroke-width="0.1" fill="none" />
<path d="M-244.36758504258808,17.592139734935383 L-15.082422002815921,244.5353155405758" stroke="#0d6d4d" stroke-width="0.1" fill="none" />
<path d="M-244.5353155405758,15.082422002815996 L-67.0474325676603,235.64728257734066" stroke="#0d6d4d" stroke-width="0.1" fill="none" />
<path d="M-244.67727127642635,12.571114537783545 L-115.90792142482252,215.84798760001718" stroke="#0d6d4d" stroke-width="0.1" fill="none" />
<path d="M-244.79343728757564,10.058482039242755 L-159.40148355003925,186.0542045804033" stroke="#0d6d4d" stroke-width="0.1" fill="none" />
<path d="M-244.88380132977466,7.54478934626176 L-195.51422068365864,147.64548591291785" stroke="#0d6d4d" stroke-width="0.1" fill="none" />
<path d="M-244.9483538783799,5.030301409655749 L-222.57399159578333,102.4002844972619" stroke="#0d6d4d" stroke-width="0.1" fill="none" />
<path d="M-244.9870881293574,2.51528326406121 L-239.3278378511022,52.41360538559177" stroke="#0d6d4d" stroke-width="0.1" fill="none" />
<path d="M-245.0,4.500576986866523e-14 L-245.0,4.500576986866523e-14" stroke="#0d6d4d" stroke-width="0.1" fill="none" />
<path d="M-244.9870881293574,-2.51528326406112 L-239.32783785110223,-52.41360538559168" stroke="#0d6d4d" stroke-width="0.1" fill="none" />
<path d="M-244.9483538783799,-5.030301409655658 L-222.57399159578335,-102.40028449726182" stroke="#0d6d4d" stroke-width="0.1" fill="none" />
<path d="M-244.88380132977466,-7.54478934626167 L-195.51422068365872,-147.64548591291776" stroke="#0d6d4d" stroke-width="0.1" fill="none" />
<path d="M-244.79343728757567,-10.058482039242666 L-159.4014835500393,-186.05420458040325" stroke="#0d6d4d" stroke-width="0.1" fill="none" />
<path d="M-244.67727127642635,-12.571114537783457 L-115.9079214248226,-215.84798760001715" stroke="#0d6d4d" stroke-width="0.1" fill="none" />
<path d="M-244.5353155405758,-15.082422002815909 L-67.04743256766038,-235.64728257734063" stroke="#0d6d4d" stroke-width="0.1" fill="none" />
<path d="M-244.36758504258808,-17.592139734935294 L-15.082422002816228,-244.53531554057577" stroke="#0d6d4d" stroke-width="0.1" fill="none" />
<path d="M-244.17409746176514,-20.100003202298673 L37.58095544527791,-242.10054065990855" stroke="#0d6d4d" stroke-width="0.1" fill="none" />
<path d="M-243.95487319228346,-22.60574806850888 L88.50420821585247,-228.45569620406718" stroke="#0d6d4d" stroke-width="0.1" fill="none" />
<path d="M-243.70993534104434,-25.1091102204755 L135.3294183753239,-204.23258437917428" stroke="#0d6d4d" stroke-width="0.1" fill="none" />
<path d="M-243.43930972523833,-27.609825796253624 L175.88842115078825,-170.55281676091704" stroke="#0d6d4d" stroke-width="0.1" fill="none" />
<path d="M-243.14302486962424,-30.107631212855047 L208.30319825375545,-128.9758799049522" stroke="#0d6d4d" stroke-width="0.1" fill="none" />
<path d="M-242.8211120035223,-32.60226319403115 L231.07283644546297,-81.42692587251666" stroke="#0d6d4d" stroke-width="0.1" fill="none" />
<path d="M-242.47360505752255,-35.093458798023434 L243.14302486962424,-30.107631212854994" stroke="#0d6d4d" stroke-width="0.1" fill="none" />
<path d="M-242.10054065990857,-37.580955445277766 L243.95487319228346,22.605748068508962" stroke="#0d6d4d" stroke-width="0.1" fill="none" />
<path d="M-241.7019581327966,-40.06449094612141 L233.47079010465336,74.27240515769566" stroke="#0d6d4d" stroke-width="0.1" fill="none" />
<path d="M-241.277899487991,-42.543803528397845 L212.17622392718752,122.49999999999994" stroke="#0d6d4d" stroke-width="0.1" fill="none" />
<path d="M-240.82840942255595,-45.018631865059774 L181.05718471906147,165.05543269340652" stroke="#0d6d4d" stroke-width="0.1" fill="none" />
<path d="M-240.35353531410436,-47.48871510171212 L141.55458869502155,199.9682435272743" stroke="#0d6d4d" stroke-width="0.1" fill="none" />
<path d="M-239.85332721580414,-49.95379288410833 L95.49753895670652,225.6218518965136" stroke="#0d6d4d" stroke-width="0.1" fill="none" />
<path d="M-239.32783785110223,-52.41360538559168 L45.01863186505974,240.82840942255595" stroke="#0d6d4d" stroke-width="0.1" fill="none" />
<path d="M-238.77712260816756,-54.86789333448217 L-7.544789346261686,244.88380132977466" stroke="#0d6d4d" stroke-width="0.1" fill="none" />
<path d="M-238.2012395340531,-57.31639804140396 L-59.75886142655231,237.60024932857735" stroke="#0d6d4d" stroke-width="0.1" fill="none" />
<path d="M-237.60024932857732,-59.7588614265524 L-109.20589716525186,219.3150063819903" stroke="#0d6d4d" stroke-width="0.1" fill="none" />
<path d="M-236.9742153379262,-62.195026046896864 L-153.59633244405603,190.8747407587893" stroke="#0d6d4d" stroke-width="0.1" fill="none" />
<path d="M-236.32320354797656,-64.62463512331534 L-190.87474075878924,153.59633244405612" stroke="#0d6d4d" stroke-width="0.1" fill="none" />
<path d="M-235.64728257734066,-67.04743256766028 L-219.3150063819902,109.20589716525201" stroke="#0d6d4d" stroke-width="0.1" fill="none" />
<path d="M-234.94652367013413,-69.46316300975005 L-237.6002493285773,59.758861426552485" stroke="#0d6d4d" stroke-width="0.1" fill="none" />
<path d="M-234.22100068846584,-71.87157182428733 L-244.88380132977466,7.54478934626176" stroke="#0d6d4d" stroke-width="0.1" fill="none" />
<path d="M-233.47079010465336,-74.27240515769563 L-240.82840942255595,-45.018631865059774" stroke="#0d6d4d" stroke-width="0.1" fill="none" />
<path d="M-232.6959709931621,-76.6654099548777 L-225.62185189651368,-95.49753895670635" stroke="#0d6d4d" stroke-width="0.1" fill="none" />
<path d="M-231.89662502227065,-79.05033398588776 L-199.96824352727435,-141.55458869502147" stroke="#0d6d4d" stroke-width="0.1" fill="none" />
<path d="M-231.072836445463,-81.42692587251655 L-165.05543269340666,-181.05718471906135" stroke="#0d6d4d" stroke-width="0.1" fill="none" />
<path d="M-230.22469209254754,-83.79493511478891 L-122.49999999999991,-212.17622392718752" stroke="#0d6d4d" stroke-width="0.1" fill="none" />
<path d="M-229.35228136050537,-86.15411211736549 L-74.2724051576957,-233.47079010465333" stroke="#0d6d4d" stroke-width="0.1" fill="none" />
<path d="M-228.4556962040672,-88.5042082158524 L-22.605748068508984,-243.95487319228346" stroke="#0d6d4d" stroke-width="0.1" fill="none" />
<path d="M-227.5350311260213,-90.84497570301025 L30.107631212854958,-243.14302486962424" stroke="#0d6d4d" stroke-width="0.1" fill="none" />
<path d="M-226.59038316725238,-93.17616785486376 L81.4269258725166,-231.07283644546297" stroke="#0d6d4d" stroke-width="0.1" fill="none" />
<path d="M-225.62185189651368,-95.49753895670635 L128.97587990495217,-208.30319825375548" stroke="#0d6d4d" stroke-width="0.1" fill="none" />
<path d="M-224.6295393999314,-97.8088443290006 L170.55281676091704,-175.88842115078828" stroke="#0d6d4d" stroke-width="0.1" fill="none" />
<path d="M-223.61355027024518,-100.10984035316669 L204.23258437917426,-135.32941837532394" stroke="#0d6d4d" stroke-width="0.1" fill="none" />
<path d="M-222.57399159578335,-102.40028449726182 L228.45569620406718,-88.50420821585249" stroke="#0d6d4d" stroke-width="0.1" fill="none" />
<path d="M-221.5109729491754,-104.67993534154334 L242.10054065990855,-37.58095544527793" stroke="#0d6d4d" stroke-width="0.1" fill="none" />
<path d="M-220.42460637580314,-106.94855260391442 L244.5353155405758,15.08242200281599" stroke="#0d6d4d" stroke-width="0.1" fill="none" />
<path d="M-219.31500638199026,-109.20589716525194 L235.64728257734066,67.04743256766031" stroke="#0d6d4d" stroke-width="0.1" fill="none" />
<path d="M-218.1822899229335,-111.45173109460882 L215.84798760001723,115.90792142482243" stroke="#0d6d4d" stroke-width="0.1" fill="none" />
<path d="M-217.0265763903748,-113.68581767429396 L186.05420458040325,159.40148355003933" stroke="#0d6d4d" stroke-width="0.1" fill="none" />
<path d="M-215.8479876000173,-115.90792142482232 L147.64548591291782,195.51422068365866" stroke="#0d6d4d" stroke-width="0.1" fill="none" />
<path d="M-214.64664777868535,-118.11780812973544 L102.40028449726199,222.5739915957833" stroke="#0d6d4d" stroke-width="0.1" fill="none" />
<path d="M-213.4226835512312,-120.3152448602879 L52.41360538559186,239.32783785110217" stroke="#0d6d4d" stroke-width="0.1" fill="none" />
<path d="M-212.17622392718746,-122.5 L3.0003846579110155e-14,245.0" stroke="#0d6d4d" stroke-width="0.1" fill="none" />
<path d="M-210.90740028717013,-124.67184326906934 L-52.41360538559191,239.32783785110217" stroke="#0d6d4d" stroke-width="0.1" fill="none" />
<path d="M-209.61634636902974,-126.83054574864427 L-102.40028449726184,222.57399159578335" stroke="#0d6d4d" stroke-width="0.1" fill="none" />
<path d="M-208.30319825375548,-128.97587990495217 L-147.6454859129178,195.5142206836587" stroke="#0d6d4d" stroke-width="0.1" fill="none" />
<path d="M-206.968094351132,-131.10761961328154 L-186.05420458040325,159.4014835500393" stroke="#0d6d4d" stroke-width="0.1" fill="none" />
<path d="M-205.61117538515,-133.22554018181756 L-215.84798760001726,115.90792142482239" stroke="#0d6d4d" stroke-width="0.1" fill="none" />
<path d="M-204.2325843791743,-135.32941837532388 L-235.64728257734066,67.04743256766037" stroke="#0d6d4d" stroke-width="0.1" fill="none" />
<path d="M-202.83246664086795,-137.4190324386735 L-244.5353155405758,15.082422002815996" stroke="#0d6d4d" stroke-width="0.1" fill="none" />
<path d="M-201.4109697468768,-139.49416212022166 L-242.10054065990857,-37.580955445277766" stroke="#0d6d4d" stroke-width="0.1" fill="none" />
<path d="M-199.96824352727435,-141.55458869502147 L-228.4556962040672,-88.5042082158524" stroke="#0d6d4d" stroke-width="0.1" fill="none" />
<path d="M-198.50444004976958,-143.6000949878775 L-204.2325843791743,-135.32941837532388" stroke="#0d6d4d" stroke-width="0.1" fill="none" />
<path d="M-197.0197136036777,-145.63046539623778 L-170.55281676091698,-175.8884211507883" stroke="#0d6d4d" stroke-width="0.1" fill="none" />
<path d="M-195.51422068365872,-147.64548591291776 L-128.97587990495225,-208.30319825375543" stroke="#0d6d4d" stroke-width="0.1" fill="none" />
<path d="M-193.98811997322133,-149.6449441486584 L-81.42692587251665,-231.07283644546297" stroke="#0d6d4d" stroke-width="0.1" fill="none" />
<path d="M-192.44157232799773,-151.62862935451216 L-30.107631212854933,-243.14302486962424" stroke="#0d6d4d" stroke-width="0.1" fill="none" />
<path d="M-190.87474075878933,-153.596332444056 L22.605748068508987,-243.95487319228346" stroke="#0d6d4d" stroke-width="0.1" fill="none" />
<path d="M-189.28779041438392,-155.54784601543113 L74.27240515769566,-233.47079010465336" stroke="#0d6d4d" stroke-width="0.1" fill="none" />
<path d="M-187.68088856414965,-157.48296437320212 L122.49999999999999,-212.1762239271875" stroke="#0d6d4d" stroke-width="0.1" fill="none" />
<path d="M-186.05420458040334,-159.40148355003922 L165.05543269340652,-181.05718471906147" stroke="#0d6d4d" stroke-width="0.1" fill="none" />
<path d="M-184.4079099205586,-161.30320132821646 L199.9682435272743,-141.55458869502155" stroke="#0d6d4d" stroke-width="0.1" fill="none" />
<path d="M-182.74217810905367,-163.18791726092624 L225.62185189651365,-95.49753895670645" stroke="#0d6d4d" stroke-width="0.1" fill="none" />
<path d="M-181.05718471906158,-165.0554326934064 L240.82840942255595,-45.01863186505978" stroke="#0d6d4d" stroke-width="0.1" fill="none" />
<path d="M-179.3531073539836,-166.90555078388027 L244.88380132977466,7.5447893462617" stroke="#0d6d4d" stroke-width="0.1" fill="none" />
<path d="M-177.63012562873027,-168.73807652430293 L237.60024932857732,59.758861426552436" stroke="#0d6d4d" stroke-width="0.1" fill="none" />
<path d="M-175.8884211507884,-170.5528167609169 L219.3150063819903,109.20589716525187" stroke="#0d6d4d" stroke-width="0.1" fill="none" />
<path d="M-174.1281775010796,-172.34958021461068 L190.87474075878924,153.59633244405612" stroke="#0d6d4d" stroke-width="0.1" fill="none" />
<path d="M-172.34958021461077,-174.1281775010795 L153.59633244405617,190.8747407587892" stroke="#0d6d4d" stroke-width="0.1" fill="none" />
<path d="M-170.55281676091698,-175.8884211507883 L109.2058971652519,219.31500638199026" stroke="#0d6d4d" stroke-width="0.1" fill="none" />
<path d="M-168.738076524303,-177.63012562873016 L59.75886142655247,237.6002493285773" stroke="#0d6d4d" stroke-width="0.1" fill="none" />
<path d="M-166.90555078388036,-179.35310735398355 L7.544789346261854,244.88380132977466" stroke="#0d6d4d" stroke-width="0.1" fill="none" />
<path d="M-165.05543269340666,-181.05718471906135 L-45.01863186505969,240.82840942255595" stroke="#0d6d4d" stroke-width="0.1" fill="none" />
<path d="M-163.18791726092633,-182.74217810905358 L-95.49753895670646,225.62185189651362" stroke="#0d6d4d" stroke-width="0.1" fill="none" />
<path d="M-161.30320132821672,-184.4079099205584 L-141.5545886950215,199.96824352727432" stroke="#0d6d4d" stroke-width="0.1" fill="none" />
<path d="M-159.4014835500393,-186.05420458040325 L-181.05718471906147,165.0554326934065" stroke="#0d6d4d" stroke-width="0.1" fill="none" />
<path d="M-157.48296437320204,-187.68088856414968 L-212.1762239271874,122.50000000000011" stroke="#0d6d4d" stroke-width="0.1" fill="none" />
<path d="M-155.54784601543122,-189.28779041438384 L-233.47079010465333,74.27240515769569" stroke="#0d6d4d" stroke-width="0.1" fill="none" />
<path d="M-153.59633244405612,-190.87474075878924 L-243.95487319228346,22.605748068508966" stroke="#0d6d4d" stroke-width="0.1" fill="none" />
<path d="M-151.6286293545122,-192.44157232799765 L-243.14302486962424,-30.107631212855047" stroke="#0d6d4d" stroke-width="0.1" fill="none" />
<path d="M-149.64494414865848,-193.98811997322125 L-231.072836445463,-81.42692587251655" stroke="#0d6d4d" stroke-width="0.1" fill="none" />
<path d="M-147.64548591291785,-195.51422068365864 L-208.30319825375548,-128.97587990495217" stroke="#0d6d4d" stroke-width="0.1" fill="none" />
<path d="M-145.63046539623787,-197.01971360367764 L-175.8884211507884,-170.5528167609169" stroke="#0d6d4d" stroke-width="0.1" fill="none" />
<path d="M-143.60009498787775,-198.50444004976939 L-135.3294183753238,-204.23258437917437" stroke="#0d6d4d" stroke-width="0.1" fill="none" />
<path d="M-141.55458869502158,-199.9682435272743 L-88.50420821585249,-228.45569620406718" stroke="#0d6d4d" stroke-width="0.1" fill="none" />
<path d="M-139.49416212022192,-201.41096974687662 L-37.580955445278086,-242.10054065990852" stroke="#0d6d4d" stroke-width="0.1" fill="none" />
<path d="M-137.4190324386736,-202.83246664086786 L15.082422002815994,-244.5353155405758" stroke="#0d6d4d" stroke-width="0.1" fill="none" />
<path d="M-135.3294183753238,-204.23258437917437 L67.0474325676603,-235.64728257734066" stroke="#0d6d4d" stroke-width="0.1" fill="none" />
<path d="M-133.22554018181765,-205.61117538514995 L115.90792142482246,-215.8479876000172" stroke="#0d6d4d" stroke-width="0.1" fill="none" />
<path d="M-131.10761961328163,-206.96809435113195 L159.4014835500393,-186.05420458040325" stroke="#0d6d4d" stroke-width="0.1" fill="none" />
<path d="M-128.97587990495225,-208.30319825375543 L195.51422068365866,-147.64548591291782" stroke="#0d6d4d" stroke-width="0.1" fill="none" />
<path d="M-126.83054574864437,-209.61634636902969 L222.57399159578333,-102.40028449726192" stroke="#0d6d4d" stroke-width="0.1" fill="none" />
<path d="M-124.67184326906943,-210.90740028717008 L239.32783785110217,-52.4136053855919" stroke="#0d6d4d" stroke-width="0.1" fill="none" />
<path d="M-122.49999999999991,-212.17622392718752 L245.0,-1.5001923289555078e-14" stroke="#0d6d4d" stroke-width="0.1" fill="none" />
<path d="M-120.31524486028819,-213.42268355123102 L239.3278378511022,52.413605385591815" stroke="#0d6d4d" stroke-width="0.1" fill="none" />
<path d="M-118.11780812973554,-214.6466477786853 L222.5739915957833,102.40028449726195" stroke="#0d6d4d" stroke-width="0.1" fill="none" />
<path d="M-115.9079214248226,-215.84798760001715 L195.5142206836587,147.6454859129178" stroke="#0d6d4d" stroke-width="0.1" fill="none" />
<path d="M-113.68581767429406,-217.02657639037474 L159.4014835500394,186.05420458040322" stroke="#0d6d4d" stroke-width="0.1" fill="none" />
<path d="M-111.4517310946087,-218.18228992293353 L115.90792142482248,215.8479876000172" stroke="#0d6d4d" stroke-width="0.1" fill="none" />
<path d="M-109.20589716525203,-219.3150063819902 L67.04743256766035,235.64728257734066" stroke="#0d6d4d" stroke-width="0.1" fill="none" />
<path d="M-106.9485526039145,-220.42460637580308 L15.082422002815983,244.5353155405758" stroke="#0d6d4d" stroke-width="0.1" fill="none" />
<path d="M-104.67993534154343,-221.51097294917534 L-37.580955445277894,242.10054065990855" stroke="#0d6d4d" stroke-width="0.1" fill="none" />
<path d="M-102.40028449726191,-222.57399159578333 L-88.50420821585242,228.4556962040672" stroke="#0d6d4d" stroke-width="0.1" fill="none" />
<path d="M-100.10984035316677,-223.61355027024516 L-135.329418375324,204.2325843791742" stroke="#0d6d4d" stroke-width="0.1" fill="none" />
<path d="M-97.80884432900051,-224.62953939993145 L-175.88842115078822,170.55281676091707" stroke="#0d6d4d" stroke-width="0.1" fill="none" />
<path d="M-95.49753895670663,-225.62185189651353 L-208.30319825375543,128.97587990495225" stroke="#0d6d4d" stroke-width="0.1" fill="none" />
<path d="M-93.17616785486385,-226.59038316725236 L-231.07283644546297,81.42692587251663" stroke="#0d6d4d" stroke-width="0.1" fill="none" />
<path d="M-90.84497570301053,-227.53503112602118 L-243.14302486962424,30.107631212855136" stroke="#0d6d4d" stroke-width="0.1" fill="none" />
<path d="M-88.50420821585249,-228.45569620406718 L-243.95487319228346,-22.60574806850888" stroke="#0d6d4d" stroke-width="0.1" fill="none" />
<path d="M-86.15411211736539,-229.3522813605054 L-233.47079010465336,-74.27240515769563" stroke="#0d6d4d" stroke-width="0.1" fill="none" />
<path d="M-83.794935114789,-230.2246920925475 L-212.17622392718746,-122.5" stroke="#0d6d4d" stroke-width="0.1" fill="none" />
<path d="M-81.42692587251665,-231.07283644546297 L-181.05718471906158,-165.0554326934064" stroke="#0d6d4d" stroke-width="0.1" fill="none" />
<path d="M-79.05033398588786,-231.8966250222706 L-141.55458869502158,-199.9682435272743" stroke="#0d6d4d" stroke-width="0.1" fill="none" />
<path d="M-76.6654099548778,-232.69597099316206 L-95.49753895670663,-225.62185189651353" stroke="#0d6d4d" stroke-width="0.1" fill="none" />
<path d="M-74.2724051576957,-233.47079010465333 L-45.01863186505967,-240.82840942255595" stroke="#0d6d4d" stroke-width="0.1" fill="none" />
<path d="M-71.87157182428722,-234.22100068846586 L7.544789346261736,-244.88380132977466" stroke="#0d6d4d" stroke-width="0.1" fill="none" />
<path d="M-69.46316300975035,-234.946523670134 L59.7588614265524,-237.60024932857732" stroke="#0d6d4d" stroke-width="0.1" fill="none" />
<path d="M-67.04743256766038,-235.64728257734063 L109.20589716525187,-219.3150063819903" stroke="#0d6d4d" stroke-width="0.1" fill="none" />
<path d="M-64.62463512331564,-236.32320354797648 L153.5963324440561,-190.87474075878927" stroke="#0d6d4d" stroke-width="0.1" fill="none" />
<path d="M-62.19502604689694,-236.97421533792618 L190.87474075878924,-153.59633244405612" stroke="#0d6d4d" stroke-width="0.1" fill="none" />
<path d="M-59.75886142655229,-237.60024932857735 L219.3150063819903,-109.20589716525188" stroke="#0d6d4d" stroke-width="0.1" fill="none" />
<path d="M-57.31639804140407,-238.20123953405306 L237.60024932857732,-59.75886142655241" stroke="#0d6d4d" stroke-width="0.1" fill="none" />
<path d="M-54.86789333448228,-238.77712260816753 L244.88380132977466,-7.54478934626173" stroke="#0d6d4d" stroke-width="0.1" fill="none" />
<path d="M-52.413605385592,-239.32783785110215 L240.82840942255595,45.018631865059696" stroke="#0d6d4d" stroke-width="0.1" fill="none" />
<path d="M-49.95379288410844,-239.85332721580411 L225.62185189651365,95.49753895670642" stroke="#0d6d4d" stroke-width="0.1" fill="none" />
<path d="M-47.48871510171222,-240.35353531410436 L199.96824352727432,141.5545886950215" stroke="#0d6d4d" stroke-width="0.1" fill="none" />
<path d="M-45.01863186505967,-240.82840942255595 L165.05543269340654,181.05718471906144" stroke="#0d6d4d" stroke-width="0.1" fill="none" />
<path d="M-42.543803528398165,-241.27789948799094 L122.49999999999999,212.1762239271875" stroke="#0d6d4d" stroke-width="0.1" fill="none" />
<path d="M-40.064490946121516,-241.7019581327966 L74.27240515769567,233.47079010465333" stroke="#0d6d4d" stroke-width="0.1" fill="none" />
<path d="M-37.580955445278086,-242.10054065990852 L22.60574806850895,243.95487319228346" stroke="#0d6d4d" stroke-width="0.1" fill="none" />
<path d="M-35.09345879802355,-242.47360505752255 L-30.10763121285495,243.14302486962424" stroke="#0d6d4d" stroke-width="0.1" fill="none" />
<path d="M-32.60226319403104,-242.8211120035223 L-81.42692587251656,231.072836445463" stroke="#0d6d4d" stroke-width="0.1" fill="none" />
<path d="M-30.107631212854933,-243.14302486962424 L-128.9758799049522,208.30319825375545" stroke="#0d6d4d" stroke-width="0.1" fill="none" />
<path d="M-27.609825796253727,-243.43930972523833 L-170.55281676091693,175.8884211507884" stroke="#0d6d4d" stroke-width="0.1" fill="none" />
<path d="M-25.10911022047582,-243.70993534104431 L-204.23258437917423,135.329418375324" stroke="#0d6d4d" stroke-width="0.1" fill="none" />
<path d="M-22.605748068508984,-243.95487319228346 L-228.45569620406718,88.50420821585247" stroke="#0d6d4d" stroke-width="0.1" fill="none" />
<path d="M-20.10000320229878,-244.17409746176514 L-242.10054065990857,37.58095544527786" stroke="#0d6d4d" stroke-width="0.1" fill="none" />
<path d="M-17.59213973493518,-244.36758504258808 L-244.5353155405758,-15.082422002815909" stroke="#0d6d4d" stroke-width="0.1" fill="none" />
<path d="M-15.082422002816228,-244.53531554057577 L-235.64728257734066,-67.04743256766028" stroke="#0d6d4d" stroke-width="0.1" fill="none" />
<path d="M-12.57111453778356,-244.67727127642635 L-215.8479876000173,-115.90792142482232" stroke="#0d6d4d" stroke-width="0.1" fill="none" />
<path d="M-10.058482039242987,-244.79343728757564 L-186.05420458040334,-159.40148355003922" stroke="#0d6d4d" stroke-width="0.1" fill="none" />
<path d="M-7.544789346261775,-244.88380132977466 L-147.64548591291785,-195.51422068365864" stroke="#0d6d4d" stroke-width="0.1" fill="none" />
<path d="M-5.0303014096555465,-244.9483538783799 L-102.40028449726191,-222.57399159578333" stroke="#0d6d4d" stroke-width="0.1" fill="none" />
<path d="M-2.5152832640610074,-244.9870881293574 L-52.413605385592,-239.32783785110215" stroke="#0d6d4d" stroke-width="0.1" fill="none" />
</svg>