<?xml version="1.0" encoding="UTF-8"?>
<svg xmlns="http://www.w3.org/2000/svg" xmlns:xlink="http://www.w3.org/1999/xlink"
     width="500.0" height="500" viewBox="-250.0 -250.0 500 500">
<defs>
</defs>
<circle cx="0" cy="0" r="245.0" fill="white" stroke-width="2" stroke="black" />
<path d="M0.0,-245.0 L0.0,-245.0" stroke="#4c0618" stroke-width="0.1" fill="none" />
<path d="M22.605748068508987,-243.95487319228346 L45.01863186505973,-240.82840942255595" stroke="#4c0618" stroke-width="0.1" fill="none" />
<path d="M45.01863186505973,-240.82840942255595 L88.50420821585247,-228.45569620406718" stroke="#4c0618" stroke-width="0.1" fill="none" />
<path d="M67.0474325676603,-235.64728257734066 L128.97587990495217,-208.30319825375548" stroke="#4c0618" stroke-width="0.1" fill="none" />
<path d="M88.50420821585247,-228.45569620406718 L165.05543269340652,-181.05718471906147" stroke="#4c0618" stroke-width="0.1" fill="none" />
<path d="M109.20589716525187,-219.3150063819903 L195.51422068365866,-147.64548591291782" stroke="#4c0618" stroke-width="0.1" fill="none" />
<path d="M128.97587990495217,-208.30319825375548 L219.3150063819903,-109.20589716525188" stroke="#4c0618" stroke-width="0.1" fill="none" />
<path d="M147.6454859129178,-195.51422068365866 L235.64728257734066,-67.04743256766034" stroke="#4c0618" stroke-width="0.1" fill="none" />
<path d="M165.05543269340652,-181.05718471906147 L243.95487319228346,-22.60574806850899" stroke="#4c0618" stroke-width="0.1" fill="none" />
<path d="M181.05718471906147,-165.05543269340654 L243.95487319228346,22.605748068508962" stroke="#4c0618" stroke-width="0.1" fill="none" />
<path d="M195.51422068365866,-147.64548591291782 L235.64728257734066,67.04743256766031" stroke="#4c0618" stroke-width="0.1" fill="none" />
<path d="M208.30319825375543,-128.97587990495222 L219.31500638199032,109.20589716525177" stroke="#4c0618" stroke-width="0.1" fill="none" />
<path d="M219.3150063819903,-109.20589716525188 L195.5142206836587,147.6454859129178" stroke="#4c0618" stroke-width="0.1" fill="none" />
<path d="M228.45569620406718,-88.50420821585246 L165.0554326934065,181.05718471906152" stroke="#4c0618" stroke-width="0.1" fill="none" />
<path d="M235.64728257734066,-67.04743256766034 L128.97587990495222,208.30319825375543" stroke="#4c0618" stroke-width="0.1" fill="none" />
<path d="M240.82840942255595,-45.01863186505978 L88.50420821585256,228.45569620406715" stroke="#4c0618" stroke-width="0.1" fill="none" />
<path d="M243.95487319228346,-22.60574806850899 L45.01863186505974,240.82840942255595" stroke="#4c0618" stroke-width="0.1" fill="none" />
<path d="M245.0,-1.5001923289555078e-14 L3.0003846579110155e-14,245.0" stroke="#4c0618" stroke-width="0.1" fill="none" />
<path d="M243.95487319228346,22.605748068508962 L-45.01863186505969,240.82840942255595" stroke="#4c0618" stroke-width="0.1" fill="none" />
<path d="M240.82840942255595,45.018631865059696 L-88.50420821585242,228.4556962040672" stroke="#4c0618" stroke-width="0.1" fill="none" />
<path d="M235.64728257734066,67.04743256766031 L-128.9758799049522,208.30319825375545" stroke="#4c0618" stroke-width="0.1" fill="none" />
<path d="M228.45569620406718,88.50420821585247 L-165.05543269340652,181.05718471906147" stroke="#4c0618" stroke-width="0.1" fill="none" />
<path d="M219.31500638199032,109.20589716525177 L-195.51422068365852,147.64548591291802" stroke="#4c0618" stroke-width="0.1" fill="none" />
<path d="M208.3031982537555,128.9758799049521 L-219.3150063819902,109.20589716525201" stroke="#4c0618" stroke-width="0.1" fill="none" />
<path d="M195.5142206836587,147.6454859129178 L-235.64728257734066,67.04743256766037" stroke="#4c0618" stroke-width="0.1" fill="none" />
<path d="M181.05718471906147,165.05543269340652 L-243.95487319228346,22.605748068508966" stroke="#4c0618" stroke-width="0.1" fill="none" />
<path d="M165.0554326934065,181.05718471906152 L-243.95487319228346,-22.605748068509097" stroke="#4c0618" stroke-width="0.1" fill="none" />
<path d="M147.64548591291782,195.51422068365866 L-235.64728257734066,-67.04743256766028" stroke="#4c0618" stroke-width="0.1" fill="none" />
<path d="M128.97587990495222,208.30319825375543 L-219.31500638199032,-109.20589716525176" stroke="#4c0618" stroke-width="0.1" fill="none" />
<path d="M109.2058971652519,219.31500638199026 L-195.51422068365872,-147.64548591291776" stroke="#4c0618" stroke-width="0.1" fill="none" />
<path d="M88.50420821585256,228.45569620406715 L-165.05543269340666,-181.05718471906135" stroke="#4c0618" stroke-width="0.1" fill="none" />
<path d="M67.04743256766035,235.64728257734066 L-128.97587990495225,-208.30319825375543" stroke="#4c0618" stroke-width="0.1" fill="none" />
<path d="M45.01863186505974,240.82840942255595 L-88.50420821585249,-228.45569620406718" stroke="#4c0618" stroke-width="0.1" fill="none" />
<path d="M22.60574806850895,243.95487319228346 L-45.01863186505967,-240.82840942255595" stroke="#4c0618" stroke-width="0.1" fill="none" />
<path d="M3.0003846579110155e-14,245.0 L0.0,-245.0" stroke="#4c0618" stroke-width="0.1" fill="none" />
<path d="M-22.605748068508895,243.95487319228346 L45.01863186505973,-240.82840942255595" stroke="#4c0618" stroke-width="0.1" fill="none" />
<path d="M-45.01863186505969,240.82840942255595 L88.50420821585247,-228.45569620406718" stroke="#4c0618" stroke-width="0.1" fill="none" />
<path d="M-67.0474325676603,235.64728257734066 L128.97587990495217,-208.30319825375548" stroke="#4c0618" stroke-width="0.1" fill="none" />
<path d="M-88.50420821585242,228.4556962040672 L165.05543269340652,-181.05718471906147" stroke="#4c0618" stroke-width="0.1" fill="none" />
<path d="M-109.20589716525186,219.3150063819903 L195.51422068365866,-147.64548591291782" stroke="#4c0618" stroke-width="0.1" fill="none" />
<path d="M-128.9758799049522,208.30319825375545 L219.3150063819903,-109.20589716525188" stroke="#4c0618" stroke-width="0.1" fill="none" />
<path d="M-147.64548591291768,195.51422068365878 L235.64728257734066,-67.04743256766034" stroke="#4c0618" stroke-width="0.1" fill="none" />
<path d="M-165.05543269340652,181.05718471906147 L243.95487319228346,-22.60574806850899" stroke="#4c0618" stroke-width="0.1" fill="none" />
<path d="M-181.0571847190614,165.05543269340657 L243.95487319228346,22.605748068508962" stroke="#4c0618" stroke-width="0.1" fill="none" />
<path d="M-195.51422068365852,147.64548591291802 L235.64728257734066,67.04743256766031" stroke="#4c0618" stroke-width="0.1" fill="none" />
<path d="M-208.30319825375543,128.97587990495225 L219.31500638199032,109.20589716525177" stroke="#4c0618" stroke-width="0.1" fill="none" />
<path d="M-219.3150063819902,109.20589716525201 L195.5142206836587,147.6454859129178" stroke="#4c0618" stroke-width="0.1" fill="none" />
<path d="M-228.45569620406718,88.50420821585247 L165.0554326934065,181.05718471906152" stroke="#4c0618" stroke-width="0.1" fill="none" />
<path d="M-235.64728257734066,67.04743256766037 L128.97587990495222,208.30319825375543" stroke="#4c0618" stroke-width="0.1" fill="none" />
<path d="M-240.82840942255592,45.01863186505986 L88.50420821585256,228.45569620406715" stroke="#4c0618" stroke-width="0.1" fill="none" />
<path d="M-243.95487319228346,22.605748068508966 L45.01863186505974,240.82840942255595" stroke="#4c0618" stroke-width="0.1" fill="none" />
<path d="M-245.0,4.500576986866523e-14 L3.0003846579110155e-14,245.0" stroke="#4c0618" stroke-width="0.1" fill="none" />
<path d="M-243.95487319228346,-22.605748068509097 L-45.01863186505969,240.82840942255595" stroke="#4c0618" stroke-width="0.1" fill="none" />
<path d="M-240.82840942255595,-45.018631865059774 L-88.50420821585242,228.4556962040672" stroke="#4c0618" stroke-width="0.1" fill="none" />
<path d="M-235.64728257734066,-67.04743256766028 L-128.9758799049522,208.30319825375545" stroke="#4c0618" stroke-width="0.1" fill="none" />
<path d="M-228.45569620406712,-88.5042082158526 L-165.05543269340652,181.05718471906147" stroke="#4c0618" stroke-width="0.1" fill="none" />
<path d="M-219.31500638199032,-109.20589716525176 L-195.51422068365852,147.64548591291802" stroke="#4c0618" stroke-width="0.1" fill="none" />
<path d="M-208.3031982537556,-128.975879904952 L-219.3150063819902,109.20589716525201" stroke="#4c0618" stroke-width="0.1" fill="none" />
<path d="M-195.51422068365872,-147.64548591291776 L-235.64728257734066,67.04743256766037" stroke="#4c0618" stroke-width="0.1" fill="none" />
<path d="M-181.05718471906158,-165.0554326934064 L-243.95487319228346,22.605748068508966" stroke="#4c0618" stroke-width="0.1" fill="none" />
<path d="M-165.05543269340666,-181.05718471906135 L-243.95487319228346,-22.605748068509097" stroke="#4c0618" stroke-width="0.1" fill="none" />
<path d="M-147.64548591291785,-195.51422068365864 L-235.64728257734066,-67.04743256766028" stroke="#4c0618" stroke-width="0.1" fill="none" />
<path d="M-128.97587990495225,-208.30319825375543 L-219.31500638199032,-109.20589716525176" stroke="#4c0618" stroke-width="0.1" fill="none" />
<path d="M-109.20589716525183,-219.3150063819903 L-195.51422068365872,-147.64548591291776" stroke="#4c0618" stroke-width="0.1" fill="none" />
<path d="M-88.50420821585249,-228.45569620406718 L-165.05543269340666,-181.05718471906135" stroke="#4c0618" stroke-width="0.1" fill="none" />
<path d="M-67.04743256766038,-235.64728257734063 L-128.97587990495225,-208.30319825375543" stroke="#4c0618" stroke-width="0.1" fill="none" />
<path d="M-45.01863186505967,-240.82840942255595 L-88.50420821585249,-228.45569620406718" stroke="#4c0618" stroke-width="0.1" fill="none" />
<path d="M-22.605748068508984,-243.95487319228346 L-45.01863186505967,-240.82840942255595" stroke="#4c0618" stroke-width="0.1" fill="none" />
</svg>