<?xml version="1.0" encoding="UTF-8"?>
<svg xmlns="http://www.w3.org/2000/svg" xmlns:xlink="http://www.w3.org/1999/xlink"
     width="500.0" height="500" viewBox="-250.0 -250.0 500 500">
<defs>
</defs>
<circle cx="0" cy="0" r="245.0" fill="white" stroke-width="2" stroke="black" />
<path d="M0.0,-245.0 L0.0,-245.0" stroke="#0d6d4d" stroke-width="0.1" fill="none" />
<path d="M2.2439633778144037,-244.98972351582225 L46.83386403183622,-240.481993462811" stroke="#0d6d4d" stroke-width="0.1" fill="none" />
<path d="M4.4877385102888265,-244.95889492537984 L91.94041619544666,-227.09460554977534" stroke="#0d6d4d" stroke-width="0.1" fill="none" />
<path d="M6.731137167875129,-244.9075168148729 L133.65605079658442,-205.33158569850096" stroke="#0d6d4d" stroke-width="0.1" fill="none" />
<path d="M8.973971152607522,-244.83559349439403 L170.44222489785417,-175.99559077394326" stroke="#0d6d4d" stroke-width="0.1" fill="none" />
<path d="M11.216052313890433,-244.74313099756665 L200.9422023762542,-140.16858172993156" stroke="#0d6d4d" stroke-width="0.1" fill="none" />
<path d="M13.457192564282401,-244.63013708103875 L224.03109263887407,-99.17191906498648" stroke="#0d6d4d" stroke-width="0.1" fill="none" />
<path d="M15.697203895274663,-244.4966212238324 L238.85733848454677,-54.51762881929704" stroke="#0d6d4d" stroke-width="0.1" fill="none" />
<path d="M17.935898393063134,-244.3425946265483 L244.87412296916852,-7.852636505055502" stroke="#0d6d4d" stroke-width="0.1" fill="none" />
<path d="M20.17308825431242,-244.1680702104264 L241.85953693654028,39.1019742831779" stroke="#0d6d4d" stroke-width="0.1" fill="none" />
<path d="M22.40858580191059,-243.9730626162618 L229.92476340219127,84.61443833322039" stroke="#0d6d4d" stroke-width="0.1" fill="none" />
<path d="M24.64220350071333,-243.75758820317662 L209.5099769363098,127.00617923607861" stroke="#0d6d4d" stroke-width="0.1" fill="none" />
<path d="M26.873753973276244,-243.52166504724752 L181.3681092834523,164.7137181140226" stroke="#0d6d4d" stroke-width="0.1" fill="none" />
<path d="M29.10305001557382,-243.26531293998949 L146.53707997034786,196.34633735764942" stroke="#0d6d4d" stroke-width="0.1" fill="none" />
<path d="M31.32990461270397,-242.98855338669532 L106.30151608380177,220.73737263609266" stroke="#0d6d4d" stroke-width="0.1" fill="none" />
<path d="M33.554130954576635,-242.6914096046317 L62.1453730578293,236.98724144456222" stroke="#0d6d4d" stroke-width="0.1" fill="none" />
<path d="M35.77554245158518,-242.37390652109156 L15.697203895274633,244.4966212238324" stroke="#0d6d4d" stroke-width="0.1" fill="none" />
<path d="M37.99395275025941,-242.03607077130272 L-31.329904612703928,242.98855338669532" stroke="#0d6d4d" stroke-width="0.1" fill="none" />
<path d="M40.209175748898645,-241.67793069619364 L-77.20151341578706,232.5186580176138" stroke="#0d6d4d" stroke-width="0.1" fill="none" />
<path d="M42.42102561318371,-241.29951634001594 L-120.2258002409647,213.47308251023043" stroke="#0d6d4d" stroke-width="0.1" fill="none" />
<path d="M44.6293167917666,-240.90085944782376 L-158.81595685040818,186.5542598004379" stroke="#0d6d4d" stroke-width="0.1" fill="none" />
<path d="M46.83386403183622,-240.481993462811 L-191.54871320466728,152.75500145538976" stroke="#0d6d4d" stroke-width="0.1" fill="none" />
<path d="M49.03448239465925,-240.04295352350556 L-217.21683006138502,113.32188110900465" stroke="#0d6d4d" stroke-width="0.1" fill="none" />
<path d="M51.23098727109459,-239.58377646082164 L-234.87362399398188,69.70925872460292" stroke="#0d6d4d" stroke-width="0.1" fill="none" />
<path d="M53.42319439708012,-239.10450079496997 L-243.86788267255358,23.525641347381985" stroke="#0d6d4d" stroke-width="0.1" fill="none" />
<path d="M55.61091986909057,-238.60516673222645 L-243.86788267255358,-23.525641347381896" stroke="#0d6d4d" stroke-width="0.1" fill="none" />
<path d="M57.79398015956515,-238.08581616155928 L-234.87362399398182,-69.70925872460306" stroke="#0d6d4d" stroke-width="0.1" fill="none" />
<path d="M59.97219213230356,-237.54649265111465 L-217.21683006138505,-113.32188110900456" stroke="#0d6d4d" stroke-width="0.1" fill="none" />
<path d="M62.1453730578293,-236.98724144456222 L-191.54871320466734,-152.75500145538967" stroke="#0d6d4d" stroke-width="0.1" fill="none" />
<path d="M64.31334062871873,-236.40810945729928 L-158.81595685040816,-186.55425980043793" stroke="#0d6d4d" stroke-width="0.1" fill="none" />
<path d="M66.47591297489477,-235.80914527251528 L-120.22580024096477,-213.4730825102304" stroke="#0d6d4d" stroke-width="0.1" fill="none" />
<path d="M68.63290867888395,-235.1903991371161 L-77.20151341578703,-232.51865801761383" stroke="#0d6d4d" stroke-width="0.1" fill="none" />
<path d="M70.78414679103551,-234.5519229575088 L-31.329904612703906,-242.98855338669532" stroke="#0d6d4d" stroke-width="0.1" fill="none" />
<path d="M72.92944684470106,-233.89377029524732 L15.697203895274663,-244.4966212238324" stroke="#0d6d4d" stroke-width="0.1" fill="none" />
<path d="M75.06862887137403,-233.21599636253922 L62.1453730578293,-236.98724144456222" stroke="#0d6d4d" stroke-width="0.1" fill="none" />
<path d="M77.20151341578706,-232.5186580176138 L106.30151608380173,-220.7373726360927" stroke="#0d6d4d" stroke-width="0.1" fill="none" />
<path d="M79.32792155096651,-231.8018137599525 L146.53707997034792,-196.34633735764936" stroke="#0d6d4d" stroke-width="0.1" fill="none" />
<path d="M81.44767489324249,-231.06552372538113 L181.3681092834523,-164.7137181140226" stroke="#0d6d4d" stroke-width="0.1" fill="none" />
<path d="M83.56059561721352,-230.30984968102538 L209.50997693630978,-127.00617923607867" stroke="#0d6d4d" stroke-width="0.1" fill="none" />
<path d="M85.6665064706642,-229.53485502012902 L229.9247634021913,-84.61443833322036" stroke="#0d6d4d" stroke-width="0.1" fill="none" />
<path d="M87.76523078943481,-228.74060475673585 L241.85953693654025,-39.101974283177924" stroke="#0d6d4d" stroke-width="0.1" fill="none" />
<path d="M89.85659251224162,-227.9271655202358 L244.87412296916852,7.852636505055472" stroke="#0d6d4d" stroke-width="0.1" fill="none" />
<path d="M91.94041619544666,-227.09460554977534 L238.85733848454677,54.51762881929696" stroke="#0d6d4d" stroke-width="0.1" fill="none" />
<path d="M94.01652702777554,-226.24299468853295 L224.03109263887407,99.17191906498645" stroke="#0d6d4d" stroke-width="0.1" fill="none" />
<path d="M96.08475084498237,-225.37240437786002 L200.94220237625424,140.1685817299315" stroke="#0d6d4d" stroke-width="0.1" fill="none" />
<path d="M98.14491414446042,-224.48290765128758 L170.4422248978542,175.99559077394323" stroke="#0d6d4d" stroke-width="0.1" fill="none" />
<path d="M100.19684409979693,-223.57457912839953 L133.65605079658442,205.33158569850096" stroke="#0d6d4d" stroke-width="0.1" fill="none" />
<path d="M102.24036857527182,-222.64749500857306 L91.94041619544674,227.0946055497753" stroke="#0d6d4d" stroke-width="0.1" fill="none" />
<path d="M104.27531614029778,-221.70173306458602 L46.83386403183627,240.481993462811" stroke="#0d6d4d" stroke-width="0.1" fill="none" />
<path d="M106.30151608380173,-220.7373726360927 L-7.879800983415519e-14,245.0" stroke="#0d6d4d" stroke-width="0.1" fill="none" />
<path d="M108.31879842854565,-219.75449462296805 L-46.83386403183622,240.481993462811" stroke="#0d6d4d" stroke-width="0.1" fill="none" />
<path d="M110.32699394538584,-218.75318147852113 L-91.94041619544669,227.09460554977534" stroke="#0d6d4d" stroke-width="0.1" fill="none" />
<path d="M112.32593416746964,-217.73351720257787 L-133.65605079658437,205.331585698501" stroke="#0d6d4d" stroke-width="0.1" fill="none" />
<path d="M114.31545140436793,-216.69558733443463 L-170.44222489785423,175.9955907739432" stroke="#0d6d4d" stroke-width="0.1" fill="none" />
<path d="M116.29537875614274,-215.63947894568219 L-200.94220237625413,140.16858172993165" stroke="#0d6d4d" stroke-width="0.1" fill="none" />
<path d="M118.26555012734829,-214.56528063290125 L-224.03109263887404,99.17191906498654" stroke="#0d6d4d" stroke-width="0.1" fill="none" />
<path d="M120.22580024096477,-213.4730825102304 L-238.85733848454677,54.51762881929707" stroke="#0d6d4d" stroke-width="0.1" fill="none" />
<path d="M122.17596465226346,-212.36297620180613 L-244.87412296916852,7.852636505055531" stroke="#0d6d4d" stroke-width="0.1" fill="none" />
<path d="M124.11587976260172,-211.23505483407672 L-241.85953693654028,-39.10197428317792" stroke="#0d6d4d" stroke-width="0.1" fill="none" />
<path d="M126.04538283314741,-210.08941302798982 L-229.92476340219136,-84.6144383332202" stroke="#0d6d4d" stroke-width="0.1" fill="none" />
<path d="M127.96431199853096,-208.92614689105483 L-209.5099769363099,-127.0061792360785" stroke="#0d6d4d" stroke-width="0.1" fill="none" />
<path d="M129.87250628042418,-207.74535400928028 L-181.3681092834524,-164.71371811402253" stroke="#0d6d4d" stroke-width="0.1" fill="none" />
<path d="M131.76980560104454,-206.54713343898754 L-146.53707997034797,-196.3463373576493" stroke="#0d6d4d" stroke-width="0.1" fill="none" />
<path d="M133.65605079658442,-205.33158569850096 L-106.30151608380179,-220.73737263609266" stroke="#0d6d4d" stroke-width="0.1" fill="none" />
<path d="M135.53108363056285,-204.09881275971543 L-62.145373057829325,-236.98724144456222" stroke="#0d6d4d" stroke-width="0.1" fill="none" />
<path d="M137.39474680710035,-202.8489180395419 L-15.697203895274663,-244.4966212238324" stroke="#0d6d4d" stroke-width="0.1" fill="none" />
<path d="M139.24688398411396,-201.582006391232 L31.32990461270397,-242.98855338669532" stroke="#0d6d4d" stroke-width="0.1" fill="none" />
<path d="M141.08733978643318,-200.29818409558172 L77.20151341578706,-232.5186580176138" stroke="#0d6d4d" stroke-width="0.1" fill="none" />
<path d="M142.91595981883407,-198.9975588520156 L120.22580024096477,-213.4730825102304" stroke="#0d6d4d" stroke-width="0.1" fill="none" />
<path d="M144.73259067899144,-197.68023976955186 L158.81595685040816,-186.55425980043793" stroke="#0d6d4d" stroke-width="0.1" fill="none" />
<path d="M146.53707997034792,-196.34633735764936 L191.54871320466728,-152.75500145538976" stroke="#0d6d4d" stroke-width="0.1" fill="none" />
<path d="M148.32927631489807,-194.995963516937 L217.216830061385,-113.32188110900466" stroke="#0d6d4d" stroke-width="0.1" fill="none" />
<path d="M150.10902936588784,-193.62923152982614 L234.87362399398185,-69.70925872460295" stroke="#0d6d4d" stroke-width="0.1" fill="none" />
<path d="M151.87618982042684,-192.24625605100786 L243.86788267255358,-23.52564134738206" stroke="#0d6d4d" stroke-width="0.1" fill="none" />
<path d="M153.63060943201347,-190.8471530978341 L243.86788267255358,23.52564134738203" stroke="#0d6d4d" stroke-width="0.1" fill="none" />
<path d="M155.37214102297114,-189.43204004058543 L234.87362399398188,69.70925872460292" stroke="#0d6d4d" stroke-width="0.1" fill="none" />
<path d="M157.10063849679509,-188.00103559262462 L217.21683006138502,113.3218811090046" stroke="#0d6d4d" stroke-width="0.1" fill="none" />
<path d="M158.81595685040816,-186.55425980043793 L191.54871320466734,152.75500145538967" stroke="#0d6d4d" stroke-width="0.1" fill="none" />
<path d="M160.51795218632532,-185.09183403356448 L158.81595685040816,186.55425980043793" stroke="#0d6d4d" stroke-width="0.1" fill="none" />
<path d="M162.20648172472505,-183.61388097441446 L120.22580024096484,213.47308251023034" stroke="#0d6d4d" stroke-width="0.1" fill="none" />
<path d="M163.88140381542703,-182.1205246079775 L77.2015134157871,232.5186580176138" stroke="#0d6d4d" stroke-width="0.1" fill="none" />
<path d="M165.54257794977522,-180.61189021142158 L31.329904612703984,242.9885533866953" stroke="#0d6d4d" stroke-width="0.1" fill="none" />
<path d="M167.18986477242512,-179.08810434358338 L-15.697203895274571,244.4966212238324" stroke="#0d6d4d" stroke-width="0.1" fill="none" />
<path d="M168.82312609303406,-177.54929483435163 L-62.14537305782925,236.98724144456222" stroke="#0d6d4d" stroke-width="0.1" fill="none" />
<path d="M170.44222489785417,-175.99559077394326 L-106.30151608380162,220.73737263609274" stroke="#0d6d4d" stroke-width="0.1" fill="none" />
<path d="M172.04702536122622,-174.42712250207416 L-146.53707997034792,196.34633735764936" stroke="#0d6d4d" stroke-width="0.1" fill="none" />
<path d="M173.63739285697415,-172.84402159702492 L-181.36810928345224,164.7137181140227" stroke="#0d6d4d" stroke-width="0.1" fill="none" />
<path d="M175.21319396969875,-171.24642086460298 L-209.50997693630984,127.00617923607858" stroke="#0d6d4d" stroke-width="0.1" fill="none" />
<path d="M176.77429650596974,-169.63445432700132 L-229.92476340219125,84.6144383332205" stroke="#0d6d4d" stroke-width="0.1" fill="none" />
<path d="M178.32056950541565,-168.0082572115556 L-241.85953693654025,39.101974283178016" stroke="#0d6d4d" stroke-width="0.1" fill="none" />
<path d="M179.8518832517098,-166.36796593939997 L-244.87412296916852,-7.852636505055442" stroke="#0d6d4d" stroke-width="0.1" fill="none" />
<path d="M181.3681092834523,-164.7137181140226 L-238.85733848454677,-54.51762881929698" stroke="#0d6d4d" stroke-width="0.1" fill="none" />
<path d="M182.8691204049466,-163.04565250972237 L-224.03109263887407,-99.17191906498648" stroke="#0d6d4d" stroke-width="0.1" fill="none" />
<path d="M184.35479069687,-161.36390905996686 L-200.9422023762542,-140.16858172993156" stroke="#0d6d4d" stroke-width="0.1" fill="none" />
<path d="M185.82499552683674,-159.66862884565364 L-170.4422248978543,-175.99559077394315" stroke="#0d6d4d" stroke-width="0.1" fill="none" />
<path d="M187.2796115598536,-157.95995408327505 L-133.65605079658434,-205.33158569850102" stroke="#0d6d4d" stroke-width="0.1" fill="none" />
<path d="M188.71851676866623,-156.2380281129874 L-91.94041619544677,-227.0946055497753" stroke="#0d6d4d" stroke-width="0.1" fill="none" />
<path d="M190.14159044399628,-154.50299538658655 L-46.8338640318363,-240.481993462811" stroke="#0d6d4d" stroke-width="0.1" fill="none" />
<path d="M191.54871320466728,-152.75500145538976 L0.0,-245.0" stroke="#0d6d4d" stroke-width="0.1" fill="none" />
<path d="M192.93976700761982,-150.9941929580253 L46.83386403183622,-240.481993462811" stroke="#0d6d4d" stroke-width="0.1" fill="none" />
<path d="M194.31463515781383,-149.22071760813142 L91.94041619544666,-227.09460554977534" stroke="#0d6d4d" stroke-width="0.1" fill="none" />
<path d="M195.6732023180184,-147.4347241819641 L133.65605079658442,-205.33158569850096" stroke="#0d6d4d" stroke-width="0.1" fill="none" />
<path d="M197.01535451848724,-145.63636250591674 L170.44222489785417,-175.99559077394326" stroke="#0d6d4d" stroke-width="0.1" fill="none" />
<path d="M198.34097916651947,-143.825783443951 L200.9422023762542,-140.16858172993156" stroke="#0d6d4d" stroke-width="0.1" fill="none" />
<path d="M199.64996505590517,-142.00313888494102 L224.03109263887407,-99.17191906498648" stroke="#0d6d4d" stroke-width="0.1" fill="none" />
<path d="M200.9422023762542,-140.16858172993156 L238.85733848454677,-54.51762881929704" stroke="#0d6d4d" stroke-width="0.1" fill="none" />
<path d="M202.21758272220842,-138.32226587931095 L244.87412296916852,-7.852636505055502" stroke="#0d6d4d" stroke-width="0.1" fill="none" />
<path d="M203.47599910253567,-136.46434621990065 L241.85953693654028,39.1019742831779" stroke="#0d6d4d" stroke-width="0.1" fill="none" />
<path d="M204.7173459491051,-134.59497861196166 L229.92476340219127,84.61443833322039" stroke="#0d6d4d" stroke-width="0.1" fill="none" />
<path d="M205.9415191257434,-132.71431987611982 L209.5099769363098,127.00617923607861" stroke="#0d6d4d" stroke-width="0.1" fill="none" />
<path d="M207.1484159369709,-130.82252778020955 L181.3681092834523,164.7137181140226" stroke="#0d6d4d" stroke-width="0.1" fill="none" />
<path d="M208.3379351366161,-128.91976102603957 L146.53707997034786,196.34633735764942" stroke="#0d6d4d" stroke-width="0.1" fill="none" />
<path d="M209.50997693630978,-127.00617923607867 L106.30151608380177,220.73737263609266" stroke="#0d6d4d" stroke-width="0.1" fill="none" />
<path d="M210.66444301385604,-125.08194294006552 L62.1453730578293,236.98724144456222" stroke="#0d6d4d" stroke-width="0.1" fill="none" />
<path d="M211.80123652148023,-123.14721356154182 L15.697203895274633,244.4966212238324" stroke="#0d6d4d" stroke-width="0.1" fill="none" />
<path d="M212.9202620939539,-121.20215340431034 L-31.329904612703928,242.98855338669532" stroke="#0d6d4d" stroke-width="0.1" fill="none" />
<path d="M214.02142585659465,-119.24692563881956 L-77.20151341578706,232.5186580176138" stroke="#0d6d4d" stroke-width="0.1" fill="none" />
<path d="M215.1046354331414,-117.28169428847507 L-120.2258002409647,213.47308251023043" stroke="#0d6d4d" stroke-width="0.1" fill="none" />
<path d="M216.16979995350374,-115.30662421588005 L-158.81595685040818,186.5542598004379" stroke="#0d6d4d" stroke-width="0.1" fill="none" />
<path d="M217.216830061385,-113.32188110900466 L-191.54871320466728,152.75500145538976" stroke="#0d6d4d" stroke-width="0.1" fill="none" />
<path d="M218.24563792177838,-111.32763146728672 L-217.21683006138502,113.32188110900465" stroke="#0d6d4d" stroke-width="0.1" fill="none" />
<path d="M219.2561372283353,-109.3240425876641 L-234.87362399398188,69.70925872460292" stroke="#0d6d4d" stroke-width="0.1" fill="none" />
<path d="M220.24824321060566,-107.31128255054031 L-243.86788267255358,23.525641347381985" stroke="#0d6d4d" stroke-width="0.1" fill="none" />
<path d="M221.22187264114922,-105.28952020568407 L-243.86788267255358,-23.525641347381896" stroke="#0d6d4d" stroke-width="0.1" fill="none" />
<path d="M222.1769438425175,-103.25892515806476 L-234.87362399398182,-69.70925872460306" stroke="#0d6d4d" stroke-width="0.1" fill="none" />
<path d="M223.11337669410577,-101.21966775362417 L-217.21683006138505,-113.32188110900456" stroke="#0d6d4d" stroke-width="0.1" fill="none" />
<path d="M224.03109263887407,-99.17191906498648 L-191.54871320466734,-152.75500145538967" stroke="#0d6d4d" stroke-width="0.1" fill="none" />
<path d="M224.93001468993765,-97.1158508771068 L-158.81595685040816,-186.55425980043793" stroke="#0d6d4d" stroke-width="0.1" fill="none" />
<path d="M225.8100674370252,-95.05163567286017 L-120.22580024096477,-213.4730825102304" stroke="#0d6d4d" stroke-width="0.1" fill="none" />
<path d="M226.67117705280504,-92.97944661857221 L-77.20151341578703,-232.51865801761383" stroke="#0d6d4d" stroke-width="0.1" fill="none" />
<path d="M227.51327129907844,-90.89945754949218 L-31.329904612703906,-242.98855338669532" stroke="#0d6d4d" stroke-width="0.1" fill="none" />
<path d="M228.33627953283977,-88.81184295520988 L15.697203895274663,-244.4966212238324" stroke="#0d6d4d" stroke-width="0.1" fill="none" />
<path d="M229.14013271220247,-86.71677796501801 L62.1453730578293,-236.98724144456222" stroke="#0d6d4d" stroke-width="0.1" fill="none" />
<path d="M229.9247634021913,-84.61443833322036 L106.30151608380173,-220.7373726360927" stroke="#0d6d4d" stroke-width="0.1" fill="none" />
<path d="M230.69010578039905,-82.50500042438814 L146.53707997034792,-196.34633735764936" stroke="#0d6d4d" stroke-width="0.1" fill="none" />
<path d="M231.43609564250875,-80.38864119856451 L181.3681092834523,-164.7137181140226" stroke="#0d6d4d" stroke-width="0.1" fill="none" />
<path d="M232.16267040767943,-78.26553819641964 L209.50997693630978,-127.00617923607867" stroke="#0d6d4d" stroke-width="0.1" fill="none" />
<path d="M232.8697691237961,-76.13586952435689 L229.9247634021913,-84.61443833322036" stroke="#0d6d4d" stroke-width="0.1" fill="none" />
<path d="M233.5573324725832,-73.99981383957152 L241.85953693654025,-39.101974283177924" stroke="#0d6d4d" stroke-width="0.1" fill="none" />
<path d="M234.22530277458046,-71.85755033506307 L244.87412296916852,7.852636505055472" stroke="#0d6d4d" stroke-width="0.1" fill="none" />
<path d="M234.87362399398185,-69.70925872460295 L238.85733848454677,54.51762881929696" stroke="#0d6d4d" stroke-width="0.1" fill="none" />
<path d="M235.50224174333636,-67.5551192276586 L224.03109263887407,99.17191906498645" stroke="#0d6d4d" stroke-width="0.1" fill="none" />
<path d="M236.11110328811043,-65.39531255427445 L200.94220237625424,140.1685817299315" stroke="#0d6d4d" stroke-width="0.1" fill="none" />
<path d="M236.70015755111203,-63.23001988991268 L170.4422248978542,175.99559077394323" stroke="#0d6d4d" stroke-width="0.1" fill="none" />
<path d="M237.26935511677527,-61.05942288025325 L133.65605079658442,205.33158569850096" stroke="#0d6d4d" stroke-width="0.1" fill="none" />
<path d="M237.81864823530606,-58.88370361595607 L91.94041619544674,227.0946055497753" stroke="#0d6d4d" stroke-width="0.1" fill="none" />
<path d="M238.34799082668775,-56.70304461738512 L46.83386403183627,240.481993462811" stroke="#0d6d4d" stroke-width="0.1" fill="none" />
<path d="M238.85733848454677,-54.51762881929704 L-7.879800983415519e-14,245.0" stroke="#0d6d4d" stroke-width="0.1" fill="none" />
<path d="M239.3466484798778,-52.327639555494926 L-46.83386403183622,240.481993462811" stroke="#0d6d4d" stroke-width="0.1" fill="none" />
<path d="M239.81587976462842,-50.13326054344835 L-91.94041619544669,227.09460554977534" stroke="#0d6d4d" stroke-width="0.1" fill="none" />
<path d="M240.26499297514252,-47.93467586888134 L-133.65605079658437,205.331585698501" stroke="#0d6d4d" stroke-width="0.1" fill="none" />
<path d="M240.6939504354625,-45.73206997032953 L-170.44222489785423,175.9955907739432" stroke="#0d6d4d" stroke-width="0.1" fill="none" />
<path d="M241.10271616049,-43.525627623667845 L-200.94220237625413,140.16858172993165" stroke="#0d6d4d" stroke-width="0.1" fill="none" />
<path d="M241.49125585900453,-41.31553392660936 L-224.03109263887404,99.17191906498654" stroke="#0d6d4d" stroke-width="0.1" fill="none" />
<path d="M241.85953693654025,-39.101974283177924 L-238.85733848454677,54.51762881929707" stroke="#0d6d4d" stroke-width="0.1" fill="none" />
<path d="M242.20752849812038,-36.885134388154285 L-244.87412296916852,7.852636505055531" stroke="#0d6d4d" stroke-width="0.1" fill="none" />
<path d="M242.5352013508487,-34.66520021149857 L-241.85953693654028,-39.10197428317792" stroke="#0d6d4d" stroke-width="0.1" fill="none" />
<path d="M242.8425280063588,-32.442357982749044 L-229.92476340219136,-84.6144383332202" stroke="#0d6d4d" stroke-width="0.1" fill="none" />
<path d="M243.12948268312,-30.216794175399478 L-209.5099769363099,-127.0061792360785" stroke="#0d6d4d" stroke-width="0.1" fill="none" />
<path d="M243.39604130860005,-27.98869549125607 L-181.3681092834524,-164.71371811402253" stroke="#0d6d4d" stroke-width="0.1" fill="none" />
<path d="M243.6421815212847,-25.758248844774982 L-146.53707997034797,-196.3463373576493" stroke="#0d6d4d" stroke-width="0.1" fill="none" />
<path d="M243.86788267255358,-23.52564134738206 L-106.30151608380179,-220.73737263609266" stroke="#0d6d4d" stroke-width="0.1" fill="none" />
<path d="M244.0731258284122,-21.291060291776255 L-62.145373057829325,-236.98724144456222" stroke="#0d6d4d" stroke-width="0.1" fill="none" />
<path d="M244.25789377108077,-19.054693136217615 L-15.697203895274663,-244.4966212238324" stroke="#0d6d4d" stroke-width="0.1" fill="none" />
<path d="M244.42217100043806,-16.816727488801668 L31.32990461270397,-242.98855338669532" stroke="#0d6d4d" stroke-width="0.1" fill="none" />
<path d="M244.56594373532204,-14.577351091720743 L77.20151341578706,-232.5186580176138" stroke="#0d6d4d" stroke-width="0.1" fill="none" />
<path d="M244.68919991468593,-12.336751805514421 L120.22580024096477,-213.4730825102304" stroke="#0d6d4d" stroke-width="0.1" fill="none" />
<path d="M244.79192919860986,-10.095117593310377 L158.81595685040816,-186.55425980043793" stroke="#0d6d4d" stroke-width="0.1" fill="none" />
<path d="M244.87412296916852,-7.852636505055502 L191.54871320466728,-152.75500145538976" stroke="#0d6d4d" stroke-width="0.1" fill="none" />
<path d="M244.93577433115382,-5.6094966617411055 L217.216830061385,-113.32188110900466" stroke="#0d6d4d" stroke-width="0.1" fill="none" />
<path d="M244.97687811265357,-3.365886239621081 L234.87362399398185,-69.70925872460295" stroke="#0d6d4d" stroke-width="0.1" fill="none" />
<path d="M244.99743086548523,-1.1219934544260173 L243.86788267255358,-23.52564134738206" stroke="#0d6d4d" stroke-width="0.1" fill="none" />
<path d="M244.99743086548523,1.121993454425987 L243.86788267255358,23.52564134738203" stroke="#0d6d4d" stroke-width="0.1" fill="none" />
<path d="M244.97687811265357,3.3658862396209965 L234.87362399398188,69.70925872460292" stroke="#0d6d4d" stroke-width="0.1" fill="none" />
<path d="M244.93577433115382,5.609496661741075 L217.21683006138502,113.3218811090046" stroke="#0d6d4d" stroke-width="0.1" fill="none" />
<path d="M244.87412296916852,7.852636505055472 L191.54871320466734,152.75500145538967" stroke="#0d6d4d" stroke-width="0.1" fill="none" />
<path d="M244.79192919860986,10.095117593310293 L158.81595685040816,186.55425980043793" stroke="#0d6d4d" stroke-width="0.1" fill="none" />
<path d="M244.68919991468593,12.336751805514446 L120.22580024096484,213.47308251023034" stroke="#0d6d4d" stroke-width="0.1" fill="none" />
<path d="M244.56594373532207,14.577351091720658 L77.2015134157871,232.5186580176138" stroke="#0d6d4d" stroke-width="0.1" fill="none" />
<path d="M244.42217100043806,16.81672748880164 L31.329904612703984,242.9885533866953" stroke="#0d6d4d" stroke-width="0.1" fill="none" />
<path d="M244.25789377108077,19.054693136217587 L-15.697203895274571,244.4966212238324" stroke="#0d6d4d" stroke-width="0.1" fill="none" />
<path d="M244.07312582841223,21.291060291776173 L-62.14537305782925,236.98724144456222" stroke="#0d6d4d" stroke-width="0.1" fill="none" />
<path d="M243.86788267255358,23.52564134738203 L-106.30151608380162,220.73737263609274" stroke="#0d6d4d" stroke-width="0.1" fill="none" />
<path d="M243.6421815212847,25.758248844774954 L-146.53707997034792,196.34633735764936" stroke="#0d6d4d" stroke-width="0.1" fill="none" />
<path d="M243.39604130860005,27.988695491256042 L-181.36810928345224,164.7137181140227" stroke="#0d6d4d" stroke-width="0.1" fill="none" />
<path d="M243.12948268312,30.216794175399453 L-209.50997693630984,127.00617923607858" stroke="#0d6d4d" stroke-width="0.1" fill="none" />
<path d="M242.84252800635883,32.44235798274897 L-229.92476340219125,84.6144383332205" stroke="#0d6d4d" stroke-width="0.1" fill="none" />
<path d="M242.5352013508487,34.6652002114986 L-241.85953693654025,39.101974283178016" stroke="#0d6d4d" stroke-width="0.1" fill="none" />
<path d="M242.20752849812038,36.88513438815431 L-244.87412296916852,-7.852636505055442" stroke="#0d6d4d" stroke-width="0.1" fill="none" />
<path d="M241.85953693654028,39.1019742831779 L-238.85733848454677,-54.51762881929698" stroke="#0d6d4d" stroke-width="0.1" fill="none" />
<path d="M241.49125585900453,41.31553392660939 L-224.03109263887407,-99.17191906498648" stroke="#0d6d4d" stroke-width="0.1" fill="none" />
<path d="M241.10271616049,43.52562762366782 L-200.9422023762542,-140.16858172993156" stroke="#0d6d4d" stroke-width="0.1" fill="none" />
<path d="M240.6939504354625,45.732069970329505 L-170.4422248978543,-175.99559077394315" stroke="#0d6d4d" stroke-width="0.1" fill="none" />
<path d="M240.26499297514252,47.93467586888132 L-133.65605079658434,-205.33158569850102" stroke="#0d6d4d" stroke-width="0.1" fill="none" />
<path d="M239.81587976462845,50.13326054344833 L-91.94041619544677,-227.0946055497753" stroke="#0d6d4d" stroke-width="0.1" fill="none" />
<path d="M239.34664847987784,52.3276395554949 L-46.8338640318363,-240.481993462811" stroke="#0d6d4d" stroke-width="0.1" fill="none" />
<path d="M238.85733848454677,54.51762881929696 L0.0,-245.0" stroke="#0d6d4d" stroke-width="0.1" fill="none" />
<path d="M238.34799082668778,56.70304461738504 L46.83386403183622,-240.481993462811" stroke="#0d6d4d" stroke-width="0.1" fill="none" />
<path d="M237.81864823530606,58.8837036159561 L91.94041619544666,-227.09460554977534" stroke="#0d6d4d" stroke-width="0.1" fill="none" />
<path d="M237.26935511677524,61.05942288025328 L133.65605079658442,-205.33158569850096" stroke="#0d6d4d" stroke-width="0.1" fill="none" />
<path d="M236.70015755111203,63.230019889912654 L170.44222489785417,-175.99559077394326" stroke="#0d6d4d" stroke-width="0.1" fill="none" />
<path d="M236.11110328811043,65.39531255427443 L200.9422023762542,-140.16858172993156" stroke="#0d6d4d" stroke-width="0.1" fill="none" />
<path d="M235.50224174333636,67.55511922765857 L224.03109263887407,-99.17191906498648" stroke="#0d6d4d" stroke-width="0.1" fill="none" />
<path d="M234.87362399398188,69.70925872460292 L238.85733848454677,-54.51762881929704" stroke="#0d6d4d" stroke-width="0.1" fill="none" />
<path d="M234.22530277458048,71.85755033506298 L244.87412296916852,-7.852636505055502" stroke="#0d6d4d" stroke-width="0.1" fill="none" />
<path d="M233.5573324725832,73.9998138395715 L241.85953693654028,39.1019742831779" stroke="#0d6d4d" stroke-width="0.1" fill="none" />
<path d="M232.86976912379612,76.13586952435686 L229.92476340219127,84.61443833322039" stroke="#0d6d4d" stroke-width="0.1" fill="none" />
<path d="M232.16267040767946,78.26553819641956 L209.5099769363098,127.00617923607861" stroke="#0d6d4d" stroke-width="0.1" fill="none" />
<path d="M231.43609564250875,80.38864119856449 L181.3681092834523,164.7137181140226" stroke="#0d6d4d" stroke-width="0.1" fill="none" />
<path d="M230.69010578039908,82.50500042438811 L146.53707997034786,196.34633735764942" stroke="#0d6d4d" stroke-width="0.1" fill="none" />
<path d="M229.92476340219127,84.61443833322039 L106.30151608380177,220.73737263609266" stroke="#0d6d4d" stroke-width="0.1" fill="none" />
<path d="M229.14013271220247,86.716777965018 L62.1453730578293,236.98724144456222" stroke="#0d6d4d" stroke-width="0.1" fill="none" />
<path d="M228.3362795328398,88.81184295520985 L15.697203895274633,244.4966212238324" stroke="#0d6d4d" stroke-width="0.1" fill="none" />
<path d="M227.51327129907847,90.89945754949215 L-31.329904612703928,242.98855338669532" stroke="#0d6d4d" stroke-width="0.1" fill="none" />
<path d="M226.67117705280504,92.97944661857218 L-77.20151341578706,232.5186580176138" stroke="#0d6d4d" stroke-width="0.1" fill="none" />
<path d="M225.8100674370252,95.05163567286012 L-120.2258002409647,213.47308251023043" stroke="#0d6d4d" stroke-width="0.1" fill="none" />
<path d="M224.93001468993765,97.11585087710677 L-158.81595685040818,186.5542598004379" stroke="#0d6d4d" stroke-width="0.1" fill="none" />
<path d="M224.03109263887407,99.17191906498645 L-191.54871320466728,152.75500145538976" stroke="#0d6d4d" stroke-width="0.1" fill="none" />
<path d="M223.1133766941058,101.21966775362411 L-217.21683006138502,113.32188110900465" stroke="#0d6d4d" stroke-width="0.1" fill="none" />
<path d="M222.1769438425175,103.25892515806477 L-234.87362399398188,69.70925872460292" stroke="#0d6d4d" stroke-width="0.1" fill="none" />
<path d="M221.22187264114922,105.2895202056841 L-243.86788267255358,23.525641347381985" stroke="#0d6d4d" stroke-width="0.1" fill="none" />
<path d="M220.24824321060564,107.31128255054034 L-243.86788267255358,-23.525641347381896" stroke="#0d6d4d" stroke-width="0.1" fill="none" />
<path d="M219.2561372283353,109.32404258766412 L-234.87362399398182,-69.70925872460306" stroke="#0d6d4d" stroke-width="0.1" fill="none" />
<path d="M218.2456379217784,111.3276314672867 L-217.21683006138505,-113.32188110900456" stroke="#0d6d4d" stroke-width="0.1" fill="none" />
<path d="M217.21683006138502,113.3218811090046 L-191.54871320466734,-152.75500145538967" stroke="#0d6d4d" stroke-width="0.1" fill="none" />
<path d="M216.16979995350377,115.30662421587998 L-158.81595685040816,-186.55425980043793" stroke="#0d6d4d" stroke-width="0.1" fill="none" />
<path d="M215.1046354331414,117.2816942884751 L-120.22580024096477,-213.4730825102304" stroke="#0d6d4d" stroke-width="0.1" fill="none" />
<path d="M214.02142585659467,119.2469256388195 L-77.20151341578703,-232.51865801761383" stroke="#0d6d4d" stroke-width="0.1" fill="none" />
<path d="M212.92026209395394,121.2021534043103 L-31.329904612703906,-242.98855338669532" stroke="#0d6d4d" stroke-width="0.1" fill="none" />
<path d="M211.8012365214803,123.14721356154175 L15.697203895274663,-244.4966212238324" stroke="#0d6d4d" stroke-width="0.1" fill="none" />
<path d="M210.66444301385604,125.08194294006552 L62.1453730578293,-236.98724144456222" stroke="#0d6d4d" stroke-width="0.1" fill="none" />
<path d="M209.5099769363098,127.00617923607861 L106.30151608380173,-220.7373726360927" stroke="#0d6d4d" stroke-width="0.1" fill="none" />
<path d="M208.33793513661612,128.9197610260395 L146.53707997034792,-196.34633735764936" stroke="#0d6d4d" stroke-width="0.1" fill="none" />
<path d="M207.14841593697093,130.82252778020953 L181.3681092834523,-164.7137181140226" stroke="#0d6d4d" stroke-width="0.1" fill="none" />
<path d="M205.94151912574344,132.7143198761198 L209.50997693630978,-127.00617923607867" stroke="#0d6d4d" stroke-width="0.1" fill="none" />
<path d="M204.71734594910512,134.59497861196166 L229.9247634021913,-84.61443833322036" stroke="#0d6d4d" stroke-width="0.1" fill="none" />
<path d="M203.4759991025357,136.4643462199006 L241.85953693654025,-39.101974283177924" stroke="#0d6d4d" stroke-width="0.1" fill="none" />
<path d="M202.21758272220848,138.32226587931092 L244.87412296916852,7.852636505055472" stroke="#0d6d4d" stroke-width="0.1" fill="none" />
<path d="M200.94220237625424,140.1685817299315 L238.85733848454677,54.51762881929696" stroke="#0d6d4d" stroke-width="0.1" fill="none" />
<path d="M199.64996505590523,142.00313888494097 L224.03109263887407,99.17191906498645" stroke="#0d6d4d" stroke-width="0.1" fill="none" />
<path d="M198.3409791665195,143.82578344395094 L200.94220237625424,140.1685817299315" stroke="#0d6d4d" stroke-width="0.1" fill="none" />
<path d="M197.0153545184873,145.63636250591668 L170.4422248978542,175.99559077394323" stroke="#0d6d4d" stroke-width="0.1" fill="none" />
<path d="M195.6732023180184,147.4347241819641 L133.65605079658442,205.33158569850096" stroke="#0d6d4d" stroke-width="0.1" fill="none" />
<path d="M194.31463515781383,149.22071760813142 L91.94041619544674,227.0946055497753" stroke="#0d6d4d" stroke-width="0.1" fill="none" />
<path d="M192.93976700761982,150.9941929580253 L46.83386403183627,240.481993462811" stroke="#0d6d4d" stroke-width="0.1" fill="none" />
<path d="M191.54871320466734,152.75500145538967 L-7.879800983415519e-14,245.0" stroke="#0d6d4d" stroke-width="0.1" fill="none" />
<path d="M190.14159044399634,154.5029953865865 L-46.83386403183622,240.481993462811" stroke="#0d6d4d" stroke-width="0.1" fill="none" />
<path d="M188.7185167686663,156.2380281129873 L-91.94041619544669,227.09460554977534" stroke="#0d6d4d" stroke-width="0.1" fill="none" />
<path d="M187.27961155985366,157.95995408327494 L-133.65605079658437,205.331585698501" stroke="#0d6d4d" stroke-width="0.1" fill="none" />
<path d="M185.82499552683677,159.66862884565361 L-170.44222489785423,175.9955907739432" stroke="#0d6d4d" stroke-width="0.1" fill="none" />
<path d="M184.35479069687005,161.3639090599668 L-200.94220237625413,140.16858172993165" stroke="#0d6d4d" stroke-width="0.1" fill="none" />
<path d="M182.8691204049466,163.04565250972237 L-224.03109263887404,99.17191906498654" stroke="#0d6d4d" stroke-width="0.1" fill="none" />
<path d="M181.3681092834523,164.7137181140226 L-238.85733848454677,54.51762881929707" stroke="#0d6d4d" stroke-width="0.1" fill="none" />
<path d="M179.85188325170984,166.36796593939997 L-244.87412296916852,7.852636505055531" stroke="#0d6d4d" stroke-width="0.1" fill="none" />
<path d="M178.3205695054157,168.00825721155556 L-241.85953693654028,-39.10197428317792" stroke="#0d6d4d" stroke-width="0.1" fill="none" />
<path d="M176.77429650596983,169.63445432700124 L-229.92476340219136,-84.6144383332202" stroke="#0d6d4d" stroke-width="0.1" fill="none" />
<path d="M175.21319396969884,171.2464208646029 L-209.5099769363099,-127.0061792360785" stroke="#0d6d4d" stroke-width="0.1" fill="none" />
<path d="M173.63739285697417,172.8440215970249 L-181.3681092834524,-164.71371811402253" stroke="#0d6d4d" stroke-width="0.1" fill="none" />
<path d="M172.04702536122622,174.42712250207413 L-146.53707997034797,-196.3463373576493" stroke="#0d6d4d" stroke-width="0.1" fill="none" />
<path d="M170.4422248978542,175.99559077394323 L-106.30151608380179,-220.73737263609266" stroke="#0d6d4d" stroke-width="0.1" fill="none" />
<path d="M168.82312609303412,177.54929483435157 L-62.145373057829325,-236.98724144456222" stroke="#0d6d4d" stroke-width="0.1" fill="none" />
<path d="M167.1898647724252,179.0881043435833 L-15.697203895274663,-244.4966212238324" stroke="#0d6d4d" stroke-width="0.1" fill="none" />
<path d="M165.54257794977525,180.61189021142152 L31.32990461270397,-242.98855338669532" stroke="#0d6d4d" stroke-width="0.1" fill="none" />
<path d="M163.88140381542706,182.12052460797747 L77.20151341578706,-232.5186580176138" stroke="#0d6d4d" stroke-width="0.1" fill="none" />
<path d="M162.2064817247251,183.61388097441443 L120.22580024096477,-213.4730825102304" stroke="#0d6d4d" stroke-width="0.1" fill="none" />
<path d="M160.5179521863253,185.0918340335645 L158.81595685040816,-186.55425980043793" stroke="#0d6d4d" stroke-width="0.1" fill="none" />
<path d="M158.81595685040816,186.55425980043793 L191.54871320466728,-152.75500145538976" stroke="#0d6d4d" stroke-width="0.1" fill="none" />
<path d="M157.10063849679509,188.0010355926246 L217.216830061385,-113.32188110900466" stroke="#0d6d4d" stroke-width="0.1" fill="none" />
<path d="M155.3721410229712,189.4320400405854 L234.87362399398185,-69.70925872460295" stroke="#0d6d4d" stroke-width="0.1" fill="none" />
<path d="M153.63060943201353,190.84715309783405 L243.86788267255358,-23.52564134738206" stroke="#0d6d4d" stroke-width="0.1" fill="none" />
<path d="M151.87618982042693,192.2462560510078 L243.86788267255358,23.52564134738203" stroke="#0d6d4d" stroke-width="0.1" fill="none" />
<path d="M150.10902936588784,193.62923152982614 L234.87362399398188,69.70925872460292" stroke="#0d6d4d" stroke-width="0.1" fill="none" />
<path d="M148.32927631489807,194.99596351693697 L217.21683006138502,113.3218811090046" stroke="#0d6d4d" stroke-width="0.1" fill="none" />
<path d="M146.53707997034786,196.34633735764942 L191.54871320466734,152.75500145538967" stroke="#0d6d4d" stroke-width="0.1" fill="none" />
<path d="M144.73259067899144,197.68023976955186 L158.81595685040816,186.55425980043793" stroke="#0d6d4d" stroke-width="0.1" fill="none" />
<path d="M142.91595981883407,198.9975588520156 L120.22580024096484,213.47308251023034" stroke="#0d6d4d" stroke-width="0.1" fill="none" />
<path d="M141.0873397864332,200.2981840955817 L77.2015134157871,232.5186580176138" stroke="#0d6d4d" stroke-width="0.1" fill="none" />
<path d="M139.24688398411402,201.58200639123197 L31.329904612703984,242.9885533866953" stroke="#0d6d4d" stroke-width="0.1" fill="none" />
<path d="M137.3947468071004,202.84891803954187 L-15.697203895274571,244.4966212238324" stroke="#0d6d4d" stroke-width="0.1" fill="none" />
<path d="M135.53108363056285,204.09881275971543 L-62.14537305782925,236.98724144456222" stroke="#0d6d4d" stroke-width="0.1" fill="none" />
<path d="M133.65605079658442,205.33158569850096 L-106.30151608380162,220.73737263609274" stroke="#0d6d4d" stroke-width="0.1" fill="none" />
<path d="M131.76980560104457,206.54713343898752 L-146.53707997034792,196.34633735764936" stroke="#0d6d4d" stroke-width="0.1" fill="none" />
<path d="M129.8725062804242,207.74535400928028 L-181.36810928345224,164.7137181140227" stroke="#0d6d4d" stroke-width="0.1" fill="none" />
<path d="M127.96431199853093,208.92614689105486 L-209.50997693630984,127.00617923607858" stroke="#0d6d4d" stroke-width="0.1" fill="none" />
<path d="M126.04538283314741,210.08941302798982 L-229.92476340219125,84.6144383332205" stroke="#0d6d4d" stroke-width="0.1" fill="none" />
<path d="M124.11587976260172,211.23505483407672 L-241.85953693654025,39.101974283178016" stroke="#0d6d4d" stroke-width="0.1" fill="none" />
<path d="M122.17596465226349,212.36297620180608 L-244.87412296916852,-7.852636505055442" stroke="#0d6d4d" stroke-width="0.1" fill="none" />
<path d="M120.22580024096484,213.47308251023034 L-238.85733848454677,-54.51762881929698" stroke="#0d6d4d" stroke-width="0.1" fill="none" />
<path d="M118.26555012734826,214.56528063290125 L-224.03109263887407,-99.17191906498648" stroke="#0d6d4d" stroke-width="0.1" fill="none" />
<path d="M116.29537875614275,215.63947894568216 L-200.9422023762542,-140.16858172993156" stroke="#0d6d4d" stroke-width="0.1" fill="none" />
<path d="M114.31545140436796,216.6955873344346 L-170.4422248978543,-175.99559077394315" stroke="#0d6d4d" stroke-width="0.1" fill="none" />
<path d="M112.3259341674697,217.73351720257784 L-133.65605079658434,-205.33158569850102" stroke="#0d6d4d" stroke-width="0.1" fill="none" />
<path d="M110.32699394538592,218.75318147852107 L-91.94041619544677,-227.0946055497753" stroke="#0d6d4d" stroke-width="0.1" fill="none" />
<path d="M108.31879842854573,219.75449462296802 L-46.8338640318363,-240.481993462811" stroke="#0d6d4d" stroke-width="0.1" fill="none" />
<path d="M106.30151608380177,220.73737263609266 L0.0,-245.0" stroke="#0d6d4d" stroke-width="0.1" fill="none" />
<path d="M104.27531614029783,221.701733064586 L46.83386403183622,-240.481993462811" stroke="#0d6d4d" stroke-width="0.1" fill="none" />
<path d="M102.24036857527179,222.6474950085731 L91.94041619544666,-227.09460554977534" stroke="#0d6d4d" stroke-width="0.1" fill="none" />
<path d="M100.19684409979693,223.57457912839953 L133.65605079658442,-205.33158569850096" stroke="#0d6d4d" stroke-width="0.1" fill="none" />
<path d="M98.14491414446043,224.48290765128755 L170.44222489785417,-175.99559077394326" stroke="#0d6d4d" stroke-width="0.1" fill="none" />
<path d="M96.08475084498242,225.37240437786 L200.9422023762542,-140.16858172993156" stroke="#0d6d4d" stroke-width="0.1" fill="none" />
<path d="M94.0165270277756,226.24299468853292 L224.03109263887407,-99.17191906498648" stroke="#0d6d4d" stroke-width="0.1" fill="none" />
<path d="M91.94041619544674,227.0946055497753 L238.85733848454677,-54.51762881929704" stroke="#0d6d4d" stroke-width="0.1" fill="none" />
<path d="M89.85659251224163,227.92716552023577 L244.87412296916852,-7.852636505055502" stroke="#0d6d4d" stroke-width="0.1" fill="none" />
<path d="M87.76523078943484,228.74060475673585 L241.85953693654028,39.1019742831779" stroke="#0d6d4d" stroke-width="0.1" fill="none" />
<path d="M85.66650647066426,229.534855020129 L229.92476340219127,84.61443833322039" stroke="#0d6d4d" stroke-width="0.1" fill="none" />
<path d="M83.5605956172135,230.3098496810254 L209.5099769363098,127.00617923607861" stroke="#0d6d4d" stroke-width="0.1" fill="none" />
<path d="M81.44767489324248,231.06552372538115 L181.3681092834523,164.7137181140226" stroke="#0d6d4d" stroke-width="0.1" fill="none" />
<path d="M79.32792155096652,231.8018137599525 L146.53707997034786,196.34633735764942" stroke="#0d6d4d" stroke-width="0.1" fill="none" />
<path d="M77.2015134157871,232.5186580176138 L106.30151608380177,220.73737263609266" stroke="#0d6d4d" stroke-width="0.1" fill="none" />
<path d="M75.0686288713741,233.21599636253922 L62.1453730578293,236.98724144456222" stroke="#0d6d4d" stroke-width="0.1" fill="none" />
<path d="M72.92944684470105,233.89377029524735 L15.697203895274633,244.4966212238324" stroke="#0d6d4d" stroke-width="0.1" fill="none" />
<path d="M70.78414679103551,234.55192295750876 L-31.329904612703928,242.98855338669532" stroke="#0d6d4d" stroke-width="0.1" fill="none" />
<path d="M68.632908678884,235.19039913711606 L-77.20151341578706,232.5186580176138" stroke="#0d6d4d" stroke-width="0.1" fill="none" />
<path d="M66.47591297489481,235.80914527251528 L-120.2258002409647,213.47308251023043" stroke="#0d6d4d" stroke-width="0.1" fill="none" />
<path d="M64.31334062871882,236.40810945729925 L-158.81595685040818,186.5542598004379" stroke="#0d6d4d" stroke-width="0.1" fill="none" />
<path d="M62.1453730578293,236.98724144456222 L-191.54871320466728,152.75500145538976" stroke="#0d6d4d" stroke-width="0.1" fill="none" />
<path d="M59.97219213230358,237.54649265111465 L-217.21683006138502,113.32188110900465" stroke="#0d6d4d" stroke-width="0.1" fill="none" />
<path d="M57.793980159565194,238.08581616155925 L-234.87362399398188,69.70925872460292" stroke="#0d6d4d" stroke-width="0.1" fill="none" />
<path d="M55.61091986909054,238.60516673222645 L-243.86788267255358,23.525641347381985" stroke="#0d6d4d" stroke-width="0.1" fill="none" />
<path d="M53.42319439708011,239.10450079496997 L-243.86788267255358,-23.525641347381896" stroke="#0d6d4d" stroke-width="0.1" fill="none" />
<path d="M51.230987271094605,239.58377646082164 L-234.87362399398182,-69.70925872460306" stroke="#0d6d4d" stroke-width="0.1" fill="none" />
<path d="M49.03448239465928,240.04295352350556 L-217.21683006138505,-113.32188110900456" stroke="#0d6d4d" stroke-width="0.1" fill="none" />
<path d="M46.83386403183627,240.481993462811 L-191.54871320466734,-152.75500145538967" stroke="#0d6d4d" stroke-width="0.1" fill="none" />
<path d="M44.62931679176667,240.90085944782376 L-158.81595685040816,-186.55425980043793" stroke="#0d6d4d" stroke-width="0.1" fill="none" />
<path d="M42.421025613183815,241.2995163400159 L-120.22580024096477,-213.4730825102304" stroke="#0d6d4d" stroke-width="0.1" fill="none" />
<path d="M40.209175748898666,241.67793069619364 L-77.20151341578703,-232.51865801761383" stroke="#0d6d4d" stroke-width="0.1" fill="none" />
<path d="M37.99395275025946,242.03607077130272 L-31.329904612703906,-242.98855338669532" stroke="#0d6d4d" stroke-width="0.1" fill="none" />
<path d="M35.775542451585146,242.37390652109156 L15.697203895274663,-244.4966212238324" stroke="#0d6d4d" stroke-width="0.1" fill="none" />
<path d="M33.55413095457673,242.6914096046317 L62.1453730578293,-236.98724144456222" stroke="#0d6d4d" stroke-width="0.1" fill="none" />
<path d="M31.329904612703984,242.9885533866953 L106.30151608380173,-220.7373726360927" stroke="#0d6d4d" stroke-width="0.1" fill="none" />
<path d="M29.103050015573967,243.26531293998946 L146.53707997034792,-196.34633735764936" stroke="#0d6d4d" stroke-width="0.1" fill="none" />
<path d="M26.873753973276308,243.52166504724752 L181.3681092834523,-164.7137181140226" stroke="#0d6d4d" stroke-width="0.1" fill="none" />
<path d="M24.642203500713315,243.75758820317662 L209.50997693630978,-127.00617923607867" stroke="#0d6d4d" stroke-width="0.1" fill="none" />
<path d="M22.408585801910593,243.9730626162618 L229.9247634021913,-84.61443833322036" stroke="#0d6d4d" stroke-width="0.1" fill="none" />
<path d="M20.17308825431245,244.1680702104264 L241.85953693654025,-39.101974283177924" stroke="#0d6d4d" stroke-width="0.1" fill="none" />
<path d="M17.935898393063187,244.3425946265483 L244.87412296916852,7.852636505055472" stroke="#0d6d4d" stroke-width="0.1" fill="none" />
<path d="M15.697203895274633,244.4966212238324 L238.85733848454677,54.51762881929696" stroke="#0d6d4d" stroke-width="0.1" fill="none" />
<path d="M13.457192564282503,244.63013708103875 L224.03109263887407,99.17191906498645" stroke="#0d6d4d" stroke-width="0.1" fill="none" />
<path d="M11.21605231389045,244.74313099756665 L200.94220237625424,140.1685817299315" stroke="#0d6d4d" stroke-width="0.1" fill="none" />
<path d="M8.973971152607565,244.83559349439403 L170.4422248978542,175.99559077394323" stroke="#0d6d4d" stroke-width="0.1" fill="none" />
<path d="M6.731137167875195,244.90751681487288 L133.65605079658442,205.33158569850096" stroke="#0d6d4d" stroke-width="0.1" fill="none" />
<path d="M4.487738510288917,244.95889492537984 L91.94041619544674,227.0946055497753" stroke="#0d6d4d" stroke-width="0.1" fill="none" />
<path d="M2.24396337781441,244.98972351582225 L46.83386403183627,240.481993462811" stroke="#0d6d4d" stroke-width="0.1" fill="none" />
<path d="M-7.879800983415519e-14,245.0 L-7.879800983415519e-14,245.0" stroke="#0d6d4d" stroke-width="0.1" fill="none" />
<path d="M-2.2439633778143495,244.98972351582225 L-46.83386403183622,240.481993462811" stroke="#0d6d4d" stroke-width="0.1" fill="none" />
<path d="M-4.487738510288858,244.95889492537984 L-91.94041619544669,227.09460554977534" stroke="#0d6d4d" stroke-width="0.1" fill="none" />
<path d="M-6.731137167875026,244.9075168148729 L-133.65605079658437,205.331585698501" stroke="#0d6d4d" stroke-width="0.1" fill="none" />
<path d="M-8.973971152607504,244.83559349439403 L-170.44222489785423,175.9955907739432" stroke="#0d6d4d" stroke-width="0.1" fill="none" />
<path d="M-11.216052313890389,244.74313099756668 L-200.94220237625413,140.16858172993165" stroke="#0d6d4d" stroke-width="0.1" fill="none" />
<path d="M-13.457192564282442,244.63013708103875 L-224.03109263887404,99.17191906498654" stroke="#0d6d4d" stroke-width="0.1" fill="none" />
<path d="M-15.697203895274571,244.4966212238324 L-238.85733848454677,54.51762881929707" stroke="#0d6d4d" stroke-width="0.1" fill="none" />
<path d="M-17.935898393063127,244.3425946265483 L-244.87412296916852,7.852636505055531" stroke="#0d6d4d" stroke-width="0.1" fill="none" />
<path d="M-20.17308825431228,244.1680702104264 L-241.85953693654028,-39.10197428317792" stroke="#0d6d4d" stroke-width="0.1" fill="none" />
<path d="M-22.40858580191053,243.9730626162618 L-229.92476340219136,-84.6144383332202" stroke="#0d6d4d" stroke-width="0.1" fill="none" />
<path d="M-24.64220350071336,243.75758820317662 L-209.5099769363099,-127.0061792360785" stroke="#0d6d4d" stroke-width="0.1" fill="none" />
<path d="M-26.873753973276138,243.52166504724752 L-181.3681092834524,-164.71371811402253" stroke="#0d6d4d" stroke-width="0.1" fill="none" />
<path d="M-29.103050015573796,243.26531293998949 L-146.53707997034797,-196.3463373576493" stroke="#0d6d4d" stroke-width="0.1" fill="none" />
<path d="M-31.329904612703928,242.98855338669532 L-106.30151608380179,-220.73737263609266" stroke="#0d6d4d" stroke-width="0.1" fill="none" />
<path d="M-33.55413095457667,242.6914096046317 L-62.145373057829325,-236.98724144456222" stroke="#0d6d4d" stroke-width="0.1" fill="none" />
<path d="M-35.77554245158509,242.37390652109158 L-15.697203895274663,-244.4966212238324" stroke="#0d6d4d" stroke-width="0.1" fill="none" />
<path d="M-37.9939527502594,242.03607077130272 L31.32990461270397,-242.98855338669532" stroke="#0d6d4d" stroke-width="0.1" fill="none" />
<path d="M-40.2091757488985,241.67793069619367 L77.20151341578706,-232.5186580176138" stroke="#0d6d4d" stroke-width="0.1" fill="none" />
<path d="M-42.42102561318365,241.29951634001594 L120.22580024096477,-213.4730825102304" stroke="#0d6d4d" stroke-width="0.1" fill="none" />
<path d="M-44.62931679176662,240.90085944782376 L158.81595685040816,-186.55425980043793" stroke="#0d6d4d" stroke-width="0.1" fill="none" />
<path d="M-46.83386403183622,240.481993462811 L191.54871320466728,-152.75500145538976" stroke="#0d6d4d" stroke-width="0.1" fill="none" />
<path d="M-49.034482394659335,240.04295352350556 L217.216830061385,-113.32188110900466" stroke="#0d6d4d" stroke-width="0.1" fill="none" />
<path d="M-51.23098727109455,239.58377646082164 L234.87362399398185,-69.70925872460295" stroke="#0d6d4d" stroke-width="0.1" fill="none" />
<path d="M-53.42319439708016,239.10450079496997 L243.86788267255358,-23.52564134738206" stroke="#0d6d4d" stroke-width="0.1" fill="none" />
<path d="M-55.61091986909048,238.60516673222648 L243.86788267255358,23.52564134738203" stroke="#0d6d4d" stroke-width="0.1" fill="none" />
<path d="M-57.79398015956514,238.08581616155928 L234.87362399398188,69.70925872460292" stroke="#0d6d4d" stroke-width="0.1" fill="none" />
<path d="M-59.972192132303526,237.54649265111465 L217.21683006138502,113.3218811090046" stroke="#0d6d4d" stroke-width="0.1" fill="none" />
<path d="M-62.14537305782925,236.98724144456222 L191.54871320466734,152.75500145538967" stroke="#0d6d4d" stroke-width="0.1" fill="none" />
<path d="M-64.31334062871865,236.4081094572993 L158.81595685040816,186.55425980043793" stroke="#0d6d4d" stroke-width="0.1" fill="none" />
<path d="M-66.47591297489477,235.80914527251528 L120.22580024096484,213.47308251023034" stroke="#0d6d4d" stroke-width="0.1" fill="none" />
<path d="M-68.63290867888405,235.19039913711606 L77.2015134157871,232.5186580176138" stroke="#0d6d4d" stroke-width="0.1" fill="none" />
<path d="M-70.78414679103547,234.5519229575088 L31.329904612703984,242.9885533866953" stroke="#0d6d4d" stroke-width="0.1" fill="none" />
<path d="M-72.9294468447011,233.89377029524732 L-15.697203895274571,244.4966212238324" stroke="#0d6d4d" stroke-width="0.1" fill="none" />
<path d="M-75.06862887137395,233.21599636253924 L-62.14537305782925,236.98724144456222" stroke="#0d6d4d" stroke-width="0.1" fill="none" />
<path d="M-77.20151341578706,232.5186580176138 L-106.30151608380162,220.73737263609274" stroke="#0d6d4d" stroke-width="0.1" fill="none" />
<path d="M-79.32792155096647,231.80181375995252 L-146.53707997034792,196.34633735764936" stroke="#0d6d4d" stroke-width="0.1" fill="none" />
<path d="M-81.44767489324254,231.06552372538113 L-181.36810928345224,164.7137181140227" stroke="#0d6d4d" stroke-width="0.1" fill="none" />
<path d="M-83.56059561721344,230.30984968102544 L-209.50997693630984,127.00617923607858" stroke="#0d6d4d" stroke-width="0.1" fill="none" />
<path d="M-85.6665064706642,229.53485502012902 L-229.92476340219125,84.6144383332205" stroke="#0d6d4d" stroke-width="0.1" fill="none" />
<path d="M-87.7652307894347,228.7406047567359 L-241.85953693654025,39.101974283178016" stroke="#0d6d4d" stroke-width="0.1" fill="none" />
<path d="M-89.85659251224158,227.9271655202358 L-244.87412296916852,-7.852636505055442" stroke="#0d6d4d" stroke-width="0.1" fill="none" />
<path d="M-91.94041619544669,227.09460554977534 L-238.85733848454677,-54.51762881929698" stroke="#0d6d4d" stroke-width="0.1" fill="none" />
<path d="M-94.01652702777555,226.24299468853295 L-224.03109263887407,-99.17191906498648" stroke="#0d6d4d" stroke-width="0.1" fill="none" />
<path d="M-96.08475084498237,225.37240437786002 L-200.9422023762542,-140.16858172993156" stroke="#0d6d4d" stroke-width="0.1" fill="none" />
<path d="M-98.14491414446037,224.48290765128758 L-170.4422248978543,-175.99559077394315" stroke="#0d6d4d" stroke-width="0.1" fill="none" />
<path d="M-100.19684409979698,223.5745791283995 L-133.65605079658434,-205.33158569850102" stroke="#0d6d4d" stroke-width="0.1" fill="none" />
<path d="M-102.24036857527173,222.6474950085731 L-91.94041619544677,-227.0946055497753" stroke="#0d6d4d" stroke-width="0.1" fill="none" />
<path d="M-104.27531614029778,221.70173306458602 L-46.8338640318363,-240.481993462811" stroke="#0d6d4d" stroke-width="0.1" fill="none" />
<path d="M-106.30151608380162,220.73737263609274 L0.0,-245.0" stroke="#0d6d4d" stroke-width="0.1" fill="none" />
<path d="M-108.31879842854559,219.75449462296808 L46.83386403183622,-240.481993462811" stroke="#0d6d4d" stroke-width="0.1" fill="none" />
<path d="M-110.32699394538577,218.75318147852116 L91.94041619544666,-227.09460554977534" stroke="#0d6d4d" stroke-width="0.1" fill="none" />
<path d="M-112.32593416746964,217.73351720257787 L133.65605079658442,-205.33158569850096" stroke="#0d6d4d" stroke-width="0.1" fill="none" />
<path d="M-114.31545140436802,216.6955873344346 L170.44222489785417,-175.99559077394326" stroke="#0d6d4d" stroke-width="0.1" fill="none" />
<path d="M-116.2953787561427,215.63947894568219 L200.9422023762542,-140.16858172993156" stroke="#0d6d4d" stroke-width="0.1" fill="none" />
<path d="M-118.26555012734832,214.56528063290122 L224.03109263887407,-99.17191906498648" stroke="#0d6d4d" stroke-width="0.1" fill="none" />
<path d="M-120.2258002409647,213.47308251023043 L238.85733848454677,-54.51762881929704" stroke="#0d6d4d" stroke-width="0.1" fill="none" />
<path d="M-122.17596465226346,212.36297620180613 L244.87412296916852,-7.852636505055502" stroke="#0d6d4d" stroke-width="0.1" fill="none" />
<path d="M-124.1158797626017,211.23505483407672 L241.85953693654028,39.1019742831779" stroke="#0d6d4d" stroke-width="0.1" fill="none" />
<path d="M-126.04538283314739,210.08941302798985 L229.92476340219127,84.61443833322039" stroke="#0d6d4d" stroke-width="0.1" fill="none" />
<path d="M-127.9643119985309,208.92614689105488 L209.5099769363098,127.00617923607861" stroke="#0d6d4d" stroke-width="0.1" fill="none" />
<path d="M-129.87250628042418,207.74535400928028 L181.3681092834523,164.7137181140226" stroke="#0d6d4d" stroke-width="0.1" fill="none" />
<path d="M-131.76980560104442,206.54713343898763 L146.53707997034786,196.34633735764942" stroke="#0d6d4d" stroke-width="0.1" fill="none" />
<path d="M-133.65605079658437,205.331585698501 L106.30151608380177,220.73737263609266" stroke="#0d6d4d" stroke-width="0.1" fill="none" />
<path d="M-135.5310836305629,204.09881275971537 L62.1453730578293,236.98724144456222" stroke="#0d6d4d" stroke-width="0.1" fill="none" />
<path d="M-137.39474680710026,202.84891803954196 L15.697203895274633,244.4966212238324" stroke="#0d6d4d" stroke-width="0.1" fill="none" />
<path d="M-139.24688398411396,201.582006391232 L-31.329904612703928,242.98855338669532" stroke="#0d6d4d" stroke-width="0.1" fill="none" />
<path d="M-141.08733978643315,200.29818409558172 L-77.20151341578706,232.5186580176138" stroke="#0d6d4d" stroke-width="0.1" fill="none" />
<path d="M-142.91595981883412,198.99755885201554 L-120.2258002409647,213.47308251023043" stroke="#0d6d4d" stroke-width="0.1" fill="none" />
<path d="M-144.73259067899141,197.6802397695519 L-158.81595685040818,186.5542598004379" stroke="#0d6d4d" stroke-width="0.1" fill="none" />
<path d="M-146.53707997034792,196.34633735764936 L-191.54871320466728,152.75500145538976" stroke="#0d6d4d" stroke-width="0.1" fill="none" />
<path d="M-148.32927631489798,194.99596351693705 L-217.21683006138502,113.32188110900465" stroke="#0d6d4d" stroke-width="0.1" fill="none" />
<path d="M-150.10902936588778,193.6292315298262 L-234.87362399398188,69.70925872460292" stroke="#0d6d4d" stroke-width="0.1" fill="none" />
<path d="M-151.87618982042687,192.24625605100783 L-243.86788267255358,23.525641347381985" stroke="#0d6d4d" stroke-width="0.1" fill="none" />
<path d="M-153.63060943201347,190.8471530978341 L-243.86788267255358,-23.525641347381896" stroke="#0d6d4d" stroke-width="0.1" fill="none" />
<path d="M-155.37214102297114,189.43204004058543 L-234.87362399398182,-69.70925872460306" stroke="#0d6d4d" stroke-width="0.1" fill="none" />
<path d="M-157.10063849679506,188.00103559262465 L-217.21683006138505,-113.32188110900456" stroke="#0d6d4d" stroke-width="0.1" fill="none" />
<path d="M-158.81595685040818,186.5542598004379 L-191.54871320466734,-152.75500145538967" stroke="#0d6d4d" stroke-width="0.1" fill="none" />
<path d="M-160.5179521863253,185.09183403356454 L-158.81595685040816,-186.55425980043793" stroke="#0d6d4d" stroke-width="0.1" fill="none" />
<path d="M-162.20648172472505,183.61388097441446 L-120.22580024096477,-213.4730825102304" stroke="#0d6d4d" stroke-width="0.1" fill="none" />
<path d="M-163.88140381542695,182.12052460797756 L-77.20151341578703,-232.51865801761383" stroke="#0d6d4d" stroke-width="0.1" fill="none" />
<path d="M-165.5425779497752,180.61189021142158 L-31.329904612703906,-242.98855338669532" stroke="#0d6d4d" stroke-width="0.1" fill="none" />
<path d="M-167.18986477242507,179.08810434358338 L15.697203895274663,-244.4966212238324" stroke="#0d6d4d" stroke-width="0.1" fill="none" />
<path d="M-168.82312609303406,177.54929483435163 L62.1453730578293,-236.98724144456222" stroke="#0d6d4d" stroke-width="0.1" fill="none" />
<path d="M-170.44222489785423,175.9955907739432 L106.30151608380173,-220.7373726360927" stroke="#0d6d4d" stroke-width="0.1" fill="none" />
<path d="M-172.0470253612262,174.42712250207416 L146.53707997034792,-196.34633735764936" stroke="#0d6d4d" stroke-width="0.1" fill="none" />
<path d="M-173.63739285697417,172.84402159702486 L181.3681092834523,-164.7137181140226" stroke="#0d6d4d" stroke-width="0.1" fill="none" />
<path d="M-175.2131939696987,171.246420864603 L209.50997693630978,-127.00617923607867" stroke="#0d6d4d" stroke-width="0.1" fill="none" />
<path d="M-176.77429650596974,169.6344543270013 L229.9247634021913,-84.61443833322036" stroke="#0d6d4d" stroke-width="0.1" fill="none" />
<path d="M-178.32056950541565,168.00825721155562 L241.85953693654025,-39.101974283177924" stroke="#0d6d4d" stroke-width="0.1" fill="none" />
<path d="M-179.85188325170984,166.36796593939994 L244.87412296916852,7.852636505055472" stroke="#0d6d4d" stroke-width="0.1" fill="none" />
<path d="M-181.36810928345224,164.7137181140227 L238.85733848454677,54.51762881929696" stroke="#0d6d4d" stroke-width="0.1" fill="none" />
<path d="M-182.86912040494664,163.04565250972234 L224.03109263887407,99.17191906498645" stroke="#0d6d4d" stroke-width="0.1" fill="none" />
<path d="M-184.3547906968699,161.36390905996694 L200.94220237625424,140.1685817299315" stroke="#0d6d4d" stroke-width="0.1" fill="none" />
<path d="M-185.8249955268368,159.6686288456536 L170.4422248978542,175.99559077394323" stroke="#0d6d4d" stroke-width="0.1" fill="none" />
<path d="M-187.27961155985366,157.95995408327494 L133.65605079658442,205.33158569850096" stroke="#0d6d4d" stroke-width="0.1" fill="none" />
<path d="M-188.71851676866623,156.23802811298737 L91.94041619544674,227.0946055497753" stroke="#0d6d4d" stroke-width="0.1" fill="none" />
<path d="M-190.14159044399636,154.50299538658646 L46.83386403183627,240.481993462811" stroke="#0d6d4d" stroke-width="0.1" fill="none" />
<path d="M-191.54871320466728,152.75500145538976 L-7.879800983415519e-14,245.0" stroke="#0d6d4d" stroke-width="0.1" fill="none" />
<path d="M-192.93976700761982,150.99419295802528 L-46.83386403183622,240.481993462811" stroke="#0d6d4d" stroke-width="0.1" fill="none" />
<path d="M-194.31463515781377,149.22071760813148 L-91.94041619544669,227.09460554977534" stroke="#0d6d4d" stroke-width="0.1" fill="none" />
<path d="M-195.6732023180184,147.4347241819641 L-133.65605079658437,205.331585698501" stroke="#0d6d4d" stroke-width="0.1" fill="none" />
<path d="M-197.0153545184872,145.6363625059168 L-170.44222489785423,175.9955907739432" stroke="#0d6d4d" stroke-width="0.1" fill="none" />
<path d="M-198.34097916651945,143.82578344395102 L-200.94220237625413,140.16858172993165" stroke="#0d6d4d" stroke-width="0.1" fill="none" />
<path d="M-199.64996505590506,142.0031388849412 L-224.03109263887404,99.17191906498654" stroke="#0d6d4d" stroke-width="0.1" fill="none" />
<path d="M-200.94220237625413,140.16858172993165 L-238.85733848454677,54.51762881929707" stroke="#0d6d4d" stroke-width="0.1" fill="none" />
<path d="M-202.21758272220842,138.32226587931095 L-244.87412296916852,7.852636505055531" stroke="#0d6d4d" stroke-width="0.1" fill="none" />
<path d="M-203.47599910253558,136.46434621990076 L-241.85953693654028,-39.10197428317792" stroke="#0d6d4d" stroke-width="0.1" fill="none" />
<path d="M-204.71734594910507,134.59497861196172 L-229.92476340219136,-84.6144383332202" stroke="#0d6d4d" stroke-width="0.1" fill="none" />
<path d="M-205.94151912574344,132.71431987611976 L-209.5099769363099,-127.0061792360785" stroke="#0d6d4d" stroke-width="0.1" fill="none" />
<path d="M-207.14841593697096,130.8225277802095 L-181.3681092834524,-164.71371811402253" stroke="#0d6d4d" stroke-width="0.1" fill="none" />
<path d="M-208.3379351366161,128.9197610260396 L-146.53707997034797,-196.3463373576493" stroke="#0d6d4d" stroke-width="0.1" fill="none" />
<path d="M-209.50997693630984,127.00617923607858 L-106.30151608380179,-220.73737263609266" stroke="#0d6d4d" stroke-width="0.1" fill="none" />
<path d="M-210.66444301385602,125.0819429400656 L-62.145373057829325,-236.98724144456222" stroke="#0d6d4d" stroke-width="0.1" fill="none" />
<path d="M-211.80123652148023,123.1472135615418 L-15.697203895274663,-244.4966212238324" stroke="#0d6d4d" stroke-width="0.1" fill="none" />
<path d="M-212.92026209395385,121.20215340431047 L31.32990461270397,-242.98855338669532" stroke="#0d6d4d" stroke-width="0.1" fill="none" />
<path d="M-214.02142585659462,119.24692563881958 L77.20151341578706,-232.5186580176138" stroke="#0d6d4d" stroke-width="0.1" fill="none" />
<path d="M-215.10463543314142,117.28169428847504 L120.22580024096477,-213.4730825102304" stroke="#0d6d4d" stroke-width="0.1" fill="none" />
<path d="M-216.16979995350368,115.30662421588012 L158.81595685040816,-186.55425980043793" stroke="#0d6d4d" stroke-width="0.1" fill="none" />
<path d="M-217.21683006138502,113.32188110900465 L191.54871320466728,-152.75500145538976" stroke="#0d6d4d" stroke-width="0.1" fill="none" />
<path d="M-218.24563792177833,111.32763146728685 L217.216830061385,-113.32188110900466" stroke="#0d6d4d" stroke-width="0.1" fill="none" />
<path d="M-219.25613722833526,109.32404258766418 L234.87362399398185,-69.70925872460295" stroke="#0d6d4d" stroke-width="0.1" fill="none" />
<path d="M-220.24824321060558,107.31128255054048 L243.86788267255358,-23.52564134738206" stroke="#0d6d4d" stroke-width="0.1" fill="none" />
<path d="M-221.2218726411492,105.28952020568416 L243.86788267255358,23.52564134738203" stroke="#0d6d4d" stroke-width="0.1" fill="none" />
<path d="M-222.17694384251752,103.25892515806473 L234.87362399398188,69.70925872460292" stroke="#0d6d4d" stroke-width="0.1" fill="none" />
<path d="M-223.1133766941058,101.21966775362411 L217.21683006138502,113.3218811090046" stroke="#0d6d4d" stroke-width="0.1" fill="none" />
<path d="M-224.03109263887404,99.17191906498654 L191.54871320466734,152.75500145538967" stroke="#0d6d4d" stroke-width="0.1" fill="none" />
<path d="M-224.93001468993765,97.11585087710677 L158.81595685040816,186.55425980043793" stroke="#0d6d4d" stroke-width="0.1" fill="none" />
<path d="M-225.8100674370252,95.05163567286006 L120.22580024096484,213.47308251023034" stroke="#0d6d4d" stroke-width="0.1" fill="none" />
<path d="M-226.67117705280504,92.97944661857224 L77.2015134157871,232.5186580176138" stroke="#0d6d4d" stroke-width="0.1" fill="none" />
<path d="M-227.51327129907847,90.8994575494921 L31.329904612703984,242.9885533866953" stroke="#0d6d4d" stroke-width="0.1" fill="none" />
<path d="M-228.33627953283974,88.81184295520995 L-15.697203895274571,244.4966212238324" stroke="#0d6d4d" stroke-width="0.1" fill="none" />
<path d="M-229.14013271220247,86.716777965018 L-62.14537305782925,236.98724144456222" stroke="#0d6d4d" stroke-width="0.1" fill="none" />
<path d="M-229.92476340219125,84.6144383332205 L-106.30151608380162,220.73737263609274" stroke="#0d6d4d" stroke-width="0.1" fill="none" />
<path d="M-230.69010578039905,82.50500042438817 L-146.53707997034792,196.34633735764936" stroke="#0d6d4d" stroke-width="0.1" fill="none" />
<path d="M-231.4360956425087,80.38864119856466 L-181.36810928345224,164.7137181140227" stroke="#0d6d4d" stroke-width="0.1" fill="none" />
<path d="M-232.1626704076794,78.26553819641971 L-209.50997693630984,127.00617923607858" stroke="#0d6d4d" stroke-width="0.1" fill="none" />
<path d="M-232.8697691237961,76.13586952435692 L-229.92476340219125,84.6144383332205" stroke="#0d6d4d" stroke-width="0.1" fill="none" />
<path d="M-233.55733247258314,73.99981383957164 L-241.85953693654025,39.101974283178016" stroke="#0d6d4d" stroke-width="0.1" fill="none" />
<path d="M-234.22530277458043,71.8575503350631 L-244.87412296916852,-7.852636505055442" stroke="#0d6d4d" stroke-width="0.1" fill="none" />
<path d="M-234.87362399398188,69.70925872460292 L-238.85733848454677,-54.51762881929698" stroke="#0d6d4d" stroke-width="0.1" fill="none" />
<path d="M-235.50224174333638,67.55511922765847 L-224.03109263887407,-99.17191906498648" stroke="#0d6d4d" stroke-width="0.1" fill="none" />
<path d="M-236.11110328811043,65.39531255427448 L-200.9422023762542,-140.16858172993156" stroke="#0d6d4d" stroke-width="0.1" fill="none" />
<path d="M-236.70015755111203,63.2300198899126 L-170.4422248978543,-175.99559077394315" stroke="#0d6d4d" stroke-width="0.1" fill="none" />
<path d="M-237.26935511677524,61.05942288025334 L-133.65605079658434,-205.33158569850102" stroke="#0d6d4d" stroke-width="0.1" fill="none" />
<path d="M-237.81864823530609,58.88370361595605 L-91.94041619544677,-227.0946055497753" stroke="#0d6d4d" stroke-width="0.1" fill="none" />
<path d="M-238.34799082668775,56.7030446173852 L-46.8338640318363,-240.481993462811" stroke="#0d6d4d" stroke-width="0.1" fill="none" />
<path d="M-238.85733848454677,54.51762881929707 L0.0,-245.0" stroke="#0d6d4d" stroke-width="0.1" fill="none" />
<path d="M-239.34664847987784,52.327639555494905 L46.83386403183622,-240.481993462811" stroke="#0d6d4d" stroke-width="0.1" fill="none" />
<path d="M-239.81587976462842,50.13326054344844 L91.94041619544666,-227.09460554977534" stroke="#0d6d4d" stroke-width="0.1" fill="none" />
<path d="M-240.26499297514252,47.93467586888133 L133.65605079658442,-205.33158569850096" stroke="#0d6d4d" stroke-width="0.1" fill="none" />
<path d="M-240.69395043546248,45.732069970329675 L170.44222489785417,-175.99559077394326" stroke="#0d6d4d" stroke-width="0.1" fill="none" />
<path d="M-241.10271616049,43.52562762366788 L200.9422023762542,-140.16858172993156" stroke="#0d6d4d" stroke-width="0.1" fill="none" />
<path d="M-241.4912558590045,41.315533926609554 L224.03109263887407,-99.17191906498648" stroke="#0d6d4d" stroke-width="0.1" fill="none" />
<path d="M-241.85953693654025,39.101974283178016 L238.85733848454677,-54.51762881929704" stroke="#0d6d4d" stroke-width="0.1" fill="none" />
<path d="M-242.20752849812038,36.88513438815431 L244.87412296916852,-7.852636505055502" stroke="#0d6d4d" stroke-width="0.1" fill="none" />
<path d="M-242.53520135084872,34.6652002114985 L241.85953693654028,39.1019742831779" stroke="#0d6d4d" stroke-width="0.1" fill="none" />
<path d="M-242.8425280063588,32.44235798274908 L229.92476340219127,84.61443833322039" stroke="#0d6d4d" stroke-width="0.1" fill="none" />
<path d="M-243.12948268312,30.216794175399457 L209.5099769363098,127.00617923607861" stroke="#0d6d4d" stroke-width="0.1" fill="none" />
<path d="M-243.39604130860008,27.988695491255992 L181.3681092834523,164.7137181140226" stroke="#0d6d4d" stroke-width="0.1" fill="none" />
<path d="M-243.6421815212847,25.758248844775014 L146.53707997034786,196.34633735764942" stroke="#0d6d4d" stroke-width="0.1" fill="none" />
<path d="M-243.86788267255358,23.525641347381985 L106.30151608380177,220.73737263609266" stroke="#0d6d4d" stroke-width="0.1" fill="none" />
<path d="M-244.0731258284122,21.291060291776287 L62.1453730578293,236.98724144456222" stroke="#0d6d4d" stroke-width="0.1" fill="none" />
<path d="M-244.25789377108077,19.05469313621759 L15.697203895274633,244.4966212238324" stroke="#0d6d4d" stroke-width="0.1" fill="none" />
<path d="M-244.42217100043806,16.816727488801753 L-31.329904612703928,242.98855338669532" stroke="#0d6d4d" stroke-width="0.1" fill="none" />
<path d="M-244.56594373532204,14.577351091720718 L-77.20151341578706,232.5186580176138" stroke="#0d6d4d" stroke-width="0.1" fill="none" />
<path d="M-244.68919991468593,12.336751805514613 L-120.2258002409647,213.47308251023043" stroke="#0d6d4d" stroke-width="0.1" fill="none" />
<path d="M-244.79192919860986,10.09511759331046 L-158.81595685040818,186.5542598004379" stroke="#0d6d4d" stroke-width="0.1" fill="none" />
<path d="M-244.87412296916852,7.852636505055531 L-191.54871320466728,152.75500145538976" stroke="#0d6d4d" stroke-width="0.1" fill="none" />
<path d="M-244.93577433115382,5.609496661741244 L-217.21683006138502,113.32188110900465" stroke="#0d6d4d" stroke-width="0.1" fill="none" />
<path d="M-244.97687811265357,3.365886239621111 L-234.87362399398188,69.70925872460292" stroke="#0d6d4d" stroke-width="0.1" fill="none" />
<path d="M-244.99743086548523,1.1219934544259929 L-243.86788267255358,23.525641347381985" stroke="#0d6d4d" stroke-width="0.1" fill="none" />
<path d="M-244.99743086548523,-1.1219934544261203 L-243.86788267255358,-23.525641347381896" stroke="#0d6d4d" stroke-width="0.1" fill="none" />
<path d="M-244.97687811265357,-3.365886239621021 L-234.87362399398182,-69.70925872460306" stroke="#0d6d4d" stroke-width="0.1" fill="none" />
<path d="M-244.93577433115382,-5.609496661741154 L-217.21683006138505,-113.32188110900456" stroke="#0d6d4d" stroke-width="0.1" fill="none" />
<path d="M-244.87412296916852,-7.852636505055442 L-191.54871320466734,-152.75500145538967" stroke="#0d6d4d" stroke-width="0.1" fill="none" />
<path d="M-244.79192919860986,-10.095117593310373 L-158.81595685040816,-186.55425980043793" stroke="#0d6d4d" stroke-width="0.1" fill="none" />
<path d="M-244.68919991468593,-12.336751805514307 L-120.22580024096477,-213.4730825102304" stroke="#0d6d4d" stroke-width="0.1" fill="none" />
<path d="M-244.56594373532207,-14.57735109172063 L-77.20151341578703,-232.51865801761383" stroke="#0d6d4d" stroke-width="0.1" fill="none" />
<path d="M-244.42217100043808,-16.81672748880145 L-31.329904612703906,-242.98855338669532" stroke="#0d6d4d" stroke-width="0.1" fill="none" />
<path d="M-244.25789377108077,-19.0546931362175 L15.697203895274663,-244.4966212238324" stroke="#0d6d4d" stroke-width="0.1" fill="none" />
<path d="M-244.07312582841223,-21.291060291776198 L62.1453730578293,-236.98724144456222" stroke="#0d6d4d" stroke-width="0.1" fill="none" />
<path d="M-243.86788267255358,-23.525641347381896 L106.30151608380173,-220.7373726360927" stroke="#0d6d4d" stroke-width="0.1" fill="none" />
<path d="M-243.64218152128473,-25.758248844774926 L146.53707997034792,-196.34633735764936" stroke="#0d6d4d" stroke-width="0.1" fill="none" />
<path d="M-243.39604130860005,-27.98869549125612 L181.3681092834523,-164.7137181140226" stroke="#0d6d4d" stroke-width="0.1" fill="none" />
<path d="M-243.12948268312002,-30.21679417539937 L209.50997693630978,-127.00617923607867" stroke="#0d6d4d" stroke-width="0.1" fill="none" />
<path d="M-242.8425280063588,-32.44235798274899 L229.9247634021913,-84.61443833322036" stroke="#0d6d4d" stroke-width="0.1" fill="none" />
<path d="M-242.5352013508487,-34.66520021149862 L241.85953693654025,-39.101974283177924" stroke="#0d6d4d" stroke-width="0.1" fill="none" />
<path d="M-242.20752849812038,-36.88513438815422 L244.87412296916852,7.852636505055472" stroke="#0d6d4d" stroke-width="0.1" fill="none" />
<path d="M-241.85953693654028,-39.10197428317792 L238.85733848454677,54.51762881929696" stroke="#0d6d4d" stroke-width="0.1" fill="none" />
<path d="M-241.49125585900455,-41.31553392660925 L224.03109263887407,99.17191906498645" stroke="#0d6d4d" stroke-width="0.1" fill="none" />
<path d="M-241.10271616049,-43.52562762366779 L200.94220237625424,140.1685817299315" stroke="#0d6d4d" stroke-width="0.1" fill="none" />
<path d="M-240.69395043546248,-45.73206997032958 L170.4422248978542,175.99559077394323" stroke="#0d6d4d" stroke-width="0.1" fill="none" />
<path d="M-240.26499297514255,-47.934675868881236 L133.65605079658442,205.33158569850096" stroke="#0d6d4d" stroke-width="0.1" fill="none" />
<path d="M-239.81587976462842,-50.133260543448344 L91.94041619544674,227.0946055497753" stroke="#0d6d4d" stroke-width="0.1" fill="none" />
<path d="M-239.34664847987784,-52.327639555494805 L46.83386403183627,240.481993462811" stroke="#0d6d4d" stroke-width="0.1" fill="none" />
<path d="M-238.85733848454677,-54.51762881929698 L-7.879800983415519e-14,245.0" stroke="#0d6d4d" stroke-width="0.1" fill="none" />
<path d="M-238.3479908266878,-56.7030446173849 L-46.83386403183622,240.481993462811" stroke="#0d6d4d" stroke-width="0.1" fill="none" />
<path d="M-237.8186482353061,-58.88370361595596 L-91.94041619544669,227.09460554977534" stroke="#0d6d4d" stroke-width="0.1" fill="none" />
<path d="M-237.26935511677527,-61.05942288025325 L-133.65605079658437,205.331585698501" stroke="#0d6d4d" stroke-width="0.1" fill="none" />
<path d="M-236.70015755111206,-63.23001988991253 L-170.44222489785423,175.9955907739432" stroke="#0d6d4d" stroke-width="0.1" fill="none" />
<path d="M-236.11110328811046,-65.3953125542744 L-200.94220237625413,140.16858172993165" stroke="#0d6d4d" stroke-width="0.1" fill="none" />
<path d="M-235.50224174333636,-67.5551192276586 L-224.03109263887404,99.17191906498654" stroke="#0d6d4d" stroke-width="0.1" fill="none" />
<path d="M-234.87362399398182,-69.70925872460306 L-238.85733848454677,54.51762881929707" stroke="#0d6d4d" stroke-width="0.1" fill="none" />
<path d="M-234.22530277458046,-71.85755033506301 L-244.87412296916852,7.852636505055531" stroke="#0d6d4d" stroke-width="0.1" fill="none" />
<path d="M-233.55733247258317,-73.99981383957157 L-241.85953693654028,-39.10197428317792" stroke="#0d6d4d" stroke-width="0.1" fill="none" />
<path d="M-232.86976912379612,-76.13586952435683 L-229.92476340219136,-84.6144383332202" stroke="#0d6d4d" stroke-width="0.1" fill="none" />
<path d="M-232.16267040767943,-78.26553819641964 L-209.5099769363099,-127.0061792360785" stroke="#0d6d4d" stroke-width="0.1" fill="none" />
<path d="M-231.4360956425088,-80.38864119856437 L-181.3681092834524,-164.71371811402253" stroke="#0d6d4d" stroke-width="0.1" fill="none" />
<path d="M-230.69010578039908,-82.50500042438809 L-146.53707997034797,-196.3463373576493" stroke="#0d6d4d" stroke-width="0.1" fill="none" />
<path d="M-229.92476340219136,-84.6144383332202 L-106.30151608380179,-220.73737263609266" stroke="#0d6d4d" stroke-width="0.1" fill="none" />
<path d="M-229.14013271220253,-86.71677796501793 L-62.145373057829325,-236.98724144456222" stroke="#0d6d4d" stroke-width="0.1" fill="none" />
<path d="M-228.33627953283977,-88.81184295520988 L-15.697203895274663,-244.4966212238324" stroke="#0d6d4d" stroke-width="0.1" fill="none" />
<path d="M-227.5132712990785,-90.89945754949204 L31.32990461270397,-242.98855338669532" stroke="#0d6d4d" stroke-width="0.1" fill="none" />
<path d="M-226.67117705280504,-92.97944661857215 L77.20151341578706,-232.5186580176138" stroke="#0d6d4d" stroke-width="0.1" fill="none" />
<path d="M-225.8100674370252,-95.05163567286017 L120.22580024096477,-213.4730825102304" stroke="#0d6d4d" stroke-width="0.1" fill="none" />
<path d="M-224.93001468993765,-97.1158508771067 L158.81595685040816,-186.55425980043793" stroke="#0d6d4d" stroke-width="0.1" fill="none" />
<path d="M-224.03109263887407,-99.17191906498648 L191.54871320466728,-152.75500145538976" stroke="#0d6d4d" stroke-width="0.1" fill="none" />
<path d="M-223.11337669410574,-101.21966775362422 L217.216830061385,-113.32188110900466" stroke="#0d6d4d" stroke-width="0.1" fill="none" />
<path d="M-222.17694384251755,-103.25892515806466 L234.87362399398185,-69.70925872460295" stroke="#0d6d4d" stroke-width="0.1" fill="none" />
<path d="M-221.22187264114922,-105.28952020568407 L243.86788267255358,-23.52564134738206" stroke="#0d6d4d" stroke-width="0.1" fill="none" />
<path d="M-220.24824321060572,-107.31128255054021 L243.86788267255358,23.52564134738203" stroke="#0d6d4d" stroke-width="0.1" fill="none" />
<path d="M-219.2561372283353,-109.3240425876641 L234.87362399398188,69.70925872460292" stroke="#0d6d4d" stroke-width="0.1" fill="none" />
<path d="M-218.24563792177835,-111.32763146728676 L217.21683006138502,113.3218811090046" stroke="#0d6d4d" stroke-width="0.1" fill="none" />
<path d="M-217.21683006138505,-113.32188110900456 L191.54871320466734,152.75500145538967" stroke="#0d6d4d" stroke-width="0.1" fill="none" />
<path d="M-216.16979995350374,-115.30662421588005 L158.81595685040816,186.55425980043793" stroke="#0d6d4d" stroke-width="0.1" fill="none" />
<path d="M-215.10463543314145,-117.28169428847497 L120.22580024096484,213.47308251023034" stroke="#0d6d4d" stroke-width="0.1" fill="none" />
<path d="M-214.02142585659467,-119.24692563881949 L77.2015134157871,232.5186580176138" stroke="#0d6d4d" stroke-width="0.1" fill="none" />
<path d="M-212.920262093954,-121.20215340431017 L31.329904612703984,242.9885533866953" stroke="#0d6d4d" stroke-width="0.1" fill="none" />
<path d="M-211.80123652148032,-123.14721356154172 L-15.697203895274571,244.4966212238324" stroke="#0d6d4d" stroke-width="0.1" fill="none" />
<path d="M-210.66444301385607,-125.08194294006549 L-62.14537305782925,236.98724144456222" stroke="#0d6d4d" stroke-width="0.1" fill="none" />
<path d="M-209.5099769363099,-127.0061792360785 L-106.30151608380162,220.73737263609274" stroke="#0d6d4d" stroke-width="0.1" fill="none" />
<path d="M-208.33793513661615,-128.91976102603948 L-146.53707997034792,196.34633735764936" stroke="#0d6d4d" stroke-width="0.1" fill="none" />
<path d="M-207.1484159369709,-130.82252778020958 L-181.36810928345224,164.7137181140227" stroke="#0d6d4d" stroke-width="0.1" fill="none" />
<path d="M-205.9415191257434,-132.71431987611984 L-209.50997693630984,127.00617923607858" stroke="#0d6d4d" stroke-width="0.1" fill="none" />
<path d="M-204.71734594910512,-134.59497861196166 L-229.92476340219125,84.6144383332205" stroke="#0d6d4d" stroke-width="0.1" fill="none" />
<path d="M-203.47599910253564,-136.46434621990068 L-241.85953693654025,39.101974283178016" stroke="#0d6d4d" stroke-width="0.1" fill="none" />
<path d="M-202.21758272220848,-138.3222658793109 L-244.87412296916852,-7.852636505055442" stroke="#0d6d4d" stroke-width="0.1" fill="none" />
<path d="M-200.9422023762542,-140.16858172993156 L-238.85733848454677,-54.51762881929698" stroke="#0d6d4d" stroke-width="0.1" fill="none" />
<path d="M-199.64996505590526,-142.00313888494094 L-224.03109263887407,-99.17191906498648" stroke="#0d6d4d" stroke-width="0.1" fill="none" />
<path d="M-198.34097916651953,-143.8257834439509 L-200.9422023762542,-140.16858172993156" stroke="#0d6d4d" stroke-width="0.1" fill="none" />
<path d="M-197.01535451848738,-145.63636250591657 L-170.4422248978543,-175.99559077394315" stroke="#0d6d4d" stroke-width="0.1" fill="none" />
<path d="M-195.6732023180185,-147.434724181964 L-133.65605079658434,-205.33158569850102" stroke="#0d6d4d" stroke-width="0.1" fill="none" />
<path d="M-194.31463515781397,-149.22071760813122 L-91.94041619544677,-227.0946055497753" stroke="#0d6d4d" stroke-width="0.1" fill="none" />
<path d="M-192.9397670076199,-150.9941929580252 L-46.8338640318363,-240.481993462811" stroke="#0d6d4d" stroke-width="0.1" fill="none" />
<path d="M-191.54871320466734,-152.75500145538967 L0.0,-245.0" stroke="#0d6d4d" stroke-width="0.1" fill="none" />
<path d="M-190.14159044399628,-154.50299538658655 L46.83386403183622,-240.481993462811" stroke="#0d6d4d" stroke-width="0.1" fill="none" />
<path d="M-188.71851676866632,-156.23802811298728 L91.94041619544666,-227.09460554977534" stroke="#0d6d4d" stroke-width="0.1" fill="none" />
<path d="M-187.2796115598536,-157.95995408327502 L133.65605079658442,-205.33158569850096" stroke="#0d6d4d" stroke-width="0.1" fill="none" />
<path d="M-185.82499552683672,-159.66862884565367 L170.44222489785417,-175.99559077394326" stroke="#0d6d4d" stroke-width="0.1" fill="none" />
<path d="M-184.35479069687008,-161.36390905996677 L200.9422023762542,-140.16858172993156" stroke="#0d6d4d" stroke-width="0.1" fill="none" />
<path d="M-182.86912040494664,-163.04565250972234 L224.03109263887407,-99.17191906498648" stroke="#0d6d4d" stroke-width="0.1" fill="none" />
<path d="M-181.3681092834524,-164.71371811402253 L238.85733848454677,-54.51762881929704" stroke="#0d6d4d" stroke-width="0.1" fill="none" />
<path d="M-179.85188325170984,-166.36796593939994 L244.87412296916852,-7.852636505055502" stroke="#0d6d4d" stroke-width="0.1" fill="none" />
<path d="M-178.3205695054158,-168.00825721155545 L241.85953693654028,39.1019742831779" stroke="#0d6d4d" stroke-width="0.1" fill="none" />
<path d="M-176.77429650596986,-169.6344543270012 L229.92476340219127,84.61443833322039" stroke="#0d6d4d" stroke-width="0.1" fill="none" />
<path d="M-175.21319396969878,-171.24642086460295 L209.5099769363098,127.00617923607861" stroke="#0d6d4d" stroke-width="0.1" fill="none" />
<path d="M-173.63739285697426,-172.84402159702483 L181.3681092834523,164.7137181140226" stroke="#0d6d4d" stroke-width="0.1" fill="none" />
<path d="M-172.04702536122625,-174.4271225020741 L146.53707997034786,196.34633735764942" stroke="#0d6d4d" stroke-width="0.1" fill="none" />
<path d="M-170.4422248978543,-175.99559077394315 L106.30151608380177,220.73737263609266" stroke="#0d6d4d" stroke-width="0.1" fill="none" />
<path d="M-168.82312609303412,-177.54929483435157 L62.1453730578293,236.98724144456222" stroke="#0d6d4d" stroke-width="0.1" fill="none" />
<path d="M-167.18986477242512,-179.08810434358332 L15.697203895274633,244.4966212238324" stroke="#0d6d4d" stroke-width="0.1" fill="none" />
<path d="M-165.5425779497752,-180.61189021142158 L-31.329904612703928,242.98855338669532" stroke="#0d6d4d" stroke-width="0.1" fill="none" />
<path d="M-163.88140381542706,-182.12052460797747 L-77.20151341578706,232.5186580176138" stroke="#0d6d4d" stroke-width="0.1" fill="none" />
<path d="M-162.20648172472505,-183.61388097441446 L-120.2258002409647,213.47308251023043" stroke="#0d6d4d" stroke-width="0.1" fill="none" />
<path d="M-160.5179521863254,-185.0918340335644 L-158.81595685040818,186.5542598004379" stroke="#0d6d4d" stroke-width="0.1" fill="none" />
<path d="M-158.81595685040816,-186.55425980043793 L-191.54871320466728,152.75500145538976" stroke="#0d6d4d" stroke-width="0.1" fill="none" />
<path d="M-157.10063849679503,-188.00103559262465 L-217.21683006138502,113.32188110900465" stroke="#0d6d4d" stroke-width="0.1" fill="none" />
<path d="M-155.37214102297122,-189.4320400405854 L-234.87362399398188,69.70925872460292" stroke="#0d6d4d" stroke-width="0.1" fill="none" />
<path d="M-153.63060943201347,-190.8471530978341 L-243.86788267255358,23.525641347381985" stroke="#0d6d4d" stroke-width="0.1" fill="none" />
<path d="M-151.87618982042693,-192.24625605100778 L-243.86788267255358,-23.525641347381896" stroke="#0d6d4d" stroke-width="0.1" fill="none" />
<path d="M-150.10902936588786,-193.62923152982614 L-234.87362399398182,-69.70925872460306" stroke="#0d6d4d" stroke-width="0.1" fill="none" />
<path d="M-148.32927631489818,-194.99596351693688 L-217.21683006138505,-113.32188110900456" stroke="#0d6d4d" stroke-width="0.1" fill="none" />
<path d="M-146.53707997034797,-196.3463373576493 L-191.54871320466734,-152.75500145538967" stroke="#0d6d4d" stroke-width="0.1" fill="none" />
<path d="M-144.73259067899164,-197.68023976955172 L-158.81595685040816,-186.55425980043793" stroke="#0d6d4d" stroke-width="0.1" fill="none" />
<path d="M-142.91595981883418,-198.99755885201552 L-120.22580024096477,-213.4730825102304" stroke="#0d6d4d" stroke-width="0.1" fill="none" />
<path d="M-141.08733978643323,-200.2981840955817 L-77.20151341578703,-232.51865801761383" stroke="#0d6d4d" stroke-width="0.1" fill="none" />
<path d="M-139.24688398411394,-201.58200639123203 L-31.329904612703906,-242.98855338669532" stroke="#0d6d4d" stroke-width="0.1" fill="none" />
<path d="M-137.39474680710043,-202.84891803954184 L15.697203895274663,-244.4966212238324" stroke="#0d6d4d" stroke-width="0.1" fill="none" />
<path d="M-135.53108363056288,-204.0988127597154 L62.1453730578293,-236.98724144456222" stroke="#0d6d4d" stroke-width="0.1" fill="none" />
<path d="M-133.65605079658434,-205.33158569850102 L106.30151608380173,-220.7373726360927" stroke="#0d6d4d" stroke-width="0.1" fill="none" />
<path d="M-131.7698056010446,-206.54713343898752 L146.53707997034792,-196.34633735764936" stroke="#0d6d4d" stroke-width="0.1" fill="none" />
<path d="M-129.87250628042415,-207.74535400928028 L181.3681092834523,-164.7137181140226" stroke="#0d6d4d" stroke-width="0.1" fill="none" />
<path d="M-127.96431199853107,-208.92614689105477 L209.50997693630978,-127.00617923607867" stroke="#0d6d4d" stroke-width="0.1" fill="none" />
<path d="M-126.04538283314743,-210.08941302798982 L229.9247634021913,-84.61443833322036" stroke="#0d6d4d" stroke-width="0.1" fill="none" />
<path d="M-124.11587976260186,-211.23505483407664 L241.85953693654025,-39.101974283177924" stroke="#0d6d4d" stroke-width="0.1" fill="none" />
<path d="M-122.17596465226352,-212.36297620180608 L244.87412296916852,7.852636505055472" stroke="#0d6d4d" stroke-width="0.1" fill="none" />
<path d="M-120.22580024096477,-213.4730825102304 L238.85733848454677,54.51762881929696" stroke="#0d6d4d" stroke-width="0.1" fill="none" />
<path d="M-118.26555012734839,-214.5652806329012 L224.03109263887407,99.17191906498645" stroke="#0d6d4d" stroke-width="0.1" fill="none" />
<path d="M-116.29537875614277,-215.63947894568216 L200.94220237625424,140.1685817299315" stroke="#0d6d4d" stroke-width="0.1" fill="none" />
<path d="M-114.31545140436809,-216.69558733443458 L170.4422248978542,175.99559077394323" stroke="#0d6d4d" stroke-width="0.1" fill="none" />
<path d="M-112.32593416746971,-217.73351720257784 L133.65605079658442,205.33158569850096" stroke="#0d6d4d" stroke-width="0.1" fill="none" />
<path d="M-110.32699394538585,-218.75318147852113 L91.94041619544674,227.0946055497753" stroke="#0d6d4d" stroke-width="0.1" fill="none" />
<path d="M-108.31879842854558,-219.75449462296808 L46.83386403183627,240.481993462811" stroke="#0d6d4d" stroke-width="0.1" fill="none" />
<path d="M-106.30151608380179,-220.73737263609266 L-7.879800983415519e-14,245.0" stroke="#0d6d4d" stroke-width="0.1" fill="none" />
<path d="M-104.27531614029776,-221.70173306458602 L-46.83386403183622,240.481993462811" stroke="#0d6d4d" stroke-width="0.1" fill="none" />
<path d="M-102.2403685752719,-222.647495008573 L-91.94041619544669,227.09460554977534" stroke="#0d6d4d" stroke-width="0.1" fill="none" />
<path d="M-100.19684409979696,-223.57457912839953 L-133.65605079658437,205.331585698501" stroke="#0d6d4d" stroke-width="0.1" fill="none" />
<path d="M-98.14491414446034,-224.4829076512876 L-170.44222489785423,175.9955907739432" stroke="#0d6d4d" stroke-width="0.1" fill="none" />
<path d="M-96.08475084498245,-225.37240437786 L-200.94220237625413,140.16858172993165" stroke="#0d6d4d" stroke-width="0.1" fill="none" />
<path d="M-94.01652702777552,-226.24299468853295 L-224.03109263887404,99.17191906498654" stroke="#0d6d4d" stroke-width="0.1" fill="none" />
<path d="M-91.94041619544677,-227.0946055497753 L-238.85733848454677,54.51762881929707" stroke="#0d6d4d" stroke-width="0.1" fill="none" />
<path d="M-89.85659251224166,-227.92716552023577 L-244.87412296916852,7.852636505055531" stroke="#0d6d4d" stroke-width="0.1" fill="none" />
<path d="M-87.76523078943497,-228.7406047567358 L-241.85953693654028,-39.10197428317792" stroke="#0d6d4d" stroke-width="0.1" fill="none" />
<path d="M-85.66650647066429,-229.534855020129 L-229.92476340219136,-84.6144383332202" stroke="#0d6d4d" stroke-width="0.1" fill="none" />
<path d="M-83.56059561721374,-230.30984968102533 L-209.5099769363099,-127.0061792360785" stroke="#0d6d4d" stroke-width="0.1" fill="none" />
<path d="M-81.44767489324259,-231.0655237253811 L-181.3681092834524,-164.71371811402253" stroke="#0d6d4d" stroke-width="0.1" fill="none" />
<path d="M-79.32792155096654,-231.8018137599525 L-146.53707997034797,-196.3463373576493" stroke="#0d6d4d" stroke-width="0.1" fill="none" />
<path d="M-77.20151341578703,-232.51865801761383 L-106.30151608380179,-220.73737263609266" stroke="#0d6d4d" stroke-width="0.1" fill="none" />
<path d="M-75.06862887137412,-233.21599636253922 L-62.145373057829325,-236.98724144456222" stroke="#0d6d4d" stroke-width="0.1" fill="none" />
<path d="M-72.92944684470108,-233.89377029524732 L-15.697203895274663,-244.4966212238324" stroke="#0d6d4d" stroke-width="0.1" fill="none" />
<path d="M-70.78414679103544,-234.5519229575088 L31.32990461270397,-242.98855338669532" stroke="#0d6d4d" stroke-width="0.1" fill="none" />
<path d="M-68.63290867888402,-235.19039913711606 L77.20151341578706,-232.5186580176138" stroke="#0d6d4d" stroke-width="0.1" fill="none" />
<path d="M-66.47591297489495,-235.80914527251522 L120.22580024096477,-213.4730825102304" stroke="#0d6d4d" stroke-width="0.1" fill="none" />
<path d="M-64.31334062871862,-236.4081094572993 L158.81595685040816,-186.55425980043793" stroke="#0d6d4d" stroke-width="0.1" fill="none" />
<path d="M-62.145373057829325,-236.98724144456222 L191.54871320466728,-152.75500145538976" stroke="#0d6d4d" stroke-width="0.1" fill="none" />
<path d="M-59.972192132303725,-237.5464926511146 L217.216830061385,-113.32188110900466" stroke="#0d6d4d" stroke-width="0.1" fill="none" />
<path d="M-57.793980159565436,-238.0858161615592 L234.87362399398185,-69.70925872460295" stroke="#0d6d4d" stroke-width="0.1" fill="none" />
<path d="M-55.610919869090566,-238.60516673222645 L243.86788267255358,-23.52564134738206" stroke="#0d6d4d" stroke-width="0.1" fill="none" />
<path d="M-53.423194397080245,-239.10450079496994 L243.86788267255358,23.52564134738203" stroke="#0d6d4d" stroke-width="0.1" fill="none" />
<path d="M-51.23098727109485,-239.58377646082158 L234.87362399398188,69.70925872460292" stroke="#0d6d4d" stroke-width="0.1" fill="none" />
<path d="M-49.034482394659214,-240.04295352350556 L217.21683006138502,113.3218811090046" stroke="#0d6d4d" stroke-width="0.1" fill="none" />
<path d="M-46.8338640318363,-240.481993462811 L191.54871320466734,152.75500145538967" stroke="#0d6d4d" stroke-width="0.1" fill="none" />
<path d="M-44.629316791766605,-240.90085944782376 L158.81595685040816,186.55425980043793" stroke="#0d6d4d" stroke-width="0.1" fill="none" />
<path d="M-42.42102561318385,-241.2995163400159 L120.22580024096484,213.47308251023034" stroke="#0d6d4d" stroke-width="0.1" fill="none" />
<path d="M-40.209175748898694,-241.67793069619364 L77.2015134157871,232.5186580176138" stroke="#0d6d4d" stroke-width="0.1" fill="none" />
<path d="M-37.99395275025939,-242.03607077130272 L31.329904612703984,242.9885533866953" stroke="#0d6d4d" stroke-width="0.1" fill="none" />
<path d="M-35.77554245158529,-242.37390652109156 L-15.697203895274571,244.4966212238324" stroke="#0d6d4d" stroke-width="0.1" fill="none" />
<path d="M-33.55413095457686,-242.69140960463167 L-62.14537305782925,236.98724144456222" stroke="#0d6d4d" stroke-width="0.1" fill="none" />
<path d="M-31.329904612703906,-242.98855338669532 L-106.30151608380162,220.73737263609274" stroke="#0d6d4d" stroke-width="0.1" fill="none" />
<path d="M-29.10305001557389,-243.26531293998946 L-146.53707997034792,196.34633735764936" stroke="#0d6d4d" stroke-width="0.1" fill="none" />
<path d="M-26.873753973276443,-243.5216650472475 L-181.36810928345224,164.7137181140227" stroke="#0d6d4d" stroke-width="0.1" fill="none" />
<path d="M-24.642203500713237,-243.75758820317662 L-209.50997693630984,127.00617923607858" stroke="#0d6d4d" stroke-width="0.1" fill="none" />
<path d="M-22.408585801910622,-243.9730626162618 L-229.92476340219125,84.6144383332205" stroke="#0d6d4d" stroke-width="0.1" fill="none" />
<path d="M-20.17308825431259,-244.16807021042638 L-241.85953693654025,39.101974283178016" stroke="#0d6d4d" stroke-width="0.1" fill="none" />
<path d="M-17.93589839306322,-244.3425946265483 L-244.87412296916852,-7.852636505055442" stroke="#0d6d4d" stroke-width="0.1" fill="none" />
<path d="M-15.697203895274663,-244.4966212238324 L-238.85733848454677,-54.51762881929698" stroke="#0d6d4d" stroke-width="0.1" fill="none" />
<path d="M-13.457192564282533,-244.63013708103875 L-224.03109263887407,-99.17191906498648" stroke="#0d6d4d" stroke-width="0.1" fill="none" />
<path d="M-11.21605231389048,-244.74313099756665 L-200.9422023762542,-140.16858172993156" stroke="#0d6d4d" stroke-width="0.1" fill="none" />
<path d="M-8.973971152607701,-244.83559349439403 L-170.4422248978543,-175.99559077394315" stroke="#0d6d4d" stroke-width="0.1" fill="none" />
<path d="M-6.731137167875008,-244.9075168148729 L-133.65605079658434,-205.33158569850102" stroke="#0d6d4d" stroke-width="0.1" fill="none" />
<path d="M-4.487738510288839,-244.95889492537984 L-91.94041619544677,-227.0946055497753" stroke="#0d6d4d" stroke-width="0.1" fill="none" />
<path d="M-2.2439633778145485,-244.98972351582225 L-46.8338640318363,-240.481993462811" stroke="#0d6d4d" stroke-width="0.1" fill="none" />
</svg>