<?xml version="1.0" encoding="UTF-8"?>
<svg xmlns="http://www.w3.org/2000/svg" xmlns:xlink="http://www.w3.org/1999/xlink"
     width="500.0" height="500" viewBox="-250.0 -250.0 500 500">
<defs>
</defs>
<circle cx="0" cy="0" r="245.0" fill="white" stroke-width="2" stroke="black" />
<path d="M0.0,-245.0 L0.0,-245.0" stroke="#0d6d4d" stroke-width="0.1" fill="none" />
<path d="M2.2907112664406224,-244.98929087185383 L47.797128893951424,-240.29239369879144" stroke="#0d6d4d" stroke-width="0.1" fill="none" />
<path d="M4.581222275571055,-244.95716442362288 L93.757440929447,-226.35048546526525" stroke="#0d6d4d" stroke-width="0.1" fill="none" />
<path d="M6.871332787587895,-244.90362346384796 L136.11470708980252,-203.71005501412358" stroke="#0d6d4d" stroke-width="0.1" fill="none" />
<path d="M9.160842597699778,-244.82867267315763 L173.24116139070412,-173.24116139070415" stroke="#0d6d4d" stroke-width="0.1" fill="none" />
<path d="M11.44955155362957,-244.73231860385906 L203.71005501412355,-136.11470708980255" stroke="#0d6d4d" stroke-width="0.1" fill="none" />
<path d="M13.737259573111988,-244.61456967936508 L226.35048546526525,-93.75744092944701" stroke="#0d6d4d" stroke-width="0.1" fill="none" />
<path d="M16.02376666138505,-244.47543619345785 L240.29239369879144,-47.79712889395143" stroke="#0d6d4d" stroke-width="0.1" fill="none" />
<path d="M18.308872928673942,-244.31493030938913 L245.0,-1.5001923289555078e-14" stroke="#0d6d4d" stroke-width="0.1" fill="none" />
<path d="M20.592378607665648,-244.1330660588167 L240.29239369879144,47.79712889395141" stroke="#0d6d4d" stroke-width="0.1" fill="none" />
<path d="M22.874084070972913,-243.9298593405778 L226.35048546526525,93.75744092944699" stroke="#0d6d4d" stroke-width="0.1" fill="none" />
<path d="M25.153789848585955,-243.70532791929924 L203.71005501412355,136.11470708980255" stroke="#0d6d4d" stroke-width="0.1" fill="none" />
<path d="M27.431296645310425,-243.45949142384444 L173.24116139070415,173.24116139070412" stroke="#0d6d4d" stroke-width="0.1" fill="none" />
<path d="M29.70640535819008,-243.1923713455973 L136.11470708980252,203.7100550141236" stroke="#0d6d4d" stroke-width="0.1" fill="none" />
<path d="M31.978917093912635,-242.90399103658353 L93.75744092944701,226.35048546526525" stroke="#0d6d4d" stroke-width="0.1" fill="none" />
<path d="M34.24863318619737,-242.59437570742918 L47.7971288939514,240.29239369879144" stroke="#0d6d4d" stroke-width="0.1" fill="none" />
<path d="M36.515355213162735,-242.2635524251565 L3.0003846579110155e-14,245.0" stroke="#0d6d4d" stroke-width="0.1" fill="none" />
<path d="M38.77888501467276,-241.91155011081796 L-47.797128893951346,240.29239369879147" stroke="#0d6d4d" stroke-width="0.1" fill="none" />
<path d="M41.039024709660424,-241.5383995369678 L-93.75744092944697,226.35048546526525" stroke="#0d6d4d" stroke-width="0.1" fill="none" />
<path d="M43.29557671342678,-241.14413332497182 L-136.11470708980247,203.71005501412364" stroke="#0d6d4d" stroke-width="0.1" fill="none" />
<path d="M45.54834375491407,-240.72878594215564 L-173.24116139070412,173.24116139070418" stroke="#0d6d4d" stroke-width="0.1" fill="none" />
<path d="M47.797128893951424,-240.29239369879144 L-203.71005501412358,136.11470708980252" stroke="#0d6d4d" stroke-width="0.1" fill="none" />
<path d="M50.04173553847168,-239.83499474492388 L-226.35048546526528,93.75744092944693" stroke="#0d6d4d" stroke-width="0.1" fill="none" />
<path d="M52.28196746169774,-239.35662906703456 L-240.29239369879141,47.79712889395152" stroke="#0d6d4d" stroke-width="0.1" fill="none" />
<path d="M54.51762881929702,-238.85733848454677 L-245.0,4.500576986866523e-14" stroke="#0d6d4d" stroke-width="0.1" fill="none" />
<path d="M56.74852416650243,-238.33716664616932 L-240.29239369879144,-47.79712889395143" stroke="#0d6d4d" stroke-width="0.1" fill="none" />
<path d="M58.97445847519839,-237.79615902608077 L-226.35048546526522,-93.75744092944706" stroke="#0d6d4d" stroke-width="0.1" fill="none" />
<path d="M61.19523715097058,-237.23436291995407 L-203.71005501412367,-136.11470708980247" stroke="#0d6d4d" stroke-width="0.1" fill="none" />
<path d="M63.410666050117584,-236.65182744082173 L-173.24116139070418,-173.24116139070412" stroke="#0d6d4d" stroke-width="0.1" fill="none" />
<path d="M65.62055149662325,-236.04860351478257 L-136.11470708980252,-203.71005501412358" stroke="#0d6d4d" stroke-width="0.1" fill="none" />
<path d="M67.8247002990881,-235.42474387654937 L-93.75744092944694,-226.35048546526528" stroke="#0d6d4d" stroke-width="0.1" fill="none" />
<path d="M70.02291976761843,-234.78030306483905 L-47.79712889395154,-240.29239369879141" stroke="#0d6d4d" stroke-width="0.1" fill="none" />
<path d="M72.21501773067153,-234.11533741760448 L0.0,-245.0" stroke="#0d6d4d" stroke-width="0.1" fill="none" />
<path d="M74.4008025518556,-233.4299050671096 L47.797128893951424,-240.29239369879144" stroke="#0d6d4d" stroke-width="0.1" fill="none" />
<path d="M76.58008314668291,-232.72406593484723 L93.757440929447,-226.35048546526525" stroke="#0d6d4d" stroke-width="0.1" fill="none" />
<path d="M78.75266899927458,-231.9978817263009 L136.11470708980252,-203.71005501412358" stroke="#0d6d4d" stroke-width="0.1" fill="none" />
<path d="M80.91837017901592,-231.25141592555005 L173.24116139070412,-173.24116139070415" stroke="#0d6d4d" stroke-width="0.1" fill="none" />
<path d="M83.07699735716034,-230.4847337897206 L203.71005501412355,-136.11470708980255" stroke="#0d6d4d" stroke-width="0.1" fill="none" />
<path d="M85.22836182338067,-229.6979023432798 L226.35048546526525,-93.75744092944701" stroke="#0d6d4d" stroke-width="0.1" fill="none" />
<path d="M87.37227550226669,-228.89099037217696 L240.29239369879144,-47.79712889395143" stroke="#0d6d4d" stroke-width="0.1" fill="none" />
<path d="M89.50855096976677,-228.06406841783004 L245.0,-1.5001923289555078e-14" stroke="#0d6d4d" stroke-width="0.1" fill="none" />
<path d="M91.63700146957287,-227.21720877095885 L240.29239369879144,47.79712889395141" stroke="#0d6d4d" stroke-width="0.1" fill="none" />
<path d="M93.757440929447,-226.35048546526525 L226.35048546526525,93.75744092944699" stroke="#0d6d4d" stroke-width="0.1" fill="none" />
<path d="M95.86968397748787,-225.4639742709611 L203.71005501412355,136.11470708980255" stroke="#0d6d4d" stroke-width="0.1" fill="none" />
<path d="M97.97354595833653,-224.55775268814418 L173.24116139070415,173.24116139070412" stroke="#0d6d4d" stroke-width="0.1" fill="none" />
<path d="M100.06884294931905,-223.63189994002312 L136.11470708980252,203.7100550141236" stroke="#0d6d4d" stroke-width="0.1" fill="none" />
<path d="M102.15539177652536,-222.68649696599167 L93.75744092944701,226.35048546526525" stroke="#0d6d4d" stroke-width="0.1" fill="none" />
<path d="M104.23301003082267,-221.7216264145526 L47.7971288939514,240.29239369879144" stroke="#0d6d4d" stroke-width="0.1" fill="none" />
<path d="M106.30151608380174,-220.7373726360927 L3.0003846579110155e-14,245.0" stroke="#0d6d4d" stroke-width="0.1" fill="none" />
<path d="M108.3607291036553,-219.73382167550864 L-47.797128893951346,240.29239369879147" stroke="#0d6d4d" stroke-width="0.1" fill="none" />
<path d="M110.41046907098657,-218.71106126468482 L-93.75744092944697,226.35048546526525" stroke="#0d6d4d" stroke-width="0.1" fill="none" />
<path d="M112.45055679454673,-217.6691808148237 L-136.11470708980247,203.71005501412364" stroke="#0d6d4d" stroke-width="0.1" fill="none" />
<path d="M114.4808139269002,-216.6082714086294 L-173.24116139070412,173.24116139070418" stroke="#0d6d4d" stroke-width="0.1" fill="none" />
<path d="M116.50106298001593,-215.52842579234502 L-203.71005501412358,136.11470708980252" stroke="#0d6d4d" stroke-width="0.1" fill="none" />
<path d="M118.51112734078374,-214.42973836764466 L-226.35048546526528,93.75744092944693" stroke="#0d6d4d" stroke-width="0.1" fill="none" />
<path d="M120.5108312864541,-213.3123051833808 L-240.29239369879141,47.79712889395152" stroke="#0d6d4d" stroke-width="0.1" fill="none" />
<path d="M122.49999999999999,-212.1762239271875 L-245.0,4.500576986866523e-14" stroke="#0d6d4d" stroke-width="0.1" fill="none" />
<path d="M124.4784595853997,-211.0215939169402 L-240.29239369879144,-47.79712889395143" stroke="#0d6d4d" stroke-width="0.1" fill="none" />
<path d="M126.44603708283913,-209.8485160920736 L-226.35048546526522,-93.75744092944706" stroke="#0d6d4d" stroke-width="0.1" fill="none" />
<path d="M128.40256048383202,-208.65709300475712 L-203.71005501412367,-136.11470708980247" stroke="#0d6d4d" stroke-width="0.1" fill="none" />
<path d="M130.34785874625746,-207.4474288109296 L-173.24116139070418,-173.24116139070412" stroke="#0d6d4d" stroke-width="0.1" fill="none" />
<path d="M132.28176180931234,-206.21962926119414 L-136.11470708980252,-203.71005501412358" stroke="#0d6d4d" stroke-width="0.1" fill="none" />
<path d="M134.20410060837847,-204.97380169157285 L-93.75744092944694,-226.35048546526528" stroke="#0d6d4d" stroke-width="0.1" fill="none" />
<path d="M136.11470708980252,-203.71005501412358 L-47.79712889395154,-240.29239369879141" stroke="#0d6d4d" stroke-width="0.1" fill="none" />
<path d="M138.0134142255874,-202.42849970741875 L0.0,-245.0" stroke="#0d6d4d" stroke-width="0.1" fill="none" />
<path d="M139.90005602799403,-201.12924780688695 L47.797128893951424,-240.29239369879144" stroke="#0d6d4d" stroke-width="0.1" fill="none" />
<path d="M141.7744675640524,-199.81241289501875 L93.757440929447,-226.35048546526525" stroke="#0d6d4d" stroke-width="0.1" fill="none" />
<path d="M143.6364849699802,-198.47811009143717 L136.11470708980252,-203.71005501412358" stroke="#0d6d4d" stroke-width="0.1" fill="none" />
<path d="M145.4859454655079,-197.12645604283375 L173.24116139070412,-173.24116139070415" stroke="#0d6d4d" stroke-width="0.1" fill="none" />
<path d="M147.32268736810943,-195.757568912771 L203.71005501412355,-136.11470708980255" stroke="#0d6d4d" stroke-width="0.1" fill="none" />
<path d="M149.14655010713653,-194.37156837135262 L226.35048546526525,-93.75744092944701" stroke="#0d6d4d" stroke-width="0.1" fill="none" />
<path d="M150.9573742378563,-192.96857558476145 L240.29239369879144,-47.79712889395143" stroke="#0d6d4d" stroke-width="0.1" fill="none" />
<path d="M152.7550014553897,-191.5487132046673 L245.0,-1.5001923289555078e-14" stroke="#0d6d4d" stroke-width="0.1" fill="none" />
<path d="M154.53927460855124,-190.11210535750422 L240.29239369879144,47.79712889395141" stroke="#0d6d4d" stroke-width="0.1" fill="none" />
<path d="M156.31003771358712,-188.6588776336194 L226.35048546526525,93.75744092944699" stroke="#0d6d4d" stroke-width="0.1" fill="none" />
<path d="M158.06713596781145,-187.18915707629384 L203.71005501412355,136.11470708980255" stroke="#0d6d4d" stroke-width="0.1" fill="none" />
<path d="M159.81041576313967,-185.70307217063598 L173.24116139070415,173.24116139070412" stroke="#0d6d4d" stroke-width="0.1" fill="none" />
<path d="M161.53972469951685,-184.20075283234945 L136.11470708980252,203.7100550141236" stroke="#0d6d4d" stroke-width="0.1" fill="none" />
<path d="M163.25491159824097,-182.68233039637556 L93.75744092944701,226.35048546526525" stroke="#0d6d4d" stroke-width="0.1" fill="none" />
<path d="M164.95582651517896,-181.14793760541184 L47.7971288939514,240.29239369879144" stroke="#0d6d4d" stroke-width="0.1" fill="none" />
<path d="M166.64232075387525,-179.59770859830746 L3.0003846579110155e-14,245.0" stroke="#0d6d4d" stroke-width="0.1" fill="none" />
<path d="M168.31424687855088,-178.03177889833663 L-47.797128893951346,240.29239369879147" stroke="#0d6d4d" stroke-width="0.1" fill="none" />
<path d="M169.97145872699267,-176.450285401351 L-93.75744092944697,226.35048546526525" stroke="#0d6d4d" stroke-width="0.1" fill="none" />
<path d="M171.61381142333082,-174.85336636381197 L-136.11470708980247,203.71005501412364" stroke="#0d6d4d" stroke-width="0.1" fill="none" />
<path d="M173.24116139070412,-173.24116139070415 L-173.24116139070412,173.24116139070418" stroke="#0d6d4d" stroke-width="0.1" fill="none" />
<path d="M174.85336636381197,-171.61381142333082 L-203.71005501412358,136.11470708980252" stroke="#0d6d4d" stroke-width="0.1" fill="none" />
<path d="M176.45028540135095,-169.9714587269927 L-226.35048546526528,93.75744092944693" stroke="#0d6d4d" stroke-width="0.1" fill="none" />
<path d="M178.0317788983366,-168.3142468785509 L-240.29239369879141,47.79712889395152" stroke="#0d6d4d" stroke-width="0.1" fill="none" />
<path d="M179.59770859830743,-166.64232075387528 L-245.0,4.500576986866523e-14" stroke="#0d6d4d" stroke-width="0.1" fill="none" />
<path d="M181.14793760541184,-164.95582651517896 L-240.29239369879144,-47.79712889395143" stroke="#0d6d4d" stroke-width="0.1" fill="none" />
<path d="M182.68233039637553,-163.254911598241 L-226.35048546526522,-93.75744092944706" stroke="#0d6d4d" stroke-width="0.1" fill="none" />
<path d="M184.20075283234945,-161.53972469951688 L-203.71005501412367,-136.11470708980247" stroke="#0d6d4d" stroke-width="0.1" fill="none" />
<path d="M185.70307217063598,-159.8104157631397 L-173.24116139070418,-173.24116139070412" stroke="#0d6d4d" stroke-width="0.1" fill="none" />
<path d="M187.1891570762938,-158.0671359678115 L-136.11470708980252,-203.71005501412358" stroke="#0d6d4d" stroke-width="0.1" fill="none" />
<path d="M188.6588776336194,-156.31003771358712 L-93.75744092944694,-226.35048546526528" stroke="#0d6d4d" stroke-width="0.1" fill="none" />
<path d="M190.1121053575042,-154.53927460855127 L-47.79712889395154,-240.29239369879141" stroke="#0d6d4d" stroke-width="0.1" fill="none" />
<path d="M191.54871320466728,-152.75500145538973 L0.0,-245.0" stroke="#0d6d4d" stroke-width="0.1" fill="none" />
<path d="M192.96857558476145,-150.9573742378563 L47.797128893951424,-240.29239369879144" stroke="#0d6d4d" stroke-width="0.1" fill="none" />
<path d="M194.3715683713526,-149.1465501071366 L93.757440929447,-226.35048546526525" stroke="#0d6d4d" stroke-width="0.1" fill="none" />
<path d="M195.757568912771,-147.32268736810943 L136.11470708980252,-203.71005501412358" stroke="#0d6d4d" stroke-width="0.1" fill="none" />
<path d="M197.12645604283375,-145.4859454655079 L173.24116139070412,-173.24116139070415" stroke="#0d6d4d" stroke-width="0.1" fill="none" />
<path d="M198.47811009143715,-143.63648496998022 L203.71005501412355,-136.11470708980255" stroke="#0d6d4d" stroke-width="0.1" fill="none" />
<path d="M199.81241289501875,-141.77446756405243 L226.35048546526525,-93.75744092944701" stroke="#0d6d4d" stroke-width="0.1" fill="none" />
<path d="M201.12924780688692,-139.90005602799405 L240.29239369879144,-47.79712889395143" stroke="#0d6d4d" stroke-width="0.1" fill="none" />
<path d="M202.42849970741875,-138.0134142255874 L245.0,-1.5001923289555078e-14" stroke="#0d6d4d" stroke-width="0.1" fill="none" />
<path d="M203.71005501412355,-136.11470708980255 L240.29239369879144,47.79712889395141" stroke="#0d6d4d" stroke-width="0.1" fill="none" />
<path d="M204.97380169157285,-134.2041006083785 L226.35048546526525,93.75744092944699" stroke="#0d6d4d" stroke-width="0.1" fill="none" />
<path d="M206.21962926119414,-132.28176180931234 L203.71005501412355,136.11470708980255" stroke="#0d6d4d" stroke-width="0.1" fill="none" />
<path d="M207.4474288109296,-130.3478587462575 L173.24116139070415,173.24116139070412" stroke="#0d6d4d" stroke-width="0.1" fill="none" />
<path d="M208.6570930047571,-128.40256048383208 L136.11470708980252,203.7100550141236" stroke="#0d6d4d" stroke-width="0.1" fill="none" />
<path d="M209.8485160920736,-126.44603708283913 L93.75744092944701,226.35048546526525" stroke="#0d6d4d" stroke-width="0.1" fill="none" />
<path d="M211.02159391694016,-124.47845958539973 L47.7971288939514,240.29239369879144" stroke="#0d6d4d" stroke-width="0.1" fill="none" />
<path d="M212.17622392718746,-122.50000000000003 L3.0003846579110155e-14,245.0" stroke="#0d6d4d" stroke-width="0.1" fill="none" />
<path d="M213.3123051833808,-120.5108312864541 L-47.797128893951346,240.29239369879147" stroke="#0d6d4d" stroke-width="0.1" fill="none" />
<path d="M214.42973836764466,-118.51112734078376 L-93.75744092944697,226.35048546526525" stroke="#0d6d4d" stroke-width="0.1" fill="none" />
<path d="M215.52842579234502,-116.5010629800159 L-136.11470708980247,203.71005501412364" stroke="#0d6d4d" stroke-width="0.1" fill="none" />
<path d="M216.6082714086294,-114.48081392690018 L-173.24116139070412,173.24116139070418" stroke="#0d6d4d" stroke-width="0.1" fill="none" />
<path d="M217.6691808148237,-112.45055679454673 L-203.71005501412358,136.11470708980252" stroke="#0d6d4d" stroke-width="0.1" fill="none" />
<path d="M218.7110612646848,-110.4104690709866 L-226.35048546526528,93.75744092944693" stroke="#0d6d4d" stroke-width="0.1" fill="none" />
<path d="M219.73382167550864,-108.36072910365536 L-240.29239369879141,47.79712889395152" stroke="#0d6d4d" stroke-width="0.1" fill="none" />
<path d="M220.7373726360927,-106.30151608380176 L-245.0,4.500576986866523e-14" stroke="#0d6d4d" stroke-width="0.1" fill="none" />
<path d="M221.72162641455262,-104.23301003082264 L-240.29239369879144,-47.79712889395143" stroke="#0d6d4d" stroke-width="0.1" fill="none" />
<path d="M222.68649696599167,-102.15539177652536 L-226.35048546526522,-93.75744092944706" stroke="#0d6d4d" stroke-width="0.1" fill="none" />
<path d="M223.63189994002312,-100.06884294931906 L-203.71005501412367,-136.11470708980247" stroke="#0d6d4d" stroke-width="0.1" fill="none" />
<path d="M224.55775268814418,-97.97354595833656 L-173.24116139070418,-173.24116139070412" stroke="#0d6d4d" stroke-width="0.1" fill="none" />
<path d="M225.46397427096107,-95.86968397748792 L-136.11470708980252,-203.71005501412358" stroke="#0d6d4d" stroke-width="0.1" fill="none" />
<path d="M226.35048546526525,-93.75744092944701 L-93.75744092944694,-226.35048546526528" stroke="#0d6d4d" stroke-width="0.1" fill="none" />
<path d="M227.21720877095882,-91.63700146957291 L-47.79712889395154,-240.29239369879141" stroke="#0d6d4d" stroke-width="0.1" fill="none" />
<path d="M228.06406841783004,-89.50855096976677 L0.0,-245.0" stroke="#0d6d4d" stroke-width="0.1" fill="none" />
<path d="M228.89099037217696,-87.3722755022667 L47.797128893951424,-240.29239369879144" stroke="#0d6d4d" stroke-width="0.1" fill="none" />
<path d="M229.6979023432798,-85.22836182338071 L93.757440929447,-226.35048546526525" stroke="#0d6d4d" stroke-width="0.1" fill="none" />
<path d="M230.48473378972062,-83.07699735716032 L136.11470708980252,-203.71005501412358" stroke="#0d6d4d" stroke-width="0.1" fill="none" />
<path d="M231.25141592555005,-80.91837017901594 L173.24116139070412,-173.24116139070415" stroke="#0d6d4d" stroke-width="0.1" fill="none" />
<path d="M231.99788172630088,-78.75266899927462 L203.71005501412355,-136.11470708980255" stroke="#0d6d4d" stroke-width="0.1" fill="none" />
<path d="M232.72406593484726,-76.5800831466829 L226.35048546526525,-93.75744092944701" stroke="#0d6d4d" stroke-width="0.1" fill="none" />
<path d="M233.4299050671096,-74.40080255185562 L240.29239369879144,-47.79712889395143" stroke="#0d6d4d" stroke-width="0.1" fill="none" />
<path d="M234.11533741760448,-72.2150177306715 L245.0,-1.5001923289555078e-14" stroke="#0d6d4d" stroke-width="0.1" fill="none" />
<path d="M234.78030306483905,-70.02291976761843 L240.29239369879144,47.79712889395141" stroke="#0d6d4d" stroke-width="0.1" fill="none" />
<path d="M235.42474387654937,-67.82470029908811 L226.35048546526525,93.75744092944699" stroke="#0d6d4d" stroke-width="0.1" fill="none" />
<path d="M236.04860351478257,-65.62055149662328 L203.71005501412355,136.11470708980255" stroke="#0d6d4d" stroke-width="0.1" fill="none" />
<path d="M236.6518274408217,-63.410666050117634 L173.24116139070415,173.24116139070412" stroke="#0d6d4d" stroke-width="0.1" fill="none" />
<path d="M237.23436291995407,-61.19523715097059 L136.11470708980252,203.7100550141236" stroke="#0d6d4d" stroke-width="0.1" fill="none" />
<path d="M237.79615902608077,-58.97445847519836 L93.75744092944701,226.35048546526525" stroke="#0d6d4d" stroke-width="0.1" fill="none" />
<path d="M238.33716664616932,-56.74852416650242 L47.7971288939514,240.29239369879144" stroke="#0d6d4d" stroke-width="0.1" fill="none" />
<path d="M238.85733848454677,-54.51762881929704 L3.0003846579110155e-14,245.0" stroke="#0d6d4d" stroke-width="0.1" fill="none" />
<path d="M239.35662906703456,-52.281967461697775 L-47.797128893951346,240.29239369879147" stroke="#0d6d4d" stroke-width="0.1" fill="none" />
<path d="M239.83499474492385,-50.04173553847173 L-93.75744092944697,226.35048546526525" stroke="#0d6d4d" stroke-width="0.1" fill="none" />
<path d="M240.29239369879144,-47.79712889395143 L-136.11470708980247,203.71005501412364" stroke="#0d6d4d" stroke-width="0.1" fill="none" />
<path d="M240.72878594215564,-45.54834375491405 L-173.24116139070412,173.24116139070418" stroke="#0d6d4d" stroke-width="0.1" fill="none" />
<path d="M241.14413332497182,-43.29557671342678 L-203.71005501412358,136.11470708980252" stroke="#0d6d4d" stroke-width="0.1" fill="none" />
<path d="M241.5383995369678,-41.03902470966043 L-226.35048546526528,93.75744092944693" stroke="#0d6d4d" stroke-width="0.1" fill="none" />
<path d="M241.91155011081796,-38.77888501467279 L-240.29239369879141,47.79712889395152" stroke="#0d6d4d" stroke-width="0.1" fill="none" />
<path d="M242.2635524251565,-36.515355213162785 L-245.0,4.500576986866523e-14" stroke="#0d6d4d" stroke-width="0.1" fill="none" />
<path d="M242.59437570742915,-34.24863318619738 L-240.29239369879144,-47.79712889395143" stroke="#0d6d4d" stroke-width="0.1" fill="none" />
<path d="M242.90399103658353,-31.97891709391267 L-226.35048546526522,-93.75744092944706" stroke="#0d6d4d" stroke-width="0.1" fill="none" />
<path d="M243.1923713455973,-29.70640535819007 L-203.71005501412367,-136.11470708980247" stroke="#0d6d4d" stroke-width="0.1" fill="none" />
<path d="M243.45949142384444,-27.43129664531044 L-173.24116139070418,-173.24116139070412" stroke="#0d6d4d" stroke-width="0.1" fill="none" />
<path d="M243.70532791929924,-25.15378984858599 L-136.11470708980252,-203.71005501412358" stroke="#0d6d4d" stroke-width="0.1" fill="none" />
<path d="M243.9298593405778,-22.87408407097291 L-93.75744092944694,-226.35048546526528" stroke="#0d6d4d" stroke-width="0.1" fill="none" />
<path d="M244.1330660588167,-20.592378607665662 L-47.79712889395154,-240.29239369879141" stroke="#0d6d4d" stroke-width="0.1" fill="none" />
<path d="M244.31493030938913,-18.308872928673974 L0.0,-245.0" stroke="#0d6d4d" stroke-width="0.1" fill="none" />
<path d="M244.47543619345785,-16.023766661385046 L47.797128893951424,-240.29239369879144" stroke="#0d6d4d" stroke-width="0.1" fill="none" />
<path d="M244.61456967936508,-13.737259573112002 L93.757440929447,-226.35048546526525" stroke="#0d6d4d" stroke-width="0.1" fill="none" />
<path d="M244.73231860385906,-11.449551553629606 L136.11470708980252,-203.71005501412358" stroke="#0d6d4d" stroke-width="0.1" fill="none" />
<path d="M244.82867267315763,-9.16084259769983 L173.24116139070412,-173.24116139070415" stroke="#0d6d4d" stroke-width="0.1" fill="none" />
<path d="M244.90362346384796,-6.871332787587964 L203.71005501412355,-136.11470708980255" stroke="#0d6d4d" stroke-width="0.1" fill="none" />
<path d="M244.95716442362288,-4.581222275571034 L226.35048546526525,-93.75744092944701" stroke="#0d6d4d" stroke-width="0.1" fill="none" />
<path d="M244.98929087185383,-2.290711266440619 L240.29239369879144,-47.79712889395143" stroke="#0d6d4d" stroke-width="0.1" fill="none" />
<path d="M245.0,-1.5001923289555078e-14 L245.0,-1.5001923289555078e-14" stroke="#0d6d4d" stroke-width="0.1" fill="none" />
<path d="M244.98929087185383,2.2907112664406437 L240.29239369879144,47.79712889395141" stroke="#0d6d4d" stroke-width="0.1" fill="none" />
<path d="M244.95716442362288,4.581222275571058 L226.35048546526525,93.75744092944699" stroke="#0d6d4d" stroke-width="0.1" fill="none" />
<path d="M244.90362346384796,6.871332787587879 L203.71005501412355,136.11470708980255" stroke="#0d6d4d" stroke-width="0.1" fill="none" />
<path d="M244.82867267315766,9.160842597699745 L173.24116139070415,173.24116139070412" stroke="#0d6d4d" stroke-width="0.1" fill="none" />
<path d="M244.73231860385906,11.44955155362952 L136.11470708980252,203.7100550141236" stroke="#0d6d4d" stroke-width="0.1" fill="none" />
<path d="M244.61456967936508,13.737259573111974 L93.75744092944701,226.35048546526525" stroke="#0d6d4d" stroke-width="0.1" fill="none" />
<path d="M244.47543619345785,16.023766661385018 L47.7971288939514,240.29239369879144" stroke="#0d6d4d" stroke-width="0.1" fill="none" />
<path d="M244.31493030938913,18.308872928673892 L3.0003846579110155e-14,245.0" stroke="#0d6d4d" stroke-width="0.1" fill="none" />
<path d="M244.13306605881667,20.592378607665687 L-47.797128893951346,240.29239369879147" stroke="#0d6d4d" stroke-width="0.1" fill="none" />
<path d="M243.9298593405778,22.874084070972938 L-93.75744092944697,226.35048546526525" stroke="#0d6d4d" stroke-width="0.1" fill="none" />
<path d="M243.70532791929924,25.153789848585962 L-136.11470708980247,203.71005501412364" stroke="#0d6d4d" stroke-width="0.1" fill="none" />
<path d="M243.45949142384444,27.43129664531041 L-173.24116139070412,173.24116139070418" stroke="#0d6d4d" stroke-width="0.1" fill="none" />
<path d="M243.1923713455973,29.706405358190043 L-203.71005501412358,136.11470708980252" stroke="#0d6d4d" stroke-width="0.1" fill="none" />
<path d="M242.90399103658353,31.978917093912642 L-226.35048546526528,93.75744092944693" stroke="#0d6d4d" stroke-width="0.1" fill="none" />
<path d="M242.59437570742918,34.24863318619735 L-240.29239369879141,47.79712889395152" stroke="#0d6d4d" stroke-width="0.1" fill="none" />
<path d="M242.2635524251565,36.51535521316271 L-245.0,4.500576986866523e-14" stroke="#0d6d4d" stroke-width="0.1" fill="none" />
<path d="M241.91155011081796,38.7788850146727 L-240.29239369879144,-47.79712889395143" stroke="#0d6d4d" stroke-width="0.1" fill="none" />
<path d="M241.5383995369678,41.03902470966035 L-226.35048546526522,-93.75744092944706" stroke="#0d6d4d" stroke-width="0.1" fill="none" />
<path d="M241.1441333249718,43.295576713426804 L-203.71005501412367,-136.11470708980247" stroke="#0d6d4d" stroke-width="0.1" fill="none" />
<path d="M240.72878594215564,45.54834375491408 L-173.24116139070418,-173.24116139070412" stroke="#0d6d4d" stroke-width="0.1" fill="none" />
<path d="M240.29239369879144,47.79712889395141 L-136.11470708980252,-203.71005501412358" stroke="#0d6d4d" stroke-width="0.1" fill="none" />
<path d="M239.83499474492388,50.041735538471706 L-93.75744092944694,-226.35048546526528" stroke="#0d6d4d" stroke-width="0.1" fill="none" />
<path d="M239.35662906703456,52.28196746169775 L-47.79712889395154,-240.29239369879141" stroke="#0d6d4d" stroke-width="0.1" fill="none" />
<path d="M238.85733848454677,54.517628819297016 L0.0,-245.0" stroke="#0d6d4d" stroke-width="0.1" fill="none" />
<path d="M238.33716664616932,56.74852416650239 L47.797128893951424,-240.29239369879144" stroke="#0d6d4d" stroke-width="0.1" fill="none" />
<path d="M237.79615902608077,58.97445847519833 L93.757440929447,-226.35048546526525" stroke="#0d6d4d" stroke-width="0.1" fill="none" />
<path d="M237.23436291995407,61.19523715097056 L136.11470708980252,-203.71005501412358" stroke="#0d6d4d" stroke-width="0.1" fill="none" />
<path d="M236.65182744082173,63.410666050117555 L173.24116139070412,-173.24116139070415" stroke="#0d6d4d" stroke-width="0.1" fill="none" />
<path d="M236.04860351478257,65.6205514966232 L203.71005501412355,-136.11470708980255" stroke="#0d6d4d" stroke-width="0.1" fill="none" />
<path d="M235.42474387654937,67.82470029908814 L226.35048546526525,-93.75744092944701" stroke="#0d6d4d" stroke-width="0.1" fill="none" />
<path d="M234.78030306483905,70.02291976761845 L240.29239369879144,-47.79712889395143" stroke="#0d6d4d" stroke-width="0.1" fill="none" />
<path d="M234.11533741760448,72.21501773067153 L245.0,-1.5001923289555078e-14" stroke="#0d6d4d" stroke-width="0.1" fill="none" />
<path d="M233.4299050671096,74.40080255185559 L240.29239369879144,47.79712889395141" stroke="#0d6d4d" stroke-width="0.1" fill="none" />
<path d="M232.72406593484726,76.58008314668287 L226.35048546526525,93.75744092944699" stroke="#0d6d4d" stroke-width="0.1" fill="none" />
<path d="M231.9978817263009,78.75266899927459 L203.71005501412355,136.11470708980255" stroke="#0d6d4d" stroke-width="0.1" fill="none" />
<path d="M231.25141592555005,80.91837017901592 L173.24116139070415,173.24116139070412" stroke="#0d6d4d" stroke-width="0.1" fill="none" />
<path d="M230.48473378972062,83.0769973571603 L136.11470708980252,203.7100550141236" stroke="#0d6d4d" stroke-width="0.1" fill="none" />
<path d="M229.69790234327982,85.22836182338062 L93.75744092944701,226.35048546526525" stroke="#0d6d4d" stroke-width="0.1" fill="none" />
<path d="M228.890990372177,87.37227550226663 L47.7971288939514,240.29239369879144" stroke="#0d6d4d" stroke-width="0.1" fill="none" />
<path d="M228.06406841783004,89.5085509697668 L3.0003846579110155e-14,245.0" stroke="#0d6d4d" stroke-width="0.1" fill="none" />
<path d="M227.21720877095885,91.63700146957288 L-47.797128893951346,240.29239369879147" stroke="#0d6d4d" stroke-width="0.1" fill="none" />
<path d="M226.35048546526525,93.75744092944699 L-93.75744092944697,226.35048546526525" stroke="#0d6d4d" stroke-width="0.1" fill="none" />
<path d="M225.4639742709611,95.8696839774879 L-136.11470708980247,203.71005501412364" stroke="#0d6d4d" stroke-width="0.1" fill="none" />
<path d="M224.55775268814418,97.97354595833654 L-173.24116139070412,173.24116139070418" stroke="#0d6d4d" stroke-width="0.1" fill="none" />
<path d="M223.63189994002312,100.06884294931903 L-203.71005501412358,136.11470708980252" stroke="#0d6d4d" stroke-width="0.1" fill="none" />
<path d="M222.68649696599167,102.15539177652539 L-226.35048546526528,93.75744092944693" stroke="#0d6d4d" stroke-width="0.1" fill="none" />
<path d="M221.7216264145526,104.23301003082267 L-240.29239369879141,47.79712889395152" stroke="#0d6d4d" stroke-width="0.1" fill="none" />
<path d="M220.7373726360927,106.30151608380173 L-245.0,4.500576986866523e-14" stroke="#0d6d4d" stroke-width="0.1" fill="none" />
<path d="M219.73382167550864,108.36072910365527 L-240.29239369879144,-47.79712889395143" stroke="#0d6d4d" stroke-width="0.1" fill="none" />
<path d="M218.71106126468484,110.41046907098652 L-226.35048546526522,-93.75744092944706" stroke="#0d6d4d" stroke-width="0.1" fill="none" />
<path d="M217.6691808148237,112.45055679454676 L-203.71005501412367,-136.11470708980247" stroke="#0d6d4d" stroke-width="0.1" fill="none" />
<path d="M216.6082714086294,114.4808139269002 L-173.24116139070418,-173.24116139070412" stroke="#0d6d4d" stroke-width="0.1" fill="none" />
<path d="M215.52842579234502,116.50106298001593 L-136.11470708980252,-203.71005501412358" stroke="#0d6d4d" stroke-width="0.1" fill="none" />
<path d="M214.4297383676447,118.51112734078373 L-93.75744092944694,-226.35048546526528" stroke="#0d6d4d" stroke-width="0.1" fill="none" />
<path d="M213.31230518338083,120.51083128645406 L-47.79712889395154,-240.29239369879141" stroke="#0d6d4d" stroke-width="0.1" fill="none" />
<path d="M212.17622392718752,122.49999999999994 L0.0,-245.0" stroke="#0d6d4d" stroke-width="0.1" fill="none" />
<path d="M211.02159391694022,124.47845958539965 L47.797128893951424,-240.29239369879144" stroke="#0d6d4d" stroke-width="0.1" fill="none" />
<path d="M209.8485160920736,126.44603708283913 L93.757440929447,-226.35048546526525" stroke="#0d6d4d" stroke-width="0.1" fill="none" />
<path d="M208.65709300475712,128.40256048383202 L136.11470708980252,-203.71005501412358" stroke="#0d6d4d" stroke-width="0.1" fill="none" />
<path d="M207.44742881092964,130.34785874625743 L173.24116139070412,-173.24116139070415" stroke="#0d6d4d" stroke-width="0.1" fill="none" />
<path d="M206.21962926119414,132.2817618093123 L203.71005501412355,-136.11470708980255" stroke="#0d6d4d" stroke-width="0.1" fill="none" />
<path d="M204.97380169157282,134.20410060837852 L226.35048546526525,-93.75744092944701" stroke="#0d6d4d" stroke-width="0.1" fill="none" />
<path d="M203.71005501412355,136.11470708980255 L240.29239369879144,-47.79712889395143" stroke="#0d6d4d" stroke-width="0.1" fill="none" />
<path d="M202.42849970741875,138.0134142255874 L245.0,-1.5001923289555078e-14" stroke="#0d6d4d" stroke-width="0.1" fill="none" />
<path d="M201.12924780688695,139.90005602799403 L240.29239369879144,47.79712889395141" stroke="#0d6d4d" stroke-width="0.1" fill="none" />
<path d="M199.81241289501878,141.77446756405237 L226.35048546526525,93.75744092944699" stroke="#0d6d4d" stroke-width="0.1" fill="none" />
<path d="M198.4781100914372,143.63648496998016 L203.71005501412355,136.11470708980255" stroke="#0d6d4d" stroke-width="0.1" fill="none" />
<path d="M197.1264560428338,145.48594546550783 L173.24116139070415,173.24116139070412" stroke="#0d6d4d" stroke-width="0.1" fill="none" />
<path d="M195.75756891277106,147.32268736810934 L136.11470708980252,203.7100550141236" stroke="#0d6d4d" stroke-width="0.1" fill="none" />
<path d="M194.37156837135268,149.14655010713648 L93.75744092944701,226.35048546526525" stroke="#0d6d4d" stroke-width="0.1" fill="none" />
<path d="M192.96857558476148,150.95737423785627 L47.7971288939514,240.29239369879144" stroke="#0d6d4d" stroke-width="0.1" fill="none" />
<path d="M191.54871320466734,152.75500145538967 L3.0003846579110155e-14,245.0" stroke="#0d6d4d" stroke-width="0.1" fill="none" />
<path d="M190.11210535750425,154.5392746085512 L-47.797128893951346,240.29239369879147" stroke="#0d6d4d" stroke-width="0.1" fill="none" />
<path d="M188.65887763361937,156.31003771358715 L-93.75744092944697,226.35048546526525" stroke="#0d6d4d" stroke-width="0.1" fill="none" />
<path d="M187.18915707629384,158.06713596781148 L-136.11470708980247,203.71005501412364" stroke="#0d6d4d" stroke-width="0.1" fill="none" />
<path d="M185.70307217063598,159.8104157631397 L-173.24116139070412,173.24116139070418" stroke="#0d6d4d" stroke-width="0.1" fill="none" />
<path d="M184.20075283234945,161.53972469951685 L-203.71005501412358,136.11470708980252" stroke="#0d6d4d" stroke-width="0.1" fill="none" />
<path d="M182.6823303963756,163.25491159824094 L-226.35048546526528,93.75744092944693" stroke="#0d6d4d" stroke-width="0.1" fill="none" />
<path d="M181.14793760541187,164.9558265151789 L-240.29239369879141,47.79712889395152" stroke="#0d6d4d" stroke-width="0.1" fill="none" />
<path d="M179.5977085983075,166.64232075387523 L-245.0,4.500576986866523e-14" stroke="#0d6d4d" stroke-width="0.1" fill="none" />
<path d="M178.03177889833668,168.31424687855085 L-240.29239369879144,-47.79712889395143" stroke="#0d6d4d" stroke-width="0.1" fill="none" />
<path d="M176.45028540135107,169.9714587269926 L-226.35048546526522,-93.75744092944706" stroke="#0d6d4d" stroke-width="0.1" fill="none" />
<path d="M174.853366363812,171.6138114233308 L-203.71005501412367,-136.11470708980247" stroke="#0d6d4d" stroke-width="0.1" fill="none" />
<path d="M173.24116139070415,173.24116139070412 L-173.24116139070418,-173.24116139070412" stroke="#0d6d4d" stroke-width="0.1" fill="none" />
<path d="M171.61381142333084,174.85336636381197 L-136.11470708980252,-203.71005501412358" stroke="#0d6d4d" stroke-width="0.1" fill="none" />
<path d="M169.97145872699272,176.45028540135095 L-93.75744092944694,-226.35048546526528" stroke="#0d6d4d" stroke-width="0.1" fill="none" />
<path d="M168.31424687855088,178.03177889833663 L-47.79712889395154,-240.29239369879141" stroke="#0d6d4d" stroke-width="0.1" fill="none" />
<path d="M166.64232075387525,179.59770859830746 L0.0,-245.0" stroke="#0d6d4d" stroke-width="0.1" fill="none" />
<path d="M164.95582651517896,181.14793760541184 L47.797128893951424,-240.29239369879144" stroke="#0d6d4d" stroke-width="0.1" fill="none" />
<path d="M163.254911598241,182.68233039637553 L93.757440929447,-226.35048546526525" stroke="#0d6d4d" stroke-width="0.1" fill="none" />
<path d="M161.53972469951688,184.20075283234942 L136.11470708980252,-203.71005501412358" stroke="#0d6d4d" stroke-width="0.1" fill="none" />
<path d="M159.81041576313973,185.70307217063595 L173.24116139070412,-173.24116139070415" stroke="#0d6d4d" stroke-width="0.1" fill="none" />
<path d="M158.0671359678115,187.18915707629378 L203.71005501412355,-136.11470708980255" stroke="#0d6d4d" stroke-width="0.1" fill="none" />
<path d="M156.3100377135871,188.6588776336194 L226.35048546526525,-93.75744092944701" stroke="#0d6d4d" stroke-width="0.1" fill="none" />
<path d="M154.53927460855127,190.1121053575042 L240.29239369879144,-47.79712889395143" stroke="#0d6d4d" stroke-width="0.1" fill="none" />
<path d="M152.75500145538973,191.54871320466728 L245.0,-1.5001923289555078e-14" stroke="#0d6d4d" stroke-width="0.1" fill="none" />
<path d="M150.9573742378563,192.96857558476145 L240.29239369879144,47.79712889395141" stroke="#0d6d4d" stroke-width="0.1" fill="none" />
<path d="M149.14655010713662,194.37156837135257 L226.35048546526525,93.75744092944699" stroke="#0d6d4d" stroke-width="0.1" fill="none" />
<path d="M147.32268736810948,195.75756891277095 L203.71005501412355,136.11470708980255" stroke="#0d6d4d" stroke-width="0.1" fill="none" />
<path d="M145.48594546550788,197.12645604283375 L173.24116139070415,173.24116139070412" stroke="#0d6d4d" stroke-width="0.1" fill="none" />
<path d="M143.6364849699802,198.47811009143717 L136.11470708980252,203.7100550141236" stroke="#0d6d4d" stroke-width="0.1" fill="none" />
<path d="M141.77446756405243,199.81241289501875 L93.75744092944701,226.35048546526525" stroke="#0d6d4d" stroke-width="0.1" fill="none" />
<path d="M139.90005602799405,201.12924780688692 L47.7971288939514,240.29239369879144" stroke="#0d6d4d" stroke-width="0.1" fill="none" />
<path d="M138.01341422558735,202.42849970741878 L3.0003846579110155e-14,245.0" stroke="#0d6d4d" stroke-width="0.1" fill="none" />
<path d="M136.11470708980252,203.7100550141236 L-47.797128893951346,240.29239369879147" stroke="#0d6d4d" stroke-width="0.1" fill="none" />
<path d="M134.20410060837847,204.97380169157285 L-93.75744092944697,226.35048546526525" stroke="#0d6d4d" stroke-width="0.1" fill="none" />
<path d="M132.28176180931234,206.21962926119414 L-136.11470708980247,203.71005501412364" stroke="#0d6d4d" stroke-width="0.1" fill="none" />
<path d="M130.3478587462575,207.4474288109296 L-173.24116139070412,173.24116139070418" stroke="#0d6d4d" stroke-width="0.1" fill="none" />
<path d="M128.40256048383208,208.6570930047571 L-203.71005501412358,136.11470708980252" stroke="#0d6d4d" stroke-width="0.1" fill="none" />
<path d="M126.44603708283918,209.84851609207357 L-226.35048546526528,93.75744092944693" stroke="#0d6d4d" stroke-width="0.1" fill="none" />
<path d="M124.47845958539979,211.02159391694016 L-240.29239369879141,47.79712889395152" stroke="#0d6d4d" stroke-width="0.1" fill="none" />
<path d="M122.50000000000009,212.17622392718744 L-245.0,4.500576986866523e-14" stroke="#0d6d4d" stroke-width="0.1" fill="none" />
<path d="M120.5108312864541,213.3123051833808 L-240.29239369879144,-47.79712889395143" stroke="#0d6d4d" stroke-width="0.1" fill="none" />
<path d="M118.51112734078376,214.42973836764466 L-226.35048546526522,-93.75744092944706" stroke="#0d6d4d" stroke-width="0.1" fill="none" />
<path d="M116.50106298001586,215.52842579234505 L-203.71005501412367,-136.11470708980247" stroke="#0d6d4d" stroke-width="0.1" fill="none" />
<path d="M114.48081392690014,216.60827140862943 L-173.24116139070418,-173.24116139070412" stroke="#0d6d4d" stroke-width="0.1" fill="none" />
<path d="M112.45055679454671,217.66918081482373 L-136.11470708980252,-203.71005501412358" stroke="#0d6d4d" stroke-width="0.1" fill="none" />
<path d="M110.41046907098657,218.71106126468482 L-93.75744092944694,-226.35048546526528" stroke="#0d6d4d" stroke-width="0.1" fill="none" />
<path d="M108.36072910365532,219.73382167550864 L-47.79712889395154,-240.29239369879141" stroke="#0d6d4d" stroke-width="0.1" fill="none" />
<path d="M106.30151608380177,220.73737263609266 L0.0,-245.0" stroke="#0d6d4d" stroke-width="0.1" fill="none" />
<path d="M104.2330100308227,221.7216264145526 L47.797128893951424,-240.29239369879144" stroke="#0d6d4d" stroke-width="0.1" fill="none" />
<path d="M102.15539177652543,222.68649696599164 L93.757440929447,-226.35048546526525" stroke="#0d6d4d" stroke-width="0.1" fill="none" />
<path d="M100.06884294931912,223.63189994002312 L136.11470708980252,-203.71005501412358" stroke="#0d6d4d" stroke-width="0.1" fill="none" />
<path d="M97.97354595833663,224.55775268814412 L173.24116139070412,-173.24116139070415" stroke="#0d6d4d" stroke-width="0.1" fill="none" />
<path d="M95.86968397748798,225.46397427096105 L203.71005501412355,-136.11470708980255" stroke="#0d6d4d" stroke-width="0.1" fill="none" />
<path d="M93.75744092944701,226.35048546526525 L226.35048546526525,-93.75744092944701" stroke="#0d6d4d" stroke-width="0.1" fill="none" />
<path d="M91.63700146957291,227.21720877095882 L240.29239369879144,-47.79712889395143" stroke="#0d6d4d" stroke-width="0.1" fill="none" />
<path d="M89.50855096976673,228.06406841783007 L245.0,-1.5001923289555078e-14" stroke="#0d6d4d" stroke-width="0.1" fill="none" />
<path d="M87.37227550226666,228.890990372177 L240.29239369879144,47.79712889395141" stroke="#0d6d4d" stroke-width="0.1" fill="none" />
<path d="M85.22836182338067,229.6979023432798 L226.35048546526525,93.75744092944699" stroke="#0d6d4d" stroke-width="0.1" fill="none" />
<path d="M83.07699735716034,230.4847337897206 L203.71005501412355,136.11470708980255" stroke="#0d6d4d" stroke-width="0.1" fill="none" />
<path d="M80.91837017901595,231.25141592555005 L173.24116139070415,173.24116139070412" stroke="#0d6d4d" stroke-width="0.1" fill="none" />
<path d="M78.75266899927463,231.99788172630088 L136.11470708980252,203.7100550141236" stroke="#0d6d4d" stroke-width="0.1" fill="none" />
<path d="M76.58008314668295,232.72406593484723 L93.75744092944701,226.35048546526525" stroke="#0d6d4d" stroke-width="0.1" fill="none" />
<path d="M74.40080255185568,233.4299050671096 L47.7971288939514,240.29239369879144" stroke="#0d6d4d" stroke-width="0.1" fill="none" />
<path d="M72.21501773067163,234.11533741760445 L3.0003846579110155e-14,245.0" stroke="#0d6d4d" stroke-width="0.1" fill="none" />
<path d="M70.02291976761845,234.78030306483905 L-47.797128893951346,240.29239369879147" stroke="#0d6d4d" stroke-width="0.1" fill="none" />
<path d="M67.82470029908812,235.42474387654937 L-93.75744092944697,226.35048546526525" stroke="#0d6d4d" stroke-width="0.1" fill="none" />
<path d="M65.62055149662329,236.04860351478257 L-136.11470708980247,203.71005501412364" stroke="#0d6d4d" stroke-width="0.1" fill="none" />
<path d="M63.41066605011765,236.6518274408217 L-173.24116139070412,173.24116139070418" stroke="#0d6d4d" stroke-width="0.1" fill="none" />
<path d="M61.19523715097055,237.23436291995407 L-203.71005501412358,136.11470708980252" stroke="#0d6d4d" stroke-width="0.1" fill="none" />
<path d="M58.974458475198375,237.79615902608077 L-226.35048546526528,93.75744092944693" stroke="#0d6d4d" stroke-width="0.1" fill="none" />
<path d="M56.748524166502435,238.33716664616932 L-240.29239369879141,47.79712889395152" stroke="#0d6d4d" stroke-width="0.1" fill="none" />
<path d="M54.51762881929705,238.85733848454677 L-245.0,4.500576986866523e-14" stroke="#0d6d4d" stroke-width="0.1" fill="none" />
<path d="M52.28196746169779,239.35662906703456 L-240.29239369879144,-47.79712889395143" stroke="#0d6d4d" stroke-width="0.1" fill="none" />
<path d="M50.04173553847174,239.83499474492385 L-226.35048546526522,-93.75744092944706" stroke="#0d6d4d" stroke-width="0.1" fill="none" />
<path d="M47.7971288939514,240.29239369879144 L-203.71005501412367,-136.11470708980247" stroke="#0d6d4d" stroke-width="0.1" fill="none" />
<path d="M45.548343754914065,240.72878594215564 L-173.24116139070418,-173.24116139070412" stroke="#0d6d4d" stroke-width="0.1" fill="none" />
<path d="M43.29557671342679,241.1441333249718 L-136.11470708980252,-203.71005501412358" stroke="#0d6d4d" stroke-width="0.1" fill="none" />
<path d="M41.039024709660445,241.5383995369678 L-93.75744092944694,-226.35048546526528" stroke="#0d6d4d" stroke-width="0.1" fill="none" />
<path d="M38.778885014672795,241.91155011081796 L-47.79712889395154,-240.29239369879141" stroke="#0d6d4d" stroke-width="0.1" fill="none" />
<path d="M36.5153552131628,242.2635524251565 L0.0,-245.0" stroke="#0d6d4d" stroke-width="0.1" fill="none" />
<path d="M34.24863318619745,242.59437570742915 L47.797128893951424,-240.29239369879144" stroke="#0d6d4d" stroke-width="0.1" fill="none" />
<path d="M31.978917093912628,242.90399103658353 L93.757440929447,-226.35048546526525" stroke="#0d6d4d" stroke-width="0.1" fill="none" />
<path d="M29.706405358190086,243.1923713455973 L136.11470708980252,-203.71005501412358" stroke="#0d6d4d" stroke-width="0.1" fill="none" />
<path d="M27.431296645310454,243.45949142384444 L173.24116139070412,-173.24116139070415" stroke="#0d6d4d" stroke-width="0.1" fill="none" />
<path d="M25.153789848586005,243.70532791929924 L203.71005501412355,-136.11470708980255" stroke="#0d6d4d" stroke-width="0.1" fill="none" />
<path d="M22.87408407097298,243.9298593405778 L226.35048546526525,-93.75744092944701" stroke="#0d6d4d" stroke-width="0.1" fill="none" />
<path d="M20.592378607665623,244.1330660588167 L240.29239369879144,-47.79712889395143" stroke="#0d6d4d" stroke-width="0.1" fill="none" />
<path d="M18.308872928674045,244.31493030938913 L245.0,-1.5001923289555078e-14" stroke="#0d6d4d" stroke-width="0.1" fill="none" />
<path d="M16.023766661385064,244.47543619345785 L240.29239369879144,47.79712889395141" stroke="#0d6d4d" stroke-width="0.1" fill="none" />
<path d="M13.737259573112127,244.61456967936505 L226.35048546526525,93.75744092944699" stroke="#0d6d4d" stroke-width="0.1" fill="none" />
<path d="M11.44955155362962,244.73231860385906 L203.71005501412355,136.11470708980255" stroke="#0d6d4d" stroke-width="0.1" fill="none" />
<path d="M9.160842597699736,244.82867267315766 L173.24116139070415,173.24116139070412" stroke="#0d6d4d" stroke-width="0.1" fill="none" />
<path d="M6.871332787587979,244.90362346384796 L136.11470708980252,203.7100550141236" stroke="#0d6d4d" stroke-width="0.1" fill="none" />
<path d="M4.581222275571049,244.95716442362288 L93.75744092944701,226.35048546526525" stroke="#0d6d4d" stroke-width="0.1" fill="none" />
<path d="M2.2907112664406344,244.98929087185383 L47.7971288939514,240.29239369879144" stroke="#0d6d4d" stroke-width="0.1" fill="none" />
<path d="M3.0003846579110155e-14,245.0 L3.0003846579110155e-14,245.0" stroke="#0d6d4d" stroke-width="0.1" fill="none" />
<path d="M-2.290711266440574,244.98929087185383 L-47.797128893951346,240.29239369879147" stroke="#0d6d4d" stroke-width="0.1" fill="none" />
<path d="M-4.581222275571098,244.95716442362288 L-93.75744092944697,226.35048546526525" stroke="#0d6d4d" stroke-width="0.1" fill="none" />
<path d="M-6.871332787587811,244.90362346384796 L-136.11470708980247,203.71005501412364" stroke="#0d6d4d" stroke-width="0.1" fill="none" />
<path d="M-9.160842597699784,244.82867267315763 L-173.24116139070412,173.24116139070418" stroke="#0d6d4d" stroke-width="0.1" fill="none" />
<path d="M-11.44955155362945,244.73231860385906 L-203.71005501412358,136.11470708980252" stroke="#0d6d4d" stroke-width="0.1" fill="none" />
<path d="M-13.737259573111958,244.61456967936508 L-226.35048546526528,93.75744092944693" stroke="#0d6d4d" stroke-width="0.1" fill="none" />
<path d="M-16.02376666138511,244.47543619345785 L-240.29239369879141,47.79712889395152" stroke="#0d6d4d" stroke-width="0.1" fill="none" />
<path d="M-18.308872928673875,244.31493030938913 L-245.0,4.500576986866523e-14" stroke="#0d6d4d" stroke-width="0.1" fill="none" />
<path d="M-20.592378607665673,244.13306605881667 L-240.29239369879144,-47.79712889395143" stroke="#0d6d4d" stroke-width="0.1" fill="none" />
<path d="M-22.87408407097281,243.9298593405778 L-226.35048546526522,-93.75744092944706" stroke="#0d6d4d" stroke-width="0.1" fill="none" />
<path d="M-25.153789848585944,243.70532791929924 L-203.71005501412367,-136.11470708980247" stroke="#0d6d4d" stroke-width="0.1" fill="none" />
<path d="M-27.431296645310393,243.45949142384444 L-173.24116139070418,-173.24116139070412" stroke="#0d6d4d" stroke-width="0.1" fill="none" />
<path d="M-29.706405358190025,243.1923713455973 L-136.11470708980252,-203.71005501412358" stroke="#0d6d4d" stroke-width="0.1" fill="none" />
<path d="M-31.978917093912575,242.90399103658356 L-93.75744092944694,-226.35048546526528" stroke="#0d6d4d" stroke-width="0.1" fill="none" />
<path d="M-34.248633186197395,242.59437570742915 L-47.79712889395154,-240.29239369879141" stroke="#0d6d4d" stroke-width="0.1" fill="none" />
<path d="M-36.515355213162636,242.26355242515652 L0.0,-245.0" stroke="#0d6d4d" stroke-width="0.1" fill="none" />
<path d="M-38.778885014672746,241.91155011081796 L47.797128893951424,-240.29239369879144" stroke="#0d6d4d" stroke-width="0.1" fill="none" />
<path d="M-41.039024709660495,241.53839953696777 L93.757440929447,-226.35048546526525" stroke="#0d6d4d" stroke-width="0.1" fill="none" />
<path d="M-43.29557671342674,241.14413332497182 L136.11470708980252,-203.71005501412358" stroke="#0d6d4d" stroke-width="0.1" fill="none" />
<path d="M-45.548343754914114,240.7287859421556 L173.24116139070412,-173.24116139070415" stroke="#0d6d4d" stroke-width="0.1" fill="none" />
<path d="M-47.797128893951346,240.29239369879147 L203.71005501412355,-136.11470708980255" stroke="#0d6d4d" stroke-width="0.1" fill="none" />
<path d="M-50.04173553847169,239.83499474492388 L226.35048546526525,-93.75744092944701" stroke="#0d6d4d" stroke-width="0.1" fill="none" />
<path d="M-52.28196746169763,239.3566290670346 L240.29239369879144,-47.79712889395143" stroke="#0d6d4d" stroke-width="0.1" fill="none" />
<path d="M-54.517628819297,238.85733848454677 L245.0,-1.5001923289555078e-14" stroke="#0d6d4d" stroke-width="0.1" fill="none" />
<path d="M-56.74852416650238,238.33716664616932 L240.29239369879144,47.79712889395141" stroke="#0d6d4d" stroke-width="0.1" fill="none" />
<path d="M-58.97445847519832,237.7961590260808 L226.35048546526525,93.75744092944699" stroke="#0d6d4d" stroke-width="0.1" fill="none" />
<path d="M-61.195237150970605,237.23436291995407 L203.71005501412355,136.11470708980255" stroke="#0d6d4d" stroke-width="0.1" fill="none" />
<path d="M-63.4106660501176,236.65182744082173 L173.24116139070415,173.24116139070412" stroke="#0d6d4d" stroke-width="0.1" fill="none" />
<path d="M-65.62055149662324,236.04860351478257 L136.11470708980252,203.7100550141236" stroke="#0d6d4d" stroke-width="0.1" fill="none" />
<path d="M-67.82470029908806,235.4247438765494 L93.75744092944701,226.35048546526525" stroke="#0d6d4d" stroke-width="0.1" fill="none" />
<path d="M-70.02291976761849,234.78030306483902 L47.7971288939514,240.29239369879144" stroke="#0d6d4d" stroke-width="0.1" fill="none" />
<path d="M-72.21501773067146,234.11533741760448 L3.0003846579110155e-14,245.0" stroke="#0d6d4d" stroke-width="0.1" fill="none" />
<path d="M-74.40080255185563,233.4299050671096 L-47.797128893951346,240.29239369879147" stroke="#0d6d4d" stroke-width="0.1" fill="none" />
<path d="M-76.58008314668281,232.7240659348473 L-93.75744092944697,226.35048546526525" stroke="#0d6d4d" stroke-width="0.1" fill="none" />
<path d="M-78.75266899927458,231.9978817263009 L-136.11470708980247,203.71005501412364" stroke="#0d6d4d" stroke-width="0.1" fill="none" />
<path d="M-80.91837017901581,231.2514159255501 L-173.24116139070412,173.24116139070418" stroke="#0d6d4d" stroke-width="0.1" fill="none" />
<path d="M-83.07699735716028,230.48473378972062 L-203.71005501412358,136.11470708980252" stroke="#0d6d4d" stroke-width="0.1" fill="none" />
<path d="M-85.22836182338072,229.6979023432798 L-226.35048546526528,93.75744092944693" stroke="#0d6d4d" stroke-width="0.1" fill="none" />
<path d="M-87.37227550226662,228.890990372177 L-240.29239369879141,47.79712889395152" stroke="#0d6d4d" stroke-width="0.1" fill="none" />
<path d="M-89.50855096976679,228.06406841783004 L-245.0,4.500576986866523e-14" stroke="#0d6d4d" stroke-width="0.1" fill="none" />
<path d="M-91.63700146957287,227.21720877095885 L-240.29239369879144,-47.79712889395143" stroke="#0d6d4d" stroke-width="0.1" fill="none" />
<path d="M-93.75744092944697,226.35048546526525 L-226.35048546526522,-93.75744092944706" stroke="#0d6d4d" stroke-width="0.1" fill="none" />
<path d="M-95.86968397748782,225.46397427096113 L-203.71005501412367,-136.11470708980247" stroke="#0d6d4d" stroke-width="0.1" fill="none" />
<path d="M-97.97354595833657,224.55775268814415 L-173.24116139070418,-173.24116139070412" stroke="#0d6d4d" stroke-width="0.1" fill="none" />
<path d="M-100.06884294931898,223.63189994002315 L-136.11470708980252,-203.71005501412358" stroke="#0d6d4d" stroke-width="0.1" fill="none" />
<path d="M-102.15539177652538,222.68649696599167 L-93.75744092944694,-226.35048546526528" stroke="#0d6d4d" stroke-width="0.1" fill="none" />
<path d="M-104.23301003082256,221.72162641455265 L-47.79712889395154,-240.29239369879141" stroke="#0d6d4d" stroke-width="0.1" fill="none" />
<path d="M-106.30151608380172,220.7373726360927 L0.0,-245.0" stroke="#0d6d4d" stroke-width="0.1" fill="none" />
<path d="M-108.36072910365537,219.73382167550864 L47.797128893951424,-240.29239369879144" stroke="#0d6d4d" stroke-width="0.1" fill="none" />
<path d="M-110.41046907098651,218.71106126468484 L93.757440929447,-226.35048546526525" stroke="#0d6d4d" stroke-width="0.1" fill="none" />
<path d="M-112.45055679454674,217.6691808148237 L136.11470708980252,-203.71005501412358" stroke="#0d6d4d" stroke-width="0.1" fill="none" />
<path d="M-114.48081392690008,216.60827140862943 L173.24116139070412,-173.24116139070415" stroke="#0d6d4d" stroke-width="0.1" fill="none" />
<path d="M-116.50106298001592,215.52842579234502 L203.71005501412355,-136.11470708980255" stroke="#0d6d4d" stroke-width="0.1" fill="none" />
<path d="M-118.51112734078373,214.4297383676447 L226.35048546526525,-93.75744092944701" stroke="#0d6d4d" stroke-width="0.1" fill="none" />
<path d="M-120.51083128645406,213.31230518338083 L240.29239369879144,-47.79712889395143" stroke="#0d6d4d" stroke-width="0.1" fill="none" />
<path d="M-122.49999999999994,212.17622392718752 L245.0,-1.5001923289555078e-14" stroke="#0d6d4d" stroke-width="0.1" fill="none" />
<path d="M-124.47845958539973,211.02159391694016 L240.29239369879144,47.79712889395141" stroke="#0d6d4d" stroke-width="0.1" fill="none" />
<path d="M-126.44603708283904,209.84851609207365 L226.35048546526525,93.75744092944699" stroke="#0d6d4d" stroke-width="0.1" fill="none" />
<path d="M-128.40256048383202,208.65709300475712 L203.71005501412355,136.11470708980255" stroke="#0d6d4d" stroke-width="0.1" fill="none" />
<path d="M-130.34785874625751,207.44742881092958 L173.24116139070415,173.24116139070412" stroke="#0d6d4d" stroke-width="0.1" fill="none" />
<path d="M-132.2817618093123,206.21962926119414 L136.11470708980252,203.7100550141236" stroke="#0d6d4d" stroke-width="0.1" fill="none" />
<path d="M-134.20410060837852,204.97380169157282 L93.75744092944701,226.35048546526525" stroke="#0d6d4d" stroke-width="0.1" fill="none" />
<path d="M-136.11470708980247,203.71005501412364 L47.7971288939514,240.29239369879144" stroke="#0d6d4d" stroke-width="0.1" fill="none" />
<path d="M-138.0134142255874,202.42849970741875 L3.0003846579110155e-14,245.0" stroke="#0d6d4d" stroke-width="0.1" fill="none" />
<path d="M-139.9000560279939,201.129247806887 L-47.797128893951346,240.29239369879147" stroke="#0d6d4d" stroke-width="0.1" fill="none" />
<path d="M-141.77446756405237,199.81241289501878 L-93.75744092944697,226.35048546526525" stroke="#0d6d4d" stroke-width="0.1" fill="none" />
<path d="M-143.63648496998016,198.4781100914372 L-136.11470708980247,203.71005501412364" stroke="#0d6d4d" stroke-width="0.1" fill="none" />
<path d="M-145.48594546550783,197.1264560428338 L-173.24116139070412,173.24116139070418" stroke="#0d6d4d" stroke-width="0.1" fill="none" />
<path d="M-147.32268736810934,195.75756891277106 L-203.71005501412358,136.11470708980252" stroke="#0d6d4d" stroke-width="0.1" fill="none" />
<path d="M-149.14655010713656,194.37156837135262 L-226.35048546526528,93.75744092944693" stroke="#0d6d4d" stroke-width="0.1" fill="none" />
<path d="M-150.95737423785627,192.96857558476148 L-240.29239369879141,47.79712889395152" stroke="#0d6d4d" stroke-width="0.1" fill="none" />
<path d="M-152.75500145538967,191.54871320466734 L-245.0,4.500576986866523e-14" stroke="#0d6d4d" stroke-width="0.1" fill="none" />
<path d="M-154.5392746085513,190.11210535750416 L-240.29239369879144,-47.79712889395143" stroke="#0d6d4d" stroke-width="0.1" fill="none" />
<path d="M-156.31003771358706,188.6588776336194 L-226.35048546526522,-93.75744092944706" stroke="#0d6d4d" stroke-width="0.1" fill="none" />
<path d="M-158.06713596781148,187.18915707629384 L-203.71005501412367,-136.11470708980247" stroke="#0d6d4d" stroke-width="0.1" fill="none" />
<path d="M-159.81041576313962,185.70307217063603 L-173.24116139070418,-173.24116139070412" stroke="#0d6d4d" stroke-width="0.1" fill="none" />
<path d="M-161.53972469951685,184.20075283234945 L-136.11470708980252,-203.71005501412358" stroke="#0d6d4d" stroke-width="0.1" fill="none" />
<path d="M-163.25491159824085,182.68233039637565 L-93.75744092944694,-226.35048546526528" stroke="#0d6d4d" stroke-width="0.1" fill="none" />
<path d="M-164.9558265151789,181.14793760541187 L-47.79712889395154,-240.29239369879141" stroke="#0d6d4d" stroke-width="0.1" fill="none" />
<path d="M-166.64232075387528,179.59770859830743 L0.0,-245.0" stroke="#0d6d4d" stroke-width="0.1" fill="none" />
<path d="M-168.31424687855085,178.03177889833668 L47.797128893951424,-240.29239369879144" stroke="#0d6d4d" stroke-width="0.1" fill="none" />
<path d="M-169.97145872699267,176.450285401351 L93.757440929447,-226.35048546526525" stroke="#0d6d4d" stroke-width="0.1" fill="none" />
<path d="M-171.6138114233308,174.853366363812 L136.11470708980252,-203.71005501412358" stroke="#0d6d4d" stroke-width="0.1" fill="none" />
<path d="M-173.24116139070412,173.24116139070418 L173.24116139070412,-173.24116139070415" stroke="#0d6d4d" stroke-width="0.1" fill="none" />
<path d="M-174.85336636381194,171.61381142333084 L203.71005501412355,-136.11470708980255" stroke="#0d6d4d" stroke-width="0.1" fill="none" />
<path d="M-176.450285401351,169.97145872699267 L226.35048546526525,-93.75744092944701" stroke="#0d6d4d" stroke-width="0.1" fill="none" />
<path d="M-178.03177889833657,168.31424687855096 L240.29239369879144,-47.79712889395143" stroke="#0d6d4d" stroke-width="0.1" fill="none" />
<path d="M-179.59770859830743,166.64232075387528 L245.0,-1.5001923289555078e-14" stroke="#0d6d4d" stroke-width="0.1" fill="none" />
<path d="M-181.14793760541176,164.95582651517907 L240.29239369879144,47.79712889395141" stroke="#0d6d4d" stroke-width="0.1" fill="none" />
<path d="M-182.68233039637553,163.25491159824102 L226.35048546526525,93.75744092944699" stroke="#0d6d4d" stroke-width="0.1" fill="none" />
<path d="M-184.20075283234948,161.53972469951685 L203.71005501412355,136.11470708980255" stroke="#0d6d4d" stroke-width="0.1" fill="none" />
<path d="M-185.70307217063598,159.81041576313967 L173.24116139070415,173.24116139070412" stroke="#0d6d4d" stroke-width="0.1" fill="none" />
<path d="M-187.18915707629384,158.06713596781145 L136.11470708980252,203.7100550141236" stroke="#0d6d4d" stroke-width="0.1" fill="none" />
<path d="M-188.6588776336194,156.31003771358712 L93.75744092944701,226.35048546526525" stroke="#0d6d4d" stroke-width="0.1" fill="none" />
<path d="M-190.1121053575042,154.5392746085513 L47.7971288939514,240.29239369879144" stroke="#0d6d4d" stroke-width="0.1" fill="none" />
<path d="M-191.54871320466728,152.75500145538976 L3.0003846579110155e-14,245.0" stroke="#0d6d4d" stroke-width="0.1" fill="none" />
<path d="M-192.96857558476142,150.95737423785633 L-47.797128893951346,240.29239369879147" stroke="#0d6d4d" stroke-width="0.1" fill="none" />
<path d="M-194.37156837135257,149.14655010713662 L-93.75744092944697,226.35048546526525" stroke="#0d6d4d" stroke-width="0.1" fill="none" />
<path d="M-195.75756891277095,147.3226873681095 L-136.11470708980247,203.71005501412364" stroke="#0d6d4d" stroke-width="0.1" fill="none" />
<path d="M-197.12645604283367,145.485945465508 L-173.24116139070412,173.24116139070418" stroke="#0d6d4d" stroke-width="0.1" fill="none" />
<path d="M-198.4781100914371,143.6364849699803 L-203.71005501412358,136.11470708980252" stroke="#0d6d4d" stroke-width="0.1" fill="none" />
<path d="M-199.81241289501878,141.77446756405234 L-226.35048546526528,93.75744092944693" stroke="#0d6d4d" stroke-width="0.1" fill="none" />
<path d="M-201.12924780688698,139.900056027994 L-240.29239369879141,47.79712889395152" stroke="#0d6d4d" stroke-width="0.1" fill="none" />
<path d="M-202.42849970741875,138.01341422558738 L-245.0,4.500576986866523e-14" stroke="#0d6d4d" stroke-width="0.1" fill="none" />
<path d="M-203.71005501412358,136.11470708980252 L-240.29239369879144,-47.79712889395143" stroke="#0d6d4d" stroke-width="0.1" fill="none" />
<path d="M-204.97380169157285,134.2041006083785 L-226.35048546526522,-93.75744092944706" stroke="#0d6d4d" stroke-width="0.1" fill="none" />
<path d="M-206.21962926119414,132.28176180931234 L-203.71005501412367,-136.11470708980247" stroke="#0d6d4d" stroke-width="0.1" fill="none" />
<path d="M-207.44742881092958,130.34785874625751 L-173.24116139070418,-173.24116139070412" stroke="#0d6d4d" stroke-width="0.1" fill="none" />
<path d="M-208.6570930047571,128.4025604838321 L-136.11470708980252,-203.71005501412358" stroke="#0d6d4d" stroke-width="0.1" fill="none" />
<path d="M-209.84851609207354,126.4460370828392 L-93.75744092944694,-226.35048546526528" stroke="#0d6d4d" stroke-width="0.1" fill="none" />
<path d="M-211.02159391694013,124.47845958539982 L-47.79712889395154,-240.29239369879141" stroke="#0d6d4d" stroke-width="0.1" fill="none" />
<path d="M-212.1762239271874,122.50000000000011 L0.0,-245.0" stroke="#0d6d4d" stroke-width="0.1" fill="none" />
<path d="M-213.31230518338086,120.51083128645404 L47.797128893951424,-240.29239369879144" stroke="#0d6d4d" stroke-width="0.1" fill="none" />
<path d="M-214.42973836764457,118.51112734078389 L93.757440929447,-226.35048546526525" stroke="#0d6d4d" stroke-width="0.1" fill="none" />
<path d="M-215.52842579234505,116.50106298001587 L136.11470708980252,-203.71005501412358" stroke="#0d6d4d" stroke-width="0.1" fill="none" />
<path d="M-216.60827140862943,114.48081392690015 L173.24116139070412,-173.24116139070415" stroke="#0d6d4d" stroke-width="0.1" fill="none" />
<path d="M-217.66918081482373,112.45055679454673 L203.71005501412355,-136.11470708980255" stroke="#0d6d4d" stroke-width="0.1" fill="none" />
<path d="M-218.71106126468482,110.41046907098657 L226.35048546526525,-93.75744092944701" stroke="#0d6d4d" stroke-width="0.1" fill="none" />
<path d="M-219.73382167550864,108.36072910365533 L240.29239369879144,-47.79712889395143" stroke="#0d6d4d" stroke-width="0.1" fill="none" />
<path d="M-220.73737263609266,106.30151608380179 L245.0,-1.5001923289555078e-14" stroke="#0d6d4d" stroke-width="0.1" fill="none" />
<path d="M-221.72162641455256,104.23301003082271 L240.29239369879144,47.79712889395141" stroke="#0d6d4d" stroke-width="0.1" fill="none" />
<path d="M-222.68649696599164,102.15539177652545 L226.35048546526525,93.75744092944699" stroke="#0d6d4d" stroke-width="0.1" fill="none" />
<path d="M-223.63189994002312,100.06884294931913 L203.71005501412355,136.11470708980255" stroke="#0d6d4d" stroke-width="0.1" fill="none" />
<path d="M-224.55775268814423,97.97354595833644 L173.24116139070415,173.24116139070412" stroke="#0d6d4d" stroke-width="0.1" fill="none" />
<path d="M-225.46397427096105,95.869683977488 L136.11470708980252,203.7100550141236" stroke="#0d6d4d" stroke-width="0.1" fill="none" />
<path d="M-226.35048546526528,93.75744092944693 L93.75744092944701,226.35048546526525" stroke="#0d6d4d" stroke-width="0.1" fill="none" />
<path d="M-227.21720877095876,91.63700146957304 L47.7971288939514,240.29239369879144" stroke="#0d6d4d" stroke-width="0.1" fill="none" />
<path d="M-228.06406841783004,89.50855096976674 L3.0003846579110155e-14,245.0" stroke="#0d6d4d" stroke-width="0.1" fill="none" />
<path d="M-228.890990372177,87.37227550226667 L-47.797128893951346,240.29239369879147" stroke="#0d6d4d" stroke-width="0.1" fill="none" />
<path d="M-229.6979023432798,85.22836182338068 L-93.75744092944697,226.35048546526525" stroke="#0d6d4d" stroke-width="0.1" fill="none" />
<path d="M-230.4847337897206,83.07699735716035 L-136.11470708980247,203.71005501412364" stroke="#0d6d4d" stroke-width="0.1" fill="none" />
<path d="M-231.25141592555002,80.91837017901597 L-173.24116139070412,173.24116139070418" stroke="#0d6d4d" stroke-width="0.1" fill="none" />
<path d="M-231.99788172630088,78.75266899927465 L-203.71005501412358,136.11470708980252" stroke="#0d6d4d" stroke-width="0.1" fill="none" />
<path d="M-232.72406593484723,76.58008314668297 L-226.35048546526528,93.75744092944693" stroke="#0d6d4d" stroke-width="0.1" fill="none" />
<path d="M-233.42990506710962,74.40080255185549 L-240.29239369879141,47.79712889395152" stroke="#0d6d4d" stroke-width="0.1" fill="none" />
<path d="M-234.11533741760445,72.21501773067163 L-245.0,4.500576986866523e-14" stroke="#0d6d4d" stroke-width="0.1" fill="none" />
<path d="M-234.78030306483907,70.02291976761835 L-240.29239369879144,-47.79712889395143" stroke="#0d6d4d" stroke-width="0.1" fill="none" />
<path d="M-235.42474387654934,67.82470029908824 L-226.35048546526522,-93.75744092944706" stroke="#0d6d4d" stroke-width="0.1" fill="none" />
<path d="M-236.04860351478257,65.6205514966232 L-203.71005501412367,-136.11470708980247" stroke="#0d6d4d" stroke-width="0.1" fill="none" />
<path d="M-236.65182744082168,63.41066605011776 L-173.24116139070418,-173.24116139070412" stroke="#0d6d4d" stroke-width="0.1" fill="none" />
<path d="M-237.23436291995407,61.19523715097056 L-136.11470708980252,-203.71005501412358" stroke="#0d6d4d" stroke-width="0.1" fill="none" />
<path d="M-237.79615902608077,58.9744584751984 L-93.75744092944694,-226.35048546526528" stroke="#0d6d4d" stroke-width="0.1" fill="none" />
<path d="M-238.33716664616932,56.74852416650245 L-47.79712889395154,-240.29239369879141" stroke="#0d6d4d" stroke-width="0.1" fill="none" />
<path d="M-238.85733848454677,54.51762881929707 L0.0,-245.0" stroke="#0d6d4d" stroke-width="0.1" fill="none" />
<path d="M-239.35662906703453,52.28196746169781 L47.797128893951424,-240.29239369879144" stroke="#0d6d4d" stroke-width="0.1" fill="none" />
<path d="M-239.83499474492385,50.04173553847176 L93.757440929447,-226.35048546526525" stroke="#0d6d4d" stroke-width="0.1" fill="none" />
<path d="M-240.29239369879141,47.79712889395152 L136.11470708980252,-203.71005501412358" stroke="#0d6d4d" stroke-width="0.1" fill="none" />
<path d="M-240.72878594215564,45.54834375491398 L173.24116139070412,-173.24116139070415" stroke="#0d6d4d" stroke-width="0.1" fill="none" />
<path d="M-241.1441333249718,43.29557671342692 L203.71005501412355,-136.11470708980255" stroke="#0d6d4d" stroke-width="0.1" fill="none" />
<path d="M-241.5383995369678,41.03902470966036 L226.35048546526525,-93.75744092944701" stroke="#0d6d4d" stroke-width="0.1" fill="none" />
<path d="M-241.91155011081793,38.77888501467293 L240.29239369879144,-47.79712889395143" stroke="#0d6d4d" stroke-width="0.1" fill="none" />
<path d="M-242.2635524251565,36.515355213162714 L245.0,-1.5001923289555078e-14" stroke="#0d6d4d" stroke-width="0.1" fill="none" />
<path d="M-242.59437570742912,34.24863318619758 L240.29239369879144,47.79712889395141" stroke="#0d6d4d" stroke-width="0.1" fill="none" />
<path d="M-242.90399103658353,31.97891709391265 L226.35048546526525,93.75744092944699" stroke="#0d6d4d" stroke-width="0.1" fill="none" />
<path d="M-243.1923713455973,29.7064053581901 L203.71005501412355,136.11470708980255" stroke="#0d6d4d" stroke-width="0.1" fill="none" />
<path d="M-243.45949142384444,27.431296645310468 L173.24116139070415,173.24116139070412" stroke="#0d6d4d" stroke-width="0.1" fill="none" />
<path d="M-243.70532791929924,25.153789848586015 L136.11470708980252,203.7100550141236" stroke="#0d6d4d" stroke-width="0.1" fill="none" />
<path d="M-243.9298593405778,22.874084070972994 L93.75744092944701,226.35048546526525" stroke="#0d6d4d" stroke-width="0.1" fill="none" />
<path d="M-244.13306605881667,20.592378607665747 L47.7971288939514,240.29239369879144" stroke="#0d6d4d" stroke-width="0.1" fill="none" />
<path d="M-244.31493030938913,18.30887292867406 L3.0003846579110155e-14,245.0" stroke="#0d6d4d" stroke-width="0.1" fill="none" />
<path d="M-244.47543619345785,16.02376666138497 L-47.797128893951346,240.29239369879147" stroke="#0d6d4d" stroke-width="0.1" fill="none" />
<path d="M-244.61456967936505,13.737259573112139 L-93.75744092944697,226.35048546526525" stroke="#0d6d4d" stroke-width="0.1" fill="none" />
<path d="M-244.73231860385906,11.449551553629526 L-136.11470708980247,203.71005501412364" stroke="#0d6d4d" stroke-width="0.1" fill="none" />
<path d="M-244.82867267315763,9.160842597699967 L-173.24116139070412,173.24116139070418" stroke="#0d6d4d" stroke-width="0.1" fill="none" />
<path d="M-244.90362346384796,6.871332787587885 L-203.71005501412358,136.11470708980252" stroke="#0d6d4d" stroke-width="0.1" fill="none" />
<path d="M-244.95716442362288,4.581222275571064 L-226.35048546526528,93.75744092944693" stroke="#0d6d4d" stroke-width="0.1" fill="none" />
<path d="M-244.98929087185383,2.290711266440649 L-240.29239369879141,47.79712889395152" stroke="#0d6d4d" stroke-width="0.1" fill="none" />
<path d="M-245.0,4.500576986866523e-14 L-245.0,4.500576986866523e-14" stroke="#0d6d4d" stroke-width="0.1" fill="none" />
<path d="M-244.98929087185383,-2.2907112664405593 L-240.29239369879144,-47.79712889395143" stroke="#0d6d4d" stroke-width="0.1" fill="none" />
<path d="M-244.95716442362288,-4.5812222755709735 L-226.35048546526522,-93.75744092944706" stroke="#0d6d4d" stroke-width="0.1" fill="none" />
<path d="M-244.90362346384796,-6.871332787587796 L-203.71005501412367,-136.11470708980247" stroke="#0d6d4d" stroke-width="0.1" fill="none" />
<path d="M-244.82867267315766,-9.160842597699661 L-173.24116139070418,-173.24116139070412" stroke="#0d6d4d" stroke-width="0.1" fill="none" />
<path d="M-244.73231860385906,-11.449551553629437 L-136.11470708980252,-203.71005501412358" stroke="#0d6d4d" stroke-width="0.1" fill="none" />
<path d="M-244.61456967936505,-13.737259573112052 L-93.75744092944694,-226.35048546526528" stroke="#0d6d4d" stroke-width="0.1" fill="none" />
<path d="M-244.47543619345788,-16.02376666138488 L-47.79712889395154,-240.29239369879141" stroke="#0d6d4d" stroke-width="0.1" fill="none" />
<path d="M-244.31493030938913,-18.30887292867397 L0.0,-245.0" stroke="#0d6d4d" stroke-width="0.1" fill="none" />
<path d="M-244.1330660588167,-20.59237860766566 L47.797128893951424,-240.29239369879144" stroke="#0d6d4d" stroke-width="0.1" fill="none" />
<path d="M-243.9298593405778,-22.874084070972906 L93.757440929447,-226.35048546526525" stroke="#0d6d4d" stroke-width="0.1" fill="none" />
<path d="M-243.70532791929924,-25.15378984858593 L136.11470708980252,-203.71005501412358" stroke="#0d6d4d" stroke-width="0.1" fill="none" />
<path d="M-243.45949142384444,-27.43129664531038 L173.24116139070412,-173.24116139070415" stroke="#0d6d4d" stroke-width="0.1" fill="none" />
<path d="M-243.1923713455973,-29.70640535819001 L203.71005501412355,-136.11470708980255" stroke="#0d6d4d" stroke-width="0.1" fill="none" />
<path d="M-242.90399103658356,-31.978917093912553 L226.35048546526525,-93.75744092944701" stroke="#0d6d4d" stroke-width="0.1" fill="none" />
<path d="M-242.59437570742918,-34.24863318619727 L240.29239369879144,-47.79712889395143" stroke="#0d6d4d" stroke-width="0.1" fill="none" />
<path d="M-242.26355242515652,-36.515355213162614 L245.0,-1.5001923289555078e-14" stroke="#0d6d4d" stroke-width="0.1" fill="none" />
<path d="M-241.91155011081798,-38.77888501467262 L240.29239369879144,47.79712889395141" stroke="#0d6d4d" stroke-width="0.1" fill="none" />
<path d="M-241.53839953696783,-41.03902470966027 L226.35048546526525,93.75744092944699" stroke="#0d6d4d" stroke-width="0.1" fill="none" />
<path d="M-241.1441333249718,-43.29557671342682 L203.71005501412355,136.11470708980255" stroke="#0d6d4d" stroke-width="0.1" fill="none" />
<path d="M-240.7287859421556,-45.5483437549141 L173.24116139070415,173.24116139070412" stroke="#0d6d4d" stroke-width="0.1" fill="none" />
<path d="M-240.29239369879144,-47.79712889395143 L136.11470708980252,203.7100550141236" stroke="#0d6d4d" stroke-width="0.1" fill="none" />
<path d="M-239.83499474492388,-50.04173553847167 L93.75744092944701,226.35048546526525" stroke="#0d6d4d" stroke-width="0.1" fill="none" />
<path d="M-239.35662906703456,-52.28196746169772 L47.7971288939514,240.29239369879144" stroke="#0d6d4d" stroke-width="0.1" fill="none" />
<path d="M-238.85733848454677,-54.51762881929698 L3.0003846579110155e-14,245.0" stroke="#0d6d4d" stroke-width="0.1" fill="none" />
<path d="M-238.33716664616932,-56.74852416650236 L-47.797128893951346,240.29239369879147" stroke="#0d6d4d" stroke-width="0.1" fill="none" />
<path d="M-237.7961590260808,-58.974458475198304 L-93.75744092944697,226.35048546526525" stroke="#0d6d4d" stroke-width="0.1" fill="none" />
<path d="M-237.2343629199541,-61.19523715097048 L-136.11470708980247,203.71005501412364" stroke="#0d6d4d" stroke-width="0.1" fill="none" />
<path d="M-236.65182744082176,-63.41066605011747 L-173.24116139070412,173.24116139070418" stroke="#0d6d4d" stroke-width="0.1" fill="none" />
<path d="M-236.04860351478257,-65.62055149662312 L-203.71005501412358,136.11470708980252" stroke="#0d6d4d" stroke-width="0.1" fill="none" />
<path d="M-235.42474387654943,-67.82470029908795 L-226.35048546526528,93.75744092944693" stroke="#0d6d4d" stroke-width="0.1" fill="none" />
<path d="M-234.78030306483902,-70.02291976761848 L-240.29239369879141,47.79712889395152" stroke="#0d6d4d" stroke-width="0.1" fill="none" />
<path d="M-234.11533741760448,-72.21501773067156 L-245.0,4.500576986866523e-14" stroke="#0d6d4d" stroke-width="0.1" fill="none" />
<path d="M-233.4299050671096,-74.40080255185562 L-240.29239369879144,-47.79712889395143" stroke="#0d6d4d" stroke-width="0.1" fill="none" />
<path d="M-232.72406593484726,-76.5800831466829 L-226.35048546526522,-93.75744092944706" stroke="#0d6d4d" stroke-width="0.1" fill="none" />
<path d="M-231.9978817263009,-78.75266899927456 L-203.71005501412367,-136.11470708980247" stroke="#0d6d4d" stroke-width="0.1" fill="none" />
<path d="M-231.25141592555005,-80.9183701790159 L-173.24116139070418,-173.24116139070412" stroke="#0d6d4d" stroke-width="0.1" fill="none" />
<path d="M-230.48473378972062,-83.07699735716027 L-136.11470708980252,-203.71005501412358" stroke="#0d6d4d" stroke-width="0.1" fill="none" />
<path d="M-229.69790234327982,-85.2283618233806 L-93.75744092944694,-226.35048546526528" stroke="#0d6d4d" stroke-width="0.1" fill="none" />
<path d="M-228.89099037217701,-87.3722755022666 L-47.79712889395154,-240.29239369879141" stroke="#0d6d4d" stroke-width="0.1" fill="none" />
<path d="M-228.06406841783001,-89.50855096976687 L0.0,-245.0" stroke="#0d6d4d" stroke-width="0.1" fill="none" />
<path d="M-227.21720877095888,-91.63700146957275 L47.797128893951424,-240.29239369879144" stroke="#0d6d4d" stroke-width="0.1" fill="none" />
<path d="M-226.35048546526522,-93.75744092944706 L93.757440929447,-226.35048546526525" stroke="#0d6d4d" stroke-width="0.1" fill="none" />
<path d="M-225.46397427096113,-95.86968397748772 L136.11470708980252,-203.71005501412358" stroke="#0d6d4d" stroke-width="0.1" fill="none" />
<path d="M-224.55775268814418,-97.97354595833656 L173.24116139070412,-173.24116139070415" stroke="#0d6d4d" stroke-width="0.1" fill="none" />
<path d="M-223.63189994002312,-100.06884294931906 L203.71005501412355,-136.11470708980255" stroke="#0d6d4d" stroke-width="0.1" fill="none" />
<path d="M-222.68649696599167,-102.15539177652536 L226.35048546526525,-93.75744092944701" stroke="#0d6d4d" stroke-width="0.1" fill="none" />
<path d="M-221.72162641455262,-104.23301003082264 L240.29239369879144,-47.79712889395143" stroke="#0d6d4d" stroke-width="0.1" fill="none" />
<path d="M-220.73737263609272,-106.3015160838017 L245.0,-1.5001923289555078e-14" stroke="#0d6d4d" stroke-width="0.1" fill="none" />
<path d="M-219.73382167550866,-108.36072910365526 L240.29239369879144,47.79712889395141" stroke="#0d6d4d" stroke-width="0.1" fill="none" />
<path d="M-218.71106126468484,-110.4104690709865 L226.35048546526525,93.75744092944699" stroke="#0d6d4d" stroke-width="0.1" fill="none" />
<path d="M-217.66918081482365,-112.45055679454684 L203.71005501412355,136.11470708980255" stroke="#0d6d4d" stroke-width="0.1" fill="none" />
<path d="M-216.60827140862943,-114.48081392690008 L173.24116139070415,173.24116139070412" stroke="#0d6d4d" stroke-width="0.1" fill="none" />
<path d="M-215.52842579234496,-116.50106298001599 L136.11470708980252,203.7100550141236" stroke="#0d6d4d" stroke-width="0.1" fill="none" />
<path d="M-214.42973836764475,-118.5111273407836 L93.75744092944701,226.35048546526525" stroke="#0d6d4d" stroke-width="0.1" fill="none" />
<path d="M-213.3123051833808,-120.51083128645413 L47.7971288939514,240.29239369879144" stroke="#0d6d4d" stroke-width="0.1" fill="none" />
<path d="M-212.17622392718758,-122.49999999999983 L3.0003846579110155e-14,245.0" stroke="#0d6d4d" stroke-width="0.1" fill="none" />
<path d="M-211.0215939169402,-124.4784595853997 L-47.797128893951346,240.29239369879147" stroke="#0d6d4d" stroke-width="0.1" fill="none" />
<path d="M-209.8485160920736,-126.4460370828391 L-93.75744092944697,226.35048546526525" stroke="#0d6d4d" stroke-width="0.1" fill="none" />
<path d="M-208.65709300475714,-128.40256048383202 L-136.11470708980247,203.71005501412364" stroke="#0d6d4d" stroke-width="0.1" fill="none" />
<path d="M-207.44742881092967,-130.3478587462574 L-173.24116139070412,173.24116139070418" stroke="#0d6d4d" stroke-width="0.1" fill="none" />
<path d="M-206.21962926119417,-132.28176180931226 L-203.71005501412358,136.11470708980252" stroke="#0d6d4d" stroke-width="0.1" fill="none" />
<path d="M-204.97380169157276,-134.20410060837858 L-226.35048546526528,93.75744092944693" stroke="#0d6d4d" stroke-width="0.1" fill="none" />
<path d="M-203.71005501412367,-136.11470708980247 L-240.29239369879141,47.79712889395152" stroke="#0d6d4d" stroke-width="0.1" fill="none" />
<path d="M-202.4284997074187,-138.01341422558747 L-245.0,4.500576986866523e-14" stroke="#0d6d4d" stroke-width="0.1" fill="none" />
<path d="M-201.12924780688704,-139.90005602799388 L-240.29239369879144,-47.79712889395143" stroke="#0d6d4d" stroke-width="0.1" fill="none" />
<path d="M-199.81241289501872,-141.77446756405246 L-226.35048546526522,-93.75744092944706" stroke="#0d6d4d" stroke-width="0.1" fill="none" />
<path d="M-198.4781100914373,-143.63648496998005 L-203.71005501412367,-136.11470708980247" stroke="#0d6d4d" stroke-width="0.1" fill="none" />
<path d="M-197.12645604283375,-145.4859454655079 L-173.24116139070418,-173.24116139070412" stroke="#0d6d4d" stroke-width="0.1" fill="none" />
<path d="M-195.75756891277115,-147.32268736810923 L-136.11470708980252,-203.71005501412358" stroke="#0d6d4d" stroke-width="0.1" fill="none" />
<path d="M-194.37156837135262,-149.14655010713653 L-93.75744092944694,-226.35048546526528" stroke="#0d6d4d" stroke-width="0.1" fill="none" />
<path d="M-192.9685755847615,-150.95737423785627 L-47.79712889395154,-240.29239369879141" stroke="#0d6d4d" stroke-width="0.1" fill="none" />
<path d="M-191.54871320466734,-152.75500145538967 L0.0,-245.0" stroke="#0d6d4d" stroke-width="0.1" fill="none" />
<path d="M-190.11210535750425,-154.5392746085512 L47.797128893951424,-240.29239369879144" stroke="#0d6d4d" stroke-width="0.1" fill="none" />
<path d="M-188.65887763361943,-156.31003771358704 L93.757440929447,-226.35048546526525" stroke="#0d6d4d" stroke-width="0.1" fill="none" />
<path d="M-187.18915707629375,-158.06713596781154 L136.11470708980252,-203.71005501412358" stroke="#0d6d4d" stroke-width="0.1" fill="none" />
<path d="M-185.70307217063606,-159.8104157631396 L173.24116139070412,-173.24116139070415" stroke="#0d6d4d" stroke-width="0.1" fill="none" />
<path d="M-184.20075283234942,-161.5397246995169 L203.71005501412355,-136.11470708980255" stroke="#0d6d4d" stroke-width="0.1" fill="none" />
<path d="M-182.68233039637568,-163.25491159824085 L226.35048546526525,-93.75744092944701" stroke="#0d6d4d" stroke-width="0.1" fill="none" />
<path d="M-181.1479376054118,-164.95582651517898 L240.29239369879144,-47.79712889395143" stroke="#0d6d4d" stroke-width="0.1" fill="none" />
<path d="M-179.59770859830758,-166.6423207538751 L245.0,-1.5001923289555078e-14" stroke="#0d6d4d" stroke-width="0.1" fill="none" />
<path d="M-178.03177889833663,-168.31424687855088 L240.29239369879144,47.79712889395141" stroke="#0d6d4d" stroke-width="0.1" fill="none" />
<path d="M-176.45028540135118,-169.97145872699252 L226.35048546526525,93.75744092944699" stroke="#0d6d4d" stroke-width="0.1" fill="none" />
<path d="M-174.85336636381203,-171.61381142333076 L203.71005501412355,136.11470708980255" stroke="#0d6d4d" stroke-width="0.1" fill="none" />
<path d="M-173.24116139070418,-173.24116139070412 L173.24116139070415,173.24116139070412" stroke="#0d6d4d" stroke-width="0.1" fill="none" />
<path d="M-171.61381142333084,-174.85336636381194 L136.11470708980252,203.7100550141236" stroke="#0d6d4d" stroke-width="0.1" fill="none" />
<path d="M-169.97145872699272,-176.45028540135092 L93.75744092944701,226.35048546526525" stroke="#0d6d4d" stroke-width="0.1" fill="none" />
<path d="M-168.31424687855096,-178.03177889833657 L47.7971288939514,240.29239369879144" stroke="#0d6d4d" stroke-width="0.1" fill="none" />
<path d="M-166.6423207538752,-179.59770859830755 L3.0003846579110155e-14,245.0" stroke="#0d6d4d" stroke-width="0.1" fill="none" />
<path d="M-164.95582651517907,-181.14793760541176 L-47.797128893951346,240.29239369879147" stroke="#0d6d4d" stroke-width="0.1" fill="none" />
<path d="M-163.25491159824094,-182.6823303963756 L-93.75744092944697,226.35048546526525" stroke="#0d6d4d" stroke-width="0.1" fill="none" />
<path d="M-161.539724699517,-184.20075283234934 L-136.11470708980247,203.71005501412364" stroke="#0d6d4d" stroke-width="0.1" fill="none" />
<path d="M-159.81041576313967,-185.70307217063598 L-173.24116139070412,173.24116139070418" stroke="#0d6d4d" stroke-width="0.1" fill="none" />
<path d="M-158.06713596781162,-187.1891570762937 L-203.71005501412358,136.11470708980252" stroke="#0d6d4d" stroke-width="0.1" fill="none" />
<path d="M-156.31003771358712,-188.6588776336194 L-226.35048546526528,93.75744092944693" stroke="#0d6d4d" stroke-width="0.1" fill="none" />
<path d="M-154.5392746085513,-190.1121053575042 L-240.29239369879141,47.79712889395152" stroke="#0d6d4d" stroke-width="0.1" fill="none" />
<path d="M-152.75500145538976,-191.54871320466728 L-245.0,4.500576986866523e-14" stroke="#0d6d4d" stroke-width="0.1" fill="none" />
<path d="M-150.95737423785633,-192.96857558476142 L-240.29239369879144,-47.79712889395143" stroke="#0d6d4d" stroke-width="0.1" fill="none" />
<path d="M-149.14655010713662,-194.37156837135257 L-226.35048546526522,-93.75744092944706" stroke="#0d6d4d" stroke-width="0.1" fill="none" />
<path d="M-147.3226873681095,-195.75756891277095 L-203.71005501412367,-136.11470708980247" stroke="#0d6d4d" stroke-width="0.1" fill="none" />
<path d="M-145.485945465508,-197.12645604283367 L-173.24116139070418,-173.24116139070412" stroke="#0d6d4d" stroke-width="0.1" fill="none" />
<path d="M-143.63648496998013,-198.47811009143723 L-136.11470708980252,-203.71005501412358" stroke="#0d6d4d" stroke-width="0.1" fill="none" />
<path d="M-141.77446756405254,-199.81241289501864 L-93.75744092944694,-226.35048546526528" stroke="#0d6d4d" stroke-width="0.1" fill="none" />
<path d="M-139.900056027994,-201.12924780688698 L-47.79712889395154,-240.29239369879141" stroke="#0d6d4d" stroke-width="0.1" fill="none" />
<path d="M-138.01341422558758,-202.42849970741864 L0.0,-245.0" stroke="#0d6d4d" stroke-width="0.1" fill="none" />
<path d="M-136.11470708980252,-203.71005501412358 L47.797128893951424,-240.29239369879144" stroke="#0d6d4d" stroke-width="0.1" fill="none" />
<path d="M-134.2041006083785,-204.97380169157285 L93.757440929447,-226.35048546526525" stroke="#0d6d4d" stroke-width="0.1" fill="none" />
<path d="M-132.28176180931234,-206.21962926119414 L136.11470708980252,-203.71005501412358" stroke="#0d6d4d" stroke-width="0.1" fill="none" />
<path d="M-130.34785874625751,-207.44742881092958 L173.24116139070412,-173.24116139070415" stroke="#0d6d4d" stroke-width="0.1" fill="none" />
<path d="M-128.4025604838321,-208.6570930047571 L203.71005501412355,-136.11470708980255" stroke="#0d6d4d" stroke-width="0.1" fill="none" />
<path d="M-126.4460370828392,-209.84851609207354 L226.35048546526525,-93.75744092944701" stroke="#0d6d4d" stroke-width="0.1" fill="none" />
<path d="M-124.47845958539982,-211.02159391694013 L240.29239369879144,-47.79712889395143" stroke="#0d6d4d" stroke-width="0.1" fill="none" />
<path d="M-122.50000000000011,-212.1762239271874 L245.0,-1.5001923289555078e-14" stroke="#0d6d4d" stroke-width="0.1" fill="none" />
<path d="M-120.51083128645423,-213.31230518338074 L240.29239369879144,47.79712889395141" stroke="#0d6d4d" stroke-width="0.1" fill="none" />
<path d="M-118.5111273407837,-214.4297383676447 L226.35048546526525,93.75744092944699" stroke="#0d6d4d" stroke-width="0.1" fill="none" />
<path d="M-116.50106298001589,-215.52842579234502 L203.71005501412355,136.11470708980255" stroke="#0d6d4d" stroke-width="0.1" fill="none" />
<path d="M-114.48081392690017,-216.60827140862943 L173.24116139070415,173.24116139070412" stroke="#0d6d4d" stroke-width="0.1" fill="none" />
<path d="M-112.45055679454673,-217.6691808148237 L136.11470708980252,203.7100550141236" stroke="#0d6d4d" stroke-width="0.1" fill="none" />
<path d="M-110.41046907098658,-218.71106126468482 L93.75744092944701,226.35048546526525" stroke="#0d6d4d" stroke-width="0.1" fill="none" />
<path d="M-108.36072910365534,-219.73382167550864 L47.7971288939514,240.29239369879144" stroke="#0d6d4d" stroke-width="0.1" fill="none" />
<path d="M-106.30151608380179,-220.73737263609266 L3.0003846579110155e-14,245.0" stroke="#0d6d4d" stroke-width="0.1" fill="none" />
<path d="M-104.23301003082273,-221.72162641455256 L-47.797128893951346,240.29239369879147" stroke="#0d6d4d" stroke-width="0.1" fill="none" />
<path d="M-102.15539177652546,-222.68649696599164 L-93.75744092944697,226.35048546526525" stroke="#0d6d4d" stroke-width="0.1" fill="none" />
<path d="M-100.06884294931915,-223.63189994002312 L-136.11470708980247,203.71005501412364" stroke="#0d6d4d" stroke-width="0.1" fill="none" />
<path d="M-97.97354595833664,-224.55775268814412 L-173.24116139070412,173.24116139070418" stroke="#0d6d4d" stroke-width="0.1" fill="none" />
<path d="M-95.86968397748801,-225.46397427096105 L-203.71005501412358,136.11470708980252" stroke="#0d6d4d" stroke-width="0.1" fill="none" />
<path d="M-93.75744092944694,-226.35048546526528 L-226.35048546526528,93.75744092944693" stroke="#0d6d4d" stroke-width="0.1" fill="none" />
<path d="M-91.63700146957284,-227.21720877095885 L-240.29239369879141,47.79712889395152" stroke="#0d6d4d" stroke-width="0.1" fill="none" />
<path d="M-89.50855096976676,-228.06406841783004 L-245.0,4.500576986866523e-14" stroke="#0d6d4d" stroke-width="0.1" fill="none" />
<path d="M-87.37227550226669,-228.89099037217696 L-240.29239369879144,-47.79712889395143" stroke="#0d6d4d" stroke-width="0.1" fill="none" />
<path d="M-85.2283618233807,-229.6979023432798 L-226.35048546526522,-93.75744092944706" stroke="#0d6d4d" stroke-width="0.1" fill="none" />
<path d="M-83.07699735716037,-230.4847337897206 L-203.71005501412367,-136.11470708980247" stroke="#0d6d4d" stroke-width="0.1" fill="none" />
<path d="M-80.91837017901598,-231.25141592555002 L-173.24116139070418,-173.24116139070412" stroke="#0d6d4d" stroke-width="0.1" fill="none" />
<path d="M-78.75266899927466,-231.99788172630088 L-136.11470708980252,-203.71005501412358" stroke="#0d6d4d" stroke-width="0.1" fill="none" />
<path d="M-76.58008314668298,-232.72406593484723 L-93.75744092944694,-226.35048546526528" stroke="#0d6d4d" stroke-width="0.1" fill="none" />
<path d="M-74.4008025518557,-233.42990506710956 L-47.79712889395154,-240.29239369879141" stroke="#0d6d4d" stroke-width="0.1" fill="none" />
<path d="M-72.21501773067165,-234.11533741760445 L0.0,-245.0" stroke="#0d6d4d" stroke-width="0.1" fill="none" />
<path d="M-70.02291976761836,-234.78030306483907 L47.797128893951424,-240.29239369879144" stroke="#0d6d4d" stroke-width="0.1" fill="none" />
<path d="M-67.82470029908825,-235.42474387654934 L93.757440929447,-226.35048546526525" stroke="#0d6d4d" stroke-width="0.1" fill="none" />
<path d="M-65.62055149662321,-236.04860351478257 L136.11470708980252,-203.71005501412358" stroke="#0d6d4d" stroke-width="0.1" fill="none" />
<path d="M-63.41066605011757,-236.65182744082173 L173.24116139070412,-173.24116139070415" stroke="#0d6d4d" stroke-width="0.1" fill="none" />
<path d="M-61.19523715097058,-237.23436291995407 L203.71005501412355,-136.11470708980255" stroke="#0d6d4d" stroke-width="0.1" fill="none" />
<path d="M-58.97445847519841,-237.79615902608077 L226.35048546526525,-93.75744092944701" stroke="#0d6d4d" stroke-width="0.1" fill="none" />
<path d="M-56.748524166502456,-238.33716664616932 L240.29239369879144,-47.79712889395143" stroke="#0d6d4d" stroke-width="0.1" fill="none" />
<path d="M-54.51762881929709,-238.85733848454677 L245.0,-1.5001923289555078e-14" stroke="#0d6d4d" stroke-width="0.1" fill="none" />
<path d="M-52.281967461697825,-239.35662906703453 L240.29239369879144,47.79712889395141" stroke="#0d6d4d" stroke-width="0.1" fill="none" />
<path d="M-50.04173553847178,-239.83499474492385 L226.35048546526525,93.75744092944699" stroke="#0d6d4d" stroke-width="0.1" fill="none" />
<path d="M-47.79712889395154,-240.29239369879141 L203.71005501412355,136.11470708980255" stroke="#0d6d4d" stroke-width="0.1" fill="none" />
<path d="M-45.5483437549142,-240.7287859421556 L173.24116139070415,173.24116139070412" stroke="#0d6d4d" stroke-width="0.1" fill="none" />
<path d="M-43.29557671342672,-241.14413332497182 L136.11470708980252,203.7100550141236" stroke="#0d6d4d" stroke-width="0.1" fill="none" />
<path d="M-41.039024709660374,-241.5383995369678 L93.75744092944701,226.35048546526525" stroke="#0d6d4d" stroke-width="0.1" fill="none" />
<path d="M-38.778885014672944,-241.91155011081793 L47.7971288939514,240.29239369879144" stroke="#0d6d4d" stroke-width="0.1" fill="none" />
<path d="M-36.51535521316294,-242.26355242515646 L3.0003846579110155e-14,245.0" stroke="#0d6d4d" stroke-width="0.1" fill="none" />
<path d="M-34.248633186197374,-242.59437570742918 L-47.797128893951346,240.29239369879147" stroke="#0d6d4d" stroke-width="0.1" fill="none" />
<path d="M-31.978917093912663,-242.90399103658353 L-93.75744092944697,226.35048546526525" stroke="#0d6d4d" stroke-width="0.1" fill="none" />
<path d="M-29.706405358190118,-243.1923713455973 L-136.11470708980247,203.71005501412364" stroke="#0d6d4d" stroke-width="0.1" fill="none" />
<path d="M-27.4312966453107,-243.4594914238444 L-173.24116139070412,173.24116139070418" stroke="#0d6d4d" stroke-width="0.1" fill="none" />
<path d="M-25.153789848586033,-243.70532791929924 L-203.71005501412358,136.11470708980252" stroke="#0d6d4d" stroke-width="0.1" fill="none" />
<path d="M-22.874084070973012,-243.9298593405778 L-226.35048546526528,93.75744092944693" stroke="#0d6d4d" stroke-width="0.1" fill="none" />
<path d="M-20.592378607665765,-244.13306605881667 L-240.29239369879141,47.79712889395152" stroke="#0d6d4d" stroke-width="0.1" fill="none" />
<path d="M-18.308872928673857,-244.31493030938913 L-245.0,4.500576986866523e-14" stroke="#0d6d4d" stroke-width="0.1" fill="none" />
<path d="M-16.023766661384986,-244.47543619345785 L-240.29239369879144,-47.79712889395143" stroke="#0d6d4d" stroke-width="0.1" fill="none" />
<path d="M-13.737259573112155,-244.61456967936505 L-226.35048546526522,-93.75744092944706" stroke="#0d6d4d" stroke-width="0.1" fill="none" />
<path d="M-11.449551553629759,-244.73231860385906 L-203.71005501412367,-136.11470708980247" stroke="#0d6d4d" stroke-width="0.1" fill="none" />
<path d="M-9.160842597699764,-244.82867267315766 L-173.24116139070418,-173.24116139070412" stroke="#0d6d4d" stroke-width="0.1" fill="none" />
<path d="M-6.8713327875879004,-244.90362346384796 L-136.11470708980252,-203.71005501412358" stroke="#0d6d4d" stroke-width="0.1" fill="none" />
<path d="M-4.581222275571079,-244.95716442362288 L-93.75744092944694,-226.35048546526528" stroke="#0d6d4d" stroke-width="0.1" fill="none" />
<path d="M-2.2907112664408817,-244.98929087185383 L-47.79712889395154,-240.29239369879141" stroke="#0d6d4d" stroke-width="0.1" fill="none" />
</svg>