<?xml version="1.0" encoding="UTF-8"?>
<svg xmlns="http://www.w3.org/2000/svg" xmlns:xlink="http://www.w3.org/1999/xlink"
     width="500.0" height="500" viewBox="-250.0 -250.0 500 500">
<defs>
</defs>
<circle cx="0" cy="0" r="245.0" fill="white" stroke-width="2" stroke="black" />
<path d="M0.0,-245.0 L0.0,-245.0" stroke="#0d6d4d" stroke-width="0.1" fill="none" />
<path d="M17.47809988381192,-244.3757680795121 L34.86713537695486,-242.50625326082852" stroke="#0d6d4d" stroke-width="0.1" fill="none" />
<path d="M34.86713537695486,-242.50625326082852 L69.02447642615027,-235.07577853555185" stroke="#0d6d4d" stroke-width="0.1" fill="none" />
<path d="M52.07849594047928,-239.40098216293407 L101.77667818546216,-222.859838861857" stroke="#0d6d4d" stroke-width="0.1" fill="none" />
<path d="M69.02447642615027,-235.07577853555185 L132.45700027662141,-206.1071155436394" stroke="#0d6d4d" stroke-width="0.1" fill="none" />
<path d="M85.6187240017791,-229.5526826249416 L160.44087981659484,-185.15864571679327" stroke="#0d6d4d" stroke-width="0.1" fill="none" />
<path d="M101.77667818546216,-222.859838861857 L185.15864571679325,-160.44087981659487" stroke="#0d6d4d" stroke-width="0.1" fill="none" />
<path d="M117.41600174641393,-215.03135244397762 L206.10711554363937,-132.45700027662141" stroke="#0d6d4d" stroke-width="0.1" fill="none" />
<path d="M132.45700027662141,-206.1071155436394 L222.85983886185699,-101.77667818546217" stroke="#0d6d4d" stroke-width="0.1" fill="none" />
<path d="M146.82302829527998,-196.1326040264683 L235.07577853555185,-69.0244764261503" stroke="#0d6d4d" stroke-width="0.1" fill="none" />
<path d="M160.44087981659484,-185.15864571679327 L242.50625326082852,-34.867135376954856" stroke="#0d6d4d" stroke-width="0.1" fill="none" />
<path d="M173.24116139070412,-173.24116139070418 L245.0,-6.940285149618775e-14" stroke="#0d6d4d" stroke-width="0.1" fill="none" />
<path d="M185.15864571679325,-160.44087981659487 L242.50625326082854,34.86713537695483" stroke="#0d6d4d" stroke-width="0.1" fill="none" />
<path d="M196.1326040264683,-146.82302829528 L235.07577853555185,69.02447642615027" stroke="#0d6d4d" stroke-width="0.1" fill="none" />
<path d="M206.10711554363937,-132.45700027662141 L222.859838861857,101.77667818546215" stroke="#0d6d4d" stroke-width="0.1" fill="none" />
<path d="M215.0313524439776,-117.41600174641397 L206.10711554363945,132.45700027662133" stroke="#0d6d4d" stroke-width="0.1" fill="none" />
<path d="M222.85983886185699,-101.77667818546217 L185.1586457167933,160.44087981659482" stroke="#0d6d4d" stroke-width="0.1" fill="none" />
<path d="M229.5526826249416,-85.6187240017791 L160.44087981659487,185.15864571679325" stroke="#0d6d4d" stroke-width="0.1" fill="none" />
<path d="M235.07577853555185,-69.0244764261503 L132.45700027662144,206.10711554363937" stroke="#0d6d4d" stroke-width="0.1" fill="none" />
<path d="M239.40098216293407,-52.07849594047932 L101.77667818546225,222.85983886185696" stroke="#0d6d4d" stroke-width="0.1" fill="none" />
<path d="M242.50625326082852,-34.867135376954856 L69.02447642615026,235.07577853555185" stroke="#0d6d4d" stroke-width="0.1" fill="none" />
<path d="M244.3757680795121,-17.478099883811925 L34.86713537695487,242.50625326082852" stroke="#0d6d4d" stroke-width="0.1" fill="none" />
<path d="M245.0,-6.940285149618775e-14 L1.388057029923755e-13,245.0" stroke="#0d6d4d" stroke-width="0.1" fill="none" />
<path d="M244.3757680795121,17.4780998838119 L-34.86713537695481,242.50625326082854" stroke="#0d6d4d" stroke-width="0.1" fill="none" />
<path d="M242.50625326082854,34.86713537695483 L-69.02447642615022,235.07577853555188" stroke="#0d6d4d" stroke-width="0.1" fill="none" />
<path d="M239.40098216293407,52.07849594047929 L-101.77667818546219,222.85983886185699" stroke="#0d6d4d" stroke-width="0.1" fill="none" />
<path d="M235.07577853555185,69.02447642615027 L-132.45700027662141,206.1071155436394" stroke="#0d6d4d" stroke-width="0.1" fill="none" />
<path d="M229.55268262494164,85.61872400177909 L-160.44087981659482,185.1586457167933" stroke="#0d6d4d" stroke-width="0.1" fill="none" />
<path d="M222.859838861857,101.77667818546215 L-185.15864571679325,160.44087981659487" stroke="#0d6d4d" stroke-width="0.1" fill="none" />
<path d="M215.0313524439776,117.41600174641394 L-206.1071155436394,132.4570002766214" stroke="#0d6d4d" stroke-width="0.1" fill="none" />
<path d="M206.10711554363945,132.45700027662133 L-222.8598388618569,101.77667818546236" stroke="#0d6d4d" stroke-width="0.1" fill="none" />
<path d="M196.1326040264683,146.82302829527998 L-235.07577853555185,69.02447642615027" stroke="#0d6d4d" stroke-width="0.1" fill="none" />
<path d="M185.1586457167933,160.44087981659482 L-242.50625326082852,34.867135376954884" stroke="#0d6d4d" stroke-width="0.1" fill="none" />
<path d="M173.24116139070415,173.24116139070412 L-245.0,4.500576986866523e-14" stroke="#0d6d4d" stroke-width="0.1" fill="none" />
<path d="M160.44087981659487,185.15864571679325 L-242.50625326082854,-34.86713537695479" stroke="#0d6d4d" stroke-width="0.1" fill="none" />
<path d="M146.82302829528004,196.13260402646827 L-235.07577853555188,-69.0244764261502" stroke="#0d6d4d" stroke-width="0.1" fill="none" />
<path d="M132.45700027662144,206.10711554363937 L-222.85983886185704,-101.77667818546207" stroke="#0d6d4d" stroke-width="0.1" fill="none" />
<path d="M117.41600174641388,215.03135244397762 L-206.10711554363934,-132.45700027662147" stroke="#0d6d4d" stroke-width="0.1" fill="none" />
<path d="M101.77667818546225,222.85983886185696 L-185.1586457167934,-160.4408798165947" stroke="#0d6d4d" stroke-width="0.1" fill="none" />
<path d="M85.61872400177917,229.55268262494158 L-160.44087981659496,-185.15864571679316" stroke="#0d6d4d" stroke-width="0.1" fill="none" />
<path d="M69.02447642615026,235.07577853555185 L-132.4570002766214,-206.1071155436394" stroke="#0d6d4d" stroke-width="0.1" fill="none" />
<path d="M52.07849594047939,239.40098216293404 L-101.77667818546237,-222.8598388618569" stroke="#0d6d4d" stroke-width="0.1" fill="none" />
<path d="M34.86713537695487,242.50625326082852 L-69.02447642615029,-235.07577853555185" stroke="#0d6d4d" stroke-width="0.1" fill="none" />
<path d="M17.478099883811943,244.3757680795121 L-34.8671353769549,-242.50625326082852" stroke="#0d6d4d" stroke-width="0.1" fill="none" />
<path d="M1.388057029923755e-13,245.0 L0.0,-245.0" stroke="#0d6d4d" stroke-width="0.1" fill="none" />
<path d="M-17.478099883811883,244.3757680795121 L34.86713537695486,-242.50625326082852" stroke="#0d6d4d" stroke-width="0.1" fill="none" />
<path d="M-34.86713537695481,242.50625326082854 L69.02447642615027,-235.07577853555185" stroke="#0d6d4d" stroke-width="0.1" fill="none" />
<path d="M-52.078495940479336,239.40098216293407 L101.77667818546216,-222.859838861857" stroke="#0d6d4d" stroke-width="0.1" fill="none" />
<path d="M-69.02447642615022,235.07577853555188 L132.45700027662141,-206.1071155436394" stroke="#0d6d4d" stroke-width="0.1" fill="none" />
<path d="M-85.61872400177901,229.55268262494164 L160.44087981659484,-185.15864571679327" stroke="#0d6d4d" stroke-width="0.1" fill="none" />
<path d="M-101.77667818546219,222.85983886185699 L185.15864571679325,-160.44087981659487" stroke="#0d6d4d" stroke-width="0.1" fill="none" />
<path d="M-117.41600174641383,215.03135244397768 L206.10711554363937,-132.45700027662141" stroke="#0d6d4d" stroke-width="0.1" fill="none" />
<path d="M-132.45700027662141,206.1071155436394 L222.85983886185699,-101.77667818546217" stroke="#0d6d4d" stroke-width="0.1" fill="none" />
<path d="M-146.82302829527998,196.1326040264683 L235.07577853555185,-69.0244764261503" stroke="#0d6d4d" stroke-width="0.1" fill="none" />
<path d="M-160.44087981659482,185.1586457167933 L242.50625326082852,-34.867135376954856" stroke="#0d6d4d" stroke-width="0.1" fill="none" />
<path d="M-173.24116139070418,173.2411613907041 L245.0,-6.940285149618775e-14" stroke="#0d6d4d" stroke-width="0.1" fill="none" />
<path d="M-185.15864571679325,160.44087981659487 L242.50625326082854,34.86713537695483" stroke="#0d6d4d" stroke-width="0.1" fill="none" />
<path d="M-196.13260402646824,146.82302829528007 L235.07577853555185,69.02447642615027" stroke="#0d6d4d" stroke-width="0.1" fill="none" />
<path d="M-206.1071155436394,132.4570002766214 L222.859838861857,101.77667818546215" stroke="#0d6d4d" stroke-width="0.1" fill="none" />
<path d="M-215.03135244397757,117.416001746414 L206.10711554363945,132.45700027662133" stroke="#0d6d4d" stroke-width="0.1" fill="none" />
<path d="M-222.8598388618569,101.77667818546236 L185.1586457167933,160.44087981659482" stroke="#0d6d4d" stroke-width="0.1" fill="none" />
<path d="M-229.55268262494158,85.61872400177919 L160.44087981659487,185.15864571679325" stroke="#0d6d4d" stroke-width="0.1" fill="none" />
<path d="M-235.07577853555185,69.02447642615027 L132.45700027662144,206.10711554363937" stroke="#0d6d4d" stroke-width="0.1" fill="none" />
<path d="M-239.4009821629341,52.07849594047919 L101.77667818546225,222.85983886185696" stroke="#0d6d4d" stroke-width="0.1" fill="none" />
<path d="M-242.50625326082852,34.867135376954884 L69.02447642615026,235.07577853555185" stroke="#0d6d4d" stroke-width="0.1" fill="none" />
<path d="M-244.3757680795121,17.478099883812067 L34.86713537695487,242.50625326082852" stroke="#0d6d4d" stroke-width="0.1" fill="none" />
<path d="M-245.0,4.500576986866523e-14 L1.388057029923755e-13,245.0" stroke="#0d6d4d" stroke-width="0.1" fill="none" />
<path d="M-244.37576807951214,-17.47809988381176 L-34.86713537695481,242.50625326082854" stroke="#0d6d4d" stroke-width="0.1" fill="none" />
<path d="M-242.50625326082854,-34.86713537695479 L-69.02447642615022,235.07577853555188" stroke="#0d6d4d" stroke-width="0.1" fill="none" />
<path d="M-239.40098216293407,-52.078495940479314 L-101.77667818546219,222.85983886185699" stroke="#0d6d4d" stroke-width="0.1" fill="none" />
<path d="M-235.07577853555188,-69.0244764261502 L-132.45700027662141,206.1071155436394" stroke="#0d6d4d" stroke-width="0.1" fill="none" />
<path d="M-229.5526826249416,-85.6187240017791 L-160.44087981659482,185.1586457167933" stroke="#0d6d4d" stroke-width="0.1" fill="none" />
<path d="M-222.85983886185704,-101.77667818546207 L-185.15864571679325,160.44087981659487" stroke="#0d6d4d" stroke-width="0.1" fill="none" />
<path d="M-215.03135244397762,-117.41600174641393 L-206.1071155436394,132.4570002766214" stroke="#0d6d4d" stroke-width="0.1" fill="none" />
<path d="M-206.10711554363934,-132.45700027662147 L-222.8598388618569,101.77667818546236" stroke="#0d6d4d" stroke-width="0.1" fill="none" />
<path d="M-196.13260402646833,-146.82302829527998 L-235.07577853555185,69.02447642615027" stroke="#0d6d4d" stroke-width="0.1" fill="none" />
<path d="M-185.1586457167934,-160.4408798165947 L-242.50625326082852,34.867135376954884" stroke="#0d6d4d" stroke-width="0.1" fill="none" />
<path d="M-173.24116139070418,-173.24116139070412 L-245.0,4.500576986866523e-14" stroke="#0d6d4d" stroke-width="0.1" fill="none" />
<path d="M-160.44087981659496,-185.15864571679316 L-242.50625326082854,-34.86713537695479" stroke="#0d6d4d" stroke-width="0.1" fill="none" />
<path d="M-146.82302829528007,-196.13260402646824 L-235.07577853555188,-69.0244764261502" stroke="#0d6d4d" stroke-width="0.1" fill="none" />
<path d="M-132.4570002766214,-206.1071155436394 L-222.85983886185704,-101.77667818546207" stroke="#0d6d4d" stroke-width="0.1" fill="none" />
<path d="M-117.41600174641401,-215.03135244397757 L-206.10711554363934,-132.45700027662147" stroke="#0d6d4d" stroke-width="0.1" fill="none" />
<path d="M-101.77667818546237,-222.8598388618569 L-185.1586457167934,-160.4408798165947" stroke="#0d6d4d" stroke-width="0.1" fill="none" />
<path d="M-85.61872400177899,-229.55268262494167 L-160.44087981659496,-185.15864571679316" stroke="#0d6d4d" stroke-width="0.1" fill="none" />
<path d="M-69.02447642615029,-235.07577853555185 L-132.4570002766214,-206.1071155436394" stroke="#0d6d4d" stroke-width="0.1" fill="none" />
<path d="M-52.07849594047942,-239.40098216293404 L-101.77667818546237,-222.8598388618569" stroke="#0d6d4d" stroke-width="0.1" fill="none" />
<path d="M-34.8671353769549,-242.50625326082852 L-69.02447642615029,-235.07577853555185" stroke="#0d6d4d" stroke-width="0.1" fill="none" />
<path d="M-17.47809988381208,-244.3757680795121 L-34.8671353769549,-242.50625326082852" stroke="#0d6d4d" stroke-width="0.1" fill="none" />
</svg>