<?xml version="1.0" encoding="UTF-8"?>
<svg xmlns="http://www.w3.org/2000/svg" xmlns:xlink="http://www.w3.org/1999/xlink"
     width="500.0" height="500" viewBox="-250.0 -250.0 500 500">
<defs>
</defs>
<circle cx="0" cy="0" r="245.0" fill="white" stroke-width="2" stroke="black" />
<path d="M0.0,-245.0 L0.0,-245.0" stroke="#0d6d4d" stroke-width="0.1" fill="none" />
<path d="M19.465290908070024,-244.22551555860048 L38.80751597976767,-241.9069587744017" stroke="#0d6d4d" stroke-width="0.1" fill="none" />
<path d="M38.80751597976767,-241.9069587744017 L76.63516872044566,-232.70593227330676" stroke="#0d6d4d" stroke-width="0.1" fill="none" />
<path d="M57.90438744056169,-238.05898830990046 L112.52783585962959,-217.6292401235373" stroke="#0d6d4d" stroke-width="0.1" fill="none" />
<path d="M76.63516872044566,-232.70593227330676 L145.57925209806908,-197.05755849133737" stroke="#0d6d4d" stroke-width="0.1" fill="none" />
<path d="M94.88143778940706,-225.88163440841063 L174.95489177870365,-171.5103082695092" stroke="#0d6d4d" stroke-width="0.1" fill="none" />
<path d="M112.52783585962959,-217.6292401235373 L199.91304008879442,-141.63254005508787" stroke="#0d6d4d" stroke-width="0.1" fill="none" />
<path d="M129.46279672089176,-208.00092371238415 L219.823520851707,-108.1786470628984" stroke="#0d6d4d" stroke-width="0.1" fill="none" />
<path d="M145.57925209806908,-197.05755849133737 L234.18360804441141,-71.99331721279061" stroke="#0d6d4d" stroke-width="0.1" fill="none" />
<path d="M160.77530857124202,-184.86833193876637 L242.63071928576295,-33.99020533732174" stroke="#0d6d4d" stroke-width="0.1" fill="none" />
<path d="M174.95489177870365,-171.5103082695092 L244.95157079366606,4.871135977942193" stroke="#0d6d4d" stroke-width="0.1" fill="none" />
<path d="M188.02835383000743,-157.06794121009398 L241.08756265471308,43.60948444099973" stroke="#0d6d4d" stroke-width="0.1" fill="none" />
<path d="M199.91304008879442,-141.63254005508787 L231.13625843192295,81.2467232452566" stroke="#0d6d4d" stroke-width="0.1" fill="none" />
<path d="M210.53381174201695,-125.30169238033842 L215.34892175149622,116.83253784998404" stroke="#0d6d4d" stroke-width="0.1" fill="none" />
<path d="M219.823520851707,-108.1786470628984 L194.12417206808573,149.46841077257844" stroke="#0d6d4d" stroke-width="0.1" fill="none" />
<path d="M227.72343488585983,-90.37166150838196 L167.99791979617132,178.33030854052598" stroke="#0d6d4d" stroke-width="0.1" fill="none" />
<path d="M234.18360804441141,-71.99331721279061 L137.62983493858883,202.68948797304904" stroke="#0d6d4d" stroke-width="0.1" fill="none" />
<path d="M239.16319703266745,-53.159807986047895 L103.78669087008933,221.9308964480532" stroke="#0d6d4d" stroke-width="0.1" fill="none" />
<path d="M242.63071928576295,-33.99020533732174 L67.32300383400124,235.568701560218" stroke="#0d6d4d" stroke-width="0.1" fill="none" />
<path d="M244.5642520115736,-14.605705666605882 L29.15945699146669,243.25855805698347" stroke="#0d6d4d" stroke-width="0.1" fill="none" />
<path d="M244.95157079366606,4.871135977942193 L-9.740346198746781,244.80630232068896" stroke="#0d6d4d" stroke-width="0.1" fill="none" />
<path d="M243.7902268779947,24.317180732475105 L-48.39421230859843,240.17285486713584" stroke="#0d6d4d" stroke-width="0.1" fill="none" />
<path d="M241.08756265471308,43.60948444099973 L-85.82615765313679,229.4752070758384" stroke="#0d6d4d" stroke-width="0.1" fill="none" />
<path d="M236.8606652372191,62.62607494791628 L-121.09105121109707,212.98346723769774" stroke="#0d6d4d" stroke-width="0.1" fill="none" />
<path d="M231.13625843192295,81.2467232452566 L-153.29847853683717,191.114040505377" stroke="#0d6d4d" stroke-width="0.1" fill="none" />
<path d="M223.95053378173847,99.3537035991835 L-181.63522411616145,164.419114947964" stroke="#0d6d4d" stroke-width="0.1" fill="none" />
<path d="M215.34892175149622,116.83253784998404 L-205.38580450191782,133.57271917985346" stroke="#0d6d4d" stroke-width="0.1" fill="none" />
<path d="M205.3858045019178,133.5727191798535 L-223.95053378173841,99.35370359918366" stroke="#0d6d4d" stroke-width="0.1" fill="none" />
<path d="M194.12417206808573,149.46841077257844 L-236.86066523721908,62.62607494791634" stroke="#0d6d4d" stroke-width="0.1" fill="none" />
<path d="M181.63522411616145,164.41911494796403 L-243.79022687799474,24.317180732475002" stroke="#0d6d4d" stroke-width="0.1" fill="none" />
<path d="M167.99791979617132,178.33030854052598 L-244.56425201157361,-14.605705666605662" stroke="#0d6d4d" stroke-width="0.1" fill="none" />
<path d="M153.29847853683722,191.11404050537695 L-239.16319703266748,-53.159807986047845" stroke="#0d6d4d" stroke-width="0.1" fill="none" />
<path d="M137.62983493858883,202.68948797304904 L-227.72343488585983,-90.37166150838196" stroke="#0d6d4d" stroke-width="0.1" fill="none" />
<path d="M121.09105121109712,212.9834672376977 L-210.53381174201698,-125.3016923803384" stroke="#0d6d4d" stroke-width="0.1" fill="none" />
<path d="M103.78669087008933,221.9308964480532 L-188.0283538300074,-157.067941210094" stroke="#0d6d4d" stroke-width="0.1" fill="none" />
<path d="M85.82615765313695,229.47520707583834 L-160.77530857124202,-184.86833193876637" stroke="#0d6d4d" stroke-width="0.1" fill="none" />
<path d="M67.32300383400124,235.568701560218 L-129.46279672089184,-208.00092371238412" stroke="#0d6d4d" stroke-width="0.1" fill="none" />
<path d="M48.39421230859838,240.17285486713587 L-94.881437789407,-225.88163440841066" stroke="#0d6d4d" stroke-width="0.1" fill="none" />
<path d="M29.15945699146669,243.25855805698347 L-57.904387440561734,-238.05898830990043" stroke="#0d6d4d" stroke-width="0.1" fill="none" />
<path d="M9.740346198746844,244.80630232068896 L-19.46529090807015,-244.22551555860048" stroke="#0d6d4d" stroke-width="0.1" fill="none" />
<path d="M-9.740346198746781,244.80630232068896 L19.465290908070024,-244.22551555860048" stroke="#0d6d4d" stroke-width="0.1" fill="none" />
<path d="M-29.15945699146652,243.2585580569835 L57.90438744056169,-238.05898830990046" stroke="#0d6d4d" stroke-width="0.1" fill="none" />
<path d="M-48.39421230859843,240.17285486713584 L94.88143778940706,-225.88163440841063" stroke="#0d6d4d" stroke-width="0.1" fill="none" />
<path d="M-67.32300383400118,235.568701560218 L129.46279672089176,-208.00092371238415" stroke="#0d6d4d" stroke-width="0.1" fill="none" />
<path d="M-85.82615765313679,229.4752070758384 L160.77530857124202,-184.86833193876637" stroke="#0d6d4d" stroke-width="0.1" fill="none" />
<path d="M-103.78669087008939,221.93089644805318 L188.02835383000743,-157.06794121009398" stroke="#0d6d4d" stroke-width="0.1" fill="none" />
<path d="M-121.09105121109707,212.98346723769774 L210.53381174201695,-125.30169238033842" stroke="#0d6d4d" stroke-width="0.1" fill="none" />
<path d="M-137.62983493858889,202.689487973049 L227.72343488585983,-90.37166150838196" stroke="#0d6d4d" stroke-width="0.1" fill="none" />
<path d="M-153.29847853683717,191.114040505377 L239.16319703266745,-53.159807986047895" stroke="#0d6d4d" stroke-width="0.1" fill="none" />
<path d="M-167.99791979617117,178.3303085405261 L244.5642520115736,-14.605705666605882" stroke="#0d6d4d" stroke-width="0.1" fill="none" />
<path d="M-181.63522411616145,164.419114947964 L243.7902268779947,24.317180732475105" stroke="#0d6d4d" stroke-width="0.1" fill="none" />
<path d="M-194.1241720680856,149.4684107725786 L236.8606652372191,62.62607494791628" stroke="#0d6d4d" stroke-width="0.1" fill="none" />
<path d="M-205.38580450191782,133.57271917985346 L223.95053378173847,99.3537035991835" stroke="#0d6d4d" stroke-width="0.1" fill="none" />
<path d="M-215.34892175149625,116.83253784998399 L205.3858045019178,133.5727191798535" stroke="#0d6d4d" stroke-width="0.1" fill="none" />
<path d="M-223.95053378173841,99.35370359918366 L181.63522411616145,164.41911494796403" stroke="#0d6d4d" stroke-width="0.1" fill="none" />
<path d="M-231.136258431923,81.2467232452565 L153.29847853683722,191.11404050537695" stroke="#0d6d4d" stroke-width="0.1" fill="none" />
<path d="M-236.86066523721908,62.62607494791634 L121.09105121109712,212.9834672376977" stroke="#0d6d4d" stroke-width="0.1" fill="none" />
<path d="M-241.08756265471303,43.609484441000006 L85.82615765313695,229.47520707583834" stroke="#0d6d4d" stroke-width="0.1" fill="none" />
<path d="M-243.79022687799474,24.317180732475002 L48.39421230859838,240.17285486713587" stroke="#0d6d4d" stroke-width="0.1" fill="none" />
<path d="M-244.95157079366606,4.871135977942253 L9.740346198746844,244.80630232068896" stroke="#0d6d4d" stroke-width="0.1" fill="none" />
<path d="M-244.56425201157361,-14.605705666605662 L-29.15945699146652,243.2585580569835" stroke="#0d6d4d" stroke-width="0.1" fill="none" />
<path d="M-242.63071928576295,-33.99020533732178 L-67.32300383400118,235.568701560218" stroke="#0d6d4d" stroke-width="0.1" fill="none" />
<path d="M-239.16319703266748,-53.159807986047845 L-103.78669087008939,221.93089644805318" stroke="#0d6d4d" stroke-width="0.1" fill="none" />
<path d="M-234.18360804441141,-71.99331721279061 L-137.62983493858889,202.689487973049" stroke="#0d6d4d" stroke-width="0.1" fill="none" />
<path d="M-227.72343488585983,-90.37166150838196 L-167.99791979617117,178.3303085405261" stroke="#0d6d4d" stroke-width="0.1" fill="none" />
<path d="M-219.82352085170706,-108.17864706289832 L-194.1241720680856,149.4684107725786" stroke="#0d6d4d" stroke-width="0.1" fill="none" />
<path d="M-210.53381174201698,-125.3016923803384 L-215.34892175149625,116.83253784998399" stroke="#0d6d4d" stroke-width="0.1" fill="none" />
<path d="M-199.91304008879442,-141.63254005508787 L-231.136258431923,81.2467232452565" stroke="#0d6d4d" stroke-width="0.1" fill="none" />
<path d="M-188.0283538300074,-157.067941210094 L-241.08756265471303,43.609484441000006" stroke="#0d6d4d" stroke-width="0.1" fill="none" />
<path d="M-174.95489177870374,-171.51030826950915 L-244.95157079366606,4.871135977942253" stroke="#0d6d4d" stroke-width="0.1" fill="none" />
<path d="M-160.77530857124202,-184.86833193876637 L-242.63071928576295,-33.99020533732178" stroke="#0d6d4d" stroke-width="0.1" fill="none" />
<path d="M-145.57925209806902,-197.05755849133743 L-234.18360804441141,-71.99331721279061" stroke="#0d6d4d" stroke-width="0.1" fill="none" />
<path d="M-129.46279672089184,-208.00092371238412 L-219.82352085170706,-108.17864706289832" stroke="#0d6d4d" stroke-width="0.1" fill="none" />
<path d="M-112.5278358596296,-217.6292401235373 L-199.91304008879442,-141.63254005508787" stroke="#0d6d4d" stroke-width="0.1" fill="none" />
<path d="M-94.881437789407,-225.88163440841066 L-174.95489177870374,-171.51030826950915" stroke="#0d6d4d" stroke-width="0.1" fill="none" />
<path d="M-76.63516872044573,-232.70593227330673 L-145.57925209806902,-197.05755849133743" stroke="#0d6d4d" stroke-width="0.1" fill="none" />
<path d="M-57.904387440561734,-238.05898830990043 L-112.5278358596296,-217.6292401235373" stroke="#0d6d4d" stroke-width="0.1" fill="none" />
<path d="M-38.80751597976764,-241.9069587744017 L-76.63516872044573,-232.70593227330673" stroke="#0d6d4d" stroke-width="0.1" fill="none" />
<path d="M-19.46529090807015,-244.22551555860048 L-38.80751597976764,-241.9069587744017" stroke="#0d6d4d" stroke-width="0.1" fill="none" />
</svg>