<?xml version="1.0" encoding="UTF-8"?>
<svg xmlns="http://www.w3.org/2000/svg" xmlns:xlink="http://www.w3.org/1999/xlink"
     width="500.0" height="500" viewBox="-250.0 -250.0 500 500">
<defs>
</defs>
<circle cx="0" cy="0" r="245.0" fill="white" stroke-width="2" stroke="black" />
<path d="M0.0,-245.0 L0.0,-245.0" stroke="#0d6d4d" stroke-width="0.1" fill="none" />
<path d="M2.2277267547463753,-244.98987169576253 L46.49912351636799,-240.54694242955895" stroke="#0d6d4d" stroke-width="0.1" fill="none" />
<path d="M4.4552693209676075,-244.95948762045867 L91.30793459197325,-227.349644997629" stroke="#0d6d4d" stroke-width="0.1" fill="none" />
<path d="M6.682443525367268,-244.9088502862448 L132.7975661624673,-205.88784913472946" stroke="#0d6d4d" stroke-width="0.1" fill="none" />
<path d="M8.909065225105094,-244.83796387981752 L169.45980828532117,-176.9417231065138" stroke="#0d6d4d" stroke-width="0.1" fill="none" />
<path d="M11.13495032302193,-244.7468342620673 L199.96193381902867,-141.5635017345728" stroke="#0d6d4d" stroke-width="0.1" fill="none" />
<path d="M13.359914782860884,-244.63546896759408 L223.19514504095775,-101.03923609244995" stroke="#0d6d4d" stroke-width="0.1" fill="none" />
<path d="M15.583774644483452,-244.50387720408432 L238.31488009708826,-56.84204363242452" stroke="#0d6d4d" stroke-width="0.1" fill="none" />
<path d="M17.806346039079344,-244.35206985154957 L244.77151408411598,-10.578558170630098" stroke="#0d6d4d" stroke-width="0.1" fill="none" />
<path d="M20.02744520436877,-244.18005946142696 L242.33033873383283,36.06947364664255" stroke="#0d6d4d" stroke-width="0.1" fill="none" />
<path d="M22.246888499795926,-243.9878602555415 L231.08009440847835,81.40632633996412" stroke="#0d6d4d" stroke-width="0.1" fill="none" />
<path d="M24.46449242171236,-243.7754881249302 L211.4297442563165,123.78393774520424" stroke="#0d6d4d" stroke-width="0.1" fill="none" />
<path d="M26.680073618549105,-243.54296062852814 L184.09360779168932,161.6618185294217" stroke="#0d6d4d" stroke-width="0.1" fill="none" />
<path d="M28.89344890597616,-243.29029699171676 L150.06539431606956,193.66305127401705" stroke="#0d6d4d" stroke-width="0.1" fill="none" />
<path d="M31.104435282048204,-243.01751810473434 L110.5820801039568,218.62434347501673" stroke="#0d6d4d" stroke-width="0.1" fill="none" />
<path d="M33.31284994233516,-242.72464652094862 L67.07894247174585,235.6383149593296" stroke="#0d6d4d" stroke-width="0.1" fill="none" />
<path d="M35.51851029503656,-242.41170645499236 L21.137385308179798,244.08648250637222" stroke="#0d6d4d" stroke-width="0.1" fill="none" />
<path d="M37.72123397607812,-242.07872378076098 L-25.57254731388344,243.66174263490603" stroke="#0d6d4d" stroke-width="0.1" fill="none" />
<path d="M39.92083886418969,-241.72572602927352 L-71.35287972850567,234.37953527227884" stroke="#0d6d4d" stroke-width="0.1" fill="none" />
<path d="M42.11714309596305,-241.3527423863963 L-114.53942862273755,216.57728249005436" stroke="#0d6d4d" stroke-width="0.1" fill="none" />
<path d="M44.30996508088835,-240.9598036904298 L-153.56229858029636,190.90212270882665" stroke="#0d6d4d" stroke-width="0.1" fill="none" />
<path d="M46.49912351636799,-240.54694242955895 L-187.00295011967287,158.28738625215576" stroke="#0d6d4d" stroke-width="0.1" fill="none" />
<path d="M48.68443740270682,-240.11419273916715 L-213.6457657184354,119.91866739829713" stroke="#0d6d4d" stroke-width="0.1" fill="none" />
<path d="M50.86572605807714,-239.66159039901376 L-232.5222393218906,77.19072626121248" stroke="#0d6d4d" stroke-width="0.1" fill="none" />
<path d="M53.04280913345744,-239.18917283027594 L-242.94618298160495,31.65678718171694" stroke="#0d6d4d" stroke-width="0.1" fill="none" />
<path d="M55.21550662754375,-238.6969790924545 L-244.53867081000513,-15.027923292189701" stroke="#0d6d4d" stroke-width="0.1" fill="none" />
<path d="M57.38363890163211,-238.18504988014485 L-237.24181350113116,-61.166346357245395" stroke="#0d6d4d" stroke-width="0.1" fill="none" />
<path d="M59.54702669447109,-237.6534275196719 L-221.3208626931848,-105.08128157166925" stroke="#0d6d4d" stroke-width="0.1" fill="none" />
<path d="M61.70549113708315,-237.1021559655908 L-197.35456867615724,-145.17635559087412" stroke="#0d6d4d" stroke-width="0.1" fill="none" />
<path d="M63.85885376755349,-236.53128079705277 L-166.21414195623615,-179.9940527177278" stroke="#0d6d4d" stroke-width="0.1" fill="none" />
<path d="M66.00693654578536,-235.9408492140364 L-129.03158345547752,-208.2686977703854" stroke="#0d6d4d" stroke-width="0.1" fill="none" />
<path d="M68.14956186822035,-235.33091003344546 L-87.15853459118905,-228.97246526147308" stroke="#0d6d4d" stroke-width="0.1" fill="none" />
<path d="M70.28655258252266,-234.7015136850725 L-42.11714309596308,-241.3527423863963" stroke="#0d6d4d" stroke-width="0.1" fill="none" />
<path d="M72.41773200222613,-234.05271220742935 L4.4552693209676075,-244.95948762045867" stroke="#0d6d4d" stroke-width="0.1" fill="none" />
<path d="M74.54292392134262,-233.38455924344464 L50.86572605807714,-239.66159039901376" stroke="#0d6d4d" stroke-width="0.1" fill="none" />
<path d="M76.66195262893072,-232.69711003602856 L95.42713784417522,-225.65163718189325" stroke="#0d6d4d" stroke-width="0.1" fill="none" />
<path d="M78.77464292362362,-231.99042142350532 L136.5196309478037,-203.43891064856663" stroke="#0d6d4d" stroke-width="0.1" fill="none" />
<path d="M80.88082012811464,-231.26455183491387 L172.64943200158788,-173.8308765137226" stroke="#0d6d4d" stroke-width="0.1" fill="none" />
<path d="M82.98031010359966,-230.5195612851769 L202.5031688904168,-137.90383094511674" stroke="#0d6d4d" stroke-width="0.1" fill="none" />
<path d="M85.07293926417492,-229.75551137013883 L224.9956137852394,-96.96377559379265" stroke="#0d6d4d" stroke-width="0.1" fill="none" />
<path d="M87.15853459118901,-228.9724652614731 L239.30913279204256,-52.49894248764019" stroke="#0d6d4d" stroke-width="0.1" fill="none" />
<path d="M89.23692364754812,-228.17048770145905 L244.923408162476,-6.1256945791633175" stroke="#0d6d4d" stroke-width="0.1" fill="none" />
<path d="M91.30793459197325,-227.349644997629 L241.6343526194716,40.470231456823385" stroke="#0d6d4d" stroke-width="0.1" fill="none" />
<path d="M93.3713961932078,-226.5100050172862 L229.56152823393043,85.5950042636973" stroke="#0d6d4d" stroke-width="0.1" fill="none" />
<path d="M95.42713784417522,-225.65163718189325 L209.14380016525362,127.60827109727825" stroke="#0d6d4d" stroke-width="0.1" fill="none" />
<path d="M97.47498957608474,-224.7746124613324 L181.12338325872625,164.9827870928133" stroke="#0d6d4d" stroke-width="0.1" fill="none" />
<path d="M99.51478207248428,-223.87900336803798 L146.51886142971588,196.35993289197194" stroke="#0d6d4d" stroke-width="0.1" fill="none" />
<path d="M101.5463466832597,-222.96488395100076 L106.58816062028106,220.59910248136816" stroke="#0d6d4d" stroke-width="0.1" fill="none" />
<path d="M103.56951543857869,-222.03232978964576 L62.7828213164011,236.81916592107333" stroke="#0d6d4d" stroke-width="0.1" fill="none" />
<path d="M105.58412106277858,-221.0814179875833 L16.69523288797708,244.43049973114282" stroke="#0d6d4d" stroke-width="0.1" fill="none" />
<path d="M107.5899969881967,-220.11222716623405 L-29.999252138014857,243.15642058386985" stroke="#0d6d4d" stroke-width="0.1" fill="none" />
<path d="M109.58697736894212,-219.1248374583287 L-75.60321963877624,233.04324315510834" stroke="#0d6d4d" stroke-width="0.1" fill="none" />
<path d="M111.57489709460789,-218.1193305012824 L-118.45889742882592,214.45859651677966" stroke="#0d6d4d" stroke-width="0.1" fill="none" />
<path d="M113.55359180392232,-217.09578943044517 L-157.00841774963882,188.07806027220428" stroke="#0d6d4d" stroke-width="0.1" fill="none" />
<path d="M115.5228978983384,-216.05429887222815 L-189.85044808446779,154.86060623065762" stroke="#0d6d4d" stroke-width="0.1" fill="none" />
<path d="M117.48265255556014,-214.99494493710668 L-215.7911316838345,116.01373835287785" stroke="#0d6d4d" stroke-width="0.1" fill="none" />
<path d="M119.43269374300466,-213.91781521250084 L-233.88748603766027,72.94959818246622" stroke="#0d6d4d" stroke-width="0.1" fill="none" />
<path d="M121.37286023119913,-212.82299875553346 L-243.4816816949031,27.23363139615977" stroke="#0d6d4d" stroke-width="0.1" fill="none" />
<path d="M123.30299160711124,-211.71058608566707 L-244.22495534451153,-19.472318479609683" stroke="#0d6d4d" stroke-width="0.1" fill="none" />
<path d="M125.22292828741202,-210.58066917721976 L-236.09028788156894,-65.4704205576678" stroke="#0d6d4d" stroke-width="0.1" fill="none" />
<path d="M127.13251153167032,-209.43334145176055 L-219.37338659202538,-109.08857527324199" stroke="#0d6d4d" stroke-width="0.1" fill="none" />
<path d="M129.0315834554775,-208.26869777038544 L-194.68193575213968,-148.74119769519055" stroke="#0d6d4d" stroke-width="0.1" fill="none" />
<path d="M130.91998704350112,-207.08683442587437 L-162.9135063993627,-182.98685590135926" stroke="#0d6d4d" stroke-width="0.1" fill="none" />
<path d="M132.7975661624673,-205.88784913472946 L-125.22292828741202,-210.58066917721976" stroke="#0d6d4d" stroke-width="0.1" fill="none" />
<path d="M134.6641655740695,-204.67184102909613 L-82.98031010359966,-230.5195612851769" stroke="#0d6d4d" stroke-width="0.1" fill="none" />
<path d="M136.5196309478037,-203.43891064856663 L-37.72123397607831,-242.07872378076095" stroke="#0d6d4d" stroke-width="0.1" fill="none" />
<path d="M138.36380887372883,-202.18915993186738 L8.909065225105094,-244.83796387981752" stroke="#0d6d4d" stroke-width="0.1" fill="none" />
<path d="M140.19654687515,-200.92269220843093 L55.21550662754375,-238.6969790924545" stroke="#0d6d4d" stroke-width="0.1" fill="none" />
<path d="M142.01769342122589,-199.63961218985247 L99.51478207248428,-223.87900336803798" stroke="#0d6d4d" stroke-width="0.1" fill="none" />
<path d="M143.82709793949712,-198.3400259612323 L140.19654687515,-200.92269220843093" stroke="#0d6d4d" stroke-width="0.1" fill="none" />
<path d="M145.6246108283355,-197.02404097240475 L175.7819582540436,-170.66254173770434" stroke="#0d6d4d" stroke-width="0.1" fill="none" />
<path d="M147.4100834693132,-195.69176602905426 L204.9774334700791,-134.19855352431819" stroke="#0d6d4d" stroke-width="0.1" fill="none" />
<path d="M149.18336823949056,-194.34331128371915 L226.72167348706557,-92.85624788469772" stroke="#0d6d4d" stroke-width="0.1" fill="none" />
<path d="M150.94431852362132,-192.9787882266845 L240.22424277340193,-48.138479244214366" stroke="#0d6d4d" stroke-width="0.1" fill="none" />
<path d="M152.6927887262752,-191.5983096767638 L244.99430281169285,-1.6708051390129017" stroke="#0d6d4d" stroke-width="0.1" fill="none" />
<path d="M154.42863428387528,-190.20198977197137 L240.85845481038757,44.85760522311107" stroke="#0d6d4d" stroke-width="0.1" fill="none" />
<path d="M156.15171167665085,-188.7899439600852 L227.96704300828128,89.75537478090342" stroke="#0d6d4d" stroke-width="0.1" fill="none" />
<path d="M157.86187844050343,-187.36228898910184 L206.78868943736612,131.39040269660697" stroke="#0d6d4d" stroke-width="0.1" fill="none" />
<path d="M159.55899317878593,-185.91914289758373 L178.09325881354775,168.24919365384994" stroke="#0d6d4d" stroke-width="0.1" fill="none" />
<path d="M161.24291557399295,-184.46062500489958 L142.92387280683812,198.9918756680653" stroke="#0d6d4d" stroke-width="0.1" fill="none" />
<path d="M162.91350639936266,-182.98685590135926 L102.55899101401216,222.5009064300363" stroke="#0d6d4d" stroke-width="0.1" fill="none" />
<path d="M164.57062753038787,-181.49795743824322 L58.46593704688629,237.9216976343888" stroke="#0d6d4d" stroke-width="0.1" fill="none" />
<path d="M166.21414195623606,-179.9940527177279 L12.247559132172112,244.69368053814537" stroke="#0d6d4d" stroke-width="0.1" fill="none" />
<path d="M167.84391379107777,-178.47526608270755 L-34.416035810402725,242.57068346998793" stroke="#0d6d4d" stroke-width="0.1" fill="none" />
<path d="M169.45980828532117,-176.9417231065138 L-79.82855655860973,231.62988053739707" stroke="#0d6d4d" stroke-width="0.1" fill="none" />
<path d="M171.0616918367537,-175.39355058253287 L-122.33919030174964,212.26898623282747" stroke="#0d6d4d" stroke-width="0.1" fill="none" />
<path d="M172.64943200158788,-173.8308765137226 L-160.40261214664608,185.19179791916443" stroke="#0d6d4d" stroke-width="0.1" fill="none" />
<path d="M174.22289750541194,-172.25383010202916 L-192.63515998061885,151.38261174666454" stroke="#0d6d4d" stroke-width="0.1" fill="none" />
<path d="M175.7819582540436,-170.66254173770434 L-217.86513265145038,112.07044202092686" stroke="#0d6d4d" stroke-width="0.1" fill="none" />
<path d="M177.32648534428625,-169.05714298852513 L-235.17538305053753,68.68434470119765" stroke="#0d6d4d" stroke-width="0.1" fill="none" />
<path d="M178.85635107458663,-167.43776658891568 L-243.93665777717925,22.801469086428046" stroke="#0d6d4d" stroke-width="0.1" fill="none" />
<path d="M180.37142895559325,-165.80454642897274 L-243.83047143751276,-23.91027391228031" stroke="#0d6d4d" stroke-width="0.1" fill="none" />
<path d="M181.87159372061444,-164.15761754339562 L-234.860684063242,-69.7528428190997" stroke="#0d6d4d" stroke-width="0.1" fill="none" />
<path d="M183.35672133597566,-162.49711610032153 L-217.3533607937322,-113.05979193183438" stroke="#0d6d4d" stroke-width="0.1" fill="none" />
<path d="M184.82668901127423,-160.8231793900672 L-191.944918922236,-152.25684910681767" stroke="#0d6d4d" stroke-width="0.1" fill="none" />
<path d="M186.2813752095318,-159.13594581377782 L-159.55899317878604,-185.91914289758358" stroke="#0d6d4d" stroke-width="0.1" fill="none" />
<path d="M187.72065965724335,-157.43555487198378 L-121.3728602311991,-212.82299875553346" stroke="#0d6d4d" stroke-width="0.1" fill="none" />
<path d="M189.14442335432088,-155.72214715306697 L-78.77464292362376,-231.99042142350527" stroke="#0d6d4d" stroke-width="0.1" fill="none" />
<path d="M190.5525485839326,-153.99586432163687 L-33.31284994233509,-242.72464652094862" stroke="#0d6d4d" stroke-width="0.1" fill="none" />
<path d="M191.944918922236,-152.25684910681767 L13.359914782860884,-244.63546896759408" stroke="#0d6d4d" stroke-width="0.1" fill="none" />
<path d="M193.32141924800317,-150.50524529044756 L59.54702669447109,-237.6534275196719" stroke="#0d6d4d" stroke-width="0.1" fill="none" />
<path d="M194.68193575213962,-148.7411976951906 L103.56951543857869,-222.03232978964576" stroke="#0d6d4d" stroke-width="0.1" fill="none" />
<path d="M196.02635594709375,-146.964852172563 L143.82709793949712,-198.3400259612323" stroke="#0d6d4d" stroke-width="0.1" fill="none" />
<path d="M197.3545686761573,-145.17635559087407 L178.85635107458663,-167.43776658891568" stroke="#0d6d4d" stroke-width="0.1" fill="none" />
<path d="M198.66646412265592,-143.37585582308296 L207.38390928580554,-130.44889485670922" stroke="#0d6d4d" stroke-width="0.1" fill="none" />
<path d="M199.96193381902867,-141.5635017345728 L228.37275331553212,-88.71801137921831" stroke="#0d6d4d" stroke-width="0.1" fill="none" />
<path d="M201.24087065579627,-139.73944317084238 L241.05990740212243,-43.76209596534616" stroke="#0d6d4d" stroke-width="0.1" fill="none" />
<path d="M202.5031688904168,-137.90383094511674 L244.984174585963,2.784636858622613" stroke="#0d6d4d" stroke-width="0.1" fill="none" />
<path d="M203.74872415602857,-136.05681682587823 L240.0029019063075,49.2301439826387" stroke="#0d6d4d" stroke-width="0.1" fill="none" />
<path d="M204.9774334700791,-134.19855352431819 L226.29716604900548,93.88606200170955" stroke="#0d6d4d" stroke-width="0.1" fill="none" />
<path d="M206.1891952428399,-132.32919468171053 L204.3651909391004,135.12908174195903" stroke="#0d6d4d" stroke-width="0.1" fill="none" />
<path d="M207.38390928580554,-130.44889485670922 L175.00423655861576,171.4599579684308" stroke="#0d6d4d" stroke-width="0.1" fill="none" />
<path d="M208.56147681997777,-128.55780951256864 L139.28161735799563,201.55800918381013" stroke="#0d6d4d" stroke-width="0.1" fill="none" />
<path d="M209.72180048403197,-126.65609500429058 L98.49590378513636,224.32912636915688" stroke="#0d6d4d" stroke-width="0.1" fill="none" />
<path d="M210.86478434236759,-124.74390856569634 L54.12971731425407,238.9455454773722" stroke="#0d6d4d" stroke-width="0.1" fill="none" />
<path d="M211.99033389303963,-122.82140829642678 L7.795834945640474,244.8759378899861" stroke="#0d6d4d" stroke-width="0.1" fill="none" />
<path d="M213.09835607557233,-120.88875314887066 L-38.82143764193318,241.90472500431548" stroke="#0d6d4d" stroke-width="0.1" fill="none" />
<path d="M214.18875927865327,-118.94610291502252 L-84.02749311287955,230.13991483696387" stroke="#0d6d4d" stroke-width="0.1" fill="none" />
<path d="M215.26145334770794,-116.99361821327076 L-126.17902397703826,210.00917577144574" stroke="#0d6d4d" stroke-width="0.1" fill="none" />
<path d="M216.31634959235356,-115.0314604751182 L-163.74375926608033,182.24429017506128" stroke="#0d6d4d" stroke-width="0.1" fill="none" />
<path d="M217.35336079373218,-113.05979193183443 L-195.3561648668586,147.85455301921806" stroke="#0d6d4d" stroke-width="0.1" fill="none" />
<path d="M218.37240121172178,-111.07877560104278 L-219.86708272157412,108.09008250299594" stroke="#0d6d4d" stroke-width="0.1" fill="none" />
<path d="M219.37338659202535,-109.08857527324204 L-236.38550443584813,64.39637639347129" stroke="#0d6d4d" stroke-width="0.1" fill="none" />
<path d="M220.356234173137,-107.08935549826421 L-244.31096076179085,18.36176602755546" stroke="#0d6d4d" stroke-width="0.1" fill="none" />
<path d="M221.32086269318475,-105.0812815716694 L-243.35534955008447,-28.340321899304637" stroke="#0d6d4d" stroke-width="0.1" fill="none" />
<path d="M222.2671923966492,-103.06451952107926 L-233.55340869248965,-74.01219688753262" stroke="#0d6d4d" stroke-width="0.1" fill="none" />
<path d="M223.19514504095775,-101.03923609244995 L-215.261453347708,-116.99361821327061" stroke="#0d6d4d" stroke-width="0.1" fill="none" />
<path d="M224.1046439029536,-99.00559873628546 L-189.14442335432085,-155.72214715306697" stroke="#0d6d4d" stroke-width="0.1" fill="none" />
<path d="M224.9956137852394,-96.96377559379265 L-156.15171167665096,-188.78994396008508" stroke="#0d6d4d" stroke-width="0.1" fill="none" />
<path d="M225.8679810223945,-94.91393548297967 L-117.48265255556024,-214.99494493710662" stroke="#0d6d4d" stroke-width="0.1" fill="none" />
<path d="M226.72167348706557,-92.85624788469772 L-74.54292392134249,-233.3845592434447" stroke="#0d6d4d" stroke-width="0.1" fill="none" />
<path d="M227.55662059593004,-90.79088292862859 L-28.893448905976243,-243.29029699171673" stroke="#0d6d4d" stroke-width="0.1" fill="none" />
<path d="M228.37275331553212,-88.71801137921831 L17.806346039079344,-244.35206985154957" stroke="#0d6d4d" stroke-width="0.1" fill="none" />
<path d="M229.1700041679903,-86.63780462155835 L63.85885376755349,-236.53128079705277" stroke="#0d6d4d" stroke-width="0.1" fill="none" />
<path d="M229.94830723657648,-84.55043464721528 L107.5899969881967,-220.11222716623405" stroke="#0d6d4d" stroke-width="0.1" fill="none" />
<path d="M230.7075981711661,-82.4560740400109 L147.4100834693132,-195.69176602905426" stroke="#0d6d4d" stroke-width="0.1" fill="none" />
<path d="M231.44781419355837,-80.35489596175256 L181.87159372061444,-164.15761754339562" stroke="#0d6d4d" stroke-width="0.1" fill="none" />
<path d="M232.168894102667,-78.24707413791656 L209.72180048403197,-126.65609500429058" stroke="#0d6d4d" stroke-width="0.1" fill="none" />
<path d="M232.8707782795801,-76.13278284328408 L229.94830723657648,-84.55043464721528" stroke="#0d6d4d" stroke-width="0.1" fill="none" />
<path d="M233.55340869248965,-74.01219688753262 L241.81585031279496,-39.37123997920238" stroke="#0d6d4d" stroke-width="0.1" fill="none" />
<path d="M234.21672890148957,-71.88549160078225 L244.89302683482543,7.239157939806743" stroke="#0d6d4d" stroke-width="0.1" fill="none" />
<path d="M234.86068406324196,-69.75284281909975 L239.06797684995763,53.58640167867327" stroke="#0d6d4d" stroke-width="0.1" fill="none" />
<path d="M235.48522093551182,-67.61442686996006 L224.5524496066268,97.98569985290375" stroke="#0d6d4d" stroke-width="0.1" fill="none" />
<path d="M236.09028788156894,-65.47042055766791 L201.87410615364797,138.82307180244092" stroke="#0d6d4d" stroke-width="0.1" fill="none" />
<path d="M236.67583487445725,-63.32100114873928 L171.8573380746813,174.61401819408627" stroke="#0d6d4d" stroke-width="0.1" fill="none" />
<path d="M237.24181350113116,-61.166346357245345 L135.5932996255162,204.05748478471696" stroke="#0d6d4d" stroke-width="0.1" fill="none" />
<path d="M237.78817696645822,-59.00663433011876 L94.40024265064915,226.08315768207626" stroke="#0d6d4d" stroke-width="0.1" fill="none" />
<path d="M238.31488009708826,-56.84204363242452 L49.775596164051954,239.89037084992225" stroke="#0d6d4d" stroke-width="0.1" fill="none" />
<path d="M238.82187934518814,-54.6727532325966 L3.3415325727890566,244.97721151173428" stroke="#0d6d4d" stroke-width="0.1" fill="none" />
<path d="M239.30913279204256,-52.49894248764019 L-43.21400070761779,241.15876542817597" stroke="#0d6d4d" stroke-width="0.1" fill="none" />
<path d="M239.7766001515196,-50.32079112830284 L-88.19864065741146,228.57383880528587" stroke="#0d6d4d" stroke-width="0.1" fill="none" />
<path d="M240.22424277340193,-48.138479244214366 L-129.9771285706168,207.67991248201486" stroke="#0d6d4d" stroke-width="0.1" fill="none" />
<path d="M240.65202364658197,-45.9521872689968 L-167.03075414614378,179.23651181991482" stroke="#0d6d4d" stroke-width="0.1" fill="none" />
<path d="M241.05990740212243,-43.76209596534616 L-198.01256287067525,144.27759682427094" stroke="#0d6d4d" stroke-width="0.1" fill="none" />
<path d="M241.4478603161802,-41.56838641008742 L-221.7963198226868,104.07397615692614" stroke="#0d6d4d" stroke-width="0.1" fill="none" />
<path d="M241.81585031279496,-39.37123997920238 L-237.5174499903524,60.08711134744665" stroke="#0d6d4d" stroke-width="0.1" fill="none" />
<path d="M242.16384696654106,-37.17083833283389 L-244.60446686176175,13.915990488402405" stroke="#0d6d4d" stroke-width="0.1" fill="none" />
<path d="M242.49182150504316,-34.967363400266294 L-242.79974681135508,-32.76099736488297" stroke="#0d6d4d" stroke-width="0.1" fill="none" />
<path d="M242.79974681135505,-32.76099736488314 L-232.16889410266702,-78.2470741379164" stroke="#0d6d4d" stroke-width="0.1" fill="none" />
<path d="M243.08759742620174,-30.55192264910465 L-213.09835607557238,-120.88875314887053" stroke="#0d6d4d" stroke-width="0.1" fill="none" />
<path d="M243.35534955008447,-28.34032189930464 L-186.28137520953192,-159.1359458137777" stroke="#0d6d4d" stroke-width="0.1" fill="none" />
<path d="M243.60298104524833,-26.126377970709715 L-152.69278872627527,-191.59830967676373" stroke="#0d6d4d" stroke-width="0.1" fill="none" />
<path d="M243.83047143751276,-23.910273912280367 L-113.55359180392237,-217.09578943044514" stroke="#0d6d4d" stroke-width="0.1" fill="none" />
<path d="M244.03780191796423,-21.69219295157691 L-70.2865525825227,-234.70151368507248" stroke="#0d6d4d" stroke-width="0.1" fill="none" />
<path d="M244.22495534451153,-19.472318479609847 L-24.464492421712393,-243.77548812493018" stroke="#0d6d4d" stroke-width="0.1" fill="none" />
<path d="M244.39191624330277,-17.250834035677258 L22.246888499795926,-243.9878602555415" stroke="#0d6d4d" stroke-width="0.1" fill="none" />
<path d="M244.53867081000513,-15.02792329218987 L68.14956186822035,-235.33091003344546" stroke="#0d6d4d" stroke-width="0.1" fill="none" />
<path d="M244.66520691094595,-12.80377003948484 L111.57489709460789,-218.1193305012824" stroke="#0d6d4d" stroke-width="0.1" fill="none" />
<path d="M244.77151408411598,-10.578558170630098 L150.94431852362132,-192.9787882266845" stroke="#0d6d4d" stroke-width="0.1" fill="none" />
<path d="M244.85758354003454,-8.352471666219824 L184.82668901127423,-160.8231793900672" stroke="#0d6d4d" stroke-width="0.1" fill="none" />
<path d="M244.923408162476,-6.1256945791633175 L211.99033389303963,-122.82140829642678" stroke="#0d6d4d" stroke-width="0.1" fill="none" />
<path d="M244.9689825090583,-3.8984110194671078 L231.44781419355837,-80.35489596175256" stroke="#0d6d4d" stroke-width="0.1" fill="none" />
<path d="M244.99430281169285,-1.6708051390129017 L242.49182150504316,-34.967363400266294" stroke="#0d6d4d" stroke-width="0.1" fill="none" />
<path d="M244.9993669768962,0.5569388836679392 L244.72088970205394,11.691284935162216" stroke="#0d6d4d" stroke-width="0.1" fill="none" />
<path d="M244.984174585963,2.784636858622613 L238.05398883349085,57.92493763884618" stroke="#0d6d4d" stroke-width="0.1" fill="none" />
<path d="M244.94872689500065,5.012104599705545 L222.7334706820815,102.05293252971391" stroke="#0d6d4d" stroke-width="0.1" fill="none" />
<path d="M244.89302683482543,7.239157939806743 L199.31625891588484,142.4711512264008" stroke="#0d6d4d" stroke-width="0.1" fill="none" />
<path d="M244.8170790107203,9.465612746079172 L168.65360408293418,177.71033124114334" stroke="#0d6d4d" stroke-width="0.1" fill="none" />
<path d="M244.72088970205394,11.691284935162216 L131.86013938513713,206.4894758609557" stroke="#0d6d4d" stroke-width="0.1" fill="none" />
<path d="M244.60446686176175,13.915990488402455 L90.27336210016963,227.76242028730653" stroke="#0d6d4d" stroke-width="0.1" fill="none" />
<path d="M244.46782011568814,16.139545467067684 L45.405013562064674,240.75586128571973" stroke="#0d6d4d" stroke-width="0.1" fill="none" />
<path d="M244.31096076179085,18.3617660275554 L-1.1138748893344028,244.997467910856" stroke="#0d6d4d" stroke-width="0.1" fill="none" />
<path d="M244.13390176920666,20.582468436592855 L-47.59227232841952,240.33305144032428" stroke="#0d6d4d" stroke-width="0.1" fill="none" />
<path d="M243.93665777717925,22.801469086427936 L-92.34061973822637,226.93217036453927" stroke="#0d6d4d" stroke-width="0.1" fill="none" />
<path d="M243.71924509384866,25.018584510010264 L-133.7322479987719,205.28196668288953" stroke="#0d6d4d" stroke-width="0.1" fill="none" />
<path d="M243.48168169490307,27.23363139615982 L-170.26250973390486,176.1694575660377" stroke="#0d6d4d" stroke-width="0.1" fill="none" />
<path d="M243.22398722209252,29.446426604723488 L-200.6034754859126,140.6529261088189" stroke="#0d6d4d" stroke-width="0.1" fill="none" />
<path d="M242.94618298160495,31.656787181716986 L-223.65220593041556,100.02345116250984" stroke="#0d6d4d" stroke-width="0.1" fill="none" />
<path d="M242.64829194230458,33.864530374451185 L-238.5708453645979,55.75797469439793" stroke="#0d6d4d" stroke-width="0.1" fill="none" />
<path d="M242.33033873383283,36.06947364664255 L-244.8170790107203,9.465612746079286" stroke="#0d6d4d" stroke-width="0.1" fill="none" />
<path d="M241.992349644572,38.2714346935051 L-242.16384696654106,-37.17083833283399" stroke="#0d6d4d" stroke-width="0.1" fill="none" />
<path d="M241.6343526194716,40.470231456823385 L-230.70759817116613,-82.45607404001079" stroke="#0d6d4d" stroke-width="0.1" fill="none" />
<path d="M241.25637725773817,42.665682140004826 L-210.86478434236764,-124.74390856569624" stroke="#0d6d4d" stroke-width="0.1" fill="none" />
<path d="M240.85845481038757,44.85760522311107 L-183.3567213359757,-162.49711610032145" stroke="#0d6d4d" stroke-width="0.1" fill="none" />
<path d="M240.4406181776616,47.04581947786582 L-149.1833682394906,-194.34331128371912" stroke="#0d6d4d" stroke-width="0.1" fill="none" />
<path d="M240.0029019063075,49.2301439826387 L-109.58697736894212,-219.12483745832867" stroke="#0d6d4d" stroke-width="0.1" fill="none" />
<path d="M239.5453421867217,51.410398137404144 L-66.00693654578536,-235.9408492140364" stroke="#0d6d4d" stroke-width="0.1" fill="none" />
<path d="M239.06797684995763,53.58640167867327 L-20.027445204368966,-244.18005946142694" stroke="#0d6d4d" stroke-width="0.1" fill="none" />
<path d="M238.57084536459786,55.75797469439802 L26.680073618549105,-243.54296062852814" stroke="#0d6d4d" stroke-width="0.1" fill="none" />
<path d="M238.05398883349085,57.92493763884618 L72.41773200222613,-234.05271220742935" stroke="#0d6d4d" stroke-width="0.1" fill="none" />
<path d="M237.5174499903524,60.087111347446644 L115.5228978983384,-216.05429887222815" stroke="#0d6d4d" stroke-width="0.1" fill="none" />
<path d="M236.9612731962326,62.244317051602444 L154.42863428387528,-190.20198977197137" stroke="#0d6d4d" stroke-width="0.1" fill="none" />
<path d="M236.38550443584813,64.39637639347123 L187.72065965724335,-157.43555487198378" stroke="#0d6d4d" stroke-width="0.1" fill="none" />
<path d="M235.79019131377996,66.54311144071225 L214.18875927865327,-118.94610291502252" stroke="#0d6d4d" stroke-width="0.1" fill="none" />
<path d="M235.17538305053756,68.68434470119756 L232.8707782795801,-76.13278284328408" stroke="#0d6d4d" stroke-width="0.1" fill="none" />
<path d="M234.5411304784895,70.81989913768702 L243.08759742620174,-30.55192264910465" stroke="#0d6d4d" stroke-width="0.1" fill="none" />
<path d="M233.8874860376603,72.94959818246605 L244.46782011568814,16.139545467067684" stroke="#0d6d4d" stroke-width="0.1" fill="none" />
<path d="M233.21450377139502,75.07326575194386 L236.9612731962326,62.244317051602444" stroke="#0d6d4d" stroke-width="0.1" fill="none" />
<path d="M232.52223932189057,77.19072626121253 L220.84083083589687,106.08641494418964" stroke="#0d6d4d" stroke-width="0.1" fill="none" />
<path d="M231.81074992559576,79.30180463856364 L196.692495139918,146.07211354544486" stroke="#0d6d4d" stroke-width="0.1" fill="none" />
<path d="M231.08009440847835,81.40632633996412 L165.3940941008228,180.7478731176889" stroke="#0d6d4d" stroke-width="0.1" fill="none" />
<path d="M230.33033318116185,83.5041173634868 L128.08337124261,208.85317812072608" stroke="#0d6d4d" stroke-width="0.1" fill="none" />
<path d="M229.56152823393043,85.5950042636973 L86.11662694799298,229.36635883036598" stroke="#0d6d4d" stroke-width="0.1" fill="none" />
<path d="M228.77374313160374,87.67881416599448 L41.01941491809767,241.54173055556456" stroke="#0d6d4d" stroke-width="0.1" fill="none" />
<path d="M227.96704300828128,89.75537478090342 L-5.568913978214774,244.9367003882906" stroke="#0d6d4d" stroke-width="0.1" fill="none" />
<path d="M227.14149456195716,91.82451441832069 L-51.95480455167172,239.42785611536013" stroke="#0d6d4d" stroke-width="0.1" fill="none" />
<path d="M226.29716604900548,93.88606200170955 L-96.45206054774393,225.21545243631562" stroke="#0d6d4d" stroke-width="0.1" fill="none" />
<path d="M225.4341272785369,95.93984708224437 L-137.44314039355697,202.81613140664376" stroke="#0d6d4d" stroke-width="0.1" fill="none" />
<path d="M224.5524496066268,97.98569985290375 L-173.4379572448007,173.04414172907065" stroke="#0d6d4d" stroke-width="0.1" fill="none" />
<path d="M223.65220593041553,100.02345116250989 L-203.12804586330344,136.9817395996842" stroke="#0d6d4d" stroke-width="0.1" fill="none" />
<path d="M222.7334706820815,102.05293252971391 L-225.43412727853683,95.93984708224453" stroke="#0d6d4d" stroke-width="0.1" fill="none" />
<path d="M221.79631982268677,104.0739761569262 L-239.54534218672168,51.41039813740431" stroke="#0d6d4d" stroke-width="0.1" fill="none" />
<path d="M220.84083083589687,106.08641494418964 L-244.94872689500065,5.012104599705659" stroke="#0d6d4d" stroke-width="0.1" fill="none" />
<path d="M219.86708272157415,108.09008250299591 L-241.4478603161802,-41.56838641008736" stroke="#0d6d4d" stroke-width="0.1" fill="none" />
<path d="M218.8751559892465,110.08481317004181 L-229.1700041679903,-86.63780462155829" stroke="#0d6d4d" stroke-width="0.1" fill="none" />
<path d="M217.86513265145044,112.07044202092672 L-208.56147681997777,-128.5578095125686" stroke="#0d6d4d" stroke-width="0.1" fill="none" />
<path d="M216.83709621695044,114.04680488378874 L-180.37142895559325,-165.80454642897274" stroke="#0d6d4d" stroke-width="0.1" fill="none" />
<path d="M215.79113168383446,116.01373835287791 L-145.62461082833548,-197.02404097240478" stroke="#0d6d4d" stroke-width="0.1" fill="none" />
<path d="M214.72732553248636,117.97107980206684 L-105.58412106277875,-221.08141798758322" stroke="#0d6d4d" stroke-width="0.1" fill="none" />
<path d="M213.64576571843546,119.91866739829706 L-61.7054911370833,-237.10215596559078" stroke="#0d6d4d" stroke-width="0.1" fill="none" />
<path d="M212.54654166508456,121.8563401149586 L-15.58377464448359,-244.50387720408432" stroke="#0d6d4d" stroke-width="0.1" fill="none" />
<path d="M211.4297442563165,123.78393774520424 L31.104435282048204,-243.01751810473434" stroke="#0d6d4d" stroke-width="0.1" fill="none" />
<path d="M210.29546582897962,125.70130091519523 L76.66195262893072,-232.69711003602856" stroke="#0d6d4d" stroke-width="0.1" fill="none" />
<path d="M209.14380016525362,127.60827109727825 L119.43269374300466,-213.91781521250084" stroke="#0d6d4d" stroke-width="0.1" fill="none" />
<path d="M207.97484248489528,129.50469062309284 L157.86187844050343,-187.36228898910184" stroke="#0d6d4d" stroke-width="0.1" fill="none" />
<path d="M206.78868943736612,131.39040269660697 L190.5525485839326,-153.99586432163687" stroke="#0d6d4d" stroke-width="0.1" fill="none" />
<path d="M205.58543909384113,133.26525140708114 L216.31634959235356,-115.0314604751182" stroke="#0d6d4d" stroke-width="0.1" fill="none" />
<path d="M204.3651909391004,135.12908174195903 L234.21672890148957,-71.88549160078225" stroke="#0d6d4d" stroke-width="0.1" fill="none" />
<path d="M203.12804586330344,136.98173959968423 L243.60298104524833,-26.126377970709715" stroke="#0d6d4d" stroke-width="0.1" fill="none" />
<path d="M201.87410615364797,138.82307180244092 L244.13390176920666,20.582468436592855" stroke="#0d6d4d" stroke-width="0.1" fill="none" />
<path d="M200.60347548591264,140.6529261088188 L235.79019131377996,66.54311144071225" stroke="#0d6d4d" stroke-width="0.1" fill="none" />
<path d="M199.31625891588484,142.4711512264008 L218.8751559892465,110.08481317004181" stroke="#0d6d4d" stroke-width="0.1" fill="none" />
<path d="M198.0125628706753,144.2775968242709 L194.00368253933047,149.62476787343292" stroke="#0d6d4d" stroke-width="0.1" fill="none" />
<path d="M196.692495139918,146.07211354544486 L162.07988609165758,183.72563926821783" stroke="#0d6d4d" stroke-width="0.1" fill="none" />
<path d="M195.35616486685865,147.854553019218 L124.26424422539958,211.147809856248" stroke="#0d6d4d" stroke-width="0.1" fill="none" />
<path d="M194.00368253933047,149.62476787343292 L81.9314118817289,230.8944428674421" stroke="#0d6d4d" stroke-width="0.1" fill="none" />
<path d="M192.635159980619,151.3826117466644 L36.62025060796146,242.2477187620352" stroke="#0d6d4d" stroke-width="0.1" fill="none" />
<path d="M191.25071034021673,153.1279393003201 L-10.022111353162858,244.7949290406662" stroke="#0d6d4d" stroke-width="0.1" fill="none" />
<path d="M189.85044808446796,154.86060623065742 L-56.30015462993623,238.44347881341872" stroke="#0d6d4d" stroke-width="0.1" fill="none" />
<path d="M188.43448898710432,156.5804692807148 L-100.53160337779653,223.42425276207015" stroke="#0d6d4d" stroke-width="0.1" fill="none" />
<path d="M187.0029501196729,158.2873862521557 L-141.10857851349314,200.28322213780498" stroke="#0d6d4d" stroke-width="0.1" fill="none" />
<path d="M185.5559498418569,159.98121601702584 L-176.55604651609832,169.86159789253523" stroke="#0d6d4d" stroke-width="0.1" fill="none" />
<path d="M184.09360779168932,161.6618185294217 L-205.58543909384107,133.26525140708122" stroke="#0d6d4d" stroke-width="0.1" fill="none" />
<path d="M182.61604487566137,163.3290548370694 L-227.14149456195713,91.82451441832079" stroke="#0d6d4d" stroke-width="0.1" fill="none" />
<path d="M181.12338325872625,164.9827870928133 L-240.44061817766158,47.045819477865884" stroke="#0d6d4d" stroke-width="0.1" fill="none" />
<path d="M179.61574635419788,166.6228785660134 L-244.9993669768962,0.5569388836679993" stroke="#0d6d4d" stroke-width="0.1" fill="none" />
<path d="M178.09325881354775,168.24919365384994 L-240.652023646582,-45.95218726899674" stroke="#0d6d4d" stroke-width="0.1" fill="none" />
<path d="M176.55604651609843,169.8615978925351 L-227.55662059593004,-90.79088292862859" stroke="#0d6d4d" stroke-width="0.1" fill="none" />
<path d="M175.00423655861576,171.4599579684308 L-206.18919524283987,-132.32919468171056" stroke="#0d6d4d" stroke-width="0.1" fill="none" />
<path d="M173.43795724480074,173.0441417290706 L-177.32648534428637,-169.057142988525" stroke="#0d6d4d" stroke-width="0.1" fill="none" />
<path d="M171.8573380746813,174.61401819408627 L-142.01769342122583,-199.63961218985253" stroke="#0d6d4d" stroke-width="0.1" fill="none" />
<path d="M170.26250973390498,176.16945756603758 L-101.54634668325981,-222.9648839510007" stroke="#0d6d4d" stroke-width="0.1" fill="none" />
<path d="M168.65360408293418,177.71033124114334 L-57.38363890163222,-238.18504988014485" stroke="#0d6d4d" stroke-width="0.1" fill="none" />
<path d="M167.0307541461438,179.23651181991482 L-11.134950323021798,-244.7468342620673" stroke="#0d6d4d" stroke-width="0.1" fill="none" />
<path d="M165.3940941008228,180.7478731176889 L35.51851029503656,-242.41170645499236" stroke="#0d6d4d" stroke-width="0.1" fill="none" />
<path d="M163.74375926608027,182.2442901750613 L80.88082012811464,-231.26455183491387" stroke="#0d6d4d" stroke-width="0.1" fill="none" />
<path d="M162.07988609165758,183.72563926821783 L123.30299160711124,-211.71058608566707" stroke="#0d6d4d" stroke-width="0.1" fill="none" />
<path d="M160.40261214664613,185.1917979191644 L161.24291557399295,-184.46062500489958" stroke="#0d6d4d" stroke-width="0.1" fill="none" />
<path d="M158.71207610811382,186.6426449058529 L193.32141924800317,-150.50524529044756" stroke="#0d6d4d" stroke-width="0.1" fill="none" />
<path d="M157.00841774963885,188.07806027220425 L218.37240121172178,-111.07877560104278" stroke="#0d6d4d" stroke-width="0.1" fill="none" />
<path d="M155.29177792975312,189.49792533802645 L235.48522093551182,-67.61442686996006" stroke="#0d6d4d" stroke-width="0.1" fill="none" />
<path d="M153.56229858029633,190.90212270882668 L244.03780191796423,-21.69219295157691" stroke="#0d6d4d" stroke-width="0.1" fill="none" />
<path d="M151.82012269468098,192.29053628551773 L243.71924509384866,25.018584510010264" stroke="#0d6d4d" stroke-width="0.1" fill="none" />
<path d="M150.06539431606956,193.66305127401705 L234.5411304784895,70.81989913768702" stroke="#0d6d4d" stroke-width="0.1" fill="none" />
<path d="M148.29825852546514,195.01955419473788 L216.83709621695044,114.04680488378874" stroke="#0d6d4d" stroke-width="0.1" fill="none" />
<path d="M146.51886142971588,196.35993289197194 L191.25071034021673,153.1279393003201" stroke="#0d6d4d" stroke-width="0.1" fill="none" />
<path d="M144.72735014943532,197.68407654316204 L158.71207610811382,186.6426449058529" stroke="#0d6d4d" stroke-width="0.1" fill="none" />
<path d="M142.92387280683812,198.9918756680653 L120.40402136961382,213.37261220228234" stroke="#0d6d4d" stroke-width="0.1" fill="none" />
<path d="M141.1085785134932,200.28322213780496 L77.7191010076729,232.3461670408168" stroke="#0d6d4d" stroke-width="0.1" fill="none" />
<path d="M139.28161735799563,201.55800918381013 L32.20897549381289,242.87359242544042" stroke="#0d6d4d" stroke-width="0.1" fill="none" />
<path d="M137.44314039355692,202.81613140664376 L-14.471994282568426,244.57220075365333" stroke="#0d6d4d" stroke-width="0.1" fill="none" />
<path d="M135.5932996255162,204.05748478471696 L-60.626885498138776,237.3802450811684" stroke="#0d6d4d" stroke-width="0.1" fill="none" />
<path d="M133.73224799877195,205.2819666828895 L-104.5778990693028,221.5591637153623" stroke="#0d6d4d" stroke-width="0.1" fill="none" />
<path d="M131.86013938513713,206.4894758609557 L-144.72735014943527,197.68407654316206" stroke="#0d6d4d" stroke-width="0.1" fill="none" />
<path d="M129.97712857061674,207.67991248201488 L-179.61574635419774,166.62287856601355" stroke="#0d6d4d" stroke-width="0.1" fill="none" />
<path d="M128.08337124261,208.85317812072608 L-207.97484248489525,129.50469062309293" stroke="#0d6d4d" stroke-width="0.1" fill="none" />
<path d="M126.1790239770384,210.00917577144568 L-228.77374313160374,87.67881416599448" stroke="#0d6d4d" stroke-width="0.1" fill="none" />
<path d="M124.26424422539958,211.147809856248 L-241.25637725773817,42.66568214000483" stroke="#0d6d4d" stroke-width="0.1" fill="none" />
<path d="M122.33919030174968,212.26898623282744 L-244.9689825090583,-3.8984110194668844" stroke="#0d6d4d" stroke-width="0.1" fill="none" />
<path d="M120.40402136961382,213.37261220228234 L-239.7766001515196,-50.320791128302886" stroke="#0d6d4d" stroke-width="0.1" fill="none" />
<path d="M118.45889742882606,214.45859651677958 L-225.8679810223946,-94.91393548297951" stroke="#0d6d4d" stroke-width="0.1" fill="none" />
<path d="M116.50397930230122,215.5268493870983 L-203.74872415602866,-136.0568168258781" stroke="#0d6d4d" stroke-width="0.1" fill="none" />
<path d="M114.5394286227377,216.5772824900543 L-174.22289750541202,-172.25383010202907" stroke="#0d6d4d" stroke-width="0.1" fill="none" />
<path d="M112.56540781925345,217.60980897580228 L-138.36380887372889,-202.18915993186732" stroke="#0d6d4d" stroke-width="0.1" fill="none" />
<path d="M110.5820801039568,218.62434347501673 L-97.47498957608481,-224.77461246133237" stroke="#0d6d4d" stroke-width="0.1" fill="none" />
<path d="M108.58960945845213,219.62080210595 L-53.04280913345771,-239.18917283027588" stroke="#0d6d4d" stroke-width="0.1" fill="none" />
<path d="M106.58816062028106,220.59910248136816 L-6.6824435253673,-244.9088502862448" stroke="#0d6d4d" stroke-width="0.1" fill="none" />
<path d="M104.57789906930284,221.55916371536227 L39.92083886418969,-241.72572602927352" stroke="#0d6d4d" stroke-width="0.1" fill="none" />
<path d="M102.55899101401216,222.5009064300363 L85.07293926417492,-229.75551137013883" stroke="#0d6d4d" stroke-width="0.1" fill="none" />
<path d="M100.53160337779669,223.42425276207007 L127.13251153167032,-209.43334145176055" stroke="#0d6d4d" stroke-width="0.1" fill="none" />
<path d="M98.49590378513636,224.32912636915688 L164.57062753038787,-181.49795743824322" stroke="#0d6d4d" stroke-width="0.1" fill="none" />
<path d="M96.45206054774407,225.21545243631556 L196.02635594709375,-146.964852172563" stroke="#0d6d4d" stroke-width="0.1" fill="none" />
<path d="M94.40024265064915,226.08315768207626 L220.356234173137,-107.08935549826421" stroke="#0d6d4d" stroke-width="0.1" fill="none" />
<path d="M92.34061973822642,226.93217036453925 L236.67583487445725,-63.32100114873928" stroke="#0d6d4d" stroke-width="0.1" fill="none" />
<path d="M90.27336210016963,227.76242028730653 L244.39191624330277,-17.250834035677258" stroke="#0d6d4d" stroke-width="0.1" fill="none" />
<path d="M88.1986406574115,228.57383880528585 L243.22398722209252,29.446426604723488" stroke="#0d6d4d" stroke-width="0.1" fill="none" />
<path d="M86.11662694799298,229.36635883036598 L233.21450377139502,75.07326575194386" stroke="#0d6d4d" stroke-width="0.1" fill="none" />
<path d="M84.02749311287961,230.13991483696384 L214.72732553248636,117.97107980206684" stroke="#0d6d4d" stroke-width="0.1" fill="none" />
<path d="M81.9314118817289,230.8944428674421 L188.43448898710432,156.5804692807148" stroke="#0d6d4d" stroke-width="0.1" fill="none" />
<path d="M79.82855655860969,231.6298805373971 L155.29177792975312,189.49792533802645" stroke="#0d6d4d" stroke-width="0.1" fill="none" />
<path d="M77.7191010076729,232.3461670408168 L116.50397930230122,215.5268493870983" stroke="#0d6d4d" stroke-width="0.1" fill="none" />
<path d="M75.60321963877628,233.04324315510834 L73.4810873930647,233.72105124599452" stroke="#0d6d4d" stroke-width="0.1" fill="none" />
<path d="M73.4810873930647,233.72105124599452 L27.787048443012548,243.41914456103422" stroke="#0d6d4d" stroke-width="0.1" fill="none" />
<path d="M71.35287972850573,234.37953527227884 L-18.917091130953025,244.26858918645928" stroke="#0d6d4d" stroke-width="0.1" fill="none" />
<path d="M69.21877260538247,235.0186407904793 L-64.93356624882522,236.23850654414792" stroke="#0d6d4d" stroke-width="0.1" fill="none" />
<path d="M67.07894247174585,235.6383149593296 L-108.58960945845219,219.62080210594996" stroke="#0d6d4d" stroke-width="0.1" fill="none" />
<path d="M64.93356624882527,236.23850654414792 L-148.29825852546512,195.0195541947379" stroke="#0d6d4d" stroke-width="0.1" fill="none" />
<path d="M62.7828213164011,236.81916592107333 L-182.6160448756614,163.32905483706938" stroke="#0d6d4d" stroke-width="0.1" fill="none" />
<path d="M60.62688549813883,237.38024508116837 L-210.29546582897964,125.7013009151952" stroke="#0d6d4d" stroke-width="0.1" fill="none" />
<path d="M58.46593704688629,237.9216976343888 L-230.3303331811618,83.50411736348694" stroke="#0d6d4d" stroke-width="0.1" fill="none" />
<path d="M56.30015462993629,238.44347881341872 L-241.992349644572,38.27143469350506" stroke="#0d6d4d" stroke-width="0.1" fill="none" />
<path d="M54.12971731425407,238.9455454773722 L-244.85758354003454,-8.35247166621971" stroke="#0d6d4d" stroke-width="0.1" fill="none" />
<path d="M51.95480455167178,239.42785611536013 L-238.82187934518817,-54.67275323259649" stroke="#0d6d4d" stroke-width="0.1" fill="none" />
<path d="M49.775596164051954,239.89037084992225 L-224.10464390295363,-99.00559873628536" stroke="#0d6d4d" stroke-width="0.1" fill="none" />
<path d="M47.59227232841946,240.3330514403243 L-201.24087065579633,-139.73944317084226" stroke="#0d6d4d" stroke-width="0.1" fill="none" />
<path d="M45.405013562064674,240.75586128571973 L-171.06169183675374,-175.3935505825328" stroke="#0d6d4d" stroke-width="0.1" fill="none" />
<path d="M43.21400070761785,241.15876542817597 L-134.6641655740695,-204.67184102909613" stroke="#0d6d4d" stroke-width="0.1" fill="none" />
<path d="M41.01941491809767,241.54173055556456 L-93.37139619320781,-226.5100050172862" stroke="#0d6d4d" stroke-width="0.1" fill="none" />
<path d="M38.82143764193323,241.90472500431548 L-48.68443740270683,-240.11419273916715" stroke="#0d6d4d" stroke-width="0.1" fill="none" />
<path d="M36.62025060796146,242.2477187620352 L-2.2277267547463535,-244.98987169576253" stroke="#0d6d4d" stroke-width="0.1" fill="none" />
<path d="M34.41603581040288,242.57068346998793 L44.30996508088835,-240.9598036904298" stroke="#0d6d4d" stroke-width="0.1" fill="none" />
<path d="M32.20897549381289,242.87359242544042 L89.23692364754812,-228.17048770145905" stroke="#0d6d4d" stroke-width="0.1" fill="none" />
<path d="M29.999252138014914,243.15642058386985 L130.91998704350112,-207.08683442587437" stroke="#0d6d4d" stroke-width="0.1" fill="none" />
<path d="M27.787048443012548,243.41914456103422 L167.84391379107777,-178.47526608270755" stroke="#0d6d4d" stroke-width="0.1" fill="none" />
<path d="M25.5725473138835,243.66174263490603 L198.66646412265592,-143.37585582308296" stroke="#0d6d4d" stroke-width="0.1" fill="none" />
<path d="M23.355931845658162,243.88419474746814 L222.2671923966492,-103.06451952107926" stroke="#0d6d4d" stroke-width="0.1" fill="none" />
<path d="M21.137385308179798,244.08648250637222 L237.78817696645822,-59.00663433011876" stroke="#0d6d4d" stroke-width="0.1" fill="none" />
<path d="M18.917091130953086,244.26858918645928 L244.66520691094595,-12.80377003948484" stroke="#0d6d4d" stroke-width="0.1" fill="none" />
<path d="M16.69523288797708,244.43049973114282 L242.64829194230458,33.864530374451185" stroke="#0d6d4d" stroke-width="0.1" fill="none" />
<path d="M14.471994282568597,244.5722007536533 L231.81074992559576,79.30180463856364" stroke="#0d6d4d" stroke-width="0.1" fill="none" />
<path d="M12.247559132172112,244.69368053814537 L212.54654166508456,121.8563401149586" stroke="#0d6d4d" stroke-width="0.1" fill="none" />
<path d="M10.022111353163028,244.7949290406662 L185.5559498418569,159.98121601702584" stroke="#0d6d4d" stroke-width="0.1" fill="none" />
<path d="M7.795834945640474,244.8759378899861 L151.82012269468098,192.29053628551773" stroke="#0d6d4d" stroke-width="0.1" fill="none" />
<path d="M5.568913978214834,244.9367003882906 L112.56540781925345,217.60980897580228" stroke="#0d6d4d" stroke-width="0.1" fill="none" />
<path d="M3.3415325727890566,244.97721151173428 L69.21877260538247,235.0186407904793" stroke="#0d6d4d" stroke-width="0.1" fill="none" />
<path d="M1.1138748893344628,244.997467910856 L23.355931845658162,243.88419474746814" stroke="#0d6d4d" stroke-width="0.1" fill="none" />
<path d="M-1.1138748893344028,244.997467910856 L-23.3559318456581,243.88419474746817" stroke="#0d6d4d" stroke-width="0.1" fill="none" />
<path d="M-3.341532572788996,244.97721151173428 L-69.21877260538233,235.01864079047937" stroke="#0d6d4d" stroke-width="0.1" fill="none" />
<path d="M-5.568913978214774,244.9367003882906 L-112.56540781925341,217.6098089758023" stroke="#0d6d4d" stroke-width="0.1" fill="none" />
<path d="M-7.795834945640412,244.8759378899861 L-151.82012269468095,192.2905362855178" stroke="#0d6d4d" stroke-width="0.1" fill="none" />
<path d="M-10.022111353162858,244.7949290406662 L-185.55594984185691,159.98121601702582" stroke="#0d6d4d" stroke-width="0.1" fill="none" />
<path d="M-12.247559132172052,244.6936805381454 L-212.54654166508448,121.85634011495877" stroke="#0d6d4d" stroke-width="0.1" fill="none" />
<path d="M-14.471994282568426,244.57220075365333 L-231.8107499255958,79.30180463856354" stroke="#0d6d4d" stroke-width="0.1" fill="none" />
<path d="M-16.695232887977124,244.43049973114282 L-242.64829194230458,33.86453037445125" stroke="#0d6d4d" stroke-width="0.1" fill="none" />
<path d="M-18.917091130953025,244.26858918645928 L-244.66520691094595,-12.803770039484782" stroke="#0d6d4d" stroke-width="0.1" fill="none" />
<path d="M-21.137385308179738,244.08648250637222 L-237.78817696645825,-59.006634330118644" stroke="#0d6d4d" stroke-width="0.1" fill="none" />
<path d="M-23.3559318456581,243.88419474746817 L-222.26719239664922,-103.0645195210792" stroke="#0d6d4d" stroke-width="0.1" fill="none" />
<path d="M-25.57254731388344,243.66174263490603 L-198.66646412265592,-143.37585582308293" stroke="#0d6d4d" stroke-width="0.1" fill="none" />
<path d="M-27.787048443012488,243.41914456103422 L-167.84391379107794,-178.47526608270738" stroke="#0d6d4d" stroke-width="0.1" fill="none" />
<path d="M-29.999252138014857,243.15642058386985 L-130.91998704350112,-207.08683442587437" stroke="#0d6d4d" stroke-width="0.1" fill="none" />
<path d="M-32.20897549381284,242.87359242544045 L-89.2369236475483,-228.17048770145897" stroke="#0d6d4d" stroke-width="0.1" fill="none" />
<path d="M-34.416035810402725,242.57068346998793 L-44.3099650808885,-240.95980369042977" stroke="#0d6d4d" stroke-width="0.1" fill="none" />
<path d="M-36.62025060796141,242.2477187620352 L2.2277267547463753,-244.98987169576253" stroke="#0d6d4d" stroke-width="0.1" fill="none" />
<path d="M-38.82143764193318,241.90472500431548 L48.68443740270682,-240.11419273916715" stroke="#0d6d4d" stroke-width="0.1" fill="none" />
<path d="M-41.01941491809761,241.54173055556456 L93.3713961932078,-226.5100050172862" stroke="#0d6d4d" stroke-width="0.1" fill="none" />
<path d="M-43.21400070761779,241.15876542817597 L134.6641655740695,-204.67184102909613" stroke="#0d6d4d" stroke-width="0.1" fill="none" />
<path d="M-45.40501356206452,240.75586128571976 L171.0616918367537,-175.39355058253287" stroke="#0d6d4d" stroke-width="0.1" fill="none" />
<path d="M-47.59227232841952,240.33305144032428 L201.24087065579627,-139.73944317084238" stroke="#0d6d4d" stroke-width="0.1" fill="none" />
<path d="M-49.7755961640519,239.89037084992225 L224.1046439029536,-99.00559873628546" stroke="#0d6d4d" stroke-width="0.1" fill="none" />
<path d="M-51.95480455167172,239.42785611536013 L238.82187934518814,-54.6727532325966" stroke="#0d6d4d" stroke-width="0.1" fill="none" />
<path d="M-54.12971731425391,238.94554547737224 L244.85758354003454,-8.352471666219824" stroke="#0d6d4d" stroke-width="0.1" fill="none" />
<path d="M-56.30015462993623,238.44347881341872 L241.992349644572,38.2714346935051" stroke="#0d6d4d" stroke-width="0.1" fill="none" />
<path d="M-58.465937046886125,237.92169763438883 L230.33033318116185,83.5041173634868" stroke="#0d6d4d" stroke-width="0.1" fill="none" />
<path d="M-60.626885498138776,237.3802450811684 L210.29546582897962,125.70130091519523" stroke="#0d6d4d" stroke-width="0.1" fill="none" />
<path d="M-62.78282131640115,236.8191659210733 L182.61604487566137,163.3290548370694" stroke="#0d6d4d" stroke-width="0.1" fill="none" />
<path d="M-64.93356624882522,236.23850654414792 L148.29825852546514,195.01955419473788" stroke="#0d6d4d" stroke-width="0.1" fill="none" />
<path d="M-67.07894247174589,235.63831495932956 L108.58960945845213,219.62080210595" stroke="#0d6d4d" stroke-width="0.1" fill="none" />
<path d="M-69.21877260538233,235.01864079047937 L64.93356624882527,236.23850654414792" stroke="#0d6d4d" stroke-width="0.1" fill="none" />
<path d="M-71.35287972850567,234.37953527227884 L18.917091130953086,244.26858918645928" stroke="#0d6d4d" stroke-width="0.1" fill="none" />
<path d="M-73.48108739306464,233.72105124599452 L-27.787048443012488,243.41914456103422" stroke="#0d6d4d" stroke-width="0.1" fill="none" />
<path d="M-75.60321963877624,233.04324315510834 L-73.48108739306464,233.72105124599452" stroke="#0d6d4d" stroke-width="0.1" fill="none" />
<path d="M-77.71910100767275,232.34616704081685 L-116.50397930230118,215.52684938709834" stroke="#0d6d4d" stroke-width="0.1" fill="none" />
<path d="M-79.82855655860973,231.62988053739707 L-155.29177792975298,189.49792533802656" stroke="#0d6d4d" stroke-width="0.1" fill="none" />
<path d="M-81.93141188172886,230.8944428674421 L-188.43448898710432,156.5804692807148" stroke="#0d6d4d" stroke-width="0.1" fill="none" />
<path d="M-84.02749311287955,230.13991483696387 L-214.72732553248628,117.97107980206702" stroke="#0d6d4d" stroke-width="0.1" fill="none" />
<path d="M-86.11662694799304,229.36635883036595 L-233.21450377139496,75.07326575194398" stroke="#0d6d4d" stroke-width="0.1" fill="none" />
<path d="M-88.19864065741146,228.57383880528587 L-243.22398722209252,29.446426604723598" stroke="#0d6d4d" stroke-width="0.1" fill="none" />
<path d="M-90.27336210016958,227.76242028730653 L-244.39191624330277,-17.2508340356772" stroke="#0d6d4d" stroke-width="0.1" fill="none" />
<path d="M-92.34061973822637,226.93217036453927 L-236.67583487445725,-63.32100114873928" stroke="#0d6d4d" stroke-width="0.1" fill="none" />
<path d="M-94.4002426506491,226.0831576820763 L-220.356234173137,-107.08935549826421" stroke="#0d6d4d" stroke-width="0.1" fill="none" />
<path d="M-96.45206054774393,225.21545243631562 L-196.02635594709375,-146.964852172563" stroke="#0d6d4d" stroke-width="0.1" fill="none" />
<path d="M-98.49590378513632,224.3291263691569 L-164.5706275303878,-181.49795743824325" stroke="#0d6d4d" stroke-width="0.1" fill="none" />
<path d="M-100.53160337779653,223.42425276207015 L-127.13251153167045,-209.43334145176047" stroke="#0d6d4d" stroke-width="0.1" fill="none" />
<path d="M-102.55899101401212,222.5009064300363 L-85.07293926417505,-229.7555113701388" stroke="#0d6d4d" stroke-width="0.1" fill="none" />
<path d="M-104.5778990693028,221.5591637153623 L-39.9208388641898,-241.7257260292735" stroke="#0d6d4d" stroke-width="0.1" fill="none" />
<path d="M-106.58816062028102,220.5991024813682 L6.682443525367268,-244.9088502862448" stroke="#0d6d4d" stroke-width="0.1" fill="none" />
<path d="M-108.58960945845219,219.62080210594996 L53.04280913345744,-239.18917283027594" stroke="#0d6d4d" stroke-width="0.1" fill="none" />
<path d="M-110.58208010395684,218.6243434750167 L97.47498957608474,-224.7746124613324" stroke="#0d6d4d" stroke-width="0.1" fill="none" />
<path d="M-112.56540781925341,217.6098089758023 L138.36380887372883,-202.18915993186738" stroke="#0d6d4d" stroke-width="0.1" fill="none" />
<path d="M-114.53942862273755,216.57728249005436 L174.22289750541194,-172.25383010202916" stroke="#0d6d4d" stroke-width="0.1" fill="none" />
<path d="M-116.50397930230118,215.52684938709834 L203.74872415602857,-136.05681682587823" stroke="#0d6d4d" stroke-width="0.1" fill="none" />
<path d="M-118.45889742882592,214.45859651677966 L225.8679810223945,-94.91393548297967" stroke="#0d6d4d" stroke-width="0.1" fill="none" />
<path d="M-120.40402136961379,213.3726122022824 L239.7766001515196,-50.32079112830284" stroke="#0d6d4d" stroke-width="0.1" fill="none" />
<path d="M-122.33919030174964,212.26898623282747 L244.9689825090583,-3.8984110194671078" stroke="#0d6d4d" stroke-width="0.1" fill="none" />
<path d="M-124.26424422539952,211.147809856248 L241.25637725773817,42.665682140004826" stroke="#0d6d4d" stroke-width="0.1" fill="none" />
<path d="M-126.17902397703826,210.00917577144574 L228.77374313160374,87.67881416599448" stroke="#0d6d4d" stroke-width="0.1" fill="none" />
<path d="M-128.08337124260996,208.85317812072614 L207.97484248489528,129.50469062309284" stroke="#0d6d4d" stroke-width="0.1" fill="none" />
<path d="M-129.9771285706168,207.67991248201486 L179.61574635419788,166.6228785660134" stroke="#0d6d4d" stroke-width="0.1" fill="none" />
<path d="M-131.8601393851371,206.48947586095574 L144.72735014943532,197.68407654316204" stroke="#0d6d4d" stroke-width="0.1" fill="none" />
<path d="M-133.7322479987719,205.28196668288953 L104.57789906930284,221.55916371536227" stroke="#0d6d4d" stroke-width="0.1" fill="none" />
<path d="M-135.59329962551607,204.05748478471705 L60.62688549813883,237.38024508116837" stroke="#0d6d4d" stroke-width="0.1" fill="none" />
<path d="M-137.44314039355697,202.81613140664376 L14.471994282568597,244.5722007536533" stroke="#0d6d4d" stroke-width="0.1" fill="none" />
<path d="M-139.28161735799557,201.55800918381016 L-32.20897549381284,242.87359242544045" stroke="#0d6d4d" stroke-width="0.1" fill="none" />
<path d="M-141.10857851349314,200.28322213780498 L-77.71910100767275,232.34616704081685" stroke="#0d6d4d" stroke-width="0.1" fill="none" />
<path d="M-142.92387280683798,198.9918756680654 L-120.40402136961379,213.3726122022824" stroke="#0d6d4d" stroke-width="0.1" fill="none" />
<path d="M-144.72735014943527,197.68407654316206 L-158.71207610811376,186.64264490585293" stroke="#0d6d4d" stroke-width="0.1" fill="none" />
<path d="M-146.5188614297159,196.35993289197188 L-191.25071034021667,153.12793930032015" stroke="#0d6d4d" stroke-width="0.1" fill="none" />
<path d="M-148.29825852546512,195.0195541947379 L-216.8370962169504,114.04680488378878" stroke="#0d6d4d" stroke-width="0.1" fill="none" />
<path d="M-150.06539431606961,193.66305127401705 L-234.54113047848946,70.81989913768707" stroke="#0d6d4d" stroke-width="0.1" fill="none" />
<path d="M-151.82012269468095,192.2905362855178 L-243.71924509384866,25.018584510010268" stroke="#0d6d4d" stroke-width="0.1" fill="none" />
<path d="M-153.56229858029636,190.90212270882665 L-244.03780191796423,-21.692192951576907" stroke="#0d6d4d" stroke-width="0.1" fill="none" />
<path d="M-155.29177792975298,189.49792533802656 L-235.48522093551188,-67.61442686995989" stroke="#0d6d4d" stroke-width="0.1" fill="none" />
<path d="M-157.00841774963882,188.07806027220428 L-218.37240121172175,-111.07877560104282" stroke="#0d6d4d" stroke-width="0.1" fill="none" />
<path d="M-158.71207610811376,186.64264490585293 L-193.32141924800325,-150.50524529044745" stroke="#0d6d4d" stroke-width="0.1" fill="none" />
<path d="M-160.40261214664608,185.19179791916443 L-161.24291557399286,-184.46062500489967" stroke="#0d6d4d" stroke-width="0.1" fill="none" />
<path d="M-162.07988609165744,183.72563926821795 L-123.30299160711132,-211.71058608566705" stroke="#0d6d4d" stroke-width="0.1" fill="none" />
<path d="M-163.74375926608033,182.24429017506128 L-80.88082012811469,-231.26455183491385" stroke="#0d6d4d" stroke-width="0.1" fill="none" />
<path d="M-165.39409410082285,180.74787311768887 L-35.5185102950364,-242.41170645499236" stroke="#0d6d4d" stroke-width="0.1" fill="none" />
<path d="M-167.03075414614378,179.23651181991482 L11.13495032302193,-244.7468342620673" stroke="#0d6d4d" stroke-width="0.1" fill="none" />
<path d="M-168.65360408293415,177.7103312411434 L57.38363890163211,-238.18504988014485" stroke="#0d6d4d" stroke-width="0.1" fill="none" />
<path d="M-170.26250973390486,176.1694575660377 L101.5463466832597,-222.96488395100076" stroke="#0d6d4d" stroke-width="0.1" fill="none" />
<path d="M-171.85733807468125,174.61401819408633 L142.01769342122589,-199.63961218985247" stroke="#0d6d4d" stroke-width="0.1" fill="none" />
<path d="M-173.4379572448007,173.04414172907065 L177.32648534428625,-169.05714298852513" stroke="#0d6d4d" stroke-width="0.1" fill="none" />
<path d="M-175.00423655861573,171.45995796843087 L206.1891952428399,-132.32919468171053" stroke="#0d6d4d" stroke-width="0.1" fill="none" />
<path d="M-176.55604651609832,169.86159789253523 L227.55662059593004,-90.79088292862859" stroke="#0d6d4d" stroke-width="0.1" fill="none" />
<path d="M-178.09325881354775,168.24919365384991 L240.65202364658197,-45.9521872689968" stroke="#0d6d4d" stroke-width="0.1" fill="none" />
<path d="M-179.61574635419774,166.62287856601355 L244.9993669768962,0.5569388836679392" stroke="#0d6d4d" stroke-width="0.1" fill="none" />
<path d="M-181.12338325872622,164.98278709281337 L240.4406181776616,47.04581947786582" stroke="#0d6d4d" stroke-width="0.1" fill="none" />
<path d="M-182.6160448756614,163.32905483706938 L227.14149456195716,91.82451441832069" stroke="#0d6d4d" stroke-width="0.1" fill="none" />
<path d="M-184.09360779168927,161.66181852942177 L205.58543909384113,133.26525140708114" stroke="#0d6d4d" stroke-width="0.1" fill="none" />
<path d="M-185.55594984185691,159.98121601702582 L176.55604651609843,169.8615978925351" stroke="#0d6d4d" stroke-width="0.1" fill="none" />
<path d="M-187.00295011967287,158.28738625215576 L141.1085785134932,200.28322213780496" stroke="#0d6d4d" stroke-width="0.1" fill="none" />
<path d="M-188.43448898710432,156.5804692807148 L100.53160337779669,223.42425276207007" stroke="#0d6d4d" stroke-width="0.1" fill="none" />
<path d="M-189.85044808446779,154.86060623065762 L56.30015462993629,238.44347881341872" stroke="#0d6d4d" stroke-width="0.1" fill="none" />
<path d="M-191.25071034021667,153.12793930032015 L10.022111353163028,244.7949290406662" stroke="#0d6d4d" stroke-width="0.1" fill="none" />
<path d="M-192.63515998061885,151.38261174666454 L-36.62025060796141,242.2477187620352" stroke="#0d6d4d" stroke-width="0.1" fill="none" />
<path d="M-194.00368253933044,149.624767873433 L-81.93141188172886,230.8944428674421" stroke="#0d6d4d" stroke-width="0.1" fill="none" />
<path d="M-195.3561648668586,147.85455301921806 L-124.26424422539952,211.147809856248" stroke="#0d6d4d" stroke-width="0.1" fill="none" />
<path d="M-196.69249513991804,146.07211354544484 L-162.07988609165744,183.72563926821795" stroke="#0d6d4d" stroke-width="0.1" fill="none" />
<path d="M-198.01256287067525,144.27759682427094 L-194.00368253933044,149.624767873433" stroke="#0d6d4d" stroke-width="0.1" fill="none" />
<path d="M-199.3162589158848,142.47115122640088 L-218.87515598924642,110.08481317004195" stroke="#0d6d4d" stroke-width="0.1" fill="none" />
<path d="M-200.6034754859126,140.6529261088189 L-235.79019131377996,66.54311144071225" stroke="#0d6d4d" stroke-width="0.1" fill="none" />
<path d="M-201.87410615364794,138.823071802441 L-244.13390176920666,20.58246843659302" stroke="#0d6d4d" stroke-width="0.1" fill="none" />
<path d="M-203.12804586330344,136.9817395996842 L-243.6029810452483,-26.126377970709765" stroke="#0d6d4d" stroke-width="0.1" fill="none" />
<path d="M-204.36519093910036,135.12908174195908 L-234.2167289014896,-71.88549160078216" stroke="#0d6d4d" stroke-width="0.1" fill="none" />
<path d="M-205.58543909384107,133.26525140708122 L-216.31634959235362,-115.03146047511811" stroke="#0d6d4d" stroke-width="0.1" fill="none" />
<path d="M-206.78868943736603,131.39040269660714 L-190.5525485839327,-153.9958643216368" stroke="#0d6d4d" stroke-width="0.1" fill="none" />
<path d="M-207.97484248489525,129.50469062309293 L-157.8618784405035,-187.36228898910178" stroke="#0d6d4d" stroke-width="0.1" fill="none" />
<path d="M-209.14380016525354,127.6082710972784 L-119.43269374300469,-213.91781521250084" stroke="#0d6d4d" stroke-width="0.1" fill="none" />
<path d="M-210.29546582897964,125.7013009151952 L-76.66195262893095,-232.69711003602848" stroke="#0d6d4d" stroke-width="0.1" fill="none" />
<path d="M-211.42974425631644,123.78393774520433 L-31.104435282048204,-243.01751810473434" stroke="#0d6d4d" stroke-width="0.1" fill="none" />
<path d="M-212.54654166508448,121.85634011495877 L15.583774644483452,-244.50387720408432" stroke="#0d6d4d" stroke-width="0.1" fill="none" />
<path d="M-213.6457657184354,119.91866739829713 L61.70549113708315,-237.1021559655908" stroke="#0d6d4d" stroke-width="0.1" fill="none" />
<path d="M-214.72732553248628,117.97107980206702 L105.58412106277858,-221.0814179875833" stroke="#0d6d4d" stroke-width="0.1" fill="none" />
<path d="M-215.7911316838345,116.01373835287785 L145.6246108283355,-197.02404097240475" stroke="#0d6d4d" stroke-width="0.1" fill="none" />
<path d="M-216.8370962169504,114.04680488378878 L180.37142895559325,-165.80454642897274" stroke="#0d6d4d" stroke-width="0.1" fill="none" />
<path d="M-217.86513265145038,112.07044202092686 L208.56147681997777,-128.55780951256864" stroke="#0d6d4d" stroke-width="0.1" fill="none" />
<path d="M-218.87515598924642,110.08481317004195 L229.1700041679903,-86.63780462155835" stroke="#0d6d4d" stroke-width="0.1" fill="none" />
<path d="M-219.86708272157412,108.09008250299594 L241.4478603161802,-41.56838641008742" stroke="#0d6d4d" stroke-width="0.1" fill="none" />
<path d="M-220.8408308358968,106.08641494418978 L244.94872689500065,5.012104599705545" stroke="#0d6d4d" stroke-width="0.1" fill="none" />
<path d="M-221.7963198226868,104.07397615692614 L239.5453421867217,51.410398137404144" stroke="#0d6d4d" stroke-width="0.1" fill="none" />
<path d="M-222.7334706820816,102.05293252971376 L225.4341272785369,95.93984708224437" stroke="#0d6d4d" stroke-width="0.1" fill="none" />
<path d="M-223.65220593041556,100.02345116250984 L203.12804586330344,136.98173959968423" stroke="#0d6d4d" stroke-width="0.1" fill="none" />
<path d="M-224.55244960662674,97.98569985290385 L173.43795724480074,173.0441417290706" stroke="#0d6d4d" stroke-width="0.1" fill="none" />
<path d="M-225.43412727853683,95.93984708224453 L137.44314039355692,202.81613140664376" stroke="#0d6d4d" stroke-width="0.1" fill="none" />
<path d="M-226.29716604900548,93.88606200170955 L96.45206054774407,225.21545243631556" stroke="#0d6d4d" stroke-width="0.1" fill="none" />
<path d="M-227.14149456195713,91.82451441832079 L51.95480455167178,239.42785611536013" stroke="#0d6d4d" stroke-width="0.1" fill="none" />
<path d="M-227.9670430082813,89.75537478090337 L5.568913978214834,244.9367003882906" stroke="#0d6d4d" stroke-width="0.1" fill="none" />
<path d="M-228.77374313160374,87.67881416599448 L-41.01941491809761,241.54173055556456" stroke="#0d6d4d" stroke-width="0.1" fill="none" />
<path d="M-229.5615282339304,85.5950042636974 L-86.11662694799304,229.36635883036595" stroke="#0d6d4d" stroke-width="0.1" fill="none" />
<path d="M-230.3303331811618,83.50411736348694 L-128.08337124260996,208.85317812072614" stroke="#0d6d4d" stroke-width="0.1" fill="none" />
<path d="M-231.08009440847835,81.40632633996412 L-165.39409410082285,180.74787311768887" stroke="#0d6d4d" stroke-width="0.1" fill="none" />
<path d="M-231.8107499255958,79.30180463856354 L-196.69249513991804,146.07211354544484" stroke="#0d6d4d" stroke-width="0.1" fill="none" />
<path d="M-232.5222393218906,77.19072626121248 L-220.8408308358968,106.08641494418978" stroke="#0d6d4d" stroke-width="0.1" fill="none" />
<path d="M-233.21450377139496,75.07326575194398 L-236.96127319623258,62.24431705160255" stroke="#0d6d4d" stroke-width="0.1" fill="none" />
<path d="M-233.88748603766027,72.94959818246622 L-244.46782011568814,16.139545467067798" stroke="#0d6d4d" stroke-width="0.1" fill="none" />
<path d="M-234.54113047848946,70.81989913768707 L-243.08759742620174,-30.551922649104533" stroke="#0d6d4d" stroke-width="0.1" fill="none" />
<path d="M-235.17538305053753,68.68434470119765 L-232.87077827958012,-76.13278284328402" stroke="#0d6d4d" stroke-width="0.1" fill="none" />
<path d="M-235.79019131377996,66.54311144071225 L-214.1887592786533,-118.94610291502244" stroke="#0d6d4d" stroke-width="0.1" fill="none" />
<path d="M-236.38550443584813,64.39637639347129 L-187.72065965724337,-157.43555487198373" stroke="#0d6d4d" stroke-width="0.1" fill="none" />
<path d="M-236.96127319623258,62.24431705160255 L-154.42863428387528,-190.20198977197137" stroke="#0d6d4d" stroke-width="0.1" fill="none" />
<path d="M-237.5174499903524,60.08711134744665 L-115.52289789833857,-216.05429887222803" stroke="#0d6d4d" stroke-width="0.1" fill="none" />
<path d="M-238.05398883349082,57.92493763884624 L-72.41773200222609,-234.05271220742938" stroke="#0d6d4d" stroke-width="0.1" fill="none" />
<path d="M-238.5708453645979,55.75797469439793 L-26.680073618549052,-243.54296062852814" stroke="#0d6d4d" stroke-width="0.1" fill="none" />
<path d="M-239.0679768499576,53.58640167867333 L20.02744520436877,-244.18005946142696" stroke="#0d6d4d" stroke-width="0.1" fill="none" />
<path d="M-239.54534218672168,51.41039813740431 L66.00693654578536,-235.9408492140364" stroke="#0d6d4d" stroke-width="0.1" fill="none" />
<path d="M-240.00290190630747,49.230143982638914 L109.58697736894212,-219.1248374583287" stroke="#0d6d4d" stroke-width="0.1" fill="none" />
<path d="M-240.44061817766158,47.045819477865884 L149.18336823949056,-194.34331128371915" stroke="#0d6d4d" stroke-width="0.1" fill="none" />
<path d="M-240.85845481038754,44.857605223111236 L183.35672133597566,-162.49711610032153" stroke="#0d6d4d" stroke-width="0.1" fill="none" />
<path d="M-241.25637725773817,42.66568214000483 L210.86478434236759,-124.74390856569634" stroke="#0d6d4d" stroke-width="0.1" fill="none" />
<path d="M-241.6343526194716,40.47023145682344 L230.7075981711661,-82.4560740400109" stroke="#0d6d4d" stroke-width="0.1" fill="none" />
<path d="M-241.992349644572,38.27143469350506 L242.16384696654106,-37.17083833283389" stroke="#0d6d4d" stroke-width="0.1" fill="none" />
<path d="M-242.33033873383283,36.06947364664255 L244.8170790107203,9.465612746079172" stroke="#0d6d4d" stroke-width="0.1" fill="none" />
<path d="M-242.64829194230458,33.86453037445125 L238.57084536459786,55.75797469439802" stroke="#0d6d4d" stroke-width="0.1" fill="none" />
<path d="M-242.94618298160495,31.65678718171694 L223.65220593041553,100.02345116250989" stroke="#0d6d4d" stroke-width="0.1" fill="none" />
<path d="M-243.22398722209252,29.446426604723598 L200.60347548591264,140.6529261088188" stroke="#0d6d4d" stroke-width="0.1" fill="none" />
<path d="M-243.4816816949031,27.23363139615977 L170.26250973390498,176.16945756603758" stroke="#0d6d4d" stroke-width="0.1" fill="none" />
<path d="M-243.71924509384866,25.018584510010268 L133.73224799877195,205.2819666828895" stroke="#0d6d4d" stroke-width="0.1" fill="none" />
<path d="M-243.93665777717925,22.801469086428046 L92.34061973822642,226.93217036453925" stroke="#0d6d4d" stroke-width="0.1" fill="none" />
<path d="M-244.13390176920666,20.58246843659302 L47.59227232841946,240.3330514403243" stroke="#0d6d4d" stroke-width="0.1" fill="none" />
<path d="M-244.31096076179085,18.36176602755546 L1.1138748893344628,244.997467910856" stroke="#0d6d4d" stroke-width="0.1" fill="none" />
<path d="M-244.46782011568814,16.139545467067798 L-45.40501356206452,240.75586128571976" stroke="#0d6d4d" stroke-width="0.1" fill="none" />
<path d="M-244.60446686176175,13.915990488402405 L-90.27336210016958,227.76242028730653" stroke="#0d6d4d" stroke-width="0.1" fill="none" />
<path d="M-244.72088970205394,11.691284935162276 L-131.8601393851371,206.48947586095574" stroke="#0d6d4d" stroke-width="0.1" fill="none" />
<path d="M-244.8170790107203,9.465612746079286 L-168.65360408293415,177.7103312411434" stroke="#0d6d4d" stroke-width="0.1" fill="none" />
<path d="M-244.89302683482543,7.2391579398068036 L-199.3162589158848,142.47115122640088" stroke="#0d6d4d" stroke-width="0.1" fill="none" />
<path d="M-244.94872689500065,5.012104599705659 L-222.7334706820816,102.05293252971376" stroke="#0d6d4d" stroke-width="0.1" fill="none" />
<path d="M-244.984174585963,2.7846368586226187 L-238.05398883349082,57.92493763884624" stroke="#0d6d4d" stroke-width="0.1" fill="none" />
<path d="M-244.9993669768962,0.5569388836679993 L-244.72088970205394,11.691284935162276" stroke="#0d6d4d" stroke-width="0.1" fill="none" />
<path d="M-244.99430281169285,-1.6708051390127872 L-242.49182150504316,-34.96736340026623" stroke="#0d6d4d" stroke-width="0.1" fill="none" />
<path d="M-244.9689825090583,-3.8984110194668844 L-231.44781419355837,-80.35489596175256" stroke="#0d6d4d" stroke-width="0.1" fill="none" />
<path d="M-244.923408162476,-6.125694579163257 L-211.99033389303963,-122.82140829642677" stroke="#0d6d4d" stroke-width="0.1" fill="none" />
<path d="M-244.85758354003454,-8.35247166621971 L-184.8266890112743,-160.82317939006703" stroke="#0d6d4d" stroke-width="0.1" fill="none" />
<path d="M-244.77151408411598,-10.578558170630094 L-150.9443185236213,-192.97878822668451" stroke="#0d6d4d" stroke-width="0.1" fill="none" />
<path d="M-244.66520691094595,-12.803770039484782 L-111.57489709460802,-218.11933050128235" stroke="#0d6d4d" stroke-width="0.1" fill="none" />
<path d="M-244.53867081000513,-15.027923292189701 L-68.14956186822046,-235.33091003344543" stroke="#0d6d4d" stroke-width="0.1" fill="none" />
<path d="M-244.39191624330277,-17.2508340356772 L-22.24688849979604,-243.9878602555415" stroke="#0d6d4d" stroke-width="0.1" fill="none" />
<path d="M-244.22495534451153,-19.472318479609683 L24.46449242171236,-243.7754881249302" stroke="#0d6d4d" stroke-width="0.1" fill="none" />
<path d="M-244.03780191796423,-21.692192951576907 L70.28655258252266,-234.7015136850725" stroke="#0d6d4d" stroke-width="0.1" fill="none" />
<path d="M-243.83047143751276,-23.91027391228031 L113.55359180392232,-217.09578943044517" stroke="#0d6d4d" stroke-width="0.1" fill="none" />
<path d="M-243.6029810452483,-26.126377970709765 L152.6927887262752,-191.5983096767638" stroke="#0d6d4d" stroke-width="0.1" fill="none" />
<path d="M-243.35534955008447,-28.340321899304637 L186.2813752095318,-159.13594581377782" stroke="#0d6d4d" stroke-width="0.1" fill="none" />
<path d="M-243.08759742620174,-30.551922649104533 L213.09835607557233,-120.88875314887066" stroke="#0d6d4d" stroke-width="0.1" fill="none" />
<path d="M-242.79974681135508,-32.76099736488297 L232.168894102667,-78.24707413791656" stroke="#0d6d4d" stroke-width="0.1" fill="none" />
<path d="M-242.49182150504316,-34.96736340026623 L242.79974681135505,-32.76099736488314" stroke="#0d6d4d" stroke-width="0.1" fill="none" />
<path d="M-242.16384696654106,-37.17083833283399 L244.60446686176175,13.915990488402455" stroke="#0d6d4d" stroke-width="0.1" fill="none" />
<path d="M-241.81585031279496,-39.37123997920237 L237.5174499903524,60.087111347446644" stroke="#0d6d4d" stroke-width="0.1" fill="none" />
<path d="M-241.4478603161802,-41.56838641008736 L221.79631982268677,104.0739761569262" stroke="#0d6d4d" stroke-width="0.1" fill="none" />
<path d="M-241.05990740212243,-43.76209596534605 L198.0125628706753,144.2775968242709" stroke="#0d6d4d" stroke-width="0.1" fill="none" />
<path d="M-240.652023646582,-45.95218726899674 L167.0307541461438,179.23651181991482" stroke="#0d6d4d" stroke-width="0.1" fill="none" />
<path d="M-240.22424277340193,-48.13847924421425 L129.97712857061674,207.67991248201488" stroke="#0d6d4d" stroke-width="0.1" fill="none" />
<path d="M-239.7766001515196,-50.320791128302886 L88.1986406574115,228.57383880528585" stroke="#0d6d4d" stroke-width="0.1" fill="none" />
<path d="M-239.30913279204256,-52.498942487640136 L43.21400070761785,241.15876542817597" stroke="#0d6d4d" stroke-width="0.1" fill="none" />
<path d="M-238.82187934518817,-54.67275323259649 L-3.341532572788996,244.97721151173428" stroke="#0d6d4d" stroke-width="0.1" fill="none" />
<path d="M-238.31488009708823,-56.84204363242456 L-49.7755961640519,239.89037084992225" stroke="#0d6d4d" stroke-width="0.1" fill="none" />
<path d="M-237.78817696645825,-59.006634330118644 L-94.4002426506491,226.0831576820763" stroke="#0d6d4d" stroke-width="0.1" fill="none" />
<path d="M-237.24181350113116,-61.166346357245395 L-135.59329962551607,204.05748478471705" stroke="#0d6d4d" stroke-width="0.1" fill="none" />
<path d="M-236.67583487445725,-63.32100114873928 L-171.85733807468125,174.61401819408633" stroke="#0d6d4d" stroke-width="0.1" fill="none" />
<path d="M-236.09028788156894,-65.4704205576678 L-201.87410615364794,138.823071802441" stroke="#0d6d4d" stroke-width="0.1" fill="none" />
<path d="M-235.48522093551188,-67.61442686995989 L-224.55244960662674,97.98569985290385" stroke="#0d6d4d" stroke-width="0.1" fill="none" />
<path d="M-234.860684063242,-69.7528428190997 L-239.0679768499576,53.58640167867333" stroke="#0d6d4d" stroke-width="0.1" fill="none" />
<path d="M-234.2167289014896,-71.88549160078216 L-244.89302683482543,7.2391579398068036" stroke="#0d6d4d" stroke-width="0.1" fill="none" />
<path d="M-233.55340869248965,-74.01219688753262 L-241.81585031279496,-39.37123997920237" stroke="#0d6d4d" stroke-width="0.1" fill="none" />
<path d="M-232.87077827958012,-76.13278284328402 L-229.94830723657648,-84.55043464721534" stroke="#0d6d4d" stroke-width="0.1" fill="none" />
<path d="M-232.16889410266702,-78.2470741379164 L-209.7218004840321,-126.65609500429044" stroke="#0d6d4d" stroke-width="0.1" fill="none" />
<path d="M-231.44781419355837,-80.35489596175256 L-181.87159372061444,-164.15761754339565" stroke="#0d6d4d" stroke-width="0.1" fill="none" />
<path d="M-230.70759817116613,-82.45607404001079 L-147.41008346931332,-195.69176602905418" stroke="#0d6d4d" stroke-width="0.1" fill="none" />
<path d="M-229.94830723657648,-84.55043464721534 L-107.58999698819659,-220.1122271662341" stroke="#0d6d4d" stroke-width="0.1" fill="none" />
<path d="M-229.1700041679903,-86.63780462155829 L-63.85885376755356,-236.53128079705274" stroke="#0d6d4d" stroke-width="0.1" fill="none" />
<path d="M-228.3727533155321,-88.7180113792184 L-17.8063460390794,-244.35206985154957" stroke="#0d6d4d" stroke-width="0.1" fill="none" />
<path d="M-227.55662059593004,-90.79088292862859 L28.89344890597616,-243.29029699171676" stroke="#0d6d4d" stroke-width="0.1" fill="none" />
<path d="M-226.7216734870656,-92.85624788469762 L74.54292392134262,-233.38455924344464" stroke="#0d6d4d" stroke-width="0.1" fill="none" />
<path d="M-225.8679810223946,-94.91393548297951 L117.48265255556014,-214.99494493710668" stroke="#0d6d4d" stroke-width="0.1" fill="none" />
<path d="M-224.9956137852394,-96.96377559379265 L156.15171167665085,-188.7899439600852" stroke="#0d6d4d" stroke-width="0.1" fill="none" />
<path d="M-224.10464390295363,-99.00559873628536 L189.14442335432088,-155.72214715306697" stroke="#0d6d4d" stroke-width="0.1" fill="none" />
<path d="M-223.19514504095773,-101.03923609245 L215.26145334770794,-116.99361821327076" stroke="#0d6d4d" stroke-width="0.1" fill="none" />
<path d="M-222.26719239664922,-103.0645195210792 L233.55340869248965,-74.01219688753262" stroke="#0d6d4d" stroke-width="0.1" fill="none" />
<path d="M-221.3208626931848,-105.08128157166925 L243.35534955008447,-28.34032189930464" stroke="#0d6d4d" stroke-width="0.1" fill="none" />
<path d="M-220.356234173137,-107.08935549826421 L244.31096076179085,18.3617660275554" stroke="#0d6d4d" stroke-width="0.1" fill="none" />
<path d="M-219.37338659202538,-109.08857527324199 L236.38550443584813,64.39637639347123" stroke="#0d6d4d" stroke-width="0.1" fill="none" />
<path d="M-218.37240121172175,-111.07877560104282 L219.86708272157415,108.09008250299591" stroke="#0d6d4d" stroke-width="0.1" fill="none" />
<path d="M-217.3533607937322,-113.05979193183438 L195.35616486685865,147.854553019218" stroke="#0d6d4d" stroke-width="0.1" fill="none" />
<path d="M-216.31634959235362,-115.03146047511811 L163.74375926608027,182.2442901750613" stroke="#0d6d4d" stroke-width="0.1" fill="none" />
<path d="M-215.261453347708,-116.99361821327061 L126.1790239770384,210.00917577144568" stroke="#0d6d4d" stroke-width="0.1" fill="none" />
<path d="M-214.1887592786533,-118.94610291502244 L84.02749311287961,230.13991483696384" stroke="#0d6d4d" stroke-width="0.1" fill="none" />
<path d="M-213.09835607557238,-120.88875314887053 L38.82143764193323,241.90472500431548" stroke="#0d6d4d" stroke-width="0.1" fill="none" />
<path d="M-211.99033389303963,-122.82140829642677 L-7.795834945640412,244.8759378899861" stroke="#0d6d4d" stroke-width="0.1" fill="none" />
<path d="M-210.86478434236764,-124.74390856569624 L-54.12971731425391,238.94554547737224" stroke="#0d6d4d" stroke-width="0.1" fill="none" />
<path d="M-209.7218004840321,-126.65609500429044 L-98.49590378513632,224.3291263691569" stroke="#0d6d4d" stroke-width="0.1" fill="none" />
<path d="M-208.56147681997777,-128.5578095125686 L-139.28161735799557,201.55800918381016" stroke="#0d6d4d" stroke-width="0.1" fill="none" />
<path d="M-207.38390928580563,-130.44889485670907 L-175.00423655861573,171.45995796843087" stroke="#0d6d4d" stroke-width="0.1" fill="none" />
<path d="M-206.18919524283987,-132.32919468171056 L-204.36519093910036,135.12908174195908" stroke="#0d6d4d" stroke-width="0.1" fill="none" />
<path d="M-204.97743347007918,-134.1985535243181 L-226.29716604900548,93.88606200170955" stroke="#0d6d4d" stroke-width="0.1" fill="none" />
<path d="M-203.74872415602866,-136.0568168258781 L-240.00290190630747,49.230143982638914" stroke="#0d6d4d" stroke-width="0.1" fill="none" />
<path d="M-202.50316889041693,-137.9038309451165 L-244.984174585963,2.7846368586226187" stroke="#0d6d4d" stroke-width="0.1" fill="none" />
<path d="M-201.24087065579633,-139.73944317084226 L-241.05990740212243,-43.76209596534605" stroke="#0d6d4d" stroke-width="0.1" fill="none" />
<path d="M-199.96193381902876,-141.56350173457267 L-228.3727533155321,-88.7180113792184" stroke="#0d6d4d" stroke-width="0.1" fill="none" />
<path d="M-198.66646412265592,-143.37585582308293 L-207.38390928580563,-130.44889485670907" stroke="#0d6d4d" stroke-width="0.1" fill="none" />
<path d="M-197.35456867615724,-145.17635559087412 L-178.8563510745867,-167.4377665889156" stroke="#0d6d4d" stroke-width="0.1" fill="none" />
<path d="M-196.02635594709375,-146.964852172563 L-143.82709793949718,-198.34002596123227" stroke="#0d6d4d" stroke-width="0.1" fill="none" />
<path d="M-194.68193575213968,-148.74119769519055 L-103.56951543857872,-222.03232978964573" stroke="#0d6d4d" stroke-width="0.1" fill="none" />
<path d="M-193.32141924800325,-150.50524529044745 L-59.547026694471114,-237.65342751967188" stroke="#0d6d4d" stroke-width="0.1" fill="none" />
<path d="M-191.944918922236,-152.25684910681767 L-13.359914782861104,-244.63546896759408" stroke="#0d6d4d" stroke-width="0.1" fill="none" />
<path d="M-190.5525485839327,-153.9958643216368 L33.31284994233516,-242.72464652094862" stroke="#0d6d4d" stroke-width="0.1" fill="none" />
<path d="M-189.14442335432085,-155.72214715306697 L78.77464292362362,-231.99042142350532" stroke="#0d6d4d" stroke-width="0.1" fill="none" />
<path d="M-187.72065965724337,-157.43555487198373 L121.37286023119913,-212.82299875553346" stroke="#0d6d4d" stroke-width="0.1" fill="none" />
<path d="M-186.28137520953192,-159.1359458137777 L159.55899317878593,-185.91914289758373" stroke="#0d6d4d" stroke-width="0.1" fill="none" />
<path d="M-184.8266890112743,-160.82317939006703 L191.944918922236,-152.25684910681767" stroke="#0d6d4d" stroke-width="0.1" fill="none" />
<path d="M-183.3567213359757,-162.49711610032145 L217.35336079373218,-113.05979193183443" stroke="#0d6d4d" stroke-width="0.1" fill="none" />
<path d="M-181.87159372061444,-164.15761754339565 L234.86068406324196,-69.75284281909975" stroke="#0d6d4d" stroke-width="0.1" fill="none" />
<path d="M-180.37142895559325,-165.80454642897274 L243.83047143751276,-23.910273912280367" stroke="#0d6d4d" stroke-width="0.1" fill="none" />
<path d="M-178.8563510745867,-167.4377665889156 L243.93665777717925,22.801469086427936" stroke="#0d6d4d" stroke-width="0.1" fill="none" />
<path d="M-177.32648534428637,-169.057142988525 L235.17538305053756,68.68434470119756" stroke="#0d6d4d" stroke-width="0.1" fill="none" />
<path d="M-175.78195825404364,-170.6625417377043 L217.86513265145044,112.07044202092672" stroke="#0d6d4d" stroke-width="0.1" fill="none" />
<path d="M-174.22289750541202,-172.25383010202907 L192.635159980619,151.3826117466644" stroke="#0d6d4d" stroke-width="0.1" fill="none" />
<path d="M-172.64943200158788,-173.83087651372264 L160.40261214664613,185.1917979191644" stroke="#0d6d4d" stroke-width="0.1" fill="none" />
<path d="M-171.06169183675374,-175.3935505825328 L122.33919030174968,212.26898623282744" stroke="#0d6d4d" stroke-width="0.1" fill="none" />
<path d="M-169.4598082853213,-176.94172310651368 L79.82855655860969,231.6298805373971" stroke="#0d6d4d" stroke-width="0.1" fill="none" />
<path d="M-167.84391379107794,-178.47526608270738 L34.41603581040288,242.57068346998793" stroke="#0d6d4d" stroke-width="0.1" fill="none" />
<path d="M-166.21414195623615,-179.9940527177278 L-12.247559132172052,244.6936805381454" stroke="#0d6d4d" stroke-width="0.1" fill="none" />
<path d="M-164.5706275303878,-181.49795743824325 L-58.465937046886125,237.92169763438883" stroke="#0d6d4d" stroke-width="0.1" fill="none" />
<path d="M-162.9135063993627,-182.98685590135926 L-102.55899101401212,222.5009064300363" stroke="#0d6d4d" stroke-width="0.1" fill="none" />
<path d="M-161.24291557399286,-184.46062500489967 L-142.92387280683798,198.9918756680654" stroke="#0d6d4d" stroke-width="0.1" fill="none" />
<path d="M-159.55899317878604,-185.91914289758358 L-178.09325881354775,168.24919365384991" stroke="#0d6d4d" stroke-width="0.1" fill="none" />
<path d="M-157.8618784405035,-187.36228898910178 L-206.78868943736603,131.39040269660714" stroke="#0d6d4d" stroke-width="0.1" fill="none" />
<path d="M-156.15171167665096,-188.78994396008508 L-227.9670430082813,89.75537478090337" stroke="#0d6d4d" stroke-width="0.1" fill="none" />
<path d="M-154.42863428387528,-190.20198977197137 L-240.85845481038754,44.857605223111236" stroke="#0d6d4d" stroke-width="0.1" fill="none" />
<path d="M-152.69278872627527,-191.59830967676373 L-244.99430281169285,-1.6708051390127872" stroke="#0d6d4d" stroke-width="0.1" fill="none" />
<path d="M-150.9443185236213,-192.97878822668451 L-240.22424277340193,-48.13847924421425" stroke="#0d6d4d" stroke-width="0.1" fill="none" />
<path d="M-149.1833682394906,-194.34331128371912 L-226.7216734870656,-92.85624788469762" stroke="#0d6d4d" stroke-width="0.1" fill="none" />
<path d="M-147.41008346931332,-195.69176602905418 L-204.97743347007918,-134.1985535243181" stroke="#0d6d4d" stroke-width="0.1" fill="none" />
<path d="M-145.62461082833548,-197.02404097240478 L-175.78195825404364,-170.6625417377043" stroke="#0d6d4d" stroke-width="0.1" fill="none" />
<path d="M-143.82709793949718,-198.34002596123227 L-140.19654687515,-200.92269220843093" stroke="#0d6d4d" stroke-width="0.1" fill="none" />
<path d="M-142.01769342122583,-199.63961218985253 L-99.51478207248427,-223.87900336803798" stroke="#0d6d4d" stroke-width="0.1" fill="none" />
<path d="M-140.19654687515,-200.92269220843093 L-55.21550662754394,-238.69697909245448" stroke="#0d6d4d" stroke-width="0.1" fill="none" />
<path d="M-138.36380887372889,-202.18915993186732 L-8.909065225105044,-244.83796387981752" stroke="#0d6d4d" stroke-width="0.1" fill="none" />
<path d="M-136.51963094780388,-203.43891064856652 L37.72123397607812,-242.07872378076098" stroke="#0d6d4d" stroke-width="0.1" fill="none" />
<path d="M-134.6641655740695,-204.67184102909613 L82.98031010359966,-230.5195612851769" stroke="#0d6d4d" stroke-width="0.1" fill="none" />
<path d="M-132.7975661624674,-205.8878491347294 L125.22292828741202,-210.58066917721976" stroke="#0d6d4d" stroke-width="0.1" fill="none" />
<path d="M-130.91998704350112,-207.08683442587437 L162.91350639936266,-182.98685590135926" stroke="#0d6d4d" stroke-width="0.1" fill="none" />
<path d="M-129.03158345547752,-208.2686977703854 L194.68193575213962,-148.7411976951906" stroke="#0d6d4d" stroke-width="0.1" fill="none" />
<path d="M-127.13251153167045,-209.43334145176047 L219.37338659202535,-109.08857527324204" stroke="#0d6d4d" stroke-width="0.1" fill="none" />
<path d="M-125.22292828741202,-210.58066917721976 L236.09028788156894,-65.47042055766791" stroke="#0d6d4d" stroke-width="0.1" fill="none" />
<path d="M-123.30299160711132,-211.71058608566705 L244.22495534451153,-19.472318479609847" stroke="#0d6d4d" stroke-width="0.1" fill="none" />
<path d="M-121.3728602311991,-212.82299875553346 L243.48168169490307,27.23363139615982" stroke="#0d6d4d" stroke-width="0.1" fill="none" />
<path d="M-119.43269374300469,-213.91781521250084 L233.8874860376603,72.94959818246605" stroke="#0d6d4d" stroke-width="0.1" fill="none" />
<path d="M-117.48265255556024,-214.99494493710662 L215.79113168383446,116.01373835287791" stroke="#0d6d4d" stroke-width="0.1" fill="none" />
<path d="M-115.52289789833857,-216.05429887222803 L189.85044808446796,154.86060623065742" stroke="#0d6d4d" stroke-width="0.1" fill="none" />
<path d="M-113.55359180392237,-217.09578943044514 L157.00841774963885,188.07806027220425" stroke="#0d6d4d" stroke-width="0.1" fill="none" />
<path d="M-111.57489709460802,-218.11933050128235 L118.45889742882606,214.45859651677958" stroke="#0d6d4d" stroke-width="0.1" fill="none" />
<path d="M-109.58697736894212,-219.12483745832867 L75.60321963877628,233.04324315510834" stroke="#0d6d4d" stroke-width="0.1" fill="none" />
<path d="M-107.58999698819659,-220.1122271662341 L29.999252138014914,243.15642058386985" stroke="#0d6d4d" stroke-width="0.1" fill="none" />
<path d="M-105.58412106277875,-221.08141798758322 L-16.695232887977124,244.43049973114282" stroke="#0d6d4d" stroke-width="0.1" fill="none" />
<path d="M-103.56951543857872,-222.03232978964573 L-62.78282131640115,236.8191659210733" stroke="#0d6d4d" stroke-width="0.1" fill="none" />
<path d="M-101.54634668325981,-222.9648839510007 L-106.58816062028102,220.5991024813682" stroke="#0d6d4d" stroke-width="0.1" fill="none" />
<path d="M-99.51478207248427,-223.87900336803798 L-146.5188614297159,196.35993289197188" stroke="#0d6d4d" stroke-width="0.1" fill="none" />
<path d="M-97.47498957608481,-224.77461246133237 L-181.12338325872622,164.98278709281337" stroke="#0d6d4d" stroke-width="0.1" fill="none" />
<path d="M-95.42713784417518,-225.65163718189328 L-209.14380016525354,127.6082710972784" stroke="#0d6d4d" stroke-width="0.1" fill="none" />
<path d="M-93.37139619320781,-226.5100050172862 L-229.5615282339304,85.5950042636974" stroke="#0d6d4d" stroke-width="0.1" fill="none" />
<path d="M-91.30793459197334,-227.34964499762896 L-241.6343526194716,40.47023145682344" stroke="#0d6d4d" stroke-width="0.1" fill="none" />
<path d="M-89.2369236475483,-228.17048770145897 L-244.923408162476,-6.125694579163257" stroke="#0d6d4d" stroke-width="0.1" fill="none" />
<path d="M-87.15853459118905,-228.97246526147308 L-239.30913279204256,-52.498942487640136" stroke="#0d6d4d" stroke-width="0.1" fill="none" />
<path d="M-85.07293926417505,-229.7555113701388 L-224.9956137852394,-96.96377559379265" stroke="#0d6d4d" stroke-width="0.1" fill="none" />
<path d="M-82.98031010359966,-230.5195612851769 L-202.50316889041693,-137.9038309451165" stroke="#0d6d4d" stroke-width="0.1" fill="none" />
<path d="M-80.88082012811469,-231.26455183491385 L-172.64943200158788,-173.83087651372264" stroke="#0d6d4d" stroke-width="0.1" fill="none" />
<path d="M-78.77464292362376,-231.99042142350527 L-136.51963094780388,-203.43891064856652" stroke="#0d6d4d" stroke-width="0.1" fill="none" />
<path d="M-76.66195262893095,-232.69711003602848 L-95.42713784417518,-225.65163718189328" stroke="#0d6d4d" stroke-width="0.1" fill="none" />
<path d="M-74.54292392134249,-233.3845592434447 L-50.86572605807706,-239.6615903990138" stroke="#0d6d4d" stroke-width="0.1" fill="none" />
<path d="M-72.41773200222609,-234.05271220742938 L-4.455269320967722,-244.95948762045867" stroke="#0d6d4d" stroke-width="0.1" fill="none" />
<path d="M-70.2865525825227,-234.70151368507248 L42.11714309596305,-241.3527423863963" stroke="#0d6d4d" stroke-width="0.1" fill="none" />
<path d="M-68.14956186822046,-235.33091003344543 L87.15853459118901,-228.9724652614731" stroke="#0d6d4d" stroke-width="0.1" fill="none" />
<path d="M-66.00693654578536,-235.9408492140364 L129.0315834554775,-208.26869777038544" stroke="#0d6d4d" stroke-width="0.1" fill="none" />
<path d="M-63.85885376755356,-236.53128079705274 L166.21414195623606,-179.9940527177279" stroke="#0d6d4d" stroke-width="0.1" fill="none" />
<path d="M-61.7054911370833,-237.10215596559078 L197.3545686761573,-145.17635559087407" stroke="#0d6d4d" stroke-width="0.1" fill="none" />
<path d="M-59.547026694471114,-237.65342751967188 L221.32086269318475,-105.0812815716694" stroke="#0d6d4d" stroke-width="0.1" fill="none" />
<path d="M-57.38363890163222,-238.18504988014485 L237.24181350113116,-61.166346357245345" stroke="#0d6d4d" stroke-width="0.1" fill="none" />
<path d="M-55.21550662754394,-238.69697909245448 L244.53867081000513,-15.02792329218987" stroke="#0d6d4d" stroke-width="0.1" fill="none" />
<path d="M-53.04280913345771,-239.18917283027588 L242.94618298160495,31.656787181716986" stroke="#0d6d4d" stroke-width="0.1" fill="none" />
<path d="M-50.86572605807706,-239.6615903990138 L232.52223932189057,77.19072626121253" stroke="#0d6d4d" stroke-width="0.1" fill="none" />
<path d="M-48.68443740270683,-240.11419273916715 L213.64576571843546,119.91866739829706" stroke="#0d6d4d" stroke-width="0.1" fill="none" />
<path d="M-46.49912351636807,-240.54694242955895 L187.0029501196729,158.2873862521557" stroke="#0d6d4d" stroke-width="0.1" fill="none" />
<path d="M-44.3099650808885,-240.95980369042977 L153.56229858029633,190.90212270882668" stroke="#0d6d4d" stroke-width="0.1" fill="none" />
<path d="M-42.11714309596308,-241.3527423863963 L114.5394286227377,216.5772824900543" stroke="#0d6d4d" stroke-width="0.1" fill="none" />
<path d="M-39.9208388641898,-241.7257260292735 L71.35287972850573,234.37953527227884" stroke="#0d6d4d" stroke-width="0.1" fill="none" />
<path d="M-37.72123397607831,-242.07872378076095 L25.5725473138835,243.66174263490603" stroke="#0d6d4d" stroke-width="0.1" fill="none" />
<path d="M-35.5185102950364,-242.41170645499236 L-21.137385308179738,244.08648250637222" stroke="#0d6d4d" stroke-width="0.1" fill="none" />
<path d="M-33.31284994233509,-242.72464652094862 L-67.07894247174589,235.63831495932956" stroke="#0d6d4d" stroke-width="0.1" fill="none" />
<path d="M-31.104435282048204,-243.01751810473434 L-110.58208010395684,218.6243434750167" stroke="#0d6d4d" stroke-width="0.1" fill="none" />
<path d="M-28.893448905976243,-243.29029699171673 L-150.06539431606961,193.66305127401705" stroke="#0d6d4d" stroke-width="0.1" fill="none" />
<path d="M-26.680073618549052,-243.54296062852814 L-184.09360779168927,161.66181852942177" stroke="#0d6d4d" stroke-width="0.1" fill="none" />
<path d="M-24.464492421712393,-243.77548812493018 L-211.42974425631644,123.78393774520433" stroke="#0d6d4d" stroke-width="0.1" fill="none" />
<path d="M-22.24688849979604,-243.9878602555415 L-231.08009440847835,81.40632633996412" stroke="#0d6d4d" stroke-width="0.1" fill="none" />
<path d="M-20.027445204368966,-244.18005946142694 L-242.33033873383283,36.06947364664255" stroke="#0d6d4d" stroke-width="0.1" fill="none" />
<path d="M-17.8063460390794,-244.35206985154957 L-244.77151408411598,-10.578558170630094" stroke="#0d6d4d" stroke-width="0.1" fill="none" />
<path d="M-15.58377464448359,-244.50387720408432 L-238.31488009708823,-56.84204363242456" stroke="#0d6d4d" stroke-width="0.1" fill="none" />
<path d="M-13.359914782861104,-244.63546896759408 L-223.19514504095773,-101.03923609245" stroke="#0d6d4d" stroke-width="0.1" fill="none" />
<path d="M-11.134950323021798,-244.7468342620673 L-199.96193381902876,-141.56350173457267" stroke="#0d6d4d" stroke-width="0.1" fill="none" />
<path d="M-8.909065225105044,-244.83796387981752 L-169.4598082853213,-176.94172310651368" stroke="#0d6d4d" stroke-width="0.1" fill="none" />
<path d="M-6.6824435253673,-244.9088502862448 L-132.7975661624674,-205.8878491347294" stroke="#0d6d4d" stroke-width="0.1" fill="none" />
<path d="M-4.455269320967722,-244.95948762045867 L-91.30793459197334,-227.34964499762896" stroke="#0d6d4d" stroke-width="0.1" fill="none" />
<path d="M-2.2277267547463535,-244.98987169576253 L-46.49912351636807,-240.54694242955895" stroke="#0d6d4d" stroke-width="0.1" fill="none" />
</svg>