<?xml version="1.0" encoding="UTF-8"?>
<svg xmlns="http://www.w3.org/2000/svg" xmlns:xlink="http://www.w3.org/1999/xlink"
     width="500.0" height="500" viewBox="-250.0 -250.0 500 500">
<defs>
</defs>
<circle cx="0" cy="0" r="245.0" fill="white" stroke-width="2" stroke="black" />
<path d="M0.0,-245.0 L0.0,-245.0" stroke="#0d6d4d" stroke-width="0.1" fill="none" />
<path d="M15.858805501736757,-244.48619242823935 L31.651093661874565,-242.94692480047414" stroke="#0d6d4d" stroke-width="0.1" fill="none" />
<path d="M31.651093661874565,-242.94692480047414 L62.771721401830234,-236.82210832658976" stroke="#0d6d4d" stroke-width="0.1" fill="none" />
<path d="M47.310626135661536,-240.38865334006857 L92.84030779940514,-226.72820126246253" stroke="#0d6d4d" stroke-width="0.1" fill="none" />
<path d="M62.771721401830234,-236.82210832658976 L121.35290943404695,-212.834375446947" stroke="#0d6d4d" stroke-width="0.1" fill="none" />
<path d="M77.96953025372373,-232.26224908928626 L147.83166087481652,-195.37348858786663" stroke="#0d6d4d" stroke-width="0.1" fill="none" />
<path d="M92.84030779940514,-226.72820126246253 L171.83278360826526,-174.6381816139732" stroke="#0d6d4d" stroke-width="0.1" fill="none" />
<path d="M107.32168082988717,-220.24317656592186 L192.9540236764763,-150.9759740722272" stroke="#0d6d4d" stroke-width="0.1" fill="none" />
<path d="M121.35290943404695,-212.834375446947 L210.8413933719617,-124.78343977054693" stroke="#0d6d4d" stroke-width="0.1" fill="none" />
<path d="M134.87514176292188,-204.5328729921714 L225.19510399997398,-96.49956028107535" stroke="#0d6d4d" stroke-width="0.1" fill="none" />
<path d="M147.83166087481652,-195.37348858786663 L235.7745902763374,-66.59836769790402" stroke="#0d6d4d" stroke-width="0.1" fill="none" />
<path d="M160.16812262586686,-185.39463987533534 L242.40254215290722,-35.580999955145145" stroke="#0d6d4d" stroke-width="0.1" fill="none" />
<path d="M171.83278360826526,-174.6381816139732 L244.9678764980799,-3.9673018566128837" stroke="#0d6d4d" stroke-width="0.1" fill="none" />
<path d="M182.7767181800953,-163.14923012786187 L243.42759882758952,27.712887417844694" stroke="#0d6d4d" stroke-width="0.1" fill="none" />
<path d="M192.9540236764763,-150.9759740722272 L237.80752388336,58.92861430973213" stroke="#0d6d4d" stroke-width="0.1" fill="none" />
<path d="M202.32201294129283,-138.16947231347214 L228.20184298365638,89.1567095560544" stroke="#0d6d4d" stroke-width="0.1" fill="none" />
<path d="M210.8413933719617,-124.78343977054693 L214.77154539566018,117.89055640024723" stroke="#0d6d4d" stroke-width="0.1" fill="none" />
<path d="M218.47643172626252,-110.87402211591201 L197.74172018794428,144.64858138645107" stroke="#0d6d4d" stroke-width="0.1" fill="none" />
<path d="M225.19510399997398,-96.49956028107535 L177.39778378325326,168.98232543313554" stroke="#0d6d4d" stroke-width="0.1" fill="none" />
<path d="M230.96922974667638,-81.72034575445107 L154.08069643704195,190.48395991651407" stroke="#0d6d4d" stroke-width="0.1" fill="none" />
<path d="M235.7745902763374,-66.59836769790402 L128.18124781262193,208.79312179571244" stroke="#0d6d4d" stroke-width="0.1" fill="none" />
<path d="M239.5910302369148,-51.19705294266237 L100.13350742552122,223.60295322437736" stroke="#0d6d4d" stroke-width="0.1" fill="none" />
<path d="M242.40254215290722,-35.580999955145145 L70.40754972628294,234.66524442605683" stroke="#0d6d4d" stroke-width="0.1" fill="none" />
<path d="M244.1973335662695,-19.81570788854404 L39.501575747841194,241.79459363980322" stroke="#0d6d4d" stroke-width="0.1" fill="none" />
<path d="M244.9678764980799,-3.9673018566128837 L7.933563357072228,244.87151441615117" stroke="#0d6d4d" stroke-width="0.1" fill="none" />
<path d="M244.71093902349975,11.897744418039803 L-23.767413949388757,243.84443818582042" stroke="#0d6d4d" stroke-width="0.1" fill="none" />
<path d="M243.42759882758952,27.712887417844694 L-55.07005420983879,238.73057853849684" stroke="#0d6d4d" stroke-width="0.1" fill="none" />
<path d="M241.1232386851232,43.41179293690952 L-85.44973151082105,229.61564272655423" stroke="#0d6d4d" stroke-width="0.1" fill="none" />
<path d="M237.80752388336,58.92861430973213 L-114.39728861122394,216.65239522885577" stroke="#0d6d4d" stroke-width="0.1" fill="none" />
<path d="M233.49436168247092,74.19826859499794 L-141.42757031455977,200.05809744901669" stroke="#0d6d4d" stroke-width="0.1" fill="none" />
<path d="M228.20184298365638,89.1567095560544 L-166.0875545718382,180.11086645826418" stroke="#0d6d4d" stroke-width="0.1" fill="none" />
<path d="M221.95216644961945,103.74119629308511 L-187.96394503939158,157.1450138096293" stroke="#0d6d4d" stroke-width="0.1" fill="none" />
<path d="M214.77154539566018,117.89055640024723 L-206.69009784192113,131.54544254400102" stroke="#0d6d4d" stroke-width="0.1" fill="none" />
<path d="M206.6900978419211,131.54544254400102 L-221.95216644961948,103.74119629308505" stroke="#0d6d4d" stroke-width="0.1" fill="none" />
<path d="M197.74172018794428,144.64858138645107 L-233.49436168247095,74.19826859499788" stroke="#0d6d4d" stroke-width="0.1" fill="none" />
<path d="M187.96394503939163,157.1450138096292 L-241.12323868512317,43.411792936909734" stroke="#0d6d4d" stroke-width="0.1" fill="none" />
<path d="M177.39778378325326,168.98232543313554 L-244.71093902349975,11.897744418039753" stroke="#0d6d4d" stroke-width="0.1" fill="none" />
<path d="M166.08755457183824,180.11086645826413 L-244.1973335662695,-19.81570788854409" stroke="#0d6d4d" stroke-width="0.1" fill="none" />
<path d="M154.08069643704195,190.48395991651407 L-239.59103023691483,-51.19705294266225" stroke="#0d6d4d" stroke-width="0.1" fill="none" />
<path d="M141.4275703145598,200.05809744901666 L-230.96922974667643,-81.72034575445093" stroke="#0d6d4d" stroke-width="0.1" fill="none" />
<path d="M128.18124781262193,208.79312179571244 L-218.47643172626258,-110.87402211591191" stroke="#0d6d4d" stroke-width="0.1" fill="none" />
<path d="M114.397288611224,216.65239522885574 L-202.3220129412929,-138.169472313472" stroke="#0d6d4d" stroke-width="0.1" fill="none" />
<path d="M100.13350742552122,223.60295322437736 L-182.77671818009523,-163.14923012786195" stroke="#0d6d4d" stroke-width="0.1" fill="none" />
<path d="M85.4497315108212,229.61564272655417 L-160.16812262586694,-185.3946398753353" stroke="#0d6d4d" stroke-width="0.1" fill="none" />
<path d="M70.40754972628294,234.66524442605683 L-134.8751417629219,-204.5328729921714" stroke="#0d6d4d" stroke-width="0.1" fill="none" />
<path d="M55.07005420983874,238.73057853849687 L-107.32168082988724,-220.24317656592183" stroke="#0d6d4d" stroke-width="0.1" fill="none" />
<path d="M39.501575747841194,241.79459363980322 L-77.9695302537238,-232.26224908928623" stroke="#0d6d4d" stroke-width="0.1" fill="none" />
<path d="M23.767413949388708,243.84443818582045 L-47.310626135661394,-240.3886533400686" stroke="#0d6d4d" stroke-width="0.1" fill="none" />
<path d="M7.933563357072228,244.87151441615117 L-15.858805501736821,-244.48619242823935" stroke="#0d6d4d" stroke-width="0.1" fill="none" />
<path d="M-7.9335633570720585,244.87151441615117 L15.858805501736757,-244.48619242823935" stroke="#0d6d4d" stroke-width="0.1" fill="none" />
<path d="M-23.767413949388757,243.84443818582042 L47.310626135661536,-240.38865334006857" stroke="#0d6d4d" stroke-width="0.1" fill="none" />
<path d="M-39.50157574784114,241.79459363980322 L77.96953025372373,-232.26224908928626" stroke="#0d6d4d" stroke-width="0.1" fill="none" />
<path d="M-55.07005420983879,238.73057853849684 L107.32168082988717,-220.24317656592186" stroke="#0d6d4d" stroke-width="0.1" fill="none" />
<path d="M-70.4075497262829,234.66524442605686 L134.87514176292188,-204.5328729921714" stroke="#0d6d4d" stroke-width="0.1" fill="none" />
<path d="M-85.44973151082105,229.61564272655423 L160.16812262586686,-185.39463987533534" stroke="#0d6d4d" stroke-width="0.1" fill="none" />
<path d="M-100.13350742552126,223.60295322437733 L182.7767181800953,-163.14923012786187" stroke="#0d6d4d" stroke-width="0.1" fill="none" />
<path d="M-114.39728861122394,216.65239522885577 L202.32201294129283,-138.16947231347214" stroke="#0d6d4d" stroke-width="0.1" fill="none" />
<path d="M-128.1812478126218,208.79312179571252 L218.47643172626252,-110.87402211591201" stroke="#0d6d4d" stroke-width="0.1" fill="none" />
<path d="M-141.42757031455977,200.05809744901669 L230.96922974667638,-81.72034575445107" stroke="#0d6d4d" stroke-width="0.1" fill="none" />
<path d="M-154.08069643704184,190.48395991651412 L239.5910302369148,-51.19705294266237" stroke="#0d6d4d" stroke-width="0.1" fill="none" />
<path d="M-166.0875545718382,180.11086645826418 L244.1973335662695,-19.81570788854404" stroke="#0d6d4d" stroke-width="0.1" fill="none" />
<path d="M-177.3977837832533,168.98232543313551 L244.71093902349975,11.897744418039803" stroke="#0d6d4d" stroke-width="0.1" fill="none" />
<path d="M-187.96394503939158,157.1450138096293 L241.1232386851232,43.41179293690952" stroke="#0d6d4d" stroke-width="0.1" fill="none" />
<path d="M-197.74172018794428,144.64858138645104 L233.49436168247092,74.19826859499794" stroke="#0d6d4d" stroke-width="0.1" fill="none" />
<path d="M-206.69009784192113,131.54544254400102 L221.95216644961945,103.74119629308511" stroke="#0d6d4d" stroke-width="0.1" fill="none" />
<path d="M-214.7715453956601,117.89055640024739 L206.6900978419211,131.54544254400102" stroke="#0d6d4d" stroke-width="0.1" fill="none" />
<path d="M-221.95216644961948,103.74119629308505 L187.96394503939163,157.1450138096292" stroke="#0d6d4d" stroke-width="0.1" fill="none" />
<path d="M-228.20184298365638,89.1567095560544 L166.08755457183824,180.11086645826413" stroke="#0d6d4d" stroke-width="0.1" fill="none" />
<path d="M-233.49436168247095,74.19826859499788 L141.4275703145598,200.05809744901666" stroke="#0d6d4d" stroke-width="0.1" fill="none" />
<path d="M-237.80752388336,58.92861430973209 L114.397288611224,216.65239522885574" stroke="#0d6d4d" stroke-width="0.1" fill="none" />
<path d="M-241.12323868512317,43.411792936909734 L85.4497315108212,229.61564272655417" stroke="#0d6d4d" stroke-width="0.1" fill="none" />
<path d="M-243.42759882758955,27.71288741784459 L55.07005420983874,238.73057853849687" stroke="#0d6d4d" stroke-width="0.1" fill="none" />
<path d="M-244.71093902349975,11.897744418039753 L23.767413949388708,243.84443818582045" stroke="#0d6d4d" stroke-width="0.1" fill="none" />
<path d="M-244.9678764980799,-3.9673018566127145 L-7.9335633570720585,244.87151441615117" stroke="#0d6d4d" stroke-width="0.1" fill="none" />
<path d="M-244.1973335662695,-19.81570788854409 L-39.50157574784114,241.79459363980322" stroke="#0d6d4d" stroke-width="0.1" fill="none" />
<path d="M-242.40254215290724,-35.580999955144975 L-70.4075497262829,234.66524442605686" stroke="#0d6d4d" stroke-width="0.1" fill="none" />
<path d="M-239.59103023691483,-51.19705294266225 L-100.13350742552126,223.60295322437733" stroke="#0d6d4d" stroke-width="0.1" fill="none" />
<path d="M-235.77459027633745,-66.59836769790387 L-128.1812478126218,208.79312179571252" stroke="#0d6d4d" stroke-width="0.1" fill="none" />
<path d="M-230.96922974667643,-81.72034575445093 L-154.08069643704184,190.48395991651412" stroke="#0d6d4d" stroke-width="0.1" fill="none" />
<path d="M-225.19510399997395,-96.49956028107545 L-177.3977837832533,168.98232543313551" stroke="#0d6d4d" stroke-width="0.1" fill="none" />
<path d="M-218.47643172626258,-110.87402211591191 L-197.74172018794428,144.64858138645104" stroke="#0d6d4d" stroke-width="0.1" fill="none" />
<path d="M-210.84139337196174,-124.78343977054682 L-214.7715453956601,117.89055640024739" stroke="#0d6d4d" stroke-width="0.1" fill="none" />
<path d="M-202.3220129412929,-138.169472313472 L-228.20184298365638,89.1567095560544" stroke="#0d6d4d" stroke-width="0.1" fill="none" />
<path d="M-192.95402367647625,-150.97597407222725 L-237.80752388336,58.92861430973209" stroke="#0d6d4d" stroke-width="0.1" fill="none" />
<path d="M-182.77671818009523,-163.14923012786195 L-243.42759882758955,27.71288741784459" stroke="#0d6d4d" stroke-width="0.1" fill="none" />
<path d="M-171.83278360826534,-174.63818161397307 L-244.9678764980799,-3.9673018566127145" stroke="#0d6d4d" stroke-width="0.1" fill="none" />
<path d="M-160.16812262586694,-185.3946398753353 L-242.40254215290724,-35.580999955144975" stroke="#0d6d4d" stroke-width="0.1" fill="none" />
<path d="M-147.8316608748166,-195.37348858786655 L-235.77459027633745,-66.59836769790387" stroke="#0d6d4d" stroke-width="0.1" fill="none" />
<path d="M-134.8751417629219,-204.5328729921714 L-225.19510399997395,-96.49956028107545" stroke="#0d6d4d" stroke-width="0.1" fill="none" />
<path d="M-121.35290943404684,-212.8343754469471 L-210.84139337196174,-124.78343977054682" stroke="#0d6d4d" stroke-width="0.1" fill="none" />
<path d="M-107.32168082988724,-220.24317656592183 L-192.95402367647625,-150.97597407222725" stroke="#0d6d4d" stroke-width="0.1" fill="none" />
<path d="M-92.84030779940521,-226.72820126246248 L-171.83278360826534,-174.63818161397307" stroke="#0d6d4d" stroke-width="0.1" fill="none" />
<path d="M-77.9695302537238,-232.26224908928623 L-147.8316608748166,-195.37348858786655" stroke="#0d6d4d" stroke-width="0.1" fill="none" />
<path d="M-62.771721401830305,-236.82210832658973 L-121.35290943404684,-212.8343754469471" stroke="#0d6d4d" stroke-width="0.1" fill="none" />
<path d="M-47.310626135661394,-240.3886533400686 L-92.84030779940521,-226.72820126246248" stroke="#0d6d4d" stroke-width="0.1" fill="none" />
<path d="M-31.651093661874633,-242.94692480047414 L-62.771721401830305,-236.82210832658973" stroke="#0d6d4d" stroke-width="0.1" fill="none" />
<path d="M-15.858805501736821,-244.48619242823935 L-31.651093661874633,-242.94692480047414" stroke="#0d6d4d" stroke-width="0.1" fill="none" />
</svg>