<?xml version="1.0" encoding="UTF-8"?>
<svg xmlns="http://www.w3.org/2000/svg" xmlns:xlink="http://www.w3.org/1999/xlink"
     width="500.0" height="500" viewBox="-250.0 -250.0 500 500">
<defs>
</defs>
<circle cx="0" cy="0" r="245.0" fill="white" stroke-width="2" stroke="black" />
<path d="M0.0,-245.0 L0.0,-245.0" stroke="#0d6d4d" stroke-width="0.1" fill="none" />
<path d="M2.2805306221851165,-244.98938585187986 L47.58741604889314,-240.33401306055194" stroke="#0d6d4d" stroke-width="0.1" fill="none" />
<path d="M4.560863645269691,-244.95754432719409 L93.36224220581715,-226.51377823501673" stroke="#0d6d4d" stroke-width="0.1" fill="none" />
<path d="M6.840801487274375,-244.9044781848868 L135.5809295646193,-204.06570397397437" stroke="#0d6d4d" stroke-width="0.1" fill="none" />
<path d="M9.120146600460721,-244.83019202293272 L172.63538144108068,-173.84483045144762" stroke="#0d6d4d" stroke-width="0.1" fill="none" />
<path d="M11.39870148844793,-244.7346922779385 L203.1142052759852,-137.002261350333" stroke="#0d6d4d" stroke-width="0.1" fill="none" />
<path d="M13.676268723325132,-244.61798722458536 L225.8564721391826,-94.94131868076522" stroke="#0d6d4d" stroke-width="0.1" fill="none" />
<path d="M15.952650962757764,-244.48008697491176 L239.9959361518393,-49.26409068076132" stroke="#0d6d4d" stroke-width="0.1" fill="none" />
<path d="M18.227650967086493,-244.3210034774376 L244.9940295228217,-1.710408773000598" stroke="#0d6d4d" stroke-width="0.1" fill="none" />
<path d="M20.501071616417292,-244.14075051612858 L240.66037642852874,45.90842207350253" stroke="#0d6d4d" stroke-width="0.1" fill="none" />
<path d="M22.772715927701093,-243.9393437092021 L227.1600443688629,91.77861538689845" stroke="#0d6d4d" stroke-width="0.1" fill="none" />
<path d="M25.04238707180158,-243.7168005077739 L205.00725679744562,134.15298975567475" stroke="#0d6d4d" stroke-width="0.1" fill="none" />
<path d="M27.30988839054974,-243.47314019434612 L175.0458065100368,171.41751842577452" stroke="#0d6d4d" stroke-width="0.1" fill="none" />
<path d="M29.575023413783434,-243.2083838811363 L138.4169158391098,202.15280707818232" stroke="#0d6d4d" stroke-width="0.1" fill="none" />
<path d="M31.837595876370838,-242.92255450824837 L96.51576784978297,225.18815811753245" stroke="#0d6d4d" stroke-width="0.1" fill="none" />
<path d="M34.09740973521603,-242.61567684168475 L50.93836425035103,239.64616217978238" stroke="#0d6d4d" stroke-width="0.1" fill="none" />
<path d="M36.354269186245375,-242.28777747120057 L3.4207341830906266,244.97611838227954" stroke="#0d6d4d" stroke-width="0.1" fill="none" />
<path d="M38.60797868137315,-241.93888480799987 L-44.227190586387124,240.97501034927956" stroke="#0d6d4d" stroke-width="0.1" fill="none" />
<path d="M40.85834294544505,-241.56902908227372 L-90.19051540774609,227.7952390426216" stroke="#0d6d4d" stroke-width="0.1" fill="none" />
<path d="M43.10516699315806,-241.17824234058088 L-132.71851151927123,205.93881785644265" stroke="#0d6d4d" stroke-width="0.1" fill="none" />
<path d="M45.348256145955084,-240.76655844307126 L-170.19130076245435,176.23825108296953" stroke="#0d6d4d" stroke-width="0.1" fill="none" />
<path d="M47.58741604889314,-240.33401306055194 L-201.1815562377574,139.82482408268586" stroke="#0d6d4d" stroke-width="0.1" fill="none" />
<path d="M49.82245268748345,-239.88064367139643 L-224.5088687427487,98.08551297643933" stroke="#0d6d4d" stroke-width="0.1" fill="none" />
<path d="M52.05317240450208,-239.40648955829744 L-239.28470819187115,52.6101551559305" stroke="#0d6d4d" stroke-width="0.1" fill="none" />
<path d="M54.27938191676949,-238.911591804863 L-244.94626745133715,5.1308928714223985" stroke="#0d6d4d" stroke-width="0.1" fill="none" />
<path d="M56.50088833189784,-238.39599329205683 L-241.277899487991,-42.543803528397845" stroke="#0d6d4d" stroke-width="0.1" fill="none" />
<path d="M58.71749916500438,-237.85973869448296 L-228.4193312978005,-88.59801967011259" stroke="#0d6d4d" stroke-width="0.1" fill="none" />
<path d="M60.929022355389414,-237.3028744765146 L-206.8603417479937,-131.2775647698542" stroke="#0d6d4d" stroke-width="0.1" fill="none" />
<path d="M63.135266283177785,-236.72544888826855 L-177.4221060521795,-168.95678821523916" stroke="#0d6d4d" stroke-width="0.1" fill="none" />
<path d="M65.33603978592178,-236.127511961424 L-141.22591746159938,-200.20050009210647" stroke="#0d6d4d" stroke-width="0.1" fill="none" />
<path d="M67.53115217516479,-235.50911550488814 L-99.65047755357104,-223.81863712243725" stroke="#0d6d4d" stroke-width="0.1" fill="none" />
<path d="M69.72041325296365,-234.87031310030642 L-54.27938191676962,-238.91159180486298" stroke="#0d6d4d" stroke-width="0.1" fill="none" />
<path d="M71.90363332836851,-234.21116009742047 L-6.840801487274446,-244.9044781848868" stroke="#0d6d4d" stroke-width="0.1" fill="none" />
<path d="M74.08062323385889,-233.53171360927203 L40.85834294544505,-241.56902908227372" stroke="#0d6d4d" stroke-width="0.1" fill="none" />
<path d="M76.25119434173432,-232.83203250725418 L87.00120578999358,-229.03229071702353" stroke="#0d6d4d" stroke-width="0.1" fill="none" />
<path d="M78.41515858045803,-232.1121774160107 L129.8302197371352,-207.77178355832436" stroke="#0d6d4d" stroke-width="0.1" fill="none" />
<path d="M80.5723284509529,-231.37221070818288 L167.7140409525287,-178.59731371824583" stroke="#0d6d4d" stroke-width="0.1" fill="none" />
<path d="M82.72251704284724,-230.61219649900534 L199.20968645652175,-142.62012768853592" stroke="#0d6d4d" stroke-width="0.1" fill="none" />
<path d="M84.86553805067005,-229.83220064075067 L223.1174968975134,-101.21058530701274" stroke="#0d6d4d" stroke-width="0.1" fill="none" />
<path d="M87.00120578999358,-229.03229071702353 L238.52683120392425,-55.94596317711069" stroke="#0d6d4d" stroke-width="0.1" fill="none" />
<path d="M89.12933521352211,-228.21253603690488 L244.85075261967847,-8.550376692112765" stroke="#0d6d4d" stroke-width="0.1" fill="none" />
<path d="M91.24974192712568,-227.37300762894648 L241.84838494288206,39.17089098449948" stroke="#0d6d4d" stroke-width="0.1" fill="none" />
<path d="M93.36224220581715,-226.51377823501673 L229.63408742551343,85.40015159384468" stroke="#0d6d4d" stroke-width="0.1" fill="none" />
<path d="M95.46665300967103,-225.63492230399768 L208.6730988650467,128.37654696266932" stroke="#0d6d4d" stroke-width="0.1" fill="none" />
<path d="M97.56279199968347,-224.73651598533448 L179.7638168032048,166.46311954407145" stroke="#0d6d4d" stroke-width="0.1" fill="none" />
<path d="M99.65047755357105,-223.81863712243722 L144.00738681165595,198.2091636218621" stroke="#0d6d4d" stroke-width="0.1" fill="none" />
<path d="M101.72952878150761,-222.8813652459362 L102.76576019931345,222.4054822405626" stroke="#0d6d4d" stroke-width="0.1" fill="none" />
<path d="M103.79976554179785,-221.92478156679078 L57.60981771013455,238.13044514174385" stroke="#0d6d4d" stroke-width="0.1" fill="none" />
<path d="M105.86100845648566,-220.9489689692529 L10.259535163653954,244.7850933742203" stroke="#0d6d4d" stroke-width="0.1" fill="none" />
<path d="M107.91307892689669,-219.95401200368536 L-37.48152988958935,242.11595345440543" stroke="#0d6d4d" stroke-width="0.1" fill="none" />
<path d="M109.95579914911323,-218.93999687923602 L-83.79493511478883,230.22469209254757" stroke="#0d6d4d" stroke-width="0.1" fill="none" />
<path d="M111.98899212938008,-217.90701145636788 L-126.91661729641694,209.5642437393241" stroke="#0d6d4d" stroke-width="0.1" fill="none" />
<path d="M114.0124816994405,-216.8551452392466 L-165.20408495801223,180.92155845334153" stroke="#0d6d4d" stroke-width="0.1" fill="none" />
<path d="M116.0260925318005,-215.7844893679851 L-197.198980352199,145.3876272179068" stroke="#0d6d4d" stroke-width="0.1" fill="none" />
<path d="M118.02965015492023,-214.6951366107466 L-221.68262785417474,104.31592643344287" stroke="#0d6d4d" stroke-width="0.1" fill="none" />
<path d="M120.02298096833131,-213.58718135570678 L-237.72245293761912,59.27086442191862" stroke="#0d6d4d" stroke-width="0.1" fill="none" />
<path d="M122.00591225767857,-212.4607196028754 L-244.70750364865134,11.968193599925202" stroke="#0d6d4d" stroke-width="0.1" fill="none" />
<path d="M123.97827220968512,-211.31584895577808 L-242.37172157593213,-35.79034199779074" stroke="#0d6d4d" stroke-width="0.1" fill="none" />
<path d="M125.93988992703936,-210.15266861299955 L-230.8040759328877,-82.18563458881245" stroke="#0d6d4d" stroke-width="0.1" fill="none" />
<path d="M127.8905954432024,-208.97127935958838 L-210.4451747480129,-125.45050189328985" stroke="#0d6d4d" stroke-width="0.1" fill="none" />
<path d="M129.8302197371352,-207.77178355832436 L-182.07048224196168,-163.93699855792016" stroke="#0d6d4d" stroke-width="0.1" fill="none" />
<path d="M131.75859474794345,-206.55428514084915 L-146.7607816363186,-196.17918588243967" stroke="#0d6d4d" stroke-width="0.1" fill="none" />
<path d="M133.6755533894394,-205.31888959866097 L-105.86100845648565,-220.9489689692529" stroke="#0d6d4d" stroke-width="0.1" fill="none" />
<path d="M135.5809295646193,-204.06570397397437 L-60.92902235538956,-237.30287447651457" stroke="#0d6d4d" stroke-width="0.1" fill="none" />
<path d="M137.474558180055,-202.79483685044517 L-13.67626872332521,-244.61798722458536" stroke="#0d6d4d" stroke-width="0.1" fill="none" />
<path d="M139.35627516019866,-201.50639834376227 L34.09740973521603,-242.61567684168475" stroke="#0d6d4d" stroke-width="0.1" fill="none" />
<path d="M141.22591746159932,-200.20050009210647 L80.5723284509529,-231.37221070818288" stroke="#0d6d4d" stroke-width="0.1" fill="none" />
<path d="M143.0833230870299,-198.87725524647763 L123.97827220968512,-211.31584895577808" stroke="#0d6d4d" stroke-width="0.1" fill="none" />
<path d="M144.92833109952358,-197.53677846089033 L162.6619220997992,-183.2105321721403" stroke="#0d6d4d" stroke-width="0.1" fill="none" />
<path d="M146.76078163631854,-196.1791858824397 L195.14982991592808,-148.12678314128183" stroke="#0d6d4d" stroke-width="0.1" fill="none" />
<path d="M148.58051592270928,-194.8045951412377 L220.20454134329592,-107.40093096332396" stroke="#0d6d4d" stroke-width="0.1" fill="none" />
<path d="M150.38737628580395,-193.41312534022092 L236.87173020809254,-62.58421069426873" stroke="#0d6d4d" stroke-width="0.1" fill="none" />
<path d="M152.18120616818604,-192.00489704483076 L244.51654846492653,-15.383677284681811" stroke="#0d6d4d" stroke-width="0.1" fill="none" />
<path d="M153.96185014147937,-190.5800322725669 L242.8478073616277,32.40281561299498" stroke="#0d6d4d" stroke-width="0.1" fill="none" />
<path d="M155.72915391981556,-189.13865448241506 L231.9290687283456,78.9550953314752" stroke="#0d6d4d" stroke-width="0.1" fill="none" />
<path d="M157.48296437320212,-187.68088856414965 L212.17622392718752,122.49999999999994" stroke="#0d6d4d" stroke-width="0.1" fill="none" />
<path d="M159.2231295407907,-186.20686082751243 L184.34165267945247,161.3789177290767" stroke="#0d6d4d" stroke-width="0.1" fill="none" />
<path d="M160.94949864404379,-184.71669899126866 L149.4855651558106,194.11096262202173" stroke="#0d6d4d" stroke-width="0.1" fill="none" />
<path d="M162.6619220997992,-183.2105321721403 L108.93561890030729,219.4493812586561" stroke="#0d6d4d" stroke-width="0.1" fill="none" />
<path d="M164.36025153323072,-181.68849087361895 L64.23634876701188,236.4290411457163" stroke="#0d6d4d" stroke-width="0.1" fill="none" />
<path d="M166.04433979070438,-180.150706974658 L17.090336067310755,244.40319231365692" stroke="#0d6d4d" stroke-width="0.1" fill="none" />
<path d="M167.7140409525287,-178.59731371824583 L-30.70664222325456,243.06810182204708" stroke="#0d6d4d" stroke-width="0.1" fill="none" />
<path d="M169.36921034559793,-177.0284456998609 L-77.33401405203998,232.47462285290172" stroke="#0d6d4d" stroke-width="0.1" fill="none" />
<path d="M171.00970455592764,-175.44423885580952 L-121.01575731313653,213.0262577287787" stroke="#0d6d4d" stroke-width="0.1" fill="none" />
<path d="M172.63538144108068,-173.84483045144762 L-160.08804797757574,185.4637886346804" stroke="#0d6d4d" stroke-width="0.1" fill="none" />
<path d="M174.2461001424836,-172.23035906928712 L-193.0626346336469,150.83706145478627" stroke="#0d6d4d" stroke-width="0.1" fill="none" />
<path d="M175.84172109763128,-170.60096459698832 L-218.68352552077073,110.46499746891061" stroke="#0d6d4d" stroke-width="0.1" fill="none" />
<path d="M177.42210605217954,-168.95678821523913 L-235.97482886542625,65.88535605074013" stroke="#0d6d4d" stroke-width="0.1" fill="none" />
<path d="M178.9871180719243,-167.29797238552246 L-244.27792429559543,18.796161891070746" stroke="#0d6d4d" stroke-width="0.1" fill="none" />
<path d="M180.53662155466657,-165.6246608377723 L-243.27654948610157,-29.00897223509262" stroke="#0d6d4d" stroke-width="0.1" fill="none" />
<path d="M182.0704822419616,-163.93699855792028 L-233.00884649231264,-75.70916362186207" stroke="#0d6d4d" stroke-width="0.1" fill="none" />
<path d="M183.58856723075192,-162.23513177533306 L-213.86590893110335,-119.52561648898951" stroke="#0d6d4d" stroke-width="0.1" fill="none" />
<path d="M185.0907449848831,-160.51920795014215 L-186.5768853465006,-158.78937576046695" stroke="#0d6d4d" stroke-width="0.1" fill="none" />
<path d="M186.5768853465005,-158.7893757604671 L-152.18120616818607,-192.0048970448307" stroke="#0d6d4d" stroke-width="0.1" fill="none" />
<path d="M188.04685954732722,-157.04578508953304 L-111.98899212938008,-217.90701145636788" stroke="#0d6d4d" stroke-width="0.1" fill="none" />
<path d="M189.50054021982118,-155.28858701268405 L-67.53115217516473,-235.50911550488814" stroke="#0d6d4d" stroke-width="0.1" fill="none" />
<path d="M190.93780140821116,-153.51793378429284 L-20.501071616417384,-244.14075051612855" stroke="#0d6d4d" stroke-width="0.1" fill="none" />
<path d="M192.3585185794103,-151.73397882456874 L27.30988839054974,-243.47314019434612" stroke="#0d6d4d" stroke-width="0.1" fill="none" />
<path d="M193.76256863380638,-149.9368767062642 L74.08062323385889,-233.53171360927203" stroke="#0d6d4d" stroke-width="0.1" fill="none" />
<path d="M195.14982991592808,-148.12678314128183 L118.02965015492023,-214.6951366107466" stroke="#0d6d4d" stroke-width="0.1" fill="none" />
<path d="M196.52018222498572,-146.30385496718262 L157.48296437320212,-187.68088856414965" stroke="#0d6d4d" stroke-width="0.1" fill="none" />
<path d="M197.87350682528634,-144.46825013359634 L190.93780140821116,-153.51793378429284" stroke="#0d6d4d" stroke-width="0.1" fill="none" />
<path d="M199.20968645652175,-142.62012768853592 L217.11987691164762,-113.50752860436614" stroke="#0d6d4d" stroke-width="0.1" fill="none" />
<path d="M200.52860534392846,-140.7596477646168 L235.03192376231408,-69.17365692650473" stroke="#0d6d4d" stroke-width="0.1" fill="none" />
<path d="M201.8301492083193,-138.8869715651816 L243.99167766091273,-22.20498214845613" stroke="#0d6d4d" stroke-width="0.1" fill="none" />
<path d="M203.1142052759852,-137.002261350333 L243.65786436522694,25.60947350057512" stroke="#0d6d4d" stroke-width="0.1" fill="none" />
<path d="M204.3806622884666,-135.10568042287406 L234.0431987199742,72.44847226079142" stroke="#0d6d4d" stroke-width="0.1" fill="none" />
<path d="M205.62941051219354,-133.19739311415893 L215.51390035232103,116.52793122221746" stroke="#0d6d4d" stroke-width="0.1" fill="none" />
<path d="M206.86034174799366,-131.2775647698542 L188.77574448006837,156.16887748842896" stroke="#0d6d4d" stroke-width="0.1" fill="none" />
<path d="M208.07334934046736,-129.34636173561216 L154.8471791528885,189.86139973252395" stroke="#0d6d4d" stroke-width="0.1" fill="none" />
<path d="M209.26832818722875,-127.40395134265782 L115.02053288254322,216.32216025043712" stroke="#0d6d4d" stroke-width="0.1" fill="none" />
<path d="M210.4451747480128,-125.45050189329001 L70.81279025139555,234.54327689535648" stroke="#0d6d4d" stroke-width="0.1" fill="none" />
<path d="M211.60378705364622,-123.4861826462991 L23.907810440991575,243.83071299554865" stroke="#0d6d4d" stroke-width="0.1" fill="none" />
<path d="M212.74406471488322,-121.51116380230083 L-23.907810440991515,243.83071299554865" stroke="#0d6d4d" stroke-width="0.1" fill="none" />
<path d="M213.86590893110335,-119.52561648898954 L-70.81279025139551,234.5432768953565" stroke="#0d6d4d" stroke-width="0.1" fill="none" />
<path d="M214.96922249887257,-117.52971274631032 L-115.02053288254316,216.32216025043715" stroke="#0d6d4d" stroke-width="0.1" fill="none" />
<path d="M216.05390982036525,-115.52362551155272 L-154.84717915288846,189.861399732524" stroke="#0d6d4d" stroke-width="0.1" fill="none" />
<path d="M217.11987691164762,-113.50752860436614 L-188.77574448006825,156.16887748842913" stroke="#0d6d4d" stroke-width="0.1" fill="none" />
<path d="M218.16703141082084,-111.48159671169908 L-215.513900352321,116.52793122221752" stroke="#0d6d4d" stroke-width="0.1" fill="none" />
<path d="M219.1952825860241,-109.44600537266332 L-234.04319871997419,72.44847226079148" stroke="#0d6d4d" stroke-width="0.1" fill="none" />
<path d="M220.20454134329592,-107.40093096332396 L-243.65786436522697,25.60947350057507" stroke="#0d6d4d" stroke-width="0.1" fill="none" />
<path d="M221.1947202342939,-105.34655068141747 L-243.99167766091276,-22.204982148456015" stroke="#0d6d4d" stroke-width="0.1" fill="none" />
<path d="M222.16573346387182,-103.2830425309976 L-235.0319237623141,-69.17365692650468" stroke="#0d6d4d" stroke-width="0.1" fill="none" />
<path d="M223.1174968975134,-101.21058530701274 L-217.11987691164762,-113.50752860436614" stroke="#0d6d4d" stroke-width="0.1" fill="none" />
<path d="M224.04992806862222,-99.12935857981337 L-190.93780140821113,-153.5179337842929" stroke="#0d6d4d" stroke-width="0.1" fill="none" />
<path d="M224.96294618566714,-97.03954267959344 L-157.4829643732022,-187.6808885641496" stroke="#0d6d4d" stroke-width="0.1" fill="none" />
<path d="M225.8564721391826,-94.94131868076522 L-118.02965015492025,-214.69513661074657" stroke="#0d6d4d" stroke-width="0.1" fill="none" />
<path d="M226.73042850862322,-92.8348683862701 L-74.08062323385906,-233.53171360927197" stroke="#0d6d4d" stroke-width="0.1" fill="none" />
<path d="M227.5847395690717,-90.7203743118259 L-27.30988839054984,-243.47314019434612" stroke="#0d6d4d" stroke-width="0.1" fill="none" />
<path d="M228.41933129780048,-88.59801967011265 L20.501071616417292,-244.14075051612858" stroke="#0d6d4d" stroke-width="0.1" fill="none" />
<path d="M229.2341313806852,-86.46798835489793 L67.53115217516479,-235.50911550488814" stroke="#0d6d4d" stroke-width="0.1" fill="none" />
<path d="M230.02906921847062,-84.33046492510316 L111.98899212938008,-217.90701145636788" stroke="#0d6d4d" stroke-width="0.1" fill="none" />
<path d="M230.80407593288768,-82.18563458881249 L152.18120616818604,-192.00489704483076" stroke="#0d6d4d" stroke-width="0.1" fill="none" />
<path d="M231.55908437262164,-80.03368318722491 L186.5768853465005,-158.7893757604671" stroke="#0d6d4d" stroke-width="0.1" fill="none" />
<path d="M232.29402911913039,-77.87479717855197 L213.86590893110335,-119.52561648898954" stroke="#0d6d4d" stroke-width="0.1" fill="none" />
<path d="M233.0088464923126,-75.70916362186213 L233.0088464923126,-75.70916362186213" stroke="#0d6d4d" stroke-width="0.1" fill="none" />
<path d="M233.70347455602572,-73.53697016087237 L243.27654948610154,-29.00897223509273" stroke="#0d6d4d" stroke-width="0.1" fill="none" />
<path d="M234.3778531234521,-71.35840500769005 L244.27792429559545,18.79616189107058" stroke="#0d6d4d" stroke-width="0.1" fill="none" />
<path d="M235.03192376231408,-69.17365692650473 L235.97482886542625,65.88535605074013" stroke="#0d6d4d" stroke-width="0.1" fill="none" />
<path d="M235.66562979993716,-66.98291521723264 L218.68352552077073,110.46499746891057" stroke="#0d6d4d" stroke-width="0.1" fill="none" />
<path d="M236.27891632816002,-64.78636969911457 L193.0626346336469,150.83706145478627" stroke="#0d6d4d" stroke-width="0.1" fill="none" />
<path d="M236.87173020809254,-62.58421069426873 L160.08804797757588,185.4637886346803" stroke="#0d6d4d" stroke-width="0.1" fill="none" />
<path d="M237.44402007471973,-60.37662901120005 L121.01575731313666,213.0262577287786" stroke="#0d6d4d" stroke-width="0.1" fill="none" />
<path d="M237.99573634135254,-58.163815928267596 L77.33401405204013,232.47462285290166" stroke="#0d6d4d" stroke-width="0.1" fill="none" />
<path d="M238.52683120392425,-55.94596317711069 L30.70664222325461,243.06810182204705" stroke="#0d6d4d" stroke-width="0.1" fill="none" />
<path d="M239.0372586451325,-53.72326292603631 L-17.09033606731069,244.40319231365692" stroke="#0d6d4d" stroke-width="0.1" fill="none" />
<path d="M239.52697443842655,-51.49590776336856 L-64.23634876701182,236.42904114571633" stroke="#0d6d4d" stroke-width="0.1" fill="none" />
<path d="M239.9959361518393,-49.26409068076132 L-108.93561890030725,219.44938125865613" stroke="#0d6d4d" stroke-width="0.1" fill="none" />
<path d="M240.44410315166394,-47.028005056476665 L-149.48556515581055,194.11096262202173" stroke="#0d6d4d" stroke-width="0.1" fill="none" />
<path d="M240.8714366059746,-44.787844638629046 L-184.3416526794525,161.37891772907668" stroke="#0d6d4d" stroke-width="0.1" fill="none" />
<path d="M241.27789948799096,-42.54380352839795 L-212.1762239271874,122.50000000000011" stroke="#0d6d4d" stroke-width="0.1" fill="none" />
<path d="M241.6634565792867,-40.29607616320976 L-231.92906872834558,78.95509533147525" stroke="#0d6d4d" stroke-width="0.1" fill="none" />
<path d="M242.02807447284079,-38.0448572998905 L-242.8478073616277,32.402815612994985" stroke="#0d6d4d" stroke-width="0.1" fill="none" />
<path d="M242.37172157593213,-35.790341997790854 L-244.51654846492653,-15.38367728468186" stroke="#0d6d4d" stroke-width="0.1" fill="none" />
<path d="M242.69436811287704,-33.53272560188527 L-236.87173020809257,-62.58421069426862" stroke="#0d6d4d" stroke-width="0.1" fill="none" />
<path d="M242.99598612760911,-31.272203725845717 L-220.20454134329592,-107.40093096332396" stroke="#0d6d4d" stroke-width="0.1" fill="none" />
<path d="M243.27654948610154,-29.00897223509273 L-195.1498299159282,-148.12678314128172" stroke="#0d6d4d" stroke-width="0.1" fill="none" />
<path d="M243.53603387863154,-26.74322722982457 L-162.66192209979926,-183.2105321721403" stroke="#0d6d4d" stroke-width="0.1" fill="none" />
<path d="M243.7744168218866,-24.475165028025515 L-123.97827220968514,-211.31584895577808" stroke="#0d6d4d" stroke-width="0.1" fill="none" />
<path d="M243.99167766091273,-22.20498214845613 L-80.57232845095305,-231.3722107081828" stroke="#0d6d4d" stroke-width="0.1" fill="none" />
<path d="M244.187797570904,-19.932875293625283 L-34.09740973521614,-242.61567684168472" stroke="#0d6d4d" stroke-width="0.1" fill="none" />
<path d="M244.36275955883363,-17.659041332746877 L13.676268723325132,-244.61798722458536" stroke="#0d6d4d" stroke-width="0.1" fill="none" />
<path d="M244.51654846492653,-15.383677284681811 L60.929022355389414,-237.3028744765146" stroke="#0d6d4d" stroke-width="0.1" fill="none" />
<path d="M244.64915096397263,-13.106980300867102 L105.86100845648566,-220.9489689692529" stroke="#0d6d4d" stroke-width="0.1" fill="none" />
<path d="M244.76055556648166,-10.829147648233443 L146.76078163631854,-196.1791858824397" stroke="#0d6d4d" stroke-width="0.1" fill="none" />
<path d="M244.85075261967847,-8.550376692112765 L182.0704822419616,-163.93699855792028" stroke="#0d6d4d" stroke-width="0.1" fill="none" />
<path d="M244.91973430833946,-6.27086487913745 L210.4451747480128,-125.45050189329001" stroke="#0d6d4d" stroke-width="0.1" fill="none" />
<path d="M244.96749465546995,-3.9908097201322437 L230.80407593288768,-82.18563458881249" stroke="#0d6d4d" stroke-width="0.1" fill="none" />
<path d="M244.9940295228217,-1.710408773000598 L242.37172157593213,-35.790341997790854" stroke="#0d6d4d" stroke-width="0.1" fill="none" />
<path d="M244.99933661125183,0.5701403743928378 L244.70750364865134,11.968193599925197" stroke="#0d6d4d" stroke-width="0.1" fill="none" />
<path d="M244.98341546092175,2.850640121342276 L237.72245293761912,59.27086442191855" stroke="#0d6d4d" stroke-width="0.1" fill="none" />
<path d="M244.94626745133715,5.130892871422447 L221.68262785417483,104.31592643344273" stroke="#0d6d4d" stroke-width="0.1" fill="none" />
<path d="M244.88789580122844,7.410701049609346 L197.198980352199,145.38762721790684" stroke="#0d6d4d" stroke-width="0.1" fill="none" />
<path d="M244.8083055682719,9.689867119399393 L165.20408495801226,180.92155845334148" stroke="#0d6d4d" stroke-width="0.1" fill="none" />
<path d="M244.70750364865134,11.968193599925197 L126.91661729641689,209.56424373932416" stroke="#0d6d4d" stroke-width="0.1" fill="none" />
<path d="M244.5854987764607,14.24548308306651 L83.79493511478887,230.22469209254754" stroke="#0d6d4d" stroke-width="0.1" fill="none" />
<path d="M244.44230152294725,16.521538250554872 L37.4815298895894,242.11595345440543" stroke="#0d6d4d" stroke-width="0.1" fill="none" />
<path d="M244.27792429559545,18.79616189107058 L-10.259535163653892,244.7850933742203" stroke="#0d6d4d" stroke-width="0.1" fill="none" />
<path d="M244.09238133705225,21.069156917329835 L-57.60981771013461,238.13044514174382" stroke="#0d6d4d" stroke-width="0.1" fill="none" />
<path d="M243.88568872389266,23.34032638316226 L-102.7657601993134,222.40548224056263" stroke="#0d6d4d" stroke-width="0.1" fill="none" />
<path d="M243.65786436522694,25.60947350057512 L-144.0073868116558,198.20916362186222" stroke="#0d6d4d" stroke-width="0.1" fill="none" />
<path d="M243.40892800114898,27.876401656804145 L-179.76381680320466,166.46311954407162" stroke="#0d6d4d" stroke-width="0.1" fill="none" />
<path d="M243.13890120102556,30.140914431349564 L-208.6730988650466,128.3765469626695" stroke="#0d6d4d" stroke-width="0.1" fill="none" />
<path d="M242.8478073616277,32.40281561299498 L-229.6340874255134,85.40015159384477" stroke="#0d6d4d" stroke-width="0.1" fill="none" />
<path d="M242.53567170510348,34.66190921680834 L-241.848384942882,39.17089098449975" stroke="#0d6d4d" stroke-width="0.1" fill="none" />
<path d="M242.20252127679237,36.91799950112331 L-244.85075261967847,-8.550376692112813" stroke="#0d6d4d" stroke-width="0.1" fill="none" />
<path d="M241.84838494288206,39.17089098449948 L-238.52683120392427,-55.945963177110585" stroke="#0d6d4d" stroke-width="0.1" fill="none" />
<path d="M241.47329338790723,41.42038846266018 L-223.1174968975134,-101.21058530701274" stroke="#0d6d4d" stroke-width="0.1" fill="none" />
<path d="M241.07727911209102,43.66629702540578 L-199.20968645652187,-142.62012768853577" stroke="#0d6d4d" stroke-width="0.1" fill="none" />
<path d="M240.66037642852874,45.90842207350253 L-167.7140409525288,-178.59731371824577" stroke="#0d6d4d" stroke-width="0.1" fill="none" />
<path d="M240.22262146021492,48.14656933554336 L-129.83021973713522,-207.77178355832433" stroke="#0d6d4d" stroke-width="0.1" fill="none" />
<path d="M239.7640521369135,50.380544884780896 L-87.00120578999353,-229.03229071702356" stroke="#0d6d4d" stroke-width="0.1" fill="none" />
<path d="M239.28470819187115,52.61015515593049 L-40.85834294544496,-241.56902908227372" stroke="#0d6d4d" stroke-width="0.1" fill="none" />
<path d="M238.78463115837465,54.83520696194167 L6.840801487274375,-244.9044781848868" stroke="#0d6d4d" stroke-width="0.1" fill="none" />
<path d="M238.26386436615223,57.055507510737414 L54.27938191676949,-238.911591804863" stroke="#0d6d4d" stroke-width="0.1" fill="none" />
<path d="M237.72245293761912,59.27086442191855 L99.65047755357105,-223.81863712243722" stroke="#0d6d4d" stroke-width="0.1" fill="none" />
<path d="M237.16044378396802,61.48108574343291 L141.22591746159932,-200.20050009210647" stroke="#0d6d4d" stroke-width="0.1" fill="none" />
<path d="M236.57788560110416,63.6859799682071 L177.42210605217954,-168.95678821523913" stroke="#0d6d4d" stroke-width="0.1" fill="none" />
<path d="M235.97482886542625,65.88535605074013 L206.86034174799366,-131.2775647698542" stroke="#0d6d4d" stroke-width="0.1" fill="none" />
<path d="M235.35132582945286,68.07902342365612 L228.41933129780048,-88.59801967011265" stroke="#0d6d4d" stroke-width="0.1" fill="none" />
<path d="M234.70743051729477,70.2667920142171 L241.27789948799096,-42.54380352839795" stroke="#0d6d4d" stroke-width="0.1" fill="none" />
<path d="M234.0431987199742,72.44847226079142 L244.94626745133715,5.130892871422447" stroke="#0d6d4d" stroke-width="0.1" fill="none" />
<path d="M233.35868799059057,74.62387512927877 L239.28470819187115,52.61015515593049" stroke="#0d6d4d" stroke-width="0.1" fill="none" />
<path d="M232.65395763933387,76.79281212948928 L224.50886874274872,98.08551297643923" stroke="#0d6d4d" stroke-width="0.1" fill="none" />
<path d="M231.9290687283456,78.9550953314752 L201.18155623775752,139.82482408268575" stroke="#0d6d4d" stroke-width="0.1" fill="none" />
<path d="M231.184084066428,81.11053738181471 L170.1913007624543,176.23825108296958" stroke="#0d6d4d" stroke-width="0.1" fill="none" />
<path d="M230.4190682036018,83.25895151984503 L132.71851151927126,205.93881785644263" stroke="#0d6d4d" stroke-width="0.1" fill="none" />
<path d="M229.63408742551343,85.40015159384468 L90.19051540774615,227.79523904262157" stroke="#0d6d4d" stroke-width="0.1" fill="none" />
<path d="M228.82920974769144,87.53395207716281 L44.227190586387174,240.97501034927956" stroke="#0d6d4d" stroke-width="0.1" fill="none" />
<path d="M228.00450490965335,89.66016808429399 L-3.4207341830904574,244.97611838227954" stroke="#0d6d4d" stroke-width="0.1" fill="none" />
<path d="M227.1600443688629,91.77861538689845 L-50.93836425035108,239.64616217978238" stroke="#0d6d4d" stroke-width="0.1" fill="none" />
<path d="M226.2959012945385,93.88911042976434 L-96.51576784978292,225.18815811753248" stroke="#0d6d4d" stroke-width="0.1" fill="none" />
<path d="M225.41215056131355,95.9914703467121 L-138.41691583910975,202.15280707818235" stroke="#0d6d4d" stroke-width="0.1" fill="none" />
<path d="M224.50886874274872,98.08551297643923 L-175.04580651003678,171.41751842577457" stroke="#0d6d4d" stroke-width="0.1" fill="none" />
<path d="M223.58613410469718,100.17105687830377 L-205.00725679744565,134.15298975567472" stroke="#0d6d4d" stroke-width="0.1" fill="none" />
<path d="M222.64402659852325,102.24792134804537 L-227.16004436886288,91.77861538689851" stroke="#0d6d4d" stroke-width="0.1" fill="none" />
<path d="M221.68262785417483,104.31592643344273 L-240.66037642852874,45.908422073502535" stroke="#0d6d4d" stroke-width="0.1" fill="none" />
<path d="M220.7020211731104,106.37489294990586 L-244.9940295228217,-1.710408773000429" stroke="#0d6d4d" stroke-width="0.1" fill="none" />
<path d="M219.70229152108152,108.42464249600138 L-239.99593615183932,-49.26409068076126" stroke="#0d6d4d" stroke-width="0.1" fill="none" />
<path d="M218.68352552077073,110.46499746891057 L-225.8564721391826,-94.94131868076522" stroke="#0d6d4d" stroke-width="0.1" fill="none" />
<path d="M217.645811444286,112.49578107981782 L-203.1142052759852,-137.00226135033301" stroke="#0d6d4d" stroke-width="0.1" fill="none" />
<path d="M216.5892392055123,114.51681736922909 L-172.63538144108077,-173.84483045144756" stroke="#0d6d4d" stroke-width="0.1" fill="none" />
<path d="M215.51390035232103,116.52793122221746 L-135.58092956461934,-204.06570397397437" stroke="#0d6d4d" stroke-width="0.1" fill="none" />
<path d="M214.41988805863764,118.52894838359657 L-93.36224220581732,-226.51377823501664" stroke="#0d6d4d" stroke-width="0.1" fill="none" />
<path d="M213.30729711636846,120.5196954730193 L-47.58741604889305,-240.33401306055194" stroke="#0d6d4d" stroke-width="0.1" fill="none" />
<path d="M212.17622392718752,122.49999999999994 L0.0,-245.0" stroke="#0d6d4d" stroke-width="0.1" fill="none" />
<path d="M211.02676649418336,124.46969037886056 L47.58741604889314,-240.33401306055194" stroke="#0d6d4d" stroke-width="0.1" fill="none" />
<path d="M209.859024413368,126.42859594359741 L93.36224220581715,-226.51377823501673" stroke="#0d6d4d" stroke-width="0.1" fill="none" />
<path d="M208.6730988650467,128.37654696266932 L135.5809295646193,-204.06570397397437" stroke="#0d6d4d" stroke-width="0.1" fill="none" />
<path d="M207.4690926050516,130.31337465370362 L172.63538144108068,-173.84483045144762" stroke="#0d6d4d" stroke-width="0.1" fill="none" />
<path d="M206.24710995583806,132.23891119812066 L203.1142052759852,-137.002261350333" stroke="#0d6d4d" stroke-width="0.1" fill="none" />
<path d="M205.00725679744562,134.15298975567475 L225.8564721391826,-94.94131868076522" stroke="#0d6d4d" stroke-width="0.1" fill="none" />
<path d="M203.7496405583238,136.05544447891037 L239.9959361518393,-49.26409068076132" stroke="#0d6d4d" stroke-width="0.1" fill="none" />
<path d="M202.47437020602388,137.94611052753172 L244.9940295228217,-1.710408773000598" stroke="#0d6d4d" stroke-width="0.1" fill="none" />
<path d="M201.18155623775752,139.82482408268575 L240.66037642852874,45.90842207350253" stroke="#0d6d4d" stroke-width="0.1" fill="none" />
<path d="M199.87131067082217,141.6914223611567 L227.1600443688629,91.77861538689845" stroke="#0d6d4d" stroke-width="0.1" fill="none" />
<path d="M198.54374703289562,143.54574362947008 L205.00725679744562,134.15298975567475" stroke="#0d6d4d" stroke-width="0.1" fill="none" />
<path d="M197.198980352199,145.38762721790684 L175.0458065100368,171.41751842577452" stroke="#0d6d4d" stroke-width="0.1" fill="none" />
<path d="M195.83712714753017,147.2169135344241 L138.4169158391098,202.15280707818232" stroke="#0d6d4d" stroke-width="0.1" fill="none" />
<path d="M194.4583054181677,149.03344407848397 L96.51576784978297,225.18815811753245" stroke="#0d6d4d" stroke-width="0.1" fill="none" />
<path d="M193.0626346336469,150.83706145478627 L50.93836425035103,239.64616217978238" stroke="#0d6d4d" stroke-width="0.1" fill="none" />
<path d="M191.650235723408,152.6276093869066 L3.4207341830906266,244.97611838227954" stroke="#0d6d4d" stroke-width="0.1" fill="none" />
<path d="M190.22123106631835,154.4049327308371 L-44.227190586387124,240.97501034927956" stroke="#0d6d4d" stroke-width="0.1" fill="none" />
<path d="M188.77574448006837,156.16887748842896 L-90.19051540774609,227.7952390426216" stroke="#0d6d4d" stroke-width="0.1" fill="none" />
<path d="M187.31390121044367,157.91929082073582 L-132.71851151927123,205.93881785644265" stroke="#0d6d4d" stroke-width="0.1" fill="none" />
<path d="M185.83582792047292,159.6560210612565 L-170.19130076245435,176.23825108296953" stroke="#0d6d4d" stroke-width="0.1" fill="none" />
<path d="M184.34165267945247,161.3789177290767 L-201.1815562377574,139.82482408268586" stroke="#0d6d4d" stroke-width="0.1" fill="none" />
<path d="M182.83150495185043,163.08783154190712 L-224.5088687427487,98.08551297643933" stroke="#0d6d4d" stroke-width="0.1" fill="none" />
<path d="M181.3055155860885,164.78261442901862 L-239.28470819187115,52.6101551559305" stroke="#0d6d4d" stroke-width="0.1" fill="none" />
<path d="M179.7638168032048,166.46311954407145 L-244.94626745133715,5.1308928714223985" stroke="#0d6d4d" stroke-width="0.1" fill="none" />
<path d="M178.20654218539698,168.12920127783968 L-241.277899487991,-42.543803528397845" stroke="#0d6d4d" stroke-width="0.1" fill="none" />
<path d="M176.6338266644485,169.78071527082682 L-228.4193312978005,-88.59801967011259" stroke="#0d6d4d" stroke-width="0.1" fill="none" />
<path d="M175.0458065100368,171.41751842577452 L-206.8603417479937,-131.2775647698542" stroke="#0d6d4d" stroke-width="0.1" fill="none" />
<path d="M173.4426193179264,173.03946892006132 L-177.4221060521795,-168.95678821523916" stroke="#0d6d4d" stroke-width="0.1" fill="none" />
<path d="M171.82440399804622,174.6464262179911 L-141.22591746159938,-200.20050009210647" stroke="#0d6d4d" stroke-width="0.1" fill="none" />
<path d="M170.1913007624543,176.23825108296958 L-99.65047755357104,-223.81863712243725" stroke="#0d6d4d" stroke-width="0.1" fill="none" />
<path d="M168.54345111318858,177.81480558956898 L-54.27938191676962,-238.91159180486298" stroke="#0d6d4d" stroke-width="0.1" fill="none" />
<path d="M166.88099783000612,179.3759531354788 L-6.840801487274446,-244.9044781848868" stroke="#0d6d4d" stroke-width="0.1" fill="none" />
<path d="M165.20408495801226,180.92155845334148 L40.85834294544505,-241.56902908227372" stroke="#0d6d4d" stroke-width="0.1" fill="none" />
<path d="M163.5128577951792,182.45148762247322 L87.00120578999358,-229.03229071702353" stroke="#0d6d4d" stroke-width="0.1" fill="none" />
<path d="M161.80746287975697,183.96560808046723 L129.8302197371352,-207.77178355832436" stroke="#0d6d4d" stroke-width="0.1" fill="none" />
<path d="M160.08804797757588,185.4637886346803 L167.7140409525287,-178.59731371824583" stroke="#0d6d4d" stroke-width="0.1" fill="none" />
<path d="M158.35476206924378,186.94589947359955 L199.20968645652175,-142.62012768853592" stroke="#0d6d4d" stroke-width="0.1" fill="none" />
<path d="M156.60775533723717,188.41181217809054 L223.1174968975134,-101.21058530701274" stroke="#0d6d4d" stroke-width="0.1" fill="none" />
<path d="M154.8471791528885,189.86139973252395 L238.52683120392425,-55.94596317711069" stroke="#0d6d4d" stroke-width="0.1" fill="none" />
<path d="M153.07318606327024,191.2945365357815 L244.85075261967847,-8.550376692112765" stroke="#0d6d4d" stroke-width="0.1" fill="none" />
<path d="M151.28592977797786,192.71109841213809 L241.84838494288206,39.17089098449948" stroke="#0d6d4d" stroke-width="0.1" fill="none" />
<path d="M149.4855651558106,194.11096262202173 L229.63408742551343,85.40015159384468" stroke="#0d6d4d" stroke-width="0.1" fill="none" />
<path d="M147.6722481913545,195.4940078726481 L208.6730988650467,128.37654696266932" stroke="#0d6d4d" stroke-width="0.1" fill="none" />
<path d="M145.84613600146554,196.8601143285303 L179.7638168032048,166.46311954407145" stroke="#0d6d4d" stroke-width="0.1" fill="none" />
<path d="M144.00738681165595,198.2091636218621 L144.00738681165595,198.2091636218621" stroke="#0d6d4d" stroke-width="0.1" fill="none" />
<path d="M142.1561599423851,199.54103886277386 L102.76576019931345,222.4054822405626" stroke="#0d6d4d" stroke-width="0.1" fill="none" />
<path d="M140.29261579525436,200.85562464946096 L57.60981771013455,238.13044514174385" stroke="#0d6d4d" stroke-width="0.1" fill="none" />
<path d="M138.4169158391098,202.15280707818232 L10.259535163653954,244.7850933742203" stroke="#0d6d4d" stroke-width="0.1" fill="none" />
<path d="M136.5292225960505,203.4324737531304 L-37.48152988958935,242.11595345440543" stroke="#0d6d4d" stroke-width="0.1" fill="none" />
<path d="M134.62969962734752,204.6945137961694 L-83.79493511478883,230.22469209254757" stroke="#0d6d4d" stroke-width="0.1" fill="none" />
<path d="M132.71851151927126,205.93881785644263 L-126.91661729641694,209.5642437393241" stroke="#0d6d4d" stroke-width="0.1" fill="none" />
<path d="M130.79582386883143,207.16527811984716 L-165.20408495801223,180.92155845334153" stroke="#0d6d4d" stroke-width="0.1" fill="none" />
<path d="M128.86180326942795,208.37378831837572 L-197.198980352199,145.3876272179068" stroke="#0d6d4d" stroke-width="0.1" fill="none" />
<path d="M126.91661729641689,209.56424373932416 L-221.68262785417474,104.31592643344287" stroke="#0d6d4d" stroke-width="0.1" fill="none" />
<path d="M124.9604344925905,210.7365412343645 L-237.72245293761912,59.27086442191862" stroke="#0d6d4d" stroke-width="0.1" fill="none" />
<path d="M122.99342435357329,211.89057922848258 L-244.70750364865134,11.968193599925202" stroke="#0d6d4d" stroke-width="0.1" fill="none" />
<path d="M121.01575731313666,213.0262577287786 L-242.37172157593213,-35.79034199779074" stroke="#0d6d4d" stroke-width="0.1" fill="none" />
<path d="M119.02760472843053,214.1434783331318 L-230.8040759328877,-82.18563458881245" stroke="#0d6d4d" stroke-width="0.1" fill="none" />
<path d="M117.02913886513707,215.24214423872584 L-210.4451747480129,-125.45050189328985" stroke="#0d6d4d" stroke-width="0.1" fill="none" />
<path d="M115.02053288254322,216.32216025043712 L-182.07048224196168,-163.93699855792016" stroke="#0d6d4d" stroke-width="0.1" fill="none" />
<path d="M113.00196081853827,217.3834327890825 L-146.7607816363186,-196.17918588243967" stroke="#0d6d4d" stroke-width="0.1" fill="none" />
<path d="M110.97359757453326,218.42586989952804 L-105.86100845648565,-220.9489689692529" stroke="#0d6d4d" stroke-width="0.1" fill="none" />
<path d="M108.93561890030729,219.4493812586561 L-60.92902235538956,-237.30287447651457" stroke="#0d6d4d" stroke-width="0.1" fill="none" />
<path d="M106.88820137877866,220.453878183192 L-13.67626872332521,-244.61798722458536" stroke="#0d6d4d" stroke-width="0.1" fill="none" />
<path d="M104.83152241070529,221.43927363738754 L34.09740973521603,-242.61567684168475" stroke="#0d6d4d" stroke-width="0.1" fill="none" />
<path d="M102.76576019931345,222.4054822405626 L80.5723284509529,-231.37221070818288" stroke="#0d6d4d" stroke-width="0.1" fill="none" />
<path d="M100.69109373485674,223.35242027450317 L123.97827220968512,-211.31584895577808" stroke="#0d6d4d" stroke-width="0.1" fill="none" />
<path d="M98.60770277910805,224.28000569071486 L162.6619220997992,-183.2105321721403" stroke="#0d6d4d" stroke-width="0.1" fill="none" />
<path d="M96.51576784978297,225.18815811753245 L195.14982991592808,-148.12678314128183" stroke="#0d6d4d" stroke-width="0.1" fill="none" />
<path d="M94.41547020489985,226.07679886708337 L220.20454134329592,-107.40093096332396" stroke="#0d6d4d" stroke-width="0.1" fill="none" />
<path d="M92.30699182707305,226.94585094210615 L236.87173020809254,-62.58421069426873" stroke="#0d6d4d" stroke-width="0.1" fill="none" />
<path d="M90.19051540774615,227.79523904262157 L244.51654846492653,-15.383677284681811" stroke="#0d6d4d" stroke-width="0.1" fill="none" />
<path d="M88.06622433136143,228.62488957245736 L242.8478073616277,32.40281561299498" stroke="#0d6d4d" stroke-width="0.1" fill="none" />
<path d="M85.93430265947124,229.4347306456248 L231.9290687283456,78.9550953314752" stroke="#0d6d4d" stroke-width="0.1" fill="none" />
<path d="M83.79493511478887,230.22469209254754 L212.17622392718752,122.49999999999994" stroke="#0d6d4d" stroke-width="0.1" fill="none" />
<path d="M81.64830706518386,230.99470546614148 L184.34165267945247,161.3789177290767" stroke="#0d6d4d" stroke-width="0.1" fill="none" />
<path d="M79.49460450762018,231.7447040477453 L149.4855651558106,194.11096262202173" stroke="#0d6d4d" stroke-width="0.1" fill="none" />
<path d="M77.33401405204013,232.47462285290166 L108.93561890030729,219.4493812586561" stroke="#0d6d4d" stroke-width="0.1" fill="none" />
<path d="M75.16672290519591,233.18439863698748 L64.23634876701188,236.4290411457163" stroke="#0d6d4d" stroke-width="0.1" fill="none" />
<path d="M72.99291885442804,233.87396990069433 L17.090336067310755,244.40319231365692" stroke="#0d6d4d" stroke-width="0.1" fill="none" />
<path d="M70.81279025139555,234.54327689535648 L-30.70664222325456,243.06810182204708" stroke="#0d6d4d" stroke-width="0.1" fill="none" />
<path d="M68.62652599575458,235.19226162812845 L-77.33401405203998,232.47462285290172" stroke="#0d6d4d" stroke-width="0.1" fill="none" />
<path d="M66.43431551879216,235.82086786700955 L-121.01575731313653,213.0262577287787" stroke="#0d6d4d" stroke-width="0.1" fill="none" />
<path d="M64.23634876701188,236.4290411457163 L-160.08804797757574,185.4637886346804" stroke="#0d6d4d" stroke-width="0.1" fill="none" />
<path d="M62.032816185676495,237.01672876840166 L-193.0626346336469,150.83706145478627" stroke="#0d6d4d" stroke-width="0.1" fill="none" />
<path d="M59.8239087023059,237.58387981422092 L-218.68352552077073,110.46499746891061" stroke="#0d6d4d" stroke-width="0.1" fill="none" />
<path d="M57.60981771013455,238.13044514174385 L-235.97482886542625,65.88535605074013" stroke="#0d6d4d" stroke-width="0.1" fill="none" />
<path d="M55.39073505152781,238.65637739321247 L-244.27792429559543,18.796161891070746" stroke="#0d6d4d" stroke-width="0.1" fill="none" />
<path d="M53.166853001359165,239.16163099864465 L-243.27654948610157,-29.00897223509262" stroke="#0d6d4d" stroke-width="0.1" fill="none" />
<path d="M50.93836425035103,239.64616217978238 L-233.00884649231264,-75.70916362186207" stroke="#0d6d4d" stroke-width="0.1" fill="none" />
<path d="M48.705461888378395,240.10992895388503 L-213.86590893110335,-119.52561648898951" stroke="#0d6d4d" stroke-width="0.1" fill="none" />
<path d="M46.46833938773859,240.552891137367 L-186.5768853465006,-158.78937576046695" stroke="#0d6d4d" stroke-width="0.1" fill="none" />
<path d="M44.227190586387174,240.97501034927956 L-152.18120616818607,-192.0048970448307" stroke="#0d6d4d" stroke-width="0.1" fill="none" />
<path d="M41.98220967114345,241.37625001463618 L-111.98899212938008,-217.90701145636788" stroke="#0d6d4d" stroke-width="0.1" fill="none" />
<path d="M39.73359116086403,241.75657536758192 L-67.53115217516473,-235.50911550488814" stroke="#0d6d4d" stroke-width="0.1" fill="none" />
<path d="M37.4815298895894,242.11595345440543 L-20.501071616417384,-244.14075051612855" stroke="#0d6d4d" stroke-width="0.1" fill="none" />
<path d="M35.22622098966147,242.4543531363946 L27.30988839054974,-243.47314019434612" stroke="#0d6d4d" stroke-width="0.1" fill="none" />
<path d="M32.96785987481682,242.77174509253427 L74.08062323385889,-233.53171360927203" stroke="#0d6d4d" stroke-width="0.1" fill="none" />
<path d="M30.70664222325461,243.06810182204705 L118.02965015492023,-214.6951366107466" stroke="#0d6d4d" stroke-width="0.1" fill="none" />
<path d="M28.44276396068144,243.34339764677605 L157.48296437320212,-187.68088856414965" stroke="#0d6d4d" stroke-width="0.1" fill="none" />
<path d="M26.176421243335927,243.59760871340964 L190.93780140821116,-153.51793378429284" stroke="#0d6d4d" stroke-width="0.1" fill="none" />
<path d="M23.907810440991575,243.83071299554865 L217.11987691164762,-113.50752860436614" stroke="#0d6d4d" stroke-width="0.1" fill="none" />
<path d="M21.637128119943476,244.04269029561436 L235.03192376231408,-69.17365692650473" stroke="#0d6d4d" stroke-width="0.1" fill="none" />
<path d="M19.364571025974566,244.23352224659905 L243.99167766091273,-22.20498214845613" stroke="#0d6d4d" stroke-width="0.1" fill="none" />
<path d="M17.090336067310755,244.40319231365692 L243.65786436522694,25.60947350057512" stroke="#0d6d4d" stroke-width="0.1" fill="none" />
<path d="M14.814620297557514,244.55168579553728 L234.0431987199742,72.44847226079142" stroke="#0d6d4d" stroke-width="0.1" fill="none" />
<path d="M12.53762089862728,244.67898982585797 L215.51390035232103,116.52793122221746" stroke="#0d6d4d" stroke-width="0.1" fill="none" />
<path d="M10.259535163653954,244.7850933742203 L188.77574448006837,156.16887748842896" stroke="#0d6d4d" stroke-width="0.1" fill="none" />
<path d="M7.9805604798979015,244.8699872471649 L154.8471791528885,189.86139973252395" stroke="#0d6d4d" stroke-width="0.1" fill="none" />
<path d="M5.700894311643872,244.93366408896813 L115.02053288254322,216.32216025043712" stroke="#0d6d4d" stroke-width="0.1" fill="none" />
<path d="M3.4207341830906266,244.97611838227954 L70.81279025139555,234.54327689535648" stroke="#0d6d4d" stroke-width="0.1" fill="none" />
<path d="M1.1402776612370888,244.9973464485999 L23.907810440991575,243.83071299554865" stroke="#0d6d4d" stroke-width="0.1" fill="none" />
<path d="M-1.1402776612370291,244.9973464485999 L-23.907810440991515,243.83071299554865" stroke="#0d6d4d" stroke-width="0.1" fill="none" />
<path d="M-3.4207341830904574,244.97611838227954 L-70.81279025139551,234.5432768953565" stroke="#0d6d4d" stroke-width="0.1" fill="none" />
<path d="M-5.700894311643813,244.93366408896813 L-115.02053288254316,216.32216025043715" stroke="#0d6d4d" stroke-width="0.1" fill="none" />
<path d="M-7.980560479897731,244.8699872471649 L-154.84717915288846,189.861399732524" stroke="#0d6d4d" stroke-width="0.1" fill="none" />
<path d="M-10.259535163653892,244.7850933742203 L-188.77574448006825,156.16887748842913" stroke="#0d6d4d" stroke-width="0.1" fill="none" />
<path d="M-12.537620898627328,244.67898982585797 L-215.513900352321,116.52793122221752" stroke="#0d6d4d" stroke-width="0.1" fill="none" />
<path d="M-14.814620297557452,244.55168579553728 L-234.04319871997419,72.44847226079148" stroke="#0d6d4d" stroke-width="0.1" fill="none" />
<path d="M-17.09033606731069,244.40319231365692 L-243.65786436522697,25.60947350057507" stroke="#0d6d4d" stroke-width="0.1" fill="none" />
<path d="M-19.364571025974506,244.23352224659905 L-243.99167766091276,-22.204982148456015" stroke="#0d6d4d" stroke-width="0.1" fill="none" />
<path d="M-21.63712811994331,244.04269029561436 L-235.0319237623141,-69.17365692650468" stroke="#0d6d4d" stroke-width="0.1" fill="none" />
<path d="M-23.907810440991515,243.83071299554865 L-217.11987691164762,-113.50752860436614" stroke="#0d6d4d" stroke-width="0.1" fill="none" />
<path d="M-26.17642124333587,243.59760871340964 L-190.93780140821113,-153.5179337842929" stroke="#0d6d4d" stroke-width="0.1" fill="none" />
<path d="M-28.442763960681273,243.34339764677605 L-157.4829643732022,-187.6808885641496" stroke="#0d6d4d" stroke-width="0.1" fill="none" />
<path d="M-30.70664222325456,243.06810182204708 L-118.02965015492025,-214.69513661074657" stroke="#0d6d4d" stroke-width="0.1" fill="none" />
<path d="M-32.96785987481666,242.7717450925343 L-74.08062323385906,-233.53171360927197" stroke="#0d6d4d" stroke-width="0.1" fill="none" />
<path d="M-35.226220989661414,242.45435313639462 L-27.30988839054984,-243.47314019434612" stroke="#0d6d4d" stroke-width="0.1" fill="none" />
<path d="M-37.48152988958935,242.11595345440543 L20.501071616417292,-244.14075051612858" stroke="#0d6d4d" stroke-width="0.1" fill="none" />
<path d="M-39.73359116086397,241.75657536758192 L67.53115217516479,-235.50911550488814" stroke="#0d6d4d" stroke-width="0.1" fill="none" />
<path d="M-41.982209671143394,241.37625001463618 L111.98899212938008,-217.90701145636788" stroke="#0d6d4d" stroke-width="0.1" fill="none" />
<path d="M-44.227190586387124,240.97501034927956 L152.18120616818604,-192.00489704483076" stroke="#0d6d4d" stroke-width="0.1" fill="none" />
<path d="M-46.46833938773853,240.55289113736703 L186.5768853465005,-158.7893757604671" stroke="#0d6d4d" stroke-width="0.1" fill="none" />
<path d="M-48.705461888378345,240.10992895388503 L213.86590893110335,-119.52561648898954" stroke="#0d6d4d" stroke-width="0.1" fill="none" />
<path d="M-50.93836425035108,239.64616217978238 L233.0088464923126,-75.70916362186213" stroke="#0d6d4d" stroke-width="0.1" fill="none" />
<path d="M-53.166853001359,239.16163099864468 L243.27654948610154,-29.00897223509273" stroke="#0d6d4d" stroke-width="0.1" fill="none" />
<path d="M-55.390735051527756,238.65637739321247 L244.27792429559545,18.79616189107058" stroke="#0d6d4d" stroke-width="0.1" fill="none" />
<path d="M-57.60981771013461,238.13044514174382 L235.97482886542625,65.88535605074013" stroke="#0d6d4d" stroke-width="0.1" fill="none" />
<path d="M-59.82390870230585,237.58387981422095 L218.68352552077073,110.46499746891057" stroke="#0d6d4d" stroke-width="0.1" fill="none" />
<path d="M-62.032816185676445,237.01672876840166 L193.0626346336469,150.83706145478627" stroke="#0d6d4d" stroke-width="0.1" fill="none" />
<path d="M-64.23634876701182,236.42904114571633 L160.08804797757588,185.4637886346803" stroke="#0d6d4d" stroke-width="0.1" fill="none" />
<path d="M-66.4343155187921,235.82086786700955 L121.01575731313666,213.0262577287786" stroke="#0d6d4d" stroke-width="0.1" fill="none" />
<path d="M-68.62652599575452,235.19226162812845 L77.33401405204013,232.47462285290166" stroke="#0d6d4d" stroke-width="0.1" fill="none" />
<path d="M-70.81279025139551,234.5432768953565 L30.70664222325461,243.06810182204705" stroke="#0d6d4d" stroke-width="0.1" fill="none" />
<path d="M-72.99291885442798,233.87396990069433 L-17.09033606731069,244.40319231365692" stroke="#0d6d4d" stroke-width="0.1" fill="none" />
<path d="M-75.16672290519585,233.1843986369875 L-64.23634876701182,236.42904114571633" stroke="#0d6d4d" stroke-width="0.1" fill="none" />
<path d="M-77.33401405203998,232.47462285290172 L-108.93561890030725,219.44938125865613" stroke="#0d6d4d" stroke-width="0.1" fill="none" />
<path d="M-79.49460450762012,231.7447040477453 L-149.48556515581055,194.11096262202173" stroke="#0d6d4d" stroke-width="0.1" fill="none" />
<path d="M-81.6483070651839,230.99470546614145 L-184.3416526794525,161.37891772907668" stroke="#0d6d4d" stroke-width="0.1" fill="none" />
<path d="M-83.79493511478883,230.22469209254757 L-212.1762239271874,122.50000000000011" stroke="#0d6d4d" stroke-width="0.1" fill="none" />
<path d="M-85.93430265947119,229.43473064562482 L-231.92906872834558,78.95509533147525" stroke="#0d6d4d" stroke-width="0.1" fill="none" />
<path d="M-88.06622433136137,228.6248895724574 L-242.8478073616277,32.402815612994985" stroke="#0d6d4d" stroke-width="0.1" fill="none" />
<path d="M-90.19051540774609,227.7952390426216 L-244.51654846492653,-15.38367728468186" stroke="#0d6d4d" stroke-width="0.1" fill="none" />
<path d="M-92.30699182707299,226.94585094210618 L-236.87173020809257,-62.58421069426862" stroke="#0d6d4d" stroke-width="0.1" fill="none" />
<path d="M-94.41547020489979,226.0767988670834 L-220.20454134329592,-107.40093096332396" stroke="#0d6d4d" stroke-width="0.1" fill="none" />
<path d="M-96.51576784978292,225.18815811753248 L-195.1498299159282,-148.12678314128172" stroke="#0d6d4d" stroke-width="0.1" fill="none" />
<path d="M-98.60770277910791,224.28000569071492 L-162.66192209979926,-183.2105321721403" stroke="#0d6d4d" stroke-width="0.1" fill="none" />
<path d="M-100.6910937348566,223.35242027450323 L-123.97827220968514,-211.31584895577808" stroke="#0d6d4d" stroke-width="0.1" fill="none" />
<path d="M-102.7657601993134,222.40548224056263 L-80.57232845095305,-231.3722107081828" stroke="#0d6d4d" stroke-width="0.1" fill="none" />
<path d="M-104.83152241070535,221.43927363738752 L-34.09740973521614,-242.61567684168472" stroke="#0d6d4d" stroke-width="0.1" fill="none" />
<path d="M-106.88820137877862,220.45387818319202 L13.676268723325132,-244.61798722458536" stroke="#0d6d4d" stroke-width="0.1" fill="none" />
<path d="M-108.93561890030725,219.44938125865613 L60.929022355389414,-237.3028744765146" stroke="#0d6d4d" stroke-width="0.1" fill="none" />
<path d="M-110.97359757453322,218.42586989952807 L105.86100845648566,-220.9489689692529" stroke="#0d6d4d" stroke-width="0.1" fill="none" />
<path d="M-113.00196081853822,217.38343278908252 L146.76078163631854,-196.1791858824397" stroke="#0d6d4d" stroke-width="0.1" fill="none" />
<path d="M-115.02053288254316,216.32216025043715 L182.0704822419616,-163.93699855792028" stroke="#0d6d4d" stroke-width="0.1" fill="none" />
<path d="M-117.02913886513701,215.24214423872587 L210.4451747480128,-125.45050189329001" stroke="#0d6d4d" stroke-width="0.1" fill="none" />
<path d="M-119.0276047284305,214.14347833313184 L230.80407593288768,-82.18563458881249" stroke="#0d6d4d" stroke-width="0.1" fill="none" />
<path d="M-121.01575731313653,213.0262577287787 L242.37172157593213,-35.790341997790854" stroke="#0d6d4d" stroke-width="0.1" fill="none" />
<path d="M-122.99342435357315,211.89057922848264 L244.70750364865134,11.968193599925197" stroke="#0d6d4d" stroke-width="0.1" fill="none" />
<path d="M-124.96043449259045,210.7365412343645 L237.72245293761912,59.27086442191855" stroke="#0d6d4d" stroke-width="0.1" fill="none" />
<path d="M-126.91661729641694,209.5642437393241 L221.68262785417483,104.31592643344273" stroke="#0d6d4d" stroke-width="0.1" fill="none" />
<path d="M-128.8618032694279,208.37378831837574 L197.198980352199,145.38762721790684" stroke="#0d6d4d" stroke-width="0.1" fill="none" />
<path d="M-130.7958238688314,207.1652781198472 L165.20408495801226,180.92155845334148" stroke="#0d6d4d" stroke-width="0.1" fill="none" />
<path d="M-132.71851151927123,205.93881785644265 L126.91661729641689,209.56424373932416" stroke="#0d6d4d" stroke-width="0.1" fill="none" />
<path d="M-134.62969962734746,204.69451379616945 L83.79493511478887,230.22469209254754" stroke="#0d6d4d" stroke-width="0.1" fill="none" />
<path d="M-136.52922259605043,203.43247375313047 L37.4815298895894,242.11595345440543" stroke="#0d6d4d" stroke-width="0.1" fill="none" />
<path d="M-138.41691583910975,202.15280707818235 L-10.259535163653892,244.7850933742203" stroke="#0d6d4d" stroke-width="0.1" fill="none" />
<path d="M-140.2926157952543,200.855624649461 L-57.60981771013461,238.13044514174382" stroke="#0d6d4d" stroke-width="0.1" fill="none" />
<path d="M-142.15615994238496,199.54103886277395 L-102.7657601993134,222.40548224056263" stroke="#0d6d4d" stroke-width="0.1" fill="none" />
<path d="M-144.0073868116558,198.20916362186222 L-144.0073868116558,198.20916362186222" stroke="#0d6d4d" stroke-width="0.1" fill="none" />
<path d="M-145.84613600146548,196.86011432853033 L-179.76381680320466,166.46311954407162" stroke="#0d6d4d" stroke-width="0.1" fill="none" />
<path d="M-147.67224819135456,195.49400787264807 L-208.6730988650466,128.3765469626695" stroke="#0d6d4d" stroke-width="0.1" fill="none" />
<path d="M-149.48556515581055,194.11096262202173 L-229.6340874255134,85.40015159384477" stroke="#0d6d4d" stroke-width="0.1" fill="none" />
<path d="M-151.2859297779778,192.71109841213809 L-241.848384942882,39.17089098449975" stroke="#0d6d4d" stroke-width="0.1" fill="none" />
<path d="M-153.0731860632702,191.29453653578153 L-244.85075261967847,-8.550376692112813" stroke="#0d6d4d" stroke-width="0.1" fill="none" />
<path d="M-154.84717915288846,189.861399732524 L-238.52683120392427,-55.945963177110585" stroke="#0d6d4d" stroke-width="0.1" fill="none" />
<path d="M-156.60775533723714,188.41181217809057 L-223.1174968975134,-101.21058530701274" stroke="#0d6d4d" stroke-width="0.1" fill="none" />
<path d="M-158.35476206924375,186.94589947359958 L-199.20968645652187,-142.62012768853577" stroke="#0d6d4d" stroke-width="0.1" fill="none" />
<path d="M-160.08804797757574,185.4637886346804 L-167.7140409525288,-178.59731371824577" stroke="#0d6d4d" stroke-width="0.1" fill="none" />
<path d="M-161.80746287975686,183.96560808046735 L-129.83021973713522,-207.77178355832433" stroke="#0d6d4d" stroke-width="0.1" fill="none" />
<path d="M-163.51285779517926,182.45148762247317 L-87.00120578999353,-229.03229071702356" stroke="#0d6d4d" stroke-width="0.1" fill="none" />
<path d="M-165.20408495801223,180.92155845334153 L-40.85834294544496,-241.56902908227372" stroke="#0d6d4d" stroke-width="0.1" fill="none" />
<path d="M-166.88099783000618,179.3759531354788 L6.840801487274375,-244.9044781848868" stroke="#0d6d4d" stroke-width="0.1" fill="none" />
<path d="M-168.54345111318855,177.81480558956903 L54.27938191676949,-238.911591804863" stroke="#0d6d4d" stroke-width="0.1" fill="none" />
<path d="M-170.19130076245435,176.23825108296953 L99.65047755357105,-223.81863712243722" stroke="#0d6d4d" stroke-width="0.1" fill="none" />
<path d="M-171.82440399804617,174.64642621799112 L141.22591746159932,-200.20050009210647" stroke="#0d6d4d" stroke-width="0.1" fill="none" />
<path d="M-173.44261931792633,173.03946892006138 L177.42210605217954,-168.95678821523913" stroke="#0d6d4d" stroke-width="0.1" fill="none" />
<path d="M-175.04580651003678,171.41751842577457 L206.86034174799366,-131.2775647698542" stroke="#0d6d4d" stroke-width="0.1" fill="none" />
<path d="M-176.63382666444843,169.78071527082687 L228.41933129780048,-88.59801967011265" stroke="#0d6d4d" stroke-width="0.1" fill="none" />
<path d="M-178.20654218539684,168.12920127783983 L241.27789948799096,-42.54380352839795" stroke="#0d6d4d" stroke-width="0.1" fill="none" />
<path d="M-179.76381680320466,166.46311954407162 L244.94626745133715,5.130892871422447" stroke="#0d6d4d" stroke-width="0.1" fill="none" />
<path d="M-181.30551558608852,164.7826144290186 L239.28470819187115,52.61015515593049" stroke="#0d6d4d" stroke-width="0.1" fill="none" />
<path d="M-182.83150495185043,163.08783154190718 L224.50886874274872,98.08551297643923" stroke="#0d6d4d" stroke-width="0.1" fill="none" />
<path d="M-184.3416526794525,161.37891772907668 L201.18155623775752,139.82482408268575" stroke="#0d6d4d" stroke-width="0.1" fill="none" />
<path d="M-185.83582792047284,159.65602106125658 L170.1913007624543,176.23825108296958" stroke="#0d6d4d" stroke-width="0.1" fill="none" />
<path d="M-187.3139012104438,157.9192908207357 L132.71851151927126,205.93881785644263" stroke="#0d6d4d" stroke-width="0.1" fill="none" />
<path d="M-188.77574448006825,156.16887748842913 L90.19051540774615,227.79523904262157" stroke="#0d6d4d" stroke-width="0.1" fill="none" />
<path d="M-190.2212310663183,154.40493273083715 L44.227190586387174,240.97501034927956" stroke="#0d6d4d" stroke-width="0.1" fill="none" />
<path d="M-191.65023572340795,152.6276093869067 L-3.4207341830904574,244.97611838227954" stroke="#0d6d4d" stroke-width="0.1" fill="none" />
<path d="M-193.0626346336469,150.83706145478627 L-50.93836425035108,239.64616217978238" stroke="#0d6d4d" stroke-width="0.1" fill="none" />
<path d="M-194.45830541816764,149.03344407848402 L-96.51576784978292,225.18815811753248" stroke="#0d6d4d" stroke-width="0.1" fill="none" />
<path d="M-195.83712714753005,147.21691353442424 L-138.41691583910975,202.15280707818235" stroke="#0d6d4d" stroke-width="0.1" fill="none" />
<path d="M-197.198980352199,145.3876272179068 L-175.04580651003678,171.41751842577457" stroke="#0d6d4d" stroke-width="0.1" fill="none" />
<path d="M-198.54374703289557,143.54574362947014 L-205.00725679744565,134.15298975567472" stroke="#0d6d4d" stroke-width="0.1" fill="none" />
<path d="M-199.8713106708221,141.69142236115675 L-227.16004436886288,91.77861538689851" stroke="#0d6d4d" stroke-width="0.1" fill="none" />
<path d="M-201.1815562377574,139.82482408268586 L-240.66037642852874,45.908422073502535" stroke="#0d6d4d" stroke-width="0.1" fill="none" />
<path d="M-202.47437020602388,137.94611052753172 L-244.9940295228217,-1.710408773000429" stroke="#0d6d4d" stroke-width="0.1" fill="none" />
<path d="M-203.74964055832373,136.05544447891046 L-239.99593615183932,-49.26409068076126" stroke="#0d6d4d" stroke-width="0.1" fill="none" />
<path d="M-205.00725679744565,134.15298975567472 L-225.8564721391826,-94.94131868076522" stroke="#0d6d4d" stroke-width="0.1" fill="none" />
<path d="M-206.24710995583797,132.23891119812083 L-203.1142052759852,-137.00226135033301" stroke="#0d6d4d" stroke-width="0.1" fill="none" />
<path d="M-207.46909260505157,130.31337465370368 L-172.63538144108077,-173.84483045144756" stroke="#0d6d4d" stroke-width="0.1" fill="none" />
<path d="M-208.6730988650466,128.3765469626695 L-135.58092956461934,-204.06570397397437" stroke="#0d6d4d" stroke-width="0.1" fill="none" />
<path d="M-209.85902441336796,126.42859594359749 L-93.36224220581732,-226.51377823501664" stroke="#0d6d4d" stroke-width="0.1" fill="none" />
<path d="M-211.0267664941833,124.46969037886062 L-47.58741604889305,-240.33401306055194" stroke="#0d6d4d" stroke-width="0.1" fill="none" />
<path d="M-212.1762239271874,122.50000000000011 L0.0,-245.0" stroke="#0d6d4d" stroke-width="0.1" fill="none" />
<path d="M-213.3072971163685,120.51969547301927 L47.58741604889314,-240.33401306055194" stroke="#0d6d4d" stroke-width="0.1" fill="none" />
<path d="M-214.4198880586376,118.52894838359664 L93.36224220581715,-226.51377823501673" stroke="#0d6d4d" stroke-width="0.1" fill="none" />
<path d="M-215.513900352321,116.52793122221752 L135.5809295646193,-204.06570397397437" stroke="#0d6d4d" stroke-width="0.1" fill="none" />
<path d="M-216.58923920551223,114.51681736922923 L172.63538144108068,-173.84483045144762" stroke="#0d6d4d" stroke-width="0.1" fill="none" />
<path d="M-217.64581144428598,112.49578107981787 L203.1142052759852,-137.002261350333" stroke="#0d6d4d" stroke-width="0.1" fill="none" />
<path d="M-218.68352552077073,110.46499746891061 L225.8564721391826,-94.94131868076522" stroke="#0d6d4d" stroke-width="0.1" fill="none" />
<path d="M-219.70229152108155,108.42464249600133 L239.9959361518393,-49.26409068076132" stroke="#0d6d4d" stroke-width="0.1" fill="none" />
<path d="M-220.70202117311038,106.37489294990591 L244.9940295228217,-1.710408773000598" stroke="#0d6d4d" stroke-width="0.1" fill="none" />
<path d="M-221.68262785417474,104.31592643344287 L240.66037642852874,45.90842207350253" stroke="#0d6d4d" stroke-width="0.1" fill="none" />
<path d="M-222.64402659852325,102.24792134804532 L227.1600443688629,91.77861538689845" stroke="#0d6d4d" stroke-width="0.1" fill="none" />
<path d="M-223.58613410469718,100.17105687830377 L205.00725679744562,134.15298975567475" stroke="#0d6d4d" stroke-width="0.1" fill="none" />
<path d="M-224.5088687427487,98.08551297643933 L175.0458065100368,171.41751842577452" stroke="#0d6d4d" stroke-width="0.1" fill="none" />
<path d="M-225.4121505613135,95.99147034671226 L138.4169158391098,202.15280707818232" stroke="#0d6d4d" stroke-width="0.1" fill="none" />
<path d="M-226.2959012945385,93.88911042976434 L96.51576784978297,225.18815811753245" stroke="#0d6d4d" stroke-width="0.1" fill="none" />
<path d="M-227.16004436886288,91.77861538689851 L50.93836425035103,239.64616217978238" stroke="#0d6d4d" stroke-width="0.1" fill="none" />
<path d="M-228.0045049096534,89.66016808429389 L3.4207341830906266,244.97611838227954" stroke="#0d6d4d" stroke-width="0.1" fill="none" />
<path d="M-228.82920974769138,87.53395207716295 L-44.227190586387124,240.97501034927956" stroke="#0d6d4d" stroke-width="0.1" fill="none" />
<path d="M-229.6340874255134,85.40015159384477 L-90.19051540774609,227.7952390426216" stroke="#0d6d4d" stroke-width="0.1" fill="none" />
<path d="M-230.41906820360174,83.25895151984518 L-132.71851151927123,205.93881785644265" stroke="#0d6d4d" stroke-width="0.1" fill="none" />
<path d="M-231.184084066428,81.11053738181471 L-170.19130076245435,176.23825108296953" stroke="#0d6d4d" stroke-width="0.1" fill="none" />
<path d="M-231.92906872834558,78.95509533147525 L-201.1815562377574,139.82482408268586" stroke="#0d6d4d" stroke-width="0.1" fill="none" />
<path d="M-232.65395763933384,76.79281212948938 L-224.5088687427487,98.08551297643933" stroke="#0d6d4d" stroke-width="0.1" fill="none" />
<path d="M-233.35868799059057,74.62387512927877 L-239.28470819187115,52.6101551559305" stroke="#0d6d4d" stroke-width="0.1" fill="none" />
<path d="M-234.04319871997419,72.44847226079148 L-244.94626745133715,5.1308928714223985" stroke="#0d6d4d" stroke-width="0.1" fill="none" />
<path d="M-234.70743051729477,70.2667920142172 L-241.277899487991,-42.543803528397845" stroke="#0d6d4d" stroke-width="0.1" fill="none" />
<path d="M-235.3513258294528,68.0790234236563 L-228.4193312978005,-88.59801967011259" stroke="#0d6d4d" stroke-width="0.1" fill="none" />
<path d="M-235.97482886542625,65.88535605074013 L-206.8603417479937,-131.2775647698542" stroke="#0d6d4d" stroke-width="0.1" fill="none" />
<path d="M-236.5778856011041,63.68597996820726 L-177.4221060521795,-168.95678821523916" stroke="#0d6d4d" stroke-width="0.1" fill="none" />
<path d="M-237.16044378396802,61.48108574343291 L-141.22591746159938,-200.20050009210647" stroke="#0d6d4d" stroke-width="0.1" fill="none" />
<path d="M-237.72245293761912,59.27086442191862 L-99.65047755357104,-223.81863712243725" stroke="#0d6d4d" stroke-width="0.1" fill="none" />
<path d="M-238.2638643661522,57.05550751073753 L-54.27938191676962,-238.91159180486298" stroke="#0d6d4d" stroke-width="0.1" fill="none" />
<path d="M-238.78463115837465,54.83520696194163 L-6.840801487274446,-244.9044781848868" stroke="#0d6d4d" stroke-width="0.1" fill="none" />
<path d="M-239.28470819187115,52.6101551559305 L40.85834294544505,-241.56902908227372" stroke="#0d6d4d" stroke-width="0.1" fill="none" />
<path d="M-239.76405213691348,50.38054488478101 L87.00120578999358,-229.03229071702353" stroke="#0d6d4d" stroke-width="0.1" fill="none" />
<path d="M-240.2226214602149,48.14656933554353 L129.8302197371352,-207.77178355832436" stroke="#0d6d4d" stroke-width="0.1" fill="none" />
<path d="M-240.66037642852874,45.908422073502535 L167.7140409525287,-178.59731371824583" stroke="#0d6d4d" stroke-width="0.1" fill="none" />
<path d="M-241.077279112091,43.66629702540584 L199.20968645652175,-142.62012768853592" stroke="#0d6d4d" stroke-width="0.1" fill="none" />
<path d="M-241.47329338790726,41.42038846266008 L223.1174968975134,-101.21058530701274" stroke="#0d6d4d" stroke-width="0.1" fill="none" />
<path d="M-241.848384942882,39.17089098449975 L238.52683120392425,-55.94596317711069" stroke="#0d6d4d" stroke-width="0.1" fill="none" />
<path d="M-242.20252127679234,36.917999501123425 L244.85075261967847,-8.550376692112765" stroke="#0d6d4d" stroke-width="0.1" fill="none" />
<path d="M-242.53567170510348,34.6619092168083 L241.84838494288206,39.17089098449948" stroke="#0d6d4d" stroke-width="0.1" fill="none" />
<path d="M-242.8478073616277,32.402815612994985 L229.63408742551343,85.40015159384468" stroke="#0d6d4d" stroke-width="0.1" fill="none" />
<path d="M-243.13890120102556,30.14091443134962 L208.6730988650467,128.37654696266932" stroke="#0d6d4d" stroke-width="0.1" fill="none" />
<path d="M-243.40892800114898,27.876401656804255 L179.7638168032048,166.46311954407145" stroke="#0d6d4d" stroke-width="0.1" fill="none" />
<path d="M-243.65786436522697,25.60947350057507 L144.00738681165595,198.2091636218621" stroke="#0d6d4d" stroke-width="0.1" fill="none" />
<path d="M-243.88568872389263,23.34032638316232 L102.76576019931345,222.4054822405626" stroke="#0d6d4d" stroke-width="0.1" fill="none" />
<path d="M-244.09238133705225,21.06915691732995 L57.60981771013455,238.13044514174385" stroke="#0d6d4d" stroke-width="0.1" fill="none" />
<path d="M-244.27792429559543,18.796161891070746 L10.259535163653954,244.7850933742203" stroke="#0d6d4d" stroke-width="0.1" fill="none" />
<path d="M-244.44230152294725,16.521538250554986 L-37.48152988958935,242.11595345440543" stroke="#0d6d4d" stroke-width="0.1" fill="none" />
<path d="M-244.5854987764607,14.245483083066679 L-83.79493511478883,230.22469209254757" stroke="#0d6d4d" stroke-width="0.1" fill="none" />
<path d="M-244.70750364865134,11.968193599925202 L-126.91661729641694,209.5642437393241" stroke="#0d6d4d" stroke-width="0.1" fill="none" />
<path d="M-244.8083055682719,9.689867119399452 L-165.20408495801223,180.92155845334153" stroke="#0d6d4d" stroke-width="0.1" fill="none" />
<path d="M-244.88789580122844,7.410701049609462 L-197.198980352199,145.3876272179068" stroke="#0d6d4d" stroke-width="0.1" fill="none" />
<path d="M-244.94626745133715,5.1308928714223985 L-221.68262785417474,104.31592643344287" stroke="#0d6d4d" stroke-width="0.1" fill="none" />
<path d="M-244.98341546092175,2.8506401213422814 L-237.72245293761912,59.27086442191862" stroke="#0d6d4d" stroke-width="0.1" fill="none" />
<path d="M-244.99933661125183,0.5701403743928979 L-244.70750364865134,11.968193599925202" stroke="#0d6d4d" stroke-width="0.1" fill="none" />
<path d="M-244.9940295228217,-1.710408773000429 L-242.37172157593213,-35.79034199779074" stroke="#0d6d4d" stroke-width="0.1" fill="none" />
<path d="M-244.96749465546995,-3.9908097201322374 L-230.8040759328877,-82.18563458881245" stroke="#0d6d4d" stroke-width="0.1" fill="none" />
<path d="M-244.91973430833946,-6.27086487913739 L-210.4451747480129,-125.45050189328985" stroke="#0d6d4d" stroke-width="0.1" fill="none" />
<path d="M-244.85075261967847,-8.550376692112813 L-182.07048224196168,-163.93699855792016" stroke="#0d6d4d" stroke-width="0.1" fill="none" />
<path d="M-244.76055556648168,-10.829147648233166 L-146.7607816363186,-196.17918588243967" stroke="#0d6d4d" stroke-width="0.1" fill="none" />
<path d="M-244.64915096397266,-13.106980300866988 L-105.86100845648565,-220.9489689692529" stroke="#0d6d4d" stroke-width="0.1" fill="none" />
<path d="M-244.51654846492653,-15.38367728468186 L-60.92902235538956,-237.30287447651457" stroke="#0d6d4d" stroke-width="0.1" fill="none" />
<path d="M-244.36275955883363,-17.659041332746874 L-13.67626872332521,-244.61798722458536" stroke="#0d6d4d" stroke-width="0.1" fill="none" />
<path d="M-244.187797570904,-19.932875293625226 L34.09740973521603,-242.61567684168475" stroke="#0d6d4d" stroke-width="0.1" fill="none" />
<path d="M-243.99167766091276,-22.204982148456015 L80.5723284509529,-231.37221070818288" stroke="#0d6d4d" stroke-width="0.1" fill="none" />
<path d="M-243.7744168218866,-24.475165028025565 L123.97827220968512,-211.31584895577808" stroke="#0d6d4d" stroke-width="0.1" fill="none" />
<path d="M-243.53603387863154,-26.743227229824512 L162.6619220997992,-183.2105321721403" stroke="#0d6d4d" stroke-width="0.1" fill="none" />
<path d="M-243.27654948610157,-29.00897223509262 L195.14982991592808,-148.12678314128183" stroke="#0d6d4d" stroke-width="0.1" fill="none" />
<path d="M-242.99598612760914,-31.272203725845493 L220.20454134329592,-107.40093096332396" stroke="#0d6d4d" stroke-width="0.1" fill="none" />
<path d="M-242.69436811287704,-33.532725601885204 L236.87173020809254,-62.58421069426873" stroke="#0d6d4d" stroke-width="0.1" fill="none" />
<path d="M-242.37172157593213,-35.79034199779074 L244.51654846492653,-15.383677284681811" stroke="#0d6d4d" stroke-width="0.1" fill="none" />
<path d="M-242.02807447284079,-38.044857299890495 L242.8478073616277,32.40281561299498" stroke="#0d6d4d" stroke-width="0.1" fill="none" />
<path d="M-241.66345657928673,-40.2960761632097 L231.9290687283456,78.9550953314752" stroke="#0d6d4d" stroke-width="0.1" fill="none" />
<path d="M-241.277899487991,-42.543803528397845 L212.17622392718752,122.49999999999994" stroke="#0d6d4d" stroke-width="0.1" fill="none" />
<path d="M-240.87143660597457,-44.787844638629096 L184.34165267945247,161.3789177290767" stroke="#0d6d4d" stroke-width="0.1" fill="none" />
<path d="M-240.44410315166394,-47.028005056476665 L149.4855651558106,194.11096262202173" stroke="#0d6d4d" stroke-width="0.1" fill="none" />
<path d="M-239.99593615183932,-49.26409068076126 L108.93561890030729,219.4493812586561" stroke="#0d6d4d" stroke-width="0.1" fill="none" />
<path d="M-239.52697443842658,-51.49590776336839 L64.23634876701188,236.4290411457163" stroke="#0d6d4d" stroke-width="0.1" fill="none" />
<path d="M-239.0372586451325,-53.723262926036305 L17.090336067310755,244.40319231365692" stroke="#0d6d4d" stroke-width="0.1" fill="none" />
<path d="M-238.52683120392427,-55.945963177110585 L-30.70664222325456,243.06810182204708" stroke="#0d6d4d" stroke-width="0.1" fill="none" />
<path d="M-237.9957363413526,-58.16381592826743 L-77.33401405203998,232.47462285290172" stroke="#0d6d4d" stroke-width="0.1" fill="none" />
<path d="M-237.4440200747198,-60.37662901119983 L-121.01575731313653,213.0262577287787" stroke="#0d6d4d" stroke-width="0.1" fill="none" />
<path d="M-236.87173020809257,-62.58421069426862 L-160.08804797757574,185.4637886346804" stroke="#0d6d4d" stroke-width="0.1" fill="none" />
<path d="M-236.27891632816,-64.78636969911463 L-193.0626346336469,150.83706145478627" stroke="#0d6d4d" stroke-width="0.1" fill="none" />
<path d="M-235.66562979993716,-66.98291521723264 L-218.68352552077073,110.46499746891061" stroke="#0d6d4d" stroke-width="0.1" fill="none" />
<path d="M-235.0319237623141,-69.17365692650468 L-235.97482886542625,65.88535605074013" stroke="#0d6d4d" stroke-width="0.1" fill="none" />
<path d="M-234.37785312345213,-71.35840500768995 L-244.27792429559543,18.796161891070746" stroke="#0d6d4d" stroke-width="0.1" fill="none" />
<path d="M-233.70347455602572,-73.53697016087241 L-243.27654948610157,-29.00897223509262" stroke="#0d6d4d" stroke-width="0.1" fill="none" />
<path d="M-233.00884649231264,-75.70916362186207 L-233.00884649231264,-75.70916362186207" stroke="#0d6d4d" stroke-width="0.1" fill="none" />
<path d="M-232.2940291191304,-77.87479717855187 L-213.86590893110335,-119.52561648898951" stroke="#0d6d4d" stroke-width="0.1" fill="none" />
<path d="M-231.55908437262173,-80.0336831872247 L-186.5768853465006,-158.78937576046695" stroke="#0d6d4d" stroke-width="0.1" fill="none" />
<path d="M-230.8040759328877,-82.18563458881245 L-152.18120616818607,-192.0048970448307" stroke="#0d6d4d" stroke-width="0.1" fill="none" />
<path d="M-230.02906921847057,-84.33046492510327 L-111.98899212938008,-217.90701145636788" stroke="#0d6d4d" stroke-width="0.1" fill="none" />
<path d="M-229.2341313806852,-86.46798835489793 L-67.53115217516473,-235.50911550488814" stroke="#0d6d4d" stroke-width="0.1" fill="none" />
<path d="M-228.4193312978005,-88.59801967011259 L-20.501071616417384,-244.14075051612855" stroke="#0d6d4d" stroke-width="0.1" fill="none" />
<path d="M-227.58473956907176,-90.72037431182581 L27.30988839054974,-243.47314019434612" stroke="#0d6d4d" stroke-width="0.1" fill="none" />
<path d="M-226.73042850862322,-92.83486838627016 L74.08062323385889,-233.53171360927203" stroke="#0d6d4d" stroke-width="0.1" fill="none" />
<path d="M-225.8564721391826,-94.94131868076522 L118.02965015492023,-214.6951366107466" stroke="#0d6d4d" stroke-width="0.1" fill="none" />
<path d="M-224.96294618566716,-97.03954267959334 L157.48296437320212,-187.68088856414965" stroke="#0d6d4d" stroke-width="0.1" fill="none" />
<path d="M-224.04992806862225,-99.12935857981321 L190.93780140821116,-153.51793378429284" stroke="#0d6d4d" stroke-width="0.1" fill="none" />
<path d="M-223.1174968975134,-101.21058530701274 L217.11987691164762,-113.50752860436614" stroke="#0d6d4d" stroke-width="0.1" fill="none" />
<path d="M-222.16573346387185,-103.28304253099756 L235.03192376231408,-69.17365692650473" stroke="#0d6d4d" stroke-width="0.1" fill="none" />
<path d="M-221.19472023429395,-105.34655068141731 L243.99167766091273,-22.20498214845613" stroke="#0d6d4d" stroke-width="0.1" fill="none" />
<path d="M-220.20454134329592,-107.40093096332396 L243.65786436522694,25.60947350057512" stroke="#0d6d4d" stroke-width="0.1" fill="none" />
<path d="M-219.19528258602412,-109.44600537266322 L234.0431987199742,72.44847226079142" stroke="#0d6d4d" stroke-width="0.1" fill="none" />
<path d="M-218.1670314108208,-111.48159671169913 L215.51390035232103,116.52793122221746" stroke="#0d6d4d" stroke-width="0.1" fill="none" />
<path d="M-217.11987691164762,-113.50752860436614 L188.77574448006837,156.16887748842896" stroke="#0d6d4d" stroke-width="0.1" fill="none" />
<path d="M-216.05390982036528,-115.5236255115527 L154.8471791528885,189.86139973252395" stroke="#0d6d4d" stroke-width="0.1" fill="none" />
<path d="M-214.96922249887263,-117.52971274631021 L115.02053288254322,216.32216025043712" stroke="#0d6d4d" stroke-width="0.1" fill="none" />
<path d="M-213.86590893110335,-119.52561648898951 L70.81279025139555,234.54327689535648" stroke="#0d6d4d" stroke-width="0.1" fill="none" />
<path d="M-212.74406471488325,-121.51116380230076 L23.907810440991575,243.83071299554865" stroke="#0d6d4d" stroke-width="0.1" fill="none" />
<path d="M-211.6037870536463,-123.48618264629896 L-23.907810440991515,243.83071299554865" stroke="#0d6d4d" stroke-width="0.1" fill="none" />
<path d="M-210.4451747480129,-125.45050189328985 L-70.81279025139551,234.5432768953565" stroke="#0d6d4d" stroke-width="0.1" fill="none" />
<path d="M-209.2683281872288,-127.40395134265773 L-115.02053288254316,216.32216025043715" stroke="#0d6d4d" stroke-width="0.1" fill="none" />
<path d="M-208.0733493404673,-129.34636173561222 L-154.84717915288846,189.861399732524" stroke="#0d6d4d" stroke-width="0.1" fill="none" />
<path d="M-206.8603417479937,-131.2775647698542 L-188.77574448006825,156.16887748842913" stroke="#0d6d4d" stroke-width="0.1" fill="none" />
<path d="M-205.62941051219357,-133.19739311415887 L-215.513900352321,116.52793122221752" stroke="#0d6d4d" stroke-width="0.1" fill="none" />
<path d="M-204.38066228846665,-135.10568042287392 L-234.04319871997419,72.44847226079148" stroke="#0d6d4d" stroke-width="0.1" fill="none" />
<path d="M-203.1142052759852,-137.00226135033301 L-243.65786436522697,25.60947350057507" stroke="#0d6d4d" stroke-width="0.1" fill="none" />
<path d="M-201.83014920831934,-138.88697156518157 L-243.99167766091276,-22.204982148456015" stroke="#0d6d4d" stroke-width="0.1" fill="none" />
<path d="M-200.52860534392852,-140.7596477646167 L-235.0319237623141,-69.17365692650468" stroke="#0d6d4d" stroke-width="0.1" fill="none" />
<path d="M-199.20968645652187,-142.62012768853577 L-217.11987691164762,-113.50752860436614" stroke="#0d6d4d" stroke-width="0.1" fill="none" />
<path d="M-197.87350682528637,-144.46825013359629 L-190.93780140821113,-153.5179337842929" stroke="#0d6d4d" stroke-width="0.1" fill="none" />
<path d="M-196.52018222498577,-146.30385496718253 L-157.4829643732022,-187.6808885641496" stroke="#0d6d4d" stroke-width="0.1" fill="none" />
<path d="M-195.1498299159282,-148.12678314128172 L-118.02965015492025,-214.69513661074657" stroke="#0d6d4d" stroke-width="0.1" fill="none" />
<path d="M-193.7625686338064,-149.93687670626417 L-74.08062323385906,-233.53171360927197" stroke="#0d6d4d" stroke-width="0.1" fill="none" />
<path d="M-192.35851857941034,-151.73397882456865 L-27.30988839054984,-243.47314019434612" stroke="#0d6d4d" stroke-width="0.1" fill="none" />
<path d="M-190.93780140821113,-153.5179337842929 L20.501071616417292,-244.14075051612858" stroke="#0d6d4d" stroke-width="0.1" fill="none" />
<path d="M-189.5005402198212,-155.28858701268402 L67.53115217516479,-235.50911550488814" stroke="#0d6d4d" stroke-width="0.1" fill="none" />
<path d="M-188.04685954732727,-157.04578508953298 L111.98899212938008,-217.90701145636788" stroke="#0d6d4d" stroke-width="0.1" fill="none" />
<path d="M-186.5768853465006,-158.78937576046695 L152.18120616818604,-192.00489704483076" stroke="#0d6d4d" stroke-width="0.1" fill="none" />
<path d="M-185.09074498488312,-160.51920795014215 L186.5768853465005,-158.7893757604671" stroke="#0d6d4d" stroke-width="0.1" fill="none" />
<path d="M-183.58856723075198,-162.23513177533297 L213.86590893110335,-119.52561648898954" stroke="#0d6d4d" stroke-width="0.1" fill="none" />
<path d="M-182.07048224196168,-163.93699855792016 L233.0088464923126,-75.70916362186213" stroke="#0d6d4d" stroke-width="0.1" fill="none" />
<path d="M-180.5366215546667,-165.62466083777213 L243.27654948610154,-29.00897223509273" stroke="#0d6d4d" stroke-width="0.1" fill="none" />
<path d="M-178.98711807192439,-167.29797238552237 L244.27792429559545,18.79616189107058" stroke="#0d6d4d" stroke-width="0.1" fill="none" />
<path d="M-177.4221060521795,-168.95678821523916 L235.97482886542625,65.88535605074013" stroke="#0d6d4d" stroke-width="0.1" fill="none" />
<path d="M-175.84172109763128,-170.60096459698832 L218.68352552077073,110.46499746891057" stroke="#0d6d4d" stroke-width="0.1" fill="none" />
<path d="M-174.24610014248364,-172.2303590692871 L193.0626346336469,150.83706145478627" stroke="#0d6d4d" stroke-width="0.1" fill="none" />
<path d="M-172.63538144108077,-173.84483045144756 L160.08804797757588,185.4637886346803" stroke="#0d6d4d" stroke-width="0.1" fill="none" />
<path d="M-171.0097045559276,-175.44423885580954 L121.01575731313666,213.0262577287786" stroke="#0d6d4d" stroke-width="0.1" fill="none" />
<path d="M-169.369210345598,-177.02844569986084 L77.33401405204013,232.47462285290166" stroke="#0d6d4d" stroke-width="0.1" fill="none" />
<path d="M-167.7140409525288,-178.59731371824577 L30.70664222325461,243.06810182204705" stroke="#0d6d4d" stroke-width="0.1" fill="none" />
<path d="M-166.04433979070453,-180.15070697465788 L-17.09033606731069,244.40319231365692" stroke="#0d6d4d" stroke-width="0.1" fill="none" />
<path d="M-164.36025153323072,-181.68849087361895 L-64.23634876701182,236.42904114571633" stroke="#0d6d4d" stroke-width="0.1" fill="none" />
<path d="M-162.66192209979926,-183.2105321721403 L-108.93561890030725,219.44938125865613" stroke="#0d6d4d" stroke-width="0.1" fill="none" />
<path d="M-160.94949864404393,-184.71669899126854 L-149.48556515581055,194.11096262202173" stroke="#0d6d4d" stroke-width="0.1" fill="none" />
<path d="M-159.2231295407907,-186.20686082751243 L-184.3416526794525,161.37891772907668" stroke="#0d6d4d" stroke-width="0.1" fill="none" />
<path d="M-157.4829643732022,-187.6808885641496 L-212.1762239271874,122.50000000000011" stroke="#0d6d4d" stroke-width="0.1" fill="none" />
<path d="M-155.7291539198155,-189.13865448241512 L-231.92906872834558,78.95509533147525" stroke="#0d6d4d" stroke-width="0.1" fill="none" />
<path d="M-153.96185014147937,-190.5800322725669 L-242.8478073616277,32.402815612994985" stroke="#0d6d4d" stroke-width="0.1" fill="none" />
<path d="M-152.18120616818607,-192.0048970448307 L-244.51654846492653,-15.38367728468186" stroke="#0d6d4d" stroke-width="0.1" fill="none" />
<path d="M-150.38737628580407,-193.41312534022083 L-236.87173020809257,-62.58421069426862" stroke="#0d6d4d" stroke-width="0.1" fill="none" />
<path d="M-148.58051592270928,-194.8045951412377 L-220.20454134329592,-107.40093096332396" stroke="#0d6d4d" stroke-width="0.1" fill="none" />
<path d="M-146.7607816363186,-196.17918588243967 L-195.1498299159282,-148.12678314128172" stroke="#0d6d4d" stroke-width="0.1" fill="none" />
<path d="M-144.9283310995237,-197.53677846089025 L-162.66192209979926,-183.2105321721403" stroke="#0d6d4d" stroke-width="0.1" fill="none" />
<path d="M-143.08332308703004,-198.87725524647752 L-123.97827220968514,-211.31584895577808" stroke="#0d6d4d" stroke-width="0.1" fill="none" />
<path d="M-141.22591746159938,-200.20050009210647 L-80.57232845095305,-231.3722107081828" stroke="#0d6d4d" stroke-width="0.1" fill="none" />
<path d="M-139.3562751601986,-201.50639834376233 L-34.09740973521614,-242.61567684168472" stroke="#0d6d4d" stroke-width="0.1" fill="none" />
<path d="M-137.47455818005497,-202.79483685044517 L13.676268723325132,-244.61798722458536" stroke="#0d6d4d" stroke-width="0.1" fill="none" />
<path d="M-135.58092956461934,-204.06570397397437 L60.929022355389414,-237.3028744765146" stroke="#0d6d4d" stroke-width="0.1" fill="none" />
<path d="M-133.67555338943947,-205.31888959866092 L105.86100845648566,-220.9489689692529" stroke="#0d6d4d" stroke-width="0.1" fill="none" />
<path d="M-131.7585947479434,-206.55428514084915 L146.76078163631854,-196.1791858824397" stroke="#0d6d4d" stroke-width="0.1" fill="none" />
<path d="M-129.83021973713522,-207.77178355832433 L182.0704822419616,-163.93699855792028" stroke="#0d6d4d" stroke-width="0.1" fill="none" />
<path d="M-127.8905954432025,-208.97127935958835 L210.4451747480128,-125.45050189329001" stroke="#0d6d4d" stroke-width="0.1" fill="none" />
<path d="M-125.9398899270395,-210.1526686129995 L230.80407593288768,-82.18563458881249" stroke="#0d6d4d" stroke-width="0.1" fill="none" />
<path d="M-123.97827220968514,-211.31584895577808 L242.37172157593213,-35.790341997790854" stroke="#0d6d4d" stroke-width="0.1" fill="none" />
<path d="M-122.00591225767846,-212.46071960287543 L244.70750364865134,11.968193599925197" stroke="#0d6d4d" stroke-width="0.1" fill="none" />
<path d="M-120.02298096833145,-213.58718135570672 L237.72245293761912,59.27086442191855" stroke="#0d6d4d" stroke-width="0.1" fill="none" />
<path d="M-118.02965015492025,-214.69513661074657 L221.68262785417483,104.31592643344273" stroke="#0d6d4d" stroke-width="0.1" fill="none" />
<path d="M-116.02609253180057,-215.78448936798503 L197.198980352199,145.38762721790684" stroke="#0d6d4d" stroke-width="0.1" fill="none" />
<path d="M-114.01248169944044,-216.85514523924667 L165.20408495801226,180.92155845334148" stroke="#0d6d4d" stroke-width="0.1" fill="none" />
<path d="M-111.98899212938008,-217.90701145636788 L126.91661729641689,209.56424373932416" stroke="#0d6d4d" stroke-width="0.1" fill="none" />
<path d="M-109.95579914911329,-218.939996879236 L83.79493511478887,230.22469209254754" stroke="#0d6d4d" stroke-width="0.1" fill="none" />
<path d="M-107.91307892689683,-219.9540120036853 L37.4815298895894,242.11595345440543" stroke="#0d6d4d" stroke-width="0.1" fill="none" />
<path d="M-105.86100845648565,-220.9489689692529 L-10.259535163653892,244.7850933742203" stroke="#0d6d4d" stroke-width="0.1" fill="none" />
<path d="M-103.7997655417979,-221.92478156679076 L-57.60981771013461,238.13044514174382" stroke="#0d6d4d" stroke-width="0.1" fill="none" />
<path d="M-101.72952878150775,-222.88136524593614 L-102.7657601993134,222.40548224056263" stroke="#0d6d4d" stroke-width="0.1" fill="none" />
<path d="M-99.65047755357104,-223.81863712243725 L-144.0073868116558,198.20916362186222" stroke="#0d6d4d" stroke-width="0.1" fill="none" />
<path d="M-97.56279199968353,-224.73651598533445 L-179.76381680320466,166.46311954407162" stroke="#0d6d4d" stroke-width="0.1" fill="none" />
<path d="M-95.46665300967096,-225.63492230399768 L-208.6730988650466,128.3765469626695" stroke="#0d6d4d" stroke-width="0.1" fill="none" />
<path d="M-93.36224220581732,-226.51377823501664 L-229.6340874255134,85.40015159384477" stroke="#0d6d4d" stroke-width="0.1" fill="none" />
<path d="M-91.24974192712574,-227.37300762894645 L-241.848384942882,39.17089098449975" stroke="#0d6d4d" stroke-width="0.1" fill="none" />
<path d="M-89.12933521352221,-228.21253603690485 L-244.85075261967847,-8.550376692112813" stroke="#0d6d4d" stroke-width="0.1" fill="none" />
<path d="M-87.00120578999353,-229.03229071702356 L-238.52683120392427,-55.945963177110585" stroke="#0d6d4d" stroke-width="0.1" fill="none" />
<path d="M-84.8655380506701,-229.83220064075064 L-223.1174968975134,-101.21058530701274" stroke="#0d6d4d" stroke-width="0.1" fill="none" />
<path d="M-82.72251704284734,-230.6121964990053 L-199.20968645652187,-142.62012768853577" stroke="#0d6d4d" stroke-width="0.1" fill="none" />
<path d="M-80.57232845095305,-231.3722107081828 L-167.7140409525288,-178.59731371824577" stroke="#0d6d4d" stroke-width="0.1" fill="none" />
<path d="M-78.41515858045805,-232.1121774160107 L-129.83021973713522,-207.77178355832433" stroke="#0d6d4d" stroke-width="0.1" fill="none" />
<path d="M-76.25119434173418,-232.8320325072542 L-87.00120578999353,-229.03229071702356" stroke="#0d6d4d" stroke-width="0.1" fill="none" />
<path d="M-74.08062323385906,-233.53171360927197 L-40.85834294544496,-241.56902908227372" stroke="#0d6d4d" stroke-width="0.1" fill="none" />
<path d="M-71.90363332836853,-234.21116009742047 L6.840801487274375,-244.9044781848868" stroke="#0d6d4d" stroke-width="0.1" fill="none" />
<path d="M-69.72041325296372,-234.8703131003064 L54.27938191676949,-238.911591804863" stroke="#0d6d4d" stroke-width="0.1" fill="none" />
<path d="M-67.53115217516473,-235.50911550488814 L99.65047755357105,-223.81863712243722" stroke="#0d6d4d" stroke-width="0.1" fill="none" />
<path d="M-65.33603978592178,-236.127511961424 L141.22591746159932,-200.20050009210647" stroke="#0d6d4d" stroke-width="0.1" fill="none" />
<path d="M-63.135266283177856,-236.72544888826852 L177.42210605217954,-168.95678821523913" stroke="#0d6d4d" stroke-width="0.1" fill="none" />
<path d="M-60.92902235538956,-237.30287447651457 L206.86034174799366,-131.2775647698542" stroke="#0d6d4d" stroke-width="0.1" fill="none" />
<path d="M-58.71749916500437,-237.85973869448296 L228.41933129780048,-88.59801967011265" stroke="#0d6d4d" stroke-width="0.1" fill="none" />
<path d="M-56.50088833189791,-238.39599329205683 L241.27789948799096,-42.54380352839795" stroke="#0d6d4d" stroke-width="0.1" fill="none" />
<path d="M-54.27938191676962,-238.91159180486298 L244.94626745133715,5.130892871422447" stroke="#0d6d4d" stroke-width="0.1" fill="none" />
<path d="M-52.053172404502284,-239.4064895582974 L239.28470819187115,52.61015515593049" stroke="#0d6d4d" stroke-width="0.1" fill="none" />
<path d="M-49.8224526874833,-239.88064367139646 L224.50886874274872,98.08551297643923" stroke="#0d6d4d" stroke-width="0.1" fill="none" />
<path d="M-47.58741604889305,-240.33401306055194 L201.18155623775752,139.82482408268575" stroke="#0d6d4d" stroke-width="0.1" fill="none" />
<path d="M-45.34825614595527,-240.7665584430712 L170.1913007624543,176.23825108296958" stroke="#0d6d4d" stroke-width="0.1" fill="none" />
<path d="M-43.10516699315832,-241.17824234058082 L132.71851151927126,205.93881785644263" stroke="#0d6d4d" stroke-width="0.1" fill="none" />
<path d="M-40.85834294544496,-241.56902908227372 L90.19051540774615,227.79523904262157" stroke="#0d6d4d" stroke-width="0.1" fill="none" />
<path d="M-38.60797868137312,-241.9388848079999 L44.227190586387174,240.97501034927956" stroke="#0d6d4d" stroke-width="0.1" fill="none" />
<path d="M-36.35426918624541,-242.28777747120057 L-3.4207341830904574,244.97611838227954" stroke="#0d6d4d" stroke-width="0.1" fill="none" />
<path d="M-34.09740973521614,-242.61567684168472 L-50.93836425035108,239.64616217978238" stroke="#0d6d4d" stroke-width="0.1" fill="none" />
<path d="M-31.8375958763708,-242.92255450824837 L-96.51576784978292,225.18815811753248" stroke="#0d6d4d" stroke-width="0.1" fill="none" />
<path d="M-29.575023413783462,-243.2083838811363 L-138.41691583910975,202.15280707818235" stroke="#0d6d4d" stroke-width="0.1" fill="none" />
<path d="M-27.30988839054984,-243.47314019434612 L-175.04580651003678,171.41751842577457" stroke="#0d6d4d" stroke-width="0.1" fill="none" />
<path d="M-25.04238707180154,-243.7168005077739 L-205.00725679744565,134.15298975567472" stroke="#0d6d4d" stroke-width="0.1" fill="none" />
<path d="M-22.77271592770111,-243.9393437092021 L-227.16004436886288,91.77861538689851" stroke="#0d6d4d" stroke-width="0.1" fill="none" />
<path d="M-20.501071616417384,-244.14075051612855 L-240.66037642852874,45.908422073502535" stroke="#0d6d4d" stroke-width="0.1" fill="none" />
<path d="M-18.227650967086653,-244.32100347743759 L-244.9940295228217,-1.710408773000429" stroke="#0d6d4d" stroke-width="0.1" fill="none" />
<path d="M-15.952650962757774,-244.48008697491176 L-239.99593615183932,-49.26409068076126" stroke="#0d6d4d" stroke-width="0.1" fill="none" />
<path d="M-13.67626872332521,-244.61798722458536 L-225.8564721391826,-94.94131868076522" stroke="#0d6d4d" stroke-width="0.1" fill="none" />
<path d="M-11.398701488448078,-244.73469227793848 L-203.1142052759852,-137.00226135033301" stroke="#0d6d4d" stroke-width="0.1" fill="none" />
<path d="M-9.12014660046094,-244.83019202293272 L-172.63538144108077,-173.84483045144756" stroke="#0d6d4d" stroke-width="0.1" fill="none" />
<path d="M-6.840801487274446,-244.9044781848868 L-135.58092956461934,-204.06570397397437" stroke="#0d6d4d" stroke-width="0.1" fill="none" />
<path d="M-4.560863645269831,-244.95754432719409 L-93.36224220581732,-226.51377823501664" stroke="#0d6d4d" stroke-width="0.1" fill="none" />
<path d="M-2.2805306221853248,-244.98938585187986 L-47.58741604889305,-240.33401306055194" stroke="#0d6d4d" stroke-width="0.1" fill="none" />
</svg>