<?xml version="1.0" encoding="UTF-8"?>
<svg xmlns="http://www.w3.org/2000/svg" xmlns:xlink="http://www.w3.org/1999/xlink"
     width="500.0" height="500" viewBox="-250.0 -250.0 500 500">
<defs>
</defs>
<circle cx="0" cy="0" r="245.0" fill="white" stroke-width="2" stroke="black" />
<path d="M0.0,-245.0 L0.0,-245.0" stroke="#0d6d4d" stroke-width="0.1" fill="none" />
<path d="M2.4551110622463286,-244.98769852723632 L51.178488752586105,-239.59499637722283" stroke="#0d6d4d" stroke-width="0.1" fill="none" />
<path d="M4.909975581783563,-244.9507953442615 L100.09885573279678,-223.61846766531772" stroke="#0d6d4d" stroke-width="0.1" fill="none" />
<path d="M7.364347040660474,-244.88929415690006 L144.60261309772895,-197.77533790973155" stroke="#0d6d4d" stroke-width="0.1" fill="none" />
<path d="M9.817978970439077,-244.80320114111257 L182.72614476750792,-163.205870048855" stroke="#0d6d4d" stroke-width="0.1" fill="none" />
<path d="M12.270624976945031,-244.69252494237574 L212.7873460336584,-121.43535468697792" stroke="#0d6d4d" stroke-width="0.1" fill="none" />
<path d="M14.722038765010605,-244.557276674814 L233.45984218802874,-74.30681049231433" stroke="#0d6d4d" stroke-width="0.1" fill="none" />
<path d="M17.171974163207658,-244.39746992008352 L243.83151146240496,-23.899665645340722" stroke="#0d6d4d" stroke-width="0.1" fill="none" />
<path d="M19.620185148568247,-244.21312072600827 L243.44473010166664,27.561991686500054" stroke="#0d6d4d" stroke-width="0.1" fill="none" />
<path d="M22.066425871290278,-244.00424760496867 L232.31656385810768,77.80754563126747" stroke="#0d6d4d" stroke-width="0.1" fill="none" />
<path d="M24.510450679425805,-243.77087153204224 L210.938015008147,124.62003781263567" stroke="#0d6d4d" stroke-width="0.1" fill="none" />
<path d="M26.952014143549423,-243.51301594289762 L180.2523581149172,165.9339850483066" stroke="#0d6d4d" stroke-width="0.1" fill="none" />
<path d="M29.39087108140437,-243.23070673144102 L141.61352041658336,199.92651358742273" stroke="#0d6d4d" stroke-width="0.1" fill="none" />
<path d="M31.82677658252374,-242.92397224721591 L96.72634320081379,225.09778881854524" stroke="#0d6d4d" stroke-width="0.1" fill="none" />
<path d="M34.25948603282445,-242.59284329255615 L47.57135998162892,240.33719169012997" stroke="#0d6d4d" stroke-width="0.1" fill="none" />
<path d="M36.68875513917145,-242.23735311949295 L-3.682589548095976,244.97232197581067" stroke="#0d6d4d" stroke-width="0.1" fill="none" />
<path d="M39.114339953909656,-241.85753742641552 L-54.774054099464365,238.79866623896575" stroke="#0d6d4d" stroke-width="0.1" fill="none" />
<path d="M41.53599689936124,-241.45343435448638 L-103.44875162355277,222.08862147243943" stroke="#0d6d4d" stroke-width="0.1" fill="none" />
<path d="M43.95348279228571,-241.02508448381104 L-147.55903382276716,195.5794762680672" stroke="#0d6d4d" stroke-width="0.1" fill="none" />
<path d="M46.3665548683005,-240.57253082936313 L-185.15864571679325,160.44087981659487" stroke="#0d6d4d" stroke-width="0.1" fill="none" />
<path d="M48.774970806259304,-240.09581883666476 L-214.58859923622526,118.22323408634492" stroke="#0d6d4d" stroke-width="0.1" fill="none" />
<path d="M51.178488752586105,-239.59499637722283 L-234.5503718880778,70.78928624562052" stroke="#0d6d4d" stroke-width="0.1" fill="none" />
<path d="M53.576867345562064,-239.07011374372172 L-244.16320078663412,20.231939640721304" stroke="#0d6d4d" stroke-width="0.1" fill="none" />
<path d="M55.96986573956323,-238.52122364497308 L-243.00294409498122,-31.218090287066527" stroke="#0d6d4d" stroke-width="0.1" fill="none" />
<path d="M58.357243629246184,-237.9483812006226 L-231.12079521411283,-81.29070069568922" stroke="#0d6d4d" stroke-width="0.1" fill="none" />
<path d="M60.7387612736796,-237.351643935615 L-209.04102400319204,-127.77656390628482" stroke="#0d6d4d" stroke-width="0.1" fill="none" />
<path d="M63.114179520419086,-236.7310717744173 L-177.73784469393397,-168.62460841631335" stroke="#0d6d4d" stroke-width="0.1" fill="none" />
<path d="M65.48325982952288,-236.08672703500127 L-138.59243114406135,-202.032517257937" stroke="#0d6d4d" stroke-width="0.1" fill="none" />
<path d="M67.84576429750611,-235.41867442258535 L-93.33197602338716,-226.52625068978185" stroke="#0d6d4d" stroke-width="0.1" fill="none" />
<path d="M70.2014556812311,-234.72698102313706 L-43.953482792285754,-241.025084483811" stroke="#0d6d4d" stroke-width="0.1" fill="none" />
<path d="M72.55009742173131,-234.01171629663608 L7.364347040660474,-244.88929415690006" stroke="#0d6d4d" stroke-width="0.1" fill="none" />
<path d="M74.89145366796677,-233.27295207009917 L58.357243629246184,-237.9483812006226" stroke="#0d6d4d" stroke-width="0.1" fill="none" />
<path d="M77.22528930050812,-232.51076253036723 L106.77527398737176,-220.50859589803227" stroke="#0d6d4d" stroke-width="0.1" fill="none" />
<path d="M79.55136995514745,-231.72522421665548 L150.4821146089686,-193.33942480211644" stroke="#0d6d4d" stroke-width="0.1" fill="none" />
<path d="M81.86946204643318,-230.9164160128674 L187.54931135607856,-157.63963908186514" stroke="#0d6d4d" stroke-width="0.1" fill="none" />
<path d="M84.17933279112675,-230.084419139673 L216.3413676351969,-114.98440176707699" stroke="#0d6d4d" stroke-width="0.1" fill="none" />
<path d="M86.48075023157875,-229.229317146353 L235.58790656064338,-67.25576765135888" stroke="#0d6d4d" stroke-width="0.1" fill="none" />
<path d="M88.77348325902214,-228.35119590240845 L244.43972313145497,-16.5596423698591" stroke="#0d6d4d" stroke-width="0.1" fill="none" />
<path d="M91.05730163678024,-227.45014358893778 L242.50625326082854,34.86713537695483" stroke="#0d6d4d" stroke-width="0.1" fill="none" />
<path d="M93.33197602338717,-226.52625068978182 L229.87280643166412,84.75548869088463" stroke="#0d6d4d" stroke-width="0.1" fill="none" />
<path d="M95.59727799561834,-225.57960998243715 L207.09680163073565,130.90421977277788" stroke="#0d6d4d" stroke-width="0.1" fill="none" />
<path d="M97.85298007142875,-224.61031652873956 L175.18317264140148,171.2771322252125" stroke="#0d6d4d" stroke-width="0.1" fill="none" />
<path d="M100.09885573279678,-223.61846766531772 L135.54002787430102,204.0928730843723" stroke="#0d6d4d" stroke-width="0.1" fill="none" />
<path d="M102.33467944847116,-222.60416299381882 L89.9165211342053,227.903530527989" stroke="#0d6d4d" stroke-width="0.1" fill="none" />
<path d="M104.56022669661888,-221.5675043709065 L40.325674618779836,241.65851933366696" stroke="#0d6d4d" stroke-width="0.1" fill="none" />
<path d="M106.77527398737176,-220.50859589803227 L-11.044440610159501,244.75093530282712" stroke="#0d6d4d" stroke-width="0.1" fill="none" />
<path d="M108.97959888526921,-219.42754391098177 L-61.92724774514386,237.0443333781923" stroke="#0d6d4d" stroke-width="0.1" fill="none" />
<path d="M111.17298003159539,-218.3244569691964 L-110.07767121962956,218.87874793790084" stroke="#0d6d4d" stroke-width="0.1" fill="none" />
<path d="M113.35519716660797,-217.1994458448719 L-153.37119500653154,191.05568963595007" stroke="#0d6d4d" stroke-width="0.1" fill="none" />
<path d="M115.52603115165674,-216.05262351183435 L-189.89760153106667,154.8027807655542" stroke="#0d6d4d" stroke-width="0.1" fill="none" />
<path d="M117.68526399118956,-214.88410513419558 L-218.04525520472725,111.71958952084165" stroke="#0d6d4d" stroke-width="0.1" fill="none" />
<path d="M119.83267885464342,-213.6940080547882 L-236.5722117819722,63.707053083514246" stroke="#0d6d4d" stroke-width="0.1" fill="none" />
<path d="M121.96806009821869,-212.48245178338215 L-244.6610160185643,12.883603562816614" stroke="#0d6d4d" stroke-width="0.1" fill="none" />
<path d="M124.09119328653406,-211.24955798468324 L-241.95476982305286,-38.508302479770606" stroke="#0d6d4d" stroke-width="0.1" fill="none" />
<path d="M126.20186521416024,-209.99545046611587 L-228.57287948515923,-88.2011267720706" stroke="#0d6d4d" stroke-width="0.1" fill="none" />
<path d="M128.2998639270301,-208.72025516539014 L-205.10578717431954,-134.0022987399945" stroke="#0d6d4d" stroke-width="0.1" fill="none" />
<path d="M130.3849787437229,-207.42410013785508 L-172.58891916772671,-173.89095715567242" stroke="#0d6d4d" stroke-width="0.1" fill="none" />
<path d="M132.45700027662141,-206.1071155436394 L-132.4570002766214,-206.1071155436394" stroke="#0d6d4d" stroke-width="0.1" fill="none" />
<path d="M134.51572045293818,-204.7694336345808 L-86.48075023157878,-229.229317146353" stroke="#0d6d4d" stroke-width="0.1" fill="none" />
<path d="M136.56093253561056,-203.41118874094516 L-36.68875513917153,-242.23735311949292" stroke="#0d6d4d" stroke-width="0.1" fill="none" />
<path d="M138.59243114406118,-202.03251725793712 L14.722038765010605,-244.557276674814" stroke="#0d6d4d" stroke-width="0.1" fill="none" />
<path d="M140.61001227482228,-200.63355763200315 L65.48325982952288,-236.08672703500127" stroke="#0d6d4d" stroke-width="0.1" fill="none" />
<path d="M142.61347332202175,-199.21445034692886 L113.35519716660797,-217.1994458448719" stroke="#0d6d4d" stroke-width="0.1" fill="none" />
<path d="M144.60261309772895,-197.77533790973155 L156.22562224780623,-188.7287867636672" stroke="#0d6d4d" stroke-width="0.1" fill="none" />
<path d="M146.57723185215798,-196.3163648363496 L192.20298566190232,-151.93094583609545" stroke="#0d6d4d" stroke-width="0.1" fill="none" />
<path d="M148.53713129372656,-194.83767763713013 L219.6998769632542,-108.42953500929056" stroke="#0d6d4d" stroke-width="0.1" fill="none" />
<path d="M150.4821146089686,-193.33942480211644 L237.50306515513594,-60.14394434949581" stroke="#0d6d4d" stroke-width="0.1" fill="none" />
<path d="M152.41198648229815,-191.82175678613666 L244.8270294483712,-9.204653795030577" stroke="#0d6d4d" stroke-width="0.1" fill="none" />
<path d="M154.32655311562306,-190.284825993695 L241.34861838550674,42.14076889909629" stroke="#0d6d4d" stroke-width="0.1" fill="none" />
<path d="M156.22562224780623,-188.7287867636672 L227.22130808406322,91.62683642125393" stroke="#0d6d4d" stroke-width="0.1" fill="none" />
<path d="M158.1090031739725,-187.15379535380188 L203.06843048983174,137.07010081850956" stroke="#0d6d4d" stroke-width="0.1" fill="none" />
<path d="M159.97650676465932,-185.56000992502914 L169.95567042646374,176.46549263210426" stroke="#0d6d4d" stroke-width="0.1" fill="none" />
<path d="M161.82794548480905,-183.94759052557785 L129.34404493969532,208.0747895316443" stroke="#0d6d4d" stroke-width="0.1" fill="none" />
<path d="M163.66313341260138,-182.31669907490385 L83.02543960408023,230.50331099259557" stroke="#0d6d4d" stroke-width="0.1" fill="none" />
<path d="M165.4818862581236,-180.6674993474295 L33.04354609015731,242.76145505781525" stroke="#0d6d4d" stroke-width="0.1" fill="none" />
<path d="M167.28402138187693,-179.00015695609807 L-18.396310577453104,244.3083620286827" stroke="#0d6d4d" stroke-width="0.1" fill="none" />
<path d="M169.06935781311742,-177.3148393357422 L-69.02447642615022,235.07577853555188" stroke="#0d6d4d" stroke-width="0.1" fill="none" />
<path d="M170.83771626802886,-175.61171572627057 L-116.60711129408311,215.47106904558976" stroke="#0d6d4d" stroke-width="0.1" fill="none" />
<path d="M172.58891916772663,-173.8909571556725 L-159.04475139478222,186.35924193281082" stroke="#0d6d4d" stroke-width="0.1" fill="none" />
<path d="M174.32279065609,-172.15273642284345 L-194.46494286305304,149.0247831646452" stroke="#0d6d4d" stroke-width="0.1" fill="none" />
<path d="M176.03915661742212,-170.3972280802324 L-221.3048590604833,105.11498159738994" stroke="#0d6d4d" stroke-width="0.1" fill="none" />
<path d="M177.73784469393402,-168.62460841631327 L-238.38025636028007,56.567246508975124" stroke="#0d6d4d" stroke-width="0.1" fill="none" />
<path d="M179.41868430305348,-166.8350554378822 L-244.93772591129428,5.523624299649553" stroke="#0d6d4d" stroke-width="0.1" fill="none" />
<path d="M181.08150665455466,-165.02874885218176 L-240.68793590389748,-45.76371390437348" stroke="#0d6d4d" stroke-width="0.1" fill="none" />
<path d="M182.72614476750792,-163.205870048855 L-225.818397606547,-95.03184362313223" stroke="#0d6d4d" stroke-width="0.1" fill="none" />
<path d="M184.3524334870484,-161.36660208173006 L-200.98519190386492,-140.10693285975037" stroke="#0d6d4d" stroke-width="0.1" fill="none" />
<path d="M185.9602095009606,-159.51112965043802 L-167.28402138187693,-179.00015695609807" stroke="#0d6d4d" stroke-width="0.1" fill="none" />
<path d="M187.54931135607856,-157.63963908186514 L-126.20186521416026,-209.99545046611587" stroke="#0d6d4d" stroke-width="0.1" fill="none" />
<path d="M189.11957947449858,-155.7523183114422 L-79.55136995514752,-231.72522421665548" stroke="#0d6d4d" stroke-width="0.1" fill="none" />
<path d="M190.67085616960452,-153.84935686427156 L-29.390871081404498,-243.23070673144102" stroke="#0d6d4d" stroke-width="0.1" fill="none" />
<path d="M192.20298566190232,-151.93094583609545 L22.066425871290278,-244.00424760496867" stroke="#0d6d4d" stroke-width="0.1" fill="none" />
<path d="M193.71581409466367,-149.99727787410578 L72.55009742173131,-234.01171629663608" stroke="#0d6d4d" stroke-width="0.1" fill="none" />
<path d="M195.20918954937625,-148.04854715759862 L119.83267885464342,-213.6940080547882" stroke="#0d6d4d" stroke-width="0.1" fill="none" />
<path d="M196.6829620609993,-146.08494937847468 L161.82794548480905,-183.94759052557785" stroke="#0d6d4d" stroke-width="0.1" fill="none" />
<path d="M198.1369836330235,-144.1066817215877 L196.6829620609993,-146.08494937847468" stroke="#0d6d4d" stroke-width="0.1" fill="none" />
<path d="M199.57110825233227,-142.11394284494358 L222.85983886185699,-101.77667818546217" stroke="#0d6d4d" stroke-width="0.1" fill="none" />
<path d="M200.98519190386483,-140.1069328597505 L239.20358720214426,-52.97776769198728" stroke="#0d6d4d" stroke-width="0.1" fill="none" />
<path d="M202.37909258507818,-138.08585331032415 L244.9930803962365,-1.8413467797218694" stroke="#0d6d4d" stroke-width="0.1" fill="none" />
<path d="M203.75267032020685,-136.05090715384847 L239.97287165484306,49.376318916340985" stroke="#0d6d4d" stroke-width="0.1" fill="none" />
<path d="M205.1057871743195,-134.0022987399946 L224.36446503048907,98.41537903997751" stroke="#0d6d4d" stroke-width="0.1" fill="none" />
<path d="M206.4383072671701,-131.9402337904002 L198.8565421097085,143.1121087126094" stroke="#0d6d4d" stroke-width="0.1" fill="none" />
<path d="M207.7500967868434,-129.86491937801065 L164.5745756745123,181.49437743785404" stroke="#0d6d4d" stroke-width="0.1" fill="none" />
<path d="M209.041024003192,-127.77656390628488 L123.0311710537018,211.86866438705553" stroke="#0d6d4d" stroke-width="0.1" fill="none" />
<path d="M210.31095928106498,-125.67537708826747 L76.05932622668894,232.89478073572647" stroke="#0d6d4d" stroke-width="0.1" fill="none" />
<path d="M211.55977509332575,-123.56156992552913 L25.731555409461937,243.6450021162137" stroke="#0d6d4d" stroke-width="0.1" fill="none" />
<path d="M212.7873460336584,-121.43535468697792 L-25.73155540946177,243.64500211621373" stroke="#0d6d4d" stroke-width="0.1" fill="none" />
<path d="M213.99354882916091,-119.29694488754323 L-76.05932622668888,232.8947807357265" stroke="#0d6d4d" stroke-width="0.1" fill="none" />
<path d="M215.1782623527245,-117.14655526673445 L-123.03117105370166,211.86866438705562" stroke="#0d6d4d" stroke-width="0.1" fill="none" />
<path d="M216.3413676351969,-114.98440176707699 L-164.57457567451223,181.4943774378541" stroke="#0d6d4d" stroke-width="0.1" fill="none" />
<path d="M217.4827478773296,-112.81070151242697 L-198.85654210970844,143.11210871260946" stroke="#0d6d4d" stroke-width="0.1" fill="none" />
<path d="M218.60228846150653,-110.62567278616787 L-224.36446503048913,98.41537903997741" stroke="#0d6d4d" stroke-width="0.1" fill="none" />
<path d="M219.6998769632542,-108.42953500929056 L-239.97287165484303,49.37631891634115" stroke="#0d6d4d" stroke-width="0.1" fill="none" />
<path d="M220.77540316253132,-106.22250871835857 L-244.9930803962365,-1.8413467797218637" stroke="#0d6d4d" stroke-width="0.1" fill="none" />
<path d="M221.82875905479705,-104.0048155433622 L-239.20358720214426,-52.977767691987225" stroke="#0d6d4d" stroke-width="0.1" fill="none" />
<path d="M222.85983886185699,-101.77667818546217 L-222.85983886185696,-101.77667818546227" stroke="#0d6d4d" stroke-width="0.1" fill="none" />
<path d="M223.8685390424853,-99.53832039462604 L-196.68296206099944,-146.08494937847448" stroke="#0d6d4d" stroke-width="0.1" fill="none" />
<path d="M224.85475830282243,-97.28996694715906 L-161.82794548480905,-183.94759052557785" stroke="#0d6d4d" stroke-width="0.1" fill="none" />
<path d="M225.81839760654697,-95.03184362313227 L-119.83267885464346,-213.6940080547882" stroke="#0d6d4d" stroke-width="0.1" fill="none" />
<path d="M226.7593601848209,-92.76417718370953 L-72.55009742173141,-234.01171629663605" stroke="#0d6d4d" stroke-width="0.1" fill="none" />
<path d="M227.67755154600738,-90.48719534837596 L-22.06642587129044,-244.00424760496864" stroke="#0d6d4d" stroke-width="0.1" fill="none" />
<path d="M228.5728794851592,-88.20112677207065 L29.39087108140437,-243.23070673144102" stroke="#0d6d4d" stroke-width="0.1" fill="none" />
<path d="M229.4452540932784,-85.90620102222485 L79.55136995514745,-231.72522421665548" stroke="#0d6d4d" stroke-width="0.1" fill="none" />
<path d="M230.2945877663447,-83.60264855570878 L126.20186521416024,-209.99545046611587" stroke="#0d6d4d" stroke-width="0.1" fill="none" />
<path d="M231.12079521411283,-81.29070069568922 L167.28402138187693,-179.00015695609807" stroke="#0d6d4d" stroke-width="0.1" fill="none" />
<path d="M231.9237934686773,-78.97058960839992 L200.98519190386483,-140.1069328597505" stroke="#0d6d4d" stroke-width="0.1" fill="none" />
<path d="M232.7035018928042,-76.64254827982738 L225.81839760654697,-95.03184362313227" stroke="#0d6d4d" stroke-width="0.1" fill="none" />
<path d="M233.45984218802874,-74.30681049231433 L240.68793590389745,-45.76371390437349" stroke="#0d6d4d" stroke-width="0.1" fill="none" />
<path d="M234.19273840251788,-71.96361080108355 L244.93772591129428,5.523624299649602" stroke="#0d6d4d" stroke-width="0.1" fill="none" />
<path d="M234.90211693869756,-69.61318451068344 L238.3802563602801,56.56724650897501" stroke="#0d6d4d" stroke-width="0.1" fill="none" />
<path d="M235.58790656064338,-67.25576765135888 L221.3048590604833,105.11498159738989" stroke="#0d6d4d" stroke-width="0.1" fill="none" />
<path d="M236.25003840123404,-64.89159695534887 L194.46494286305307,149.02478316464516" stroke="#0d6d4d" stroke-width="0.1" fill="none" />
<path d="M236.88844596906713,-62.52090983311401 L159.04475139478228,186.3592419328108" stroke="#0d6d4d" stroke-width="0.1" fill="none" />
<path d="M237.50306515513594,-60.14394434949581 L116.60711129408305,215.4710690455898" stroke="#0d6d4d" stroke-width="0.1" fill="none" />
<path d="M238.0938342392677,-57.760939199809684 L69.02447642615026,235.07577853555185" stroke="#0d6d4d" stroke-width="0.1" fill="none" />
<path d="M238.66069389632116,-55.37213368587564 L18.396310577453168,244.3083620286827" stroke="#0d6d4d" stroke-width="0.1" fill="none" />
<path d="M239.20358720214426,-52.97776769198728 L-33.04354609015725,242.76145505781525" stroke="#0d6d4d" stroke-width="0.1" fill="none" />
<path d="M239.7224596392903,-50.57808166082266 L-83.02543960408018,230.50331099259557" stroke="#0d6d4d" stroke-width="0.1" fill="none" />
<path d="M240.2172591024927,-48.17331656929894 L-129.34404493969527,208.07478953164434" stroke="#0d6d4d" stroke-width="0.1" fill="none" />
<path d="M240.68793590389745,-45.76371390437349 L-169.9556704264637,176.46549263210431" stroke="#0d6d4d" stroke-width="0.1" fill="none" />
<path d="M241.1344427780527,-43.34951563879373 L-203.06843048983163,137.0701008185097" stroke="#0d6d4d" stroke-width="0.1" fill="none" />
<path d="M241.5567348866552,-40.93096420679801 L-227.22130808406317,91.62683642125408" stroke="#0d6d4d" stroke-width="0.1" fill="none" />
<path d="M241.95476982305286,-38.50830247977061 L-241.34861838550674,42.140768899096294" stroke="#0d6d4d" stroke-width="0.1" fill="none" />
<path d="M242.32850761650346,-36.08177374185235 L-244.8270294483712,-9.204653795030517" stroke="#0d6d4d" stroke-width="0.1" fill="none" />
<path d="M242.6779107361883,-33.65162166551002 L-237.50306515513597,-60.1439443494957" stroke="#0d6d4d" stroke-width="0.1" fill="none" />
<path d="M243.0029440949812,-31.218090287066687 L-219.69987696325427,-108.42953500929042" stroke="#0d6d4d" stroke-width="0.1" fill="none" />
<path d="M243.3035750529718,-28.78142398219561 L-192.20298566190232,-151.93094583609545" stroke="#0d6d4d" stroke-width="0.1" fill="none" />
<path d="M243.57977342074355,-26.34186744137995 L-156.22562224780623,-188.72878676366716" stroke="#0d6d4d" stroke-width="0.1" fill="none" />
<path d="M243.83151146240496,-23.899665645340722 L-113.35519716660804,-217.19944584487183" stroke="#0d6d4d" stroke-width="0.1" fill="none" />
<path d="M244.0587638983751,-21.455063840436274 L-65.483259829523,-236.08672703500122" stroke="#0d6d4d" stroke-width="0.1" fill="none" />
<path d="M244.26150790792215,-19.00830751403406 L-14.722038765010588,-244.557276674814" stroke="#0d6d4d" stroke-width="0.1" fill="none" />
<path d="M244.43972313145497,-16.5596423698591 L36.68875513917145,-242.23735311949295" stroke="#0d6d4d" stroke-width="0.1" fill="none" />
<path d="M244.59339167256775,-14.109314303320105 L86.48075023157875,-229.229317146353" stroke="#0d6d4d" stroke-width="0.1" fill="none" />
<path d="M244.72249809983694,-11.65756937681689 L132.45700027662141,-206.1071155436394" stroke="#0d6d4d" stroke-width="0.1" fill="none" />
<path d="M244.8270294483712,-9.204653795030577 L172.58891916772663,-173.8909571556725" stroke="#0d6d4d" stroke-width="0.1" fill="none" />
<path d="M244.9069752211131,-6.750813880199705 L205.1057871743195,-134.0022987399946" stroke="#0d6d4d" stroke-width="0.1" fill="none" />
<path d="M244.9623273898932,-4.296296047384508 L228.5728794851592,-88.20112677207065" stroke="#0d6d4d" stroke-width="0.1" fill="none" />
<path d="M244.9930803962365,-1.8413467797218694 L241.95476982305286,-38.50830247977061" stroke="#0d6d4d" stroke-width="0.1" fill="none" />
<path d="M244.99923115192036,0.6137873963265043 L244.6610160185643,12.883603562816445" stroke="#0d6d4d" stroke-width="0.1" fill="none" />
<path d="M244.98077903928478,3.06885993573059 L236.57221178197221,63.70705308351414" stroke="#0d6d4d" stroke-width="0.1" fill="none" />
<path d="M244.93772591129428,5.523624299649602 L218.04525520472728,111.71958952084161" stroke="#0d6d4d" stroke-width="0.1" fill="none" />
<path d="M244.87007609135202,7.977833980189956 L189.89760153106673,154.8027807655541" stroke="#0d6d4d" stroke-width="0.1" fill="none" />
<path d="M244.7778363728655,10.431242525159584 L153.37119500653168,191.05568963594996" stroke="#0d6d4d" stroke-width="0.1" fill="none" />
<path d="M244.6610160185643,12.883603562816445 L110.07767121962962,218.8787479379008" stroke="#0d6d4d" stroke-width="0.1" fill="none" />
<path d="M244.51962675957026,15.334670826609424 L61.92724774514402,237.04433337819228" stroke="#0d6d4d" stroke-width="0.1" fill="none" />
<path d="M244.35368279421888,17.78419817990836 L11.044440610159562,244.75093530282712" stroke="#0d6d4d" stroke-width="0.1" fill="none" />
<path d="M244.16320078663412,20.231939640721354 L-40.32567461877967,241.658519333667" stroke="#0d6d4d" stroke-width="0.1" fill="none" />
<path d="M243.9481998650545,22.677649406396124 L-89.91652113420533,227.90353052798898" stroke="#0d6d4d" stroke-width="0.1" fill="none" />
<path d="M243.70870161991257,25.121081878303244 L-135.54002787430088,204.09287308437237" stroke="#0d6d4d" stroke-width="0.1" fill="none" />
<path d="M243.44473010166664,27.561991686500054 L-175.18317264140148,171.27713222521248" stroke="#0d6d4d" stroke-width="0.1" fill="none" />
<path d="M243.1563118183855,30.000133714369976 L-207.09680163073554,130.90421977277802" stroke="#0d6d4d" stroke-width="0.1" fill="none" />
<path d="M242.84347573308685,32.4352631232375 L-229.87280643166412,84.75548869088463" stroke="#0d6d4d" stroke-width="0.1" fill="none" />
<path d="M242.50625326082854,34.86713537695483 L-242.50625326082852,34.867135376954884" stroke="#0d6d4d" stroke-width="0.1" fill="none" />
<path d="M242.1446782655538,37.29550626645844 L-244.43972313145497,-16.55964236985899" stroke="#0d6d4d" stroke-width="0.1" fill="none" />
<path d="M241.7587870566909,39.7201319342923 L-235.58790656064343,-67.25576765135874" stroke="#0d6d4d" stroke-width="0.1" fill="none" />
<path d="M241.34861838550674,42.14076889909629 L-216.3413676351969,-114.98440176707699" stroke="#0d6d4d" stroke-width="0.1" fill="none" />
<path d="M240.9142134412155,44.55717408005654 L-187.54931135607856,-157.6396390818651" stroke="#0d6d4d" stroke-width="0.1" fill="none" />
<path d="M240.45561584684242,46.96910482131585 L-150.48211460896866,-193.3394248021164" stroke="#0d6d4d" stroke-width="0.1" fill="none" />
<path d="M239.97287165484306,49.376318916340985 L-106.77527398737188,-220.5085958980322" stroke="#0d6d4d" stroke-width="0.1" fill="none" />
<path d="M239.46602934247903,51.77857463224509 L-58.357243629246156,-237.9483812006226" stroke="#0d6d4d" stroke-width="0.1" fill="none" />
<path d="M238.93513980694942,54.17563073406283 L-7.364347040660496,-244.88929415690004" stroke="#0d6d4d" stroke-width="0.1" fill="none" />
<path d="M238.3802563602801,56.56724650897501 L43.95348279228571,-241.02508448381104" stroke="#0d6d4d" stroke-width="0.1" fill="none" />
<path d="M237.80143472396986,58.953181790481054 L93.33197602338717,-226.52625068978182" stroke="#0d6d4d" stroke-width="0.1" fill="none" />
<path d="M237.19873302339496,61.33319698251674 L138.59243114406118,-202.03251725793712" stroke="#0d6d4d" stroke-width="0.1" fill="none" />
<path d="M236.57221178197221,63.70705308351414 L177.73784469393402,-168.62460841631327" stroke="#0d6d4d" stroke-width="0.1" fill="none" />
<path d="M235.92193391508107,66.07451171040246 L209.041024003192,-127.77656390628488" stroke="#0d6d4d" stroke-width="0.1" fill="none" />
<path d="M235.24796472374584,68.43533512254643 L231.12079521411283,-81.29070069568922" stroke="#0d6d4d" stroke-width="0.1" fill="none" />
<path d="M234.55037188807782,70.7892862456204 L243.0029440949812,-31.218090287066687" stroke="#0d6d4d" stroke-width="0.1" fill="none" />
<path d="M233.8292254604793,73.13612869541521 L244.16320078663412,20.231939640721354" stroke="#0d6d4d" stroke-width="0.1" fill="none" />
<path d="M233.08459785860856,75.47562680157569 L234.55037188807782,70.7892862456204" stroke="#0d6d4d" stroke-width="0.1" fill="none" />
<path d="M232.31656385810768,77.80754563126747 L214.5885992362253,118.22323408634485" stroke="#0d6d4d" stroke-width="0.1" fill="none" />
<path d="M231.52520058509378,80.1316510127683 L185.1586457167933,160.44087981659482" stroke="#0d6d4d" stroke-width="0.1" fill="none" />
<path d="M230.71058750841374,82.44770955898392 L147.55903382276722,195.57947626806714" stroke="#0d6d4d" stroke-width="0.1" fill="none" />
<path d="M229.87280643166412,84.75548869088463 L103.44875162355282,222.08862147243943" stroke="#0d6d4d" stroke-width="0.1" fill="none" />
<path d="M229.01194148497632,87.05475666086133 L54.77405409946442,238.79866623896572" stroke="#0d6d4d" stroke-width="0.1" fill="none" />
<path d="M228.12807911656827,89.3452825759971 L3.6825895480959274,244.97232197581067" stroke="#0d6d4d" stroke-width="0.1" fill="none" />
<path d="M227.22130808406322,91.62683642125393 L-47.57135998162887,240.33719169012997" stroke="#0d6d4d" stroke-width="0.1" fill="none" />
<path d="M226.2917194455768,93.89918908257064 L-96.72634320081384,225.0977888185452" stroke="#0d6d4d" stroke-width="0.1" fill="none" />
<path d="M225.33940655057282,96.16211236987084 L-141.6135204165833,199.92651358742276" stroke="#0d6d4d" stroke-width="0.1" fill="none" />
<path d="M224.36446503048907,98.41537903997751 L-180.25235811491723,165.93398504830657" stroke="#0d6d4d" stroke-width="0.1" fill="none" />
<path d="M223.3669927891343,100.65876281943282 L-210.938015008147,124.62003781263567" stroke="#0d6d4d" stroke-width="0.1" fill="none" />
<path d="M222.3470899928563,102.89203842722074 L-232.31656385810768,77.80754563126747" stroke="#0d6d4d" stroke-width="0.1" fill="none" />
<path d="M221.3048590604833,105.11498159738989 L-243.4447301016666,27.561991686500114" stroke="#0d6d4d" stroke-width="0.1" fill="none" />
<path d="M220.24040465303938,107.32736910157386 L-243.83151146240496,-23.899665645340615" stroke="#0d6d4d" stroke-width="0.1" fill="none" />
<path d="M219.15383366323377,109.52897877140855 L-233.45984218802874,-74.30681049231438" stroke="#0d6d4d" stroke-width="0.1" fill="none" />
<path d="M218.04525520472728,111.71958952084161 L-212.7873460336585,-121.43535468697772" stroke="#0d6d4d" stroke-width="0.1" fill="none" />
<path d="M216.91478060117473,113.89898136833459 L-182.72614476750795,-163.20587004885493" stroke="#0d6d4d" stroke-width="0.1" fill="none" />
<path d="M215.76252337504576,116.06693545895328 L-144.60261309772903,-197.77533790973152" stroke="#0d6d4d" stroke-width="0.1" fill="none" />
<path d="M214.5885992362253,118.22323408634485 L-100.09885573279674,-223.61846766531772" stroke="#0d6d4d" stroke-width="0.1" fill="none" />
<path d="M213.39312607039335,120.36766071460063 L-51.17848875258632,-239.59499637722277" stroke="#0d6d4d" stroke-width="0.1" fill="none" />
<path d="M212.17622392718746,122.50000000000003 L0.0,-245.0" stroke="#0d6d4d" stroke-width="0.1" fill="none" />
<path d="M210.938015008147,124.62003781263567 L51.178488752586105,-239.59499637722283" stroke="#0d6d4d" stroke-width="0.1" fill="none" />
<path d="M209.6786236544417,126.72756125791655 L100.09885573279678,-223.61846766531772" stroke="#0d6d4d" stroke-width="0.1" fill="none" />
<path d="M208.3981763343853,128.82235869794675 L144.60261309772895,-197.77533790973155" stroke="#0d6d4d" stroke-width="0.1" fill="none" />
<path d="M207.09680163073565,130.90421977277788 L182.72614476750792,-163.205870048855" stroke="#0d6d4d" stroke-width="0.1" fill="none" />
<path d="M205.77463022778227,132.97293542153412 L212.7873460336584,-121.43535468697792" stroke="#0d6d4d" stroke-width="0.1" fill="none" />
<path d="M204.4317948982232,135.02829790340542 L233.45984218802874,-74.30681049231433" stroke="#0d6d4d" stroke-width="0.1" fill="none" />
<path d="M203.06843048983174,137.07010081850956 L243.83151146240496,-23.899665645340722" stroke="#0d6d4d" stroke-width="0.1" fill="none" />
<path d="M201.68467391191507,139.09813912861839 L243.44473010166664,27.561991686500054" stroke="#0d6d4d" stroke-width="0.1" fill="none" />
<path d="M200.28066412156605,141.11220917774781 L232.31656385810768,77.80754563126747" stroke="#0d6d4d" stroke-width="0.1" fill="none" />
<path d="M198.8565421097085,143.1121087126094 L210.938015008147,124.62003781263567" stroke="#0d6d4d" stroke-width="0.1" fill="none" />
<path d="M197.4124508869396,145.09763690292013 L180.2523581149172,165.9339850483066" stroke="#0d6d4d" stroke-width="0.1" fill="none" />
<path d="M195.94853546916843,147.06859436157012 L141.61352041658336,199.92651358742273" stroke="#0d6d4d" stroke-width="0.1" fill="none" />
<path d="M194.46494286305307,149.02478316464516 L96.72634320081379,225.09778881854524" stroke="#0d6d4d" stroke-width="0.1" fill="none" />
<path d="M192.96182205123876,150.96600687130223 L47.57135998162892,240.33719169012997" stroke="#0d6d4d" stroke-width="0.1" fill="none" />
<path d="M191.43932397739684,152.8920705434958 L-3.682589548095976,244.97232197581067" stroke="#0d6d4d" stroke-width="0.1" fill="none" />
<path d="M189.89760153106673,154.8027807655541 L-54.774054099464365,238.79866623896575" stroke="#0d6d4d" stroke-width="0.1" fill="none" />
<path d="M188.3368095323029,156.69794566360164 L-103.44875162355277,222.08862147243943" stroke="#0d6d4d" stroke-width="0.1" fill="none" />
<path d="M186.75710471612808,158.57737492482707 L-147.55903382276716,195.5794762680672" stroke="#0d6d4d" stroke-width="0.1" fill="none" />
<path d="M185.1586457167933,160.44087981659482 L-185.15864571679325,160.44087981659487" stroke="#0d6d4d" stroke-width="0.1" fill="none" />
<path d="M183.54159305184845,162.28827320539725 L-214.58859923622526,118.22323408634492" stroke="#0d6d4d" stroke-width="0.1" fill="none" />
<path d="M181.90610910602246,164.11936957564714 L-234.5503718880778,70.78928624562052" stroke="#0d6d4d" stroke-width="0.1" fill="none" />
<path d="M180.2523581149172,165.9339850483066 L-244.16320078663412,20.231939640721304" stroke="#0d6d4d" stroke-width="0.1" fill="none" />
<path d="M178.5805061485146,167.73193739935263 L-243.00294409498122,-31.218090287066527" stroke="#0d6d4d" stroke-width="0.1" fill="none" />
<path d="M176.89072109449967,169.51304607807606 L-231.12079521411283,-81.29070069568922" stroke="#0d6d4d" stroke-width="0.1" fill="none" />
<path d="M175.18317264140148,171.2771322252125 L-209.04102400319204,-127.77656390628482" stroke="#0d6d4d" stroke-width="0.1" fill="none" />
<path d="M173.45803226155314,173.0240186909031 L-177.73784469393397,-168.62460841631335" stroke="#0d6d4d" stroke-width="0.1" fill="none" />
<path d="M171.71547319387213,174.75353005248445 L-138.59243114406135,-202.032517257937" stroke="#0d6d4d" stroke-width="0.1" fill="none" />
<path d="M169.95567042646374,176.46549263210426 L-93.33197602338716,-226.52625068978185" stroke="#0d6d4d" stroke-width="0.1" fill="none" />
<path d="M168.17880067904906,178.159734514162 L-43.953482792285754,-241.025084483811" stroke="#0d6d4d" stroke-width="0.1" fill="none" />
<path d="M166.38504238521813,179.83608556257323 L7.364347040660474,-244.88929415690006" stroke="#0d6d4d" stroke-width="0.1" fill="none" />
<path d="M164.5745756745123,181.49437743785404 L58.357243629246184,-237.9483812006226" stroke="#0d6d4d" stroke-width="0.1" fill="none" />
<path d="M162.74758235433495,183.13444361402625 L106.77527398737176,-220.50859589803227" stroke="#0d6d4d" stroke-width="0.1" fill="none" />
<path d="M160.90424589169498,184.75611939533957 L150.4821146089686,-193.33942480211644" stroke="#0d6d4d" stroke-width="0.1" fill="none" />
<path d="M159.04475139478228,186.3592419328108 L187.54931135607856,-157.63963908186514" stroke="#0d6d4d" stroke-width="0.1" fill="none" />
<path d="M157.16928559438,187.9436502405767 L216.3413676351969,-114.98440176707699" stroke="#0d6d4d" stroke-width="0.1" fill="none" />
<path d="M155.2780368251121,189.5091852120607 L235.58790656064338,-67.25576765135888" stroke="#0d6d4d" stroke-width="0.1" fill="none" />
<path d="M153.37119500653168,191.05568963594996 L244.43972313145497,-16.5596423698591" stroke="#0d6d4d" stroke-width="0.1" fill="none" />
<path d="M151.44895162404833,192.58300821198287 L242.50625326082854,34.86713537695483" stroke="#0d6d4d" stroke-width="0.1" fill="none" />
<path d="M149.5114997096997,194.09098756654433 L229.87280643166412,84.75548869088463" stroke="#0d6d4d" stroke-width="0.1" fill="none" />
<path d="M147.55903382276722,195.57947626806714 L207.09680163073565,130.90421977277788" stroke="#0d6d4d" stroke-width="0.1" fill="none" />
<path d="M145.59175003023793,197.04832484223942 L175.18317264140148,171.2771322252125" stroke="#0d6d4d" stroke-width="0.1" fill="none" />
<path d="M143.60984588711574,198.49738578701448 L135.54002787430102,204.0928730843723" stroke="#0d6d4d" stroke-width="0.1" fill="none" />
<path d="M141.61352041658336,199.92651358742273 L89.9165211342053,227.903530527989" stroke="#0d6d4d" stroke-width="0.1" fill="none" />
<path d="M139.60297409001524,201.33556473018504 L40.325674618779836,241.65851933366696" stroke="#0d6d4d" stroke-width="0.1" fill="none" />
<path d="M137.5784088068471,202.72439771812384 L-11.044440610159501,244.75093530282712" stroke="#0d6d4d" stroke-width="0.1" fill="none" />
<path d="M135.54002787430102,204.0928730843723 L-61.92724774514386,237.0443333781923" stroke="#0d6d4d" stroke-width="0.1" fill="none" />
<path d="M133.4880359869689,205.44085340637994 L-110.07767121962956,218.87874793790084" stroke="#0d6d4d" stroke-width="0.1" fill="none" />
<path d="M131.42263920625751,206.76820331971226 L-153.37119500653154,191.05568963595007" stroke="#0d6d4d" stroke-width="0.1" fill="none" />
<path d="M129.34404493969532,208.0747895316443 L-189.89760153106667,154.8027807655542" stroke="#0d6d4d" stroke-width="0.1" fill="none" />
<path d="M127.25246192010472,209.36048083454597 L-218.04525520472725,111.71958952084165" stroke="#0d6d4d" stroke-width="0.1" fill="none" />
<path d="M125.1481001846414,210.62514811905763 L-236.5722117819722,63.707053083514246" stroke="#0d6d4d" stroke-width="0.1" fill="none" />
<path d="M123.0311710537018,211.86866438705553 L-244.6610160185643,12.883603562816614" stroke="#0d6d4d" stroke-width="0.1" fill="none" />
<path d="M120.90188710970241,213.0909047644051 L-241.95476982305286,-38.508302479770606" stroke="#0d6d4d" stroke-width="0.1" fill="none" />
<path d="M118.76046217573295,214.29174651350039 L-228.57287948515923,-88.2011267720706" stroke="#0d6d4d" stroke-width="0.1" fill="none" />
<path d="M116.60711129408305,215.4710690455898 L-205.10578717431954,-134.0022987399945" stroke="#0d6d4d" stroke-width="0.1" fill="none" />
<path d="M114.4420507046483,216.62875393288564 L-172.58891916772671,-173.89095715567242" stroke="#0d6d4d" stroke-width="0.1" fill="none" />
<path d="M112.26549782321558,217.76468492045623 L-132.4570002766214,-206.1071155436394" stroke="#0d6d4d" stroke-width="0.1" fill="none" />
<path d="M110.07767121962962,218.8787479379008 L-86.48075023157878,-229.229317146353" stroke="#0d6d4d" stroke-width="0.1" fill="none" />
<path d="M107.87879059584442,219.9708311108042 L-36.68875513917153,-242.23735311949292" stroke="#0d6d4d" stroke-width="0.1" fill="none" />
<path d="M105.669076763861,221.04082477197113 L14.722038765010605,-244.557276674814" stroke="#0d6d4d" stroke-width="0.1" fill="none" />
<path d="M103.44875162355282,222.08862147243943 L65.48325982952288,-236.08672703500127" stroke="#0d6d4d" stroke-width="0.1" fill="none" />
<path d="M101.21803814038324,223.11411599226957 L113.35519716660797,-217.1994458448719" stroke="#0d6d4d" stroke-width="0.1" fill="none" />
<path d="M98.9771603230146,224.11720535111147 L156.22562224780623,-188.7287867636672" stroke="#0d6d4d" stroke-width="0.1" fill="none" />
<path d="M96.72634320081379,225.09778881854524 L192.20298566190232,-151.93094583609545" stroke="#0d6d4d" stroke-width="0.1" fill="none" />
<path d="M94.4658128012546,226.0557679241968 L219.6998769632542,-108.42953500929056" stroke="#0d6d4d" stroke-width="0.1" fill="none" />
<path d="M92.19579612721972,226.99104646762643 L237.50306515513594,-60.14394434949581" stroke="#0d6d4d" stroke-width="0.1" fill="none" />
<path d="M89.9165211342053,227.903530527989 L244.8270294483712,-9.204653795030577" stroke="#0d6d4d" stroke-width="0.1" fill="none" />
<path d="M87.62821670742984,228.79312847346554 L241.34861838550674,42.14076889909629" stroke="#0d6d4d" stroke-width="0.1" fill="none" />
<path d="M85.33111263884904,229.65975097046513 L227.22130808406322,91.62683642125393" stroke="#0d6d4d" stroke-width="0.1" fill="none" />
<path d="M83.02543960408023,230.50331099259557 L203.06843048983174,137.07010081850956" stroke="#0d6d4d" stroke-width="0.1" fill="none" />
<path d="M80.71142913923819,231.3237238294026 L169.95567042646374,176.46549263210426" stroke="#0d6d4d" stroke-width="0.1" fill="none" />
<path d="M78.38931361768364,232.12090709487683 L129.34404493969532,208.0747895316443" stroke="#0d6d4d" stroke-width="0.1" fill="none" />
<path d="M76.05932622668894,232.89478073572647 L83.02543960408023,230.50331099259557" stroke="#0d6d4d" stroke-width="0.1" fill="none" />
<path d="M73.72170094402064,233.6452670394168 L33.04354609015731,242.76145505781525" stroke="#0d6d4d" stroke-width="0.1" fill="none" />
<path d="M71.37667251444427,234.37229064197365 L-18.396310577453104,244.3083620286827" stroke="#0d6d4d" stroke-width="0.1" fill="none" />
<path d="M69.02447642615026,235.07577853555185 L-69.02447642615022,235.07577853555188" stroke="#0d6d4d" stroke-width="0.1" fill="none" />
<path d="M66.66534888710711,235.75566007576634 L-116.60711129408311,215.47106904558976" stroke="#0d6d4d" stroke-width="0.1" fill="none" />
<path d="M64.29952680134046,236.41186698878653 L-159.04475139478222,186.35924193281082" stroke="#0d6d4d" stroke-width="0.1" fill="none" />
<path d="M61.92724774514402,237.04433337819228 L-194.46494286305304,149.0247831646452" stroke="#0d6d4d" stroke-width="0.1" fill="none" />
<path d="M59.548749943221324,237.6529957315912 L-221.3048590604833,105.11498159738994" stroke="#0d6d4d" stroke-width="0.1" fill="none" />
<path d="M57.16427224476353,238.2377929269967 L-238.38025636028007,56.567246508975124" stroke="#0d6d4d" stroke-width="0.1" fill="none" />
<path d="M54.77405409946442,238.79866623896572 L-244.93772591129428,5.523624299649553" stroke="#0d6d4d" stroke-width="0.1" fill="none" />
<path d="M52.37833553347421,239.33555934449606 L-240.68793590389748,-45.76371390437348" stroke="#0d6d4d" stroke-width="0.1" fill="none" />
<path d="M49.97735712529637,239.8484183286823 L-225.818397606547,-95.03184362313223" stroke="#0d6d4d" stroke-width="0.1" fill="none" />
<path d="M47.57135998162892,240.33719169012997 L-200.98519190386492,-140.10693285975037" stroke="#0d6d4d" stroke-width="0.1" fill="none" />
<path d="M45.16058571315224,240.80183034612722 L-167.28402138187693,-179.00015695609807" stroke="#0d6d4d" stroke-width="0.1" fill="none" />
<path d="M42.745276410266136,241.2422876375739 L-126.20186521416026,-209.99545046611587" stroke="#0d6d4d" stroke-width="0.1" fill="none" />
<path d="M40.325674618779836,241.65851933366696 L-79.55136995514752,-231.72522421665548" stroke="#0d6d4d" stroke-width="0.1" fill="none" />
<path d="M37.90202331555466,242.05048363634216 L-29.390871081404498,-243.23070673144102" stroke="#0d6d4d" stroke-width="0.1" fill="none" />
<path d="M35.474565884105075,242.41814118447135 L22.066425871290278,-244.00424760496867" stroke="#0d6d4d" stroke-width="0.1" fill="none" />
<path d="M33.04354609015731,242.76145505781525 L72.55009742173131,-234.01171629663608" stroke="#0d6d4d" stroke-width="0.1" fill="none" />
<path d="M30.609208057170715,243.08039078073088 L119.83267885464342,-213.6940080547882" stroke="#0d6d4d" stroke-width="0.1" fill="none" />
<path d="M28.171796241823152,243.37491632563368 L161.82794548480905,-183.94759052557785" stroke="#0d6d4d" stroke-width="0.1" fill="none" />
<path d="M25.731555409461937,243.6450021162137 L196.6829620609993,-146.08494937847468" stroke="#0d6d4d" stroke-width="0.1" fill="none" />
<path d="M23.288730609524805,243.89062103040573 L222.85983886185699,-101.77667818546217" stroke="#0d6d4d" stroke-width="0.1" fill="none" />
<path d="M20.84356715093222,244.11174840311267 L239.20358720214426,-52.97776769198728" stroke="#0d6d4d" stroke-width="0.1" fill="none" />
<path d="M18.396310577453168,244.3083620286827 L244.9930803962365,-1.8413467797218694" stroke="#0d6d4d" stroke-width="0.1" fill="none" />
<path d="M15.947206643047313,244.48044216313897 L239.97287165484306,49.376318916340985" stroke="#0d6d4d" stroke-width="0.1" fill="none" />
<path d="M13.496501287187066,244.62797152616247 L224.36446503048907,98.41537903997751" stroke="#0d6d4d" stroke-width="0.1" fill="none" />
<path d="M11.044440610159562,244.75093530282712 L198.8565421097085,143.1121087126094" stroke="#0d6d4d" stroke-width="0.1" fill="none" />
<path d="M8.591270848353535,244.84932114508757 L164.5745756745123,181.49437743785404" stroke="#0d6d4d" stroke-width="0.1" fill="none" />
<path d="M6.137238349532543,244.9231191730193 L123.0311710537018,211.86866438705553" stroke="#0d6d4d" stroke-width="0.1" fill="none" />
<path d="M3.6825895480959274,244.97232197581067 L76.05932622668894,232.89478073572647" stroke="#0d6d4d" stroke-width="0.1" fill="none" />
<path d="M1.2275709403326795,244.99692461250703 L25.731555409461937,243.6450021162137" stroke="#0d6d4d" stroke-width="0.1" fill="none" />
<path d="M-1.2275709403325108,244.99692461250703 L-25.73155540946177,243.64500211621373" stroke="#0d6d4d" stroke-width="0.1" fill="none" />
<path d="M-3.682589548095976,244.97232197581067 L-76.05932622668888,232.8947807357265" stroke="#0d6d4d" stroke-width="0.1" fill="none" />
<path d="M-6.137238349532484,244.9231191730193 L-123.03117105370166,211.86866438705562" stroke="#0d6d4d" stroke-width="0.1" fill="none" />
<path d="M-8.591270848353474,244.84932114508757 L-164.57457567451223,181.4943774378541" stroke="#0d6d4d" stroke-width="0.1" fill="none" />
<path d="M-11.044440610159501,244.75093530282712 L-198.85654210970844,143.11210871260946" stroke="#0d6d4d" stroke-width="0.1" fill="none" />
<path d="M-13.496501287187003,244.6279715261625 L-224.36446503048913,98.41537903997741" stroke="#0d6d4d" stroke-width="0.1" fill="none" />
<path d="M-15.94720664304725,244.48044216313897 L-239.97287165484303,49.37631891634115" stroke="#0d6d4d" stroke-width="0.1" fill="none" />
<path d="M-18.396310577453104,244.3083620286827 L-244.9930803962365,-1.8413467797218637" stroke="#0d6d4d" stroke-width="0.1" fill="none" />
<path d="M-20.843567150932156,244.11174840311267 L-239.20358720214426,-52.977767691987225" stroke="#0d6d4d" stroke-width="0.1" fill="none" />
<path d="M-23.288730609524745,243.89062103040573 L-222.85983886185696,-101.77667818546227" stroke="#0d6d4d" stroke-width="0.1" fill="none" />
<path d="M-25.73155540946177,243.64500211621373 L-196.68296206099944,-146.08494937847448" stroke="#0d6d4d" stroke-width="0.1" fill="none" />
<path d="M-28.17179624182298,243.3749163256337 L-161.82794548480905,-183.94759052557785" stroke="#0d6d4d" stroke-width="0.1" fill="none" />
<path d="M-30.60920805717066,243.08039078073088 L-119.83267885464346,-213.6940080547882" stroke="#0d6d4d" stroke-width="0.1" fill="none" />
<path d="M-33.04354609015725,242.76145505781525 L-72.55009742173141,-234.01171629663605" stroke="#0d6d4d" stroke-width="0.1" fill="none" />
<path d="M-35.47456588410491,242.41814118447138 L-22.06642587129044,-244.00424760496864" stroke="#0d6d4d" stroke-width="0.1" fill="none" />
<path d="M-37.902023315554715,242.05048363634216 L29.39087108140437,-243.23070673144102" stroke="#0d6d4d" stroke-width="0.1" fill="none" />
<path d="M-40.32567461877967,241.658519333667 L79.55136995514745,-231.72522421665548" stroke="#0d6d4d" stroke-width="0.1" fill="none" />
<path d="M-42.74527641026608,241.24228763757392 L126.20186521416024,-209.99545046611587" stroke="#0d6d4d" stroke-width="0.1" fill="none" />
<path d="M-45.160585713152294,240.8018303461272 L167.28402138187693,-179.00015695609807" stroke="#0d6d4d" stroke-width="0.1" fill="none" />
<path d="M-47.57135998162887,240.33719169012997 L200.98519190386483,-140.1069328597505" stroke="#0d6d4d" stroke-width="0.1" fill="none" />
<path d="M-49.977357125296315,239.8484183286823 L225.81839760654697,-95.03184362313227" stroke="#0d6d4d" stroke-width="0.1" fill="none" />
<path d="M-52.37833553347405,239.3355593444961 L240.68793590389745,-45.76371390437349" stroke="#0d6d4d" stroke-width="0.1" fill="none" />
<path d="M-54.774054099464365,238.79866623896575 L244.93772591129428,5.523624299649602" stroke="#0d6d4d" stroke-width="0.1" fill="none" />
<path d="M-57.164272244763474,238.23779292699672 L238.3802563602801,56.56724650897501" stroke="#0d6d4d" stroke-width="0.1" fill="none" />
<path d="M-59.54874994322127,237.6529957315912 L221.3048590604833,105.11498159738989" stroke="#0d6d4d" stroke-width="0.1" fill="none" />
<path d="M-61.92724774514386,237.0443333781923 L194.46494286305307,149.02478316464516" stroke="#0d6d4d" stroke-width="0.1" fill="none" />
<path d="M-64.29952680134052,236.41186698878653 L159.04475139478228,186.3592419328108" stroke="#0d6d4d" stroke-width="0.1" fill="none" />
<path d="M-66.66534888710694,235.75566007576637 L116.60711129408305,215.4710690455898" stroke="#0d6d4d" stroke-width="0.1" fill="none" />
<path d="M-69.02447642615022,235.07577853555188 L69.02447642615026,235.07577853555185" stroke="#0d6d4d" stroke-width="0.1" fill="none" />
<path d="M-71.37667251444432,234.37229064197365 L18.396310577453168,244.3083620286827" stroke="#0d6d4d" stroke-width="0.1" fill="none" />
<path d="M-73.7217009440206,233.64526703941684 L-33.04354609015725,242.76145505781525" stroke="#0d6d4d" stroke-width="0.1" fill="none" />
<path d="M-76.05932622668888,232.8947807357265 L-83.02543960408018,230.50331099259557" stroke="#0d6d4d" stroke-width="0.1" fill="none" />
<path d="M-78.38931361768358,232.12090709487686 L-129.34404493969527,208.07478953164434" stroke="#0d6d4d" stroke-width="0.1" fill="none" />
<path d="M-80.71142913923815,231.32372382940264 L-169.9556704264637,176.46549263210431" stroke="#0d6d4d" stroke-width="0.1" fill="none" />
<path d="M-83.02543960408018,230.50331099259557 L-203.06843048983163,137.0701008185097" stroke="#0d6d4d" stroke-width="0.1" fill="none" />
<path d="M-85.33111263884899,229.65975097046515 L-227.22130808406317,91.62683642125408" stroke="#0d6d4d" stroke-width="0.1" fill="none" />
<path d="M-87.62821670742969,228.7931284734656 L-241.34861838550674,42.140768899096294" stroke="#0d6d4d" stroke-width="0.1" fill="none" />
<path d="M-89.91652113420533,227.90353052798898 L-244.8270294483712,-9.204653795030517" stroke="#0d6d4d" stroke-width="0.1" fill="none" />
<path d="M-92.19579612721957,226.9910464676265 L-237.50306515513597,-60.1439443494957" stroke="#0d6d4d" stroke-width="0.1" fill="none" />
<path d="M-94.46581280125454,226.05576792419683 L-219.69987696325427,-108.42953500929042" stroke="#0d6d4d" stroke-width="0.1" fill="none" />
<path d="M-96.72634320081384,225.0977888185452 L-192.20298566190232,-151.93094583609545" stroke="#0d6d4d" stroke-width="0.1" fill="none" />
<path d="M-98.97716032301454,224.1172053511115 L-156.22562224780623,-188.72878676366716" stroke="#0d6d4d" stroke-width="0.1" fill="none" />
<path d="M-101.2180381403832,223.1141159922696 L-113.35519716660804,-217.19944584487183" stroke="#0d6d4d" stroke-width="0.1" fill="none" />
<path d="M-103.44875162355277,222.08862147243943 L-65.483259829523,-236.08672703500122" stroke="#0d6d4d" stroke-width="0.1" fill="none" />
<path d="M-105.66907676386096,221.04082477197116 L-14.722038765010588,-244.557276674814" stroke="#0d6d4d" stroke-width="0.1" fill="none" />
<path d="M-107.87879059584436,219.97083111080423 L36.68875513917145,-242.23735311949295" stroke="#0d6d4d" stroke-width="0.1" fill="none" />
<path d="M-110.07767121962956,218.87874793790084 L86.48075023157875,-229.229317146353" stroke="#0d6d4d" stroke-width="0.1" fill="none" />
<path d="M-112.26549782321543,217.76468492045632 L132.45700027662141,-206.1071155436394" stroke="#0d6d4d" stroke-width="0.1" fill="none" />
<path d="M-114.44205070464824,216.62875393288567 L172.58891916772663,-173.8909571556725" stroke="#0d6d4d" stroke-width="0.1" fill="none" />
<path d="M-116.60711129408311,215.47106904558976 L205.1057871743195,-134.0022987399946" stroke="#0d6d4d" stroke-width="0.1" fill="none" />
<path d="M-118.76046217573291,214.29174651350039 L228.5728794851592,-88.20112677207065" stroke="#0d6d4d" stroke-width="0.1" fill="none" />
<path d="M-120.90188710970244,213.09090476440508 L241.95476982305286,-38.50830247977061" stroke="#0d6d4d" stroke-width="0.1" fill="none" />
<path d="M-123.03117105370166,211.86866438705562 L244.6610160185643,12.883603562816445" stroke="#0d6d4d" stroke-width="0.1" fill="none" />
<path d="M-125.14810018464136,210.62514811905763 L236.57221178197221,63.70705308351414" stroke="#0d6d4d" stroke-width="0.1" fill="none" />
<path d="M-127.25246192010466,209.360480834546 L218.04525520472728,111.71958952084161" stroke="#0d6d4d" stroke-width="0.1" fill="none" />
<path d="M-129.34404493969527,208.07478953164434 L189.89760153106673,154.8027807655541" stroke="#0d6d4d" stroke-width="0.1" fill="none" />
<path d="M-131.42263920625737,206.76820331971234 L153.37119500653168,191.05568963594996" stroke="#0d6d4d" stroke-width="0.1" fill="none" />
<path d="M-133.48803598696892,205.44085340637992 L110.07767121962962,218.8787479379008" stroke="#0d6d4d" stroke-width="0.1" fill="none" />
<path d="M-135.54002787430088,204.09287308437237 L61.92724774514402,237.04433337819228" stroke="#0d6d4d" stroke-width="0.1" fill="none" />
<path d="M-137.57840880684705,202.72439771812387 L11.044440610159562,244.75093530282712" stroke="#0d6d4d" stroke-width="0.1" fill="none" />
<path d="M-139.6029740900153,201.335564730185 L-40.32567461877967,241.658519333667" stroke="#0d6d4d" stroke-width="0.1" fill="none" />
<path d="M-141.6135204165833,199.92651358742276 L-89.91652113420533,227.90353052798898" stroke="#0d6d4d" stroke-width="0.1" fill="none" />
<path d="M-143.6098458871158,198.49738578701445 L-135.54002787430088,204.09287308437237" stroke="#0d6d4d" stroke-width="0.1" fill="none" />
<path d="M-145.59175003023782,197.0483248422395 L-175.18317264140148,171.27713222521248" stroke="#0d6d4d" stroke-width="0.1" fill="none" />
<path d="M-147.55903382276716,195.5794762680672 L-207.09680163073554,130.90421977277802" stroke="#0d6d4d" stroke-width="0.1" fill="none" />
<path d="M-149.51149970969968,194.09098756654436 L-229.87280643166412,84.75548869088463" stroke="#0d6d4d" stroke-width="0.1" fill="none" />
<path d="M-151.4489516240483,192.5830082119829 L-242.50625326082852,34.867135376954884" stroke="#0d6d4d" stroke-width="0.1" fill="none" />
<path d="M-153.37119500653154,191.05568963595007 L-244.43972313145497,-16.55964236985899" stroke="#0d6d4d" stroke-width="0.1" fill="none" />
<path d="M-155.27803682511217,189.5091852120607 L-235.58790656064343,-67.25576765135874" stroke="#0d6d4d" stroke-width="0.1" fill="none" />
<path d="M-157.16928559437986,187.94365024057677 L-216.3413676351969,-114.98440176707699" stroke="#0d6d4d" stroke-width="0.1" fill="none" />
<path d="M-159.04475139478222,186.35924193281082 L-187.54931135607856,-157.6396390818651" stroke="#0d6d4d" stroke-width="0.1" fill="none" />
<path d="M-160.904245891695,184.75611939533954 L-150.48211460896866,-193.3394248021164" stroke="#0d6d4d" stroke-width="0.1" fill="none" />
<path d="M-162.7475823543349,183.13444361402628 L-106.77527398737188,-220.5085958980322" stroke="#0d6d4d" stroke-width="0.1" fill="none" />
<path d="M-164.57457567451223,181.4943774378541 L-58.357243629246156,-237.9483812006226" stroke="#0d6d4d" stroke-width="0.1" fill="none" />
<path d="M-166.38504238521807,179.8360855625733 L-7.364347040660496,-244.88929415690004" stroke="#0d6d4d" stroke-width="0.1" fill="none" />
<path d="M-168.178800679049,178.15973451416204 L43.95348279228571,-241.02508448381104" stroke="#0d6d4d" stroke-width="0.1" fill="none" />
<path d="M-169.9556704264637,176.46549263210431 L93.33197602338717,-226.52625068978182" stroke="#0d6d4d" stroke-width="0.1" fill="none" />
<path d="M-171.71547319387207,174.75353005248448 L138.59243114406118,-202.03251725793712" stroke="#0d6d4d" stroke-width="0.1" fill="none" />
<path d="M-173.45803226155303,173.02401869090323 L177.73784469393402,-168.62460841631327" stroke="#0d6d4d" stroke-width="0.1" fill="none" />
<path d="M-175.18317264140148,171.27713222521248 L209.041024003192,-127.77656390628488" stroke="#0d6d4d" stroke-width="0.1" fill="none" />
<path d="M-176.89072109449953,169.5130460780762 L231.12079521411283,-81.29070069568922" stroke="#0d6d4d" stroke-width="0.1" fill="none" />
<path d="M-178.58050614851453,167.7319373993527 L243.0029440949812,-31.218090287066687" stroke="#0d6d4d" stroke-width="0.1" fill="none" />
<path d="M-180.25235811491723,165.93398504830657 L244.16320078663412,20.231939640721354" stroke="#0d6d4d" stroke-width="0.1" fill="none" />
<path d="M-181.90610910602243,164.1193695756472 L234.55037188807782,70.7892862456204" stroke="#0d6d4d" stroke-width="0.1" fill="none" />
<path d="M-183.5415930518484,162.28827320539733 L214.5885992362253,118.22323408634485" stroke="#0d6d4d" stroke-width="0.1" fill="none" />
<path d="M-185.15864571679325,160.44087981659487 L185.1586457167933,160.44087981659482" stroke="#0d6d4d" stroke-width="0.1" fill="none" />
<path d="M-186.75710471612797,158.5773749248272 L147.55903382276722,195.57947626806714" stroke="#0d6d4d" stroke-width="0.1" fill="none" />
<path d="M-188.33680953230285,156.69794566360173 L103.44875162355282,222.08862147243943" stroke="#0d6d4d" stroke-width="0.1" fill="none" />
<path d="M-189.89760153106667,154.8027807655542 L54.77405409946442,238.79866623896572" stroke="#0d6d4d" stroke-width="0.1" fill="none" />
<path d="M-191.4393239773967,152.89207054349595 L3.6825895480959274,244.97232197581067" stroke="#0d6d4d" stroke-width="0.1" fill="none" />
<path d="M-192.9618220512387,150.96600687130228 L-47.57135998162887,240.33719169012997" stroke="#0d6d4d" stroke-width="0.1" fill="none" />
<path d="M-194.46494286305304,149.0247831646452 L-96.72634320081384,225.0977888185452" stroke="#0d6d4d" stroke-width="0.1" fill="none" />
<path d="M-195.94853546916843,147.0685943615701 L-141.6135204165833,199.92651358742276" stroke="#0d6d4d" stroke-width="0.1" fill="none" />
<path d="M-197.4124508869397,145.09763690292002 L-180.25235811491723,165.93398504830657" stroke="#0d6d4d" stroke-width="0.1" fill="none" />
<path d="M-198.85654210970844,143.11210871260946 L-210.938015008147,124.62003781263567" stroke="#0d6d4d" stroke-width="0.1" fill="none" />
<path d="M-200.280664121566,141.1122091777479 L-232.31656385810768,77.80754563126747" stroke="#0d6d4d" stroke-width="0.1" fill="none" />
<path d="M-201.68467391191498,139.09813912861856 L-243.4447301016666,27.561991686500114" stroke="#0d6d4d" stroke-width="0.1" fill="none" />
<path d="M-203.06843048983163,137.0701008185097 L-243.83151146240496,-23.899665645340615" stroke="#0d6d4d" stroke-width="0.1" fill="none" />
<path d="M-204.43179489822316,135.0282979034055 L-233.45984218802874,-74.30681049231438" stroke="#0d6d4d" stroke-width="0.1" fill="none" />
<path d="M-205.77463022778227,132.97293542153412 L-212.7873460336585,-121.43535468697772" stroke="#0d6d4d" stroke-width="0.1" fill="none" />
<path d="M-207.09680163073554,130.90421977277802 L-182.72614476750795,-163.20587004885493" stroke="#0d6d4d" stroke-width="0.1" fill="none" />
<path d="M-208.39817633438525,128.8223586979468 L-144.60261309772903,-197.77533790973152" stroke="#0d6d4d" stroke-width="0.1" fill="none" />
<path d="M-209.67862365444168,126.72756125791663 L-100.09885573279674,-223.61846766531772" stroke="#0d6d4d" stroke-width="0.1" fill="none" />
<path d="M-210.938015008147,124.62003781263567 L-51.17848875258632,-239.59499637722277" stroke="#0d6d4d" stroke-width="0.1" fill="none" />
<path d="M-212.17622392718752,122.49999999999991 L0.0,-245.0" stroke="#0d6d4d" stroke-width="0.1" fill="none" />
<path d="M-213.3931260703933,120.3676607146007 L51.178488752586105,-239.59499637722283" stroke="#0d6d4d" stroke-width="0.1" fill="none" />
<path d="M-214.58859923622526,118.22323408634492 L100.09885573279678,-223.61846766531772" stroke="#0d6d4d" stroke-width="0.1" fill="none" />
<path d="M-215.7625233750457,116.06693545895342 L144.60261309772895,-197.77533790973155" stroke="#0d6d4d" stroke-width="0.1" fill="none" />
<path d="M-216.91478060117464,113.89898136833473 L182.72614476750792,-163.205870048855" stroke="#0d6d4d" stroke-width="0.1" fill="none" />
<path d="M-218.04525520472725,111.71958952084165 L212.7873460336584,-121.43535468697792" stroke="#0d6d4d" stroke-width="0.1" fill="none" />
<path d="M-219.1538336632338,109.52897877140852 L233.45984218802874,-74.30681049231433" stroke="#0d6d4d" stroke-width="0.1" fill="none" />
<path d="M-220.2404046530393,107.327369101574 L243.83151146240496,-23.899665645340722" stroke="#0d6d4d" stroke-width="0.1" fill="none" />
<path d="M-221.3048590604833,105.11498159738994 L243.44473010166664,27.561991686500054" stroke="#0d6d4d" stroke-width="0.1" fill="none" />
<path d="M-222.34708999285627,102.89203842722078 L232.31656385810768,77.80754563126747" stroke="#0d6d4d" stroke-width="0.1" fill="none" />
<path d="M-223.36699278913431,100.65876281943277 L210.938015008147,124.62003781263567" stroke="#0d6d4d" stroke-width="0.1" fill="none" />
<path d="M-224.36446503048913,98.41537903997741 L180.2523581149172,165.9339850483066" stroke="#0d6d4d" stroke-width="0.1" fill="none" />
<path d="M-225.33940655057276,96.16211236987095 L141.61352041658336,199.92651358742273" stroke="#0d6d4d" stroke-width="0.1" fill="none" />
<path d="M-226.29171944557677,93.8991890825707 L96.72634320081379,225.09778881854524" stroke="#0d6d4d" stroke-width="0.1" fill="none" />
<path d="M-227.22130808406317,91.62683642125408 L47.57135998162892,240.33719169012997" stroke="#0d6d4d" stroke-width="0.1" fill="none" />
<path d="M-228.12807911656822,89.3452825759972 L-3.682589548095976,244.97232197581067" stroke="#0d6d4d" stroke-width="0.1" fill="none" />
<path d="M-229.01194148497632,87.05475666086137 L-54.774054099464365,238.79866623896575" stroke="#0d6d4d" stroke-width="0.1" fill="none" />
<path d="M-229.87280643166412,84.75548869088463 L-103.44875162355277,222.08862147243943" stroke="#0d6d4d" stroke-width="0.1" fill="none" />
<path d="M-230.7105875084137,82.44770955898402 L-147.55903382276716,195.5794762680672" stroke="#0d6d4d" stroke-width="0.1" fill="none" />
<path d="M-231.52520058509376,80.13165101276836 L-185.15864571679325,160.44087981659487" stroke="#0d6d4d" stroke-width="0.1" fill="none" />
<path d="M-232.31656385810768,77.80754563126747 L-214.58859923622526,118.22323408634492" stroke="#0d6d4d" stroke-width="0.1" fill="none" />
<path d="M-233.0845978586086,75.47562680157563 L-234.5503718880778,70.78928624562052" stroke="#0d6d4d" stroke-width="0.1" fill="none" />
<path d="M-233.82922546047936,73.13612869541505 L-244.16320078663412,20.231939640721304" stroke="#0d6d4d" stroke-width="0.1" fill="none" />
<path d="M-234.5503718880778,70.78928624562052 L-243.00294409498122,-31.218090287066527" stroke="#0d6d4d" stroke-width="0.1" fill="none" />
<path d="M-235.2479647237458,68.43533512254649 L-231.12079521411283,-81.29070069568922" stroke="#0d6d4d" stroke-width="0.1" fill="none" />
<path d="M-235.92193391508104,66.07451171040263 L-209.04102400319204,-127.77656390628482" stroke="#0d6d4d" stroke-width="0.1" fill="none" />
<path d="M-236.5722117819722,63.707053083514246 L-177.73784469393397,-168.62460841631335" stroke="#0d6d4d" stroke-width="0.1" fill="none" />
<path d="M-237.19873302339496,61.33319698251679 L-138.59243114406135,-202.032517257937" stroke="#0d6d4d" stroke-width="0.1" fill="none" />
<path d="M-237.80143472396986,58.95318179048106 L-93.33197602338716,-226.52625068978185" stroke="#0d6d4d" stroke-width="0.1" fill="none" />
<path d="M-238.38025636028007,56.567246508975124 L-43.953482792285754,-241.025084483811" stroke="#0d6d4d" stroke-width="0.1" fill="none" />
<path d="M-238.93513980694942,54.17563073406288 L7.364347040660474,-244.88929415690006" stroke="#0d6d4d" stroke-width="0.1" fill="none" />
<path d="M-239.46602934247903,51.778574632245096 L58.357243629246184,-237.9483812006226" stroke="#0d6d4d" stroke-width="0.1" fill="none" />
<path d="M-239.97287165484303,49.37631891634115 L106.77527398737176,-220.50859589803227" stroke="#0d6d4d" stroke-width="0.1" fill="none" />
<path d="M-240.45561584684242,46.9691048213158 L150.4821146089686,-193.33942480211644" stroke="#0d6d4d" stroke-width="0.1" fill="none" />
<path d="M-240.91421344121548,44.557174080056654 L187.54931135607856,-157.63963908186514" stroke="#0d6d4d" stroke-width="0.1" fill="none" />
<path d="M-241.34861838550674,42.140768899096294 L216.3413676351969,-114.98440176707699" stroke="#0d6d4d" stroke-width="0.1" fill="none" />
<path d="M-241.75878705669086,39.72013193429247 L235.58790656064338,-67.25576765135888" stroke="#0d6d4d" stroke-width="0.1" fill="none" />
<path d="M-242.14467826555378,37.29550626645855 L244.43972313145497,-16.5596423698591" stroke="#0d6d4d" stroke-width="0.1" fill="none" />
<path d="M-242.50625326082852,34.867135376954884 L242.50625326082854,34.86713537695483" stroke="#0d6d4d" stroke-width="0.1" fill="none" />
<path d="M-242.84347573308685,32.435263123237455 L229.87280643166412,84.75548869088463" stroke="#0d6d4d" stroke-width="0.1" fill="none" />
<path d="M-243.1563118183855,30.000133714370087 L207.09680163073565,130.90421977277788" stroke="#0d6d4d" stroke-width="0.1" fill="none" />
<path d="M-243.4447301016666,27.561991686500114 L175.18317264140148,171.2771322252125" stroke="#0d6d4d" stroke-width="0.1" fill="none" />
<path d="M-243.70870161991257,25.121081878303247 L135.54002787430102,204.0928730843723" stroke="#0d6d4d" stroke-width="0.1" fill="none" />
<path d="M-243.9481998650545,22.67764940639623 L89.9165211342053,227.903530527989" stroke="#0d6d4d" stroke-width="0.1" fill="none" />
<path d="M-244.16320078663412,20.231939640721304 L40.325674618779836,241.65851933366696" stroke="#0d6d4d" stroke-width="0.1" fill="none" />
<path d="M-244.35368279421888,17.78419817990847 L-11.044440610159501,244.75093530282712" stroke="#0d6d4d" stroke-width="0.1" fill="none" />
<path d="M-244.51962675957023,15.334670826609427 L-61.92724774514386,237.0443333781923" stroke="#0d6d4d" stroke-width="0.1" fill="none" />
<path d="M-244.6610160185643,12.883603562816614 L-110.07767121962956,218.87874793790084" stroke="#0d6d4d" stroke-width="0.1" fill="none" />
<path d="M-244.77783637286547,10.4312425251597 L-153.37119500653154,191.05568963595007" stroke="#0d6d4d" stroke-width="0.1" fill="none" />
<path d="M-244.87007609135202,7.977833980190016 L-189.89760153106667,154.8027807655542" stroke="#0d6d4d" stroke-width="0.1" fill="none" />
<path d="M-244.93772591129428,5.523624299649553 L-218.04525520472725,111.71958952084165" stroke="#0d6d4d" stroke-width="0.1" fill="none" />
<path d="M-244.98077903928478,3.0688599357307043 L-236.5722117819722,63.707053083514246" stroke="#0d6d4d" stroke-width="0.1" fill="none" />
<path d="M-244.99923115192036,0.6137873963266187 L-244.6610160185643,12.883603562816614" stroke="#0d6d4d" stroke-width="0.1" fill="none" />
<path d="M-244.9930803962365,-1.8413467797218637 L-241.95476982305286,-38.508302479770606" stroke="#0d6d4d" stroke-width="0.1" fill="none" />
<path d="M-244.96232738989323,-4.296296047384339 L-228.57287948515923,-88.2011267720706" stroke="#0d6d4d" stroke-width="0.1" fill="none" />
<path d="M-244.9069752211131,-6.750813880199808 L-205.10578717431954,-134.0022987399945" stroke="#0d6d4d" stroke-width="0.1" fill="none" />
<path d="M-244.8270294483712,-9.204653795030517 L-172.58891916772671,-173.89095715567242" stroke="#0d6d4d" stroke-width="0.1" fill="none" />
<path d="M-244.72249809983694,-11.657569376816884 L-132.4570002766214,-206.1071155436394" stroke="#0d6d4d" stroke-width="0.1" fill="none" />
<path d="M-244.59339167256775,-14.109314303319936 L-86.48075023157878,-229.229317146353" stroke="#0d6d4d" stroke-width="0.1" fill="none" />
<path d="M-244.43972313145497,-16.55964236985899 L-36.68875513917153,-242.23735311949292" stroke="#0d6d4d" stroke-width="0.1" fill="none" />
<path d="M-244.26150790792215,-19.008307514034055 L14.722038765010605,-244.557276674814" stroke="#0d6d4d" stroke-width="0.1" fill="none" />
<path d="M-244.0587638983751,-21.45506384043632 L65.48325982952288,-236.08672703500127" stroke="#0d6d4d" stroke-width="0.1" fill="none" />
<path d="M-243.83151146240496,-23.899665645340615 L113.35519716660797,-217.1994458448719" stroke="#0d6d4d" stroke-width="0.1" fill="none" />
<path d="M-243.57977342074355,-26.34186744137984 L156.22562224780623,-188.7287867636672" stroke="#0d6d4d" stroke-width="0.1" fill="none" />
<path d="M-243.3035750529718,-28.781423982195605 L192.20298566190232,-151.93094583609545" stroke="#0d6d4d" stroke-width="0.1" fill="none" />
<path d="M-243.00294409498122,-31.218090287066527 L219.6998769632542,-108.42953500929056" stroke="#0d6d4d" stroke-width="0.1" fill="none" />
<path d="M-242.67791073618832,-33.65162166550991 L237.50306515513594,-60.14394434949581" stroke="#0d6d4d" stroke-width="0.1" fill="none" />
<path d="M-242.32850761650346,-36.081773741852295 L244.8270294483712,-9.204653795030577" stroke="#0d6d4d" stroke-width="0.1" fill="none" />
<path d="M-241.95476982305286,-38.508302479770606 L241.34861838550674,42.14076889909629" stroke="#0d6d4d" stroke-width="0.1" fill="none" />
<path d="M-241.55673488665522,-40.930964206797846 L227.22130808406322,91.62683642125393" stroke="#0d6d4d" stroke-width="0.1" fill="none" />
<path d="M-241.13444277805272,-43.34951563879361 L203.06843048983174,137.07010081850956" stroke="#0d6d4d" stroke-width="0.1" fill="none" />
<path d="M-240.68793590389748,-45.76371390437348 L169.95567042646374,176.46549263210426" stroke="#0d6d4d" stroke-width="0.1" fill="none" />
<path d="M-240.21725910249268,-48.17331656929899 L129.34404493969532,208.0747895316443" stroke="#0d6d4d" stroke-width="0.1" fill="none" />
<path d="M-239.72245963929026,-50.57808166082276 L83.02543960408023,230.50331099259557" stroke="#0d6d4d" stroke-width="0.1" fill="none" />
<path d="M-239.20358720214426,-52.977767691987225 L33.04354609015731,242.76145505781525" stroke="#0d6d4d" stroke-width="0.1" fill="none" />
<path d="M-238.66069389632116,-55.37213368587563 L-18.396310577453104,244.3083620286827" stroke="#0d6d4d" stroke-width="0.1" fill="none" />
<path d="M-238.09383423926775,-57.76093919980952 L-69.02447642615022,235.07577853555188" stroke="#0d6d4d" stroke-width="0.1" fill="none" />
<path d="M-237.50306515513597,-60.1439443494957 L-116.60711129408311,215.47106904558976" stroke="#0d6d4d" stroke-width="0.1" fill="none" />
<path d="M-236.88844596906713,-62.52090983311401 L-159.04475139478222,186.35924193281082" stroke="#0d6d4d" stroke-width="0.1" fill="none" />
<path d="M-236.25003840123404,-64.89159695534887 L-194.46494286305304,149.0247831646452" stroke="#0d6d4d" stroke-width="0.1" fill="none" />
<path d="M-235.58790656064343,-67.25576765135874 L-221.3048590604833,105.11498159738994" stroke="#0d6d4d" stroke-width="0.1" fill="none" />
<path d="M-234.9021169386976,-69.61318451068338 L-238.38025636028007,56.567246508975124" stroke="#0d6d4d" stroke-width="0.1" fill="none" />
<path d="M-234.19273840251796,-71.96361080108335 L-244.93772591129428,5.523624299649553" stroke="#0d6d4d" stroke-width="0.1" fill="none" />
<path d="M-233.45984218802874,-74.30681049231438 L-240.68793590389748,-45.76371390437348" stroke="#0d6d4d" stroke-width="0.1" fill="none" />
<path d="M-232.70350189280418,-76.64254827982744 L-225.818397606547,-95.03184362313223" stroke="#0d6d4d" stroke-width="0.1" fill="none" />
<path d="M-231.92379346867733,-78.97058960839986 L-200.98519190386492,-140.10693285975037" stroke="#0d6d4d" stroke-width="0.1" fill="none" />
<path d="M-231.12079521411283,-81.29070069568922 L-167.28402138187693,-179.00015695609807" stroke="#0d6d4d" stroke-width="0.1" fill="none" />
<path d="M-230.29458776634476,-83.60264855570864 L-126.20186521416026,-209.99545046611587" stroke="#0d6d4d" stroke-width="0.1" fill="none" />
<path d="M-229.44525409327844,-85.90620102222474 L-79.55136995514752,-231.72522421665548" stroke="#0d6d4d" stroke-width="0.1" fill="none" />
<path d="M-228.57287948515923,-88.2011267720706 L-29.390871081404498,-243.23070673144102" stroke="#0d6d4d" stroke-width="0.1" fill="none" />
<path d="M-227.67755154600738,-90.48719534837596 L22.066425871290278,-244.00424760496867" stroke="#0d6d4d" stroke-width="0.1" fill="none" />
<path d="M-226.759360184821,-92.76417718370938 L72.55009742173131,-234.01171629663608" stroke="#0d6d4d" stroke-width="0.1" fill="none" />
<path d="M-225.818397606547,-95.03184362313223 L119.83267885464342,-213.6940080547882" stroke="#0d6d4d" stroke-width="0.1" fill="none" />
<path d="M-224.85475830282252,-97.28996694715887 L161.82794548480905,-183.94759052557785" stroke="#0d6d4d" stroke-width="0.1" fill="none" />
<path d="M-223.8685390424853,-99.53832039462608 L196.6829620609993,-146.08494937847468" stroke="#0d6d4d" stroke-width="0.1" fill="none" />
<path d="M-222.85983886185696,-101.77667818546227 L222.85983886185699,-101.77667818546217" stroke="#0d6d4d" stroke-width="0.1" fill="none" />
<path d="M-221.82875905479708,-104.00481554336214 L239.20358720214426,-52.97776769198728" stroke="#0d6d4d" stroke-width="0.1" fill="none" />
<path d="M-220.77540316253132,-106.22250871835857 L244.9930803962365,-1.8413467797218694" stroke="#0d6d4d" stroke-width="0.1" fill="none" />
<path d="M-219.69987696325427,-108.42953500929042 L239.97287165484306,49.376318916340985" stroke="#0d6d4d" stroke-width="0.1" fill="none" />
<path d="M-218.60228846150656,-110.62567278616781 L224.36446503048907,98.41537903997751" stroke="#0d6d4d" stroke-width="0.1" fill="none" />
<path d="M-217.48274787732961,-112.81070151242692 L198.8565421097085,143.1121087126094" stroke="#0d6d4d" stroke-width="0.1" fill="none" />
<path d="M-216.3413676351969,-114.98440176707699 L164.5745756745123,181.49437743785404" stroke="#0d6d4d" stroke-width="0.1" fill="none" />
<path d="M-215.17826235272454,-117.14655526673435 L123.0311710537018,211.86866438705553" stroke="#0d6d4d" stroke-width="0.1" fill="none" />
<path d="M-213.99354882916094,-119.29694488754315 L76.05932622668894,232.89478073572647" stroke="#0d6d4d" stroke-width="0.1" fill="none" />
<path d="M-212.7873460336585,-121.43535468697772 L25.731555409461937,243.6450021162137" stroke="#0d6d4d" stroke-width="0.1" fill="none" />
<path d="M-211.55977509332575,-123.56156992552916 L-25.73155540946177,243.64500211621373" stroke="#0d6d4d" stroke-width="0.1" fill="none" />
<path d="M-210.31095928106495,-125.67537708826755 L-76.05932622668888,232.8947807357265" stroke="#0d6d4d" stroke-width="0.1" fill="none" />
<path d="M-209.04102400319204,-127.77656390628482 L-123.03117105370166,211.86866438705562" stroke="#0d6d4d" stroke-width="0.1" fill="none" />
<path d="M-207.75009678684341,-129.86491937801063 L-164.57457567451223,181.4943774378541" stroke="#0d6d4d" stroke-width="0.1" fill="none" />
<path d="M-206.4383072671702,-131.94023379040004 L-198.85654210970844,143.11210871260946" stroke="#0d6d4d" stroke-width="0.1" fill="none" />
<path d="M-205.10578717431954,-134.0022987399945 L-224.36446503048913,98.41537903997741" stroke="#0d6d4d" stroke-width="0.1" fill="none" />
<path d="M-203.7526703202069,-136.0509071538484 L-239.97287165484303,49.37631891634115" stroke="#0d6d4d" stroke-width="0.1" fill="none" />
<path d="M-202.37909258507818,-138.08585331032415 L-244.9930803962365,-1.8413467797218637" stroke="#0d6d4d" stroke-width="0.1" fill="none" />
<path d="M-200.98519190386492,-140.10693285975037 L-239.20358720214426,-52.977767691987225" stroke="#0d6d4d" stroke-width="0.1" fill="none" />
<path d="M-199.5711082523323,-142.1139428449435 L-222.85983886185696,-101.77667818546227" stroke="#0d6d4d" stroke-width="0.1" fill="none" />
<path d="M-198.13698363302362,-144.10668172158753 L-196.68296206099944,-146.08494937847448" stroke="#0d6d4d" stroke-width="0.1" fill="none" />
<path d="M-196.68296206099944,-146.08494937847448 L-161.82794548480905,-183.94759052557785" stroke="#0d6d4d" stroke-width="0.1" fill="none" />
<path d="M-195.2091895493762,-148.0485471575987 L-119.83267885464346,-213.6940080547882" stroke="#0d6d4d" stroke-width="0.1" fill="none" />
<path d="M-193.71581409466373,-149.9972778741057 L-72.55009742173141,-234.01171629663605" stroke="#0d6d4d" stroke-width="0.1" fill="none" />
<path d="M-192.20298566190232,-151.93094583609545 L-22.06642587129044,-244.00424760496864" stroke="#0d6d4d" stroke-width="0.1" fill="none" />
<path d="M-190.67085616960463,-153.8493568642714 L29.39087108140437,-243.23070673144102" stroke="#0d6d4d" stroke-width="0.1" fill="none" />
<path d="M-189.11957947449866,-155.75231831144208 L79.55136995514745,-231.72522421665548" stroke="#0d6d4d" stroke-width="0.1" fill="none" />
<path d="M-187.54931135607856,-157.6396390818651 L126.20186521416024,-209.99545046611587" stroke="#0d6d4d" stroke-width="0.1" fill="none" />
<path d="M-185.9602095009606,-159.51112965043802 L167.28402138187693,-179.00015695609807" stroke="#0d6d4d" stroke-width="0.1" fill="none" />
<path d="M-184.35243348704847,-161.36660208172998 L200.98519190386483,-140.1069328597505" stroke="#0d6d4d" stroke-width="0.1" fill="none" />
<path d="M-182.72614476750795,-163.20587004885493 L225.81839760654697,-95.03184362313227" stroke="#0d6d4d" stroke-width="0.1" fill="none" />
<path d="M-181.08150665455466,-165.02874885218176 L240.68793590389745,-45.76371390437349" stroke="#0d6d4d" stroke-width="0.1" fill="none" />
<path d="M-179.41868430305362,-166.83505543788203 L244.93772591129428,5.523624299649602" stroke="#0d6d4d" stroke-width="0.1" fill="none" />
<path d="M-177.73784469393397,-168.62460841631335 L238.3802563602801,56.56724650897501" stroke="#0d6d4d" stroke-width="0.1" fill="none" />
<path d="M-176.03915661742218,-170.39722808023234 L221.3048590604833,105.11498159738989" stroke="#0d6d4d" stroke-width="0.1" fill="none" />
<path d="M-174.32279065609,-172.15273642284345 L194.46494286305307,149.02478316464516" stroke="#0d6d4d" stroke-width="0.1" fill="none" />
<path d="M-172.58891916772671,-173.89095715567242 L159.04475139478228,186.3592419328108" stroke="#0d6d4d" stroke-width="0.1" fill="none" />
<path d="M-170.8377162680289,-175.61171572627052 L116.60711129408305,215.4710690455898" stroke="#0d6d4d" stroke-width="0.1" fill="none" />
<path d="M-169.06935781311745,-177.31483933574216 L69.02447642615026,235.07577853555185" stroke="#0d6d4d" stroke-width="0.1" fill="none" />
<path d="M-167.28402138187693,-179.00015695609807 L18.396310577453168,244.3083620286827" stroke="#0d6d4d" stroke-width="0.1" fill="none" />
<path d="M-165.4818862581237,-180.6674993474294 L-33.04354609015725,242.76145505781525" stroke="#0d6d4d" stroke-width="0.1" fill="none" />
<path d="M-163.66313341260144,-182.3166990749038 L-83.02543960408018,230.50331099259557" stroke="#0d6d4d" stroke-width="0.1" fill="none" />
<path d="M-161.82794548480905,-183.94759052557785 L-129.34404493969527,208.07478953164434" stroke="#0d6d4d" stroke-width="0.1" fill="none" />
<path d="M-159.97650676465943,-185.56000992502905 L-169.9556704264637,176.46549263210431" stroke="#0d6d4d" stroke-width="0.1" fill="none" />
<path d="M-158.1090031739724,-187.15379535380197 L-203.06843048983163,137.0701008185097" stroke="#0d6d4d" stroke-width="0.1" fill="none" />
<path d="M-156.22562224780623,-188.72878676366716 L-227.22130808406317,91.62683642125408" stroke="#0d6d4d" stroke-width="0.1" fill="none" />
<path d="M-154.32655311562303,-190.284825993695 L-241.34861838550674,42.140768899096294" stroke="#0d6d4d" stroke-width="0.1" fill="none" />
<path d="M-152.41198648229826,-191.82175678613658 L-244.8270294483712,-9.204653795030517" stroke="#0d6d4d" stroke-width="0.1" fill="none" />
<path d="M-150.48211460896866,-193.3394248021164 L-237.50306515513597,-60.1439443494957" stroke="#0d6d4d" stroke-width="0.1" fill="none" />
<path d="M-148.5371312937266,-194.8376776371301 L-219.69987696325427,-108.42953500929042" stroke="#0d6d4d" stroke-width="0.1" fill="none" />
<path d="M-146.57723185215795,-196.31636483634963 L-192.20298566190232,-151.93094583609545" stroke="#0d6d4d" stroke-width="0.1" fill="none" />
<path d="M-144.60261309772903,-197.77533790973152 L-156.22562224780623,-188.72878676366716" stroke="#0d6d4d" stroke-width="0.1" fill="none" />
<path d="M-142.6134733220218,-199.21445034692883 L-113.35519716660804,-217.19944584487183" stroke="#0d6d4d" stroke-width="0.1" fill="none" />
<path d="M-140.61001227482228,-200.63355763200315 L-65.483259829523,-236.08672703500122" stroke="#0d6d4d" stroke-width="0.1" fill="none" />
<path d="M-138.59243114406135,-202.032517257937 L-14.722038765010588,-244.557276674814" stroke="#0d6d4d" stroke-width="0.1" fill="none" />
<path d="M-136.56093253561068,-203.4111887409451 L36.68875513917145,-242.23735311949295" stroke="#0d6d4d" stroke-width="0.1" fill="none" />
<path d="M-134.5157204529382,-204.7694336345808 L86.48075023157875,-229.229317146353" stroke="#0d6d4d" stroke-width="0.1" fill="none" />
<path d="M-132.4570002766214,-206.1071155436394 L132.45700027662141,-206.1071155436394" stroke="#0d6d4d" stroke-width="0.1" fill="none" />
<path d="M-130.384978743723,-207.424100137855 L172.58891916772663,-173.8909571556725" stroke="#0d6d4d" stroke-width="0.1" fill="none" />
<path d="M-128.29986392703012,-208.7202551653901 L205.1057871743195,-134.0022987399946" stroke="#0d6d4d" stroke-width="0.1" fill="none" />
<path d="M-126.20186521416026,-209.99545046611587 L228.5728794851592,-88.20112677207065" stroke="#0d6d4d" stroke-width="0.1" fill="none" />
<path d="M-124.09119328653401,-211.24955798468326 L241.95476982305286,-38.50830247977061" stroke="#0d6d4d" stroke-width="0.1" fill="none" />
<path d="M-121.96806009821877,-212.4824517833821 L244.6610160185643,12.883603562816445" stroke="#0d6d4d" stroke-width="0.1" fill="none" />
<path d="M-119.83267885464346,-213.6940080547882 L236.57221178197221,63.70705308351414" stroke="#0d6d4d" stroke-width="0.1" fill="none" />
<path d="M-117.68526399118956,-214.88410513419558 L218.04525520472728,111.71958952084161" stroke="#0d6d4d" stroke-width="0.1" fill="none" />
<path d="M-115.52603115165688,-216.05262351183427 L189.89760153106673,154.8027807655541" stroke="#0d6d4d" stroke-width="0.1" fill="none" />
<path d="M-113.35519716660804,-217.19944584487183 L153.37119500653168,191.05568963594996" stroke="#0d6d4d" stroke-width="0.1" fill="none" />
<path d="M-111.17298003159542,-218.32445696919638 L110.07767121962962,218.8787479379008" stroke="#0d6d4d" stroke-width="0.1" fill="none" />
<path d="M-108.9795988852692,-219.4275439109818 L61.92724774514402,237.04433337819228" stroke="#0d6d4d" stroke-width="0.1" fill="none" />
<path d="M-106.77527398737188,-220.5085958980322 L11.044440610159562,244.75093530282712" stroke="#0d6d4d" stroke-width="0.1" fill="none" />
<path d="M-104.56022669661897,-221.56750437090648 L-40.32567461877967,241.658519333667" stroke="#0d6d4d" stroke-width="0.1" fill="none" />
<path d="M-102.33467944847136,-222.6041629938187 L-89.91652113420533,227.90353052798898" stroke="#0d6d4d" stroke-width="0.1" fill="none" />
<path d="M-100.09885573279674,-223.61846766531772 L-135.54002787430088,204.09287308437237" stroke="#0d6d4d" stroke-width="0.1" fill="none" />
<path d="M-97.85298007142886,-224.6103165287395 L-175.18317264140148,171.27713222521248" stroke="#0d6d4d" stroke-width="0.1" fill="none" />
<path d="M-95.5972779956184,-225.57960998243715 L-207.09680163073554,130.90421977277802" stroke="#0d6d4d" stroke-width="0.1" fill="none" />
<path d="M-93.33197602338716,-226.52625068978185 L-229.87280643166412,84.75548869088463" stroke="#0d6d4d" stroke-width="0.1" fill="none" />
<path d="M-91.05730163678038,-227.45014358893772 L-242.50625326082852,34.867135376954884" stroke="#0d6d4d" stroke-width="0.1" fill="none" />
<path d="M-88.77348325902223,-228.35119590240842 L-244.43972313145497,-16.55964236985899" stroke="#0d6d4d" stroke-width="0.1" fill="none" />
<path d="M-86.48075023157878,-229.229317146353 L-235.58790656064343,-67.25576765135874" stroke="#0d6d4d" stroke-width="0.1" fill="none" />
<path d="M-84.17933279112673,-230.08441913967303 L-216.3413676351969,-114.98440176707699" stroke="#0d6d4d" stroke-width="0.1" fill="none" />
<path d="M-81.86946204643331,-230.91641601286733 L-187.54931135607856,-157.6396390818651" stroke="#0d6d4d" stroke-width="0.1" fill="none" />
<path d="M-79.55136995514752,-231.72522421665548 L-150.48211460896866,-193.3394248021164" stroke="#0d6d4d" stroke-width="0.1" fill="none" />
<path d="M-77.22528930050832,-232.51076253036717 L-106.77527398737188,-220.5085958980322" stroke="#0d6d4d" stroke-width="0.1" fill="none" />
<path d="M-74.89145366796672,-233.2729520700992 L-58.357243629246156,-237.9483812006226" stroke="#0d6d4d" stroke-width="0.1" fill="none" />
<path d="M-72.55009742173141,-234.01171629663605 L-7.364347040660496,-244.88929415690004" stroke="#0d6d4d" stroke-width="0.1" fill="none" />
<path d="M-70.20145568123114,-234.72698102313706 L43.95348279228571,-241.02508448381104" stroke="#0d6d4d" stroke-width="0.1" fill="none" />
<path d="M-67.8457642975061,-235.41867442258535 L93.33197602338717,-226.52625068978182" stroke="#0d6d4d" stroke-width="0.1" fill="none" />
<path d="M-65.483259829523,-236.08672703500122 L138.59243114406118,-202.03251725793712" stroke="#0d6d4d" stroke-width="0.1" fill="none" />
<path d="M-63.114179520419164,-236.73107177441727 L177.73784469393402,-168.62460841631327" stroke="#0d6d4d" stroke-width="0.1" fill="none" />
<path d="M-60.73876127367962,-237.351643935615 L209.041024003192,-127.77656390628488" stroke="#0d6d4d" stroke-width="0.1" fill="none" />
<path d="M-58.357243629246156,-237.9483812006226 L231.12079521411283,-81.29070069568922" stroke="#0d6d4d" stroke-width="0.1" fill="none" />
<path d="M-55.96986573956336,-238.52122364497305 L243.0029440949812,-31.218090287066687" stroke="#0d6d4d" stroke-width="0.1" fill="none" />
<path d="M-53.576867345562135,-239.07011374372172 L244.16320078663412,20.231939640721354" stroke="#0d6d4d" stroke-width="0.1" fill="none" />
<path d="M-51.17848875258632,-239.59499637722277 L234.55037188807782,70.7892862456204" stroke="#0d6d4d" stroke-width="0.1" fill="none" />
<path d="M-48.774970806259255,-240.09581883666476 L214.5885992362253,118.22323408634485" stroke="#0d6d4d" stroke-width="0.1" fill="none" />
<path d="M-46.366554868300604,-240.5725308293631 L185.1586457167933,160.44087981659482" stroke="#0d6d4d" stroke-width="0.1" fill="none" />
<path d="M-43.953482792285754,-241.025084483811 L147.55903382276722,195.57947626806714" stroke="#0d6d4d" stroke-width="0.1" fill="none" />
<path d="M-41.53599689936122,-241.45343435448638 L103.44875162355282,222.08862147243943" stroke="#0d6d4d" stroke-width="0.1" fill="none" />
<path d="M-39.1143399539098,-241.8575374264155 L54.77405409946442,238.79866623896572" stroke="#0d6d4d" stroke-width="0.1" fill="none" />
<path d="M-36.68875513917153,-242.23735311949292 L3.6825895480959274,244.97232197581067" stroke="#0d6d4d" stroke-width="0.1" fill="none" />
<path d="M-34.259486032824476,-242.59284329255615 L-47.57135998162887,240.33719169012997" stroke="#0d6d4d" stroke-width="0.1" fill="none" />
<path d="M-31.826776582523706,-242.92397224721591 L-96.72634320081384,225.0977888185452" stroke="#0d6d4d" stroke-width="0.1" fill="none" />
<path d="M-29.390871081404498,-243.23070673144102 L-141.6135204165833,199.92651358742276" stroke="#0d6d4d" stroke-width="0.1" fill="none" />
<path d="M-26.95201414354949,-243.51301594289762 L-180.25235811491723,165.93398504830657" stroke="#0d6d4d" stroke-width="0.1" fill="none" />
<path d="M-24.510450679426025,-243.7708715320422 L-210.938015008147,124.62003781263567" stroke="#0d6d4d" stroke-width="0.1" fill="none" />
<path d="M-22.06642587129044,-244.00424760496864 L-232.31656385810768,77.80754563126747" stroke="#0d6d4d" stroke-width="0.1" fill="none" />
<path d="M-19.620185148568137,-244.2131207260083 L-243.4447301016666,27.561991686500114" stroke="#0d6d4d" stroke-width="0.1" fill="none" />
<path d="M-17.1719741632077,-244.39746992008352 L-243.83151146240496,-23.899665645340615" stroke="#0d6d4d" stroke-width="0.1" fill="none" />
<path d="M-14.722038765010588,-244.557276674814 L-233.45984218802874,-74.30681049231438" stroke="#0d6d4d" stroke-width="0.1" fill="none" />
<path d="M-12.270624976945172,-244.69252494237574 L-212.7873460336585,-121.43535468697772" stroke="#0d6d4d" stroke-width="0.1" fill="none" />
<path d="M-9.817978970439157,-244.80320114111254 L-182.72614476750795,-163.20587004885493" stroke="#0d6d4d" stroke-width="0.1" fill="none" />
<path d="M-7.364347040660496,-244.88929415690004 L-144.60261309772903,-197.77533790973152" stroke="#0d6d4d" stroke-width="0.1" fill="none" />
<path d="M-4.909975581783525,-244.9507953442615 L-100.09885573279674,-223.61846766531772" stroke="#0d6d4d" stroke-width="0.1" fill="none" />
<path d="M-2.455111062246448,-244.98769852723632 L-51.17848875258632,-239.59499637722277" stroke="#0d6d4d" stroke-width="0.1" fill="none" />
</svg>