<?xml version="1.0" encoding="UTF-8"?>
<svg xmlns="http://www.w3.org/2000/svg" xmlns:xlink="http://www.w3.org/1999/xlink"
     width="500.0" height="500" viewBox="-250.0 -250.0 500 500">
<defs>
</defs>
<circle cx="0" cy="0" r="245.0" fill="white" stroke-width="2" stroke="black" />
<path d="M0.0,-245.0 L0.0,-245.0" stroke="#0d6d4d" stroke-width="0.1" fill="none" />
<path d="M2.5613184003953133,-244.9866111607975 L53.357601797936915,-239.11914672475058" stroke="#0d6d4d" stroke-width="0.1" fill="none" />
<path d="M5.1223568572787155,-244.94644610654527 L104.15366704654443,-221.7589088193698" stroke="#0d6d4d" stroke-width="0.1" fill="none" />
<path d="M7.6828354577351785,-244.87950922714901 L149.94963079327513,-193.7526986262655" stroke="#0d6d4d" stroke-width="0.1" fill="none" />
<path d="M10.24247435004011,-244.7858078385852 L188.54696778593996,-156.44500931230667" stroke="#0d6d4d" stroke-width="0.1" fill="none" />
<path d="M12.800993774246196,-244.6653521821014 L218.09273699866773,-111.6268698317298" stroke="#0d6d4d" stroke-width="0.1" fill="none" />
<path d="M15.358114092760237,-244.51815542309689 L237.16853570783036,-61.449863060901826" stroke="#0d6d4d" stroke-width="0.1" fill="none" />
<path d="M17.913555820906595,-244.3442336496838 L244.85859270267875,-8.322834833377206" stroke="#0d6d4d" stroke-width="0.1" fill="none" />
<path d="M20.46703965747393,-244.14360587092875 L240.79373168227397,45.20374743895743" stroke="#0d6d4d" stroke-width="0.1" fill="none" />
<path d="M23.018286515241872,-243.91629401477513 L225.16909428943467,96.56023496696598" stroke="#0d6d4d" stroke-width="0.1" fill="none" />
<path d="M25.567017551484348,-243.6623229256466 L198.73477195262015,143.28115862506164" stroke="#0d6d4d" stroke-width="0.1" fill="none" />
<path d="M28.112954198446143,-243.3817203617315 L162.75979627259326,183.1235886424901" stroke="#0d6d4d" stroke-width="0.1" fill="none" />
<path d="M30.65581819378941,-243.07451699194905 L118.97121666612884,214.17481085548093" stroke="#0d6d4d" stroke-width="0.1" fill="none" />
<path d="M33.19533161100682,-242.7407463925974 L69.4711899642242,234.94415031014216" stroke="#0d6d4d" stroke-width="0.1" fill="none" />
<path d="M35.731216889798,-242.38044504368378 L16.636062241612873,244.4345340435618" stroke="#0d6d4d" stroke-width="0.1" fill="none" />
<path d="M38.263196866405934,-241.99365232493736 L-36.99771234729105,242.19035753115176" stroke="#0d6d4d" stroke-width="0.1" fill="none" />
<path d="M40.79099480391007,-241.58041051150522 L-88.85533903550689,228.31935687734654" stroke="#0d6d4d" stroke-width="0.1" fill="none" />
<path d="M43.31433442247265,-241.14076476933178 L-136.44729052706654,203.48743673215378" stroke="#0d6d4d" stroke-width="0.1" fill="none" />
<path d="M45.832939929535264,-240.67476315022233 L-177.4888216480549,168.88670222958632" stroke="#0d6d4d" stroke-width="0.1" fill="none" />
<path d="M48.34653604996202,-240.18245658659112 L-210.00965302937686,126.17822963760717" stroke="#0d6d4d" stroke-width="0.1" fill="none" />
<path d="M50.85484805612616,-239.66389888589464 L-232.4485582404801,77.41232312701983" stroke="#0d6d4d" stroke-width="0.1" fill="none" />
<path d="M53.357601797936915,-239.11914672475058 L-243.7283135327626,24.930085889851462" stroke="#0d6d4d" stroke-width="0.1" fill="none" />
<path d="M55.85452373280314,-238.54825964274343 L-243.30741208292136,-28.748969120848397" stroke="#0d6d4d" stroke-width="0.1" fill="none" />
<path d="M58.34534095553068,-237.95130003591674 L-231.20606009234297,-81.04787336245103" stroke="#0d6d4d" stroke-width="0.1" fill="none" />
<path d="M60.82978122814991,-237.32833314995372 L-208.00520674869048,-129.45591514270228" stroke="#0d6d4d" stroke-width="0.1" fill="none" />
<path d="M63.307573009670485,-236.67942707304587 L-174.8186546182872,-171.6491712693423" stroke="#0d6d4d" stroke-width="0.1" fill="none" />
<path d="M65.77844548575982,-236.00465272845136 L-133.2395893647276,-205.6020715506504" stroke="#0d6d4d" stroke-width="0.1" fill="none" />
<path d="M68.24212859834223,-235.3040838667432 L-85.26409573967065,-229.6846402737812" stroke="#0d6d4d" stroke-width="0.1" fill="none" />
<path d="M70.69835307511534,-234.57779705774868 L-33.195331611006814,-242.7407463925974" stroke="#0d6d4d" stroke-width="0.1" fill="none" />
<path d="M73.14685045898068,-233.82587168218046 L20.46703965747393,-244.14360587092875" stroke="#0d6d4d" stroke-width="0.1" fill="none" />
<path d="M75.58735313738507,-233.0483899229605 L73.14685045898068,-233.82587168218046" stroke="#0d6d4d" stroke-width="0.1" fill="none" />
<path d="M78.01959437156991,-232.2454367562379 L122.31510293317416,-212.28286693571624" stroke="#0d6d4d" stroke-width="0.1" fill="none" />
<path d="M80.44330832572466,-231.4170999421011 L165.61137847922862,-180.54880591742966" stroke="#0d6d4d" stroke-width="0.1" fill="none" />
<path d="M82.85823009604194,-230.56347001498602 L200.95715429019623,-140.14714460018894" stroke="#0d6d4d" stroke-width="0.1" fill="none" />
<path d="M85.26409573967058,-229.68464027378124 L226.65558692571648,-93.01744414548796" stroke="#0d6d4d" stroke-width="0.1" fill="none" />
<path d="M87.66064230356368,-228.78070677163026 L241.47297261653733,-41.42225845765787" stroke="#0d6d4d" stroke-width="0.1" fill="none" />
<path d="M90.04760785321851,-227.85176830543358 L244.69797363881798,12.161484163388147" stroke="#0d6d4d" stroke-width="0.1" fill="none" />
<path d="M92.42473150130505,-226.8979264050504 L236.17576747970483,65.16139083362468" stroke="#0d6d4d" stroke-width="0.1" fill="none" />
<path d="M94.79175343618012,-225.91928532220183 L216.31547939636667,115.03309686138184" stroke="#0d6d4d" stroke-width="0.1" fill="none" />
<path d="M97.14841495028394,-224.91595201907634 L186.0705415538835,159.38241297534842" stroke="#0d6d4d" stroke-width="0.1" fill="none" />
<path d="M99.49445846841596,-223.88803615663937 L146.8929216401792,196.08026308634987" stroke="#0d6d4d" stroke-width="0.1" fill="none" />
<path d="M101.82962757588697,-222.8356500826476 L100.6634183033025,223.364894769734" stroke="#0d6d4d" stroke-width="0.1" fill="none" />
<path d="M104.15366704654443,-221.7589088193698 L49.601369715595084,239.9264556532623" stroke="#0d6d4d" stroke-width="0.1" fill="none" />
<path d="M106.4663228706677,-220.65793005101526 L-3.841890117408779,244.96987545477046" stroke="#0d6d4d" stroke-width="0.1" fill="none" />
<path d="M108.7673422827306,-219.53283411087128 L-57.100712464044385,238.25303489378373" stroke="#0d6d4d" stroke-width="0.1" fill="none" />
<path d="M111.05647378902775,-218.38374396815115 L-107.61830287669437,220.09838910346454" stroke="#0d6d4d" stroke-width="0.1" fill="none" />
<path d="M113.33346719516197,-217.21078521455408 L-152.96946513465707,191.3774875381557" stroke="#0d6d4d" stroke-width="0.1" fill="none" />
<path d="M115.59807363338982,-216.01408605053834 L-190.97702755547436,153.46913352878352" stroke="#0d6d4d" stroke-width="0.1" fill="none" />
<path d="M117.85004558982175,-214.79377727130955 L-219.81636240080596,108.19319211890155" stroke="#0d6d4d" stroke-width="0.1" fill="none" />
<path d="M120.08913693147484,-213.549992252525 L-238.1029807173359,57.723223866308516" stroke="#0d6d4d" stroke-width="0.1" fill="none" />
<path d="M122.31510293317416,-212.28286693571624 L-244.9589974502072,4.482138796310084" stroke="#0d6d4d" stroke-width="0.1" fill="none" />
<path d="M124.52770030430031,-210.99253981343122 L-240.0552760405735,-48.974120156303655" stroke="#0d6d4d" stroke-width="0.1" fill="none" />
<path d="M126.72668721538055,-209.6791519140973 L-223.62722927302863,-100.07928021158165" stroke="#0d6d4d" stroke-width="0.1" fill="none" />
<path d="M128.9118233245196,-208.3428467866076 L-196.4635178221757,-146.3799377132524" stroke="#0d6d4d" stroke-width="0.1" fill="none" />
<path d="M131.0828698036685,-206.9837704846312 L-159.8681890468203,-185.65333859343903" stroke="#0d6d4d" stroke-width="0.1" fill="none" />
<path d="M133.23958936472766,-205.60207155065035 L-115.59807363338982,-216.01408605053834" stroke="#0d6d4d" stroke-width="0.1" fill="none" />
<path d="M135.38174628548137,-204.19790099972514 L-65.77844548575996,-236.00465272845133" stroke="#0d6d4d" stroke-width="0.1" fill="none" />
<path d="M137.5091064353619,-202.7714123029879 L-12.800993774246264,-244.6653521821014" stroke="#0d6d4d" stroke-width="0.1" fill="none" />
<path d="M139.62143730103884,-201.32276137086953 L40.79099480391007,-241.58041051150522" stroke="#0d6d4d" stroke-width="0.1" fill="none" />
<path d="M141.71850801183214,-199.85210653605898 L92.42473150130505,-226.8979264050504" stroke="#0d6d4d" stroke-width="0.1" fill="none" />
<path d="M143.80008936494553,-198.35960853619792 L139.62143730103884,-201.32276137086953" stroke="#0d6d4d" stroke-width="0.1" fill="none" />
<path d="M145.86595385051766,-196.84543049631267 L180.11534157549224,-166.0827014747284" stroke="#0d6d4d" stroke-width="0.1" fill="none" />
<path d="M147.91587567648793,-195.3097379109853 L211.96245485870568,-122.8695150567103" stroke="#0d6d4d" stroke-width="0.1" fill="none" />
<path d="M149.94963079327513,-193.7526986262655 L233.63389388162747,-73.75773606685904" stroke="#0d6d4d" stroke-width="0.1" fill="none" />
<path d="M151.9669969182651,-192.17448282132568 L244.08927861848358,-21.105071985385198" stroke="#0d6d4d" stroke-width="0.1" fill="none" />
<path d="M153.96775356010545,-190.57526298986087 L242.8266777747946,32.56078255902437" stroke="#0d6d4d" stroke-width="0.1" fill="none" />
<path d="M155.95168204280472,-188.95521392123567 L229.90670498571927,84.66349273807131" stroke="#0d6d4d" stroke-width="0.1" fill="none" />
<path d="M157.91856552963273,-187.3145126813806 L205.94960893936167,132.70176554109594" stroke="#0d6d4d" stroke-width="0.1" fill="none" />
<path d="M159.86818904682025,-185.6533385934391 L172.10549711939285,174.36942926237575" stroke="#0d6d4d" stroke-width="0.1" fill="none" />
<path d="M161.80033950705476,-183.97187321816835 L129.9991226347464,207.66614580666769" stroke="#0d6d4d" stroke-width="0.1" fill="none" />
<path d="M163.71480573277034,-182.2703003340952 L81.65188475315225,230.9934408511591" stroke="#0d6d4d" stroke-width="0.1" fill="none" />
<path d="M165.61137847922862,-180.54880591742966 L29.384787656203997,243.23144174715532" stroke="#0d6d4d" stroke-width="0.1" fill="none" />
<path d="M167.48985045738843,-178.8075781217386 L-24.29298392834004,243.79263920770336" stroke="#0d6d4d" stroke-width="0.1" fill="none" />
<path d="M169.35001635656195,-177.04680725738095 L-76.80452307124686,232.6500918456692" stroke="#0d6d4d" stroke-width="0.1" fill="none" />
<path d="M171.19167286685436,-175.2666857707075 L-125.62891012388826,210.3387195479805" stroke="#0d6d4d" stroke-width="0.1" fill="none" />
<path d="M173.01461870138493,-173.46740822302723 L-168.42223442087197,177.92962359506313" stroke="#0d6d4d" stroke-width="0.1" fill="none" />
<path d="M174.81865461828718,-171.64917126934233 L-203.13011831851836,136.9786663386118" stroke="#0d6d4d" stroke-width="0.1" fill="none" />
<path d="M176.60358344248513,-169.81217363685442 L-228.08634163155045,89.45177897132992" stroke="#0d6d4d" stroke-width="0.1" fill="none" />
<path d="M178.36921008724394,-167.9566161032445 L-242.09283180806358,37.63058313596313" stroke="#0d6d4d" stroke-width="0.1" fill="none" />
<path d="M180.11534157549224,-166.0827014747284 L-244.47717975720656,-15.99714280621755" stroke="#0d6d4d" stroke-width="0.1" fill="none" />
<path d="M181.84178706091402,-164.19063456389105 L-235.12492016921559,-68.85689446540555" stroke="#0d6d4d" stroke-width="0.1" fill="none" />
<path d="M183.54835784880714,-162.2806221673008 L-214.48502664759286,-118.41103556671305" stroke="#0d6d4d" stroke-width="0.1" fill="none" />
<path d="M185.23486741670752,-160.35287304290745 L-183.5483578488072,-162.28062216730075" stroke="#0d6d4d" stroke-width="0.1" fill="none" />
<path d="M186.90113143477495,-158.40759788722565 L-143.8000893649455,-198.35960853619795" stroke="#0d6d4d" stroke-width="0.1" fill="none" />
<path d="M188.54696778593996,-156.44500931230667 L-97.14841495028402,-224.91595201907631" stroke="#0d6d4d" stroke-width="0.1" fill="none" />
<path d="M190.17219658580862,-154.4653218225002 L-45.83293992953527,-240.67476315022233" stroke="#0d6d4d" stroke-width="0.1" fill="none" />
<path d="M191.77664020232322,-152.46875179101013 L7.6828354577351785,-244.87950922714901" stroke="#0d6d4d" stroke-width="0.1" fill="none" />
<path d="M193.36012327517693,-150.45551743624551 L60.82978122814991,-237.32833314995372" stroke="#0d6d4d" stroke-width="0.1" fill="none" />
<path d="M194.92247273497998,-148.42583879797 L111.05647378902775,-218.38374396815115" stroke="#0d6d4d" stroke-width="0.1" fill="none" />
<path d="M196.46351782217573,-146.37993771325236 L155.95168204280472,-188.95521392123567" stroke="#0d6d4d" stroke-width="0.1" fill="none" />
<path d="M197.98309010570387,-144.31803779222037 L193.36012327517693,-150.45551743624551" stroke="#0d6d4d" stroke-width="0.1" fill="none" />
<path d="M199.48102350140968,-142.24036439362087 L221.48593173803525,-104.73290811456724" stroke="#0d6d4d" stroke-width="0.1" fill="none" />
<path d="M200.95715429019623,-140.14714460018894 L238.97887271449935,-53.98238968503631" stroke="#0d6d4d" stroke-width="0.1" fill="none" />
<path d="M202.41132113591846,-138.0386071938285 L244.99916319040446,-0.6403405356275974" stroke="#0d6d4d" stroke-width="0.1" fill="none" />
<path d="M203.8433651030166,-135.91498263060726 L239.2577872885001,52.73244941979114" stroke="#0d6d4d" stroke-width="0.1" fill="none" />
<path d="M205.25312967388732,-133.77650301556847 L222.0303710437019,103.57371449453795" stroke="#0d6d4d" stroke-width="0.1" fill="none" />
<path d="M206.64046076599058,-131.62340207736275 L194.1439504335388,149.44271982957088" stroke="#0d6d4d" stroke-width="0.1" fill="none" />
<path d="M208.0052067486904,-129.4559151427024 L156.9372678905027,188.13743366769035" stroke="#0d6d4d" stroke-width="0.1" fill="none" />
<path d="M209.34721845982745,-127.2742791106407 L112.19650334026214,217.80024021616356" stroke="#0d6d4d" stroke-width="0.1" fill="none" />
<path d="M210.66634922202215,-125.07873242668002 L62.069525123571665,237.00711814402177" stroke="#0d6d4d" stroke-width="0.1" fill="none" />
<path d="M211.96245485870568,-122.8695150567103 L8.962777354912673,244.8360035249846" stroke="#0d6d4d" stroke-width="0.1" fill="none" />
<path d="M213.23539370987845,-120.64686846078156 L-44.57424615711741,240.91105532856875" stroke="#0d6d4d" stroke-width="0.1" fill="none" />
<path d="M214.48502664759278,-118.41103556671318 L-95.97139537114855,225.42069840747698" stroke="#0d6d4d" stroke-width="0.1" fill="none" />
<path d="M215.71121709115914,-116.16226074354273 L-142.7612491174356,199.1085777921923" stroke="#0d6d4d" stroke-width="0.1" fill="none" />
<path d="M216.91383102207405,-113.90078977481718 L-182.6975685008575,163.23785854964677" stroke="#0d6d4d" stroke-width="0.1" fill="none" />
<path d="M218.09273699866773,-111.6268698317298 L-213.86313201408873,119.5305850614162" stroke="#0d6d4d" stroke-width="0.1" fill="none" />
<path d="M219.2478061704703,-109.34074944610485 L-234.7617755243798,70.08501089848463" stroke="#0d6d4d" stroke-width="0.1" fill="none" />
<path d="M220.37891229229484,-107.04267848323407 L-244.39021857347979,17.27486803442433" stroke="#0d6d4d" stroke-width="0.1" fill="none" />
<path d="M221.48593173803525,-104.73290811456724 L-242.2862288279939,-36.364588823592854" stroke="#0d6d4d" stroke-width="0.1" fill="none" />
<path d="M222.56874351417852,-102.41169079025997 L-228.5508124510718,-88.25829212008925" stroke="#0d6d4d" stroke-width="0.1" fill="none" />
<path d="M223.62722927302863,-100.07928021158165 L-203.8433651030167,-135.91498263060708" stroke="#0d6d4d" stroke-width="0.1" fill="none" />
<path d="M224.66127332564173,-97.73593130318703 L-169.350016356562,-177.0468072573809" stroke="#0d6d4d" stroke-width="0.1" fill="none" />
<path d="M225.6707626544705,-95.38190018525344 L-126.72668721538055,-209.6791519140973" stroke="#0d6d4d" stroke-width="0.1" fill="none" />
<path d="M226.65558692571648,-93.01744414548796 L-78.01959437156984,-232.24543675623792" stroke="#0d6d4d" stroke-width="0.1" fill="none" />
<path d="M227.61563850138953,-90.64282161100662 L-25.567017551484426,-243.6623229256466" stroke="#0d6d4d" stroke-width="0.1" fill="none" />
<path d="M228.5508124510718,-88.25829212008925 L28.112954198446143,-243.3817203617315" stroke="#0d6d4d" stroke-width="0.1" fill="none" />
<path d="M229.46100656338666,-85.8641162938129 L80.44330832572466,-231.4170999421011" stroke="#0d6d4d" stroke-width="0.1" fill="none" />
<path d="M230.34612135716995,-83.46055580756656 L128.9118233245196,-208.3428467866076" stroke="#0d6d4d" stroke-width="0.1" fill="none" />
<path d="M231.2060600923429,-81.04787336245118 L171.19167286685436,-175.2666857707075" stroke="#0d6d4d" stroke-width="0.1" fill="none" />
<path d="M232.0407287804855,-78.6263326565672 L205.25312967388732,-133.77650301556847" stroke="#0d6d4d" stroke-width="0.1" fill="none" />
<path d="M232.85003619510917,-76.19619835619328 L229.46100656338666,-85.8641162938129" stroke="#0d6d4d" stroke-width="0.1" fill="none" />
<path d="M233.63389388162747,-73.75773606685904 L242.6531568243936,-33.82965390240133" stroke="#0d6d4d" stroke-width="0.1" fill="none" />
<path d="M234.39221616702386,-71.31121230431555 L244.19626535429566,19.828867517193878" stroke="#0d6d4d" stroke-width="0.1" fill="none" />
<path d="M235.12492016921553,-68.8568944654057 L234.0162521951162,72.53546517774433" stroke="#0d6d4d" stroke-width="0.1" fill="none" />
<path d="M235.83192580611217,-66.3950507988389 L212.60182888750217,121.75985526309256" stroke="#0d6d4d" stroke-width="0.1" fill="none" />
<path d="M236.51315580436858,-63.9259503758722 L180.98103691264666,165.13892417605012" stroke="#0d6d4d" stroke-width="0.1" fill="none" />
<path d="M237.16853570783036,-61.449863060901826 L140.67189454035616,200.5901744513597" stroke="#0d6d4d" stroke-width="0.1" fill="none" />
<path d="M237.79799388567193,-58.967059481967844 L93.60952137832541,226.41169913968852" stroke="#0d6d4d" stroke-width="0.1" fill="none" />
<path d="M238.40146154022523,-56.47781100117556 L42.05323915186808,241.36388519585068" stroke="#0d6d4d" stroke-width="0.1" fill="none" />
<path d="M238.97887271449935,-53.98238968503631 L-11.521891476230952,244.72892353951536" stroke="#0d6d4d" stroke-width="0.1" fill="none" />
<path d="M239.53016429938927,-51.48106827473169 L-64.54389105759479,236.34526889097089" stroke="#0d6d4d" stroke-width="0.1" fill="none" />
<path d="M240.05527604057346,-48.974120156303776 L-114.467334286931,216.61539506979642" stroke="#0d6d4d" stroke-width="0.1" fill="none" />
<path d="M240.55415054509956,-46.46181933077499 L-158.89554814687628,186.48647344808612" stroke="#0d6d4d" stroke-width="0.1" fill="none" />
<path d="M241.02673328765718,-43.9444403842007 L-195.69566890688614,147.4049021270541" stroke="#0d6d4d" stroke-width="0.1" fill="none" />
<path d="M241.47297261653733,-41.42225845765787 L-223.10103443878833,101.24686875327346" stroke="#0d6d4d" stroke-width="0.1" fill="none" />
<path d="M241.89281975927784,-38.89554921717305 L-239.7959963046425,50.22828044303211" stroke="#0d6d4d" stroke-width="0.1" fill="none" />
<path d="M242.28622882799388,-36.364588823592975 L-244.9790800459264,-3.2016151941767963" stroke="#0d6d4d" stroke-width="0.1" fill="none" />
<path d="M242.6531568243936,-33.82965390240133 L-238.40146154022523,-56.4778110011756" stroke="#0d6d4d" stroke-width="0.1" fill="none" />
<path d="M242.99356364447735,-31.291021513484186 L-220.37891229229487,-107.04267848323396" stroke="#0d6d4d" stroke-width="0.1" fill="none" />
<path d="M243.30741208292136,-28.748969120848457 L-191.77664020232328,-152.4687517910101" stroke="#0d6d4d" stroke-width="0.1" fill="none" />
<path d="M243.59466783714367,-26.203774562296026 L-153.9677535601056,-190.57526298986076" stroke="#0d6d4d" stroke-width="0.1" fill="none" />
<path d="M243.85529951105374,-23.65571601905696 L-108.76734228273068,-219.53283411087125" stroke="#0d6d4d" stroke-width="0.1" fill="none" />
<path d="M244.08927861848358,-21.105071985385198 L-58.3453409555307,-237.95130003591674" stroke="#0d6d4d" stroke-width="0.1" fill="none" />
<path d="M244.29657958630136,-18.552121238120268 L-5.122356857278648,-244.94644610654527" stroke="#0d6d4d" stroke-width="0.1" fill="none" />
<path d="M244.47717975720656,-15.997142806217608 L48.34653604996202,-240.18245658659112" stroke="#0d6d4d" stroke-width="0.1" fill="none" />
<path d="M244.63105939220603,-13.440415940251832 L99.49445846841596,-223.88803615663937" stroke="#0d6d4d" stroke-width="0.1" fill="none" />
<path d="M244.75820167277172,-10.882220081895538 L145.86595385051766,-196.84543049631267" stroke="#0d6d4d" stroke-width="0.1" fill="none" />
<path d="M244.85859270267875,-8.322834833377206 L185.23486741670752,-160.35287304290745" stroke="#0d6d4d" stroke-width="0.1" fill="none" />
<path d="M244.9322215095242,-5.762539926921846 L215.71121709115914,-116.16226074354273" stroke="#0d6d4d" stroke-width="0.1" fill="none" />
<path d="M244.9790800459264,-3.2016151941768562 L235.83192580611217,-66.3950507988389" stroke="#0d6d4d" stroke-width="0.1" fill="none" />
<path d="M244.99916319040446,-0.6403405356275974 L244.63105939220603,-13.440415940251832" stroke="#0d6d4d" stroke-width="0.1" fill="none" />
<path d="M244.992468747938,1.9210041099948567 L241.68619814683544,40.15945250284917" stroke="#0d6d4d" stroke-width="0.1" fill="none" />
<path d="M244.9589974502072,4.482138796310077 L227.1387159222453,91.83138749465535" stroke="#0d6d4d" stroke-width="0.1" fill="none" />
<path d="M244.89875295551258,7.04278359988554 L201.68699319588146,139.09477623406448" stroke="#0d6d4d" stroke-width="0.1" fill="none" />
<path d="M244.81174184837545,9.602658650831097 L166.5528899428956,179.68064684787203" stroke="#0d6d4d" stroke-width="0.1" fill="none" />
<path d="M244.69797363881798,12.161484163388147 L123.4230878464571,211.64059484523693" stroke="#0d6d4d" stroke-width="0.1" fill="none" />
<path d="M244.557460761324,14.718980466509052 L74.36811782835963,233.44032010487652" stroke="#0d6d4d" stroke-width="0.1" fill="none" />
<path d="M244.39021857347979,17.274868034424326 L21.74296014246591,244.033283968075" stroke="#0d6d4d" stroke-width="0.1" fill="none" />
<path d="M244.19626535429566,19.828867517193878 L-31.9260110811213,242.91095038397944" stroke="#0d6d4d" stroke-width="0.1" fill="none" />
<path d="M243.97562230220802,22.38069977123884 L-84.06231139179371,230.12719918225466" stroke="#0d6d4d" stroke-width="0.1" fill="none" />
<path d="M243.72831353276263,24.93008588985135 L-132.1630352186009,206.29573946595906" stroke="#0d6d4d" stroke-width="0.1" fill="none" />
<path d="M243.45436607597853,27.47674723367787 L-173.91901277167594,172.560647299799" stroke="#0d6d4d" stroke-width="0.1" fill="none" />
<path d="M243.1538098733942,30.02040546117362 L-207.32566627669812,130.54144208994782" stroke="#0d6d4d" stroke-width="0.1" fill="none" />
<path d="M242.8266777747946,32.56078255902437 L-230.7792436709728,82.25533837176623" stroke="#0d6d4d" stroke-width="0.1" fill="none" />
<path d="M242.47300553462114,35.09760087253234 L-243.1538098733942,30.020405461173624" stroke="#0d6d4d" stroke-width="0.1" fill="none" />
<path d="M242.0928318080636,37.630583135962965 L-243.85529951105374,-23.65571601905701" stroke="#0d6d4d" stroke-width="0.1" fill="none" />
<path d="M241.68619814683544,40.15945250284917 L-232.8500361951092,-76.19619835619322" stroke="#0d6d4d" stroke-width="0.1" fill="none" />
<path d="M241.25314899463217,42.68393257624939 L-210.66634922202212,-125.07873242668005" stroke="#0d6d4d" stroke-width="0.1" fill="none" />
<path d="M240.79373168227397,45.20374743895743 L-178.369210087244,-167.9566161032444" stroke="#0d6d4d" stroke-width="0.1" fill="none" />
<path d="M240.3079964225324,47.718621683658846 L-137.50910643536193,-202.7714123029879" stroke="#0d6d4d" stroke-width="0.1" fill="none" />
<path d="M239.79599630464247,50.22828044303221 L-90.04760785321845,-227.8517683054336" stroke="#0d6d4d" stroke-width="0.1" fill="none" />
<path d="M239.2577872885001,52.73244941979114 L-38.26319686640603,-241.99365232493733" stroke="#0d6d4d" stroke-width="0.1" fill="none" />
<path d="M238.69342819854594,55.23085491666406 L15.358114092760237,-244.51815542309689" stroke="#0d6d4d" stroke-width="0.1" fill="none" />
<path d="M238.10298071733592,57.72322386630845 L68.24212859834223,-235.3040838667432" stroke="#0d6d4d" stroke-width="0.1" fill="none" />
<path d="M237.4865093787997,60.20928386115615 L117.85004558982175,-214.79377727130955" stroke="#0d6d4d" stroke-width="0.1" fill="none" />
<path d="M236.8440815611873,62.688763183186595 L161.80033950705476,-183.97187321816835" stroke="#0d6d4d" stroke-width="0.1" fill="none" />
<path d="M236.17576747970483,65.16139083362468 L197.98309010570387,-144.31803779222037" stroke="#0d6d4d" stroke-width="0.1" fill="none" />
<path d="M235.48164017884025,67.62689656256012 L224.66127332564173,-97.73593130318703" stroke="#0d6d4d" stroke-width="0.1" fill="none" />
<path d="M234.76177552437983,70.08501089848457 L240.55415054509956,-46.46181933077499" stroke="#0d6d4d" stroke-width="0.1" fill="none" />
<path d="M234.0162521951162,72.53546517774433 L244.89875295551258,7.04278359988554" stroke="#0d6d4d" stroke-width="0.1" fill="none" />
<path d="M233.24515167424929,74.97799157390416 L237.4865093787997,60.20928386115615" stroke="#0d6d4d" stroke-width="0.1" fill="none" />
<path d="M232.4485582404801,77.41232312701983 L218.6732591367165,110.4853191085876" stroke="#0d6d4d" stroke-width="0.1" fill="none" />
<path d="M231.62655895879965,79.838193772816 L189.36216928480783,155.4572894519642" stroke="#0d6d4d" stroke-width="0.1" fill="none" />
<path d="M230.77924367097285,82.25533837176613 L150.96037630272042,192.96622706199406" stroke="#0d6d4d" stroke-width="0.1" fill="none" />
<path d="M229.90670498571927,84.66349273807131 L105.31143374175343,221.2114416644317" stroke="#0d6d4d" stroke-width="0.1" fill="none" />
<path d="M229.00903826859113,87.06239366853498 L54.60680881310163,238.836966215972" stroke="#0d6d4d" stroke-width="0.1" fill="none" />
<path d="M228.08634163155045,89.45177897132992 L1.2806766970257693,244.99665276733415" stroke="#0d6d4d" stroke-width="0.1" fill="none" />
<path d="M227.1387159222453,91.83138749465535 L-52.106936821076545,239.39479345868057" stroke="#0d6d4d" stroke-width="0.1" fill="none" />
<path d="M226.16626471298804,94.20095915527943 L-102.99305442026106,222.30031655664627" stroke="#0d6d4d" stroke-width="0.1" fill="none" />
<path d="M225.16909428943467,96.56023496696598 L-148.93478800789183,194.53387602431695" stroke="#0d6d4d" stroke-width="0.1" fill="none" />
<path d="M224.1473136389686,98.90895706878045 L-187.72661436405477,157.42845441472602" stroke="#0d6d4d" stroke-width="0.1" fill="none" />
<path d="M223.10103443878833,101.24686875327346 L-217.50625561871297,112.76537042340209" stroke="#0d6d4d" stroke-width="0.1" fill="none" />
<path d="M222.0303710437019,103.57371449453795 L-236.84408156118727,62.688763183186744" stroke="#0d6d4d" stroke-width="0.1" fill="none" />
<path d="M220.9354404736279,105.88923997613743 L-244.81174184837545,9.602658650831158" stroke="#0d6d4d" stroke-width="0.1" fill="none" />
<path d="M219.81636240080593,108.19319211890158 L-241.02673328765718,-43.944440384200696" stroke="#0d6d4d" stroke-width="0.1" fill="none" />
<path d="M218.6732591367165,110.4853191085876 L-225.6707626544705,-95.38190018525334" stroke="#0d6d4d" stroke-width="0.1" fill="none" />
<path d="M217.5062556187131,112.76537042340185 L-199.4810235014097,-142.24036439362078" stroke="#0d6d4d" stroke-width="0.1" fill="none" />
<path d="M216.31547939636667,115.03309686138184 L-163.7148057327705,-182.27030033409508" stroke="#0d6d4d" stroke-width="0.1" fill="none" />
<path d="M215.10106061752518,117.28825056763253 L-120.08913693147494,-213.54999225252493" stroke="#0d6d4d" stroke-width="0.1" fill="none" />
<path d="M213.86313201408868,119.53058506141633 L-70.69835307511535,-234.57779705774868" stroke="#0d6d4d" stroke-width="0.1" fill="none" />
<path d="M212.60182888750217,121.75985526309256 L-17.913555820906538,-244.3442336496838" stroke="#0d6d4d" stroke-width="0.1" fill="none" />
<path d="M211.31728909396762,123.9758175209041 L35.731216889798,-242.38044504368378" stroke="#0d6d4d" stroke-width="0.1" fill="none" />
<path d="M210.00965302937692,126.17822963760713 L87.66064230356368,-228.78070677163026" stroke="#0d6d4d" stroke-width="0.1" fill="none" />
<path d="M208.67906361396672,128.3668508969431 L135.38174628548137,-204.19790099972514" stroke="#0d6d4d" stroke-width="0.1" fill="none" />
<path d="M207.32566627669823,130.54144208994765 L176.60358344248513,-169.81217363685442" stroke="#0d6d4d" stroke-width="0.1" fill="none" />
<path d="M205.94960893936167,132.70176554109594 L209.34721845982745,-127.2742791106407" stroke="#0d6d4d" stroke-width="0.1" fill="none" />
<path d="M204.55104200040964,134.84758513427911 L232.0407287804855,-78.6263326565672" stroke="#0d6d4d" stroke-width="0.1" fill="none" />
<path d="M203.13011831851838,136.9786663386117 L243.59466783714367,-26.203774562296026" stroke="#0d6d4d" stroke-width="0.1" fill="none" />
<path d="M201.68699319588146,139.09477623406448 L243.45436607597853,27.47674723367787" stroke="#0d6d4d" stroke-width="0.1" fill="none" />
<path d="M200.2218243612353,141.19568353692202 L231.62655895879965,79.838193772816" stroke="#0d6d4d" stroke-width="0.1" fill="none" />
<path d="M198.73477195262015,143.28115862506164 L208.67906361396672,128.3668508969431" stroke="#0d6d4d" stroke-width="0.1" fill="none" />
<path d="M197.22599849987753,145.35097356304945 L175.71351965909165,170.73300503714572" stroke="#0d6d4d" stroke-width="0.1" fill="none" />
<path d="M195.69566890688617,147.40490212705404 L134.31250282590818,204.90278569272894" stroke="#0d6d4d" stroke-width="0.1" fill="none" />
<path d="M194.1439504335388,149.44271982957088 L86.46355030169873,229.23580538219943" stroke="#0d6d4d" stroke-width="0.1" fill="none" />
<path d="M192.57101267746086,151.464203943959 L34.46374510008969,242.56390966851612" stroke="#0d6d4d" stroke-width="0.1" fill="none" />
<path d="M190.97702755547442,153.46913352878346 L-19.190559923961892,244.2472567088622" stroke="#0d6d4d" stroke-width="0.1" fill="none" />
<path d="M189.36216928480783,155.4572894519642 L-71.92358439958326,234.2050341199267" stroke="#0d6d4d" stroke-width="0.1" fill="none" />
<path d="M187.72661436405485,157.4284544147259 L-121.20377583941715,212.91933853520285" stroke="#0d6d4d" stroke-width="0.1" fill="none" />
<path d="M186.0705415538835,159.38241297534842 L-164.66534179257494,181.41203160853053" stroke="#0d6d4d" stroke-width="0.1" fill="none" />
<path d="M184.39413185749837,161.31895157271356 L-200.2218243612352,141.1956835369222" stroke="#0d6d4d" stroke-width="0.1" fill="none" />
<path d="M182.69756850085756,163.2378585496467 L-226.166264712988,94.20095915527948" stroke="#0d6d4d" stroke-width="0.1" fill="none" />
<path d="M180.98103691264666,165.13892417605012 L-241.25314899463214,42.68393257624956" stroke="#0d6d4d" stroke-width="0.1" fill="none" />
<path d="M179.24472470401182,167.02194067182617 L-244.75820167277172,-10.882220081895587" stroke="#0d6d4d" stroke-width="0.1" fill="none" />
<path d="M177.48882164805497,168.88670222958623 L-236.5131558043686,-63.92595037587214" stroke="#0d6d4d" stroke-width="0.1" fill="none" />
<path d="M175.71351965909165,170.73300503714572 L-216.91383102207402,-113.90078977481723" stroke="#0d6d4d" stroke-width="0.1" fill="none" />
<path d="M173.919012771676,172.56064729979894 L-186.90113143477504,-158.40759788722556" stroke="#0d6d4d" stroke-width="0.1" fill="none" />
<path d="M172.10549711939285,174.36942926237575 L-147.91587567648796,-195.30973791098526" stroke="#0d6d4d" stroke-width="0.1" fill="none" />
<path d="M170.2731709134217,176.15915323107308 L-101.82962757588713,-222.83565008264753" stroke="#0d6d4d" stroke-width="0.1" fill="none" />
<path d="M168.422234420872,177.9296235950631 L-50.85484805612626,-239.6638988858946" stroke="#0d6d4d" stroke-width="0.1" fill="none" />
<path d="M166.5528899428956,179.68064684787203 L2.5613184003953133,-244.9866111607975" stroke="#0d6d4d" stroke-width="0.1" fill="none" />
<path d="M164.6653417925749,181.41203160853053 L55.85452373280314,-238.54825964274343" stroke="#0d6d4d" stroke-width="0.1" fill="none" />
<path d="M162.75979627259326,183.1235886424901 L106.4663228706677,-220.65793005101526" stroke="#0d6d4d" stroke-width="0.1" fill="none" />
<path d="M160.83646165268567,184.81513088230673 L151.9669969182651,-192.17448282132568" stroke="#0d6d4d" stroke-width="0.1" fill="none" />
<path d="M158.8955481468764,186.486473448086 L190.17219658580862,-154.4653218225002" stroke="#0d6d4d" stroke-width="0.1" fill="none" />
<path d="M156.9372678905027,188.13743366769035 L219.2478061704703,-109.34074944610485" stroke="#0d6d4d" stroke-width="0.1" fill="none" />
<path d="M154.96183491702982,189.76783109670404 L237.79799388567193,-58.967059481967844" stroke="#0d6d4d" stroke-width="0.1" fill="none" />
<path d="M152.96946513465704,191.37748753815572 L244.9322215095242,-5.762539926921846" stroke="#0d6d4d" stroke-width="0.1" fill="none" />
<path d="M150.96037630272042,192.96622706199406 L240.3079964225324,47.718621683658846" stroke="#0d6d4d" stroke-width="0.1" fill="none" />
<path d="M148.93478800789177,194.533876024317 L224.1473136389686,98.90895706878045" stroke="#0d6d4d" stroke-width="0.1" fill="none" />
<path d="M146.8929216401792,196.08026308634987 L197.22599849987753,145.35097356304945" stroke="#0d6d4d" stroke-width="0.1" fill="none" />
<path d="M144.83500036872914,197.60521923317265 L160.83646165268567,184.81513088230673" stroke="#0d6d4d" stroke-width="0.1" fill="none" />
<path d="M142.76124911743565,199.10857779219225 L116.72565433782269,215.4068745871569" stroke="#0d6d4d" stroke-width="0.1" fill="none" />
<path d="M140.67189454035616,200.5901744513597 L67.0112025607702,235.65758789260198" stroke="#0d6d4d" stroke-width="0.1" fill="none" />
<path d="M138.56716499693954,202.04984727712846 L14.079746293448968,244.59509550338925" stroke="#0d6d4d" stroke-width="0.1" fill="none" />
<path d="M136.4472905270666,203.48743673215375 L-39.52763586860285,241.79033479988223" stroke="#0d6d4d" stroke-width="0.1" fill="none" />
<path d="M134.31250282590818,204.90278569272894 L-91.23741617873017,227.37795383244435" stroke="#0d6d4d" stroke-width="0.1" fill="none" />
<path d="M132.16303521860095,206.29573946595903 L-138.56716499693948,202.0498472771285" stroke="#0d6d4d" stroke-width="0.1" fill="none" />
<path d="M129.9991226347464,207.66614580666769 L-179.24472470401176,167.02194067182623" stroke="#0d6d4d" stroke-width="0.1" fill="none" />
<path d="M127.82100158273326,209.01385493403757 L-211.31728909396762,123.97581752090407" stroke="#0d6d4d" stroke-width="0.1" fill="none" />
<path d="M125.62891012388843,210.33871954798042 L-233.24515167424926,74.9779915739043" stroke="#0d6d4d" stroke-width="0.1" fill="none" />
<path d="M123.4230878464571,211.64059484523693 L-243.97562230220802,22.3806997712389" stroke="#0d6d4d" stroke-width="0.1" fill="none" />
<path d="M121.20377583941719,212.91933853520285 L-242.99356364447735,-31.29102151348418" stroke="#0d6d4d" stroke-width="0.1" fill="none" />
<path d="M118.97121666612884,214.17481085548093 L-230.34612135716992,-83.46055580756666" stroke="#0d6d4d" stroke-width="0.1" fill="none" />
<path d="M116.72565433782269,215.4068745871569 L-206.64046076599064,-131.62340207736267" stroke="#0d6d4d" stroke-width="0.1" fill="none" />
<path d="M114.46733428693096,216.61539506979645 L-173.0146187013849,-173.46740822302723" stroke="#0d6d4d" stroke-width="0.1" fill="none" />
<path d="M112.19650334026214,217.80024021616356 L-131.08286980366861,-206.98377048463115" stroke="#0d6d4d" stroke-width="0.1" fill="none" />
<path d="M109.9134096920234,218.96128052665708 L-82.85823009604196,-230.56347001498602" stroke="#0d6d4d" stroke-width="0.1" fill="none" />
<path d="M107.61830287669441,220.0983891034645 L-30.655818193789575,-243.07451699194905" stroke="#0d6d4d" stroke-width="0.1" fill="none" />
<path d="M105.31143374175343,221.2114416644317 L23.018286515241872,-243.91629401477513" stroke="#0d6d4d" stroke-width="0.1" fill="none" />
<path d="M102.9930544202611,222.30031655664627 L75.58735313738507,-233.0483899229605" stroke="#0d6d4d" stroke-width="0.1" fill="none" />
<path d="M100.6634183033025,223.364894769734 L124.52770030430031,-210.99253981343122" stroke="#0d6d4d" stroke-width="0.1" fill="none" />
<path d="M98.3227800122931,224.40505994886615 L167.48985045738843,-178.8075781217386" stroke="#0d6d4d" stroke-width="0.1" fill="none" />
<path d="M95.97139537114869,225.42069840747692 L202.41132113591846,-138.0386071938285" stroke="#0d6d4d" stroke-width="0.1" fill="none" />
<path d="M93.60952137832541,226.41169913968852 L227.61563850138953,-90.64282161100662" stroke="#0d6d4d" stroke-width="0.1" fill="none" />
<path d="M91.23741617873033,227.3779538324443 L241.89281975927784,-38.89554921717305" stroke="#0d6d4d" stroke-width="0.1" fill="none" />
<path d="M88.85533903550683,228.31935687734654 L244.557460761324,14.718980466509052" stroke="#0d6d4d" stroke-width="0.1" fill="none" />
<path d="M86.46355030169873,229.23580538219943 L235.48164017884025,67.62689656256012" stroke="#0d6d4d" stroke-width="0.1" fill="none" />
<path d="M84.06231139179366,230.12719918225466 L215.10106061752518,117.28825056763253" stroke="#0d6d4d" stroke-width="0.1" fill="none" />
<path d="M81.65188475315225,230.9934408511591 L184.39413185749837,161.31895157271356" stroke="#0d6d4d" stroke-width="0.1" fill="none" />
<path d="M79.23253383732266,231.8344357116033 L144.83500036872914,197.60521923317265" stroke="#0d6d4d" stroke-width="0.1" fill="none" />
<path d="M76.80452307124702,232.65009184566915 L98.3227800122931,224.40505994886615" stroke="#0d6d4d" stroke-width="0.1" fill="none" />
<path d="M74.36811782835963,233.44032010487652 L47.09038134673932,240.4318946908223" stroke="#0d6d4d" stroke-width="0.1" fill="none" />
<path d="M71.9235843995833,234.20503411992667 L-6.402683632085707,244.9163237563136" stroke="#0d6d4d" stroke-width="0.1" fill="none" />
<path d="M69.4711899642242,234.94415031014216 L-59.588375198599316,237.64306331385092" stroke="#0d6d4d" stroke-width="0.1" fill="none" />
<path d="M67.0112025607702,235.65758789260198 L-109.91340969202344,218.96128052665705" stroke="#0d6d4d" stroke-width="0.1" fill="none" />
<path d="M64.54389105759485,236.34526889097089 L-154.9618349170297,189.76783109670416" stroke="#0d6d4d" stroke-width="0.1" fill="none" />
<path d="M62.069525123571665,237.00711814402177 L-192.57101267746089,151.46420394395898" stroke="#0d6d4d" stroke-width="0.1" fill="none" />
<path d="M59.588375198599365,237.6430633138509 L-220.93544047362786,105.88923997613747" stroke="#0d6d4d" stroke-width="0.1" fill="none" />
<path d="M57.10071246404454,238.25303489378368 L-238.69342819854594,55.230854916664065" stroke="#0d6d4d" stroke-width="0.1" fill="none" />
<path d="M54.60680881310163,238.836966215972 L-244.992468747938,1.9210041099950255" stroke="#0d6d4d" stroke-width="0.1" fill="none" />
<path d="M52.1069368210767,239.39479345868054 L-239.5301642993893,-51.481068274731626" stroke="#0d6d4d" stroke-width="0.1" fill="none" />
<path d="M49.601369715595084,239.9264556532623 L-222.56874351417852,-102.41169079025997" stroke="#0d6d4d" stroke-width="0.1" fill="none" />
<path d="M47.09038134673932,240.4318946908223 L-194.92247273497995,-148.42583879797004" stroke="#0d6d4d" stroke-width="0.1" fill="none" />
<path d="M44.57424615711735,240.91105532856875 L-157.9185655296328,-187.31451268138056" stroke="#0d6d4d" stroke-width="0.1" fill="none" />
<path d="M42.05323915186808,241.36388519585068 L-113.33346719516196,-217.21078521455408" stroke="#0d6d4d" stroke-width="0.1" fill="none" />
<path d="M39.5276358686028,241.79033479988226 L-63.30757300967058,-236.67942707304584" stroke="#0d6d4d" stroke-width="0.1" fill="none" />
<path d="M36.997712347291106,242.19035753115173 L-10.24247435004035,-244.7858078385852" stroke="#0d6d4d" stroke-width="0.1" fill="none" />
<path d="M34.46374510008969,242.56390966851612 L43.31433442247265,-241.14076476933178" stroke="#0d6d4d" stroke-width="0.1" fill="none" />
<path d="M31.926011081121352,242.91095038397944 L94.79175343618012,-225.91928532220183" stroke="#0d6d4d" stroke-width="0.1" fill="none" />
<path d="M29.384787656203997,243.23144174715532 L141.71850801183214,-199.85210653605898" stroke="#0d6d4d" stroke-width="0.1" fill="none" />
<path d="M26.840352572536315,243.52534872941243 L181.84178706091402,-164.19063456389105" stroke="#0d6d4d" stroke-width="0.1" fill="none" />
<path d="M24.2929839283401,243.79263920770336 L213.23539370987845,-120.64686846078156" stroke="#0d6d4d" stroke-width="0.1" fill="none" />
<path d="M21.74296014246591,244.033283968075 L234.39221616702386,-71.31121230431555" stroke="#0d6d4d" stroke-width="0.1" fill="none" />
<path d="M19.190559923961953,244.24725670886218 L244.29657958630136,-18.552121238120268" stroke="#0d6d4d" stroke-width="0.1" fill="none" />
<path d="M16.636062241612873,244.4345340435618 L242.47300553462114,35.09760087253234" stroke="#0d6d4d" stroke-width="0.1" fill="none" />
<path d="M14.079746293448968,244.59509550338925 L229.00903826859113,87.06239366853498" stroke="#0d6d4d" stroke-width="0.1" fill="none" />
<path d="M11.521891476231012,244.72892353951536 L204.55104200040964,134.84758513427911" stroke="#0d6d4d" stroke-width="0.1" fill="none" />
<path d="M8.962777354912673,244.8360035249846 L170.2731709134217,176.15915323107308" stroke="#0d6d4d" stroke-width="0.1" fill="none" />
<path d="M6.4026836320857665,244.9163237563136 L127.82100158273326,209.01385493403757" stroke="#0d6d4d" stroke-width="0.1" fill="none" />
<path d="M3.8418901174088385,244.96987545477046 L79.23253383732266,231.8344357116033" stroke="#0d6d4d" stroke-width="0.1" fill="none" />
<path d="M1.2806766970257693,244.99665276733415 L26.840352572536315,243.52534872941243" stroke="#0d6d4d" stroke-width="0.1" fill="none" />
<path d="M-1.2806766970257095,244.99665276733415 L-26.840352572536144,243.52534872941246" stroke="#0d6d4d" stroke-width="0.1" fill="none" />
<path d="M-3.841890117408779,244.96987545477046 L-79.2325338373227,231.83443571160328" stroke="#0d6d4d" stroke-width="0.1" fill="none" />
<path d="M-6.402683632085707,244.9163237563136 L-127.8210015827332,209.0138549340376" stroke="#0d6d4d" stroke-width="0.1" fill="none" />
<path d="M-8.96277735491261,244.8360035249846 L-170.27317091342167,176.15915323107313" stroke="#0d6d4d" stroke-width="0.1" fill="none" />
<path d="M-11.521891476230952,244.72892353951536 L-204.5510420004096,134.84758513427917" stroke="#0d6d4d" stroke-width="0.1" fill="none" />
<path d="M-14.079746293449016,244.59509550338925 L-229.00903826859115,87.06239366853492" stroke="#0d6d4d" stroke-width="0.1" fill="none" />
<path d="M-16.636062241612812,244.43453404356183 L-242.47300553462114,35.09760087253245" stroke="#0d6d4d" stroke-width="0.1" fill="none" />
<path d="M-19.190559923961892,244.2472567088622 L-244.2965795863014,-18.552121238120048" stroke="#0d6d4d" stroke-width="0.1" fill="none" />
<path d="M-21.742960142465744,244.03328396807504 L-234.3922161670239,-71.31121230431543" stroke="#0d6d4d" stroke-width="0.1" fill="none" />
<path d="M-24.29298392834004,243.79263920770336 L-213.23539370987848,-120.64686846078149" stroke="#0d6d4d" stroke-width="0.1" fill="none" />
<path d="M-26.840352572536144,243.52534872941246 L-181.84178706091402,-164.19063456389105" stroke="#0d6d4d" stroke-width="0.1" fill="none" />
<path d="M-29.384787656203937,243.23144174715532 L-141.71850801183223,-199.8521065360589" stroke="#0d6d4d" stroke-width="0.1" fill="none" />
<path d="M-31.9260110811213,242.91095038397944 L-94.79175343618016,-225.9192853222018" stroke="#0d6d4d" stroke-width="0.1" fill="none" />
<path d="M-34.46374510008963,242.56390966851612 L-43.314334422472825,-241.14076476933175" stroke="#0d6d4d" stroke-width="0.1" fill="none" />
<path d="M-36.99771234729105,242.19035753115176 L10.24247435004011,-244.7858078385852" stroke="#0d6d4d" stroke-width="0.1" fill="none" />
<path d="M-39.52763586860285,241.79033479988223 L63.307573009670485,-236.67942707304587" stroke="#0d6d4d" stroke-width="0.1" fill="none" />
<path d="M-42.05323915186803,241.36388519585068 L113.33346719516197,-217.21078521455408" stroke="#0d6d4d" stroke-width="0.1" fill="none" />
<path d="M-44.57424615711741,240.91105532856875 L157.91856552963273,-187.3145126813806" stroke="#0d6d4d" stroke-width="0.1" fill="none" />
<path d="M-47.09038134673916,240.43189469082233 L194.92247273497998,-148.42583879797" stroke="#0d6d4d" stroke-width="0.1" fill="none" />
<path d="M-49.60136971559503,239.92645565326234 L222.56874351417852,-102.41169079025997" stroke="#0d6d4d" stroke-width="0.1" fill="none" />
<path d="M-52.106936821076545,239.39479345868057 L239.53016429938927,-51.48106827473169" stroke="#0d6d4d" stroke-width="0.1" fill="none" />
<path d="M-54.60680881310158,238.83696621597204 L244.992468747938,1.9210041099948567" stroke="#0d6d4d" stroke-width="0.1" fill="none" />
<path d="M-57.100712464044385,238.25303489378373 L238.69342819854594,55.23085491666406" stroke="#0d6d4d" stroke-width="0.1" fill="none" />
<path d="M-59.588375198599316,237.64306331385092 L220.9354404736279,105.88923997613743" stroke="#0d6d4d" stroke-width="0.1" fill="none" />
<path d="M-62.069525123571516,237.00711814402183 L192.57101267746086,151.464203943959" stroke="#0d6d4d" stroke-width="0.1" fill="none" />
<path d="M-64.54389105759479,236.34526889097089 L154.96183491702982,189.76783109670404" stroke="#0d6d4d" stroke-width="0.1" fill="none" />
<path d="M-67.01120256077014,235.65758789260198 L109.9134096920234,218.96128052665708" stroke="#0d6d4d" stroke-width="0.1" fill="none" />
<path d="M-69.47118996422414,234.9441503101422 L59.588375198599365,237.6430633138509" stroke="#0d6d4d" stroke-width="0.1" fill="none" />
<path d="M-71.92358439958326,234.2050341199267 L6.4026836320857665,244.9163237563136" stroke="#0d6d4d" stroke-width="0.1" fill="none" />
<path d="M-74.36811782835949,233.44032010487658 L-47.09038134673916,240.43189469082233" stroke="#0d6d4d" stroke-width="0.1" fill="none" />
<path d="M-76.80452307124686,232.6500918456692 L-98.32278001229305,224.40505994886618" stroke="#0d6d4d" stroke-width="0.1" fill="none" />
<path d="M-79.2325338373227,231.83443571160328 L-144.83500036872903,197.60521923317273" stroke="#0d6d4d" stroke-width="0.1" fill="none" />
<path d="M-81.6518847531521,230.99344085115916 L-184.3941318574983,161.31895157271364" stroke="#0d6d4d" stroke-width="0.1" fill="none" />
<path d="M-84.06231139179371,230.12719918225466 L-215.10106061752515,117.28825056763257" stroke="#0d6d4d" stroke-width="0.1" fill="none" />
<path d="M-86.46355030169858,229.2358053821995 L-235.48164017884025,67.62689656256012" stroke="#0d6d4d" stroke-width="0.1" fill="none" />
<path d="M-88.85533903550689,228.31935687734654 L-244.55746076132397,14.71898046650922" stroke="#0d6d4d" stroke-width="0.1" fill="none" />
<path d="M-91.23741617873017,227.37795383244435 L-241.89281975927784,-38.89554921717293" stroke="#0d6d4d" stroke-width="0.1" fill="none" />
<path d="M-93.60952137832544,226.41169913968852 L-227.61563850138958,-90.64282161100643" stroke="#0d6d4d" stroke-width="0.1" fill="none" />
<path d="M-95.97139537114855,225.42069840747698 L-202.41132113591843,-138.03860719382857" stroke="#0d6d4d" stroke-width="0.1" fill="none" />
<path d="M-98.32278001229305,224.40505994886618 L-167.48985045738848,-178.80757812173857" stroke="#0d6d4d" stroke-width="0.1" fill="none" />
<path d="M-100.66341830330236,223.36489476973406 L-124.52770030430031,-210.99253981343125" stroke="#0d6d4d" stroke-width="0.1" fill="none" />
<path d="M-102.99305442026106,222.30031655664627 L-75.58735313738518,-233.04838992296047" stroke="#0d6d4d" stroke-width="0.1" fill="none" />
<path d="M-105.31143374175349,221.2114416644317 L-23.018286515241904,-243.91629401477513" stroke="#0d6d4d" stroke-width="0.1" fill="none" />
<path d="M-107.61830287669437,220.09838910346454 L30.65581819378941,-243.07451699194905" stroke="#0d6d4d" stroke-width="0.1" fill="none" />
<path d="M-109.91340969202344,218.96128052665705 L82.85823009604194,-230.56347001498602" stroke="#0d6d4d" stroke-width="0.1" fill="none" />
<path d="M-112.19650334026208,217.80024021616356 L131.0828698036685,-206.9837704846312" stroke="#0d6d4d" stroke-width="0.1" fill="none" />
<path d="M-114.467334286931,216.61539506979642 L173.01461870138493,-173.46740822302723" stroke="#0d6d4d" stroke-width="0.1" fill="none" />
<path d="M-116.72565433782265,215.40687458715692 L206.64046076599058,-131.62340207736275" stroke="#0d6d4d" stroke-width="0.1" fill="none" />
<path d="M-118.97121666612878,214.17481085548096 L230.34612135716995,-83.46055580756656" stroke="#0d6d4d" stroke-width="0.1" fill="none" />
<path d="M-121.20377583941715,212.91933853520285 L242.99356364447735,-31.291021513484186" stroke="#0d6d4d" stroke-width="0.1" fill="none" />
<path d="M-123.42308784645704,211.64059484523696 L243.97562230220802,22.38069977123884" stroke="#0d6d4d" stroke-width="0.1" fill="none" />
<path d="M-125.62891012388826,210.3387195479805 L233.24515167424929,74.97799157390416" stroke="#0d6d4d" stroke-width="0.1" fill="none" />
<path d="M-127.8210015827332,209.0138549340376 L211.31728909396762,123.9758175209041" stroke="#0d6d4d" stroke-width="0.1" fill="none" />
<path d="M-129.99912263474639,207.6661458066677 L179.24472470401182,167.02194067182617" stroke="#0d6d4d" stroke-width="0.1" fill="none" />
<path d="M-132.1630352186009,206.29573946595906 L138.56716499693954,202.04984727712846" stroke="#0d6d4d" stroke-width="0.1" fill="none" />
<path d="M-134.31250282590815,204.902785692729 L91.23741617873033,227.3779538324443" stroke="#0d6d4d" stroke-width="0.1" fill="none" />
<path d="M-136.44729052706654,203.48743673215378 L39.5276358686028,241.79033479988226" stroke="#0d6d4d" stroke-width="0.1" fill="none" />
<path d="M-138.56716499693948,202.0498472771285 L-14.079746293449016,244.59509550338925" stroke="#0d6d4d" stroke-width="0.1" fill="none" />
<path d="M-140.6718945403561,200.59017445135973 L-67.01120256077014,235.65758789260198" stroke="#0d6d4d" stroke-width="0.1" fill="none" />
<path d="M-142.7612491174356,199.1085777921923 L-116.72565433782265,215.40687458715692" stroke="#0d6d4d" stroke-width="0.1" fill="none" />
<path d="M-144.83500036872903,197.60521923317273 L-160.83646165268573,184.8151308823067" stroke="#0d6d4d" stroke-width="0.1" fill="none" />
<path d="M-146.89292164017905,196.08026308634996 L-197.2259984998775,145.35097356304954" stroke="#0d6d4d" stroke-width="0.1" fill="none" />
<path d="M-148.93478800789183,194.53387602431695 L-224.1473136389686,98.9089570687804" stroke="#0d6d4d" stroke-width="0.1" fill="none" />
<path d="M-150.9603763027203,192.96622706199418 L-240.3079964225324,47.71862168365891" stroke="#0d6d4d" stroke-width="0.1" fill="none" />
<path d="M-152.96946513465707,191.3774875381557 L-244.9322215095242,-5.76253992692184" stroke="#0d6d4d" stroke-width="0.1" fill="none" />
<path d="M-154.9618349170297,189.76783109670416 L-237.79799388567196,-58.96705948196772" stroke="#0d6d4d" stroke-width="0.1" fill="none" />
<path d="M-156.93726789050277,188.13743366769032 L-219.24780617047034,-109.34074944610481" stroke="#0d6d4d" stroke-width="0.1" fill="none" />
<path d="M-158.89554814687628,186.48647344808612 L-190.17219658580862,-154.4653218225002" stroke="#0d6d4d" stroke-width="0.1" fill="none" />
<path d="M-160.83646165268573,184.8151308823067 L-151.966996918265,-192.17448282132577" stroke="#0d6d4d" stroke-width="0.1" fill="none" />
<path d="M-162.75979627259323,183.12358864249012 L-106.46632287066774,-220.65793005101526" stroke="#0d6d4d" stroke-width="0.1" fill="none" />
<path d="M-164.66534179257494,181.41203160853053 L-55.854523732803116,-238.54825964274343" stroke="#0d6d4d" stroke-width="0.1" fill="none" />
<path d="M-166.5528899428955,179.68064684787214 L-2.5613184003954186,-244.9866111607975" stroke="#0d6d4d" stroke-width="0.1" fill="none" />
<path d="M-168.42223442087197,177.92962359506313 L50.85484805612616,-239.66389888589464" stroke="#0d6d4d" stroke-width="0.1" fill="none" />
<path d="M-170.27317091342167,176.15915323107313 L101.82962757588697,-222.8356500826476" stroke="#0d6d4d" stroke-width="0.1" fill="none" />
<path d="M-172.1054971193928,174.36942926237577 L147.91587567648793,-195.3097379109853" stroke="#0d6d4d" stroke-width="0.1" fill="none" />
<path d="M-173.91901277167594,172.560647299799 L186.90113143477495,-158.40759788722565" stroke="#0d6d4d" stroke-width="0.1" fill="none" />
<path d="M-175.7135196590916,170.73300503714574 L216.91383102207405,-113.90078977481718" stroke="#0d6d4d" stroke-width="0.1" fill="none" />
<path d="M-177.4888216480549,168.88670222958632 L236.51315580436858,-63.9259503758722" stroke="#0d6d4d" stroke-width="0.1" fill="none" />
<path d="M-179.24472470401176,167.02194067182623 L244.75820167277172,-10.882220081895538" stroke="#0d6d4d" stroke-width="0.1" fill="none" />
<path d="M-180.9810369126466,165.1389241760502 L241.25314899463217,42.68393257624939" stroke="#0d6d4d" stroke-width="0.1" fill="none" />
<path d="M-182.6975685008575,163.23785854964677 L226.16626471298804,94.20095915527943" stroke="#0d6d4d" stroke-width="0.1" fill="none" />
<path d="M-184.3941318574983,161.31895157271364 L200.2218243612353,141.19568353692202" stroke="#0d6d4d" stroke-width="0.1" fill="none" />
<path d="M-186.07054155388337,159.3824129753486 L164.6653417925749,181.41203160853053" stroke="#0d6d4d" stroke-width="0.1" fill="none" />
<path d="M-187.72661436405477,157.42845441472602 L121.20377583941719,212.91933853520285" stroke="#0d6d4d" stroke-width="0.1" fill="none" />
<path d="M-189.36216928480778,155.45728945196424 L71.9235843995833,234.20503411992667" stroke="#0d6d4d" stroke-width="0.1" fill="none" />
<path d="M-190.97702755547436,153.46913352878352 L19.190559923961953,244.24725670886218" stroke="#0d6d4d" stroke-width="0.1" fill="none" />
<path d="M-192.57101267746089,151.46420394395898 L-34.46374510008963,242.56390966851612" stroke="#0d6d4d" stroke-width="0.1" fill="none" />
<path d="M-194.1439504335387,149.44271982957105 L-86.46355030169858,229.2358053821995" stroke="#0d6d4d" stroke-width="0.1" fill="none" />
<path d="M-195.69566890688614,147.4049021270541 L-134.31250282590815,204.902785692729" stroke="#0d6d4d" stroke-width="0.1" fill="none" />
<path d="M-197.2259984998775,145.35097356304954 L-175.7135196590916,170.73300503714574" stroke="#0d6d4d" stroke-width="0.1" fill="none" />
<path d="M-198.73477195262018,143.2811586250616 L-208.6790636139668,128.36685089694296" stroke="#0d6d4d" stroke-width="0.1" fill="none" />
<path d="M-200.2218243612352,141.1956835369222 L-231.62655895879962,79.83819377281606" stroke="#0d6d4d" stroke-width="0.1" fill="none" />
<path d="M-201.6869931958814,139.09477623406454 L-243.45436607597856,27.476747233677816" stroke="#0d6d4d" stroke-width="0.1" fill="none" />
<path d="M-203.13011831851836,136.9786663386118 L-243.5946678371437,-26.203774562295916" stroke="#0d6d4d" stroke-width="0.1" fill="none" />
<path d="M-204.5510420004096,134.84758513427917 L-232.0407287804855,-78.6263326565672" stroke="#0d6d4d" stroke-width="0.1" fill="none" />
<path d="M-205.9496089393617,132.7017655410959 L-209.34721845982756,-127.27427911064053" stroke="#0d6d4d" stroke-width="0.1" fill="none" />
<path d="M-207.32566627669812,130.54144208994782 L-176.6035834424852,-169.81217363685434" stroke="#0d6d4d" stroke-width="0.1" fill="none" />
<path d="M-208.6790636139668,128.36685089694296 L-135.38174628548137,-204.19790099972516" stroke="#0d6d4d" stroke-width="0.1" fill="none" />
<path d="M-210.00965302937686,126.17822963760717 L-87.66064230356359,-228.7807067716303" stroke="#0d6d4d" stroke-width="0.1" fill="none" />
<path d="M-211.31728909396762,123.97581752090407 L-35.731216889798034,-242.38044504368378" stroke="#0d6d4d" stroke-width="0.1" fill="none" />
<path d="M-212.60182888750208,121.75985526309272 L17.913555820906595,-244.3442336496838" stroke="#0d6d4d" stroke-width="0.1" fill="none" />
<path d="M-213.86313201408873,119.5305850614162 L70.69835307511534,-234.57779705774868" stroke="#0d6d4d" stroke-width="0.1" fill="none" />
<path d="M-215.10106061752515,117.28825056763257 L120.08913693147484,-213.549992252525" stroke="#0d6d4d" stroke-width="0.1" fill="none" />
<path d="M-216.31547939636664,115.03309686138189 L163.71480573277034,-182.2703003340952" stroke="#0d6d4d" stroke-width="0.1" fill="none" />
<path d="M-217.50625561871297,112.76537042340209 L199.48102350140968,-142.24036439362087" stroke="#0d6d4d" stroke-width="0.1" fill="none" />
<path d="M-218.67325913671652,110.48531910858756 L225.6707626544705,-95.38190018525344" stroke="#0d6d4d" stroke-width="0.1" fill="none" />
<path d="M-219.81636240080596,108.19319211890155 L241.02673328765718,-43.9444403842007" stroke="#0d6d4d" stroke-width="0.1" fill="none" />
<path d="M-220.93544047362786,105.88923997613747 L244.81174184837545,9.602658650831097" stroke="#0d6d4d" stroke-width="0.1" fill="none" />
<path d="M-222.03037104370188,103.57371449453801 L236.8440815611873,62.688763183186595" stroke="#0d6d4d" stroke-width="0.1" fill="none" />
<path d="M-223.10103443878833,101.24686875327346 L217.5062556187131,112.76537042340185" stroke="#0d6d4d" stroke-width="0.1" fill="none" />
<path d="M-224.1473136389686,98.9089570687804 L187.72661436405485,157.4284544147259" stroke="#0d6d4d" stroke-width="0.1" fill="none" />
<path d="M-225.16909428943464,96.56023496696606 L148.93478800789177,194.533876024317" stroke="#0d6d4d" stroke-width="0.1" fill="none" />
<path d="M-226.166264712988,94.20095915527948 L102.9930544202611,222.30031655664627" stroke="#0d6d4d" stroke-width="0.1" fill="none" />
<path d="M-227.1387159222453,91.83138749465535 L52.1069368210767,239.39479345868054" stroke="#0d6d4d" stroke-width="0.1" fill="none" />
<path d="M-228.08634163155045,89.45177897132992 L-1.2806766970257095,244.99665276733415" stroke="#0d6d4d" stroke-width="0.1" fill="none" />
<path d="M-229.00903826859115,87.06239366853492 L-54.60680881310158,238.83696621597204" stroke="#0d6d4d" stroke-width="0.1" fill="none" />
<path d="M-229.9067049857192,84.66349273807145 L-105.31143374175349,221.2114416644317" stroke="#0d6d4d" stroke-width="0.1" fill="none" />
<path d="M-230.7792436709728,82.25533837176623 L-150.9603763027203,192.96622706199418" stroke="#0d6d4d" stroke-width="0.1" fill="none" />
<path d="M-231.62655895879962,79.83819377281606 L-189.36216928480778,155.45728945196424" stroke="#0d6d4d" stroke-width="0.1" fill="none" />
<path d="M-232.4485582404801,77.41232312701983 L-218.67325913671652,110.48531910858756" stroke="#0d6d4d" stroke-width="0.1" fill="none" />
<path d="M-233.24515167424926,74.9779915739043 L-237.48650937879972,60.209283861156045" stroke="#0d6d4d" stroke-width="0.1" fill="none" />
<path d="M-234.01625219511618,72.53546517774444 L-244.89875295551258,7.042783599885546" stroke="#0d6d4d" stroke-width="0.1" fill="none" />
<path d="M-234.7617755243798,70.08501089848463 L-240.5541505450996,-46.46181933077483" stroke="#0d6d4d" stroke-width="0.1" fill="none" />
<path d="M-235.48164017884025,67.62689656256012 L-224.66127332564176,-97.73593130318697" stroke="#0d6d4d" stroke-width="0.1" fill="none" />
<path d="M-236.17576747970477,65.16139083362489 L-197.983090105704,-144.31803779222017" stroke="#0d6d4d" stroke-width="0.1" fill="none" />
<path d="M-236.84408156118727,62.688763183186744 L-161.80033950705487,-183.9718732181683" stroke="#0d6d4d" stroke-width="0.1" fill="none" />
<path d="M-237.48650937879972,60.209283861156045 L-117.85004558982179,-214.79377727130952" stroke="#0d6d4d" stroke-width="0.1" fill="none" />
<path d="M-238.1029807173359,57.723223866308516 L-68.2421285983422,-235.3040838667432" stroke="#0d6d4d" stroke-width="0.1" fill="none" />
<path d="M-238.69342819854594,55.230854916664065 L-15.358114092760353,-244.51815542309686" stroke="#0d6d4d" stroke-width="0.1" fill="none" />
<path d="M-239.25778728850008,52.73244941979131 L38.263196866405934,-241.99365232493736" stroke="#0d6d4d" stroke-width="0.1" fill="none" />
<path d="M-239.7959963046425,50.22828044303211 L90.04760785321851,-227.85176830543358" stroke="#0d6d4d" stroke-width="0.1" fill="none" />
<path d="M-240.3079964225324,47.71862168365891 L137.5091064353619,-202.7714123029879" stroke="#0d6d4d" stroke-width="0.1" fill="none" />
<path d="M-240.79373168227397,45.203747438957436 L178.36921008724394,-167.9566161032445" stroke="#0d6d4d" stroke-width="0.1" fill="none" />
<path d="M-241.25314899463214,42.68393257624956 L210.66634922202215,-125.07873242668002" stroke="#0d6d4d" stroke-width="0.1" fill="none" />
<path d="M-241.68619814683547,40.15945250284908 L232.85003619510917,-76.19619835619328" stroke="#0d6d4d" stroke-width="0.1" fill="none" />
<path d="M-242.09283180806358,37.63058313596313 L243.85529951105374,-23.65571601905696" stroke="#0d6d4d" stroke-width="0.1" fill="none" />
<path d="M-242.47300553462114,35.09760087253245 L243.1538098733942,30.02040546117362" stroke="#0d6d4d" stroke-width="0.1" fill="none" />
<path d="M-242.8266777747946,32.56078255902443 L230.77924367097285,82.25533837176613" stroke="#0d6d4d" stroke-width="0.1" fill="none" />
<path d="M-243.1538098733942,30.020405461173624 L207.32566627669823,130.54144208994765" stroke="#0d6d4d" stroke-width="0.1" fill="none" />
<path d="M-243.45436607597856,27.476747233677816 L173.919012771676,172.56064729979894" stroke="#0d6d4d" stroke-width="0.1" fill="none" />
<path d="M-243.7283135327626,24.930085889851462 L132.16303521860095,206.29573946595903" stroke="#0d6d4d" stroke-width="0.1" fill="none" />
<path d="M-243.97562230220802,22.3806997712389 L84.06231139179366,230.12719918225466" stroke="#0d6d4d" stroke-width="0.1" fill="none" />
<path d="M-244.19626535429566,19.82886751719388 L31.926011081121352,242.91095038397944" stroke="#0d6d4d" stroke-width="0.1" fill="none" />
<path d="M-244.39021857347979,17.27486803442433 L-21.742960142465744,244.03328396807504" stroke="#0d6d4d" stroke-width="0.1" fill="none" />
<path d="M-244.55746076132397,14.71898046650922 L-74.36811782835949,233.44032010487658" stroke="#0d6d4d" stroke-width="0.1" fill="none" />
<path d="M-244.69797363881798,12.161484163388259 L-123.42308784645704,211.64059484523696" stroke="#0d6d4d" stroke-width="0.1" fill="none" />
<path d="M-244.81174184837545,9.602658650831158 L-166.5528899428955,179.68064684787214" stroke="#0d6d4d" stroke-width="0.1" fill="none" />
<path d="M-244.89875295551258,7.042783599885546 L-201.6869931958814,139.09477623406454" stroke="#0d6d4d" stroke-width="0.1" fill="none" />
<path d="M-244.9589974502072,4.482138796310084 L-227.1387159222453,91.83138749465535" stroke="#0d6d4d" stroke-width="0.1" fill="none" />
<path d="M-244.992468747938,1.9210041099950255 L-241.68619814683547,40.15945250284908" stroke="#0d6d4d" stroke-width="0.1" fill="none" />
<path d="M-244.99916319040446,-0.6403405356277007 L-244.63105939220603,-13.44041594025172" stroke="#0d6d4d" stroke-width="0.1" fill="none" />
<path d="M-244.9790800459264,-3.2016151941767963 L-235.83192580611217,-66.3950507988389" stroke="#0d6d4d" stroke-width="0.1" fill="none" />
<path d="M-244.9322215095242,-5.76253992692184 L-215.71121709115923,-116.16226074354257" stroke="#0d6d4d" stroke-width="0.1" fill="none" />
<path d="M-244.85859270267875,-8.32283483337704 L-185.23486741670757,-160.35287304290736" stroke="#0d6d4d" stroke-width="0.1" fill="none" />
<path d="M-244.75820167277172,-10.882220081895587 L-145.8659538505178,-196.84543049631256" stroke="#0d6d4d" stroke-width="0.1" fill="none" />
<path d="M-244.63105939220603,-13.44041594025172 L-99.49445846841607,-223.88803615663932" stroke="#0d6d4d" stroke-width="0.1" fill="none" />
<path d="M-244.47717975720656,-15.99714280621755 L-48.34653604996207,-240.18245658659112" stroke="#0d6d4d" stroke-width="0.1" fill="none" />
<path d="M-244.2965795863014,-18.552121238120048 L5.1223568572787155,-244.94644610654527" stroke="#0d6d4d" stroke-width="0.1" fill="none" />
<path d="M-244.08927861848358,-21.105071985385248 L58.34534095553068,-237.95130003591674" stroke="#0d6d4d" stroke-width="0.1" fill="none" />
<path d="M-243.85529951105374,-23.65571601905701 L108.7673422827306,-219.53283411087128" stroke="#0d6d4d" stroke-width="0.1" fill="none" />
<path d="M-243.5946678371437,-26.203774562295916 L153.96775356010545,-190.57526298986087" stroke="#0d6d4d" stroke-width="0.1" fill="none" />
<path d="M-243.30741208292136,-28.748969120848397 L191.77664020232322,-152.46875179101013" stroke="#0d6d4d" stroke-width="0.1" fill="none" />
<path d="M-242.99356364447735,-31.29102151348418 L220.37891229229484,-107.04267848323407" stroke="#0d6d4d" stroke-width="0.1" fill="none" />
<path d="M-242.65315682439356,-33.82965390240138 L238.40146154022523,-56.47781100117556" stroke="#0d6d4d" stroke-width="0.1" fill="none" />
<path d="M-242.2862288279939,-36.364588823592854 L244.9790800459264,-3.2016151941768562" stroke="#0d6d4d" stroke-width="0.1" fill="none" />
<path d="M-241.89281975927784,-38.89554921717293 L239.79599630464247,50.22828044303221" stroke="#0d6d4d" stroke-width="0.1" fill="none" />
<path d="M-241.47297261653736,-41.42225845765781 L223.10103443878833,101.24686875327346" stroke="#0d6d4d" stroke-width="0.1" fill="none" />
<path d="M-241.02673328765718,-43.944440384200696 L195.69566890688617,147.40490212705404" stroke="#0d6d4d" stroke-width="0.1" fill="none" />
<path d="M-240.5541505450996,-46.46181933077483 L158.8955481468764,186.486473448086" stroke="#0d6d4d" stroke-width="0.1" fill="none" />
<path d="M-240.0552760405735,-48.974120156303655 L114.46733428693096,216.61539506979645" stroke="#0d6d4d" stroke-width="0.1" fill="none" />
<path d="M-239.5301642993893,-51.481068274731626 L64.54389105759485,236.34526889097089" stroke="#0d6d4d" stroke-width="0.1" fill="none" />
<path d="M-238.97887271449935,-53.9823896850363 L11.521891476231012,244.72892353951536" stroke="#0d6d4d" stroke-width="0.1" fill="none" />
<path d="M-238.40146154022523,-56.4778110011756 L-42.05323915186803,241.36388519585068" stroke="#0d6d4d" stroke-width="0.1" fill="none" />
<path d="M-237.79799388567196,-58.96705948196772 L-93.60952137832544,226.41169913968852" stroke="#0d6d4d" stroke-width="0.1" fill="none" />
<path d="M-237.1685357078304,-61.44986306090172 L-140.6718945403561,200.59017445135973" stroke="#0d6d4d" stroke-width="0.1" fill="none" />
<path d="M-236.5131558043686,-63.92595037587214 L-180.9810369126466,165.1389241760502" stroke="#0d6d4d" stroke-width="0.1" fill="none" />
<path d="M-235.83192580611217,-66.3950507988389 L-212.60182888750208,121.75985526309272" stroke="#0d6d4d" stroke-width="0.1" fill="none" />
<path d="M-235.12492016921559,-68.85689446540555 L-234.01625219511618,72.53546517774444" stroke="#0d6d4d" stroke-width="0.1" fill="none" />
<path d="M-234.3922161670239,-71.31121230431543 L-244.19626535429566,19.82886751719388" stroke="#0d6d4d" stroke-width="0.1" fill="none" />
<path d="M-233.63389388162747,-73.75773606685898 L-242.65315682439356,-33.82965390240138" stroke="#0d6d4d" stroke-width="0.1" fill="none" />
<path d="M-232.8500361951092,-76.19619835619322 L-229.4610065633867,-85.86411629381284" stroke="#0d6d4d" stroke-width="0.1" fill="none" />
<path d="M-232.0407287804855,-78.6263326565672 L-205.25312967388734,-133.77650301556844" stroke="#0d6d4d" stroke-width="0.1" fill="none" />
<path d="M-231.20606009234297,-81.04787336245103 L-171.19167286685445,-175.2666857707074" stroke="#0d6d4d" stroke-width="0.1" fill="none" />
<path d="M-230.34612135716992,-83.46055580756666 L-128.91182332451964,-208.34284678660757" stroke="#0d6d4d" stroke-width="0.1" fill="none" />
<path d="M-229.4610065633867,-85.86411629381284 L-80.44330832572463,-231.4170999421011" stroke="#0d6d4d" stroke-width="0.1" fill="none" />
<path d="M-228.5508124510718,-88.25829212008925 L-28.11295419844605,-243.3817203617315" stroke="#0d6d4d" stroke-width="0.1" fill="none" />
<path d="M-227.61563850138958,-90.64282161100643 L25.567017551484348,-243.6623229256466" stroke="#0d6d4d" stroke-width="0.1" fill="none" />
<path d="M-226.65558692571648,-93.017444145488 L78.01959437156991,-232.2454367562379" stroke="#0d6d4d" stroke-width="0.1" fill="none" />
<path d="M-225.6707626544705,-95.38190018525334 L126.72668721538055,-209.6791519140973" stroke="#0d6d4d" stroke-width="0.1" fill="none" />
<path d="M-224.66127332564176,-97.73593130318697 L169.35001635656195,-177.04680725738095" stroke="#0d6d4d" stroke-width="0.1" fill="none" />
<path d="M-223.62722927302863,-100.07928021158165 L203.8433651030166,-135.91498263060726" stroke="#0d6d4d" stroke-width="0.1" fill="none" />
<path d="M-222.56874351417852,-102.41169079025997 L228.5508124510718,-88.25829212008925" stroke="#0d6d4d" stroke-width="0.1" fill="none" />
<path d="M-221.48593173803522,-104.7329081145673 L242.28622882799388,-36.364588823592975" stroke="#0d6d4d" stroke-width="0.1" fill="none" />
<path d="M-220.37891229229487,-107.04267848323396 L244.39021857347979,17.274868034424326" stroke="#0d6d4d" stroke-width="0.1" fill="none" />
<path d="M-219.24780617047034,-109.34074944610481 L234.76177552437983,70.08501089848457" stroke="#0d6d4d" stroke-width="0.1" fill="none" />
<path d="M-218.09273699866773,-111.6268698317298 L213.86313201408868,119.53058506141633" stroke="#0d6d4d" stroke-width="0.1" fill="none" />
<path d="M-216.91383102207402,-113.90078977481723 L182.69756850085756,163.2378585496467" stroke="#0d6d4d" stroke-width="0.1" fill="none" />
<path d="M-215.71121709115923,-116.16226074354257 L142.76124911743565,199.10857779219225" stroke="#0d6d4d" stroke-width="0.1" fill="none" />
<path d="M-214.48502664759286,-118.41103556671305 L95.97139537114869,225.42069840747692" stroke="#0d6d4d" stroke-width="0.1" fill="none" />
<path d="M-213.23539370987848,-120.64686846078149 L44.57424615711735,240.91105532856875" stroke="#0d6d4d" stroke-width="0.1" fill="none" />
<path d="M-211.96245485870568,-122.8695150567103 L-8.96277735491261,244.8360035249846" stroke="#0d6d4d" stroke-width="0.1" fill="none" />
<path d="M-210.66634922202212,-125.07873242668005 L-62.069525123571516,237.00711814402183" stroke="#0d6d4d" stroke-width="0.1" fill="none" />
<path d="M-209.34721845982756,-127.27427911064053 L-112.19650334026208,217.80024021616356" stroke="#0d6d4d" stroke-width="0.1" fill="none" />
<path d="M-208.00520674869048,-129.45591514270228 L-156.93726789050277,188.13743366769032" stroke="#0d6d4d" stroke-width="0.1" fill="none" />
<path d="M-206.64046076599064,-131.62340207736267 L-194.1439504335387,149.44271982957105" stroke="#0d6d4d" stroke-width="0.1" fill="none" />
<path d="M-205.25312967388734,-133.77650301556844 L-222.03037104370188,103.57371449453801" stroke="#0d6d4d" stroke-width="0.1" fill="none" />
<path d="M-203.8433651030167,-135.91498263060708 L-239.25778728850008,52.73244941979131" stroke="#0d6d4d" stroke-width="0.1" fill="none" />
<path d="M-202.41132113591843,-138.03860719382857 L-244.99916319040446,-0.6403405356277007" stroke="#0d6d4d" stroke-width="0.1" fill="none" />
<path d="M-200.9571542901963,-140.14714460018882 L-238.97887271449935,-53.9823896850363" stroke="#0d6d4d" stroke-width="0.1" fill="none" />
<path d="M-199.4810235014097,-142.24036439362078 L-221.48593173803522,-104.7329081145673" stroke="#0d6d4d" stroke-width="0.1" fill="none" />
<path d="M-197.983090105704,-144.31803779222017 L-193.36012327517702,-150.45551743624543" stroke="#0d6d4d" stroke-width="0.1" fill="none" />
<path d="M-196.4635178221757,-146.3799377132524 L-155.95168204280472,-188.95521392123567" stroke="#0d6d4d" stroke-width="0.1" fill="none" />
<path d="M-194.92247273497995,-148.42583879797004 L-111.05647378902788,-218.3837439681511" stroke="#0d6d4d" stroke-width="0.1" fill="none" />
<path d="M-193.36012327517702,-150.45551743624543 L-60.82978122814997,-237.32833314995372" stroke="#0d6d4d" stroke-width="0.1" fill="none" />
<path d="M-191.77664020232328,-152.4687517910101 L-7.682835457735156,-244.87950922714901" stroke="#0d6d4d" stroke-width="0.1" fill="none" />
<path d="M-190.17219658580862,-154.4653218225002 L45.832939929535264,-240.67476315022233" stroke="#0d6d4d" stroke-width="0.1" fill="none" />
<path d="M-188.54696778593993,-156.44500931230672 L97.14841495028394,-224.91595201907634" stroke="#0d6d4d" stroke-width="0.1" fill="none" />
<path d="M-186.90113143477504,-158.40759788722556 L143.80008936494553,-198.35960853619792" stroke="#0d6d4d" stroke-width="0.1" fill="none" />
<path d="M-185.23486741670757,-160.35287304290736 L183.54835784880714,-162.2806221673008" stroke="#0d6d4d" stroke-width="0.1" fill="none" />
<path d="M-183.5483578488072,-162.28062216730075 L214.48502664759278,-118.41103556671318" stroke="#0d6d4d" stroke-width="0.1" fill="none" />
<path d="M-181.84178706091402,-164.19063456389105 L235.12492016921553,-68.8568944654057" stroke="#0d6d4d" stroke-width="0.1" fill="none" />
<path d="M-180.11534157549235,-166.08270147472828 L244.47717975720656,-15.997142806217608" stroke="#0d6d4d" stroke-width="0.1" fill="none" />
<path d="M-178.369210087244,-167.9566161032444 L242.0928318080636,37.630583135962965" stroke="#0d6d4d" stroke-width="0.1" fill="none" />
<path d="M-176.6035834424852,-169.81217363685434 L228.08634163155045,89.45177897132992" stroke="#0d6d4d" stroke-width="0.1" fill="none" />
<path d="M-174.8186546182872,-171.6491712693423 L203.13011831851838,136.9786663386117" stroke="#0d6d4d" stroke-width="0.1" fill="none" />
<path d="M-173.0146187013849,-173.46740822302723 L168.422234420872,177.9296235950631" stroke="#0d6d4d" stroke-width="0.1" fill="none" />
<path d="M-171.19167286685445,-175.2666857707074 L125.62891012388843,210.33871954798042" stroke="#0d6d4d" stroke-width="0.1" fill="none" />
<path d="M-169.350016356562,-177.0468072573809 L76.80452307124702,232.65009184566915" stroke="#0d6d4d" stroke-width="0.1" fill="none" />
<path d="M-167.48985045738848,-178.80757812173857 L24.2929839283401,243.79263920770336" stroke="#0d6d4d" stroke-width="0.1" fill="none" />
<path d="M-165.61137847922862,-180.54880591742966 L-29.384787656203937,243.23144174715532" stroke="#0d6d4d" stroke-width="0.1" fill="none" />
<path d="M-163.7148057327705,-182.27030033409508 L-81.6518847531521,230.99344085115916" stroke="#0d6d4d" stroke-width="0.1" fill="none" />
<path d="M-161.80033950705487,-183.9718732181683 L-129.99912263474639,207.6661458066677" stroke="#0d6d4d" stroke-width="0.1" fill="none" />
<path d="M-159.8681890468203,-185.65333859343903 L-172.1054971193928,174.36942926237577" stroke="#0d6d4d" stroke-width="0.1" fill="none" />
<path d="M-157.9185655296328,-187.31451268138056 L-205.9496089393617,132.7017655410959" stroke="#0d6d4d" stroke-width="0.1" fill="none" />
<path d="M-155.95168204280472,-188.95521392123567 L-229.9067049857192,84.66349273807145" stroke="#0d6d4d" stroke-width="0.1" fill="none" />
<path d="M-153.9677535601056,-190.57526298986076 L-242.8266777747946,32.56078255902443" stroke="#0d6d4d" stroke-width="0.1" fill="none" />
<path d="M-151.966996918265,-192.17448282132577 L-244.08927861848358,-21.105071985385248" stroke="#0d6d4d" stroke-width="0.1" fill="none" />
<path d="M-149.9496307932752,-193.75269862626547 L-233.63389388162747,-73.75773606685898" stroke="#0d6d4d" stroke-width="0.1" fill="none" />
<path d="M-147.91587567648796,-195.30973791098526 L-211.96245485870568,-122.8695150567103" stroke="#0d6d4d" stroke-width="0.1" fill="none" />
<path d="M-145.8659538505178,-196.84543049631256 L-180.11534157549235,-166.08270147472828" stroke="#0d6d4d" stroke-width="0.1" fill="none" />
<path d="M-143.8000893649455,-198.35960853619795 L-139.62143730103887,-201.32276137086953" stroke="#0d6d4d" stroke-width="0.1" fill="none" />
<path d="M-141.71850801183223,-199.8521065360589 L-92.42473150130523,-226.89792640505033" stroke="#0d6d4d" stroke-width="0.1" fill="none" />
<path d="M-139.62143730103887,-201.32276137086953 L-40.790994803910195,-241.5804105115052" stroke="#0d6d4d" stroke-width="0.1" fill="none" />
<path d="M-137.50910643536193,-202.7714123029879 L12.800993774246196,-244.6653521821014" stroke="#0d6d4d" stroke-width="0.1" fill="none" />
<path d="M-135.38174628548137,-204.19790099972516 L65.77844548575982,-236.00465272845136" stroke="#0d6d4d" stroke-width="0.1" fill="none" />
<path d="M-133.2395893647276,-205.6020715506504 L115.59807363338982,-216.01408605053834" stroke="#0d6d4d" stroke-width="0.1" fill="none" />
<path d="M-131.08286980366861,-206.98377048463115 L159.86818904682025,-185.6533385934391" stroke="#0d6d4d" stroke-width="0.1" fill="none" />
<path d="M-128.91182332451964,-208.34284678660757 L196.46351782217573,-146.37993771325236" stroke="#0d6d4d" stroke-width="0.1" fill="none" />
<path d="M-126.72668721538055,-209.6791519140973 L223.62722927302863,-100.07928021158165" stroke="#0d6d4d" stroke-width="0.1" fill="none" />
<path d="M-124.52770030430031,-210.99253981343125 L240.05527604057346,-48.974120156303776" stroke="#0d6d4d" stroke-width="0.1" fill="none" />
<path d="M-122.31510293317426,-212.2828669357162 L244.9589974502072,4.482138796310077" stroke="#0d6d4d" stroke-width="0.1" fill="none" />
<path d="M-120.08913693147494,-213.54999225252493 L238.10298071733592,57.72322386630845" stroke="#0d6d4d" stroke-width="0.1" fill="none" />
<path d="M-117.85004558982179,-214.79377727130952 L219.81636240080593,108.19319211890158" stroke="#0d6d4d" stroke-width="0.1" fill="none" />
<path d="M-115.59807363338982,-216.01408605053834 L190.97702755547442,153.46913352878346" stroke="#0d6d4d" stroke-width="0.1" fill="none" />
<path d="M-113.33346719516196,-217.21078521455408 L152.96946513465704,191.37748753815572" stroke="#0d6d4d" stroke-width="0.1" fill="none" />
<path d="M-111.05647378902788,-218.3837439681511 L107.61830287669441,220.0983891034645" stroke="#0d6d4d" stroke-width="0.1" fill="none" />
<path d="M-108.76734228273068,-219.53283411087125 L57.10071246404454,238.25303489378368" stroke="#0d6d4d" stroke-width="0.1" fill="none" />
<path d="M-106.46632287066774,-220.65793005101526 L3.8418901174088385,244.96987545477046" stroke="#0d6d4d" stroke-width="0.1" fill="none" />
<path d="M-104.15366704654441,-221.75890881936982 L-49.60136971559503,239.92645565326234" stroke="#0d6d4d" stroke-width="0.1" fill="none" />
<path d="M-101.82962757588713,-222.83565008264753 L-100.66341830330236,223.36489476973406" stroke="#0d6d4d" stroke-width="0.1" fill="none" />
<path d="M-99.49445846841607,-223.88803615663932 L-146.89292164017905,196.08026308634996" stroke="#0d6d4d" stroke-width="0.1" fill="none" />
<path d="M-97.14841495028402,-224.91595201907631 L-186.07054155388337,159.3824129753486" stroke="#0d6d4d" stroke-width="0.1" fill="none" />
<path d="M-94.79175343618016,-225.9192853222018 L-216.31547939636664,115.03309686138189" stroke="#0d6d4d" stroke-width="0.1" fill="none" />
<path d="M-92.42473150130523,-226.89792640505033 L-236.17576747970477,65.16139083362489" stroke="#0d6d4d" stroke-width="0.1" fill="none" />
<path d="M-90.04760785321845,-227.8517683054336 L-244.69797363881798,12.161484163388259" stroke="#0d6d4d" stroke-width="0.1" fill="none" />
<path d="M-87.66064230356359,-228.7807067716303 L-241.47297261653736,-41.42225845765781" stroke="#0d6d4d" stroke-width="0.1" fill="none" />
<path d="M-85.26409573967065,-229.6846402737812 L-226.65558692571648,-93.017444145488" stroke="#0d6d4d" stroke-width="0.1" fill="none" />
<path d="M-82.85823009604196,-230.56347001498602 L-200.9571542901963,-140.14714460018882" stroke="#0d6d4d" stroke-width="0.1" fill="none" />
<path d="M-80.44330832572463,-231.4170999421011 L-165.61137847922862,-180.54880591742966" stroke="#0d6d4d" stroke-width="0.1" fill="none" />
<path d="M-78.01959437156984,-232.24543675623792 L-122.31510293317426,-212.2828669357162" stroke="#0d6d4d" stroke-width="0.1" fill="none" />
<path d="M-75.58735313738518,-233.04838992296047 L-73.14685045898074,-233.82587168218043" stroke="#0d6d4d" stroke-width="0.1" fill="none" />
<path d="M-73.14685045898074,-233.82587168218043 L-20.467039657474135,-244.14360587092872" stroke="#0d6d4d" stroke-width="0.1" fill="none" />
<path d="M-70.69835307511535,-234.57779705774868 L33.19533161100682,-242.7407463925974" stroke="#0d6d4d" stroke-width="0.1" fill="none" />
<path d="M-68.2421285983422,-235.3040838667432 L85.26409573967058,-229.68464027378124" stroke="#0d6d4d" stroke-width="0.1" fill="none" />
<path d="M-65.77844548575996,-236.00465272845133 L133.23958936472766,-205.60207155065035" stroke="#0d6d4d" stroke-width="0.1" fill="none" />
<path d="M-63.30757300967058,-236.67942707304584 L174.81865461828718,-171.64917126934233" stroke="#0d6d4d" stroke-width="0.1" fill="none" />
<path d="M-60.82978122814997,-237.32833314995372 L208.0052067486904,-129.4559151427024" stroke="#0d6d4d" stroke-width="0.1" fill="none" />
<path d="M-58.3453409555307,-237.95130003591674 L231.2060600923429,-81.04787336245118" stroke="#0d6d4d" stroke-width="0.1" fill="none" />
<path d="M-55.854523732803116,-238.54825964274343 L243.30741208292136,-28.748969120848457" stroke="#0d6d4d" stroke-width="0.1" fill="none" />
<path d="M-53.35760179793704,-239.11914672475055 L243.72831353276263,24.93008588985135" stroke="#0d6d4d" stroke-width="0.1" fill="none" />
<path d="M-50.85484805612626,-239.6638988858946 L232.4485582404801,77.41232312701983" stroke="#0d6d4d" stroke-width="0.1" fill="none" />
<path d="M-48.34653604996207,-240.18245658659112 L210.00965302937692,126.17822963760713" stroke="#0d6d4d" stroke-width="0.1" fill="none" />
<path d="M-45.83293992953527,-240.67476315022233 L177.48882164805497,168.88670222958623" stroke="#0d6d4d" stroke-width="0.1" fill="none" />
<path d="M-43.314334422472825,-241.14076476933175 L136.4472905270666,203.48743673215375" stroke="#0d6d4d" stroke-width="0.1" fill="none" />
<path d="M-40.790994803910195,-241.5804105115052 L88.85533903550683,228.31935687734654" stroke="#0d6d4d" stroke-width="0.1" fill="none" />
<path d="M-38.26319686640603,-241.99365232493733 L36.997712347291106,242.19035753115173" stroke="#0d6d4d" stroke-width="0.1" fill="none" />
<path d="M-35.731216889798034,-242.38044504368378 L-16.636062241612812,244.43453404356183" stroke="#0d6d4d" stroke-width="0.1" fill="none" />
<path d="M-33.195331611006814,-242.7407463925974 L-69.47118996422414,234.9441503101422" stroke="#0d6d4d" stroke-width="0.1" fill="none" />
<path d="M-30.655818193789575,-243.07451699194905 L-118.97121666612878,214.17481085548096" stroke="#0d6d4d" stroke-width="0.1" fill="none" />
<path d="M-28.11295419844605,-243.3817203617315 L-162.75979627259323,183.12358864249012" stroke="#0d6d4d" stroke-width="0.1" fill="none" />
<path d="M-25.567017551484426,-243.6623229256466 L-198.73477195262018,143.2811586250616" stroke="#0d6d4d" stroke-width="0.1" fill="none" />
<path d="M-23.018286515241904,-243.91629401477513 L-225.16909428943464,96.56023496696606" stroke="#0d6d4d" stroke-width="0.1" fill="none" />
<path d="M-20.467039657474135,-244.14360587092872 L-240.79373168227397,45.203747438957436" stroke="#0d6d4d" stroke-width="0.1" fill="none" />
<path d="M-17.913555820906538,-244.3442336496838 L-244.85859270267875,-8.32283483337704" stroke="#0d6d4d" stroke-width="0.1" fill="none" />
<path d="M-15.358114092760353,-244.51815542309686 L-237.1685357078304,-61.44986306090172" stroke="#0d6d4d" stroke-width="0.1" fill="none" />
<path d="M-12.800993774246264,-244.6653521821014 L-218.09273699866773,-111.6268698317298" stroke="#0d6d4d" stroke-width="0.1" fill="none" />
<path d="M-10.24247435004035,-244.7858078385852 L-188.54696778593993,-156.44500931230672" stroke="#0d6d4d" stroke-width="0.1" fill="none" />
<path d="M-7.682835457735156,-244.87950922714901 L-149.9496307932752,-193.75269862626547" stroke="#0d6d4d" stroke-width="0.1" fill="none" />
<path d="M-5.122356857278648,-244.94644610654527 L-104.15366704654441,-221.75890881936982" stroke="#0d6d4d" stroke-width="0.1" fill="none" />
<path d="M-2.5613184003954186,-244.9866111607975 L-53.35760179793704,-239.11914672475055" stroke="#0d6d4d" stroke-width="0.1" fill="none" />
</svg>