<?xml version="1.0" encoding="UTF-8"?>
<svg xmlns="http://www.w3.org/2000/svg" xmlns:xlink="http://www.w3.org/1999/xlink"
     width="500.0" height="500" viewBox="-250.0 -250.0 500 500">
<defs>
</defs>
<circle cx="0" cy="0" r="245.0" fill="white" stroke-width="2" stroke="black" />
<path d="M0.0,-245.0 L0.0,-245.0" stroke="#0d6d4d" stroke-width="0.1" fill="none" />
<path d="M2.5443846747241494,-244.98678761644888 L53.010454462681196,-239.19634553575438" stroke="#0d6d4d" stroke-width="0.1" fill="none" />
<path d="M5.088494921805654,-244.94715189083288 L103.50944475643153,-222.06034055232655" stroke="#0d6d4d" stroke-width="0.1" fill="none" />
<path d="M7.6320563432005875,-244.88109709811047 L149.10449177546963,-194.40383363601373" stroke="#0d6d4d" stroke-width="0.1" fill="none" />
<path d="M10.174794600059275,-244.78863036270008 L187.6354494122075,-157.5371007854306" stroke="#0d6d4d" stroke-width="0.1" fill="none" />
<path d="M12.716435442315436,-244.66976165771163 L217.27684530501156,-113.20676876539702" stroke="#0d6d4d" stroke-width="0.1" fill="none" />
<path d="M15.256704738265741,-244.5245038038711 L236.62436582449615,-63.513065570440055" stroke="#0d6d4d" stroke-width="0.1" fill="none" />
<path d="M17.795328504136634,-244.3528724681375 L244.76138791894707,-10.810318403762208" stroke="#0d6d4d" stroke-width="0.1" fill="none" />
<path d="M20.332032933635155,-244.1548861620131 L241.3024057548612,42.404586743845584" stroke="#0d6d4d" stroke-width="0.1" fill="none" />
<path d="M22.866544427480676,-243.93056623954706 L226.41129473859243,93.61049949014385" stroke="#0d6d4d" stroke-width="0.1" fill="none" />
<path d="M25.398589622914244,-243.67993689503203 L200.79354762872967,140.38144902610554" stroke="#0d6d4d" stroke-width="0.1" fill="none" />
<path d="M27.927895423182452,-243.4030251603948 L165.6628505671347,180.50157877971924" stroke="#0d6d4d" stroke-width="0.1" fill="none" />
<path d="M30.45418902699265,-243.09986090228065 L122.68358254836751,212.0701265456733" stroke="#0d6d4d" stroke-width="0.1" fill="none" />
<path d="M32.97719795793622,-242.7704768188321 L73.89196251697595,233.59147646134227" stroke="#0d6d4d" stroke-width="0.1" fill="none" />
<path d="M35.496650093876816,-242.41490843616214 L21.599579888576116,244.04601645721863" stroke="#0d6d4d" stroke-width="0.1" fill="none" />
<path d="M38.01227369630053,-242.03319410452266 L-31.716121092853655,242.93844418457826" stroke="#0d6d4d" stroke-width="0.1" fill="none" />
<path d="M40.52379743962443,-241.62537499416797 L-83.52921466392355,230.3212328414994" stroke="#0d6d4d" stroke-width="0.1" fill="none" />
<path d="M43.03095044046083,-241.19149509091446 L-131.38496374863237,206.79214516216655" stroke="#0d6d4d" stroke-width="0.1" fill="none" />
<path d="M45.53346228683364,-240.73160119139632 L-173.01611747501892,173.46591334861859" stroke="#0d6d4d" stroke-width="0.1" fill="none" />
<path d="M48.03106306734404,-240.24574289801853 L-206.45032620083114,131.92142665833484" stroke="#0d6d4d" stroke-width="0.1" fill="none" />
<path d="M50.5234834002821,-239.73397261360648 L-230.10358507112988,84.12692872923206" stroke="#0d6d4d" stroke-width="0.1" fill="none" />
<path d="M53.010454462681196,-239.19634553575438 L-242.85527905377964,32.346768551291504" stroke="#0d6d4d" stroke-width="0.1" fill="none" />
<path d="M55.49170801931227,-238.6329196508717 L-244.1012740613594,-20.96587707731581" stroke="#0d6d4d" stroke-width="0.1" fill="none" />
<path d="M57.96697645161471,-238.04375572792904 L-233.7825388735575,-73.28522714595054" stroke="#0d6d4d" stroke-width="0.1" fill="none" />
<path d="M60.43599278656061,-237.42891731190366 L-212.38794184578657,-122.13255978039098" stroke="#0d6d4d" stroke-width="0.1" fill="none" />
<path d="M62.898490725449456,-236.78847071692607 L-180.93108990499337,-165.19364608177642" stroke="#0d6d4d" stroke-width="0.1" fill="none" />
<path d="M65.35420467263012,-236.12248501912725 L-140.90230712625777,-200.42839081950873" stroke="#0d6d4d" stroke-width="0.1" fill="none" />
<path d="M67.802869764147,-235.4310320491887 L-94.1980279901686,-226.1674855560883" stroke="#0d6d4d" stroke-width="0.1" fill="none" />
<path d="M70.24422189630724,-234.71418638459488 L-43.030950440460856,-241.19149509091443" stroke="#0d6d4d" stroke-width="0.1" fill="none" />
<path d="M72.67799775416587,-233.97202534158964 L10.174794600059275,-244.78863036270008" stroke="#0d6d4d" stroke-width="0.1" fill="none" />
<path d="M75.1039348399261,-233.20462896683705 L62.898490725449456,-236.78847071692607" stroke="#0d6d4d" stroke-width="0.1" fill="none" />
<path d="M77.5217715012512,-232.4120800287881 L112.64225945089622,-217.5700378861873" stroke="#0d6d4d" stroke-width="0.1" fill="none" />
<path d="M79.93124695948536,-231.59446400875336 L157.04940163001723,-188.04383916431175" stroke="#0d6d4d" stroke-width="0.1" fill="none" />
<path d="M82.33210133778037,-230.75186909168355 L194.01605025095736,-149.60873051068236" stroke="#0d6d4d" stroke-width="0.1" fill="none" />
<path d="M84.72407568912483,-229.884386156658 L221.79084486231167,-104.08564327159628" stroke="#0d6d4d" stroke-width="0.1" fill="none" />
<path d="M87.10691202427317,-228.9921087670829 L239.05790537640908,-53.631314332615744" stroke="#0d6d4d" stroke-width="0.1" fill="none" />
<path d="M89.48035333957161,-228.0751331606 L244.99917421906977,-0.6361068887385036" stroke="#0d6d4d" stroke-width="0.1" fill="none" />
<path d="M91.84414364467727,-227.1335582387065 L239.3331732560733,52.38923724562504" stroke="#0d6d4d" stroke-width="0.1" fill="none" />
<path d="M94.19802799016858,-226.16748555608834 L222.328339318304,102.93254847697631" stroke="#0d6d4d" stroke-width="0.1" fill="none" />
<path d="M96.54175249504304,-225.17701930966635 L194.79030653144906,148.59924791661672" stroke="#0d6d4d" stroke-width="0.1" fill="none" />
<path d="M98.87506437409985,-224.1622663273585 L158.0237379724062,187.225794796626" stroke="#0d6d4d" stroke-width="0.1" fill="none" />
<path d="M101.19771196520438,-223.1233360565576 L113.77051494527898,216.98218804566898" stroke="#0d6d4d" stroke-width="0.1" fill="none" />
<path d="M103.50944475643153,-222.06034055232655 L64.12721226948479,236.45866583093215" stroke="#0d6d4d" stroke-width="0.1" fill="none" />
<path d="M105.81001341308492,-220.9733944653129 L11.445769334364815,244.73249552183404" stroke="#0d6d4d" stroke-width="0.1" fill="none" />
<path d="M108.09916980458921,-219.86261502938282 L-41.777937194992816,241.4116897826848" stroke="#0d6d4d" stroke-width="0.1" fill="none" />
<path d="M110.37666703125257,-218.7281220489766 L-93.02233995529988,226.65357766697753" stroke="#0d6d4d" stroke-width="0.1" fill="none" />
<path d="M112.64225945089622,-217.5700378861873 L-139.8596446049444,201.15735087482796" stroke="#0d6d4d" stroke-width="0.1" fill="none" />
<path d="M114.89570270534864,-216.38848744756302 L-180.07085088088064,166.13093830781688" stroke="#0d6d4d" stroke-width="0.1" fill="none" />
<path d="M117.13675374680086,-215.18359817063507 L-211.75088166624263,123.23377829787135" stroke="#0d6d4d" stroke-width="0.1" fill="none" />
<path d="M119.36517086402098,-213.95550001017287 L-233.39883939290885,74.49819977719689" stroke="#0d6d4d" stroke-width="0.1" fill="none" />
<path d="M121.58071370842396,-212.70432542416776 L-243.98911372208607,22.233137095582105" stroke="#0d6d4d" stroke-width="0.1" fill="none" />
<path d="M123.78314331999478,-211.43020935954644 L-243.01997165060598,-31.085259833861137" stroke="#0d6d4d" stroke-width="0.1" fill="none" />
<path d="M125.9722221530619,-210.13328923761608 L-230.53732800058813,-82.93093752243031" stroke="#0d6d4d" stroke-width="0.1" fill="none" />
<path d="M128.14771410191779,-208.81370493924277 L-207.13257012342018,-130.84761516384782" stroke="#0d6d4d" stroke-width="0.1" fill="none" />
<path d="M130.3093845262846,-207.47159878976424 L-173.91453987655896,-172.56515528786448" stroke="#0d6d4d" stroke-width="0.1" fill="none" />
<path d="M132.45700027662141,-206.1071155436394 L-132.4570002766214,-206.1071155436394" stroke="#0d6d4d" stroke-width="0.1" fill="none" />
<path d="M134.590329719271,-204.72040236883552 L-84.72407568912502,-229.8843861566579" stroke="#0d6d4d" stroke-width="0.1" fill="none" />
<path d="M136.70914276144285,-203.31160883095546 L-32.97719795793623,-242.7704768188321" stroke="#0d6d4d" stroke-width="0.1" fill="none" />
<path d="M138.81321087603015,-201.8808868771058 L20.332032933635155,-244.1548861620131" stroke="#0d6d4d" stroke-width="0.1" fill="none" />
<path d="M140.90230712625777,-200.42839081950873 L72.67799775416587,-233.97202534158964" stroke="#0d6d4d" stroke-width="0.1" fill="none" />
<path d="M142.97620619015893,-198.95427731885826 L121.58071370842396,-212.70432542416776" stroke="#0d6d4d" stroke-width="0.1" fill="none" />
<path d="M145.03468438487755,-197.4587053674235 L164.72332801468153,-181.35938136133913" stroke="#0d6d4d" stroke-width="0.1" fill="none" />
<path d="M147.0775196907936,-195.9418362719004 L200.06188290871208,-141.4222153942611" stroke="#0d6d4d" stroke-width="0.1" fill="none" />
<path d="M149.10449177546963,-194.40383363601373 L225.9221517629996,-94.78492149480411" stroke="#0d6d4d" stroke-width="0.1" fill="none" />
<path d="M151.1153820174148,-192.84486334287152 L241.07895853850087,-43.65702406247789" stroke="#0d6d4d" stroke-width="0.1" fill="none" />
<path d="M153.10997352966453,-191.26509353707337 L244.81422266944986,9.539202207365717" stroke="#0d6d4d" stroke-width="0.1" fill="none" />
<path d="M155.08805118317323,-189.6646946065752 L236.9509794019795,62.28349187740426" stroke="#0d6d4d" stroke-width="0.1" fill="none" />
<path d="M157.04940163001723,-188.04383916431175 L217.86176381276493,112.07699080717252" stroke="#0d6d4d" stroke-width="0.1" fill="none" />
<path d="M158.99381332640564,-186.40270202957916 L188.45096129995534,156.5606437937796" stroke="#0d6d4d" stroke-width="0.1" fill="none" />
<path d="M160.92107655549668,-184.74146020917982 L150.1119607231469,193.62695899035447" stroke="#0d6d4d" stroke-width="0.1" fill="none" />
<path d="M162.83098345001704,-183.06029287833087 L104.6611401382768,221.5198540649483" stroke="#0d6d4d" stroke-width="0.1" fill="none" />
<path d="M164.72332801468153,-181.35938136133913 L54.25181267016959,238.91785371127213" stroke="#0d6d4d" stroke-width="0.1" fill="none" />
<path d="M166.59790614841086,-179.63890911204422 L1.2722094894366947,244.9966968818457" stroke="#0d6d4d" stroke-width="0.1" fill="none" />
<path d="M168.45451566634557,-177.8990616940318 L-51.76766686911518,239.4683876150009" stroke="#0d6d4d" stroke-width="0.1" fill="none" />
<path d="M170.29295632165253,-176.1400267606195 L-102.35495832212821,222.59483935364582" stroke="#0d6d4d" stroke-width="0.1" fill="none" />
<path d="M172.1130298271229,-174.36199403461728 L-148.09300234000742,195.1754663320228" stroke="#0d6d4d" stroke-width="0.1" fill="none" />
<path d="M173.91453987655882,-172.56515528786463 L-186.81487807907726,158.50930991048918" stroke="#0d6d4d" stroke-width="0.1" fill="none" />
<path d="M175.69729216594604,-170.74970432054693 L-216.68606809446447,114.3334941902901" stroke="#0d6d4d" stroke-width="0.1" fill="none" />
<path d="M177.4610944144109,-168.91583694029268 L-236.2913718532291,64.7409266825786" stroke="#0d6d4d" stroke-width="0.1" fill="none" />
<path d="M179.205756384959,-167.06375094105465 L-244.70195336612665,12.081143108248549" stroke="#0d6d4d" stroke-width="0.1" fill="none" />
<path d="M180.93108990499337,-165.19364608177642 L-241.51934643769403,-41.15100601819028" stroke="#0d6d4d" stroke-width="0.1" fill="none" />
<path d="M182.6369088866102,-163.3057240648473 L-226.8943327079976,-92.43355335046081" stroke="#0d6d4d" stroke-width="0.1" fill="none" />
<path d="M184.32302934666947,-161.4001885143472 L-201.51979810538054,-139.3368973802943" stroke="#0d6d4d" stroke-width="0.1" fill="none" />
<path d="M185.98926942663874,-159.47724495408485 L-166.597906148411,-179.6389091120441" stroke="#0d6d4d" stroke-width="0.1" fill="none" />
<path d="M187.6354494122075,-157.5371007854306 L-123.78314331999475,-211.43020935954647" stroke="#0d6d4d" stroke-width="0.1" fill="none" />
<path d="M189.26139175267076,-155.5799652649469 L-75.10393483992627,-233.204628966837" stroke="#0d6d4d" stroke-width="0.1" fill="none" />
<path d="M190.8669210800789,-153.6060494818187 L-22.86654442748067,-243.93056623954706" stroke="#0d6d4d" stroke-width="0.1" fill="none" />
<path d="M192.45186422815206,-151.61556633508624 L30.45418902699265,-243.09986090228065" stroke="#0d6d4d" stroke-width="0.1" fill="none" />
<path d="M194.01605025095736,-149.60873051068236 L82.33210133778037,-230.75186909168355" stroke="#0d6d4d" stroke-width="0.1" fill="none" />
<path d="M195.5593104413465,-147.58575845827767 L130.3093845262846,-207.47159878976424" stroke="#0d6d4d" stroke-width="0.1" fill="none" />
<path d="M197.08147834915152,-145.54686836793474 L172.1130298271229,-174.36199403461728" stroke="#0d6d4d" stroke-width="0.1" fill="none" />
<path d="M198.58238979913804,-143.49228014657515 L205.76251550419775,-132.99168099315375" stroke="#0d6d4d" stroke-width="0.1" fill="none" />
<path d="M200.06188290871208,-141.4222153942611 L229.6636375757188,-85.3206515181927" stroke="#0d6d4d" stroke-width="0.1" fill="none" />
<path d="M201.51979810538043,-139.33689738029446 L242.68403805139323,-33.607405063020174" stroke="#0d6d4d" stroke-width="0.1" fill="none" />
<path d="M202.95597814396137,-137.23655101913587 L244.20685239777688,19.698051730321353" stroke="#0d6d4d" stroke-width="0.1" fill="none" />
<path d="M204.37026812354443,-135.1214028461463 L234.1599345880974,72.0702784349966" stroke="#0d6d4d" stroke-width="0.1" fill="none" />
<path d="M205.76251550419775,-132.99168099315375 L213.01927514805328,121.02804805249887" stroke="#0d6d4d" stroke-width="0.1" fill="none" />
<path d="M207.1325701234202,-130.8476151638478 L181.7864502616143,164.25189953629646" stroke="#0d6d4d" stroke-width="0.1" fill="none" />
<path d="M208.48028421233735,-128.68943660900473 L141.94117032537795,199.6940263669949" stroke="#0d6d4d" stroke-width="0.1" fill="none" />
<path d="M209.80551241163928,-126.51737810154567 L95.37117604776094,225.67529501313828" stroke="#0d6d4d" stroke-width="0.1" fill="none" />
<path d="M211.1081117872586,-124.33167391143066 L44.282803389491356,240.96479685623717" stroke="#0d6d4d" stroke-width="0.1" fill="none" />
<path d="M212.3879418457866,-122.13255978039095 L-8.903545510253696,244.838164666677" stroke="#0d6d4d" stroke-width="0.1" fill="none" />
<path d="M213.64486454962642,-119.92027289650315 L-61.668073172054186,237.11189078417422" stroke="#0d6d4d" stroke-width="0.1" fill="none" />
<path d="M214.87874433188128,-117.69505186860661 L-111.51096664474096,218.15202111819977" stroke="#0d6d4d" stroke-width="0.1" fill="none" />
<path d="M216.0894481109762,-115.45713670056833 L-156.07083057146795,188.85681307469991" stroke="#0d6d4d" stroke-width="0.1" fill="none" />
<path d="M217.27684530501156,-113.20676876539702 L-193.2365624770959,150.61417902055376" stroke="#0d6d4d" stroke-width="0.1" fill="none" />
<path d="M218.44080784584736,-110.94419077920934 L-221.24736998700405,105.23593147700899" stroke="#0d6d4d" stroke-width="0.1" fill="none" />
<path d="M219.581210192916,-108.66964677505145 L-238.7761914844414,54.87194529252066" stroke="#0d6d4d" stroke-width="0.1" fill="none" />
<path d="M220.6979293467627,-106.38338207657881 L-244.99256800502772,1.9083035140831117" stroke="#0d6d4d" stroke-width="0.1" fill="none" />
<path d="M221.79084486231167,-104.08564327159628 L-239.60198770104773,-51.14574752320051" stroke="#0d6d4d" stroke-width="0.1" fill="none" />
<path d="M222.85983886185699,-101.77667818546217 L-222.85983886185696,-101.77667818546227" stroke="#0d6d4d" stroke-width="0.1" fill="none" />
<path d="M223.90479604777636,-99.45673585435871 L-195.55931044134658,-147.58575845827755" stroke="#0d6d4d" stroke-width="0.1" fill="none" />
<path d="M224.92560371496654,-97.12606649843198 L-158.9938133264056,-186.40270202957922" stroke="#0d6d4d" stroke-width="0.1" fill="none" />
<path d="M225.9221517629996,-94.78492149480411 L-114.89570270534877,-216.38848744756297" stroke="#0d6d4d" stroke-width="0.1" fill="none" />
<path d="M226.89433270799762,-92.43355335046076 L-65.35420467263008,-236.12248501912728" stroke="#0d6d4d" stroke-width="0.1" fill="none" />
<path d="M227.8420416942258,-90.07221567501641 L-12.716435442315625,-244.66976165771163" stroke="#0d6d4d" stroke-width="0.1" fill="none" />
<path d="M228.7651765054014,-87.70116315336152 L40.52379743962443,-241.62537499416797" stroke="#0d6d4d" stroke-width="0.1" fill="none" />
<path d="M229.6636375757188,-85.3206515181927 L91.84414364467727,-227.1335582387065" stroke="#0d6d4d" stroke-width="0.1" fill="none" />
<path d="M230.53732800058808,-82.93093752243047 L138.81321087603015,-201.8808868771058" stroke="#0d6d4d" stroke-width="0.1" fill="none" />
<path d="M231.3861535470868,-80.53227891152699 L179.205756384959,-167.06375094105465" stroke="#0d6d4d" stroke-width="0.1" fill="none" />
<path d="M232.2100226641236,-78.12493439566656 L211.1081117872586,-124.33167391143066" stroke="#0d6d4d" stroke-width="0.1" fill="none" />
<path d="M233.0088464923126,-75.70916362186213 L233.0088464923126,-75.70916362186213" stroke="#0d6d4d" stroke-width="0.1" fill="none" />
<path d="M233.78253887355746,-73.2852271459507 L243.87037440427414,-23.499797614429713" stroke="#0d6d4d" stroke-width="0.1" fill="none" />
<path d="M234.53101636034393,-70.85338640449083 L243.17811140106326,29.822912926340173" stroke="#0d6d4d" stroke-width="0.1" fill="none" />
<path d="M235.2541982247403,-68.41390368656508 L230.96485466854955,81.7327101467692" stroke="#0d6d4d" stroke-width="0.1" fill="none" />
<path d="M235.95200646710433,-65.9670421054905 L207.80922887578302,129.77027546419257" stroke="#0d6d4d" stroke-width="0.1" fill="none" />
<path d="M236.62436582449615,-63.513065570440055 L174.80827280647458,171.65974414060264" stroke="#0d6d4d" stroke-width="0.1" fill="none" />
<path d="M237.27120377879558,-61.052238757978856 L133.5254652036122,205.41652840547894" stroke="#0d6d4d" stroke-width="0.1" fill="none" />
<path d="M237.8924505645239,-58.584827083516686 L85.91665219487706,229.4413408163937" stroke="#0d6d4d" stroke-width="0.1" fill="none" />
<path d="M238.48803917636835,-56.11109667268138 L34.23738561827386,242.5959633341528" stroke="#0d6d4d" stroke-width="0.1" fill="none" />
<path d="M239.05790537640908,-53.631314332615744 L-19.063937741085212,244.25717241834278" stroke="#0d6d4d" stroke-width="0.1" fill="none" />
<path d="M239.60198770104773,-51.14574752320057 L-71.46207328512061,234.3462653463717" stroke="#0d6d4d" stroke-width="0.1" fill="none" />
<path d="M240.1202274676364,-48.65466432820766 L-120.47456653817285,213.33278889434544" stroke="#0d6d4d" stroke-width="0.1" fill="none" />
<path d="M240.61256878080724,-46.15833342638485 L-163.77936382455317,182.21229372691803" stroke="#0d6d4d" stroke-width="0.1" fill="none" />
<path d="M241.07895853850087,-43.65702406247789 L-199.32482367410321,142.4591684212977" stroke="#0d6d4d" stroke-width="0.1" fill="none" />
<path d="M241.51934643769403,-41.15100601819039 L-225.42691697058268,95.95678769705673" stroke="#0d6d4d" stroke-width="0.1" fill="none" />
<path d="M241.93368497982468,-38.640549583086354 L-240.84901081369512,44.90828420307968" stroke="#0d6d4d" stroke-width="0.1" fill="none" />
<path d="M242.32192947591543,-36.12592552543767 L-244.86045619298676,-8.267828793728503" stroke="#0d6d4d" stroke-width="0.1" fill="none" />
<path d="M242.68403805139323,-33.607405063020174 L-237.2712037787956,-61.0522387579788" stroke="#0d6d4d" stroke-width="0.1" fill="none" />
<path d="M243.01997165060598,-31.08525983386109 L-218.4408078458474,-110.94419077920924" stroke="#0d6d4d" stroke-width="0.1" fill="none" />
<path d="M243.32969404103483,-28.55976186694104 L-189.26139175267087,-155.5799652649468" stroke="#0d6d4d" stroke-width="0.1" fill="none" />
<path d="M243.61317181720204,-26.031183552854344 L-151.11538201741487,-192.84486334287143" stroke="#0d6d4d" stroke-width="0.1" fill="none" />
<path d="M243.87037440427414,-23.499797614429713 L-105.81001341308503,-220.97339446531285" stroke="#0d6d4d" stroke-width="0.1" fill="none" />
<path d="M244.1012740613594,-20.96587707731576 L-55.49170801931221,-238.6329196508717" stroke="#0d6d4d" stroke-width="0.1" fill="none" />
<path d="M244.30584588450003,-18.429695240532922 L-2.544384674724323,-244.98678761644888" stroke="#0d6d4d" stroke-width="0.1" fill="none" />
<path d="M244.48406780935815,-15.891525646997042 L50.5234834002821,-239.73397261360648" stroke="#0d6d4d" stroke-width="0.1" fill="none" />
<path d="M244.63592061359557,-13.351642054015768 L101.19771196520438,-223.1233360565576" stroke="#0d6d4d" stroke-width="0.1" fill="none" />
<path d="M244.76138791894707,-10.810318403762208 L147.0775196907936,-195.9418362719004" stroke="#0d6d4d" stroke-width="0.1" fill="none" />
<path d="M244.86045619298676,-8.267828793728563 L185.98926942663874,-159.47724495408485" stroke="#0d6d4d" stroke-width="0.1" fill="none" />
<path d="M244.93311475058792,-5.724447447163018 L216.0894481109762,-115.45713670056833" stroke="#0d6d4d" stroke-width="0.1" fill="none" />
<path d="M244.97935575507515,-3.1804486834931183 L235.95200646710433,-65.9670421054905" stroke="#0d6d4d" stroke-width="0.1" fill="none" />
<path d="M244.99917421906977,-0.6361068887385036 L244.63592061359557,-13.351642054015768" stroke="#0d6d4d" stroke-width="0.1" fill="none" />
<path d="M244.99256800502772,1.9083035140829971 L241.72977473736083,39.8963156873512" stroke="#0d6d4d" stroke-width="0.1" fill="none" />
<path d="M244.95953782547014,4.452508094553858 L227.37125264646838,91.25411481120098" stroke="#0d6d4d" stroke-width="0.1" fill="none" />
<path d="M244.90008724290635,6.9962324444555515 L202.24061475587962,138.28858862235847" stroke="#0d6d4d" stroke-width="0.1" fill="none" />
<path d="M244.81422266944986,9.539202207365717 L167.52846954545623,178.77139561953734" stroke="#0d6d4d" stroke-width="0.1" fill="none" />
<path d="M244.70195336612662,12.081143108248654 L124.87936637449634,210.78459112066116" stroke="#0d6d4d" stroke-width="0.1" fill="none" />
<path d="M244.56329144187617,14.621780983037858 L76.313882043116,232.81149328911874" stroke="#0d6d4d" stroke-width="0.1" fill="none" />
<path d="M244.3982518522457,17.16084180820626 L24.132892387626,243.8085386220246" stroke="#0d6d4d" stroke-width="0.1" fill="none" />
<path d="M244.20685239777688,19.698051730321353 L-29.19143578737935,243.2547226194618" stroke="#0d6d4d" stroke-width="0.1" fill="none" />
<path d="M243.98911372208607,22.23313709558199 L-81.13276798993428,231.17628329543558" stroke="#0d6d4d" stroke-width="0.1" fill="none" />
<path d="M243.74505930963778,24.765824479333638 L-129.2302916117433,208.14545810548879" stroke="#0d6d4d" stroke-width="0.1" fill="none" />
<path d="M243.4747154832116,27.295840715558853 L-171.2053012839337,175.253373183735" stroke="#0d6d4d" stroke-width="0.1" fill="none" />
<path d="M243.17811140106326,29.822912926340173 L-205.06915657980576,134.0583493097208" stroke="#0d6d4d" stroke-width="0.1" fill="none" />
<path d="M242.85527905377964,32.34676855129133 L-229.21749737720037,86.51207370149635" stroke="#0d6d4d" stroke-width="0.1" fill="none" />
<path d="M242.50625326082854,34.86713537695483 L-242.50625326082852,34.867135376954884" stroke="#0d6d4d" stroke-width="0.1" fill="none" />
<path d="M242.13107166680285,37.38374156616181 L-244.30584588450003,-18.429695240532865" stroke="#0d6d4d" stroke-width="0.1" fill="none" />
<path d="M241.72977473736083,39.8963156873512 L-234.53101636034395,-70.85338640449078" stroke="#0d6d4d" stroke-width="0.1" fill="none" />
<path d="M241.3024057548612,42.404586743845584 L-213.64486454962645,-119.92027289650304" stroke="#0d6d4d" stroke-width="0.1" fill="none" />
<path d="M240.84901081369512,44.908284203079624 L-182.63690888661014,-163.30572406484737" stroke="#0d6d4d" stroke-width="0.1" fill="none" />
<path d="M240.3696388153145,47.407138025778906 L-142.97620619015905,-198.95427731885817" stroke="#0d6d4d" stroke-width="0.1" fill="none" />
<path d="M239.86434146295778,49.90087869508506 L-96.54175249504294,-225.17701930966638" stroke="#0d6d4d" stroke-width="0.1" fill="none" />
<path d="M239.3331732560733,52.38923724562504 L-45.53346228683378,-240.7316011913963" stroke="#0d6d4d" stroke-width="0.1" fill="none" />
<path d="M238.7761914844414,54.87194529252055 L7.6320563432005875,-244.88109709811047" stroke="#0d6d4d" stroke-width="0.1" fill="none" />
<path d="M238.19345622199504,57.348735060335294 L60.43599278656061,-237.42891731190366" stroke="#0d6d4d" stroke-width="0.1" fill="none" />
<path d="M237.58503032034073,59.81933941195584 L110.37666703125257,-218.7281220489766" stroke="#0d6d4d" stroke-width="0.1" fill="none" />
<path d="M236.9509794019795,62.28349187740426 L155.08805118317323,-189.6646946065752" stroke="#0d6d4d" stroke-width="0.1" fill="none" />
<path d="M236.29137185322912,64.74092668257855 L192.45186422815206,-151.61556633508624" stroke="#0d6d4d" stroke-width="0.1" fill="none" />
<path d="M235.60627881684815,67.1913787779178 L220.6979293467627,-106.38338207657881" stroke="#0d6d4d" stroke-width="0.1" fill="none" />
<path d="M234.8957741843628,69.63458386698976 L238.48803917636835,-56.11109667268138" stroke="#0d6d4d" stroke-width="0.1" fill="none" />
<path d="M234.1599345880974,72.0702784349966 L244.97935575507515,-3.1804486834931183" stroke="#0d6d4d" stroke-width="0.1" fill="none" />
<path d="M233.39883939290888,74.49819977719677 L239.86434146295778,49.90087869508506" stroke="#0d6d4d" stroke-width="0.1" fill="none" />
<path d="M232.6125706876269,76.91808602723921 L223.38532916149487,100.61806356420597" stroke="#0d6d4d" stroke-width="0.1" fill="none" />
<path d="M231.80121327620014,79.32967618540728 L196.32304124505166,146.56828946362762" stroke="#0d6d4d" stroke-width="0.1" fill="none" />
<path d="M230.96485466854955,81.7327101467692 L159.95960153468093,185.57458305723364" stroke="#0d6d4d" stroke-width="0.1" fill="none" />
<path d="M230.10358507112986,84.12692872923212 L116.01779239128398,215.78895210054878" stroke="#0d6d4d" stroke-width="0.1" fill="none" />
<path d="M229.2174973772004,86.51207370149629 L66.5794348499802,235.77993734636803" stroke="#0d6d4d" stroke-width="0.1" fill="none" />
<path d="M228.30668715680582,88.88788781090706 L13.986758661378156,244.60043046190324" stroke="#0d6d4d" stroke-width="0.1" fill="none" />
<path d="M227.37125264646838,91.25411481120098 L-39.26856499126825,241.83254496350682" stroke="#0d6d4d" stroke-width="0.1" fill="none" />
<path d="M226.41129473859243,93.61049949014385 L-90.66347082745665,227.6074143289689" stroke="#0d6d4d" stroke-width="0.1" fill="none" />
<path d="M225.42691697058268,95.95678769705673 L-137.76303415579403,202.59897931675155" stroke="#0d6d4d" stroke-width="0.1" fill="none" />
<path d="M224.41822551367696,98.2927263702276 L-178.33582974383503,167.9920588289157" stroke="#0d6d4d" stroke-width="0.1" fill="none" />
<path d="M223.38532916149487,100.61806356420597 L-210.45964954062916,125.42621701715937" stroke="#0d6d4d" stroke-width="0.1" fill="none" />
<path d="M222.328339318304,102.93254847697631 L-232.61257068762686,76.91808602723943" stroke="#0d6d4d" stroke-width="0.1" fill="none" />
<path d="M221.24736998700408,105.23593147700893 L-243.74505930963778,24.76582447933364" stroke="#0d6d4d" stroke-width="0.1" fill="none" />
<path d="M220.14253775683116,107.52796413018413 L-243.32969404103483,-28.55976186694099" stroke="#0d6d4d" stroke-width="0.1" fill="none" />
<path d="M219.01396179078262,109.80839922658743 L-231.38615354708682,-80.53227891152693" stroke="#0d6d4d" stroke-width="0.1" fill="none" />
<path d="M217.86176381276493,112.07699080717252 L-208.4802842123374,-128.68943660900464" stroke="#0d6d4d" stroke-width="0.1" fill="none" />
<path d="M216.6860680944645,114.33349419029007 L-175.69729216594612,-170.74970432054684" stroke="#0d6d4d" stroke-width="0.1" fill="none" />
<path d="M215.48700144194495,116.57766599807704 L-134.59032971927107,-204.7204023688355" stroke="#0d6d4d" stroke-width="0.1" fill="none" />
<path d="M214.26469318196968,118.80926418270757 L-87.10691202427329,-228.99210876708287" stroke="#0d6d4d" stroke-width="0.1" fill="none" />
<path d="M213.01927514805328,121.02804805249887 L-35.496650093876944,-242.4149084361621" stroke="#0d6d4d" stroke-width="0.1" fill="none" />
<path d="M211.75088166624266,123.23377829787127 L17.795328504136634,-244.3528724681375" stroke="#0d6d4d" stroke-width="0.1" fill="none" />
<path d="M210.45964954062913,125.4262170171594 L70.24422189630724,-234.71418638459488" stroke="#0d6d4d" stroke-width="0.1" fill="none" />
<path d="M209.14571803859306,127.60512774227114 L119.36517086402098,-213.95550001017287" stroke="#0d6d4d" stroke-width="0.1" fill="none" />
<path d="M207.80922887578302,129.77027546419257 L162.83098345001704,-183.06029287833087" stroke="#0d6d4d" stroke-width="0.1" fill="none" />
<path d="M206.45032620083123,131.9214266583347 L198.58238979913804,-143.49228014657515" stroke="#0d6d4d" stroke-width="0.1" fill="none" />
<path d="M205.0691565798058,134.0583493097207 L224.92560371496654,-97.12606649843198" stroke="#0d6d4d" stroke-width="0.1" fill="none" />
<path d="M203.66586898040285,136.18081293801043 L240.61256878080724,-46.15833342638485" stroke="#0d6d4d" stroke-width="0.1" fill="none" />
<path d="M202.24061475587962,138.28858862235847 L244.90008724290635,6.9962324444555515" stroke="#0d6d4d" stroke-width="0.1" fill="none" />
<path d="M200.79354762872967,140.38144902610554 L237.58503032034073,59.81933941195584" stroke="#0d6d4d" stroke-width="0.1" fill="none" />
<path d="M199.32482367410338,142.45916842129745 L219.01396179078262,109.80839922658743" stroke="#0d6d4d" stroke-width="0.1" fill="none" />
<path d="M197.83460130297382,144.52152271303186 L190.06671891772092,154.59509164217366" stroke="#0d6d4d" stroke-width="0.1" fill="none" />
<path d="M196.32304124505166,146.56828946362762 L152.11472860179103,192.05756778217162" stroke="#0d6d4d" stroke-width="0.1" fill="none" />
<path d="M194.79030653144906,148.59924791661672 L106.95603360237304,220.42097648828263" stroke="#0d6d4d" stroke-width="0.1" fill="none" />
<path d="M193.23656247709596,150.6141790205537 L56.73010707728635,238.3415510375806" stroke="#0d6d4d" stroke-width="0.1" fill="none" />
<path d="M191.6619766629098,152.612865452642 L3.816491252638635,244.97027247100522" stroke="#0d6d4d" stroke-width="0.1" fill="none" />
<path d="M190.06671891772092,154.59509164217366 L-49.277937604630665,239.99309337027623" stroke="#0d6d4d" stroke-width="0.1" fill="none" />
<path d="M188.45096129995534,156.5606437937796 L-100.03773688991683,223.64581641055523" stroke="#0d6d4d" stroke-width="0.1" fill="none" />
<path d="M186.81487807907732,158.5093099104891 L-146.0580712095359,196.70292279107125" stroke="#0d6d4d" stroke-width="0.1" fill="none" />
<path d="M185.1586457167933,160.44087981659482 L-185.1586457167933,160.4408798165948" stroke="#0d6d4d" stroke-width="0.1" fill="none" />
<path d="M183.48244284801933,162.35514518032164 L-215.48700144194498,116.57766599807698" stroke="#0d6d4d" stroke-width="0.1" fill="none" />
<path d="M181.7864502616143,164.25189953629646 L-235.60627881684815,67.19137877791775" stroke="#0d6d4d" stroke-width="0.1" fill="none" />
<path d="M180.07085088088067,166.1309383078168 L-244.56329144187617,14.621780983037864" stroke="#0d6d4d" stroke-width="0.1" fill="none" />
<path d="M178.33582974383512,167.99205882891565 L-241.9336849798247,-38.64054958308613" stroke="#0d6d4d" stroke-width="0.1" fill="none" />
<path d="M176.58157398325088,169.83506036622032 L-227.8420416942258,-90.07221567501641" stroke="#0d6d4d" stroke-width="0.1" fill="none" />
<path d="M174.80827280647458,171.65974414060264 L-202.95597814396137,-137.23655101913582" stroke="#0d6d4d" stroke-width="0.1" fill="none" />
<path d="M173.01611747501897,173.46591334861856 L-168.45451566634563,-177.89906169403176" stroke="#0d6d4d" stroke-width="0.1" fill="none" />
<path d="M171.20530128393384,175.25337318373488 L-125.97222215306194,-210.13328923761605" stroke="#0d6d4d" stroke-width="0.1" fill="none" />
<path d="M169.37601954095848,177.02193085733998 L-77.52177150125127,-232.41208002878807" stroke="#0d6d4d" stroke-width="0.1" fill="none" />
<path d="M167.52846954545623,178.77139561953734 L-25.398589622914344,-243.67993689503203" stroke="#0d6d4d" stroke-width="0.1" fill="none" />
<path d="M165.6628505671347,180.50157877971924 L27.927895423182452,-243.4030251603948" stroke="#0d6d4d" stroke-width="0.1" fill="none" />
<path d="M163.77936382455312,182.21229372691806 L79.93124695948536,-231.59446400875336" stroke="#0d6d4d" stroke-width="0.1" fill="none" />
<path d="M161.8782124634196,183.90335594993363 L128.14771410191779,-208.81370493924277" stroke="#0d6d4d" stroke-width="0.1" fill="none" />
<path d="M159.95960153468093,185.57458305723364 L170.29295632165253,-176.1400267606195" stroke="#0d6d4d" stroke-width="0.1" fill="none" />
<path d="M158.0237379724062,187.225794796626 L204.37026812354443,-135.1214028461463" stroke="#0d6d4d" stroke-width="0.1" fill="none" />
<path d="M156.07083057146798,188.8568130746999 L228.7651765054014,-87.70116315336152" stroke="#0d6d4d" stroke-width="0.1" fill="none" />
<path d="M154.10108996502242,190.4674619760343 L242.32192947591543,-36.12592552543767" stroke="#0d6d4d" stroke-width="0.1" fill="none" />
<path d="M152.11472860179103,192.05756778217162 L244.3982518522457,17.16084180820626" stroke="#0d6d4d" stroke-width="0.1" fill="none" />
<path d="M150.1119607231469,193.62695899035447 L234.8957741843628,69.63458386698976" stroke="#0d6d4d" stroke-width="0.1" fill="none" />
<path d="M148.09300234000736,195.17546633202284 L214.26469318196968,118.80926418270757" stroke="#0d6d4d" stroke-width="0.1" fill="none" />
<path d="M146.05807120953597,196.70292279107122 L183.48244284801933,162.35514518032164" stroke="#0d6d4d" stroke-width="0.1" fill="none" />
<path d="M144.00738681165595,198.2091636218621 L144.00738681165595,198.2091636218621" stroke="#0d6d4d" stroke-width="0.1" fill="none" />
<path d="M141.94117032537795,199.6940263669949 L97.70972576832264,224.6726718812931" stroke="#0d6d4d" stroke-width="0.1" fill="none" />
<path d="M139.85964460494455,201.15735087482784 L46.78289340943382,240.49191438433343" stroke="#0d6d4d" stroke-width="0.1" fill="none" />
<path d="M137.7630341557941,202.59897931675155 L-6.360361383626235,244.91742649936054" stroke="#0d6d4d" stroke-width="0.1" fill="none" />
<path d="M135.65156511034618,204.01875620421154 L-59.20228279106743,237.73954175173822" stroke="#0d6d4d" stroke-width="0.1" fill="none" />
<path d="M133.5254652036122,205.41652840547894 L-109.2393911959463,219.29832514440005" stroke="#0d6d4d" stroke-width="0.1" fill="none" />
<path d="M131.38496374863243,206.79214516216652 L-154.1010899650223,190.46746197603437" stroke="#0d6d4d" stroke-width="0.1" fill="none" />
<path d="M129.23029161174335,208.14545810548876 L-191.6619766629098,152.61286545264198" stroke="#0d6d4d" stroke-width="0.1" fill="none" />
<path d="M127.06168118767705,209.47632127226484 L-220.1425377568311,107.52796413018429" stroke="#0d6d4d" stroke-width="0.1" fill="none" />
<path d="M124.87936637449634,210.78459112066116 L-238.19345622199504,57.3487350603353" stroke="#0d6d4d" stroke-width="0.1" fill="none" />
<path d="M122.68358254836751,212.0701265456733 L-244.95953782547014,4.45250809455381" stroke="#0d6d4d" stroke-width="0.1" fill="none" />
<path d="M120.47456653817291,213.3327888943454 L-240.1202274676364,-48.65466432820765" stroke="#0d6d4d" stroke-width="0.1" fill="none" />
<path d="M118.25255659996803,214.57244198072445 L-223.90479604777636,-99.45673585435871" stroke="#0d6d4d" stroke-width="0.1" fill="none" />
<path d="M116.01779239128398,215.78895210054878 L-197.08147834915155,-145.54686836793468" stroke="#0d6d4d" stroke-width="0.1" fill="none" />
<path d="M113.77051494527898,216.98218804566898 L-160.9210765554967,-184.7414602091798" stroke="#0d6d4d" stroke-width="0.1" fill="none" />
<path d="M111.51096664474109,218.15202111819968 L-117.13675374680092,-215.18359817063504" stroke="#0d6d4d" stroke-width="0.1" fill="none" />
<path d="M109.23939119594634,219.29832514440002 L-67.80286976414708,-235.43103204918867" stroke="#0d6d4d" stroke-width="0.1" fill="none" />
<path d="M106.95603360237304,220.42097648828263 L-15.256704738265826,-244.5245038038711" stroke="#0d6d4d" stroke-width="0.1" fill="none" />
<path d="M104.6611401382768,221.5198540649483 L38.01227369630053,-242.03319410452266" stroke="#0d6d4d" stroke-width="0.1" fill="none" />
<path d="M102.35495832212827,222.5948393536458 L89.48035333957161,-228.0751331606" stroke="#0d6d4d" stroke-width="0.1" fill="none" />
<path d="M100.03773688991669,223.6458164105553 L136.70914276144285,-203.31160883095546" stroke="#0d6d4d" stroke-width="0.1" fill="none" />
<path d="M97.70972576832264,224.6726718812931 L177.4610944144109,-168.91583694029268" stroke="#0d6d4d" stroke-width="0.1" fill="none" />
<path d="M95.37117604776094,225.67529501313828 L209.80551241163928,-126.51737810154567" stroke="#0d6d4d" stroke-width="0.1" fill="none" />
<path d="M93.02233995529994,226.65357766697753 L232.2100226641236,-78.12493439566656" stroke="#0d6d4d" stroke-width="0.1" fill="none" />
<path d="M90.66347082745679,227.60741432896884 L243.61317181720204,-26.031183552854344" stroke="#0d6d4d" stroke-width="0.1" fill="none" />
<path d="M88.29482308287366,228.53670212192185 L243.4747154832116,27.295840715558853" stroke="#0d6d4d" stroke-width="0.1" fill="none" />
<path d="M85.91665219487706,229.4413408163937 L231.80121327620014,79.32967618540728" stroke="#0d6d4d" stroke-width="0.1" fill="none" />
<path d="M83.52921466392351,230.3212328414994 L209.14571803859306,127.60512774227114" stroke="#0d6d4d" stroke-width="0.1" fill="none" />
<path d="M81.13276798993434,231.17628329543558 L176.58157398325088,169.83506036622032" stroke="#0d6d4d" stroke-width="0.1" fill="none" />
<path d="M78.72757064452283,232.006399955716 L135.65156511034618,204.01875620421154" stroke="#0d6d4d" stroke-width="0.1" fill="none" />
<path d="M76.313882043116,232.81149328911874 L88.29482308287366,228.53670212192185" stroke="#0d6d4d" stroke-width="0.1" fill="none" />
<path d="M73.89196251697595,233.59147646134227 L36.75495742964849,242.22731700686595" stroke="#0d6d4d" stroke-width="0.1" fill="none" />
<path d="M71.46207328512067,234.3462653463717 L-16.526239429860244,244.44198373091913" stroke="#0d6d4d" stroke-width="0.1" fill="none" />
<path d="M69.02447642615026,235.07577853555185 L-69.02447642615022,235.07577853555188" stroke="#0d6d4d" stroke-width="0.1" fill="none" />
<path d="M66.5794348499802,235.77993734636803 L-118.25255659996807,214.57244198072442" stroke="#0d6d4d" stroke-width="0.1" fill="none" />
<path d="M64.12721226948479,236.45866583093215 L-161.87821246341954,183.90335594993365" stroke="#0d6d4d" stroke-width="0.1" fill="none" />
<path d="M61.668073172054235,237.11189078417422 L-197.83460130297374,144.521522713032" stroke="#0d6d4d" stroke-width="0.1" fill="none" />
<path d="M59.20228279106759,237.7395417517382 L-224.41822551367687,98.29272637022775" stroke="#0d6d4d" stroke-width="0.1" fill="none" />
<path d="M56.73010707728635,238.3415510375806 L-240.36963881531452,47.407138025778856" stroke="#0d6d4d" stroke-width="0.1" fill="none" />
<path d="M54.25181267016959,238.91785371127213 L-244.93311475058792,-5.7244474471628495" stroke="#0d6d4d" stroke-width="0.1" fill="none" />
<path d="M51.767666869115345,239.46838761500086 L-237.8924505645239,-58.58482708351668" stroke="#0d6d4d" stroke-width="0.1" fill="none" />
<path d="M49.277937604630615,239.99309337027626 L-219.58121019291607,-108.66964677505126" stroke="#0d6d4d" stroke-width="0.1" fill="none" />
<path d="M46.78289340943382,240.49191438433343 L-190.86692108007892,-153.6060494818187" stroke="#0d6d4d" stroke-width="0.1" fill="none" />
<path d="M44.282803389491356,240.96479685623717 L-153.10997352966453,-191.26509353707337" stroke="#0d6d4d" stroke-width="0.1" fill="none" />
<path d="M41.77793719499287,241.4116897826848 L-108.09916980458924,-219.8626150293828" stroke="#0d6d4d" stroke-width="0.1" fill="none" />
<path d="M39.268564991268306,241.8325449635068 L-57.96697645161477,-238.043755727929" stroke="#0d6d4d" stroke-width="0.1" fill="none" />
<path d="M36.75495742964849,242.22731700686595 L-5.088494921805724,-244.94715189083288" stroke="#0d6d4d" stroke-width="0.1" fill="none" />
<path d="M34.23738561827386,242.5959633341528 L48.03106306734404,-240.24574289801853" stroke="#0d6d4d" stroke-width="0.1" fill="none" />
<path d="M31.716121092853708,242.93844418457826 L98.87506437409985,-224.1622663273585" stroke="#0d6d4d" stroke-width="0.1" fill="none" />
<path d="M29.19143578737941,243.2547226194618 L145.03468438487755,-197.4587053674235" stroke="#0d6d4d" stroke-width="0.1" fill="none" />
<path d="M26.663602004794658,243.54476452621583 L184.32302934666947,-161.4001885143472" stroke="#0d6d4d" stroke-width="0.1" fill="none" />
<path d="M24.132892387626,243.8085386220246 L214.87874433188128,-117.69505186860661" stroke="#0d6d4d" stroke-width="0.1" fill="none" />
<path d="M21.599579888576116,244.04601645721863 L235.2541982247403,-68.41390368656508" stroke="#0d6d4d" stroke-width="0.1" fill="none" />
<path d="M19.063937741085272,244.25717241834278 L244.48406780935815,-15.891525646997042" stroke="#0d6d4d" stroke-width="0.1" fill="none" />
<path d="M16.526239429860304,244.44198373091913 L242.13107166680285,37.38374156616181" stroke="#0d6d4d" stroke-width="0.1" fill="none" />
<path d="M13.986758661378156,244.60043046190324 L228.30668715680582,88.88788781090706" stroke="#0d6d4d" stroke-width="0.1" fill="none" />
<path d="M11.445769334364815,244.73249552183404 L203.66586898040285,136.18081293801043" stroke="#0d6d4d" stroke-width="0.1" fill="none" />
<path d="M8.903545510253648,244.838164666677 L169.37601954095848,177.02193085733998" stroke="#0d6d4d" stroke-width="0.1" fill="none" />
<path d="M6.360361383626294,244.91742649936054 L127.06168118767705,209.47632127226484" stroke="#0d6d4d" stroke-width="0.1" fill="none" />
<path d="M3.816491252638635,244.97027247100522 L78.72757064452283,232.006399955716" stroke="#0d6d4d" stroke-width="0.1" fill="none" />
<path d="M1.2722094894366947,244.9966968818457 L26.663602004794658,243.54476452621583" stroke="#0d6d4d" stroke-width="0.1" fill="none" />
<path d="M-1.272209489436526,244.9966968818457 L-26.663602004794598,243.54476452621583" stroke="#0d6d4d" stroke-width="0.1" fill="none" />
<path d="M-3.8164912526384662,244.97027247100522 L-78.72757064452277,232.00639995571603" stroke="#0d6d4d" stroke-width="0.1" fill="none" />
<path d="M-6.360361383626235,244.91742649936054 L-127.0616811876769,209.47632127226493" stroke="#0d6d4d" stroke-width="0.1" fill="none" />
<path d="M-8.903545510253696,244.838164666677 L-169.37601954095845,177.02193085734" stroke="#0d6d4d" stroke-width="0.1" fill="none" />
<path d="M-11.445769334364753,244.73249552183404 L-203.6658689804028,136.18081293801052" stroke="#0d6d4d" stroke-width="0.1" fill="none" />
<path d="M-13.986758661378095,244.60043046190324 L-228.30668715680585,88.88788781090695" stroke="#0d6d4d" stroke-width="0.1" fill="none" />
<path d="M-16.526239429860244,244.44198373091913 L-242.13107166680285,37.38374156616192" stroke="#0d6d4d" stroke-width="0.1" fill="none" />
<path d="M-19.063937741085212,244.25717241834278 L-244.48406780935815,-15.891525646997094" stroke="#0d6d4d" stroke-width="0.1" fill="none" />
<path d="M-21.599579888576052,244.04601645721863 L-235.2541982247403,-68.41390368656513" stroke="#0d6d4d" stroke-width="0.1" fill="none" />
<path d="M-24.13289238762583,243.80853862202463 L-214.87874433188128,-117.6950518686066" stroke="#0d6d4d" stroke-width="0.1" fill="none" />
<path d="M-26.663602004794598,243.54476452621583 L-184.3230293466695,-161.40018851434718" stroke="#0d6d4d" stroke-width="0.1" fill="none" />
<path d="M-29.19143578737935,243.2547226194618 L-145.03468438487755,-197.4587053674235" stroke="#0d6d4d" stroke-width="0.1" fill="none" />
<path d="M-31.716121092853655,242.93844418457826 L-98.87506437409986,-224.1622663273585" stroke="#0d6d4d" stroke-width="0.1" fill="none" />
<path d="M-34.237385618273805,242.59596333415283 L-48.031063067344306,-240.24574289801848" stroke="#0d6d4d" stroke-width="0.1" fill="none" />
<path d="M-36.754957429648435,242.22731700686595 L5.088494921805654,-244.94715189083288" stroke="#0d6d4d" stroke-width="0.1" fill="none" />
<path d="M-39.26856499126825,241.83254496350682 L57.96697645161471,-238.04375572792904" stroke="#0d6d4d" stroke-width="0.1" fill="none" />
<path d="M-41.777937194992816,241.4116897826848 L108.09916980458921,-219.86261502938282" stroke="#0d6d4d" stroke-width="0.1" fill="none" />
<path d="M-44.28280338949131,240.96479685623717 L153.10997352966453,-191.26509353707337" stroke="#0d6d4d" stroke-width="0.1" fill="none" />
<path d="M-46.782893409433875,240.4919143843334 L190.8669210800789,-153.6060494818187" stroke="#0d6d4d" stroke-width="0.1" fill="none" />
<path d="M-49.277937604630665,239.99309337027623 L219.581210192916,-108.66964677505145" stroke="#0d6d4d" stroke-width="0.1" fill="none" />
<path d="M-51.76766686911518,239.4683876150009 L237.8924505645239,-58.584827083516686" stroke="#0d6d4d" stroke-width="0.1" fill="none" />
<path d="M-54.251812670169436,238.91785371127216 L244.93311475058792,-5.724447447163018" stroke="#0d6d4d" stroke-width="0.1" fill="none" />
<path d="M-56.73010707728619,238.34155103758062 L240.3696388153145,47.407138025778906" stroke="#0d6d4d" stroke-width="0.1" fill="none" />
<path d="M-59.20228279106743,237.73954175173822 L224.41822551367696,98.2927263702276" stroke="#0d6d4d" stroke-width="0.1" fill="none" />
<path d="M-61.668073172054186,237.11189078417422 L197.83460130297382,144.52152271303186" stroke="#0d6d4d" stroke-width="0.1" fill="none" />
<path d="M-64.12721226948473,236.45866583093215 L161.8782124634196,183.90335594993363" stroke="#0d6d4d" stroke-width="0.1" fill="none" />
<path d="M-66.57943484998026,235.77993734636803 L118.25255659996803,214.57244198072445" stroke="#0d6d4d" stroke-width="0.1" fill="none" />
<path d="M-69.02447642615022,235.07577853555188 L69.02447642615026,235.07577853555185" stroke="#0d6d4d" stroke-width="0.1" fill="none" />
<path d="M-71.46207328512061,234.3462653463717 L16.526239429860304,244.44198373091913" stroke="#0d6d4d" stroke-width="0.1" fill="none" />
<path d="M-73.89196251697601,233.59147646134224 L-36.754957429648435,242.22731700686595" stroke="#0d6d4d" stroke-width="0.1" fill="none" />
<path d="M-76.31388204311594,232.81149328911877 L-88.2948230828736,228.53670212192185" stroke="#0d6d4d" stroke-width="0.1" fill="none" />
<path d="M-78.72757064452277,232.00639995571603 L-135.65156511034616,204.01875620421157" stroke="#0d6d4d" stroke-width="0.1" fill="none" />
<path d="M-81.13276798993428,231.17628329543558 L-176.5815739832509,169.8350603662203" stroke="#0d6d4d" stroke-width="0.1" fill="none" />
<path d="M-83.52921466392355,230.3212328414994 L-209.14571803859297,127.60512774227129" stroke="#0d6d4d" stroke-width="0.1" fill="none" />
<path d="M-85.91665219487702,229.4413408163937 L-231.80121327620012,79.3296761854074" stroke="#0d6d4d" stroke-width="0.1" fill="none" />
<path d="M-88.2948230828736,228.53670212192185 L-243.47471548321158,27.29584071555902" stroke="#0d6d4d" stroke-width="0.1" fill="none" />
<path d="M-90.66347082745665,227.6074143289689 L-243.61317181720204,-26.031183552854394" stroke="#0d6d4d" stroke-width="0.1" fill="none" />
<path d="M-93.02233995529988,226.65357766697753 L-232.21002266412364,-78.12493439566641" stroke="#0d6d4d" stroke-width="0.1" fill="none" />
<path d="M-95.3711760477608,225.67529501313834 L-209.80551241163928,-126.5173781015457" stroke="#0d6d4d" stroke-width="0.1" fill="none" />
<path d="M-97.7097257683226,224.67267188129313 L-177.46109441441104,-168.9158369402925" stroke="#0d6d4d" stroke-width="0.1" fill="none" />
<path d="M-100.03773688991683,223.64581641055523 L-136.70914276144285,-203.31160883095546" stroke="#0d6d4d" stroke-width="0.1" fill="none" />
<path d="M-102.35495832212821,222.59483935364582 L-89.48035333957161,-228.0751331606" stroke="#0d6d4d" stroke-width="0.1" fill="none" />
<path d="M-104.66114013827675,221.5198540649483 L-38.01227369630055,-242.03319410452266" stroke="#0d6d4d" stroke-width="0.1" fill="none" />
<path d="M-106.9560336023729,220.42097648828272 L15.256704738265741,-244.5245038038711" stroke="#0d6d4d" stroke-width="0.1" fill="none" />
<path d="M-109.2393911959463,219.29832514440005 L67.802869764147,-235.4310320491887" stroke="#0d6d4d" stroke-width="0.1" fill="none" />
<path d="M-111.51096664474096,218.15202111819977 L117.13675374680086,-215.18359817063507" stroke="#0d6d4d" stroke-width="0.1" fill="none" />
<path d="M-113.77051494527893,216.982188045669 L160.92107655549668,-184.74146020917982" stroke="#0d6d4d" stroke-width="0.1" fill="none" />
<path d="M-116.01779239128392,215.7889521005488 L197.08147834915152,-145.54686836793474" stroke="#0d6d4d" stroke-width="0.1" fill="none" />
<path d="M-118.25255659996807,214.57244198072442 L223.90479604777636,-99.45673585435871" stroke="#0d6d4d" stroke-width="0.1" fill="none" />
<path d="M-120.47456653817285,213.33278889434544 L240.1202274676364,-48.65466432820766" stroke="#0d6d4d" stroke-width="0.1" fill="none" />
<path d="M-122.68358254836747,212.07012654567336 L244.95953782547014,4.452508094553858" stroke="#0d6d4d" stroke-width="0.1" fill="none" />
<path d="M-124.8793663744964,210.78459112066113 L238.19345622199504,57.348735060335294" stroke="#0d6d4d" stroke-width="0.1" fill="none" />
<path d="M-127.0616811876769,209.47632127226493 L220.14253775683116,107.52796413018413" stroke="#0d6d4d" stroke-width="0.1" fill="none" />
<path d="M-129.2302916117433,208.14545810548879 L191.6619766629098,152.612865452642" stroke="#0d6d4d" stroke-width="0.1" fill="none" />
<path d="M-131.38496374863237,206.79214516216655 L154.10108996502242,190.4674619760343" stroke="#0d6d4d" stroke-width="0.1" fill="none" />
<path d="M-133.52546520361227,205.4165284054789 L109.23939119594634,219.29832514440002" stroke="#0d6d4d" stroke-width="0.1" fill="none" />
<path d="M-135.65156511034616,204.01875620421157 L59.20228279106759,237.7395417517382" stroke="#0d6d4d" stroke-width="0.1" fill="none" />
<path d="M-137.76303415579403,202.59897931675155 L6.360361383626294,244.91742649936054" stroke="#0d6d4d" stroke-width="0.1" fill="none" />
<path d="M-139.8596446049444,201.15735087482796 L-46.782893409433875,240.4919143843334" stroke="#0d6d4d" stroke-width="0.1" fill="none" />
<path d="M-141.9411703253779,199.69402636699493 L-97.7097257683226,224.67267188129313" stroke="#0d6d4d" stroke-width="0.1" fill="none" />
<path d="M-144.00738681165598,198.20916362186207 L-144.00738681165598,198.20916362186207" stroke="#0d6d4d" stroke-width="0.1" fill="none" />
<path d="M-146.0580712095359,196.70292279107125 L-183.48244284801928,162.3551451803217" stroke="#0d6d4d" stroke-width="0.1" fill="none" />
<path d="M-148.09300234000742,195.1754663320228 L-214.26469318196965,118.80926418270764" stroke="#0d6d4d" stroke-width="0.1" fill="none" />
<path d="M-150.11196072314684,193.6269589903545 L-234.89577418436278,69.63458386698981" stroke="#0d6d4d" stroke-width="0.1" fill="none" />
<path d="M-152.11472860179097,192.05756778217167 L-244.3982518522457,17.16084180820637" stroke="#0d6d4d" stroke-width="0.1" fill="none" />
<path d="M-154.1010899650223,190.46746197603437 L-242.32192947591543,-36.125925525437566" stroke="#0d6d4d" stroke-width="0.1" fill="none" />
<path d="M-156.07083057146795,188.85681307469991 L-228.76517650540143,-87.70116315336142" stroke="#0d6d4d" stroke-width="0.1" fill="none" />
<path d="M-158.02373797240608,187.2257947966261 L-204.3702681235444,-135.12140284614634" stroke="#0d6d4d" stroke-width="0.1" fill="none" />
<path d="M-159.9596015346809,185.57458305723367 L-170.29295632165264,-176.14002676061938" stroke="#0d6d4d" stroke-width="0.1" fill="none" />
<path d="M-161.87821246341954,183.90335594993365 L-128.14771410191776,-208.8137049392428" stroke="#0d6d4d" stroke-width="0.1" fill="none" />
<path d="M-163.77936382455317,182.21229372691803 L-79.93124695948555,-231.5944640087533" stroke="#0d6d4d" stroke-width="0.1" fill="none" />
<path d="M-165.66285056713477,180.50157877971918 L-27.927895423182456,-243.4030251603948" stroke="#0d6d4d" stroke-width="0.1" fill="none" />
<path d="M-167.52846954545618,178.7713956195374 L25.398589622914244,-243.67993689503203" stroke="#0d6d4d" stroke-width="0.1" fill="none" />
<path d="M-169.37601954095845,177.02193085734 L77.5217715012512,-232.4120800287881" stroke="#0d6d4d" stroke-width="0.1" fill="none" />
<path d="M-171.2053012839337,175.253373183735 L125.9722221530619,-210.13328923761608" stroke="#0d6d4d" stroke-width="0.1" fill="none" />
<path d="M-173.01611747501892,173.46591334861859 L168.45451566634557,-177.8990616940318" stroke="#0d6d4d" stroke-width="0.1" fill="none" />
<path d="M-174.80827280647452,171.6597441406027 L202.95597814396137,-137.23655101913587" stroke="#0d6d4d" stroke-width="0.1" fill="none" />
<path d="M-176.5815739832509,169.8350603662203 L227.8420416942258,-90.07221567501641" stroke="#0d6d4d" stroke-width="0.1" fill="none" />
<path d="M-178.33582974383503,167.9920588289157 L241.93368497982468,-38.640549583086354" stroke="#0d6d4d" stroke-width="0.1" fill="none" />
<path d="M-180.07085088088064,166.13093830781688 L244.56329144187617,14.621780983037858" stroke="#0d6d4d" stroke-width="0.1" fill="none" />
<path d="M-181.7864502616142,164.2518995362966 L235.60627881684815,67.1913787779178" stroke="#0d6d4d" stroke-width="0.1" fill="none" />
<path d="M-183.48244284801928,162.3551451803217 L215.48700144194495,116.57766599807704" stroke="#0d6d4d" stroke-width="0.1" fill="none" />
<path d="M-185.1586457167933,160.4408798165948 L185.1586457167933,160.44087981659482" stroke="#0d6d4d" stroke-width="0.1" fill="none" />
<path d="M-186.81487807907726,158.50930991048918 L146.05807120953597,196.70292279107122" stroke="#0d6d4d" stroke-width="0.1" fill="none" />
<path d="M-188.45096129995537,156.56064379377958 L100.03773688991669,223.6458164105553" stroke="#0d6d4d" stroke-width="0.1" fill="none" />
<path d="M-190.06671891772086,154.5950916421737 L49.277937604630615,239.99309337027626" stroke="#0d6d4d" stroke-width="0.1" fill="none" />
<path d="M-191.6619766629098,152.61286545264198 L-3.8164912526384662,244.97027247100522" stroke="#0d6d4d" stroke-width="0.1" fill="none" />
<path d="M-193.2365624770959,150.61417902055376 L-56.73010707728619,238.34155103758062" stroke="#0d6d4d" stroke-width="0.1" fill="none" />
<path d="M-194.79030653144906,148.5992479166167 L-106.9560336023729,220.42097648828272" stroke="#0d6d4d" stroke-width="0.1" fill="none" />
<path d="M-196.3230412450516,146.5682894636277 L-152.11472860179097,192.05756778217167" stroke="#0d6d4d" stroke-width="0.1" fill="none" />
<path d="M-197.83460130297374,144.521522713032 L-190.06671891772086,154.5950916421737" stroke="#0d6d4d" stroke-width="0.1" fill="none" />
<path d="M-199.32482367410321,142.4591684212977 L-219.0139617907826,109.80839922658748" stroke="#0d6d4d" stroke-width="0.1" fill="none" />
<path d="M-200.79354762872964,140.3814490261056 L-237.5850303203407,59.81933941195595" stroke="#0d6d4d" stroke-width="0.1" fill="none" />
<path d="M-202.24061475587962,138.28858862235845 L-244.90008724290635,6.996232444455666" stroke="#0d6d4d" stroke-width="0.1" fill="none" />
<path d="M-203.6658689804028,136.18081293801052 L-240.61256878080724,-46.158333426384736" stroke="#0d6d4d" stroke-width="0.1" fill="none" />
<path d="M-205.06915657980576,134.0583493097208 L-224.92560371496648,-97.12606649843208" stroke="#0d6d4d" stroke-width="0.1" fill="none" />
<path d="M-206.45032620083114,131.92142665833484 L-198.58238979913813,-143.492280146575" stroke="#0d6d4d" stroke-width="0.1" fill="none" />
<path d="M-207.809228875783,129.77027546419265 L-162.83098345001702,-183.0602928783309" stroke="#0d6d4d" stroke-width="0.1" fill="none" />
<path d="M-209.14571803859297,127.60512774227129 L-119.36517086402112,-213.95550001017278" stroke="#0d6d4d" stroke-width="0.1" fill="none" />
<path d="M-210.45964954062916,125.42621701715937 L-70.2442218963072,-234.7141863845949" stroke="#0d6d4d" stroke-width="0.1" fill="none" />
<path d="M-211.75088166624263,123.23377829787135 L-17.795328504136616,-244.3528724681375" stroke="#0d6d4d" stroke-width="0.1" fill="none" />
<path d="M-213.01927514805328,121.02804805249885 L35.496650093876816,-242.41490843616214" stroke="#0d6d4d" stroke-width="0.1" fill="none" />
<path d="M-214.26469318196965,118.80926418270764 L87.10691202427317,-228.9921087670829" stroke="#0d6d4d" stroke-width="0.1" fill="none" />
<path d="M-215.48700144194498,116.57766599807698 L134.590329719271,-204.72040236883552" stroke="#0d6d4d" stroke-width="0.1" fill="none" />
<path d="M-216.68606809446447,114.3334941902901 L175.69729216594604,-170.74970432054693" stroke="#0d6d4d" stroke-width="0.1" fill="none" />
<path d="M-217.8617638127648,112.07699080717276 L208.48028421233735,-128.68943660900473" stroke="#0d6d4d" stroke-width="0.1" fill="none" />
<path d="M-219.0139617907826,109.80839922658748 L231.3861535470868,-80.53227891152699" stroke="#0d6d4d" stroke-width="0.1" fill="none" />
<path d="M-220.1425377568311,107.52796413018429 L243.32969404103483,-28.55976186694104" stroke="#0d6d4d" stroke-width="0.1" fill="none" />
<path d="M-221.24736998700405,105.23593147700899 L243.74505930963778,24.765824479333638" stroke="#0d6d4d" stroke-width="0.1" fill="none" />
<path d="M-222.32833931830393,102.93254847697646 L232.6125706876269,76.91808602723921" stroke="#0d6d4d" stroke-width="0.1" fill="none" />
<path d="M-223.38532916149484,100.61806356420601 L210.45964954062913,125.4262170171594" stroke="#0d6d4d" stroke-width="0.1" fill="none" />
<path d="M-224.41822551367687,98.29272637022775 L178.33582974383512,167.99205882891565" stroke="#0d6d4d" stroke-width="0.1" fill="none" />
<path d="M-225.42691697058268,95.95678769705673 L137.7630341557941,202.59897931675155" stroke="#0d6d4d" stroke-width="0.1" fill="none" />
<path d="M-226.4112947385925,93.61049949014375 L90.66347082745679,227.60741432896884" stroke="#0d6d4d" stroke-width="0.1" fill="none" />
<path d="M-227.37125264646838,91.25411481120098 L39.268564991268306,241.8325449635068" stroke="#0d6d4d" stroke-width="0.1" fill="none" />
<path d="M-228.30668715680585,88.88788781090695 L-13.986758661378095,244.60043046190324" stroke="#0d6d4d" stroke-width="0.1" fill="none" />
<path d="M-229.21749737720037,86.51207370149635 L-66.57943484998026,235.77993734636803" stroke="#0d6d4d" stroke-width="0.1" fill="none" />
<path d="M-230.10358507112988,84.12692872923206 L-116.01779239128392,215.7889521005488" stroke="#0d6d4d" stroke-width="0.1" fill="none" />
<path d="M-230.96485466854952,81.73271014676925 L-159.9596015346809,185.57458305723367" stroke="#0d6d4d" stroke-width="0.1" fill="none" />
<path d="M-231.80121327620012,79.3296761854074 L-196.3230412450516,146.5682894636277" stroke="#0d6d4d" stroke-width="0.1" fill="none" />
<path d="M-232.61257068762686,76.91808602723943 L-223.38532916149484,100.61806356420601" stroke="#0d6d4d" stroke-width="0.1" fill="none" />
<path d="M-233.39883939290885,74.49819977719689 L-239.86434146295775,49.90087869508512" stroke="#0d6d4d" stroke-width="0.1" fill="none" />
<path d="M-234.15993458809734,72.0702784349968 L-244.97935575507515,-3.180448683493004" stroke="#0d6d4d" stroke-width="0.1" fill="none" />
<path d="M-234.89577418436278,69.63458386698981 L-238.48803917636837,-56.111096672681256" stroke="#0d6d4d" stroke-width="0.1" fill="none" />
<path d="M-235.60627881684815,67.19137877791775 L-220.69792934676272,-106.38338207657871" stroke="#0d6d4d" stroke-width="0.1" fill="none" />
<path d="M-236.2913718532291,64.7409266825786 L-192.45186422815215,-151.6155663350861" stroke="#0d6d4d" stroke-width="0.1" fill="none" />
<path d="M-236.9509794019795,62.28349187740426 L-155.08805118317318,-189.66469460657524" stroke="#0d6d4d" stroke-width="0.1" fill="none" />
<path d="M-237.5850303203407,59.81933941195595 L-110.3766670312527,-218.72812204897653" stroke="#0d6d4d" stroke-width="0.1" fill="none" />
<path d="M-238.19345622199504,57.3487350603353 L-60.43599278656056,-237.4289173119037" stroke="#0d6d4d" stroke-width="0.1" fill="none" />
<path d="M-238.7761914844414,54.87194529252066 L-7.63205634320077,-244.88109709811047" stroke="#0d6d4d" stroke-width="0.1" fill="none" />
<path d="M-239.33317325607334,52.38923724562499 L45.53346228683364,-240.73160119139632" stroke="#0d6d4d" stroke-width="0.1" fill="none" />
<path d="M-239.86434146295775,49.90087869508512 L96.54175249504304,-225.17701930966635" stroke="#0d6d4d" stroke-width="0.1" fill="none" />
<path d="M-240.36963881531452,47.407138025778856 L142.97620619015893,-198.95427731885826" stroke="#0d6d4d" stroke-width="0.1" fill="none" />
<path d="M-240.84901081369512,44.90828420307968 L182.6369088866102,-163.3057240648473" stroke="#0d6d4d" stroke-width="0.1" fill="none" />
<path d="M-241.30240575486118,42.404586743845705 L213.64486454962642,-119.92027289650315" stroke="#0d6d4d" stroke-width="0.1" fill="none" />
<path d="M-241.72977473736083,39.896315687351205 L234.53101636034393,-70.85338640449083" stroke="#0d6d4d" stroke-width="0.1" fill="none" />
<path d="M-242.13107166680285,37.38374156616192 L244.30584588450003,-18.429695240532922" stroke="#0d6d4d" stroke-width="0.1" fill="none" />
<path d="M-242.50625326082852,34.867135376954884 L242.50625326082854,34.86713537695483" stroke="#0d6d4d" stroke-width="0.1" fill="none" />
<path d="M-242.85527905377964,32.346768551291504 L229.2174973772004,86.51207370149629" stroke="#0d6d4d" stroke-width="0.1" fill="none" />
<path d="M-243.17811140106326,29.82291292634023 L205.0691565798058,134.0583493097207" stroke="#0d6d4d" stroke-width="0.1" fill="none" />
<path d="M-243.47471548321158,27.29584071555902 L171.20530128393384,175.25337318373488" stroke="#0d6d4d" stroke-width="0.1" fill="none" />
<path d="M-243.74505930963778,24.76582447933364 L129.23029161174335,208.14545810548876" stroke="#0d6d4d" stroke-width="0.1" fill="none" />
<path d="M-243.98911372208607,22.233137095582105 L81.13276798993434,231.17628329543558" stroke="#0d6d4d" stroke-width="0.1" fill="none" />
<path d="M-244.20685239777688,19.698051730321357 L29.19143578737941,243.2547226194618" stroke="#0d6d4d" stroke-width="0.1" fill="none" />
<path d="M-244.3982518522457,17.16084180820637 L-24.13289238762583,243.80853862202463" stroke="#0d6d4d" stroke-width="0.1" fill="none" />
<path d="M-244.56329144187617,14.621780983037864 L-76.31388204311594,232.81149328911877" stroke="#0d6d4d" stroke-width="0.1" fill="none" />
<path d="M-244.70195336612665,12.081143108248549 L-124.8793663744964,210.78459112066113" stroke="#0d6d4d" stroke-width="0.1" fill="none" />
<path d="M-244.81422266944986,9.539202207365722 L-167.52846954545618,178.7713956195374" stroke="#0d6d4d" stroke-width="0.1" fill="none" />
<path d="M-244.90008724290635,6.996232444455666 L-202.24061475587962,138.28858862235845" stroke="#0d6d4d" stroke-width="0.1" fill="none" />
<path d="M-244.95953782547014,4.45250809455381 L-227.37125264646838,91.25411481120098" stroke="#0d6d4d" stroke-width="0.1" fill="none" />
<path d="M-244.99256800502772,1.9083035140831117 L-241.72977473736083,39.896315687351205" stroke="#0d6d4d" stroke-width="0.1" fill="none" />
<path d="M-244.99917421906977,-0.6361068887382804 L-244.63592061359557,-13.35164205401571" stroke="#0d6d4d" stroke-width="0.1" fill="none" />
<path d="M-244.97935575507515,-3.180448683493004 L-235.95200646710435,-65.96704210549039" stroke="#0d6d4d" stroke-width="0.1" fill="none" />
<path d="M-244.93311475058792,-5.7244474471628495 L-216.08944811097624,-115.45713670056827" stroke="#0d6d4d" stroke-width="0.1" fill="none" />
<path d="M-244.86045619298676,-8.267828793728503 L-185.98926942663883,-159.47724495408477" stroke="#0d6d4d" stroke-width="0.1" fill="none" />
<path d="M-244.76138791894707,-10.81031840376204 L-147.07751969079368,-195.94183627190034" stroke="#0d6d4d" stroke-width="0.1" fill="none" />
<path d="M-244.63592061359557,-13.35164205401571 L-101.19771196520449,-223.12333605655755" stroke="#0d6d4d" stroke-width="0.1" fill="none" />
<path d="M-244.48406780935815,-15.891525646997094 L-50.523483400282245,-239.73397261360645" stroke="#0d6d4d" stroke-width="0.1" fill="none" />
<path d="M-244.30584588450003,-18.429695240532865 L2.5443846747241494,-244.98678761644888" stroke="#0d6d4d" stroke-width="0.1" fill="none" />
<path d="M-244.1012740613594,-20.96587707731581 L55.49170801931227,-238.6329196508717" stroke="#0d6d4d" stroke-width="0.1" fill="none" />
<path d="M-243.87037440427414,-23.49979761442971 L105.81001341308492,-220.9733944653129" stroke="#0d6d4d" stroke-width="0.1" fill="none" />
<path d="M-243.61317181720204,-26.031183552854394 L151.1153820174148,-192.84486334287152" stroke="#0d6d4d" stroke-width="0.1" fill="none" />
<path d="M-243.32969404103483,-28.55976186694099 L189.26139175267076,-155.5799652649469" stroke="#0d6d4d" stroke-width="0.1" fill="none" />
<path d="M-243.01997165060598,-31.085259833861137 L218.44080784584736,-110.94419077920934" stroke="#0d6d4d" stroke-width="0.1" fill="none" />
<path d="M-242.68403805139323,-33.60740506302017 L237.27120377879558,-61.052238757978856" stroke="#0d6d4d" stroke-width="0.1" fill="none" />
<path d="M-242.32192947591543,-36.125925525437566 L244.86045619298676,-8.267828793728563" stroke="#0d6d4d" stroke-width="0.1" fill="none" />
<path d="M-241.9336849798247,-38.64054958308613 L240.84901081369512,44.908284203079624" stroke="#0d6d4d" stroke-width="0.1" fill="none" />
<path d="M-241.51934643769403,-41.15100601819028 L225.42691697058268,95.95678769705673" stroke="#0d6d4d" stroke-width="0.1" fill="none" />
<path d="M-241.07895853850087,-43.65702406247788 L199.32482367410338,142.45916842129745" stroke="#0d6d4d" stroke-width="0.1" fill="none" />
<path d="M-240.61256878080724,-46.158333426384736 L163.77936382455312,182.21229372691806" stroke="#0d6d4d" stroke-width="0.1" fill="none" />
<path d="M-240.1202274676364,-48.65466432820765 L120.47456653817291,213.3327888943454" stroke="#0d6d4d" stroke-width="0.1" fill="none" />
<path d="M-239.60198770104773,-51.14574752320051 L71.46207328512067,234.3462653463717" stroke="#0d6d4d" stroke-width="0.1" fill="none" />
<path d="M-239.05790537640908,-53.63131433261574 L19.063937741085272,244.25717241834278" stroke="#0d6d4d" stroke-width="0.1" fill="none" />
<path d="M-238.48803917636837,-56.111096672681256 L-34.237385618273805,242.59596333415283" stroke="#0d6d4d" stroke-width="0.1" fill="none" />
<path d="M-237.8924505645239,-58.58482708351668 L-85.91665219487702,229.4413408163937" stroke="#0d6d4d" stroke-width="0.1" fill="none" />
<path d="M-237.2712037787956,-61.0522387579788 L-133.52546520361227,205.4165284054789" stroke="#0d6d4d" stroke-width="0.1" fill="none" />
<path d="M-236.62436582449615,-63.513065570440105 L-174.80827280647452,171.6597441406027" stroke="#0d6d4d" stroke-width="0.1" fill="none" />
<path d="M-235.95200646710435,-65.96704210549039 L-207.809228875783,129.77027546419265" stroke="#0d6d4d" stroke-width="0.1" fill="none" />
<path d="M-235.2541982247403,-68.41390368656513 L-230.96485466854952,81.73271014676925" stroke="#0d6d4d" stroke-width="0.1" fill="none" />
<path d="M-234.53101636034395,-70.85338640449078 L-243.17811140106326,29.82291292634023" stroke="#0d6d4d" stroke-width="0.1" fill="none" />
<path d="M-233.7825388735575,-73.28522714595054 L-243.87037440427414,-23.49979761442971" stroke="#0d6d4d" stroke-width="0.1" fill="none" />
<path d="M-233.00884649231264,-75.70916362186207 L-233.00884649231264,-75.70916362186207" stroke="#0d6d4d" stroke-width="0.1" fill="none" />
<path d="M-232.21002266412364,-78.12493439566641 L-211.10811178725865,-124.33167391143057" stroke="#0d6d4d" stroke-width="0.1" fill="none" />
<path d="M-231.38615354708682,-80.53227891152693 L-179.20575638495905,-167.06375094105456" stroke="#0d6d4d" stroke-width="0.1" fill="none" />
<path d="M-230.53732800058813,-82.93093752243031 L-138.81321087603018,-201.88088687710575" stroke="#0d6d4d" stroke-width="0.1" fill="none" />
<path d="M-229.6636375757188,-85.32065151819266 L-91.84414364467717,-227.13355823870657" stroke="#0d6d4d" stroke-width="0.1" fill="none" />
<path d="M-228.76517650540143,-87.70116315336142 L-40.523797439624566,-241.62537499416794" stroke="#0d6d4d" stroke-width="0.1" fill="none" />
<path d="M-227.8420416942258,-90.07221567501641 L12.716435442315436,-244.66976165771163" stroke="#0d6d4d" stroke-width="0.1" fill="none" />
<path d="M-226.8943327079976,-92.43355335046081 L65.35420467263012,-236.12248501912725" stroke="#0d6d4d" stroke-width="0.1" fill="none" />
<path d="M-225.9221517629996,-94.78492149480411 L114.89570270534864,-216.38848744756302" stroke="#0d6d4d" stroke-width="0.1" fill="none" />
<path d="M-224.92560371496648,-97.12606649843208 L158.99381332640564,-186.40270202957916" stroke="#0d6d4d" stroke-width="0.1" fill="none" />
<path d="M-223.90479604777636,-99.45673585435871 L195.5593104413465,-147.58575845827767" stroke="#0d6d4d" stroke-width="0.1" fill="none" />
<path d="M-222.85983886185696,-101.77667818546227 L222.85983886185699,-101.77667818546217" stroke="#0d6d4d" stroke-width="0.1" fill="none" />
<path d="M-221.79084486231167,-104.08564327159628 L239.60198770104773,-51.14574752320057" stroke="#0d6d4d" stroke-width="0.1" fill="none" />
<path d="M-220.69792934676272,-106.38338207657871 L244.99256800502772,1.9083035140829971" stroke="#0d6d4d" stroke-width="0.1" fill="none" />
<path d="M-219.58121019291607,-108.66964677505126 L238.7761914844414,54.87194529252055" stroke="#0d6d4d" stroke-width="0.1" fill="none" />
<path d="M-218.4408078458474,-110.94419077920924 L221.24736998700408,105.23593147700893" stroke="#0d6d4d" stroke-width="0.1" fill="none" />
<path d="M-217.27684530501165,-113.20676876539687 L193.23656247709596,150.6141790205537" stroke="#0d6d4d" stroke-width="0.1" fill="none" />
<path d="M-216.08944811097624,-115.45713670056827 L156.07083057146798,188.8568130746999" stroke="#0d6d4d" stroke-width="0.1" fill="none" />
<path d="M-214.87874433188128,-117.6950518686066 L111.51096664474109,218.15202111819968" stroke="#0d6d4d" stroke-width="0.1" fill="none" />
<path d="M-213.64486454962645,-119.92027289650304 L61.668073172054235,237.11189078417422" stroke="#0d6d4d" stroke-width="0.1" fill="none" />
<path d="M-212.38794184578657,-122.13255978039098 L8.903545510253648,244.838164666677" stroke="#0d6d4d" stroke-width="0.1" fill="none" />
<path d="M-211.10811178725865,-124.33167391143057 L-44.28280338949131,240.96479685623717" stroke="#0d6d4d" stroke-width="0.1" fill="none" />
<path d="M-209.80551241163928,-126.5173781015457 L-95.3711760477608,225.67529501313834" stroke="#0d6d4d" stroke-width="0.1" fill="none" />
<path d="M-208.4802842123374,-128.68943660900464 L-141.9411703253779,199.69402636699493" stroke="#0d6d4d" stroke-width="0.1" fill="none" />
<path d="M-207.13257012342018,-130.84761516384782 L-181.7864502616142,164.2518995362966" stroke="#0d6d4d" stroke-width="0.1" fill="none" />
<path d="M-205.7625155041978,-132.9916809931537 L-213.01927514805328,121.02804805249885" stroke="#0d6d4d" stroke-width="0.1" fill="none" />
<path d="M-204.3702681235444,-135.12140284614634 L-234.15993458809734,72.0702784349968" stroke="#0d6d4d" stroke-width="0.1" fill="none" />
<path d="M-202.95597814396137,-137.23655101913582 L-244.20685239777688,19.698051730321357" stroke="#0d6d4d" stroke-width="0.1" fill="none" />
<path d="M-201.51979810538054,-139.3368973802943 L-242.68403805139323,-33.60740506302017" stroke="#0d6d4d" stroke-width="0.1" fill="none" />
<path d="M-200.0618829087121,-141.42221539426103 L-229.6636375757188,-85.32065151819266" stroke="#0d6d4d" stroke-width="0.1" fill="none" />
<path d="M-198.58238979913813,-143.492280146575 L-205.7625155041978,-132.9916809931537" stroke="#0d6d4d" stroke-width="0.1" fill="none" />
<path d="M-197.08147834915155,-145.54686836793468 L-172.11302982712294,-174.36199403461723" stroke="#0d6d4d" stroke-width="0.1" fill="none" />
<path d="M-195.55931044134658,-147.58575845827755 L-130.30938452628465,-207.4715987897642" stroke="#0d6d4d" stroke-width="0.1" fill="none" />
<path d="M-194.0160502509574,-149.60873051068234 L-82.33210133778047,-230.75186909168355" stroke="#0d6d4d" stroke-width="0.1" fill="none" />
<path d="M-192.45186422815215,-151.6155663350861 L-30.454189026992765,-243.09986090228062" stroke="#0d6d4d" stroke-width="0.1" fill="none" />
<path d="M-190.86692108007892,-153.6060494818187 L22.866544427480676,-243.93056623954706" stroke="#0d6d4d" stroke-width="0.1" fill="none" />
<path d="M-189.26139175267087,-155.5799652649468 L75.1039348399261,-233.20462896683705" stroke="#0d6d4d" stroke-width="0.1" fill="none" />
<path d="M-187.6354494122075,-157.5371007854306 L123.78314331999478,-211.43020935954644" stroke="#0d6d4d" stroke-width="0.1" fill="none" />
<path d="M-185.98926942663883,-159.47724495408477 L166.59790614841086,-179.63890911204422" stroke="#0d6d4d" stroke-width="0.1" fill="none" />
<path d="M-184.3230293466695,-161.40018851434718 L201.51979810538043,-139.33689738029446" stroke="#0d6d4d" stroke-width="0.1" fill="none" />
<path d="M-182.63690888661014,-163.30572406484737 L226.89433270799762,-92.43355335046076" stroke="#0d6d4d" stroke-width="0.1" fill="none" />
<path d="M-180.93108990499337,-165.19364608177642 L241.51934643769403,-41.15100601819039" stroke="#0d6d4d" stroke-width="0.1" fill="none" />
<path d="M-179.20575638495905,-167.06375094105456 L244.70195336612662,12.081143108248654" stroke="#0d6d4d" stroke-width="0.1" fill="none" />
<path d="M-177.46109441441104,-168.9158369402925 L236.29137185322912,64.74092668257855" stroke="#0d6d4d" stroke-width="0.1" fill="none" />
<path d="M-175.69729216594612,-170.74970432054684 L216.6860680944645,114.33349419029007" stroke="#0d6d4d" stroke-width="0.1" fill="none" />
<path d="M-173.91453987655896,-172.56515528786448 L186.81487807907732,158.5093099104891" stroke="#0d6d4d" stroke-width="0.1" fill="none" />
<path d="M-172.11302982712294,-174.36199403461723 L148.09300234000736,195.17546633202284" stroke="#0d6d4d" stroke-width="0.1" fill="none" />
<path d="M-170.29295632165264,-176.14002676061938 L102.35495832212827,222.5948393536458" stroke="#0d6d4d" stroke-width="0.1" fill="none" />
<path d="M-168.45451566634563,-177.89906169403176 L51.767666869115345,239.46838761500086" stroke="#0d6d4d" stroke-width="0.1" fill="none" />
<path d="M-166.597906148411,-179.6389091120441 L-1.272209489436526,244.9966968818457" stroke="#0d6d4d" stroke-width="0.1" fill="none" />
<path d="M-164.72332801468153,-181.3593813613391 L-54.251812670169436,238.91785371127216" stroke="#0d6d4d" stroke-width="0.1" fill="none" />
<path d="M-162.83098345001702,-183.0602928783309 L-104.66114013827675,221.5198540649483" stroke="#0d6d4d" stroke-width="0.1" fill="none" />
<path d="M-160.9210765554967,-184.7414602091798 L-150.11196072314684,193.6269589903545" stroke="#0d6d4d" stroke-width="0.1" fill="none" />
<path d="M-158.9938133264056,-186.40270202957922 L-188.45096129995537,156.56064379377958" stroke="#0d6d4d" stroke-width="0.1" fill="none" />
<path d="M-157.04940163001726,-188.04383916431175 L-217.8617638127648,112.07699080717276" stroke="#0d6d4d" stroke-width="0.1" fill="none" />
<path d="M-155.08805118317318,-189.66469460657524 L-236.9509794019795,62.28349187740426" stroke="#0d6d4d" stroke-width="0.1" fill="none" />
<path d="M-153.10997352966453,-191.26509353707337 L-244.81422266944986,9.539202207365722" stroke="#0d6d4d" stroke-width="0.1" fill="none" />
<path d="M-151.11538201741487,-192.84486334287143 L-241.07895853850087,-43.65702406247788" stroke="#0d6d4d" stroke-width="0.1" fill="none" />
<path d="M-149.1044917754698,-194.40383363601362 L-225.9221517629996,-94.78492149480411" stroke="#0d6d4d" stroke-width="0.1" fill="none" />
<path d="M-147.07751969079368,-195.94183627190034 L-200.0618829087121,-141.42221539426103" stroke="#0d6d4d" stroke-width="0.1" fill="none" />
<path d="M-145.03468438487755,-197.4587053674235 L-164.72332801468153,-181.3593813613391" stroke="#0d6d4d" stroke-width="0.1" fill="none" />
<path d="M-142.97620619015905,-198.95427731885817 L-121.580713708424,-212.70432542416773" stroke="#0d6d4d" stroke-width="0.1" fill="none" />
<path d="M-140.90230712625777,-200.42839081950873 L-72.67799775416594,-233.9720253415896" stroke="#0d6d4d" stroke-width="0.1" fill="none" />
<path d="M-138.81321087603018,-201.88088687710575 L-20.332032933635254,-244.1548861620131" stroke="#0d6d4d" stroke-width="0.1" fill="none" />
<path d="M-136.70914276144285,-203.31160883095546 L32.97719795793622,-242.7704768188321" stroke="#0d6d4d" stroke-width="0.1" fill="none" />
<path d="M-134.59032971927107,-204.7204023688355 L84.72407568912483,-229.884386156658" stroke="#0d6d4d" stroke-width="0.1" fill="none" />
<path d="M-132.4570002766214,-206.1071155436394 L132.45700027662141,-206.1071155436394" stroke="#0d6d4d" stroke-width="0.1" fill="none" />
<path d="M-130.30938452628465,-207.4715987897642 L173.91453987655882,-172.56515528786463" stroke="#0d6d4d" stroke-width="0.1" fill="none" />
<path d="M-128.14771410191776,-208.8137049392428 L207.1325701234202,-130.8476151638478" stroke="#0d6d4d" stroke-width="0.1" fill="none" />
<path d="M-125.97222215306194,-210.13328923761605 L230.53732800058808,-82.93093752243047" stroke="#0d6d4d" stroke-width="0.1" fill="none" />
<path d="M-123.78314331999475,-211.43020935954647 L243.01997165060598,-31.08525983386109" stroke="#0d6d4d" stroke-width="0.1" fill="none" />
<path d="M-121.580713708424,-212.70432542416773 L243.98911372208607,22.23313709558199" stroke="#0d6d4d" stroke-width="0.1" fill="none" />
<path d="M-119.36517086402112,-213.95550001017278 L233.39883939290888,74.49819977719677" stroke="#0d6d4d" stroke-width="0.1" fill="none" />
<path d="M-117.13675374680092,-215.18359817063504 L211.75088166624266,123.23377829787127" stroke="#0d6d4d" stroke-width="0.1" fill="none" />
<path d="M-114.89570270534877,-216.38848744756297 L180.07085088088067,166.1309383078168" stroke="#0d6d4d" stroke-width="0.1" fill="none" />
<path d="M-112.64225945089628,-217.5700378861873 L139.85964460494455,201.15735087482784" stroke="#0d6d4d" stroke-width="0.1" fill="none" />
<path d="M-110.3766670312527,-218.72812204897653 L93.02233995529994,226.65357766697753" stroke="#0d6d4d" stroke-width="0.1" fill="none" />
<path d="M-108.09916980458924,-219.8626150293828 L41.77793719499287,241.4116897826848" stroke="#0d6d4d" stroke-width="0.1" fill="none" />
<path d="M-105.81001341308503,-220.97339446531285 L-11.445769334364753,244.73249552183404" stroke="#0d6d4d" stroke-width="0.1" fill="none" />
<path d="M-103.50944475643155,-222.06034055232655 L-64.12721226948473,236.45866583093215" stroke="#0d6d4d" stroke-width="0.1" fill="none" />
<path d="M-101.19771196520449,-223.12333605655755 L-113.77051494527893,216.982188045669" stroke="#0d6d4d" stroke-width="0.1" fill="none" />
<path d="M-98.87506437409986,-224.1622663273585 L-158.02373797240608,187.2257947966261" stroke="#0d6d4d" stroke-width="0.1" fill="none" />
<path d="M-96.54175249504294,-225.17701930966638 L-194.79030653144906,148.5992479166167" stroke="#0d6d4d" stroke-width="0.1" fill="none" />
<path d="M-94.1980279901686,-226.1674855560883 L-222.32833931830393,102.93254847697646" stroke="#0d6d4d" stroke-width="0.1" fill="none" />
<path d="M-91.84414364467717,-227.13355823870657 L-239.33317325607334,52.38923724562499" stroke="#0d6d4d" stroke-width="0.1" fill="none" />
<path d="M-89.48035333957161,-228.0751331606 L-244.99917421906977,-0.6361068887382804" stroke="#0d6d4d" stroke-width="0.1" fill="none" />
<path d="M-87.10691202427329,-228.99210876708287 L-239.05790537640908,-53.63131433261574" stroke="#0d6d4d" stroke-width="0.1" fill="none" />
<path d="M-84.72407568912502,-229.8843861566579 L-221.79084486231167,-104.08564327159628" stroke="#0d6d4d" stroke-width="0.1" fill="none" />
<path d="M-82.33210133778047,-230.75186909168355 L-194.0160502509574,-149.60873051068234" stroke="#0d6d4d" stroke-width="0.1" fill="none" />
<path d="M-79.93124695948555,-231.5944640087533 L-157.04940163001726,-188.04383916431175" stroke="#0d6d4d" stroke-width="0.1" fill="none" />
<path d="M-77.52177150125127,-232.41208002878807 L-112.64225945089628,-217.5700378861873" stroke="#0d6d4d" stroke-width="0.1" fill="none" />
<path d="M-75.10393483992627,-233.204628966837 L-62.89849072544951,-236.78847071692604" stroke="#0d6d4d" stroke-width="0.1" fill="none" />
<path d="M-72.67799775416594,-233.9720253415896 L-10.174794600059354,-244.78863036270008" stroke="#0d6d4d" stroke-width="0.1" fill="none" />
<path d="M-70.2442218963072,-234.7141863845949 L43.03095044046083,-241.19149509091446" stroke="#0d6d4d" stroke-width="0.1" fill="none" />
<path d="M-67.80286976414708,-235.43103204918867 L94.19802799016858,-226.16748555608834" stroke="#0d6d4d" stroke-width="0.1" fill="none" />
<path d="M-65.35420467263008,-236.12248501912728 L140.90230712625777,-200.42839081950873" stroke="#0d6d4d" stroke-width="0.1" fill="none" />
<path d="M-62.89849072544951,-236.78847071692604 L180.93108990499337,-165.19364608177642" stroke="#0d6d4d" stroke-width="0.1" fill="none" />
<path d="M-60.43599278656056,-237.4289173119037 L212.3879418457866,-122.13255978039095" stroke="#0d6d4d" stroke-width="0.1" fill="none" />
<path d="M-57.96697645161477,-238.043755727929 L233.78253887355746,-73.2852271459507" stroke="#0d6d4d" stroke-width="0.1" fill="none" />
<path d="M-55.49170801931221,-238.6329196508717 L244.1012740613594,-20.96587707731576" stroke="#0d6d4d" stroke-width="0.1" fill="none" />
<path d="M-53.01045446268124,-239.19634553575438 L242.85527905377964,32.34676855129133" stroke="#0d6d4d" stroke-width="0.1" fill="none" />
<path d="M-50.523483400282245,-239.73397261360645 L230.10358507112986,84.12692872923212" stroke="#0d6d4d" stroke-width="0.1" fill="none" />
<path d="M-48.031063067344306,-240.24574289801848 L206.45032620083123,131.9214266583347" stroke="#0d6d4d" stroke-width="0.1" fill="none" />
<path d="M-45.53346228683378,-240.7316011913963 L173.01611747501897,173.46591334861856" stroke="#0d6d4d" stroke-width="0.1" fill="none" />
<path d="M-43.030950440460856,-241.19149509091443 L131.38496374863243,206.79214516216652" stroke="#0d6d4d" stroke-width="0.1" fill="none" />
<path d="M-40.523797439624566,-241.62537499416794 L83.52921466392351,230.3212328414994" stroke="#0d6d4d" stroke-width="0.1" fill="none" />
<path d="M-38.01227369630055,-242.03319410452266 L31.716121092853708,242.93844418457826" stroke="#0d6d4d" stroke-width="0.1" fill="none" />
<path d="M-35.496650093876944,-242.4149084361621 L-21.599579888576052,244.04601645721863" stroke="#0d6d4d" stroke-width="0.1" fill="none" />
<path d="M-32.97719795793623,-242.7704768188321 L-73.89196251697601,233.59147646134224" stroke="#0d6d4d" stroke-width="0.1" fill="none" />
<path d="M-30.454189026992765,-243.09986090228062 L-122.68358254836747,212.07012654567336" stroke="#0d6d4d" stroke-width="0.1" fill="none" />
<path d="M-27.927895423182456,-243.4030251603948 L-165.66285056713477,180.50157877971918" stroke="#0d6d4d" stroke-width="0.1" fill="none" />
<path d="M-25.398589622914344,-243.67993689503203 L-200.79354762872964,140.3814490261056" stroke="#0d6d4d" stroke-width="0.1" fill="none" />
<path d="M-22.86654442748067,-243.93056623954706 L-226.4112947385925,93.61049949014375" stroke="#0d6d4d" stroke-width="0.1" fill="none" />
<path d="M-20.332032933635254,-244.1548861620131 L-241.30240575486118,42.404586743845705" stroke="#0d6d4d" stroke-width="0.1" fill="none" />
<path d="M-17.795328504136616,-244.3528724681375 L-244.76138791894707,-10.81031840376204" stroke="#0d6d4d" stroke-width="0.1" fill="none" />
<path d="M-15.256704738265826,-244.5245038038711 L-236.62436582449615,-63.513065570440105" stroke="#0d6d4d" stroke-width="0.1" fill="none" />
<path d="M-12.716435442315625,-244.66976165771163 L-217.27684530501165,-113.20676876539687" stroke="#0d6d4d" stroke-width="0.1" fill="none" />
<path d="M-10.174794600059354,-244.78863036270008 L-187.6354494122075,-157.5371007854306" stroke="#0d6d4d" stroke-width="0.1" fill="none" />
<path d="M-7.63205634320077,-244.88109709811047 L-149.1044917754698,-194.40383363601362" stroke="#0d6d4d" stroke-width="0.1" fill="none" />
<path d="M-5.088494921805724,-244.94715189083288 L-103.50944475643155,-222.06034055232655" stroke="#0d6d4d" stroke-width="0.1" fill="none" />
<path d="M-2.544384674724323,-244.98678761644888 L-53.01045446268124,-239.19634553575438" stroke="#0d6d4d" stroke-width="0.1" fill="none" />
</svg>