<?xml version="1.0" encoding="UTF-8"?>
<svg xmlns="http://www.w3.org/2000/svg" xmlns:xlink="http://www.w3.org/1999/xlink"
     width="500.0" height="500" viewBox="-250.0 -250.0 500 500">
<defs>
</defs>
<circle cx="0" cy="0" r="245.0" fill="white" stroke-width="2" stroke="black" />
<path d="M0.0,-245.0 L0.0,-245.0" stroke="#0d6d4d" stroke-width="0.1" fill="none" />
<path d="M2.371889604225493,-244.98851838342418 L49.4680228355789,-239.95398458191656" stroke="#0d6d4d" stroke-width="0.1" fill="none" />
<path d="M4.743556897210203,-244.95407460983975 L96.8983607247869,-225.02379360602976" stroke="#0d6d4d" stroke-width="0.1" fill="none" />
<path d="M7.114779588550021,-244.89667190757484 L140.33726496334765,-200.82443094057845" stroke="#0d6d4d" stroke-width="0.1" fill="none" />
<path d="M9.485335429512228,-244.81631565684023 L177.99540183262908,-168.3527158273394" stroke="#0d6d4d" stroke-width="0.1" fill="none" />
<path d="M11.855002233866317,-244.713013389225 L208.3215587672542,-128.94622194070465" stroke="#0d6d4d" stroke-width="0.1" fill="none" />
<path d="M14.223557898708936,-244.58677478699065 L230.0665418450732,-84.22818010291556" stroke="#0d6d4d" stroke-width="0.1" fill="none" />
<path d="M16.59078042528105,-244.4376116821634 L242.33463253648097,-36.04061422074753" stroke="#0d6d4d" stroke-width="0.1" fill="none" />
<path d="M18.956447939775313,-244.26553805542562 L244.62048410858526,13.631535294360058" stroke="#0d6d4d" stroke-width="0.1" fill="none" />
<path d="M21.32033871413175,-244.0705700348051 L236.82993784892665,62.742175117488095" stroke="#0d6d4d" stroke-width="0.1" fill="none" />
<path d="M23.68223118681976,-243.85272589416346 L219.28390164764002,109.26834160994729" stroke="#0d6d4d" stroke-width="0.1" fill="none" />
<path d="M26.04190398360452,-243.61202605148358 L192.70513117164742,151.29353066181696" stroke="#0d6d4d" stroke-width="0.1" fill="none" />
<path d="M28.399135938295867,-243.3484930669557 L158.18845814025946,187.0866422575577" stroke="#0d6d4d" stroke-width="0.1" fill="none" />
<path d="M30.753706113477605,-243.06215164086294 L117.15569205794415,215.1732878831017" stroke="#0d6d4d" stroke-width="0.1" fill="none" />
<path d="M33.10539382121541,-242.75302861126622 L71.29705309039936,234.39652348237755" stroke="#0d6d4d" stroke-width="0.1" fill="none" />
<path d="M35.4539786437414,-242.42115295148878 L22.50154857870697,243.96450625359438" stroke="#0d6d4d" stroke-width="0.1" fill="none" />
<path d="M37.79924045411332,-242.06655576740073 L-27.220838880405093,243.48311220831522" stroke="#0d6d4d" stroke-width="0.1" fill="none" />
<path d="M40.14095943684645,-241.68927029450325 L-75.82194656250735,232.97217091204752" stroke="#0d6d4d" stroke-width="0.1" fill="none" />
<path d="M42.4789161085164,-241.28933189481384 L-121.29979945780552,212.8646486655221" stroke="#0d6d4d" stroke-width="0.1" fill="none" />
<path d="M44.81289133833072,-240.86677805355177 L-161.78107555086265,183.98881377302828" stroke="#0d6d4d" stroke-width="0.1" fill="none" />
<path d="M47.1426663686675,-240.42164837562467 L-195.59827163099112,147.53411854540295" stroke="#0d6d4d" stroke-width="0.1" fill="none" />
<path d="M49.4680228355789,-239.95398458191656 L-221.35839102213612,105.00220342493336" stroke="#0d6d4d" stroke-width="0.1" fill="none" />
<path d="M51.78874278925795,-239.46383050537733 L-238.0003238498539,58.14504146842321" stroke="#0d6d4d" stroke-width="0.1" fill="none" />
<path d="M54.1046087144664,-238.95123208691453 L-244.83855623956993,8.892771138568012" stroke="#0d6d4d" stroke-width="0.1" fill="none" />
<path d="M56.41540355092184,-238.41623737108728 L-241.59140797846013,-40.72580988740719" stroke="#0d6d4d" stroke-width="0.1" fill="none" />
<path d="M58.72091071364224,-237.85889650160337 L-228.39263547624174,-88.6668148757841" stroke="#0d6d4d" stroke-width="0.1" fill="none" />
<path d="M61.02091411324593,-237.27926171661917 L-205.7859220761472,-132.95545974223805" stroke="#0d6d4d" stroke-width="0.1" fill="none" />
<path d="M63.31519817620509,-236.6773873438438 L-174.70248267098535,-171.76740828397587" stroke="#0d6d4d" stroke-width="0.1" fill="none" />
<path d="M65.60354786505093,-236.05332979544679 L-136.42270513410705,-203.5039201683655" stroke="#0d6d4d" stroke-width="0.1" fill="none" />
<path d="M67.88574869852862,-235.40714756277094 L-92.52340863001767,-226.8577061849184" stroke="#0d6d4d" stroke-width="0.1" fill="none" />
<path d="M70.16158677170002,-234.73890121085003 L-44.81289133833073,-240.86677805355177" stroke="#0d6d4d" stroke-width="0.1" fill="none" />
<path d="M72.43084877599252,-234.0486533727321 L4.743556897210203,-244.95407460983975" stroke="#0d6d4d" stroke-width="0.1" fill="none" />
<path d="M74.69332201919192,-233.33646874360917 L54.1046087144664,-238.95123208691453" stroke="#0d6d4d" stroke-width="0.1" fill="none" />
<path d="M76.94879444537746,-232.60241407475343 L101.23698551325263,-223.10551934945374" stroke="#0d6d4d" stroke-width="0.1" fill="none" />
<path d="M79.19705465479733,-231.84655816726078 L144.19921219138448,-198.06965240385532" stroke="#0d6d4d" stroke-width="0.1" fill="none" />
<path d="M81.43789192368266,-231.06897186560246 L181.2215903144697,-164.87490774491582" stroke="#0d6d4d" stroke-width="0.1" fill="none" />
<path d="M83.6710962239981,-230.2697280509847 L210.77909546762498,-124.88864205302993" stroke="#0d6d4d" stroke-width="0.1" fill="none" />
<path d="M85.89645824312724,-229.44890163451797 L231.65419600413276,-79.75796808895551" stroke="#0d6d4d" stroke-width="0.1" fill="none" />
<path d="M88.11376940349092,-228.60656955019562 L242.98700556349291,-31.341906886580077" stroke="#0d6d4d" stroke-width="0.1" fill="none" />
<path d="M90.32282188209672,-227.74281074768314 L244.310703478222,18.365188971973524" stroke="#0d6d4d" stroke-width="0.1" fill="none" />
<path d="M92.52340863001766,-226.8577061849184 L235.57076403332715,67.31578665331405" stroke="#0d6d4d" stroke-width="0.1" fill="none" />
<path d="M94.71532339179834,-225.9513388205236 L217.12720248751913,113.49351496867065" stroke="#0d6d4d" stroke-width="0.1" fill="none" />
<path d="M96.8983607247869,-225.02379360602976 L189.73974533814098,154.99622266048104" stroke="#0d6d4d" stroke-width="0.1" fill="none" />
<path d="M99.0723160183904,-224.0751574779145 L154.53653569570568,190.11433174584678" stroke="#0d6d4d" stroke-width="0.1" fill="none" />
<path d="M101.23698551325263,-223.10551934945374 L112.96766285508481,217.40125838886004" stroke="#0d6d4d" stroke-width="0.1" fill="none" />
<path d="M103.39216632035202,-222.1149701023879 L66.7454302715121,235.73300052786567" stroke="#0d6d4d" stroke-width="0.1" fill="none" />
<path d="M105.53765644001763,-221.10360257840395 L17.77382242070124,244.3544377263433" stroke="#0d6d4d" stroke-width="0.1" fill="none" />
<path d="M107.6732547808624,-220.07151157043361 L-31.92992405846177,242.91043606568422" stroke="#0d6d4d" stroke-width="0.1" fill="none" />
<path d="M109.79876117863071,-219.01879381376844 L-80.31841430009624,231.46047680828383" stroke="#0d6d4d" stroke-width="0.1" fill="none" />
<path d="M111.91397641495941,-217.94554797699337 L-125.39843142406308,210.47620624760546" stroke="#0d6d4d" stroke-width="0.1" fill="none" />
<path d="M114.01870223604996,-216.85187465273842 L-165.31304105113753,180.8220076717016" stroke="#0d6d4d" stroke-width="0.1" fill="none" />
<path d="M116.11274137125034,-215.73787634825075 L-198.41808207450347,143.71939571914294" stroke="#0d6d4d" stroke-width="0.1" fill="none" />
<path d="M118.19589755154469,-214.60365747578663 L-223.34989288256745,100.69669979371538" stroke="#0d6d4d" stroke-width="0.1" fill="none" />
<path d="M120.26797552794902,-213.44932434282535 L-239.08148325705818,53.52610917678409" stroke="#0d6d4d" stroke-width="0.1" fill="none" />
<path d="M122.32878108981163,-212.27498514210512 L-244.96483811568459,4.15067307270142" stroke="#0d6d4d" stroke-width="0.1" fill="none" />
<path d="M124.37812108301577,-211.08074994148248 L-240.75761052516762,-45.3957374013431" stroke="#0d6d4d" stroke-width="0.1" fill="none" />
<path d="M126.41580342808363,-209.86673067361608 L-226.63310444705132,-93.07220835830603" stroke="#0d6d4d" stroke-width="0.1" fill="none" />
<path d="M128.44163713817937,-208.63304112547527 L-203.17313600740076,-136.91485238979087" stroke="#0d6d4d" stroke-width="0.1" fill="none" />
<path d="M130.4554323370099,-207.37979692767527 L-171.34406734869953,-175.1177049427165" stroke="#0d6d4d" stroke-width="0.1" fill="none" />
<path d="M132.45700027662141,-206.1071155436394 L-132.4570002766214,-206.1071155436394" stroke="#0d6d4d" stroke-width="0.1" fill="none" />
<path d="M134.4461533550904,-204.81511625858948 L-88.11376940349108,-228.60656955019556" stroke="#0d6d4d" stroke-width="0.1" fill="none" />
<path d="M136.422705134107,-203.50392016836554 L-40.14095943684635,-241.68927029450325" stroke="#0d6d4d" stroke-width="0.1" fill="none" />
<path d="M138.38647035644942,-202.17365016807594 L9.485335429512228,-244.81631565684023" stroke="#0d6d4d" stroke-width="0.1" fill="none" />
<path d="M140.33726496334765,-200.82443094057845 L58.72091071364224,-237.85889650160337" stroke="#0d6d4d" stroke-width="0.1" fill="none" />
<path d="M142.2749061117348,-199.45638894479427 L105.53765644001763,-221.10360257840395" stroke="#0d6d4d" stroke-width="0.1" fill="none" />
<path d="M144.19921219138448,-198.06965240385532 L148.00709896978304,-195.24061732782152" stroke="#0d6d4d" stroke-width="0.1" fill="none" />
<path d="M146.11000284193284,-196.6643512930861 L184.3798386147539,-161.3352878709345" stroke="#0d6d4d" stroke-width="0.1" fill="none" />
<path d="M148.00709896978304,-195.24061732782152 L213.15761084393878,-120.78424127055625" stroke="#0d6d4d" stroke-width="0.1" fill="none" />
<path d="M149.89032276489144,-193.79858395106157 L233.15500274005962,-75.25785472150261" stroke="#0d6d4d" stroke-width="0.1" fill="none" />
<path d="M151.7594977174332,-192.338386320964 L243.54828248410183,-26.63144943566052" stroke="#0d6d4d" stroke-width="0.1" fill="none" />
<path d="M153.61444863434613,-190.8601612981762 L243.90933048559282,23.09195751922858" stroke="#0d6d4d" stroke-width="0.1" fill="none" />
<path d="M155.45500165575112,-189.36404743300778 L234.22327446875966,71.86416142370331" stroke="#0d6d4d" stroke-width="0.1" fill="none" />
<path d="M157.2809842712475,-187.8501849524445 L214.88910209075624,117.67613947877688" stroke="#0d6d4d" stroke-width="0.1" fill="none" />
<path d="M159.09222533608204,-186.31871574700511 L186.70322585701354,158.64080639792837" stroke="#0d6d4d" stroke-width="0.1" fill="none" />
<path d="M160.88855508719007,-184.7697833574424 L150.82667732710422,193.07074715364206" stroke="#0d6d4d" stroke-width="0.1" fill="none" />
<path d="M162.66980515910666,-183.20353296128948 L108.7372819461674,219.5477249141054" stroke="#0d6d4d" stroke-width="0.1" fill="none" />
<path d="M164.4358085997473,-181.62011135925246 L62.168784514448255,236.98110100173832" stroke="#0d6d4d" stroke-width="0.1" fill="none" />
<path d="M166.18639988605594,-180.0196669614515 L13.039432836333795,244.65276044080667" stroke="#0d6d4d" stroke-width="0.1" fill="none" />
<path d="M167.92141493951877,-178.40234977351045 L-36.6270386714558,242.2466925226425" stroke="#0d6d4d" stroke-width="0.1" fill="none" />
<path d="M169.6406911415432,-176.76831138249736 L-84.78477057226648,229.86200790693564" stroke="#0d6d4d" stroke-width="0.1" fill="none" />
<path d="M171.34406734869953,-175.1177049427165 L-129.45005137490318,208.00885605914698" stroke="#0d6d4d" stroke-width="0.1" fill="none" />
<path d="M173.03138390782445,-173.45068516135376 L-168.78303050317686,177.58741119280853" stroke="#0d6d4d" stroke-width="0.1" fill="none" />
<path d="M174.70248267098523,-171.767408283976 L-201.16350535202312,139.85079232698885" stroke="#0d6d4d" stroke-width="0.1" fill="none" />
<path d="M176.3572070103022,-170.06803207988685 L-225.25766061260782,96.35344485453123" stroke="#0d6d4d" stroke-width="0.1" fill="none" />
<path d="M177.99540183262908,-168.3527158273394 L-240.07301074264055,48.887109885572094" stroke="#0d6d4d" stroke-width="0.1" fill="none" />
<path d="M179.61691359408988,-166.62162029860727 L-244.99928239370934,-0.5929810852494023" stroke="#0d6d4d" stroke-width="0.1" fill="none" />
<path d="M181.2215903144697,-164.87490774491582 L-239.83355276822272,-50.04864600138681" stroke="#0d6d4d" stroke-width="0.1" fill="none" />
<path d="M182.80928159145972,-163.112741881235 L-224.78860840769792,-97.44270896342444" stroke="#0d6d4d" stroke-width="0.1" fill="none" />
<path d="M184.3798386147539,-161.3352878709345 L-200.4841800975014,-140.82291550252972" stroke="#0d6d4d" stroke-width="0.1" fill="none" />
<path d="M185.9331141799968,-159.5427123103035 L-167.92141493951885,-178.40234977351034" stroke="#0d6d4d" stroke-width="0.1" fill="none" />
<path d="M187.46896270258043,-157.73518321293605 L-128.4416371381795,-208.63304112547522" stroke="#0d6d4d" stroke-width="0.1" fill="none" />
<path d="M188.9872402312896,-155.9128699939836 L-83.67109622399815,-230.26972805098467" stroke="#0d6d4d" stroke-width="0.1" fill="none" />
<path d="M190.4878044617942,-154.07594345427597 L-35.45397864374143,-242.42115295148878" stroke="#0d6d4d" stroke-width="0.1" fill="none" />
<path d="M191.97051474998702,-152.22457576431285 L14.223557898708936,-244.58677478699065" stroke="#0d6d4d" stroke-width="0.1" fill="none" />
<path d="M193.43523212516573,-150.3589404481265 L63.31519817620509,-236.6773873438438" stroke="#0d6d4d" stroke-width="0.1" fill="none" />
<path d="M194.88181930305862,-148.4792123670179 L109.79876117863071,-219.01879381376844" stroke="#0d6d4d" stroke-width="0.1" fill="none" />
<path d="M196.3101406986916,-146.5855677031675 L151.7594977174332,-192.338386320964" stroke="#0d6d4d" stroke-width="0.1" fill="none" />
<path d="M197.72006243909647,-144.67818394312184 L187.46896270258043,-157.73518321293605" stroke="#0d6d4d" stroke-width="0.1" fill="none" />
<path d="M199.11145237585825,-142.75723986115847 L215.45621318805968,-116.63455833783307" stroke="#0d6d4d" stroke-width="0.1" fill="none" />
<path d="M200.48418009750142,-140.8229155025297 L234.56839939869133,-70.72952709820713" stroke="#0d6d4d" stroke-width="0.1" fill="none" />
<path d="M201.83811694171274,-138.87539216658757 L244.01825287494788,-21.9110078238767" stroke="#0d6d4d" stroke-width="0.1" fill="none" />
<path d="M203.17313600740073,-136.91485238979095 L243.41651560589202,27.810068865188658" stroke="#0d6d4d" stroke-width="0.1" fill="none" />
<path d="M204.4891121665896,-134.94147992859698 L232.78797433060362,76.38559423775031" stroke="#0d6d4d" stroke-width="0.1" fill="none" />
<path d="M205.78592207614722,-132.95545974223805 L212.5704395237508,121.81464706955154" stroke="#0d6d4d" stroke-width="0.1" fill="none" />
<path d="M207.0634441893458,-130.95697797538577 L183.59671112289294,162.22591551554578" stroke="#0d6d4d" stroke-width="0.1" fill="none" />
<path d="M208.3215587672542,-128.94622194070465 L147.06027386460212,195.95478011742458" stroke="#0d6d4d" stroke-width="0.1" fill="none" />
<path d="M209.56014788996058,-126.92338010129517 L104.46613530583492,221.61188274608153" stroke="#0d6d4d" stroke-width="0.1" fill="none" />
<path d="M210.77909546762498,-124.88864205302993 L57.56883160893855,238.14035698969982" stroke="#0d6d4d" stroke-width="0.1" fill="none" />
<path d="M211.97828725135992,-122.84219850678323 L8.300154753676741,244.85936255545758" stroke="#0d6d4d" stroke-width="0.1" fill="none" />
<path d="M213.15761084393878,-120.78424127055625 L-41.31042176574452,241.49213041740367" stroke="#0d6d4d" stroke-width="0.1" fill="none" />
<path d="M214.3169557103305,-118.71496323149931 L-89.21934093694146,228.17736347582292" stroke="#0d6d4d" stroke-width="0.1" fill="none" />
<path d="M215.45621318805968,-116.63455833783307 L-133.45314035337054,205.46352311255538" stroke="#0d6d4d" stroke-width="0.1" fill="none" />
<path d="M216.57527649739123,-114.54322158067032 L-172.18974300396488,174.28623699026988" stroke="#0d6d4d" stroke-width="0.1" fill="none" />
<path d="M217.67404075133874,-112.44114897573984 L-203.83351220122185,135.9297587127791" stroke="#0d6d4d" stroke-width="0.1" fill="none" />
<path d="M218.75240296549512,-110.32853754501437 L-227.08097898795253,91.97406689862665" stroke="#0d6d4d" stroke-width="0.1" fill="none" />
<path d="M219.81026206768507,-108.20558529824426 L-240.97453458181226,44.22978276092884" stroke="#0d6d4d" stroke-width="0.1" fill="none" />
<path d="M220.8475189074383,-106.07249121439862 L-244.941876160445,-5.33641293391268" stroke="#0d6d4d" stroke-width="0.1" fill="none" />
<path d="M221.86407626528288,-103.92945522301532 L-238.81958113793567,-54.68279130678087" stroke="#0d6d4d" stroke-width="0.1" fill="none" />
<path d="M222.85983886185699,-101.77667818546217 L-222.85983886185704,-101.77667818546207" stroke="#0d6d4d" stroke-width="0.1" fill="none" />
<path d="M223.8347133668396,-99.61436187611078 L-197.72006243909652,-144.67818394312178" stroke="#0d6d4d" stroke-width="0.1" fill="none" />
<path d="M224.78860840769784,-97.44270896342464 L-164.43580859974736,-181.62011135925243" stroke="#0d6d4d" stroke-width="0.1" fill="none" />
<path d="M225.72143457825118,-95.26192299096357 L-124.37812108301577,-211.08074994148248" stroke="#0d6d4d" stroke-width="0.1" fill="none" />
<path d="M226.63310444705127,-93.07220835830614 L-79.19705465479748,-231.84655816726072" stroke="#0d6d4d" stroke-width="0.1" fill="none" />
<path d="M227.5235325655767,-90.87377030189165 L-30.75370611347753,-243.06215164086294" stroke="#0d6d4d" stroke-width="0.1" fill="none" />
<path d="M228.39263547624174,-88.6668148757841 L18.956447939775313,-244.26553805542562" stroke="#0d6d4d" stroke-width="0.1" fill="none" />
<path d="M229.2403317202188,-86.45154893235893 L67.88574869852862,-235.40714756277094" stroke="#0d6d4d" stroke-width="0.1" fill="none" />
<path d="M230.0665418450732,-84.22818010291556 L114.01870223604996,-216.85187465273842" stroke="#0d6d4d" stroke-width="0.1" fill="none" />
<path d="M230.87118841221013,-81.99691677821654 L155.45500165575112,-189.36404743300778" stroke="#0d6d4d" stroke-width="0.1" fill="none" />
<path d="M231.65419600413276,-79.75796808895551 L190.4878044617942,-154.07594345427597" stroke="#0d6d4d" stroke-width="0.1" fill="none" />
<path d="M232.41549123151088,-77.511543886156 L217.67404075133874,-112.44114897573984" stroke="#0d6d4d" stroke-width="0.1" fill="none" />
<path d="M233.15500274005962,-75.25785472150261 L235.89385609600345,-66.1746828942763" stroke="#0d6d4d" stroke-width="0.1" fill="none" />
<path d="M233.87266121722718,-72.99711182760646 L244.39674054359386,-17.18235175018994" stroke="#0d6d4d" stroke-width="0.1" fill="none" />
<path d="M234.56839939869133,-70.72952709820713 L242.83244359598177,32.5177541845118" stroke="#0d6d4d" stroke-width="0.1" fill="none" />
<path d="M235.24215207466412,-68.45531306831204 L231.26540171452308,80.87839000511981" stroke="#0d6d4d" stroke-width="0.1" fill="none" />
<path d="M235.89385609600345,-66.1746828942763 L210.17208405575215,125.90748620976372" stroke="#0d6d4d" stroke-width="0.1" fill="none" />
<path d="M236.52345038013226,-63.887850333824076 L180.4213657717074,165.7502059518231" stroke="#0d6d4d" stroke-width="0.1" fill="none" />
<path d="M237.13087591676353,-61.59502972601361 L143.23873733716695,198.76534940993636" stroke="#0d6d4d" stroke-width="0.1" fill="none" />
<path d="M237.71607577343096,-59.296435971147716 L100.15582419184976,223.5929580296555" stroke="#0d6d4d" stroke-width="0.1" fill="none" />
<path d="M238.27899510082545,-56.99228451063174 L52.9472960825904,239.21033388535395" stroke="#0d6d4d" stroke-width="0.1" fill="none" />
<path d="M238.8195811379357,-54.68279130678083 L3.5577649335057817,244.9741666149268" stroke="#0d6d4d" stroke-width="0.1" fill="none" />
<path d="M239.3377832169935,-52.36817282257824 L-45.9783175356473,240.64703263616445" stroke="#0d6d4d" stroke-width="0.1" fill="none" />
<path d="M239.83355276822272,-50.04864600138687 L-93.62046286861741,226.40717509007047" stroke="#0d6d4d" stroke-width="0.1" fill="none" />
<path d="M240.30684332439148,-47.72442824661563 L-137.40619759682698,202.8411616560646" stroke="#0d6d4d" stroke-width="0.1" fill="none" />
<path d="M240.75761052516765,-45.395737401343006 L-175.53190137308718,170.91972267807128" stroke="#0d6d4d" stroke-width="0.1" fill="none" />
<path d="M241.18581212127634,-43.06279172789879 L-206.42710163347718,131.9577648765016" stroke="#0d6d4d" stroke-width="0.1" fill="none" />
<path d="M241.59140797846013,-40.725809887407195 L-228.81916444445648,87.56020775980822" stroke="#0d6d4d" stroke-width="0.1" fill="none" />
<path d="M241.9743600812405,-38.38501091929219 L-241.7857167922545,39.55587384012253" stroke="#0d6d4d" stroke-width="0.1" fill="none" />
<path d="M242.33463253648097,-36.04061422074753 L-244.79264093755404,-10.077844155261728" stroke="#0d6d4d" stroke-width="0.1" fill="none" />
<path d="M242.67219157675143,-33.69283952617315 L-237.716075773431,-59.29643597114766" stroke="#0d6d4d" stroke-width="0.1" fill="none" />
<path d="M242.98700556349291,-31.341906886580077 L-220.8475189074384,-106.07249121439844" stroke="#0d6d4d" stroke-width="0.1" fill="none" />
<path d="M243.2790449899831,-28.988036648965565 L-194.88181930305862,-148.4792123670179" stroke="#0d6d4d" stroke-width="0.1" fill="none" />
<path d="M243.54828248410183,-26.63144943566052 L-160.88855508719018,-184.76978335744232" stroke="#0d6d4d" stroke-width="0.1" fill="none" />
<path d="M243.79469281089658,-24.27236612365117 L-120.26797552794912,-213.4493243428253" stroke="#0d6d4d" stroke-width="0.1" fill="none" />
<path d="M244.01825287494788,-21.9110078238767 L-74.693322019192,-233.33646874360915" stroke="#0d6d4d" stroke-width="0.1" fill="none" />
<path d="M244.21894172253377,-19.54759586050536 L-26.041903983604573,-243.61202605148358" stroke="#0d6d4d" stroke-width="0.1" fill="none" />
<path d="M244.39674054359386,-17.18235175018994 L23.68223118681976,-243.85272589416346" stroke="#0d6d4d" stroke-width="0.1" fill="none" />
<path d="M244.55163267349232,-14.815497181305819 L72.43084877599252,-234.0486533727321" stroke="#0d6d4d" stroke-width="0.1" fill="none" />
<path d="M244.68360359457975,-12.447253993172586 L118.19589755154469,-214.60365747578663" stroke="#0d6d4d" stroke-width="0.1" fill="none" />
<path d="M244.79264093755407,-10.07784415526157 L159.09222533608204,-186.31871574700511" stroke="#0d6d4d" stroke-width="0.1" fill="none" />
<path d="M244.87873448261954,-7.707489746391414 L193.43523212516573,-150.3589404481265" stroke="#0d6d4d" stroke-width="0.1" fill="none" />
<path d="M244.941876160445,-5.3364129339128485 L219.81026206768507,-108.20558529824426" stroke="#0d6d4d" stroke-width="0.1" fill="none" />
<path d="M244.98206005291996,-2.964835952885786 L237.13087591676353,-61.59502972601361" stroke="#0d6d4d" stroke-width="0.1" fill="none" />
<path d="M244.99928239370934,-0.5929810852495168 L244.68360359457975,-12.447253993172586" stroke="#0d6d4d" stroke-width="0.1" fill="none" />
<path d="M244.99354156860653,1.7789293610108958 L242.15733342512686,37.21324856058564" stroke="#0d6d4d" stroke-width="0.1" fill="none" />
<path d="M244.96483811568459,4.1506730727011965 L229.65612743473386,85.34086437153822" stroke="#0d6d4d" stroke-width="0.1" fill="none" />
<path d="M244.91317472524588,6.522027752254745 L207.6949348329694,129.9531224893369" stroke="#0d6d4d" stroke-width="0.1" fill="none" />
<path d="M244.83855623956993,8.892771138568007 L177.17838024406203,169.21235644624352" stroke="#0d6d4d" stroke-width="0.1" fill="none" />
<path d="M244.74098965245955,11.262681027832103 L139.36350044321514,201.501401345534" stroke="#0d6d4d" stroke-width="0.1" fill="none" />
<path d="M244.62048410858526,13.631535294360058 L95.80796454478023,225.4902080574368" stroke="#0d6d4d" stroke-width="0.1" fill="none" />
<path d="M244.47705090262832,15.999111911405652 L48.3059105543604,240.19063055313822" stroke="#0d6d4d" stroke-width="0.1" fill="none" />
<path d="M244.310703478222,18.365188971973524 L-1.1859586968094198,244.99712957904111" stroke="#0d6d4d" stroke-width="0.1" fill="none" />
<path d="M244.12145742669148,20.72954470961798 L-50.62897598169916,239.7117160070499" stroke="#0d6d4d" stroke-width="0.1" fill="none" />
<path d="M243.90933048559282,23.09195751922858 L-97.98648638164661,224.5521063953295" stroke="#0d6d4d" stroke-width="0.1" fill="none" />
<path d="M243.67434253705005,25.45220597780064 L-141.30774109958895,200.1427548159851" stroke="#0d6d4d" stroke-width="0.1" fill="none" />
<path d="M243.41651560589202,27.810068865188658 L-178.8082526315471,167.48913036628025" stroke="#0d6d4d" stroke-width="0.1" fill="none" />
<path d="M243.13587385758774,30.165325184840697 L-208.94330130914324,127.93629992319063" stroke="#0d6d4d" stroke-width="0.1" fill="none" />
<path d="M242.83244359598177,32.5177541845118 L-230.47156533440315,83.11352219891748" stroke="#0d6d4d" stroke-width="0.1" fill="none" />
<path d="M242.50625326082852,34.86713537695488 L-242.50625326082852,34.867135376954884" stroke="#0d6d4d" stroke-width="0.1" fill="none" />
<path d="M242.15733342512686,37.21324856058564 L-244.55163267349232,-14.815497181305815" stroke="#0d6d4d" stroke-width="0.1" fill="none" />
<path d="M241.78571679225453,39.555873840122416 L-236.52345038013232,-63.88785033382393" stroke="#0d6d4d" stroke-width="0.1" fill="none" />
<path d="M241.39143819290285,41.894791647195895 L-218.7524029654951,-110.32853754501441" stroke="#0d6d4d" stroke-width="0.1" fill="none" />
<path d="M240.97453458181226,44.229782760928835 L-191.9705147499871,-152.22457576431273" stroke="#0d6d4d" stroke-width="0.1" fill="none" />
<path d="M240.5350450343086,46.56062832848304 L-157.28098427124752,-187.85018495244447" stroke="#0d6d4d" stroke-width="0.1" fill="none" />
<path d="M240.07301074264055,48.88710988557198 L-116.11274137125037,-215.73787634825075" stroke="#0d6d4d" stroke-width="0.1" fill="none" />
<path d="M239.58847501211906,51.209009376936784 L-70.1615867717,-234.73890121085003" stroke="#0d6d4d" stroke-width="0.1" fill="none" />
<path d="M239.08148325705818,53.52610917678408 L-21.3203387141317,-244.0705700348051" stroke="#0d6d4d" stroke-width="0.1" fill="none" />
<path d="M238.55208299651864,55.83819210918353 L28.399135938295867,-243.3484930669557" stroke="#0d6d4d" stroke-width="0.1" fill="none" />
<path d="M238.00032384985394,58.145041468423145 L76.94879444537746,-232.60241407475343" stroke="#0d6d4d" stroke-width="0.1" fill="none" />
<path d="M237.42625753205976,60.44644103932046 L122.32878108981163,-212.27498514210512" stroke="#0d6d4d" stroke-width="0.1" fill="none" />
<path d="M236.82993784892665,62.742175117488095 L162.66980515910666,-183.20353296128948" stroke="#0d6d4d" stroke-width="0.1" fill="none" />
<path d="M236.21142069199718,65.03202852955096 L196.3101406986916,-146.5855677031675" stroke="#0d6d4d" stroke-width="0.1" fill="none" />
<path d="M235.57076403332715,67.31578665331405 L221.86407626528288,-103.92945522301532" stroke="#0d6d4d" stroke-width="0.1" fill="none" />
<path d="M234.90802792005223,69.59323543787835 L238.27899510082545,-56.99228451063174" stroke="#0d6d4d" stroke-width="0.1" fill="none" />
<path d="M234.22327446875966,71.86416142370331 L244.87873448261954,-7.707489746391414" stroke="#0d6d4d" stroke-width="0.1" fill="none" />
<path d="M233.5165678596664,74.12835176261389 L241.39143819290285,41.894791647195895" stroke="#0d6d4d" stroke-width="0.1" fill="none" />
<path d="M232.78797433060362,76.38559423775031 L227.96075481000477,89.77134435025958" stroke="#0d6d4d" stroke-width="0.1" fill="none" />
<path d="M232.03756217080837,78.63567728345852 L205.1399205414804,133.95003919460092" stroke="#0d6d4d" stroke-width="0.1" fill="none" />
<path d="M231.26540171452308,80.87839000511981 L173.86897033894184,172.61106903462525" stroke="#0d6d4d" stroke-width="0.1" fill="none" />
<path d="M230.47156533440315,83.11352219891742 L135.43601601349235,204.16191017521618" stroke="#0d6d4d" stroke-width="0.1" fill="none" />
<path d="M229.65612743473386,85.34086437153822 L91.4241863821827,227.30292154821927" stroke="#0d6d4d" stroke-width="0.1" fill="none" />
<path d="M228.81916444445645,87.56020775980826 L43.64641508499352,241.0808794787103" stroke="#0d6d4d" stroke-width="0.1" fill="none" />
<path d="M227.96075481000477,89.77134435025958 L-5.929237709852363,244.928242838959" stroke="#0d6d4d" stroke-width="0.1" fill="none" />
<path d="M227.08097898795256,91.9740668986266 L-55.26065356672756,238.6865311813344" stroke="#0d6d4d" stroke-width="0.1" fill="none" />
<path d="M226.1799194374726,94.16816894927076 L-102.31577464881858,222.61285285897617" stroke="#0d6d4d" stroke-width="0.1" fill="none" />
<path d="M225.2576606126079,96.35344485453108 L-145.15630816853323,197.3693142281287" stroke="#0d6d4d" stroke-width="0.1" fill="none" />
<path d="M224.31428895435604,98.52968979399893 L-182.01756847150926,163.99574618787963" stroke="#0d6d4d" stroke-width="0.1" fill="none" />
<path d="M223.34989288256747,100.69669979371533 L-211.38116790208292,123.86687150465792" stroke="#0d6d4d" stroke-width="0.1" fill="none" />
<path d="M222.36456278765786,102.85427174528907 L-232.03756217080837,78.63567728345852" stroke="#0d6d4d" stroke-width="0.1" fill="none" />
<path d="M221.35839102213615,105.00220342493331 L-243.1358738575877,30.16532518484086" stroke="#0d6d4d" stroke-width="0.1" fill="none" />
<path d="M220.33147189194872,107.14029351241956 L-244.21894172253377,-19.547595860505467" stroke="#0d6d4d" stroke-width="0.1" fill="none" />
<path d="M219.28390164764002,109.26834160994729 L-235.24215207466412,-68.45531306831198" stroke="#0d6d4d" stroke-width="0.1" fill="none" />
<path d="M218.2157784753316,111.38614826092602 L-216.57527649739126,-114.54322158067028" stroke="#0d6d4d" stroke-width="0.1" fill="none" />
<path d="M217.12720248751913,113.49351496867065 L-188.9872402312896,-155.91286999398358" stroke="#0d6d4d" stroke-width="0.1" fill="none" />
<path d="M216.0182757136892,115.59024421500528 L-153.6144486343461,-190.86016129817622" stroke="#0d6d4d" stroke-width="0.1" fill="none" />
<path d="M214.88910209075624,117.67613947877688 L-111.91397641495952,-217.94554797699328" stroke="#0d6d4d" stroke-width="0.1" fill="none" />
<path d="M213.73978745332101,119.75100525427395 L-65.60354786505083,-236.0533297954468" stroke="#0d6d4d" stroke-width="0.1" fill="none" />
<path d="M212.5704395237508,121.81464706955154 L-16.590780425281125,-244.4376116821634" stroke="#0d6d4d" stroke-width="0.1" fill="none" />
<path d="M211.38116790208295,123.86687150465784 L33.10539382121541,-242.75302861126622" stroke="#0d6d4d" stroke-width="0.1" fill="none" />
<path d="M210.17208405575215,125.90748620976372 L81.43789192368266,-231.06897186560246" stroke="#0d6d4d" stroke-width="0.1" fill="none" />
<path d="M208.94330130914327,127.93629992319055 L126.41580342808363,-209.86673067361608" stroke="#0d6d4d" stroke-width="0.1" fill="none" />
<path d="M207.6949348329694,129.9531224893369 L166.18639988605594,-180.0196669614515" stroke="#0d6d4d" stroke-width="0.1" fill="none" />
<path d="M206.42710163347718,131.95776487650164 L199.11145237585825,-142.75723986115847" stroke="#0d6d4d" stroke-width="0.1" fill="none" />
<path d="M205.1399205414804,133.95003919460092 L223.8347133668396,-99.61436187611078" stroke="#0d6d4d" stroke-width="0.1" fill="none" />
<path d="M203.8335122012219,135.92975871277903 L239.3377832169935,-52.36817282257824" stroke="#0d6d4d" stroke-width="0.1" fill="none" />
<path d="M202.50799905906635,137.89673787690984 L244.98206005291996,-2.964835952885786" stroke="#0d6d4d" stroke-width="0.1" fill="none" />
<path d="M201.1635053520231,139.85079232698888 L240.5350450343086,46.56062832848304" stroke="#0d6d4d" stroke-width="0.1" fill="none" />
<path d="M199.8001570961024,141.79173891441206 L226.1799194374726,94.16816894927076" stroke="#0d6d4d" stroke-width="0.1" fill="none" />
<path d="M198.41808207450353,143.71939571914285 L202.50799905906635,137.89673787690984" stroke="#0d6d4d" stroke-width="0.1" fill="none" />
<path d="M197.0174098256387,145.63358206676207 L170.49437675790676,175.94506953573025" stroke="#0d6d4d" stroke-width="0.1" fill="none" />
<path d="M195.59827163099112,147.53411854540298 L131.45775646640487,206.74587847117868" stroke="#0d6d4d" stroke-width="0.1" fill="none" />
<path d="M194.1608005028108,149.4208270225664 L87.00613318750608,229.03041891364114" stroke="#0d6d4d" stroke-width="0.1" fill="none" />
<path d="M192.70513117164742,151.29353066181696 L38.970556524672666,241.88074690672943" stroke="#0d6d4d" stroke-width="0.1" fill="none" />
<path d="M191.23140007372234,153.15205393935776 L-10.670293844893743,244.7675322203981" stroke="#0d6d4d" stroke-width="0.1" fill="none" />
<path d="M189.73974533814098,154.99622266048104 L-59.87161386950646,237.57186250198217" stroke="#0d6d4d" stroke-width="0.1" fill="none" />
<path d="M188.2303067739459,156.82586397589594 L-106.60670461500851,220.59014150938006" stroke="#0d6d4d" stroke-width="0.1" fill="none" />
<path d="M186.70322585701354,158.64080639792837 L-148.9504559714623,194.52187965854503" stroke="#0d6d4d" stroke-width="0.1" fill="none" />
<path d="M185.1586457167933,160.44087981659482 L-185.15864571679325,160.44087981659487" stroke="#0d6d4d" stroke-width="0.1" fill="none" />
<path d="M183.59671112289294,162.22591551554578 L-213.73978745332096,119.75100525427412" stroke="#0d6d4d" stroke-width="0.1" fill="none" />
<path d="M182.01756847150935,163.99574618787955 L-233.51656785966637,74.12835176261399" stroke="#0d6d4d" stroke-width="0.1" fill="none" />
<path d="M180.4213657717074,165.7502059518231 L-243.67434253705005,25.452205977800702" stroke="#0d6d4d" stroke-width="0.1" fill="none" />
<path d="M178.8082526315472,167.4891303662802 L-243.7946928108966,-24.27236612365111" stroke="#0d6d4d" stroke-width="0.1" fill="none" />
<path d="M177.17838024406203,169.21235644624352 L-233.8726612172272,-72.9971118276063" stroke="#0d6d4d" stroke-width="0.1" fill="none" />
<path d="M175.53190137308724,170.9197226780712 L-214.3169557103305,-118.71496323149934" stroke="#0d6d4d" stroke-width="0.1" fill="none" />
<path d="M173.86897033894184,172.61106903462525 L-185.93311417999692,-159.5427123103034" stroke="#0d6d4d" stroke-width="0.1" fill="none" />
<path d="M172.189743003965,174.2862369902698 L-149.89032276489152,-193.79858395106154" stroke="#0d6d4d" stroke-width="0.1" fill="none" />
<path d="M170.49437675790676,175.94506953573025 L-107.67325478086244,-220.07151157043361" stroke="#0d6d4d" stroke-width="0.1" fill="none" />
<path d="M168.783030503177,177.58741119280842 L-61.02091411324593,-237.27926171661917" stroke="#0d6d4d" stroke-width="0.1" fill="none" />
<path d="M167.05586463995132,179.21310802895601 L-11.855002233866509,-244.713013389225" stroke="#0d6d4d" stroke-width="0.1" fill="none" />
<path d="M165.31304105113765,180.8220076717015 L37.79924045411332,-242.06655576740073" stroke="#0d6d4d" stroke-width="0.1" fill="none" />
<path d="M163.55472308720283,182.4139593229323 L85.89645824312724,-229.44890163451797" stroke="#0d6d4d" stroke-width="0.1" fill="none" />
<path d="M161.78107555086277,183.98881377302817 L130.4554323370099,-207.37979692767527" stroke="#0d6d4d" stroke-width="0.1" fill="none" />
<path d="M159.9922646816352,185.54642341484674 L169.6406911415432,-176.76831138249736" stroke="#0d6d4d" stroke-width="0.1" fill="none" />
<path d="M158.18845814025946,187.0866422575577 L201.83811694171274,-138.87539216658757" stroke="#0d6d4d" stroke-width="0.1" fill="none" />
<path d="M156.36982499298088,188.60932594032707 L225.72143457825118,-95.26192299096357" stroke="#0d6d4d" stroke-width="0.1" fill="none" />
<path d="M154.53653569570568,190.11433174584678 L240.30684332439148,-47.72442824661563" stroke="#0d6d4d" stroke-width="0.1" fill="none" />
<path d="M152.68876207802376,191.6015186137121 L244.99354156860653,1.7789293610108958" stroke="#0d6d4d" stroke-width="0.1" fill="none" />
<path d="M150.82667732710422,193.07074715364206 L239.58847501211906,51.209009376936784" stroke="#0d6d4d" stroke-width="0.1" fill="none" />
<path d="M148.95045597146242,194.52187965854492 L224.31428895435604,98.52968979399893" stroke="#0d6d4d" stroke-width="0.1" fill="none" />
<path d="M147.06027386460212,195.95478011742458 L199.8001570961024,141.79173891441206" stroke="#0d6d4d" stroke-width="0.1" fill="none" />
<path d="M145.15630816853337,197.36931422812862 L167.05586463995132,179.21310802895601" stroke="#0d6d4d" stroke-width="0.1" fill="none" />
<path d="M143.23873733716695,198.76534940993636 L127.43021325600876,209.25233750075083" stroke="#0d6d4d" stroke-width="0.1" fill="none" />
<path d="M141.3077410995891,200.14275481598503 L82.55546129394806,230.67205251296363" stroke="#0d6d4d" stroke-width="0.1" fill="none" />
<path d="M139.36350044321514,201.501401345534 L34.28008785812194,242.58993296598157" stroke="#0d6d4d" stroke-width="0.1" fill="none" />
<path d="M137.40619759682704,202.8411616560646 L-15.407349674564095,244.51505797395325" stroke="#0d6d4d" stroke-width="0.1" fill="none" />
<path d="M135.43601601349235,204.16191017521618 L-64.46012823574254,236.36812785955647" stroke="#0d6d4d" stroke-width="0.1" fill="none" />
<path d="M133.4531403533706,205.46352311255535 L-110.85766760566258,218.48473066334049" stroke="#0d6d4d" stroke-width="0.1" fill="none" />
<path d="M131.45775646640487,206.74587847117868 L-152.6887620780237,191.60151861371213" stroke="#0d6d4d" stroke-width="0.1" fill="none" />
<path d="M129.45005137490324,208.00885605914698 L-188.23030677394584,156.82586397589603" stroke="#0d6d4d" stroke-width="0.1" fill="none" />
<path d="M127.43021325600876,209.25233750075083 L-216.01827571368918,115.59024421500533" stroke="#0d6d4d" stroke-width="0.1" fill="none" />
<path d="M125.3984314240631,210.47620624760543 L-234.90802792005223,69.59323543787835" stroke="#0d6d4d" stroke-width="0.1" fill="none" />
<path d="M123.3548963128617,211.68034758957464 L-244.12145742669148,20.729544709618146" stroke="#0d6d4d" stroke-width="0.1" fill="none" />
<path d="M121.29979945780556,212.86464866552208 L-243.27904498998313,-28.988036648965398" stroke="#0d6d4d" stroke-width="0.1" fill="none" />
<path d="M119.23333347794853,214.02899847388977 L-232.4154912315109,-77.5115438861559" stroke="#0d6d4d" stroke-width="0.1" fill="none" />
<path d="M117.15569205794415,215.1732878831017 L-211.97828725135994,-122.84219850678318" stroke="#0d6d4d" stroke-width="0.1" fill="none" />
<path d="M115.06706992989183,216.29740964179248 L-182.80928159145975,-163.11274188123494" stroke="#0d6d4d" stroke-width="0.1" fill="none" />
<path d="M112.96766285508481,217.40125838886004 L-146.1100028419328,-196.6643512930861" stroke="#0d6d4d" stroke-width="0.1" fill="none" />
<path d="M110.85766760566264,218.48473066334046 L-103.39216632035216,-222.11497010238782" stroke="#0d6d4d" stroke-width="0.1" fill="none" />
<path d="M108.7372819461674,219.5477249141054 L-56.41540355092176,-238.4162373710873" stroke="#0d6d4d" stroke-width="0.1" fill="none" />
<path d="M106.60670461500857,220.59014150938003 L-7.114779588550117,-244.89667190757484" stroke="#0d6d4d" stroke-width="0.1" fill="none" />
<path d="M104.46613530583492,221.61188274608153 L42.4789161085164,-241.28933189481384" stroke="#0d6d4d" stroke-width="0.1" fill="none" />
<path d="M102.31577464881862,222.61285285897614 L90.32282188209672,-227.74281074768314" stroke="#0d6d4d" stroke-width="0.1" fill="none" />
<path d="M100.15582419184976,223.5929580296555 L134.4461533550904,-204.81511625858948" stroke="#0d6d4d" stroke-width="0.1" fill="none" />
<path d="M97.98648638164666,224.55210639532947 L173.03138390782445,-173.45068516135376" stroke="#0d6d4d" stroke-width="0.1" fill="none" />
<path d="M95.80796454478023,225.4902080574368 L204.4891121665896,-134.94147992859698" stroke="#0d6d4d" stroke-width="0.1" fill="none" />
<path d="M93.62046286861735,226.4071750900705 L227.5235325655767,-90.87377030189165" stroke="#0d6d4d" stroke-width="0.1" fill="none" />
<path d="M91.4241863821827,227.30292154821927 L241.18581212127634,-43.06279172789879" stroke="#0d6d4d" stroke-width="0.1" fill="none" />
<path d="M89.21934093694142,228.17736347582292 L244.91317472524588,6.522027752254745" stroke="#0d6d4d" stroke-width="0.1" fill="none" />
<path d="M87.00613318750608,229.03041891364114 L238.55208299651864,55.83819210918353" stroke="#0d6d4d" stroke-width="0.1" fill="none" />
<path d="M84.78477057226654,229.86200790693562 L222.36456278765786,102.85427174528907" stroke="#0d6d4d" stroke-width="0.1" fill="none" />
<path d="M82.55546129394806,230.67205251296363 L197.0174098256387,145.63358206676207" stroke="#0d6d4d" stroke-width="0.1" fill="none" />
<path d="M80.3184143000963,231.4604768082838 L163.55472308720283,182.4139593229323" stroke="#0d6d4d" stroke-width="0.1" fill="none" />
<path d="M78.07383926349384,232.22720689587197 L123.3548963128617,211.68034758957464" stroke="#0d6d4d" stroke-width="0.1" fill="none" />
<path d="M75.82194656250739,232.97217091204752 L78.07383926349384,232.22720689587197" stroke="#0d6d4d" stroke-width="0.1" fill="none" />
<path d="M73.56294726137034,233.69529903320873 L29.576767547411116,243.2081717818018" stroke="#0d6d4d" stroke-width="0.1" fill="none" />
<path d="M71.29705309039936,234.39652348237755 L-20.13862927121289,244.17091475250825" stroke="#0d6d4d" stroke-width="0.1" fill="none" />
<path d="M69.02447642615026,235.07577853555185 L-69.02447642615031,235.07577853555185" stroke="#0d6d4d" stroke-width="0.1" fill="none" />
<path d="M66.7454302715121,235.73300052786567 L-115.06706992989177,216.2974096417925" stroke="#0d6d4d" stroke-width="0.1" fill="none" />
<path d="M64.46012823574272,236.3681278595564 L-156.36982499298094,188.609325940327" stroke="#0d6d4d" stroke-width="0.1" fill="none" />
<path d="M62.168784514448255,236.98110100173832 L-191.23140007372237,153.15205393935773" stroke="#0d6d4d" stroke-width="0.1" fill="none" />
<path d="M59.87161386950652,237.57186250198214 L-218.21577847533166,111.38614826092598" stroke="#0d6d4d" stroke-width="0.1" fill="none" />
<path d="M57.56883160893855,238.14035698969982 L-236.21142069199715,65.03202852955107" stroke="#0d6d4d" stroke-width="0.1" fill="none" />
<path d="M55.26065356672761,238.68653118133437 L-244.47705090262832,15.99911191140571" stroke="#0d6d4d" stroke-width="0.1" fill="none" />
<path d="M52.9472960825904,239.21033388535395 L-242.67219157675143,-33.692839526173096" stroke="#0d6d4d" stroke-width="0.1" fill="none" />
<path d="M50.62897598169922,239.7117160070499 L-230.87118841221022,-81.99691677821633" stroke="#0d6d4d" stroke-width="0.1" fill="none" />
<path d="M48.3059105543604,240.19063055313822 L-209.56014788996058,-126.9233801012952" stroke="#0d6d4d" stroke-width="0.1" fill="none" />
<path d="M45.97831753564724,240.64703263616445 L-179.61691359409,-166.62162029860713" stroke="#0d6d4d" stroke-width="0.1" fill="none" />
<path d="M43.64641508499352,241.0808794787103 L-142.27490611173488,-199.45638894479418" stroke="#0d6d4d" stroke-width="0.1" fill="none" />
<path d="M41.31042176574457,241.49213041740367 L-99.07231601839047,-224.07515747791447" stroke="#0d6d4d" stroke-width="0.1" fill="none" />
<path d="M38.970556524672666,241.88074690672943 L-51.788742789257995,-239.4638305053773" stroke="#0d6d4d" stroke-width="0.1" fill="none" />
<path d="M36.62703867145586,242.24669252264246 L-2.3718896042257103,-244.98851838342418" stroke="#0d6d4d" stroke-width="0.1" fill="none" />
<path d="M34.28008785812194,242.58993296598157 L47.1426663686675,-240.42164837562467" stroke="#0d6d4d" stroke-width="0.1" fill="none" />
<path d="M31.929924058461822,242.91043606568422 L94.71532339179834,-225.9513388205236" stroke="#0d6d4d" stroke-width="0.1" fill="none" />
<path d="M29.576767547411116,243.2081717818018 L138.38647035644942,-202.17365016807594" stroke="#0d6d4d" stroke-width="0.1" fill="none" />
<path d="M27.220838880405154,243.48311220831522 L176.3572070103022,-170.06803207988685" stroke="#0d6d4d" stroke-width="0.1" fill="none" />
<path d="M24.862358872706046,243.73523157575062 L207.0634441893458,-130.95697797538577" stroke="#0d6d4d" stroke-width="0.1" fill="none" />
<path d="M22.50154857870697,243.96450625359438 L229.2403317202188,-86.45154893235893" stroke="#0d6d4d" stroke-width="0.1" fill="none" />
<path d="M20.138629271212846,244.17091475250825 L241.9743600812405,-38.38501091929219" stroke="#0d6d4d" stroke-width="0.1" fill="none" />
<path d="M17.77382242070124,244.3544377263433 L244.74098965245955,11.262681027832103" stroke="#0d6d4d" stroke-width="0.1" fill="none" />
<path d="M15.407349674564047,244.51505797395325 L237.42625753205976,60.44644103932046" stroke="#0d6d4d" stroke-width="0.1" fill="none" />
<path d="M13.039432836333795,244.65276044080667 L220.33147189194872,107.14029351241956" stroke="#0d6d4d" stroke-width="0.1" fill="none" />
<path d="M10.670293844893697,244.7675322203981 L194.1608005028108,149.4208270225664" stroke="#0d6d4d" stroke-width="0.1" fill="none" />
<path d="M8.300154753676741,244.85936255545758 L159.9922646816352,185.54642341484674" stroke="#0d6d4d" stroke-width="0.1" fill="none" />
<path d="M5.929237709852423,244.928242838959 L119.23333347794853,214.02899847388977" stroke="#0d6d4d" stroke-width="0.1" fill="none" />
<path d="M3.5577649335057817,244.9741666149268 L73.56294726137034,233.69529903320873" stroke="#0d6d4d" stroke-width="0.1" fill="none" />
<path d="M1.1859586968095885,244.99712957904111 L24.862358872706046,243.73523157575062" stroke="#0d6d4d" stroke-width="0.1" fill="none" />
<path d="M-1.1859586968094198,244.99712957904111 L-24.862358872705986,243.73523157575062" stroke="#0d6d4d" stroke-width="0.1" fill="none" />
<path d="M-3.5577649335056125,244.9741666149268 L-73.56294726137028,233.69529903320873" stroke="#0d6d4d" stroke-width="0.1" fill="none" />
<path d="M-5.929237709852363,244.928242838959 L-119.23333347794848,214.02899847388983" stroke="#0d6d4d" stroke-width="0.1" fill="none" />
<path d="M-8.300154753676571,244.85936255545758 L-159.99226468163525,185.54642341484669" stroke="#0d6d4d" stroke-width="0.1" fill="none" />
<path d="M-10.670293844893743,244.7675322203981 L-194.16080050281073,149.42082702256647" stroke="#0d6d4d" stroke-width="0.1" fill="none" />
<path d="M-13.039432836333624,244.65276044080667 L-220.3314718919487,107.14029351241962" stroke="#0d6d4d" stroke-width="0.1" fill="none" />
<path d="M-15.407349674564095,244.51505797395325 L-237.42625753205976,60.44644103932047" stroke="#0d6d4d" stroke-width="0.1" fill="none" />
<path d="M-17.773822420701286,244.3544377263433 L-244.74098965245955,11.262681027832055" stroke="#0d6d4d" stroke-width="0.1" fill="none" />
<path d="M-20.13862927121289,244.17091475250825 L-241.9743600812405,-38.38501091929202" stroke="#0d6d4d" stroke-width="0.1" fill="none" />
<path d="M-22.501548578707016,243.96450625359438 L-229.24033172021876,-86.45154893235899" stroke="#0d6d4d" stroke-width="0.1" fill="none" />
<path d="M-24.862358872705986,243.73523157575062 L-207.06344418934586,-130.9569779753857" stroke="#0d6d4d" stroke-width="0.1" fill="none" />
<path d="M-27.220838880405093,243.48311220831522 L-176.3572070103022,-170.06803207988682" stroke="#0d6d4d" stroke-width="0.1" fill="none" />
<path d="M-29.57676754741095,243.2081717818018 L-138.38647035644942,-202.1736501680759" stroke="#0d6d4d" stroke-width="0.1" fill="none" />
<path d="M-31.92992405846177,242.91043606568422 L-94.71532339179852,-225.95133882052352" stroke="#0d6d4d" stroke-width="0.1" fill="none" />
<path d="M-34.28008785812178,242.5899329659816 L-47.14266636866765,-240.42164837562464" stroke="#0d6d4d" stroke-width="0.1" fill="none" />
<path d="M-36.6270386714558,242.2466925226425 L2.371889604225493,-244.98851838342418" stroke="#0d6d4d" stroke-width="0.1" fill="none" />
<path d="M-38.9705565246725,241.88074690672946 L51.78874278925795,-239.46383050537733" stroke="#0d6d4d" stroke-width="0.1" fill="none" />
<path d="M-41.31042176574452,241.49213041740367 L99.0723160183904,-224.0751574779145" stroke="#0d6d4d" stroke-width="0.1" fill="none" />
<path d="M-43.64641508499357,241.0808794787103 L142.2749061117348,-199.45638894479427" stroke="#0d6d4d" stroke-width="0.1" fill="none" />
<path d="M-45.9783175356473,240.64703263616445 L179.61691359408988,-166.62162029860727" stroke="#0d6d4d" stroke-width="0.1" fill="none" />
<path d="M-48.30591055436035,240.19063055313822 L209.56014788996058,-126.92338010129517" stroke="#0d6d4d" stroke-width="0.1" fill="none" />
<path d="M-50.62897598169916,239.7117160070499 L230.87118841221013,-81.99691677821654" stroke="#0d6d4d" stroke-width="0.1" fill="none" />
<path d="M-52.94729608259034,239.21033388535395 L242.67219157675143,-33.69283952617315" stroke="#0d6d4d" stroke-width="0.1" fill="none" />
<path d="M-55.26065356672756,238.6865311813344 L244.47705090262832,15.999111911405652" stroke="#0d6d4d" stroke-width="0.1" fill="none" />
<path d="M-57.5688316089385,238.14035698969982 L236.21142069199718,65.03202852955096" stroke="#0d6d4d" stroke-width="0.1" fill="none" />
<path d="M-59.87161386950646,237.57186250198217 L218.2157784753316,111.38614826092602" stroke="#0d6d4d" stroke-width="0.1" fill="none" />
<path d="M-62.168784514448205,236.98110100173835 L191.23140007372234,153.15205393935776" stroke="#0d6d4d" stroke-width="0.1" fill="none" />
<path d="M-64.46012823574254,236.36812785955647 L156.36982499298088,188.60932594032707" stroke="#0d6d4d" stroke-width="0.1" fill="none" />
<path d="M-66.74543027151206,235.73300052786567 L115.06706992989183,216.29740964179248" stroke="#0d6d4d" stroke-width="0.1" fill="none" />
<path d="M-69.02447642615031,235.07577853555185 L69.02447642615026,235.07577853555185" stroke="#0d6d4d" stroke-width="0.1" fill="none" />
<path d="M-71.29705309039932,234.39652348237757 L20.138629271212846,244.17091475250825" stroke="#0d6d4d" stroke-width="0.1" fill="none" />
<path d="M-73.56294726137028,233.69529903320873 L-29.57676754741095,243.2081717818018" stroke="#0d6d4d" stroke-width="0.1" fill="none" />
<path d="M-75.82194656250735,232.97217091204752 L-78.07383926349378,232.227206895872" stroke="#0d6d4d" stroke-width="0.1" fill="none" />
<path d="M-78.07383926349378,232.227206895872 L-123.35489631286164,211.6803475895747" stroke="#0d6d4d" stroke-width="0.1" fill="none" />
<path d="M-80.31841430009624,231.46047680828383 L-163.5547230872028,182.41395932293233" stroke="#0d6d4d" stroke-width="0.1" fill="none" />
<path d="M-82.55546129394801,230.67205251296363 L-197.01740982563865,145.63358206676213" stroke="#0d6d4d" stroke-width="0.1" fill="none" />
<path d="M-84.78477057226648,229.86200790693564 L-222.3645627876579,102.85427174528903" stroke="#0d6d4d" stroke-width="0.1" fill="none" />
<path d="M-87.00613318750604,229.03041891364117 L-238.5520829965186,55.838192109183694" stroke="#0d6d4d" stroke-width="0.1" fill="none" />
<path d="M-89.21934093694146,228.17736347582292 L-244.91317472524585,6.522027752254915" stroke="#0d6d4d" stroke-width="0.1" fill="none" />
<path d="M-91.42418638218264,227.30292154821927 L-241.18581212127634,-43.06279172789873" stroke="#0d6d4d" stroke-width="0.1" fill="none" />
<path d="M-93.62046286861741,226.40717509007047 L-227.5235325655767,-90.87377030189161" stroke="#0d6d4d" stroke-width="0.1" fill="none" />
<path d="M-95.80796454478018,225.49020805743683 L-204.4891121665896,-134.94147992859695" stroke="#0d6d4d" stroke-width="0.1" fill="none" />
<path d="M-97.98648638164661,224.5521063953295 L-173.03138390782442,-173.45068516135376" stroke="#0d6d4d" stroke-width="0.1" fill="none" />
<path d="M-100.1558241918497,223.5929580296555 L-134.4461533550905,-204.81511625858937" stroke="#0d6d4d" stroke-width="0.1" fill="none" />
<path d="M-102.31577464881858,222.61285285897617 L-90.3228218820966,-227.7428107476832" stroke="#0d6d4d" stroke-width="0.1" fill="none" />
<path d="M-104.46613530583487,221.61188274608156 L-42.478916108516465,-241.2893318948138" stroke="#0d6d4d" stroke-width="0.1" fill="none" />
<path d="M-106.60670461500851,220.59014150938006 L7.114779588550021,-244.89667190757484" stroke="#0d6d4d" stroke-width="0.1" fill="none" />
<path d="M-108.73728194616736,219.54772491410543 L56.41540355092184,-238.41623737108728" stroke="#0d6d4d" stroke-width="0.1" fill="none" />
<path d="M-110.85766760566258,218.48473066334049 L103.39216632035202,-222.1149701023879" stroke="#0d6d4d" stroke-width="0.1" fill="none" />
<path d="M-112.96766285508485,217.40125838886001 L146.11000284193284,-196.6643512930861" stroke="#0d6d4d" stroke-width="0.1" fill="none" />
<path d="M-115.06706992989177,216.2974096417925 L182.80928159145972,-163.112741881235" stroke="#0d6d4d" stroke-width="0.1" fill="none" />
<path d="M-117.1556920579442,215.17328788310166 L211.97828725135992,-122.84219850678323" stroke="#0d6d4d" stroke-width="0.1" fill="none" />
<path d="M-119.23333347794848,214.02899847388983 L232.41549123151088,-77.511543886156" stroke="#0d6d4d" stroke-width="0.1" fill="none" />
<path d="M-121.29979945780552,212.8646486655221 L243.2790449899831,-28.988036648965565" stroke="#0d6d4d" stroke-width="0.1" fill="none" />
<path d="M-123.35489631286164,211.6803475895747 L244.12145742669148,20.72954470961798" stroke="#0d6d4d" stroke-width="0.1" fill="none" />
<path d="M-125.39843142406308,210.47620624760546 L234.90802792005223,69.59323543787835" stroke="#0d6d4d" stroke-width="0.1" fill="none" />
<path d="M-127.4302132560087,209.25233750075085 L216.0182757136892,115.59024421500528" stroke="#0d6d4d" stroke-width="0.1" fill="none" />
<path d="M-129.45005137490318,208.00885605914698 L188.2303067739459,156.82586397589594" stroke="#0d6d4d" stroke-width="0.1" fill="none" />
<path d="M-131.45775646640485,206.7458784711787 L152.68876207802376,191.6015186137121" stroke="#0d6d4d" stroke-width="0.1" fill="none" />
<path d="M-133.45314035337054,205.46352311255538 L110.85766760566264,218.48473066334046" stroke="#0d6d4d" stroke-width="0.1" fill="none" />
<path d="M-135.43601601349238,204.16191017521615 L64.46012823574272,236.3681278595564" stroke="#0d6d4d" stroke-width="0.1" fill="none" />
<path d="M-137.40619759682698,202.8411616560646 L15.407349674564047,244.51505797395325" stroke="#0d6d4d" stroke-width="0.1" fill="none" />
<path d="M-139.36350044321517,201.50140134553396 L-34.28008785812178,242.5899329659816" stroke="#0d6d4d" stroke-width="0.1" fill="none" />
<path d="M-141.30774109958895,200.1427548159851 L-82.55546129394801,230.67205251296363" stroke="#0d6d4d" stroke-width="0.1" fill="none" />
<path d="M-143.2387373371669,198.76534940993642 L-127.4302132560087,209.25233750075085" stroke="#0d6d4d" stroke-width="0.1" fill="none" />
<path d="M-145.15630816853323,197.3693142281287 L-167.0558646399513,179.21310802895607" stroke="#0d6d4d" stroke-width="0.1" fill="none" />
<path d="M-147.06027386460207,195.9547801174246 L-199.80015709610228,141.79173891441224" stroke="#0d6d4d" stroke-width="0.1" fill="none" />
<path d="M-148.9504559714623,194.52187965854503 L-224.31428895435602,98.52968979399901" stroke="#0d6d4d" stroke-width="0.1" fill="none" />
<path d="M-150.82667732710416,193.0707471536421 L-239.58847501211903,51.20900937693684" stroke="#0d6d4d" stroke-width="0.1" fill="none" />
<path d="M-152.6887620780237,191.60151861371213 L-244.99354156860653,1.778929361010956" stroke="#0d6d4d" stroke-width="0.1" fill="none" />
<path d="M-154.53653569570565,190.11433174584684 L-240.3068433243915,-47.72442824661547" stroke="#0d6d4d" stroke-width="0.1" fill="none" />
<path d="M-156.36982499298094,188.609325940327 L-225.72143457825115,-95.26192299096363" stroke="#0d6d4d" stroke-width="0.1" fill="none" />
<path d="M-158.18845814025943,187.08664225755777 L-201.8381169417128,-138.87539216658746" stroke="#0d6d4d" stroke-width="0.1" fill="none" />
<path d="M-159.99226468163525,185.54642341484669 L-169.64069114154324,-176.7683113824973" stroke="#0d6d4d" stroke-width="0.1" fill="none" />
<path d="M-161.78107555086265,183.98881377302828 L-130.45543233700994,-207.37979692767524" stroke="#0d6d4d" stroke-width="0.1" fill="none" />
<path d="M-163.5547230872028,182.41395932293233 L-85.89645824312724,-229.44890163451797" stroke="#0d6d4d" stroke-width="0.1" fill="none" />
<path d="M-165.31304105113753,180.8220076717016 L-37.7992404541135,-242.0665557674007" stroke="#0d6d4d" stroke-width="0.1" fill="none" />
<path d="M-167.0558646399513,179.21310802895607 L11.855002233866317,-244.713013389225" stroke="#0d6d4d" stroke-width="0.1" fill="none" />
<path d="M-168.78303050317686,177.58741119280853 L61.02091411324593,-237.27926171661917" stroke="#0d6d4d" stroke-width="0.1" fill="none" />
<path d="M-170.4943767579067,175.94506953573025 L107.6732547808624,-220.07151157043361" stroke="#0d6d4d" stroke-width="0.1" fill="none" />
<path d="M-172.18974300396488,174.28623699026988 L149.89032276489144,-193.79858395106157" stroke="#0d6d4d" stroke-width="0.1" fill="none" />
<path d="M-173.86897033894178,172.61106903462527 L185.9331141799968,-159.5427123103035" stroke="#0d6d4d" stroke-width="0.1" fill="none" />
<path d="M-175.53190137308718,170.91972267807128 L214.3169557103305,-118.71496323149931" stroke="#0d6d4d" stroke-width="0.1" fill="none" />
<path d="M-177.17838024406194,169.21235644624358 L233.87266121722718,-72.99711182760646" stroke="#0d6d4d" stroke-width="0.1" fill="none" />
<path d="M-178.8082526315471,167.48913036628025 L243.79469281089658,-24.27236612365117" stroke="#0d6d4d" stroke-width="0.1" fill="none" />
<path d="M-180.42136577170723,165.75020595182326 L243.67434253705005,25.45220597780064" stroke="#0d6d4d" stroke-width="0.1" fill="none" />
<path d="M-182.01756847150926,163.99574618787963 L233.5165678596664,74.12835176261389" stroke="#0d6d4d" stroke-width="0.1" fill="none" />
<path d="M-183.59671112289283,162.22591551554592 L213.73978745332101,119.75100525427395" stroke="#0d6d4d" stroke-width="0.1" fill="none" />
<path d="M-185.15864571679325,160.44087981659487 L185.1586457167933,160.44087981659482" stroke="#0d6d4d" stroke-width="0.1" fill="none" />
<path d="M-186.70322585701348,158.64080639792843 L148.95045597146242,194.52187965854492" stroke="#0d6d4d" stroke-width="0.1" fill="none" />
<path d="M-188.23030677394584,156.82586397589603 L106.60670461500857,220.59014150938003" stroke="#0d6d4d" stroke-width="0.1" fill="none" />
<path d="M-189.73974533814098,154.99622266048104 L59.87161386950652,237.57186250198214" stroke="#0d6d4d" stroke-width="0.1" fill="none" />
<path d="M-191.23140007372237,153.15205393935773 L10.670293844893697,244.7675322203981" stroke="#0d6d4d" stroke-width="0.1" fill="none" />
<path d="M-192.70513117164737,151.29353066181704 L-38.9705565246725,241.88074690672946" stroke="#0d6d4d" stroke-width="0.1" fill="none" />
<path d="M-194.16080050281073,149.42082702256647 L-87.00613318750604,229.03041891364117" stroke="#0d6d4d" stroke-width="0.1" fill="none" />
<path d="M-195.59827163099112,147.53411854540295 L-131.45775646640485,206.7458784711787" stroke="#0d6d4d" stroke-width="0.1" fill="none" />
<path d="M-197.01740982563865,145.63358206676213 L-170.4943767579067,175.94506953573025" stroke="#0d6d4d" stroke-width="0.1" fill="none" />
<path d="M-198.41808207450347,143.71939571914294 L-202.5079990590663,137.89673787690992" stroke="#0d6d4d" stroke-width="0.1" fill="none" />
<path d="M-199.80015709610228,141.79173891441224 L-226.1799194374726,94.16816894927076" stroke="#0d6d4d" stroke-width="0.1" fill="none" />
<path d="M-201.16350535202312,139.85079232698885 L-240.53504503430855,46.56062832848321" stroke="#0d6d4d" stroke-width="0.1" fill="none" />
<path d="M-202.5079990590663,137.89673787690992 L-244.98206005291996,-2.9648359528856174" stroke="#0d6d4d" stroke-width="0.1" fill="none" />
<path d="M-203.83351220122185,135.9297587127791 L-239.33778321699353,-52.368172822578124" stroke="#0d6d4d" stroke-width="0.1" fill="none" />
<path d="M-205.1399205414804,133.9500391946009 L-223.83471336683962,-99.61436187611073" stroke="#0d6d4d" stroke-width="0.1" fill="none" />
<path d="M-206.42710163347718,131.9577648765016 L-199.11145237585828,-142.75723986115844" stroke="#0d6d4d" stroke-width="0.1" fill="none" />
<path d="M-207.69493483296935,129.95312248933695 L-166.1863998860559,-180.01966696145152" stroke="#0d6d4d" stroke-width="0.1" fill="none" />
<path d="M-208.94330130914324,127.93629992319063 L-126.41580342808378,-209.86673067361602" stroke="#0d6d4d" stroke-width="0.1" fill="none" />
<path d="M-210.17208405575218,125.90748620976372 L-81.43789192368276,-231.0689718656024" stroke="#0d6d4d" stroke-width="0.1" fill="none" />
<path d="M-211.38116790208292,123.86687150465792 L-33.105393821215486,-242.75302861126622" stroke="#0d6d4d" stroke-width="0.1" fill="none" />
<path d="M-212.57043952375076,121.81464706955161 L16.59078042528105,-244.4376116821634" stroke="#0d6d4d" stroke-width="0.1" fill="none" />
<path d="M-213.73978745332096,119.75100525427412 L65.60354786505093,-236.05332979544679" stroke="#0d6d4d" stroke-width="0.1" fill="none" />
<path d="M-214.88910209075624,117.67613947877686 L111.91397641495941,-217.94554797699337" stroke="#0d6d4d" stroke-width="0.1" fill="none" />
<path d="M-216.01827571368918,115.59024421500533 L153.61444863434613,-190.8601612981762" stroke="#0d6d4d" stroke-width="0.1" fill="none" />
<path d="M-217.1272024875191,113.49351496867071 L188.9872402312896,-155.9128699939836" stroke="#0d6d4d" stroke-width="0.1" fill="none" />
<path d="M-218.21577847533166,111.38614826092598 L216.57527649739123,-114.54322158067032" stroke="#0d6d4d" stroke-width="0.1" fill="none" />
<path d="M-219.28390164764005,109.26834160994726 L235.24215207466412,-68.45531306831204" stroke="#0d6d4d" stroke-width="0.1" fill="none" />
<path d="M-220.3314718919487,107.14029351241962 L244.21894172253377,-19.54759586050536" stroke="#0d6d4d" stroke-width="0.1" fill="none" />
<path d="M-221.35839102213612,105.00220342493336 L243.13587385758774,30.165325184840697" stroke="#0d6d4d" stroke-width="0.1" fill="none" />
<path d="M-222.3645627876579,102.85427174528903 L232.03756217080837,78.63567728345852" stroke="#0d6d4d" stroke-width="0.1" fill="none" />
<path d="M-223.34989288256745,100.69669979371538 L211.38116790208295,123.86687150465784" stroke="#0d6d4d" stroke-width="0.1" fill="none" />
<path d="M-224.31428895435602,98.52968979399901 L182.01756847150935,163.99574618787955" stroke="#0d6d4d" stroke-width="0.1" fill="none" />
<path d="M-225.25766061260782,96.35344485453123 L145.15630816853337,197.36931422812862" stroke="#0d6d4d" stroke-width="0.1" fill="none" />
<path d="M-226.1799194374726,94.16816894927076 L102.31577464881862,222.61285285897614" stroke="#0d6d4d" stroke-width="0.1" fill="none" />
<path d="M-227.08097898795253,91.97406689862665 L55.26065356672761,238.68653118133437" stroke="#0d6d4d" stroke-width="0.1" fill="none" />
<path d="M-227.96075481000474,89.77134435025968 L5.929237709852423,244.928242838959" stroke="#0d6d4d" stroke-width="0.1" fill="none" />
<path d="M-228.81916444445648,87.56020775980822 L-43.64641508499357,241.0808794787103" stroke="#0d6d4d" stroke-width="0.1" fill="none" />
<path d="M-229.65612743473386,85.34086437153822 L-91.42418638218264,227.30292154821927" stroke="#0d6d4d" stroke-width="0.1" fill="none" />
<path d="M-230.47156533440315,83.11352219891748 L-135.43601601349238,204.16191017521615" stroke="#0d6d4d" stroke-width="0.1" fill="none" />
<path d="M-231.26540171452302,80.87839000511997 L-173.86897033894178,172.61106903462527" stroke="#0d6d4d" stroke-width="0.1" fill="none" />
<path d="M-232.03756217080837,78.63567728345852 L-205.1399205414804,133.9500391946009" stroke="#0d6d4d" stroke-width="0.1" fill="none" />
<path d="M-232.7879743306036,76.38559423775035 L-227.96075481000474,89.77134435025968" stroke="#0d6d4d" stroke-width="0.1" fill="none" />
<path d="M-233.51656785966637,74.12835176261399 L-241.39143819290285,41.89479164719596" stroke="#0d6d4d" stroke-width="0.1" fill="none" />
<path d="M-234.2232744687596,71.86416142370345 L-244.87873448261954,-7.707489746391409" stroke="#0d6d4d" stroke-width="0.1" fill="none" />
<path d="M-234.90802792005223,69.59323543787835 L-238.2789951008255,-56.99228451063153" stroke="#0d6d4d" stroke-width="0.1" fill="none" />
<path d="M-235.57076403332715,67.3157866533141 L-221.86407626528285,-103.92945522301537" stroke="#0d6d4d" stroke-width="0.1" fill="none" />
<path d="M-236.21142069199715,65.03202852955107 L-196.3101406986917,-146.58556770316736" stroke="#0d6d4d" stroke-width="0.1" fill="none" />
<path d="M-236.82993784892665,62.74217511748804 L-162.66980515910672,-183.2035329612894" stroke="#0d6d4d" stroke-width="0.1" fill="none" />
<path d="M-237.42625753205976,60.44644103932047 L-122.32878108981168,-212.27498514210507" stroke="#0d6d4d" stroke-width="0.1" fill="none" />
<path d="M-238.0003238498539,58.14504146842321 L-76.94879444537747,-232.60241407475343" stroke="#0d6d4d" stroke-width="0.1" fill="none" />
<path d="M-238.5520829965186,55.838192109183694 L-28.399135938296077,-243.3484930669557" stroke="#0d6d4d" stroke-width="0.1" fill="none" />
<path d="M-239.08148325705818,53.52610917678409 L21.32033871413175,-244.0705700348051" stroke="#0d6d4d" stroke-width="0.1" fill="none" />
<path d="M-239.58847501211903,51.20900937693684 L70.16158677170002,-234.73890121085003" stroke="#0d6d4d" stroke-width="0.1" fill="none" />
<path d="M-240.07301074264055,48.887109885572094 L116.11274137125034,-215.73787634825075" stroke="#0d6d4d" stroke-width="0.1" fill="none" />
<path d="M-240.53504503430855,46.56062832848321 L157.2809842712475,-187.8501849524445" stroke="#0d6d4d" stroke-width="0.1" fill="none" />
<path d="M-240.97453458181226,44.22978276092884 L191.97051474998702,-152.22457576431285" stroke="#0d6d4d" stroke-width="0.1" fill="none" />
<path d="M-241.39143819290285,41.89479164719596 L218.75240296549512,-110.32853754501437" stroke="#0d6d4d" stroke-width="0.1" fill="none" />
<path d="M-241.7857167922545,39.55587384012253 L236.52345038013226,-63.887850333824076" stroke="#0d6d4d" stroke-width="0.1" fill="none" />
<path d="M-242.1573334251269,37.21324856058559 L244.55163267349232,-14.815497181305819" stroke="#0d6d4d" stroke-width="0.1" fill="none" />
<path d="M-242.50625326082852,34.867135376954884 L242.50625326082852,34.86713537695488" stroke="#0d6d4d" stroke-width="0.1" fill="none" />
<path d="M-242.83244359598174,32.51775418451197 L230.47156533440315,83.11352219891742" stroke="#0d6d4d" stroke-width="0.1" fill="none" />
<path d="M-243.1358738575877,30.16532518484086 L208.94330130914327,127.93629992319055" stroke="#0d6d4d" stroke-width="0.1" fill="none" />
<path d="M-243.41651560589202,27.81006886518866 L178.8082526315472,167.4891303662802" stroke="#0d6d4d" stroke-width="0.1" fill="none" />
<path d="M-243.67434253705005,25.452205977800702 L141.3077410995891,200.14275481598503" stroke="#0d6d4d" stroke-width="0.1" fill="none" />
<path d="M-243.90933048559282,23.091957519228693 L97.98648638164666,224.55210639532947" stroke="#0d6d4d" stroke-width="0.1" fill="none" />
<path d="M-244.12145742669148,20.729544709618146 L50.62897598169922,239.7117160070499" stroke="#0d6d4d" stroke-width="0.1" fill="none" />
<path d="M-244.310703478222,18.365188971973527 L1.1859586968095885,244.99712957904111" stroke="#0d6d4d" stroke-width="0.1" fill="none" />
<path d="M-244.47705090262832,15.99911191140571 L-48.30591055436035,240.19063055313822" stroke="#0d6d4d" stroke-width="0.1" fill="none" />
<path d="M-244.62048410858526,13.631535294360173 L-95.80796454478018,225.49020805743683" stroke="#0d6d4d" stroke-width="0.1" fill="none" />
<path d="M-244.74098965245955,11.262681027832055 L-139.36350044321517,201.50140134553396" stroke="#0d6d4d" stroke-width="0.1" fill="none" />
<path d="M-244.83855623956993,8.892771138568012 L-177.17838024406194,169.21235644624358" stroke="#0d6d4d" stroke-width="0.1" fill="none" />
<path d="M-244.91317472524585,6.522027752254915 L-207.69493483296935,129.95312248933695" stroke="#0d6d4d" stroke-width="0.1" fill="none" />
<path d="M-244.96483811568459,4.15067307270142 L-229.65612743473386,85.34086437153822" stroke="#0d6d4d" stroke-width="0.1" fill="none" />
<path d="M-244.99354156860653,1.778929361010956 L-242.1573334251269,37.21324856058559" stroke="#0d6d4d" stroke-width="0.1" fill="none" />
<path d="M-244.99928239370934,-0.5929810852494023 L-244.68360359457978,-12.447253993172417" stroke="#0d6d4d" stroke-width="0.1" fill="none" />
<path d="M-244.98206005291996,-2.9648359528856174 L-237.1308759167635,-61.59502972601372" stroke="#0d6d4d" stroke-width="0.1" fill="none" />
<path d="M-244.941876160445,-5.33641293391268 L-219.8102620676851,-108.20558529824422" stroke="#0d6d4d" stroke-width="0.1" fill="none" />
<path d="M-244.87873448261954,-7.707489746391409 L-193.43523212516578,-150.35894044812645" stroke="#0d6d4d" stroke-width="0.1" fill="none" />
<path d="M-244.79264093755404,-10.077844155261728 L-159.09222533608204,-186.31871574700511" stroke="#0d6d4d" stroke-width="0.1" fill="none" />
<path d="M-244.68360359457978,-12.447253993172417 L-118.19589755154482,-214.60365747578655" stroke="#0d6d4d" stroke-width="0.1" fill="none" />
<path d="M-244.55163267349232,-14.815497181305815 L-72.43084877599267,-234.04865337273208" stroke="#0d6d4d" stroke-width="0.1" fill="none" />
<path d="M-244.3967405435939,-17.182351750189884 L-23.682231186819866,-243.85272589416346" stroke="#0d6d4d" stroke-width="0.1" fill="none" />
<path d="M-244.21894172253377,-19.547595860505467 L26.04190398360452,-243.61202605148358" stroke="#0d6d4d" stroke-width="0.1" fill="none" />
<path d="M-244.0182528749479,-21.911007823876535 L74.69332201919192,-233.33646874360917" stroke="#0d6d4d" stroke-width="0.1" fill="none" />
<path d="M-243.7946928108966,-24.27236612365111 L120.26797552794902,-213.44932434282535" stroke="#0d6d4d" stroke-width="0.1" fill="none" />
<path d="M-243.54828248410183,-26.631449435660414 L160.88855508719007,-184.7697833574424" stroke="#0d6d4d" stroke-width="0.1" fill="none" />
<path d="M-243.27904498998313,-28.988036648965398 L194.88181930305862,-148.4792123670179" stroke="#0d6d4d" stroke-width="0.1" fill="none" />
<path d="M-242.98700556349294,-31.34190688657986 L220.8475189074383,-106.07249121439862" stroke="#0d6d4d" stroke-width="0.1" fill="none" />
<path d="M-242.67219157675143,-33.692839526173096 L237.71607577343096,-59.296435971147716" stroke="#0d6d4d" stroke-width="0.1" fill="none" />
<path d="M-242.33463253648094,-36.04061422074763 L244.79264093755407,-10.07784415526157" stroke="#0d6d4d" stroke-width="0.1" fill="none" />
<path d="M-241.9743600812405,-38.38501091929202 L241.78571679225453,39.555873840122416" stroke="#0d6d4d" stroke-width="0.1" fill="none" />
<path d="M-241.59140797846013,-40.72580988740719 L228.81916444445645,87.56020775980826" stroke="#0d6d4d" stroke-width="0.1" fill="none" />
<path d="M-241.18581212127634,-43.06279172789873 L206.42710163347718,131.95776487650164" stroke="#0d6d4d" stroke-width="0.1" fill="none" />
<path d="M-240.75761052516762,-45.3957374013431 L175.53190137308724,170.9197226780712" stroke="#0d6d4d" stroke-width="0.1" fill="none" />
<path d="M-240.3068433243915,-47.72442824661547 L137.40619759682704,202.8411616560646" stroke="#0d6d4d" stroke-width="0.1" fill="none" />
<path d="M-239.83355276822272,-50.04864600138681 L93.62046286861735,226.4071750900705" stroke="#0d6d4d" stroke-width="0.1" fill="none" />
<path d="M-239.33778321699353,-52.368172822578124 L45.97831753564724,240.64703263616445" stroke="#0d6d4d" stroke-width="0.1" fill="none" />
<path d="M-238.81958113793567,-54.68279130678087 L-3.5577649335056125,244.9741666149268" stroke="#0d6d4d" stroke-width="0.1" fill="none" />
<path d="M-238.2789951008255,-56.99228451063153 L-52.94729608259034,239.21033388535395" stroke="#0d6d4d" stroke-width="0.1" fill="none" />
<path d="M-237.716075773431,-59.29643597114766 L-100.1558241918497,223.5929580296555" stroke="#0d6d4d" stroke-width="0.1" fill="none" />
<path d="M-237.1308759167635,-61.59502972601372 L-143.2387373371669,198.76534940993642" stroke="#0d6d4d" stroke-width="0.1" fill="none" />
<path d="M-236.52345038013232,-63.88785033382393 L-180.42136577170723,165.75020595182326" stroke="#0d6d4d" stroke-width="0.1" fill="none" />
<path d="M-235.89385609600345,-66.1746828942763 L-210.17208405575218,125.90748620976372" stroke="#0d6d4d" stroke-width="0.1" fill="none" />
<path d="M-235.24215207466412,-68.45531306831198 L-231.26540171452302,80.87839000511997" stroke="#0d6d4d" stroke-width="0.1" fill="none" />
<path d="M-234.5683993986913,-70.72952709820723 L-242.83244359598174,32.51775418451197" stroke="#0d6d4d" stroke-width="0.1" fill="none" />
<path d="M-233.8726612172272,-72.9971118276063 L-244.3967405435939,-17.182351750189884" stroke="#0d6d4d" stroke-width="0.1" fill="none" />
<path d="M-233.15500274005964,-75.25785472150255 L-235.89385609600345,-66.1746828942763" stroke="#0d6d4d" stroke-width="0.1" fill="none" />
<path d="M-232.4154912315109,-77.5115438861559 L-217.67404075133874,-112.44114897573984" stroke="#0d6d4d" stroke-width="0.1" fill="none" />
<path d="M-231.65419600413273,-79.75796808895556 L-190.4878044617942,-154.075943454276" stroke="#0d6d4d" stroke-width="0.1" fill="none" />
<path d="M-230.87118841221022,-81.99691677821633 L-155.4550016557512,-189.3640474330077" stroke="#0d6d4d" stroke-width="0.1" fill="none" />
<path d="M-230.06654184507323,-84.2281801029155 L-114.01870223605003,-216.8518746527384" stroke="#0d6d4d" stroke-width="0.1" fill="none" />
<path d="M-229.24033172021876,-86.45154893235899 L-67.88574869852864,-235.40714756277094" stroke="#0d6d4d" stroke-width="0.1" fill="none" />
<path d="M-228.39263547624174,-88.6668148757841 L-18.956447939775327,-244.26553805542562" stroke="#0d6d4d" stroke-width="0.1" fill="none" />
<path d="M-227.5235325655767,-90.87377030189161 L30.753706113477605,-243.06215164086294" stroke="#0d6d4d" stroke-width="0.1" fill="none" />
<path d="M-226.63310444705132,-93.07220835830603 L79.19705465479733,-231.84655816726078" stroke="#0d6d4d" stroke-width="0.1" fill="none" />
<path d="M-225.72143457825115,-95.26192299096363 L124.37812108301577,-211.08074994148248" stroke="#0d6d4d" stroke-width="0.1" fill="none" />
<path d="M-224.78860840769792,-97.44270896342444 L164.4358085997473,-181.62011135925246" stroke="#0d6d4d" stroke-width="0.1" fill="none" />
<path d="M-223.83471336683962,-99.61436187611073 L197.72006243909647,-144.67818394312184" stroke="#0d6d4d" stroke-width="0.1" fill="none" />
<path d="M-222.85983886185704,-101.77667818546207 L222.85983886185699,-101.77667818546217" stroke="#0d6d4d" stroke-width="0.1" fill="none" />
<path d="M-221.86407626528285,-103.92945522301537 L238.8195811379357,-54.68279130678083" stroke="#0d6d4d" stroke-width="0.1" fill="none" />
<path d="M-220.8475189074384,-106.07249121439844 L244.941876160445,-5.3364129339128485" stroke="#0d6d4d" stroke-width="0.1" fill="none" />
<path d="M-219.8102620676851,-108.20558529824422 L240.97453458181226,44.229782760928835" stroke="#0d6d4d" stroke-width="0.1" fill="none" />
<path d="M-218.7524029654951,-110.32853754501441 L227.08097898795256,91.9740668986266" stroke="#0d6d4d" stroke-width="0.1" fill="none" />
<path d="M-217.67404075133874,-112.44114897573984 L203.8335122012219,135.92975871277903" stroke="#0d6d4d" stroke-width="0.1" fill="none" />
<path d="M-216.57527649739126,-114.54322158067028 L172.189743003965,174.2862369902698" stroke="#0d6d4d" stroke-width="0.1" fill="none" />
<path d="M-215.4562131880597,-116.63455833783298 L133.4531403533706,205.46352311255535" stroke="#0d6d4d" stroke-width="0.1" fill="none" />
<path d="M-214.3169557103305,-118.71496323149934 L89.21934093694142,228.17736347582292" stroke="#0d6d4d" stroke-width="0.1" fill="none" />
<path d="M-213.1576108439388,-120.78424127055622 L41.31042176574457,241.49213041740367" stroke="#0d6d4d" stroke-width="0.1" fill="none" />
<path d="M-211.97828725135994,-122.84219850678318 L-8.300154753676571,244.85936255545758" stroke="#0d6d4d" stroke-width="0.1" fill="none" />
<path d="M-210.77909546762504,-124.88864205302981 L-57.5688316089385,238.14035698969982" stroke="#0d6d4d" stroke-width="0.1" fill="none" />
<path d="M-209.56014788996058,-126.9233801012952 L-104.46613530583487,221.61188274608156" stroke="#0d6d4d" stroke-width="0.1" fill="none" />
<path d="M-208.3215587672542,-128.94622194070462 L-147.06027386460207,195.9547801174246" stroke="#0d6d4d" stroke-width="0.1" fill="none" />
<path d="M-207.06344418934586,-130.9569779753857 L-183.59671112289283,162.22591551554592" stroke="#0d6d4d" stroke-width="0.1" fill="none" />
<path d="M-205.7859220761472,-132.95545974223805 L-212.57043952375076,121.81464706955161" stroke="#0d6d4d" stroke-width="0.1" fill="none" />
<path d="M-204.4891121665896,-134.94147992859695 L-232.7879743306036,76.38559423775035" stroke="#0d6d4d" stroke-width="0.1" fill="none" />
<path d="M-203.17313600740076,-136.91485238979087 L-243.41651560589202,27.81006886518866" stroke="#0d6d4d" stroke-width="0.1" fill="none" />
<path d="M-201.8381169417128,-138.87539216658746 L-244.0182528749479,-21.911007823876535" stroke="#0d6d4d" stroke-width="0.1" fill="none" />
<path d="M-200.4841800975014,-140.82291550252972 L-234.5683993986913,-70.72952709820723" stroke="#0d6d4d" stroke-width="0.1" fill="none" />
<path d="M-199.11145237585828,-142.75723986115844 L-215.4562131880597,-116.63455833783298" stroke="#0d6d4d" stroke-width="0.1" fill="none" />
<path d="M-197.72006243909652,-144.67818394312178 L-187.46896270258048,-157.73518321293602" stroke="#0d6d4d" stroke-width="0.1" fill="none" />
<path d="M-196.3101406986917,-146.58556770316736 L-151.75949771743322,-192.338386320964" stroke="#0d6d4d" stroke-width="0.1" fill="none" />
<path d="M-194.88181930305862,-148.4792123670179 L-109.7987611786307,-219.01879381376847" stroke="#0d6d4d" stroke-width="0.1" fill="none" />
<path d="M-193.43523212516578,-150.35894044812645 L-63.31519817620525,-236.67738734384378" stroke="#0d6d4d" stroke-width="0.1" fill="none" />
<path d="M-191.9705147499871,-152.22457576431273 L-14.223557898708851,-244.58677478699065" stroke="#0d6d4d" stroke-width="0.1" fill="none" />
<path d="M-190.4878044617942,-154.075943454276 L35.4539786437414,-242.42115295148878" stroke="#0d6d4d" stroke-width="0.1" fill="none" />
<path d="M-188.9872402312896,-155.91286999398358 L83.6710962239981,-230.2697280509847" stroke="#0d6d4d" stroke-width="0.1" fill="none" />
<path d="M-187.46896270258048,-157.73518321293602 L128.44163713817937,-208.63304112547527" stroke="#0d6d4d" stroke-width="0.1" fill="none" />
<path d="M-185.93311417999692,-159.5427123103034 L167.92141493951877,-178.40234977351045" stroke="#0d6d4d" stroke-width="0.1" fill="none" />
<path d="M-184.37983861475394,-161.3352878709345 L200.48418009750142,-140.8229155025297" stroke="#0d6d4d" stroke-width="0.1" fill="none" />
<path d="M-182.80928159145975,-163.11274188123494 L224.78860840769784,-97.44270896342464" stroke="#0d6d4d" stroke-width="0.1" fill="none" />
<path d="M-181.22159031446975,-164.87490774491576 L239.83355276822272,-50.04864600138687" stroke="#0d6d4d" stroke-width="0.1" fill="none" />
<path d="M-179.61691359409,-166.62162029860713 L244.99928239370934,-0.5929810852495168" stroke="#0d6d4d" stroke-width="0.1" fill="none" />
<path d="M-177.99540183262908,-168.3527158273394 L240.07301074264055,48.88710988557198" stroke="#0d6d4d" stroke-width="0.1" fill="none" />
<path d="M-176.3572070103022,-170.06803207988682 L225.2576606126079,96.35344485453108" stroke="#0d6d4d" stroke-width="0.1" fill="none" />
<path d="M-174.70248267098535,-171.76740828397587 L201.1635053520231,139.85079232698888" stroke="#0d6d4d" stroke-width="0.1" fill="none" />
<path d="M-173.03138390782442,-173.45068516135376 L168.783030503177,177.58741119280842" stroke="#0d6d4d" stroke-width="0.1" fill="none" />
<path d="M-171.34406734869953,-175.1177049427165 L129.45005137490324,208.00885605914698" stroke="#0d6d4d" stroke-width="0.1" fill="none" />
<path d="M-169.64069114154324,-176.7683113824973 L84.78477057226654,229.86200790693562" stroke="#0d6d4d" stroke-width="0.1" fill="none" />
<path d="M-167.92141493951885,-178.40234977351034 L36.62703867145586,242.24669252264246" stroke="#0d6d4d" stroke-width="0.1" fill="none" />
<path d="M-166.1863998860559,-180.01966696145152 L-13.039432836333624,244.65276044080667" stroke="#0d6d4d" stroke-width="0.1" fill="none" />
<path d="M-164.43580859974736,-181.62011135925243 L-62.168784514448205,236.98110100173835" stroke="#0d6d4d" stroke-width="0.1" fill="none" />
<path d="M-162.66980515910672,-183.2035329612894 L-108.73728194616736,219.54772491410543" stroke="#0d6d4d" stroke-width="0.1" fill="none" />
<path d="M-160.88855508719018,-184.76978335744232 L-150.82667732710416,193.0707471536421" stroke="#0d6d4d" stroke-width="0.1" fill="none" />
<path d="M-159.09222533608204,-186.31871574700511 L-186.70322585701348,158.64080639792843" stroke="#0d6d4d" stroke-width="0.1" fill="none" />
<path d="M-157.28098427124752,-187.85018495244447 L-214.88910209075624,117.67613947877686" stroke="#0d6d4d" stroke-width="0.1" fill="none" />
<path d="M-155.4550016557512,-189.3640474330077 L-234.2232744687596,71.86416142370345" stroke="#0d6d4d" stroke-width="0.1" fill="none" />
<path d="M-153.6144486343461,-190.86016129817622 L-243.90933048559282,23.091957519228693" stroke="#0d6d4d" stroke-width="0.1" fill="none" />
<path d="M-151.75949771743322,-192.338386320964 L-243.54828248410183,-26.631449435660414" stroke="#0d6d4d" stroke-width="0.1" fill="none" />
<path d="M-149.89032276489152,-193.79858395106154 L-233.15500274005964,-75.25785472150255" stroke="#0d6d4d" stroke-width="0.1" fill="none" />
<path d="M-148.00709896978316,-195.24061732782147 L-213.1576108439388,-120.78424127055622" stroke="#0d6d4d" stroke-width="0.1" fill="none" />
<path d="M-146.1100028419328,-196.6643512930861 L-184.37983861475394,-161.3352878709345" stroke="#0d6d4d" stroke-width="0.1" fill="none" />
<path d="M-144.19921219138453,-198.06965240385532 L-148.00709896978316,-195.24061732782147" stroke="#0d6d4d" stroke-width="0.1" fill="none" />
<path d="M-142.27490611173488,-199.45638894479418 L-105.53765644001773,-221.10360257840392" stroke="#0d6d4d" stroke-width="0.1" fill="none" />
<path d="M-140.3372649633478,-200.82443094057834 L-58.72091071364231,-237.85889650160334" stroke="#0d6d4d" stroke-width="0.1" fill="none" />
<path d="M-138.38647035644942,-202.1736501680759 L-9.485335429512263,-244.81631565684023" stroke="#0d6d4d" stroke-width="0.1" fill="none" />
<path d="M-136.42270513410705,-203.5039201683655 L40.14095943684645,-241.68927029450325" stroke="#0d6d4d" stroke-width="0.1" fill="none" />
<path d="M-134.4461533550905,-204.81511625858937 L88.11376940349092,-228.60656955019562" stroke="#0d6d4d" stroke-width="0.1" fill="none" />
<path d="M-132.4570002766214,-206.1071155436394 L132.45700027662141,-206.1071155436394" stroke="#0d6d4d" stroke-width="0.1" fill="none" />
<path d="M-130.45543233700994,-207.37979692767524 L171.34406734869953,-175.1177049427165" stroke="#0d6d4d" stroke-width="0.1" fill="none" />
<path d="M-128.4416371381795,-208.63304112547522 L203.17313600740073,-136.91485238979095" stroke="#0d6d4d" stroke-width="0.1" fill="none" />
<path d="M-126.41580342808378,-209.86673067361602 L226.63310444705127,-93.07220835830614" stroke="#0d6d4d" stroke-width="0.1" fill="none" />
<path d="M-124.37812108301577,-211.08074994148248 L240.75761052516765,-45.395737401343006" stroke="#0d6d4d" stroke-width="0.1" fill="none" />
<path d="M-122.32878108981168,-212.27498514210507 L244.96483811568459,4.1506730727011965" stroke="#0d6d4d" stroke-width="0.1" fill="none" />
<path d="M-120.26797552794912,-213.4493243428253 L239.08148325705818,53.52610917678408" stroke="#0d6d4d" stroke-width="0.1" fill="none" />
<path d="M-118.19589755154482,-214.60365747578655 L223.34989288256747,100.69669979371533" stroke="#0d6d4d" stroke-width="0.1" fill="none" />
<path d="M-116.11274137125037,-215.73787634825075 L198.41808207450353,143.71939571914285" stroke="#0d6d4d" stroke-width="0.1" fill="none" />
<path d="M-114.01870223605003,-216.8518746527384 L165.31304105113765,180.8220076717015" stroke="#0d6d4d" stroke-width="0.1" fill="none" />
<path d="M-111.91397641495952,-217.94554797699328 L125.3984314240631,210.47620624760543" stroke="#0d6d4d" stroke-width="0.1" fill="none" />
<path d="M-109.7987611786307,-219.01879381376847 L80.3184143000963,231.4604768082838" stroke="#0d6d4d" stroke-width="0.1" fill="none" />
<path d="M-107.67325478086244,-220.07151157043361 L31.929924058461822,242.91043606568422" stroke="#0d6d4d" stroke-width="0.1" fill="none" />
<path d="M-105.53765644001773,-221.10360257840392 L-17.773822420701286,244.3544377263433" stroke="#0d6d4d" stroke-width="0.1" fill="none" />
<path d="M-103.39216632035216,-222.11497010238782 L-66.74543027151206,235.73300052786567" stroke="#0d6d4d" stroke-width="0.1" fill="none" />
<path d="M-101.23698551325266,-223.10551934945371 L-112.96766285508485,217.40125838886001" stroke="#0d6d4d" stroke-width="0.1" fill="none" />
<path d="M-99.07231601839047,-224.07515747791447 L-154.53653569570565,190.11433174584684" stroke="#0d6d4d" stroke-width="0.1" fill="none" />
<path d="M-96.89836072478701,-225.0237936060297 L-189.73974533814098,154.99622266048104" stroke="#0d6d4d" stroke-width="0.1" fill="none" />
<path d="M-94.71532339179852,-225.95133882052352 L-217.1272024875191,113.49351496867071" stroke="#0d6d4d" stroke-width="0.1" fill="none" />
<path d="M-92.52340863001767,-226.8577061849184 L-235.57076403332715,67.3157866533141" stroke="#0d6d4d" stroke-width="0.1" fill="none" />
<path d="M-90.3228218820966,-227.7428107476832 L-244.310703478222,18.365188971973527" stroke="#0d6d4d" stroke-width="0.1" fill="none" />
<path d="M-88.11376940349108,-228.60656955019556 L-242.98700556349294,-31.34190688657986" stroke="#0d6d4d" stroke-width="0.1" fill="none" />
<path d="M-85.89645824312724,-229.44890163451797 L-231.65419600413273,-79.75796808895556" stroke="#0d6d4d" stroke-width="0.1" fill="none" />
<path d="M-83.67109622399815,-230.26972805098467 L-210.77909546762504,-124.88864205302981" stroke="#0d6d4d" stroke-width="0.1" fill="none" />
<path d="M-81.43789192368276,-231.0689718656024 L-181.22159031446975,-164.87490774491576" stroke="#0d6d4d" stroke-width="0.1" fill="none" />
<path d="M-79.19705465479748,-231.84655816726072 L-144.19921219138453,-198.06965240385532" stroke="#0d6d4d" stroke-width="0.1" fill="none" />
<path d="M-76.94879444537747,-232.60241407475343 L-101.23698551325266,-223.10551934945371" stroke="#0d6d4d" stroke-width="0.1" fill="none" />
<path d="M-74.693322019192,-233.33646874360915 L-54.10460871446659,-238.95123208691447" stroke="#0d6d4d" stroke-width="0.1" fill="none" />
<path d="M-72.43084877599267,-234.04865337273208 L-4.7435568972101425,-244.95407460983975" stroke="#0d6d4d" stroke-width="0.1" fill="none" />
<path d="M-70.1615867717,-234.73890121085003 L44.81289133833072,-240.86677805355177" stroke="#0d6d4d" stroke-width="0.1" fill="none" />
<path d="M-67.88574869852864,-235.40714756277094 L92.52340863001766,-226.8577061849184" stroke="#0d6d4d" stroke-width="0.1" fill="none" />
<path d="M-65.60354786505083,-236.0533297954468 L136.422705134107,-203.50392016836554" stroke="#0d6d4d" stroke-width="0.1" fill="none" />
<path d="M-63.31519817620525,-236.67738734384378 L174.70248267098523,-171.767408283976" stroke="#0d6d4d" stroke-width="0.1" fill="none" />
<path d="M-61.02091411324593,-237.27926171661917 L205.78592207614722,-132.95545974223805" stroke="#0d6d4d" stroke-width="0.1" fill="none" />
<path d="M-58.72091071364231,-237.85889650160334 L228.39263547624174,-88.6668148757841" stroke="#0d6d4d" stroke-width="0.1" fill="none" />
<path d="M-56.41540355092176,-238.4162373710873 L241.59140797846013,-40.725809887407195" stroke="#0d6d4d" stroke-width="0.1" fill="none" />
<path d="M-54.10460871446659,-238.95123208691447 L244.83855623956993,8.892771138568007" stroke="#0d6d4d" stroke-width="0.1" fill="none" />
<path d="M-51.788742789257995,-239.4638305053773 L238.00032384985394,58.145041468423145" stroke="#0d6d4d" stroke-width="0.1" fill="none" />
<path d="M-49.46802283557899,-239.95398458191653 L221.35839102213615,105.00220342493331" stroke="#0d6d4d" stroke-width="0.1" fill="none" />
<path d="M-47.14266636866765,-240.42164837562464 L195.59827163099112,147.53411854540298" stroke="#0d6d4d" stroke-width="0.1" fill="none" />
<path d="M-44.81289133833073,-240.86677805355177 L161.78107555086277,183.98881377302817" stroke="#0d6d4d" stroke-width="0.1" fill="none" />
<path d="M-42.478916108516465,-241.2893318948138 L121.29979945780556,212.86464866552208" stroke="#0d6d4d" stroke-width="0.1" fill="none" />
<path d="M-40.14095943684635,-241.68927029450325 L75.82194656250739,232.97217091204752" stroke="#0d6d4d" stroke-width="0.1" fill="none" />
<path d="M-37.7992404541135,-242.0665557674007 L27.220838880405154,243.48311220831522" stroke="#0d6d4d" stroke-width="0.1" fill="none" />
<path d="M-35.45397864374143,-242.42115295148878 L-22.501548578707016,243.96450625359438" stroke="#0d6d4d" stroke-width="0.1" fill="none" />
<path d="M-33.105393821215486,-242.75302861126622 L-71.29705309039932,234.39652348237757" stroke="#0d6d4d" stroke-width="0.1" fill="none" />
<path d="M-30.75370611347753,-243.06215164086294 L-117.1556920579442,215.17328788310166" stroke="#0d6d4d" stroke-width="0.1" fill="none" />
<path d="M-28.399135938296077,-243.3484930669557 L-158.18845814025943,187.08664225755777" stroke="#0d6d4d" stroke-width="0.1" fill="none" />
<path d="M-26.041903983604573,-243.61202605148358 L-192.70513117164737,151.29353066181704" stroke="#0d6d4d" stroke-width="0.1" fill="none" />
<path d="M-23.682231186819866,-243.85272589416346 L-219.28390164764005,109.26834160994726" stroke="#0d6d4d" stroke-width="0.1" fill="none" />
<path d="M-21.3203387141317,-244.0705700348051 L-236.82993784892665,62.74217511748804" stroke="#0d6d4d" stroke-width="0.1" fill="none" />
<path d="M-18.956447939775327,-244.26553805542562 L-244.62048410858526,13.631535294360173" stroke="#0d6d4d" stroke-width="0.1" fill="none" />
<path d="M-16.590780425281125,-244.4376116821634 L-242.33463253648094,-36.04061422074763" stroke="#0d6d4d" stroke-width="0.1" fill="none" />
<path d="M-14.223557898708851,-244.58677478699065 L-230.06654184507323,-84.2281801029155" stroke="#0d6d4d" stroke-width="0.1" fill="none" />
<path d="M-11.855002233866509,-244.713013389225 L-208.3215587672542,-128.94622194070462" stroke="#0d6d4d" stroke-width="0.1" fill="none" />
<path d="M-9.485335429512263,-244.81631565684023 L-177.99540183262908,-168.3527158273394" stroke="#0d6d4d" stroke-width="0.1" fill="none" />
<path d="M-7.114779588550117,-244.89667190757484 L-140.3372649633478,-200.82443094057834" stroke="#0d6d4d" stroke-width="0.1" fill="none" />
<path d="M-4.7435568972101425,-244.95407460983975 L-96.89836072478701,-225.0237936060297" stroke="#0d6d4d" stroke-width="0.1" fill="none" />
<path d="M-2.3718896042257103,-244.98851838342418 L-49.46802283557899,-239.95398458191653" stroke="#0d6d4d" stroke-width="0.1" fill="none" />
</svg>