<?xml version="1.0" encoding="UTF-8"?>
<svg xmlns="http://www.w3.org/2000/svg" xmlns:xlink="http://www.w3.org/1999/xlink"
     width="500.0" height="500" viewBox="-250.0 -250.0 500 500">
<defs>
</defs>
<circle cx="0" cy="0" r="245.0" fill="white" stroke-width="2" stroke="black" />
<path d="M0.0,-245.0 L0.0,-245.0" stroke="#0d6d4d" stroke-width="0.1" fill="none" />
<path d="M2.5360014996039664,-244.98687453901283 L52.838555135774584,-239.2343769009038" stroke="#0d6d4d" stroke-width="0.1" fill="none" />
<path d="M5.071731275218165,-244.94749956240005 L103.19019440204967,-222.20887421358128" stroke="#0d6d4d" stroke-width="0.1" fill="none" />
<path d="M7.6069176319671366,-244.8818792890574 L148.68505188510287,-194.7248195426671" stroke="#0d6d4d" stroke-width="0.1" fill="none" />
<path d="M10.141288933200915,-244.7900207499753 L187.18185247314332,-158.07578595320163" stroke="#0d6d4d" stroke-width="0.1" fill="none" />
<path d="M12.67457362959998,-244.67193378748584 L216.8686937766877,-113.98670825843358" stroke="#0d6d4d" stroke-width="0.1" fill="none" />
<path d="M15.206500288270846,-244.5276310542079 L236.34832568994898,-64.5326967014226" stroke="#0d6d4d" stroke-width="0.1" fill="none" />
<path d="M17.73679762182918,-244.35712801169169 L244.70391379887823,-12.041369170952963" stroke="#0d6d4d" stroke-width="0.1" fill="none" />
<path d="M20.26519451746732,-244.16044292876194 L241.54219139484377,41.0167011859395" stroke="#0d6d4d" stroke-width="0.1" fill="none" />
<path d="M22.791420066003127,-243.93759687956057 L227.01196908785084,92.14426672808602" stroke="#0d6d4d" stroke-width="0.1" fill="none" />
<path d="M25.315203590906943,-243.68861374128855 L201.79713084008876,138.9349415543408" stroke="#0d6d4d" stroke-width="0.1" fill="none" />
<path d="M27.836274677303688,-243.41352019164776 L167.08444607066997,179.18646121082193" stroke="#0d6d4d" stroke-width="0.1" fill="none" />
<path d="M30.354363200946935,-243.1123457059822 L124.50771279704918,211.00433515463024" stroke="#0d6d4d" stroke-width="0.1" fill="none" />
<path d="M32.86919935716172,-242.7851225541202 L76.07086078940145,232.8910134349531" stroke="#0d6d4d" stroke-width="0.1" fill="none" />
<path d="M35.380513689753315,-242.43188579691653 L24.053633988810972,243.81637084480673" stroke="#0d6d4d" stroke-width="0.1" fill="none" />
<path d="M37.88803711987844,-242.05267328249593 L-29.095708630090584,243.26619111441045" stroke="#0d6d4d" stroke-width="0.1" fill="none" />
<path d="M40.39150097487624,-241.64752564219765 L-80.87562357746378,231.26636917406816" stroke="#0d6d4d" stroke-width="0.1" fill="none" />
<path d="M42.89063701705559,-241.21648628622214 L-128.84902127216725,208.381692375325" stroke="#0d6d4d" stroke-width="0.1" fill="none" />
<path d="M45.385177472435906,-240.7596013989795 L-170.75797085795057,175.68925803382317" stroke="#0d6d4d" stroke-width="0.1" fill="none" />
<path d="M47.87485505943816,-240.27691993414138 L-204.62997267937945,134.72777843205319" stroke="#0d6d4d" stroke-width="0.1" fill="none" />
<path d="M50.35940301752329,-239.76849360939536 L-228.87079656409304,87.42515930850534" stroke="#0d6d4d" stroke-width="0.1" fill="none" />
<path d="M52.838555135774584,-239.2343769009038 L-242.33951635592103,36.00776044657988" stroke="#0d6d4d" stroke-width="0.1" fill="none" />
<path d="M55.31204578142135,-238.67462703746696 L-244.40220910019403,-17.104390867407194" stroke="#0d6d4d" stroke-width="0.1" fill="none" />
<path d="M57.779609928300566,-238.0893039943908 L-234.9617914586857,-69.41150160114024" stroke="#0d6d4d" stroke-width="0.1" fill="none" />
<path d="M60.24098318525351,-237.47847048706123 L-214.46258906420414,-118.45166901263279" stroke="#0d6d4d" stroke-width="0.1" fill="none" />
<path d="M62.695901824454396,-236.8421919642241 L-183.8694237521672,-161.91675333036412" stroke="#0d6d4d" stroke-width="0.1" fill="none" />
<path d="M65.1441028096679,-236.18053660097274 L-144.62220295602398,-197.76101337762861" stroke="#0d6d4d" stroke-width="0.1" fill="none" />
<path d="M67.58532382443265,-235.49357529144308 L-98.56814857616322,-224.29739206300954" stroke="#0d6d4d" stroke-width="0.1" fill="none" />
<path d="M70.01930330016748,-234.7813816412178 L-47.87485505943823,-240.27691993414138" stroke="#0d6d4d" stroke-width="0.1" fill="none" />
<path d="M72.4457804441977,-234.04403195943942 L5.071731275218165,-244.94749956240005" stroke="#0d6d4d" stroke-width="0.1" fill="none" />
<path d="M74.86449526769806,-233.28160525063439 L57.779609928300566,-238.0893039943908" stroke="#0d6d4d" stroke-width="0.1" fill="none" />
<path d="M77.27518861354979,-232.49418320624775 L107.76801549028602,-220.0251231957057" stroke="#0d6d4d" stroke-width="0.1" fill="none" />
<path d="M79.67760218410822,-231.6818501958904 L152.68417811794862,-191.6051715180113" stroke="#0d6d4d" stroke-width="0.1" fill="none" />
<path d="M82.07147856887876,-230.8446932582988 L190.41405973154306,-154.16707124594527" stroke="#0d6d4d" stroke-width="0.1" fill="none" />
<path d="M84.45656127209732,-229.98280209200965 L219.18185398855897,-109.4728956506496" stroke="#0d6d4d" stroke-width="0.1" fill="none" />
<path d="M86.83259474021311,-229.09626904574836 L237.63356693733687,-59.626234701163476" stroke="#0d6d4d" stroke-width="0.1" fill="none" />
<path d="M89.1993243892703,-228.18518910853464 L244.9007445175064,-6.973186844696465" stroke="#0d6d4d" stroke-width="0.1" fill="none" />
<path d="M91.55649663218583,-227.24965989950468 L240.64134748889242,46.00806319255494" stroke="#0d6d4d" stroke-width="0.1" fill="none" />
<path d="M93.90385890592039,-226.28978165745136 L225.0558499567716,96.82388341847847" stroke="#0d6d4d" stroke-width="0.1" fill="none" />
<path d="M96.24115969853972,-225.30565723008417 L198.87780379528357,143.08256063393853" stroke="#0d6d4d" stroke-width="0.1" fill="none" />
<path d="M98.56814857616325,-224.2973920630095 L163.33931306677832,182.60686955006096" stroke="#0d6d4d" stroke-width="0.1" fill="none" />
<path d="M100.88457620979726,-223.26509418843244 L120.11304342881755,213.53654675082436" stroke="#0d6d4d" stroke-width="0.1" fill="none" />
<path d="M103.19019440204967,-222.20887421358128 L71.23349593211438,234.41584642956508" stroke="#0d6d4d" stroke-width="0.1" fill="none" />
<path d="M105.4847561137234,-221.12884530885674 L19.001250561324923,244.26205697386928" stroke="#0d6d4d" stroke-width="0.1" fill="none" />
<path d="M107.76801549028602,-220.0251231957057 L-34.12531357802038,242.61175357595886" stroke="#0d6d4d" stroke-width="0.1" fill="none" />
<path d="M110.03972788821204,-218.89782613422238 L-85.6457250950854,229.54260992882578" stroke="#0d6d4d" stroke-width="0.1" fill="none" />
<path d="M112.2996499011957,-217.74707491047698 L-133.13510827788855,205.66974241204002" stroke="#0d6d4d" stroke-width="0.1" fill="none" />
<path d="M114.54753938623121,-216.57299282357394 L-174.3583130477313,172.1167588329194" stroke="#0d6d4d" stroke-width="0.1" fill="none" />
<path d="M116.78315548955737,-215.37570567244083 L-207.37511522796228,130.4628743520139" stroke="#0d6d4d" stroke-width="0.1" fill="none" />
<path d="M119.00625867246444,-214.15534174234946 L-230.63153573851102,82.6685836512028" stroke="#0d6d4d" stroke-width="0.1" fill="none" />
<path d="M121.21661073695981,-212.91203179117042 L-243.0329806585783,30.983387681257494" stroke="#0d6d4d" stroke-width="0.1" fill="none" />
<path d="M123.41397485129004,-211.645909035363 L-243.99575972454528,-22.160082049531365" stroke="#0d6d4d" stroke-width="0.1" fill="none" />
<path d="M125.59811557531674,-210.35710913570136 L-233.47455847745633,-74.2605584665025" stroke="#0d6d4d" stroke-width="0.1" fill="none" />
<path d="M127.76879888574304,-209.04577018273903 L-211.96457104743746,-122.86586434268813" stroke="#0d6d4d" stroke-width="0.1" fill="none" />
<path d="M129.9257922011885,-207.71203268201288 L-180.47819319275652,-165.68832723483587" stroke="#0d6d4d" stroke-width="0.1" fill="none" />
<path d="M132.06886440710937,-206.35603953898845 L-140.49737256619542,-200.7124517861203" stroke="#0d6d4d" stroke-width="0.1" fill="none" />
<path d="M134.19778588056164,-204.9779360437482 L-93.90385890592046,-226.2897816574513" stroke="#0d6d4d" stroke-width="0.1" fill="none" />
<path d="M136.31232851480462,-203.5778698554241 L-42.89063701705554,-241.21648628622214" stroke="#0d6d4d" stroke-width="0.1" fill="none" />
<path d="M138.41226574374153,-202.15599098637634 L10.141288933200915,-244.7900207499753" stroke="#0d6d4d" stroke-width="0.1" fill="none" />
<path d="M140.49737256619545,-200.7124517861203 L62.695901824454396,-236.8421919642241" stroke="#0d6d4d" stroke-width="0.1" fill="none" />
<path d="M142.56742557001738,-199.24740692500257 L112.2996499011957,-217.74707491047698" stroke="#0d6d4d" stroke-width="0.1" fill="none" />
<path d="M144.6222029560241,-197.76101337762856 L156.61786772903298,-188.40340630681584" stroke="#0d6d4d" stroke-width="0.1" fill="none" />
<path d="M146.66148456176322,-196.25343040604332 L193.56466028413794,-150.1922843860039" stroke="#0d6d4d" stroke-width="0.1" fill="none" />
<path d="M148.68505188510287,-194.7248195426671 L221.4010783371783,-104.91216569652278" stroke="#0d6d4d" stroke-width="0.1" fill="none" />
<path d="M150.69268810764333,-193.17534457298768 L238.8169643785807,-54.69421838731866" stroke="#0d6d4d" stroke-width="0.1" fill="none" />
<path d="M152.68417811794862,-191.6051715180113 L244.9926168993532,-1.9020159848823637" stroke="#0d6d4d" stroke-width="0.1" fill="none" />
<path d="M154.6593085345948,-190.01446861647406 L239.63737071724466,50.97970729345016" stroke="#0d6d4d" stroke-width="0.1" fill="none" />
<path d="M156.61786772903298,-188.40340630681584 L223.0032775146135,101.46200381295587" stroke="#0d6d4d" stroke-width="0.1" fill="none" />
<path d="M158.55964584826484,-186.77215720891812 L195.87324269555455,147.16885810499576" stroke="#0d6d4d" stroke-width="0.1" fill="none" />
<path d="M160.48443483732754,-185.1208961056087 L159.5241769166559,185.94901715003354" stroke="#0d6d4d" stroke-width="0.1" fill="none" />
<path d="M162.39202846158608,-183.44979992393402 L115.66689661290032,215.97724192132057" stroke="#0d6d4d" stroke-width="0.1" fill="none" />
<path d="M164.28222232883076,-181.75904771620208 L66.36560217924998,235.8402146526023" stroke="#0d6d4d" stroke-width="0.1" fill="none" />
<path d="M166.15481391117694,-180.04882064079777 L13.940723672864047,244.6030584916649" stroke="#0d6d4d" stroke-width="0.1" fill="none" />
<path d="M168.00960256676532,-178.31930194277217 L-39.14029326965562,241.85333870502046" stroke="#0d6d4d" stroke-width="0.1" fill="none" />
<path d="M169.84638956126022,-176.57067693420854 L-90.37912099600437,227.72047445934587" stroke="#0d6d4d" stroke-width="0.1" fill="none" />
<path d="M171.66497808914283,-174.80313297436666 L-137.36413690447094,202.86964753873303" stroke="#0d6d4d" stroke-width="0.1" fill="none" />
<path d="M173.46517329479866,-173.01685944960815 L-177.88392962335539,168.4704946919583" stroke="#0d6d4d" stroke-width="0.1" fill="none" />
<path d="M175.24678229339565,-171.21204775310406 L-210.03138198636697,126.14205714549294" stroke="#0d6d4d" stroke-width="0.1" fill="none" />
<path d="M177.00961419155084,-169.38889126432798 L-232.2934320023118,77.87657830559426" stroke="#0d6d4d" stroke-width="0.1" fill="none" />
<path d="M178.75348010778418,-167.5475853283359 L-243.6222871013516,25.945736210534104" stroke="#0d6d4d" stroke-width="0.1" fill="none" />
<path d="M180.47819319275644,-165.68832723483598 L-243.48473986597355,-27.206275974473296" stroke="#0d6d4d" stroke-width="0.1" fill="none" />
<path d="M182.1835686492896,-163.81131619704905 L-231.8872641371369,-79.07778911295961" stroke="#0d6d4d" stroke-width="0.1" fill="none" />
<path d="M183.86942375216717,-161.91675333036414 L-209.37571031446117,-127.22740243483257" stroke="#0d6d4d" stroke-width="0.1" fill="none" />
<path d="M185.53557786771256,-160.00484163078934 L-177.009614191551,-169.38889126432778" stroke="#0d6d4d" stroke-width="0.1" fill="none" />
<path d="M187.18185247314332,-158.07578595320163 L-136.31232851480468,-203.57786985542404" stroke="#0d6d4d" stroke-width="0.1" fill="none" />
<path d="M188.8080711756994,-156.1297929893972 L-89.19932438927046,-228.18518910853462" stroke="#0d6d4d" stroke-width="0.1" fill="none" />
<path d="M190.41405973154306,-154.16707124594527 L-37.888037119878476,-242.0526732824959" stroke="#0d6d4d" stroke-width="0.1" fill="none" />
<path d="M191.99964606442813,-152.18783102184722 L15.206500288270846,-244.5276310542079" stroke="#0d6d4d" stroke-width="0.1" fill="none" />
<path d="M193.56466028413794,-150.1922843860039 L67.58532382443265,-235.49357529144308" stroke="#0d6d4d" stroke-width="0.1" fill="none" />
<path d="M195.10893470468815,-148.18064515449288 L116.78315548955737,-215.37570567244083" stroke="#0d6d4d" stroke-width="0.1" fill="none" />
<path d="M196.6323038622937,-146.15312886765918 L160.48443483732754,-185.1208961056087" stroke="#0d6d4d" stroke-width="0.1" fill="none" />
<path d="M198.13460453309793,-144.10995276702056 L196.6323038622937,-146.15312886765918" stroke="#0d6d4d" stroke-width="0.1" fill="none" />
<path d="M199.61567575066124,-142.0513357719908 L223.52541571846857,-100.30647301089697" stroke="#0d6d4d" stroke-width="0.1" fill="none" />
<path d="M201.07535882320823,-139.97749845642355 L239.89801083912118,-49.73876149878376" stroke="#0d6d4d" stroke-width="0.1" fill="none" />
<path d="M202.51349735063104,-137.88866302497806 L244.97949157021247,3.1699700314340644" stroke="#0d6d4d" stroke-width="0.1" fill="none" />
<path d="M203.92993724124688,-135.78505328931132 L238.53069135924622,55.92950276625044" stroke="#0d6d4d" stroke-width="0.1" fill="none" />
<path d="M205.3245267283086,-133.66689464409689 L220.85513144261267,106.05664012906634" stroke="#0d6d4d" stroke-width="0.1" fill="none" />
<path d="M206.69711638626592,-131.5344140428749 L192.78473522067745,151.19208268257066" stroke="#0d6d4d" stroke-width="0.1" fill="none" />
<path d="M208.04755914677602,-129.38783997373454 L155.64067269228119,189.21147164982938" stroke="#0d6d4d" stroke-width="0.1" fill="none" />
<path d="M209.3757103144611,-127.22740243483267 L111.17117785667286,218.32537464518413" stroke="#0d6d4d" stroke-width="0.1" fill="none" />
<path d="M210.68142758241234,-125.0533329097499 L61.469265788377456,237.16350765545235" stroke="#0d6d4d" stroke-width="0.1" fill="none" />
<path d="M211.96457104743743,-122.86586434268816 L8.874222138743809,244.83922925346795" stroke="#0d6d4d" stroke-width="0.1" fill="none" />
<path d="M213.22500322505067,-120.66523111351147 L-44.13849841007079,240.99127153924928" stroke="#0d6d4d" stroke-width="0.1" fill="none" />
<path d="M214.46258906420414,-118.45166901263278 L-95.07378266506886,225.80074368733875" stroke="#0d6d4d" stroke-width="0.1" fill="none" />
<path d="M215.67719596175786,-116.22541521575005 L-141.53429469596767,199.98260780606643" stroke="#0d6d4d" stroke-width="0.1" fill="none" />
<path d="M216.8686937766877,-113.98670825843358 L-181.33330959369604,164.7520283085971" stroke="#0d6d4d" stroke-width="0.1" fill="none" />
<path d="M218.03695484402976,-111.73578801056772 L-212.59763454506546,121.76717860672794" stroke="#0d6d4d" stroke-width="0.1" fill="none" />
<path d="M219.18185398855897,-109.4728956506496 L-233.85577310830254,73.05119700537509" stroke="#0d6d4d" stroke-width="0.1" fill="none" />
<path d="M220.30326853820145,-107.19827363994763 L-244.1071831222316,20.896965045893342" stroke="#0d6d4d" stroke-width="0.1" fill="none" />
<path d="M221.4010783371783,-104.91216569652278 L-242.86936853481507,-32.24080996966705" stroke="#0d6d4d" stroke-width="0.1" fill="none" />
<path d="M222.47516575887968,-102.61481676911481 L-230.20058871240076,-83.8611289958829" stroke="#0d6d4d" stroke-width="0.1" fill="none" />
<path d="M223.52541571846857,-100.30647301089697 L-206.69711638626592,-131.53441404287486" stroke="#0d6d4d" stroke-width="0.1" fill="none" />
<path d="M224.5517156852113,-97.98738175310143 L-173.46517329479877,-173.01685944960806" stroke="#0d6d4d" stroke-width="0.1" fill="none" />
<path d="M225.55395569453492,-95.65779147851872 L-132.06886440710932,-206.35603953898845" stroke="#0d6d4d" stroke-width="0.1" fill="none" />
<path d="M226.53202835980986,-93.31795179487332 L-84.45656127209735,-229.98280209200965" stroke="#0d6d4d" stroke-width="0.1" fill="none" />
<path d="M227.48582888385556,-90.96811340807942 L-32.86919935716185,-242.78512255412016" stroke="#0d6d4d" stroke-width="0.1" fill="none" />
<path d="M228.4152550701693,-88.60852809537855 L20.26519451746732,-244.16044292876194" stroke="#0d6d4d" stroke-width="0.1" fill="none" />
<path d="M229.3202073338766,-86.23944867836214 L72.4457804441977,-234.04403195943942" stroke="#0d6d4d" stroke-width="0.1" fill="none" />
<path d="M230.20058871240073,-83.86112899588299 L121.21661073695981,-212.91203179117042" stroke="#0d6d4d" stroke-width="0.1" fill="none" />
<path d="M231.0563048758524,-81.47382387685715 L164.28222232883076,-181.75904771620208" stroke="#0d6d4d" stroke-width="0.1" fill="none" />
<path d="M231.88726413713687,-79.07778911295965 L199.61567575066124,-142.0513357719908" stroke="#0d6d4d" stroke-width="0.1" fill="none" />
<path d="M232.6933774617776,-76.67328143121757 L225.55395569453492,-95.65779147851872" stroke="#0d6d4d" stroke-width="0.1" fill="none" />
<path d="M233.47455847745627,-74.26055846650266 L240.87624300947053,-44.76198782049905" stroke="#0d6d4d" stroke-width="0.1" fill="none" />
<path d="M234.2307234832672,-71.83987873392616 L244.8613741552722,8.240597477841684" stroke="#0d6d4d" stroke-width="0.1" fill="none" />
<path d="M234.9617914586857,-69.4115016011403 L237.3217837100039,60.855328252357026" stroke="#0d6d4d" stroke-width="0.1" fill="none" />
<path d="M235.66768407224887,-66.97568726054773 L218.6123323824736,110.60582322054701" stroke="#0d6d4d" stroke-width="0.1" fill="none" />
<path d="M236.34832568994898,-64.5326967014226 L189.61360502774585,155.15051011318653" stroke="#0d6d4d" stroke-width="0.1" fill="none" />
<path d="M237.00364338333702,-62.082791681946915 L151.69046476648043,192.39283484300853" stroke="#0d6d4d" stroke-width="0.1" fill="none" />
<path d="M237.63356693733687,-59.626234701163476 L106.62781391280485,220.57993857143097" stroke="#0d6d4d" stroke-width="0.1" fill="none" />
<path d="M238.23802885776874,-57.16328897085037 L56.546585206869636,238.38515830781546" stroke="#0d6d4d" stroke-width="0.1" fill="none" />
<path d="M238.8169643785807,-54.69421838731866 L3.80391733486311,244.97046804239392" stroke="#0d6d4d" stroke-width="0.1" fill="none" />
<path d="M239.3703114687884,-52.21928750313649 L-49.11778689349395,240.0259215390815" stroke="#0d6d4d" stroke-width="0.1" fill="none" />
<path d="M239.89801083912118,-49.73876149878376 L-99.7276980876501,223.78424036142158" stroke="#0d6d4d" stroke-width="0.1" fill="none" />
<path d="M240.400005948375,-47.2529061542384 L-145.64379442699934,197.00986052709635" stroke="#0d6d4d" stroke-width="0.1" fill="none" />
<path d="M240.87624300947053,-44.76198782049905 L-184.70497464072955,160.96295332456924" stroke="#0d6d4d" stroke-width="0.1" fill="none" />
<path d="M241.32667099521618,-42.26627339104666 L-215.07277307236558,117.34011369929182" stroke="#0d6d4d" stroke-width="0.1" fill="none" />
<path d="M241.75124164377553,-39.766030273247594 L-235.3178894761426,68.19450778833973" stroke="#0d6d4d" stroke-width="0.1" fill="none" />
<path d="M242.1499094638386,-37.26152635970186 L-244.48746090690585,15.839237964440768" stroke="#0d6d4d" stroke-width="0.1" fill="none" />
<path d="M242.52263173949584,-34.753029999539336 L-242.14990946383864,-37.26152635970175" stroke="#0d6d4d" stroke-width="0.1" fill="none" />
<path d="M242.86936853481507,-32.24080996966711 L-228.4152550701693,-88.60852809537855" stroke="#0d6d4d" stroke-width="0.1" fill="none" />
<path d="M243.1900826981205,-29.725135445970725 L-203.92993724124693,-135.78505328931124" stroke="#0d6d4d" stroke-width="0.1" fill="none" />
<path d="M243.48473986597355,-27.206275974473247 L-169.84638956126034,-176.57067693420842" stroke="#0d6d4d" stroke-width="0.1" fill="none" />
<path d="M243.75330846685443,-24.68450144245405 L-127.76879888574307,-209.04577018273903" stroke="#0d6d4d" stroke-width="0.1" fill="none" />
<path d="M243.99575972454528,-22.160082049531425 L-79.67760218410834,-231.68185019589035" stroke="#0d6d4d" stroke-width="0.1" fill="none" />
<path d="M244.21206766121327,-19.63328827871154 L-27.836274677303688,-243.41352019164776" stroke="#0d6d4d" stroke-width="0.1" fill="none" />
<path d="M244.40220910019403,-17.104390867407197 L25.315203590906943,-243.68861374128855" stroke="#0d6d4d" stroke-width="0.1" fill="none" />
<path d="M244.56616366847496,-14.573660778429012 L77.27518861354979,-232.49418320624775" stroke="#0d6d4d" stroke-width="0.1" fill="none" />
<path d="M244.70391379887823,-12.041369170952963 L125.59811557531674,-210.35710913570136" stroke="#0d6d4d" stroke-width="0.1" fill="none" />
<path d="M244.81544473194288,-9.507787371466424 L168.00960256676532,-178.31930194277217" stroke="#0d6d4d" stroke-width="0.1" fill="none" />
<path d="M244.9007445175064,-6.973186844696465 L202.51349735063104,-137.88866302497806" stroke="#0d6d4d" stroke-width="0.1" fill="none" />
<path d="M244.9598040159851,-4.437839164523406 L227.48582888385556,-90.96811340807942" stroke="#0d6d4d" stroke-width="0.1" fill="none" />
<path d="M244.9926168993532,-1.9020159848823637 L241.75124164377553,-39.766030273247594" stroke="#0d6d4d" stroke-width="0.1" fill="none" />
<path d="M244.99917965182127,0.6340109893432222 L244.63831527670348,13.30769321017846" stroke="#0d6d4d" stroke-width="0.1" fill="none" />
<path d="M244.97949157021247,3.1699700314340644 L236.0111658771144,65.75507266610833" stroke="#0d6d4d" stroke-width="0.1" fill="none" />
<path d="M244.93355476403826,5.705589421949575 L216.27584154180525,115.1076034212508" stroke="#0d6d4d" stroke-width="0.1" fill="none" />
<path d="M244.8613741552722,8.240597477841684 L186.36121118388476,159.04244391380402" stroke="#0d6d4d" stroke-width="0.1" fill="none" />
<path d="M244.76295747782245,10.774722581564706 L147.6752460996186,195.4917432768379" stroke="#0d6d4d" stroke-width="0.1" fill="none" />
<path d="M244.63831527670348,13.30769321017846 L102.03875195350197,222.73996745032466" stroke="#0d6d4d" stroke-width="0.1" fill="none" />
<path d="M244.48746090690585,15.839237964440764 L51.59967017256044,239.50464304076232" stroke="#0d6d4d" stroke-width="0.1" fill="none" />
<path d="M244.3104105319655,18.369085597886883 L-1.2680177328924818,244.99671861277872" stroke="#0d6d4d" stroke-width="0.1" fill="none" />
<path d="M244.10718312223162,20.896965045893175 L-54.07602472135916,238.95770242939432" stroke="#0d6d4d" stroke-width="0.1" fill="none" />
<path d="M243.87780045283438,23.422605454720202 L-104.33887271194195,221.671828704509" stroke="#0d6d4d" stroke-width="0.1" fill="none" />
<path d="M243.6222871013516,25.945736210533997 L-149.69087486871572,193.95267974699007" stroke="#0d6d4d" stroke-width="0.1" fill="none" />
<path d="M243.34067044517525,28.466086968401598 L-187.99747975310578,157.10489364268886" stroke="#0d6d4d" stroke-width="0.1" fill="none" />
<path d="M243.03298065857834,30.98338768125727 L-217.45573678577054,112.86275975253167" stroke="#0d6d4d" stroke-width="0.1" fill="none" />
<path d="M242.69925070948156,33.497368628837286 L-236.67915447930852,63.308592110073135" stroke="#0d6d4d" stroke-width="0.1" fill="none" />
<path d="M242.33951635592106,36.00776044657982 L-244.76295747782245,10.774722581564657" stroke="#0d6d4d" stroke-width="0.1" fill="none" />
<path d="M241.953816142217,38.514294154485654 L-241.32667099521618,-42.26627339104665" stroke="#0d6d4d" stroke-width="0.1" fill="none" />
<path d="M241.54219139484377,41.0167011859395 L-226.53202835980989,-93.31795179487324" stroke="#0d6d4d" stroke-width="0.1" fill="none" />
<path d="M241.1046862180019,43.51471341648528 L-201.07535882320835,-139.97749845642338" stroke="#0d6d4d" stroke-width="0.1" fill="none" />
<path d="M240.64134748889242,46.00806319255494 L-166.15481391117694,-180.04882064079774" stroke="#0d6d4d" stroke-width="0.1" fill="none" />
<path d="M240.15222485269422,48.496483360146875 L-123.41397485129015,-211.64590903536293" stroke="#0d6d4d" stroke-width="0.1" fill="none" />
<path d="M239.63737071724466,50.97970729345016 L-74.86449526769806,-233.28160525063439" stroke="#0d6d4d" stroke-width="0.1" fill="none" />
<path d="M239.09684024742432,53.45746892341283 L-22.791420066003212,-243.93759687956054" stroke="#0d6d4d" stroke-width="0.1" fill="none" />
<path d="M238.53069135924622,55.92950276625044 L30.354363200946935,-243.1123457059822" stroke="#0d6d4d" stroke-width="0.1" fill="none" />
<path d="M237.93898471365034,58.395543951891376 L82.07147856887876,-230.8446932582988" stroke="#0d6d4d" stroke-width="0.1" fill="none" />
<path d="M237.3217837100039,60.855328252357026 L129.9257922011885,-207.71203268201288" stroke="#0d6d4d" stroke-width="0.1" fill="none" />
<path d="M236.67915447930852,63.308592110073135 L171.66497808914283,-174.80313297436666" stroke="#0d6d4d" stroke-width="0.1" fill="none" />
<path d="M236.0111658771144,65.75507266610833 L205.3245267283086,-133.66689464409689" stroke="#0d6d4d" stroke-width="0.1" fill="none" />
<path d="M235.31788947614265,68.19450778833958 L229.3202073338766,-86.23944867836214" stroke="#0d6d4d" stroke-width="0.1" fill="none" />
<path d="M234.59939955861657,70.62663609953805 L242.52263173949584,-34.753029999539336" stroke="#0d6d4d" stroke-width="0.1" fill="none" />
<path d="M233.85577310830254,73.05119700537503 L244.3104105319655,18.369085597886883" stroke="#0d6d4d" stroke-width="0.1" fill="none" />
<path d="M233.08708980226152,75.46793072234372 L234.59939955861657,70.62663609953805" stroke="#0d6d4d" stroke-width="0.1" fill="none" />
<path d="M232.2934320023118,77.87657830559426 L213.8466602821718,119.56005138072419" stroke="#0d6d4d" stroke-width="0.1" fill="none" />
<path d="M231.47488474620425,80.27688167667856 L183.02894758378852,162.8662160988914" stroke="#0d6d4d" stroke-width="0.1" fill="none" />
<path d="M230.63153573851108,82.66858365120262 L143.59673751403906,198.50686883663286" stroke="#0d6d4d" stroke-width="0.1" fill="none" />
<path d="M229.76347534122806,85.05142796638326 L97.40595873599747,224.80453554748658" stroke="#0d6d4d" stroke-width="0.1" fill="none" />
<path d="M228.87079656409304,87.42515930850534 L46.63064080956514,240.5214820711225" stroke="#0d6d4d" stroke-width="0.1" fill="none" />
<path d="M227.95359505462002,89.78952334027797 L-6.339409359947164,244.91796971428417" stroke="#0d6d4d" stroke-width="0.1" fill="none" />
<path d="M227.01196908785084,92.14426672808602 L-59.01108691688529,237.78707202219343" stroke="#0d6d4d" stroke-width="0.1" fill="none" />
<path d="M226.04601955582544,94.48913716913376 L-108.90533030377625,219.46441404342846" stroke="#0d6d4d" stroke-width="0.1" fill="none" />
<path d="M225.0558499567716,96.82388341847847 L-153.6738015436131,190.81237569700298" stroke="#0d6d4d" stroke-width="0.1" fill="none" />
<path d="M224.0415663840153,99.14825531595025 L-191.20941384544338,153.17950273088746" stroke="#0d6d4d" stroke-width="0.1" fill="none" />
<path d="M223.0032775146135,101.46200381295587 L-219.7455044066051,108.33703564841849" stroke="#0d6d4d" stroke-width="0.1" fill="none" />
<path d="M221.94109459770937,103.76488099916376 L-237.93898471365029,58.39554395189154" stroke="#0d6d4d" stroke-width="0.1" fill="none" />
<path d="M220.85513144261267,106.05664012906634 L-244.93355476403826,5.705589421949581" stroke="#0d6d4d" stroke-width="0.1" fill="none" />
<path d="M219.74550440660514,108.33703564841845 L-240.40000594837502,-47.252906154238296" stroke="#0d6d4d" stroke-width="0.1" fill="none" />
<path d="M218.6123323824736,110.60582322054701 L-224.55171568521126,-97.98738175310149" stroke="#0d6d4d" stroke-width="0.1" fill="none" />
<path d="M217.4557367857705,112.86275975253172 L-198.13460453309796,-144.1099527670205" stroke="#0d6d4d" stroke-width="0.1" fill="none" />
<path d="M216.27584154180525,115.1076034212508 L-162.39202846158602,-183.44979992393408" stroke="#0d6d4d" stroke-width="0.1" fill="none" />
<path d="M215.07277307236552,117.34011369929196 L-119.00625867246444,-214.15534174234946" stroke="#0d6d4d" stroke-width="0.1" fill="none" />
<path d="M213.8466602821718,119.56005138072419 L-70.01930330016756,-234.78138164121776" stroke="#0d6d4d" stroke-width="0.1" fill="none" />
<path d="M212.59763454506557,121.76717860672778 L-17.736797621829353,-244.35712801169169" stroke="#0d6d4d" stroke-width="0.1" fill="none" />
<path d="M211.32582968993339,123.96125889107967 L35.380513689753315,-242.43188579691653" stroke="#0d6d4d" stroke-width="0.1" fill="none" />
<path d="M210.03138198636705,126.14205714549279 L86.83259474021311,-229.09626904574836" stroke="#0d6d4d" stroke-width="0.1" fill="none" />
<path d="M208.7144301300632,128.30933970480473 L134.19778588056164,-204.9779360437482" stroke="#0d6d4d" stroke-width="0.1" fill="none" />
<path d="M207.37511522796234,130.46287435201384 L175.24678229339565,-171.21204775310406" stroke="#0d6d4d" stroke-width="0.1" fill="none" />
<path d="M206.01358078312973,132.60243034316105 L208.04755914677602,-129.38783997373454" stroke="#0d6d4d" stroke-width="0.1" fill="none" />
<path d="M204.62997267937956,134.72777843205304 L231.0563048758524,-81.47382387685715" stroke="#0d6d4d" stroke-width="0.1" fill="none" />
<path d="M203.224439165644,136.83869089482505 L243.1900826981205,-29.725135445970725" stroke="#0d6d4d" stroke-width="0.1" fill="none" />
<path d="M201.79713084008876,138.9349415543408 L243.87780045283438,23.422605454720202" stroke="#0d6d4d" stroke-width="0.1" fill="none" />
<path d="M200.34820063397711,141.01630580442693 L233.08708980226152,75.46793072234372" stroke="#0d6d4d" stroke-width="0.1" fill="none" />
<path d="M198.87780379528357,143.08256063393853 L211.32582968993339,123.96125889107967" stroke="#0d6d4d" stroke-width="0.1" fill="none" />
<path d="M197.38609787206002,145.13348465065374 L179.61824235233217,166.62018789528133" stroke="#0d6d4d" stroke-width="0.1" fill="none" />
<path d="M195.87324269555455,147.16885810499576 L139.45668695656238,201.4369193149542" stroke="#0d6d4d" stroke-width="0.1" fill="none" />
<path d="M194.33940036308636,149.188462913578 L92.7314197596483,226.77275804064277" stroke="#0d6d4d" stroke-width="0.1" fill="none" />
<path d="M192.78473522067745,151.19208268257066 L41.64162671964673,241.43523960710792" stroke="#0d6d4d" stroke-width="0.1" fill="none" />
<path d="M191.2094138454435,153.17950273088732 L-11.408084074630233,244.7342550967195" stroke="#0d6d4d" stroke-width="0.1" fill="none" />
<path d="M189.61360502774585,155.15051011318653 L-63.92085843578788,236.51453202040665" stroke="#0d6d4d" stroke-width="0.1" fill="none" />
<path d="M187.99747975310584,157.1048936426888 L-113.42511379358675,217.1629424209202" stroke="#0d6d4d" stroke-width="0.1" fill="none" />
<path d="M186.36121118388476,159.04244391380402 L-157.5908674688885,187.59029423294595" stroke="#0d6d4d" stroke-width="0.1" fill="none" />
<path d="M184.7049746407296,160.96295332456916 L-194.3394003630863,149.18846291357804" stroke="#0d6d4d" stroke-width="0.1" fill="none" />
<path d="M183.02894758378852,162.8662160988914 L-221.9410945977094,103.76488099916372" stroke="#0d6d4d" stroke-width="0.1" fill="none" />
<path d="M181.33330959369613,164.75202830859703 L-239.09684024742432,53.45746892341289" stroke="#0d6d4d" stroke-width="0.1" fill="none" />
<path d="M179.61824235233217,166.62018789528133 L-244.99917965182127,0.6340109893433366" stroke="#0d6d4d" stroke-width="0.1" fill="none" />
<path d="M177.88392962335544,168.4704946919582 L-239.37031146878843,-52.21928750313632" stroke="#0d6d4d" stroke-width="0.1" fill="none" />
<path d="M176.13055723251324,170.302750444508 L-222.4751657588797,-102.61481676911477" stroke="#0d6d4d" stroke-width="0.1" fill="none" />
<path d="M174.35831304773134,172.11675883291932 L-195.10893470468824,-148.18064515449277" stroke="#0d6d4d" stroke-width="0.1" fill="none" />
<path d="M172.56738695898463,173.91232549232407 L-158.55964584826484,-186.77215720891812" stroke="#0d6d4d" stroke-width="0.1" fill="none" />
<path d="M170.75797085795062,175.68925803382314 L-114.54753938623128,-216.5729928235739" stroke="#0d6d4d" stroke-width="0.1" fill="none" />
<path d="M168.93025861744914,177.44736606510043 L-65.14410280966786,-236.18053660097274" stroke="#0d6d4d" stroke-width="0.1" fill="none" />
<path d="M167.08444607066997,179.18646121082193 L-12.67457362960003,-244.6719337874858" stroke="#0d6d4d" stroke-width="0.1" fill="none" />
<path d="M165.22073099018903,180.9063571328205 L40.39150097487624,-241.64752564219765" stroke="#0d6d4d" stroke-width="0.1" fill="none" />
<path d="M163.33931306677832,182.60686955006096 L91.55649663218583,-227.24965989950468" stroke="#0d6d4d" stroke-width="0.1" fill="none" />
<path d="M161.4403938880099,184.28781625838485 L138.41226574374153,-202.15599098637634" stroke="#0d6d4d" stroke-width="0.1" fill="none" />
<path d="M159.5241769166559,185.94901715003354 L178.75348010778418,-167.5475853283359" stroke="#0d6d4d" stroke-width="0.1" fill="none" />
<path d="M157.59086746888852,187.59029423294592 L210.68142758241234,-125.0533329097499" stroke="#0d6d4d" stroke-width="0.1" fill="none" />
<path d="M155.64067269228119,189.21147164982938 L232.6933774617776,-76.67328143121757" stroke="#0d6d4d" stroke-width="0.1" fill="none" />
<path d="M153.67380154361314,190.81237569700295 L243.75330846685443,-24.68450144245405" stroke="#0d6d4d" stroke-width="0.1" fill="none" />
<path d="M151.69046476648043,192.39283484300853 L243.34067044517525,28.466086968401598" stroke="#0d6d4d" stroke-width="0.1" fill="none" />
<path d="M149.69087486871575,193.95267974699004 L231.47488474620425,80.27688167667856" stroke="#0d6d4d" stroke-width="0.1" fill="none" />
<path d="M147.6752460996186,195.4917432768379 L208.7144301300632,128.30933970480473" stroke="#0d6d4d" stroke-width="0.1" fill="none" />
<path d="M145.6437944269993,197.00986052709638 L176.13055723251324,170.302750444508" stroke="#0d6d4d" stroke-width="0.1" fill="none" />
<path d="M143.59673751403906,198.50686883663286 L135.25686874935954,204.28063896541573" stroke="#0d6d4d" stroke-width="0.1" fill="none" />
<path d="M141.53429469596762,199.98260780606645 L88.01713841499992,228.6437913988367" stroke="#0d6d4d" stroke-width="0.1" fill="none" />
<path d="M139.45668695656238,201.4369193149542 L36.63476606952298,242.24552403508167" stroke="#0d6d4d" stroke-width="0.1" fill="none" />
<path d="M137.36413690447105,202.86964753873295 L-16.471869569671714,244.44565349557706" stroke="#0d6d4d" stroke-width="0.1" fill="none" />
<path d="M135.25686874935954,204.28063896541573 L-68.80323507273407,235.14062780286628" stroke="#0d6d4d" stroke-width="0.1" fill="none" />
<path d="M133.1351082778886,205.66974241204 L-117.89628611516052,214.76840019018675" stroke="#0d6d4d" stroke-width="0.1" fill="none" />
<path d="M130.99908282952202,207.03680904086605 L-161.44039388800988,184.28781625838485" stroke="#0d6d4d" stroke-width="0.1" fill="none" />
<path d="M128.84902127216742,208.38169237532495 L-197.3860978720599,145.1334846506539" stroke="#0d6d4d" stroke-width="0.1" fill="none" />
<path d="M126.68515397765397,209.70424831571273 L-224.0415663840153,99.14825531595025" stroke="#0d6d4d" stroke-width="0.1" fill="none" />
<path d="M124.50771279704918,211.00433515463024 L-240.1522248526942,48.49648336014699" stroke="#0d6d4d" stroke-width="0.1" fill="none" />
<path d="M122.31693103581655,212.28181359216643 L-244.9598040159851,-4.4378391645234005" stroke="#0d6d4d" stroke-width="0.1" fill="none" />
<path d="M120.11304342881755,213.53654675082436 L-238.23802885776877,-57.16328897085031" stroke="#0d6d4d" stroke-width="0.1" fill="none" />
<path d="M117.89628611516068,214.76840019018667 L-220.30326853820154,-107.1982736399475" stroke="#0d6d4d" stroke-width="0.1" fill="none" />
<path d="M115.66689661290032,215.97724192132057 L-191.9996460644283,-152.18783102184702" stroke="#0d6d4d" stroke-width="0.1" fill="none" />
<path d="M113.4251137935869,217.1629424209201 L-154.65930853459489,-190.01446861647403" stroke="#0d6d4d" stroke-width="0.1" fill="none" />
<path d="M111.17117785667286,218.32537464518413 L-110.0397278882122,-218.8978261342223" stroke="#0d6d4d" stroke-width="0.1" fill="none" />
<path d="M108.9053303037764,219.46441404342838 L-60.24098318525356,-237.4784704870612" stroke="#0d6d4d" stroke-width="0.1" fill="none" />
<path d="M106.62781391280485,220.57993857143097 L-7.606917631967278,-244.88187928905737" stroke="#0d6d4d" stroke-width="0.1" fill="none" />
<path d="M104.3388727119421,221.67182870450893 L45.385177472435906,-240.7596013989795" stroke="#0d6d4d" stroke-width="0.1" fill="none" />
<path d="M102.03875195350197,222.73996745032466 L96.24115969853972,-225.30565723008417" stroke="#0d6d4d" stroke-width="0.1" fill="none" />
<path d="M99.72769808765015,223.78424036142158 L142.56742557001738,-199.24740692500257" stroke="#0d6d4d" stroke-width="0.1" fill="none" />
<path d="M97.40595873599747,224.80453554748658 L182.1835686492896,-163.81131619704905" stroke="#0d6d4d" stroke-width="0.1" fill="none" />
<path d="M95.07378266506892,225.80074368733875 L213.22500322505067,-120.66523111351147" stroke="#0d6d4d" stroke-width="0.1" fill="none" />
<path d="M92.7314197596483,226.77275804064277 L234.2307234832672,-71.83987873392616" stroke="#0d6d4d" stroke-width="0.1" fill="none" />
<path d="M90.37912099600442,227.72047445934587 L244.21206766121327,-19.63328827871154" stroke="#0d6d4d" stroke-width="0.1" fill="none" />
<path d="M88.01713841499992,228.6437913988367 L242.69925070948156,33.497368628837286" stroke="#0d6d4d" stroke-width="0.1" fill="none" />
<path d="M85.64572509508544,229.54260992882575 L229.76347534122806,85.05142796638326" stroke="#0d6d4d" stroke-width="0.1" fill="none" />
<path d="M83.26513512518348,230.41683374394532 L206.01358078312973,132.60243034316105" stroke="#0d6d4d" stroke-width="0.1" fill="none" />
<path d="M80.87562357746384,231.26636917406813 L172.56738695898463,173.91232549232407" stroke="#0d6d4d" stroke-width="0.1" fill="none" />
<path d="M78.47744648001284,232.09112519434413 L130.99908282952202,207.03680904086605" stroke="#0d6d4d" stroke-width="0.1" fill="none" />
<path d="M76.07086078940145,232.8910134349531 L83.26513512518348,230.41683374394532" stroke="#0d6d4d" stroke-width="0.1" fill="none" />
<path d="M73.656124363153,233.66594819057343 L31.61220467450109,242.95198808739445" stroke="#0d6d4d" stroke-width="0.1" fill="none" />
<path d="M71.23349593211438,234.41584642956508 L-21.52859563319882,244.05228859828833" stroke="#0d6d4d" stroke-width="0.1" fill="none" />
<path d="M68.80323507273413,235.14062780286628 L-73.65612436315295,233.66594819057343" stroke="#0d6d4d" stroke-width="0.1" fill="none" />
<path d="M66.36560217924998,235.8402146526023 L-122.31693103581661,212.2818135921664" stroke="#0d6d4d" stroke-width="0.1" fill="none" />
<path d="M63.92085843578791,236.51453202040662 L-165.220730990189,180.90635713282052" stroke="#0d6d4d" stroke-width="0.1" fill="none" />
<path d="M61.469265788377456,237.16350765545235 L-200.34820063397706,141.016305804427" stroke="#0d6d4d" stroke-width="0.1" fill="none" />
<path d="M59.01108691688535,237.78707202219343 L-226.0460195558254,94.48913716913385" stroke="#0d6d4d" stroke-width="0.1" fill="none" />
<path d="M56.546585206869636,238.38515830781546 L-241.10468621800192,43.51471341648523" stroke="#0d6d4d" stroke-width="0.1" fill="none" />
<path d="M54.07602472135922,238.9577024293943 L-244.81544473194288,-9.507787371466364" stroke="#0d6d4d" stroke-width="0.1" fill="none" />
<path d="M51.59967017256044,239.50464304076232 L-237.00364338333705,-62.082791681946766" stroke="#0d6d4d" stroke-width="0.1" fill="none" />
<path d="M49.11778689349401,240.02592153908148 L-218.03695484402976,-111.73578801056772" stroke="#0d6d4d" stroke-width="0.1" fill="none" />
<path d="M46.63064080956514,240.5214820711225 L-188.8080711756995,-156.1297929893971" stroke="#0d6d4d" stroke-width="0.1" fill="none" />
<path d="M44.13849841007084,240.99127153924925 L-150.69268810764333,-193.1753445729877" stroke="#0d6d4d" stroke-width="0.1" fill="none" />
<path d="M41.64162671964673,241.43523960710792 L-105.48475611372346,-221.1288453088567" stroke="#0d6d4d" stroke-width="0.1" fill="none" />
<path d="M39.14029326965557,241.8533387050205 L-55.312045781421496,-238.67462703746693" stroke="#0d6d4d" stroke-width="0.1" fill="none" />
<path d="M36.63476606952298,242.24552403508167 L-2.536001499604198,-244.98687453901283" stroke="#0d6d4d" stroke-width="0.1" fill="none" />
<path d="M34.12531357802043,242.61175357595883 L50.35940301752329,-239.76849360939536" stroke="#0d6d4d" stroke-width="0.1" fill="none" />
<path d="M31.61220467450109,242.95198808739445 L100.88457620979726,-223.26509418843244" stroke="#0d6d4d" stroke-width="0.1" fill="none" />
<path d="M29.095708630090645,243.26619111441045 L146.66148456176322,-196.25343040604332" stroke="#0d6d4d" stroke-width="0.1" fill="none" />
<path d="M26.576095078835145,243.55432899121445 L185.53557786771256,-160.00484163078934" stroke="#0d6d4d" stroke-width="0.1" fill="none" />
<path d="M24.053633988810972,243.81637084480673 L215.67719596175786,-116.22541521575005" stroke="#0d6d4d" stroke-width="0.1" fill="none" />
<path d="M21.52859563319888,244.05228859828833 L235.66768407224887,-66.97568726054773" stroke="#0d6d4d" stroke-width="0.1" fill="none" />
<path d="M19.001250561324923,244.26205697386928 L244.56616366847496,-14.573660778429012" stroke="#0d6d4d" stroke-width="0.1" fill="none" />
<path d="M16.471869569671775,244.44565349557706 L241.953816142217,38.514294154485654" stroke="#0d6d4d" stroke-width="0.1" fill="none" />
<path d="M13.940723672864047,244.6030584916649 L227.95359505462002,89.78952334027797" stroke="#0d6d4d" stroke-width="0.1" fill="none" />
<path d="M11.408084074630295,244.7342550967195 L203.224439165644,136.83869089482505" stroke="#0d6d4d" stroke-width="0.1" fill="none" />
<path d="M8.874222138743809,244.83922925346795 L168.93025861744914,177.44736606510043" stroke="#0d6d4d" stroke-width="0.1" fill="none" />
<path d="M6.339409359947224,244.91796971428417 L126.68515397765397,209.70424831571273" stroke="#0d6d4d" stroke-width="0.1" fill="none" />
<path d="M3.80391733486311,244.97046804239392 L78.47744648001284,232.09112519434413" stroke="#0d6d4d" stroke-width="0.1" fill="none" />
<path d="M1.2680177328926505,244.99671861277872 L26.576095078835145,243.55432899121445" stroke="#0d6d4d" stroke-width="0.1" fill="none" />
<path d="M-1.2680177328924818,244.99671861277872 L-26.576095078834975,243.55432899121445" stroke="#0d6d4d" stroke-width="0.1" fill="none" />
<path d="M-3.8039173348630495,244.97046804239392 L-78.47744648001279,232.09112519434416" stroke="#0d6d4d" stroke-width="0.1" fill="none" />
<path d="M-6.339409359947164,244.91796971428417 L-126.68515397765391,209.70424831571276" stroke="#0d6d4d" stroke-width="0.1" fill="none" />
<path d="M-8.874222138743747,244.83922925346795 L-168.9302586174491,177.44736606510045" stroke="#0d6d4d" stroke-width="0.1" fill="none" />
<path d="M-11.408084074630233,244.7342550967195 L-203.22443916564407,136.83869089482494" stroke="#0d6d4d" stroke-width="0.1" fill="none" />
<path d="M-13.940723672863985,244.60305849166494 L-227.95359505462002,89.78952334027792" stroke="#0d6d4d" stroke-width="0.1" fill="none" />
<path d="M-16.471869569671714,244.44565349557706 L-241.953816142217,38.51429415448571" stroke="#0d6d4d" stroke-width="0.1" fill="none" />
<path d="M-19.00125056132486,244.26205697386928 L-244.56616366847496,-14.573660778428843" stroke="#0d6d4d" stroke-width="0.1" fill="none" />
<path d="M-21.52859563319882,244.05228859828833 L-235.66768407224887,-66.97568726054769" stroke="#0d6d4d" stroke-width="0.1" fill="none" />
<path d="M-24.053633988810912,243.81637084480673 L-215.67719596175792,-116.22541521574995" stroke="#0d6d4d" stroke-width="0.1" fill="none" />
<path d="M-26.576095078834975,243.55432899121445 L-185.53557786771253,-160.00484163078937" stroke="#0d6d4d" stroke-width="0.1" fill="none" />
<path d="M-29.095708630090584,243.26619111441045 L-146.66148456176327,-196.2534304060433" stroke="#0d6d4d" stroke-width="0.1" fill="none" />
<path d="M-31.612204674501143,242.95198808739443 L-100.88457620979722,-223.26509418843247" stroke="#0d6d4d" stroke-width="0.1" fill="none" />
<path d="M-34.12531357802038,242.61175357595886 L-50.35940301752331,-239.76849360939536" stroke="#0d6d4d" stroke-width="0.1" fill="none" />
<path d="M-36.634766069522925,242.24552403508167 L2.5360014996039664,-244.98687453901283" stroke="#0d6d4d" stroke-width="0.1" fill="none" />
<path d="M-39.14029326965562,241.85333870502046 L55.31204578142135,-238.67462703746696" stroke="#0d6d4d" stroke-width="0.1" fill="none" />
<path d="M-41.64162671964669,241.43523960710792 L105.4847561137234,-221.12884530885674" stroke="#0d6d4d" stroke-width="0.1" fill="none" />
<path d="M-44.13849841007079,240.99127153924928 L150.69268810764333,-193.17534457298768" stroke="#0d6d4d" stroke-width="0.1" fill="none" />
<path d="M-46.63064080956509,240.52148207112253 L188.8080711756994,-156.1297929893972" stroke="#0d6d4d" stroke-width="0.1" fill="none" />
<path d="M-49.11778689349395,240.0259215390815 L218.03695484402976,-111.73578801056772" stroke="#0d6d4d" stroke-width="0.1" fill="none" />
<path d="M-51.59967017256038,239.50464304076235 L237.00364338333702,-62.082791681946915" stroke="#0d6d4d" stroke-width="0.1" fill="none" />
<path d="M-54.07602472135916,238.95770242939432 L244.81544473194288,-9.507787371466424" stroke="#0d6d4d" stroke-width="0.1" fill="none" />
<path d="M-56.54658520686948,238.3851583078155 L241.1046862180019,43.51471341648528" stroke="#0d6d4d" stroke-width="0.1" fill="none" />
<path d="M-59.01108691688529,237.78707202219343 L226.04601955582544,94.48913716913376" stroke="#0d6d4d" stroke-width="0.1" fill="none" />
<path d="M-61.46926578837741,237.16350765545238 L200.34820063397711,141.01630580442693" stroke="#0d6d4d" stroke-width="0.1" fill="none" />
<path d="M-63.92085843578788,236.51453202040665 L165.22073099018903,180.9063571328205" stroke="#0d6d4d" stroke-width="0.1" fill="none" />
<path d="M-66.36560217924982,235.84021465260236 L122.31693103581655,212.28181359216643" stroke="#0d6d4d" stroke-width="0.1" fill="none" />
<path d="M-68.80323507273407,235.14062780286628 L73.656124363153,233.66594819057343" stroke="#0d6d4d" stroke-width="0.1" fill="none" />
<path d="M-71.23349593211444,234.41584642956508 L21.52859563319888,244.05228859828833" stroke="#0d6d4d" stroke-width="0.1" fill="none" />
<path d="M-73.65612436315295,233.66594819057343 L-31.612204674501143,242.95198808739443" stroke="#0d6d4d" stroke-width="0.1" fill="none" />
<path d="M-76.07086078940151,232.89101343495307 L-83.26513512518342,230.41683374394535" stroke="#0d6d4d" stroke-width="0.1" fill="none" />
<path d="M-78.47744648001279,232.09112519434416 L-130.99908282952197,207.03680904086607" stroke="#0d6d4d" stroke-width="0.1" fill="none" />
<path d="M-80.87562357746378,231.26636917406816 L-172.56738695898449,173.9123254923242" stroke="#0d6d4d" stroke-width="0.1" fill="none" />
<path d="M-83.26513512518342,230.41683374394535 L-206.0135807831297,132.60243034316113" stroke="#0d6d4d" stroke-width="0.1" fill="none" />
<path d="M-85.6457250950854,229.54260992882578 L-229.76347534122803,85.05142796638336" stroke="#0d6d4d" stroke-width="0.1" fill="none" />
<path d="M-88.01713841499975,228.64379139883675 L-242.69925070948156,33.49736862883729" stroke="#0d6d4d" stroke-width="0.1" fill="none" />
<path d="M-90.37912099600437,227.72047445934587 L-244.21206766121327,-19.633288278711536" stroke="#0d6d4d" stroke-width="0.1" fill="none" />
<path d="M-92.73141975964816,226.77275804064283 L-234.23072348326718,-71.83987873392626" stroke="#0d6d4d" stroke-width="0.1" fill="none" />
<path d="M-95.07378266506886,225.80074368733875 L-213.22500322505067,-120.66523111351144" stroke="#0d6d4d" stroke-width="0.1" fill="none" />
<path d="M-97.40595873599752,224.80453554748655 L-182.18356864928967,-163.81131619704897" stroke="#0d6d4d" stroke-width="0.1" fill="none" />
<path d="M-99.7276980876501,223.78424036142158 L-142.56742557001752,-199.24740692500245" stroke="#0d6d4d" stroke-width="0.1" fill="none" />
<path d="M-102.03875195350201,222.73996745032466 L-96.24115969853973,-225.30565723008414" stroke="#0d6d4d" stroke-width="0.1" fill="none" />
<path d="M-104.33887271194195,221.671828704509 L-45.38517747243601,-240.75960139897947" stroke="#0d6d4d" stroke-width="0.1" fill="none" />
<path d="M-106.62781391280481,220.57993857143097 L7.6069176319671366,-244.8818792890574" stroke="#0d6d4d" stroke-width="0.1" fill="none" />
<path d="M-108.90533030377625,219.46441404342846 L60.24098318525351,-237.47847048706123" stroke="#0d6d4d" stroke-width="0.1" fill="none" />
<path d="M-111.1711778566728,218.32537464518416 L110.03972788821204,-218.89782613422238" stroke="#0d6d4d" stroke-width="0.1" fill="none" />
<path d="M-113.42511379358675,217.1629424209202 L154.6593085345948,-190.01446861647406" stroke="#0d6d4d" stroke-width="0.1" fill="none" />
<path d="M-115.66689661290027,215.9772419213206 L191.99964606442813,-152.18783102184722" stroke="#0d6d4d" stroke-width="0.1" fill="none" />
<path d="M-117.89628611516052,214.76840019018675 L220.30326853820145,-107.19827363994763" stroke="#0d6d4d" stroke-width="0.1" fill="none" />
<path d="M-120.1130434288175,213.53654675082436 L238.23802885776874,-57.16328897085037" stroke="#0d6d4d" stroke-width="0.1" fill="none" />
<path d="M-122.31693103581661,212.2818135921664 L244.9598040159851,-4.437839164523406" stroke="#0d6d4d" stroke-width="0.1" fill="none" />
<path d="M-124.50771279704912,211.00433515463024 L240.15222485269422,48.496483360146875" stroke="#0d6d4d" stroke-width="0.1" fill="none" />
<path d="M-126.68515397765391,209.70424831571276 L224.0415663840153,99.14825531595025" stroke="#0d6d4d" stroke-width="0.1" fill="none" />
<path d="M-128.84902127216725,208.381692375325 L197.38609787206002,145.13348465065374" stroke="#0d6d4d" stroke-width="0.1" fill="none" />
<path d="M-130.99908282952197,207.03680904086607 L161.4403938880099,184.28781625838485" stroke="#0d6d4d" stroke-width="0.1" fill="none" />
<path d="M-133.13510827788855,205.66974241204002 L117.89628611516068,214.76840019018667" stroke="#0d6d4d" stroke-width="0.1" fill="none" />
<path d="M-135.25686874935948,204.28063896541576 L68.80323507273413,235.14062780286628" stroke="#0d6d4d" stroke-width="0.1" fill="none" />
<path d="M-137.36413690447094,202.86964753873303 L16.471869569671775,244.44565349557706" stroke="#0d6d4d" stroke-width="0.1" fill="none" />
<path d="M-139.4566869565624,201.43691931495417 L-36.634766069522925,242.24552403508167" stroke="#0d6d4d" stroke-width="0.1" fill="none" />
<path d="M-141.53429469596767,199.98260780606643 L-88.01713841499975,228.64379139883675" stroke="#0d6d4d" stroke-width="0.1" fill="none" />
<path d="M-143.59673751403906,198.5068688366329 L-135.25686874935948,204.28063896541576" stroke="#0d6d4d" stroke-width="0.1" fill="none" />
<path d="M-145.64379442699934,197.00986052709635 L-176.13055723251313,170.30275044450815" stroke="#0d6d4d" stroke-width="0.1" fill="none" />
<path d="M-147.67524609961853,195.49174327683792 L-208.71443013006314,128.3093397048048" stroke="#0d6d4d" stroke-width="0.1" fill="none" />
<path d="M-149.69087486871572,193.95267974699007 L-231.4748847462042,80.27688167667871" stroke="#0d6d4d" stroke-width="0.1" fill="none" />
<path d="M-151.69046476648037,192.39283484300856 L-243.34067044517525,28.466086968401655" stroke="#0d6d4d" stroke-width="0.1" fill="none" />
<path d="M-153.6738015436131,190.81237569700298 L-243.75330846685443,-24.684501442453943" stroke="#0d6d4d" stroke-width="0.1" fill="none" />
<path d="M-155.6406726922811,189.2114716498295 L-232.69337746177757,-76.67328143121763" stroke="#0d6d4d" stroke-width="0.1" fill="none" />
<path d="M-157.5908674688885,187.59029423294595 L-210.6814275824124,-125.05333290974984" stroke="#0d6d4d" stroke-width="0.1" fill="none" />
<path d="M-159.5241769166558,185.94901715003365 L-178.75348010778413,-167.54758532833597" stroke="#0d6d4d" stroke-width="0.1" fill="none" />
<path d="M-161.44039388800988,184.28781625838485 L-138.41226574374156,-202.1559909863763" stroke="#0d6d4d" stroke-width="0.1" fill="none" />
<path d="M-163.33931306677835,182.6068695500609 L-91.55649663218594,-227.24965989950462" stroke="#0d6d4d" stroke-width="0.1" fill="none" />
<path d="M-165.220730990189,180.90635713282052 L-40.39150097487644,-241.64752564219762" stroke="#0d6d4d" stroke-width="0.1" fill="none" />
<path d="M-167.08444607067,179.18646121082188 L12.67457362959998,-244.67193378748584" stroke="#0d6d4d" stroke-width="0.1" fill="none" />
<path d="M-168.9302586174491,177.44736606510045 L65.1441028096679,-236.18053660097274" stroke="#0d6d4d" stroke-width="0.1" fill="none" />
<path d="M-170.75797085795057,175.68925803382317 L114.54753938623121,-216.57299282357394" stroke="#0d6d4d" stroke-width="0.1" fill="none" />
<path d="M-172.56738695898449,173.9123254923242 L158.55964584826484,-186.77215720891812" stroke="#0d6d4d" stroke-width="0.1" fill="none" />
<path d="M-174.3583130477313,172.1167588329194 L195.10893470468815,-148.18064515449288" stroke="#0d6d4d" stroke-width="0.1" fill="none" />
<path d="M-176.13055723251313,170.30275044450815 L222.47516575887968,-102.61481676911481" stroke="#0d6d4d" stroke-width="0.1" fill="none" />
<path d="M-177.88392962335539,168.4704946919583 L239.3703114687884,-52.21928750313649" stroke="#0d6d4d" stroke-width="0.1" fill="none" />
<path d="M-179.61824235233215,166.6201878952814 L244.99917965182127,0.6340109893432222" stroke="#0d6d4d" stroke-width="0.1" fill="none" />
<path d="M-181.33330959369604,164.7520283085971 L239.09684024742432,53.45746892341283" stroke="#0d6d4d" stroke-width="0.1" fill="none" />
<path d="M-183.02894758378852,162.86621609889139 L221.94109459770937,103.76488099916376" stroke="#0d6d4d" stroke-width="0.1" fill="none" />
<path d="M-184.70497464072955,160.96295332456924 L194.33940036308636,149.188462913578" stroke="#0d6d4d" stroke-width="0.1" fill="none" />
<path d="M-186.36121118388473,159.0424439138041 L157.59086746888852,187.59029423294592" stroke="#0d6d4d" stroke-width="0.1" fill="none" />
<path d="M-187.99747975310578,157.10489364268886 L113.4251137935869,217.1629424209201" stroke="#0d6d4d" stroke-width="0.1" fill="none" />
<path d="M-189.61360502774588,155.1505101131865 L63.92085843578791,236.51453202040662" stroke="#0d6d4d" stroke-width="0.1" fill="none" />
<path d="M-191.20941384544338,153.17950273088746 L11.408084074630295,244.7342550967195" stroke="#0d6d4d" stroke-width="0.1" fill="none" />
<path d="M-192.7847352206774,151.19208268257074 L-41.64162671964669,241.43523960710792" stroke="#0d6d4d" stroke-width="0.1" fill="none" />
<path d="M-194.3394003630863,149.18846291357804 L-92.73141975964816,226.77275804064283" stroke="#0d6d4d" stroke-width="0.1" fill="none" />
<path d="M-195.87324269555444,147.16885810499593 L-139.4566869565624,201.43691931495417" stroke="#0d6d4d" stroke-width="0.1" fill="none" />
<path d="M-197.3860978720599,145.1334846506539 L-179.61824235233215,166.6201878952814" stroke="#0d6d4d" stroke-width="0.1" fill="none" />
<path d="M-198.87780379528357,143.0825606339385 L-211.32582968993339,123.96125889107964" stroke="#0d6d4d" stroke-width="0.1" fill="none" />
<path d="M-200.34820063397706,141.016305804427 L-233.08708980226152,75.46793072234377" stroke="#0d6d4d" stroke-width="0.1" fill="none" />
<path d="M-201.79713084008876,138.93494155434087 L-243.87780045283438,23.422605454720312" stroke="#0d6d4d" stroke-width="0.1" fill="none" />
<path d="M-203.22443916564407,136.83869089482494 L-243.19008269812053,-29.72513544597051" stroke="#0d6d4d" stroke-width="0.1" fill="none" />
<path d="M-204.62997267937945,134.72777843205319 L-231.05630487585245,-81.47382387685705" stroke="#0d6d4d" stroke-width="0.1" fill="none" />
<path d="M-206.0135807831297,132.60243034316113 L-208.04755914677608,-129.3878399737344" stroke="#0d6d4d" stroke-width="0.1" fill="none" />
<path d="M-207.37511522796228,130.4628743520139 L-175.2467822933957,-171.21204775310403" stroke="#0d6d4d" stroke-width="0.1" fill="none" />
<path d="M-208.71443013006314,128.3093397048048 L-134.19778588056175,-204.97793604374812" stroke="#0d6d4d" stroke-width="0.1" fill="none" />
<path d="M-210.03138198636697,126.14205714549294 L-86.8325947402131,-229.09626904574836" stroke="#0d6d4d" stroke-width="0.1" fill="none" />
<path d="M-211.32582968993339,123.96125889107964 L-35.38051368975339,-242.43188579691653" stroke="#0d6d4d" stroke-width="0.1" fill="none" />
<path d="M-212.59763454506546,121.76717860672794 L17.73679762182918,-244.35712801169169" stroke="#0d6d4d" stroke-width="0.1" fill="none" />
<path d="M-213.84666028217174,119.56005138072426 L70.01930330016748,-234.7813816412178" stroke="#0d6d4d" stroke-width="0.1" fill="none" />
<path d="M-215.07277307236558,117.34011369929182 L119.00625867246444,-214.15534174234946" stroke="#0d6d4d" stroke-width="0.1" fill="none" />
<path d="M-216.27584154180522,115.10760342125084 L162.39202846158608,-183.44979992393402" stroke="#0d6d4d" stroke-width="0.1" fill="none" />
<path d="M-217.45573678577054,112.86275975253167 L198.13460453309793,-144.10995276702056" stroke="#0d6d4d" stroke-width="0.1" fill="none" />
<path d="M-218.61233238247357,110.60582322054707 L224.5517156852113,-97.98738175310143" stroke="#0d6d4d" stroke-width="0.1" fill="none" />
<path d="M-219.7455044066051,108.33703564841849 L240.400005948375,-47.2529061542384" stroke="#0d6d4d" stroke-width="0.1" fill="none" />
<path d="M-220.8551314426126,106.05664012906648 L244.93355476403826,5.705589421949575" stroke="#0d6d4d" stroke-width="0.1" fill="none" />
<path d="M-221.9410945977094,103.76488099916372 L237.93898471365034,58.395543951891376" stroke="#0d6d4d" stroke-width="0.1" fill="none" />
<path d="M-223.00327751461342,101.46200381295607 L219.74550440660514,108.33703564841845" stroke="#0d6d4d" stroke-width="0.1" fill="none" />
<path d="M-224.0415663840153,99.14825531595025 L191.2094138454435,153.17950273088732" stroke="#0d6d4d" stroke-width="0.1" fill="none" />
<path d="M-225.05584995677157,96.82388341847853 L153.67380154361314,190.81237569700295" stroke="#0d6d4d" stroke-width="0.1" fill="none" />
<path d="M-226.0460195558254,94.48913716913385 L108.9053303037764,219.46441404342838" stroke="#0d6d4d" stroke-width="0.1" fill="none" />
<path d="M-227.01196908785087,92.14426672808592 L59.01108691688535,237.78707202219343" stroke="#0d6d4d" stroke-width="0.1" fill="none" />
<path d="M-227.95359505462002,89.78952334027792 L6.339409359947224,244.91796971428417" stroke="#0d6d4d" stroke-width="0.1" fill="none" />
<path d="M-228.87079656409304,87.42515930850534 L-46.63064080956509,240.52148207112253" stroke="#0d6d4d" stroke-width="0.1" fill="none" />
<path d="M-229.76347534122803,85.05142796638336 L-97.40595873599752,224.80453554748655" stroke="#0d6d4d" stroke-width="0.1" fill="none" />
<path d="M-230.63153573851102,82.6685836512028 L-143.59673751403906,198.5068688366329" stroke="#0d6d4d" stroke-width="0.1" fill="none" />
<path d="M-231.4748847462042,80.27688167667871 L-183.02894758378852,162.86621609889139" stroke="#0d6d4d" stroke-width="0.1" fill="none" />
<path d="M-232.2934320023118,77.87657830559426 L-213.84666028217174,119.56005138072426" stroke="#0d6d4d" stroke-width="0.1" fill="none" />
<path d="M-233.08708980226152,75.46793072234377 L-234.59939955861662,70.62663609953793" stroke="#0d6d4d" stroke-width="0.1" fill="none" />
<path d="M-233.85577310830254,73.05119700537509 L-244.3104105319655,18.369085597886887" stroke="#0d6d4d" stroke-width="0.1" fill="none" />
<path d="M-234.59939955861662,70.62663609953793 L-242.52263173949586,-34.75302999953928" stroke="#0d6d4d" stroke-width="0.1" fill="none" />
<path d="M-235.3178894761426,68.19450778833973 L-229.32020733387657,-86.23944867836218" stroke="#0d6d4d" stroke-width="0.1" fill="none" />
<path d="M-236.0111658771144,65.75507266610833 L-205.3245267283086,-133.66689464409686" stroke="#0d6d4d" stroke-width="0.1" fill="none" />
<path d="M-236.67915447930852,63.308592110073135 L-171.66497808914292,-174.80313297436655" stroke="#0d6d4d" stroke-width="0.1" fill="none" />
<path d="M-237.32178371000387,60.85532825235718 L-129.9257922011887,-207.7120326820128" stroke="#0d6d4d" stroke-width="0.1" fill="none" />
<path d="M-237.93898471365029,58.39554395189154 L-82.07147856887883,-230.8446932582988" stroke="#0d6d4d" stroke-width="0.1" fill="none" />
<path d="M-238.53069135924622,55.929502766250444 L-30.3543632009471,-243.11234570598216" stroke="#0d6d4d" stroke-width="0.1" fill="none" />
<path d="M-239.09684024742432,53.45746892341289 L22.791420066003127,-243.93759687956057" stroke="#0d6d4d" stroke-width="0.1" fill="none" />
<path d="M-239.63737071724464,50.97970729345022 L74.86449526769806,-233.28160525063439" stroke="#0d6d4d" stroke-width="0.1" fill="none" />
<path d="M-240.1522248526942,48.49648336014699 L123.41397485129004,-211.645909035363" stroke="#0d6d4d" stroke-width="0.1" fill="none" />
<path d="M-240.6413474888924,46.00806319255511 L166.15481391117694,-180.04882064079777" stroke="#0d6d4d" stroke-width="0.1" fill="none" />
<path d="M-241.10468621800192,43.51471341648523 L201.07535882320823,-139.97749845642355" stroke="#0d6d4d" stroke-width="0.1" fill="none" />
<path d="M-241.54219139484377,41.01670118593951 L226.53202835980986,-93.31795179487332" stroke="#0d6d4d" stroke-width="0.1" fill="none" />
<path d="M-241.953816142217,38.51429415448571 L241.32667099521618,-42.26627339104666" stroke="#0d6d4d" stroke-width="0.1" fill="none" />
<path d="M-242.33951635592103,36.00776044657988 L244.76295747782245,10.774722581564706" stroke="#0d6d4d" stroke-width="0.1" fill="none" />
<path d="M-242.69925070948156,33.49736862883729 L236.67915447930852,63.308592110073135" stroke="#0d6d4d" stroke-width="0.1" fill="none" />
<path d="M-243.0329806585783,30.983387681257494 L217.4557367857705,112.86275975253172" stroke="#0d6d4d" stroke-width="0.1" fill="none" />
<path d="M-243.34067044517525,28.466086968401655 L187.99747975310584,157.1048936426888" stroke="#0d6d4d" stroke-width="0.1" fill="none" />
<path d="M-243.6222871013516,25.945736210534104 L149.69087486871575,193.95267974699004" stroke="#0d6d4d" stroke-width="0.1" fill="none" />
<path d="M-243.87780045283438,23.422605454720312 L104.3388727119421,221.67182870450893" stroke="#0d6d4d" stroke-width="0.1" fill="none" />
<path d="M-244.1071831222316,20.896965045893342 L54.07602472135922,238.9577024293943" stroke="#0d6d4d" stroke-width="0.1" fill="none" />
<path d="M-244.3104105319655,18.369085597886887 L1.2680177328926505,244.99671861277872" stroke="#0d6d4d" stroke-width="0.1" fill="none" />
<path d="M-244.48746090690585,15.839237964440768 L-51.59967017256038,239.50464304076235" stroke="#0d6d4d" stroke-width="0.1" fill="none" />
<path d="M-244.63831527670348,13.307693210178574 L-102.03875195350201,222.73996745032466" stroke="#0d6d4d" stroke-width="0.1" fill="none" />
<path d="M-244.76295747782245,10.774722581564657 L-147.67524609961853,195.49174327683792" stroke="#0d6d4d" stroke-width="0.1" fill="none" />
<path d="M-244.8613741552722,8.240597477841852 L-186.36121118388473,159.0424439138041" stroke="#0d6d4d" stroke-width="0.1" fill="none" />
<path d="M-244.93355476403826,5.705589421949581 L-216.27584154180522,115.10760342125084" stroke="#0d6d4d" stroke-width="0.1" fill="none" />
<path d="M-244.97949157021247,3.1699700314341244 L-236.0111658771144,65.75507266610833" stroke="#0d6d4d" stroke-width="0.1" fill="none" />
<path d="M-244.99917965182127,0.6340109893433366 L-244.63831527670348,13.307693210178574" stroke="#0d6d4d" stroke-width="0.1" fill="none" />
<path d="M-244.9926168993532,-1.9020159848821947 L-241.75124164377553,-39.766030273247644" stroke="#0d6d4d" stroke-width="0.1" fill="none" />
<path d="M-244.9598040159851,-4.4378391645234005 L-227.48582888385556,-90.96811340807942" stroke="#0d6d4d" stroke-width="0.1" fill="none" />
<path d="M-244.90074451750644,-6.973186844696241 L-202.51349735063098,-137.88866302497811" stroke="#0d6d4d" stroke-width="0.1" fill="none" />
<path d="M-244.81544473194288,-9.507787371466364 L-168.00960256676532,-178.31930194277217" stroke="#0d6d4d" stroke-width="0.1" fill="none" />
<path d="M-244.7039137988782,-12.041369170953068 L-125.59811557531661,-210.35710913570145" stroke="#0d6d4d" stroke-width="0.1" fill="none" />
<path d="M-244.56616366847496,-14.573660778428843 L-77.27518861354973,-232.49418320624778" stroke="#0d6d4d" stroke-width="0.1" fill="none" />
<path d="M-244.40220910019403,-17.104390867407194 L-25.3152035909072,-243.68861374128852" stroke="#0d6d4d" stroke-width="0.1" fill="none" />
<path d="M-244.21206766121327,-19.633288278711536 L27.836274677303688,-243.41352019164776" stroke="#0d6d4d" stroke-width="0.1" fill="none" />
<path d="M-243.99575972454528,-22.160082049531365 L79.67760218410822,-231.6818501958904" stroke="#0d6d4d" stroke-width="0.1" fill="none" />
<path d="M-243.75330846685443,-24.684501442453943 L127.76879888574304,-209.04577018273903" stroke="#0d6d4d" stroke-width="0.1" fill="none" />
<path d="M-243.48473986597355,-27.206275974473296 L169.84638956126022,-176.57067693420854" stroke="#0d6d4d" stroke-width="0.1" fill="none" />
<path d="M-243.19008269812053,-29.72513544597051 L203.92993724124688,-135.78505328931132" stroke="#0d6d4d" stroke-width="0.1" fill="none" />
<path d="M-242.86936853481507,-32.24080996966705 L228.4152550701693,-88.60852809537855" stroke="#0d6d4d" stroke-width="0.1" fill="none" />
<path d="M-242.52263173949586,-34.75302999953928 L242.1499094638386,-37.26152635970186" stroke="#0d6d4d" stroke-width="0.1" fill="none" />
<path d="M-242.14990946383864,-37.26152635970175 L244.48746090690585,15.839237964440764" stroke="#0d6d4d" stroke-width="0.1" fill="none" />
<path d="M-241.75124164377553,-39.766030273247644 L235.31788947614265,68.19450778833958" stroke="#0d6d4d" stroke-width="0.1" fill="none" />
<path d="M-241.32667099521618,-42.26627339104665 L215.07277307236552,117.34011369929196" stroke="#0d6d4d" stroke-width="0.1" fill="none" />
<path d="M-240.87624300947053,-44.76198782049899 L184.7049746407296,160.96295332456916" stroke="#0d6d4d" stroke-width="0.1" fill="none" />
<path d="M-240.40000594837502,-47.252906154238296 L145.6437944269993,197.00986052709638" stroke="#0d6d4d" stroke-width="0.1" fill="none" />
<path d="M-239.89801083912116,-49.738761498783866 L99.72769808765015,223.78424036142158" stroke="#0d6d4d" stroke-width="0.1" fill="none" />
<path d="M-239.37031146878843,-52.21928750313632 L49.11778689349401,240.02592153908148" stroke="#0d6d4d" stroke-width="0.1" fill="none" />
<path d="M-238.81696437858074,-54.69421838731859 L-3.8039173348630495,244.97046804239392" stroke="#0d6d4d" stroke-width="0.1" fill="none" />
<path d="M-238.23802885776877,-57.16328897085031 L-56.54658520686948,238.3851583078155" stroke="#0d6d4d" stroke-width="0.1" fill="none" />
<path d="M-237.6335669373369,-59.62623470116336 L-106.62781391280481,220.57993857143097" stroke="#0d6d4d" stroke-width="0.1" fill="none" />
<path d="M-237.00364338333705,-62.082791681946766 L-151.69046476648037,192.39283484300856" stroke="#0d6d4d" stroke-width="0.1" fill="none" />
<path d="M-236.34832568994898,-64.53269670142265 L-189.61360502774588,155.1505101131865" stroke="#0d6d4d" stroke-width="0.1" fill="none" />
<path d="M-235.66768407224887,-66.97568726054769 L-218.61233238247357,110.60582322054707" stroke="#0d6d4d" stroke-width="0.1" fill="none" />
<path d="M-234.9617914586857,-69.41150160114024 L-237.32178371000387,60.85532825235718" stroke="#0d6d4d" stroke-width="0.1" fill="none" />
<path d="M-234.23072348326718,-71.83987873392626 L-244.8613741552722,8.240597477841852" stroke="#0d6d4d" stroke-width="0.1" fill="none" />
<path d="M-233.47455847745633,-74.2605584665025 L-240.87624300947053,-44.76198782049899" stroke="#0d6d4d" stroke-width="0.1" fill="none" />
<path d="M-232.69337746177757,-76.67328143121763 L-225.553955694535,-95.65779147851858" stroke="#0d6d4d" stroke-width="0.1" fill="none" />
<path d="M-231.8872641371369,-79.07778911295961 L-199.61567575066124,-142.0513357719908" stroke="#0d6d4d" stroke-width="0.1" fill="none" />
<path d="M-231.05630487585245,-81.47382387685705 L-164.2822223288308,-181.75904771620202" stroke="#0d6d4d" stroke-width="0.1" fill="none" />
<path d="M-230.20058871240076,-83.8611289958829 L-121.21661073695977,-212.91203179117045" stroke="#0d6d4d" stroke-width="0.1" fill="none" />
<path d="M-229.32020733387657,-86.23944867836218 L-72.44578044419774,-234.0440319594394" stroke="#0d6d4d" stroke-width="0.1" fill="none" />
<path d="M-228.4152550701693,-88.60852809537855 L-20.26519451746724,-244.16044292876194" stroke="#0d6d4d" stroke-width="0.1" fill="none" />
<path d="M-227.48582888385556,-90.96811340807942 L32.86919935716172,-242.7851225541202" stroke="#0d6d4d" stroke-width="0.1" fill="none" />
<path d="M-226.53202835980989,-93.31795179487324 L84.45656127209732,-229.98280209200965" stroke="#0d6d4d" stroke-width="0.1" fill="none" />
<path d="M-225.553955694535,-95.65779147851858 L132.06886440710937,-206.35603953898845" stroke="#0d6d4d" stroke-width="0.1" fill="none" />
<path d="M-224.55171568521126,-97.98738175310149 L173.46517329479866,-173.01685944960815" stroke="#0d6d4d" stroke-width="0.1" fill="none" />
<path d="M-223.52541571846857,-100.30647301089697 L206.69711638626592,-131.5344140428749" stroke="#0d6d4d" stroke-width="0.1" fill="none" />
<path d="M-222.4751657588797,-102.61481676911477 L230.20058871240073,-83.86112899588299" stroke="#0d6d4d" stroke-width="0.1" fill="none" />
<path d="M-221.40107833717832,-104.91216569652268 L242.86936853481507,-32.24080996966711" stroke="#0d6d4d" stroke-width="0.1" fill="none" />
<path d="M-220.30326853820154,-107.1982736399475 L244.10718312223162,20.896965045893175" stroke="#0d6d4d" stroke-width="0.1" fill="none" />
<path d="M-219.18185398855908,-109.4728956506494 L233.85577310830254,73.05119700537503" stroke="#0d6d4d" stroke-width="0.1" fill="none" />
<path d="M-218.03695484402976,-111.73578801056772 L212.59763454506557,121.76717860672778" stroke="#0d6d4d" stroke-width="0.1" fill="none" />
<path d="M-216.86869377668773,-113.98670825843354 L181.33330959369613,164.75202830859703" stroke="#0d6d4d" stroke-width="0.1" fill="none" />
<path d="M-215.67719596175792,-116.22541521574995 L141.53429469596762,199.98260780606645" stroke="#0d6d4d" stroke-width="0.1" fill="none" />
<path d="M-214.46258906420414,-118.45166901263279 L95.07378266506892,225.80074368733875" stroke="#0d6d4d" stroke-width="0.1" fill="none" />
<path d="M-213.22500322505067,-120.66523111351144 L44.13849841007084,240.99127153924925" stroke="#0d6d4d" stroke-width="0.1" fill="none" />
<path d="M-211.96457104743746,-122.86586434268813 L-8.874222138743747,244.83922925346795" stroke="#0d6d4d" stroke-width="0.1" fill="none" />
<path d="M-210.6814275824124,-125.05333290974984 L-61.46926578837741,237.16350765545238" stroke="#0d6d4d" stroke-width="0.1" fill="none" />
<path d="M-209.37571031446117,-127.22740243483257 L-111.1711778566728,218.32537464518416" stroke="#0d6d4d" stroke-width="0.1" fill="none" />
<path d="M-208.04755914677608,-129.3878399737344 L-155.6406726922811,189.2114716498295" stroke="#0d6d4d" stroke-width="0.1" fill="none" />
<path d="M-206.69711638626592,-131.53441404287486 L-192.7847352206774,151.19208268257074" stroke="#0d6d4d" stroke-width="0.1" fill="none" />
<path d="M-205.3245267283086,-133.66689464409686 L-220.8551314426126,106.05664012906648" stroke="#0d6d4d" stroke-width="0.1" fill="none" />
<path d="M-203.92993724124693,-135.78505328931124 L-238.53069135924622,55.929502766250444" stroke="#0d6d4d" stroke-width="0.1" fill="none" />
<path d="M-202.51349735063098,-137.88866302497811 L-244.97949157021247,3.1699700314341244" stroke="#0d6d4d" stroke-width="0.1" fill="none" />
<path d="M-201.07535882320835,-139.97749845642338 L-239.89801083912116,-49.738761498783866" stroke="#0d6d4d" stroke-width="0.1" fill="none" />
<path d="M-199.61567575066124,-142.0513357719908 L-223.52541571846857,-100.30647301089697" stroke="#0d6d4d" stroke-width="0.1" fill="none" />
<path d="M-198.13460453309796,-144.1099527670205 L-196.63230386229378,-146.1531288676591" stroke="#0d6d4d" stroke-width="0.1" fill="none" />
<path d="M-196.63230386229378,-146.1531288676591 L-160.48443483732765,-185.1208961056086" stroke="#0d6d4d" stroke-width="0.1" fill="none" />
<path d="M-195.10893470468824,-148.18064515449277 L-116.7831554895574,-215.3757056724408" stroke="#0d6d4d" stroke-width="0.1" fill="none" />
<path d="M-193.56466028413797,-150.19228438600388 L-67.58532382443278,-235.49357529144305" stroke="#0d6d4d" stroke-width="0.1" fill="none" />
<path d="M-191.9996460644283,-152.18783102184702 L-15.206500288270849,-244.5276310542079" stroke="#0d6d4d" stroke-width="0.1" fill="none" />
<path d="M-190.4140597315431,-154.16707124594518 L37.88803711987844,-242.05267328249593" stroke="#0d6d4d" stroke-width="0.1" fill="none" />
<path d="M-188.8080711756995,-156.1297929893971 L89.1993243892703,-228.18518910853464" stroke="#0d6d4d" stroke-width="0.1" fill="none" />
<path d="M-187.18185247314344,-158.0757859532015 L136.31232851480462,-203.5778698554241" stroke="#0d6d4d" stroke-width="0.1" fill="none" />
<path d="M-185.53557786771253,-160.00484163078937 L177.00961419155084,-169.38889126432798" stroke="#0d6d4d" stroke-width="0.1" fill="none" />
<path d="M-183.8694237521672,-161.91675333036412 L209.3757103144611,-127.22740243483267" stroke="#0d6d4d" stroke-width="0.1" fill="none" />
<path d="M-182.18356864928967,-163.81131619704897 L231.88726413713687,-79.07778911295965" stroke="#0d6d4d" stroke-width="0.1" fill="none" />
<path d="M-180.47819319275652,-165.68832723483587 L243.48473986597355,-27.206275974473247" stroke="#0d6d4d" stroke-width="0.1" fill="none" />
<path d="M-178.75348010778413,-167.54758532833597 L243.6222871013516,25.945736210533997" stroke="#0d6d4d" stroke-width="0.1" fill="none" />
<path d="M-177.009614191551,-169.38889126432778 L232.2934320023118,77.87657830559426" stroke="#0d6d4d" stroke-width="0.1" fill="none" />
<path d="M-175.2467822933957,-171.21204775310403 L210.03138198636705,126.14205714549279" stroke="#0d6d4d" stroke-width="0.1" fill="none" />
<path d="M-173.46517329479877,-173.01685944960806 L177.88392962335544,168.4704946919582" stroke="#0d6d4d" stroke-width="0.1" fill="none" />
<path d="M-171.66497808914292,-174.80313297436655 L137.36413690447105,202.86964753873295" stroke="#0d6d4d" stroke-width="0.1" fill="none" />
<path d="M-169.84638956126034,-176.57067693420842 L90.37912099600442,227.72047445934587" stroke="#0d6d4d" stroke-width="0.1" fill="none" />
<path d="M-168.00960256676532,-178.31930194277217 L39.14029326965557,241.8533387050205" stroke="#0d6d4d" stroke-width="0.1" fill="none" />
<path d="M-166.15481391117694,-180.04882064079774 L-13.940723672863985,244.60305849166494" stroke="#0d6d4d" stroke-width="0.1" fill="none" />
<path d="M-164.2822223288308,-181.75904771620202 L-66.36560217924982,235.84021465260236" stroke="#0d6d4d" stroke-width="0.1" fill="none" />
<path d="M-162.39202846158602,-183.44979992393408 L-115.66689661290027,215.9772419213206" stroke="#0d6d4d" stroke-width="0.1" fill="none" />
<path d="M-160.48443483732765,-185.1208961056086 L-159.5241769166558,185.94901715003365" stroke="#0d6d4d" stroke-width="0.1" fill="none" />
<path d="M-158.55964584826484,-186.77215720891812 L-195.87324269555444,147.16885810499593" stroke="#0d6d4d" stroke-width="0.1" fill="none" />
<path d="M-156.617867729033,-188.40340630681578 L-223.00327751461342,101.46200381295607" stroke="#0d6d4d" stroke-width="0.1" fill="none" />
<path d="M-154.65930853459489,-190.01446861647403 L-239.63737071724464,50.97970729345022" stroke="#0d6d4d" stroke-width="0.1" fill="none" />
<path d="M-152.68417811794876,-191.60517151801122 L-244.9926168993532,-1.9020159848821947" stroke="#0d6d4d" stroke-width="0.1" fill="none" />
<path d="M-150.69268810764333,-193.1753445729877 L-238.81696437858074,-54.69421838731859" stroke="#0d6d4d" stroke-width="0.1" fill="none" />
<path d="M-148.68505188510287,-194.7248195426671 L-221.40107833717832,-104.91216569652268" stroke="#0d6d4d" stroke-width="0.1" fill="none" />
<path d="M-146.66148456176327,-196.2534304060433 L-193.56466028413797,-150.19228438600388" stroke="#0d6d4d" stroke-width="0.1" fill="none" />
<path d="M-144.62220295602398,-197.76101337762861 L-156.617867729033,-188.40340630681578" stroke="#0d6d4d" stroke-width="0.1" fill="none" />
<path d="M-142.56742557001752,-199.24740692500245 L-112.29964990119564,-217.747074910477" stroke="#0d6d4d" stroke-width="0.1" fill="none" />
<path d="M-140.49737256619542,-200.7124517861203 L-62.695901824454396,-236.8421919642241" stroke="#0d6d4d" stroke-width="0.1" fill="none" />
<path d="M-138.41226574374156,-202.1559909863763 L-10.141288933201011,-244.7900207499753" stroke="#0d6d4d" stroke-width="0.1" fill="none" />
<path d="M-136.31232851480468,-203.57786985542404 L42.89063701705559,-241.21648628622214" stroke="#0d6d4d" stroke-width="0.1" fill="none" />
<path d="M-134.19778588056175,-204.97793604374812 L93.90385890592039,-226.28978165745136" stroke="#0d6d4d" stroke-width="0.1" fill="none" />
<path d="M-132.06886440710932,-206.35603953898845 L140.49737256619545,-200.7124517861203" stroke="#0d6d4d" stroke-width="0.1" fill="none" />
<path d="M-129.9257922011887,-207.7120326820128 L180.47819319275644,-165.68832723483598" stroke="#0d6d4d" stroke-width="0.1" fill="none" />
<path d="M-127.76879888574307,-209.04577018273903 L211.96457104743743,-122.86586434268816" stroke="#0d6d4d" stroke-width="0.1" fill="none" />
<path d="M-125.59811557531661,-210.35710913570145 L233.47455847745627,-74.26055846650266" stroke="#0d6d4d" stroke-width="0.1" fill="none" />
<path d="M-123.41397485129015,-211.64590903536293 L243.99575972454528,-22.160082049531425" stroke="#0d6d4d" stroke-width="0.1" fill="none" />
<path d="M-121.21661073695977,-212.91203179117045 L243.03298065857834,30.98338768125727" stroke="#0d6d4d" stroke-width="0.1" fill="none" />
<path d="M-119.00625867246444,-214.15534174234946 L230.63153573851108,82.66858365120262" stroke="#0d6d4d" stroke-width="0.1" fill="none" />
<path d="M-116.7831554895574,-215.3757056724408 L207.37511522796234,130.46287435201384" stroke="#0d6d4d" stroke-width="0.1" fill="none" />
<path d="M-114.54753938623128,-216.5729928235739 L174.35831304773134,172.11675883291932" stroke="#0d6d4d" stroke-width="0.1" fill="none" />
<path d="M-112.29964990119564,-217.747074910477 L133.1351082778886,205.66974241204" stroke="#0d6d4d" stroke-width="0.1" fill="none" />
<path d="M-110.0397278882122,-218.8978261342223 L85.64572509508544,229.54260992882575" stroke="#0d6d4d" stroke-width="0.1" fill="none" />
<path d="M-107.76801549028603,-220.0251231957057 L34.12531357802043,242.61175357595883" stroke="#0d6d4d" stroke-width="0.1" fill="none" />
<path d="M-105.48475611372346,-221.1288453088567 L-19.00125056132486,244.26205697386928" stroke="#0d6d4d" stroke-width="0.1" fill="none" />
<path d="M-103.19019440204976,-222.20887421358125 L-71.23349593211444,234.41584642956508" stroke="#0d6d4d" stroke-width="0.1" fill="none" />
<path d="M-100.88457620979722,-223.26509418843247 L-120.1130434288175,213.53654675082436" stroke="#0d6d4d" stroke-width="0.1" fill="none" />
<path d="M-98.56814857616322,-224.29739206300954 L-163.33931306677835,182.6068695500609" stroke="#0d6d4d" stroke-width="0.1" fill="none" />
<path d="M-96.24115969853973,-225.30565723008414 L-198.87780379528357,143.0825606339385" stroke="#0d6d4d" stroke-width="0.1" fill="none" />
<path d="M-93.90385890592046,-226.2897816574513 L-225.05584995677157,96.82388341847853" stroke="#0d6d4d" stroke-width="0.1" fill="none" />
<path d="M-91.55649663218594,-227.24965989950462 L-240.6413474888924,46.00806319255511" stroke="#0d6d4d" stroke-width="0.1" fill="none" />
<path d="M-89.19932438927046,-228.18518910853462 L-244.90074451750644,-6.973186844696241" stroke="#0d6d4d" stroke-width="0.1" fill="none" />
<path d="M-86.8325947402131,-229.09626904574836 L-237.6335669373369,-59.62623470116336" stroke="#0d6d4d" stroke-width="0.1" fill="none" />
<path d="M-84.45656127209735,-229.98280209200965 L-219.18185398855908,-109.4728956506494" stroke="#0d6d4d" stroke-width="0.1" fill="none" />
<path d="M-82.07147856887883,-230.8446932582988 L-190.4140597315431,-154.16707124594518" stroke="#0d6d4d" stroke-width="0.1" fill="none" />
<path d="M-79.67760218410834,-231.68185019589035 L-152.68417811794876,-191.60517151801122" stroke="#0d6d4d" stroke-width="0.1" fill="none" />
<path d="M-77.27518861354973,-232.49418320624778 L-107.76801549028603,-220.0251231957057" stroke="#0d6d4d" stroke-width="0.1" fill="none" />
<path d="M-74.86449526769806,-233.28160525063439 L-57.779609928300665,-238.08930399439078" stroke="#0d6d4d" stroke-width="0.1" fill="none" />
<path d="M-72.44578044419774,-234.0440319594394 L-5.071731275218134,-244.94749956240005" stroke="#0d6d4d" stroke-width="0.1" fill="none" />
<path d="M-70.01930330016756,-234.78138164121776 L47.87485505943816,-240.27691993414138" stroke="#0d6d4d" stroke-width="0.1" fill="none" />
<path d="M-67.58532382443278,-235.49357529144305 L98.56814857616325,-224.2973920630095" stroke="#0d6d4d" stroke-width="0.1" fill="none" />
<path d="M-65.14410280966786,-236.18053660097274 L144.6222029560241,-197.76101337762856" stroke="#0d6d4d" stroke-width="0.1" fill="none" />
<path d="M-62.695901824454396,-236.8421919642241 L183.86942375216717,-161.91675333036414" stroke="#0d6d4d" stroke-width="0.1" fill="none" />
<path d="M-60.24098318525356,-237.4784704870612 L214.46258906420414,-118.45166901263278" stroke="#0d6d4d" stroke-width="0.1" fill="none" />
<path d="M-57.779609928300665,-238.08930399439078 L234.9617914586857,-69.4115016011403" stroke="#0d6d4d" stroke-width="0.1" fill="none" />
<path d="M-55.312045781421496,-238.67462703746693 L244.40220910019403,-17.104390867407197" stroke="#0d6d4d" stroke-width="0.1" fill="none" />
<path d="M-52.83855513577477,-239.23437690090378 L242.33951635592106,36.00776044657982" stroke="#0d6d4d" stroke-width="0.1" fill="none" />
<path d="M-50.35940301752331,-239.76849360939536 L228.87079656409304,87.42515930850534" stroke="#0d6d4d" stroke-width="0.1" fill="none" />
<path d="M-47.87485505943823,-240.27691993414138 L204.62997267937956,134.72777843205304" stroke="#0d6d4d" stroke-width="0.1" fill="none" />
<path d="M-45.38517747243601,-240.75960139897947 L170.75797085795062,175.68925803382314" stroke="#0d6d4d" stroke-width="0.1" fill="none" />
<path d="M-42.89063701705554,-241.21648628622214 L128.84902127216742,208.38169237532495" stroke="#0d6d4d" stroke-width="0.1" fill="none" />
<path d="M-40.39150097487644,-241.64752564219762 L80.87562357746384,231.26636917406813" stroke="#0d6d4d" stroke-width="0.1" fill="none" />
<path d="M-37.888037119878476,-242.0526732824959 L29.095708630090645,243.26619111441045" stroke="#0d6d4d" stroke-width="0.1" fill="none" />
<path d="M-35.38051368975339,-242.43188579691653 L-24.053633988810912,243.81637084480673" stroke="#0d6d4d" stroke-width="0.1" fill="none" />
<path d="M-32.86919935716185,-242.78512255412016 L-76.07086078940151,232.89101343495307" stroke="#0d6d4d" stroke-width="0.1" fill="none" />
<path d="M-30.3543632009471,-243.11234570598216 L-124.50771279704912,211.00433515463024" stroke="#0d6d4d" stroke-width="0.1" fill="none" />
<path d="M-27.836274677303688,-243.41352019164776 L-167.08444607067,179.18646121082188" stroke="#0d6d4d" stroke-width="0.1" fill="none" />
<path d="M-25.3152035909072,-243.68861374128852 L-201.79713084008876,138.93494155434087" stroke="#0d6d4d" stroke-width="0.1" fill="none" />
<path d="M-22.791420066003212,-243.93759687956054 L-227.01196908785087,92.14426672808592" stroke="#0d6d4d" stroke-width="0.1" fill="none" />
<path d="M-20.26519451746724,-244.16044292876194 L-241.54219139484377,41.01670118593951" stroke="#0d6d4d" stroke-width="0.1" fill="none" />
<path d="M-17.736797621829353,-244.35712801169169 L-244.7039137988782,-12.041369170953068" stroke="#0d6d4d" stroke-width="0.1" fill="none" />
<path d="M-15.206500288270849,-244.5276310542079 L-236.34832568994898,-64.53269670142265" stroke="#0d6d4d" stroke-width="0.1" fill="none" />
<path d="M-12.67457362960003,-244.6719337874858 L-216.86869377668773,-113.98670825843354" stroke="#0d6d4d" stroke-width="0.1" fill="none" />
<path d="M-10.141288933201011,-244.7900207499753 L-187.18185247314344,-158.0757859532015" stroke="#0d6d4d" stroke-width="0.1" fill="none" />
<path d="M-7.606917631967278,-244.88187928905737 L-148.68505188510287,-194.7248195426671" stroke="#0d6d4d" stroke-width="0.1" fill="none" />
<path d="M-5.071731275218134,-244.94749956240005 L-103.19019440204976,-222.20887421358125" stroke="#0d6d4d" stroke-width="0.1" fill="none" />
<path d="M-2.536001499604198,-244.98687453901283 L-52.83855513577477,-239.23437690090378" stroke="#0d6d4d" stroke-width="0.1" fill="none" />
</svg>