<?xml version="1.0" encoding="UTF-8"?>
<svg xmlns="http://www.w3.org/2000/svg" xmlns:xlink="http://www.w3.org/1999/xlink"
     width="500.0" height="500" viewBox="-250.0 -250.0 500 500">
<defs>
</defs>
<circle cx="0" cy="0" r="245.0" fill="white" stroke-width="2" stroke="black" />
<path d="M0.0,-245.0 L0.0,-245.0" stroke="#0d6d4d" stroke-width="0.1" fill="none" />
<path d="M2.4828291144746806,-244.98741918634988 L51.74761037919381,-239.47272249682877" stroke="#0d6d4d" stroke-width="0.1" fill="none" />
<path d="M4.965403241109245,-244.94967803745564 L101.16033583845464,-223.14028424525023" stroke="#0d6d4d" stroke-width="0.1" fill="none" />
<path d="M7.44746741825096,-244.88678042935288 L146.00864294266944,-196.7396151923655" stroke="#0d6d4d" stroke-width="0.1" fill="none" />
<path d="M9.92876673661917,-244.79873282165863 L184.26894770071627,-161.4619302289883" stroke="#0d6d4d" stroke-width="0.1" fill="none" />
<path d="M12.409046365484615,-244.68554425690792 L214.2149209554226,-118.89898082011486" stroke="#0d6d4d" stroke-width="0.1" fill="none" />
<path d="M14.888051578840672,-244.54722635962523 L234.49538144734925,-70.97123417175558" stroke="#0d6d4d" stroke-width="0.1" fill="none" />
<path d="M17.36552778156386,-244.3837933351304 L244.19526196808002,-19.84122053556087" stroke="#0d6d4d" stroke-width="0.1" fill="none" />
<path d="M19.841220535560876,-244.19526196808002 L242.87689777160938,32.184041524320904" stroke="#0d6d4d" stroke-width="0.1" fill="none" />
<path d="M22.31487558589954,-243.98165162074343 L230.59977428458328,82.75713926845975" stroke="#0d6d4d" stroke-width="0.1" fill="none" />
<path d="M24.78623888692088,-243.7429842310143 L207.91784308621396,129.5961825301058" stroke="#0d6d4d" stroke-width="0.1" fill="none" />
<path d="M27.255056628329783,-243.47928431015757 L175.85452726255227,170.58776404321694" stroke="#0d6d4d" stroke-width="0.1" fill="none" />
<path d="M29.721075261261433,-243.19057894029206 L135.85654390934673,203.88231771541086" stroke="#0d6d4d" stroke-width="0.1" fill="none" />
<path d="M32.18404152432089,-242.87689777160938 L89.72862734137605,227.977572220235" stroke="#0d6d4d" stroke-width="0.1" fill="none" />
<path d="M34.64370246959321,-242.53827301932844 L39.552098338348856,241.78633442987132" stroke="#0d6d4d" stroke-width="0.1" fill="none" />
<path d="M37.09980548862128,-242.1747394603873 L-12.409046365484636,244.68554425690792" stroke="#0d6d4d" stroke-width="0.1" fill="none" />
<path d="M39.55209833834888,-241.78633442987132 L-63.81028704636506,236.5443875196799" stroke="#0d6d4d" stroke-width="0.1" fill="none" />
<path d="M42.00032916702615,-241.37309781717897 L-112.33236720428806,217.73019836090947" stroke="#0d6d4d" stroke-width="0.1" fill="none" />
<path d="M44.4442465400749,-240.9350720619251 L-155.78593988362974,189.09188489878167" stroke="#0d6d4d" stroke-width="0.1" fill="none" />
<path d="M46.88359946591107,-240.47230214958233 L-192.21035239293718,151.921625955566" stroke="#0d6d4d" stroke-width="0.1" fill="none" />
<path d="M49.318137421721715,-239.98483560686114 L-219.96211219483172,107.89656713162037" stroke="#0d6d4d" stroke-width="0.1" fill="none" />
<path d="M51.74761037919381,-239.47272249682877 L-237.78904232909738,59.00314693480956" stroke="#0d6d4d" stroke-width="0.1" fill="none" />
<path d="M54.17176883019226,-238.93601541376765 L-244.88678042935288,7.447467418250928" stroke="#0d6d4d" stroke-width="0.1" fill="none" />
<path d="M56.59036381238461,-238.37476947777412 L-240.9350720619251,-44.44424654007482" stroke="#0d6d4d" stroke-width="0.1" fill="none" />
<path d="M59.00314693480948,-237.7890423290974 L-226.1122208085151,-94.33060797557343" stroke="#0d6d4d" stroke-width="0.1" fill="none" />
<path d="M61.40987040338653,-237.17889412222004 L-201.08704309578275,-139.96071269822403" stroke="#0d6d4d" stroke-width="0.1" fill="none" />
<path d="M63.81028704636503,-236.54438751967993 L-166.9886907750295,-179.2757015137344" stroke="#0d6d4d" stroke-width="0.1" fill="none" />
<path d="M66.20415033970852,-235.88558768563473 L-125.35570307627769,-210.50165725298248" stroke="#0d6d4d" stroke-width="0.1" fill="none" />
<path d="M68.5912144324129,-235.20256227916983 L-78.0665867448096,-232.22964503700882" stroke="#0d6d4d" stroke-width="0.1" fill="none" />
<path d="M70.9712341717556,-234.49538144734925 L-27.255056628329854,-243.47928431015757" stroke="#0d6d4d" stroke-width="0.1" fill="none" />
<path d="M73.34396512847268,-233.76411781801195 L24.78623888692088,-243.7429842310143" stroke="#0d6d4d" stroke-width="0.1" fill="none" />
<path d="M75.70916362186212,-233.0088464923126 L75.70916362186212,-233.0088464923126" stroke="#0d6d4d" stroke-width="0.1" fill="none" />
<path d="M78.06658674480963,-232.2296450370088 L123.21604299459088,-211.7612021800857" stroke="#0d6d4d" stroke-width="0.1" fill="none" />
<path d="M80.41599238873565,-231.42659347649484 L165.1633365512071,-180.95875844863852" stroke="#0d6d4d" stroke-width="0.1" fill="none" />
<path d="M82.75713926845975,-230.59977428458328 L199.6583558672667,-141.99134104719164" stroke="#0d6d4d" stroke-width="0.1" fill="none" />
<path d="M85.08978694698096,-229.7492723760347 L225.1446638469565,-96.61718450276305" stroke="#0d6d4d" stroke-width="0.1" fill="none" />
<path d="M87.4136958601707,-228.87517509783706 L240.47230214958233,-46.88359946591107" stroke="#0d6d4d" stroke-width="0.1" fill="none" />
<path d="M89.72862734137607,-227.977572220235 L244.94967803745564,4.965403241109196" stroke="#0d6d4d" stroke-width="0.1" fill="none" />
<path d="M92.03434364593113,-227.05655592751037 L238.37476947777412,56.59036381238462" stroke="#0d6d4d" stroke-width="0.1" fill="none" />
<path d="M94.3306079755734,-226.1122208085151 L221.04424050455683,105.66193136491329" stroke="#0d6d4d" stroke-width="0.1" fill="none" />
<path d="M96.61718450276305,-225.1446638469565 L193.74005554973616,149.96596572417738" stroke="#0d6d4d" stroke-width="0.1" fill="none" />
<path d="M98.89383839490267,-224.1539844114373 L157.69419671325667,187.50344082965705" stroke="#0d6d4d" stroke-width="0.1" fill="none" />
<path d="M101.16033583845464,-223.14028424525023 L114.53307595127644,216.58064205542274" stroke="#0d6d4d" stroke-width="0.1" fill="none" />
<path d="M103.41644406295383,-222.1036674559291 L66.2041503397085,235.88558768563476" stroke="#0d6d4d" stroke-width="0.1" fill="none" />
<path d="M105.66193136491327,-221.04424050455683 L14.888051578840766,244.54722635962523" stroke="#0d6d4d" stroke-width="0.1" fill="none" />
<path d="M107.8965671316204,-219.96211219483172 L-37.09980548862119,242.17473946038731" stroke="#0d6d4d" stroke-width="0.1" fill="none" />
<path d="M110.12012186482083,-218.85739366189347 L-87.41369586017062,228.87517509783711" stroke="#0d6d4d" stroke-width="0.1" fill="none" />
<path d="M112.33236720428813,-217.73019836090947 L-133.78342496970401,205.2486180303672" stroke="#0d6d4d" stroke-width="0.1" fill="none" />
<path d="M114.53307595127646,-216.58064205542274 L-174.11676130264752,172.3611134608873" stroke="#0d6d4d" stroke-width="0.1" fill="none" />
<path d="M116.72202209185402,-215.40884280546317 L-206.59383920560614,131.69656640280397" stroke="#0d6d4d" stroke-width="0.1" fill="none" />
<path d="M118.89898082011486,-214.2149209554226 L-229.74927237603467,85.08978694698105" stroke="#0d6d4d" stroke-width="0.1" fill="none" />
<path d="M121.06372856126639,-212.99899912169542 L-242.53827301932844,34.64370246959319" stroke="#0d6d4d" stroke-width="0.1" fill="none" />
<path d="M123.21604299459088,-211.7612021800857 L-244.38379333513043,-17.36552778156378" stroke="#0d6d4d" stroke-width="0.1" fill="none" />
<path d="M125.35570307627763,-210.50165725298248 L-235.2025622791698,-68.59121443241294" stroke="#0d6d4d" stroke-width="0.1" fill="none" />
<path d="M127.48248906212454,-209.2204936963043 L-215.4088428054632,-116.72202209185396" stroke="#0d6d4d" stroke-width="0.1" fill="none" />
<path d="M129.5961825301058,-207.91784308621396 L-185.89574005973375,-159.58625826694444" stroke="#0d6d4d" stroke-width="0.1" fill="none" />
<path d="M131.69656640280397,-206.59383920560614 L-147.99490391018782,-195.24986150216415" stroke="#0d6d4d" stroke-width="0.1" fill="none" />
<path d="M133.783424969704,-205.2486180303672 L-103.41644406295379,-222.10366745592913" stroke="#0d6d4d" stroke-width="0.1" fill="none" />
<path d="M135.85654390934675,-203.88231771541084 L-54.17176883019234,-238.93601541376762" stroke="#0d6d4d" stroke-width="0.1" fill="none" />
<path d="M137.9157103113399,-202.49507858048938 L-2.4828291144746424,-244.98741918634988" stroke="#0d6d4d" stroke-width="0.1" fill="none" />
<path d="M139.96071269822409,-201.08704309578272 L49.318137421721715,-239.98483560686114" stroke="#0d6d4d" stroke-width="0.1" fill="none" />
<path d="M141.9913410471916,-199.65835586726672 L98.89383839490267,-224.1539844114373" stroke="#0d6d4d" stroke-width="0.1" fill="none" />
<path d="M144.00738681165592,-198.20916362186213 L144.00738681165592,-198.20916362186213" stroke="#0d6d4d" stroke-width="0.1" fill="none" />
<path d="M146.00864294266944,-196.7396151923655 L182.6232308250251,-163.3210199669032" stroke="#0d6d4d" stroke-width="0.1" fill="none" />
<path d="M147.99490391018773,-195.24986150216418 L212.99899912169542,-121.06372856126642" stroke="#0d6d4d" stroke-width="0.1" fill="none" />
<path d="M149.96596572417738,-193.74005554973616 L233.76411781801195,-73.34396512847275" stroke="#0d6d4d" stroke-width="0.1" fill="none" />
<path d="M151.92162595556593,-192.2103523929372 L243.98165162074343,-22.314875585899593" stroke="#0d6d4d" stroke-width="0.1" fill="none" />
<path d="M153.86168375703144,-190.66090913307647 L243.19057894029206,29.721075261261436" stroke="#0d6d4d" stroke-width="0.1" fill="none" />
<path d="M155.78593988362974,-189.0918848987817 L231.42659347649484,80.41599238873565" stroke="#0d6d4d" stroke-width="0.1" fill="none" />
<path d="M157.69419671325667,-187.50344082965705 L209.2204936963043,127.48248906212454" stroke="#0d6d4d" stroke-width="0.1" fill="none" />
<path d="M159.58625826694444,-185.89574005973378 L177.5742328711344,168.7968951735432" stroke="#0d6d4d" stroke-width="0.1" fill="none" />
<path d="M161.4619302289883,-184.26894770071627 L137.9157103113399,202.49507858048938" stroke="#0d6d4d" stroke-width="0.1" fill="none" />
<path d="M163.3210199669032,-182.6232308250251 L92.03434364593113,227.05655592751037" stroke="#0d6d4d" stroke-width="0.1" fill="none" />
<path d="M165.1633365512071,-180.95875844863852 L42.00032916702625,241.37309781717897" stroke="#0d6d4d" stroke-width="0.1" fill="none" />
<path d="M166.9886907750295,-179.27570151373436 L-9.928766736619073,244.79873282165863" stroke="#0d6d4d" stroke-width="0.1" fill="none" />
<path d="M168.7968951735432,-177.5742328711344 L-61.40987040338645,237.17889412222007" stroke="#0d6d4d" stroke-width="0.1" fill="none" />
<path d="M170.5877640432169,-175.8545272625523 L-110.12012186482085,218.85739366189347" stroke="#0d6d4d" stroke-width="0.1" fill="none" />
<path d="M172.36111346088725,-174.11676130264757 L-153.8616837570314,190.66090913307653" stroke="#0d6d4d" stroke-width="0.1" fill="none" />
<path d="M174.11676130264755,-172.36111346088725 L-190.66090913307647,153.86168375703144" stroke="#0d6d4d" stroke-width="0.1" fill="none" />
<path d="M175.85452726255227,-170.58776404321694 L-218.8573936618934,110.12012186482092" stroke="#0d6d4d" stroke-width="0.1" fill="none" />
<path d="M177.57423287113437,-168.79689517354322 L-237.17889412222004,61.4098704033865" stroke="#0d6d4d" stroke-width="0.1" fill="none" />
<path d="M179.2757015137343,-166.98869077502954 L-244.79873282165863,9.928766736619258" stroke="#0d6d4d" stroke-width="0.1" fill="none" />
<path d="M180.9587584486385,-165.16333655120712 L-241.37309781717897,-42.00032916702617" stroke="#0d6d4d" stroke-width="0.1" fill="none" />
<path d="M182.6232308250251,-163.3210199669032 L-227.05655592751043,-92.03434364593106" stroke="#0d6d4d" stroke-width="0.1" fill="none" />
<path d="M184.26894770071627,-161.4619302289883 L-202.49507858048938,-137.91571031133992" stroke="#0d6d4d" stroke-width="0.1" fill="none" />
<path d="M185.89574005973375,-159.58625826694444 L-168.79689517354325,-177.57423287113434" stroke="#0d6d4d" stroke-width="0.1" fill="none" />
<path d="M187.50344082965702,-157.6941967132567 L-127.48248906212451,-209.2204936963043" stroke="#0d6d4d" stroke-width="0.1" fill="none" />
<path d="M189.09188489878167,-155.78593988362974 L-80.41599238873572,-231.42659347649484" stroke="#0d6d4d" stroke-width="0.1" fill="none" />
<path d="M190.66090913307642,-153.8616837570315 L-29.72107526126162,-243.19057894029206" stroke="#0d6d4d" stroke-width="0.1" fill="none" />
<path d="M192.2103523929372,-151.92162595556593 L22.31487558589954,-243.98165162074343" stroke="#0d6d4d" stroke-width="0.1" fill="none" />
<path d="M193.74005554973616,-149.9659657241774 L73.34396512847268,-233.76411781801195" stroke="#0d6d4d" stroke-width="0.1" fill="none" />
<path d="M195.24986150216418,-147.99490391018776 L121.06372856126639,-212.99899912169542" stroke="#0d6d4d" stroke-width="0.1" fill="none" />
<path d="M196.73961519236548,-146.00864294266947 L163.3210199669032,-182.6232308250251" stroke="#0d6d4d" stroke-width="0.1" fill="none" />
<path d="M198.2091636218621,-144.00738681165595 L198.2091636218621,-144.00738681165595" stroke="#0d6d4d" stroke-width="0.1" fill="none" />
<path d="M199.6583558672667,-141.99134104719164 L224.1539844114373,-98.89383839490269" stroke="#0d6d4d" stroke-width="0.1" fill="none" />
<path d="M201.0870430957827,-139.9607126982241 L239.98483560686114,-49.31813742172172" stroke="#0d6d4d" stroke-width="0.1" fill="none" />
<path d="M202.49507858048938,-137.91571031133992 L244.98741918634988,2.4828291144746766" stroke="#0d6d4d" stroke-width="0.1" fill="none" />
<path d="M203.88231771541084,-135.85654390934678 L238.93601541376765,54.17176883019227" stroke="#0d6d4d" stroke-width="0.1" fill="none" />
<path d="M205.2486180303672,-133.78342496970404 L222.1036674559291,103.41644406295383" stroke="#0d6d4d" stroke-width="0.1" fill="none" />
<path d="M206.59383920560612,-131.696566402804 L195.24986150216418,147.99490391018773" stroke="#0d6d4d" stroke-width="0.1" fill="none" />
<path d="M207.91784308621396,-129.5961825301058 L159.5862582669445,185.8957400597337" stroke="#0d6d4d" stroke-width="0.1" fill="none" />
<path d="M209.2204936963043,-127.48248906212454 L116.72202209185413,215.4088428054631" stroke="#0d6d4d" stroke-width="0.1" fill="none" />
<path d="M210.50165725298248,-125.35570307627766 L68.59121443241301,235.2025622791698" stroke="#0d6d4d" stroke-width="0.1" fill="none" />
<path d="M211.7612021800857,-123.21604299459091 L17.365527781563962,244.3837933351304" stroke="#0d6d4d" stroke-width="0.1" fill="none" />
<path d="M212.99899912169542,-121.06372856126642 L-34.64370246959311,242.53827301932847" stroke="#0d6d4d" stroke-width="0.1" fill="none" />
<path d="M214.2149209554226,-118.89898082011486 L-85.08978694698098,229.7492723760347" stroke="#0d6d4d" stroke-width="0.1" fill="none" />
<path d="M215.40884280546317,-116.72202209185402 L-131.69656640280388,206.59383920560617" stroke="#0d6d4d" stroke-width="0.1" fill="none" />
<path d="M216.58064205542271,-114.53307595127647 L-172.36111346088725,174.11676130264755" stroke="#0d6d4d" stroke-width="0.1" fill="none" />
<path d="M217.73019836090944,-112.33236720428815 L-205.24861803036714,133.7834249697041" stroke="#0d6d4d" stroke-width="0.1" fill="none" />
<path d="M218.85739366189347,-110.12012186482085 L-228.8751750978371,87.41369586017069" stroke="#0d6d4d" stroke-width="0.1" fill="none" />
<path d="M219.96211219483172,-107.8965671316204 L-242.1747394603873,37.09980548862138" stroke="#0d6d4d" stroke-width="0.1" fill="none" />
<path d="M221.04424050455683,-105.66193136491327 L-244.54722635962523,-14.888051578840692" stroke="#0d6d4d" stroke-width="0.1" fill="none" />
<path d="M222.1036674559291,-103.41644406295384 L-235.88558768563476,-66.20415033970843" stroke="#0d6d4d" stroke-width="0.1" fill="none" />
<path d="M223.14028424525023,-101.16033583845466 L-216.58064205542271,-114.53307595127647" stroke="#0d6d4d" stroke-width="0.1" fill="none" />
<path d="M224.1539844114373,-98.89383839490269 L-187.5034408296571,-157.69419671325662" stroke="#0d6d4d" stroke-width="0.1" fill="none" />
<path d="M225.1446638469565,-96.61718450276305 L-149.96596572417738,-193.74005554973616" stroke="#0d6d4d" stroke-width="0.1" fill="none" />
<path d="M226.1122208085151,-94.33060797557339 L-105.66193136491336,-221.0442405045568" stroke="#0d6d4d" stroke-width="0.1" fill="none" />
<path d="M227.05655592751037,-92.03434364593117 L-56.590363812384794,-238.37476947777407" stroke="#0d6d4d" stroke-width="0.1" fill="none" />
<path d="M227.977572220235,-89.72862734137608 L-4.9654032411093265,-244.94967803745564" stroke="#0d6d4d" stroke-width="0.1" fill="none" />
<path d="M228.87517509783706,-87.41369586017072 L46.88359946591107,-240.47230214958233" stroke="#0d6d4d" stroke-width="0.1" fill="none" />
<path d="M229.7492723760347,-85.08978694698102 L96.61718450276305,-225.1446638469565" stroke="#0d6d4d" stroke-width="0.1" fill="none" />
<path d="M230.59977428458328,-82.75713926845974 L141.9913410471916,-199.65835586726672" stroke="#0d6d4d" stroke-width="0.1" fill="none" />
<path d="M231.42659347649484,-80.41599238873567 L180.9587584486385,-165.16333655120712" stroke="#0d6d4d" stroke-width="0.1" fill="none" />
<path d="M232.2296450370088,-78.06658674480965 L211.7612021800857,-123.21604299459091" stroke="#0d6d4d" stroke-width="0.1" fill="none" />
<path d="M233.0088464923126,-75.70916362186213 L233.0088464923126,-75.70916362186213" stroke="#0d6d4d" stroke-width="0.1" fill="none" />
<path d="M233.76411781801195,-73.34396512847275 L243.7429842310143,-24.78623888692089" stroke="#0d6d4d" stroke-width="0.1" fill="none" />
<path d="M234.49538144734925,-70.97123417175558 L243.47928431015757,27.255056628329836" stroke="#0d6d4d" stroke-width="0.1" fill="none" />
<path d="M235.20256227916983,-68.59121443241288 L232.2296450370088,78.06658674480968" stroke="#0d6d4d" stroke-width="0.1" fill="none" />
<path d="M235.88558768563473,-66.20415033970853 L210.5016572529825,125.3557030762776" stroke="#0d6d4d" stroke-width="0.1" fill="none" />
<path d="M236.5443875196799,-63.81028704636505 L179.27570151373442,166.98869077502943" stroke="#0d6d4d" stroke-width="0.1" fill="none" />
<path d="M237.17889412222004,-61.40987040338653 L139.9607126982242,201.08704309578263" stroke="#0d6d4d" stroke-width="0.1" fill="none" />
<path d="M237.7890423290974,-59.00314693480947 L94.3306079755735,226.11222080851508" stroke="#0d6d4d" stroke-width="0.1" fill="none" />
<path d="M238.37476947777412,-56.590363812384595 L44.44424654007501,240.93507206192507" stroke="#0d6d4d" stroke-width="0.1" fill="none" />
<path d="M238.93601541376765,-54.17176883019229 L-7.447467418250853,244.88678042935288" stroke="#0d6d4d" stroke-width="0.1" fill="none" />
<path d="M239.47272249682874,-51.74761037919382 L-59.003146934809486,237.7890423290974" stroke="#0d6d4d" stroke-width="0.1" fill="none" />
<path d="M239.98483560686114,-49.31813742172172 L-107.89656713162032,219.96211219483175" stroke="#0d6d4d" stroke-width="0.1" fill="none" />
<path d="M240.47230214958233,-46.88359946591107 L-151.92162595556593,192.2103523929372" stroke="#0d6d4d" stroke-width="0.1" fill="none" />
<path d="M240.9350720619251,-44.444246540074886 L-189.09188489878161,155.7859398836298" stroke="#0d6d4d" stroke-width="0.1" fill="none" />
<path d="M241.37309781717897,-42.00032916702618 L-217.73019836090947,112.33236720428812" stroke="#0d6d4d" stroke-width="0.1" fill="none" />
<path d="M241.78633442987132,-39.5520983383489 L-236.5443875196799,63.81028704636513" stroke="#0d6d4d" stroke-width="0.1" fill="none" />
<path d="M242.1747394603873,-37.09980548862129 L-244.68554425690792,12.409046365484603" stroke="#0d6d4d" stroke-width="0.1" fill="none" />
<path d="M242.53827301932844,-34.64370246959326 L-241.78633442987135,-39.55209833834879" stroke="#0d6d4d" stroke-width="0.1" fill="none" />
<path d="M242.87689777160938,-32.184041524320875 L-227.977572220235,-89.72862734137608" stroke="#0d6d4d" stroke-width="0.1" fill="none" />
<path d="M243.19057894029206,-29.721075261261465 L-203.88231771541092,-135.85654390934667" stroke="#0d6d4d" stroke-width="0.1" fill="none" />
<path d="M243.47928431015757,-27.255056628329807 L-170.5877640432169,-175.8545272625523" stroke="#0d6d4d" stroke-width="0.1" fill="none" />
<path d="M243.7429842310143,-24.78623888692089 L-129.59618253010586,-207.91784308621394" stroke="#0d6d4d" stroke-width="0.1" fill="none" />
<path d="M243.98165162074343,-22.314875585899593 L-82.75713926845992,-230.59977428458322" stroke="#0d6d4d" stroke-width="0.1" fill="none" />
<path d="M244.19526196808002,-19.84122053556087 L-32.18404152432098,-242.87689777160935" stroke="#0d6d4d" stroke-width="0.1" fill="none" />
<path d="M244.38379333513043,-17.365527781563838 L19.841220535560876,-244.19526196808002" stroke="#0d6d4d" stroke-width="0.1" fill="none" />
<path d="M244.54722635962523,-14.888051578840697 L70.9712341717556,-234.49538144734925" stroke="#0d6d4d" stroke-width="0.1" fill="none" />
<path d="M244.68554425690792,-12.409046365484627 L118.89898082011486,-214.2149209554226" stroke="#0d6d4d" stroke-width="0.1" fill="none" />
<path d="M244.79873282165863,-9.928766736619174 L161.4619302289883,-184.26894770071627" stroke="#0d6d4d" stroke-width="0.1" fill="none" />
<path d="M244.88678042935288,-7.447467418251007 L196.73961519236548,-146.00864294266947" stroke="#0d6d4d" stroke-width="0.1" fill="none" />
<path d="M244.94967803745564,-4.965403241109227 L223.14028424525023,-101.16033583845466" stroke="#0d6d4d" stroke-width="0.1" fill="none" />
<path d="M244.98741918634988,-2.4828291144747063 L239.47272249682874,-51.74761037919382" stroke="#0d6d4d" stroke-width="0.1" fill="none" />
<path d="M245.0,-1.5001923289555078e-14 L245.0,-1.5001923289555078e-14" stroke="#0d6d4d" stroke-width="0.1" fill="none" />
<path d="M244.98741918634988,2.4828291144746766 L239.47272249682877,51.747610379193745" stroke="#0d6d4d" stroke-width="0.1" fill="none" />
<path d="M244.94967803745564,4.965403241109196 L223.14028424525026,101.16033583845459" stroke="#0d6d4d" stroke-width="0.1" fill="none" />
<path d="M244.88678042935288,7.447467418250977 L196.7396151923655,146.00864294266944" stroke="#0d6d4d" stroke-width="0.1" fill="none" />
<path d="M244.79873282165863,9.928766736619142 L161.4619302289883,184.26894770071627" stroke="#0d6d4d" stroke-width="0.1" fill="none" />
<path d="M244.68554425690792,12.409046365484597 L118.89898082011486,214.2149209554226" stroke="#0d6d4d" stroke-width="0.1" fill="none" />
<path d="M244.54722635962523,14.888051578840665 L70.9712341717556,234.49538144734925" stroke="#0d6d4d" stroke-width="0.1" fill="none" />
<path d="M244.38379333513043,17.36552778156381 L19.841220535560883,244.19526196808002" stroke="#0d6d4d" stroke-width="0.1" fill="none" />
<path d="M244.19526196808002,19.84122053556084 L-32.18404152432089,242.87689777160938" stroke="#0d6d4d" stroke-width="0.1" fill="none" />
<path d="M243.98165162074343,22.314875585899514 L-82.75713926845975,230.59977428458328" stroke="#0d6d4d" stroke-width="0.1" fill="none" />
<path d="M243.7429842310143,24.78623888692081 L-129.5961825301058,207.91784308621396" stroke="#0d6d4d" stroke-width="0.1" fill="none" />
<path d="M243.47928431015757,27.255056628329836 L-170.58776404321685,175.85452726255238" stroke="#0d6d4d" stroke-width="0.1" fill="none" />
<path d="M243.19057894029206,29.721075261261436 L-203.88231771541084,135.85654390934675" stroke="#0d6d4d" stroke-width="0.1" fill="none" />
<path d="M242.87689777160938,32.184041524320904 L-227.97757222023495,89.72862734137617" stroke="#0d6d4d" stroke-width="0.1" fill="none" />
<path d="M242.53827301932844,34.64370246959323 L-241.78633442987132,39.55209833834888" stroke="#0d6d4d" stroke-width="0.1" fill="none" />
<path d="M242.1747394603873,37.099805488621264 L-244.68554425690795,-12.409046365484514" stroke="#0d6d4d" stroke-width="0.1" fill="none" />
<path d="M241.78633442987132,39.55209833834887 L-236.5443875196799,-63.81028704636505" stroke="#0d6d4d" stroke-width="0.1" fill="none" />
<path d="M241.37309781717897,42.00032916702615 L-217.73019836090947,-112.33236720428805" stroke="#0d6d4d" stroke-width="0.1" fill="none" />
<path d="M240.9350720619251,44.44424654007486 L-189.09188489878184,-155.78593988362957" stroke="#0d6d4d" stroke-width="0.1" fill="none" />
<path d="M240.47230214958236,46.88359946591104 L-151.921625955566,-192.21035239293718" stroke="#0d6d4d" stroke-width="0.1" fill="none" />
<path d="M239.98483560686117,49.318137421721644 L-107.89656713162059,-219.9621121948316" stroke="#0d6d4d" stroke-width="0.1" fill="none" />
<path d="M239.47272249682877,51.747610379193745 L-59.00314693480957,-237.78904232909738" stroke="#0d6d4d" stroke-width="0.1" fill="none" />
<path d="M238.93601541376765,54.17176883019227 L-7.44746741825116,-244.88678042935288" stroke="#0d6d4d" stroke-width="0.1" fill="none" />
<path d="M238.37476947777412,56.59036381238462 L44.4442465400749,-240.9350720619251" stroke="#0d6d4d" stroke-width="0.1" fill="none" />
<path d="M237.7890423290974,59.0031469348095 L94.3306079755734,-226.1122208085151" stroke="#0d6d4d" stroke-width="0.1" fill="none" />
<path d="M237.17889412222004,61.4098704033865 L139.96071269822409,-201.08704309578272" stroke="#0d6d4d" stroke-width="0.1" fill="none" />
<path d="M236.54438751967993,63.81028704636502 L179.2757015137343,-166.98869077502954" stroke="#0d6d4d" stroke-width="0.1" fill="none" />
<path d="M235.88558768563473,66.20415033970852 L210.50165725298248,-125.35570307627766" stroke="#0d6d4d" stroke-width="0.1" fill="none" />
<path d="M235.20256227916983,68.59121443241285 L232.2296450370088,-78.06658674480965" stroke="#0d6d4d" stroke-width="0.1" fill="none" />
<path d="M234.49538144734927,70.97123417175555 L243.47928431015757,-27.255056628329807" stroke="#0d6d4d" stroke-width="0.1" fill="none" />
<path d="M233.76411781801198,73.34396512847268 L243.7429842310143,24.78623888692081" stroke="#0d6d4d" stroke-width="0.1" fill="none" />
<path d="M233.00884649231264,75.70916362186206 L233.00884649231264,75.70916362186206" stroke="#0d6d4d" stroke-width="0.1" fill="none" />
<path d="M232.2296450370088,78.06658674480968 L211.76120218008572,123.21604299459085" stroke="#0d6d4d" stroke-width="0.1" fill="none" />
<path d="M231.42659347649484,80.41599238873565 L180.95875844863852,165.1633365512071" stroke="#0d6d4d" stroke-width="0.1" fill="none" />
<path d="M230.59977428458328,82.75713926845975 L141.99134104719164,199.6583558672667" stroke="#0d6d4d" stroke-width="0.1" fill="none" />
<path d="M229.7492723760347,85.089786946981 L96.61718450276305,225.1446638469565" stroke="#0d6d4d" stroke-width="0.1" fill="none" />
<path d="M228.8751750978371,87.41369586017069 L46.88359946591108,240.47230214958233" stroke="#0d6d4d" stroke-width="0.1" fill="none" />
<path d="M227.977572220235,89.72862734137605 L-4.965403241109236,244.94967803745564" stroke="#0d6d4d" stroke-width="0.1" fill="none" />
<path d="M227.0565559275104,92.03434364593109 L-56.59036381238461,238.37476947777412" stroke="#0d6d4d" stroke-width="0.1" fill="none" />
<path d="M226.1122208085151,94.33060797557336 L-105.66193136491329,221.04424050455683" stroke="#0d6d4d" stroke-width="0.1" fill="none" />
<path d="M225.14466384695652,96.61718450276302 L-149.96596572417738,193.74005554973616" stroke="#0d6d4d" stroke-width="0.1" fill="none" />
<path d="M224.15398441143734,98.89383839490262 L-187.50344082965702,157.6941967132567" stroke="#0d6d4d" stroke-width="0.1" fill="none" />
<path d="M223.14028424525026,101.16033583845459 L-216.5806420554227,114.53307595127656" stroke="#0d6d4d" stroke-width="0.1" fill="none" />
<path d="M222.1036674559291,103.41644406295383 L-235.88558768563473,66.20415033970852" stroke="#0d6d4d" stroke-width="0.1" fill="none" />
<path d="M221.04424050455683,105.66193136491329 L-244.54722635962523,14.88805157884078" stroke="#0d6d4d" stroke-width="0.1" fill="none" />
<path d="M219.9621121948317,107.89656713162043 L-242.17473946038731,-37.099805488621065" stroke="#0d6d4d" stroke-width="0.1" fill="none" />
<path d="M218.85739366189344,110.12012186482086 L-228.87517509783711,-87.4136958601706" stroke="#0d6d4d" stroke-width="0.1" fill="none" />
<path d="M217.73019836090944,112.33236720428816 L-205.24861803036734,-133.78342496970382" stroke="#0d6d4d" stroke-width="0.1" fill="none" />
<path d="M216.58064205542274,114.5330759512764 L-172.3611134608873,-174.11676130264752" stroke="#0d6d4d" stroke-width="0.1" fill="none" />
<path d="M215.4088428054632,116.72202209185399 L-131.69656640280417,-206.59383920560603" stroke="#0d6d4d" stroke-width="0.1" fill="none" />
<path d="M214.21492095542263,118.89898082011482 L-85.08978694698106,-229.74927237603467" stroke="#0d6d4d" stroke-width="0.1" fill="none" />
<path d="M212.99899912169545,121.06372856126636 L-34.643702469593414,-242.53827301932841" stroke="#0d6d4d" stroke-width="0.1" fill="none" />
<path d="M211.76120218008572,123.21604299459085 L17.36552778156386,-244.3837933351304" stroke="#0d6d4d" stroke-width="0.1" fill="none" />
<path d="M210.5016572529825,125.3557030762776 L68.5912144324129,-235.20256227916983" stroke="#0d6d4d" stroke-width="0.1" fill="none" />
<path d="M209.2204936963043,127.48248906212454 L116.72202209185402,-215.40884280546317" stroke="#0d6d4d" stroke-width="0.1" fill="none" />
<path d="M207.91784308621396,129.5961825301058 L159.58625826694444,-185.89574005973378" stroke="#0d6d4d" stroke-width="0.1" fill="none" />
<path d="M206.59383920560612,131.696566402804 L195.24986150216418,-147.99490391018776" stroke="#0d6d4d" stroke-width="0.1" fill="none" />
<path d="M205.2486180303672,133.78342496970401 L222.1036674559291,-103.41644406295384" stroke="#0d6d4d" stroke-width="0.1" fill="none" />
<path d="M203.8823177154109,135.85654390934667 L238.93601541376765,-54.17176883019229" stroke="#0d6d4d" stroke-width="0.1" fill="none" />
<path d="M202.49507858048943,137.91571031133984 L244.98741918634988,-2.4828291144747063" stroke="#0d6d4d" stroke-width="0.1" fill="none" />
<path d="M201.08704309578272,139.96071269822406 L239.98483560686117,49.318137421721644" stroke="#0d6d4d" stroke-width="0.1" fill="none" />
<path d="M199.65835586726675,141.99134104719158 L224.15398441143734,98.89383839490262" stroke="#0d6d4d" stroke-width="0.1" fill="none" />
<path d="M198.20916362186213,144.0073868116559 L198.20916362186213,144.0073868116559" stroke="#0d6d4d" stroke-width="0.1" fill="none" />
<path d="M196.7396151923655,146.00864294266944 L163.32101996690324,182.6232308250251" stroke="#0d6d4d" stroke-width="0.1" fill="none" />
<path d="M195.24986150216418,147.99490391018773 L121.06372856126642,212.99899912169542" stroke="#0d6d4d" stroke-width="0.1" fill="none" />
<path d="M193.74005554973616,149.96596572417738 L73.3439651284727,233.76411781801195" stroke="#0d6d4d" stroke-width="0.1" fill="none" />
<path d="M192.2103523929372,151.92162595556593 L22.314875585899557,243.98165162074343" stroke="#0d6d4d" stroke-width="0.1" fill="none" />
<path d="M190.66090913307644,153.86168375703147 L-29.721075261261422,243.19057894029206" stroke="#0d6d4d" stroke-width="0.1" fill="none" />
<path d="M189.09188489878176,155.78593988362968 L-80.41599238873573,231.42659347649484" stroke="#0d6d4d" stroke-width="0.1" fill="none" />
<path d="M187.50344082965708,157.69419671325664 L-127.48248906212454,209.2204936963043" stroke="#0d6d4d" stroke-width="0.1" fill="none" />
<path d="M185.8957400597338,159.5862582669444 L-168.7968951735432,177.5742328711344" stroke="#0d6d4d" stroke-width="0.1" fill="none" />
<path d="M184.26894770071632,161.46193022898828 L-202.49507858048932,137.91571031134" stroke="#0d6d4d" stroke-width="0.1" fill="none" />
<path d="M182.62323082502513,163.3210199669032 L-227.05655592751037,92.03434364593114" stroke="#0d6d4d" stroke-width="0.1" fill="none" />
<path d="M180.95875844863852,165.1633365512071 L-241.37309781717894,42.00032916702627" stroke="#0d6d4d" stroke-width="0.1" fill="none" />
<path d="M179.27570151373442,166.98869077502943 L-244.79873282165863,-9.92876673661895" stroke="#0d6d4d" stroke-width="0.1" fill="none" />
<path d="M177.5742328711344,168.7968951735432 L-237.17889412222007,-61.409870403386435" stroke="#0d6d4d" stroke-width="0.1" fill="none" />
<path d="M175.85452726255227,170.58776404321694 L-218.85739366189355,-110.12012186482065" stroke="#0d6d4d" stroke-width="0.1" fill="none" />
<path d="M174.11676130264755,172.36111346088725 L-190.66090913307653,-153.86168375703136" stroke="#0d6d4d" stroke-width="0.1" fill="none" />
<path d="M172.36111346088722,174.11676130264757 L-153.8616837570316,-190.66090913307633" stroke="#0d6d4d" stroke-width="0.1" fill="none" />
<path d="M170.58776404321696,175.85452726255224 L-110.12012186482093,-218.8573936618934" stroke="#0d6d4d" stroke-width="0.1" fill="none" />
<path d="M168.79689517354325,177.57423287113434 L-61.40987040338673,-237.17889412222" stroke="#0d6d4d" stroke-width="0.1" fill="none" />
<path d="M166.98869077502954,179.2757015137343 L-9.928766736619272,-244.79873282165863" stroke="#0d6d4d" stroke-width="0.1" fill="none" />
<path d="M165.16333655120712,180.9587584486385 L42.00032916702615,-241.37309781717897" stroke="#0d6d4d" stroke-width="0.1" fill="none" />
<path d="M163.32101996690324,182.6232308250251 L92.03434364593113,-227.05655592751037" stroke="#0d6d4d" stroke-width="0.1" fill="none" />
<path d="M161.4619302289883,184.26894770071627 L137.9157103113399,-202.49507858048938" stroke="#0d6d4d" stroke-width="0.1" fill="none" />
<path d="M159.5862582669445,185.8957400597337 L177.57423287113437,-168.79689517354322" stroke="#0d6d4d" stroke-width="0.1" fill="none" />
<path d="M157.69419671325667,187.50344082965705 L209.2204936963043,-127.48248906212454" stroke="#0d6d4d" stroke-width="0.1" fill="none" />
<path d="M155.7859398836297,189.09188489878173 L231.42659347649484,-80.41599238873567" stroke="#0d6d4d" stroke-width="0.1" fill="none" />
<path d="M153.86168375703141,190.66090913307647 L243.19057894029206,-29.721075261261465" stroke="#0d6d4d" stroke-width="0.1" fill="none" />
<path d="M151.921625955566,192.2103523929372 L243.98165162074343,22.314875585899514" stroke="#0d6d4d" stroke-width="0.1" fill="none" />
<path d="M149.96596572417744,193.74005554973613 L233.76411781801198,73.34396512847268" stroke="#0d6d4d" stroke-width="0.1" fill="none" />
<path d="M147.9949039101878,195.24986150216415 L212.99899912169545,121.06372856126636" stroke="#0d6d4d" stroke-width="0.1" fill="none" />
<path d="M146.00864294266947,196.73961519236548 L182.62323082502513,163.3210199669032" stroke="#0d6d4d" stroke-width="0.1" fill="none" />
<path d="M144.00738681165595,198.2091636218621 L144.00738681165595,198.2091636218621" stroke="#0d6d4d" stroke-width="0.1" fill="none" />
<path d="M141.99134104719164,199.6583558672667 L98.8938383949027,224.15398441143728" stroke="#0d6d4d" stroke-width="0.1" fill="none" />
<path d="M139.9607126982242,201.08704309578263 L49.31813742172174,239.98483560686114" stroke="#0d6d4d" stroke-width="0.1" fill="none" />
<path d="M137.9157103113399,202.49507858048938 L-2.482829114474661,244.98741918634988" stroke="#0d6d4d" stroke-width="0.1" fill="none" />
<path d="M135.85654390934673,203.88231771541086 L-54.17176883019236,238.93601541376762" stroke="#0d6d4d" stroke-width="0.1" fill="none" />
<path d="M133.783424969704,205.24861803036723 L-103.41644406295381,222.1036674559291" stroke="#0d6d4d" stroke-width="0.1" fill="none" />
<path d="M131.69656640280394,206.59383920560614 L-147.99490391018784,195.24986150216412" stroke="#0d6d4d" stroke-width="0.1" fill="none" />
<path d="M129.59618253010584,207.91784308621394 L-185.89574005973367,159.58625826694453" stroke="#0d6d4d" stroke-width="0.1" fill="none" />
<path d="M127.48248906212459,209.22049369630426 L-215.40884280546317,116.72202209185403" stroke="#0d6d4d" stroke-width="0.1" fill="none" />
<path d="M125.35570307627766,210.50165725298248 L-235.20256227916977,68.59121443241303" stroke="#0d6d4d" stroke-width="0.1" fill="none" />
<path d="M123.21604299459091,211.7612021800857 L-244.3837933351304,17.365527781564086" stroke="#0d6d4d" stroke-width="0.1" fill="none" />
<path d="M121.06372856126642,212.99899912169542 L-242.53827301932847,-34.64370246959309" stroke="#0d6d4d" stroke-width="0.1" fill="none" />
<path d="M118.89898082011486,214.2149209554226 L-229.74927237603478,-85.08978694698077" stroke="#0d6d4d" stroke-width="0.1" fill="none" />
<path d="M116.72202209185413,215.4088428054631 L-206.5938392056062,-131.69656640280385" stroke="#0d6d4d" stroke-width="0.1" fill="none" />
<path d="M114.53307595127644,216.58064205542274 L-174.11676130264772,-172.3611134608871" stroke="#0d6d4d" stroke-width="0.1" fill="none" />
<path d="M112.3323672042881,217.73019836090947 L-133.7834249697041,-205.24861803036714" stroke="#0d6d4d" stroke-width="0.1" fill="none" />
<path d="M110.1201218648208,218.85739366189347 L-87.4136958601709,-228.875175097837" stroke="#0d6d4d" stroke-width="0.1" fill="none" />
<path d="M107.89656713162047,219.9621121948317 L-37.09980548862139,-242.1747394603873" stroke="#0d6d4d" stroke-width="0.1" fill="none" />
<path d="M105.66193136491333,221.0442405045568 L14.888051578840672,-244.54722635962523" stroke="#0d6d4d" stroke-width="0.1" fill="none" />
<path d="M103.41644406295384,222.1036674559291 L66.20415033970852,-235.88558768563473" stroke="#0d6d4d" stroke-width="0.1" fill="none" />
<path d="M101.16033583845467,223.14028424525023 L114.53307595127646,-216.58064205542274" stroke="#0d6d4d" stroke-width="0.1" fill="none" />
<path d="M98.8938383949027,224.15398441143728 L157.69419671325667,-187.50344082965705" stroke="#0d6d4d" stroke-width="0.1" fill="none" />
<path d="M96.61718450276305,225.1446638469565 L193.74005554973616,-149.9659657241774" stroke="#0d6d4d" stroke-width="0.1" fill="none" />
<path d="M94.3306079755735,226.11222080851508 L221.04424050455683,-105.66193136491327" stroke="#0d6d4d" stroke-width="0.1" fill="none" />
<path d="M92.03434364593113,227.05655592751037 L238.37476947777412,-56.590363812384595" stroke="#0d6d4d" stroke-width="0.1" fill="none" />
<path d="M89.72862734137605,227.977572220235 L244.94967803745564,-4.965403241109227" stroke="#0d6d4d" stroke-width="0.1" fill="none" />
<path d="M87.41369586017068,228.8751750978371 L240.47230214958236,46.88359946591104" stroke="#0d6d4d" stroke-width="0.1" fill="none" />
<path d="M85.08978694698092,229.74927237603472 L225.14466384695652,96.61718450276302" stroke="#0d6d4d" stroke-width="0.1" fill="none" />
<path d="M82.7571392684598,230.59977428458325 L199.65835586726675,141.99134104719158" stroke="#0d6d4d" stroke-width="0.1" fill="none" />
<path d="M80.41599238873569,231.42659347649484 L165.16333655120712,180.9587584486385" stroke="#0d6d4d" stroke-width="0.1" fill="none" />
<path d="M78.06658674480967,232.2296450370088 L123.21604299459091,211.7612021800857" stroke="#0d6d4d" stroke-width="0.1" fill="none" />
<path d="M75.70916362186215,233.0088464923126 L75.70916362186215,233.0088464923126" stroke="#0d6d4d" stroke-width="0.1" fill="none" />
<path d="M73.3439651284727,233.76411781801195 L24.78623888692091,243.7429842310143" stroke="#0d6d4d" stroke-width="0.1" fill="none" />
<path d="M70.9712341717556,234.49538144734925 L-27.255056628329765,243.47928431015757" stroke="#0d6d4d" stroke-width="0.1" fill="none" />
<path d="M68.59121443241301,235.2025622791698 L-78.06658674480961,232.2296450370088" stroke="#0d6d4d" stroke-width="0.1" fill="none" />
<path d="M66.2041503397085,235.88558768563476 L-125.35570307627772,210.50165725298245" stroke="#0d6d4d" stroke-width="0.1" fill="none" />
<path d="M63.810287046365005,236.54438751967993 L-166.9886907750295,179.27570151373436" stroke="#0d6d4d" stroke-width="0.1" fill="none" />
<path d="M61.40987040338649,237.17889412222004 L-201.0870430957827,139.96071269822414" stroke="#0d6d4d" stroke-width="0.1" fill="none" />
<path d="M59.003146934809536,237.78904232909738 L-226.11222080851508,94.3306079755735" stroke="#0d6d4d" stroke-width="0.1" fill="none" />
<path d="M56.59036381238466,238.37476947777412 L-240.93507206192504,44.444246540075135" stroke="#0d6d4d" stroke-width="0.1" fill="none" />
<path d="M54.171768830192306,238.93601541376765 L-244.88678042935288,-7.447467418250838" stroke="#0d6d4d" stroke-width="0.1" fill="none" />
<path d="M51.74761037919384,239.47272249682874 L-237.78904232909747,-59.00314693480925" stroke="#0d6d4d" stroke-width="0.1" fill="none" />
<path d="M49.31813742172174,239.98483560686114 L-219.96211219483178,-107.8965671316203" stroke="#0d6d4d" stroke-width="0.1" fill="none" />
<path d="M46.88359946591108,240.47230214958233 L-192.21035239293738,-151.92162595556576" stroke="#0d6d4d" stroke-width="0.1" fill="none" />
<path d="M44.44424654007501,240.93507206192507 L-155.7859398836298,-189.09188489878161" stroke="#0d6d4d" stroke-width="0.1" fill="none" />
<path d="M42.00032916702625,241.37309781717897 L-112.33236720428832,-217.73019836090936" stroke="#0d6d4d" stroke-width="0.1" fill="none" />
<path d="M39.552098338348856,241.78633442987132 L-63.81028704636514,-236.54438751967987" stroke="#0d6d4d" stroke-width="0.1" fill="none" />
<path d="M37.09980548862125,242.1747394603873 L-12.409046365484835,-244.68554425690792" stroke="#0d6d4d" stroke-width="0.1" fill="none" />
<path d="M34.643702469593165,242.53827301932844 L39.55209833834888,-241.78633442987132" stroke="#0d6d4d" stroke-width="0.1" fill="none" />
<path d="M32.184041524320946,242.87689777160935 L89.72862734137607,-227.977572220235" stroke="#0d6d4d" stroke-width="0.1" fill="none" />
<path d="M29.721075261261483,243.19057894029206 L135.85654390934675,-203.88231771541084" stroke="#0d6d4d" stroke-width="0.1" fill="none" />
<path d="M27.255056628329825,243.47928431015757 L175.85452726255227,-170.58776404321694" stroke="#0d6d4d" stroke-width="0.1" fill="none" />
<path d="M24.78623888692091,243.7429842310143 L207.91784308621396,-129.5961825301058" stroke="#0d6d4d" stroke-width="0.1" fill="none" />
<path d="M22.314875585899557,243.98165162074343 L230.59977428458328,-82.75713926845974" stroke="#0d6d4d" stroke-width="0.1" fill="none" />
<path d="M19.841220535560883,244.19526196808002 L242.87689777160938,-32.184041524320875" stroke="#0d6d4d" stroke-width="0.1" fill="none" />
<path d="M17.365527781563962,244.3837933351304 L244.19526196808002,19.84122053556084" stroke="#0d6d4d" stroke-width="0.1" fill="none" />
<path d="M14.888051578840766,244.54722635962523 L234.49538144734927,70.97123417175555" stroke="#0d6d4d" stroke-width="0.1" fill="none" />
<path d="M12.409046365484588,244.68554425690792 L214.21492095542263,118.89898082011482" stroke="#0d6d4d" stroke-width="0.1" fill="none" />
<path d="M9.928766736619135,244.79873282165863 L184.26894770071632,161.46193022898828" stroke="#0d6d4d" stroke-width="0.1" fill="none" />
<path d="M7.447467418251021,244.88678042935288 L146.00864294266947,196.73961519236548" stroke="#0d6d4d" stroke-width="0.1" fill="none" />
<path d="M4.965403241109295,244.94967803745564 L101.16033583845467,223.14028424525023" stroke="#0d6d4d" stroke-width="0.1" fill="none" />
<path d="M2.4828291144747214,244.98741918634988 L51.74761037919384,239.47272249682874" stroke="#0d6d4d" stroke-width="0.1" fill="none" />
<path d="M3.0003846579110155e-14,245.0 L3.0003846579110155e-14,245.0" stroke="#0d6d4d" stroke-width="0.1" fill="none" />
<path d="M-2.482829114474661,244.98741918634988 L-51.74761037919378,239.47272249682877" stroke="#0d6d4d" stroke-width="0.1" fill="none" />
<path d="M-4.965403241109236,244.94967803745564 L-101.16033583845451,223.14028424525029" stroke="#0d6d4d" stroke-width="0.1" fill="none" />
<path d="M-7.447467418250853,244.88678042935288 L-146.00864294266944,196.7396151923655" stroke="#0d6d4d" stroke-width="0.1" fill="none" />
<path d="M-9.928766736619073,244.79873282165863 L-184.26894770071618,161.46193022898842" stroke="#0d6d4d" stroke-width="0.1" fill="none" />
<path d="M-12.409046365484636,244.68554425690792 L-214.21492095542257,118.89898082011497" stroke="#0d6d4d" stroke-width="0.1" fill="none" />
<path d="M-14.888051578840704,244.54722635962523 L-234.49538144734925,70.97123417175561" stroke="#0d6d4d" stroke-width="0.1" fill="none" />
<path d="M-17.3655277815639,244.3837933351304 L-244.19526196808002,19.841220535561007" stroke="#0d6d4d" stroke-width="0.1" fill="none" />
<path d="M-19.841220535560822,244.19526196808002 L-242.87689777160938,-32.18404152432087" stroke="#0d6d4d" stroke-width="0.1" fill="none" />
<path d="M-22.314875585899497,243.98165162074343 L-230.59977428458333,-82.75713926845962" stroke="#0d6d4d" stroke-width="0.1" fill="none" />
<path d="M-24.78623888692085,243.7429842310143 L-207.917843086214,-129.59618253010578" stroke="#0d6d4d" stroke-width="0.1" fill="none" />
<path d="M-27.255056628329765,243.47928431015757 L-175.85452726255238,-170.58776404321682" stroke="#0d6d4d" stroke-width="0.1" fill="none" />
<path d="M-29.721075261261422,243.19057894029206 L-135.85654390934675,-203.88231771541084" stroke="#0d6d4d" stroke-width="0.1" fill="none" />
<path d="M-32.18404152432089,242.87689777160938 L-89.72862734137618,-227.97757222023495" stroke="#0d6d4d" stroke-width="0.1" fill="none" />
<path d="M-34.64370246959311,242.53827301932847 L-39.55209833834889,-241.78633442987132" stroke="#0d6d4d" stroke-width="0.1" fill="none" />
<path d="M-37.09980548862119,242.17473946038731 L12.409046365484615,-244.68554425690792" stroke="#0d6d4d" stroke-width="0.1" fill="none" />
<path d="M-39.55209833834881,241.78633442987132 L63.81028704636503,-236.54438751967993" stroke="#0d6d4d" stroke-width="0.1" fill="none" />
<path d="M-42.000329167026194,241.37309781717897 L112.33236720428813,-217.73019836090947" stroke="#0d6d4d" stroke-width="0.1" fill="none" />
<path d="M-44.44424654007484,240.9350720619251 L155.78593988362974,-189.0918848987817" stroke="#0d6d4d" stroke-width="0.1" fill="none" />
<path d="M-46.883599465911026,240.47230214958236 L192.2103523929372,-151.92162595556593" stroke="#0d6d4d" stroke-width="0.1" fill="none" />
<path d="M-49.31813742172158,239.98483560686117 L219.96211219483172,-107.8965671316204" stroke="#0d6d4d" stroke-width="0.1" fill="none" />
<path d="M-51.74761037919378,239.47272249682877 L237.7890423290974,-59.00314693480947" stroke="#0d6d4d" stroke-width="0.1" fill="none" />
<path d="M-54.17176883019236,238.93601541376762 L244.88678042935288,-7.447467418251007" stroke="#0d6d4d" stroke-width="0.1" fill="none" />
<path d="M-56.59036381238461,238.37476947777412 L240.9350720619251,44.44424654007486" stroke="#0d6d4d" stroke-width="0.1" fill="none" />
<path d="M-59.003146934809486,237.7890423290974 L226.1122208085151,94.33060797557336" stroke="#0d6d4d" stroke-width="0.1" fill="none" />
<path d="M-61.40987040338645,237.17889412222007 L201.08704309578272,139.96071269822406" stroke="#0d6d4d" stroke-width="0.1" fill="none" />
<path d="M-63.81028704636506,236.5443875196799 L166.98869077502954,179.2757015137343" stroke="#0d6d4d" stroke-width="0.1" fill="none" />
<path d="M-66.20415033970845,235.88558768563476 L125.35570307627766,210.50165725298248" stroke="#0d6d4d" stroke-width="0.1" fill="none" />
<path d="M-68.59121443241295,235.2025622791698 L78.06658674480967,232.2296450370088" stroke="#0d6d4d" stroke-width="0.1" fill="none" />
<path d="M-70.97123417175554,234.49538144734927 L27.255056628329825,243.47928431015757" stroke="#0d6d4d" stroke-width="0.1" fill="none" />
<path d="M-73.34396512847266,233.76411781801198 L-24.78623888692085,243.7429842310143" stroke="#0d6d4d" stroke-width="0.1" fill="none" />
<path d="M-75.70916362186199,233.00884649231267 L-75.70916362186199,233.00884649231267" stroke="#0d6d4d" stroke-width="0.1" fill="none" />
<path d="M-78.06658674480961,232.2296450370088 L-123.21604299459085,211.76120218008572" stroke="#0d6d4d" stroke-width="0.1" fill="none" />
<path d="M-80.41599238873573,231.42659347649484 L-165.163336551207,180.9587584486386" stroke="#0d6d4d" stroke-width="0.1" fill="none" />
<path d="M-82.75713926845975,230.59977428458328 L-199.65835586726675,141.99134104719155" stroke="#0d6d4d" stroke-width="0.1" fill="none" />
<path d="M-85.08978694698098,229.7492723760347 L-225.1446638469565,96.61718450276307" stroke="#0d6d4d" stroke-width="0.1" fill="none" />
<path d="M-87.41369586017062,228.87517509783711 L-240.4723021495823,46.88359946591121" stroke="#0d6d4d" stroke-width="0.1" fill="none" />
<path d="M-89.7286273413761,227.97757222023498 L-244.94967803745564,-4.965403241109221" stroke="#0d6d4d" stroke-width="0.1" fill="none" />
<path d="M-92.03434364593107,227.0565559275104 L-238.37476947777415,-56.59036381238448" stroke="#0d6d4d" stroke-width="0.1" fill="none" />
<path d="M-94.33060797557334,226.1122208085151 L-221.04424050455683,-105.66193136491327" stroke="#0d6d4d" stroke-width="0.1" fill="none" />
<path d="M-96.61718450276291,225.14466384695655 L-193.7400555497362,-149.96596572417727" stroke="#0d6d4d" stroke-width="0.1" fill="none" />
<path d="M-98.89383839490266,224.1539844114373 L-157.6941967132567,-187.50344082965702" stroke="#0d6d4d" stroke-width="0.1" fill="none" />
<path d="M-101.16033583845451,223.14028424525029 L-114.53307595127657,-216.58064205542266" stroke="#0d6d4d" stroke-width="0.1" fill="none" />
<path d="M-103.41644406295381,222.1036674559291 L-66.20415033970852,-235.88558768563473" stroke="#0d6d4d" stroke-width="0.1" fill="none" />
<path d="M-105.66193136491329,221.04424050455683 L-14.888051578840795,-244.54722635962523" stroke="#0d6d4d" stroke-width="0.1" fill="none" />
<path d="M-107.89656713162032,219.96211219483175 L37.09980548862128,-242.1747394603873" stroke="#0d6d4d" stroke-width="0.1" fill="none" />
<path d="M-110.12012186482085,218.85739366189347 L87.4136958601707,-228.87517509783706" stroke="#0d6d4d" stroke-width="0.1" fill="none" />
<path d="M-112.33236720428806,217.73019836090947 L133.783424969704,-205.2486180303672" stroke="#0d6d4d" stroke-width="0.1" fill="none" />
<path d="M-114.53307595127649,216.58064205542271 L174.11676130264755,-172.36111346088725" stroke="#0d6d4d" stroke-width="0.1" fill="none" />
<path d="M-116.72202209185397,215.4088428054632 L206.59383920560612,-131.696566402804" stroke="#0d6d4d" stroke-width="0.1" fill="none" />
<path d="M-118.89898082011482,214.21492095542263 L229.7492723760347,-85.08978694698102" stroke="#0d6d4d" stroke-width="0.1" fill="none" />
<path d="M-121.06372856126627,212.9989991216955 L242.53827301932844,-34.64370246959326" stroke="#0d6d4d" stroke-width="0.1" fill="none" />
<path d="M-123.21604299459085,211.76120218008572 L244.38379333513043,17.36552778156381" stroke="#0d6d4d" stroke-width="0.1" fill="none" />
<path d="M-125.35570307627772,210.50165725298245 L235.20256227916983,68.59121443241285" stroke="#0d6d4d" stroke-width="0.1" fill="none" />
<path d="M-127.48248906212454,209.2204936963043 L215.4088428054632,116.72202209185399" stroke="#0d6d4d" stroke-width="0.1" fill="none" />
<path d="M-129.5961825301058,207.91784308621396 L185.8957400597338,159.5862582669444" stroke="#0d6d4d" stroke-width="0.1" fill="none" />
<path d="M-131.69656640280388,206.59383920560617 L147.9949039101878,195.24986150216415" stroke="#0d6d4d" stroke-width="0.1" fill="none" />
<path d="M-133.78342496970401,205.2486180303672 L103.41644406295384,222.1036674559291" stroke="#0d6d4d" stroke-width="0.1" fill="none" />
<path d="M-135.85654390934667,203.8823177154109 L54.171768830192306,238.93601541376765" stroke="#0d6d4d" stroke-width="0.1" fill="none" />
<path d="M-137.91571031133995,202.49507858048935 L2.4828291144747214,244.98741918634988" stroke="#0d6d4d" stroke-width="0.1" fill="none" />
<path d="M-139.96071269822406,201.08704309578272 L-49.31813742172158,239.98483560686117" stroke="#0d6d4d" stroke-width="0.1" fill="none" />
<path d="M-141.99134104719158,199.65835586726675 L-98.89383839490266,224.1539844114373" stroke="#0d6d4d" stroke-width="0.1" fill="none" />
<path d="M-144.0073868116558,198.20916362186222 L-144.0073868116558,198.20916362186222" stroke="#0d6d4d" stroke-width="0.1" fill="none" />
<path d="M-146.00864294266944,196.7396151923655 L-182.62323082502508,163.32101996690326" stroke="#0d6d4d" stroke-width="0.1" fill="none" />
<path d="M-147.99490391018784,195.24986150216412 L-212.9989991216954,121.06372856126643" stroke="#0d6d4d" stroke-width="0.1" fill="none" />
<path d="M-149.96596572417738,193.74005554973616 L-233.76411781801198,73.34396512847262" stroke="#0d6d4d" stroke-width="0.1" fill="none" />
<path d="M-151.92162595556593,192.2103523929372 L-243.98165162074343,22.31487558589957" stroke="#0d6d4d" stroke-width="0.1" fill="none" />
<path d="M-153.8616837570314,190.66090913307653 L-243.19057894029206,-29.721075261261515" stroke="#0d6d4d" stroke-width="0.1" fill="none" />
<path d="M-155.78593988362974,189.09188489878167 L-231.42659347649484,-80.41599238873562" stroke="#0d6d4d" stroke-width="0.1" fill="none" />
<path d="M-157.69419671325664,187.50344082965708 L-209.22049369630423,-127.48248906212461" stroke="#0d6d4d" stroke-width="0.1" fill="none" />
<path d="M-159.58625826694447,185.89574005973373 L-177.5742328711344,-168.79689517354316" stroke="#0d6d4d" stroke-width="0.1" fill="none" />
<path d="M-161.46193022898828,184.26894770071632 L-137.91571031133984,-202.49507858048943" stroke="#0d6d4d" stroke-width="0.1" fill="none" />
<path d="M-163.3210199669032,182.62323082502513 L-92.03434364593116,-227.05655592751037" stroke="#0d6d4d" stroke-width="0.1" fill="none" />
<path d="M-165.163336551207,180.9587584486386 L-42.00032916702607,-241.373097817179" stroke="#0d6d4d" stroke-width="0.1" fill="none" />
<path d="M-166.9886907750295,179.27570151373436 L9.92876673661917,-244.79873282165863" stroke="#0d6d4d" stroke-width="0.1" fill="none" />
<path d="M-168.7968951735432,177.5742328711344 L61.40987040338653,-237.17889412222004" stroke="#0d6d4d" stroke-width="0.1" fill="none" />
<path d="M-170.58776404321685,175.85452726255238 L110.12012186482083,-218.85739366189347" stroke="#0d6d4d" stroke-width="0.1" fill="none" />
<path d="M-172.36111346088725,174.11676130264755 L153.86168375703144,-190.66090913307647" stroke="#0d6d4d" stroke-width="0.1" fill="none" />
<path d="M-174.11676130264752,172.3611134608873 L190.66090913307642,-153.8616837570315" stroke="#0d6d4d" stroke-width="0.1" fill="none" />
<path d="M-175.8545272625523,170.5877640432169 L218.85739366189347,-110.12012186482085" stroke="#0d6d4d" stroke-width="0.1" fill="none" />
<path d="M-177.57423287113434,168.79689517354325 L237.17889412222004,-61.40987040338653" stroke="#0d6d4d" stroke-width="0.1" fill="none" />
<path d="M-179.2757015137343,166.98869077502954 L244.79873282165863,-9.928766736619174" stroke="#0d6d4d" stroke-width="0.1" fill="none" />
<path d="M-180.95875844863838,165.16333655120724 L241.37309781717897,42.00032916702615" stroke="#0d6d4d" stroke-width="0.1" fill="none" />
<path d="M-182.62323082502508,163.32101996690326 L227.0565559275104,92.03434364593109" stroke="#0d6d4d" stroke-width="0.1" fill="none" />
<path d="M-184.26894770071618,161.46193022898842 L202.49507858048943,137.91571031133984" stroke="#0d6d4d" stroke-width="0.1" fill="none" />
<path d="M-185.89574005973367,159.58625826694453 L168.79689517354325,177.57423287113434" stroke="#0d6d4d" stroke-width="0.1" fill="none" />
<path d="M-187.50344082965702,157.6941967132567 L127.48248906212459,209.22049369630426" stroke="#0d6d4d" stroke-width="0.1" fill="none" />
<path d="M-189.09188489878161,155.7859398836298 L80.41599238873569,231.42659347649484" stroke="#0d6d4d" stroke-width="0.1" fill="none" />
<path d="M-190.66090913307647,153.86168375703144 L29.721075261261483,243.19057894029206" stroke="#0d6d4d" stroke-width="0.1" fill="none" />
<path d="M-192.21035239293718,151.921625955566 L-22.314875585899497,243.98165162074343" stroke="#0d6d4d" stroke-width="0.1" fill="none" />
<path d="M-193.74005554973616,149.96596572417738 L-73.34396512847266,233.76411781801198" stroke="#0d6d4d" stroke-width="0.1" fill="none" />
<path d="M-195.24986150216415,147.99490391018782 L-121.06372856126627,212.9989991216955" stroke="#0d6d4d" stroke-width="0.1" fill="none" />
<path d="M-196.73961519236553,146.00864294266944 L-163.3210199669032,182.62323082502513" stroke="#0d6d4d" stroke-width="0.1" fill="none" />
<path d="M-198.2091636218621,144.00738681165595 L-198.2091636218621,144.00738681165595" stroke="#0d6d4d" stroke-width="0.1" fill="none" />
<path d="M-199.65835586726675,141.99134104719155 L-224.15398441143734,98.89383839490262" stroke="#0d6d4d" stroke-width="0.1" fill="none" />
<path d="M-201.0870430957827,139.96071269822414 L-239.98483560686114,49.31813742172176" stroke="#0d6d4d" stroke-width="0.1" fill="none" />
<path d="M-202.49507858048932,137.91571031134 L-244.98741918634988,-2.482829114474755" stroke="#0d6d4d" stroke-width="0.1" fill="none" />
<path d="M-203.88231771541084,135.85654390934675 L-238.93601541376765,-54.171768830192235" stroke="#0d6d4d" stroke-width="0.1" fill="none" />
<path d="M-205.24861803036714,133.7834249697041 L-222.10366745592907,-103.41644406295389" stroke="#0d6d4d" stroke-width="0.1" fill="none" />
<path d="M-206.59383920560614,131.69656640280397 L-195.2498615021642,-147.99490391018773" stroke="#0d6d4d" stroke-width="0.1" fill="none" />
<path d="M-207.91784308621394,129.59618253010586 L-159.58625826694438,-185.8957400597338" stroke="#0d6d4d" stroke-width="0.1" fill="none" />
<path d="M-209.2204936963043,127.48248906212451 L-116.72202209185404,-215.40884280546317" stroke="#0d6d4d" stroke-width="0.1" fill="none" />
<path d="M-210.50165725298248,125.35570307627769 L-68.59121443241281,-235.20256227916985" stroke="#0d6d4d" stroke-width="0.1" fill="none" />
<path d="M-211.76120218008575,123.21604299459082 L-17.365527781563884,-244.3837933351304" stroke="#0d6d4d" stroke-width="0.1" fill="none" />
<path d="M-212.9989991216954,121.06372856126643 L34.64370246959321,-242.53827301932844" stroke="#0d6d4d" stroke-width="0.1" fill="none" />
<path d="M-214.21492095542257,118.89898082011497 L85.08978694698096,-229.7492723760347" stroke="#0d6d4d" stroke-width="0.1" fill="none" />
<path d="M-215.40884280546317,116.72202209185403 L131.69656640280397,-206.59383920560614" stroke="#0d6d4d" stroke-width="0.1" fill="none" />
<path d="M-216.5806420554227,114.53307595127656 L172.36111346088725,-174.11676130264757" stroke="#0d6d4d" stroke-width="0.1" fill="none" />
<path d="M-217.73019836090947,112.33236720428812 L205.2486180303672,-133.78342496970404" stroke="#0d6d4d" stroke-width="0.1" fill="none" />
<path d="M-218.8573936618934,110.12012186482092 L228.87517509783706,-87.41369586017072" stroke="#0d6d4d" stroke-width="0.1" fill="none" />
<path d="M-219.96211219483172,107.89656713162037 L242.1747394603873,-37.09980548862129" stroke="#0d6d4d" stroke-width="0.1" fill="none" />
<path d="M-221.0442405045568,105.66193136491334 L244.54722635962523,14.888051578840665" stroke="#0d6d4d" stroke-width="0.1" fill="none" />
<path d="M-222.10366745592913,103.41644406295377 L235.88558768563473,66.20415033970852" stroke="#0d6d4d" stroke-width="0.1" fill="none" />
<path d="M-223.14028424525023,101.16033583845469 L216.58064205542274,114.5330759512764" stroke="#0d6d4d" stroke-width="0.1" fill="none" />
<path d="M-224.15398441143734,98.89383839490262 L187.50344082965708,157.69419671325664" stroke="#0d6d4d" stroke-width="0.1" fill="none" />
<path d="M-225.1446638469565,96.61718450276307 L149.96596572417744,193.74005554973613" stroke="#0d6d4d" stroke-width="0.1" fill="none" />
<path d="M-226.11222080851508,94.3306079755735 L105.66193136491333,221.0442405045568" stroke="#0d6d4d" stroke-width="0.1" fill="none" />
<path d="M-227.05655592751037,92.03434364593114 L56.59036381238466,238.37476947777412" stroke="#0d6d4d" stroke-width="0.1" fill="none" />
<path d="M-227.97757222023495,89.72862734137617 L4.965403241109295,244.94967803745564" stroke="#0d6d4d" stroke-width="0.1" fill="none" />
<path d="M-228.8751750978371,87.41369586017069 L-46.883599465911026,240.47230214958236" stroke="#0d6d4d" stroke-width="0.1" fill="none" />
<path d="M-229.74927237603467,85.08978694698105 L-96.61718450276291,225.14466384695655" stroke="#0d6d4d" stroke-width="0.1" fill="none" />
<path d="M-230.5997742845833,82.75713926845971 L-141.99134104719158,199.65835586726675" stroke="#0d6d4d" stroke-width="0.1" fill="none" />
<path d="M-231.42659347649484,80.4159923887357 L-180.95875844863838,165.16333655120724" stroke="#0d6d4d" stroke-width="0.1" fill="none" />
<path d="M-232.22964503700882,78.06658674480958 L-211.76120218008575,123.21604299459082" stroke="#0d6d4d" stroke-width="0.1" fill="none" />
<path d="M-233.0088464923126,75.70916362186215 L-233.0088464923126,75.70916362186215" stroke="#0d6d4d" stroke-width="0.1" fill="none" />
<path d="M-233.76411781801198,73.34396512847262 L-243.7429842310143,24.786238886920813" stroke="#0d6d4d" stroke-width="0.1" fill="none" />
<path d="M-234.49538144734925,70.97123417175561 L-243.47928431015757,-27.255056628329754" stroke="#0d6d4d" stroke-width="0.1" fill="none" />
<path d="M-235.20256227916977,68.59121443241303 L-232.2296450370088,-78.06658674480971" stroke="#0d6d4d" stroke-width="0.1" fill="none" />
<path d="M-235.88558768563473,66.20415033970852 L-210.50165725298254,-125.35570307627758" stroke="#0d6d4d" stroke-width="0.1" fill="none" />
<path d="M-236.5443875196799,63.81028704636513 L-179.2757015137343,-166.98869077502954" stroke="#0d6d4d" stroke-width="0.1" fill="none" />
<path d="M-237.17889412222004,61.4098704033865 L-139.96071269822414,-201.0870430957827" stroke="#0d6d4d" stroke-width="0.1" fill="none" />
<path d="M-237.78904232909738,59.00314693480956 L-94.33060797557332,-226.11222080851513" stroke="#0d6d4d" stroke-width="0.1" fill="none" />
<path d="M-238.37476947777412,56.590363812384574 L-44.44424654007493,-240.9350720619251" stroke="#0d6d4d" stroke-width="0.1" fill="none" />
<path d="M-238.93601541376762,54.17176883019233 L7.44746741825096,-244.88678042935288" stroke="#0d6d4d" stroke-width="0.1" fill="none" />
<path d="M-239.47272249682877,51.74761037919375 L59.00314693480948,-237.7890423290974" stroke="#0d6d4d" stroke-width="0.1" fill="none" />
<path d="M-239.98483560686114,49.31813742172176 L107.8965671316204,-219.96211219483172" stroke="#0d6d4d" stroke-width="0.1" fill="none" />
<path d="M-240.4723021495823,46.88359946591121 L151.92162595556593,-192.2103523929372" stroke="#0d6d4d" stroke-width="0.1" fill="none" />
<path d="M-240.93507206192504,44.444246540075135 L189.09188489878167,-155.78593988362974" stroke="#0d6d4d" stroke-width="0.1" fill="none" />
<path d="M-241.37309781717894,42.00032916702627 L217.73019836090944,-112.33236720428815" stroke="#0d6d4d" stroke-width="0.1" fill="none" />
<path d="M-241.78633442987132,39.55209833834888 L236.5443875196799,-63.81028704636505" stroke="#0d6d4d" stroke-width="0.1" fill="none" />
<path d="M-242.1747394603873,37.09980548862138 L244.68554425690792,-12.409046365484627" stroke="#0d6d4d" stroke-width="0.1" fill="none" />
<path d="M-242.53827301932844,34.64370246959319 L241.78633442987132,39.55209833834887" stroke="#0d6d4d" stroke-width="0.1" fill="none" />
<path d="M-242.87689777160935,32.18404152432097 L227.977572220235,89.72862734137605" stroke="#0d6d4d" stroke-width="0.1" fill="none" />
<path d="M-243.19057894029208,29.721075261261387 L203.8823177154109,135.85654390934667" stroke="#0d6d4d" stroke-width="0.1" fill="none" />
<path d="M-243.47928431015757,27.255056628329836 L170.58776404321696,175.85452726255224" stroke="#0d6d4d" stroke-width="0.1" fill="none" />
<path d="M-243.7429842310143,24.786238886920813 L129.59618253010584,207.91784308621394" stroke="#0d6d4d" stroke-width="0.1" fill="none" />
<path d="M-243.98165162074343,22.31487558589957 L82.7571392684598,230.59977428458325" stroke="#0d6d4d" stroke-width="0.1" fill="none" />
<path d="M-244.19526196808002,19.841220535561007 L32.184041524320946,242.87689777160935" stroke="#0d6d4d" stroke-width="0.1" fill="none" />
<path d="M-244.3837933351304,17.365527781564086 L-19.841220535560822,244.19526196808002" stroke="#0d6d4d" stroke-width="0.1" fill="none" />
<path d="M-244.54722635962523,14.88805157884078 L-70.97123417175554,234.49538144734927" stroke="#0d6d4d" stroke-width="0.1" fill="none" />
<path d="M-244.68554425690792,12.409046365484603 L-118.89898082011482,214.21492095542263" stroke="#0d6d4d" stroke-width="0.1" fill="none" />
<path d="M-244.79873282165863,9.928766736619258 L-161.46193022898828,184.26894770071632" stroke="#0d6d4d" stroke-width="0.1" fill="none" />
<path d="M-244.88678042935288,7.447467418250928 L-196.73961519236553,146.00864294266944" stroke="#0d6d4d" stroke-width="0.1" fill="none" />
<path d="M-244.94967803745564,4.9654032411093105 L-223.14028424525023,101.16033583845469" stroke="#0d6d4d" stroke-width="0.1" fill="none" />
<path d="M-244.98741918634988,2.4828291144746277 L-239.47272249682877,51.74761037919375" stroke="#0d6d4d" stroke-width="0.1" fill="none" />
<path d="M-245.0,4.500576986866523e-14 L-245.0,4.500576986866523e-14" stroke="#0d6d4d" stroke-width="0.1" fill="none" />
<path d="M-244.98741918634988,-2.482829114474755 L-239.47272249682874,-51.74761037919387" stroke="#0d6d4d" stroke-width="0.1" fill="none" />
<path d="M-244.94967803745564,-4.965403241109221 L-223.14028424525026,-101.16033583845461" stroke="#0d6d4d" stroke-width="0.1" fill="none" />
<path d="M-244.88678042935288,-7.447467418250838 L-196.73961519236545,-146.0086429426695" stroke="#0d6d4d" stroke-width="0.1" fill="none" />
<path d="M-244.79873282165863,-9.92876673661895 L-161.46193022898834,-184.26894770071627" stroke="#0d6d4d" stroke-width="0.1" fill="none" />
<path d="M-244.68554425690795,-12.409046365484514 L-118.89898082011479,-214.21492095542266" stroke="#0d6d4d" stroke-width="0.1" fill="none" />
<path d="M-244.54722635962523,-14.888051578840692 L-70.97123417175563,-234.49538144734925" stroke="#0d6d4d" stroke-width="0.1" fill="none" />
<path d="M-244.38379333513043,-17.36552778156378 L-19.841220535560804,-244.19526196808002" stroke="#0d6d4d" stroke-width="0.1" fill="none" />
<path d="M-244.19526196808002,-19.841220535560918 L32.18404152432089,-242.87689777160938" stroke="#0d6d4d" stroke-width="0.1" fill="none" />
<path d="M-243.98165162074343,-22.314875585899483 L82.75713926845975,-230.59977428458328" stroke="#0d6d4d" stroke-width="0.1" fill="none" />
<path d="M-243.7429842310143,-24.78623888692094 L129.5961825301058,-207.91784308621396" stroke="#0d6d4d" stroke-width="0.1" fill="none" />
<path d="M-243.47928431015757,-27.255056628329754 L170.5877640432169,-175.8545272625523" stroke="#0d6d4d" stroke-width="0.1" fill="none" />
<path d="M-243.19057894029206,-29.721075261261515 L203.88231771541084,-135.85654390934678" stroke="#0d6d4d" stroke-width="0.1" fill="none" />
<path d="M-242.87689777160938,-32.18404152432087 L227.977572220235,-89.72862734137608" stroke="#0d6d4d" stroke-width="0.1" fill="none" />
<path d="M-242.53827301932847,-34.64370246959309 L241.78633442987132,-39.5520983383489" stroke="#0d6d4d" stroke-width="0.1" fill="none" />
<path d="M-242.17473946038731,-37.099805488621065 L244.68554425690792,12.409046365484597" stroke="#0d6d4d" stroke-width="0.1" fill="none" />
<path d="M-241.78633442987135,-39.55209833834879 L236.54438751967993,63.81028704636502" stroke="#0d6d4d" stroke-width="0.1" fill="none" />
<path d="M-241.37309781717897,-42.00032916702617 L217.73019836090944,112.33236720428816" stroke="#0d6d4d" stroke-width="0.1" fill="none" />
<path d="M-240.9350720619251,-44.44424654007482 L189.09188489878176,155.78593988362968" stroke="#0d6d4d" stroke-width="0.1" fill="none" />
<path d="M-240.47230214958233,-46.88359946591111 L151.921625955566,192.2103523929372" stroke="#0d6d4d" stroke-width="0.1" fill="none" />
<path d="M-239.98483560686117,-49.318137421721666 L107.89656713162047,219.9621121948317" stroke="#0d6d4d" stroke-width="0.1" fill="none" />
<path d="M-239.47272249682874,-51.74761037919387 L59.003146934809536,237.78904232909738" stroke="#0d6d4d" stroke-width="0.1" fill="none" />
<path d="M-238.93601541376765,-54.171768830192235 L7.447467418251021,244.88678042935288" stroke="#0d6d4d" stroke-width="0.1" fill="none" />
<path d="M-238.37476947777415,-56.59036381238448 L-44.44424654007484,240.9350720619251" stroke="#0d6d4d" stroke-width="0.1" fill="none" />
<path d="M-237.78904232909747,-59.00314693480925 L-94.33060797557334,226.1122208085151" stroke="#0d6d4d" stroke-width="0.1" fill="none" />
<path d="M-237.17889412222007,-61.409870403386435 L-139.96071269822406,201.08704309578272" stroke="#0d6d4d" stroke-width="0.1" fill="none" />
<path d="M-236.5443875196799,-63.81028704636505 L-179.2757015137343,166.98869077502954" stroke="#0d6d4d" stroke-width="0.1" fill="none" />
<path d="M-235.88558768563476,-66.20415033970843 L-210.50165725298248,125.35570307627769" stroke="#0d6d4d" stroke-width="0.1" fill="none" />
<path d="M-235.2025622791698,-68.59121443241294 L-232.22964503700882,78.06658674480958" stroke="#0d6d4d" stroke-width="0.1" fill="none" />
<path d="M-234.49538144734927,-70.97123417175553 L-243.47928431015757,27.255056628329836" stroke="#0d6d4d" stroke-width="0.1" fill="none" />
<path d="M-233.76411781801195,-73.34396512847275 L-243.7429842310143,-24.78623888692094" stroke="#0d6d4d" stroke-width="0.1" fill="none" />
<path d="M-233.00884649231264,-75.70916362186207 L-233.00884649231264,-75.70916362186207" stroke="#0d6d4d" stroke-width="0.1" fill="none" />
<path d="M-232.2296450370088,-78.06658674480971 L-211.7612021800857,-123.21604299459092" stroke="#0d6d4d" stroke-width="0.1" fill="none" />
<path d="M-231.42659347649484,-80.41599238873562 L-180.95875844863855,-165.16333655120707" stroke="#0d6d4d" stroke-width="0.1" fill="none" />
<path d="M-230.59977428458333,-82.75713926845962 L-141.99134104719155,-199.65835586726675" stroke="#0d6d4d" stroke-width="0.1" fill="none" />
<path d="M-229.74927237603478,-85.08978694698077 L-96.61718450276308,-225.1446638469565" stroke="#0d6d4d" stroke-width="0.1" fill="none" />
<path d="M-228.87517509783711,-87.4136958601706 L-46.883599465911004,-240.47230214958236" stroke="#0d6d4d" stroke-width="0.1" fill="none" />
<path d="M-227.977572220235,-89.72862734137608 L4.965403241109245,-244.94967803745564" stroke="#0d6d4d" stroke-width="0.1" fill="none" />
<path d="M-227.05655592751043,-92.03434364593106 L56.59036381238461,-238.37476947777412" stroke="#0d6d4d" stroke-width="0.1" fill="none" />
<path d="M-226.1122208085151,-94.33060797557343 L105.66193136491327,-221.04424050455683" stroke="#0d6d4d" stroke-width="0.1" fill="none" />
<path d="M-225.14466384695652,-96.61718450276301 L149.96596572417738,-193.74005554973616" stroke="#0d6d4d" stroke-width="0.1" fill="none" />
<path d="M-224.15398441143728,-98.89383839490274 L187.50344082965702,-157.6941967132567" stroke="#0d6d4d" stroke-width="0.1" fill="none" />
<path d="M-223.14028424525026,-101.16033583845461 L216.58064205542271,-114.53307595127647" stroke="#0d6d4d" stroke-width="0.1" fill="none" />
<path d="M-222.10366745592907,-103.41644406295389 L235.88558768563473,-66.20415033970853" stroke="#0d6d4d" stroke-width="0.1" fill="none" />
<path d="M-221.04424050455683,-105.66193136491327 L244.54722635962523,-14.888051578840697" stroke="#0d6d4d" stroke-width="0.1" fill="none" />
<path d="M-219.96211219483178,-107.8965671316203 L242.1747394603873,37.099805488621264" stroke="#0d6d4d" stroke-width="0.1" fill="none" />
<path d="M-218.85739366189355,-110.12012186482065 L228.8751750978371,87.41369586017069" stroke="#0d6d4d" stroke-width="0.1" fill="none" />
<path d="M-217.73019836090947,-112.33236720428805 L205.2486180303672,133.78342496970401" stroke="#0d6d4d" stroke-width="0.1" fill="none" />
<path d="M-216.58064205542271,-114.53307595127647 L172.36111346088722,174.11676130264757" stroke="#0d6d4d" stroke-width="0.1" fill="none" />
<path d="M-215.4088428054632,-116.72202209185396 L131.69656640280394,206.59383920560614" stroke="#0d6d4d" stroke-width="0.1" fill="none" />
<path d="M-214.2149209554226,-118.89898082011489 L85.08978694698092,229.74927237603472" stroke="#0d6d4d" stroke-width="0.1" fill="none" />
<path d="M-212.99899912169545,-121.06372856126634 L34.643702469593165,242.53827301932844" stroke="#0d6d4d" stroke-width="0.1" fill="none" />
<path d="M-211.7612021800857,-123.21604299459092 L-17.3655277815639,244.3837933351304" stroke="#0d6d4d" stroke-width="0.1" fill="none" />
<path d="M-210.50165725298254,-125.35570307627758 L-68.59121443241295,235.2025622791698" stroke="#0d6d4d" stroke-width="0.1" fill="none" />
<path d="M-209.22049369630423,-127.48248906212461 L-116.72202209185397,215.4088428054632" stroke="#0d6d4d" stroke-width="0.1" fill="none" />
<path d="M-207.917843086214,-129.59618253010578 L-159.58625826694447,185.89574005973373" stroke="#0d6d4d" stroke-width="0.1" fill="none" />
<path d="M-206.5938392056062,-131.69656640280385 L-195.24986150216415,147.99490391018782" stroke="#0d6d4d" stroke-width="0.1" fill="none" />
<path d="M-205.24861803036734,-133.78342496970382 L-222.10366745592913,103.41644406295377" stroke="#0d6d4d" stroke-width="0.1" fill="none" />
<path d="M-203.88231771541092,-135.85654390934667 L-238.93601541376762,54.17176883019233" stroke="#0d6d4d" stroke-width="0.1" fill="none" />
<path d="M-202.49507858048938,-137.91571031133992 L-244.98741918634988,2.4828291144746277" stroke="#0d6d4d" stroke-width="0.1" fill="none" />
<path d="M-201.08704309578275,-139.96071269822403 L-239.98483560686117,-49.318137421721666" stroke="#0d6d4d" stroke-width="0.1" fill="none" />
<path d="M-199.6583558672667,-141.99134104719167 L-224.15398441143728,-98.89383839490274" stroke="#0d6d4d" stroke-width="0.1" fill="none" />
<path d="M-198.20916362186216,-144.00738681165586 L-198.20916362186216,-144.00738681165586" stroke="#0d6d4d" stroke-width="0.1" fill="none" />
<path d="M-196.73961519236545,-146.0086429426695 L-163.32101996690318,-182.62323082502513" stroke="#0d6d4d" stroke-width="0.1" fill="none" />
<path d="M-195.2498615021642,-147.99490391018773 L-121.06372856126643,-212.9989991216954" stroke="#0d6d4d" stroke-width="0.1" fill="none" />
<path d="M-193.7400555497362,-149.96596572417727 L-73.34396512847263,-233.76411781801198" stroke="#0d6d4d" stroke-width="0.1" fill="none" />
<path d="M-192.21035239293738,-151.92162595556576 L-22.31487558589959,-243.98165162074343" stroke="#0d6d4d" stroke-width="0.1" fill="none" />
<path d="M-190.66090913307653,-153.86168375703136 L29.721075261261433,-243.19057894029206" stroke="#0d6d4d" stroke-width="0.1" fill="none" />
<path d="M-189.09188489878184,-155.78593988362957 L80.41599238873565,-231.42659347649484" stroke="#0d6d4d" stroke-width="0.1" fill="none" />
<path d="M-187.5034408296571,-157.69419671325662 L127.48248906212454,-209.2204936963043" stroke="#0d6d4d" stroke-width="0.1" fill="none" />
<path d="M-185.89574005973375,-159.58625826694444 L168.7968951735432,-177.5742328711344" stroke="#0d6d4d" stroke-width="0.1" fill="none" />
<path d="M-184.26894770071632,-161.46193022898825 L202.49507858048938,-137.91571031133992" stroke="#0d6d4d" stroke-width="0.1" fill="none" />
<path d="M-182.62323082502508,-163.32101996690326 L227.05655592751037,-92.03434364593117" stroke="#0d6d4d" stroke-width="0.1" fill="none" />
<path d="M-180.95875844863855,-165.16333655120707 L241.37309781717897,-42.00032916702618" stroke="#0d6d4d" stroke-width="0.1" fill="none" />
<path d="M-179.2757015137343,-166.98869077502954 L244.79873282165863,9.928766736619142" stroke="#0d6d4d" stroke-width="0.1" fill="none" />
<path d="M-177.5742328711344,-168.79689517354316 L237.17889412222004,61.4098704033865" stroke="#0d6d4d" stroke-width="0.1" fill="none" />
<path d="M-175.85452726255238,-170.58776404321682 L218.85739366189344,110.12012186482086" stroke="#0d6d4d" stroke-width="0.1" fill="none" />
<path d="M-174.11676130264772,-172.3611134608871 L190.66090913307644,153.86168375703147" stroke="#0d6d4d" stroke-width="0.1" fill="none" />
<path d="M-172.3611134608873,-174.11676130264752 L153.86168375703141,190.66090913307647" stroke="#0d6d4d" stroke-width="0.1" fill="none" />
<path d="M-170.5877640432169,-175.8545272625523 L110.1201218648208,218.85739366189347" stroke="#0d6d4d" stroke-width="0.1" fill="none" />
<path d="M-168.79689517354325,-177.57423287113434 L61.40987040338649,237.17889412222004" stroke="#0d6d4d" stroke-width="0.1" fill="none" />
<path d="M-166.9886907750295,-179.2757015137344 L9.928766736619135,244.79873282165863" stroke="#0d6d4d" stroke-width="0.1" fill="none" />
<path d="M-165.16333655120715,-180.95875844863843 L-42.000329167026194,241.37309781717897" stroke="#0d6d4d" stroke-width="0.1" fill="none" />
<path d="M-163.32101996690318,-182.62323082502513 L-92.03434364593107,227.0565559275104" stroke="#0d6d4d" stroke-width="0.1" fill="none" />
<path d="M-161.46193022898834,-184.26894770071627 L-137.91571031133995,202.49507858048935" stroke="#0d6d4d" stroke-width="0.1" fill="none" />
<path d="M-159.58625826694438,-185.8957400597338 L-177.57423287113434,168.79689517354325" stroke="#0d6d4d" stroke-width="0.1" fill="none" />
<path d="M-157.6941967132567,-187.50344082965702 L-209.2204936963043,127.48248906212451" stroke="#0d6d4d" stroke-width="0.1" fill="none" />
<path d="M-155.7859398836298,-189.09188489878161 L-231.42659347649484,80.4159923887357" stroke="#0d6d4d" stroke-width="0.1" fill="none" />
<path d="M-153.8616837570316,-190.66090913307633 L-243.19057894029208,29.721075261261387" stroke="#0d6d4d" stroke-width="0.1" fill="none" />
<path d="M-151.921625955566,-192.21035239293718 L-243.98165162074343,-22.314875585899483" stroke="#0d6d4d" stroke-width="0.1" fill="none" />
<path d="M-149.96596572417738,-193.74005554973616 L-233.76411781801195,-73.34396512847275" stroke="#0d6d4d" stroke-width="0.1" fill="none" />
<path d="M-147.99490391018782,-195.24986150216415 L-212.99899912169545,-121.06372856126634" stroke="#0d6d4d" stroke-width="0.1" fill="none" />
<path d="M-146.00864294266944,-196.73961519236553 L-182.62323082502508,-163.32101996690326" stroke="#0d6d4d" stroke-width="0.1" fill="none" />
<path d="M-144.00738681165595,-198.2091636218621 L-144.00738681165595,-198.2091636218621" stroke="#0d6d4d" stroke-width="0.1" fill="none" />
<path d="M-141.99134104719155,-199.65835586726675 L-98.89383839490263,-224.15398441143734" stroke="#0d6d4d" stroke-width="0.1" fill="none" />
<path d="M-139.96071269822414,-201.0870430957827 L-49.31813742172177,-239.98483560686114" stroke="#0d6d4d" stroke-width="0.1" fill="none" />
<path d="M-137.91571031133984,-202.49507858048943 L2.4828291144746806,-244.98741918634988" stroke="#0d6d4d" stroke-width="0.1" fill="none" />
<path d="M-135.85654390934675,-203.88231771541084 L54.17176883019226,-238.93601541376765" stroke="#0d6d4d" stroke-width="0.1" fill="none" />
<path d="M-133.7834249697041,-205.24861803036714 L103.41644406295383,-222.1036674559291" stroke="#0d6d4d" stroke-width="0.1" fill="none" />
<path d="M-131.69656640280417,-206.59383920560603 L147.99490391018773,-195.24986150216418" stroke="#0d6d4d" stroke-width="0.1" fill="none" />
<path d="M-129.59618253010586,-207.91784308621394 L185.89574005973375,-159.58625826694444" stroke="#0d6d4d" stroke-width="0.1" fill="none" />
<path d="M-127.48248906212451,-209.2204936963043 L215.40884280546317,-116.72202209185402" stroke="#0d6d4d" stroke-width="0.1" fill="none" />
<path d="M-125.35570307627769,-210.50165725298248 L235.20256227916983,-68.59121443241288" stroke="#0d6d4d" stroke-width="0.1" fill="none" />
<path d="M-123.21604299459082,-211.76120218008575 L244.38379333513043,-17.365527781563838" stroke="#0d6d4d" stroke-width="0.1" fill="none" />
<path d="M-121.06372856126643,-212.9989991216954 L242.53827301932844,34.64370246959323" stroke="#0d6d4d" stroke-width="0.1" fill="none" />
<path d="M-118.89898082011479,-214.21492095542266 L229.7492723760347,85.089786946981" stroke="#0d6d4d" stroke-width="0.1" fill="none" />
<path d="M-116.72202209185404,-215.40884280546317 L206.59383920560612,131.696566402804" stroke="#0d6d4d" stroke-width="0.1" fill="none" />
<path d="M-114.53307595127657,-216.58064205542266 L174.11676130264755,172.36111346088725" stroke="#0d6d4d" stroke-width="0.1" fill="none" />
<path d="M-112.33236720428832,-217.73019836090936 L133.783424969704,205.24861803036723" stroke="#0d6d4d" stroke-width="0.1" fill="none" />
<path d="M-110.12012186482093,-218.8573936618934 L87.41369586017068,228.8751750978371" stroke="#0d6d4d" stroke-width="0.1" fill="none" />
<path d="M-107.89656713162059,-219.9621121948316 L37.09980548862125,242.1747394603873" stroke="#0d6d4d" stroke-width="0.1" fill="none" />
<path d="M-105.66193136491336,-221.0442405045568 L-14.888051578840704,244.54722635962523" stroke="#0d6d4d" stroke-width="0.1" fill="none" />
<path d="M-103.41644406295379,-222.10366745592913 L-66.20415033970845,235.88558768563476" stroke="#0d6d4d" stroke-width="0.1" fill="none" />
<path d="M-101.1603358384547,-223.1402842452502 L-114.53307595127649,216.58064205542271" stroke="#0d6d4d" stroke-width="0.1" fill="none" />
<path d="M-98.89383839490263,-224.15398441143734 L-157.69419671325664,187.50344082965708" stroke="#0d6d4d" stroke-width="0.1" fill="none" />
<path d="M-96.61718450276308,-225.1446638469565 L-193.74005554973616,149.96596572417738" stroke="#0d6d4d" stroke-width="0.1" fill="none" />
<path d="M-94.33060797557332,-226.11222080851513 L-221.0442405045568,105.66193136491334" stroke="#0d6d4d" stroke-width="0.1" fill="none" />
<path d="M-92.03434364593116,-227.05655592751037 L-238.37476947777412,56.590363812384574" stroke="#0d6d4d" stroke-width="0.1" fill="none" />
<path d="M-89.72862734137618,-227.97757222023495 L-244.94967803745564,4.9654032411093105" stroke="#0d6d4d" stroke-width="0.1" fill="none" />
<path d="M-87.4136958601709,-228.875175097837 L-240.47230214958233,-46.88359946591111" stroke="#0d6d4d" stroke-width="0.1" fill="none" />
<path d="M-85.08978694698106,-229.74927237603467 L-225.14466384695652,-96.61718450276301" stroke="#0d6d4d" stroke-width="0.1" fill="none" />
<path d="M-82.75713926845992,-230.59977428458322 L-199.6583558672667,-141.99134104719167" stroke="#0d6d4d" stroke-width="0.1" fill="none" />
<path d="M-80.41599238873572,-231.42659347649484 L-165.16333655120715,-180.95875844863843" stroke="#0d6d4d" stroke-width="0.1" fill="none" />
<path d="M-78.0665867448096,-232.22964503700882 L-123.21604299459082,-211.76120218008575" stroke="#0d6d4d" stroke-width="0.1" fill="none" />
<path d="M-75.70916362186216,-233.0088464923126 L-75.70916362186216,-233.0088464923126" stroke="#0d6d4d" stroke-width="0.1" fill="none" />
<path d="M-73.34396512847263,-233.76411781801198 L-24.78623888692083,-243.7429842310143" stroke="#0d6d4d" stroke-width="0.1" fill="none" />
<path d="M-70.97123417175563,-234.49538144734925 L27.255056628329783,-243.47928431015757" stroke="#0d6d4d" stroke-width="0.1" fill="none" />
<path d="M-68.59121443241281,-235.20256227916985 L78.06658674480963,-232.2296450370088" stroke="#0d6d4d" stroke-width="0.1" fill="none" />
<path d="M-66.20415033970852,-235.88558768563473 L125.35570307627763,-210.50165725298248" stroke="#0d6d4d" stroke-width="0.1" fill="none" />
<path d="M-63.81028704636514,-236.54438751967987 L166.9886907750295,-179.27570151373436" stroke="#0d6d4d" stroke-width="0.1" fill="none" />
<path d="M-61.40987040338673,-237.17889412222 L201.0870430957827,-139.9607126982241" stroke="#0d6d4d" stroke-width="0.1" fill="none" />
<path d="M-59.00314693480957,-237.78904232909738 L226.1122208085151,-94.33060797557339" stroke="#0d6d4d" stroke-width="0.1" fill="none" />
<path d="M-56.590363812384794,-238.37476947777407 L240.9350720619251,-44.444246540074886" stroke="#0d6d4d" stroke-width="0.1" fill="none" />
<path d="M-54.17176883019234,-238.93601541376762 L244.88678042935288,7.447467418250977" stroke="#0d6d4d" stroke-width="0.1" fill="none" />
<path d="M-51.74761037919376,-239.47272249682877 L237.7890423290974,59.0031469348095" stroke="#0d6d4d" stroke-width="0.1" fill="none" />
<path d="M-49.31813742172177,-239.98483560686114 L219.9621121948317,107.89656713162043" stroke="#0d6d4d" stroke-width="0.1" fill="none" />
<path d="M-46.883599465911004,-240.47230214958236 L192.2103523929372,151.92162595556593" stroke="#0d6d4d" stroke-width="0.1" fill="none" />
<path d="M-44.44424654007493,-240.9350720619251 L155.7859398836297,189.09188489878173" stroke="#0d6d4d" stroke-width="0.1" fill="none" />
<path d="M-42.00032916702607,-241.373097817179 L112.3323672042881,217.73019836090947" stroke="#0d6d4d" stroke-width="0.1" fill="none" />
<path d="M-39.55209833834889,-241.78633442987132 L63.810287046365005,236.54438751967993" stroke="#0d6d4d" stroke-width="0.1" fill="none" />
<path d="M-37.09980548862139,-242.1747394603873 L12.409046365484588,244.68554425690792" stroke="#0d6d4d" stroke-width="0.1" fill="none" />
<path d="M-34.643702469593414,-242.53827301932841 L-39.55209833834881,241.78633442987132" stroke="#0d6d4d" stroke-width="0.1" fill="none" />
<path d="M-32.18404152432098,-242.87689777160935 L-89.7286273413761,227.97757222023498" stroke="#0d6d4d" stroke-width="0.1" fill="none" />
<path d="M-29.72107526126162,-243.19057894029206 L-135.85654390934667,203.8823177154109" stroke="#0d6d4d" stroke-width="0.1" fill="none" />
<path d="M-27.255056628329854,-243.47928431015757 L-175.8545272625523,170.5877640432169" stroke="#0d6d4d" stroke-width="0.1" fill="none" />
<path d="M-24.78623888692083,-243.7429842310143 L-207.91784308621394,129.59618253010586" stroke="#0d6d4d" stroke-width="0.1" fill="none" />
<path d="M-22.31487558589959,-243.98165162074343 L-230.5997742845833,82.75713926845971" stroke="#0d6d4d" stroke-width="0.1" fill="none" />
<path d="M-19.841220535560804,-244.19526196808002 L-242.87689777160935,32.18404152432097" stroke="#0d6d4d" stroke-width="0.1" fill="none" />
<path d="M-17.365527781563884,-244.3837933351304 L-244.19526196808002,-19.841220535560918" stroke="#0d6d4d" stroke-width="0.1" fill="none" />
<path d="M-14.888051578840795,-244.54722635962523 L-234.49538144734927,-70.97123417175553" stroke="#0d6d4d" stroke-width="0.1" fill="none" />
<path d="M-12.409046365484835,-244.68554425690792 L-214.2149209554226,-118.89898082011489" stroke="#0d6d4d" stroke-width="0.1" fill="none" />
<path d="M-9.928766736619272,-244.79873282165863 L-184.26894770071632,-161.46193022898825" stroke="#0d6d4d" stroke-width="0.1" fill="none" />
<path d="M-7.44746741825116,-244.88678042935288 L-146.00864294266944,-196.73961519236553" stroke="#0d6d4d" stroke-width="0.1" fill="none" />
<path d="M-4.9654032411093265,-244.94967803745564 L-101.1603358384547,-223.1402842452502" stroke="#0d6d4d" stroke-width="0.1" fill="none" />
<path d="M-2.4828291144746424,-244.98741918634988 L-51.74761037919376,-239.47272249682877" stroke="#0d6d4d" stroke-width="0.1" fill="none" />
</svg>