<?xml version="1.0" encoding="UTF-8"?>
<svg xmlns="http://www.w3.org/2000/svg" xmlns:xlink="http://www.w3.org/1999/xlink"
     width="500.0" height="500" viewBox="-250.0 -250.0 500 500">
<defs>
</defs>
<circle cx="0" cy="0" r="245.0" fill="white" stroke-width="2" stroke="black" />
<path d="M0.0,-245.0 L0.0,-245.0" stroke="#0d6d4d" stroke-width="0.1" fill="none" />
<path d="M2.2538194548914765,-244.98963304161416 L47.037016629874884,-240.44234041982057" stroke="#0d6d4d" stroke-width="0.1" fill="none" />
<path d="M4.507448173027866,-244.95853304379392 L92.32400297839297,-226.93893115559897" stroke="#0d6d4d" stroke-width="0.1" fill="none" />
<path d="M6.760695433795797,-244.9067026384771 L134.17603931340093,-204.99217173874882" stroke="#0d6d4d" stroke-width="0.1" fill="none" />
<path d="M9.013370548863959,-244.83414621197934 L171.0360045381456,-175.41859978812806" stroke="#0d6d4d" stroke-width="0.1" fill="none" />
<path d="M11.26528287832072,-244.74086990462263 L201.53250948012374,-139.31851141411119" stroke="#0d6d4d" stroke-width="0.1" fill="none" />
<path d="M13.51624184680765,-244.62688161021595 L224.53091995230855,-98.03502427892805" stroke="#0d6d4d" stroke-width="0.1" fill="none" />
<path d="M15.76605695964757,-244.4921909753871 L239.1755712541493,-53.10410638784309" stroke="#0d6d4d" stroke-width="0.1" fill="none" />
<path d="M18.01453781896577,-244.3368093987663 L244.92160350561156,-6.197429809203622" stroke="#0d6d4d" stroke-width="0.1" fill="none" />
<path d="M20.261494139803077,-244.16075003002166 L241.5552333684186,40.939824527333045" stroke="#0d6d4d" stroke-width="0.1" fill="none" />
<path d="M22.5067357662193,-243.96402776874623 L229.20170793731504,86.55389695800959" stroke="#0d6d4d" stroke-width="0.1" fill="none" />
<path d="M24.750072687385806,-243.7466592631971 L208.32064487377068,128.94769838727765" stroke="#0d6d4d" stroke-width="0.1" fill="none" />
<path d="M26.99131505366581,-243.50866290888658 L179.6889321542418,166.54395113983662" stroke="#0d6d4d" stroke-width="0.1" fill="none" />
<path d="M29.230273192680986,-243.25005884702523 L144.37182365442723,197.94387218273508" stroke="#0d6d4d" stroke-width="0.1" fill="none" />
<path d="M31.466757625363133,-242.97086896281755 L103.68330596941624,221.9792153857032" stroke="#0d6d4d" stroke-width="0.1" fill="none" />
<path d="M33.70057908198944,-242.67111688360976 L59.137211037415874,237.7557365674194" stroke="#0d6d4d" stroke-width="0.1" fill="none" />
<path d="M35.93154851820005,-242.35082797689023 L12.390893440682673,244.68646419395913" stroke="#0d6d4d" stroke-width="0.1" fill="none" />
<path d="M38.159477130996564,-242.0100293481428 L-34.81643210867826,242.51353788030434" stroke="#0d6d4d" stroke-width="0.1" fill="none" />
<path d="M40.38417637472006,-241.64874983855287 L-80.72839892050646,231.31780218507083" stroke="#0d6d4d" stroke-width="0.1" fill="none" />
<path d="M42.60545797700745,-241.26702002256638 L-123.63683462431328,211.51579875763466" stroke="#0d6d4d" stroke-width="0.1" fill="none" />
<path d="M44.82313395472457,-240.86487220530273 L-161.9453143788259,183.84426874597764" stroke="#0d6d4d" stroke-width="0.1" fill="none" />
<path d="M47.037016629874884,-240.44234041982057 L-194.22855647175606,149.33274205912736" stroke="#0d6d4d" stroke-width="0.1" fill="none" />
<path d="M49.24691864548237,-239.99946042423772 L-219.28545047368294,109.26523331121362" stroke="#0d6d4d" stroke-width="0.1" fill="none" />
<path d="M51.45265298144716,-239.53626969870507 L-236.18374501319872,65.1324695642683" stroke="#0d6d4d" stroke-width="0.1" fill="none" />
<path d="M53.65403297037276,-239.05280744223472 L-244.2947325474732,18.576427254952716" stroke="#0d6d4d" stroke-width="0.1" fill="none" />
<path d="M55.85087231336337,-238.5491145693825 L-243.316640668014,-28.67075816982423" stroke="#0d6d4d" stroke-width="0.1" fill="none" />
<path d="M58.042985095789994,-238.02523370678557 L-233.28585965910463,-74.85123701791807" stroke="#0d6d4d" stroke-width="0.1" fill="none" />
<path d="M60.23018580302412,-237.48120918955502 L-214.57558858329145,-118.24684682533416" stroke="#0d6d4d" stroke-width="0.1" fill="none" />
<path d="M62.41228933613751,-236.91708705752367 L-187.88195026683115,-157.2430372510401" stroke="#0d6d4d" stroke-width="0.1" fill="none" />
<path d="M64.5891110275667,-236.33291505135008 L-154.19809178240007,-190.38894004291984" stroke="#0d6d4d" stroke-width="0.1" fill="none" />
<path d="M66.76046665674116,-235.72874260847817 L-114.77723403056112,-216.45134914870317" stroke="#0d6d4d" stroke-width="0.1" fill="none" />
<path d="M68.92617246567357,-235.1046208589534 L-71.08604517451104,-234.46060262109575" stroke="#0d6d4d" stroke-width="0.1" fill="none" />
<path d="M71.0860451745109,-234.4606026210958 L-24.750072687385828,-243.7466592631971" stroke="#0d6d4d" stroke-width="0.1" fill="none" />
<path d="M73.23990199704505,-233.79674239703007 L22.5067357662193,-243.96402776874623" stroke="#0d6d4d" stroke-width="0.1" fill="none" />
<path d="M75.38756065618173,-233.11309636807306 L68.92617246567357,-235.1046208589534" stroke="#0d6d4d" stroke-width="0.1" fill="none" />
<path d="M77.5288393993663,-232.40972238997932 L112.78118442828477,-217.49805617281552" stroke="#0d6d4d" stroke-width="0.1" fill="none" />
<path d="M79.6635570139651,-231.68667998804492 L152.4401290792751,-191.7993927161761" stroke="#0d6d4d" stroke-width="0.1" fill="none" />
<path d="M81.79153284260117,-230.9440303520697 L186.42748014086172,-158.96475913965523" stroke="#0d6d4d" stroke-width="0.1" fill="none" />
<path d="M83.91258679844299,-230.1818363311792 L213.4787251545079,-120.21578060473624" stroke="#0d6d4d" stroke-width="0.1" fill="none" />
<path d="M86.0265393804449,-229.4001624285056 L232.58741215293009,-76.99412775012803" stroke="#0d6d4d" stroke-width="0.1" fill="none" />
<path d="M88.13321168853794,-228.5990747957291 L243.0425950923486,-30.907878781577605" stroke="#0d6d4d" stroke-width="0.1" fill="none" />
<path d="M90.23242543876985,-227.77864122747954 L244.4552848732829,16.328309695804577" stroke="#0d6d4d" stroke-width="0.1" fill="none" />
<path d="M92.32400297839297,-226.93893115559897 L236.77292182949708,62.95699713552781" stroke="#0d6d4d" stroke-width="0.1" fill="none" />
<path d="M94.40776730089856,-226.080015643266 L220.28133123058245,107.24334530068718" stroke="#0d6d4d" stroke-width="0.1" fill="none" />
<path d="M96.48354206099673,-225.20196737898158 L195.5940890429515,147.5396635873146" stroke="#0d6d4d" stroke-width="0.1" fill="none" />
<path d="M98.55115158954005,-224.3048606704177 L163.62969360019335,182.34671198655283" stroke="#0d6d4d" stroke-width="0.1" fill="none" />
<path d="M100.61042090839027,-223.3887714381288 L125.57739251956787,210.36948088538503" stroke="#0d6d4d" stroke-width="0.1" fill="none" />
<path d="M102.66117574522627,-222.45377720912668 L82.85293628734442,230.56537239699557" stroke="#0d6d4d" stroke-width="0.1" fill="none" />
<path d="M104.70324254829251,-221.49995711031963 L37.04590471784732,242.18299061584852" stroke="#0d6d4d" stroke-width="0.1" fill="none" />
<path d="M106.73644850108639,-220.52739186181597 L-10.139433974455596,244.79009759113555" stroke="#0d6d4d" stroke-width="0.1" fill="none" />
<path d="M108.76062153698344,-219.5361637700929 L-56.94753112887067,238.28969490585678" stroke="#0d6d4d" stroke-width="0.1" fill="none" />
<path d="M110.77559035379886,-218.5263567210311 L-101.63687350110541,222.9236325402049" stroke="#0d6d4d" stroke-width="0.1" fill="none" />
<path d="M112.78118442828477,-217.49805617281552 L-142.5447769328358,199.26361075010183" stroke="#0d6d4d" stroke-width="0.1" fill="none" />
<path d="M114.77723403056108,-216.45134914870317 L-178.14924715483158,168.1899097394571" stroke="#0d6d4d" stroke-width="0.1" fill="none" />
<path d="M116.7635702384795,-215.3863242296587 L-207.1256061686889,130.85863849686493" stroke="#0d6d4d" stroke-width="0.1" fill="none" />
<path d="M118.74002495191918,-214.30307154685772 L-228.39577740087103,88.65872131635885" stroke="#0d6d4d" stroke-width="0.1" fill="none" />
<path d="M120.70643090701265,-213.20168277405924 L-241.16839595596244,43.16022233524901" stroke="#0d6d4d" stroke-width="0.1" fill="none" />
<path d="M122.66262169030102,-212.0822511198476 L-244.9682516517461,-3.944069305525716" stroke="#0d6d4d" stroke-width="0.1" fill="none" />
<path d="M124.60843175281748,-210.94487131974418 L-239.65396939666948,-50.90162033197189" stroke="#0d6d4d" stroke-width="0.1" fill="none" />
<path d="M126.54369642409709,-209.7896396281903 L-225.4232691044601,-95.96535701104936" stroke="#0d6d4d" stroke-width="0.1" fill="none" />
<path d="M128.46825192611286,-208.61665381040123 L-202.80560944874608,-137.4586657003576" stroke="#0d6d4d" stroke-width="0.1" fill="none" />
<path d="M130.38193538713583,-207.42601313409256 L-172.6424891496182,-173.83777190307046" stroke="#0d6d4d" stroke-width="0.1" fill="none" />
<path d="M132.28458485551852,-206.21781836107937 L-136.05613869033687,-203.7491769914073" stroke="#0d6d4d" stroke-width="0.1" fill="none" />
<path d="M134.17603931340093,-204.99217173874882 L-94.40776730089864,-226.08001564326594" stroke="#0d6d4d" stroke-width="0.1" fill="none" />
<path d="M136.05613869033687,-203.7491769914073 L-49.24691864548235,-239.99946042423772" stroke="#0d6d4d" stroke-width="0.1" fill="none" />
<path d="M137.9247238768406,-202.48893931150232 L-2.2538194548917696,-244.98963304161416" stroke="#0d6d4d" stroke-width="0.1" fill="none" />
<path d="M139.78163673785198,-201.2115653507203 L44.82313395472457,-240.86487220530273" stroke="#0d6d4d" stroke-width="0.1" fill="none" />
<path d="M141.62672012611912,-199.91716321096075 L90.23242543876985,-227.77864122747954" stroke="#0d6d4d" stroke-width="0.1" fill="none" />
<path d="M143.45981789549754,-198.6058424351879 L132.28458485551852,-206.21781836107937" stroke="#0d6d4d" stroke-width="0.1" fill="none" />
<path d="M145.28077491416437,-197.27771399816024 L169.4150454520483,-176.98458230727448" stroke="#0d6d4d" stroke-width="0.1" fill="none" />
<path d="M147.08943707774708,-195.9328902970389 L200.2423541715898,-141.16656684859768" stroke="#0d6d4d" stroke-width="0.1" fill="none" />
<path d="M148.88565132236505,-194.57148514187566 L223.61956914543467,-100.09639501605521" stroke="#0d6d4d" stroke-width="0.1" fill="none" />
<path d="M150.6692656375829,-193.19361374598148 L238.67693210596292,-55.30209833709348" stroke="#0d6d4d" stroke-width="0.1" fill="none" />
<path d="M152.4401290792751,-191.7993927161761 L244.85422807726198,-8.450265835355554" stroke="#0d6d4d" stroke-width="0.1" fill="none" />
<path d="M154.19809178239993,-190.38894004291993 L241.9216283886118,38.71596205446041" stroke="#0d6d4d" stroke-width="0.1" fill="none" />
<path d="M155.94300497368243,-188.96237509032863 L229.98824153850882,84.44174769641214" stroke="#0d6d4d" stroke-width="0.1" fill="none" />
<path d="M157.6747209842047,-187.5198185860716 L209.4980537710458,127.02584566199123" stroke="#0d6d4d" stroke-width="0.1" fill="none" />
<path d="M159.3930932619029,-186.06139261115487 L181.21341039706394,164.88389822012726" stroke="#0d6d4d" stroke-width="0.1" fill="none" />
<path d="M161.09797638396978,-184.5872205895899 L146.1866524438725,196.6073819754854" stroke="#0d6d4d" stroke-width="0.1" fill="none" />
<path d="M162.7892260691614,-183.09742727794804 L105.72096390288381,221.01601252272457" stroke="#0d6d4d" stroke-width="0.1" fill="none" />
<path d="M164.46669919000746,-181.59213875480293 L61.3218862683621,237.20165738141475" stroke="#0d6d4d" stroke-width="0.1" fill="none" />
<path d="M166.13025378492404,-180.07148241006053 L14.641304287508357,244.56212341399188" stroke="#0d6d4d" stroke-width="0.1" fill="none" />
<path d="M167.77974907022738,-178.5355869341783 L-32.58401304642527,242.82356165288076" stroke="#0d6d4d" stroke-width="0.1" fill="none" />
<path d="M169.4150454520483,-176.98458230727448 L-78.59702965201812,232.05065595658158" stroke="#0d6d4d" stroke-width="0.1" fill="none" />
<path d="M171.0360045381456,-175.41859978812806 L-121.68581356236898,212.64421642185422" stroke="#0d6d4d" stroke-width="0.1" fill="none" />
<path d="M172.64248914961811,-173.83777190307057 L-160.24723001186692,185.32626709002645" stroke="#0d6d4d" stroke-width="0.1" fill="none" />
<path d="M174.23436333251394,-172.24223243477053 L-192.84658668127673,151.11318276504147" stroke="#0d6d4d" stroke-width="0.1" fill="none" />
<path d="M175.81149236933587,-170.6321164109118 L-218.2710119768675,111.27787439825656" stroke="#0d6d4d" stroke-width="0.1" fill="none" />
<path d="M177.37374279044226,-169.00756009276634 L-235.57458038419853,67.30242994728192" stroke="#0d6d4d" stroke-width="0.1" fill="none" />
<path d="M178.92098238534254,-167.36870096366266 L-244.1135059904291,20.822972723910883" stroke="#0d6d4d" stroke-width="0.1" fill="none" />
<path d="M180.45308021388567,-165.71567771735099 L-243.57009478663136,-26.43121120250484" stroke="#0d6d4d" stroke-width="0.1" fill="none" />
<path d="M181.96990661734165,-164.04863024626556 L-233.96456459549074,-72.70201175787675" stroke="#0d6d4d" stroke-width="0.1" fill="none" />
<path d="M183.4713332293741,-162.36769962968611 L-215.65429285944265,-116.2679060243786" stroke="#0d6d4d" stroke-width="0.1" fill="none" />
<path d="M184.9572329869038,-160.6730281217983 L-189.32052027557705,-155.508008162232" stroke="#0d6d4d" stroke-width="0.1" fill="none" />
<path d="M186.42748014086172,-158.96475913965523 L-155.94300497368258,-188.96237509032855" stroke="#0d6d4d" stroke-width="0.1" fill="none" />
<path d="M187.8819502668311,-157.2430372510402 L-116.76357023847956,-215.38632422965867" stroke="#0d6d4d" stroke-width="0.1" fill="none" />
<path d="M189.320520275577,-155.50800816223207 L-73.2399019970452,-233.79674239703002" stroke="#0d6d4d" stroke-width="0.1" fill="none" />
<path d="M190.74306842346343,-153.75981870567472 L-26.991315053666064,-243.50866290888655" stroke="#0d6d4d" stroke-width="0.1" fill="none" />
<path d="M192.14947432275605,-151.99861682755048 L20.261494139803077,-244.16075003002166" stroke="#0d6d4d" stroke-width="0.1" fill="none" />
<path d="M193.5396189518106,-150.22455157526 L66.76046665674116,-235.72874260847817" stroke="#0d6d4d" stroke-width="0.1" fill="none" />
<path d="M194.9133846651452,-148.4377730848086 L110.77559035379886,-218.5263567210311" stroke="#0d6d4d" stroke-width="0.1" fill="none" />
<path d="M196.27065520339679,-146.63843256810043 L150.6692656375829,-193.19361374598148" stroke="#0d6d4d" stroke-width="0.1" fill="none" />
<path d="M197.6113157031597,-144.8266823001416 L184.9572329869038,-160.6730281217983" stroke="#0d6d4d" stroke-width="0.1" fill="none" />
<path d="M198.93525270670654,-143.00267560615364 L212.36379539870438,-122.17454073520078" stroke="#0d6d4d" stroke-width="0.1" fill="none" />
<path d="M200.2423541715898,-141.16656684859768 L231.86928118534433,-79.1305026054538" stroke="#0d6d4d" stroke-width="0.1" fill="none" />
<path d="M201.53250948012374,-139.31851141411119 L242.74798125162752,-33.142383714203426" stroke="#0d6d4d" stroke-width="0.1" fill="none" />
<path d="M202.80560944874605,-137.45866570035767 L244.59514938059885,14.078810300679836" stroke="#0d6d4d" stroke-width="0.1" fill="none" />
<path d="M204.06154633725754,-135.58718710279115 L237.34206097210154,60.77619676744531" stroke="#0d6d4d" stroke-width="0.1" fill="none" />
<path d="M205.30021385794018,-133.70423400133606 L221.25856996793866,105.21238147548411" stroke="#0d6d4d" stroke-width="0.1" fill="none" />
<path d="M206.521507184552,-131.80996574698378 L196.94306883225602,145.73409909466375" stroke="#0d6d4d" stroke-width="0.1" fill="none" />
<path d="M207.7253229611984,-129.90454264830703 L165.30022512993432,180.83372354733237" stroke="#0d6d4d" stroke-width="0.1" fill="none" />
<path d="M208.91155931107883,-127.98812595789342 L127.50732302214931,209.20535981595995" stroke="#0d6d4d" stroke-width="0.1" fill="none" />
<path d="M210.08011584510862,-126.06087785869865 L84.97046195669142,229.79343026915816" stroke="#0d6d4d" stroke-width="0.1" fill="none" />
<path d="M211.23089367041462,-124.12296145032153 L39.272242197607426,241.83194783314397" stroke="#0d6d4d" stroke-width="0.1" fill="none" />
<path d="M212.36379539870438,-122.17454073520078 L-7.887116425860776,244.8730148352099" stroke="#0d6d4d" stroke-width="0.1" fill="none" />
<path d="M213.4787251545079,-120.21578060473624 L-54.753031851464975,238.80348720877686" stroke="#0d6d4d" stroke-width="0.1" fill="none" />
<path d="M214.57558858329148,-118.24684682533413 L-99.58183968391265,223.84918406187572" stroke="#0d6d4d" stroke-width="0.1" fill="none" />
<path d="M215.65429285944265,-116.2679060243786 L-140.70566689883134,200.5664859904444" stroke="#0d6d4d" stroke-width="0.1" fill="none" />
<path d="M216.7147466941261,-114.27912567613026 L-176.59448569965224,169.82163472442292" stroke="#0d6d4d" stroke-width="0.1" fill="none" />
<path d="M217.75686034300878,-112.28067408755332 L-205.9130387898127,132.75850427127105" stroke="#0d6d4d" stroke-width="0.1" fill="none" />
<path d="M218.7805456138555,-110.27272038407183 L-227.5705181336529,90.75604264389648" stroke="#0d6d4d" stroke-width="0.1" fill="none" />
<path d="M219.78571587399188,-108.25543449525712 L-240.7611488886094,45.376967569867986" stroke="#0d6d4d" stroke-width="0.1" fill="none" />
<path d="M220.77228605763628,-106.22898714044688 L-244.99416856791552,-1.6903750222366476" stroke="#0d6d4d" stroke-width="0.1" fill="none" />
<path d="M221.74017267309847,-104.19354981429743 L-240.1120860475346,-48.69482656198031" stroke="#0d6d4d" stroke-width="0.1" fill="none" />
<path d="M222.68929380984576,-102.14929477227037 L-226.2965410839584,-93.88756836470063" stroke="#0d6d4d" stroke-width="0.1" fill="none" />
<path d="M223.61956914543467,-100.09639501605521 L-204.06154633725757,-135.5871871027911" stroke="#0d6d4d" stroke-width="0.1" fill="none" />
<path d="M224.53091995230855,-98.03502427892805 L-174.23436333251408,-172.2422324347704" stroke="#0d6d4d" stroke-width="0.1" fill="none" />
<path d="M225.42326910446005,-95.96535701104952 L-137.9247238768406,-202.48893931150232" stroke="#0d6d4d" stroke-width="0.1" fill="none" />
<path d="M226.2965410839584,-93.88756836470057 L-96.48354206099684,-225.20196737898152" stroke="#0d6d4d" stroke-width="0.1" fill="none" />
<path d="M227.15066198734016,-91.80183417946036 L-51.45265298144737,-239.53626969870504" stroke="#0d6d4d" stroke-width="0.1" fill="none" />
<path d="M227.98555953186363,-89.70833096732471 L-4.507448173027959,-244.9585330437939" stroke="#0d6d4d" stroke-width="0.1" fill="none" />
<path d="M228.80116306162589,-87.60723589776863 L42.60545797700745,-241.26702002256638" stroke="#0d6d4d" stroke-width="0.1" fill="none" />
<path d="M229.59740355354245,-85.49872678275253 L88.13321168853794,-228.5990747957291" stroke="#0d6d4d" stroke-width="0.1" fill="none" />
<path d="M230.37421362318847,-83.38298206167441 L130.38193538713583,-207.42601313409256" stroke="#0d6d4d" stroke-width="0.1" fill="none" />
<path d="M231.1315275305014,-81.26018078626872 L167.77974907022738,-178.5355869341783" stroke="#0d6d4d" stroke-width="0.1" fill="none" />
<path d="M231.86928118534433,-79.1305026054538 L198.93525270670654,-143.00267560615364" stroke="#0d6d4d" stroke-width="0.1" fill="none" />
<path d="M232.58741215293009,-76.99412775012803 L222.68929380984576,-102.14929477227037" stroke="#0d6d4d" stroke-width="0.1" fill="none" />
<path d="M233.28585965910466,-74.85123701791795 L238.1580941510598,-57.49541016755108" stroke="#0d6d4d" stroke-width="0.1" fill="none" />
<path d="M233.9645645954907,-72.70201175787685 L244.7661310685607,-10.702386730452316" stroke="#0d6d4d" stroke-width="0.1" fill="none" />
<path d="M234.62346952448956,-70.54663385513814 L242.2675500091793,36.488823118179766" stroke="#0d6d4d" stroke-width="0.1" fill="none" />
<path d="M235.26251868414224,-68.38528571552233 L230.7553116415045,82.32245227902372" stroke="#0d6d4d" stroke-width="0.1" fill="none" />
<path d="M235.8816579928484,-66.21815025010065 L210.65773321848124,125.09324296400337" stroke="#0d6d4d" stroke-width="0.1" fill="none" />
<path d="M236.4808350539431,-64.04541085971545 L182.7225528694,163.20989146767215" stroke="#0d6d4d" stroke-width="0.1" fill="none" />
<path d="M237.0599991601312,-61.86725141945937 L147.98910971542026,195.25425323315577" stroke="#0d6d4d" stroke-width="0.1" fill="none" />
<path d="M237.61910129777854,-59.68385626311415 L107.7496748581204,220.03410546542403" stroke="#0d6d4d" stroke-width="0.1" fill="none" />
<path d="M238.1580941510598,-57.49541016755108 L63.50137193650762,236.6275042385845" stroke="#0d6d4d" stroke-width="0.1" fill="none" />
<path d="M238.67693210596292,-55.30209833709348 L16.890476066641984,244.41708577397407" stroke="#0d6d4d" stroke-width="0.1" fill="none" />
<path d="M239.1755712541493,-53.10410638784309 L-30.34883645676566,243.11303569681425" stroke="#0d6d4d" stroke-width="0.1" fill="none" />
<path d="M239.65396939666945,-50.90162033197195 L-76.45900885589197,232.76387169140884" stroke="#0d6d4d" stroke-width="0.1" fill="none" />
<path d="M240.11208604753458,-48.69482656198037 L-119.72449444519721,213.75463838205232" stroke="#0d6d4d" stroke-width="0.1" fill="none" />
<path d="M240.54988243714257,-46.483911834922914 L-158.5355842051939,186.7925815997998" stroke="#0d6d4d" stroke-width="0.1" fill="none" />
<path d="M240.96732151555915,-44.26906325660333 L-191.44829662517301,152.88083502950838" stroke="#0d6d4d" stroke-width="0.1" fill="none" />
<path d="M241.36436795565322,-42.05046826574043 L-217.23810159027263,113.28109823555907" stroke="#0d6d4d" stroke-width="0.1" fill="none" />
<path d="M241.74098815608667,-39.82831461810505 L-234.9454794950219,69.46669464465856" stroke="#0d6d4d" stroke-width="0.1" fill="none" />
<path d="M242.09715024415792,-37.60279037063119 L-243.91162053903378,23.067755981507815" stroke="#0d6d4d" stroke-width="0.1" fill="none" />
<path d="M242.4328240784992,-35.37408386550043 L-243.80293599882668,-24.189427408519133" stroke="#0d6d4d" stroke-width="0.1" fill="none" />
<path d="M242.74798125162752,-33.142383714203426 L-234.62346952448954,-70.5466338551382" stroke="#0d6d4d" stroke-width="0.1" fill="none" />
<path d="M243.0425950923486,-30.907878781577605 L-216.7147466941261,-114.27912567613026" stroke="#0d6d4d" stroke-width="0.1" fill="none" />
<path d="M243.316640668014,-28.670758169824232 L-190.7430684234635,-153.7598187056746" stroke="#0d6d4d" stroke-width="0.1" fill="none" />
<path d="M243.57009478663136,-26.431211202504844 L-157.6747209842047,-187.5198185860716" stroke="#0d6d4d" stroke-width="0.1" fill="none" />
<path d="M243.80293599882668,-24.18942740851919 L-118.74002495191925,-214.30307154685767" stroke="#0d6d4d" stroke-width="0.1" fill="none" />
<path d="M244.01514459965995,-21.945596506065545 L-75.3875606561817,-233.1130963680731" stroke="#0d6d4d" stroke-width="0.1" fill="none" />
<path d="M244.20670263029257,-19.699908386585577 L-29.23027319268104,-243.25005884702523" stroke="#0d6d4d" stroke-width="0.1" fill="none" />
<path d="M244.37759387950706,-17.452553098693723 L18.01453781896577,-244.3368093987663" stroke="#0d6d4d" stroke-width="0.1" fill="none" />
<path d="M244.52780388507918,-15.203720832094161 L64.5891110275667,-236.33291505135008" stroke="#0d6d4d" stroke-width="0.1" fill="none" />
<path d="M244.65731993500182,-12.953601901484939 L108.76062153698344,-219.5361637700929" stroke="#0d6d4d" stroke-width="0.1" fill="none" />
<path d="M244.7661310685607,-10.702386730452316 L148.88565132236505,-194.57148514187566" stroke="#0d6d4d" stroke-width="0.1" fill="none" />
<path d="M244.85422807726198,-8.450265835355554 L183.4713332293741,-162.36769962968611" stroke="#0d6d4d" stroke-width="0.1" fill="none" />
<path d="M244.92160350561156,-6.197429809203622 L211.23089367041462,-124.12296145032153" stroke="#0d6d4d" stroke-width="0.1" fill="none" />
<path d="M244.96825165174613,-3.9440693055256677 L231.1315275305014,-81.26018078626872" stroke="#0d6d4d" stroke-width="0.1" fill="none" />
<path d="M244.99416856791552,-1.6903750222366534 L242.4328240784992,-35.37408386550043" stroke="#0d6d4d" stroke-width="0.1" fill="none" />
<path d="M244.99935206081696,0.5634623145014926 L244.71431423293512,11.828119440734499" stroke="#0d6d4d" stroke-width="0.1" fill="none" />
<path d="M244.98380169178066,2.8172519664202667 L237.89111427577288,58.590253017299474" stroke="#0d6d4d" stroke-width="0.1" fill="none" />
<path d="M244.94751877680676,5.070803199286862 L222.2170839837654,103.17251371248138" stroke="#0d6d4d" stroke-width="0.1" fill="none" />
<path d="M244.8905063864543,7.323925299045297 L198.2753816778955,143.91620138290503" stroke="#0d6d4d" stroke-width="0.1" fill="none" />
<path d="M244.812769345581,9.57642758795636 L166.95676759391944,179.30543146985252" stroke="#0d6d4d" stroke-width="0.1" fill="none" />
<path d="M244.71431423293512,11.828119440734499 L129.42646280545185,208.02353406686706" stroke="#0d6d4d" stroke-width="0.1" fill="none" />
<path d="M244.59514938059885,14.078810300679836 L87.08079672609438,229.00204112965594" stroke="#0d6d4d" stroke-width="0.1" fill="none" />
<path d="M244.4552848732829,16.328309695804577 L41.49525613695451,241.46043924032057" stroke="#0d6d4d" stroke-width="0.1" fill="none" />
<path d="M244.2947325474732,18.57642725495282 L-5.634131404549238,244.93520890904247" stroke="#0d6d4d" stroke-width="0.1" fill="none" />
<path d="M244.11350599042913,20.822972723910716 L-52.55389892179252,239.29706999484554" stroke="#0d6d4d" stroke-width="0.1" fill="none" />
<path d="M243.91162053903378,23.06775598150787 L-97.51837843171567,224.75579162292723" stroke="#0d6d4d" stroke-width="0.1" fill="none" />
<path d="M243.68909327849596,25.31058705570652 L-138.85464919304414,201.85238764373497" stroke="#0d6d4d" stroke-width="0.1" fill="none" />
<path d="M243.44594304090418,27.551276139678766 L-175.02477936541624,171.4389880047341" stroke="#0d6d4d" stroke-width="0.1" fill="none" />
<path d="M243.18219040363311,29.7896336078697 L-204.68304535457554,134.64713492821437" stroke="#0d6d4d" stroke-width="0.1" fill="none" />
<path d="M242.8978576876021,32.025470032044716 L-226.72599997589325,92.84568344802712" stroke="#0d6d4d" stroke-width="0.1" fill="none" />
<path d="M242.59296895538606,34.258596197320934 L-240.3335266309588,47.58987263196043" stroke="#0d6d4d" stroke-width="0.1" fill="none" />
<path d="M242.2675500091793,36.488823118179766 L-244.99935206081696,0.5634623145014983" stroke="#0d6d4d" stroke-width="0.1" fill="none" />
<path d="M241.9216283886118,38.71596205446041 L-240.5498824371426,-46.4839118349228" stroke="#0d6d4d" stroke-width="0.1" fill="none" />
<path d="M241.5552333684186,40.939824527333045 L-227.15066198734016,-91.80183417946036" stroke="#0d6d4d" stroke-width="0.1" fill="none" />
<path d="M241.16839595596244,43.16022233524895 L-205.30021385794024,-133.70423400133598" stroke="#0d6d4d" stroke-width="0.1" fill="none" />
<path d="M240.76114888860943,45.37696756986787 L-175.81149236933584,-170.6321164109118" stroke="#0d6d4d" stroke-width="0.1" fill="none" />
<path d="M240.3335266309588,47.58987263196053 L-139.781636737852,-201.2115653507203" stroke="#0d6d4d" stroke-width="0.1" fill="none" />
<path d="M239.885565371926,49.79875024728445 L-98.5511515895402,-224.30486067041764" stroke="#0d6d4d" stroke-width="0.1" fill="none" />
<path d="M239.41730302168034,52.00341348243307 L-53.65403297037299,-239.05280744223467" stroke="#0d6d4d" stroke-width="0.1" fill="none" />
<path d="M238.92877920843642,54.20367576065513 L-6.760695433795906,-244.9067026384771" stroke="#0d6d4d" stroke-width="0.1" fill="none" />
<path d="M238.4200352751008,56.399350877644835 L40.38417637472006,-241.64874983855287" stroke="#0d6d4d" stroke-width="0.1" fill="none" />
<path d="M237.89111427577288,58.590253017299474 L86.0265393804449,-229.4001624285056" stroke="#0d6d4d" stroke-width="0.1" fill="none" />
<path d="M237.34206097210154,60.77619676744531 L128.46825192611286,-208.61665381040123" stroke="#0d6d4d" stroke-width="0.1" fill="none" />
<path d="M236.77292182949708,62.95699713552781 L166.13025378492404,-180.07148241006053" stroke="#0d6d4d" stroke-width="0.1" fill="none" />
<path d="M236.18374501319872,65.1324695642683 L197.6113157031597,-144.8266823001416" stroke="#0d6d4d" stroke-width="0.1" fill="none" />
<path d="M235.57458038419855,67.30242994728187 L221.74017267309847,-104.19354981429743" stroke="#0d6d4d" stroke-width="0.1" fill="none" />
<path d="M234.94547949502194,69.46669464465852 L237.61910129777854,-59.68385626311415" stroke="#0d6d4d" stroke-width="0.1" fill="none" />
<path d="M234.29649558536477,71.62508049850378 L244.65731993500182,-12.953601901484939" stroke="#0d6d4d" stroke-width="0.1" fill="none" />
<path d="M233.6276835775877,73.77740484843963 L242.59296895538606,34.258596197320934" stroke="#0d6d4d" stroke-width="0.1" fill="none" />
<path d="M232.93910007206833,75.92348554706211 L231.50285333051568,80.19619005806787" stroke="#0d6d4d" stroke-width="0.1" fill="none" />
<path d="M232.23080334241104,78.06314097535666 L211.7995850744559,123.15005384606341" stroke="#0d6d4d" stroke-width="0.1" fill="none" />
<path d="M231.50285333051568,80.19619005806787 L184.216231855191,161.52207255070283" stroke="#0d6d4d" stroke-width="0.1" fill="none" />
<path d="M230.7553116415045,82.32245227902372 L149.7790429302987,193.88460046863895" stroke="#0d6d4d" stroke-width="0.1" fill="none" />
<path d="M229.98824153850882,84.44174769641214 L109.76926714890519,219.03357731085956" stroke="#0d6d4d" stroke-width="0.1" fill="none" />
<path d="M229.20170793731504,86.55389695800959 L65.67548359583428,236.0333257284939" stroke="#0d6d4d" stroke-width="0.1" fill="none" />
<path d="M228.39577740087103,88.65872131635885 L19.13821843465338,244.2513635481847" stroke="#0d6d4d" stroke-width="0.1" fill="none" />
<path d="M227.5705181336529,90.75604264389648 L-28.111091498742027,243.38193551442833" stroke="#0d6d4d" stroke-width="0.1" fill="none" />
<path d="M226.72599997589325,92.84568344802707 L-74.31451746904709,233.45738903136626" stroke="#0d6d4d" stroke-width="0.1" fill="none" />
<path d="M225.86229439767038,94.92746688614456 L-117.75304325576691,214.8469706651818" stroke="#0d6d4d" stroke-width="0.1" fill="none" />
<path d="M224.9794744928601,97.00121678059767 L-156.81052181236467,188.24308818369377" stroke="#0d6d4d" stroke-width="0.1" fill="none" />
<path d="M224.07761497294993,99.06675763359979 L-190.03380463826,154.63554925924254" stroke="#0d6d4d" stroke-width="0.1" fill="none" />
<path d="M223.15679216071624,101.12391464208106 L-216.18680672727757,115.27473529383066" stroke="#0d6d4d" stroke-width="0.1" fill="none" />
<path d="M222.2170839837654,103.17251371248138 L-234.29649558536474,71.62508049850389" stroke="#0d6d4d" stroke-width="0.1" fill="none" />
<path d="M221.25856996793866,105.21238147548411 L-243.68909327849596,25.31058705570647" stroke="#0d6d4d" stroke-width="0.1" fill="none" />
<path d="M220.28133123058245,107.24334530068718 L-244.01514459965998,-21.94559650606549" stroke="#0d6d4d" stroke-width="0.1" fill="none" />
<path d="M219.28545047368294,109.26523331121366 L-235.2625186841423,-68.38528571552217" stroke="#0d6d4d" stroke-width="0.1" fill="none" />
<path d="M218.27101197686758,111.27787439825642 L-217.7568603430088,-112.28067408755328" stroke="#0d6d4d" stroke-width="0.1" fill="none" />
<path d="M217.2381015902726,113.28109823555911 L-192.14947432275616,-151.99861682755034" stroke="#0d6d4d" stroke-width="0.1" fill="none" />
<path d="M216.18680672727754,115.2747352938307 L-159.3930932619031,-186.06139261115473" stroke="#0d6d4d" stroke-width="0.1" fill="none" />
<path d="M215.11721635710774,117.25861685509213 L-120.7064309070127,-213.2016827740592" stroke="#0d6d4d" stroke-width="0.1" fill="none" />
<path d="M214.02942099730475,119.2325750269551 L-77.52883939936648,-232.4097223899793" stroke="#0d6d4d" stroke-width="0.1" fill="none" />
<path d="M212.92351270606645,121.19644275682997 L-31.4667576253632,-242.97086896281755" stroke="#0d6d4d" stroke-width="0.1" fill="none" />
<path d="M211.7995850744559,123.15005384606341 L15.76605695964757,-244.4921909753871" stroke="#0d6d4d" stroke-width="0.1" fill="none" />
<path d="M210.65773321848124,125.09324296400337 L62.41228933613751,-236.91708705752367" stroke="#0d6d4d" stroke-width="0.1" fill="none" />
<path d="M209.4980537710458,127.02584566199123 L106.73644850108639,-220.52739186181597" stroke="#0d6d4d" stroke-width="0.1" fill="none" />
<path d="M208.32064487377068,128.94769838727765 L147.08943707774708,-195.9328902970389" stroke="#0d6d4d" stroke-width="0.1" fill="none" />
<path d="M207.12560616868885,130.85863849686504 L181.96990661734165,-164.04863024626556" stroke="#0d6d4d" stroke-width="0.1" fill="none" />
<path d="M205.9130387898128,132.7585042712709 L210.08011584510862,-126.06087785869865" stroke="#0d6d4d" stroke-width="0.1" fill="none" />
<path d="M204.68304535457554,134.6471349282144 L230.37421362318847,-83.38298206167441" stroke="#0d6d4d" stroke-width="0.1" fill="none" />
<path d="M203.43572995514657,136.52437063622259 L242.09715024415792,-37.60279037063119" stroke="#0d6d4d" stroke-width="0.1" fill="none" />
<path d="M202.1711981496226,138.39005252815693 L244.812769345581,9.57642758795636" stroke="#0d6d4d" stroke-width="0.1" fill="none" />
<path d="M200.88955695309426,140.24402271465794 L238.4200352751008,56.399350877644835" stroke="#0d6d4d" stroke-width="0.1" fill="none" />
<path d="M199.59091482858966,142.08612429750718 L223.15679216071624,101.12391464208106" stroke="#0d6d4d" stroke-width="0.1" fill="none" />
<path d="M198.2753816778955,143.91620138290503 L199.59091482858966,142.08612429750718" stroke="#0d6d4d" stroke-width="0.1" fill="none" />
<path d="M196.94306883225602,145.73409909466375 L168.5991808018892,177.76196509076934" stroke="#0d6d4d" stroke-width="0.1" fill="none" />
<path d="M195.5940890429515,147.5396635873146 L131.3346494560692,206.8241036539296" stroke="#0d6d4d" stroke-width="0.1" fill="none" />
<path d="M194.22855647175612,149.33274205912727 L89.1837620016536,228.19127195235228" stroke="#0d6d4d" stroke-width="0.1" fill="none" />
<path d="M192.8465866812768,151.1131827650414 L43.71475840615001,241.06849627749358" stroke="#0d6d4d" stroke-width="0.1" fill="none" />
<path d="M191.44829662517307,152.88083502950835 L-3.3806695766598627,244.97667454925877" stroke="#0d6d4d" stroke-width="0.1" fill="none" />
<path d="M190.03380463826,154.63554925924254 L-50.350318448584154,239.77040149302448" stroke="#0d6d4d" stroke-width="0.1" fill="none" />
<path d="M188.60323042649304,156.3771769558818 L-95.44666437159191,225.6433784987645" stroke="#0d6d4d" stroke-width="0.1" fill="none" />
<path d="M187.15669505683815,158.1055707285537 L-136.9918804638293,203.12120688639064" stroke="#0d6d4d" stroke-width="0.1" fill="none" />
<path d="M185.6943209470258,159.82058430634953 L-173.44026099359527,173.04183270664223" stroke="#0d6d4d" stroke-width="0.1" fill="none" />
<path d="M184.216231855191,161.52207255070283 L-203.4357299551466,136.52437063622256" stroke="#0d6d4d" stroke-width="0.1" fill="none" />
<path d="M182.7225528694,163.20989146767215 L-225.86229439767035,94.9274668861446" stroke="#0d6d4d" stroke-width="0.1" fill="none" />
<path d="M181.21341039706394,164.88389822012726 L-239.88556537192596,49.798750247284616" stroke="#0d6d4d" stroke-width="0.1" fill="none" />
<path d="M179.6889321542418,166.54395113983662 L-244.98380169178066,2.8172519664203266" stroke="#0d6d4d" stroke-width="0.1" fill="none" />
<path d="M178.14924715483164,168.18990973945708 L-240.96732151555915,-44.26906325660321" stroke="#0d6d4d" stroke-width="0.1" fill="none" />
<path d="M176.5944856996522,169.82163472442295 L-227.98555953186371,-89.70833096732451" stroke="#0d6d4d" stroke-width="0.1" fill="none" />
<path d="M175.02477936541626,171.43898800473406 L-206.5215071845521,-131.80996574698366" stroke="#0d6d4d" stroke-width="0.1" fill="none" />
<path d="M173.44026099359525,173.04183270664223 L-177.3737427904424,-169.00756009276617" stroke="#0d6d4d" stroke-width="0.1" fill="none" />
<path d="M171.841064679177,174.63003318423466 L-141.62672012611918,-199.91716321096072" stroke="#0d6d4d" stroke-width="0.1" fill="none" />
<path d="M170.22732575931798,176.20345503091318 L-100.61042090839041,-223.38877143812874" stroke="#0d6d4d" stroke-width="0.1" fill="none" />
<path d="M168.5991808018892,177.76196509076934 L-55.85087231336339,-238.54911456938248" stroke="#0d6d4d" stroke-width="0.1" fill="none" />
<path d="M166.95676759391944,179.30543146985252 L-9.013370548863866,-244.83414621197934" stroke="#0d6d4d" stroke-width="0.1" fill="none" />
<path d="M165.30022512993432,180.83372354733237 L38.159477130996564,-242.0100293481428" stroke="#0d6d4d" stroke-width="0.1" fill="none" />
<path d="M163.62969360019335,182.34671198655283 L83.91258679844299,-230.1818363311792" stroke="#0d6d4d" stroke-width="0.1" fill="none" />
<path d="M161.94531437882586,183.84426874597767 L126.54369642409709,-209.7896396281903" stroke="#0d6d4d" stroke-width="0.1" fill="none" />
<path d="M160.24723001186695,185.32626709002642 L164.46669919000746,-181.59213875480293" stroke="#0d6d4d" stroke-width="0.1" fill="none" />
<path d="M158.53558420519386,186.79258159979983 L196.27065520339679,-146.63843256810043" stroke="#0d6d4d" stroke-width="0.1" fill="none" />
<path d="M156.8105218123647,188.24308818369371 L220.77228605763628,-106.22898714044688" stroke="#0d6d4d" stroke-width="0.1" fill="none" />
<path d="M155.07218882235918,189.67766408790095 L237.0599991601312,-61.86725141945937" stroke="#0d6d4d" stroke-width="0.1" fill="none" />
<path d="M153.3207323472244,191.09618790679937 L244.52780388507918,-15.203720832094161" stroke="#0d6d4d" stroke-width="0.1" fill="none" />
<path d="M151.5563006096249,192.49853959322652 L242.8978576876021,32.025470032044716" stroke="#0d6d4d" stroke-width="0.1" fill="none" />
<path d="M149.7790429302987,193.88460046863895 L232.23080334241104,78.06314097535666" stroke="#0d6d4d" stroke-width="0.1" fill="none" />
<path d="M147.98910971542026,195.25425323315577 L212.92351270606645,121.19644275682997" stroke="#0d6d4d" stroke-width="0.1" fill="none" />
<path d="M146.1866524438725,196.6073819754854 L185.6943209470258,159.82058430634953" stroke="#0d6d4d" stroke-width="0.1" fill="none" />
<path d="M144.37182365442723,197.94387218273508 L151.5563006096249,192.49853959322652" stroke="#0d6d4d" stroke-width="0.1" fill="none" />
<path d="M142.54477693283582,199.26361075010178 L111.77956986071372,218.01451273195968" stroke="#0d6d4d" stroke-width="0.1" fill="none" />
<path d="M140.70566689883137,200.56648599044436 L67.84403725511676,235.41917213541961" stroke="#0d6d4d" stroke-width="0.1" fill="none" />
<path d="M138.8546491930441,201.852387643735 L21.384341169080137,244.06497076140275" stroke="#0d6d4d" stroke-width="0.1" fill="none" />
<path d="M136.99188046382935,203.12120688639058 L-25.870967548752883,243.6302383492069" stroke="#0d6d4d" stroke-width="0.1" fill="none" />
<path d="M135.11751835401083,204.37283634048228 L-72.16373697599767,234.13114928530769" stroke="#0d6d4d" stroke-width="0.1" fill="none" />
<path d="M133.23172148753937,205.6071700828226 L-115.77162683450587,215.92112082909333" stroke="#0d6d4d" stroke-width="0.1" fill="none" />
<path d="M131.3346494560692,206.8241036539296 L-155.0721888223592,189.6776640879009" stroke="#0d6d4d" stroke-width="0.1" fill="none" />
<path d="M129.42646280545185,208.02353406686706 L-188.6032304264929,156.37717695588194" stroke="#0d6d4d" stroke-width="0.1" fill="none" />
<path d="M127.50732302214931,209.20535981595995 L-215.1172163571076,117.25861685509237" stroke="#0d6d4d" stroke-width="0.1" fill="none" />
<path d="M125.57739251956787,210.36948088538503 L-233.62768357758767,73.77740484843973" stroke="#0d6d4d" stroke-width="0.1" fill="none" />
<path d="M123.63683462431334,211.51579875763463 L-243.44594304090418,27.551276139678986" stroke="#0d6d4d" stroke-width="0.1" fill="none" />
<path d="M121.68581356236893,212.64421642185425 L-244.20670263029257,-19.699908386585467" stroke="#0d6d4d" stroke-width="0.1" fill="none" />
<path d="M119.72449444519725,213.75463838205226 L-235.88165799284843,-66.21815025010049" stroke="#0d6d4d" stroke-width="0.1" fill="none" />
<path d="M117.75304325576685,214.84697066518183 L-218.78054561385554,-110.27272038407177" stroke="#0d6d4d" stroke-width="0.1" fill="none" />
<path d="M115.77162683450592,215.9211208290933 L-193.5396189518107,-150.2245515752599" stroke="#0d6d4d" stroke-width="0.1" fill="none" />
<path d="M113.78041286518247,216.97699797035773 L-161.0979763839698,-184.5872205895899" stroke="#0d6d4d" stroke-width="0.1" fill="none" />
<path d="M111.77956986071372,218.01451273195968 L-122.66262169030112,-212.08225111984754" stroke="#0d6d4d" stroke-width="0.1" fill="none" />
<path d="M109.76926714890519,219.03357731085956 L-79.6635570139651,-231.68667998804492" stroke="#0d6d4d" stroke-width="0.1" fill="none" />
<path d="M107.7496748581204,220.03410546542403 L-33.700579081989304,-242.67111688360976" stroke="#0d6d4d" stroke-width="0.1" fill="none" />
<path d="M105.72096390288381,221.01601252272457 L13.51624184680765,-244.62688161021595" stroke="#0d6d4d" stroke-width="0.1" fill="none" />
<path d="M103.68330596941624,221.9792153857032 L60.23018580302412,-237.48120918955502" stroke="#0d6d4d" stroke-width="0.1" fill="none" />
<path d="M101.63687350110546,222.92363254020486 L104.70324254829251,-221.49995711031963" stroke="#0d6d4d" stroke-width="0.1" fill="none" />
<path d="M99.5818396839126,223.84918406187575 L145.28077491416437,-197.27771399816024" stroke="#0d6d4d" stroke-width="0.1" fill="none" />
<path d="M97.51837843171573,224.7557916229272 L180.45308021388567,-165.71567771735099" stroke="#0d6d4d" stroke-width="0.1" fill="none" />
<path d="M95.44666437159185,225.64337849876452 L208.91155931107883,-127.98812595789342" stroke="#0d6d4d" stroke-width="0.1" fill="none" />
<path d="M93.36687282903861,226.51186957447976 L229.59740355354245,-85.49872678275253" stroke="#0d6d4d" stroke-width="0.1" fill="none" />
<path d="M91.27917981313638,227.3611913512091 L241.74098815608667,-39.82831461810505" stroke="#0d6d4d" stroke-width="0.1" fill="none" />
<path d="M89.1837620016536,228.19127195235228 L244.8905063864543,7.323925299045297" stroke="#0d6d4d" stroke-width="0.1" fill="none" />
<path d="M87.08079672609438,229.00204112965594 L238.92877920843642,54.20367576065513" stroke="#0d6d4d" stroke-width="0.1" fill="none" />
<path d="M84.97046195669142,229.79343026915816 L224.07761497294993,99.06675763359979" stroke="#0d6d4d" stroke-width="0.1" fill="none" />
<path d="M82.85293628734442,230.56537239699557 L200.88955695309426,140.24402271465794" stroke="#0d6d4d" stroke-width="0.1" fill="none" />
<path d="M80.72839892050641,231.31780218507086 L170.22732575931798,176.20345503091318" stroke="#0d6d4d" stroke-width="0.1" fill="none" />
<path d="M78.59702965201818,232.05065595658155 L133.23172148753937,205.6071700828226" stroke="#0d6d4d" stroke-width="0.1" fill="none" />
<path d="M76.45900885589202,232.7638716914088 L91.27917981313638,227.3611913512091" stroke="#0d6d4d" stroke-width="0.1" fill="none" />
<path d="M74.31451746904715,233.45738903136626 L45.930561172641475,240.65615211410292" stroke="#0d6d4d" stroke-width="0.1" fill="none" />
<path d="M72.16373697599761,234.13114928530769 L-1.1269216486820732,244.997408246695" stroke="#0d6d4d" stroke-width="0.1" fill="none" />
<path d="M70.00684939349341,234.78509543409422 L-48.14247691695898,240.22344164610595" stroke="#0d6d4d" stroke-width="0.1" fill="none" />
<path d="M67.84403725511676,235.41917213541961 L-93.36687282903856,226.5118695744798" stroke="#0d6d4d" stroke-width="0.1" fill="none" />
<path d="M65.67548359583428,236.0333257284939 L-135.1175183540107,204.37283634048237" stroke="#0d6d4d" stroke-width="0.1" fill="none" />
<path d="M63.50137193650762,236.6275042385845 L-171.84106467917698,174.6300331842347" stroke="#0d6d4d" stroke-width="0.1" fill="none" />
<path d="M61.3218862683621,237.20165738141475 L-202.17119814962248,138.3900525281571" stroke="#0d6d4d" stroke-width="0.1" fill="none" />
<path d="M59.137211037415874,237.7557365674194 L-224.9794744928601,97.00121678059773" stroke="#0d6d4d" stroke-width="0.1" fill="none" />
<path d="M56.947531128870615,238.2896949058568 L-239.4173030216803,52.003413482433224" stroke="#0d6d4d" stroke-width="0.1" fill="none" />
<path d="M54.75303185146503,238.80348720877686 L-244.94751877680676,5.070803199286923" stroke="#0d6d4d" stroke-width="0.1" fill="none" />
<path d="M52.55389892179247,239.29706999484557 L-241.36436795565322,-42.050468265740264" stroke="#0d6d4d" stroke-width="0.1" fill="none" />
<path d="M50.35031844858421,239.77040149302448 L-228.80116306162589,-87.60723589776863" stroke="#0d6d4d" stroke-width="0.1" fill="none" />
<path d="M48.14247691695893,240.22344164610595 L-207.72532296119846,-129.90454264830694" stroke="#0d6d4d" stroke-width="0.1" fill="none" />
<path d="M45.930561172641475,240.65615211410292 L-178.92098238534254,-167.36870096366266" stroke="#0d6d4d" stroke-width="0.1" fill="none" />
<path d="M43.71475840615001,241.06849627749358 L-143.4598178954976,-198.60584243518787" stroke="#0d6d4d" stroke-width="0.1" fill="none" />
<path d="M41.49525613695451,241.46043924032057 L-102.66117574522622,-222.4537772091267" stroke="#0d6d4d" stroke-width="0.1" fill="none" />
<path d="M39.272242197607426,241.83194783314397 L-58.04298509579003,-238.02523370678557" stroke="#0d6d4d" stroke-width="0.1" fill="none" />
<path d="M37.04590471784732,242.18299061584852 L-11.26528287832086,-244.74086990462263" stroke="#0d6d4d" stroke-width="0.1" fill="none" />
<path d="M34.81643210867843,242.5135378803043 L35.93154851820005,-242.35082797689023" stroke="#0d6d4d" stroke-width="0.1" fill="none" />
<path d="M32.58401304642532,242.82356165288076 L81.79153284260117,-230.9440303520697" stroke="#0d6d4d" stroke-width="0.1" fill="none" />
<path d="M30.348836456765827,243.11303569681425 L124.60843175281748,-210.94487131974418" stroke="#0d6d4d" stroke-width="0.1" fill="none" />
<path d="M28.111091498741978,243.38193551442833 L162.7892260691614,-183.09742727794804" stroke="#0d6d4d" stroke-width="0.1" fill="none" />
<path d="M25.87096754875305,243.6302383492069 L194.9133846651452,-148.4377730848086" stroke="#0d6d4d" stroke-width="0.1" fill="none" />
<path d="M23.628654184527335,243.85792318772013 L219.78571587399188,-108.25543449525712" stroke="#0d6d4d" stroke-width="0.1" fill="none" />
<path d="M21.384341169080137,244.06497076140275 L236.4808350539431,-64.04541085971545" stroke="#0d6d4d" stroke-width="0.1" fill="none" />
<path d="M19.13821843465338,244.2513635481847 L244.37759387950706,-17.452553098693723" stroke="#0d6d4d" stroke-width="0.1" fill="none" />
<path d="M16.890476066641984,244.41708577397407 L243.18219040363311,29.7896336078697" stroke="#0d6d4d" stroke-width="0.1" fill="none" />
<path d="M14.641304287508357,244.56212341399188 L232.93910007206833,75.92348554706211" stroke="#0d6d4d" stroke-width="0.1" fill="none" />
<path d="M12.390893440682673,244.68646419395913 L214.02942099730475,119.2325750269551" stroke="#0d6d4d" stroke-width="0.1" fill="none" />
<path d="M10.139433974455766,244.79009759113552 L187.15669505683815,158.1055707285537" stroke="#0d6d4d" stroke-width="0.1" fill="none" />
<path d="M7.887116425860728,244.8730148352099 L153.3207323472244,191.09618790679937" stroke="#0d6d4d" stroke-width="0.1" fill="none" />
<path d="M5.634131404549406,244.93520890904244 L113.78041286518247,216.97699797035773" stroke="#0d6d4d" stroke-width="0.1" fill="none" />
<path d="M3.380669576659923,244.97667454925877 L70.00684939349341,234.78509543409422" stroke="#0d6d4d" stroke-width="0.1" fill="none" />
<path d="M1.126921648682242,244.997408246695 L23.628654184527335,243.85792318772013" stroke="#0d6d4d" stroke-width="0.1" fill="none" />
<path d="M-1.1269216486820732,244.997408246695 L-23.628654184527274,243.85792318772016" stroke="#0d6d4d" stroke-width="0.1" fill="none" />
<path d="M-3.3806695766598627,244.97667454925877 L-70.00684939349335,234.78509543409425" stroke="#0d6d4d" stroke-width="0.1" fill="none" />
<path d="M-5.634131404549238,244.93520890904247 L-113.78041286518234,216.9769979703578" stroke="#0d6d4d" stroke-width="0.1" fill="none" />
<path d="M-7.887116425860776,244.8730148352099 L-153.32073234722438,191.09618790679937" stroke="#0d6d4d" stroke-width="0.1" fill="none" />
<path d="M-10.139433974455596,244.79009759113555 L-187.15669505683803,158.10557072855383" stroke="#0d6d4d" stroke-width="0.1" fill="none" />
<path d="M-12.39089344068272,244.68646419395913 L-214.02942099730473,119.23257502695517" stroke="#0d6d4d" stroke-width="0.1" fill="none" />
<path d="M-14.641304287508296,244.56212341399188 L-232.93910007206827,75.92348554706226" stroke="#0d6d4d" stroke-width="0.1" fill="none" />
<path d="M-16.890476066642034,244.41708577397407 L-243.18219040363311,29.789633607869703" stroke="#0d6d4d" stroke-width="0.1" fill="none" />
<path d="M-19.138218434653208,244.25136354818474 L-244.37759387950706,-17.45255309869361" stroke="#0d6d4d" stroke-width="0.1" fill="none" />
<path d="M-21.384341169080184,244.06497076140275 L-236.48083505394308,-64.04541085971549" stroke="#0d6d4d" stroke-width="0.1" fill="none" />
<path d="M-23.628654184527274,243.85792318772016 L-219.7857158739919,-108.25543449525709" stroke="#0d6d4d" stroke-width="0.1" fill="none" />
<path d="M-25.870967548752883,243.6302383492069 L-194.91338466514517,-148.43777308480867" stroke="#0d6d4d" stroke-width="0.1" fill="none" />
<path d="M-28.111091498742027,243.38193551442833 L-162.7892260691614,-183.09742727794801" stroke="#0d6d4d" stroke-width="0.1" fill="none" />
<path d="M-30.34883645676566,243.11303569681425 L-124.60843175281757,-210.94487131974412" stroke="#0d6d4d" stroke-width="0.1" fill="none" />
<path d="M-32.58401304642527,242.82356165288076 L-81.79153284260117,-230.9440303520697" stroke="#0d6d4d" stroke-width="0.1" fill="none" />
<path d="M-34.81643210867826,242.51353788030434 L-35.93154851820015,-242.3508279768902" stroke="#0d6d4d" stroke-width="0.1" fill="none" />
<path d="M-37.04590471784727,242.18299061584852 L11.26528287832072,-244.74086990462263" stroke="#0d6d4d" stroke-width="0.1" fill="none" />
<path d="M-39.27224219760727,241.831947833144 L58.042985095789994,-238.02523370678557" stroke="#0d6d4d" stroke-width="0.1" fill="none" />
<path d="M-41.49525613695446,241.46043924032057 L102.66117574522627,-222.45377720912668" stroke="#0d6d4d" stroke-width="0.1" fill="none" />
<path d="M-43.71475840614985,241.0684962774936 L143.45981789549754,-198.6058424351879" stroke="#0d6d4d" stroke-width="0.1" fill="none" />
<path d="M-45.93056117264142,240.65615211410292 L178.92098238534254,-167.36870096366266" stroke="#0d6d4d" stroke-width="0.1" fill="none" />
<path d="M-48.14247691695898,240.22344164610595 L207.7253229611984,-129.90454264830703" stroke="#0d6d4d" stroke-width="0.1" fill="none" />
<path d="M-50.350318448584154,239.77040149302448 L228.80116306162589,-87.60723589776863" stroke="#0d6d4d" stroke-width="0.1" fill="none" />
<path d="M-52.55389892179252,239.29706999484554 L241.36436795565322,-42.05046826574043" stroke="#0d6d4d" stroke-width="0.1" fill="none" />
<path d="M-54.753031851464975,238.80348720877686 L244.94751877680676,5.070803199286862" stroke="#0d6d4d" stroke-width="0.1" fill="none" />
<path d="M-56.94753112887067,238.28969490585678 L239.41730302168034,52.00341348243307" stroke="#0d6d4d" stroke-width="0.1" fill="none" />
<path d="M-59.13721103741582,237.7557365674194 L224.9794744928601,97.00121678059767" stroke="#0d6d4d" stroke-width="0.1" fill="none" />
<path d="M-61.32188626836204,237.20165738141475 L202.1711981496226,138.39005252815693" stroke="#0d6d4d" stroke-width="0.1" fill="none" />
<path d="M-63.50137193650747,236.62750423858452 L171.841064679177,174.63003318423466" stroke="#0d6d4d" stroke-width="0.1" fill="none" />
<path d="M-65.67548359583422,236.03332572849394 L135.11751835401083,204.37283634048228" stroke="#0d6d4d" stroke-width="0.1" fill="none" />
<path d="M-67.8440372551166,235.41917213541967 L93.36687282903861,226.51186957447976" stroke="#0d6d4d" stroke-width="0.1" fill="none" />
<path d="M-70.00684939349335,234.78509543409425 L48.14247691695893,240.22344164610595" stroke="#0d6d4d" stroke-width="0.1" fill="none" />
<path d="M-72.16373697599767,234.13114928530769 L1.126921648682242,244.997408246695" stroke="#0d6d4d" stroke-width="0.1" fill="none" />
<path d="M-74.31451746904709,233.45738903136626 L-45.93056117264142,240.65615211410292" stroke="#0d6d4d" stroke-width="0.1" fill="none" />
<path d="M-76.45900885589197,232.76387169140884 L-91.27917981313624,227.36119135120916" stroke="#0d6d4d" stroke-width="0.1" fill="none" />
<path d="M-78.59702965201812,232.05065595658158 L-133.23172148753932,205.60717008282262" stroke="#0d6d4d" stroke-width="0.1" fill="none" />
<path d="M-80.72839892050646,231.31780218507083 L-170.22732575931784,176.2034550309133" stroke="#0d6d4d" stroke-width="0.1" fill="none" />
<path d="M-82.85293628734428,230.56537239699563 L-200.88955695309423,140.244022714658" stroke="#0d6d4d" stroke-width="0.1" fill="none" />
<path d="M-84.97046195669137,229.7934302691582 L-224.07761497294987,99.06675763359989" stroke="#0d6d4d" stroke-width="0.1" fill="none" />
<path d="M-87.08079672609432,229.00204112965596 L-238.92877920843642,54.20367576065514" stroke="#0d6d4d" stroke-width="0.1" fill="none" />
<path d="M-89.18376200165355,228.1912719523523 L-244.8905063864543,7.3239252990453565" stroke="#0d6d4d" stroke-width="0.1" fill="none" />
<path d="M-91.27917981313624,227.36119135120916 L-241.74098815608667,-39.828314618105146" stroke="#0d6d4d" stroke-width="0.1" fill="none" />
<path d="M-93.36687282903856,226.5118695744798 L-229.59740355354245,-85.49872678275253" stroke="#0d6d4d" stroke-width="0.1" fill="none" />
<path d="M-95.44666437159191,225.6433784987645 L-208.91155931107892,-127.98812595789332" stroke="#0d6d4d" stroke-width="0.1" fill="none" />
<path d="M-97.51837843171567,224.75579162292723 L-180.45308021388584,-165.71567771735081" stroke="#0d6d4d" stroke-width="0.1" fill="none" />
<path d="M-99.58183968391265,223.84918406187572 L-145.28077491416443,-197.27771399816018" stroke="#0d6d4d" stroke-width="0.1" fill="none" />
<path d="M-101.63687350110541,222.9236325402049 L-104.70324254829266,-221.49995711031954" stroke="#0d6d4d" stroke-width="0.1" fill="none" />
<path d="M-103.6833059694162,221.9792153857032 L-60.2301858030244,-237.48120918955496" stroke="#0d6d4d" stroke-width="0.1" fill="none" />
<path d="M-105.72096390288365,221.01601252272465 L-13.516241846807807,-244.62688161021592" stroke="#0d6d4d" stroke-width="0.1" fill="none" />
<path d="M-107.74967485812034,220.03410546542406 L33.70057908198944,-242.67111688360976" stroke="#0d6d4d" stroke-width="0.1" fill="none" />
<path d="M-109.76926714890504,219.03357731085964 L79.6635570139651,-231.68667998804492" stroke="#0d6d4d" stroke-width="0.1" fill="none" />
<path d="M-111.77956986071366,218.0145127319597 L122.66262169030102,-212.0822511198476" stroke="#0d6d4d" stroke-width="0.1" fill="none" />
<path d="M-113.78041286518234,216.9769979703578 L161.09797638396978,-184.5872205895899" stroke="#0d6d4d" stroke-width="0.1" fill="none" />
<path d="M-115.77162683450587,215.92112082909333 L193.5396189518106,-150.22455157526" stroke="#0d6d4d" stroke-width="0.1" fill="none" />
<path d="M-117.75304325576691,214.8469706651818 L218.7805456138555,-110.27272038407183" stroke="#0d6d4d" stroke-width="0.1" fill="none" />
<path d="M-119.72449444519721,213.75463838205232 L235.8816579928484,-66.21815025010065" stroke="#0d6d4d" stroke-width="0.1" fill="none" />
<path d="M-121.68581356236898,212.64421642185422 L244.20670263029257,-19.699908386585577" stroke="#0d6d4d" stroke-width="0.1" fill="none" />
<path d="M-123.63683462431328,211.51579875763466 L243.44594304090418,27.551276139678766" stroke="#0d6d4d" stroke-width="0.1" fill="none" />
<path d="M-125.57739251956792,210.369480885385 L233.6276835775877,73.77740484843963" stroke="#0d6d4d" stroke-width="0.1" fill="none" />
<path d="M-127.50732302214925,209.20535981595998 L215.11721635710774,117.25861685509213" stroke="#0d6d4d" stroke-width="0.1" fill="none" />
<path d="M-129.4264628054518,208.0235340668671 L188.60323042649304,156.3771769558818" stroke="#0d6d4d" stroke-width="0.1" fill="none" />
<path d="M-131.33464945606906,206.8241036539297 L155.07218882235918,189.67766408790095" stroke="#0d6d4d" stroke-width="0.1" fill="none" />
<path d="M-133.23172148753932,205.60717008282262 L115.77162683450592,215.9211208290933" stroke="#0d6d4d" stroke-width="0.1" fill="none" />
<path d="M-135.1175183540107,204.37283634048237 L72.16373697599761,234.13114928530769" stroke="#0d6d4d" stroke-width="0.1" fill="none" />
<path d="M-136.9918804638293,203.12120688639064 L25.87096754875305,243.6302383492069" stroke="#0d6d4d" stroke-width="0.1" fill="none" />
<path d="M-138.85464919304414,201.85238764373497 L-21.384341169080184,244.06497076140275" stroke="#0d6d4d" stroke-width="0.1" fill="none" />
<path d="M-140.70566689883134,200.5664859904444 L-67.8440372551166,235.41917213541967" stroke="#0d6d4d" stroke-width="0.1" fill="none" />
<path d="M-142.5447769328358,199.26361075010183 L-111.77956986071366,218.0145127319597" stroke="#0d6d4d" stroke-width="0.1" fill="none" />
<path d="M-144.3718236544272,197.9438721827351 L-151.55630060962488,192.49853959322655" stroke="#0d6d4d" stroke-width="0.1" fill="none" />
<path d="M-146.18665244387253,196.60738197548537 L-185.6943209470258,159.8205843063495" stroke="#0d6d4d" stroke-width="0.1" fill="none" />
<path d="M-147.9891097154201,195.25425323315582 L-212.9235127060664,121.19644275683004" stroke="#0d6d4d" stroke-width="0.1" fill="none" />
<path d="M-149.77904293029863,193.88460046863895 L-232.23080334241098,78.06314097535683" stroke="#0d6d4d" stroke-width="0.1" fill="none" />
<path d="M-151.55630060962488,192.49853959322655 L-242.89785768760208,32.02547003204478" stroke="#0d6d4d" stroke-width="0.1" fill="none" />
<path d="M-153.32073234722438,191.09618790679937 L-244.5278038850792,-15.203720832093994" stroke="#0d6d4d" stroke-width="0.1" fill="none" />
<path d="M-155.0721888223592,189.6776640879009 L-237.05999916013127,-61.867251419459166" stroke="#0d6d4d" stroke-width="0.1" fill="none" />
<path d="M-156.81052181236467,188.24308818369377 L-220.77228605763628,-106.22898714044683" stroke="#0d6d4d" stroke-width="0.1" fill="none" />
<path d="M-158.5355842051939,186.7925815997998 L-196.27065520339687,-146.63843256810026" stroke="#0d6d4d" stroke-width="0.1" fill="none" />
<path d="M-160.24723001186692,185.32626709002645 L-164.4666991900075,-181.5921387548029" stroke="#0d6d4d" stroke-width="0.1" fill="none" />
<path d="M-161.9453143788259,183.84426874597764 L-126.5436964240972,-209.78963962819026" stroke="#0d6d4d" stroke-width="0.1" fill="none" />
<path d="M-163.62969360019332,182.34671198655286 L-83.91258679844302,-230.1818363311792" stroke="#0d6d4d" stroke-width="0.1" fill="none" />
<path d="M-165.3002251299343,180.8337235473324 L-38.15947713099668,-242.0100293481428" stroke="#0d6d4d" stroke-width="0.1" fill="none" />
<path d="M-166.95676759391932,179.3054314698526 L9.013370548863959,-244.83414621197934" stroke="#0d6d4d" stroke-width="0.1" fill="none" />
<path d="M-168.59918080188913,177.76196509076934 L55.85087231336337,-238.5491145693825" stroke="#0d6d4d" stroke-width="0.1" fill="none" />
<path d="M-170.22732575931784,176.2034550309133 L100.61042090839027,-223.3887714381288" stroke="#0d6d4d" stroke-width="0.1" fill="none" />
<path d="M-171.84106467917698,174.6300331842347 L141.62672012611912,-199.91716321096075" stroke="#0d6d4d" stroke-width="0.1" fill="none" />
<path d="M-173.44026099359527,173.04183270664223 L177.37374279044226,-169.00756009276634" stroke="#0d6d4d" stroke-width="0.1" fill="none" />
<path d="M-175.02477936541624,171.4389880047341 L206.521507184552,-131.80996574698378" stroke="#0d6d4d" stroke-width="0.1" fill="none" />
<path d="M-176.59448569965224,169.82163472442292 L227.98555953186363,-89.70833096732471" stroke="#0d6d4d" stroke-width="0.1" fill="none" />
<path d="M-178.14924715483158,168.1899097394571 L240.96732151555915,-44.26906325660333" stroke="#0d6d4d" stroke-width="0.1" fill="none" />
<path d="M-179.6889321542418,166.54395113983662 L244.98380169178066,2.8172519664202667" stroke="#0d6d4d" stroke-width="0.1" fill="none" />
<path d="M-181.21341039706388,164.88389822012732 L239.885565371926,49.79875024728445" stroke="#0d6d4d" stroke-width="0.1" fill="none" />
<path d="M-182.72255286939992,163.2098914676722 L225.86229439767038,94.92746688614456" stroke="#0d6d4d" stroke-width="0.1" fill="none" />
<path d="M-184.21623185519096,161.5220725507029 L203.43572995514657,136.52437063622259" stroke="#0d6d4d" stroke-width="0.1" fill="none" />
<path d="M-185.6943209470258,159.8205843063495 L173.44026099359525,173.04183270664223" stroke="#0d6d4d" stroke-width="0.1" fill="none" />
<path d="M-187.15669505683803,158.10557072855383 L136.99188046382935,203.12120688639058" stroke="#0d6d4d" stroke-width="0.1" fill="none" />
<path d="M-188.6032304264929,156.37717695588194 L95.44666437159185,225.64337849876452" stroke="#0d6d4d" stroke-width="0.1" fill="none" />
<path d="M-190.03380463826,154.63554925924254 L50.35031844858421,239.77040149302448" stroke="#0d6d4d" stroke-width="0.1" fill="none" />
<path d="M-191.44829662517301,152.88083502950838 L3.380669576659923,244.97667454925877" stroke="#0d6d4d" stroke-width="0.1" fill="none" />
<path d="M-192.84658668127673,151.11318276504147 L-43.71475840614985,241.0684962774936" stroke="#0d6d4d" stroke-width="0.1" fill="none" />
<path d="M-194.22855647175606,149.33274205912736 L-89.18376200165355,228.1912719523523" stroke="#0d6d4d" stroke-width="0.1" fill="none" />
<path d="M-195.59408904295145,147.53966358731466 L-131.33464945606906,206.8241036539297" stroke="#0d6d4d" stroke-width="0.1" fill="none" />
<path d="M-196.943068832256,145.7340990946638 L-168.59918080188913,177.76196509076934" stroke="#0d6d4d" stroke-width="0.1" fill="none" />
<path d="M-198.27538167789544,143.9162013829051 L-199.5909148285896,142.08612429750727" stroke="#0d6d4d" stroke-width="0.1" fill="none" />
<path d="M-199.5909148285896,142.08612429750727 L-223.1567921607162,101.12391464208116" stroke="#0d6d4d" stroke-width="0.1" fill="none" />
<path d="M-200.88955695309423,140.244022714658 L-238.42003527510073,56.39935087764505" stroke="#0d6d4d" stroke-width="0.1" fill="none" />
<path d="M-202.17119814962248,138.3900525281571 L-244.81276934558096,9.576427587956474" stroke="#0d6d4d" stroke-width="0.1" fill="none" />
<path d="M-203.4357299551466,136.52437063622256 L-242.09715024415794,-37.60279037063102" stroke="#0d6d4d" stroke-width="0.1" fill="none" />
<path d="M-204.68304535457554,134.64713492821437 L-230.3742136231885,-83.38298206167437" stroke="#0d6d4d" stroke-width="0.1" fill="none" />
<path d="M-205.9130387898127,132.75850427127105 L-210.08011584510868,-126.06087785869855" stroke="#0d6d4d" stroke-width="0.1" fill="none" />
<path d="M-207.1256061686889,130.85863849686493 L-181.96990661734168,-164.04863024626553" stroke="#0d6d4d" stroke-width="0.1" fill="none" />
<path d="M-208.32064487377062,128.94769838727774 L-147.08943707774714,-195.93289029703885" stroke="#0d6d4d" stroke-width="0.1" fill="none" />
<path d="M-209.49805377104576,127.02584566199127 L-106.73644850108639,-220.52739186181597" stroke="#0d6d4d" stroke-width="0.1" fill="none" />
<path d="M-210.65773321848116,125.09324296400357 L-62.41228933613758,-236.91708705752367" stroke="#0d6d4d" stroke-width="0.1" fill="none" />
<path d="M-211.79958507445585,123.15005384606347 L-15.766056959647525,-244.4921909753871" stroke="#0d6d4d" stroke-width="0.1" fill="none" />
<path d="M-212.9235127060664,121.19644275683004 L31.466757625363133,-242.97086896281755" stroke="#0d6d4d" stroke-width="0.1" fill="none" />
<path d="M-214.02942099730473,119.23257502695517 L77.5288393993663,-232.40972238997932" stroke="#0d6d4d" stroke-width="0.1" fill="none" />
<path d="M-215.1172163571076,117.25861685509237 L120.70643090701265,-213.20168277405924" stroke="#0d6d4d" stroke-width="0.1" fill="none" />
<path d="M-216.18680672727757,115.27473529383066 L159.3930932619029,-186.06139261115487" stroke="#0d6d4d" stroke-width="0.1" fill="none" />
<path d="M-217.23810159027263,113.28109823555907 L192.14947432275605,-151.99861682755048" stroke="#0d6d4d" stroke-width="0.1" fill="none" />
<path d="M-218.2710119768675,111.27787439825656 L217.75686034300878,-112.28067408755332" stroke="#0d6d4d" stroke-width="0.1" fill="none" />
<path d="M-219.28545047368294,109.26523331121362 L235.26251868414224,-68.38528571552233" stroke="#0d6d4d" stroke-width="0.1" fill="none" />
<path d="M-220.28133123058237,107.24334530068732 L244.01514459965995,-21.945596506065545" stroke="#0d6d4d" stroke-width="0.1" fill="none" />
<path d="M-221.25856996793874,105.21238147548395 L243.68909327849596,25.31058705570652" stroke="#0d6d4d" stroke-width="0.1" fill="none" />
<path d="M-222.21708398376532,103.17251371248152 L234.29649558536477,71.62508049850378" stroke="#0d6d4d" stroke-width="0.1" fill="none" />
<path d="M-223.1567921607162,101.12391464208116 L216.18680672727754,115.2747352938307" stroke="#0d6d4d" stroke-width="0.1" fill="none" />
<path d="M-224.07761497294987,99.06675763359989 L190.03380463826,154.63554925924254" stroke="#0d6d4d" stroke-width="0.1" fill="none" />
<path d="M-224.9794744928601,97.00121678059773 L156.8105218123647,188.24308818369371" stroke="#0d6d4d" stroke-width="0.1" fill="none" />
<path d="M-225.86229439767035,94.9274668861446 L117.75304325576685,214.84697066518183" stroke="#0d6d4d" stroke-width="0.1" fill="none" />
<path d="M-226.72599997589325,92.84568344802712 L74.31451746904715,233.45738903136626" stroke="#0d6d4d" stroke-width="0.1" fill="none" />
<path d="M-227.5705181336529,90.75604264389648 L28.111091498741978,243.38193551442833" stroke="#0d6d4d" stroke-width="0.1" fill="none" />
<path d="M-228.39577740087103,88.65872131635885 L-19.138218434653208,244.25136354818474" stroke="#0d6d4d" stroke-width="0.1" fill="none" />
<path d="M-229.20170793731506,86.55389695800955 L-65.67548359583422,236.03332572849394" stroke="#0d6d4d" stroke-width="0.1" fill="none" />
<path d="M-229.98824153850876,84.44174769641228 L-109.76926714890504,219.03357731085964" stroke="#0d6d4d" stroke-width="0.1" fill="none" />
<path d="M-230.75531164150453,82.32245227902361 L-149.77904293029863,193.88460046863895" stroke="#0d6d4d" stroke-width="0.1" fill="none" />
<path d="M-231.50285333051562,80.19619005806801 L-184.21623185519096,161.5220725507029" stroke="#0d6d4d" stroke-width="0.1" fill="none" />
<path d="M-232.23080334241098,78.06314097535683 L-211.79958507445585,123.15005384606347" stroke="#0d6d4d" stroke-width="0.1" fill="none" />
<path d="M-232.93910007206827,75.92348554706226 L-231.50285333051562,80.19619005806801" stroke="#0d6d4d" stroke-width="0.1" fill="none" />
<path d="M-233.62768357758767,73.77740484843973 L-242.59296895538606,34.25859619732099" stroke="#0d6d4d" stroke-width="0.1" fill="none" />
<path d="M-234.29649558536474,71.62508049850389 L-244.65731993500182,-12.95360190148477" stroke="#0d6d4d" stroke-width="0.1" fill="none" />
<path d="M-234.9454794950219,69.46669464465856 L-237.61910129777854,-59.683856263114144" stroke="#0d6d4d" stroke-width="0.1" fill="none" />
<path d="M-235.57458038419853,67.30242994728192 L-221.74017267309853,-104.19354981429733" stroke="#0d6d4d" stroke-width="0.1" fill="none" />
<path d="M-236.18374501319872,65.1324695642683 L-197.6113157031597,-144.8266823001416" stroke="#0d6d4d" stroke-width="0.1" fill="none" />
<path d="M-236.77292182949708,62.95699713552781 L-166.1302537849241,-180.07148241006047" stroke="#0d6d4d" stroke-width="0.1" fill="none" />
<path d="M-237.34206097210156,60.776196767445256 L-128.46825192611283,-208.61665381040126" stroke="#0d6d4d" stroke-width="0.1" fill="none" />
<path d="M-237.89111427577288,58.59025301729953 L-86.02653938044494,-229.4001624285056" stroke="#0d6d4d" stroke-width="0.1" fill="none" />
<path d="M-238.42003527510073,56.39935087764505 L-40.38417637471998,-241.64874983855287" stroke="#0d6d4d" stroke-width="0.1" fill="none" />
<path d="M-238.92877920843642,54.20367576065514 L6.760695433795797,-244.9067026384771" stroke="#0d6d4d" stroke-width="0.1" fill="none" />
<path d="M-239.4173030216803,52.003413482433224 L53.65403297037276,-239.05280744223472" stroke="#0d6d4d" stroke-width="0.1" fill="none" />
<path d="M-239.88556537192596,49.798750247284616 L98.55115158954005,-224.3048606704177" stroke="#0d6d4d" stroke-width="0.1" fill="none" />
<path d="M-240.3335266309588,47.58987263196043 L139.78163673785198,-201.2115653507203" stroke="#0d6d4d" stroke-width="0.1" fill="none" />
<path d="M-240.7611488886094,45.376967569867986 L175.81149236933587,-170.6321164109118" stroke="#0d6d4d" stroke-width="0.1" fill="none" />
<path d="M-241.16839595596244,43.16022233524901 L205.30021385794018,-133.70423400133606" stroke="#0d6d4d" stroke-width="0.1" fill="none" />
<path d="M-241.5552333684186,40.93982452733311 L227.15066198734016,-91.80183417946036" stroke="#0d6d4d" stroke-width="0.1" fill="none" />
<path d="M-241.9216283886118,38.71596205446047 L240.54988243714257,-46.483911834922914" stroke="#0d6d4d" stroke-width="0.1" fill="none" />
<path d="M-242.2675500091793,36.48882311817977 L244.99935206081696,0.5634623145014926" stroke="#0d6d4d" stroke-width="0.1" fill="none" />
<path d="M-242.59296895538606,34.25859619732099 L240.3335266309588,47.58987263196053" stroke="#0d6d4d" stroke-width="0.1" fill="none" />
<path d="M-242.89785768760208,32.02547003204478 L226.72599997589325,92.84568344802707" stroke="#0d6d4d" stroke-width="0.1" fill="none" />
<path d="M-243.18219040363311,29.789633607869703 L204.68304535457554,134.6471349282144" stroke="#0d6d4d" stroke-width="0.1" fill="none" />
<path d="M-243.44594304090418,27.551276139678986 L175.02477936541626,171.43898800473406" stroke="#0d6d4d" stroke-width="0.1" fill="none" />
<path d="M-243.68909327849596,25.31058705570647 L138.8546491930441,201.852387643735" stroke="#0d6d4d" stroke-width="0.1" fill="none" />
<path d="M-243.91162053903378,23.067755981507815 L97.51837843171573,224.7557916229272" stroke="#0d6d4d" stroke-width="0.1" fill="none" />
<path d="M-244.1135059904291,20.822972723910883 L52.55389892179247,239.29706999484557" stroke="#0d6d4d" stroke-width="0.1" fill="none" />
<path d="M-244.2947325474732,18.576427254952716 L5.634131404549406,244.93520890904244" stroke="#0d6d4d" stroke-width="0.1" fill="none" />
<path d="M-244.4552848732829,16.32830969580469 L-41.49525613695446,241.46043924032057" stroke="#0d6d4d" stroke-width="0.1" fill="none" />
<path d="M-244.59514938059885,14.078810300679894 L-87.08079672609432,229.00204112965596" stroke="#0d6d4d" stroke-width="0.1" fill="none" />
<path d="M-244.71431423293512,11.828119440734612 L-129.4264628054518,208.0235340668671" stroke="#0d6d4d" stroke-width="0.1" fill="none" />
<path d="M-244.81276934558096,9.576427587956474 L-166.95676759391932,179.3054314698526" stroke="#0d6d4d" stroke-width="0.1" fill="none" />
<path d="M-244.8905063864543,7.3239252990453565 L-198.27538167789544,143.9162013829051" stroke="#0d6d4d" stroke-width="0.1" fill="none" />
<path d="M-244.94751877680676,5.070803199286923 L-222.21708398376532,103.17251371248152" stroke="#0d6d4d" stroke-width="0.1" fill="none" />
<path d="M-244.98380169178066,2.8172519664203266 L-237.89111427577288,58.59025301729953" stroke="#0d6d4d" stroke-width="0.1" fill="none" />
<path d="M-244.99935206081696,0.5634623145014983 L-244.71431423293512,11.828119440734612" stroke="#0d6d4d" stroke-width="0.1" fill="none" />
<path d="M-244.99416856791552,-1.6903750222366476 L-242.43282407849918,-35.37408386550048" stroke="#0d6d4d" stroke-width="0.1" fill="none" />
<path d="M-244.9682516517461,-3.944069305525716 L-231.13152753050142,-81.26018078626868" stroke="#0d6d4d" stroke-width="0.1" fill="none" />
<path d="M-244.92160350561156,-6.197429809203671 L-211.2308936704146,-124.12296145032155" stroke="#0d6d4d" stroke-width="0.1" fill="none" />
<path d="M-244.85422807726198,-8.45026583535544 L-183.47133322937412,-162.36769962968606" stroke="#0d6d4d" stroke-width="0.1" fill="none" />
<path d="M-244.7661310685607,-10.702386730452421 L-148.88565132236496,-194.5714851418757" stroke="#0d6d4d" stroke-width="0.1" fill="none" />
<path d="M-244.65731993500182,-12.95360190148477 L-108.76062153698342,-219.5361637700929" stroke="#0d6d4d" stroke-width="0.1" fill="none" />
<path d="M-244.5278038850792,-15.203720832093994 L-64.58911102756677,-236.33291505135008" stroke="#0d6d4d" stroke-width="0.1" fill="none" />
<path d="M-244.37759387950706,-17.45255309869361 L-18.014537818965742,-244.3368093987663" stroke="#0d6d4d" stroke-width="0.1" fill="none" />
<path d="M-244.20670263029257,-19.699908386585467 L29.230273192680986,-243.25005884702523" stroke="#0d6d4d" stroke-width="0.1" fill="none" />
<path d="M-244.01514459965998,-21.94559650606549 L75.38756065618173,-233.11309636807306" stroke="#0d6d4d" stroke-width="0.1" fill="none" />
<path d="M-243.80293599882668,-24.189427408519133 L118.74002495191918,-214.30307154685772" stroke="#0d6d4d" stroke-width="0.1" fill="none" />
<path d="M-243.57009478663136,-26.43121120250484 L157.6747209842047,-187.5198185860716" stroke="#0d6d4d" stroke-width="0.1" fill="none" />
<path d="M-243.316640668014,-28.67075816982423 L190.74306842346343,-153.75981870567472" stroke="#0d6d4d" stroke-width="0.1" fill="none" />
<path d="M-243.0425950923486,-30.907878781577597 L216.7147466941261,-114.27912567613026" stroke="#0d6d4d" stroke-width="0.1" fill="none" />
<path d="M-242.74798125162755,-33.1423837142032 L234.62346952448956,-70.54663385513814" stroke="#0d6d4d" stroke-width="0.1" fill="none" />
<path d="M-242.43282407849918,-35.37408386550048 L243.80293599882668,-24.18942740851919" stroke="#0d6d4d" stroke-width="0.1" fill="none" />
<path d="M-242.09715024415794,-37.60279037063102 L243.91162053903378,23.06775598150787" stroke="#0d6d4d" stroke-width="0.1" fill="none" />
<path d="M-241.74098815608667,-39.828314618105146 L234.94547949502194,69.46669464465852" stroke="#0d6d4d" stroke-width="0.1" fill="none" />
<path d="M-241.36436795565322,-42.050468265740264 L217.2381015902726,113.28109823555911" stroke="#0d6d4d" stroke-width="0.1" fill="none" />
<path d="M-240.96732151555915,-44.26906325660321 L191.44829662517307,152.88083502950835" stroke="#0d6d4d" stroke-width="0.1" fill="none" />
<path d="M-240.5498824371426,-46.4839118349228 L158.53558420519386,186.79258159979983" stroke="#0d6d4d" stroke-width="0.1" fill="none" />
<path d="M-240.1120860475346,-48.69482656198031 L119.72449444519725,213.75463838205226" stroke="#0d6d4d" stroke-width="0.1" fill="none" />
<path d="M-239.65396939666948,-50.90162033197189 L76.45900885589202,232.7638716914088" stroke="#0d6d4d" stroke-width="0.1" fill="none" />
<path d="M-239.1755712541493,-53.10410638784303 L30.348836456765827,243.11303569681425" stroke="#0d6d4d" stroke-width="0.1" fill="none" />
<path d="M-238.67693210596295,-55.302098337093426 L-16.890476066642034,244.41708577397407" stroke="#0d6d4d" stroke-width="0.1" fill="none" />
<path d="M-238.1580941510598,-57.49541016755107 L-63.50137193650747,236.62750423858452" stroke="#0d6d4d" stroke-width="0.1" fill="none" />
<path d="M-237.61910129777854,-59.683856263114144 L-107.74967485812034,220.03410546542406" stroke="#0d6d4d" stroke-width="0.1" fill="none" />
<path d="M-237.05999916013127,-61.867251419459166 L-147.9891097154201,195.25425323315582" stroke="#0d6d4d" stroke-width="0.1" fill="none" />
<path d="M-236.48083505394308,-64.04541085971549 L-182.72255286939992,163.2098914676722" stroke="#0d6d4d" stroke-width="0.1" fill="none" />
<path d="M-235.88165799284843,-66.21815025010049 L-210.65773321848116,125.09324296400357" stroke="#0d6d4d" stroke-width="0.1" fill="none" />
<path d="M-235.2625186841423,-68.38528571552217 L-230.75531164150453,82.32245227902361" stroke="#0d6d4d" stroke-width="0.1" fill="none" />
<path d="M-234.62346952448954,-70.5466338551382 L-242.2675500091793,36.48882311817977" stroke="#0d6d4d" stroke-width="0.1" fill="none" />
<path d="M-233.96456459549074,-72.70201175787675 L-244.7661310685607,-10.702386730452421" stroke="#0d6d4d" stroke-width="0.1" fill="none" />
<path d="M-233.28585965910463,-74.85123701791807 L-238.1580941510598,-57.49541016755107" stroke="#0d6d4d" stroke-width="0.1" fill="none" />
<path d="M-232.5874121529301,-76.99412775012799 L-222.68929380984582,-102.14929477227027" stroke="#0d6d4d" stroke-width="0.1" fill="none" />
<path d="M-231.86928118534436,-79.13050260545369 L-198.93525270670656,-143.00267560615362" stroke="#0d6d4d" stroke-width="0.1" fill="none" />
<path d="M-231.13152753050142,-81.26018078626868 L-167.77974907022747,-178.5355869341782" stroke="#0d6d4d" stroke-width="0.1" fill="none" />
<path d="M-230.3742136231885,-83.38298206167437 L-130.38193538713597,-207.42601313409247" stroke="#0d6d4d" stroke-width="0.1" fill="none" />
<path d="M-229.59740355354245,-85.49872678275253 L-88.133211688538,-228.5990747957291" stroke="#0d6d4d" stroke-width="0.1" fill="none" />
<path d="M-228.80116306162589,-87.60723589776863 L-42.60545797700739,-241.2670200225664" stroke="#0d6d4d" stroke-width="0.1" fill="none" />
<path d="M-227.98555953186371,-89.70833096732451 L4.507448173027866,-244.95853304379392" stroke="#0d6d4d" stroke-width="0.1" fill="none" />
<path d="M-227.15066198734016,-91.80183417946036 L51.45265298144716,-239.53626969870507" stroke="#0d6d4d" stroke-width="0.1" fill="none" />
<path d="M-226.2965410839584,-93.88756836470063 L96.48354206099673,-225.20196737898158" stroke="#0d6d4d" stroke-width="0.1" fill="none" />
<path d="M-225.4232691044601,-95.96535701104936 L137.9247238768406,-202.48893931150232" stroke="#0d6d4d" stroke-width="0.1" fill="none" />
<path d="M-224.5309199523085,-98.03502427892815 L174.23436333251394,-172.24223243477053" stroke="#0d6d4d" stroke-width="0.1" fill="none" />
<path d="M-223.61956914543475,-100.09639501605506 L204.06154633725754,-135.58718710279115" stroke="#0d6d4d" stroke-width="0.1" fill="none" />
<path d="M-222.68929380984582,-102.14929477227027 L226.2965410839584,-93.88756836470057" stroke="#0d6d4d" stroke-width="0.1" fill="none" />
<path d="M-221.74017267309853,-104.19354981429733 L240.11208604753458,-48.69482656198037" stroke="#0d6d4d" stroke-width="0.1" fill="none" />
<path d="M-220.77228605763628,-106.22898714044683 L244.99416856791552,-1.6903750222366534" stroke="#0d6d4d" stroke-width="0.1" fill="none" />
<path d="M-219.7857158739919,-108.25543449525709 L240.76114888860943,45.37696756986787" stroke="#0d6d4d" stroke-width="0.1" fill="none" />
<path d="M-218.78054561385554,-110.27272038407177 L227.5705181336529,90.75604264389648" stroke="#0d6d4d" stroke-width="0.1" fill="none" />
<path d="M-217.7568603430088,-112.28067408755328 L205.9130387898128,132.7585042712709" stroke="#0d6d4d" stroke-width="0.1" fill="none" />
<path d="M-216.7147466941261,-114.27912567613026 L176.5944856996522,169.82163472442295" stroke="#0d6d4d" stroke-width="0.1" fill="none" />
<path d="M-215.65429285944265,-116.2679060243786 L140.70566689883137,200.56648599044436" stroke="#0d6d4d" stroke-width="0.1" fill="none" />
<path d="M-214.57558858329145,-118.24684682533416 L99.5818396839126,223.84918406187575" stroke="#0d6d4d" stroke-width="0.1" fill="none" />
<path d="M-213.47872515450788,-120.21578060473627 L54.75303185146503,238.80348720877686" stroke="#0d6d4d" stroke-width="0.1" fill="none" />
<path d="M-212.36379539870444,-122.17454073520061 L7.887116425860728,244.8730148352099" stroke="#0d6d4d" stroke-width="0.1" fill="none" />
<path d="M-211.2308936704146,-124.12296145032155 L-39.27224219760727,241.831947833144" stroke="#0d6d4d" stroke-width="0.1" fill="none" />
<path d="M-210.08011584510868,-126.06087785869855 L-84.97046195669137,229.7934302691582" stroke="#0d6d4d" stroke-width="0.1" fill="none" />
<path d="M-208.91155931107892,-127.98812595789332 L-127.50732302214925,209.20535981595998" stroke="#0d6d4d" stroke-width="0.1" fill="none" />
<path d="M-207.72532296119846,-129.90454264830694 L-165.3002251299343,180.8337235473324" stroke="#0d6d4d" stroke-width="0.1" fill="none" />
<path d="M-206.5215071845521,-131.80996574698366 L-196.943068832256,145.7340990946638" stroke="#0d6d4d" stroke-width="0.1" fill="none" />
<path d="M-205.30021385794024,-133.70423400133598 L-221.25856996793874,105.21238147548395" stroke="#0d6d4d" stroke-width="0.1" fill="none" />
<path d="M-204.06154633725757,-135.5871871027911 L-237.34206097210156,60.776196767445256" stroke="#0d6d4d" stroke-width="0.1" fill="none" />
<path d="M-202.80560944874608,-137.4586657003576 L-244.59514938059885,14.078810300679894" stroke="#0d6d4d" stroke-width="0.1" fill="none" />
<path d="M-201.53250948012376,-139.31851141411116 L-242.74798125162755,-33.1423837142032" stroke="#0d6d4d" stroke-width="0.1" fill="none" />
<path d="M-200.2423541715898,-141.16656684859768 L-231.86928118534436,-79.13050260545369" stroke="#0d6d4d" stroke-width="0.1" fill="none" />
<path d="M-198.93525270670656,-143.00267560615362 L-212.36379539870444,-122.17454073520061" stroke="#0d6d4d" stroke-width="0.1" fill="none" />
<path d="M-197.6113157031597,-144.8266823001416 L-184.95723298690382,-160.67302812179824" stroke="#0d6d4d" stroke-width="0.1" fill="none" />
<path d="M-196.27065520339687,-146.63843256810026 L-150.66926563758298,-193.1936137459814" stroke="#0d6d4d" stroke-width="0.1" fill="none" />
<path d="M-194.91338466514517,-148.43777308480867 L-110.77559035379888,-218.5263567210311" stroke="#0d6d4d" stroke-width="0.1" fill="none" />
<path d="M-193.5396189518107,-150.2245515752599 L-66.76046665674106,-235.7287426084782" stroke="#0d6d4d" stroke-width="0.1" fill="none" />
<path d="M-192.14947432275616,-151.99861682755034 L-20.261494139803283,-244.16075003002166" stroke="#0d6d4d" stroke-width="0.1" fill="none" />
<path d="M-190.7430684234635,-153.7598187056746 L26.99131505366581,-243.50866290888658" stroke="#0d6d4d" stroke-width="0.1" fill="none" />
<path d="M-189.32052027557705,-155.508008162232 L73.23990199704505,-233.79674239703007" stroke="#0d6d4d" stroke-width="0.1" fill="none" />
<path d="M-187.88195026683115,-157.2430372510401 L116.7635702384795,-215.3863242296587" stroke="#0d6d4d" stroke-width="0.1" fill="none" />
<path d="M-186.42748014086177,-158.96475913965517 L155.94300497368243,-188.96237509032863" stroke="#0d6d4d" stroke-width="0.1" fill="none" />
<path d="M-184.95723298690382,-160.67302812179824 L189.320520275577,-155.50800816223207" stroke="#0d6d4d" stroke-width="0.1" fill="none" />
<path d="M-183.47133322937412,-162.36769962968606 L215.65429285944265,-116.2679060243786" stroke="#0d6d4d" stroke-width="0.1" fill="none" />
<path d="M-181.96990661734168,-164.04863024626553 L233.9645645954907,-72.70201175787685" stroke="#0d6d4d" stroke-width="0.1" fill="none" />
<path d="M-180.45308021388584,-165.71567771735081 L243.57009478663136,-26.431211202504844" stroke="#0d6d4d" stroke-width="0.1" fill="none" />
<path d="M-178.92098238534254,-167.36870096366266 L244.11350599042913,20.822972723910716" stroke="#0d6d4d" stroke-width="0.1" fill="none" />
<path d="M-177.3737427904424,-169.00756009276617 L235.57458038419855,67.30242994728187" stroke="#0d6d4d" stroke-width="0.1" fill="none" />
<path d="M-175.81149236933584,-170.6321164109118 L218.27101197686758,111.27787439825642" stroke="#0d6d4d" stroke-width="0.1" fill="none" />
<path d="M-174.23436333251408,-172.2422324347704 L192.8465866812768,151.1131827650414" stroke="#0d6d4d" stroke-width="0.1" fill="none" />
<path d="M-172.6424891496182,-173.83777190307046 L160.24723001186695,185.32626709002642" stroke="#0d6d4d" stroke-width="0.1" fill="none" />
<path d="M-171.0360045381455,-175.41859978812815 L121.68581356236893,212.64421642185425" stroke="#0d6d4d" stroke-width="0.1" fill="none" />
<path d="M-169.41504545204836,-176.98458230727442 L78.59702965201818,232.05065595658155" stroke="#0d6d4d" stroke-width="0.1" fill="none" />
<path d="M-167.77974907022747,-178.5355869341782 L32.58401304642532,242.82356165288076" stroke="#0d6d4d" stroke-width="0.1" fill="none" />
<path d="M-166.1302537849241,-180.07148241006047 L-14.641304287508296,244.56212341399188" stroke="#0d6d4d" stroke-width="0.1" fill="none" />
<path d="M-164.4666991900075,-181.5921387548029 L-61.32188626836204,237.20165738141475" stroke="#0d6d4d" stroke-width="0.1" fill="none" />
<path d="M-162.7892260691614,-183.09742727794801 L-105.72096390288365,221.01601252272465" stroke="#0d6d4d" stroke-width="0.1" fill="none" />
<path d="M-161.0979763839698,-184.5872205895899 L-146.18665244387253,196.60738197548537" stroke="#0d6d4d" stroke-width="0.1" fill="none" />
<path d="M-159.3930932619031,-186.06139261115473 L-181.21341039706388,164.88389822012732" stroke="#0d6d4d" stroke-width="0.1" fill="none" />
<path d="M-157.6747209842047,-187.5198185860716 L-209.49805377104576,127.02584566199127" stroke="#0d6d4d" stroke-width="0.1" fill="none" />
<path d="M-155.94300497368258,-188.96237509032855 L-229.98824153850876,84.44174769641228" stroke="#0d6d4d" stroke-width="0.1" fill="none" />
<path d="M-154.19809178240007,-190.38894004291984 L-241.9216283886118,38.71596205446047" stroke="#0d6d4d" stroke-width="0.1" fill="none" />
<path d="M-152.44012907927504,-191.79939271617616 L-244.85422807726198,-8.45026583535544" stroke="#0d6d4d" stroke-width="0.1" fill="none" />
<path d="M-150.66926563758298,-193.1936137459814 L-238.67693210596295,-55.302098337093426" stroke="#0d6d4d" stroke-width="0.1" fill="none" />
<path d="M-148.88565132236496,-194.5714851418757 L-223.61956914543475,-100.09639501605506" stroke="#0d6d4d" stroke-width="0.1" fill="none" />
<path d="M-147.08943707774714,-195.93289029703885 L-200.2423541715898,-141.16656684859768" stroke="#0d6d4d" stroke-width="0.1" fill="none" />
<path d="M-145.28077491416443,-197.27771399816018 L-169.41504545204836,-176.98458230727442" stroke="#0d6d4d" stroke-width="0.1" fill="none" />
<path d="M-143.4598178954976,-198.60584243518787 L-132.28458485551852,-206.21781836107937" stroke="#0d6d4d" stroke-width="0.1" fill="none" />
<path d="M-141.62672012611918,-199.91716321096072 L-90.23242543876992,-227.7786412274795" stroke="#0d6d4d" stroke-width="0.1" fill="none" />
<path d="M-139.781636737852,-201.2115653507203 L-44.82313395472473,-240.8648722053027" stroke="#0d6d4d" stroke-width="0.1" fill="none" />
<path d="M-137.9247238768406,-202.48893931150232 L2.2538194548914765,-244.98963304161416" stroke="#0d6d4d" stroke-width="0.1" fill="none" />
<path d="M-136.05613869033687,-203.7491769914073 L49.24691864548237,-239.99946042423772" stroke="#0d6d4d" stroke-width="0.1" fill="none" />
<path d="M-134.1760393134009,-204.99217173874882 L94.40776730089856,-226.080015643266" stroke="#0d6d4d" stroke-width="0.1" fill="none" />
<path d="M-132.28458485551852,-206.21781836107937 L136.05613869033687,-203.7491769914073" stroke="#0d6d4d" stroke-width="0.1" fill="none" />
<path d="M-130.38193538713597,-207.42601313409247 L172.64248914961811,-173.83777190307057" stroke="#0d6d4d" stroke-width="0.1" fill="none" />
<path d="M-128.46825192611283,-208.61665381040126 L202.80560944874605,-137.45866570035767" stroke="#0d6d4d" stroke-width="0.1" fill="none" />
<path d="M-126.5436964240972,-209.78963962819026 L225.42326910446005,-95.96535701104952" stroke="#0d6d4d" stroke-width="0.1" fill="none" />
<path d="M-124.60843175281757,-210.94487131974412 L239.65396939666945,-50.90162033197195" stroke="#0d6d4d" stroke-width="0.1" fill="none" />
<path d="M-122.66262169030112,-212.08225111984754 L244.96825165174613,-3.9440693055256677" stroke="#0d6d4d" stroke-width="0.1" fill="none" />
<path d="M-120.7064309070127,-213.2016827740592 L241.16839595596244,43.16022233524895" stroke="#0d6d4d" stroke-width="0.1" fill="none" />
<path d="M-118.74002495191925,-214.30307154685767 L228.39577740087103,88.65872131635885" stroke="#0d6d4d" stroke-width="0.1" fill="none" />
<path d="M-116.76357023847956,-215.38632422965867 L207.12560616868885,130.85863849686504" stroke="#0d6d4d" stroke-width="0.1" fill="none" />
<path d="M-114.77723403056112,-216.45134914870317 L178.14924715483164,168.18990973945708" stroke="#0d6d4d" stroke-width="0.1" fill="none" />
<path d="M-112.78118442828479,-217.49805617281552 L142.54477693283582,199.26361075010178" stroke="#0d6d4d" stroke-width="0.1" fill="none" />
<path d="M-110.77559035379888,-218.5263567210311 L101.63687350110546,222.92363254020486" stroke="#0d6d4d" stroke-width="0.1" fill="none" />
<path d="M-108.76062153698342,-219.5361637700929 L56.947531128870615,238.2896949058568" stroke="#0d6d4d" stroke-width="0.1" fill="none" />
<path d="M-106.73644850108639,-220.52739186181597 L10.139433974455766,244.79009759113552" stroke="#0d6d4d" stroke-width="0.1" fill="none" />
<path d="M-104.70324254829266,-221.49995711031954 L-37.04590471784727,242.18299061584852" stroke="#0d6d4d" stroke-width="0.1" fill="none" />
<path d="M-102.66117574522622,-222.4537772091267 L-82.85293628734428,230.56537239699563" stroke="#0d6d4d" stroke-width="0.1" fill="none" />
<path d="M-100.61042090839041,-223.38877143812874 L-125.57739251956792,210.369480885385" stroke="#0d6d4d" stroke-width="0.1" fill="none" />
<path d="M-98.5511515895402,-224.30486067041764 L-163.62969360019332,182.34671198655286" stroke="#0d6d4d" stroke-width="0.1" fill="none" />
<path d="M-96.48354206099684,-225.20196737898152 L-195.59408904295145,147.53966358731466" stroke="#0d6d4d" stroke-width="0.1" fill="none" />
<path d="M-94.40776730089864,-226.08001564326594 L-220.28133123058237,107.24334530068732" stroke="#0d6d4d" stroke-width="0.1" fill="none" />
<path d="M-92.32400297839303,-226.93893115559894 L-236.77292182949708,62.95699713552781" stroke="#0d6d4d" stroke-width="0.1" fill="none" />
<path d="M-90.23242543876992,-227.7786412274795 L-244.4552848732829,16.32830969580469" stroke="#0d6d4d" stroke-width="0.1" fill="none" />
<path d="M-88.133211688538,-228.5990747957291 L-243.0425950923486,-30.907878781577597" stroke="#0d6d4d" stroke-width="0.1" fill="none" />
<path d="M-86.02653938044494,-229.4001624285056 L-232.5874121529301,-76.99412775012799" stroke="#0d6d4d" stroke-width="0.1" fill="none" />
<path d="M-83.91258679844302,-230.1818363311792 L-213.47872515450788,-120.21578060473627" stroke="#0d6d4d" stroke-width="0.1" fill="none" />
<path d="M-81.79153284260117,-230.9440303520697 L-186.42748014086177,-158.96475913965517" stroke="#0d6d4d" stroke-width="0.1" fill="none" />
<path d="M-79.6635570139651,-231.68667998804492 L-152.44012907927504,-191.79939271617616" stroke="#0d6d4d" stroke-width="0.1" fill="none" />
<path d="M-77.52883939936648,-232.4097223899793 L-112.78118442828479,-217.49805617281552" stroke="#0d6d4d" stroke-width="0.1" fill="none" />
<path d="M-75.3875606561817,-233.1130963680731 L-68.9261724656737,-235.10462085895335" stroke="#0d6d4d" stroke-width="0.1" fill="none" />
<path d="M-73.2399019970452,-233.79674239703002 L-22.506735766219304,-243.96402776874623" stroke="#0d6d4d" stroke-width="0.1" fill="none" />
<path d="M-71.08604517451104,-234.46060262109575 L24.750072687385806,-243.7466592631971" stroke="#0d6d4d" stroke-width="0.1" fill="none" />
<path d="M-68.9261724656737,-235.10462085895335 L71.0860451745109,-234.4606026210958" stroke="#0d6d4d" stroke-width="0.1" fill="none" />
<path d="M-66.76046665674106,-235.7287426084782 L114.77723403056108,-216.45134914870317" stroke="#0d6d4d" stroke-width="0.1" fill="none" />
<path d="M-64.58911102756677,-236.33291505135008 L154.19809178239993,-190.38894004291993" stroke="#0d6d4d" stroke-width="0.1" fill="none" />
<path d="M-62.41228933613758,-236.91708705752367 L187.8819502668311,-157.2430372510402" stroke="#0d6d4d" stroke-width="0.1" fill="none" />
<path d="M-60.2301858030244,-237.48120918955496 L214.57558858329148,-118.24684682533413" stroke="#0d6d4d" stroke-width="0.1" fill="none" />
<path d="M-58.04298509579003,-238.02523370678557 L233.28585965910466,-74.85123701791795" stroke="#0d6d4d" stroke-width="0.1" fill="none" />
<path d="M-55.85087231336339,-238.54911456938248 L243.316640668014,-28.670758169824232" stroke="#0d6d4d" stroke-width="0.1" fill="none" />
<path d="M-53.65403297037299,-239.05280744223467 L244.2947325474732,18.57642725495282" stroke="#0d6d4d" stroke-width="0.1" fill="none" />
<path d="M-51.45265298144737,-239.53626969870504 L236.18374501319872,65.1324695642683" stroke="#0d6d4d" stroke-width="0.1" fill="none" />
<path d="M-49.24691864548235,-239.99946042423772 L219.28545047368294,109.26523331121366" stroke="#0d6d4d" stroke-width="0.1" fill="none" />
<path d="M-47.03701662987485,-240.44234041982057 L194.22855647175612,149.33274205912727" stroke="#0d6d4d" stroke-width="0.1" fill="none" />
<path d="M-44.82313395472473,-240.8648722053027 L161.94531437882586,183.84426874597767" stroke="#0d6d4d" stroke-width="0.1" fill="none" />
<path d="M-42.60545797700739,-241.2670200225664 L123.63683462431334,211.51579875763463" stroke="#0d6d4d" stroke-width="0.1" fill="none" />
<path d="M-40.38417637471998,-241.64874983855287 L80.72839892050641,231.31780218507086" stroke="#0d6d4d" stroke-width="0.1" fill="none" />
<path d="M-38.15947713099668,-242.0100293481428 L34.81643210867843,242.5135378803043" stroke="#0d6d4d" stroke-width="0.1" fill="none" />
<path d="M-35.93154851820015,-242.3508279768902 L-12.39089344068272,244.68646419395913" stroke="#0d6d4d" stroke-width="0.1" fill="none" />
<path d="M-33.700579081989304,-242.67111688360976 L-59.13721103741582,237.7557365674194" stroke="#0d6d4d" stroke-width="0.1" fill="none" />
<path d="M-31.4667576253632,-242.97086896281755 L-103.6833059694162,221.9792153857032" stroke="#0d6d4d" stroke-width="0.1" fill="none" />
<path d="M-29.23027319268104,-243.25005884702523 L-144.3718236544272,197.9438721827351" stroke="#0d6d4d" stroke-width="0.1" fill="none" />
<path d="M-26.991315053666064,-243.50866290888655 L-179.6889321542418,166.54395113983662" stroke="#0d6d4d" stroke-width="0.1" fill="none" />
<path d="M-24.750072687385828,-243.7466592631971 L-208.32064487377062,128.94769838727774" stroke="#0d6d4d" stroke-width="0.1" fill="none" />
<path d="M-22.506735766219304,-243.96402776874623 L-229.20170793731506,86.55389695800955" stroke="#0d6d4d" stroke-width="0.1" fill="none" />
<path d="M-20.261494139803283,-244.16075003002166 L-241.5552333684186,40.93982452733311" stroke="#0d6d4d" stroke-width="0.1" fill="none" />
<path d="M-18.014537818965742,-244.3368093987663 L-244.92160350561156,-6.197429809203671" stroke="#0d6d4d" stroke-width="0.1" fill="none" />
<path d="M-15.766056959647525,-244.4921909753871 L-239.1755712541493,-53.10410638784303" stroke="#0d6d4d" stroke-width="0.1" fill="none" />
<path d="M-13.516241846807807,-244.62688161021592 L-224.5309199523085,-98.03502427892815" stroke="#0d6d4d" stroke-width="0.1" fill="none" />
<path d="M-11.26528287832086,-244.74086990462263 L-201.53250948012376,-139.31851141411116" stroke="#0d6d4d" stroke-width="0.1" fill="none" />
<path d="M-9.013370548863866,-244.83414621197934 L-171.0360045381455,-175.41859978812815" stroke="#0d6d4d" stroke-width="0.1" fill="none" />
<path d="M-6.760695433795906,-244.9067026384771 L-134.1760393134009,-204.99217173874882" stroke="#0d6d4d" stroke-width="0.1" fill="none" />
<path d="M-4.507448173027959,-244.9585330437939 L-92.32400297839303,-226.93893115559894" stroke="#0d6d4d" stroke-width="0.1" fill="none" />
<path d="M-2.2538194548917696,-244.98963304161416 L-47.03701662987485,-240.44234041982057" stroke="#0d6d4d" stroke-width="0.1" fill="none" />
</svg>