<?xml version="1.0" encoding="UTF-8"?>
<svg xmlns="http://www.w3.org/2000/svg" xmlns:xlink="http://www.w3.org/1999/xlink"
     width="500.0" height="500" viewBox="-250.0 -250.0 500 500">
<defs>
</defs>
<circle cx="0" cy="0" r="245.0" fill="white" stroke-width="2" stroke="black" />
<path d="M0.0,-245.0 L0.0,-245.0" stroke="#0d6d4d" stroke-width="0.1" fill="none" />
<path d="M2.405243237601656,-244.98819319503536 L50.153852663798006,-239.81157408052272" stroke="#0d6d4d" stroke-width="0.1" fill="none" />
<path d="M4.810254652853934,-244.9527739181059 L98.18346411026954,-224.46604949369828" stroke="#0d6d4d" stroke-width="0.1" fill="none" />
<path d="M7.2148024457509745,-244.8937455829952 L142.05456429099584,-199.6133782192349" stroke="#0d6d4d" stroke-width="0.1" fill="none" />
<path d="M9.618654860971809,-244.81111387897712 L179.90901481174296,-166.30618265557075" stroke="#0d6d4d" stroke-width="0.1" fill="none" />
<path d="M12.021580210217413,-244.70488677026725 L210.14350945006666,-125.95517232733934" stroke="#0d6d4d" stroke-width="0.1" fill="none" />
<path d="M14.423346894541313,-244.5750744952554 L231.47748138438513,-80.2693939926149" stroke="#0d6d4d" stroke-width="0.1" fill="none" />
<path d="M16.823723426671574,-244.42168956551885 L243.00734095796838,-31.18384582660871" stroke="#0d6d4d" stroke-width="0.1" fill="none" />
<path d="M19.22247845332201,-244.24474676461634 L244.24474676461634,19.222478453321997" stroke="#0d6d4d" stroke-width="0.1" fill="none" />
<path d="M21.61938077749053,-244.04426314666335 L235.13728910343008,68.81464432146656" stroke="#0d6d4d" stroke-width="0.1" fill="none" />
<path d="M24.014199380742348,-243.82025803468824 L216.07070976534698,115.49220052236943" stroke="#0d6d4d" stroke-width="0.1" fill="none" />
<path d="M26.406703445476037,-243.5727530187699 L187.8525641334976,157.27814262786222" stroke="#0d6d4d" stroke-width="0.1" fill="none" />
<path d="M28.79666237717022,-243.30177195395694 L151.67801758090928,192.40264806578253" stroke="#0d6d4d" stroke-width="0.1" fill="none" />
<path d="M31.183845826608735,-243.00734095796838 L109.07922484193972,219.37803606533075" stroke="#0d6d4d" stroke-width="0.1" fill="none" />
<path d="M33.568023712082166,-242.68948840867643 L61.86043636871364,237.06177762826366" stroke="#0d6d4d" stroke-width="0.1" fill="none" />
<path d="M35.94896624156363,-242.34824494137135 L12.021580210217403,244.70488677026725" stroke="#0d6d4d" stroke-width="0.1" fill="none" />
<path d="M38.32644393485656,-241.98364344580875 L-38.326443934856535,241.98364344580875" stroke="#0d6d4d" stroke-width="0.1" fill="none" />
<path d="M40.70022764571254,-241.59571906303964 L-87.05117081370189,229.01330454793168" stroke="#0d6d4d" stroke-width="0.1" fill="none" />
<path d="M43.070088583916856,-241.18450918202345 L-132.08888911319505,206.3432222604902" stroke="#0d6d4d" stroke-width="0.1" fill="none" />
<path d="M45.435798337339776,-240.7500534360244 L-171.53204891513823,174.93357652256077" stroke="#0d6d4d" stroke-width="0.1" fill="none" />
<path d="M47.797128893951424,-240.29239369879144 L-203.71005501412358,136.11470708980252" stroke="#0d6d4d" stroke-width="0.1" fill="none" />
<path d="M50.153852663798006,-239.81157408052272 L-227.26002413765238,91.53076766286654" stroke="#0d6d4d" stroke-width="0.1" fill="none" />
<path d="M52.50574250093742,-239.30764092361375 L-241.18450918202345,43.07008858391692" stroke="#0d6d4d" stroke-width="0.1" fill="none" />
<path d="M54.852571725332105,-238.78064279819102 L-244.89374558299522,-7.214802445750862" stroke="#0d6d4d" stroke-width="0.1" fill="none" />
<path d="M57.19411414469682,-238.23063049743075 L-238.23063049743075,-57.19411414469688" stroke="#0d6d4d" stroke-width="0.1" fill="none" />
<path d="M59.53014407629965,-237.65765703266328 L-221.47737681524362,-104.75099789041914" stroke="#0d6d4d" stroke-width="0.1" fill="none" />
<path d="M61.8604363687137,-237.06177762826366 L-195.34356017431327,-147.87120577862498" stroke="#0d6d4d" stroke-width="0.1" fill="none" />
<path d="M64.18476642351767,-236.4430497163291 L-160.93606524104516,-184.72840308065798" stroke="#0d6d4d" stroke-width="0.1" fill="none" />
<path d="M66.50291021694319,-235.80153293114358 L-119.71220416675385,-213.76152173283538" stroke="#0d6d4d" stroke-width="0.1" fill="none" />
<path d="M68.81464432146656,-235.13728910343008 L-73.417992864083,-233.74087858953868" stroke="#0d6d4d" stroke-width="0.1" fill="none" />
<path d="M71.11974592734327,-234.45038225439117 L-24.014199380742326,-243.82025803468824" stroke="#0d6d4d" stroke-width="0.1" fill="none" />
<path d="M73.41799286408288,-233.7408785895387 L26.406703445476037,-243.5727530187699" stroke="#0d6d4d" stroke-width="0.1" fill="none" />
<path d="M75.70916362186212,-233.0088464923126 L75.70916362186212,-233.0088464923126" stroke="#0d6d4d" stroke-width="0.1" fill="none" />
<path d="M77.99303737287468,-232.25435651749004 L121.80500023190032,-212.57596740578828" stroke="#0d6d4d" stroke-width="0.1" fill="none" />
<path d="M80.26939399261491,-231.47748138438513 L162.74184728826404,-183.13954008133624" stroke="#0d6d4d" stroke-width="0.1" fill="none" />
<path d="M82.53801408109392,-230.6782959698401 L196.785845212758,-145.94632960064618" stroke="#0d6d4d" stroke-width="0.1" fill="none" />
<path d="M84.79867898398578,-229.8568773010086 L222.49507758714492,-102.57163569666989" stroke="#0d6d4d" stroke-width="0.1" fill="none" />
<path d="M87.05117081370194,-229.01330454793165 L238.78064279819102,-54.852571725332105" stroke="#0d6d4d" stroke-width="0.1" fill="none" />
<path d="M89.29527247039167,-228.14765901590687 L244.9527739181059,-4.810254652853922" stroke="#0d6d4d" stroke-width="0.1" fill="none" />
<path d="M91.53076766286651,-227.26002413765238 L240.75005343602436,45.435798337339804" stroke="#0d6d4d" stroke-width="0.1" fill="none" />
<path d="M93.757440929447,-226.35048546526525 L226.35048546526525,93.75744092944699" stroke="#0d6d4d" stroke-width="0.1" fill="none" />
<path d="M95.97507765872919,-225.41913066197574 L202.3639564685939,138.10803424267914" stroke="#0d6d4d" stroke-width="0.1" fill="none" />
<path d="M98.18346411026954,-224.46604949369828 L169.8064038236808,176.6091311922151" stroke="#0d6d4d" stroke-width="0.1" fill="none" />
<path d="M100.38238743518534,-223.4913338203796 L130.05678630617984,207.63003717118744" stroke="#0d6d4d" stroke-width="0.1" fill="none" />
<path d="M102.57163569666987,-222.49507758714492 L84.79867898398575,229.8568773010086" stroke="#0d6d4d" stroke-width="0.1" fill="none" />
<path d="M104.75099789041911,-221.47737681524362 L35.94896624156364,242.34824494137135" stroke="#0d6d4d" stroke-width="0.1" fill="none" />
<path d="M106.92026396496881,-220.43832959279428 L-14.423346894541256,244.5750744952554" stroke="#0d6d4d" stroke-width="0.1" fill="none" />
<path d="M109.07922484193972,-219.37803606533075 L-64.18476642351769,236.4430497163291" stroke="#0d6d4d" stroke-width="0.1" fill="none" />
<path d="M111.22767243618895,-218.29659842615013 L-111.22767243618894,218.29659842615013" stroke="#0d6d4d" stroke-width="0.1" fill="none" />
<path d="M113.36539967586575,-217.19412090646287 L-153.55958629677008,190.90430444692657" stroke="#0d6d4d" stroke-width="0.1" fill="none" />
<path d="M115.49220052236942,-216.07070976534698 L-189.38756107387047,155.42635462009326" stroke="#0d6d4d" stroke-width="0.1" fill="none" />
<path d="M117.60786999020772,-214.92647327950644 L-217.1941209064629,113.36539967586572" stroke="#0d6d4d" stroke-width="0.1" fill="none" />
<path d="M119.71220416675396,-213.76152173283532 L-235.80153293114358,66.50291021694318" stroke="#0d6d4d" stroke-width="0.1" fill="none" />
<path d="M121.80500023190032,-212.57596740578828 L-244.42168956551885,16.823723426671602" stroke="#0d6d4d" stroke-width="0.1" fill="none" />
<path d="M123.88605647760622,-211.369924564559 L-242.68948840867643,-33.568023712082095" stroke="#0d6d4d" stroke-width="0.1" fill="none" />
<path d="M125.95517232733934,-210.14350945006666 L-230.67829596984004,-82.538014081094" stroke="#0d6d4d" stroke-width="0.1" fill="none" />
<path d="M128.01214835540745,-208.8968402667526 L-208.8968402667527,-128.01214835540733" stroke="#0d6d4d" stroke-width="0.1" fill="none" />
<path d="M130.0567863061798,-207.63003717118747 L-178.26766390622083,-168.06439243759723" stroke="#0d6d4d" stroke-width="0.1" fill="none" />
<path d="M132.08888911319505,-206.3432222604902 L-140.08805025576504,-200.99835366375083" stroke="#0d6d4d" stroke-width="0.1" fill="none" />
<path d="M134.10826091815514,-205.0365195605603 L-95.97507765872928,-225.41913066197574" stroke="#0d6d4d" stroke-width="0.1" fill="none" />
<path d="M136.11470708980252,-203.71005501412358 L-47.79712889395154,-240.29239369879141" stroke="#0d6d4d" stroke-width="0.1" fill="none" />
<path d="M138.1080342426791,-202.36395646859393 L2.405243237601656,-244.98819319503536" stroke="#0d6d4d" stroke-width="0.1" fill="none" />
<path d="M140.088050255765,-200.99835366375083 L52.50574250093742,-239.30764092361375" stroke="#0d6d4d" stroke-width="0.1" fill="none" />
<path d="M142.05456429099584,-199.6133782192349 L100.38238743518534,-223.4913338203796" stroke="#0d6d4d" stroke-width="0.1" fill="none" />
<path d="M144.00738681165592,-198.20916362186213 L144.00738681165592,-198.20916362186213" stroke="#0d6d4d" stroke-width="0.1" fill="none" />
<path d="M145.94632960064615,-196.785845212758 L181.53302571196497,-164.53194393751951" stroke="#0d6d4d" stroke-width="0.1" fill="none" />
<path d="M147.871205778625,-195.34356017431324 L211.369924564559,-123.88605647760622" stroke="#0d6d4d" stroke-width="0.1" fill="none" />
<path d="M149.78182982202003,-193.88244751696178 L232.25435651749004,-77.99303737287471" stroke="#0d6d4d" stroke-width="0.1" fill="none" />
<path d="M151.6780175809093,-192.4026480657825 L243.30177195395694,-28.796662377170236" stroke="#0d6d4d" stroke-width="0.1" fill="none" />
<path d="M153.55958629677005,-190.9043044469266 L244.04426314666335,21.61938077749053" stroke="#0d6d4d" stroke-width="0.1" fill="none" />
<path d="M155.42635462009315,-189.38756107387056 L234.45038225439117,71.11974592734329" stroke="#0d6d4d" stroke-width="0.1" fill="none" />
<path d="M157.27814262786225,-187.85256413349757 L214.9264732795064,117.60786999020775" stroke="#0d6d4d" stroke-width="0.1" fill="none" />
<path d="M159.114771840895,-186.2994615720076 L186.2994615720076,159.11477184089497" stroke="#0d6d4d" stroke-width="0.1" fill="none" />
<path d="M160.9360652410451,-184.72840308065804 L149.78182982202,193.88244751696178" stroke="#0d6d4d" stroke-width="0.1" fill="none" />
<path d="M162.74184728826404,-183.13954008133624 L106.92026396496881,220.43832959279428" stroke="#0d6d4d" stroke-width="0.1" fill="none" />
<path d="M164.5319439375195,-181.533025711965 L59.53014407629969,237.65765703266328" stroke="#0d6d4d" stroke-width="0.1" fill="none" />
<path d="M166.30618265557072,-179.90901481174296 L9.618654860971786,244.81111387897712" stroke="#0d6d4d" stroke-width="0.1" fill="none" />
<path d="M168.06439243759723,-178.26766390622083 L-40.70022764571242,241.59571906303967" stroke="#0d6d4d" stroke-width="0.1" fill="none" />
<path d="M169.8064038236808,-176.6091311922151 L-89.29527247039172,228.14765901590684" stroke="#0d6d4d" stroke-width="0.1" fill="none" />
<path d="M171.5320489151383,-174.9335765225607 L-134.10826091815508,205.03651956056032" stroke="#0d6d4d" stroke-width="0.1" fill="none" />
<path d="M173.24116139070412,-173.24116139070415 L-173.24116139070412,173.24116139070418" stroke="#0d6d4d" stroke-width="0.1" fill="none" />
<path d="M174.9335765225607,-171.5320489151383 L-205.03651956056024,134.10826091815522" stroke="#0d6d4d" stroke-width="0.1" fill="none" />
<path d="M176.60913119221505,-169.80640382368082 L-228.1476590159069,89.29527247039157" stroke="#0d6d4d" stroke-width="0.1" fill="none" />
<path d="M178.26766390622083,-168.06439243759723 L-241.5957190630396,40.70022764571271" stroke="#0d6d4d" stroke-width="0.1" fill="none" />
<path d="M179.90901481174296,-166.30618265557075 L-244.81111387897712,-9.61865486097182" stroke="#0d6d4d" stroke-width="0.1" fill="none" />
<path d="M181.53302571196497,-164.53194393751951 L-237.65765703266328,-59.53014407629962" stroke="#0d6d4d" stroke-width="0.1" fill="none" />
<path d="M183.1395400813362,-162.74184728826404 L-220.4383295927943,-106.92026396496874" stroke="#0d6d4d" stroke-width="0.1" fill="none" />
<path d="M184.728403080658,-160.93606524104516 L-193.88244751696183,-149.78182982201992" stroke="#0d6d4d" stroke-width="0.1" fill="none" />
<path d="M186.29946157200754,-159.11477184089503 L-159.11477184089495,-186.2994615720076" stroke="#0d6d4d" stroke-width="0.1" fill="none" />
<path d="M187.85256413349757,-157.27814262786225 L-117.60786999020772,-214.92647327950644" stroke="#0d6d4d" stroke-width="0.1" fill="none" />
<path d="M189.38756107387053,-155.42635462009318 L-71.1197459273433,-234.45038225439117" stroke="#0d6d4d" stroke-width="0.1" fill="none" />
<path d="M190.90430444692657,-153.55958629677008 L-21.619380777490605,-244.04426314666335" stroke="#0d6d4d" stroke-width="0.1" fill="none" />
<path d="M192.40264806578247,-151.67801758090934 L28.79666237717022,-243.30177195395694" stroke="#0d6d4d" stroke-width="0.1" fill="none" />
<path d="M193.88244751696172,-149.78182982202006 L77.99303737287468,-232.25435651749004" stroke="#0d6d4d" stroke-width="0.1" fill="none" />
<path d="M195.34356017431324,-147.871205778625 L123.88605647760622,-211.369924564559" stroke="#0d6d4d" stroke-width="0.1" fill="none" />
<path d="M196.785845212758,-145.94632960064618 L164.5319439375195,-181.533025711965" stroke="#0d6d4d" stroke-width="0.1" fill="none" />
<path d="M198.2091636218621,-144.00738681165595 L198.2091636218621,-144.00738681165595" stroke="#0d6d4d" stroke-width="0.1" fill="none" />
<path d="M199.61337821923487,-142.05456429099587 L223.4913338203796,-100.38238743518534" stroke="#0d6d4d" stroke-width="0.1" fill="none" />
<path d="M200.9983536637508,-140.08805025576507 L239.30764092361377,-52.505742500937416" stroke="#0d6d4d" stroke-width="0.1" fill="none" />
<path d="M202.36395646859393,-138.1080342426791 L244.98819319503536,-2.4052432376016846" stroke="#0d6d4d" stroke-width="0.1" fill="none" />
<path d="M203.71005501412355,-136.11470708980255 L240.29239369879144,47.79712889395141" stroke="#0d6d4d" stroke-width="0.1" fill="none" />
<path d="M205.03651956056027,-134.10826091815517 L225.41913066197574,95.9750776587292" stroke="#0d6d4d" stroke-width="0.1" fill="none" />
<path d="M206.34322226049017,-132.0888891131951 L200.9983536637509,140.08805025576495" stroke="#0d6d4d" stroke-width="0.1" fill="none" />
<path d="M207.63003717118744,-130.05678630617984 L168.0643924375972,178.26766390622086" stroke="#0d6d4d" stroke-width="0.1" fill="none" />
<path d="M208.89684026675258,-128.01214835540748 L128.01214835540748,208.89684026675258" stroke="#0d6d4d" stroke-width="0.1" fill="none" />
<path d="M210.14350945006666,-125.95517232733934 L82.53801408109388,230.6782959698401" stroke="#0d6d4d" stroke-width="0.1" fill="none" />
<path d="M211.369924564559,-123.88605647760622 L33.568023712082166,242.68948840867643" stroke="#0d6d4d" stroke-width="0.1" fill="none" />
<path d="M212.57596740578828,-121.80500023190035 L-16.823723426671528,244.42168956551885" stroke="#0d6d4d" stroke-width="0.1" fill="none" />
<path d="M213.7615217328353,-119.71220416675398 L-66.5029102169431,235.8015329311436" stroke="#0d6d4d" stroke-width="0.1" fill="none" />
<path d="M214.92647327950638,-117.60786999020779 L-113.36539967586575,217.19412090646287" stroke="#0d6d4d" stroke-width="0.1" fill="none" />
<path d="M216.07070976534698,-115.49220052236942 L-155.4263546200931,189.3875610738706" stroke="#0d6d4d" stroke-width="0.1" fill="none" />
<path d="M217.19412090646284,-113.36539967586579 L-190.9043044469266,153.55958629677005" stroke="#0d6d4d" stroke-width="0.1" fill="none" />
<path d="M218.2965984261501,-111.22767243618897 L-218.2965984261501,111.227672436189" stroke="#0d6d4d" stroke-width="0.1" fill="none" />
<path d="M219.37803606533078,-109.0792248419397 L-236.44304971632909,64.18476642351776" stroke="#0d6d4d" stroke-width="0.1" fill="none" />
<path d="M220.43832959279425,-106.92026396496884 L-244.57507449525536,14.423346894541439" stroke="#0d6d4d" stroke-width="0.1" fill="none" />
<path d="M221.47737681524364,-104.75099789041909 L-242.34824494137132,-35.948966241563674" stroke="#0d6d4d" stroke-width="0.1" fill="none" />
<path d="M222.49507758714492,-102.57163569666989 L-229.8568773010086,-84.7986789839858" stroke="#0d6d4d" stroke-width="0.1" fill="none" />
<path d="M223.4913338203796,-100.38238743518534 L-207.63003717118747,-130.0567863061798" stroke="#0d6d4d" stroke-width="0.1" fill="none" />
<path d="M224.46604949369828,-98.18346411026957 L-176.60913119221516,-169.80640382368074" stroke="#0d6d4d" stroke-width="0.1" fill="none" />
<path d="M225.41913066197574,-95.97507765872923 L-138.10803424267903,-202.36395646859398" stroke="#0d6d4d" stroke-width="0.1" fill="none" />
<path d="M226.35048546526525,-93.75744092944701 L-93.75744092944714,-226.3504854652652" stroke="#0d6d4d" stroke-width="0.1" fill="none" />
<path d="M227.26002413765238,-91.53076766286651 L-45.43579833733977,-240.7500534360244" stroke="#0d6d4d" stroke-width="0.1" fill="none" />
<path d="M228.14765901590687,-89.29527247039165 L4.810254652853934,-244.9527739181059" stroke="#0d6d4d" stroke-width="0.1" fill="none" />
<path d="M229.01330454793163,-87.05117081370197 L54.852571725332105,-238.78064279819102" stroke="#0d6d4d" stroke-width="0.1" fill="none" />
<path d="M229.8568773010086,-84.7986789839858 L102.57163569666987,-222.49507758714492" stroke="#0d6d4d" stroke-width="0.1" fill="none" />
<path d="M230.67829596984006,-82.53801408109396 L145.94632960064615,-196.785845212758" stroke="#0d6d4d" stroke-width="0.1" fill="none" />
<path d="M231.47748138438513,-80.2693939926149 L183.1395400813362,-162.74184728826404" stroke="#0d6d4d" stroke-width="0.1" fill="none" />
<path d="M232.25435651749004,-77.99303737287471 L212.57596740578828,-121.80500023190035" stroke="#0d6d4d" stroke-width="0.1" fill="none" />
<path d="M233.0088464923126,-75.70916362186213 L233.0088464923126,-75.70916362186213" stroke="#0d6d4d" stroke-width="0.1" fill="none" />
<path d="M233.7408785895387,-73.41799286408288 L243.5727530187699,-26.40670344547604" stroke="#0d6d4d" stroke-width="0.1" fill="none" />
<path d="M234.45038225439117,-71.11974592734332 L243.82025803468824,24.01419938074236" stroke="#0d6d4d" stroke-width="0.1" fill="none" />
<path d="M235.13728910343008,-68.81464432146653 L233.74087858953874,73.41799286408285" stroke="#0d6d4d" stroke-width="0.1" fill="none" />
<path d="M235.80153293114358,-66.5029102169432 L213.7615217328353,119.71220416675398" stroke="#0d6d4d" stroke-width="0.1" fill="none" />
<path d="M236.4430497163291,-64.18476642351767 L184.72840308065804,160.9360652410451" stroke="#0d6d4d" stroke-width="0.1" fill="none" />
<path d="M237.06177762826366,-61.86043636871374 L147.87120577862504,195.3435601743132" stroke="#0d6d4d" stroke-width="0.1" fill="none" />
<path d="M237.65765703266328,-59.53014407629968 L104.7509978904191,221.47737681524362" stroke="#0d6d4d" stroke-width="0.1" fill="none" />
<path d="M238.23063049743075,-57.19411414469683 L57.19411414469685,238.23063049743075" stroke="#0d6d4d" stroke-width="0.1" fill="none" />
<path d="M238.78064279819102,-54.852571725332105 L7.214802445750936,244.8937455829952" stroke="#0d6d4d" stroke-width="0.1" fill="none" />
<path d="M239.30764092361377,-52.505742500937416 L-43.070088583916856,241.18450918202345" stroke="#0d6d4d" stroke-width="0.1" fill="none" />
<path d="M239.81157408052272,-50.15385266379803 L-91.53076766286647,227.2600241376524" stroke="#0d6d4d" stroke-width="0.1" fill="none" />
<path d="M240.29239369879144,-47.79712889395143 L-136.11470708980255,203.71005501412355" stroke="#0d6d4d" stroke-width="0.1" fill="none" />
<path d="M240.75005343602436,-45.43579833733983 L-174.93357652256063,171.53204891513838" stroke="#0d6d4d" stroke-width="0.1" fill="none" />
<path d="M241.18450918202348,-43.07008858391684 L-206.34322226049022,132.08888911319505" stroke="#0d6d4d" stroke-width="0.1" fill="none" />
<path d="M241.59571906303964,-40.700227645712566 L-229.01330454793165,87.05117081370194" stroke="#0d6d4d" stroke-width="0.1" fill="none" />
<path d="M241.98364344580875,-38.32644393485658 L-241.98364344580872,38.32644393485661" stroke="#0d6d4d" stroke-width="0.1" fill="none" />
<path d="M242.34824494137135,-35.94896624156363 L-244.70488677026725,-12.021580210217328" stroke="#0d6d4d" stroke-width="0.1" fill="none" />
<path d="M242.68948840867643,-33.56802371208221 L-237.06177762826363,-61.86043636871379" stroke="#0d6d4d" stroke-width="0.1" fill="none" />
<path d="M243.00734095796838,-31.18384582660871 L-219.37803606533083,-109.07922484193956" stroke="#0d6d4d" stroke-width="0.1" fill="none" />
<path d="M243.30177195395694,-28.796662377170236 L-192.4026480657825,-151.6780175809093" stroke="#0d6d4d" stroke-width="0.1" fill="none" />
<path d="M243.5727530187699,-26.40670344547604 L-157.27814262786228,-187.85256413349754" stroke="#0d6d4d" stroke-width="0.1" fill="none" />
<path d="M243.8202580346882,-24.01419938074239 L-115.49220052236949,-216.07070976534695" stroke="#0d6d4d" stroke-width="0.1" fill="none" />
<path d="M244.04426314666335,-21.61938077749056 L-68.81464432146667,-235.13728910343005" stroke="#0d6d4d" stroke-width="0.1" fill="none" />
<path d="M244.24474676461634,-19.222478453322026 L-19.222478453321962,-244.24474676461634" stroke="#0d6d4d" stroke-width="0.1" fill="none" />
<path d="M244.42168956551885,-16.823723426671574 L31.183845826608735,-243.00734095796838" stroke="#0d6d4d" stroke-width="0.1" fill="none" />
<path d="M244.5750744952554,-14.423346894541302 L80.26939399261491,-231.47748138438513" stroke="#0d6d4d" stroke-width="0.1" fill="none" />
<path d="M244.70488677026725,-12.021580210217442 L125.95517232733934,-210.14350945006666" stroke="#0d6d4d" stroke-width="0.1" fill="none" />
<path d="M244.81111387897712,-9.618654860971825 L166.30618265557072,-179.90901481174296" stroke="#0d6d4d" stroke-width="0.1" fill="none" />
<path d="M244.8937455829952,-7.2148024457510305 L199.61337821923487,-142.05456429099587" stroke="#0d6d4d" stroke-width="0.1" fill="none" />
<path d="M244.9527739181059,-4.810254652853922 L224.46604949369828,-98.18346411026957" stroke="#0d6d4d" stroke-width="0.1" fill="none" />
<path d="M244.98819319503536,-2.4052432376016846 L239.81157408052272,-50.15385266379803" stroke="#0d6d4d" stroke-width="0.1" fill="none" />
<path d="M245.0,-1.5001923289555078e-14 L245.0,-1.5001923289555078e-14" stroke="#0d6d4d" stroke-width="0.1" fill="none" />
<path d="M244.98819319503536,2.405243237601655 L239.81157408052272,50.153852663798006" stroke="#0d6d4d" stroke-width="0.1" fill="none" />
<path d="M244.9527739181059,4.810254652853891 L224.46604949369828,98.18346411026955" stroke="#0d6d4d" stroke-width="0.1" fill="none" />
<path d="M244.8937455829952,7.214802445750946 L199.61337821923493,142.0545642909958" stroke="#0d6d4d" stroke-width="0.1" fill="none" />
<path d="M244.81111387897712,9.61865486097174 L166.30618265557072,179.90901481174296" stroke="#0d6d4d" stroke-width="0.1" fill="none" />
<path d="M244.70488677026725,12.021580210217358 L125.95517232733934,210.14350945006666" stroke="#0d6d4d" stroke-width="0.1" fill="none" />
<path d="M244.5750744952554,14.423346894541325 L80.26939399261497,231.4774813843851" stroke="#0d6d4d" stroke-width="0.1" fill="none" />
<path d="M244.42168956551885,16.8237234266716 L31.183845826608724,243.00734095796838" stroke="#0d6d4d" stroke-width="0.1" fill="none" />
<path d="M244.24474676461634,19.222478453321997 L-19.222478453321873,244.24474676461637" stroke="#0d6d4d" stroke-width="0.1" fill="none" />
<path d="M244.04426314666335,21.61938077749053 L-68.8146443214666,235.13728910343005" stroke="#0d6d4d" stroke-width="0.1" fill="none" />
<path d="M243.82025803468824,24.01419938074236 L-115.49220052236933,216.07070976534703" stroke="#0d6d4d" stroke-width="0.1" fill="none" />
<path d="M243.5727530187699,26.406703445476012 L-157.27814262786222,187.8525641334976" stroke="#0d6d4d" stroke-width="0.1" fill="none" />
<path d="M243.30177195395694,28.79666237717021 L-192.40264806578244,151.6780175809094" stroke="#0d6d4d" stroke-width="0.1" fill="none" />
<path d="M243.00734095796838,31.18384582660868 L-219.3780360653308,109.07922484193963" stroke="#0d6d4d" stroke-width="0.1" fill="none" />
<path d="M242.68948840867643,33.56802371208213 L-237.06177762826363,61.86043636871388" stroke="#0d6d4d" stroke-width="0.1" fill="none" />
<path d="M242.34824494137135,35.9489662415636 L-244.70488677026725,12.021580210217417" stroke="#0d6d4d" stroke-width="0.1" fill="none" />
<path d="M241.98364344580875,38.32644393485649 L-241.98364344580875,-38.32644393485651" stroke="#0d6d4d" stroke-width="0.1" fill="none" />
<path d="M241.59571906303964,40.70022764571254 L-229.01330454793168,-87.05117081370187" stroke="#0d6d4d" stroke-width="0.1" fill="none" />
<path d="M241.18450918202345,43.07008858391687 L-206.34322226049028,-132.08888911319494" stroke="#0d6d4d" stroke-width="0.1" fill="none" />
<path d="M240.75005343602436,45.435798337339804 L-174.9335765225607,-171.5320489151383" stroke="#0d6d4d" stroke-width="0.1" fill="none" />
<path d="M240.29239369879144,47.79712889395141 L-136.11470708980252,-203.71005501412358" stroke="#0d6d4d" stroke-width="0.1" fill="none" />
<path d="M239.81157408052272,50.153852663798006 L-91.53076766286655,-227.26002413765238" stroke="#0d6d4d" stroke-width="0.1" fill="none" />
<path d="M239.30764092361377,52.505742500937394 L-43.070088583916935,-241.18450918202345" stroke="#0d6d4d" stroke-width="0.1" fill="none" />
<path d="M238.78064279819102,54.852571725332076 L7.2148024457509745,-244.8937455829952" stroke="#0d6d4d" stroke-width="0.1" fill="none" />
<path d="M238.23063049743078,57.194114144696805 L57.19411414469682,-238.23063049743075" stroke="#0d6d4d" stroke-width="0.1" fill="none" />
<path d="M237.6576570326633,59.5301440762996 L104.75099789041911,-221.47737681524362" stroke="#0d6d4d" stroke-width="0.1" fill="none" />
<path d="M237.06177762826366,61.86043636871366 L147.871205778625,-195.34356017431324" stroke="#0d6d4d" stroke-width="0.1" fill="none" />
<path d="M236.4430497163291,64.1847664235177 L184.728403080658,-160.93606524104516" stroke="#0d6d4d" stroke-width="0.1" fill="none" />
<path d="M235.80153293114358,66.50291021694323 L213.7615217328353,-119.71220416675398" stroke="#0d6d4d" stroke-width="0.1" fill="none" />
<path d="M235.13728910343008,68.81464432146656 L233.7408785895387,-73.41799286408288" stroke="#0d6d4d" stroke-width="0.1" fill="none" />
<path d="M234.45038225439117,71.11974592734329 L243.8202580346882,-24.01419938074239" stroke="#0d6d4d" stroke-width="0.1" fill="none" />
<path d="M233.74087858953874,73.41799286408285 L243.5727530187699,26.406703445476012" stroke="#0d6d4d" stroke-width="0.1" fill="none" />
<path d="M233.00884649231264,75.7091636218621 L233.00884649231264,75.7091636218621" stroke="#0d6d4d" stroke-width="0.1" fill="none" />
<path d="M232.25435651749004,77.99303737287468 L212.57596740578833,121.80500023190025" stroke="#0d6d4d" stroke-width="0.1" fill="none" />
<path d="M231.47748138438513,80.26939399261487 L183.13954008133624,162.74184728826404" stroke="#0d6d4d" stroke-width="0.1" fill="none" />
<path d="M230.6782959698401,82.53801408109389 L145.9463296006462,196.78584521275798" stroke="#0d6d4d" stroke-width="0.1" fill="none" />
<path d="M229.85687730100864,84.79867898398571 L102.57163569666986,222.49507758714492" stroke="#0d6d4d" stroke-width="0.1" fill="none" />
<path d="M229.01330454793165,87.0511708137019 L54.85257172533212,238.78064279819102" stroke="#0d6d4d" stroke-width="0.1" fill="none" />
<path d="M228.14765901590687,89.29527247039168 L4.810254652853991,244.9527739181059" stroke="#0d6d4d" stroke-width="0.1" fill="none" />
<path d="M227.26002413765238,91.53076766286654 L-45.43579833733968,240.7500534360244" stroke="#0d6d4d" stroke-width="0.1" fill="none" />
<path d="M226.35048546526525,93.75744092944699 L-93.75744092944697,226.35048546526525" stroke="#0d6d4d" stroke-width="0.1" fill="none" />
<path d="M225.41913066197574,95.9750776587292 L-138.10803424267903,202.36395646859395" stroke="#0d6d4d" stroke-width="0.1" fill="none" />
<path d="M224.46604949369828,98.18346411026955 L-176.60913119221507,169.80640382368082" stroke="#0d6d4d" stroke-width="0.1" fill="none" />
<path d="M223.4913338203796,100.38238743518532 L-207.6300371711874,130.05678630617984" stroke="#0d6d4d" stroke-width="0.1" fill="none" />
<path d="M222.49507758714492,102.57163569666982 L-229.85687730100858,84.79867898398587" stroke="#0d6d4d" stroke-width="0.1" fill="none" />
<path d="M221.47737681524364,104.75099789041906 L-242.34824494137132,35.948966241563774" stroke="#0d6d4d" stroke-width="0.1" fill="none" />
<path d="M220.43832959279428,106.92026396496877 L-244.5750744952554,-14.42334689454135" stroke="#0d6d4d" stroke-width="0.1" fill="none" />
<path d="M219.37803606533078,109.07922484193968 L-236.4430497163291,-64.18476642351767" stroke="#0d6d4d" stroke-width="0.1" fill="none" />
<path d="M218.29659842615013,111.22767243618895 L-218.29659842615015,-111.22767243618893" stroke="#0d6d4d" stroke-width="0.1" fill="none" />
<path d="M217.19412090646287,113.36539967586576 L-190.90430444692666,-153.55958629676996" stroke="#0d6d4d" stroke-width="0.1" fill="none" />
<path d="M216.07070976534698,115.49220052236943 L-155.4263546200931,-189.3875610738706" stroke="#0d6d4d" stroke-width="0.1" fill="none" />
<path d="M214.9264732795064,117.60786999020775 L-113.36539967586593,-217.19412090646279" stroke="#0d6d4d" stroke-width="0.1" fill="none" />
<path d="M213.7615217328353,119.71220416675398 L-66.50291021694319,-235.80153293114358" stroke="#0d6d4d" stroke-width="0.1" fill="none" />
<path d="M212.57596740578833,121.80500023190025 L-16.82372342667162,-244.42168956551885" stroke="#0d6d4d" stroke-width="0.1" fill="none" />
<path d="M211.36992456455903,123.88605647760619 L33.568023712082166,-242.68948840867643" stroke="#0d6d4d" stroke-width="0.1" fill="none" />
<path d="M210.14350945006666,125.95517232733928 L82.53801408109392,-230.6782959698401" stroke="#0d6d4d" stroke-width="0.1" fill="none" />
<path d="M208.8968402667526,128.01214835540745 L128.01214835540745,-208.8968402667526" stroke="#0d6d4d" stroke-width="0.1" fill="none" />
<path d="M207.63003717118747,130.0567863061798 L168.06439243759723,-178.26766390622083" stroke="#0d6d4d" stroke-width="0.1" fill="none" />
<path d="M206.34322226049025,132.08888911319497 L200.9983536637508,-140.08805025576507" stroke="#0d6d4d" stroke-width="0.1" fill="none" />
<path d="M205.03651956056027,134.10826091815517 L225.41913066197574,-95.97507765872923" stroke="#0d6d4d" stroke-width="0.1" fill="none" />
<path d="M203.71005501412355,136.11470708980255 L240.29239369879144,-47.79712889395143" stroke="#0d6d4d" stroke-width="0.1" fill="none" />
<path d="M202.3639564685939,138.10803424267914 L244.98819319503536,2.405243237601655" stroke="#0d6d4d" stroke-width="0.1" fill="none" />
<path d="M200.9983536637509,140.08805025576495 L239.30764092361377,52.505742500937394" stroke="#0d6d4d" stroke-width="0.1" fill="none" />
<path d="M199.61337821923493,142.0545642909958 L223.4913338203796,100.38238743518532" stroke="#0d6d4d" stroke-width="0.1" fill="none" />
<path d="M198.20916362186213,144.0073868116559 L198.20916362186213,144.0073868116559" stroke="#0d6d4d" stroke-width="0.1" fill="none" />
<path d="M196.785845212758,145.94632960064615 L164.53194393751954,181.53302571196494" stroke="#0d6d4d" stroke-width="0.1" fill="none" />
<path d="M195.34356017431324,147.871205778625 L123.88605647760622,211.369924564559" stroke="#0d6d4d" stroke-width="0.1" fill="none" />
<path d="M193.88244751696183,149.78182982201994 L77.99303737287472,232.25435651749004" stroke="#0d6d4d" stroke-width="0.1" fill="none" />
<path d="M192.40264806578256,151.67801758090926 L28.7966623771702,243.30177195395694" stroke="#0d6d4d" stroke-width="0.1" fill="none" />
<path d="M190.90430444692663,153.55958629677 L-21.619380777490512,244.04426314666338" stroke="#0d6d4d" stroke-width="0.1" fill="none" />
<path d="M189.38756107387053,155.4263546200932 L-71.11974592734323,234.4503822543912" stroke="#0d6d4d" stroke-width="0.1" fill="none" />
<path d="M187.8525641334976,157.27814262786222 L-117.60786999020775,214.9264732795064" stroke="#0d6d4d" stroke-width="0.1" fill="none" />
<path d="M186.2994615720076,159.11477184089497 L-159.1147718408949,186.29946157200766" stroke="#0d6d4d" stroke-width="0.1" fill="none" />
<path d="M184.72840308065804,160.9360652410451 L-193.88244751696178,149.78182982202003" stroke="#0d6d4d" stroke-width="0.1" fill="none" />
<path d="M183.13954008133624,162.74184728826404 L-220.43832959279428,106.92026396496883" stroke="#0d6d4d" stroke-width="0.1" fill="none" />
<path d="M181.53302571196497,164.53194393751951 L-237.65765703266328,59.530144076299706" stroke="#0d6d4d" stroke-width="0.1" fill="none" />
<path d="M179.90901481174302,166.30618265557067 L-244.81111387897712,9.618654860971908" stroke="#0d6d4d" stroke-width="0.1" fill="none" />
<path d="M178.2676639062209,168.06439243759718 L-241.5957190630396,-40.700227645712616" stroke="#0d6d4d" stroke-width="0.1" fill="none" />
<path d="M176.60913119221516,169.80640382368077 L-228.14765901590692,-89.2952724703915" stroke="#0d6d4d" stroke-width="0.1" fill="none" />
<path d="M174.93357652256077,171.53204891513823 L-205.0365195605603,-134.10826091815514" stroke="#0d6d4d" stroke-width="0.1" fill="none" />
<path d="M173.24116139070415,173.24116139070412 L-173.24116139070418,-173.24116139070412" stroke="#0d6d4d" stroke-width="0.1" fill="none" />
<path d="M171.5320489151383,174.9335765225607 L-134.10826091815522,-205.03651956056024" stroke="#0d6d4d" stroke-width="0.1" fill="none" />
<path d="M169.8064038236808,176.6091311922151 L-89.29527247039178,-228.1476590159068" stroke="#0d6d4d" stroke-width="0.1" fill="none" />
<path d="M168.0643924375972,178.26766390622086 L-40.70022764571251,-241.59571906303964" stroke="#0d6d4d" stroke-width="0.1" fill="none" />
<path d="M166.30618265557072,179.90901481174296 L9.618654860971809,-244.81111387897712" stroke="#0d6d4d" stroke-width="0.1" fill="none" />
<path d="M164.53194393751954,181.53302571196494 L59.53014407629965,-237.65765703266328" stroke="#0d6d4d" stroke-width="0.1" fill="none" />
<path d="M162.74184728826407,183.13954008133618 L106.92026396496881,-220.43832959279428" stroke="#0d6d4d" stroke-width="0.1" fill="none" />
<path d="M160.93606524104516,184.728403080658 L149.78182982202003,-193.88244751696178" stroke="#0d6d4d" stroke-width="0.1" fill="none" />
<path d="M159.11477184089503,186.29946157200757 L186.29946157200754,-159.11477184089503" stroke="#0d6d4d" stroke-width="0.1" fill="none" />
<path d="M157.27814262786225,187.85256413349757 L214.92647327950638,-117.60786999020779" stroke="#0d6d4d" stroke-width="0.1" fill="none" />
<path d="M155.42635462009324,189.38756107387047 L234.45038225439117,-71.11974592734332" stroke="#0d6d4d" stroke-width="0.1" fill="none" />
<path d="M153.55958629677002,190.9043044469266 L244.04426314666335,-21.61938077749056" stroke="#0d6d4d" stroke-width="0.1" fill="none" />
<path d="M151.67801758090928,192.40264806578253 L243.30177195395694,28.79666237717021" stroke="#0d6d4d" stroke-width="0.1" fill="none" />
<path d="M149.78182982202,193.88244751696178 L232.25435651749004,77.99303737287468" stroke="#0d6d4d" stroke-width="0.1" fill="none" />
<path d="M147.87120577862504,195.3435601743132 L211.36992456455903,123.88605647760619" stroke="#0d6d4d" stroke-width="0.1" fill="none" />
<path d="M145.9463296006462,196.78584521275798 L181.53302571196497,164.53194393751951" stroke="#0d6d4d" stroke-width="0.1" fill="none" />
<path d="M144.00738681165595,198.2091636218621 L144.00738681165595,198.2091636218621" stroke="#0d6d4d" stroke-width="0.1" fill="none" />
<path d="M142.05456429099584,199.6133782192349 L100.38238743518541,223.49133382037957" stroke="#0d6d4d" stroke-width="0.1" fill="none" />
<path d="M140.088050255765,200.99835366375083 L52.50574250093743,239.30764092361375" stroke="#0d6d4d" stroke-width="0.1" fill="none" />
<path d="M138.10803424267917,202.36395646859387 L2.4052432376017,244.98819319503536" stroke="#0d6d4d" stroke-width="0.1" fill="none" />
<path d="M136.1147070898026,203.71005501412353 L-47.797128893951445,240.29239369879144" stroke="#0d6d4d" stroke-width="0.1" fill="none" />
<path d="M134.1082609181552,205.03651956056024 L-95.97507765872909,225.4191306619758" stroke="#0d6d4d" stroke-width="0.1" fill="none" />
<path d="M132.08888911319502,206.34322226049022 L-140.08805025576495,200.9983536637509" stroke="#0d6d4d" stroke-width="0.1" fill="none" />
<path d="M130.05678630617984,207.63003717118744 L-178.26766390622075,168.0643924375973" stroke="#0d6d4d" stroke-width="0.1" fill="none" />
<path d="M128.01214835540748,208.89684026675258 L-208.89684026675263,128.01214835540742" stroke="#0d6d4d" stroke-width="0.1" fill="none" />
<path d="M125.95517232733934,210.14350945006666 L-230.67829596984,82.53801408109409" stroke="#0d6d4d" stroke-width="0.1" fill="none" />
<path d="M123.88605647760622,211.369924564559 L-242.68948840867643,33.56802371208219" stroke="#0d6d4d" stroke-width="0.1" fill="none" />
<path d="M121.8050002319003,212.5759674057883 L-244.42168956551885,-16.823723426671513" stroke="#0d6d4d" stroke-width="0.1" fill="none" />
<path d="M119.71220416675403,213.76152173283526 L-235.8015329311436,-66.50291021694309" stroke="#0d6d4d" stroke-width="0.1" fill="none" />
<path d="M117.60786999020779,214.92647327950638 L-217.19412090646293,-113.36539967586565" stroke="#0d6d4d" stroke-width="0.1" fill="none" />
<path d="M115.49220052236946,216.07070976534695 L-189.38756107387053,-155.42635462009318" stroke="#0d6d4d" stroke-width="0.1" fill="none" />
<path d="M113.3653996758658,217.19412090646284 L-153.55958629677005,-190.9043044469266" stroke="#0d6d4d" stroke-width="0.1" fill="none" />
<path d="M111.22767243618898,218.2965984261501 L-111.22767243618901,-218.2965984261501" stroke="#0d6d4d" stroke-width="0.1" fill="none" />
<path d="M109.07922484193972,219.37803606533075 L-64.18476642351777,-236.44304971632909" stroke="#0d6d4d" stroke-width="0.1" fill="none" />
<path d="M106.92026396496881,220.43832959279428 L-14.423346894541236,-244.5750744952554" stroke="#0d6d4d" stroke-width="0.1" fill="none" />
<path d="M104.7509978904191,221.47737681524362 L35.94896624156363,-242.34824494137135" stroke="#0d6d4d" stroke-width="0.1" fill="none" />
<path d="M102.57163569666986,222.49507758714492 L84.79867898398578,-229.8568773010086" stroke="#0d6d4d" stroke-width="0.1" fill="none" />
<path d="M100.38238743518541,223.49133382037957 L130.0567863061798,-207.63003717118747" stroke="#0d6d4d" stroke-width="0.1" fill="none" />
<path d="M98.18346411026958,224.46604949369828 L169.8064038236808,-176.6091311922151" stroke="#0d6d4d" stroke-width="0.1" fill="none" />
<path d="M95.97507765872925,225.41913066197574 L202.36395646859393,-138.1080342426791" stroke="#0d6d4d" stroke-width="0.1" fill="none" />
<path d="M93.75744092944701,226.35048546526525 L226.35048546526525,-93.75744092944701" stroke="#0d6d4d" stroke-width="0.1" fill="none" />
<path d="M91.53076766286652,227.26002413765238 L240.75005343602436,-45.43579833733983" stroke="#0d6d4d" stroke-width="0.1" fill="none" />
<path d="M89.29527247039177,228.14765901590684 L244.9527739181059,4.810254652853891" stroke="#0d6d4d" stroke-width="0.1" fill="none" />
<path d="M87.05117081370193,229.01330454793165 L238.78064279819102,54.852571725332076" stroke="#0d6d4d" stroke-width="0.1" fill="none" />
<path d="M84.79867898398575,229.8568773010086 L222.49507758714492,102.57163569666982" stroke="#0d6d4d" stroke-width="0.1" fill="none" />
<path d="M82.53801408109388,230.6782959698401 L196.785845212758,145.94632960064615" stroke="#0d6d4d" stroke-width="0.1" fill="none" />
<path d="M80.26939399261497,231.4774813843851 L162.74184728826407,183.13954008133618" stroke="#0d6d4d" stroke-width="0.1" fill="none" />
<path d="M77.99303737287472,232.25435651749004 L121.8050002319003,212.5759674057883" stroke="#0d6d4d" stroke-width="0.1" fill="none" />
<path d="M75.70916362186215,233.0088464923126 L75.70916362186215,233.0088464923126" stroke="#0d6d4d" stroke-width="0.1" fill="none" />
<path d="M73.41799286408289,233.7408785895387 L26.406703445476108,243.5727530187699" stroke="#0d6d4d" stroke-width="0.1" fill="none" />
<path d="M71.11974592734327,234.45038225439117 L-24.014199380742237,243.82025803468824" stroke="#0d6d4d" stroke-width="0.1" fill="none" />
<path d="M68.81464432146664,235.13728910343005 L-73.41799286408283,233.74087858953874" stroke="#0d6d4d" stroke-width="0.1" fill="none" />
<path d="M66.50291021694326,235.80153293114356 L-119.71220416675388,213.76152173283535" stroke="#0d6d4d" stroke-width="0.1" fill="none" />
<path d="M64.18476642351774,236.44304971632909 L-160.9360652410451,184.72840308065804" stroke="#0d6d4d" stroke-width="0.1" fill="none" />
<path d="M61.86043636871364,237.06177762826366 L-195.34356017431318,147.87120577862507" stroke="#0d6d4d" stroke-width="0.1" fill="none" />
<path d="M59.53014407629969,237.65765703266328 L-221.47737681524356,104.7509978904192" stroke="#0d6d4d" stroke-width="0.1" fill="none" />
<path d="M57.19411414469685,238.23063049743075 L-238.23063049743072,57.194114144696975" stroke="#0d6d4d" stroke-width="0.1" fill="none" />
<path d="M54.85257172533212,238.78064279819102 L-244.8937455829952,7.214802445750951" stroke="#0d6d4d" stroke-width="0.1" fill="none" />
<path d="M52.50574250093743,239.30764092361375 L-241.18450918202348,-43.070088583916835" stroke="#0d6d4d" stroke-width="0.1" fill="none" />
<path d="M50.153852663798,239.81157408052272 L-227.2600241376524,-91.53076766286645" stroke="#0d6d4d" stroke-width="0.1" fill="none" />
<path d="M47.7971288939515,240.29239369879144 L-203.71005501412367,-136.11470708980247" stroke="#0d6d4d" stroke-width="0.1" fill="none" />
<path d="M45.43579833733985,240.75005343602436 L-171.53204891513823,-174.93357652256077" stroke="#0d6d4d" stroke-width="0.1" fill="none" />
<path d="M43.070088583916906,241.18450918202345 L-132.0888891131952,-206.34322226049008" stroke="#0d6d4d" stroke-width="0.1" fill="none" />
<path d="M40.70022764571258,241.5957190630396 L-87.05117081370196,-229.01330454793163" stroke="#0d6d4d" stroke-width="0.1" fill="none" />
<path d="M38.32644393485659,241.98364344580872 L-38.32644393485663,-241.98364344580872" stroke="#0d6d4d" stroke-width="0.1" fill="none" />
<path d="M35.94896624156364,242.34824494137135 L12.021580210217413,-244.70488677026725" stroke="#0d6d4d" stroke-width="0.1" fill="none" />
<path d="M33.568023712082166,242.68948840867643 L61.8604363687137,-237.06177762826366" stroke="#0d6d4d" stroke-width="0.1" fill="none" />
<path d="M31.183845826608724,243.00734095796838 L109.07922484193972,-219.37803606533075" stroke="#0d6d4d" stroke-width="0.1" fill="none" />
<path d="M28.7966623771702,243.30177195395694 L151.6780175809093,-192.4026480657825" stroke="#0d6d4d" stroke-width="0.1" fill="none" />
<path d="M26.406703445476108,243.5727530187699 L187.85256413349757,-157.27814262786225" stroke="#0d6d4d" stroke-width="0.1" fill="none" />
<path d="M24.014199380742404,243.8202580346882 L216.07070976534698,-115.49220052236942" stroke="#0d6d4d" stroke-width="0.1" fill="none" />
<path d="M21.619380777490573,244.04426314666335 L235.13728910343008,-68.81464432146653" stroke="#0d6d4d" stroke-width="0.1" fill="none" />
<path d="M19.22247845332204,244.24474676461634 L244.24474676461634,-19.222478453322026" stroke="#0d6d4d" stroke-width="0.1" fill="none" />
<path d="M16.823723426671588,244.42168956551885 L243.00734095796838,31.18384582660868" stroke="#0d6d4d" stroke-width="0.1" fill="none" />
<path d="M14.423346894541424,244.57507449525536 L231.47748138438513,80.26939399261487" stroke="#0d6d4d" stroke-width="0.1" fill="none" />
<path d="M12.021580210217403,244.70488677026725 L210.14350945006666,125.95517232733928" stroke="#0d6d4d" stroke-width="0.1" fill="none" />
<path d="M9.618654860971786,244.81111387897712 L179.90901481174302,166.30618265557067" stroke="#0d6d4d" stroke-width="0.1" fill="none" />
<path d="M7.214802445750936,244.8937455829952 L142.05456429099584,199.6133782192349" stroke="#0d6d4d" stroke-width="0.1" fill="none" />
<path d="M4.810254652853991,244.9527739181059 L98.18346411026958,224.46604949369828" stroke="#0d6d4d" stroke-width="0.1" fill="none" />
<path d="M2.4052432376017,244.98819319503536 L50.153852663798,239.81157408052272" stroke="#0d6d4d" stroke-width="0.1" fill="none" />
<path d="M3.0003846579110155e-14,245.0 L3.0003846579110155e-14,245.0" stroke="#0d6d4d" stroke-width="0.1" fill="none" />
<path d="M-2.4052432376016397,244.98819319503536 L-50.15385266379794,239.81157408052272" stroke="#0d6d4d" stroke-width="0.1" fill="none" />
<path d="M-4.810254652853931,244.9527739181059 L-98.18346411026954,224.46604949369828" stroke="#0d6d4d" stroke-width="0.1" fill="none" />
<path d="M-7.214802445750877,244.89374558299522 L-142.05456429099573,199.613378219235" stroke="#0d6d4d" stroke-width="0.1" fill="none" />
<path d="M-9.618654860971725,244.81111387897712 L-179.90901481174296,166.30618265557072" stroke="#0d6d4d" stroke-width="0.1" fill="none" />
<path d="M-12.021580210217342,244.70488677026725 L-210.14350945006663,125.95517232733935" stroke="#0d6d4d" stroke-width="0.1" fill="none" />
<path d="M-14.423346894541256,244.5750744952554 L-231.4774813843851,80.26939399261498" stroke="#0d6d4d" stroke-width="0.1" fill="none" />
<path d="M-16.823723426671528,244.42168956551885 L-243.00734095796838,31.183845826608852" stroke="#0d6d4d" stroke-width="0.1" fill="none" />
<path d="M-19.222478453321873,244.24474676461637 L-244.24474676461634,-19.222478453322076" stroke="#0d6d4d" stroke-width="0.1" fill="none" />
<path d="M-21.619380777490512,244.04426314666338 L-235.1372891034301,-68.81464432146637" stroke="#0d6d4d" stroke-width="0.1" fill="none" />
<path d="M-24.014199380742237,243.82025803468824 L-216.07070976534698,-115.49220052236942" stroke="#0d6d4d" stroke-width="0.1" fill="none" />
<path d="M-26.406703445476047,243.5727530187699 L-187.85256413349762,-157.2781426278622" stroke="#0d6d4d" stroke-width="0.1" fill="none" />
<path d="M-28.796662377170247,243.30177195395694 L-151.6780175809094,-192.40264806578244" stroke="#0d6d4d" stroke-width="0.1" fill="none" />
<path d="M-31.183845826608668,243.00734095796838 L-109.07922484193985,-219.3780360653307" stroke="#0d6d4d" stroke-width="0.1" fill="none" />
<path d="M-33.56802371208222,242.68948840867643 L-61.86043636871367,-237.06177762826366" stroke="#0d6d4d" stroke-width="0.1" fill="none" />
<path d="M-35.94896624156359,242.34824494137135 L-12.021580210217433,-244.70488677026725" stroke="#0d6d4d" stroke-width="0.1" fill="none" />
<path d="M-38.326443934856535,241.98364344580875 L38.32644393485656,-241.98364344580875" stroke="#0d6d4d" stroke-width="0.1" fill="none" />
<path d="M-40.70022764571242,241.59571906303967 L87.05117081370194,-229.01330454793165" stroke="#0d6d4d" stroke-width="0.1" fill="none" />
<path d="M-43.070088583916856,241.18450918202345 L132.08888911319505,-206.3432222604902" stroke="#0d6d4d" stroke-width="0.1" fill="none" />
<path d="M-45.43579833733968,240.7500534360244 L171.5320489151383,-174.9335765225607" stroke="#0d6d4d" stroke-width="0.1" fill="none" />
<path d="M-47.797128893951445,240.29239369879144 L203.71005501412355,-136.11470708980255" stroke="#0d6d4d" stroke-width="0.1" fill="none" />
<path d="M-50.15385266379794,239.81157408052272 L227.26002413765238,-91.53076766286651" stroke="#0d6d4d" stroke-width="0.1" fill="none" />
<path d="M-52.50574250093738,239.30764092361377 L241.18450918202348,-43.07008858391684" stroke="#0d6d4d" stroke-width="0.1" fill="none" />
<path d="M-54.852571725332176,238.78064279819102 L244.8937455829952,7.214802445750946" stroke="#0d6d4d" stroke-width="0.1" fill="none" />
<path d="M-57.1941141446968,238.23063049743078 L238.23063049743078,57.194114144696805" stroke="#0d6d4d" stroke-width="0.1" fill="none" />
<path d="M-59.530144076299635,237.65765703266328 L221.47737681524364,104.75099789041906" stroke="#0d6d4d" stroke-width="0.1" fill="none" />
<path d="M-61.86043636871359,237.06177762826366 L195.34356017431324,147.871205778625" stroke="#0d6d4d" stroke-width="0.1" fill="none" />
<path d="M-64.18476642351769,236.4430497163291 L160.93606524104516,184.728403080658" stroke="#0d6d4d" stroke-width="0.1" fill="none" />
<path d="M-66.5029102169431,235.8015329311436 L119.71220416675403,213.76152173283526" stroke="#0d6d4d" stroke-width="0.1" fill="none" />
<path d="M-68.8146443214666,235.13728910343005 L73.41799286408289,233.7408785895387" stroke="#0d6d4d" stroke-width="0.1" fill="none" />
<path d="M-71.11974592734323,234.4503822543912 L24.014199380742404,243.8202580346882" stroke="#0d6d4d" stroke-width="0.1" fill="none" />
<path d="M-73.41799286408283,233.74087858953874 L-26.406703445476047,243.5727530187699" stroke="#0d6d4d" stroke-width="0.1" fill="none" />
<path d="M-75.70916362186199,233.00884649231267 L-75.70916362186199,233.00884649231267" stroke="#0d6d4d" stroke-width="0.1" fill="none" />
<path d="M-77.99303737287467,232.25435651749004 L-121.80500023190025,212.57596740578833" stroke="#0d6d4d" stroke-width="0.1" fill="none" />
<path d="M-80.26939399261491,231.47748138438513 L-162.74184728826395,183.13954008133626" stroke="#0d6d4d" stroke-width="0.1" fill="none" />
<path d="M-82.53801408109382,230.67829596984012 L-196.78584521275803,145.94632960064615" stroke="#0d6d4d" stroke-width="0.1" fill="none" />
<path d="M-84.79867898398581,229.85687730100858 L-222.49507758714483,102.57163569667007" stroke="#0d6d4d" stroke-width="0.1" fill="none" />
<path d="M-87.05117081370189,229.01330454793168 L-238.78064279819102,54.85257172533214" stroke="#0d6d4d" stroke-width="0.1" fill="none" />
<path d="M-89.29527247039172,228.14765901590684 L-244.9527739181059,4.810254652854006" stroke="#0d6d4d" stroke-width="0.1" fill="none" />
<path d="M-91.53076766286647,227.2600241376524 L-240.7500534360244,-45.43579833733966" stroke="#0d6d4d" stroke-width="0.1" fill="none" />
<path d="M-93.75744092944697,226.35048546526525 L-226.3504854652653,-93.75744092944684" stroke="#0d6d4d" stroke-width="0.1" fill="none" />
<path d="M-95.97507765872909,225.4191306619758 L-202.36395646859393,-138.1080342426791" stroke="#0d6d4d" stroke-width="0.1" fill="none" />
<path d="M-98.18346411026954,224.46604949369828 L-169.80640382368082,-176.60913119221507" stroke="#0d6d4d" stroke-width="0.1" fill="none" />
<path d="M-100.38238743518535,223.4913338203796 L-130.05678630617984,-207.6300371711874" stroke="#0d6d4d" stroke-width="0.1" fill="none" />
<path d="M-102.5716356966698,222.49507758714495 L-84.79867898398588,-229.85687730100855" stroke="#0d6d4d" stroke-width="0.1" fill="none" />
<path d="M-104.75099789041916,221.4773768152436 L-35.94896624156357,-242.34824494137135" stroke="#0d6d4d" stroke-width="0.1" fill="none" />
<path d="M-106.92026396496875,220.43832959279428 L14.423346894541313,-244.5750744952554" stroke="#0d6d4d" stroke-width="0.1" fill="none" />
<path d="M-109.07922484193978,219.37803606533072 L64.18476642351767,-236.4430497163291" stroke="#0d6d4d" stroke-width="0.1" fill="none" />
<path d="M-111.22767243618894,218.29659842615013 L111.22767243618895,-218.29659842615013" stroke="#0d6d4d" stroke-width="0.1" fill="none" />
<path d="M-113.36539967586575,217.19412090646287 L153.55958629677005,-190.9043044469266" stroke="#0d6d4d" stroke-width="0.1" fill="none" />
<path d="M-115.49220052236933,216.07070976534703 L189.38756107387053,-155.42635462009318" stroke="#0d6d4d" stroke-width="0.1" fill="none" />
<path d="M-117.60786999020775,214.9264732795064 L217.19412090646284,-113.36539967586579" stroke="#0d6d4d" stroke-width="0.1" fill="none" />
<path d="M-119.71220416675388,213.76152173283535 L235.80153293114358,-66.5029102169432" stroke="#0d6d4d" stroke-width="0.1" fill="none" />
<path d="M-121.80500023190025,212.57596740578833 L244.42168956551885,-16.823723426671574" stroke="#0d6d4d" stroke-width="0.1" fill="none" />
<path d="M-123.88605647760627,211.36992456455897 L242.68948840867643,33.56802371208213" stroke="#0d6d4d" stroke-width="0.1" fill="none" />
<path d="M-125.95517232733928,210.14350945006666 L230.6782959698401,82.53801408109389" stroke="#0d6d4d" stroke-width="0.1" fill="none" />
<path d="M-128.01214835540753,208.89684026675255 L208.8968402667526,128.01214835540745" stroke="#0d6d4d" stroke-width="0.1" fill="none" />
<path d="M-130.0567863061798,207.63003717118747 L178.2676639062209,168.06439243759718" stroke="#0d6d4d" stroke-width="0.1" fill="none" />
<path d="M-132.08888911319505,206.3432222604902 L140.088050255765,200.99835366375083" stroke="#0d6d4d" stroke-width="0.1" fill="none" />
<path d="M-134.10826091815508,205.03651956056032 L95.97507765872925,225.41913066197574" stroke="#0d6d4d" stroke-width="0.1" fill="none" />
<path d="M-136.11470708980255,203.71005501412355 L47.7971288939515,240.29239369879144" stroke="#0d6d4d" stroke-width="0.1" fill="none" />
<path d="M-138.10803424267903,202.36395646859395 L-2.4052432376016397,244.98819319503536" stroke="#0d6d4d" stroke-width="0.1" fill="none" />
<path d="M-140.08805025576495,200.9983536637509 L-52.50574250093738,239.30764092361377" stroke="#0d6d4d" stroke-width="0.1" fill="none" />
<path d="M-142.05456429099573,199.613378219235 L-100.38238743518535,223.4913338203796" stroke="#0d6d4d" stroke-width="0.1" fill="none" />
<path d="M-144.0073868116559,198.20916362186213 L-144.0073868116559,198.20916362186213" stroke="#0d6d4d" stroke-width="0.1" fill="none" />
<path d="M-145.94632960064627,196.78584521275795 L-181.5330257119649,164.53194393751957" stroke="#0d6d4d" stroke-width="0.1" fill="none" />
<path d="M-147.871205778625,195.34356017431324 L-211.36992456455891,123.88605647760635" stroke="#0d6d4d" stroke-width="0.1" fill="none" />
<path d="M-149.78182982202003,193.88244751696175 L-232.25435651749,77.99303737287484" stroke="#0d6d4d" stroke-width="0.1" fill="none" />
<path d="M-151.67801758090926,192.40264806578256 L-243.30177195395694,28.79666237717021" stroke="#0d6d4d" stroke-width="0.1" fill="none" />
<path d="M-153.55958629677008,190.90430444692657 L-244.04426314666338,-21.6193807774905" stroke="#0d6d4d" stroke-width="0.1" fill="none" />
<path d="M-155.4263546200931,189.3875610738706 L-234.4503822543912,-71.11974592734322" stroke="#0d6d4d" stroke-width="0.1" fill="none" />
<path d="M-157.27814262786222,187.8525641334976 L-214.9264732795065,-117.60786999020763" stroke="#0d6d4d" stroke-width="0.1" fill="none" />
<path d="M-159.1147718408949,186.29946157200766 L-186.29946157200754,-159.11477184089503" stroke="#0d6d4d" stroke-width="0.1" fill="none" />
<path d="M-160.9360652410451,184.72840308065804 L-149.7818298220202,-193.88244751696163" stroke="#0d6d4d" stroke-width="0.1" fill="none" />
<path d="M-162.74184728826395,183.13954008133626 L-106.92026396496883,-220.43832959279425" stroke="#0d6d4d" stroke-width="0.1" fill="none" />
<path d="M-164.53194393751951,181.53302571196497 L-59.53014407629972,-237.65765703266328" stroke="#0d6d4d" stroke-width="0.1" fill="none" />
<path d="M-166.30618265557075,179.90901481174296 L-9.618654860971924,-244.81111387897712" stroke="#0d6d4d" stroke-width="0.1" fill="none" />
<path d="M-168.06439243759718,178.2676639062209 L40.70022764571254,-241.59571906303964" stroke="#0d6d4d" stroke-width="0.1" fill="none" />
<path d="M-169.80640382368082,176.60913119221505 L89.29527247039167,-228.14765901590687" stroke="#0d6d4d" stroke-width="0.1" fill="none" />
<path d="M-171.53204891513823,174.93357652256077 L134.10826091815514,-205.0365195605603" stroke="#0d6d4d" stroke-width="0.1" fill="none" />
<path d="M-173.24116139070412,173.24116139070418 L173.24116139070412,-173.24116139070415" stroke="#0d6d4d" stroke-width="0.1" fill="none" />
<path d="M-174.93357652256063,171.53204891513838 L205.03651956056027,-134.10826091815517" stroke="#0d6d4d" stroke-width="0.1" fill="none" />
<path d="M-176.60913119221507,169.80640382368082 L228.14765901590687,-89.29527247039165" stroke="#0d6d4d" stroke-width="0.1" fill="none" />
<path d="M-178.26766390622075,168.0643924375973 L241.59571906303964,-40.700227645712566" stroke="#0d6d4d" stroke-width="0.1" fill="none" />
<path d="M-179.90901481174296,166.30618265557072 L244.81111387897712,9.61865486097174" stroke="#0d6d4d" stroke-width="0.1" fill="none" />
<path d="M-181.5330257119649,164.53194393751957 L237.6576570326633,59.5301440762996" stroke="#0d6d4d" stroke-width="0.1" fill="none" />
<path d="M-183.13954008133618,162.74184728826407 L220.43832959279428,106.92026396496877" stroke="#0d6d4d" stroke-width="0.1" fill="none" />
<path d="M-184.72840308065804,160.93606524104507 L193.88244751696183,149.78182982201994" stroke="#0d6d4d" stroke-width="0.1" fill="none" />
<path d="M-186.29946157200746,159.11477184089512 L159.11477184089503,186.29946157200757" stroke="#0d6d4d" stroke-width="0.1" fill="none" />
<path d="M-187.85256413349754,157.27814262786228 L117.60786999020779,214.92647327950638" stroke="#0d6d4d" stroke-width="0.1" fill="none" />
<path d="M-189.38756107387047,155.42635462009326 L71.11974592734327,234.45038225439117" stroke="#0d6d4d" stroke-width="0.1" fill="none" />
<path d="M-190.9043044469266,153.55958629677005 L21.619380777490573,244.04426314666335" stroke="#0d6d4d" stroke-width="0.1" fill="none" />
<path d="M-192.40264806578244,151.6780175809094 L-28.796662377170247,243.30177195395694" stroke="#0d6d4d" stroke-width="0.1" fill="none" />
<path d="M-193.88244751696178,149.78182982202003 L-77.99303737287467,232.25435651749004" stroke="#0d6d4d" stroke-width="0.1" fill="none" />
<path d="M-195.34356017431318,147.87120577862507 L-123.88605647760627,211.36992456455897" stroke="#0d6d4d" stroke-width="0.1" fill="none" />
<path d="M-196.78584521275803,145.94632960064615 L-164.53194393751951,181.53302571196497" stroke="#0d6d4d" stroke-width="0.1" fill="none" />
<path d="M-198.2091636218621,144.00738681165595 L-198.2091636218621,144.00738681165595" stroke="#0d6d4d" stroke-width="0.1" fill="none" />
<path d="M-199.61337821923482,142.05456429099596 L-223.49133382037957,100.38238743518542" stroke="#0d6d4d" stroke-width="0.1" fill="none" />
<path d="M-200.99835366375083,140.08805025576504 L-239.30764092361372,52.50574250093756" stroke="#0d6d4d" stroke-width="0.1" fill="none" />
<path d="M-202.36395646859384,138.1080342426792 L-244.98819319503536,2.405243237601606" stroke="#0d6d4d" stroke-width="0.1" fill="none" />
<path d="M-203.71005501412358,136.11470708980252 L-240.2923936987915,-47.79712889395122" stroke="#0d6d4d" stroke-width="0.1" fill="none" />
<path d="M-205.03651956056024,134.10826091815522 L-225.41913066197574,-95.97507765872918" stroke="#0d6d4d" stroke-width="0.1" fill="none" />
<path d="M-206.34322226049022,132.08888911319505 L-200.9983536637509,-140.08805025576495" stroke="#0d6d4d" stroke-width="0.1" fill="none" />
<path d="M-207.6300371711874,130.05678630617984 L-168.0643924375973,-178.26766390622075" stroke="#0d6d4d" stroke-width="0.1" fill="none" />
<path d="M-208.89684026675263,128.01214835540742 L-128.01214835540762,-208.8968402667525" stroke="#0d6d4d" stroke-width="0.1" fill="none" />
<path d="M-210.14350945006663,125.95517232733935 L-82.5380140810939,-230.6782959698401" stroke="#0d6d4d" stroke-width="0.1" fill="none" />
<path d="M-211.36992456455891,123.88605647760635 L-33.5680237120822,-242.68948840867643" stroke="#0d6d4d" stroke-width="0.1" fill="none" />
<path d="M-212.57596740578828,121.80500023190032 L16.823723426671574,-244.42168956551885" stroke="#0d6d4d" stroke-width="0.1" fill="none" />
<path d="M-213.76152173283526,119.71220416675406 L66.50291021694319,-235.80153293114358" stroke="#0d6d4d" stroke-width="0.1" fill="none" />
<path d="M-214.92647327950644,117.60786999020772 L113.36539967586575,-217.19412090646287" stroke="#0d6d4d" stroke-width="0.1" fill="none" />
<path d="M-216.07070976534695,115.49220052236947 L155.42635462009315,-189.38756107387056" stroke="#0d6d4d" stroke-width="0.1" fill="none" />
<path d="M-217.1941209064629,113.36539967586572 L190.90430444692657,-153.55958629677008" stroke="#0d6d4d" stroke-width="0.1" fill="none" />
<path d="M-218.2965984261501,111.227672436189 L218.2965984261501,-111.22767243618897" stroke="#0d6d4d" stroke-width="0.1" fill="none" />
<path d="M-219.3780360653308,109.07922484193963 L236.4430497163291,-64.18476642351767" stroke="#0d6d4d" stroke-width="0.1" fill="none" />
<path d="M-220.43832959279428,106.92026396496883 L244.5750744952554,-14.423346894541302" stroke="#0d6d4d" stroke-width="0.1" fill="none" />
<path d="M-221.47737681524356,104.7509978904192 L242.34824494137135,35.9489662415636" stroke="#0d6d4d" stroke-width="0.1" fill="none" />
<path d="M-222.49507758714483,102.57163569667007 L229.85687730100864,84.79867898398571" stroke="#0d6d4d" stroke-width="0.1" fill="none" />
<path d="M-223.49133382037957,100.38238743518542 L207.63003717118747,130.0567863061798" stroke="#0d6d4d" stroke-width="0.1" fill="none" />
<path d="M-224.4660494936983,98.1834641102695 L176.60913119221516,169.80640382368077" stroke="#0d6d4d" stroke-width="0.1" fill="none" />
<path d="M-225.41913066197574,95.97507765872926 L138.10803424267917,202.36395646859387" stroke="#0d6d4d" stroke-width="0.1" fill="none" />
<path d="M-226.35048546526528,93.75744092944693 L93.75744092944701,226.35048546526525" stroke="#0d6d4d" stroke-width="0.1" fill="none" />
<path d="M-227.26002413765238,91.53076766286654 L45.43579833733985,240.75005343602436" stroke="#0d6d4d" stroke-width="0.1" fill="none" />
<path d="M-228.1476590159069,89.29527247039157 L-4.810254652853931,244.9527739181059" stroke="#0d6d4d" stroke-width="0.1" fill="none" />
<path d="M-229.01330454793165,87.05117081370194 L-54.852571725332176,238.78064279819102" stroke="#0d6d4d" stroke-width="0.1" fill="none" />
<path d="M-229.85687730100858,84.79867898398587 L-102.5716356966698,222.49507758714495" stroke="#0d6d4d" stroke-width="0.1" fill="none" />
<path d="M-230.67829596984,82.53801408109409 L-145.94632960064627,196.78584521275795" stroke="#0d6d4d" stroke-width="0.1" fill="none" />
<path d="M-231.4774813843851,80.26939399261498 L-183.13954008133618,162.74184728826407" stroke="#0d6d4d" stroke-width="0.1" fill="none" />
<path d="M-232.25435651749,77.99303737287484 L-212.57596740578828,121.80500023190032" stroke="#0d6d4d" stroke-width="0.1" fill="none" />
<path d="M-233.0088464923126,75.70916362186215 L-233.0088464923126,75.70916362186215" stroke="#0d6d4d" stroke-width="0.1" fill="none" />
<path d="M-233.74087858953874,73.41799286408279 L-243.5727530187699,26.406703445476122" stroke="#0d6d4d" stroke-width="0.1" fill="none" />
<path d="M-234.45038225439117,71.11974592734329 L-243.82025803468824,-24.014199380742223" stroke="#0d6d4d" stroke-width="0.1" fill="none" />
<path d="M-235.1372891034301,68.81464432146646 L-233.74087858953877,-73.4179928640827" stroke="#0d6d4d" stroke-width="0.1" fill="none" />
<path d="M-235.80153293114358,66.50291021694318 L-213.76152173283532,-119.71220416675396" stroke="#0d6d4d" stroke-width="0.1" fill="none" />
<path d="M-236.44304971632909,64.18476642351776 L-184.72840308065804,-160.93606524104507" stroke="#0d6d4d" stroke-width="0.1" fill="none" />
<path d="M-237.06177762826363,61.86043636871388 L-147.87120577862507,-195.34356017431318" stroke="#0d6d4d" stroke-width="0.1" fill="none" />
<path d="M-237.65765703266328,59.530144076299706 L-104.75099789041921,-221.47737681524356" stroke="#0d6d4d" stroke-width="0.1" fill="none" />
<path d="M-238.23063049743072,57.194114144696975 L-57.19411414469678,-238.23063049743078" stroke="#0d6d4d" stroke-width="0.1" fill="none" />
<path d="M-238.78064279819102,54.85257172533214 L-7.214802445751184,-244.8937455829952" stroke="#0d6d4d" stroke-width="0.1" fill="none" />
<path d="M-239.30764092361372,52.50574250093756 L43.070088583916856,-241.18450918202345" stroke="#0d6d4d" stroke-width="0.1" fill="none" />
<path d="M-239.81157408052272,50.153852663798006 L91.53076766286651,-227.26002413765238" stroke="#0d6d4d" stroke-width="0.1" fill="none" />
<path d="M-240.29239369879147,47.79712889395131 L136.11470708980252,-203.71005501412358" stroke="#0d6d4d" stroke-width="0.1" fill="none" />
<path d="M-240.7500534360244,45.435798337339754 L174.9335765225607,-171.5320489151383" stroke="#0d6d4d" stroke-width="0.1" fill="none" />
<path d="M-241.18450918202345,43.07008858391692 L206.34322226049017,-132.0888891131951" stroke="#0d6d4d" stroke-width="0.1" fill="none" />
<path d="M-241.5957190630396,40.70022764571271 L229.01330454793163,-87.05117081370197" stroke="#0d6d4d" stroke-width="0.1" fill="none" />
<path d="M-241.98364344580872,38.32644393485661 L241.98364344580875,-38.32644393485658" stroke="#0d6d4d" stroke-width="0.1" fill="none" />
<path d="M-242.34824494137132,35.948966241563774 L244.70488677026725,12.021580210217358" stroke="#0d6d4d" stroke-width="0.1" fill="none" />
<path d="M-242.68948840867643,33.56802371208219 L237.06177762826366,61.86043636871366" stroke="#0d6d4d" stroke-width="0.1" fill="none" />
<path d="M-243.00734095796838,31.183845826608852 L219.37803606533078,109.07922484193968" stroke="#0d6d4d" stroke-width="0.1" fill="none" />
<path d="M-243.30177195395694,28.79666237717021 L192.40264806578256,151.67801758090926" stroke="#0d6d4d" stroke-width="0.1" fill="none" />
<path d="M-243.5727530187699,26.406703445476122 L157.27814262786225,187.85256413349757" stroke="#0d6d4d" stroke-width="0.1" fill="none" />
<path d="M-243.82025803468824,24.014199380742312 L115.49220052236946,216.07070976534695" stroke="#0d6d4d" stroke-width="0.1" fill="none" />
<path d="M-244.04426314666335,21.619380777490587 L68.81464432146664,235.13728910343005" stroke="#0d6d4d" stroke-width="0.1" fill="none" />
<path d="M-244.24474676461634,19.222478453322164 L19.22247845332204,244.24474676461634" stroke="#0d6d4d" stroke-width="0.1" fill="none" />
<path d="M-244.42168956551885,16.823723426671602 L-31.183845826608668,243.00734095796838" stroke="#0d6d4d" stroke-width="0.1" fill="none" />
<path d="M-244.57507449525536,14.423346894541439 L-80.26939399261491,231.47748138438513" stroke="#0d6d4d" stroke-width="0.1" fill="none" />
<path d="M-244.70488677026725,12.021580210217417 L-125.95517232733928,210.14350945006666" stroke="#0d6d4d" stroke-width="0.1" fill="none" />
<path d="M-244.81111387897712,9.618654860971908 L-166.30618265557075,179.90901481174296" stroke="#0d6d4d" stroke-width="0.1" fill="none" />
<path d="M-244.8937455829952,7.214802445750951 L-199.61337821923482,142.05456429099596" stroke="#0d6d4d" stroke-width="0.1" fill="none" />
<path d="M-244.9527739181059,4.810254652854006 L-224.4660494936983,98.1834641102695" stroke="#0d6d4d" stroke-width="0.1" fill="none" />
<path d="M-244.98819319503536,2.405243237601606 L-239.81157408052272,50.153852663798006" stroke="#0d6d4d" stroke-width="0.1" fill="none" />
<path d="M-245.0,4.500576986866523e-14 L-245.0,4.500576986866523e-14" stroke="#0d6d4d" stroke-width="0.1" fill="none" />
<path d="M-244.98819319503536,-2.405243237601516 L-239.81157408052275,-50.15385266379792" stroke="#0d6d4d" stroke-width="0.1" fill="none" />
<path d="M-244.9527739181059,-4.810254652853915 L-224.46604949369834,-98.18346411026941" stroke="#0d6d4d" stroke-width="0.1" fill="none" />
<path d="M-244.89374558299522,-7.214802445750862 L-199.61337821923487,-142.05456429099587" stroke="#0d6d4d" stroke-width="0.1" fill="none" />
<path d="M-244.81111387897712,-9.61865486097182 L-166.30618265557086,-179.9090148117428" stroke="#0d6d4d" stroke-width="0.1" fill="none" />
<path d="M-244.70488677026725,-12.021580210217328 L-125.95517232733935,-210.14350945006663" stroke="#0d6d4d" stroke-width="0.1" fill="none" />
<path d="M-244.5750744952554,-14.42334689454135 L-80.269393992615,-231.4774813843851" stroke="#0d6d4d" stroke-width="0.1" fill="none" />
<path d="M-244.42168956551885,-16.823723426671513 L-31.18384582660886,-243.00734095796835" stroke="#0d6d4d" stroke-width="0.1" fill="none" />
<path d="M-244.24474676461634,-19.222478453322076 L19.22247845332201,-244.24474676461634" stroke="#0d6d4d" stroke-width="0.1" fill="none" />
<path d="M-244.04426314666338,-21.6193807774905 L68.81464432146656,-235.13728910343008" stroke="#0d6d4d" stroke-width="0.1" fill="none" />
<path d="M-243.82025803468824,-24.014199380742223 L115.49220052236942,-216.07070976534698" stroke="#0d6d4d" stroke-width="0.1" fill="none" />
<path d="M-243.5727530187699,-26.406703445476037 L157.27814262786225,-187.85256413349757" stroke="#0d6d4d" stroke-width="0.1" fill="none" />
<path d="M-243.30177195395694,-28.796662377170126 L192.40264806578247,-151.67801758090934" stroke="#0d6d4d" stroke-width="0.1" fill="none" />
<path d="M-243.00734095796838,-31.183845826608756 L219.37803606533078,-109.0792248419397" stroke="#0d6d4d" stroke-width="0.1" fill="none" />
<path d="M-242.68948840867643,-33.568023712082095 L237.06177762826366,-61.86043636871374" stroke="#0d6d4d" stroke-width="0.1" fill="none" />
<path d="M-242.34824494137132,-35.948966241563674 L244.70488677026725,-12.021580210217442" stroke="#0d6d4d" stroke-width="0.1" fill="none" />
<path d="M-241.98364344580875,-38.32644393485651 L241.98364344580875,38.32644393485649" stroke="#0d6d4d" stroke-width="0.1" fill="none" />
<path d="M-241.5957190630396,-40.700227645712616 L229.01330454793165,87.0511708137019" stroke="#0d6d4d" stroke-width="0.1" fill="none" />
<path d="M-241.18450918202348,-43.070088583916835 L206.34322226049025,132.08888911319497" stroke="#0d6d4d" stroke-width="0.1" fill="none" />
<path d="M-240.7500534360244,-45.43579833733966 L174.93357652256077,171.53204891513823" stroke="#0d6d4d" stroke-width="0.1" fill="none" />
<path d="M-240.2923936987915,-47.79712889395122 L136.1147070898026,203.71005501412353" stroke="#0d6d4d" stroke-width="0.1" fill="none" />
<path d="M-239.81157408052275,-50.15385266379792 L91.53076766286652,227.26002413765238" stroke="#0d6d4d" stroke-width="0.1" fill="none" />
<path d="M-239.30764092361375,-52.505742500937465 L43.070088583916906,241.18450918202345" stroke="#0d6d4d" stroke-width="0.1" fill="none" />
<path d="M-238.78064279819105,-54.85257172533204 L-7.214802445750877,244.89374558299522" stroke="#0d6d4d" stroke-width="0.1" fill="none" />
<path d="M-238.23063049743075,-57.19411414469688 L-57.1941141446968,238.23063049743078" stroke="#0d6d4d" stroke-width="0.1" fill="none" />
<path d="M-237.65765703266328,-59.53014407629962 L-104.75099789041916,221.4773768152436" stroke="#0d6d4d" stroke-width="0.1" fill="none" />
<path d="M-237.06177762826363,-61.86043636871379 L-147.871205778625,195.34356017431324" stroke="#0d6d4d" stroke-width="0.1" fill="none" />
<path d="M-236.4430497163291,-64.18476642351767 L-184.72840308065804,160.93606524104507" stroke="#0d6d4d" stroke-width="0.1" fill="none" />
<path d="M-235.8015329311436,-66.50291021694309 L-213.76152173283526,119.71220416675406" stroke="#0d6d4d" stroke-width="0.1" fill="none" />
<path d="M-235.1372891034301,-68.81464432146637 L-233.74087858953874,73.41799286408279" stroke="#0d6d4d" stroke-width="0.1" fill="none" />
<path d="M-234.4503822543912,-71.11974592734322 L-243.82025803468824,24.014199380742312" stroke="#0d6d4d" stroke-width="0.1" fill="none" />
<path d="M-233.74087858953877,-73.4179928640827 L-243.5727530187699,-26.406703445476037" stroke="#0d6d4d" stroke-width="0.1" fill="none" />
<path d="M-233.00884649231264,-75.70916362186207 L-233.00884649231264,-75.70916362186207" stroke="#0d6d4d" stroke-width="0.1" fill="none" />
<path d="M-232.25435651749004,-77.99303737287477 L-212.57596740578833,-121.80500023190024" stroke="#0d6d4d" stroke-width="0.1" fill="none" />
<path d="M-231.47748138438513,-80.2693939926149 L-183.1395400813363,-162.74184728826393" stroke="#0d6d4d" stroke-width="0.1" fill="none" />
<path d="M-230.67829596984004,-82.538014081094 L-145.94632960064632,-196.7858452127579" stroke="#0d6d4d" stroke-width="0.1" fill="none" />
<path d="M-229.8568773010086,-84.7986789839858 L-102.57163569666987,-222.49507758714492" stroke="#0d6d4d" stroke-width="0.1" fill="none" />
<path d="M-229.01330454793168,-87.05117081370187 L-54.852571725332155,-238.78064279819102" stroke="#0d6d4d" stroke-width="0.1" fill="none" />
<path d="M-228.14765901590692,-89.2952724703915 L-4.810254652854021,-244.9527739181059" stroke="#0d6d4d" stroke-width="0.1" fill="none" />
<path d="M-227.2600241376524,-91.53076766286645 L45.435798337339776,-240.7500534360244" stroke="#0d6d4d" stroke-width="0.1" fill="none" />
<path d="M-226.3504854652653,-93.75744092944684 L93.757440929447,-226.35048546526525" stroke="#0d6d4d" stroke-width="0.1" fill="none" />
<path d="M-225.41913066197574,-95.97507765872918 L138.1080342426791,-202.36395646859393" stroke="#0d6d4d" stroke-width="0.1" fill="none" />
<path d="M-224.46604949369834,-98.18346411026941 L176.60913119221505,-169.80640382368082" stroke="#0d6d4d" stroke-width="0.1" fill="none" />
<path d="M-223.4913338203796,-100.38238743518534 L207.63003717118744,-130.05678630617984" stroke="#0d6d4d" stroke-width="0.1" fill="none" />
<path d="M-222.4950775871449,-102.57163569666999 L229.8568773010086,-84.7986789839858" stroke="#0d6d4d" stroke-width="0.1" fill="none" />
<path d="M-221.47737681524362,-104.75099789041914 L242.34824494137135,-35.94896624156363" stroke="#0d6d4d" stroke-width="0.1" fill="none" />
<path d="M-220.4383295927943,-106.92026396496874 L244.5750744952554,14.423346894541325" stroke="#0d6d4d" stroke-width="0.1" fill="none" />
<path d="M-219.37803606533083,-109.07922484193956 L236.4430497163291,64.1847664235177" stroke="#0d6d4d" stroke-width="0.1" fill="none" />
<path d="M-218.29659842615015,-111.22767243618893 L218.29659842615013,111.22767243618895" stroke="#0d6d4d" stroke-width="0.1" fill="none" />
<path d="M-217.19412090646293,-113.36539967586565 L190.90430444692663,153.55958629677" stroke="#0d6d4d" stroke-width="0.1" fill="none" />
<path d="M-216.07070976534698,-115.49220052236942 L155.42635462009324,189.38756107387047" stroke="#0d6d4d" stroke-width="0.1" fill="none" />
<path d="M-214.9264732795065,-117.60786999020763 L113.3653996758658,217.19412090646284" stroke="#0d6d4d" stroke-width="0.1" fill="none" />
<path d="M-213.76152173283532,-119.71220416675396 L66.50291021694326,235.80153293114356" stroke="#0d6d4d" stroke-width="0.1" fill="none" />
<path d="M-212.57596740578833,-121.80500023190024 L16.823723426671588,244.42168956551885" stroke="#0d6d4d" stroke-width="0.1" fill="none" />
<path d="M-211.369924564559,-123.88605647760625 L-33.56802371208222,242.68948840867643" stroke="#0d6d4d" stroke-width="0.1" fill="none" />
<path d="M-210.1435094500667,-125.95517232733926 L-82.53801408109382,230.67829596984012" stroke="#0d6d4d" stroke-width="0.1" fill="none" />
<path d="M-208.8968402667527,-128.01214835540733 L-128.01214835540753,208.89684026675255" stroke="#0d6d4d" stroke-width="0.1" fill="none" />
<path d="M-207.63003717118747,-130.0567863061798 L-168.06439243759718,178.2676639062209" stroke="#0d6d4d" stroke-width="0.1" fill="none" />
<path d="M-206.34322226049028,-132.08888911319494 L-200.99835366375083,140.08805025576504" stroke="#0d6d4d" stroke-width="0.1" fill="none" />
<path d="M-205.0365195605603,-134.10826091815514 L-225.41913066197574,95.97507765872926" stroke="#0d6d4d" stroke-width="0.1" fill="none" />
<path d="M-203.71005501412367,-136.11470708980247 L-240.29239369879147,47.79712889395131" stroke="#0d6d4d" stroke-width="0.1" fill="none" />
<path d="M-202.36395646859393,-138.1080342426791 L-244.98819319503536,-2.405243237601516" stroke="#0d6d4d" stroke-width="0.1" fill="none" />
<path d="M-200.9983536637509,-140.08805025576495 L-239.30764092361375,-52.505742500937465" stroke="#0d6d4d" stroke-width="0.1" fill="none" />
<path d="M-199.61337821923487,-142.05456429099587 L-223.4913338203796,-100.38238743518534" stroke="#0d6d4d" stroke-width="0.1" fill="none" />
<path d="M-198.20916362186216,-144.00738681165586 L-198.20916362186216,-144.00738681165586" stroke="#0d6d4d" stroke-width="0.1" fill="none" />
<path d="M-196.7858452127581,-145.94632960064604 L-164.53194393751957,-181.5330257119649" stroke="#0d6d4d" stroke-width="0.1" fill="none" />
<path d="M-195.34356017431327,-147.87120577862498 L-123.88605647760635,-211.36992456455891" stroke="#0d6d4d" stroke-width="0.1" fill="none" />
<path d="M-193.88244751696183,-149.78182982201992 L-77.99303737287464,-232.25435651749004" stroke="#0d6d4d" stroke-width="0.1" fill="none" />
<path d="M-192.4026480657825,-151.6780175809093 L-28.796662377170446,-243.30177195395692" stroke="#0d6d4d" stroke-width="0.1" fill="none" />
<path d="M-190.90430444692666,-153.55958629676996 L21.61938077749053,-244.04426314666335" stroke="#0d6d4d" stroke-width="0.1" fill="none" />
<path d="M-189.38756107387053,-155.42635462009318 L71.11974592734327,-234.45038225439117" stroke="#0d6d4d" stroke-width="0.1" fill="none" />
<path d="M-187.85256413349762,-157.2781426278622 L117.60786999020772,-214.92647327950644" stroke="#0d6d4d" stroke-width="0.1" fill="none" />
<path d="M-186.29946157200754,-159.11477184089503 L159.114771840895,-186.2994615720076" stroke="#0d6d4d" stroke-width="0.1" fill="none" />
<path d="M-184.72840308065804,-160.93606524104507 L193.88244751696172,-149.78182982202006" stroke="#0d6d4d" stroke-width="0.1" fill="none" />
<path d="M-183.1395400813363,-162.74184728826393 L220.43832959279425,-106.92026396496884" stroke="#0d6d4d" stroke-width="0.1" fill="none" />
<path d="M-181.533025711965,-164.5319439375195 L237.65765703266328,-59.53014407629968" stroke="#0d6d4d" stroke-width="0.1" fill="none" />
<path d="M-179.90901481174305,-166.30618265557067 L244.81111387897712,-9.618654860971825" stroke="#0d6d4d" stroke-width="0.1" fill="none" />
<path d="M-178.26766390622083,-168.06439243759723 L241.59571906303964,40.70022764571254" stroke="#0d6d4d" stroke-width="0.1" fill="none" />
<path d="M-176.60913119221516,-169.80640382368074 L228.14765901590687,89.29527247039168" stroke="#0d6d4d" stroke-width="0.1" fill="none" />
<path d="M-174.9335765225607,-171.5320489151383 L205.03651956056027,134.10826091815517" stroke="#0d6d4d" stroke-width="0.1" fill="none" />
<path d="M-173.24116139070418,-173.24116139070412 L173.24116139070415,173.24116139070412" stroke="#0d6d4d" stroke-width="0.1" fill="none" />
<path d="M-171.53204891513823,-174.93357652256077 L134.1082609181552,205.03651956056024" stroke="#0d6d4d" stroke-width="0.1" fill="none" />
<path d="M-169.80640382368082,-176.60913119221507 L89.29527247039177,228.14765901590684" stroke="#0d6d4d" stroke-width="0.1" fill="none" />
<path d="M-168.0643924375973,-178.26766390622075 L40.70022764571258,241.5957190630396" stroke="#0d6d4d" stroke-width="0.1" fill="none" />
<path d="M-166.30618265557086,-179.9090148117428 L-9.618654860971725,244.81111387897712" stroke="#0d6d4d" stroke-width="0.1" fill="none" />
<path d="M-164.53194393751957,-181.5330257119649 L-59.530144076299635,237.65765703266328" stroke="#0d6d4d" stroke-width="0.1" fill="none" />
<path d="M-162.741847288264,-183.13954008133624 L-106.92026396496875,220.43832959279428" stroke="#0d6d4d" stroke-width="0.1" fill="none" />
<path d="M-160.93606524104516,-184.72840308065798 L-149.78182982202003,193.88244751696175" stroke="#0d6d4d" stroke-width="0.1" fill="none" />
<path d="M-159.11477184089495,-186.2994615720076 L-186.29946157200746,159.11477184089512" stroke="#0d6d4d" stroke-width="0.1" fill="none" />
<path d="M-157.27814262786228,-187.85256413349754 L-214.92647327950644,117.60786999020772" stroke="#0d6d4d" stroke-width="0.1" fill="none" />
<path d="M-155.4263546200931,-189.3875610738706 L-234.45038225439117,71.11974592734329" stroke="#0d6d4d" stroke-width="0.1" fill="none" />
<path d="M-153.55958629677005,-190.9043044469266 L-244.04426314666335,21.619380777490587" stroke="#0d6d4d" stroke-width="0.1" fill="none" />
<path d="M-151.6780175809094,-192.40264806578244 L-243.30177195395694,-28.796662377170126" stroke="#0d6d4d" stroke-width="0.1" fill="none" />
<path d="M-149.7818298220202,-193.88244751696163 L-232.25435651749004,-77.99303737287477" stroke="#0d6d4d" stroke-width="0.1" fill="none" />
<path d="M-147.87120577862507,-195.34356017431318 L-211.369924564559,-123.88605647760625" stroke="#0d6d4d" stroke-width="0.1" fill="none" />
<path d="M-145.94632960064632,-196.7858452127579 L-181.533025711965,-164.5319439375195" stroke="#0d6d4d" stroke-width="0.1" fill="none" />
<path d="M-144.00738681165595,-198.2091636218621 L-144.00738681165595,-198.2091636218621" stroke="#0d6d4d" stroke-width="0.1" fill="none" />
<path d="M-142.05456429099578,-199.61337821923496 L-100.38238743518544,-223.49133382037954" stroke="#0d6d4d" stroke-width="0.1" fill="none" />
<path d="M-140.08805025576504,-200.99835366375083 L-52.50574250093757,-239.30764092361372" stroke="#0d6d4d" stroke-width="0.1" fill="none" />
<path d="M-138.10803424267903,-202.36395646859398 L-2.4052432376018387,-244.98819319503536" stroke="#0d6d4d" stroke-width="0.1" fill="none" />
<path d="M-136.11470708980252,-203.71005501412358 L47.797128893951424,-240.29239369879144" stroke="#0d6d4d" stroke-width="0.1" fill="none" />
<path d="M-134.10826091815522,-205.03651956056024 L95.97507765872919,-225.41913066197574" stroke="#0d6d4d" stroke-width="0.1" fill="none" />
<path d="M-132.0888891131952,-206.34322226049008 L140.088050255765,-200.99835366375083" stroke="#0d6d4d" stroke-width="0.1" fill="none" />
<path d="M-130.05678630617984,-207.6300371711874 L178.26766390622083,-168.06439243759723" stroke="#0d6d4d" stroke-width="0.1" fill="none" />
<path d="M-128.01214835540762,-208.8968402667525 L208.89684026675258,-128.01214835540748" stroke="#0d6d4d" stroke-width="0.1" fill="none" />
<path d="M-125.95517232733935,-210.14350945006663 L230.67829596984006,-82.53801408109396" stroke="#0d6d4d" stroke-width="0.1" fill="none" />
<path d="M-123.88605647760635,-211.36992456455891 L242.68948840867643,-33.56802371208221" stroke="#0d6d4d" stroke-width="0.1" fill="none" />
<path d="M-121.80500023190032,-212.57596740578828 L244.42168956551885,16.8237234266716" stroke="#0d6d4d" stroke-width="0.1" fill="none" />
<path d="M-119.71220416675385,-213.76152173283538 L235.80153293114358,66.50291021694323" stroke="#0d6d4d" stroke-width="0.1" fill="none" />
<path d="M-117.60786999020772,-214.92647327950644 L217.19412090646287,113.36539967586576" stroke="#0d6d4d" stroke-width="0.1" fill="none" />
<path d="M-115.49220052236949,-216.07070976534695 L189.38756107387053,155.4263546200932" stroke="#0d6d4d" stroke-width="0.1" fill="none" />
<path d="M-113.36539967586593,-217.19412090646279 L153.55958629677002,190.9043044469266" stroke="#0d6d4d" stroke-width="0.1" fill="none" />
<path d="M-111.22767243618901,-218.2965984261501 L111.22767243618898,218.2965984261501" stroke="#0d6d4d" stroke-width="0.1" fill="none" />
<path d="M-109.07922484193985,-219.3780360653307 L64.18476642351774,236.44304971632909" stroke="#0d6d4d" stroke-width="0.1" fill="none" />
<path d="M-106.92026396496883,-220.43832959279425 L14.423346894541424,244.57507449525536" stroke="#0d6d4d" stroke-width="0.1" fill="none" />
<path d="M-104.75099789041921,-221.47737681524356 L-35.94896624156359,242.34824494137135" stroke="#0d6d4d" stroke-width="0.1" fill="none" />
<path d="M-102.57163569666987,-222.49507758714492 L-84.79867898398581,229.85687730100858" stroke="#0d6d4d" stroke-width="0.1" fill="none" />
<path d="M-100.38238743518544,-223.49133382037954 L-130.0567863061798,207.63003717118747" stroke="#0d6d4d" stroke-width="0.1" fill="none" />
<path d="M-98.18346411026951,-224.4660494936983 L-169.80640382368082,176.60913119221505" stroke="#0d6d4d" stroke-width="0.1" fill="none" />
<path d="M-95.97507765872928,-225.41913066197574 L-202.36395646859384,138.1080342426792" stroke="#0d6d4d" stroke-width="0.1" fill="none" />
<path d="M-93.75744092944714,-226.3504854652652 L-226.35048546526528,93.75744092944693" stroke="#0d6d4d" stroke-width="0.1" fill="none" />
<path d="M-91.53076766286655,-227.26002413765238 L-240.7500534360244,45.435798337339754" stroke="#0d6d4d" stroke-width="0.1" fill="none" />
<path d="M-89.29527247039178,-228.1476590159068 L-244.9527739181059,-4.810254652853915" stroke="#0d6d4d" stroke-width="0.1" fill="none" />
<path d="M-87.05117081370196,-229.01330454793163 L-238.78064279819105,-54.85257172533204" stroke="#0d6d4d" stroke-width="0.1" fill="none" />
<path d="M-84.79867898398588,-229.85687730100855 L-222.4950775871449,-102.57163569666999" stroke="#0d6d4d" stroke-width="0.1" fill="none" />
<path d="M-82.5380140810939,-230.6782959698401 L-196.7858452127581,-145.94632960064604" stroke="#0d6d4d" stroke-width="0.1" fill="none" />
<path d="M-80.269393992615,-231.4774813843851 L-162.741847288264,-183.13954008133624" stroke="#0d6d4d" stroke-width="0.1" fill="none" />
<path d="M-77.99303737287464,-232.25435651749004 L-121.80500023190032,-212.57596740578828" stroke="#0d6d4d" stroke-width="0.1" fill="none" />
<path d="M-75.70916362186216,-233.0088464923126 L-75.70916362186216,-233.0088464923126" stroke="#0d6d4d" stroke-width="0.1" fill="none" />
<path d="M-73.417992864083,-233.74087858953868 L-26.40670344547614,-243.5727530187699" stroke="#0d6d4d" stroke-width="0.1" fill="none" />
<path d="M-71.1197459273433,-234.45038225439117 L24.014199380742348,-243.82025803468824" stroke="#0d6d4d" stroke-width="0.1" fill="none" />
<path d="M-68.81464432146667,-235.13728910343005 L73.41799286408288,-233.7408785895387" stroke="#0d6d4d" stroke-width="0.1" fill="none" />
<path d="M-66.50291021694319,-235.80153293114358 L119.71220416675396,-213.76152173283532" stroke="#0d6d4d" stroke-width="0.1" fill="none" />
<path d="M-64.18476642351777,-236.44304971632909 L160.9360652410451,-184.72840308065804" stroke="#0d6d4d" stroke-width="0.1" fill="none" />
<path d="M-61.86043636871367,-237.06177762826366 L195.34356017431324,-147.871205778625" stroke="#0d6d4d" stroke-width="0.1" fill="none" />
<path d="M-59.53014407629972,-237.65765703266328 L221.47737681524364,-104.75099789041909" stroke="#0d6d4d" stroke-width="0.1" fill="none" />
<path d="M-57.19411414469678,-238.23063049743078 L238.23063049743075,-57.19411414469683" stroke="#0d6d4d" stroke-width="0.1" fill="none" />
<path d="M-54.852571725332155,-238.78064279819102 L244.8937455829952,-7.2148024457510305" stroke="#0d6d4d" stroke-width="0.1" fill="none" />
<path d="M-52.50574250093757,-239.30764092361372 L241.18450918202345,43.07008858391687" stroke="#0d6d4d" stroke-width="0.1" fill="none" />
<path d="M-50.15385266379802,-239.81157408052272 L227.26002413765238,91.53076766286654" stroke="#0d6d4d" stroke-width="0.1" fill="none" />
<path d="M-47.79712889395154,-240.29239369879141 L203.71005501412355,136.11470708980255" stroke="#0d6d4d" stroke-width="0.1" fill="none" />
<path d="M-45.43579833733977,-240.7500534360244 L171.5320489151383,174.9335765225607" stroke="#0d6d4d" stroke-width="0.1" fill="none" />
<path d="M-43.070088583916935,-241.18450918202345 L132.08888911319502,206.34322226049022" stroke="#0d6d4d" stroke-width="0.1" fill="none" />
<path d="M-40.70022764571251,-241.59571906303964 L87.05117081370193,229.01330454793165" stroke="#0d6d4d" stroke-width="0.1" fill="none" />
<path d="M-38.32644393485663,-241.98364344580872 L38.32644393485659,241.98364344580872" stroke="#0d6d4d" stroke-width="0.1" fill="none" />
<path d="M-35.94896624156357,-242.34824494137135 L-12.021580210217342,244.70488677026725" stroke="#0d6d4d" stroke-width="0.1" fill="none" />
<path d="M-33.5680237120822,-242.68948840867643 L-61.86043636871359,237.06177762826366" stroke="#0d6d4d" stroke-width="0.1" fill="none" />
<path d="M-31.18384582660886,-243.00734095796835 L-109.07922484193978,219.37803606533072" stroke="#0d6d4d" stroke-width="0.1" fill="none" />
<path d="M-28.796662377170446,-243.30177195395692 L-151.67801758090926,192.40264806578256" stroke="#0d6d4d" stroke-width="0.1" fill="none" />
<path d="M-26.40670344547614,-243.5727530187699 L-187.85256413349754,157.27814262786228" stroke="#0d6d4d" stroke-width="0.1" fill="none" />
<path d="M-24.014199380742326,-243.82025803468824 L-216.07070976534695,115.49220052236947" stroke="#0d6d4d" stroke-width="0.1" fill="none" />
<path d="M-21.619380777490605,-244.04426314666335 L-235.1372891034301,68.81464432146646" stroke="#0d6d4d" stroke-width="0.1" fill="none" />
<path d="M-19.222478453321962,-244.24474676461634 L-244.24474676461634,19.222478453322164" stroke="#0d6d4d" stroke-width="0.1" fill="none" />
<path d="M-16.82372342667162,-244.42168956551885 L-243.00734095796838,-31.183845826608756" stroke="#0d6d4d" stroke-width="0.1" fill="none" />
<path d="M-14.423346894541236,-244.5750744952554 L-231.47748138438513,-80.2693939926149" stroke="#0d6d4d" stroke-width="0.1" fill="none" />
<path d="M-12.021580210217433,-244.70488677026725 L-210.1435094500667,-125.95517232733926" stroke="#0d6d4d" stroke-width="0.1" fill="none" />
<path d="M-9.618654860971924,-244.81111387897712 L-179.90901481174305,-166.30618265557067" stroke="#0d6d4d" stroke-width="0.1" fill="none" />
<path d="M-7.214802445751184,-244.8937455829952 L-142.05456429099578,-199.61337821923496" stroke="#0d6d4d" stroke-width="0.1" fill="none" />
<path d="M-4.810254652854021,-244.9527739181059 L-98.18346411026951,-224.4660494936983" stroke="#0d6d4d" stroke-width="0.1" fill="none" />
<path d="M-2.4052432376018387,-244.98819319503536 L-50.15385266379802,-239.81157408052272" stroke="#0d6d4d" stroke-width="0.1" fill="none" />
</svg>