<?xml version="1.0" encoding="UTF-8"?>
<svg xmlns="http://www.w3.org/2000/svg" xmlns:xlink="http://www.w3.org/1999/xlink"
     width="500.0" height="500" viewBox="-250.0 -250.0 500 500">
<defs>
</defs>
<circle cx="0" cy="0" r="245.0" fill="white" stroke-width="2" stroke="black" />
<path d="M0.0,-245.0 L0.0,-245.0" stroke="#0d6d4d" stroke-width="0.1" fill="none" />
<path d="M20.77745149649975,-244.117384692919 L41.405200978853024,-241.47589803518858" stroke="#0d6d4d" stroke-width="0.1" fill="none" />
<path d="M41.405200978853024,-241.47589803518858 L81.6192497118041,-231.00497413796563" stroke="#0d6d4d" stroke-width="0.1" fill="none" />
<path d="M61.73462503935567,-237.0945719987072 L119.48526123434046,-213.8884577244911" stroke="#0d6d4d" stroke-width="0.1" fill="none" />
<path d="M81.6192497118041,-231.00497413796563 L153.91389933743235,-190.61875980801767" stroke="#0d6d4d" stroke-width="0.1" fill="none" />
<path d="M100.9158058197782,-223.25098014509325 L183.91471478691747,-161.86530723056995" stroke="#0d6d4d" stroke-width="0.1" fill="none" />
<path d="M119.48526123434046,-213.8884577244911 L208.62463874466127,-128.45528447152176" stroke="#0d6d4d" stroke-width="0.1" fill="none" />
<path d="M137.19382260371088,-202.98486406474134 L227.33281168764478,-91.34983705617562" stroke="#0d6d4d" stroke-width="0.1" fill="none" />
<path d="M153.91389933743235,-190.61875980801767 L239.5010335421831,-51.616421148952966" stroke="#0d6d4d" stroke-width="0.1" fill="none" />
<path d="M169.5250228994988,-176.8792430188585 L244.77924672014694,-10.398094783056374" stroke="#0d6d4d" stroke-width="0.1" fill="none" />
<path d="M183.91471478691747,-161.86530723056995 L243.01560663842483,31.119365837985296" stroke="#0d6d4d" stroke-width="0.1" fill="none" />
<path d="M196.9792969399004,-145.68512819455026 L234.2608500111165,71.74157896275477" stroke="#0d6d4d" stroke-width="0.1" fill="none" />
<path d="M208.62463874466127,-128.45528447152176 L218.7668352466443,110.29991748032998" stroke="#0d6d4d" stroke-width="0.1" fill="none" />
<path d="M218.7668352466443,-110.29991748032995 L196.97929693990042,145.6851281945502" stroke="#0d6d4d" stroke-width="0.1" fill="none" />
<path d="M227.33281168764478,-91.34983705617562 L169.52502289949882,176.8792430188585" stroke="#0d6d4d" stroke-width="0.1" fill="none" />
<path d="M234.26085001111647,-71.74157896275486 L137.19382260371088,202.98486406474132" stroke="#0d6d4d" stroke-width="0.1" fill="none" />
<path d="M239.5010335421831,-51.616421148952966 L100.91580581977824,223.25098014509322" stroke="#0d6d4d" stroke-width="0.1" fill="none" />
<path d="M243.01560663842486,-31.119365837985267 L61.73462503935561,237.0945719987072" stroke="#0d6d4d" stroke-width="0.1" fill="none" />
<path d="M244.77924672014694,-10.398094783056374 L20.777451496499825,244.117384692919" stroke="#0d6d4d" stroke-width="0.1" fill="none" />
<path d="M244.77924672014697,10.398094783056289 L-20.777451496499662,244.117384692919" stroke="#0d6d4d" stroke-width="0.1" fill="none" />
<path d="M243.01560663842483,31.119365837985296 L-61.73462503935567,237.0945719987072" stroke="#0d6d4d" stroke-width="0.1" fill="none" />
<path d="M239.50103354218314,51.61642114895294 L-100.91580581977819,223.25098014509325" stroke="#0d6d4d" stroke-width="0.1" fill="none" />
<path d="M234.2608500111165,71.74157896275477 L-137.19382260371074,202.9848640647414" stroke="#0d6d4d" stroke-width="0.1" fill="none" />
<path d="M227.33281168764478,91.34983705617559 L-169.5250228994988,176.87924301885855" stroke="#0d6d4d" stroke-width="0.1" fill="none" />
<path d="M218.7668352466443,110.29991748032998 L-196.97929693990045,145.68512819455017" stroke="#0d6d4d" stroke-width="0.1" fill="none" />
<path d="M208.6246387446613,128.45528447152174 L-218.76683524664426,110.29991748033002" stroke="#0d6d4d" stroke-width="0.1" fill="none" />
<path d="M196.97929693990042,145.6851281945502 L-234.26085001111647,71.74157896275483" stroke="#0d6d4d" stroke-width="0.1" fill="none" />
<path d="M183.9147147869175,161.8653072305699 L-243.01560663842483,31.119365837985413" stroke="#0d6d4d" stroke-width="0.1" fill="none" />
<path d="M169.52502289949882,176.8792430188585 L-244.77924672014697,-10.398094783056314" stroke="#0d6d4d" stroke-width="0.1" fill="none" />
<path d="M153.91389933743233,190.6187598080177 L-239.5010335421831,-51.616421148953016" stroke="#0d6d4d" stroke-width="0.1" fill="none" />
<path d="M137.19382260371088,202.98486406474132 L-227.3328116876448,-91.34983705617556" stroke="#0d6d4d" stroke-width="0.1" fill="none" />
<path d="M119.48526123434054,213.88845772449105 L-208.62463874466135,-128.4552844715216" stroke="#0d6d4d" stroke-width="0.1" fill="none" />
<path d="M100.91580581977824,223.25098014509322 L-183.91471478691753,-161.86530723056987" stroke="#0d6d4d" stroke-width="0.1" fill="none" />
<path d="M81.6192497118041,231.00497413796563 L-153.91389933743235,-190.61875980801767" stroke="#0d6d4d" stroke-width="0.1" fill="none" />
<path d="M61.73462503935561,237.0945719987072 L-119.48526123434038,-213.88845772449116" stroke="#0d6d4d" stroke-width="0.1" fill="none" />
<path d="M41.40520097885304,241.47589803518858 L-81.61924971180412,-231.0049741379656" stroke="#0d6d4d" stroke-width="0.1" fill="none" />
<path d="M20.777451496499825,244.117384692919 L-41.40520097885317,-241.47589803518855" stroke="#0d6d4d" stroke-width="0.1" fill="none" />
<path d="M3.0003846579110155e-14,245.0 L0.0,-245.0" stroke="#0d6d4d" stroke-width="0.1" fill="none" />
<path d="M-20.777451496499662,244.117384692919 L41.405200978853024,-241.47589803518858" stroke="#0d6d4d" stroke-width="0.1" fill="none" />
<path d="M-41.40520097885298,241.47589803518858 L81.6192497118041,-231.00497413796563" stroke="#0d6d4d" stroke-width="0.1" fill="none" />
<path d="M-61.73462503935567,237.0945719987072 L119.48526123434046,-213.8884577244911" stroke="#0d6d4d" stroke-width="0.1" fill="none" />
<path d="M-81.61924971180404,231.00497413796563 L153.91389933743235,-190.61875980801767" stroke="#0d6d4d" stroke-width="0.1" fill="none" />
<path d="M-100.91580581977819,223.25098014509325 L183.91471478691747,-161.86530723056995" stroke="#0d6d4d" stroke-width="0.1" fill="none" />
<path d="M-119.4852612343404,213.88845772449113 L208.62463874466127,-128.45528447152176" stroke="#0d6d4d" stroke-width="0.1" fill="none" />
<path d="M-137.19382260371074,202.9848640647414 L227.33281168764478,-91.34983705617562" stroke="#0d6d4d" stroke-width="0.1" fill="none" />
<path d="M-153.91389933743238,190.61875980801767 L239.5010335421831,-51.616421148952966" stroke="#0d6d4d" stroke-width="0.1" fill="none" />
<path d="M-169.5250228994988,176.87924301885855 L244.77924672014694,-10.398094783056374" stroke="#0d6d4d" stroke-width="0.1" fill="none" />
<path d="M-183.91471478691747,161.86530723056995 L243.01560663842483,31.119365837985296" stroke="#0d6d4d" stroke-width="0.1" fill="none" />
<path d="M-196.97929693990045,145.68512819455017 L234.2608500111165,71.74157896275477" stroke="#0d6d4d" stroke-width="0.1" fill="none" />
<path d="M-208.62463874466118,128.4552844715219 L218.7668352466443,110.29991748032998" stroke="#0d6d4d" stroke-width="0.1" fill="none" />
<path d="M-218.76683524664426,110.29991748033002 L196.97929693990042,145.6851281945502" stroke="#0d6d4d" stroke-width="0.1" fill="none" />
<path d="M-227.33281168764475,91.34983705617564 L169.52502289949882,176.8792430188585" stroke="#0d6d4d" stroke-width="0.1" fill="none" />
<path d="M-234.26085001111647,71.74157896275483 L137.19382260371088,202.98486406474132" stroke="#0d6d4d" stroke-width="0.1" fill="none" />
<path d="M-239.50103354218314,51.616421148952895 L100.91580581977824,223.25098014509322" stroke="#0d6d4d" stroke-width="0.1" fill="none" />
<path d="M-243.01560663842483,31.119365837985413 L61.73462503935561,237.0945719987072" stroke="#0d6d4d" stroke-width="0.1" fill="none" />
<path d="M-244.77924672014694,10.398094783056402 L20.777451496499825,244.117384692919" stroke="#0d6d4d" stroke-width="0.1" fill="none" />
<path d="M-244.77924672014697,-10.398094783056314 L-20.777451496499662,244.117384692919" stroke="#0d6d4d" stroke-width="0.1" fill="none" />
<path d="M-243.01560663842486,-31.119365837985097 L-61.73462503935567,237.0945719987072" stroke="#0d6d4d" stroke-width="0.1" fill="none" />
<path d="M-239.5010335421831,-51.616421148953016 L-100.91580581977819,223.25098014509325" stroke="#0d6d4d" stroke-width="0.1" fill="none" />
<path d="M-234.2608500111165,-71.74157896275474 L-137.19382260371074,202.9848640647414" stroke="#0d6d4d" stroke-width="0.1" fill="none" />
<path d="M-227.3328116876448,-91.34983705617556 L-169.5250228994988,176.87924301885855" stroke="#0d6d4d" stroke-width="0.1" fill="none" />
<path d="M-218.7668352466443,-110.29991748032995 L-196.97929693990045,145.68512819455017" stroke="#0d6d4d" stroke-width="0.1" fill="none" />
<path d="M-208.62463874466135,-128.4552844715216 L-218.76683524664426,110.29991748033002" stroke="#0d6d4d" stroke-width="0.1" fill="none" />
<path d="M-196.97929693990037,-145.6851281945503 L-234.26085001111647,71.74157896275483" stroke="#0d6d4d" stroke-width="0.1" fill="none" />
<path d="M-183.91471478691753,-161.86530723056987 L-243.01560663842483,31.119365837985413" stroke="#0d6d4d" stroke-width="0.1" fill="none" />
<path d="M-169.52502289949885,-176.8792430188585 L-244.77924672014697,-10.398094783056314" stroke="#0d6d4d" stroke-width="0.1" fill="none" />
<path d="M-153.91389933743235,-190.61875980801767 L-239.5010335421831,-51.616421148953016" stroke="#0d6d4d" stroke-width="0.1" fill="none" />
<path d="M-137.193822603711,-202.98486406474123 L-227.3328116876448,-91.34983705617556" stroke="#0d6d4d" stroke-width="0.1" fill="none" />
<path d="M-119.48526123434038,-213.88845772449116 L-208.62463874466135,-128.4552844715216" stroke="#0d6d4d" stroke-width="0.1" fill="none" />
<path d="M-100.91580581977827,-223.25098014509322 L-183.91471478691753,-161.86530723056987" stroke="#0d6d4d" stroke-width="0.1" fill="none" />
<path d="M-81.61924971180412,-231.0049741379656 L-153.91389933743235,-190.61875980801767" stroke="#0d6d4d" stroke-width="0.1" fill="none" />
<path d="M-61.73462503935564,-237.0945719987072 L-119.48526123434038,-213.88845772449116" stroke="#0d6d4d" stroke-width="0.1" fill="none" />
<path d="M-41.40520097885317,-241.47589803518855 L-81.61924971180412,-231.0049741379656" stroke="#0d6d4d" stroke-width="0.1" fill="none" />
<path d="M-20.777451496499857,-244.11738469291896 L-41.40520097885317,-241.47589803518855" stroke="#0d6d4d" stroke-width="0.1" fill="none" />
</svg>