<?xml version="1.0" encoding="UTF-8"?>
<svg xmlns="http://www.w3.org/2000/svg" xmlns:xlink="http://www.w3.org/1999/xlink"
     width="500.0" height="500" viewBox="-250.0 -250.0 500 500">
<defs>
</defs>
<circle cx="0" cy="0" r="245.0" fill="white" stroke-width="2" stroke="black" />
<path d="M0.0,-245.0 L0.0,-245.0" stroke="#4c0618" stroke-width="0.1" fill="none" />
<path d="M38.32644393485656,-241.98364344580875 L75.70916362186212,-233.0088464923126" stroke="#4c0618" stroke-width="0.1" fill="none" />
<path d="M75.70916362186212,-233.0088464923126 L144.00738681165592,-198.20916362186213" stroke="#4c0618" stroke-width="0.1" fill="none" />
<path d="M111.22767243618895,-218.29659842615013 L198.2091636218621,-144.00738681165595" stroke="#4c0618" stroke-width="0.1" fill="none" />
<path d="M144.00738681165592,-198.20916362186213 L233.0088464923126,-75.70916362186213" stroke="#4c0618" stroke-width="0.1" fill="none" />
<path d="M173.24116139070412,-173.24116139070415 L245.0,-1.5001923289555078e-14" stroke="#4c0618" stroke-width="0.1" fill="none" />
<path d="M198.2091636218621,-144.00738681165595 L233.00884649231264,75.7091636218621" stroke="#4c0618" stroke-width="0.1" fill="none" />
<path d="M218.2965984261501,-111.22767243618897 L198.20916362186213,144.0073868116559" stroke="#4c0618" stroke-width="0.1" fill="none" />
<path d="M233.0088464923126,-75.70916362186213 L144.00738681165595,198.2091636218621" stroke="#4c0618" stroke-width="0.1" fill="none" />
<path d="M241.98364344580875,-38.32644393485658 L75.70916362186215,233.0088464923126" stroke="#4c0618" stroke-width="0.1" fill="none" />
<path d="M245.0,-1.5001923289555078e-14 L3.0003846579110155e-14,245.0" stroke="#4c0618" stroke-width="0.1" fill="none" />
<path d="M241.98364344580875,38.32644393485649 L-75.70916362186199,233.00884649231267" stroke="#4c0618" stroke-width="0.1" fill="none" />
<path d="M233.00884649231264,75.7091636218621 L-144.0073868116559,198.20916362186213" stroke="#4c0618" stroke-width="0.1" fill="none" />
<path d="M218.29659842615013,111.22767243618895 L-198.2091636218621,144.00738681165595" stroke="#4c0618" stroke-width="0.1" fill="none" />
<path d="M198.20916362186213,144.0073868116559 L-233.0088464923126,75.70916362186215" stroke="#4c0618" stroke-width="0.1" fill="none" />
<path d="M173.24116139070415,173.24116139070412 L-245.0,4.500576986866523e-14" stroke="#4c0618" stroke-width="0.1" fill="none" />
<path d="M144.00738681165595,198.2091636218621 L-233.00884649231264,-75.70916362186207" stroke="#4c0618" stroke-width="0.1" fill="none" />
<path d="M111.22767243618898,218.2965984261501 L-198.20916362186216,-144.00738681165586" stroke="#4c0618" stroke-width="0.1" fill="none" />
<path d="M75.70916362186215,233.0088464923126 L-144.00738681165595,-198.2091636218621" stroke="#4c0618" stroke-width="0.1" fill="none" />
<path d="M38.32644393485659,241.98364344580872 L-75.70916362186216,-233.0088464923126" stroke="#4c0618" stroke-width="0.1" fill="none" />
<path d="M3.0003846579110155e-14,245.0 L0.0,-245.0" stroke="#4c0618" stroke-width="0.1" fill="none" />
<path d="M-38.326443934856535,241.98364344580875 L75.70916362186212,-233.0088464923126" stroke="#4c0618" stroke-width="0.1" fill="none" />
<path d="M-75.70916362186199,233.00884649231267 L144.00738681165592,-198.20916362186213" stroke="#4c0618" stroke-width="0.1" fill="none" />
<path d="M-111.22767243618894,218.29659842615013 L198.2091636218621,-144.00738681165595" stroke="#4c0618" stroke-width="0.1" fill="none" />
<path d="M-144.0073868116559,198.20916362186213 L233.0088464923126,-75.70916362186213" stroke="#4c0618" stroke-width="0.1" fill="none" />
<path d="M-173.24116139070412,173.24116139070418 L245.0,-1.5001923289555078e-14" stroke="#4c0618" stroke-width="0.1" fill="none" />
<path d="M-198.2091636218621,144.00738681165595 L233.00884649231264,75.7091636218621" stroke="#4c0618" stroke-width="0.1" fill="none" />
<path d="M-218.2965984261501,111.227672436189 L198.20916362186213,144.0073868116559" stroke="#4c0618" stroke-width="0.1" fill="none" />
<path d="M-233.0088464923126,75.70916362186215 L144.00738681165595,198.2091636218621" stroke="#4c0618" stroke-width="0.1" fill="none" />
<path d="M-241.98364344580872,38.32644393485661 L75.70916362186215,233.0088464923126" stroke="#4c0618" stroke-width="0.1" fill="none" />
<path d="M-245.0,4.500576986866523e-14 L3.0003846579110155e-14,245.0" stroke="#4c0618" stroke-width="0.1" fill="none" />
<path d="M-241.98364344580875,-38.32644393485651 L-75.70916362186199,233.00884649231267" stroke="#4c0618" stroke-width="0.1" fill="none" />
<path d="M-233.00884649231264,-75.70916362186207 L-144.0073868116559,198.20916362186213" stroke="#4c0618" stroke-width="0.1" fill="none" />
<path d="M-218.29659842615015,-111.22767243618893 L-198.2091636218621,144.00738681165595" stroke="#4c0618" stroke-width="0.1" fill="none" />
<path d="M-198.20916362186216,-144.00738681165586 L-233.0088464923126,75.70916362186215" stroke="#4c0618" stroke-width="0.1" fill="none" />
<path d="M-173.24116139070418,-173.24116139070412 L-245.0,4.500576986866523e-14" stroke="#4c0618" stroke-width="0.1" fill="none" />
<path d="M-144.00738681165595,-198.2091636218621 L-233.00884649231264,-75.70916362186207" stroke="#4c0618" stroke-width="0.1" fill="none" />
<path d="M-111.22767243618901,-218.2965984261501 L-198.20916362186216,-144.00738681165586" stroke="#4c0618" stroke-width="0.1" fill="none" />
<path d="M-75.70916362186216,-233.0088464923126 L-144.00738681165595,-198.2091636218621" stroke="#4c0618" stroke-width="0.1" fill="none" />
<path d="M-38.32644393485663,-241.98364344580872 L-75.70916362186216,-233.0088464923126" stroke="#4c0618" stroke-width="0.1" fill="none" />
</svg>