<?xml version="1.0" encoding="UTF-8"?>
<svg xmlns="http://www.w3.org/2000/svg" xmlns:xlink="http://www.w3.org/1999/xlink"
     width="500.0" height="500" viewBox="-250.0 -250.0 500 500">
<defs>
</defs>
<circle cx="0" cy="0" r="245.0" fill="white" stroke-width="2" stroke="black" />
<path d="M0.0,-245.0 L0.0,-245.0" stroke="#0d6d4d" stroke-width="0.1" fill="none" />
<path d="M31.978917093912635,-242.90399103658353 L63.410666050117584,-236.65182744082173" stroke="#0d6d4d" stroke-width="0.1" fill="none" />
<path d="M63.410666050117584,-236.65182744082173 L122.49999999999999,-212.1762239271875" stroke="#0d6d4d" stroke-width="0.1" fill="none" />
<path d="M93.757440929447,-226.35048546526525 L173.24116139070412,-173.24116139070415" stroke="#0d6d4d" stroke-width="0.1" fill="none" />
<path d="M122.49999999999999,-212.1762239271875 L212.17622392718746,-122.50000000000003" stroke="#0d6d4d" stroke-width="0.1" fill="none" />
<path d="M149.14655010713656,-194.37156837135262 L236.65182744082173,-63.410666050117584" stroke="#0d6d4d" stroke-width="0.1" fill="none" />
<path d="M173.24116139070412,-173.24116139070415 L245.0,-1.5001923289555078e-14" stroke="#0d6d4d" stroke-width="0.1" fill="none" />
<path d="M194.3715683713526,-149.1465501071366 L236.65182744082173,63.410666050117555" stroke="#0d6d4d" stroke-width="0.1" fill="none" />
<path d="M212.17622392718746,-122.50000000000003 L212.17622392718752,122.49999999999994" stroke="#0d6d4d" stroke-width="0.1" fill="none" />
<path d="M226.35048546526525,-93.75744092944701 L173.24116139070415,173.24116139070412" stroke="#0d6d4d" stroke-width="0.1" fill="none" />
<path d="M236.65182744082173,-63.410666050117584 L122.49999999999999,212.1762239271875" stroke="#0d6d4d" stroke-width="0.1" fill="none" />
<path d="M242.90399103658353,-31.97891709391267 L63.41066605011765,236.6518274408217" stroke="#0d6d4d" stroke-width="0.1" fill="none" />
<path d="M245.0,-1.5001923289555078e-14 L3.0003846579110155e-14,245.0" stroke="#0d6d4d" stroke-width="0.1" fill="none" />
<path d="M242.90399103658353,31.978917093912642 L-63.4106660501176,236.65182744082173" stroke="#0d6d4d" stroke-width="0.1" fill="none" />
<path d="M236.65182744082173,63.410666050117555 L-122.49999999999994,212.17622392718752" stroke="#0d6d4d" stroke-width="0.1" fill="none" />
<path d="M226.35048546526528,93.75744092944693 L-173.24116139070404,173.24116139070424" stroke="#0d6d4d" stroke-width="0.1" fill="none" />
<path d="M212.17622392718752,122.49999999999994 L-212.1762239271874,122.50000000000011" stroke="#0d6d4d" stroke-width="0.1" fill="none" />
<path d="M194.37156837135262,149.14655010713656 L-236.65182744082173,63.410666050117555" stroke="#0d6d4d" stroke-width="0.1" fill="none" />
<path d="M173.24116139070415,173.24116139070412 L-245.0,4.500576986866523e-14" stroke="#0d6d4d" stroke-width="0.1" fill="none" />
<path d="M149.14655010713662,194.37156837135257 L-236.65182744082176,-63.41066605011747" stroke="#0d6d4d" stroke-width="0.1" fill="none" />
<path d="M122.49999999999999,212.1762239271875 L-212.17622392718746,-122.5" stroke="#0d6d4d" stroke-width="0.1" fill="none" />
<path d="M93.75744092944701,226.35048546526525 L-173.24116139070418,-173.24116139070412" stroke="#0d6d4d" stroke-width="0.1" fill="none" />
<path d="M63.41066605011765,236.6518274408217 L-122.50000000000011,-212.1762239271874" stroke="#0d6d4d" stroke-width="0.1" fill="none" />
<path d="M31.978917093912738,242.90399103658353 L-63.41066605011777,-236.65182744082168" stroke="#0d6d4d" stroke-width="0.1" fill="none" />
<path d="M3.0003846579110155e-14,245.0 L0.0,-245.0" stroke="#0d6d4d" stroke-width="0.1" fill="none" />
<path d="M-31.978917093912685,242.90399103658353 L63.410666050117584,-236.65182744082173" stroke="#0d6d4d" stroke-width="0.1" fill="none" />
<path d="M-63.4106660501176,236.65182744082173 L122.49999999999999,-212.1762239271875" stroke="#0d6d4d" stroke-width="0.1" fill="none" />
<path d="M-93.75744092944697,226.35048546526525 L173.24116139070412,-173.24116139070415" stroke="#0d6d4d" stroke-width="0.1" fill="none" />
<path d="M-122.49999999999994,212.17622392718752 L212.17622392718746,-122.50000000000003" stroke="#0d6d4d" stroke-width="0.1" fill="none" />
<path d="M-149.14655010713656,194.37156837135262 L236.65182744082173,-63.410666050117584" stroke="#0d6d4d" stroke-width="0.1" fill="none" />
<path d="M-173.24116139070404,173.24116139070424 L245.0,-1.5001923289555078e-14" stroke="#0d6d4d" stroke-width="0.1" fill="none" />
<path d="M-194.37156837135257,149.14655010713662 L236.65182744082173,63.410666050117555" stroke="#0d6d4d" stroke-width="0.1" fill="none" />
<path d="M-212.1762239271874,122.50000000000011 L212.17622392718752,122.49999999999994" stroke="#0d6d4d" stroke-width="0.1" fill="none" />
<path d="M-226.35048546526528,93.75744092944693 L173.24116139070415,173.24116139070412" stroke="#0d6d4d" stroke-width="0.1" fill="none" />
<path d="M-236.65182744082173,63.410666050117555 L122.49999999999999,212.1762239271875" stroke="#0d6d4d" stroke-width="0.1" fill="none" />
<path d="M-242.90399103658353,31.97891709391265 L63.41066605011765,236.6518274408217" stroke="#0d6d4d" stroke-width="0.1" fill="none" />
<path d="M-245.0,4.500576986866523e-14 L3.0003846579110155e-14,245.0" stroke="#0d6d4d" stroke-width="0.1" fill="none" />
<path d="M-242.90399103658356,-31.978917093912553 L-63.4106660501176,236.65182744082173" stroke="#0d6d4d" stroke-width="0.1" fill="none" />
<path d="M-236.65182744082176,-63.41066605011747 L-122.49999999999994,212.17622392718752" stroke="#0d6d4d" stroke-width="0.1" fill="none" />
<path d="M-226.3504854652653,-93.75744092944684 L-173.24116139070404,173.24116139070424" stroke="#0d6d4d" stroke-width="0.1" fill="none" />
<path d="M-212.17622392718746,-122.5 L-212.1762239271874,122.50000000000011" stroke="#0d6d4d" stroke-width="0.1" fill="none" />
<path d="M-194.37156837135277,-149.14655010713636 L-236.65182744082173,63.410666050117555" stroke="#0d6d4d" stroke-width="0.1" fill="none" />
<path d="M-173.24116139070418,-173.24116139070412 L-245.0,4.500576986866523e-14" stroke="#0d6d4d" stroke-width="0.1" fill="none" />
<path d="M-149.14655010713662,-194.37156837135257 L-236.65182744082176,-63.41066605011747" stroke="#0d6d4d" stroke-width="0.1" fill="none" />
<path d="M-122.50000000000011,-212.1762239271874 L-212.17622392718746,-122.5" stroke="#0d6d4d" stroke-width="0.1" fill="none" />
<path d="M-93.75744092944694,-226.35048546526528 L-173.24116139070418,-173.24116139070412" stroke="#0d6d4d" stroke-width="0.1" fill="none" />
<path d="M-63.41066605011777,-236.65182744082168 L-122.50000000000011,-212.1762239271874" stroke="#0d6d4d" stroke-width="0.1" fill="none" />
<path d="M-31.978917093912663,-242.90399103658353 L-63.41066605011777,-236.65182744082168" stroke="#0d6d4d" stroke-width="0.1" fill="none" />
</svg>