<?xml version="1.0" encoding="UTF-8"?>
<svg xmlns="http://www.w3.org/2000/svg" xmlns:xlink="http://www.w3.org/1999/xlink"
     width="500.0" height="500" viewBox="-250.0 -250.0 500 500">
<defs>
</defs>
<circle cx="0" cy="0" r="245.0" fill="white" stroke-width="2" stroke="black" />
<path d="M0.0,-245.0 L0.0,-245.0" stroke="#4c0618" stroke-width="0.1" fill="none" />
<path d="M24.394122415975083,-243.78253996452335 L48.54580508385241,-240.14225952289323" stroke="#4c0618" stroke-width="0.1" fill="none" />
<path d="M48.54580508385241,-240.14225952289323 L95.16652508730022,-225.76167190824987" stroke="#4c0618" stroke-width="0.1" fill="none" />
<path d="M72.21501773067153,-234.11533741760448 L138.0134142255874,-202.42849970741875" stroke="#4c0618" stroke-width="0.1" fill="none" />
<path d="M95.16652508730022,-225.76167190824987 L175.38737806863102,-171.06802043108786" stroke="#4c0618" stroke-width="0.1" fill="none" />
<path d="M117.17222476222295,-215.16428547570598 L205.80635117193899,-132.92383464711108" stroke="#4c0618" stroke-width="0.1" fill="none" />
<path d="M138.0134142255874,-202.42849970741875 L228.06406841783004,-89.50855096976677" stroke="#4c0618" stroke-width="0.1" fill="none" />
<path d="M157.48296437320212,-187.68088856414965 L241.27789948799096,-42.54380352839795" stroke="#4c0618" stroke-width="0.1" fill="none" />
<path d="M175.38737806863102,-171.06802043108786 L244.92384959019998,6.108019475827863" stroke="#4c0618" stroke-width="0.1" fill="none" />
<path d="M191.54871320466728,-152.75500145538973 L238.85733848454677,54.517628819297016" stroke="#4c0618" stroke-width="0.1" fill="none" />
<path d="M205.80635117193899,-132.92383464711108 L223.31893381635996,100.76534026699979" stroke="#4c0618" stroke-width="0.1" fill="none" />
<path d="M218.0185931588098,-111.77161105152496 L198.9248114003849,143.01719969752347" stroke="#4c0618" stroke-width="0.1" fill="none" />
<path d="M228.06406841783004,-89.50855096976677 L166.64232075387525,179.59770859830746" stroke="#4c0618" stroke-width="0.1" fill="none" />
<path d="M235.84294050275295,-66.35591469503625 L127.75162482797704,209.05626599987812" stroke="#4c0618" stroke-width="0.1" fill="none" />
<path d="M241.27789948799096,-42.54380352839795 L83.79493511478887,230.22469209254754" stroke="#4c0618" stroke-width="0.1" fill="none" />
<path d="M244.31493030938913,-18.308872928673974 L36.5153552131628,242.2635524251565" stroke="#4c0618" stroke-width="0.1" fill="none" />
<path d="M244.92384959019998,6.108019475827863 L-12.212241986870822,244.69544569863598" stroke="#4c0618" stroke-width="0.1" fill="none" />
<path d="M243.09860561704215,30.464207638633866 L-60.45556243412194,237.4239351261241" stroke="#4c0618" stroke-width="0.1" fill="none" />
<path d="M238.85733848454677,54.517628819297016 L-106.30151608380172,220.7373726360927" stroke="#4c0618" stroke-width="0.1" fill="none" />
<path d="M232.24219981094728,78.02922931166266 L-147.9320805297419,195.29746426961603" stroke="#4c0618" stroke-width="0.1" fill="none" />
<path d="M223.31893381635996,100.76534026699979 L-183.6963947270948,162.11303021123064" stroke="#4c0618" stroke-width="0.1" fill="none" />
<path d="M212.17622392718746,122.50000000000003 L-212.17622392718752,122.49999999999991" stroke="#4c0618" stroke-width="0.1" fill="none" />
<path d="M198.9248114003849,143.01719969752347 L-232.24219981094723,78.0292293116628" stroke="#4c0618" stroke-width="0.1" fill="none" />
<path d="M183.69639472709494,162.1130302112305 L-243.09860561704213,30.464207638634033" stroke="#4c0618" stroke-width="0.1" fill="none" />
<path d="M166.64232075387525,179.59770859830746 L-244.31493030938913,-18.30887292867397" stroke="#4c0618" stroke-width="0.1" fill="none" />
<path d="M147.93208052974197,195.297464269616 L-235.84294050275295,-66.35591469503625" stroke="#4c0618" stroke-width="0.1" fill="none" />
<path d="M127.75162482797704,209.05626599987812 L-218.0185931588098,-111.77161105152491" stroke="#4c0618" stroke-width="0.1" fill="none" />
<path d="M106.30151608380177,220.73737263609266 L-191.54871320466734,-152.75500145538967" stroke="#4c0618" stroke-width="0.1" fill="none" />
<path d="M83.79493511478887,230.22469209254754 L-157.4829643732022,-187.6808885641496" stroke="#4c0618" stroke-width="0.1" fill="none" />
<path d="M60.455562434121994,237.42393512612406 L-117.17222476222305,-215.16428547570595" stroke="#4c0618" stroke-width="0.1" fill="none" />
<path d="M36.5153552131628,242.2635524251565 L-72.21501773067165,-234.11533741760445" stroke="#4c0618" stroke-width="0.1" fill="none" />
<path d="M12.212241986870882,244.69544569863598 L-24.39412241597524,-243.78253996452332" stroke="#4c0618" stroke-width="0.1" fill="none" />
<path d="M-12.212241986870822,244.69544569863598 L24.394122415975083,-243.78253996452335" stroke="#4c0618" stroke-width="0.1" fill="none" />
<path d="M-36.51535521316274,242.2635524251565 L72.21501773067153,-234.11533741760448" stroke="#4c0618" stroke-width="0.1" fill="none" />
<path d="M-60.45556243412194,237.4239351261241 L117.17222476222295,-215.16428547570598" stroke="#4c0618" stroke-width="0.1" fill="none" />
<path d="M-83.79493511478883,230.22469209254757 L157.48296437320212,-187.68088856414965" stroke="#4c0618" stroke-width="0.1" fill="none" />
<path d="M-106.30151608380172,220.7373726360927 L191.54871320466728,-152.75500145538973" stroke="#4c0618" stroke-width="0.1" fill="none" />
<path d="M-127.75162482797698,209.05626599987815 L218.0185931588098,-111.77161105152496" stroke="#4c0618" stroke-width="0.1" fill="none" />
<path d="M-147.9320805297419,195.29746426961603 L235.84294050275295,-66.35591469503625" stroke="#4c0618" stroke-width="0.1" fill="none" />
<path d="M-166.64232075387523,179.5977085983075 L244.31493030938913,-18.308872928673974" stroke="#4c0618" stroke-width="0.1" fill="none" />
<path d="M-183.6963947270948,162.11303021123064 L243.09860561704215,30.464207638633866" stroke="#4c0618" stroke-width="0.1" fill="none" />
<path d="M-198.9248114003847,143.0171996975237 L232.24219981094728,78.02922931166266" stroke="#4c0618" stroke-width="0.1" fill="none" />
<path d="M-212.17622392718752,122.49999999999991 L212.17622392718746,122.50000000000003" stroke="#4c0618" stroke-width="0.1" fill="none" />
<path d="M-223.31893381635993,100.76534026699983 L183.69639472709494,162.1130302112305" stroke="#4c0618" stroke-width="0.1" fill="none" />
<path d="M-232.24219981094723,78.0292293116628 L147.93208052974197,195.297464269616" stroke="#4c0618" stroke-width="0.1" fill="none" />
<path d="M-238.85733848454677,54.51762881929707 L106.30151608380177,220.73737263609266" stroke="#4c0618" stroke-width="0.1" fill="none" />
<path d="M-243.09860561704213,30.464207638634033 L60.455562434121994,237.42393512612406" stroke="#4c0618" stroke-width="0.1" fill="none" />
<path d="M-244.92384959019998,6.108019475827923 L12.212241986870882,244.69544569863598" stroke="#4c0618" stroke-width="0.1" fill="none" />
<path d="M-244.31493030938913,-18.30887292867397 L-36.51535521316274,242.2635524251565" stroke="#4c0618" stroke-width="0.1" fill="none" />
<path d="M-241.277899487991,-42.543803528397845 L-83.79493511478883,230.22469209254757" stroke="#4c0618" stroke-width="0.1" fill="none" />
<path d="M-235.84294050275295,-66.35591469503625 L-127.75162482797698,209.05626599987815" stroke="#4c0618" stroke-width="0.1" fill="none" />
<path d="M-228.0640684178301,-89.50855096976667 L-166.64232075387523,179.5977085983075" stroke="#4c0618" stroke-width="0.1" fill="none" />
<path d="M-218.0185931588098,-111.77161105152491 L-198.9248114003847,143.0171996975237" stroke="#4c0618" stroke-width="0.1" fill="none" />
<path d="M-205.80635117193896,-132.9238346471111 L-223.31893381635993,100.76534026699983" stroke="#4c0618" stroke-width="0.1" fill="none" />
<path d="M-191.54871320466734,-152.75500145538967 L-238.85733848454677,54.51762881929707" stroke="#4c0618" stroke-width="0.1" fill="none" />
<path d="M-175.38737806863102,-171.0680204310879 L-244.92384959019998,6.108019475827923" stroke="#4c0618" stroke-width="0.1" fill="none" />
<path d="M-157.4829643732022,-187.6808885641496 L-241.277899487991,-42.543803528397845" stroke="#4c0618" stroke-width="0.1" fill="none" />
<path d="M-138.01341422558758,-202.42849970741864 L-228.0640684178301,-89.50855096976667" stroke="#4c0618" stroke-width="0.1" fill="none" />
<path d="M-117.17222476222305,-215.16428547570595 L-205.80635117193896,-132.9238346471111" stroke="#4c0618" stroke-width="0.1" fill="none" />
<path d="M-95.16652508730022,-225.76167190824987 L-175.38737806863102,-171.0680204310879" stroke="#4c0618" stroke-width="0.1" fill="none" />
<path d="M-72.21501773067165,-234.11533741760445 L-138.01341422558758,-202.42849970741864" stroke="#4c0618" stroke-width="0.1" fill="none" />
<path d="M-48.54580508385244,-240.14225952289323 L-95.16652508730022,-225.76167190824987" stroke="#4c0618" stroke-width="0.1" fill="none" />
<path d="M-24.39412241597524,-243.78253996452332 L-48.54580508385244,-240.14225952289323" stroke="#4c0618" stroke-width="0.1" fill="none" />
</svg>