<?xml version="1.0" encoding="UTF-8"?>
<svg xmlns="http://www.w3.org/2000/svg" xmlns:xlink="http://www.w3.org/1999/xlink"
     width="500.0" height="500" viewBox="-250.0 -250.0 500 500">
<defs>
</defs>
<circle cx="0" cy="0" r="245.0" fill="white" stroke-width="2" stroke="black" />
<path d="M0.0,-245.0 L0.0,-245.0" stroke="#0d6d4d" stroke-width="0.1" fill="none" />
<path d="M2.2637624936582474,-244.98954136732513 L47.24192773168811,-240.40216360131612" stroke="#0d6d4d" stroke-width="0.1" fill="none" />
<path d="M4.527331714986826,-244.95816636222293 L92.71070726036602,-226.7812266464813" stroke="#0d6d4d" stroke-width="0.1" fill="none" />
<path d="M6.790514408157003,-244.90587766338442 L134.69974258994648,-204.64842864337405" stroke="#0d6d4d" stroke-width="0.1" fill="none" />
<path d="M9.053117350340498,-244.8326797350406 L171.63304421035627,-174.83448783087934" stroke="#0d6d4d" stroke-width="0.1" fill="none" />
<path d="M11.3149473682062,-244.73857882658123 L202.12438127658407,-138.45842153353502" stroke="#0d6d4d" stroke-width="0.1" fill="none" />
<path d="M13.57581135441264,-244.62358297202132 L225.02931150775115,-96.88554568328291" stroke="#0d6d4d" stroke-width="0.1" fill="none" />
<path d="M15.835516284094838,-244.48770198931516 L239.4881359493581,-51.67622992732511" stroke="#0d6d4d" stroke-width="0.1" fill="none" />
<path d="M18.09386923134412,-244.33094747951807 L244.95816636222293,-4.527331714986829" stroke="#0d6d4d" stroke-width="0.1" fill="none" />
<path d="M20.35067738567946,-244.15333282579616 L241.23409413463799,42.79149246100932" stroke="#0d6d4d" stroke-width="0.1" fill="none" />
<path d="M22.605748068508987,-243.95487319228346 L228.45569620406718,88.50420821585247" stroke="#0d6d4d" stroke-width="0.1" fill="none" />
<path d="M24.858888749580235,-243.73558552278735 L207.10258875926183,130.89506380766267" stroke="#0d6d4d" stroke-width="0.1" fill="none" />
<path d="M27.109907063417708,-243.49548853934203 L177.97622563397493,168.37298806246935" stroke="#0d6d4d" stroke-width="0.1" fill="none" />
<path d="M29.358610825746393,-243.23460274061003 L142.16981705301237,199.53130861875533" stroke="#0d6d4d" stroke-width="0.1" fill="none" />
<path d="M31.604808049899802,-242.95295040013198 L101.02729778110631,223.20054906529168" stroke="#0d6d4d" stroke-width="0.1" fill="none" />
<path d="M33.84830696321114,-242.65055556442528 L56.092884737782825,238.49232331836976" stroke="#0d6d4d" stroke-width="0.1" fill="none" />
<path d="M36.08891602338619,-242.32744405093075 L9.053117350340504,244.8326797350406" stroke="#0d6d4d" stroke-width="0.1" fill="none" />
<path d="M38.32644393485656,-241.98364344580875 L-38.326443934856535,241.98364344580875" stroke="#0d6d4d" stroke-width="0.1" fill="none" />
<path d="M40.56069966511184,-241.61918310158364 L-84.26748506531244,230.0521483506888" stroke="#0d6d4d" stroke-width="0.1" fill="none" />
<path d="M42.7914924610093,-241.234094134638 L-127.04568448100207,209.48602353081617" stroke="#0d6d4d" stroke-width="0.1" fill="none" />
<path d="M45.01863186505973,-240.82840942255595 L-165.05543269340652,181.05718471906147" stroke="#0d6d4d" stroke-width="0.1" fill="none" />
<path d="M47.24192773168811,-240.40216360131612 L-196.870096201825,145.83266171020873" stroke="#0d6d4d" stroke-width="0.1" fill="none" />
<path d="M49.461190243467506,-239.95539306233465 L-221.2955638398016,105.13454914928914" stroke="#0d6d4d" stroke-width="0.1" fill="none" />
<path d="M51.67622992732513,-239.4881359493581 L-237.41506577745227,60.490383879489585" stroke="#0d6d4d" stroke-width="0.1" fill="none" />
<path d="M53.88685767071881,-239.00043215520697 L-244.62358297202132,13.575811354412645" stroke="#0d6d4d" stroke-width="0.1" fill="none" />
<path d="M56.09288473778285,-238.49232331836976 L-242.65055556442528,-33.8483069632111" stroke="#0d6d4d" stroke-width="0.1" fill="none" />
<path d="M58.2941227854416,-237.96385281944788 L-231.5700378994008,-80.00198464582036" stroke="#0d6d4d" stroke-width="0.1" fill="none" />
<path d="M60.4903838794896,-237.41506577745227 L-211.797919017246,-123.15291916947855" stroke="#0d6d4d" stroke-width="0.1" fill="none" />
<path d="M62.68148051063672,-236.84600904595092 L-184.07631294143388,-161.68151104528712" stroke="#0d6d4d" stroke-width="0.1" fill="none" />
<path d="M64.86722561051708,-236.256731209069 L-149.44570464702903,-194.14165282739552" stroke="#0d6d4d" stroke-width="0.1" fill="none" />
<path d="M67.0474325676603,-235.64728257734066 L-109.20589716525183,-219.3150063819903" stroke="#0d6d4d" stroke-width="0.1" fill="none" />
<path d="M69.22191524342377,-235.01771518341388 L-64.86722561051705,-236.25673120906902" stroke="#0d6d4d" stroke-width="0.1" fill="none" />
<path d="M71.39048798788453,-234.368082777608 L-18.09386923134413,-244.33094747951807" stroke="#0d6d4d" stroke-width="0.1" fill="none" />
<path d="M73.55296565568942,-233.69844082332463 L29.358610825746393,-243.23460274061003" stroke="#0d6d4d" stroke-width="0.1" fill="none" />
<path d="M75.70916362186212,-233.0088464923126 L75.70916362186212,-233.0088464923126" stroke="#0d6d4d" stroke-width="0.1" fill="none" />
<path d="M77.85889779756589,-232.29935865978663 L119.21809724887979,-214.03748570836055" stroke="#0d6d4d" stroke-width="0.1" fill="none" />
<path d="M80.0019846458204,-231.5700378994008 L158.2523753092629,-187.03257927157023" stroke="#0d6d4d" stroke-width="0.1" fill="none" />
<path d="M82.13824119717148,-230.820946478077 L191.34691025637977,-153.0077120126203" stroke="#0d6d4d" stroke-width="0.1" fill="none" />
<path d="M84.26748506531239,-230.05214835068884 L217.25955305041515,-113.23995146737673" stroke="#0d6d4d" stroke-width="0.1" fill="none" />
<path d="M86.38953446265549,-229.2637091546014 L235.01771518341388,-69.22191524342381" stroke="#0d6d4d" stroke-width="0.1" fill="none" />
<path d="M88.50420821585247,-228.45569620406718 L243.95487319228346,-22.60574806850899" stroke="#0d6d4d" stroke-width="0.1" fill="none" />
<path d="M90.61132578126242,-227.62817848447924 L243.73558552278735,24.858888749580206" stroke="#0d6d4d" stroke-width="0.1" fill="none" />
<path d="M92.71070726036602,-226.7812266464813 L234.368082777608,71.39048798788453" stroke="#0d6d4d" stroke-width="0.1" fill="none" />
<path d="M94.80217341512459,-225.91491299993598 L216.20395879418663,115.24256245728677" stroke="#0d6d4d" stroke-width="0.1" fill="none" />
<path d="M96.8855456832829,-225.02931150775115 L189.92497414722686,154.76919653204644" stroke="#0d6d4d" stroke-width="0.1" fill="none" />
<path d="M98.96064619361425,-224.12449777956516 L156.5174673847305,188.48682289080534" stroke="#0d6d4d" stroke-width="0.1" fill="none" />
<path d="M101.02729778110634,-223.20054906529165 L117.23533442981521,215.129905780506" stroke="#0d6d4d" stroke-width="0.1" fill="none" />
<path d="M103.0853240020872,-222.25754424852423 L73.55296565568945,233.69844082332463" stroke="#0d6d4d" stroke-width="0.1" fill="none" />
<path d="M105.1345491492892,-221.29556383980156 L27.10990706341777,243.49548853934203" stroke="#0d6d4d" stroke-width="0.1" fill="none" />
<path d="M107.17479826685043,-220.3146899697338 L-20.350677385679482,244.15333282579616" stroke="#0d6d4d" stroke-width="0.1" fill="none" />
<path d="M109.20589716525187,-219.3150063819903 L-67.0474325676602,235.6472825773407" stroke="#0d6d4d" stroke-width="0.1" fill="none" />
<path d="M111.22767243618895,-218.29659842615013 L-111.22767243618894,218.29659842615013" stroke="#0d6d4d" stroke-width="0.1" fill="none" />
<path d="M113.23995146737673,-217.25955305041515 L-151.23316421599924,192.75250981820344" stroke="#0d6d4d" stroke-width="0.1" fill="none" />
<path d="M115.2425624572868,-216.20395879418663 L-185.5623674478874,159.97377218511545" stroke="#0d6d4d" stroke-width="0.1" fill="none" />
<path d="M117.2353344298152,-215.129905780506 L-212.92679184485436,121.19068163294592" stroke="#0d6d4d" stroke-width="0.1" fill="none" />
<path d="M119.21809724887979,-214.03748570836055 L-232.29935865978666,77.85889779756583" stroke="#0d6d4d" stroke-width="0.1" fill="none" />
<path d="M121.19068163294581,-212.92679184485445 L-242.95295040013195,31.60480804989998" stroke="#0d6d4d" stroke-width="0.1" fill="none" />
<path d="M123.15291916947861,-211.79791901724593 L-244.48770198931516,-15.835516284094858" stroke="#0d6d4d" stroke-width="0.1" fill="none" />
<path d="M125.10464232932222,-210.65096360485126 L-236.84600904595092,-62.68148051063672" stroke="#0d6d4d" stroke-width="0.1" fill="none" />
<path d="M127.04568448100216,-209.4860235308161 L-220.3146899697338,-107.17479826685042" stroke="#0d6d4d" stroke-width="0.1" fill="none" />
<path d="M128.97587990495217,-208.30319825375548 L-195.51422068365872,-147.64548591291776" stroke="#0d6d4d" stroke-width="0.1" fill="none" />
<path d="M130.89506380766264,-207.10258875926186 L-163.3754460888519,-182.5745426264808" stroke="#0d6d4d" stroke-width="0.1" fill="none" />
<path d="M132.80307233575007,-205.8842975512837 L-125.10464232932229,-210.6509636048512" stroke="#0d6d4d" stroke-width="0.1" fill="none" />
<path d="M134.69974258994648,-204.64842864337405 L-82.1382411971714,-230.82094647807702" stroke="#0d6d4d" stroke-width="0.1" fill="none" />
<path d="M136.58491263900694,-203.3950875498099 L-36.08891602338615,-242.32744405093075" stroke="#0d6d4d" stroke-width="0.1" fill="none" />
<path d="M138.45842153353502,-202.1243812765841 L11.3149473682062,-244.73857882658123" stroke="#0d6d4d" stroke-width="0.1" fill="none" />
<path d="M140.32010931972377,-200.8364183122692 L58.2941227854416,-237.96385281944788" stroke="#0d6d4d" stroke-width="0.1" fill="none" />
<path d="M142.16981705301234,-199.53130861875536 L103.0853240020872,-222.25754424852423" stroke="#0d6d4d" stroke-width="0.1" fill="none" />
<path d="M144.00738681165592,-198.20916362186213 L144.00738681165592,-198.20916362186213" stroke="#0d6d4d" stroke-width="0.1" fill="none" />
<path d="M145.8326617102086,-196.87009620182508 L179.52436876602476,-166.7213274274181" stroke="#0d6d4d" stroke-width="0.1" fill="none" />
<path d="M147.6454859129178,-195.51422068365866 L208.30319825375545,-128.9758799049522" stroke="#0d6d4d" stroke-width="0.1" fill="none" />
<path d="M149.44570464702892,-194.14165282739557 L229.2637091546014,-86.38953446265548" stroke="#0d6d4d" stroke-width="0.1" fill="none" />
<path d="M151.23316421599927,-192.75250981820338 L241.61918310158364,-40.56069966511185" stroke="#0d6d4d" stroke-width="0.1" fill="none" />
<path d="M153.00771201262026,-191.3469102563798 L244.90587766338442,6.790514408156968" stroke="#0d6d4d" stroke-width="0.1" fill="none" />
<path d="M154.7691965320465,-189.9249741472268 L239.00043215520697,53.886857670718804" stroke="#0d6d4d" stroke-width="0.1" fill="none" />
<path d="M156.5174673847305,-188.48682289080534 L224.12449777956516,98.96064619361424" stroke="#0d6d4d" stroke-width="0.1" fill="none" />
<path d="M158.2523753092629,-187.03257927157023 L200.8364183122692,140.32010931972377" stroke="#0d6d4d" stroke-width="0.1" fill="none" />
<path d="M159.97377218511537,-185.56236744788748 L170.0102735854022,176.41288749809834" stroke="#0d6d4d" stroke-width="0.1" fill="none" />
<path d="M161.68151104528704,-184.07631294143397 L132.80307233575013,205.88429755128368" stroke="#0d6d4d" stroke-width="0.1" fill="none" />
<path d="M163.37544608885185,-182.57454262648082 L90.61132578126241,227.62817848447924" stroke="#0d6d4d" stroke-width="0.1" fill="none" />
<path d="M165.05543269340652,-181.05718471906147 L45.01863186505974,240.82840942255595" stroke="#0d6d4d" stroke-width="0.1" fill="none" />
<path d="M166.72132742741806,-179.52436876602476 L-2.2637624936581022,244.98954136732513" stroke="#0d6d4d" stroke-width="0.1" fill="none" />
<path d="M168.37298806246935,-177.97622563397493 L-49.461190243467456,239.95539306233465" stroke="#0d6d4d" stroke-width="0.1" fill="none" />
<path d="M170.01027358540216,-176.41288749809837 L-94.80217341512451,225.914912999936" stroke="#0d6d4d" stroke-width="0.1" fill="none" />
<path d="M171.63304421035627,-174.83448783087934 L-136.58491263900694,203.3950875498099" stroke="#0d6d4d" stroke-width="0.1" fill="none" />
<path d="M173.24116139070412,-173.24116139070415 L-173.24116139070404,173.24116139070424" stroke="#0d6d4d" stroke-width="0.1" fill="none" />
<path d="M174.83448783087928,-171.6330442103563 L-203.39508754980986,136.584912639007" stroke="#0d6d4d" stroke-width="0.1" fill="none" />
<path d="M176.41288749809834,-170.0102735854022 L-225.91491299993595,94.80217341512467" stroke="#0d6d4d" stroke-width="0.1" fill="none" />
<path d="M177.97622563397488,-168.3729880624694 L-239.95539306233462,49.461190243467634" stroke="#0d6d4d" stroke-width="0.1" fill="none" />
<path d="M179.52436876602476,-166.7213274274181 L-244.98954136732513,2.263762493658395" stroke="#0d6d4d" stroke-width="0.1" fill="none" />
<path d="M181.05718471906147,-165.05543269340654 L-240.82840942255595,-45.018631865059774" stroke="#0d6d4d" stroke-width="0.1" fill="none" />
<path d="M182.57454262648082,-163.37544608885185 L-227.6281784844793,-90.61132578126224" stroke="#0d6d4d" stroke-width="0.1" fill="none" />
<path d="M184.07631294143394,-161.68151104528707 L-205.8842975512837,-132.80307233575007" stroke="#0d6d4d" stroke-width="0.1" fill="none" />
<path d="M185.56236744788742,-159.97377218511542 L-176.4128874980984,-170.01027358540213" stroke="#0d6d4d" stroke-width="0.1" fill="none" />
<path d="M187.03257927157023,-158.2523753092629 L-140.32010931972383,-200.83641831226916" stroke="#0d6d4d" stroke-width="0.1" fill="none" />
<path d="M188.48682289080534,-156.5174673847305 L-98.96064619361435,-224.1244977795651" stroke="#0d6d4d" stroke-width="0.1" fill="none" />
<path d="M189.9249741472268,-154.7691965320465 L-53.88685767071893,-239.00043215520694" stroke="#0d6d4d" stroke-width="0.1" fill="none" />
<path d="M191.34691025637977,-153.0077120126203 L-6.7905144081571525,-244.90587766338442" stroke="#0d6d4d" stroke-width="0.1" fill="none" />
<path d="M192.75250981820335,-151.23316421599932 L40.56069966511184,-241.61918310158364" stroke="#0d6d4d" stroke-width="0.1" fill="none" />
<path d="M194.14165282739557,-149.44570464702892 L86.38953446265549,-229.2637091546014" stroke="#0d6d4d" stroke-width="0.1" fill="none" />
<path d="M195.51422068365866,-147.64548591291782 L128.97587990495217,-208.30319825375548" stroke="#0d6d4d" stroke-width="0.1" fill="none" />
<path d="M196.87009620182505,-145.83266171020864 L166.72132742741806,-179.52436876602476" stroke="#0d6d4d" stroke-width="0.1" fill="none" />
<path d="M198.2091636218621,-144.00738681165595 L198.2091636218621,-144.00738681165595" stroke="#0d6d4d" stroke-width="0.1" fill="none" />
<path d="M199.53130861875533,-142.16981705301237 L222.25754424852423,-103.08532400208723" stroke="#0d6d4d" stroke-width="0.1" fill="none" />
<path d="M200.8364183122692,-140.32010931972377 L237.96385281944788,-58.29412278544161" stroke="#0d6d4d" stroke-width="0.1" fill="none" />
<path d="M202.12438127658407,-138.45842153353502 L244.73857882658123,-11.314947368206237" stroke="#0d6d4d" stroke-width="0.1" fill="none" />
<path d="M203.3950875498099,-136.58491263900697 L242.32744405093075,36.088916023386126" stroke="#0d6d4d" stroke-width="0.1" fill="none" />
<path d="M204.64842864337405,-134.6997425899465 L230.820946478077,82.13824119717144" stroke="#0d6d4d" stroke-width="0.1" fill="none" />
<path d="M205.8842975512837,-132.80307233575013 L210.65096360485128,125.10464232932213" stroke="#0d6d4d" stroke-width="0.1" fill="none" />
<path d="M207.1025887592618,-130.8950638076627 L182.5745426264809,163.37544608885176" stroke="#0d6d4d" stroke-width="0.1" fill="none" />
<path d="M208.30319825375545,-128.9758799049522 L147.64548591291782,195.51422068365866" stroke="#0d6d4d" stroke-width="0.1" fill="none" />
<path d="M209.4860235308161,-127.04568448100217 L107.17479826685049,220.31468996973376" stroke="#0d6d4d" stroke-width="0.1" fill="none" />
<path d="M210.65096360485123,-125.10464232932225 L62.68148051063678,236.84600904595092" stroke="#0d6d4d" stroke-width="0.1" fill="none" />
<path d="M211.7979190172459,-123.15291916947866 L15.835516284094934,244.48770198931513" stroke="#0d6d4d" stroke-width="0.1" fill="none" />
<path d="M212.92679184485442,-121.19068163294585 L-31.604808049899795,242.95295040013198" stroke="#0d6d4d" stroke-width="0.1" fill="none" />
<path d="M214.03748570836055,-119.21809724887979 L-77.85889779756586,232.29935865978663" stroke="#0d6d4d" stroke-width="0.1" fill="none" />
<path d="M215.129905780506,-117.2353344298152 L-121.19068163294585,212.92679184485442" stroke="#0d6d4d" stroke-width="0.1" fill="none" />
<path d="M216.20395879418663,-115.2425624572868 L-159.9737721851153,185.56236744788754" stroke="#0d6d4d" stroke-width="0.1" fill="none" />
<path d="M217.25955305041515,-113.23995146737673 L-192.75250981820338,151.2331642159993" stroke="#0d6d4d" stroke-width="0.1" fill="none" />
<path d="M218.2965984261501,-111.22767243618897 L-218.2965984261501,111.227672436189" stroke="#0d6d4d" stroke-width="0.1" fill="none" />
<path d="M219.3150063819903,-109.20589716525188 L-235.64728257734066,67.04743256766037" stroke="#0d6d4d" stroke-width="0.1" fill="none" />
<path d="M220.31468996973376,-107.17479826685047 L-244.15333282579616,20.350677385679553" stroke="#0d6d4d" stroke-width="0.1" fill="none" />
<path d="M221.29556383980156,-105.13454914928921 L-243.49548853934206,-27.109907063417587" stroke="#0d6d4d" stroke-width="0.1" fill="none" />
<path d="M222.25754424852423,-103.08532400208723 L-233.69844082332463,-73.55296565568949" stroke="#0d6d4d" stroke-width="0.1" fill="none" />
<path d="M223.20054906529163,-101.0272977811064 L-215.12990578050608,-117.23533442981505" stroke="#0d6d4d" stroke-width="0.1" fill="none" />
<path d="M224.12449777956513,-98.96064619361431 L-188.48682289080534,-156.5174673847305" stroke="#0d6d4d" stroke-width="0.1" fill="none" />
<path d="M225.02931150775115,-96.88554568328291 L-154.7691965320465,-189.9249741472268" stroke="#0d6d4d" stroke-width="0.1" fill="none" />
<path d="M225.91491299993598,-94.80217341512459 L-115.24256245728684,-216.2039587941866" stroke="#0d6d4d" stroke-width="0.1" fill="none" />
<path d="M226.7812266464813,-92.71070726036604 L-71.3904879878846,-234.36808277760798" stroke="#0d6d4d" stroke-width="0.1" fill="none" />
<path d="M227.6281784844792,-90.61132578126244 L-24.858888749580334,-243.73558552278735" stroke="#0d6d4d" stroke-width="0.1" fill="none" />
<path d="M228.45569620406718,-88.50420821585249 L22.605748068508987,-243.95487319228346" stroke="#0d6d4d" stroke-width="0.1" fill="none" />
<path d="M229.2637091546014,-86.38953446265548 L69.22191524342377,-235.01771518341388" stroke="#0d6d4d" stroke-width="0.1" fill="none" />
<path d="M230.05214835068884,-84.26748506531237 L113.23995146737673,-217.25955305041515" stroke="#0d6d4d" stroke-width="0.1" fill="none" />
<path d="M230.820946478077,-82.13824119717147 L153.00771201262026,-191.3469102563798" stroke="#0d6d4d" stroke-width="0.1" fill="none" />
<path d="M231.5700378994008,-80.0019846458204 L187.03257927157023,-158.2523753092629" stroke="#0d6d4d" stroke-width="0.1" fill="none" />
<path d="M232.29935865978663,-77.8588977975659 L214.03748570836055,-119.21809724887979" stroke="#0d6d4d" stroke-width="0.1" fill="none" />
<path d="M233.0088464923126,-75.70916362186213 L233.0088464923126,-75.70916362186213" stroke="#0d6d4d" stroke-width="0.1" fill="none" />
<path d="M233.69844082332463,-73.55296565568943 L243.23460274061,-29.35861082574643" stroke="#0d6d4d" stroke-width="0.1" fill="none" />
<path d="M234.36808277760798,-71.39048798788455 L244.33094747951807,18.09386923134411" stroke="#0d6d4d" stroke-width="0.1" fill="none" />
<path d="M235.01771518341388,-69.22191524342381 L236.256731209069,64.8672256105171" stroke="#0d6d4d" stroke-width="0.1" fill="none" />
<path d="M235.64728257734066,-67.04743256766034 L219.3150063819903,109.20589716525187" stroke="#0d6d4d" stroke-width="0.1" fill="none" />
<path d="M236.256731209069,-64.86722561051712 L194.1416528273956,149.4457046470289" stroke="#0d6d4d" stroke-width="0.1" fill="none" />
<path d="M236.84600904595092,-62.68148051063672 L161.681511045287,184.076312941434" stroke="#0d6d4d" stroke-width="0.1" fill="none" />
<path d="M237.41506577745227,-60.490383879489606 L123.15291916947861,211.79791901724593" stroke="#0d6d4d" stroke-width="0.1" fill="none" />
<path d="M237.96385281944788,-58.29412278544161 L80.00198464582041,231.57003789940077" stroke="#0d6d4d" stroke-width="0.1" fill="none" />
<path d="M238.49232331836976,-56.09288473778287 L33.84830696321118,242.65055556442525" stroke="#0d6d4d" stroke-width="0.1" fill="none" />
<path d="M239.00043215520697,-53.88685767071883 L-13.575811354412568,244.62358297202132" stroke="#0d6d4d" stroke-width="0.1" fill="none" />
<path d="M239.4881359493581,-51.67622992732511 L-60.49038387948962,237.41506577745224" stroke="#0d6d4d" stroke-width="0.1" fill="none" />
<path d="M239.95539306233465,-49.46119024346749 L-105.13454914928919,221.29556383980156" stroke="#0d6d4d" stroke-width="0.1" fill="none" />
<path d="M240.40216360131612,-47.241927731688094 L-145.83266171020867,196.87009620182505" stroke="#0d6d4d" stroke-width="0.1" fill="none" />
<path d="M240.82840942255595,-45.018631865059724 L-181.0571847190614,165.05543269340657" stroke="#0d6d4d" stroke-width="0.1" fill="none" />
<path d="M241.234094134638,-42.7914924610093 L-209.4860235308161,127.04568448100216" stroke="#0d6d4d" stroke-width="0.1" fill="none" />
<path d="M241.61918310158364,-40.56069966511185 L-230.05214835068884,84.2674850653124" stroke="#0d6d4d" stroke-width="0.1" fill="none" />
<path d="M241.98364344580875,-38.32644393485658 L-241.98364344580872,38.32644393485661" stroke="#0d6d4d" stroke-width="0.1" fill="none" />
<path d="M242.32744405093075,-36.088916023386204 L-244.8326797350406,-9.053117350340427" stroke="#0d6d4d" stroke-width="0.1" fill="none" />
<path d="M242.65055556442528,-33.848306963211165 L-238.49232331836973,-56.09288473778296" stroke="#0d6d4d" stroke-width="0.1" fill="none" />
<path d="M242.95295040013198,-31.604808049899834 L-223.2005490652917,-101.02729778110624" stroke="#0d6d4d" stroke-width="0.1" fill="none" />
<path d="M243.23460274061,-29.35861082574643 L-199.53130861875533,-142.1698170530124" stroke="#0d6d4d" stroke-width="0.1" fill="none" />
<path d="M243.49548853934206,-27.109907063417698 L-168.37298806246932,-177.97622563397493" stroke="#0d6d4d" stroke-width="0.1" fill="none" />
<path d="M243.73558552278735,-24.858888749580235 L-130.89506380766264,-207.10258875926186" stroke="#0d6d4d" stroke-width="0.1" fill="none" />
<path d="M243.95487319228346,-22.60574806850899 L-88.50420821585249,-228.45569620406718" stroke="#0d6d4d" stroke-width="0.1" fill="none" />
<path d="M244.15333282579616,-20.35067738567947 L-42.79149246100934,-241.23409413463799" stroke="#0d6d4d" stroke-width="0.1" fill="none" />
<path d="M244.33094747951807,-18.093869231344136 L4.527331714986826,-244.95816636222293" stroke="#0d6d4d" stroke-width="0.1" fill="none" />
<path d="M244.48770198931513,-15.835516284094862 L51.67622992732513,-239.4881359493581" stroke="#0d6d4d" stroke-width="0.1" fill="none" />
<path d="M244.62358297202132,-13.57581135441267 L96.8855456832829,-225.02931150775115" stroke="#0d6d4d" stroke-width="0.1" fill="none" />
<path d="M244.73857882658123,-11.314947368206237 L138.45842153353502,-202.1243812765841" stroke="#0d6d4d" stroke-width="0.1" fill="none" />
<path d="M244.8326797350406,-9.053117350340488 L174.83448783087928,-171.6330442103563" stroke="#0d6d4d" stroke-width="0.1" fill="none" />
<path d="M244.90587766338442,-6.790514408156999 L204.64842864337405,-134.6997425899465" stroke="#0d6d4d" stroke-width="0.1" fill="none" />
<path d="M244.95816636222293,-4.527331714986829 L226.7812266464813,-92.71070726036604" stroke="#0d6d4d" stroke-width="0.1" fill="none" />
<path d="M244.98954136732513,-2.263762493658256 L240.40216360131612,-47.241927731688094" stroke="#0d6d4d" stroke-width="0.1" fill="none" />
<path d="M245.0,-1.5001923289555078e-14 L245.0,-1.5001923289555078e-14" stroke="#0d6d4d" stroke-width="0.1" fill="none" />
<path d="M244.98954136732513,2.263762493658226 L240.40216360131612,47.24192773168812" stroke="#0d6d4d" stroke-width="0.1" fill="none" />
<path d="M244.95816636222293,4.527331714986799 L226.7812266464813,92.71070726036601" stroke="#0d6d4d" stroke-width="0.1" fill="none" />
<path d="M244.90587766338442,6.790514408156968 L204.64842864337405,134.69974258994648" stroke="#0d6d4d" stroke-width="0.1" fill="none" />
<path d="M244.8326797350406,9.053117350340457 L174.83448783087934,171.63304421035625" stroke="#0d6d4d" stroke-width="0.1" fill="none" />
<path d="M244.73857882658123,11.314947368206152 L138.45842153353505,202.12438127658405" stroke="#0d6d4d" stroke-width="0.1" fill="none" />
<path d="M244.62358297202132,13.575811354412584 L96.88554568328288,225.02931150775115" stroke="#0d6d4d" stroke-width="0.1" fill="none" />
<path d="M244.48770198931516,15.835516284094835 L51.676229927325124,239.4881359493581" stroke="#0d6d4d" stroke-width="0.1" fill="none" />
<path d="M244.33094747951807,18.09386923134411 L4.527331714986843,244.95816636222293" stroke="#0d6d4d" stroke-width="0.1" fill="none" />
<path d="M244.15333282579616,20.350677385679443 L-42.791492461009256,241.234094134638" stroke="#0d6d4d" stroke-width="0.1" fill="none" />
<path d="M243.95487319228346,22.605748068508962 L-88.5042082158525,228.45569620406715" stroke="#0d6d4d" stroke-width="0.1" fill="none" />
<path d="M243.73558552278735,24.858888749580206 L-130.89506380766255,207.1025887592619" stroke="#0d6d4d" stroke-width="0.1" fill="none" />
<path d="M243.49548853934206,27.10990706341767 L-168.37298806246935,177.97622563397493" stroke="#0d6d4d" stroke-width="0.1" fill="none" />
<path d="M243.23460274061003,29.35861082574635 L-199.53130861875528,142.16981705301248" stroke="#0d6d4d" stroke-width="0.1" fill="none" />
<path d="M242.95295040013198,31.604808049899752 L-223.20054906529168,101.02729778110631" stroke="#0d6d4d" stroke-width="0.1" fill="none" />
<path d="M242.65055556442528,33.84830696321108 L-238.49232331836976,56.092884737782846" stroke="#0d6d4d" stroke-width="0.1" fill="none" />
<path d="M242.32744405093075,36.088916023386126 L-244.8326797350406,9.053117350340516" stroke="#0d6d4d" stroke-width="0.1" fill="none" />
<path d="M241.98364344580872,38.326443934856606 L-241.98364344580875,-38.32644393485651" stroke="#0d6d4d" stroke-width="0.1" fill="none" />
<path d="M241.61918310158364,40.56069966511187 L-230.05214835068887,-84.26748506531233" stroke="#0d6d4d" stroke-width="0.1" fill="none" />
<path d="M241.23409413463799,42.79149246100932 L-209.48602353081617,-127.04568448100207" stroke="#0d6d4d" stroke-width="0.1" fill="none" />
<path d="M240.82840942255595,45.01863186505975 L-181.0571847190614,-165.05543269340657" stroke="#0d6d4d" stroke-width="0.1" fill="none" />
<path d="M240.40216360131612,47.24192773168812 L-145.83266171020873,-196.870096201825" stroke="#0d6d4d" stroke-width="0.1" fill="none" />
<path d="M239.95539306233465,49.46119024346752 L-105.13454914928916,-221.2955638398016" stroke="#0d6d4d" stroke-width="0.1" fill="none" />
<path d="M239.4881359493581,51.67622992732514 L-60.4903838794896,-237.41506577745227" stroke="#0d6d4d" stroke-width="0.1" fill="none" />
<path d="M239.00043215520697,53.886857670718804 L-13.575811354412878,-244.62358297202132" stroke="#0d6d4d" stroke-width="0.1" fill="none" />
<path d="M238.49232331836976,56.09288473778284 L33.84830696321114,-242.65055556442528" stroke="#0d6d4d" stroke-width="0.1" fill="none" />
<path d="M237.9638528194479,58.29412278544154 L80.0019846458204,-231.5700378994008" stroke="#0d6d4d" stroke-width="0.1" fill="none" />
<path d="M237.41506577745227,60.49038387948953 L123.15291916947861,-211.79791901724593" stroke="#0d6d4d" stroke-width="0.1" fill="none" />
<path d="M236.84600904595092,62.681480510636746 L161.68151104528704,-184.07631294143397" stroke="#0d6d4d" stroke-width="0.1" fill="none" />
<path d="M236.256731209069,64.8672256105171 L194.14165282739557,-149.44570464702892" stroke="#0d6d4d" stroke-width="0.1" fill="none" />
<path d="M235.64728257734066,67.04743256766031 L219.3150063819903,-109.20589716525188" stroke="#0d6d4d" stroke-width="0.1" fill="none" />
<path d="M235.01771518341388,69.22191524342378 L236.256731209069,-64.86722561051712" stroke="#0d6d4d" stroke-width="0.1" fill="none" />
<path d="M234.368082777608,71.39048798788453 L244.33094747951807,-18.093869231344136" stroke="#0d6d4d" stroke-width="0.1" fill="none" />
<path d="M233.69844082332466,73.5529656556894 L243.23460274061003,29.35861082574635" stroke="#0d6d4d" stroke-width="0.1" fill="none" />
<path d="M233.00884649231264,75.7091636218621 L233.00884649231264,75.7091636218621" stroke="#0d6d4d" stroke-width="0.1" fill="none" />
<path d="M232.29935865978663,77.85889779756587 L214.03748570836055,119.21809724887974" stroke="#0d6d4d" stroke-width="0.1" fill="none" />
<path d="M231.5700378994008,80.00198464582039 L187.03257927157028,158.25237530926282" stroke="#0d6d4d" stroke-width="0.1" fill="none" />
<path d="M230.820946478077,82.13824119717144 L153.00771201262026,191.3469102563798" stroke="#0d6d4d" stroke-width="0.1" fill="none" />
<path d="M230.05214835068884,84.2674850653124 L113.23995146737676,217.25955305041515" stroke="#0d6d4d" stroke-width="0.1" fill="none" />
<path d="M229.2637091546014,86.3895344626555 L69.22191524342382,235.01771518341388" stroke="#0d6d4d" stroke-width="0.1" fill="none" />
<path d="M228.45569620406718,88.50420821585247 L22.60574806850906,243.95487319228346" stroke="#0d6d4d" stroke-width="0.1" fill="none" />
<path d="M227.62817848447924,90.61132578126242 L-24.85888874958024,243.73558552278735" stroke="#0d6d4d" stroke-width="0.1" fill="none" />
<path d="M226.7812266464813,92.71070726036601 L-71.39048798788443,234.36808277760804" stroke="#0d6d4d" stroke-width="0.1" fill="none" />
<path d="M225.914912999936,94.80217341512457 L-115.24256245728675,216.20395879418666" stroke="#0d6d4d" stroke-width="0.1" fill="none" />
<path d="M225.02931150775115,96.8855456832829 L-154.76919653204644,189.92497414722686" stroke="#0d6d4d" stroke-width="0.1" fill="none" />
<path d="M224.12449777956516,98.96064619361424 L-188.48682289080526,156.51746738473062" stroke="#0d6d4d" stroke-width="0.1" fill="none" />
<path d="M223.20054906529168,101.02729778110631 L-215.12990578050594,117.23533442981531" stroke="#0d6d4d" stroke-width="0.1" fill="none" />
<path d="M222.25754424852423,103.0853240020872 L-233.69844082332466,73.55296565568935" stroke="#0d6d4d" stroke-width="0.1" fill="none" />
<path d="M221.29556383980162,105.1345491492891 L-243.49548853934203,27.109907063417893" stroke="#0d6d4d" stroke-width="0.1" fill="none" />
<path d="M220.3146899697338,107.17479826685044 L-244.15333282579616,-20.350677385679468" stroke="#0d6d4d" stroke-width="0.1" fill="none" />
<path d="M219.3150063819903,109.20589716525187 L-235.64728257734066,-67.04743256766028" stroke="#0d6d4d" stroke-width="0.1" fill="none" />
<path d="M218.29659842615013,111.22767243618895 L-218.29659842615015,-111.22767243618893" stroke="#0d6d4d" stroke-width="0.1" fill="none" />
<path d="M217.25955305041515,113.23995146737671 L-192.75250981820344,-151.2331642159992" stroke="#0d6d4d" stroke-width="0.1" fill="none" />
<path d="M216.20395879418663,115.24256245728677 L-159.97377218511545,-185.5623674478874" stroke="#0d6d4d" stroke-width="0.1" fill="none" />
<path d="M215.12990578050602,117.23533442981517 L-121.19068163294592,-212.92679184485436" stroke="#0d6d4d" stroke-width="0.1" fill="none" />
<path d="M214.03748570836055,119.21809724887974 L-77.85889779756585,-232.29935865978666" stroke="#0d6d4d" stroke-width="0.1" fill="none" />
<path d="M212.92679184485448,121.19068163294575 L-31.60480804989999,-242.95295040013195" stroke="#0d6d4d" stroke-width="0.1" fill="none" />
<path d="M211.79791901724596,123.15291916947858 L15.835516284094838,-244.48770198931516" stroke="#0d6d4d" stroke-width="0.1" fill="none" />
<path d="M210.65096360485128,125.10464232932213 L62.68148051063672,-236.84600904595092" stroke="#0d6d4d" stroke-width="0.1" fill="none" />
<path d="M209.48602353081617,127.04568448100207 L107.17479826685043,-220.3146899697338" stroke="#0d6d4d" stroke-width="0.1" fill="none" />
<path d="M208.30319825375545,128.9758799049522 L147.6454859129178,-195.51422068365866" stroke="#0d6d4d" stroke-width="0.1" fill="none" />
<path d="M207.10258875926183,130.89506380766267 L182.57454262648082,-163.37544608885185" stroke="#0d6d4d" stroke-width="0.1" fill="none" />
<path d="M205.8842975512837,132.8030723357501 L210.65096360485123,-125.10464232932225" stroke="#0d6d4d" stroke-width="0.1" fill="none" />
<path d="M204.64842864337405,134.69974258994648 L230.820946478077,-82.13824119717147" stroke="#0d6d4d" stroke-width="0.1" fill="none" />
<path d="M203.3950875498099,136.58491263900694 L242.32744405093075,-36.088916023386204" stroke="#0d6d4d" stroke-width="0.1" fill="none" />
<path d="M202.1243812765841,138.45842153353502 L244.73857882658123,11.314947368206152" stroke="#0d6d4d" stroke-width="0.1" fill="none" />
<path d="M200.8364183122692,140.32010931972377 L237.9638528194479,58.29412278544154" stroke="#0d6d4d" stroke-width="0.1" fill="none" />
<path d="M199.5313086187554,142.1698170530123 L222.25754424852423,103.0853240020872" stroke="#0d6d4d" stroke-width="0.1" fill="none" />
<path d="M198.20916362186213,144.0073868116559 L198.20916362186213,144.0073868116559" stroke="#0d6d4d" stroke-width="0.1" fill="none" />
<path d="M196.87009620182508,145.83266171020858 L166.72132742741812,179.52436876602474" stroke="#0d6d4d" stroke-width="0.1" fill="none" />
<path d="M195.5142206836587,147.6454859129178 L128.97587990495222,208.30319825375543" stroke="#0d6d4d" stroke-width="0.1" fill="none" />
<path d="M194.1416528273956,149.4457046470289 L86.38953446265549,229.2637091546014" stroke="#0d6d4d" stroke-width="0.1" fill="none" />
<path d="M192.75250981820344,151.23316421599924 L40.560699665111855,241.61918310158364" stroke="#0d6d4d" stroke-width="0.1" fill="none" />
<path d="M191.34691025637983,153.00771201262023 L-6.790514408157063,244.90587766338442" stroke="#0d6d4d" stroke-width="0.1" fill="none" />
<path d="M189.92497414722686,154.76919653204644 L-53.88685767071875,239.000432155207" stroke="#0d6d4d" stroke-width="0.1" fill="none" />
<path d="M188.4868228908054,156.51746738473045 L-98.96064619361427,224.12449777956513" stroke="#0d6d4d" stroke-width="0.1" fill="none" />
<path d="M187.03257927157028,158.25237530926282 L-140.32010931972377,200.8364183122692" stroke="#0d6d4d" stroke-width="0.1" fill="none" />
<path d="M185.56236744788754,159.9737721851153 L-176.4128874980984,170.01027358540213" stroke="#0d6d4d" stroke-width="0.1" fill="none" />
<path d="M184.07631294143403,161.68151104528695 L-205.88429755128365,132.80307233575016" stroke="#0d6d4d" stroke-width="0.1" fill="none" />
<path d="M182.5745426264809,163.37544608885176 L-227.62817848447918,90.61132578126252" stroke="#0d6d4d" stroke-width="0.1" fill="none" />
<path d="M181.05718471906155,165.05543269340643 L-240.82840942255592,45.01863186505986" stroke="#0d6d4d" stroke-width="0.1" fill="none" />
<path d="M179.52436876602476,166.72132742741806 L-244.98954136732513,-2.263762493658087" stroke="#0d6d4d" stroke-width="0.1" fill="none" />
<path d="M177.97622563397493,168.37298806246935 L-239.95539306233465,-49.46119024346754" stroke="#0d6d4d" stroke-width="0.1" fill="none" />
<path d="M176.4128874980984,170.01027358540213 L-225.91491299993606,-94.8021734151244" stroke="#0d6d4d" stroke-width="0.1" fill="none" />
<path d="M174.83448783087934,171.63304421035625 L-203.39508754980992,-136.58491263900692" stroke="#0d6d4d" stroke-width="0.1" fill="none" />
<path d="M173.24116139070415,173.24116139070412 L-173.24116139070418,-173.24116139070412" stroke="#0d6d4d" stroke-width="0.1" fill="none" />
<path d="M171.6330442103563,174.83448783087928 L-136.584912639007,-203.39508754980986" stroke="#0d6d4d" stroke-width="0.1" fill="none" />
<path d="M170.0102735854022,176.41288749809834 L-94.80217341512468,-225.91491299993595" stroke="#0d6d4d" stroke-width="0.1" fill="none" />
<path d="M168.3729880624694,177.97622563397488 L-49.46119024346765,-239.95539306233462" stroke="#0d6d4d" stroke-width="0.1" fill="none" />
<path d="M166.72132742741812,179.52436876602474 L-2.2637624936581924,-244.98954136732513" stroke="#0d6d4d" stroke-width="0.1" fill="none" />
<path d="M165.05543269340654,181.05718471906144 L45.01863186505973,-240.82840942255595" stroke="#0d6d4d" stroke-width="0.1" fill="none" />
<path d="M163.37544608885187,182.5745426264808 L90.61132578126242,-227.62817848447924" stroke="#0d6d4d" stroke-width="0.1" fill="none" />
<path d="M161.681511045287,184.076312941434 L132.80307233575007,-205.8842975512837" stroke="#0d6d4d" stroke-width="0.1" fill="none" />
<path d="M159.97377218511537,185.5623674478875 L170.01027358540216,-176.41288749809837" stroke="#0d6d4d" stroke-width="0.1" fill="none" />
<path d="M158.25237530926287,187.03257927157023 L200.8364183122692,-140.32010931972377" stroke="#0d6d4d" stroke-width="0.1" fill="none" />
<path d="M156.5174673847305,188.48682289080534 L224.12449777956513,-98.96064619361431" stroke="#0d6d4d" stroke-width="0.1" fill="none" />
<path d="M154.7691965320465,189.92497414722683 L239.00043215520697,-53.88685767071883" stroke="#0d6d4d" stroke-width="0.1" fill="none" />
<path d="M153.00771201262026,191.3469102563798 L244.90587766338442,-6.790514408156999" stroke="#0d6d4d" stroke-width="0.1" fill="none" />
<path d="M151.23316421599927,192.75250981820338 L241.61918310158364,40.56069966511187" stroke="#0d6d4d" stroke-width="0.1" fill="none" />
<path d="M149.44570464702892,194.14165282739557 L229.2637091546014,86.3895344626555" stroke="#0d6d4d" stroke-width="0.1" fill="none" />
<path d="M147.64548591291782,195.51422068365866 L208.30319825375545,128.9758799049522" stroke="#0d6d4d" stroke-width="0.1" fill="none" />
<path d="M145.83266171020864,196.87009620182505 L179.52436876602476,166.72132742741806" stroke="#0d6d4d" stroke-width="0.1" fill="none" />
<path d="M144.00738681165595,198.2091636218621 L144.00738681165595,198.2091636218621" stroke="#0d6d4d" stroke-width="0.1" fill="none" />
<path d="M142.16981705301237,199.53130861875533 L103.08532400208725,222.2575442485242" stroke="#0d6d4d" stroke-width="0.1" fill="none" />
<path d="M140.3201093197238,200.83641831226916 L58.29412278544168,237.96385281944788" stroke="#0d6d4d" stroke-width="0.1" fill="none" />
<path d="M138.45842153353505,202.12438127658405 L11.314947368206306,244.73857882658123" stroke="#0d6d4d" stroke-width="0.1" fill="none" />
<path d="M136.584912639007,203.3950875498099 L-36.08891602338617,242.32744405093075" stroke="#0d6d4d" stroke-width="0.1" fill="none" />
<path d="M134.69974258994654,204.64842864337402 L-82.13824119717142,230.820946478077" stroke="#0d6d4d" stroke-width="0.1" fill="none" />
<path d="M132.80307233575013,205.88429755128368 L-125.10464232932225,210.65096360485123" stroke="#0d6d4d" stroke-width="0.1" fill="none" />
<path d="M130.8950638076627,207.1025887592618 L-163.37544608885176,182.5745426264809" stroke="#0d6d4d" stroke-width="0.1" fill="none" />
<path d="M128.97587990495222,208.30319825375543 L-195.51422068365864,147.64548591291785" stroke="#0d6d4d" stroke-width="0.1" fill="none" />
<path d="M127.04568448100223,209.48602353081608 L-220.31468996973376,107.17479826685049" stroke="#0d6d4d" stroke-width="0.1" fill="none" />
<path d="M125.10464232932229,210.6509636048512 L-236.84600904595092,62.681480510636796" stroke="#0d6d4d" stroke-width="0.1" fill="none" />
<path d="M123.15291916947861,211.79791901724593 L-244.48770198931513,15.835516284094947" stroke="#0d6d4d" stroke-width="0.1" fill="none" />
<path d="M121.19068163294581,212.92679184485445 L-242.95295040013198,-31.604808049899884" stroke="#0d6d4d" stroke-width="0.1" fill="none" />
<path d="M119.21809724887979,214.03748570836055 L-232.2993586597867,-77.85889779756575" stroke="#0d6d4d" stroke-width="0.1" fill="none" />
<path d="M117.23533442981521,215.129905780506 L-212.92679184485442,-121.19068163294584" stroke="#0d6d4d" stroke-width="0.1" fill="none" />
<path d="M115.24256245728681,216.20395879418663 L-185.56236744788748,-159.97377218511537" stroke="#0d6d4d" stroke-width="0.1" fill="none" />
<path d="M113.23995146737676,217.25955305041515 L-151.2331642159993,-192.75250981820338" stroke="#0d6d4d" stroke-width="0.1" fill="none" />
<path d="M111.22767243618898,218.2965984261501 L-111.22767243618901,-218.2965984261501" stroke="#0d6d4d" stroke-width="0.1" fill="none" />
<path d="M109.2058971652519,219.31500638199026 L-67.04743256766038,-235.64728257734063" stroke="#0d6d4d" stroke-width="0.1" fill="none" />
<path d="M107.17479826685049,220.31468996973376 L-20.35067738567957,-244.15333282579616" stroke="#0d6d4d" stroke-width="0.1" fill="none" />
<path d="M105.13454914928923,221.29556383980156 L27.109907063417708,-243.49548853934203" stroke="#0d6d4d" stroke-width="0.1" fill="none" />
<path d="M103.08532400208725,222.2575442485242 L73.55296565568942,-233.69844082332463" stroke="#0d6d4d" stroke-width="0.1" fill="none" />
<path d="M101.02729778110631,223.20054906529168 L117.2353344298152,-215.129905780506" stroke="#0d6d4d" stroke-width="0.1" fill="none" />
<path d="M98.96064619361422,224.12449777956516 L156.5174673847305,-188.48682289080534" stroke="#0d6d4d" stroke-width="0.1" fill="none" />
<path d="M96.88554568328288,225.02931150775115 L189.9249741472268,-154.7691965320465" stroke="#0d6d4d" stroke-width="0.1" fill="none" />
<path d="M94.80217341512456,225.914912999936 L216.20395879418663,-115.2425624572868" stroke="#0d6d4d" stroke-width="0.1" fill="none" />
<path d="M92.710707260366,226.7812266464813 L234.36808277760798,-71.39048798788455" stroke="#0d6d4d" stroke-width="0.1" fill="none" />
<path d="M90.61132578126241,227.62817848447924 L243.73558552278735,-24.858888749580235" stroke="#0d6d4d" stroke-width="0.1" fill="none" />
<path d="M88.50420821585246,228.45569620406718 L243.95487319228346,22.605748068508962" stroke="#0d6d4d" stroke-width="0.1" fill="none" />
<path d="M86.38953446265549,229.2637091546014 L235.01771518341388,69.22191524342378" stroke="#0d6d4d" stroke-width="0.1" fill="none" />
<path d="M84.26748506531239,230.05214835068884 L217.25955305041515,113.23995146737671" stroke="#0d6d4d" stroke-width="0.1" fill="none" />
<path d="M82.13824119717148,230.820946478077 L191.34691025637983,153.00771201262023" stroke="#0d6d4d" stroke-width="0.1" fill="none" />
<path d="M80.00198464582041,231.57003789940077 L158.25237530926287,187.03257927157023" stroke="#0d6d4d" stroke-width="0.1" fill="none" />
<path d="M77.85889779756592,232.29935865978663 L119.21809724887979,214.03748570836055" stroke="#0d6d4d" stroke-width="0.1" fill="none" />
<path d="M75.70916362186215,233.0088464923126 L75.70916362186215,233.0088464923126" stroke="#0d6d4d" stroke-width="0.1" fill="none" />
<path d="M73.55296565568945,233.69844082332463 L29.35861082574645,243.23460274061" stroke="#0d6d4d" stroke-width="0.1" fill="none" />
<path d="M71.39048798788457,234.36808277760798 L-18.093869231344037,244.33094747951807" stroke="#0d6d4d" stroke-width="0.1" fill="none" />
<path d="M69.22191524342382,235.01771518341388 L-64.86722561051708,236.256731209069" stroke="#0d6d4d" stroke-width="0.1" fill="none" />
<path d="M67.04743256766035,235.64728257734066 L-109.20589716525186,219.3150063819903" stroke="#0d6d4d" stroke-width="0.1" fill="none" />
<path d="M64.86722561051714,236.256731209069 L-149.44570464702898,194.14165282739555" stroke="#0d6d4d" stroke-width="0.1" fill="none" />
<path d="M62.68148051063678,236.84600904595092 L-184.07631294143388,161.68151104528712" stroke="#0d6d4d" stroke-width="0.1" fill="none" />
<path d="M60.49038387948967,237.41506577745224 L-211.79791901724593,123.15291916947864" stroke="#0d6d4d" stroke-width="0.1" fill="none" />
<path d="M58.29412278544168,237.96385281944788 L-231.57003789940077,80.00198464582043" stroke="#0d6d4d" stroke-width="0.1" fill="none" />
<path d="M56.092884737782825,238.49232331836976 L-242.65055556442525,33.8483069632112" stroke="#0d6d4d" stroke-width="0.1" fill="none" />
<path d="M53.88685767071879,239.000432155207 L-244.62358297202132,-13.575811354412556" stroke="#0d6d4d" stroke-width="0.1" fill="none" />
<path d="M51.676229927325124,239.4881359493581 L-237.41506577745224,-60.490383879489706" stroke="#0d6d4d" stroke-width="0.1" fill="none" />
<path d="M49.461190243467506,239.95539306233465 L-221.29556383980162,-105.13454914928909" stroke="#0d6d4d" stroke-width="0.1" fill="none" />
<path d="M47.24192773168811,240.40216360131612 L-196.87009620182505,-145.83266171020867" stroke="#0d6d4d" stroke-width="0.1" fill="none" />
<path d="M45.01863186505974,240.82840942255595 L-165.0554326934065,-181.05718471906147" stroke="#0d6d4d" stroke-width="0.1" fill="none" />
<path d="M42.79149246100931,241.23409413463799 L-127.04568448100216,-209.4860235308161" stroke="#0d6d4d" stroke-width="0.1" fill="none" />
<path d="M40.560699665111855,241.61918310158364 L-84.26748506531241,-230.05214835068884" stroke="#0d6d4d" stroke-width="0.1" fill="none" />
<path d="M38.32644393485659,241.98364344580872 L-38.32644393485663,-241.98364344580872" stroke="#0d6d4d" stroke-width="0.1" fill="none" />
<path d="M36.08891602338622,242.32744405093075 L9.053117350340498,-244.8326797350406" stroke="#0d6d4d" stroke-width="0.1" fill="none" />
<path d="M33.84830696321118,242.65055556442525 L56.09288473778285,-238.49232331836976" stroke="#0d6d4d" stroke-width="0.1" fill="none" />
<path d="M31.604808049899848,242.95295040013198 L101.02729778110634,-223.20054906529165" stroke="#0d6d4d" stroke-width="0.1" fill="none" />
<path d="M29.35861082574645,243.23460274061 L142.16981705301234,-199.53130861875536" stroke="#0d6d4d" stroke-width="0.1" fill="none" />
<path d="M27.10990706341777,243.49548853934203 L177.97622563397488,-168.3729880624694" stroke="#0d6d4d" stroke-width="0.1" fill="none" />
<path d="M24.858888749580306,243.73558552278735 L207.1025887592618,-130.8950638076627" stroke="#0d6d4d" stroke-width="0.1" fill="none" />
<path d="M22.60574806850906,243.95487319228346 L228.45569620406718,-88.50420821585249" stroke="#0d6d4d" stroke-width="0.1" fill="none" />
<path d="M20.35067738567954,244.15333282579616 L241.234094134638,-42.7914924610093" stroke="#0d6d4d" stroke-width="0.1" fill="none" />
<path d="M18.0938692313441,244.33094747951807 L244.95816636222293,4.527331714986799" stroke="#0d6d4d" stroke-width="0.1" fill="none" />
<path d="M15.835516284094934,244.48770198931513 L239.4881359493581,51.67622992732514" stroke="#0d6d4d" stroke-width="0.1" fill="none" />
<path d="M13.57581135441263,244.62358297202132 L225.02931150775115,96.8855456832829" stroke="#0d6d4d" stroke-width="0.1" fill="none" />
<path d="M11.314947368206306,244.73857882658123 L202.1243812765841,138.45842153353502" stroke="#0d6d4d" stroke-width="0.1" fill="none" />
<path d="M9.053117350340504,244.8326797350406 L171.6330442103563,174.83448783087928" stroke="#0d6d4d" stroke-width="0.1" fill="none" />
<path d="M6.790514408157122,244.90587766338442 L134.69974258994654,204.64842864337402" stroke="#0d6d4d" stroke-width="0.1" fill="none" />
<path d="M4.527331714986843,244.95816636222293 L92.710707260366,226.7812266464813" stroke="#0d6d4d" stroke-width="0.1" fill="none" />
<path d="M2.2637624936583802,244.98954136732513 L47.24192773168811,240.40216360131612" stroke="#0d6d4d" stroke-width="0.1" fill="none" />
<path d="M3.0003846579110155e-14,245.0 L3.0003846579110155e-14,245.0" stroke="#0d6d4d" stroke-width="0.1" fill="none" />
<path d="M-2.2637624936581022,244.98954136732513 L-47.24192773168806,240.40216360131612" stroke="#0d6d4d" stroke-width="0.1" fill="none" />
<path d="M-4.527331714986784,244.95816636222293 L-92.71070726036605,226.78122664648126" stroke="#0d6d4d" stroke-width="0.1" fill="none" />
<path d="M-6.790514408157063,244.90587766338442 L-134.6997425899464,204.6484286433741" stroke="#0d6d4d" stroke-width="0.1" fill="none" />
<path d="M-9.053117350340441,244.8326797350406 L-171.63304421035625,174.83448783087934" stroke="#0d6d4d" stroke-width="0.1" fill="none" />
<path d="M-11.314947368206246,244.73857882658123 L-202.124381276584,138.45842153353516" stroke="#0d6d4d" stroke-width="0.1" fill="none" />
<path d="M-13.575811354412568,244.62358297202132 L-225.02931150775115,96.8855456832829" stroke="#0d6d4d" stroke-width="0.1" fill="none" />
<path d="M-15.835516284094872,244.48770198931513 L-239.48813594935808,51.676229927325146" stroke="#0d6d4d" stroke-width="0.1" fill="none" />
<path d="M-18.093869231344037,244.33094747951807 L-244.95816636222293,4.527331714986859" stroke="#0d6d4d" stroke-width="0.1" fill="none" />
<path d="M-20.350677385679482,244.15333282579616 L-241.234094134638,-42.791492461009234" stroke="#0d6d4d" stroke-width="0.1" fill="none" />
<path d="M-22.605748068508895,243.95487319228346 L-228.4556962040672,-88.5042082158524" stroke="#0d6d4d" stroke-width="0.1" fill="none" />
<path d="M-24.85888874958024,243.73558552278735 L-207.1025887592619,-130.89506380766252" stroke="#0d6d4d" stroke-width="0.1" fill="none" />
<path d="M-27.1099070634176,243.49548853934206 L-177.97622563397488,-168.3729880624694" stroke="#0d6d4d" stroke-width="0.1" fill="none" />
<path d="M-29.358610825746386,243.23460274061003 L-142.16981705301248,-199.53130861875528" stroke="#0d6d4d" stroke-width="0.1" fill="none" />
<path d="M-31.604808049899795,242.95295040013198 L-101.02729778110633,-223.20054906529165" stroke="#0d6d4d" stroke-width="0.1" fill="none" />
<path d="M-33.84830696321112,242.65055556442528 L-56.09288473778286,-238.49232331836976" stroke="#0d6d4d" stroke-width="0.1" fill="none" />
<path d="M-36.08891602338617,242.32744405093075 L-9.053117350340532,-244.8326797350406" stroke="#0d6d4d" stroke-width="0.1" fill="none" />
<path d="M-38.326443934856535,241.98364344580875 L38.32644393485656,-241.98364344580875" stroke="#0d6d4d" stroke-width="0.1" fill="none" />
<path d="M-40.560699665111805,241.61918310158364 L84.26748506531239,-230.05214835068884" stroke="#0d6d4d" stroke-width="0.1" fill="none" />
<path d="M-42.791492461009256,241.234094134638 L127.04568448100216,-209.4860235308161" stroke="#0d6d4d" stroke-width="0.1" fill="none" />
<path d="M-45.01863186505969,240.82840942255595 L165.05543269340652,-181.05718471906147" stroke="#0d6d4d" stroke-width="0.1" fill="none" />
<path d="M-47.24192773168806,240.40216360131612 L196.87009620182505,-145.83266171020864" stroke="#0d6d4d" stroke-width="0.1" fill="none" />
<path d="M-49.461190243467456,239.95539306233465 L221.29556383980156,-105.13454914928921" stroke="#0d6d4d" stroke-width="0.1" fill="none" />
<path d="M-51.676229927325174,239.48813594935808 L237.41506577745227,-60.490383879489606" stroke="#0d6d4d" stroke-width="0.1" fill="none" />
<path d="M-53.88685767071875,239.000432155207 L244.62358297202132,-13.57581135441267" stroke="#0d6d4d" stroke-width="0.1" fill="none" />
<path d="M-56.09288473778288,238.49232331836973 L242.65055556442528,33.84830696321108" stroke="#0d6d4d" stroke-width="0.1" fill="none" />
<path d="M-58.29412278544152,237.9638528194479 L231.5700378994008,80.00198464582039" stroke="#0d6d4d" stroke-width="0.1" fill="none" />
<path d="M-60.49038387948962,237.41506577745224 L211.79791901724596,123.15291916947858" stroke="#0d6d4d" stroke-width="0.1" fill="none" />
<path d="M-62.68148051063662,236.84600904595095 L184.07631294143403,161.68151104528695" stroke="#0d6d4d" stroke-width="0.1" fill="none" />
<path d="M-64.86722561051708,236.256731209069 L149.44570464702892,194.14165282739557" stroke="#0d6d4d" stroke-width="0.1" fill="none" />
<path d="M-67.0474325676602,235.6472825773407 L109.2058971652519,219.31500638199026" stroke="#0d6d4d" stroke-width="0.1" fill="none" />
<path d="M-69.22191524342377,235.01771518341388 L64.86722561051714,236.256731209069" stroke="#0d6d4d" stroke-width="0.1" fill="none" />
<path d="M-71.39048798788443,234.36808277760804 L18.0938692313441,244.33094747951807" stroke="#0d6d4d" stroke-width="0.1" fill="none" />
<path d="M-73.55296565568939,233.69844082332466 L-29.358610825746386,243.23460274061003" stroke="#0d6d4d" stroke-width="0.1" fill="none" />
<path d="M-75.70916362186219,233.00884649231259 L-75.70916362186219,233.00884649231259" stroke="#0d6d4d" stroke-width="0.1" fill="none" />
<path d="M-77.85889779756586,232.29935865978663 L-119.21809724887974,214.03748570836055" stroke="#0d6d4d" stroke-width="0.1" fill="none" />
<path d="M-80.00198464582047,231.57003789940077 L-158.2523753092629,187.0325792715702" stroke="#0d6d4d" stroke-width="0.1" fill="none" />
<path d="M-82.13824119717142,230.820946478077 L-191.3469102563797,153.00771201262037" stroke="#0d6d4d" stroke-width="0.1" fill="none" />
<path d="M-84.26748506531244,230.0521483506888 L-217.25955305041512,113.23995146737684" stroke="#0d6d4d" stroke-width="0.1" fill="none" />
<path d="M-86.38953446265543,229.26370915460143 L-235.0177151834139,69.22191524342372" stroke="#0d6d4d" stroke-width="0.1" fill="none" />
<path d="M-88.5042082158525,228.45569620406715 L-243.95487319228346,22.605748068509186" stroke="#0d6d4d" stroke-width="0.1" fill="none" />
<path d="M-90.61132578126237,227.62817848447926 L-243.73558552278735,-24.85888874958023" stroke="#0d6d4d" stroke-width="0.1" fill="none" />
<path d="M-92.71070726036605,226.78122664648126 L-234.368082777608,-71.3904879878845" stroke="#0d6d4d" stroke-width="0.1" fill="none" />
<path d="M-94.80217341512451,225.914912999936 L-216.20395879418666,-115.24256245728675" stroke="#0d6d4d" stroke-width="0.1" fill="none" />
<path d="M-96.88554568328293,225.02931150775115 L-189.92497414722686,-154.7691965320464" stroke="#0d6d4d" stroke-width="0.1" fill="none" />
<path d="M-98.96064619361427,224.12449777956513 L-156.51746738473062,-188.48682289080526" stroke="#0d6d4d" stroke-width="0.1" fill="none" />
<path d="M-101.02729778110636,223.20054906529165 L-117.23533442981532,-215.12990578050594" stroke="#0d6d4d" stroke-width="0.1" fill="none" />
<path d="M-103.08532400208719,222.25754424852423 L-73.55296565568936,-233.69844082332466" stroke="#0d6d4d" stroke-width="0.1" fill="none" />
<path d="M-105.13454914928919,221.29556383980156 L-27.10990706341769,-243.49548853934206" stroke="#0d6d4d" stroke-width="0.1" fill="none" />
<path d="M-107.17479826685043,220.3146899697338 L20.35067738567946,-244.15333282579616" stroke="#0d6d4d" stroke-width="0.1" fill="none" />
<path d="M-109.20589716525186,219.3150063819903 L67.0474325676603,-235.64728257734066" stroke="#0d6d4d" stroke-width="0.1" fill="none" />
<path d="M-111.22767243618894,218.29659842615013 L111.22767243618895,-218.29659842615013" stroke="#0d6d4d" stroke-width="0.1" fill="none" />
<path d="M-113.2399514673766,217.25955305041524 L151.23316421599927,-192.75250981820338" stroke="#0d6d4d" stroke-width="0.1" fill="none" />
<path d="M-115.24256245728675,216.20395879418666 L185.56236744788742,-159.97377218511542" stroke="#0d6d4d" stroke-width="0.1" fill="none" />
<path d="M-117.23533442981505,215.12990578050608 L212.92679184485442,-121.19068163294585" stroke="#0d6d4d" stroke-width="0.1" fill="none" />
<path d="M-119.21809724887974,214.03748570836055 L232.29935865978663,-77.8588977975659" stroke="#0d6d4d" stroke-width="0.1" fill="none" />
<path d="M-121.19068163294585,212.92679184485442 L242.95295040013198,-31.604808049899834" stroke="#0d6d4d" stroke-width="0.1" fill="none" />
<path d="M-123.15291916947858,211.79791901724596 L244.48770198931516,15.835516284094835" stroke="#0d6d4d" stroke-width="0.1" fill="none" />
<path d="M-125.10464232932225,210.65096360485123 L236.84600904595092,62.681480510636746" stroke="#0d6d4d" stroke-width="0.1" fill="none" />
<path d="M-127.04568448100207,209.48602353081617 L220.3146899697338,107.17479826685044" stroke="#0d6d4d" stroke-width="0.1" fill="none" />
<path d="M-128.9758799049522,208.30319825375545 L195.5142206836587,147.6454859129178" stroke="#0d6d4d" stroke-width="0.1" fill="none" />
<path d="M-130.89506380766255,207.1025887592619 L163.37544608885187,182.5745426264808" stroke="#0d6d4d" stroke-width="0.1" fill="none" />
<path d="M-132.8030723357501,205.8842975512837 L125.10464232932229,210.6509636048512" stroke="#0d6d4d" stroke-width="0.1" fill="none" />
<path d="M-134.6997425899464,204.6484286433741 L82.13824119717148,230.820946478077" stroke="#0d6d4d" stroke-width="0.1" fill="none" />
<path d="M-136.58491263900694,203.3950875498099 L36.08891602338622,242.32744405093075" stroke="#0d6d4d" stroke-width="0.1" fill="none" />
<path d="M-138.4584215335349,202.12438127658416 L-11.314947368206246,244.73857882658123" stroke="#0d6d4d" stroke-width="0.1" fill="none" />
<path d="M-140.32010931972377,200.8364183122692 L-58.29412278544152,237.9638528194479" stroke="#0d6d4d" stroke-width="0.1" fill="none" />
<path d="M-142.1698170530124,199.5313086187553 L-103.08532400208719,222.25754424852423" stroke="#0d6d4d" stroke-width="0.1" fill="none" />
<path d="M-144.0073868116559,198.20916362186213 L-144.0073868116559,198.20916362186213" stroke="#0d6d4d" stroke-width="0.1" fill="none" />
<path d="M-145.83266171020867,196.87009620182505 L-179.5243687660248,166.72132742741806" stroke="#0d6d4d" stroke-width="0.1" fill="none" />
<path d="M-147.6454859129178,195.5142206836587 L-208.30319825375543,128.97587990495225" stroke="#0d6d4d" stroke-width="0.1" fill="none" />
<path d="M-149.44570464702898,194.14165282739555 L-229.26370915460143,86.38953446265539" stroke="#0d6d4d" stroke-width="0.1" fill="none" />
<path d="M-151.23316421599924,192.75250981820344 L-241.61918310158362,40.56069966511199" stroke="#0d6d4d" stroke-width="0.1" fill="none" />
<path d="M-153.00771201262032,191.34691025637974 L-244.90587766338442,-6.790514408157047" stroke="#0d6d4d" stroke-width="0.1" fill="none" />
<path d="M-154.76919653204644,189.92497414722686 L-239.00043215520697,-53.886857670718825" stroke="#0d6d4d" stroke-width="0.1" fill="none" />
<path d="M-156.51746738473045,188.4868228908054 L-224.12449777956516,-98.96064619361425" stroke="#0d6d4d" stroke-width="0.1" fill="none" />
<path d="M-158.2523753092629,187.0325792715702 L-200.8364183122692,-140.32010931972374" stroke="#0d6d4d" stroke-width="0.1" fill="none" />
<path d="M-159.9737721851153,185.56236744788754 L-170.0102735854022,-176.41288749809834" stroke="#0d6d4d" stroke-width="0.1" fill="none" />
<path d="M-161.68151104528704,184.07631294143394 L-132.80307233575016,-205.88429755128365" stroke="#0d6d4d" stroke-width="0.1" fill="none" />
<path d="M-163.37544608885176,182.5745426264809 L-90.61132578126254,-227.62817848447918" stroke="#0d6d4d" stroke-width="0.1" fill="none" />
<path d="M-165.05543269340652,181.05718471906147 L-45.018631865059874,-240.82840942255592" stroke="#0d6d4d" stroke-width="0.1" fill="none" />
<path d="M-166.72132742741798,179.52436876602488 L2.2637624936582474,-244.98954136732513" stroke="#0d6d4d" stroke-width="0.1" fill="none" />
<path d="M-168.37298806246935,177.97622563397493 L49.461190243467506,-239.95539306233465" stroke="#0d6d4d" stroke-width="0.1" fill="none" />
<path d="M-170.01027358540205,176.41288749809846 L94.80217341512459,-225.91491299993598" stroke="#0d6d4d" stroke-width="0.1" fill="none" />
<path d="M-171.63304421035625,174.83448783087934 L136.58491263900694,-203.3950875498099" stroke="#0d6d4d" stroke-width="0.1" fill="none" />
<path d="M-173.24116139070404,173.24116139070424 L173.24116139070412,-173.24116139070415" stroke="#0d6d4d" stroke-width="0.1" fill="none" />
<path d="M-174.83448783087928,171.6330442103563 L203.3950875498099,-136.58491263900697" stroke="#0d6d4d" stroke-width="0.1" fill="none" />
<path d="M-176.4128874980984,170.01027358540213 L225.91491299993598,-94.80217341512459" stroke="#0d6d4d" stroke-width="0.1" fill="none" />
<path d="M-177.97622563397488,168.3729880624694 L239.95539306233465,-49.46119024346749" stroke="#0d6d4d" stroke-width="0.1" fill="none" />
<path d="M-179.5243687660248,166.72132742741806 L244.98954136732513,-2.263762493658256" stroke="#0d6d4d" stroke-width="0.1" fill="none" />
<path d="M-181.0571847190614,165.05543269340657 L240.82840942255595,45.01863186505975" stroke="#0d6d4d" stroke-width="0.1" fill="none" />
<path d="M-182.57454262648085,163.37544608885182 L227.62817848447924,90.61132578126242" stroke="#0d6d4d" stroke-width="0.1" fill="none" />
<path d="M-184.07631294143388,161.68151104528712 L205.8842975512837,132.8030723357501" stroke="#0d6d4d" stroke-width="0.1" fill="none" />
<path d="M-185.5623674478874,159.97377218511545 L176.4128874980984,170.01027358540213" stroke="#0d6d4d" stroke-width="0.1" fill="none" />
<path d="M-187.03257927157023,158.2523753092629 L140.3201093197238,200.83641831226916" stroke="#0d6d4d" stroke-width="0.1" fill="none" />
<path d="M-188.48682289080526,156.51746738473062 L98.96064619361422,224.12449777956516" stroke="#0d6d4d" stroke-width="0.1" fill="none" />
<path d="M-189.92497414722666,154.76919653204666 L53.88685767071879,239.000432155207" stroke="#0d6d4d" stroke-width="0.1" fill="none" />
<path d="M-191.3469102563797,153.00771201262037 L6.790514408157122,244.90587766338442" stroke="#0d6d4d" stroke-width="0.1" fill="none" />
<path d="M-192.75250981820338,151.2331642159993 L-40.560699665111805,241.61918310158364" stroke="#0d6d4d" stroke-width="0.1" fill="none" />
<path d="M-194.14165282739552,149.44570464702903 L-86.38953446265543,229.26370915460143" stroke="#0d6d4d" stroke-width="0.1" fill="none" />
<path d="M-195.51422068365864,147.64548591291785 L-128.9758799049522,208.30319825375545" stroke="#0d6d4d" stroke-width="0.1" fill="none" />
<path d="M-196.870096201825,145.83266171020873 L-166.72132742741798,179.52436876602488" stroke="#0d6d4d" stroke-width="0.1" fill="none" />
<path d="M-198.2091636218621,144.00738681165595 L-198.2091636218621,144.00738681165595" stroke="#0d6d4d" stroke-width="0.1" fill="none" />
<path d="M-199.53130861875528,142.16981705301248 L-222.2575442485242,103.08532400208726" stroke="#0d6d4d" stroke-width="0.1" fill="none" />
<path d="M-200.83641831226916,140.32010931972383 L-237.96385281944785,58.2941227854417" stroke="#0d6d4d" stroke-width="0.1" fill="none" />
<path d="M-202.124381276584,138.45842153353516 L-244.73857882658123,11.31494736820632" stroke="#0d6d4d" stroke-width="0.1" fill="none" />
<path d="M-203.39508754980986,136.584912639007 L-242.32744405093075,-36.088916023386254" stroke="#0d6d4d" stroke-width="0.1" fill="none" />
<path d="M-204.64842864337393,134.69974258994665 L-230.82094647807705,-82.1382411971713" stroke="#0d6d4d" stroke-width="0.1" fill="none" />
<path d="M-205.88429755128365,132.80307233575016 L-210.65096360485126,-125.10464232932222" stroke="#0d6d4d" stroke-width="0.1" fill="none" />
<path d="M-207.10258875926186,130.89506380766264 L-182.57454262648085,-163.37544608885182" stroke="#0d6d4d" stroke-width="0.1" fill="none" />
<path d="M-208.30319825375543,128.97587990495225 L-147.64548591291785,-195.51422068365864" stroke="#0d6d4d" stroke-width="0.1" fill="none" />
<path d="M-209.4860235308161,127.04568448100216 L-107.1747982668505,-220.31468996973373" stroke="#0d6d4d" stroke-width="0.1" fill="none" />
<path d="M-210.6509636048512,125.10464232932229 L-62.68148051063681,-236.8460090459509" stroke="#0d6d4d" stroke-width="0.1" fill="none" />
<path d="M-211.79791901724593,123.15291916947864 L-15.835516284094965,-244.48770198931513" stroke="#0d6d4d" stroke-width="0.1" fill="none" />
<path d="M-212.92679184485436,121.19068163294592 L31.604808049899802,-242.95295040013198" stroke="#0d6d4d" stroke-width="0.1" fill="none" />
<path d="M-214.03748570836052,119.21809724887981 L77.85889779756589,-232.29935865978663" stroke="#0d6d4d" stroke-width="0.1" fill="none" />
<path d="M-215.12990578050594,117.23533442981531 L121.19068163294581,-212.92679184485445" stroke="#0d6d4d" stroke-width="0.1" fill="none" />
<path d="M-216.2039587941866,115.24256245728682 L159.97377218511537,-185.56236744788748" stroke="#0d6d4d" stroke-width="0.1" fill="none" />
<path d="M-217.25955305041512,113.23995146737684 L192.75250981820335,-151.23316421599932" stroke="#0d6d4d" stroke-width="0.1" fill="none" />
<path d="M-218.2965984261501,111.227672436189 L218.2965984261501,-111.22767243618897" stroke="#0d6d4d" stroke-width="0.1" fill="none" />
<path d="M-219.3150063819903,109.20589716525181 L235.64728257734066,-67.04743256766034" stroke="#0d6d4d" stroke-width="0.1" fill="none" />
<path d="M-220.31468996973376,107.17479826685049 L244.15333282579616,-20.35067738567947" stroke="#0d6d4d" stroke-width="0.1" fill="none" />
<path d="M-221.2955638398016,105.13454914928914 L243.49548853934206,27.10990706341767" stroke="#0d6d4d" stroke-width="0.1" fill="none" />
<path d="M-222.2575442485242,103.08532400208726 L233.69844082332466,73.5529656556894" stroke="#0d6d4d" stroke-width="0.1" fill="none" />
<path d="M-223.20054906529168,101.02729778110631 L215.12990578050602,117.23533442981517" stroke="#0d6d4d" stroke-width="0.1" fill="none" />
<path d="M-224.1244977795651,98.96064619361434 L188.4868228908054,156.51746738473045" stroke="#0d6d4d" stroke-width="0.1" fill="none" />
<path d="M-225.02931150775115,96.8855456832829 L154.7691965320465,189.92497414722683" stroke="#0d6d4d" stroke-width="0.1" fill="none" />
<path d="M-225.91491299993595,94.80217341512467 L115.24256245728681,216.20395879418663" stroke="#0d6d4d" stroke-width="0.1" fill="none" />
<path d="M-226.7812266464813,92.71070726036601 L71.39048798788457,234.36808277760798" stroke="#0d6d4d" stroke-width="0.1" fill="none" />
<path d="M-227.62817848447918,90.61132578126252 L24.858888749580306,243.73558552278735" stroke="#0d6d4d" stroke-width="0.1" fill="none" />
<path d="M-228.45569620406718,88.50420821585247 L-22.605748068508895,243.95487319228346" stroke="#0d6d4d" stroke-width="0.1" fill="none" />
<path d="M-229.26370915460143,86.38953446265539 L-69.22191524342377,235.01771518341388" stroke="#0d6d4d" stroke-width="0.1" fill="none" />
<path d="M-230.05214835068884,84.2674850653124 L-113.2399514673766,217.25955305041524" stroke="#0d6d4d" stroke-width="0.1" fill="none" />
<path d="M-230.82094647807702,82.13824119717138 L-153.00771201262032,191.34691025637974" stroke="#0d6d4d" stroke-width="0.1" fill="none" />
<path d="M-231.57003789940077,80.00198464582043 L-187.03257927157023,158.2523753092629" stroke="#0d6d4d" stroke-width="0.1" fill="none" />
<path d="M-232.29935865978666,77.85889779756583 L-214.03748570836052,119.21809724887981" stroke="#0d6d4d" stroke-width="0.1" fill="none" />
<path d="M-233.0088464923126,75.70916362186215 L-233.0088464923126,75.70916362186215" stroke="#0d6d4d" stroke-width="0.1" fill="none" />
<path d="M-233.69844082332466,73.55296565568935 L-243.23460274061,29.358610825746464" stroke="#0d6d4d" stroke-width="0.1" fill="none" />
<path d="M-234.36808277760798,71.39048798788458 L-244.3309474795181,-18.093869231344026" stroke="#0d6d4d" stroke-width="0.1" fill="none" />
<path d="M-235.0177151834139,69.22191524342372 L-236.256731209069,-64.86722561051718" stroke="#0d6d4d" stroke-width="0.1" fill="none" />
<path d="M-235.64728257734066,67.04743256766037 L-219.31500638199032,-109.20589716525176" stroke="#0d6d4d" stroke-width="0.1" fill="none" />
<path d="M-236.25673120906902,64.86722561051704 L-194.14165282739555,-149.44570464702895" stroke="#0d6d4d" stroke-width="0.1" fill="none" />
<path d="M-236.84600904595092,62.681480510636796 L-161.68151104528704,-184.07631294143397" stroke="#0d6d4d" stroke-width="0.1" fill="none" />
<path d="M-237.41506577745227,60.490383879489585 L-123.15291916947864,-211.79791901724593" stroke="#0d6d4d" stroke-width="0.1" fill="none" />
<path d="M-237.96385281944785,58.2941227854417 L-80.00198464582044,-231.57003789940077" stroke="#0d6d4d" stroke-width="0.1" fill="none" />
<path d="M-238.49232331836976,56.092884737782846 L-33.848306963211215,-242.65055556442525" stroke="#0d6d4d" stroke-width="0.1" fill="none" />
<path d="M-239.00043215520694,53.88685767071892 L13.57581135441264,-244.62358297202132" stroke="#0d6d4d" stroke-width="0.1" fill="none" />
<path d="M-239.48813594935808,51.676229927325146 L60.4903838794896,-237.41506577745227" stroke="#0d6d4d" stroke-width="0.1" fill="none" />
<path d="M-239.95539306233462,49.461190243467634 L105.1345491492892,-221.29556383980156" stroke="#0d6d4d" stroke-width="0.1" fill="none" />
<path d="M-240.40216360131612,47.24192773168813 L145.8326617102086,-196.87009620182508" stroke="#0d6d4d" stroke-width="0.1" fill="none" />
<path d="M-240.82840942255592,45.01863186505986 L181.05718471906147,-165.05543269340654" stroke="#0d6d4d" stroke-width="0.1" fill="none" />
<path d="M-241.23409413463799,42.79149246100933 L209.4860235308161,-127.04568448100217" stroke="#0d6d4d" stroke-width="0.1" fill="none" />
<path d="M-241.61918310158362,40.56069966511199 L230.05214835068884,-84.26748506531237" stroke="#0d6d4d" stroke-width="0.1" fill="none" />
<path d="M-241.98364344580872,38.32644393485661 L241.98364344580875,-38.32644393485658" stroke="#0d6d4d" stroke-width="0.1" fill="none" />
<path d="M-242.32744405093072,36.08891602338635 L244.8326797350406,9.053117350340457" stroke="#0d6d4d" stroke-width="0.1" fill="none" />
<path d="M-242.65055556442525,33.8483069632112 L238.49232331836976,56.09288473778284" stroke="#0d6d4d" stroke-width="0.1" fill="none" />
<path d="M-242.95295040013195,31.60480804989998 L223.20054906529168,101.02729778110631" stroke="#0d6d4d" stroke-width="0.1" fill="none" />
<path d="M-243.23460274061,29.358610825746464 L199.5313086187554,142.1698170530123" stroke="#0d6d4d" stroke-width="0.1" fill="none" />
<path d="M-243.49548853934203,27.109907063417893 L168.3729880624694,177.97622563397488" stroke="#0d6d4d" stroke-width="0.1" fill="none" />
<path d="M-243.73558552278735,24.85888874958032 L130.8950638076627,207.1025887592618" stroke="#0d6d4d" stroke-width="0.1" fill="none" />
<path d="M-243.95487319228346,22.605748068509186 L88.50420821585246,228.45569620406718" stroke="#0d6d4d" stroke-width="0.1" fill="none" />
<path d="M-244.15333282579616,20.350677385679553 L42.79149246100931,241.23409413463799" stroke="#0d6d4d" stroke-width="0.1" fill="none" />
<path d="M-244.33094747951807,18.093869231344115 L-4.527331714986784,244.95816636222293" stroke="#0d6d4d" stroke-width="0.1" fill="none" />
<path d="M-244.48770198931513,15.835516284094947 L-51.676229927325174,239.48813594935808" stroke="#0d6d4d" stroke-width="0.1" fill="none" />
<path d="M-244.62358297202132,13.575811354412645 L-96.88554568328293,225.02931150775115" stroke="#0d6d4d" stroke-width="0.1" fill="none" />
<path d="M-244.73857882658123,11.31494736820632 L-138.4584215335349,202.12438127658416" stroke="#0d6d4d" stroke-width="0.1" fill="none" />
<path d="M-244.8326797350406,9.053117350340516 L-174.83448783087928,171.6330442103563" stroke="#0d6d4d" stroke-width="0.1" fill="none" />
<path d="M-244.90587766338442,6.790514408157137 L-204.64842864337393,134.69974258994665" stroke="#0d6d4d" stroke-width="0.1" fill="none" />
<path d="M-244.95816636222293,4.527331714986859 L-226.7812266464813,92.71070726036601" stroke="#0d6d4d" stroke-width="0.1" fill="none" />
<path d="M-244.98954136732513,2.263762493658395 L-240.40216360131612,47.24192773168813" stroke="#0d6d4d" stroke-width="0.1" fill="none" />
<path d="M-245.0,4.500576986866523e-14 L-245.0,4.500576986866523e-14" stroke="#0d6d4d" stroke-width="0.1" fill="none" />
<path d="M-244.98954136732513,-2.263762493658087 L-240.40216360131612,-47.24192773168804" stroke="#0d6d4d" stroke-width="0.1" fill="none" />
<path d="M-244.95816636222293,-4.527331714986769 L-226.78122664648131,-92.71070726036592" stroke="#0d6d4d" stroke-width="0.1" fill="none" />
<path d="M-244.90587766338442,-6.790514408157047 L-204.64842864337413,-134.69974258994637" stroke="#0d6d4d" stroke-width="0.1" fill="none" />
<path d="M-244.8326797350406,-9.053117350340427 L-174.83448783087928,-171.6330442103563" stroke="#0d6d4d" stroke-width="0.1" fill="none" />
<path d="M-244.73857882658123,-11.314947368206232 L-138.45842153353516,-202.124381276584" stroke="#0d6d4d" stroke-width="0.1" fill="none" />
<path d="M-244.62358297202132,-13.575811354412556 L-96.8855456832829,-225.02931150775115" stroke="#0d6d4d" stroke-width="0.1" fill="none" />
<path d="M-244.48770198931516,-15.835516284094858 L-51.67622992732515,-239.48813594935808" stroke="#0d6d4d" stroke-width="0.1" fill="none" />
<path d="M-244.3309474795181,-18.093869231344026 L-4.527331714987092,-244.95816636222293" stroke="#0d6d4d" stroke-width="0.1" fill="none" />
<path d="M-244.15333282579616,-20.350677385679468 L42.7914924610093,-241.234094134638" stroke="#0d6d4d" stroke-width="0.1" fill="none" />
<path d="M-243.95487319228346,-22.60574806850888 L88.50420821585247,-228.45569620406718" stroke="#0d6d4d" stroke-width="0.1" fill="none" />
<path d="M-243.73558552278735,-24.85888874958023 L130.89506380766264,-207.10258875926186" stroke="#0d6d4d" stroke-width="0.1" fill="none" />
<path d="M-243.49548853934206,-27.109907063417587 L168.37298806246935,-177.97622563397493" stroke="#0d6d4d" stroke-width="0.1" fill="none" />
<path d="M-243.23460274061003,-29.358610825746375 L199.53130861875533,-142.16981705301237" stroke="#0d6d4d" stroke-width="0.1" fill="none" />
<path d="M-242.95295040013198,-31.604808049899884 L223.20054906529163,-101.0272977811064" stroke="#0d6d4d" stroke-width="0.1" fill="none" />
<path d="M-242.65055556442528,-33.8483069632111 L238.49232331836976,-56.09288473778287" stroke="#0d6d4d" stroke-width="0.1" fill="none" />
<path d="M-242.32744405093075,-36.088916023386254 L244.8326797350406,-9.053117350340488" stroke="#0d6d4d" stroke-width="0.1" fill="none" />
<path d="M-241.98364344580875,-38.32644393485651 L241.98364344580872,38.326443934856606" stroke="#0d6d4d" stroke-width="0.1" fill="none" />
<path d="M-241.61918310158364,-40.56069966511189 L230.05214835068884,84.2674850653124" stroke="#0d6d4d" stroke-width="0.1" fill="none" />
<path d="M-241.234094134638,-42.791492461009234 L209.48602353081617,127.04568448100207" stroke="#0d6d4d" stroke-width="0.1" fill="none" />
<path d="M-240.82840942255595,-45.018631865059774 L181.05718471906155,165.05543269340643" stroke="#0d6d4d" stroke-width="0.1" fill="none" />
<path d="M-240.40216360131612,-47.24192773168804 L145.83266171020864,196.87009620182505" stroke="#0d6d4d" stroke-width="0.1" fill="none" />
<path d="M-239.95539306233465,-49.46119024346754 L105.13454914928923,221.29556383980156" stroke="#0d6d4d" stroke-width="0.1" fill="none" />
<path d="M-239.4881359493581,-51.676229927325046 L60.49038387948967,237.41506577745224" stroke="#0d6d4d" stroke-width="0.1" fill="none" />
<path d="M-239.00043215520697,-53.886857670718825 L13.57581135441263,244.62358297202132" stroke="#0d6d4d" stroke-width="0.1" fill="none" />
<path d="M-238.49232331836973,-56.09288473778296 L-33.84830696321112,242.65055556442528" stroke="#0d6d4d" stroke-width="0.1" fill="none" />
<path d="M-237.96385281944788,-58.2941227854416 L-80.00198464582047,231.57003789940077" stroke="#0d6d4d" stroke-width="0.1" fill="none" />
<path d="M-237.41506577745224,-60.490383879489706 L-123.15291916947858,211.79791901724596" stroke="#0d6d4d" stroke-width="0.1" fill="none" />
<path d="M-236.84600904595092,-62.68148051063672 L-161.68151104528704,184.07631294143394" stroke="#0d6d4d" stroke-width="0.1" fill="none" />
<path d="M-236.256731209069,-64.86722561051718 L-194.14165282739552,149.44570464702903" stroke="#0d6d4d" stroke-width="0.1" fill="none" />
<path d="M-235.64728257734066,-67.04743256766028 L-219.3150063819903,109.20589716525181" stroke="#0d6d4d" stroke-width="0.1" fill="none" />
<path d="M-235.01771518341388,-69.22191524342387 L-236.25673120906902,64.86722561051704" stroke="#0d6d4d" stroke-width="0.1" fill="none" />
<path d="M-234.368082777608,-71.3904879878845 L-244.33094747951807,18.093869231344115" stroke="#0d6d4d" stroke-width="0.1" fill="none" />
<path d="M-233.69844082332463,-73.55296565568949 L-243.23460274061003,-29.358610825746375" stroke="#0d6d4d" stroke-width="0.1" fill="none" />
<path d="M-233.00884649231264,-75.70916362186207 L-233.00884649231264,-75.70916362186207" stroke="#0d6d4d" stroke-width="0.1" fill="none" />
<path d="M-232.2993586597867,-77.85889779756575 L-214.03748570836058,-119.21809724887973" stroke="#0d6d4d" stroke-width="0.1" fill="none" />
<path d="M-231.5700378994008,-80.00198464582036 L-187.03257927157028,-158.2523753092628" stroke="#0d6d4d" stroke-width="0.1" fill="none" />
<path d="M-230.82094647807705,-82.1382411971713 L-153.00771201262037,-191.3469102563797" stroke="#0d6d4d" stroke-width="0.1" fill="none" />
<path d="M-230.05214835068887,-84.26748506531233 L-113.23995146737686,-217.25955305041512" stroke="#0d6d4d" stroke-width="0.1" fill="none" />
<path d="M-229.26370915460146,-86.3895344626553 L-69.22191524342374,-235.01771518341388" stroke="#0d6d4d" stroke-width="0.1" fill="none" />
<path d="M-228.4556962040672,-88.5042082158524 L-22.6057480685092,-243.95487319228346" stroke="#0d6d4d" stroke-width="0.1" fill="none" />
<path d="M-227.6281784844793,-90.61132578126224 L24.858888749580235,-243.73558552278735" stroke="#0d6d4d" stroke-width="0.1" fill="none" />
<path d="M-226.78122664648131,-92.71070726036592 L71.39048798788453,-234.368082777608" stroke="#0d6d4d" stroke-width="0.1" fill="none" />
<path d="M-225.91491299993606,-94.8021734151244 L115.2425624572868,-216.20395879418663" stroke="#0d6d4d" stroke-width="0.1" fill="none" />
<path d="M-225.02931150775117,-96.88554568328283 L154.7691965320465,-189.9249741472268" stroke="#0d6d4d" stroke-width="0.1" fill="none" />
<path d="M-224.12449777956516,-98.96064619361425 L188.48682289080534,-156.5174673847305" stroke="#0d6d4d" stroke-width="0.1" fill="none" />
<path d="M-223.2005490652917,-101.02729778110624 L215.129905780506,-117.2353344298152" stroke="#0d6d4d" stroke-width="0.1" fill="none" />
<path d="M-222.25754424852423,-103.08532400208718 L233.69844082332463,-73.55296565568943" stroke="#0d6d4d" stroke-width="0.1" fill="none" />
<path d="M-221.29556383980162,-105.13454914928909 L243.49548853934206,-27.109907063417698" stroke="#0d6d4d" stroke-width="0.1" fill="none" />
<path d="M-220.3146899697338,-107.17479826685042 L244.15333282579616,20.350677385679443" stroke="#0d6d4d" stroke-width="0.1" fill="none" />
<path d="M-219.31500638199032,-109.20589716525176 L235.64728257734066,67.04743256766031" stroke="#0d6d4d" stroke-width="0.1" fill="none" />
<path d="M-218.29659842615015,-111.22767243618893 L218.29659842615013,111.22767243618895" stroke="#0d6d4d" stroke-width="0.1" fill="none" />
<path d="M-217.25955305041524,-113.23995146737659 L192.75250981820344,151.23316421599924" stroke="#0d6d4d" stroke-width="0.1" fill="none" />
<path d="M-216.20395879418666,-115.24256245728675 L159.97377218511537,185.5623674478875" stroke="#0d6d4d" stroke-width="0.1" fill="none" />
<path d="M-215.12990578050608,-117.23533442981505 L121.19068163294581,212.92679184485445" stroke="#0d6d4d" stroke-width="0.1" fill="none" />
<path d="M-214.03748570836058,-119.21809724887973 L77.85889779756592,232.29935865978663" stroke="#0d6d4d" stroke-width="0.1" fill="none" />
<path d="M-212.92679184485442,-121.19068163294584 L31.604808049899848,242.95295040013198" stroke="#0d6d4d" stroke-width="0.1" fill="none" />
<path d="M-211.797919017246,-123.15291916947855 L-15.835516284094872,244.48770198931513" stroke="#0d6d4d" stroke-width="0.1" fill="none" />
<path d="M-210.65096360485126,-125.10464232932222 L-62.68148051063662,236.84600904595095" stroke="#0d6d4d" stroke-width="0.1" fill="none" />
<path d="M-209.48602353081617,-127.04568448100207 L-107.17479826685043,220.3146899697338" stroke="#0d6d4d" stroke-width="0.1" fill="none" />
<path d="M-208.30319825375548,-128.97587990495217 L-147.6454859129178,195.5142206836587" stroke="#0d6d4d" stroke-width="0.1" fill="none" />
<path d="M-207.1025887592619,-130.89506380766252 L-182.57454262648085,163.37544608885182" stroke="#0d6d4d" stroke-width="0.1" fill="none" />
<path d="M-205.8842975512837,-132.80307233575007 L-210.6509636048512,125.10464232932229" stroke="#0d6d4d" stroke-width="0.1" fill="none" />
<path d="M-204.64842864337413,-134.69974258994637 L-230.82094647807702,82.13824119717138" stroke="#0d6d4d" stroke-width="0.1" fill="none" />
<path d="M-203.39508754980992,-136.58491263900692 L-242.32744405093072,36.08891602338635" stroke="#0d6d4d" stroke-width="0.1" fill="none" />
<path d="M-202.12438127658416,-138.4584215335349 L-244.73857882658123,-11.314947368206232" stroke="#0d6d4d" stroke-width="0.1" fill="none" />
<path d="M-200.8364183122692,-140.32010931972374 L-237.96385281944788,-58.2941227854416" stroke="#0d6d4d" stroke-width="0.1" fill="none" />
<path d="M-199.53130861875533,-142.1698170530124 L-222.25754424852423,-103.08532400208718" stroke="#0d6d4d" stroke-width="0.1" fill="none" />
<path d="M-198.20916362186216,-144.00738681165586 L-198.20916362186216,-144.00738681165586" stroke="#0d6d4d" stroke-width="0.1" fill="none" />
<path d="M-196.87009620182505,-145.83266171020867 L-166.72132742741815,-179.5243687660247" stroke="#0d6d4d" stroke-width="0.1" fill="none" />
<path d="M-195.51422068365872,-147.64548591291776 L-128.97587990495225,-208.30319825375543" stroke="#0d6d4d" stroke-width="0.1" fill="none" />
<path d="M-194.14165282739555,-149.44570464702895 L-86.3895344626554,-229.26370915460143" stroke="#0d6d4d" stroke-width="0.1" fill="none" />
<path d="M-192.75250981820344,-151.2331642159992 L-40.560699665112004,-241.61918310158362" stroke="#0d6d4d" stroke-width="0.1" fill="none" />
<path d="M-191.34691025637977,-153.0077120126203 L6.790514408157003,-244.90587766338442" stroke="#0d6d4d" stroke-width="0.1" fill="none" />
<path d="M-189.92497414722686,-154.7691965320464 L53.88685767071881,-239.00043215520697" stroke="#0d6d4d" stroke-width="0.1" fill="none" />
<path d="M-188.48682289080534,-156.5174673847305 L98.96064619361425,-224.12449777956516" stroke="#0d6d4d" stroke-width="0.1" fill="none" />
<path d="M-187.03257927157028,-158.2523753092628 L140.32010931972377,-200.8364183122692" stroke="#0d6d4d" stroke-width="0.1" fill="none" />
<path d="M-185.56236744788748,-159.97377218511537 L176.41288749809834,-170.0102735854022" stroke="#0d6d4d" stroke-width="0.1" fill="none" />
<path d="M-184.07631294143388,-161.68151104528712 L205.8842975512837,-132.80307233575013" stroke="#0d6d4d" stroke-width="0.1" fill="none" />
<path d="M-182.57454262648085,-163.37544608885182 L227.6281784844792,-90.61132578126244" stroke="#0d6d4d" stroke-width="0.1" fill="none" />
<path d="M-181.0571847190614,-165.05543269340657 L240.82840942255595,-45.018631865059724" stroke="#0d6d4d" stroke-width="0.1" fill="none" />
<path d="M-179.5243687660248,-166.72132742741806 L244.98954136732513,2.263762493658226" stroke="#0d6d4d" stroke-width="0.1" fill="none" />
<path d="M-177.97622563397488,-168.3729880624694 L239.95539306233465,49.46119024346752" stroke="#0d6d4d" stroke-width="0.1" fill="none" />
<path d="M-176.4128874980984,-170.01027358540213 L225.914912999936,94.80217341512457" stroke="#0d6d4d" stroke-width="0.1" fill="none" />
<path d="M-174.83448783087928,-171.6330442103563 L203.3950875498099,136.58491263900694" stroke="#0d6d4d" stroke-width="0.1" fill="none" />
<path d="M-173.24116139070418,-173.24116139070412 L173.24116139070415,173.24116139070412" stroke="#0d6d4d" stroke-width="0.1" fill="none" />
<path d="M-171.63304421035625,-174.83448783087934 L136.584912639007,203.3950875498099" stroke="#0d6d4d" stroke-width="0.1" fill="none" />
<path d="M-170.0102735854022,-176.41288749809834 L94.80217341512456,225.914912999936" stroke="#0d6d4d" stroke-width="0.1" fill="none" />
<path d="M-168.37298806246932,-177.97622563397493 L49.461190243467506,239.95539306233465" stroke="#0d6d4d" stroke-width="0.1" fill="none" />
<path d="M-166.72132742741815,-179.5243687660247 L2.2637624936583802,244.98954136732513" stroke="#0d6d4d" stroke-width="0.1" fill="none" />
<path d="M-165.0554326934065,-181.05718471906147 L-45.01863186505969,240.82840942255595" stroke="#0d6d4d" stroke-width="0.1" fill="none" />
<path d="M-163.3754460888519,-182.5745426264808 L-90.61132578126237,227.62817848447926" stroke="#0d6d4d" stroke-width="0.1" fill="none" />
<path d="M-161.68151104528704,-184.07631294143397 L-132.8030723357501,205.8842975512837" stroke="#0d6d4d" stroke-width="0.1" fill="none" />
<path d="M-159.97377218511545,-185.5623674478874 L-170.01027358540205,176.41288749809846" stroke="#0d6d4d" stroke-width="0.1" fill="none" />
<path d="M-158.2523753092629,-187.03257927157023 L-200.83641831226916,140.32010931972383" stroke="#0d6d4d" stroke-width="0.1" fill="none" />
<path d="M-156.51746738473062,-188.48682289080526 L-224.1244977795651,98.96064619361434" stroke="#0d6d4d" stroke-width="0.1" fill="none" />
<path d="M-154.7691965320465,-189.9249741472268 L-239.00043215520694,53.88685767071892" stroke="#0d6d4d" stroke-width="0.1" fill="none" />
<path d="M-153.00771201262037,-191.3469102563797 L-244.90587766338442,6.790514408157137" stroke="#0d6d4d" stroke-width="0.1" fill="none" />
<path d="M-151.2331642159993,-192.75250981820338 L-241.61918310158364,-40.56069966511189" stroke="#0d6d4d" stroke-width="0.1" fill="none" />
<path d="M-149.44570464702903,-194.14165282739552 L-229.26370915460146,-86.3895344626553" stroke="#0d6d4d" stroke-width="0.1" fill="none" />
<path d="M-147.64548591291785,-195.51422068365864 L-208.30319825375548,-128.97587990495217" stroke="#0d6d4d" stroke-width="0.1" fill="none" />
<path d="M-145.83266171020873,-196.870096201825 L-179.5243687660248,-166.72132742741806" stroke="#0d6d4d" stroke-width="0.1" fill="none" />
<path d="M-144.00738681165595,-198.2091636218621 L-144.00738681165595,-198.2091636218621" stroke="#0d6d4d" stroke-width="0.1" fill="none" />
<path d="M-142.16981705301248,-199.53130861875528 L-103.08532400208728,-222.2575442485242" stroke="#0d6d4d" stroke-width="0.1" fill="none" />
<path d="M-140.32010931972383,-200.83641831226916 L-58.29412278544171,-237.96385281944785" stroke="#0d6d4d" stroke-width="0.1" fill="none" />
<path d="M-138.45842153353516,-202.124381276584 L-11.314947368206118,-244.73857882658123" stroke="#0d6d4d" stroke-width="0.1" fill="none" />
<path d="M-136.584912639007,-203.39508754980986 L36.08891602338619,-242.32744405093075" stroke="#0d6d4d" stroke-width="0.1" fill="none" />
<path d="M-134.69974258994665,-204.64842864337393 L82.13824119717148,-230.820946478077" stroke="#0d6d4d" stroke-width="0.1" fill="none" />
<path d="M-132.80307233575016,-205.88429755128365 L125.10464232932222,-210.65096360485126" stroke="#0d6d4d" stroke-width="0.1" fill="none" />
<path d="M-130.89506380766264,-207.10258875926186 L163.37544608885185,-182.57454262648082" stroke="#0d6d4d" stroke-width="0.1" fill="none" />
<path d="M-128.97587990495225,-208.30319825375543 L195.51422068365866,-147.64548591291782" stroke="#0d6d4d" stroke-width="0.1" fill="none" />
<path d="M-127.04568448100216,-209.4860235308161 L220.31468996973376,-107.17479826685047" stroke="#0d6d4d" stroke-width="0.1" fill="none" />
<path d="M-125.10464232932229,-210.6509636048512 L236.84600904595092,-62.68148051063672" stroke="#0d6d4d" stroke-width="0.1" fill="none" />
<path d="M-123.15291916947864,-211.79791901724593 L244.48770198931513,-15.835516284094862" stroke="#0d6d4d" stroke-width="0.1" fill="none" />
<path d="M-121.19068163294592,-212.92679184485436 L242.95295040013198,31.604808049899752" stroke="#0d6d4d" stroke-width="0.1" fill="none" />
<path d="M-119.21809724887981,-214.03748570836052 L232.29935865978663,77.85889779756587" stroke="#0d6d4d" stroke-width="0.1" fill="none" />
<path d="M-117.23533442981532,-215.12990578050594 L212.92679184485448,121.19068163294575" stroke="#0d6d4d" stroke-width="0.1" fill="none" />
<path d="M-115.24256245728684,-216.2039587941866 L185.56236744788754,159.9737721851153" stroke="#0d6d4d" stroke-width="0.1" fill="none" />
<path d="M-113.23995146737686,-217.25955305041512 L151.23316421599927,192.75250981820338" stroke="#0d6d4d" stroke-width="0.1" fill="none" />
<path d="M-111.22767243618901,-218.2965984261501 L111.22767243618898,218.2965984261501" stroke="#0d6d4d" stroke-width="0.1" fill="none" />
<path d="M-109.20589716525183,-219.3150063819903 L67.04743256766035,235.64728257734066" stroke="#0d6d4d" stroke-width="0.1" fill="none" />
<path d="M-107.1747982668505,-220.31468996973373 L20.35067738567954,244.15333282579616" stroke="#0d6d4d" stroke-width="0.1" fill="none" />
<path d="M-105.13454914928916,-221.2955638398016 L-27.1099070634176,243.49548853934206" stroke="#0d6d4d" stroke-width="0.1" fill="none" />
<path d="M-103.08532400208728,-222.2575442485242 L-73.55296565568939,233.69844082332466" stroke="#0d6d4d" stroke-width="0.1" fill="none" />
<path d="M-101.02729778110633,-223.20054906529165 L-117.23533442981505,215.12990578050608" stroke="#0d6d4d" stroke-width="0.1" fill="none" />
<path d="M-98.96064619361435,-224.1244977795651 L-156.51746738473045,188.4868228908054" stroke="#0d6d4d" stroke-width="0.1" fill="none" />
<path d="M-96.8855456832829,-225.02931150775115 L-189.92497414722666,154.76919653204666" stroke="#0d6d4d" stroke-width="0.1" fill="none" />
<path d="M-94.80217341512468,-225.91491299993595 L-216.2039587941866,115.24256245728682" stroke="#0d6d4d" stroke-width="0.1" fill="none" />
<path d="M-92.71070726036602,-226.7812266464813 L-234.36808277760798,71.39048798788458" stroke="#0d6d4d" stroke-width="0.1" fill="none" />
<path d="M-90.61132578126254,-227.62817848447918 L-243.73558552278735,24.85888874958032" stroke="#0d6d4d" stroke-width="0.1" fill="none" />
<path d="M-88.50420821585249,-228.45569620406718 L-243.95487319228346,-22.60574806850888" stroke="#0d6d4d" stroke-width="0.1" fill="none" />
<path d="M-86.3895344626554,-229.26370915460143 L-235.01771518341388,-69.22191524342387" stroke="#0d6d4d" stroke-width="0.1" fill="none" />
<path d="M-84.26748506531241,-230.05214835068884 L-217.25955305041524,-113.23995146737659" stroke="#0d6d4d" stroke-width="0.1" fill="none" />
<path d="M-82.1382411971714,-230.82094647807702 L-191.34691025637977,-153.0077120126203" stroke="#0d6d4d" stroke-width="0.1" fill="none" />
<path d="M-80.00198464582044,-231.57003789940077 L-158.2523753092629,-187.03257927157023" stroke="#0d6d4d" stroke-width="0.1" fill="none" />
<path d="M-77.85889779756585,-232.29935865978666 L-119.21809724887981,-214.03748570836052" stroke="#0d6d4d" stroke-width="0.1" fill="none" />
<path d="M-75.70916362186216,-233.0088464923126 L-75.70916362186216,-233.0088464923126" stroke="#0d6d4d" stroke-width="0.1" fill="none" />
<path d="M-73.55296565568936,-233.69844082332466 L-29.358610825746478,-243.23460274061" stroke="#0d6d4d" stroke-width="0.1" fill="none" />
<path d="M-71.3904879878846,-234.36808277760798 L18.09386923134412,-244.33094747951807" stroke="#0d6d4d" stroke-width="0.1" fill="none" />
<path d="M-69.22191524342374,-235.01771518341388 L64.86722561051708,-236.256731209069" stroke="#0d6d4d" stroke-width="0.1" fill="none" />
<path d="M-67.04743256766038,-235.64728257734063 L109.20589716525187,-219.3150063819903" stroke="#0d6d4d" stroke-width="0.1" fill="none" />
<path d="M-64.86722561051705,-236.25673120906902 L149.44570464702892,-194.14165282739557" stroke="#0d6d4d" stroke-width="0.1" fill="none" />
<path d="M-62.68148051063681,-236.8460090459509 L184.07631294143394,-161.68151104528707" stroke="#0d6d4d" stroke-width="0.1" fill="none" />
<path d="M-60.4903838794896,-237.41506577745227 L211.7979190172459,-123.15291916947866" stroke="#0d6d4d" stroke-width="0.1" fill="none" />
<path d="M-58.29412278544171,-237.96385281944785 L231.5700378994008,-80.0019846458204" stroke="#0d6d4d" stroke-width="0.1" fill="none" />
<path d="M-56.09288473778286,-238.49232331836976 L242.65055556442528,-33.848306963211165" stroke="#0d6d4d" stroke-width="0.1" fill="none" />
<path d="M-53.88685767071893,-239.00043215520694 L244.62358297202132,13.575811354412584" stroke="#0d6d4d" stroke-width="0.1" fill="none" />
<path d="M-51.67622992732515,-239.48813594935808 L237.41506577745227,60.49038387948953" stroke="#0d6d4d" stroke-width="0.1" fill="none" />
<path d="M-49.46119024346765,-239.95539306233462 L221.29556383980162,105.1345491492891" stroke="#0d6d4d" stroke-width="0.1" fill="none" />
<path d="M-47.24192773168814,-240.4021636013161 L196.87009620182508,145.83266171020858" stroke="#0d6d4d" stroke-width="0.1" fill="none" />
<path d="M-45.018631865059874,-240.82840942255592 L165.05543269340654,181.05718471906144" stroke="#0d6d4d" stroke-width="0.1" fill="none" />
<path d="M-42.79149246100934,-241.23409413463799 L127.04568448100223,209.48602353081608" stroke="#0d6d4d" stroke-width="0.1" fill="none" />
<path d="M-40.560699665112004,-241.61918310158362 L84.26748506531239,230.05214835068884" stroke="#0d6d4d" stroke-width="0.1" fill="none" />
<path d="M-38.32644393485663,-241.98364344580872 L38.32644393485659,241.98364344580872" stroke="#0d6d4d" stroke-width="0.1" fill="none" />
<path d="M-36.08891602338615,-242.32744405093075 L-9.053117350340441,244.8326797350406" stroke="#0d6d4d" stroke-width="0.1" fill="none" />
<path d="M-33.848306963211215,-242.65055556442525 L-56.09288473778288,238.49232331836973" stroke="#0d6d4d" stroke-width="0.1" fill="none" />
<path d="M-31.60480804989999,-242.95295040013195 L-101.02729778110636,223.20054906529165" stroke="#0d6d4d" stroke-width="0.1" fill="none" />
<path d="M-29.358610825746478,-243.23460274061 L-142.1698170530124,199.5313086187553" stroke="#0d6d4d" stroke-width="0.1" fill="none" />
<path d="M-27.10990706341769,-243.49548853934206 L-177.97622563397488,168.3729880624694" stroke="#0d6d4d" stroke-width="0.1" fill="none" />
<path d="M-24.858888749580334,-243.73558552278735 L-207.10258875926186,130.89506380766264" stroke="#0d6d4d" stroke-width="0.1" fill="none" />
<path d="M-22.6057480685092,-243.95487319228346 L-228.45569620406718,88.50420821585247" stroke="#0d6d4d" stroke-width="0.1" fill="none" />
<path d="M-20.35067738567957,-244.15333282579616 L-241.23409413463799,42.79149246100933" stroke="#0d6d4d" stroke-width="0.1" fill="none" />
<path d="M-18.09386923134413,-244.33094747951807 L-244.95816636222293,-4.527331714986769" stroke="#0d6d4d" stroke-width="0.1" fill="none" />
<path d="M-15.835516284094965,-244.48770198931513 L-239.4881359493581,-51.676229927325046" stroke="#0d6d4d" stroke-width="0.1" fill="none" />
<path d="M-13.575811354412878,-244.62358297202132 L-225.02931150775117,-96.88554568328283" stroke="#0d6d4d" stroke-width="0.1" fill="none" />
<path d="M-11.314947368206118,-244.73857882658123 L-202.12438127658416,-138.4584215335349" stroke="#0d6d4d" stroke-width="0.1" fill="none" />
<path d="M-9.053117350340532,-244.8326797350406 L-171.63304421035625,-174.83448783087934" stroke="#0d6d4d" stroke-width="0.1" fill="none" />
<path d="M-6.7905144081571525,-244.90587766338442 L-134.69974258994665,-204.64842864337393" stroke="#0d6d4d" stroke-width="0.1" fill="none" />
<path d="M-4.527331714987092,-244.95816636222293 L-92.71070726036602,-226.7812266464813" stroke="#0d6d4d" stroke-width="0.1" fill="none" />
<path d="M-2.2637624936581924,-244.98954136732513 L-47.24192773168814,-240.4021636013161" stroke="#0d6d4d" stroke-width="0.1" fill="none" />
</svg>