<?xml version="1.0" encoding="UTF-8"?>
<svg xmlns="http://www.w3.org/2000/svg" xmlns:xlink="http://www.w3.org/1999/xlink"
     width="500.0" height="500" viewBox="-250.0 -250.0 500 500">
<defs>
</defs>
<circle cx="0" cy="0" r="245.0" fill="white" stroke-width="2" stroke="black" />
<path d="M0.0,-245.0 L0.0,-245.0" stroke="#4c0618" stroke-width="0.1" fill="none" />
<path d="M60.92902235538943,-237.3028744765146 L118.02965015492025,-214.69513661074657" stroke="#4c0618" stroke-width="0.1" fill="none" />
<path d="M118.02965015492025,-214.69513661074657 L206.8603417479937,-131.2775647698542" stroke="#4c0618" stroke-width="0.1" fill="none" />
<path d="M167.7140409525287,-178.59731371824583 L244.51654846492653,-15.383677284681811" stroke="#4c0618" stroke-width="0.1" fill="none" />
<path d="M206.8603417479937,-131.2775647698542 L221.68262785417477,104.31592643344283" stroke="#4c0618" stroke-width="0.1" fill="none" />
<path d="M233.0088464923126,-75.70916362186213 L144.00738681165595,198.2091636218621" stroke="#4c0618" stroke-width="0.1" fill="none" />
<path d="M244.51654846492653,-15.383677284681811 L30.70664222325461,243.06810182204705" stroke="#4c0618" stroke-width="0.1" fill="none" />
<path d="M240.66037642852874,45.90842207350253 L-90.19051540774609,227.7952390426216" stroke="#4c0618" stroke-width="0.1" fill="none" />
<path d="M221.68262785417477,104.31592643344283 L-188.7757444800684,156.16887748842896" stroke="#4c0618" stroke-width="0.1" fill="none" />
<path d="M188.77574448006837,156.16887748842896 L-240.66037642852874,45.908422073502535" stroke="#4c0618" stroke-width="0.1" fill="none" />
<path d="M144.00738681165595,198.2091636218621 L-233.00884649231264,-75.70916362186207" stroke="#4c0618" stroke-width="0.1" fill="none" />
<path d="M90.19051540774615,227.79523904262157 L-167.7140409525288,-178.59731371824577" stroke="#4c0618" stroke-width="0.1" fill="none" />
<path d="M30.70664222325461,243.06810182204705 L-60.92902235538956,-237.30287447651457" stroke="#4c0618" stroke-width="0.1" fill="none" />
<path d="M-30.70664222325456,243.06810182204708 L60.92902235538943,-237.3028744765146" stroke="#4c0618" stroke-width="0.1" fill="none" />
<path d="M-90.19051540774609,227.7952390426216 L167.7140409525287,-178.59731371824583" stroke="#4c0618" stroke-width="0.1" fill="none" />
<path d="M-144.0073868116558,198.20916362186222 L233.0088464923126,-75.70916362186213" stroke="#4c0618" stroke-width="0.1" fill="none" />
<path d="M-188.7757444800684,156.16887748842896 L240.66037642852874,45.90842207350253" stroke="#4c0618" stroke-width="0.1" fill="none" />
<path d="M-221.68262785417485,104.31592643344268 L188.77574448006837,156.16887748842896" stroke="#4c0618" stroke-width="0.1" fill="none" />
<path d="M-240.66037642852874,45.908422073502535 L90.19051540774615,227.79523904262157" stroke="#4c0618" stroke-width="0.1" fill="none" />
<path d="M-244.51654846492653,-15.383677284681644 L-30.70664222325456,243.06810182204708" stroke="#4c0618" stroke-width="0.1" fill="none" />
<path d="M-233.00884649231264,-75.70916362186207 L-144.0073868116558,198.20916362186222" stroke="#4c0618" stroke-width="0.1" fill="none" />
<path d="M-206.8603417479937,-131.2775647698542 L-221.68262785417485,104.31592643344268" stroke="#4c0618" stroke-width="0.1" fill="none" />
<path d="M-167.7140409525288,-178.59731371824577 L-244.51654846492653,-15.383677284681644" stroke="#4c0618" stroke-width="0.1" fill="none" />
<path d="M-118.02965015492045,-214.69513661074646 L-206.8603417479937,-131.2775647698542" stroke="#4c0618" stroke-width="0.1" fill="none" />
<path d="M-60.92902235538956,-237.30287447651457 L-118.02965015492045,-214.69513661074646" stroke="#4c0618" stroke-width="0.1" fill="none" />
</svg>