<?xml version="1.0" encoding="UTF-8"?>
<svg xmlns="http://www.w3.org/2000/svg" xmlns:xlink="http://www.w3.org/1999/xlink"
     width="500.0" height="500" viewBox="-250.0 -250.0 500 500">
<defs>
</defs>
<circle cx="0" cy="0" r="245.0" fill="white" stroke-width="2" stroke="black" />
<path d="M0.0,-245.0 L0.0,-245.0" stroke="#0d6d4d" stroke-width="0.1" fill="none" />
<path d="M30.107631212854958,-243.14302486962424 L59.7588614265524,-237.60024932857732" stroke="#0d6d4d" stroke-width="0.1" fill="none" />
<path d="M59.7588614265524,-237.60024932857732 L115.90792142482246,-215.8479876000172" stroke="#0d6d4d" stroke-width="0.1" fill="none" />
<path d="M88.50420821585247,-228.45569620406718 L165.05543269340652,-181.05718471906147" stroke="#0d6d4d" stroke-width="0.1" fill="none" />
<path d="M115.90792142482246,-215.8479876000172 L204.23258437917426,-135.32941837532394" stroke="#0d6d4d" stroke-width="0.1" fill="none" />
<path d="M141.55458869502152,-199.96824352727432 L231.07283644546297,-81.4269258725166" stroke="#0d6d4d" stroke-width="0.1" fill="none" />
<path d="M165.05543269340652,-181.05718471906147 L243.95487319228346,-22.60574806850899" stroke="#0d6d4d" stroke-width="0.1" fill="none" />
<path d="M186.05420458040325,-159.40148355003933 L242.10054065990855,37.5809554452779" stroke="#0d6d4d" stroke-width="0.1" fill="none" />
<path d="M204.23258437917426,-135.32941837532394 L225.62185189651365,95.49753895670642" stroke="#0d6d4d" stroke-width="0.1" fill="none" />
<path d="M219.3150063819903,-109.20589716525188 L195.5142206836587,147.6454859129178" stroke="#0d6d4d" stroke-width="0.1" fill="none" />
<path d="M231.07283644546297,-81.4269258725166 L153.5963324440561,190.87474075878927" stroke="#0d6d4d" stroke-width="0.1" fill="none" />
<path d="M239.32783785110217,-52.4136053855919 L102.40028449726199,222.5739915957833" stroke="#0d6d4d" stroke-width="0.1" fill="none" />
<path d="M243.95487319228346,-22.60574806850899 L45.01863186505974,240.82840942255595" stroke="#0d6d4d" stroke-width="0.1" fill="none" />
<path d="M244.88380132977466,7.544789346261754 L-15.08242200281603,244.5353155405758" stroke="#0d6d4d" stroke-width="0.1" fill="none" />
<path d="M242.10054065990855,37.5809554452779 L-74.27240515769564,233.47079010465336" stroke="#0d6d4d" stroke-width="0.1" fill="none" />
<path d="M235.6472825773407,67.04743256766025 L-128.9758799049521,208.3031982537555" stroke="#0d6d4d" stroke-width="0.1" fill="none" />
<path d="M225.62185189651365,95.49753895670642 L-175.88842115078822,170.55281676091707" stroke="#0d6d4d" stroke-width="0.1" fill="none" />
<path d="M212.17622392718746,122.50000000000003 L-212.17622392718752,122.49999999999991" stroke="#0d6d4d" stroke-width="0.1" fill="none" />
<path d="M195.5142206836587,147.6454859129178 L-235.64728257734066,67.04743256766037" stroke="#0d6d4d" stroke-width="0.1" fill="none" />
<path d="M175.88842115078828,170.552816760917 L-244.88380132977466,7.54478934626176" stroke="#0d6d4d" stroke-width="0.1" fill="none" />
<path d="M153.5963324440561,190.87474075878927 L-239.32783785110217,-52.41360538559189" stroke="#0d6d4d" stroke-width="0.1" fill="none" />
<path d="M128.97587990495217,208.30319825375548 L-219.31500638199026,-109.20589716525194" stroke="#0d6d4d" stroke-width="0.1" fill="none" />
<path d="M102.40028449726199,222.5739915957833 L-186.05420458040334,-159.40148355003922" stroke="#0d6d4d" stroke-width="0.1" fill="none" />
<path d="M74.27240515769567,233.47079010465333 L-141.55458869502158,-199.9682435272743" stroke="#0d6d4d" stroke-width="0.1" fill="none" />
<path d="M45.01863186505974,240.82840942255595 L-88.50420821585249,-228.45569620406718" stroke="#0d6d4d" stroke-width="0.1" fill="none" />
<path d="M15.082422002815983,244.5353155405758 L-30.107631212854933,-243.14302486962424" stroke="#0d6d4d" stroke-width="0.1" fill="none" />
<path d="M-15.08242200281603,244.5353155405758 L30.107631212854958,-243.14302486962424" stroke="#0d6d4d" stroke-width="0.1" fill="none" />
<path d="M-45.01863186505969,240.82840942255595 L88.50420821585247,-228.45569620406718" stroke="#0d6d4d" stroke-width="0.1" fill="none" />
<path d="M-74.27240515769564,233.47079010465336 L141.55458869502152,-199.96824352727432" stroke="#0d6d4d" stroke-width="0.1" fill="none" />
<path d="M-102.40028449726194,222.5739915957833 L186.05420458040325,-159.40148355003933" stroke="#0d6d4d" stroke-width="0.1" fill="none" />
<path d="M-128.9758799049521,208.3031982537555 L219.3150063819903,-109.20589716525188" stroke="#0d6d4d" stroke-width="0.1" fill="none" />
<path d="M-153.59633244405603,190.8747407587893 L239.32783785110217,-52.4136053855919" stroke="#0d6d4d" stroke-width="0.1" fill="none" />
<path d="M-175.88842115078822,170.55281676091707 L244.88380132977466,7.544789346261754" stroke="#0d6d4d" stroke-width="0.1" fill="none" />
<path d="M-195.51422068365864,147.64548591291785 L235.6472825773407,67.04743256766025" stroke="#0d6d4d" stroke-width="0.1" fill="none" />
<path d="M-212.17622392718752,122.49999999999991 L212.17622392718746,122.50000000000003" stroke="#0d6d4d" stroke-width="0.1" fill="none" />
<path d="M-225.62185189651365,95.49753895670642 L175.88842115078828,170.552816760917" stroke="#0d6d4d" stroke-width="0.1" fill="none" />
<path d="M-235.64728257734066,67.04743256766037 L128.97587990495217,208.30319825375548" stroke="#0d6d4d" stroke-width="0.1" fill="none" />
<path d="M-242.10054065990857,37.58095544527786 L74.27240515769567,233.47079010465333" stroke="#0d6d4d" stroke-width="0.1" fill="none" />
<path d="M-244.88380132977466,7.54478934626176 L15.082422002815983,244.5353155405758" stroke="#0d6d4d" stroke-width="0.1" fill="none" />
<path d="M-243.95487319228346,-22.60574806850888 L-45.01863186505969,240.82840942255595" stroke="#0d6d4d" stroke-width="0.1" fill="none" />
<path d="M-239.32783785110217,-52.41360538559189 L-102.40028449726194,222.5739915957833" stroke="#0d6d4d" stroke-width="0.1" fill="none" />
<path d="M-231.072836445463,-81.42692587251655 L-153.59633244405603,190.8747407587893" stroke="#0d6d4d" stroke-width="0.1" fill="none" />
<path d="M-219.31500638199026,-109.20589716525194 L-195.51422068365864,147.64548591291785" stroke="#0d6d4d" stroke-width="0.1" fill="none" />
<path d="M-204.2325843791743,-135.32941837532388 L-225.62185189651365,95.49753895670642" stroke="#0d6d4d" stroke-width="0.1" fill="none" />
<path d="M-186.05420458040334,-159.40148355003922 L-242.10054065990857,37.58095544527786" stroke="#0d6d4d" stroke-width="0.1" fill="none" />
<path d="M-165.0554326934065,-181.05718471906147 L-243.95487319228346,-22.60574806850888" stroke="#0d6d4d" stroke-width="0.1" fill="none" />
<path d="M-141.55458869502158,-199.9682435272743 L-231.072836445463,-81.42692587251655" stroke="#0d6d4d" stroke-width="0.1" fill="none" />
<path d="M-115.9079214248224,-215.84798760001726 L-204.2325843791743,-135.32941837532388" stroke="#0d6d4d" stroke-width="0.1" fill="none" />
<path d="M-88.50420821585249,-228.45569620406718 L-165.0554326934065,-181.05718471906147" stroke="#0d6d4d" stroke-width="0.1" fill="none" />
<path d="M-59.7588614265525,-237.6002493285773 L-115.9079214248224,-215.84798760001726" stroke="#0d6d4d" stroke-width="0.1" fill="none" />
<path d="M-30.107631212854933,-243.14302486962424 L-59.7588614265525,-237.6002493285773" stroke="#0d6d4d" stroke-width="0.1" fill="none" />
</svg>