<?xml version="1.0" encoding="UTF-8"?>
<svg xmlns="http://www.w3.org/2000/svg" xmlns:xlink="http://www.w3.org/1999/xlink"
     width="500.0" height="500" viewBox="-250.0 -250.0 500 500">
<defs>
</defs>
<circle cx="0" cy="0" r="245.0" fill="white" stroke-width="2" stroke="black" />
<path d="M0.0,-245.0 L0.0,-245.0" stroke="#0d6d4d" stroke-width="0.1" fill="none" />
<path d="M2.4165705472513306,-244.9880817239691 L50.386676256054464,-239.76276369750903" stroke="#0d6d4d" stroke-width="0.1" fill="none" />
<path d="M4.832905981402005,-244.95232805542986 L98.61917349129205,-224.27496208871474" stroke="#0d6d4d" stroke-width="0.1" fill="none" />
<path d="M7.248771212226004,-244.89274247292997 L142.63541019158882,-199.19874437224047" stroke="#0d6d4d" stroke-width="0.1" fill="none" />
<path d="M9.663931195244352,-244.80933077367288 L180.5535624161625,-165.60619281546482" stroke="#0d6d4d" stroke-width="0.1" fill="none" />
<path d="M12.07815095459308,-244.70210107295372 L210.7525173213077,-124.93348807558328" stroke="#0d6d4d" stroke-width="0.1" fill="none" />
<path d="M14.491195605884501,-244.5710638033698 L231.94118051578747,-78.91950824063018" stroke="#0d6d4d" stroke-width="0.1" fill="none" />
<path d="M16.90283037905961,-244.41623171380567 L243.2136741540232,-29.531486662554137" stroke="#0d6d4d" stroke-width="0.1" fill="none" />
<path d="M19.31282064122931,-244.23761986819252 L244.08806588579648,21.11909307075176" stroke="#0d6d4d" stroke-width="0.1" fill="none" />
<path d="M21.72093191950238,-244.03524564404287 L234.52697288563587,70.86676928645907" stroke="#0d6d4d" stroke-width="0.1" fill="none" />
<path d="M24.126929923797782,-243.80912873075968 L214.93916007886327,117.58468210014769" stroke="#0d6d4d" stroke-width="0.1" fill="none" />
<path d="M26.530580569639216,-243.55929112772085 L186.16206423542184,159.2755029488423" stroke="#0d6d4d" stroke-width="0.1" fill="none" />
<path d="M28.93165000092972,-243.28575714213875 L149.4259910780178,194.1568262780172" stroke="#0d6d4d" stroke-width="0.1" fill="none" />
<path d="M31.329904612703977,-242.9885533866953 L106.30151608380177,220.73737263609266" stroke="#0d6d4d" stroke-width="0.1" fill="none" />
<path d="M33.72511107385621,-242.667708776953 L58.632337750451626,237.88074526938274" stroke="#0d6d4d" stroke-width="0.1" fill="none" />
<path d="M36.1170363498415,-242.32325452854133 L8.45645404757853,244.85401443501226" stroke="#0d6d4d" stroke-width="0.1" fill="none" />
<path d="M38.50544772534814,-241.95522415412003 L-42.08096800736264,241.35905230913409" stroke="#0d6d4d" stroke-width="0.1" fill="none" />
<path d="M40.89011282693898,-241.56365346011847 L-90.8193045660415,227.5452788306991" stroke="#0d6d4d" stroke-width="0.1" fill="none" />
<path d="M43.27079964565956,-241.14858054325177 L-135.6748479913306,204.00327355836555" stroke="#0d6d4d" stroke-width="0.1" fill="none" />
<path d="M45.64727655961071,-240.71004578681467 L-174.72989150449604,171.73952665250667" stroke="#0d6d4d" stroke-width="0.1" fill="none" />
<path d="M48.019312356483525,-240.24809185675227 L-206.3147168060889,132.1334084523037" stroke="#0d6d4d" stroke-width="0.1" fill="none" />
<path d="M50.386676256054464,-239.76276369750903 L-229.0789794579266,86.8781973254213" stroke="#0d6d4d" stroke-width="0.1" fill="none" />
<path d="M52.74913793263847,-239.2541085276562 L-242.04944009054287,37.90868702361893" stroke="#0d6d4d" stroke-width="0.1" fill="none" />
<path d="M55.106467537497785,-238.72217583529752 L-244.67157325671175,-12.68153145663132" stroke="#0d6d4d" stroke-width="0.1" fill="none" />
<path d="M57.45843572120445,-238.1670173732547 L-236.83327502983875,-62.729577064099125" stroke="#0d6d4d" stroke-width="0.1" fill="none" />
<path d="M59.80481365595414,-237.58868715403224 L-218.869655777463,-110.09574823695444" stroke="#0d6d4d" stroke-width="0.1" fill="none" />
<path d="M62.14537305782931,-236.98724144456222 L-191.54871320466734,-152.75500145538967" stroke="#0d6d4d" stroke-width="0.1" fill="none" />
<path d="M64.47988620900938,-236.36273876073022 L-156.03849818704785,-188.88352782477" stroke="#0d6d4d" stroke-width="0.1" fill="none" />
<path d="M66.80812597992598,-235.71523986168214 L-113.85717715072325,-216.93672628503646" stroke="#0d6d4d" stroke-width="0.1" fill="none" />
<path d="M69.12986585136062,-235.0448077439127 L-66.80812597992609,-235.71523986168208" stroke="#0d6d4d" stroke-width="0.1" fill="none" />
<path d="M71.44487993648343,-234.35150763513656 L-16.902830379059683,-244.41623171380564" stroke="#0d6d4d" stroke-width="0.1" fill="none" />
<path d="M73.75294300283012,-233.635406987942 L33.72511107385621,-242.667708776953" stroke="#0d6d4d" stroke-width="0.1" fill="none" />
<path d="M76.05383049421519,-232.89657547322844 L82.91120455924926,-230.54442556378223" stroke="#0d6d4d" stroke-width="0.1" fill="none" />
<path d="M78.34731855257952,-232.13508497342798 L128.55259951075698,-208.56468818816606" stroke="#0d6d4d" stroke-width="0.1" fill="none" />
<path d="M80.63318403977006,-231.35100957551185 L168.69799167910287,-177.66819525012727" stroke="#0d6d4d" stroke-width="0.1" fill="none" />
<path d="M82.91120455924926,-230.54442556378223 L201.6310471439458,-139.1758629491332" stroke="#0d6d4d" stroke-width="0.1" fill="none" />
<path d="M85.18115847773261,-229.71541141245052 L225.9437806511435,-94.73335202064762" stroke="#0d6d4d" stroke-width="0.1" fill="none" />
<path d="M87.44282494675171,-228.86404777800234 L240.59675113509044,-46.24071088596459" stroke="#0d6d4d" stroke-width="0.1" fill="none" />
<path d="M89.6959839241411,-227.9904174913503 L244.9635008900081,4.228857021820171" stroke="#0d6d4d" stroke-width="0.1" fill="none" />
<path d="M91.94041619544666,-227.09460554977534 L238.85733848454677,54.517628819297016" stroke="#0d6d4d" stroke-width="0.1" fill="none" />
<path d="M94.17590339525331,-226.1766991086569 L222.5393203711047,102.4756111900135" stroke="#0d6d4d" stroke-width="0.1" fill="none" />
<path d="M96.40222802843039,-225.23678747299365 L196.70708995252622,146.0524589399602" stroke="#0d6d4d" stroke-width="0.1" fill="none" />
<path d="M98.61917349129205,-224.27496208871474 L162.4650512689948,183.38513330191978" stroke="#0d6d4d" stroke-width="0.1" fill="none" />
<path d="M100.82652409267118,-223.29131653378283 L121.27715246797747,212.87755233762655" stroke="#0d6d4d" stroke-width="0.1" fill="none" />
<path d="M103.0240650749044,-222.28594650908965 L74.90429770313945,233.26882814812495" stroke="#0d6d4d" stroke-width="0.1" fill="none" />
<path d="M105.21158263472628,-221.25894982914514 L25.329063288150742,243.6871735503222" stroke="#0d6d4d" stroke-width="0.1" fill="none" />
<path d="M107.38886394407069,-220.21042641256085 L-25.32906328815068,243.68717355032223" stroke="#0d6d4d" stroke-width="0.1" fill="none" />
<path d="M109.55569717077732,-219.14047827232864 L-74.9042977031394,233.26882814812498" stroke="#0d6d4d" stroke-width="0.1" fill="none" />
<path d="M111.71187149920114,-218.04920950589565 L-121.27715246797743,212.8775523376266" stroke="#0d6d4d" stroke-width="0.1" fill="none" />
<path d="M113.85717715072329,-216.93672628503643 L-162.46505126899476,183.3851333019198" stroke="#0d6d4d" stroke-width="0.1" fill="none" />
<path d="M115.99140540416067,-215.80313684552328 L-196.70708995252625,146.05245893996016" stroke="#0d6d4d" stroke-width="0.1" fill="none" />
<path d="M118.114348616073,-214.64855147659574 L-222.53932037110468,102.47561119001355" stroke="#0d6d4d" stroke-width="0.1" fill="none" />
<path d="M120.2258002409648,-213.47308251023037 L-238.85733848454677,54.51762881929707" stroke="#0d6d4d" stroke-width="0.1" fill="none" />
<path d="M122.32555485138057,-212.27684431021177 L-244.9635008900081,4.228857021820176" stroke="#0d6d4d" stroke-width="0.1" fill="none" />
<path d="M124.4134081578914,-211.05995326100572 L-240.59675113509041,-46.24071088596464" stroke="#0d6d4d" stroke-width="0.1" fill="none" />
<path d="M126.48915702897068,-209.8225277564361 L-225.94378065114356,-94.73335202064752" stroke="#0d6d4d" stroke-width="0.1" fill="none" />
<path d="M128.55259951075698,-208.56468818816606 L-201.63104714394586,-139.17586294913312" stroke="#0d6d4d" stroke-width="0.1" fill="none" />
<path d="M130.60353484670276,-207.28655693398474 L-168.6979916791029,-177.66819525012724" stroke="#0d6d4d" stroke-width="0.1" fill="none" />
<path d="M132.6417634971064,-205.9882583459011 L-128.55259951075695,-208.56468818816606" stroke="#0d6d4d" stroke-width="0.1" fill="none" />
<path d="M134.66708715852562,-204.66991873804528 L-82.91120455924938,-230.54442556378217" stroke="#0d6d4d" stroke-width="0.1" fill="none" />
<path d="M136.67930878307112,-203.33166637437932 L-33.725111073856304,-242.66770877695296" stroke="#0d6d4d" stroke-width="0.1" fill="none" />
<path d="M138.67823259757753,-201.97363145621802 L16.90283037905961,-244.41623171380567" stroke="#0d6d4d" stroke-width="0.1" fill="none" />
<path d="M140.66366412265066,-200.59594610956154 L66.80812597992598,-235.71523986168214" stroke="#0d6d4d" stroke-width="0.1" fill="none" />
<path d="M142.63541019158882,-199.19874437224047 L113.85717715072329,-216.93672628503643" stroke="#0d6d4d" stroke-width="0.1" fill="none" />
<path d="M144.59327896917642,-197.78216218087496 L156.03849818704785,-188.88352782477" stroke="#0d6d4d" stroke-width="0.1" fill="none" />
<path d="M146.53707997034792,-196.34633735764936 L191.54871320466728,-152.75500145538973" stroke="#0d6d4d" stroke-width="0.1" fill="none" />
<path d="M148.46662407872063,-194.8914095969031 L218.86965577746298,-110.09574823695453" stroke="#0d6d4d" stroke-width="0.1" fill="none" />
<path d="M150.3817235649942,-193.41752045153942 L236.83327502983877,-62.72957706409907" stroke="#0d6d4d" stroke-width="0.1" fill="none" />
<path d="M152.2821921052151,-191.92481331925364 L244.67157325671175,-12.681531456631326" stroke="#0d6d4d" stroke-width="0.1" fill="none" />
<path d="M154.16784479890455,-190.4134334285816 L242.04944009054287,37.908687023618874" stroke="#0d6d4d" stroke-width="0.1" fill="none" />
<path d="M156.03849818704785,-188.88352782477 L229.07897945792666,86.87819732542118" stroke="#0d6d4d" stroke-width="0.1" fill="none" />
<path d="M157.89397026994348,-187.33524535547016 L206.3147168060889,132.13340845230374" stroke="#0d6d4d" stroke-width="0.1" fill="none" />
<path d="M159.73408052491013,-185.76873665625635 L174.7298915044961,171.73952665250658" stroke="#0d6d4d" stroke-width="0.1" fill="none" />
<path d="M161.55864992385037,-184.18415413597003 L135.67484799133064,204.00327355836552" stroke="#0d6d4d" stroke-width="0.1" fill="none" />
<path d="M163.3675009506684,-182.5816519618917 L90.81930456604154,227.54527883069906" stroke="#0d6d4d" stroke-width="0.1" fill="none" />
<path d="M165.160457618541,-180.96138604474194 L42.0809680073627,241.35905230913409" stroke="#0d6d4d" stroke-width="0.1" fill="none" />
<path d="M166.93734548703983,-179.32351402351202 L-8.45645404757847,244.85401443501226" stroke="#0d6d4d" stroke-width="0.1" fill="none" />
<path d="M168.69799167910287,-177.66819525012727 L-58.63233775045168,237.88074526938274" stroke="#0d6d4d" stroke-width="0.1" fill="none" />
<path d="M170.44222489785417,-175.99559077394326 L-106.30151608380172,220.7373726360927" stroke="#0d6d4d" stroke-width="0.1" fill="none" />
<path d="M172.1698754432695,-174.3058633260771 L-149.42599107801786,194.15682627801715" stroke="#0d6d4d" stroke-width="0.1" fill="none" />
<path d="M173.88077522868693,-172.5991773035748 L-186.16206423542184,159.2755029488423" stroke="#0d6d4d" stroke-width="0.1" fill="none" />
<path d="M175.57475779716032,-170.8756987534169 L-214.93916007886332,117.58468210014756" stroke="#0d6d4d" stroke-width="0.1" fill="none" />
<path d="M177.25165833765425,-169.13559535636335 L-234.52697288563584,70.86676928645913" stroke="#0d6d4d" stroke-width="0.1" fill="none" />
<path d="M178.91131370107877,-167.37903641063951 L-244.08806588579645,21.11909307075198" stroke="#0d6d4d" stroke-width="0.1" fill="none" />
<path d="M180.5535624161625,-165.60619281546482 L-243.2136741540232,-29.531486662554187" stroke="#0d6d4d" stroke-width="0.1" fill="none" />
<path d="M182.17824470516265,-163.81723705442562 L-231.9411805157875,-78.91950824063008" stroke="#0d6d4d" stroke-width="0.1" fill="none" />
<path d="M183.78520249940996,-162.01234317869387 L-210.75251732130772,-124.93348807558321" stroke="#0d6d4d" stroke-width="0.1" fill="none" />
<path d="M185.37427945468758,-160.19168679009343 L-180.55356241616255,-165.60619281546477" stroke="#0d6d4d" stroke-width="0.1" fill="none" />
<path d="M186.94532096644218,-158.35544502401524 L-142.63541019158882,-199.19874437224047" stroke="#0d6d4d" stroke-width="0.1" fill="none" />
<path d="M188.49817418482564,-156.5037965321836 L-98.61917349129219,-224.2749620887147" stroke="#0d6d4d" stroke-width="0.1" fill="none" />
<path d="M190.0326880295662,-154.6369214652748 L-50.38667625605457,-239.76276369750903" stroke="#0d6d4d" stroke-width="0.1" fill="none" />
<path d="M191.54871320466728,-152.75500145538973 L0.0,-245.0" stroke="#0d6d4d" stroke-width="0.1" fill="none" />
<path d="M193.04610221293296,-150.85821959838265 L50.386676256054464,-239.76276369750903" stroke="#0d6d4d" stroke-width="0.1" fill="none" />
<path d="M194.5247093703181,-148.94676043604736 L98.61917349129205,-224.27496208871474" stroke="#0d6d4d" stroke-width="0.1" fill="none" />
<path d="M195.9843908201024,-147.02080993816276 L142.63541019158882,-199.19874437224047" stroke="#0d6d4d" stroke-width="0.1" fill="none" />
<path d="M197.42500454688627,-145.08055548439953 L180.5535624161625,-165.60619281546482" stroke="#0d6d4d" stroke-width="0.1" fill="none" />
<path d="M198.84641039040818,-143.12618584608958 L210.7525173213077,-124.93348807558328" stroke="#0d6d4d" stroke-width="0.1" fill="none" />
<path d="M200.2484700591808,-141.15789116785987 L231.94118051578747,-78.91950824063018" stroke="#0d6d4d" stroke-width="0.1" fill="none" />
<path d="M201.6310471439458,-139.1758629491332 L243.2136741540232,-29.531486662554137" stroke="#0d6d4d" stroke-width="0.1" fill="none" />
<path d="M202.9940071309454,-137.18029402549655 L244.08806588579648,21.11909307075176" stroke="#0d6d4d" stroke-width="0.1" fill="none" />
<path d="M204.33721741500943,-135.17137854993996 L234.52697288563587,70.86676928645907" stroke="#0d6d4d" stroke-width="0.1" fill="none" />
<path d="M205.66054731245677,-133.14931197396675 L214.93916007886327,117.58468210014769" stroke="#0d6d4d" stroke-width="0.1" fill="none" />
<path d="M206.96386807380998,-131.11429102857775 L186.16206423542184,159.2755029488423" stroke="#0d6d4d" stroke-width="0.1" fill="none" />
<path d="M208.24705289632126,-129.066513705131 L149.4259910780178,194.1568262780172" stroke="#0d6d4d" stroke-width="0.1" fill="none" />
<path d="M209.5099769363098,-127.00617923607861 L106.30151608380177,220.73737263609266" stroke="#0d6d4d" stroke-width="0.1" fill="none" />
<path d="M210.7525173213077,-124.93348807558328 L58.632337750451626,237.88074526938274" stroke="#0d6d4d" stroke-width="0.1" fill="none" />
<path d="M211.97455316201453,-122.84864188001539 L8.45645404757853,244.85401443501226" stroke="#0d6d4d" stroke-width="0.1" fill="none" />
<path d="M213.17596556405928,-120.75184348833362 L-42.08096800736264,241.35905230913409" stroke="#0d6d4d" stroke-width="0.1" fill="none" />
<path d="M214.35663763956725,-118.64329690235039 L-90.8193045660415,227.5452788306991" stroke="#0d6d4d" stroke-width="0.1" fill="none" />
<path d="M215.51645451853284,-116.52320726688383 L-135.6748479913306,204.00327355836555" stroke="#0d6d4d" stroke-width="0.1" fill="none" />
<path d="M216.65530335999514,-114.39178084979916 L-174.72989150449604,171.73952665250667" stroke="#0d6d4d" stroke-width="0.1" fill="none" />
<path d="M217.77307336301655,-112.24922502194039 L-206.3147168060889,132.1334084523037" stroke="#0d6d4d" stroke-width="0.1" fill="none" />
<path d="M218.86965577746298,-110.09574823695453 L-229.0789794579266,86.8781973254213" stroke="#0d6d4d" stroke-width="0.1" fill="none" />
<path d="M219.9449439145841,-107.93156001101099 L-242.04944009054287,37.90868702361893" stroke="#0d6d4d" stroke-width="0.1" fill="none" />
<path d="M220.99883315739356,-105.75687090241716 L-244.67157325671175,-12.68153145663132" stroke="#0d6d4d" stroke-width="0.1" fill="none" />
<path d="M222.0312209708473,-103.57189249113284 L-236.83327502983875,-62.729577064099125" stroke="#0d6d4d" stroke-width="0.1" fill="none" />
<path d="M223.04200691181933,-101.37683735818527 L-218.869655777463,-110.09574823695444" stroke="#0d6d4d" stroke-width="0.1" fill="none" />
<path d="M224.03109263887407,-99.17191906498648 L-191.54871320466734,-152.75500145538967" stroke="#0d6d4d" stroke-width="0.1" fill="none" />
<path d="M224.99838192183432,-96.95735213255558 L-156.03849818704785,-188.88352782477" stroke="#0d6d4d" stroke-width="0.1" fill="none" />
<path d="M225.9437806511435,-94.73335202064762 L-113.85717715072325,-216.93672628503646" stroke="#0d6d4d" stroke-width="0.1" fill="none" />
<path d="M226.86719684702197,-92.500135106791 L-66.80812597992609,-235.71523986168208" stroke="#0d6d4d" stroke-width="0.1" fill="none" />
<path d="M227.76854066841568,-90.25791866523552 L-16.902830379059683,-244.41623171380564" stroke="#0d6d4d" stroke-width="0.1" fill="none" />
<path d="M228.6477244217372,-88.00692084581374 L33.72511107385621,-242.667708776953" stroke="#0d6d4d" stroke-width="0.1" fill="none" />
<path d="M229.50466256939748,-85.74736065271628 L82.91120455924926,-230.54442556378223" stroke="#0d6d4d" stroke-width="0.1" fill="none" />
<path d="M230.33927173812813,-83.47945792318468 L128.55259951075698,-208.56468818816606" stroke="#0d6d4d" stroke-width="0.1" fill="none" />
<path d="M231.1514707270928,-81.20343330612296 L168.69799167910287,-177.66819525012727" stroke="#0d6d4d" stroke-width="0.1" fill="none" />
<path d="M231.94118051578747,-78.91950824063018 L201.6310471439458,-139.1758629491332" stroke="#0d6d4d" stroke-width="0.1" fill="none" />
<path d="M232.70832427172846,-76.62790493445635 L225.9437806511435,-94.73335202064762" stroke="#0d6d4d" stroke-width="0.1" fill="none" />
<path d="M233.45282735792773,-74.32884634238309 L240.59675113509044,-46.24071088596459" stroke="#0d6d4d" stroke-width="0.1" fill="none" />
<path d="M234.17461734015436,-72.02255614453213 L244.9635008900081,4.228857021820171" stroke="#0d6d4d" stroke-width="0.1" fill="none" />
<path d="M234.87362399398185,-69.70925872460295 L238.85733848454677,54.517628819297016" stroke="#0d6d4d" stroke-width="0.1" fill="none" />
<path d="M235.54977931162045,-67.38917914804202 L222.5393203711047,102.4756111900135" stroke="#0d6d4d" stroke-width="0.1" fill="none" />
<path d="M236.2030175085337,-65.06254314014572 L196.70708995252622,146.0524589399602" stroke="#0d6d4d" stroke-width="0.1" fill="none" />
<path d="M236.83327502983877,-62.72957706409907 L162.4650512689948,183.38513330191978" stroke="#0d6d4d" stroke-width="0.1" fill="none" />
<path d="M237.4404905564899,-60.3905078989524 L121.27715246797747,212.87755233762655" stroke="#0d6d4d" stroke-width="0.1" fill="none" />
<path d="M238.02460501124415,-58.04556321753809 L74.90429770313945,233.26882814812495" stroke="#0d6d4d" stroke-width="0.1" fill="none" />
<path d="M238.58556156440923,-55.694971164329466 L25.329063288150742,243.6871735503222" stroke="#0d6d4d" stroke-width="0.1" fill="none" />
<path d="M239.12330563937257,-53.33896043324441 L-25.32906328815068,243.68717355032223" stroke="#0d6d4d" stroke-width="0.1" fill="none" />
<path d="M239.63778491791112,-50.977760245394904 L-74.9042977031394,233.26882814812498" stroke="#0d6d4d" stroke-width="0.1" fill="none" />
<path d="M240.12894934528165,-48.61160032678586 L-121.27715246797743,212.8775523376266" stroke="#0d6d4d" stroke-width="0.1" fill="none" />
<path d="M240.59675113509044,-46.24071088596459 L-162.46505126899476,183.3851333019198" stroke="#0d6d4d" stroke-width="0.1" fill="none" />
<path d="M241.04114477394276,-43.86532259162328 L-196.70708995252625,146.05245893996016" stroke="#0d6d4d" stroke-width="0.1" fill="none" />
<path d="M241.4620870258708,-41.485666550156814 L-222.53932037110468,102.47561119001355" stroke="#0d6d4d" stroke-width="0.1" fill="none" />
<path d="M241.85953693654025,-39.101974283177924 L-238.85733848454677,54.51762881929707" stroke="#0d6d4d" stroke-width="0.1" fill="none" />
<path d="M242.2334558372349,-36.71447770499202 L-244.9635008900081,4.228857021820176" stroke="#0d6d4d" stroke-width="0.1" fill="none" />
<path d="M242.58380734861865,-34.323409100033714 L-240.59675113509041,-46.24071088596464" stroke="#0d6d4d" stroke-width="0.1" fill="none" />
<path d="M242.9105573842749,-31.929001100267435 L-225.94378065114356,-94.73335202064752" stroke="#0d6d4d" stroke-width="0.1" fill="none" />
<path d="M243.2136741540232,-29.531486662554137 L-201.63104714394586,-139.17586294913312" stroke="#0d6d4d" stroke-width="0.1" fill="none" />
<path d="M243.49312816701186,-27.131099045986623 L-168.6979916791029,-177.66819525012724" stroke="#0d6d4d" stroke-width="0.1" fill="none" />
<path d="M243.74889223458723,-24.72807178919501 L-128.55259951075695,-208.56468818816606" stroke="#0d6d4d" stroke-width="0.1" fill="none" />
<path d="M243.98094147293907,-22.32263868762547 L-82.91120455924938,-230.54442556378217" stroke="#0d6d4d" stroke-width="0.1" fill="none" />
<path d="M244.1892533055215,-19.91503377079375 L-33.725111073856304,-242.66770877695296" stroke="#0d6d4d" stroke-width="0.1" fill="none" />
<path d="M244.37380746524943,-17.50549127951595 L16.90283037905961,-244.41623171380567" stroke="#0d6d4d" stroke-width="0.1" fill="none" />
<path d="M244.5345859964704,-15.094245643118754 L66.80812597992598,-235.71523986168214" stroke="#0d6d4d" stroke-width="0.1" fill="none" />
<path d="M244.67157325671175,-12.681531456631326 L113.85717715072329,-216.93672628503643" stroke="#0d6d4d" stroke-width="0.1" fill="none" />
<path d="M244.78475591820217,-10.267583457961084 L156.03849818704785,-188.88352782477" stroke="#0d6d4d" stroke-width="0.1" fill="none" />
<path d="M244.87412296916852,-7.852636505055556 L191.54871320466728,-152.75500145538973" stroke="#0d6d4d" stroke-width="0.1" fill="none" />
<path d="M244.93966571490736,-5.436925553052578 L218.86965577746298,-110.09574823695453" stroke="#0d6d4d" stroke-width="0.1" fill="none" />
<path d="M244.98137777863062,-3.0206856314209682 L236.83327502983877,-62.72957706409907" stroke="#0d6d4d" stroke-width="0.1" fill="none" />
<path d="M244.99925510208612,-0.6041518210942465 L244.67157325671175,-12.681531456631326" stroke="#0d6d4d" stroke-width="0.1" fill="none" />
<path d="M244.99329594595244,1.8124407684011967 L242.04944009054287,37.908687023618874" stroke="#0d6d4d" stroke-width="0.1" fill="none" />
<path d="M244.9635008900081,4.228857021820171 L229.07897945792666,86.87819732542118" stroke="#0d6d4d" stroke-width="0.1" fill="none" />
<path d="M244.90987283307516,6.644861841073583 L206.3147168060889,132.13340845230374" stroke="#0d6d4d" stroke-width="0.1" fill="none" />
<path d="M244.83241699273714,9.060220168101615 L174.7298915044961,171.73952665250658" stroke="#0d6d4d" stroke-width="0.1" fill="none" />
<path d="M244.7311409048315,11.474697007742998 L135.67484799133064,204.00327355836552" stroke="#0d6d4d" stroke-width="0.1" fill="none" />
<path d="M244.60605442271637,13.888057450598184 L90.81930456604154,227.54527883069906" stroke="#0d6d4d" stroke-width="0.1" fill="none" />
<path d="M244.4571697163119,16.300066695884208 L42.0809680073627,241.35905230913409" stroke="#0d6d4d" stroke-width="0.1" fill="none" />
<path d="M244.28450127091634,18.710490074278713 L-8.45645404757847,244.85401443501226" stroke="#0d6d4d" stroke-width="0.1" fill="none" />
<path d="M244.08806588579648,21.11909307075176 L-58.63233775045168,237.88074526938274" stroke="#0d6d4d" stroke-width="0.1" fill="none" />
<path d="M243.86788267255358,23.52564134738203 L-106.30151608380172,220.7373726360927" stroke="#0d6d4d" stroke-width="0.1" fill="none" />
<path d="M243.6239730532636,25.929900766156123 L-149.42599107801786,194.15682627801715" stroke="#0d6d4d" stroke-width="0.1" fill="none" />
<path d="M243.3563607583932,28.331637411748297 L-186.16206423542184,159.2755029488423" stroke="#0d6d4d" stroke-width="0.1" fill="none" />
<path d="M243.06507182449104,30.730617614278582 L-214.93916007886332,117.58468210014756" stroke="#0d6d4d" stroke-width="0.1" fill="none" />
<path d="M242.75013459165436,33.12660797204701 L-234.52697288563584,70.86676928645913" stroke="#0d6d4d" stroke-width="0.1" fill="none" />
<path d="M242.41157970077197,35.51937537424174 L-244.08806588579645,21.11909307075198" stroke="#0d6d4d" stroke-width="0.1" fill="none" />
<path d="M242.04944009054287,37.908687023618874 L-243.2136741540232,-29.531486662554187" stroke="#0d6d4d" stroke-width="0.1" fill="none" />
<path d="M241.663750994272,40.29431045915179 L-231.9411805157875,-78.91950824063008" stroke="#0d6d4d" stroke-width="0.1" fill="none" />
<path d="M241.25454993644175,42.67601357864779 L-210.75251732130772,-124.93348807558321" stroke="#0d6d4d" stroke-width="0.1" fill="none" />
<path d="M240.8218767290617,45.053564661329624 L-180.55356241616255,-165.60619281546477" stroke="#0d6d4d" stroke-width="0.1" fill="none" />
<path d="M240.36577346779478,47.42673239038036 L-142.63541019158882,-199.19874437224047" stroke="#0d6d4d" stroke-width="0.1" fill="none" />
<path d="M239.886284527862,49.79528587544846 L-98.61917349129219,-224.2749620887147" stroke="#0d6d4d" stroke-width="0.1" fill="none" />
<path d="M239.38345655972486,52.15899467511164 L-50.38667625605457,-239.76276369750903" stroke="#0d6d4d" stroke-width="0.1" fill="none" />
<path d="M238.85733848454677,54.517628819297016 L0.0,-245.0" stroke="#0d6d4d" stroke-width="0.1" fill="none" />
<path d="M238.30798148943347,56.87095883165529 L50.386676256054464,-239.76276369750903" stroke="#0d6d4d" stroke-width="0.1" fill="none" />
<path d="M237.73543902245274,59.218755751887045 L98.61917349129205,-224.27496208871474" stroke="#0d6d4d" stroke-width="0.1" fill="none" />
<path d="M237.13976678743447,61.560791158018745 L142.63541019158882,-199.19874437224047" stroke="#0d6d4d" stroke-width="0.1" fill="none" />
<path d="M236.52102273855104,63.896837188626336 L180.5535624161625,-165.60619281546482" stroke="#0d6d4d" stroke-width="0.1" fill="none" />
<path d="M235.87926707467895,66.22666656500445 L210.7525173213077,-124.93348807558328" stroke="#0d6d4d" stroke-width="0.1" fill="none" />
<path d="M235.21456223354184,68.55005261327861 L231.94118051578747,-78.91950824063018" stroke="#0d6d4d" stroke-width="0.1" fill="none" />
<path d="M234.52697288563587,70.86676928645907 L243.2136741540232,-29.531486662554137" stroke="#0d6d4d" stroke-width="0.1" fill="none" />
<path d="M233.8165659279377,73.1765911864332 L244.08806588579648,21.11909307075176" stroke="#0d6d4d" stroke-width="0.1" fill="none" />
<path d="M233.083410477396,75.47929358589501 L234.52697288563587,70.86676928645907" stroke="#0d6d4d" stroke-width="0.1" fill="none" />
<path d="M232.32757786420697,77.77465245020926 L214.93916007886327,117.58468210014769" stroke="#0d6d4d" stroke-width="0.1" fill="none" />
<path d="M231.5491416248745,80.06244445920834 L186.16206423542184,159.2755029488423" stroke="#0d6d4d" stroke-width="0.1" fill="none" />
<path d="M230.74817749505542,82.34244702891944 L149.4259910780178,194.1568262780172" stroke="#0d6d4d" stroke-width="0.1" fill="none" />
<path d="M229.9247634021913,84.61443833322033 L106.30151608380177,220.73737263609266" stroke="#0d6d4d" stroke-width="0.1" fill="none" />
<path d="M229.07897945792666,86.87819732542118 L58.632337750451626,237.88074526938274" stroke="#0d6d4d" stroke-width="0.1" fill="none" />
<path d="M228.21090795031455,89.13350375977068 L8.45645404757853,244.85401443501226" stroke="#0d6d4d" stroke-width="0.1" fill="none" />
<path d="M227.3206333358109,91.3801382128842 L-42.08096800736264,241.35905230913409" stroke="#0d6d4d" stroke-width="0.1" fill="none" />
<path d="M226.4082422310573,93.61788210509187 L-90.8193045660415,227.5452788306991" stroke="#0d6d4d" stroke-width="0.1" fill="none" />
<path d="M225.47382340445407,95.84651772170476 L-135.6748479913306,204.00327355836555" stroke="#0d6d4d" stroke-width="0.1" fill="none" />
<path d="M224.51746776752364,98.06582823419677 L-174.72989150449604,171.73952665250667" stroke="#0d6d4d" stroke-width="0.1" fill="none" />
<path d="M223.53926836606576,100.27559772130023 L-206.3147168060889,132.1334084523037" stroke="#0d6d4d" stroke-width="0.1" fill="none" />
<path d="M222.5393203711047,102.4756111900135 L-229.0789794579266,86.8781973254213" stroke="#0d6d4d" stroke-width="0.1" fill="none" />
<path d="M221.5177210696301,104.6656545965177 L-242.04944009054287,37.90868702361893" stroke="#0d6d4d" stroke-width="0.1" fill="none" />
<path d="M220.47456985513148,106.845514867002 L-244.67157325671175,-12.68153145663132" stroke="#0d6d4d" stroke-width="0.1" fill="none" />
<path d="M219.40996821792808,109.01497991839375 L-236.83327502983875,-62.729577064099125" stroke="#0d6d4d" stroke-width="0.1" fill="none" />
<path d="M218.32401973529485,111.17383867899215 L-218.869655777463,-110.09574823695444" stroke="#0d6d4d" stroke-width="0.1" fill="none" />
<path d="M217.216830061385,113.32188110900469 L-191.54871320466734,-152.75500145538967" stroke="#0d6d4d" stroke-width="0.1" fill="none" />
<path d="M216.08850691695088,115.45889822098114 L-156.03849818704785,-188.88352782477" stroke="#0d6d4d" stroke-width="0.1" fill="none" />
<path d="M214.93916007886327,117.58468210014769 L-113.85717715072325,-216.93672628503646" stroke="#0d6d4d" stroke-width="0.1" fill="none" />
<path d="M213.76890136943146,119.69902592463434 L-66.80812597992609,-235.71523986168208" stroke="#0d6d4d" stroke-width="0.1" fill="none" />
<path d="M212.57784464552333,121.80172398559782 L-16.902830379059683,-244.41623171380564" stroke="#0d6d4d" stroke-width="0.1" fill="none" />
<path d="M211.36610578748835,123.89257170723465 L33.72511107385621,-242.667708776953" stroke="#0d6d4d" stroke-width="0.1" fill="none" />
<path d="M210.1338026878831,125.97136566668559 L82.91120455924926,-230.54442556378223" stroke="#0d6d4d" stroke-width="0.1" fill="none" />
<path d="M208.8810552400015,128.0379036138262 L128.55259951075698,-208.56468818816606" stroke="#0d6d4d" stroke-width="0.1" fill="none" />
<path d="M207.6079853262099,130.09198449094478 L168.69799167910287,-177.66819525012727" stroke="#0d6d4d" stroke-width="0.1" fill="none" />
<path d="M206.3147168060889,132.13340845230374 L201.6310471439458,-139.1758629491332" stroke="#0d6d4d" stroke-width="0.1" fill="none" />
<path d="M205.00137550438322,134.1619768835823 L225.9437806511435,-94.73335202064762" stroke="#0d6d4d" stroke-width="0.1" fill="none" />
<path d="M203.66808919875925,136.17749242120098 L240.59675113509044,-46.24071088596459" stroke="#0d6d4d" stroke-width="0.1" fill="none" />
<path d="M202.31498760737404,138.1797589715226 L244.9635008900081,4.228857021820171" stroke="#0d6d4d" stroke-width="0.1" fill="none" />
<path d="M200.9422023762542,140.1685817299316 L238.85733848454677,54.517628819297016" stroke="#0d6d4d" stroke-width="0.1" fill="none" />
<path d="M199.549867066488,142.14376719978605 L222.5393203711047,102.4756111900135" stroke="#0d6d4d" stroke-width="0.1" fill="none" />
<path d="M198.13811714123088,144.10512321124418 L196.70708995252622,146.0524589399602" stroke="#0d6d4d" stroke-width="0.1" fill="none" />
<path d="M196.70708995252622,146.0524589399602 L162.4650512689948,183.38513330191978" stroke="#0d6d4d" stroke-width="0.1" fill="none" />
<path d="M195.2569247279416,147.98558492565064 L121.27715246797747,212.87755233762655" stroke="#0d6d4d" stroke-width="0.1" fill="none" />
<path d="M193.78776255702348,149.9043130905268 L74.90429770313945,233.26882814812495" stroke="#0d6d4d" stroke-width="0.1" fill="none" />
<path d="M192.29974637757016,151.8084567575937 L25.329063288150742,243.6871735503222" stroke="#0d6d4d" stroke-width="0.1" fill="none" />
<path d="M190.7930209617249,153.697830668812 L-25.32906328815068,243.68717355032223" stroke="#0d6d4d" stroke-width="0.1" fill="none" />
<path d="M189.2677329018912,155.57225100312195 L-74.9042977031394,233.26882814812498" stroke="#0d6d4d" stroke-width="0.1" fill="none" />
<path d="M187.72403059646985,157.43153539432834 L-121.27715246797743,212.8775523376266" stroke="#0d6d4d" stroke-width="0.1" fill="none" />
<path d="M186.16206423542184,159.2755029488423 L-162.46505126899476,183.3851333019198" stroke="#0d6d4d" stroke-width="0.1" fill="none" />
<path d="M184.58198578565504,161.10397426328205 L-196.70708995252625,146.05245893996016" stroke="#0d6d4d" stroke-width="0.1" fill="none" />
<path d="M182.98394897623993,162.91677144192622 L-222.53932037110468,102.47561119001355" stroke="#0d6d4d" stroke-width="0.1" fill="none" />
<path d="M181.3681092834523,164.7137181140226 L-238.85733848454677,54.51762881929707" stroke="#0d6d4d" stroke-width="0.1" fill="none" />
<path d="M179.73462391564723,166.49463945094703 L-244.9635008900081,4.228857021820176" stroke="#0d6d4d" stroke-width="0.1" fill="none" />
<path d="M178.08365179796343,168.2593621832132 L-240.59675113509041,-46.24071088596464" stroke="#0d6d4d" stroke-width="0.1" fill="none" />
<path d="M176.41535355686153,170.00771461733004 L-225.94378065114356,-94.73335202064752" stroke="#0d6d4d" stroke-width="0.1" fill="none" />
<path d="M174.7298915044961,171.73952665250658 L-201.63104714394586,-139.17586294913312" stroke="#0d6d4d" stroke-width="0.1" fill="none" />
<path d="M173.02742962292413,173.45462979720097 L-168.6979916791029,-177.66819525012724" stroke="#0d6d4d" stroke-width="0.1" fill="none" />
<path d="M171.30813354815086,175.15285718551354 L-128.55259951075695,-208.56468818816606" stroke="#0d6d4d" stroke-width="0.1" fill="none" />
<path d="M169.57217055401443,176.8340435934219 L-82.91120455924938,-230.54442556378217" stroke="#0d6d4d" stroke-width="0.1" fill="none" />
<path d="M167.81970953591227,178.49802545485494 L-33.725111073856304,-242.66770877695296" stroke="#0d6d4d" stroke-width="0.1" fill="none" />
<path d="M166.05092099436774,180.14464087760769 L16.90283037905961,-244.41623171380567" stroke="#0d6d4d" stroke-width="0.1" fill="none" />
<path d="M164.2659770184429,181.77372965909123 L66.80812597992598,-235.71523986168214" stroke="#0d6d4d" stroke-width="0.1" fill="none" />
<path d="M162.4650512689948,183.38513330191978 L113.85717715072329,-216.93672628503643" stroke="#0d6d4d" stroke-width="0.1" fill="none" />
<path d="M160.64831896178023,184.97869502933065 L156.03849818704785,-188.88352782477" stroke="#0d6d4d" stroke-width="0.1" fill="none" />
<path d="M158.81595685040816,186.55425980043793 L191.54871320466728,-152.75500145538973" stroke="#0d6d4d" stroke-width="0.1" fill="none" />
<path d="M156.96814320914345,188.11167432531624 L218.86965577746298,-110.09574823695453" stroke="#0d6d4d" stroke-width="0.1" fill="none" />
<path d="M155.10505781556168,189.65078707991503 L236.83327502983877,-62.72957706409907" stroke="#0d6d4d" stroke-width="0.1" fill="none" />
<path d="M153.2268819330589,191.17144832080032 L244.67157325671175,-12.681531456631326" stroke="#0d6d4d" stroke-width="0.1" fill="none" />
<path d="M151.33379829321535,192.6735100997239 L242.04944009054287,37.908687023618874" stroke="#0d6d4d" stroke-width="0.1" fill="none" />
<path d="M149.4259910780178,194.1568262780172 L229.07897945792666,86.87819732542118" stroke="#0d6d4d" stroke-width="0.1" fill="none" />
<path d="M147.50364590193985,195.62125254080942 L206.3147168060889,132.13340845230374" stroke="#0d6d4d" stroke-width="0.1" fill="none" />
<path d="M145.56694979388283,197.06664641106875 L174.7298915044961,171.73952665250658" stroke="#0d6d4d" stroke-width="0.1" fill="none" />
<path d="M143.61609117898004,198.49286726346338 L135.67484799133064,204.00327355836552" stroke="#0d6d4d" stroke-width="0.1" fill="none" />
<path d="M141.65125986026362,199.89977633804412 L90.81930456604154,227.54527883069906" stroke="#0d6d4d" stroke-width="0.1" fill="none" />
<path d="M139.67264700019925,201.28723675374385 L42.0809680073627,241.35905230913409" stroke="#0d6d4d" stroke-width="0.1" fill="none" />
<path d="M137.68044510208648,202.65511352169565 L-8.45645404757847,244.85401443501226" stroke="#0d6d4d" stroke-width="0.1" fill="none" />
<path d="M135.67484799133064,204.00327355836552 L-58.63233775045168,237.88074526938274" stroke="#0d6d4d" stroke-width="0.1" fill="none" />
<path d="M133.65605079658442,205.33158569850096 L-106.30151608380172,220.7373726360927" stroke="#0d6d4d" stroke-width="0.1" fill="none" />
<path d="M131.62424993076405,206.63992070789166 L-149.42599107801786,194.15682627801715" stroke="#0d6d4d" stroke-width="0.1" fill="none" />
<path d="M129.57964307193922,207.92815129594368 L-186.16206423542184,159.2755029488423" stroke="#0d6d4d" stroke-width="0.1" fill="none" />
<path d="M127.52242914410114,209.19615212806306 L-214.93916007886332,117.58468210014756" stroke="#0d6d4d" stroke-width="0.1" fill="none" />
<path d="M125.45280829780873,210.44379983785043 L-234.52697288563584,70.86676928645913" stroke="#0d6d4d" stroke-width="0.1" fill="none" />
<path d="M123.370981890715,211.6709730391035 L-244.08806588579645,21.11909307075198" stroke="#0d6d4d" stroke-width="0.1" fill="none" />
<path d="M121.27715246797747,212.87755233762655 L-243.2136741540232,-29.531486662554187" stroke="#0d6d4d" stroke-width="0.1" fill="none" />
<path d="M119.17152374255124,214.06342034284734 L-231.9411805157875,-78.91950824063008" stroke="#0d6d4d" stroke-width="0.1" fill="none" />
<path d="M117.05430057537009,215.22846167923728 L-210.75251732130772,-124.93348807558321" stroke="#0d6d4d" stroke-width="0.1" fill="none" />
<path d="M114.92568895541446,216.37256299753747 L-180.55356241616255,-165.60619281546477" stroke="#0d6d4d" stroke-width="0.1" fill="none" />
<path d="M112.78589597967105,217.49561298578604 L-142.63541019158882,-199.19874437224047" stroke="#0d6d4d" stroke-width="0.1" fill="none" />
<path d="M110.63512983298325,218.5975023801483 L-98.61917349129219,-224.2749620887147" stroke="#0d6d4d" stroke-width="0.1" fill="none" />
<path d="M108.47359976779694,219.678123975547 L-50.38667625605457,-239.76276369750903" stroke="#0d6d4d" stroke-width="0.1" fill="none" />
<path d="M106.30151608380177,220.73737263609266 L0.0,-245.0" stroke="#0d6d4d" stroke-width="0.1" fill="none" />
<path d="M104.11909010747023,221.77514530531255 L50.386676256054464,-239.76276369750903" stroke="#0d6d4d" stroke-width="0.1" fill="none" />
<path d="M101.92653417149808,222.79134101617691 L98.61917349129205,-224.27496208871474" stroke="#0d6d4d" stroke-width="0.1" fill="none" />
<path d="M99.72406159414517,223.78586090092273 L142.63541019158882,-199.19874437224047" stroke="#0d6d4d" stroke-width="0.1" fill="none" />
<path d="M97.51188665848215,224.75860820067234 L180.5535624161625,-165.60619281546482" stroke="#0d6d4d" stroke-width="0.1" fill="none" />
<path d="M95.29022459154153,225.70948827484762 L210.7525173213077,-124.93348807558328" stroke="#0d6d4d" stroke-width="0.1" fill="none" />
<path d="M93.05929154337875,226.6384086103775 L231.94118051578747,-78.91950824063018" stroke="#0d6d4d" stroke-width="0.1" fill="none" />
<path d="M90.81930456604154,227.54527883069906 L243.2136741540232,-29.531486662554137" stroke="#0d6d4d" stroke-width="0.1" fill="none" />
<path d="M88.57048159245339,228.4300107045501 L244.08806588579648,21.11909307075176" stroke="#0d6d4d" stroke-width="0.1" fill="none" />
<path d="M86.31304141520954,229.29251815455368 L234.52697288563587,70.86676928645907" stroke="#0d6d4d" stroke-width="0.1" fill="none" />
<path d="M84.04720366529097,230.13271726559242 L214.93916007886327,117.58468210014769" stroke="#0d6d4d" stroke-width="0.1" fill="none" />
<path d="M81.7731887906957,230.95052629297308 L186.16206423542184,159.2755029488423" stroke="#0d6d4d" stroke-width="0.1" fill="none" />
<path d="M79.49121803499062,231.74586567037952 L149.4259910780178,194.1568262780172" stroke="#0d6d4d" stroke-width="0.1" fill="none" />
<path d="M77.2015134157871,232.5186580176138 L106.30151608380177,220.73737263609266" stroke="#0d6d4d" stroke-width="0.1" fill="none" />
<path d="M74.90429770313945,233.26882814812495 L58.632337750451626,237.88074526938274" stroke="#0d6d4d" stroke-width="0.1" fill="none" />
<path d="M72.59979439787209,233.9963030763236 L8.45645404757853,244.85401443501226" stroke="#0d6d4d" stroke-width="0.1" fill="none" />
<path d="M70.28822770983383,234.7010120246833 L-42.08096800736264,241.35905230913409" stroke="#0d6d4d" stroke-width="0.1" fill="none" />
<path d="M67.96982253608492,235.38288643062631 L-90.8193045660415,227.5452788306991" stroke="#0d6d4d" stroke-width="0.1" fill="none" />
<path d="M65.64480443901543,236.04185995319438 L-135.6748479913306,204.00327355836555" stroke="#0d6d4d" stroke-width="0.1" fill="none" />
<path d="M63.313399624400745,236.67786847950305 L-174.72989150449604,171.73952665250667" stroke="#0d6d4d" stroke-width="0.1" fill="none" />
<path d="M60.97583491939265,237.29085013097952 L-206.3147168060889,132.1334084523037" stroke="#0d6d4d" stroke-width="0.1" fill="none" />
<path d="M58.632337750451626,237.88074526938274 L-229.0789794579266,86.8781973254213" stroke="#0d6d4d" stroke-width="0.1" fill="none" />
<path d="M56.28313612121971,238.4474965026059 L-242.04944009054287,37.90868702361893" stroke="#0d6d4d" stroke-width="0.1" fill="none" />
<path d="M53.92845859033725,238.9910486902601 L-244.67157325671175,-12.68153145663132" stroke="#0d6d4d" stroke-width="0.1" fill="none" />
<path d="M51.568534249206735,239.51134894903913 L-236.83327502983875,-62.729577064099125" stroke="#0d6d4d" stroke-width="0.1" fill="none" />
<path d="M49.20359269970311,240.00834665786465 L-218.869655777463,-110.09574823695444" stroke="#0d6d4d" stroke-width="0.1" fill="none" />
<path d="M46.83386403183627,240.481993462811 L-191.54871320466734,-152.75500145538967" stroke="#0d6d4d" stroke-width="0.1" fill="none" />
<path d="M44.45957880136421,240.93224328181003 L-156.03849818704785,-188.88352782477" stroke="#0d6d4d" stroke-width="0.1" fill="none" />
<path d="M42.0809680073627,241.35905230913409 L-113.85717715072325,-216.93672628503646" stroke="#0d6d4d" stroke-width="0.1" fill="none" />
<path d="M39.69826306974996,241.76237901965834 L-66.80812597992609,-235.71523986168208" stroke="#0d6d4d" stroke-width="0.1" fill="none" />
<path d="M37.31169580677234,242.14218417290056 L-16.902830379059683,-244.41623171380564" stroke="#0d6d4d" stroke-width="0.1" fill="none" />
<path d="M34.92149841244925,242.49843081683912 L33.72511107385621,-242.667708776953" stroke="#0d6d4d" stroke-width="0.1" fill="none" />
<path d="M32.52790343398337,242.83108429150798 L82.91120455924926,-230.54442556378223" stroke="#0d6d4d" stroke-width="0.1" fill="none" />
<path d="M30.131143749135283,243.14011223236892 L128.55259951075698,-208.56468818816606" stroke="#0d6d4d" stroke-width="0.1" fill="none" />
<path d="M27.73145254356603,243.4254845734603 L168.69799167910287,-177.66819525012727" stroke="#0d6d4d" stroke-width="0.1" fill="none" />
<path d="M25.329063288150742,243.6871735503222 L201.6310471439458,-139.1758629491332" stroke="#0d6d4d" stroke-width="0.1" fill="none" />
<path d="M22.92420971626292,243.92515370269788 L225.9437806511435,-94.73335202064762" stroke="#0d6d4d" stroke-width="0.1" fill="none" />
<path d="M20.517125801034886,244.13940187701064 L240.59675113509044,-46.24071088596459" stroke="#0d6d4d" stroke-width="0.1" fill="none" />
<path d="M18.108045732593215,244.32989722861655 L244.9635008900081,4.228857021820171" stroke="#0d6d4d" stroke-width="0.1" fill="none" />
<path d="M15.697203895274741,244.4966212238324 L238.85733848454677,54.517628819297016" stroke="#0d6d4d" stroke-width="0.1" fill="none" />
<path d="M13.28483484482198,244.63955764173915 L222.5393203711047,102.4756111900135" stroke="#0d6d4d" stroke-width="0.1" fill="none" />
<path d="M10.871173285563563,244.7586925757597 L196.70708995252622,146.0524589399602" stroke="#0d6d4d" stroke-width="0.1" fill="none" />
<path d="M8.45645404757853,244.85401443501226 L162.4650512689948,183.38513330191978" stroke="#0d6d4d" stroke-width="0.1" fill="none" />
<path d="M6.040912063849972,244.92551394543776 L121.27715246797747,212.87755233762655" stroke="#0d6d4d" stroke-width="0.1" fill="none" />
<path d="M3.624782347407602,244.97318415070234 L74.90429770313945,233.26882814812495" stroke="#0d6d4d" stroke-width="0.1" fill="none" />
<path d="M1.2082999684625237,244.99702041287404 L25.329063288150742,243.6871735503222" stroke="#0d6d4d" stroke-width="0.1" fill="none" />
<path d="M-1.2082999684624638,244.99702041287404 L-25.32906328815068,243.68717355032223" stroke="#0d6d4d" stroke-width="0.1" fill="none" />
<path d="M-3.6247823474075416,244.97318415070237 L-74.9042977031394,233.26882814812498" stroke="#0d6d4d" stroke-width="0.1" fill="none" />
<path d="M-6.0409120638499125,244.92551394543776 L-121.27715246797743,212.8775523376266" stroke="#0d6d4d" stroke-width="0.1" fill="none" />
<path d="M-8.45645404757847,244.85401443501226 L-162.46505126899476,183.3851333019198" stroke="#0d6d4d" stroke-width="0.1" fill="none" />
<path d="M-10.871173285563392,244.75869257575974 L-196.70708995252625,146.05245893996016" stroke="#0d6d4d" stroke-width="0.1" fill="none" />
<path d="M-13.284834844821917,244.63955764173915 L-222.53932037110468,102.47561119001355" stroke="#0d6d4d" stroke-width="0.1" fill="none" />
<path d="M-15.697203895274571,244.4966212238324 L-238.85733848454677,54.51762881929707" stroke="#0d6d4d" stroke-width="0.1" fill="none" />
<path d="M-18.108045732593155,244.32989722861655 L-244.9635008900081,4.228857021820176" stroke="#0d6d4d" stroke-width="0.1" fill="none" />
<path d="M-20.517125801034826,244.13940187701064 L-240.59675113509041,-46.24071088596464" stroke="#0d6d4d" stroke-width="0.1" fill="none" />
<path d="M-22.924209716262858,243.9251537026979 L-225.94378065114356,-94.73335202064752" stroke="#0d6d4d" stroke-width="0.1" fill="none" />
<path d="M-25.32906328815068,243.68717355032223 L-201.63104714394586,-139.17586294913312" stroke="#0d6d4d" stroke-width="0.1" fill="none" />
<path d="M-27.73145254356597,243.4254845734603 L-168.6979916791029,-177.66819525012724" stroke="#0d6d4d" stroke-width="0.1" fill="none" />
<path d="M-30.13114374913522,243.14011223236892 L-128.55259951075695,-208.56468818816606" stroke="#0d6d4d" stroke-width="0.1" fill="none" />
<path d="M-32.52790343398342,242.83108429150798 L-82.91120455924938,-230.54442556378217" stroke="#0d6d4d" stroke-width="0.1" fill="none" />
<path d="M-34.9214984124492,242.49843081683912 L-33.725111073856304,-242.66770877695296" stroke="#0d6d4d" stroke-width="0.1" fill="none" />
<path d="M-37.311695806772285,242.14218417290056 L16.90283037905961,-244.41623171380567" stroke="#0d6d4d" stroke-width="0.1" fill="none" />
<path d="M-39.69826306974991,241.76237901965834 L66.80812597992598,-235.71523986168214" stroke="#0d6d4d" stroke-width="0.1" fill="none" />
<path d="M-42.08096800736264,241.35905230913409 L113.85717715072329,-216.93672628503643" stroke="#0d6d4d" stroke-width="0.1" fill="none" />
<path d="M-44.45957880136417,240.93224328181003 L156.03849818704785,-188.88352782477" stroke="#0d6d4d" stroke-width="0.1" fill="none" />
<path d="M-46.83386403183622,240.481993462811 L191.54871320466728,-152.75500145538973" stroke="#0d6d4d" stroke-width="0.1" fill="none" />
<path d="M-49.20359269970306,240.00834665786465 L218.86965577746298,-110.09574823695453" stroke="#0d6d4d" stroke-width="0.1" fill="none" />
<path d="M-51.56853424920668,239.51134894903916 L236.83327502983877,-62.72957706409907" stroke="#0d6d4d" stroke-width="0.1" fill="none" />
<path d="M-53.9284585903372,238.9910486902601 L244.67157325671175,-12.681531456631326" stroke="#0d6d4d" stroke-width="0.1" fill="none" />
<path d="M-56.283136121219655,238.44749650260593 L242.04944009054287,37.908687023618874" stroke="#0d6d4d" stroke-width="0.1" fill="none" />
<path d="M-58.63233775045168,237.88074526938274 L229.07897945792666,86.87819732542118" stroke="#0d6d4d" stroke-width="0.1" fill="none" />
<path d="M-60.9758349193926,237.29085013097952 L206.3147168060889,132.13340845230374" stroke="#0d6d4d" stroke-width="0.1" fill="none" />
<path d="M-63.31339962440069,236.67786847950305 L174.7298915044961,171.73952665250658" stroke="#0d6d4d" stroke-width="0.1" fill="none" />
<path d="M-65.64480443901537,236.04185995319438 L135.67484799133064,204.00327355836552" stroke="#0d6d4d" stroke-width="0.1" fill="none" />
<path d="M-67.96982253608486,235.38288643062634 L90.81930456604154,227.54527883069906" stroke="#0d6d4d" stroke-width="0.1" fill="none" />
<path d="M-70.28822770983379,234.70101202468334 L42.0809680073627,241.35905230913409" stroke="#0d6d4d" stroke-width="0.1" fill="none" />
<path d="M-72.59979439787203,233.99630307632364 L-8.45645404757847,244.85401443501226" stroke="#0d6d4d" stroke-width="0.1" fill="none" />
<path d="M-74.9042977031394,233.26882814812498 L-58.63233775045168,237.88074526938274" stroke="#0d6d4d" stroke-width="0.1" fill="none" />
<path d="M-77.20151341578706,232.5186580176138 L-106.30151608380172,220.7373726360927" stroke="#0d6d4d" stroke-width="0.1" fill="none" />
<path d="M-79.49121803499058,231.74586567037952 L-149.42599107801786,194.15682627801715" stroke="#0d6d4d" stroke-width="0.1" fill="none" />
<path d="M-81.77318879069564,230.95052629297308 L-186.16206423542184,159.2755029488423" stroke="#0d6d4d" stroke-width="0.1" fill="none" />
<path d="M-84.04720366529102,230.1327172655924 L-214.93916007886332,117.58468210014756" stroke="#0d6d4d" stroke-width="0.1" fill="none" />
<path d="M-86.31304141520948,229.29251815455368 L-234.52697288563584,70.86676928645913" stroke="#0d6d4d" stroke-width="0.1" fill="none" />
<path d="M-88.57048159245335,228.43001070455014 L-244.08806588579645,21.11909307075198" stroke="#0d6d4d" stroke-width="0.1" fill="none" />
<path d="M-90.8193045660415,227.5452788306991 L-243.2136741540232,-29.531486662554187" stroke="#0d6d4d" stroke-width="0.1" fill="none" />
<path d="M-93.0592915433787,226.63840861037752 L-231.9411805157875,-78.91950824063008" stroke="#0d6d4d" stroke-width="0.1" fill="none" />
<path d="M-95.29022459154149,225.70948827484764 L-210.75251732130772,-124.93348807558321" stroke="#0d6d4d" stroke-width="0.1" fill="none" />
<path d="M-97.5118866584821,224.75860820067237 L-180.55356241616255,-165.60619281546477" stroke="#0d6d4d" stroke-width="0.1" fill="none" />
<path d="M-99.72406159414513,223.78586090092276 L-142.63541019158882,-199.19874437224047" stroke="#0d6d4d" stroke-width="0.1" fill="none" />
<path d="M-101.92653417149803,222.79134101617691 L-98.61917349129219,-224.2749620887147" stroke="#0d6d4d" stroke-width="0.1" fill="none" />
<path d="M-104.11909010747029,221.77514530531252 L-50.38667625605457,-239.76276369750903" stroke="#0d6d4d" stroke-width="0.1" fill="none" />
<path d="M-106.30151608380172,220.7373726360927 L0.0,-245.0" stroke="#0d6d4d" stroke-width="0.1" fill="none" />
<path d="M-108.473599767797,219.67812397554698 L50.386676256054464,-239.76276369750903" stroke="#0d6d4d" stroke-width="0.1" fill="none" />
<path d="M-110.6351298329832,218.59750238014834 L98.61917349129205,-224.27496208871474" stroke="#0d6d4d" stroke-width="0.1" fill="none" />
<path d="M-112.78589597967101,217.49561298578607 L142.63541019158882,-199.19874437224047" stroke="#0d6d4d" stroke-width="0.1" fill="none" />
<path d="M-114.92568895541442,216.3725629975375 L180.5535624161625,-165.60619281546482" stroke="#0d6d4d" stroke-width="0.1" fill="none" />
<path d="M-117.05430057537004,215.2284616792373 L210.7525173213077,-124.93348807558328" stroke="#0d6d4d" stroke-width="0.1" fill="none" />
<path d="M-119.17152374255119,214.06342034284737 L231.94118051578747,-78.91950824063018" stroke="#0d6d4d" stroke-width="0.1" fill="none" />
<path d="M-121.27715246797743,212.8775523376266 L243.2136741540232,-29.531486662554137" stroke="#0d6d4d" stroke-width="0.1" fill="none" />
<path d="M-123.37098189071494,211.6709730391035 L244.08806588579648,21.11909307075176" stroke="#0d6d4d" stroke-width="0.1" fill="none" />
<path d="M-125.45280829780867,210.44379983785046 L234.52697288563587,70.86676928645907" stroke="#0d6d4d" stroke-width="0.1" fill="none" />
<path d="M-127.5224291441012,209.19615212806303 L214.93916007886327,117.58468210014769" stroke="#0d6d4d" stroke-width="0.1" fill="none" />
<path d="M-129.57964307193916,207.9281512959437 L186.16206423542184,159.2755029488423" stroke="#0d6d4d" stroke-width="0.1" fill="none" />
<path d="M-131.62424993076402,206.6399207078917 L149.4259910780178,194.1568262780172" stroke="#0d6d4d" stroke-width="0.1" fill="none" />
<path d="M-133.65605079658437,205.331585698501 L106.30151608380177,220.73737263609266" stroke="#0d6d4d" stroke-width="0.1" fill="none" />
<path d="M-135.6748479913306,204.00327355836555 L58.632337750451626,237.88074526938274" stroke="#0d6d4d" stroke-width="0.1" fill="none" />
<path d="M-137.68044510208642,202.6551135216957 L8.45645404757853,244.85401443501226" stroke="#0d6d4d" stroke-width="0.1" fill="none" />
<path d="M-139.6726470001992,201.28723675374388 L-42.08096800736264,241.35905230913409" stroke="#0d6d4d" stroke-width="0.1" fill="none" />
<path d="M-141.6512598602636,199.89977633804415 L-90.8193045660415,227.5452788306991" stroke="#0d6d4d" stroke-width="0.1" fill="none" />
<path d="M-143.61609117897999,198.4928672634634 L-135.6748479913306,204.00327355836555" stroke="#0d6d4d" stroke-width="0.1" fill="none" />
<path d="M-145.5669497938828,197.06664641106877 L-174.72989150449604,171.73952665250667" stroke="#0d6d4d" stroke-width="0.1" fill="none" />
<path d="M-147.50364590193982,195.62125254080945 L-206.3147168060889,132.1334084523037" stroke="#0d6d4d" stroke-width="0.1" fill="none" />
<path d="M-149.42599107801786,194.15682627801715 L-229.0789794579266,86.8781973254213" stroke="#0d6d4d" stroke-width="0.1" fill="none" />
<path d="M-151.3337982932153,192.67351009972393 L-242.04944009054287,37.90868702361893" stroke="#0d6d4d" stroke-width="0.1" fill="none" />
<path d="M-153.22688193305888,191.17144832080035 L-244.67157325671175,-12.68153145663132" stroke="#0d6d4d" stroke-width="0.1" fill="none" />
<path d="M-155.10505781556162,189.65078707991506 L-236.83327502983875,-62.729577064099125" stroke="#0d6d4d" stroke-width="0.1" fill="none" />
<path d="M-156.9681432091434,188.11167432531627 L-218.869655777463,-110.09574823695444" stroke="#0d6d4d" stroke-width="0.1" fill="none" />
<path d="M-158.8159568504081,186.554259800438 L-191.54871320466734,-152.75500145538967" stroke="#0d6d4d" stroke-width="0.1" fill="none" />
<path d="M-160.6483189617802,184.9786950293307 L-156.03849818704785,-188.88352782477" stroke="#0d6d4d" stroke-width="0.1" fill="none" />
<path d="M-162.46505126899476,183.3851333019198 L-113.85717715072325,-216.93672628503646" stroke="#0d6d4d" stroke-width="0.1" fill="none" />
<path d="M-164.26597701844287,181.77372965909126 L-66.80812597992609,-235.71523986168208" stroke="#0d6d4d" stroke-width="0.1" fill="none" />
<path d="M-166.05092099436771,180.1446408776077 L-16.902830379059683,-244.41623171380564" stroke="#0d6d4d" stroke-width="0.1" fill="none" />
<path d="M-167.81970953591224,178.49802545485497 L33.72511107385621,-242.667708776953" stroke="#0d6d4d" stroke-width="0.1" fill="none" />
<path d="M-169.5721705540145,176.83404359342185 L82.91120455924926,-230.54442556378223" stroke="#0d6d4d" stroke-width="0.1" fill="none" />
<path d="M-171.30813354815075,175.15285718551365 L128.55259951075698,-208.56468818816606" stroke="#0d6d4d" stroke-width="0.1" fill="none" />
<path d="M-173.0274296229241,173.454629797201 L168.69799167910287,-177.66819525012727" stroke="#0d6d4d" stroke-width="0.1" fill="none" />
<path d="M-174.72989150449604,171.73952665250667 L201.6310471439458,-139.1758629491332" stroke="#0d6d4d" stroke-width="0.1" fill="none" />
<path d="M-176.41535355686148,170.00771461733012 L225.9437806511435,-94.73335202064762" stroke="#0d6d4d" stroke-width="0.1" fill="none" />
<path d="M-178.08365179796334,168.25936218321328 L240.59675113509044,-46.24071088596459" stroke="#0d6d4d" stroke-width="0.1" fill="none" />
<path d="M-179.73462391564718,166.4946394509471 L244.9635008900081,4.228857021820171" stroke="#0d6d4d" stroke-width="0.1" fill="none" />
<path d="M-181.36810928345224,164.7137181140227 L238.85733848454677,54.517628819297016" stroke="#0d6d4d" stroke-width="0.1" fill="none" />
<path d="M-182.98394897623987,162.91677144192627 L222.5393203711047,102.4756111900135" stroke="#0d6d4d" stroke-width="0.1" fill="none" />
<path d="M-184.58198578565498,161.1039742632821 L196.70708995252622,146.0524589399602" stroke="#0d6d4d" stroke-width="0.1" fill="none" />
<path d="M-186.16206423542184,159.2755029488423 L162.4650512689948,183.38513330191978" stroke="#0d6d4d" stroke-width="0.1" fill="none" />
<path d="M-187.72403059646985,157.4315353943283 L121.27715246797747,212.87755233762655" stroke="#0d6d4d" stroke-width="0.1" fill="none" />
<path d="M-189.26773290189107,155.5722510031221 L74.90429770313945,233.26882814812495" stroke="#0d6d4d" stroke-width="0.1" fill="none" />
<path d="M-190.7930209617249,153.69783066881197 L25.329063288150742,243.6871735503222" stroke="#0d6d4d" stroke-width="0.1" fill="none" />
<path d="M-192.29974637756996,151.80845675759394 L-25.32906328815068,243.68717355032223" stroke="#0d6d4d" stroke-width="0.1" fill="none" />
<path d="M-193.78776255702343,149.90431309052687 L-74.9042977031394,233.26882814812498" stroke="#0d6d4d" stroke-width="0.1" fill="none" />
<path d="M-195.25692472794154,147.9855849256507 L-121.27715246797743,212.8775523376266" stroke="#0d6d4d" stroke-width="0.1" fill="none" />
<path d="M-196.70708995252625,146.05245893996016 L-162.46505126899476,183.3851333019198" stroke="#0d6d4d" stroke-width="0.1" fill="none" />
<path d="M-198.1381171412308,144.10512321124432 L-196.70708995252625,146.05245893996016" stroke="#0d6d4d" stroke-width="0.1" fill="none" />
<path d="M-199.54986706648793,142.1437671997861 L-222.53932037110468,102.47561119001355" stroke="#0d6d4d" stroke-width="0.1" fill="none" />
<path d="M-200.94220237625424,140.16858172993147 L-238.85733848454677,54.51762881929707" stroke="#0d6d4d" stroke-width="0.1" fill="none" />
<path d="M-202.31498760737406,138.17975897152257 L-244.9635008900081,4.228857021820176" stroke="#0d6d4d" stroke-width="0.1" fill="none" />
<path d="M-203.66808919875925,136.17749242120098 L-240.59675113509041,-46.24071088596464" stroke="#0d6d4d" stroke-width="0.1" fill="none" />
<path d="M-205.0013755043831,134.16197688358247 L-225.94378065114356,-94.73335202064752" stroke="#0d6d4d" stroke-width="0.1" fill="none" />
<path d="M-206.3147168060889,132.1334084523037 L-201.63104714394586,-139.17586294913312" stroke="#0d6d4d" stroke-width="0.1" fill="none" />
<path d="M-207.60798532620973,130.09198449094507 L-168.6979916791029,-177.66819525012724" stroke="#0d6d4d" stroke-width="0.1" fill="none" />
<path d="M-208.88105524000144,128.03790361382624 L-128.55259951075695,-208.56468818816606" stroke="#0d6d4d" stroke-width="0.1" fill="none" />
<path d="M-210.13380268788308,125.97136566668567 L-82.91120455924938,-230.54442556378217" stroke="#0d6d4d" stroke-width="0.1" fill="none" />
<path d="M-211.36610578748835,123.89257170723462 L-33.725111073856304,-242.66770877695296" stroke="#0d6d4d" stroke-width="0.1" fill="none" />
<path d="M-212.57784464552321,121.80172398559799 L16.90283037905961,-244.41623171380567" stroke="#0d6d4d" stroke-width="0.1" fill="none" />
<path d="M-213.76890136943143,119.69902592463441 L66.80812597992598,-235.71523986168214" stroke="#0d6d4d" stroke-width="0.1" fill="none" />
<path d="M-214.93916007886332,117.58468210014756 L113.85717715072329,-216.93672628503643" stroke="#0d6d4d" stroke-width="0.1" fill="none" />
<path d="M-216.0885069169509,115.45889822098108 L156.03849818704785,-188.88352782477" stroke="#0d6d4d" stroke-width="0.1" fill="none" />
<path d="M-217.21683006138502,113.32188110900465 L191.54871320466728,-152.75500145538973" stroke="#0d6d4d" stroke-width="0.1" fill="none" />
<path d="M-218.32401973529483,111.1738386789923 L218.86965577746298,-110.09574823695453" stroke="#0d6d4d" stroke-width="0.1" fill="none" />
<path d="M-219.4099682179281,109.01497991839369 L236.83327502983877,-62.72957706409907" stroke="#0d6d4d" stroke-width="0.1" fill="none" />
<path d="M-220.4745698551314,106.84551486700224 L244.67157325671175,-12.681531456631326" stroke="#0d6d4d" stroke-width="0.1" fill="none" />
<path d="M-221.5177210696301,104.66565459651774 L242.04944009054287,37.908687023618874" stroke="#0d6d4d" stroke-width="0.1" fill="none" />
<path d="M-222.53932037110468,102.47561119001355 L229.07897945792666,86.87819732542118" stroke="#0d6d4d" stroke-width="0.1" fill="none" />
<path d="M-223.53926836606578,100.27559772130019 L206.3147168060889,132.13340845230374" stroke="#0d6d4d" stroke-width="0.1" fill="none" />
<path d="M-224.51746776752356,98.06582823419696 L174.7298915044961,171.73952665250658" stroke="#0d6d4d" stroke-width="0.1" fill="none" />
<path d="M-225.47382340445404,95.8465177217048 L135.67484799133064,204.00327355836552" stroke="#0d6d4d" stroke-width="0.1" fill="none" />
<path d="M-226.40824223105736,93.61788210509177 L90.81930456604154,227.54527883069906" stroke="#0d6d4d" stroke-width="0.1" fill="none" />
<path d="M-227.3206333358109,91.38013821288416 L42.0809680073627,241.35905230913409" stroke="#0d6d4d" stroke-width="0.1" fill="none" />
<path d="M-228.21090795031455,89.13350375977073 L-8.45645404757847,244.85401443501226" stroke="#0d6d4d" stroke-width="0.1" fill="none" />
<path d="M-229.0789794579266,86.8781973254213 L-58.63233775045168,237.88074526938274" stroke="#0d6d4d" stroke-width="0.1" fill="none" />
<path d="M-229.92476340219133,84.61443833322028 L-106.30151608380172,220.7373726360927" stroke="#0d6d4d" stroke-width="0.1" fill="none" />
<path d="M-230.74817749505536,82.34244702891964 L-149.42599107801786,194.15682627801715" stroke="#0d6d4d" stroke-width="0.1" fill="none" />
<path d="M-231.5491416248745,80.06244445920836 L-186.16206423542184,159.2755029488423" stroke="#0d6d4d" stroke-width="0.1" fill="none" />
<path d="M-232.32757786420694,77.77465245020936 L-214.93916007886332,117.58468210014756" stroke="#0d6d4d" stroke-width="0.1" fill="none" />
<path d="M-233.083410477396,75.47929358589495 L-234.52697288563584,70.86676928645913" stroke="#0d6d4d" stroke-width="0.1" fill="none" />
<path d="M-233.8165659279376,73.17659118643341 L-244.08806588579645,21.11909307075198" stroke="#0d6d4d" stroke-width="0.1" fill="none" />
<path d="M-234.52697288563584,70.86676928645913 L-243.2136741540232,-29.531486662554187" stroke="#0d6d4d" stroke-width="0.1" fill="none" />
<path d="M-235.2145622335419,68.5500526132785 L-231.9411805157875,-78.91950824063008" stroke="#0d6d4d" stroke-width="0.1" fill="none" />
<path d="M-235.87926707467898,66.2266665650044 L-210.75251732130772,-124.93348807558321" stroke="#0d6d4d" stroke-width="0.1" fill="none" />
<path d="M-236.521022738551,63.896837188626385 L-180.55356241616255,-165.60619281546477" stroke="#0d6d4d" stroke-width="0.1" fill="none" />
<path d="M-237.13976678743444,61.56079115801884 L-142.63541019158882,-199.19874437224047" stroke="#0d6d4d" stroke-width="0.1" fill="none" />
<path d="M-237.73543902245277,59.218755751887 L-98.61917349129219,-224.2749620887147" stroke="#0d6d4d" stroke-width="0.1" fill="none" />
<path d="M-238.30798148943342,56.87095883165551 L-50.38667625605457,-239.76276369750903" stroke="#0d6d4d" stroke-width="0.1" fill="none" />
<path d="M-238.85733848454677,54.51762881929707 L0.0,-245.0" stroke="#0d6d4d" stroke-width="0.1" fill="none" />
<path d="M-239.38345655972483,52.15899467511176 L50.386676256054464,-239.76276369750903" stroke="#0d6d4d" stroke-width="0.1" fill="none" />
<path d="M-239.88628452786202,49.795285875448414 L98.61917349129205,-224.27496208871474" stroke="#0d6d4d" stroke-width="0.1" fill="none" />
<path d="M-240.36577346779475,47.426732390380586 L142.63541019158882,-199.19874437224047" stroke="#0d6d4d" stroke-width="0.1" fill="none" />
<path d="M-240.8218767290617,45.05356466132969 L180.5535624161625,-165.60619281546482" stroke="#0d6d4d" stroke-width="0.1" fill="none" />
<path d="M-241.25454993644178,42.67601357864769 L210.7525173213077,-124.93348807558328" stroke="#0d6d4d" stroke-width="0.1" fill="none" />
<path d="M-241.663750994272,40.294310459151795 L231.94118051578747,-78.91950824063018" stroke="#0d6d4d" stroke-width="0.1" fill="none" />
<path d="M-242.04944009054287,37.90868702361893 L243.2136741540232,-29.531486662554137" stroke="#0d6d4d" stroke-width="0.1" fill="none" />
<path d="M-242.41157970077194,35.519375374241854 L244.08806588579648,21.11909307075176" stroke="#0d6d4d" stroke-width="0.1" fill="none" />
<path d="M-242.75013459165436,33.12660797204696 L234.52697288563587,70.86676928645907" stroke="#0d6d4d" stroke-width="0.1" fill="none" />
<path d="M-243.06507182449104,30.73061761427859 L214.93916007886327,117.58468210014769" stroke="#0d6d4d" stroke-width="0.1" fill="none" />
<path d="M-243.3563607583932,28.331637411748353 L186.16206423542184,159.2755029488423" stroke="#0d6d4d" stroke-width="0.1" fill="none" />
<path d="M-243.62397305326357,25.929900766156237 L149.4259910780178,194.1568262780172" stroke="#0d6d4d" stroke-width="0.1" fill="none" />
<path d="M-243.86788267255358,23.525641347381985 L106.30151608380177,220.73737263609266" stroke="#0d6d4d" stroke-width="0.1" fill="none" />
<path d="M-244.08806588579645,21.11909307075198 L58.632337750451626,237.88074526938274" stroke="#0d6d4d" stroke-width="0.1" fill="none" />
<path d="M-244.28450127091634,18.71049007427877 L8.45645404757853,244.85401443501226" stroke="#0d6d4d" stroke-width="0.1" fill="none" />
<path d="M-244.4571697163119,16.3000666958841 L-42.08096800736264,241.35905230913409" stroke="#0d6d4d" stroke-width="0.1" fill="none" />
<path d="M-244.60605442271637,13.88805745059819 L-90.8193045660415,227.5452788306991" stroke="#0d6d4d" stroke-width="0.1" fill="none" />
<path d="M-244.7311409048315,11.474697007743057 L-135.6748479913306,204.00327355836555" stroke="#0d6d4d" stroke-width="0.1" fill="none" />
<path d="M-244.83241699273714,9.06022016810173 L-174.72989150449604,171.73952665250667" stroke="#0d6d4d" stroke-width="0.1" fill="none" />
<path d="M-244.90987283307516,6.644861841073534 L-206.3147168060889,132.1334084523037" stroke="#0d6d4d" stroke-width="0.1" fill="none" />
<path d="M-244.9635008900081,4.228857021820176 L-229.0789794579266,86.8781973254213" stroke="#0d6d4d" stroke-width="0.1" fill="none" />
<path d="M-244.99329594595244,1.812440768401257 L-242.04944009054287,37.90868702361893" stroke="#0d6d4d" stroke-width="0.1" fill="none" />
<path d="M-244.99925510208612,-0.604151821094132 L-244.67157325671175,-12.68153145663132" stroke="#0d6d4d" stroke-width="0.1" fill="none" />
<path d="M-244.98137777863062,-3.020685631421017 L-236.83327502983875,-62.729577064099125" stroke="#0d6d4d" stroke-width="0.1" fill="none" />
<path d="M-244.93966571490736,-5.4369255530523 L-218.869655777463,-110.09574823695444" stroke="#0d6d4d" stroke-width="0.1" fill="none" />
<path d="M-244.87412296916852,-7.852636505055442 L-191.54871320466734,-152.75500145538967" stroke="#0d6d4d" stroke-width="0.1" fill="none" />
<path d="M-244.78475591820217,-10.267583457961134 L-156.03849818704785,-188.88352782477" stroke="#0d6d4d" stroke-width="0.1" fill="none" />
<path d="M-244.67157325671175,-12.68153145663132 L-113.85717715072325,-216.93672628503646" stroke="#0d6d4d" stroke-width="0.1" fill="none" />
<path d="M-244.53458599647044,-15.094245643118695 L-66.80812597992609,-235.71523986168208" stroke="#0d6d4d" stroke-width="0.1" fill="none" />
<path d="M-244.37380746524943,-17.505491279515837 L-16.902830379059683,-244.41623171380564" stroke="#0d6d4d" stroke-width="0.1" fill="none" />
<path d="M-244.1892533055215,-19.9150337707938 L33.72511107385621,-242.667708776953" stroke="#0d6d4d" stroke-width="0.1" fill="none" />
<path d="M-243.98094147293907,-22.322638687625467 L82.91120455924926,-230.54442556378223" stroke="#0d6d4d" stroke-width="0.1" fill="none" />
<path d="M-243.74889223458723,-24.728071789194953 L128.55259951075698,-208.56468818816606" stroke="#0d6d4d" stroke-width="0.1" fill="none" />
<path d="M-243.49312816701186,-27.13109904598651 L168.69799167910287,-177.66819525012727" stroke="#0d6d4d" stroke-width="0.1" fill="none" />
<path d="M-243.2136741540232,-29.531486662554187 L201.6310471439458,-139.1758629491332" stroke="#0d6d4d" stroke-width="0.1" fill="none" />
<path d="M-242.91055738427494,-31.92900110026738 L225.9437806511435,-94.73335202064762" stroke="#0d6d4d" stroke-width="0.1" fill="none" />
<path d="M-242.58380734861865,-34.3234091000336 L240.59675113509044,-46.24071088596459" stroke="#0d6d4d" stroke-width="0.1" fill="none" />
<path d="M-242.2334558372349,-36.71447770499206 L244.9635008900081,4.228857021820171" stroke="#0d6d4d" stroke-width="0.1" fill="none" />
<path d="M-241.85953693654028,-39.10197428317792 L238.85733848454677,54.517628819297016" stroke="#0d6d4d" stroke-width="0.1" fill="none" />
<path d="M-241.4620870258708,-41.48566655015675 L222.5393203711047,102.4756111900135" stroke="#0d6d4d" stroke-width="0.1" fill="none" />
<path d="M-241.04114477394276,-43.86532259162317 L196.70708995252622,146.0524589399602" stroke="#0d6d4d" stroke-width="0.1" fill="none" />
<path d="M-240.59675113509041,-46.24071088596464 L162.4650512689948,183.38513330191978" stroke="#0d6d4d" stroke-width="0.1" fill="none" />
<path d="M-240.12894934528165,-48.611600326785855 L121.27715246797747,212.87755233762655" stroke="#0d6d4d" stroke-width="0.1" fill="none" />
<path d="M-239.63778491791115,-50.97776024539484 L74.90429770313945,233.26882814812495" stroke="#0d6d4d" stroke-width="0.1" fill="none" />
<path d="M-239.1233056393726,-53.3389604332443 L25.329063288150742,243.6871735503222" stroke="#0d6d4d" stroke-width="0.1" fill="none" />
<path d="M-238.58556156440923,-55.69497116432951 L-25.32906328815068,243.68717355032223" stroke="#0d6d4d" stroke-width="0.1" fill="none" />
<path d="M-238.02460501124415,-58.045563217538025 L-74.9042977031394,233.26882814812498" stroke="#0d6d4d" stroke-width="0.1" fill="none" />
<path d="M-237.44049055648992,-60.39050789895229 L-121.27715246797743,212.8775523376266" stroke="#0d6d4d" stroke-width="0.1" fill="none" />
<path d="M-236.83327502983875,-62.729577064099125 L-162.46505126899476,183.3851333019198" stroke="#0d6d4d" stroke-width="0.1" fill="none" />
<path d="M-236.2030175085337,-65.06254314014572 L-196.70708995252625,146.05245893996016" stroke="#0d6d4d" stroke-width="0.1" fill="none" />
<path d="M-235.54977931162045,-67.38917914804196 L-222.53932037110468,102.47561119001355" stroke="#0d6d4d" stroke-width="0.1" fill="none" />
<path d="M-234.8736239939819,-69.70925872460285 L-238.85733848454677,54.51762881929707" stroke="#0d6d4d" stroke-width="0.1" fill="none" />
<path d="M-234.17461734015436,-72.02255614453219 L-244.9635008900081,4.228857021820176" stroke="#0d6d4d" stroke-width="0.1" fill="none" />
<path d="M-233.45282735792773,-74.32884634238309 L-240.59675113509041,-46.24071088596464" stroke="#0d6d4d" stroke-width="0.1" fill="none" />
<path d="M-232.7083242717285,-76.6279049344563 L-225.94378065114356,-94.73335202064752" stroke="#0d6d4d" stroke-width="0.1" fill="none" />
<path d="M-231.9411805157875,-78.91950824063008 L-201.63104714394586,-139.17586294913312" stroke="#0d6d4d" stroke-width="0.1" fill="none" />
<path d="M-231.1514707270928,-81.20343330612296 L-168.6979916791029,-177.66819525012724" stroke="#0d6d4d" stroke-width="0.1" fill="none" />
<path d="M-230.33927173812816,-83.47945792318463 L-128.55259951075695,-208.56468818816606" stroke="#0d6d4d" stroke-width="0.1" fill="none" />
<path d="M-229.50466256939754,-85.74736065271617 L-82.91120455924938,-230.54442556378217" stroke="#0d6d4d" stroke-width="0.1" fill="none" />
<path d="M-228.64772442173717,-88.0069208458138 L-33.725111073856304,-242.66770877695296" stroke="#0d6d4d" stroke-width="0.1" fill="none" />
<path d="M-227.76854066841568,-90.25791866523552 L16.90283037905961,-244.41623171380567" stroke="#0d6d4d" stroke-width="0.1" fill="none" />
<path d="M-226.867196847022,-92.50013510679089 L66.80812597992598,-235.71523986168214" stroke="#0d6d4d" stroke-width="0.1" fill="none" />
<path d="M-225.94378065114356,-94.73335202064752 L113.85717715072329,-216.93672628503643" stroke="#0d6d4d" stroke-width="0.1" fill="none" />
<path d="M-224.9983819218343,-96.95735213255564 L156.03849818704785,-188.88352782477" stroke="#0d6d4d" stroke-width="0.1" fill="none" />
<path d="M-224.03109263887407,-99.17191906498648 L191.54871320466728,-152.75500145538973" stroke="#0d6d4d" stroke-width="0.1" fill="none" />
<path d="M-223.04200691181933,-101.37683735818521 L218.86965577746298,-110.09574823695453" stroke="#0d6d4d" stroke-width="0.1" fill="none" />
<path d="M-222.03122097084733,-103.57189249113273 L236.83327502983877,-62.72957706409907" stroke="#0d6d4d" stroke-width="0.1" fill="none" />
<path d="M-220.99883315739356,-105.75687090241716 L244.67157325671175,-12.681531456631326" stroke="#0d6d4d" stroke-width="0.1" fill="none" />
<path d="M-219.9449439145841,-107.93156001101093 L242.04944009054287,37.908687023618874" stroke="#0d6d4d" stroke-width="0.1" fill="none" />
<path d="M-218.869655777463,-110.09574823695444 L229.07897945792666,86.87819732542118" stroke="#0d6d4d" stroke-width="0.1" fill="none" />
<path d="M-217.77307336301652,-112.24922502194043 L206.3147168060889,132.13340845230374" stroke="#0d6d4d" stroke-width="0.1" fill="none" />
<path d="M-216.65530335999514,-114.39178084979916 L174.7298915044961,171.73952665250658" stroke="#0d6d4d" stroke-width="0.1" fill="none" />
<path d="M-215.5164545185329,-116.52320726688373 L135.67484799133064,204.00327355836552" stroke="#0d6d4d" stroke-width="0.1" fill="none" />
<path d="M-214.35663763956734,-118.6432969023502 L90.81930456604154,227.54527883069906" stroke="#0d6d4d" stroke-width="0.1" fill="none" />
<path d="M-213.17596556405928,-120.75184348833363 L42.0809680073627,241.35905230913409" stroke="#0d6d4d" stroke-width="0.1" fill="none" />
<path d="M-211.97455316201456,-122.84864188001536 L-8.45645404757847,244.85401443501226" stroke="#0d6d4d" stroke-width="0.1" fill="none" />
<path d="M-210.75251732130772,-124.93348807558321 L-58.63233775045168,237.88074526938274" stroke="#0d6d4d" stroke-width="0.1" fill="none" />
<path d="M-209.5099769363099,-127.0061792360785 L-106.30151608380172,220.7373726360927" stroke="#0d6d4d" stroke-width="0.1" fill="none" />
<path d="M-208.2470528963213,-129.066513705131 L-149.42599107801786,194.15682627801715" stroke="#0d6d4d" stroke-width="0.1" fill="none" />
<path d="M-206.96386807381,-131.11429102857767 L-186.16206423542184,159.2755029488423" stroke="#0d6d4d" stroke-width="0.1" fill="none" />
<path d="M-205.66054731245686,-133.14931197396663 L-214.93916007886332,117.58468210014756" stroke="#0d6d4d" stroke-width="0.1" fill="none" />
<path d="M-204.33721741500943,-135.17137854994 L-234.52697288563584,70.86676928645913" stroke="#0d6d4d" stroke-width="0.1" fill="none" />
<path d="M-202.99400713094542,-137.18029402549652 L-244.08806588579645,21.11909307075198" stroke="#0d6d4d" stroke-width="0.1" fill="none" />
<path d="M-201.63104714394586,-139.17586294913312 L-243.2136741540232,-29.531486662554187" stroke="#0d6d4d" stroke-width="0.1" fill="none" />
<path d="M-200.2484700591809,-141.15789116785973 L-231.9411805157875,-78.91950824063008" stroke="#0d6d4d" stroke-width="0.1" fill="none" />
<path d="M-198.84641039040818,-143.12618584608958 L-210.75251732130772,-124.93348807558321" stroke="#0d6d4d" stroke-width="0.1" fill="none" />
<path d="M-197.4250045468863,-145.0805554843995 L-180.55356241616255,-165.60619281546477" stroke="#0d6d4d" stroke-width="0.1" fill="none" />
<path d="M-195.98439082010245,-147.02080993816264 L-142.63541019158882,-199.19874437224047" stroke="#0d6d4d" stroke-width="0.1" fill="none" />
<path d="M-194.52470937031808,-148.94676043604738 L-98.61917349129219,-224.2749620887147" stroke="#0d6d4d" stroke-width="0.1" fill="none" />
<path d="M-193.046102212933,-150.85821959838262 L-50.38667625605457,-239.76276369750903" stroke="#0d6d4d" stroke-width="0.1" fill="none" />
<path d="M-191.54871320466734,-152.75500145538967 L0.0,-245.0" stroke="#0d6d4d" stroke-width="0.1" fill="none" />
<path d="M-190.0326880295663,-154.6369214652747 L50.386676256054464,-239.76276369750903" stroke="#0d6d4d" stroke-width="0.1" fill="none" />
<path d="M-188.49817418482561,-156.50379653218363 L98.61917349129205,-224.27496208871474" stroke="#0d6d4d" stroke-width="0.1" fill="none" />
<path d="M-186.94532096644224,-158.35544502401518 L142.63541019158882,-199.19874437224047" stroke="#0d6d4d" stroke-width="0.1" fill="none" />
<path d="M-185.37427945468767,-160.19168679009334 L180.5535624161625,-165.60619281546482" stroke="#0d6d4d" stroke-width="0.1" fill="none" />
<path d="M-183.78520249941008,-162.01234317869375 L210.7525173213077,-124.93348807558328" stroke="#0d6d4d" stroke-width="0.1" fill="none" />
<path d="M-182.17824470516265,-163.81723705442562 L231.94118051578747,-78.91950824063018" stroke="#0d6d4d" stroke-width="0.1" fill="none" />
<path d="M-180.55356241616255,-165.60619281546477 L243.2136741540232,-29.531486662554137" stroke="#0d6d4d" stroke-width="0.1" fill="none" />
<path d="M-178.91131370107883,-167.37903641063946 L244.08806588579648,21.11909307075176" stroke="#0d6d4d" stroke-width="0.1" fill="none" />
<path d="M-177.25165833765422,-169.13559535636338 L234.52697288563587,70.86676928645907" stroke="#0d6d4d" stroke-width="0.1" fill="none" />
<path d="M-175.57475779716034,-170.8756987534169 L214.93916007886327,117.58468210014769" stroke="#0d6d4d" stroke-width="0.1" fill="none" />
<path d="M-173.88077522868699,-172.59917730357475 L186.16206423542184,159.2755029488423" stroke="#0d6d4d" stroke-width="0.1" fill="none" />
<path d="M-172.16987544326958,-174.30586332607703 L149.4259910780178,194.1568262780172" stroke="#0d6d4d" stroke-width="0.1" fill="none" />
<path d="M-170.44222489785415,-175.9955907739433 L106.30151608380177,220.73737263609266" stroke="#0d6d4d" stroke-width="0.1" fill="none" />
<path d="M-168.6979916791029,-177.66819525012724 L58.632337750451626,237.88074526938274" stroke="#0d6d4d" stroke-width="0.1" fill="none" />
<path d="M-166.9373454870399,-179.32351402351196 L8.45645404757853,244.85401443501226" stroke="#0d6d4d" stroke-width="0.1" fill="none" />
<path d="M-165.1604576185411,-180.96138604474183 L-42.08096800736264,241.35905230913409" stroke="#0d6d4d" stroke-width="0.1" fill="none" />
<path d="M-163.36750095066836,-182.58165196189174 L-90.8193045660415,227.5452788306991" stroke="#0d6d4d" stroke-width="0.1" fill="none" />
<path d="M-161.55864992385042,-184.18415413596998 L-135.6748479913306,204.00327355836555" stroke="#0d6d4d" stroke-width="0.1" fill="none" />
<path d="M-159.7340805249102,-185.7687366562563 L-174.72989150449604,171.73952665250667" stroke="#0d6d4d" stroke-width="0.1" fill="none" />
<path d="M-157.89397026994342,-187.3352453554702 L-206.3147168060889,132.1334084523037" stroke="#0d6d4d" stroke-width="0.1" fill="none" />
<path d="M-156.03849818704785,-188.88352782477 L-229.0789794579266,86.8781973254213" stroke="#0d6d4d" stroke-width="0.1" fill="none" />
<path d="M-154.1678447989046,-190.41343342858156 L-242.04944009054287,37.90868702361893" stroke="#0d6d4d" stroke-width="0.1" fill="none" />
<path d="M-152.2821921052152,-191.9248133192536 L-244.67157325671175,-12.68153145663132" stroke="#0d6d4d" stroke-width="0.1" fill="none" />
<path d="M-150.38172356499416,-193.41752045153942 L-236.83327502983875,-62.729577064099125" stroke="#0d6d4d" stroke-width="0.1" fill="none" />
<path d="M-148.46662407872066,-194.89140959690306 L-218.869655777463,-110.09574823695444" stroke="#0d6d4d" stroke-width="0.1" fill="none" />
<path d="M-146.53707997034797,-196.3463373576493 L-191.54871320466734,-152.75500145538967" stroke="#0d6d4d" stroke-width="0.1" fill="none" />
<path d="M-144.59327896917654,-197.78216218087488 L-156.03849818704785,-188.88352782477" stroke="#0d6d4d" stroke-width="0.1" fill="none" />
<path d="M-142.63541019158882,-199.19874437224047 L-113.85717715072325,-216.93672628503646" stroke="#0d6d4d" stroke-width="0.1" fill="none" />
<path d="M-140.6636641226507,-200.5959461095615 L-66.80812597992609,-235.71523986168208" stroke="#0d6d4d" stroke-width="0.1" fill="none" />
<path d="M-138.67823259757765,-201.97363145621796 L-16.902830379059683,-244.41623171380564" stroke="#0d6d4d" stroke-width="0.1" fill="none" />
<path d="M-136.6793087830711,-203.33166637437932 L33.72511107385621,-242.667708776953" stroke="#0d6d4d" stroke-width="0.1" fill="none" />
<path d="M-134.66708715852562,-204.66991873804528 L82.91120455924926,-230.54442556378223" stroke="#0d6d4d" stroke-width="0.1" fill="none" />
<path d="M-132.64176349710644,-205.98825834590107 L128.55259951075698,-208.56468818816606" stroke="#0d6d4d" stroke-width="0.1" fill="none" />
<path d="M-130.60353484670287,-207.28655693398468 L168.69799167910287,-177.66819525012727" stroke="#0d6d4d" stroke-width="0.1" fill="none" />
<path d="M-128.55259951075695,-208.56468818816606 L201.6310471439458,-139.1758629491332" stroke="#0d6d4d" stroke-width="0.1" fill="none" />
<path d="M-126.48915702897071,-209.8225277564361 L225.9437806511435,-94.73335202064762" stroke="#0d6d4d" stroke-width="0.1" fill="none" />
<path d="M-124.41340815789151,-211.05995326100566 L240.59675113509044,-46.24071088596459" stroke="#0d6d4d" stroke-width="0.1" fill="none" />
<path d="M-122.32555485138069,-212.2768443102117 L244.9635008900081,4.228857021820171" stroke="#0d6d4d" stroke-width="0.1" fill="none" />
<path d="M-120.22580024096477,-213.4730825102304 L238.85733848454677,54.517628819297016" stroke="#0d6d4d" stroke-width="0.1" fill="none" />
<path d="M-118.11434861607304,-214.6485514765957 L222.5393203711047,102.4756111900135" stroke="#0d6d4d" stroke-width="0.1" fill="none" />
<path d="M-115.99140540416077,-215.80313684552323 L196.70708995252622,146.0524589399602" stroke="#0d6d4d" stroke-width="0.1" fill="none" />
<path d="M-113.85717715072325,-216.93672628503646 L162.4650512689948,183.38513330191978" stroke="#0d6d4d" stroke-width="0.1" fill="none" />
<path d="M-111.71187149920115,-218.04920950589562 L121.27715246797747,212.87755233762655" stroke="#0d6d4d" stroke-width="0.1" fill="none" />
<path d="M-109.55569717077738,-219.1404782723286 L74.90429770313945,233.26882814812495" stroke="#0d6d4d" stroke-width="0.1" fill="none" />
<path d="M-107.38886394407082,-220.21042641256076 L25.329063288150742,243.6871735503222" stroke="#0d6d4d" stroke-width="0.1" fill="none" />
<path d="M-105.21158263472626,-221.25894982914517 L-25.32906328815068,243.68717355032223" stroke="#0d6d4d" stroke-width="0.1" fill="none" />
<path d="M-103.02406507490443,-222.28594650908963 L-74.9042977031394,233.26882814812498" stroke="#0d6d4d" stroke-width="0.1" fill="none" />
<path d="M-100.82652409267126,-223.2913165337828 L-121.27715246797743,212.8775523376266" stroke="#0d6d4d" stroke-width="0.1" fill="none" />
<path d="M-98.61917349129219,-224.2749620887147 L-162.46505126899476,183.3851333019198" stroke="#0d6d4d" stroke-width="0.1" fill="none" />
<path d="M-96.40222802843039,-225.23678747299365 L-196.70708995252625,146.05245893996016" stroke="#0d6d4d" stroke-width="0.1" fill="none" />
<path d="M-94.17590339525337,-226.17669910865686 L-222.53932037110468,102.47561119001355" stroke="#0d6d4d" stroke-width="0.1" fill="none" />
<path d="M-91.94041619544677,-227.0946055497753 L-238.85733848454677,54.51762881929707" stroke="#0d6d4d" stroke-width="0.1" fill="none" />
<path d="M-89.69598392414107,-227.9904174913503 L-244.9635008900081,4.228857021820176" stroke="#0d6d4d" stroke-width="0.1" fill="none" />
<path d="M-87.44282494675173,-228.86404777800234 L-240.59675113509041,-46.24071088596464" stroke="#0d6d4d" stroke-width="0.1" fill="none" />
<path d="M-85.18115847773267,-229.7154114124505 L-225.94378065114356,-94.73335202064752" stroke="#0d6d4d" stroke-width="0.1" fill="none" />
<path d="M-82.91120455924938,-230.54442556378217 L-201.63104714394586,-139.17586294913312" stroke="#0d6d4d" stroke-width="0.1" fill="none" />
<path d="M-80.63318403977003,-231.35100957551185 L-168.6979916791029,-177.66819525012724" stroke="#0d6d4d" stroke-width="0.1" fill="none" />
<path d="M-78.34731855257957,-232.13508497342798 L-128.55259951075695,-208.56468818816606" stroke="#0d6d4d" stroke-width="0.1" fill="none" />
<path d="M-76.05383049421528,-232.8965754732284 L-82.91120455924938,-230.54442556378217" stroke="#0d6d4d" stroke-width="0.1" fill="none" />
<path d="M-73.75294300283029,-233.63540698794193 L-33.725111073856304,-242.66770877695296" stroke="#0d6d4d" stroke-width="0.1" fill="none" />
<path d="M-71.44487993648345,-234.35150763513656 L16.90283037905961,-244.41623171380567" stroke="#0d6d4d" stroke-width="0.1" fill="none" />
<path d="M-69.12986585136068,-235.04480774391268 L66.80812597992598,-235.71523986168214" stroke="#0d6d4d" stroke-width="0.1" fill="none" />
<path d="M-66.80812597992609,-235.71523986168208 L113.85717715072329,-216.93672628503643" stroke="#0d6d4d" stroke-width="0.1" fill="none" />
<path d="M-64.47988620900935,-236.36273876073022 L156.03849818704785,-188.88352782477" stroke="#0d6d4d" stroke-width="0.1" fill="none" />
<path d="M-62.145373057829325,-236.98724144456222 L191.54871320466728,-152.75500145538973" stroke="#0d6d4d" stroke-width="0.1" fill="none" />
<path d="M-59.80481365595423,-237.58868715403221 L218.86965577746298,-110.09574823695453" stroke="#0d6d4d" stroke-width="0.1" fill="none" />
<path d="M-57.4584357212046,-238.16701737325468 L236.83327502983877,-62.72957706409907" stroke="#0d6d4d" stroke-width="0.1" fill="none" />
<path d="M-55.106467537497785,-238.72217583529752 L244.67157325671175,-12.681531456631326" stroke="#0d6d4d" stroke-width="0.1" fill="none" />
<path d="M-52.74913793263852,-239.25410852765617 L242.04944009054287,37.908687023618874" stroke="#0d6d4d" stroke-width="0.1" fill="none" />
<path d="M-50.38667625605457,-239.76276369750903 L229.07897945792666,86.87819732542118" stroke="#0d6d4d" stroke-width="0.1" fill="none" />
<path d="M-48.01931235648369,-240.2480918567522 L206.3147168060889,132.13340845230374" stroke="#0d6d4d" stroke-width="0.1" fill="none" />
<path d="M-45.647276559610724,-240.71004578681467 L174.7298915044961,171.73952665250658" stroke="#0d6d4d" stroke-width="0.1" fill="none" />
<path d="M-43.27079964565963,-241.14858054325177 L135.67484799133064,204.00327355836552" stroke="#0d6d4d" stroke-width="0.1" fill="none" />
<path d="M-40.89011282693911,-241.56365346011845 L90.81930456604154,227.54527883069906" stroke="#0d6d4d" stroke-width="0.1" fill="none" />
<path d="M-38.50544772534811,-241.95522415412006 L42.0809680073627,241.35905230913409" stroke="#0d6d4d" stroke-width="0.1" fill="none" />
<path d="M-36.11703634984154,-242.32325452854133 L-8.45645404757847,244.85401443501226" stroke="#0d6d4d" stroke-width="0.1" fill="none" />
<path d="M-33.725111073856304,-242.66770877695296 L-58.63233775045168,237.88074526938274" stroke="#0d6d4d" stroke-width="0.1" fill="none" />
<path d="M-31.329904612704127,-242.9885533866953 L-106.30151608380172,220.7373726360927" stroke="#0d6d4d" stroke-width="0.1" fill="none" />
<path d="M-28.931650000929718,-243.28575714213875 L-149.42599107801786,194.15682627801715" stroke="#0d6d4d" stroke-width="0.1" fill="none" />
<path d="M-26.530580569639273,-243.55929112772085 L-186.16206423542184,159.2755029488423" stroke="#0d6d4d" stroke-width="0.1" fill="none" />
<path d="M-24.1269299237979,-243.80912873075968 L-214.93916007886332,117.58468210014756" stroke="#0d6d4d" stroke-width="0.1" fill="none" />
<path d="M-21.720931919502558,-244.03524564404285 L-234.52697288563584,70.86676928645913" stroke="#0d6d4d" stroke-width="0.1" fill="none" />
<path d="M-19.31282064122933,-244.23761986819252 L-244.08806588579645,21.11909307075198" stroke="#0d6d4d" stroke-width="0.1" fill="none" />
<path d="M-16.902830379059683,-244.41623171380564 L-243.2136741540232,-29.531486662554187" stroke="#0d6d4d" stroke-width="0.1" fill="none" />
<path d="M-14.491195605884636,-244.5710638033698 L-231.9411805157875,-78.91950824063008" stroke="#0d6d4d" stroke-width="0.1" fill="none" />
<path d="M-12.078150954593058,-244.70210107295372 L-210.75251732130772,-124.93348807558321" stroke="#0d6d4d" stroke-width="0.1" fill="none" />
<path d="M-9.66393119524439,-244.80933077367288 L-180.55356241616255,-165.60619281546477" stroke="#0d6d4d" stroke-width="0.1" fill="none" />
<path d="M-7.248771212226102,-244.89274247292997 L-142.63541019158882,-199.19874437224047" stroke="#0d6d4d" stroke-width="0.1" fill="none" />
<path d="M-4.832905981402163,-244.95232805542986 L-98.61917349129219,-224.2749620887147" stroke="#0d6d4d" stroke-width="0.1" fill="none" />
<path d="M-2.4165705472513306,-244.9880817239691 L-50.38667625605457,-239.76276369750903" stroke="#0d6d4d" stroke-width="0.1" fill="none" />
</svg>