<?xml version="1.0" encoding="UTF-8"?>
<svg xmlns="http://www.w3.org/2000/svg" xmlns:xlink="http://www.w3.org/1999/xlink"
     width="500.0" height="500" viewBox="-250.0 -250.0 500 500">
<defs>
</defs>
<circle cx="0" cy="0" r="245.0" fill="white" stroke-width="2" stroke="black" />
<path d="M0.0,-245.0 L0.0,-245.0" stroke="#0d6d4d" stroke-width="0.1" fill="none" />
<path d="M18.308872928673942,-244.31493030938913 L36.515355213162735,-242.2635524251565" stroke="#0d6d4d" stroke-width="0.1" fill="none" />
<path d="M36.515355213162735,-242.2635524251565 L72.21501773067153,-234.11533741760448" stroke="#0d6d4d" stroke-width="0.1" fill="none" />
<path d="M54.51762881929702,-238.85733848454677 L106.30151608380174,-220.7373726360927" stroke="#0d6d4d" stroke-width="0.1" fill="none" />
<path d="M72.21501773067153,-234.11533741760448 L138.0134142255874,-202.42849970741875" stroke="#0d6d4d" stroke-width="0.1" fill="none" />
<path d="M89.50855096976677,-228.06406841783004 L166.64232075387525,-179.59770859830746" stroke="#0d6d4d" stroke-width="0.1" fill="none" />
<path d="M106.30151608380174,-220.7373726360927 L191.54871320466728,-152.75500145538973" stroke="#0d6d4d" stroke-width="0.1" fill="none" />
<path d="M122.49999999999999,-212.1762239271875 L212.17622392718746,-122.50000000000003" stroke="#0d6d4d" stroke-width="0.1" fill="none" />
<path d="M138.0134142255874,-202.42849970741875 L228.06406841783004,-89.50855096976677" stroke="#0d6d4d" stroke-width="0.1" fill="none" />
<path d="M152.7550014553897,-191.5487132046673 L238.85733848454677,-54.51762881929704" stroke="#0d6d4d" stroke-width="0.1" fill="none" />
<path d="M166.64232075387525,-179.59770859830746 L244.31493030938913,-18.308872928673974" stroke="#0d6d4d" stroke-width="0.1" fill="none" />
<path d="M179.59770859830743,-166.64232075387528 L244.31493030938913,18.308872928673892" stroke="#0d6d4d" stroke-width="0.1" fill="none" />
<path d="M191.54871320466728,-152.75500145538973 L238.85733848454677,54.517628819297016" stroke="#0d6d4d" stroke-width="0.1" fill="none" />
<path d="M202.42849970741875,-138.0134142255874 L228.06406841783004,89.5085509697668" stroke="#0d6d4d" stroke-width="0.1" fill="none" />
<path d="M212.17622392718746,-122.50000000000003 L212.17622392718752,122.49999999999994" stroke="#0d6d4d" stroke-width="0.1" fill="none" />
<path d="M220.7373726360927,-106.30151608380176 L191.54871320466734,152.75500145538967" stroke="#0d6d4d" stroke-width="0.1" fill="none" />
<path d="M228.06406841783004,-89.50855096976677 L166.64232075387525,179.59770859830746" stroke="#0d6d4d" stroke-width="0.1" fill="none" />
<path d="M234.11533741760448,-72.2150177306715 L138.01341422558735,202.42849970741878" stroke="#0d6d4d" stroke-width="0.1" fill="none" />
<path d="M238.85733848454677,-54.51762881929704 L106.30151608380177,220.73737263609266" stroke="#0d6d4d" stroke-width="0.1" fill="none" />
<path d="M242.2635524251565,-36.515355213162785 L72.21501773067163,234.11533741760445" stroke="#0d6d4d" stroke-width="0.1" fill="none" />
<path d="M244.31493030938913,-18.308872928673974 L36.5153552131628,242.2635524251565" stroke="#0d6d4d" stroke-width="0.1" fill="none" />
<path d="M245.0,-1.5001923289555078e-14 L3.0003846579110155e-14,245.0" stroke="#0d6d4d" stroke-width="0.1" fill="none" />
<path d="M244.31493030938913,18.308872928673892 L-36.515355213162636,242.26355242515652" stroke="#0d6d4d" stroke-width="0.1" fill="none" />
<path d="M242.2635524251565,36.51535521316271 L-72.21501773067146,234.11533741760448" stroke="#0d6d4d" stroke-width="0.1" fill="none" />
<path d="M238.85733848454677,54.517628819297016 L-106.30151608380172,220.7373726360927" stroke="#0d6d4d" stroke-width="0.1" fill="none" />
<path d="M234.11533741760448,72.21501773067153 L-138.0134142255874,202.42849970741875" stroke="#0d6d4d" stroke-width="0.1" fill="none" />
<path d="M228.06406841783004,89.5085509697668 L-166.64232075387528,179.59770859830743" stroke="#0d6d4d" stroke-width="0.1" fill="none" />
<path d="M220.7373726360927,106.30151608380173 L-191.54871320466728,152.75500145538976" stroke="#0d6d4d" stroke-width="0.1" fill="none" />
<path d="M212.17622392718752,122.49999999999994 L-212.1762239271874,122.50000000000011" stroke="#0d6d4d" stroke-width="0.1" fill="none" />
<path d="M202.42849970741875,138.0134142255874 L-228.06406841783004,89.50855096976674" stroke="#0d6d4d" stroke-width="0.1" fill="none" />
<path d="M191.54871320466734,152.75500145538967 L-238.85733848454677,54.51762881929707" stroke="#0d6d4d" stroke-width="0.1" fill="none" />
<path d="M179.5977085983075,166.64232075387523 L-244.31493030938913,18.30887292867406" stroke="#0d6d4d" stroke-width="0.1" fill="none" />
<path d="M166.64232075387525,179.59770859830746 L-244.31493030938913,-18.30887292867397" stroke="#0d6d4d" stroke-width="0.1" fill="none" />
<path d="M152.75500145538973,191.54871320466728 L-238.85733848454677,-54.51762881929698" stroke="#0d6d4d" stroke-width="0.1" fill="none" />
<path d="M138.01341422558735,202.42849970741878 L-228.06406841783001,-89.50855096976687" stroke="#0d6d4d" stroke-width="0.1" fill="none" />
<path d="M122.50000000000009,212.17622392718744 L-212.17622392718758,-122.49999999999983" stroke="#0d6d4d" stroke-width="0.1" fill="none" />
<path d="M106.30151608380177,220.73737263609266 L-191.54871320466734,-152.75500145538967" stroke="#0d6d4d" stroke-width="0.1" fill="none" />
<path d="M89.50855096976673,228.06406841783007 L-166.6423207538752,-179.59770859830755" stroke="#0d6d4d" stroke-width="0.1" fill="none" />
<path d="M72.21501773067163,234.11533741760445 L-138.01341422558758,-202.42849970741864" stroke="#0d6d4d" stroke-width="0.1" fill="none" />
<path d="M54.51762881929705,238.85733848454677 L-106.30151608380179,-220.73737263609266" stroke="#0d6d4d" stroke-width="0.1" fill="none" />
<path d="M36.5153552131628,242.2635524251565 L-72.21501773067165,-234.11533741760445" stroke="#0d6d4d" stroke-width="0.1" fill="none" />
<path d="M18.308872928674045,244.31493030938913 L-36.51535521316294,-242.26355242515646" stroke="#0d6d4d" stroke-width="0.1" fill="none" />
<path d="M3.0003846579110155e-14,245.0 L0.0,-245.0" stroke="#0d6d4d" stroke-width="0.1" fill="none" />
<path d="M-18.308872928673875,244.31493030938913 L36.515355213162735,-242.2635524251565" stroke="#0d6d4d" stroke-width="0.1" fill="none" />
<path d="M-36.515355213162636,242.26355242515652 L72.21501773067153,-234.11533741760448" stroke="#0d6d4d" stroke-width="0.1" fill="none" />
<path d="M-54.517628819297,238.85733848454677 L106.30151608380174,-220.7373726360927" stroke="#0d6d4d" stroke-width="0.1" fill="none" />
<path d="M-72.21501773067146,234.11533741760448 L138.0134142255874,-202.42849970741875" stroke="#0d6d4d" stroke-width="0.1" fill="none" />
<path d="M-89.50855096976679,228.06406841783004 L166.64232075387525,-179.59770859830746" stroke="#0d6d4d" stroke-width="0.1" fill="none" />
<path d="M-106.30151608380172,220.7373726360927 L191.54871320466728,-152.75500145538973" stroke="#0d6d4d" stroke-width="0.1" fill="none" />
<path d="M-122.49999999999994,212.17622392718752 L212.17622392718746,-122.50000000000003" stroke="#0d6d4d" stroke-width="0.1" fill="none" />
<path d="M-138.0134142255874,202.42849970741875 L228.06406841783004,-89.50855096976677" stroke="#0d6d4d" stroke-width="0.1" fill="none" />
<path d="M-152.75500145538967,191.54871320466734 L238.85733848454677,-54.51762881929704" stroke="#0d6d4d" stroke-width="0.1" fill="none" />
<path d="M-166.64232075387528,179.59770859830743 L244.31493030938913,-18.308872928673974" stroke="#0d6d4d" stroke-width="0.1" fill="none" />
<path d="M-179.59770859830743,166.64232075387528 L244.31493030938913,18.308872928673892" stroke="#0d6d4d" stroke-width="0.1" fill="none" />
<path d="M-191.54871320466728,152.75500145538976 L238.85733848454677,54.517628819297016" stroke="#0d6d4d" stroke-width="0.1" fill="none" />
<path d="M-202.42849970741875,138.01341422558738 L228.06406841783004,89.5085509697668" stroke="#0d6d4d" stroke-width="0.1" fill="none" />
<path d="M-212.1762239271874,122.50000000000011 L212.17622392718752,122.49999999999994" stroke="#0d6d4d" stroke-width="0.1" fill="none" />
<path d="M-220.73737263609266,106.30151608380179 L191.54871320466734,152.75500145538967" stroke="#0d6d4d" stroke-width="0.1" fill="none" />
<path d="M-228.06406841783004,89.50855096976674 L166.64232075387525,179.59770859830746" stroke="#0d6d4d" stroke-width="0.1" fill="none" />
<path d="M-234.11533741760445,72.21501773067163 L138.01341422558735,202.42849970741878" stroke="#0d6d4d" stroke-width="0.1" fill="none" />
<path d="M-238.85733848454677,54.51762881929707 L106.30151608380177,220.73737263609266" stroke="#0d6d4d" stroke-width="0.1" fill="none" />
<path d="M-242.2635524251565,36.515355213162714 L72.21501773067163,234.11533741760445" stroke="#0d6d4d" stroke-width="0.1" fill="none" />
<path d="M-244.31493030938913,18.30887292867406 L36.5153552131628,242.2635524251565" stroke="#0d6d4d" stroke-width="0.1" fill="none" />
<path d="M-245.0,4.500576986866523e-14 L3.0003846579110155e-14,245.0" stroke="#0d6d4d" stroke-width="0.1" fill="none" />
<path d="M-244.31493030938913,-18.30887292867397 L-36.515355213162636,242.26355242515652" stroke="#0d6d4d" stroke-width="0.1" fill="none" />
<path d="M-242.26355242515652,-36.515355213162614 L-72.21501773067146,234.11533741760448" stroke="#0d6d4d" stroke-width="0.1" fill="none" />
<path d="M-238.85733848454677,-54.51762881929698 L-106.30151608380172,220.7373726360927" stroke="#0d6d4d" stroke-width="0.1" fill="none" />
<path d="M-234.11533741760448,-72.21501773067156 L-138.0134142255874,202.42849970741875" stroke="#0d6d4d" stroke-width="0.1" fill="none" />
<path d="M-228.06406841783001,-89.50855096976687 L-166.64232075387528,179.59770859830743" stroke="#0d6d4d" stroke-width="0.1" fill="none" />
<path d="M-220.73737263609272,-106.3015160838017 L-191.54871320466728,152.75500145538976" stroke="#0d6d4d" stroke-width="0.1" fill="none" />
<path d="M-212.17622392718758,-122.49999999999983 L-212.1762239271874,122.50000000000011" stroke="#0d6d4d" stroke-width="0.1" fill="none" />
<path d="M-202.4284997074187,-138.01341422558747 L-228.06406841783004,89.50855096976674" stroke="#0d6d4d" stroke-width="0.1" fill="none" />
<path d="M-191.54871320466734,-152.75500145538967 L-238.85733848454677,54.51762881929707" stroke="#0d6d4d" stroke-width="0.1" fill="none" />
<path d="M-179.59770859830758,-166.6423207538751 L-244.31493030938913,18.30887292867406" stroke="#0d6d4d" stroke-width="0.1" fill="none" />
<path d="M-166.6423207538752,-179.59770859830755 L-244.31493030938913,-18.30887292867397" stroke="#0d6d4d" stroke-width="0.1" fill="none" />
<path d="M-152.75500145538976,-191.54871320466728 L-238.85733848454677,-54.51762881929698" stroke="#0d6d4d" stroke-width="0.1" fill="none" />
<path d="M-138.01341422558758,-202.42849970741864 L-228.06406841783001,-89.50855096976687" stroke="#0d6d4d" stroke-width="0.1" fill="none" />
<path d="M-122.50000000000011,-212.1762239271874 L-212.17622392718758,-122.49999999999983" stroke="#0d6d4d" stroke-width="0.1" fill="none" />
<path d="M-106.30151608380179,-220.73737263609266 L-191.54871320466734,-152.75500145538967" stroke="#0d6d4d" stroke-width="0.1" fill="none" />
<path d="M-89.50855096976676,-228.06406841783004 L-166.6423207538752,-179.59770859830755" stroke="#0d6d4d" stroke-width="0.1" fill="none" />
<path d="M-72.21501773067165,-234.11533741760445 L-138.01341422558758,-202.42849970741864" stroke="#0d6d4d" stroke-width="0.1" fill="none" />
<path d="M-54.51762881929709,-238.85733848454677 L-106.30151608380179,-220.73737263609266" stroke="#0d6d4d" stroke-width="0.1" fill="none" />
<path d="M-36.51535521316294,-242.26355242515646 L-72.21501773067165,-234.11533741760445" stroke="#0d6d4d" stroke-width="0.1" fill="none" />
<path d="M-18.308872928673857,-244.31493030938913 L-36.51535521316294,-242.26355242515646" stroke="#0d6d4d" stroke-width="0.1" fill="none" />
</svg>