<?xml version="1.0" encoding="UTF-8"?>
<svg xmlns="http://www.w3.org/2000/svg" xmlns:xlink="http://www.w3.org/1999/xlink"
     width="500.0" height="500" viewBox="-250.0 -250.0 500 500">
<defs>
</defs>
<circle cx="0" cy="0" r="245.0" fill="white" stroke-width="2" stroke="black" />
<path d="M0.0,-245.0 L0.0,-245.0" stroke="#0d6d4d" stroke-width="0.1" fill="none" />
<path d="M2.4590328333055607,-244.98765919434538 L51.259030200366034,-239.57777823270246" stroke="#0d6d4d" stroke-width="0.1" fill="none" />
<path d="M4.917817940518925,-244.95063802061 L100.24918016136075,-223.55111692177928" stroke="#0d6d4d" stroke-width="0.1" fill="none" />
<path d="M7.376107620504137,-244.88894020835392 L144.80199716868478,-197.62940473512592" stroke="#0d6d4d" stroke-width="0.1" fill="none" />
<path d="M9.833654222035209,-244.80257197309314 L182.94543833114184,-162.96001532224517" stroke="#0d6d4d" stroke-width="0.1" fill="none" />
<path d="M12.29021016874482,-244.69154201567343 L212.99115918382827,-121.07752107443036" stroke="#0d6d4d" stroke-width="0.1" fill="none" />
<path d="M14.745527984065479,-244.55586152139378 L233.60924493799638,-73.83576829355273" stroke="#0d6d4d" stroke-width="0.1" fill="none" />
<path d="M17.19936031616062,-244.39554415887963 L243.8870765456768,-23.32582032862252" stroke="#0d6d4d" stroke-width="0.1" fill="none" />
<path d="M19.651459962843145,-244.2106060787057 L243.36972598838966,28.21659923407036" stroke="#0d6d4d" stroke-width="0.1" fill="none" />
<path d="M22.101579896478892,-244.00106591176925 L232.08009277187404,78.5100664819381" stroke="#0d6d4d" stroke-width="0.1" fill="none" />
<path d="M24.549473288872495,-243.7669447674129 L210.5178903244679,125.32843992221117" stroke="#0d6d4d" stroke-width="0.1" fill="none" />
<path d="M26.994893536133187,-243.50826623129828 L179.63752716422192,166.59939626038093" stroke="#0d6d4d" stroke-width="0.1" fill="none" />
<path d="M29.437594283518,-243.22505636302972 L140.805861881418,200.49615771837387" stroke="#0d6d4d" stroke-width="0.1" fill="none" />
<path d="M31.87732945024981,-242.9173436935293 L95.74170182917315,225.51835076297826" stroke="#0d6d4d" stroke-width="0.1" fill="none" />
<path d="M34.31385325430788,-242.58515922216228 L46.43972349369359,240.55841719181078" stroke="#0d6d4d" stroke-width="0.1" fill="none" />
<path d="M36.74692023718821,-242.22853641361442 L-4.917817940518905,244.95063802061" stroke="#0d6d4d" stroke-width="0.1" fill="none" />
<path d="M39.17628528863138,-241.8475111945206 L-56.05768182791763,238.50060022582744" stroke="#0d6d4d" stroke-width="0.1" fill="none" />
<path d="M41.601703671315235,-241.44212194984553 L-104.71626259179328,221.4938020550611" stroke="#0d6d4d" stroke-width="0.1" fill="none" />
<path d="M44.02293104551004,-241.0124095190168 L-148.73978377676892,194.68301600817682" stroke="#0d6d4d" stroke-width="0.1" fill="none" />
<path d="M46.439723493693585,-240.55841719181078 L-186.1796307310707,159.25496884192395" stroke="#0d6d4d" stroke-width="0.1" fill="none" />
<path d="M48.85183754512375,-240.08019070399132 L-215.37860220474056,116.7778134421608" stroke="#0d6d4d" stroke-width="0.1" fill="none" />
<path d="M51.259030200366034,-239.57777823270246 L-235.0442631062906,69.13171761804301" stroke="#0d6d4d" stroke-width="0.1" fill="none" />
<path d="M53.661058955773655,-239.05123039161498 L-244.30615160218085,18.42564216878832" stroke="#0d6d4d" stroke-width="0.1" fill="none" />
<path d="M56.057681827917655,-238.5006002258274 L-242.75430839927893,-33.09600812164178" stroke="#0d6d4d" stroke-width="0.1" fill="none" />
<path d="M58.44865737796462,-237.92594320652236 L-230.45742278733346,-83.15272865168193" stroke="#0d6d4d" stroke-width="0.1" fill="none" />
<path d="M60.833744735999566,-237.3273172253781 L-207.95979224254907,-129.5288570567803" stroke="#0d6d4d" stroke-width="0.1" fill="none" />
<path d="M63.212703625291404,-236.7047825887366 L-176.25723016943635,-170.17164514982613" stroke="#0d6d4d" stroke-width="0.1" fill="none" />
<path d="M65.5852943864988,-236.05840201152824 L-136.75298817739878,-203.282119785662" stroke="#0d6d4d" stroke-width="0.1" fill="none" />
<path d="M67.95127800181378,-235.38824061095366 L-91.1956439058635,-227.3947108720758" stroke="#0d6d4d" stroke-width="0.1" fill="none" />
<path d="M70.31041611904055,-234.6943658999239 L-41.60170367131526,-241.44212194984553" stroke="#0d6d4d" stroke-width="0.1" fill="none" />
<path d="M72.66247107560758,-233.97684778025902 L9.833654222035209,-244.80257197309314" stroke="#0d6d4d" stroke-width="0.1" fill="none" />
<path d="M75.00720592250988,-233.23575853564606 L60.833744735999566,-237.3273172253781" stroke="#0d6d4d" stroke-width="0.1" fill="none" />
<path d="M77.34438444817968,-232.47117282435727 L109.14114908756586,-219.3472351679996" stroke="#0d6d4d" stroke-width="0.1" fill="none" />
<path d="M79.67377120228251,-231.68316767172868 L152.6176349551284,-191.658178799401" stroke="#0d6d4d" stroke-width="0.1" fill="none" />
<path d="M81.99513151943697,-230.87182246240062 L189.33880113022425,-155.48574978617623" stroke="#0d6d4d" stroke-width="0.1" fill="none" />
<path d="M84.30823154285504,-230.03721893232046 L217.67925735526032,-112.43104961380703" stroke="#0d6d4d" stroke-width="0.1" fill="none" />
<path d="M86.61283824790125,-229.1794411605083 L236.38456902910576,-64.39980997583712" stroke="#0d6d4d" stroke-width="0.1" fill="none" />
<path d="M88.90871946556778,-228.2985755605868 L244.62678228954007,-13.518039305534058" stroke="#0d6d4d" stroke-width="0.1" fill="none" />
<path d="M91.19564390586349,-227.3947108720758 L242.04107176389846,37.96208080945191" stroke="#0d6d4d" stroke-width="0.1" fill="none" />
<path d="M93.47338118111439,-226.46793815145244 L228.74188884725083,87.76188401915687" stroke="#0d6d4d" stroke-width="0.1" fill="none" />
<path d="M95.74170182917317,-225.51835076297826 L205.31789573631494,133.67707989932944" stroke="#0d6d4d" stroke-width="0.1" fill="none" />
<path d="M98.00037733653548,-224.54604436929336 L172.8059094541368,173.67532253526602" stroke="#0d6d4d" stroke-width="0.1" fill="none" />
<path d="M100.24918016136075,-223.55111692177928 L132.6450091820822,205.98616831982997" stroke="#0d6d4d" stroke-width="0.1" fill="none" />
<path d="M102.48788375639495,-222.5336686506913 L86.61283824790124,229.17944116050833" stroke="#0d6d4d" stroke-width="0.1" fill="none" />
<path d="M104.71626259179332,-221.49380205506108 L36.7469202371882,242.22853641361442" stroke="#0d6d4d" stroke-width="0.1" fill="none" />
<path d="M106.93409217784048,-220.43162189237077 L-14.745527984065475,244.55586152139378" stroke="#0d6d4d" stroke-width="0.1" fill="none" />
<path d="M109.14114908756586,-219.3472351679996 L-65.58529438649879,236.05840201152827" stroke="#0d6d4d" stroke-width="0.1" fill="none" />
<path d="M111.33721097925199,-218.24075112444407 L-113.5220566188333,217.11228123031273" stroke="#0d6d4d" stroke-width="0.1" fill="none" />
<path d="M113.52205661883343,-217.11228123031268 L-156.43398810449847,188.55611198187566" stroke="#0d6d4d" stroke-width="0.1" fill="none" />
<path d="M115.6954659021843,-215.96193916909644 L-192.42167652530327,151.65387698041732" stroke="#0d6d4d" stroke-width="0.1" fill="none" />
<path d="M117.85721987729177,-214.7898408277163 L-219.89219757504378,108.03898113929948" stroke="#0d6d4d" stroke-width="0.1" fill="none" />
<path d="M120.00710076631351,-213.5961042848485 L-237.6296226235574,59.64195211246609" stroke="#0d6d4d" stroke-width="0.1" fill="none" />
<path d="M122.1448919875171,-212.38084979902916 L-244.84883940803712,8.604989281646334" stroke="#0d6d4d" stroke-width="0.1" fill="none" />
<path d="M124.27037817709841,-211.14419979653937 L-241.23030348446954,-42.81285648950244" stroke="#0d6d4d" stroke-width="0.1" fill="none" />
<path d="M126.38334521087805,-209.88627885907175 L-226.9341822344914,-92.33567530246721" stroke="#0d6d4d" stroke-width="0.1" fill="none" />
<path d="M128.48358022587217,-208.60721371117987 L-202.5932653709973,-137.77143690299766" stroke="#0d6d4d" stroke-width="0.1" fill="none" />
<path d="M130.5708716417367,-207.307133207512 L-169.28495574503353,-177.10901659261182" stroke="#0d6d4d" stroke-width="0.1" fill="none" />
<path d="M132.64500918208213,-205.98616831983003 L-128.48358022587234,-208.60721371117975" stroke="#0d6d4d" stroke-width="0.1" fill="none" />
<path d="M134.70578389565725,-204.64445212381517 L-81.99513151943695,-230.87182246240062" stroke="#0d6d4d" stroke-width="0.1" fill="none" />
<path d="M136.75298817739878,-203.282119785662 L-31.877329450249817,-242.9173436935293" stroke="#0d6d4d" stroke-width="0.1" fill="none" />
<path d="M138.78641578934617,-201.89930854846116 L19.651459962843145,-244.2106060787057" stroke="#0d6d4d" stroke-width="0.1" fill="none" />
<path d="M140.80586188141802,-200.49615771837384 L70.31041611904055,-234.6943658999239" stroke="#0d6d4d" stroke-width="0.1" fill="none" />
<path d="M142.81112301204897,-199.07280865059752 L117.85721987729177,-214.7898408277163" stroke="#0d6d4d" stroke-width="0.1" fill="none" />
<path d="M144.80199716868478,-197.62940473512592 L160.18730540654852,-185.37806554872978" stroke="#0d6d4d" stroke-width="0.1" fill="none" />
<path d="M146.7782837881331,-196.16609138230353 L195.4270146564573,-147.76089449669976" stroke="#0d6d4d" stroke-width="0.1" fill="none" />
<path d="M148.73978377676886,-194.68301600817685 L222.01653114891118,-103.60337782429944" stroke="#0d6d4d" stroke-width="0.1" fill="none" />
<path d="M150.68629953059073,-193.18032801964358 L238.77892218915684,-54.86006123022997" stroke="#0d6d4d" stroke-width="0.1" fill="none" />
<path d="M152.6176349551284,-191.658178799401 L244.97223347866048,-3.6884718348721437" stroke="#0d6d4d" stroke-width="0.1" fill="none" />
<path d="M154.53359548519708,-190.11672169069575 L240.3223302640704,47.64638051780085" stroke="#0d6d4d" stroke-width="0.1" fill="none" />
<path d="M156.4339881044985,-188.55611198187563 L225.0350313733537,96.87225946984886" stroke="#0d6d4d" stroke-width="0.1" fill="none" />
<path d="M158.3186213650654,-186.97650689074564 L199.78699904984444,141.81027822642986" stroke="#0d6d4d" stroke-width="0.1" fill="none" />
<path d="M160.18730540654852,-185.37806554872978 L165.69578782779547,180.47134369790177" stroke="#0d6d4d" stroke-width="0.1" fill="none" />
<path d="M162.03985197534297,-183.76094898483996 L124.27037817709846,211.14419979653934" stroke="#0d6d4d" stroke-width="0.1" fill="none" />
<path d="M163.87607444355348,-182.12532010945353 L77.34438444817974,232.47117282435724" stroke="#0d6d4d" stroke-width="0.1" fill="none" />
<path d="M165.69578782779544,-180.47134369790177 L26.99489353613327,243.50826623129825" stroke="#0d6d4d" stroke-width="0.1" fill="none" />
<path d="M167.4988088078303,-178.79918637387001 L-24.5494732888724,243.76694476741292" stroke="#0d6d4d" stroke-width="0.1" fill="none" />
<path d="M169.28495574503356,-177.10901659261177 L-75.0072059225099,233.23575853564606" stroke="#0d6d4d" stroke-width="0.1" fill="none" />
<path d="M171.05404870069313,-175.40100462397845 L-122.14489198751707,212.3808497990292" stroke="#0d6d4d" stroke-width="0.1" fill="none" />
<path d="M172.80590945413675,-173.67532253526605 L-163.87607444355345,182.12532010945353" stroke="#0d6d4d" stroke-width="0.1" fill="none" />
<path d="M174.5403615206862,-171.93214417388089 L-198.35360450785834,143.80837103152274" stroke="#0d6d4d" stroke-width="0.1" fill="none" />
<path d="M176.25723016943635,-170.17164514982613 L-224.0514020661679,99.12602701704725" stroke="#0d6d4d" stroke-width="0.1" fill="none" />
<path d="M177.95634244085795,-168.3940028180104 L-239.83200460997372,50.05606421565274" stroke="#0d6d4d" stroke-width="0.1" fill="none" />
<path d="M179.63752716422192,-166.59939626038093 L-244.99691477916068,-1.2295318998259077" stroke="#0d6d4d" stroke-width="0.1" fill="none" />
<path d="M181.30061497484297,-164.78800626788268 L-239.31751797499,-52.46070520199214" stroke="#0d6d4d" stroke-width="0.1" fill="none" />
<path d="M182.94543833114184,-162.96001532224517 L-223.0452015360472,-101.3698084823292" stroke="#0d6d4d" stroke-width="0.1" fill="none" />
<path d="M184.5718315315236,-161.11560757759895 L-196.90022757171636,-145.79197639858756" stroke="#0d6d4d" stroke-width="0.1" fill="none" />
<path d="M186.17963073107072,-159.25496884192387 L-162.0398519753429,-183.76094898483998" stroke="#0d6d4d" stroke-width="0.1" fill="none" />
<path d="M187.76867395804888,-157.37828655833033 L-120.00710076631368,-213.5961042848484" stroke="#0d6d4d" stroke-width="0.1" fill="none" />
<path d="M189.33880113022425,-155.48574978617623 L-72.66247107560757,-233.97684778025902" stroke="#0d6d4d" stroke-width="0.1" fill="none" />
<path d="M190.88985407099045,-153.57754918202068 L-22.101579896479098,-244.00106591176922" stroke="#0d6d4d" stroke-width="0.1" fill="none" />
<path d="M192.42167652530333,-151.65387698041727 L29.437594283518,-243.22505636302972" stroke="#0d6d4d" stroke-width="0.1" fill="none" />
<path d="M193.9341141754225,-149.71492697454784 L79.67377120228251,-231.68316767172868" stroke="#0d6d4d" stroke-width="0.1" fill="none" />
<path d="M195.4270146564573,-147.76089449669976 L126.38334521087805,-209.88627885907175" stroke="#0d6d4d" stroke-width="0.1" fill="none" />
<path d="M196.90022757171624,-145.79197639858774 L167.4988088078303,-178.79918637387001" stroke="#0d6d4d" stroke-width="0.1" fill="none" />
<path d="M198.35360450785836,-143.8083710315227 L201.20026679568684,-139.79789927371738" stroke="#0d6d4d" stroke-width="0.1" fill="none" />
<path d="M199.78699904984444,-141.8102782264299 L225.99599036553812,-94.6087328881409" stroke="#0d6d4d" stroke-width="0.1" fill="none" />
<path d="M201.20026679568684,-139.79789927371738 L240.78844554125075,-45.231896863033654" stroke="#0d6d4d" stroke-width="0.1" fill="none" />
<path d="M202.5932653709972,-137.7714369029978 L244.92287336408577,6.147040188578833" stroke="#0d6d4d" stroke-width="0.1" fill="none" />
<path d="M203.96585444332896,-135.7310952626654 L238.21627151129792,57.253890586191616" stroke="#0d6d4d" stroke-width="0.1" fill="none" />
<path d="M205.31789573631488,-133.6770798993295 L220.96549453432212,105.82651003034387" stroke="#0d6d4d" stroke-width="0.1" fill="none" />
<path d="M206.6492530435972,-131.60959773710778 L193.93411417542254,149.7149269745478" stroke="#0d6d4d" stroke-width="0.1" fill="none" />
<path d="M207.9597922425491,-129.52885705678028 L158.31862136506544,186.97650689074564" stroke="#0d6d4d" stroke-width="0.1" fill="none" />
<path d="M209.2493813077863,-127.43506747480714 L115.69546590218434,215.9619391690964" stroke="#0d6d4d" stroke-width="0.1" fill="none" />
<path d="M210.5178903244679,-125.32843992221117 L67.95127800181382,235.38824061095366" stroke="#0d6d4d" stroke-width="0.1" fill="none" />
<path d="M211.76519150138373,-123.20918662332883 L17.199360316160575,244.39554415887963" stroke="#0d6d4d" stroke-width="0.1" fill="none" />
<path d="M212.99115918382827,-121.07752107443036 L-34.313853254307915,242.58515922216228" stroke="#0d6d4d" stroke-width="0.1" fill="none" />
<path d="M214.19566986625938,-118.93365802221177 L-84.30823154285497,230.03721893232049" stroke="#0d6d4d" stroke-width="0.1" fill="none" />
<path d="M215.3786022047405,-116.77781344216093 L-130.5708716417367,207.307133207512" stroke="#0d6d4d" stroke-width="0.1" fill="none" />
<path d="M216.53983702916474,-114.61020451680021 L-171.05404870069304,175.40100462397854" stroke="#0d6d4d" stroke-width="0.1" fill="none" />
<path d="M217.67925735526032,-112.43104961380703 L-203.96585444332896,135.7310952626654" stroke="#0d6d4d" stroke-width="0.1" fill="none" />
<path d="M218.79674839637585,-110.24056826401527 L-227.84951246557247,90.05331570353715" stroke="#0d6d4d" stroke-width="0.1" fill="none" />
<path d="M219.89219757504384,-108.0389811392994 L-241.64785958039596,40.38950309440863" stroke="#0d6d4d" stroke-width="0.1" fill="none" />
<path d="M220.96549453432212,-105.82651003034384 L-244.75013906878937,-11.062071497159362" stroke="#0d6d4d" stroke-width="0.1" fill="none" />
<path d="M222.01653114891118,-103.60337782429944 L-237.0190346256898,-62.024005232700425" stroke="#0d6d4d" stroke-width="0.1" fill="none" />
<path d="M223.0452015360471,-101.36980848232936 L-218.7967483963759,-110.24056826401515" stroke="#0d6d4d" stroke-width="0.1" fill="none" />
<path d="M224.05140206616792,-99.12602701704718 L-190.8898540709904,-153.57754918202073" stroke="#0d6d4d" stroke-width="0.1" fill="none" />
<path d="M225.03503137335366,-96.87225946984887 L-154.5335954851972,-190.1167216906957" stroke="#0d6d4d" stroke-width="0.1" fill="none" />
<path d="M225.99599036553812,-94.6087328881409 L-111.33721097925194,-218.2407511244441" stroke="#0d6d4d" stroke-width="0.1" fill="none" />
<path d="M226.93418223449143,-92.33567530246717 L-63.21270362529156,-236.70478258873658" stroke="#0d6d4d" stroke-width="0.1" fill="none" />
<path d="M227.8495124655725,-90.05331570353712 L-12.290210168744792,-244.69154201567343" stroke="#0d6d4d" stroke-width="0.1" fill="none" />
<path d="M228.74188884725083,-87.7618840191569 L39.17628528863138,-241.8475111945206" stroke="#0d6d4d" stroke-width="0.1" fill="none" />
<path d="M229.61122148039587,-85.46161109106593 L88.90871946556778,-228.2985755605868" stroke="#0d6d4d" stroke-width="0.1" fill="none" />
<path d="M230.45742278733348,-83.15272865168187 L134.70578389565725,-204.64445212381517" stroke="#0d6d4d" stroke-width="0.1" fill="none" />
<path d="M231.28040752066877,-80.83546930075545 L174.5403615206862,-171.93214417388089" stroke="#0d6d4d" stroke-width="0.1" fill="none" />
<path d="M232.08009277187404,-78.51006648193811 L206.6492530435972,-131.60959773710778" stroke="#0d6d4d" stroke-width="0.1" fill="none" />
<path d="M232.85639797964092,-76.17675445926454 L229.61122148039587,-85.46161109106593" stroke="#0d6d4d" stroke-width="0.1" fill="none" />
<path d="M233.60924493799638,-73.83576829355273 L242.40990042228202,-35.53083417623797" stroke="#0d6d4d" stroke-width="0.1" fill="none" />
<path d="M234.33855780418125,-71.48734381872363 L244.47878149740794,15.97264528945222" stroke="#0d6d4d" stroke-width="0.1" fill="none" />
<path d="M235.04426310629063,-69.13171761804293 L235.72628975067576,66.76912700028703" stroke="#0d6d4d" stroke-width="0.1" fill="none" />
<path d="M235.72628975067573,-66.76912700028711 L216.5398370291648,114.61020451680015" stroke="#0d6d4d" stroke-width="0.1" fill="none" />
<path d="M236.38456902910576,-64.39980997583712 L187.76867395804896,157.37828655833027" stroke="#0d6d4d" stroke-width="0.1" fill="none" />
<path d="M237.01903462568978,-62.02400523270053 L150.68629953059073,193.18032801964358" stroke="#0d6d4d" stroke-width="0.1" fill="none" />
<path d="M237.62962262355742,-59.64195211246601 L106.9340921778405,220.43162189237077" stroke="#0d6d4d" stroke-width="0.1" fill="none" />
<path d="M238.21627151129792,-57.253890586191645 L58.44865737796465,237.92594320652236" stroke="#0d6d4d" stroke-width="0.1" fill="none" />
<path d="M238.77892218915684,-54.86006123022997 L7.37610762050418,244.88894020835392" stroke="#0d6d4d" stroke-width="0.1" fill="none" />
<path d="M239.31751797499004,-52.460705201992035 L-44.022931045509985,241.0124095190168" stroke="#0d6d4d" stroke-width="0.1" fill="none" />
<path d="M239.8320046099737,-50.05606421565286 L-93.47338118111432,226.46793815145247" stroke="#0d6d4d" stroke-width="0.1" fill="none" />
<path d="M240.3223302640704,-47.64638051780088 L-138.7864157893462,201.89930854846114" stroke="#0d6d4d" stroke-width="0.1" fill="none" />
<path d="M240.78844554125075,-45.231896863033654 L-177.9563424408579,168.39400281801045" stroke="#0d6d4d" stroke-width="0.1" fill="none" />
<path d="M241.23030348446952,-42.81285648950261 L-209.24938130778634,127.43506747480713" stroke="#0d6d4d" stroke-width="0.1" fill="none" />
<path d="M241.64785958039596,-40.389503094408596 L-231.28040752066877,80.83546930075546" stroke="#0d6d4d" stroke-width="0.1" fill="none" />
<path d="M242.04107176389846,-37.96208080945193 L-243.0742609987919,30.657847933134292" stroke="#0d6d4d" stroke-width="0.1" fill="none" />
<path d="M242.40990042228202,-35.53083417623797 L-244.10890999481373,-20.87678282551986" stroke="#0d6d4d" stroke-width="0.1" fill="none" />
<path d="M242.7543083992789,-33.096008121641944 L-234.33855780418125,-71.48734381872359" stroke="#0d6d4d" stroke-width="0.1" fill="none" />
<path d="M243.0742609987919,-30.657847933134256 L-214.19566986625946,-118.93365802221166" stroke="#0d6d4d" stroke-width="0.1" fill="none" />
<path d="M243.36972598838963,-28.21659923407039 L-184.57183153152369,-161.1156075775989" stroke="#0d6d4d" stroke-width="0.1" fill="none" />
<path d="M243.6406736025536,-25.772507958946264 L-146.77828378813322,-196.16609138230345" stroke="#0d6d4d" stroke-width="0.1" fill="none" />
<path d="M243.8870765456768,-23.32582032862252 L-102.4878837563949,-222.53366865069134" stroke="#0d6d4d" stroke-width="0.1" fill="none" />
<path d="M244.10890999481373,-20.876782825519918 L-53.66105895577381,-239.05123039161495" stroke="#0d6d4d" stroke-width="0.1" fill="none" />
<path d="M244.30615160218085,-18.425642168788396 L-2.4590328333055167,-244.98765919434538" stroke="#0d6d4d" stroke-width="0.1" fill="none" />
<path d="M244.47878149740794,-15.972645289452302 L48.85183754512375,-240.08019070399132" stroke="#0d6d4d" stroke-width="0.1" fill="none" />
<path d="M244.62678228954007,-13.518039305534058 L98.00037733653548,-224.54604436929336" stroke="#0d6d4d" stroke-width="0.1" fill="none" />
<path d="M244.75013906878937,-11.062071497159476 L142.81112301204897,-199.07280865059752" stroke="#0d6d4d" stroke-width="0.1" fill="none" />
<path d="M244.84883940803712,-8.604989281646196 L181.30061497484297,-164.78800626788268" stroke="#0d6d4d" stroke-width="0.1" fill="none" />
<path d="M244.92287336408577,-6.147040188578864 L211.76519150138373,-123.20918662332883" stroke="#0d6d4d" stroke-width="0.1" fill="none" />
<path d="M244.97223347866048,-3.6884718348721437 L232.85639797964092,-76.17675445926454" stroke="#0d6d4d" stroke-width="0.1" fill="none" />
<path d="M244.99691477916068,-1.2295318998260223 L243.6406736025536,-25.772507958946264" stroke="#0d6d4d" stroke-width="0.1" fill="none" />
<path d="M244.99691477916068,1.229531899825992 L243.6406736025536,25.772507958946292" stroke="#0d6d4d" stroke-width="0.1" fill="none" />
<path d="M244.97223347866048,3.688471834872114 L232.85639797964095,76.17675445926452" stroke="#0d6d4d" stroke-width="0.1" fill="none" />
<path d="M244.92287336408577,6.147040188578833 L211.7651915013837,123.20918662332889" stroke="#0d6d4d" stroke-width="0.1" fill="none" />
<path d="M244.84883940803712,8.60498928164622 L181.30061497484297,164.7880062678827" stroke="#0d6d4d" stroke-width="0.1" fill="none" />
<path d="M244.75013906878937,11.062071497159392 L142.81112301204897,199.07280865059752" stroke="#0d6d4d" stroke-width="0.1" fill="none" />
<path d="M244.6267822895401,13.518039305533973 L98.00037733653548,224.54604436929336" stroke="#0d6d4d" stroke-width="0.1" fill="none" />
<path d="M244.47878149740794,15.97264528945222 L48.851837545123864,240.0801907039913" stroke="#0d6d4d" stroke-width="0.1" fill="none" />
<path d="M244.30615160218085,18.425642168788368 L-2.4590328333055353,244.98765919434538" stroke="#0d6d4d" stroke-width="0.1" fill="none" />
<path d="M244.10890999481373,20.876782825519893 L-53.66105895577362,239.05123039161498" stroke="#0d6d4d" stroke-width="0.1" fill="none" />
<path d="M243.8870765456768,23.325820328622545 L-102.48788375639501,222.53366865069128" stroke="#0d6d4d" stroke-width="0.1" fill="none" />
<path d="M243.6406736025536,25.772507958946292 L-146.77828378813308,196.16609138230356" stroke="#0d6d4d" stroke-width="0.1" fill="none" />
<path d="M243.36972598838966,28.21659923407036 L-184.57183153152366,161.11560757759895" stroke="#0d6d4d" stroke-width="0.1" fill="none" />
<path d="M243.0742609987919,30.65784793313423 L-214.1956698662594,118.93365802221176" stroke="#0d6d4d" stroke-width="0.1" fill="none" />
<path d="M242.7543083992789,33.096008121641916 L-234.33855780418125,71.48734381872366" stroke="#0d6d4d" stroke-width="0.1" fill="none" />
<path d="M242.40990042228202,35.530834176237995 L-244.10890999481373,20.87678282551995" stroke="#0d6d4d" stroke-width="0.1" fill="none" />
<path d="M242.04107176389846,37.96208080945191 L-243.0742609987919,-30.657847933134196" stroke="#0d6d4d" stroke-width="0.1" fill="none" />
<path d="M241.64785958039596,40.38950309440851 L-231.2804075206688,-80.83546930075539" stroke="#0d6d4d" stroke-width="0.1" fill="none" />
<path d="M241.23030348446952,42.81285648950252 L-209.2493813077864,-127.43506747480704" stroke="#0d6d4d" stroke-width="0.1" fill="none" />
<path d="M240.78844554125075,45.231896863033626 L-177.95634244085807,-168.3940028180103" stroke="#0d6d4d" stroke-width="0.1" fill="none" />
<path d="M240.3223302640704,47.64638051780085 L-138.7864157893461,-201.89930854846122" stroke="#0d6d4d" stroke-width="0.1" fill="none" />
<path d="M239.8320046099737,50.05606421565289 L-93.4733811811145,-226.4679381514524" stroke="#0d6d4d" stroke-width="0.1" fill="none" />
<path d="M239.31751797499004,52.46070520199206 L-44.02293104551018,-241.01240951901678" stroke="#0d6d4d" stroke-width="0.1" fill="none" />
<path d="M238.77892218915687,54.860061230229945 L7.376107620504137,-244.88894020835392" stroke="#0d6d4d" stroke-width="0.1" fill="none" />
<path d="M238.21627151129792,57.253890586191616 L58.44865737796462,-237.92594320652236" stroke="#0d6d4d" stroke-width="0.1" fill="none" />
<path d="M237.62962262355745,59.64195211246598 L106.93409217784048,-220.43162189237077" stroke="#0d6d4d" stroke-width="0.1" fill="none" />
<path d="M237.01903462568978,62.0240052327005 L150.68629953059073,-193.18032801964358" stroke="#0d6d4d" stroke-width="0.1" fill="none" />
<path d="M236.3845690291058,64.39980997583709 L187.76867395804888,-157.37828655833033" stroke="#0d6d4d" stroke-width="0.1" fill="none" />
<path d="M235.72628975067576,66.76912700028703 L216.53983702916474,-114.61020451680021" stroke="#0d6d4d" stroke-width="0.1" fill="none" />
<path d="M235.04426310629066,69.13171761804284 L235.72628975067573,-66.76912700028711" stroke="#0d6d4d" stroke-width="0.1" fill="none" />
<path d="M234.33855780418125,71.48734381872362 L244.47878149740794,-15.972645289452302" stroke="#0d6d4d" stroke-width="0.1" fill="none" />
<path d="M233.60924493799638,73.83576829355275 L242.40990042228202,35.530834176237995" stroke="#0d6d4d" stroke-width="0.1" fill="none" />
<path d="M232.85639797964095,76.17675445926452 L229.61122148039587,85.4616110910659" stroke="#0d6d4d" stroke-width="0.1" fill="none" />
<path d="M232.08009277187404,78.5100664819381 L206.64925304359727,131.60959773710772" stroke="#0d6d4d" stroke-width="0.1" fill="none" />
<path d="M231.28040752066877,80.83546930075546 L174.54036152068625,171.93214417388083" stroke="#0d6d4d" stroke-width="0.1" fill="none" />
<path d="M230.45742278733348,83.15272865168184 L134.70578389565728,204.64445212381517" stroke="#0d6d4d" stroke-width="0.1" fill="none" />
<path d="M229.61122148039587,85.4616110910659 L88.90871946556776,228.29857556058684" stroke="#0d6d4d" stroke-width="0.1" fill="none" />
<path d="M228.74188884725083,87.76188401915687 L39.17628528863137,241.8475111945206" stroke="#0d6d4d" stroke-width="0.1" fill="none" />
<path d="M227.8495124655725,90.0533157035371 L-12.290210168744812,244.69154201567343" stroke="#0d6d4d" stroke-width="0.1" fill="none" />
<path d="M226.93418223449146,92.33567530246708 L-63.21270362529126,236.70478258873666" stroke="#0d6d4d" stroke-width="0.1" fill="none" />
<path d="M225.99599036553815,94.60873288814084 L-111.33721097925195,218.24075112444407" stroke="#0d6d4d" stroke-width="0.1" fill="none" />
<path d="M225.0350313733537,96.87225946984886 L-154.53359548519703,190.1167216906958" stroke="#0d6d4d" stroke-width="0.1" fill="none" />
<path d="M224.0514020661679,99.1260270170472 L-190.88985407099045,153.57754918202065" stroke="#0d6d4d" stroke-width="0.1" fill="none" />
<path d="M223.0452015360471,101.36980848232933 L-218.79674839637576,110.24056826401542" stroke="#0d6d4d" stroke-width="0.1" fill="none" />
<path d="M222.0165311489112,103.60337782429943 L-237.01903462568978,62.0240052327005" stroke="#0d6d4d" stroke-width="0.1" fill="none" />
<path d="M220.96549453432212,105.82651003034387 L-244.75013906878937,11.062071497159451" stroke="#0d6d4d" stroke-width="0.1" fill="none" />
<path d="M219.8921975750438,108.03898113929942 L-241.64785958039596,-40.38950309440853" stroke="#0d6d4d" stroke-width="0.1" fill="none" />
<path d="M218.79674839637582,110.24056826401528 L-227.8495124655725,-90.05331570353707" stroke="#0d6d4d" stroke-width="0.1" fill="none" />
<path d="M217.67925735526038,112.43104961380696 L-203.96585444332902,-135.73109526266532" stroke="#0d6d4d" stroke-width="0.1" fill="none" />
<path d="M216.5398370291648,114.61020451680015 L-171.0540487006932,-175.40100462397837" stroke="#0d6d4d" stroke-width="0.1" fill="none" />
<path d="M215.37860220474056,116.77781344216086 L-130.57087164173674,-207.30713320751195" stroke="#0d6d4d" stroke-width="0.1" fill="none" />
<path d="M214.19566986625944,118.93365802221167 L-84.30823154285515,-230.03721893232043" stroke="#0d6d4d" stroke-width="0.1" fill="none" />
<path d="M212.99115918382824,121.07752107443042 L-34.31385325430778,-242.58515922216228" stroke="#0d6d4d" stroke-width="0.1" fill="none" />
<path d="M211.7651915013837,123.20918662332889 L17.19936031616062,-244.39554415887963" stroke="#0d6d4d" stroke-width="0.1" fill="none" />
<path d="M210.5178903244679,125.32843992221117 L67.95127800181378,-235.38824061095366" stroke="#0d6d4d" stroke-width="0.1" fill="none" />
<path d="M209.24938130778636,127.43506747480707 L115.6954659021843,-215.96193916909644" stroke="#0d6d4d" stroke-width="0.1" fill="none" />
<path d="M207.95979224254913,129.52885705678025 L158.3186213650654,-186.97650689074564" stroke="#0d6d4d" stroke-width="0.1" fill="none" />
<path d="M206.64925304359727,131.60959773710772 L193.9341141754225,-149.71492697454784" stroke="#0d6d4d" stroke-width="0.1" fill="none" />
<path d="M205.31789573631494,133.67707989932944 L220.96549453432212,-105.82651003034384" stroke="#0d6d4d" stroke-width="0.1" fill="none" />
<path d="M203.965854443329,135.73109526266535 L238.21627151129792,-57.253890586191645" stroke="#0d6d4d" stroke-width="0.1" fill="none" />
<path d="M202.59326537099722,137.77143690299778 L244.92287336408577,-6.147040188578864" stroke="#0d6d4d" stroke-width="0.1" fill="none" />
<path d="M201.2002667956869,139.79789927371735 L240.78844554125075,45.231896863033626" stroke="#0d6d4d" stroke-width="0.1" fill="none" />
<path d="M199.78699904984444,141.81027822642986 L225.99599036553815,94.60873288814084" stroke="#0d6d4d" stroke-width="0.1" fill="none" />
<path d="M198.3536045078584,143.80837103152268 L201.2002667956869,139.79789927371735" stroke="#0d6d4d" stroke-width="0.1" fill="none" />
<path d="M196.90022757171627,145.79197639858768 L167.49880880783033,178.79918637387" stroke="#0d6d4d" stroke-width="0.1" fill="none" />
<path d="M195.4270146564573,147.76089449669973 L126.3833452108781,209.88627885907172" stroke="#0d6d4d" stroke-width="0.1" fill="none" />
<path d="M193.93411417542254,149.7149269745478 L79.67377120228258,231.68316767172865" stroke="#0d6d4d" stroke-width="0.1" fill="none" />
<path d="M192.42167652530333,151.65387698041724 L29.43759428351808,243.2250563630297" stroke="#0d6d4d" stroke-width="0.1" fill="none" />
<path d="M190.88985407099045,153.57754918202068 L-22.101579896478793,244.00106591176925" stroke="#0d6d4d" stroke-width="0.1" fill="none" />
<path d="M189.33880113022425,155.4857497861762 L-72.66247107560758,233.97684778025902" stroke="#0d6d4d" stroke-width="0.1" fill="none" />
<path d="M187.76867395804896,157.37828655833027 L-120.00710076631351,213.5961042848485" stroke="#0d6d4d" stroke-width="0.1" fill="none" />
<path d="M186.1796307310708,159.25496884192378 L-162.03985197534303,183.76094898483987" stroke="#0d6d4d" stroke-width="0.1" fill="none" />
<path d="M184.57183153152369,161.1156075775989 L-196.9002275717163,145.79197639858765" stroke="#0d6d4d" stroke-width="0.1" fill="none" />
<path d="M182.9454383311419,162.9600153222451 L-223.04520153604713,101.36980848232929" stroke="#0d6d4d" stroke-width="0.1" fill="none" />
<path d="M181.30061497484297,164.7880062678827 L-239.31751797499004,52.46070520199201" stroke="#0d6d4d" stroke-width="0.1" fill="none" />
<path d="M179.63752716422192,166.59939626038093 L-244.99691477916065,1.2295318998262155" stroke="#0d6d4d" stroke-width="0.1" fill="none" />
<path d="M177.95634244085795,168.3940028180104 L-239.8320046099737,-50.05606421565286" stroke="#0d6d4d" stroke-width="0.1" fill="none" />
<path d="M176.2572301694364,170.17164514982608 L-224.05140206616792,-99.12602701704718" stroke="#0d6d4d" stroke-width="0.1" fill="none" />
<path d="M174.54036152068625,171.93214417388083 L-198.35360450785842,-143.80837103152268" stroke="#0d6d4d" stroke-width="0.1" fill="none" />
<path d="M172.8059094541368,173.67532253526602 L-163.8760744435535,-182.1253201094535" stroke="#0d6d4d" stroke-width="0.1" fill="none" />
<path d="M171.05404870069316,175.40100462397842 L-122.14489198751716,-212.38084979902914" stroke="#0d6d4d" stroke-width="0.1" fill="none" />
<path d="M169.28495574503359,177.10901659261174 L-75.00720592250998,-233.23575853564603" stroke="#0d6d4d" stroke-width="0.1" fill="none" />
<path d="M167.49880880783033,178.79918637387 L-24.549473288872598,-243.7669447674129" stroke="#0d6d4d" stroke-width="0.1" fill="none" />
<path d="M165.69578782779547,180.47134369790177 L26.994893536133187,-243.50826623129828" stroke="#0d6d4d" stroke-width="0.1" fill="none" />
<path d="M163.8760744435535,182.12532010945353 L77.34438444817968,-232.47117282435727" stroke="#0d6d4d" stroke-width="0.1" fill="none" />
<path d="M162.03985197534297,183.76094898483993 L124.27037817709841,-211.14419979653937" stroke="#0d6d4d" stroke-width="0.1" fill="none" />
<path d="M160.18730540654852,185.37806554872978 L165.69578782779544,-180.47134369790177" stroke="#0d6d4d" stroke-width="0.1" fill="none" />
<path d="M158.31862136506544,186.97650689074564 L199.78699904984444,-141.8102782264299" stroke="#0d6d4d" stroke-width="0.1" fill="none" />
<path d="M156.4339881044985,188.55611198187563 L225.03503137335366,-96.87225946984887" stroke="#0d6d4d" stroke-width="0.1" fill="none" />
<path d="M154.53359548519708,190.11672169069575 L240.3223302640704,-47.64638051780088" stroke="#0d6d4d" stroke-width="0.1" fill="none" />
<path d="M152.6176349551284,191.658178799401 L244.97223347866048,3.688471834872114" stroke="#0d6d4d" stroke-width="0.1" fill="none" />
<path d="M150.68629953059073,193.18032801964358 L238.77892218915687,54.860061230229945" stroke="#0d6d4d" stroke-width="0.1" fill="none" />
<path d="M148.73978377676895,194.68301600817676 L222.0165311489112,103.60337782429943" stroke="#0d6d4d" stroke-width="0.1" fill="none" />
<path d="M146.7782837881332,196.16609138230345 L195.4270146564573,147.76089449669973" stroke="#0d6d4d" stroke-width="0.1" fill="none" />
<path d="M144.80199716868484,197.62940473512586 L160.18730540654852,185.37806554872978" stroke="#0d6d4d" stroke-width="0.1" fill="none" />
<path d="M142.81112301204897,199.07280865059752 L117.8572198772918,214.78984082771626" stroke="#0d6d4d" stroke-width="0.1" fill="none" />
<path d="M140.805861881418,200.49615771837387 L70.3104161190405,234.69436589992392" stroke="#0d6d4d" stroke-width="0.1" fill="none" />
<path d="M138.78641578934617,201.89930854846116 L19.651459962843106,244.2106060787057" stroke="#0d6d4d" stroke-width="0.1" fill="none" />
<path d="M136.75298817739875,203.282119785662 L-31.87732945024973,242.91734369352932" stroke="#0d6d4d" stroke-width="0.1" fill="none" />
<path d="M134.70578389565728,204.64445212381517 L-81.99513151943698,230.87182246240062" stroke="#0d6d4d" stroke-width="0.1" fill="none" />
<path d="M132.6450091820822,205.98616831982997 L-128.4835802258721,208.60721371117992" stroke="#0d6d4d" stroke-width="0.1" fill="none" />
<path d="M130.57087164173672,207.30713320751198 L-169.28495574503356,177.10901659261177" stroke="#0d6d4d" stroke-width="0.1" fill="none" />
<path d="M128.48358022587223,208.60721371117984 L-202.59326537099713,137.77143690299792" stroke="#0d6d4d" stroke-width="0.1" fill="none" />
<path d="M126.3833452108781,209.88627885907172 L-226.93418223449146,92.33567530246708" stroke="#0d6d4d" stroke-width="0.1" fill="none" />
<path d="M124.27037817709846,211.14419979653934 L-241.2303034844695,42.81285648950274" stroke="#0d6d4d" stroke-width="0.1" fill="none" />
<path d="M122.14489198751713,212.38084979902914 L-244.84883940803712,-8.604989281646246" stroke="#0d6d4d" stroke-width="0.1" fill="none" />
<path d="M120.00710076631356,213.59610428484848 L-237.62962262355742,-59.641952112466" stroke="#0d6d4d" stroke-width="0.1" fill="none" />
<path d="M117.8572198772918,214.78984082771626 L-219.89219757504384,-108.0389811392994" stroke="#0d6d4d" stroke-width="0.1" fill="none" />
<path d="M115.69546590218434,215.9619391690964 L-192.42167652530335,-151.6538769804172" stroke="#0d6d4d" stroke-width="0.1" fill="none" />
<path d="M113.52205661883346,217.11228123031265 L-156.43398810449852,-188.5561119818756" stroke="#0d6d4d" stroke-width="0.1" fill="none" />
<path d="M111.337210979252,218.24075112444407 L-113.52205661883349,-217.11228123031265" stroke="#0d6d4d" stroke-width="0.1" fill="none" />
<path d="M109.14114908756589,219.3472351679996 L-65.58529438649887,-236.05840201152824" stroke="#0d6d4d" stroke-width="0.1" fill="none" />
<path d="M106.9340921778405,220.43162189237077 L-14.745527984065566,-244.55586152139378" stroke="#0d6d4d" stroke-width="0.1" fill="none" />
<path d="M104.71626259179334,221.49380205506108 L36.74692023718821,-242.22853641361442" stroke="#0d6d4d" stroke-width="0.1" fill="none" />
<path d="M102.48788375639495,222.5336686506913 L86.61283824790125,-229.1794411605083" stroke="#0d6d4d" stroke-width="0.1" fill="none" />
<path d="M100.24918016136085,223.55111692177923 L132.64500918208213,-205.98616831983003" stroke="#0d6d4d" stroke-width="0.1" fill="none" />
<path d="M98.00037733653548,224.54604436929336 L172.80590945413675,-173.67532253526605" stroke="#0d6d4d" stroke-width="0.1" fill="none" />
<path d="M95.74170182917315,225.51835076297826 L205.31789573631488,-133.6770798993295" stroke="#0d6d4d" stroke-width="0.1" fill="none" />
<path d="M93.47338118111438,226.46793815145244 L228.74188884725083,-87.7618840191569" stroke="#0d6d4d" stroke-width="0.1" fill="none" />
<path d="M91.19564390586348,227.39471087207582 L242.04107176389846,-37.96208080945193" stroke="#0d6d4d" stroke-width="0.1" fill="none" />
<path d="M88.90871946556776,228.29857556058684 L244.6267822895401,13.518039305533973" stroke="#0d6d4d" stroke-width="0.1" fill="none" />
<path d="M86.61283824790124,229.17944116050833 L236.3845690291058,64.39980997583709" stroke="#0d6d4d" stroke-width="0.1" fill="none" />
<path d="M84.30823154285513,230.03721893232043 L217.67925735526038,112.43104961380696" stroke="#0d6d4d" stroke-width="0.1" fill="none" />
<path d="M81.99513151943704,230.8718224624006 L189.33880113022425,155.4857497861762" stroke="#0d6d4d" stroke-width="0.1" fill="none" />
<path d="M79.67377120228258,231.68316767172865 L152.6176349551284,191.658178799401" stroke="#0d6d4d" stroke-width="0.1" fill="none" />
<path d="M77.34438444817974,232.47117282435724 L109.14114908756589,219.3472351679996" stroke="#0d6d4d" stroke-width="0.1" fill="none" />
<path d="M75.00720592250995,233.23575853564606 L60.83374473599958,237.32731722537807" stroke="#0d6d4d" stroke-width="0.1" fill="none" />
<path d="M72.66247107560754,233.97684778025902 L9.833654222035257,244.80257197309314" stroke="#0d6d4d" stroke-width="0.1" fill="none" />
<path d="M70.3104161190405,234.69436589992392 L-41.60170367131518,241.44212194984556" stroke="#0d6d4d" stroke-width="0.1" fill="none" />
<path d="M67.95127800181382,235.38824061095366 L-91.19564390586342,227.39471087207582" stroke="#0d6d4d" stroke-width="0.1" fill="none" />
<path d="M65.58529438649884,236.05840201152824 L-136.75298817739872,203.28211978566202" stroke="#0d6d4d" stroke-width="0.1" fill="none" />
<path d="M63.212703625291425,236.7047825887366 L-176.25723016943635,170.17164514982613" stroke="#0d6d4d" stroke-width="0.1" fill="none" />
<path d="M60.83374473599958,237.32731722537807 L-207.959792242549,129.52885705678042" stroke="#0d6d4d" stroke-width="0.1" fill="none" />
<path d="M58.44865737796465,237.92594320652236 L-230.45742278733348,83.15272865168178" stroke="#0d6d4d" stroke-width="0.1" fill="none" />
<path d="M56.05768182791768,238.5006002258274 L-242.75430839927887,33.096008121642086" stroke="#0d6d4d" stroke-width="0.1" fill="none" />
<path d="M53.661058955773676,239.05123039161498 L-244.30615160218085,-18.425642168788446" stroke="#0d6d4d" stroke-width="0.1" fill="none" />
<path d="M51.25903020036605,239.57777823270246 L-235.04426310629069,-69.13171761804273" stroke="#0d6d4d" stroke-width="0.1" fill="none" />
<path d="M48.851837545123864,240.0801907039913 L-215.3786022047405,-116.77781344216093" stroke="#0d6d4d" stroke-width="0.1" fill="none" />
<path d="M46.43972349369359,240.55841719181078 L-186.17963073107074,-159.25496884192384" stroke="#0d6d4d" stroke-width="0.1" fill="none" />
<path d="M44.02293104551004,241.0124095190168 L-148.7397837767689,-194.68301600817682" stroke="#0d6d4d" stroke-width="0.1" fill="none" />
<path d="M41.60170367131523,241.44212194984553 L-104.71626259179337,-221.49380205506105" stroke="#0d6d4d" stroke-width="0.1" fill="none" />
<path d="M39.17628528863137,241.8475111945206 L-56.05768182791771,-238.5006002258274" stroke="#0d6d4d" stroke-width="0.1" fill="none" />
<path d="M36.7469202371882,242.22853641361442 L-4.917817940518995,-244.95063802061" stroke="#0d6d4d" stroke-width="0.1" fill="none" />
<path d="M34.31385325430786,242.58515922216228 L46.439723493693585,-240.55841719181078" stroke="#0d6d4d" stroke-width="0.1" fill="none" />
<path d="M31.877329450249892,242.9173436935293 L95.74170182917317,-225.51835076297826" stroke="#0d6d4d" stroke-width="0.1" fill="none" />
<path d="M29.43759428351808,243.2250563630297 L140.80586188141802,-200.49615771837384" stroke="#0d6d4d" stroke-width="0.1" fill="none" />
<path d="M26.99489353613327,243.50826623129825 L179.63752716422192,-166.59939626038093" stroke="#0d6d4d" stroke-width="0.1" fill="none" />
<path d="M24.54947328887257,243.7669447674129 L210.5178903244679,-125.32843992221117" stroke="#0d6d4d" stroke-width="0.1" fill="none" />
<path d="M22.101579896478963,244.00106591176925 L232.08009277187404,-78.51006648193811" stroke="#0d6d4d" stroke-width="0.1" fill="none" />
<path d="M19.651459962843106,244.2106060787057 L243.36972598838963,-28.21659923407039" stroke="#0d6d4d" stroke-width="0.1" fill="none" />
<path d="M17.199360316160575,244.39554415887963 L243.8870765456768,23.325820328622545" stroke="#0d6d4d" stroke-width="0.1" fill="none" />
<path d="M14.745527984065538,244.55586152139378 L233.60924493799638,73.83576829355275" stroke="#0d6d4d" stroke-width="0.1" fill="none" />
<path d="M12.290210168744872,244.69154201567343 L212.99115918382824,121.07752107443042" stroke="#0d6d4d" stroke-width="0.1" fill="none" />
<path d="M9.833654222035257,244.80257197309314 L182.9454383311419,162.9600153222451" stroke="#0d6d4d" stroke-width="0.1" fill="none" />
<path d="M7.37610762050418,244.88894020835392 L144.80199716868484,197.62940473512586" stroke="#0d6d4d" stroke-width="0.1" fill="none" />
<path d="M4.917817940518964,244.95063802061 L100.24918016136085,223.55111692177923" stroke="#0d6d4d" stroke-width="0.1" fill="none" />
<path d="M2.4590328333055957,244.98765919434538 L51.25903020036605,239.57777823270246" stroke="#0d6d4d" stroke-width="0.1" fill="none" />
<path d="M3.0003846579110155e-14,245.0 L3.0003846579110155e-14,245.0" stroke="#0d6d4d" stroke-width="0.1" fill="none" />
<path d="M-2.4590328333055353,244.98765919434538 L-51.2590302003661,239.57777823270246" stroke="#0d6d4d" stroke-width="0.1" fill="none" />
<path d="M-4.917817940518905,244.95063802061 L-100.2491801613607,223.5511169217793" stroke="#0d6d4d" stroke-width="0.1" fill="none" />
<path d="M-7.37610762050412,244.88894020835392 L-144.8019971686848,197.6294047351259" stroke="#0d6d4d" stroke-width="0.1" fill="none" />
<path d="M-9.833654222035197,244.80257197309314 L-182.94543833114176,162.96001532224523" stroke="#0d6d4d" stroke-width="0.1" fill="none" />
<path d="M-12.290210168744812,244.69154201567343 L-212.9911591838283,121.07752107443031" stroke="#0d6d4d" stroke-width="0.1" fill="none" />
<path d="M-14.745527984065475,244.55586152139378 L-233.60924493799635,73.83576829355285" stroke="#0d6d4d" stroke-width="0.1" fill="none" />
<path d="M-17.19936031616062,244.39554415887963 L-243.88707654567682,23.325820328622445" stroke="#0d6d4d" stroke-width="0.1" fill="none" />
<path d="M-19.651459962843152,244.2106060787057 L-243.36972598838966,-28.216599234070223" stroke="#0d6d4d" stroke-width="0.1" fill="none" />
<path d="M-22.101579896478793,244.00106591176925 L-232.08009277187404,-78.51006648193811" stroke="#0d6d4d" stroke-width="0.1" fill="none" />
<path d="M-24.5494732888724,243.76694476741292 L-210.51789032446794,-125.32843992221117" stroke="#0d6d4d" stroke-width="0.1" fill="none" />
<path d="M-26.994893536133098,243.50826623129828 L-179.63752716422195,-166.5993962603809" stroke="#0d6d4d" stroke-width="0.1" fill="none" />
<path d="M-29.437594283517914,243.22505636302972 L-140.80586188141802,-200.49615771837384" stroke="#0d6d4d" stroke-width="0.1" fill="none" />
<path d="M-31.87732945024973,242.91734369352932 L-95.7417018291734,-225.51835076297817" stroke="#0d6d4d" stroke-width="0.1" fill="none" />
<path d="M-34.313853254307915,242.58515922216228 L-46.43972349369362,-240.55841719181078" stroke="#0d6d4d" stroke-width="0.1" fill="none" />
<path d="M-36.74692023718814,242.22853641361442 L4.917817940518925,-244.95063802061" stroke="#0d6d4d" stroke-width="0.1" fill="none" />
<path d="M-39.17628528863131,241.84751119452062 L56.057681827917655,-238.5006002258274" stroke="#0d6d4d" stroke-width="0.1" fill="none" />
<path d="M-41.60170367131518,241.44212194984556 L104.71626259179332,-221.49380205506108" stroke="#0d6d4d" stroke-width="0.1" fill="none" />
<path d="M-44.022931045509985,241.0124095190168 L148.73978377676886,-194.68301600817685" stroke="#0d6d4d" stroke-width="0.1" fill="none" />
<path d="M-46.43972349369364,240.55841719181078 L186.17963073107072,-159.25496884192387" stroke="#0d6d4d" stroke-width="0.1" fill="none" />
<path d="M-48.85183754512371,240.08019070399132 L215.3786022047405,-116.77781344216093" stroke="#0d6d4d" stroke-width="0.1" fill="none" />
<path d="M-51.2590302003661,239.57777823270246 L235.04426310629063,-69.13171761804293" stroke="#0d6d4d" stroke-width="0.1" fill="none" />
<path d="M-53.66105895577362,239.05123039161498 L244.30615160218085,-18.425642168788396" stroke="#0d6d4d" stroke-width="0.1" fill="none" />
<path d="M-56.05768182791763,238.50060022582744 L242.7543083992789,33.096008121641916" stroke="#0d6d4d" stroke-width="0.1" fill="none" />
<path d="M-58.4486573779646,237.92594320652236 L230.45742278733348,83.15272865168184" stroke="#0d6d4d" stroke-width="0.1" fill="none" />
<path d="M-60.83374473599954,237.3273172253781 L207.95979224254913,129.52885705678025" stroke="#0d6d4d" stroke-width="0.1" fill="none" />
<path d="M-63.21270362529126,236.70478258873666 L176.2572301694364,170.17164514982608" stroke="#0d6d4d" stroke-width="0.1" fill="none" />
<path d="M-65.58529438649879,236.05840201152827 L136.75298817739875,203.282119785662" stroke="#0d6d4d" stroke-width="0.1" fill="none" />
<path d="M-67.95127800181366,235.38824061095372 L91.19564390586348,227.39471087207582" stroke="#0d6d4d" stroke-width="0.1" fill="none" />
<path d="M-70.31041611904054,234.69436589992392 L41.60170367131523,241.44212194984553" stroke="#0d6d4d" stroke-width="0.1" fill="none" />
<path d="M-72.66247107560758,233.97684778025902 L-9.833654222035197,244.80257197309314" stroke="#0d6d4d" stroke-width="0.1" fill="none" />
<path d="M-75.0072059225099,233.23575853564606 L-60.83374473599954,237.3273172253781" stroke="#0d6d4d" stroke-width="0.1" fill="none" />
<path d="M-77.3443844481797,232.47117282435727 L-109.14114908756585,219.34723516799963" stroke="#0d6d4d" stroke-width="0.1" fill="none" />
<path d="M-79.67377120228242,231.6831676717287 L-152.61763495512844,191.65817879940099" stroke="#0d6d4d" stroke-width="0.1" fill="none" />
<path d="M-81.99513151943698,230.87182246240062 L-189.3388011302242,155.48574978617626" stroke="#0d6d4d" stroke-width="0.1" fill="none" />
<path d="M-84.30823154285497,230.03721893232049 L-217.6792573552603,112.4310496138071" stroke="#0d6d4d" stroke-width="0.1" fill="none" />
<path d="M-86.61283824790128,229.1794411605083 L-236.38456902910576,64.39980997583719" stroke="#0d6d4d" stroke-width="0.1" fill="none" />
<path d="M-88.90871946556771,228.29857556058684 L-244.6267822895401,13.518039305533923" stroke="#0d6d4d" stroke-width="0.1" fill="none" />
<path d="M-91.19564390586342,227.39471087207582 L-242.0410717638985,-37.96208080945177" stroke="#0d6d4d" stroke-width="0.1" fill="none" />
<path d="M-93.47338118111432,226.46793815145247 L-228.7418888472508,-87.76188401915694" stroke="#0d6d4d" stroke-width="0.1" fill="none" />
<path d="M-95.7417018291731,225.5183507629783 L-205.317895736315,-133.67707989932933" stroke="#0d6d4d" stroke-width="0.1" fill="none" />
<path d="M-98.00037733653552,224.54604436929333 L-172.80590945413675,-173.67532253526608" stroke="#0d6d4d" stroke-width="0.1" fill="none" />
<path d="M-100.2491801613607,223.5511169217793 L-132.64500918208213,-205.98616831983003" stroke="#0d6d4d" stroke-width="0.1" fill="none" />
<path d="M-102.48788375639501,222.53366865069128 L-86.61283824790125,-229.1794411605083" stroke="#0d6d4d" stroke-width="0.1" fill="none" />
<path d="M-104.71626259179328,221.4938020550611 L-36.746920237188235,-242.22853641361442" stroke="#0d6d4d" stroke-width="0.1" fill="none" />
<path d="M-106.93409217784047,220.4316218923708 L14.745527984065479,-244.55586152139378" stroke="#0d6d4d" stroke-width="0.1" fill="none" />
<path d="M-109.14114908756585,219.34723516799963 L65.5852943864988,-236.05840201152824" stroke="#0d6d4d" stroke-width="0.1" fill="none" />
<path d="M-111.33721097925195,218.24075112444407 L113.52205661883343,-217.11228123031268" stroke="#0d6d4d" stroke-width="0.1" fill="none" />
<path d="M-113.5220566188333,217.11228123031273 L156.4339881044985,-188.55611198187563" stroke="#0d6d4d" stroke-width="0.1" fill="none" />
<path d="M-115.6954659021843,215.96193916909644 L192.42167652530333,-151.65387698041727" stroke="#0d6d4d" stroke-width="0.1" fill="none" />
<path d="M-117.85721987729185,214.78984082771623 L219.89219757504384,-108.0389811392994" stroke="#0d6d4d" stroke-width="0.1" fill="none" />
<path d="M-120.00710076631351,213.5961042848485 L237.62962262355742,-59.64195211246601" stroke="#0d6d4d" stroke-width="0.1" fill="none" />
<path d="M-122.14489198751707,212.3808497990292 L244.84883940803712,-8.604989281646196" stroke="#0d6d4d" stroke-width="0.1" fill="none" />
<path d="M-124.27037817709841,211.14419979653937 L241.23030348446952,42.81285648950252" stroke="#0d6d4d" stroke-width="0.1" fill="none" />
<path d="M-126.38334521087805,209.88627885907175 L226.93418223449146,92.33567530246708" stroke="#0d6d4d" stroke-width="0.1" fill="none" />
<path d="M-128.4835802258721,208.60721371117992 L202.59326537099722,137.77143690299778" stroke="#0d6d4d" stroke-width="0.1" fill="none" />
<path d="M-130.5708716417367,207.307133207512 L169.28495574503359,177.10901659261174" stroke="#0d6d4d" stroke-width="0.1" fill="none" />
<path d="M-132.64500918208205,205.98616831983009 L128.48358022587223,208.60721371117984" stroke="#0d6d4d" stroke-width="0.1" fill="none" />
<path d="M-134.70578389565725,204.64445212381517 L81.99513151943704,230.8718224624006" stroke="#0d6d4d" stroke-width="0.1" fill="none" />
<path d="M-136.75298817739872,203.28211978566202 L31.877329450249892,242.9173436935293" stroke="#0d6d4d" stroke-width="0.1" fill="none" />
<path d="M-138.7864157893462,201.89930854846114 L-19.651459962843152,244.2106060787057" stroke="#0d6d4d" stroke-width="0.1" fill="none" />
<path d="M-140.80586188141805,200.4961577183738 L-70.31041611904054,234.69436589992392" stroke="#0d6d4d" stroke-width="0.1" fill="none" />
<path d="M-142.81112301204894,199.07280865059758 L-117.85721987729185,214.78984082771623" stroke="#0d6d4d" stroke-width="0.1" fill="none" />
<path d="M-144.8019971686848,197.6294047351259 L-160.1873054065485,185.3780655487298" stroke="#0d6d4d" stroke-width="0.1" fill="none" />
<path d="M-146.77828378813308,196.16609138230356 L-195.42701465645726,147.7608944966998" stroke="#0d6d4d" stroke-width="0.1" fill="none" />
<path d="M-148.73978377676892,194.68301600817682 L-222.01653114891118,103.60337782429947" stroke="#0d6d4d" stroke-width="0.1" fill="none" />
<path d="M-150.6862995305907,193.1803280196436 L-238.77892218915684,54.86006123023005" stroke="#0d6d4d" stroke-width="0.1" fill="none" />
<path d="M-152.61763495512844,191.65817879940099 L-244.97223347866048,3.688471834872228" stroke="#0d6d4d" stroke-width="0.1" fill="none" />
<path d="M-154.53359548519703,190.1167216906958 L-240.32233026407042,-47.646380517800765" stroke="#0d6d4d" stroke-width="0.1" fill="none" />
<path d="M-156.43398810449847,188.55611198187566 L-225.03503137335372,-96.87225946984879" stroke="#0d6d4d" stroke-width="0.1" fill="none" />
<path d="M-158.31862136506533,186.97650689074572 L-199.78699904984455,-141.81027822642977" stroke="#0d6d4d" stroke-width="0.1" fill="none" />
<path d="M-160.1873054065485,185.3780655487298 L-165.6957878277954,-180.47134369790183" stroke="#0d6d4d" stroke-width="0.1" fill="none" />
<path d="M-162.03985197534303,183.76094898483987 L-124.27037817709858,-211.14419979653928" stroke="#0d6d4d" stroke-width="0.1" fill="none" />
<path d="M-163.87607444355345,182.12532010945353 L-77.34438444817967,-232.47117282435727" stroke="#0d6d4d" stroke-width="0.1" fill="none" />
<path d="M-165.69578782779553,180.47134369790172 L-26.994893536133407,-243.50826623129825" stroke="#0d6d4d" stroke-width="0.1" fill="none" />
<path d="M-167.4988088078303,178.79918637387001 L24.549473288872495,-243.7669447674129" stroke="#0d6d4d" stroke-width="0.1" fill="none" />
<path d="M-169.28495574503356,177.10901659261177 L75.00720592250988,-233.23575853564606" stroke="#0d6d4d" stroke-width="0.1" fill="none" />
<path d="M-171.05404870069304,175.40100462397854 L122.1448919875171,-212.38084979902916" stroke="#0d6d4d" stroke-width="0.1" fill="none" />
<path d="M-172.80590945413675,173.67532253526605 L163.87607444355348,-182.12532010945353" stroke="#0d6d4d" stroke-width="0.1" fill="none" />
<path d="M-174.54036152068613,171.93214417388097 L198.35360450785836,-143.8083710315227" stroke="#0d6d4d" stroke-width="0.1" fill="none" />
<path d="M-176.25723016943635,170.17164514982613 L224.05140206616792,-99.12602701704718" stroke="#0d6d4d" stroke-width="0.1" fill="none" />
<path d="M-177.9563424408579,168.39400281801045 L239.8320046099737,-50.05606421565286" stroke="#0d6d4d" stroke-width="0.1" fill="none" />
<path d="M-179.63752716422195,166.5993962603809 L244.99691477916068,1.229531899825992" stroke="#0d6d4d" stroke-width="0.1" fill="none" />
<path d="M-181.30061497484297,164.78800626788268 L239.31751797499004,52.46070520199206" stroke="#0d6d4d" stroke-width="0.1" fill="none" />
<path d="M-182.94543833114176,162.96001532224523 L223.0452015360471,101.36980848232933" stroke="#0d6d4d" stroke-width="0.1" fill="none" />
<path d="M-184.57183153152366,161.11560757759895 L196.90022757171627,145.79197639858768" stroke="#0d6d4d" stroke-width="0.1" fill="none" />
<path d="M-186.1796307310707,159.25496884192395 L162.03985197534297,183.76094898483993" stroke="#0d6d4d" stroke-width="0.1" fill="none" />
<path d="M-187.7686739580489,157.3782865583303 L120.00710076631356,213.59610428484848" stroke="#0d6d4d" stroke-width="0.1" fill="none" />
<path d="M-189.3388011302242,155.48574978617626 L72.66247107560754,233.97684778025902" stroke="#0d6d4d" stroke-width="0.1" fill="none" />
<path d="M-190.88985407099045,153.57754918202065 L22.101579896478963,244.00106591176925" stroke="#0d6d4d" stroke-width="0.1" fill="none" />
<path d="M-192.42167652530327,151.65387698041732 L-29.437594283517914,243.22505636302972" stroke="#0d6d4d" stroke-width="0.1" fill="none" />
<path d="M-193.93411417542254,149.7149269745478 L-79.67377120228242,231.6831676717287" stroke="#0d6d4d" stroke-width="0.1" fill="none" />
<path d="M-195.42701465645726,147.7608944966998 L-126.38334521087805,209.88627885907175" stroke="#0d6d4d" stroke-width="0.1" fill="none" />
<path d="M-196.9002275717163,145.79197639858765 L-167.4988088078303,178.79918637387001" stroke="#0d6d4d" stroke-width="0.1" fill="none" />
<path d="M-198.35360450785834,143.80837103152274 L-201.20026679568684,139.7978992737174" stroke="#0d6d4d" stroke-width="0.1" fill="none" />
<path d="M-199.78699904984433,141.81027822643003 L-225.99599036553812,94.60873288814093" stroke="#0d6d4d" stroke-width="0.1" fill="none" />
<path d="M-201.20026679568684,139.7978992737174 L-240.78844554125072,45.23189686303375" stroke="#0d6d4d" stroke-width="0.1" fill="none" />
<path d="M-202.59326537099713,137.77143690299792 L-244.92287336408577,-6.147040188578749" stroke="#0d6d4d" stroke-width="0.1" fill="none" />
<path d="M-203.96585444332896,135.7310952626654 L-238.2162715112979,-57.25389058619174" stroke="#0d6d4d" stroke-width="0.1" fill="none" />
<path d="M-205.31789573631482,133.6770798993296 L-220.96549453432215,-105.82651003034375" stroke="#0d6d4d" stroke-width="0.1" fill="none" />
<path d="M-206.6492530435972,131.6095977371078 L-193.93411417542248,-149.7149269745479" stroke="#0d6d4d" stroke-width="0.1" fill="none" />
<path d="M-207.959792242549,129.52885705678042 L-158.31862136506552,-186.97650689074555" stroke="#0d6d4d" stroke-width="0.1" fill="none" />
<path d="M-209.24938130778634,127.43506747480713 L-115.69546590218427,-215.96193916909647" stroke="#0d6d4d" stroke-width="0.1" fill="none" />
<path d="M-210.517890324468,125.32843992221106 L-67.95127800181373,-235.3882406109537" stroke="#0d6d4d" stroke-width="0.1" fill="none" />
<path d="M-211.7651915013837,123.20918662332886 L-17.199360316160604,-244.39554415887963" stroke="#0d6d4d" stroke-width="0.1" fill="none" />
<path d="M-212.9911591838283,121.07752107443031 L34.31385325430788,-242.58515922216228" stroke="#0d6d4d" stroke-width="0.1" fill="none" />
<path d="M-214.1956698662594,118.93365802221176 L84.30823154285504,-230.03721893232046" stroke="#0d6d4d" stroke-width="0.1" fill="none" />
<path d="M-215.37860220474056,116.7778134421608 L130.5708716417367,-207.307133207512" stroke="#0d6d4d" stroke-width="0.1" fill="none" />
<path d="M-216.53983702916477,114.61020451680018 L171.05404870069313,-175.40100462397845" stroke="#0d6d4d" stroke-width="0.1" fill="none" />
<path d="M-217.6792573552603,112.4310496138071 L203.96585444332896,-135.7310952626654" stroke="#0d6d4d" stroke-width="0.1" fill="none" />
<path d="M-218.79674839637576,110.24056826401542 L227.8495124655725,-90.05331570353712" stroke="#0d6d4d" stroke-width="0.1" fill="none" />
<path d="M-219.89219757504378,108.03898113929948 L241.64785958039596,-40.389503094408596" stroke="#0d6d4d" stroke-width="0.1" fill="none" />
<path d="M-220.96549453432203,105.82651003034402 L244.75013906878937,11.062071497159392" stroke="#0d6d4d" stroke-width="0.1" fill="none" />
<path d="M-222.01653114891118,103.60337782429947 L237.01903462568978,62.0240052327005" stroke="#0d6d4d" stroke-width="0.1" fill="none" />
<path d="M-223.04520153604713,101.36980848232929 L218.79674839637582,110.24056826401528" stroke="#0d6d4d" stroke-width="0.1" fill="none" />
<path d="M-224.0514020661679,99.12602701704725 L190.88985407099045,153.57754918202068" stroke="#0d6d4d" stroke-width="0.1" fill="none" />
<path d="M-225.0350313733537,96.87225946984886 L154.53359548519708,190.11672169069575" stroke="#0d6d4d" stroke-width="0.1" fill="none" />
<path d="M-225.99599036553812,94.60873288814093 L111.337210979252,218.24075112444407" stroke="#0d6d4d" stroke-width="0.1" fill="none" />
<path d="M-226.93418223449146,92.33567530246708 L63.212703625291425,236.7047825887366" stroke="#0d6d4d" stroke-width="0.1" fill="none" />
<path d="M-227.84951246557247,90.05331570353715 L12.290210168744872,244.69154201567343" stroke="#0d6d4d" stroke-width="0.1" fill="none" />
<path d="M-228.74188884725086,87.76188401915681 L-39.17628528863131,241.84751119452062" stroke="#0d6d4d" stroke-width="0.1" fill="none" />
<path d="M-229.61122148039584,85.46161109106596 L-88.90871946556771,228.29857556058684" stroke="#0d6d4d" stroke-width="0.1" fill="none" />
<path d="M-230.45742278733348,83.15272865168178 L-134.70578389565725,204.64445212381517" stroke="#0d6d4d" stroke-width="0.1" fill="none" />
<path d="M-231.28040752066877,80.83546930075546 L-174.54036152068613,171.93214417388097" stroke="#0d6d4d" stroke-width="0.1" fill="none" />
<path d="M-232.080092771874,78.5100664819382 L-206.6492530435972,131.6095977371078" stroke="#0d6d4d" stroke-width="0.1" fill="none" />
<path d="M-232.85639797964095,76.17675445926452 L-229.61122148039584,85.46161109106596" stroke="#0d6d4d" stroke-width="0.1" fill="none" />
<path d="M-233.60924493799635,73.83576829355285 L-242.409900422282,35.53083417623806" stroke="#0d6d4d" stroke-width="0.1" fill="none" />
<path d="M-234.33855780418125,71.48734381872366 L-244.47878149740797,-15.97264528945219" stroke="#0d6d4d" stroke-width="0.1" fill="none" />
<path d="M-235.0442631062906,69.13171761804301 L-235.72628975067576,-66.76912700028701" stroke="#0d6d4d" stroke-width="0.1" fill="none" />
<path d="M-235.72628975067573,66.76912700028709 L-216.5398370291648,-114.61020451680012" stroke="#0d6d4d" stroke-width="0.1" fill="none" />
<path d="M-236.38456902910576,64.39980997583719 L-187.76867395804896,-157.37828655833025" stroke="#0d6d4d" stroke-width="0.1" fill="none" />
<path d="M-237.01903462568978,62.0240052327005 L-150.68629953059084,-193.1803280196435" stroke="#0d6d4d" stroke-width="0.1" fill="none" />
<path d="M-237.6296226235574,59.64195211246609 L-106.93409217784044,-220.4316218923708" stroke="#0d6d4d" stroke-width="0.1" fill="none" />
<path d="M-238.21627151129792,57.25389058619162 L-58.448657377964786,-237.9259432065223" stroke="#0d6d4d" stroke-width="0.1" fill="none" />
<path d="M-238.77892218915684,54.86006123023005 L-7.376107620504102,-244.88894020835392" stroke="#0d6d4d" stroke-width="0.1" fill="none" />
<path d="M-239.31751797499004,52.46070520199201 L44.02293104551004,-241.0124095190168" stroke="#0d6d4d" stroke-width="0.1" fill="none" />
<path d="M-239.83200460997372,50.05606421565274 L93.47338118111439,-226.46793815145244" stroke="#0d6d4d" stroke-width="0.1" fill="none" />
<path d="M-240.3223302640704,47.64638051780086 L138.78641578934617,-201.89930854846116" stroke="#0d6d4d" stroke-width="0.1" fill="none" />
<path d="M-240.78844554125072,45.23189686303375 L177.95634244085795,-168.3940028180104" stroke="#0d6d4d" stroke-width="0.1" fill="none" />
<path d="M-241.2303034844695,42.81285648950274 L209.2493813077863,-127.43506747480714" stroke="#0d6d4d" stroke-width="0.1" fill="none" />
<path d="M-241.64785958039596,40.38950309440863 L231.28040752066877,-80.83546930075545" stroke="#0d6d4d" stroke-width="0.1" fill="none" />
<path d="M-242.04107176389843,37.96208080945208 L243.0742609987919,-30.657847933134256" stroke="#0d6d4d" stroke-width="0.1" fill="none" />
<path d="M-242.409900422282,35.53083417623806 L244.10890999481373,20.876782825519893" stroke="#0d6d4d" stroke-width="0.1" fill="none" />
<path d="M-242.75430839927887,33.096008121642086 L234.33855780418125,71.48734381872362" stroke="#0d6d4d" stroke-width="0.1" fill="none" />
<path d="M-243.0742609987919,30.657847933134292 L214.19566986625944,118.93365802221167" stroke="#0d6d4d" stroke-width="0.1" fill="none" />
<path d="M-243.36972598838963,28.216599234070525 L184.57183153152369,161.1156075775989" stroke="#0d6d4d" stroke-width="0.1" fill="none" />
<path d="M-243.6406736025536,25.772507958946296 L146.7782837881332,196.16609138230345" stroke="#0d6d4d" stroke-width="0.1" fill="none" />
<path d="M-243.88707654567682,23.325820328622445 L102.48788375639495,222.5336686506913" stroke="#0d6d4d" stroke-width="0.1" fill="none" />
<path d="M-244.10890999481373,20.87678282551995 L53.661058955773676,239.05123039161498" stroke="#0d6d4d" stroke-width="0.1" fill="none" />
<path d="M-244.30615160218085,18.42564216878832 L2.4590328333055957,244.98765919434538" stroke="#0d6d4d" stroke-width="0.1" fill="none" />
<path d="M-244.47878149740794,15.972645289452279 L-48.85183754512371,240.08019070399132" stroke="#0d6d4d" stroke-width="0.1" fill="none" />
<path d="M-244.6267822895401,13.518039305533923 L-98.00037733653552,224.54604436929333" stroke="#0d6d4d" stroke-width="0.1" fill="none" />
<path d="M-244.75013906878937,11.062071497159451 L-142.81112301204894,199.07280865059758" stroke="#0d6d4d" stroke-width="0.1" fill="none" />
<path d="M-244.84883940803712,8.604989281646334 L-181.30061497484297,164.78800626788268" stroke="#0d6d4d" stroke-width="0.1" fill="none" />
<path d="M-244.92287336408577,6.147040188579057 L-211.7651915013837,123.20918662332886" stroke="#0d6d4d" stroke-width="0.1" fill="none" />
<path d="M-244.97223347866048,3.688471834872228 L-232.85639797964095,76.17675445926452" stroke="#0d6d4d" stroke-width="0.1" fill="none" />
<path d="M-244.99691477916065,1.2295318998262155 L-243.6406736025536,25.772507958946296" stroke="#0d6d4d" stroke-width="0.1" fill="none" />
<path d="M-244.99691477916068,-1.2295318998259077 L-243.6406736025536,-25.772507958946207" stroke="#0d6d4d" stroke-width="0.1" fill="none" />
<path d="M-244.97223347866048,-3.6884718348721384 L-232.85639797964095,-76.17675445926444" stroke="#0d6d4d" stroke-width="0.1" fill="none" />
<path d="M-244.92287336408577,-6.147040188578749 L-211.76519150138378,-123.20918662332879" stroke="#0d6d4d" stroke-width="0.1" fill="none" />
<path d="M-244.84883940803712,-8.604989281646246 L-181.30061497484306,-164.7880062678826" stroke="#0d6d4d" stroke-width="0.1" fill="none" />
<path d="M-244.75013906878937,-11.062071497159362 L-142.81112301204905,-199.07280865059747" stroke="#0d6d4d" stroke-width="0.1" fill="none" />
<path d="M-244.62678228954007,-13.518039305534053 L-98.0003773365356,-224.5460443692933" stroke="#0d6d4d" stroke-width="0.1" fill="none" />
<path d="M-244.47878149740797,-15.97264528945219 L-48.8518375451239,-240.0801907039913" stroke="#0d6d4d" stroke-width="0.1" fill="none" />
<path d="M-244.30615160218085,-18.425642168788446 L2.4590328333055607,-244.98765919434538" stroke="#0d6d4d" stroke-width="0.1" fill="none" />
<path d="M-244.10890999481373,-20.87678282551986 L53.661058955773655,-239.05123039161498" stroke="#0d6d4d" stroke-width="0.1" fill="none" />
<path d="M-243.8870765456768,-23.32582032862257 L102.48788375639495,-222.5336686506913" stroke="#0d6d4d" stroke-width="0.1" fill="none" />
<path d="M-243.6406736025536,-25.772507958946207 L146.7782837881331,-196.16609138230353" stroke="#0d6d4d" stroke-width="0.1" fill="none" />
<path d="M-243.36972598838966,-28.216599234070223 L184.5718315315236,-161.11560757759895" stroke="#0d6d4d" stroke-width="0.1" fill="none" />
<path d="M-243.0742609987919,-30.657847933134196 L214.19566986625938,-118.93365802221177" stroke="#0d6d4d" stroke-width="0.1" fill="none" />
<path d="M-242.75430839927893,-33.09600812164178 L234.33855780418125,-71.48734381872363" stroke="#0d6d4d" stroke-width="0.1" fill="none" />
<path d="M-242.40990042228202,-35.53083417623796 L244.10890999481373,-20.876782825519918" stroke="#0d6d4d" stroke-width="0.1" fill="none" />
<path d="M-242.0410717638985,-37.96208080945177 L243.0742609987919,30.65784793313423" stroke="#0d6d4d" stroke-width="0.1" fill="none" />
<path d="M-241.64785958039596,-40.38950309440853 L231.28040752066877,80.83546930075546" stroke="#0d6d4d" stroke-width="0.1" fill="none" />
<path d="M-241.23030348446954,-42.81285648950244 L209.24938130778636,127.43506747480707" stroke="#0d6d4d" stroke-width="0.1" fill="none" />
<path d="M-240.78844554125075,-45.23189686303365 L177.95634244085795,168.3940028180104" stroke="#0d6d4d" stroke-width="0.1" fill="none" />
<path d="M-240.32233026407042,-47.646380517800765 L138.78641578934617,201.89930854846116" stroke="#0d6d4d" stroke-width="0.1" fill="none" />
<path d="M-239.8320046099737,-50.05606421565286 L93.47338118111438,226.46793815145244" stroke="#0d6d4d" stroke-width="0.1" fill="none" />
<path d="M-239.31751797499,-52.46070520199214 L44.02293104551004,241.0124095190168" stroke="#0d6d4d" stroke-width="0.1" fill="none" />
<path d="M-238.77892218915684,-54.86006123022996 L-7.37610762050412,244.88894020835392" stroke="#0d6d4d" stroke-width="0.1" fill="none" />
<path d="M-238.2162715112979,-57.25389058619174 L-58.4486573779646,237.92594320652236" stroke="#0d6d4d" stroke-width="0.1" fill="none" />
<path d="M-237.62962262355742,-59.641952112466 L-106.93409217784047,220.4316218923708" stroke="#0d6d4d" stroke-width="0.1" fill="none" />
<path d="M-237.0190346256898,-62.024005232700425 L-150.6862995305907,193.1803280196436" stroke="#0d6d4d" stroke-width="0.1" fill="none" />
<path d="M-236.38456902910582,-64.3998099758369 L-187.7686739580489,157.3782865583303" stroke="#0d6d4d" stroke-width="0.1" fill="none" />
<path d="M-235.72628975067576,-66.76912700028701 L-216.53983702916477,114.61020451680018" stroke="#0d6d4d" stroke-width="0.1" fill="none" />
<path d="M-235.04426310629069,-69.13171761804273 L-235.72628975067573,66.76912700028709" stroke="#0d6d4d" stroke-width="0.1" fill="none" />
<path d="M-234.33855780418125,-71.48734381872359 L-244.47878149740794,15.972645289452279" stroke="#0d6d4d" stroke-width="0.1" fill="none" />
<path d="M-233.60924493799644,-73.83576829355256 L-242.40990042228202,-35.53083417623796" stroke="#0d6d4d" stroke-width="0.1" fill="none" />
<path d="M-232.85639797964095,-76.17675445926444 L-229.6112214803959,-85.46161109106588" stroke="#0d6d4d" stroke-width="0.1" fill="none" />
<path d="M-232.08009277187404,-78.51006648193811 L-206.64925304359727,-131.6095977371077" stroke="#0d6d4d" stroke-width="0.1" fill="none" />
<path d="M-231.2804075206688,-80.83546930075539 L-174.54036152068625,-171.93214417388083" stroke="#0d6d4d" stroke-width="0.1" fill="none" />
<path d="M-230.45742278733346,-83.15272865168193 L-134.70578389565713,-204.64445212381526" stroke="#0d6d4d" stroke-width="0.1" fill="none" />
<path d="M-229.6112214803959,-85.46161109106588 L-88.9087194655679,-228.29857556058678" stroke="#0d6d4d" stroke-width="0.1" fill="none" />
<path d="M-228.7418888472508,-87.76188401915694 L-39.1762852886313,-241.84751119452062" stroke="#0d6d4d" stroke-width="0.1" fill="none" />
<path d="M-227.8495124655725,-90.05331570353707 L12.29021016874482,-244.69154201567343" stroke="#0d6d4d" stroke-width="0.1" fill="none" />
<path d="M-226.9341822344914,-92.33567530246721 L63.212703625291404,-236.7047825887366" stroke="#0d6d4d" stroke-width="0.1" fill="none" />
<path d="M-225.99599036553815,-94.60873288814086 L111.33721097925199,-218.24075112444407" stroke="#0d6d4d" stroke-width="0.1" fill="none" />
<path d="M-225.03503137335372,-96.87225946984879 L154.53359548519708,-190.11672169069575" stroke="#0d6d4d" stroke-width="0.1" fill="none" />
<path d="M-224.05140206616792,-99.12602701704718 L190.88985407099045,-153.57754918202068" stroke="#0d6d4d" stroke-width="0.1" fill="none" />
<path d="M-223.0452015360472,-101.3698084823292 L218.79674839637585,-110.24056826401527" stroke="#0d6d4d" stroke-width="0.1" fill="none" />
<path d="M-222.0165311489112,-103.6033778242994 L237.01903462568978,-62.02400523270053" stroke="#0d6d4d" stroke-width="0.1" fill="none" />
<path d="M-220.96549453432215,-105.82651003034375 L244.75013906878937,-11.062071497159476" stroke="#0d6d4d" stroke-width="0.1" fill="none" />
<path d="M-219.89219757504384,-108.0389811392994 L241.64785958039596,40.38950309440851" stroke="#0d6d4d" stroke-width="0.1" fill="none" />
<path d="M-218.7967483963759,-110.24056826401515 L227.8495124655725,90.0533157035371" stroke="#0d6d4d" stroke-width="0.1" fill="none" />
<path d="M-217.67925735526032,-112.43104961380703 L203.965854443329,135.73109526266535" stroke="#0d6d4d" stroke-width="0.1" fill="none" />
<path d="M-216.5398370291648,-114.61020451680012 L171.05404870069316,175.40100462397842" stroke="#0d6d4d" stroke-width="0.1" fill="none" />
<path d="M-215.3786022047405,-116.77781344216093 L130.57087164173672,207.30713320751198" stroke="#0d6d4d" stroke-width="0.1" fill="none" />
<path d="M-214.19566986625946,-118.93365802221166 L84.30823154285513,230.03721893232043" stroke="#0d6d4d" stroke-width="0.1" fill="none" />
<path d="M-212.99115918382824,-121.0775210744304 L34.31385325430786,242.58515922216228" stroke="#0d6d4d" stroke-width="0.1" fill="none" />
<path d="M-211.76519150138378,-123.20918662332879 L-17.19936031616062,244.39554415887963" stroke="#0d6d4d" stroke-width="0.1" fill="none" />
<path d="M-210.51789032446794,-125.32843992221117 L-67.95127800181366,235.38824061095372" stroke="#0d6d4d" stroke-width="0.1" fill="none" />
<path d="M-209.2493813077864,-127.43506747480704 L-115.6954659021843,215.96193916909644" stroke="#0d6d4d" stroke-width="0.1" fill="none" />
<path d="M-207.95979224254907,-129.5288570567803 L-158.31862136506533,186.97650689074572" stroke="#0d6d4d" stroke-width="0.1" fill="none" />
<path d="M-206.64925304359727,-131.6095977371077 L-193.93411417542254,149.7149269745478" stroke="#0d6d4d" stroke-width="0.1" fill="none" />
<path d="M-205.317895736315,-133.67707989932933 L-220.96549453432203,105.82651003034402" stroke="#0d6d4d" stroke-width="0.1" fill="none" />
<path d="M-203.96585444332902,-135.73109526266532 L-238.21627151129792,57.25389058619162" stroke="#0d6d4d" stroke-width="0.1" fill="none" />
<path d="M-202.5932653709973,-137.77143690299766 L-244.92287336408577,6.147040188579057" stroke="#0d6d4d" stroke-width="0.1" fill="none" />
<path d="M-201.2002667956869,-139.79789927371732 L-240.78844554125075,-45.23189686303365" stroke="#0d6d4d" stroke-width="0.1" fill="none" />
<path d="M-199.78699904984455,-141.81027822642977 L-225.99599036553815,-94.60873288814086" stroke="#0d6d4d" stroke-width="0.1" fill="none" />
<path d="M-198.35360450785842,-143.80837103152268 L-201.2002667956869,-139.79789927371732" stroke="#0d6d4d" stroke-width="0.1" fill="none" />
<path d="M-196.90022757171636,-145.79197639858756 L-167.49880880783036,-178.79918637387" stroke="#0d6d4d" stroke-width="0.1" fill="none" />
<path d="M-195.4270146564573,-147.7608944966997 L-126.38334521087813,-209.8862788590717" stroke="#0d6d4d" stroke-width="0.1" fill="none" />
<path d="M-193.93411417542248,-149.7149269745479 L-79.67377120228261,-231.68316767172865" stroke="#0d6d4d" stroke-width="0.1" fill="none" />
<path d="M-192.42167652530335,-151.6538769804172 L-29.43759428351811,-243.2250563630297" stroke="#0d6d4d" stroke-width="0.1" fill="none" />
<path d="M-190.8898540709904,-153.57754918202073 L22.101579896478892,-244.00106591176925" stroke="#0d6d4d" stroke-width="0.1" fill="none" />
<path d="M-189.33880113022428,-155.48574978617617 L72.66247107560758,-233.97684778025902" stroke="#0d6d4d" stroke-width="0.1" fill="none" />
<path d="M-187.76867395804896,-157.37828655833025 L120.00710076631351,-213.5961042848485" stroke="#0d6d4d" stroke-width="0.1" fill="none" />
<path d="M-186.17963073107074,-159.25496884192384 L162.03985197534297,-183.76094898483996" stroke="#0d6d4d" stroke-width="0.1" fill="none" />
<path d="M-184.57183153152369,-161.1156075775989 L196.90022757171624,-145.79197639858774" stroke="#0d6d4d" stroke-width="0.1" fill="none" />
<path d="M-182.94543833114201,-162.960015322245 L223.0452015360471,-101.36980848232936" stroke="#0d6d4d" stroke-width="0.1" fill="none" />
<path d="M-181.30061497484306,-164.7880062678826 L239.31751797499004,-52.460705201992035" stroke="#0d6d4d" stroke-width="0.1" fill="none" />
<path d="M-179.63752716422195,-166.5993962603809 L244.99691477916068,-1.2295318998260223" stroke="#0d6d4d" stroke-width="0.1" fill="none" />
<path d="M-177.95634244085807,-168.3940028180103 L239.8320046099737,50.05606421565289" stroke="#0d6d4d" stroke-width="0.1" fill="none" />
<path d="M-176.25723016943635,-170.17164514982613 L224.0514020661679,99.1260270170472" stroke="#0d6d4d" stroke-width="0.1" fill="none" />
<path d="M-174.54036152068625,-171.93214417388083 L198.3536045078584,143.80837103152268" stroke="#0d6d4d" stroke-width="0.1" fill="none" />
<path d="M-172.80590945413675,-173.67532253526608 L163.8760744435535,182.12532010945353" stroke="#0d6d4d" stroke-width="0.1" fill="none" />
<path d="M-171.0540487006932,-175.40100462397837 L122.14489198751713,212.38084979902914" stroke="#0d6d4d" stroke-width="0.1" fill="none" />
<path d="M-169.28495574503353,-177.10901659261182 L75.00720592250995,233.23575853564606" stroke="#0d6d4d" stroke-width="0.1" fill="none" />
<path d="M-167.49880880783036,-178.79918637387 L24.54947328887257,243.7669447674129" stroke="#0d6d4d" stroke-width="0.1" fill="none" />
<path d="M-165.6957878277954,-180.47134369790183 L-26.994893536133098,243.50826623129828" stroke="#0d6d4d" stroke-width="0.1" fill="none" />
<path d="M-163.8760744435535,-182.1253201094535 L-77.3443844481797,232.47117282435727" stroke="#0d6d4d" stroke-width="0.1" fill="none" />
<path d="M-162.0398519753429,-183.76094898483998 L-124.27037817709841,211.14419979653937" stroke="#0d6d4d" stroke-width="0.1" fill="none" />
<path d="M-160.18730540654855,-185.37806554872978 L-165.69578782779553,180.47134369790172" stroke="#0d6d4d" stroke-width="0.1" fill="none" />
<path d="M-158.31862136506552,-186.97650689074555 L-199.78699904984433,141.81027822643003" stroke="#0d6d4d" stroke-width="0.1" fill="none" />
<path d="M-156.43398810449852,-188.5561119818756 L-225.0350313733537,96.87225946984886" stroke="#0d6d4d" stroke-width="0.1" fill="none" />
<path d="M-154.5335954851972,-190.1167216906957 L-240.3223302640704,47.64638051780086" stroke="#0d6d4d" stroke-width="0.1" fill="none" />
<path d="M-152.61763495512844,-191.65817879940099 L-244.97223347866048,-3.6884718348721384" stroke="#0d6d4d" stroke-width="0.1" fill="none" />
<path d="M-150.68629953059084,-193.1803280196435 L-238.77892218915684,-54.86006123022996" stroke="#0d6d4d" stroke-width="0.1" fill="none" />
<path d="M-148.7397837767689,-194.68301600817682 L-222.0165311489112,-103.6033778242994" stroke="#0d6d4d" stroke-width="0.1" fill="none" />
<path d="M-146.77828378813322,-196.16609138230345 L-195.4270146564573,-147.7608944966997" stroke="#0d6d4d" stroke-width="0.1" fill="none" />
<path d="M-144.80199716868478,-197.62940473512592 L-160.18730540654855,-185.37806554872978" stroke="#0d6d4d" stroke-width="0.1" fill="none" />
<path d="M-142.81112301204905,-199.07280865059747 L-117.85721987729183,-214.78984082771626" stroke="#0d6d4d" stroke-width="0.1" fill="none" />
<path d="M-140.80586188141802,-200.49615771837384 L-70.31041611904062,-234.6943658999239" stroke="#0d6d4d" stroke-width="0.1" fill="none" />
<path d="M-138.7864157893461,-201.89930854846122 L-19.651459962843244,-244.2106060787057" stroke="#0d6d4d" stroke-width="0.1" fill="none" />
<path d="M-136.75298817739878,-203.282119785662 L31.87732945024981,-242.9173436935293" stroke="#0d6d4d" stroke-width="0.1" fill="none" />
<path d="M-134.70578389565713,-204.64445212381526 L81.99513151943697,-230.87182246240062" stroke="#0d6d4d" stroke-width="0.1" fill="none" />
<path d="M-132.64500918208213,-205.98616831983003 L128.48358022587217,-208.60721371117987" stroke="#0d6d4d" stroke-width="0.1" fill="none" />
<path d="M-130.57087164173674,-207.30713320751195 L169.28495574503356,-177.10901659261177" stroke="#0d6d4d" stroke-width="0.1" fill="none" />
<path d="M-128.48358022587234,-208.60721371117975 L202.5932653709972,-137.7714369029978" stroke="#0d6d4d" stroke-width="0.1" fill="none" />
<path d="M-126.38334521087813,-209.8862788590717 L226.93418223449143,-92.33567530246717" stroke="#0d6d4d" stroke-width="0.1" fill="none" />
<path d="M-124.27037817709858,-211.14419979653928 L241.23030348446952,-42.81285648950261" stroke="#0d6d4d" stroke-width="0.1" fill="none" />
<path d="M-122.14489198751716,-212.38084979902914 L244.84883940803712,8.60498928164622" stroke="#0d6d4d" stroke-width="0.1" fill="none" />
<path d="M-120.00710076631368,-213.5961042848484 L237.62962262355745,59.64195211246598" stroke="#0d6d4d" stroke-width="0.1" fill="none" />
<path d="M-117.85721987729183,-214.78984082771626 L219.8921975750438,108.03898113929942" stroke="#0d6d4d" stroke-width="0.1" fill="none" />
<path d="M-115.69546590218427,-215.96193916909647 L192.42167652530333,151.65387698041724" stroke="#0d6d4d" stroke-width="0.1" fill="none" />
<path d="M-113.52205661883349,-217.11228123031265 L156.4339881044985,188.55611198187563" stroke="#0d6d4d" stroke-width="0.1" fill="none" />
<path d="M-111.33721097925194,-218.2407511244441 L113.52205661883346,217.11228123031265" stroke="#0d6d4d" stroke-width="0.1" fill="none" />
<path d="M-109.1411490875659,-219.34723516799957 L65.58529438649884,236.05840201152824" stroke="#0d6d4d" stroke-width="0.1" fill="none" />
<path d="M-106.93409217784044,-220.4316218923708 L14.745527984065538,244.55586152139378" stroke="#0d6d4d" stroke-width="0.1" fill="none" />
<path d="M-104.71626259179337,-221.49380205506105 L-36.74692023718814,242.22853641361442" stroke="#0d6d4d" stroke-width="0.1" fill="none" />
<path d="M-102.4878837563949,-222.53366865069134 L-86.61283824790128,229.1794411605083" stroke="#0d6d4d" stroke-width="0.1" fill="none" />
<path d="M-100.24918016136077,-223.55111692177928 L-132.64500918208205,205.98616831983009" stroke="#0d6d4d" stroke-width="0.1" fill="none" />
<path d="M-98.0003773365356,-224.5460443692933 L-172.80590945413675,173.67532253526605" stroke="#0d6d4d" stroke-width="0.1" fill="none" />
<path d="M-95.7417018291734,-225.51835076297817 L-205.31789573631482,133.6770798993296" stroke="#0d6d4d" stroke-width="0.1" fill="none" />
<path d="M-93.4733811811145,-226.4679381514524 L-228.74188884725086,87.76188401915681" stroke="#0d6d4d" stroke-width="0.1" fill="none" />
<path d="M-91.1956439058635,-227.3947108720758 L-242.04107176389843,37.96208080945208" stroke="#0d6d4d" stroke-width="0.1" fill="none" />
<path d="M-88.9087194655679,-228.29857556058678 L-244.62678228954007,-13.518039305534053" stroke="#0d6d4d" stroke-width="0.1" fill="none" />
<path d="M-86.61283824790125,-229.1794411605083 L-236.38456902910582,-64.3998099758369" stroke="#0d6d4d" stroke-width="0.1" fill="none" />
<path d="M-84.30823154285515,-230.03721893232043 L-217.67925735526032,-112.43104961380703" stroke="#0d6d4d" stroke-width="0.1" fill="none" />
<path d="M-81.99513151943695,-230.87182246240062 L-189.33880113022428,-155.48574978617617" stroke="#0d6d4d" stroke-width="0.1" fill="none" />
<path d="M-79.67377120228261,-231.68316767172865 L-152.61763495512844,-191.65817879940099" stroke="#0d6d4d" stroke-width="0.1" fill="none" />
<path d="M-77.34438444817967,-232.47117282435727 L-109.1411490875659,-219.34723516799957" stroke="#0d6d4d" stroke-width="0.1" fill="none" />
<path d="M-75.00720592250998,-233.23575853564603 L-60.83374473599961,-237.32731722537807" stroke="#0d6d4d" stroke-width="0.1" fill="none" />
<path d="M-72.66247107560757,-233.97684778025902 L-9.833654222035287,-244.80257197309314" stroke="#0d6d4d" stroke-width="0.1" fill="none" />
<path d="M-70.31041611904062,-234.6943658999239 L41.601703671315235,-241.44212194984553" stroke="#0d6d4d" stroke-width="0.1" fill="none" />
<path d="M-67.95127800181373,-235.3882406109537 L91.19564390586349,-227.3947108720758" stroke="#0d6d4d" stroke-width="0.1" fill="none" />
<path d="M-65.58529438649887,-236.05840201152824 L136.75298817739878,-203.282119785662" stroke="#0d6d4d" stroke-width="0.1" fill="none" />
<path d="M-63.21270362529156,-236.70478258873658 L176.25723016943635,-170.17164514982613" stroke="#0d6d4d" stroke-width="0.1" fill="none" />
<path d="M-60.83374473599961,-237.32731722537807 L207.9597922425491,-129.52885705678028" stroke="#0d6d4d" stroke-width="0.1" fill="none" />
<path d="M-58.448657377964786,-237.9259432065223 L230.45742278733348,-83.15272865168187" stroke="#0d6d4d" stroke-width="0.1" fill="none" />
<path d="M-56.05768182791771,-238.5006002258274 L242.7543083992789,-33.096008121641944" stroke="#0d6d4d" stroke-width="0.1" fill="none" />
<path d="M-53.66105895577381,-239.05123039161495 L244.30615160218085,18.425642168788368" stroke="#0d6d4d" stroke-width="0.1" fill="none" />
<path d="M-51.259030200366084,-239.57777823270246 L235.04426310629066,69.13171761804284" stroke="#0d6d4d" stroke-width="0.1" fill="none" />
<path d="M-48.8518375451239,-240.0801907039913 L215.37860220474056,116.77781344216086" stroke="#0d6d4d" stroke-width="0.1" fill="none" />
<path d="M-46.43972349369362,-240.55841719181078 L186.1796307310708,159.25496884192378" stroke="#0d6d4d" stroke-width="0.1" fill="none" />
<path d="M-44.02293104551018,-241.01240951901678 L148.73978377676895,194.68301600817676" stroke="#0d6d4d" stroke-width="0.1" fill="none" />
<path d="M-41.60170367131526,-241.44212194984553 L104.71626259179334,221.49380205506108" stroke="#0d6d4d" stroke-width="0.1" fill="none" />
<path d="M-39.1762852886313,-241.84751119452062 L56.05768182791768,238.5006002258274" stroke="#0d6d4d" stroke-width="0.1" fill="none" />
<path d="M-36.746920237188235,-242.22853641361442 L4.917817940518964,244.95063802061" stroke="#0d6d4d" stroke-width="0.1" fill="none" />
<path d="M-34.31385325430778,-242.58515922216228 L-46.43972349369364,240.55841719181078" stroke="#0d6d4d" stroke-width="0.1" fill="none" />
<path d="M-31.877329450249817,-242.9173436935293 L-95.7417018291731,225.5183507629783" stroke="#0d6d4d" stroke-width="0.1" fill="none" />
<path d="M-29.43759428351811,-243.2250563630297 L-140.80586188141805,200.4961577183738" stroke="#0d6d4d" stroke-width="0.1" fill="none" />
<path d="M-26.994893536133407,-243.50826623129825 L-179.63752716422195,166.5993962603809" stroke="#0d6d4d" stroke-width="0.1" fill="none" />
<path d="M-24.549473288872598,-243.7669447674129 L-210.517890324468,125.32843992221106" stroke="#0d6d4d" stroke-width="0.1" fill="none" />
<path d="M-22.101579896479098,-244.00106591176922 L-232.080092771874,78.5100664819382" stroke="#0d6d4d" stroke-width="0.1" fill="none" />
<path d="M-19.651459962843244,-244.2106060787057 L-243.36972598838963,28.216599234070525" stroke="#0d6d4d" stroke-width="0.1" fill="none" />
<path d="M-17.199360316160604,-244.39554415887963 L-243.8870765456768,-23.32582032862257" stroke="#0d6d4d" stroke-width="0.1" fill="none" />
<path d="M-14.745527984065566,-244.55586152139378 L-233.60924493799644,-73.83576829355256" stroke="#0d6d4d" stroke-width="0.1" fill="none" />
<path d="M-12.290210168744792,-244.69154201567343 L-212.99115918382824,-121.0775210744304" stroke="#0d6d4d" stroke-width="0.1" fill="none" />
<path d="M-9.833654222035287,-244.80257197309314 L-182.94543833114201,-162.960015322245" stroke="#0d6d4d" stroke-width="0.1" fill="none" />
<path d="M-7.376107620504102,-244.88894020835392 L-144.80199716868478,-197.62940473512592" stroke="#0d6d4d" stroke-width="0.1" fill="none" />
<path d="M-4.917817940518995,-244.95063802061 L-100.24918016136077,-223.55111692177928" stroke="#0d6d4d" stroke-width="0.1" fill="none" />
<path d="M-2.4590328333055167,-244.98765919434538 L-51.259030200366084,-239.57777823270246" stroke="#0d6d4d" stroke-width="0.1" fill="none" />
</svg>