<?xml version="1.0" encoding="UTF-8"?>
<svg xmlns="http://www.w3.org/2000/svg" xmlns:xlink="http://www.w3.org/1999/xlink"
     width="500.0" height="500" viewBox="-250.0 -250.0 500 500">
<defs>
</defs>
<circle cx="0" cy="0" r="245.0" fill="white" stroke-width="2" stroke="black" />
<path d="M0.0,-245.0 L0.0,-245.0" stroke="#0d6d4d" stroke-width="0.1" fill="none" />
<path d="M2.240697146714669,-244.98975341082473 L46.766533397236934,-240.49509632008116" stroke="#0d6d4d" stroke-width="0.1" fill="none" />
<path d="M4.481206868914002,-244.95901450038124 L91.81324044020236,-227.14605186942958" stroke="#0d6d4d" stroke-width="0.1" fill="none" />
<path d="M6.721341757759905,-244.90778583984502 L133.4835409139895,-205.44377407228308" stroke="#0d6d4d" stroke-width="0.1" fill="none" />
<path d="M8.960914435767455,-244.83607171426937 L170.24502102310706,-176.18635820301705" stroke="#0d6d4d" stroke-width="0.1" fill="none" />
<path d="M11.199737572478202,-244.74387812222724 L200.745787485736,-140.4497376527693" stroke="#0d6d4d" stroke-width="0.1" fill="none" />
<path d="M13.437623900129555,-244.63121277530934 L223.8641830359348,-99.5481167760269" stroke="#0d6d4d" stroke-width="0.1" fill="none" />
<path d="M15.674386229318895,-244.49808509747913 L238.75003505992458,-54.98564138831865" stroke="#0d6d4d" stroke-width="0.1" fill="none" />
<path d="M17.90983746466116,-244.34450622428452 L244.85592045924335,-8.40108421911706" stroke="#0d6d4d" stroke-width="0.1" fill="none" />
<path d="M20.143790620438562,-244.17048900192654 L241.95729698405796,38.49242050285189" stroke="#0d6d4d" stroke-width="0.1" fill="none" />
<path d="M22.376058836241093,-243.97604798618465 L230.16076071240977,83.97037708790432" stroke="#0d6d4d" stroke-width="0.1" fill="none" />
<path d="M24.606455392596637,-243.76119944119932 L209.90012600887385,126.36034623828346" stroke="#0d6d4d" stroke-width="0.1" fill="none" />
<path d="M26.834793726589186,-243.52596133811156 L181.9204721210702,164.10344854160417" stroke="#0d6d4d" stroke-width="0.1" fill="none" />
<path d="M29.06088744746402,-243.27035335355976 L147.25074309603556,195.8116918308642" stroke="#0d6d4d" stroke-width="0.1" fill="none" />
<path d="M31.284550352218492,-242.99439686803376 L107.1659086469675,220.31901421318545" stroke="#0d6d4d" stroke-width="0.1" fill="none" />
<path d="M33.50559644117711,-242.69811496408656 L63.14007749401721,236.72416567399597" stroke="#0d6d4d" stroke-width="0.1" fill="none" />
<path d="M35.72383993354958,-242.38153242440345 L16.792287423081888,244.42385129749636" stroke="#0d6d4d" stroke-width="0.1" fill="none" />
<path d="M37.939095282970506,-242.04467572972902 L-30.17303438178382,243.13491727062916" stroke="#0d6d4d" stroke-width="0.1" fill="none" />
<path d="M40.15117719301962,-241.6875730566525 L-76.02875117750023,232.9047637863806" stroke="#0d6d4d" stroke-width="0.1" fill="none" />
<path d="M42.359900632720986,-241.3102542752504 L-119.0885316388561,214.10960191476974" stroke="#0d6d4d" stroke-width="0.1" fill="none" />
<path d="M44.56508085201998,-240.91275094658837 L-157.76886422742828,187.4406185446135" stroke="#0d6d4d" stroke-width="0.1" fill="none" />
<path d="M46.766533397236934,-240.49509632008116 L-190.6472903912268,153.87855817651544" stroke="#0d6d4d" stroke-width="0.1" fill="none" />
<path d="M48.9640741264957,-240.05732533071145 L-216.51471508522962,114.65765631462139" stroke="#0d6d4d" stroke-width="0.1" fill="none" />
<path d="M51.15751922512655,-239.5994745961076 L-234.41987090785256,71.22025079670628" stroke="#0d6d4d" stroke-width="0.1" fill="none" />
<path d="M53.34668522104128,-239.1215824134809 L-243.70430069701533,25.163740218392412" stroke="#0d6d4d" stroke-width="0.1" fill="none" />
<path d="M55.53138900007989,-238.6236887564221 L-244.02657211048802,-21.818159959189682" stroke="#0d6d4d" stroke-width="0.1" fill="none" />
<path d="M57.711447821327354,-238.1058352715578 L-235.37483370601367,-67.99770332788026" stroke="#0d6d4d" stroke-width="0.1" fill="none" />
<path d="M59.88667933239901,-237.56806527506683 L-218.06725077482506,-111.67664992964984" stroke="#0d6d4d" stroke-width="0.1" fill="none" />
<path d="M62.05690158469361,-237.0104237490572 L-192.7403049008993,-151.24871856220258" stroke="#0d6d4d" stroke-width="0.1" fill="none" />
<path d="M64.22193304861246,-236.43295733780334 L-160.3253875264289,-185.2586573267236" stroke="#0d6d4d" stroke-width="0.1" fill="none" />
<path d="M66.38159262874362,-235.83571434384473 L-122.01454828867492,-212.4557601146898" stroke="#0d6d4d" stroke-width="0.1" fill="none" />
<path d="M68.53569967900975,-235.21874472394538 L-79.21665772366144,-231.83986097971217" stroke="#0d6d4d" stroke-width="0.1" fill="none" />
<path d="M70.68407401777831,-234.58210008491534 L-33.50559644117702,-242.69811496408659" stroke="#0d6d4d" stroke-width="0.1" fill="none" />
<path d="M72.82653594293306,-233.9258336792939 L13.437623900129555,-244.63121277530934" stroke="#0d6d4d" stroke-width="0.1" fill="none" />
<path d="M74.96290624690522,-233.2500004008954 L59.88667933239901,-237.56806527506683" stroke="#0d6d4d" stroke-width="0.1" fill="none" />
<path d="M77.09300623166351,-232.55465678021736 L104.13341866587139,-221.7684177626705" stroke="#0d6d4d" stroke-width="0.1" fill="none" />
<path d="M79.21665772366147,-231.83986097971214 L144.55068027729956,-197.81329791338578" stroke="#0d6d4d" stroke-width="0.1" fill="none" />
<path d="M81.33368308874081,-231.105672788922 L179.6521305294137,-166.5836486460856" stroke="#0d6d4d" stroke-width="0.1" fill="none" />
<path d="M83.44390524698973,-230.35215361947758 L208.14692328008115,-129.22793169062177" stroke="#0d6d4d" stroke-width="0.1" fill="none" />
<path d="M85.54714768755501,-229.5793664999615 L228.98717039280402,-87.11989322477925" stroke="#0d6d4d" stroke-width="0.1" fill="none" />
<path d="M87.64323448340625,-228.7873760706361 L241.4064775336351,-41.808044737855575" stroke="#0d6d4d" stroke-width="0.1" fill="none" />
<path d="M89.73199030605142,-227.97624857803652 L244.94812811122117,5.041283051841672" stroke="#0d6d4d" stroke-width="0.1" fill="none" />
<path d="M91.81324044020236,-227.14605186942958 L239.48187890335853,51.70521904911655" stroke="#0d6d4d" stroke-width="0.1" fill="none" />
<path d="M93.88681079838884,-226.29685538713866 L225.20874971553167,96.46770989075573" stroke="#0d6d4d" stroke-width="0.1" fill="none" />
<path d="M95.9525279355204,-225.42873016273498 L202.6536309330647,137.6826273341891" stroke="#0d6d4d" stroke-width="0.1" fill="none" />
<path d="M98.01021906339416,-224.54174881109634 L172.6459808221139,173.83430416914342" stroke="#0d6d4d" stroke-width="0.1" fill="none" />
<path d="M100.05971206514772,-223.63598552433314 L136.2893224309285,203.59327246085124" stroke="#0d6d4d" stroke-width="0.1" fill="none" />
<path d="M102.10083550965618,-222.71151606558232 L94.9206618344147,225.8651543663092" stroke="#0d6d4d" stroke-width="0.1" fill="none" />
<path d="M104.13341866587139,-221.7684177626705 L50.06132010485438,239.83090757731645" stroke="#0d6d4d" stroke-width="0.1" fill="none" />
<path d="M106.15729151710303,-220.8067695016455 L3.3609871494823165,244.9769453752353" stroke="#0d6d4d" stroke-width="0.1" fill="none" />
<path d="M108.17228477523973,-219.826651720178 L-43.46294518040303,241.11402364077725" stroke="#0d6d4d" stroke-width="0.1" fill="none" />
<path d="M110.17822989490911,-218.82814640083336 L-88.68853970062861,228.38420025424267" stroke="#0d6d4d" stroke-width="0.1" fill="none" />
<path d="M112.17495908757611,-217.81133706421397 L-130.6526376586991,207.25561095619267" stroke="#0d6d4d" stroke-width="0.1" fill="none" />
<path d="M114.16230533557761,-216.7763087619732 L-167.81202093775119,178.50525378483331" stroke="#0d6d4d" stroke-width="0.1" fill="none" />
<path d="M116.14010240609278,-215.72314806970135 L-198.80016347674535,143.19041518767702" stroke="#0d6d4d" stroke-width="0.1" fill="none" />
<path d="M118.1081848650477,-214.65194307968355 L-222.4774848890877,102.60978860433227" stroke="#0d6d4d" stroke-width="0.1" fill="none" />
<path d="M120.06638809095323,-213.56278339353187 L-237.97325821672845,58.25571537380939" stroke="#0d6d4d" stroke-width="0.1" fill="none" />
<path d="M122.01454828867487,-212.45576011468984 L-244.71763067365242,11.75930429378606" stroke="#0d6d4d" stroke-width="0.1" fill="none" />
<path d="M123.95250250313347,-211.33096584081258 L-242.46257982475802,-35.169551955105305" stroke="#0d6d4d" stroke-width="0.1" fill="none" />
<path d="M125.8800886329358,-210.18849465602116 L-231.29103454243366,-80.80505764053852" stroke="#0d6d4d" stroke-width="0.1" fill="none" />
<path d="M127.79714544393345,-209.0284421230329 L-211.61382532017103,-123.4689796400867" stroke="#0d6d4d" stroke-width="0.1" fill="none" />
<path d="M129.70351258270964,-207.85090527516806 L-184.1545760945897,-161.59236400096998" stroke="#0d6d4d" stroke-width="0.1" fill="none" />
<path d="M131.59903058999166,-206.65598260823333 L-149.923093174948,-193.7732337885082" stroke="#0d6d4d" stroke-width="0.1" fill="none" />
<path d="M133.4835409139895,-205.44377407228308 L-110.17822989490912,-218.82814640083333" stroke="#0d6d4d" stroke-width="0.1" fill="none" />
<path d="M135.35688592365744,-204.21438106325905 L-66.38159262874358,-235.83571434384473" stroke="#0d6d4d" stroke-width="0.1" fill="none" />
<path d="M137.21890892187966,-202.96790641450903 L-20.14379062043865,-244.17048900192654" stroke="#0d6d4d" stroke-width="0.1" fill="none" />
<path d="M139.06945415857697,-201.70445438818516 L26.834793726589186,-243.52596133811156" stroke="#0d6d4d" stroke-width="0.1" fill="none" />
<path d="M140.9083668437347,-200.42413066652296 L72.82653594293306,-233.9258336792939" stroke="#0d6d4d" stroke-width="0.1" fill="none" />
<path d="M142.73549316035042,-199.1270423430016 L116.14010240609278,-215.72314806970135" stroke="#0d6d4d" stroke-width="0.1" fill="none" />
<path d="M144.55068027729956,-197.81329791338578 L155.18264866749445,-189.58730324718738" stroke="#0d6d4d" stroke-width="0.1" fill="none" />
<path d="M146.3537763621197,-196.48300726665056 L188.5183958673309,-156.47943768945592" stroke="#0d6d4d" stroke-width="0.1" fill="none" />
<path d="M148.14463059371022,-195.13628167578972 L214.9214311057377,-117.61708401189705" stroke="#0d6d4d" stroke-width="0.1" fill="none" />
<path d="M149.9230931749479,-193.7732337885083 L233.42079005123298,-74.42939454179522" stroke="#0d6d4d" stroke-width="0.1" fill="none" />
<path d="M151.68901534521703,-192.39397761779998 L243.3361638859417,-28.504584636056915" stroke="#0d6d4d" stroke-width="0.1" fill="none" />
<path d="M153.44224939285232,-190.99862853241044 L244.30291747455152,18.468473500061233" stroke="#0d6d4d" stroke-width="0.1" fill="none" />
<path d="M155.18264866749445,-189.58730324718738 L236.28549872074495,64.76235862203312" stroke="#0d6d4d" stroke-width="0.1" fill="none" />
<path d="M156.9100675923568,-188.16011981331755 L219.57874598572585,108.67462588542038" stroke="#0d6d4d" stroke-width="0.1" fill="none" />
<path d="M158.62436167640215,-186.71719760845264 L194.79704548888586,148.59041378501152" stroke="#0d6d4d" stroke-width="0.1" fill="none" />
<path d="M160.32538752642878,-185.2586573267237 L162.85173742420753,183.04183024084134" stroke="#0d6d4d" stroke-width="0.1" fill="none" />
<path d="M162.01300285906487,-183.78462096864536 L124.91760167623544,210.76193392417278" stroke="#0d6d4d" stroke-width="0.1" fill="none" />
<path d="M163.68706651266945,-182.2952118309116 L82.3896556141579,230.73132567508137" stroke="#0d6d4d" stroke-width="0.1" fill="none" />
<path d="M165.3474384591405,-180.79055449608185 L36.831852713195055,242.21563662512276" stroke="#0d6d4d" stroke-width="0.1" fill="none" />
<path d="M166.99397981562726,-179.27077482216077 L-10.080431402672996,244.7925344097242" stroke="#0d6d4d" stroke-width="0.1" fill="none" />
<path d="M168.6265528561474,-177.73599993207037 L-56.62201043673661,238.36725432429282" stroke="#0d6d4d" stroke-width="0.1" fill="none" />
<path d="M170.24502102310706,-176.18635820301705 L-101.08133066932372,223.17608427006428" stroke="#0d6d4d" stroke-width="0.1" fill="none" />
<path d="M171.84924893872332,-174.6219792557532 L-141.82341287331232,199.7776753317697" stroke="#0d6d4d" stroke-width="0.1" fill="none" />
<path d="M173.43910241634808,-173.042993943735 L-177.34997822381814,169.0324975382285" stroke="#0d6d4d" stroke-width="0.1" fill="none" />
<path d="M175.01444847169222,-171.4495343421772 L-206.35454708833214,132.07119631459886" stroke="#0d6d4d" stroke-width="0.1" fill="none" />
<path d="M176.57515533394871,-169.84173373700554 L-227.77048445450978,90.25301330901877" stroke="#0d6d4d" stroke-width="0.1" fill="none" />
<path d="M178.12109245681532,-168.21972661370796 L-240.81022513827094,45.11580065625858" stroke="#0d6d4d" stroke-width="0.1" fill="none" />
<path d="M179.6521305294137,-166.5836486460856 L-244.99423627601186,-1.680533109961501" stroke="#0d6d4d" stroke-width="0.1" fill="none" />
<path d="M181.16814148710594,-164.93363668490412 L-240.16865201327354,-48.4150657350284" stroke="#0d6d4d" stroke-width="0.1" fill="none" />
<path d="M182.66899852220664,-163.2698287464468 L-226.51093187905985,-93.3691476842319" stroke="#0d6d4d" stroke-width="0.1" fill="none" />
<path d="M184.15457609458966,-161.59236400097 L-204.52333476065166,-134.88960500491658" stroke="#0d6d4d" stroke-width="0.1" fill="none" />
<path d="M185.6247499421891,-159.9013827610623 L-175.01444847169236,-171.44953434217706" stroke="#0d6d4d" stroke-width="0.1" fill="none" />
<path d="M187.0793970913933,-158.19702646990802 L-139.06945415857703,-201.7044543881851" stroke="#0d6d4d" stroke-width="0.1" fill="none" />
<path d="M188.5183958673309,-156.47943768945592 L-98.01021906339416,-224.54174881109634" stroke="#0d6d4d" stroke-width="0.1" fill="none" />
<path d="M189.9416259040486,-154.74876008849455 L-53.34668522104142,-239.12158241348087" stroke="#0d6d4d" stroke-width="0.1" fill="none" />
<path d="M191.34896815457924,-153.00513843063513 L-6.721341757759977,-244.90778583984502" stroke="#0d6d4d" stroke-width="0.1" fill="none" />
<path d="M192.7403049008993,-151.24871856220258 L40.15117719301962,-241.6875730566525" stroke="#0d6d4d" stroke-width="0.1" fill="none" />
<path d="M194.11551976377578,-149.47964740003624 L85.54714768755501,-229.5793664999615" stroke="#0d6d4d" stroke-width="0.1" fill="none" />
<path d="M195.47449771250075,-147.69807291920074 L127.79714544393345,-209.0284421230329" stroke="#0d6d4d" stroke-width="0.1" fill="none" />
<path d="M196.817125074513,-145.90414414060865 L165.3474384591405,-180.79055449608185" stroke="#0d6d4d" stroke-width="0.1" fill="none" />
<path d="M198.14328954490648,-144.0980111185555 L196.817125074513,-145.90414414060865" stroke="#0d6d4d" stroke-width="0.1" fill="none" />
<path d="M199.4528801958241,-142.27982492816838 L221.04891625299393,-105.65214916591559" stroke="#0d6d4d" stroke-width="0.1" fill="none" />
<path d="M200.745787485736,-140.4497376527693 L237.1516945639632,-61.514825574333784" stroke="#0d6d4d" stroke-width="0.1" fill="none" />
<path d="M202.0219032686027,-138.60790237115387 L244.5332847807269,-15.115311255410157" stroke="#0d6d4d" stroke-width="0.1" fill="none" />
<path d="M203.2811208029209,-136.75447314478706 L242.9222309609899,31.840064461861353" stroke="#0d6d4d" stroke-width="0.1" fill="none" />
<path d="M204.52333476065164,-134.8896050049166 L232.3777791641896,77.62453059902604" stroke="#0d6d4d" stroke-width="0.1" fill="none" />
<path d="M205.74844123603097,-133.01345393960537 L213.2876986940169,120.55437605417013" stroke="#0d6d4d" stroke-width="0.1" fill="none" />
<path d="M206.95633775426091,-131.12617688068343 L186.35402198932914,159.0508676128509" stroke="#0d6d4d" stroke-width="0.1" fill="none" />
<path d="M208.14692328008115,-129.22793169062177 L152.56722757502996,191.69830742619772" stroke="#0d6d4d" stroke-width="0.1" fill="none" />
<path d="M209.3200982262202,-127.31887714932739 L113.16981548776936,217.2960949084549" stroke="#0d6d4d" stroke-width="0.1" fill="none" />
<path d="M210.47576446172533,-125.39917294086239 L69.61061468012853,234.90287849205822" stroke="#0d6d4d" stroke-width="0.1" fill="none" />
<path d="M211.613825320171,-123.46897964008676 L23.49150273588429,243.871173571642" stroke="#0d6d4d" stroke-width="0.1" fill="none" />
<path d="M212.73418560774428,-121.52845869922737 L-23.491502735884225,243.871173571642" stroke="#0d6d4d" stroke-width="0.1" fill="none" />
<path d="M213.83675161120763,-119.57777243437297 L-69.61061468012849,234.90287849205825" stroke="#0d6d4d" stroke-width="0.1" fill="none" />
<path d="M214.9214311057377,-117.61708401189705 L-113.16981548776941,217.29609490845488" stroke="#0d6d4d" stroke-width="0.1" fill="none" />
<path d="M215.9881333626391,-115.64655743481003 L-152.56722757502982,191.69830742619783" stroke="#0d6d4d" stroke-width="0.1" fill="none" />
<path d="M217.03676915693404,-113.66635752904078 L-186.35402198932917,159.05086761285088" stroke="#0d6d4d" stroke-width="0.1" fill="none" />
<path d="M218.067250774825,-111.67664992964994 L-213.28769869401685,120.55437605417019" stroke="#0d6d4d" stroke-width="0.1" fill="none" />
<path d="M219.07949202103214,-109.67760106697497 L-232.37777916418955,77.62453059902626" stroke="#0d6d4d" stroke-width="0.1" fill="none" />
<path d="M220.07340822600284,-107.66937815270929 L-242.92223096098988,31.840064461861523" stroke="#0d6d4d" stroke-width="0.1" fill="none" />
<path d="M221.04891625299393,-105.65214916591559 L-244.5332847807269,-15.115311255410099" stroke="#0d6d4d" stroke-width="0.1" fill="none" />
<path d="M222.005934505026,-103.62608283897498 L-237.1516945639632,-61.514825574333834" stroke="#0d6d4d" stroke-width="0.1" fill="none" />
<path d="M222.94438293170828,-101.59134864347368 L-221.048916252994,-105.65214916591549" stroke="#0d6d4d" stroke-width="0.1" fill="none" />
<path d="M223.8641830359348,-99.5481167760269 L-196.81712507451303,-145.90414414060862" stroke="#0d6d4d" stroke-width="0.1" fill="none" />
<path d="M224.76525788045004,-97.49655814404318 L-165.34743845914065,-180.79055449608174" stroke="#0d6d4d" stroke-width="0.1" fill="none" />
<path d="M225.64753209428466,-95.43684435142846 L-127.79714544393353,-209.02844212303287" stroke="#0d6d4d" stroke-width="0.1" fill="none" />
<path d="M226.51093187905983,-93.36914768423202 L-85.54714768755521,-229.57936649996142" stroke="#0d6d4d" stroke-width="0.1" fill="none" />
<path d="M227.35538501516007,-91.2936410962359 L-40.151177193019755,-241.68757305665247" stroke="#0d6d4d" stroke-width="0.1" fill="none" />
<path d="M228.18082086777434,-89.21049819448761 L6.721341757759905,-244.90778583984502" stroke="#0d6d4d" stroke-width="0.1" fill="none" />
<path d="M228.98717039280402,-87.11989322477925 L53.34668522104128,-239.1215824134809" stroke="#0d6d4d" stroke-width="0.1" fill="none" />
<path d="M229.7743661426384,-85.02200105707198 L98.01021906339416,-224.54174881109634" stroke="#0d6d4d" stroke-width="0.1" fill="none" />
<path d="M230.5423422717963,-82.91699717086921 L139.06945415857697,-201.70445438818516" stroke="#0d6d4d" stroke-width="0.1" fill="none" />
<path d="M231.2910345424336,-80.80505764053868 L175.01444847169222,-171.4495343421772" stroke="#0d6d4d" stroke-width="0.1" fill="none" />
<path d="M232.02038032971686,-78.68635912058414 L204.52333476065164,-134.8896050049166" stroke="#0d6d4d" stroke-width="0.1" fill="none" />
<path d="M232.73031862706105,-76.56107883086966 L226.51093187905983,-93.36914768423202" stroke="#0d6d4d" stroke-width="0.1" fill="none" />
<path d="M233.42079005123298,-74.42939454179522 L240.16865201327354,-48.415065735028406" stroke="#0d6d4d" stroke-width="0.1" fill="none" />
<path d="M234.0917368473182,-72.29148455942737 L244.99423627601186,-1.6805331099615612" stroke="#0d6d4d" stroke-width="0.1" fill="none" />
<path d="M234.74310289355196,-70.14752771058488 L240.81022513827094,45.115800656258685" stroke="#0d6d4d" stroke-width="0.1" fill="none" />
<path d="M235.37483370601367,-67.9977033278802 L227.77048445450978,90.25301330901877" stroke="#0d6d4d" stroke-width="0.1" fill="none" />
<path d="M235.9868764431841,-65.84219123471951 L206.3545470883322,132.0711963145988" stroke="#0d6d4d" stroke-width="0.1" fill="none" />
<path d="M236.57917991036533,-63.68117173026104 L177.3499782238182,169.03249753822845" stroke="#0d6d4d" stroke-width="0.1" fill="none" />
<path d="M237.1516945639632,-61.514825574333784 L141.82341287331238,199.77767533176967" stroke="#0d6d4d" stroke-width="0.1" fill="none" />
<path d="M237.70437251563112,-59.34333397231802 L101.08133066932378,223.17608427006425" stroke="#0d6d4d" stroke-width="0.1" fill="none" />
<path d="M238.2371675362759,-57.16687855998787 L56.62201043673666,238.3672543242928" stroke="#0d6d4d" stroke-width="0.1" fill="none" />
<path d="M238.75003505992458,-54.98564138831865 L10.080431402673167,244.7925344097242" stroke="#0d6d4d" stroke-width="0.1" fill="none" />
<path d="M239.2429321874521,-52.79980490825884 L-36.831852713195104,242.21563662512273" stroke="#0d6d4d" stroke-width="0.1" fill="none" />
<path d="M239.7158176901697,-50.609551955469065 L-82.38965561415786,230.73132567508137" stroke="#0d6d4d" stroke-width="0.1" fill="none" />
<path d="M240.16865201327354,-48.415065735028406 L-124.91760167623538,210.7619339241728" stroke="#0d6d4d" stroke-width="0.1" fill="none" />
<path d="M240.60139727915322,-46.2165298061103 L-162.85173742420747,183.04183024084136" stroke="#0d6d4d" stroke-width="0.1" fill="none" />
<path d="M241.0140172905601,-44.014128066628736 L-194.7970454888858,148.5904137850116" stroke="#0d6d4d" stroke-width="0.1" fill="none" />
<path d="M241.4064775336351,-41.808044737855575 L-219.57874598572582,108.67462588542043" stroke="#0d6d4d" stroke-width="0.1" fill="none" />
<path d="M241.77874518079548,-39.59846434901191 L-236.28549872074498,64.76235862203308" stroke="#0d6d4d" stroke-width="0.1" fill="none" />
<path d="M242.1307890934809,-37.385571721832285 L-244.30291747455152,18.46847350006129" stroke="#0d6d4d" stroke-width="0.1" fill="none" />
<path d="M242.462579824758,-35.169551955105526 L-243.3361638859417,-28.50458463605691" stroke="#0d6d4d" stroke-width="0.1" fill="none" />
<path d="M242.77408962178328,-32.950590409192195 L-233.420790051233,-74.42939454179506" stroke="#0d6d4d" stroke-width="0.1" fill="none" />
<path d="M243.06529242812482,-30.728872690519516 L-214.92143110573772,-117.61708401189698" stroke="#0d6d4d" stroke-width="0.1" fill="none" />
<path d="M243.3361638859417,-28.504584636056915 L-188.5183958673309,-156.47943768945592" stroke="#0d6d4d" stroke-width="0.1" fill="none" />
<path d="M243.58668133802115,-26.277912297770825 L-155.1826486674944,-189.5873032471874" stroke="#0d6d4d" stroke-width="0.1" fill="none" />
<path d="M243.8168238296742,-24.049041927062643 L-116.14010240609281,-215.72314806970132" stroke="#0d6d4d" stroke-width="0.1" fill="none" />
<path d="M244.02657211048802,-21.818159959189742 L-72.82653594293302,-233.92583367929393" stroke="#0d6d4d" stroke-width="0.1" fill="none" />
<path d="M244.2159086359364,-19.585452997670558 L-26.834793726589073,-243.52596133811159" stroke="#0d6d4d" stroke-width="0.1" fill="none" />
<path d="M244.38481756884715,-17.3511077986765 L20.143790620438562,-244.17048900192654" stroke="#0d6d4d" stroke-width="0.1" fill="none" />
<path d="M244.5332847807269,-15.115311255410157 L66.38159262874362,-235.83571434384473" stroke="#0d6d4d" stroke-width="0.1" fill="none" />
<path d="M244.66129785294268,-12.878250382472812 L110.17822989490911,-218.82814640083336" stroke="#0d6d4d" stroke-width="0.1" fill="none" />
<path d="M244.76884607776105,-10.640112300221572 L149.9230931749479,-193.7732337885083" stroke="#0d6d4d" stroke-width="0.1" fill="none" />
<path d="M244.85592045924335,-8.40108421911706 L184.15457609458966,-161.59236400097" stroke="#0d6d4d" stroke-width="0.1" fill="none" />
<path d="M244.92251371399846,-6.16135342406468 L211.613825320171,-123.46897964008676" stroke="#0d6d4d" stroke-width="0.1" fill="none" />
<path d="M244.96862027179193,-3.9211072587485734 L231.2910345424336,-80.80505764053868" stroke="#0d6d4d" stroke-width="0.1" fill="none" />
<path d="M244.99423627601186,-1.6805331099615612 L242.462579824758,-35.169551955105526" stroke="#0d6d4d" stroke-width="0.1" fill="none" />
<path d="M244.99935958399155,0.560181608069314 L244.71763067365242,11.759304293786" stroke="#0d6d4d" stroke-width="0.1" fill="none" />
<path d="M244.98398976718866,2.8008494693590076 L237.97325821672848,58.255715373809274" stroke="#0d6d4d" stroke-width="0.1" fill="none" />
<path d="M244.94812811122117,5.041283051841672 L222.47748488908766,102.60978860433232" stroke="#0d6d4d" stroke-width="0.1" fill="none" />
<path d="M244.89177761575974,7.281294953048078 L198.80016347674547,143.19041518767685" stroke="#0d6d4d" stroke-width="0.1" fill="none" />
<path d="M244.8149429942768,9.520697805780568 L167.81202093775124,178.50525378483331" stroke="#0d6d4d" stroke-width="0.1" fill="none" />
<path d="M244.71763067365242,11.759304293786 L130.65263765869923,207.25561095619256" stroke="#0d6d4d" stroke-width="0.1" fill="none" />
<path d="M244.59984879363654,13.996927167423337 L88.68853970062865,228.38420025424264" stroke="#0d6d4d" stroke-width="0.1" fill="none" />
<path d="M244.4616072061682,16.233379259326732 L43.46294518040308,241.11402364077722" stroke="#0d6d4d" stroke-width="0.1" fill="none" />
<path d="M244.30291747455152,18.468473500061233 L-3.360987149482256,244.9769453752353" stroke="#0d6d4d" stroke-width="0.1" fill="none" />
<path d="M244.1237928724885,20.702022933769964 L-50.06132010485433,239.83090757731645" stroke="#0d6d4d" stroke-width="0.1" fill="none" />
<path d="M243.9242483829685,22.93384073381263 L-94.92066183441464,225.86515436630924" stroke="#0d6d4d" stroke-width="0.1" fill="none" />
<path d="M243.70430069701533,25.163740218392302 L-136.28932243092845,203.59327246085127" stroke="#0d6d4d" stroke-width="0.1" fill="none" />
<path d="M243.46396821229078,27.3915348661709 L-172.64598082211393,173.8343041691434" stroke="#0d6d4d" stroke-width="0.1" fill="none" />
<path d="M243.203271031556,29.61703833187075 L-202.65363093306468,137.6826273341892" stroke="#0d6d4d" stroke-width="0.1" fill="none" />
<path d="M242.9222309609899,31.840064461861353 L-225.20874971553167,96.46770989075573" stroke="#0d6d4d" stroke-width="0.1" fill="none" />
<path d="M242.62087150836498,34.060427309730805 L-239.4818789033585,51.70521904911672" stroke="#0d6d4d" stroke-width="0.1" fill="none" />
<path d="M242.29921788108135,36.27794115183876 L-244.94812811122114,5.041283051841787" stroke="#0d6d4d" stroke-width="0.1" fill="none" />
<path d="M241.95729698405796,38.49242050285189 L-241.40647753363507,-41.808044737855624" stroke="#0d6d4d" stroke-width="0.1" fill="none" />
<path d="M241.5951374174823,40.70368013125893 L-228.987170392804,-87.11989322477936" stroke="#0d6d4d" stroke-width="0.1" fill="none" />
<path d="M241.21276947441797,42.911535074864055 L-208.1469232800812,-129.22793169062172" stroke="#0d6d4d" stroke-width="0.1" fill="none" />
<path d="M240.81022513827094,45.115800656258685 L-179.65213052941382,-166.5836486460855" stroke="#0d6d4d" stroke-width="0.1" fill="none" />
<path d="M240.3875380801141,47.31629249826846 L-144.55068027729968,-197.8132979133857" stroke="#0d6d4d" stroke-width="0.1" fill="none" />
<path d="M239.94474365587104,49.512826539375965 L-104.1334186658714,-221.7684177626705" stroke="#0d6d4d" stroke-width="0.1" fill="none" />
<path d="M239.48187890335853,51.70521904911655 L-59.88667933239917,-237.5680652750668" stroke="#0d6d4d" stroke-width="0.1" fill="none" />
<path d="M238.9989825391885,53.89328664344635 L-13.437623900129637,-244.63121277530934" stroke="#0d6d4d" stroke-width="0.1" fill="none" />
<path d="M238.49609495552957,56.076846300081996 L33.50559644117711,-242.69811496408656" stroke="#0d6d4d" stroke-width="0.1" fill="none" />
<path d="M237.97325821672848,58.255715373809274 L79.21665772366147,-231.83986097971214" stroke="#0d6d4d" stroke-width="0.1" fill="none" />
<path d="M237.4305160557915,60.429711611760546 L122.01454828867487,-212.45576011468984" stroke="#0d6d4d" stroke-width="0.1" fill="none" />
<path d="M236.8679138707263,62.5986531686599 L160.32538752642878,-185.2586573267237" stroke="#0d6d4d" stroke-width="0.1" fill="none" />
<path d="M236.28549872074495,64.76235862203312 L192.7403049008993,-151.24871856220258" stroke="#0d6d4d" stroke-width="0.1" fill="none" />
<path d="M235.68331932232712,66.92064698738336 L218.067250774825,-111.67664992964994" stroke="#0d6d4d" stroke-width="0.1" fill="none" />
<path d="M235.06142604514554,69.07333773332928 L235.37483370601367,-67.9977033278802" stroke="#0d6d4d" stroke-width="0.1" fill="none" />
<path d="M234.4198709078526,71.22025079670613 L244.02657211048802,-21.818159959189742" stroke="#0d6d4d" stroke-width="0.1" fill="none" />
<path d="M233.75870757372937,73.3612065976268 L243.70430069701533,25.163740218392302" stroke="#0d6d4d" stroke-width="0.1" fill="none" />
<path d="M233.0779913461967,75.49602605450332 L234.4198709078526,71.22025079670613" stroke="#0d6d4d" stroke-width="0.1" fill="none" />
<path d="M232.3777791641896,77.62453059902604 L216.51471508522965,114.65765631462133" stroke="#0d6d4d" stroke-width="0.1" fill="none" />
<path d="M231.6581295973942,79.74654219110008 L190.6472903912269,153.8785581765153" stroke="#0d6d4d" stroke-width="0.1" fill="none" />
<path d="M230.91910284134912,81.86188333373742 L157.76886422742825,187.44061854461353" stroke="#0d6d4d" stroke-width="0.1" fill="none" />
<path d="M230.16076071240977,83.97037708790432 L119.08853163885614,214.10960191476974" stroke="#0d6d4d" stroke-width="0.1" fill="none" />
<path d="M229.38316664257832,86.07184708732086 L76.02875117750027,232.9047637863806" stroke="#0d6d4d" stroke-width="0.1" fill="none" />
<path d="M228.58638567419734,88.16611755321371 L30.17303438178399,243.13491727062913" stroke="#0d6d4d" stroke-width="0.1" fill="none" />
<path d="M227.77048445450978,90.25301330901877 L-16.792287423081934,244.42385129749636" stroke="#0d6d4d" stroke-width="0.1" fill="none" />
<path d="M226.93553123008374,92.3323597950344 L-63.14007749401706,236.72416567399603" stroke="#0d6d4d" stroke-width="0.1" fill="none" />
<path d="M226.08159584110436,94.40398308302224 L-107.16590864696744,220.31901421318548" stroke="#0d6d4d" stroke-width="0.1" fill="none" />
<path d="M225.20874971553167,96.46770989075573 L-147.25074309603554,195.81169183086425" stroke="#0d6d4d" stroke-width="0.1" fill="none" />
<path d="M224.3170658631263,98.52336759651422 L-181.92047212107013,164.10344854160422" stroke="#0d6d4d" stroke-width="0.1" fill="none" />
<path d="M223.40661886934208,100.5707842535223 L-209.90012600887383,126.36034623828353" stroke="#0d6d4d" stroke-width="0.1" fill="none" />
<path d="M222.47748488908766,102.60978860433232 L-230.1607607124098,83.97037708790428" stroke="#0d6d4d" stroke-width="0.1" fill="none" />
<path d="M221.52974164035655,104.6402100951488 L-241.95729698405793,38.49242050285201" stroke="#0d6d4d" stroke-width="0.1" fill="none" />
<path d="M220.56346839772587,106.6618788900954 L-244.85592045924335,-8.401084219117054" stroke="#0d6d4d" stroke-width="0.1" fill="none" />
<path d="M219.57874598572585,108.67462588542038 L-238.7500350599246,-54.985641388318484" stroke="#0d6d4d" stroke-width="0.1" fill="none" />
<path d="M218.57565677207896,110.67828272364157 L-223.86418303593481,-99.5481167760268" stroke="#0d6d4d" stroke-width="0.1" fill="none" />
<path d="M217.5542846608104,112.67268180762844 L-200.745787485736,-140.44973765276927" stroke="#0d6d4d" stroke-width="0.1" fill="none" />
<path d="M216.51471508522965,114.65765631462133 L-170.245021023107,-176.1863582030171" stroke="#0d6d4d" stroke-width="0.1" fill="none" />
<path d="M215.4570350007846,116.63304021018523 L-133.48354091398957,-205.44377407228305" stroke="#0d6d4d" stroke-width="0.1" fill="none" />
<path d="M214.38133287778786,118.59866826209777 L-91.81324044020235,-227.14605186942958" stroke="#0d6d4d" stroke-width="0.1" fill="none" />
<path d="M213.2876986940169,120.55437605417013 L-46.76653339723706,-240.49509632008113" stroke="#0d6d4d" stroke-width="0.1" fill="none" />
<path d="M212.17622392718752,122.49999999999994 L0.0,-245.0" stroke="#0d6d4d" stroke-width="0.1" fill="none" />
<path d="M211.0470015473022,124.43537735665457 L46.766533397236934,-240.49509632008116" stroke="#0d6d4d" stroke-width="0.1" fill="none" />
<path d="M209.90012600887385,126.36034623828346 L91.81324044020236,-227.14605186942958" stroke="#0d6d4d" stroke-width="0.1" fill="none" />
<path d="M208.73569324302468,128.2747456296597 L133.4835409139895,-205.44377407228308" stroke="#0d6d4d" stroke-width="0.1" fill="none" />
<path d="M207.55380064946218,130.17841539964803 L170.24502102310706,-176.18635820301705" stroke="#0d6d4d" stroke-width="0.1" fill="none" />
<path d="M206.3545470883322,132.0711963145988 L200.745787485736,-140.4497376527693" stroke="#0d6d4d" stroke-width="0.1" fill="none" />
<path d="M205.13803287194943,133.95293005166775 L223.8641830359348,-99.5481167760269" stroke="#0d6d4d" stroke-width="0.1" fill="none" />
<path d="M203.904359756407,135.82345921205862 L238.75003505992458,-54.98564138831865" stroke="#0d6d4d" stroke-width="0.1" fill="none" />
<path d="M202.6536309330647,137.6826273341891 L244.85592045924335,-8.40108421911706" stroke="#0d6d4d" stroke-width="0.1" fill="none" />
<path d="M201.38595101991802,139.53027890677774 L241.95729698405796,38.49242050285189" stroke="#0d6d4d" stroke-width="0.1" fill="none" />
<path d="M200.10142605284662,141.36625938185233 L230.16076071240977,83.97037708790432" stroke="#0d6d4d" stroke-width="0.1" fill="none" />
<path d="M198.80016347674547,143.19041518767685 L209.90012600887385,126.36034623828346" stroke="#0d6d4d" stroke-width="0.1" fill="none" />
<path d="M197.4822721365371,145.00259374159728 L181.9204721210702,164.10344854160417" stroke="#0d6d4d" stroke-width="0.1" fill="none" />
<path d="M196.14786226806768,146.80264346280399 L147.25074309603556,195.8116918308642" stroke="#0d6d4d" stroke-width="0.1" fill="none" />
<path d="M194.79704548888586,148.59041378501152 L107.1659086469675,220.31901421318545" stroke="#0d6d4d" stroke-width="0.1" fill="none" />
<path d="M193.42993478890662,150.36575516905216 L63.14007749401721,236.72416567399597" stroke="#0d6d4d" stroke-width="0.1" fill="none" />
<path d="M192.04664452096023,152.1285191153846 L16.792287423081888,244.42385129749636" stroke="#0d6d4d" stroke-width="0.1" fill="none" />
<path d="M190.6472903912269,153.8785581765153 L-30.17303438178382,243.13491727062916" stroke="#0d6d4d" stroke-width="0.1" fill="none" />
<path d="M189.23198944955868,155.6157259693316 L-76.02875117750023,232.9047637863806" stroke="#0d6d4d" stroke-width="0.1" fill="none" />
<path d="M187.80086007968882,157.33987718734608 L-119.0885316388561,214.10960191476974" stroke="#0d6d4d" stroke-width="0.1" fill="none" />
<path d="M186.35402198932914,159.0508676128509 L-157.76886422742828,187.4406185446135" stroke="#0d6d4d" stroke-width="0.1" fill="none" />
<path d="M184.89159620015738,160.74855412898106 L-190.6472903912268,153.87855817651544" stroke="#0d6d4d" stroke-width="0.1" fill="none" />
<path d="M183.4137050376939,162.43279473168533 L-216.51471508522962,114.65765631462139" stroke="#0d6d4d" stroke-width="0.1" fill="none" />
<path d="M181.9204721210702,164.10344854160417 L-234.41987090785256,71.22025079670628" stroke="#0d6d4d" stroke-width="0.1" fill="none" />
<path d="M180.41202235268804,165.76037581585408 L-243.70430069701533,25.163740218392412" stroke="#0d6d4d" stroke-width="0.1" fill="none" />
<path d="M178.88848190777273,167.40343795971597 L-244.02657211048802,-21.818159959189682" stroke="#0d6d4d" stroke-width="0.1" fill="none" />
<path d="M177.3499782238182,169.03249753822845 L-235.37483370601367,-67.99770332788026" stroke="#0d6d4d" stroke-width="0.1" fill="none" />
<path d="M175.79663998992817,170.64741828768342 L-218.06725077482506,-111.67664992964984" stroke="#0d6d4d" stroke-width="0.1" fill="none" />
<path d="M174.22859713605135,172.24806512702403 L-192.7403049008993,-151.24871856220258" stroke="#0d6d4d" stroke-width="0.1" fill="none" />
<path d="M172.6459808221139,173.83430416914342 L-160.3253875264289,-185.2586573267236" stroke="#0d6d4d" stroke-width="0.1" fill="none" />
<path d="M171.04892342704787,175.40600273208415 L-122.01454828867492,-212.4557601146898" stroke="#0d6d4d" stroke-width="0.1" fill="none" />
<path d="M169.43755853771876,176.96302935013605 L-79.21665772366144,-231.83986097971217" stroke="#0d6d4d" stroke-width="0.1" fill="none" />
<path d="M167.81202093775124,178.50525378483331 L-33.50559644117702,-242.69811496408659" stroke="#0d6d4d" stroke-width="0.1" fill="none" />
<path d="M166.17244659625538,180.03254703584753 L13.437623900129555,-244.63121277530934" stroke="#0d6d4d" stroke-width="0.1" fill="none" />
<path d="M164.5189726564533,181.54478135177882 L59.88667933239901,-237.56806527506683" stroke="#0d6d4d" stroke-width="0.1" fill="none" />
<path d="M162.85173742420753,183.04183024084134 L104.13341866587139,-221.7684177626705" stroke="#0d6d4d" stroke-width="0.1" fill="none" />
<path d="M161.17088035645264,184.52356848144368 L144.55068027729956,-197.81329791338578" stroke="#0d6d4d" stroke-width="0.1" fill="none" />
<path d="M159.47654204953017,185.9898721326633 L179.6521305294137,-166.5836486460856" stroke="#0d6d4d" stroke-width="0.1" fill="none" />
<path d="M157.76886422742825,187.44061854461353 L208.14692328008115,-129.22793169062177" stroke="#0d6d4d" stroke-width="0.1" fill="none" />
<path d="M156.0479897299273,188.87568636870262 L228.98717039280402,-87.11989322477925" stroke="#0d6d4d" stroke-width="0.1" fill="none" />
<path d="M154.31406250065174,190.29495556778414 L241.4064775336351,-41.808044737855575" stroke="#0d6d4d" stroke-width="0.1" fill="none" />
<path d="M152.56722757502996,191.69830742619772 L244.94812811122117,5.041283051841672" stroke="#0d6d4d" stroke-width="0.1" fill="none" />
<path d="M150.80763106816264,193.0856245596988 L239.48187890335853,51.70521904911655" stroke="#0d6d4d" stroke-width="0.1" fill="none" />
<path d="M149.03542016260099,194.45679092527723 L225.20874971553167,96.46770989075573" stroke="#0d6d4d" stroke-width="0.1" fill="none" />
<path d="M147.25074309603556,195.8116918308642 L202.6536309330647,137.6826273341891" stroke="#0d6d4d" stroke-width="0.1" fill="none" />
<path d="M145.45374914889663,197.15021394492538 L172.6459808221139,173.83430416914342" stroke="#0d6d4d" stroke-width="0.1" fill="none" />
<path d="M143.6445886318676,198.47224530594076 L136.2893224309285,203.59327246085124" stroke="#0d6d4d" stroke-width="0.1" fill="none" />
<path d="M141.82341287331238,199.77767533176967 L94.9206618344147,225.8651543663092" stroke="#0d6d4d" stroke-width="0.1" fill="none" />
<path d="M139.99037420661708,201.06639482890054 L50.06132010485438,239.83090757731645" stroke="#0d6d4d" stroke-width="0.1" fill="none" />
<path d="M138.1456259574485,202.33829600158427 L3.3609871494823165,244.9769453752353" stroke="#0d6d4d" stroke-width="0.1" fill="none" />
<path d="M136.2893224309285,203.59327246085124 L-43.46294518040303,241.11402364077725" stroke="#0d6d4d" stroke-width="0.1" fill="none" />
<path d="M134.42161889872747,204.83121923341 L-88.68853970062861,228.38420025424267" stroke="#0d6d4d" stroke-width="0.1" fill="none" />
<path d="M132.5426715860763,206.05203277042796 L-130.6526376586991,207.25561095619267" stroke="#0d6d4d" stroke-width="0.1" fill="none" />
<path d="M130.65263765869923,207.25561095619256 L-167.81202093775119,178.50525378483331" stroke="#0d6d4d" stroke-width="0.1" fill="none" />
<path d="M128.75167520966693,208.44185311665322 L-198.80016347674535,143.19041518767702" stroke="#0d6d4d" stroke-width="0.1" fill="none" />
<path d="M126.83994324617346,209.61066002784185 L-222.4774848890877,102.60978860433227" stroke="#0d6d4d" stroke-width="0.1" fill="none" />
<path d="M124.91760167623544,210.76193392417278 L-237.97325821672845,58.25571537380939" stroke="#0d6d4d" stroke-width="0.1" fill="none" />
<path d="M122.9848112953167,211.8955785066204 L-244.71763067365242,11.75930429378606" stroke="#0d6d4d" stroke-width="0.1" fill="none" />
<path d="M121.04173377287835,213.0114989507741 L-242.46257982475802,-35.169551955105305" stroke="#0d6d4d" stroke-width="0.1" fill="none" />
<path d="M119.08853163885614,214.10960191476974 L-231.29103454243366,-80.80505764053852" stroke="#0d6d4d" stroke-width="0.1" fill="none" />
<path d="M117.12536827006504,215.18979554709753 L-211.61382532017103,-123.4689796400867" stroke="#0d6d4d" stroke-width="0.1" fill="none" />
<path d="M115.15240787653379,216.25198949428514 L-184.1545760945897,-161.59236400096998" stroke="#0d6d4d" stroke-width="0.1" fill="none" />
<path d="M113.16981548776936,217.2960949084549 L-149.923093174948,-193.7732337885082" stroke="#0d6d4d" stroke-width="0.1" fill="none" />
<path d="M111.17775693895322,218.3220244547559 L-110.17822989490912,-218.82814640083333" stroke="#0d6d4d" stroke-width="0.1" fill="none" />
<path d="M109.17639885706949,219.32969231866915 L-66.38159262874358,-235.83571434384473" stroke="#0d6d4d" stroke-width="0.1" fill="none" />
<path d="M107.1659086469675,220.31901421318545 L-20.14379062043865,-244.17048900192654" stroke="#0d6d4d" stroke-width="0.1" fill="none" />
<path d="M105.14645447735946,221.28990738585566 L26.834793726589186,-243.52596133811156" stroke="#0d6d4d" stroke-width="0.1" fill="none" />
<path d="M103.11820526675325,222.2422906257127 L72.82653594293306,-233.9258336792939" stroke="#0d6d4d" stroke-width="0.1" fill="none" />
<path d="M101.08133066932378,223.17608427006425 L116.14010240609278,-215.72314806970135" stroke="#0d6d4d" stroke-width="0.1" fill="none" />
<path d="M99.03600106072159,224.09121021115655 L155.18264866749445,-189.58730324718738" stroke="#0d6d4d" stroke-width="0.1" fill="none" />
<path d="M96.982387523822,224.9875919027074 L188.5183958673309,-156.47943768945592" stroke="#0d6d4d" stroke-width="0.1" fill="none" />
<path d="M94.9206618344147,225.8651543663092 L214.9214311057377,-117.61708401189705" stroke="#0d6d4d" stroke-width="0.1" fill="none" />
<path d="M92.85099644683537,226.72382419770042 L233.42079005123298,-74.42939454179522" stroke="#0d6d4d" stroke-width="0.1" fill="none" />
<path d="M90.77356447954098,227.56352957290545 L243.3361638859417,-28.504584636056915" stroke="#0d6d4d" stroke-width="0.1" fill="none" />
<path d="M88.68853970062865,228.38420025424264 L244.30291747455152,18.468473500061233" stroke="#0d6d4d" stroke-width="0.1" fill="none" />
<path d="M86.5960965133011,229.18576759619924 L236.28549872074495,64.76235862203312" stroke="#0d6d4d" stroke-width="0.1" fill="none" />
<path d="M84.4964099412783,229.96816455117315 L219.57874598572585,108.67462588542038" stroke="#0d6d4d" stroke-width="0.1" fill="none" />
<path d="M82.3896556141579,230.73132567508137 L194.79704548888586,148.59041378501152" stroke="#0d6d4d" stroke-width="0.1" fill="none" />
<path d="M80.27600975272439,231.47518713283395 L162.85173742420753,183.04183024084134" stroke="#0d6d4d" stroke-width="0.1" fill="none" />
<path d="M78.1556491542087,232.19968670367373 L124.91760167623544,210.76193392417278" stroke="#0d6d4d" stroke-width="0.1" fill="none" />
<path d="M76.02875117750027,232.9047637863806 L82.3896556141579,230.73132567508137" stroke="#0d6d4d" stroke-width="0.1" fill="none" />
<path d="M73.89549372831165,233.5903594043407 L36.831852713195055,242.21563662512276" stroke="#0d6d4d" stroke-width="0.1" fill="none" />
<path d="M71.7560552442973,234.2564162104794 L-10.080431402672996,244.7925344097242" stroke="#0d6d4d" stroke-width="0.1" fill="none" />
<path d="M69.61061468012853,234.90287849205822 L-56.62201043673661,238.36725432429282" stroke="#0d6d4d" stroke-width="0.1" fill="none" />
<path d="M67.45935149252416,235.52969217533504 L-101.08133066932372,223.17608427006428" stroke="#0d6d4d" stroke-width="0.1" fill="none" />
<path d="M65.30244562523997,236.13680483008696 L-141.82341287331232,199.7776753317697" stroke="#0d6d4d" stroke-width="0.1" fill="none" />
<path d="M63.14007749401721,236.72416567399597 L-177.34997822381814,169.0324975382285" stroke="#0d6d4d" stroke-width="0.1" fill="none" />
<path d="M60.972427971491804,237.29172557689668 L-206.35454708833214,132.07119631459886" stroke="#0d6d4d" stroke-width="0.1" fill="none" />
<path d="M58.79967837206491,237.8394370648857 L-227.77048445450978,90.25301330901877" stroke="#0d6d4d" stroke-width="0.1" fill="none" />
<path d="M56.62201043673666,238.3672543242928 L-240.81022513827094,45.11580065625858" stroke="#0d6d4d" stroke-width="0.1" fill="none" />
<path d="M54.43960631790454,238.87513320551298 L-244.99423627601186,-1.680533109961501" stroke="#0d6d4d" stroke-width="0.1" fill="none" />
<path d="M52.2526485641271,239.3630312266993 L-240.16865201327354,-48.4150657350284" stroke="#0d6d4d" stroke-width="0.1" fill="none" />
<path d="M50.06132010485438,239.83090757731645 L-226.51093187905985,-93.3691476842319" stroke="#0d6d4d" stroke-width="0.1" fill="none" />
<path d="M47.86580423512719,240.27872312155415 L-204.52333476065166,-134.88960500491658" stroke="#0d6d4d" stroke-width="0.1" fill="none" />
<path d="M45.666284600244566,240.70644040160093 L-175.01444847169236,-171.44953434217706" stroke="#0d6d4d" stroke-width="0.1" fill="none" />
<path d="M43.46294518040308,241.11402364077722 L-139.06945415857703,-201.7044543881851" stroke="#0d6d4d" stroke-width="0.1" fill="none" />
<path d="M41.255970275307526,241.50143874652787 L-98.01021906339416,-224.54174881109634" stroke="#0d6d4d" stroke-width="0.1" fill="none" />
<path d="M39.045544488755425,241.86865331327377 L-53.34668522104142,-239.12158241348087" stroke="#0d6d4d" stroke-width="0.1" fill="none" />
<path d="M36.831852713195055,242.21563662512276 L-6.721341757759977,-244.90778583984502" stroke="#0d6d4d" stroke-width="0.1" fill="none" />
<path d="M34.615080114260884,242.54235965843841 L40.15117719301962,-241.6875730566525" stroke="#0d6d4d" stroke-width="0.1" fill="none" />
<path d="M32.395412115284046,242.84879508426823 L85.54714768755501,-229.5793664999615" stroke="#0d6d4d" stroke-width="0.1" fill="none" />
<path d="M30.17303438178399,243.13491727062913 L127.79714544393345,-209.0284421230329" stroke="#0d6d4d" stroke-width="0.1" fill="none" />
<path d="M27.94813280593702,243.4007022846518 L165.3474384591405,-180.79055449608185" stroke="#0d6d4d" stroke-width="0.1" fill="none" />
<path d="M25.720893491028196,243.64612789458238 L196.817125074513,-145.90414414060865" stroke="#0d6d4d" stroke-width="0.1" fill="none" />
<path d="M23.49150273588429,243.871173571642 L221.04891625299393,-105.65214916591559" stroke="#0d6d4d" stroke-width="0.1" fill="none" />
<path d="M21.260147019290006,244.07582049174425 L237.1516945639632,-61.514825574333784" stroke="#0d6d4d" stroke-width="0.1" fill="none" />
<path d="M19.027012984391238,244.26005153706942 L244.5332847807269,-15.115311255410157" stroke="#0d6d4d" stroke-width="0.1" fill="none" />
<path d="M16.792287423081888,244.42385129749636 L242.9222309609899,31.840064461861353" stroke="#0d6d4d" stroke-width="0.1" fill="none" />
<path d="M14.556157260380605,244.56720607189155 L232.3777791641896,77.62453059902604" stroke="#0d6d4d" stroke-width="0.1" fill="none" />
<path d="M12.318809538794065,244.69010386925524 L213.2876986940169,120.55437605417013" stroke="#0d6d4d" stroke-width="0.1" fill="none" />
<path d="M10.080431402673167,244.7925344097242 L186.35402198932914,159.0508676128509" stroke="#0d6d4d" stroke-width="0.1" fill="none" />
<path d="M7.84121008255793,244.87448912543175 L152.56722757502996,191.69830742619772" stroke="#0d6d4d" stroke-width="0.1" fill="none" />
<path d="M5.60133287951758,244.9359611612244 L113.16981548776936,217.2960949084549" stroke="#0d6d4d" stroke-width="0.1" fill="none" />
<path d="M3.3609871494823165,244.9769453752353 L69.61061468012853,234.90287849205822" stroke="#0d6d4d" stroke-width="0.1" fill="none" />
<path d="M1.120360287573223,244.99743833931413 L23.49150273588429,243.871173571642" stroke="#0d6d4d" stroke-width="0.1" fill="none" />
<path d="M-1.120360287573163,244.99743833931413 L-23.491502735884225,243.871173571642" stroke="#0d6d4d" stroke-width="0.1" fill="none" />
<path d="M-3.360987149482256,244.9769453752353 L-69.61061468012849,234.90287849205825" stroke="#0d6d4d" stroke-width="0.1" fill="none" />
<path d="M-5.601332879517411,244.9359611612244 L-113.16981548776941,217.29609490845488" stroke="#0d6d4d" stroke-width="0.1" fill="none" />
<path d="M-7.841210082557978,244.87448912543175 L-152.56722757502982,191.69830742619783" stroke="#0d6d4d" stroke-width="0.1" fill="none" />
<path d="M-10.080431402672996,244.7925344097242 L-186.35402198932917,159.05086761285088" stroke="#0d6d4d" stroke-width="0.1" fill="none" />
<path d="M-12.318809538794005,244.69010386925524 L-213.28769869401685,120.55437605417019" stroke="#0d6d4d" stroke-width="0.1" fill="none" />
<path d="M-14.556157260380438,244.56720607189155 L-232.37777916418955,77.62453059902626" stroke="#0d6d4d" stroke-width="0.1" fill="none" />
<path d="M-16.792287423081934,244.42385129749636 L-242.92223096098988,31.840064461861523" stroke="#0d6d4d" stroke-width="0.1" fill="none" />
<path d="M-19.027012984391067,244.26005153706944 L-244.5332847807269,-15.115311255410099" stroke="#0d6d4d" stroke-width="0.1" fill="none" />
<path d="M-21.260147019289946,244.07582049174428 L-237.1516945639632,-61.514825574333834" stroke="#0d6d4d" stroke-width="0.1" fill="none" />
<path d="M-23.491502735884225,243.871173571642 L-221.048916252994,-105.65214916591549" stroke="#0d6d4d" stroke-width="0.1" fill="none" />
<path d="M-25.720893491028242,243.64612789458235 L-196.81712507451303,-145.90414414060862" stroke="#0d6d4d" stroke-width="0.1" fill="none" />
<path d="M-27.94813280593707,243.4007022846518 L-165.34743845914065,-180.79055449608174" stroke="#0d6d4d" stroke-width="0.1" fill="none" />
<path d="M-30.17303438178382,243.13491727062916 L-127.79714544393353,-209.02844212303287" stroke="#0d6d4d" stroke-width="0.1" fill="none" />
<path d="M-32.395412115283996,242.84879508426826 L-85.54714768755521,-229.57936649996142" stroke="#0d6d4d" stroke-width="0.1" fill="none" />
<path d="M-34.61508011426073,242.54235965843844 L-40.151177193019755,-241.68757305665247" stroke="#0d6d4d" stroke-width="0.1" fill="none" />
<path d="M-36.831852713195104,242.21563662512273 L6.721341757759905,-244.90778583984502" stroke="#0d6d4d" stroke-width="0.1" fill="none" />
<path d="M-39.04554448875526,241.8686533132738 L53.34668522104128,-239.1215824134809" stroke="#0d6d4d" stroke-width="0.1" fill="none" />
<path d="M-41.25597027530747,241.50143874652787 L98.01021906339416,-224.54174881109634" stroke="#0d6d4d" stroke-width="0.1" fill="none" />
<path d="M-43.46294518040303,241.11402364077725 L139.06945415857697,-201.70445438818516" stroke="#0d6d4d" stroke-width="0.1" fill="none" />
<path d="M-45.66628460024451,240.70644040160093 L175.01444847169222,-171.4495343421772" stroke="#0d6d4d" stroke-width="0.1" fill="none" />
<path d="M-47.86580423512714,240.27872312155418 L204.52333476065164,-134.8896050049166" stroke="#0d6d4d" stroke-width="0.1" fill="none" />
<path d="M-50.06132010485433,239.83090757731645 L226.51093187905983,-93.36914768423202" stroke="#0d6d4d" stroke-width="0.1" fill="none" />
<path d="M-52.25264856412704,239.3630312266993 L240.16865201327354,-48.415065735028406" stroke="#0d6d4d" stroke-width="0.1" fill="none" />
<path d="M-54.439606317904385,238.875133205513 L244.99423627601186,-1.6805331099615612" stroke="#0d6d4d" stroke-width="0.1" fill="none" />
<path d="M-56.62201043673661,238.36725432429282 L240.81022513827094,45.115800656258685" stroke="#0d6d4d" stroke-width="0.1" fill="none" />
<path d="M-58.799678372064854,237.83943706488571 L227.77048445450978,90.25301330901877" stroke="#0d6d4d" stroke-width="0.1" fill="none" />
<path d="M-60.97242797149185,237.29172557689665 L206.3545470883322,132.0711963145988" stroke="#0d6d4d" stroke-width="0.1" fill="none" />
<path d="M-63.14007749401706,236.72416567399603 L177.3499782238182,169.03249753822845" stroke="#0d6d4d" stroke-width="0.1" fill="none" />
<path d="M-65.30244562523981,236.136804830087 L141.82341287331238,199.77767533176967" stroke="#0d6d4d" stroke-width="0.1" fill="none" />
<path d="M-67.4593514925241,235.52969217533504 L101.08133066932378,223.17608427006425" stroke="#0d6d4d" stroke-width="0.1" fill="none" />
<path d="M-69.61061468012849,234.90287849205825 L56.62201043673666,238.3672543242928" stroke="#0d6d4d" stroke-width="0.1" fill="none" />
<path d="M-71.75605524429734,234.2564162104794 L10.080431402673167,244.7925344097242" stroke="#0d6d4d" stroke-width="0.1" fill="none" />
<path d="M-73.8954937283115,233.59035940434075 L-36.831852713195104,242.21563662512273" stroke="#0d6d4d" stroke-width="0.1" fill="none" />
<path d="M-76.02875117750023,232.9047637863806 L-82.38965561415786,230.73132567508137" stroke="#0d6d4d" stroke-width="0.1" fill="none" />
<path d="M-78.15564915420866,232.19968670367373 L-124.91760167623538,210.7619339241728" stroke="#0d6d4d" stroke-width="0.1" fill="none" />
<path d="M-80.27600975272445,231.47518713283392 L-162.85173742420747,183.04183024084136" stroke="#0d6d4d" stroke-width="0.1" fill="none" />
<path d="M-82.38965561415786,230.73132567508137 L-194.7970454888858,148.5904137850116" stroke="#0d6d4d" stroke-width="0.1" fill="none" />
<path d="M-84.49640994127824,229.96816455117317 L-219.57874598572582,108.67462588542043" stroke="#0d6d4d" stroke-width="0.1" fill="none" />
<path d="M-86.59609651330094,229.1857675961993 L-236.28549872074498,64.76235862203308" stroke="#0d6d4d" stroke-width="0.1" fill="none" />
<path d="M-88.68853970062861,228.38420025424267 L-244.30291747455152,18.46847350006129" stroke="#0d6d4d" stroke-width="0.1" fill="none" />
<path d="M-90.77356447954102,227.56352957290545 L-243.3361638859417,-28.50458463605691" stroke="#0d6d4d" stroke-width="0.1" fill="none" />
<path d="M-92.85099644683531,226.72382419770042 L-233.420790051233,-74.42939454179506" stroke="#0d6d4d" stroke-width="0.1" fill="none" />
<path d="M-94.92066183441464,225.86515436630924 L-214.92143110573772,-117.61708401189698" stroke="#0d6d4d" stroke-width="0.1" fill="none" />
<path d="M-96.98238752382186,224.9875919027075 L-188.5183958673309,-156.47943768945592" stroke="#0d6d4d" stroke-width="0.1" fill="none" />
<path d="M-99.03600106072155,224.09121021115658 L-155.1826486674944,-189.5873032471874" stroke="#0d6d4d" stroke-width="0.1" fill="none" />
<path d="M-101.08133066932372,223.17608427006428 L-116.14010240609281,-215.72314806970132" stroke="#0d6d4d" stroke-width="0.1" fill="none" />
<path d="M-103.1182052667533,222.24229062571268 L-72.82653594293302,-233.92583367929393" stroke="#0d6d4d" stroke-width="0.1" fill="none" />
<path d="M-105.14645447735931,221.28990738585574 L-26.834793726589073,-243.52596133811159" stroke="#0d6d4d" stroke-width="0.1" fill="none" />
<path d="M-107.16590864696744,220.31901421318548 L20.143790620438562,-244.17048900192654" stroke="#0d6d4d" stroke-width="0.1" fill="none" />
<path d="M-109.17639885706934,219.32969231866923 L66.38159262874362,-235.83571434384473" stroke="#0d6d4d" stroke-width="0.1" fill="none" />
<path d="M-111.17775693895318,218.32202445475593 L110.17822989490911,-218.82814640083336" stroke="#0d6d4d" stroke-width="0.1" fill="none" />
<path d="M-113.16981548776941,217.29609490845488 L149.9230931749479,-193.7732337885083" stroke="#0d6d4d" stroke-width="0.1" fill="none" />
<path d="M-115.15240787653366,216.25198949428517 L184.15457609458966,-161.59236400097" stroke="#0d6d4d" stroke-width="0.1" fill="none" />
<path d="M-117.12536827006498,215.18979554709756 L211.613825320171,-123.46897964008676" stroke="#0d6d4d" stroke-width="0.1" fill="none" />
<path d="M-119.0885316388561,214.10960191476974 L231.2910345424336,-80.80505764053868" stroke="#0d6d4d" stroke-width="0.1" fill="none" />
<path d="M-121.0417337728784,213.01149895077407 L242.462579824758,-35.169551955105526" stroke="#0d6d4d" stroke-width="0.1" fill="none" />
<path d="M-122.98481129531658,211.8955785066205 L244.71763067365242,11.759304293786" stroke="#0d6d4d" stroke-width="0.1" fill="none" />
<path d="M-124.91760167623538,210.7619339241728 L237.97325821672848,58.255715373809274" stroke="#0d6d4d" stroke-width="0.1" fill="none" />
<path d="M-126.8399432461734,209.61066002784187 L222.47748488908766,102.60978860433232" stroke="#0d6d4d" stroke-width="0.1" fill="none" />
<path d="M-128.75167520966698,208.44185311665322 L198.80016347674547,143.19041518767685" stroke="#0d6d4d" stroke-width="0.1" fill="none" />
<path d="M-130.6526376586991,207.25561095619267 L167.81202093775124,178.50525378483331" stroke="#0d6d4d" stroke-width="0.1" fill="none" />
<path d="M-132.54267158607627,206.05203277042799 L130.65263765869923,207.25561095619256" stroke="#0d6d4d" stroke-width="0.1" fill="none" />
<path d="M-134.42161889872742,204.83121923341002 L88.68853970062865,228.38420025424264" stroke="#0d6d4d" stroke-width="0.1" fill="none" />
<path d="M-136.28932243092845,203.59327246085127 L43.46294518040308,241.11402364077722" stroke="#0d6d4d" stroke-width="0.1" fill="none" />
<path d="M-138.14562595744854,202.33829600158424 L-3.360987149482256,244.9769453752353" stroke="#0d6d4d" stroke-width="0.1" fill="none" />
<path d="M-139.99037420661705,201.06639482890057 L-50.06132010485433,239.83090757731645" stroke="#0d6d4d" stroke-width="0.1" fill="none" />
<path d="M-141.82341287331232,199.7776753317697 L-94.92066183441464,225.86515436630924" stroke="#0d6d4d" stroke-width="0.1" fill="none" />
<path d="M-143.64458863186746,198.47224530594087 L-136.28932243092845,203.59327246085127" stroke="#0d6d4d" stroke-width="0.1" fill="none" />
<path d="M-145.45374914889658,197.1502139449254 L-172.64598082211393,173.8343041691434" stroke="#0d6d4d" stroke-width="0.1" fill="none" />
<path d="M-147.25074309603554,195.81169183086425 L-202.65363093306468,137.6826273341892" stroke="#0d6d4d" stroke-width="0.1" fill="none" />
<path d="M-149.035420162601,194.4567909252772 L-225.20874971553167,96.46770989075573" stroke="#0d6d4d" stroke-width="0.1" fill="none" />
<path d="M-150.80763106816266,193.08562455969874 L-239.4818789033585,51.70521904911672" stroke="#0d6d4d" stroke-width="0.1" fill="none" />
<path d="M-152.56722757502982,191.69830742619783 L-244.94812811122114,5.041283051841787" stroke="#0d6d4d" stroke-width="0.1" fill="none" />
<path d="M-154.3140625006517,190.29495556778417 L-241.40647753363507,-41.808044737855624" stroke="#0d6d4d" stroke-width="0.1" fill="none" />
<path d="M-156.04798972992725,188.87568636870262 L-228.987170392804,-87.11989322477936" stroke="#0d6d4d" stroke-width="0.1" fill="none" />
<path d="M-157.76886422742828,187.4406185446135 L-208.1469232800812,-129.22793169062172" stroke="#0d6d4d" stroke-width="0.1" fill="none" />
<path d="M-159.47654204953005,185.98987213266338 L-179.65213052941382,-166.5836486460855" stroke="#0d6d4d" stroke-width="0.1" fill="none" />
<path d="M-161.1708803564526,184.5235684814437 L-144.55068027729968,-197.8132979133857" stroke="#0d6d4d" stroke-width="0.1" fill="none" />
<path d="M-162.85173742420747,183.04183024084136 L-104.1334186658714,-221.7684177626705" stroke="#0d6d4d" stroke-width="0.1" fill="none" />
<path d="M-164.51897265645331,181.54478135177877 L-59.88667933239917,-237.5680652750668" stroke="#0d6d4d" stroke-width="0.1" fill="none" />
<path d="M-166.17244659625533,180.03254703584759 L-13.437623900129637,-244.63121277530934" stroke="#0d6d4d" stroke-width="0.1" fill="none" />
<path d="M-167.81202093775119,178.50525378483331 L33.50559644117711,-242.69811496408656" stroke="#0d6d4d" stroke-width="0.1" fill="none" />
<path d="M-169.43755853771876,176.9630293501361 L79.21665772366147,-231.83986097971214" stroke="#0d6d4d" stroke-width="0.1" fill="none" />
<path d="M-171.04892342704784,175.40600273208418 L122.01454828867487,-212.45576011468984" stroke="#0d6d4d" stroke-width="0.1" fill="none" />
<path d="M-172.64598082211393,173.8343041691434 L160.32538752642878,-185.2586573267237" stroke="#0d6d4d" stroke-width="0.1" fill="none" />
<path d="M-174.2285971360513,172.2480651270241 L192.7403049008993,-151.24871856220258" stroke="#0d6d4d" stroke-width="0.1" fill="none" />
<path d="M-175.7966399899281,170.64741828768348 L218.067250774825,-111.67664992964994" stroke="#0d6d4d" stroke-width="0.1" fill="none" />
<path d="M-177.34997822381814,169.0324975382285 L235.37483370601367,-67.9977033278802" stroke="#0d6d4d" stroke-width="0.1" fill="none" />
<path d="M-178.88848190777273,167.40343795971594 L244.02657211048802,-21.818159959189742" stroke="#0d6d4d" stroke-width="0.1" fill="none" />
<path d="M-180.41202235268798,165.76037581585413 L243.70430069701533,25.163740218392302" stroke="#0d6d4d" stroke-width="0.1" fill="none" />
<path d="M-181.92047212107013,164.10344854160422 L234.4198709078526,71.22025079670613" stroke="#0d6d4d" stroke-width="0.1" fill="none" />
<path d="M-183.41370503769375,162.43279473168548 L216.51471508522965,114.65765631462133" stroke="#0d6d4d" stroke-width="0.1" fill="none" />
<path d="M-184.89159620015724,160.7485541289812 L190.6472903912269,153.8785581765153" stroke="#0d6d4d" stroke-width="0.1" fill="none" />
<path d="M-186.35402198932917,159.05086761285088 L157.76886422742825,187.44061854461353" stroke="#0d6d4d" stroke-width="0.1" fill="none" />
<path d="M-187.80086007968876,157.33987718734613 L119.08853163885614,214.10960191476974" stroke="#0d6d4d" stroke-width="0.1" fill="none" />
<path d="M-189.23198944955868,155.61572596933158 L76.02875117750027,232.9047637863806" stroke="#0d6d4d" stroke-width="0.1" fill="none" />
<path d="M-190.6472903912268,153.87855817651544 L30.17303438178399,243.13491727062913" stroke="#0d6d4d" stroke-width="0.1" fill="none" />
<path d="M-192.04664452096017,152.12851911538465 L-16.792287423081934,244.42385129749636" stroke="#0d6d4d" stroke-width="0.1" fill="none" />
<path d="M-193.4299347889065,150.36575516905228 L-63.14007749401706,236.72416567399603" stroke="#0d6d4d" stroke-width="0.1" fill="none" />
<path d="M-194.7970454888858,148.5904137850116 L-107.16590864696744,220.31901421318548" stroke="#0d6d4d" stroke-width="0.1" fill="none" />
<path d="M-196.14786226806763,146.80264346280404 L-147.25074309603554,195.81169183086425" stroke="#0d6d4d" stroke-width="0.1" fill="none" />
<path d="M-197.4822721365371,145.00259374159725 L-181.92047212107013,164.10344854160422" stroke="#0d6d4d" stroke-width="0.1" fill="none" />
<path d="M-198.80016347674535,143.19041518767702 L-209.90012600887383,126.36034623828353" stroke="#0d6d4d" stroke-width="0.1" fill="none" />
<path d="M-200.1014260528466,141.36625938185242 L-230.1607607124098,83.97037708790428" stroke="#0d6d4d" stroke-width="0.1" fill="none" />
<path d="M-201.38595101991802,139.5302789067777 L-241.95729698405793,38.49242050285201" stroke="#0d6d4d" stroke-width="0.1" fill="none" />
<path d="M-202.65363093306468,137.6826273341892 L-244.85592045924335,-8.401084219117054" stroke="#0d6d4d" stroke-width="0.1" fill="none" />
<path d="M-203.90435975640696,135.8234592120587 L-238.7500350599246,-54.985641388318484" stroke="#0d6d4d" stroke-width="0.1" fill="none" />
<path d="M-205.13803287194935,133.95293005166792 L-223.86418303593481,-99.5481167760268" stroke="#0d6d4d" stroke-width="0.1" fill="none" />
<path d="M-206.35454708833214,132.07119631459886 L-200.745787485736,-140.44973765276927" stroke="#0d6d4d" stroke-width="0.1" fill="none" />
<path d="M-207.5538006494622,130.178415399648 L-170.245021023107,-176.1863582030171" stroke="#0d6d4d" stroke-width="0.1" fill="none" />
<path d="M-208.7356932430247,128.27474562965966 L-133.48354091398957,-205.44377407228305" stroke="#0d6d4d" stroke-width="0.1" fill="none" />
<path d="M-209.90012600887383,126.36034623828353 L-91.81324044020235,-227.14605186942958" stroke="#0d6d4d" stroke-width="0.1" fill="none" />
<path d="M-211.04700154730222,124.43537735665454 L-46.76653339723706,-240.49509632008113" stroke="#0d6d4d" stroke-width="0.1" fill="none" />
<path d="M-212.1762239271874,122.50000000000011 L0.0,-245.0" stroke="#0d6d4d" stroke-width="0.1" fill="none" />
<path d="M-213.28769869401685,120.55437605417019 L46.766533397236934,-240.49509632008116" stroke="#0d6d4d" stroke-width="0.1" fill="none" />
<path d="M-214.38133287778786,118.59866826209776 L91.81324044020236,-227.14605186942958" stroke="#0d6d4d" stroke-width="0.1" fill="none" />
<path d="M-215.45703500078451,116.63304021018536 L133.4835409139895,-205.44377407228308" stroke="#0d6d4d" stroke-width="0.1" fill="none" />
<path d="M-216.51471508522962,114.65765631462139 L170.24502102310706,-176.18635820301705" stroke="#0d6d4d" stroke-width="0.1" fill="none" />
<path d="M-217.5542846608103,112.67268180762858 L200.745787485736,-140.4497376527693" stroke="#0d6d4d" stroke-width="0.1" fill="none" />
<path d="M-218.57565677207893,110.67828272364162 L223.8641830359348,-99.5481167760269" stroke="#0d6d4d" stroke-width="0.1" fill="none" />
<path d="M-219.57874598572582,108.67462588542043 L238.75003505992458,-54.98564138831865" stroke="#0d6d4d" stroke-width="0.1" fill="none" />
<path d="M-220.5634683977259,106.66187889009537 L244.85592045924335,-8.40108421911706" stroke="#0d6d4d" stroke-width="0.1" fill="none" />
<path d="M-221.52974164035652,104.64021009514884 L241.95729698405796,38.49242050285189" stroke="#0d6d4d" stroke-width="0.1" fill="none" />
<path d="M-222.4774848890877,102.60978860433227 L230.16076071240977,83.97037708790432" stroke="#0d6d4d" stroke-width="0.1" fill="none" />
<path d="M-223.40661886934197,100.5707842535225 L209.90012600887385,126.36034623828346" stroke="#0d6d4d" stroke-width="0.1" fill="none" />
<path d="M-224.31706586312623,98.52336759651433 L181.9204721210702,164.10344854160417" stroke="#0d6d4d" stroke-width="0.1" fill="none" />
<path d="M-225.20874971553167,96.46770989075573 L147.25074309603556,195.8116918308642" stroke="#0d6d4d" stroke-width="0.1" fill="none" />
<path d="M-226.08159584110427,94.40398308302238 L107.1659086469675,220.31901421318545" stroke="#0d6d4d" stroke-width="0.1" fill="none" />
<path d="M-226.9355312300837,92.33235979503446 L63.14007749401721,236.72416567399597" stroke="#0d6d4d" stroke-width="0.1" fill="none" />
<path d="M-227.77048445450978,90.25301330901877 L16.792287423081888,244.42385129749636" stroke="#0d6d4d" stroke-width="0.1" fill="none" />
<path d="M-228.5863856741974,88.1661175532136 L-30.17303438178382,243.13491727062916" stroke="#0d6d4d" stroke-width="0.1" fill="none" />
<path d="M-229.38316664257832,86.07184708732092 L-76.02875117750023,232.9047637863806" stroke="#0d6d4d" stroke-width="0.1" fill="none" />
<path d="M-230.1607607124098,83.97037708790428 L-119.0885316388561,214.10960191476974" stroke="#0d6d4d" stroke-width="0.1" fill="none" />
<path d="M-230.91910284134906,81.86188333373752 L-157.76886422742828,187.4406185446135" stroke="#0d6d4d" stroke-width="0.1" fill="none" />
<path d="M-231.6581295973942,79.74654219110008 L-190.6472903912268,153.87855817651544" stroke="#0d6d4d" stroke-width="0.1" fill="none" />
<path d="M-232.37777916418955,77.62453059902626 L-216.51471508522962,114.65765631462139" stroke="#0d6d4d" stroke-width="0.1" fill="none" />
<path d="M-233.07799134619668,75.49602605450347 L-234.41987090785256,71.22025079670628" stroke="#0d6d4d" stroke-width="0.1" fill="none" />
<path d="M-233.75870757372937,73.36120659762685 L-243.70430069701533,25.163740218392412" stroke="#0d6d4d" stroke-width="0.1" fill="none" />
<path d="M-234.41987090785256,71.22025079670628 L-244.02657211048802,-21.818159959189682" stroke="#0d6d4d" stroke-width="0.1" fill="none" />
<path d="M-235.0614260451455,69.0733377333294 L-235.37483370601367,-67.99770332788026" stroke="#0d6d4d" stroke-width="0.1" fill="none" />
<path d="M-235.68331932232712,66.92064698738336 L-218.06725077482506,-111.67664992964984" stroke="#0d6d4d" stroke-width="0.1" fill="none" />
<path d="M-236.28549872074498,64.76235862203308 L-192.7403049008993,-151.24871856220258" stroke="#0d6d4d" stroke-width="0.1" fill="none" />
<path d="M-236.8679138707263,62.59865316865996 L-160.3253875264289,-185.2586573267236" stroke="#0d6d4d" stroke-width="0.1" fill="none" />
<path d="M-237.4305160557915,60.42971161176055 L-122.01454828867492,-212.4557601146898" stroke="#0d6d4d" stroke-width="0.1" fill="none" />
<path d="M-237.97325821672845,58.25571537380939 L-79.21665772366144,-231.83986097971217" stroke="#0d6d4d" stroke-width="0.1" fill="none" />
<path d="M-238.49609495552954,56.07684630008211 L-33.50559644117702,-242.69811496408659" stroke="#0d6d4d" stroke-width="0.1" fill="none" />
<path d="M-238.9989825391885,53.893286643446416 L13.437623900129555,-244.63121277530934" stroke="#0d6d4d" stroke-width="0.1" fill="none" />
<path d="M-239.4818789033585,51.70521904911672 L59.88667933239901,-237.56806527506683" stroke="#0d6d4d" stroke-width="0.1" fill="none" />
<path d="M-239.944743655871,49.512826539376086 L104.13341866587139,-221.7684177626705" stroke="#0d6d4d" stroke-width="0.1" fill="none" />
<path d="M-240.3875380801141,47.31629249826847 L144.55068027729956,-197.81329791338578" stroke="#0d6d4d" stroke-width="0.1" fill="none" />
<path d="M-240.81022513827094,45.11580065625858 L179.6521305294137,-166.5836486460856" stroke="#0d6d4d" stroke-width="0.1" fill="none" />
<path d="M-241.21276947441797,42.91153507486412 L208.14692328008115,-129.22793169062177" stroke="#0d6d4d" stroke-width="0.1" fill="none" />
<path d="M-241.5951374174823,40.703680131258885 L228.98717039280402,-87.11989322477925" stroke="#0d6d4d" stroke-width="0.1" fill="none" />
<path d="M-241.95729698405793,38.49242050285201 L241.4064775336351,-41.808044737855575" stroke="#0d6d4d" stroke-width="0.1" fill="none" />
<path d="M-242.29921788108135,36.27794115183877 L244.94812811122117,5.041283051841672" stroke="#0d6d4d" stroke-width="0.1" fill="none" />
<path d="M-242.62087150836496,34.06042730973097 L239.48187890335853,51.70521904911655" stroke="#0d6d4d" stroke-width="0.1" fill="none" />
<path d="M-242.92223096098988,31.840064461861523 L225.20874971553167,96.46770989075573" stroke="#0d6d4d" stroke-width="0.1" fill="none" />
<path d="M-243.203271031556,29.617038331870805 L202.6536309330647,137.6826273341891" stroke="#0d6d4d" stroke-width="0.1" fill="none" />
<path d="M-243.46396821229075,27.39153486617112 L172.6459808221139,173.83430416914342" stroke="#0d6d4d" stroke-width="0.1" fill="none" />
<path d="M-243.70430069701533,25.163740218392412 L136.2893224309285,203.59327246085124" stroke="#0d6d4d" stroke-width="0.1" fill="none" />
<path d="M-243.9242483829685,22.933840733812634 L94.9206618344147,225.8651543663092" stroke="#0d6d4d" stroke-width="0.1" fill="none" />
<path d="M-244.1237928724885,20.70202293376991 L50.06132010485438,239.83090757731645" stroke="#0d6d4d" stroke-width="0.1" fill="none" />
<path d="M-244.30291747455152,18.46847350006129 L3.3609871494823165,244.9769453752353" stroke="#0d6d4d" stroke-width="0.1" fill="none" />
<path d="M-244.4616072061682,16.233379259326735 L-43.46294518040303,241.11402364077725" stroke="#0d6d4d" stroke-width="0.1" fill="none" />
<path d="M-244.5998487936365,13.99692716742345 L-88.68853970062861,228.38420025424267" stroke="#0d6d4d" stroke-width="0.1" fill="none" />
<path d="M-244.71763067365242,11.75930429378606 L-130.6526376586991,207.25561095619267" stroke="#0d6d4d" stroke-width="0.1" fill="none" />
<path d="M-244.8149429942768,9.520697805780845 L-167.81202093775119,178.50525378483331" stroke="#0d6d4d" stroke-width="0.1" fill="none" />
<path d="M-244.89177761575974,7.281294953048247 L-198.80016347674535,143.19041518767702" stroke="#0d6d4d" stroke-width="0.1" fill="none" />
<path d="M-244.94812811122114,5.041283051841787 L-222.4774848890877,102.60978860433227" stroke="#0d6d4d" stroke-width="0.1" fill="none" />
<path d="M-244.98398976718866,2.8008494693590134 L-237.97325821672845,58.25571537380939" stroke="#0d6d4d" stroke-width="0.1" fill="none" />
<path d="M-244.99935958399155,0.5601816080692653 L-244.71763067365242,11.75930429378606" stroke="#0d6d4d" stroke-width="0.1" fill="none" />
<path d="M-244.99423627601186,-1.680533109961501 L-242.46257982475802,-35.169551955105305" stroke="#0d6d4d" stroke-width="0.1" fill="none" />
<path d="M-244.96862027179193,-3.9211072587486218 L-231.29103454243366,-80.80505764053852" stroke="#0d6d4d" stroke-width="0.1" fill="none" />
<path d="M-244.92251371399846,-6.161353424064566 L-211.61382532017103,-123.4689796400867" stroke="#0d6d4d" stroke-width="0.1" fill="none" />
<path d="M-244.85592045924335,-8.401084219117054 L-184.1545760945897,-161.59236400096998" stroke="#0d6d4d" stroke-width="0.1" fill="none" />
<path d="M-244.76884607776105,-10.640112300221404 L-149.923093174948,-193.7732337885082" stroke="#0d6d4d" stroke-width="0.1" fill="none" />
<path d="M-244.66129785294268,-12.878250382472752 L-110.17822989490912,-218.82814640083333" stroke="#0d6d4d" stroke-width="0.1" fill="none" />
<path d="M-244.5332847807269,-15.115311255410099 L-66.38159262874358,-235.83571434384473" stroke="#0d6d4d" stroke-width="0.1" fill="none" />
<path d="M-244.38481756884715,-17.351107798676498 L-20.14379062043865,-244.17048900192654" stroke="#0d6d4d" stroke-width="0.1" fill="none" />
<path d="M-244.2159086359364,-19.585452997670664 L26.834793726589186,-243.52596133811156" stroke="#0d6d4d" stroke-width="0.1" fill="none" />
<path d="M-244.02657211048802,-21.818159959189682 L72.82653594293306,-233.9258336792939" stroke="#0d6d4d" stroke-width="0.1" fill="none" />
<path d="M-243.81682382967418,-24.049041927062696 L116.14010240609278,-215.72314806970135" stroke="#0d6d4d" stroke-width="0.1" fill="none" />
<path d="M-243.58668133802118,-26.277912297770712 L155.18264866749445,-189.58730324718738" stroke="#0d6d4d" stroke-width="0.1" fill="none" />
<path d="M-243.3361638859417,-28.50458463605691 L188.5183958673309,-156.47943768945592" stroke="#0d6d4d" stroke-width="0.1" fill="none" />
<path d="M-243.06529242812485,-30.728872690519403 L214.9214311057377,-117.61708401189705" stroke="#0d6d4d" stroke-width="0.1" fill="none" />
<path d="M-242.77408962178328,-32.95059040919208 L233.42079005123298,-74.42939454179522" stroke="#0d6d4d" stroke-width="0.1" fill="none" />
<path d="M-242.46257982475802,-35.169551955105305 L243.3361638859417,-28.504584636056915" stroke="#0d6d4d" stroke-width="0.1" fill="none" />
<path d="M-242.13078909348093,-37.385571721832115 L244.30291747455152,18.468473500061233" stroke="#0d6d4d" stroke-width="0.1" fill="none" />
<path d="M-241.77874518079548,-39.598464349011856 L236.28549872074495,64.76235862203312" stroke="#0d6d4d" stroke-width="0.1" fill="none" />
<path d="M-241.40647753363507,-41.808044737855624 L219.57874598572585,108.67462588542038" stroke="#0d6d4d" stroke-width="0.1" fill="none" />
<path d="M-241.0140172905601,-44.014128066628786 L194.79704548888586,148.59041378501152" stroke="#0d6d4d" stroke-width="0.1" fill="none" />
<path d="M-240.60139727915325,-46.21652980611024 L162.85173742420753,183.04183024084134" stroke="#0d6d4d" stroke-width="0.1" fill="none" />
<path d="M-240.16865201327354,-48.4150657350284 L124.91760167623544,210.76193392417278" stroke="#0d6d4d" stroke-width="0.1" fill="none" />
<path d="M-239.71581769016973,-50.60955195546896 L82.3896556141579,230.73132567508137" stroke="#0d6d4d" stroke-width="0.1" fill="none" />
<path d="M-239.2429321874521,-52.799804908258835 L36.831852713195055,242.21563662512276" stroke="#0d6d4d" stroke-width="0.1" fill="none" />
<path d="M-238.7500350599246,-54.985641388318484 L-10.080431402672996,244.7925344097242" stroke="#0d6d4d" stroke-width="0.1" fill="none" />
<path d="M-238.23716753627593,-57.16687855998776 L-56.62201043673661,238.36725432429282" stroke="#0d6d4d" stroke-width="0.1" fill="none" />
<path d="M-237.70437251563115,-59.34333397231796 L-101.08133066932372,223.17608427006428" stroke="#0d6d4d" stroke-width="0.1" fill="none" />
<path d="M-237.1516945639632,-61.514825574333834 L-141.82341287331232,199.7776753317697" stroke="#0d6d4d" stroke-width="0.1" fill="none" />
<path d="M-236.5791799103653,-63.68117173026114 L-177.34997822381814,169.0324975382285" stroke="#0d6d4d" stroke-width="0.1" fill="none" />
<path d="M-235.9868764431841,-65.84219123471951 L-206.35454708833214,132.07119631459886" stroke="#0d6d4d" stroke-width="0.1" fill="none" />
<path d="M-235.37483370601367,-67.99770332788026 L-227.77048445450978,90.25301330901877" stroke="#0d6d4d" stroke-width="0.1" fill="none" />
<path d="M-234.743102893552,-70.14752771058478 L-240.81022513827094,45.11580065625858" stroke="#0d6d4d" stroke-width="0.1" fill="none" />
<path d="M-234.0917368473182,-72.29148455942737 L-244.99423627601186,-1.680533109961501" stroke="#0d6d4d" stroke-width="0.1" fill="none" />
<path d="M-233.420790051233,-74.42939454179506 L-240.16865201327354,-48.4150657350284" stroke="#0d6d4d" stroke-width="0.1" fill="none" />
<path d="M-232.73031862706105,-76.56107883086962 L-226.51093187905985,-93.3691476842319" stroke="#0d6d4d" stroke-width="0.1" fill="none" />
<path d="M-232.02038032971691,-78.686359120584 L-204.52333476065166,-134.88960500491658" stroke="#0d6d4d" stroke-width="0.1" fill="none" />
<path d="M-231.29103454243366,-80.80505764053852 L-175.01444847169236,-171.44953434217706" stroke="#0d6d4d" stroke-width="0.1" fill="none" />
<path d="M-230.54234227179631,-82.91699717086915 L-139.06945415857703,-201.7044543881851" stroke="#0d6d4d" stroke-width="0.1" fill="none" />
<path d="M-229.7743661426384,-85.02200105707198 L-98.01021906339416,-224.54174881109634" stroke="#0d6d4d" stroke-width="0.1" fill="none" />
<path d="M-228.987170392804,-87.11989322477936 L-53.34668522104142,-239.12158241348087" stroke="#0d6d4d" stroke-width="0.1" fill="none" />
<path d="M-228.18082086777434,-89.21049819448761 L-6.721341757759977,-244.90778583984502" stroke="#0d6d4d" stroke-width="0.1" fill="none" />
<path d="M-227.35538501516007,-91.2936410962359 L40.15117719301962,-241.6875730566525" stroke="#0d6d4d" stroke-width="0.1" fill="none" />
<path d="M-226.51093187905985,-93.3691476842319 L85.54714768755501,-229.5793664999615" stroke="#0d6d4d" stroke-width="0.1" fill="none" />
<path d="M-225.64753209428466,-95.4368443514284 L127.79714544393345,-209.0284421230329" stroke="#0d6d4d" stroke-width="0.1" fill="none" />
<path d="M-224.7652578804501,-97.49655814404304 L165.3474384591405,-180.79055449608185" stroke="#0d6d4d" stroke-width="0.1" fill="none" />
<path d="M-223.86418303593481,-99.5481167760268 L196.817125074513,-145.90414414060865" stroke="#0d6d4d" stroke-width="0.1" fill="none" />
<path d="M-222.9443829317083,-101.59134864347362 L221.04891625299393,-105.65214916591559" stroke="#0d6d4d" stroke-width="0.1" fill="none" />
<path d="M-222.00593450502598,-103.62608283897504 L237.1516945639632,-61.514825574333784" stroke="#0d6d4d" stroke-width="0.1" fill="none" />
<path d="M-221.048916252994,-105.65214916591549 L244.5332847807269,-15.115311255410157" stroke="#0d6d4d" stroke-width="0.1" fill="none" />
<path d="M-220.07340822600284,-107.66937815270929 L242.9222309609899,31.840064461861353" stroke="#0d6d4d" stroke-width="0.1" fill="none" />
<path d="M-219.0794920210321,-109.67760106697503 L232.3777791641896,77.62453059902604" stroke="#0d6d4d" stroke-width="0.1" fill="none" />
<path d="M-218.06725077482506,-111.67664992964984 L213.2876986940169,120.55437605417013" stroke="#0d6d4d" stroke-width="0.1" fill="none" />
<path d="M-217.03676915693404,-113.66635752904078 L186.35402198932914,159.0508676128509" stroke="#0d6d4d" stroke-width="0.1" fill="none" />
<path d="M-215.9881333626392,-115.64655743480989 L152.56722757502996,191.69830742619772" stroke="#0d6d4d" stroke-width="0.1" fill="none" />
<path d="M-214.92143110573772,-117.61708401189698 L113.16981548776936,217.2960949084549" stroke="#0d6d4d" stroke-width="0.1" fill="none" />
<path d="M-213.83675161120777,-119.57777243437276 L69.61061468012853,234.90287849205822" stroke="#0d6d4d" stroke-width="0.1" fill="none" />
<path d="M-212.7341856077443,-121.52845869922727 L23.49150273588429,243.871173571642" stroke="#0d6d4d" stroke-width="0.1" fill="none" />
<path d="M-211.61382532017103,-123.4689796400867 L-23.491502735884225,243.871173571642" stroke="#0d6d4d" stroke-width="0.1" fill="none" />
<path d="M-210.47576446172536,-125.39917294086236 L-69.61061468012849,234.90287849205825" stroke="#0d6d4d" stroke-width="0.1" fill="none" />
<path d="M-209.3200982262203,-127.31887714932728 L-113.16981548776941,217.29609490845488" stroke="#0d6d4d" stroke-width="0.1" fill="none" />
<path d="M-208.1469232800812,-129.22793169062172 L-152.56722757502982,191.69830742619783" stroke="#0d6d4d" stroke-width="0.1" fill="none" />
<path d="M-206.95633775426091,-131.12617688068346 L-186.35402198932917,159.05086761285088" stroke="#0d6d4d" stroke-width="0.1" fill="none" />
<path d="M-205.74844123603103,-133.01345393960523 L-213.28769869401685,120.55437605417019" stroke="#0d6d4d" stroke-width="0.1" fill="none" />
<path d="M-204.52333476065166,-134.88960500491658 L-232.37777916418955,77.62453059902626" stroke="#0d6d4d" stroke-width="0.1" fill="none" />
<path d="M-203.28112080292098,-136.7544731447869 L-242.92223096098988,31.840064461861523" stroke="#0d6d4d" stroke-width="0.1" fill="none" />
<path d="M-202.02190326860278,-138.60790237115378 L-244.5332847807269,-15.115311255410099" stroke="#0d6d4d" stroke-width="0.1" fill="none" />
<path d="M-200.745787485736,-140.44973765276927 L-237.1516945639632,-61.514825574333834" stroke="#0d6d4d" stroke-width="0.1" fill="none" />
<path d="M-199.45288019582406,-142.27982492816844 L-221.048916252994,-105.65214916591549" stroke="#0d6d4d" stroke-width="0.1" fill="none" />
<path d="M-198.14328954490657,-144.09801111855538 L-196.81712507451303,-145.90414414060862" stroke="#0d6d4d" stroke-width="0.1" fill="none" />
<path d="M-196.81712507451303,-145.90414414060862 L-165.34743845914065,-180.79055449608174" stroke="#0d6d4d" stroke-width="0.1" fill="none" />
<path d="M-195.47449771250083,-147.69807291920063 L-127.79714544393353,-209.02844212303287" stroke="#0d6d4d" stroke-width="0.1" fill="none" />
<path d="M-194.11551976377584,-149.47964740003619 L-85.54714768755521,-229.57936649996142" stroke="#0d6d4d" stroke-width="0.1" fill="none" />
<path d="M-192.7403049008993,-151.24871856220258 L-40.151177193019755,-241.68757305665247" stroke="#0d6d4d" stroke-width="0.1" fill="none" />
<path d="M-191.34896815457935,-153.00513843063501 L6.721341757759905,-244.90778583984502" stroke="#0d6d4d" stroke-width="0.1" fill="none" />
<path d="M-189.94162590404866,-154.74876008849446 L53.34668522104128,-239.1215824134809" stroke="#0d6d4d" stroke-width="0.1" fill="none" />
<path d="M-188.5183958673309,-156.47943768945592 L98.01021906339416,-224.54174881109634" stroke="#0d6d4d" stroke-width="0.1" fill="none" />
<path d="M-187.07939709139325,-158.1970264699081 L139.06945415857697,-201.70445438818516" stroke="#0d6d4d" stroke-width="0.1" fill="none" />
<path d="M-185.62474994218917,-159.90138276106228 L175.01444847169222,-171.4495343421772" stroke="#0d6d4d" stroke-width="0.1" fill="none" />
<path d="M-184.1545760945897,-161.59236400096998 L204.52333476065164,-134.8896050049166" stroke="#0d6d4d" stroke-width="0.1" fill="none" />
<path d="M-182.66899852220675,-163.2698287464467 L226.51093187905983,-93.36914768423202" stroke="#0d6d4d" stroke-width="0.1" fill="none" />
<path d="M-181.168141487106,-164.93363668490412 L240.16865201327354,-48.415065735028406" stroke="#0d6d4d" stroke-width="0.1" fill="none" />
<path d="M-179.65213052941382,-166.5836486460855 L244.99423627601186,-1.6805331099615612" stroke="#0d6d4d" stroke-width="0.1" fill="none" />
<path d="M-178.1210924568154,-168.21972661370788 L240.81022513827094,45.115800656258685" stroke="#0d6d4d" stroke-width="0.1" fill="none" />
<path d="M-176.5751553339488,-169.84173373700546 L227.77048445450978,90.25301330901877" stroke="#0d6d4d" stroke-width="0.1" fill="none" />
<path d="M-175.01444847169236,-171.44953434217706 L206.3545470883322,132.0711963145988" stroke="#0d6d4d" stroke-width="0.1" fill="none" />
<path d="M-173.4391024163482,-173.04299394373493 L177.3499782238182,169.03249753822845" stroke="#0d6d4d" stroke-width="0.1" fill="none" />
<path d="M-171.84924893872332,-174.6219792557532 L141.82341287331238,199.77767533176967" stroke="#0d6d4d" stroke-width="0.1" fill="none" />
<path d="M-170.245021023107,-176.1863582030171 L101.08133066932378,223.17608427006425" stroke="#0d6d4d" stroke-width="0.1" fill="none" />
<path d="M-168.62655285614747,-177.73599993207034 L56.62201043673666,238.3672543242928" stroke="#0d6d4d" stroke-width="0.1" fill="none" />
<path d="M-166.99397981562728,-179.27077482216077 L10.080431402673167,244.7925344097242" stroke="#0d6d4d" stroke-width="0.1" fill="none" />
<path d="M-165.34743845914065,-180.79055449608174 L-36.831852713195104,242.21563662512273" stroke="#0d6d4d" stroke-width="0.1" fill="none" />
<path d="M-163.6870665126695,-182.2952118309115 L-82.38965561415786,230.73132567508137" stroke="#0d6d4d" stroke-width="0.1" fill="none" />
<path d="M-162.013002859065,-183.7846209686452 L-124.91760167623538,210.7619339241728" stroke="#0d6d4d" stroke-width="0.1" fill="none" />
<path d="M-160.3253875264289,-185.2586573267236 L-162.85173742420747,183.04183024084136" stroke="#0d6d4d" stroke-width="0.1" fill="none" />
<path d="M-158.6243616764022,-186.71719760845264 L-194.7970454888858,148.5904137850116" stroke="#0d6d4d" stroke-width="0.1" fill="none" />
<path d="M-156.9100675923568,-188.16011981331755 L-219.57874598572582,108.67462588542043" stroke="#0d6d4d" stroke-width="0.1" fill="none" />
<path d="M-155.1826486674944,-189.5873032471874 L-236.28549872074498,64.76235862203308" stroke="#0d6d4d" stroke-width="0.1" fill="none" />
<path d="M-153.44224939285235,-190.99862853241044 L-244.30291747455152,18.46847350006129" stroke="#0d6d4d" stroke-width="0.1" fill="none" />
<path d="M-151.689015345217,-192.39397761779998 L-243.3361638859417,-28.50458463605691" stroke="#0d6d4d" stroke-width="0.1" fill="none" />
<path d="M-149.923093174948,-193.7732337885082 L-233.420790051233,-74.42939454179506" stroke="#0d6d4d" stroke-width="0.1" fill="none" />
<path d="M-148.14463059371025,-195.1362816757897 L-214.92143110573772,-117.61708401189698" stroke="#0d6d4d" stroke-width="0.1" fill="none" />
<path d="M-146.35377636211985,-196.48300726665045 L-188.5183958673309,-156.47943768945592" stroke="#0d6d4d" stroke-width="0.1" fill="none" />
<path d="M-144.55068027729968,-197.8132979133857 L-155.1826486674944,-189.5873032471874" stroke="#0d6d4d" stroke-width="0.1" fill="none" />
<path d="M-142.73549316035042,-199.1270423430016 L-116.14010240609281,-215.72314806970132" stroke="#0d6d4d" stroke-width="0.1" fill="none" />
<path d="M-140.90836684373485,-200.4241306665229 L-72.82653594293302,-233.92583367929393" stroke="#0d6d4d" stroke-width="0.1" fill="none" />
<path d="M-139.06945415857703,-201.7044543881851 L-26.834793726589073,-243.52596133811159" stroke="#0d6d4d" stroke-width="0.1" fill="none" />
<path d="M-137.2189089218797,-202.967906414509 L20.143790620438562,-244.17048900192654" stroke="#0d6d4d" stroke-width="0.1" fill="none" />
<path d="M-135.3568859236574,-204.21438106325908 L66.38159262874362,-235.83571434384473" stroke="#0d6d4d" stroke-width="0.1" fill="none" />
<path d="M-133.48354091398957,-205.44377407228305 L110.17822989490911,-218.82814640083336" stroke="#0d6d4d" stroke-width="0.1" fill="none" />
<path d="M-131.59903058999166,-206.65598260823333 L149.9230931749479,-193.7732337885083" stroke="#0d6d4d" stroke-width="0.1" fill="none" />
<path d="M-129.70351258270972,-207.850905275168 L184.15457609458966,-161.59236400097" stroke="#0d6d4d" stroke-width="0.1" fill="none" />
<path d="M-127.79714544393353,-209.02844212303287 L211.613825320171,-123.46897964008676" stroke="#0d6d4d" stroke-width="0.1" fill="none" />
<path d="M-125.88008863293598,-210.18849465602102 L231.2910345424336,-80.80505764053868" stroke="#0d6d4d" stroke-width="0.1" fill="none" />
<path d="M-123.9525025031336,-211.3309658408125 L242.462579824758,-35.169551955105526" stroke="#0d6d4d" stroke-width="0.1" fill="none" />
<path d="M-122.01454828867492,-212.4557601146898 L244.71763067365242,11.759304293786" stroke="#0d6d4d" stroke-width="0.1" fill="none" />
<path d="M-120.0663880909532,-213.56278339353187 L237.97325821672848,58.255715373809274" stroke="#0d6d4d" stroke-width="0.1" fill="none" />
<path d="M-118.1081848650476,-214.6519430796836 L222.47748488908766,102.60978860433232" stroke="#0d6d4d" stroke-width="0.1" fill="none" />
<path d="M-116.14010240609281,-215.72314806970132 L198.80016347674547,143.19041518767685" stroke="#0d6d4d" stroke-width="0.1" fill="none" />
<path d="M-114.16230533557757,-216.77630876197324 L167.81202093775124,178.50525378483331" stroke="#0d6d4d" stroke-width="0.1" fill="none" />
<path d="M-112.1749590875762,-217.81133706421392 L130.65263765869923,207.25561095619256" stroke="#0d6d4d" stroke-width="0.1" fill="none" />
<path d="M-110.17822989490912,-218.82814640083333 L88.68853970062865,228.38420025424264" stroke="#0d6d4d" stroke-width="0.1" fill="none" />
<path d="M-108.17228477523987,-219.82665172017792 L43.46294518040308,241.11402364077722" stroke="#0d6d4d" stroke-width="0.1" fill="none" />
<path d="M-106.15729151710313,-220.80676950164545 L-3.360987149482256,244.9769453752353" stroke="#0d6d4d" stroke-width="0.1" fill="none" />
<path d="M-104.1334186658714,-221.7684177626705 L-50.06132010485433,239.83090757731645" stroke="#0d6d4d" stroke-width="0.1" fill="none" />
<path d="M-102.1008355096563,-222.71151606558223 L-94.92066183441464,225.86515436630924" stroke="#0d6d4d" stroke-width="0.1" fill="none" />
<path d="M-100.0597120651478,-223.63598552433308 L-136.28932243092845,203.59327246085127" stroke="#0d6d4d" stroke-width="0.1" fill="none" />
<path d="M-98.01021906339416,-224.54174881109634 L-172.64598082211393,173.8343041691434" stroke="#0d6d4d" stroke-width="0.1" fill="none" />
<path d="M-95.95252793552035,-225.428730162735 L-202.65363093306468,137.6826273341892" stroke="#0d6d4d" stroke-width="0.1" fill="none" />
<path d="M-93.88681079838891,-226.2968553871386 L-225.20874971553167,96.46770989075573" stroke="#0d6d4d" stroke-width="0.1" fill="none" />
<path d="M-91.81324044020235,-227.14605186942958 L-239.4818789033585,51.70521904911672" stroke="#0d6d4d" stroke-width="0.1" fill="none" />
<path d="M-89.73199030605156,-227.97624857803646 L-244.94812811122114,5.041283051841787" stroke="#0d6d4d" stroke-width="0.1" fill="none" />
<path d="M-87.64323448340632,-228.78737607063607 L-241.40647753363507,-41.808044737855624" stroke="#0d6d4d" stroke-width="0.1" fill="none" />
<path d="M-85.54714768755521,-229.57936649996142 L-228.987170392804,-87.11989322477936" stroke="#0d6d4d" stroke-width="0.1" fill="none" />
<path d="M-83.44390524698984,-230.35215361947752 L-208.1469232800812,-129.22793169062172" stroke="#0d6d4d" stroke-width="0.1" fill="none" />
<path d="M-81.33368308874084,-231.105672788922 L-179.65213052941382,-166.5836486460855" stroke="#0d6d4d" stroke-width="0.1" fill="none" />
<path d="M-79.21665772366144,-231.83986097971217 L-144.55068027729968,-197.8132979133857" stroke="#0d6d4d" stroke-width="0.1" fill="none" />
<path d="M-77.09300623166364,-232.55465678021733 L-104.1334186658714,-221.7684177626705" stroke="#0d6d4d" stroke-width="0.1" fill="none" />
<path d="M-74.96290624690505,-233.25000040089546 L-59.88667933239917,-237.5680652750668" stroke="#0d6d4d" stroke-width="0.1" fill="none" />
<path d="M-72.82653594293302,-233.92583367929393 L-13.437623900129637,-244.63121277530934" stroke="#0d6d4d" stroke-width="0.1" fill="none" />
<path d="M-70.68407401777843,-234.5821000849153 L33.50559644117711,-242.69811496408656" stroke="#0d6d4d" stroke-width="0.1" fill="none" />
<path d="M-68.53569967900998,-235.2187447239453 L79.21665772366147,-231.83986097971214" stroke="#0d6d4d" stroke-width="0.1" fill="none" />
<path d="M-66.38159262874358,-235.83571434384473 L122.01454828867487,-212.45576011468984" stroke="#0d6d4d" stroke-width="0.1" fill="none" />
<path d="M-64.22193304861254,-236.43295733780332 L160.32538752642878,-185.2586573267237" stroke="#0d6d4d" stroke-width="0.1" fill="none" />
<path d="M-62.05690158469363,-237.01042374905717 L192.7403049008993,-151.24871856220258" stroke="#0d6d4d" stroke-width="0.1" fill="none" />
<path d="M-59.88667933239917,-237.5680652750668 L218.067250774825,-111.67664992964994" stroke="#0d6d4d" stroke-width="0.1" fill="none" />
<path d="M-57.71144782132722,-238.10583527155782 L235.37483370601367,-67.9977033278802" stroke="#0d6d4d" stroke-width="0.1" fill="none" />
<path d="M-55.5313890000799,-238.6236887564221 L244.02657211048802,-21.818159959189742" stroke="#0d6d4d" stroke-width="0.1" fill="none" />
<path d="M-53.34668522104142,-239.12158241348087 L243.70430069701533,25.163740218392302" stroke="#0d6d4d" stroke-width="0.1" fill="none" />
<path d="M-51.15751922512642,-239.59947459610763 L234.4198709078526,71.22025079670613" stroke="#0d6d4d" stroke-width="0.1" fill="none" />
<path d="M-48.96407412649571,-240.05732533071145 L216.51471508522965,114.65765631462133" stroke="#0d6d4d" stroke-width="0.1" fill="none" />
<path d="M-46.76653339723706,-240.49509632008113 L190.6472903912269,153.8785581765153" stroke="#0d6d4d" stroke-width="0.1" fill="none" />
<path d="M-44.56508085202027,-240.91275094658832 L157.76886422742825,187.44061854461353" stroke="#0d6d4d" stroke-width="0.1" fill="none" />
<path d="M-42.35990063272098,-241.3102542752504 L119.08853163885614,214.10960191476974" stroke="#0d6d4d" stroke-width="0.1" fill="none" />
<path d="M-40.151177193019755,-241.68757305665247 L76.02875117750027,232.9047637863806" stroke="#0d6d4d" stroke-width="0.1" fill="none" />
<path d="M-37.939095282970555,-242.04467572972902 L30.17303438178399,243.13491727062913" stroke="#0d6d4d" stroke-width="0.1" fill="none" />
<path d="M-35.72383993354977,-242.3815324244034 L-16.792287423081934,244.42385129749636" stroke="#0d6d4d" stroke-width="0.1" fill="none" />
<path d="M-33.50559644117702,-242.69811496408659 L-63.14007749401706,236.72416567399603" stroke="#0d6d4d" stroke-width="0.1" fill="none" />
<path d="M-31.284550352218535,-242.99439686803376 L-107.16590864696744,220.31901421318548" stroke="#0d6d4d" stroke-width="0.1" fill="none" />
<path d="M-29.060887447464196,-243.27035335355973 L-147.25074309603554,195.81169183086425" stroke="#0d6d4d" stroke-width="0.1" fill="none" />
<path d="M-26.834793726589073,-243.52596133811159 L-181.92047212107013,164.10344854160422" stroke="#0d6d4d" stroke-width="0.1" fill="none" />
<path d="M-24.606455392596672,-243.76119944119932 L-209.90012600887383,126.36034623828353" stroke="#0d6d4d" stroke-width="0.1" fill="none" />
<path d="M-22.376058836241267,-243.97604798618462 L-230.1607607124098,83.97037708790428" stroke="#0d6d4d" stroke-width="0.1" fill="none" />
<path d="M-20.14379062043865,-244.17048900192654 L-241.95729698405793,38.49242050285201" stroke="#0d6d4d" stroke-width="0.1" fill="none" />
<path d="M-17.90983746466118,-244.34450622428452 L-244.85592045924335,-8.401084219117054" stroke="#0d6d4d" stroke-width="0.1" fill="none" />
<path d="M-15.674386229318838,-244.49808509747913 L-238.7500350599246,-54.985641388318484" stroke="#0d6d4d" stroke-width="0.1" fill="none" />
<path d="M-13.437623900129637,-244.63121277530934 L-223.86418303593481,-99.5481167760268" stroke="#0d6d4d" stroke-width="0.1" fill="none" />
<path d="M-11.199737572478424,-244.74387812222724 L-200.745787485736,-140.44973765276927" stroke="#0d6d4d" stroke-width="0.1" fill="none" />
<path d="M-8.960914435767384,-244.83607171426937 L-170.245021023107,-176.1863582030171" stroke="#0d6d4d" stroke-width="0.1" fill="none" />
<path d="M-6.721341757759977,-244.90778583984502 L-133.48354091398957,-205.44377407228305" stroke="#0d6d4d" stroke-width="0.1" fill="none" />
<path d="M-4.4812068689142155,-244.95901450038124 L-91.81324044020235,-227.14605186942958" stroke="#0d6d4d" stroke-width="0.1" fill="none" />
<path d="M-2.2406971467145875,-244.98975341082473 L-46.76653339723706,-240.49509632008113" stroke="#0d6d4d" stroke-width="0.1" fill="none" />
</svg>