<?xml version="1.0" encoding="UTF-8"?>
<svg xmlns="http://www.w3.org/2000/svg" xmlns:xlink="http://www.w3.org/1999/xlink"
     width="500.0" height="500" viewBox="-250.0 -250.0 500 500">
<defs>
</defs>
<circle cx="0" cy="0" r="245.0" fill="white" stroke-width="2" stroke="black" />
<path d="M0.0,-245.0 L0.0,-245.0" stroke="#0d6d4d" stroke-width="0.1" fill="none" />
<path d="M2.221297705328366,-244.98993007163438 L46.366554868300504,-240.57253082936313" stroke="#0d6d4d" stroke-width="0.1" fill="none" />
<path d="M4.442412812217781,-244.95972111432084 L91.05730163678025,-227.45014358893778" stroke="#0d6d4d" stroke-width="0.1" fill="none" />
<path d="M6.663162737239528,-244.90937561134132 L132.45700027662141,-206.1071155436394" stroke="#0d6d4d" stroke-width="0.1" fill="none" />
<path d="M8.88336492698411,-244.8388977012722 L169.06935781311745,-177.31483933574216" stroke="#0d6d4d" stroke-width="0.1" fill="none" />
<path d="M11.102836873067792,-244.74829317764414 L199.57110825233227,-142.11394284494358" stroke="#0d6d4d" stroke-width="0.1" fill="none" />
<path d="M13.321396127135415,-244.63756948846583 L222.85983886185699,-101.77667818546217" stroke="#0d6d4d" stroke-width="0.1" fill="none" />
<path d="M15.538860315858305,-244.5067357356117 L238.0938342392677,-57.760939199809684" stroke="#0d6d4d" stroke-width="0.1" fill="none" />
<path d="M17.755047155925975,-244.35580267407371 L244.72249809983694,-11.657569376816834" stroke="#0d6d4d" stroke-width="0.1" fill="none" />
<path d="M19.969774469030476,-244.18478271107733 L242.50625326082852,34.86713537695488" stroke="#0d6d4d" stroke-width="0.1" fill="none" />
<path d="M22.18286019684207,-243.99368990506161 L231.52520058509378,80.1316510127683" stroke="#0d6d4d" stroke-width="0.1" fill="none" />
<path d="M24.39412241597508,-243.78253996452335 L212.17622392718746,122.50000000000003" stroke="#0d6d4d" stroke-width="0.1" fill="none" />
<path d="M26.60337935294261,-243.55135024672606 L185.1586457167933,160.44087981659482" stroke="#0d6d4d" stroke-width="0.1" fill="none" />
<path d="M28.81044939909898,-243.30013975627298 L151.44895162404825,192.58300821198293" stroke="#0d6d4d" stroke-width="0.1" fill="none" />
<path d="M31.01515112556857,-243.02892914354487 L112.26549782321558,217.76468492045623" stroke="#0d6d4d" stroke-width="0.1" fill="none" />
<path d="M33.217303298159926,-242.73774070300243 L69.02447642615026,235.07577853555185" stroke="#0d6d4d" stroke-width="0.1" fill="none" />
<path d="M35.41672489226384,-242.42659837135383 L23.2887306095247,243.89062103040573" stroke="#0d6d4d" stroke-width="0.1" fill="none" />
<path d="M37.61323510773421,-242.0955277255867 L-23.288730609524634,243.89062103040575" stroke="#0d6d4d" stroke-width="0.1" fill="none" />
<path d="M39.80665338375042,-241.74455598086578 L-69.02447642615031,235.07577853555185" stroke="#0d6d4d" stroke-width="0.1" fill="none" />
<path d="M41.9967994136601,-241.37371198829587 L-112.26549782321553,217.76468492045626" stroke="#0d6d4d" stroke-width="0.1" fill="none" />
<path d="M44.18349315980097,-240.9830262325499 L-151.4489516240483,192.5830082119829" stroke="#0d6d4d" stroke-width="0.1" fill="none" />
<path d="M46.366554868300504,-240.57253082936313 L-185.15864571679325,160.44087981659487" stroke="#0d6d4d" stroke-width="0.1" fill="none" />
<path d="M48.5458050838524,-240.14225952289323 L-212.17622392718752,122.49999999999991" stroke="#0d6d4d" stroke-width="0.1" fill="none" />
<path d="M50.72106466446843,-239.69224768294617 L-231.52520058509376,80.13165101276836" stroke="#0d6d4d" stroke-width="0.1" fill="none" />
<path d="M52.89215479620446,-239.2225323020688 L-242.50625326082852,34.867135376954884" stroke="#0d6d4d" stroke-width="0.1" fill="none" />
<path d="M55.05889700785966,-238.73315199250794 L-244.72249809983694,-11.657569376816884" stroke="#0d6d4d" stroke-width="0.1" fill="none" />
<path d="M57.221113185647454,-238.22414698303638 L-238.0938342392677,-57.760939199809734" stroke="#0d6d4d" stroke-width="0.1" fill="none" />
<path d="M59.37862558783702,-237.6955591156458 L-222.85983886185704,-101.77667818546207" stroke="#0d6d4d" stroke-width="0.1" fill="none" />
<path d="M61.53125685936441,-237.14743184210727 L-199.5711082523323,-142.1139428449435" stroke="#0d6d4d" stroke-width="0.1" fill="none" />
<path d="M63.67883004641162,-236.57981022039945 L-169.06935781311745,-177.31483933574216" stroke="#0d6d4d" stroke-width="0.1" fill="none" />
<path d="M65.82116861095291,-235.99274091100452 L-132.4570002766214,-206.1071155436394" stroke="#0d6d4d" stroke-width="0.1" fill="none" />
<path d="M67.95809644526683,-235.38627217307257 L-91.05730163678038,-227.45014358893772" stroke="#0d6d4d" stroke-width="0.1" fill="none" />
<path d="M70.08943788641287,-234.7604538604547 L-46.36655486830038,-240.57253082936316" stroke="#0d6d4d" stroke-width="0.1" fill="none" />
<path d="M72.21501773067153,-234.11533741760448 L0.0,-245.0" stroke="#0d6d4d" stroke-width="0.1" fill="none" />
<path d="M74.33466124794676,-233.45097587534949 L46.366554868300504,-240.57253082936313" stroke="#0d6d4d" stroke-width="0.1" fill="none" />
<path d="M76.44819419612934,-232.7674238465316 L91.05730163678025,-227.45014358893778" stroke="#0d6d4d" stroke-width="0.1" fill="none" />
<path d="M78.5554428354202,-232.06473752151797 L132.45700027662141,-206.1071155436394" stroke="#0d6d4d" stroke-width="0.1" fill="none" />
<path d="M80.65623394261242,-231.34297466358166 L169.06935781311745,-177.31483933574216" stroke="#0d6d4d" stroke-width="0.1" fill="none" />
<path d="M82.75039482533082,-230.60219460415345 L199.57110825233227,-142.11394284494358" stroke="#0d6d4d" stroke-width="0.1" fill="none" />
<path d="M84.83775333622786,-229.8424582379447 L222.85983886185699,-101.77667818546217" stroke="#0d6d4d" stroke-width="0.1" fill="none" />
<path d="M86.91813788713473,-229.0638280179414 L238.0938342392677,-57.760939199809684" stroke="#0d6d4d" stroke-width="0.1" fill="none" />
<path d="M88.9913774631665,-228.26636795027036 L244.72249809983694,-11.657569376816834" stroke="#0d6d4d" stroke-width="0.1" fill="none" />
<path d="M91.05730163678025,-227.45014358893778 L242.50625326082852,34.86713537695488" stroke="#0d6d4d" stroke-width="0.1" fill="none" />
<path d="M93.11574058178458,-226.6152220304404 L231.52520058509378,80.1316510127683" stroke="#0d6d4d" stroke-width="0.1" fill="none" />
<path d="M95.1665250873002,-225.76167190824987 L212.17622392718746,122.50000000000003" stroke="#0d6d4d" stroke-width="0.1" fill="none" />
<path d="M97.20948657166942,-224.88956338717105 L185.1586457167933,160.44087981659482" stroke="#0d6d4d" stroke-width="0.1" fill="none" />
<path d="M99.24445709631426,-223.99896815757398 L151.44895162404825,192.58300821198293" stroke="#0d6d4d" stroke-width="0.1" fill="none" />
<path d="M101.2712693795416,-223.08995942950082 L112.26549782321558,217.76468492045623" stroke="#0d6d4d" stroke-width="0.1" fill="none" />
<path d="M103.28975681029424,-222.1626119266477 L69.02447642615026,235.07577853555185" stroke="#0d6d4d" stroke-width="0.1" fill="none" />
<path d="M105.29975346184703,-221.21700188022223 L23.2887306095247,243.89062103040573" stroke="#0d6d4d" stroke-width="0.1" fill="none" />
<path d="M107.30109410544655,-220.25320702267675 L-23.288730609524634,243.89062103040575" stroke="#0d6d4d" stroke-width="0.1" fill="none" />
<path d="M109.29361422389346,-219.27130658131892 L-69.02447642615031,235.07577853555185" stroke="#0d6d4d" stroke-width="0.1" fill="none" />
<path d="M111.27715002506645,-218.27138127179856 L-112.26549782321553,217.76468492045626" stroke="#0d6d4d" stroke-width="0.1" fill="none" />
<path d="M113.25153845538651,-217.2535132914727 L-151.4489516240483,192.5830082119829" stroke="#0d6d4d" stroke-width="0.1" fill="none" />
<path d="M115.21661721322052,-216.2177863126487 L-185.15864571679325,160.44087981659487" stroke="#0d6d4d" stroke-width="0.1" fill="none" />
<path d="M117.17222476222297,-215.16428547570598 L-212.17622392718752,122.49999999999991" stroke="#0d6d4d" stroke-width="0.1" fill="none" />
<path d="M119.11820034461483,-214.0930973820973 L-231.52520058509376,80.13165101276836" stroke="#0d6d4d" stroke-width="0.1" fill="none" />
<path d="M121.05438399439842,-213.00431008722978 L-242.50625326082852,34.867135376954884" stroke="#0d6d4d" stroke-width="0.1" fill="none" />
<path d="M122.9806165505072,-211.89801309322633 L-244.72249809983694,-11.657569376816884" stroke="#0d6d4d" stroke-width="0.1" fill="none" />
<path d="M124.89673966988921,-210.77429734156846 L-238.0938342392677,-57.760939199809734" stroke="#0d6d4d" stroke-width="0.1" fill="none" />
<path d="M126.80259584052371,-209.63325520562046 L-222.85983886185704,-101.77667818546207" stroke="#0d6d4d" stroke-width="0.1" fill="none" />
<path d="M128.69802839436892,-208.47498048303595 L-199.5711082523323,-142.1139428449435" stroke="#0d6d4d" stroke-width="0.1" fill="none" />
<path d="M130.58288152024082,-207.29956838804745 L-169.06935781311745,-177.31483933574216" stroke="#0d6d4d" stroke-width="0.1" fill="none" />
<path d="M132.45700027662141,-206.1071155436394 L-132.4570002766214,-206.1071155436394" stroke="#0d6d4d" stroke-width="0.1" fill="none" />
<path d="M134.32023060439536,-204.8977199736055 L-91.05730163678038,-227.45014358893772" stroke="#0d6d4d" stroke-width="0.1" fill="none" />
<path d="M136.17241933951433,-203.67148109449067 L-46.36655486830038,-240.57253082936316" stroke="#0d6d4d" stroke-width="0.1" fill="none" />
<path d="M138.0134142255874,-202.42849970741875 L0.0,-245.0" stroke="#0d6d4d" stroke-width="0.1" fill="none" />
<path d="M139.8430639263972,-201.16887798980633 L46.366554868300504,-240.57253082936313" stroke="#0d6d4d" stroke-width="0.1" fill="none" />
<path d="M141.66121803834037,-199.8927194869633 L91.05730163678025,-227.45014358893778" stroke="#0d6d4d" stroke-width="0.1" fill="none" />
<path d="M143.467727102791,-198.6001291035811 L132.45700027662141,-206.1071155436394" stroke="#0d6d4d" stroke-width="0.1" fill="none" />
<path d="M145.2624426183869,-197.29121309510936 L169.06935781311745,-177.31483933574216" stroke="#0d6d4d" stroke-width="0.1" fill="none" />
<path d="M147.04521705323685,-195.96607905902098 L199.57110825233227,-142.11394284494358" stroke="#0d6d4d" stroke-width="0.1" fill="none" />
<path d="M148.8159038570481,-194.6248359259676 L222.85983886185699,-101.77667818546217" stroke="#0d6d4d" stroke-width="0.1" fill="none" />
<path d="M150.57435747317368,-193.26759395082485 L238.0938342392677,-57.760939199809684" stroke="#0d6d4d" stroke-width="0.1" fill="none" />
<path d="M152.32043335057713,-191.8944647036292 L244.72249809983694,-11.657569376816834" stroke="#0d6d4d" stroke-width="0.1" fill="none" />
<path d="M154.0539879557156,-190.5055610604064 L242.50625326082852,34.86713537695488" stroke="#0d6d4d" stroke-width="0.1" fill="none" />
<path d="M155.77487878433854,-189.10099719389274 L231.52520058509378,80.1316510127683" stroke="#0d6d4d" stroke-width="0.1" fill="none" />
<path d="M157.48296437320212,-187.68088856414965 L212.17622392718746,122.50000000000003" stroke="#0d6d4d" stroke-width="0.1" fill="none" />
<path d="M159.178104311698,-186.2453519090723 L185.1586457167933,160.44087981659482" stroke="#0d6d4d" stroke-width="0.1" fill="none" />
<path d="M160.86015925339558,-184.79450523479375 L151.44895162404825,192.58300821198293" stroke="#0d6d4d" stroke-width="0.1" fill="none" />
<path d="M162.5289909274967,-183.32846780598396 L112.26549782321558,217.76468492045623" stroke="#0d6d4d" stroke-width="0.1" fill="none" />
<path d="M164.18446215020208,-181.84736013604615 L69.02447642615026,235.07577853555185" stroke="#0d6d4d" stroke-width="0.1" fill="none" />
<path d="M165.82643683598826,-180.35130397721 L23.2887306095247,243.89062103040573" stroke="#0d6d4d" stroke-width="0.1" fill="none" />
<path d="M167.45478000879436,-178.84042231052317 L-23.288730609524634,243.89062103040575" stroke="#0d6d4d" stroke-width="0.1" fill="none" />
<path d="M169.06935781311745,-177.31483933574216 L-69.02447642615031,235.07577853555185" stroke="#0d6d4d" stroke-width="0.1" fill="none" />
<path d="M170.670037525016,-175.77468046112224 L-112.26549782321553,217.76468492045626" stroke="#0d6d4d" stroke-width="0.1" fill="none" />
<path d="M172.25668756302042,-174.22007229310856 L-151.4489516240483,192.5830082119829" stroke="#0d6d4d" stroke-width="0.1" fill="none" />
<path d="M173.82917749894926,-172.65114262592874 L-185.15864571679325,160.44087981659487" stroke="#0d6d4d" stroke-width="0.1" fill="none" />
<path d="M175.38737806863102,-171.0680204310879 L-212.17622392718752,122.49999999999991" stroke="#0d6d4d" stroke-width="0.1" fill="none" />
<path d="M176.93116118253005,-169.47083584676622 L-231.52520058509376,80.13165101276836" stroke="#0d6d4d" stroke-width="0.1" fill="none" />
<path d="M178.4603999362759,-167.85972016712185 L-242.50625326082852,34.867135376954884" stroke="#0d6d4d" stroke-width="0.1" fill="none" />
<path d="M179.9749686210956,-166.23480583149743 L-244.72249809983694,-11.657569376816884" stroke="#0d6d4d" stroke-width="0.1" fill="none" />
<path d="M181.47474273414704,-164.5962264135334 L-238.0938342392677,-57.760939199809734" stroke="#0d6d4d" stroke-width="0.1" fill="none" />
<path d="M182.9595989887535,-162.94411661018788 L-222.85983886185704,-101.77667818546207" stroke="#0d6d4d" stroke-width="0.1" fill="none" />
<path d="M184.42941532453864,-161.27861223066387 L-199.5711082523323,-142.1139428449435" stroke="#0d6d4d" stroke-width="0.1" fill="none" />
<path d="M185.88407091745978,-159.5998501852454 L-169.06935781311745,-177.31483933574216" stroke="#0d6d4d" stroke-width="0.1" fill="none" />
<path d="M187.32344618974054,-157.9079684740431 L-132.4570002766214,-206.1071155436394" stroke="#0d6d4d" stroke-width="0.1" fill="none" />
<path d="M188.7474228197002,-156.20310617564974 L-91.05730163678038,-227.45014358893772" stroke="#0d6d4d" stroke-width="0.1" fill="none" />
<path d="M190.1558837514804,-154.48540343570804 L-46.36655486830038,-240.57253082936316" stroke="#0d6d4d" stroke-width="0.1" fill="none" />
<path d="M191.5487132046673,-152.7550014553897 L0.0,-245.0" stroke="#0d6d4d" stroke-width="0.1" fill="none" />
<path d="M192.92579668380932,-151.0120424797886 L46.366554868300504,-240.57253082936313" stroke="#0d6d4d" stroke-width="0.1" fill="none" />
<path d="M194.28702098782895,-149.25666978622735 L91.05730163678025,-227.45014358893778" stroke="#0d6d4d" stroke-width="0.1" fill="none" />
<path d="M195.63227421932848,-147.48902767247964 L132.45700027662141,-206.1071155436394" stroke="#0d6d4d" stroke-width="0.1" fill="none" />
<path d="M196.96144579378804,-145.70926144490846 L169.06935781311745,-177.31483933574216" stroke="#0d6d4d" stroke-width="0.1" fill="none" />
<path d="M198.27442644865636,-143.91751740652126 L199.57110825233227,-142.11394284494358" stroke="#0d6d4d" stroke-width="0.1" fill="none" />
<path d="M199.57110825233227,-142.11394284494358 L222.85983886185699,-101.77667818546217" stroke="#0d6d4d" stroke-width="0.1" fill="none" />
<path d="M200.85138461303708,-140.29868602031112 L238.0938342392677,-57.760939199809684" stroke="#0d6d4d" stroke-width="0.1" fill="none" />
<path d="M202.11515028757714,-138.47189615308264 L244.72249809983694,-11.657569376816834" stroke="#0d6d4d" stroke-width="0.1" fill="none" />
<path d="M203.3623013899947,-136.63372341177322 L242.50625326082852,34.86713537695488" stroke="#0d6d4d" stroke-width="0.1" fill="none" />
<path d="M204.59273540010813,-134.7843189006101 L231.52520058509378,80.1316510127683" stroke="#0d6d4d" stroke-width="0.1" fill="none" />
<path d="M205.80635117193899,-132.92383464711105 L212.17622392718746,122.50000000000003" stroke="#0d6d4d" stroke-width="0.1" fill="none" />
<path d="M207.0030489420271,-131.05242358958776 L185.1586457167933,160.44087981659482" stroke="#0d6d4d" stroke-width="0.1" fill="none" />
<path d="M208.18273033763103,-129.1702395645731 L151.44895162404825,192.58300821198293" stroke="#0d6d4d" stroke-width="0.1" fill="none" />
<path d="M209.34529838481484,-127.27743729417574 L112.26549782321558,217.76468492045623" stroke="#0d6d4d" stroke-width="0.1" fill="none" />
<path d="M210.49065751641982,-125.37417237336113 L69.02447642615026,235.07577853555185" stroke="#0d6d4d" stroke-width="0.1" fill="none" />
<path d="M211.6187135799201,-123.46060125716117 L23.2887306095247,243.89062103040573" stroke="#0d6d4d" stroke-width="0.1" fill="none" />
<path d="M212.72937384516263,-121.5368812478132 L-23.288730609524634,243.89062103040575" stroke="#0d6d4d" stroke-width="0.1" fill="none" />
<path d="M213.82254701198974,-119.60317048182895 L-69.02447642615031,235.07577853555185" stroke="#0d6d4d" stroke-width="0.1" fill="none" />
<path d="M214.8981432177445,-117.65962791699528 L-112.26549782321553,217.76468492045626" stroke="#0d6d4d" stroke-width="0.1" fill="none" />
<path d="M215.9560740446576,-115.70641331930726 L-151.4489516240483,192.5830082119829" stroke="#0d6d4d" stroke-width="0.1" fill="none" />
<path d="M216.99625252711556,-113.74368724983509 L-185.15864571679325,160.44087981659487" stroke="#0d6d4d" stroke-width="0.1" fill="none" />
<path d="M218.0185931588098,-111.77161105152491 L-212.17622392718752,122.49999999999991" stroke="#0d6d4d" stroke-width="0.1" fill="none" />
<path d="M219.0230118997654,-109.79034683593642 L-231.52520058509376,80.13165101276836" stroke="#0d6d4d" stroke-width="0.1" fill="none" />
<path d="M220.00942618324956,-107.80005746991631 L-242.50625326082852,34.867135376954884" stroke="#0d6d4d" stroke-width="0.1" fill="none" />
<path d="M220.9777549225588,-105.80090656221023 L-244.72249809983694,-11.657569376816884" stroke="#0d6d4d" stroke-width="0.1" fill="none" />
<path d="M221.92791851768462,-103.79305845001353 L-238.0938342392677,-57.760939199809734" stroke="#0d6d4d" stroke-width="0.1" fill="none" />
<path d="M222.85983886185699,-101.77667818546217 L-222.85983886185704,-101.77667818546207" stroke="#0d6d4d" stroke-width="0.1" fill="none" />
<path d="M223.77343934796474,-99.751931522065 L-199.5711082523323,-142.1139428449435" stroke="#0d6d4d" stroke-width="0.1" fill="none" />
<path d="M224.6686448748532,-97.71898490107796 L-169.06935781311745,-177.31483933574216" stroke="#0d6d4d" stroke-width="0.1" fill="none" />
<path d="M225.54538185349767,-95.67800543782218 L-132.4570002766214,-206.1071155436394" stroke="#0d6d4d" stroke-width="0.1" fill="none" />
<path d="M226.4035782130526,-93.62916090794664 L-91.05730163678038,-227.45014358893772" stroke="#0d6d4d" stroke-width="0.1" fill="none" />
<path d="M227.24316340677638,-91.57261973363615 L-46.36655486830038,-240.57253082936316" stroke="#0d6d4d" stroke-width="0.1" fill="none" />
<path d="M228.06406841783004,-89.50855096976677 L0.0,-245.0" stroke="#0d6d4d" stroke-width="0.1" fill="none" />
<path d="M228.86622576495117,-87.43712429000861 L46.366554868300504,-240.57253082936313" stroke="#0d6d4d" stroke-width="0.1" fill="none" />
<path d="M229.6495695080007,-85.35850997287822 L91.05730163678025,-227.45014358893778" stroke="#0d6d4d" stroke-width="0.1" fill="none" />
<path d="M230.4140352533838,-83.27287888774113 L132.45700027662141,-206.1071155436394" stroke="#0d6d4d" stroke-width="0.1" fill="none" />
<path d="M231.15956015934296,-81.18040248076564 L169.06935781311745,-177.31483933574216" stroke="#0d6d4d" stroke-width="0.1" fill="none" />
<path d="M231.8860829411239,-79.08125276082957 L199.57110825233227,-142.11394284494358" stroke="#0d6d4d" stroke-width="0.1" fill="none" />
<path d="M232.59354387601337,-76.9756022853803 L222.85983886185699,-101.77667818546217" stroke="#0d6d4d" stroke-width="0.1" fill="none" />
<path d="M233.28188480824866,-74.86362414625013 L238.0938342392677,-57.760939199809684" stroke="#0d6d4d" stroke-width="0.1" fill="none" />
<path d="M233.9510491537981,-72.74549195542735 L244.72249809983694,-11.657569376816834" stroke="#0d6d4d" stroke-width="0.1" fill="none" />
<path d="M234.6009819050125,-70.62137983078489 L242.50625326082852,34.86713537695488" stroke="#0d6d4d" stroke-width="0.1" fill="none" />
<path d="M235.23162963514704,-68.49146238176704 L231.52520058509378,80.1316510127683" stroke="#0d6d4d" stroke-width="0.1" fill="none" />
<path d="M235.84294050275295,-66.35591469503625 L212.17622392718746,122.50000000000003" stroke="#0d6d4d" stroke-width="0.1" fill="none" />
<path d="M236.43486425593926,-64.21491232008005 L185.1586457167933,160.44087981659482" stroke="#0d6d4d" stroke-width="0.1" fill="none" />
<path d="M237.0073522365036,-62.068631254780435 L151.44895162404825,192.58300821198293" stroke="#0d6d4d" stroke-width="0.1" fill="none" />
<path d="M237.56035738393206,-59.91724793094623 L112.26549782321558,217.76468492045623" stroke="#0d6d4d" stroke-width="0.1" fill="none" />
<path d="M238.0938342392677,-57.760939199809684 L69.02447642615026,235.07577853555185" stroke="#0d6d4d" stroke-width="0.1" fill="none" />
<path d="M238.60773894884758,-55.59988231748887 L23.2887306095247,243.89062103040573" stroke="#0d6d4d" stroke-width="0.1" fill="none" />
<path d="M239.10202926790743,-53.434254930416486 L-23.288730609524634,243.89062103040575" stroke="#0d6d4d" stroke-width="0.1" fill="none" />
<path d="M239.57666456405462,-51.26423506073659 L-69.02447642615031,235.07577853555185" stroke="#0d6d4d" stroke-width="0.1" fill="none" />
<path d="M240.03160582060806,-49.090001091670736 L-112.26549782321553,217.76468492045626" stroke="#0d6d4d" stroke-width="0.1" fill="none" />
<path d="M240.4668156398056,-46.91173175285417 L-151.4489516240483,192.5830082119829" stroke="#0d6d4d" stroke-width="0.1" fill="none" />
<path d="M240.88225824587823,-44.72960610564361 L-185.15864571679325,160.44087981659487" stroke="#0d6d4d" stroke-width="0.1" fill="none" />
<path d="M241.27789948799096,-42.54380352839795 L-212.17622392718752,122.49999999999991" stroke="#0d6d4d" stroke-width="0.1" fill="none" />
<path d="M241.65370684305023,-40.35450370173244 L-231.52520058509376,80.13165101276836" stroke="#0d6d4d" stroke-width="0.1" fill="none" />
<path d="M242.00964941837728,-38.161886593748456 L-242.50625326082852,34.867135376954884" stroke="#0d6d4d" stroke-width="0.1" fill="none" />
<path d="M242.34569795424775,-35.96613244523965 L-244.72249809983694,-11.657569376816884" stroke="#0d6d4d" stroke-width="0.1" fill="none" />
<path d="M242.66182482629685,-33.767421754875194 L-238.0938342392677,-57.760939199809734" stroke="#0d6d4d" stroke-width="0.1" fill="none" />
<path d="M242.95800404779027,-31.56593526436251 L-222.85983886185704,-101.77667818546207" stroke="#0d6d4d" stroke-width="0.1" fill="none" />
<path d="M243.2342112717603,-29.361853943589374 L-199.5711082523323,-142.1139428449435" stroke="#0d6d4d" stroke-width="0.1" fill="none" />
<path d="M243.49042379300727,-27.15535897574772 L-169.06935781311745,-177.31483933574216" stroke="#0d6d4d" stroke-width="0.1" fill="none" />
<path d="M243.726620549966,-24.946631742439706 L-132.4570002766214,-206.1071155436394" stroke="#0d6d4d" stroke-width="0.1" fill="none" />
<path d="M243.9427821264371,-22.735853808767533 L-91.05730163678038,-227.45014358893772" stroke="#0d6d4d" stroke-width="0.1" fill="none" />
<path d="M244.1388907531831,-20.523206908408127 L-46.36655486830038,-240.57253082936316" stroke="#0d6d4d" stroke-width="0.1" fill="none" />
<path d="M244.31493030938913,-18.308872928673974 L0.0,-245.0" stroke="#0d6d4d" stroke-width="0.1" fill="none" />
<path d="M244.47088632398808,-16.093033895561476 L46.366554868300504,-240.57253082936313" stroke="#0d6d4d" stroke-width="0.1" fill="none" />
<path d="M244.60674597685022,-13.875871958787695 L91.05730163678025,-227.45014358893778" stroke="#0d6d4d" stroke-width="0.1" fill="none" />
<path d="M244.72249809983694,-11.657569376816834 L132.45700027662141,-206.1071155436394" stroke="#0d6d4d" stroke-width="0.1" fill="none" />
<path d="M244.81813317771903,-9.43830850187834 L169.06935781311745,-177.31483933574216" stroke="#0d6d4d" stroke-width="0.1" fill="none" />
<path d="M244.8936433489586,-7.218271764976528 L199.57110825233227,-142.11394284494358" stroke="#0d6d4d" stroke-width="0.1" fill="none" />
<path d="M244.9490224063556,-4.997641660894332 L222.85983886185699,-101.77667818546217" stroke="#0d6d4d" stroke-width="0.1" fill="none" />
<path d="M244.98426579755778,-2.776600733191546 L238.0938342392677,-57.760939199809684" stroke="#0d6d4d" stroke-width="0.1" fill="none" />
<path d="M244.99937062543518,-0.5553315591991019 L244.72249809983694,-11.657569376816834" stroke="#0d6d4d" stroke-width="0.1" fill="none" />
<path d="M244.99433564831816,1.6659832649894808 L242.50625326082852,34.86713537695488" stroke="#0d6d4d" stroke-width="0.1" fill="none" />
<path d="M244.9691612800994,3.8871611395279126 L231.52520058509378,80.1316510127683" stroke="#0d6d4d" stroke-width="0.1" fill="none" />
<path d="M244.92384959019998,6.108019475827809 L212.17622392718746,122.50000000000003" stroke="#0d6d4d" stroke-width="0.1" fill="none" />
<path d="M244.85840430339934,8.328375711567944 L185.1586457167933,160.44087981659482" stroke="#0d6d4d" stroke-width="0.1" fill="none" />
<path d="M244.77283079952883,10.548047325701406 L151.44895162404825,192.58300821198293" stroke="#0d6d4d" stroke-width="0.1" fill="none" />
<path d="M244.66713611302973,12.766851853459572 L112.26549782321558,217.76468492045623" stroke="#0d6d4d" stroke-width="0.1" fill="none" />
<path d="M244.5413289323749,14.984606901351462 L69.02447642615026,235.07577853555185" stroke="#0d6d4d" stroke-width="0.1" fill="none" />
<path d="M244.39541959935448,17.201130162156957 L23.2887306095247,243.89062103040573" stroke="#0d6d4d" stroke-width="0.1" fill="none" />
<path d="M244.2294201082259,19.41623942991314 L-23.288730609524634,243.89062103040575" stroke="#0d6d4d" stroke-width="0.1" fill="none" />
<path d="M244.04334410472777,21.62975261489227 L-69.02447642615031,235.07577853555185" stroke="#0d6d4d" stroke-width="0.1" fill="none" />
<path d="M243.83720688495828,23.841487758570246 L-112.26549782321553,217.76468492045626" stroke="#0d6d4d" stroke-width="0.1" fill="none" />
<path d="M243.61102539411775,26.051263048584012 L-151.4489516240483,192.5830082119829" stroke="#0d6d4d" stroke-width="0.1" fill="none" />
<path d="M243.3648182251156,28.25889683367751 L-185.15864571679325,160.44087981659487" stroke="#0d6d4d" stroke-width="0.1" fill="none" />
<path d="M243.09860561704215,30.464207638633866 L-212.17622392718752,122.49999999999991" stroke="#0d6d4d" stroke-width="0.1" fill="none" />
<path d="M242.81240945350464,32.66701417919319 L-231.52520058509376,80.13165101276836" stroke="#0d6d4d" stroke-width="0.1" fill="none" />
<path d="M242.50625326082852,34.86713537695488 L-242.50625326082852,34.867135376954884" stroke="#0d6d4d" stroke-width="0.1" fill="none" />
<path d="M242.18016220612338,37.06439037426302 L-244.72249809983694,-11.657569376816884" stroke="#0d6d4d" stroke-width="0.1" fill="none" />
<path d="M241.83416309521428,39.25859854907332 L-238.0938342392677,-57.760939199809734" stroke="#0d6d4d" stroke-width="0.1" fill="none" />
<path d="M241.46828437043797,41.44957952980099 L-222.85983886185704,-101.77667818546207" stroke="#0d6d4d" stroke-width="0.1" fill="none" />
<path d="M241.0825561083051,43.63715321014784 L-199.5711082523323,-142.1139428449435" stroke="#0d6d4d" stroke-width="0.1" fill="none" />
<path d="M240.67701001702767,45.821139763907745 L-169.06935781311745,-177.31483933574216" stroke="#0d6d4d" stroke-width="0.1" fill="none" />
<path d="M240.25167943391247,48.0013596597488 L-132.4570002766214,-206.1071155436394" stroke="#0d6d4d" stroke-width="0.1" fill="none" />
<path d="M239.8065993226208,50.177633675971684 L-91.05730163678038,-227.45014358893772" stroke="#0d6d4d" stroke-width="0.1" fill="none" />
<path d="M239.34180627029417,52.34978291524212 L-46.36655486830038,-240.57253082936316" stroke="#0d6d4d" stroke-width="0.1" fill="none" />
<path d="M238.85733848454677,54.517628819297066 L0.0,-245.0" stroke="#0d6d4d" stroke-width="0.1" fill="none" />
<path d="M238.35323579032476,56.68099318362232 L46.366554868300504,-240.57253082936313" stroke="#0d6d4d" stroke-width="0.1" fill="none" />
<path d="M237.8295396266324,58.83969817210226 L91.05730163678025,-227.45014358893778" stroke="#0d6d4d" stroke-width="0.1" fill="none" />
<path d="M237.28629304312557,60.99356633163813 L132.45700027662141,-206.1071155436394" stroke="#0d6d4d" stroke-width="0.1" fill="none" />
<path d="M236.72354069657314,63.14242060673544 L169.06935781311745,-177.31483933574216" stroke="#0d6d4d" stroke-width="0.1" fill="none" />
<path d="M236.14132884718583,65.28608435405853 L199.57110825233227,-142.11394284494358" stroke="#0d6d4d" stroke-width="0.1" fill="none" />
<path d="M235.53970535481358,67.42438135695133 L222.85983886185699,-101.77667818546217" stroke="#0d6d4d" stroke-width="0.1" fill="none" />
<path d="M234.9187196750113,69.55713583992278 L238.0938342392677,-57.760939199809684" stroke="#0d6d4d" stroke-width="0.1" fill="none" />
<path d="M234.27842285497331,71.68417248309645 L244.72249809983694,-11.657569376816834" stroke="#0d6d4d" stroke-width="0.1" fill="none" />
<path d="M233.61886752933728,73.80531643662233 L242.50625326082852,34.86713537695488" stroke="#0d6d4d" stroke-width="0.1" fill="none" />
<path d="M232.94010791585734,75.92039333505022 L231.52520058509378,80.1316510127683" stroke="#0d6d4d" stroke-width="0.1" fill="none" />
<path d="M232.24219981094726,78.02922931166272 L212.17622392718746,122.50000000000003" stroke="#0d6d4d" stroke-width="0.1" fill="none" />
<path d="M231.52520058509378,80.1316510127683 L185.1586457167933,160.44087981659482" stroke="#0d6d4d" stroke-width="0.1" fill="none" />
<path d="M230.78916917814044,82.22748561195131 L151.44895162404825,192.58300821198293" stroke="#0d6d4d" stroke-width="0.1" fill="none" />
<path d="M230.03416609444278,84.31656082427884 L112.26549782321558,217.76468492045623" stroke="#0d6d4d" stroke-width="0.1" fill="none" />
<path d="M229.26025339789433,86.3987049204632 L69.02447642615026,235.07577853555185" stroke="#0d6d4d" stroke-width="0.1" fill="none" />
<path d="M228.46749470682508,88.4737467409788 L23.2887306095247,243.89062103040573" stroke="#0d6d4d" stroke-width="0.1" fill="none" />
<path d="M227.65595518877157,90.54151571013173 L-23.288730609524634,243.89062103040575" stroke="#0d6d4d" stroke-width="0.1" fill="none" />
<path d="M226.82570155512002,92.60184185008208 L-69.02447642615031,235.07577853555185" stroke="#0d6d4d" stroke-width="0.1" fill="none" />
<path d="M225.97680205562247,94.65455579481647 L-112.26549782321553,217.76468492045626" stroke="#0d6d4d" stroke-width="0.1" fill="none" />
<path d="M225.10932647278617,96.6994888040706 L-151.4489516240483,192.5830082119829" stroke="#0d6d4d" stroke-width="0.1" fill="none" />
<path d="M224.22334611613746,98.73647277720033 L-185.15864571679325,160.44087981659487" stroke="#0d6d4d" stroke-width="0.1" fill="none" />
<path d="M223.31893381635993,100.76534026699983 L-212.17622392718752,122.49999999999991" stroke="#0d6d4d" stroke-width="0.1" fill="none" />
<path d="M222.3961639193071,102.7859244934669 L-231.52520058509376,80.13165101276836" stroke="#0d6d4d" stroke-width="0.1" fill="none" />
<path d="M221.4551122798914,104.79805935751241 L-242.50625326082852,34.867135376954884" stroke="#0d6d4d" stroke-width="0.1" fill="none" />
<path d="M220.49585625584828,106.80157945461428 L-244.72249809983694,-11.657569376816884" stroke="#0d6d4d" stroke-width="0.1" fill="none" />
<path d="M219.5184747013773,108.79632008841466 L-238.0938342392677,-57.760939199809734" stroke="#0d6d4d" stroke-width="0.1" fill="none" />
<path d="M218.52304796066002,110.78211728425794 L-222.85983886185704,-101.77667818546207" stroke="#0d6d4d" stroke-width="0.1" fill="none" />
<path d="M217.50965786125533,112.75880780267076 L-199.5711082523323,-142.1139428449435" stroke="#0d6d4d" stroke-width="0.1" fill="none" />
<path d="M216.47838770737317,114.72622915278016 L-169.06935781311745,-177.31483933574216" stroke="#0d6d4d" stroke-width="0.1" fill="none" />
<path d="M215.4293222730264,116.68421960567132 L-132.4570002766214,-206.1071155436394" stroke="#0d6d4d" stroke-width="0.1" fill="none" />
<path d="M214.36254779506208,118.63261820768233 L-91.05730163678038,-227.45014358893772" stroke="#0d6d4d" stroke-width="0.1" fill="none" />
<path d="M213.27815196607273,120.57126479363475 L-46.36655486830038,-240.57253082936316" stroke="#0d6d4d" stroke-width="0.1" fill="none" />
<path d="M212.17622392718746,122.50000000000003 L0.0,-245.0" stroke="#0d6d4d" stroke-width="0.1" fill="none" />
<path d="M211.0568542607444,124.41866527799962 L46.366554868300504,-240.57253082936313" stroke="#0d6d4d" stroke-width="0.1" fill="none" />
<path d="M209.9201349828443,126.3271029066385 L91.05730163678025,-227.45014358893778" stroke="#0d6d4d" stroke-width="0.1" fill="none" />
<path d="M208.76615953578687,128.22515600566987 L132.45700027662141,-206.1071155436394" stroke="#0d6d4d" stroke-width="0.1" fill="none" />
<path d="M207.5950227803891,130.112668548492 L169.06935781311745,-177.31483933574216" stroke="#0d6d4d" stroke-width="0.1" fill="none" />
<path d="M206.40682098818758,131.98948537497327 L199.57110825233227,-142.11394284494358" stroke="#0d6d4d" stroke-width="0.1" fill="none" />
<path d="M205.2016518335246,133.85545220420775 L222.85983886185699,-101.77667818546217" stroke="#0d6d4d" stroke-width="0.1" fill="none" />
<path d="M203.979614385519,135.710415647197 L238.0938342392677,-57.760939199809684" stroke="#0d6d4d" stroke-width="0.1" fill="none" />
<path d="M202.74080909992236,137.55422321945932 L244.72249809983694,-11.657569376816834" stroke="#0d6d4d" stroke-width="0.1" fill="none" />
<path d="M201.48533781086098,139.38672335356492 L242.50625326082852,34.86713537695488" stroke="#0d6d4d" stroke-width="0.1" fill="none" />
<path d="M200.21330372246504,141.2077654115947 L231.52520058509378,80.1316510127683" stroke="#0d6d4d" stroke-width="0.1" fill="none" />
<path d="M198.9248114003848,143.01719969752355 L212.17622392718746,122.50000000000003" stroke="#0d6d4d" stroke-width="0.1" fill="none" />
<path d="M197.6199667631949,144.8148774695257 L185.1586457167933,160.44087981659482" stroke="#0d6d4d" stroke-width="0.1" fill="none" />
<path d="M196.29887707368715,146.6006509522023 L151.44895162404825,192.58300821198293" stroke="#0d6d4d" stroke-width="0.1" fill="none" />
<path d="M194.9616509300539,148.37437334872826 L112.26549782321558,217.76468492045623" stroke="#0d6d4d" stroke-width="0.1" fill="none" />
<path d="M193.60839825696013,150.13589885292032 L69.02447642615026,235.07577853555185" stroke="#0d6d4d" stroke-width="0.1" fill="none" />
<path d="M192.23923029650774,151.8850826612221 L23.2887306095247,243.89062103040573" stroke="#0d6d4d" stroke-width="0.1" fill="none" />
<path d="M190.8542595990909,153.62178098460782 L-23.288730609524634,243.89062103040575" stroke="#0d6d4d" stroke-width="0.1" fill="none" />
<path d="M189.45360001414394,155.3458510604025 L-69.02447642615031,235.07577853555185" stroke="#0d6d4d" stroke-width="0.1" fill="none" />
<path d="M188.03736668078272,157.05715116401691 L-112.26549782321553,217.76468492045626" stroke="#0d6d4d" stroke-width="0.1" fill="none" />
<path d="M186.60567601833944,158.7555406205986 L-151.4489516240483,192.5830082119829" stroke="#0d6d4d" stroke-width="0.1" fill="none" />
<path d="M185.1586457167933,160.44087981659482 L-185.15864571679325,160.44087981659487" stroke="#0d6d4d" stroke-width="0.1" fill="none" />
<path d="M183.69639472709488,162.11303021123058 L-212.17622392718752,122.49999999999991" stroke="#0d6d4d" stroke-width="0.1" fill="none" />
<path d="M182.21904325138897,163.77185434789595 L-231.52520058509376,80.13165101276836" stroke="#0d6d4d" stroke-width="0.1" fill="none" />
<path d="M180.7267127331328,165.41721586544637 L-242.50625326082852,34.867135376954884" stroke="#0d6d4d" stroke-width="0.1" fill="none" />
<path d="M179.2195258471137,167.0489795094114 L-244.72249809983694,-11.657569376816884" stroke="#0d6d4d" stroke-width="0.1" fill="none" />
<path d="M177.69760648936384,168.66701114311354 L-238.0938342392677,-57.760939199809734" stroke="#0d6d4d" stroke-width="0.1" fill="none" />
<path d="M176.16107976697657,170.27117775869445 L-222.85983886185704,-101.77667818546207" stroke="#0d6d4d" stroke-width="0.1" fill="none" />
<path d="M174.61007198782147,171.86134748804866 L-199.5711082523323,-142.1139428449435" stroke="#0d6d4d" stroke-width="0.1" fill="none" />
<path d="M173.04471065016153,173.43738961366395 L-169.06935781311745,-177.31483933574216" stroke="#0d6d4d" stroke-width="0.1" fill="none" />
<path d="M171.4651244321727,174.99917457936633 L-132.4570002766214,-206.1071155436394" stroke="#0d6d4d" stroke-width="0.1" fill="none" />
<path d="M169.87144318136552,176.54657400097037 L-91.05730163678038,-227.45014358893772" stroke="#0d6d4d" stroke-width="0.1" fill="none" />
<path d="M168.26379790391192,178.07946067683238 L-46.36655486830038,-240.57253082936316" stroke="#0d6d4d" stroke-width="0.1" fill="none" />
<path d="M166.64232075387525,179.59770859830746 L0.0,-245.0" stroke="#0d6d4d" stroke-width="0.1" fill="none" />
<path d="M165.00714502234743,181.10119296010728 L46.366554868300504,-240.57253082936313" stroke="#0d6d4d" stroke-width="0.1" fill="none" />
<path d="M163.35840512649145,182.5897901705599 L91.05730163678025,-227.45014358893778" stroke="#0d6d4d" stroke-width="0.1" fill="none" />
<path d="M161.69623659849225,184.06337786176917 L132.45700027662141,-206.1071155436394" stroke="#0d6d4d" stroke-width="0.1" fill="none" />
<path d="M160.0207760744153,185.52183489967388 L169.06935781311745,-177.31483933574216" stroke="#0d6d4d" stroke-width="0.1" fill="none" />
<path d="M158.33216128297428,186.96504139400557 L199.57110825233227,-142.11394284494358" stroke="#0d6d4d" stroke-width="0.1" fill="none" />
<path d="M156.63053103421018,188.39287870814366 L222.85983886185699,-101.77667818546217" stroke="#0d6d4d" stroke-width="0.1" fill="none" />
<path d="M154.9160252080796,189.80522946886805 L238.0938342392677,-57.760939199809684" stroke="#0d6d4d" stroke-width="0.1" fill="none" />
<path d="M153.1887847429569,191.20197757600735 L244.72249809983694,-11.657569376816834" stroke="#0d6d4d" stroke-width="0.1" fill="none" />
<path d="M151.44895162404825,192.58300821198293 L242.50625326082852,34.86713537695488" stroke="#0d6d4d" stroke-width="0.1" fill="none" />
<path d="M149.69666887172008,193.94820785124722 L231.52520058509378,80.1316510127683" stroke="#0d6d4d" stroke-width="0.1" fill="none" />
<path d="M147.93208052974197,195.297464269616 L212.17622392718746,122.50000000000003" stroke="#0d6d4d" stroke-width="0.1" fill="none" />
<path d="M146.15533165344618,196.63066655349354 L185.1586457167933,160.44087981659482" stroke="#0d6d4d" stroke-width="0.1" fill="none" />
<path d="M144.3665682978035,197.94770510898994 L151.44895162404825,192.58300821198293" stroke="#0d6d4d" stroke-width="0.1" fill="none" />
<path d="M142.56593750541668,199.24847167093057 L112.26549782321558,217.76468492045623" stroke="#0d6d4d" stroke-width="0.1" fill="none" />
<path d="M140.75358729443357,200.53285931175537 L69.02447642615026,235.07577853555185" stroke="#0d6d4d" stroke-width="0.1" fill="none" />
<path d="M138.92966664637885,201.800762450309 L23.2887306095247,243.89062103040573" stroke="#0d6d4d" stroke-width="0.1" fill="none" />
<path d="M137.094325493908,203.05207686051972 L-23.288730609524634,243.89062103040575" stroke="#0d6d4d" stroke-width="0.1" fill="none" />
<path d="M135.24771470848145,204.28669967996743 L-69.02447642615031,235.07577853555185" stroke="#0d6d4d" stroke-width="0.1" fill="none" />
<path d="M133.3899860879633,205.504529418339 L-112.26549782321553,217.76468492045626" stroke="#0d6d4d" stroke-width="0.1" fill="none" />
<path d="M131.5212923441423,206.70546596577137 L-151.4489516240483,192.5830082119829" stroke="#0d6d4d" stroke-width="0.1" fill="none" />
<path d="M129.64178709017884,207.88941060108073 L-185.15864571679325,160.44087981659487" stroke="#0d6d4d" stroke-width="0.1" fill="none" />
<path d="M127.75162482797704,209.05626599987812 L-212.17622392718752,122.49999999999991" stroke="#0d6d4d" stroke-width="0.1" fill="none" />
<path d="M125.85096093548455,210.20593624256938 L-231.52520058509376,80.13165101276836" stroke="#0d6d4d" stroke-width="0.1" fill="none" />
<path d="M123.93995165391976,211.33832682224025 L-242.50625326082852,34.867135376954884" stroke="#0d6d4d" stroke-width="0.1" fill="none" />
<path d="M122.018754074928,212.4533446524254 L-244.72249809983694,-11.657569376816884" stroke="#0d6d4d" stroke-width="0.1" fill="none" />
<path d="M120.08752612766861,213.55089807475994 L-238.0938342392677,-57.760939199809734" stroke="#0d6d4d" stroke-width="0.1" fill="none" />
<path d="M118.1464265658319,214.63089686651475 L-222.85983886185704,-101.77667818546207" stroke="#0d6d4d" stroke-width="0.1" fill="none" />
<path d="M116.1956149545898,215.6932522480124 L-199.5711082523323,-142.1139428449435" stroke="#0d6d4d" stroke-width="0.1" fill="none" />
<path d="M114.23525165747827,216.73787688992576 L-169.06935781311745,-177.31483933574216" stroke="#0d6d4d" stroke-width="0.1" fill="none" />
<path d="M112.26549782321558,217.76468492045623 L-132.4570002766214,-206.1071155436394" stroke="#0d6d4d" stroke-width="0.1" fill="none" />
<path d="M110.28651537245482,218.77359193239317 L-91.05730163678038,-227.45014358893772" stroke="#0d6d4d" stroke-width="0.1" fill="none" />
<path d="M108.29846698447372,219.76451499005216 L-46.36655486830038,-240.57253082936316" stroke="#0d6d4d" stroke-width="0.1" fill="none" />
<path d="M106.30151608380177,220.73737263609266 L0.0,-245.0" stroke="#0d6d4d" stroke-width="0.1" fill="none" />
<path d="M104.29582682678586,221.69208489821438 L46.366554868300504,-240.57253082936313" stroke="#0d6d4d" stroke-width="0.1" fill="none" />
<path d="M102.28156408809677,222.62857329573072 L91.05730163678025,-227.45014358893778" stroke="#0d6d4d" stroke-width="0.1" fill="none" />
<path d="M100.258893447175,223.5467608460208 L132.45700027662141,-206.1071155436394" stroke="#0d6d4d" stroke-width="0.1" fill="none" />
<path d="M98.22798117462042,224.44657207085703 L169.06935781311745,-177.31483933574216" stroke="#0d6d4d" stroke-width="0.1" fill="none" />
<path d="M96.1889942185235,225.32793300261034 L199.57110825233227,-142.11394284494358" stroke="#0d6d4d" stroke-width="0.1" fill="none" />
<path d="M94.14210019074214,226.1907711903301 L222.85983886185699,-101.77667818546217" stroke="#0d6d4d" stroke-width="0.1" fill="none" />
<path d="M92.08746735312324,227.0350157057 L238.0938342392677,-57.760939199809684" stroke="#0d6d4d" stroke-width="0.1" fill="none" />
<path d="M90.02526460367065,227.8605971488688 L244.72249809983694,-11.657569376816834" stroke="#0d6d4d" stroke-width="0.1" fill="none" />
<path d="M87.95566146266168,228.66744765415484 L242.50625326082852,34.86713537695488" stroke="#0d6d4d" stroke-width="0.1" fill="none" />
<path d="M85.87882805871165,229.45550089562516 L231.52520058509378,80.1316510127683" stroke="#0d6d4d" stroke-width="0.1" fill="none" />
<path d="M83.79493511478887,230.22469209254754 L212.17622392718746,122.50000000000003" stroke="#0d6d4d" stroke-width="0.1" fill="none" />
<path d="M81.70415393418021,230.97495801471592 L185.1586457167933,160.44087981659482" stroke="#0d6d4d" stroke-width="0.1" fill="none" />
<path d="M79.6066563864101,231.70623698764788 L151.44895162404825,192.58300821198293" stroke="#0d6d4d" stroke-width="0.1" fill="none" />
<path d="M77.5026148931114,232.41846889765466 L112.26549782321558,217.76468492045623" stroke="#0d6d4d" stroke-width="0.1" fill="none" />
<path d="M75.39220241385253,233.1115951967827 L69.02447642615026,235.07577853555185" stroke="#0d6d4d" stroke-width="0.1" fill="none" />
<path d="M73.27559243191921,233.7855589076264 L23.2887306095247,243.89062103040573" stroke="#0d6d4d" stroke-width="0.1" fill="none" />
<path d="M71.15295894005321,234.4403046280121 L-23.288730609524634,243.89062103040575" stroke="#0d6d4d" stroke-width="0.1" fill="none" />
<path d="M69.02447642615026,235.07577853555185 L-69.02447642615031,235.07577853555185" stroke="#0d6d4d" stroke-width="0.1" fill="none" />
<path d="M66.890319858916,235.69192839206843 L-112.26549782321553,217.76468492045626" stroke="#0d6d4d" stroke-width="0.1" fill="none" />
<path d="M64.7506646734832,236.28870354788893 L-151.4489516240483,192.5830082119829" stroke="#0d6d4d" stroke-width="0.1" fill="none" />
<path d="M62.60568675698999,236.86605494600877 L-185.15864571679325,160.44087981659487" stroke="#0d6d4d" stroke-width="0.1" fill="none" />
<path d="M60.455562434121994,237.42393512612406 L-212.17622392718752,122.49999999999991" stroke="#0d6d4d" stroke-width="0.1" fill="none" />
<path d="M58.30046845261703,237.96229822853326 L-231.52520058509376,80.13165101276836" stroke="#0d6d4d" stroke-width="0.1" fill="none" />
<path d="M56.14058196873667,238.48109999790668 L-242.50625326082852,34.867135376954884" stroke="#0d6d4d" stroke-width="0.1" fill="none" />
<path d="M53.9760805327025,238.98029778692472 L-244.72249809983694,-11.657569376816884" stroke="#0d6d4d" stroke-width="0.1" fill="none" />
<path d="M51.80714207410161,239.45985055978352 L-238.0938342392677,-57.760939199809734" stroke="#0d6d4d" stroke-width="0.1" fill="none" />
<path d="M49.633944887259915,239.91971889556814 L-222.85983886185704,-101.77667818546207" stroke="#0d6d4d" stroke-width="0.1" fill="none" />
<path d="M47.4566676165853,240.3598649914934 L-199.5711082523323,-142.1139428449435" stroke="#0d6d4d" stroke-width="0.1" fill="none" />
<path d="M45.27548924188329,240.78025266601102 L-169.06935781311745,-177.31483933574216" stroke="#0d6d4d" stroke-width="0.1" fill="none" />
<path d="M43.090589063643236,241.18084736178417 L-132.4570002766214,-206.1071155436394" stroke="#0d6d4d" stroke-width="0.1" fill="none" />
<path d="M40.90214668830061,241.56161614852792 L-91.05730163678038,-227.45014358893772" stroke="#0d6d4d" stroke-width="0.1" fill="none" />
<path d="M38.710342013470715,241.9225277257166 L-46.36655486830038,-240.57253082936316" stroke="#0d6d4d" stroke-width="0.1" fill="none" />
<path d="M36.5153552131628,242.2635524251565 L0.0,-245.0" stroke="#0d6d4d" stroke-width="0.1" fill="none" />
<path d="M34.31736672296709,242.58466221342476 L46.366554868300504,-240.57253082936313" stroke="#0d6d4d" stroke-width="0.1" fill="none" />
<path d="M32.116557225223644,242.88583069417393 L91.05730163678025,-227.45014358893778" stroke="#0d6d4d" stroke-width="0.1" fill="none" />
<path d="M29.913107634169226,243.1670331103018 L132.45700027662141,-206.1071155436394" stroke="#0d6d4d" stroke-width="0.1" fill="none" />
<path d="M27.707199081065152,243.42824634598637 L169.06935781311745,-177.31483933574216" stroke="#0d6d4d" stroke-width="0.1" fill="none" />
<path d="M25.49901289930846,243.66944892858626 L199.57110825233227,-142.11394284494358" stroke="#0d6d4d" stroke-width="0.1" fill="none" />
<path d="M23.2887306095247,243.89062103040573 L222.85983886185699,-101.77667818546217" stroke="#0d6d4d" stroke-width="0.1" fill="none" />
<path d="M21.076533904647672,244.09174447032458 L238.0938342392677,-57.760939199809684" stroke="#0d6d4d" stroke-width="0.1" fill="none" />
<path d="M18.86260463498163,244.27280271529284 L244.72249809983694,-11.657569376816834" stroke="#0d6d4d" stroke-width="0.1" fill="none" />
<path d="M16.647124793254875,244.4337808816895 L242.50625326082852,34.86713537695488" stroke="#0d6d4d" stroke-width="0.1" fill="none" />
<path d="M14.430276499657305,244.57466573654648 L231.52520058509378,80.1316510127683" stroke="#0d6d4d" stroke-width="0.1" fill="none" />
<path d="M12.212241986870882,244.69544569863598 L212.17622392718746,122.50000000000003" stroke="#0d6d4d" stroke-width="0.1" fill="none" />
<path d="M9.993203585088505,244.7961108394228 L185.1586457167933,160.44087981659482" stroke="#0d6d4d" stroke-width="0.1" fill="none" />
<path d="M7.773343707026576,244.87665288388035 L151.44895162404825,192.58300821198293" stroke="#0d6d4d" stroke-width="0.1" fill="none" />
<path d="M5.552844832929726,244.93706521117093 L112.26549782321558,217.76468492045623" stroke="#0d6d4d" stroke-width="0.1" fill="none" />
<path d="M3.33188949556986,244.97734285519002 L69.02447642615026,235.07577853555185" stroke="#0d6d4d" stroke-width="0.1" fill="none" />
<path d="M1.110660265242625,244.99748250497436 L23.2887306095247,243.89062103040573" stroke="#0d6d4d" stroke-width="0.1" fill="none" />
<path d="M-1.110660265242565,244.99748250497436 L-23.288730609524634,243.89062103040575" stroke="#0d6d4d" stroke-width="0.1" fill="none" />
<path d="M-3.3318894955699085,244.97734285519 L-69.02447642615031,235.07577853555185" stroke="#0d6d4d" stroke-width="0.1" fill="none" />
<path d="M-5.552844832929667,244.93706521117093 L-112.26549782321553,217.76468492045626" stroke="#0d6d4d" stroke-width="0.1" fill="none" />
<path d="M-7.773343707026514,244.87665288388038 L-151.4489516240483,192.5830082119829" stroke="#0d6d4d" stroke-width="0.1" fill="none" />
<path d="M-9.993203585088445,244.7961108394228 L-185.15864571679325,160.44087981659487" stroke="#0d6d4d" stroke-width="0.1" fill="none" />
<path d="M-12.212241986870714,244.69544569863598 L-212.17622392718752,122.49999999999991" stroke="#0d6d4d" stroke-width="0.1" fill="none" />
<path d="M-14.430276499657243,244.57466573654648 L-231.52520058509376,80.13165101276836" stroke="#0d6d4d" stroke-width="0.1" fill="none" />
<path d="M-16.647124793254815,244.4337808816895 L-242.50625326082852,34.867135376954884" stroke="#0d6d4d" stroke-width="0.1" fill="none" />
<path d="M-18.86260463498157,244.27280271529284 L-244.72249809983694,-11.657569376816884" stroke="#0d6d4d" stroke-width="0.1" fill="none" />
<path d="M-21.07653390464761,244.09174447032458 L-238.0938342392677,-57.760939199809734" stroke="#0d6d4d" stroke-width="0.1" fill="none" />
<path d="M-23.288730609524634,243.89062103040575 L-222.85983886185704,-101.77667818546207" stroke="#0d6d4d" stroke-width="0.1" fill="none" />
<path d="M-25.4990128993084,243.66944892858626 L-199.5711082523323,-142.1139428449435" stroke="#0d6d4d" stroke-width="0.1" fill="none" />
<path d="M-27.707199081065088,243.42824634598637 L-169.06935781311745,-177.31483933574216" stroke="#0d6d4d" stroke-width="0.1" fill="none" />
<path d="M-29.91310763416916,243.1670331103018 L-132.4570002766214,-206.1071155436394" stroke="#0d6d4d" stroke-width="0.1" fill="none" />
<path d="M-32.116557225223595,242.88583069417396 L-91.05730163678038,-227.45014358893772" stroke="#0d6d4d" stroke-width="0.1" fill="none" />
<path d="M-34.31736672296704,242.5846622134248 L-46.36655486830038,-240.57253082936316" stroke="#0d6d4d" stroke-width="0.1" fill="none" />
<path d="M-36.51535521316274,242.2635524251565 L0.0,-245.0" stroke="#0d6d4d" stroke-width="0.1" fill="none" />
<path d="M-38.710342013470665,241.92252772571663 L46.366554868300504,-240.57253082936313" stroke="#0d6d4d" stroke-width="0.1" fill="none" />
<path d="M-40.902146688300554,241.56161614852792 L91.05730163678025,-227.45014358893778" stroke="#0d6d4d" stroke-width="0.1" fill="none" />
<path d="M-43.09058906364318,241.18084736178417 L132.45700027662141,-206.1071155436394" stroke="#0d6d4d" stroke-width="0.1" fill="none" />
<path d="M-45.275489241883236,240.78025266601102 L169.06935781311745,-177.31483933574216" stroke="#0d6d4d" stroke-width="0.1" fill="none" />
<path d="M-47.45666761658524,240.35986499149342 L199.57110825233227,-142.11394284494358" stroke="#0d6d4d" stroke-width="0.1" fill="none" />
<path d="M-49.63394488725986,239.91971889556817 L222.85983886185699,-101.77667818546217" stroke="#0d6d4d" stroke-width="0.1" fill="none" />
<path d="M-51.807142074101556,239.45985055978352 L238.0938342392677,-57.760939199809684" stroke="#0d6d4d" stroke-width="0.1" fill="none" />
<path d="M-53.97608053270245,238.98029778692472 L244.72249809983694,-11.657569376816834" stroke="#0d6d4d" stroke-width="0.1" fill="none" />
<path d="M-56.14058196873651,238.4810999979067 L242.50625326082852,34.86713537695488" stroke="#0d6d4d" stroke-width="0.1" fill="none" />
<path d="M-58.30046845261698,237.96229822853329 L231.52520058509378,80.1316510127683" stroke="#0d6d4d" stroke-width="0.1" fill="none" />
<path d="M-60.45556243412194,237.4239351261241 L212.17622392718746,122.50000000000003" stroke="#0d6d4d" stroke-width="0.1" fill="none" />
<path d="M-62.60568675698993,236.86605494600877 L185.1586457167933,160.44087981659482" stroke="#0d6d4d" stroke-width="0.1" fill="none" />
<path d="M-64.75066467348326,236.28870354788893 L151.44895162404825,192.58300821198293" stroke="#0d6d4d" stroke-width="0.1" fill="none" />
<path d="M-66.89031985891594,235.69192839206843 L112.26549782321558,217.76468492045623" stroke="#0d6d4d" stroke-width="0.1" fill="none" />
<path d="M-69.02447642615031,235.07577853555185 L69.02447642615026,235.07577853555185" stroke="#0d6d4d" stroke-width="0.1" fill="none" />
<path d="M-71.15295894005317,234.4403046280121 L23.2887306095247,243.89062103040573" stroke="#0d6d4d" stroke-width="0.1" fill="none" />
<path d="M-73.27559243191915,233.78555890762644 L-23.288730609524634,243.89062103040575" stroke="#0d6d4d" stroke-width="0.1" fill="none" />
<path d="M-75.39220241385249,233.11159519678273 L-69.02447642615031,235.07577853555185" stroke="#0d6d4d" stroke-width="0.1" fill="none" />
<path d="M-77.50261489311136,232.41846889765466 L-112.26549782321553,217.76468492045626" stroke="#0d6d4d" stroke-width="0.1" fill="none" />
<path d="M-79.60665638640994,231.7062369876479 L-151.4489516240483,192.5830082119829" stroke="#0d6d4d" stroke-width="0.1" fill="none" />
<path d="M-81.70415393418017,230.97495801471595 L-185.15864571679325,160.44087981659487" stroke="#0d6d4d" stroke-width="0.1" fill="none" />
<path d="M-83.79493511478893,230.2246920925475 L-212.17622392718752,122.49999999999991" stroke="#0d6d4d" stroke-width="0.1" fill="none" />
<path d="M-85.8788280587116,229.4555008956252 L-231.52520058509376,80.13165101276836" stroke="#0d6d4d" stroke-width="0.1" fill="none" />
<path d="M-87.95566146266174,228.6674476541548 L-242.50625326082852,34.867135376954884" stroke="#0d6d4d" stroke-width="0.1" fill="none" />
<path d="M-90.02526460367059,227.86059714886883 L-244.72249809983694,-11.657569376816884" stroke="#0d6d4d" stroke-width="0.1" fill="none" />
<path d="M-92.0874673531232,227.03501570570003 L-238.0938342392677,-57.760939199809734" stroke="#0d6d4d" stroke-width="0.1" fill="none" />
<path d="M-94.14210019074208,226.19077119033014 L-222.85983886185704,-101.77667818546207" stroke="#0d6d4d" stroke-width="0.1" fill="none" />
<path d="M-96.18899421852345,225.32793300261034 L-199.5711082523323,-142.1139428449435" stroke="#0d6d4d" stroke-width="0.1" fill="none" />
<path d="M-98.22798117462028,224.4465720708571 L-169.06935781311745,-177.31483933574216" stroke="#0d6d4d" stroke-width="0.1" fill="none" />
<path d="M-100.25889344717494,223.54676084602082 L-132.4570002766214,-206.1071155436394" stroke="#0d6d4d" stroke-width="0.1" fill="none" />
<path d="M-102.28156408809663,222.6285732957308 L-91.05730163678038,-227.45014358893772" stroke="#0d6d4d" stroke-width="0.1" fill="none" />
<path d="M-104.29582682678583,221.6920848982144 L-46.36655486830038,-240.57253082936316" stroke="#0d6d4d" stroke-width="0.1" fill="none" />
<path d="M-106.3015160838018,220.73737263609266 L0.0,-245.0" stroke="#0d6d4d" stroke-width="0.1" fill="none" />
<path d="M-108.29846698447366,219.7645149900522 L46.366554868300504,-240.57253082936313" stroke="#0d6d4d" stroke-width="0.1" fill="none" />
<path d="M-110.28651537245487,218.77359193239312 L91.05730163678025,-227.45014358893778" stroke="#0d6d4d" stroke-width="0.1" fill="none" />
<path d="M-112.26549782321553,217.76468492045626 L132.45700027662141,-206.1071155436394" stroke="#0d6d4d" stroke-width="0.1" fill="none" />
<path d="M-114.23525165747823,216.7378768899258 L169.06935781311745,-177.31483933574216" stroke="#0d6d4d" stroke-width="0.1" fill="none" />
<path d="M-116.19561495458964,215.6932522480125 L199.57110825233227,-142.11394284494358" stroke="#0d6d4d" stroke-width="0.1" fill="none" />
<path d="M-118.14642656583185,214.6308968665148 L222.85983886185699,-101.77667818546217" stroke="#0d6d4d" stroke-width="0.1" fill="none" />
<path d="M-120.08752612766847,213.55089807476 L238.0938342392677,-57.760939199809684" stroke="#0d6d4d" stroke-width="0.1" fill="none" />
<path d="M-122.01875407492795,212.45334465242541 L244.72249809983694,-11.657569376816834" stroke="#0d6d4d" stroke-width="0.1" fill="none" />
<path d="M-123.93995165391962,211.33832682224033 L242.50625326082852,34.86713537695488" stroke="#0d6d4d" stroke-width="0.1" fill="none" />
<path d="M-125.8509609354845,210.2059362425694 L231.52520058509378,80.1316510127683" stroke="#0d6d4d" stroke-width="0.1" fill="none" />
<path d="M-127.7516248279771,209.0562659998781 L212.17622392718746,122.50000000000003" stroke="#0d6d4d" stroke-width="0.1" fill="none" />
<path d="M-129.64178709017878,207.88941060108075 L185.1586457167933,160.44087981659482" stroke="#0d6d4d" stroke-width="0.1" fill="none" />
<path d="M-131.52129234414235,206.7054659657713 L151.44895162404825,192.58300821198293" stroke="#0d6d4d" stroke-width="0.1" fill="none" />
<path d="M-133.38998608796325,205.50452941833902 L112.26549782321558,217.76468492045623" stroke="#0d6d4d" stroke-width="0.1" fill="none" />
<path d="M-135.24771470848142,204.28669967996746 L69.02447642615026,235.07577853555185" stroke="#0d6d4d" stroke-width="0.1" fill="none" />
<path d="M-137.09432549390786,203.0520768605198 L23.2887306095247,243.89062103040573" stroke="#0d6d4d" stroke-width="0.1" fill="none" />
<path d="M-138.9296666463788,201.80076245030904 L-23.288730609524634,243.89062103040575" stroke="#0d6d4d" stroke-width="0.1" fill="none" />
<path d="M-140.75358729443343,200.53285931175546 L-69.02447642615031,235.07577853555185" stroke="#0d6d4d" stroke-width="0.1" fill="none" />
<path d="M-142.56593750541666,199.2484716709306 L-112.26549782321553,217.76468492045626" stroke="#0d6d4d" stroke-width="0.1" fill="none" />
<path d="M-144.36656829780355,197.9477051089899 L-151.4489516240483,192.5830082119829" stroke="#0d6d4d" stroke-width="0.1" fill="none" />
<path d="M-146.1553316534462,196.63066655349348 L-185.15864571679325,160.44087981659487" stroke="#0d6d4d" stroke-width="0.1" fill="none" />
<path d="M-147.932080529742,195.29746426961597 L-212.17622392718752,122.49999999999991" stroke="#0d6d4d" stroke-width="0.1" fill="none" />
<path d="M-149.69666887172005,193.94820785124725 L-231.52520058509376,80.13165101276836" stroke="#0d6d4d" stroke-width="0.1" fill="none" />
<path d="M-151.4489516240483,192.5830082119829 L-242.50625326082852,34.867135376954884" stroke="#0d6d4d" stroke-width="0.1" fill="none" />
<path d="M-153.18878474295684,191.20197757600738 L-244.72249809983694,-11.657569376816884" stroke="#0d6d4d" stroke-width="0.1" fill="none" />
<path d="M-154.91602520807956,189.80522946886808 L-238.0938342392677,-57.760939199809734" stroke="#0d6d4d" stroke-width="0.1" fill="none" />
<path d="M-156.63053103421004,188.39287870814374 L-222.85983886185704,-101.77667818546207" stroke="#0d6d4d" stroke-width="0.1" fill="none" />
<path d="M-158.33216128297425,186.96504139400562 L-199.5711082523323,-142.1139428449435" stroke="#0d6d4d" stroke-width="0.1" fill="none" />
<path d="M-160.02077607441515,185.52183489967396 L-169.06935781311745,-177.31483933574216" stroke="#0d6d4d" stroke-width="0.1" fill="none" />
<path d="M-161.69623659849222,184.0633778617692 L-132.4570002766214,-206.1071155436394" stroke="#0d6d4d" stroke-width="0.1" fill="none" />
<path d="M-163.3584051264915,182.58979017055987 L-91.05730163678038,-227.45014358893772" stroke="#0d6d4d" stroke-width="0.1" fill="none" />
<path d="M-165.0071450223474,181.1011929601073 L-46.36655486830038,-240.57253082936316" stroke="#0d6d4d" stroke-width="0.1" fill="none" />
<path d="M-166.64232075387528,179.59770859830743 L0.0,-245.0" stroke="#0d6d4d" stroke-width="0.1" fill="none" />
<path d="M-168.26379790391186,178.07946067683238 L46.366554868300504,-240.57253082936313" stroke="#0d6d4d" stroke-width="0.1" fill="none" />
<path d="M-169.87144318136555,176.54657400097034 L91.05730163678025,-227.45014358893778" stroke="#0d6d4d" stroke-width="0.1" fill="none" />
<path d="M-171.46512443217262,174.99917457936644 L132.45700027662141,-206.1071155436394" stroke="#0d6d4d" stroke-width="0.1" fill="none" />
<path d="M-173.04471065016148,173.437389613664 L169.06935781311745,-177.31483933574216" stroke="#0d6d4d" stroke-width="0.1" fill="none" />
<path d="M-174.61007198782133,171.8613474880488 L199.57110825233227,-142.11394284494358" stroke="#0d6d4d" stroke-width="0.1" fill="none" />
<path d="M-176.1610797669765,170.2711777586945 L222.85983886185699,-101.77667818546217" stroke="#0d6d4d" stroke-width="0.1" fill="none" />
<path d="M-177.69760648936372,168.6670111431137 L238.0938342392677,-57.760939199809684" stroke="#0d6d4d" stroke-width="0.1" fill="none" />
<path d="M-179.21952584711363,167.04897950941145 L244.72249809983694,-11.657569376816834" stroke="#0d6d4d" stroke-width="0.1" fill="none" />
<path d="M-180.7267127331328,165.41721586544637 L242.50625326082852,34.86713537695488" stroke="#0d6d4d" stroke-width="0.1" fill="none" />
<path d="M-182.21904325138888,163.771854347896 L231.52520058509378,80.1316510127683" stroke="#0d6d4d" stroke-width="0.1" fill="none" />
<path d="M-183.69639472709488,162.11303021123055 L212.17622392718746,122.50000000000003" stroke="#0d6d4d" stroke-width="0.1" fill="none" />
<path d="M-185.15864571679325,160.44087981659487 L185.1586457167933,160.44087981659482" stroke="#0d6d4d" stroke-width="0.1" fill="none" />
<path d="M-186.60567601833947,158.75554062059857 L151.44895162404825,192.58300821198293" stroke="#0d6d4d" stroke-width="0.1" fill="none" />
<path d="M-188.0373666807826,157.05715116401709 L112.26549782321558,217.76468492045623" stroke="#0d6d4d" stroke-width="0.1" fill="none" />
<path d="M-189.45360001414397,155.3458510604025 L69.02447642615026,235.07577853555185" stroke="#0d6d4d" stroke-width="0.1" fill="none" />
<path d="M-190.85425959909085,153.6217809846079 L23.2887306095247,243.89062103040573" stroke="#0d6d4d" stroke-width="0.1" fill="none" />
<path d="M-192.23923029650769,151.88508266122216 L-23.288730609524634,243.89062103040575" stroke="#0d6d4d" stroke-width="0.1" fill="none" />
<path d="M-193.60839825696002,150.13589885292046 L-69.02447642615031,235.07577853555185" stroke="#0d6d4d" stroke-width="0.1" fill="none" />
<path d="M-194.96165093005388,148.37437334872834 L-112.26549782321553,217.76468492045626" stroke="#0d6d4d" stroke-width="0.1" fill="none" />
<path d="M-196.29887707368712,146.60065095220236 L-151.4489516240483,192.5830082119829" stroke="#0d6d4d" stroke-width="0.1" fill="none" />
<path d="M-197.61996676319478,144.81487746952587 L-185.15864571679325,160.44087981659487" stroke="#0d6d4d" stroke-width="0.1" fill="none" />
<path d="M-198.92481140038484,143.01719969752352 L-212.17622392718752,122.49999999999991" stroke="#0d6d4d" stroke-width="0.1" fill="none" />
<path d="M-200.213303722465,141.20776541159475 L-231.52520058509376,80.13165101276836" stroke="#0d6d4d" stroke-width="0.1" fill="none" />
<path d="M-201.48533781086098,139.38672335356492 L-242.50625326082852,34.867135376954884" stroke="#0d6d4d" stroke-width="0.1" fill="none" />
<path d="M-202.7408090999223,137.55422321945937 L-244.72249809983694,-11.657569376816884" stroke="#0d6d4d" stroke-width="0.1" fill="none" />
<path d="M-203.97961438551897,135.71041564719707 L-238.0938342392677,-57.760939199809734" stroke="#0d6d4d" stroke-width="0.1" fill="none" />
<path d="M-205.2016518335245,133.85545220420792 L-222.85983886185704,-101.77667818546207" stroke="#0d6d4d" stroke-width="0.1" fill="none" />
<path d="M-206.40682098818755,131.98948537497333 L-199.5711082523323,-142.1139428449435" stroke="#0d6d4d" stroke-width="0.1" fill="none" />
<path d="M-207.59502278038903,130.11266854849208 L-169.06935781311745,-177.31483933574216" stroke="#0d6d4d" stroke-width="0.1" fill="none" />
<path d="M-208.76615953578678,128.22515600567004 L-132.4570002766214,-206.1071155436394" stroke="#0d6d4d" stroke-width="0.1" fill="none" />
<path d="M-209.92013498284433,126.32710290663849 L-91.05730163678038,-227.45014358893772" stroke="#0d6d4d" stroke-width="0.1" fill="none" />
<path d="M-211.05685426074436,124.41866527799968 L-46.36655486830038,-240.57253082936316" stroke="#0d6d4d" stroke-width="0.1" fill="none" />
<path d="M-212.17622392718752,122.49999999999991 L0.0,-245.0" stroke="#0d6d4d" stroke-width="0.1" fill="none" />
<path d="M-213.27815196607273,120.57126479363473 L46.366554868300504,-240.57253082936313" stroke="#0d6d4d" stroke-width="0.1" fill="none" />
<path d="M-214.36254779506206,118.63261820768238 L91.05730163678025,-227.45014358893778" stroke="#0d6d4d" stroke-width="0.1" fill="none" />
<path d="M-215.42932227302632,116.68421960567146 L132.45700027662141,-206.1071155436394" stroke="#0d6d4d" stroke-width="0.1" fill="none" />
<path d="M-216.4783877073732,114.72622915278012 L169.06935781311745,-177.31483933574216" stroke="#0d6d4d" stroke-width="0.1" fill="none" />
<path d="M-217.50965786125533,112.7588078026708 L199.57110825233227,-142.11394284494358" stroke="#0d6d4d" stroke-width="0.1" fill="none" />
<path d="M-218.52304796065994,110.78211728425809 L222.85983886185699,-101.77667818546217" stroke="#0d6d4d" stroke-width="0.1" fill="none" />
<path d="M-219.51847470137722,108.79632008841482 L238.0938342392677,-57.760939199809684" stroke="#0d6d4d" stroke-width="0.1" fill="none" />
<path d="M-220.49585625584825,106.80157945461433 L244.72249809983694,-11.657569376816834" stroke="#0d6d4d" stroke-width="0.1" fill="none" />
<path d="M-221.45511227989147,104.79805935751226 L242.50625326082852,34.86713537695488" stroke="#0d6d4d" stroke-width="0.1" fill="none" />
<path d="M-222.39616391930704,102.78592449346704 L231.52520058509378,80.1316510127683" stroke="#0d6d4d" stroke-width="0.1" fill="none" />
<path d="M-223.31893381635993,100.76534026699983 L212.17622392718746,122.50000000000003" stroke="#0d6d4d" stroke-width="0.1" fill="none" />
<path d="M-224.22334611613746,98.73647277720038 L185.1586457167933,160.44087981659482" stroke="#0d6d4d" stroke-width="0.1" fill="none" />
<path d="M-225.10932647278617,96.6994888040706 L151.44895162404825,192.58300821198293" stroke="#0d6d4d" stroke-width="0.1" fill="none" />
<path d="M-225.97680205562244,94.65455579481653 L112.26549782321558,217.76468492045623" stroke="#0d6d4d" stroke-width="0.1" fill="none" />
<path d="M-226.82570155512,92.60184185008218 L69.02447642615026,235.07577853555185" stroke="#0d6d4d" stroke-width="0.1" fill="none" />
<path d="M-227.6559551887715,90.54151571013188 L23.2887306095247,243.89062103040573" stroke="#0d6d4d" stroke-width="0.1" fill="none" />
<path d="M-228.46749470682508,88.4737467409788 L-23.288730609524634,243.89062103040575" stroke="#0d6d4d" stroke-width="0.1" fill="none" />
<path d="M-229.2602533978943,86.3987049204633 L-69.02447642615031,235.07577853555185" stroke="#0d6d4d" stroke-width="0.1" fill="none" />
<path d="M-230.03416609444272,84.316560824279 L-112.26549782321553,217.76468492045626" stroke="#0d6d4d" stroke-width="0.1" fill="none" />
<path d="M-230.78916917814044,82.22748561195131 L-151.4489516240483,192.5830082119829" stroke="#0d6d4d" stroke-width="0.1" fill="none" />
<path d="M-231.52520058509376,80.13165101276836 L-185.15864571679325,160.44087981659487" stroke="#0d6d4d" stroke-width="0.1" fill="none" />
<path d="M-232.24219981094728,78.0292293116626 L-212.17622392718752,122.49999999999991" stroke="#0d6d4d" stroke-width="0.1" fill="none" />
<path d="M-232.94010791585734,75.92039333505016 L-231.52520058509376,80.13165101276836" stroke="#0d6d4d" stroke-width="0.1" fill="none" />
<path d="M-233.61886752933725,73.80531643662245 L-242.50625326082852,34.867135376954884" stroke="#0d6d4d" stroke-width="0.1" fill="none" />
<path d="M-234.27842285497326,71.6841724830966 L-244.72249809983694,-11.657569376816884" stroke="#0d6d4d" stroke-width="0.1" fill="none" />
<path d="M-234.9187196750113,69.55713583992278 L-238.0938342392677,-57.760939199809734" stroke="#0d6d4d" stroke-width="0.1" fill="none" />
<path d="M-235.53970535481358,67.42438135695139 L-222.85983886185704,-101.77667818546207" stroke="#0d6d4d" stroke-width="0.1" fill="none" />
<path d="M-236.14132884718578,65.28608435405869 L-199.5711082523323,-142.1139428449435" stroke="#0d6d4d" stroke-width="0.1" fill="none" />
<path d="M-236.72354069657314,63.14242060673544 L-169.06935781311745,-177.31483933574216" stroke="#0d6d4d" stroke-width="0.1" fill="none" />
<path d="M-237.28629304312557,60.99356633163818 L-132.4570002766214,-206.1071155436394" stroke="#0d6d4d" stroke-width="0.1" fill="none" />
<path d="M-237.82953962663242,58.83969817210215 L-91.05730163678038,-227.45014358893772" stroke="#0d6d4d" stroke-width="0.1" fill="none" />
<path d="M-238.3532357903248,56.68099318362227 L-46.36655486830038,-240.57253082936316" stroke="#0d6d4d" stroke-width="0.1" fill="none" />
<path d="M-238.85733848454677,54.51762881929707 L0.0,-245.0" stroke="#0d6d4d" stroke-width="0.1" fill="none" />
<path d="M-239.34180627029411,52.349782915242294 L46.366554868300504,-240.57253082936313" stroke="#0d6d4d" stroke-width="0.1" fill="none" />
<path d="M-239.8065993226208,50.177633675971684 L91.05730163678025,-227.45014358893778" stroke="#0d6d4d" stroke-width="0.1" fill="none" />
<path d="M-240.25167943391247,48.00135965974886 L132.45700027662141,-206.1071155436394" stroke="#0d6d4d" stroke-width="0.1" fill="none" />
<path d="M-240.67701001702764,45.82113976390786 L169.06935781311745,-177.31483933574216" stroke="#0d6d4d" stroke-width="0.1" fill="none" />
<path d="M-241.08255610830508,43.63715321014805 L199.57110825233227,-142.11394284494358" stroke="#0d6d4d" stroke-width="0.1" fill="none" />
<path d="M-241.46828437043797,41.44957952980104 L222.85983886185699,-101.77667818546217" stroke="#0d6d4d" stroke-width="0.1" fill="none" />
<path d="M-241.8341630952143,39.25859854907322 L238.0938342392677,-57.760939199809684" stroke="#0d6d4d" stroke-width="0.1" fill="none" />
<path d="M-242.18016220612338,37.06439037426297 L244.72249809983694,-11.657569376816834" stroke="#0d6d4d" stroke-width="0.1" fill="none" />
<path d="M-242.50625326082852,34.867135376954884 L242.50625326082852,34.86713537695488" stroke="#0d6d4d" stroke-width="0.1" fill="none" />
<path d="M-242.81240945350464,32.667014179193245 L231.52520058509378,80.1316510127683" stroke="#0d6d4d" stroke-width="0.1" fill="none" />
<path d="M-243.09860561704215,30.464207638633813 L212.17622392718746,122.50000000000003" stroke="#0d6d4d" stroke-width="0.1" fill="none" />
<path d="M-243.3648182251156,28.258896833677568 L185.1586457167933,160.44087981659482" stroke="#0d6d4d" stroke-width="0.1" fill="none" />
<path d="M-243.61102539411772,26.051263048584126 L151.44895162404825,192.58300821198293" stroke="#0d6d4d" stroke-width="0.1" fill="none" />
<path d="M-243.83720688495825,23.84148775857041 L112.26549782321558,217.76468492045623" stroke="#0d6d4d" stroke-width="0.1" fill="none" />
<path d="M-244.04334410472777,21.629752614892325 L69.02447642615026,235.07577853555185" stroke="#0d6d4d" stroke-width="0.1" fill="none" />
<path d="M-244.22942010822587,19.41623942991325 L23.2887306095247,243.89062103040573" stroke="#0d6d4d" stroke-width="0.1" fill="none" />
<path d="M-244.39541959935445,17.201130162157124 L-23.288730609524634,243.89062103040575" stroke="#0d6d4d" stroke-width="0.1" fill="none" />
<path d="M-244.5413289323749,14.984606901351468 L-69.02447642615031,235.07577853555185" stroke="#0d6d4d" stroke-width="0.1" fill="none" />
<path d="M-244.6671361130297,12.766851853459631 L-112.26549782321553,217.76468492045626" stroke="#0d6d4d" stroke-width="0.1" fill="none" />
<path d="M-244.77283079952883,10.548047325701301 L-151.4489516240483,192.5830082119829" stroke="#0d6d4d" stroke-width="0.1" fill="none" />
<path d="M-244.85840430339934,8.328375711567949 L-185.15864571679325,160.44087981659487" stroke="#0d6d4d" stroke-width="0.1" fill="none" />
<path d="M-244.92384959019998,6.108019475827923 L-212.17622392718752,122.49999999999991" stroke="#0d6d4d" stroke-width="0.1" fill="none" />
<path d="M-244.9691612800994,3.887161139528082 L-231.52520058509376,80.13165101276836" stroke="#0d6d4d" stroke-width="0.1" fill="none" />
<path d="M-244.99433564831816,1.6659832649894863 L-242.50625326082852,34.867135376954884" stroke="#0d6d4d" stroke-width="0.1" fill="none" />
<path d="M-244.99937062543518,-0.5553315591989875 L-244.72249809983694,-11.657569376816884" stroke="#0d6d4d" stroke-width="0.1" fill="none" />
<path d="M-244.98426579755778,-2.776600733191377 L-238.0938342392677,-57.760939199809734" stroke="#0d6d4d" stroke-width="0.1" fill="none" />
<path d="M-244.9490224063556,-4.997641660894108 L-222.85983886185704,-101.77667818546207" stroke="#0d6d4d" stroke-width="0.1" fill="none" />
<path d="M-244.89364334895862,-7.218271764976468 L-199.5711082523323,-142.1139428449435" stroke="#0d6d4d" stroke-width="0.1" fill="none" />
<path d="M-244.81813317771903,-9.438308501878444 L-169.06935781311745,-177.31483933574216" stroke="#0d6d4d" stroke-width="0.1" fill="none" />
<path d="M-244.72249809983694,-11.657569376816884 L-132.4570002766214,-206.1071155436394" stroke="#0d6d4d" stroke-width="0.1" fill="none" />
<path d="M-244.60674597685022,-13.875871958787636 L-91.05730163678038,-227.45014358893772" stroke="#0d6d4d" stroke-width="0.1" fill="none" />
<path d="M-244.47088632398808,-16.093033895561362 L-46.36655486830038,-240.57253082936316" stroke="#0d6d4d" stroke-width="0.1" fill="none" />
<path d="M-244.31493030938913,-18.30887292867397 L0.0,-245.0" stroke="#0d6d4d" stroke-width="0.1" fill="none" />
<path d="M-244.13889075318312,-20.523206908408017 L46.366554868300504,-240.57253082936313" stroke="#0d6d4d" stroke-width="0.1" fill="none" />
<path d="M-243.9427821264371,-22.735853808767367 L91.05730163678025,-227.45014358893778" stroke="#0d6d4d" stroke-width="0.1" fill="none" />
<path d="M-243.72662054996601,-24.946631742439486 L132.45700027662141,-206.1071155436394" stroke="#0d6d4d" stroke-width="0.1" fill="none" />
<path d="M-243.49042379300727,-27.15535897574766 L169.06935781311745,-177.31483933574216" stroke="#0d6d4d" stroke-width="0.1" fill="none" />
<path d="M-243.2342112717603,-29.361853943589267 L199.57110825233227,-142.11394284494358" stroke="#0d6d4d" stroke-width="0.1" fill="none" />
<path d="M-242.95800404779027,-31.565935264362558 L222.85983886185699,-101.77667818546217" stroke="#0d6d4d" stroke-width="0.1" fill="none" />
<path d="M-242.66182482629685,-33.76742175487519 L238.0938342392677,-57.760939199809684" stroke="#0d6d4d" stroke-width="0.1" fill="none" />
<path d="M-242.34569795424778,-35.96613244523954 L244.72249809983694,-11.657569376816834" stroke="#0d6d4d" stroke-width="0.1" fill="none" />
<path d="M-242.00964941837728,-38.1618865937485 L242.50625326082852,34.86713537695488" stroke="#0d6d4d" stroke-width="0.1" fill="none" />
<path d="M-241.65370684305023,-40.354503701732376 L231.52520058509378,80.1316510127683" stroke="#0d6d4d" stroke-width="0.1" fill="none" />
<path d="M-241.277899487991,-42.543803528397845 L212.17622392718746,122.50000000000003" stroke="#0d6d4d" stroke-width="0.1" fill="none" />
<path d="M-240.88225824587826,-44.72960610564344 L185.1586457167933,160.44087981659482" stroke="#0d6d4d" stroke-width="0.1" fill="none" />
<path d="M-240.46681563980562,-46.91173175285411 L151.44895162404825,192.58300821198293" stroke="#0d6d4d" stroke-width="0.1" fill="none" />
<path d="M-240.0316058206081,-49.09000109167062 L112.26549782321558,217.76468492045623" stroke="#0d6d4d" stroke-width="0.1" fill="none" />
<path d="M-239.57666456405462,-51.26423506073663 L69.02447642615026,235.07577853555185" stroke="#0d6d4d" stroke-width="0.1" fill="none" />
<path d="M-239.10202926790743,-53.43425493041648 L23.2887306095247,243.89062103040573" stroke="#0d6d4d" stroke-width="0.1" fill="none" />
<path d="M-238.60773894884758,-55.599882317488806 L-23.288730609524634,243.89062103040575" stroke="#0d6d4d" stroke-width="0.1" fill="none" />
<path d="M-238.0938342392677,-57.760939199809734 L-69.02447642615031,235.07577853555185" stroke="#0d6d4d" stroke-width="0.1" fill="none" />
<path d="M-237.5603573839321,-59.917247930946175 L-112.26549782321553,217.76468492045626" stroke="#0d6d4d" stroke-width="0.1" fill="none" />
<path d="M-237.00735223650364,-62.06863125478033 L-151.4489516240483,192.5830082119829" stroke="#0d6d4d" stroke-width="0.1" fill="none" />
<path d="M-236.43486425593932,-64.2149123200799 L-185.15864571679325,160.44087981659487" stroke="#0d6d4d" stroke-width="0.1" fill="none" />
<path d="M-235.84294050275295,-66.35591469503625 L-212.17622392718752,122.49999999999991" stroke="#0d6d4d" stroke-width="0.1" fill="none" />
<path d="M-235.23162963514707,-68.491462381767 L-231.52520058509376,80.13165101276836" stroke="#0d6d4d" stroke-width="0.1" fill="none" />
<path d="M-234.6009819050125,-70.62137983078495 L-242.50625326082852,34.867135376954884" stroke="#0d6d4d" stroke-width="0.1" fill="none" />
<path d="M-233.95104915379815,-72.74549195542716 L-244.72249809983694,-11.657569376816884" stroke="#0d6d4d" stroke-width="0.1" fill="none" />
<path d="M-233.28188480824866,-74.86362414625007 L-238.0938342392677,-57.760939199809734" stroke="#0d6d4d" stroke-width="0.1" fill="none" />
<path d="M-232.59354387601334,-76.97560228538039 L-222.85983886185704,-101.77667818546207" stroke="#0d6d4d" stroke-width="0.1" fill="none" />
<path d="M-231.8860829411239,-79.08125276082957 L-199.5711082523323,-142.1139428449435" stroke="#0d6d4d" stroke-width="0.1" fill="none" />
<path d="M-231.159560159343,-81.1804024807656 L-169.06935781311745,-177.31483933574216" stroke="#0d6d4d" stroke-width="0.1" fill="none" />
<path d="M-230.41403525338384,-83.27287888774099 L-132.4570002766214,-206.1071155436394" stroke="#0d6d4d" stroke-width="0.1" fill="none" />
<path d="M-229.6495695080007,-85.35850997287822 L-91.05730163678038,-227.45014358893772" stroke="#0d6d4d" stroke-width="0.1" fill="none" />
<path d="M-228.86622576495117,-87.43712429000855 L-46.36655486830038,-240.57253082936316" stroke="#0d6d4d" stroke-width="0.1" fill="none" />
<path d="M-228.0640684178301,-89.50855096976667 L0.0,-245.0" stroke="#0d6d4d" stroke-width="0.1" fill="none" />
<path d="M-227.24316340677646,-91.572619733636 L46.366554868300504,-240.57253082936313" stroke="#0d6d4d" stroke-width="0.1" fill="none" />
<path d="M-226.40357821305264,-93.62916090794658 L91.05730163678025,-227.45014358893778" stroke="#0d6d4d" stroke-width="0.1" fill="none" />
<path d="M-225.5453818534977,-95.67800543782207 L132.45700027662141,-206.1071155436394" stroke="#0d6d4d" stroke-width="0.1" fill="none" />
<path d="M-224.6686448748532,-97.71898490107796 L169.06935781311745,-177.31483933574216" stroke="#0d6d4d" stroke-width="0.1" fill="none" />
<path d="M-223.77343934796477,-99.75193152206496 L199.57110825233227,-142.11394284494358" stroke="#0d6d4d" stroke-width="0.1" fill="none" />
<path d="M-222.85983886185704,-101.77667818546207 L222.85983886185699,-101.77667818546217" stroke="#0d6d4d" stroke-width="0.1" fill="none" />
<path d="M-221.92791851768462,-103.79305845001353 L238.0938342392677,-57.760939199809684" stroke="#0d6d4d" stroke-width="0.1" fill="none" />
<path d="M-220.97775492255883,-105.80090656221019 L244.72249809983694,-11.657569376816834" stroke="#0d6d4d" stroke-width="0.1" fill="none" />
<path d="M-220.00942618324962,-107.80005746991623 L242.50625326082852,34.86713537695488" stroke="#0d6d4d" stroke-width="0.1" fill="none" />
<path d="M-219.0230118997655,-109.79034683593629 L231.52520058509378,80.1316510127683" stroke="#0d6d4d" stroke-width="0.1" fill="none" />
<path d="M-218.0185931588098,-111.77161105152491 L212.17622392718746,122.50000000000003" stroke="#0d6d4d" stroke-width="0.1" fill="none" />
<path d="M-216.99625252711562,-113.74368724983498 L185.1586457167933,160.44087981659482" stroke="#0d6d4d" stroke-width="0.1" fill="none" />
<path d="M-215.95607404465758,-115.70641331930732 L151.44895162404825,192.58300821198293" stroke="#0d6d4d" stroke-width="0.1" fill="none" />
<path d="M-214.89814321774455,-117.6596279169952 L112.26549782321558,217.76468492045623" stroke="#0d6d4d" stroke-width="0.1" fill="none" />
<path d="M-213.8225470119898,-119.60317048182883 L69.02447642615026,235.07577853555185" stroke="#0d6d4d" stroke-width="0.1" fill="none" />
<path d="M-212.7293738451626,-121.53688124781323 L23.2887306095247,243.89062103040573" stroke="#0d6d4d" stroke-width="0.1" fill="none" />
<path d="M-211.6187135799201,-123.46060125716114 L-23.288730609524634,243.89062103040575" stroke="#0d6d4d" stroke-width="0.1" fill="none" />
<path d="M-210.49065751641987,-125.37417237336099 L-69.02447642615031,235.07577853555185" stroke="#0d6d4d" stroke-width="0.1" fill="none" />
<path d="M-209.34529838481495,-127.27743729417557 L-112.26549782321553,217.76468492045626" stroke="#0d6d4d" stroke-width="0.1" fill="none" />
<path d="M-208.18273033763103,-129.17023956457308 L-151.4489516240483,192.5830082119829" stroke="#0d6d4d" stroke-width="0.1" fill="none" />
<path d="M-207.00304894202716,-131.05242358958768 L-185.15864571679325,160.44087981659487" stroke="#0d6d4d" stroke-width="0.1" fill="none" />
<path d="M-205.80635117193896,-132.9238346471111 L-212.17622392718752,122.49999999999991" stroke="#0d6d4d" stroke-width="0.1" fill="none" />
<path d="M-204.59273540010824,-134.78431890060983 L-231.52520058509376,80.13165101276836" stroke="#0d6d4d" stroke-width="0.1" fill="none" />
<path d="M-203.3623013899948,-136.63372341177316 L-242.50625326082852,34.867135376954884" stroke="#0d6d4d" stroke-width="0.1" fill="none" />
<path d="M-202.11515028757725,-138.4718961530825 L-244.72249809983694,-11.657569376816884" stroke="#0d6d4d" stroke-width="0.1" fill="none" />
<path d="M-200.85138461303708,-140.2986860203111 L-238.0938342392677,-57.760939199809734" stroke="#0d6d4d" stroke-width="0.1" fill="none" />
<path d="M-199.5711082523323,-142.1139428449435 L-222.85983886185704,-101.77667818546207" stroke="#0d6d4d" stroke-width="0.1" fill="none" />
<path d="M-198.27442644865644,-143.91751740652117 L-199.5711082523323,-142.1139428449435" stroke="#0d6d4d" stroke-width="0.1" fill="none" />
<path d="M-196.96144579378807,-145.70926144490844 L-169.06935781311745,-177.31483933574216" stroke="#0d6d4d" stroke-width="0.1" fill="none" />
<path d="M-195.63227421932854,-147.48902767247958 L-132.4570002766214,-206.1071155436394" stroke="#0d6d4d" stroke-width="0.1" fill="none" />
<path d="M-194.28702098782892,-149.2566697862274 L-91.05730163678038,-227.45014358893772" stroke="#0d6d4d" stroke-width="0.1" fill="none" />
<path d="M-192.9257966838094,-151.01204247978842 L-46.36655486830038,-240.57253082936316" stroke="#0d6d4d" stroke-width="0.1" fill="none" />
<path d="M-191.54871320466734,-152.75500145538967 L0.0,-245.0" stroke="#0d6d4d" stroke-width="0.1" fill="none" />
<path d="M-190.1558837514805,-154.4854034357079 L46.366554868300504,-240.57253082936313" stroke="#0d6d4d" stroke-width="0.1" fill="none" />
<path d="M-188.7474228197002,-156.20310617564974 L91.05730163678025,-227.45014358893778" stroke="#0d6d4d" stroke-width="0.1" fill="none" />
<path d="M-187.3234461897406,-157.907968474043 L132.45700027662141,-206.1071155436394" stroke="#0d6d4d" stroke-width="0.1" fill="none" />
<path d="M-185.88407091745987,-159.59985018524534 L169.06935781311745,-177.31483933574216" stroke="#0d6d4d" stroke-width="0.1" fill="none" />
<path d="M-184.42941532453864,-161.27861223066387 L199.57110825233227,-142.11394284494358" stroke="#0d6d4d" stroke-width="0.1" fill="none" />
<path d="M-182.95959898875356,-162.94411661018782 L222.85983886185699,-101.77667818546217" stroke="#0d6d4d" stroke-width="0.1" fill="none" />
<path d="M-181.474742734147,-164.59622641353346 L238.0938342392677,-57.760939199809684" stroke="#0d6d4d" stroke-width="0.1" fill="none" />
<path d="M-179.97496862109577,-166.23480583149725 L244.72249809983694,-11.657569376816834" stroke="#0d6d4d" stroke-width="0.1" fill="none" />
<path d="M-178.46039993627593,-167.8597201671218 L242.50625326082852,34.86713537695488" stroke="#0d6d4d" stroke-width="0.1" fill="none" />
<path d="M-176.9311611825301,-169.47083584676614 L231.52520058509378,80.1316510127683" stroke="#0d6d4d" stroke-width="0.1" fill="none" />
<path d="M-175.38737806863102,-171.0680204310879 L212.17622392718746,122.50000000000003" stroke="#0d6d4d" stroke-width="0.1" fill="none" />
<path d="M-173.8291774989493,-172.6511426259287 L185.1586457167933,160.44087981659482" stroke="#0d6d4d" stroke-width="0.1" fill="none" />
<path d="M-172.2566875630205,-174.22007229310847 L151.44895162404825,192.58300821198293" stroke="#0d6d4d" stroke-width="0.1" fill="none" />
<path d="M-170.67003752501614,-175.77468046112213 L112.26549782321558,217.76468492045623" stroke="#0d6d4d" stroke-width="0.1" fill="none" />
<path d="M-169.06935781311745,-177.31483933574216 L69.02447642615026,235.07577853555185" stroke="#0d6d4d" stroke-width="0.1" fill="none" />
<path d="M-167.45478000879442,-178.8404223105231 L23.2887306095247,243.89062103040573" stroke="#0d6d4d" stroke-width="0.1" fill="none" />
<path d="M-165.8264368359884,-180.35130397720985 L-23.288730609524634,243.89062103040575" stroke="#0d6d4d" stroke-width="0.1" fill="none" />
<path d="M-164.1844621502021,-181.84736013604615 L-69.02447642615031,235.07577853555185" stroke="#0d6d4d" stroke-width="0.1" fill="none" />
<path d="M-162.52899092749678,-183.32846780598388 L-112.26549782321553,217.76468492045626" stroke="#0d6d4d" stroke-width="0.1" fill="none" />
<path d="M-160.86015925339552,-184.7945052347938 L-151.4489516240483,192.5830082119829" stroke="#0d6d4d" stroke-width="0.1" fill="none" />
<path d="M-159.178104311698,-186.2453519090723 L-185.15864571679325,160.44087981659487" stroke="#0d6d4d" stroke-width="0.1" fill="none" />
<path d="M-157.4829643732022,-187.6808885641496 L-212.17622392718752,122.49999999999991" stroke="#0d6d4d" stroke-width="0.1" fill="none" />
<path d="M-155.77487878433865,-189.10099719389265 L-231.52520058509376,80.13165101276836" stroke="#0d6d4d" stroke-width="0.1" fill="none" />
<path d="M-154.0539879557156,-190.5055610604064 L-242.50625326082852,34.867135376954884" stroke="#0d6d4d" stroke-width="0.1" fill="none" />
<path d="M-152.3204333505772,-191.89446470362915 L-244.72249809983694,-11.657569376816884" stroke="#0d6d4d" stroke-width="0.1" fill="none" />
<path d="M-150.57435747317376,-193.26759395082476 L-238.0938342392677,-57.760939199809734" stroke="#0d6d4d" stroke-width="0.1" fill="none" />
<path d="M-148.8159038570481,-194.6248359259676 L-222.85983886185704,-101.77667818546207" stroke="#0d6d4d" stroke-width="0.1" fill="none" />
<path d="M-147.0452170532369,-195.96607905902093 L-199.5711082523323,-142.1139428449435" stroke="#0d6d4d" stroke-width="0.1" fill="none" />
<path d="M-145.26244261838684,-197.2912130951094 L-169.06935781311745,-177.31483933574216" stroke="#0d6d4d" stroke-width="0.1" fill="none" />
<path d="M-143.46772710279097,-198.60012910358114 L-132.4570002766214,-206.1071155436394" stroke="#0d6d4d" stroke-width="0.1" fill="none" />
<path d="M-141.66121803834042,-199.89271948696327 L-91.05730163678038,-227.45014358893772" stroke="#0d6d4d" stroke-width="0.1" fill="none" />
<path d="M-139.84306392639732,-201.16887798980625 L-46.36655486830038,-240.57253082936316" stroke="#0d6d4d" stroke-width="0.1" fill="none" />
<path d="M-138.01341422558738,-202.42849970741875 L0.0,-245.0" stroke="#0d6d4d" stroke-width="0.1" fill="none" />
<path d="M-136.1724193395144,-203.67148109449062 L46.366554868300504,-240.57253082936313" stroke="#0d6d4d" stroke-width="0.1" fill="none" />
<path d="M-134.32023060439548,-204.8977199736054 L91.05730163678025,-227.45014358893778" stroke="#0d6d4d" stroke-width="0.1" fill="none" />
<path d="M-132.4570002766214,-206.1071155436394 L132.45700027662141,-206.1071155436394" stroke="#0d6d4d" stroke-width="0.1" fill="none" />
<path d="M-130.58288152024085,-207.2995683880474 L169.06935781311745,-177.31483933574216" stroke="#0d6d4d" stroke-width="0.1" fill="none" />
<path d="M-128.69802839436883,-208.474980483036 L199.57110825233227,-142.11394284494358" stroke="#0d6d4d" stroke-width="0.1" fill="none" />
<path d="M-126.80259584052388,-209.63325520562037 L222.85983886185699,-101.77667818546217" stroke="#0d6d4d" stroke-width="0.1" fill="none" />
<path d="M-124.89673966988927,-210.77429734156846 L238.0938342392677,-57.760939199809684" stroke="#0d6d4d" stroke-width="0.1" fill="none" />
<path d="M-122.98061655050728,-211.89801309322627 L244.72249809983694,-11.657569376816834" stroke="#0d6d4d" stroke-width="0.1" fill="none" />
<path d="M-121.0543839943984,-213.00431008722978 L242.50625326082852,34.86713537695488" stroke="#0d6d4d" stroke-width="0.1" fill="none" />
<path d="M-119.11820034461485,-214.09309738209728 L231.52520058509378,80.1316510127683" stroke="#0d6d4d" stroke-width="0.1" fill="none" />
<path d="M-117.17222476222305,-215.16428547570595 L212.17622392718746,122.50000000000003" stroke="#0d6d4d" stroke-width="0.1" fill="none" />
<path d="M-115.21661721322066,-216.21778631264863 L185.1586457167933,160.44087981659482" stroke="#0d6d4d" stroke-width="0.1" fill="none" />
<path d="M-113.25153845538654,-217.2535132914727 L151.44895162404825,192.58300821198293" stroke="#0d6d4d" stroke-width="0.1" fill="none" />
<path d="M-111.27715002506632,-218.27138127179862 L112.26549782321558,217.76468492045623" stroke="#0d6d4d" stroke-width="0.1" fill="none" />
<path d="M-109.2936142238936,-219.27130658131884 L69.02447642615026,235.07577853555185" stroke="#0d6d4d" stroke-width="0.1" fill="none" />
<path d="M-107.30109410544657,-220.25320702267675 L23.2887306095247,243.89062103040573" stroke="#0d6d4d" stroke-width="0.1" fill="none" />
<path d="M-105.29975346184712,-221.21700188022217 L-23.288730609524634,243.89062103040575" stroke="#0d6d4d" stroke-width="0.1" fill="none" />
<path d="M-103.28975681029418,-222.16261192664774 L-69.02447642615031,235.07577853555185" stroke="#0d6d4d" stroke-width="0.1" fill="none" />
<path d="M-101.2712693795416,-223.08995942950082 L-112.26549782321553,217.76468492045626" stroke="#0d6d4d" stroke-width="0.1" fill="none" />
<path d="M-99.24445709631432,-223.99896815757393 L-151.4489516240483,192.5830082119829" stroke="#0d6d4d" stroke-width="0.1" fill="none" />
<path d="M-97.20948657166954,-224.88956338717097 L-185.15864571679325,160.44087981659487" stroke="#0d6d4d" stroke-width="0.1" fill="none" />
<path d="M-95.16652508730022,-225.76167190824987 L-212.17622392718752,122.49999999999991" stroke="#0d6d4d" stroke-width="0.1" fill="none" />
<path d="M-93.11574058178466,-226.61522203044038 L-231.52520058509376,80.13165101276836" stroke="#0d6d4d" stroke-width="0.1" fill="none" />
<path d="M-91.05730163678038,-227.45014358893772 L-242.50625326082852,34.867135376954884" stroke="#0d6d4d" stroke-width="0.1" fill="none" />
<path d="M-88.99137746316671,-228.26636795027028 L-244.72249809983694,-11.657569376816884" stroke="#0d6d4d" stroke-width="0.1" fill="none" />
<path d="M-86.91813788713458,-229.06382801794143 L-238.0938342392677,-57.760939199809734" stroke="#0d6d4d" stroke-width="0.1" fill="none" />
<path d="M-84.83775333622778,-229.84245823794473 L-222.85983886185704,-101.77667818546207" stroke="#0d6d4d" stroke-width="0.1" fill="none" />
<path d="M-82.75039482533082,-230.60219460415345 L-199.5711082523323,-142.1139428449435" stroke="#0d6d4d" stroke-width="0.1" fill="none" />
<path d="M-80.65623394261269,-231.34297466358154 L-169.06935781311745,-177.31483933574216" stroke="#0d6d4d" stroke-width="0.1" fill="none" />
<path d="M-78.55544283542011,-232.064737521518 L-132.4570002766214,-206.1071155436394" stroke="#0d6d4d" stroke-width="0.1" fill="none" />
<path d="M-76.44819419612934,-232.76742384653164 L-91.05730163678038,-227.45014358893772" stroke="#0d6d4d" stroke-width="0.1" fill="none" />
<path d="M-74.33466124794681,-233.45097587534946 L-46.36655486830038,-240.57253082936316" stroke="#0d6d4d" stroke-width="0.1" fill="none" />
<path d="M-72.21501773067165,-234.11533741760445 L0.0,-245.0" stroke="#0d6d4d" stroke-width="0.1" fill="none" />
<path d="M-70.08943788641285,-234.7604538604547 L46.366554868300504,-240.57253082936313" stroke="#0d6d4d" stroke-width="0.1" fill="none" />
<path d="M-67.95809644526689,-235.38627217307257 L91.05730163678025,-227.45014358893778" stroke="#0d6d4d" stroke-width="0.1" fill="none" />
<path d="M-65.82116861095304,-235.99274091100446 L132.45700027662141,-206.1071155436394" stroke="#0d6d4d" stroke-width="0.1" fill="none" />
<path d="M-63.67883004641159,-236.57981022039945 L169.06935781311745,-177.31483933574216" stroke="#0d6d4d" stroke-width="0.1" fill="none" />
<path d="M-61.53125685936444,-237.14743184210727 L199.57110825233227,-142.11394284494358" stroke="#0d6d4d" stroke-width="0.1" fill="none" />
<path d="M-59.378625587837135,-237.69555911564578 L222.85983886185699,-101.77667818546217" stroke="#0d6d4d" stroke-width="0.1" fill="none" />
<path d="M-57.22111318564763,-238.22414698303632 L238.0938342392677,-57.760939199809684" stroke="#0d6d4d" stroke-width="0.1" fill="none" />
<path d="M-55.058897007859706,-238.73315199250794 L244.72249809983694,-11.657569376816834" stroke="#0d6d4d" stroke-width="0.1" fill="none" />
<path d="M-52.892154796204565,-239.22253230206877 L242.50625326082852,34.86713537695488" stroke="#0d6d4d" stroke-width="0.1" fill="none" />
<path d="M-50.72106466446861,-239.69224768294612 L231.52520058509378,80.1316510127683" stroke="#0d6d4d" stroke-width="0.1" fill="none" />
<path d="M-48.545805083852656,-240.14225952289317 L212.17622392718746,122.50000000000003" stroke="#0d6d4d" stroke-width="0.1" fill="none" />
<path d="M-46.36655486830038,-240.57253082936316 L185.1586457167933,160.44087981659482" stroke="#0d6d4d" stroke-width="0.1" fill="none" />
<path d="M-44.183493159800925,-240.9830262325499 L151.44895162404825,192.58300821198293" stroke="#0d6d4d" stroke-width="0.1" fill="none" />
<path d="M-41.99679941366035,-241.37371198829584 L112.26549782321558,217.76468492045623" stroke="#0d6d4d" stroke-width="0.1" fill="none" />
<path d="M-39.8066533837503,-241.7445559808658 L69.02447642615026,235.07577853555185" stroke="#0d6d4d" stroke-width="0.1" fill="none" />
<path d="M-37.61323510773417,-242.0955277255867 L23.2887306095247,243.89062103040573" stroke="#0d6d4d" stroke-width="0.1" fill="none" />
<path d="M-35.416724892263865,-242.42659837135383 L-23.288730609524634,243.89062103040575" stroke="#0d6d4d" stroke-width="0.1" fill="none" />
<path d="M-33.21730329816002,-242.73774070300243 L-69.02447642615031,235.07577853555185" stroke="#0d6d4d" stroke-width="0.1" fill="none" />
<path d="M-31.015151125568515,-243.02892914354487 L-112.26549782321553,217.76468492045626" stroke="#0d6d4d" stroke-width="0.1" fill="none" />
<path d="M-28.810449399098996,-243.30013975627298 L-151.4489516240483,192.5830082119829" stroke="#0d6d4d" stroke-width="0.1" fill="none" />
<path d="M-26.6033793529427,-243.55135024672606 L-185.15864571679325,160.44087981659487" stroke="#0d6d4d" stroke-width="0.1" fill="none" />
<path d="M-24.39412241597524,-243.78253996452332 L-212.17622392718752,122.49999999999991" stroke="#0d6d4d" stroke-width="0.1" fill="none" />
<path d="M-22.182860196842082,-243.99368990506161 L-231.52520058509376,80.13165101276836" stroke="#0d6d4d" stroke-width="0.1" fill="none" />
<path d="M-19.969774469030558,-244.18478271107733 L-242.50625326082852,34.867135376954884" stroke="#0d6d4d" stroke-width="0.1" fill="none" />
<path d="M-17.755047155926125,-244.3558026740737 L-244.72249809983694,-11.657569376816884" stroke="#0d6d4d" stroke-width="0.1" fill="none" />
<path d="M-15.538860315858308,-244.5067357356117 L-238.0938342392677,-57.760939199809734" stroke="#0d6d4d" stroke-width="0.1" fill="none" />
<path d="M-13.32139612713549,-244.63756948846583 L-222.85983886185704,-101.77667818546207" stroke="#0d6d4d" stroke-width="0.1" fill="none" />
<path d="M-11.102836873067936,-244.74829317764411 L-199.5711082523323,-142.1139428449435" stroke="#0d6d4d" stroke-width="0.1" fill="none" />
<path d="M-8.883364926984322,-244.83889770127217 L-169.06935781311745,-177.31483933574216" stroke="#0d6d4d" stroke-width="0.1" fill="none" />
<path d="M-6.663162737239377,-244.90937561134132 L-132.4570002766214,-206.1071155436394" stroke="#0d6d4d" stroke-width="0.1" fill="none" />
<path d="M-4.442412812217919,-244.95972111432084 L-91.05730163678038,-227.45014358893772" stroke="#0d6d4d" stroke-width="0.1" fill="none" />
<path d="M-2.221297705328573,-244.98993007163438 L-46.36655486830038,-240.57253082936316" stroke="#0d6d4d" stroke-width="0.1" fill="none" />
</svg>