<?xml version="1.0" encoding="UTF-8"?>
<svg xmlns="http://www.w3.org/2000/svg" xmlns:xlink="http://www.w3.org/1999/xlink"
     width="500.0" height="500" viewBox="-250.0 -250.0 500 500">
<defs>
</defs>
<circle cx="0" cy="0" r="245.0" fill="white" stroke-width="2" stroke="black" />
<path d="M0.0,-245.0 L0.0,-245.0" stroke="#0d6d4d" stroke-width="0.1" fill="none" />
<path d="M2.490863883743834,-244.9873376260754 L51.912530138670206,-239.4370255716556" stroke="#0d6d4d" stroke-width="0.1" fill="none" />
<path d="M4.981470296059984,-244.94935181316458 L101.46760658205812,-223.00072828246252" stroke="#0d6d4d" stroke-width="0.1" fill="none" />
<path d="M7.47156179213464,-244.88604648772113 L146.41483240731299,-196.4375138590856" stroke="#0d6d4d" stroke-width="0.1" fill="none" />
<path d="M9.96088098037899,-244.79742819338344 L184.71306257042733,-160.95367195517287" stroke="#0d6d4d" stroke-width="0.1" fill="none" />
<path d="M12.44917054903483,-244.68350609029832 L214.62309645876235,-118.16059608199677" stroke="#0d6d4d" stroke-width="0.1" fill="none" />
<path d="M14.936173292771956,-244.54429195417399 L234.78665853214076,-70.001606948069" stroke="#0d6d4d" stroke-width="0.1" fill="none" />
<path d="M17.421632139274504,-244.37980017506314 L244.2880803807785,-18.663702308874907" stroke="#0d6d4d" stroke-width="0.1" fill="none" />
<path d="M19.905290175813587,-244.1900477558753 L242.69588309221126,33.52175905425798" stroke="#0d6d4d" stroke-width="0.1" fill="none" />
<path d="M22.386890675803418,-243.97505431061927 L230.08237158726496,84.18492908341568" stroke="#0d6d4d" stroke-width="0.1" fill="none" />
<path d="M24.866177125338172,-243.73484206237586 L207.02035110637755,131.02509006977314" stroke="#0d6d4d" stroke-width="0.1" fill="none" />
<path d="M27.342893249706922,-243.46943584100063 L174.5571149573133,171.91513492935783" stroke="#0d6d4d" stroke-width="0.1" fill="none" />
<path d="M29.816783039883763,-243.17886308055742 L134.16688479361147,204.9981634668413" stroke="#0d6d4d" stroke-width="0.1" fill="none" />
<path d="M32.28759077899058,-242.8631538164825 L87.68386320756274,228.7718079943362" stroke="#0d6d4d" stroke-width="0.1" fill="none" />
<path d="M34.75506106872948,-242.52234068247998 L37.21893885578249,242.15645890714856" stroke="#0d6d4d" stroke-width="0.1" fill="none" />
<path d="M37.21893885578247,-242.15645890714856 L-14.936173292771988,244.54429195417399" stroke="#0d6d4d" stroke-width="0.1" fill="none" />
<path d="M39.67896945817531,-241.76554631034008 L-66.41300339981606,235.82687077476143" stroke="#0d6d4d" stroke-width="0.1" fill="none" />
<path d="M42.13489859160307,-241.34964329925023 L-114.87388379565422,216.40007121464294" stroke="#0d6d4d" stroke-width="0.1" fill="none" />
<path d="M44.58647239571457,-240.90879286424183 L-158.11810722790202,187.1461037977165" stroke="#0d6d4d" stroke-width="0.1" fill="none" />
<path d="M47.03343746035298,-240.44304057440104 L-194.18186545878615,149.39345074984337" stroke="#0d6d4d" stroke-width="0.1" fill="none" />
<path d="M49.4755408517499,-239.952434572827 L-221.42742979583005,104.85653691598229" stroke="#0d6d4d" stroke-width="0.1" fill="none" />
<path d="M51.912530138670206,-239.4370255716556 L-238.6175236864394,55.557874237155026" stroke="#0d6d4d" stroke-width="0.1" fill="none" />
<path d="M54.34415341850489,-238.8968668468174 L-244.97150996543627,3.7362153650667893" stroke="#0d6d4d" stroke-width="0.1" fill="none" />
<path d="M56.77015934330936,-238.3320142325308 L-240.20084117822387,-48.25511265424289" stroke="#0d6d4d" stroke-width="0.1" fill="none" />
<path d="M59.190297145784335,-237.7425261155306 L-224.52216310822556,-98.05507775328806" stroke="#0d6d4d" stroke-width="0.1" fill="none" />
<path d="M61.60431666519671,-237.12846342903285 L-198.64747645073635,-143.4021621167343" stroke="#0d6d4d" stroke-width="0.1" fill="none" />
<path d="M64.0119683732378,-236.48988964643627 L-163.75180341160964,-182.23706231018306" stroke="#0d6d4d" stroke-width="0.1" fill="none" />
<path d="M66.41300339981608,-235.82687077476143 L-121.41982755636829,-212.7962064421774" stroke="#0d6d4d" stroke-width="0.1" fill="none" />
<path d="M68.8071735587821,-235.13947534782764 L-73.57393010284055,-233.69184155468997" stroke="#0d6d4d" stroke-width="0.1" fill="none" />
<path d="M71.19423137358244,-234.42777441916905 L-22.386890675803407,-243.97505431061927" stroke="#0d6d4d" stroke-width="0.1" fill="none" />
<path d="M73.5739301028405,-233.69184155469 L29.816783039883763,-243.17886308055742" stroke="#0d6d4d" stroke-width="0.1" fill="none" />
<path d="M75.94602376586131,-232.93175282506084 L80.66641592629449,-231.33942452942617" stroke="#0d6d4d" stroke-width="0.1" fill="none" />
<path d="M78.31026716805758,-232.14758679785461 L127.85282261658953,-208.99439166870218" stroke="#0d6d4d" stroke-width="0.1" fill="none" />
<path d="M80.66641592629449,-231.33942452942617 L169.2331723043724,-177.15849793842403" stroke="#0d6d4d" stroke-width="0.1" fill="none" />
<path d="M83.01422649415088,-230.50734955653328 L202.92829905373222,-137.27747609553074" stroke="#0d6d4d" stroke-width="0.1" fill="none" />
<path d="M85.35345618709353,-229.65144788770198 L227.40803855065664,-91.16240454564071" stroke="#0d6d4d" stroke-width="0.1" fill="none" />
<path d="M87.68386320756275,-228.7718079943362 L241.56071598017485,-40.90746258502591" stroke="#0d6d4d" stroke-width="0.1" fill="none" />
<path d="M90.00520666996596,-227.86852080157257 L244.74362944324182,11.20517054529464" stroke="#0d6d4d" stroke-width="0.1" fill="none" />
<path d="M92.3172466255772,-226.94167967888217 L236.81223635861122,62.80895406574815" stroke="#0d6d4d" stroke-width="0.1" fill="none" />
<path d="M94.61974408733975,-225.99138043041893 L218.12671743576018,111.56045509363987" stroke="#0d6d4d" stroke-width="0.1" fill="none" />
<path d="M96.91246105456936,-225.01772128511695 L189.53562013549003,155.24576870193673" stroke="#0d6d4d" stroke-width="0.1" fill="none" />
<path d="M99.19516053755552,-224.0208028865368 L152.33732440196172,191.88105584984538" stroke="#0d6d4d" stroke-width="0.1" fill="none" />
<path d="M101.46760658205812,-223.00072828246252 L108.22108058573524,219.80263355304868" stroke="#0d6d4d" stroke-width="0.1" fill="none" />
<path d="M103.72956429369722,-221.95760291424966 L59.19029714578429,237.74252611553064" stroke="#0d6d4d" stroke-width="0.1" fill="none" />
<path d="M105.9807998622333,-220.89153460592658 L7.471561792134647,244.88604648772113" stroke="#0d6d4d" stroke-width="0.1" fill="none" />
<path d="M108.22108058573524,-219.80263355304868 L-44.586472395714615,240.90879286424183" stroke="#0d6d4d" stroke-width="0.1" fill="none" />
<path d="M110.45017489463386,-218.6910123113083 L-94.61974408733964,225.99138043041899" stroke="#0d6d4d" stroke-width="0.1" fill="none" />
<path d="M112.66785237565863,-217.55678578489983 L-140.35614053999058,200.81123925895784" stroke="#0d6d4d" stroke-width="0.1" fill="none" />
<path d="M114.87388379565428,-216.4000712146429 L-179.71867886459978,166.51185083099296" stroke="#0d6d4d" stroke-width="0.1" fill="none" />
<path d="M117.06804112527614,-215.22098816586325 L-210.91982604782464,124.65082021372899" stroke="#0d6d4d" stroke-width="0.1" fill="none" />
<path d="M119.25009756256047,-214.019658516034 L-232.54267446586653,77.12914204282342" stroke="#0d6d4d" stroke-width="0.1" fill="none" />
<path d="M121.41982755636819,-212.79620644217746 L-243.60528654470494,26.104872485269734" stroke="#0d6d4d" stroke-width="0.1" fill="none" />
<path d="M123.5770068296994,-211.55075840802942 L-243.60528654470494,-26.104872485269645" stroke="#0d6d4d" stroke-width="0.1" fill="none" />
<path d="M125.7214124028758,-210.28344315096714 L-232.54267446586655,-77.12914204282333" stroke="#0d6d4d" stroke-width="0.1" fill="none" />
<path d="M127.85282261658953,-208.99439166870218 L-210.9198260478247,-124.6508202137289" stroke="#0d6d4d" stroke-width="0.1" fill="none" />
<path d="M129.97101715481526,-207.68373720573965 L-179.71867886459992,-166.51185083099284" stroke="#0d6d4d" stroke-width="0.1" fill="none" />
<path d="M132.0757770675832,-206.3516152396052 L-140.35614053999058,-200.81123925895784" stroke="#0d6d4d" stroke-width="0.1" fill="none" />
<path d="M134.16688479361144,-204.9981634668413 L-94.61974408733973,-225.99138043041896" stroke="#0d6d4d" stroke-width="0.1" fill="none" />
<path d="M136.24412418279437,-203.62352178877396 L-44.5864723957147,-240.9087928642418" stroke="#0d6d4d" stroke-width="0.1" fill="none" />
<path d="M138.30728051854518,-202.22783229705166 L7.47156179213464,-244.88604648772113" stroke="#0d6d4d" stroke-width="0.1" fill="none" />
<path d="M140.35614053999055,-200.81123925895787 L59.190297145784335,-237.7425261155306" stroke="#0d6d4d" stroke-width="0.1" fill="none" />
<path d="M142.39049246401441,-199.3738891024987 L108.22108058573524,-219.80263355304868" stroke="#0d6d4d" stroke-width="0.1" fill="none" />
<path d="M144.41012600714942,-197.9159304012672 L152.3373244019617,-191.8810558498454" stroke="#0d6d4d" stroke-width="0.1" fill="none" />
<path d="M146.41483240731299,-196.4375138590856 L189.53562013548998,-155.24576870193675" stroke="#0d6d4d" stroke-width="0.1" fill="none" />
<path d="M148.40440444538638,-194.9387922944281 L218.12671743576016,-111.56045509363994" stroke="#0d6d4d" stroke-width="0.1" fill="none" />
<path d="M150.37863646663405,-193.41992062462418 L236.81223635861122,-62.80895406574818" stroke="#0d6d4d" stroke-width="0.1" fill="none" />
<path d="M152.3373244019617,-191.8810558498454 L244.74362944324182,-11.205170545294672" stroke="#0d6d4d" stroke-width="0.1" fill="none" />
<path d="M154.2802657890097,-190.32235703687712 L241.56071598017485,40.90746258502588" stroke="#0d6d4d" stroke-width="0.1" fill="none" />
<path d="M156.2072597930813,-188.7439853026761 L227.40803855065667,91.16240454564068" stroke="#0d6d4d" stroke-width="0.1" fill="none" />
<path d="M158.11810722790204,-187.14610379771648 L202.92829905373227,137.27747609553072" stroke="#0d6d4d" stroke-width="0.1" fill="none" />
<path d="M160.0126105762087,-185.52887768912575 L169.2331723043724,177.15849793842403" stroke="#0d6d4d" stroke-width="0.1" fill="none" />
<path d="M161.8905740101663,-183.89247414361162 L127.85282261658956,208.99439166870215" stroke="#0d6d4d" stroke-width="0.1" fill="none" />
<path d="M163.7518034116097,-182.237062310183 L80.66641592629448,231.33942452942617" stroke="#0d6d4d" stroke-width="0.1" fill="none" />
<path d="M165.5961063921092,-180.56281330266552 L29.816783039883813,243.17886308055742" stroke="#0d6d4d" stroke-width="0.1" fill="none" />
<path d="M167.42329231285694,-178.86990018201402 L-22.386890675803425,243.97505431061927" stroke="#0d6d4d" stroke-width="0.1" fill="none" />
<path d="M169.2331723043724,-177.15849793842403 L-73.57393010284036,233.69184155469006" stroke="#0d6d4d" stroke-width="0.1" fill="none" />
<path d="M171.02555928602533,-175.4287834732437 L-121.41982755636822,212.79620644217744" stroke="#0d6d4d" stroke-width="0.1" fill="none" />
<path d="M172.8002679853734,-173.68093558068813 L-163.75180341160967,182.23706231018306" stroke="#0d6d4d" stroke-width="0.1" fill="none" />
<path d="M174.5571149573133,-171.91513492935783 L-198.6474764507363,143.4021621167344" stroke="#0d6d4d" stroke-width="0.1" fill="none" />
<path d="M176.29591860304268,-170.1315640435641 L-224.52216310822553,98.05507775328813" stroke="#0d6d4d" stroke-width="0.1" fill="none" />
<path d="M178.01649918883138,-168.33040728446184 L-240.20084117822387,48.25511265424299" stroke="#0d6d4d" stroke-width="0.1" fill="none" />
<path d="M179.71867886459984,-166.5118508309929 L-244.97150996543627,-3.736215365066699" stroke="#0d6d4d" stroke-width="0.1" fill="none" />
<path d="M181.40228168230288,-164.67608266064153 L-238.61752368643943,-55.557874237154934" stroke="#0d6d4d" stroke-width="0.1" fill="none" />
<path d="M183.0671336141166,-162.82329253000373 L-221.4274297958301,-104.85653691598222" stroke="#0d6d4d" stroke-width="0.1" fill="none" />
<path d="M184.71306257042733,-160.95367195517287 L-194.1818654587862,-149.39345074984328" stroke="#0d6d4d" stroke-width="0.1" fill="none" />
<path d="M186.33989841761945,-159.06741419194339 L-158.11810722790216,-187.1461037977164" stroke="#0d6d4d" stroke-width="0.1" fill="none" />
<path d="M187.94747299566188,-157.16471421583455 L-114.8738837956542,-216.40007121464294" stroke="#0d6d4d" stroke-width="0.1" fill="none" />
<path d="M189.53562013548998,-155.24576870193675 L-66.41300339981615,-235.8268707747614" stroke="#0d6d4d" stroke-width="0.1" fill="none" />
<path d="M191.1041756761819,-153.31077600458167 L-14.936173292771969,-244.54429195417399" stroke="#0d6d4d" stroke-width="0.1" fill="none" />
<path d="M192.6529774819272,-151.35993613683928 L37.21893885578247,-242.15645890714856" stroke="#0d6d4d" stroke-width="0.1" fill="none" />
<path d="M194.1818654587862,-149.39345074984328 L87.68386320756275,-228.7718079943362" stroke="#0d6d4d" stroke-width="0.1" fill="none" />
<path d="M195.69068157123857,-147.41152311194708 L134.16688479361144,-204.9981634668413" stroke="#0d6d4d" stroke-width="0.1" fill="none" />
<path d="M197.17926985851858,-145.4143580877126 L174.5571149573133,-171.91513492935783" stroke="#0d6d4d" stroke-width="0.1" fill="none" />
<path d="M198.64747645073632,-143.40216211673433 L207.02035110637752,-131.0250900697732" stroke="#0d6d4d" stroke-width="0.1" fill="none" />
<path d="M200.0951495847827,-141.37514319230038 L230.08237158726496,-84.18492908341571" stroke="#0d6d4d" stroke-width="0.1" fill="none" />
<path d="M201.52213962001645,-139.33351083989305 L242.69588309221123,-33.521759054258006" stroke="#0d6d4d" stroke-width="0.1" fill="none" />
<path d="M202.92829905373222,-137.27747609553074 L244.2880803807785,18.66370230887488" stroke="#0d6d4d" stroke-width="0.1" fill="none" />
<path d="M204.31348253640718,-135.2072514839542 L234.78665853214076,70.00160694806897" stroke="#0d6d4d" stroke-width="0.1" fill="none" />
<path d="M205.67754688672528,-133.1230509966584 L214.6230964587624,118.16059608199667" stroke="#0d6d4d" stroke-width="0.1" fill="none" />
<path d="M207.02035110637752,-131.0250900697732 L184.71306257042738,160.95367195517284" stroke="#0d6d4d" stroke-width="0.1" fill="none" />
<path d="M208.34175639463618,-128.91358556179435 L146.41483240731304,196.43751385908556" stroke="#0d6d4d" stroke-width="0.1" fill="none" />
<path d="M209.64162616270238,-126.78875573116783 L101.46760658205815,223.0007282824625" stroke="#0d6d4d" stroke-width="0.1" fill="none" />
<path d="M210.91982604782459,-124.65082021372908 L51.91253013867018,239.43702557165562" stroke="#0d6d4d" stroke-width="0.1" fill="none" />
<path d="M212.17622392718746,-122.50000000000003 L3.0003846579110155e-14,245.0" stroke="#0d6d4d" stroke-width="0.1" fill="none" />
<path d="M213.4106899315685,-120.33651741234635 L-51.91253013867013,239.43702557165562" stroke="#0d6d4d" stroke-width="0.1" fill="none" />
<path d="M214.62309645876235,-118.16059608199677 L-101.4676065820581,223.00072828246252" stroke="#0d6d4d" stroke-width="0.1" fill="none" />
<path d="M215.81331818677083,-115.97246092592677 L-146.41483240731293,196.43751385908567" stroke="#0d6d4d" stroke-width="0.1" fill="none" />
<path d="M216.9812320867565,-113.77233812361025 L-184.71306257042733,160.9536719551729" stroke="#0d6d4d" stroke-width="0.1" fill="none" />
<path d="M218.12671743576016,-111.56045509363994 L-214.62309645876226,118.16059608199693" stroke="#0d6d4d" stroke-width="0.1" fill="none" />
<path d="M219.24965582917915,-109.33704047021983 L-234.78665853214076,70.00160694806891" stroke="#0d6d4d" stroke-width="0.1" fill="none" />
<path d="M220.34993119300674,-107.10232407953244 L-244.2880803807785,18.663702308874992" stroke="#0d6d4d" stroke-width="0.1" fill="none" />
<path d="M221.42742979583008,-104.85653691598226 L-242.69588309221126,-33.52175905425794" stroke="#0d6d4d" stroke-width="0.1" fill="none" />
<path d="M222.4820402605861,-102.59991111831889 L-230.08237158726502,-84.18492908341551" stroke="#0d6d4d" stroke-width="0.1" fill="none" />
<path d="M223.51365357607452,-100.3326799456416 L-207.0203511063775,-131.02509006977323" stroke="#0d6d4d" stroke-width="0.1" fill="none" />
<path d="M224.52216310822553,-98.05507775328812 L-174.5571149573134,-171.91513492935778" stroke="#0d6d4d" stroke-width="0.1" fill="none" />
<path d="M225.50746461112234,-95.76733996861039 L-134.1668847936115,-204.99816346684128" stroke="#0d6d4d" stroke-width="0.1" fill="none" />
<path d="M226.4694562377768,-93.46970306663923 L-87.68386320756295,-228.77180799433611" stroke="#0d6d4d" stroke-width="0.1" fill="none" />
<path d="M227.40803855065664,-91.16240454564071 L-37.21893885578241,-242.15645890714856" stroke="#0d6d4d" stroke-width="0.1" fill="none" />
<path d="M228.3231145319644,-88.84568290256696 L14.936173292771956,-244.54429195417399" stroke="#0d6d4d" stroke-width="0.1" fill="none" />
<path d="M229.21458959366532,-86.51977760840339 L66.41300339981608,-235.82687077476143" stroke="#0d6d4d" stroke-width="0.1" fill="none" />
<path d="M230.08237158726496,-84.18492908341571 L114.87388379565428,-216.4000712146429" stroke="#0d6d4d" stroke-width="0.1" fill="none" />
<path d="M230.92637081333402,-81.84137867229849 L158.11810722790204,-187.14610379771648" stroke="#0d6d4d" stroke-width="0.1" fill="none" />
<path d="M231.7465000307803,-79.48936861922819 L194.1818654587862,-149.39345074984328" stroke="#0d6d4d" stroke-width="0.1" fill="none" />
<path d="M232.54267446586655,-77.12914204282333 L221.42742979583008,-104.85653691598226" stroke="#0d6d4d" stroke-width="0.1" fill="none" />
<path d="M233.31481182097312,-74.76094291101411 L238.6175236864394,-55.55787423715505" stroke="#0d6d4d" stroke-width="0.1" fill="none" />
<path d="M234.06283228310474,-72.38501601582455 L244.97150996543627,-3.736215365066868" stroke="#0d6d4d" stroke-width="0.1" fill="none" />
<path d="M234.78665853214076,-70.001606948069 L240.20084117822387,48.25511265424293" stroke="#0d6d4d" stroke-width="0.1" fill="none" />
<path d="M235.48621574882702,-67.61096207196651 L224.52216310822556,98.05507775328803" stroke="#0d6d4d" stroke-width="0.1" fill="none" />
<path d="M236.16143162251004,-65.213328499675 L198.64747645073638,143.40216211673425" stroke="#0d6d4d" stroke-width="0.1" fill="none" />
<path d="M236.81223635861122,-62.80895406574818 L163.7518034116097,182.237062310183" stroke="#0d6d4d" stroke-width="0.1" fill="none" />
<path d="M237.43856268584142,-60.3980873015177 L121.41982755636826,212.7962064421774" stroke="#0d6d4d" stroke-width="0.1" fill="none" />
<path d="M238.04034586315453,-57.9809774094036 L73.57393010284052,233.69184155469" stroke="#0d6d4d" stroke-width="0.1" fill="none" />
<path d="M238.6175236864394,-55.55787423715505 L22.386890675803482,243.97505431061927" stroke="#0d6d4d" stroke-width="0.1" fill="none" />
<path d="M239.17003649494973,-53.129028252024476 L-29.81678303988375,243.17886308055742" stroke="#0d6d4d" stroke-width="0.1" fill="none" />
<path d="M239.69782717747103,-50.69469051487781 L-80.66641592629442,231.3394245294262" stroke="#0d6d4d" stroke-width="0.1" fill="none" />
<path d="M240.20084117822384,-48.255112654243014 L-127.85282261658962,208.99439166870212" stroke="#0d6d4d" stroke-width="0.1" fill="none" />
<path d="M240.6790265025032,-45.81054684030044 L-169.23317230437237,177.1584979384241" stroke="#0d6d4d" stroke-width="0.1" fill="none" />
<path d="M241.1323337220529,-43.36124575881678 L-202.9282990537322,137.27747609553083" stroke="#0d6d4d" stroke-width="0.1" fill="none" />
<path d="M241.56071598017485,-40.90746258502591 L-227.40803855065664,91.16240454564078" stroke="#0d6d4d" stroke-width="0.1" fill="none" />
<path d="M241.96412899657244,-38.449450957459106 L-241.56071598017485,40.90746258502595" stroke="#0d6d4d" stroke-width="0.1" fill="none" />
<path d="M242.34253107192765,-35.9874649517272 L-244.74362944324182,-11.205170545294667" stroke="#0d6d4d" stroke-width="0.1" fill="none" />
<path d="M242.69588309221123,-33.521759054258006 L-236.81223635861124,-62.80895406574803" stroke="#0d6d4d" stroke-width="0.1" fill="none" />
<path d="M243.02414853272612,-31.052588135990806 L-218.1267174357602,-111.56045509363985" stroke="#0d6d4d" stroke-width="0.1" fill="none" />
<path d="M243.3272934618824,-28.580207426031336 L-189.53562013549003,-155.2457687019367" stroke="#0d6d4d" stroke-width="0.1" fill="none" />
<path d="M243.60528654470494,-26.10487248526965 L-152.33732440196167,-191.8810558498454" stroke="#0d6d4d" stroke-width="0.1" fill="none" />
<path d="M243.85809904607254,-23.62683917996383 L-108.22108058573535,-219.80263355304862" stroke="#0d6d4d" stroke-width="0.1" fill="none" />
<path d="M244.0857048336878,-21.146363655291815 L-59.19029714578443,-237.74252611553058" stroke="#0d6d4d" stroke-width="0.1" fill="none" />
<path d="M244.2880803807785,-18.663702308874907 L-7.471561792134678,-244.88604648772113" stroke="#0d6d4d" stroke-width="0.1" fill="none" />
<path d="M244.4652047685296,-16.17911176427472 L44.58647239571457,-240.90879286424183" stroke="#0d6d4d" stroke-width="0.1" fill="none" />
<path d="M244.61705968824535,-13.692848844466962 L94.61974408733975,-225.99138043041893" stroke="#0d6d4d" stroke-width="0.1" fill="none" />
<path d="M244.74362944324182,-11.205170545294672 L140.35614053999055,-200.81123925895787" stroke="#0d6d4d" stroke-width="0.1" fill="none" />
<path d="M244.84490095046954,-8.71633400890328 L179.71867886459984,-166.5118508309929" stroke="#0d6d4d" stroke-width="0.1" fill="none" />
<path d="M244.9208637418657,-6.2265964971610925 L210.91982604782459,-124.65082021372908" stroke="#0d6d4d" stroke-width="0.1" fill="none" />
<path d="M244.97150996543627,-3.736215365066868 L232.54267446586655,-77.12914204282333" stroke="#0d6d4d" stroke-width="0.1" fill="none" />
<path d="M244.9968343860676,-1.2454480341480283 L243.60528654470494,-26.10487248526965" stroke="#0d6d4d" stroke-width="0.1" fill="none" />
<path d="M244.9968343860676,1.245448034147998 L243.60528654470497,26.10487248526962" stroke="#0d6d4d" stroke-width="0.1" fill="none" />
<path d="M244.97150996543627,3.736215365066838 L232.54267446586658,77.12914204282326" stroke="#0d6d4d" stroke-width="0.1" fill="none" />
<path d="M244.9208637418657,6.226596497161062 L210.91982604782467,124.65082021372893" stroke="#0d6d4d" stroke-width="0.1" fill="none" />
<path d="M244.84490095046954,8.716334008903248 L179.7186788645999,166.51185083099284" stroke="#0d6d4d" stroke-width="0.1" fill="none" />
<path d="M244.74362944324182,11.20517054529464 L140.3561405399906,200.81123925895778" stroke="#0d6d4d" stroke-width="0.1" fill="none" />
<path d="M244.61705968824535,13.69284884446693 L94.61974408733978,225.9913804304189" stroke="#0d6d4d" stroke-width="0.1" fill="none" />
<path d="M244.4652047685296,16.17911176427469 L44.58647239571467,240.9087928642418" stroke="#0d6d4d" stroke-width="0.1" fill="none" />
<path d="M244.2880803807785,18.66370230887488 L-7.471561792134588,244.88604648772113" stroke="#0d6d4d" stroke-width="0.1" fill="none" />
<path d="M244.0857048336878,21.146363655291733 L-59.19029714578434,237.7425261155306" stroke="#0d6d4d" stroke-width="0.1" fill="none" />
<path d="M243.85809904607254,23.62683917996375 L-108.22108058573527,219.80263355304865" stroke="#0d6d4d" stroke-width="0.1" fill="none" />
<path d="M243.60528654470497,26.10487248526962 L-152.3373244019617,191.8810558498454" stroke="#0d6d4d" stroke-width="0.1" fill="none" />
<path d="M243.3272934618824,28.580207426031365 L-189.53562013548998,155.24576870193678" stroke="#0d6d4d" stroke-width="0.1" fill="none" />
<path d="M243.02414853272612,31.052588135990835 L-218.12671743576016,111.56045509363993" stroke="#0d6d4d" stroke-width="0.1" fill="none" />
<path d="M242.69588309221126,33.52175905425798 L-236.81223635861122,62.808954065748104" stroke="#0d6d4d" stroke-width="0.1" fill="none" />
<path d="M242.34253107192765,35.98746495172717 L-244.74362944324182,11.205170545294756" stroke="#0d6d4d" stroke-width="0.1" fill="none" />
<path d="M241.96412899657244,38.44945095745908 L-241.56071598017488,-40.907462585025854" stroke="#0d6d4d" stroke-width="0.1" fill="none" />
<path d="M241.56071598017485,40.90746258502588 L-227.40803855065664,-91.16240454564071" stroke="#0d6d4d" stroke-width="0.1" fill="none" />
<path d="M241.1323337220529,43.36124575881676 L-202.92829905373233,-137.27747609553057" stroke="#0d6d4d" stroke-width="0.1" fill="none" />
<path d="M240.6790265025032,45.81054684030041 L-169.23317230437252,-177.15849793842392" stroke="#0d6d4d" stroke-width="0.1" fill="none" />
<path d="M240.20084117822387,48.25511265424293 L-127.85282261658959,-208.99439166870212" stroke="#0d6d4d" stroke-width="0.1" fill="none" />
<path d="M239.69782717747103,50.69469051487774 L-80.6664159262945,-231.33942452942617" stroke="#0d6d4d" stroke-width="0.1" fill="none" />
<path d="M239.17003649494973,53.129028252024455 L-29.81678303988395,-243.17886308055742" stroke="#0d6d4d" stroke-width="0.1" fill="none" />
<path d="M238.6175236864394,55.55787423715507 L22.386890675803418,-243.97505431061927" stroke="#0d6d4d" stroke-width="0.1" fill="none" />
<path d="M238.04034586315453,57.98097740940363 L73.5739301028405,-233.69184155469" stroke="#0d6d4d" stroke-width="0.1" fill="none" />
<path d="M237.43856268584142,60.39808730151768 L121.41982755636819,-212.79620644217746" stroke="#0d6d4d" stroke-width="0.1" fill="none" />
<path d="M236.81223635861122,62.80895406574815 L163.7518034116097,-182.237062310183" stroke="#0d6d4d" stroke-width="0.1" fill="none" />
<path d="M236.16143162251004,65.21332849967497 L198.64747645073632,-143.40216211673433" stroke="#0d6d4d" stroke-width="0.1" fill="none" />
<path d="M235.48621574882702,67.61096207196648 L224.52216310822553,-98.05507775328812" stroke="#0d6d4d" stroke-width="0.1" fill="none" />
<path d="M234.78665853214076,70.00160694806897 L240.20084117822384,-48.255112654243014" stroke="#0d6d4d" stroke-width="0.1" fill="none" />
<path d="M234.06283228310477,72.38501601582446 L244.97150996543627,3.736215365066838" stroke="#0d6d4d" stroke-width="0.1" fill="none" />
<path d="M233.31481182097315,74.76094291101404 L238.6175236864394,55.55787423715507" stroke="#0d6d4d" stroke-width="0.1" fill="none" />
<path d="M232.54267446586658,77.12914204282326 L221.42742979583008,104.85653691598223" stroke="#0d6d4d" stroke-width="0.1" fill="none" />
<path d="M231.7465000307803,79.4893686192282 L194.1818654587862,149.39345074984328" stroke="#0d6d4d" stroke-width="0.1" fill="none" />
<path d="M230.926370813334,81.8413786722985 L158.11810722790207,187.14610379771648" stroke="#0d6d4d" stroke-width="0.1" fill="none" />
<path d="M230.08237158726496,84.18492908341568 L114.87388379565436,216.40007121464285" stroke="#0d6d4d" stroke-width="0.1" fill="none" />
<path d="M229.21458959366532,86.51977760840336 L66.41300339981612,235.8268707747614" stroke="#0d6d4d" stroke-width="0.1" fill="none" />
<path d="M228.3231145319644,88.84568290256694 L14.936173292772049,244.54429195417399" stroke="#0d6d4d" stroke-width="0.1" fill="none" />
<path d="M227.40803855065667,91.16240454564068 L-37.21893885578243,242.15645890714856" stroke="#0d6d4d" stroke-width="0.1" fill="none" />
<path d="M226.4694562377768,93.46970306663921 L-87.68386320756277,228.7718079943362" stroke="#0d6d4d" stroke-width="0.1" fill="none" />
<path d="M225.50746461112237,95.76733996861037 L-134.16688479361142,204.99816346684133" stroke="#0d6d4d" stroke-width="0.1" fill="none" />
<path d="M224.52216310822556,98.05507775328803 L-174.5571149573133,171.91513492935783" stroke="#0d6d4d" stroke-width="0.1" fill="none" />
<path d="M223.51365357607455,100.33267994564152 L-207.02035110637743,131.0250900697733" stroke="#0d6d4d" stroke-width="0.1" fill="none" />
<path d="M222.48204026058613,102.59991111831881 L-230.082371587265,84.18492908341557" stroke="#0d6d4d" stroke-width="0.1" fill="none" />
<path d="M221.42742979583008,104.85653691598223 L-242.69588309221123,33.521759054258034" stroke="#0d6d4d" stroke-width="0.1" fill="none" />
<path d="M220.34993119300674,107.10232407953245 L-244.2880803807785,-18.663702308874903" stroke="#0d6d4d" stroke-width="0.1" fill="none" />
<path d="M219.24965582917915,109.3370404702198 L-234.7866585321408,-70.00160694806883" stroke="#0d6d4d" stroke-width="0.1" fill="none" />
<path d="M218.12671743576018,111.56045509363987 L-214.62309645876232,-118.16059608199684" stroke="#0d6d4d" stroke-width="0.1" fill="none" />
<path d="M216.9812320867565,113.77233812361028 L-184.71306257042738,-160.9536719551728" stroke="#0d6d4d" stroke-width="0.1" fill="none" />
<path d="M215.81331818677086,115.97246092592675 L-146.41483240731299,-196.4375138590856" stroke="#0d6d4d" stroke-width="0.1" fill="none" />
<path d="M214.6230964587624,118.16059608199667 L-101.46760658205808,-223.00072828246255" stroke="#0d6d4d" stroke-width="0.1" fill="none" />
<path d="M213.4106899315685,120.33651741234635 L-51.91253013867032,-239.4370255716556" stroke="#0d6d4d" stroke-width="0.1" fill="none" />
<path d="M212.17622392718752,122.49999999999994 L0.0,-245.0" stroke="#0d6d4d" stroke-width="0.1" fill="none" />
<path d="M210.91982604782467,124.65082021372893 L51.912530138670206,-239.4370255716556" stroke="#0d6d4d" stroke-width="0.1" fill="none" />
<path d="M209.64162616270235,126.78875573116787 L101.46760658205812,-223.00072828246252" stroke="#0d6d4d" stroke-width="0.1" fill="none" />
<path d="M208.34175639463618,128.91358556179435 L146.41483240731299,-196.4375138590856" stroke="#0d6d4d" stroke-width="0.1" fill="none" />
<path d="M207.02035110637755,131.02509006977314 L184.71306257042733,-160.95367195517287" stroke="#0d6d4d" stroke-width="0.1" fill="none" />
<path d="M205.67754688672528,133.1230509966584 L214.62309645876235,-118.16059608199677" stroke="#0d6d4d" stroke-width="0.1" fill="none" />
<path d="M204.3134825364072,135.20725148395417 L234.78665853214076,-70.001606948069" stroke="#0d6d4d" stroke-width="0.1" fill="none" />
<path d="M202.92829905373227,137.27747609553072 L244.2880803807785,-18.663702308874907" stroke="#0d6d4d" stroke-width="0.1" fill="none" />
<path d="M201.52213962001645,139.33351083989305 L242.69588309221126,33.52175905425798" stroke="#0d6d4d" stroke-width="0.1" fill="none" />
<path d="M200.09514958478272,141.37514319230036 L230.08237158726496,84.18492908341568" stroke="#0d6d4d" stroke-width="0.1" fill="none" />
<path d="M198.64747645073638,143.40216211673425 L207.02035110637755,131.02509006977314" stroke="#0d6d4d" stroke-width="0.1" fill="none" />
<path d="M197.1792698585187,145.41435808771246 L174.5571149573133,171.91513492935783" stroke="#0d6d4d" stroke-width="0.1" fill="none" />
<path d="M195.69068157123863,147.41152311194702 L134.16688479361147,204.9981634668413" stroke="#0d6d4d" stroke-width="0.1" fill="none" />
<path d="M194.1818654587862,149.39345074984328 L87.68386320756274,228.7718079943362" stroke="#0d6d4d" stroke-width="0.1" fill="none" />
<path d="M192.6529774819272,151.35993613683925 L37.21893885578249,242.15645890714856" stroke="#0d6d4d" stroke-width="0.1" fill="none" />
<path d="M191.1041756761819,153.31077600458167 L-14.936173292771988,244.54429195417399" stroke="#0d6d4d" stroke-width="0.1" fill="none" />
<path d="M189.53562013549003,155.24576870193673 L-66.41300339981606,235.82687077476143" stroke="#0d6d4d" stroke-width="0.1" fill="none" />
<path d="M187.94747299566194,157.1647142158345 L-114.87388379565422,216.40007121464294" stroke="#0d6d4d" stroke-width="0.1" fill="none" />
<path d="M186.33989841761945,159.06741419194339 L-158.11810722790202,187.1461037977165" stroke="#0d6d4d" stroke-width="0.1" fill="none" />
<path d="M184.71306257042738,160.95367195517284 L-194.18186545878615,149.39345074984337" stroke="#0d6d4d" stroke-width="0.1" fill="none" />
<path d="M183.0671336141167,162.82329253000364 L-221.42742979583005,104.85653691598229" stroke="#0d6d4d" stroke-width="0.1" fill="none" />
<path d="M181.4022816823029,164.6760826606415 L-238.6175236864394,55.557874237155026" stroke="#0d6d4d" stroke-width="0.1" fill="none" />
<path d="M179.7186788645999,166.51185083099284 L-244.97150996543627,3.7362153650667893" stroke="#0d6d4d" stroke-width="0.1" fill="none" />
<path d="M178.01649918883146,168.33040728446176 L-240.20084117822387,-48.25511265424289" stroke="#0d6d4d" stroke-width="0.1" fill="none" />
<path d="M176.2959186030427,170.13156404356405 L-224.52216310822556,-98.05507775328806" stroke="#0d6d4d" stroke-width="0.1" fill="none" />
<path d="M174.5571149573133,171.91513492935783 L-198.64747645073635,-143.4021621167343" stroke="#0d6d4d" stroke-width="0.1" fill="none" />
<path d="M172.8002679853734,173.68093558068813 L-163.75180341160964,-182.23706231018306" stroke="#0d6d4d" stroke-width="0.1" fill="none" />
<path d="M171.02555928602538,175.4287834732437 L-121.41982755636829,-212.7962064421774" stroke="#0d6d4d" stroke-width="0.1" fill="none" />
<path d="M169.2331723043724,177.15849793842403 L-73.57393010284055,-233.69184155468997" stroke="#0d6d4d" stroke-width="0.1" fill="none" />
<path d="M167.42329231285697,178.869900182014 L-22.386890675803407,-243.97505431061927" stroke="#0d6d4d" stroke-width="0.1" fill="none" />
<path d="M165.59610639210925,180.56281330266546 L29.816783039883763,-243.17886308055742" stroke="#0d6d4d" stroke-width="0.1" fill="none" />
<path d="M163.7518034116097,182.237062310183 L80.66641592629449,-231.33942452942617" stroke="#0d6d4d" stroke-width="0.1" fill="none" />
<path d="M161.89057401016632,183.8924741436116 L127.85282261658953,-208.99439166870218" stroke="#0d6d4d" stroke-width="0.1" fill="none" />
<path d="M160.01261057620877,185.5288776891257 L169.2331723043724,-177.15849793842403" stroke="#0d6d4d" stroke-width="0.1" fill="none" />
<path d="M158.11810722790207,187.14610379771648 L202.92829905373222,-137.27747609553074" stroke="#0d6d4d" stroke-width="0.1" fill="none" />
<path d="M156.20725979308128,188.7439853026761 L227.40803855065664,-91.16240454564071" stroke="#0d6d4d" stroke-width="0.1" fill="none" />
<path d="M154.2802657890097,190.3223570368771 L241.56071598017485,-40.90746258502591" stroke="#0d6d4d" stroke-width="0.1" fill="none" />
<path d="M152.33732440196172,191.88105584984538 L244.74362944324182,11.20517054529464" stroke="#0d6d4d" stroke-width="0.1" fill="none" />
<path d="M150.37863646663405,193.41992062462418 L236.81223635861122,62.80895406574815" stroke="#0d6d4d" stroke-width="0.1" fill="none" />
<path d="M148.4044044453864,194.9387922944281 L218.12671743576018,111.56045509363987" stroke="#0d6d4d" stroke-width="0.1" fill="none" />
<path d="M146.41483240731304,196.43751385908556 L189.53562013549003,155.24576870193673" stroke="#0d6d4d" stroke-width="0.1" fill="none" />
<path d="M144.41012600714944,197.91593040126716 L152.33732440196172,191.88105584984538" stroke="#0d6d4d" stroke-width="0.1" fill="none" />
<path d="M142.39049246401444,199.37388910249868 L108.22108058573524,219.80263355304868" stroke="#0d6d4d" stroke-width="0.1" fill="none" />
<path d="M140.3561405399906,200.81123925895778 L59.19029714578429,237.74252611553064" stroke="#0d6d4d" stroke-width="0.1" fill="none" />
<path d="M138.3072805185452,202.22783229705163 L7.471561792134647,244.88604648772113" stroke="#0d6d4d" stroke-width="0.1" fill="none" />
<path d="M136.24412418279434,203.62352178877399 L-44.586472395714615,240.90879286424183" stroke="#0d6d4d" stroke-width="0.1" fill="none" />
<path d="M134.16688479361147,204.9981634668413 L-94.61974408733964,225.99138043041899" stroke="#0d6d4d" stroke-width="0.1" fill="none" />
<path d="M132.07577706758318,206.35161523960525 L-140.35614053999058,200.81123925895784" stroke="#0d6d4d" stroke-width="0.1" fill="none" />
<path d="M129.97101715481526,207.68373720573965 L-179.71867886459978,166.51185083099296" stroke="#0d6d4d" stroke-width="0.1" fill="none" />
<path d="M127.85282261658956,208.99439166870215 L-210.91982604782464,124.65082021372899" stroke="#0d6d4d" stroke-width="0.1" fill="none" />
<path d="M125.72141240287577,210.28344315096714 L-232.54267446586653,77.12914204282342" stroke="#0d6d4d" stroke-width="0.1" fill="none" />
<path d="M123.5770068296994,211.55075840802942 L-243.60528654470494,26.104872485269734" stroke="#0d6d4d" stroke-width="0.1" fill="none" />
<path d="M121.41982755636826,212.7962064421774 L-243.60528654470494,-26.104872485269645" stroke="#0d6d4d" stroke-width="0.1" fill="none" />
<path d="M119.25009756256047,214.019658516034 L-232.54267446586655,-77.12914204282333" stroke="#0d6d4d" stroke-width="0.1" fill="none" />
<path d="M117.0680411252762,215.22098816586325 L-210.9198260478247,-124.6508202137289" stroke="#0d6d4d" stroke-width="0.1" fill="none" />
<path d="M114.87388379565436,216.40007121464285 L-179.71867886459992,-166.51185083099284" stroke="#0d6d4d" stroke-width="0.1" fill="none" />
<path d="M112.66785237565864,217.5567857848998 L-140.35614053999058,-200.81123925895784" stroke="#0d6d4d" stroke-width="0.1" fill="none" />
<path d="M110.45017489463385,218.6910123113083 L-94.61974408733973,-225.99138043041896" stroke="#0d6d4d" stroke-width="0.1" fill="none" />
<path d="M108.22108058573524,219.80263355304868 L-44.5864723957147,-240.9087928642418" stroke="#0d6d4d" stroke-width="0.1" fill="none" />
<path d="M105.98079986223334,220.89153460592655 L7.47156179213464,-244.88604648772113" stroke="#0d6d4d" stroke-width="0.1" fill="none" />
<path d="M103.72956429369721,221.95760291424966 L59.190297145784335,-237.7425261155306" stroke="#0d6d4d" stroke-width="0.1" fill="none" />
<path d="M101.46760658205815,223.0007282824625 L108.22108058573524,-219.80263355304868" stroke="#0d6d4d" stroke-width="0.1" fill="none" />
<path d="M99.1951605375556,224.02080288653679 L152.3373244019617,-191.8810558498454" stroke="#0d6d4d" stroke-width="0.1" fill="none" />
<path d="M96.91246105456938,225.01772128511695 L189.53562013548998,-155.24576870193675" stroke="#0d6d4d" stroke-width="0.1" fill="none" />
<path d="M94.61974408733978,225.9913804304189 L218.12671743576016,-111.56045509363994" stroke="#0d6d4d" stroke-width="0.1" fill="none" />
<path d="M92.31724662557727,226.94167967888214 L236.81223635861122,-62.80895406574818" stroke="#0d6d4d" stroke-width="0.1" fill="none" />
<path d="M90.00520666996599,227.86852080157257 L244.74362944324182,-11.205170545294672" stroke="#0d6d4d" stroke-width="0.1" fill="none" />
<path d="M87.68386320756274,228.7718079943362 L241.56071598017485,40.90746258502588" stroke="#0d6d4d" stroke-width="0.1" fill="none" />
<path d="M85.35345618709354,229.65144788770198 L227.40803855065667,91.16240454564068" stroke="#0d6d4d" stroke-width="0.1" fill="none" />
<path d="M83.01422649415092,230.50734955653326 L202.92829905373227,137.27747609553072" stroke="#0d6d4d" stroke-width="0.1" fill="none" />
<path d="M80.66641592629448,231.33942452942617 L169.2331723043724,177.15849793842403" stroke="#0d6d4d" stroke-width="0.1" fill="none" />
<path d="M78.31026716805759,232.14758679785461 L127.85282261658956,208.99439166870215" stroke="#0d6d4d" stroke-width="0.1" fill="none" />
<path d="M75.9460237658614,232.9317528250608 L80.66641592629448,231.33942452942617" stroke="#0d6d4d" stroke-width="0.1" fill="none" />
<path d="M73.57393010284052,233.69184155469 L29.816783039883813,243.17886308055742" stroke="#0d6d4d" stroke-width="0.1" fill="none" />
<path d="M71.1942313735825,234.42777441916903 L-22.386890675803425,243.97505431061927" stroke="#0d6d4d" stroke-width="0.1" fill="none" />
<path d="M68.8071735587822,235.1394753478276 L-73.57393010284036,233.69184155469006" stroke="#0d6d4d" stroke-width="0.1" fill="none" />
<path d="M66.41300339981612,235.8268707747614 L-121.41982755636822,212.79620644217744" stroke="#0d6d4d" stroke-width="0.1" fill="none" />
<path d="M64.01196837323778,236.48988964643627 L-163.75180341160967,182.23706231018306" stroke="#0d6d4d" stroke-width="0.1" fill="none" />
<path d="M61.60431666519673,237.12846342903285 L-198.6474764507363,143.4021621167344" stroke="#0d6d4d" stroke-width="0.1" fill="none" />
<path d="M59.19029714578429,237.74252611553064 L-224.52216310822553,98.05507775328813" stroke="#0d6d4d" stroke-width="0.1" fill="none" />
<path d="M56.77015934330936,238.3320142325308 L-240.20084117822387,48.25511265424299" stroke="#0d6d4d" stroke-width="0.1" fill="none" />
<path d="M54.34415341850492,238.89686684681737 L-244.97150996543627,-3.736215365066699" stroke="#0d6d4d" stroke-width="0.1" fill="none" />
<path d="M51.91253013867018,239.43702557165562 L-238.61752368643943,-55.557874237154934" stroke="#0d6d4d" stroke-width="0.1" fill="none" />
<path d="M49.47554085174992,239.952434572827 L-221.4274297958301,-104.85653691598222" stroke="#0d6d4d" stroke-width="0.1" fill="none" />
<path d="M47.03343746035304,240.44304057440104 L-194.1818654587862,-149.39345074984328" stroke="#0d6d4d" stroke-width="0.1" fill="none" />
<path d="M44.58647239571467,240.9087928642418 L-158.11810722790216,-187.1461037977164" stroke="#0d6d4d" stroke-width="0.1" fill="none" />
<path d="M42.13489859160311,241.34964329925023 L-114.8738837956542,-216.40007121464294" stroke="#0d6d4d" stroke-width="0.1" fill="none" />
<path d="M39.678969458175395,241.76554631034006 L-66.41300339981615,-235.8268707747614" stroke="#0d6d4d" stroke-width="0.1" fill="none" />
<path d="M37.21893885578249,242.15645890714856 L-14.936173292771969,-244.54429195417399" stroke="#0d6d4d" stroke-width="0.1" fill="none" />
<path d="M34.75506106872943,242.52234068247998 L37.21893885578247,-242.15645890714856" stroke="#0d6d4d" stroke-width="0.1" fill="none" />
<path d="M32.28759077899057,242.8631538164825 L87.68386320756275,-228.7718079943362" stroke="#0d6d4d" stroke-width="0.1" fill="none" />
<path d="M29.816783039883813,243.17886308055742 L134.16688479361144,-204.9981634668413" stroke="#0d6d4d" stroke-width="0.1" fill="none" />
<path d="M27.342893249706904,243.46943584100066 L174.5571149573133,-171.91513492935783" stroke="#0d6d4d" stroke-width="0.1" fill="none" />
<path d="M24.8661771253382,243.73484206237586 L207.02035110637752,-131.0250900697732" stroke="#0d6d4d" stroke-width="0.1" fill="none" />
<path d="M22.386890675803482,243.97505431061927 L230.08237158726496,-84.18492908341571" stroke="#0d6d4d" stroke-width="0.1" fill="none" />
<path d="M19.90529017581359,244.1900477558753 L242.69588309221123,-33.521759054258006" stroke="#0d6d4d" stroke-width="0.1" fill="none" />
<path d="M17.42163213927455,244.37980017506314 L244.2880803807785,18.66370230887488" stroke="#0d6d4d" stroke-width="0.1" fill="none" />
<path d="M14.936173292772049,244.54429195417399 L234.78665853214076,70.00160694806897" stroke="#0d6d4d" stroke-width="0.1" fill="none" />
<path d="M12.449170549034859,244.6835060902983 L214.6230964587624,118.16059608199667" stroke="#0d6d4d" stroke-width="0.1" fill="none" />
<path d="M9.96088098037895,244.79742819338344 L184.71306257042738,160.95367195517284" stroke="#0d6d4d" stroke-width="0.1" fill="none" />
<path d="M7.471561792134647,244.88604648772113 L146.41483240731304,196.43751385908556" stroke="#0d6d4d" stroke-width="0.1" fill="none" />
<path d="M4.981470296060035,244.94935181316458 L101.46760658205815,223.0007282824625" stroke="#0d6d4d" stroke-width="0.1" fill="none" />
<path d="M2.49086388374382,244.9873376260754 L51.91253013867018,239.43702557165562" stroke="#0d6d4d" stroke-width="0.1" fill="none" />
<path d="M3.0003846579110155e-14,245.0 L3.0003846579110155e-14,245.0" stroke="#0d6d4d" stroke-width="0.1" fill="none" />
<path d="M-2.49086388374376,244.9873376260754 L-51.91253013867013,239.43702557165562" stroke="#0d6d4d" stroke-width="0.1" fill="none" />
<path d="M-4.9814702960599755,244.94935181316458 L-101.4676065820581,223.00072828246252" stroke="#0d6d4d" stroke-width="0.1" fill="none" />
<path d="M-7.471561792134588,244.88604648772113 L-146.41483240731293,196.43751385908567" stroke="#0d6d4d" stroke-width="0.1" fill="none" />
<path d="M-9.96088098037889,244.79742819338344 L-184.71306257042733,160.9536719551729" stroke="#0d6d4d" stroke-width="0.1" fill="none" />
<path d="M-12.449170549034799,244.68350609029832 L-214.62309645876226,118.16059608199693" stroke="#0d6d4d" stroke-width="0.1" fill="none" />
<path d="M-14.936173292771988,244.54429195417399 L-234.78665853214076,70.00160694806891" stroke="#0d6d4d" stroke-width="0.1" fill="none" />
<path d="M-17.42163213927449,244.37980017506314 L-244.2880803807785,18.663702308874992" stroke="#0d6d4d" stroke-width="0.1" fill="none" />
<path d="M-19.90529017581353,244.1900477558753 L-242.69588309221126,-33.52175905425794" stroke="#0d6d4d" stroke-width="0.1" fill="none" />
<path d="M-22.386890675803425,243.97505431061927 L-230.08237158726502,-84.18492908341551" stroke="#0d6d4d" stroke-width="0.1" fill="none" />
<path d="M-24.866177125338137,243.73484206237586 L-207.0203511063775,-131.02509006977323" stroke="#0d6d4d" stroke-width="0.1" fill="none" />
<path d="M-27.342893249706844,243.46943584100066 L-174.5571149573134,-171.91513492935778" stroke="#0d6d4d" stroke-width="0.1" fill="none" />
<path d="M-29.81678303988375,243.17886308055742 L-134.1668847936115,-204.99816346684128" stroke="#0d6d4d" stroke-width="0.1" fill="none" />
<path d="M-32.28759077899051,242.8631538164825 L-87.68386320756295,-228.77180799433611" stroke="#0d6d4d" stroke-width="0.1" fill="none" />
<path d="M-34.75506106872938,242.52234068247998 L-37.21893885578241,-242.15645890714856" stroke="#0d6d4d" stroke-width="0.1" fill="none" />
<path d="M-37.21893885578243,242.15645890714856 L14.936173292771956,-244.54429195417399" stroke="#0d6d4d" stroke-width="0.1" fill="none" />
<path d="M-39.67896945817523,241.76554631034008 L66.41300339981608,-235.82687077476143" stroke="#0d6d4d" stroke-width="0.1" fill="none" />
<path d="M-42.13489859160295,241.34964329925026 L114.87388379565428,-216.4000712146429" stroke="#0d6d4d" stroke-width="0.1" fill="none" />
<path d="M-44.586472395714615,240.90879286424183 L158.11810722790204,-187.14610379771648" stroke="#0d6d4d" stroke-width="0.1" fill="none" />
<path d="M-47.033437460352886,240.44304057440107 L194.1818654587862,-149.39345074984328" stroke="#0d6d4d" stroke-width="0.1" fill="none" />
<path d="M-49.47554085174987,239.95243457282703 L221.42742979583008,-104.85653691598226" stroke="#0d6d4d" stroke-width="0.1" fill="none" />
<path d="M-51.91253013867013,239.43702557165562 L238.6175236864394,-55.55787423715505" stroke="#0d6d4d" stroke-width="0.1" fill="none" />
<path d="M-54.344153418504874,238.8968668468174 L244.97150996543627,-3.736215365066868" stroke="#0d6d4d" stroke-width="0.1" fill="none" />
<path d="M-56.770159343309416,238.33201423253078 L240.20084117822387,48.25511265424293" stroke="#0d6d4d" stroke-width="0.1" fill="none" />
<path d="M-59.19029714578434,237.7425261155306 L224.52216310822556,98.05507775328803" stroke="#0d6d4d" stroke-width="0.1" fill="none" />
<path d="M-61.604316665196784,237.12846342903282 L198.64747645073638,143.40216211673425" stroke="#0d6d4d" stroke-width="0.1" fill="none" />
<path d="M-64.01196837323772,236.4898896464363 L163.7518034116097,182.237062310183" stroke="#0d6d4d" stroke-width="0.1" fill="none" />
<path d="M-66.41300339981606,235.82687077476143 L121.41982755636826,212.7962064421774" stroke="#0d6d4d" stroke-width="0.1" fill="none" />
<path d="M-68.80717355878204,235.13947534782764 L73.57393010284052,233.69184155469" stroke="#0d6d4d" stroke-width="0.1" fill="none" />
<path d="M-71.19423137358244,234.42777441916905 L22.386890675803482,243.97505431061927" stroke="#0d6d4d" stroke-width="0.1" fill="none" />
<path d="M-73.57393010284036,233.69184155469006 L-29.81678303988375,243.17886308055742" stroke="#0d6d4d" stroke-width="0.1" fill="none" />
<path d="M-75.94602376586134,232.9317528250608 L-80.66641592629442,231.3394245294262" stroke="#0d6d4d" stroke-width="0.1" fill="none" />
<path d="M-78.31026716805744,232.14758679785467 L-127.85282261658962,208.99439166870212" stroke="#0d6d4d" stroke-width="0.1" fill="none" />
<path d="M-80.66641592629442,231.3394245294262 L-169.23317230437237,177.1584979384241" stroke="#0d6d4d" stroke-width="0.1" fill="none" />
<path d="M-83.01422649415088,230.50734955653328 L-202.9282990537322,137.27747609553083" stroke="#0d6d4d" stroke-width="0.1" fill="none" />
<path d="M-85.3534561870935,229.651447887702 L-227.40803855065664,91.16240454564078" stroke="#0d6d4d" stroke-width="0.1" fill="none" />
<path d="M-87.68386320756277,228.7718079943362 L-241.56071598017485,40.90746258502595" stroke="#0d6d4d" stroke-width="0.1" fill="none" />
<path d="M-90.00520666996593,227.86852080157257 L-244.74362944324182,-11.205170545294667" stroke="#0d6d4d" stroke-width="0.1" fill="none" />
<path d="M-92.31724662557723,226.94167967888217 L-236.81223635861124,-62.80895406574803" stroke="#0d6d4d" stroke-width="0.1" fill="none" />
<path d="M-94.61974408733964,225.99138043041899 L-218.1267174357602,-111.56045509363985" stroke="#0d6d4d" stroke-width="0.1" fill="none" />
<path d="M-96.91246105456933,225.01772128511698 L-189.53562013549003,-155.2457687019367" stroke="#0d6d4d" stroke-width="0.1" fill="none" />
<path d="M-99.19516053755545,224.02080288653687 L-152.33732440196167,-191.8810558498454" stroke="#0d6d4d" stroke-width="0.1" fill="none" />
<path d="M-101.4676065820581,223.00072828246252 L-108.22108058573535,-219.80263355304862" stroke="#0d6d4d" stroke-width="0.1" fill="none" />
<path d="M-103.72956429369717,221.9576029142497 L-59.19029714578443,-237.74252611553058" stroke="#0d6d4d" stroke-width="0.1" fill="none" />
<path d="M-105.9807998622333,220.89153460592658 L-7.471561792134678,-244.88604648772113" stroke="#0d6d4d" stroke-width="0.1" fill="none" />
<path d="M-108.22108058573527,219.80263355304865 L44.58647239571457,-240.90879286424183" stroke="#0d6d4d" stroke-width="0.1" fill="none" />
<path d="M-110.45017489463379,218.69101231130833 L94.61974408733975,-225.99138043041893" stroke="#0d6d4d" stroke-width="0.1" fill="none" />
<path d="M-112.66785237565868,217.5567857848998 L140.35614053999055,-200.81123925895787" stroke="#0d6d4d" stroke-width="0.1" fill="none" />
<path d="M-114.87388379565422,216.40007121464294 L179.71867886459984,-166.5118508309929" stroke="#0d6d4d" stroke-width="0.1" fill="none" />
<path d="M-117.06804112527614,215.22098816586325 L210.91982604782459,-124.65082021372908" stroke="#0d6d4d" stroke-width="0.1" fill="none" />
<path d="M-119.25009756256043,214.01965851603404 L232.54267446586655,-77.12914204282333" stroke="#0d6d4d" stroke-width="0.1" fill="none" />
<path d="M-121.41982755636822,212.79620644217744 L243.60528654470494,-26.10487248526965" stroke="#0d6d4d" stroke-width="0.1" fill="none" />
<path d="M-123.57700682969926,211.5507584080295 L243.60528654470497,26.10487248526962" stroke="#0d6d4d" stroke-width="0.1" fill="none" />
<path d="M-125.72141240287571,210.28344315096717 L232.54267446586658,77.12914204282326" stroke="#0d6d4d" stroke-width="0.1" fill="none" />
<path d="M-127.85282261658962,208.99439166870212 L210.91982604782467,124.65082021372893" stroke="#0d6d4d" stroke-width="0.1" fill="none" />
<path d="M-129.9710171548152,207.68373720573967 L179.7186788645999,166.51185083099284" stroke="#0d6d4d" stroke-width="0.1" fill="none" />
<path d="M-132.0757770675832,206.3516152396052 L140.3561405399906,200.81123925895778" stroke="#0d6d4d" stroke-width="0.1" fill="none" />
<path d="M-134.16688479361142,204.99816346684133 L94.61974408733978,225.9913804304189" stroke="#0d6d4d" stroke-width="0.1" fill="none" />
<path d="M-136.2441241827944,203.62352178877396 L44.58647239571467,240.9087928642418" stroke="#0d6d4d" stroke-width="0.1" fill="none" />
<path d="M-138.30728051854507,202.22783229705172 L-7.471561792134588,244.88604648772113" stroke="#0d6d4d" stroke-width="0.1" fill="none" />
<path d="M-140.35614053999058,200.81123925895784 L-59.19029714578434,237.7425261155306" stroke="#0d6d4d" stroke-width="0.1" fill="none" />
<path d="M-142.39049246401436,199.37388910249877 L-108.22108058573527,219.80263355304865" stroke="#0d6d4d" stroke-width="0.1" fill="none" />
<path d="M-144.4101260071494,197.9159304012672 L-152.3373244019617,191.8810558498454" stroke="#0d6d4d" stroke-width="0.1" fill="none" />
<path d="M-146.41483240731293,196.43751385908567 L-189.53562013548998,155.24576870193678" stroke="#0d6d4d" stroke-width="0.1" fill="none" />
<path d="M-148.40440444538635,194.93879229442814 L-218.12671743576016,111.56045509363993" stroke="#0d6d4d" stroke-width="0.1" fill="none" />
<path d="M-150.3786364666341,193.41992062462413 L-236.81223635861122,62.808954065748104" stroke="#0d6d4d" stroke-width="0.1" fill="none" />
<path d="M-152.3373244019617,191.8810558498454 L-244.74362944324182,11.205170545294756" stroke="#0d6d4d" stroke-width="0.1" fill="none" />
<path d="M-154.28026578900975,190.32235703687707 L-241.56071598017488,-40.907462585025854" stroke="#0d6d4d" stroke-width="0.1" fill="none" />
<path d="M-156.20725979308125,188.74398530267612 L-227.40803855065664,-91.16240454564071" stroke="#0d6d4d" stroke-width="0.1" fill="none" />
<path d="M-158.11810722790202,187.1461037977165 L-202.92829905373233,-137.27747609553057" stroke="#0d6d4d" stroke-width="0.1" fill="none" />
<path d="M-160.01261057620866,185.5288776891258 L-169.23317230437252,-177.15849793842392" stroke="#0d6d4d" stroke-width="0.1" fill="none" />
<path d="M-161.8905740101663,183.89247414361162 L-127.85282261658959,-208.99439166870212" stroke="#0d6d4d" stroke-width="0.1" fill="none" />
<path d="M-163.75180341160967,182.23706231018306 L-80.6664159262945,-231.33942452942617" stroke="#0d6d4d" stroke-width="0.1" fill="none" />
<path d="M-165.59610639210922,180.56281330266552 L-29.81678303988395,-243.17886308055742" stroke="#0d6d4d" stroke-width="0.1" fill="none" />
<path d="M-167.42329231285686,178.86990018201408 L22.386890675803418,-243.97505431061927" stroke="#0d6d4d" stroke-width="0.1" fill="none" />
<path d="M-169.23317230437237,177.1584979384241 L73.5739301028405,-233.69184155469" stroke="#0d6d4d" stroke-width="0.1" fill="none" />
<path d="M-171.02555928602533,175.4287834732437 L121.41982755636819,-212.79620644217746" stroke="#0d6d4d" stroke-width="0.1" fill="none" />
<path d="M-172.80026798537338,173.68093558068816 L163.7518034116097,-182.237062310183" stroke="#0d6d4d" stroke-width="0.1" fill="none" />
<path d="M-174.5571149573133,171.91513492935783 L198.64747645073632,-143.40216211673433" stroke="#0d6d4d" stroke-width="0.1" fill="none" />
<path d="M-176.29591860304265,170.1315640435641 L224.52216310822553,-98.05507775328812" stroke="#0d6d4d" stroke-width="0.1" fill="none" />
<path d="M-178.0164991888314,168.3304072844618 L240.20084117822384,-48.255112654243014" stroke="#0d6d4d" stroke-width="0.1" fill="none" />
<path d="M-179.71867886459978,166.51185083099296 L244.97150996543627,3.736215365066838" stroke="#0d6d4d" stroke-width="0.1" fill="none" />
<path d="M-181.40228168230288,164.67608266064155 L238.6175236864394,55.55787423715507" stroke="#0d6d4d" stroke-width="0.1" fill="none" />
<path d="M-183.06713361411656,162.8232925300038 L221.42742979583008,104.85653691598223" stroke="#0d6d4d" stroke-width="0.1" fill="none" />
<path d="M-184.71306257042733,160.9536719551729 L194.1818654587862,149.39345074984328" stroke="#0d6d4d" stroke-width="0.1" fill="none" />
<path d="M-186.3398984176193,159.0674141919435 L158.11810722790207,187.14610379771648" stroke="#0d6d4d" stroke-width="0.1" fill="none" />
<path d="M-187.94747299566183,157.16471421583464 L114.87388379565436,216.40007121464285" stroke="#0d6d4d" stroke-width="0.1" fill="none" />
<path d="M-189.53562013548998,155.24576870193678 L66.41300339981612,235.8268707747614" stroke="#0d6d4d" stroke-width="0.1" fill="none" />
<path d="M-191.10417567618194,153.31077600458164 L14.936173292772049,244.54429195417399" stroke="#0d6d4d" stroke-width="0.1" fill="none" />
<path d="M-192.65297748192722,151.35993613683922 L-37.21893885578243,242.15645890714856" stroke="#0d6d4d" stroke-width="0.1" fill="none" />
<path d="M-194.18186545878615,149.39345074984337 L-87.68386320756277,228.7718079943362" stroke="#0d6d4d" stroke-width="0.1" fill="none" />
<path d="M-195.69068157123857,147.41152311194708 L-134.16688479361142,204.99816346684133" stroke="#0d6d4d" stroke-width="0.1" fill="none" />
<path d="M-197.1792698585185,145.4143580877127 L-174.5571149573133,171.91513492935783" stroke="#0d6d4d" stroke-width="0.1" fill="none" />
<path d="M-198.6474764507363,143.4021621167344 L-207.02035110637743,131.0250900697733" stroke="#0d6d4d" stroke-width="0.1" fill="none" />
<path d="M-200.09514958478266,141.3751431923004 L-230.082371587265,84.18492908341557" stroke="#0d6d4d" stroke-width="0.1" fill="none" />
<path d="M-201.52213962001647,139.33351083989302 L-242.69588309221123,33.521759054258034" stroke="#0d6d4d" stroke-width="0.1" fill="none" />
<path d="M-202.9282990537322,137.27747609553083 L-244.2880803807785,-18.663702308874903" stroke="#0d6d4d" stroke-width="0.1" fill="none" />
<path d="M-204.31348253640718,135.20725148395425 L-234.7866585321408,-70.00160694806883" stroke="#0d6d4d" stroke-width="0.1" fill="none" />
<path d="M-205.6775468867253,133.12305099665838 L-214.62309645876232,-118.16059608199684" stroke="#0d6d4d" stroke-width="0.1" fill="none" />
<path d="M-207.02035110637743,131.0250900697733 L-184.71306257042738,-160.9536719551728" stroke="#0d6d4d" stroke-width="0.1" fill="none" />
<path d="M-208.34175639463612,128.91358556179443 L-146.41483240731299,-196.4375138590856" stroke="#0d6d4d" stroke-width="0.1" fill="none" />
<path d="M-209.64162616270238,126.78875573116785 L-101.46760658205808,-223.00072828246255" stroke="#0d6d4d" stroke-width="0.1" fill="none" />
<path d="M-210.91982604782464,124.65082021372899 L-51.91253013867032,-239.4370255716556" stroke="#0d6d4d" stroke-width="0.1" fill="none" />
<path d="M-212.1762239271874,122.50000000000011 L0.0,-245.0" stroke="#0d6d4d" stroke-width="0.1" fill="none" />
<path d="M-213.41068993156844,120.33651741234642 L51.912530138670206,-239.4370255716556" stroke="#0d6d4d" stroke-width="0.1" fill="none" />
<path d="M-214.62309645876226,118.16059608199693 L101.46760658205812,-223.00072828246252" stroke="#0d6d4d" stroke-width="0.1" fill="none" />
<path d="M-215.81331818677077,115.9724609259269 L146.41483240731299,-196.4375138590856" stroke="#0d6d4d" stroke-width="0.1" fill="none" />
<path d="M-216.9812320867566,113.77233812361014 L184.71306257042733,-160.95367195517287" stroke="#0d6d4d" stroke-width="0.1" fill="none" />
<path d="M-218.12671743576016,111.56045509363993 L214.62309645876235,-118.16059608199677" stroke="#0d6d4d" stroke-width="0.1" fill="none" />
<path d="M-219.24965582917918,109.33704047021976 L234.78665853214076,-70.001606948069" stroke="#0d6d4d" stroke-width="0.1" fill="none" />
<path d="M-220.3499311930067,107.10232407953251 L244.2880803807785,-18.663702308874907" stroke="#0d6d4d" stroke-width="0.1" fill="none" />
<path d="M-221.42742979583005,104.85653691598229 L242.69588309221126,33.52175905425798" stroke="#0d6d4d" stroke-width="0.1" fill="none" />
<path d="M-222.48204026058605,102.59991111831906 L230.08237158726496,84.18492908341568" stroke="#0d6d4d" stroke-width="0.1" fill="none" />
<path d="M-223.51365357607457,100.33267994564147 L207.02035110637755,131.02509006977314" stroke="#0d6d4d" stroke-width="0.1" fill="none" />
<path d="M-224.52216310822553,98.05507775328813 L174.5571149573133,171.91513492935783" stroke="#0d6d4d" stroke-width="0.1" fill="none" />
<path d="M-225.50746461112237,95.76733996861037 L134.16688479361147,204.9981634668413" stroke="#0d6d4d" stroke-width="0.1" fill="none" />
<path d="M-226.46945623777674,93.46970306663935 L87.68386320756274,228.7718079943362" stroke="#0d6d4d" stroke-width="0.1" fill="none" />
<path d="M-227.40803855065664,91.16240454564078 L37.21893885578249,242.15645890714856" stroke="#0d6d4d" stroke-width="0.1" fill="none" />
<path d="M-228.3231145319644,88.84568290256694 L-14.936173292771988,244.54429195417399" stroke="#0d6d4d" stroke-width="0.1" fill="none" />
<path d="M-229.21458959366535,86.5197776084033 L-66.41300339981606,235.82687077476143" stroke="#0d6d4d" stroke-width="0.1" fill="none" />
<path d="M-230.082371587265,84.18492908341557 L-114.87388379565422,216.40007121464294" stroke="#0d6d4d" stroke-width="0.1" fill="none" />
<path d="M-230.926370813334,81.8413786722985 L-158.11810722790202,187.1461037977165" stroke="#0d6d4d" stroke-width="0.1" fill="none" />
<path d="M-231.74650003078034,79.48936861922816 L-194.18186545878615,149.39345074984337" stroke="#0d6d4d" stroke-width="0.1" fill="none" />
<path d="M-232.54267446586653,77.12914204282342 L-221.42742979583005,104.85653691598229" stroke="#0d6d4d" stroke-width="0.1" fill="none" />
<path d="M-233.3148118209731,74.76094291101414 L-238.6175236864394,55.557874237155026" stroke="#0d6d4d" stroke-width="0.1" fill="none" />
<path d="M-234.06283228310468,72.38501601582472 L-244.97150996543627,3.7362153650667893" stroke="#0d6d4d" stroke-width="0.1" fill="none" />
<path d="M-234.78665853214076,70.00160694806891 L-240.20084117822387,-48.25511265424289" stroke="#0d6d4d" stroke-width="0.1" fill="none" />
<path d="M-235.486215748827,67.61096207196658 L-224.52216310822556,-98.05507775328806" stroke="#0d6d4d" stroke-width="0.1" fill="none" />
<path d="M-236.16143162251,65.21332849967503 L-198.64747645073635,-143.4021621167343" stroke="#0d6d4d" stroke-width="0.1" fill="none" />
<path d="M-236.81223635861122,62.808954065748104 L-163.75180341160964,-182.23706231018306" stroke="#0d6d4d" stroke-width="0.1" fill="none" />
<path d="M-237.4385626858414,60.39808730151778 L-121.41982755636829,-212.7962064421774" stroke="#0d6d4d" stroke-width="0.1" fill="none" />
<path d="M-238.04034586315453,57.980977409403636 L-73.57393010284055,-233.69184155468997" stroke="#0d6d4d" stroke-width="0.1" fill="none" />
<path d="M-238.6175236864394,55.557874237155026 L-22.386890675803407,-243.97505431061927" stroke="#0d6d4d" stroke-width="0.1" fill="none" />
<path d="M-239.17003649494976,53.129028252024405 L29.816783039883763,-243.17886308055742" stroke="#0d6d4d" stroke-width="0.1" fill="none" />
<path d="M-239.697827177471,50.69469051487785 L80.66641592629449,-231.33942452942617" stroke="#0d6d4d" stroke-width="0.1" fill="none" />
<path d="M-240.20084117822387,48.25511265424299 L127.85282261658953,-208.99439166870218" stroke="#0d6d4d" stroke-width="0.1" fill="none" />
<path d="M-240.67902650250318,45.810546840300574 L169.2331723043724,-177.15849793842403" stroke="#0d6d4d" stroke-width="0.1" fill="none" />
<path d="M-241.1323337220529,43.36124575881687 L202.92829905373222,-137.27747609553074" stroke="#0d6d4d" stroke-width="0.1" fill="none" />
<path d="M-241.56071598017485,40.90746258502595 L227.40803855065664,-91.16240454564071" stroke="#0d6d4d" stroke-width="0.1" fill="none" />
<path d="M-241.96412899657247,38.449450957459035 L241.56071598017485,-40.90746258502591" stroke="#0d6d4d" stroke-width="0.1" fill="none" />
<path d="M-242.34253107192765,35.98746495172707 L244.74362944324182,11.20517054529464" stroke="#0d6d4d" stroke-width="0.1" fill="none" />
<path d="M-242.69588309221123,33.521759054258034 L236.81223635861122,62.80895406574815" stroke="#0d6d4d" stroke-width="0.1" fill="none" />
<path d="M-243.02414853272612,31.05258813599079 L218.12671743576018,111.56045509363987" stroke="#0d6d4d" stroke-width="0.1" fill="none" />
<path d="M-243.32729346188236,28.58020742603147 L189.53562013549003,155.24576870193673" stroke="#0d6d4d" stroke-width="0.1" fill="none" />
<path d="M-243.60528654470494,26.104872485269734 L152.33732440196172,191.88105584984538" stroke="#0d6d4d" stroke-width="0.1" fill="none" />
<path d="M-243.85809904607254,23.62683917996381 L108.22108058573524,219.80263355304868" stroke="#0d6d4d" stroke-width="0.1" fill="none" />
<path d="M-244.0857048336878,21.146363655291736 L59.19029714578429,237.74252611553064" stroke="#0d6d4d" stroke-width="0.1" fill="none" />
<path d="M-244.2880803807785,18.663702308874992 L7.471561792134647,244.88604648772113" stroke="#0d6d4d" stroke-width="0.1" fill="none" />
<path d="M-244.4652047685296,16.179111764274747 L-44.586472395714615,240.90879286424183" stroke="#0d6d4d" stroke-width="0.1" fill="none" />
<path d="M-244.61705968824532,13.692848844467152 L-94.61974408733964,225.99138043041899" stroke="#0d6d4d" stroke-width="0.1" fill="none" />
<path d="M-244.74362944324182,11.205170545294756 L-140.35614053999058,200.81123925895784" stroke="#0d6d4d" stroke-width="0.1" fill="none" />
<path d="M-244.84490095046954,8.716334008903308 L-179.71867886459978,166.51185083099296" stroke="#0d6d4d" stroke-width="0.1" fill="none" />
<path d="M-244.9208637418657,6.226596497161068 L-210.91982604782464,124.65082021372899" stroke="#0d6d4d" stroke-width="0.1" fill="none" />
<path d="M-244.97150996543627,3.7362153650667893 L-232.54267446586653,77.12914204282342" stroke="#0d6d4d" stroke-width="0.1" fill="none" />
<path d="M-244.9968343860676,1.2454480341481127 L-243.60528654470494,26.104872485269734" stroke="#0d6d4d" stroke-width="0.1" fill="none" />
<path d="M-244.9968343860676,-1.2454480341480225 L-243.60528654470494,-26.104872485269645" stroke="#0d6d4d" stroke-width="0.1" fill="none" />
<path d="M-244.97150996543627,-3.736215365066699 L-232.54267446586655,-77.12914204282333" stroke="#0d6d4d" stroke-width="0.1" fill="none" />
<path d="M-244.9208637418657,-6.226596497160978 L-210.9198260478247,-124.6508202137289" stroke="#0d6d4d" stroke-width="0.1" fill="none" />
<path d="M-244.84490095046954,-8.71633400890322 L-179.71867886459992,-166.51185083099284" stroke="#0d6d4d" stroke-width="0.1" fill="none" />
<path d="M-244.74362944324182,-11.205170545294667 L-140.35614053999058,-200.81123925895784" stroke="#0d6d4d" stroke-width="0.1" fill="none" />
<path d="M-244.61705968824535,-13.692848844466848 L-94.61974408733973,-225.99138043041896" stroke="#0d6d4d" stroke-width="0.1" fill="none" />
<path d="M-244.4652047685296,-16.179111764274662 L-44.5864723957147,-240.9087928642418" stroke="#0d6d4d" stroke-width="0.1" fill="none" />
<path d="M-244.2880803807785,-18.663702308874903 L7.47156179213464,-244.88604648772113" stroke="#0d6d4d" stroke-width="0.1" fill="none" />
<path d="M-244.0857048336878,-21.146363655291648 L59.190297145784335,-237.7425261155306" stroke="#0d6d4d" stroke-width="0.1" fill="none" />
<path d="M-243.85809904607254,-23.62683917996372 L108.22108058573524,-219.80263355304868" stroke="#0d6d4d" stroke-width="0.1" fill="none" />
<path d="M-243.60528654470494,-26.104872485269645 L152.3373244019617,-191.8810558498454" stroke="#0d6d4d" stroke-width="0.1" fill="none" />
<path d="M-243.32729346188236,-28.580207426031386 L189.53562013548998,-155.24576870193675" stroke="#0d6d4d" stroke-width="0.1" fill="none" />
<path d="M-243.02414853272612,-31.0525881359907 L218.12671743576016,-111.56045509363994" stroke="#0d6d4d" stroke-width="0.1" fill="none" />
<path d="M-242.69588309221126,-33.52175905425794 L236.81223635861122,-62.80895406574818" stroke="#0d6d4d" stroke-width="0.1" fill="none" />
<path d="M-242.34253107192765,-35.98746495172698 L244.74362944324182,-11.205170545294672" stroke="#0d6d4d" stroke-width="0.1" fill="none" />
<path d="M-241.96412899657247,-38.449450957458936 L241.56071598017485,40.90746258502588" stroke="#0d6d4d" stroke-width="0.1" fill="none" />
<path d="M-241.56071598017488,-40.907462585025854 L227.40803855065667,91.16240454564068" stroke="#0d6d4d" stroke-width="0.1" fill="none" />
<path d="M-241.1323337220529,-43.36124575881677 L202.92829905373227,137.27747609553072" stroke="#0d6d4d" stroke-width="0.1" fill="none" />
<path d="M-240.6790265025032,-45.81054684030048 L169.2331723043724,177.15849793842403" stroke="#0d6d4d" stroke-width="0.1" fill="none" />
<path d="M-240.20084117822387,-48.25511265424289 L127.85282261658956,208.99439166870215" stroke="#0d6d4d" stroke-width="0.1" fill="none" />
<path d="M-239.69782717747103,-50.69469051487775 L80.66641592629448,231.33942452942617" stroke="#0d6d4d" stroke-width="0.1" fill="none" />
<path d="M-239.17003649494976,-53.12902825202431 L29.816783039883813,243.17886308055742" stroke="#0d6d4d" stroke-width="0.1" fill="none" />
<path d="M-238.61752368643943,-55.557874237154934 L-22.386890675803425,243.97505431061927" stroke="#0d6d4d" stroke-width="0.1" fill="none" />
<path d="M-238.04034586315456,-57.98097740940354 L-73.57393010284036,233.69184155469006" stroke="#0d6d4d" stroke-width="0.1" fill="none" />
<path d="M-237.43856268584142,-60.3980873015177 L-121.41982755636822,212.79620644217744" stroke="#0d6d4d" stroke-width="0.1" fill="none" />
<path d="M-236.81223635861124,-62.80895406574803 L-163.75180341160967,182.23706231018306" stroke="#0d6d4d" stroke-width="0.1" fill="none" />
<path d="M-236.16143162251004,-65.21332849967494 L-198.6474764507363,143.4021621167344" stroke="#0d6d4d" stroke-width="0.1" fill="none" />
<path d="M-235.48621574882702,-67.61096207196651 L-224.52216310822553,98.05507775328813" stroke="#0d6d4d" stroke-width="0.1" fill="none" />
<path d="M-234.7866585321408,-70.00160694806883 L-240.20084117822387,48.25511265424299" stroke="#0d6d4d" stroke-width="0.1" fill="none" />
<path d="M-234.0628322831047,-72.38501601582463 L-244.97150996543627,-3.736215365066699" stroke="#0d6d4d" stroke-width="0.1" fill="none" />
<path d="M-233.31481182097312,-74.76094291101407 L-238.61752368643943,-55.557874237154934" stroke="#0d6d4d" stroke-width="0.1" fill="none" />
<path d="M-232.54267446586655,-77.12914204282333 L-221.4274297958301,-104.85653691598222" stroke="#0d6d4d" stroke-width="0.1" fill="none" />
<path d="M-231.74650003078034,-79.48936861922807 L-194.1818654587862,-149.39345074984328" stroke="#0d6d4d" stroke-width="0.1" fill="none" />
<path d="M-230.92637081333405,-81.84137867229845 L-158.11810722790216,-187.1461037977164" stroke="#0d6d4d" stroke-width="0.1" fill="none" />
<path d="M-230.08237158726502,-84.18492908341551 L-114.8738837956542,-216.40007121464294" stroke="#0d6d4d" stroke-width="0.1" fill="none" />
<path d="M-229.2145895936653,-86.51977760840343 L-66.41300339981615,-235.8268707747614" stroke="#0d6d4d" stroke-width="0.1" fill="none" />
<path d="M-228.32311453196442,-88.84568290256686 L-14.936173292771969,-244.54429195417399" stroke="#0d6d4d" stroke-width="0.1" fill="none" />
<path d="M-227.40803855065664,-91.16240454564071 L37.21893885578247,-242.15645890714856" stroke="#0d6d4d" stroke-width="0.1" fill="none" />
<path d="M-226.46945623777677,-93.46970306663927 L87.68386320756275,-228.7718079943362" stroke="#0d6d4d" stroke-width="0.1" fill="none" />
<path d="M-225.5074646111224,-95.76733996861029 L134.16688479361144,-204.9981634668413" stroke="#0d6d4d" stroke-width="0.1" fill="none" />
<path d="M-224.52216310822556,-98.05507775328806 L174.5571149573133,-171.91513492935783" stroke="#0d6d4d" stroke-width="0.1" fill="none" />
<path d="M-223.51365357607452,-100.3326799456416 L207.02035110637752,-131.0250900697732" stroke="#0d6d4d" stroke-width="0.1" fill="none" />
<path d="M-222.48204026058607,-102.599911118319 L230.08237158726496,-84.18492908341571" stroke="#0d6d4d" stroke-width="0.1" fill="none" />
<path d="M-221.4274297958301,-104.85653691598222 L242.69588309221123,-33.521759054258006" stroke="#0d6d4d" stroke-width="0.1" fill="none" />
<path d="M-220.34993119300674,-107.10232407953244 L244.2880803807785,18.66370230887488" stroke="#0d6d4d" stroke-width="0.1" fill="none" />
<path d="M-219.24965582917923,-109.33704047021969 L234.78665853214076,70.00160694806897" stroke="#0d6d4d" stroke-width="0.1" fill="none" />
<path d="M-218.1267174357602,-111.56045509363985 L214.6230964587624,118.16059608199667" stroke="#0d6d4d" stroke-width="0.1" fill="none" />
<path d="M-216.98123208675662,-113.77233812361007 L184.71306257042738,160.95367195517284" stroke="#0d6d4d" stroke-width="0.1" fill="none" />
<path d="M-215.8133181867708,-115.97246092592682 L146.41483240731304,196.43751385908556" stroke="#0d6d4d" stroke-width="0.1" fill="none" />
<path d="M-214.62309645876232,-118.16059608199684 L101.46760658205815,223.0007282824625" stroke="#0d6d4d" stroke-width="0.1" fill="none" />
<path d="M-213.4106899315685,-120.33651741234634 L51.91253013867018,239.43702557165562" stroke="#0d6d4d" stroke-width="0.1" fill="none" />
<path d="M-212.17622392718746,-122.5 L3.0003846579110155e-14,245.0" stroke="#0d6d4d" stroke-width="0.1" fill="none" />
<path d="M-210.9198260478247,-124.6508202137289 L-51.91253013867013,239.43702557165562" stroke="#0d6d4d" stroke-width="0.1" fill="none" />
<path d="M-209.6416261627024,-126.78875573116777 L-101.4676065820581,223.00072828246252" stroke="#0d6d4d" stroke-width="0.1" fill="none" />
<path d="M-208.34175639463618,-128.91358556179432 L-146.41483240731293,196.43751385908567" stroke="#0d6d4d" stroke-width="0.1" fill="none" />
<path d="M-207.0203511063775,-131.02509006977323 L-184.71306257042733,160.9536719551729" stroke="#0d6d4d" stroke-width="0.1" fill="none" />
<path d="M-205.67754688672537,-133.1230509966583 L-214.62309645876226,118.16059608199693" stroke="#0d6d4d" stroke-width="0.1" fill="none" />
<path d="M-204.3134825364072,-135.20725148395414 L-234.78665853214076,70.00160694806891" stroke="#0d6d4d" stroke-width="0.1" fill="none" />
<path d="M-202.92829905373233,-137.27747609553057 L-244.2880803807785,18.663702308874992" stroke="#0d6d4d" stroke-width="0.1" fill="none" />
<path d="M-201.52213962001653,-139.3335108398929 L-242.69588309221126,-33.52175905425794" stroke="#0d6d4d" stroke-width="0.1" fill="none" />
<path d="M-200.09514958478272,-141.37514319230033 L-230.08237158726502,-84.18492908341551" stroke="#0d6d4d" stroke-width="0.1" fill="none" />
<path d="M-198.64747645073635,-143.4021621167343 L-207.0203511063775,-131.02509006977323" stroke="#0d6d4d" stroke-width="0.1" fill="none" />
<path d="M-197.17926985851858,-145.41435808771263 L-174.5571149573134,-171.91513492935778" stroke="#0d6d4d" stroke-width="0.1" fill="none" />
<path d="M-195.69068157123863,-147.411523111947 L-134.1668847936115,-204.99816346684128" stroke="#0d6d4d" stroke-width="0.1" fill="none" />
<path d="M-194.1818654587862,-149.39345074984328 L-87.68386320756295,-228.77180799433611" stroke="#0d6d4d" stroke-width="0.1" fill="none" />
<path d="M-192.6529774819273,-151.35993613683914 L-37.21893885578241,-242.15645890714856" stroke="#0d6d4d" stroke-width="0.1" fill="none" />
<path d="M-191.104175676182,-153.31077600458156 L14.936173292771956,-244.54429195417399" stroke="#0d6d4d" stroke-width="0.1" fill="none" />
<path d="M-189.53562013549003,-155.2457687019367 L66.41300339981608,-235.82687077476143" stroke="#0d6d4d" stroke-width="0.1" fill="none" />
<path d="M-187.94747299566188,-157.16471421583455 L114.87388379565428,-216.4000712146429" stroke="#0d6d4d" stroke-width="0.1" fill="none" />
<path d="M-186.33989841761954,-159.06741419194327 L158.11810722790204,-187.14610379771648" stroke="#0d6d4d" stroke-width="0.1" fill="none" />
<path d="M-184.71306257042738,-160.9536719551728 L194.1818654587862,-149.39345074984328" stroke="#0d6d4d" stroke-width="0.1" fill="none" />
<path d="M-183.0671336141166,-162.82329253000373 L221.42742979583008,-104.85653691598226" stroke="#0d6d4d" stroke-width="0.1" fill="none" />
<path d="M-181.402281682303,-164.67608266064138 L238.6175236864394,-55.55787423715505" stroke="#0d6d4d" stroke-width="0.1" fill="none" />
<path d="M-179.71867886459992,-166.51185083099284 L244.97150996543627,-3.736215365066868" stroke="#0d6d4d" stroke-width="0.1" fill="none" />
<path d="M-178.0164991888314,-168.3304072844618 L240.20084117822387,48.25511265424293" stroke="#0d6d4d" stroke-width="0.1" fill="none" />
<path d="M-176.29591860304265,-170.1315640435641 L224.52216310822556,98.05507775328803" stroke="#0d6d4d" stroke-width="0.1" fill="none" />
<path d="M-174.5571149573134,-171.91513492935778 L198.64747645073638,143.40216211673425" stroke="#0d6d4d" stroke-width="0.1" fill="none" />
<path d="M-172.80026798537344,-173.68093558068807 L163.7518034116097,182.237062310183" stroke="#0d6d4d" stroke-width="0.1" fill="none" />
<path d="M-171.02555928602547,-175.4287834732436 L121.41982755636826,212.7962064421774" stroke="#0d6d4d" stroke-width="0.1" fill="none" />
<path d="M-169.23317230437252,-177.15849793842392 L73.57393010284052,233.69184155469" stroke="#0d6d4d" stroke-width="0.1" fill="none" />
<path d="M-167.423292312857,-178.86990018201396 L22.386890675803482,243.97505431061927" stroke="#0d6d4d" stroke-width="0.1" fill="none" />
<path d="M-165.5961063921092,-180.56281330266552 L-29.81678303988375,243.17886308055742" stroke="#0d6d4d" stroke-width="0.1" fill="none" />
<path d="M-163.75180341160964,-182.23706231018306 L-80.66641592629442,231.3394245294262" stroke="#0d6d4d" stroke-width="0.1" fill="none" />
<path d="M-161.89057401016635,-183.89247414361157 L-127.85282261658962,208.99439166870212" stroke="#0d6d4d" stroke-width="0.1" fill="none" />
<path d="M-160.01261057620871,-185.52887768912572 L-169.23317230437237,177.1584979384241" stroke="#0d6d4d" stroke-width="0.1" fill="none" />
<path d="M-158.11810722790216,-187.1461037977164 L-202.9282990537322,137.27747609553083" stroke="#0d6d4d" stroke-width="0.1" fill="none" />
<path d="M-156.2072597930814,-188.743985302676 L-227.40803855065664,91.16240454564078" stroke="#0d6d4d" stroke-width="0.1" fill="none" />
<path d="M-154.28026578900972,-190.32235703687707 L-241.56071598017485,40.90746258502595" stroke="#0d6d4d" stroke-width="0.1" fill="none" />
<path d="M-152.33732440196167,-191.8810558498454 L-244.74362944324182,-11.205170545294667" stroke="#0d6d4d" stroke-width="0.1" fill="none" />
<path d="M-150.37863646663416,-193.4199206246241 L-236.81223635861124,-62.80895406574803" stroke="#0d6d4d" stroke-width="0.1" fill="none" />
<path d="M-148.4044044453864,-194.93879229442808 L-218.1267174357602,-111.56045509363985" stroke="#0d6d4d" stroke-width="0.1" fill="none" />
<path d="M-146.41483240731299,-196.4375138590856 L-189.53562013549003,-155.2457687019367" stroke="#0d6d4d" stroke-width="0.1" fill="none" />
<path d="M-144.41012600714956,-197.91593040126708 L-152.33732440196167,-191.8810558498454" stroke="#0d6d4d" stroke-width="0.1" fill="none" />
<path d="M-142.39049246401447,-199.37388910249865 L-108.22108058573535,-219.80263355304862" stroke="#0d6d4d" stroke-width="0.1" fill="none" />
<path d="M-140.35614053999058,-200.81123925895784 L-59.19029714578443,-237.74252611553058" stroke="#0d6d4d" stroke-width="0.1" fill="none" />
<path d="M-138.30728051854516,-202.2278322970517 L-7.471561792134678,-244.88604648772113" stroke="#0d6d4d" stroke-width="0.1" fill="none" />
<path d="M-136.24412418279448,-203.6235217887739 L44.58647239571457,-240.90879286424183" stroke="#0d6d4d" stroke-width="0.1" fill="none" />
<path d="M-134.1668847936115,-204.99816346684128 L94.61974408733975,-225.99138043041893" stroke="#0d6d4d" stroke-width="0.1" fill="none" />
<path d="M-132.07577706758335,-206.3516152396051 L140.35614053999055,-200.81123925895787" stroke="#0d6d4d" stroke-width="0.1" fill="none" />
<path d="M-129.97101715481534,-207.68373720573956 L179.71867886459984,-166.5118508309929" stroke="#0d6d4d" stroke-width="0.1" fill="none" />
<path d="M-127.85282261658959,-208.99439166870212 L210.91982604782459,-124.65082021372908" stroke="#0d6d4d" stroke-width="0.1" fill="none" />
<path d="M-125.7214124028758,-210.28344315096714 L232.54267446586655,-77.12914204282333" stroke="#0d6d4d" stroke-width="0.1" fill="none" />
<path d="M-123.57700682969934,-211.55075840802945 L243.60528654470494,-26.10487248526965" stroke="#0d6d4d" stroke-width="0.1" fill="none" />
<path d="M-121.41982755636829,-212.7962064421774 L243.60528654470497,26.10487248526962" stroke="#0d6d4d" stroke-width="0.1" fill="none" />
<path d="M-119.2500975625605,-214.019658516034 L232.54267446586658,77.12914204282326" stroke="#0d6d4d" stroke-width="0.1" fill="none" />
<path d="M-117.06804112527631,-215.22098816586316 L210.91982604782467,124.65082021372893" stroke="#0d6d4d" stroke-width="0.1" fill="none" />
<path d="M-114.8738837956542,-216.40007121464294 L179.7186788645999,166.51185083099284" stroke="#0d6d4d" stroke-width="0.1" fill="none" />
<path d="M-112.66785237565867,-217.5567857848998 L140.3561405399906,200.81123925895778" stroke="#0d6d4d" stroke-width="0.1" fill="none" />
<path d="M-110.45017489463386,-218.6910123113083 L94.61974408733978,225.9913804304189" stroke="#0d6d4d" stroke-width="0.1" fill="none" />
<path d="M-108.22108058573535,-219.80263355304862 L44.58647239571467,240.9087928642418" stroke="#0d6d4d" stroke-width="0.1" fill="none" />
<path d="M-105.98079986223337,-220.89153460592652 L-7.471561792134588,244.88604648772113" stroke="#0d6d4d" stroke-width="0.1" fill="none" />
<path d="M-103.72956429369745,-221.95760291424955 L-59.19029714578434,237.7425261155306" stroke="#0d6d4d" stroke-width="0.1" fill="none" />
<path d="M-101.46760658205808,-223.00072828246255 L-108.22108058573527,219.80263355304865" stroke="#0d6d4d" stroke-width="0.1" fill="none" />
<path d="M-99.19516053755542,-224.02080288653687 L-152.3373244019617,191.8810558498454" stroke="#0d6d4d" stroke-width="0.1" fill="none" />
<path d="M-96.9124610545694,-225.01772128511695 L-189.53562013548998,155.24576870193678" stroke="#0d6d4d" stroke-width="0.1" fill="none" />
<path d="M-94.61974408733973,-225.99138043041896 L-218.12671743576016,111.56045509363993" stroke="#0d6d4d" stroke-width="0.1" fill="none" />
<path d="M-92.3172466255773,-226.94167967888214 L-236.81223635861122,62.808954065748104" stroke="#0d6d4d" stroke-width="0.1" fill="none" />
<path d="M-90.00520666996601,-227.86852080157254 L-244.74362944324182,11.205170545294756" stroke="#0d6d4d" stroke-width="0.1" fill="none" />
<path d="M-87.68386320756295,-228.77180799433611 L-241.56071598017488,-40.907462585025854" stroke="#0d6d4d" stroke-width="0.1" fill="none" />
<path d="M-85.35345618709347,-229.651447887702 L-227.40803855065664,-91.16240454564071" stroke="#0d6d4d" stroke-width="0.1" fill="none" />
<path d="M-83.01422649415095,-230.50734955653326 L-202.92829905373233,-137.27747609553057" stroke="#0d6d4d" stroke-width="0.1" fill="none" />
<path d="M-80.6664159262945,-231.33942452942617 L-169.23317230437252,-177.15849793842392" stroke="#0d6d4d" stroke-width="0.1" fill="none" />
<path d="M-78.31026716805772,-232.1475867978546 L-127.85282261658959,-208.99439166870212" stroke="#0d6d4d" stroke-width="0.1" fill="none" />
<path d="M-75.94602376586143,-232.93175282506078 L-80.6664159262945,-231.33942452942617" stroke="#0d6d4d" stroke-width="0.1" fill="none" />
<path d="M-73.57393010284055,-233.69184155468997 L-29.81678303988395,-243.17886308055742" stroke="#0d6d4d" stroke-width="0.1" fill="none" />
<path d="M-71.19423137358241,-234.42777441916905 L22.386890675803418,-243.97505431061927" stroke="#0d6d4d" stroke-width="0.1" fill="none" />
<path d="M-68.80717355878201,-235.13947534782767 L73.5739301028405,-233.69184155469" stroke="#0d6d4d" stroke-width="0.1" fill="none" />
<path d="M-66.41300339981615,-235.8268707747614 L121.41982755636819,-212.79620644217746" stroke="#0d6d4d" stroke-width="0.1" fill="none" />
<path d="M-64.01196837323779,-236.48988964643627 L163.7518034116097,-182.237062310183" stroke="#0d6d4d" stroke-width="0.1" fill="none" />
<path d="M-61.60431666519687,-237.12846342903282 L198.64747645073632,-143.40216211673433" stroke="#0d6d4d" stroke-width="0.1" fill="none" />
<path d="M-59.19029714578443,-237.74252611553058 L224.52216310822553,-98.05507775328812" stroke="#0d6d4d" stroke-width="0.1" fill="none" />
<path d="M-56.770159343309395,-238.3320142325308 L240.20084117822384,-48.255112654243014" stroke="#0d6d4d" stroke-width="0.1" fill="none" />
<path d="M-54.34415341850485,-238.8968668468174 L244.97150996543627,3.736215365066838" stroke="#0d6d4d" stroke-width="0.1" fill="none" />
<path d="M-51.91253013867032,-239.4370255716556 L238.6175236864394,55.55787423715507" stroke="#0d6d4d" stroke-width="0.1" fill="none" />
<path d="M-49.475540851749955,-239.952434572827 L221.42742979583008,104.85653691598223" stroke="#0d6d4d" stroke-width="0.1" fill="none" />
<path d="M-47.033437460352964,-240.44304057440104 L194.1818654587862,149.39345074984328" stroke="#0d6d4d" stroke-width="0.1" fill="none" />
<path d="M-44.5864723957147,-240.9087928642418 L158.11810722790207,187.14610379771648" stroke="#0d6d4d" stroke-width="0.1" fill="none" />
<path d="M-42.13489859160314,-241.34964329925023 L114.87388379565436,216.40007121464285" stroke="#0d6d4d" stroke-width="0.1" fill="none" />
<path d="M-39.67896945817532,-241.76554631034008 L66.41300339981612,235.8268707747614" stroke="#0d6d4d" stroke-width="0.1" fill="none" />
<path d="M-37.21893885578241,-242.15645890714856 L14.936173292772049,244.54429195417399" stroke="#0d6d4d" stroke-width="0.1" fill="none" />
<path d="M-34.755061068729574,-242.52234068247995 L-37.21893885578243,242.15645890714856" stroke="#0d6d4d" stroke-width="0.1" fill="none" />
<path d="M-32.287590778990605,-242.86315381648248 L-87.68386320756277,228.7718079943362" stroke="#0d6d4d" stroke-width="0.1" fill="none" />
<path d="M-29.81678303988395,-243.17886308055742 L-134.16688479361142,204.99816346684133" stroke="#0d6d4d" stroke-width="0.1" fill="none" />
<path d="M-27.342893249707043,-243.46943584100063 L-174.5571149573133,171.91513492935783" stroke="#0d6d4d" stroke-width="0.1" fill="none" />
<path d="M-24.86617712533823,-243.73484206237586 L-207.02035110637743,131.0250900697733" stroke="#0d6d4d" stroke-width="0.1" fill="none" />
<path d="M-22.386890675803407,-243.97505431061927 L-230.082371587265,84.18492908341557" stroke="#0d6d4d" stroke-width="0.1" fill="none" />
<path d="M-19.905290175813512,-244.1900477558753 L-242.69588309221123,33.521759054258034" stroke="#0d6d4d" stroke-width="0.1" fill="none" />
<path d="M-17.421632139274582,-244.37980017506314 L-244.2880803807785,-18.663702308874903" stroke="#0d6d4d" stroke-width="0.1" fill="none" />
<path d="M-14.936173292771969,-244.54429195417399 L-234.7866585321408,-70.00160694806883" stroke="#0d6d4d" stroke-width="0.1" fill="none" />
<path d="M-12.449170549034998,-244.6835060902983 L-214.62309645876232,-118.16059608199684" stroke="#0d6d4d" stroke-width="0.1" fill="none" />
<path d="M-9.96088098037909,-244.79742819338344 L-184.71306257042738,-160.9536719551728" stroke="#0d6d4d" stroke-width="0.1" fill="none" />
<path d="M-7.471561792134678,-244.88604648772113 L-146.41483240731299,-196.4375138590856" stroke="#0d6d4d" stroke-width="0.1" fill="none" />
<path d="M-4.981470296059957,-244.94935181316458 L-101.46760658205808,-223.00072828246255" stroke="#0d6d4d" stroke-width="0.1" fill="none" />
<path d="M-2.4908638837439585,-244.9873376260754 L-51.91253013867032,-239.4370255716556" stroke="#0d6d4d" stroke-width="0.1" fill="none" />
</svg>