<?xml version="1.0" encoding="UTF-8"?>
<svg xmlns="http://www.w3.org/2000/svg" xmlns:xlink="http://www.w3.org/1999/xlink"
     width="500.0" height="500" viewBox="-250.0 -250.0 500 500">
<defs>
</defs>
<circle cx="0" cy="0" r="245.0" fill="white" stroke-width="2" stroke="black" />
<path d="M0.0,-245.0 L0.0,-245.0" stroke="#0d6d4d" stroke-width="0.1" fill="none" />
<path d="M2.2670963639473944,-244.98951053887302 L47.310626135661536,-240.38865334006857" stroke="#0d6d4d" stroke-width="0.1" fill="none" />
<path d="M4.533998600391274,-244.95804305368634 L92.84030779940514,-226.72820126246253" stroke="#0d6d4d" stroke-width="0.1" fill="none" />
<path d="M6.8005125984509185,-244.90560023894577 L134.87514176292188,-204.5328729921714" stroke="#0d6d4d" stroke-width="0.1" fill="none" />
<path d="M9.066444280489788,-244.83218658523796 L171.83278360826526,-174.6381816139732" stroke="#0d6d4d" stroke-width="0.1" fill="none" />
<path d="M11.331599618734046,-244.73780837884593 L202.32201294129283,-138.1694723134721" stroke="#0d6d4d" stroke-width="0.1" fill="none" />
<path d="M13.595784651886817,-244.6224737012107 L225.19510399997398,-96.49956028107535" stroke="#0d6d4d" stroke-width="0.1" fill="none" />
<path d="M15.858805501736757,-244.48619242823935 L239.5910302369148,-51.19705294266237" stroke="#0d6d4d" stroke-width="0.1" fill="none" />
<path d="M18.12046838975951,-244.32897622945936 L244.9678764980799,-3.9673018566128837" stroke="#0d6d4d" stroke-width="0.1" fill="none" />
<path d="M20.380579653710612,-244.15083856701938 L241.1232386851232,43.41179293690956" stroke="#0d6d4d" stroke-width="0.1" fill="none" />
<path d="M22.63894576420846,-243.95179469453637 L228.20184298365635,89.15670955605444" stroke="#0d6d4d" stroke-width="0.1" fill="none" />
<path d="M24.89537334130591,-243.73186165578966 L206.6900978419211,131.54544254400102" stroke="#0d6d4d" stroke-width="0.1" fill="none" />
<path d="M27.149669171049034,-243.49105828326137 L177.39778378325326,168.98232543313554" stroke="#0d6d4d" stroke-width="0.1" fill="none" />
<path d="M29.40164022202171,-243.22940519652389 L141.42757031455972,200.0580974490167" stroke="#0d6d4d" stroke-width="0.1" fill="none" />
<path d="M31.651093661874565,-242.94692480047414 L100.13350742552122,223.60295322437736" stroke="#0d6d4d" stroke-width="0.1" fill="none" />
<path d="M33.89783687383686,-242.64364128341535 L55.07005420983874,238.73057853849687" stroke="#0d6d4d" stroke-width="0.1" fill="none" />
<path d="M36.14167747320996,-242.31958061498554 L7.933563357072228,244.87151441615117" stroke="#0d6d4d" stroke-width="0.1" fill="none" />
<path d="M38.382423323840875,-241.97477054393394 L-39.50157574784114,241.79459363980322" stroke="#0d6d4d" stroke-width="0.1" fill="none" />
<path d="M40.619882554574524,-241.60924059574498 L-85.44973151082115,229.6156427265542" stroke="#0d6d4d" stroke-width="0.1" fill="none" />
<path d="M42.853863575683356,-241.2230220701099 L-128.1812478126218,208.79312179571252" stroke="#0d6d4d" stroke-width="0.1" fill="none" />
<path d="M45.08417509527287,-240.81614803824678 L-166.0875545718383,180.1108664582641" stroke="#0d6d4d" stroke-width="0.1" fill="none" />
<path d="M47.310626135661536,-240.38865334006857 L-197.74172018794428,144.64858138645104" stroke="#0d6d4d" stroke-width="0.1" fill="none" />
<path d="M49.53302604973393,-239.94057458119997 L-221.95216644961948,103.74119629308505" stroke="#0d6d4d" stroke-width="0.1" fill="none" />
<path d="M51.751184537265516,-239.47195012984275 L-237.80752388335995,58.9286143097323" stroke="#0d6d4d" stroke-width="0.1" fill="none" />
<path d="M53.96491166121768,-238.98282011349053 L-244.71093902349975,11.897744418039753" stroke="#0d6d4d" stroke-width="0.1" fill="none" />
<path d="M56.17401786400175,-238.47322641549263 L-242.40254215290724,-35.580999955144975" stroke="#0d6d4d" stroke-width="0.1" fill="none" />
<path d="M58.37831398371048,-237.94321267146773 L-230.96922974667635,-81.72034575445113" stroke="#0d6d4d" stroke-width="0.1" fill="none" />
<path d="M60.57761127031559,-237.39282426556733 L-210.84139337196174,-124.78343977054682" stroke="#0d6d4d" stroke-width="0.1" fill="none" />
<path d="M62.771721401830234,-236.82210832658976 L-182.77671818009523,-163.14923012786195" stroke="#0d6d4d" stroke-width="0.1" fill="none" />
<path d="M64.96045650043452,-236.23111372394442 L-147.8316608748166,-195.37348858786655" stroke="#0d6d4d" stroke-width="0.1" fill="none" />
<path d="M67.14362914856326,-235.61989106346732 L-107.32168082988724,-220.24317656592183" stroke="#0d6d4d" stroke-width="0.1" fill="none" />
<path d="M69.32105240495426,-234.98849268308777 L-62.771721401830305,-236.82210832658973" stroke="#0d6d4d" stroke-width="0.1" fill="none" />
<path d="M71.49253982065557,-234.33697264834666 L-15.858805501736821,-244.48619242823935" stroke="#0d6d4d" stroke-width="0.1" fill="none" />
<path d="M73.65790545499105,-233.66538674776714 L31.651093661874565,-242.94692480047414" stroke="#0d6d4d" stroke-width="0.1" fill="none" />
<path d="M75.81696389148189,-232.97379248807735 L77.96953025372373,-232.26224908928626" stroke="#0d6d4d" stroke-width="0.1" fill="none" />
<path d="M77.96953025372373,-232.26224908928626 L121.35290943404695,-212.834375446947" stroke="#0d6d4d" stroke-width="0.1" fill="none" />
<path d="M80.11542022121714,-231.53081747961284 L160.16812262586686,-185.39463987533534" stroke="#0d6d4d" stroke-width="0.1" fill="none" />
<path d="M82.25445004515066,-230.77956029026882 L192.95402367647628,-150.97597407222722" stroke="#0d6d4d" stroke-width="0.1" fill="none" />
<path d="M84.38643656413505,-230.00854185009567 L218.47643172626252,-110.87402211591206" stroke="#0d6d4d" stroke-width="0.1" fill="none" />
<path d="M86.51119721988694,-229.21782818005633 L235.7745902763374,-66.59836769790402" stroke="#0d6d4d" stroke-width="0.1" fill="none" />
<path d="M88.62855007286096,-228.40748698758185 L244.1973335662695,-19.81570788854404" stroke="#0d6d4d" stroke-width="0.1" fill="none" />
<path d="M90.73831381782905,-227.5775876607738 L243.42759882758955,27.71288741784464" stroke="#0d6d4d" stroke-width="0.1" fill="none" />
<path d="M92.84030779940514,-226.72820126246253 L233.49436168247092,74.19826859499794" stroke="#0d6d4d" stroke-width="0.1" fill="none" />
<path d="M94.93435202751445,-225.85940052412246 L214.77154539566018,117.89055640024723" stroke="#0d6d4d" stroke-width="0.1" fill="none" />
<path d="M97.02026719280576,-224.97125983964392 L187.96394503939158,157.1450138096293" stroke="#0d6d4d" stroke-width="0.1" fill="none" />
<path d="M99.09787468200524,-224.06385525896314 L154.08069643704195,190.48395991651407" stroke="#0d6d4d" stroke-width="0.1" fill="none" />
<path d="M101.1669965932109,-223.13726448155012 L114.397288611224,216.65239522885574" stroke="#0d6d4d" stroke-width="0.1" fill="none" />
<path d="M103.22745575112599,-222.19156684975542 L70.40754972628294,234.66524442605683" stroke="#0d6d4d" stroke-width="0.1" fill="none" />
<path d="M105.27907572223012,-221.2268433420161 L23.767413949388818,243.84443818582042" stroke="#0d6d4d" stroke-width="0.1" fill="none" />
<path d="M107.32168082988716,-220.24317656592186 L-23.767413949388647,243.84443818582045" stroke="#0d6d4d" stroke-width="0.1" fill="none" />
<path d="M109.35509616938789,-219.24065075114132 L-70.4075497262829,234.66524442605686" stroke="#0d6d4d" stroke-width="0.1" fill="none" />
<path d="M111.37914762292695,-218.2193517422097 L-114.39728861122384,216.65239522885582" stroke="#0d6d4d" stroke-width="0.1" fill="none" />
<path d="M113.39366187451216,-217.17936699117809 L-154.08069643704192,190.48395991651407" stroke="#0d6d4d" stroke-width="0.1" fill="none" />
<path d="M115.39846642480528,-216.12078555012494 L-187.96394503939146,157.14501380962943" stroke="#0d6d4d" stroke-width="0.1" fill="none" />
<path d="M117.3933896058929,-215.04369806353088 L-214.7715453956602,117.8905564002472" stroke="#0d6d4d" stroke-width="0.1" fill="none" />
<path d="M119.37826059598596,-213.94819676051694 L-233.49436168247087,74.1982685949981" stroke="#0d6d4d" stroke-width="0.1" fill="none" />
<path d="M121.35290943404695,-212.834375446947 L-243.42759882758955,27.71288741784459" stroke="#0d6d4d" stroke-width="0.1" fill="none" />
<path d="M123.3171670343434,-211.7023294973956 L-244.19733356626952,-19.815707888543873" stroke="#0d6d4d" stroke-width="0.1" fill="none" />
<path d="M125.27086520092645,-210.55215584698087 L-235.7745902763374,-66.59836769790407" stroke="#0d6d4d" stroke-width="0.1" fill="none" />
<path d="M127.21383664203302,-209.38395298306443 L-218.47643172626258,-110.87402211591191" stroke="#0d6d4d" stroke-width="0.1" fill="none" />
<path d="M129.14591498441084,-208.197820936818 L-192.9540236764764,-150.9759740722271" stroke="#0d6d4d" stroke-width="0.1" fill="none" />
<path d="M131.06693478756466,-206.99386127465777 L-160.16812262586694,-185.3946398753353" stroke="#0d6d4d" stroke-width="0.1" fill="none" />
<path d="M132.97673155792273,-205.77217708954763 L-121.35290943404702,-212.83437544694698" stroke="#0d6d4d" stroke-width="0.1" fill="none" />
<path d="M134.87514176292188,-204.5328729921714 L-77.9695302537238,-232.26224908928623" stroke="#0d6d4d" stroke-width="0.1" fill="none" />
<path d="M136.7620028450106,-203.27605510197532 L-31.651093661874633,-242.94692480047414" stroke="#0d6d4d" stroke-width="0.1" fill="none" />
<path d="M138.63715323556886,-202.00183103808092 L15.858805501736757,-244.48619242823935" stroke="#0d6d4d" stroke-width="0.1" fill="none" />
<path d="M140.50043236874245,-200.71030991007018 L62.771721401830234,-236.82210832658976" stroke="#0d6d4d" stroke-width="0.1" fill="none" />
<path d="M142.35168069519233,-199.40160230864245 L107.32168082988716,-220.24317656592186" stroke="#0d6d4d" stroke-width="0.1" fill="none" />
<path d="M144.1907396957564,-198.07582029614474 L147.83166087481652,-195.37348858786663" stroke="#0d6d4d" stroke-width="0.1" fill="none" />
<path d="M146.01745189502327,-196.73307739697606 L182.7767181800953,-163.14923012786187" stroke="#0d6d4d" stroke-width="0.1" fill="none" />
<path d="M147.83166087481652,-195.37348858786663 L210.8413933719617,-124.78343977054693" stroke="#0d6d4d" stroke-width="0.1" fill="none" />
<path d="M149.63321128758872,-193.99717028803238 L230.96922974667638,-81.72034575445107" stroke="#0d6d4d" stroke-width="0.1" fill="none" />
<path d="M151.4219488697233,-192.60424034920646 L242.40254215290722,-35.580999955145145" stroke="#0d6d4d" stroke-width="0.1" fill="none" />
<path d="M153.19772045474411,-191.19481804554766 L244.71093902349975,11.897744418039748" stroke="#0d6d4d" stroke-width="0.1" fill="none" />
<path d="M154.96037398643062,-189.76902406342705 L237.80752388336,58.92861430973208" stroke="#0d6d4d" stroke-width="0.1" fill="none" />
<path d="M156.70975853183833,-188.32698049109408 L221.9521664496195,103.74119629308501" stroke="#0d6d4d" stroke-width="0.1" fill="none" />
<path d="M158.44572429422288,-186.86881080822212 L197.7417201879443,144.64858138645099" stroke="#0d6d4d" stroke-width="0.1" fill="none" />
<path d="M160.16812262586686,-185.39463987533534 L166.08755457183833,180.11086645826407" stroke="#0d6d4d" stroke-width="0.1" fill="none" />
<path d="M161.87680604080825,-183.90459392311695 L128.18124781262193,208.79312179571244" stroke="#0d6d4d" stroke-width="0.1" fill="none" />
<path d="M163.5716282274695,-182.39880054160037 L85.4497315108212,229.61564272655417" stroke="#0d6d4d" stroke-width="0.1" fill="none" />
<path d="M165.25244406118563,-180.87738866924389 L39.501575747841194,241.79459363980322" stroke="#0d6d4d" stroke-width="0.1" fill="none" />
<path d="M166.91910961663146,-179.3404885818899 L-7.933563357072276,244.87151441615117" stroke="#0d6d4d" stroke-width="0.1" fill="none" />
<path d="M168.5714821801452,-177.7882318816096 L-55.07005420983868,238.73057853849687" stroke="#0d6d4d" stroke-width="0.1" fill="none" />
<path d="M170.20942026194928,-176.22075148543414 L-100.13350742552126,223.60295322437733" stroke="#0d6d4d" stroke-width="0.1" fill="none" />
<path d="M171.83278360826526,-174.6381816139732 L-141.42757031455977,200.05809744901669" stroke="#0d6d4d" stroke-width="0.1" fill="none" />
<path d="M173.44143321332416,-173.04065777992182 L-177.3977837832533,168.98232543313551" stroke="#0d6d4d" stroke-width="0.1" fill="none" />
<path d="M175.03523133126876,-171.42831677645685 L-206.69009784192113,131.54544254400102" stroke="#0d6d4d" stroke-width="0.1" fill="none" />
<path d="M176.61404148794887,-169.80129666552335 L-228.2018429836563,89.1567095560546" stroke="#0d6d4d" stroke-width="0.1" fill="none" />
<path d="M178.1777284926072,-168.1597367660129 L-241.1232386851232,43.41179293690952" stroke="#0d6d4d" stroke-width="0.1" fill="none" />
<path d="M179.72615844945565,-166.5037776418336 L-244.9678764980799,-3.9673018566127145" stroke="#0d6d4d" stroke-width="0.1" fill="none" />
<path d="M181.2591987691403,-164.8335610898742 L-239.59103023691483,-51.19705294266225" stroke="#0d6d4d" stroke-width="0.1" fill="none" />
<path d="M182.7767181800953,-163.14923012786187 L-225.19510399997404,-96.49956028107525" stroke="#0d6d4d" stroke-width="0.1" fill="none" />
<path d="M184.2785867397827,-161.45092898211635 L-202.3220129412929,-138.169472313472" stroke="#0d6d4d" stroke-width="0.1" fill="none" />
<path d="M185.76467584582002,-159.73880307519963 L-171.83278360826534,-174.63818161397307" stroke="#0d6d4d" stroke-width="0.1" fill="none" />
<path d="M187.23485824699165,-158.0129990134639 L-134.8751417629219,-204.5328729921714" stroke="#0d6d4d" stroke-width="0.1" fill="none" />
<path d="M188.68900805414532,-156.2736645744979 L-92.84030779940521,-226.72820126246248" stroke="#0d6d4d" stroke-width="0.1" fill="none" />
<path d="M190.12700075097186,-154.52094869447296 L-47.310626135661614,-240.38865334006857" stroke="#0d6d4d" stroke-width="0.1" fill="none" />
<path d="M191.54871320466728,-152.75500145538973 L0.0,-245.0" stroke="#0d6d4d" stroke-width="0.1" fill="none" />
<path d="M192.95402367647628,-150.97597407222722 L47.310626135661536,-240.38865334006857" stroke="#0d6d4d" stroke-width="0.1" fill="none" />
<path d="M194.34281183211678,-149.18401887999414 L92.84030779940514,-226.72820126246253" stroke="#0d6d4d" stroke-width="0.1" fill="none" />
<path d="M195.71495875208362,-147.3792893206851 L134.87514176292188,-204.5328729921714" stroke="#0d6d4d" stroke-width="0.1" fill="none" />
<path d="M197.07034694183167,-145.5619399301414 L171.83278360826526,-174.6381816139732" stroke="#0d6d4d" stroke-width="0.1" fill="none" />
<path d="M198.4088603418367,-143.73212632481835 L202.32201294129283,-138.1694723134721" stroke="#0d6d4d" stroke-width="0.1" fill="none" />
<path d="M199.7303843375331,-141.89000518846038 L225.19510399997398,-96.49956028107535" stroke="#0d6d4d" stroke-width="0.1" fill="none" />
<path d="M201.03480576912844,-140.03573425868416 L239.5910302369148,-51.19705294266237" stroke="#0d6d4d" stroke-width="0.1" fill="none" />
<path d="M202.32201294129283,-138.1694723134721 L244.9678764980799,-3.9673018566128837" stroke="#0d6d4d" stroke-width="0.1" fill="none" />
<path d="M203.59189563272355,-136.29137915757624 L241.1232386851232,43.41179293690956" stroke="#0d6d4d" stroke-width="0.1" fill="none" />
<path d="M204.84434510558276,-134.40161560883453 L228.20184298365635,89.15670955605444" stroke="#0d6d4d" stroke-width="0.1" fill="none" />
<path d="M206.07925411480878,-132.5003434844003 L206.6900978419211,131.54544254400102" stroke="#0d6d4d" stroke-width="0.1" fill="none" />
<path d="M207.2965169172992,-130.58772558688617 L177.39778378325326,168.98232543313554" stroke="#0d6d4d" stroke-width="0.1" fill="none" />
<path d="M208.49602928096544,-128.66392569042344 L141.42757031455972,200.0580974490167" stroke="#0d6d4d" stroke-width="0.1" fill="none" />
<path d="M209.67768849365802,-126.72910852663843 L100.13350742552122,223.60295322437736" stroke="#0d6d4d" stroke-width="0.1" fill="none" />
<path d="M210.8413933719617,-124.78343977054693 L55.07005420983874,238.73057853849687" stroke="#0d6d4d" stroke-width="0.1" fill="none" />
<path d="M211.9870442698593,-122.82708602636762 L7.933563357072228,244.87151441615117" stroke="#0d6d4d" stroke-width="0.1" fill="none" />
<path d="M213.1145430872648,-120.86021481325592 L-39.50157574784114,241.79459363980322" stroke="#0d6d4d" stroke-width="0.1" fill="none" />
<path d="M214.22379327842287,-118.88299455095982 L-85.44973151082115,229.6156427265542" stroke="#0d6d4d" stroke-width="0.1" fill="none" />
<path d="M215.3146998601763,-116.89559454539851 L-128.1812478126218,208.79312179571252" stroke="#0d6d4d" stroke-width="0.1" fill="none" />
<path d="M216.38716942009913,-114.8981849741645 L-166.0875545718383,180.1108664582641" stroke="#0d6d4d" stroke-width="0.1" fill="none" />
<path d="M217.44111012449534,-112.89093687195215 L-197.74172018794428,144.64858138645104" stroke="#0d6d4d" stroke-width="0.1" fill="none" />
<path d="M218.47643172626252,-110.87402211591206 L-221.95216644961948,103.74119629308505" stroke="#0d6d4d" stroke-width="0.1" fill="none" />
<path d="M219.49304557261948,-108.84761341093333 L-237.80752388335995,58.9286143097323" stroke="#0d6d4d" stroke-width="0.1" fill="none" />
<path d="M220.4908646126975,-106.81188427485546 L-244.71093902349975,11.897744418039753" stroke="#0d6d4d" stroke-width="0.1" fill="none" />
<path d="M221.46980340499414,-104.76700902361033 L-242.40254215290724,-35.580999955144975" stroke="#0d6d4d" stroke-width="0.1" fill="none" />
<path d="M222.42977812468985,-102.71316275629543 L-230.96922974667635,-81.72034575445113" stroke="#0d6d4d" stroke-width="0.1" fill="none" />
<path d="M223.37070657082543,-100.65052134018086 L-210.84139337196174,-124.78343977054682" stroke="#0d6d4d" stroke-width="0.1" fill="none" />
<path d="M224.29250817334076,-98.57926139564994 L-182.77671818009523,-163.14923012786195" stroke="#0d6d4d" stroke-width="0.1" fill="none" />
<path d="M225.19510399997398,-96.49956028107535 L-147.8316608748166,-195.37348858786655" stroke="#0d6d4d" stroke-width="0.1" fill="none" />
<path d="M226.07841676302036,-94.41159607763275 L-107.32168082988724,-220.24317656592183" stroke="#0d6d4d" stroke-width="0.1" fill="none" />
<path d="M226.9423708259501,-92.31554757405148 L-62.771721401830305,-236.82210832658973" stroke="#0d6d4d" stroke-width="0.1" fill="none" />
<path d="M227.7868922098852,-90.21159425130533 L-15.858805501736821,-244.48619242823935" stroke="#0d6d4d" stroke-width="0.1" fill="none" />
<path d="M228.61190859993403,-88.09991626724405 L31.651093661874565,-242.94692480047414" stroke="#0d6d4d" stroke-width="0.1" fill="none" />
<path d="M229.41734935138348,-85.98069444116666 L77.96953025372373,-232.26224908928626" stroke="#0d6d4d" stroke-width="0.1" fill="none" />
<path d="M230.20314549574826,-83.85411023833817 L121.35290943404695,-212.834375446947" stroke="#0d6d4d" stroke-width="0.1" fill="none" />
<path d="M230.96922974667638,-81.72034575445107 L160.16812262586686,-185.39463987533534" stroke="#0d6d4d" stroke-width="0.1" fill="none" />
<path d="M231.715536505711,-79.57958370003273 L192.95402367647628,-150.97597407222722" stroke="#0d6d4d" stroke-width="0.1" fill="none" />
<path d="M232.44200186790732,-77.4320073848003 L218.47643172626252,-110.87402211591206" stroke="#0d6d4d" stroke-width="0.1" fill="none" />
<path d="M233.14856362730472,-75.27780070196425 L235.7745902763374,-66.59836769790402" stroke="#0d6d4d" stroke-width="0.1" fill="none" />
<path d="M233.83516128225327,-73.11714811248176 L244.1973335662695,-19.81570788854404" stroke="#0d6d4d" stroke-width="0.1" fill="none" />
<path d="M234.50173604059458,-70.9502346292618 L243.42759882758955,27.71288741784464" stroke="#0d6d4d" stroke-width="0.1" fill="none" />
<path d="M235.14823082469584,-68.77724580132275 L233.49436168247092,74.19826859499794" stroke="#0d6d4d" stroke-width="0.1" fill="none" />
<path d="M235.7745902763374,-66.59836769790402 L214.77154539566018,117.89055640024723" stroke="#0d6d4d" stroke-width="0.1" fill="none" />
<path d="M236.38076076145296,-64.41378689253358 L187.96394503939158,157.1450138096293" stroke="#0d6d4d" stroke-width="0.1" fill="none" />
<path d="M236.96669037472225,-62.22369044705169 L154.08069643704195,190.48395991651407" stroke="#0d6d4d" stroke-width="0.1" fill="none" />
<path d="M237.5323289440154,-60.0282658955933 L114.397288611224,216.65239522885574" stroke="#0d6d4d" stroke-width="0.1" fill="none" />
<path d="M238.07762803468935,-57.82770122852977 L70.40754972628294,234.66524442605683" stroke="#0d6d4d" stroke-width="0.1" fill="none" />
<path d="M238.6025409537349,-55.622184876371584 L23.767413949388818,243.84443818582042" stroke="#0d6d4d" stroke-width="0.1" fill="none" />
<path d="M239.1070227537753,-53.411905693633294 L-23.767413949388647,243.84443818582045" stroke="#0d6d4d" stroke-width="0.1" fill="none" />
<path d="M239.5910302369148,-51.19705294266237 L-70.4075497262829,234.66524442605686" stroke="#0d6d4d" stroke-width="0.1" fill="none" />
<path d="M240.05452195843762,-48.97781627743312 L-114.39728861122384,216.65239522885582" stroke="#0d6d4d" stroke-width="0.1" fill="none" />
<path d="M240.49745823035687,-46.754385727306456 L-154.08069643704192,190.48395991651407" stroke="#0d6d4d" stroke-width="0.1" fill="none" />
<path d="M240.9198011248129,-44.52695168075855 L-187.96394503939146,157.14501380962943" stroke="#0d6d4d" stroke-width="0.1" fill="none" />
<path d="M241.32151447732102,-42.29570486907798 L-214.7715453956602,117.8905564002472" stroke="#0d6d4d" stroke-width="0.1" fill="none" />
<path d="M241.70256388986823,-40.06083635003358 L-233.49436168247087,74.1982685949981" stroke="#0d6d4d" stroke-width="0.1" fill="none" />
<path d="M242.0629167338586,-37.82253749151478 L-243.42759882758955,27.71288741784459" stroke="#0d6d4d" stroke-width="0.1" fill="none" />
<path d="M242.40254215290722,-35.580999955145145 L-244.19733356626952,-19.815707888543873" stroke="#0d6d4d" stroke-width="0.1" fill="none" />
<path d="M242.72141106548244,-33.33641567987024 L-235.7745902763374,-66.59836769790407" stroke="#0d6d4d" stroke-width="0.1" fill="none" />
<path d="M243.019496167396,-31.088976865522792 L-218.47643172626258,-110.87402211591191" stroke="#0d6d4d" stroke-width="0.1" fill="none" />
<path d="M243.29677193414096,-28.838875956364713 L-192.9540236764764,-150.9759740722271" stroke="#0d6d4d" stroke-width="0.1" fill="none" />
<path d="M243.55321462307765,-26.586305624608244 L-160.16812262586694,-185.3946398753353" stroke="#0d6d4d" stroke-width="0.1" fill="none" />
<path d="M243.78880227546622,-24.331458753918284 L-121.35290943404702,-212.83437544694698" stroke="#0d6d4d" stroke-width="0.1" fill="none" />
<path d="M244.0035147183474,-22.074528422895632 L-77.9695302537238,-232.26224908928623" stroke="#0d6d4d" stroke-width="0.1" fill="none" />
<path d="M244.1973335662695,-19.81570788854404 L-31.651093661874633,-242.94692480047414" stroke="#0d6d4d" stroke-width="0.1" fill="none" />
<path d="M244.370242222863,-17.555190569722235 L15.858805501736757,-244.48619242823935" stroke="#0d6d4d" stroke-width="0.1" fill="none" />
<path d="M244.52222588226152,-15.293170030581653 L62.771721401830234,-236.82210832658976" stroke="#0d6d4d" stroke-width="0.1" fill="none" />
<path d="M244.6532715303696,-13.029839963991673 L107.32168082988716,-220.24317656592186" stroke="#0d6d4d" stroke-width="0.1" fill="none" />
<path d="M244.76336794597728,-10.765394174954405 L147.83166087481652,-195.37348858786663" stroke="#0d6d4d" stroke-width="0.1" fill="none" />
<path d="M244.85250570172064,-8.500026564009207 L182.7767181800953,-163.14923012786187" stroke="#0d6d4d" stroke-width="0.1" fill="none" />
<path d="M244.9206771648893,-6.233931110629603 L210.8413933719617,-124.78343977054693" stroke="#0d6d4d" stroke-width="0.1" fill="none" />
<path d="M244.9678764980799,-3.9673018566128837 L230.96922974667638,-81.72034575445107" stroke="#0d6d4d" stroke-width="0.1" fill="none" />
<path d="M244.9940996596959,-1.7003328894646499 L242.40254215290722,-35.580999955145145" stroke="#0d6d4d" stroke-width="0.1" fill="none" />
<path d="M244.99934440429382,0.5667816742202944 L244.71093902349975,11.897744418039748" stroke="#0d6d4d" stroke-width="0.1" fill="none" />
<path d="M244.98361028277526,2.8338477053800206 L237.80752388336,58.92861430973208" stroke="#0d6d4d" stroke-width="0.1" fill="none" />
<path d="M244.94689864242565,5.1006710791083005 L221.9521664496195,103.74119629308501" stroke="#0d6d4d" stroke-width="0.1" fill="none" />
<path d="M244.88921262679864,7.367057691277405 L197.7417201879443,144.64858138645099" stroke="#0d6d4d" stroke-width="0.1" fill="none" />
<path d="M244.810557175447,9.632813475158567 L166.08755457183833,180.11086645826407" stroke="#0d6d4d" stroke-width="0.1" fill="none" />
<path d="M244.71093902349975,11.897744418039748 L128.18124781262193,208.79312179571244" stroke="#0d6d4d" stroke-width="0.1" fill="none" />
<path d="M244.59036670108526,14.161656577838766 L85.4497315108212,229.61564272655417" stroke="#0d6d4d" stroke-width="0.1" fill="none" />
<path d="M244.44885053260103,16.424356099709946 L39.501575747841194,241.79459363980322" stroke="#0d6d4d" stroke-width="0.1" fill="none" />
<path d="M244.28640263582952,18.685649232643573 L-7.933563357072276,244.87151441615117" stroke="#0d6d4d" stroke-width="0.1" fill="none" />
<path d="M244.10303692090042,20.945342346056727 L-55.07005420983868,238.73057853849687" stroke="#0d6d4d" stroke-width="0.1" fill="none" />
<path d="M243.8987690890999,23.203241946373254 L-100.13350742552126,223.60295322437733" stroke="#0d6d4d" stroke-width="0.1" fill="none" />
<path d="M243.67361663152562,25.459154693592556 L-141.42757031455977,200.05809744901669" stroke="#0d6d4d" stroke-width="0.1" fill="none" />
<path d="M243.42759882758955,27.71288741784464 L-177.3977837832533,168.98232543313551" stroke="#0d6d4d" stroke-width="0.1" fill="none" />
<path d="M243.1607367433666,29.964247135931075 L-206.69009784192113,131.54544254400102" stroke="#0d6d4d" stroke-width="0.1" fill="none" />
<path d="M242.87305322979125,32.213041067849964 L-228.2018429836563,89.1567095560546" stroke="#0d6d4d" stroke-width="0.1" fill="none" />
<path d="M242.5645729207004,34.45907665330302 L-241.1232386851232,43.41179293690952" stroke="#0d6d4d" stroke-width="0.1" fill="none" />
<path d="M242.23532223072442,36.70216156818445 L-244.9678764980799,-3.9673018566127145" stroke="#0d6d4d" stroke-width="0.1" fill="none" />
<path d="M241.88532935302499,38.94210374104923 L-239.59103023691483,-51.19705294266225" stroke="#0d6d4d" stroke-width="0.1" fill="none" />
<path d="M241.51462425688118,41.17871136955966 L-225.19510399997404,-96.49956028107525" stroke="#0d6d4d" stroke-width="0.1" fill="none" />
<path d="M241.1232386851232,43.41179293690956 L-202.3220129412929,-138.169472313472" stroke="#0d6d4d" stroke-width="0.1" fill="none" />
<path d="M240.71120615141422,45.641157228223044 L-171.83278360826534,-174.63818161397307" stroke="#0d6d4d" stroke-width="0.1" fill="none" />
<path d="M240.2785619373807,47.86661334692806 L-134.8751417629219,-204.5328729921714" stroke="#0d6d4d" stroke-width="0.1" fill="none" />
<path d="M239.82534308959137,50.08797073110255 L-92.84030779940521,-226.72820126246248" stroke="#0d6d4d" stroke-width="0.1" fill="none" />
<path d="M239.3515884163849,52.305039169792096 L-47.310626135661614,-240.38865334006857" stroke="#0d6d4d" stroke-width="0.1" fill="none" />
<path d="M238.85733848454677,54.517628819297016 L0.0,-245.0" stroke="#0d6d4d" stroke-width="0.1" fill="none" />
<path d="M238.3426356158358,56.725550219428534 L47.310626135661536,-240.38865334006857" stroke="#0d6d4d" stroke-width="0.1" fill="none" />
<path d="M237.80752388336,58.92861430973208 L92.84030779940514,-226.72820126246253" stroke="#0d6d4d" stroke-width="0.1" fill="none" />
<path d="M237.25204910780272,61.12663244567589 L134.87514176292188,-204.5328729921714" stroke="#0d6d4d" stroke-width="0.1" fill="none" />
<path d="M236.67625885349926,63.31941641480454 L171.83278360826526,-174.6381816139732" stroke="#0d6d4d" stroke-width="0.1" fill="none" />
<path d="M236.08020242436376,65.50677845285506 L202.32201294129283,-138.1694723134721" stroke="#0d6d4d" stroke-width="0.1" fill="none" />
<path d="M235.46393085966764,67.68853125983505 L225.19510399997398,-96.49956028107535" stroke="#0d6d4d" stroke-width="0.1" fill="none" />
<path d="M234.82749692966897,69.86448801606085 L239.5910302369148,-51.19705294266237" stroke="#0d6d4d" stroke-width="0.1" fill="none" />
<path d="M234.1709551310941,72.0344623981544 L244.9678764980799,-3.9673018566128837" stroke="#0d6d4d" stroke-width="0.1" fill="none" />
<path d="M233.49436168247092,74.19826859499794 L241.1232386851232,43.41179293690956" stroke="#0d6d4d" stroke-width="0.1" fill="none" />
<path d="M232.79777451931523,76.35572132364456 L228.20184298365635,89.15670955605444" stroke="#0d6d4d" stroke-width="0.1" fill="none" />
<path d="M232.08125328916955,78.50663584518391 L206.6900978419211,131.54544254400102" stroke="#0d6d4d" stroke-width="0.1" fill="none" />
<path d="M231.34485934649598,80.65082798056073 L177.39778378325326,168.98232543313554" stroke="#0d6d4d" stroke-width="0.1" fill="none" />
<path d="M230.58865574742202,82.788114126346 L141.42757031455972,200.0580974490167" stroke="#0d6d4d" stroke-width="0.1" fill="none" />
<path d="M229.81270724434165,84.91831127045874 L100.13350742552122,223.60295322437736" stroke="#0d6d4d" stroke-width="0.1" fill="none" />
<path d="M229.01708028037052,87.04123700783632 L55.07005420983874,238.73057853849687" stroke="#0d6d4d" stroke-width="0.1" fill="none" />
<path d="M228.20184298365635,89.15670955605444 L7.933563357072228,244.87151441615117" stroke="#0d6d4d" stroke-width="0.1" fill="none" />
<path d="M227.36706516154564,91.26454777089218 L-39.50157574784114,241.79459363980322" stroke="#0d6d4d" stroke-width="0.1" fill="none" />
<path d="M226.5128182946058,93.36457116184323 L-85.44973151082115,229.6156427265542" stroke="#0d6d4d" stroke-width="0.1" fill="none" />
<path d="M225.63917553050464,95.45659990757115 L-128.1812478126218,208.79312179571252" stroke="#0d6d4d" stroke-width="0.1" fill="none" />
<path d="M224.74621167774674,97.54045487130688 L-166.0875545718383,180.1108664582641" stroke="#0d6d4d" stroke-width="0.1" fill="none" />
<path d="M223.83400319926778,99.61595761618807 L-197.74172018794428,144.64858138645104" stroke="#0d6d4d" stroke-width="0.1" fill="none" />
<path d="M222.9026282058872,101.68293042053827 L-221.95216644961948,103.74119629308505" stroke="#0d6d4d" stroke-width="0.1" fill="none" />
<path d="M221.9521664496195,103.74119629308501 L-237.80752388335995,58.9286143097323" stroke="#0d6d4d" stroke-width="0.1" fill="none" />
<path d="M220.9826993168455,105.79057898811526 L-244.71093902349975,11.897744418039753" stroke="#0d6d4d" stroke-width="0.1" fill="none" />
<path d="M219.99430982134317,107.83090302056677 L-242.40254215290724,-35.580999955144975" stroke="#0d6d4d" stroke-width="0.1" fill="none" />
<path d="M218.98708259717944,109.86199368105473 L-230.96922974667635,-81.72034575445113" stroke="#0d6d4d" stroke-width="0.1" fill="none" />
<path d="M217.96110389146293,111.88367705083219 L-210.84139337196174,-124.78343977054682" stroke="#0d6d4d" stroke-width="0.1" fill="none" />
<path d="M216.91646155695898,113.89578001668166 L-182.77671818009523,-163.14923012786195" stroke="#0d6d4d" stroke-width="0.1" fill="none" />
<path d="M215.85324504456685,115.89813028573919 L-147.8316608748166,-195.37348858786655" stroke="#0d6d4d" stroke-width="0.1" fill="none" />
<path d="M214.77154539566018,117.89055640024723 L-107.32168082988724,-220.24317656592183" stroke="#0d6d4d" stroke-width="0.1" fill="none" />
<path d="M213.67145523429147,119.87288775223604 L-62.771721401830305,-236.82210832658973" stroke="#0d6d4d" stroke-width="0.1" fill="none" />
<path d="M212.5530687592605,121.84495459813296 L-15.858805501736821,-244.48619242823935" stroke="#0d6d4d" stroke-width="0.1" fill="none" />
<path d="M211.4164817360485,123.8065880732971 L31.651093661874565,-242.94692480047414" stroke="#0d6d4d" stroke-width="0.1" fill="none" />
<path d="M210.26179148861797,125.75762020647866 L77.96953025372373,-232.26224908928626" stroke="#0d6d4d" stroke-width="0.1" fill="none" />
<path d="M209.08909689107887,127.69788393420244 L121.35290943404695,-212.834375446947" stroke="#0d6d4d" stroke-width="0.1" fill="none" />
<path d="M207.89849835922195,129.62721311507312 L160.16812262586686,-185.39463987533534" stroke="#0d6d4d" stroke-width="0.1" fill="none" />
<path d="M206.6900978419211,131.54544254400102 L192.95402367647628,-150.97597407222722" stroke="#0d6d4d" stroke-width="0.1" fill="none" />
<path d="M205.4639988124028,133.4524079663494 L218.47643172626252,-110.87402211591206" stroke="#0d6d4d" stroke-width="0.1" fill="none" />
<path d="M204.22030625938612,135.34794609199852 L235.7745902763374,-66.59836769790402" stroke="#0d6d4d" stroke-width="0.1" fill="none" />
<path d="M202.95912667809324,137.23189460932798 L244.1973335662695,-19.81570788854404" stroke="#0d6d4d" stroke-width="0.1" fill="none" />
<path d="M201.6805680611297,139.1040921991155 L243.42759882758955,27.71288741784464" stroke="#0d6d4d" stroke-width="0.1" fill="none" />
<path d="M200.38473988923758,140.9643785483503 L233.49436168247092,74.19826859499794" stroke="#0d6d4d" stroke-width="0.1" fill="none" />
<path d="M199.07175312192095,142.8125943639599 L214.77154539566018,117.89055640024723" stroke="#0d6d4d" stroke-width="0.1" fill="none" />
<path d="M197.7417201879443,144.64858138645099 L187.96394503939158,157.1450138096293" stroke="#0d6d4d" stroke-width="0.1" fill="none" />
<path d="M196.39475497570567,146.47218240346027 L154.08069643704195,190.48395991651407" stroke="#0d6d4d" stroke-width="0.1" fill="none" />
<path d="M195.03097282348455,148.28324126321638 L114.397288611224,216.65239522885574" stroke="#0d6d4d" stroke-width="0.1" fill="none" />
<path d="M193.65049050956546,150.08160288791126 L70.40754972628294,234.66524442605683" stroke="#0d6d4d" stroke-width="0.1" fill="none" />
<path d="M192.2534262422389,151.86711328697865 L23.767413949388818,243.84443818582042" stroke="#0d6d4d" stroke-width="0.1" fill="none" />
<path d="M190.83989964967896,153.63961957028033 L-23.767413949388647,243.84443818582045" stroke="#0d6d4d" stroke-width="0.1" fill="none" />
<path d="M189.41003176969983,155.39896996119793 L-70.4075497262829,234.66524442605686" stroke="#0d6d4d" stroke-width="0.1" fill="none" />
<path d="M187.96394503939158,157.1450138096293 L-114.39728861122384,216.65239522885582" stroke="#0d6d4d" stroke-width="0.1" fill="none" />
<path d="M186.50176328463635,158.87760160488787 L-154.08069643704192,190.48395991651407" stroke="#0d6d4d" stroke-width="0.1" fill="none" />
<path d="M185.02361170950493,160.59658498850578 L-187.96394503939146,157.14501380962943" stroke="#0d6d4d" stroke-width="0.1" fill="none" />
<path d="M183.52961688553586,162.30181676693712 L-214.7715453956602,117.8905564002472" stroke="#0d6d4d" stroke-width="0.1" fill="none" />
<path d="M182.01990674089774,163.99315092416174 L-233.49436168247087,74.1982685949981" stroke="#0d6d4d" stroke-width="0.1" fill="none" />
<path d="M180.49461054943436,165.67044263418876 L-243.42759882758955,27.71288741784459" stroke="#0d6d4d" stroke-width="0.1" fill="none" />
<path d="M178.9538589195955,167.33354827345747 L-244.19733356626952,-19.815707888543873" stroke="#0d6d4d" stroke-width="0.1" fill="none" />
<path d="M177.39778378325326,168.98232543313554 L-235.7745902763374,-66.59836769790407" stroke="#0d6d4d" stroke-width="0.1" fill="none" />
<path d="M175.82651838440495,170.61663293131332 L-218.47643172626258,-110.87402211591191" stroke="#0d6d4d" stroke-width="0.1" fill="none" />
<path d="M174.24019726776322,172.2363308250932 L-192.9540236764764,-150.9759740722271" stroke="#0d6d4d" stroke-width="0.1" fill="none" />
<path d="M172.63895626723587,173.8412804225723 L-160.16812262586694,-185.3946398753353" stroke="#0d6d4d" stroke-width="0.1" fill="none" />
<path d="M171.0229324942941,175.43134429471866 L-121.35290943404702,-212.83437544694698" stroke="#0d6d4d" stroke-width="0.1" fill="none" />
<path d="M169.39226432623212,177.00638628713912 L-77.9695302537238,-232.26224908928623" stroke="#0d6d4d" stroke-width="0.1" fill="none" />
<path d="M167.74709139431826,178.5662715317376 L-31.651093661874633,-242.94692480047414" stroke="#0d6d4d" stroke-width="0.1" fill="none" />
<path d="M166.08755457183833,180.11086645826407 L15.858805501736757,-244.48619242823935" stroke="#0d6d4d" stroke-width="0.1" fill="none" />
<path d="M164.41379596203296,181.64003880575171 L62.771721401830234,-236.82210832658976" stroke="#0d6d4d" stroke-width="0.1" fill="none" />
<path d="M162.72595888592988,183.1536576338421 L107.32168082988716,-220.24317656592186" stroke="#0d6d4d" stroke-width="0.1" fill="none" />
<path d="M161.02418787007093,184.6515933339978 L147.83166087481652,-195.37348858786663" stroke="#0d6d4d" stroke-width="0.1" fill="none" />
<path d="M159.30862863413722,186.13371764059985 L182.7767181800953,-163.14923012786187" stroke="#0d6d4d" stroke-width="0.1" fill="none" />
<path d="M157.57942807847078,187.5999036419317 L210.8413933719617,-124.78343977054693" stroke="#0d6d4d" stroke-width="0.1" fill="none" />
<path d="M155.83673427149634,189.05002579104567 L230.96922974667638,-81.72034575445107" stroke="#0d6d4d" stroke-width="0.1" fill="none" />
<path d="M154.08069643704195,190.48395991651407 L242.40254215290722,-35.580999955145145" stroke="#0d6d4d" stroke-width="0.1" fill="none" />
<path d="M152.3114649415614,191.9015832330612 L244.71093902349975,11.897744418039748" stroke="#0d6d4d" stroke-width="0.1" fill="none" />
<path d="M150.5291912812589,193.30277435207742 L237.80752388336,58.92861430973208" stroke="#0d6d4d" stroke-width="0.1" fill="none" />
<path d="M148.73402806911616,194.68741329201373 L221.9521664496195,103.74119629308501" stroke="#0d6d4d" stroke-width="0.1" fill="none" />
<path d="M146.92612902182503,196.05538148865494 L197.7417201879443,144.64858138645099" stroke="#0d6d4d" stroke-width="0.1" fill="none" />
<path d="M145.1056489466244,197.40656180527282 L166.08755457183833,180.11086645826407" stroke="#0d6d4d" stroke-width="0.1" fill="none" />
<path d="M143.27274372804467,198.74083854265592 L128.18124781262193,208.79312179571244" stroke="#0d6d4d" stroke-width="0.1" fill="none" />
<path d="M141.42757031455972,200.0580974490167 L85.4497315108212,229.61564272655417" stroke="#0d6d4d" stroke-width="0.1" fill="none" />
<path d="M139.57028670514754,201.35822572977474 L39.501575747841194,241.79459363980322" stroke="#0d6d4d" stroke-width="0.1" fill="none" />
<path d="M137.70105193576086,202.6411120572153 L-7.933563357072276,244.87151441615117" stroke="#0d6d4d" stroke-width="0.1" fill="none" />
<path d="M135.8200260657094,203.90664658002203 L-55.07005420983868,238.73057853849687" stroke="#0d6d4d" stroke-width="0.1" fill="none" />
<path d="M133.92737016395452,205.15472093268315 L-100.13350742552126,223.60295322437733" stroke="#0d6d4d" stroke-width="0.1" fill="none" />
<path d="M132.0232462953166,206.38522824477087 L-141.42757031455977,200.05809744901669" stroke="#0d6d4d" stroke-width="0.1" fill="none" />
<path d="M130.107817506598,207.59806315009249 L-177.3977837832533,168.98232543313551" stroke="#0d6d4d" stroke-width="0.1" fill="none" />
<path d="M128.18124781262193,208.79312179571244 L-206.69009784192113,131.54544254400102" stroke="#0d6d4d" stroke-width="0.1" fill="none" />
<path d="M126.24370218218749,209.97030185084546 L-228.2018429836563,89.1567095560546" stroke="#0d6d4d" stroke-width="0.1" fill="none" />
<path d="M124.29534652394446,211.12950251561853 L-241.1232386851232,43.41179293690952" stroke="#0d6d4d" stroke-width="0.1" fill="none" />
<path d="M122.336347672186,212.27062452970273 L-244.9678764980799,-3.9673018566127145" stroke="#0d6d4d" stroke-width="0.1" fill="none" />
<path d="M120.36687337256376,213.39357018081213 L-239.59103023691483,-51.19705294266225" stroke="#0d6d4d" stroke-width="0.1" fill="none" />
<path d="M118.38709226772335,214.49824331307136 L-225.19510399997404,-96.49956028107525" stroke="#0d6d4d" stroke-width="0.1" fill="none" />
<path d="M116.39717388286442,215.58454933524857 L-202.3220129412929,-138.169472313472" stroke="#0d6d4d" stroke-width="0.1" fill="none" />
<path d="M114.397288611224,216.65239522885574 L-171.83278360826534,-174.63818161397307" stroke="#0d6d4d" stroke-width="0.1" fill="none" />
<path d="M112.38760769948618,217.70168955611345 L-134.8751417629219,-204.5328729921714" stroke="#0d6d4d" stroke-width="0.1" fill="none" />
<path d="M110.36830323311892,218.73234246778026 L-92.84030779940521,-226.72820126246248" stroke="#0d6d4d" stroke-width="0.1" fill="none" />
<path d="M108.3395481216381,219.74426571084686 L-47.310626135661614,-240.38865334006857" stroke="#0d6d4d" stroke-width="0.1" fill="none" />
<path d="M106.30151608380177,220.73737263609266 L0.0,-245.0" stroke="#0d6d4d" stroke-width="0.1" fill="none" />
<path d="M104.25438163273533,221.71157820550548 L47.310626135661536,-240.38865334006857" stroke="#0d6d4d" stroke-width="0.1" fill="none" />
<path d="M102.19832006098764,222.66679899956333 L92.84030779940514,-226.72820126246253" stroke="#0d6d4d" stroke-width="0.1" fill="none" />
<path d="M100.13350742552122,223.60295322437736 L134.87514176292188,-204.5328729921714" stroke="#0d6d4d" stroke-width="0.1" fill="none" />
<path d="M98.06012053263744,224.51996071869561 L171.83278360826526,-174.6381816139732" stroke="#0d6d4d" stroke-width="0.1" fill="none" />
<path d="M95.97833692283584,225.4177429607674 L202.32201294129283,-138.1694723134721" stroke="#0d6d4d" stroke-width="0.1" fill="none" />
<path d="M93.88833485561224,226.29622307506688 L225.19510399997398,-96.49956028107535" stroke="#0d6d4d" stroke-width="0.1" fill="none" />
<path d="M91.79029329419492,227.15532583887546 L239.5910302369148,-51.19705294266237" stroke="#0d6d4d" stroke-width="0.1" fill="none" />
<path d="M89.68439189021967,227.99497768872345 L244.9678764980799,-3.9673018566128837" stroke="#0d6d4d" stroke-width="0.1" fill="none" />
<path d="M87.57081096834696,228.81510672668892 L241.1232386851232,43.41179293690956" stroke="#0d6d4d" stroke-width="0.1" fill="none" />
<path d="M85.4497315108212,229.61564272655417 L228.20184298365635,89.15670955605444" stroke="#0d6d4d" stroke-width="0.1" fill="none" />
<path d="M83.32133514197305,230.3965171398192 L206.6900978419211,131.54544254400102" stroke="#0d6d4d" stroke-width="0.1" fill="none" />
<path d="M81.1858041126675,231.1576631015714 L177.39778378325326,168.98232543313554" stroke="#0d6d4d" stroke-width="0.1" fill="none" />
<path d="M79.04332128469834,231.89901543621085 L141.42757031455972,200.0580974490167" stroke="#0d6d4d" stroke-width="0.1" fill="none" />
<path d="M76.8940701151294,232.62051066303155 L100.13350742552122,223.60295322437736" stroke="#0d6d4d" stroke-width="0.1" fill="none" />
<path d="M74.73823464058601,233.32208700165683 L55.07005420983874,238.73057853849687" stroke="#0d6d4d" stroke-width="0.1" fill="none" />
<path d="M72.57599946149612,234.00368437732965 L7.933563357072228,244.87151441615117" stroke="#0d6d4d" stroke-width="0.1" fill="none" />
<path d="M70.40754972628294,234.66524442605683 L-39.50157574784114,241.79459363980322" stroke="#0d6d4d" stroke-width="0.1" fill="none" />
<path d="M68.2330711155113,235.30671049960642 L-85.44973151082115,229.6156427265542" stroke="#0d6d4d" stroke-width="0.1" fill="none" />
<path d="M66.05274982598839,235.92802767035838 L-128.1812478126218,208.79312179571252" stroke="#0d6d4d" stroke-width="0.1" fill="none" />
<path d="M63.86677255481954,236.52914273600823 L-166.0875545718383,180.1108664582641" stroke="#0d6d4d" stroke-width="0.1" fill="none" />
<path d="M61.675326483421856,237.11000422412238 L-197.74172018794428,144.64858138645104" stroke="#0d6d4d" stroke-width="0.1" fill="none" />
<path d="M59.47859926149659,237.67056239654565 L-221.95216644961948,103.74119629308505" stroke="#0d6d4d" stroke-width="0.1" fill="none" />
<path d="M57.27677899096039,238.2107692536605 L-237.80752388335995,58.9286143097323" stroke="#0d6d4d" stroke-width="0.1" fill="none" />
<path d="M55.07005420983874,238.73057853849687 L-244.71093902349975,11.897744418039753" stroke="#0d6d4d" stroke-width="0.1" fill="none" />
<path d="M52.85861387612203,239.22994574069327 L-242.40254215290724,-35.580999955144975" stroke="#0d6d4d" stroke-width="0.1" fill="none" />
<path d="M50.64264735158518,239.70882810030795 L-230.96922974667635,-81.72034575445113" stroke="#0d6d4d" stroke-width="0.1" fill="none" />
<path d="M48.42234438557263,240.1671846114806 L-210.84139337196174,-124.78343977054682" stroke="#0d6d4d" stroke-width="0.1" fill="none" />
<path d="M46.19789509875112,240.6049760259434 L-182.77671818009523,-163.14923012786195" stroke="#0d6d4d" stroke-width="0.1" fill="none" />
<path d="M43.96948996682932,241.0221648563818 L-147.8316608748166,-195.37348858786655" stroke="#0d6d4d" stroke-width="0.1" fill="none" />
<path d="M41.73731980424798,241.41871537964477 L-107.32168082988724,-220.24317656592183" stroke="#0d6d4d" stroke-width="0.1" fill="none" />
<path d="M39.501575747841194,241.79459363980322 L-62.771721401830305,-236.82210832658973" stroke="#0d6d4d" stroke-width="0.1" fill="none" />
<path d="M37.262449240469,242.149767451058 L-15.858805501736821,-244.48619242823935" stroke="#0d6d4d" stroke-width="0.1" fill="none" />
<path d="M35.02013201462484,242.4842064004958 L31.651093661874565,-242.94692480047414" stroke="#0d6d4d" stroke-width="0.1" fill="none" />
<path d="M32.7748160760181,242.79788185069324 L77.96953025372373,-232.26224908928626" stroke="#0d6d4d" stroke-width="0.1" fill="none" />
<path d="M30.5266936871324,243.09076694216915 L121.35290943404695,-212.834375446947" stroke="#0d6d4d" stroke-width="0.1" fill="none" />
<path d="M28.27595735076278,243.3628365956845 L160.16812262586686,-185.39463987533534" stroke="#0d6d4d" stroke-width="0.1" fill="none" />
<path d="M26.02279979353238,243.61406751438994 L192.95402367647628,-150.97597407222722" stroke="#0d6d4d" stroke-width="0.1" fill="none" />
<path d="M23.767413949388818,243.84443818582042 L218.47643172626252,-110.87402211591206" stroke="#0d6d4d" stroke-width="0.1" fill="none" />
<path d="M21.509992943084455,244.0539288837376 L235.7745902763374,-66.59836769790402" stroke="#0d6d4d" stroke-width="0.1" fill="none" />
<path d="M19.250730073638614,244.2425216698188 L244.1973335662695,-19.81570788854404" stroke="#0d6d4d" stroke-width="0.1" fill="none" />
<path d="M16.989818797786462,244.41020039519296 L243.42759882758955,27.71288741784464" stroke="#0d6d4d" stroke-width="0.1" fill="none" />
<path d="M14.727452713413324,244.5569507018236 L233.49436168247092,74.19826859499794" stroke="#0d6d4d" stroke-width="0.1" fill="none" />
<path d="M12.463825542976922,244.68276002373818 L214.77154539566018,117.89055640024723" stroke="#0d6d4d" stroke-width="0.1" fill="none" />
<path d="M10.199131116920112,244.78761758810404 L187.96394503939158,157.1450138096293" stroke="#0d6d4d" stroke-width="0.1" fill="none" />
<path d="M7.933563357072228,244.87151441615117 L154.08069643704195,190.48395991651407" stroke="#0d6d4d" stroke-width="0.1" fill="none" />
<path d="M5.667316260045413,244.9344433239405 L114.397288611224,216.65239522885574" stroke="#0d6d4d" stroke-width="0.1" fill="none" />
<path d="M3.4005838806217232,244.97639892297963 L70.40754972628294,234.66524442605683" stroke="#0d6d4d" stroke-width="0.1" fill="none" />
<path d="M1.1335603151375304,244.9973776206838 L23.767413949388818,243.84443818582042" stroke="#0d6d4d" stroke-width="0.1" fill="none" />
<path d="M-1.1335603151374707,244.9973776206838 L-23.767413949388647,243.84443818582045" stroke="#0d6d4d" stroke-width="0.1" fill="none" />
<path d="M-3.400583880621554,244.97639892297963 L-70.4075497262829,234.66524442605686" stroke="#0d6d4d" stroke-width="0.1" fill="none" />
<path d="M-5.667316260045354,244.9344433239405 L-114.39728861122384,216.65239522885582" stroke="#0d6d4d" stroke-width="0.1" fill="none" />
<path d="M-7.933563357072276,244.87151441615117 L-154.08069643704192,190.48395991651407" stroke="#0d6d4d" stroke-width="0.1" fill="none" />
<path d="M-10.199131116919942,244.78761758810407 L-187.96394503939146,157.14501380962943" stroke="#0d6d4d" stroke-width="0.1" fill="none" />
<path d="M-12.463825542976968,244.68276002373818 L-214.7715453956602,117.8905564002472" stroke="#0d6d4d" stroke-width="0.1" fill="none" />
<path d="M-14.727452713413264,244.5569507018236 L-233.49436168247087,74.1982685949981" stroke="#0d6d4d" stroke-width="0.1" fill="none" />
<path d="M-16.98981879778651,244.41020039519296 L-243.42759882758955,27.71288741784459" stroke="#0d6d4d" stroke-width="0.1" fill="none" />
<path d="M-19.250730073638554,244.2425216698188 L-244.19733356626952,-19.815707888543873" stroke="#0d6d4d" stroke-width="0.1" fill="none" />
<path d="M-21.509992943084395,244.0539288837376 L-235.7745902763374,-66.59836769790407" stroke="#0d6d4d" stroke-width="0.1" fill="none" />
<path d="M-23.767413949388647,243.84443818582045 L-218.47643172626258,-110.87402211591191" stroke="#0d6d4d" stroke-width="0.1" fill="none" />
<path d="M-26.02279979353221,243.61406751438994 L-192.9540236764764,-150.9759740722271" stroke="#0d6d4d" stroke-width="0.1" fill="none" />
<path d="M-28.27595735076261,243.36283659568454 L-160.16812262586694,-185.3946398753353" stroke="#0d6d4d" stroke-width="0.1" fill="none" />
<path d="M-30.526693687132234,243.09076694216918 L-121.35290943404702,-212.83437544694698" stroke="#0d6d4d" stroke-width="0.1" fill="none" />
<path d="M-32.77481607601805,242.79788185069324 L-77.9695302537238,-232.26224908928623" stroke="#0d6d4d" stroke-width="0.1" fill="none" />
<path d="M-35.020132014624785,242.48420640049582 L-31.651093661874633,-242.94692480047414" stroke="#0d6d4d" stroke-width="0.1" fill="none" />
<path d="M-37.26244924046895,242.149767451058 L15.858805501736757,-244.48619242823935" stroke="#0d6d4d" stroke-width="0.1" fill="none" />
<path d="M-39.50157574784114,241.79459363980322 L62.771721401830234,-236.82210832658976" stroke="#0d6d4d" stroke-width="0.1" fill="none" />
<path d="M-41.73731980424804,241.41871537964477 L107.32168082988716,-220.24317656592186" stroke="#0d6d4d" stroke-width="0.1" fill="none" />
<path d="M-43.96948996682916,241.02216485638183 L147.83166087481652,-195.37348858786663" stroke="#0d6d4d" stroke-width="0.1" fill="none" />
<path d="M-46.197895098751076,240.6049760259434 L182.7767181800953,-163.14923012786187" stroke="#0d6d4d" stroke-width="0.1" fill="none" />
<path d="M-48.42234438557257,240.1671846114806 L210.8413933719617,-124.78343977054693" stroke="#0d6d4d" stroke-width="0.1" fill="none" />
<path d="M-50.64264735158513,239.70882810030795 L230.96922974667638,-81.72034575445107" stroke="#0d6d4d" stroke-width="0.1" fill="none" />
<path d="M-52.85861387612208,239.22994574069324 L242.40254215290722,-35.580999955145145" stroke="#0d6d4d" stroke-width="0.1" fill="none" />
<path d="M-55.07005420983868,238.73057853849687 L244.71093902349975,11.897744418039748" stroke="#0d6d4d" stroke-width="0.1" fill="none" />
<path d="M-57.27677899096033,238.21076925366052 L237.80752388336,58.92861430973208" stroke="#0d6d4d" stroke-width="0.1" fill="none" />
<path d="M-59.478599261496434,237.6705623965457 L221.9521664496195,103.74119629308501" stroke="#0d6d4d" stroke-width="0.1" fill="none" />
<path d="M-61.67532648342191,237.11000422412235 L197.7417201879443,144.64858138645099" stroke="#0d6d4d" stroke-width="0.1" fill="none" />
<path d="M-63.86677255481939,236.52914273600825 L166.08755457183833,180.11086645826407" stroke="#0d6d4d" stroke-width="0.1" fill="none" />
<path d="M-66.05274982598834,235.9280276703584 L128.18124781262193,208.79312179571244" stroke="#0d6d4d" stroke-width="0.1" fill="none" />
<path d="M-68.23307111551124,235.30671049960642 L85.4497315108212,229.61564272655417" stroke="#0d6d4d" stroke-width="0.1" fill="none" />
<path d="M-70.4075497262829,234.66524442605686 L39.501575747841194,241.79459363980322" stroke="#0d6d4d" stroke-width="0.1" fill="none" />
<path d="M-72.57599946149607,234.00368437732968 L-7.933563357072276,244.87151441615117" stroke="#0d6d4d" stroke-width="0.1" fill="none" />
<path d="M-74.73823464058607,233.3220870016568 L-55.07005420983868,238.73057853849687" stroke="#0d6d4d" stroke-width="0.1" fill="none" />
<path d="M-76.89407011512945,232.62051066303152 L-100.13350742552126,223.60295322437733" stroke="#0d6d4d" stroke-width="0.1" fill="none" />
<path d="M-79.0433212846982,231.89901543621087 L-141.42757031455977,200.05809744901669" stroke="#0d6d4d" stroke-width="0.1" fill="none" />
<path d="M-81.18580411266744,231.15766310157142 L-177.3977837832533,168.98232543313551" stroke="#0d6d4d" stroke-width="0.1" fill="none" />
<path d="M-83.3213351419729,230.39651713981925 L-206.69009784192113,131.54544254400102" stroke="#0d6d4d" stroke-width="0.1" fill="none" />
<path d="M-85.44973151082115,229.6156427265542 L-228.2018429836563,89.1567095560546" stroke="#0d6d4d" stroke-width="0.1" fill="none" />
<path d="M-87.57081096834692,228.81510672668895 L-241.1232386851232,43.41179293690952" stroke="#0d6d4d" stroke-width="0.1" fill="none" />
<path d="M-89.68439189021963,227.99497768872345 L-244.9678764980799,-3.9673018566127145" stroke="#0d6d4d" stroke-width="0.1" fill="none" />
<path d="M-91.79029329419475,227.1553258388755 L-239.59103023691483,-51.19705294266225" stroke="#0d6d4d" stroke-width="0.1" fill="none" />
<path d="M-93.8883348556123,226.29622307506685 L-225.19510399997404,-96.49956028107525" stroke="#0d6d4d" stroke-width="0.1" fill="none" />
<path d="M-95.9783369228357,225.41774296076747 L-202.3220129412929,-138.169472313472" stroke="#0d6d4d" stroke-width="0.1" fill="none" />
<path d="M-98.0601205326374,224.51996071869561 L-171.83278360826534,-174.63818161397307" stroke="#0d6d4d" stroke-width="0.1" fill="none" />
<path d="M-100.13350742552126,223.60295322437733 L-134.8751417629219,-204.5328729921714" stroke="#0d6d4d" stroke-width="0.1" fill="none" />
<path d="M-102.1983200609875,222.66679899956338 L-92.84030779940521,-226.72820126246248" stroke="#0d6d4d" stroke-width="0.1" fill="none" />
<path d="M-104.25438163273527,221.7115782055055 L-47.310626135661614,-240.38865334006857" stroke="#0d6d4d" stroke-width="0.1" fill="none" />
<path d="M-106.30151608380172,220.7373726360927 L0.0,-245.0" stroke="#0d6d4d" stroke-width="0.1" fill="none" />
<path d="M-108.33954812163805,219.74426571084686 L47.310626135661536,-240.38865334006857" stroke="#0d6d4d" stroke-width="0.1" fill="none" />
<path d="M-110.36830323311878,218.73234246778034 L92.84030779940514,-226.72820126246253" stroke="#0d6d4d" stroke-width="0.1" fill="none" />
<path d="M-112.38760769948622,217.70168955611342 L134.87514176292188,-204.5328729921714" stroke="#0d6d4d" stroke-width="0.1" fill="none" />
<path d="M-114.39728861122384,216.65239522885582 L171.83278360826526,-174.6381816139732" stroke="#0d6d4d" stroke-width="0.1" fill="none" />
<path d="M-116.39717388286438,215.58454933524857 L202.32201294129283,-138.1694723134721" stroke="#0d6d4d" stroke-width="0.1" fill="none" />
<path d="M-118.3870922677233,214.49824331307138 L225.19510399997398,-96.49956028107535" stroke="#0d6d4d" stroke-width="0.1" fill="none" />
<path d="M-120.36687337256372,213.39357018081216 L239.5910302369148,-51.19705294266237" stroke="#0d6d4d" stroke-width="0.1" fill="none" />
<path d="M-122.33634767218604,212.27062452970273 L244.9678764980799,-3.9673018566128837" stroke="#0d6d4d" stroke-width="0.1" fill="none" />
<path d="M-124.2953465239444,211.12950251561855 L241.1232386851232,43.41179293690956" stroke="#0d6d4d" stroke-width="0.1" fill="none" />
<path d="M-126.24370218218752,209.97030185084543 L228.20184298365635,89.15670955605444" stroke="#0d6d4d" stroke-width="0.1" fill="none" />
<path d="M-128.1812478126218,208.79312179571252 L206.6900978419211,131.54544254400102" stroke="#0d6d4d" stroke-width="0.1" fill="none" />
<path d="M-130.10781750659794,207.59806315009254 L177.39778378325326,168.98232543313554" stroke="#0d6d4d" stroke-width="0.1" fill="none" />
<path d="M-132.02324629531648,206.38522824477096 L141.42757031455972,200.0580974490167" stroke="#0d6d4d" stroke-width="0.1" fill="none" />
<path d="M-133.9273701639545,205.15472093268318 L100.13350742552122,223.60295322437736" stroke="#0d6d4d" stroke-width="0.1" fill="none" />
<path d="M-135.82002606570936,203.90664658002208 L55.07005420983874,238.73057853849687" stroke="#0d6d4d" stroke-width="0.1" fill="none" />
<path d="M-137.7010519357608,202.64111205721534 L7.933563357072228,244.87151441615117" stroke="#0d6d4d" stroke-width="0.1" fill="none" />
<path d="M-139.57028670514742,201.35822572977483 L-39.50157574784114,241.79459363980322" stroke="#0d6d4d" stroke-width="0.1" fill="none" />
<path d="M-141.42757031455977,200.05809744901669 L-85.44973151082115,229.6156427265542" stroke="#0d6d4d" stroke-width="0.1" fill="none" />
<path d="M-143.27274372804473,198.74083854265587 L-128.1812478126218,208.79312179571252" stroke="#0d6d4d" stroke-width="0.1" fill="none" />
<path d="M-145.10564894662429,197.40656180527293 L-166.0875545718383,180.1108664582641" stroke="#0d6d4d" stroke-width="0.1" fill="none" />
<path d="M-146.92612902182498,196.055381488655 L-197.74172018794428,144.64858138645104" stroke="#0d6d4d" stroke-width="0.1" fill="none" />
<path d="M-148.7340280691161,194.68741329201376 L-221.95216644961948,103.74119629308505" stroke="#0d6d4d" stroke-width="0.1" fill="none" />
<path d="M-150.52919128125887,193.30277435207745 L-237.80752388335995,58.9286143097323" stroke="#0d6d4d" stroke-width="0.1" fill="none" />
<path d="M-152.31146494156135,191.90158323306122 L-244.71093902349975,11.897744418039753" stroke="#0d6d4d" stroke-width="0.1" fill="none" />
<path d="M-154.08069643704192,190.48395991651407 L-242.40254215290724,-35.580999955144975" stroke="#0d6d4d" stroke-width="0.1" fill="none" />
<path d="M-155.83673427149623,189.05002579104578 L-230.96922974667635,-81.72034575445113" stroke="#0d6d4d" stroke-width="0.1" fill="none" />
<path d="M-157.57942807847076,187.59990364193172 L-210.84139337196174,-124.78343977054682" stroke="#0d6d4d" stroke-width="0.1" fill="none" />
<path d="M-159.30862863413725,186.13371764059983 L-182.77671818009523,-163.14923012786195" stroke="#0d6d4d" stroke-width="0.1" fill="none" />
<path d="M-161.0241878700709,184.65159333399785 L-147.8316608748166,-195.37348858786655" stroke="#0d6d4d" stroke-width="0.1" fill="none" />
<path d="M-162.72595888592983,183.15365763384216 L-107.32168082988724,-220.24317656592183" stroke="#0d6d4d" stroke-width="0.1" fill="none" />
<path d="M-164.41379596203294,181.64003880575174 L-62.771721401830305,-236.82210832658973" stroke="#0d6d4d" stroke-width="0.1" fill="none" />
<path d="M-166.0875545718383,180.1108664582641 L-15.858805501736821,-244.48619242823935" stroke="#0d6d4d" stroke-width="0.1" fill="none" />
<path d="M-167.7470913943182,178.56627153173764 L31.651093661874565,-242.94692480047414" stroke="#0d6d4d" stroke-width="0.1" fill="none" />
<path d="M-169.39226432623215,177.00638628713907 L77.96953025372373,-232.26224908928626" stroke="#0d6d4d" stroke-width="0.1" fill="none" />
<path d="M-171.022932494294,175.4313442947188 L121.35290943404695,-212.834375446947" stroke="#0d6d4d" stroke-width="0.1" fill="none" />
<path d="M-172.63895626723584,173.84128042257237 L160.16812262586686,-185.39463987533534" stroke="#0d6d4d" stroke-width="0.1" fill="none" />
<path d="M-174.24019726776316,172.23633082509326 L192.95402367647628,-150.97597407222722" stroke="#0d6d4d" stroke-width="0.1" fill="none" />
<path d="M-175.8265183844049,170.61663293131338 L218.47643172626252,-110.87402211591206" stroke="#0d6d4d" stroke-width="0.1" fill="none" />
<path d="M-177.3977837832533,168.98232543313551 L235.7745902763374,-66.59836769790402" stroke="#0d6d4d" stroke-width="0.1" fill="none" />
<path d="M-178.95385891959543,167.33354827345752 L244.1973335662695,-19.81570788854404" stroke="#0d6d4d" stroke-width="0.1" fill="none" />
<path d="M-180.49461054943427,165.67044263418882 L243.42759882758955,27.71288741784464" stroke="#0d6d4d" stroke-width="0.1" fill="none" />
<path d="M-182.01990674089768,163.9931509241618 L233.49436168247092,74.19826859499794" stroke="#0d6d4d" stroke-width="0.1" fill="none" />
<path d="M-183.52961688553586,162.3018167669371 L214.77154539566018,117.89055640024723" stroke="#0d6d4d" stroke-width="0.1" fill="none" />
<path d="M-185.0236117095048,160.5965849885059 L187.96394503939158,157.1450138096293" stroke="#0d6d4d" stroke-width="0.1" fill="none" />
<path d="M-186.5017632846363,158.87760160488793 L154.08069643704195,190.48395991651407" stroke="#0d6d4d" stroke-width="0.1" fill="none" />
<path d="M-187.96394503939146,157.14501380962943 L114.397288611224,216.65239522885574" stroke="#0d6d4d" stroke-width="0.1" fill="none" />
<path d="M-189.41003176969983,155.39896996119793 L70.40754972628294,234.66524442605683" stroke="#0d6d4d" stroke-width="0.1" fill="none" />
<path d="M-190.8398996496789,153.6396195702804 L23.767413949388818,243.84443818582042" stroke="#0d6d4d" stroke-width="0.1" fill="none" />
<path d="M-192.25342624223893,151.86711328697862 L-23.767413949388647,243.84443818582045" stroke="#0d6d4d" stroke-width="0.1" fill="none" />
<path d="M-193.6504905095655,150.08160288791123 L-70.4075497262829,234.66524442605686" stroke="#0d6d4d" stroke-width="0.1" fill="none" />
<path d="M-195.0309728234844,148.28324126321652 L-114.39728861122384,216.65239522885582" stroke="#0d6d4d" stroke-width="0.1" fill="none" />
<path d="M-196.3947549757056,146.47218240346035 L-154.08069643704192,190.48395991651407" stroke="#0d6d4d" stroke-width="0.1" fill="none" />
<path d="M-197.74172018794428,144.64858138645104 L-187.96394503939146,157.14501380962943" stroke="#0d6d4d" stroke-width="0.1" fill="none" />
<path d="M-199.07175312192095,142.8125943639599 L-214.7715453956602,117.8905564002472" stroke="#0d6d4d" stroke-width="0.1" fill="none" />
<path d="M-200.38473988923752,140.96437854835037 L-233.49436168247087,74.1982685949981" stroke="#0d6d4d" stroke-width="0.1" fill="none" />
<path d="M-201.68056806112963,139.1040921991156 L-243.42759882758955,27.71288741784459" stroke="#0d6d4d" stroke-width="0.1" fill="none" />
<path d="M-202.95912667809313,137.23189460932815 L-244.19733356626952,-19.815707888543873" stroke="#0d6d4d" stroke-width="0.1" fill="none" />
<path d="M-204.2203062593861,135.34794609199858 L-235.7745902763374,-66.59836769790407" stroke="#0d6d4d" stroke-width="0.1" fill="none" />
<path d="M-205.46399881240274,133.45240796634945 L-218.47643172626258,-110.87402211591191" stroke="#0d6d4d" stroke-width="0.1" fill="none" />
<path d="M-206.69009784192113,131.54544254400102 L-192.9540236764764,-150.9759740722271" stroke="#0d6d4d" stroke-width="0.1" fill="none" />
<path d="M-207.89849835922203,129.627213115073 L-160.16812262586694,-185.3946398753353" stroke="#0d6d4d" stroke-width="0.1" fill="none" />
<path d="M-209.08909689107878,127.69788393420261 L-121.35290943404702,-212.83437544694698" stroke="#0d6d4d" stroke-width="0.1" fill="none" />
<path d="M-210.26179148861794,125.75762020647875 L-77.9695302537238,-232.26224908928623" stroke="#0d6d4d" stroke-width="0.1" fill="none" />
<path d="M-211.41648173604838,123.80658807329726 L-31.651093661874633,-242.94692480047414" stroke="#0d6d4d" stroke-width="0.1" fill="none" />
<path d="M-212.5530687592604,121.84495459813313 L15.858805501736757,-244.48619242823935" stroke="#0d6d4d" stroke-width="0.1" fill="none" />
<path d="M-213.67145523429141,119.87288775223611 L62.771721401830234,-236.82210832658976" stroke="#0d6d4d" stroke-width="0.1" fill="none" />
<path d="M-214.7715453956602,117.8905564002472 L107.32168082988716,-220.24317656592186" stroke="#0d6d4d" stroke-width="0.1" fill="none" />
<path d="M-215.85324504456676,115.89813028573933 L147.83166087481652,-195.37348858786663" stroke="#0d6d4d" stroke-width="0.1" fill="none" />
<path d="M-216.91646155695895,113.8957800166817 L182.7767181800953,-163.14923012786187" stroke="#0d6d4d" stroke-width="0.1" fill="none" />
<path d="M-217.96110389146284,111.88367705083233 L210.8413933719617,-124.78343977054693" stroke="#0d6d4d" stroke-width="0.1" fill="none" />
<path d="M-218.98708259717938,109.86199368105488 L230.96922974667638,-81.72034575445107" stroke="#0d6d4d" stroke-width="0.1" fill="none" />
<path d="M-219.99430982134322,107.83090302056661 L242.40254215290722,-35.580999955145145" stroke="#0d6d4d" stroke-width="0.1" fill="none" />
<path d="M-220.98269931684547,105.79057898811531 L244.71093902349975,11.897744418039748" stroke="#0d6d4d" stroke-width="0.1" fill="none" />
<path d="M-221.95216644961948,103.74119629308505 L237.80752388336,58.92861430973208" stroke="#0d6d4d" stroke-width="0.1" fill="none" />
<path d="M-222.9026282058871,101.68293042053841 L221.9521664496195,103.74119629308501" stroke="#0d6d4d" stroke-width="0.1" fill="none" />
<path d="M-223.83400319926776,99.61595761618813 L197.7417201879443,144.64858138645099" stroke="#0d6d4d" stroke-width="0.1" fill="none" />
<path d="M-224.74621167774674,97.54045487130688 L166.08755457183833,180.11086645826407" stroke="#0d6d4d" stroke-width="0.1" fill="none" />
<path d="M-225.63917553050467,95.4565999075711 L128.18124781262193,208.79312179571244" stroke="#0d6d4d" stroke-width="0.1" fill="none" />
<path d="M-226.51281829460575,93.36457116184333 L85.4497315108212,229.61564272655417" stroke="#0d6d4d" stroke-width="0.1" fill="none" />
<path d="M-227.36706516154564,91.26454777089218 L39.501575747841194,241.79459363980322" stroke="#0d6d4d" stroke-width="0.1" fill="none" />
<path d="M-228.2018429836563,89.1567095560546 L-7.933563357072276,244.87151441615117" stroke="#0d6d4d" stroke-width="0.1" fill="none" />
<path d="M-229.01708028037046,87.04123700783643 L-55.07005420983868,238.73057853849687" stroke="#0d6d4d" stroke-width="0.1" fill="none" />
<path d="M-229.81270724434165,84.91831127045874 L-100.13350742552126,223.60295322437733" stroke="#0d6d4d" stroke-width="0.1" fill="none" />
<path d="M-230.58865574742202,82.78811412634606 L-141.42757031455977,200.05809744901669" stroke="#0d6d4d" stroke-width="0.1" fill="none" />
<path d="M-231.34485934649598,80.65082798056069 L-177.3977837832533,168.98232543313551" stroke="#0d6d4d" stroke-width="0.1" fill="none" />
<path d="M-232.08125328916955,78.50663584518401 L-206.69009784192113,131.54544254400102" stroke="#0d6d4d" stroke-width="0.1" fill="none" />
<path d="M-232.7977745193152,76.3557213236446 L-228.2018429836563,89.1567095560546" stroke="#0d6d4d" stroke-width="0.1" fill="none" />
<path d="M-233.49436168247087,74.1982685949981 L-241.1232386851232,43.41179293690952" stroke="#0d6d4d" stroke-width="0.1" fill="none" />
<path d="M-234.17095513109408,72.03446239815452 L-244.9678764980799,-3.9673018566127145" stroke="#0d6d4d" stroke-width="0.1" fill="none" />
<path d="M-234.82749692966894,69.8644880160609 L-239.59103023691483,-51.19705294266225" stroke="#0d6d4d" stroke-width="0.1" fill="none" />
<path d="M-235.46393085966764,67.68853125983505 L-225.19510399997404,-96.49956028107525" stroke="#0d6d4d" stroke-width="0.1" fill="none" />
<path d="M-236.08020242436373,65.50677845285517 L-202.3220129412929,-138.169472313472" stroke="#0d6d4d" stroke-width="0.1" fill="none" />
<path d="M-236.67625885349923,63.3194164148046 L-171.83278360826534,-174.63818161397307" stroke="#0d6d4d" stroke-width="0.1" fill="none" />
<path d="M-237.25204910780272,61.12663244567594 L-134.8751417629219,-204.5328729921714" stroke="#0d6d4d" stroke-width="0.1" fill="none" />
<path d="M-237.80752388335995,58.9286143097323 L-92.84030779940521,-226.72820126246248" stroke="#0d6d4d" stroke-width="0.1" fill="none" />
<path d="M-238.34263561583583,56.725550219428484 L-47.310626135661614,-240.38865334006857" stroke="#0d6d4d" stroke-width="0.1" fill="none" />
<path d="M-238.85733848454677,54.51762881929707 L0.0,-245.0" stroke="#0d6d4d" stroke-width="0.1" fill="none" />
<path d="M-239.35158841638489,52.3050391697921 L47.310626135661536,-240.38865334006857" stroke="#0d6d4d" stroke-width="0.1" fill="none" />
<path d="M-239.82534308959134,50.08797073110272 L92.84030779940514,-226.72820126246253" stroke="#0d6d4d" stroke-width="0.1" fill="none" />
<path d="M-240.27856193738066,47.86661334692811 L134.87514176292188,-204.5328729921714" stroke="#0d6d4d" stroke-width="0.1" fill="none" />
<path d="M-240.71120615141422,45.64115722822305 L171.83278360826526,-174.6381816139732" stroke="#0d6d4d" stroke-width="0.1" fill="none" />
<path d="M-241.1232386851232,43.41179293690952 L202.32201294129283,-138.1694723134721" stroke="#0d6d4d" stroke-width="0.1" fill="none" />
<path d="M-241.5146242568812,41.17871136955956 L225.19510399997398,-96.49956028107535" stroke="#0d6d4d" stroke-width="0.1" fill="none" />
<path d="M-241.88532935302499,38.94210374104924 L239.5910302369148,-51.19705294266237" stroke="#0d6d4d" stroke-width="0.1" fill="none" />
<path d="M-242.23532223072442,36.70216156818446 L244.9678764980799,-3.9673018566128837" stroke="#0d6d4d" stroke-width="0.1" fill="none" />
<path d="M-242.56457292070039,34.45907665330319 L241.1232386851232,43.41179293690956" stroke="#0d6d4d" stroke-width="0.1" fill="none" />
<path d="M-242.87305322979122,32.21304106785008 L228.20184298365635,89.15670955605444" stroke="#0d6d4d" stroke-width="0.1" fill="none" />
<path d="M-243.1607367433666,29.96424713593113 L206.6900978419211,131.54544254400102" stroke="#0d6d4d" stroke-width="0.1" fill="none" />
<path d="M-243.42759882758955,27.71288741784459 L177.39778378325326,168.98232543313554" stroke="#0d6d4d" stroke-width="0.1" fill="none" />
<path d="M-243.67361663152562,25.45915469359267 L141.42757031455972,200.0580974490167" stroke="#0d6d4d" stroke-width="0.1" fill="none" />
<path d="M-243.8987690890999,23.203241946373307 L100.13350742552122,223.60295322437736" stroke="#0d6d4d" stroke-width="0.1" fill="none" />
<path d="M-244.10303692090042,20.94534234605689 L55.07005420983874,238.73057853849687" stroke="#0d6d4d" stroke-width="0.1" fill="none" />
<path d="M-244.2864026358295,18.685649232643687 L7.933563357072228,244.87151441615117" stroke="#0d6d4d" stroke-width="0.1" fill="none" />
<path d="M-244.44885053260103,16.424356099710003 L-39.50157574784114,241.79459363980322" stroke="#0d6d4d" stroke-width="0.1" fill="none" />
<path d="M-244.59036670108526,14.161656577838825 L-85.44973151082115,229.6156427265542" stroke="#0d6d4d" stroke-width="0.1" fill="none" />
<path d="M-244.71093902349975,11.897744418039753 L-128.1812478126218,208.79312179571252" stroke="#0d6d4d" stroke-width="0.1" fill="none" />
<path d="M-244.810557175447,9.632813475158681 L-166.0875545718383,180.1108664582641" stroke="#0d6d4d" stroke-width="0.1" fill="none" />
<path d="M-244.88921262679864,7.3670576912774655 L-197.74172018794428,144.64858138645104" stroke="#0d6d4d" stroke-width="0.1" fill="none" />
<path d="M-244.94689864242565,5.100671079108524 L-221.95216644961948,103.74119629308505" stroke="#0d6d4d" stroke-width="0.1" fill="none" />
<path d="M-244.98361028277526,2.833847705379917 L-237.80752388335995,58.9286143097323" stroke="#0d6d4d" stroke-width="0.1" fill="none" />
<path d="M-244.99934440429382,0.5667816742203544 L-244.71093902349975,11.897744418039753" stroke="#0d6d4d" stroke-width="0.1" fill="none" />
<path d="M-244.9940996596959,-1.7003328894646441 L-242.40254215290724,-35.580999955144975" stroke="#0d6d4d" stroke-width="0.1" fill="none" />
<path d="M-244.9678764980799,-3.9673018566127145 L-230.96922974667635,-81.72034575445113" stroke="#0d6d4d" stroke-width="0.1" fill="none" />
<path d="M-244.9206771648893,-6.233931110629543 L-210.84139337196174,-124.78343977054682" stroke="#0d6d4d" stroke-width="0.1" fill="none" />
<path d="M-244.85250570172064,-8.500026564009202 L-182.77671818009523,-163.14923012786195" stroke="#0d6d4d" stroke-width="0.1" fill="none" />
<path d="M-244.76336794597728,-10.7653941749544 L-147.8316608748166,-195.37348858786655" stroke="#0d6d4d" stroke-width="0.1" fill="none" />
<path d="M-244.6532715303696,-13.029839963991723 L-107.32168082988724,-220.24317656592183" stroke="#0d6d4d" stroke-width="0.1" fill="none" />
<path d="M-244.52222588226152,-15.293170030581539 L-62.771721401830305,-236.82210832658973" stroke="#0d6d4d" stroke-width="0.1" fill="none" />
<path d="M-244.370242222863,-17.55519056972223 L-15.858805501736821,-244.48619242823935" stroke="#0d6d4d" stroke-width="0.1" fill="none" />
<path d="M-244.19733356626952,-19.815707888543873 L31.651093661874565,-242.94692480047414" stroke="#0d6d4d" stroke-width="0.1" fill="none" />
<path d="M-244.00351471834742,-22.07452842289552 L77.96953025372373,-232.26224908928626" stroke="#0d6d4d" stroke-width="0.1" fill="none" />
<path d="M-243.78880227546622,-24.33145875391828 L121.35290943404695,-212.834375446947" stroke="#0d6d4d" stroke-width="0.1" fill="none" />
<path d="M-243.55321462307765,-26.586305624608293 L160.16812262586686,-185.39463987533534" stroke="#0d6d4d" stroke-width="0.1" fill="none" />
<path d="M-243.296771934141,-28.838875956364546 L192.95402367647628,-150.97597407222722" stroke="#0d6d4d" stroke-width="0.1" fill="none" />
<path d="M-243.019496167396,-31.08897686552273 L218.47643172626252,-110.87402211591206" stroke="#0d6d4d" stroke-width="0.1" fill="none" />
<path d="M-242.72141106548244,-33.336415679870235 L235.7745902763374,-66.59836769790402" stroke="#0d6d4d" stroke-width="0.1" fill="none" />
<path d="M-242.40254215290724,-35.580999955144975 L244.1973335662695,-19.81570788854404" stroke="#0d6d4d" stroke-width="0.1" fill="none" />
<path d="M-242.0629167338586,-37.822537491514716 L243.42759882758955,27.71288741784464" stroke="#0d6d4d" stroke-width="0.1" fill="none" />
<path d="M-241.70256388986823,-40.060836350033526 L233.49436168247092,74.19826859499794" stroke="#0d6d4d" stroke-width="0.1" fill="none" />
<path d="M-241.32151447732102,-42.29570486907797 L214.77154539566018,117.89055640024723" stroke="#0d6d4d" stroke-width="0.1" fill="none" />
<path d="M-240.9198011248129,-44.52695168075844 L187.96394503939158,157.1450138096293" stroke="#0d6d4d" stroke-width="0.1" fill="none" />
<path d="M-240.49745823035687,-46.7543857273064 L154.08069643704195,190.48395991651407" stroke="#0d6d4d" stroke-width="0.1" fill="none" />
<path d="M-240.05452195843768,-48.9778162774329 L114.397288611224,216.65239522885574" stroke="#0d6d4d" stroke-width="0.1" fill="none" />
<path d="M-239.59103023691483,-51.19705294266225 L70.40754972628294,234.66524442605683" stroke="#0d6d4d" stroke-width="0.1" fill="none" />
<path d="M-239.10702275377534,-53.41190569363318 L23.767413949388818,243.84443818582042" stroke="#0d6d4d" stroke-width="0.1" fill="none" />
<path d="M-238.60254095373492,-55.622184876371534 L-23.767413949388647,243.84443818582045" stroke="#0d6d4d" stroke-width="0.1" fill="none" />
<path d="M-238.07762803468933,-57.827701228529804 L-70.4075497262829,234.66524442605686" stroke="#0d6d4d" stroke-width="0.1" fill="none" />
<path d="M-237.53232894401543,-60.028265895593194 L-114.39728861122384,216.65239522885582" stroke="#0d6d4d" stroke-width="0.1" fill="none" />
<path d="M-236.96669037472228,-62.22369044705163 L-154.08069643704192,190.48395991651407" stroke="#0d6d4d" stroke-width="0.1" fill="none" />
<path d="M-236.38076076145296,-64.41378689253358 L-187.96394503939146,157.14501380962943" stroke="#0d6d4d" stroke-width="0.1" fill="none" />
<path d="M-235.7745902763374,-66.59836769790407 L-214.7715453956602,117.8905564002472" stroke="#0d6d4d" stroke-width="0.1" fill="none" />
<path d="M-235.14823082469584,-68.77724580132264 L-233.49436168247087,74.1982685949981" stroke="#0d6d4d" stroke-width="0.1" fill="none" />
<path d="M-234.50173604059458,-70.9502346292618 L-243.42759882758955,27.71288741784459" stroke="#0d6d4d" stroke-width="0.1" fill="none" />
<path d="M-233.83516128225332,-73.1171481124816 L-244.19733356626952,-19.815707888543873" stroke="#0d6d4d" stroke-width="0.1" fill="none" />
<path d="M-233.14856362730472,-75.27780070196414 L-235.7745902763374,-66.59836769790407" stroke="#0d6d4d" stroke-width="0.1" fill="none" />
<path d="M-232.44200186790732,-77.43200738480026 L-218.47643172626258,-110.87402211591191" stroke="#0d6d4d" stroke-width="0.1" fill="none" />
<path d="M-231.715536505711,-79.57958370003273 L-192.9540236764764,-150.9759740722271" stroke="#0d6d4d" stroke-width="0.1" fill="none" />
<path d="M-230.96922974667635,-81.72034575445113 L-160.16812262586694,-185.3946398753353" stroke="#0d6d4d" stroke-width="0.1" fill="none" />
<path d="M-230.20314549574826,-83.85411023833811 L-121.35290943404702,-212.83437544694698" stroke="#0d6d4d" stroke-width="0.1" fill="none" />
<path d="M-229.41734935138348,-85.98069444116666 L-77.9695302537238,-232.26224908928623" stroke="#0d6d4d" stroke-width="0.1" fill="none" />
<path d="M-228.61190859993408,-88.09991626724391 L-31.651093661874633,-242.94692480047414" stroke="#0d6d4d" stroke-width="0.1" fill="none" />
<path d="M-227.78689220988522,-90.21159425130523 L15.858805501736757,-244.48619242823935" stroke="#0d6d4d" stroke-width="0.1" fill="none" />
<path d="M-226.94237082595012,-92.31554757405144 L62.771721401830234,-236.82210832658976" stroke="#0d6d4d" stroke-width="0.1" fill="none" />
<path d="M-226.07841676302033,-94.41159607763281 L107.32168082988716,-220.24317656592186" stroke="#0d6d4d" stroke-width="0.1" fill="none" />
<path d="M-225.19510399997404,-96.49956028107525 L147.83166087481652,-195.37348858786663" stroke="#0d6d4d" stroke-width="0.1" fill="none" />
<path d="M-224.2925081733408,-98.57926139564982 L182.7767181800953,-163.14923012786187" stroke="#0d6d4d" stroke-width="0.1" fill="none" />
<path d="M-223.37070657082543,-100.65052134018086 L210.8413933719617,-124.78343977054693" stroke="#0d6d4d" stroke-width="0.1" fill="none" />
<path d="M-222.42977812468993,-102.71316275629529 L230.96922974667638,-81.72034575445107" stroke="#0d6d4d" stroke-width="0.1" fill="none" />
<path d="M-221.46980340499408,-104.76700902361044 L242.40254215290722,-35.580999955145145" stroke="#0d6d4d" stroke-width="0.1" fill="none" />
<path d="M-220.4908646126975,-106.81188427485546 L244.71093902349975,11.897744418039748" stroke="#0d6d4d" stroke-width="0.1" fill="none" />
<path d="M-219.49304557261948,-108.84761341093333 L237.80752388336,58.92861430973208" stroke="#0d6d4d" stroke-width="0.1" fill="none" />
<path d="M-218.47643172626258,-110.87402211591191 L221.9521664496195,103.74119629308501" stroke="#0d6d4d" stroke-width="0.1" fill="none" />
<path d="M-217.44111012449537,-112.8909368719521 L197.7417201879443,144.64858138645099" stroke="#0d6d4d" stroke-width="0.1" fill="none" />
<path d="M-216.38716942009913,-114.8981849741645 L166.08755457183833,180.11086645826407" stroke="#0d6d4d" stroke-width="0.1" fill="none" />
<path d="M-215.31469986017626,-116.89559454539855 L128.18124781262193,208.79312179571244" stroke="#0d6d4d" stroke-width="0.1" fill="none" />
<path d="M-214.2237932784229,-118.88299455095975 L85.4497315108212,229.61564272655417" stroke="#0d6d4d" stroke-width="0.1" fill="none" />
<path d="M-213.11454308726482,-120.86021481325585 L39.501575747841194,241.79459363980322" stroke="#0d6d4d" stroke-width="0.1" fill="none" />
<path d="M-211.9870442698593,-122.8270860263676 L-7.933563357072276,244.87151441615117" stroke="#0d6d4d" stroke-width="0.1" fill="none" />
<path d="M-210.84139337196174,-124.78343977054682 L-55.07005420983868,238.73057853849687" stroke="#0d6d4d" stroke-width="0.1" fill="none" />
<path d="M-209.67768849365808,-126.72910852663834 L-100.13350742552126,223.60295322437733" stroke="#0d6d4d" stroke-width="0.1" fill="none" />
<path d="M-208.49602928096544,-128.6639256904234 L-141.42757031455977,200.05809744901669" stroke="#0d6d4d" stroke-width="0.1" fill="none" />
<path d="M-207.2965169172992,-130.5877255868862 L-177.3977837832533,168.98232543313551" stroke="#0d6d4d" stroke-width="0.1" fill="none" />
<path d="M-206.07925411480886,-132.5003434844002 L-206.69009784192113,131.54544254400102" stroke="#0d6d4d" stroke-width="0.1" fill="none" />
<path d="M-204.8443451055828,-134.40161560883448 L-228.2018429836563,89.1567095560546" stroke="#0d6d4d" stroke-width="0.1" fill="none" />
<path d="M-203.59189563272366,-136.29137915757605 L-241.1232386851232,43.41179293690952" stroke="#0d6d4d" stroke-width="0.1" fill="none" />
<path d="M-202.3220129412929,-138.169472313472 L-244.9678764980799,-3.9673018566127145" stroke="#0d6d4d" stroke-width="0.1" fill="none" />
<path d="M-201.03480576912847,-140.0357342586841 L-239.59103023691483,-51.19705294266225" stroke="#0d6d4d" stroke-width="0.1" fill="none" />
<path d="M-199.7303843375331,-141.89000518846035 L-225.19510399997404,-96.49956028107525" stroke="#0d6d4d" stroke-width="0.1" fill="none" />
<path d="M-198.40886034183666,-143.73212632481838 L-202.3220129412929,-138.169472313472" stroke="#0d6d4d" stroke-width="0.1" fill="none" />
<path d="M-197.07034694183176,-145.5619399301413 L-171.83278360826534,-174.63818161397307" stroke="#0d6d4d" stroke-width="0.1" fill="none" />
<path d="M-195.71495875208365,-147.37928932068507 L-134.8751417629219,-204.5328729921714" stroke="#0d6d4d" stroke-width="0.1" fill="none" />
<path d="M-194.34281183211692,-149.18401887999397 L-92.84030779940521,-226.72820126246248" stroke="#0d6d4d" stroke-width="0.1" fill="none" />
<path d="M-192.9540236764764,-150.9759740722271 L-47.310626135661614,-240.38865334006857" stroke="#0d6d4d" stroke-width="0.1" fill="none" />
<path d="M-191.54871320466734,-152.75500145538967 L0.0,-245.0" stroke="#0d6d4d" stroke-width="0.1" fill="none" />
<path d="M-190.1270007509719,-154.52094869447293 L47.310626135661536,-240.38865334006857" stroke="#0d6d4d" stroke-width="0.1" fill="none" />
<path d="M-188.68900805414543,-156.2736645744978 L92.84030779940514,-226.72820126246253" stroke="#0d6d4d" stroke-width="0.1" fill="none" />
<path d="M-187.23485824699173,-158.01299901346383 L134.87514176292188,-204.5328729921714" stroke="#0d6d4d" stroke-width="0.1" fill="none" />
<path d="M-185.7646758458202,-159.73880307519943 L171.83278360826526,-174.6381816139732" stroke="#0d6d4d" stroke-width="0.1" fill="none" />
<path d="M-184.2785867397827,-161.45092898211635 L202.32201294129283,-138.1694723134721" stroke="#0d6d4d" stroke-width="0.1" fill="none" />
<path d="M-182.77671818009523,-163.14923012786195 L225.19510399997398,-96.49956028107535" stroke="#0d6d4d" stroke-width="0.1" fill="none" />
<path d="M-181.25919876914037,-164.8335610898741 L239.5910302369148,-51.19705294266237" stroke="#0d6d4d" stroke-width="0.1" fill="none" />
<path d="M-179.72615844945565,-166.5037776418336 L244.9678764980799,-3.9673018566128837" stroke="#0d6d4d" stroke-width="0.1" fill="none" />
<path d="M-178.17772849260732,-168.15973676601277 L241.1232386851232,43.41179293690956" stroke="#0d6d4d" stroke-width="0.1" fill="none" />
<path d="M-176.61404148794892,-169.8012966655233 L228.20184298365635,89.15670955605444" stroke="#0d6d4d" stroke-width="0.1" fill="none" />
<path d="M-175.0352313312688,-171.4283167764568 L206.6900978419211,131.54544254400102" stroke="#0d6d4d" stroke-width="0.1" fill="none" />
<path d="M-173.44143321332413,-173.04065777992184 L177.39778378325326,168.98232543313554" stroke="#0d6d4d" stroke-width="0.1" fill="none" />
<path d="M-171.83278360826534,-174.63818161397307 L141.42757031455972,200.0580974490167" stroke="#0d6d4d" stroke-width="0.1" fill="none" />
<path d="M-170.2094202619493,-176.2207514854341 L100.13350742552122,223.60295322437736" stroke="#0d6d4d" stroke-width="0.1" fill="none" />
<path d="M-168.57148218014538,-177.78823188160942 L55.07005420983874,238.73057853849687" stroke="#0d6d4d" stroke-width="0.1" fill="none" />
<path d="M-166.91910961663154,-179.3404885818898 L7.933563357072228,244.87151441615117" stroke="#0d6d4d" stroke-width="0.1" fill="none" />
<path d="M-165.2524440611857,-180.87738866924383 L-39.50157574784114,241.79459363980322" stroke="#0d6d4d" stroke-width="0.1" fill="none" />
<path d="M-163.5716282274695,-182.39880054160037 L-85.44973151082115,229.6156427265542" stroke="#0d6d4d" stroke-width="0.1" fill="none" />
<path d="M-161.87680604080822,-183.904593923117 L-128.1812478126218,208.79312179571252" stroke="#0d6d4d" stroke-width="0.1" fill="none" />
<path d="M-160.16812262586694,-185.3946398753353 L-166.0875545718383,180.1108664582641" stroke="#0d6d4d" stroke-width="0.1" fill="none" />
<path d="M-158.4457242942229,-186.8688108082221 L-197.74172018794428,144.64858138645104" stroke="#0d6d4d" stroke-width="0.1" fill="none" />
<path d="M-156.7097585318385,-188.32698049109393 L-221.95216644961948,103.74119629308505" stroke="#0d6d4d" stroke-width="0.1" fill="none" />
<path d="M-154.96037398643074,-189.76902406342697 L-237.80752388335995,58.9286143097323" stroke="#0d6d4d" stroke-width="0.1" fill="none" />
<path d="M-153.19772045474417,-191.1948180455476 L-244.71093902349975,11.897744418039753" stroke="#0d6d4d" stroke-width="0.1" fill="none" />
<path d="M-151.4219488697233,-192.60424034920646 L-242.40254215290724,-35.580999955144975" stroke="#0d6d4d" stroke-width="0.1" fill="none" />
<path d="M-149.63321128758884,-193.9971702880323 L-230.96922974667635,-81.72034575445113" stroke="#0d6d4d" stroke-width="0.1" fill="none" />
<path d="M-147.8316608748166,-195.37348858786655 L-210.84139337196174,-124.78343977054682" stroke="#0d6d4d" stroke-width="0.1" fill="none" />
<path d="M-146.01745189502327,-196.73307739697606 L-182.77671818009523,-163.14923012786195" stroke="#0d6d4d" stroke-width="0.1" fill="none" />
<path d="M-144.19073969575638,-198.07582029614474 L-147.8316608748166,-195.37348858786655" stroke="#0d6d4d" stroke-width="0.1" fill="none" />
<path d="M-142.35168069519227,-199.4016023086425 L-107.32168082988724,-220.24317656592183" stroke="#0d6d4d" stroke-width="0.1" fill="none" />
<path d="M-140.5004323687425,-200.71030991007018 L-62.771721401830305,-236.82210832658973" stroke="#0d6d4d" stroke-width="0.1" fill="none" />
<path d="M-138.63715323556886,-202.00183103808092 L-15.858805501736821,-244.48619242823935" stroke="#0d6d4d" stroke-width="0.1" fill="none" />
<path d="M-136.76200284501076,-203.27605510197523 L31.651093661874565,-242.94692480047414" stroke="#0d6d4d" stroke-width="0.1" fill="none" />
<path d="M-134.8751417629219,-204.5328729921714 L77.96953025372373,-232.26224908928626" stroke="#0d6d4d" stroke-width="0.1" fill="none" />
<path d="M-132.97673155792276,-205.77217708954763 L121.35290943404695,-212.834375446947" stroke="#0d6d4d" stroke-width="0.1" fill="none" />
<path d="M-131.06693478756466,-206.99386127465777 L160.16812262586686,-185.39463987533534" stroke="#0d6d4d" stroke-width="0.1" fill="none" />
<path d="M-129.14591498441075,-208.19782093681803 L192.95402367647628,-150.97597407222722" stroke="#0d6d4d" stroke-width="0.1" fill="none" />
<path d="M-127.21383664203306,-209.3839529830644 L218.47643172626252,-110.87402211591206" stroke="#0d6d4d" stroke-width="0.1" fill="none" />
<path d="M-125.27086520092645,-210.55215584698087 L235.7745902763374,-66.59836769790402" stroke="#0d6d4d" stroke-width="0.1" fill="none" />
<path d="M-123.31716703434354,-211.7023294973955 L244.1973335662695,-19.81570788854404" stroke="#0d6d4d" stroke-width="0.1" fill="none" />
<path d="M-121.35290943404702,-212.83437544694698 L243.42759882758955,27.71288741784464" stroke="#0d6d4d" stroke-width="0.1" fill="none" />
<path d="M-119.37826059598598,-213.9481967605169 L233.49436168247092,74.19826859499794" stroke="#0d6d4d" stroke-width="0.1" fill="none" />
<path d="M-117.39338960589288,-215.04369806353088 L214.77154539566018,117.89055640024723" stroke="#0d6d4d" stroke-width="0.1" fill="none" />
<path d="M-115.39846642480539,-216.12078555012488 L187.96394503939158,157.1450138096293" stroke="#0d6d4d" stroke-width="0.1" fill="none" />
<path d="M-113.39366187451219,-217.17936699117806 L154.08069643704195,190.48395991651407" stroke="#0d6d4d" stroke-width="0.1" fill="none" />
<path d="M-111.37914762292714,-218.21935174220962 L114.397288611224,216.65239522885574" stroke="#0d6d4d" stroke-width="0.1" fill="none" />
<path d="M-109.35509616938802,-219.24065075114126 L70.40754972628294,234.66524442605683" stroke="#0d6d4d" stroke-width="0.1" fill="none" />
<path d="M-107.32168082988724,-220.24317656592183 L23.767413949388818,243.84443818582042" stroke="#0d6d4d" stroke-width="0.1" fill="none" />
<path d="M-105.27907572223015,-221.22684334201608 L-23.767413949388647,243.84443818582045" stroke="#0d6d4d" stroke-width="0.1" fill="none" />
<path d="M-103.22745575112594,-222.19156684975545 L-70.4075497262829,234.66524442605686" stroke="#0d6d4d" stroke-width="0.1" fill="none" />
<path d="M-101.16699659321101,-223.1372644815501 L-114.39728861122384,216.65239522885582" stroke="#0d6d4d" stroke-width="0.1" fill="none" />
<path d="M-99.0978746820053,-224.06385525896312 L-154.08069643704192,190.48395991651407" stroke="#0d6d4d" stroke-width="0.1" fill="none" />
<path d="M-97.02026719280576,-224.97125983964392 L-187.96394503939146,157.14501380962943" stroke="#0d6d4d" stroke-width="0.1" fill="none" />
<path d="M-94.9343520275144,-225.85940052412246 L-214.7715453956602,117.8905564002472" stroke="#0d6d4d" stroke-width="0.1" fill="none" />
<path d="M-92.84030779940521,-226.72820126246248 L-233.49436168247087,74.1982685949981" stroke="#0d6d4d" stroke-width="0.1" fill="none" />
<path d="M-90.73831381782908,-227.57758766077376 L-243.42759882758955,27.71288741784459" stroke="#0d6d4d" stroke-width="0.1" fill="none" />
<path d="M-88.62855007286113,-228.40748698758182 L-244.19733356626952,-19.815707888543873" stroke="#0d6d4d" stroke-width="0.1" fill="none" />
<path d="M-86.51119721988705,-229.2178281800563 L-235.7745902763374,-66.59836769790407" stroke="#0d6d4d" stroke-width="0.1" fill="none" />
<path d="M-84.38643656413511,-230.00854185009567 L-218.47643172626258,-110.87402211591191" stroke="#0d6d4d" stroke-width="0.1" fill="none" />
<path d="M-82.25445004515065,-230.77956029026882 L-192.9540236764764,-150.9759740722271" stroke="#0d6d4d" stroke-width="0.1" fill="none" />
<path d="M-80.11542022121705,-231.53081747961286 L-160.16812262586694,-185.3946398753353" stroke="#0d6d4d" stroke-width="0.1" fill="none" />
<path d="M-77.9695302537238,-232.26224908928623 L-121.35290943404702,-212.83437544694698" stroke="#0d6d4d" stroke-width="0.1" fill="none" />
<path d="M-75.8169638914819,-232.97379248807735 L-77.9695302537238,-232.26224908928623" stroke="#0d6d4d" stroke-width="0.1" fill="none" />
<path d="M-73.65790545499121,-233.6653867477671 L-31.651093661874633,-242.94692480047414" stroke="#0d6d4d" stroke-width="0.1" fill="none" />
<path d="M-71.49253982065568,-234.33697264834663 L15.858805501736757,-244.48619242823935" stroke="#0d6d4d" stroke-width="0.1" fill="none" />
<path d="M-69.32105240495429,-234.98849268308774 L62.771721401830234,-236.82210832658976" stroke="#0d6d4d" stroke-width="0.1" fill="none" />
<path d="M-67.14362914856325,-235.61989106346732 L107.32168082988716,-220.24317656592186" stroke="#0d6d4d" stroke-width="0.1" fill="none" />
<path d="M-64.96045650043465,-236.23111372394436 L147.83166087481652,-195.37348858786663" stroke="#0d6d4d" stroke-width="0.1" fill="none" />
<path d="M-62.771721401830305,-236.82210832658973 L182.7767181800953,-163.14923012786187" stroke="#0d6d4d" stroke-width="0.1" fill="none" />
<path d="M-60.57761127031582,-237.39282426556727 L210.8413933719617,-124.78343977054693" stroke="#0d6d4d" stroke-width="0.1" fill="none" />
<path d="M-58.37831398371043,-237.94321267146773 L230.96922974667638,-81.72034575445107" stroke="#0d6d4d" stroke-width="0.1" fill="none" />
<path d="M-56.174017864001854,-238.4732264154926 L242.40254215290722,-35.580999955145145" stroke="#0d6d4d" stroke-width="0.1" fill="none" />
<path d="M-53.96491166121772,-238.9828201134905 L244.71093902349975,11.897744418039748" stroke="#0d6d4d" stroke-width="0.1" fill="none" />
<path d="M-51.75118453726571,-239.4719501298427 L237.80752388336,58.92861430973208" stroke="#0d6d4d" stroke-width="0.1" fill="none" />
<path d="M-49.533026049733856,-239.94057458119997 L221.9521664496195,103.74119629308501" stroke="#0d6d4d" stroke-width="0.1" fill="none" />
<path d="M-47.310626135661614,-240.38865334006857 L197.7417201879443,144.64858138645099" stroke="#0d6d4d" stroke-width="0.1" fill="none" />
<path d="M-45.084175095273096,-240.81614803824672 L166.08755457183833,180.11086645826407" stroke="#0d6d4d" stroke-width="0.1" fill="none" />
<path d="M-42.85386357568352,-241.22302207010986 L128.18124781262193,208.79312179571244" stroke="#0d6d4d" stroke-width="0.1" fill="none" />
<path d="M-40.6198825545744,-241.60924059574498 L85.4497315108212,229.61564272655417" stroke="#0d6d4d" stroke-width="0.1" fill="none" />
<path d="M-38.38242332384091,-241.97477054393394 L39.501575747841194,241.79459363980322" stroke="#0d6d4d" stroke-width="0.1" fill="none" />
<path d="M-36.14167747321016,-242.3195806149855 L-7.933563357072276,244.87151441615117" stroke="#0d6d4d" stroke-width="0.1" fill="none" />
<path d="M-33.89783687383677,-242.64364128341538 L-55.07005420983868,238.73057853849687" stroke="#0d6d4d" stroke-width="0.1" fill="none" />
<path d="M-31.651093661874633,-242.94692480047414 L-100.13350742552126,223.60295322437733" stroke="#0d6d4d" stroke-width="0.1" fill="none" />
<path d="M-29.401640222021715,-243.22940519652389 L-141.42757031455977,200.05809744901669" stroke="#0d6d4d" stroke-width="0.1" fill="none" />
<path d="M-27.149669171049197,-243.49105828326137 L-177.3977837832533,168.98232543313551" stroke="#0d6d4d" stroke-width="0.1" fill="none" />
<path d="M-24.895373341305795,-243.7318616557897 L-206.69009784192113,131.54544254400102" stroke="#0d6d4d" stroke-width="0.1" fill="none" />
<path d="M-22.638945764208497,-243.95179469453637 L-228.2018429836563,89.1567095560546" stroke="#0d6d4d" stroke-width="0.1" fill="none" />
<path d="M-20.380579653710797,-244.15083856701938 L-241.1232386851232,43.41179293690952" stroke="#0d6d4d" stroke-width="0.1" fill="none" />
<path d="M-18.120468389759637,-244.32897622945936 L-244.9678764980799,-3.9673018566127145" stroke="#0d6d4d" stroke-width="0.1" fill="none" />
<path d="M-15.858805501736821,-244.48619242823935 L-239.59103023691483,-51.19705294266225" stroke="#0d6d4d" stroke-width="0.1" fill="none" />
<path d="M-13.595784651886818,-244.6224737012107 L-225.19510399997404,-96.49956028107525" stroke="#0d6d4d" stroke-width="0.1" fill="none" />
<path d="M-11.331599618734202,-244.7378083788459 L-202.3220129412929,-138.169472313472" stroke="#0d6d4d" stroke-width="0.1" fill="none" />
<path d="M-9.066444280489664,-244.83218658523796 L-171.83278360826534,-174.63818161397307" stroke="#0d6d4d" stroke-width="0.1" fill="none" />
<path d="M-6.8005125984509505,-244.90560023894577 L-134.8751417629219,-204.5328729921714" stroke="#0d6d4d" stroke-width="0.1" fill="none" />
<path d="M-4.53399860039146,-244.95804305368634 L-92.84030779940521,-226.72820126246248" stroke="#0d6d4d" stroke-width="0.1" fill="none" />
<path d="M-2.2670963639475175,-244.98951053887302 L-47.310626135661614,-240.38865334006857" stroke="#0d6d4d" stroke-width="0.1" fill="none" />
</svg>