<?xml version="1.0" encoding="UTF-8"?>
<svg xmlns="http://www.w3.org/2000/svg" xmlns:xlink="http://www.w3.org/1999/xlink"
     width="500.0" height="500" viewBox="-250.0 -250.0 500 500">
<defs>
</defs>
<circle cx="0" cy="0" r="245.0" fill="white" stroke-width="2" stroke="black" />
<path d="M0.0,-245.0 L0.0,-245.0" stroke="#0d6d4d" stroke-width="0.1" fill="none" />
<path d="M2.3682406570403254,-244.98855368402488 L49.392967240872615,-239.9694455282632" stroke="#0d6d4d" stroke-width="0.1" fill="none" />
<path d="M4.736260027298074,-244.95421580563544 L96.75757519826833,-225.08436560932316" stroke="#0d6d4d" stroke-width="0.1" fill="none" />
<path d="M7.103836844667556,-244.89698957333948 L140.14876068555742,-200.95602722561557" stroke="#0d6d4d" stroke-width="0.1" fill="none" />
<path d="M9.470749884394916,-244.8168803343169 L177.78463209304982,-168.57527870817512" stroke="#0d6d4d" stroke-width="0.1" fill="none" />
<path d="M11.836777983749231,-244.71389557392004 L208.11964410477265,-129.27185980600254" stroke="#0d6d4d" stroke-width="0.1" fill="none" />
<path d="M14.201700062687797,-244.58804491497423 L229.9080666772503,-84.65979492491715" stroke="#0d6d4d" stroke-width="0.1" fill="none" />
<path d="M16.565295144513694,-244.4393401168788 L242.255141879021,-36.57111200353902" stroke="#0d6d4d" stroke-width="0.1" fill="none" />
<path d="M18.92734237652372,-244.26779507450803 L244.65382779686732,13.019391089478258" stroke="#0d6d4d" stroke-width="0.1" fill="none" />
<path d="M21.287621050644674,-244.07342581691302 L237.00562059266423,62.07524311258149" stroke="#0d6d4d" stroke-width="0.1" fill="none" />
<path d="M23.6459106240562,-243.8562505058239 L219.62459963744743,108.5819286718141" stroke="#0d6d4d" stroke-width="0.1" fill="none" />
<path d="M26.00199073979816,-243.61628943395277 L193.22452960623417,150.62961580794638" stroke="#0d6d4d" stroke-width="0.1" fill="none" />
<path d="M28.355641247360612,-243.3535650230976 L158.88954919575664,186.49158467976304" stroke="#0d6d4d" stroke-width="0.1" fill="none" />
<path d="M30.706642223254544,-243.06810182204708 L118.02965015492023,214.6951366107466" stroke="#0d6d4d" stroke-width="0.1" fill="none" />
<path d="M33.05477399156134,-242.75992650428694 L72.32277491502788,234.08207156591513" stroke="#0d6d4d" stroke-width="0.1" fill="none" />
<path d="M35.39981714445922,-242.42906786550753 L23.645910624056192,243.8562505058239" stroke="#0d6d4d" stroke-width="0.1" fill="none" />
<path d="M37.741552562724465,-242.07555682091305 L-26.001990739798227,243.61628943395277" stroke="#0d6d4d" stroke-width="0.1" fill="none" />
<path d="M40.07976143620585,-241.69942640233307 L-74.58210083189611,233.37204253187844" stroke="#0d6d4d" stroke-width="0.1" fill="none" />
<path d="M42.41422528427003,-241.30071175513592 L-120.09944095786025,213.5441974899094" stroke="#0d6d4d" stroke-width="0.1" fill="none" />
<path d="M44.7447259762163,-240.8794501349447 L-160.68480737146777,184.946999651236" stroke="#0d6d4d" stroke-width="0.1" fill="none" />
<path d="M47.07104575165855,-240.4356809041563 L-194.67153152986975,148.7548144155843" stroke="#0d6d4d" stroke-width="0.1" fill="none" />
<path d="M49.392967240872615,-239.9694455282632 L-220.66392308861919,106.45390104237588" stroke="#0d6d4d" stroke-width="0.1" fill="none" />
<path d="M51.71027348510717,-239.4807875719792 L-237.59458497353648,59.78137829837113" stroke="#0d6d4d" stroke-width="0.1" fill="none" />
<path d="M54.022747956856264,-238.96975269516847 L-244.7682468429511,10.653888371301619" stroke="#0d6d4d" stroke-width="0.1" fill="none" />
<path d="M56.33017458009142,-238.43638864857945 L-241.8903168862843,-38.911111480565125" stroke="#0d6d4d" stroke-width="0.1" fill="none" />
<path d="M58.632337750451654,-237.88074526938274 L-229.07897945792664,-86.87819732542121" stroke="#0d6d4d" stroke-width="0.1" fill="none" />
<path d="M60.92902235538943,-237.3028744765146 L-206.8603417479937,-131.2775647698542" stroke="#0d6d4d" stroke-width="0.1" fill="none" />
<path d="M63.22001379427057,-236.70283026582558 L-176.14682879556807,-170.28592045517104" stroke="#0d6d4d" stroke-width="0.1" fill="none" />
<path d="M65.5050979984265,-236.0806687050351 L-138.1997140694296,-202.30135696808338" stroke="#0d6d4d" stroke-width="0.1" fill="none" />
<path d="M67.78406145115656,-235.43644792849264 L-94.57732432610983,-226.00913637132868" stroke="#0d6d4d" stroke-width="0.1" fill="none" />
<path d="M70.05669120767887,-234.77022813174574 L-47.07104575165853,-240.4356809041563" stroke="#0d6d4d" stroke-width="0.1" fill="none" />
<path d="M72.32277491502784,-234.08207156591516 L2.3682406570403254,-244.98855368402488" stroke="#0d6d4d" stroke-width="0.1" fill="none" />
<path d="M74.5821008318962,-233.3720425318784 L51.71027348510717,-239.4807875719792" stroke="#0d6d4d" stroke-width="0.1" fill="none" />
<path d="M76.83445784842,-232.64020737426145 L98.928785108968,-224.1385631185844" stroke="#0d6d4d" stroke-width="0.1" fill="none" />
<path d="M79.0796355059045,-231.8866344752394 L142.08471189761732,-199.591920289803" stroke="#0d6d4d" stroke-width="0.1" fill="none" />
<path d="M81.31742401648947,-231.11139424814706 L179.4058233164545,-166.8488854027653" stroke="#0d6d4d" stroke-width="0.1" fill="none" />
<path d="M83.54761428275135,-230.31455913089948 L209.35949990475933,-127.25407576824041" stroke="#0d6d4d" stroke-width="0.1" fill="none" />
<path d="M85.76999791724143,-229.4962035792235 L230.7156714445216,-82.43348197124487" stroke="#0d6d4d" stroke-width="0.1" fill="none" />
<path d="M87.98436726195722,-228.65640405970052 L242.5973307174676,-34.227695346891956" stroke="#0d6d4d" stroke-width="0.1" fill="none" />
<path d="M90.19051540774609,-227.7952390426216 L244.51654846492653,15.383677284681783" stroke="#0d6d4d" stroke-width="0.1" fill="none" />
<path d="M92.3882362136385,-226.91278899465524 L236.3945105691701,64.3633076586538" stroke="#0d6d4d" stroke-width="0.1" fill="none" />
<path d="M94.57732432610982,-226.00913637132868 L218.56475461432984,110.69981048031552" stroke="#0d6d4d" stroke-width="0.1" fill="none" />
<path d="M96.75757519826833,-225.08436560932316 L191.75947291508817,152.49034247232694" stroke="#0d6d4d" stroke-width="0.1" fill="none" />
<path d="M98.928785108968,-224.1385631185844 L157.07944448955362,188.01874406253555" stroke="#0d6d4d" stroke-width="0.1" fill="none" />
<path d="M101.09075118184407,-223.17181727424833 L115.94883074242836,215.82601476528194" stroke="#0d6d4d" stroke-width="0.1" fill="none" />
<path d="M103.24327140426963,-222.18421840838363 L70.05669120767888,234.77022813174574" stroke="#0d6d4d" stroke-width="0.1" fill="none" />
<path d="M105.3861446462315,-221.17585880155087 L21.287621050644635,244.07342581691304" stroke="#0d6d4d" stroke-width="0.1" fill="none" />
<path d="M107.51917067912386,-220.14683267418005 L-28.35564124736049,243.35356502309762" stroke="#0d6d4d" stroke-width="0.1" fill="none" />
<path d="M109.6421501944572,-219.09723617776672 L-76.83445784842002,232.64020737426145" stroke="#0d6d4d" stroke-width="0.1" fill="none" />
<path d="M111.75488482248184,-218.02716738588754 L-122.15800975141525,212.3733049457326" stroke="#0d6d4d" stroke-width="0.1" fill="none" />
<path d="M113.8571771507233,-216.93672628503643 L-162.46505126899484,183.38513330191975" stroke="#0d6d4d" stroke-width="0.1" fill="none" />
<path d="M115.94883074242838,-215.8260147652819 L-196.10034347912776,146.86611347539676" stroke="#0d6d4d" stroke-width="0.1" fill="none" />
<path d="M118.02965015492025,-214.69513661074657 L-221.68262785417474,104.31592643344287" stroke="#0d6d4d" stroke-width="0.1" fill="none" />
<path d="M120.09944095786021,-213.54419748990944 L-238.161348679359,57.48192755317781" stroke="#0d6d4d" stroke-width="0.1" fill="none" />
<path d="M122.15800975141535,-212.37330494573257 L-244.85979491194067,8.287390161103032" stroke="#0d6d4d" stroke-width="0.1" fill="none" />
<path d="M124.20516418432966,-211.18256838561206 L-241.5028898282545,-41.2474751300243" stroke="#0d6d4d" stroke-width="0.1" fill="none" />
<path d="M126.24071297189703,-209.97209907115544 L-228.22848725589168,-89.08848188675842" stroke="#0d6d4d" stroke-width="0.1" fill="none" />
<path d="M128.26446591383504,-208.7420101077851 L-205.58171050277093,-133.27100324809925" stroke="#0d6d4d" stroke-width="0.1" fill="none" />
<path d="M130.27623391205688,-207.49241643417005 L-174.49256645922557,-171.9806508025619" stroke="#0d6d4d" stroke-width="0.1" fill="none" />
<path d="M132.2758289883407,-206.2234348114861 L-136.23775416681272,-203.62778381051814" stroke="#0d6d4d" stroke-width="0.1" fill="none" />
<path d="M134.26306430189416,-204.93518381250556 L-92.38823621363841,-226.91278899465527" stroke="#0d6d4d" stroke-width="0.1" fill="none" />
<path d="M136.23775416681258,-203.6277838105182 L-44.744725976216365,-240.8794501349447" stroke="#0d6d4d" stroke-width="0.1" fill="none" />
<path d="M138.19971406942955,-202.3013569680834 L4.736260027298074,-244.95421580563544" stroke="#0d6d4d" stroke-width="0.1" fill="none" />
<path d="M140.14876068555742,-200.95602722561557 L54.022747956856264,-238.96975269516847" stroke="#0d6d4d" stroke-width="0.1" fill="none" />
<path d="M142.08471189761732,-199.591920289803 L101.09075118184407,-223.17181727424833" stroke="#0d6d4d" stroke-width="0.1" fill="none" />
<path d="M144.00738681165592,-198.20916362186213 L144.00738681165592,-198.20916362186213" stroke="#0d6d4d" stroke-width="0.1" fill="none" />
<path d="M145.91660577424798,-196.80788642562752 L181.01025098278606,-165.106901851948" stroke="#0d6d4d" stroke-width="0.1" fill="none" />
<path d="M147.81219038928324,-195.3882196354793 L210.57979329667825,-125.22440119692433" stroke="#0d6d4d" stroke-width="0.1" fill="none" />
<path d="M149.6939635346355,-193.95029590410846 L231.50171829770503,-80.19946648955981" stroke="#0d6d4d" stroke-width="0.1" fill="none" />
<path d="M151.5617493787127,-192.49424959012225 L242.91685142773366,-31.881080477869105" stroke="#0d6d4d" stroke-width="0.1" fill="none" />
<path d="M153.41537339688685,-191.02021674548948 L244.35642167441534,17.74652603963176" stroke="#0d6d4d" stroke-width="0.1" fill="none" />
<path d="M155.25466238780106,-189.52833510282812 L235.76131200475552,66.64535814140639" stroke="#0d6d4d" stroke-width="0.1" fill="none" />
<path d="M157.07944448955362,-188.01874406253555 L217.4844870504585,112.80734857445658" stroke="#0d6d4d" stroke-width="0.1" fill="none" />
<path d="M158.88954919575662,-186.49158467976306 L190.27649835032426,154.33682054370254" stroke="#0d6d4d" stroke-width="0.1" fill="none" />
<path d="M160.68480737146785,-184.94699965123596 L155.25466238780106,189.52833510282815" stroke="#0d6d4d" stroke-width="0.1" fill="none" />
<path d="M162.4650512689948,-183.38513330191978 L113.85717715072333,216.9367262850364" stroke="#0d6d4d" stroke-width="0.1" fill="none" />
<path d="M164.2301145435688,-181.80613157153496 L67.78406145115653,235.43644792849264" stroke="#0d6d4d" stroke-width="0.1" fill="none" />
<path d="M165.97983226888815,-180.21014200092003 L18.92734237652376,244.26779507450803" stroke="#0d6d4d" stroke-width="0.1" fill="none" />
<path d="M167.7140409525287,-178.59731371824583 L-30.70664222325456,243.06810182204708" stroke="#0d6d4d" stroke-width="0.1" fill="none" />
<path d="M169.43257855122067,-176.96779742508076 L-79.07963550590448,231.88663447523942" stroke="#0d6d4d" stroke-width="0.1" fill="none" />
<path d="M171.13528448598956,-175.32174538230967 L-124.20516418432966,211.18256838561206" stroke="#0d6d4d" stroke-width="0.1" fill="none" />
<path d="M172.82199965716072,-173.65931139590626 L-164.2301145435688,181.80613157153496" stroke="#0d6d4d" stroke-width="0.1" fill="none" />
<path d="M174.49256645922557,-171.98065080256194 L-197.51083194679987,144.9636894663039" stroke="#0d6d4d" stroke-width="0.1" fill="none" />
<path d="M176.14682879556796,-170.28592045517115 L-222.68061874703957,102.16820461589604" stroke="#0d6d4d" stroke-width="0.1" fill="none" />
<path d="M177.78463209304982,-168.57527870817512 L-238.70585875212,55.177105736101566" stroke="#0d6d4d" stroke-width="0.1" fill="none" />
<path d="M179.4058233164545,-166.8488854027653 L-244.92846344964727,5.920117582852472" stroke="#0d6d4d" stroke-width="0.1" fill="none" />
<path d="M181.01025098278606,-165.106901851948 L-241.09289690585013,-43.579984643699895" stroke="#0d6d4d" stroke-width="0.1" fill="none" />
<path d="M182.59776517542386,-163.3494908254714 L-227.35666954055344,-91.29044208145545" stroke="#0d6d4d" stroke-width="0.1" fill="none" />
<path d="M184.16821755813066,-161.57681653461628 L-204.2838698435308,-135.2519889752139" stroke="#0d6d4d" stroke-width="0.1" fill="none" />
<path d="M185.72146138891304,-159.7890446168525 L-172.82199965716077,-173.6593113959062" stroke="#0d6d4d" stroke-width="0.1" fill="none" />
<path d="M187.25735153373284,-157.98634212036183 L-134.26306430189416,-204.93518381250556" stroke="#0d6d4d" stroke-width="0.1" fill="none" />
<path d="M188.77574448006834,-156.168877488429 L-90.19051540774626,-227.79523904262152" stroke="#0d6d4d" stroke-width="0.1" fill="none" />
<path d="M190.2764983503242,-154.3368205437026 L-42.41422528426995,-241.30071175513592" stroke="#0d6d4d" stroke-width="0.1" fill="none" />
<path d="M191.75947291508817,-152.49034247232694 L7.103836844667556,-244.89698957333948" stroke="#0d6d4d" stroke-width="0.1" fill="none" />
<path d="M193.22452960623417,-150.62961580794638 L56.33017458009142,-238.43638864857945" stroke="#0d6d4d" stroke-width="0.1" fill="none" />
<path d="M194.67153152986978,-148.75481441558426 L103.24327140426963,-222.18421840838363" stroke="#0d6d4d" stroke-width="0.1" fill="none" />
<path d="M196.10034347912784,-146.86611347539665 L145.91660577424798,-196.80788642562752" stroke="#0d6d4d" stroke-width="0.1" fill="none" />
<path d="M197.51083194679984,-144.96368946630392 L182.59776517542386,-163.3494908254714" stroke="#0d6d4d" stroke-width="0.1" fill="none" />
<path d="M198.90286513781086,-143.04772014950058 L211.78041025715186,-123.18302574345398" stroke="#0d6d4d" stroke-width="0.1" fill="none" />
<path d="M200.27631298153432,-141.11838455184534 L232.26613378912177,-77.95795722473618" stroke="#0d6d4d" stroke-width="0.1" fill="none" />
<path d="M201.6310471439458,-139.17586294913318 L243.2136741540232,-29.53148666255419" stroke="#0d6d4d" stroke-width="0.1" fill="none" />
<path d="M202.96694103961437,-137.2203368492502 L244.17346238747118,20.107716571361298" stroke="#0d6d4d" stroke-width="0.1" fill="none" />
<path d="M204.2838698435308,-135.25198897521383 L235.10608406505995,68.92118132760753" stroke="#0d6d4d" stroke-width="0.1" fill="none" />
<path d="M205.5817105027709,-133.2710032480993 L216.38389788529358,114.90434602732327" stroke="#0d6d4d" stroke-width="0.1" fill="none" />
<path d="M206.8603417479937,-131.2775647698542 L188.77574448006837,156.16887748842896" stroke="#0d6d4d" stroke-width="0.1" fill="none" />
<path d="M208.11964410477265,-129.27185980600254 L153.4153733968869,191.02021674548945" stroke="#0d6d4d" stroke-width="0.1" fill="none" />
<path d="M209.35949990475933,-127.25407576824041 L111.75488482248186,218.02716738588754" stroke="#0d6d4d" stroke-width="0.1" fill="none" />
<path d="M210.57979329667825,-125.22440119692433 L65.50509799842656,236.08066870503507" stroke="#0d6d4d" stroke-width="0.1" fill="none" />
<path d="M211.78041025715186,-123.18302574345398 L16.56529514451371,244.4393401168788" stroke="#0d6d4d" stroke-width="0.1" fill="none" />
<path d="M212.96123860135492,-121.13014015255152 L-33.05477399156128,242.75992650428694" stroke="#0d6d4d" stroke-width="0.1" fill="none" />
<path d="M214.1221679934969,-119.06593624443849 L-81.31742401648945,231.11139424814706" stroke="#0d6d4d" stroke-width="0.1" fill="none" />
<path d="M215.26308995713168,-116.9906068969122 L-126.24071297189698,209.97209907115547" stroke="#0d6d4d" stroke-width="0.1" fill="none" />
<path d="M216.38389788529352,-114.90434602732334 L-165.97983226888812,180.21014200092003" stroke="#0d6d4d" stroke-width="0.1" fill="none" />
<path d="M217.4844870504585,-112.80734857445655 L-198.9028651378108,143.0477201495006" stroke="#0d6d4d" stroke-width="0.1" fill="none" />
<path d="M218.56475461432984,-110.69981048031555 L-223.6578025156293,100.01093627138866" stroke="#0d6d4d" stroke-width="0.1" fill="none" />
<path d="M219.62459963744743,-108.58192867181413 L-239.22806431317161,52.867128208112696" stroke="#0d6d4d" stroke-width="0.1" fill="none" />
<path d="M220.66392308861919,-106.45390104237585 L-244.97424603972985,3.5522918328754653" stroke="#0d6d4d" stroke-width="0.1" fill="none" />
<path d="M221.6826278541748,-104.3159264334428 L-240.66037642852874,-45.90842207350244" stroke="#0d6d4d" stroke-width="0.1" fill="none" />
<path d="M222.68061874703966,-102.16820461589592 L-226.46360777396117,-93.4838721598623" stroke="#0d6d4d" stroke-width="0.1" fill="none" />
<path d="M223.6578025156293,-100.01093627138863 L-202.9669410396144,-137.22033684925017" stroke="#0d6d4d" stroke-width="0.1" fill="none" />
<path d="M224.61408785256268,-97.84432297359544 L-171.1352844859895,-175.32174538230973" stroke="#0d6d4d" stroke-width="0.1" fill="none" />
<path d="M225.54938540319384,-95.66856716937666 L-132.27582898834078,-206.22343481148602" stroke="#0d6d4d" stroke-width="0.1" fill="none" />
<path d="M226.46360777396114,-93.48387215986236 L-87.98436726195727,-228.65640405970052" stroke="#0d6d4d" stroke-width="0.1" fill="none" />
<path d="M227.35666954055338,-91.29044208145561 L-40.07976143620585,-241.69942640233307" stroke="#0d6d4d" stroke-width="0.1" fill="none" />
<path d="M228.22848725589165,-89.08848188675852 L9.470749884394916,-244.8168803343169" stroke="#0d6d4d" stroke-width="0.1" fill="none" />
<path d="M229.0789794579266,-86.87819732542127 L58.632337750451654,-237.88074526938274" stroke="#0d6d4d" stroke-width="0.1" fill="none" />
<path d="M229.9080666772503,-84.65979492491715 L105.3861446462315,-221.17585880155087" stroke="#0d6d4d" stroke-width="0.1" fill="none" />
<path d="M230.7156714445216,-82.43348197124487 L147.81219038928324,-195.3882196354793" stroke="#0d6d4d" stroke-width="0.1" fill="none" />
<path d="M231.50171829770503,-80.19946648955981 L184.16821755813066,-161.57681653461628" stroke="#0d6d4d" stroke-width="0.1" fill="none" />
<path d="M232.26613378912177,-77.95795722473618 L212.96123860135492,-121.13014015255152" stroke="#0d6d4d" stroke-width="0.1" fill="none" />
<path d="M233.0088464923126,-75.70916362186213 L233.0088464923126,-75.70916362186213" stroke="#0d6d4d" stroke-width="0.1" fill="none" />
<path d="M233.72978700871207,-73.45329580666949 L243.48777116142432,-27.17913344538163" stroke="#0d6d4d" stroke-width="0.1" fill="none" />
<path d="M234.42888797413275,-71.19056456589962 L243.96768769968438,22.46702825184659" stroke="#0d6d4d" stroke-width="0.1" fill="none" />
<path d="M235.10608406505995,-68.92118132760756 L234.42888797413275,71.19056456589959" stroke="#0d6d4d" stroke-width="0.1" fill="none" />
<path d="M235.76131200475552,-66.64535814140642 L215.26308995713168,116.99060689691217" stroke="#0d6d4d" stroke-width="0.1" fill="none" />
<path d="M236.3945105691701,-64.36330765865382 L187.25735153373284,157.98634212036183" stroke="#0d6d4d" stroke-width="0.1" fill="none" />
<path d="M237.00562059266423,-62.07524311258146 L151.56174937871273,192.49424959012225" stroke="#0d6d4d" stroke-width="0.1" fill="none" />
<path d="M237.59458497353648,-59.78137829837115 L109.64215019445719,219.09723617776672" stroke="#0d6d4d" stroke-width="0.1" fill="none" />
<path d="M238.161348679359,-57.481927553177776 L63.220013794270606,236.70283026582558" stroke="#0d6d4d" stroke-width="0.1" fill="none" />
<path d="M238.70585875211998,-55.177105736101694 L14.201700062687781,244.58804491497426" stroke="#0d6d4d" stroke-width="0.1" fill="none" />
<path d="M239.22806431317167,-52.867128208112504 L-35.39981714445919,242.42906786550753" stroke="#0d6d4d" stroke-width="0.1" fill="none" />
<path d="M239.7279165679846,-50.55221081192609 L-83.54761428275127,230.3145591308995" stroke="#0d6d4d" stroke-width="0.1" fill="none" />
<path d="M240.205368810707,-48.23256985183599 L-128.264465913835,208.74201010778512" stroke="#0d6d4d" stroke-width="0.1" fill="none" />
<path d="M240.6603764285287,-45.90842207350256 L-167.71404095252865,178.59731371824589" stroke="#0d6d4d" stroke-width="0.1" fill="none" />
<path d="M241.09289690585013,-43.5799846436999 L-200.27631298153437,141.1183845518453" stroke="#0d6d4d" stroke-width="0.1" fill="none" />
<path d="M241.50288982825444,-41.24747513002446 L-224.61408785256265,97.8443229735955" stroke="#0d6d4d" stroke-width="0.1" fill="none" />
<path d="M241.89031688628427,-38.91111148056524 L-239.7279165679846,50.552210811926116" stroke="#0d6d4d" stroke-width="0.1" fill="none" />
<path d="M242.255141879021,-36.57111200353902 L-244.99713840429453,1.1841341591863905" stroke="#0d6d4d" stroke-width="0.1" fill="none" />
<path d="M242.5973307174676,-34.227695346891956 L-240.20536881070697,-48.23256985183604" stroke="#0d6d4d" stroke-width="0.1" fill="none" />
<path d="M242.91685142773366,-31.881080477869105 L-225.5493854031939,-95.66856716937656" stroke="#0d6d4d" stroke-width="0.1" fill="none" />
<path d="M243.2136741540232,-29.53148666255419 L-201.63104714394586,-139.17586294913312" stroke="#0d6d4d" stroke-width="0.1" fill="none" />
<path d="M243.48777116142432,-27.17913344538163 L-169.43257855122067,-176.96779742508076" stroke="#0d6d4d" stroke-width="0.1" fill="none" />
<path d="M243.7391168385006,-24.82424062862263 L-130.27623391205685,-207.49241643417008" stroke="#0d6d4d" stroke-width="0.1" fill="none" />
<path d="M243.96768769968438,-22.467028251846614 L-85.76999791724154,-229.49620357922348" stroke="#0d6d4d" stroke-width="0.1" fill="none" />
<path d="M244.17346238747118,-20.10771657136127 L-37.74155256272455,-242.07555682091305" stroke="#0d6d4d" stroke-width="0.1" fill="none" />
<path d="M244.35642167441534,-17.74652603963179 L11.836777983749231,-244.71389557392004" stroke="#0d6d4d" stroke-width="0.1" fill="none" />
<path d="M244.51654846492653,-15.383677284681811 L60.92902235538943,-237.3028744765146" stroke="#0d6d4d" stroke-width="0.1" fill="none" />
<path d="M244.65382779686732,-13.019391089478235 L107.51917067912386,-220.14683267418005" stroke="#0d6d4d" stroke-width="0.1" fill="none" />
<path d="M244.7682468429511,-10.653888371301482 L149.6939635346355,-193.95029590410846" stroke="#0d6d4d" stroke-width="0.1" fill="none" />
<path d="M244.85979491194067,-8.287390161103056 L185.72146138891304,-159.7890446168525" stroke="#0d6d4d" stroke-width="0.1" fill="none" />
<path d="M244.92846344964727,-5.920117582852443 L214.1221679934969,-119.06593624443849" stroke="#0d6d4d" stroke-width="0.1" fill="none" />
<path d="M244.97424603972985,-3.552291832875544 L233.72978700871207,-73.45329580666949" stroke="#0d6d4d" stroke-width="0.1" fill="none" />
<path d="M244.99713840429453,-1.184134159186415 L243.7391168385006,-24.82424062862263" stroke="#0d6d4d" stroke-width="0.1" fill="none" />
<path d="M244.99713840429453,1.1841341591863304 L243.7391168385006,24.82424062862255" stroke="#0d6d4d" stroke-width="0.1" fill="none" />
<path d="M244.97424603972985,3.552291832875514 L233.72978700871207,73.45329580666946" stroke="#0d6d4d" stroke-width="0.1" fill="none" />
<path d="M244.92846344964727,5.920117582852358 L214.1221679934969,119.06593624443849" stroke="#0d6d4d" stroke-width="0.1" fill="none" />
<path d="M244.85979491194067,8.287390161103081 L185.7214613889131,159.78904461685244" stroke="#0d6d4d" stroke-width="0.1" fill="none" />
<path d="M244.7682468429511,10.653888371301505 L149.6939635346355,193.95029590410846" stroke="#0d6d4d" stroke-width="0.1" fill="none" />
<path d="M244.65382779686732,13.019391089478258 L107.5191706791239,220.14683267418002" stroke="#0d6d4d" stroke-width="0.1" fill="none" />
<path d="M244.51654846492653,15.383677284681783 L60.92902235538943,237.3028744765146" stroke="#0d6d4d" stroke-width="0.1" fill="none" />
<path d="M244.35642167441534,17.74652603963176 L11.836777983749295,244.71389557392" stroke="#0d6d4d" stroke-width="0.1" fill="none" />
<path d="M244.17346238747118,20.107716571361298 L-37.74155256272436,242.07555682091308" stroke="#0d6d4d" stroke-width="0.1" fill="none" />
<path d="M243.96768769968438,22.46702825184659 L-85.76999791724135,229.49620357922353" stroke="#0d6d4d" stroke-width="0.1" fill="none" />
<path d="M243.7391168385006,24.82424062862255 L-130.27623391205677,207.4924164341701" stroke="#0d6d4d" stroke-width="0.1" fill="none" />
<path d="M243.48777116142435,27.17913344538155 L-169.43257855122062,176.96779742508085" stroke="#0d6d4d" stroke-width="0.1" fill="none" />
<path d="M243.2136741540232,29.53148666255411 L-201.6310471439458,139.1758629491332" stroke="#0d6d4d" stroke-width="0.1" fill="none" />
<path d="M242.9168514277337,31.881080477869023 L-225.54938540319384,95.66856716937663" stroke="#0d6d4d" stroke-width="0.1" fill="none" />
<path d="M242.5973307174676,34.227695346891984 L-240.20536881070697,48.23256985183614" stroke="#0d6d4d" stroke-width="0.1" fill="none" />
<path d="M242.255141879021,36.57111200353899 L-244.99713840429453,-1.1841341591863004" stroke="#0d6d4d" stroke-width="0.1" fill="none" />
<path d="M241.89031688628427,38.91111148056521 L-239.7279165679846,-50.55221081192603" stroke="#0d6d4d" stroke-width="0.1" fill="none" />
<path d="M241.50288982825447,41.24747513002444 L-224.61408785256268,-97.84432297359544" stroke="#0d6d4d" stroke-width="0.1" fill="none" />
<path d="M241.09289690585013,43.57998464369987 L-200.27631298153443,-141.1183845518452" stroke="#0d6d4d" stroke-width="0.1" fill="none" />
<path d="M240.66037642852874,45.90842207350253 L-167.7140409525288,-178.59731371824577" stroke="#0d6d4d" stroke-width="0.1" fill="none" />
<path d="M240.205368810707,48.23256985183597 L-128.26446591383507,-208.74201010778506" stroke="#0d6d4d" stroke-width="0.1" fill="none" />
<path d="M239.7279165679846,50.55221081192601 L-83.54761428275134,-230.31455913089948" stroke="#0d6d4d" stroke-width="0.1" fill="none" />
<path d="M239.22806431317167,52.867128208112476 L-35.39981714445938,-242.4290678655075" stroke="#0d6d4d" stroke-width="0.1" fill="none" />
<path d="M238.70585875211998,55.17710573610161 L14.201700062687797,-244.58804491497423" stroke="#0d6d4d" stroke-width="0.1" fill="none" />
<path d="M238.161348679359,57.481927553177805 L63.22001379427057,-236.70283026582558" stroke="#0d6d4d" stroke-width="0.1" fill="none" />
<path d="M237.59458497353646,59.78137829837117 L109.6421501944572,-219.09723617776672" stroke="#0d6d4d" stroke-width="0.1" fill="none" />
<path d="M237.00562059266423,62.07524311258149 L151.5617493787127,-192.49424959012225" stroke="#0d6d4d" stroke-width="0.1" fill="none" />
<path d="M236.3945105691701,64.3633076586538 L187.25735153373284,-157.98634212036183" stroke="#0d6d4d" stroke-width="0.1" fill="none" />
<path d="M235.76131200475552,66.64535814140639 L215.26308995713168,-116.9906068969122" stroke="#0d6d4d" stroke-width="0.1" fill="none" />
<path d="M235.10608406505995,68.92118132760753 L234.42888797413275,-71.19056456589962" stroke="#0d6d4d" stroke-width="0.1" fill="none" />
<path d="M234.42888797413275,71.19056456589959 L243.96768769968438,-22.467028251846614" stroke="#0d6d4d" stroke-width="0.1" fill="none" />
<path d="M233.72978700871207,73.45329580666946 L243.48777116142435,27.17913344538155" stroke="#0d6d4d" stroke-width="0.1" fill="none" />
<path d="M233.00884649231264,75.7091636218621 L233.00884649231264,75.7091636218621" stroke="#0d6d4d" stroke-width="0.1" fill="none" />
<path d="M232.2661337891218,77.95795722473609 L212.96123860135498,121.13014015255145" stroke="#0d6d4d" stroke-width="0.1" fill="none" />
<path d="M231.50171829770505,80.19946648955973 L184.16821755813072,161.57681653461623" stroke="#0d6d4d" stroke-width="0.1" fill="none" />
<path d="M230.7156714445216,82.4334819712449 L147.8121903892833,195.38821963547923" stroke="#0d6d4d" stroke-width="0.1" fill="none" />
<path d="M229.90806667725033,84.65979492491712 L105.38614464623154,221.17585880155087" stroke="#0d6d4d" stroke-width="0.1" fill="none" />
<path d="M229.07897945792664,86.87819732542124 L58.63233775045173,237.88074526938271" stroke="#0d6d4d" stroke-width="0.1" fill="none" />
<path d="M228.22848725589165,89.0884818867585 L9.470749884394952,244.8168803343169" stroke="#0d6d4d" stroke-width="0.1" fill="none" />
<path d="M227.35666954055338,91.29044208145558 L-40.079761436205864,241.69942640233307" stroke="#0d6d4d" stroke-width="0.1" fill="none" />
<path d="M226.46360777396114,93.48387215986233 L-87.9843672619573,228.6564040597005" stroke="#0d6d4d" stroke-width="0.1" fill="none" />
<path d="M225.54938540319384,95.66856716937663 L-132.27582898834072,206.22343481148607" stroke="#0d6d4d" stroke-width="0.1" fill="none" />
<path d="M224.6140878525627,97.84432297359535 L-171.13528448598944,175.32174538230979" stroke="#0d6d4d" stroke-width="0.1" fill="none" />
<path d="M223.65780251562933,100.0109362713886 L-202.96694103961434,137.22033684925026" stroke="#0d6d4d" stroke-width="0.1" fill="none" />
<path d="M222.68061874703966,102.16820461589589 L-226.46360777396114,93.48387215986239" stroke="#0d6d4d" stroke-width="0.1" fill="none" />
<path d="M221.68262785417477,104.31592643344283 L-240.66037642852874,45.908422073502535" stroke="#0d6d4d" stroke-width="0.1" fill="none" />
<path d="M220.66392308861916,106.45390104237592 L-244.97424603972985,-3.552291832875375" stroke="#0d6d4d" stroke-width="0.1" fill="none" />
<path d="M219.62459963744743,108.5819286718141 L-239.2280643131717,-52.8671282081124" stroke="#0d6d4d" stroke-width="0.1" fill="none" />
<path d="M218.56475461432984,110.69981048031552 L-223.65780251562933,-100.01093627138859" stroke="#0d6d4d" stroke-width="0.1" fill="none" />
<path d="M217.4844870504585,112.80734857445658 L-198.9028651378109,-143.04772014950052" stroke="#0d6d4d" stroke-width="0.1" fill="none" />
<path d="M216.38389788529358,114.90434602732327 L-165.9798322688883,-180.21014200091992" stroke="#0d6d4d" stroke-width="0.1" fill="none" />
<path d="M215.26308995713168,116.99060689691217 L-126.24071297189714,-209.97209907115536" stroke="#0d6d4d" stroke-width="0.1" fill="none" />
<path d="M214.1221679934969,119.06593624443849 L-81.31742401648954,-231.11139424814704" stroke="#0d6d4d" stroke-width="0.1" fill="none" />
<path d="M212.96123860135498,121.13014015255145 L-33.05477399156137,-242.75992650428694" stroke="#0d6d4d" stroke-width="0.1" fill="none" />
<path d="M211.7804102571519,123.18302574345391 L16.565295144513694,-244.4393401168788" stroke="#0d6d4d" stroke-width="0.1" fill="none" />
<path d="M210.57979329667828,125.22440119692428 L65.5050979984265,-236.0806687050351" stroke="#0d6d4d" stroke-width="0.1" fill="none" />
<path d="M209.35949990475933,127.25407576824041 L111.75488482248184,-218.02716738588754" stroke="#0d6d4d" stroke-width="0.1" fill="none" />
<path d="M208.11964410477265,129.27185980600254 L153.41537339688685,-191.02021674548948" stroke="#0d6d4d" stroke-width="0.1" fill="none" />
<path d="M206.86034174799371,131.27756476985414 L188.77574448006834,-156.168877488429" stroke="#0d6d4d" stroke-width="0.1" fill="none" />
<path d="M205.58171050277093,133.27100324809928 L216.38389788529352,-114.90434602732334" stroke="#0d6d4d" stroke-width="0.1" fill="none" />
<path d="M204.28386984353082,135.2519889752138 L235.10608406505995,-68.92118132760756" stroke="#0d6d4d" stroke-width="0.1" fill="none" />
<path d="M202.96694103961445,137.22033684925012 L244.17346238747118,-20.10771657136127" stroke="#0d6d4d" stroke-width="0.1" fill="none" />
<path d="M201.63104714394586,139.17586294913312 L243.2136741540232,29.53148666255411" stroke="#0d6d4d" stroke-width="0.1" fill="none" />
<path d="M200.27631298153435,141.11838455184534 L232.2661337891218,77.95795722473609" stroke="#0d6d4d" stroke-width="0.1" fill="none" />
<path d="M198.90286513781092,143.04772014950046 L211.7804102571519,123.18302574345391" stroke="#0d6d4d" stroke-width="0.1" fill="none" />
<path d="M197.5108319467999,144.96368946630383 L182.59776517542392,163.34949082547138" stroke="#0d6d4d" stroke-width="0.1" fill="none" />
<path d="M196.10034347912787,146.8661134753966 L145.916605774248,196.8078864256275" stroke="#0d6d4d" stroke-width="0.1" fill="none" />
<path d="M194.6715315298698,148.75481441558424 L103.24327140426963,222.18421840838363" stroke="#0d6d4d" stroke-width="0.1" fill="none" />
<path d="M193.22452960623417,150.62961580794638 L56.33017458009148,238.43638864857942" stroke="#0d6d4d" stroke-width="0.1" fill="none" />
<path d="M191.75947291508817,152.49034247232694 L7.103836844667562,244.89698957333948" stroke="#0d6d4d" stroke-width="0.1" fill="none" />
<path d="M190.27649835032426,154.33682054370254 L-42.41422528427008,241.30071175513592" stroke="#0d6d4d" stroke-width="0.1" fill="none" />
<path d="M188.77574448006837,156.16887748842896 L-90.19051540774609,227.7952390426216" stroke="#0d6d4d" stroke-width="0.1" fill="none" />
<path d="M187.25735153373284,157.98634212036183 L-134.2630643018942,204.93518381250553" stroke="#0d6d4d" stroke-width="0.1" fill="none" />
<path d="M185.7214613889131,159.78904461685244 L-172.82199965716072,173.65931139590626" stroke="#0d6d4d" stroke-width="0.1" fill="none" />
<path d="M184.16821755813072,161.57681653461623 L-204.28386984353082,135.25198897521378" stroke="#0d6d4d" stroke-width="0.1" fill="none" />
<path d="M182.59776517542392,163.34949082547138 L-227.35666954055333,91.29044208145574" stroke="#0d6d4d" stroke-width="0.1" fill="none" />
<path d="M181.01025098278612,165.10690185194792 L-241.09289690585013,43.57998464369999" stroke="#0d6d4d" stroke-width="0.1" fill="none" />
<path d="M179.40582331645456,166.84888540276526 L-244.92846344964727,-5.920117582852383" stroke="#0d6d4d" stroke-width="0.1" fill="none" />
<path d="M177.78463209304982,168.5752787081751 L-238.70585875212,-55.17710573610147" stroke="#0d6d4d" stroke-width="0.1" fill="none" />
<path d="M176.14682879556796,170.28592045517115 L-222.68061874703972,-102.16820461589577" stroke="#0d6d4d" stroke-width="0.1" fill="none" />
<path d="M174.49256645922557,171.98065080256194 L-197.5108319467999,-144.9636894663038" stroke="#0d6d4d" stroke-width="0.1" fill="none" />
<path d="M172.82199965716075,173.6593113959062 L-164.23011454356885,-181.8061315715349" stroke="#0d6d4d" stroke-width="0.1" fill="none" />
<path d="M171.13528448598956,175.32174538230967 L-124.20516418432982,-211.18256838561197" stroke="#0d6d4d" stroke-width="0.1" fill="none" />
<path d="M169.43257855122067,176.96779742508082 L-79.07963550590445,-231.88663447523942" stroke="#0d6d4d" stroke-width="0.1" fill="none" />
<path d="M167.71404095252876,178.59731371824577 L-30.706642223254644,-243.06810182204705" stroke="#0d6d4d" stroke-width="0.1" fill="none" />
<path d="M165.97983226888817,180.21014200092 L18.92734237652372,-244.26779507450803" stroke="#0d6d4d" stroke-width="0.1" fill="none" />
<path d="M164.23011454356882,181.8061315715349 L67.78406145115656,-235.43644792849264" stroke="#0d6d4d" stroke-width="0.1" fill="none" />
<path d="M162.46505126899487,183.38513330191972 L113.8571771507233,-216.93672628503643" stroke="#0d6d4d" stroke-width="0.1" fill="none" />
<path d="M160.68480737146783,184.94699965123598 L155.25466238780106,-189.52833510282812" stroke="#0d6d4d" stroke-width="0.1" fill="none" />
<path d="M158.88954919575664,186.49158467976304 L190.2764983503242,-154.3368205437026" stroke="#0d6d4d" stroke-width="0.1" fill="none" />
<path d="M157.07944448955362,188.01874406253555 L217.4844870504585,-112.80734857445655" stroke="#0d6d4d" stroke-width="0.1" fill="none" />
<path d="M155.25466238780106,189.52833510282815 L235.76131200475552,-66.64535814140642" stroke="#0d6d4d" stroke-width="0.1" fill="none" />
<path d="M153.4153733968869,191.02021674548945 L244.35642167441534,-17.74652603963179" stroke="#0d6d4d" stroke-width="0.1" fill="none" />
<path d="M151.56174937871273,192.49424959012225 L242.9168514277337,31.881080477869023" stroke="#0d6d4d" stroke-width="0.1" fill="none" />
<path d="M149.6939635346355,193.95029590410846 L231.50171829770505,80.19946648955973" stroke="#0d6d4d" stroke-width="0.1" fill="none" />
<path d="M147.8121903892833,195.38821963547923 L210.57979329667828,125.22440119692428" stroke="#0d6d4d" stroke-width="0.1" fill="none" />
<path d="M145.916605774248,196.8078864256275 L181.01025098278612,165.10690185194792" stroke="#0d6d4d" stroke-width="0.1" fill="none" />
<path d="M144.00738681165595,198.2091636218621 L144.00738681165595,198.2091636218621" stroke="#0d6d4d" stroke-width="0.1" fill="none" />
<path d="M142.08471189761744,199.59192028980294 L101.09075118184415,223.1718172742483" stroke="#0d6d4d" stroke-width="0.1" fill="none" />
<path d="M140.14876068555742,200.9560272256156 L54.0227479568563,238.96975269516847" stroke="#0d6d4d" stroke-width="0.1" fill="none" />
<path d="M138.1997140694296,202.30135696808338 L4.736260027298161,244.95421580563544" stroke="#0d6d4d" stroke-width="0.1" fill="none" />
<path d="M136.2377541668126,203.62778381051817 L-44.74472597621627,240.8794501349447" stroke="#0d6d4d" stroke-width="0.1" fill="none" />
<path d="M134.26306430189416,204.93518381250556 L-92.38823621363854,226.91278899465524" stroke="#0d6d4d" stroke-width="0.1" fill="none" />
<path d="M132.27582898834075,206.22343481148604 L-136.23775416681255,203.6277838105182" stroke="#0d6d4d" stroke-width="0.1" fill="none" />
<path d="M130.2762339120569,207.49241643417002 L-174.49256645922557,171.9806508025619" stroke="#0d6d4d" stroke-width="0.1" fill="none" />
<path d="M128.26446591383504,208.7420101077851 L-205.58171050277087,133.27100324809933" stroke="#0d6d4d" stroke-width="0.1" fill="none" />
<path d="M126.24071297189711,209.97209907115538 L-228.22848725589165,89.0884818867585" stroke="#0d6d4d" stroke-width="0.1" fill="none" />
<path d="M124.2051641843297,211.18256838561203 L-241.50288982825447,41.24747513002439" stroke="#0d6d4d" stroke-width="0.1" fill="none" />
<path d="M122.1580097514154,212.37330494573254 L-244.85979491194067,-8.287390161103161" stroke="#0d6d4d" stroke-width="0.1" fill="none" />
<path d="M120.09944095786021,213.54419748990944 L-238.16134867935904,-57.48192755317771" stroke="#0d6d4d" stroke-width="0.1" fill="none" />
<path d="M118.02965015492023,214.6951366107466 L-221.68262785417488,-104.3159264334426" stroke="#0d6d4d" stroke-width="0.1" fill="none" />
<path d="M115.94883074242836,215.82601476528194 L-196.10034347912784,-146.86611347539667" stroke="#0d6d4d" stroke-width="0.1" fill="none" />
<path d="M113.85717715072333,216.9367262850364 L-162.4650512689949,-183.38513330191972" stroke="#0d6d4d" stroke-width="0.1" fill="none" />
<path d="M111.75488482248186,218.02716738588754 L-122.1580097514154,-212.37330494573254" stroke="#0d6d4d" stroke-width="0.1" fill="none" />
<path d="M109.64215019445719,219.09723617776672 L-76.83445784842021,-232.6402073742614" stroke="#0d6d4d" stroke-width="0.1" fill="none" />
<path d="M107.5191706791239,220.14683267418002 L-28.355641247360584,-243.3535650230976" stroke="#0d6d4d" stroke-width="0.1" fill="none" />
<path d="M105.38614464623154,221.17585880155087 L21.287621050644674,-244.07342581691302" stroke="#0d6d4d" stroke-width="0.1" fill="none" />
<path d="M103.24327140426963,222.18421840838363 L70.05669120767887,-234.77022813174574" stroke="#0d6d4d" stroke-width="0.1" fill="none" />
<path d="M101.09075118184415,223.1718172742483 L115.94883074242838,-215.8260147652819" stroke="#0d6d4d" stroke-width="0.1" fill="none" />
<path d="M98.92878510896806,224.13856311858436 L157.07944448955362,-188.01874406253555" stroke="#0d6d4d" stroke-width="0.1" fill="none" />
<path d="M96.75757519826834,225.08436560932316 L191.75947291508817,-152.49034247232694" stroke="#0d6d4d" stroke-width="0.1" fill="none" />
<path d="M94.57732432610982,226.00913637132868 L218.56475461432984,-110.69981048031555" stroke="#0d6d4d" stroke-width="0.1" fill="none" />
<path d="M92.38823621363848,226.91278899465527 L236.3945105691701,-64.36330765865382" stroke="#0d6d4d" stroke-width="0.1" fill="none" />
<path d="M90.19051540774615,227.79523904262157 L244.51654846492653,-15.383677284681811" stroke="#0d6d4d" stroke-width="0.1" fill="none" />
<path d="M87.98436726195725,228.65640405970052 L242.5973307174676,34.227695346891984" stroke="#0d6d4d" stroke-width="0.1" fill="none" />
<path d="M85.76999791724141,229.4962035792235 L230.7156714445216,82.4334819712449" stroke="#0d6d4d" stroke-width="0.1" fill="none" />
<path d="M83.54761428275143,230.31455913089948 L209.35949990475933,127.25407576824041" stroke="#0d6d4d" stroke-width="0.1" fill="none" />
<path d="M81.31742401648951,231.11139424814704 L179.40582331645456,166.84888540276526" stroke="#0d6d4d" stroke-width="0.1" fill="none" />
<path d="M79.07963550590452,231.8866344752394 L142.08471189761744,199.59192028980294" stroke="#0d6d4d" stroke-width="0.1" fill="none" />
<path d="M76.83445784842007,232.64020737426142 L98.92878510896806,224.13856311858436" stroke="#0d6d4d" stroke-width="0.1" fill="none" />
<path d="M74.58210083189627,233.37204253187838 L51.71027348510728,239.48078757197916" stroke="#0d6d4d" stroke-width="0.1" fill="none" />
<path d="M72.32277491502788,234.08207156591513 L2.368240657040384,244.98855368402488" stroke="#0d6d4d" stroke-width="0.1" fill="none" />
<path d="M70.05669120767888,234.77022813174574 L-47.07104575165855,240.4356809041563" stroke="#0d6d4d" stroke-width="0.1" fill="none" />
<path d="M67.78406145115653,235.43644792849264 L-94.57732432610976,226.00913637132868" stroke="#0d6d4d" stroke-width="0.1" fill="none" />
<path d="M65.50509799842656,236.08066870503507 L-138.19971406942955,202.3013569680834" stroke="#0d6d4d" stroke-width="0.1" fill="none" />
<path d="M63.220013794270606,236.70283026582558 L-176.1468287955679,170.2859204551712" stroke="#0d6d4d" stroke-width="0.1" fill="none" />
<path d="M60.92902235538943,237.3028744765146 L-206.86034174799374,131.2775647698541" stroke="#0d6d4d" stroke-width="0.1" fill="none" />
<path d="M58.63233775045173,237.88074526938271 L-229.0789794579266,86.8781973254213" stroke="#0d6d4d" stroke-width="0.1" fill="none" />
<path d="M56.33017458009148,238.43638864857942 L-241.89031688628427,38.91111148056522" stroke="#0d6d4d" stroke-width="0.1" fill="none" />
<path d="M54.0227479568563,238.96975269516847 L-244.7682468429511,-10.653888371301532" stroke="#0d6d4d" stroke-width="0.1" fill="none" />
<path d="M51.71027348510728,239.48078757197916 L-237.59458497353646,-59.78137829837125" stroke="#0d6d4d" stroke-width="0.1" fill="none" />
<path d="M49.392967240872686,239.9694455282632 L-220.6639230886192,-106.4539010423758" stroke="#0d6d4d" stroke-width="0.1" fill="none" />
<path d="M47.071045751658495,240.4356809041563 L-194.6715315298698,-148.7548144155842" stroke="#0d6d4d" stroke-width="0.1" fill="none" />
<path d="M44.74472597621633,240.8794501349447 L-160.68480737146785,-184.94699965123596" stroke="#0d6d4d" stroke-width="0.1" fill="none" />
<path d="M42.414225284270024,241.30071175513592 L-120.09944095786032,-213.54419748990938" stroke="#0d6d4d" stroke-width="0.1" fill="none" />
<path d="M40.07976143620582,241.6994264023331 L-74.58210083189628,-233.37204253187838" stroke="#0d6d4d" stroke-width="0.1" fill="none" />
<path d="M37.741552562724515,242.07555682091305 L-26.00199073979821,-243.61628943395277" stroke="#0d6d4d" stroke-width="0.1" fill="none" />
<path d="M35.39981714445924,242.42906786550753 L23.6459106240562,-243.8562505058239" stroke="#0d6d4d" stroke-width="0.1" fill="none" />
<path d="M33.05477399156133,242.75992650428694 L72.32277491502784,-234.08207156591516" stroke="#0d6d4d" stroke-width="0.1" fill="none" />
<path d="M30.70664222325461,243.06810182204705 L118.02965015492025,-214.69513661074657" stroke="#0d6d4d" stroke-width="0.1" fill="none" />
<path d="M28.35564124736066,243.3535650230976 L158.88954919575662,-186.49158467976306" stroke="#0d6d4d" stroke-width="0.1" fill="none" />
<path d="M26.00199073979818,243.61628943395277 L193.22452960623417,-150.62961580794638" stroke="#0d6d4d" stroke-width="0.1" fill="none" />
<path d="M23.645910624056192,243.8562505058239 L219.62459963744743,-108.58192867181413" stroke="#0d6d4d" stroke-width="0.1" fill="none" />
<path d="M21.287621050644635,244.07342581691304 L237.00562059266423,-62.07524311258146" stroke="#0d6d4d" stroke-width="0.1" fill="none" />
<path d="M18.92734237652376,244.26779507450803 L244.65382779686732,-13.019391089478235" stroke="#0d6d4d" stroke-width="0.1" fill="none" />
<path d="M16.56529514451371,244.4393401168788 L242.255141879021,36.57111200353899" stroke="#0d6d4d" stroke-width="0.1" fill="none" />
<path d="M14.201700062687781,244.58804491497426 L229.90806667725033,84.65979492491712" stroke="#0d6d4d" stroke-width="0.1" fill="none" />
<path d="M11.836777983749295,244.71389557392 L208.11964410477265,129.27185980600254" stroke="#0d6d4d" stroke-width="0.1" fill="none" />
<path d="M9.470749884394952,244.8168803343169 L177.78463209304982,168.5752787081751" stroke="#0d6d4d" stroke-width="0.1" fill="none" />
<path d="M7.103836844667562,244.89698957333948 L140.14876068555742,200.9560272256156" stroke="#0d6d4d" stroke-width="0.1" fill="none" />
<path d="M4.736260027298161,244.95421580563544 L96.75757519826834,225.08436560932316" stroke="#0d6d4d" stroke-width="0.1" fill="none" />
<path d="M2.368240657040384,244.98855368402488 L49.392967240872686,239.9694455282632" stroke="#0d6d4d" stroke-width="0.1" fill="none" />
<path d="M3.0003846579110155e-14,245.0 L3.0003846579110155e-14,245.0" stroke="#0d6d4d" stroke-width="0.1" fill="none" />
<path d="M-2.368240657040215,244.98855368402488 L-49.39296724087253,239.96944552826324" stroke="#0d6d4d" stroke-width="0.1" fill="none" />
<path d="M-4.736260027298101,244.95421580563544 L-96.75757519826828,225.08436560932316" stroke="#0d6d4d" stroke-width="0.1" fill="none" />
<path d="M-7.103836844667502,244.89698957333948 L-140.1487606855574,200.95602722561563" stroke="#0d6d4d" stroke-width="0.1" fill="none" />
<path d="M-9.470749884394891,244.8168803343169 L-177.78463209304988,168.57527870817506" stroke="#0d6d4d" stroke-width="0.1" fill="none" />
<path d="M-11.836777983749126,244.71389557392004 L-208.11964410477268,129.2718598060025" stroke="#0d6d4d" stroke-width="0.1" fill="none" />
<path d="M-14.201700062687719,244.58804491497426 L-229.90806667725033,84.65979492491707" stroke="#0d6d4d" stroke-width="0.1" fill="none" />
<path d="M-16.565295144513755,244.4393401168788 L-242.255141879021,36.571112003539106" stroke="#0d6d4d" stroke-width="0.1" fill="none" />
<path d="M-18.9273423765237,244.26779507450803 L-244.65382779686732,-13.019391089478175" stroke="#0d6d4d" stroke-width="0.1" fill="none" />
<path d="M-21.28762105064468,244.07342581691302 L-237.00562059266423,-62.07524311258146" stroke="#0d6d4d" stroke-width="0.1" fill="none" />
<path d="M-23.64591062405613,243.8562505058239 L-219.6245996374474,-108.58192867181417" stroke="#0d6d4d" stroke-width="0.1" fill="none" />
<path d="M-26.001990739798227,243.61628943395277 L-193.22452960623426,-150.62961580794627" stroke="#0d6d4d" stroke-width="0.1" fill="none" />
<path d="M-28.35564124736049,243.35356502309762 L-158.88954919575667,-186.49158467976304" stroke="#0d6d4d" stroke-width="0.1" fill="none" />
<path d="M-30.70664222325456,243.06810182204708 L-118.02965015492025,-214.69513661074657" stroke="#0d6d4d" stroke-width="0.1" fill="none" />
<path d="M-33.05477399156128,242.75992650428694 L-72.32277491502781,-234.08207156591516" stroke="#0d6d4d" stroke-width="0.1" fill="none" />
<path d="M-35.39981714445919,242.42906786550753 L-23.64591062405633,-243.8562505058239" stroke="#0d6d4d" stroke-width="0.1" fill="none" />
<path d="M-37.74155256272436,242.07555682091308 L26.00199073979816,-243.61628943395277" stroke="#0d6d4d" stroke-width="0.1" fill="none" />
<path d="M-40.079761436205864,241.69942640233307 L74.5821008318962,-233.3720425318784" stroke="#0d6d4d" stroke-width="0.1" fill="none" />
<path d="M-42.41422528427008,241.30071175513592 L120.09944095786021,-213.54419748990944" stroke="#0d6d4d" stroke-width="0.1" fill="none" />
<path d="M-44.74472597621627,240.8794501349447 L160.68480737146785,-184.94699965123596" stroke="#0d6d4d" stroke-width="0.1" fill="none" />
<path d="M-47.07104575165855,240.4356809041563 L194.67153152986978,-148.75481441558426" stroke="#0d6d4d" stroke-width="0.1" fill="none" />
<path d="M-49.39296724087253,239.96944552826324 L220.66392308861919,-106.45390104237585" stroke="#0d6d4d" stroke-width="0.1" fill="none" />
<path d="M-51.71027348510723,239.48078757197916 L237.59458497353648,-59.78137829837115" stroke="#0d6d4d" stroke-width="0.1" fill="none" />
<path d="M-54.02274795685614,238.9697526951685 L244.7682468429511,-10.653888371301482" stroke="#0d6d4d" stroke-width="0.1" fill="none" />
<path d="M-56.33017458009142,238.43638864857945 L241.89031688628427,38.91111148056521" stroke="#0d6d4d" stroke-width="0.1" fill="none" />
<path d="M-58.632337750451576,237.88074526938277 L229.07897945792664,86.87819732542124" stroke="#0d6d4d" stroke-width="0.1" fill="none" />
<path d="M-60.92902235538937,237.30287447651463 L206.86034174799371,131.27756476985414" stroke="#0d6d4d" stroke-width="0.1" fill="none" />
<path d="M-63.22001379427046,236.70283026582564 L176.14682879556796,170.28592045517115" stroke="#0d6d4d" stroke-width="0.1" fill="none" />
<path d="M-65.50509799842652,236.0806687050351 L138.1997140694296,202.30135696808338" stroke="#0d6d4d" stroke-width="0.1" fill="none" />
<path d="M-67.78406145115659,235.43644792849264 L94.57732432610982,226.00913637132868" stroke="#0d6d4d" stroke-width="0.1" fill="none" />
<path d="M-70.05669120767882,234.77022813174574 L47.071045751658495,240.4356809041563" stroke="#0d6d4d" stroke-width="0.1" fill="none" />
<path d="M-72.32277491502782,234.08207156591516 L-2.368240657040215,244.98855368402488" stroke="#0d6d4d" stroke-width="0.1" fill="none" />
<path d="M-74.58210083189611,233.37204253187844 L-51.71027348510723,239.48078757197916" stroke="#0d6d4d" stroke-width="0.1" fill="none" />
<path d="M-76.83445784842002,232.64020737426145 L-98.9287851089679,224.13856311858441" stroke="#0d6d4d" stroke-width="0.1" fill="none" />
<path d="M-79.07963550590448,231.88663447523942 L-142.08471189761738,199.59192028980297" stroke="#0d6d4d" stroke-width="0.1" fill="none" />
<path d="M-81.31742401648945,231.11139424814706 L-179.40582331645442,166.84888540276538" stroke="#0d6d4d" stroke-width="0.1" fill="none" />
<path d="M-83.54761428275127,230.3145591308995 L-209.3594999047593,127.25407576824048" stroke="#0d6d4d" stroke-width="0.1" fill="none" />
<path d="M-85.76999791724135,229.49620357922353 L-230.7156714445216,82.4334819712449" stroke="#0d6d4d" stroke-width="0.1" fill="none" />
<path d="M-87.9843672619573,228.6564040597005 L-242.5973307174676,34.227695346891934" stroke="#0d6d4d" stroke-width="0.1" fill="none" />
<path d="M-90.19051540774609,227.7952390426216 L-244.51654846492653,-15.383677284681644" stroke="#0d6d4d" stroke-width="0.1" fill="none" />
<path d="M-92.38823621363854,226.91278899465524 L-236.39451056917014,-64.36330765865372" stroke="#0d6d4d" stroke-width="0.1" fill="none" />
<path d="M-94.57732432610976,226.00913637132868 L-218.56475461432987,-110.69981048031549" stroke="#0d6d4d" stroke-width="0.1" fill="none" />
<path d="M-96.75757519826828,225.08436560932316 L-191.7594729150882,-152.49034247232692" stroke="#0d6d4d" stroke-width="0.1" fill="none" />
<path d="M-98.9287851089679,224.13856311858441 L-157.07944448955374,-188.01874406253543" stroke="#0d6d4d" stroke-width="0.1" fill="none" />
<path d="M-101.0907511818441,223.17181727424833 L-115.94883074242829,-215.82601476528197" stroke="#0d6d4d" stroke-width="0.1" fill="none" />
<path d="M-103.24327140426959,222.18421840838366 L-70.0566912076789,-234.77022813174574" stroke="#0d6d4d" stroke-width="0.1" fill="none" />
<path d="M-105.3861446462315,221.17585880155087 L-21.287621050644663,-244.07342581691302" stroke="#0d6d4d" stroke-width="0.1" fill="none" />
<path d="M-107.51917067912376,220.1468326741801 L28.355641247360612,-243.3535650230976" stroke="#0d6d4d" stroke-width="0.1" fill="none" />
<path d="M-109.64215019445713,219.09723617776675 L76.83445784842,-232.64020737426145" stroke="#0d6d4d" stroke-width="0.1" fill="none" />
<path d="M-111.7548848224819,218.0271673858875 L122.15800975141535,-212.37330494573257" stroke="#0d6d4d" stroke-width="0.1" fill="none" />
<path d="M-113.85717715072327,216.93672628503643 L162.4650512689948,-183.38513330191978" stroke="#0d6d4d" stroke-width="0.1" fill="none" />
<path d="M-115.9488307424284,215.8260147652819 L196.10034347912784,-146.86611347539665" stroke="#0d6d4d" stroke-width="0.1" fill="none" />
<path d="M-118.02965015492018,214.6951366107466 L221.6826278541748,-104.3159264334428" stroke="#0d6d4d" stroke-width="0.1" fill="none" />
<path d="M-120.09944095786025,213.5441974899094 L238.161348679359,-57.481927553177776" stroke="#0d6d4d" stroke-width="0.1" fill="none" />
<path d="M-122.15800975141525,212.3733049457326 L244.85979491194067,-8.287390161103056" stroke="#0d6d4d" stroke-width="0.1" fill="none" />
<path d="M-124.20516418432966,211.18256838561206 L241.50288982825447,41.24747513002444" stroke="#0d6d4d" stroke-width="0.1" fill="none" />
<path d="M-126.24071297189698,209.97209907115547 L228.22848725589165,89.0884818867585" stroke="#0d6d4d" stroke-width="0.1" fill="none" />
<path d="M-128.264465913835,208.74201010778512 L205.58171050277093,133.27100324809928" stroke="#0d6d4d" stroke-width="0.1" fill="none" />
<path d="M-130.27623391205677,207.4924164341701 L174.49256645922557,171.98065080256194" stroke="#0d6d4d" stroke-width="0.1" fill="none" />
<path d="M-132.27582898834072,206.22343481148607 L136.2377541668126,203.62778381051817" stroke="#0d6d4d" stroke-width="0.1" fill="none" />
<path d="M-134.2630643018942,204.93518381250553 L92.38823621363848,226.91278899465527" stroke="#0d6d4d" stroke-width="0.1" fill="none" />
<path d="M-136.23775416681255,203.6277838105182 L44.74472597621633,240.8794501349447" stroke="#0d6d4d" stroke-width="0.1" fill="none" />
<path d="M-138.19971406942955,202.3013569680834 L-4.736260027298101,244.95421580563544" stroke="#0d6d4d" stroke-width="0.1" fill="none" />
<path d="M-140.1487606855574,200.95602722561563 L-54.02274795685614,238.9697526951685" stroke="#0d6d4d" stroke-width="0.1" fill="none" />
<path d="M-142.08471189761738,199.59192028980297 L-101.0907511818441,223.17181727424833" stroke="#0d6d4d" stroke-width="0.1" fill="none" />
<path d="M-144.0073868116559,198.20916362186213 L-144.0073868116559,198.20916362186213" stroke="#0d6d4d" stroke-width="0.1" fill="none" />
<path d="M-145.91660577424798,196.80788642562752 L-181.01025098278606,165.106901851948" stroke="#0d6d4d" stroke-width="0.1" fill="none" />
<path d="M-147.81219038928316,195.38821963547935 L-210.57979329667816,125.22440119692445" stroke="#0d6d4d" stroke-width="0.1" fill="none" />
<path d="M-149.69396353463543,193.9502959041085 L-231.501718297705,80.1994664895599" stroke="#0d6d4d" stroke-width="0.1" fill="none" />
<path d="M-151.5617493787126,192.4942495901223 L-242.91685142773366,31.88108047786914" stroke="#0d6d4d" stroke-width="0.1" fill="none" />
<path d="M-153.41537339688685,191.02021674548948 L-244.35642167441534,-17.746526039631785" stroke="#0d6d4d" stroke-width="0.1" fill="none" />
<path d="M-155.25466238780106,189.52833510282812 L-235.76131200475555,-66.64535814140628" stroke="#0d6d4d" stroke-width="0.1" fill="none" />
<path d="M-157.0794444895536,188.01874406253557 L-217.48448705045845,-112.80734857445665" stroke="#0d6d4d" stroke-width="0.1" fill="none" />
<path d="M-158.88954919575662,186.49158467976306 L-190.2764983503243,-154.33682054370252" stroke="#0d6d4d" stroke-width="0.1" fill="none" />
<path d="M-160.68480737146777,184.946999651236 L-155.25466238780106,-189.52833510282812" stroke="#0d6d4d" stroke-width="0.1" fill="none" />
<path d="M-162.46505126899484,183.38513330191975 L-113.85717715072344,-216.93672628503634" stroke="#0d6d4d" stroke-width="0.1" fill="none" />
<path d="M-164.2301145435688,181.80613157153496 L-67.78406145115645,-235.43644792849267" stroke="#0d6d4d" stroke-width="0.1" fill="none" />
<path d="M-165.97983226888812,180.21014200092003 L-18.92734237652379,-244.26779507450803" stroke="#0d6d4d" stroke-width="0.1" fill="none" />
<path d="M-167.71404095252865,178.59731371824589 L30.706642223254544,-243.06810182204708" stroke="#0d6d4d" stroke-width="0.1" fill="none" />
<path d="M-169.43257855122062,176.96779742508085 L79.0796355059045,-231.8866344752394" stroke="#0d6d4d" stroke-width="0.1" fill="none" />
<path d="M-171.13528448598944,175.32174538230979 L124.20516418432966,-211.18256838561206" stroke="#0d6d4d" stroke-width="0.1" fill="none" />
<path d="M-172.82199965716072,173.65931139590626 L164.2301145435688,-181.80613157153496" stroke="#0d6d4d" stroke-width="0.1" fill="none" />
<path d="M-174.49256645922557,171.9806508025619 L197.51083194679984,-144.96368946630392" stroke="#0d6d4d" stroke-width="0.1" fill="none" />
<path d="M-176.1468287955679,170.2859204551712 L222.68061874703966,-102.16820461589592" stroke="#0d6d4d" stroke-width="0.1" fill="none" />
<path d="M-177.78463209304988,168.57527870817506 L238.70585875211998,-55.177105736101694" stroke="#0d6d4d" stroke-width="0.1" fill="none" />
<path d="M-179.40582331645442,166.84888540276538 L244.92846344964727,-5.920117582852443" stroke="#0d6d4d" stroke-width="0.1" fill="none" />
<path d="M-181.01025098278606,165.106901851948 L241.09289690585013,43.57998464369987" stroke="#0d6d4d" stroke-width="0.1" fill="none" />
<path d="M-182.59776517542383,163.34949082547143 L227.35666954055338,91.29044208145558" stroke="#0d6d4d" stroke-width="0.1" fill="none" />
<path d="M-184.16821755813066,161.57681653461628 L204.28386984353082,135.2519889752138" stroke="#0d6d4d" stroke-width="0.1" fill="none" />
<path d="M-185.72146138891304,159.7890446168525 L172.82199965716075,173.6593113959062" stroke="#0d6d4d" stroke-width="0.1" fill="none" />
<path d="M-187.2573515337328,157.98634212036188 L134.26306430189416,204.93518381250556" stroke="#0d6d4d" stroke-width="0.1" fill="none" />
<path d="M-188.7757444800684,156.16887748842896 L90.19051540774615,227.79523904262157" stroke="#0d6d4d" stroke-width="0.1" fill="none" />
<path d="M-190.2764983503242,154.3368205437026 L42.414225284270024,241.30071175513592" stroke="#0d6d4d" stroke-width="0.1" fill="none" />
<path d="M-191.75947291508828,152.49034247232683 L-7.103836844667502,244.89698957333948" stroke="#0d6d4d" stroke-width="0.1" fill="none" />
<path d="M-193.22452960623417,150.62961580794635 L-56.33017458009142,238.43638864857945" stroke="#0d6d4d" stroke-width="0.1" fill="none" />
<path d="M-194.67153152986975,148.7548144155843 L-103.24327140426959,222.18421840838366" stroke="#0d6d4d" stroke-width="0.1" fill="none" />
<path d="M-196.10034347912776,146.86611347539676 L-145.91660577424798,196.80788642562752" stroke="#0d6d4d" stroke-width="0.1" fill="none" />
<path d="M-197.51083194679987,144.9636894663039 L-182.59776517542383,163.34949082547143" stroke="#0d6d4d" stroke-width="0.1" fill="none" />
<path d="M-198.9028651378108,143.0477201495006 L-211.78041025715189,123.18302574345398" stroke="#0d6d4d" stroke-width="0.1" fill="none" />
<path d="M-200.27631298153437,141.1183845518453 L-232.2661337891217,77.9579572247363" stroke="#0d6d4d" stroke-width="0.1" fill="none" />
<path d="M-201.6310471439458,139.1758629491332 L-243.21367415402324,29.53148666255406" stroke="#0d6d4d" stroke-width="0.1" fill="none" />
<path d="M-202.96694103961434,137.22033684925026 L-244.17346238747118,-20.107716571361212" stroke="#0d6d4d" stroke-width="0.1" fill="none" />
<path d="M-204.28386984353082,135.25198897521378 L-235.10608406505997,-68.9211813276075" stroke="#0d6d4d" stroke-width="0.1" fill="none" />
<path d="M-205.58171050277087,133.27100324809933 L-216.38389788529363,-114.90434602732316" stroke="#0d6d4d" stroke-width="0.1" fill="none" />
<path d="M-206.86034174799374,131.2775647698541 L-188.7757444800683,-156.16887748842905" stroke="#0d6d4d" stroke-width="0.1" fill="none" />
<path d="M-208.11964410477268,129.2718598060025 L-153.4153733968869,-191.02021674548942" stroke="#0d6d4d" stroke-width="0.1" fill="none" />
<path d="M-209.3594999047593,127.25407576824048 L-111.75488482248188,-218.0271673858875" stroke="#0d6d4d" stroke-width="0.1" fill="none" />
<path d="M-210.57979329667816,125.22440119692445 L-65.50509799842649,-236.0806687050351" stroke="#0d6d4d" stroke-width="0.1" fill="none" />
<path d="M-211.78041025715189,123.18302574345398 L-16.565295144513634,-244.4393401168788" stroke="#0d6d4d" stroke-width="0.1" fill="none" />
<path d="M-212.96123860135486,121.1301401525516 L33.05477399156134,-242.75992650428694" stroke="#0d6d4d" stroke-width="0.1" fill="none" />
<path d="M-214.1221679934969,119.06593624443846 L81.31742401648947,-231.11139424814706" stroke="#0d6d4d" stroke-width="0.1" fill="none" />
<path d="M-215.26308995713165,116.99060689691221 L126.24071297189703,-209.97209907115544" stroke="#0d6d4d" stroke-width="0.1" fill="none" />
<path d="M-216.3838978852935,114.90434602732343 L165.97983226888815,-180.21014200092003" stroke="#0d6d4d" stroke-width="0.1" fill="none" />
<path d="M-217.4844870504585,112.80734857445654 L198.90286513781086,-143.04772014950058" stroke="#0d6d4d" stroke-width="0.1" fill="none" />
<path d="M-218.56475461432981,110.69981048031558 L223.6578025156293,-100.01093627138863" stroke="#0d6d4d" stroke-width="0.1" fill="none" />
<path d="M-219.62459963744746,108.58192867181404 L239.22806431317167,-52.867128208112504" stroke="#0d6d4d" stroke-width="0.1" fill="none" />
<path d="M-220.66392308861919,106.45390104237588 L244.97424603972985,-3.552291832875544" stroke="#0d6d4d" stroke-width="0.1" fill="none" />
<path d="M-221.68262785417474,104.31592643344287 L240.66037642852874,45.90842207350253" stroke="#0d6d4d" stroke-width="0.1" fill="none" />
<path d="M-222.68061874703957,102.16820461589604 L226.46360777396114,93.48387215986233" stroke="#0d6d4d" stroke-width="0.1" fill="none" />
<path d="M-223.6578025156293,100.01093627138866 L202.96694103961445,137.22033684925012" stroke="#0d6d4d" stroke-width="0.1" fill="none" />
<path d="M-224.61408785256265,97.8443229735955 L171.13528448598956,175.32174538230967" stroke="#0d6d4d" stroke-width="0.1" fill="none" />
<path d="M-225.54938540319384,95.66856716937663 L132.27582898834075,206.22343481148604" stroke="#0d6d4d" stroke-width="0.1" fill="none" />
<path d="M-226.46360777396114,93.48387215986239 L87.98436726195725,228.65640405970052" stroke="#0d6d4d" stroke-width="0.1" fill="none" />
<path d="M-227.35666954055333,91.29044208145574 L40.07976143620582,241.6994264023331" stroke="#0d6d4d" stroke-width="0.1" fill="none" />
<path d="M-228.22848725589165,89.0884818867585 L-9.470749884394891,244.8168803343169" stroke="#0d6d4d" stroke-width="0.1" fill="none" />
<path d="M-229.0789794579266,86.8781973254213 L-58.632337750451576,237.88074526938277" stroke="#0d6d4d" stroke-width="0.1" fill="none" />
<path d="M-229.90806667725033,84.65979492491707 L-105.3861446462315,221.17585880155087" stroke="#0d6d4d" stroke-width="0.1" fill="none" />
<path d="M-230.7156714445216,82.4334819712449 L-147.81219038928316,195.38821963547935" stroke="#0d6d4d" stroke-width="0.1" fill="none" />
<path d="M-231.501718297705,80.1994664895599 L-184.16821755813066,161.57681653461628" stroke="#0d6d4d" stroke-width="0.1" fill="none" />
<path d="M-232.2661337891217,77.9579572247363 L-212.96123860135486,121.1301401525516" stroke="#0d6d4d" stroke-width="0.1" fill="none" />
<path d="M-233.0088464923126,75.70916362186215 L-233.0088464923126,75.70916362186215" stroke="#0d6d4d" stroke-width="0.1" fill="none" />
<path d="M-233.729787008712,73.45329580666962 L-243.48777116142435,27.179133445381606" stroke="#0d6d4d" stroke-width="0.1" fill="none" />
<path d="M-234.42888797413275,71.19056456589959 L-243.96768769968438,-22.467028251846667" stroke="#0d6d4d" stroke-width="0.1" fill="none" />
<path d="M-235.10608406505995,68.92118132760758 L-234.42888797413278,-71.1905645658995" stroke="#0d6d4d" stroke-width="0.1" fill="none" />
<path d="M-235.76131200475547,66.64535814140656 L-215.2630899571317,-116.99060689691214" stroke="#0d6d4d" stroke-width="0.1" fill="none" />
<path d="M-236.3945105691701,64.3633076586538 L-187.25735153373284,-157.9863421203618" stroke="#0d6d4d" stroke-width="0.1" fill="none" />
<path d="M-237.0056205926642,62.075243112581546 L-151.56174937871268,-192.49424959012228" stroke="#0d6d4d" stroke-width="0.1" fill="none" />
<path d="M-237.59458497353648,59.78137829837113 L-109.64215019445732,-219.09723617776666" stroke="#0d6d4d" stroke-width="0.1" fill="none" />
<path d="M-238.161348679359,57.48192755317781 L-63.220013794270635,-236.70283026582558" stroke="#0d6d4d" stroke-width="0.1" fill="none" />
<path d="M-238.70585875212,55.177105736101566 L-14.20170006268781,-244.58804491497423" stroke="#0d6d4d" stroke-width="0.1" fill="none" />
<path d="M-239.22806431317161,52.867128208112696 L35.39981714445922,-242.42906786550753" stroke="#0d6d4d" stroke-width="0.1" fill="none" />
<path d="M-239.7279165679846,50.552210811926116 L83.54761428275135,-230.31455913089948" stroke="#0d6d4d" stroke-width="0.1" fill="none" />
<path d="M-240.20536881070697,48.23256985183614 L128.26446591383504,-208.7420101077851" stroke="#0d6d4d" stroke-width="0.1" fill="none" />
<path d="M-240.66037642852874,45.908422073502535 L167.7140409525287,-178.59731371824583" stroke="#0d6d4d" stroke-width="0.1" fill="none" />
<path d="M-241.09289690585013,43.57998464369999 L200.27631298153432,-141.11838455184534" stroke="#0d6d4d" stroke-width="0.1" fill="none" />
<path d="M-241.50288982825447,41.24747513002439 L224.61408785256268,-97.84432297359544" stroke="#0d6d4d" stroke-width="0.1" fill="none" />
<path d="M-241.89031688628427,38.91111148056522 L239.7279165679846,-50.55221081192609" stroke="#0d6d4d" stroke-width="0.1" fill="none" />
<path d="M-242.255141879021,36.571112003539106 L244.99713840429453,-1.184134159186415" stroke="#0d6d4d" stroke-width="0.1" fill="none" />
<path d="M-242.5973307174676,34.227695346891934 L240.205368810707,48.23256985183597" stroke="#0d6d4d" stroke-width="0.1" fill="none" />
<path d="M-242.91685142773366,31.88108047786914 L225.54938540319384,95.66856716937663" stroke="#0d6d4d" stroke-width="0.1" fill="none" />
<path d="M-243.21367415402324,29.53148666255406 L201.63104714394586,139.17586294913312" stroke="#0d6d4d" stroke-width="0.1" fill="none" />
<path d="M-243.48777116142435,27.179133445381606 L169.43257855122067,176.96779742508082" stroke="#0d6d4d" stroke-width="0.1" fill="none" />
<path d="M-243.7391168385006,24.824240628622658 L130.2762339120569,207.49241643417002" stroke="#0d6d4d" stroke-width="0.1" fill="none" />
<path d="M-243.96768769968435,22.467028251846752 L85.76999791724141,229.4962035792235" stroke="#0d6d4d" stroke-width="0.1" fill="none" />
<path d="M-244.17346238747118,20.1077165713613 L37.741552562724515,242.07555682091305" stroke="#0d6d4d" stroke-width="0.1" fill="none" />
<path d="M-244.35642167441532,17.746526039631874 L-11.836777983749126,244.71389557392004" stroke="#0d6d4d" stroke-width="0.1" fill="none" />
<path d="M-244.51654846492653,15.383677284681733 L-60.92902235538937,237.30287447651463" stroke="#0d6d4d" stroke-width="0.1" fill="none" />
<path d="M-244.65382779686732,13.019391089478264 L-107.51917067912376,220.1468326741801" stroke="#0d6d4d" stroke-width="0.1" fill="none" />
<path d="M-244.7682468429511,10.653888371301619 L-149.69396353463543,193.9502959041085" stroke="#0d6d4d" stroke-width="0.1" fill="none" />
<path d="M-244.85979491194067,8.287390161103032 L-185.72146138891304,159.7890446168525" stroke="#0d6d4d" stroke-width="0.1" fill="none" />
<path d="M-244.92846344964727,5.920117582852472 L-214.1221679934969,119.06593624443846" stroke="#0d6d4d" stroke-width="0.1" fill="none" />
<path d="M-244.97424603972985,3.5522918328754653 L-233.729787008712,73.45329580666962" stroke="#0d6d4d" stroke-width="0.1" fill="none" />
<path d="M-244.99713840429453,1.1841341591863905 L-243.7391168385006,24.824240628622658" stroke="#0d6d4d" stroke-width="0.1" fill="none" />
<path d="M-244.99713840429453,-1.1841341591863004 L-243.7391168385006,-24.82424062862257" stroke="#0d6d4d" stroke-width="0.1" fill="none" />
<path d="M-244.97424603972985,-3.552291832875375 L-233.72978700871204,-73.45329580666953" stroke="#0d6d4d" stroke-width="0.1" fill="none" />
<path d="M-244.92846344964727,-5.920117582852383 L-214.12216799349696,-119.06593624443836" stroke="#0d6d4d" stroke-width="0.1" fill="none" />
<path d="M-244.85979491194067,-8.287390161103161 L-185.72146138891313,-159.7890446168524" stroke="#0d6d4d" stroke-width="0.1" fill="none" />
<path d="M-244.7682468429511,-10.653888371301532 L-149.6939635346355,-193.95029590410846" stroke="#0d6d4d" stroke-width="0.1" fill="none" />
<path d="M-244.65382779686732,-13.019391089478175 L-107.51917067912383,-220.14683267418008" stroke="#0d6d4d" stroke-width="0.1" fill="none" />
<path d="M-244.51654846492653,-15.383677284681644 L-60.92902235538956,-237.30287447651457" stroke="#0d6d4d" stroke-width="0.1" fill="none" />
<path d="M-244.35642167441534,-17.746526039631785 L-11.836777983749325,-244.71389557392" stroke="#0d6d4d" stroke-width="0.1" fill="none" />
<path d="M-244.17346238747118,-20.107716571361212 L37.741552562724465,-242.07555682091305" stroke="#0d6d4d" stroke-width="0.1" fill="none" />
<path d="M-243.96768769968438,-22.467028251846667 L85.76999791724143,-229.4962035792235" stroke="#0d6d4d" stroke-width="0.1" fill="none" />
<path d="M-243.7391168385006,-24.82424062862257 L130.27623391205688,-207.49241643417005" stroke="#0d6d4d" stroke-width="0.1" fill="none" />
<path d="M-243.48777116142435,-27.17913344538152 L169.43257855122067,-176.96779742508076" stroke="#0d6d4d" stroke-width="0.1" fill="none" />
<path d="M-243.21367415402324,-29.53148666255397 L201.6310471439458,-139.17586294913318" stroke="#0d6d4d" stroke-width="0.1" fill="none" />
<path d="M-242.9168514277337,-31.881080477869045 L225.54938540319384,-95.66856716937666" stroke="#0d6d4d" stroke-width="0.1" fill="none" />
<path d="M-242.5973307174676,-34.22769534689206 L240.205368810707,-48.23256985183599" stroke="#0d6d4d" stroke-width="0.1" fill="none" />
<path d="M-242.255141879021,-36.571112003539014 L244.99713840429453,1.1841341591863304" stroke="#0d6d4d" stroke-width="0.1" fill="none" />
<path d="M-241.8903168862843,-38.911111480565125 L239.7279165679846,50.55221081192601" stroke="#0d6d4d" stroke-width="0.1" fill="none" />
<path d="M-241.5028898282545,-41.2474751300243 L224.6140878525627,97.84432297359535" stroke="#0d6d4d" stroke-width="0.1" fill="none" />
<path d="M-241.09289690585013,-43.579984643699895 L200.27631298153435,141.11838455184534" stroke="#0d6d4d" stroke-width="0.1" fill="none" />
<path d="M-240.66037642852874,-45.90842207350244 L167.71404095252876,178.59731371824577" stroke="#0d6d4d" stroke-width="0.1" fill="none" />
<path d="M-240.20536881070697,-48.23256985183604 L128.26446591383504,208.7420101077851" stroke="#0d6d4d" stroke-width="0.1" fill="none" />
<path d="M-239.7279165679846,-50.55221081192603 L83.54761428275143,230.31455913089948" stroke="#0d6d4d" stroke-width="0.1" fill="none" />
<path d="M-239.2280643131717,-52.8671282081124 L35.39981714445924,242.42906786550753" stroke="#0d6d4d" stroke-width="0.1" fill="none" />
<path d="M-238.70585875212,-55.17710573610147 L-14.201700062687719,244.58804491497426" stroke="#0d6d4d" stroke-width="0.1" fill="none" />
<path d="M-238.16134867935904,-57.48192755317771 L-63.22001379427046,236.70283026582564" stroke="#0d6d4d" stroke-width="0.1" fill="none" />
<path d="M-237.59458497353646,-59.78137829837125 L-109.64215019445713,219.09723617776675" stroke="#0d6d4d" stroke-width="0.1" fill="none" />
<path d="M-237.00562059266423,-62.07524311258146 L-151.5617493787126,192.4942495901223" stroke="#0d6d4d" stroke-width="0.1" fill="none" />
<path d="M-236.39451056917014,-64.36330765865372 L-187.2573515337328,157.98634212036188" stroke="#0d6d4d" stroke-width="0.1" fill="none" />
<path d="M-235.76131200475555,-66.64535814140628 L-215.26308995713165,116.99060689691221" stroke="#0d6d4d" stroke-width="0.1" fill="none" />
<path d="M-235.10608406505997,-68.9211813276075 L-234.42888797413275,71.19056456589959" stroke="#0d6d4d" stroke-width="0.1" fill="none" />
<path d="M-234.42888797413278,-71.1905645658995 L-243.96768769968435,22.467028251846752" stroke="#0d6d4d" stroke-width="0.1" fill="none" />
<path d="M-233.72978700871204,-73.45329580666953 L-243.48777116142435,-27.17913344538152" stroke="#0d6d4d" stroke-width="0.1" fill="none" />
<path d="M-233.00884649231264,-75.70916362186207 L-233.00884649231264,-75.70916362186207" stroke="#0d6d4d" stroke-width="0.1" fill="none" />
<path d="M-232.26613378912182,-77.95795722473602 L-212.96123860135492,-121.13014015255152" stroke="#0d6d4d" stroke-width="0.1" fill="none" />
<path d="M-231.50171829770508,-80.19946648955961 L-184.16821755813083,-161.5768165346161" stroke="#0d6d4d" stroke-width="0.1" fill="none" />
<path d="M-230.71567144452163,-82.43348197124482 L-147.81219038928333,-195.38821963547923" stroke="#0d6d4d" stroke-width="0.1" fill="none" />
<path d="M-229.9080666772503,-84.65979492491721 L-105.38614464623157,-221.17585880155085" stroke="#0d6d4d" stroke-width="0.1" fill="none" />
<path d="M-229.07897945792664,-86.87819732542121 L-58.63233775045166,-237.88074526938274" stroke="#0d6d4d" stroke-width="0.1" fill="none" />
<path d="M-228.22848725589168,-89.08848188675842 L-9.47074988439509,-244.81688033431686" stroke="#0d6d4d" stroke-width="0.1" fill="none" />
<path d="M-227.35666954055344,-91.29044208145545 L40.07976143620585,-241.69942640233307" stroke="#0d6d4d" stroke-width="0.1" fill="none" />
<path d="M-226.46360777396117,-93.4838721598623 L87.98436726195722,-228.65640405970052" stroke="#0d6d4d" stroke-width="0.1" fill="none" />
<path d="M-225.5493854031939,-95.66856716937656 L132.2758289883407,-206.2234348114861" stroke="#0d6d4d" stroke-width="0.1" fill="none" />
<path d="M-224.61408785256268,-97.84432297359544 L171.13528448598956,-175.32174538230967" stroke="#0d6d4d" stroke-width="0.1" fill="none" />
<path d="M-223.65780251562933,-100.01093627138859 L202.96694103961437,-137.2203368492502" stroke="#0d6d4d" stroke-width="0.1" fill="none" />
<path d="M-222.68061874703972,-102.16820461589577 L226.46360777396114,-93.48387215986236" stroke="#0d6d4d" stroke-width="0.1" fill="none" />
<path d="M-221.68262785417488,-104.3159264334426 L240.6603764285287,-45.90842207350256" stroke="#0d6d4d" stroke-width="0.1" fill="none" />
<path d="M-220.6639230886192,-106.4539010423758 L244.97424603972985,3.552291832875514" stroke="#0d6d4d" stroke-width="0.1" fill="none" />
<path d="M-219.6245996374474,-108.58192867181417 L239.22806431317167,52.867128208112476" stroke="#0d6d4d" stroke-width="0.1" fill="none" />
<path d="M-218.56475461432987,-110.69981048031549 L223.65780251562933,100.0109362713886" stroke="#0d6d4d" stroke-width="0.1" fill="none" />
<path d="M-217.48448705045845,-112.80734857445665 L198.90286513781092,143.04772014950046" stroke="#0d6d4d" stroke-width="0.1" fill="none" />
<path d="M-216.38389788529363,-114.90434602732316 L165.97983226888817,180.21014200092" stroke="#0d6d4d" stroke-width="0.1" fill="none" />
<path d="M-215.2630899571317,-116.99060689691214 L126.24071297189711,209.97209907115538" stroke="#0d6d4d" stroke-width="0.1" fill="none" />
<path d="M-214.12216799349696,-119.06593624443836 L81.31742401648951,231.11139424814704" stroke="#0d6d4d" stroke-width="0.1" fill="none" />
<path d="M-212.96123860135492,-121.13014015255152 L33.05477399156133,242.75992650428694" stroke="#0d6d4d" stroke-width="0.1" fill="none" />
<path d="M-211.78041025715194,-123.18302574345388 L-16.565295144513755,244.4393401168788" stroke="#0d6d4d" stroke-width="0.1" fill="none" />
<path d="M-210.57979329667822,-125.22440119692436 L-65.50509799842652,236.0806687050351" stroke="#0d6d4d" stroke-width="0.1" fill="none" />
<path d="M-209.35949990475936,-127.25407576824038 L-111.7548848224819,218.0271673858875" stroke="#0d6d4d" stroke-width="0.1" fill="none" />
<path d="M-208.11964410477273,-129.27185980600242 L-153.41537339688685,191.02021674548948" stroke="#0d6d4d" stroke-width="0.1" fill="none" />
<path d="M-206.8603417479937,-131.2775647698542 L-188.7757444800684,156.16887748842896" stroke="#0d6d4d" stroke-width="0.1" fill="none" />
<path d="M-205.58171050277093,-133.27100324809925 L-216.3838978852935,114.90434602732343" stroke="#0d6d4d" stroke-width="0.1" fill="none" />
<path d="M-204.2838698435308,-135.2519889752139 L-235.10608406505995,68.92118132760758" stroke="#0d6d4d" stroke-width="0.1" fill="none" />
<path d="M-202.9669410396144,-137.22033684925017 L-244.17346238747118,20.1077165713613" stroke="#0d6d4d" stroke-width="0.1" fill="none" />
<path d="M-201.63104714394586,-139.17586294913312 L-243.21367415402324,-29.53148666255397" stroke="#0d6d4d" stroke-width="0.1" fill="none" />
<path d="M-200.27631298153443,-141.1183845518452 L-232.26613378912182,-77.95795722473602" stroke="#0d6d4d" stroke-width="0.1" fill="none" />
<path d="M-198.9028651378109,-143.04772014950052 L-211.78041025715194,-123.18302574345388" stroke="#0d6d4d" stroke-width="0.1" fill="none" />
<path d="M-197.5108319467999,-144.9636894663038 L-182.59776517542392,-163.34949082547135" stroke="#0d6d4d" stroke-width="0.1" fill="none" />
<path d="M-196.10034347912784,-146.86611347539667 L-145.91660577424813,-196.80788642562743" stroke="#0d6d4d" stroke-width="0.1" fill="none" />
<path d="M-194.6715315298698,-148.7548144155842 L-103.24327140426975,-222.18421840838357" stroke="#0d6d4d" stroke-width="0.1" fill="none" />
<path d="M-193.22452960623426,-150.62961580794627 L-56.33017458009151,-238.43638864857942" stroke="#0d6d4d" stroke-width="0.1" fill="none" />
<path d="M-191.7594729150882,-152.49034247232692 L-7.103836844667592,-244.89698957333948" stroke="#0d6d4d" stroke-width="0.1" fill="none" />
<path d="M-190.2764983503243,-154.33682054370252 L42.41422528427003,-241.30071175513592" stroke="#0d6d4d" stroke-width="0.1" fill="none" />
<path d="M-188.7757444800683,-156.16887748842905 L90.19051540774609,-227.7952390426216" stroke="#0d6d4d" stroke-width="0.1" fill="none" />
<path d="M-187.25735153373284,-157.9863421203618 L134.26306430189416,-204.93518381250556" stroke="#0d6d4d" stroke-width="0.1" fill="none" />
<path d="M-185.72146138891313,-159.7890446168524 L172.82199965716072,-173.65931139590626" stroke="#0d6d4d" stroke-width="0.1" fill="none" />
<path d="M-184.16821755813083,-161.5768165346161 L204.2838698435308,-135.25198897521383" stroke="#0d6d4d" stroke-width="0.1" fill="none" />
<path d="M-182.59776517542392,-163.34949082547135 L227.35666954055338,-91.29044208145561" stroke="#0d6d4d" stroke-width="0.1" fill="none" />
<path d="M-181.01025098278615,-165.1069018519479 L241.09289690585013,-43.5799846436999" stroke="#0d6d4d" stroke-width="0.1" fill="none" />
<path d="M-179.4058233164545,-166.8488854027653 L244.92846344964727,5.920117582852358" stroke="#0d6d4d" stroke-width="0.1" fill="none" />
<path d="M-177.78463209304988,-168.57527870817506 L238.70585875211998,55.17710573610161" stroke="#0d6d4d" stroke-width="0.1" fill="none" />
<path d="M-176.14682879556807,-170.28592045517104 L222.68061874703966,102.16820461589589" stroke="#0d6d4d" stroke-width="0.1" fill="none" />
<path d="M-174.49256645922557,-171.9806508025619 L197.5108319467999,144.96368946630383" stroke="#0d6d4d" stroke-width="0.1" fill="none" />
<path d="M-172.82199965716077,-173.6593113959062 L164.23011454356882,181.8061315715349" stroke="#0d6d4d" stroke-width="0.1" fill="none" />
<path d="M-171.1352844859895,-175.32174538230973 L124.2051641843297,211.18256838561203" stroke="#0d6d4d" stroke-width="0.1" fill="none" />
<path d="M-169.43257855122067,-176.96779742508076 L79.07963550590452,231.8866344752394" stroke="#0d6d4d" stroke-width="0.1" fill="none" />
<path d="M-167.7140409525288,-178.59731371824577 L30.70664222325461,243.06810182204705" stroke="#0d6d4d" stroke-width="0.1" fill="none" />
<path d="M-165.9798322688883,-180.21014200091992 L-18.9273423765237,244.26779507450803" stroke="#0d6d4d" stroke-width="0.1" fill="none" />
<path d="M-164.23011454356885,-181.8061315715349 L-67.78406145115659,235.43644792849264" stroke="#0d6d4d" stroke-width="0.1" fill="none" />
<path d="M-162.4650512689949,-183.38513330191972 L-113.85717715072327,216.93672628503643" stroke="#0d6d4d" stroke-width="0.1" fill="none" />
<path d="M-160.68480737146785,-184.94699965123596 L-155.25466238780106,189.52833510282812" stroke="#0d6d4d" stroke-width="0.1" fill="none" />
<path d="M-158.88954919575667,-186.49158467976304 L-190.2764983503242,154.3368205437026" stroke="#0d6d4d" stroke-width="0.1" fill="none" />
<path d="M-157.07944448955374,-188.01874406253543 L-217.4844870504585,112.80734857445654" stroke="#0d6d4d" stroke-width="0.1" fill="none" />
<path d="M-155.25466238780106,-189.52833510282812 L-235.76131200475547,66.64535814140656" stroke="#0d6d4d" stroke-width="0.1" fill="none" />
<path d="M-153.4153733968869,-191.02021674548942 L-244.35642167441532,17.746526039631874" stroke="#0d6d4d" stroke-width="0.1" fill="none" />
<path d="M-151.56174937871268,-192.49424959012228 L-242.9168514277337,-31.881080477869045" stroke="#0d6d4d" stroke-width="0.1" fill="none" />
<path d="M-149.6939635346355,-193.95029590410846 L-231.50171829770508,-80.19946648955961" stroke="#0d6d4d" stroke-width="0.1" fill="none" />
<path d="M-147.81219038928333,-195.38821963547923 L-210.57979329667822,-125.22440119692436" stroke="#0d6d4d" stroke-width="0.1" fill="none" />
<path d="M-145.91660577424813,-196.80788642562743 L-181.01025098278615,-165.1069018519479" stroke="#0d6d4d" stroke-width="0.1" fill="none" />
<path d="M-144.00738681165595,-198.2091636218621 L-144.00738681165595,-198.2091636218621" stroke="#0d6d4d" stroke-width="0.1" fill="none" />
<path d="M-142.08471189761747,-199.5919202898029 L-101.09075118184427,-223.17181727424824" stroke="#0d6d4d" stroke-width="0.1" fill="none" />
<path d="M-140.14876068555742,-200.95602722561557 L-54.02274795685623,-238.9697526951685" stroke="#0d6d4d" stroke-width="0.1" fill="none" />
<path d="M-138.1997140694296,-202.30135696808338 L-4.736260027298191,-244.95421580563544" stroke="#0d6d4d" stroke-width="0.1" fill="none" />
<path d="M-136.23775416681272,-203.62778381051814 L44.7447259762163,-240.8794501349447" stroke="#0d6d4d" stroke-width="0.1" fill="none" />
<path d="M-134.26306430189416,-204.93518381250556 L92.3882362136385,-226.91278899465524" stroke="#0d6d4d" stroke-width="0.1" fill="none" />
<path d="M-132.27582898834078,-206.22343481148602 L136.23775416681258,-203.6277838105182" stroke="#0d6d4d" stroke-width="0.1" fill="none" />
<path d="M-130.27623391205685,-207.49241643417008 L174.49256645922557,-171.98065080256194" stroke="#0d6d4d" stroke-width="0.1" fill="none" />
<path d="M-128.26446591383507,-208.74201010778506 L205.5817105027709,-133.2710032480993" stroke="#0d6d4d" stroke-width="0.1" fill="none" />
<path d="M-126.24071297189714,-209.97209907115536 L228.22848725589165,-89.08848188675852" stroke="#0d6d4d" stroke-width="0.1" fill="none" />
<path d="M-124.20516418432982,-211.18256838561197 L241.50288982825444,-41.24747513002446" stroke="#0d6d4d" stroke-width="0.1" fill="none" />
<path d="M-122.1580097514154,-212.37330494573254 L244.85979491194067,8.287390161103081" stroke="#0d6d4d" stroke-width="0.1" fill="none" />
<path d="M-120.09944095786032,-213.54419748990938 L238.161348679359,57.481927553177805" stroke="#0d6d4d" stroke-width="0.1" fill="none" />
<path d="M-118.02965015492025,-214.69513661074657 L221.68262785417477,104.31592643344283" stroke="#0d6d4d" stroke-width="0.1" fill="none" />
<path d="M-115.94883074242829,-215.82601476528197 L196.10034347912787,146.8661134753966" stroke="#0d6d4d" stroke-width="0.1" fill="none" />
<path d="M-113.85717715072344,-216.93672628503634 L162.46505126899487,183.38513330191972" stroke="#0d6d4d" stroke-width="0.1" fill="none" />
<path d="M-111.75488482248188,-218.0271673858875 L122.1580097514154,212.37330494573254" stroke="#0d6d4d" stroke-width="0.1" fill="none" />
<path d="M-109.64215019445732,-219.09723617776666 L76.83445784842007,232.64020737426142" stroke="#0d6d4d" stroke-width="0.1" fill="none" />
<path d="M-107.51917067912383,-220.14683267418008 L28.35564124736066,243.3535650230976" stroke="#0d6d4d" stroke-width="0.1" fill="none" />
<path d="M-105.38614464623157,-221.17585880155085 L-21.28762105064468,244.07342581691302" stroke="#0d6d4d" stroke-width="0.1" fill="none" />
<path d="M-103.24327140426975,-222.18421840838357 L-70.05669120767882,234.77022813174574" stroke="#0d6d4d" stroke-width="0.1" fill="none" />
<path d="M-101.09075118184427,-223.17181727424824 L-115.9488307424284,215.8260147652819" stroke="#0d6d4d" stroke-width="0.1" fill="none" />
<path d="M-98.92878510896809,-224.13856311858436 L-157.0794444895536,188.01874406253557" stroke="#0d6d4d" stroke-width="0.1" fill="none" />
<path d="M-96.75757519826847,-225.0843656093231 L-191.75947291508828,152.49034247232683" stroke="#0d6d4d" stroke-width="0.1" fill="none" />
<path d="M-94.57732432610983,-226.00913637132868 L-218.56475461432981,110.69981048031558" stroke="#0d6d4d" stroke-width="0.1" fill="none" />
<path d="M-92.38823621363841,-226.91278899465527 L-236.3945105691701,64.3633076586538" stroke="#0d6d4d" stroke-width="0.1" fill="none" />
<path d="M-90.19051540774626,-227.79523904262152 L-244.51654846492653,15.383677284681733" stroke="#0d6d4d" stroke-width="0.1" fill="none" />
<path d="M-87.98436726195727,-228.65640405970052 L-242.5973307174676,-34.22769534689206" stroke="#0d6d4d" stroke-width="0.1" fill="none" />
<path d="M-85.76999791724154,-229.49620357922348 L-230.71567144452163,-82.43348197124482" stroke="#0d6d4d" stroke-width="0.1" fill="none" />
<path d="M-83.54761428275134,-230.31455913089948 L-209.35949990475936,-127.25407576824038" stroke="#0d6d4d" stroke-width="0.1" fill="none" />
<path d="M-81.31742401648954,-231.11139424814704 L-179.4058233164545,-166.8488854027653" stroke="#0d6d4d" stroke-width="0.1" fill="none" />
<path d="M-79.07963550590445,-231.88663447523942 L-142.08471189761747,-199.5919202898029" stroke="#0d6d4d" stroke-width="0.1" fill="none" />
<path d="M-76.83445784842021,-232.6402073742614 L-98.92878510896809,-224.13856311858436" stroke="#0d6d4d" stroke-width="0.1" fill="none" />
<path d="M-74.58210083189628,-233.37204253187838 L-51.71027348510721,-239.48078757197916" stroke="#0d6d4d" stroke-width="0.1" fill="none" />
<path d="M-72.32277491502781,-234.08207156591516 L-2.368240657040305,-244.98855368402488" stroke="#0d6d4d" stroke-width="0.1" fill="none" />
<path d="M-70.0566912076789,-234.77022813174574 L47.07104575165855,-240.4356809041563" stroke="#0d6d4d" stroke-width="0.1" fill="none" />
<path d="M-67.78406145115645,-235.43644792849267 L94.57732432610982,-226.00913637132868" stroke="#0d6d4d" stroke-width="0.1" fill="none" />
<path d="M-65.50509799842649,-236.0806687050351 L138.19971406942955,-202.3013569680834" stroke="#0d6d4d" stroke-width="0.1" fill="none" />
<path d="M-63.220013794270635,-236.70283026582558 L176.14682879556796,-170.28592045517115" stroke="#0d6d4d" stroke-width="0.1" fill="none" />
<path d="M-60.92902235538956,-237.30287447651457 L206.8603417479937,-131.2775647698542" stroke="#0d6d4d" stroke-width="0.1" fill="none" />
<path d="M-58.63233775045166,-237.88074526938274 L229.0789794579266,-86.87819732542127" stroke="#0d6d4d" stroke-width="0.1" fill="none" />
<path d="M-56.33017458009151,-238.43638864857942 L241.89031688628427,-38.91111148056524" stroke="#0d6d4d" stroke-width="0.1" fill="none" />
<path d="M-54.02274795685623,-238.9697526951685 L244.7682468429511,10.653888371301505" stroke="#0d6d4d" stroke-width="0.1" fill="none" />
<path d="M-51.71027348510721,-239.48078757197916 L237.59458497353646,59.78137829837117" stroke="#0d6d4d" stroke-width="0.1" fill="none" />
<path d="M-49.39296724087272,-239.96944552826318 L220.66392308861916,106.45390104237592" stroke="#0d6d4d" stroke-width="0.1" fill="none" />
<path d="M-47.07104575165853,-240.4356809041563 L194.6715315298698,148.75481441558424" stroke="#0d6d4d" stroke-width="0.1" fill="none" />
<path d="M-44.744725976216365,-240.8794501349447 L160.68480737146783,184.94699965123598" stroke="#0d6d4d" stroke-width="0.1" fill="none" />
<path d="M-42.41422528426995,-241.30071175513592 L120.09944095786021,213.54419748990944" stroke="#0d6d4d" stroke-width="0.1" fill="none" />
<path d="M-40.07976143620585,-241.69942640233307 L74.58210083189627,233.37204253187838" stroke="#0d6d4d" stroke-width="0.1" fill="none" />
<path d="M-37.74155256272455,-242.07555682091305 L26.00199073979818,243.61628943395277" stroke="#0d6d4d" stroke-width="0.1" fill="none" />
<path d="M-35.39981714445938,-242.4290678655075 L-23.64591062405613,243.8562505058239" stroke="#0d6d4d" stroke-width="0.1" fill="none" />
<path d="M-33.05477399156137,-242.75992650428694 L-72.32277491502782,234.08207156591516" stroke="#0d6d4d" stroke-width="0.1" fill="none" />
<path d="M-30.706642223254644,-243.06810182204705 L-118.02965015492018,214.6951366107466" stroke="#0d6d4d" stroke-width="0.1" fill="none" />
<path d="M-28.355641247360584,-243.3535650230976 L-158.88954919575662,186.49158467976306" stroke="#0d6d4d" stroke-width="0.1" fill="none" />
<path d="M-26.00199073979821,-243.61628943395277 L-193.22452960623417,150.62961580794635" stroke="#0d6d4d" stroke-width="0.1" fill="none" />
<path d="M-23.64591062405633,-243.8562505058239 L-219.62459963744746,108.58192867181404" stroke="#0d6d4d" stroke-width="0.1" fill="none" />
<path d="M-21.287621050644663,-244.07342581691302 L-237.0056205926642,62.075243112581546" stroke="#0d6d4d" stroke-width="0.1" fill="none" />
<path d="M-18.92734237652379,-244.26779507450803 L-244.65382779686732,13.019391089478264" stroke="#0d6d4d" stroke-width="0.1" fill="none" />
<path d="M-16.565295144513634,-244.4393401168788 L-242.255141879021,-36.571112003539014" stroke="#0d6d4d" stroke-width="0.1" fill="none" />
<path d="M-14.20170006268781,-244.58804491497423 L-229.9080666772503,-84.65979492491721" stroke="#0d6d4d" stroke-width="0.1" fill="none" />
<path d="M-11.836777983749325,-244.71389557392 L-208.11964410477273,-129.27185980600242" stroke="#0d6d4d" stroke-width="0.1" fill="none" />
<path d="M-9.47074988439509,-244.81688033431686 L-177.78463209304988,-168.57527870817506" stroke="#0d6d4d" stroke-width="0.1" fill="none" />
<path d="M-7.103836844667592,-244.89698957333948 L-140.14876068555742,-200.95602722561557" stroke="#0d6d4d" stroke-width="0.1" fill="none" />
<path d="M-4.736260027298191,-244.95421580563544 L-96.75757519826847,-225.0843656093231" stroke="#0d6d4d" stroke-width="0.1" fill="none" />
<path d="M-2.368240657040305,-244.98855368402488 L-49.39296724087272,-239.96944552826318" stroke="#0d6d4d" stroke-width="0.1" fill="none" />
</svg>