<?xml version="1.0" encoding="UTF-8"?>
<svg xmlns="http://www.w3.org/2000/svg" xmlns:xlink="http://www.w3.org/1999/xlink"
     width="500.0" height="500" viewBox="-250.0 -250.0 500 500">
<defs>
</defs>
<circle cx="0" cy="0" r="245.0" fill="white" stroke-width="2" stroke="black" />
<path d="M0.0,-245.0 L0.0,-245.0" stroke="#4c0618" stroke-width="0.1" fill="none" />
<path d="M43.74643922566598,-241.06274920666428 L86.08683189992895,-229.37754330673562" stroke="#4c0618" stroke-width="0.1" fill="none" />
<path d="M86.08683189992895,-229.37754330673562 L161.19498785522958,-184.50250917088468" stroke="#4c0618" stroke-width="0.1" fill="none" />
<path d="M125.660322964447,-210.3199544324572 L215.74590530490082,-116.09782230588468" stroke="#4c0618" stroke-width="0.1" fill="none" />
<path d="M161.19498785522958,-184.50250917088468 L242.782691633144,-32.887150125325604" stroke="#4c0618" stroke-width="0.1" fill="none" />
<path d="M191.54871320466728,-152.75500145538973 L238.85733848454677,54.517628819297016" stroke="#4c0618" stroke-width="0.1" fill="none" />
<path d="M215.74590530490082,-116.09782230588468 L204.47044716171916,134.96976045576508" stroke="#4c0618" stroke-width="0.1" fill="none" />
<path d="M233.0088464923126,-75.70916362186213 L144.00738681165595,198.2091636218621" stroke="#4c0618" stroke-width="0.1" fill="none" />
<path d="M242.782691633144,-32.887150125325604 L65.17902716383543,236.17090087048405" stroke="#4c0618" stroke-width="0.1" fill="none" />
<path d="M244.7533013026221,10.991883435876142 L-21.961630681341177,244.01370202883356" stroke="#4c0618" stroke-width="0.1" fill="none" />
<path d="M238.85733848454677,54.517628819297016 L-106.30151608380172,220.7373726360927" stroke="#4c0618" stroke-width="0.1" fill="none" />
<path d="M225.28430427510546,96.29113275521122 L-177.08474163771083,169.31034900178196" stroke="#4c0618" stroke-width="0.1" fill="none" />
<path d="M204.47044716171916,134.96976045576508 L-225.2843042751054,96.29113275521132" stroke="#4c0618" stroke-width="0.1" fill="none" />
<path d="M177.08474163771092,169.31034900178182 L-244.75330130262208,10.9918834358762" stroke="#4c0618" stroke-width="0.1" fill="none" />
<path d="M144.00738681165595,198.2091636218621 L-233.00884649231264,-75.70916362186207" stroke="#4c0618" stroke-width="0.1" fill="none" />
<path d="M106.30151608380177,220.73737263609266 L-191.54871320466734,-152.75500145538967" stroke="#4c0618" stroke-width="0.1" fill="none" />
<path d="M65.17902716383543,236.17090087048405 L-125.66032296444706,-210.31995443245717" stroke="#4c0618" stroke-width="0.1" fill="none" />
<path d="M21.961630681341237,244.01370202883356 L-43.74643922566604,-241.06274920666428" stroke="#4c0618" stroke-width="0.1" fill="none" />
<path d="M-21.961630681341177,244.01370202883356 L43.74643922566598,-241.06274920666428" stroke="#4c0618" stroke-width="0.1" fill="none" />
<path d="M-65.17902716383537,236.17090087048408 L125.660322964447,-210.3199544324572" stroke="#4c0618" stroke-width="0.1" fill="none" />
<path d="M-106.30151608380172,220.7373726360927 L191.54871320466728,-152.75500145538973" stroke="#4c0618" stroke-width="0.1" fill="none" />
<path d="M-144.0073868116559,198.20916362186213 L233.0088464923126,-75.70916362186213" stroke="#4c0618" stroke-width="0.1" fill="none" />
<path d="M-177.08474163771083,169.31034900178196 L244.7533013026221,10.991883435876142" stroke="#4c0618" stroke-width="0.1" fill="none" />
<path d="M-204.4704471617191,134.96976045576514 L225.28430427510546,96.29113275521122" stroke="#4c0618" stroke-width="0.1" fill="none" />
<path d="M-225.2843042751054,96.29113275521132 L177.08474163771092,169.31034900178182" stroke="#4c0618" stroke-width="0.1" fill="none" />
<path d="M-238.85733848454677,54.51762881929707 L106.30151608380177,220.73737263609266" stroke="#4c0618" stroke-width="0.1" fill="none" />
<path d="M-244.75330130262208,10.9918834358762 L21.961630681341237,244.01370202883356" stroke="#4c0618" stroke-width="0.1" fill="none" />
<path d="M-242.78269163314403,-32.88715012532554 L-65.17902716383537,236.17090087048408" stroke="#4c0618" stroke-width="0.1" fill="none" />
<path d="M-233.00884649231264,-75.70916362186207 L-144.0073868116559,198.20916362186213" stroke="#4c0618" stroke-width="0.1" fill="none" />
<path d="M-215.74590530490084,-116.09782230588463 L-204.4704471617191,134.96976045576514" stroke="#4c0618" stroke-width="0.1" fill="none" />
<path d="M-191.54871320466734,-152.75500145538967 L-238.85733848454677,54.51762881929707" stroke="#4c0618" stroke-width="0.1" fill="none" />
<path d="M-161.19498785522964,-184.50250917088465 L-242.78269163314403,-32.88715012532554" stroke="#4c0618" stroke-width="0.1" fill="none" />
<path d="M-125.66032296444706,-210.31995443245717 L-215.74590530490084,-116.09782230588463" stroke="#4c0618" stroke-width="0.1" fill="none" />
<path d="M-86.08683189992901,-229.3775433067356 L-161.19498785522964,-184.50250917088465" stroke="#4c0618" stroke-width="0.1" fill="none" />
<path d="M-43.74643922566604,-241.06274920666428 L-86.08683189992901,-229.3775433067356" stroke="#4c0618" stroke-width="0.1" fill="none" />
</svg>