<?xml version="1.0" encoding="UTF-8"?>
<svg xmlns="http://www.w3.org/2000/svg" xmlns:xlink="http://www.w3.org/1999/xlink"
     width="500.0" height="500" viewBox="-250.0 -250.0 500 500">
<defs>
</defs>
<circle cx="0" cy="0" r="245.0" fill="white" stroke-width="2" stroke="black" />
<path d="M0.0,-245.0 L0.0,-245.0" stroke="#4c0618" stroke-width="0.1" fill="none" />
<path d="M33.36082902858042,-242.71805677890103 L66.10020893347095,-235.91473540021084" stroke="#4c0618" stroke-width="0.1" fill="none" />
<path d="M66.10020893347095,-235.91473540021084 L127.29806775868123,-209.3327541138897" stroke="#4c0618" stroke-width="0.1" fill="none" />
<path d="M97.60826701232915,-224.716768868836 L179.0548112481404,-167.22552008857025" stroke="#4c0618" stroke-width="0.1" fill="none" />
<path d="M127.29806775868123,-209.3327541138897 L217.53187850858194,-112.71593424413227" stroke="#4c0618" stroke-width="0.1" fill="none" />
<path d="M154.61654635988296,-190.04926622258284 L239.87560148216912,-49.846723197895265" stroke="#4c0618" stroke-width="0.1" fill="none" />
<path d="M179.0548112481404,-167.22552008857025 L244.4288484516821,16.719391274344368" stroke="#4c0618" stroke-width="0.1" fill="none" />
<path d="M200.1576237875583,-141.28667891814246 L230.85392591911102,82.04550498189161" stroke="#4c0618" stroke-width="0.1" fill="none" />
<path d="M217.53187850858194,-112.71593424413227 L200.15762378755832,141.2866789181424" stroke="#4c0618" stroke-width="0.1" fill="none" />
<path d="M230.85392591911102,-82.04550498189164 L154.616546359883,190.04926622258282" stroke="#4c0618" stroke-width="0.1" fill="none" />
<path d="M239.87560148216912,-49.846723197895265 L97.60826701232914,224.716768868836" stroke="#4c0618" stroke-width="0.1" fill="none" />
<path d="M244.4288484516821,-16.71939127434445 L33.36082902858053,242.718056778901" stroke="#4c0618" stroke-width="0.1" fill="none" />
<path d="M244.4288484516821,16.719391274344368 L-33.360829028580376,242.71805677890103" stroke="#4c0618" stroke-width="0.1" fill="none" />
<path d="M239.87560148216912,49.846723197895294 L-97.60826701232918,224.71676886883597" stroke="#4c0618" stroke-width="0.1" fill="none" />
<path d="M230.85392591911102,82.04550498189161 L-154.61654635988296,190.04926622258284" stroke="#4c0618" stroke-width="0.1" fill="none" />
<path d="M217.53187850858194,112.71593424413226 L-200.15762378755826,141.28667891814248" stroke="#4c0618" stroke-width="0.1" fill="none" />
<path d="M200.15762378755832,141.2866789181424 L-230.853925919111,82.04550498189167" stroke="#4c0618" stroke-width="0.1" fill="none" />
<path d="M179.05481124814037,167.22552008857028 L-244.42884845168211,16.719391274344265" stroke="#4c0618" stroke-width="0.1" fill="none" />
<path d="M154.616546359883,190.04926622258282 L-239.87560148216915,-49.84672319789515" stroke="#4c0618" stroke-width="0.1" fill="none" />
<path d="M127.29806775868127,209.33275411388965 L-217.531878508582,-112.71593424413214" stroke="#4c0618" stroke-width="0.1" fill="none" />
<path d="M97.60826701232914,224.716768868836 L-179.0548112481404,-167.22552008857025" stroke="#4c0618" stroke-width="0.1" fill="none" />
<path d="M66.10020893347095,235.91473540021084 L-127.29806775868123,-209.3327541138897" stroke="#4c0618" stroke-width="0.1" fill="none" />
<path d="M33.36082902858053,242.718056778901 L-66.10020893347118,-235.91473540021076" stroke="#4c0618" stroke-width="0.1" fill="none" />
<path d="M3.0003846579110155e-14,245.0 L0.0,-245.0" stroke="#4c0618" stroke-width="0.1" fill="none" />
<path d="M-33.360829028580376,242.71805677890103 L66.10020893347095,-235.91473540021084" stroke="#4c0618" stroke-width="0.1" fill="none" />
<path d="M-66.100208933471,235.91473540021082 L127.29806775868123,-209.3327541138897" stroke="#4c0618" stroke-width="0.1" fill="none" />
<path d="M-97.60826701232918,224.71676886883597 L179.0548112481404,-167.22552008857025" stroke="#4c0618" stroke-width="0.1" fill="none" />
<path d="M-127.29806775868114,209.33275411388976 L217.53187850858194,-112.71593424413227" stroke="#4c0618" stroke-width="0.1" fill="none" />
<path d="M-154.61654635988296,190.04926622258284 L239.87560148216912,-49.846723197895265" stroke="#4c0618" stroke-width="0.1" fill="none" />
<path d="M-179.0548112481404,167.22552008857025 L244.4288484516821,16.719391274344368" stroke="#4c0618" stroke-width="0.1" fill="none" />
<path d="M-200.15762378755826,141.28667891814248 L230.85392591911102,82.04550498189161" stroke="#4c0618" stroke-width="0.1" fill="none" />
<path d="M-217.53187850858188,112.7159342441324 L200.15762378755832,141.2866789181424" stroke="#4c0618" stroke-width="0.1" fill="none" />
<path d="M-230.853925919111,82.04550498189167 L154.616546359883,190.04926622258282" stroke="#4c0618" stroke-width="0.1" fill="none" />
<path d="M-239.87560148216912,49.84672319789525 L97.60826701232914,224.716768868836" stroke="#4c0618" stroke-width="0.1" fill="none" />
<path d="M-244.42884845168211,16.719391274344265 L33.36082902858053,242.718056778901" stroke="#4c0618" stroke-width="0.1" fill="none" />
<path d="M-244.4288484516821,-16.719391274344392 L-33.360829028580376,242.71805677890103" stroke="#4c0618" stroke-width="0.1" fill="none" />
<path d="M-239.87560148216915,-49.84672319789515 L-97.60826701232918,224.71676886883597" stroke="#4c0618" stroke-width="0.1" fill="none" />
<path d="M-230.85392591911102,-82.04550498189158 L-154.61654635988296,190.04926622258284" stroke="#4c0618" stroke-width="0.1" fill="none" />
<path d="M-217.531878508582,-112.71593424413214 L-200.15762378755826,141.28667891814248" stroke="#4c0618" stroke-width="0.1" fill="none" />
<path d="M-200.15762378755835,-141.28667891814237 L-230.853925919111,82.04550498189167" stroke="#4c0618" stroke-width="0.1" fill="none" />
<path d="M-179.0548112481404,-167.22552008857025 L-244.42884845168211,16.719391274344265" stroke="#4c0618" stroke-width="0.1" fill="none" />
<path d="M-154.61654635988302,-190.0492662225828 L-239.87560148216915,-49.84672319789515" stroke="#4c0618" stroke-width="0.1" fill="none" />
<path d="M-127.29806775868123,-209.3327541138897 L-217.531878508582,-112.71593424413214" stroke="#4c0618" stroke-width="0.1" fill="none" />
<path d="M-97.60826701232926,-224.71676886883594 L-179.0548112481404,-167.22552008857025" stroke="#4c0618" stroke-width="0.1" fill="none" />
<path d="M-66.10020893347118,-235.91473540021076 L-127.29806775868123,-209.3327541138897" stroke="#4c0618" stroke-width="0.1" fill="none" />
<path d="M-33.360829028580355,-242.71805677890103 L-66.10020893347118,-235.91473540021076" stroke="#4c0618" stroke-width="0.1" fill="none" />
</svg>