<?xml version="1.0" encoding="UTF-8"?>
<svg xmlns="http://www.w3.org/2000/svg" xmlns:xlink="http://www.w3.org/1999/xlink"
     width="500.0" height="500" viewBox="-250.0 -250.0 500 500">
<defs>
</defs>
<circle cx="0" cy="0" r="245.0" fill="white" stroke-width="2" stroke="black" />
<path d="M0.0,-245.0 L0.0,-245.0" stroke="#0d6d4d" stroke-width="0.1" fill="none" />
<path d="M2.379221335772562,-244.98844729055165 L49.6188154197413,-239.9228483415901" stroke="#0d6d4d" stroke-width="0.1" fill="none" />
<path d="M4.758218292338547,-244.95379025171758 L97.1811226680812,-224.90182168442158" stroke="#0d6d4d" stroke-width="0.1" fill="none" />
<path d="M7.136766511652101,-244.896032151928 L140.71564789094853,-200.55948354199208" stroke="#0d6d4d" stroke-width="0.1" fill="none" />
<path d="M9.514641677986795,-244.8151784382241 L178.41805323582605,-167.90472977119475" stroke="#0d6d4d" stroke-width="0.1" fill="none" />
<path d="M11.891619539090385,-244.71123673574436 L208.72571968375226,-128.29097373743673" stroke="#0d6d4d" stroke-width="0.1" fill="none" />
<path d="M14.267475927333518,-244.5842168470054 L230.38251156967712,-83.36005256024968" stroke="#0d6d4d" stroke-width="0.1" fill="none" />
<path d="M16.641986780850534,-244.43413075097757 L242.490838552054,-34.97417930876549" stroke="#0d6d4d" stroke-width="0.1" fill="none" />
<path d="M19.01492816467022,-244.26099260195525 L244.54885726419604,14.861238534384238" stroke="#0d6d4d" stroke-width="0.1" fill="none" />
<path d="M21.38607629183466,-244.06481872822192 L236.47127078269597,64.0807154643023" stroke="#0d6d4d" stroke-width="0.1" fill="none" />
<path d="M23.755207544504085,-243.8456276305104 L218.59286385531297,110.64429434694142" stroke="#0d6d4d" stroke-width="0.1" fill="none" />
<path d="M26.122098495045773,-243.60343998025795 L191.65462736679055,152.62209475988936" stroke="#0d6d4d" stroke-width="0.1" fill="none" />
<path d="M28.486525927105067,-243.3382786176568 L156.77304712988257,188.2742990787952" stroke="#0d6d4d" stroke-width="0.1" fill="none" />
<path d="M30.848266856656373,-243.0501685495003 L115.39382986253013,216.12326119522038" stroke="#0d6d4d" stroke-width="0.1" fill="none" />
<path d="M33.207098553032324,-242.73913694682446 L69.23198423063218,235.01474923819038" stroke="#0d6d4d" stroke-width="0.1" fill="none" />
<path d="M35.562798559929035,-242.40521314234542 L20.200740365660252,244.16578402527898" stroke="#0d6d4d" stroke-width="0.1" fill="none" />
<path d="M37.91514471638549,-242.0484286276933 L-29.667746131545318,243.19709052427865" stroke="#0d6d4d" stroke-width="0.1" fill="none" />
<path d="M40.263915177735,-241.66881705044233 L-78.30661918815437,232.14881733776156" stroke="#0d6d4d" stroke-width="0.1" fill="none" />
<path d="M42.60888843652695,-241.26641421093737 L-123.69998545720753,211.4788726986378" stroke="#0d6d4d" stroke-width="0.1" fill="none" />
<path d="M44.94984334341665,-240.84125805891793 L-163.96646530740884,182.04394594326473" stroke="#0d6d4d" stroke-width="0.1" fill="none" />
<path d="M47.2865591280215,-240.39338868993906 L-197.43716873916847,145.06400104871335" stroke="#0d6d4d" stroke-width="0.1" fill="none" />
<path d="M49.6188154197413,-239.9228483415901 L-222.72486442647235,102.0717138398759" stroke="#0d6d4d" stroke-width="0.1" fill="none" />
<path d="M51.946392268540976,-239.42968138951125 L-238.78147509506613,54.848948498802805" stroke="#0d6d4d" stroke-width="0.1" fill="none" />
<path d="M54.26907016569356,-238.9139343432087 L-244.94151627568863,5.352906179503496" stroke="#0d6d4d" stroke-width="0.1" fill="none" />
<path d="M56.58663006448161,-238.37565584166833 L-240.94967806388215,-44.36499341723769" stroke="#0d6d4d" stroke-width="0.1" fill="none" />
<path d="M58.89885340085499,-237.8148966487688 L-226.97140672901153,-92.2441354637444" stroke="#0d6d4d" stroke-width="0.1" fill="none" />
<path d="M61.20552211404323,-237.23170964849402 L-203.58604760568508,-136.30011452781588" stroke="#0d6d4d" stroke-width="0.1" fill="none" />
<path d="M63.50641866712028,-236.6261498399457 L-171.76283346823357,-174.70698051012118" stroke="#0d6d4d" stroke-width="0.1" fill="none" />
<path d="M65.80132606752007,-235.9982743321567 L-132.82071357734182,-205.87291722032242" stroke="#0d6d4d" stroke-width="0.1" fill="none" />
<path d="M68.09002788750048,-235.34814233870512 L-88.37368832963058,-228.5062170073657" stroke="#0d6d4d" stroke-width="0.1" fill="none" />
<path d="M70.37230828455422,-234.6758151721299 L-40.26391517773499,-241.66881705044233" stroke="#0d6d4d" stroke-width="0.1" fill="none" />
<path d="M72.64795202176454,-233.9813562381486 L9.514641677986795,-244.8151784382241" stroke="#0d6d4d" stroke-width="0.1" fill="none" />
<path d="M74.91674448810363,-233.26483102967794 L58.89885340085499,-237.8148966487688" stroke="#0d6d4d" stroke-width="0.1" fill="none" />
<path d="M77.17847171867224,-232.526307120657 L105.84193523619182,-220.95810631306964" stroke="#0d6d4d" stroke-width="0.1" fill="none" />
<path d="M79.4329204148781,-231.76585415967477 L148.39827783060014,-194.9434562556846" stroke="#0d6d4d" stroke-width="0.1" fill="none" />
<path d="M81.67987796455184,-230.98354386340148 L184.8040852218018,-160.8491532005469" stroke="#0d6d4d" stroke-width="0.1" fill="none" />
<path d="M83.91913246199779,-230.1794500098253 L213.55047736594398,-120.08827426846236" stroke="#0d6d4d" stroke-width="0.1" fill="none" />
<path d="M86.15047272797854,-229.3536484312945 L233.44602738508428,-74.35020039060063" stroke="#0d6d4d" stroke-width="0.1" fill="none" />
<path d="M88.37368832963057,-228.5062170073657 L243.66614160759292,-25.53059799668789" stroke="#0d6d4d" stroke-width="0.1" fill="none" />
<path d="M90.58856960030995,-227.6372356574596 L243.78723578960083,24.34714903362546" stroke="#0d6d4d" stroke-width="0.1" fill="none" />
<path d="M92.79490765936538,-226.74678633332348 L233.80429104517333,73.215800814195" stroke="#0d6d4d" stroke-width="0.1" fill="none" />
<path d="M94.99249443183733,-225.83495301130282 L214.13106185973888,119.04994055782085" stroke="#0d6d4d" stroke-width="0.1" fill="none" />
<path d="M97.1811226680812,-224.90182168442158 L185.5829275654208,159.94992027584067" stroke="#0d6d4d" stroke-width="0.1" fill="none" />
<path d="M99.36058596331237,-223.9474803542724 L149.3430980183571,194.22059384699497" stroke="#0d6d4d" stroke-width="0.1" fill="none" />
<path d="M101.53067877707213,-222.9720190227173 L106.91357412210172,220.44157427408712" stroke="#0d6d4d" stroke-width="0.1" fill="none" />
<path d="M103.69119645261144,-221.97552968339988 L60.05289569392341,237.52610323662273" stroke="#0d6d4d" stroke-width="0.1" fill="none" />
<path d="M105.84193523619182,-220.95810631306964 L10.703256784400454,244.7660930239464" stroke="#0d6d4d" stroke-width="0.1" fill="none" />
<path d="M107.9826922963009,-219.919844862719 L-39.08999076131277,241.8614740347881" stroke="#0d6d4d" stroke-width="0.1" fill="none" />
<path d="M110.11326574278098,-218.86084324853474 L-87.26310923420117,228.932631502763" stroke="#0d6d4d" stroke-width="0.1" fill="none" />
<path d="M112.23345464586895,-217.78120134266337 L-131.81950901511883,206.5154159936081" stroke="#0d6d4d" stroke-width="0.1" fill="none" />
<path d="M114.34305905514543,-216.68102096379258 L-170.91249949965362,175.53893446976628" stroke="#0d6d4d" stroke-width="0.1" fill="none" />
<path d="M116.4418800183917,-215.56040586754904 L-202.92182728804445,137.28704239687391" stroke="#0d6d4d" stroke-width="0.1" fill="none" />
<path d="M118.52971960035251,-214.41946173671317 L-226.5208294279205,93.34513289554499" stroke="#0d6d4d" stroke-width="0.1" fill="none" />
<path d="M120.60638090140277,-213.25829617125274 L-240.73141846743442,45.534428322500894" stroke="#0d6d4d" stroke-width="0.1" fill="none" />
<path d="M122.67166807611696,-212.077018678175 L-244.96462040079894,-4.163502358888782" stroke="#0d6d4d" stroke-width="0.1" fill="none" />
<path d="M124.7253863517387,-210.87574066119961 L-239.04498536502334,-53.688871955329674" stroke="#0d6d4d" stroke-width="0.1" fill="none" />
<path d="M126.76734204654937,-209.65457541025228 L-223.21785935879382,-100.98904526372029" stroke="#0d6d4d" stroke-width="0.1" fill="none" />
<path d="M128.79734258813386,-208.4136380907806 L-198.13921559884832,-144.10361286891148" stroke="#0d6d4d" stroke-width="0.1" fill="none" />
<path d="M130.81519653154174,-207.15304573289313 L-164.8484669648317,-181.24564253891674" stroke="#0d6d4d" stroke-width="0.1" fill="none" />
<path d="M132.8207135773418,-205.87291722032245 L-124.72538635173862,-210.87574066119964" stroke="#0d6d4d" stroke-width="0.1" fill="none" />
<path d="M134.8137045895689,-204.57337327921354 L-79.43292041487823,-231.76585415967475" stroke="#0d6d4d" stroke-width="0.1" fill="none" />
<path d="M136.79398161356113,-203.25453646673844 L-30.848266856656476,-243.0501685495003" stroke="#0d6d4d" stroke-width="0.1" fill="none" />
<path d="M138.76135789368504,-201.91653115953793 L19.01492816467022,-244.26099260195525" stroke="#0d6d4d" stroke-width="0.1" fill="none" />
<path d="M140.71564789094853,-200.55948354199208 L68.09002788750048,-235.34814233870512" stroke="#0d6d4d" stroke-width="0.1" fill="none" />
<path d="M142.65666730049838,-199.18352159431996 L114.34305905514543,-216.68102096379258" stroke="#0d6d4d" stroke-width="0.1" fill="none" />
<path d="M144.58423306900175,-197.78877508051002 L155.857012248019,-189.03330852820847" stroke="#0d6d4d" stroke-width="0.1" fill="none" />
<path d="M146.49816341190956,-196.37537553608254 L190.9112945167306,-153.550895881288" stroke="#0d6d4d" stroke-width="0.1" fill="none" />
<path d="M148.39827783060014,-194.9434562556846 L218.05304131144385,-111.70439192274296" stroke="#0d6d4d" stroke-width="0.1" fill="none" />
<path d="M150.28439712940155,-193.49315228051952 L236.1573321035798,-65.22817254622055" stroke="#0d6d4d" stroke-width="0.1" fill="none" />
<path d="M152.15634343249155,-192.02460038561122 L244.473813995019,-16.04849746016278" stroke="#0d6d4d" stroke-width="0.1" fill="none" />
<path d="M154.01394020067215,-190.5379390669055 L242.65780094635534,33.79632583401625" stroke="#0d6d4d" stroke-width="0.1" fill="none" />
<path d="M155.857012248019,-189.03330852820847 L230.78455968135785,82.24042201181707" stroke="#0d6d4d" stroke-width="0.1" fill="none" />
<path d="M157.68538575840267,-187.51085066796463 L209.34619017210244,127.27597047528621" stroke="#0d6d4d" stroke-width="0.1" fill="none" />
<path d="M159.4988883018809,-185.97070906587444 L179.23122999660958,167.03642175855668" stroke="#0d6d4d" stroke-width="0.1" fill="none" />
<path d="M161.2973488509601,-184.4130289693537 L141.68782788955644,199.87385879083698" stroke="#0d6d4d" stroke-width="0.1" fill="none" />
<path d="M163.08059779672442,-182.83795727983565 L98.2720128000873,224.42729669142184" stroke="#0d6d4d" stroke-width="0.1" fill="none" />
<path d="M164.84846696483154,-181.2456425389169 L50.78320250438759,239.67909033413483" stroke="#0d6d4d" stroke-width="0.1" fill="none" />
<path d="M166.60078963137258,-179.6362349143489 L1.189624691834689,244.99711180561408" stroke="#0d6d4d" stroke-width="0.1" fill="none" />
<path d="M168.3374005385954,-178.00988618587593 L-48.45325846746941,240.16094966477087" stroke="#0d6d4d" stroke-width="0.1" fill="none" />
<path d="M170.05813591048997,-176.366749730921 L-96.08794128731677,225.3710441453497" stroke="#0d6d4d" stroke-width="0.1" fill="none" />
<path d="M171.7628334682335,-174.70698051012124 L-139.74015022585704,201.24037968274388" stroke="#0d6d4d" stroke-width="0.1" fill="none" />
<path d="M173.4513324454947,-173.03073505271388 L-177.60066989529003,168.76907907772744" stroke="#0d6d4d" stroke-width="0.1" fill="none" />
<path d="M175.12347360359536,-171.3381714417743 L-208.10032804885694,129.30295227085162" stroke="#0d6d4d" stroke-width="0.1" fill="none" />
<path d="M176.7790992465276,-169.62944929930754 L-229.97503170716757,84.47771772063484" stroke="#0d6d4d" stroke-width="0.1" fill="none" />
<path d="M178.41805323582605,-167.90472977119475 L-242.31815892772383,36.15120819389562" stroke="#0d6d4d" stroke-width="0.1" fill="none" />
<path d="M180.0401810052929,-166.16417551199586 L-244.61813478123736,-13.673629223742878" stroke="#0d6d4d" stroke-width="0.1" fill="none" />
<path d="M181.6453295755746,-164.40795066960993 L-236.77963415571668,-62.931747545137824" stroke="#0d6d4d" stroke-width="0.1" fill="none" />
<path d="M183.23334756858907,-162.63622086979467 L-219.12753261402142,-109.58158809987643" stroke="#0d6d4d" stroke-width="0.1" fill="none" />
<path d="M184.8040852218018,-160.8491532005469 L-192.39344155710535,-151.68969525255397" stroke="#0d6d4d" stroke-width="0.1" fill="none" />
<path d="M186.3573944023498,-159.04691619634454 L-157.68538575840273,-187.5108506679646" stroke="#0d6d4d" stroke-width="0.1" fill="none" />
<path d="M187.8931286210114,-157.2296798222526 L-116.44188001839174,-215.560405867549" stroke="#0d6d4d" stroke-width="0.1" fill="none" />
<path d="M189.41114304602158,-155.39761545789418 L-70.37230828455425,-234.67581517212986" stroke="#0d6d4d" stroke-width="0.1" fill="none" />
<path d="M190.9112945167306,-153.550895881288 L-21.38607629183467,-244.06481872822192" stroke="#0d6d4d" stroke-width="0.1" fill="none" />
<path d="M192.39344155710526,-151.6896952525541 L28.486525927105067,-243.3382786176568" stroke="#0d6d4d" stroke-width="0.1" fill="none" />
<path d="M193.85744438907113,-149.814189097489 L77.17847171867224,-232.526307120657" stroke="#0d6d4d" stroke-width="0.1" fill="none" />
<path d="M195.30316494569476,-147.92455429101267 L122.67166807611696,-212.077018678175" stroke="#0d6d4d" stroke-width="0.1" fill="none" />
<path d="M196.7304668842044,-146.02096904048733 L163.08059779672442,-182.83795727983565" stroke="#0d6d4d" stroke-width="0.1" fill="none" />
<path d="M198.1392155988483,-144.10361286891148 L196.7304668842044,-146.02096904048733" stroke="#0d6d4d" stroke-width="0.1" fill="none" />
<path d="M199.52927823358908,-142.17266659798923 L222.22661828841177,-103.15197586133061" stroke="#0d6d4d" stroke-width="0.1" fill="none" />
<path d="M200.90052369463294,-140.22831233107752 L238.51233505110213,-56.00773186329539" stroke="#0d6d4d" stroke-width="0.1" fill="none" />
<path d="M202.25282266279297,-138.27073343601245 L244.91263714068293,-6.542183794129497" stroke="#0d6d4d" stroke-width="0.1" fill="none" />
<path d="M203.58604760568502,-136.300114527816 L241.1622567663914,43.19451251421991" stroke="#0d6d4d" stroke-width="0.1" fill="none" />
<path d="M204.9000727897548,-134.31664145128548 L227.41663270322348,91.140963183012" stroke="#0d6d4d" stroke-width="0.1" fill="none" />
<path d="M206.19477429213572,-132.32050126346715 L204.24546795532765,135.30997309773295" stroke="#0d6d4d" stroke-width="0.1" fill="none" />
<path d="M207.47003001233574,-130.3118822160148 L172.60911776782285,173.87090746704536" stroke="#0d6d4d" stroke-width="0.1" fill="none" />
<path d="M208.72571968375226,-128.29097373743673 L133.8187866127134,205.22556456129212" stroke="#0d6d4d" stroke-width="0.1" fill="none" />
<path d="M209.96172488501446,-126.25796641523063 L89.48218383003544,228.07441499871865" stroke="#0d6d4d" stroke-width="0.1" fill="none" />
<path d="M211.1779290511512,-124.2130519779099 L41.436890287922445,241.47046221694833" stroke="#0d6d4d" stroke-width="0.1" fill="none" />
<path d="M212.374217484584,-122.15642327692235 L-8.325802243943091,244.85849182128592" stroke="#0d6d4d" stroke-width="0.1" fill="none" />
<path d="M213.55047736594398,-120.08827426846236 L-57.743422443805024,238.098083076022" stroke="#0d6d4d" stroke-width="0.1" fill="none" />
<path d="M214.70659776471163,-118.0087999951797 L-104.7678009047053,221.46942880134048" stroke="#0d6d4d" stroke-width="0.1" fill="none" />
<path d="M215.8424696496783,-115.9181965677853 L-147.44995884224798,195.66172246359116" stroke="#0d6d4d" stroke-width="0.1" fill="none" />
<path d="M216.9579858992288,-113.81666114655638 L-184.02088573433448,161.7445937691613" stroke="#0d6d4d" stroke-width="0.1" fill="none" />
<path d="M218.05304131144385,-111.70439192274296 L-212.96485797182388,121.12377664620962" stroke="#0d6d4d" stroke-width="0.1" fill="none" />
<path d="M219.12753261402136,-109.58158809987657 L-233.08225974535694,75.48284700511743" stroke="#0d6d4d" stroke-width="0.1" fill="none" />
<path d="M220.18135847401587,-107.44844987498391 L-243.53930248532194,26.713445022364184" stroke="#0d6d4d" stroke-width="0.1" fill="none" />
<path d="M221.21441950739484,-105.30517841970702 L-243.90258217629642,-23.163126035467968" stroke="#0d6d4d" stroke-width="0.1" fill="none" />
<path d="M222.22661828841177,-103.15197586133061 L-234.1570422788069,-72.07967502174964" stroke="#0d6d4d" stroke-width="0.1" fill="none" />
<path d="M223.21785935879382,-100.98904526372029 L-214.70659776471166,-118.00879999517967" stroke="#0d6d4d" stroke-width="0.1" fill="none" />
<path d="M224.18804923674438,-98.81659060817208 L-186.35739440234983,-159.0469161963445" stroke="#0d6d4d" stroke-width="0.1" fill="none" />
<path d="M225.13709642575927,-96.63481677417505 L-150.28439712940155,-193.49315228051955" stroke="#0d6d4d" stroke-width="0.1" fill="none" />
<path d="M226.06491142325532,-94.44392952008998 L-107.98269229630104,-219.91984486271895" stroke="#0d6d4d" stroke-width="0.1" fill="none" />
<path d="M226.97140672901148,-92.2441354637445 L-61.205522114043156,-237.23170964849402" stroke="#0d6d4d" stroke-width="0.1" fill="none" />
<path d="M227.8564968534205,-90.03564206294732 L-11.891619539090511,-244.71123673574436" stroke="#0d6d4d" stroke-width="0.1" fill="none" />
<path d="M228.72009832555142,-87.81865759592368 L37.91514471638549,-242.0484286276933" stroke="#0d6d4d" stroke-width="0.1" fill="none" />
<path d="M229.56212970102152,-85.59339114167268 L86.15047272797854,-229.3536484312945" stroke="#0d6d4d" stroke-width="0.1" fill="none" />
<path d="M230.38251156967712,-83.36005256024968 L130.81519653154174,-207.15304573289313" stroke="#0d6d4d" stroke-width="0.1" fill="none" />
<path d="M231.1811665630825,-81.11885247297514 L170.05813591048997,-176.366749730921" stroke="#0d6d4d" stroke-width="0.1" fill="none" />
<path d="M231.95801936181658,-78.87000224257075 L202.25282266279297,-138.27073343601245" stroke="#0d6d4d" stroke-width="0.1" fill="none" />
<path d="M232.71299670257602,-76.61371395322674 L226.06491142325532,-94.44392952008998" stroke="#0d6d4d" stroke-width="0.1" fill="none" />
<path d="M233.44602738508428,-74.35020039060063 L240.50748312297586,-46.70278965812942" stroke="#0d6d4d" stroke-width="0.1" fill="none" />
<path d="M234.15704227880687,-72.0796750217497 L244.98194897128573,2.974000374975152" stroke="#0d6d4d" stroke-width="0.1" fill="none" />
<path d="M234.84597432947044,-69.8023519749995 L239.3028596481666,52.52752958411311" stroke="#0d6d4d" stroke-width="0.1" fill="none" />
<path d="M235.5127585653867,-67.51844601974992 L223.7055914619869,99.90399565904566" stroke="#0d6d4d" stroke-width="0.1" fill="none" />
<path d="M236.1573321035798,-65.22817254622055 L198.836590911017,143.13982714424685" stroke="#0d6d4d" stroke-width="0.1" fill="none" />
<path d="M236.77963415571665,-62.93174754513799 L165.72658197395373,180.4430658884691" stroke="#0d6d4d" stroke-width="0.1" fill="none" />
<path d="M237.37960603383974,-60.62938758736585 L125.74784658373399,210.26763678596308" stroke="#0d6d4d" stroke-width="0.1" fill="none" />
<path d="M237.95719115590185,-58.32130980348082 L80.55734884393004,231.3774266155568" stroke="#0d6d4d" stroke-width="0.1" fill="none" />
<path d="M238.51233505110213,-56.00773186329539 L32.02806026918669,242.8975161573155" stroke="#0d6d4d" stroke-width="0.1" fill="none" />
<path d="M239.04498536502334,-53.68887195532973 L-17.828667646873832,244.35044221350884" stroke="#0d6d4d" stroke-width="0.1" fill="none" />
<path d="M239.55509186456894,-51.36494876623496 L-66.94646617917454,235.67598661323268" stroke="#0d6d4d" stroke-width="0.1" fill="none" />
<path d="M240.0426064427008,-49.03618146016942 L-113.28959237036298,217.23367202290945" stroke="#0d6d4d" stroke-width="0.1" fill="none" />
<path d="M240.50748312297586,-46.70278965812942 L-154.93730271025515,189.78786112096518" stroke="#0d6d4d" stroke-width="0.1" fill="none" />
<path d="M240.94967806388217,-44.364993417237585 L-190.16346053255612,154.47607671831577" stroke="#0d6d4d" stroke-width="0.1" fill="none" />
<path d="M241.36914956297343,-42.02301320998968 L-217.50807770986256,112.7618558332577" stroke="#0d6d4d" stroke-width="0.1" fill="none" />
<path d="M241.76585806080186,-39.67706990346205 L-235.83782552013076,66.37409173718575" stroke="#0d6d4d" stroke-width="0.1" fill="none" />
<path d="M242.139766144649,-37.32738473848258 L-244.39300674300864,17.23537800895971" stroke="#0d6d4d" stroke-width="0.1" fill="none" />
<path d="M242.490838552054,-34.97417930876549 L-242.81904217413918,-32.617675540013785" stroke="#0d6d4d" stroke-width="0.1" fill="none" />
<path d="M242.8190421741392,-32.61767554001374 L-231.18116656308257,-81.11885247297498" stroke="#0d6d4d" stroke-width="0.1" fill="none" />
<path d="M243.12434605873244,-30.258095668989426 L-209.96172488501443,-126.25796641523063" stroke="#0d6d4d" stroke-width="0.1" fill="none" />
<path d="M243.4067214132862,-27.89566222255512 L-180.04018100529302,-166.16417551199575" stroke="#0d6d4d" stroke-width="0.1" fill="none" />
<path d="M243.66614160759292,-25.53059799668789 L-142.65666730049847,-199.18352159431987" stroke="#0d6d4d" stroke-width="0.1" fill="none" />
<path d="M243.90258217629642,-23.16312603546808 L-99.36058596331245,-223.94748035427236" stroke="#0d6d4d" stroke-width="0.1" fill="none" />
<path d="M244.1160208211992,-20.793469610044102 L-51.94639226854103,-239.42968138951125" stroke="#0d6d4d" stroke-width="0.1" fill="none" />
<path d="M244.30643741336542,-18.421852197576634 L-2.3792213357725918,-244.98844729055165" stroke="#0d6d4d" stroke-width="0.1" fill="none" />
<path d="M244.473813995019,-16.04849746016278 L47.2865591280215,-240.39338868993906" stroke="#0d6d4d" stroke-width="0.1" fill="none" />
<path d="M244.61813478123736,-13.673629223742829 L94.99249443183733,-225.83495301130282" stroke="#0d6d4d" stroke-width="0.1" fill="none" />
<path d="M244.73938616144,-11.297471456992104 L138.76135789368504,-201.91653115953793" stroke="#0d6d4d" stroke-width="0.1" fill="none" />
<path d="M244.8375567006721,-8.920248250198522 L176.7790992465276,-169.62944929930754" stroke="#0d6d4d" stroke-width="0.1" fill="none" />
<path d="M244.91263714068293,-6.542183794129497 L207.47003001233574,-130.3118822160148" stroke="#0d6d4d" stroke-width="0.1" fill="none" />
<path d="M244.96462040079894,-4.163502358888842 L229.56212970102152,-85.59339114167268" stroke="#0d6d4d" stroke-width="0.1" fill="none" />
<path d="M244.99350157859158,-1.7844282727662302 L242.139766144649,-37.32738473848258" stroke="#0d6d4d" stroke-width="0.1" fill="none" />
<path d="M244.99927795033952,0.5948140989186131 L244.68164491278017,12.48569752861848" stroke="#0d6d4d" stroke-width="0.1" fill="none" />
<path d="M244.98194897128573,2.974000374975152 L237.08241495232863,61.781295878055616" stroke="#0d6d4d" stroke-width="0.1" fill="none" />
<path d="M244.94151627568863,5.352906179503326 L219.65703498163188,108.51629823707657" stroke="#0d6d4d" stroke-width="0.1" fill="none" />
<path d="M244.87798367666807,7.731307163053518 L193.12771966858085,150.75371934255566" stroke="#0d6d4d" stroke-width="0.1" fill="none" />
<path d="M244.79135716584577,10.108979023784958 L158.59400662328292,186.74298129561416" stroke="#0d6d4d" stroke-width="0.1" fill="none" />
<path d="M244.68164491278017,12.48569752861848 L117.48718481275003,214.99246825127324" stroke="#0d6d4d" stroke-width="0.1" fill="none" />
<path d="M244.54885726419604,14.861238534384238 L71.5109731637359,234.33134813160498" stroke="#0d6d4d" stroke-width="0.1" fill="none" />
<path d="M244.39300674300867,17.23537800895949 L22.57090799641336,243.95809909125265" stroke="#0d6d4d" stroke-width="0.1" fill="none" />
<path d="M244.21410804714282,19.607892052397084 L-27.30463409307903,243.47372950082942" stroke="#0d6d4d" stroke-width="0.1" fill="none" />
<path d="M244.01217804814672,21.97855691804053 L-76.04850460487387,232.89831460824803" stroke="#0d6d4d" stroke-width="0.1" fill="none" />
<path d="M243.78723578960083,24.34714903362546 L-121.64045845320551,212.67016449726555" stroke="#0d6d4d" stroke-width="0.1" fill="none" />
<path d="M243.53930248532194,26.713445022364073 L-162.19088531896236,183.62765782814745" stroke="#0d6d4d" stroke-width="0.1" fill="none" />
<path d="M243.2684015173625,29.077221724011135 L-196.0191266959343,146.97449428170611" stroke="#0d6d4d" stroke-width="0.1" fill="none" />
<path d="M242.97455843380556,31.43825621591015 L-221.72313269180972,104.2298058586417" stroke="#0d6d4d" stroke-width="0.1" fill="none" />
<path d="M242.65780094635534,33.79632583401625 L-238.23757157867234,57.1651947280596" stroke="#0d6d4d" stroke-width="0.1" fill="none" />
<path d="M242.3181589277238,36.15120819389567 L-244.87798367666807,7.731307163053469" stroke="#0d6d4d" stroke-width="0.1" fill="none" />
<path d="M241.9556644088135,38.502681211697656 L-241.36914956297343,-42.023013209989564" stroke="#0d6d4d" stroke-width="0.1" fill="none" />
<path d="M241.5703515756967,40.85052312509954 L-227.85649685342054,-90.03564206294728" stroke="#0d6d4d" stroke-width="0.1" fill="none" />
<path d="M241.1622567663914,43.19451251421991 L-204.90007278975486,-134.31664145128542" stroke="#0d6d4d" stroke-width="0.1" fill="none" />
<path d="M240.73141846743442,45.53442832250083 L-173.45133244549476,-173.03073505271385" stroke="#0d6d4d" stroke-width="0.1" fill="none" />
<path d="M240.2778773102518,47.870049877554706 L-134.8137045895689,-204.57337327921354" stroke="#0d6d4d" stroke-width="0.1" fill="none" />
<path d="M239.8016760673269,50.20115691197582 L-90.58856960031012,-227.6372356574595" stroke="#0d6d4d" stroke-width="0.1" fill="none" />
<path d="M239.3028596481666,52.52752958411311 L-42.608888436526904,-241.26641421093737" stroke="#0d6d4d" stroke-width="0.1" fill="none" />
<path d="M238.78147509506613,54.8489484988028 L7.136766511652101,-244.896032151928" stroke="#0d6d4d" stroke-width="0.1" fill="none" />
<path d="M238.23757157867237,57.16519472805944 L56.58663006448161,-238.37565584166833" stroke="#0d6d4d" stroke-width="0.1" fill="none" />
<path d="M237.67120039334696,59.47604983172224 L103.69119645261144,-221.97552968339988" stroke="#0d6d4d" stroke-width="0.1" fill="none" />
<path d="M237.08241495232863,61.781295878055616 L146.49816341190956,-196.37537553608254" stroke="#0d6d4d" stroke-width="0.1" fill="none" />
<path d="M236.47127078269597,64.0807154643023 L183.23334756858907,-162.63622086979467" stroke="#0d6d4d" stroke-width="0.1" fill="none" />
<path d="M235.83782552013076,66.37409173718575 L212.374217484584,-122.15642327692235" stroke="#0d6d4d" stroke-width="0.1" fill="none" />
<path d="M235.1821389034826,68.66120841336108 L232.71299670257602,-76.61371395322674" stroke="#0d6d4d" stroke-width="0.1" fill="none" />
<path d="M234.5042727691349,70.94184979981263 L243.4067214132862,-27.89566222255512" stroke="#0d6d4d" stroke-width="0.1" fill="none" />
<path d="M233.80429104517333,73.215800814195 L244.01217804814672,21.97855691804053" stroke="#0d6d4d" stroke-width="0.1" fill="none" />
<path d="M233.0822597453569,75.48284700511749 L234.5042727691349,70.94184979981263" stroke="#0d6d4d" stroke-width="0.1" fill="none" />
<path d="M232.33824696289227,77.74277457236835 L215.27707151139637,116.96487712761095" stroke="#0d6d4d" stroke-width="0.1" fill="none" />
<path d="M231.57232286401214,79.99537038707756 L187.12746747290927,158.1401622522732" stroke="#0d6d4d" stroke-width="0.1" fill="none" />
<path d="M230.78455968135785,82.24042201181707 L151.22215297063326,192.7611487072185" stroke="#0d6d4d" stroke-width="0.1" fill="none" />
<path d="M229.97503170716757,84.4777177206349 L109.04926455208653,219.39293037983026" stroke="#0d6d4d" stroke-width="0.1" fill="none" />
<path d="M229.14381528626964,86.70704651902254 L62.35670548562953,236.93172282532885" stroke="#0d6d4d" stroke-width="0.1" fill="none" />
<path d="M228.29098880888282,88.92819816381378 L13.079701923912602,244.65061086697003" stroke="#0d6d4d" stroke-width="0.1" fill="none" />
<path d="M227.41663270322348,91.140963183012 L-36.73940474241239,242.22967642131135" stroke="#0d6d4d" stroke-width="0.1" fill="none" />
<path d="M226.52082942792052,93.3451328955449 L-85.0358050437013,229.76925786660325" stroke="#0d6d4d" stroke-width="0.1" fill="none" />
<path d="M225.60366346423893,95.5404994309451 L-129.80779980538318,207.78579140471942" stroke="#0d6d4d" stroke-width="0.1" fill="none" />
<path d="M224.6652213081126,97.72685574895362 L-169.19976284415552,177.1904067761049" stroke="#0d6d4d" stroke-width="0.1" fill="none" />
<path d="M223.7055914619869,99.90399565904566 L-201.57904950311737,139.25116445265283" stroke="#0d6d4d" stroke-width="0.1" fill="none" />
<path d="M222.72486442647238,102.07171383987584 L-225.60366346423893,95.54049943094515" stroke="#0d6d4d" stroke-width="0.1" fill="none" />
<path d="M221.7231326918097,104.22980585864175 L-240.2778773102518,47.87004987755477" stroke="#0d6d4d" stroke-width="0.1" fill="none" />
<path d="M220.7004907291473,106.37806819036321 L-244.99350157859158,-1.78442827276617" stroke="#0d6d4d" stroke-width="0.1" fill="none" />
<path d="M219.65703498163188,108.51629823707657 L-239.55509186456894,-51.36494876623496" stroke="#0d6d4d" stroke-width="0.1" fill="none" />
<path d="M218.59286385531297,110.64429434694142 L-224.18804923674438,-98.81659060817208" stroke="#0d6d4d" stroke-width="0.1" fill="none" />
<path d="M217.5080777098626,112.76185583325764 L-199.5292782335892,-142.17266659798906" stroke="#0d6d4d" stroke-width="0.1" fill="none" />
<path d="M216.40277884911055,114.86878299339183 L-166.60078963137252,-179.63623491434896" stroke="#0d6d4d" stroke-width="0.1" fill="none" />
<path d="M215.27707151139637,116.96487712761095 L-126.76734204654947,-209.65457541025222" stroke="#0d6d4d" stroke-width="0.1" fill="none" />
<path d="M214.13106185973888,119.04994055782085 L-81.67987796455192,-230.98354386340145" stroke="#0d6d4d" stroke-width="0.1" fill="none" />
<path d="M212.964857971824,121.12377664620946 L-33.207098553032395,-242.73913694682443" stroke="#0d6d4d" stroke-width="0.1" fill="none" />
<path d="M211.77856982981228,123.1861898137909 L16.641986780850534,-244.43413075097757" stroke="#0d6d4d" stroke-width="0.1" fill="none" />
<path d="M210.57230930996687,125.23698555885014 L65.80132606752007,-235.9982743321567" stroke="#0d6d4d" stroke-width="0.1" fill="none" />
<path d="M209.34619017210244,127.27597047528621 L112.23345464586895,-217.78120134266337" stroke="#0d6d4d" stroke-width="0.1" fill="none" />
<path d="M208.10032804885694,129.30295227085165 L154.01394020067215,-190.5379390669055" stroke="#0d6d4d" stroke-width="0.1" fill="none" />
<path d="M206.83484043478654,131.31773978528716 L189.41114304602158,-155.39761545789418" stroke="#0d6d4d" stroke-width="0.1" fill="none" />
<path d="M205.54984667528484,133.32014300835002 L216.9579858992288,-113.81666114655638" stroke="#0d6d4d" stroke-width="0.1" fill="none" />
<path d="M204.24546795532765,135.30997309773295 L235.5127585653867,-67.51844601974992" stroke="#0d6d4d" stroke-width="0.1" fill="none" />
<path d="M202.92182728804454,137.28704239687374 L244.30643741336542,-18.421852197576634" stroke="#0d6d4d" stroke-width="0.1" fill="none" />
<path d="M201.57904950311743,139.25116445265277 L242.97455843380556,31.43825621591015" stroke="#0d6d4d" stroke-width="0.1" fill="none" />
<path d="M200.2172612350084,141.2021540329764 L231.57232286401214,79.99537038707756" stroke="#0d6d4d" stroke-width="0.1" fill="none" />
<path d="M198.836590911017,143.13982714424685 L210.57230930996687,125.23698555885014" stroke="#0d6d4d" stroke-width="0.1" fill="none" />
<path d="M197.43716873916853,145.0640010487133 L180.84488718915995,165.28801159654626" stroke="#0d6d4d" stroke-width="0.1" fill="none" />
<path d="M196.01912669593435,146.97449428170603 L143.62214328135386,198.48848822858787" stroke="#0d6d4d" stroke-width="0.1" fill="none" />
<path d="M194.5825985137855,148.87112666874984 L100.44681649236156,223.46238398564944" stroke="#0d6d4d" stroke-width="0.1" fill="none" />
<path d="M193.12771966858085,150.75371934255566 L53.108357287563656,239.1746273880582" stroke="#0d6d4d" stroke-width="0.1" fill="none" />
<path d="M191.65462736679055,152.62209475988936 L3.56876188457826,244.97400665909674" stroke="#0d6d4d" stroke-width="0.1" fill="none" />
<path d="M190.16346053255617,154.47607671831568 L-46.118744908780876,240.62015993685733" stroke="#0d6d4d" stroke-width="0.1" fill="none" />
<path d="M188.65435979458934,156.31549037281505 L-93.8948079290998,226.29353734465653" stroke="#0d6d4d" stroke-width="0.1" fill="none" />
<path d="M187.12746747290927,158.1401622522732 L-137.77929397151436,202.5879220306853" stroke="#0d6d4d" stroke-width="0.1" fill="none" />
<path d="M185.5829275654208,159.94992027584067 L-175.95336065978978,170.4858201509027" stroke="#0d6d4d" stroke-width="0.1" fill="none" />
<path d="M184.0208857343345,161.74459376916124 L-206.83484043478657,131.31773978528713" stroke="#0d6d4d" stroke-width="0.1" fill="none" />
<path d="M182.44148929242934,163.5240134804683 L-229.14381528626964,86.70704651902248" stroke="#0d6d4d" stroke-width="0.1" fill="none" />
<path d="M180.84488718915995,165.28801159654626 L-241.95566440881348,38.502681211697826" stroke="#0d6d4d" stroke-width="0.1" fill="none" />
<path d="M179.23122999660958,167.03642175855668 L-244.73938616144002,-11.297471456991936" stroke="#0d6d4d" stroke-width="0.1" fill="none" />
<path d="M177.60066989529003,168.76907907772747 L-237.37960603383976,-60.62938758736574" stroke="#0d6d4d" stroke-width="0.1" fill="none" />
<path d="M175.95336065978975,170.48582015090273 L-220.18135847401587,-107.44844987498387" stroke="#0d6d4d" stroke-width="0.1" fill="none" />
<path d="M174.28945764427192,172.18648307595325 L-193.8574443890712,-149.81418909748893" stroke="#0d6d4d" stroke-width="0.1" fill="none" />
<path d="M172.60911776782285,173.87090746704536 L-159.49888830188095,-185.9707090658744" stroke="#0d6d4d" stroke-width="0.1" fill="none" />
<path d="M170.91249949965376,175.53893446976616 L-118.52971960035251,-214.41946173671317" stroke="#0d6d4d" stroke-width="0.1" fill="none" />
<path d="M169.19976284415554,177.19040677610485 L-72.64795202176454,-233.9813562381486" stroke="#0d6d4d" stroke-width="0.1" fill="none" />
<path d="M167.4710693258094,178.82516863928842 L-23.75520754450428,-243.84562763051036" stroke="#0d6d4d" stroke-width="0.1" fill="none" />
<path d="M165.72658197395373,180.4430658884691 L26.122098495045773,-243.60343998025795" stroke="#0d6d4d" stroke-width="0.1" fill="none" />
<path d="M163.96646530740895,182.04394594326462 L74.91674448810363,-233.26483102967794" stroke="#0d6d4d" stroke-width="0.1" fill="none" />
<path d="M162.19088531896242,183.6276578281474 L120.60638090140277,-213.25829617125274" stroke="#0d6d4d" stroke-width="0.1" fill="none" />
<path d="M160.40000945971371,185.19405218668268 L161.2973488509601,-184.4130289693537" stroke="#0d6d4d" stroke-width="0.1" fill="none" />
<path d="M158.59400662328292,186.74298129561416 L195.30316494569476,-147.92455429101267" stroke="#0d6d4d" stroke-width="0.1" fill="none" />
<path d="M156.77304712988257,188.2742990787952 L221.21441950739484,-105.30517841970702" stroke="#0d6d4d" stroke-width="0.1" fill="none" />
<path d="M154.93730271025518,189.78786112096515 L237.95719115590185,-58.32130980348082" stroke="#0d6d4d" stroke-width="0.1" fill="none" />
<path d="M153.08694648947738,191.28352468136896 L244.8375567006721,-8.920248250198522" stroke="#0d6d4d" stroke-width="0.1" fill="none" />
<path d="M151.22215297063326,192.7611487072185 L241.5703515756967,40.85052312509954" stroke="#0d6d4d" stroke-width="0.1" fill="none" />
<path d="M149.3430980183571,194.22059384699497 L228.29098880888282,88.92819816381378" stroke="#0d6d4d" stroke-width="0.1" fill="none" />
<path d="M147.449958842248,195.66172246359113 L205.54984667528484,133.32014300835002" stroke="#0d6d4d" stroke-width="0.1" fill="none" />
<path d="M145.54291398015798,197.08439864729104 L174.28945764427192,172.18648307595325" stroke="#0d6d4d" stroke-width="0.1" fill="none" />
<path d="M143.62214328135386,198.48848822858787 L135.80544405063063,203.9163587508639" stroke="#0d6d4d" stroke-width="0.1" fill="none" />
<path d="M141.68782788955644,199.87385879083698 L91.6928195550894,227.19468929100833" stroke="#0d6d4d" stroke-width="0.1" fill="none" />
<path d="M139.74015022585718,201.24037968274376 L43.7798819912346,241.056677843269" stroke="#0d6d4d" stroke-width="0.1" fill="none" />
<path d="M137.7792939715143,202.58792203068532 L-5.947562515124469,244.92779854505832" stroke="#0d6d4d" stroke-width="0.1" fill="none" />
<path d="M135.80544405063063,203.9163587508639 L-55.428503536690606,238.64760840134787" stroke="#0d6d4d" stroke-width="0.1" fill="none" />
<path d="M133.8187866127134,205.22556456129212 L-102.61214726311786,222.47639702685814" stroke="#0d6d4d" stroke-width="0.1" fill="none" />
<path d="M131.81950901511888,206.51541599360806 L-145.54291398015795,197.08439864729107" stroke="#0d6d4d" stroke-width="0.1" fill="none" />
<path d="M129.80779980538333,207.7857914047193 L-182.44148929242925,163.52401348046848" stroke="#0d6d4d" stroke-width="0.1" fill="none" />
<path d="M127.78384870344142,209.03657098827466 L-211.77856982981228,123.18618981379088" stroke="#0d6d4d" stroke-width="0.1" fill="none" />
<path d="M125.74784658373399,210.26763678596308 L-232.3382469628922,77.74277457236843" stroke="#0d6d4d" stroke-width="0.1" fill="none" />
<path d="M123.69998545720757,211.47887269863776 L-243.2684015173625,29.077221724011245" stroke="#0d6d4d" stroke-width="0.1" fill="none" />
<path d="M121.64045845320565,212.67016449726546 L-244.11602082119924,-20.793469610044045" stroke="#0d6d4d" stroke-width="0.1" fill="none" />
<path d="M119.56945980125535,213.84139983369914 L-234.84597432947044,-69.8023519749995" stroke="#0d6d4d" stroke-width="0.1" fill="none" />
<path d="M117.48718481275003,214.99246825127324 L-215.8424696496783,-115.9181965677853" stroke="#0d6d4d" stroke-width="0.1" fill="none" />
<path d="M115.39382986253013,216.12326119522038 L-187.8931286210114,-157.2296798222526" stroke="#0d6d4d" stroke-width="0.1" fill="none" />
<path d="M113.28959237036293,217.23367202290947 L-152.15634343249167,-192.0246003856111" stroke="#0d6d4d" stroke-width="0.1" fill="none" />
<path d="M111.174670782325,218.32359601390237 L-110.11326574278091,-218.86084324853476" stroke="#0d6d4d" stroke-width="0.1" fill="none" />
<path d="M109.04926455208653,219.39293037983026 L-63.5064186671204,-236.62614983994567" stroke="#0d6d4d" stroke-width="0.1" fill="none" />
<path d="M106.91357412210172,220.44157427408712 L-14.267475927333397,-244.58421684700542" stroke="#0d6d4d" stroke-width="0.1" fill="none" />
<path d="M104.76780090470535,221.46942880134048 L35.562798559929035,-242.40521314234542" stroke="#0d6d4d" stroke-width="0.1" fill="none" />
<path d="M102.6121472631179,222.47639702685814 L83.91913246199779,-230.1794500098253" stroke="#0d6d4d" stroke-width="0.1" fill="none" />
<path d="M100.44681649236156,223.46238398564944 L128.79734258813386,-208.4136380907806" stroke="#0d6d4d" stroke-width="0.1" fill="none" />
<path d="M98.2720128000873,224.42729669142184 L168.3374005385954,-178.00988618587593" stroke="#0d6d4d" stroke-width="0.1" fill="none" />
<path d="M96.08794128731681,225.37104414534969 L200.90052369463294,-140.22831233107752" stroke="#0d6d4d" stroke-width="0.1" fill="none" />
<path d="M93.89480792909984,226.2935373446565 L225.13709642575927,-96.63481677417505" stroke="#0d6d4d" stroke-width="0.1" fill="none" />
<path d="M91.6928195550894,227.19468929100833 L240.0426064427008,-49.03618146016942" stroke="#0d6d4d" stroke-width="0.1" fill="none" />
<path d="M89.48218383003544,228.07441499871865 L244.99927795033952,0.5948140989186131" stroke="#0d6d4d" stroke-width="0.1" fill="none" />
<path d="M87.26310923420121,228.932631502763 L239.8016760673269,50.20115691197582" stroke="#0d6d4d" stroke-width="0.1" fill="none" />
<path d="M85.03580504370136,229.76925786660325 L224.6652213081126,97.72685574895362" stroke="#0d6d4d" stroke-width="0.1" fill="none" />
<path d="M82.80048131076576,230.58421518982067 L200.2172612350084,141.2021540329764" stroke="#0d6d4d" stroke-width="0.1" fill="none" />
<path d="M80.55734884393004,231.3774266155568 L167.4710693258094,178.82516863928842" stroke="#0d6d4d" stroke-width="0.1" fill="none" />
<path d="M78.30661918815443,232.14881733776153 L127.78384870344142,209.03657098827466" stroke="#0d6d4d" stroke-width="0.1" fill="none" />
<path d="M76.04850460487393,232.898314608248 L82.80048131076576,230.58421518982067" stroke="#0d6d4d" stroke-width="0.1" fill="none" />
<path d="M73.78321805197967,233.62584774355346 L34.385353909893446,242.57503465214916" stroke="#0d6d4d" stroke-width="0.1" fill="none" />
<path d="M71.5109731637359,234.33134813160498 L-15.454913545090012,244.51205624122872" stroke="#0d6d4d" stroke-width="0.1" fill="none" />
<path d="M69.23198423063218,235.01474923819038 L-64.65463455161625,236.31499789686848" stroke="#0d6d4d" stroke-width="0.1" fill="none" />
<path d="M66.9464661791747,235.67598661323265 L-111.17467078232494,218.3235960139024" stroke="#0d6d4d" stroke-width="0.1" fill="none" />
<path d="M64.6546345516162,236.31499789686848 L-153.08694648947736,191.283524681369" stroke="#0d6d4d" stroke-width="0.1" fill="none" />
<path d="M62.35670548562953,236.93172282532885 L-188.65435979458928,156.31549037281513" stroke="#0d6d4d" stroke-width="0.1" fill="none" />
<path d="M60.05289569392341,237.52610323662273 L-216.40277884911052,114.86878299339189" stroke="#0d6d4d" stroke-width="0.1" fill="none" />
<path d="M57.74342244380519,238.09808307602196 L-235.18213890348258,68.6612084133613" stroke="#0d6d4d" stroke-width="0.1" fill="none" />
<path d="M55.42850353669066,238.64760840134784 L-244.21410804714282,19.60789205239703" stroke="#0d6d4d" stroke-width="0.1" fill="none" />
<path d="M53.108357287563656,239.1746273880582 L-243.12434605873244,-30.25809566898926" stroke="#0d6d4d" stroke-width="0.1" fill="none" />
<path d="M50.78320250438759,239.67909033413483 L-231.95801936181658,-78.8700022425708" stroke="#0d6d4d" stroke-width="0.1" fill="none" />
<path d="M48.45325846746957,240.16094966477084 L-211.17792905115127,-124.2130519779098" stroke="#0d6d4d" stroke-width="0.1" fill="none" />
<path d="M46.118744908780926,240.6201599368573 L-181.64532957557466,-164.40795066960982" stroke="#0d6d4d" stroke-width="0.1" fill="none" />
<path d="M43.7798819912346,241.056677843269 L-144.58423306900184,-197.78877508050996" stroke="#0d6d4d" stroke-width="0.1" fill="none" />
<path d="M41.436890287922445,241.47046221694833 L-101.53067877707217,-222.97201902271726" stroke="#0d6d4d" stroke-width="0.1" fill="none" />
<path d="M39.08999076131271,241.8614740347881 L-54.269070165693584,-238.91393434320867" stroke="#0d6d4d" stroke-width="0.1" fill="none" />
<path d="M36.73940474241244,242.22967642131135 L-4.758218292338548,-244.95379025171758" stroke="#0d6d4d" stroke-width="0.1" fill="none" />
<path d="M34.385353909893446,242.57503465214916 L44.94984334341665,-240.84125805891793" stroke="#0d6d4d" stroke-width="0.1" fill="none" />
<path d="M32.02806026918669,242.8975161573155 L92.79490765936538,-226.74678633332348" stroke="#0d6d4d" stroke-width="0.1" fill="none" />
<path d="M29.66774613154538,243.19709052427862 L136.79398161356113,-203.25453646673844" stroke="#0d6d4d" stroke-width="0.1" fill="none" />
<path d="M27.304634093079095,243.47372950082942 L175.12347360359536,-171.3381714417743" stroke="#0d6d4d" stroke-width="0.1" fill="none" />
<path d="M24.938947013761727,243.7274069977457 L206.19477429213572,-132.32050126346715" stroke="#0d6d4d" stroke-width="0.1" fill="none" />
<path d="M22.57090799641336,243.95809909125265 L228.72009832555142,-87.81865759592368" stroke="#0d6d4d" stroke-width="0.1" fill="none" />
<path d="M20.200740365660252,244.16578402527898 L241.76585806080186,-39.67706990346205" stroke="#0d6d4d" stroke-width="0.1" fill="none" />
<path d="M17.828667646873892,244.3504422135088 L244.79135716584577,10.108979023784958" stroke="#0d6d4d" stroke-width="0.1" fill="none" />
<path d="M15.454913545090182,244.51205624122872 L237.67120039334696,59.47604983172224" stroke="#0d6d4d" stroke-width="0.1" fill="none" />
<path d="M13.079701923912602,244.65061086697003 L220.7004907291473,106.37806819036321" stroke="#0d6d4d" stroke-width="0.1" fill="none" />
<path d="M10.703256784400454,244.7660930239464 L194.5825985137855,148.87112666874984" stroke="#0d6d4d" stroke-width="0.1" fill="none" />
<path d="M8.325802243943153,244.85849182128592 L160.40000945971371,185.19405218668268" stroke="#0d6d4d" stroke-width="0.1" fill="none" />
<path d="M5.947562515124637,244.92779854505832 L119.56945980125535,213.84139983369914" stroke="#0d6d4d" stroke-width="0.1" fill="none" />
<path d="M3.56876188457826,244.97400665909674 L73.78321805197967,233.62584774355346" stroke="#0d6d4d" stroke-width="0.1" fill="none" />
<path d="M1.189624691834689,244.99711180561408 L24.938947013761727,243.7274069977457" stroke="#0d6d4d" stroke-width="0.1" fill="none" />
<path d="M-1.1896246918346292,244.99711180561408 L-24.938947013761666,243.7274069977457" stroke="#0d6d4d" stroke-width="0.1" fill="none" />
<path d="M-3.5687618845780906,244.97400665909674 L-73.78321805197952,233.6258477435535" stroke="#0d6d4d" stroke-width="0.1" fill="none" />
<path d="M-5.947562515124469,244.92779854505832 L-119.5694598012553,213.84139983369917" stroke="#0d6d4d" stroke-width="0.1" fill="none" />
<path d="M-8.325802243943091,244.85849182128592 L-160.4000094597136,185.1940521866828" stroke="#0d6d4d" stroke-width="0.1" fill="none" />
<path d="M-10.703256784400393,244.7660930239464 L-194.58259851378554,148.8711266687498" stroke="#0d6d4d" stroke-width="0.1" fill="none" />
<path d="M-13.07970192391265,244.65061086697003 L-220.70049072914728,106.37806819036327" stroke="#0d6d4d" stroke-width="0.1" fill="none" />
<path d="M-15.454913545090012,244.51205624122872 L-237.671200393347,59.47604983172209" stroke="#0d6d4d" stroke-width="0.1" fill="none" />
<path d="M-17.828667646873832,244.35044221350884 L-244.79135716584577,10.108979023785016" stroke="#0d6d4d" stroke-width="0.1" fill="none" />
<path d="M-20.200740365660298,244.16578402527898 L-241.76585806080186,-39.677069903461984" stroke="#0d6d4d" stroke-width="0.1" fill="none" />
<path d="M-22.57090799641319,243.95809909125265 L-228.72009832555145,-87.81865759592363" stroke="#0d6d4d" stroke-width="0.1" fill="none" />
<path d="M-24.938947013761666,243.7274069977457 L-206.19477429213575,-132.3205012634671" stroke="#0d6d4d" stroke-width="0.1" fill="none" />
<path d="M-27.30463409307903,243.47372950082942 L-175.1234736035954,-171.3381714417743" stroke="#0d6d4d" stroke-width="0.1" fill="none" />
<path d="M-29.667746131545318,243.19709052427865 L-136.79398161356127,-203.25453646673833" stroke="#0d6d4d" stroke-width="0.1" fill="none" />
<path d="M-32.028060269186525,242.89751615731552 L-92.79490765936532,-226.7467863333235" stroke="#0d6d4d" stroke-width="0.1" fill="none" />
<path d="M-34.38535390989339,242.57503465214918 L-44.949843343416795,-240.8412580589179" stroke="#0d6d4d" stroke-width="0.1" fill="none" />
<path d="M-36.73940474241239,242.22967642131135 L4.758218292338547,-244.95379025171758" stroke="#0d6d4d" stroke-width="0.1" fill="none" />
<path d="M-39.08999076131277,241.8614740347881 L54.26907016569356,-238.9139343432087" stroke="#0d6d4d" stroke-width="0.1" fill="none" />
<path d="M-41.43689028792228,241.47046221694836 L101.53067877707213,-222.9720190227173" stroke="#0d6d4d" stroke-width="0.1" fill="none" />
<path d="M-43.779881991234554,241.056677843269 L144.58423306900175,-197.78877508051002" stroke="#0d6d4d" stroke-width="0.1" fill="none" />
<path d="M-46.118744908780876,240.62015993685733 L181.6453295755746,-164.40795066960993" stroke="#0d6d4d" stroke-width="0.1" fill="none" />
<path d="M-48.45325846746941,240.16094966477087 L211.1779290511512,-124.2130519779099" stroke="#0d6d4d" stroke-width="0.1" fill="none" />
<path d="M-50.78320250438754,239.67909033413486 L231.95801936181658,-78.87000224257075" stroke="#0d6d4d" stroke-width="0.1" fill="none" />
<path d="M-53.1083572875636,239.17462738805824 L243.12434605873244,-30.258095668989426" stroke="#0d6d4d" stroke-width="0.1" fill="none" />
<path d="M-55.428503536690606,238.64760840134787 L244.21410804714282,19.607892052397084" stroke="#0d6d4d" stroke-width="0.1" fill="none" />
<path d="M-57.743422443805024,238.098083076022 L235.1821389034826,68.66120841336108" stroke="#0d6d4d" stroke-width="0.1" fill="none" />
<path d="M-60.05289569392336,237.52610323662273 L216.40277884911055,114.86878299339183" stroke="#0d6d4d" stroke-width="0.1" fill="none" />
<path d="M-62.356705485629476,236.93172282532888 L188.65435979458934,156.31549037281505" stroke="#0d6d4d" stroke-width="0.1" fill="none" />
<path d="M-64.65463455161625,236.31499789686848 L153.08694648947738,191.28352468136896" stroke="#0d6d4d" stroke-width="0.1" fill="none" />
<path d="M-66.94646617917454,235.67598661323268 L111.174670782325,218.32359601390237" stroke="#0d6d4d" stroke-width="0.1" fill="none" />
<path d="M-69.23198423063212,235.01474923819038 L64.6546345516162,236.31499789686848" stroke="#0d6d4d" stroke-width="0.1" fill="none" />
<path d="M-71.51097316373584,234.331348131605 L15.454913545090182,244.51205624122872" stroke="#0d6d4d" stroke-width="0.1" fill="none" />
<path d="M-73.78321805197952,233.6258477435535 L-34.38535390989339,242.57503465214918" stroke="#0d6d4d" stroke-width="0.1" fill="none" />
<path d="M-76.04850460487387,232.89831460824803 L-82.8004813107656,230.58421518982072" stroke="#0d6d4d" stroke-width="0.1" fill="none" />
<path d="M-78.30661918815437,232.14881733776156 L-127.78384870344136,209.03657098827472" stroke="#0d6d4d" stroke-width="0.1" fill="none" />
<path d="M-80.55734884392999,231.3774266155568 L-167.47106932580937,178.82516863928845" stroke="#0d6d4d" stroke-width="0.1" fill="none" />
<path d="M-82.8004813107656,230.58421518982072 L-200.21726123500835,141.20215403297647" stroke="#0d6d4d" stroke-width="0.1" fill="none" />
<path d="M-85.0358050437013,229.76925786660325 L-224.66522130811256,97.72685574895367" stroke="#0d6d4d" stroke-width="0.1" fill="none" />
<path d="M-87.26310923420117,228.932631502763 L-239.80167606732687,50.20115691197588" stroke="#0d6d4d" stroke-width="0.1" fill="none" />
<path d="M-89.48218383003548,228.07441499871862 L-244.99927795033952,0.5948140989186188" stroke="#0d6d4d" stroke-width="0.1" fill="none" />
<path d="M-91.69281955508946,227.1946892910083 L-240.0426064427008,-49.036181460169416" stroke="#0d6d4d" stroke-width="0.1" fill="none" />
<path d="M-93.8948079290998,226.29353734465653 L-225.1370964257593,-96.63481677417491" stroke="#0d6d4d" stroke-width="0.1" fill="none" />
<path d="M-96.08794128731677,225.3710441453497 L-200.9005236946329,-140.2283123310776" stroke="#0d6d4d" stroke-width="0.1" fill="none" />
<path d="M-98.27201280008714,224.4272966914219 L-168.3374005385955,-178.00988618587584" stroke="#0d6d4d" stroke-width="0.1" fill="none" />
<path d="M-100.44681649236152,223.46238398564947 L-128.79734258813397,-208.41363809078055" stroke="#0d6d4d" stroke-width="0.1" fill="none" />
<path d="M-102.61214726311786,222.47639702685814 L-83.91913246199786,-230.1794500098253" stroke="#0d6d4d" stroke-width="0.1" fill="none" />
<path d="M-104.7678009047053,221.46942880134048 L-35.562798559929085,-242.40521314234542" stroke="#0d6d4d" stroke-width="0.1" fill="none" />
<path d="M-106.91357412210158,220.44157427408717 L14.267475927333518,-244.5842168470054" stroke="#0d6d4d" stroke-width="0.1" fill="none" />
<path d="M-109.04926455208647,219.3929303798303 L63.50641866712028,-236.6261498399457" stroke="#0d6d4d" stroke-width="0.1" fill="none" />
<path d="M-111.17467078232494,218.3235960139024 L110.11326574278098,-218.86084324853474" stroke="#0d6d4d" stroke-width="0.1" fill="none" />
<path d="M-113.28959237036298,217.23367202290945 L152.15634343249155,-192.02460038561122" stroke="#0d6d4d" stroke-width="0.1" fill="none" />
<path d="M-115.39382986253018,216.12326119522035 L187.8931286210114,-157.2296798222526" stroke="#0d6d4d" stroke-width="0.1" fill="none" />
<path d="M-117.48718481274999,214.99246825127324 L215.8424696496783,-115.9181965677853" stroke="#0d6d4d" stroke-width="0.1" fill="none" />
<path d="M-119.5694598012553,213.84139983369917 L234.84597432947044,-69.8023519749995" stroke="#0d6d4d" stroke-width="0.1" fill="none" />
<path d="M-121.64045845320551,212.67016449726555 L244.1160208211992,-20.793469610044102" stroke="#0d6d4d" stroke-width="0.1" fill="none" />
<path d="M-123.69998545720753,211.4788726986378 L243.2684015173625,29.077221724011135" stroke="#0d6d4d" stroke-width="0.1" fill="none" />
<path d="M-125.74784658373396,210.2676367859631 L232.33824696289227,77.74277457236835" stroke="#0d6d4d" stroke-width="0.1" fill="none" />
<path d="M-127.78384870344136,209.03657098827472 L211.77856982981228,123.1861898137909" stroke="#0d6d4d" stroke-width="0.1" fill="none" />
<path d="M-129.80779980538318,207.78579140471942 L182.44148929242934,163.5240134804683" stroke="#0d6d4d" stroke-width="0.1" fill="none" />
<path d="M-131.81950901511883,206.5154159936081 L145.54291398015798,197.08439864729104" stroke="#0d6d4d" stroke-width="0.1" fill="none" />
<path d="M-133.81878661271335,205.22556456129215 L102.6121472631179,222.47639702685814" stroke="#0d6d4d" stroke-width="0.1" fill="none" />
<path d="M-135.80544405063065,203.91635875086388 L55.42850353669066,238.64760840134784" stroke="#0d6d4d" stroke-width="0.1" fill="none" />
<path d="M-137.77929397151436,202.5879220306853 L5.947562515124637,244.92779854505832" stroke="#0d6d4d" stroke-width="0.1" fill="none" />
<path d="M-139.74015022585704,201.24037968274388 L-43.779881991234554,241.056677843269" stroke="#0d6d4d" stroke-width="0.1" fill="none" />
<path d="M-141.6878278895564,199.87385879083698 L-91.69281955508946,227.1946892910083" stroke="#0d6d4d" stroke-width="0.1" fill="none" />
<path d="M-143.62214328135374,198.48848822858795 L-135.80544405063065,203.91635875086388" stroke="#0d6d4d" stroke-width="0.1" fill="none" />
<path d="M-145.54291398015795,197.08439864729107 L-174.28945764427186,172.1864830759533" stroke="#0d6d4d" stroke-width="0.1" fill="none" />
<path d="M-147.44995884224798,195.66172246359116 L-205.54984667528487,133.32014300835" stroke="#0d6d4d" stroke-width="0.1" fill="none" />
<path d="M-149.34309801835707,194.22059384699503 L-228.29098880888276,88.92819816381393" stroke="#0d6d4d" stroke-width="0.1" fill="none" />
<path d="M-151.22215297063312,192.76114870721855 L-241.57035157569666,40.850523125099656" stroke="#0d6d4d" stroke-width="0.1" fill="none" />
<path d="M-153.08694648947736,191.283524681369 L-244.8375567006721,-8.920248250198409" stroke="#0d6d4d" stroke-width="0.1" fill="none" />
<path d="M-154.93730271025515,189.78786112096518 L-237.95719115590188,-58.321309803480766" stroke="#0d6d4d" stroke-width="0.1" fill="none" />
<path d="M-156.7730471298826,188.27429907879514 L-221.21441950739487,-105.30517841970696" stroke="#0d6d4d" stroke-width="0.1" fill="none" />
<path d="M-158.59400662328298,186.7429812956141 L-195.30316494569476,-147.9245542910126" stroke="#0d6d4d" stroke-width="0.1" fill="none" />
<path d="M-160.4000094597136,185.1940521866828 L-161.2973488509601,-184.4130289693537" stroke="#0d6d4d" stroke-width="0.1" fill="none" />
<path d="M-162.19088531896236,183.62765782814745 L-120.60638090140277,-213.25829617125274" stroke="#0d6d4d" stroke-width="0.1" fill="none" />
<path d="M-163.96646530740884,182.04394594326473 L-74.91674448810383,-233.26483102967785" stroke="#0d6d4d" stroke-width="0.1" fill="none" />
<path d="M-165.72658197395367,180.44306588846914 L-26.122098495045726,-243.60343998025795" stroke="#0d6d4d" stroke-width="0.1" fill="none" />
<path d="M-167.47106932580937,178.82516863928845 L23.755207544504085,-243.8456276305104" stroke="#0d6d4d" stroke-width="0.1" fill="none" />
<path d="M-169.19976284415552,177.1904067761049 L72.64795202176454,-233.9813562381486" stroke="#0d6d4d" stroke-width="0.1" fill="none" />
<path d="M-170.91249949965362,175.53893446976628 L118.52971960035251,-214.41946173671317" stroke="#0d6d4d" stroke-width="0.1" fill="none" />
<path d="M-172.60911776782282,173.8709074670454 L159.4988883018809,-185.97070906587444" stroke="#0d6d4d" stroke-width="0.1" fill="none" />
<path d="M-174.28945764427186,172.1864830759533 L193.85744438907113,-149.814189097489" stroke="#0d6d4d" stroke-width="0.1" fill="none" />
<path d="M-175.95336065978978,170.4858201509027 L220.18135847401587,-107.44844987498391" stroke="#0d6d4d" stroke-width="0.1" fill="none" />
<path d="M-177.60066989529003,168.76907907772744 L237.37960603383974,-60.62938758736585" stroke="#0d6d4d" stroke-width="0.1" fill="none" />
<path d="M-179.2312299966095,167.03642175855683 L244.73938616144,-11.297471456992104" stroke="#0d6d4d" stroke-width="0.1" fill="none" />
<path d="M-180.8448871891599,165.2880115965463 L241.9556644088135,38.502681211697656" stroke="#0d6d4d" stroke-width="0.1" fill="none" />
<path d="M-182.44148929242925,163.52401348046848 L229.14381528626964,86.70704651902254" stroke="#0d6d4d" stroke-width="0.1" fill="none" />
<path d="M-184.02088573433448,161.7445937691613 L206.83484043478654,131.31773978528716" stroke="#0d6d4d" stroke-width="0.1" fill="none" />
<path d="M-185.58292756542065,159.9499202758408 L175.95336065978975,170.48582015090273" stroke="#0d6d4d" stroke-width="0.1" fill="none" />
<path d="M-187.12746747290922,158.14016225227326 L137.7792939715143,202.58792203068532" stroke="#0d6d4d" stroke-width="0.1" fill="none" />
<path d="M-188.65435979458928,156.31549037281513 L93.89480792909984,226.2935373446565" stroke="#0d6d4d" stroke-width="0.1" fill="none" />
<path d="M-190.16346053255612,154.47607671831577 L46.118744908780926,240.6201599368573" stroke="#0d6d4d" stroke-width="0.1" fill="none" />
<path d="M-191.65462736679063,152.62209475988928 L-3.5687618845780906,244.97400665909674" stroke="#0d6d4d" stroke-width="0.1" fill="none" />
<path d="M-193.1277196685808,150.7537193425557 L-53.1083572875636,239.17462738805824" stroke="#0d6d4d" stroke-width="0.1" fill="none" />
<path d="M-194.58259851378554,148.8711266687498 L-100.44681649236152,223.46238398564947" stroke="#0d6d4d" stroke-width="0.1" fill="none" />
<path d="M-196.0191266959343,146.97449428170611 L-143.62214328135374,198.48848822858795" stroke="#0d6d4d" stroke-width="0.1" fill="none" />
<path d="M-197.43716873916847,145.06400104871335 L-180.8448871891599,165.2880115965463" stroke="#0d6d4d" stroke-width="0.1" fill="none" />
<path d="M-198.836590911017,143.13982714424688 L-210.57230930996678,125.2369855588503" stroke="#0d6d4d" stroke-width="0.1" fill="none" />
<path d="M-200.21726123500835,141.20215403297647 L-231.5723228640121,79.99537038707766" stroke="#0d6d4d" stroke-width="0.1" fill="none" />
<path d="M-201.57904950311737,139.25116445265283 L-242.97455843380553,31.43825621591021" stroke="#0d6d4d" stroke-width="0.1" fill="none" />
<path d="M-202.92182728804445,137.28704239687391 L-244.30643741336542,-18.42185219757663" stroke="#0d6d4d" stroke-width="0.1" fill="none" />
<path d="M-204.24546795532757,135.30997309773312 L-235.5127585653867,-67.51844601974992" stroke="#0d6d4d" stroke-width="0.1" fill="none" />
<path d="M-205.54984667528487,133.32014300835 L-216.95798589922876,-113.81666114655643" stroke="#0d6d4d" stroke-width="0.1" fill="none" />
<path d="M-206.83484043478657,131.31773978528713 L-189.4111430460217,-155.39761545789403" stroke="#0d6d4d" stroke-width="0.1" fill="none" />
<path d="M-208.10032804885694,129.30295227085162 L-154.0139402006721,-190.53793906690552" stroke="#0d6d4d" stroke-width="0.1" fill="none" />
<path d="M-209.34619017210238,127.27597047528629 L-112.23345464586905,-217.7812013426633" stroke="#0d6d4d" stroke-width="0.1" fill="none" />
<path d="M-210.57230930996678,125.2369855588503 L-65.80132606751995,-235.99827433215677" stroke="#0d6d4d" stroke-width="0.1" fill="none" />
<path d="M-211.77856982981228,123.18618981379088 L-16.6419867808506,-244.43413075097757" stroke="#0d6d4d" stroke-width="0.1" fill="none" />
<path d="M-212.96485797182388,121.12377664620962 L33.207098553032324,-242.73913694682446" stroke="#0d6d4d" stroke-width="0.1" fill="none" />
<path d="M-214.13106185973888,119.04994055782082 L81.67987796455184,-230.98354386340148" stroke="#0d6d4d" stroke-width="0.1" fill="none" />
<path d="M-215.27707151139631,116.9648771276111 L126.76734204654937,-209.65457541025228" stroke="#0d6d4d" stroke-width="0.1" fill="none" />
<path d="M-216.40277884911052,114.86878299339189 L166.60078963137258,-179.6362349143489" stroke="#0d6d4d" stroke-width="0.1" fill="none" />
<path d="M-217.50807770986256,112.7618558332577 L199.52927823358908,-142.17266659798923" stroke="#0d6d4d" stroke-width="0.1" fill="none" />
<path d="M-218.59286385531294,110.64429434694148 L224.18804923674438,-98.81659060817208" stroke="#0d6d4d" stroke-width="0.1" fill="none" />
<path d="M-219.65703498163197,108.51629823707643 L239.55509186456894,-51.36494876623496" stroke="#0d6d4d" stroke-width="0.1" fill="none" />
<path d="M-220.70049072914728,106.37806819036327 L244.99350157859158,-1.7844282727662302" stroke="#0d6d4d" stroke-width="0.1" fill="none" />
<path d="M-221.72313269180972,104.2298058586417 L240.2778773102518,47.870049877554706" stroke="#0d6d4d" stroke-width="0.1" fill="none" />
<path d="M-222.72486442647235,102.0717138398759 L225.60366346423893,95.5404994309451" stroke="#0d6d4d" stroke-width="0.1" fill="none" />
<path d="M-223.70559146198687,99.90399565904572 L201.57904950311743,139.25116445265277" stroke="#0d6d4d" stroke-width="0.1" fill="none" />
<path d="M-224.66522130811256,97.72685574895367 L169.19976284415554,177.19040677610485" stroke="#0d6d4d" stroke-width="0.1" fill="none" />
<path d="M-225.60366346423893,95.54049943094515 L129.80779980538333,207.7857914047193" stroke="#0d6d4d" stroke-width="0.1" fill="none" />
<path d="M-226.5208294279205,93.34513289554499 L85.03580504370136,229.76925786660325" stroke="#0d6d4d" stroke-width="0.1" fill="none" />
<path d="M-227.41663270322343,91.14096318301209 L36.73940474241244,242.22967642131135" stroke="#0d6d4d" stroke-width="0.1" fill="none" />
<path d="M-228.29098880888276,88.92819816381393 L-13.07970192391265,244.65061086697003" stroke="#0d6d4d" stroke-width="0.1" fill="none" />
<path d="M-229.14381528626964,86.70704651902248 L-62.356705485629476,236.93172282532888" stroke="#0d6d4d" stroke-width="0.1" fill="none" />
<path d="M-229.97503170716757,84.47771772063484 L-109.04926455208647,219.3929303798303" stroke="#0d6d4d" stroke-width="0.1" fill="none" />
<path d="M-230.78455968135785,82.24042201181712 L-151.22215297063312,192.76114870721855" stroke="#0d6d4d" stroke-width="0.1" fill="none" />
<path d="M-231.5723228640121,79.99537038707766 L-187.12746747290922,158.14016225227326" stroke="#0d6d4d" stroke-width="0.1" fill="none" />
<path d="M-232.3382469628922,77.74277457236843 L-215.27707151139631,116.9648771276111" stroke="#0d6d4d" stroke-width="0.1" fill="none" />
<path d="M-233.08225974535694,75.48284700511743 L-234.50427276913493,70.94184979981257" stroke="#0d6d4d" stroke-width="0.1" fill="none" />
<path d="M-233.80429104517327,73.21580081419515 L-244.0121780481467,21.978556918040695" stroke="#0d6d4d" stroke-width="0.1" fill="none" />
<path d="M-234.50427276913493,70.94184979981257 L-243.4067214132862,-27.895662222555174" stroke="#0d6d4d" stroke-width="0.1" fill="none" />
<path d="M-235.18213890348258,68.6612084133613 L-232.71299670257605,-76.61371395322664" stroke="#0d6d4d" stroke-width="0.1" fill="none" />
<path d="M-235.83782552013076,66.37409173718575 L-212.37421748458408,-122.15642327692224" stroke="#0d6d4d" stroke-width="0.1" fill="none" />
<path d="M-236.47127078269597,64.08071546430234 L-183.23334756858915,-162.63622086979458" stroke="#0d6d4d" stroke-width="0.1" fill="none" />
<path d="M-237.08241495232863,61.78129587805567 L-146.4981634119096,-196.37537553608252" stroke="#0d6d4d" stroke-width="0.1" fill="none" />
<path d="M-237.671200393347,59.47604983172209 L-103.69119645261145,-221.97552968339988" stroke="#0d6d4d" stroke-width="0.1" fill="none" />
<path d="M-238.23757157867234,57.1651947280596 L-56.586630064481604,-238.37565584166833" stroke="#0d6d4d" stroke-width="0.1" fill="none" />
<path d="M-238.78147509506613,54.848948498802805 L-7.136766511652288,-244.896032151928" stroke="#0d6d4d" stroke-width="0.1" fill="none" />
<path d="M-239.3028596481666,52.52752958411312 L42.60888843652695,-241.26641421093737" stroke="#0d6d4d" stroke-width="0.1" fill="none" />
<path d="M-239.80167606732687,50.20115691197588 L90.58856960030995,-227.6372356574596" stroke="#0d6d4d" stroke-width="0.1" fill="none" />
<path d="M-240.2778773102518,47.87004987755477 L134.8137045895689,-204.57337327921354" stroke="#0d6d4d" stroke-width="0.1" fill="none" />
<path d="M-240.73141846743442,45.534428322500894 L173.4513324454947,-173.03073505271388" stroke="#0d6d4d" stroke-width="0.1" fill="none" />
<path d="M-241.1622567663914,43.19451251422003 L204.9000727897548,-134.31664145128548" stroke="#0d6d4d" stroke-width="0.1" fill="none" />
<path d="M-241.57035157569666,40.850523125099656 L227.8564968534205,-90.03564206294732" stroke="#0d6d4d" stroke-width="0.1" fill="none" />
<path d="M-241.95566440881348,38.502681211697826 L241.36914956297343,-42.02301320998968" stroke="#0d6d4d" stroke-width="0.1" fill="none" />
<path d="M-242.31815892772383,36.15120819389562 L244.87798367666807,7.731307163053518" stroke="#0d6d4d" stroke-width="0.1" fill="none" />
<path d="M-242.65780094635534,33.796325834016315 L238.23757157867237,57.16519472805944" stroke="#0d6d4d" stroke-width="0.1" fill="none" />
<path d="M-242.97455843380553,31.43825621591021 L221.7231326918097,104.22980585864175" stroke="#0d6d4d" stroke-width="0.1" fill="none" />
<path d="M-243.2684015173625,29.077221724011245 L196.01912669593435,146.97449428170603" stroke="#0d6d4d" stroke-width="0.1" fill="none" />
<path d="M-243.53930248532194,26.713445022364184 L162.19088531896242,183.6276578281474" stroke="#0d6d4d" stroke-width="0.1" fill="none" />
<path d="M-243.78723578960083,24.347149033625413 L121.64045845320565,212.67016449726546" stroke="#0d6d4d" stroke-width="0.1" fill="none" />
<path d="M-244.0121780481467,21.978556918040695 L76.04850460487393,232.898314608248" stroke="#0d6d4d" stroke-width="0.1" fill="none" />
<path d="M-244.21410804714282,19.60789205239703 L27.304634093079095,243.47372950082942" stroke="#0d6d4d" stroke-width="0.1" fill="none" />
<path d="M-244.39300674300864,17.23537800895971 L-22.57090799641319,243.95809909125265" stroke="#0d6d4d" stroke-width="0.1" fill="none" />
<path d="M-244.54885726419604,14.861238534384244 L-71.51097316373584,234.331348131605" stroke="#0d6d4d" stroke-width="0.1" fill="none" />
<path d="M-244.68164491278017,12.485697528618541 L-117.48718481274999,214.99246825127324" stroke="#0d6d4d" stroke-width="0.1" fill="none" />
<path d="M-244.79135716584577,10.108979023785016 L-158.59400662328298,186.7429812956141" stroke="#0d6d4d" stroke-width="0.1" fill="none" />
<path d="M-244.87798367666807,7.731307163053469 L-193.1277196685808,150.7537193425557" stroke="#0d6d4d" stroke-width="0.1" fill="none" />
<path d="M-244.94151627568863,5.352906179503496 L-219.65703498163197,108.51629823707643" stroke="#0d6d4d" stroke-width="0.1" fill="none" />
<path d="M-244.98194897128573,2.974000374975158 L-237.08241495232863,61.78129587805567" stroke="#0d6d4d" stroke-width="0.1" fill="none" />
<path d="M-244.99927795033952,0.5948140989186188 L-244.68164491278017,12.485697528618541" stroke="#0d6d4d" stroke-width="0.1" fill="none" />
<path d="M-244.99350157859158,-1.78442827276617 L-242.139766144649,-37.327384738482515" stroke="#0d6d4d" stroke-width="0.1" fill="none" />
<path d="M-244.96462040079894,-4.163502358888782 L-229.5621297010216,-85.59339114167243" stroke="#0d6d4d" stroke-width="0.1" fill="none" />
<path d="M-244.91263714068296,-6.5421837941294365 L-207.4700300123357,-130.31188221601482" stroke="#0d6d4d" stroke-width="0.1" fill="none" />
<path d="M-244.8375567006721,-8.920248250198409 L-176.77909924652775,-169.6294492993074" stroke="#0d6d4d" stroke-width="0.1" fill="none" />
<path d="M-244.73938616144002,-11.297471456991936 L-138.76135789368502,-201.91653115953795" stroke="#0d6d4d" stroke-width="0.1" fill="none" />
<path d="M-244.61813478123736,-13.673629223742878 L-94.99249443183747,-225.8349530113028" stroke="#0d6d4d" stroke-width="0.1" fill="none" />
<path d="M-244.473813995019,-16.048497460162775 L-47.286559128021615,-240.39338868993903" stroke="#0d6d4d" stroke-width="0.1" fill="none" />
<path d="M-244.30643741336542,-18.42185219757663 L2.379221335772562,-244.98844729055165" stroke="#0d6d4d" stroke-width="0.1" fill="none" />
<path d="M-244.11602082119924,-20.793469610044045 L51.946392268540976,-239.42968138951125" stroke="#0d6d4d" stroke-width="0.1" fill="none" />
<path d="M-243.90258217629642,-23.163126035467968 L99.36058596331237,-223.9474803542724" stroke="#0d6d4d" stroke-width="0.1" fill="none" />
<path d="M-243.66614160759292,-25.53059799668778 L142.65666730049838,-199.18352159431996" stroke="#0d6d4d" stroke-width="0.1" fill="none" />
<path d="M-243.4067214132862,-27.895662222555174 L180.0401810052929,-166.16417551199586" stroke="#0d6d4d" stroke-width="0.1" fill="none" />
<path d="M-243.12434605873244,-30.25809566898926 L209.96172488501446,-126.25796641523063" stroke="#0d6d4d" stroke-width="0.1" fill="none" />
<path d="M-242.81904217413918,-32.617675540013785 L231.1811665630825,-81.11885247297514" stroke="#0d6d4d" stroke-width="0.1" fill="none" />
<path d="M-242.49083855205402,-34.97417930876528 L242.8190421741392,-32.61767554001374" stroke="#0d6d4d" stroke-width="0.1" fill="none" />
<path d="M-242.139766144649,-37.327384738482515 L244.39300674300867,17.23537800895949" stroke="#0d6d4d" stroke-width="0.1" fill="none" />
<path d="M-241.76585806080186,-39.677069903461984 L235.83782552013076,66.37409173718575" stroke="#0d6d4d" stroke-width="0.1" fill="none" />
<path d="M-241.36914956297343,-42.023013209989564 L217.5080777098626,112.76185583325764" stroke="#0d6d4d" stroke-width="0.1" fill="none" />
<path d="M-240.94967806388215,-44.36499341723769 L190.16346053255617,154.47607671831568" stroke="#0d6d4d" stroke-width="0.1" fill="none" />
<path d="M-240.50748312297588,-46.70278965812925 L154.93730271025518,189.78786112096515" stroke="#0d6d4d" stroke-width="0.1" fill="none" />
<path d="M-240.0426064427008,-49.036181460169416 L113.28959237036293,217.23367202290947" stroke="#0d6d4d" stroke-width="0.1" fill="none" />
<path d="M-239.55509186456894,-51.36494876623496 L66.9464661791747,235.67598661323265" stroke="#0d6d4d" stroke-width="0.1" fill="none" />
<path d="M-239.04498536502334,-53.688871955329674 L17.828667646873892,244.3504422135088" stroke="#0d6d4d" stroke-width="0.1" fill="none" />
<path d="M-238.51233505110216,-56.007731863295334 L-32.028060269186525,242.89751615731552" stroke="#0d6d4d" stroke-width="0.1" fill="none" />
<path d="M-237.95719115590188,-58.321309803480766 L-80.55734884392999,231.3774266155568" stroke="#0d6d4d" stroke-width="0.1" fill="none" />
<path d="M-237.37960603383976,-60.62938758736574 L-125.74784658373396,210.2676367859631" stroke="#0d6d4d" stroke-width="0.1" fill="none" />
<path d="M-236.77963415571668,-62.931747545137824 L-165.72658197395367,180.44306588846914" stroke="#0d6d4d" stroke-width="0.1" fill="none" />
<path d="M-236.1573321035798,-65.2281725462206 L-198.836590911017,143.13982714424688" stroke="#0d6d4d" stroke-width="0.1" fill="none" />
<path d="M-235.5127585653867,-67.51844601974992 L-223.70559146198687,99.90399565904572" stroke="#0d6d4d" stroke-width="0.1" fill="none" />
<path d="M-234.84597432947044,-69.8023519749995 L-239.3028596481666,52.52752958411312" stroke="#0d6d4d" stroke-width="0.1" fill="none" />
<path d="M-234.1570422788069,-72.07967502174964 L-244.98194897128573,2.974000374975158" stroke="#0d6d4d" stroke-width="0.1" fill="none" />
<path d="M-233.44602738508434,-74.35020039060055 L-240.50748312297588,-46.70278965812925" stroke="#0d6d4d" stroke-width="0.1" fill="none" />
<path d="M-232.71299670257605,-76.61371395322664 L-226.0649114232553,-94.44392952009008" stroke="#0d6d4d" stroke-width="0.1" fill="none" />
<path d="M-231.95801936181658,-78.8700022425708 L-202.25282266279305,-138.27073343601236" stroke="#0d6d4d" stroke-width="0.1" fill="none" />
<path d="M-231.18116656308257,-81.11885247297498 L-170.05813591049005,-176.36674973092093" stroke="#0d6d4d" stroke-width="0.1" fill="none" />
<path d="M-230.3825115696771,-83.36005256024973 L-130.8151965315418,-207.1530457328931" stroke="#0d6d4d" stroke-width="0.1" fill="none" />
<path d="M-229.5621297010216,-85.59339114167243 L-86.15047272797857,-229.3536484312945" stroke="#0d6d4d" stroke-width="0.1" fill="none" />
<path d="M-228.72009832555145,-87.81865759592363 L-37.91514471638551,-242.0484286276933" stroke="#0d6d4d" stroke-width="0.1" fill="none" />
<path d="M-227.85649685342054,-90.03564206294728 L11.891619539090385,-244.71123673574436" stroke="#0d6d4d" stroke-width="0.1" fill="none" />
<path d="M-226.97140672901153,-92.2441354637444 L61.20552211404323,-237.23170964849402" stroke="#0d6d4d" stroke-width="0.1" fill="none" />
<path d="M-226.0649114232553,-94.44392952009008 L107.9826922963009,-219.919844862719" stroke="#0d6d4d" stroke-width="0.1" fill="none" />
<path d="M-225.1370964257593,-96.63481677417491 L150.28439712940155,-193.49315228051952" stroke="#0d6d4d" stroke-width="0.1" fill="none" />
<path d="M-224.18804923674438,-98.81659060817208 L186.3573944023498,-159.04691619634454" stroke="#0d6d4d" stroke-width="0.1" fill="none" />
<path d="M-223.21785935879382,-100.98904526372029 L214.70659776471163,-118.0087999951797" stroke="#0d6d4d" stroke-width="0.1" fill="none" />
<path d="M-222.2266182884118,-103.15197586133057 L234.15704227880687,-72.0796750217497" stroke="#0d6d4d" stroke-width="0.1" fill="none" />
<path d="M-221.21441950739487,-105.30517841970696 L243.90258217629642,-23.16312603546808" stroke="#0d6d4d" stroke-width="0.1" fill="none" />
<path d="M-220.18135847401587,-107.44844987498387 L243.53930248532194,26.713445022364073" stroke="#0d6d4d" stroke-width="0.1" fill="none" />
<path d="M-219.12753261402142,-109.58158809987643 L233.0822597453569,75.48284700511749" stroke="#0d6d4d" stroke-width="0.1" fill="none" />
<path d="M-218.0530413114439,-111.70439192274281 L212.964857971824,121.12377664620946" stroke="#0d6d4d" stroke-width="0.1" fill="none" />
<path d="M-216.95798589922876,-113.81666114655643 L184.0208857343345,161.74459376916124" stroke="#0d6d4d" stroke-width="0.1" fill="none" />
<path d="M-215.8424696496783,-115.9181965677853 L147.449958842248,195.66172246359113" stroke="#0d6d4d" stroke-width="0.1" fill="none" />
<path d="M-214.70659776471166,-118.00879999517967 L104.76780090470535,221.46942880134048" stroke="#0d6d4d" stroke-width="0.1" fill="none" />
<path d="M-213.55047736594403,-120.0882742684623 L57.74342244380519,238.09808307602196" stroke="#0d6d4d" stroke-width="0.1" fill="none" />
<path d="M-212.37421748458408,-122.15642327692224 L8.325802243943153,244.85849182128592" stroke="#0d6d4d" stroke-width="0.1" fill="none" />
<path d="M-211.17792905115127,-124.2130519779098 L-41.43689028792228,241.47046221694836" stroke="#0d6d4d" stroke-width="0.1" fill="none" />
<path d="M-209.96172488501443,-126.25796641523063 L-89.48218383003548,228.07441499871862" stroke="#0d6d4d" stroke-width="0.1" fill="none" />
<path d="M-208.72571968375235,-128.29097373743656 L-133.81878661271335,205.22556456129215" stroke="#0d6d4d" stroke-width="0.1" fill="none" />
<path d="M-207.4700300123357,-130.31188221601482 L-172.60911776782282,173.8709074670454" stroke="#0d6d4d" stroke-width="0.1" fill="none" />
<path d="M-206.19477429213575,-132.3205012634671 L-204.24546795532757,135.30997309773312" stroke="#0d6d4d" stroke-width="0.1" fill="none" />
<path d="M-204.90007278975486,-134.31664145128542 L-227.41663270322343,91.14096318301209" stroke="#0d6d4d" stroke-width="0.1" fill="none" />
<path d="M-203.58604760568508,-136.30011452781588 L-241.1622567663914,43.19451251422003" stroke="#0d6d4d" stroke-width="0.1" fill="none" />
<path d="M-202.25282266279305,-138.27073343601236 L-244.91263714068296,-6.5421837941294365" stroke="#0d6d4d" stroke-width="0.1" fill="none" />
<path d="M-200.9005236946329,-140.2283123310776 L-238.51233505110216,-56.007731863295334" stroke="#0d6d4d" stroke-width="0.1" fill="none" />
<path d="M-199.5292782335892,-142.17266659798906 L-222.2266182884118,-103.15197586133057" stroke="#0d6d4d" stroke-width="0.1" fill="none" />
<path d="M-198.13921559884832,-144.10361286891148 L-196.7304668842044,-146.0209690404873" stroke="#0d6d4d" stroke-width="0.1" fill="none" />
<path d="M-196.7304668842044,-146.0209690404873 L-163.08059779672442,-182.83795727983565" stroke="#0d6d4d" stroke-width="0.1" fill="none" />
<path d="M-195.30316494569476,-147.9245542910126 L-122.67166807611713,-212.07701867817488" stroke="#0d6d4d" stroke-width="0.1" fill="none" />
<path d="M-193.8574443890712,-149.81418909748893 L-77.17847171867217,-232.52630712065704" stroke="#0d6d4d" stroke-width="0.1" fill="none" />
<path d="M-192.39344155710535,-151.68969525255397 L-28.486525927105205,-243.33827861765678" stroke="#0d6d4d" stroke-width="0.1" fill="none" />
<path d="M-190.91129451673058,-153.55089588128806 L21.38607629183466,-244.06481872822192" stroke="#0d6d4d" stroke-width="0.1" fill="none" />
<path d="M-189.4111430460217,-155.39761545789403 L70.37230828455422,-234.6758151721299" stroke="#0d6d4d" stroke-width="0.1" fill="none" />
<path d="M-187.8931286210114,-157.2296798222526 L116.4418800183917,-215.56040586754904" stroke="#0d6d4d" stroke-width="0.1" fill="none" />
<path d="M-186.35739440234983,-159.0469161963445 L157.68538575840267,-187.51085066796463" stroke="#0d6d4d" stroke-width="0.1" fill="none" />
<path d="M-184.80408522180187,-160.84915320054685 L192.39344155710526,-151.6896952525541" stroke="#0d6d4d" stroke-width="0.1" fill="none" />
<path d="M-183.23334756858915,-162.63622086979458 L219.12753261402136,-109.58158809987657" stroke="#0d6d4d" stroke-width="0.1" fill="none" />
<path d="M-181.64532957557466,-164.40795066960982 L236.77963415571665,-62.93174754513799" stroke="#0d6d4d" stroke-width="0.1" fill="none" />
<path d="M-180.04018100529302,-166.16417551199575 L244.61813478123736,-13.673629223742829" stroke="#0d6d4d" stroke-width="0.1" fill="none" />
<path d="M-178.41805323582605,-167.9047297711948 L242.3181589277238,36.15120819389567" stroke="#0d6d4d" stroke-width="0.1" fill="none" />
<path d="M-176.77909924652775,-169.6294492993074 L229.97503170716757,84.4777177206349" stroke="#0d6d4d" stroke-width="0.1" fill="none" />
<path d="M-175.1234736035954,-171.3381714417743 L208.10032804885694,129.30295227085165" stroke="#0d6d4d" stroke-width="0.1" fill="none" />
<path d="M-173.45133244549476,-173.03073505271385 L177.60066989529003,168.76907907772747" stroke="#0d6d4d" stroke-width="0.1" fill="none" />
<path d="M-171.76283346823357,-174.70698051012118 L139.74015022585718,201.24037968274376" stroke="#0d6d4d" stroke-width="0.1" fill="none" />
<path d="M-170.05813591049005,-176.36674973092093 L96.08794128731681,225.37104414534969" stroke="#0d6d4d" stroke-width="0.1" fill="none" />
<path d="M-168.3374005385955,-178.00988618587584 L48.45325846746957,240.16094966477084" stroke="#0d6d4d" stroke-width="0.1" fill="none" />
<path d="M-166.60078963137252,-179.63623491434896 L-1.1896246918346292,244.99711180561408" stroke="#0d6d4d" stroke-width="0.1" fill="none" />
<path d="M-164.8484669648317,-181.24564253891674 L-50.78320250438754,239.67909033413486" stroke="#0d6d4d" stroke-width="0.1" fill="none" />
<path d="M-163.08059779672442,-182.83795727983565 L-98.27201280008714,224.4272966914219" stroke="#0d6d4d" stroke-width="0.1" fill="none" />
<path d="M-161.2973488509601,-184.4130289693537 L-141.6878278895564,199.87385879083698" stroke="#0d6d4d" stroke-width="0.1" fill="none" />
<path d="M-159.49888830188095,-185.9707090658744 L-179.2312299966095,167.03642175855683" stroke="#0d6d4d" stroke-width="0.1" fill="none" />
<path d="M-157.68538575840273,-187.5108506679646 L-209.34619017210238,127.27597047528629" stroke="#0d6d4d" stroke-width="0.1" fill="none" />
<path d="M-155.8570122480191,-189.0333085282084 L-230.78455968135785,82.24042201181712" stroke="#0d6d4d" stroke-width="0.1" fill="none" />
<path d="M-154.0139402006721,-190.53793906690552 L-242.65780094635534,33.796325834016315" stroke="#0d6d4d" stroke-width="0.1" fill="none" />
<path d="M-152.15634343249167,-192.0246003856111 L-244.473813995019,-16.048497460162775" stroke="#0d6d4d" stroke-width="0.1" fill="none" />
<path d="M-150.28439712940155,-193.49315228051955 L-236.1573321035798,-65.2281725462206" stroke="#0d6d4d" stroke-width="0.1" fill="none" />
<path d="M-148.39827783060014,-194.9434562556846 L-218.0530413114439,-111.70439192274281" stroke="#0d6d4d" stroke-width="0.1" fill="none" />
<path d="M-146.4981634119096,-196.37537553608252 L-190.91129451673058,-153.55089588128806" stroke="#0d6d4d" stroke-width="0.1" fill="none" />
<path d="M-144.58423306900184,-197.78877508050996 L-155.8570122480191,-189.0333085282084" stroke="#0d6d4d" stroke-width="0.1" fill="none" />
<path d="M-142.65666730049847,-199.18352159431987 L-114.3430590551455,-216.68102096379258" stroke="#0d6d4d" stroke-width="0.1" fill="none" />
<path d="M-140.71564789094865,-200.55948354199202 L-68.09002788750054,-235.34814233870512" stroke="#0d6d4d" stroke-width="0.1" fill="none" />
<path d="M-138.76135789368502,-201.91653115953795 L-19.01492816467026,-244.26099260195525" stroke="#0d6d4d" stroke-width="0.1" fill="none" />
<path d="M-136.79398161356127,-203.25453646673833 L30.848266856656373,-243.0501685495003" stroke="#0d6d4d" stroke-width="0.1" fill="none" />
<path d="M-134.8137045895689,-204.57337327921354 L79.4329204148781,-231.76585415967477" stroke="#0d6d4d" stroke-width="0.1" fill="none" />
<path d="M-132.82071357734182,-205.87291722032242 L124.7253863517387,-210.87574066119961" stroke="#0d6d4d" stroke-width="0.1" fill="none" />
<path d="M-130.8151965315418,-207.1530457328931 L164.84846696483154,-181.2456425389169" stroke="#0d6d4d" stroke-width="0.1" fill="none" />
<path d="M-128.79734258813397,-208.41363809078055 L198.1392155988483,-144.10361286891148" stroke="#0d6d4d" stroke-width="0.1" fill="none" />
<path d="M-126.76734204654947,-209.65457541025222 L223.21785935879382,-100.98904526372029" stroke="#0d6d4d" stroke-width="0.1" fill="none" />
<path d="M-124.72538635173862,-210.87574066119964 L239.04498536502334,-53.68887195532973" stroke="#0d6d4d" stroke-width="0.1" fill="none" />
<path d="M-122.67166807611713,-212.07701867817488 L244.96462040079894,-4.163502358888842" stroke="#0d6d4d" stroke-width="0.1" fill="none" />
<path d="M-120.60638090140277,-213.25829617125274 L240.73141846743442,45.53442832250083" stroke="#0d6d4d" stroke-width="0.1" fill="none" />
<path d="M-118.52971960035251,-214.41946173671317 L226.52082942792052,93.3451328955449" stroke="#0d6d4d" stroke-width="0.1" fill="none" />
<path d="M-116.44188001839174,-215.560405867549 L202.92182728804454,137.28704239687374" stroke="#0d6d4d" stroke-width="0.1" fill="none" />
<path d="M-114.3430590551455,-216.68102096379258 L170.91249949965376,175.53893446976616" stroke="#0d6d4d" stroke-width="0.1" fill="none" />
<path d="M-112.23345464586905,-217.7812013426633 L131.81950901511888,206.51541599360806" stroke="#0d6d4d" stroke-width="0.1" fill="none" />
<path d="M-110.11326574278091,-218.86084324853476 L87.26310923420121,228.932631502763" stroke="#0d6d4d" stroke-width="0.1" fill="none" />
<path d="M-107.98269229630104,-219.91984486271895 L39.08999076131271,241.8614740347881" stroke="#0d6d4d" stroke-width="0.1" fill="none" />
<path d="M-105.8419352361918,-220.95810631306964 L-10.703256784400393,244.7660930239464" stroke="#0d6d4d" stroke-width="0.1" fill="none" />
<path d="M-103.69119645261145,-221.97552968339988 L-60.05289569392336,237.52610323662273" stroke="#0d6d4d" stroke-width="0.1" fill="none" />
<path d="M-101.53067877707217,-222.97201902271726 L-106.91357412210158,220.44157427408717" stroke="#0d6d4d" stroke-width="0.1" fill="none" />
<path d="M-99.36058596331245,-223.94748035427236 L-149.34309801835707,194.22059384699503" stroke="#0d6d4d" stroke-width="0.1" fill="none" />
<path d="M-97.18112266808127,-224.90182168442155 L-185.58292756542065,159.9499202758408" stroke="#0d6d4d" stroke-width="0.1" fill="none" />
<path d="M-94.99249443183747,-225.8349530113028 L-214.13106185973888,119.04994055782082" stroke="#0d6d4d" stroke-width="0.1" fill="none" />
<path d="M-92.79490765936532,-226.7467863333235 L-233.80429104517327,73.21580081419515" stroke="#0d6d4d" stroke-width="0.1" fill="none" />
<path d="M-90.58856960031012,-227.6372356574595 L-243.78723578960083,24.347149033625413" stroke="#0d6d4d" stroke-width="0.1" fill="none" />
<path d="M-88.37368832963058,-228.5062170073657 L-243.66614160759292,-25.53059799668778" stroke="#0d6d4d" stroke-width="0.1" fill="none" />
<path d="M-86.15047272797857,-229.3536484312945 L-233.44602738508434,-74.35020039060055" stroke="#0d6d4d" stroke-width="0.1" fill="none" />
<path d="M-83.91913246199786,-230.1794500098253 L-213.55047736594403,-120.0882742684623" stroke="#0d6d4d" stroke-width="0.1" fill="none" />
<path d="M-81.67987796455192,-230.98354386340145 L-184.80408522180187,-160.84915320054685" stroke="#0d6d4d" stroke-width="0.1" fill="none" />
<path d="M-79.43292041487823,-231.76585415967475 L-148.39827783060014,-194.9434562556846" stroke="#0d6d4d" stroke-width="0.1" fill="none" />
<path d="M-77.17847171867217,-232.52630712065704 L-105.8419352361918,-220.95810631306964" stroke="#0d6d4d" stroke-width="0.1" fill="none" />
<path d="M-74.91674448810383,-233.26483102967785 L-58.89885340085517,-237.81489664876875" stroke="#0d6d4d" stroke-width="0.1" fill="none" />
<path d="M-72.64795202176454,-233.9813562381486 L-9.514641677986736,-244.8151784382241" stroke="#0d6d4d" stroke-width="0.1" fill="none" />
<path d="M-70.37230828455425,-234.67581517212986 L40.263915177735,-241.66881705044233" stroke="#0d6d4d" stroke-width="0.1" fill="none" />
<path d="M-68.09002788750054,-235.34814233870512 L88.37368832963057,-228.5062170073657" stroke="#0d6d4d" stroke-width="0.1" fill="none" />
<path d="M-65.80132606751995,-235.99827433215677 L132.8207135773418,-205.87291722032245" stroke="#0d6d4d" stroke-width="0.1" fill="none" />
<path d="M-63.5064186671204,-236.62614983994567 L171.7628334682335,-174.70698051012124" stroke="#0d6d4d" stroke-width="0.1" fill="none" />
<path d="M-61.205522114043156,-237.23170964849402 L203.58604760568502,-136.300114527816" stroke="#0d6d4d" stroke-width="0.1" fill="none" />
<path d="M-58.89885340085517,-237.81489664876875 L226.97140672901148,-92.2441354637445" stroke="#0d6d4d" stroke-width="0.1" fill="none" />
<path d="M-56.586630064481604,-238.37565584166833 L240.94967806388217,-44.364993417237585" stroke="#0d6d4d" stroke-width="0.1" fill="none" />
<path d="M-54.269070165693584,-238.91393434320867 L244.94151627568863,5.352906179503326" stroke="#0d6d4d" stroke-width="0.1" fill="none" />
<path d="M-51.94639226854103,-239.42968138951125 L238.78147509506613,54.8489484988028" stroke="#0d6d4d" stroke-width="0.1" fill="none" />
<path d="M-49.61881541974139,-239.92284834159008 L222.72486442647238,102.07171383987584" stroke="#0d6d4d" stroke-width="0.1" fill="none" />
<path d="M-47.286559128021615,-240.39338868993903 L197.43716873916853,145.0640010487133" stroke="#0d6d4d" stroke-width="0.1" fill="none" />
<path d="M-44.949843343416795,-240.8412580589179 L163.96646530740895,182.04394594326462" stroke="#0d6d4d" stroke-width="0.1" fill="none" />
<path d="M-42.608888436526904,-241.26641421093737 L123.69998545720757,211.47887269863776" stroke="#0d6d4d" stroke-width="0.1" fill="none" />
<path d="M-40.26391517773499,-241.66881705044233 L78.30661918815443,232.14881733776153" stroke="#0d6d4d" stroke-width="0.1" fill="none" />
<path d="M-37.91514471638551,-242.0484286276933 L29.66774613154538,243.19709052427862" stroke="#0d6d4d" stroke-width="0.1" fill="none" />
<path d="M-35.562798559929085,-242.40521314234542 L-20.200740365660298,244.16578402527898" stroke="#0d6d4d" stroke-width="0.1" fill="none" />
<path d="M-33.207098553032395,-242.73913694682443 L-69.23198423063212,235.01474923819038" stroke="#0d6d4d" stroke-width="0.1" fill="none" />
<path d="M-30.848266856656476,-243.0501685495003 L-115.39382986253018,216.12326119522035" stroke="#0d6d4d" stroke-width="0.1" fill="none" />
<path d="M-28.486525927105205,-243.33827861765678 L-156.7730471298826,188.27429907879514" stroke="#0d6d4d" stroke-width="0.1" fill="none" />
<path d="M-26.122098495045726,-243.60343998025795 L-191.65462736679063,152.62209475988928" stroke="#0d6d4d" stroke-width="0.1" fill="none" />
<path d="M-23.75520754450428,-243.84562763051036 L-218.59286385531294,110.64429434694148" stroke="#0d6d4d" stroke-width="0.1" fill="none" />
<path d="M-21.38607629183467,-244.06481872822192 L-236.47127078269597,64.08071546430234" stroke="#0d6d4d" stroke-width="0.1" fill="none" />
<path d="M-19.01492816467026,-244.26099260195525 L-244.54885726419604,14.861238534384244" stroke="#0d6d4d" stroke-width="0.1" fill="none" />
<path d="M-16.6419867808506,-244.43413075097757 L-242.49083855205402,-34.97417930876528" stroke="#0d6d4d" stroke-width="0.1" fill="none" />
<path d="M-14.267475927333397,-244.58421684700542 L-230.3825115696771,-83.36005256024973" stroke="#0d6d4d" stroke-width="0.1" fill="none" />
<path d="M-11.891619539090511,-244.71123673574436 L-208.72571968375235,-128.29097373743656" stroke="#0d6d4d" stroke-width="0.1" fill="none" />
<path d="M-9.514641677986736,-244.8151784382241 L-178.41805323582605,-167.9047297711948" stroke="#0d6d4d" stroke-width="0.1" fill="none" />
<path d="M-7.136766511652288,-244.896032151928 L-140.71564789094865,-200.55948354199202" stroke="#0d6d4d" stroke-width="0.1" fill="none" />
<path d="M-4.758218292338548,-244.95379025171758 L-97.18112266808127,-224.90182168442155" stroke="#0d6d4d" stroke-width="0.1" fill="none" />
<path d="M-2.3792213357725918,-244.98844729055165 L-49.61881541974139,-239.92284834159008" stroke="#0d6d4d" stroke-width="0.1" fill="none" />
</svg>