<?xml version="1.0" encoding="UTF-8"?>
<svg xmlns="http://www.w3.org/2000/svg" xmlns:xlink="http://www.w3.org/1999/xlink"
     width="500.0" height="500" viewBox="-250.0 -250.0 500 500">
<defs>
</defs>
<circle cx="0" cy="0" r="245.0" fill="white" stroke-width="2" stroke="black" />
<path d="M0.0,-245.0 L0.0,-245.0" stroke="#0d6d4d" stroke-width="0.1" fill="none" />
<path d="M19.22247845332201,-244.24474676461634 L38.32644393485656,-241.98364344580875" stroke="#0d6d4d" stroke-width="0.1" fill="none" />
<path d="M38.32644393485656,-241.98364344580875 L75.70916362186212,-233.0088464923126" stroke="#0d6d4d" stroke-width="0.1" fill="none" />
<path d="M57.19411414469682,-238.23063049743075 L111.22767243618895,-218.29659842615013" stroke="#0d6d4d" stroke-width="0.1" fill="none" />
<path d="M75.70916362186212,-233.0088464923126 L144.00738681165592,-198.20916362186213" stroke="#0d6d4d" stroke-width="0.1" fill="none" />
<path d="M93.757440929447,-226.35048546526525 L173.24116139070412,-173.24116139070415" stroke="#0d6d4d" stroke-width="0.1" fill="none" />
<path d="M111.22767243618895,-218.29659842615013 L198.2091636218621,-144.00738681165595" stroke="#0d6d4d" stroke-width="0.1" fill="none" />
<path d="M128.01214835540745,-208.8968402667526 L218.2965984261501,-111.22767243618897" stroke="#0d6d4d" stroke-width="0.1" fill="none" />
<path d="M144.00738681165592,-198.20916362186213 L233.0088464923126,-75.70916362186213" stroke="#0d6d4d" stroke-width="0.1" fill="none" />
<path d="M159.114771840895,-186.2994615720076 L241.98364344580875,-38.32644393485658" stroke="#0d6d4d" stroke-width="0.1" fill="none" />
<path d="M173.24116139070412,-173.24116139070415 L245.0,-1.5001923289555078e-14" stroke="#0d6d4d" stroke-width="0.1" fill="none" />
<path d="M186.29946157200754,-159.11477184089503 L241.98364344580875,38.32644393485649" stroke="#0d6d4d" stroke-width="0.1" fill="none" />
<path d="M198.2091636218621,-144.00738681165595 L233.00884649231264,75.7091636218621" stroke="#0d6d4d" stroke-width="0.1" fill="none" />
<path d="M208.89684026675258,-128.01214835540748 L218.29659842615013,111.22767243618895" stroke="#0d6d4d" stroke-width="0.1" fill="none" />
<path d="M218.2965984261501,-111.22767243618897 L198.20916362186213,144.0073868116559" stroke="#0d6d4d" stroke-width="0.1" fill="none" />
<path d="M226.35048546526525,-93.75744092944701 L173.24116139070415,173.24116139070412" stroke="#0d6d4d" stroke-width="0.1" fill="none" />
<path d="M233.0088464923126,-75.70916362186213 L144.00738681165595,198.2091636218621" stroke="#0d6d4d" stroke-width="0.1" fill="none" />
<path d="M238.23063049743075,-57.19411414469683 L111.22767243618898,218.2965984261501" stroke="#0d6d4d" stroke-width="0.1" fill="none" />
<path d="M241.98364344580875,-38.32644393485658 L75.70916362186215,233.0088464923126" stroke="#0d6d4d" stroke-width="0.1" fill="none" />
<path d="M244.24474676461634,-19.222478453322026 L38.32644393485659,241.98364344580872" stroke="#0d6d4d" stroke-width="0.1" fill="none" />
<path d="M245.0,-1.5001923289555078e-14 L3.0003846579110155e-14,245.0" stroke="#0d6d4d" stroke-width="0.1" fill="none" />
<path d="M244.24474676461634,19.222478453321997 L-38.326443934856535,241.98364344580875" stroke="#0d6d4d" stroke-width="0.1" fill="none" />
<path d="M241.98364344580875,38.32644393485649 L-75.70916362186199,233.00884649231267" stroke="#0d6d4d" stroke-width="0.1" fill="none" />
<path d="M238.23063049743078,57.194114144696805 L-111.22767243618894,218.29659842615013" stroke="#0d6d4d" stroke-width="0.1" fill="none" />
<path d="M233.00884649231264,75.7091636218621 L-144.0073868116559,198.20916362186213" stroke="#0d6d4d" stroke-width="0.1" fill="none" />
<path d="M226.35048546526525,93.75744092944699 L-173.24116139070412,173.24116139070418" stroke="#0d6d4d" stroke-width="0.1" fill="none" />
<path d="M218.29659842615013,111.22767243618895 L-198.2091636218621,144.00738681165595" stroke="#0d6d4d" stroke-width="0.1" fill="none" />
<path d="M208.8968402667526,128.01214835540745 L-218.2965984261501,111.227672436189" stroke="#0d6d4d" stroke-width="0.1" fill="none" />
<path d="M198.20916362186213,144.0073868116559 L-233.0088464923126,75.70916362186215" stroke="#0d6d4d" stroke-width="0.1" fill="none" />
<path d="M186.2994615720076,159.11477184089497 L-241.98364344580872,38.32644393485661" stroke="#0d6d4d" stroke-width="0.1" fill="none" />
<path d="M173.24116139070415,173.24116139070412 L-245.0,4.500576986866523e-14" stroke="#0d6d4d" stroke-width="0.1" fill="none" />
<path d="M159.11477184089503,186.29946157200757 L-241.98364344580875,-38.32644393485651" stroke="#0d6d4d" stroke-width="0.1" fill="none" />
<path d="M144.00738681165595,198.2091636218621 L-233.00884649231264,-75.70916362186207" stroke="#0d6d4d" stroke-width="0.1" fill="none" />
<path d="M128.01214835540748,208.89684026675258 L-218.29659842615015,-111.22767243618893" stroke="#0d6d4d" stroke-width="0.1" fill="none" />
<path d="M111.22767243618898,218.2965984261501 L-198.20916362186216,-144.00738681165586" stroke="#0d6d4d" stroke-width="0.1" fill="none" />
<path d="M93.75744092944701,226.35048546526525 L-173.24116139070418,-173.24116139070412" stroke="#0d6d4d" stroke-width="0.1" fill="none" />
<path d="M75.70916362186215,233.0088464923126 L-144.00738681165595,-198.2091636218621" stroke="#0d6d4d" stroke-width="0.1" fill="none" />
<path d="M57.19411414469685,238.23063049743075 L-111.22767243618901,-218.2965984261501" stroke="#0d6d4d" stroke-width="0.1" fill="none" />
<path d="M38.32644393485659,241.98364344580872 L-75.70916362186216,-233.0088464923126" stroke="#0d6d4d" stroke-width="0.1" fill="none" />
<path d="M19.22247845332204,244.24474676461634 L-38.32644393485663,-241.98364344580872" stroke="#0d6d4d" stroke-width="0.1" fill="none" />
<path d="M3.0003846579110155e-14,245.0 L0.0,-245.0" stroke="#0d6d4d" stroke-width="0.1" fill="none" />
<path d="M-19.222478453321873,244.24474676461637 L38.32644393485656,-241.98364344580875" stroke="#0d6d4d" stroke-width="0.1" fill="none" />
<path d="M-38.326443934856535,241.98364344580875 L75.70916362186212,-233.0088464923126" stroke="#0d6d4d" stroke-width="0.1" fill="none" />
<path d="M-57.1941141446968,238.23063049743078 L111.22767243618895,-218.29659842615013" stroke="#0d6d4d" stroke-width="0.1" fill="none" />
<path d="M-75.70916362186199,233.00884649231267 L144.00738681165592,-198.20916362186213" stroke="#0d6d4d" stroke-width="0.1" fill="none" />
<path d="M-93.75744092944697,226.35048546526525 L173.24116139070412,-173.24116139070415" stroke="#0d6d4d" stroke-width="0.1" fill="none" />
<path d="M-111.22767243618894,218.29659842615013 L198.2091636218621,-144.00738681165595" stroke="#0d6d4d" stroke-width="0.1" fill="none" />
<path d="M-128.01214835540753,208.89684026675255 L218.2965984261501,-111.22767243618897" stroke="#0d6d4d" stroke-width="0.1" fill="none" />
<path d="M-144.0073868116559,198.20916362186213 L233.0088464923126,-75.70916362186213" stroke="#0d6d4d" stroke-width="0.1" fill="none" />
<path d="M-159.1147718408949,186.29946157200766 L241.98364344580875,-38.32644393485658" stroke="#0d6d4d" stroke-width="0.1" fill="none" />
<path d="M-173.24116139070412,173.24116139070418 L245.0,-1.5001923289555078e-14" stroke="#0d6d4d" stroke-width="0.1" fill="none" />
<path d="M-186.29946157200746,159.11477184089512 L241.98364344580875,38.32644393485649" stroke="#0d6d4d" stroke-width="0.1" fill="none" />
<path d="M-198.2091636218621,144.00738681165595 L233.00884649231264,75.7091636218621" stroke="#0d6d4d" stroke-width="0.1" fill="none" />
<path d="M-208.89684026675263,128.01214835540742 L218.29659842615013,111.22767243618895" stroke="#0d6d4d" stroke-width="0.1" fill="none" />
<path d="M-218.2965984261501,111.227672436189 L198.20916362186213,144.0073868116559" stroke="#0d6d4d" stroke-width="0.1" fill="none" />
<path d="M-226.35048546526528,93.75744092944693 L173.24116139070415,173.24116139070412" stroke="#0d6d4d" stroke-width="0.1" fill="none" />
<path d="M-233.0088464923126,75.70916362186215 L144.00738681165595,198.2091636218621" stroke="#0d6d4d" stroke-width="0.1" fill="none" />
<path d="M-238.23063049743072,57.194114144696975 L111.22767243618898,218.2965984261501" stroke="#0d6d4d" stroke-width="0.1" fill="none" />
<path d="M-241.98364344580872,38.32644393485661 L75.70916362186215,233.0088464923126" stroke="#0d6d4d" stroke-width="0.1" fill="none" />
<path d="M-244.24474676461634,19.222478453322164 L38.32644393485659,241.98364344580872" stroke="#0d6d4d" stroke-width="0.1" fill="none" />
<path d="M-245.0,4.500576986866523e-14 L3.0003846579110155e-14,245.0" stroke="#0d6d4d" stroke-width="0.1" fill="none" />
<path d="M-244.24474676461634,-19.222478453322076 L-38.326443934856535,241.98364344580875" stroke="#0d6d4d" stroke-width="0.1" fill="none" />
<path d="M-241.98364344580875,-38.32644393485651 L-75.70916362186199,233.00884649231267" stroke="#0d6d4d" stroke-width="0.1" fill="none" />
<path d="M-238.23063049743075,-57.19411414469688 L-111.22767243618894,218.29659842615013" stroke="#0d6d4d" stroke-width="0.1" fill="none" />
<path d="M-233.00884649231264,-75.70916362186207 L-144.0073868116559,198.20916362186213" stroke="#0d6d4d" stroke-width="0.1" fill="none" />
<path d="M-226.3504854652653,-93.75744092944684 L-173.24116139070412,173.24116139070418" stroke="#0d6d4d" stroke-width="0.1" fill="none" />
<path d="M-218.29659842615015,-111.22767243618893 L-198.2091636218621,144.00738681165595" stroke="#0d6d4d" stroke-width="0.1" fill="none" />
<path d="M-208.8968402667527,-128.01214835540733 L-218.2965984261501,111.227672436189" stroke="#0d6d4d" stroke-width="0.1" fill="none" />
<path d="M-198.20916362186216,-144.00738681165586 L-233.0088464923126,75.70916362186215" stroke="#0d6d4d" stroke-width="0.1" fill="none" />
<path d="M-186.29946157200754,-159.11477184089503 L-241.98364344580872,38.32644393485661" stroke="#0d6d4d" stroke-width="0.1" fill="none" />
<path d="M-173.24116139070418,-173.24116139070412 L-245.0,4.500576986866523e-14" stroke="#0d6d4d" stroke-width="0.1" fill="none" />
<path d="M-159.11477184089495,-186.2994615720076 L-241.98364344580875,-38.32644393485651" stroke="#0d6d4d" stroke-width="0.1" fill="none" />
<path d="M-144.00738681165595,-198.2091636218621 L-233.00884649231264,-75.70916362186207" stroke="#0d6d4d" stroke-width="0.1" fill="none" />
<path d="M-128.01214835540762,-208.8968402667525 L-218.29659842615015,-111.22767243618893" stroke="#0d6d4d" stroke-width="0.1" fill="none" />
<path d="M-111.22767243618901,-218.2965984261501 L-198.20916362186216,-144.00738681165586" stroke="#0d6d4d" stroke-width="0.1" fill="none" />
<path d="M-93.75744092944714,-226.3504854652652 L-173.24116139070418,-173.24116139070412" stroke="#0d6d4d" stroke-width="0.1" fill="none" />
<path d="M-75.70916362186216,-233.0088464923126 L-144.00738681165595,-198.2091636218621" stroke="#0d6d4d" stroke-width="0.1" fill="none" />
<path d="M-57.19411414469678,-238.23063049743078 L-111.22767243618901,-218.2965984261501" stroke="#0d6d4d" stroke-width="0.1" fill="none" />
<path d="M-38.32644393485663,-241.98364344580872 L-75.70916362186216,-233.0088464923126" stroke="#0d6d4d" stroke-width="0.1" fill="none" />
<path d="M-19.222478453321962,-244.24474676461634 L-38.32644393485663,-241.98364344580872" stroke="#0d6d4d" stroke-width="0.1" fill="none" />
</svg>