<?xml version="1.0" encoding="UTF-8"?>
<svg xmlns="http://www.w3.org/2000/svg" xmlns:xlink="http://www.w3.org/1999/xlink"
     width="500.0" height="500" viewBox="-250.0 -250.0 500 500">
<defs>
</defs>
<circle cx="0" cy="0" r="245.0" fill="white" stroke-width="2" stroke="black" />
<path d="M0.0,-245.0 L0.0,-245.0" stroke="#0d6d4d" stroke-width="0.1" fill="none" />
<path d="M2.3609763403753004,-244.988623798576 L49.243532368622006,-240.00015524965912" stroke="#0d6d4d" stroke-width="0.1" fill="none" />
<path d="M4.721733424077904,-244.95449625077703 L96.47718704906852,-225.20468995804472" stroke="#0d6d4d" stroke-width="0.1" fill="none" />
<path d="M7.082052014796808,-244.89762052592448 L139.7731196299645,-201.2174819167252" stroke="#0d6d4d" stroke-width="0.1" fill="none" />
<path d="M9.441712916942526,-244.81800190589342 L177.36420406048785,-169.01757044162485" stroke="#0d6d4d" stroke-width="0.1" fill="none" />
<path d="M11.80049699600309,-244.7156477846223 L207.7161580047237,-129.91919682539856" stroke="#0d6d4d" stroke-width="0.1" fill="none" />
<path d="M14.158185198894431,-244.59056766742623 L229.5901646660135,-85.51816350128678" stroke="#0d6d4d" stroke-width="0.1" fill="none" />
<path d="M16.514558574303148,-244.4427731701142 L242.09343516783164,-37.62670127235295" stroke="#0d6d4d" stroke-width="0.1" fill="none" />
<path d="M18.86939829301987,-244.27227801791054 L244.7156477846223,11.800496996003119" stroke="#0d6d4d" stroke-width="0.1" fill="none" />
<path d="M21.22248566826123,-244.07909804418003 L237.34977675323162,60.74605728103768" stroke="#0d6d4d" stroke-width="0.1" fill="none" />
<path d="M23.573602175978664,-243.86325118895775 L220.2964605357656,107.21226364280287" stroke="#0d6d4d" stroke-width="0.1" fill="none" />
<path d="M25.922529475152064,-243.62475749728284 L194.25173124296555,149.302595118473" stroke="#0d6d4d" stroke-width="0.1" fill="none" />
<path d="M28.269049428066456,-243.3636391173372 L160.2786060424122,185.29913233769128" stroke="#0d6d4d" stroke-width="0.1" fill="none" />
<path d="M30.612944120569747,-243.07992029838843 L119.7637000499151,213.73267450334765" stroke="#0d6d4d" stroke-width="0.1" fill="none" />
<path d="M32.95399588230979,-242.77362738853805 L74.36063155149182,233.4427049090703" stroke="#0d6d4d" stroke-width="0.1" fill="none" />
<path d="M35.29198730694875,-242.4447888322745 L25.92252947515205,243.62475749728284" stroke="#0d6d4d" stroke-width="0.1" fill="none" />
<path d="M37.626701272352946,-242.09343516783164 L-23.573602175978717,243.86325118895775" stroke="#0d6d4d" stroke-width="0.1" fill="none" />
<path d="M39.957920960756354,-241.7195990243529 L-72.10757585905873,234.14845184995372" stroke="#0d6d4d" stroke-width="0.1" fill="none" />
<path d="M42.28542987889582,-241.3233151188608 L-117.6984745656597,214.87686959027664" stroke="#0d6d4d" stroke-width="0.1" fill="none" />
<path d="M44.60901187811606,-240.90462025303313 L-158.48550306670742,186.8350751804721" stroke="#0d6d4d" stroke-width="0.1" fill="none" />
<path d="M46.92845117444281,-240.46355330978525 L-192.80393637989238,151.16759611907048" stroke="#0d6d4d" stroke-width="0.1" fill="none" />
<path d="M49.243532368622006,-240.00015524965912 L-219.25306561835015,109.3302026749948" stroke="#0d6d4d" stroke-width="0.1" fill="none" />
<path d="M51.554040466123176,-239.51446910701938 L-236.75336800678303,63.03049053787197" stroke="#0d6d4d" stroke-width="0.1" fill="none" />
<path d="M53.85976089710545,-239.00653998605694 L-244.5905676674262,14.158185198894548" stroke="#0d6d4d" stroke-width="0.1" fill="none" />
<path d="M56.16047953634394,-238.4764150566003 L-242.4447888322745,-35.291987306948776" stroke="#0d6d4d" stroke-width="0.1" fill="none" />
<path d="M58.45598272311487,-237.92414354973496 L-230.4036115914856,-83.30171526205112" stroke="#0d6d4d" stroke-width="0.1" fill="none" />
<path d="M60.746057281037665,-237.34977675323162 L-208.9584973068169,-127.9114787783997" stroke="#0d6d4d" stroke-width="0.1" fill="none" />
<path d="M63.03049053787193,-236.75336800678303 L-178.98472958705756,-167.30052771778057" stroke="#0d6d4d" stroke-width="0.1" fill="none" />
<path d="M65.3090703452677,-236.1349726970507 L-141.7056895357307,-199.86119571643493" stroke="#0d6d4d" stroke-width="0.1" fill="none" />
<path d="M67.58158509846706,-235.49464825252113 L-98.64292337894537,-224.26451718284707" stroke="#0d6d4d" stroke-width="0.1" fill="none" />
<path d="M69.8478237559551,-234.8324541381728 L-51.55404046612315,-239.51446910701938" stroke="#0d6d4d" stroke-width="0.1" fill="none" />
<path d="M72.10757585905885,-234.14845184995366 L-2.3609763403753363,-244.988623798576" stroke="#0d6d4d" stroke-width="0.1" fill="none" />
<path d="M74.3606315514918,-233.4427049090703 L46.92845117444281,-240.46355330978525" stroke="#0d6d4d" stroke-width="0.1" fill="none" />
<path d="M76.60678159884276,-232.71527885608887 L94.30249117704732,-226.12394866047006" stroke="#0d6d4d" stroke-width="0.1" fill="none" />
<path d="M78.84581740800664,-231.96624124484856 L137.8275694208304,-202.55508166310264" stroke="#0d6d4d" stroke-width="0.1" fill="none" />
<path d="M81.07753104655603,-231.19566163618802 L175.72720726117686,-170.7189170191382" stroke="#0d6d4d" stroke-width="0.1" fill="none" />
<path d="M83.30171526205116,-230.40361159148557 L206.45452873648773,-131.91484967278993" stroke="#0d6d4d" stroke-width="0.1" fill="none" />
<path d="M85.51816350128679,-229.59016466601346 L228.75539640210692,-87.72666992947426" stroke="#0d6d4d" stroke-width="0.1" fill="none" />
<path d="M87.72666992947423,-228.75539640210692 L241.7195990243529,-39.9579209607564" stroke="#0d6d4d" stroke-width="0.1" fill="none" />
<path d="M89.92702944935657,-227.899384322149 L244.81800190589342,9.441712916942523" stroke="#0d6d4d" stroke-width="0.1" fill="none" />
<path d="M92.11903772025538,-227.02220792137092 L237.92414354973496,58.45598272311491" stroke="#0d6d4d" stroke-width="0.1" fill="none" />
<path d="M94.30249117704732,-226.12394866047006 L221.31939719270719,105.0843681346408" stroke="#0d6d4d" stroke-width="0.1" fill="none" />
<path d="M96.47718704906852,-225.20468995804472 L195.68148654014823,147.42372884118004" stroke="#0d6d4d" stroke-width="0.1" fill="none" />
<path d="M98.64292337894528,-224.2645171828471 L162.05682443275938,183.74598132957848" stroke="#0d6d4d" stroke-width="0.1" fill="none" />
<path d="M100.79949904134926,-223.30351764585578 L121.81780344457839,212.5686307147366" stroke="#0d6d4d" stroke-width="0.1" fill="none" />
<path d="M102.94671376167543,-222.32178059216704 L76.60678159884286,232.71527885608884" stroke="#0d6d4d" stroke-width="0.1" fill="none" />
<path d="M105.08436813464081,-221.31939719270719 L28.269049428066523,243.3636391173372" stroke="#0d6d4d" stroke-width="0.1" fill="none" />
<path d="M107.21226364280282,-220.29646053576562 L-21.222485668261196,244.07909804418003" stroke="#0d6d4d" stroke-width="0.1" fill="none" />
<path d="M109.33020267499482,-219.25306561835015 L-69.84782375595512,234.83245413817278" stroke="#0d6d4d" stroke-width="0.1" fill="none" />
<path d="M111.43798854467774,-218.18930933736482 L-115.62231878300447,216.00110971761532" stroke="#0d6d4d" stroke-width="0.1" fill="none" />
<path d="M113.5354255082058,-217.1052904806114 L-156.67768202565028,188.3536672195931" stroke="#0d6d4d" stroke-width="0.1" fill="none" />
<path d="M115.62231878300452,-216.0011097176153 L-191.33823640322234,153.01855864601723" stroke="#0d6d4d" stroke-width="0.1" fill="none" />
<path d="M117.69847456565967,-214.87686959027667 L-218.18930933736482,111.4379885446777" stroke="#0d6d4d" stroke-width="0.1" fill="none" />
<path d="M119.76370004991516,-213.73267450334765 L-236.1349726970507,65.30907034526773" stroke="#0d6d4d" stroke-width="0.1" fill="none" />
<path d="M121.81780344457836,-212.56863071473663 L-244.4427731701142,16.514558574303027" stroke="#0d6d4d" stroke-width="0.1" fill="none" />
<path d="M123.86059399133121,-211.38484632564038 L-242.77362738853805,-32.953995882309634" stroke="#0d6d4d" stroke-width="0.1" fill="none" />
<path d="M125.89188198244533,-210.1814312705051 L-231.19566163618802,-81.07753104655602" stroke="#0d6d4d" stroke-width="0.1" fill="none" />
<path d="M127.91147877839961,-208.95849730681695 L-210.18143127050513,-125.89188198244527" stroke="#0d6d4d" stroke-width="0.1" fill="none" />
<path d="M129.91919682539856,-207.7161580047237 L-180.5886333476224,-165.56794830412682" stroke="#0d6d4d" stroke-width="0.1" fill="none" />
<path d="M131.9148496727899,-206.45452873648773 L-143.62509966625527,-198.48634901639517" stroke="#0d6d4d" stroke-width="0.1" fill="none" />
<path d="M133.89825199037963,-205.17372666577168 L-100.79949904134934,-223.30351764585575" stroke="#0d6d4d" stroke-width="0.1" fill="none" />
<path d="M135.8692195856431,-203.87387073675797 L-53.85976089710561,-239.0065399860569" stroke="#0d6d4d" stroke-width="0.1" fill="none" />
<path d="M137.8275694208304,-202.55508166310264 L-4.721733424078132,-244.95449625077703" stroke="#0d6d4d" stroke-width="0.1" fill="none" />
<path d="M139.7731196299645,-201.2174819167252 L44.60901187811606,-240.90462025303313" stroke="#0d6d4d" stroke-width="0.1" fill="none" />
<path d="M141.70568953573067,-199.86119571643493 L92.11903772025538,-227.02220792137092" stroke="#0d6d4d" stroke-width="0.1" fill="none" />
<path d="M143.62509966625527,-198.4863490163952 L135.8692195856431,-203.87387073675797" stroke="#0d6d4d" stroke-width="0.1" fill="none" />
<path d="M145.531171771773,-197.0930694944262 L174.07389121202516,-172.40440945145235" stroke="#0d6d4d" stroke-width="0.1" fill="none" />
<path d="M147.42372884118004,-195.68148654014823 L205.17372666577168,-133.89825199037966" stroke="#0d6d4d" stroke-width="0.1" fill="none" />
<path d="M149.30259511847302,-194.25173124296555 L227.899384322149,-89.92702944935657" stroke="#0d6d4d" stroke-width="0.1" fill="none" />
<path d="M151.16759611907054,-192.80393637989235 L241.3233151188608,-42.28542987889583" stroke="#0d6d4d" stroke-width="0.1" fill="none" />
<path d="M153.0185586460171,-191.33823640322237 L244.89762052592448,7.0820520147968296" stroke="#0d6d4d" stroke-width="0.1" fill="none" />
<path d="M154.85531080606762,-189.85476742804272 L238.4764150566003,56.16047953634394" stroke="#0d6d4d" stroke-width="0.1" fill="none" />
<path d="M156.6776820256503,-188.3536672195931 L222.32178059216704,102.94671376167543" stroke="#0d6d4d" stroke-width="0.1" fill="none" />
<path d="M158.48550306670745,-186.8350751804721 L197.09306949442626,145.53117177177288" stroke="#0d6d4d" stroke-width="0.1" fill="none" />
<path d="M160.27860604241224,-185.29913233769128 L163.81999310003002,182.17576639253124" stroke="#0d6d4d" stroke-width="0.1" fill="none" />
<path d="M162.0568244327594,-183.74598132957846 L123.86059399133121,211.38484632564038" stroke="#0d6d4d" stroke-width="0.1" fill="none" />
<path d="M163.81999310002996,-182.1757663925313 L78.84581740800671,231.96624124484853" stroke="#0d6d4d" stroke-width="0.1" fill="none" />
<path d="M165.5679483041268,-180.5886333476224 L30.61294412056979,243.07992029838843" stroke="#0d6d4d" stroke-width="0.1" fill="none" />
<path d="M167.30052771778057,-178.98472958705761 L-18.869398293019863,244.27227801791054" stroke="#0d6d4d" stroke-width="0.1" fill="none" />
<path d="M169.01757044162485,-177.36420406048785 L-67.581585098467,235.49464825252116" stroke="#0d6d4d" stroke-width="0.1" fill="none" />
<path d="M170.7189170191382,-175.72720726117686 L-113.53542550820586,217.10529048061136" stroke="#0d6d4d" stroke-width="0.1" fill="none" />
<path d="M172.40440945145232,-174.0738912120252 L-154.85531080606762,189.85476742804272" stroke="#0d6d4d" stroke-width="0.1" fill="none" />
<path d="M174.07389121202516,-172.40440945145235 L-189.85476742804266,154.8553108060677" stroke="#0d6d4d" stroke-width="0.1" fill="none" />
<path d="M175.72720726117686,-170.7189170191382 L-217.10529048061133,113.53542550820593" stroke="#0d6d4d" stroke-width="0.1" fill="none" />
<path d="M177.36420406048785,-169.01757044162485 L-235.49464825252113,67.58158509846706" stroke="#0d6d4d" stroke-width="0.1" fill="none" />
<path d="M178.98472958705756,-167.30052771778057 L-244.27227801791054,18.869398293019938" stroke="#0d6d4d" stroke-width="0.1" fill="none" />
<path d="M180.5886333476224,-165.56794830412682 L-243.07992029838843,-30.61294412056982" stroke="#0d6d4d" stroke-width="0.1" fill="none" />
<path d="M182.17576639253124,-163.81999310003002 L-231.96624124484856,-78.84581740800665" stroke="#0d6d4d" stroke-width="0.1" fill="none" />
<path d="M183.7459813295784,-162.05682443275944 L-211.3848463256404,-123.86059399133116" stroke="#0d6d4d" stroke-width="0.1" fill="none" />
<path d="M185.29913233769128,-160.27860604241224 L-182.17576639253141,-163.81999310002988" stroke="#0d6d4d" stroke-width="0.1" fill="none" />
<path d="M186.83507518047207,-158.48550306670748 L-145.53117177177313,-197.09306949442606" stroke="#0d6d4d" stroke-width="0.1" fill="none" />
<path d="M188.3536672195931,-156.6776820256503 L-102.94671376167548,-222.32178059216702" stroke="#0d6d4d" stroke-width="0.1" fill="none" />
<path d="M189.85476742804272,-154.85531080606765 L-56.16047953634408,-238.47641505660027" stroke="#0d6d4d" stroke-width="0.1" fill="none" />
<path d="M191.33823640322237,-153.01855864601717 L-7.082052014796797,-244.89762052592448" stroke="#0d6d4d" stroke-width="0.1" fill="none" />
<path d="M192.80393637989235,-151.16759611907054 L42.28542987889582,-241.3233151188608" stroke="#0d6d4d" stroke-width="0.1" fill="none" />
<path d="M194.25173124296555,-149.30259511847305 L89.92702944935657,-227.899384322149" stroke="#0d6d4d" stroke-width="0.1" fill="none" />
<path d="M195.68148654014823,-147.42372884118006 L133.89825199037963,-205.17372666577168" stroke="#0d6d4d" stroke-width="0.1" fill="none" />
<path d="M197.09306949442617,-145.53117177177302 L172.40440945145232,-174.0738912120252" stroke="#0d6d4d" stroke-width="0.1" fill="none" />
<path d="M198.48634901639514,-143.6250996662553 L203.87387073675794,-135.86921958564312" stroke="#0d6d4d" stroke-width="0.1" fill="none" />
<path d="M199.86119571643493,-141.70568953573067 L227.02220792137092,-92.1190377202554" stroke="#0d6d4d" stroke-width="0.1" fill="none" />
<path d="M201.2174819167252,-139.7731196299645 L240.90462025303313,-44.60901187811605" stroke="#0d6d4d" stroke-width="0.1" fill="none" />
<path d="M202.5550816631026,-137.82756942083043 L244.95449625077703,4.72173342407784" stroke="#0d6d4d" stroke-width="0.1" fill="none" />
<path d="M203.87387073675794,-135.86921958564312 L239.00653998605696,53.85976089710538" stroke="#0d6d4d" stroke-width="0.1" fill="none" />
<path d="M205.17372666577168,-133.89825199037966 L223.3035176458558,100.79949904134924" stroke="#0d6d4d" stroke-width="0.1" fill="none" />
<path d="M206.45452873648773,-131.91484967278993 L198.48634901639522,143.6250996662552" stroke="#0d6d4d" stroke-width="0.1" fill="none" />
<path d="M207.7161580047237,-129.91919682539856 L165.56794830412682,180.5886333476224" stroke="#0d6d4d" stroke-width="0.1" fill="none" />
<path d="M208.95849730681695,-127.91147877839964 L125.89188198244543,210.18143127050504" stroke="#0d6d4d" stroke-width="0.1" fill="none" />
<path d="M210.18143127050507,-125.89188198244538 L81.07753104655609,231.195661636188" stroke="#0d6d4d" stroke-width="0.1" fill="none" />
<path d="M211.38484632564038,-123.86059399133121 L32.953995882309805,242.77362738853802" stroke="#0d6d4d" stroke-width="0.1" fill="none" />
<path d="M212.5686307147366,-121.81780344457839 L-16.51455857430306,244.4427731701142" stroke="#0d6d4d" stroke-width="0.1" fill="none" />
<path d="M213.73267450334765,-119.76370004991516 L-65.30907034526777,236.13497269705067" stroke="#0d6d4d" stroke-width="0.1" fill="none" />
<path d="M214.87686959027664,-117.6984745656597 L-111.43798854467774,218.18930933736482" stroke="#0d6d4d" stroke-width="0.1" fill="none" />
<path d="M216.00110971761526,-115.62231878300456 L-153.01855864601714,191.33823640322237" stroke="#0d6d4d" stroke-width="0.1" fill="none" />
<path d="M217.1052904806114,-113.5354255082058 L-188.35366721959306,156.67768202565034" stroke="#0d6d4d" stroke-width="0.1" fill="none" />
<path d="M218.18930933736482,-111.43798854467778 L-216.00110971761535,115.62231878300443" stroke="#0d6d4d" stroke-width="0.1" fill="none" />
<path d="M219.25306561835015,-109.33020267499482 L-234.8324541381728,69.84782375595508" stroke="#0d6d4d" stroke-width="0.1" fill="none" />
<path d="M220.29646053576562,-107.21226364280284 L-244.07909804418003,21.22248566826127" stroke="#0d6d4d" stroke-width="0.1" fill="none" />
<path d="M221.31939719270719,-105.08436813464081 L-243.36363911733721,-28.269049428066342" stroke="#0d6d4d" stroke-width="0.1" fill="none" />
<path d="M222.32178059216704,-102.94671376167544 L-232.71527885608893,-76.60678159884257" stroke="#0d6d4d" stroke-width="0.1" fill="none" />
<path d="M223.30351764585578,-100.7994990413493 L-212.56863071473666,-121.81780344457832" stroke="#0d6d4d" stroke-width="0.1" fill="none" />
<path d="M224.2645171828471,-98.64292337894528 L-183.74598132957854,-162.0568244327593" stroke="#0d6d4d" stroke-width="0.1" fill="none" />
<path d="M225.20468995804472,-96.4771870490685 L-147.42372884118004,-195.68148654014826" stroke="#0d6d4d" stroke-width="0.1" fill="none" />
<path d="M226.12394866047006,-94.30249117704733 L-105.08436813464085,-221.31939719270716" stroke="#0d6d4d" stroke-width="0.1" fill="none" />
<path d="M227.02220792137092,-92.1190377202554 L-58.45598272311498,-237.92414354973494" stroke="#0d6d4d" stroke-width="0.1" fill="none" />
<path d="M227.899384322149,-89.92702944935657 L-9.441712916942707,-244.81800190589342" stroke="#0d6d4d" stroke-width="0.1" fill="none" />
<path d="M228.75539640210692,-87.72666992947426 L39.957920960756354,-241.7195990243529" stroke="#0d6d4d" stroke-width="0.1" fill="none" />
<path d="M229.5901646660135,-85.51816350128678 L87.72666992947423,-228.75539640210692" stroke="#0d6d4d" stroke-width="0.1" fill="none" />
<path d="M230.40361159148557,-83.30171526205116 L131.9148496727899,-206.45452873648773" stroke="#0d6d4d" stroke-width="0.1" fill="none" />
<path d="M231.19566163618802,-81.07753104655602 L170.7189170191382,-175.72720726117686" stroke="#0d6d4d" stroke-width="0.1" fill="none" />
<path d="M231.96624124484856,-78.84581740800665 L202.5550816631026,-137.82756942083043" stroke="#0d6d4d" stroke-width="0.1" fill="none" />
<path d="M232.71527885608887,-76.60678159884279 L226.12394866047006,-94.30249117704733" stroke="#0d6d4d" stroke-width="0.1" fill="none" />
<path d="M233.4427049090703,-74.3606315514918 L240.46355330978525,-46.928451174442834" stroke="#0d6d4d" stroke-width="0.1" fill="none" />
<path d="M234.1484518499537,-72.10757585905883 L244.988623798576,2.3609763403752613" stroke="#0d6d4d" stroke-width="0.1" fill="none" />
<path d="M234.8324541381728,-69.8478237559551 L239.51446910701938,51.554040466123126" stroke="#0d6d4d" stroke-width="0.1" fill="none" />
<path d="M235.49464825252113,-67.58158509846709 L224.26451718284713,98.64292337894527" stroke="#0d6d4d" stroke-width="0.1" fill="none" />
<path d="M236.13497269705067,-65.30907034526776 L199.86119571643496,141.7056895357306" stroke="#0d6d4d" stroke-width="0.1" fill="none" />
<path d="M236.75336800678303,-63.03049053787194 L167.30052771778057,178.98472958705761" stroke="#0d6d4d" stroke-width="0.1" fill="none" />
<path d="M237.34977675323162,-60.74605728103765 L127.9114787783997,208.95849730681692" stroke="#0d6d4d" stroke-width="0.1" fill="none" />
<path d="M237.92414354973496,-58.45598272311488 L83.30171526205118,230.40361159148557" stroke="#0d6d4d" stroke-width="0.1" fill="none" />
<path d="M238.4764150566003,-56.16047953634397 L35.29198730694874,242.4447888322745" stroke="#0d6d4d" stroke-width="0.1" fill="none" />
<path d="M239.00653998605694,-53.85976089710546 L-14.158185198894474,244.5905676674262" stroke="#0d6d4d" stroke-width="0.1" fill="none" />
<path d="M239.51446910701938,-51.5540404661232 L-63.030490537871906,236.75336800678306" stroke="#0d6d4d" stroke-width="0.1" fill="none" />
<path d="M240.00015524965912,-49.243532368622 L-109.33020267499482,219.25306561835012" stroke="#0d6d4d" stroke-width="0.1" fill="none" />
<path d="M240.46355330978525,-46.928451174442834 L-151.16759611907048,192.80393637989238" stroke="#0d6d4d" stroke-width="0.1" fill="none" />
<path d="M240.90462025303313,-44.60901187811605 L-186.83507518047205,158.4855030667075" stroke="#0d6d4d" stroke-width="0.1" fill="none" />
<path d="M241.3233151188608,-42.28542987889583 L-214.8768695902766,117.69847456565977" stroke="#0d6d4d" stroke-width="0.1" fill="none" />
<path d="M241.7195990243529,-39.9579209607564 L-234.1484518499536,72.107575859059" stroke="#0d6d4d" stroke-width="0.1" fill="none" />
<path d="M242.09343516783164,-37.62670127235295 L-243.86325118895775,23.573602175978685" stroke="#0d6d4d" stroke-width="0.1" fill="none" />
<path d="M242.4447888322745,-35.29198730694873 L-243.62475749728284,-25.922529475151975" stroke="#0d6d4d" stroke-width="0.1" fill="none" />
<path d="M242.77362738853802,-32.9539958823098 L-233.4427049090703,-74.36063155149186" stroke="#0d6d4d" stroke-width="0.1" fill="none" />
<path d="M243.07992029838843,-30.612944120569775 L-213.73267450334765,-119.76370004991513" stroke="#0d6d4d" stroke-width="0.1" fill="none" />
<path d="M243.3636391173372,-28.269049428066506 L-185.29913233769133,-160.27860604241215" stroke="#0d6d4d" stroke-width="0.1" fill="none" />
<path d="M243.62475749728284,-25.92252947515209 L-149.30259511847316,-194.25173124296543" stroke="#0d6d4d" stroke-width="0.1" fill="none" />
<path d="M243.86325118895775,-23.573602175978653 L-107.21226364280282,-220.29646053576562" stroke="#0d6d4d" stroke-width="0.1" fill="none" />
<path d="M244.07909804418003,-21.222485668261243 L-60.746057281037736,-237.3497767532316" stroke="#0d6d4d" stroke-width="0.1" fill="none" />
<path d="M244.27227801791054,-18.869398293019906 L-11.80049699600303,-244.7156477846223" stroke="#0d6d4d" stroke-width="0.1" fill="none" />
<path d="M244.4427731701142,-16.51455857430316 L37.626701272352946,-242.09343516783164" stroke="#0d6d4d" stroke-width="0.1" fill="none" />
<path d="M244.5905676674262,-14.158185198894465 L85.51816350128679,-229.59016466601346" stroke="#0d6d4d" stroke-width="0.1" fill="none" />
<path d="M244.7156477846223,-11.800496996003094 L129.91919682539856,-207.7161580047237" stroke="#0d6d4d" stroke-width="0.1" fill="none" />
<path d="M244.81800190589342,-9.441712916942553 L169.01757044162485,-177.36420406048785" stroke="#0d6d4d" stroke-width="0.1" fill="none" />
<path d="M244.89762052592448,-7.0820520147968065 L201.2174819167252,-139.7731196299645" stroke="#0d6d4d" stroke-width="0.1" fill="none" />
<path d="M244.95449625077703,-4.721733424077925 L225.20468995804472,-96.4771870490685" stroke="#0d6d4d" stroke-width="0.1" fill="none" />
<path d="M244.988623798576,-2.3609763403753457 L240.00015524965912,-49.243532368622" stroke="#0d6d4d" stroke-width="0.1" fill="none" />
<path d="M245.0,-1.5001923289555078e-14 L245.0,-1.5001923289555078e-14" stroke="#0d6d4d" stroke-width="0.1" fill="none" />
<path d="M244.988623798576,2.3609763403752613 L240.00015524965912,49.24353236862197" stroke="#0d6d4d" stroke-width="0.1" fill="none" />
<path d="M244.95449625077703,4.72173342407784 L225.20468995804475,96.47718704906848" stroke="#0d6d4d" stroke-width="0.1" fill="none" />
<path d="M244.89762052592448,7.0820520147968296 L201.2174819167252,139.77311962996447" stroke="#0d6d4d" stroke-width="0.1" fill="none" />
<path d="M244.81800190589342,9.441712916942523 L169.01757044162494,177.36420406048782" stroke="#0d6d4d" stroke-width="0.1" fill="none" />
<path d="M244.7156477846223,11.800496996003119 L129.91919682539861,207.71615800472367" stroke="#0d6d4d" stroke-width="0.1" fill="none" />
<path d="M244.59056766742623,14.158185198894435 L85.51816350128679,229.59016466601346" stroke="#0d6d4d" stroke-width="0.1" fill="none" />
<path d="M244.4427731701142,16.51455857430313 L37.626701272353024,242.09343516783164" stroke="#0d6d4d" stroke-width="0.1" fill="none" />
<path d="M244.27227801791054,18.869398293019824 L-11.800496996003048,244.7156477846223" stroke="#0d6d4d" stroke-width="0.1" fill="none" />
<path d="M244.07909804418003,21.222485668261214 L-60.74605728103755,237.34977675323165" stroke="#0d6d4d" stroke-width="0.1" fill="none" />
<path d="M243.86325118895775,23.573602175978625 L-107.21226364280275,220.29646053576565" stroke="#0d6d4d" stroke-width="0.1" fill="none" />
<path d="M243.62475749728284,25.922529475152007 L-149.3025951184729,194.2517312429656" stroke="#0d6d4d" stroke-width="0.1" fill="none" />
<path d="M243.3636391173372,28.269049428066424 L-185.29913233769128,160.27860604241224" stroke="#0d6d4d" stroke-width="0.1" fill="none" />
<path d="M243.07992029838843,30.612944120569693 L-213.7326745033476,119.76370004991522" stroke="#0d6d4d" stroke-width="0.1" fill="none" />
<path d="M242.77362738853802,32.95399588230982 L-233.44270490907033,74.36063155149174" stroke="#0d6d4d" stroke-width="0.1" fill="none" />
<path d="M242.4447888322745,35.291987306948755 L-243.62475749728281,25.92252947515228" stroke="#0d6d4d" stroke-width="0.1" fill="none" />
<path d="M242.09343516783164,37.626701272352925 L-243.86325118895775,-23.573602175978596" stroke="#0d6d4d" stroke-width="0.1" fill="none" />
<path d="M241.7195990243529,39.95792096075637 L-234.14845184995372,-72.10757585905871" stroke="#0d6d4d" stroke-width="0.1" fill="none" />
<path d="M241.3233151188608,42.285429878895805 L-214.87686959027667,-117.69847456565967" stroke="#0d6d4d" stroke-width="0.1" fill="none" />
<path d="M240.90462025303313,44.60901187811602 L-186.83507518047213,-158.48550306670742" stroke="#0d6d4d" stroke-width="0.1" fill="none" />
<path d="M240.46355330978525,46.928451174442806 L-151.16759611907048,-192.80393637989238" stroke="#0d6d4d" stroke-width="0.1" fill="none" />
<path d="M240.00015524965912,49.24353236862197 L-109.330202674995,-219.25306561835006" stroke="#0d6d4d" stroke-width="0.1" fill="none" />
<path d="M239.51446910701938,51.554040466123126 L-63.030490537871984,-236.75336800678303" stroke="#0d6d4d" stroke-width="0.1" fill="none" />
<path d="M239.00653998605696,53.85976089710538 L-14.158185198894564,-244.5905676674262" stroke="#0d6d4d" stroke-width="0.1" fill="none" />
<path d="M238.4764150566003,56.16047953634394 L35.29198730694875,-242.4447888322745" stroke="#0d6d4d" stroke-width="0.1" fill="none" />
<path d="M237.92414354973496,58.45598272311491 L83.30171526205116,-230.40361159148557" stroke="#0d6d4d" stroke-width="0.1" fill="none" />
<path d="M237.34977675323162,60.74605728103768 L127.91147877839961,-208.95849730681695" stroke="#0d6d4d" stroke-width="0.1" fill="none" />
<path d="M236.75336800678306,63.03049053787192 L167.30052771778057,-178.98472958705761" stroke="#0d6d4d" stroke-width="0.1" fill="none" />
<path d="M236.1349726970507,65.30907034526773 L199.86119571643493,-141.70568953573067" stroke="#0d6d4d" stroke-width="0.1" fill="none" />
<path d="M235.49464825252113,67.58158509846706 L224.2645171828471,-98.64292337894528" stroke="#0d6d4d" stroke-width="0.1" fill="none" />
<path d="M234.8324541381728,69.84782375595508 L239.51446910701938,-51.5540404661232" stroke="#0d6d4d" stroke-width="0.1" fill="none" />
<path d="M234.1484518499537,72.1075758590588 L244.988623798576,-2.3609763403753457" stroke="#0d6d4d" stroke-width="0.1" fill="none" />
<path d="M233.4427049090703,74.36063155149178 L240.46355330978525,46.928451174442806" stroke="#0d6d4d" stroke-width="0.1" fill="none" />
<path d="M232.7152788560889,76.6067815988427 L226.1239486604701,94.3024911770473" stroke="#0d6d4d" stroke-width="0.1" fill="none" />
<path d="M231.9662412448486,78.84581740800657 L202.55508166310264,137.8275694208304" stroke="#0d6d4d" stroke-width="0.1" fill="none" />
<path d="M231.19566163618802,81.07753104655605 L170.71891701913825,175.7272072611768" stroke="#0d6d4d" stroke-width="0.1" fill="none" />
<path d="M230.4036115914856,83.30171526205115 L131.91484967278993,206.45452873648773" stroke="#0d6d4d" stroke-width="0.1" fill="none" />
<path d="M229.59016466601346,85.5181635012868 L87.72666992947421,228.75539640210695" stroke="#0d6d4d" stroke-width="0.1" fill="none" />
<path d="M228.75539640210692,87.72666992947423 L39.95792096075641,241.7195990243529" stroke="#0d6d4d" stroke-width="0.1" fill="none" />
<path d="M227.899384322149,89.92702944935654 L-9.441712916942398,244.81800190589342" stroke="#0d6d4d" stroke-width="0.1" fill="none" />
<path d="M227.02220792137092,92.11903772025538 L-58.45598272311489,237.92414354973496" stroke="#0d6d4d" stroke-width="0.1" fill="none" />
<path d="M226.1239486604701,94.3024911770473 L-105.08436813464067,221.31939719270724" stroke="#0d6d4d" stroke-width="0.1" fill="none" />
<path d="M225.20468995804475,96.47718704906848 L-147.42372884118004,195.68148654014823" stroke="#0d6d4d" stroke-width="0.1" fill="none" />
<path d="M224.26451718284713,98.64292337894527 L-183.7459813295784,162.05682443275947" stroke="#0d6d4d" stroke-width="0.1" fill="none" />
<path d="M223.3035176458558,100.79949904134924 L-212.5686307147366,121.8178034445784" stroke="#0d6d4d" stroke-width="0.1" fill="none" />
<path d="M222.32178059216704,102.94671376167543 L-232.71527885608884,76.60678159884287" stroke="#0d6d4d" stroke-width="0.1" fill="none" />
<path d="M221.31939719270719,105.0843681346408 L-243.3636391173372,28.269049428066428" stroke="#0d6d4d" stroke-width="0.1" fill="none" />
<path d="M220.2964605357656,107.21226364280287 L-244.07909804418003,-21.222485668261182" stroke="#0d6d4d" stroke-width="0.1" fill="none" />
<path d="M219.25306561835012,109.33020267499484 L-234.83245413817284,-69.84782375595499" stroke="#0d6d4d" stroke-width="0.1" fill="none" />
<path d="M218.18930933736482,111.43798854467775 L-216.00110971761538,-115.62231878300436" stroke="#0d6d4d" stroke-width="0.1" fill="none" />
<path d="M217.10529048061142,113.53542550820578 L-188.35366721959312,-156.67768202565026" stroke="#0d6d4d" stroke-width="0.1" fill="none" />
<path d="M216.00110971761532,115.62231878300449 L-153.01855864601723,-191.33823640322234" stroke="#0d6d4d" stroke-width="0.1" fill="none" />
<path d="M214.8768695902767,117.6984745656596 L-111.43798854467771,-218.18930933736482" stroke="#0d6d4d" stroke-width="0.1" fill="none" />
<path d="M213.73267450334765,119.76370004991516 L-65.30907034526774,-236.1349726970507" stroke="#0d6d4d" stroke-width="0.1" fill="none" />
<path d="M212.56863071473666,121.81780344457835 L-16.514558574303262,-244.4427731701142" stroke="#0d6d4d" stroke-width="0.1" fill="none" />
<path d="M211.3848463256404,123.86059399133119 L32.95399588230979,-242.77362738853805" stroke="#0d6d4d" stroke-width="0.1" fill="none" />
<path d="M210.18143127050507,125.89188198244538 L81.07753104655603,-231.19566163618802" stroke="#0d6d4d" stroke-width="0.1" fill="none" />
<path d="M208.95849730681695,127.91147877839964 L125.89188198244533,-210.1814312705051" stroke="#0d6d4d" stroke-width="0.1" fill="none" />
<path d="M207.7161580047237,129.91919682539856 L165.5679483041268,-180.5886333476224" stroke="#0d6d4d" stroke-width="0.1" fill="none" />
<path d="M206.45452873648776,131.91484967278987 L198.48634901639514,-143.6250996662553" stroke="#0d6d4d" stroke-width="0.1" fill="none" />
<path d="M205.17372666577174,133.8982519903796 L223.30351764585578,-100.7994990413493" stroke="#0d6d4d" stroke-width="0.1" fill="none" />
<path d="M203.87387073675802,135.86921958564304 L239.00653998605694,-53.85976089710546" stroke="#0d6d4d" stroke-width="0.1" fill="none" />
<path d="M202.55508166310264,137.8275694208304 L244.95449625077703,-4.721733424077925" stroke="#0d6d4d" stroke-width="0.1" fill="none" />
<path d="M201.2174819167252,139.77311962996447 L240.90462025303313,44.60901187811602" stroke="#0d6d4d" stroke-width="0.1" fill="none" />
<path d="M199.86119571643496,141.7056895357306 L227.02220792137092,92.11903772025538" stroke="#0d6d4d" stroke-width="0.1" fill="none" />
<path d="M198.48634901639522,143.6250996662552 L203.87387073675802,135.86921958564304" stroke="#0d6d4d" stroke-width="0.1" fill="none" />
<path d="M197.09306949442626,145.53117177177288 L172.40440945145235,174.07389121202516" stroke="#0d6d4d" stroke-width="0.1" fill="none" />
<path d="M195.68148654014823,147.42372884118004 L133.89825199037963,205.17372666577168" stroke="#0d6d4d" stroke-width="0.1" fill="none" />
<path d="M194.25173124296555,149.302595118473 L89.92702944935662,227.89938432214893" stroke="#0d6d4d" stroke-width="0.1" fill="none" />
<path d="M192.80393637989238,151.16759611907048 L42.28542987889585,241.3233151188608" stroke="#0d6d4d" stroke-width="0.1" fill="none" />
<path d="M191.33823640322237,153.01855864601714 L-7.082052014796815,244.89762052592448" stroke="#0d6d4d" stroke-width="0.1" fill="none" />
<path d="M189.85476742804272,154.85531080606762 L-56.16047953634388,238.4764150566003" stroke="#0d6d4d" stroke-width="0.1" fill="none" />
<path d="M188.3536672195931,156.67768202565028 L-102.94671376167541,222.32178059216707" stroke="#0d6d4d" stroke-width="0.1" fill="none" />
<path d="M186.8350751804721,158.48550306670742 L-145.53117177177288,197.09306949442626" stroke="#0d6d4d" stroke-width="0.1" fill="none" />
<path d="M185.29913233769133,160.27860604241215 L-182.17576639253124,163.81999310003002" stroke="#0d6d4d" stroke-width="0.1" fill="none" />
<path d="M183.7459813295785,162.05682443275933 L-211.38484632564038,123.86059399133124" stroke="#0d6d4d" stroke-width="0.1" fill="none" />
<path d="M182.17576639253136,163.81999310002988 L-231.96624124484853,78.84581740800671" stroke="#0d6d4d" stroke-width="0.1" fill="none" />
<path d="M180.58863334762245,165.5679483041268 L-243.0799202983884,30.612944120569917" stroke="#0d6d4d" stroke-width="0.1" fill="none" />
<path d="M178.98472958705756,167.3005277177806 L-244.27227801791054,-18.86939829301985" stroke="#0d6d4d" stroke-width="0.1" fill="none" />
<path d="M177.36420406048785,169.01757044162488 L-235.49464825252116,-67.58158509846699" stroke="#0d6d4d" stroke-width="0.1" fill="none" />
<path d="M175.72720726117686,170.7189170191382 L-217.1052904806114,-113.53542550820586" stroke="#0d6d4d" stroke-width="0.1" fill="none" />
<path d="M174.0738912120252,172.40440945145232 L-189.85476742804275,-154.85531080606762" stroke="#0d6d4d" stroke-width="0.1" fill="none" />
<path d="M172.40440945145235,174.07389121202516 L-154.8553108060677,-189.85476742804266" stroke="#0d6d4d" stroke-width="0.1" fill="none" />
<path d="M170.71891701913825,175.7272072611768 L-113.53542550820595,-217.10529048061133" stroke="#0d6d4d" stroke-width="0.1" fill="none" />
<path d="M169.01757044162494,177.36420406048782 L-67.58158509846707,-235.49464825252113" stroke="#0d6d4d" stroke-width="0.1" fill="none" />
<path d="M167.30052771778057,178.98472958705761 L-18.869398293019955,-244.27227801791054" stroke="#0d6d4d" stroke-width="0.1" fill="none" />
<path d="M165.56794830412682,180.5886333476224 L30.612944120569747,-243.07992029838843" stroke="#0d6d4d" stroke-width="0.1" fill="none" />
<path d="M163.81999310003002,182.17576639253124 L78.84581740800664,-231.96624124484856" stroke="#0d6d4d" stroke-width="0.1" fill="none" />
<path d="M162.05682443275938,183.74598132957848 L123.86059399133121,-211.38484632564038" stroke="#0d6d4d" stroke-width="0.1" fill="none" />
<path d="M160.2786060424122,185.29913233769128 L163.81999310002996,-182.1757663925313" stroke="#0d6d4d" stroke-width="0.1" fill="none" />
<path d="M158.48550306670748,186.83507518047207 L197.09306949442617,-145.53117177177302" stroke="#0d6d4d" stroke-width="0.1" fill="none" />
<path d="M156.6776820256503,188.3536672195931 L222.32178059216704,-102.94671376167544" stroke="#0d6d4d" stroke-width="0.1" fill="none" />
<path d="M154.85531080606768,189.8547674280427 L238.4764150566003,-56.16047953634397" stroke="#0d6d4d" stroke-width="0.1" fill="none" />
<path d="M153.0185586460171,191.3382364032224 L244.89762052592448,-7.0820520147968065" stroke="#0d6d4d" stroke-width="0.1" fill="none" />
<path d="M151.16759611907054,192.80393637989235 L241.3233151188608,42.285429878895805" stroke="#0d6d4d" stroke-width="0.1" fill="none" />
<path d="M149.30259511847305,194.25173124296555 L227.899384322149,89.92702944935654" stroke="#0d6d4d" stroke-width="0.1" fill="none" />
<path d="M147.4237288411801,195.6814865401482 L205.17372666577174,133.8982519903796" stroke="#0d6d4d" stroke-width="0.1" fill="none" />
<path d="M145.53117177177302,197.09306949442615 L174.0738912120252,172.40440945145232" stroke="#0d6d4d" stroke-width="0.1" fill="none" />
<path d="M143.62509966625535,198.4863490163951 L135.86921958564307,203.873870736758" stroke="#0d6d4d" stroke-width="0.1" fill="none" />
<path d="M141.70568953573067,199.86119571643493 L92.11903772025542,227.0222079213709" stroke="#0d6d4d" stroke-width="0.1" fill="none" />
<path d="M139.77311962996453,201.21748191672518 L44.609011878116064,240.90462025303313" stroke="#0d6d4d" stroke-width="0.1" fill="none" />
<path d="M137.82756942083034,202.55508166310267 L-4.721733424077826,244.95449625077703" stroke="#0d6d4d" stroke-width="0.1" fill="none" />
<path d="M135.86921958564307,203.873870736758 L-53.859760897105424,239.00653998605694" stroke="#0d6d4d" stroke-width="0.1" fill="none" />
<path d="M133.89825199037963,205.17372666577168 L-100.79949904134918,223.30351764585583" stroke="#0d6d4d" stroke-width="0.1" fill="none" />
<path d="M131.91484967278993,206.45452873648773 L-143.6250996662553,198.48634901639514" stroke="#0d6d4d" stroke-width="0.1" fill="none" />
<path d="M129.91919682539861,207.71615800472367 L-180.5886333476224,165.56794830412682" stroke="#0d6d4d" stroke-width="0.1" fill="none" />
<path d="M127.9114787783997,208.95849730681692 L-210.18143127050507,125.89188198244535" stroke="#0d6d4d" stroke-width="0.1" fill="none" />
<path d="M125.89188198244543,210.18143127050504 L-231.195661636188,81.07753104655609" stroke="#0d6d4d" stroke-width="0.1" fill="none" />
<path d="M123.86059399133121,211.38484632564038 L-242.77362738853805,32.95399588230972" stroke="#0d6d4d" stroke-width="0.1" fill="none" />
<path d="M121.81780344457839,212.5686307147366 L-244.4427731701142,-16.514558574303155" stroke="#0d6d4d" stroke-width="0.1" fill="none" />
<path d="M119.7637000499151,213.73267450334765 L-236.13497269705073,-65.30907034526764" stroke="#0d6d4d" stroke-width="0.1" fill="none" />
<path d="M117.69847456565964,214.87686959027667 L-218.18930933736488,-111.43798854467762" stroke="#0d6d4d" stroke-width="0.1" fill="none" />
<path d="M115.62231878300452,216.0011097176153 L-191.33823640322237,-153.0185586460171" stroke="#0d6d4d" stroke-width="0.1" fill="none" />
<path d="M113.53542550820582,217.1052904806114 L-156.67768202565034,-188.35366721959306" stroke="#0d6d4d" stroke-width="0.1" fill="none" />
<path d="M111.43798854467778,218.18930933736482 L-115.62231878300445,-216.00110971761535" stroke="#0d6d4d" stroke-width="0.1" fill="none" />
<path d="M109.33020267499487,219.25306561835012 L-69.84782375595509,-234.8324541381728" stroke="#0d6d4d" stroke-width="0.1" fill="none" />
<path d="M107.21226364280291,220.2964605357656 L-21.22248566826129,-244.07909804418003" stroke="#0d6d4d" stroke-width="0.1" fill="none" />
<path d="M105.08436813464083,221.31939719270719 L28.269049428066456,-243.3636391173372" stroke="#0d6d4d" stroke-width="0.1" fill="none" />
<path d="M102.94671376167545,222.32178059216704 L76.60678159884276,-232.71527885608887" stroke="#0d6d4d" stroke-width="0.1" fill="none" />
<path d="M100.79949904134932,223.30351764585578 L121.81780344457836,-212.56863071473663" stroke="#0d6d4d" stroke-width="0.1" fill="none" />
<path d="M98.64292337894526,224.26451718284713 L162.0568244327594,-183.74598132957846" stroke="#0d6d4d" stroke-width="0.1" fill="none" />
<path d="M96.47718704906852,225.20468995804472 L195.68148654014823,-147.42372884118006" stroke="#0d6d4d" stroke-width="0.1" fill="none" />
<path d="M94.30249117704734,226.12394866047006 L221.31939719270719,-105.08436813464081" stroke="#0d6d4d" stroke-width="0.1" fill="none" />
<path d="M92.11903772025542,227.0222079213709 L237.92414354973496,-58.45598272311488" stroke="#0d6d4d" stroke-width="0.1" fill="none" />
<path d="M89.92702944935662,227.89938432214893 L244.81800190589342,-9.441712916942553" stroke="#0d6d4d" stroke-width="0.1" fill="none" />
<path d="M87.72666992947421,228.75539640210695 L241.7195990243529,39.95792096075637" stroke="#0d6d4d" stroke-width="0.1" fill="none" />
<path d="M85.51816350128679,229.59016466601346 L228.75539640210692,87.72666992947423" stroke="#0d6d4d" stroke-width="0.1" fill="none" />
<path d="M83.30171526205118,230.40361159148557 L206.45452873648776,131.91484967278987" stroke="#0d6d4d" stroke-width="0.1" fill="none" />
<path d="M81.07753104655609,231.195661636188 L175.72720726117686,170.7189170191382" stroke="#0d6d4d" stroke-width="0.1" fill="none" />
<path d="M78.84581740800671,231.96624124484853 L137.82756942083034,202.55508166310267" stroke="#0d6d4d" stroke-width="0.1" fill="none" />
<path d="M76.60678159884286,232.71527885608884 L94.30249117704734,226.12394866047006" stroke="#0d6d4d" stroke-width="0.1" fill="none" />
<path d="M74.36063155149182,233.4427049090703 L46.9284511744428,240.46355330978528" stroke="#0d6d4d" stroke-width="0.1" fill="none" />
<path d="M72.1075758590589,234.14845184995366 L-2.360976340375246,244.988623798576" stroke="#0d6d4d" stroke-width="0.1" fill="none" />
<path d="M69.84782375595506,234.8324541381728 L-51.554040466123055,239.5144691070194" stroke="#0d6d4d" stroke-width="0.1" fill="none" />
<path d="M67.58158509846704,235.49464825252113 L-98.6429233789453,224.2645171828471" stroke="#0d6d4d" stroke-width="0.1" fill="none" />
<path d="M65.30907034526771,236.1349726970507 L-141.7056895357306,199.86119571643496" stroke="#0d6d4d" stroke-width="0.1" fill="none" />
<path d="M63.030490537871955,236.75336800678303 L-178.98472958705756,167.30052771778057" stroke="#0d6d4d" stroke-width="0.1" fill="none" />
<path d="M60.74605728103771,237.3497767532316 L-208.95849730681695,127.91147877839961" stroke="#0d6d4d" stroke-width="0.1" fill="none" />
<path d="M58.45598272311495,237.92414354973496 L-230.40361159148557,83.30171526205119" stroke="#0d6d4d" stroke-width="0.1" fill="none" />
<path d="M56.16047953634404,238.47641505660027 L-242.44478883227447,35.29198730694887" stroke="#0d6d4d" stroke-width="0.1" fill="none" />
<path d="M53.859760897105474,239.00653998605694 L-244.5905676674262,-14.158185198894461" stroke="#0d6d4d" stroke-width="0.1" fill="none" />
<path d="M51.55404046612321,239.51446910701935 L-236.75336800678306,-63.03049053787189" stroke="#0d6d4d" stroke-width="0.1" fill="none" />
<path d="M49.243532368621956,240.00015524965912 L-219.2530656183501,-109.33020267499491" stroke="#0d6d4d" stroke-width="0.1" fill="none" />
<path d="M46.9284511744428,240.46355330978528 L-192.80393637989243,-151.16759611907037" stroke="#0d6d4d" stroke-width="0.1" fill="none" />
<path d="M44.609011878116064,240.90462025303313 L-158.4855030667075,-186.83507518047205" stroke="#0d6d4d" stroke-width="0.1" fill="none" />
<path d="M42.28542987889585,241.3233151188608 L-117.69847456565977,-214.8768695902766" stroke="#0d6d4d" stroke-width="0.1" fill="none" />
<path d="M39.95792096075641,241.7195990243529 L-72.10757585905881,-234.1484518499537" stroke="#0d6d4d" stroke-width="0.1" fill="none" />
<path d="M37.626701272353024,242.09343516783164 L-23.573602175978703,-243.86325118895775" stroke="#0d6d4d" stroke-width="0.1" fill="none" />
<path d="M35.29198730694874,242.4447888322745 L25.922529475152064,-243.62475749728284" stroke="#0d6d4d" stroke-width="0.1" fill="none" />
<path d="M32.953995882309805,242.77362738853802 L74.3606315514918,-233.4427049090703" stroke="#0d6d4d" stroke-width="0.1" fill="none" />
<path d="M30.61294412056979,243.07992029838843 L119.76370004991516,-213.73267450334765" stroke="#0d6d4d" stroke-width="0.1" fill="none" />
<path d="M28.269049428066523,243.3636391173372 L160.27860604241224,-185.29913233769128" stroke="#0d6d4d" stroke-width="0.1" fill="none" />
<path d="M25.92252947515205,243.62475749728284 L194.25173124296555,-149.30259511847305" stroke="#0d6d4d" stroke-width="0.1" fill="none" />
<path d="M23.57360217597867,243.86325118895775 L220.29646053576562,-107.21226364280284" stroke="#0d6d4d" stroke-width="0.1" fill="none" />
<path d="M21.222485668261257,244.07909804418003 L237.34977675323162,-60.74605728103765" stroke="#0d6d4d" stroke-width="0.1" fill="none" />
<path d="M18.869398293019923,244.27227801791054 L244.7156477846223,-11.800496996003094" stroke="#0d6d4d" stroke-width="0.1" fill="none" />
<path d="M16.51455857430312,244.4427731701142 L242.09343516783164,37.626701272352925" stroke="#0d6d4d" stroke-width="0.1" fill="none" />
<path d="M14.158185198894426,244.59056766742623 L229.59016466601346,85.5181635012868" stroke="#0d6d4d" stroke-width="0.1" fill="none" />
<path d="M11.80049699600311,244.7156477846223 L207.7161580047237,129.91919682539856" stroke="#0d6d4d" stroke-width="0.1" fill="none" />
<path d="M9.441712916942569,244.81800190589342 L177.36420406048785,169.01757044162488" stroke="#0d6d4d" stroke-width="0.1" fill="none" />
<path d="M7.082052014796875,244.89762052592448 L139.77311962996453,201.21748191672518" stroke="#0d6d4d" stroke-width="0.1" fill="none" />
<path d="M4.721733424077994,244.95449625077703 L96.47718704906852,225.20468995804472" stroke="#0d6d4d" stroke-width="0.1" fill="none" />
<path d="M2.3609763403754154,244.988623798576 L49.243532368621956,240.00015524965912" stroke="#0d6d4d" stroke-width="0.1" fill="none" />
<path d="M3.0003846579110155e-14,245.0 L3.0003846579110155e-14,245.0" stroke="#0d6d4d" stroke-width="0.1" fill="none" />
<path d="M-2.360976340375246,244.988623798576 L-49.24353236862201,240.00015524965912" stroke="#0d6d4d" stroke-width="0.1" fill="none" />
<path d="M-4.721733424077826,244.95449625077703 L-96.47718704906846,225.20468995804475" stroke="#0d6d4d" stroke-width="0.1" fill="none" />
<path d="M-7.082052014796815,244.89762052592448 L-139.77311962996447,201.2174819167252" stroke="#0d6d4d" stroke-width="0.1" fill="none" />
<path d="M-9.441712916942398,244.81800190589342 L-177.3642040604878,169.01757044162494" stroke="#0d6d4d" stroke-width="0.1" fill="none" />
<path d="M-11.800496996003048,244.7156477846223 L-207.71615800472372,129.91919682539853" stroke="#0d6d4d" stroke-width="0.1" fill="none" />
<path d="M-14.158185198894474,244.5905676674262 L-229.59016466601346,85.5181635012868" stroke="#0d6d4d" stroke-width="0.1" fill="none" />
<path d="M-16.51455857430306,244.4427731701142 L-242.09343516783164,37.626701272353046" stroke="#0d6d4d" stroke-width="0.1" fill="none" />
<path d="M-18.869398293019863,244.27227801791054 L-244.71564778462232,-11.800496996002927" stroke="#0d6d4d" stroke-width="0.1" fill="none" />
<path d="M-21.222485668261196,244.07909804418003 L-237.34977675323162,-60.74605728103765" stroke="#0d6d4d" stroke-width="0.1" fill="none" />
<path d="M-23.573602175978717,243.86325118895775 L-220.29646053576565,-107.21226364280274" stroke="#0d6d4d" stroke-width="0.1" fill="none" />
<path d="M-25.92252947515199,243.62475749728284 L-194.25173124296552,-149.30259511847308" stroke="#0d6d4d" stroke-width="0.1" fill="none" />
<path d="M-28.269049428066463,243.3636391173372 L-160.27860604241224,-185.29913233769128" stroke="#0d6d4d" stroke-width="0.1" fill="none" />
<path d="M-30.61294412056963,243.07992029838843 L-119.76370004991522,-213.7326745033476" stroke="#0d6d4d" stroke-width="0.1" fill="none" />
<path d="M-32.953995882309755,242.77362738853805 L-74.36063155149196,-233.44270490907024" stroke="#0d6d4d" stroke-width="0.1" fill="none" />
<path d="M-35.29198730694869,242.4447888322745 L-25.922529475152082,-243.62475749728284" stroke="#0d6d4d" stroke-width="0.1" fill="none" />
<path d="M-37.62670127235286,242.09343516783167 L23.573602175978664,-243.86325118895775" stroke="#0d6d4d" stroke-width="0.1" fill="none" />
<path d="M-39.957920960756354,241.7195990243529 L72.10757585905885,-234.14845184995366" stroke="#0d6d4d" stroke-width="0.1" fill="none" />
<path d="M-42.28542987889579,241.3233151188608 L117.69847456565967,-214.87686959027667" stroke="#0d6d4d" stroke-width="0.1" fill="none" />
<path d="M-44.609011878116114,240.90462025303313 L158.48550306670745,-186.8350751804721" stroke="#0d6d4d" stroke-width="0.1" fill="none" />
<path d="M-46.92845117444274,240.46355330978528 L192.80393637989235,-151.16759611907054" stroke="#0d6d4d" stroke-width="0.1" fill="none" />
<path d="M-49.24353236862201,240.00015524965912 L219.25306561835015,-109.33020267499482" stroke="#0d6d4d" stroke-width="0.1" fill="none" />
<path d="M-51.554040466123055,239.5144691070194 L236.75336800678303,-63.03049053787194" stroke="#0d6d4d" stroke-width="0.1" fill="none" />
<path d="M-53.859760897105424,239.00653998605694 L244.5905676674262,-14.158185198894465" stroke="#0d6d4d" stroke-width="0.1" fill="none" />
<path d="M-56.16047953634388,238.4764150566003 L242.4447888322745,35.291987306948755" stroke="#0d6d4d" stroke-width="0.1" fill="none" />
<path d="M-58.45598272311489,237.92414354973496 L230.4036115914856,83.30171526205115" stroke="#0d6d4d" stroke-width="0.1" fill="none" />
<path d="M-60.74605728103755,237.34977675323165 L208.95849730681695,127.91147877839964" stroke="#0d6d4d" stroke-width="0.1" fill="none" />
<path d="M-63.030490537871906,236.75336800678306 L178.98472958705756,167.3005277177806" stroke="#0d6d4d" stroke-width="0.1" fill="none" />
<path d="M-65.30907034526777,236.13497269705067 L141.70568953573067,199.86119571643493" stroke="#0d6d4d" stroke-width="0.1" fill="none" />
<path d="M-67.581585098467,235.49464825252116 L98.64292337894526,224.26451718284713" stroke="#0d6d4d" stroke-width="0.1" fill="none" />
<path d="M-69.84782375595512,234.83245413817278 L51.55404046612321,239.51446910701935" stroke="#0d6d4d" stroke-width="0.1" fill="none" />
<path d="M-72.10757585905873,234.14845184995372 L2.3609763403754154,244.988623798576" stroke="#0d6d4d" stroke-width="0.1" fill="none" />
<path d="M-74.36063155149176,233.44270490907033 L-46.92845117444274,240.46355330978528" stroke="#0d6d4d" stroke-width="0.1" fill="none" />
<path d="M-76.60678159884269,232.7152788560889 L-94.3024911770474,226.12394866047003" stroke="#0d6d4d" stroke-width="0.1" fill="none" />
<path d="M-78.84581740800667,231.96624124484856 L-137.82756942083032,202.55508166310273" stroke="#0d6d4d" stroke-width="0.1" fill="none" />
<path d="M-81.07753104655593,231.19566163618808 L-175.7272072611769,170.7189170191382" stroke="#0d6d4d" stroke-width="0.1" fill="none" />
<path d="M-83.30171526205113,230.4036115914856 L-206.45452873648765,131.91484967279004" stroke="#0d6d4d" stroke-width="0.1" fill="none" />
<path d="M-85.51816350128684,229.59016466601346 L-228.75539640210692,87.72666992947423" stroke="#0d6d4d" stroke-width="0.1" fill="none" />
<path d="M-87.72666992947416,228.75539640210695 L-241.7195990243529,39.95792096075643" stroke="#0d6d4d" stroke-width="0.1" fill="none" />
<path d="M-89.92702944935658,227.89938432214896 L-244.81800190589342,-9.441712916942603" stroke="#0d6d4d" stroke-width="0.1" fill="none" />
<path d="M-92.11903772025538,227.02220792137092 L-237.92414354973496,-58.45598272311487" stroke="#0d6d4d" stroke-width="0.1" fill="none" />
<path d="M-94.3024911770474,226.12394866047003 L-221.3193971927072,-105.08436813464077" stroke="#0d6d4d" stroke-width="0.1" fill="none" />
<path d="M-96.47718704906846,225.20468995804475 L-195.68148654014834,-147.42372884117992" stroke="#0d6d4d" stroke-width="0.1" fill="none" />
<path d="M-98.6429233789453,224.2645171828471 L-162.0568244327594,-183.74598132957846" stroke="#0d6d4d" stroke-width="0.1" fill="none" />
<path d="M-100.79949904134918,223.30351764585583 L-121.8178034445784,-212.5686307147366" stroke="#0d6d4d" stroke-width="0.1" fill="none" />
<path d="M-102.94671376167541,222.32178059216707 L-76.60678159884266,-232.7152788560889" stroke="#0d6d4d" stroke-width="0.1" fill="none" />
<path d="M-105.08436813464067,221.31939719270724 L-28.269049428066445,-243.3636391173372" stroke="#0d6d4d" stroke-width="0.1" fill="none" />
<path d="M-107.21226364280275,220.29646053576565 L21.22248566826123,-244.07909804418003" stroke="#0d6d4d" stroke-width="0.1" fill="none" />
<path d="M-109.33020267499482,219.25306561835012 L69.8478237559551,-234.8324541381728" stroke="#0d6d4d" stroke-width="0.1" fill="none" />
<path d="M-111.43798854467774,218.18930933736482 L115.62231878300452,-216.0011097176153" stroke="#0d6d4d" stroke-width="0.1" fill="none" />
<path d="M-113.53542550820586,217.10529048061136 L156.6776820256503,-188.3536672195931" stroke="#0d6d4d" stroke-width="0.1" fill="none" />
<path d="M-115.62231878300447,216.00110971761532 L191.33823640322237,-153.01855864601717" stroke="#0d6d4d" stroke-width="0.1" fill="none" />
<path d="M-117.6984745656597,214.87686959027664 L218.18930933736482,-111.43798854467778" stroke="#0d6d4d" stroke-width="0.1" fill="none" />
<path d="M-119.76370004991506,213.7326745033477 L236.13497269705067,-65.30907034526776" stroke="#0d6d4d" stroke-width="0.1" fill="none" />
<path d="M-121.81780344457835,212.56863071473666 L244.4427731701142,-16.51455857430316" stroke="#0d6d4d" stroke-width="0.1" fill="none" />
<path d="M-123.86059399133119,211.3848463256404 L242.77362738853802,32.95399588230982" stroke="#0d6d4d" stroke-width="0.1" fill="none" />
<path d="M-125.89188198244538,210.18143127050507 L231.19566163618802,81.07753104655605" stroke="#0d6d4d" stroke-width="0.1" fill="none" />
<path d="M-127.91147877839953,208.958497306817 L210.18143127050507,125.89188198244538" stroke="#0d6d4d" stroke-width="0.1" fill="none" />
<path d="M-129.91919682539856,207.7161580047237 L180.58863334762245,165.5679483041268" stroke="#0d6d4d" stroke-width="0.1" fill="none" />
<path d="M-131.91484967278998,206.45452873648767 L143.62509966625535,198.4863490163951" stroke="#0d6d4d" stroke-width="0.1" fill="none" />
<path d="M-133.8982519903796,205.17372666577174 L100.79949904134932,223.30351764585578" stroke="#0d6d4d" stroke-width="0.1" fill="none" />
<path d="M-135.86921958564312,203.87387073675794 L53.859760897105474,239.00653998605694" stroke="#0d6d4d" stroke-width="0.1" fill="none" />
<path d="M-137.82756942083032,202.55508166310273 L4.721733424077994,244.95449625077703" stroke="#0d6d4d" stroke-width="0.1" fill="none" />
<path d="M-139.77311962996447,201.2174819167252 L-44.609011878116114,240.90462025303313" stroke="#0d6d4d" stroke-width="0.1" fill="none" />
<path d="M-141.7056895357306,199.86119571643496 L-92.11903772025538,227.02220792137092" stroke="#0d6d4d" stroke-width="0.1" fill="none" />
<path d="M-143.6250996662553,198.48634901639514 L-135.86921958564312,203.87387073675794" stroke="#0d6d4d" stroke-width="0.1" fill="none" />
<path d="M-145.53117177177288,197.09306949442626 L-174.07389121202513,172.40440945145235" stroke="#0d6d4d" stroke-width="0.1" fill="none" />
<path d="M-147.42372884118004,195.68148654014823 L-205.17372666577174,133.89825199037958" stroke="#0d6d4d" stroke-width="0.1" fill="none" />
<path d="M-149.3025951184729,194.2517312429656 L-227.899384322149,89.92702944935654" stroke="#0d6d4d" stroke-width="0.1" fill="none" />
<path d="M-151.16759611907048,192.80393637989238 L-241.3233151188608,42.28542987889586" stroke="#0d6d4d" stroke-width="0.1" fill="none" />
<path d="M-153.01855864601714,191.33823640322237 L-244.89762052592448,-7.082052014796691" stroke="#0d6d4d" stroke-width="0.1" fill="none" />
<path d="M-154.85531080606762,189.85476742804272 L-238.4764150566003,-56.16047953634396" stroke="#0d6d4d" stroke-width="0.1" fill="none" />
<path d="M-156.67768202565028,188.3536672195931 L-222.32178059216707,-102.9467137616754" stroke="#0d6d4d" stroke-width="0.1" fill="none" />
<path d="M-158.48550306670742,186.8350751804721 L-197.09306949442615,-145.53117177177305" stroke="#0d6d4d" stroke-width="0.1" fill="none" />
<path d="M-160.27860604241224,185.29913233769125 L-163.81999310002993,-182.1757663925313" stroke="#0d6d4d" stroke-width="0.1" fill="none" />
<path d="M-162.05682443275933,183.7459813295785 L-123.86059399133124,-211.38484632564038" stroke="#0d6d4d" stroke-width="0.1" fill="none" />
<path d="M-163.81999310002996,182.1757663925313 L-78.84581740800672,-231.96624124484853" stroke="#0d6d4d" stroke-width="0.1" fill="none" />
<path d="M-165.56794830412667,180.5886333476225 L-30.61294412056993,-243.0799202983884" stroke="#0d6d4d" stroke-width="0.1" fill="none" />
<path d="M-167.3005277177805,178.98472958705764 L18.86939829301987,-244.27227801791054" stroke="#0d6d4d" stroke-width="0.1" fill="none" />
<path d="M-169.0175704416248,177.36420406048794 L67.58158509846706,-235.49464825252113" stroke="#0d6d4d" stroke-width="0.1" fill="none" />
<path d="M-170.7189170191382,175.72720726117686 L113.5354255082058,-217.1052904806114" stroke="#0d6d4d" stroke-width="0.1" fill="none" />
<path d="M-172.40440945145238,174.0738912120251 L154.85531080606762,-189.85476742804272" stroke="#0d6d4d" stroke-width="0.1" fill="none" />
<path d="M-174.07389121202513,172.40440945145235 L189.85476742804272,-154.85531080606765" stroke="#0d6d4d" stroke-width="0.1" fill="none" />
<path d="M-175.7272072611769,170.7189170191382 L217.1052904806114,-113.5354255082058" stroke="#0d6d4d" stroke-width="0.1" fill="none" />
<path d="M-177.3642040604878,169.01757044162494 L235.49464825252113,-67.58158509846709" stroke="#0d6d4d" stroke-width="0.1" fill="none" />
<path d="M-178.98472958705756,167.30052771778057 L244.27227801791054,-18.869398293019906" stroke="#0d6d4d" stroke-width="0.1" fill="none" />
<path d="M-180.5886333476224,165.56794830412682 L243.07992029838843,30.612944120569693" stroke="#0d6d4d" stroke-width="0.1" fill="none" />
<path d="M-182.17576639253124,163.81999310003002 L231.9662412448486,78.84581740800657" stroke="#0d6d4d" stroke-width="0.1" fill="none" />
<path d="M-183.7459813295784,162.05682443275947 L211.3848463256404,123.86059399133119" stroke="#0d6d4d" stroke-width="0.1" fill="none" />
<path d="M-185.29913233769128,160.27860604241224 L182.17576639253136,163.81999310002988" stroke="#0d6d4d" stroke-width="0.1" fill="none" />
<path d="M-186.83507518047205,158.4855030667075 L145.53117177177302,197.09306949442615" stroke="#0d6d4d" stroke-width="0.1" fill="none" />
<path d="M-188.35366721959306,156.67768202565034 L102.94671376167545,222.32178059216704" stroke="#0d6d4d" stroke-width="0.1" fill="none" />
<path d="M-189.85476742804266,154.8553108060677 L56.16047953634404,238.47641505660027" stroke="#0d6d4d" stroke-width="0.1" fill="none" />
<path d="M-191.33823640322234,153.01855864601723 L7.082052014796875,244.89762052592448" stroke="#0d6d4d" stroke-width="0.1" fill="none" />
<path d="M-192.80393637989238,151.16759611907048 L-42.28542987889579,241.3233151188608" stroke="#0d6d4d" stroke-width="0.1" fill="none" />
<path d="M-194.25173124296543,149.30259511847316 L-89.92702944935658,227.89938432214896" stroke="#0d6d4d" stroke-width="0.1" fill="none" />
<path d="M-195.68148654014826,147.42372884118004 L-133.8982519903796,205.17372666577174" stroke="#0d6d4d" stroke-width="0.1" fill="none" />
<path d="M-197.09306949442606,145.53117177177313 L-172.40440945145238,174.0738912120251" stroke="#0d6d4d" stroke-width="0.1" fill="none" />
<path d="M-198.48634901639517,143.62509966625527 L-203.8738707367579,135.86921958564318" stroke="#0d6d4d" stroke-width="0.1" fill="none" />
<path d="M-199.86119571643493,141.7056895357307 L-227.02220792137095,92.11903772025533" stroke="#0d6d4d" stroke-width="0.1" fill="none" />
<path d="M-201.21748191672518,139.77311962996455 L-240.90462025303313,44.609011878116085" stroke="#0d6d4d" stroke-width="0.1" fill="none" />
<path d="M-202.55508166310273,137.8275694208303 L-244.95449625077703,-4.721733424078027" stroke="#0d6d4d" stroke-width="0.1" fill="none" />
<path d="M-203.8738707367579,135.86921958564318 L-239.00653998605694,-53.8597608971055" stroke="#0d6d4d" stroke-width="0.1" fill="none" />
<path d="M-205.17372666577174,133.89825199037958 L-223.3035176458559,-100.79949904134905" stroke="#0d6d4d" stroke-width="0.1" fill="none" />
<path d="M-206.45452873648765,131.91484967279004 L-198.48634901639522,-143.62509966625518" stroke="#0d6d4d" stroke-width="0.1" fill="none" />
<path d="M-207.71615800472372,129.91919682539853 L-165.5679483041269,-180.58863334762228" stroke="#0d6d4d" stroke-width="0.1" fill="none" />
<path d="M-208.95849730681695,127.91147877839961 L-125.89188198244535,-210.18143127050507" stroke="#0d6d4d" stroke-width="0.1" fill="none" />
<path d="M-210.18143127050507,125.89188198244535 L-81.0775310465561,-231.195661636188" stroke="#0d6d4d" stroke-width="0.1" fill="none" />
<path d="M-211.38484632564038,123.86059399133124 L-32.953995882309734,-242.77362738853805" stroke="#0d6d4d" stroke-width="0.1" fill="none" />
<path d="M-212.5686307147366,121.8178034445784 L16.514558574303148,-244.4427731701142" stroke="#0d6d4d" stroke-width="0.1" fill="none" />
<path d="M-213.7326745033476,119.76370004991522 L65.3090703452677,-236.1349726970507" stroke="#0d6d4d" stroke-width="0.1" fill="none" />
<path d="M-214.8768695902766,117.69847456565977 L111.43798854467774,-218.18930933736482" stroke="#0d6d4d" stroke-width="0.1" fill="none" />
<path d="M-216.00110971761535,115.62231878300443 L153.0185586460171,-191.33823640322237" stroke="#0d6d4d" stroke-width="0.1" fill="none" />
<path d="M-217.10529048061133,113.53542550820593 L188.3536672195931,-156.6776820256503" stroke="#0d6d4d" stroke-width="0.1" fill="none" />
<path d="M-218.18930933736482,111.4379885446777 L216.00110971761526,-115.62231878300456" stroke="#0d6d4d" stroke-width="0.1" fill="none" />
<path d="M-219.25306561835015,109.3302026749948 L234.8324541381728,-69.8478237559551" stroke="#0d6d4d" stroke-width="0.1" fill="none" />
<path d="M-220.29646053576562,107.21226364280282 L244.07909804418003,-21.222485668261243" stroke="#0d6d4d" stroke-width="0.1" fill="none" />
<path d="M-221.31939719270719,105.08436813464084 L243.3636391173372,28.269049428066424" stroke="#0d6d4d" stroke-width="0.1" fill="none" />
<path d="M-222.32178059216702,102.94671376167547 L232.7152788560889,76.6067815988427" stroke="#0d6d4d" stroke-width="0.1" fill="none" />
<path d="M-223.30351764585575,100.79949904134934 L212.56863071473666,121.81780344457835" stroke="#0d6d4d" stroke-width="0.1" fill="none" />
<path d="M-224.26451718284707,98.64292337894535 L183.7459813295785,162.05682443275933" stroke="#0d6d4d" stroke-width="0.1" fill="none" />
<path d="M-225.20468995804467,96.47718704906863 L147.4237288411801,195.6814865401482" stroke="#0d6d4d" stroke-width="0.1" fill="none" />
<path d="M-226.12394866047,94.30249117704747 L105.08436813464083,221.31939719270719" stroke="#0d6d4d" stroke-width="0.1" fill="none" />
<path d="M-227.02220792137095,92.11903772025533 L58.45598272311495,237.92414354973496" stroke="#0d6d4d" stroke-width="0.1" fill="none" />
<path d="M-227.899384322149,89.92702944935654 L9.441712916942569,244.81800190589342" stroke="#0d6d4d" stroke-width="0.1" fill="none" />
<path d="M-228.75539640210692,87.72666992947423 L-39.957920960756354,241.7195990243529" stroke="#0d6d4d" stroke-width="0.1" fill="none" />
<path d="M-229.59016466601346,85.5181635012868 L-87.72666992947416,228.75539640210695" stroke="#0d6d4d" stroke-width="0.1" fill="none" />
<path d="M-230.40361159148557,83.30171526205119 L-131.91484967278998,206.45452873648767" stroke="#0d6d4d" stroke-width="0.1" fill="none" />
<path d="M-231.195661636188,81.07753104655609 L-170.7189170191382,175.72720726117686" stroke="#0d6d4d" stroke-width="0.1" fill="none" />
<path d="M-231.96624124484853,78.84581740800671 L-202.55508166310273,137.8275694208303" stroke="#0d6d4d" stroke-width="0.1" fill="none" />
<path d="M-232.71527885608884,76.60678159884287 L-226.12394866047,94.30249117704747" stroke="#0d6d4d" stroke-width="0.1" fill="none" />
<path d="M-233.44270490907033,74.36063155149174 L-240.46355330978523,46.92845117444303" stroke="#0d6d4d" stroke-width="0.1" fill="none" />
<path d="M-234.1484518499536,72.107575859059 L-244.988623798576,-2.360976340375231" stroke="#0d6d4d" stroke-width="0.1" fill="none" />
<path d="M-234.8324541381728,69.84782375595508 L-239.5144691070194,-51.554040466123034" stroke="#0d6d4d" stroke-width="0.1" fill="none" />
<path d="M-235.49464825252113,67.58158509846706 L-224.2645171828471,-98.64292337894528" stroke="#0d6d4d" stroke-width="0.1" fill="none" />
<path d="M-236.1349726970507,65.30907034526773 L-199.861195716435,-141.70568953573058" stroke="#0d6d4d" stroke-width="0.1" fill="none" />
<path d="M-236.75336800678303,63.03049053787197 L-167.30052771778065,-178.98472958705753" stroke="#0d6d4d" stroke-width="0.1" fill="none" />
<path d="M-237.3497767532316,60.74605728103772 L-127.9114787783998,-208.95849730681684" stroke="#0d6d4d" stroke-width="0.1" fill="none" />
<path d="M-237.92414354973494,58.455982723114964 L-83.3017152620512,-230.40361159148557" stroke="#0d6d4d" stroke-width="0.1" fill="none" />
<path d="M-238.47641505660027,56.16047953634406 L-35.29198730694888,-242.44478883227447" stroke="#0d6d4d" stroke-width="0.1" fill="none" />
<path d="M-239.00653998605696,53.85976089710539 L14.158185198894431,-244.59056766742623" stroke="#0d6d4d" stroke-width="0.1" fill="none" />
<path d="M-239.51446910701932,51.55404046612335 L63.03049053787193,-236.75336800678303" stroke="#0d6d4d" stroke-width="0.1" fill="none" />
<path d="M-240.00015524965912,49.24353236862198 L109.33020267499482,-219.25306561835015" stroke="#0d6d4d" stroke-width="0.1" fill="none" />
<path d="M-240.46355330978523,46.92845117444303 L151.16759611907054,-192.80393637989235" stroke="#0d6d4d" stroke-width="0.1" fill="none" />
<path d="M-240.90462025303313,44.609011878116085 L186.83507518047207,-158.48550306670748" stroke="#0d6d4d" stroke-width="0.1" fill="none" />
<path d="M-241.3233151188608,42.28542987889586 L214.87686959027664,-117.6984745656597" stroke="#0d6d4d" stroke-width="0.1" fill="none" />
<path d="M-241.7195990243529,39.95792096075643 L234.1484518499537,-72.10757585905883" stroke="#0d6d4d" stroke-width="0.1" fill="none" />
<path d="M-242.09343516783164,37.626701272353046 L243.86325118895775,-23.573602175978653" stroke="#0d6d4d" stroke-width="0.1" fill="none" />
<path d="M-242.44478883227447,35.29198730694887 L243.62475749728284,25.922529475152007" stroke="#0d6d4d" stroke-width="0.1" fill="none" />
<path d="M-242.77362738853805,32.95399588230972 L233.4427049090703,74.36063155149178" stroke="#0d6d4d" stroke-width="0.1" fill="none" />
<path d="M-243.0799202983884,30.612944120569917 L213.73267450334765,119.76370004991516" stroke="#0d6d4d" stroke-width="0.1" fill="none" />
<path d="M-243.3636391173372,28.269049428066428 L185.29913233769133,160.27860604241215" stroke="#0d6d4d" stroke-width="0.1" fill="none" />
<path d="M-243.62475749728281,25.92252947515228 L149.30259511847305,194.25173124296555" stroke="#0d6d4d" stroke-width="0.1" fill="none" />
<path d="M-243.86325118895775,23.573602175978685 L107.21226364280291,220.2964605357656" stroke="#0d6d4d" stroke-width="0.1" fill="none" />
<path d="M-244.07909804418003,21.22248566826127 L60.74605728103771,237.3497767532316" stroke="#0d6d4d" stroke-width="0.1" fill="none" />
<path d="M-244.27227801791054,18.869398293019938 L11.80049699600311,244.7156477846223" stroke="#0d6d4d" stroke-width="0.1" fill="none" />
<path d="M-244.4427731701142,16.514558574303027 L-37.62670127235286,242.09343516783167" stroke="#0d6d4d" stroke-width="0.1" fill="none" />
<path d="M-244.5905676674262,14.158185198894548 L-85.51816350128684,229.59016466601346" stroke="#0d6d4d" stroke-width="0.1" fill="none" />
<path d="M-244.7156477846223,11.800496996003014 L-129.91919682539856,207.7161580047237" stroke="#0d6d4d" stroke-width="0.1" fill="none" />
<path d="M-244.81800190589342,9.441712916942691 L-169.0175704416248,177.36420406048794" stroke="#0d6d4d" stroke-width="0.1" fill="none" />
<path d="M-244.89762052592448,7.082052014796782 L-201.21748191672518,139.77311962996455" stroke="#0d6d4d" stroke-width="0.1" fill="none" />
<path d="M-244.95449625077703,4.7217334240779 L-225.20468995804467,96.47718704906863" stroke="#0d6d4d" stroke-width="0.1" fill="none" />
<path d="M-244.988623798576,2.3609763403753212 L-240.00015524965912,49.24353236862198" stroke="#0d6d4d" stroke-width="0.1" fill="none" />
<path d="M-245.0,4.500576986866523e-14 L-245.0,4.500576986866523e-14" stroke="#0d6d4d" stroke-width="0.1" fill="none" />
<path d="M-244.988623798576,-2.360976340375231 L-240.00015524965914,-49.243532368621885" stroke="#0d6d4d" stroke-width="0.1" fill="none" />
<path d="M-244.95449625077703,-4.721733424078027 L-225.20468995804478,-96.47718704906836" stroke="#0d6d4d" stroke-width="0.1" fill="none" />
<path d="M-244.89762052592448,-7.082052014796691 L-201.21748191672523,-139.77311962996447" stroke="#0d6d4d" stroke-width="0.1" fill="none" />
<path d="M-244.81800190589342,-9.441712916942603 L-169.01757044162494,-177.3642040604878" stroke="#0d6d4d" stroke-width="0.1" fill="none" />
<path d="M-244.71564778462232,-11.800496996002927 L-129.91919682539853,-207.71615800472372" stroke="#0d6d4d" stroke-width="0.1" fill="none" />
<path d="M-244.5905676674262,-14.158185198894461 L-85.51816350128682,-229.59016466601346" stroke="#0d6d4d" stroke-width="0.1" fill="none" />
<path d="M-244.4427731701142,-16.514558574303155 L-37.62670127235306,-242.09343516783164" stroke="#0d6d4d" stroke-width="0.1" fill="none" />
<path d="M-244.27227801791054,-18.86939829301985 L11.80049699600309,-244.7156477846223" stroke="#0d6d4d" stroke-width="0.1" fill="none" />
<path d="M-244.07909804418003,-21.222485668261182 L60.746057281037665,-237.34977675323162" stroke="#0d6d4d" stroke-width="0.1" fill="none" />
<path d="M-243.86325118895775,-23.573602175978596 L107.21226364280282,-220.29646053576562" stroke="#0d6d4d" stroke-width="0.1" fill="none" />
<path d="M-243.62475749728284,-25.922529475151975 L149.30259511847302,-194.25173124296555" stroke="#0d6d4d" stroke-width="0.1" fill="none" />
<path d="M-243.36363911733721,-28.269049428066342 L185.29913233769128,-160.27860604241224" stroke="#0d6d4d" stroke-width="0.1" fill="none" />
<path d="M-243.07992029838843,-30.61294412056982 L213.73267450334765,-119.76370004991516" stroke="#0d6d4d" stroke-width="0.1" fill="none" />
<path d="M-242.77362738853805,-32.953995882309634 L233.4427049090703,-74.3606315514918" stroke="#0d6d4d" stroke-width="0.1" fill="none" />
<path d="M-242.4447888322745,-35.291987306948776 L243.62475749728284,-25.92252947515209" stroke="#0d6d4d" stroke-width="0.1" fill="none" />
<path d="M-242.09343516783164,-37.626701272352946 L243.86325118895775,23.573602175978625" stroke="#0d6d4d" stroke-width="0.1" fill="none" />
<path d="M-241.7195990243529,-39.95792096075633 L234.1484518499537,72.1075758590588" stroke="#0d6d4d" stroke-width="0.1" fill="none" />
<path d="M-241.3233151188608,-42.28542987889577 L214.8768695902767,117.6984745656596" stroke="#0d6d4d" stroke-width="0.1" fill="none" />
<path d="M-240.90462025303316,-44.609011878115986 L186.8350751804721,158.48550306670742" stroke="#0d6d4d" stroke-width="0.1" fill="none" />
<path d="M-240.46355330978528,-46.92845117444272 L151.16759611907054,192.80393637989235" stroke="#0d6d4d" stroke-width="0.1" fill="none" />
<path d="M-240.00015524965914,-49.243532368621885 L109.33020267499487,219.25306561835012" stroke="#0d6d4d" stroke-width="0.1" fill="none" />
<path d="M-239.5144691070194,-51.554040466123034 L63.030490537871955,236.75336800678303" stroke="#0d6d4d" stroke-width="0.1" fill="none" />
<path d="M-239.00653998605694,-53.8597608971055 L14.158185198894426,244.59056766742623" stroke="#0d6d4d" stroke-width="0.1" fill="none" />
<path d="M-238.4764150566003,-56.16047953634396 L-35.29198730694869,242.4447888322745" stroke="#0d6d4d" stroke-width="0.1" fill="none" />
<path d="M-237.92414354973496,-58.45598272311487 L-83.30171526205113,230.4036115914856" stroke="#0d6d4d" stroke-width="0.1" fill="none" />
<path d="M-237.34977675323162,-60.74605728103765 L-127.91147877839953,208.958497306817" stroke="#0d6d4d" stroke-width="0.1" fill="none" />
<path d="M-236.75336800678306,-63.03049053787189 L-167.3005277177805,178.98472958705764" stroke="#0d6d4d" stroke-width="0.1" fill="none" />
<path d="M-236.13497269705073,-65.30907034526764 L-199.86119571643493,141.7056895357307" stroke="#0d6d4d" stroke-width="0.1" fill="none" />
<path d="M-235.49464825252116,-67.58158509846699 L-224.26451718284707,98.64292337894535" stroke="#0d6d4d" stroke-width="0.1" fill="none" />
<path d="M-234.83245413817284,-69.84782375595499 L-239.51446910701932,51.55404046612335" stroke="#0d6d4d" stroke-width="0.1" fill="none" />
<path d="M-234.14845184995372,-72.10757585905871 L-244.988623798576,2.3609763403753212" stroke="#0d6d4d" stroke-width="0.1" fill="none" />
<path d="M-233.4427049090703,-74.36063155149186 L-240.46355330978528,-46.92845117444272" stroke="#0d6d4d" stroke-width="0.1" fill="none" />
<path d="M-232.71527885608893,-76.60678159884257 L-226.12394866047006,-94.30249117704739" stroke="#0d6d4d" stroke-width="0.1" fill="none" />
<path d="M-231.96624124484856,-78.84581740800665 L-202.55508166310267,-137.82756942083037" stroke="#0d6d4d" stroke-width="0.1" fill="none" />
<path d="M-231.19566163618802,-81.07753104655602 L-170.71891701913825,-175.7272072611768" stroke="#0d6d4d" stroke-width="0.1" fill="none" />
<path d="M-230.4036115914856,-83.30171526205112 L-131.91484967279004,-206.45452873648765" stroke="#0d6d4d" stroke-width="0.1" fill="none" />
<path d="M-229.5901646660135,-85.51816350128674 L-87.72666992947424,-228.75539640210692" stroke="#0d6d4d" stroke-width="0.1" fill="none" />
<path d="M-228.75539640210695,-87.72666992947416 L-39.95792096075645,-241.7195990243529" stroke="#0d6d4d" stroke-width="0.1" fill="none" />
<path d="M-227.89938432214893,-89.92702944935665 L9.441712916942526,-244.81800190589342" stroke="#0d6d4d" stroke-width="0.1" fill="none" />
<path d="M-227.02220792137098,-92.11903772025526 L58.45598272311487,-237.92414354973496" stroke="#0d6d4d" stroke-width="0.1" fill="none" />
<path d="M-226.12394866047006,-94.30249117704739 L105.08436813464081,-221.31939719270719" stroke="#0d6d4d" stroke-width="0.1" fill="none" />
<path d="M-225.20468995804478,-96.47718704906836 L147.42372884118004,-195.68148654014823" stroke="#0d6d4d" stroke-width="0.1" fill="none" />
<path d="M-224.2645171828471,-98.64292337894528 L183.7459813295784,-162.05682443275944" stroke="#0d6d4d" stroke-width="0.1" fill="none" />
<path d="M-223.3035176458559,-100.79949904134905 L212.5686307147366,-121.81780344457839" stroke="#0d6d4d" stroke-width="0.1" fill="none" />
<path d="M-222.32178059216707,-102.9467137616754 L232.71527885608887,-76.60678159884279" stroke="#0d6d4d" stroke-width="0.1" fill="none" />
<path d="M-221.3193971927072,-105.08436813464077 L243.3636391173372,-28.269049428066506" stroke="#0d6d4d" stroke-width="0.1" fill="none" />
<path d="M-220.29646053576565,-107.21226364280274 L244.07909804418003,21.222485668261214" stroke="#0d6d4d" stroke-width="0.1" fill="none" />
<path d="M-219.2530656183501,-109.33020267499491 L234.8324541381728,69.84782375595508" stroke="#0d6d4d" stroke-width="0.1" fill="none" />
<path d="M-218.18930933736488,-111.43798854467762 L216.00110971761532,115.62231878300449" stroke="#0d6d4d" stroke-width="0.1" fill="none" />
<path d="M-217.1052904806114,-113.53542550820586 L188.3536672195931,156.67768202565028" stroke="#0d6d4d" stroke-width="0.1" fill="none" />
<path d="M-216.00110971761538,-115.62231878300436 L153.0185586460171,191.3382364032224" stroke="#0d6d4d" stroke-width="0.1" fill="none" />
<path d="M-214.87686959027667,-117.69847456565967 L111.43798854467778,218.18930933736482" stroke="#0d6d4d" stroke-width="0.1" fill="none" />
<path d="M-213.73267450334765,-119.76370004991513 L65.30907034526771,236.1349726970507" stroke="#0d6d4d" stroke-width="0.1" fill="none" />
<path d="M-212.56863071473666,-121.81780344457832 L16.51455857430312,244.4427731701142" stroke="#0d6d4d" stroke-width="0.1" fill="none" />
<path d="M-211.3848463256404,-123.86059399133116 L-32.953995882309755,242.77362738853805" stroke="#0d6d4d" stroke-width="0.1" fill="none" />
<path d="M-210.18143127050513,-125.89188198244527 L-81.07753104655593,231.19566163618808" stroke="#0d6d4d" stroke-width="0.1" fill="none" />
<path d="M-208.9584973068169,-127.9114787783997 L-125.89188198244538,210.18143127050507" stroke="#0d6d4d" stroke-width="0.1" fill="none" />
<path d="M-207.71615800472378,-129.91919682539844 L-165.56794830412667,180.5886333476225" stroke="#0d6d4d" stroke-width="0.1" fill="none" />
<path d="M-206.4545287364877,-131.91484967278996 L-198.48634901639517,143.62509966625527" stroke="#0d6d4d" stroke-width="0.1" fill="none" />
<path d="M-205.1737266657718,-133.89825199037946 L-223.30351764585575,100.79949904134934" stroke="#0d6d4d" stroke-width="0.1" fill="none" />
<path d="M-203.87387073675797,-135.8692195856431 L-239.00653998605696,53.85976089710539" stroke="#0d6d4d" stroke-width="0.1" fill="none" />
<path d="M-202.55508166310267,-137.82756942083037 L-244.95449625077703,4.7217334240779" stroke="#0d6d4d" stroke-width="0.1" fill="none" />
<path d="M-201.21748191672523,-139.77311962996447 L-240.90462025303316,-44.609011878115986" stroke="#0d6d4d" stroke-width="0.1" fill="none" />
<path d="M-199.861195716435,-141.70568953573058 L-227.02220792137098,-92.11903772025526" stroke="#0d6d4d" stroke-width="0.1" fill="none" />
<path d="M-198.48634901639522,-143.62509966625518 L-203.87387073675797,-135.8692195856431" stroke="#0d6d4d" stroke-width="0.1" fill="none" />
<path d="M-197.09306949442615,-145.53117177177305 L-172.40440945145235,-174.07389121202513" stroke="#0d6d4d" stroke-width="0.1" fill="none" />
<path d="M-195.68148654014834,-147.42372884117992 L-133.89825199037958,-205.17372666577174" stroke="#0d6d4d" stroke-width="0.1" fill="none" />
<path d="M-194.25173124296552,-149.30259511847308 L-89.92702944935655,-227.899384322149" stroke="#0d6d4d" stroke-width="0.1" fill="none" />
<path d="M-192.80393637989243,-151.16759611907037 L-42.285429878895876,-241.3233151188608" stroke="#0d6d4d" stroke-width="0.1" fill="none" />
<path d="M-191.33823640322237,-153.0185586460171 L7.082052014796808,-244.89762052592448" stroke="#0d6d4d" stroke-width="0.1" fill="none" />
<path d="M-189.85476742804275,-154.85531080606762 L56.16047953634394,-238.4764150566003" stroke="#0d6d4d" stroke-width="0.1" fill="none" />
<path d="M-188.35366721959312,-156.67768202565026 L102.94671376167543,-222.32178059216704" stroke="#0d6d4d" stroke-width="0.1" fill="none" />
<path d="M-186.83507518047213,-158.48550306670742 L145.531171771773,-197.0930694944262" stroke="#0d6d4d" stroke-width="0.1" fill="none" />
<path d="M-185.29913233769133,-160.27860604241215 L182.17576639253124,-163.81999310003002" stroke="#0d6d4d" stroke-width="0.1" fill="none" />
<path d="M-183.74598132957854,-162.0568244327593 L211.38484632564038,-123.86059399133121" stroke="#0d6d4d" stroke-width="0.1" fill="none" />
<path d="M-182.17576639253141,-163.81999310002988 L231.96624124484856,-78.84581740800665" stroke="#0d6d4d" stroke-width="0.1" fill="none" />
<path d="M-180.5886333476224,-165.56794830412682 L243.07992029838843,-30.612944120569775" stroke="#0d6d4d" stroke-width="0.1" fill="none" />
<path d="M-178.98472958705756,-167.30052771778057 L244.27227801791054,18.869398293019824" stroke="#0d6d4d" stroke-width="0.1" fill="none" />
<path d="M-177.36420406048785,-169.01757044162485 L235.49464825252113,67.58158509846706" stroke="#0d6d4d" stroke-width="0.1" fill="none" />
<path d="M-175.7272072611769,-170.7189170191382 L217.10529048061142,113.53542550820578" stroke="#0d6d4d" stroke-width="0.1" fill="none" />
<path d="M-174.07389121202522,-172.4044094514523 L189.85476742804272,154.85531080606762" stroke="#0d6d4d" stroke-width="0.1" fill="none" />
<path d="M-172.40440945145235,-174.07389121202513 L154.85531080606768,189.8547674280427" stroke="#0d6d4d" stroke-width="0.1" fill="none" />
<path d="M-170.71891701913825,-175.7272072611768 L113.53542550820582,217.1052904806114" stroke="#0d6d4d" stroke-width="0.1" fill="none" />
<path d="M-169.01757044162494,-177.3642040604878 L67.58158509846704,235.49464825252113" stroke="#0d6d4d" stroke-width="0.1" fill="none" />
<path d="M-167.30052771778065,-178.98472958705753 L18.869398293019923,244.27227801791054" stroke="#0d6d4d" stroke-width="0.1" fill="none" />
<path d="M-165.5679483041269,-180.58863334762228 L-30.61294412056963,243.07992029838843" stroke="#0d6d4d" stroke-width="0.1" fill="none" />
<path d="M-163.81999310002993,-182.1757663925313 L-78.84581740800667,231.96624124484856" stroke="#0d6d4d" stroke-width="0.1" fill="none" />
<path d="M-162.0568244327594,-183.74598132957846 L-123.86059399133119,211.3848463256404" stroke="#0d6d4d" stroke-width="0.1" fill="none" />
<path d="M-160.27860604241224,-185.29913233769128 L-163.81999310002996,182.1757663925313" stroke="#0d6d4d" stroke-width="0.1" fill="none" />
<path d="M-158.4855030667075,-186.83507518047205 L-197.09306949442606,145.53117177177313" stroke="#0d6d4d" stroke-width="0.1" fill="none" />
<path d="M-156.67768202565034,-188.35366721959306 L-222.32178059216702,102.94671376167547" stroke="#0d6d4d" stroke-width="0.1" fill="none" />
<path d="M-154.8553108060677,-189.85476742804266 L-238.47641505660027,56.16047953634406" stroke="#0d6d4d" stroke-width="0.1" fill="none" />
<path d="M-153.01855864601723,-191.33823640322234 L-244.89762052592448,7.082052014796782" stroke="#0d6d4d" stroke-width="0.1" fill="none" />
<path d="M-151.16759611907048,-192.80393637989238 L-241.3233151188608,-42.28542987889577" stroke="#0d6d4d" stroke-width="0.1" fill="none" />
<path d="M-149.30259511847316,-194.25173124296543 L-227.89938432214893,-89.92702944935665" stroke="#0d6d4d" stroke-width="0.1" fill="none" />
<path d="M-147.42372884118004,-195.68148654014826 L-205.1737266657718,-133.89825199037946" stroke="#0d6d4d" stroke-width="0.1" fill="none" />
<path d="M-145.53117177177313,-197.09306949442606 L-174.07389121202522,-172.4044094514523" stroke="#0d6d4d" stroke-width="0.1" fill="none" />
<path d="M-143.62509966625527,-198.48634901639517 L-135.86921958564318,-203.8738707367579" stroke="#0d6d4d" stroke-width="0.1" fill="none" />
<path d="M-141.7056895357307,-199.86119571643493 L-92.11903772025535,-227.02220792137092" stroke="#0d6d4d" stroke-width="0.1" fill="none" />
<path d="M-139.77311962996455,-201.21748191672518 L-44.60901187811609,-240.90462025303313" stroke="#0d6d4d" stroke-width="0.1" fill="none" />
<path d="M-137.82756942083049,-202.55508166310258 L4.721733424077904,-244.95449625077703" stroke="#0d6d4d" stroke-width="0.1" fill="none" />
<path d="M-135.86921958564318,-203.8738707367579 L53.85976089710545,-239.00653998605694" stroke="#0d6d4d" stroke-width="0.1" fill="none" />
<path d="M-133.89825199037958,-205.17372666577174 L100.79949904134926,-223.30351764585578" stroke="#0d6d4d" stroke-width="0.1" fill="none" />
<path d="M-131.91484967279004,-206.45452873648765 L143.62509966625527,-198.4863490163952" stroke="#0d6d4d" stroke-width="0.1" fill="none" />
<path d="M-129.91919682539853,-207.71615800472372 L180.5886333476224,-165.56794830412682" stroke="#0d6d4d" stroke-width="0.1" fill="none" />
<path d="M-127.9114787783998,-208.95849730681684 L210.18143127050507,-125.89188198244538" stroke="#0d6d4d" stroke-width="0.1" fill="none" />
<path d="M-125.89188198244535,-210.18143127050507 L231.19566163618802,-81.07753104655602" stroke="#0d6d4d" stroke-width="0.1" fill="none" />
<path d="M-123.86059399133124,-211.38484632564038 L242.77362738853802,-32.9539958823098" stroke="#0d6d4d" stroke-width="0.1" fill="none" />
<path d="M-121.8178034445784,-212.5686307147366 L244.4427731701142,16.51455857430313" stroke="#0d6d4d" stroke-width="0.1" fill="none" />
<path d="M-119.76370004991522,-213.7326745033476 L236.1349726970507,65.30907034526773" stroke="#0d6d4d" stroke-width="0.1" fill="none" />
<path d="M-117.69847456565977,-214.8768695902766 L218.18930933736482,111.43798854467775" stroke="#0d6d4d" stroke-width="0.1" fill="none" />
<path d="M-115.62231878300445,-216.00110971761535 L191.33823640322237,153.01855864601714" stroke="#0d6d4d" stroke-width="0.1" fill="none" />
<path d="M-113.53542550820595,-217.10529048061133 L156.6776820256503,188.3536672195931" stroke="#0d6d4d" stroke-width="0.1" fill="none" />
<path d="M-111.43798854467771,-218.18930933736482 L115.62231878300452,216.0011097176153" stroke="#0d6d4d" stroke-width="0.1" fill="none" />
<path d="M-109.330202674995,-219.25306561835006 L69.84782375595506,234.8324541381728" stroke="#0d6d4d" stroke-width="0.1" fill="none" />
<path d="M-107.21226364280282,-220.29646053576562 L21.222485668261257,244.07909804418003" stroke="#0d6d4d" stroke-width="0.1" fill="none" />
<path d="M-105.08436813464085,-221.31939719270716 L-28.269049428066463,243.3636391173372" stroke="#0d6d4d" stroke-width="0.1" fill="none" />
<path d="M-102.94671376167548,-222.32178059216702 L-76.60678159884269,232.7152788560889" stroke="#0d6d4d" stroke-width="0.1" fill="none" />
<path d="M-100.79949904134934,-223.30351764585575 L-121.81780344457835,212.56863071473666" stroke="#0d6d4d" stroke-width="0.1" fill="none" />
<path d="M-98.64292337894537,-224.26451718284707 L-162.05682443275933,183.7459813295785" stroke="#0d6d4d" stroke-width="0.1" fill="none" />
<path d="M-96.47718704906843,-225.20468995804475 L-195.68148654014826,147.42372884118004" stroke="#0d6d4d" stroke-width="0.1" fill="none" />
<path d="M-94.30249117704747,-226.12394866047 L-221.31939719270719,105.08436813464084" stroke="#0d6d4d" stroke-width="0.1" fill="none" />
<path d="M-92.11903772025535,-227.02220792137092 L-237.92414354973494,58.455982723114964" stroke="#0d6d4d" stroke-width="0.1" fill="none" />
<path d="M-89.92702944935655,-227.899384322149 L-244.81800190589342,9.441712916942691" stroke="#0d6d4d" stroke-width="0.1" fill="none" />
<path d="M-87.72666992947424,-228.75539640210692 L-241.7195990243529,-39.95792096075633" stroke="#0d6d4d" stroke-width="0.1" fill="none" />
<path d="M-85.51816350128682,-229.59016466601346 L-228.75539640210695,-87.72666992947416" stroke="#0d6d4d" stroke-width="0.1" fill="none" />
<path d="M-83.3017152620512,-230.40361159148557 L-206.4545287364877,-131.91484967278996" stroke="#0d6d4d" stroke-width="0.1" fill="none" />
<path d="M-81.0775310465561,-231.195661636188 L-175.7272072611769,-170.7189170191382" stroke="#0d6d4d" stroke-width="0.1" fill="none" />
<path d="M-78.84581740800672,-231.96624124484853 L-137.82756942083049,-202.55508166310258" stroke="#0d6d4d" stroke-width="0.1" fill="none" />
<path d="M-76.60678159884266,-232.7152788560889 L-94.30249117704747,-226.12394866047" stroke="#0d6d4d" stroke-width="0.1" fill="none" />
<path d="M-74.36063155149196,-233.44270490907024 L-46.92845117444283,-240.46355330978525" stroke="#0d6d4d" stroke-width="0.1" fill="none" />
<path d="M-72.10757585905881,-234.1484518499537 L2.3609763403753004,-244.988623798576" stroke="#0d6d4d" stroke-width="0.1" fill="none" />
<path d="M-69.84782375595509,-234.8324541381728 L51.554040466123176,-239.51446910701938" stroke="#0d6d4d" stroke-width="0.1" fill="none" />
<path d="M-67.58158509846707,-235.49464825252113 L98.64292337894528,-224.2645171828471" stroke="#0d6d4d" stroke-width="0.1" fill="none" />
<path d="M-65.30907034526774,-236.1349726970507 L141.70568953573067,-199.86119571643493" stroke="#0d6d4d" stroke-width="0.1" fill="none" />
<path d="M-63.030490537871984,-236.75336800678303 L178.98472958705756,-167.30052771778057" stroke="#0d6d4d" stroke-width="0.1" fill="none" />
<path d="M-60.746057281037736,-237.3497767532316 L208.95849730681695,-127.91147877839964" stroke="#0d6d4d" stroke-width="0.1" fill="none" />
<path d="M-58.45598272311498,-237.92414354973494 L230.40361159148557,-83.30171526205116" stroke="#0d6d4d" stroke-width="0.1" fill="none" />
<path d="M-56.16047953634408,-238.47641505660027 L242.4447888322745,-35.29198730694873" stroke="#0d6d4d" stroke-width="0.1" fill="none" />
<path d="M-53.85976089710561,-239.0065399860569 L244.59056766742623,14.158185198894435" stroke="#0d6d4d" stroke-width="0.1" fill="none" />
<path d="M-51.55404046612315,-239.51446910701938 L236.75336800678306,63.03049053787192" stroke="#0d6d4d" stroke-width="0.1" fill="none" />
<path d="M-49.24353236862199,-240.00015524965912 L219.25306561835012,109.33020267499484" stroke="#0d6d4d" stroke-width="0.1" fill="none" />
<path d="M-46.92845117444283,-240.46355330978525 L192.80393637989238,151.16759611907048" stroke="#0d6d4d" stroke-width="0.1" fill="none" />
<path d="M-44.60901187811609,-240.90462025303313 L158.48550306670748,186.83507518047207" stroke="#0d6d4d" stroke-width="0.1" fill="none" />
<path d="M-42.285429878895876,-241.3233151188608 L117.69847456565964,214.87686959027667" stroke="#0d6d4d" stroke-width="0.1" fill="none" />
<path d="M-39.95792096075645,-241.7195990243529 L72.1075758590589,234.14845184995366" stroke="#0d6d4d" stroke-width="0.1" fill="none" />
<path d="M-37.62670127235306,-242.09343516783164 L23.57360217597867,243.86325118895775" stroke="#0d6d4d" stroke-width="0.1" fill="none" />
<path d="M-35.29198730694888,-242.44478883227447 L-25.92252947515199,243.62475749728284" stroke="#0d6d4d" stroke-width="0.1" fill="none" />
<path d="M-32.953995882309734,-242.77362738853805 L-74.36063155149176,233.44270490907033" stroke="#0d6d4d" stroke-width="0.1" fill="none" />
<path d="M-30.61294412056993,-243.0799202983884 L-119.76370004991506,213.7326745033477" stroke="#0d6d4d" stroke-width="0.1" fill="none" />
<path d="M-28.269049428066445,-243.3636391173372 L-160.27860604241224,185.29913233769125" stroke="#0d6d4d" stroke-width="0.1" fill="none" />
<path d="M-25.922529475152082,-243.62475749728284 L-194.25173124296543,149.30259511847316" stroke="#0d6d4d" stroke-width="0.1" fill="none" />
<path d="M-23.573602175978703,-243.86325118895775 L-220.29646053576562,107.21226364280282" stroke="#0d6d4d" stroke-width="0.1" fill="none" />
<path d="M-21.22248566826129,-244.07909804418003 L-237.3497767532316,60.74605728103772" stroke="#0d6d4d" stroke-width="0.1" fill="none" />
<path d="M-18.869398293019955,-244.27227801791054 L-244.7156477846223,11.800496996003014" stroke="#0d6d4d" stroke-width="0.1" fill="none" />
<path d="M-16.514558574303262,-244.4427731701142 L-242.09343516783164,-37.626701272352946" stroke="#0d6d4d" stroke-width="0.1" fill="none" />
<path d="M-14.158185198894564,-244.5905676674262 L-229.5901646660135,-85.51816350128674" stroke="#0d6d4d" stroke-width="0.1" fill="none" />
<path d="M-11.80049699600303,-244.7156477846223 L-207.71615800472378,-129.91919682539844" stroke="#0d6d4d" stroke-width="0.1" fill="none" />
<path d="M-9.441712916942707,-244.81800190589342 L-177.36420406048785,-169.01757044162485" stroke="#0d6d4d" stroke-width="0.1" fill="none" />
<path d="M-7.082052014796797,-244.89762052592448 L-139.77311962996455,-201.21748191672518" stroke="#0d6d4d" stroke-width="0.1" fill="none" />
<path d="M-4.721733424078132,-244.95449625077703 L-96.47718704906843,-225.20468995804475" stroke="#0d6d4d" stroke-width="0.1" fill="none" />
<path d="M-2.3609763403753363,-244.988623798576 L-49.24353236862199,-240.00015524965912" stroke="#0d6d4d" stroke-width="0.1" fill="none" />
</svg>