<?xml version="1.0" encoding="UTF-8"?>
<svg xmlns="http://www.w3.org/2000/svg" xmlns:xlink="http://www.w3.org/1999/xlink"
     width="500.0" height="500" viewBox="-250.0 -250.0 500 500">
<defs>
</defs>
<circle cx="0" cy="0" r="245.0" fill="white" stroke-width="2" stroke="black" />
<path d="M0.0,-245.0 L0.0,-245.0" stroke="#0d6d4d" stroke-width="0.1" fill="none" />
<path d="M2.2975490103628236,-244.98922684180417 L47.937960380902126,-240.26433766691022" stroke="#0d6d4d" stroke-width="0.1" fill="none" />
<path d="M4.594895964734208,-244.9569083146529 L94.02271265322476,-226.24042411852292" stroke="#0d6d4d" stroke-width="0.1" fill="none" />
<path d="M6.891838824892355,-244.90304726077156 L136.472690894798,-203.4704023683369" stroke="#0d6d4d" stroke-width="0.1" fill="none" />
<path d="M9.188175588153191,-244.82764841692463 L173.64684397909863,-172.83452657411536" stroke="#0d6d4d" stroke-width="0.1" fill="none" />
<path d="M11.483704305135316,-244.7307184139993 L204.10807609775242,-135.51713276067386" stroke="#0d6d4d" stroke-width="0.1" fill="none" />
<path d="M13.778223097520268,-244.6122657764221 L226.67880268289156,-92.960854203534" stroke="#0d6d4d" stroke-width="0.1" fill="none" />
<path d="M16.071530175806554,-244.47230092140936 L240.48647402251842,-46.8108514365695" stroke="#0d6d4d" stroke-width="0.1" fill="none" />
<path d="M18.36342385705583,-244.31083615805116 L244.99730669564718,1.1487871338891391" stroke="#0d6d4d" stroke-width="0.1" fill="none" />
<path d="M20.65370258262977,-244.12788568622852 L240.03691882161664,49.06401535366448" stroke="#0d6d4d" stroke-width="0.1" fill="none" />
<path d="M22.942164935915937,-243.92346559536503 L225.79707139644765,95.08250390470121" stroke="#0d6d4d" stroke-width="0.1" fill="none" />
<path d="M25.228609660041204,-243.69759386301143 L202.8282551065102,137.4252485187799" stroke="#0d6d4d" stroke-width="0.1" fill="none" />
<path d="M27.512835675571147,-243.45029035326496 L172.01840920192603,174.45534355713707" stroke="#0d6d4d" stroke-width="0.1" fill="none" />
<path d="M29.79464209819375,-243.1815768150222 L134.55859512545953,204.74126227476145" stroke="#0d6d4d" stroke-width="0.1" fill="none" />
<path d="M32.073828256386044,-242.89147688006645 L91.89695190181664,227.1121974512932" stroke="#0d6d4d" stroke-width="0.1" fill="none" />
<path d="M34.350193709062,-242.5800160609895 L45.68271330146192,240.70332300451614" stroke="#0d6d4d" stroke-width="0.1" fill="none" />
<path d="M36.623538263200125,-242.24722174894785 L-2.297549010362865,244.98922684180417" stroke="#0d6d4d" stroke-width="0.1" fill="none" />
<path d="M38.893661991449264,-241.89312321125396 L-50.18899159723395,239.8042224867043" stroke="#0d6d4d" stroke-width="0.1" fill="none" />
<path d="M41.16036524971105,-241.51775158880224 L-96.14020465722541,225.34875426428877" stroke="#0d6d4d" stroke-width="0.1" fill="none" />
<path d="M43.42344869469748,-241.12113989333034 L-138.37478468953708,202.1816484306235" stroke="#0d6d4d" stroke-width="0.1" fill="none" />
<path d="M45.68271330146189,-240.70332300451614 L-175.26000753243125,171.19850980581617" stroke="#0d6d4d" stroke-width="0.1" fill="none" />
<path d="M47.937960380902126,-240.26433766691022 L-205.36994697803254,133.59709906371506" stroke="#0d6d4d" stroke-width="0.1" fill="none" />
<path d="M50.188991597234036,-239.80422248670428 L-227.54059889504208,90.83102913919652" stroke="#0d6d4d" stroke-width="0.1" fill="none" />
<path d="M52.43560898543399,-239.32301792833607 L-240.9148798452275,44.55357077900272" stroke="#0d6d4d" stroke-width="0.1" fill="none" />
<path d="M54.677614968648676,-238.82076631093076 L-244.97576061611588,-3.446260372561077" stroke="#0d6d4d" stroke-width="0.1" fill="none" />
<path d="M56.9148123755709,-238.2975118045792 L-239.56625377827154,-51.31286437770542" stroke="#0d6d4d" stroke-width="0.1" fill="none" />
<path d="M59.14700445777957,-237.7533004264534 L-224.89548257881756,-97.19579165602165" stroke="#0d6d4d" stroke-width="0.1" fill="none" />
<path d="M61.373994907042665,-237.18818003675963 L-201.53059655707335,-139.32127853041737" stroke="#0d6d4d" stroke-width="0.1" fill="none" />
<path d="M63.59558787258133,-236.6022003345294 L-170.3748464122235,-176.06081821351182" stroke="#0d6d4d" stroke-width="0.1" fill="none" />
<path d="M65.81158797829382,-235.99541285324867 L-132.63266571504445,-205.99411638520473" stroke="#0d6d4d" stroke-width="0.1" fill="none" />
<path d="M68.02180033993764,-235.36787095632585 L-89.76310935122038,-227.9639975952362" stroke="#0d6d4d" stroke-width="0.1" fill="none" />
<path d="M70.22603058226859,-234.7196298323987 L-43.42344869469759,-241.1211398933303" stroke="#0d6d4d" stroke-width="0.1" fill="none" />
<path d="M72.42408485613483,-234.05074649048095 L4.594895964734208,-244.9569083146529" stroke="#0d6d4d" stroke-width="0.1" fill="none" />
<path d="M74.6157698555248,-233.36127975494853 L52.43560898543399,-239.32301792833607" stroke="#0d6d4d" stroke-width="0.1" fill="none" />
<path d="M76.80089283456735,-232.6512902603665 L98.24924169278728,-224.43726630573693" stroke="#0d6d4d" stroke-width="0.1" fill="none" />
<path d="M78.97926162448266,-231.92084044615638 L140.26470923165763,-200.875113799989" stroke="#0d6d4d" stroke-width="0.1" fill="none" />
<path d="M81.15068465048229,-231.16999455110513 L176.85775799362875,-169.54743713034134" stroke="#0d6d4d" stroke-width="0.1" fill="none" />
<path d="M83.31497094861713,-230.3988186077157 L206.61375677319063,-131.6653162836319" stroke="#0d6d4d" stroke-width="0.1" fill="none" />
<path d="M85.47193018257144,-229.6073804363998 L228.382384242965,-88.69321601734083" stroke="#0d6d4d" stroke-width="0.1" fill="none" />
<path d="M87.62137266040203,-228.79574963951353 L241.32209861395862,-42.29237189558926" stroke="#0d6d4d" stroke-width="0.1" fill="none" />
<path d="M89.76310935122031,-227.96399759523624 L244.9326703519049,5.743430532798809" stroke="#0d6d4d" stroke-width="0.1" fill="none" />
<path d="M91.8969519018166,-227.1121974512932 L239.07452028471968,53.55720073557954" stroke="#0d6d4d" stroke-width="0.1" fill="none" />
<path d="M94.02271265322476,-226.24042411852292 L223.97411551946217,99.30053160620349" stroke="#0d6d4d" stroke-width="0.1" fill="none" />
<path d="M96.14020465722541,-225.34875426428877 L200.21521457091805,141.20505605084134" stroke="#0d6d4d" stroke-width="0.1" fill="none" />
<path d="M98.24924169278728,-224.43726630573693 L168.716300151721,177.650809351138" stroke="#0d6d4d" stroke-width="0.1" fill="none" />
<path d="M100.34963828244406,-223.50604040289969 L130.6950720377747,207.22885451847887" stroke="#0d6d4d" stroke-width="0.1" fill="none" />
<path d="M102.44120970860602,-222.55515845164632 L87.62137266040202,228.79574963951353" stroke="#0d6d4d" stroke-width="0.1" fill="none" />
<path d="M104.52377202980506,-221.58470407648028 L41.160365249711056,241.51775158880224" stroke="#0d6d4d" stroke-width="0.1" fill="none" />
<path d="M106.59714209687098,-220.59476262318537 L-6.891838824892322,244.90304726077156" stroke="#0d6d4d" stroke-width="0.1" fill="none" />
<path d="M108.66113756903869,-219.5854211513197 L-54.67761496864862,238.8207663109308" stroke="#0d6d4d" stroke-width="0.1" fill="none" />
<path d="M110.7155769299838,-218.5567684265597 L-100.34963828244409,223.50604040289969" stroke="#0d6d4d" stroke-width="0.1" fill="none" />
<path d="M112.76027950378594,-217.5088949128933 L-142.14229831335484,199.55091337850908" stroke="#0d6d4d" stroke-width="0.1" fill="none" />
<path d="M114.79506547081833,-216.44189276466452 L-178.43995484988727,167.88145374987133" stroke="#0d6d4d" stroke-width="0.1" fill="none" />
<path d="M116.81975588356156,-215.3558558184687 L-207.83939609743308,129.72195430941645" stroke="#0d6d4d" stroke-width="0.1" fill="none" />
<path d="M118.83417268234126,-214.25087958490042 L-229.20408469656482,86.54760284612128" stroke="#0d6d4d" stroke-width="0.1" fill="none" />
<path d="M120.83813871098731,-213.12706124015364 L-241.70809451620391,40.02745364553988" stroke="#0d6d4d" stroke-width="0.1" fill="none" />
<path d="M122.83147773241352,-211.98449961747582 L-244.8680396925508,-8.040095591928699" stroke="#0d6d4d" stroke-width="0.1" fill="none" />
<path d="M124.81401444411699,-210.823295198476 L-238.56176158604435,-55.79682705103697" stroke="#0d6d4d" stroke-width="0.1" fill="none" />
<path d="M126.78557449359465,-209.6435501042881 L-223.03305124722303,-101.39653865568386" stroke="#0d6d4d" stroke-width="0.1" fill="none" />
<path d="M128.74598449367664,-208.44536808658995 L-198.88222482819307,-143.07641541284173" stroke="#0d6d4d" stroke-width="0.1" fill="none" />
<path d="M130.69507203777474,-207.22885451847884 L-167.04291627985717,-179.22517713959897" stroke="#0d6d4d" stroke-width="0.1" fill="none" />
<path d="M132.63266571504442,-205.99411638520473 L-128.74598449367676,-208.4453680865899" stroke="#0d6d4d" stroke-width="0.1" fill="none" />
<path d="M134.55859512545953,-204.74126227476145 L-85.47193018257138,-229.6073804363998" stroke="#0d6d4d" stroke-width="0.1" fill="none" />
<path d="M136.472690894798,-203.4704023683369 L-38.89366199144923,-241.89312321125396" stroke="#0d6d4d" stroke-width="0.1" fill="none" />
<path d="M138.3747846895371,-202.1816484306235 L9.188175588153191,-244.82764841692463" stroke="#0d6d4d" stroke-width="0.1" fill="none" />
<path d="M140.26470923165763,-200.875113799989 L56.9148123755709,-238.2975118045792" stroke="#0d6d4d" stroke-width="0.1" fill="none" />
<path d="M142.14229831335493,-199.55091337850902 L102.44120970860602,-222.55515845164632" stroke="#0d6d4d" stroke-width="0.1" fill="none" />
<path d="M144.00738681165592,-198.20916362186213 L144.00738681165592,-198.20916362186213" stroke="#0d6d4d" stroke-width="0.1" fill="none" />
<path d="M145.85981070294065,-196.84998252908815 L180.0064589562515,-166.20070617789608" stroke="#0d6d4d" stroke-width="0.1" fill="none" />
<path d="M147.6994070773673,-195.47348963221108 L209.04675716295333,-127.76718404838238" stroke="#0d6d4d" stroke-width="0.1" fill="none" />
<path d="M149.52601415319907,-194.07980598572672 L230.00562799209467,-84.39437831966158" stroke="#0d6d4d" stroke-width="0.1" fill="none" />
<path d="M151.33947129103194,-192.66905415595656 L242.07283360588232,-37.75901521516162" stroke="#0d6d4d" stroke-width="0.1" fill="none" />
<path d="M153.139619007922,-191.2413582102692 L244.78187432194198,10.336053571697603" stroke="#0d6d4d" stroke-width="0.1" fill="none" />
<path d="M154.92629899141104,-189.7968437061689 L238.02802277637278,58.03154636204832" stroke="#0d6d4d" stroke-width="0.1" fill="none" />
<path d="M156.69935411344932,-188.33563768025374 L222.0723725231962,103.48362847290757" stroke="#0d6d4d" stroke-width="0.1" fill="none" />
<path d="M158.45862844421367,-186.85786863704357 L197.53174455754632,144.935192041313" stroke="#0d6d4d" stroke-width="0.1" fill="none" />
<path d="M160.2039672658211,-185.36366653767863 L165.3548419609521,180.78378312245974" stroke="#0d6d4d" stroke-width="0.1" fill="none" />
<path d="M161.93521708593505,-183.85316278849024 L126.78557449359468,209.6435501042881" stroke="#0d6d4d" stroke-width="0.1" fill="none" />
<path d="M163.65222565126413,-182.32649022944452 L83.31497094861717,230.39881860771567" stroke="#0d6d4d" stroke-width="0.1" fill="none" />
<path d="M165.3548419609521,-180.78378312245974 L36.623538263200096,242.24722174894788" stroke="#0d6d4d" stroke-width="0.1" fill="none" />
<path d="M167.04291627985725,-179.2251771395989 L-11.483704305135316,244.7307184139993" stroke="#0d6d4d" stroke-width="0.1" fill="none" />
<path d="M168.71630015172093,-177.65080935113807 L-59.14700445777944,237.75330042645342" stroke="#0d6d4d" stroke-width="0.1" fill="none" />
<path d="M170.37484641222346,-176.06081821351188 L-104.523772029805,221.5847040764803" stroke="#0d6d4d" stroke-width="0.1" fill="none" />
<path d="M172.0184092019261,-174.45534355713704 L-145.85981070294062,196.8499825290882" stroke="#0d6d4d" stroke-width="0.1" fill="none" />
<path d="M173.64684397909863,-172.83452657411536 L-181.5571325478516,164.50534222632967" stroke="#0d6d4d" stroke-width="0.1" fill="none" />
<path d="M175.26000753243122,-171.1985098058162 L-210.23573378941032,125.8011774111363" stroke="#0d6d4d" stroke-width="0.1" fill="none" />
<path d="M176.85775799362875,-169.54743713034134 L-230.78694363851193,82.23373180145916" stroke="#0d6d4d" stroke-width="0.1" fill="none" />
<path d="M178.43995484988727,-167.88145374987133 L-242.41628380632525,35.487256100340616" stroke="#0d6d4d" stroke-width="0.1" fill="none" />
<path d="M180.0064589562515,-166.20070617789608 L-244.6741818178185,-12.631102556035849" stroke="#0d6d4d" stroke-width="0.1" fill="none" />
<path d="M181.5571325478516,-164.50534222632967 L-237.47335079491012,-60.26116213812649" stroke="#0d6d4d" stroke-width="0.1" fill="none" />
<path d="M183.09183925201887,-162.79551099251134 L-221.09216383345412,-105.56161751053781" stroke="#0d6d4d" stroke-width="0.1" fill="none" />
<path d="M184.610444100279,-161.07136284609305 L-196.16389252581547,-146.78122246772685" stroke="#0d6d4d" stroke-width="0.1" fill="none" />
<path d="M186.11281354022157,-159.3330494158155 L-163.6522256512641,-182.32649022944452" stroke="#0d6d4d" stroke-width="0.1" fill="none" />
<path d="M187.5988154472455,-157.58072357617326 L-124.81401444411699,-210.823295198476" stroke="#0d6d4d" stroke-width="0.1" fill="none" />
<path d="M189.0683191361783,-155.81453943397014 L-81.1506846504823,-231.1699945511051" stroke="#0d6d4d" stroke-width="0.1" fill="none" />
<path d="M190.52119537276923,-154.0346523147668 L-34.35019370906205,-242.5800160609895" stroke="#0d6d4d" stroke-width="0.1" fill="none" />
<path d="M191.9573163850548,-152.24121874922037 L13.778223097520268,-244.6122657764221" stroke="#0d6d4d" stroke-width="0.1" fill="none" />
<path d="M193.37655587459534,-150.43439645931875 L61.373994907042665,-237.18818003675963" stroke="#0d6d4d" stroke-width="0.1" fill="none" />
<path d="M194.77878902758243,-148.6143443445098 L106.59714209687098,-220.59476262318537" stroke="#0d6d4d" stroke-width="0.1" fill="none" />
<path d="M196.16389252581536,-146.781222467727 L147.6994070773673,-195.47348963221108" stroke="#0d6d4d" stroke-width="0.1" fill="none" />
<path d="M197.53174455754632,-144.935192041313 L183.09183925201887,-162.79551099251134" stroke="#0d6d4d" stroke-width="0.1" fill="none" />
<path d="M198.88222482819302,-143.07641541284184 L211.4062214132671,-123.8241072964578" stroke="#0d6d4d" stroke-width="0.1" fill="none" />
<path d="M200.215214570918,-141.2050560508414 L231.54796292367737,-80.06585330773237" stroke="#0d6d4d" stroke-width="0.1" fill="none" />
<path d="M201.53059655707332,-139.3212785304174 L242.73841491309727,-33.21237608899787" stroke="#0d6d4d" stroke-width="0.1" fill="none" />
<path d="M202.82825510651023,-137.42524851877988 L244.54497165110595,14.925040708814826" stroke="#0d6d4d" stroke-width="0.1" fill="none" />
<path d="M204.10807609775242,-135.51713276067386 L236.89779442181143,62.48547829761066" stroke="#0d6d4d" stroke-width="0.1" fill="none" />
<path d="M205.3699469780326,-133.59709906371498 L220.0925113816155,107.63032302159762" stroke="#0d6d4d" stroke-width="0.1" fill="none" />
<path d="M206.61375677319063,-131.6653162836319 L194.7787890275825,148.61434434450973" stroke="#0d6d4d" stroke-width="0.1" fill="none" />
<path d="M207.83939609743314,-129.7219543094163 L161.9352170859351,183.85316278849018" stroke="#0d6d4d" stroke-width="0.1" fill="none" />
<path d="M209.04675716295333,-127.76718404838238 L122.83147773241352,211.98449961747582" stroke="#0d6d4d" stroke-width="0.1" fill="none" />
<path d="M210.23573378941035,-125.80117741113627 L78.97926162448269,231.92084044615635" stroke="#0d6d4d" stroke-width="0.1" fill="none" />
<path d="M211.4062214132671,-123.8241072964578 L32.07382825638609,242.89147688006645" stroke="#0d6d4d" stroke-width="0.1" fill="none" />
<path d="M212.55811709698614,-121.8361475760947 L-16.07153017580648,244.47230092140938" stroke="#0d6d4d" stroke-width="0.1" fill="none" />
<path d="M213.69131953808238,-119.83747307947198 L-63.59558787258135,236.6022003345294" stroke="#0d6d4d" stroke-width="0.1" fill="none" />
<path d="M214.80572907803204,-117.82825957831638 L-108.66113756903869,219.5854211513197" stroke="#0d6d4d" stroke-width="0.1" fill="none" />
<path d="M215.90124771103697,-115.80868377119849 L-149.52601415319896,194.07980598572678" stroke="#0d6d4d" stroke-width="0.1" fill="none" />
<path d="M216.97777909264377,-113.77892326799314 L-184.61044410027895,161.07136284609308" stroke="#0d6d4d" stroke-width="0.1" fill="none" />
<path d="M218.03522854821676,-111.73915657425951 L-212.5581170969861,121.83614757609476" stroke="#0d6d4d" stroke-width="0.1" fill="none" />
<path d="M219.07350308126394,-109.68956307554264 L-232.28861892039794,77.89093349070967" stroke="#0d6d4d" stroke-width="0.1" fill="none" />
<path d="M220.09251138161548,-107.63032302159769 L-243.0391985966524,30.934575243519244" stroke="#0d6d4d" stroke-width="0.1" fill="none" />
<path d="M221.09216383345415,-105.56161751053776 L-244.39425518508247,-17.21766629159683" stroke="#0d6d4d" stroke-width="0.1" fill="none" />
<path d="M222.07237252319618,-103.48362847290764 L-236.30140427389196,-64.70429922490983" stroke="#0d6d4d" stroke-width="0.1" fill="none" />
<path d="M223.033051247223,-101.39653865568391 L-219.07350308126394,-109.68956307554264" stroke="#0d6d4d" stroke-width="0.1" fill="none" />
<path d="M223.97411551946215,-99.3005316062035 L-193.3765558745954,-150.43439645931872" stroke="#0d6d4d" stroke-width="0.1" fill="none" />
<path d="M224.89548257881756,-97.19579165602165 L-160.20396726582112,-185.3636665376786" stroke="#0d6d4d" stroke-width="0.1" fill="none" />
<path d="M225.79707139644762,-95.08250390470124 L-120.83813871098734,-213.1270612401536" stroke="#0d6d4d" stroke-width="0.1" fill="none" />
<path d="M226.67880268289156,-92.960854203534 L-76.80089283456743,-232.65129026036647" stroke="#0d6d4d" stroke-width="0.1" fill="none" />
<path d="M227.54059889504202,-90.83102913919666 L-29.79464209819365,-243.18157681502223" stroke="#0d6d4d" stroke-width="0.1" fill="none" />
<path d="M228.382384242965,-88.69321601734083 L18.36342385705583,-244.31083615805116" stroke="#0d6d4d" stroke-width="0.1" fill="none" />
<path d="M229.2040846965648,-86.54760284612135 L65.81158797829382,-235.99541285324867" stroke="#0d6d4d" stroke-width="0.1" fill="none" />
<path d="M230.00562799209467,-84.39437831966158 L110.7155769299838,-218.5567684265597" stroke="#0d6d4d" stroke-width="0.1" fill="none" />
<path d="M230.78694363851196,-82.23373180145913 L151.33947129103194,-192.66905415595656" stroke="#0d6d4d" stroke-width="0.1" fill="none" />
<path d="M231.54796292367737,-80.06585330773237 L186.11281354022157,-159.3330494158155" stroke="#0d6d4d" stroke-width="0.1" fill="none" />
<path d="M232.28861892039797,-77.89093349070959 L213.69131953808238,-119.83747307947198" stroke="#0d6d4d" stroke-width="0.1" fill="none" />
<path d="M233.0088464923126,-75.70916362186213 L233.0088464923126,-75.70916362186213" stroke="#0d6d4d" stroke-width="0.1" fill="none" />
<path d="M233.70858229962084,-73.52073557508352 L243.31860840482577,-28.654053883160238" stroke="#0d6d4d" stroke-width="0.1" fill="none" />
<path d="M234.38776480465287,-71.32584180981482 L244.2220456743793,19.508777681376813" stroke="#0d6d4d" stroke-width="0.1" fill="none" />
<path d="M235.04633427728155,-69.12467535411953 L235.6842328001754,66.91742978770723" stroke="#0d6d4d" stroke-width="0.1" fill="none" />
<path d="M235.6842328001754,-66.91742978770726 L218.03522854821676,111.7391565742595" stroke="#0d6d4d" stroke-width="0.1" fill="none" />
<path d="M236.3014042738919,-64.70429922491005 L191.95731638505484,152.24121874922034" stroke="#0d6d4d" stroke-width="0.1" fill="none" />
<path d="M236.8977944218114,-62.48547829761075 L158.4586284442137,186.85786863704354" stroke="#0d6d4d" stroke-width="0.1" fill="none" />
<path d="M237.47335079491006,-60.26116213812665 L118.83417268234133,214.25087958490036" stroke="#0d6d4d" stroke-width="0.1" fill="none" />
<path d="M238.02802277637275,-58.031546362048346 L74.61576985552489,233.36127975494853" stroke="#0d6d4d" stroke-width="0.1" fill="none" />
<path d="M238.56176158604433,-55.79682705103703 L27.512835675571164,243.45029035326496" stroke="#0d6d4d" stroke-width="0.1" fill="none" />
<path d="M239.07452028471968,-53.55720073557956 L-20.65370258262973,244.12788568622855" stroke="#0d6d4d" stroke-width="0.1" fill="none" />
<path d="M239.56625377827154,-51.312864377705424 L-68.02180033993768,235.36787095632585" stroke="#0d6d4d" stroke-width="0.1" fill="none" />
<path d="M240.03691882161664,-49.06401535366451 L-112.76027950378588,217.50889491289337" stroke="#0d6d4d" stroke-width="0.1" fill="none" />
<path d="M240.48647402251842,-46.8108514365695 L-153.139619007922,191.2413582102692" stroke="#0d6d4d" stroke-width="0.1" fill="none" />
<path d="M240.91487984522752,-44.55357077900258 L-187.5988154472454,157.58072357617334" stroke="#0d6d4d" stroke-width="0.1" fill="none" />
<path d="M241.32209861395862,-42.29237189558926 L-214.80572907803207,117.8282595783163" stroke="#0d6d4d" stroke-width="0.1" fill="none" />
<path d="M241.70809451620391,-40.0274536455399 L-233.70858229962087,73.52073557508344" stroke="#0d6d4d" stroke-width="0.1" fill="none" />
<path d="M242.07283360588232,-37.75901521516162 L-243.57661976515968,26.37101256643039" stroke="#0d6d4d" stroke-width="0.1" fill="none" />
<path d="M242.41628380632525,-35.48725610034058 L-244.02835826381525,-21.798173388314755" stroke="#0d6d4d" stroke-width="0.1" fill="none" />
<path d="M242.73841491309727,-33.21237608899787 L-235.04633427728157,-69.12467535411949" stroke="#0d6d4d" stroke-width="0.1" fill="none" />
<path d="M243.03919859665243,-30.934575243519102 L-216.9777790926438,-113.7789232679931" stroke="#0d6d4d" stroke-width="0.1" fill="none" />
<path d="M243.31860840482577,-28.654053883160238 L-190.5211953727693,-154.0346523147667" stroke="#0d6d4d" stroke-width="0.1" fill="none" />
<path d="M243.57661976515968,-26.371012566430416 L-156.6993541134494,-188.33563768025368" stroke="#0d6d4d" stroke-width="0.1" fill="none" />
<path d="M243.81320998706468,-24.085652073454426 L-116.81975588356168,-215.35585581846865" stroke="#0d6d4d" stroke-width="0.1" fill="none" />
<path d="M244.02835826381525,-21.79817338831476 L-72.42408485613477,-234.05074649048095" stroke="#0d6d4d" stroke-width="0.1" fill="none" />
<path d="M244.2220456743793,-19.508777681376895 L-25.228609660041403,-243.69759386301143" stroke="#0d6d4d" stroke-width="0.1" fill="none" />
<path d="M244.39425518508247,-17.21766629159678 L22.942164935915937,-243.92346559536503" stroke="#0d6d4d" stroke-width="0.1" fill="none" />
<path d="M244.54497165110595,-14.925040708814912 L70.22603058226859,-234.7196298323987" stroke="#0d6d4d" stroke-width="0.1" fill="none" />
<path d="M244.6741818178185,-12.631102556035962 L114.79506547081833,-216.44189276466452" stroke="#0d6d4d" stroke-width="0.1" fill="none" />
<path d="M244.78187432194198,-10.336053571697688 L154.92629899141104,-189.7968437061689" stroke="#0d6d4d" stroke-width="0.1" fill="none" />
<path d="M244.8680396925508,-8.04009559192876 L189.0683191361783,-155.81453943397014" stroke="#0d6d4d" stroke-width="0.1" fill="none" />
<path d="M244.9326703519049,-5.743430532798839 L215.90124771103697,-115.80868377119849" stroke="#0d6d4d" stroke-width="0.1" fill="none" />
<path d="M244.97576061611588,-3.446260372560974 L234.38776480465287,-71.32584180981482" stroke="#0d6d4d" stroke-width="0.1" fill="none" />
<path d="M244.99730669564718,-1.148787133889115 L243.81320998706468,-24.085652073454426" stroke="#0d6d4d" stroke-width="0.1" fill="none" />
<path d="M244.99730669564718,1.1487871338891391 L243.81320998706468,24.085652073454398" stroke="#0d6d4d" stroke-width="0.1" fill="none" />
<path d="M244.97576061611588,3.4462603725609986 L234.38776480465287,71.32584180981483" stroke="#0d6d4d" stroke-width="0.1" fill="none" />
<path d="M244.9326703519049,5.743430532798809 L215.90124771103694,115.80868377119852" stroke="#0d6d4d" stroke-width="0.1" fill="none" />
<path d="M244.8680396925508,8.040095591928674 L189.0683191361783,155.81453943397014" stroke="#0d6d4d" stroke-width="0.1" fill="none" />
<path d="M244.78187432194198,10.336053571697603 L154.92629899141107,189.79684370616886" stroke="#0d6d4d" stroke-width="0.1" fill="none" />
<path d="M244.6741818178185,12.631102556035877 L114.79506547081826,216.44189276466454" stroke="#0d6d4d" stroke-width="0.1" fill="none" />
<path d="M244.54497165110595,14.925040708814826 L70.22603058226865,234.7196298323987" stroke="#0d6d4d" stroke-width="0.1" fill="none" />
<path d="M244.39425518508247,17.217666291596753 L22.94216493591603,243.92346559536503" stroke="#0d6d4d" stroke-width="0.1" fill="none" />
<path d="M244.2220456743793,19.508777681376813 L-25.228609660041094,243.69759386301146" stroke="#0d6d4d" stroke-width="0.1" fill="none" />
<path d="M244.02835826381525,21.798173388314783 L-72.4240848561348,234.05074649048095" stroke="#0d6d4d" stroke-width="0.1" fill="none" />
<path d="M243.81320998706468,24.085652073454398 L-116.81975588356151,215.35585581846874" stroke="#0d6d4d" stroke-width="0.1" fill="none" />
<path d="M243.57661976515968,26.371012566430387 L-156.69935411344935,188.3356376802537" stroke="#0d6d4d" stroke-width="0.1" fill="none" />
<path d="M243.3186084048258,28.65405388316021 L-190.52119537276923,154.0346523147668" stroke="#0d6d4d" stroke-width="0.1" fill="none" />
<path d="M243.03919859665243,30.934575243519074 L-216.97777909264377,113.77892326799316" stroke="#0d6d4d" stroke-width="0.1" fill="none" />
<path d="M242.73841491309727,33.21237608899784 L-235.04633427728155,69.12467535411956" stroke="#0d6d4d" stroke-width="0.1" fill="none" />
<path d="M242.41628380632528,35.4872561003405 L-244.02835826381525,21.79817338831484" stroke="#0d6d4d" stroke-width="0.1" fill="none" />
<path d="M242.07283360588235,37.75901521516155 L-243.57661976515968,-26.371012566430302" stroke="#0d6d4d" stroke-width="0.1" fill="none" />
<path d="M241.70809451620391,40.02745364553982 L-233.70858229962084,-73.52073557508358" stroke="#0d6d4d" stroke-width="0.1" fill="none" />
<path d="M241.32209861395862,42.29237189558918 L-214.80572907803213,-117.8282595783162" stroke="#0d6d4d" stroke-width="0.1" fill="none" />
<path d="M240.9148798452275,44.553570779002605 L-187.5988154472455,-157.58072357617326" stroke="#0d6d4d" stroke-width="0.1" fill="none" />
<path d="M240.4864740225184,46.81085143656952 L-153.139619007922,-191.2413582102692" stroke="#0d6d4d" stroke-width="0.1" fill="none" />
<path d="M240.03691882161664,49.06401535366448 L-112.76027950378594,-217.5088949128933" stroke="#0d6d4d" stroke-width="0.1" fill="none" />
<path d="M239.56625377827154,51.312864377705395 L-68.02180033993767,-235.36787095632585" stroke="#0d6d4d" stroke-width="0.1" fill="none" />
<path d="M239.07452028471968,53.55720073557954 L-20.653702582629823,-244.12788568622852" stroke="#0d6d4d" stroke-width="0.1" fill="none" />
<path d="M238.56176158604435,55.796827051037006 L27.512835675571147,-243.45029035326496" stroke="#0d6d4d" stroke-width="0.1" fill="none" />
<path d="M238.02802277637278,58.03154636204832 L74.6157698555248,-233.36127975494853" stroke="#0d6d4d" stroke-width="0.1" fill="none" />
<path d="M237.4733507949101,60.26116213812657 L118.83417268234126,-214.25087958490042" stroke="#0d6d4d" stroke-width="0.1" fill="none" />
<path d="M236.89779442181143,62.48547829761066 L158.45862844421367,-186.85786863704357" stroke="#0d6d4d" stroke-width="0.1" fill="none" />
<path d="M236.30140427389193,64.70429922490997 L191.9573163850548,-152.24121874922037" stroke="#0d6d4d" stroke-width="0.1" fill="none" />
<path d="M235.6842328001754,66.91742978770723 L218.03522854821676,-111.73915657425951" stroke="#0d6d4d" stroke-width="0.1" fill="none" />
<path d="M235.04633427728155,69.12467535411956 L235.6842328001754,-66.91742978770726" stroke="#0d6d4d" stroke-width="0.1" fill="none" />
<path d="M234.38776480465287,71.32584180981483 L244.2220456743793,-19.508777681376895" stroke="#0d6d4d" stroke-width="0.1" fill="none" />
<path d="M233.70858229962087,73.52073557508349 L243.3186084048258,28.65405388316021" stroke="#0d6d4d" stroke-width="0.1" fill="none" />
<path d="M233.00884649231264,75.7091636218621 L233.00884649231264,75.7091636218621" stroke="#0d6d4d" stroke-width="0.1" fill="none" />
<path d="M232.28861892039797,77.89093349070956 L213.69131953808244,119.83747307947188" stroke="#0d6d4d" stroke-width="0.1" fill="none" />
<path d="M231.5479629236774,80.06585330773234 L186.11281354022157,159.3330494158155" stroke="#0d6d4d" stroke-width="0.1" fill="none" />
<path d="M230.78694363851196,82.23373180145913 L151.3394712910319,192.6690541559566" stroke="#0d6d4d" stroke-width="0.1" fill="none" />
<path d="M230.00562799209467,84.3943783196615 L110.7155769299838,218.5567684265597" stroke="#0d6d4d" stroke-width="0.1" fill="none" />
<path d="M229.20408469656482,86.54760284612128 L65.81158797829384,235.99541285324867" stroke="#0d6d4d" stroke-width="0.1" fill="none" />
<path d="M228.38238424296503,88.69321601734075 L18.36342385705578,244.31083615805116" stroke="#0d6d4d" stroke-width="0.1" fill="none" />
<path d="M227.54059889504202,90.83102913919669 L-29.794642098193666,243.18157681502223" stroke="#0d6d4d" stroke-width="0.1" fill="none" />
<path d="M226.67880268289156,92.96085420353403 L-76.80089283456735,232.6512902603665" stroke="#0d6d4d" stroke-width="0.1" fill="none" />
<path d="M225.79707139644765,95.08250390470121 L-120.83813871098718,213.1270612401537" stroke="#0d6d4d" stroke-width="0.1" fill="none" />
<path d="M224.89548257881756,97.19579165602163 L-160.2039672658211,185.36366653767865" stroke="#0d6d4d" stroke-width="0.1" fill="none" />
<path d="M223.97411551946217,99.30053160620349 L-193.3765558745953,150.4343964593188" stroke="#0d6d4d" stroke-width="0.1" fill="none" />
<path d="M223.03305124722303,101.39653865568388 L-219.07350308126388,109.68956307554272" stroke="#0d6d4d" stroke-width="0.1" fill="none" />
<path d="M222.0723725231962,103.48362847290757 L-236.30140427389188,64.70429922491013" stroke="#0d6d4d" stroke-width="0.1" fill="none" />
<path d="M221.09216383345415,105.56161751053773 L-244.39425518508247,17.217666291596704" stroke="#0d6d4d" stroke-width="0.1" fill="none" />
<path d="M220.0925113816155,107.63032302159762 L-243.03919859665243,-30.934575243518932" stroke="#0d6d4d" stroke-width="0.1" fill="none" />
<path d="M219.07350308126396,109.68956307554257 L-232.28861892039797,-77.89093349070959" stroke="#0d6d4d" stroke-width="0.1" fill="none" />
<path d="M218.03522854821676,111.7391565742595 L-212.55811709698614,-121.83614757609467" stroke="#0d6d4d" stroke-width="0.1" fill="none" />
<path d="M216.97777909264374,113.77892326799319 L-184.61044410027904,-161.071362846093" stroke="#0d6d4d" stroke-width="0.1" fill="none" />
<path d="M215.90124771103694,115.80868377119852 L-149.5260141531991,-194.07980598572667" stroke="#0d6d4d" stroke-width="0.1" fill="none" />
<path d="M214.80572907803207,117.82825957831632 L-108.66113756903877,-219.58542115131968" stroke="#0d6d4d" stroke-width="0.1" fill="none" />
<path d="M213.69131953808244,119.83747307947188 L-63.595587872581426,-236.60220033452939" stroke="#0d6d4d" stroke-width="0.1" fill="none" />
<path d="M212.55811709698614,121.8361475760947 L-16.071530175806675,-244.47230092140936" stroke="#0d6d4d" stroke-width="0.1" fill="none" />
<path d="M211.4062214132671,123.82410729645777 L32.073828256386044,-242.89147688006645" stroke="#0d6d4d" stroke-width="0.1" fill="none" />
<path d="M210.23573378941035,125.80117741113624 L78.97926162448266,-231.92084044615638" stroke="#0d6d4d" stroke-width="0.1" fill="none" />
<path d="M209.04675716295338,127.76718404838229 L122.83147773241352,-211.98449961747582" stroke="#0d6d4d" stroke-width="0.1" fill="none" />
<path d="M207.8393960974332,129.72195430941628 L161.93521708593505,-183.85316278849024" stroke="#0d6d4d" stroke-width="0.1" fill="none" />
<path d="M206.6137567731907,131.66531628363182 L194.77878902758243,-148.6143443445098" stroke="#0d6d4d" stroke-width="0.1" fill="none" />
<path d="M205.36994697803266,133.5970990637149 L220.09251138161548,-107.63032302159769" stroke="#0d6d4d" stroke-width="0.1" fill="none" />
<path d="M204.10807609775244,135.51713276067383 L236.8977944218114,-62.48547829761075" stroke="#0d6d4d" stroke-width="0.1" fill="none" />
<path d="M202.8282551065102,137.4252485187799 L244.54497165110595,-14.925040708814912" stroke="#0d6d4d" stroke-width="0.1" fill="none" />
<path d="M201.53059655707335,139.3212785304174 L242.73841491309727,33.21237608899784" stroke="#0d6d4d" stroke-width="0.1" fill="none" />
<path d="M200.21521457091805,141.20505605084134 L231.5479629236774,80.06585330773234" stroke="#0d6d4d" stroke-width="0.1" fill="none" />
<path d="M198.88222482819307,143.07641541284175 L211.4062214132671,123.82410729645777" stroke="#0d6d4d" stroke-width="0.1" fill="none" />
<path d="M197.53174455754632,144.935192041313 L183.09183925201893,162.7955109925113" stroke="#0d6d4d" stroke-width="0.1" fill="none" />
<path d="M196.16389252581538,146.78122246772696 L147.69940707736734,195.47348963221106" stroke="#0d6d4d" stroke-width="0.1" fill="none" />
<path d="M194.7787890275825,148.61434434450973 L106.59714209687097,220.59476262318537" stroke="#0d6d4d" stroke-width="0.1" fill="none" />
<path d="M193.37655587459545,150.43439645931863 L61.373994907042665,237.18818003675963" stroke="#0d6d4d" stroke-width="0.1" fill="none" />
<path d="M191.95731638505484,152.24121874922034 L13.778223097520291,244.6122657764221" stroke="#0d6d4d" stroke-width="0.1" fill="none" />
<path d="M190.52119537276928,154.03465231476673 L-34.35019370906196,242.5800160609895" stroke="#0d6d4d" stroke-width="0.1" fill="none" />
<path d="M189.0683191361783,155.81453943397014 L-81.15068465048233,231.1699945511051" stroke="#0d6d4d" stroke-width="0.1" fill="none" />
<path d="M187.59881544724553,157.5807235761732 L-124.81401444411694,210.82329519847605" stroke="#0d6d4d" stroke-width="0.1" fill="none" />
<path d="M186.11281354022157,159.3330494158155 L-163.65222565126413,182.32649022944452" stroke="#0d6d4d" stroke-width="0.1" fill="none" />
<path d="M184.610444100279,161.07136284609302 L-196.16389252581527,146.7812224677271" stroke="#0d6d4d" stroke-width="0.1" fill="none" />
<path d="M183.09183925201893,162.7955109925113 L-221.09216383345415,105.5616175105377" stroke="#0d6d4d" stroke-width="0.1" fill="none" />
<path d="M181.55713254785167,164.50534222632962 L-237.47335079491003,60.26116213812679" stroke="#0d6d4d" stroke-width="0.1" fill="none" />
<path d="M180.00645895625152,166.20070617789605 L-244.6741818178185,12.631102556035938" stroke="#0d6d4d" stroke-width="0.1" fill="none" />
<path d="M178.43995484988733,167.88145374987127 L-242.41628380632528,-35.487256100340524" stroke="#0d6d4d" stroke-width="0.1" fill="none" />
<path d="M176.85775799362884,169.54743713034125 L-230.78694363851196,-82.2337318014591" stroke="#0d6d4d" stroke-width="0.1" fill="none" />
<path d="M175.26000753243133,171.19850980581612 L-210.23573378941038,-125.80117741113621" stroke="#0d6d4d" stroke-width="0.1" fill="none" />
<path d="M173.64684397909858,172.8345265741154 L-181.55713254785167,-164.5053422263296" stroke="#0d6d4d" stroke-width="0.1" fill="none" />
<path d="M172.01840920192603,174.45534355713707 L-145.85981070294073,-196.8499825290881" stroke="#0d6d4d" stroke-width="0.1" fill="none" />
<path d="M170.37484641222346,176.06081821351185 L-104.52377202980499,-221.5847040764803" stroke="#0d6d4d" stroke-width="0.1" fill="none" />
<path d="M168.716300151721,177.650809351138 L-59.14700445777974,-237.75330042645334" stroke="#0d6d4d" stroke-width="0.1" fill="none" />
<path d="M167.04291627985722,179.2251771395989 L-11.483704305135298,-244.7307184139993" stroke="#0d6d4d" stroke-width="0.1" fill="none" />
<path d="M165.3548419609521,180.78378312245974 L36.623538263200125,-242.24722174894785" stroke="#0d6d4d" stroke-width="0.1" fill="none" />
<path d="M163.6522256512642,182.32649022944446 L83.31497094861713,-230.3988186077157" stroke="#0d6d4d" stroke-width="0.1" fill="none" />
<path d="M161.9352170859351,183.85316278849018 L126.78557449359465,-209.6435501042881" stroke="#0d6d4d" stroke-width="0.1" fill="none" />
<path d="M160.20396726582112,185.36366653767863 L165.3548419609521,-180.78378312245974" stroke="#0d6d4d" stroke-width="0.1" fill="none" />
<path d="M158.4586284442137,186.85786863704354 L197.53174455754632,-144.935192041313" stroke="#0d6d4d" stroke-width="0.1" fill="none" />
<path d="M156.69935411344937,188.3356376802537 L222.07237252319618,-103.48362847290764" stroke="#0d6d4d" stroke-width="0.1" fill="none" />
<path d="M154.92629899141107,189.79684370616886 L238.02802277637275,-58.031546362048346" stroke="#0d6d4d" stroke-width="0.1" fill="none" />
<path d="M153.13961900792197,191.24135821026923 L244.78187432194198,-10.336053571697688" stroke="#0d6d4d" stroke-width="0.1" fill="none" />
<path d="M151.3394712910319,192.6690541559566 L242.07283360588235,37.75901521516155" stroke="#0d6d4d" stroke-width="0.1" fill="none" />
<path d="M149.5260141531991,194.0798059857267 L230.00562799209467,84.3943783196615" stroke="#0d6d4d" stroke-width="0.1" fill="none" />
<path d="M147.69940707736734,195.47348963221106 L209.04675716295338,127.76718404838229" stroke="#0d6d4d" stroke-width="0.1" fill="none" />
<path d="M145.85981070294065,196.84998252908818 L180.00645895625152,166.20070617789605" stroke="#0d6d4d" stroke-width="0.1" fill="none" />
<path d="M144.00738681165595,198.2091636218621 L144.00738681165595,198.2091636218621" stroke="#0d6d4d" stroke-width="0.1" fill="none" />
<path d="M142.14229831335498,199.550913378509 L102.44120970860608,222.5551584516463" stroke="#0d6d4d" stroke-width="0.1" fill="none" />
<path d="M140.2647092316577,200.87511379998898 L56.91481237557096,238.2975118045792" stroke="#0d6d4d" stroke-width="0.1" fill="none" />
<path d="M138.37478468953714,202.1816484306235 L9.18817558815318,244.82764841692463" stroke="#0d6d4d" stroke-width="0.1" fill="none" />
<path d="M136.47269089479795,203.47040236833692 L-38.89366199144914,241.893123211254" stroke="#0d6d4d" stroke-width="0.1" fill="none" />
<path d="M134.55859512545953,204.74126227476145 L-85.47193018257141,229.6073804363998" stroke="#0d6d4d" stroke-width="0.1" fill="none" />
<path d="M132.63266571504445,205.99411638520473 L-128.7459844936766,208.44536808659" stroke="#0d6d4d" stroke-width="0.1" fill="none" />
<path d="M130.6950720377747,207.22885451847887 L-167.04291627985725,179.2251771395989" stroke="#0d6d4d" stroke-width="0.1" fill="none" />
<path d="M128.74598449367664,208.44536808658995 L-198.88222482819302,143.07641541284184" stroke="#0d6d4d" stroke-width="0.1" fill="none" />
<path d="M126.78557449359468,209.6435501042881 L-223.033051247223,101.39653865568393" stroke="#0d6d4d" stroke-width="0.1" fill="none" />
<path d="M124.81401444411706,210.82329519847596 L-238.56176158604433,55.79682705103706" stroke="#0d6d4d" stroke-width="0.1" fill="none" />
<path d="M122.83147773241352,211.98449961747582 L-244.8680396925508,8.040095591928788" stroke="#0d6d4d" stroke-width="0.1" fill="none" />
<path d="M120.83813871098734,213.1270612401536 L-241.70809451620391,-40.027453645539794" stroke="#0d6d4d" stroke-width="0.1" fill="none" />
<path d="M118.83417268234133,214.25087958490036 L-229.20408469656482,-86.54760284612121" stroke="#0d6d4d" stroke-width="0.1" fill="none" />
<path d="M116.81975588356165,215.35585581846865 L-207.83939609743325,-129.72195430941616" stroke="#0d6d4d" stroke-width="0.1" fill="none" />
<path d="M114.79506547081826,216.44189276466454 L-178.43995484988727,-167.88145374987133" stroke="#0d6d4d" stroke-width="0.1" fill="none" />
<path d="M112.76027950378594,217.50889491289334 L-142.14229831335507,-199.5509133785089" stroke="#0d6d4d" stroke-width="0.1" fill="none" />
<path d="M110.7155769299838,218.5567684265597 L-100.34963828244406,-223.50604040289969" stroke="#0d6d4d" stroke-width="0.1" fill="none" />
<path d="M108.66113756903874,219.58542115131968 L-54.67761496864871,-238.82076631093076" stroke="#0d6d4d" stroke-width="0.1" fill="none" />
<path d="M106.59714209687097,220.59476262318537 L-6.8918388248926306,-244.90304726077156" stroke="#0d6d4d" stroke-width="0.1" fill="none" />
<path d="M104.52377202980506,221.58470407648028 L41.16036524971105,-241.51775158880224" stroke="#0d6d4d" stroke-width="0.1" fill="none" />
<path d="M102.44120970860608,222.5551584516463 L87.62137266040203,-228.79574963951353" stroke="#0d6d4d" stroke-width="0.1" fill="none" />
<path d="M100.34963828244415,223.50604040289969 L130.69507203777474,-207.22885451847884" stroke="#0d6d4d" stroke-width="0.1" fill="none" />
<path d="M98.24924169278731,224.4372663057369 L168.71630015172093,-177.65080935113807" stroke="#0d6d4d" stroke-width="0.1" fill="none" />
<path d="M96.14020465722547,225.34875426428874 L200.215214570918,-141.2050560508414" stroke="#0d6d4d" stroke-width="0.1" fill="none" />
<path d="M94.02271265322483,226.2404241185229 L223.97411551946215,-99.3005316062035" stroke="#0d6d4d" stroke-width="0.1" fill="none" />
<path d="M91.89695190181664,227.1121974512932 L239.07452028471968,-53.55720073557956" stroke="#0d6d4d" stroke-width="0.1" fill="none" />
<path d="M89.76310935122025,227.96399759523626 L244.9326703519049,-5.743430532798839" stroke="#0d6d4d" stroke-width="0.1" fill="none" />
<path d="M87.62137266040202,228.79574963951353 L241.32209861395862,42.29237189558918" stroke="#0d6d4d" stroke-width="0.1" fill="none" />
<path d="M85.47193018257147,229.60738043639978 L228.38238424296503,88.69321601734075" stroke="#0d6d4d" stroke-width="0.1" fill="none" />
<path d="M83.31497094861717,230.39881860771567 L206.6137567731907,131.66531628363182" stroke="#0d6d4d" stroke-width="0.1" fill="none" />
<path d="M81.15068465048228,231.16999455110513 L176.85775799362884,169.54743713034125" stroke="#0d6d4d" stroke-width="0.1" fill="none" />
<path d="M78.97926162448269,231.92084044615635 L140.2647092316577,200.87511379998898" stroke="#0d6d4d" stroke-width="0.1" fill="none" />
<path d="M76.8008928345674,232.65129026036647 L98.24924169278731,224.4372663057369" stroke="#0d6d4d" stroke-width="0.1" fill="none" />
<path d="M74.61576985552489,233.36127975494853 L52.43560898543403,239.32301792833607" stroke="#0d6d4d" stroke-width="0.1" fill="none" />
<path d="M72.42408485613485,234.05074649048092 L4.594895964734271,244.9569083146529" stroke="#0d6d4d" stroke-width="0.1" fill="none" />
<path d="M70.22603058226865,234.7196298323987 L-43.4234486946975,241.12113989333034" stroke="#0d6d4d" stroke-width="0.1" fill="none" />
<path d="M68.02180033993764,235.36787095632585 L-89.76310935122031,227.96399759523624" stroke="#0d6d4d" stroke-width="0.1" fill="none" />
<path d="M65.81158797829384,235.99541285324867 L-132.63266571504448,205.9941163852047" stroke="#0d6d4d" stroke-width="0.1" fill="none" />
<path d="M63.59558787258129,236.6022003345294 L-170.37484641222343,176.06081821351188" stroke="#0d6d4d" stroke-width="0.1" fill="none" />
<path d="M61.373994907042665,237.18818003675963 L-201.53059655707344,139.3212785304173" stroke="#0d6d4d" stroke-width="0.1" fill="none" />
<path d="M59.1470044577796,237.7533004264534 L-224.89548257881754,97.19579165602173" stroke="#0d6d4d" stroke-width="0.1" fill="none" />
<path d="M56.91481237557096,238.2975118045792 L-239.56625377827152,51.3128643777055" stroke="#0d6d4d" stroke-width="0.1" fill="none" />
<path d="M54.677614968648676,238.82076631093076 L-244.97576061611588,3.4462603725609497" stroke="#0d6d4d" stroke-width="0.1" fill="none" />
<path d="M52.43560898543403,239.32301792833607 L-240.91487984522755,-44.55357077900241" stroke="#0d6d4d" stroke-width="0.1" fill="none" />
<path d="M50.188991597234114,239.80422248670428 L-227.54059889504202,-90.83102913919666" stroke="#0d6d4d" stroke-width="0.1" fill="none" />
<path d="M47.93796038090223,240.2643376669102 L-205.36994697803271,-133.59709906371478" stroke="#0d6d4d" stroke-width="0.1" fill="none" />
<path d="M45.68271330146192,240.70332300451614 L-175.26000753243125,-171.19850980581617" stroke="#0d6d4d" stroke-width="0.1" fill="none" />
<path d="M43.42344869469745,241.12113989333034 L-138.37478468953717,-202.1816484306235" stroke="#0d6d4d" stroke-width="0.1" fill="none" />
<path d="M41.160365249711056,241.51775158880224 L-96.1402046572255,-225.34875426428874" stroke="#0d6d4d" stroke-width="0.1" fill="none" />
<path d="M38.89366199144931,241.89312321125396 L-50.18899159723415,-239.80422248670425" stroke="#0d6d4d" stroke-width="0.1" fill="none" />
<path d="M36.623538263200096,242.24722174894788 L-2.2975490103629546,-244.98922684180417" stroke="#0d6d4d" stroke-width="0.1" fill="none" />
<path d="M34.35019370906201,242.5800160609895 L45.68271330146189,-240.70332300451614" stroke="#0d6d4d" stroke-width="0.1" fill="none" />
<path d="M32.07382825638609,242.89147688006645 L91.8969519018166,-227.1121974512932" stroke="#0d6d4d" stroke-width="0.1" fill="none" />
<path d="M29.794642098193837,243.1815768150222 L134.55859512545953,-204.74126227476145" stroke="#0d6d4d" stroke-width="0.1" fill="none" />
<path d="M27.512835675571164,243.45029035326496 L172.0184092019261,-174.45534355713704" stroke="#0d6d4d" stroke-width="0.1" fill="none" />
<path d="M25.228609660041265,243.69759386301143 L202.82825510651023,-137.42524851877988" stroke="#0d6d4d" stroke-width="0.1" fill="none" />
<path d="M22.94216493591603,243.92346559536503 L225.79707139644762,-95.08250390470124" stroke="#0d6d4d" stroke-width="0.1" fill="none" />
<path d="M20.6537025826299,244.12788568622852 L240.03691882161664,-49.06401535366451" stroke="#0d6d4d" stroke-width="0.1" fill="none" />
<path d="M18.36342385705578,244.31083615805116 L244.99730669564718,-1.148787133889115" stroke="#0d6d4d" stroke-width="0.1" fill="none" />
<path d="M16.071530175806647,244.47230092140936 L240.4864740225184,46.81085143656952" stroke="#0d6d4d" stroke-width="0.1" fill="none" />
<path d="M13.778223097520291,244.6122657764221 L226.67880268289156,92.96085420353403" stroke="#0d6d4d" stroke-width="0.1" fill="none" />
<path d="M11.483704305135376,244.73071841399928 L204.10807609775244,135.51713276067383" stroke="#0d6d4d" stroke-width="0.1" fill="none" />
<path d="M9.18817558815318,244.82764841692463 L173.64684397909858,172.8345265741154" stroke="#0d6d4d" stroke-width="0.1" fill="none" />
<path d="M6.8918388248922735,244.90304726077156 L136.47269089479795,203.47040236833692" stroke="#0d6d4d" stroke-width="0.1" fill="none" />
<path d="M4.594895964734271,244.9569083146529 L94.02271265322483,226.2404241185229" stroke="#0d6d4d" stroke-width="0.1" fill="none" />
<path d="M2.297549010362816,244.98922684180417 L47.93796038090223,240.2643376669102" stroke="#0d6d4d" stroke-width="0.1" fill="none" />
<path d="M3.0003846579110155e-14,245.0 L3.0003846579110155e-14,245.0" stroke="#0d6d4d" stroke-width="0.1" fill="none" />
<path d="M-2.297549010362865,244.98922684180417 L-47.937960380902176,240.26433766691022" stroke="#0d6d4d" stroke-width="0.1" fill="none" />
<path d="M-4.594895964734103,244.9569083146529 L-94.02271265322469,226.24042411852295" stroke="#0d6d4d" stroke-width="0.1" fill="none" />
<path d="M-6.891838824892322,244.90304726077156 L-136.472690894798,203.4704023683369" stroke="#0d6d4d" stroke-width="0.1" fill="none" />
<path d="M-9.18817558815312,244.82764841692466 L-173.6468439790986,172.8345265741154" stroke="#0d6d4d" stroke-width="0.1" fill="none" />
<path d="M-11.483704305135316,244.7307184139993 L-204.10807609775244,135.51713276067383" stroke="#0d6d4d" stroke-width="0.1" fill="none" />
<path d="M-13.778223097520122,244.6122657764221 L-226.6788026828916,92.960854203534" stroke="#0d6d4d" stroke-width="0.1" fill="none" />
<path d="M-16.07153017580648,244.47230092140938 L-240.48647402251842,46.81085143656948" stroke="#0d6d4d" stroke-width="0.1" fill="none" />
<path d="M-18.363423857055828,244.31083615805116 L-244.99730669564718,-1.1487871338891091" stroke="#0d6d4d" stroke-width="0.1" fill="none" />
<path d="M-20.65370258262973,244.12788568622855 L-240.03691882161667,-49.06401535366445" stroke="#0d6d4d" stroke-width="0.1" fill="none" />
<path d="M-22.94216493591597,243.92346559536503 L-225.79707139644768,-95.08250390470113" stroke="#0d6d4d" stroke-width="0.1" fill="none" />
<path d="M-25.228609660041094,243.69759386301146 L-202.82825510651014,-137.42524851878" stroke="#0d6d4d" stroke-width="0.1" fill="none" />
<path d="M-27.512835675571104,243.45029035326496 L-172.01840920192612,-174.45534355713698" stroke="#0d6d4d" stroke-width="0.1" fill="none" />
<path d="M-29.794642098193666,243.18157681502223 L-134.55859512545965,-204.74126227476137" stroke="#0d6d4d" stroke-width="0.1" fill="none" />
<path d="M-32.073828256386044,242.89147688006645 L-91.89695190181676,-227.11219745129316" stroke="#0d6d4d" stroke-width="0.1" fill="none" />
<path d="M-34.35019370906196,242.5800160609895 L-45.682713301462066,-240.7033230045161" stroke="#0d6d4d" stroke-width="0.1" fill="none" />
<path d="M-36.623538263200146,242.24722174894785 L2.2975490103628236,-244.98922684180417" stroke="#0d6d4d" stroke-width="0.1" fill="none" />
<path d="M-38.89366199144914,241.893123211254 L50.188991597234036,-239.80422248670428" stroke="#0d6d4d" stroke-width="0.1" fill="none" />
<path d="M-41.16036524971101,241.51775158880224 L96.14020465722541,-225.34875426428877" stroke="#0d6d4d" stroke-width="0.1" fill="none" />
<path d="M-43.4234486946975,241.12113989333034 L138.3747846895371,-202.1816484306235" stroke="#0d6d4d" stroke-width="0.1" fill="none" />
<path d="M-45.682713301461874,240.70332300451616 L175.26000753243122,-171.1985098058162" stroke="#0d6d4d" stroke-width="0.1" fill="none" />
<path d="M-47.937960380902176,240.26433766691022 L205.3699469780326,-133.59709906371498" stroke="#0d6d4d" stroke-width="0.1" fill="none" />
<path d="M-50.18899159723395,239.8042224867043 L227.54059889504202,-90.83102913919666" stroke="#0d6d4d" stroke-width="0.1" fill="none" />
<path d="M-52.43560898543397,239.32301792833607 L240.91487984522752,-44.55357077900258" stroke="#0d6d4d" stroke-width="0.1" fill="none" />
<path d="M-54.67761496864862,238.8207663109308 L244.97576061611588,3.4462603725609986" stroke="#0d6d4d" stroke-width="0.1" fill="none" />
<path d="M-56.914812375570904,238.2975118045792 L239.56625377827154,51.312864377705395" stroke="#0d6d4d" stroke-width="0.1" fill="none" />
<path d="M-59.14700445777944,237.75330042645342 L224.89548257881756,97.19579165602163" stroke="#0d6d4d" stroke-width="0.1" fill="none" />
<path d="M-61.373994907042615,237.18818003675966 L201.53059655707335,139.3212785304174" stroke="#0d6d4d" stroke-width="0.1" fill="none" />
<path d="M-63.59558787258135,236.6022003345294 L170.37484641222346,176.06081821351185" stroke="#0d6d4d" stroke-width="0.1" fill="none" />
<path d="M-65.81158797829379,235.99541285324867 L132.63266571504445,205.99411638520473" stroke="#0d6d4d" stroke-width="0.1" fill="none" />
<path d="M-68.02180033993768,235.36787095632585 L89.76310935122025,227.96399759523626" stroke="#0d6d4d" stroke-width="0.1" fill="none" />
<path d="M-70.2260305822685,234.71962983239874 L43.42344869469745,241.12113989333034" stroke="#0d6d4d" stroke-width="0.1" fill="none" />
<path d="M-72.4240848561348,234.05074649048095 L-4.594895964734103,244.9569083146529" stroke="#0d6d4d" stroke-width="0.1" fill="none" />
<path d="M-74.61576985552473,233.36127975494855 L-52.43560898543397,239.32301792833607" stroke="#0d6d4d" stroke-width="0.1" fill="none" />
<path d="M-76.80089283456735,232.6512902603665 L-98.24924169278727,224.43726630573693" stroke="#0d6d4d" stroke-width="0.1" fill="none" />
<path d="M-78.97926162448253,231.9208404461564 L-140.26470923165766,200.875113799989" stroke="#0d6d4d" stroke-width="0.1" fill="none" />
<path d="M-81.15068465048233,231.1699945511051 L-176.8577579936287,169.5474371303414" stroke="#0d6d4d" stroke-width="0.1" fill="none" />
<path d="M-83.31497094861702,230.39881860771573 L-206.61375677319063,131.66531628363188" stroke="#0d6d4d" stroke-width="0.1" fill="none" />
<path d="M-85.47193018257141,229.6073804363998 L-228.382384242965,88.69321601734086" stroke="#0d6d4d" stroke-width="0.1" fill="none" />
<path d="M-87.62137266040207,228.79574963951353 L-241.32209861395862,42.29237189558929" stroke="#0d6d4d" stroke-width="0.1" fill="none" />
<path d="M-89.76310935122031,227.96399759523624 L-244.9326703519049,-5.743430532798724" stroke="#0d6d4d" stroke-width="0.1" fill="none" />
<path d="M-91.89695190181669,227.11219745129318 L-239.07452028471965,-53.55720073557966" stroke="#0d6d4d" stroke-width="0.1" fill="none" />
<path d="M-94.02271265322469,226.24042411852295 L-223.97411551946223,-99.30053160620336" stroke="#0d6d4d" stroke-width="0.1" fill="none" />
<path d="M-96.14020465722541,225.34875426428877 L-200.215214570918,-141.20505605084142" stroke="#0d6d4d" stroke-width="0.1" fill="none" />
<path d="M-98.24924169278727,224.43726630573693 L-168.71630015172093,-177.6508093511381" stroke="#0d6d4d" stroke-width="0.1" fill="none" />
<path d="M-100.34963828244409,223.50604040289969 L-130.69507203777474,-207.22885451847884" stroke="#0d6d4d" stroke-width="0.1" fill="none" />
<path d="M-102.44120970860594,222.55515845164638 L-87.62137266040205,-228.79574963951353" stroke="#0d6d4d" stroke-width="0.1" fill="none" />
<path d="M-104.523772029805,221.5847040764803 L-41.16036524971131,-241.51775158880218" stroke="#0d6d4d" stroke-width="0.1" fill="none" />
<path d="M-106.59714209687091,220.5947626231854 L6.891838824892355,-244.90304726077156" stroke="#0d6d4d" stroke-width="0.1" fill="none" />
<path d="M-108.66113756903869,219.5854211513197 L54.677614968648676,-238.82076631093076" stroke="#0d6d4d" stroke-width="0.1" fill="none" />
<path d="M-110.71557692998385,218.55676842655967 L100.34963828244406,-223.50604040289969" stroke="#0d6d4d" stroke-width="0.1" fill="none" />
<path d="M-112.76027950378588,217.50889491289337 L142.14229831335493,-199.55091337850902" stroke="#0d6d4d" stroke-width="0.1" fill="none" />
<path d="M-114.7950654708183,216.44189276466452 L178.43995484988727,-167.88145374987133" stroke="#0d6d4d" stroke-width="0.1" fill="none" />
<path d="M-116.81975588356151,215.35585581846874 L207.83939609743314,-129.7219543094163" stroke="#0d6d4d" stroke-width="0.1" fill="none" />
<path d="M-118.83417268234129,214.2508795849004 L229.2040846965648,-86.54760284612135" stroke="#0d6d4d" stroke-width="0.1" fill="none" />
<path d="M-120.83813871098718,213.1270612401537 L241.70809451620391,-40.0274536455399" stroke="#0d6d4d" stroke-width="0.1" fill="none" />
<path d="M-122.83147773241349,211.98449961747585 L244.8680396925508,8.040095591928674" stroke="#0d6d4d" stroke-width="0.1" fill="none" />
<path d="M-124.81401444411694,210.82329519847605 L238.56176158604435,55.796827051037006" stroke="#0d6d4d" stroke-width="0.1" fill="none" />
<path d="M-126.78557449359465,209.64355010428812 L223.03305124722303,101.39653865568388" stroke="#0d6d4d" stroke-width="0.1" fill="none" />
<path d="M-128.7459844936766,208.44536808659 L198.88222482819307,143.07641541284175" stroke="#0d6d4d" stroke-width="0.1" fill="none" />
<path d="M-130.69507203777476,207.22885451847884 L167.04291627985722,179.2251771395989" stroke="#0d6d4d" stroke-width="0.1" fill="none" />
<path d="M-132.63266571504448,205.9941163852047 L128.74598449367664,208.44536808658995" stroke="#0d6d4d" stroke-width="0.1" fill="none" />
<path d="M-134.5585951254595,204.74126227476148 L85.47193018257147,229.60738043639978" stroke="#0d6d4d" stroke-width="0.1" fill="none" />
<path d="M-136.472690894798,203.4704023683369 L38.89366199144931,241.89312321125396" stroke="#0d6d4d" stroke-width="0.1" fill="none" />
<path d="M-138.37478468953708,202.1816484306235 L-9.18817558815312,244.82764841692466" stroke="#0d6d4d" stroke-width="0.1" fill="none" />
<path d="M-140.26470923165766,200.875113799989 L-56.914812375570904,238.2975118045792" stroke="#0d6d4d" stroke-width="0.1" fill="none" />
<path d="M-142.14229831335484,199.55091337850908 L-102.44120970860594,222.55515845164638" stroke="#0d6d4d" stroke-width="0.1" fill="none" />
<path d="M-144.0073868116559,198.20916362186213 L-144.0073868116559,198.20916362186213" stroke="#0d6d4d" stroke-width="0.1" fill="none" />
<path d="M-145.85981070294062,196.8499825290882 L-180.00645895625146,166.2007061778961" stroke="#0d6d4d" stroke-width="0.1" fill="none" />
<path d="M-147.6994070773673,195.47348963221108 L-209.0467571629533,127.76718404838246" stroke="#0d6d4d" stroke-width="0.1" fill="none" />
<path d="M-149.52601415319896,194.07980598572678 L-230.00562799209465,84.39437831966166" stroke="#0d6d4d" stroke-width="0.1" fill="none" />
<path d="M-151.33947129103186,192.66905415595662 L-242.07283360588235,37.7590152151615" stroke="#0d6d4d" stroke-width="0.1" fill="none" />
<path d="M-153.139619007922,191.2413582102692 L-244.78187432194198,-10.336053571697466" stroke="#0d6d4d" stroke-width="0.1" fill="none" />
<path d="M-154.92629899141104,189.7968437061689 L-238.02802277637275,-58.031546362048395" stroke="#0d6d4d" stroke-width="0.1" fill="none" />
<path d="M-156.69935411344935,188.3356376802537 L-222.07237252319618,-103.48362847290764" stroke="#0d6d4d" stroke-width="0.1" fill="none" />
<path d="M-158.4586284442136,186.85786863704365 L-197.53174455754635,-144.93519204131297" stroke="#0d6d4d" stroke-width="0.1" fill="none" />
<path d="M-160.2039672658211,185.36366653767865 L-165.35484196095211,-180.7837831224597" stroke="#0d6d4d" stroke-width="0.1" fill="none" />
<path d="M-161.935217085935,183.8531627884903 L-126.78557449359471,-209.64355010428807" stroke="#0d6d4d" stroke-width="0.1" fill="none" />
<path d="M-163.65222565126413,182.32649022944452 L-83.3149709486172,-230.39881860771567" stroke="#0d6d4d" stroke-width="0.1" fill="none" />
<path d="M-165.35484196095197,180.78378312245988 L-36.623538263200025,-242.24722174894788" stroke="#0d6d4d" stroke-width="0.1" fill="none" />
<path d="M-167.04291627985725,179.2251771395989 L11.483704305135316,-244.7307184139993" stroke="#0d6d4d" stroke-width="0.1" fill="none" />
<path d="M-168.71630015172101,177.650809351138 L59.14700445777957,-237.7533004264534" stroke="#0d6d4d" stroke-width="0.1" fill="none" />
<path d="M-170.37484641222343,176.06081821351188 L104.52377202980506,-221.58470407648028" stroke="#0d6d4d" stroke-width="0.1" fill="none" />
<path d="M-172.0184092019261,174.45534355713704 L145.85981070294065,-196.84998252908815" stroke="#0d6d4d" stroke-width="0.1" fill="none" />
<path d="M-173.6468439790986,172.8345265741154 L181.5571325478516,-164.50534222632967" stroke="#0d6d4d" stroke-width="0.1" fill="none" />
<path d="M-175.26000753243125,171.19850980581617 L210.23573378941035,-125.80117741113627" stroke="#0d6d4d" stroke-width="0.1" fill="none" />
<path d="M-176.8577579936287,169.5474371303414 L230.78694363851196,-82.23373180145913" stroke="#0d6d4d" stroke-width="0.1" fill="none" />
<path d="M-178.43995484988727,167.88145374987133 L242.41628380632525,-35.48725610034058" stroke="#0d6d4d" stroke-width="0.1" fill="none" />
<path d="M-180.00645895625146,166.2007061778961 L244.6741818178185,12.631102556035877" stroke="#0d6d4d" stroke-width="0.1" fill="none" />
<path d="M-181.5571325478516,164.50534222632967 L237.4733507949101,60.26116213812657" stroke="#0d6d4d" stroke-width="0.1" fill="none" />
<path d="M-183.0918392520188,162.79551099251142 L221.09216383345415,105.56161751053773" stroke="#0d6d4d" stroke-width="0.1" fill="none" />
<path d="M-184.61044410027895,161.07136284609308 L196.16389252581538,146.78122246772696" stroke="#0d6d4d" stroke-width="0.1" fill="none" />
<path d="M-186.1128135402216,159.3330494158155 L163.6522256512642,182.32649022944446" stroke="#0d6d4d" stroke-width="0.1" fill="none" />
<path d="M-187.5988154472454,157.58072357617334 L124.81401444411706,210.82329519847596" stroke="#0d6d4d" stroke-width="0.1" fill="none" />
<path d="M-189.06831913617825,155.8145394339702 L81.15068465048228,231.16999455110513" stroke="#0d6d4d" stroke-width="0.1" fill="none" />
<path d="M-190.52119537276923,154.0346523147668 L34.35019370906201,242.5800160609895" stroke="#0d6d4d" stroke-width="0.1" fill="none" />
<path d="M-191.95731638505487,152.2412187492203 L-13.778223097520122,244.6122657764221" stroke="#0d6d4d" stroke-width="0.1" fill="none" />
<path d="M-193.3765558745953,150.4343964593188 L-61.373994907042615,237.18818003675966" stroke="#0d6d4d" stroke-width="0.1" fill="none" />
<path d="M-194.77878902758243,148.61434434450976 L-106.59714209687091,220.5947626231854" stroke="#0d6d4d" stroke-width="0.1" fill="none" />
<path d="M-196.16389252581527,146.7812224677271 L-147.6994070773673,195.47348963221108" stroke="#0d6d4d" stroke-width="0.1" fill="none" />
<path d="M-197.53174455754626,144.93519204131306 L-183.0918392520188,162.79551099251142" stroke="#0d6d4d" stroke-width="0.1" fill="none" />
<path d="M-198.88222482819302,143.07641541284184 L-211.40622141326713,123.82410729645774" stroke="#0d6d4d" stroke-width="0.1" fill="none" />
<path d="M-200.21521457091805,141.2050560508413 L-231.54796292367735,80.06585330773255" stroke="#0d6d4d" stroke-width="0.1" fill="none" />
<path d="M-201.53059655707344,139.3212785304173 L-242.73841491309727,33.21237608899785" stroke="#0d6d4d" stroke-width="0.1" fill="none" />
<path d="M-202.82825510651023,137.42524851877988 L-244.54497165110595,-14.925040708814853" stroke="#0d6d4d" stroke-width="0.1" fill="none" />
<path d="M-204.10807609775244,135.51713276067383 L-236.8977944218114,-62.48547829761069" stroke="#0d6d4d" stroke-width="0.1" fill="none" />
<path d="M-205.36994697803254,133.59709906371506 L-220.09251138161554,-107.63032302159759" stroke="#0d6d4d" stroke-width="0.1" fill="none" />
<path d="M-206.61375677319063,131.66531628363188 L-194.77878902758252,-148.6143443445097" stroke="#0d6d4d" stroke-width="0.1" fill="none" />
<path d="M-207.83939609743308,129.72195430941645 L-161.93521708593514,-183.85316278849015" stroke="#0d6d4d" stroke-width="0.1" fill="none" />
<path d="M-209.0467571629533,127.76718404838246 L-122.83147773241346,-211.98449961747585" stroke="#0d6d4d" stroke-width="0.1" fill="none" />
<path d="M-210.23573378941032,125.8011774111363 L-78.97926162448282,-231.92084044615632" stroke="#0d6d4d" stroke-width="0.1" fill="none" />
<path d="M-211.40622141326713,123.82410729645774 L-32.073828256386236,-242.89147688006642" stroke="#0d6d4d" stroke-width="0.1" fill="none" />
<path d="M-212.5581170969861,121.83614757609476 L16.071530175806554,-244.47230092140936" stroke="#0d6d4d" stroke-width="0.1" fill="none" />
<path d="M-213.69131953808238,119.83747307947196 L63.59558787258133,-236.6022003345294" stroke="#0d6d4d" stroke-width="0.1" fill="none" />
<path d="M-214.80572907803207,117.8282595783163 L108.66113756903869,-219.5854211513197" stroke="#0d6d4d" stroke-width="0.1" fill="none" />
<path d="M-215.90124771103692,115.80868377119857 L149.52601415319907,-194.07980598572672" stroke="#0d6d4d" stroke-width="0.1" fill="none" />
<path d="M-216.97777909264377,113.77892326799316 L184.610444100279,-161.07136284609305" stroke="#0d6d4d" stroke-width="0.1" fill="none" />
<path d="M-218.0352285482167,111.73915657425962 L212.55811709698614,-121.8361475760947" stroke="#0d6d4d" stroke-width="0.1" fill="none" />
<path d="M-219.07350308126388,109.68956307554272 L232.28861892039797,-77.89093349070959" stroke="#0d6d4d" stroke-width="0.1" fill="none" />
<path d="M-220.09251138161548,107.63032302159768 L243.03919859665243,-30.934575243519102" stroke="#0d6d4d" stroke-width="0.1" fill="none" />
<path d="M-221.09216383345415,105.5616175105377 L244.39425518508247,17.217666291596753" stroke="#0d6d4d" stroke-width="0.1" fill="none" />
<path d="M-222.07237252319615,103.48362847290771 L236.30140427389193,64.70429922490997" stroke="#0d6d4d" stroke-width="0.1" fill="none" />
<path d="M-223.033051247223,101.39653865568393 L219.07350308126396,109.68956307554257" stroke="#0d6d4d" stroke-width="0.1" fill="none" />
<path d="M-223.9741155194621,99.30053160620363 L193.37655587459545,150.43439645931863" stroke="#0d6d4d" stroke-width="0.1" fill="none" />
<path d="M-224.89548257881754,97.19579165602173 L160.20396726582112,185.36366653767863" stroke="#0d6d4d" stroke-width="0.1" fill="none" />
<path d="M-225.79707139644765,95.08250390470121 L120.83813871098734,213.1270612401536" stroke="#0d6d4d" stroke-width="0.1" fill="none" />
<path d="M-226.6788026828916,92.960854203534 L76.8008928345674,232.65129026036647" stroke="#0d6d4d" stroke-width="0.1" fill="none" />
<path d="M-227.54059889504208,90.83102913919652 L29.794642098193837,243.1815768150222" stroke="#0d6d4d" stroke-width="0.1" fill="none" />
<path d="M-228.382384242965,88.69321601734086 L-18.363423857055828,244.31083615805116" stroke="#0d6d4d" stroke-width="0.1" fill="none" />
<path d="M-229.20408469656482,86.54760284612128 L-65.81158797829379,235.99541285324867" stroke="#0d6d4d" stroke-width="0.1" fill="none" />
<path d="M-230.00562799209465,84.39437831966166 L-110.71557692998385,218.55676842655967" stroke="#0d6d4d" stroke-width="0.1" fill="none" />
<path d="M-230.78694363851193,82.23373180145916 L-151.33947129103186,192.66905415595662" stroke="#0d6d4d" stroke-width="0.1" fill="none" />
<path d="M-231.54796292367735,80.06585330773255 L-186.1128135402216,159.3330494158155" stroke="#0d6d4d" stroke-width="0.1" fill="none" />
<path d="M-232.28861892039794,77.89093349070967 L-213.69131953808238,119.83747307947196" stroke="#0d6d4d" stroke-width="0.1" fill="none" />
<path d="M-233.0088464923126,75.70916362186215 L-233.0088464923126,75.70916362186215" stroke="#0d6d4d" stroke-width="0.1" fill="none" />
<path d="M-233.70858229962087,73.52073557508344 L-243.31860840482577,28.654053883160266" stroke="#0d6d4d" stroke-width="0.1" fill="none" />
<path d="M-234.3877648046529,71.32584180981473 L-244.2220456743793,-19.50877768137678" stroke="#0d6d4d" stroke-width="0.1" fill="none" />
<path d="M-235.04633427728155,69.12467535411956 L-235.68423280017544,-66.91742978770715" stroke="#0d6d4d" stroke-width="0.1" fill="none" />
<path d="M-235.6842328001754,66.91742978770723 L-218.03522854821685,-111.73915657425937" stroke="#0d6d4d" stroke-width="0.1" fill="none" />
<path d="M-236.30140427389188,64.70429922491013 L-191.95731638505478,-152.2412187492204" stroke="#0d6d4d" stroke-width="0.1" fill="none" />
<path d="M-236.8977944218114,62.485478297610776 L-158.45862844421382,-186.85786863704348" stroke="#0d6d4d" stroke-width="0.1" fill="none" />
<path d="M-237.47335079491003,60.26116213812679 L-118.83417268234126,-214.25087958490042" stroke="#0d6d4d" stroke-width="0.1" fill="none" />
<path d="M-238.02802277637272,58.03154636204848 L-74.61576985552482,-233.36127975494853" stroke="#0d6d4d" stroke-width="0.1" fill="none" />
<path d="M-238.56176158604433,55.79682705103706 L-27.512835675571193,-243.45029035326496" stroke="#0d6d4d" stroke-width="0.1" fill="none" />
<path d="M-239.07452028471968,53.55720073557955 L20.65370258262977,-244.12788568622852" stroke="#0d6d4d" stroke-width="0.1" fill="none" />
<path d="M-239.56625377827152,51.3128643777055 L68.02180033993764,-235.36787095632585" stroke="#0d6d4d" stroke-width="0.1" fill="none" />
<path d="M-240.03691882161664,49.064015353664544 L112.76027950378594,-217.5088949128933" stroke="#0d6d4d" stroke-width="0.1" fill="none" />
<path d="M-240.48647402251842,46.81085143656948 L153.139619007922,-191.2413582102692" stroke="#0d6d4d" stroke-width="0.1" fill="none" />
<path d="M-240.9148798452275,44.55357077900272 L187.5988154472455,-157.58072357617326" stroke="#0d6d4d" stroke-width="0.1" fill="none" />
<path d="M-241.32209861395862,42.29237189558929 L214.80572907803204,-117.82825957831638" stroke="#0d6d4d" stroke-width="0.1" fill="none" />
<path d="M-241.70809451620391,40.02745364553988 L233.70858229962084,-73.52073557508352" stroke="#0d6d4d" stroke-width="0.1" fill="none" />
<path d="M-242.07283360588235,37.7590152151615 L243.57661976515968,-26.371012566430416" stroke="#0d6d4d" stroke-width="0.1" fill="none" />
<path d="M-242.41628380632525,35.487256100340616 L244.02835826381525,21.798173388314783" stroke="#0d6d4d" stroke-width="0.1" fill="none" />
<path d="M-242.73841491309727,33.21237608899785 L235.04633427728155,69.12467535411956" stroke="#0d6d4d" stroke-width="0.1" fill="none" />
<path d="M-243.0391985966524,30.934575243519244 L216.97777909264374,113.77892326799319" stroke="#0d6d4d" stroke-width="0.1" fill="none" />
<path d="M-243.31860840482577,28.654053883160266 L190.52119537276928,154.03465231476673" stroke="#0d6d4d" stroke-width="0.1" fill="none" />
<path d="M-243.57661976515968,26.37101256643039 L156.69935411344937,188.3356376802537" stroke="#0d6d4d" stroke-width="0.1" fill="none" />
<path d="M-243.81320998706468,24.08565207345451 L116.81975588356165,215.35585581846865" stroke="#0d6d4d" stroke-width="0.1" fill="none" />
<path d="M-244.02835826381525,21.79817338831484 L72.42408485613485,234.05074649048092" stroke="#0d6d4d" stroke-width="0.1" fill="none" />
<path d="M-244.2220456743793,19.50877768137687 L25.228609660041265,243.69759386301143" stroke="#0d6d4d" stroke-width="0.1" fill="none" />
<path d="M-244.39425518508247,17.217666291596704 L-22.94216493591597,243.92346559536503" stroke="#0d6d4d" stroke-width="0.1" fill="none" />
<path d="M-244.54497165110595,14.92504070881494 L-70.2260305822685,234.71962983239874" stroke="#0d6d4d" stroke-width="0.1" fill="none" />
<path d="M-244.6741818178185,12.631102556035938 L-114.7950654708183,216.44189276466452" stroke="#0d6d4d" stroke-width="0.1" fill="none" />
<path d="M-244.78187432194198,10.336053571697772 L-154.92629899141104,189.7968437061689" stroke="#0d6d4d" stroke-width="0.1" fill="none" />
<path d="M-244.8680396925508,8.040095591928788 L-189.06831913617825,155.8145394339702" stroke="#0d6d4d" stroke-width="0.1" fill="none" />
<path d="M-244.9326703519049,5.7434305327990325 L-215.90124771103692,115.80868377119857" stroke="#0d6d4d" stroke-width="0.1" fill="none" />
<path d="M-244.97576061611588,3.4462603725609497 L-234.3877648046529,71.32584180981473" stroke="#0d6d4d" stroke-width="0.1" fill="none" />
<path d="M-244.99730669564718,1.1487871338889817 L-243.81320998706468,24.08565207345451" stroke="#0d6d4d" stroke-width="0.1" fill="none" />
<path d="M-244.99730669564718,-1.1487871338891091 L-243.81320998706468,-24.085652073454423" stroke="#0d6d4d" stroke-width="0.1" fill="none" />
<path d="M-244.97576061611588,-3.446260372561077 L-234.38776480465287,-71.32584180981486" stroke="#0d6d4d" stroke-width="0.1" fill="none" />
<path d="M-244.9326703519049,-5.743430532798724 L-215.90124771103697,-115.80868377119849" stroke="#0d6d4d" stroke-width="0.1" fill="none" />
<path d="M-244.8680396925508,-8.040095591928699 L-189.0683191361783,-155.8145394339701" stroke="#0d6d4d" stroke-width="0.1" fill="none" />
<path d="M-244.78187432194198,-10.336053571697466 L-154.9262989914111,-189.79684370616883" stroke="#0d6d4d" stroke-width="0.1" fill="none" />
<path d="M-244.6741818178185,-12.631102556035849 L-114.79506547081839,-216.4418927646645" stroke="#0d6d4d" stroke-width="0.1" fill="none" />
<path d="M-244.54497165110595,-14.925040708814853 L-70.22603058226868,-234.7196298323987" stroke="#0d6d4d" stroke-width="0.1" fill="none" />
<path d="M-244.39425518508247,-17.21766629159683 L-22.94216493591606,-243.92346559536503" stroke="#0d6d4d" stroke-width="0.1" fill="none" />
<path d="M-244.2220456743793,-19.50877768137678 L25.228609660041204,-243.69759386301143" stroke="#0d6d4d" stroke-width="0.1" fill="none" />
<path d="M-244.02835826381525,-21.798173388314755 L72.42408485613483,-234.05074649048095" stroke="#0d6d4d" stroke-width="0.1" fill="none" />
<path d="M-243.81320998706468,-24.085652073454423 L116.81975588356156,-215.3558558184687" stroke="#0d6d4d" stroke-width="0.1" fill="none" />
<path d="M-243.57661976515968,-26.371012566430302 L156.69935411344932,-188.33563768025374" stroke="#0d6d4d" stroke-width="0.1" fill="none" />
<path d="M-243.3186084048258,-28.654053883160177 L190.52119537276923,-154.0346523147668" stroke="#0d6d4d" stroke-width="0.1" fill="none" />
<path d="M-243.03919859665243,-30.934575243518932 L216.97777909264377,-113.77892326799314" stroke="#0d6d4d" stroke-width="0.1" fill="none" />
<path d="M-242.7384149130973,-33.21237608899775 L235.04633427728155,-69.12467535411953" stroke="#0d6d4d" stroke-width="0.1" fill="none" />
<path d="M-242.41628380632528,-35.487256100340524 L244.02835826381525,-21.79817338831476" stroke="#0d6d4d" stroke-width="0.1" fill="none" />
<path d="M-242.07283360588232,-37.75901521516162 L243.57661976515968,26.371012566430387" stroke="#0d6d4d" stroke-width="0.1" fill="none" />
<path d="M-241.70809451620391,-40.027453645539794 L233.70858229962087,73.52073557508349" stroke="#0d6d4d" stroke-width="0.1" fill="none" />
<path d="M-241.32209861395862,-42.2923718955892 L214.80572907803207,117.82825957831632" stroke="#0d6d4d" stroke-width="0.1" fill="none" />
<path d="M-240.91487984522755,-44.55357077900241 L187.59881544724553,157.5807235761732" stroke="#0d6d4d" stroke-width="0.1" fill="none" />
<path d="M-240.48647402251842,-46.81085143656938 L153.13961900792197,191.24135821026923" stroke="#0d6d4d" stroke-width="0.1" fill="none" />
<path d="M-240.03691882161667,-49.06401535366445 L112.76027950378594,217.50889491289334" stroke="#0d6d4d" stroke-width="0.1" fill="none" />
<path d="M-239.56625377827154,-51.31286437770542 L68.02180033993764,235.36787095632585" stroke="#0d6d4d" stroke-width="0.1" fill="none" />
<path d="M-239.07452028471965,-53.55720073557966 L20.6537025826299,244.12788568622852" stroke="#0d6d4d" stroke-width="0.1" fill="none" />
<path d="M-238.56176158604435,-55.79682705103697 L-27.512835675571104,243.45029035326496" stroke="#0d6d4d" stroke-width="0.1" fill="none" />
<path d="M-238.02802277637275,-58.031546362048395 L-74.61576985552473,233.36127975494855" stroke="#0d6d4d" stroke-width="0.1" fill="none" />
<path d="M-237.47335079491012,-60.26116213812649 L-118.83417268234129,214.2508795849004" stroke="#0d6d4d" stroke-width="0.1" fill="none" />
<path d="M-236.8977944218114,-62.48547829761069 L-158.4586284442136,186.85786863704365" stroke="#0d6d4d" stroke-width="0.1" fill="none" />
<path d="M-236.30140427389196,-64.70429922490983 L-191.95731638505487,152.2412187492203" stroke="#0d6d4d" stroke-width="0.1" fill="none" />
<path d="M-235.68423280017544,-66.91742978770715 L-218.0352285482167,111.73915657425962" stroke="#0d6d4d" stroke-width="0.1" fill="none" />
<path d="M-235.04633427728157,-69.12467535411949 L-235.6842328001754,66.91742978770723" stroke="#0d6d4d" stroke-width="0.1" fill="none" />
<path d="M-234.38776480465287,-71.32584180981486 L-244.2220456743793,19.50877768137687" stroke="#0d6d4d" stroke-width="0.1" fill="none" />
<path d="M-233.70858229962084,-73.52073557508358 L-243.3186084048258,-28.654053883160177" stroke="#0d6d4d" stroke-width="0.1" fill="none" />
<path d="M-233.00884649231264,-75.70916362186207 L-233.00884649231264,-75.70916362186207" stroke="#0d6d4d" stroke-width="0.1" fill="none" />
<path d="M-232.28861892039797,-77.89093349070959 L-213.69131953808244,-119.83747307947186" stroke="#0d6d4d" stroke-width="0.1" fill="none" />
<path d="M-231.5479629236774,-80.06585330773227 L-186.11281354022168,-159.33304941581545" stroke="#0d6d4d" stroke-width="0.1" fill="none" />
<path d="M-230.78694363851196,-82.2337318014591 L-151.33947129103186,-192.66905415595662" stroke="#0d6d4d" stroke-width="0.1" fill="none" />
<path d="M-230.00562799209473,-84.39437831966139 L-110.71557692998391,-218.55676842655964" stroke="#0d6d4d" stroke-width="0.1" fill="none" />
<path d="M-229.20408469656482,-86.54760284612121 L-65.81158797829376,-235.9954128532487" stroke="#0d6d4d" stroke-width="0.1" fill="none" />
<path d="M-228.38238424296503,-88.69321601734077 L-18.36342385705581,-244.31083615805116" stroke="#0d6d4d" stroke-width="0.1" fill="none" />
<path d="M-227.54059889504202,-90.83102913919666 L29.79464209819375,-243.1815768150222" stroke="#0d6d4d" stroke-width="0.1" fill="none" />
<path d="M-226.67880268289153,-92.96085420353411 L76.80089283456735,-232.6512902603665" stroke="#0d6d4d" stroke-width="0.1" fill="none" />
<path d="M-225.79707139644768,-95.08250390470113 L120.83813871098731,-213.12706124015364" stroke="#0d6d4d" stroke-width="0.1" fill="none" />
<path d="M-224.89548257881756,-97.19579165602165 L160.2039672658211,-185.36366653767863" stroke="#0d6d4d" stroke-width="0.1" fill="none" />
<path d="M-223.97411551946223,-99.30053160620336 L193.37655587459534,-150.43439645931875" stroke="#0d6d4d" stroke-width="0.1" fill="none" />
<path d="M-223.03305124722303,-101.39653865568386 L219.07350308126394,-109.68956307554264" stroke="#0d6d4d" stroke-width="0.1" fill="none" />
<path d="M-222.07237252319618,-103.48362847290764 L236.3014042738919,-64.70429922491005" stroke="#0d6d4d" stroke-width="0.1" fill="none" />
<path d="M-221.09216383345412,-105.56161751053781 L244.39425518508247,-17.21766629159678" stroke="#0d6d4d" stroke-width="0.1" fill="none" />
<path d="M-220.09251138161554,-107.63032302159759 L243.03919859665243,30.934575243519074" stroke="#0d6d4d" stroke-width="0.1" fill="none" />
<path d="M-219.07350308126394,-109.68956307554264 L232.28861892039797,77.89093349070956" stroke="#0d6d4d" stroke-width="0.1" fill="none" />
<path d="M-218.03522854821685,-111.73915657425937 L212.55811709698614,121.8361475760947" stroke="#0d6d4d" stroke-width="0.1" fill="none" />
<path d="M-216.9777790926438,-113.7789232679931 L184.610444100279,161.07136284609302" stroke="#0d6d4d" stroke-width="0.1" fill="none" />
<path d="M-215.90124771103697,-115.80868377119849 L149.5260141531991,194.0798059857267" stroke="#0d6d4d" stroke-width="0.1" fill="none" />
<path d="M-214.80572907803213,-117.8282595783162 L108.66113756903874,219.58542115131968" stroke="#0d6d4d" stroke-width="0.1" fill="none" />
<path d="M-213.69131953808244,-119.83747307947186 L63.59558787258129,236.6022003345294" stroke="#0d6d4d" stroke-width="0.1" fill="none" />
<path d="M-212.55811709698614,-121.83614757609467 L16.071530175806647,244.47230092140936" stroke="#0d6d4d" stroke-width="0.1" fill="none" />
<path d="M-211.40622141326708,-123.82410729645783 L-32.073828256386044,242.89147688006645" stroke="#0d6d4d" stroke-width="0.1" fill="none" />
<path d="M-210.23573378941038,-125.80117741113621 L-78.97926162448253,231.9208404461564" stroke="#0d6d4d" stroke-width="0.1" fill="none" />
<path d="M-209.04675716295336,-127.76718404838235 L-122.83147773241349,211.98449961747585" stroke="#0d6d4d" stroke-width="0.1" fill="none" />
<path d="M-207.83939609743325,-129.72195430941616 L-161.935217085935,183.8531627884903" stroke="#0d6d4d" stroke-width="0.1" fill="none" />
<path d="M-206.6137567731907,-131.6653162836318 L-194.77878902758243,148.61434434450976" stroke="#0d6d4d" stroke-width="0.1" fill="none" />
<path d="M-205.36994697803271,-133.59709906371478 L-220.09251138161548,107.63032302159768" stroke="#0d6d4d" stroke-width="0.1" fill="none" />
<path d="M-204.1080760977525,-135.51713276067372 L-236.8977944218114,62.485478297610776" stroke="#0d6d4d" stroke-width="0.1" fill="none" />
<path d="M-202.82825510651014,-137.42524851878 L-244.54497165110595,14.92504070881494" stroke="#0d6d4d" stroke-width="0.1" fill="none" />
<path d="M-201.53059655707335,-139.32127853041737 L-242.7384149130973,-33.21237608899775" stroke="#0d6d4d" stroke-width="0.1" fill="none" />
<path d="M-200.215214570918,-141.20505605084142 L-231.5479629236774,-80.06585330773227" stroke="#0d6d4d" stroke-width="0.1" fill="none" />
<path d="M-198.88222482819307,-143.07641541284173 L-211.40622141326708,-123.82410729645783" stroke="#0d6d4d" stroke-width="0.1" fill="none" />
<path d="M-197.53174455754635,-144.93519204131297 L-183.09183925201899,-162.7955109925112" stroke="#0d6d4d" stroke-width="0.1" fill="none" />
<path d="M-196.16389252581547,-146.78122246772685 L-147.6994070773673,-195.4734896322111" stroke="#0d6d4d" stroke-width="0.1" fill="none" />
<path d="M-194.77878902758252,-148.6143443445097 L-106.59714209687098,-220.59476262318537" stroke="#0d6d4d" stroke-width="0.1" fill="none" />
<path d="M-193.3765558745954,-150.43439645931872 L-61.37399490704269,-237.18818003675963" stroke="#0d6d4d" stroke-width="0.1" fill="none" />
<path d="M-191.95731638505478,-152.2412187492204 L-13.778223097520103,-244.6122657764221" stroke="#0d6d4d" stroke-width="0.1" fill="none" />
<path d="M-190.5211953727693,-154.0346523147667 L34.350193709062,-242.5800160609895" stroke="#0d6d4d" stroke-width="0.1" fill="none" />
<path d="M-189.0683191361783,-155.8145394339701 L81.15068465048229,-231.16999455110513" stroke="#0d6d4d" stroke-width="0.1" fill="none" />
<path d="M-187.5988154472455,-157.58072357617326 L124.81401444411699,-210.823295198476" stroke="#0d6d4d" stroke-width="0.1" fill="none" />
<path d="M-186.11281354022168,-159.33304941581545 L163.65222565126413,-182.32649022944452" stroke="#0d6d4d" stroke-width="0.1" fill="none" />
<path d="M-184.61044410027904,-161.071362846093 L196.16389252581536,-146.781222467727" stroke="#0d6d4d" stroke-width="0.1" fill="none" />
<path d="M-183.09183925201899,-162.7955109925112 L221.09216383345415,-105.56161751053776" stroke="#0d6d4d" stroke-width="0.1" fill="none" />
<path d="M-181.55713254785167,-164.5053422263296 L237.47335079491006,-60.26116213812665" stroke="#0d6d4d" stroke-width="0.1" fill="none" />
<path d="M-180.00645895625158,-166.20070617789602 L244.6741818178185,-12.631102556035962" stroke="#0d6d4d" stroke-width="0.1" fill="none" />
<path d="M-178.43995484988727,-167.88145374987133 L242.41628380632528,35.4872561003405" stroke="#0d6d4d" stroke-width="0.1" fill="none" />
<path d="M-176.85775799362884,-169.54743713034125 L230.78694363851196,82.23373180145913" stroke="#0d6d4d" stroke-width="0.1" fill="none" />
<path d="M-175.26000753243125,-171.19850980581617 L210.23573378941035,125.80117741113624" stroke="#0d6d4d" stroke-width="0.1" fill="none" />
<path d="M-173.64684397909872,-172.83452657411522 L181.55713254785167,164.50534222632962" stroke="#0d6d4d" stroke-width="0.1" fill="none" />
<path d="M-172.01840920192612,-174.45534355713698 L145.85981070294065,196.84998252908818" stroke="#0d6d4d" stroke-width="0.1" fill="none" />
<path d="M-170.3748464122235,-176.06081821351182 L104.52377202980506,221.58470407648028" stroke="#0d6d4d" stroke-width="0.1" fill="none" />
<path d="M-168.71630015172093,-177.6508093511381 L59.1470044577796,237.7533004264534" stroke="#0d6d4d" stroke-width="0.1" fill="none" />
<path d="M-167.04291627985717,-179.22517713959897 L11.483704305135376,244.73071841399928" stroke="#0d6d4d" stroke-width="0.1" fill="none" />
<path d="M-165.35484196095211,-180.7837831224597 L-36.623538263200146,242.24722174894785" stroke="#0d6d4d" stroke-width="0.1" fill="none" />
<path d="M-163.6522256512641,-182.32649022944452 L-83.31497094861702,230.39881860771573" stroke="#0d6d4d" stroke-width="0.1" fill="none" />
<path d="M-161.93521708593514,-183.85316278849015 L-126.78557449359465,209.64355010428812" stroke="#0d6d4d" stroke-width="0.1" fill="none" />
<path d="M-160.20396726582112,-185.3636665376786 L-165.35484196095197,180.78378312245988" stroke="#0d6d4d" stroke-width="0.1" fill="none" />
<path d="M-158.45862844421382,-186.85786863704348 L-197.53174455754626,144.93519204131306" stroke="#0d6d4d" stroke-width="0.1" fill="none" />
<path d="M-156.6993541134494,-188.33563768025368 L-222.07237252319615,103.48362847290771" stroke="#0d6d4d" stroke-width="0.1" fill="none" />
<path d="M-154.9262989914111,-189.79684370616883 L-238.02802277637272,58.03154636204848" stroke="#0d6d4d" stroke-width="0.1" fill="none" />
<path d="M-153.139619007922,-191.2413582102692 L-244.78187432194198,10.336053571697772" stroke="#0d6d4d" stroke-width="0.1" fill="none" />
<path d="M-151.33947129103186,-192.66905415595662 L-242.07283360588232,-37.75901521516162" stroke="#0d6d4d" stroke-width="0.1" fill="none" />
<path d="M-149.5260141531991,-194.07980598572667 L-230.00562799209473,-84.39437831966139" stroke="#0d6d4d" stroke-width="0.1" fill="none" />
<path d="M-147.6994070773673,-195.4734896322111 L-209.04675716295336,-127.76718404838235" stroke="#0d6d4d" stroke-width="0.1" fill="none" />
<path d="M-145.85981070294073,-196.8499825290881 L-180.00645895625158,-166.20070617789602" stroke="#0d6d4d" stroke-width="0.1" fill="none" />
<path d="M-144.00738681165595,-198.2091636218621 L-144.00738681165595,-198.2091636218621" stroke="#0d6d4d" stroke-width="0.1" fill="none" />
<path d="M-142.14229831335507,-199.5509133785089 L-102.44120970860611,-222.5551584516463" stroke="#0d6d4d" stroke-width="0.1" fill="none" />
<path d="M-140.26470923165772,-200.87511379998898 L-56.91481237557099,-238.29751180457916" stroke="#0d6d4d" stroke-width="0.1" fill="none" />
<path d="M-138.37478468953717,-202.1816484306235 L-9.18817558815332,-244.82764841692463" stroke="#0d6d4d" stroke-width="0.1" fill="none" />
<path d="M-136.47269089479798,-203.47040236833692 L38.893661991449264,-241.89312321125396" stroke="#0d6d4d" stroke-width="0.1" fill="none" />
<path d="M-134.55859512545965,-204.74126227476137 L85.47193018257144,-229.6073804363998" stroke="#0d6d4d" stroke-width="0.1" fill="none" />
<path d="M-132.63266571504445,-205.99411638520473 L128.74598449367664,-208.44536808658995" stroke="#0d6d4d" stroke-width="0.1" fill="none" />
<path d="M-130.69507203777474,-207.22885451847884 L167.04291627985725,-179.2251771395989" stroke="#0d6d4d" stroke-width="0.1" fill="none" />
<path d="M-128.74598449367676,-208.4453680865899 L198.88222482819302,-143.07641541284184" stroke="#0d6d4d" stroke-width="0.1" fill="none" />
<path d="M-126.78557449359471,-209.64355010428807 L223.033051247223,-101.39653865568391" stroke="#0d6d4d" stroke-width="0.1" fill="none" />
<path d="M-124.81401444411699,-210.823295198476 L238.56176158604433,-55.79682705103703" stroke="#0d6d4d" stroke-width="0.1" fill="none" />
<path d="M-122.83147773241346,-211.98449961747585 L244.8680396925508,-8.04009559192876" stroke="#0d6d4d" stroke-width="0.1" fill="none" />
<path d="M-120.83813871098734,-213.1270612401536 L241.70809451620391,40.02745364553982" stroke="#0d6d4d" stroke-width="0.1" fill="none" />
<path d="M-118.83417268234126,-214.25087958490042 L229.20408469656482,86.54760284612128" stroke="#0d6d4d" stroke-width="0.1" fill="none" />
<path d="M-116.81975588356168,-215.35585581846865 L207.8393960974332,129.72195430941628" stroke="#0d6d4d" stroke-width="0.1" fill="none" />
<path d="M-114.79506547081839,-216.4418927646645 L178.43995484988733,167.88145374987127" stroke="#0d6d4d" stroke-width="0.1" fill="none" />
<path d="M-112.76027950378594,-217.5088949128933 L142.14229831335498,199.550913378509" stroke="#0d6d4d" stroke-width="0.1" fill="none" />
<path d="M-110.71557692998391,-218.55676842655964 L100.34963828244415,223.50604040289969" stroke="#0d6d4d" stroke-width="0.1" fill="none" />
<path d="M-108.66113756903877,-219.58542115131968 L54.677614968648676,238.82076631093076" stroke="#0d6d4d" stroke-width="0.1" fill="none" />
<path d="M-106.59714209687098,-220.59476262318537 L6.8918388248922735,244.90304726077156" stroke="#0d6d4d" stroke-width="0.1" fill="none" />
<path d="M-104.52377202980499,-221.5847040764803 L-41.16036524971101,241.51775158880224" stroke="#0d6d4d" stroke-width="0.1" fill="none" />
<path d="M-102.44120970860611,-222.5551584516463 L-87.62137266040207,228.79574963951353" stroke="#0d6d4d" stroke-width="0.1" fill="none" />
<path d="M-100.34963828244406,-223.50604040289969 L-130.69507203777476,207.22885451847884" stroke="#0d6d4d" stroke-width="0.1" fill="none" />
<path d="M-98.24924169278744,-224.43726630573684 L-168.71630015172101,177.650809351138" stroke="#0d6d4d" stroke-width="0.1" fill="none" />
<path d="M-96.1402046572255,-225.34875426428874 L-200.21521457091805,141.2050560508413" stroke="#0d6d4d" stroke-width="0.1" fill="none" />
<path d="M-94.02271265322496,-226.24042411852284 L-223.9741155194621,99.30053160620363" stroke="#0d6d4d" stroke-width="0.1" fill="none" />
<path d="M-91.89695190181676,-227.11219745129316 L-239.07452028471968,53.55720073557955" stroke="#0d6d4d" stroke-width="0.1" fill="none" />
<path d="M-89.76310935122038,-227.9639975952362 L-244.9326703519049,5.7434305327990325" stroke="#0d6d4d" stroke-width="0.1" fill="none" />
<path d="M-87.62137266040205,-228.79574963951353 L-241.32209861395862,-42.2923718955892" stroke="#0d6d4d" stroke-width="0.1" fill="none" />
<path d="M-85.47193018257138,-229.6073804363998 L-228.38238424296503,-88.69321601734077" stroke="#0d6d4d" stroke-width="0.1" fill="none" />
<path d="M-83.3149709486172,-230.39881860771567 L-206.6137567731907,-131.6653162836318" stroke="#0d6d4d" stroke-width="0.1" fill="none" />
<path d="M-81.1506846504823,-231.1699945511051 L-176.85775799362884,-169.54743713034125" stroke="#0d6d4d" stroke-width="0.1" fill="none" />
<path d="M-78.97926162448282,-231.92084044615632 L-140.26470923165772,-200.87511379998898" stroke="#0d6d4d" stroke-width="0.1" fill="none" />
<path d="M-76.80089283456743,-232.65129026036647 L-98.24924169278744,-224.43726630573684" stroke="#0d6d4d" stroke-width="0.1" fill="none" />
<path d="M-74.61576985552482,-233.36127975494853 L-52.43560898543395,-239.3230179283361" stroke="#0d6d4d" stroke-width="0.1" fill="none" />
<path d="M-72.42408485613477,-234.05074649048095 L-4.594895964734193,-244.9569083146529" stroke="#0d6d4d" stroke-width="0.1" fill="none" />
<path d="M-70.22603058226868,-234.7196298323987 L43.42344869469748,-241.12113989333034" stroke="#0d6d4d" stroke-width="0.1" fill="none" />
<path d="M-68.02180033993767,-235.36787095632585 L89.76310935122031,-227.96399759523624" stroke="#0d6d4d" stroke-width="0.1" fill="none" />
<path d="M-65.81158797829376,-235.9954128532487 L132.63266571504442,-205.99411638520473" stroke="#0d6d4d" stroke-width="0.1" fill="none" />
<path d="M-63.595587872581426,-236.60220033452939 L170.37484641222346,-176.06081821351188" stroke="#0d6d4d" stroke-width="0.1" fill="none" />
<path d="M-61.37399490704269,-237.18818003675963 L201.53059655707332,-139.3212785304174" stroke="#0d6d4d" stroke-width="0.1" fill="none" />
<path d="M-59.14700445777974,-237.75330042645334 L224.89548257881756,-97.19579165602165" stroke="#0d6d4d" stroke-width="0.1" fill="none" />
<path d="M-56.91481237557099,-238.29751180457916 L239.56625377827154,-51.312864377705424" stroke="#0d6d4d" stroke-width="0.1" fill="none" />
<path d="M-54.67761496864871,-238.82076631093076 L244.97576061611588,-3.446260372560974" stroke="#0d6d4d" stroke-width="0.1" fill="none" />
<path d="M-52.43560898543395,-239.3230179283361 L240.9148798452275,44.553570779002605" stroke="#0d6d4d" stroke-width="0.1" fill="none" />
<path d="M-50.18899159723415,-239.80422248670425 L227.54059889504202,90.83102913919669" stroke="#0d6d4d" stroke-width="0.1" fill="none" />
<path d="M-47.937960380902155,-240.26433766691022 L205.36994697803266,133.5970990637149" stroke="#0d6d4d" stroke-width="0.1" fill="none" />
<path d="M-45.682713301462066,-240.7033230045161 L175.26000753243133,171.19850980581612" stroke="#0d6d4d" stroke-width="0.1" fill="none" />
<path d="M-43.42344869469759,-241.1211398933303 L138.37478468953714,202.1816484306235" stroke="#0d6d4d" stroke-width="0.1" fill="none" />
<path d="M-41.16036524971131,-241.51775158880218 L96.14020465722547,225.34875426428874" stroke="#0d6d4d" stroke-width="0.1" fill="none" />
<path d="M-38.89366199144923,-241.89312321125396 L50.188991597234114,239.80422248670428" stroke="#0d6d4d" stroke-width="0.1" fill="none" />
<path d="M-36.623538263200025,-242.24722174894788 L2.297549010362816,244.98922684180417" stroke="#0d6d4d" stroke-width="0.1" fill="none" />
<path d="M-34.35019370906205,-242.5800160609895 L-45.682713301461874,240.70332300451616" stroke="#0d6d4d" stroke-width="0.1" fill="none" />
<path d="M-32.073828256386236,-242.89147688006642 L-91.89695190181669,227.11219745129318" stroke="#0d6d4d" stroke-width="0.1" fill="none" />
<path d="M-29.79464209819365,-243.18157681502223 L-134.5585951254595,204.74126227476148" stroke="#0d6d4d" stroke-width="0.1" fill="none" />
<path d="M-27.512835675571193,-243.45029035326496 L-172.0184092019261,174.45534355713704" stroke="#0d6d4d" stroke-width="0.1" fill="none" />
<path d="M-25.228609660041403,-243.69759386301143 L-202.82825510651023,137.42524851877988" stroke="#0d6d4d" stroke-width="0.1" fill="none" />
<path d="M-22.94216493591606,-243.92346559536503 L-225.79707139644765,95.08250390470121" stroke="#0d6d4d" stroke-width="0.1" fill="none" />
<path d="M-20.653702582629823,-244.12788568622852 L-240.03691882161664,49.064015353664544" stroke="#0d6d4d" stroke-width="0.1" fill="none" />
<path d="M-18.36342385705581,-244.31083615805116 L-244.99730669564718,1.1487871338889817" stroke="#0d6d4d" stroke-width="0.1" fill="none" />
<path d="M-16.071530175806675,-244.47230092140936 L-240.48647402251842,-46.81085143656938" stroke="#0d6d4d" stroke-width="0.1" fill="none" />
<path d="M-13.778223097520103,-244.6122657764221 L-226.67880268289153,-92.96085420353411" stroke="#0d6d4d" stroke-width="0.1" fill="none" />
<path d="M-11.483704305135298,-244.7307184139993 L-204.1080760977525,-135.51713276067372" stroke="#0d6d4d" stroke-width="0.1" fill="none" />
<path d="M-9.18817558815332,-244.82764841692463 L-173.64684397909872,-172.83452657411522" stroke="#0d6d4d" stroke-width="0.1" fill="none" />
<path d="M-6.8918388248926306,-244.90304726077156 L-136.47269089479798,-203.47040236833692" stroke="#0d6d4d" stroke-width="0.1" fill="none" />
<path d="M-4.594895964734193,-244.9569083146529 L-94.02271265322496,-226.24042411852284" stroke="#0d6d4d" stroke-width="0.1" fill="none" />
<path d="M-2.2975490103629546,-244.98922684180417 L-47.937960380902155,-240.26433766691022" stroke="#0d6d4d" stroke-width="0.1" fill="none" />
</svg>