<?xml version="1.0" encoding="UTF-8"?>
<svg xmlns="http://www.w3.org/2000/svg" xmlns:xlink="http://www.w3.org/1999/xlink"
     width="500.0" height="500" viewBox="-250.0 -250.0 500 500">
<defs>
</defs>
<circle cx="0" cy="0" r="245.0" fill="white" stroke-width="2" stroke="black" />
<path d="M0.0,-245.0 L0.0,-245.0" stroke="#0d6d4d" stroke-width="0.1" fill="none" />
<path d="M2.4014910283300432,-244.98823000471032 L50.076718655860844,-239.82769283104435" stroke="#0d6d4d" stroke-width="0.1" fill="none" />
<path d="M4.802751317573624,-244.95292114972125 L98.03905224313813,-224.52916121356537" stroke="#0d6d4d" stroke-width="0.1" fill="none" />
<path d="M7.203550150814059,-244.89407682756377 L141.86189119568235,-199.7503537578454" stroke="#0d6d4d" stroke-width="0.1" fill="none" />
<path d="M9.603656855472096,-244.81170269209426 L179.69490748020178,-166.53750396136516" stroke="#0d6d4d" stroke-width="0.1" fill="none" />
<path d="M12.002840825469294,-244.70580665795092 L209.94068084076477,-126.29295518007389" stroke="#0d6d4d" stroke-width="0.1" fill="none" />
<path d="M14.400871543385033,-244.5763988997935 L231.32214653954713,-80.71594960313777" stroke="#0d6d4d" stroke-width="0.1" fill="none" />
<path d="M16.797518602604995,-244.42349185132582 L242.9365167535564,-31.730881293292523" stroke="#0d6d4d" stroke-width="0.1" fill="none" />
<path d="M19.192551729458998,-244.24710020410078 L244.29339890874493,18.59395734137377" stroke="#0d6d4d" stroke-width="0.1" fill="none" />
<path d="M21.585740805346035,-244.04724090610904 L235.33550148430695,68.13370488333773" stroke="#0d6d4d" stroke-width="0.1" fill="none" />
<path d="M23.97685588884448,-243.8239331601506 L216.44105302772977,114.79664875007226" stroke="#0d6d4d" stroke-width="0.1" fill="none" />
<path d="M26.36566723780518,-243.57719842198966 L188.40783224273108,156.6125433980143" stroke="#0d6d4d" stroke-width="0.1" fill="none" />
<path d="M28.751945331425496,-243.30706039829326 L152.41948344633258,191.81579983398956" stroke="#0d6d4d" stroke-width="0.1" fill="none" />
<path d="M31.13546089230198,-243.0135450443533 L109.99553965468523,218.92003393037047" stroke="#0d6d4d" stroke-width="0.1" fill="none" />
<path d="M33.51598490845973,-242.69668056159298 L62.927263468678106,236.7808258967427" stroke="#0d6d4d" stroke-width="0.1" fill="none" />
<path d="M35.893288655356244,-242.3564973948569 L13.202014744207272,244.6440410202009" stroke="#0d6d4d" stroke-width="0.1" fill="none" />
<path d="M38.26714371785762,-241.99302822948604 L-37.08066153541559,242.17767143173202" stroke="#0d6d4d" stroke-width="0.1" fill="none" />
<path d="M40.63732201218506,-241.6063079881773 L-85.79768417022825,229.48585444646858" stroke="#0d6d4d" stroke-width="0.1" fill="none" />
<path d="M43.00359580782949,-241.1963738276279 L-130.89207842207395,207.1044755826142" stroke="#0d6d4d" stroke-width="0.1" fill="none" />
<path d="M45.3657377494323,-240.7632651349656 L-170.45982748549497,175.97854191240276" stroke="#0d6d4d" stroke-width="0.1" fill="none" />
<path d="M47.72352087863003,-240.30702352396395 L-202.8302656287352,137.42228110818394" stroke="#0d6d4d" stroke-width="0.1" fill="none" />
<path d="M50.076718655860844,-239.82769283104435 L-226.63661857203502,93.06365091825009" stroke="#0d6d4d" stroke-width="0.1" fill="none" />
<path d="M52.42510498213081,-239.3253191110639 L-240.8737126827797,44.775602044123175" stroke="#0d6d4d" stroke-width="0.1" fill="none" />
<path d="M54.76845422073794,-238.7999506328905 L-244.9404163370174,-5.403003298959855" stroke="#0d6d4d" stroke-width="0.1" fill="none" />
<path d="M57.106541218951584,-238.25163787476504 L-238.66502144932093,-55.35347808941348" stroke="#0d6d4d" stroke-width="0.1" fill="none" />
<path d="M59.439141329645594,-237.68043351945153 L-222.31249348879768,-102.96676764273647" stroke="#0d6d4d" stroke-width="0.1" fill="none" />
<path d="M61.76603043288269,-237.08639244917498 L-196.5732838644335,-146.2325000495883" stroke="#0d6d4d" stroke-width="0.1" fill="none" />
<path d="M64.08698495744828,-236.46957174034844 L-162.53417705348022,-183.32386993937246" stroke="#0d6d4d" stroke-width="0.1" fill="none" />
<path d="M66.40178190233159,-235.830030658089 L-121.63240339212675,-212.67477152933523" stroke="#0d6d4d" stroke-width="0.1" fill="none" />
<path d="M68.71019885815194,-235.1678306505233 L-75.59495502022305,-233.0459241769537" stroke="#0d6d4d" stroke-width="0.1" fill="none" />
<path d="M71.0120140285281,-234.48303534288388 L-26.365667237805233,-243.57719842198966" stroke="#0d6d4d" stroke-width="0.1" fill="none" />
<path d="M73.30700625138894,-233.7757105313955 L23.97685588884448,-243.8239331601506" stroke="#0d6d4d" stroke-width="0.1" fill="none" />
<path d="M75.59495502022303,-233.0459241769537 L73.30700625138894,-233.7757105313955" stroke="#0d6d4d" stroke-width="0.1" fill="none" />
<path d="M77.87564050526517,-232.29374639859486 L119.54192107133149,-213.8567957923609" stroke="#0d6d4d" stroke-width="0.1" fill="none" />
<path d="M80.14884357461813,-231.51924946675902 L160.72942743945376,-184.9082236002103" stroke="#0d6d4d" stroke-width="0.1" fill="none" />
<path d="M82.41434581530702,-230.72250779634612 L195.13046874792525,-148.15228707723335" stroke="#0d6d4d" stroke-width="0.1" fill="none" />
<path d="M84.67192955426492,-229.90359793956594 L221.2925327307921,-105.14092903142577" stroke="#0d6d4d" stroke-width="0.1" fill="none" />
<path d="M86.92137787924713,-229.06259857858313 L238.11098076688478,-57.69021440619046" stroke="#0d6d4d" stroke-width="0.1" fill="none" />
<path d="M89.16247465967254,-228.199590517957 L244.87568894316016,-7.803650723390074" stroke="#0d6d4d" stroke-width="0.1" fill="none" />
<path d="M91.39500456738969,-227.31465667687777 L241.3010315567934,42.4124058457828" stroke="#0d6d4d" stroke-width="0.1" fill="none" />
<path d="M93.61875309736598,-226.40788208119972 L227.53794106514013,90.8376869797818" stroke="#0d6d4d" stroke-width="0.1" fill="none" />
<path d="M95.83350658829751,-225.47935385527148 L204.1675352773184,135.4275361172348" stroke="#0d6d4d" stroke-width="0.1" fill="none" />
<path d="M98.03905224313813,-224.52916121356537 L172.176580865963,174.29923981849868" stroke="#0d6d4d" stroke-width="0.1" fill="none" />
<path d="M100.23517814954523,-223.55739545210517 L132.91582920122556,205.81152141644216" stroke="#0d6d4d" stroke-width="0.1" fill="none" />
<path d="M102.42167330024067,-222.56414993969437 L88.0429836895887,228.6338405027454" stroke="#0d6d4d" stroke-width="0.1" fill="none" />
<path d="M104.59832761328467,-221.54952010894533 L39.45270670273636,241.80257222334888" stroke="#0d6d4d" stroke-width="0.1" fill="none" />
<path d="M106.76493195226075,-220.51360344710966 L-10.80337859197948,244.76169432939943" stroke="#0d6d4d" stroke-width="0.1" fill="none" />
<path d="M108.92127814637007,-219.45649948671166 L-60.603313743509815,237.38626405777086" stroke="#0d6d4d" stroke-width="0.1" fill="none" />
<path d="M111.06715901043262,-218.3783097959852 L-107.84440028983167,219.98769357881488" stroke="#0d6d4d" stroke-width="0.1" fill="none" />
<path d="M113.20236836479404,-217.27913796911446 L-150.5319818177795,193.30060126655502" stroke="#0d6d4d" stroke-width="0.1" fill="none" />
<path d="M115.32670105513562,-216.15908961628097 L-186.86366417255837,158.45179396903438" stroke="#0d6d4d" stroke-width="0.1" fill="none" />
<path d="M117.4399529721858,-215.01827235351604 L-215.30541779413673,116.91268993780032" stroke="#0d6d4d" stroke-width="0.1" fill="none" />
<path d="M119.54192107133149,-213.8567957923609 L-234.65634891798786,70.43719125916039" stroke="#0d6d4d" stroke-width="0.1" fill="none" />
<path d="M121.63240339212673,-212.67477152933526 L-244.09940481123098,20.987628994309585" stroke="#0d6d4d" stroke-width="0.1" fill="none" />
<path d="M123.71119907769754,-211.47231313521468 L-243.23587212126645,-29.34809215957509" stroke="#0d6d4d" stroke-width="0.1" fill="none" />
<path d="M125.77810839404036,-210.2495361441186 L-232.10221171603655,-78.44465129327902" stroke="#0d6d4d" stroke-width="0.1" fill="none" />
<path d="M127.83293274921306,-209.0065580424097 L-211.16851919987346,-124.22904853106088" stroke="#0d6d4d" stroke-width="0.1" fill="none" />
<path d="M129.87547471241578,-207.74349825740552 L-181.31867610644295,-164.7681331295795" stroke="#0d6d4d" stroke-width="0.1" fill="none" />
<path d="M131.90553803296046,-206.4604781459038 L-143.81302984329076,-198.35022673869761" stroke="#0d6d4d" stroke-width="0.1" fill="none" />
<path d="M133.92292765912697,-205.15762098252225 L-100.23517814954526,-223.55739545210514" stroke="#0d6d4d" stroke-width="0.1" fill="none" />
<path d="M135.92744975690383,-203.8350519478541 L-52.425104982130854,-239.3253191110639" stroke="#0d6d4d" stroke-width="0.1" fill="none" />
<path d="M137.91891172861236,-202.4928981164407 L-2.401491028330082,-244.98823000471032" stroke="#0d6d4d" stroke-width="0.1" fill="none" />
<path d="M139.89712223141143,-201.13128844456182 L47.72352087863003,-240.30702352396395" stroke="#0d6d4d" stroke-width="0.1" fill="none" />
<path d="M141.86189119568235,-199.7503537578454 L95.83350658829751,-225.47935385527148" stroke="#0d6d4d" stroke-width="0.1" fill="none" />
<path d="M143.81302984329076,-198.35022673869761 L139.89712223141143,-201.13128844456182" stroke="#0d6d4d" stroke-width="0.1" fill="none" />
<path d="M145.75035070572488,-196.9310419135546 L178.0538734807801,-168.29087360427587" stroke="#0d6d4d" stroke-width="0.1" fill="none" />
<path d="M147.6736676421078,-195.49293563995678 L208.69267104635318,-128.34472740061676" stroke="#0d6d4d" stroke-width="0.1" fill="none" />
<path d="M149.58279585708212,-194.03604609344754 L230.5198555624441,-82.97949259588124" stroke="#0d6d4d" stroke-width="0.1" fill="none" />
<path d="M151.47755191856538,-192.56051325429712 L242.61381965802687,-34.11062167334994" stroke="#0d6d4d" stroke-width="0.1" fill="none" />
<path d="M153.35775377537453,-191.06647889405298 L244.4639209070388,16.19849915137409" stroke="#0d6d4d" stroke-width="0.1" fill="none" />
<path d="M155.22322077471787,-189.55408656191824 L235.99204264047128,65.82367211253091" stroke="#0d6d4d" stroke-width="0.1" fill="none" />
<path d="M157.07377367955203,-188.0234815709593 L217.55589225989723,112.66957771732349" stroke="#0d6d4d" stroke-width="0.1" fill="none" />
<path d="M158.90923468580388,-186.47481098414366 L189.93389778802185,154.75824524415256" stroke="#0d6d4d" stroke-width="0.1" fill="none" />
<path d="M160.72942743945376,-184.9082236002103 L154.29234036792872,190.31256843358307" stroke="#0d6d4d" stroke-width="0.1" fill="none" />
<path d="M162.53417705348022,-183.32386993937249 L112.13611047273368,217.83134009606346" stroke="#0d6d4d" stroke-width="0.1" fill="none" />
<path d="M164.32331012466312,-181.72190222885567 L65.24516704205365,236.152637456486" stroke="#0d6d4d" stroke-width="0.1" fill="none" />
<path d="M166.0966547502448,-180.10247438827145 L15.599382425811712,244.50288192152925" stroke="#0d6d4d" stroke-width="0.1" fill="none" />
<path d="M167.8540405444466,-178.46574201482838 L-34.705053599020495,242.529501823364" stroke="#0d6d4d" stroke-width="0.1" fill="none" />
<path d="M169.59529865483972,-176.81186236838218 L-83.54414107259399,230.31581902344988" stroke="#0d6d4d" stroke-width="0.1" fill="none" />
<path d="M171.32026177856903,-175.14099435632588 L-128.85575132335904,208.37753082060613" stroke="#0d6d4d" stroke-width="0.1" fill="none" />
<path d="M173.02876417842765,-173.45329851832187 L-168.72669605305498,177.64093570745456" stroke="#0d6d4d" stroke-width="0.1" fill="none" />
<path d="M174.72064169878124,-171.74893701087672 L-201.47350772487792,139.4038223472856" stroke="#0d6d4d" stroke-width="0.1" fill="none" />
<path d="M176.39573178134063,-170.02807359176114 L-225.71352047131307,95.28067315277599" stroke="#0d6d4d" stroke-width="0.1" fill="none" />
<path d="M178.0538734807801,-168.29087360427587 L-240.42325027845024,47.13449613123782" stroke="#0d6d4d" stroke-width="0.1" fill="none" />
<path d="M179.69490748020178,-166.53750396136516 L-244.98160946518865,-3.001836745359257" stroke="#0d6d4d" stroke-width="0.1" fill="none" />
<path d="M181.31867610644295,-164.76813312957952 L-239.1961308160161,-53.01142332221709" stroke="#0d6d4d" stroke-width="0.1" fill="none" />
<path d="M182.92502334522527,-162.98293111288922 L-223.311094108018,-100.78271304286231" stroke="#0d6d4d" stroke-width="0.1" fill="none" />
<path d="M184.51379485614527,-161.18206943634996 L-197.99721190645064,-144.29866277021446" stroke="#0d6d4d" stroke-width="0.1" fill="none" />
<path d="M186.08483798750333,-159.3657211296226 L-164.32331012466312,-181.72190222885567" stroke="#0d6d4d" stroke-width="0.1" fill="none" />
<path d="M187.6380017909709,-157.534060710348 L-123.71119907769754,-211.47231313521468" stroke="#0d6d4d" stroke-width="0.1" fill="none" />
<path d="M189.17313703609355,-155.68726416737937 L-77.87564050526538,-232.29374639859478" stroke="#0d6d4d" stroke-width="0.1" fill="none" />
<path d="M190.69009622462974,-153.82550894387268 L-28.751945331425524,-243.30706039829326" stroke="#0d6d4d" stroke-width="0.1" fill="none" />
<path d="M192.18873360472224,-151.9489739202378 L21.585740805346035,-244.04724090610904" stroke="#0d6d4d" stroke-width="0.1" fill="none" />
<path d="M193.66890518490243,-150.05783939695144 L71.0120140285281,-234.48303534288388" stroke="#0d6d4d" stroke-width="0.1" fill="none" />
<path d="M195.13046874792525,-148.15228707723335 L117.4399529721858,-215.01827235351604" stroke="#0d6d4d" stroke-width="0.1" fill="none" />
<path d="M196.5732838644335,-146.23250004958834 L158.90923468580388,-186.47481098414366" stroke="#0d6d4d" stroke-width="0.1" fill="none" />
<path d="M197.99721190645062,-144.2986627702145 L193.66890518490243,-150.05783939695144" stroke="#0d6d4d" stroke-width="0.1" fill="none" />
<path d="M199.40211606070037,-142.35096104528057 L220.25130983345684,-107.30498831203796" stroke="#0d6d4d" stroke-width="0.1" fill="none" />
<path d="M200.78786134175186,-140.3895820130733 L237.53406200181968,-60.02140775519751" stroke="#0d6d4d" stroke-width="0.1" fill="none" />
<path d="M202.15431460498937,-138.41471412601692 L244.7874335027281,-10.20354836061814" stroke="#0d6d4d" stroke-width="0.1" fill="none" />
<path d="M203.5013445594049,-136.4265471325664 L241.7051658430127,40.04513459587485" stroke="#0d6d4d" stroke-width="0.1" fill="none" />
<path d="M204.82882178021305,-134.42527205897602 L228.41740135012643,88.60299521153482" stroke="#0d6d4d" stroke-width="0.1" fill="none" />
<path d="M206.13661872128617,-132.41108119094525 L205.48518818362805,133.41977903271675" stroke="#0d6d4d" stroke-width="0.1" fill="none" />
<path d="M207.42460972740926,-130.38416805514368 L173.8767912460573,172.6031907757647" stroke="#0d6d4d" stroke-width="0.1" fill="none" />
<path d="M208.69267104635318,-128.34472740061676 L134.92680921561308,204.4987925511873" stroke="#0d6d4d" stroke-width="0.1" fill="none" />
<path d="M209.94068084076477,-126.29295518007389 L90.27982389871804,227.7598590551383" stroke="#0d6d4d" stroke-width="0.1" fill="none" />
<path d="M211.16851919987343,-124.2290485310609 L41.82096119110141,241.40424023834458" stroke="#0d6d4d" stroke-width="0.1" fill="none" />
<path d="M212.37606815101225,-122.15320575701892 L-8.403704433913976,244.85583054480736" stroke="#0d6d4d" stroke-width="0.1" fill="none" />
<path d="M213.5632116709529,-120.06562630823096 L-58.27354115534322,237.96889376810685" stroke="#0d6d4d" stroke-width="0.1" fill="none" />
<path d="M214.72983569705343,-117.96651076265856 L-105.68289906307263,221.0342164589555" stroke="#0d6d4d" stroke-width="0.1" fill="none" />
<path d="M215.87582813821763,-115.85606080666965 L-148.63001683643512,194.76683006919072" stroke="#0d6d4d" stroke-width="0.1" fill="none" />
<path d="M217.00107888566467,-113.7344792156606 L-185.3015419436336,160.275820239086" stroke="#0d6d4d" stroke-width="0.1" fill="none" />
<path d="M218.10547982350903,-111.60196983457284 L-214.14909567276197,119.01749796789645" stroke="#0d6d4d" stroke-width="0.1" fill="none" />
<path d="M219.18892483914783,-109.4587375583073 L-233.95465019557514,72.73390991735606" stroke="#0d6d4d" stroke-width="0.1" fill="none" />
<path d="M220.25130983345684,-107.30498831203796 L-243.88195725375917,23.379284122393116" stroke="#0d6d4d" stroke-width="0.1" fill="none" />
<path d="M221.2925327307921,-105.14092903142577 L-243.51185699861617,-26.962483214376196" stroke="#0d6d4d" stroke-width="0.1" fill="none" />
<path d="M222.31249348879768,-102.96676764273647 L-232.85997614200664,-76.16581589626743" stroke="#0d6d4d" stroke-width="0.1" fill="none" />
<path d="M223.311094108018,-100.78271304286231 L-212.37606815101225,-122.1532057570189" stroke="#0d6d4d" stroke-width="0.1" fill="none" />
<path d="M224.28823864131357,-98.588975079251 L-182.9250233452253,-162.98293111288922" stroke="#0d6d4d" stroke-width="0.1" fill="none" />
<path d="M225.24383320307984,-96.38576452974343 L-145.75035070572488,-196.9310419135546" stroke="#0d6d4d" stroke-width="0.1" fill="none" />
<path d="M226.17778597826793,-94.17329308232152 L-102.42167330024088,-222.5641499396943" stroke="#0d6d4d" stroke-width="0.1" fill="none" />
<path d="M227.0900072312063,-91.95177331476903 L-54.76845422073795,-238.7999506328905" stroke="#0d6d4d" stroke-width="0.1" fill="none" />
<path d="M227.9804093142227,-89.72141867424683 L-4.802751317573859,-244.95292114972122" stroke="#0d6d4d" stroke-width="0.1" fill="none" />
<path d="M228.84890667606547,-87.48244345678438 L45.3657377494323,-240.7632651349656" stroke="#0d6d4d" stroke-width="0.1" fill="none" />
<path d="M229.69541587012355,-85.23506278669001 L93.61875309736598,-226.40788208119972" stroke="#0d6d4d" stroke-width="0.1" fill="none" />
<path d="M230.5198555624441,-82.97949259588124 L137.91891172861236,-202.4928981164407" stroke="#0d6d4d" stroke-width="0.1" fill="none" />
<path d="M231.32214653954713,-80.71594960313777 L176.39573178134063,-170.02807359176114" stroke="#0d6d4d" stroke-width="0.1" fill="none" />
<path d="M232.10221171603655,-78.44465129327902 L207.42460972740926,-130.38416805514368" stroke="#0d6d4d" stroke-width="0.1" fill="none" />
<path d="M232.85997614200664,-76.16581589626738 L229.69541587012355,-85.23506278669001" stroke="#0d6d4d" stroke-width="0.1" fill="none" />
<path d="M233.59536701024328,-73.87966236624084 L242.26781183992935,-36.48708465049772" stroke="#0d6d4d" stroke-width="0.1" fill="none" />
<path d="M234.30831366321954,-71.58641036047507 L244.61095442208727,13.80148458375227" stroke="#0d6d4d" stroke-width="0.1" fill="none" />
<path d="M234.99874759988438,-69.28628021827866 L236.62590930495986,63.507314898371405" stroke="#0d6d4d" stroke-width="0.1" fill="none" />
<path d="M235.6666024822445,-66.97949293982266 L218.6498283751084,110.53168121192961" stroke="#0d6d4d" stroke-width="0.1" fill="none" />
<path d="M236.3118141417381,-64.66627016490615 L191.44171418162034,152.88907767137187" stroke="#0d6d4d" stroke-width="0.1" fill="none" />
<path d="M236.93432058540034,-62.34683415166118 L156.15037263548933,188.7910514982048" stroke="#0d6d4d" stroke-width="0.1" fill="none" />
<path d="M237.53406200181968,-60.02140775519751 L114.26590707452046,216.72171667933296" stroke="#0d6d4d" stroke-width="0.1" fill="none" />
<path d="M238.11098076688478,-57.69021440619046 L67.55680175576575,235.50175909434765" stroke="#0d6d4d" stroke-width="0.1" fill="none" />
<path d="M238.66502144932093,-55.353478089413485 L17.995251293884014,244.33823059617578" stroke="#0d6d4d" stroke-width="0.1" fill="none" />
<path d="M239.1961308160161,-53.0114233222171 L-32.32611114574898,242.85802959381985" stroke="#0d6d4d" stroke-width="0.1" fill="none" />
<path d="M239.7042578371357,-50.664275132956966 L-81.2825709206992,231.12365448936964" stroke="#0d6d4d" stroke-width="0.1" fill="none" />
<path d="M240.18935369102545,-48.31225903937307 L-126.80704355863509,209.63056481324097" stroke="#0d6d4d" stroke-width="0.1" fill="none" />
<path d="M240.65137176890235,-45.95560102692119 L-166.97735309067372,179.28626147820827" stroke="#0d6d4d" stroke-width="0.1" fill="none" />
<path d="M241.0902676793329,-43.594527527060094 L-200.09739192520934,141.371969444898" stroke="#0d6d4d" stroke-width="0.1" fill="none" />
<path d="M241.50599925249844,-41.22926539549581 L-224.76873545571138,97.488540668329" stroke="#0d6d4d" stroke-width="0.1" fill="none" />
<path d="M241.89852654424655,-38.860041890384515 L-239.94968762495094,49.488861460822285" stroke="#0d6d4d" stroke-width="0.1" fill="none" />
<path d="M242.26781183992935,-36.48708465049772 L-244.99926436977245,-0.6003817704984152" stroke="#0d6d4d" stroke-width="0.1" fill="none" />
<path d="M242.61381965802687,-34.11062167334994 L-239.7042578371357,-50.664275132957016" stroke="#0d6d4d" stroke-width="0.1" fill="none" />
<path d="M242.9365167535564,-31.730881293292523 L-224.28823864131354,-98.58897507925104" stroke="#0d6d4d" stroke-width="0.1" fill="none" />
<path d="M243.23587212126645,-29.348092159575092 L-199.40211606070037,-142.35096104528057" stroke="#0d6d4d" stroke-width="0.1" fill="none" />
<path d="M243.51185699861617,-26.962483214376146 L-166.0966547502448,-180.10247438827145" stroke="#0d6d4d" stroke-width="0.1" fill="none" />
<path d="M243.76444486853848,-24.574283670806384 L-125.77810839404053,-210.2495361441185" stroke="#0d6d4d" stroke-width="0.1" fill="none" />
<path d="M243.99361146198822,-22.18372299088518 L-80.14884357461811,-231.51924946675902" stroke="#0d6d4d" stroke-width="0.1" fill="none" />
<path d="M244.19933476027376,-19.79103086349369 L-31.1354608923022,-243.01354504435326" stroke="#0d6d4d" stroke-width="0.1" fill="none" />
<path d="M244.38159499717256,-17.396437182305885 L19.192551729458998,-244.24710020410078" stroke="#0d6d4d" stroke-width="0.1" fill="none" />
<path d="M244.54037466083062,-15.000172023700182 L68.71019885815194,-235.1678306505233" stroke="#0d6d4d" stroke-width="0.1" fill="none" />
<path d="M244.67565849544462,-12.602465624653204 L115.32670105513562,-216.15908961628097" stroke="#0d6d4d" stroke-width="0.1" fill="none" />
<path d="M244.7874335027281,-10.20354836061814 L157.07377367955203,-188.0234815709593" stroke="#0d6d4d" stroke-width="0.1" fill="none" />
<path d="M244.87568894316016,-7.803650723390074 L192.18873360472224,-151.9489739202378" stroke="#0d6d4d" stroke-width="0.1" fill="none" />
<path d="M244.9404163370174,-5.403003298959861 L219.18892483914783,-109.4587375583073" stroke="#0d6d4d" stroke-width="0.1" fill="none" />
<path d="M244.98160946518865,-3.001836745359208 L236.93432058540034,-62.34683415166118" stroke="#0d6d4d" stroke-width="0.1" fill="none" />
<path d="M244.99926436977245,-0.600381770498584 L244.67565849544462,-12.602465624653204" stroke="#0d6d4d" stroke-width="0.1" fill="none" />
<path d="M244.99337935445743,1.8011308899996792 L242.08607671157108,37.674015745594815" stroke="#0d6d4d" stroke-width="0.1" fill="none" />
<path d="M244.96395498468524,4.202470494970666 L229.27491492704766,86.35979032625686" stroke="#0d6d4d" stroke-width="0.1" fill="none" />
<path d="M244.91099408759626,6.6034063198769655 L206.7830977454723,131.39920276313114" stroke="#0d6d4d" stroke-width="0.1" fill="none" />
<path d="M244.83450175175787,9.003707678976838 L175.56029526685396,170.8905577432968" stroke="#0d6d4d" stroke-width="0.1" fill="none" />
<path d="M244.7344853266757,11.403143947489191 L136.92482524707054,203.16641511593195" stroke="#0d6d4d" stroke-width="0.1" fill="none" />
<path d="M244.61095442208727,13.80148458375227 L92.50798987844287,226.86399407717812" stroke="#0d6d4d" stroke-width="0.1" fill="none" />
<path d="M244.4639209070388,16.19849915137409 L44.1851974548442,240.9827137490912" stroke="#0d6d4d" stroke-width="0.1" fill="none" />
<path d="M244.29339890874493,18.59395734137377 L-6.003222834529267,244.92644062166704" stroke="#0d6d4d" stroke-width="0.1" fill="none" />
<path d="M244.09940481123098,20.987628994309638 L-55.93816955244254,238.52865904775928" stroke="#0d6d4d" stroke-width="0.1" fill="none" />
<path d="M243.88195725375917,23.379284122393166 L-103.51124365489179,222.05950201920572" stroke="#0d6d4d" stroke-width="0.1" fill="none" />
<path d="M243.64107712903746,25.76869293158693 L-146.71377124612692,196.21434536429575" stroke="#0d6d4d" stroke-width="0.1" fill="none" />
<path d="M243.37678758121226,28.155625843683342 L-183.72161564715097,162.08444695281696" stroke="#0d6d4d" stroke-width="0.1" fill="none" />
<path d="M243.08911400364462,30.539853518363007 L-212.97219776487802,121.11087060705033" stroke="#0d6d4d" stroke-width="0.1" fill="none" />
<path d="M242.77808403647052,32.9211468752299 L-233.23047273740096,75.02364018553396" stroke="#0d6d4d" stroke-width="0.1" fill="none" />
<path d="M242.44372756394503,35.29927711582208 L-243.64107712903746,25.768692931587097" stroke="#0d6d4d" stroke-width="0.1" fill="none" />
<path d="M242.08607671157108,37.674015745594815 L-243.76444486853848,-24.574283670806437" stroke="#0d6d4d" stroke-width="0.1" fill="none" />
<path d="M241.7051658430127,40.04513459587485 L-233.59536701024325,-73.8796623662409" stroke="#0d6d4d" stroke-width="0.1" fill="none" />
<path d="M241.3010315567934,42.4124058457828 L-213.56321167095302,-120.0656263082308" stroke="#0d6d4d" stroke-width="0.1" fill="none" />
<path d="M240.8737126827797,44.77560204412322 L-184.51379485614527,-161.18206943634996" stroke="#0d6d4d" stroke-width="0.1" fill="none" />
<path d="M240.42325027845024,47.13449613123786 L-147.67366764210797,-195.49293563995664" stroke="#0d6d4d" stroke-width="0.1" fill="none" />
<path d="M239.94968762495094,49.488861460822335 L-104.59832761328465,-221.54952010894536" stroke="#0d6d4d" stroke-width="0.1" fill="none" />
<path d="M239.4530702229365,51.83847182170244 L-57.10654121895178,-238.251637874765" stroke="#0d6d4d" stroke-width="0.1" fill="none" />
<path d="M238.9334457881986,54.18310145956901 L-7.203550150814056,-244.89407682756377" stroke="#0d6d4d" stroke-width="0.1" fill="none" />
<path d="M238.3908642470814,56.52252509866851 L43.00359580782949,-241.1963738276279" stroke="#0d6d4d" stroke-width="0.1" fill="none" />
<path d="M237.82537773168426,58.85651796344824 L91.39500456738969,-227.31465667687777" stroke="#0d6d4d" stroke-width="0.1" fill="none" />
<path d="M237.2370405748531,61.1848558001529 L135.92744975690383,-203.8350519478541" stroke="#0d6d4d" stroke-width="0.1" fill="none" />
<path d="M236.62590930495986,63.507314898371405 L174.72064169878124,-171.74893701087672" stroke="#0d6d4d" stroke-width="0.1" fill="none" />
<path d="M235.99204264047128,65.82367211253091 L206.13661872128617,-132.41108119094525" stroke="#0d6d4d" stroke-width="0.1" fill="none" />
<path d="M235.33550148430695,68.13370488333773 L228.84890667606547,-87.48244345678438" stroke="#0d6d4d" stroke-width="0.1" fill="none" />
<path d="M234.65634891798786,70.43719125916044 L241.89852654424655,-38.860041890384515" stroke="#0d6d4d" stroke-width="0.1" fill="none" />
<path d="M233.9546501955752,72.73390991735592 L244.7344853266757,11.403143947489191" stroke="#0d6d4d" stroke-width="0.1" fill="none" />
<path d="M233.23047273740096,75.023640185534 L237.2370405748531,61.1848558001529" stroke="#0d6d4d" stroke-width="0.1" fill="none" />
<path d="M232.4838861235897,77.30616206276035 L219.72275626623752,108.38316464639504" stroke="#0d6d4d" stroke-width="0.1" fill="none" />
<path d="M231.71496208737364,79.58125624069406 L192.93113655012357,151.00522027227262" stroke="#0d6d4d" stroke-width="0.1" fill="none" />
<path d="M230.92377450819984,81.8487041246596 L157.9934017263119,187.25139521762773" stroke="#0d6d4d" stroke-width="0.1" fill="none" />
<path d="M230.11039940463235,84.10828785464953 L116.38472482579255,215.59127029456585" stroke="#0d6d4d" stroke-width="0.1" fill="none" />
<path d="M229.27491492704766,86.35979032625686 L69.86194550426602,234.82825334775833" stroke="#0d6d4d" stroke-width="0.1" fill="none" />
<path d="M228.41740135012643,88.60299521153482 L20.38939114952394,244.15010286410225" stroke="#0d6d4d" stroke-width="0.1" fill="none" />
<path d="M227.53794106514013,90.8376869797818 L-29.94406274818404,243.16322317762777" stroke="#0d6d4d" stroke-width="0.1" fill="none" />
<path d="M226.636618572035,93.06365091825013 L-79.01319100980976,231.9092832261083" stroke="#0d6d4d" stroke-width="0.1" fill="none" />
<path d="M225.71352047131305,95.28067315277605 L-124.74615197100995,210.86345716701527" stroke="#0d6d4d" stroke-width="0.1" fill="none" />
<path d="M224.76873545571144,97.48854066832885 L-165.2119666780121,180.9143611391407" stroke="#0d6d4d" stroke-width="0.1" fill="none" />
<path d="M223.8023543016806,99.68704132947788 L-198.70205044912876,143.32653329831112" stroke="#0d6d4d" stroke-width="0.1" fill="none" />
<path d="M222.8144698606624,101.87596390077479 L-223.80235430168062,99.68704132947784" stroke="#0d6d4d" stroke-width="0.1" fill="none" />
<path d="M221.8051770501689,104.05509806704923 L-239.45307022293647,51.838471821702605" stroke="#0d6d4d" stroke-width="0.1" fill="none" />
<path d="M220.7745728446622,106.22423445361675 L-244.99337935445743,1.8011308899998482" stroke="#0d6d4d" stroke-width="0.1" fill="none" />
<path d="M219.72275626623752,108.38316464639504 L-240.18935369102547,-48.3122590393729" stroke="#0d6d4d" stroke-width="0.1" fill="none" />
<path d="M218.6498283751084,110.53168121192961 L-225.2438332030799,-96.38576452974327" stroke="#0d6d4d" stroke-width="0.1" fill="none" />
<path d="M217.55589225989723,112.66957771732349 L-200.78786134175186,-140.3895820130733" stroke="#0d6d4d" stroke-width="0.1" fill="none" />
<path d="M216.44105302772977,114.79664875007226 L-167.85404054444672,-178.46574201482827" stroke="#0d6d4d" stroke-width="0.1" fill="none" />
<path d="M215.3054177941368,116.91268993780018 L-127.83293274921303,-209.0065580424097" stroke="#0d6d4d" stroke-width="0.1" fill="none" />
<path d="M214.14909567276197,119.01749796789647 L-82.41434581530719,-230.72250779634604" stroke="#0d6d4d" stroke-width="0.1" fill="none" />
<path d="M212.97219776487813,121.11087060705017 L-33.515984908459714,-242.69668056159298" stroke="#0d6d4d" stroke-width="0.1" fill="none" />
<path d="M211.7748371487124,123.19260672068083 L16.797518602604995,-244.42349185132582" stroke="#0d6d4d" stroke-width="0.1" fill="none" />
<path d="M210.55712886858174,125.26250629226392 L66.40178190233159,-235.830030658089" stroke="#0d6d4d" stroke-width="0.1" fill="none" />
<path d="M209.31918992383888,127.32037044254888 L113.20236836479404,-217.27913796911446" stroke="#0d6d4d" stroke-width="0.1" fill="none" />
<path d="M208.0611392576312,129.36600144866733 L155.22322077471787,-189.55408656191824" stroke="#0d6d4d" stroke-width="0.1" fill="none" />
<path d="M206.7830977454723,131.39920276313114 L190.69009622462974,-153.82550894387268" stroke="#0d6d4d" stroke-width="0.1" fill="none" />
<path d="M205.48518818362805,133.41977903271675 L218.10547982350903,-111.60196983457284" stroke="#0d6d4d" stroke-width="0.1" fill="none" />
<path d="M204.1675352773184,135.4275361172348 L236.3118141417381,-64.66627016490615" stroke="#0d6d4d" stroke-width="0.1" fill="none" />
<path d="M202.8302656287352,137.42228110818397 L244.54037466083062,-15.000172023700182" stroke="#0d6d4d" stroke-width="0.1" fill="none" />
<path d="M201.473507724878,139.40382234728546 L242.44372756394503,35.29927711582208" stroke="#0d6d4d" stroke-width="0.1" fill="none" />
<path d="M200.0973919252093,141.37196944489804 L230.11039940463235,84.10828785464953" stroke="#0d6d4d" stroke-width="0.1" fill="none" />
<path d="M198.70205044912888,143.32653329831098 L208.0611392576312,129.36600144866733" stroke="#0d6d4d" stroke-width="0.1" fill="none" />
<path d="M197.28761736327021,145.26732610991326 L177.22693117460292,169.16150527360696" stroke="#0d6d4d" stroke-width="0.1" fill="none" />
<path d="M195.85422856861902,147.1941614052376 L138.90968532303253,201.8145171276241" stroke="#0d6d4d" stroke-width="0.1" fill="none" />
<path d="M194.40202178745596,149.10685405087688 L94.72726754302383,225.94633164500013" stroke="#0d6d4d" stroke-width="0.1" fill="none" />
<path d="M192.93113655012357,151.00522027227262 L46.54518833437541,240.53803325652584" stroke="#0d6d4d" stroke-width="0.1" fill="none" />
<path d="M191.44171418162034,152.88907767137187 L-3.602164435924269,244.9735177756497" stroke="#0d6d4d" stroke-width="0.1" fill="none" />
<path d="M189.93389778802185,154.75824524415256 L-53.59742332103477,239.06550611358762" stroke="#0d6d4d" stroke-width="0.1" fill="none" />
<path d="M188.40783224273108,156.6125433980143 L-101.32964272140269,223.0634517484944" stroke="#0d6d4d" stroke-width="0.1" fill="none" />
<path d="M186.86366417255834,158.45179396903438 L-144.78342916278612,197.64300807229304" stroke="#0d6d4d" stroke-width="0.1" fill="none" />
<path d="M185.30154194363365,160.2758202390859 L-182.12403708494762,163.87750033448958" stroke="#0d6d4d" stroke-width="0.1" fill="none" />
<path d="M183.72161564715103,162.0844469528169 L-211.7748371487124,123.1926067206808" stroke="#0d6d4d" stroke-width="0.1" fill="none" />
<path d="M182.12403708494776,163.8775003344894 L-232.48388612358968,77.30616206276045" stroke="#0d6d4d" stroke-width="0.1" fill="none" />
<path d="M180.50895975491886,165.65480810467614 L-243.37678758121223,28.155625843683506" stroke="#0d6d4d" stroke-width="0.1" fill="none" />
<path d="M178.87653883626922,167.41619949681294 L-243.99361146198825,-22.183722990885013" stroke="#0d6d4d" stroke-width="0.1" fill="none" />
<path d="M177.22693117460292,169.16150527360696 L-234.30831366321956,-71.58641036047491" stroke="#0d6d4d" stroke-width="0.1" fill="none" />
<path d="M175.56029526685396,170.8905577432968 L-214.72983569705343,-117.96651076265859" stroke="#0d6d4d" stroke-width="0.1" fill="none" />
<path d="M173.8767912460573,172.6031907757647 L-186.08483798750348,-159.36572112962244" stroke="#0d6d4d" stroke-width="0.1" fill="none" />
<path d="M172.176580865963,174.29923981849868 L-149.5827958570821,-194.03604609344757" stroke="#0d6d4d" stroke-width="0.1" fill="none" />
<path d="M170.459827485495,175.9785419124027 L-106.76493195226091,-220.51360344710957" stroke="#0d6d4d" stroke-width="0.1" fill="none" />
<path d="M168.72669605305498,177.6409357074546 L-59.43914132964556,-237.68043351945155" stroke="#0d6d4d" stroke-width="0.1" fill="none" />
<path d="M166.97735309067377,179.28626147820825 L-9.603656855472288,-244.81170269209423" stroke="#0d6d4d" stroke-width="0.1" fill="none" />
<path d="M165.21196667801212,180.9143611391407 L40.63732201218506,-241.6063079881773" stroke="#0d6d4d" stroke-width="0.1" fill="none" />
<path d="M163.4307064362108,182.525078259841 L89.16247465967254,-228.199590517957" stroke="#0d6d4d" stroke-width="0.1" fill="none" />
<path d="M161.6337435115937,184.11825808004033 L133.92292765912697,-205.15762098252225" stroke="#0d6d4d" stroke-width="0.1" fill="none" />
<path d="M159.8212505592233,185.69374752448172 L173.02876417842765,-173.45329851832187" stroke="#0d6d4d" stroke-width="0.1" fill="none" />
<path d="M157.9934017263119,187.25139521762773 L204.82882178021305,-134.42527205897602" stroke="#0d6d4d" stroke-width="0.1" fill="none" />
<path d="M156.15037263548933,188.7910514982048 L227.9804093142227,-89.72141867424683" stroke="#0d6d4d" stroke-width="0.1" fill="none" />
<path d="M154.29234036792872,190.31256843358307 L241.50599925249844,-41.22926539549581" stroke="#0d6d4d" stroke-width="0.1" fill="none" />
<path d="M152.41948344633258,191.81579983398956 L244.83450175175787,9.003707678976838" stroke="#0d6d4d" stroke-width="0.1" fill="none" />
<path d="M150.53198181777955,193.300601266555 L237.82537773168426,58.85651796344824" stroke="#0d6d4d" stroke-width="0.1" fill="none" />
<path d="M148.63001683643517,194.7668300691907 L220.7745728446622,106.22423445361675" stroke="#0d6d4d" stroke-width="0.1" fill="none" />
<path d="M146.71377124612695,196.21434536429572 L194.40202178745596,149.10685405087688" stroke="#0d6d4d" stroke-width="0.1" fill="none" />
<path d="M144.78342916278606,197.6430080722931 L159.8212505592233,185.69374752448172" stroke="#0d6d4d" stroke-width="0.1" fill="none" />
<path d="M142.83917605675734,199.05268092499202 L118.49236014716269,214.44010955685292" stroke="#0d6d4d" stroke-width="0.1" fill="none" />
<path d="M140.88119873497868,200.44322847877763 L72.16037680566821,234.1321849282238" stroke="#0d6d4d" stroke-width="0.1" fill="none" />
<path d="M138.90968532303253,201.8145171276241 L22.781571959957425,243.93851680092112" stroke="#0d6d4d" stroke-width="0.1" fill="none" />
<path d="M136.92482524707054,203.16641511593195 L-27.5591372773336,243.44505325130163" stroke="#0d6d4d" stroke-width="0.1" fill="none" />
<path d="M134.92680921561308,204.4987925511873 L-76.73621938556495,232.6726297492046" stroke="#0d6d4d" stroke-width="0.1" fill="none" />
<path d="M132.91582920122556,205.81152141644216 L-122.67327457423313,212.07608942366608" stroke="#0d6d4d" stroke-width="0.1" fill="none" />
<path d="M130.8920784220739,207.10447558261424 L-163.43070643621076,182.52507825984105" stroke="#0d6d4d" stroke-width="0.1" fill="none" />
<path d="M128.8557513233591,208.3775308206061 L-197.28761736327024,145.26732610991323" stroke="#0d6d4d" stroke-width="0.1" fill="none" />
<path d="M126.80704355863513,209.63056481324094 L-222.81446986066234,101.87596390077489" stroke="#0d6d4d" stroke-width="0.1" fill="none" />
<path d="M124.74615197101,210.86345716701524 L-238.9334457881986,54.18310145956912" stroke="#0d6d4d" stroke-width="0.1" fill="none" />
<path d="M122.67327457423309,212.0760894236661 L-244.96395498468524,4.202470494970835" stroke="#0d6d4d" stroke-width="0.1" fill="none" />
<path d="M120.5886105336692,213.2683450715531 L-240.65137176890238,-45.955601026921016" stroke="#0d6d4d" stroke-width="0.1" fill="none" />
<path d="M118.49236014716269,214.44010955685292 L-226.17778597826802,-94.17329308232138" stroke="#0d6d4d" stroke-width="0.1" fill="none" />
<path d="M116.38472482579255,215.59127029456585 L-202.15431460498945,-138.4147141260168" stroke="#0d6d4d" stroke-width="0.1" fill="none" />
<path d="M114.26590707452046,216.72171667933296 L-169.5952986548397,-176.81186236838224" stroke="#0d6d4d" stroke-width="0.1" fill="none" />
<path d="M112.13611047273368,217.83134009606346 L-129.87547471241592,-207.74349825740543" stroke="#0d6d4d" stroke-width="0.1" fill="none" />
<path d="M109.99553965468523,218.92003393037047 L-84.67192955426488,-229.90359793956597" stroke="#0d6d4d" stroke-width="0.1" fill="none" />
<path d="M107.84440028983173,219.98769357881488 L-35.89328865535643,-242.35649739485686" stroke="#0d6d4d" stroke-width="0.1" fill="none" />
<path d="M105.68289906307268,221.03421645895548 L14.400871543385033,-244.5763988997935" stroke="#0d6d4d" stroke-width="0.1" fill="none" />
<path d="M103.51124365489183,222.0595020192057 L64.08698495744828,-236.46957174034844" stroke="#0d6d4d" stroke-width="0.1" fill="none" />
<path d="M101.32964272140275,223.06345174849437 L111.06715901043262,-218.3783097959852" stroke="#0d6d4d" stroke-width="0.1" fill="none" />
<path d="M99.13830587430124,224.0459691857309 L153.35775377537453,-191.06647889405298" stroke="#0d6d4d" stroke-width="0.1" fill="none" />
<path d="M96.93744366072488,225.00695992907373 L189.17313703609355,-155.68726416737937" stroke="#0d6d4d" stroke-width="0.1" fill="none" />
<path d="M94.72726754302383,225.94633164500013 L217.00107888566467,-113.7344792156606" stroke="#0d6d4d" stroke-width="0.1" fill="none" />
<path d="M92.50798987844287,226.86399407717812 L235.6666024822445,-66.97949293982266" stroke="#0d6d4d" stroke-width="0.1" fill="none" />
<path d="M90.27982389871804,227.7598590551383 L244.38159499717256,-17.396437182305885" stroke="#0d6d4d" stroke-width="0.1" fill="none" />
<path d="M88.0429836895887,228.6338405027454 L242.77808403647052,32.9211468752299" stroke="#0d6d4d" stroke-width="0.1" fill="none" />
<path d="M85.7976841702283,229.48585444646855 L230.92377450819984,81.8487041246596" stroke="#0d6d4d" stroke-width="0.1" fill="none" />
<path d="M83.54414107259404,230.31581902344985 L209.31918992383888,127.32037044254888" stroke="#0d6d4d" stroke-width="0.1" fill="none" />
<path d="M81.28257092069934,231.12365448936959 L178.87653883626922,167.41619949681294" stroke="#0d6d4d" stroke-width="0.1" fill="none" />
<path d="M79.0131910098097,231.90928322610833 L140.88119873497868,200.44322847877763" stroke="#0d6d4d" stroke-width="0.1" fill="none" />
<path d="M76.736219385565,232.67262974920456 L96.93744366072488,225.00695992907373" stroke="#0d6d4d" stroke-width="0.1" fill="none" />
<path d="M74.45187482302875,233.4136207151075 L48.90070707800905,240.0702414862591" stroke="#0d6d4d" stroke-width="0.1" fill="none" />
<path d="M72.16037680566821,234.1321849282238 L-1.2007599356176923,244.99705748350738" stroke="#0d6d4d" stroke-width="0.1" fill="none" />
<path d="M69.86194550426602,234.82825334775833 L-51.25152736374901,239.57938338447008" stroke="#0d6d4d" stroke-width="0.1" fill="none" />
<path d="M67.55680175576575,235.50175909434765 L-99.13830587430128,224.04596918573088" stroke="#0d6d4d" stroke-width="0.1" fill="none" />
<path d="M65.24516704205365,236.152637456486 L-142.83917605675728,199.05268092499205" stroke="#0d6d4d" stroke-width="0.1" fill="none" />
<path d="M62.927263468678106,236.7808258967427 L-180.5089597549188,165.6548081046762" stroke="#0d6d4d" stroke-width="0.1" fill="none" />
<path d="M60.603313743509865,237.38626405777083 L-210.55712886858163,125.26250629226409" stroke="#0d6d4d" stroke-width="0.1" fill="none" />
<path d="M58.27354115534327,237.96889376810685 L-231.71496208737358,79.58125624069416" stroke="#0d6d4d" stroke-width="0.1" fill="none" />
<path d="M55.938169552442595,238.52865904775925 L-243.0891140036446,30.53985351836312" stroke="#0d6d4d" stroke-width="0.1" fill="none" />
<path d="M53.59742332103472,239.06550611358765 L-244.19933476027376,-19.79103086349352" stroke="#0d6d4d" stroke-width="0.1" fill="none" />
<path d="M51.25152736374906,239.57938338447005 L-234.9987475998844,-69.28628021827858" stroke="#0d6d4d" stroke-width="0.1" fill="none" />
<path d="M48.90070707800905,240.0702414862591 L-215.87582813821768,-115.85606080666956" stroke="#0d6d4d" stroke-width="0.1" fill="none" />
<path d="M46.54518833437541,240.53803325652584 L-187.63800179097097,-157.5340607103479" stroke="#0d6d4d" stroke-width="0.1" fill="none" />
<path d="M44.1851974548442,240.9827137490912 L-151.47755191856547,-192.56051325429704" stroke="#0d6d4d" stroke-width="0.1" fill="none" />
<path d="M41.82096119110141,241.40424023834458 L-108.92127814637001,-219.4564994867117" stroke="#0d6d4d" stroke-width="0.1" fill="none" />
<path d="M39.45270670273636,241.80257222334888 L-61.76603043288282,-237.08639244917495" stroke="#0d6d4d" stroke-width="0.1" fill="none" />
<path d="M37.08066153541564,242.177671431732 L-12.002840825469248,-244.70580665795092" stroke="#0d6d4d" stroke-width="0.1" fill="none" />
<path d="M34.70505359902066,242.52950182336397 L38.26714371785762,-241.99302822948604" stroke="#0d6d4d" stroke-width="0.1" fill="none" />
<path d="M32.32611114574893,242.85802959381988 L86.92137787924713,-229.06259857858313" stroke="#0d6d4d" stroke-width="0.1" fill="none" />
<path d="M29.944062748184102,243.16322317762777 L131.90553803296046,-206.4604781459038" stroke="#0d6d4d" stroke-width="0.1" fill="none" />
<path d="M27.55913727733356,243.44505325130163 L171.32026177856903,-175.14099435632588" stroke="#0d6d4d" stroke-width="0.1" fill="none" />
<path d="M25.171563880638587,243.70349273615864 L203.5013445594049,-136.4265471325664" stroke="#0d6d4d" stroke-width="0.1" fill="none" />
<path d="M22.781571959957425,243.93851680092112 L227.0900072312063,-91.95177331476903" stroke="#0d6d4d" stroke-width="0.1" fill="none" />
<path d="M20.38939114952394,244.15010286410225 L241.0902676793329,-43.594527527060094" stroke="#0d6d4d" stroke-width="0.1" fill="none" />
<path d="M17.995251293884014,244.33823059617578 L244.91099408759626,6.6034063198769655" stroke="#0d6d4d" stroke-width="0.1" fill="none" />
<path d="M15.599382425811712,244.50288192152925 L238.3908642470814,56.52252509866851" stroke="#0d6d4d" stroke-width="0.1" fill="none" />
<path d="M13.202014744207272,244.6440410202009 L221.8051770501689,104.05509806704923" stroke="#0d6d4d" stroke-width="0.1" fill="none" />
<path d="M10.803378591979648,244.76169432939943 L195.85422856861902,147.1941614052376" stroke="#0d6d4d" stroke-width="0.1" fill="none" />
<path d="M8.403704433914037,244.85583054480736 L161.6337435115937,184.11825808004033" stroke="#0d6d4d" stroke-width="0.1" fill="none" />
<path d="M6.003222834529327,244.92644062166704 L120.5886105336692,213.2683450715531" stroke="#0d6d4d" stroke-width="0.1" fill="none" />
<path d="M3.6021644359243292,244.9735177756497 L74.45187482302875,233.4136207151075" stroke="#0d6d4d" stroke-width="0.1" fill="none" />
<path d="M1.2007599356177523,244.99705748350738 L25.171563880638587,243.70349273615864" stroke="#0d6d4d" stroke-width="0.1" fill="none" />
<path d="M-1.2007599356176923,244.99705748350738 L-25.17156388063853,243.70349273615864" stroke="#0d6d4d" stroke-width="0.1" fill="none" />
<path d="M-3.602164435924269,244.9735177756497 L-74.45187482302859,233.41362071510753" stroke="#0d6d4d" stroke-width="0.1" fill="none" />
<path d="M-6.003222834529267,244.92644062166704 L-120.58861053366914,213.26834507155314" stroke="#0d6d4d" stroke-width="0.1" fill="none" />
<path d="M-8.403704433913976,244.85583054480736 L-161.6337435115936,184.11825808004042" stroke="#0d6d4d" stroke-width="0.1" fill="none" />
<path d="M-10.80337859197948,244.76169432939943 L-195.854228568619,147.19416140523765" stroke="#0d6d4d" stroke-width="0.1" fill="none" />
<path d="M-13.20201474420721,244.6440410202009 L-221.80517705016882,104.05509806704937" stroke="#0d6d4d" stroke-width="0.1" fill="none" />
<path d="M-15.599382425811651,244.50288192152925 L-238.39086424708137,56.522525098668616" stroke="#0d6d4d" stroke-width="0.1" fill="none" />
<path d="M-17.995251293883843,244.33823059617578 L-244.91099408759626,6.60340631987708" stroke="#0d6d4d" stroke-width="0.1" fill="none" />
<path d="M-20.38939114952388,244.15010286410225 L-241.09026767933292,-43.59452752705998" stroke="#0d6d4d" stroke-width="0.1" fill="none" />
<path d="M-22.78157195995726,243.93851680092115 L-227.09000723120633,-91.95177331476891" stroke="#0d6d4d" stroke-width="0.1" fill="none" />
<path d="M-25.17156388063853,243.70349273615864 L-203.50134455940497,-136.4265471325663" stroke="#0d6d4d" stroke-width="0.1" fill="none" />
<path d="M-27.5591372773336,243.44505325130163 L-171.3202617785691,-175.14099435632582" stroke="#0d6d4d" stroke-width="0.1" fill="none" />
<path d="M-29.94406274818404,243.16322317762777 L-131.90553803296038,-206.46047814590383" stroke="#0d6d4d" stroke-width="0.1" fill="none" />
<path d="M-32.32611114574898,242.85802959381985 L-86.92137787924729,-229.0625985785831" stroke="#0d6d4d" stroke-width="0.1" fill="none" />
<path d="M-34.705053599020495,242.529501823364 L-38.26714371785757,-241.99302822948607" stroke="#0d6d4d" stroke-width="0.1" fill="none" />
<path d="M-37.08066153541559,242.17767143173202 L12.002840825469294,-244.70580665795092" stroke="#0d6d4d" stroke-width="0.1" fill="none" />
<path d="M-39.452706702736194,241.8025722233489 L61.76603043288269,-237.08639244917498" stroke="#0d6d4d" stroke-width="0.1" fill="none" />
<path d="M-41.82096119110136,241.40424023834458 L108.92127814637007,-219.45649948671166" stroke="#0d6d4d" stroke-width="0.1" fill="none" />
<path d="M-44.18519745484404,240.98271374909123 L151.47755191856538,-192.56051325429712" stroke="#0d6d4d" stroke-width="0.1" fill="none" />
<path d="M-46.545188334375354,240.53803325652584 L187.6380017909709,-157.534060710348" stroke="#0d6d4d" stroke-width="0.1" fill="none" />
<path d="M-48.90070707800889,240.07024148625914 L215.87582813821763,-115.85606080666965" stroke="#0d6d4d" stroke-width="0.1" fill="none" />
<path d="M-51.25152736374901,239.57938338447008 L234.99874759988438,-69.28628021827866" stroke="#0d6d4d" stroke-width="0.1" fill="none" />
<path d="M-53.59742332103477,239.06550611358762 L244.19933476027376,-19.79103086349369" stroke="#0d6d4d" stroke-width="0.1" fill="none" />
<path d="M-55.93816955244254,238.52865904775928 L243.08911400364462,30.539853518363007" stroke="#0d6d4d" stroke-width="0.1" fill="none" />
<path d="M-58.27354115534322,237.96889376810685 L231.71496208737364,79.58125624069406" stroke="#0d6d4d" stroke-width="0.1" fill="none" />
<path d="M-60.603313743509815,237.38626405777086 L210.55712886858174,125.26250629226392" stroke="#0d6d4d" stroke-width="0.1" fill="none" />
<path d="M-62.92726346867816,236.78082589674267 L180.50895975491886,165.65480810467614" stroke="#0d6d4d" stroke-width="0.1" fill="none" />
<path d="M-65.2451670420535,236.15263745648605 L142.83917605675734,199.05268092499202" stroke="#0d6d4d" stroke-width="0.1" fill="none" />
<path d="M-67.55680175576569,235.50175909434768 L99.13830587430124,224.0459691857309" stroke="#0d6d4d" stroke-width="0.1" fill="none" />
<path d="M-69.86194550426585,234.82825334775836 L51.25152736374906,239.57938338447005" stroke="#0d6d4d" stroke-width="0.1" fill="none" />
<path d="M-72.16037680566815,234.1321849282238 L1.2007599356177523,244.99705748350738" stroke="#0d6d4d" stroke-width="0.1" fill="none" />
<path d="M-74.45187482302859,233.41362071510753 L-48.90070707800889,240.07024148625914" stroke="#0d6d4d" stroke-width="0.1" fill="none" />
<path d="M-76.73621938556495,232.6726297492046 L-96.93744366072485,225.00695992907373" stroke="#0d6d4d" stroke-width="0.1" fill="none" />
<path d="M-79.01319100980976,231.9092832261083 L-140.88119873497854,200.4432284787777" stroke="#0d6d4d" stroke-width="0.1" fill="none" />
<path d="M-81.2825709206992,231.12365448936964 L-178.87653883626916,167.416199496813" stroke="#0d6d4d" stroke-width="0.1" fill="none" />
<path d="M-83.54414107259399,230.31581902344988 L-209.31918992383882,127.32037044254896" stroke="#0d6d4d" stroke-width="0.1" fill="none" />
<path d="M-85.79768417022825,229.48585444646858 L-230.9237745081998,81.8487041246597" stroke="#0d6d4d" stroke-width="0.1" fill="none" />
<path d="M-88.04298368958874,228.6338405027454 L-242.77808403647052,32.92114687523001" stroke="#0d6d4d" stroke-width="0.1" fill="none" />
<path d="M-90.27982389871788,227.75985905513835 L-244.38159499717258,-17.39643718230577" stroke="#0d6d4d" stroke-width="0.1" fill="none" />
<path d="M-92.50798987844283,226.86399407717815 L-235.66660248224454,-66.97949293982256" stroke="#0d6d4d" stroke-width="0.1" fill="none" />
<path d="M-94.72726754302367,225.9463316450002 L-217.00107888566473,-113.7344792156605" stroke="#0d6d4d" stroke-width="0.1" fill="none" />
<path d="M-96.93744366072485,225.00695992907373 L-189.17313703609364,-155.68726416737925" stroke="#0d6d4d" stroke-width="0.1" fill="none" />
<path d="M-99.13830587430128,224.04596918573088 L-153.35775377537465,-191.0664788940529" stroke="#0d6d4d" stroke-width="0.1" fill="none" />
<path d="M-101.32964272140269,223.0634517484944 L-111.06715901043275,-218.3783097959851" stroke="#0d6d4d" stroke-width="0.1" fill="none" />
<path d="M-103.51124365489179,222.05950201920572 L-64.0869849574482,-236.46957174034847" stroke="#0d6d4d" stroke-width="0.1" fill="none" />
<path d="M-105.68289906307263,221.0342164589555 L-14.400871543385184,-244.5763988997935" stroke="#0d6d4d" stroke-width="0.1" fill="none" />
<path d="M-107.84440028983167,219.98769357881488 L35.893288655356244,-242.3564973948569" stroke="#0d6d4d" stroke-width="0.1" fill="none" />
<path d="M-109.99553965468517,218.92003393037052 L84.67192955426492,-229.90359793956594" stroke="#0d6d4d" stroke-width="0.1" fill="none" />
<path d="M-112.13611047273372,217.83134009606346 L129.87547471241578,-207.74349825740552" stroke="#0d6d4d" stroke-width="0.1" fill="none" />
<path d="M-114.2659070745203,216.721716679333 L169.59529865483972,-176.81186236838218" stroke="#0d6d4d" stroke-width="0.1" fill="none" />
<path d="M-116.38472482579249,215.59127029456587 L202.15431460498937,-138.41471412601692" stroke="#0d6d4d" stroke-width="0.1" fill="none" />
<path d="M-118.49236014716253,214.44010955685303 L226.17778597826793,-94.17329308232152" stroke="#0d6d4d" stroke-width="0.1" fill="none" />
<path d="M-120.58861053366914,213.26834507155314 L240.65137176890235,-45.95560102692119" stroke="#0d6d4d" stroke-width="0.1" fill="none" />
<path d="M-122.67327457423313,212.07608942366608 L244.96395498468524,4.202470494970666" stroke="#0d6d4d" stroke-width="0.1" fill="none" />
<path d="M-124.74615197100995,210.86345716701527 L238.9334457881986,54.18310145956901" stroke="#0d6d4d" stroke-width="0.1" fill="none" />
<path d="M-126.80704355863509,209.63056481324097 L222.8144698606624,101.87596390077479" stroke="#0d6d4d" stroke-width="0.1" fill="none" />
<path d="M-128.85575132335904,208.37753082060613 L197.28761736327021,145.26732610991326" stroke="#0d6d4d" stroke-width="0.1" fill="none" />
<path d="M-130.89207842207395,207.1044755826142 L163.4307064362108,182.525078259841" stroke="#0d6d4d" stroke-width="0.1" fill="none" />
<path d="M-132.91582920122553,205.8115214164422 L122.67327457423309,212.0760894236661" stroke="#0d6d4d" stroke-width="0.1" fill="none" />
<path d="M-134.92680921561302,204.49879255118736 L76.736219385565,232.67262974920456" stroke="#0d6d4d" stroke-width="0.1" fill="none" />
<path d="M-136.92482524707043,203.16641511593207 L27.55913727733356,243.44505325130163" stroke="#0d6d4d" stroke-width="0.1" fill="none" />
<path d="M-138.90968532303248,201.81451712762413 L-22.78157195995726,243.93851680092115" stroke="#0d6d4d" stroke-width="0.1" fill="none" />
<path d="M-140.88119873497854,200.4432284787777 L-72.16037680566815,234.1321849282238" stroke="#0d6d4d" stroke-width="0.1" fill="none" />
<path d="M-142.83917605675728,199.05268092499205 L-118.49236014716253,214.44010955685303" stroke="#0d6d4d" stroke-width="0.1" fill="none" />
<path d="M-144.78342916278612,197.64300807229304 L-159.82125055922327,185.69374752448178" stroke="#0d6d4d" stroke-width="0.1" fill="none" />
<path d="M-146.71377124612692,196.21434536429575 L-194.4020217874559,149.10685405087696" stroke="#0d6d4d" stroke-width="0.1" fill="none" />
<path d="M-148.63001683643512,194.76683006919072 L-220.77457284466217,106.2242344536168" stroke="#0d6d4d" stroke-width="0.1" fill="none" />
<path d="M-150.5319818177795,193.30060126655502 L-237.82537773168423,58.856517963448354" stroke="#0d6d4d" stroke-width="0.1" fill="none" />
<path d="M-152.4194834463326,191.81579983398953 L-244.83450175175787,9.003707678976951" stroke="#0d6d4d" stroke-width="0.1" fill="none" />
<path d="M-154.29234036792866,190.3125684335831 L-241.50599925249844,-41.2292653954957" stroke="#0d6d4d" stroke-width="0.1" fill="none" />
<path d="M-156.15037263548928,188.79105149820484 L-227.9804093142227,-89.72141867424675" stroke="#0d6d4d" stroke-width="0.1" fill="none" />
<path d="M-157.9934017263118,187.25139521762785 L-204.82882178021313,-134.4252720589759" stroke="#0d6d4d" stroke-width="0.1" fill="none" />
<path d="M-159.82125055922327,185.69374752448178 L-173.0287641784277,-173.4532985183218" stroke="#0d6d4d" stroke-width="0.1" fill="none" />
<path d="M-161.6337435115936,184.11825808004042 L-133.92292765912705,-205.1576209825222" stroke="#0d6d4d" stroke-width="0.1" fill="none" />
<path d="M-163.43070643621076,182.52507825984105 L-89.16247465967245,-228.19959051795703" stroke="#0d6d4d" stroke-width="0.1" fill="none" />
<path d="M-165.2119666780121,180.9143611391407 L-40.637322012185194,-241.60630798817726" stroke="#0d6d4d" stroke-width="0.1" fill="none" />
<path d="M-166.97735309067372,179.28626147820827 L9.603656855472096,-244.81170269209426" stroke="#0d6d4d" stroke-width="0.1" fill="none" />
<path d="M-168.72669605305498,177.64093570745456 L59.439141329645594,-237.68043351945153" stroke="#0d6d4d" stroke-width="0.1" fill="none" />
<path d="M-170.45982748549497,175.97854191240276 L106.76493195226075,-220.51360344710966" stroke="#0d6d4d" stroke-width="0.1" fill="none" />
<path d="M-172.17658086596302,174.29923981849865 L149.58279585708212,-194.03604609344754" stroke="#0d6d4d" stroke-width="0.1" fill="none" />
<path d="M-173.87679124605714,172.6031907757648 L186.08483798750333,-159.3657211296226" stroke="#0d6d4d" stroke-width="0.1" fill="none" />
<path d="M-175.56029526685393,170.89055774329685 L214.72983569705343,-117.96651076265856" stroke="#0d6d4d" stroke-width="0.1" fill="none" />
<path d="M-177.22693117460278,169.1615052736071 L234.30831366321954,-71.58641036047507" stroke="#0d6d4d" stroke-width="0.1" fill="none" />
<path d="M-178.87653883626916,167.416199496813 L243.99361146198822,-22.18372299088518" stroke="#0d6d4d" stroke-width="0.1" fill="none" />
<path d="M-180.5089597549188,165.6548081046762 L243.37678758121226,28.155625843683342" stroke="#0d6d4d" stroke-width="0.1" fill="none" />
<path d="M-182.12403708494762,163.87750033448958 L232.4838861235897,77.30616206276035" stroke="#0d6d4d" stroke-width="0.1" fill="none" />
<path d="M-183.72161564715097,162.08444695281696 L211.7748371487124,123.19260672068083" stroke="#0d6d4d" stroke-width="0.1" fill="none" />
<path d="M-185.3015419436336,160.275820239086 L182.12403708494776,163.8775003344894" stroke="#0d6d4d" stroke-width="0.1" fill="none" />
<path d="M-186.86366417255837,158.45179396903438 L144.78342916278606,197.6430080722931" stroke="#0d6d4d" stroke-width="0.1" fill="none" />
<path d="M-188.40783224273096,156.61254339801442 L101.32964272140275,223.06345174849437" stroke="#0d6d4d" stroke-width="0.1" fill="none" />
<path d="M-189.93389778802188,154.75824524415253 L53.59742332103472,239.06550611358765" stroke="#0d6d4d" stroke-width="0.1" fill="none" />
<path d="M-191.44171418162028,152.88907767137192 L3.6021644359243292,244.9735177756497" stroke="#0d6d4d" stroke-width="0.1" fill="none" />
<path d="M-192.9311365501235,151.00522027227268 L-46.545188334375354,240.53803325652584" stroke="#0d6d4d" stroke-width="0.1" fill="none" />
<path d="M-194.4020217874559,149.10685405087696 L-94.72726754302367,225.9463316450002" stroke="#0d6d4d" stroke-width="0.1" fill="none" />
<path d="M-195.854228568619,147.19416140523765 L-138.90968532303248,201.81451712762413" stroke="#0d6d4d" stroke-width="0.1" fill="none" />
<path d="M-197.28761736327024,145.26732610991323 L-177.22693117460278,169.1615052736071" stroke="#0d6d4d" stroke-width="0.1" fill="none" />
<path d="M-198.70205044912876,143.32653329831112 L-208.06113925763117,129.36600144866742" stroke="#0d6d4d" stroke-width="0.1" fill="none" />
<path d="M-200.09739192520934,141.371969444898 L-230.1103994046323,84.10828785464965" stroke="#0d6d4d" stroke-width="0.1" fill="none" />
<path d="M-201.47350772487792,139.4038223472856 L-242.443727563945,35.29927711582219" stroke="#0d6d4d" stroke-width="0.1" fill="none" />
<path d="M-202.8302656287352,137.42228110818394 L-244.54037466083062,-15.000172023700124" stroke="#0d6d4d" stroke-width="0.1" fill="none" />
<path d="M-204.16753527731842,135.42753611723478 L-236.3118141417381,-64.6662701649061" stroke="#0d6d4d" stroke-width="0.1" fill="none" />
<path d="M-205.48518818362808,133.41977903271672 L-218.10547982350906,-111.60196983457274" stroke="#0d6d4d" stroke-width="0.1" fill="none" />
<path d="M-206.78309774547228,131.3992027631312 L-190.69009622462983,-153.82550894387256" stroke="#0d6d4d" stroke-width="0.1" fill="none" />
<path d="M-208.06113925763117,129.36600144866742 L-155.22322077471796,-189.55408656191818" stroke="#0d6d4d" stroke-width="0.1" fill="none" />
<path d="M-209.31918992383882,127.32037044254896 L-113.20236836479415,-217.2791379691144" stroke="#0d6d4d" stroke-width="0.1" fill="none" />
<path d="M-210.55712886858163,125.26250629226409 L-66.40178190233172,-235.83003065808896" stroke="#0d6d4d" stroke-width="0.1" fill="none" />
<path d="M-211.7748371487124,123.1926067206808 L-16.797518602604914,-244.42349185132582" stroke="#0d6d4d" stroke-width="0.1" fill="none" />
<path d="M-212.97219776487802,121.11087060705033 L33.51598490845973,-242.69668056159298" stroke="#0d6d4d" stroke-width="0.1" fill="none" />
<path d="M-214.14909567276197,119.01749796789645 L82.41434581530702,-230.72250779634612" stroke="#0d6d4d" stroke-width="0.1" fill="none" />
<path d="M-215.30541779413673,116.91268993780032 L127.83293274921306,-209.0065580424097" stroke="#0d6d4d" stroke-width="0.1" fill="none" />
<path d="M-216.4410530277298,114.79664875007222 L167.8540405444466,-178.46574201482838" stroke="#0d6d4d" stroke-width="0.1" fill="none" />
<path d="M-217.55589225989723,112.66957771732343 L200.78786134175186,-140.3895820130733" stroke="#0d6d4d" stroke-width="0.1" fill="none" />
<path d="M-218.64982837510843,110.53168121192957 L225.24383320307984,-96.38576452974343" stroke="#0d6d4d" stroke-width="0.1" fill="none" />
<path d="M-219.72275626623752,108.38316464639509 L240.18935369102545,-48.31225903937307" stroke="#0d6d4d" stroke-width="0.1" fill="none" />
<path d="M-220.77457284466217,106.2242344536168 L244.99337935445743,1.8011308899996792" stroke="#0d6d4d" stroke-width="0.1" fill="none" />
<path d="M-221.80517705016882,104.05509806704937 L239.4530702229365,51.83847182170244" stroke="#0d6d4d" stroke-width="0.1" fill="none" />
<path d="M-222.81446986066234,101.87596390077489 L223.8023543016806,99.68704132947788" stroke="#0d6d4d" stroke-width="0.1" fill="none" />
<path d="M-223.80235430168062,99.68704132947784 L198.70205044912888,143.32653329831098" stroke="#0d6d4d" stroke-width="0.1" fill="none" />
<path d="M-224.76873545571138,97.488540668329 L165.21196667801212,180.9143611391407" stroke="#0d6d4d" stroke-width="0.1" fill="none" />
<path d="M-225.71352047131307,95.28067315277599 L124.74615197101,210.86345716701524" stroke="#0d6d4d" stroke-width="0.1" fill="none" />
<path d="M-226.63661857203502,93.06365091825009 L79.0131910098097,231.90928322610833" stroke="#0d6d4d" stroke-width="0.1" fill="none" />
<path d="M-227.53794106514016,90.83768697978174 L29.944062748184102,243.16322317762777" stroke="#0d6d4d" stroke-width="0.1" fill="none" />
<path d="M-228.41740135012643,88.60299521153482 L-20.38939114952388,244.15010286410225" stroke="#0d6d4d" stroke-width="0.1" fill="none" />
<path d="M-229.27491492704763,86.35979032625696 L-69.86194550426585,234.82825334775836" stroke="#0d6d4d" stroke-width="0.1" fill="none" />
<path d="M-230.1103994046323,84.10828785464965 L-116.38472482579249,215.59127029456587" stroke="#0d6d4d" stroke-width="0.1" fill="none" />
<path d="M-230.9237745081998,81.8487041246597 L-157.9934017263118,187.25139521762785" stroke="#0d6d4d" stroke-width="0.1" fill="none" />
<path d="M-231.71496208737358,79.58125624069416 L-192.9311365501235,151.00522027227268" stroke="#0d6d4d" stroke-width="0.1" fill="none" />
<path d="M-232.48388612358968,77.30616206276045 L-219.72275626623752,108.38316464639509" stroke="#0d6d4d" stroke-width="0.1" fill="none" />
<path d="M-233.23047273740096,75.02364018553396 L-237.23704057485307,61.18485580015301" stroke="#0d6d4d" stroke-width="0.1" fill="none" />
<path d="M-233.95465019557514,72.73390991735606 L-244.7344853266757,11.403143947489305" stroke="#0d6d4d" stroke-width="0.1" fill="none" />
<path d="M-234.65634891798786,70.43719125916039 L-241.89852654424655,-38.86004189038446" stroke="#0d6d4d" stroke-width="0.1" fill="none" />
<path d="M-235.33550148430697,68.13370488333769 L-228.8489066760655,-87.48244345678432" stroke="#0d6d4d" stroke-width="0.1" fill="none" />
<path d="M-235.99204264047128,65.82367211253091 L-206.13661872128623,-132.41108119094514" stroke="#0d6d4d" stroke-width="0.1" fill="none" />
<path d="M-236.62590930495986,63.507314898371405 L-174.72064169878135,-171.7489370108766" stroke="#0d6d4d" stroke-width="0.1" fill="none" />
<path d="M-237.23704057485307,61.18485580015301 L-135.9274497569039,-203.83505194785403" stroke="#0d6d4d" stroke-width="0.1" fill="none" />
<path d="M-237.82537773168423,58.856517963448354 L-91.39500456738979,-227.31465667687775" stroke="#0d6d4d" stroke-width="0.1" fill="none" />
<path d="M-238.39086424708137,56.522525098668616 L-43.0035958078296,-241.1963738276279" stroke="#0d6d4d" stroke-width="0.1" fill="none" />
<path d="M-238.9334457881986,54.18310145956912 L7.203550150814059,-244.89407682756377" stroke="#0d6d4d" stroke-width="0.1" fill="none" />
<path d="M-239.45307022293647,51.838471821702605 L57.106541218951584,-238.25163787476504" stroke="#0d6d4d" stroke-width="0.1" fill="none" />
<path d="M-239.94968762495094,49.488861460822285 L104.59832761328467,-221.54952010894533" stroke="#0d6d4d" stroke-width="0.1" fill="none" />
<path d="M-240.42325027845024,47.13449613123782 L147.6736676421078,-195.49293563995678" stroke="#0d6d4d" stroke-width="0.1" fill="none" />
<path d="M-240.8737126827797,44.775602044123175 L184.51379485614527,-161.18206943634996" stroke="#0d6d4d" stroke-width="0.1" fill="none" />
<path d="M-241.3010315567934,42.41240584578281 L213.5632116709529,-120.06562630823096" stroke="#0d6d4d" stroke-width="0.1" fill="none" />
<path d="M-241.7051658430127,40.045134595874856 L233.59536701024328,-73.87966236624084" stroke="#0d6d4d" stroke-width="0.1" fill="none" />
<path d="M-242.08607671157105,37.67401574559493 L243.76444486853848,-24.574283670806384" stroke="#0d6d4d" stroke-width="0.1" fill="none" />
<path d="M-242.443727563945,35.29927711582219 L243.64107712903746,25.76869293158693" stroke="#0d6d4d" stroke-width="0.1" fill="none" />
<path d="M-242.77808403647052,32.92114687523001 L233.23047273740096,75.023640185534" stroke="#0d6d4d" stroke-width="0.1" fill="none" />
<path d="M-243.0891140036446,30.53985351836312 L212.97219776487813,121.11087060705017" stroke="#0d6d4d" stroke-width="0.1" fill="none" />
<path d="M-243.37678758121223,28.155625843683506 L183.72161564715103,162.0844469528169" stroke="#0d6d4d" stroke-width="0.1" fill="none" />
<path d="M-243.64107712903746,25.768692931587097 L146.71377124612695,196.21434536429572" stroke="#0d6d4d" stroke-width="0.1" fill="none" />
<path d="M-243.88195725375917,23.379284122393116 L103.51124365489183,222.0595020192057" stroke="#0d6d4d" stroke-width="0.1" fill="none" />
<path d="M-244.09940481123098,20.987628994309585 L55.938169552442595,238.52865904775925" stroke="#0d6d4d" stroke-width="0.1" fill="none" />
<path d="M-244.29339890874493,18.593957341373773 L6.003222834529327,244.92644062166704" stroke="#0d6d4d" stroke-width="0.1" fill="none" />
<path d="M-244.4639209070388,16.198499151374094 L-44.18519745484404,240.98271374909123" stroke="#0d6d4d" stroke-width="0.1" fill="none" />
<path d="M-244.61095442208727,13.801484583752273 L-92.50798987844283,226.86399407717815" stroke="#0d6d4d" stroke-width="0.1" fill="none" />
<path d="M-244.7344853266757,11.403143947489305 L-136.92482524707043,203.16641511593207" stroke="#0d6d4d" stroke-width="0.1" fill="none" />
<path d="M-244.83450175175787,9.003707678976951 L-175.56029526685393,170.89055774329685" stroke="#0d6d4d" stroke-width="0.1" fill="none" />
<path d="M-244.91099408759626,6.60340631987708 L-206.78309774547228,131.3992027631312" stroke="#0d6d4d" stroke-width="0.1" fill="none" />
<path d="M-244.96395498468524,4.202470494970835 L-229.27491492704763,86.35979032625696" stroke="#0d6d4d" stroke-width="0.1" fill="none" />
<path d="M-244.99337935445743,1.8011308899998482 L-242.08607671157105,37.67401574559493" stroke="#0d6d4d" stroke-width="0.1" fill="none" />
<path d="M-244.99926436977245,-0.6003817704984152 L-244.67565849544462,-12.602465624653144" stroke="#0d6d4d" stroke-width="0.1" fill="none" />
<path d="M-244.98160946518865,-3.001836745359257 L-236.93432058540034,-62.34683415166112" stroke="#0d6d4d" stroke-width="0.1" fill="none" />
<path d="M-244.9404163370174,-5.403003298959855 L-219.18892483914786,-109.45873755830726" stroke="#0d6d4d" stroke-width="0.1" fill="none" />
<path d="M-244.87568894316018,-7.803650723390015 L-192.1887336047223,-151.9489739202377" stroke="#0d6d4d" stroke-width="0.1" fill="none" />
<path d="M-244.7874335027281,-10.203548360618079 L-157.07377367955212,-188.02348157095923" stroke="#0d6d4d" stroke-width="0.1" fill="none" />
<path d="M-244.67565849544462,-12.602465624653144 L-115.32670105513567,-216.15908961628094" stroke="#0d6d4d" stroke-width="0.1" fill="none" />
<path d="M-244.54037466083062,-15.000172023700124 L-68.71019885815204,-235.16783065052329" stroke="#0d6d4d" stroke-width="0.1" fill="none" />
<path d="M-244.38159499717258,-17.39643718230577 L-19.192551729459108,-244.24710020410075" stroke="#0d6d4d" stroke-width="0.1" fill="none" />
<path d="M-244.19933476027376,-19.79103086349352 L31.13546089230198,-243.0135450443533" stroke="#0d6d4d" stroke-width="0.1" fill="none" />
<path d="M-243.99361146198825,-22.183722990885013 L80.14884357461813,-231.51924946675902" stroke="#0d6d4d" stroke-width="0.1" fill="none" />
<path d="M-243.76444486853848,-24.574283670806437 L125.77810839404036,-210.2495361441186" stroke="#0d6d4d" stroke-width="0.1" fill="none" />
<path d="M-243.51185699861617,-26.962483214376196 L166.0966547502448,-180.10247438827145" stroke="#0d6d4d" stroke-width="0.1" fill="none" />
<path d="M-243.23587212126645,-29.34809215957509 L199.40211606070037,-142.35096104528057" stroke="#0d6d4d" stroke-width="0.1" fill="none" />
<path d="M-242.9365167535564,-31.730881293292516 L224.28823864131357,-98.588975079251" stroke="#0d6d4d" stroke-width="0.1" fill="none" />
<path d="M-242.61381965802687,-34.110621673349875 L239.7042578371357,-50.664275132956966" stroke="#0d6d4d" stroke-width="0.1" fill="none" />
<path d="M-242.26781183992938,-36.48708465049766 L244.99926436977245,-0.600381770498584" stroke="#0d6d4d" stroke-width="0.1" fill="none" />
<path d="M-241.89852654424655,-38.86004189038446 L239.94968762495094,49.488861460822335" stroke="#0d6d4d" stroke-width="0.1" fill="none" />
<path d="M-241.50599925249844,-41.2292653954957 L224.76873545571144,97.48854066832885" stroke="#0d6d4d" stroke-width="0.1" fill="none" />
<path d="M-241.09026767933292,-43.59452752705998 L200.0973919252093,141.37196944489804" stroke="#0d6d4d" stroke-width="0.1" fill="none" />
<path d="M-240.65137176890238,-45.955601026921016 L166.97735309067377,179.28626147820825" stroke="#0d6d4d" stroke-width="0.1" fill="none" />
<path d="M-240.18935369102547,-48.3122590393729 L126.80704355863513,209.63056481324094" stroke="#0d6d4d" stroke-width="0.1" fill="none" />
<path d="M-239.7042578371357,-50.664275132957016 L81.28257092069934,231.12365448936959" stroke="#0d6d4d" stroke-width="0.1" fill="none" />
<path d="M-239.1961308160161,-53.01142332221709 L32.32611114574893,242.85802959381988" stroke="#0d6d4d" stroke-width="0.1" fill="none" />
<path d="M-238.66502144932093,-55.35347808941348 L-17.995251293883843,244.33823059617578" stroke="#0d6d4d" stroke-width="0.1" fill="none" />
<path d="M-238.11098076688478,-57.69021440619045 L-67.55680175576569,235.50175909434768" stroke="#0d6d4d" stroke-width="0.1" fill="none" />
<path d="M-237.5340620018197,-60.02140775519745 L-114.2659070745203,216.721716679333" stroke="#0d6d4d" stroke-width="0.1" fill="none" />
<path d="M-236.93432058540034,-62.34683415166112 L-156.15037263548928,188.79105149820484" stroke="#0d6d4d" stroke-width="0.1" fill="none" />
<path d="M-236.3118141417381,-64.6662701649061 L-191.44171418162028,152.88907767137192" stroke="#0d6d4d" stroke-width="0.1" fill="none" />
<path d="M-235.66660248224454,-66.97949293982256 L-218.64982837510843,110.53168121192957" stroke="#0d6d4d" stroke-width="0.1" fill="none" />
<path d="M-234.9987475998844,-69.28628021827858 L-236.62590930495986,63.507314898371405" stroke="#0d6d4d" stroke-width="0.1" fill="none" />
<path d="M-234.30831366321956,-71.58641036047491 L-244.61095442208727,13.801484583752273" stroke="#0d6d4d" stroke-width="0.1" fill="none" />
<path d="M-233.59536701024325,-73.8796623662409 L-242.26781183992938,-36.48708465049766" stroke="#0d6d4d" stroke-width="0.1" fill="none" />
<path d="M-232.85997614200664,-76.16581589626743 L-229.69541587012358,-85.23506278668997" stroke="#0d6d4d" stroke-width="0.1" fill="none" />
<path d="M-232.10221171603655,-78.44465129327902 L-207.42460972740932,-130.38416805514362" stroke="#0d6d4d" stroke-width="0.1" fill="none" />
<path d="M-231.32214653954713,-80.71594960313777 L-176.39573178134066,-170.02807359176106" stroke="#0d6d4d" stroke-width="0.1" fill="none" />
<path d="M-230.51985556244412,-82.97949259588118 L-137.91891172861241,-202.49289811644067" stroke="#0d6d4d" stroke-width="0.1" fill="none" />
<path d="M-229.69541587012358,-85.23506278668997 L-93.61875309736605,-226.4078820811997" stroke="#0d6d4d" stroke-width="0.1" fill="none" />
<path d="M-228.8489066760655,-87.48244345678432 L-45.3657377494324,-240.76326513496556" stroke="#0d6d4d" stroke-width="0.1" fill="none" />
<path d="M-227.9804093142227,-89.72141867424675 L4.802751317573624,-244.95292114972125" stroke="#0d6d4d" stroke-width="0.1" fill="none" />
<path d="M-227.09000723120633,-91.95177331476891 L54.76845422073794,-238.7999506328905" stroke="#0d6d4d" stroke-width="0.1" fill="none" />
<path d="M-226.17778597826802,-94.17329308232138 L102.42167330024067,-222.56414993969437" stroke="#0d6d4d" stroke-width="0.1" fill="none" />
<path d="M-225.2438332030799,-96.38576452974327 L145.75035070572488,-196.9310419135546" stroke="#0d6d4d" stroke-width="0.1" fill="none" />
<path d="M-224.28823864131354,-98.58897507925104 L182.92502334522527,-162.98293111288922" stroke="#0d6d4d" stroke-width="0.1" fill="none" />
<path d="M-223.311094108018,-100.78271304286231 L212.37606815101225,-122.15320575701892" stroke="#0d6d4d" stroke-width="0.1" fill="none" />
<path d="M-222.31249348879768,-102.96676764273647 L232.85997614200664,-76.16581589626738" stroke="#0d6d4d" stroke-width="0.1" fill="none" />
<path d="M-221.2925327307921,-105.14092903142577 L243.51185699861617,-26.962483214376146" stroke="#0d6d4d" stroke-width="0.1" fill="none" />
<path d="M-220.25130983345684,-107.3049883120379 L243.88195725375917,23.379284122393166" stroke="#0d6d4d" stroke-width="0.1" fill="none" />
<path d="M-219.18892483914786,-109.45873755830726 L233.9546501955752,72.73390991735592" stroke="#0d6d4d" stroke-width="0.1" fill="none" />
<path d="M-218.10547982350906,-111.60196983457274 L214.14909567276197,119.01749796789647" stroke="#0d6d4d" stroke-width="0.1" fill="none" />
<path d="M-217.00107888566473,-113.7344792156605 L185.30154194363365,160.2758202390859" stroke="#0d6d4d" stroke-width="0.1" fill="none" />
<path d="M-215.87582813821768,-115.85606080666956 L148.63001683643517,194.7668300691907" stroke="#0d6d4d" stroke-width="0.1" fill="none" />
<path d="M-214.72983569705343,-117.96651076265859 L105.68289906307268,221.03421645895548" stroke="#0d6d4d" stroke-width="0.1" fill="none" />
<path d="M-213.56321167095302,-120.0656263082308 L58.27354115534327,237.96889376810685" stroke="#0d6d4d" stroke-width="0.1" fill="none" />
<path d="M-212.37606815101225,-122.1532057570189 L8.403704433914037,244.85583054480736" stroke="#0d6d4d" stroke-width="0.1" fill="none" />
<path d="M-211.16851919987346,-124.22904853106088 L-41.82096119110136,241.40424023834458" stroke="#0d6d4d" stroke-width="0.1" fill="none" />
<path d="M-209.94068084076477,-126.29295518007386 L-90.27982389871788,227.75985905513835" stroke="#0d6d4d" stroke-width="0.1" fill="none" />
<path d="M-208.69267104635318,-128.34472740061673 L-134.92680921561302,204.49879255118736" stroke="#0d6d4d" stroke-width="0.1" fill="none" />
<path d="M-207.42460972740932,-130.38416805514362 L-173.87679124605714,172.6031907757648" stroke="#0d6d4d" stroke-width="0.1" fill="none" />
<path d="M-206.13661872128623,-132.41108119094514 L-205.48518818362808,133.41977903271672" stroke="#0d6d4d" stroke-width="0.1" fill="none" />
<path d="M-204.82882178021313,-134.4252720589759 L-228.41740135012643,88.60299521153482" stroke="#0d6d4d" stroke-width="0.1" fill="none" />
<path d="M-203.50134455940497,-136.4265471325663 L-241.7051658430127,40.045134595874856" stroke="#0d6d4d" stroke-width="0.1" fill="none" />
<path d="M-202.15431460498945,-138.4147141260168 L-244.7874335027281,-10.203548360618079" stroke="#0d6d4d" stroke-width="0.1" fill="none" />
<path d="M-200.78786134175186,-140.3895820130733 L-237.5340620018197,-60.02140775519745" stroke="#0d6d4d" stroke-width="0.1" fill="none" />
<path d="M-199.40211606070037,-142.35096104528057 L-220.25130983345684,-107.3049883120379" stroke="#0d6d4d" stroke-width="0.1" fill="none" />
<path d="M-197.99721190645064,-144.29866277021446 L-193.66890518490248,-150.05783939695135" stroke="#0d6d4d" stroke-width="0.1" fill="none" />
<path d="M-196.5732838644335,-146.2325000495883 L-158.90923468580394,-186.47481098414363" stroke="#0d6d4d" stroke-width="0.1" fill="none" />
<path d="M-195.13046874792528,-148.1522870772333 L-117.43995297218585,-215.01827235351598" stroke="#0d6d4d" stroke-width="0.1" fill="none" />
<path d="M-193.66890518490248,-150.05783939695135 L-71.01201402852818,-234.48303534288385" stroke="#0d6d4d" stroke-width="0.1" fill="none" />
<path d="M-192.1887336047223,-151.9489739202377 L-21.585740805346123,-244.047240906109" stroke="#0d6d4d" stroke-width="0.1" fill="none" />
<path d="M-190.69009622462983,-153.82550894387256 L28.751945331425496,-243.30706039829326" stroke="#0d6d4d" stroke-width="0.1" fill="none" />
<path d="M-189.17313703609364,-155.68726416737925 L77.87564050526517,-232.29374639859486" stroke="#0d6d4d" stroke-width="0.1" fill="none" />
<path d="M-187.63800179097097,-157.5340607103479 L123.71119907769754,-211.47231313521468" stroke="#0d6d4d" stroke-width="0.1" fill="none" />
<path d="M-186.08483798750348,-159.36572112962244 L164.32331012466312,-181.72190222885567" stroke="#0d6d4d" stroke-width="0.1" fill="none" />
<path d="M-184.51379485614527,-161.18206943634996 L197.99721190645062,-144.2986627702145" stroke="#0d6d4d" stroke-width="0.1" fill="none" />
<path d="M-182.9250233452253,-162.98293111288922 L223.311094108018,-100.78271304286231" stroke="#0d6d4d" stroke-width="0.1" fill="none" />
<path d="M-181.31867610644295,-164.7681331295795 L239.1961308160161,-53.0114233222171" stroke="#0d6d4d" stroke-width="0.1" fill="none" />
<path d="M-179.69490748020183,-166.5375039613651 L244.98160946518865,-3.001836745359208" stroke="#0d6d4d" stroke-width="0.1" fill="none" />
<path d="M-178.05387348078017,-168.29087360427582 L240.42325027845024,47.13449613123786" stroke="#0d6d4d" stroke-width="0.1" fill="none" />
<path d="M-176.39573178134066,-170.02807359176106 L225.71352047131305,95.28067315277605" stroke="#0d6d4d" stroke-width="0.1" fill="none" />
<path d="M-174.72064169878135,-171.7489370108766 L201.473507724878,139.40382234728546" stroke="#0d6d4d" stroke-width="0.1" fill="none" />
<path d="M-173.0287641784277,-173.4532985183218 L168.72669605305498,177.6409357074546" stroke="#0d6d4d" stroke-width="0.1" fill="none" />
<path d="M-171.3202617785691,-175.14099435632582 L128.8557513233591,208.3775308206061" stroke="#0d6d4d" stroke-width="0.1" fill="none" />
<path d="M-169.5952986548397,-176.81186236838224 L83.54414107259404,230.31581902344985" stroke="#0d6d4d" stroke-width="0.1" fill="none" />
<path d="M-167.85404054444672,-178.46574201482827 L34.70505359902066,242.52950182336397" stroke="#0d6d4d" stroke-width="0.1" fill="none" />
<path d="M-166.0966547502448,-180.10247438827145 L-15.599382425811651,244.50288192152925" stroke="#0d6d4d" stroke-width="0.1" fill="none" />
<path d="M-164.32331012466312,-181.72190222885567 L-65.2451670420535,236.15263745648605" stroke="#0d6d4d" stroke-width="0.1" fill="none" />
<path d="M-162.53417705348022,-183.32386993937246 L-112.13611047273372,217.83134009606346" stroke="#0d6d4d" stroke-width="0.1" fill="none" />
<path d="M-160.7294274394538,-184.90822360021028 L-154.29234036792866,190.3125684335831" stroke="#0d6d4d" stroke-width="0.1" fill="none" />
<path d="M-158.90923468580394,-186.47481098414363 L-189.93389778802188,154.75824524415253" stroke="#0d6d4d" stroke-width="0.1" fill="none" />
<path d="M-157.07377367955212,-188.02348157095923 L-217.55589225989723,112.66957771732343" stroke="#0d6d4d" stroke-width="0.1" fill="none" />
<path d="M-155.22322077471796,-189.55408656191818 L-235.99204264047128,65.82367211253091" stroke="#0d6d4d" stroke-width="0.1" fill="none" />
<path d="M-153.35775377537465,-191.0664788940529 L-244.4639209070388,16.198499151374094" stroke="#0d6d4d" stroke-width="0.1" fill="none" />
<path d="M-151.47755191856547,-192.56051325429704 L-242.61381965802687,-34.110621673349875" stroke="#0d6d4d" stroke-width="0.1" fill="none" />
<path d="M-149.5827958570821,-194.03604609344757 L-230.51985556244412,-82.97949259588118" stroke="#0d6d4d" stroke-width="0.1" fill="none" />
<path d="M-147.67366764210797,-195.49293563995664 L-208.69267104635318,-128.34472740061673" stroke="#0d6d4d" stroke-width="0.1" fill="none" />
<path d="M-145.75035070572488,-196.9310419135546 L-178.05387348078017,-168.29087360427582" stroke="#0d6d4d" stroke-width="0.1" fill="none" />
<path d="M-143.81302984329076,-198.35022673869761 L-139.8971222314115,-201.1312884445618" stroke="#0d6d4d" stroke-width="0.1" fill="none" />
<path d="M-141.86189119568238,-199.75035375784537 L-95.83350658829757,-225.47935385527146" stroke="#0d6d4d" stroke-width="0.1" fill="none" />
<path d="M-139.8971222314115,-201.1312884445618 L-47.72352087863011,-240.30702352396392" stroke="#0d6d4d" stroke-width="0.1" fill="none" />
<path d="M-137.91891172861241,-202.49289811644067 L2.4014910283300432,-244.98823000471032" stroke="#0d6d4d" stroke-width="0.1" fill="none" />
<path d="M-135.9274497569039,-203.83505194785403 L52.42510498213081,-239.3253191110639" stroke="#0d6d4d" stroke-width="0.1" fill="none" />
<path d="M-133.92292765912705,-205.1576209825222 L100.23517814954523,-223.55739545210517" stroke="#0d6d4d" stroke-width="0.1" fill="none" />
<path d="M-131.90553803296038,-206.46047814590383 L143.81302984329076,-198.35022673869761" stroke="#0d6d4d" stroke-width="0.1" fill="none" />
<path d="M-129.87547471241592,-207.74349825740543 L181.31867610644295,-164.76813312957952" stroke="#0d6d4d" stroke-width="0.1" fill="none" />
<path d="M-127.83293274921303,-209.0065580424097 L211.16851919987343,-124.2290485310609" stroke="#0d6d4d" stroke-width="0.1" fill="none" />
<path d="M-125.77810839404053,-210.2495361441185 L232.10221171603655,-78.44465129327902" stroke="#0d6d4d" stroke-width="0.1" fill="none" />
<path d="M-123.71119907769754,-211.47231313521468 L243.23587212126645,-29.348092159575092" stroke="#0d6d4d" stroke-width="0.1" fill="none" />
<path d="M-121.63240339212675,-212.67477152933523 L244.09940481123098,20.987628994309638" stroke="#0d6d4d" stroke-width="0.1" fill="none" />
<path d="M-119.54192107133152,-213.85679579236088 L234.65634891798786,70.43719125916044" stroke="#0d6d4d" stroke-width="0.1" fill="none" />
<path d="M-117.43995297218585,-215.01827235351598 L215.3054177941368,116.91268993780018" stroke="#0d6d4d" stroke-width="0.1" fill="none" />
<path d="M-115.32670105513567,-216.15908961628094 L186.86366417255834,158.45179396903438" stroke="#0d6d4d" stroke-width="0.1" fill="none" />
<path d="M-113.20236836479415,-217.2791379691144 L150.53198181777955,193.300601266555" stroke="#0d6d4d" stroke-width="0.1" fill="none" />
<path d="M-111.06715901043275,-218.3783097959851 L107.84440028983173,219.98769357881488" stroke="#0d6d4d" stroke-width="0.1" fill="none" />
<path d="M-108.92127814637001,-219.4564994867117 L60.603313743509865,237.38626405777083" stroke="#0d6d4d" stroke-width="0.1" fill="none" />
<path d="M-106.76493195226091,-220.51360344710957 L10.803378591979648,244.76169432939943" stroke="#0d6d4d" stroke-width="0.1" fill="none" />
<path d="M-104.59832761328465,-221.54952010894536 L-39.452706702736194,241.8025722233489" stroke="#0d6d4d" stroke-width="0.1" fill="none" />
<path d="M-102.42167330024088,-222.5641499396943 L-88.04298368958874,228.6338405027454" stroke="#0d6d4d" stroke-width="0.1" fill="none" />
<path d="M-100.23517814954526,-223.55739545210514 L-132.91582920122553,205.8115214164422" stroke="#0d6d4d" stroke-width="0.1" fill="none" />
<path d="M-98.03905224313817,-224.52916121356535 L-172.17658086596302,174.29923981849865" stroke="#0d6d4d" stroke-width="0.1" fill="none" />
<path d="M-95.83350658829757,-225.47935385527146 L-204.16753527731842,135.42753611723478" stroke="#0d6d4d" stroke-width="0.1" fill="none" />
<path d="M-93.61875309736605,-226.4078820811997 L-227.53794106514016,90.83768697978174" stroke="#0d6d4d" stroke-width="0.1" fill="none" />
<path d="M-91.39500456738979,-227.31465667687775 L-241.3010315567934,42.41240584578281" stroke="#0d6d4d" stroke-width="0.1" fill="none" />
<path d="M-89.16247465967245,-228.19959051795703 L-244.87568894316018,-7.803650723390015" stroke="#0d6d4d" stroke-width="0.1" fill="none" />
<path d="M-86.92137787924729,-229.0625985785831 L-238.11098076688478,-57.69021440619045" stroke="#0d6d4d" stroke-width="0.1" fill="none" />
<path d="M-84.67192955426488,-229.90359793956597 L-221.2925327307921,-105.14092903142577" stroke="#0d6d4d" stroke-width="0.1" fill="none" />
<path d="M-82.41434581530719,-230.72250779634604 L-195.13046874792528,-148.1522870772333" stroke="#0d6d4d" stroke-width="0.1" fill="none" />
<path d="M-80.14884357461811,-231.51924946675902 L-160.7294274394538,-184.90822360021028" stroke="#0d6d4d" stroke-width="0.1" fill="none" />
<path d="M-77.87564050526538,-232.29374639859478 L-119.54192107133152,-213.85679579236088" stroke="#0d6d4d" stroke-width="0.1" fill="none" />
<path d="M-75.59495502022305,-233.0459241769537 L-73.307006251389,-233.77571053139548" stroke="#0d6d4d" stroke-width="0.1" fill="none" />
<path d="M-73.307006251389,-233.77571053139548 L-23.976855888844547,-243.82393316015057" stroke="#0d6d4d" stroke-width="0.1" fill="none" />
<path d="M-71.01201402852818,-234.48303534288385 L26.36566723780518,-243.57719842198966" stroke="#0d6d4d" stroke-width="0.1" fill="none" />
<path d="M-68.71019885815204,-235.16783065052329 L75.59495502022303,-233.0459241769537" stroke="#0d6d4d" stroke-width="0.1" fill="none" />
<path d="M-66.40178190233172,-235.83003065808896 L121.63240339212673,-212.67477152933526" stroke="#0d6d4d" stroke-width="0.1" fill="none" />
<path d="M-64.0869849574482,-236.46957174034847 L162.53417705348022,-183.32386993937249" stroke="#0d6d4d" stroke-width="0.1" fill="none" />
<path d="M-61.76603043288282,-237.08639244917495 L196.5732838644335,-146.23250004958834" stroke="#0d6d4d" stroke-width="0.1" fill="none" />
<path d="M-59.43914132964556,-237.68043351945155 L222.31249348879768,-102.96676764273647" stroke="#0d6d4d" stroke-width="0.1" fill="none" />
<path d="M-57.10654121895178,-238.251637874765 L238.66502144932093,-55.353478089413485" stroke="#0d6d4d" stroke-width="0.1" fill="none" />
<path d="M-54.76845422073795,-238.7999506328905 L244.9404163370174,-5.403003298959861" stroke="#0d6d4d" stroke-width="0.1" fill="none" />
<path d="M-52.425104982130854,-239.3253191110639 L240.8737126827797,44.77560204412322" stroke="#0d6d4d" stroke-width="0.1" fill="none" />
<path d="M-50.0767186558609,-239.82769283104432 L226.636618572035,93.06365091825013" stroke="#0d6d4d" stroke-width="0.1" fill="none" />
<path d="M-47.72352087863011,-240.30702352396392 L202.8302656287352,137.42228110818397" stroke="#0d6d4d" stroke-width="0.1" fill="none" />
<path d="M-45.3657377494324,-240.76326513496556 L170.459827485495,175.9785419124027" stroke="#0d6d4d" stroke-width="0.1" fill="none" />
<path d="M-43.0035958078296,-241.1963738276279 L130.8920784220739,207.10447558261424" stroke="#0d6d4d" stroke-width="0.1" fill="none" />
<path d="M-40.637322012185194,-241.60630798817726 L85.7976841702283,229.48585444646855" stroke="#0d6d4d" stroke-width="0.1" fill="none" />
<path d="M-38.26714371785757,-241.99302822948607 L37.08066153541564,242.177671431732" stroke="#0d6d4d" stroke-width="0.1" fill="none" />
<path d="M-35.89328865535643,-242.35649739485686 L-13.20201474420721,244.6440410202009" stroke="#0d6d4d" stroke-width="0.1" fill="none" />
<path d="M-33.515984908459714,-242.69668056159298 L-62.92726346867816,236.78082589674267" stroke="#0d6d4d" stroke-width="0.1" fill="none" />
<path d="M-31.1354608923022,-243.01354504435326 L-109.99553965468517,218.92003393037052" stroke="#0d6d4d" stroke-width="0.1" fill="none" />
<path d="M-28.751945331425524,-243.30706039829326 L-152.4194834463326,191.81579983398953" stroke="#0d6d4d" stroke-width="0.1" fill="none" />
<path d="M-26.365667237805233,-243.57719842198966 L-188.40783224273096,156.61254339801442" stroke="#0d6d4d" stroke-width="0.1" fill="none" />
<path d="M-23.976855888844547,-243.82393316015057 L-216.4410530277298,114.79664875007222" stroke="#0d6d4d" stroke-width="0.1" fill="none" />
<path d="M-21.585740805346123,-244.047240906109 L-235.33550148430697,68.13370488333769" stroke="#0d6d4d" stroke-width="0.1" fill="none" />
<path d="M-19.192551729459108,-244.24710020410075 L-244.29339890874493,18.593957341373773" stroke="#0d6d4d" stroke-width="0.1" fill="none" />
<path d="M-16.797518602604914,-244.42349185132582 L-242.9365167535564,-31.730881293292516" stroke="#0d6d4d" stroke-width="0.1" fill="none" />
<path d="M-14.400871543385184,-244.5763988997935 L-231.32214653954713,-80.71594960313777" stroke="#0d6d4d" stroke-width="0.1" fill="none" />
<path d="M-12.002840825469248,-244.70580665795092 L-209.94068084076477,-126.29295518007386" stroke="#0d6d4d" stroke-width="0.1" fill="none" />
<path d="M-9.603656855472288,-244.81170269209423 L-179.69490748020183,-166.5375039613651" stroke="#0d6d4d" stroke-width="0.1" fill="none" />
<path d="M-7.203550150814056,-244.89407682756377 L-141.86189119568238,-199.75035375784537" stroke="#0d6d4d" stroke-width="0.1" fill="none" />
<path d="M-4.802751317573859,-244.95292114972122 L-98.03905224313817,-224.52916121356535" stroke="#0d6d4d" stroke-width="0.1" fill="none" />
<path d="M-2.401491028330082,-244.98823000471032 L-50.0767186558609,-239.82769283104432" stroke="#0d6d4d" stroke-width="0.1" fill="none" />
</svg>