<?xml version="1.0" encoding="UTF-8"?>
<svg xmlns="http://www.w3.org/2000/svg" xmlns:xlink="http://www.w3.org/1999/xlink"
     width="500.0" height="500" viewBox="-250.0 -250.0 500 500">
<defs>
</defs>
<circle cx="0" cy="0" r="245.0" fill="white" stroke-width="2" stroke="black" />
<path d="M0.0,-245.0 L0.0,-245.0" stroke="#4c0618" stroke-width="0.1" fill="none" />
<path d="M18.98564306462308,-244.26327058610906 L37.857104237920915,-242.0575131218182" stroke="#4c0618" stroke-width="0.1" fill="none" />
<path d="M37.857104237920915,-242.0575131218182 L74.8048694353027,-233.30073190791174" stroke="#4c0618" stroke-width="0.1" fill="none" />
<path d="M56.50088833189784,-238.39599329205683 L109.95579914911323,-218.93999687923602" stroke="#4c0618" stroke-width="0.1" fill="none" />
<path d="M74.8048694353027,-233.30073190791174 L142.46555746556652,-199.32025721442707" stroke="#4c0618" stroke-width="0.1" fill="none" />
<path d="M92.65896525205241,-226.80237247087817 L171.5532502029563,-174.91278496668525" stroke="#4c0618" stroke-width="0.1" fill="none" />
<path d="M109.95579914911323,-218.93999687923602 L196.52018222498572,-146.30385496718262" stroke="#4c0618" stroke-width="0.1" fill="none" />
<path d="M126.5913459322064,-209.76089038491529 L216.76664030828113,-114.18066232712204" stroke="#4c0618" stroke-width="0.1" fill="none" />
<path d="M142.46555746556652,-199.32025721442707 L231.80629843455884,-79.31481580428867" stroke="#4c0618" stroke-width="0.1" fill="none" />
<path d="M157.48296437320212,-187.68088856414965 L241.27789948799096,-42.54380352839795" stroke="#4c0618" stroke-width="0.1" fill="none" />
<path d="M171.5532502029563,-174.91278496668525 L244.95393275988286,-4.750876284096987" stroke="#4c0618" stroke-width="0.1" fill="none" />
<path d="M184.59179460027684,-161.09273529942064 L242.7460988243871,33.15616843878205" stroke="#4c0618" stroke-width="0.1" fill="none" />
<path d="M196.52018222498572,-146.30385496718262 L234.70743051729477,70.2667920142171" stroke="#4c0618" stroke-width="0.1" fill="none" />
<path d="M207.26667435036106,-130.63508603641432 L221.03101907135422,105.68958609190715" stroke="#4c0618" stroke-width="0.1" fill="none" />
<path d="M216.76664030828113,-114.18066232712204 L202.04537600673117,138.57368449420193" stroke="#4c0618" stroke-width="0.1" fill="none" />
<path d="M224.96294618566714,-97.03954267959344 L178.20654218539698,168.12920127783968" stroke="#4c0618" stroke-width="0.1" fill="none" />
<path d="M231.80629843455884,-79.31481580428867 L150.08713357233472,193.646204032096" stroke="#4c0618" stroke-width="0.1" fill="none" />
<path d="M237.25554032931245,-61.11308029420538 L118.36258682767637,214.5117666690123" stroke="#4c0618" stroke-width="0.1" fill="none" />
<path d="M241.27789948799096,-42.54380352839795 L83.79493511478887,230.22469209254754" stroke="#4c0618" stroke-width="0.1" fill="none" />
<path d="M243.84918496932562,-23.718663322278893 L47.214503834282006,240.40755110370924" stroke="#4c0618" stroke-width="0.1" fill="none" />
<path d="M244.95393275988286,-4.750876284096987 L9.499965957920127,244.81574836353636" stroke="#4c0618" stroke-width="0.1" fill="none" />
<path d="M244.5854987764607,14.245483083066565 L-28.44276396068138,243.34339764677605" stroke="#4c0618" stroke-width="0.1" fill="none" />
<path d="M242.7460988243871,33.15616843878205 L-65.70229012635603,236.0258652608907" stroke="#4c0618" stroke-width="0.1" fill="none" />
<path d="M239.4467952714057,51.86744869620557 L-101.38362750375897,223.038920536706" stroke="#4c0618" stroke-width="0.1" fill="none" />
<path d="M234.70743051729477,70.2667920142171 L-134.62969962734746,204.69451379616945" stroke="#4c0618" stroke-width="0.1" fill="none" />
<path d="M228.55650765934013,88.24354257715405 L-164.64192583610298,181.43328321170614" stroke="#4c0618" stroke-width="0.1" fill="none" />
<path d="M221.03101907135422,105.68958609190715 L-190.69940342141925,153.81397054466407" stroke="#4c0618" stroke-width="0.1" fill="none" />
<path d="M212.17622392718752,122.49999999999994 L-212.1762239271874,122.50000000000011" stroke="#4c0618" stroke-width="0.1" fill="none" />
<path d="M202.04537600673117,138.57368449420193 L-228.55650765934007,88.24354257715416" stroke="#4c0618" stroke-width="0.1" fill="none" />
<path d="M190.69940342141925,153.8139705446641 L-239.44679527140568,51.867448696205734" stroke="#4c0618" stroke-width="0.1" fill="none" />
<path d="M178.20654218539698,168.12920127783968 L-244.5854987764607,14.245483083066679" stroke="#4c0618" stroke-width="0.1" fill="none" />
<path d="M164.641925836103,181.43328321170608 L-243.84918496932562,-23.718663322278783" stroke="#4c0618" stroke-width="0.1" fill="none" />
<path d="M150.08713357233472,193.646204032096 L-237.25554032931248,-61.113080294205325" stroke="#4c0618" stroke-width="0.1" fill="none" />
<path d="M134.62969962734752,204.6945137961694 L-224.96294618566716,-97.03954267959334" stroke="#4c0618" stroke-width="0.1" fill="none" />
<path d="M118.36258682767637,214.5117666690123 L-207.266674350361,-130.63508603641446" stroke="#4c0618" stroke-width="0.1" fill="none" />
<path d="M101.38362750375913,223.03892053670592 L-184.59179460027693,-161.09273529942053" stroke="#4c0618" stroke-width="0.1" fill="none" />
<path d="M83.79493511478887,230.22469209254754 L-157.4829643732022,-187.6808885641496" stroke="#4c0618" stroke-width="0.1" fill="none" />
<path d="M65.70229012635617,236.02586526089067 L-126.59134593220647,-209.76089038491523" stroke="#4c0618" stroke-width="0.1" fill="none" />
<path d="M47.214503834282006,240.40755110370924 L-92.65896525205247,-226.80237247087814" stroke="#4c0618" stroke-width="0.1" fill="none" />
<path d="M28.44276396068144,243.34339764677605 L-56.50088833189791,-238.39599329205683" stroke="#4c0618" stroke-width="0.1" fill="none" />
<path d="M9.499965957920127,244.81574836353636 L-18.985643064623144,-244.26327058610906" stroke="#4c0618" stroke-width="0.1" fill="none" />
<path d="M-9.499965957919956,244.81574836353636 L18.98564306462308,-244.26327058610906" stroke="#4c0618" stroke-width="0.1" fill="none" />
<path d="M-28.44276396068138,243.34339764677605 L56.50088833189784,-238.39599329205683" stroke="#4c0618" stroke-width="0.1" fill="none" />
<path d="M-47.21450383428195,240.40755110370924 L92.65896525205241,-226.80237247087817" stroke="#4c0618" stroke-width="0.1" fill="none" />
<path d="M-65.70229012635603,236.0258652608907 L126.5913459322064,-209.76089038491529" stroke="#4c0618" stroke-width="0.1" fill="none" />
<path d="M-83.79493511478883,230.22469209254757 L157.48296437320212,-187.68088856414965" stroke="#4c0618" stroke-width="0.1" fill="none" />
<path d="M-101.38362750375897,223.038920536706 L184.59179460027684,-161.09273529942064" stroke="#4c0618" stroke-width="0.1" fill="none" />
<path d="M-118.36258682767641,214.51176666901227 L207.26667435036106,-130.63508603641432" stroke="#4c0618" stroke-width="0.1" fill="none" />
<path d="M-134.62969962734746,204.69451379616945 L224.96294618566714,-97.03954267959344" stroke="#4c0618" stroke-width="0.1" fill="none" />
<path d="M-150.0871335723346,193.64620403209608 L237.25554032931245,-61.11308029420538" stroke="#4c0618" stroke-width="0.1" fill="none" />
<path d="M-164.64192583610298,181.43328321170614 L243.84918496932562,-23.718663322278893" stroke="#4c0618" stroke-width="0.1" fill="none" />
<path d="M-178.20654218539693,168.12920127783974 L244.5854987764607,14.245483083066565" stroke="#4c0618" stroke-width="0.1" fill="none" />
<path d="M-190.69940342141925,153.81397054466407 L239.4467952714057,51.86744869620557" stroke="#4c0618" stroke-width="0.1" fill="none" />
<path d="M-202.0453760067311,138.57368449420204 L228.55650765934013,88.24354257715405" stroke="#4c0618" stroke-width="0.1" fill="none" />
<path d="M-212.1762239271874,122.50000000000011 L212.17622392718752,122.49999999999994" stroke="#4c0618" stroke-width="0.1" fill="none" />
<path d="M-221.03101907135428,105.68958609190699 L190.69940342141925,153.8139705446641" stroke="#4c0618" stroke-width="0.1" fill="none" />
<path d="M-228.55650765934007,88.24354257715416 L164.641925836103,181.43328321170608" stroke="#4c0618" stroke-width="0.1" fill="none" />
<path d="M-234.70743051729477,70.2667920142172 L134.62969962734752,204.6945137961694" stroke="#4c0618" stroke-width="0.1" fill="none" />
<path d="M-239.44679527140568,51.867448696205734 L101.38362750375913,223.03892053670592" stroke="#4c0618" stroke-width="0.1" fill="none" />
<path d="M-242.74609882438708,33.156168438782224 L65.70229012635617,236.02586526089067" stroke="#4c0618" stroke-width="0.1" fill="none" />
<path d="M-244.5854987764607,14.245483083066679 L28.44276396068144,243.34339764677605" stroke="#4c0618" stroke-width="0.1" fill="none" />
<path d="M-244.95393275988286,-4.750876284096872 L-9.499965957919956,244.81574836353636" stroke="#4c0618" stroke-width="0.1" fill="none" />
<path d="M-243.84918496932562,-23.718663322278783 L-47.21450383428195,240.40755110370924" stroke="#4c0618" stroke-width="0.1" fill="none" />
<path d="M-241.27789948799096,-42.54380352839805 L-83.79493511478883,230.22469209254757" stroke="#4c0618" stroke-width="0.1" fill="none" />
<path d="M-237.25554032931248,-61.113080294205325 L-118.36258682767641,214.51176666901227" stroke="#4c0618" stroke-width="0.1" fill="none" />
<path d="M-231.8062984345589,-79.31481580428857 L-150.0871335723346,193.64620403209608" stroke="#4c0618" stroke-width="0.1" fill="none" />
<path d="M-224.96294618566716,-97.03954267959334 L-178.20654218539693,168.12920127783974" stroke="#4c0618" stroke-width="0.1" fill="none" />
<path d="M-216.76664030828118,-114.18066232712194 L-202.0453760067311,138.57368449420204" stroke="#4c0618" stroke-width="0.1" fill="none" />
<path d="M-207.266674350361,-130.63508603641446 L-221.03101907135428,105.68958609190699" stroke="#4c0618" stroke-width="0.1" fill="none" />
<path d="M-196.52018222498577,-146.30385496718253 L-234.70743051729477,70.2667920142172" stroke="#4c0618" stroke-width="0.1" fill="none" />
<path d="M-184.59179460027693,-161.09273529942053 L-242.74609882438708,33.156168438782224" stroke="#4c0618" stroke-width="0.1" fill="none" />
<path d="M-171.55325020295632,-174.9127849666852 L-244.95393275988286,-4.750876284096872" stroke="#4c0618" stroke-width="0.1" fill="none" />
<path d="M-157.4829643732022,-187.6808885641496 L-241.27789948799096,-42.54380352839805" stroke="#4c0618" stroke-width="0.1" fill="none" />
<path d="M-142.4655574655666,-199.32025721442702 L-231.8062984345589,-79.31481580428857" stroke="#4c0618" stroke-width="0.1" fill="none" />
<path d="M-126.59134593220647,-209.76089038491523 L-216.76664030828118,-114.18066232712194" stroke="#4c0618" stroke-width="0.1" fill="none" />
<path d="M-109.95579914911329,-218.939996879236 L-196.52018222498577,-146.30385496718253" stroke="#4c0618" stroke-width="0.1" fill="none" />
<path d="M-92.65896525205247,-226.80237247087814 L-171.55325020295632,-174.9127849666852" stroke="#4c0618" stroke-width="0.1" fill="none" />
<path d="M-74.80486943530278,-233.3007319079117 L-142.4655574655666,-199.32025721442702" stroke="#4c0618" stroke-width="0.1" fill="none" />
<path d="M-56.50088833189791,-238.39599329205683 L-109.95579914911329,-218.939996879236" stroke="#4c0618" stroke-width="0.1" fill="none" />
<path d="M-37.857104237920986,-242.05751312181818 L-74.80486943530278,-233.3007319079117" stroke="#4c0618" stroke-width="0.1" fill="none" />
<path d="M-18.985643064623144,-244.26327058610906 L-37.857104237920986,-242.05751312181818" stroke="#4c0618" stroke-width="0.1" fill="none" />
</svg>