<?xml version="1.0" encoding="UTF-8"?>
<svg xmlns="http://www.w3.org/2000/svg" xmlns:xlink="http://www.w3.org/1999/xlink"
     width="500.0" height="500" viewBox="-250.0 -250.0 500 500">
<defs>
</defs>
<circle cx="0" cy="0" r="245.0" fill="white" stroke-width="2" stroke="black" />
<path d="M0.0,-245.0 L0.0,-245.0" stroke="#0d6d4d" stroke-width="0.1" fill="none" />
<path d="M2.498950824134012,-244.9872552701029 L52.078495940479286,-239.40098216293407" stroke="#0d6d4d" stroke-width="0.1" fill="none" />
<path d="M4.9976416608943115,-244.9490224063556 L101.77667818546217,-222.85983886185699" stroke="#0d6d4d" stroke-width="0.1" fill="none" />
<path d="M7.495812549955913,-244.88530538645213 L146.82302829528,-196.1326040264683" stroke="#0d6d4d" stroke-width="0.1" fill="none" />
<path d="M9.993203585088464,-244.7961108394228 L185.15864571679327,-160.44087981659484" stroke="#0d6d4d" stroke-width="0.1" fill="none" />
<path d="M12.489554941196538,-244.6814480449444 L215.03135244397762,-117.41600174641393" stroke="#0d6d4d" stroke-width="0.1" fill="none" />
<path d="M14.984606901351462,-244.5413289323749 L235.07577853555188,-69.02447642615024" stroke="#0d6d4d" stroke-width="0.1" fill="none" />
<path d="M17.47809988381192,-244.3757680795121 L244.3757680795121,-17.478099883811925" stroke="#0d6d4d" stroke-width="0.1" fill="none" />
<path d="M19.969774469030476,-244.18478271107733 L242.50625326082852,34.86713537695488" stroke="#0d6d4d" stroke-width="0.1" fill="none" />
<path d="M22.459371426643198,-243.9683926969231 L229.55268262494164,85.61872400177909" stroke="#0d6d4d" stroke-width="0.1" fill="none" />
<path d="M24.94663174243967,-243.726620549966 L206.1071155436394,132.45700027662141" stroke="#0d6d4d" stroke-width="0.1" fill="none" />
<path d="M27.43129664531042,-243.45949142384444 L173.24116139070415,173.24116139070412" stroke="#0d6d4d" stroke-width="0.1" fill="none" />
<path d="M29.91310763416916,-243.1670331103018 L132.45700027662136,206.10711554363942" stroke="#0d6d4d" stroke-width="0.1" fill="none" />
<path d="M32.39180650484685,-242.8492760362949 L85.61872400177907,229.55268262494164" stroke="#0d6d4d" stroke-width="0.1" fill="none" />
<path d="M34.86713537695486,-242.50625326082852 L34.86713537695487,242.50625326082852" stroke="#0d6d4d" stroke-width="0.1" fill="none" />
<path d="M37.33883672071459,-242.13800047151585 L-17.478099883811883,244.3757680795121" stroke="#0d6d4d" stroke-width="0.1" fill="none" />
<path d="M39.80665338375042,-241.74455598086578 L-69.02447642615031,235.07577853555185" stroke="#0d6d4d" stroke-width="0.1" fill="none" />
<path d="M42.270328617843525,-241.32596072229677 L-117.41600174641383,215.03135244397768" stroke="#0d6d4d" stroke-width="0.1" fill="none" />
<path d="M44.729606105643605,-240.88225824587823 L-160.44087981659482,185.1586457167933" stroke="#0d6d4d" stroke-width="0.1" fill="none" />
<path d="M47.18422998733577,-240.4134947137997 L-196.13260402646824,146.82302829528007" stroke="#0d6d4d" stroke-width="0.1" fill="none" />
<path d="M49.63394488725984,-239.91971889556817 L-222.859838861857,101.77667818546215" stroke="#0d6d4d" stroke-width="0.1" fill="none" />
<path d="M52.078495940479286,-239.40098216293407 L-239.40098216293404,52.07849594047941" stroke="#0d6d4d" stroke-width="0.1" fill="none" />
<path d="M54.517628819297016,-238.85733848454677 L-245.0,4.500576986866523e-14" stroke="#0d6d4d" stroke-width="0.1" fill="none" />
<path d="M56.95108975971532,-238.28884442033967 L-239.40098216293407,-52.078495940479314" stroke="#0d6d4d" stroke-width="0.1" fill="none" />
<path d="M59.37862558783702,-237.6955591156458 L-222.85983886185696,-101.77667818546227" stroke="#0d6d4d" stroke-width="0.1" fill="none" />
<path d="M61.799983746205434,-237.07754429504442 L-196.13260402646833,-146.82302829527998" stroke="#0d6d4d" stroke-width="0.1" fill="none" />
<path d="M64.21491232008003,-236.43486425593926 L-160.4408798165948,-185.1586457167933" stroke="#0d6d4d" stroke-width="0.1" fill="none" />
<path d="M66.62316006364537,-235.76758586186926 L-117.41600174641401,-215.03135244397757" stroke="#0d6d4d" stroke-width="0.1" fill="none" />
<path d="M69.02447642615027,-235.07577853555185 L-69.02447642615029,-235.07577853555185" stroke="#0d6d4d" stroke-width="0.1" fill="none" />
<path d="M71.41861157797486,-234.3595142516607 L-17.47809988381208,-244.3757680795121" stroke="#0d6d4d" stroke-width="0.1" fill="none" />
<path d="M73.80531643662238,-233.61886752933725 L34.86713537695486,-242.50625326082852" stroke="#0d6d4d" stroke-width="0.1" fill="none" />
<path d="M76.18434269263356,-232.8539154244381 L85.61872400177909,-229.55268262494164" stroke="#0d6d4d" stroke-width="0.1" fill="none" />
<path d="M78.5554428354202,-232.06473752151797 L132.45700027662141,-206.1071155436394" stroke="#0d6d4d" stroke-width="0.1" fill="none" />
<path d="M80.91837017901592,-231.25141592555005 L173.24116139070412,-173.24116139070415" stroke="#0d6d4d" stroke-width="0.1" fill="none" />
<path d="M83.2728788877411,-230.41403525338382 L206.10711554363937,-132.45700027662144" stroke="#0d6d4d" stroke-width="0.1" fill="none" />
<path d="M85.61872400177909,-229.55268262494164 L229.5526826249416,-85.6187240017791" stroke="#0d6d4d" stroke-width="0.1" fill="none" />
<path d="M87.95566146266167,-228.66744765415484 L242.50625326082852,-34.867135376954906" stroke="#0d6d4d" stroke-width="0.1" fill="none" />
<path d="M90.28344813866049,-227.75842243964064 L244.3757680795121,17.4780998838119" stroke="#0d6d4d" stroke-width="0.1" fill="none" />
<path d="M92.6018418500821,-226.82570155512002 L235.07577853555185,69.02447642615027" stroke="#0d6d4d" stroke-width="0.1" fill="none" />
<path d="M94.91060139446411,-225.86938203957868 L215.0313524439776,117.41600174641394" stroke="#0d6d4d" stroke-width="0.1" fill="none" />
<path d="M97.20948657166942,-224.88956338717105 L185.1586457167933,160.44087981659482" stroke="#0d6d4d" stroke-width="0.1" fill="none" />
<path d="M99.49825820887642,-223.88634753686915 L146.82302829528004,196.13260402646827" stroke="#0d6d4d" stroke-width="0.1" fill="none" />
<path d="M101.77667818546217,-222.85983886185699 L101.77667818546213,222.859838861857" stroke="#0d6d4d" stroke-width="0.1" fill="none" />
<path d="M104.0445094577761,-221.81014415867176 L52.07849594047928,239.40098216293407" stroke="#0d6d4d" stroke-width="0.1" fill="none" />
<path d="M106.30151608380173,-220.7373726360927 L3.0003846579110155e-14,245.0" stroke="#0d6d4d" stroke-width="0.1" fill="none" />
<path d="M108.54746324770377,-219.6416359037794 L-52.07849594047923,239.40098216293407" stroke="#0d6d4d" stroke-width="0.1" fill="none" />
<path d="M110.78211728425799,-218.52304796066 L-101.77667818546209,222.85983886185704" stroke="#0d6d4d" stroke-width="0.1" fill="none" />
<path d="M113.00524570316148,-217.38172518307078 L-146.82302829527998,196.1326040264683" stroke="#0d6d4d" stroke-width="0.1" fill="none" />
<path d="M115.21661721322052,-216.2177863126487 L-185.15864571679316,160.44087981659496" stroke="#0d6d4d" stroke-width="0.1" fill="none" />
<path d="M117.41600174641391,-215.03135244397762 L-215.03135244397757,117.416001746414" stroke="#0d6d4d" stroke-width="0.1" fill="none" />
<path d="M119.60317048182893,-213.82254701198974 L-235.07577853555185,69.02447642615027" stroke="#0d6d4d" stroke-width="0.1" fill="none" />
<path d="M121.77789586946734,-212.59149577912368 L-244.3757680795121,17.478099883811847" stroke="#0d6d4d" stroke-width="0.1" fill="none" />
<path d="M123.93995165391974,-211.33832682224028 L-242.50625326082854,-34.86713537695479" stroke="#0d6d4d" stroke-width="0.1" fill="none" />
<path d="M126.0891128979044,-210.06317051929764 L-229.5526826249416,-85.6187240017791" stroke="#0d6d4d" stroke-width="0.1" fill="none" />
<path d="M128.22515600566993,-208.76615953578684 L-206.10711554363945,-132.4570002766213" stroke="#0d6d4d" stroke-width="0.1" fill="none" />
<path d="M130.34785874625746,-207.4474288109296 L-173.24116139070418,-173.24116139070412" stroke="#0d6d4d" stroke-width="0.1" fill="none" />
<path d="M132.45700027662141,-206.1071155436394 L-132.45700027662156,-206.10711554363928" stroke="#0d6d4d" stroke-width="0.1" fill="none" />
<path d="M134.5523611646057,-204.7453591782473 L-85.6187240017792,-229.55268262494158" stroke="#0d6d4d" stroke-width="0.1" fill="none" />
<path d="M136.6337234117732,-203.36230138999474 L-34.8671353769549,-242.50625326082852" stroke="#0d6d4d" stroke-width="0.1" fill="none" />
<path d="M138.70087047608587,-201.95808607029346 L17.47809988381192,-244.3757680795121" stroke="#0d6d4d" stroke-width="0.1" fill="none" />
<path d="M140.7535872944335,-200.5328593117554 L69.02447642615027,-235.07577853555185" stroke="#0d6d4d" stroke-width="0.1" fill="none" />
<path d="M142.7916603050088,-199.08676939299352 L117.41600174641391,-215.03135244397762" stroke="#0d6d4d" stroke-width="0.1" fill="none" />
<path d="M144.81487746952573,-197.6199667631949 L160.44087981659482,-185.1586457167933" stroke="#0d6d4d" stroke-width="0.1" fill="none" />
<path d="M146.82302829528,-196.1326040264683 L196.1326040264683,-146.82302829528" stroke="#0d6d4d" stroke-width="0.1" fill="none" />
<path d="M148.8159038570481,-194.6248359259676 L222.85983886185699,-101.77667818546217" stroke="#0d6d4d" stroke-width="0.1" fill="none" />
<path d="M150.79329681882402,-193.09681932779222 L239.40098216293407,-52.078495940479264" stroke="#0d6d4d" stroke-width="0.1" fill="none" />
<path d="M152.7550014553897,-191.5487132046673 L245.0,-1.5001923289555078e-14" stroke="#0d6d4d" stroke-width="0.1" fill="none" />
<path d="M154.7008136737188,-189.98067861940416 L239.40098216293407,52.07849594047924" stroke="#0d6d4d" stroke-width="0.1" fill="none" />
<path d="M156.6305310342101,-188.3928787081437 L222.859838861857,101.7766781854621" stroke="#0d6d4d" stroke-width="0.1" fill="none" />
<path d="M158.543952771749,-186.78547866338383 L196.1326040264683,146.82302829527998" stroke="#0d6d4d" stroke-width="0.1" fill="none" />
<path d="M160.44087981659482,-185.1586457167933 L160.44087981659487,185.15864571679325" stroke="#0d6d4d" stroke-width="0.1" fill="none" />
<path d="M162.321114815092,-183.5125491218127 L117.41600174641398,215.03135244397757" stroke="#0d6d4d" stroke-width="0.1" fill="none" />
<path d="M164.18446215020208,-181.84736013604615 L69.02447642615036,235.07577853555182" stroke="#0d6d4d" stroke-width="0.1" fill="none" />
<path d="M166.0307279618558,-180.16325200344335 L17.478099883811943,244.3757680795121" stroke="#0d6d4d" stroke-width="0.1" fill="none" />
<path d="M167.85972016712182,-178.46039993627593 L-34.86713537695481,242.50625326082854" stroke="#0d6d4d" stroke-width="0.1" fill="none" />
<path d="M169.67124848019085,-176.7389810969084 L-85.61872400177911,229.5526826249416" stroke="#0d6d4d" stroke-width="0.1" fill="none" />
<path d="M171.46512443217264,-174.99917457936638 L-132.45700027662141,206.1071155436394" stroke="#0d6d4d" stroke-width="0.1" fill="none" />
<path d="M173.24116139070412,-173.24116139070415 L-173.24116139070418,173.2411613907041" stroke="#0d6d4d" stroke-width="0.1" fill="none" />
<path d="M174.99917457936638,-171.46512443217267 L-206.1071155436394,132.4570002766214" stroke="#0d6d4d" stroke-width="0.1" fill="none" />
<path d="M176.73898109690836,-169.67124848019085 L-229.55268262494167,85.61872400177897" stroke="#0d6d4d" stroke-width="0.1" fill="none" />
<path d="M178.4603999362759,-167.85972016712185 L-242.50625326082852,34.867135376954884" stroke="#0d6d4d" stroke-width="0.1" fill="none" />
<path d="M180.16325200344332,-166.03072796185583 L-244.37576807951214,-17.47809988381176" stroke="#0d6d4d" stroke-width="0.1" fill="none" />
<path d="M181.8473601360461,-164.1844621502021 L-235.07577853555188,-69.0244764261502" stroke="#0d6d4d" stroke-width="0.1" fill="none" />
<path d="M183.5125491218127,-162.321114815092 L-215.03135244397774,-117.41600174641374" stroke="#0d6d4d" stroke-width="0.1" fill="none" />
<path d="M185.15864571679327,-160.44087981659484 L-185.15864571679325,-160.44087981659487" stroke="#0d6d4d" stroke-width="0.1" fill="none" />
<path d="M186.78547866338383,-158.543952771749 L-146.82302829528007,-196.13260402646824" stroke="#0d6d4d" stroke-width="0.1" fill="none" />
<path d="M188.3928787081437,-156.63053103421012 L-101.77667818546216,-222.859838861857" stroke="#0d6d4d" stroke-width="0.1" fill="none" />
<path d="M189.98067861940416,-154.70081367371884 L-52.07849594047942,-239.40098216293404" stroke="#0d6d4d" stroke-width="0.1" fill="none" />
<path d="M191.54871320466728,-152.75500145538976 L0.0,-245.0" stroke="#0d6d4d" stroke-width="0.1" fill="none" />
<path d="M193.09681932779222,-150.79329681882402 L52.078495940479286,-239.40098216293407" stroke="#0d6d4d" stroke-width="0.1" fill="none" />
<path d="M194.62483592596757,-148.81590385704814 L101.77667818546217,-222.85983886185699" stroke="#0d6d4d" stroke-width="0.1" fill="none" />
<path d="M196.1326040264683,-146.82302829528 L146.82302829528,-196.1326040264683" stroke="#0d6d4d" stroke-width="0.1" fill="none" />
<path d="M197.61996676319487,-144.81487746952578 L185.15864571679327,-160.44087981659484" stroke="#0d6d4d" stroke-width="0.1" fill="none" />
<path d="M199.0867693929935,-142.7916603050088 L215.03135244397762,-117.41600174641393" stroke="#0d6d4d" stroke-width="0.1" fill="none" />
<path d="M200.5328593117554,-140.75358729443352 L235.07577853555188,-69.02447642615024" stroke="#0d6d4d" stroke-width="0.1" fill="none" />
<path d="M201.95808607029346,-138.70087047608587 L244.3757680795121,-17.478099883811925" stroke="#0d6d4d" stroke-width="0.1" fill="none" />
<path d="M203.3623013899947,-136.63372341177322 L242.50625326082852,34.86713537695488" stroke="#0d6d4d" stroke-width="0.1" fill="none" />
<path d="M204.7453591782473,-134.55236116460574 L229.55268262494164,85.61872400177909" stroke="#0d6d4d" stroke-width="0.1" fill="none" />
<path d="M206.10711554363937,-132.45700027662144 L206.1071155436394,132.45700027662141" stroke="#0d6d4d" stroke-width="0.1" fill="none" />
<path d="M207.4474288109296,-130.3478587462575 L173.24116139070415,173.24116139070412" stroke="#0d6d4d" stroke-width="0.1" fill="none" />
<path d="M208.76615953578684,-128.22515600566993 L132.45700027662136,206.10711554363942" stroke="#0d6d4d" stroke-width="0.1" fill="none" />
<path d="M210.06317051929764,-126.08911289790443 L85.61872400177907,229.55268262494164" stroke="#0d6d4d" stroke-width="0.1" fill="none" />
<path d="M211.33832682224025,-123.93995165391976 L34.86713537695487,242.50625326082852" stroke="#0d6d4d" stroke-width="0.1" fill="none" />
<path d="M212.59149577912368,-121.77789586946736 L-17.478099883811883,244.3757680795121" stroke="#0d6d4d" stroke-width="0.1" fill="none" />
<path d="M213.82254701198974,-119.6031704818289 L-69.02447642615031,235.07577853555185" stroke="#0d6d4d" stroke-width="0.1" fill="none" />
<path d="M215.03135244397762,-117.41600174641393 L-117.41600174641383,215.03135244397768" stroke="#0d6d4d" stroke-width="0.1" fill="none" />
<path d="M216.2177863126487,-115.21661721322053 L-160.44087981659482,185.1586457167933" stroke="#0d6d4d" stroke-width="0.1" fill="none" />
<path d="M217.38172518307078,-113.00524570316146 L-196.13260402646824,146.82302829528007" stroke="#0d6d4d" stroke-width="0.1" fill="none" />
<path d="M218.52304796065997,-110.782117284258 L-222.859838861857,101.77667818546215" stroke="#0d6d4d" stroke-width="0.1" fill="none" />
<path d="M219.6416359037794,-108.54746324770382 L-239.40098216293404,52.07849594047941" stroke="#0d6d4d" stroke-width="0.1" fill="none" />
<path d="M220.7373726360927,-106.30151608380176 L-245.0,4.500576986866523e-14" stroke="#0d6d4d" stroke-width="0.1" fill="none" />
<path d="M221.81014415867176,-104.04450945777609 L-239.40098216293407,-52.078495940479314" stroke="#0d6d4d" stroke-width="0.1" fill="none" />
<path d="M222.85983886185699,-101.77667818546217 L-222.85983886185696,-101.77667818546227" stroke="#0d6d4d" stroke-width="0.1" fill="none" />
<path d="M223.88634753686915,-99.49825820887646 L-196.13260402646833,-146.82302829527998" stroke="#0d6d4d" stroke-width="0.1" fill="none" />
<path d="M224.88956338717105,-97.20948657166942 L-160.4408798165948,-185.1586457167933" stroke="#0d6d4d" stroke-width="0.1" fill="none" />
<path d="M225.86938203957868,-94.91060139446408 L-117.41600174641401,-215.03135244397757" stroke="#0d6d4d" stroke-width="0.1" fill="none" />
<path d="M226.82570155512002,-92.6018418500821 L-69.02447642615029,-235.07577853555185" stroke="#0d6d4d" stroke-width="0.1" fill="none" />
<path d="M227.75842243964064,-90.2834481386605 L-17.47809988381208,-244.3757680795121" stroke="#0d6d4d" stroke-width="0.1" fill="none" />
<path d="M228.66744765415484,-87.95566146266167 L34.86713537695486,-242.50625326082852" stroke="#0d6d4d" stroke-width="0.1" fill="none" />
<path d="M229.5526826249416,-85.6187240017791 L85.61872400177909,-229.55268262494164" stroke="#0d6d4d" stroke-width="0.1" fill="none" />
<path d="M230.4140352533838,-83.27287888774113 L132.45700027662141,-206.1071155436394" stroke="#0d6d4d" stroke-width="0.1" fill="none" />
<path d="M231.25141592555005,-80.91837017901594 L173.24116139070412,-173.24116139070415" stroke="#0d6d4d" stroke-width="0.1" fill="none" />
<path d="M232.06473752151797,-78.55544283542018 L206.10711554363937,-132.45700027662144" stroke="#0d6d4d" stroke-width="0.1" fill="none" />
<path d="M232.8539154244381,-76.18434269263356 L229.5526826249416,-85.6187240017791" stroke="#0d6d4d" stroke-width="0.1" fill="none" />
<path d="M233.61886752933725,-73.80531643662242 L242.50625326082852,-34.867135376954906" stroke="#0d6d4d" stroke-width="0.1" fill="none" />
<path d="M234.3595142516607,-71.41861157797491 L244.3757680795121,17.4780998838119" stroke="#0d6d4d" stroke-width="0.1" fill="none" />
<path d="M235.07577853555188,-69.02447642615024 L235.07577853555185,69.02447642615027" stroke="#0d6d4d" stroke-width="0.1" fill="none" />
<path d="M235.76758586186926,-66.62316006364537 L215.0313524439776,117.41600174641394" stroke="#0d6d4d" stroke-width="0.1" fill="none" />
<path d="M236.43486425593926,-64.21491232008005 L185.1586457167933,160.44087981659482" stroke="#0d6d4d" stroke-width="0.1" fill="none" />
<path d="M237.0775442950444,-61.79998374620548 L146.82302829528004,196.13260402646827" stroke="#0d6d4d" stroke-width="0.1" fill="none" />
<path d="M237.6955591156458,-59.378625587837035 L101.77667818546213,222.859838861857" stroke="#0d6d4d" stroke-width="0.1" fill="none" />
<path d="M238.28884442033967,-56.951089759715316 L52.07849594047928,239.40098216293407" stroke="#0d6d4d" stroke-width="0.1" fill="none" />
<path d="M238.85733848454677,-54.51762881929704 L3.0003846579110155e-14,245.0" stroke="#0d6d4d" stroke-width="0.1" fill="none" />
<path d="M239.40098216293407,-52.078495940479264 L-52.07849594047923,239.40098216293407" stroke="#0d6d4d" stroke-width="0.1" fill="none" />
<path d="M239.91971889556817,-49.633944887259844 L-101.77667818546209,222.85983886185704" stroke="#0d6d4d" stroke-width="0.1" fill="none" />
<path d="M240.4134947137997,-47.184229987335804 L-146.82302829527998,196.1326040264683" stroke="#0d6d4d" stroke-width="0.1" fill="none" />
<path d="M240.88225824587823,-44.72960610564361 L-185.15864571679316,160.44087981659496" stroke="#0d6d4d" stroke-width="0.1" fill="none" />
<path d="M241.32596072229677,-42.27032861784351 L-215.03135244397757,117.416001746414" stroke="#0d6d4d" stroke-width="0.1" fill="none" />
<path d="M241.74455598086578,-39.80665338375042 L-235.07577853555185,69.02447642615027" stroke="#0d6d4d" stroke-width="0.1" fill="none" />
<path d="M242.13800047151585,-37.33883672071461 L-244.3757680795121,17.478099883811847" stroke="#0d6d4d" stroke-width="0.1" fill="none" />
<path d="M242.50625326082852,-34.867135376954906 L-242.50625326082854,-34.86713537695479" stroke="#0d6d4d" stroke-width="0.1" fill="none" />
<path d="M242.8492760362949,-32.39180650484686 L-229.5526826249416,-85.6187240017791" stroke="#0d6d4d" stroke-width="0.1" fill="none" />
<path d="M243.16703311030182,-29.913107634169158 L-206.10711554363945,-132.4570002766213" stroke="#0d6d4d" stroke-width="0.1" fill="none" />
<path d="M243.45949142384444,-27.43129664531044 L-173.24116139070418,-173.24116139070412" stroke="#0d6d4d" stroke-width="0.1" fill="none" />
<path d="M243.726620549966,-24.946631742439706 L-132.45700027662156,-206.10711554363928" stroke="#0d6d4d" stroke-width="0.1" fill="none" />
<path d="M243.9683926969231,-22.45937142664321 L-85.6187240017792,-229.55268262494158" stroke="#0d6d4d" stroke-width="0.1" fill="none" />
<path d="M244.18478271107733,-19.969774469030508 L-34.8671353769549,-242.50625326082852" stroke="#0d6d4d" stroke-width="0.1" fill="none" />
<path d="M244.3757680795121,-17.478099883811925 L17.47809988381192,-244.3757680795121" stroke="#0d6d4d" stroke-width="0.1" fill="none" />
<path d="M244.54132893237488,-14.984606901351492 L69.02447642615027,-235.07577853555185" stroke="#0d6d4d" stroke-width="0.1" fill="none" />
<path d="M244.6814480449444,-12.489554941196538 L117.41600174641391,-215.03135244397762" stroke="#0d6d4d" stroke-width="0.1" fill="none" />
<path d="M244.7961108394228,-9.99320358508849 L160.44087981659482,-185.1586457167933" stroke="#0d6d4d" stroke-width="0.1" fill="none" />
<path d="M244.88530538645213,-7.4958125499559625 L196.1326040264683,-146.82302829528" stroke="#0d6d4d" stroke-width="0.1" fill="none" />
<path d="M244.9490224063556,-4.997641660894332 L222.85983886185699,-101.77667818546217" stroke="#0d6d4d" stroke-width="0.1" fill="none" />
<path d="M244.9872552701029,-2.498950824134002 L239.40098216293407,-52.078495940479264" stroke="#0d6d4d" stroke-width="0.1" fill="none" />
<path d="M245.0,-1.5001923289555078e-14 L245.0,-1.5001923289555078e-14" stroke="#0d6d4d" stroke-width="0.1" fill="none" />
<path d="M244.9872552701029,2.4989508241339724 L239.40098216293407,52.07849594047924" stroke="#0d6d4d" stroke-width="0.1" fill="none" />
<path d="M244.9490224063556,4.997641660894302 L222.859838861857,101.7766781854621" stroke="#0d6d4d" stroke-width="0.1" fill="none" />
<path d="M244.88530538645213,7.495812549955878 L196.1326040264683,146.82302829527998" stroke="#0d6d4d" stroke-width="0.1" fill="none" />
<path d="M244.7961108394228,9.99320358508846 L160.44087981659487,185.15864571679325" stroke="#0d6d4d" stroke-width="0.1" fill="none" />
<path d="M244.6814480449444,12.489554941196507 L117.41600174641398,215.03135244397757" stroke="#0d6d4d" stroke-width="0.1" fill="none" />
<path d="M244.5413289323749,14.984606901351462 L69.02447642615036,235.07577853555182" stroke="#0d6d4d" stroke-width="0.1" fill="none" />
<path d="M244.3757680795121,17.4780998838119 L17.478099883811943,244.3757680795121" stroke="#0d6d4d" stroke-width="0.1" fill="none" />
<path d="M244.18478271107733,19.969774469030426 L-34.86713537695481,242.50625326082854" stroke="#0d6d4d" stroke-width="0.1" fill="none" />
<path d="M243.9683926969231,22.45937142664318 L-85.61872400177911,229.5526826249416" stroke="#0d6d4d" stroke-width="0.1" fill="none" />
<path d="M243.726620549966,24.946631742439624 L-132.45700027662141,206.1071155436394" stroke="#0d6d4d" stroke-width="0.1" fill="none" />
<path d="M243.45949142384444,27.431296645310358 L-173.24116139070418,173.2411613907041" stroke="#0d6d4d" stroke-width="0.1" fill="none" />
<path d="M243.1670331103018,29.91310763416918 L-206.1071155436394,132.4570002766214" stroke="#0d6d4d" stroke-width="0.1" fill="none" />
<path d="M242.8492760362949,32.39180650484683 L-229.55268262494167,85.61872400177897" stroke="#0d6d4d" stroke-width="0.1" fill="none" />
<path d="M242.50625326082852,34.86713537695488 L-242.50625326082852,34.867135376954884" stroke="#0d6d4d" stroke-width="0.1" fill="none" />
<path d="M242.13800047151585,37.33883672071459 L-244.37576807951214,-17.47809988381176" stroke="#0d6d4d" stroke-width="0.1" fill="none" />
<path d="M241.7445559808658,39.806653383750394 L-235.07577853555188,-69.0244764261502" stroke="#0d6d4d" stroke-width="0.1" fill="none" />
<path d="M241.32596072229677,42.270328617843525 L-215.03135244397774,-117.41600174641374" stroke="#0d6d4d" stroke-width="0.1" fill="none" />
<path d="M240.88225824587823,44.72960610564358 L-185.15864571679325,-160.44087981659487" stroke="#0d6d4d" stroke-width="0.1" fill="none" />
<path d="M240.4134947137997,47.18422998733572 L-146.82302829528007,-196.13260402646824" stroke="#0d6d4d" stroke-width="0.1" fill="none" />
<path d="M239.91971889556817,49.633944887259815 L-101.77667818546216,-222.859838861857" stroke="#0d6d4d" stroke-width="0.1" fill="none" />
<path d="M239.40098216293407,52.07849594047924 L-52.07849594047942,-239.40098216293404" stroke="#0d6d4d" stroke-width="0.1" fill="none" />
<path d="M238.85733848454677,54.51762881929696 L0.0,-245.0" stroke="#0d6d4d" stroke-width="0.1" fill="none" />
<path d="M238.28884442033967,56.95108975971534 L52.078495940479286,-239.40098216293407" stroke="#0d6d4d" stroke-width="0.1" fill="none" />
<path d="M237.6955591156458,59.378625587837014 L101.77667818546217,-222.85983886185699" stroke="#0d6d4d" stroke-width="0.1" fill="none" />
<path d="M237.07754429504442,61.79998374620545 L146.82302829528,-196.1326040264683" stroke="#0d6d4d" stroke-width="0.1" fill="none" />
<path d="M236.4348642559393,64.21491232008002 L185.15864571679327,-160.44087981659484" stroke="#0d6d4d" stroke-width="0.1" fill="none" />
<path d="M235.76758586186926,66.62316006364534 L215.03135244397762,-117.41600174641393" stroke="#0d6d4d" stroke-width="0.1" fill="none" />
<path d="M235.07577853555185,69.02447642615027 L235.07577853555188,-69.02447642615024" stroke="#0d6d4d" stroke-width="0.1" fill="none" />
<path d="M234.3595142516607,71.41861157797483 L244.3757680795121,-17.478099883811925" stroke="#0d6d4d" stroke-width="0.1" fill="none" />
<path d="M233.61886752933728,73.80531643662233 L242.50625326082852,34.86713537695488" stroke="#0d6d4d" stroke-width="0.1" fill="none" />
<path d="M232.8539154244381,76.18434269263355 L229.55268262494164,85.61872400177909" stroke="#0d6d4d" stroke-width="0.1" fill="none" />
<path d="M232.06473752151797,78.55544283542015 L206.1071155436394,132.45700027662141" stroke="#0d6d4d" stroke-width="0.1" fill="none" />
<path d="M231.25141592555002,80.91837017901597 L173.24116139070415,173.24116139070412" stroke="#0d6d4d" stroke-width="0.1" fill="none" />
<path d="M230.41403525338382,83.2728788877411 L132.45700027662136,206.10711554363942" stroke="#0d6d4d" stroke-width="0.1" fill="none" />
<path d="M229.55268262494164,85.61872400177909 L85.61872400177907,229.55268262494164" stroke="#0d6d4d" stroke-width="0.1" fill="none" />
<path d="M228.66744765415484,87.9556614626617 L34.86713537695487,242.50625326082852" stroke="#0d6d4d" stroke-width="0.1" fill="none" />
<path d="M227.75842243964064,90.28344813866049 L-17.478099883811883,244.3757680795121" stroke="#0d6d4d" stroke-width="0.1" fill="none" />
<path d="M226.82570155512002,92.60184185008208 L-69.02447642615031,235.07577853555185" stroke="#0d6d4d" stroke-width="0.1" fill="none" />
<path d="M225.86938203957868,94.91060139446411 L-117.41600174641383,215.03135244397768" stroke="#0d6d4d" stroke-width="0.1" fill="none" />
<path d="M224.88956338717105,97.20948657166939 L-160.44087981659482,185.1586457167933" stroke="#0d6d4d" stroke-width="0.1" fill="none" />
<path d="M223.88634753686918,99.49825820887638 L-196.13260402646824,146.82302829528007" stroke="#0d6d4d" stroke-width="0.1" fill="none" />
<path d="M222.859838861857,101.7766781854621 L-222.859838861857,101.77667818546215" stroke="#0d6d4d" stroke-width="0.1" fill="none" />
<path d="M221.81014415867176,104.04450945777606 L-239.40098216293404,52.07849594047941" stroke="#0d6d4d" stroke-width="0.1" fill="none" />
<path d="M220.7373726360927,106.30151608380173 L-245.0,4.500576986866523e-14" stroke="#0d6d4d" stroke-width="0.1" fill="none" />
<path d="M219.6416359037794,108.54746324770379 L-239.40098216293407,-52.078495940479314" stroke="#0d6d4d" stroke-width="0.1" fill="none" />
<path d="M218.52304796065997,110.78211728425804 L-222.85983886185696,-101.77667818546227" stroke="#0d6d4d" stroke-width="0.1" fill="none" />
<path d="M217.3817251830708,113.00524570316145 L-196.13260402646833,-146.82302829527998" stroke="#0d6d4d" stroke-width="0.1" fill="none" />
<path d="M216.2177863126487,115.21661721322052 L-160.4408798165948,-185.1586457167933" stroke="#0d6d4d" stroke-width="0.1" fill="none" />
<path d="M215.0313524439776,117.41600174641394 L-117.41600174641401,-215.03135244397757" stroke="#0d6d4d" stroke-width="0.1" fill="none" />
<path d="M213.8225470119898,119.60317048182885 L-69.02447642615029,-235.07577853555185" stroke="#0d6d4d" stroke-width="0.1" fill="none" />
<path d="M212.5914957791237,121.77789586946732 L-17.47809988381208,-244.3757680795121" stroke="#0d6d4d" stroke-width="0.1" fill="none" />
<path d="M211.3383268222403,123.9399516539197 L34.86713537695486,-242.50625326082852" stroke="#0d6d4d" stroke-width="0.1" fill="none" />
<path d="M210.0631705192977,126.08911289790434 L85.61872400177909,-229.55268262494164" stroke="#0d6d4d" stroke-width="0.1" fill="none" />
<path d="M208.7661595357868,128.22515600567 L132.45700027662141,-206.1071155436394" stroke="#0d6d4d" stroke-width="0.1" fill="none" />
<path d="M207.44742881092964,130.34785874625743 L173.24116139070412,-173.24116139070415" stroke="#0d6d4d" stroke-width="0.1" fill="none" />
<path d="M206.1071155436394,132.45700027662141 L206.10711554363937,-132.45700027662144" stroke="#0d6d4d" stroke-width="0.1" fill="none" />
<path d="M204.7453591782473,134.55236116460574 L229.5526826249416,-85.6187240017791" stroke="#0d6d4d" stroke-width="0.1" fill="none" />
<path d="M203.36230138999477,136.63372341177316 L242.50625326082852,-34.867135376954906" stroke="#0d6d4d" stroke-width="0.1" fill="none" />
<path d="M201.95808607029346,138.70087047608584 L244.3757680795121,17.4780998838119" stroke="#0d6d4d" stroke-width="0.1" fill="none" />
<path d="M200.5328593117554,140.75358729443352 L235.07577853555185,69.02447642615027" stroke="#0d6d4d" stroke-width="0.1" fill="none" />
<path d="M199.08676939299355,142.79166030500875 L215.0313524439776,117.41600174641394" stroke="#0d6d4d" stroke-width="0.1" fill="none" />
<path d="M197.6199667631949,144.8148774695257 L185.1586457167933,160.44087981659482" stroke="#0d6d4d" stroke-width="0.1" fill="none" />
<path d="M196.1326040264683,146.82302829527998 L146.82302829528004,196.13260402646827" stroke="#0d6d4d" stroke-width="0.1" fill="none" />
<path d="M194.62483592596766,148.81590385704806 L101.77667818546213,222.859838861857" stroke="#0d6d4d" stroke-width="0.1" fill="none" />
<path d="M193.09681932779222,150.79329681882405 L52.07849594047928,239.40098216293407" stroke="#0d6d4d" stroke-width="0.1" fill="none" />
<path d="M191.54871320466734,152.75500145538967 L3.0003846579110155e-14,245.0" stroke="#0d6d4d" stroke-width="0.1" fill="none" />
<path d="M189.98067861940416,154.7008136737188 L-52.07849594047923,239.40098216293407" stroke="#0d6d4d" stroke-width="0.1" fill="none" />
<path d="M188.3928787081437,156.63053103421012 L-101.77667818546209,222.85983886185704" stroke="#0d6d4d" stroke-width="0.1" fill="none" />
<path d="M186.78547866338388,158.54395277174893 L-146.82302829527998,196.1326040264683" stroke="#0d6d4d" stroke-width="0.1" fill="none" />
<path d="M185.1586457167933,160.44087981659482 L-185.15864571679316,160.44087981659496" stroke="#0d6d4d" stroke-width="0.1" fill="none" />
<path d="M183.5125491218127,162.321114815092 L-215.03135244397757,117.416001746414" stroke="#0d6d4d" stroke-width="0.1" fill="none" />
<path d="M181.84736013604618,164.18446215020202 L-235.07577853555185,69.02447642615027" stroke="#0d6d4d" stroke-width="0.1" fill="none" />
<path d="M180.1632520034434,166.03072796185577 L-244.3757680795121,17.478099883811847" stroke="#0d6d4d" stroke-width="0.1" fill="none" />
<path d="M178.46039993627593,167.85972016712182 L-242.50625326082854,-34.86713537695479" stroke="#0d6d4d" stroke-width="0.1" fill="none" />
<path d="M176.73898109690845,169.67124848019077 L-229.5526826249416,-85.6187240017791" stroke="#0d6d4d" stroke-width="0.1" fill="none" />
<path d="M174.99917457936635,171.46512443217267 L-206.10711554363945,-132.4570002766213" stroke="#0d6d4d" stroke-width="0.1" fill="none" />
<path d="M173.24116139070415,173.24116139070412 L-173.24116139070418,-173.24116139070412" stroke="#0d6d4d" stroke-width="0.1" fill="none" />
<path d="M171.46512443217264,174.99917457936638 L-132.45700027662156,-206.10711554363928" stroke="#0d6d4d" stroke-width="0.1" fill="none" />
<path d="M169.67124848019083,176.73898109690842 L-85.6187240017792,-229.55268262494158" stroke="#0d6d4d" stroke-width="0.1" fill="none" />
<path d="M167.85972016712185,178.4603999362759 L-34.8671353769549,-242.50625326082852" stroke="#0d6d4d" stroke-width="0.1" fill="none" />
<path d="M166.0307279618558,180.16325200344335 L17.47809988381192,-244.3757680795121" stroke="#0d6d4d" stroke-width="0.1" fill="none" />
<path d="M164.18446215020208,181.84736013604615 L69.02447642615027,-235.07577853555185" stroke="#0d6d4d" stroke-width="0.1" fill="none" />
<path d="M162.32111481509205,183.5125491218127 L117.41600174641391,-215.03135244397762" stroke="#0d6d4d" stroke-width="0.1" fill="none" />
<path d="M160.44087981659487,185.15864571679325 L160.44087981659482,-185.1586457167933" stroke="#0d6d4d" stroke-width="0.1" fill="none" />
<path d="M158.54395277174908,186.7854786633838 L196.1326040264683,-146.82302829528" stroke="#0d6d4d" stroke-width="0.1" fill="none" />
<path d="M156.63053103421018,188.39287870814366 L222.85983886185699,-101.77667818546217" stroke="#0d6d4d" stroke-width="0.1" fill="none" />
<path d="M154.70081367371878,189.98067861940422 L239.40098216293407,-52.078495940479264" stroke="#0d6d4d" stroke-width="0.1" fill="none" />
<path d="M152.75500145538973,191.54871320466728 L245.0,-1.5001923289555078e-14" stroke="#0d6d4d" stroke-width="0.1" fill="none" />
<path d="M150.79329681882402,193.09681932779222 L239.40098216293407,52.07849594047924" stroke="#0d6d4d" stroke-width="0.1" fill="none" />
<path d="M148.8159038570481,194.6248359259676 L222.859838861857,101.7766781854621" stroke="#0d6d4d" stroke-width="0.1" fill="none" />
<path d="M146.82302829528004,196.13260402646827 L196.1326040264683,146.82302829527998" stroke="#0d6d4d" stroke-width="0.1" fill="none" />
<path d="M144.81487746952575,197.61996676319487 L160.44087981659487,185.15864571679325" stroke="#0d6d4d" stroke-width="0.1" fill="none" />
<path d="M142.79166030500878,199.08676939299352 L117.41600174641398,215.03135244397757" stroke="#0d6d4d" stroke-width="0.1" fill="none" />
<path d="M140.75358729443357,200.53285931175537 L69.02447642615036,235.07577853555182" stroke="#0d6d4d" stroke-width="0.1" fill="none" />
<path d="M138.70087047608587,201.95808607029343 L17.478099883811943,244.3757680795121" stroke="#0d6d4d" stroke-width="0.1" fill="none" />
<path d="M136.6337234117733,203.36230138999468 L-34.86713537695481,242.50625326082854" stroke="#0d6d4d" stroke-width="0.1" fill="none" />
<path d="M134.55236116460568,204.74535917824733 L-85.61872400177911,229.5526826249416" stroke="#0d6d4d" stroke-width="0.1" fill="none" />
<path d="M132.45700027662136,206.10711554363942 L-132.45700027662141,206.1071155436394" stroke="#0d6d4d" stroke-width="0.1" fill="none" />
<path d="M130.3478587462575,207.4474288109296 L-173.24116139070418,173.2411613907041" stroke="#0d6d4d" stroke-width="0.1" fill="none" />
<path d="M128.22515600566993,208.76615953578684 L-206.1071155436394,132.4570002766214" stroke="#0d6d4d" stroke-width="0.1" fill="none" />
<path d="M126.0891128979044,210.06317051929767 L-229.55268262494167,85.61872400177897" stroke="#0d6d4d" stroke-width="0.1" fill="none" />
<path d="M123.93995165391976,211.33832682224025 L-242.50625326082852,34.867135376954884" stroke="#0d6d4d" stroke-width="0.1" fill="none" />
<path d="M121.77789586946736,212.59149577912368 L-244.37576807951214,-17.47809988381176" stroke="#0d6d4d" stroke-width="0.1" fill="none" />
<path d="M119.603170481829,213.82254701198968 L-235.07577853555188,-69.0244764261502" stroke="#0d6d4d" stroke-width="0.1" fill="none" />
<path d="M117.41600174641398,215.03135244397757 L-215.03135244397774,-117.41600174641374" stroke="#0d6d4d" stroke-width="0.1" fill="none" />
<path d="M115.21661721322054,216.21778631264868 L-185.15864571679325,-160.44087981659487" stroke="#0d6d4d" stroke-width="0.1" fill="none" />
<path d="M113.00524570316156,217.38172518307073 L-146.82302829528007,-196.13260402646824" stroke="#0d6d4d" stroke-width="0.1" fill="none" />
<path d="M110.78211728425798,218.52304796066 L-101.77667818546216,-222.859838861857" stroke="#0d6d4d" stroke-width="0.1" fill="none" />
<path d="M108.54746324770372,219.64163590377942 L-52.07849594047942,-239.40098216293404" stroke="#0d6d4d" stroke-width="0.1" fill="none" />
<path d="M106.30151608380177,220.73737263609266 L0.0,-245.0" stroke="#0d6d4d" stroke-width="0.1" fill="none" />
<path d="M104.0445094577761,221.81014415867176 L52.078495940479286,-239.40098216293407" stroke="#0d6d4d" stroke-width="0.1" fill="none" />
<path d="M101.77667818546213,222.859838861857 L101.77667818546217,-222.85983886185699" stroke="#0d6d4d" stroke-width="0.1" fill="none" />
<path d="M99.49825820887646,223.88634753686912 L146.82302829528,-196.1326040264683" stroke="#0d6d4d" stroke-width="0.1" fill="none" />
<path d="M97.20948657166943,224.88956338717105 L185.15864571679327,-160.44087981659484" stroke="#0d6d4d" stroke-width="0.1" fill="none" />
<path d="M94.9106013944642,225.86938203957862 L215.03135244397762,-117.41600174641393" stroke="#0d6d4d" stroke-width="0.1" fill="none" />
<path d="M92.60184185008217,226.82570155512 L235.07577853555188,-69.02447642615024" stroke="#0d6d4d" stroke-width="0.1" fill="none" />
<path d="M90.28344813866052,227.75842243964064 L244.3757680795121,-17.478099883811925" stroke="#0d6d4d" stroke-width="0.1" fill="none" />
<path d="M87.95566146266168,228.66744765415484 L242.50625326082852,34.86713537695488" stroke="#0d6d4d" stroke-width="0.1" fill="none" />
<path d="M85.61872400177907,229.55268262494164 L229.55268262494164,85.61872400177909" stroke="#0d6d4d" stroke-width="0.1" fill="none" />
<path d="M83.27287888774106,230.41403525338384 L206.1071155436394,132.45700027662141" stroke="#0d6d4d" stroke-width="0.1" fill="none" />
<path d="M80.91837017901595,231.25141592555005 L173.24116139070415,173.24116139070412" stroke="#0d6d4d" stroke-width="0.1" fill="none" />
<path d="M78.5554428354202,232.06473752151797 L132.45700027662136,206.10711554363942" stroke="#0d6d4d" stroke-width="0.1" fill="none" />
<path d="M76.18434269263363,232.85391542443807 L85.61872400177907,229.55268262494164" stroke="#0d6d4d" stroke-width="0.1" fill="none" />
<path d="M73.80531643662243,233.61886752933725 L34.86713537695487,242.50625326082852" stroke="#0d6d4d" stroke-width="0.1" fill="none" />
<path d="M71.41861157797487,234.3595142516607 L-17.478099883811883,244.3757680795121" stroke="#0d6d4d" stroke-width="0.1" fill="none" />
<path d="M69.02447642615036,235.07577853555182 L-69.02447642615031,235.07577853555185" stroke="#0d6d4d" stroke-width="0.1" fill="none" />
<path d="M66.62316006364543,235.76758586186924 L-117.41600174641383,215.03135244397768" stroke="#0d6d4d" stroke-width="0.1" fill="none" />
<path d="M64.21491232008006,236.43486425593926 L-160.44087981659482,185.1586457167933" stroke="#0d6d4d" stroke-width="0.1" fill="none" />
<path d="M61.799983746205434,237.07754429504442 L-196.13260402646824,146.82302829528007" stroke="#0d6d4d" stroke-width="0.1" fill="none" />
<path d="M59.378625587837,237.6955591156458 L-222.859838861857,101.77667818546215" stroke="#0d6d4d" stroke-width="0.1" fill="none" />
<path d="M56.95108975971527,238.2888444203397 L-239.40098216293404,52.07849594047941" stroke="#0d6d4d" stroke-width="0.1" fill="none" />
<path d="M54.51762881929705,238.85733848454677 L-245.0,4.500576986866523e-14" stroke="#0d6d4d" stroke-width="0.1" fill="none" />
<path d="M52.07849594047928,239.40098216293407 L-239.40098216293407,-52.078495940479314" stroke="#0d6d4d" stroke-width="0.1" fill="none" />
<path d="M49.633944887259915,239.91971889556814 L-222.85983886185696,-101.77667818546227" stroke="#0d6d4d" stroke-width="0.1" fill="none" />
<path d="M47.18422998733581,240.4134947137997 L-196.13260402646833,-146.82302829527998" stroke="#0d6d4d" stroke-width="0.1" fill="none" />
<path d="M44.729606105643626,240.88225824587823 L-160.4408798165948,-185.1586457167933" stroke="#0d6d4d" stroke-width="0.1" fill="none" />
<path d="M42.270328617843624,241.32596072229674 L-117.41600174641401,-215.03135244397757" stroke="#0d6d4d" stroke-width="0.1" fill="none" />
<path d="M39.806653383750486,241.74455598086578 L-69.02447642615029,-235.07577853555185" stroke="#0d6d4d" stroke-width="0.1" fill="none" />
<path d="M37.338836720714625,242.13800047151585 L-17.47809988381208,-244.3757680795121" stroke="#0d6d4d" stroke-width="0.1" fill="none" />
<path d="M34.86713537695487,242.50625326082852 L34.86713537695486,-242.50625326082852" stroke="#0d6d4d" stroke-width="0.1" fill="none" />
<path d="M32.39180650484682,242.8492760362949 L85.61872400177909,-229.55268262494164" stroke="#0d6d4d" stroke-width="0.1" fill="none" />
<path d="M29.913107634169226,243.1670331103018 L132.45700027662141,-206.1071155436394" stroke="#0d6d4d" stroke-width="0.1" fill="none" />
<path d="M27.431296645310454,243.45949142384444 L173.24116139070412,-173.24116139070415" stroke="#0d6d4d" stroke-width="0.1" fill="none" />
<path d="M24.94663174243967,243.726620549966 L206.10711554363937,-132.45700027662144" stroke="#0d6d4d" stroke-width="0.1" fill="none" />
<path d="M22.45937142664328,243.9683926969231 L229.5526826249416,-85.6187240017791" stroke="#0d6d4d" stroke-width="0.1" fill="none" />
<path d="M19.969774469030526,244.18478271107733 L242.50625326082852,-34.867135376954906" stroke="#0d6d4d" stroke-width="0.1" fill="none" />
<path d="M17.478099883811943,244.3757680795121 L244.3757680795121,17.4780998838119" stroke="#0d6d4d" stroke-width="0.1" fill="none" />
<path d="M14.984606901351563,244.54132893237488 L235.07577853555185,69.02447642615027" stroke="#0d6d4d" stroke-width="0.1" fill="none" />
<path d="M12.489554941196607,244.6814480449444 L215.0313524439776,117.41600174641394" stroke="#0d6d4d" stroke-width="0.1" fill="none" />
<path d="M9.993203585088505,244.7961108394228 L185.1586457167933,160.44087981659482" stroke="#0d6d4d" stroke-width="0.1" fill="none" />
<path d="M7.4958125499559225,244.88530538645213 L146.82302829528004,196.13260402646827" stroke="#0d6d4d" stroke-width="0.1" fill="none" />
<path d="M4.997641660894292,244.9490224063556 L101.77667818546213,222.859838861857" stroke="#0d6d4d" stroke-width="0.1" fill="none" />
<path d="M2.498950824134072,244.9872552701029 L52.07849594047928,239.40098216293407" stroke="#0d6d4d" stroke-width="0.1" fill="none" />
<path d="M3.0003846579110155e-14,245.0 L3.0003846579110155e-14,245.0" stroke="#0d6d4d" stroke-width="0.1" fill="none" />
<path d="M-2.4989508241340115,244.9872552701029 L-52.07849594047923,239.40098216293407" stroke="#0d6d4d" stroke-width="0.1" fill="none" />
<path d="M-4.9976416608942325,244.9490224063556 L-101.77667818546209,222.85983886185704" stroke="#0d6d4d" stroke-width="0.1" fill="none" />
<path d="M-7.495812549955863,244.88530538645213 L-146.82302829527998,196.1326040264683" stroke="#0d6d4d" stroke-width="0.1" fill="none" />
<path d="M-9.993203585088445,244.7961108394228 L-185.15864571679316,160.44087981659496" stroke="#0d6d4d" stroke-width="0.1" fill="none" />
<path d="M-12.489554941196438,244.6814480449444 L-215.03135244397757,117.416001746414" stroke="#0d6d4d" stroke-width="0.1" fill="none" />
<path d="M-14.984606901351393,244.5413289323749 L-235.07577853555185,69.02447642615027" stroke="#0d6d4d" stroke-width="0.1" fill="none" />
<path d="M-17.478099883811883,244.3757680795121 L-244.3757680795121,17.478099883811847" stroke="#0d6d4d" stroke-width="0.1" fill="none" />
<path d="M-19.969774469030465,244.18478271107733 L-242.50625326082854,-34.86713537695479" stroke="#0d6d4d" stroke-width="0.1" fill="none" />
<path d="M-22.45937142664322,243.9683926969231 L-229.5526826249416,-85.6187240017791" stroke="#0d6d4d" stroke-width="0.1" fill="none" />
<path d="M-24.946631742439607,243.726620549966 L-206.10711554363945,-132.4570002766213" stroke="#0d6d4d" stroke-width="0.1" fill="none" />
<path d="M-27.431296645310393,243.45949142384444 L-173.24116139070418,-173.24116139070412" stroke="#0d6d4d" stroke-width="0.1" fill="none" />
<path d="M-29.91310763416916,243.1670331103018 L-132.45700027662156,-206.10711554363928" stroke="#0d6d4d" stroke-width="0.1" fill="none" />
<path d="M-32.39180650484676,242.84927603629492 L-85.6187240017792,-229.55268262494158" stroke="#0d6d4d" stroke-width="0.1" fill="none" />
<path d="M-34.86713537695481,242.50625326082854 L-34.8671353769549,-242.50625326082852" stroke="#0d6d4d" stroke-width="0.1" fill="none" />
<path d="M-37.338836720714575,242.13800047151585 L17.47809988381192,-244.3757680795121" stroke="#0d6d4d" stroke-width="0.1" fill="none" />
<path d="M-39.80665338375032,241.7445559808658 L69.02447642615027,-235.07577853555185" stroke="#0d6d4d" stroke-width="0.1" fill="none" />
<path d="M-42.27032861784347,241.32596072229677 L117.41600174641391,-215.03135244397762" stroke="#0d6d4d" stroke-width="0.1" fill="none" />
<path d="M-44.72960610564357,240.88225824587823 L160.44087981659482,-185.1586457167933" stroke="#0d6d4d" stroke-width="0.1" fill="none" />
<path d="M-47.18422998733576,240.4134947137997 L196.1326040264683,-146.82302829528" stroke="#0d6d4d" stroke-width="0.1" fill="none" />
<path d="M-49.63394488725975,239.9197188955682 L222.85983886185699,-101.77667818546217" stroke="#0d6d4d" stroke-width="0.1" fill="none" />
<path d="M-52.07849594047923,239.40098216293407 L239.40098216293407,-52.078495940479264" stroke="#0d6d4d" stroke-width="0.1" fill="none" />
<path d="M-54.517628819296895,238.8573384845468 L245.0,-1.5001923289555078e-14" stroke="#0d6d4d" stroke-width="0.1" fill="none" />
<path d="M-56.95108975971533,238.28884442033967 L239.40098216293407,52.07849594047924" stroke="#0d6d4d" stroke-width="0.1" fill="none" />
<path d="M-59.37862558783705,237.6955591156458 L222.859838861857,101.7766781854621" stroke="#0d6d4d" stroke-width="0.1" fill="none" />
<path d="M-61.799983746205385,237.07754429504442 L196.1326040264683,146.82302829527998" stroke="#0d6d4d" stroke-width="0.1" fill="none" />
<path d="M-64.21491232008,236.4348642559393 L160.44087981659487,185.15864571679325" stroke="#0d6d4d" stroke-width="0.1" fill="none" />
<path d="M-66.62316006364527,235.7675858618693 L117.41600174641398,215.03135244397757" stroke="#0d6d4d" stroke-width="0.1" fill="none" />
<path d="M-69.02447642615031,235.07577853555185 L69.02447642615036,235.07577853555182" stroke="#0d6d4d" stroke-width="0.1" fill="none" />
<path d="M-71.41861157797481,234.35951425166073 L17.478099883811943,244.3757680795121" stroke="#0d6d4d" stroke-width="0.1" fill="none" />
<path d="M-73.80531643662238,233.61886752933725 L-34.86713537695481,242.50625326082854" stroke="#0d6d4d" stroke-width="0.1" fill="none" />
<path d="M-76.18434269263348,232.85391542443813 L-85.61872400177911,229.5526826249416" stroke="#0d6d4d" stroke-width="0.1" fill="none" />
<path d="M-78.55544283542014,232.06473752151797 L-132.45700027662141,206.1071155436394" stroke="#0d6d4d" stroke-width="0.1" fill="none" />
<path d="M-80.91837017901581,231.2514159255501 L-173.24116139070418,173.2411613907041" stroke="#0d6d4d" stroke-width="0.1" fill="none" />
<path d="M-83.2728788877411,230.41403525338382 L-206.1071155436394,132.4570002766214" stroke="#0d6d4d" stroke-width="0.1" fill="none" />
<path d="M-85.61872400177911,229.5526826249416 L-229.55268262494167,85.61872400177897" stroke="#0d6d4d" stroke-width="0.1" fill="none" />
<path d="M-87.95566146266164,228.66744765415487 L-242.50625326082852,34.867135376954884" stroke="#0d6d4d" stroke-width="0.1" fill="none" />
<path d="M-90.28344813866048,227.75842243964067 L-244.37576807951214,-17.47809988381176" stroke="#0d6d4d" stroke-width="0.1" fill="none" />
<path d="M-92.60184185008202,226.82570155512008 L-235.07577853555188,-69.0244764261502" stroke="#0d6d4d" stroke-width="0.1" fill="none" />
<path d="M-94.91060139446414,225.86938203957865 L-215.03135244397774,-117.41600174641374" stroke="#0d6d4d" stroke-width="0.1" fill="none" />
<path d="M-97.20948657166937,224.88956338717105 L-185.15864571679325,-160.44087981659487" stroke="#0d6d4d" stroke-width="0.1" fill="none" />
<path d="M-99.49825820887642,223.88634753686915 L-146.82302829528007,-196.13260402646824" stroke="#0d6d4d" stroke-width="0.1" fill="none" />
<path d="M-101.77667818546209,222.85983886185704 L-101.77667818546216,-222.859838861857" stroke="#0d6d4d" stroke-width="0.1" fill="none" />
<path d="M-104.04450945777606,221.81014415867176 L-52.07849594047942,-239.40098216293404" stroke="#0d6d4d" stroke-width="0.1" fill="none" />
<path d="M-106.30151608380162,220.73737263609274 L0.0,-245.0" stroke="#0d6d4d" stroke-width="0.1" fill="none" />
<path d="M-108.54746324770377,219.6416359037794 L52.078495940479286,-239.40098216293407" stroke="#0d6d4d" stroke-width="0.1" fill="none" />
<path d="M-110.78211728425802,218.52304796065997 L101.77667818546217,-222.85983886185699" stroke="#0d6d4d" stroke-width="0.1" fill="none" />
<path d="M-113.00524570316144,217.3817251830708 L146.82302829528,-196.1326040264683" stroke="#0d6d4d" stroke-width="0.1" fill="none" />
<path d="M-115.2166172132205,216.2177863126487 L185.15864571679327,-160.44087981659484" stroke="#0d6d4d" stroke-width="0.1" fill="none" />
<path d="M-117.41600174641383,215.03135244397768 L215.03135244397762,-117.41600174641393" stroke="#0d6d4d" stroke-width="0.1" fill="none" />
<path d="M-119.60317048182895,213.82254701198974 L235.07577853555188,-69.02447642615024" stroke="#0d6d4d" stroke-width="0.1" fill="none" />
<path d="M-121.77789586946732,212.5914957791237 L244.3757680795121,-17.478099883811925" stroke="#0d6d4d" stroke-width="0.1" fill="none" />
<path d="M-123.9399516539197,211.3383268222403 L242.50625326082852,34.86713537695488" stroke="#0d6d4d" stroke-width="0.1" fill="none" />
<path d="M-126.08911289790434,210.0631705192977 L229.55268262494164,85.61872400177909" stroke="#0d6d4d" stroke-width="0.1" fill="none" />
<path d="M-128.22515600566987,208.76615953578687 L206.1071155436394,132.45700027662141" stroke="#0d6d4d" stroke-width="0.1" fill="none" />
<path d="M-130.34785874625751,207.44742881092958 L173.24116139070415,173.24116139070412" stroke="#0d6d4d" stroke-width="0.1" fill="none" />
<path d="M-132.45700027662141,206.1071155436394 L132.45700027662136,206.10711554363942" stroke="#0d6d4d" stroke-width="0.1" fill="none" />
<path d="M-134.55236116460574,204.7453591782473 L85.61872400177907,229.55268262494164" stroke="#0d6d4d" stroke-width="0.1" fill="none" />
<path d="M-136.63372341177316,203.36230138999477 L34.86713537695487,242.50625326082852" stroke="#0d6d4d" stroke-width="0.1" fill="none" />
<path d="M-138.70087047608584,201.95808607029346 L-17.478099883811883,244.3757680795121" stroke="#0d6d4d" stroke-width="0.1" fill="none" />
<path d="M-140.75358729443343,200.53285931175546 L-69.02447642615031,235.07577853555185" stroke="#0d6d4d" stroke-width="0.1" fill="none" />
<path d="M-142.7916603050088,199.0867693929935 L-117.41600174641383,215.03135244397768" stroke="#0d6d4d" stroke-width="0.1" fill="none" />
<path d="M-144.8148774695257,197.6199667631949 L-160.44087981659482,185.1586457167933" stroke="#0d6d4d" stroke-width="0.1" fill="none" />
<path d="M-146.82302829527998,196.1326040264683 L-196.13260402646824,146.82302829528007" stroke="#0d6d4d" stroke-width="0.1" fill="none" />
<path d="M-148.81590385704806,194.62483592596766 L-222.859838861857,101.77667818546215" stroke="#0d6d4d" stroke-width="0.1" fill="none" />
<path d="M-150.793296818824,193.09681932779225 L-239.40098216293404,52.07849594047941" stroke="#0d6d4d" stroke-width="0.1" fill="none" />
<path d="M-152.7550014553898,191.54871320466725 L-245.0,4.500576986866523e-14" stroke="#0d6d4d" stroke-width="0.1" fill="none" />
<path d="M-154.7008136737188,189.98067861940416 L-239.40098216293407,-52.078495940479314" stroke="#0d6d4d" stroke-width="0.1" fill="none" />
<path d="M-156.63053103421012,188.3928787081437 L-222.85983886185696,-101.77667818546227" stroke="#0d6d4d" stroke-width="0.1" fill="none" />
<path d="M-158.54395277174893,186.78547866338388 L-196.13260402646833,-146.82302829527998" stroke="#0d6d4d" stroke-width="0.1" fill="none" />
<path d="M-160.44087981659482,185.1586457167933 L-160.4408798165948,-185.1586457167933" stroke="#0d6d4d" stroke-width="0.1" fill="none" />
<path d="M-162.32111481509193,183.51254912181278 L-117.41600174641401,-215.03135244397757" stroke="#0d6d4d" stroke-width="0.1" fill="none" />
<path d="M-164.1844621502021,181.8473601360461 L-69.02447642615029,-235.07577853555185" stroke="#0d6d4d" stroke-width="0.1" fill="none" />
<path d="M-166.0307279618557,180.16325200344346 L-17.47809988381208,-244.3757680795121" stroke="#0d6d4d" stroke-width="0.1" fill="none" />
<path d="M-167.85972016712182,178.46039993627593 L34.86713537695486,-242.50625326082852" stroke="#0d6d4d" stroke-width="0.1" fill="none" />
<path d="M-169.67124848019077,176.73898109690845 L85.61872400177909,-229.55268262494164" stroke="#0d6d4d" stroke-width="0.1" fill="none" />
<path d="M-171.46512443217262,174.99917457936644 L132.45700027662141,-206.1071155436394" stroke="#0d6d4d" stroke-width="0.1" fill="none" />
<path d="M-173.24116139070418,173.2411613907041 L173.24116139070412,-173.24116139070415" stroke="#0d6d4d" stroke-width="0.1" fill="none" />
<path d="M-174.99917457936638,171.46512443217267 L206.10711554363937,-132.45700027662144" stroke="#0d6d4d" stroke-width="0.1" fill="none" />
<path d="M-176.7389810969084,169.67124848019085 L229.5526826249416,-85.6187240017791" stroke="#0d6d4d" stroke-width="0.1" fill="none" />
<path d="M-178.46039993627588,167.85972016712188 L242.50625326082852,-34.867135376954906" stroke="#0d6d4d" stroke-width="0.1" fill="none" />
<path d="M-180.16325200344332,166.03072796185583 L244.3757680795121,17.4780998838119" stroke="#0d6d4d" stroke-width="0.1" fill="none" />
<path d="M-181.84736013604606,164.18446215020217 L235.07577853555185,69.02447642615027" stroke="#0d6d4d" stroke-width="0.1" fill="none" />
<path d="M-183.51254912181273,162.321114815092 L215.0313524439776,117.41600174641394" stroke="#0d6d4d" stroke-width="0.1" fill="none" />
<path d="M-185.15864571679316,160.44087981659496 L185.1586457167933,160.44087981659482" stroke="#0d6d4d" stroke-width="0.1" fill="none" />
<path d="M-186.78547866338383,158.543952771749 L146.82302829528004,196.13260402646827" stroke="#0d6d4d" stroke-width="0.1" fill="none" />
<path d="M-188.39287870814363,156.63053103421018 L101.77667818546213,222.859838861857" stroke="#0d6d4d" stroke-width="0.1" fill="none" />
<path d="M-189.9806786194042,154.7008136737188 L52.07849594047928,239.40098216293407" stroke="#0d6d4d" stroke-width="0.1" fill="none" />
<path d="M-191.54871320466728,152.75500145538976 L3.0003846579110155e-14,245.0" stroke="#0d6d4d" stroke-width="0.1" fill="none" />
<path d="M-193.09681932779216,150.79329681882413 L-52.07849594047923,239.40098216293407" stroke="#0d6d4d" stroke-width="0.1" fill="none" />
<path d="M-194.6248359259676,148.8159038570481 L-101.77667818546209,222.85983886185704" stroke="#0d6d4d" stroke-width="0.1" fill="none" />
<path d="M-196.13260402646824,146.82302829528007 L-146.82302829527998,196.1326040264683" stroke="#0d6d4d" stroke-width="0.1" fill="none" />
<path d="M-197.6199667631949,144.8148774695257 L-185.15864571679316,160.44087981659496" stroke="#0d6d4d" stroke-width="0.1" fill="none" />
<path d="M-199.08676939299352,142.7916603050088 L-215.03135244397757,117.416001746414" stroke="#0d6d4d" stroke-width="0.1" fill="none" />
<path d="M-200.53285931175535,140.7535872944336 L-235.07577853555185,69.02447642615027" stroke="#0d6d4d" stroke-width="0.1" fill="none" />
<path d="M-201.95808607029335,138.700870476086 L-244.3757680795121,17.478099883811847" stroke="#0d6d4d" stroke-width="0.1" fill="none" />
<path d="M-203.3623013899947,136.63372341177322 L-242.50625326082854,-34.86713537695479" stroke="#0d6d4d" stroke-width="0.1" fill="none" />
<path d="M-204.74535917824724,134.5523611646058 L-229.5526826249416,-85.6187240017791" stroke="#0d6d4d" stroke-width="0.1" fill="none" />
<path d="M-206.1071155436394,132.4570002766214 L-206.10711554363945,-132.4570002766213" stroke="#0d6d4d" stroke-width="0.1" fill="none" />
<path d="M-207.44742881092958,130.34785874625751 L-173.24116139070418,-173.24116139070412" stroke="#0d6d4d" stroke-width="0.1" fill="none" />
<path d="M-208.76615953578678,128.22515600567004 L-132.45700027662156,-206.10711554363928" stroke="#0d6d4d" stroke-width="0.1" fill="none" />
<path d="M-210.06317051929764,126.0891128979044 L-85.6187240017792,-229.55268262494158" stroke="#0d6d4d" stroke-width="0.1" fill="none" />
<path d="M-211.33832682224025,123.93995165391979 L-34.8671353769549,-242.50625326082852" stroke="#0d6d4d" stroke-width="0.1" fill="none" />
<path d="M-212.59149577912373,121.77789586946729 L17.47809988381192,-244.3757680795121" stroke="#0d6d4d" stroke-width="0.1" fill="none" />
<path d="M-213.82254701198974,119.60317048182893 L69.02447642615027,-235.07577853555185" stroke="#0d6d4d" stroke-width="0.1" fill="none" />
<path d="M-215.03135244397757,117.416001746414 L117.41600174641391,-215.03135244397762" stroke="#0d6d4d" stroke-width="0.1" fill="none" />
<path d="M-216.21778631264863,115.21661721322066 L160.44087981659482,-185.1586457167933" stroke="#0d6d4d" stroke-width="0.1" fill="none" />
<path d="M-217.38172518307078,113.00524570316149 L196.1326040264683,-146.82302829528" stroke="#0d6d4d" stroke-width="0.1" fill="none" />
<path d="M-218.52304796066005,110.7821172842579 L222.85983886185699,-101.77667818546217" stroke="#0d6d4d" stroke-width="0.1" fill="none" />
<path d="M-219.64163590377942,108.54746324770373 L239.40098216293407,-52.078495940479264" stroke="#0d6d4d" stroke-width="0.1" fill="none" />
<path d="M-220.73737263609266,106.30151608380179 L245.0,-1.5001923289555078e-14" stroke="#0d6d4d" stroke-width="0.1" fill="none" />
<path d="M-221.8101441586717,104.0445094577762 L239.40098216293407,52.07849594047924" stroke="#0d6d4d" stroke-width="0.1" fill="none" />
<path d="M-222.859838861857,101.77667818546215 L222.859838861857,101.7766781854621" stroke="#0d6d4d" stroke-width="0.1" fill="none" />
<path d="M-223.88634753686912,99.49825820887646 L196.1326040264683,146.82302829527998" stroke="#0d6d4d" stroke-width="0.1" fill="none" />
<path d="M-224.88956338717108,97.20948657166934 L160.44087981659487,185.15864571679325" stroke="#0d6d4d" stroke-width="0.1" fill="none" />
<path d="M-225.86938203957868,94.91060139446411 L117.41600174641398,215.03135244397757" stroke="#0d6d4d" stroke-width="0.1" fill="none" />
<path d="M-226.82570155512,92.60184185008218 L69.02447642615036,235.07577853555182" stroke="#0d6d4d" stroke-width="0.1" fill="none" />
<path d="M-227.75842243964058,90.28344813866063 L17.478099883811943,244.3757680795121" stroke="#0d6d4d" stroke-width="0.1" fill="none" />
<path d="M-228.66744765415484,87.9556614626617 L-34.86713537695481,242.50625326082854" stroke="#0d6d4d" stroke-width="0.1" fill="none" />
<path d="M-229.55268262494167,85.61872400177897 L-85.61872400177911,229.5526826249416" stroke="#0d6d4d" stroke-width="0.1" fill="none" />
<path d="M-230.41403525338382,83.27287888774106 L-132.45700027662141,206.1071155436394" stroke="#0d6d4d" stroke-width="0.1" fill="none" />
<path d="M-231.25141592555002,80.91837017901597 L-173.24116139070418,173.2411613907041" stroke="#0d6d4d" stroke-width="0.1" fill="none" />
<path d="M-232.0647375215179,78.5554428354203 L-206.1071155436394,132.4570002766214" stroke="#0d6d4d" stroke-width="0.1" fill="none" />
<path d="M-232.8539154244381,76.18434269263355 L-229.55268262494167,85.61872400177897" stroke="#0d6d4d" stroke-width="0.1" fill="none" />
<path d="M-233.61886752933725,73.80531643662245 L-242.50625326082852,34.867135376954884" stroke="#0d6d4d" stroke-width="0.1" fill="none" />
<path d="M-234.35951425166073,71.41861157797477 L-244.37576807951214,-17.47809988381176" stroke="#0d6d4d" stroke-width="0.1" fill="none" />
<path d="M-235.07577853555185,69.02447642615027 L-235.07577853555188,-69.0244764261502" stroke="#0d6d4d" stroke-width="0.1" fill="none" />
<path d="M-235.76758586186924,66.62316006364544 L-215.03135244397774,-117.41600174641374" stroke="#0d6d4d" stroke-width="0.1" fill="none" />
<path d="M-236.43486425593923,64.21491232008019 L-185.15864571679325,-160.44087981659487" stroke="#0d6d4d" stroke-width="0.1" fill="none" />
<path d="M-237.07754429504442,61.79998374620545 L-146.82302829528007,-196.13260402646824" stroke="#0d6d4d" stroke-width="0.1" fill="none" />
<path d="M-237.69555911564584,59.37862558783691 L-101.77667818546216,-222.859838861857" stroke="#0d6d4d" stroke-width="0.1" fill="none" />
<path d="M-238.28884442033967,56.951089759715295 L-52.07849594047942,-239.40098216293404" stroke="#0d6d4d" stroke-width="0.1" fill="none" />
<path d="M-238.85733848454677,54.51762881929707 L0.0,-245.0" stroke="#0d6d4d" stroke-width="0.1" fill="none" />
<path d="M-239.40098216293404,52.07849594047941 L52.078495940479286,-239.40098216293407" stroke="#0d6d4d" stroke-width="0.1" fill="none" />
<path d="M-239.91971889556817,49.63394488725982 L101.77667818546217,-222.85983886185699" stroke="#0d6d4d" stroke-width="0.1" fill="none" />
<path d="M-240.41349471379968,47.18422998733583 L146.82302829528,-196.1326040264683" stroke="#0d6d4d" stroke-width="0.1" fill="none" />
<path d="M-240.88225824587823,44.72960610564354 L185.15864571679327,-160.44087981659484" stroke="#0d6d4d" stroke-width="0.1" fill="none" />
<path d="M-241.32596072229677,42.27032861784353 L215.03135244397762,-117.41600174641393" stroke="#0d6d4d" stroke-width="0.1" fill="none" />
<path d="M-241.74455598086578,39.80665338375051 L235.07577853555188,-69.02447642615024" stroke="#0d6d4d" stroke-width="0.1" fill="none" />
<path d="M-242.13800047151582,37.33883672071475 L244.3757680795121,-17.478099883811925" stroke="#0d6d4d" stroke-width="0.1" fill="none" />
<path d="M-242.50625326082852,34.867135376954884 L242.50625326082852,34.86713537695488" stroke="#0d6d4d" stroke-width="0.1" fill="none" />
<path d="M-242.84927603629492,32.391806504846734 L229.55268262494164,85.61872400177909" stroke="#0d6d4d" stroke-width="0.1" fill="none" />
<path d="M-243.16703311030182,29.913107634169133 L206.1071155436394,132.45700027662141" stroke="#0d6d4d" stroke-width="0.1" fill="none" />
<path d="M-243.45949142384444,27.431296645310468 L173.24116139070415,173.24116139070412" stroke="#0d6d4d" stroke-width="0.1" fill="none" />
<path d="M-243.72662054996596,24.94663174243979 L132.45700027662136,206.10711554363942" stroke="#0d6d4d" stroke-width="0.1" fill="none" />
<path d="M-243.9683926969231,22.459371426643184 L85.61872400177907,229.55268262494164" stroke="#0d6d4d" stroke-width="0.1" fill="none" />
<path d="M-244.18478271107733,19.96977446903054 L34.86713537695487,242.50625326082852" stroke="#0d6d4d" stroke-width="0.1" fill="none" />
<path d="M-244.3757680795121,17.478099883811847 L-17.478099883811883,244.3757680795121" stroke="#0d6d4d" stroke-width="0.1" fill="none" />
<path d="M-244.5413289323749,14.984606901351468 L-69.02447642615031,235.07577853555185" stroke="#0d6d4d" stroke-width="0.1" fill="none" />
<path d="M-244.6814480449444,12.489554941196621 L-117.41600174641383,215.03135244397768" stroke="#0d6d4d" stroke-width="0.1" fill="none" />
<path d="M-244.7961108394228,9.993203585088626 L-160.44087981659482,185.1586457167933" stroke="#0d6d4d" stroke-width="0.1" fill="none" />
<path d="M-244.88530538645213,7.4958125499559385 L-196.13260402646824,146.82302829528007" stroke="#0d6d4d" stroke-width="0.1" fill="none" />
<path d="M-244.9490224063556,4.997641660894199 L-222.859838861857,101.77667818546215" stroke="#0d6d4d" stroke-width="0.1" fill="none" />
<path d="M-244.9872552701029,2.4989508241339777 L-239.40098216293404,52.07849594047941" stroke="#0d6d4d" stroke-width="0.1" fill="none" />
<path d="M-245.0,4.500576986866523e-14 L-245.0,4.500576986866523e-14" stroke="#0d6d4d" stroke-width="0.1" fill="none" />
<path d="M-244.9872552701029,-2.4989508241338876 L-239.40098216293407,-52.078495940479314" stroke="#0d6d4d" stroke-width="0.1" fill="none" />
<path d="M-244.9490224063556,-4.997641660894326 L-222.85983886185696,-101.77667818546227" stroke="#0d6d4d" stroke-width="0.1" fill="none" />
<path d="M-244.88530538645213,-7.495812549955848 L-196.13260402646833,-146.82302829527998" stroke="#0d6d4d" stroke-width="0.1" fill="none" />
<path d="M-244.7961108394228,-9.99320358508854 L-160.4408798165948,-185.1586457167933" stroke="#0d6d4d" stroke-width="0.1" fill="none" />
<path d="M-244.6814480449444,-12.489554941196316 L-117.41600174641401,-215.03135244397757" stroke="#0d6d4d" stroke-width="0.1" fill="none" />
<path d="M-244.5413289323749,-14.984606901351379 L-69.02447642615029,-235.07577853555185" stroke="#0d6d4d" stroke-width="0.1" fill="none" />
<path d="M-244.37576807951214,-17.47809988381176 L-17.47809988381208,-244.3757680795121" stroke="#0d6d4d" stroke-width="0.1" fill="none" />
<path d="M-244.18478271107733,-19.96977446903045 L34.86713537695486,-242.50625326082852" stroke="#0d6d4d" stroke-width="0.1" fill="none" />
<path d="M-243.96839269692308,-22.459371426643315 L85.61872400177909,-229.55268262494164" stroke="#0d6d4d" stroke-width="0.1" fill="none" />
<path d="M-243.726620549966,-24.946631742439703 L132.45700027662141,-206.1071155436394" stroke="#0d6d4d" stroke-width="0.1" fill="none" />
<path d="M-243.45949142384444,-27.43129664531038 L173.24116139070412,-173.24116139070415" stroke="#0d6d4d" stroke-width="0.1" fill="none" />
<path d="M-243.16703311030182,-29.913107634169045 L206.10711554363937,-132.45700027662144" stroke="#0d6d4d" stroke-width="0.1" fill="none" />
<path d="M-242.8492760362949,-32.391806504846855 L229.5526826249416,-85.6187240017791" stroke="#0d6d4d" stroke-width="0.1" fill="none" />
<path d="M-242.50625326082854,-34.86713537695479 L242.50625326082852,-34.867135376954906" stroke="#0d6d4d" stroke-width="0.1" fill="none" />
<path d="M-242.13800047151585,-37.33883672071466 L244.3757680795121,17.4780998838119" stroke="#0d6d4d" stroke-width="0.1" fill="none" />
<path d="M-241.74455598086584,-39.806653383750195 L235.07577853555185,69.02447642615027" stroke="#0d6d4d" stroke-width="0.1" fill="none" />
<path d="M-241.32596072229677,-42.27032861784345 L215.0313524439776,117.41600174641394" stroke="#0d6d4d" stroke-width="0.1" fill="none" />
<path d="M-240.88225824587826,-44.72960610564344 L185.1586457167933,160.44087981659482" stroke="#0d6d4d" stroke-width="0.1" fill="none" />
<path d="M-240.4134947137997,-47.18422998733574 L146.82302829528004,196.13260402646827" stroke="#0d6d4d" stroke-width="0.1" fill="none" />
<path d="M-239.91971889556814,-49.63394488725994 L101.77667818546213,222.859838861857" stroke="#0d6d4d" stroke-width="0.1" fill="none" />
<path d="M-239.40098216293407,-52.078495940479314 L52.07849594047928,239.40098216293407" stroke="#0d6d4d" stroke-width="0.1" fill="none" />
<path d="M-238.85733848454677,-54.51762881929698 L3.0003846579110155e-14,245.0" stroke="#0d6d4d" stroke-width="0.1" fill="none" />
<path d="M-238.2888444203397,-56.951089759715195 L-52.07849594047923,239.40098216293407" stroke="#0d6d4d" stroke-width="0.1" fill="none" />
<path d="M-237.6955591156458,-59.378625587837035 L-101.77667818546209,222.85983886185704" stroke="#0d6d4d" stroke-width="0.1" fill="none" />
<path d="M-237.07754429504445,-61.79998374620537 L-146.82302829527998,196.1326040264683" stroke="#0d6d4d" stroke-width="0.1" fill="none" />
<path d="M-236.43486425593926,-64.2149123200801 L-185.15864571679316,160.44087981659496" stroke="#0d6d4d" stroke-width="0.1" fill="none" />
<path d="M-235.76758586186932,-66.62316006364516 L-215.03135244397757,117.416001746414" stroke="#0d6d4d" stroke-width="0.1" fill="none" />
<path d="M-235.07577853555188,-69.0244764261502 L-235.07577853555185,69.02447642615027" stroke="#0d6d4d" stroke-width="0.1" fill="none" />
<path d="M-234.3595142516607,-71.41861157797491 L-244.3757680795121,17.478099883811847" stroke="#0d6d4d" stroke-width="0.1" fill="none" />
<path d="M-233.61886752933728,-73.80531643662236 L-242.50625326082854,-34.86713537695479" stroke="#0d6d4d" stroke-width="0.1" fill="none" />
<path d="M-232.85391542443807,-76.18434269263368 L-229.5526826249416,-85.6187240017791" stroke="#0d6d4d" stroke-width="0.1" fill="none" />
<path d="M-232.06473752151794,-78.55544283542024 L-206.10711554363945,-132.4570002766213" stroke="#0d6d4d" stroke-width="0.1" fill="none" />
<path d="M-231.25141592555005,-80.9183701790159 L-173.24116139070418,-173.24116139070412" stroke="#0d6d4d" stroke-width="0.1" fill="none" />
<path d="M-230.41403525338384,-83.27287888774099 L-132.45700027662156,-206.10711554363928" stroke="#0d6d4d" stroke-width="0.1" fill="none" />
<path d="M-229.5526826249416,-85.6187240017791 L-85.6187240017792,-229.55268262494158" stroke="#0d6d4d" stroke-width="0.1" fill="none" />
<path d="M-228.66744765415487,-87.95566146266162 L-34.8671353769549,-242.50625326082852" stroke="#0d6d4d" stroke-width="0.1" fill="none" />
<path d="M-227.7584224396406,-90.28344813866056 L17.47809988381192,-244.3757680795121" stroke="#0d6d4d" stroke-width="0.1" fill="none" />
<path d="M-226.8257015551201,-92.6018418500819 L69.02447642615027,-235.07577853555185" stroke="#0d6d4d" stroke-width="0.1" fill="none" />
<path d="M-225.8693820395787,-94.91060139446402 L117.41600174641391,-215.03135244397762" stroke="#0d6d4d" stroke-width="0.1" fill="none" />
<path d="M-224.88956338717102,-97.20948657166947 L160.44087981659482,-185.1586457167933" stroke="#0d6d4d" stroke-width="0.1" fill="none" />
<path d="M-223.88634753686915,-99.49825820887641 L196.1326040264683,-146.82302829528" stroke="#0d6d4d" stroke-width="0.1" fill="none" />
<path d="M-222.85983886185696,-101.77667818546227 L222.85983886185699,-101.77667818546217" stroke="#0d6d4d" stroke-width="0.1" fill="none" />
<path d="M-221.81014415867182,-104.04450945777593 L239.40098216293407,-52.078495940479264" stroke="#0d6d4d" stroke-width="0.1" fill="none" />
<path d="M-220.73737263609272,-106.3015160838017 L245.0,-1.5001923289555078e-14" stroke="#0d6d4d" stroke-width="0.1" fill="none" />
<path d="M-219.64163590377945,-108.54746324770367 L239.40098216293407,52.07849594047924" stroke="#0d6d4d" stroke-width="0.1" fill="none" />
<path d="M-218.52304796065997,-110.782117284258 L222.859838861857,101.7766781854621" stroke="#0d6d4d" stroke-width="0.1" fill="none" />
<path d="M-217.3817251830708,-113.00524570316142 L196.1326040264683,146.82302829527998" stroke="#0d6d4d" stroke-width="0.1" fill="none" />
<path d="M-216.21778631264866,-115.21661721322059 L160.44087981659487,185.15864571679325" stroke="#0d6d4d" stroke-width="0.1" fill="none" />
<path d="M-215.03135244397774,-117.41600174641374 L117.41600174641398,215.03135244397757" stroke="#0d6d4d" stroke-width="0.1" fill="none" />
<path d="M-213.8225470119898,-119.60317048182883 L69.02447642615036,235.07577853555182" stroke="#0d6d4d" stroke-width="0.1" fill="none" />
<path d="M-212.59149577912368,-121.77789586946739 L17.478099883811943,244.3757680795121" stroke="#0d6d4d" stroke-width="0.1" fill="none" />
<path d="M-211.3383268222403,-123.93995165391968 L-34.86713537695481,242.50625326082854" stroke="#0d6d4d" stroke-width="0.1" fill="none" />
<path d="M-210.06317051929759,-126.08911289790451 L-85.61872400177911,229.5526826249416" stroke="#0d6d4d" stroke-width="0.1" fill="none" />
<path d="M-208.76615953578695,-128.22515600566976 L-132.45700027662141,206.1071155436394" stroke="#0d6d4d" stroke-width="0.1" fill="none" />
<path d="M-207.44742881092967,-130.3478587462574 L-173.24116139070418,173.2411613907041" stroke="#0d6d4d" stroke-width="0.1" fill="none" />
<path d="M-206.10711554363945,-132.4570002766213 L-206.1071155436394,132.4570002766214" stroke="#0d6d4d" stroke-width="0.1" fill="none" />
<path d="M-204.7453591782473,-134.5523611646057 L-229.55268262494167,85.61872400177897" stroke="#0d6d4d" stroke-width="0.1" fill="none" />
<path d="M-203.3623013899948,-136.63372341177316 L-242.50625326082852,34.867135376954884" stroke="#0d6d4d" stroke-width="0.1" fill="none" />
<path d="M-201.95808607029343,-138.7008704760859 L-244.37576807951214,-17.47809988381176" stroke="#0d6d4d" stroke-width="0.1" fill="none" />
<path d="M-200.53285931175554,-140.75358729443332 L-235.07577853555188,-69.0244764261502" stroke="#0d6d4d" stroke-width="0.1" fill="none" />
<path d="M-199.08676939299357,-142.79166030500872 L-215.03135244397774,-117.41600174641374" stroke="#0d6d4d" stroke-width="0.1" fill="none" />
<path d="M-197.61996676319487,-144.81487746952578 L-185.15864571679325,-160.44087981659487" stroke="#0d6d4d" stroke-width="0.1" fill="none" />
<path d="M-196.13260402646833,-146.82302829527998 L-146.82302829528007,-196.13260402646824" stroke="#0d6d4d" stroke-width="0.1" fill="none" />
<path d="M-194.62483592596752,-148.81590385704823 L-101.77667818546216,-222.859838861857" stroke="#0d6d4d" stroke-width="0.1" fill="none" />
<path d="M-193.09681932779236,-150.79329681882388 L-52.07849594047942,-239.40098216293404" stroke="#0d6d4d" stroke-width="0.1" fill="none" />
<path d="M-191.54871320466734,-152.75500145538967 L0.0,-245.0" stroke="#0d6d4d" stroke-width="0.1" fill="none" />
<path d="M-189.98067861940424,-154.70081367371873 L52.078495940479286,-239.40098216293407" stroke="#0d6d4d" stroke-width="0.1" fill="none" />
<path d="M-188.3928787081437,-156.6305310342101 L101.77667818546217,-222.85983886185699" stroke="#0d6d4d" stroke-width="0.1" fill="none" />
<path d="M-186.78547866338388,-158.5439527717489 L146.82302829528,-196.1326040264683" stroke="#0d6d4d" stroke-width="0.1" fill="none" />
<path d="M-185.15864571679325,-160.44087981659487 L185.15864571679327,-160.44087981659484" stroke="#0d6d4d" stroke-width="0.1" fill="none" />
<path d="M-183.51254912181284,-162.32111481509182 L215.03135244397762,-117.41600174641393" stroke="#0d6d4d" stroke-width="0.1" fill="none" />
<path d="M-181.84736013604618,-164.18446215020202 L235.07577853555188,-69.02447642615024" stroke="#0d6d4d" stroke-width="0.1" fill="none" />
<path d="M-180.16325200344332,-166.03072796185583 L244.3757680795121,-17.478099883811925" stroke="#0d6d4d" stroke-width="0.1" fill="none" />
<path d="M-178.46039993627593,-167.8597201671218 L242.50625326082852,34.86713537695488" stroke="#0d6d4d" stroke-width="0.1" fill="none" />
<path d="M-176.7389810969083,-169.6712484801909 L229.55268262494164,85.61872400177909" stroke="#0d6d4d" stroke-width="0.1" fill="none" />
<path d="M-174.99917457936655,-171.4651244321725 L206.1071155436394,132.45700027662141" stroke="#0d6d4d" stroke-width="0.1" fill="none" />
<path d="M-173.24116139070418,-173.24116139070412 L173.24116139070415,173.24116139070412" stroke="#0d6d4d" stroke-width="0.1" fill="none" />
<path d="M-171.4651244321727,-174.99917457936627 L132.45700027662136,206.10711554363942" stroke="#0d6d4d" stroke-width="0.1" fill="none" />
<path d="M-169.67124848019085,-176.7389810969084 L85.61872400177907,229.55268262494164" stroke="#0d6d4d" stroke-width="0.1" fill="none" />
<path d="M-167.85972016712188,-178.46039993627588 L34.86713537695487,242.50625326082852" stroke="#0d6d4d" stroke-width="0.1" fill="none" />
<path d="M-166.03072796185592,-180.16325200344323 L-17.478099883811883,244.3757680795121" stroke="#0d6d4d" stroke-width="0.1" fill="none" />
<path d="M-164.1844621502021,-181.84736013604615 L-69.02447642615031,235.07577853555185" stroke="#0d6d4d" stroke-width="0.1" fill="none" />
<path d="M-162.32111481509207,-183.51254912181264 L-117.41600174641383,215.03135244397768" stroke="#0d6d4d" stroke-width="0.1" fill="none" />
<path d="M-160.4408798165948,-185.1586457167933 L-160.44087981659482,185.1586457167933" stroke="#0d6d4d" stroke-width="0.1" fill="none" />
<path d="M-158.543952771749,-186.78547866338383 L-196.13260402646824,146.82302829528007" stroke="#0d6d4d" stroke-width="0.1" fill="none" />
<path d="M-156.63053103421,-188.39287870814374 L-222.859838861857,101.77667818546215" stroke="#0d6d4d" stroke-width="0.1" fill="none" />
<path d="M-154.70081367371895,-189.98067861940405 L-239.40098216293404,52.07849594047941" stroke="#0d6d4d" stroke-width="0.1" fill="none" />
<path d="M-152.75500145538976,-191.54871320466728 L-245.0,4.500576986866523e-14" stroke="#0d6d4d" stroke-width="0.1" fill="none" />
<path d="M-150.79329681882413,-193.09681932779216 L-239.40098216293407,-52.078495940479314" stroke="#0d6d4d" stroke-width="0.1" fill="none" />
<path d="M-148.8159038570481,-194.6248359259676 L-222.85983886185696,-101.77667818546227" stroke="#0d6d4d" stroke-width="0.1" fill="none" />
<path d="M-146.82302829528007,-196.13260402646824 L-196.13260402646833,-146.82302829527998" stroke="#0d6d4d" stroke-width="0.1" fill="none" />
<path d="M-144.81487746952587,-197.61996676319478 L-160.4408798165948,-185.1586457167933" stroke="#0d6d4d" stroke-width="0.1" fill="none" />
<path d="M-142.7916603050088,-199.08676939299352 L-117.41600174641401,-215.03135244397757" stroke="#0d6d4d" stroke-width="0.1" fill="none" />
<path d="M-140.7535872944336,-200.53285931175535 L-69.02447642615029,-235.07577853555185" stroke="#0d6d4d" stroke-width="0.1" fill="none" />
<path d="M-138.7008704760858,-201.9580860702935 L-17.47809988381208,-244.3757680795121" stroke="#0d6d4d" stroke-width="0.1" fill="none" />
<path d="M-136.63372341177322,-203.3623013899947 L34.86713537695486,-242.50625326082852" stroke="#0d6d4d" stroke-width="0.1" fill="none" />
<path d="M-134.55236116460563,-204.74535917824738 L85.61872400177909,-229.55268262494164" stroke="#0d6d4d" stroke-width="0.1" fill="none" />
<path d="M-132.45700027662156,-206.10711554363928 L132.45700027662141,-206.1071155436394" stroke="#0d6d4d" stroke-width="0.1" fill="none" />
<path d="M-130.34785874625751,-207.44742881092958 L173.24116139070412,-173.24116139070415" stroke="#0d6d4d" stroke-width="0.1" fill="none" />
<path d="M-128.22515600567004,-208.76615953578678 L206.10711554363937,-132.45700027662144" stroke="#0d6d4d" stroke-width="0.1" fill="none" />
<path d="M-126.0891128979044,-210.06317051929764 L229.5526826249416,-85.6187240017791" stroke="#0d6d4d" stroke-width="0.1" fill="none" />
<path d="M-123.93995165391979,-211.33832682224025 L242.50625326082852,-34.867135376954906" stroke="#0d6d4d" stroke-width="0.1" fill="none" />
<path d="M-121.77789586946749,-212.59149577912362 L244.3757680795121,17.4780998838119" stroke="#0d6d4d" stroke-width="0.1" fill="none" />
<path d="M-119.60317048182893,-213.82254701198974 L235.07577853555185,69.02447642615027" stroke="#0d6d4d" stroke-width="0.1" fill="none" />
<path d="M-117.41600174641401,-215.03135244397757 L215.0313524439776,117.41600174641394" stroke="#0d6d4d" stroke-width="0.1" fill="none" />
<path d="M-115.21661721322047,-216.21778631264874 L185.1586457167933,160.44087981659482" stroke="#0d6d4d" stroke-width="0.1" fill="none" />
<path d="M-113.0052457031615,-217.38172518307076 L146.82302829528004,196.13260402646827" stroke="#0d6d4d" stroke-width="0.1" fill="none" />
<path d="M-110.7821172842579,-218.52304796066002 L101.77667818546213,222.859838861857" stroke="#0d6d4d" stroke-width="0.1" fill="none" />
<path d="M-108.54746324770396,-219.6416359037793 L52.07849594047928,239.40098216293407" stroke="#0d6d4d" stroke-width="0.1" fill="none" />
<path d="M-106.30151608380179,-220.73737263609266 L3.0003846579110155e-14,245.0" stroke="#0d6d4d" stroke-width="0.1" fill="none" />
<path d="M-104.04450945777621,-221.81014415867168 L-52.07849594047923,239.40098216293407" stroke="#0d6d4d" stroke-width="0.1" fill="none" />
<path d="M-101.77667818546216,-222.859838861857 L-101.77667818546209,222.85983886185704" stroke="#0d6d4d" stroke-width="0.1" fill="none" />
<path d="M-99.49825820887648,-223.88634753686912 L-146.82302829527998,196.1326040264683" stroke="#0d6d4d" stroke-width="0.1" fill="none" />
<path d="M-97.20948657166954,-224.88956338717097 L-185.15864571679316,160.44087981659496" stroke="#0d6d4d" stroke-width="0.1" fill="none" />
<path d="M-94.91060139446411,-225.86938203957868 L-215.03135244397757,117.416001746414" stroke="#0d6d4d" stroke-width="0.1" fill="none" />
<path d="M-92.6018418500822,-226.82570155512 L-235.07577853555185,69.02447642615027" stroke="#0d6d4d" stroke-width="0.1" fill="none" />
<path d="M-90.28344813866045,-227.75842243964067 L-244.3757680795121,17.478099883811847" stroke="#0d6d4d" stroke-width="0.1" fill="none" />
<path d="M-87.95566146266171,-228.66744765415484 L-242.50625326082854,-34.86713537695479" stroke="#0d6d4d" stroke-width="0.1" fill="none" />
<path d="M-85.6187240017792,-229.55268262494158 L-229.5526826249416,-85.6187240017791" stroke="#0d6d4d" stroke-width="0.1" fill="none" />
<path d="M-83.27287888774127,-230.41403525338376 L-206.10711554363945,-132.4570002766213" stroke="#0d6d4d" stroke-width="0.1" fill="none" />
<path d="M-80.91837017901598,-231.25141592555002 L-173.24116139070418,-173.24116139070412" stroke="#0d6d4d" stroke-width="0.1" fill="none" />
<path d="M-78.55544283542031,-232.0647375215179 L-132.45700027662156,-206.10711554363928" stroke="#0d6d4d" stroke-width="0.1" fill="none" />
<path d="M-76.18434269263356,-232.8539154244381 L-85.6187240017792,-229.55268262494158" stroke="#0d6d4d" stroke-width="0.1" fill="none" />
<path d="M-73.80531643662246,-233.61886752933725 L-34.8671353769549,-242.50625326082852" stroke="#0d6d4d" stroke-width="0.1" fill="none" />
<path d="M-71.418611577975,-234.35951425166067 L17.47809988381192,-244.3757680795121" stroke="#0d6d4d" stroke-width="0.1" fill="none" />
<path d="M-69.02447642615029,-235.07577853555185 L69.02447642615027,-235.07577853555185" stroke="#0d6d4d" stroke-width="0.1" fill="none" />
<path d="M-66.62316006364546,-235.76758586186924 L117.41600174641391,-215.03135244397762" stroke="#0d6d4d" stroke-width="0.1" fill="none" />
<path d="M-64.21491232007999,-236.4348642559393 L160.44087981659482,-185.1586457167933" stroke="#0d6d4d" stroke-width="0.1" fill="none" />
<path d="M-61.79998374620546,-237.07754429504442 L196.1326040264683,-146.82302829528" stroke="#0d6d4d" stroke-width="0.1" fill="none" />
<path d="M-59.378625587837135,-237.69555911564578 L222.85983886185699,-101.77667818546217" stroke="#0d6d4d" stroke-width="0.1" fill="none" />
<path d="M-56.951089759715515,-238.28884442033961 L239.40098216293407,-52.078495940479264" stroke="#0d6d4d" stroke-width="0.1" fill="none" />
<path d="M-54.51762881929709,-238.85733848454677 L245.0,-1.5001923289555078e-14" stroke="#0d6d4d" stroke-width="0.1" fill="none" />
<path d="M-52.07849594047942,-239.40098216293404 L239.40098216293407,52.07849594047924" stroke="#0d6d4d" stroke-width="0.1" fill="none" />
<path d="M-49.63394488725984,-239.91971889556817 L222.859838861857,101.7766781854621" stroke="#0d6d4d" stroke-width="0.1" fill="none" />
<path d="M-47.18422998733585,-240.41349471379968 L196.1326040264683,146.82302829527998" stroke="#0d6d4d" stroke-width="0.1" fill="none" />
<path d="M-44.72960610564377,-240.8822582458782 L160.44087981659487,185.15864571679325" stroke="#0d6d4d" stroke-width="0.1" fill="none" />
<path d="M-42.270328617843546,-241.32596072229677 L117.41600174641398,215.03135244397757" stroke="#0d6d4d" stroke-width="0.1" fill="none" />
<path d="M-39.80665338375052,-241.74455598086578 L69.02447642615036,235.07577853555182" stroke="#0d6d4d" stroke-width="0.1" fill="none" />
<path d="M-37.33883672071455,-242.13800047151585 L17.478099883811943,244.3757680795121" stroke="#0d6d4d" stroke-width="0.1" fill="none" />
<path d="M-34.8671353769549,-242.50625326082852 L-34.86713537695481,242.50625326082854" stroke="#0d6d4d" stroke-width="0.1" fill="none" />
<path d="M-32.39180650484696,-242.8492760362949 L-85.61872400177911,229.5526826249416" stroke="#0d6d4d" stroke-width="0.1" fill="none" />
<path d="M-29.913107634169364,-243.1670331103018 L-132.45700027662141,206.1071155436394" stroke="#0d6d4d" stroke-width="0.1" fill="none" />
<path d="M-27.431296645310486,-243.45949142384444 L-173.24116139070418,173.2411613907041" stroke="#0d6d4d" stroke-width="0.1" fill="none" />
<path d="M-24.94663174243981,-243.72662054996596 L-206.1071155436394,132.4570002766214" stroke="#0d6d4d" stroke-width="0.1" fill="none" />
<path d="M-22.4593714266432,-243.9683926969231 L-229.55268262494167,85.61872400177897" stroke="#0d6d4d" stroke-width="0.1" fill="none" />
<path d="M-19.969774469030558,-244.18478271107733 L-242.50625326082852,34.867135376954884" stroke="#0d6d4d" stroke-width="0.1" fill="none" />
<path d="M-17.47809988381208,-244.3757680795121 L-244.37576807951214,-17.47809988381176" stroke="#0d6d4d" stroke-width="0.1" fill="none" />
<path d="M-14.984606901351484,-244.54132893237488 L-235.07577853555188,-69.0244764261502" stroke="#0d6d4d" stroke-width="0.1" fill="none" />
<path d="M-12.489554941196637,-244.6814480449444 L-215.03135244397774,-117.41600174641374" stroke="#0d6d4d" stroke-width="0.1" fill="none" />
<path d="M-9.993203585088425,-244.7961108394228 L-185.15864571679325,-160.44087981659487" stroke="#0d6d4d" stroke-width="0.1" fill="none" />
<path d="M-7.495812549955954,-244.88530538645213 L-146.82302829528007,-196.13260402646824" stroke="#0d6d4d" stroke-width="0.1" fill="none" />
<path d="M-4.997641660894431,-244.9490224063556 L-101.77667818546216,-222.859838861857" stroke="#0d6d4d" stroke-width="0.1" fill="none" />
<path d="M-2.4989508241342104,-244.9872552701029 L-52.07849594047942,-239.40098216293404" stroke="#0d6d4d" stroke-width="0.1" fill="none" />
</svg>