<?xml version="1.0" encoding="UTF-8"?>
<svg xmlns="http://www.w3.org/2000/svg" xmlns:xlink="http://www.w3.org/1999/xlink"
     width="500.0" height="500" viewBox="-250.0 -250.0 500 500">
<defs>
</defs>
<circle cx="0" cy="0" r="245.0" fill="white" stroke-width="2" stroke="black" />
<path d="M0.0,-245.0 L0.0,-245.0" stroke="#0d6d4d" stroke-width="0.1" fill="none" />
<path d="M2.4203700629590954,-244.9880442159542 L50.4647615915691,-239.7463406133785" stroke="#0d6d4d" stroke-width="0.1" fill="none" />
<path d="M4.840503902066896,-244.95217803068024 L98.7652401755532,-224.21067622453953" stroke="#0d6d4d" stroke-width="0.1" fill="none" />
<path d="M7.260165316527137,-244.89240494465463 L142.82997238304566,-199.05928511139192" stroke="#0d6d4d" stroke-width="0.1" fill="none" />
<path d="M9.679118151651368,-244.8087307916251 L180.76915336522316,-165.3708353719616" stroke="#0d6d4d" stroke-width="0.1" fill="none" />
<path d="M12.097126321907233,-244.70116373804154 L210.95568488300208,-124.59012406905906" stroke="#0d6d4d" stroke-width="0.1" fill="none" />
<path d="M14.51395383396,-244.56971428225876 L232.0949566942769,-78.4661141963952" stroke="#0d6d4d" stroke-width="0.1" fill="none" />
<path d="M16.9293648097051,-244.41439525351186 L243.28036852331164,-28.976926875734613" stroke="#0d6d4d" stroke-width="0.1" fill="none" />
<path d="M19.343123509289402,-244.23522181066426 L244.03221144072813,21.75499435411902" stroke="#0d6d4d" stroke-width="0.1" fill="none" />
<path d="M21.754994354119024,-244.03221144072813 L234.31824114774798,71.55390880605907" stroke="#0d6d4d" stroke-width="0.1" fill="none" />
<path d="M24.16474194985138,-243.80538395715772 L214.55506083793102,118.28408966903245" stroke="#0d6d4d" stroke-width="0.1" fill="none" />
<path d="M26.572131109369245,-243.55476149791548 L185.5902543295969,159.94141895667784" stroke="#0d6d4d" stroke-width="0.1" fill="none" />
<path d="M28.97692687573462,-243.28036852331164 L148.66603572555533,194.73933814627156" stroke="#0d6d4d" stroke-width="0.1" fill="none" />
<path d="M31.378894545120104,-242.98223181361683 L105.36597455774748,221.18546834160716" stroke="#0d6d4d" stroke-width="0.1" fill="none" />
<path d="M33.777799689715565,-242.66038046644832 L57.547081216340985,238.14561394970065" stroke="#0d6d4d" stroke-width="0.1" fill="none" />
<path d="M36.1734081806079,-242.3148458939302 L7.260165316527133,244.89240494465463" stroke="#0d6d4d" stroke-width="0.1" fill="none" />
<path d="M38.565486210631605,-241.94566181962756 L-43.33811740503037,241.1364915971612" stroke="#0d6d4d" stroke-width="0.1" fill="none" />
<path d="M40.95380031718792,-241.55286427525527 L-92.07775761798833,227.0389538207992" stroke="#0d6d4d" stroke-width="0.1" fill="none" />
<path d="M43.338117405030374,-241.1364915971612 L-136.86845762189483,203.20439293529947" stroke="#0d6d4d" stroke-width="0.1" fill="none" />
<path d="M45.7182047690145,-240.69658442258472 L-175.7892779758611,170.65500212043432" stroke="#0d6d4d" stroke-width="0.1" fill="none" />
<path d="M48.09383011680939,-240.23318568569056 L-207.17102085794733,130.7867276013738" stroke="#0d6d4d" stroke-width="0.1" fill="none" />
<path d="M50.4647615915691,-239.7463406133785 L-229.6678169778596,85.30940068142777" stroke="#0d6d4d" stroke-width="0.1" fill="none" />
<path d="M52.83076779456136,-239.23609672086934 L-242.3148458939302,36.17340818060778" stroke="#0d6d4d" stroke-width="0.1" fill="none" />
<path d="M55.19161780775178,-238.70250380706747 L-244.56971428225876,-14.51395383395989" stroke="#0d6d4d" stroke-width="0.1" fill="none" />
<path d="M57.547081216341,-238.14561394970065 L-236.33571756754785,-64.57885568692166" stroke="#0d6d4d" stroke-width="0.1" fill="none" />
<path d="M59.89692813125276,-237.5654815002372 L-217.96598729371314,-111.87416316145958" stroke="#0d6d4d" stroke-width="0.1" fill="none" />
<path d="M62.24092921157069,-236.96216307858148 L-190.24834636592036,-154.37152167751924" stroke="#0d6d4d" stroke-width="0.1" fill="none" />
<path d="M64.57885568692157,-236.33571756754787 L-154.37152167751935,-190.24834636592027" stroke="#0d6d4d" stroke-width="0.1" fill="none" />
<path d="M66.91047937980292,-235.6862061071139 L-111.87416316145966,-217.96598729371308" stroke="#0d6d4d" stroke-width="0.1" fill="none" />
<path d="M69.23557272785273,-235.01369208845304 L-64.57885568692156,-236.3357175675479" stroke="#0d6d4d" stroke-width="0.1" fill="none" />
<path d="M71.55390880605908,-234.31824114774798 L-14.513953833959993,-244.56971428225876" stroke="#0d6d4d" stroke-width="0.1" fill="none" />
<path d="M73.86526134890772,-233.59992115978454 L36.1734081806079,-242.3148458939302" stroke="#0d6d4d" stroke-width="0.1" fill="none" />
<path d="M76.16940477246519,-232.85880223132722 L85.30940068142769,-229.66781697785962" stroke="#0d6d4d" stroke-width="0.1" fill="none" />
<path d="M78.46611419639522,-232.0949566942769 L130.7867276013737,-207.17102085794738" stroke="#0d6d4d" stroke-width="0.1" fill="none" />
<path d="M80.75516546590694,-231.30845909861142 L170.65500212043426,-175.78927797586113" stroke="#0d6d4d" stroke-width="0.1" fill="none" />
<path d="M83.03633517363176,-230.49938620510963 L203.20439293529947,-136.86845762189486" stroke="#0d6d4d" stroke-width="0.1" fill="none" />
<path d="M85.30940068142769,-229.66781697785962 L227.03895382079918,-92.07775761798837" stroke="#0d6d4d" stroke-width="0.1" fill="none" />
<path d="M87.57414014210833,-228.81383257655202 L241.1364915971612,-43.33811740503041" stroke="#0d6d4d" stroke-width="0.1" fill="none" />
<path d="M89.8303325210948,-227.93751634855886 L244.89240494465463,7.260165316527088" stroke="#0d6d4d" stroke-width="0.1" fill="none" />
<path d="M92.07775761798834,-227.0389538207992 L238.14561394970065,57.547081216341" stroke="#0d6d4d" stroke-width="0.1" fill="none" />
<path d="M94.31619608806146,-226.11823269139163 L221.1854683416072,105.36597455774745" stroke="#0d6d4d" stroke-width="0.1" fill="none" />
<path d="M96.54542946366558,-225.17544282109534 L194.73933814627154,148.6660357255554" stroke="#0d6d4d" stroke-width="0.1" fill="none" />
<path d="M98.7652401755532,-224.21067622453953 L159.94141895667778,185.59025432959695" stroke="#0d6d4d" stroke-width="0.1" fill="none" />
<path d="M100.97541157411204,-223.2240270612433 L118.2840896690325,214.55506083793102" stroke="#0d6d4d" stroke-width="0.1" fill="none" />
<path d="M103.17572795050995,-222.21559162642563 L71.55390880605908,234.31824114774798" stroke="#0d6d4d" stroke-width="0.1" fill="none" />
<path d="M105.3659745577475,-221.18546834160716 L21.754994354119063,244.03221144072813" stroke="#0d6d4d" stroke-width="0.1" fill="none" />
<path d="M107.54593763161701,-220.13375774500452 L-28.97692687573446,243.28036852331167" stroke="#0d6d4d" stroke-width="0.1" fill="none" />
<path d="M109.71540441156546,-219.06056248171794 L-78.46611419639517,232.09495669427693" stroke="#0d6d4d" stroke-width="0.1" fill="none" />
<path d="M111.8741631614597,-217.96598729371306 L-124.59012406905894,210.95568488300214" stroke="#0d6d4d" stroke-width="0.1" fill="none" />
<path d="M114.02200319025137,-216.85013900959876 L-165.3708353719616,180.76915336522316" stroke="#0d6d4d" stroke-width="0.1" fill="none" />
<path d="M116.15871487254012,-215.71312653420034 L-199.05928511139192,142.82997238304566" stroke="#0d6d4d" stroke-width="0.1" fill="none" />
<path d="M118.28408966903248,-214.55506083793102 L-224.21067622453953,98.7652401755532" stroke="#0d6d4d" stroke-width="0.1" fill="none" />
<path d="M120.39792014689517,-213.3760549459612 L-239.74634061337846,50.464761591569136" stroke="#0d6d4d" stroke-width="0.1" fill="none" />
<path d="M122.49999999999999,-212.1762239271875 L-245.0,4.500576986866523e-14" stroke="#0d6d4d" stroke-width="0.1" fill="none" />
<path d="M124.59012406905903,-210.95568488300208 L-239.7463406133785,-50.464761591569044" stroke="#0d6d4d" stroke-width="0.1" fill="none" />
<path d="M126.66808836164776,-209.71455693586415 L-224.21067622453955,-98.76524017555313" stroke="#0d6d4d" stroke-width="0.1" fill="none" />
<path d="M128.7336900721145,-208.4529612176732 L-199.05928511139197,-142.8299723830456" stroke="#0d6d4d" stroke-width="0.1" fill="none" />
<path d="M130.7867276013737,-207.17102085794738 L-165.37083537196165,-180.76915336522313" stroke="#0d6d4d" stroke-width="0.1" fill="none" />
<path d="M132.82700057658184,-205.86886097180584 L-124.5901240690591,-210.95568488300202" stroke="#0d6d4d" stroke-width="0.1" fill="none" />
<path d="M134.8543098706933,-204.54660864775792 L-78.46611419639514,-232.09495669427693" stroke="#0d6d4d" stroke-width="0.1" fill="none" />
<path d="M136.86845762189486,-203.20439293529947 L-28.97692687573477,-243.28036852331164" stroke="#0d6d4d" stroke-width="0.1" fill="none" />
<path d="M138.86924725291675,-201.84234483231774 L21.754994354119024,-244.03221144072813" stroke="#0d6d4d" stroke-width="0.1" fill="none" />
<path d="M140.85648349021818,-200.4605972723066 L71.55390880605908,-234.31824114774798" stroke="#0d6d4d" stroke-width="0.1" fill="none" />
<path d="M142.82997238304566,-199.05928511139192 L118.28408966903248,-214.55506083793102" stroke="#0d6d4d" stroke-width="0.1" fill="none" />
<path d="M144.7895213223623,-197.63854511517027 L159.94141895667778,-185.59025432959695" stroke="#0d6d4d" stroke-width="0.1" fill="none" />
<path d="M146.73493905964605,-196.19851594536073 L194.73933814627154,-148.6660357255554" stroke="#0d6d4d" stroke-width="0.1" fill="none" />
<path d="M148.6660357255554,-194.73933814627154 L221.18546834160716,-105.36597455774752" stroke="#0d6d4d" stroke-width="0.1" fill="none" />
<path d="M150.58262284845998,-193.26115413108363 L238.14561394970065,-57.54708121634102" stroke="#0d6d4d" stroke-width="0.1" fill="none" />
<path d="M152.48451337283535,-191.76410816795095 L244.89240494465463,-7.260165316527173" stroke="#0d6d4d" stroke-width="0.1" fill="none" />
<path d="M154.3715216775192,-190.24834636592038 L241.1364915971612,43.33811740503038" stroke="#0d6d4d" stroke-width="0.1" fill="none" />
<path d="M156.24346359382758,-188.71401666067172 L227.03895382079918,92.0777576179884" stroke="#0d6d4d" stroke-width="0.1" fill="none" />
<path d="M158.10015642352946,-187.16126880007926 L203.20439293529947,136.86845762189483" stroke="#0d6d4d" stroke-width="0.1" fill="none" />
<path d="M159.94141895667778,-185.59025432959695 L170.6550021204343,175.7892779758611" stroke="#0d6d4d" stroke-width="0.1" fill="none" />
<path d="M161.76707148929535,-184.0011265774675 L130.78672760137377,207.17102085794735" stroke="#0d6d4d" stroke-width="0.1" fill="none" />
<path d="M163.5769358409133,-182.39404063975812 L85.30940068142776,229.6678169778596" stroke="#0d6d4d" stroke-width="0.1" fill="none" />
<path d="M165.3708353719616,-180.76915336522316 L36.17340818060798,242.31484589393017" stroke="#0d6d4d" stroke-width="0.1" fill="none" />
<path d="M167.14859500100837,-179.12662333999626 L-14.513953833959903,244.56971428225876" stroke="#0d6d4d" stroke-width="0.1" fill="none" />
<path d="M168.91004122184793,-177.46661087211206 L-64.57885568692157,236.33571756754787" stroke="#0d6d4d" stroke-width="0.1" fill="none" />
<path d="M170.65500212043426,-175.78927797586113 L-111.87416316145969,217.96598729371308" stroke="#0d6d4d" stroke-width="0.1" fill="none" />
<path d="M172.3833073916599,-174.09478835597722 L-154.37152167751927,190.24834636592033" stroke="#0d6d4d" stroke-width="0.1" fill="none" />
<path d="M174.09478835597716,-172.38330739165994 L-190.24834636592027,154.37152167751935" stroke="#0d6d4d" stroke-width="0.1" fill="none" />
<path d="M175.7892779758611,-170.6550021204343 L-217.9659872937131,111.87416316145965" stroke="#0d6d4d" stroke-width="0.1" fill="none" />
<path d="M177.466610872112,-168.91004122184796 L-236.3357175675479,64.57885568692154" stroke="#0d6d4d" stroke-width="0.1" fill="none" />
<path d="M179.1266233399962,-167.1485950010084 L-244.56971428225876,14.513953833959977" stroke="#0d6d4d" stroke-width="0.1" fill="none" />
<path d="M180.76915336522316,-165.3708353719616 L-242.31484589393017,-36.17340818060791" stroke="#0d6d4d" stroke-width="0.1" fill="none" />
<path d="M182.39404063975812,-163.5769358409133 L-229.66781697785962,-85.30940068142769" stroke="#0d6d4d" stroke-width="0.1" fill="none" />
<path d="M184.0011265774675,-161.76707148929535 L-207.1710208579474,-130.7867276013737" stroke="#0d6d4d" stroke-width="0.1" fill="none" />
<path d="M185.59025432959692,-159.9414189566778 L-175.78927797586115,-170.65500212043426" stroke="#0d6d4d" stroke-width="0.1" fill="none" />
<path d="M187.16126880007923,-158.10015642352946 L-136.8684576218949,-203.2043929352994" stroke="#0d6d4d" stroke-width="0.1" fill="none" />
<path d="M188.7140166606717,-156.24346359382758 L-92.07775761798841,-227.03895382079918" stroke="#0d6d4d" stroke-width="0.1" fill="none" />
<path d="M190.24834636592038,-154.37152167751924 L-43.33811740503046,-241.13649159716118" stroke="#0d6d4d" stroke-width="0.1" fill="none" />
<path d="M191.76410816795095,-152.48451337283535 L7.260165316527137,-244.89240494465463" stroke="#0d6d4d" stroke-width="0.1" fill="none" />
<path d="M193.26115413108363,-150.58262284845998 L57.547081216341,-238.14561394970065" stroke="#0d6d4d" stroke-width="0.1" fill="none" />
<path d="M194.73933814627154,-148.6660357255554 L105.3659745577475,-221.18546834160716" stroke="#0d6d4d" stroke-width="0.1" fill="none" />
<path d="M196.1985159453607,-146.73493905964605 L148.6660357255554,-194.73933814627154" stroke="#0d6d4d" stroke-width="0.1" fill="none" />
<path d="M197.63854511517027,-144.7895213223623 L185.59025432959692,-159.9414189566778" stroke="#0d6d4d" stroke-width="0.1" fill="none" />
<path d="M199.05928511139192,-142.82997238304566 L214.55506083793102,-118.2840896690325" stroke="#0d6d4d" stroke-width="0.1" fill="none" />
<path d="M200.4605972723066,-140.8564834902182 L234.31824114774798,-71.55390880605908" stroke="#0d6d4d" stroke-width="0.1" fill="none" />
<path d="M201.84234483231774,-138.86924725291678 L244.03221144072813,-21.75499435411905" stroke="#0d6d4d" stroke-width="0.1" fill="none" />
<path d="M203.20439293529947,-136.86845762189486 L243.28036852331167,28.976926875734584" stroke="#0d6d4d" stroke-width="0.1" fill="none" />
<path d="M204.54660864775792,-134.8543098706933 L232.0949566942769,78.46611419639522" stroke="#0d6d4d" stroke-width="0.1" fill="none" />
<path d="M205.86886097180584,-132.82700057658184 L210.95568488300214,124.59012406905894" stroke="#0d6d4d" stroke-width="0.1" fill="none" />
<path d="M207.17102085794735,-130.78672760137377 L180.76915336522316,165.3708353719616" stroke="#0d6d4d" stroke-width="0.1" fill="none" />
<path d="M208.45296121767316,-128.73369007211457 L142.82997238304563,199.05928511139192" stroke="#0d6d4d" stroke-width="0.1" fill="none" />
<path d="M209.71455693586412,-126.66808836164779 L98.7652401755532,224.21067622453953" stroke="#0d6d4d" stroke-width="0.1" fill="none" />
<path d="M210.95568488300208,-124.59012406905906 L50.464761591569115,239.7463406133785" stroke="#0d6d4d" stroke-width="0.1" fill="none" />
<path d="M212.17622392718746,-122.50000000000003 L3.0003846579110155e-14,245.0" stroke="#0d6d4d" stroke-width="0.1" fill="none" />
<path d="M213.37605494596116,-120.39792014689523 L-50.46476159156895,239.74634061337852" stroke="#0d6d4d" stroke-width="0.1" fill="none" />
<path d="M214.55506083793102,-118.2840896690325 L-98.76524017555315,224.21067622453955" stroke="#0d6d4d" stroke-width="0.1" fill="none" />
<path d="M215.71312653420034,-116.15871487254012 L-142.8299723830456,199.05928511139194" stroke="#0d6d4d" stroke-width="0.1" fill="none" />
<path d="M216.85013900959873,-114.0220031902514 L-180.76915336522316,165.3708353719616" stroke="#0d6d4d" stroke-width="0.1" fill="none" />
<path d="M217.96598729371306,-111.87416316145973 L-210.95568488300202,124.5901240690591" stroke="#0d6d4d" stroke-width="0.1" fill="none" />
<path d="M219.06056248171794,-109.71540441156544 L-232.09495669427687,78.46611419639532" stroke="#0d6d4d" stroke-width="0.1" fill="none" />
<path d="M220.13375774500452,-107.54593763161701 L-243.28036852331164,28.97692687573475" stroke="#0d6d4d" stroke-width="0.1" fill="none" />
<path d="M221.18546834160716,-105.36597455774752 L-244.03221144072813,-21.7549943541191" stroke="#0d6d4d" stroke-width="0.1" fill="none" />
<path d="M222.2155916264256,-103.17572795050998 L-234.31824114774804,-71.55390880605893" stroke="#0d6d4d" stroke-width="0.1" fill="none" />
<path d="M223.2240270612433,-100.97541157411203 L-214.555060837931,-118.28408966903253" stroke="#0d6d4d" stroke-width="0.1" fill="none" />
<path d="M224.21067622453953,-98.76524017555319 L-185.59025432959703,-159.94141895667767" stroke="#0d6d4d" stroke-width="0.1" fill="none" />
<path d="M225.17544282109534,-96.5454294636656 L-148.66603572555536,-194.73933814627154" stroke="#0d6d4d" stroke-width="0.1" fill="none" />
<path d="M226.11823269139163,-94.31619608806147 L-105.3659745577475,-221.18546834160716" stroke="#0d6d4d" stroke-width="0.1" fill="none" />
<path d="M227.03895382079918,-92.07775761798837 L-57.54708121634101,-238.14561394970065" stroke="#0d6d4d" stroke-width="0.1" fill="none" />
<path d="M227.93751634855886,-89.8303325210948 L-7.260165316527163,-244.89240494465463" stroke="#0d6d4d" stroke-width="0.1" fill="none" />
<path d="M228.81383257655202,-87.57414014210832 L43.338117405030374,-241.1364915971612" stroke="#0d6d4d" stroke-width="0.1" fill="none" />
<path d="M229.66781697785962,-85.30940068142769 L92.07775761798834,-227.0389538207992" stroke="#0d6d4d" stroke-width="0.1" fill="none" />
<path d="M230.49938620510963,-83.03633517363177 L136.86845762189486,-203.20439293529947" stroke="#0d6d4d" stroke-width="0.1" fill="none" />
<path d="M231.30845909861142,-80.75516546590696 L175.7892779758611,-170.6550021204343" stroke="#0d6d4d" stroke-width="0.1" fill="none" />
<path d="M232.0949566942769,-78.4661141963952 L207.17102085794735,-130.78672760137377" stroke="#0d6d4d" stroke-width="0.1" fill="none" />
<path d="M232.85880223132722,-76.16940477246517 L229.66781697785962,-85.30940068142769" stroke="#0d6d4d" stroke-width="0.1" fill="none" />
<path d="M233.59992115978454,-73.86526134890772 L242.31484589393017,-36.173408180607915" stroke="#0d6d4d" stroke-width="0.1" fill="none" />
<path d="M234.31824114774798,-71.55390880605908 L244.56971428225876,14.513953833959919" stroke="#0d6d4d" stroke-width="0.1" fill="none" />
<path d="M235.01369208845304,-69.23557272785274 L236.3357175675479,64.57885568692154" stroke="#0d6d4d" stroke-width="0.1" fill="none" />
<path d="M235.68620610711392,-66.91047937980291 L217.96598729371306,111.8741631614597" stroke="#0d6d4d" stroke-width="0.1" fill="none" />
<path d="M236.3357175675479,-64.57885568692156 L190.2483463659204,154.37152167751918" stroke="#0d6d4d" stroke-width="0.1" fill="none" />
<path d="M236.96216307858148,-62.24092921157069 L154.37152167751924,190.24834636592038" stroke="#0d6d4d" stroke-width="0.1" fill="none" />
<path d="M237.5654815002372,-59.896928131252764 L111.87416316145973,217.96598729371306" stroke="#0d6d4d" stroke-width="0.1" fill="none" />
<path d="M238.14561394970065,-57.54708121634102 L64.57885568692163,236.33571756754787" stroke="#0d6d4d" stroke-width="0.1" fill="none" />
<path d="M238.70250380706747,-55.19161780775176 L14.513953833960073,244.56971428225873" stroke="#0d6d4d" stroke-width="0.1" fill="none" />
<path d="M239.23609672086934,-52.83076779456135 L-36.173408180607815,242.3148458939302" stroke="#0d6d4d" stroke-width="0.1" fill="none" />
<path d="M239.7463406133785,-50.4647615915691 L-85.3094006814277,229.66781697785962" stroke="#0d6d4d" stroke-width="0.1" fill="none" />
<path d="M240.23318568569053,-48.09383011680941 L-130.7867276013737,207.17102085794738" stroke="#0d6d4d" stroke-width="0.1" fill="none" />
<path d="M240.69658442258472,-45.71820476901452 L-170.65500212043432,175.78927797586104" stroke="#0d6d4d" stroke-width="0.1" fill="none" />
<path d="M241.1364915971612,-43.33811740503041 L-203.2043929352994,136.8684576218949" stroke="#0d6d4d" stroke-width="0.1" fill="none" />
<path d="M241.55286427525527,-40.953800317187905 L-227.03895382079918,92.0777576179884" stroke="#0d6d4d" stroke-width="0.1" fill="none" />
<path d="M241.94566181962756,-38.565486210631605 L-241.13649159716118,43.338117405030445" stroke="#0d6d4d" stroke-width="0.1" fill="none" />
<path d="M242.31484589393017,-36.173408180607915 L-244.89240494465463,-7.2601653165270585" stroke="#0d6d4d" stroke-width="0.1" fill="none" />
<path d="M242.66038046644832,-33.777799689715586 L-238.14561394970067,-57.54708121634091" stroke="#0d6d4d" stroke-width="0.1" fill="none" />
<path d="M242.98223181361683,-31.378894545120136 L-221.1854683416072,-105.36597455774742" stroke="#0d6d4d" stroke-width="0.1" fill="none" />
<path d="M243.28036852331164,-28.976926875734613 L-194.73933814627162,-148.66603572555528" stroke="#0d6d4d" stroke-width="0.1" fill="none" />
<path d="M243.55476149791548,-26.57213110936925 L-159.9414189566779,-185.59025432959686" stroke="#0d6d4d" stroke-width="0.1" fill="none" />
<path d="M243.80538395715772,-24.164741949851393 L-118.28408966903262,-214.55506083793094" stroke="#0d6d4d" stroke-width="0.1" fill="none" />
<path d="M244.03221144072813,-21.75499435411905 L-71.55390880605923,-234.31824114774793" stroke="#0d6d4d" stroke-width="0.1" fill="none" />
<path d="M244.23522181066426,-19.343123509289434 L-21.754994354118985,-244.03221144072813" stroke="#0d6d4d" stroke-width="0.1" fill="none" />
<path d="M244.41439525351186,-16.929364809705145 L28.97692687573462,-243.28036852331164" stroke="#0d6d4d" stroke-width="0.1" fill="none" />
<path d="M244.56971428225876,-14.513953833960004 L78.46611419639522,-232.0949566942769" stroke="#0d6d4d" stroke-width="0.1" fill="none" />
<path d="M244.70116373804154,-12.097126321907249 L124.59012406905903,-210.95568488300208" stroke="#0d6d4d" stroke-width="0.1" fill="none" />
<path d="M244.8087307916251,-9.679118151651393 L165.3708353719616,-180.76915336522316" stroke="#0d6d4d" stroke-width="0.1" fill="none" />
<path d="M244.89240494465463,-7.260165316527173 L199.05928511139192,-142.82997238304566" stroke="#0d6d4d" stroke-width="0.1" fill="none" />
<path d="M244.95217803068024,-4.840503902066943 L224.21067622453953,-98.76524017555319" stroke="#0d6d4d" stroke-width="0.1" fill="none" />
<path d="M244.9880442159542,-2.420370062959099 L239.7463406133785,-50.4647615915691" stroke="#0d6d4d" stroke-width="0.1" fill="none" />
<path d="M245.0,-1.5001923289555078e-14 L245.0,-1.5001923289555078e-14" stroke="#0d6d4d" stroke-width="0.1" fill="none" />
<path d="M244.9880442159542,2.420370062959069 L239.7463406133785,50.46476159156908" stroke="#0d6d4d" stroke-width="0.1" fill="none" />
<path d="M244.95217803068024,4.840503902066858 L224.21067622453953,98.7652401755532" stroke="#0d6d4d" stroke-width="0.1" fill="none" />
<path d="M244.89240494465463,7.260165316527088 L199.05928511139194,142.8299723830456" stroke="#0d6d4d" stroke-width="0.1" fill="none" />
<path d="M244.8087307916251,9.67911815165131 L165.37083537196156,180.76915336522322" stroke="#0d6d4d" stroke-width="0.1" fill="none" />
<path d="M244.70116373804154,12.097126321907163 L124.590124069059,210.9556848830021" stroke="#0d6d4d" stroke-width="0.1" fill="none" />
<path d="M244.56971428225876,14.513953833959919 L78.46611419639521,232.0949566942769" stroke="#0d6d4d" stroke-width="0.1" fill="none" />
<path d="M244.41439525351186,16.929364809705117 L28.976926875734627,243.28036852331164" stroke="#0d6d4d" stroke-width="0.1" fill="none" />
<path d="M244.23522181066426,19.34312350928941 L-21.754994354119003,244.03221144072813" stroke="#0d6d4d" stroke-width="0.1" fill="none" />
<path d="M244.03221144072813,21.75499435411902 L-71.55390880605906,234.31824114774798" stroke="#0d6d4d" stroke-width="0.1" fill="none" />
<path d="M243.80538395715772,24.164741949851365 L-118.28408966903245,214.55506083793102" stroke="#0d6d4d" stroke-width="0.1" fill="none" />
<path d="M243.55476149791548,26.57213110936922 L-159.94141895667775,185.59025432959697" stroke="#0d6d4d" stroke-width="0.1" fill="none" />
<path d="M243.28036852331167,28.976926875734584 L-194.73933814627154,148.66603572555536" stroke="#0d6d4d" stroke-width="0.1" fill="none" />
<path d="M242.98223181361683,31.378894545120055 L-221.18546834160716,105.36597455774749" stroke="#0d6d4d" stroke-width="0.1" fill="none" />
<path d="M242.66038046644832,33.77779968971551 L-238.14561394970065,57.547081216341" stroke="#0d6d4d" stroke-width="0.1" fill="none" />
<path d="M242.3148458939302,36.173408180607886 L-244.89240494465463,7.260165316527148" stroke="#0d6d4d" stroke-width="0.1" fill="none" />
<path d="M241.94566181962756,38.565486210631576 L-241.1364915971612,-43.33811740503035" stroke="#0d6d4d" stroke-width="0.1" fill="none" />
<path d="M241.5528642752553,40.95380031718788 L-227.0389538207992,-92.07775761798833" stroke="#0d6d4d" stroke-width="0.1" fill="none" />
<path d="M241.1364915971612,43.33811740503038 L-203.20439293529947,-136.8684576218948" stroke="#0d6d4d" stroke-width="0.1" fill="none" />
<path d="M240.69658442258472,45.7182047690145 L-170.65500212043432,-175.7892779758611" stroke="#0d6d4d" stroke-width="0.1" fill="none" />
<path d="M240.23318568569056,48.093830116809386 L-130.7867276013738,-207.17102085794733" stroke="#0d6d4d" stroke-width="0.1" fill="none" />
<path d="M239.7463406133785,50.46476159156908 L-85.30940068142779,-229.6678169778596" stroke="#0d6d4d" stroke-width="0.1" fill="none" />
<path d="M239.23609672086934,52.830767794561325 L-36.173408180607794,-242.3148458939302" stroke="#0d6d4d" stroke-width="0.1" fill="none" />
<path d="M238.70250380706747,55.19161780775179 L14.51395383396,-244.56971428225876" stroke="#0d6d4d" stroke-width="0.1" fill="none" />
<path d="M238.14561394970065,57.547081216341 L64.57885568692157,-236.33571756754787" stroke="#0d6d4d" stroke-width="0.1" fill="none" />
<path d="M237.5654815002372,59.89692813125274 L111.8741631614597,-217.96598729371306" stroke="#0d6d4d" stroke-width="0.1" fill="none" />
<path d="M236.96216307858148,62.24092921157066 L154.3715216775192,-190.24834636592038" stroke="#0d6d4d" stroke-width="0.1" fill="none" />
<path d="M236.3357175675479,64.57885568692154 L190.24834636592038,-154.37152167751924" stroke="#0d6d4d" stroke-width="0.1" fill="none" />
<path d="M235.6862061071139,66.91047937980292 L217.96598729371306,-111.87416316145973" stroke="#0d6d4d" stroke-width="0.1" fill="none" />
<path d="M235.01369208845304,69.23557272785271 L236.3357175675479,-64.57885568692156" stroke="#0d6d4d" stroke-width="0.1" fill="none" />
<path d="M234.31824114774798,71.55390880605907 L244.56971428225876,-14.513953833960004" stroke="#0d6d4d" stroke-width="0.1" fill="none" />
<path d="M233.59992115978454,73.86526134890775 L242.3148458939302,36.173408180607886" stroke="#0d6d4d" stroke-width="0.1" fill="none" />
<path d="M232.85880223132722,76.1694047724652 L229.66781697785962,85.30940068142768" stroke="#0d6d4d" stroke-width="0.1" fill="none" />
<path d="M232.0949566942769,78.46611419639522 L207.17102085794738,130.7867276013737" stroke="#0d6d4d" stroke-width="0.1" fill="none" />
<path d="M231.30845909861142,80.75516546590693 L175.78927797586113,170.65500212043426" stroke="#0d6d4d" stroke-width="0.1" fill="none" />
<path d="M230.49938620510963,83.03633517363174 L136.86845762189486,203.20439293529944" stroke="#0d6d4d" stroke-width="0.1" fill="none" />
<path d="M229.66781697785962,85.30940068142768 L92.07775761798838,227.03895382079918" stroke="#0d6d4d" stroke-width="0.1" fill="none" />
<path d="M228.81383257655202,87.5741401421083 L43.338117405030424,241.1364915971612" stroke="#0d6d4d" stroke-width="0.1" fill="none" />
<path d="M227.93751634855886,89.83033252109477 L-7.260165316527074,244.89240494465463" stroke="#0d6d4d" stroke-width="0.1" fill="none" />
<path d="M227.03895382079918,92.0777576179884 L-57.54708121634093,238.14561394970067" stroke="#0d6d4d" stroke-width="0.1" fill="none" />
<path d="M226.11823269139163,94.3161960880615 L-105.36597455774752,221.18546834160716" stroke="#0d6d4d" stroke-width="0.1" fill="none" />
<path d="M225.17544282109532,96.54542946366563 L-148.6660357255554,194.73933814627154" stroke="#0d6d4d" stroke-width="0.1" fill="none" />
<path d="M224.21067622453953,98.7652401755532 L-185.59025432959686,159.9414189566779" stroke="#0d6d4d" stroke-width="0.1" fill="none" />
<path d="M223.2240270612433,100.97541157411206 L-214.55506083793094,118.28408966903262" stroke="#0d6d4d" stroke-width="0.1" fill="none" />
<path d="M222.21559162642563,103.17572795050991 L-234.31824114774793,71.55390880605921" stroke="#0d6d4d" stroke-width="0.1" fill="none" />
<path d="M221.1854683416072,105.36597455774745 L-244.03221144072813,21.75499435411897" stroke="#0d6d4d" stroke-width="0.1" fill="none" />
<path d="M220.13375774500457,107.54593763161692 L-243.28036852331167,-28.97692687573445" stroke="#0d6d4d" stroke-width="0.1" fill="none" />
<path d="M219.060562481718,109.71540441156537 L-232.0949566942769,-78.46611419639525" stroke="#0d6d4d" stroke-width="0.1" fill="none" />
<path d="M217.96598729371306,111.8741631614597 L-210.9556848830022,-124.59012406905883" stroke="#0d6d4d" stroke-width="0.1" fill="none" />
<path d="M216.85013900959876,114.02200319025137 L-180.76915336522316,-165.3708353719616" stroke="#0d6d4d" stroke-width="0.1" fill="none" />
<path d="M215.71312653420034,116.1587148725401 L-142.82997238304566,-199.05928511139192" stroke="#0d6d4d" stroke-width="0.1" fill="none" />
<path d="M214.55506083793102,118.28408966903245 L-98.76524017555322,-224.21067622453953" stroke="#0d6d4d" stroke-width="0.1" fill="none" />
<path d="M213.37605494596122,120.39792014689513 L-50.46476159156915,-239.74634061337846" stroke="#0d6d4d" stroke-width="0.1" fill="none" />
<path d="M212.17622392718752,122.49999999999994 L0.0,-245.0" stroke="#0d6d4d" stroke-width="0.1" fill="none" />
<path d="M210.95568488300214,124.59012406905894 L50.4647615915691,-239.7463406133785" stroke="#0d6d4d" stroke-width="0.1" fill="none" />
<path d="M209.71455693586418,126.66808836164768 L98.7652401755532,-224.21067622453953" stroke="#0d6d4d" stroke-width="0.1" fill="none" />
<path d="M208.4529612176732,128.7336900721145 L142.82997238304566,-199.05928511139192" stroke="#0d6d4d" stroke-width="0.1" fill="none" />
<path d="M207.17102085794738,130.7867276013737 L180.76915336522316,-165.3708353719616" stroke="#0d6d4d" stroke-width="0.1" fill="none" />
<path d="M205.86886097180584,132.82700057658184 L210.95568488300208,-124.59012406905906" stroke="#0d6d4d" stroke-width="0.1" fill="none" />
<path d="M204.54660864775795,134.85430987069327 L232.0949566942769,-78.4661141963952" stroke="#0d6d4d" stroke-width="0.1" fill="none" />
<path d="M203.20439293529947,136.86845762189483 L243.28036852331164,-28.976926875734613" stroke="#0d6d4d" stroke-width="0.1" fill="none" />
<path d="M201.8423448323178,138.86924725291672 L244.03221144072813,21.75499435411902" stroke="#0d6d4d" stroke-width="0.1" fill="none" />
<path d="M200.46059727230661,140.85648349021812 L234.31824114774798,71.55390880605907" stroke="#0d6d4d" stroke-width="0.1" fill="none" />
<path d="M199.05928511139194,142.8299723830456 L214.55506083793102,118.28408966903245" stroke="#0d6d4d" stroke-width="0.1" fill="none" />
<path d="M197.63854511517027,144.7895213223623 L185.5902543295969,159.94141895667784" stroke="#0d6d4d" stroke-width="0.1" fill="none" />
<path d="M196.1985159453607,146.73493905964605 L148.66603572555533,194.73933814627156" stroke="#0d6d4d" stroke-width="0.1" fill="none" />
<path d="M194.73933814627154,148.6660357255554 L105.36597455774748,221.18546834160716" stroke="#0d6d4d" stroke-width="0.1" fill="none" />
<path d="M193.26115413108363,150.58262284845998 L57.547081216340985,238.14561394970065" stroke="#0d6d4d" stroke-width="0.1" fill="none" />
<path d="M191.76410816795098,152.48451337283532 L7.260165316527133,244.89240494465463" stroke="#0d6d4d" stroke-width="0.1" fill="none" />
<path d="M190.2483463659204,154.37152167751918 L-43.33811740503037,241.1364915971612" stroke="#0d6d4d" stroke-width="0.1" fill="none" />
<path d="M188.71401666067172,156.24346359382756 L-92.07775761798833,227.0389538207992" stroke="#0d6d4d" stroke-width="0.1" fill="none" />
<path d="M187.16126880007928,158.1001564235294 L-136.86845762189483,203.20439293529947" stroke="#0d6d4d" stroke-width="0.1" fill="none" />
<path d="M185.5902543295969,159.94141895667784 L-175.7892779758611,170.65500212043432" stroke="#0d6d4d" stroke-width="0.1" fill="none" />
<path d="M184.0011265774675,161.76707148929535 L-207.17102085794733,130.7867276013738" stroke="#0d6d4d" stroke-width="0.1" fill="none" />
<path d="M182.39404063975812,163.5769358409133 L-229.6678169778596,85.30940068142777" stroke="#0d6d4d" stroke-width="0.1" fill="none" />
<path d="M180.76915336522316,165.3708353719616 L-242.3148458939302,36.17340818060778" stroke="#0d6d4d" stroke-width="0.1" fill="none" />
<path d="M179.1266233399962,167.1485950010084 L-244.56971428225876,-14.51395383395989" stroke="#0d6d4d" stroke-width="0.1" fill="none" />
<path d="M177.46661087211206,168.91004122184793 L-236.33571756754785,-64.57885568692166" stroke="#0d6d4d" stroke-width="0.1" fill="none" />
<path d="M175.78927797586113,170.65500212043426 L-217.96598729371314,-111.87416316145958" stroke="#0d6d4d" stroke-width="0.1" fill="none" />
<path d="M174.09478835597722,172.38330739165988 L-190.24834636592036,-154.37152167751924" stroke="#0d6d4d" stroke-width="0.1" fill="none" />
<path d="M172.38330739165994,174.09478835597716 L-154.37152167751935,-190.24834636592027" stroke="#0d6d4d" stroke-width="0.1" fill="none" />
<path d="M170.6550021204343,175.7892779758611 L-111.87416316145966,-217.96598729371308" stroke="#0d6d4d" stroke-width="0.1" fill="none" />
<path d="M168.91004122184788,177.46661087211208 L-64.57885568692156,-236.3357175675479" stroke="#0d6d4d" stroke-width="0.1" fill="none" />
<path d="M167.14859500100835,179.12662333999626 L-14.513953833959993,-244.56971428225876" stroke="#0d6d4d" stroke-width="0.1" fill="none" />
<path d="M165.37083537196156,180.76915336522322 L36.1734081806079,-242.3148458939302" stroke="#0d6d4d" stroke-width="0.1" fill="none" />
<path d="M163.5769358409133,182.39404063975812 L85.30940068142769,-229.66781697785962" stroke="#0d6d4d" stroke-width="0.1" fill="none" />
<path d="M161.76707148929535,184.0011265774675 L130.7867276013737,-207.17102085794738" stroke="#0d6d4d" stroke-width="0.1" fill="none" />
<path d="M159.94141895667778,185.59025432959695 L170.65500212043426,-175.78927797586113" stroke="#0d6d4d" stroke-width="0.1" fill="none" />
<path d="M158.10015642352946,187.16126880007926 L203.20439293529947,-136.86845762189486" stroke="#0d6d4d" stroke-width="0.1" fill="none" />
<path d="M156.24346359382758,188.7140166606717 L227.03895382079918,-92.07775761798837" stroke="#0d6d4d" stroke-width="0.1" fill="none" />
<path d="M154.37152167751924,190.24834636592038 L241.1364915971612,-43.33811740503041" stroke="#0d6d4d" stroke-width="0.1" fill="none" />
<path d="M152.48451337283538,191.76410816795092 L244.89240494465463,7.260165316527088" stroke="#0d6d4d" stroke-width="0.1" fill="none" />
<path d="M150.58262284845992,193.26115413108369 L238.14561394970065,57.547081216341" stroke="#0d6d4d" stroke-width="0.1" fill="none" />
<path d="M148.66603572555533,194.73933814627156 L221.1854683416072,105.36597455774745" stroke="#0d6d4d" stroke-width="0.1" fill="none" />
<path d="M146.73493905964602,196.19851594536073 L194.73933814627154,148.6660357255554" stroke="#0d6d4d" stroke-width="0.1" fill="none" />
<path d="M144.78952132236228,197.63854511517027 L159.94141895667778,185.59025432959695" stroke="#0d6d4d" stroke-width="0.1" fill="none" />
<path d="M142.82997238304563,199.05928511139192 L118.2840896690325,214.55506083793102" stroke="#0d6d4d" stroke-width="0.1" fill="none" />
<path d="M140.85648349021818,200.4605972723066 L71.55390880605908,234.31824114774798" stroke="#0d6d4d" stroke-width="0.1" fill="none" />
<path d="M138.86924725291675,201.84234483231774 L21.754994354119063,244.03221144072813" stroke="#0d6d4d" stroke-width="0.1" fill="none" />
<path d="M136.86845762189486,203.20439293529944 L-28.97692687573446,243.28036852331167" stroke="#0d6d4d" stroke-width="0.1" fill="none" />
<path d="M134.8543098706933,204.54660864775792 L-78.46611419639517,232.09495669427693" stroke="#0d6d4d" stroke-width="0.1" fill="none" />
<path d="M132.82700057658187,205.86886097180582 L-124.59012406905894,210.95568488300214" stroke="#0d6d4d" stroke-width="0.1" fill="none" />
<path d="M130.78672760137377,207.17102085794735 L-165.3708353719616,180.76915336522316" stroke="#0d6d4d" stroke-width="0.1" fill="none" />
<path d="M128.73369007211446,208.45296121767322 L-199.05928511139192,142.82997238304566" stroke="#0d6d4d" stroke-width="0.1" fill="none" />
<path d="M126.66808836164773,209.71455693586415 L-224.21067622453953,98.7652401755532" stroke="#0d6d4d" stroke-width="0.1" fill="none" />
<path d="M124.590124069059,210.9556848830021 L-239.74634061337846,50.464761591569136" stroke="#0d6d4d" stroke-width="0.1" fill="none" />
<path d="M122.49999999999999,212.1762239271875 L-245.0,4.500576986866523e-14" stroke="#0d6d4d" stroke-width="0.1" fill="none" />
<path d="M120.39792014689517,213.3760549459612 L-239.7463406133785,-50.464761591569044" stroke="#0d6d4d" stroke-width="0.1" fill="none" />
<path d="M118.2840896690325,214.55506083793102 L-224.21067622453955,-98.76524017555313" stroke="#0d6d4d" stroke-width="0.1" fill="none" />
<path d="M116.15871487254013,215.7131265342003 L-199.05928511139197,-142.8299723830456" stroke="#0d6d4d" stroke-width="0.1" fill="none" />
<path d="M114.02200319025141,216.85013900959873 L-165.37083537196165,-180.76915336522313" stroke="#0d6d4d" stroke-width="0.1" fill="none" />
<path d="M111.87416316145973,217.96598729371306 L-124.5901240690591,-210.95568488300202" stroke="#0d6d4d" stroke-width="0.1" fill="none" />
<path d="M109.71540441156552,219.0605624817179 L-78.46611419639514,-232.09495669427693" stroke="#0d6d4d" stroke-width="0.1" fill="none" />
<path d="M107.54593763161697,220.13375774500454 L-28.97692687573477,-243.28036852331164" stroke="#0d6d4d" stroke-width="0.1" fill="none" />
<path d="M105.36597455774748,221.18546834160716 L21.754994354119024,-244.03221144072813" stroke="#0d6d4d" stroke-width="0.1" fill="none" />
<path d="M103.17572795050994,222.21559162642563 L71.55390880605908,-234.31824114774798" stroke="#0d6d4d" stroke-width="0.1" fill="none" />
<path d="M100.97541157411204,223.2240270612433 L118.28408966903248,-214.55506083793102" stroke="#0d6d4d" stroke-width="0.1" fill="none" />
<path d="M98.7652401755532,224.21067622453953 L159.94141895667778,-185.59025432959695" stroke="#0d6d4d" stroke-width="0.1" fill="none" />
<path d="M96.54542946366561,225.17544282109532 L194.73933814627154,-148.6660357255554" stroke="#0d6d4d" stroke-width="0.1" fill="none" />
<path d="M94.31619608806149,226.11823269139163 L221.18546834160716,-105.36597455774752" stroke="#0d6d4d" stroke-width="0.1" fill="none" />
<path d="M92.07775761798838,227.03895382079918 L238.14561394970065,-57.54708121634102" stroke="#0d6d4d" stroke-width="0.1" fill="none" />
<path d="M89.83033252109485,227.93751634855886 L244.89240494465463,-7.260165316527173" stroke="#0d6d4d" stroke-width="0.1" fill="none" />
<path d="M87.57414014210839,228.813832576552 L241.1364915971612,43.33811740503038" stroke="#0d6d4d" stroke-width="0.1" fill="none" />
<path d="M85.30940068142776,229.6678169778596 L227.03895382079918,92.0777576179884" stroke="#0d6d4d" stroke-width="0.1" fill="none" />
<path d="M83.03633517363174,230.49938620510966 L203.20439293529947,136.86845762189483" stroke="#0d6d4d" stroke-width="0.1" fill="none" />
<path d="M80.75516546590691,231.30845909861142 L170.6550021204343,175.7892779758611" stroke="#0d6d4d" stroke-width="0.1" fill="none" />
<path d="M78.46611419639521,232.0949566942769 L130.78672760137377,207.17102085794735" stroke="#0d6d4d" stroke-width="0.1" fill="none" />
<path d="M76.16940477246519,232.85880223132722 L85.30940068142776,229.6678169778596" stroke="#0d6d4d" stroke-width="0.1" fill="none" />
<path d="M73.86526134890774,233.59992115978454 L36.17340818060798,242.31484589393017" stroke="#0d6d4d" stroke-width="0.1" fill="none" />
<path d="M71.55390880605908,234.31824114774798 L-14.513953833959903,244.56971428225876" stroke="#0d6d4d" stroke-width="0.1" fill="none" />
<path d="M69.23557272785276,235.01369208845304 L-64.57885568692157,236.33571756754787" stroke="#0d6d4d" stroke-width="0.1" fill="none" />
<path d="M66.91047937980296,235.6862061071139 L-111.87416316145969,217.96598729371308" stroke="#0d6d4d" stroke-width="0.1" fill="none" />
<path d="M64.57885568692163,236.33571756754787 L-154.37152167751927,190.24834636592033" stroke="#0d6d4d" stroke-width="0.1" fill="none" />
<path d="M62.24092921157076,236.96216307858148 L-190.24834636592027,154.37152167751935" stroke="#0d6d4d" stroke-width="0.1" fill="none" />
<path d="M59.896928131252835,237.56548150023718 L-217.9659872937131,111.87416316145965" stroke="#0d6d4d" stroke-width="0.1" fill="none" />
<path d="M57.547081216340985,238.14561394970065 L-236.3357175675479,64.57885568692154" stroke="#0d6d4d" stroke-width="0.1" fill="none" />
<path d="M55.191617807751776,238.70250380706747 L-244.56971428225876,14.513953833959977" stroke="#0d6d4d" stroke-width="0.1" fill="none" />
<path d="M52.83076779456137,239.2360967208693 L-242.31484589393017,-36.17340818060791" stroke="#0d6d4d" stroke-width="0.1" fill="none" />
<path d="M50.464761591569115,239.7463406133785 L-229.66781697785962,-85.30940068142769" stroke="#0d6d4d" stroke-width="0.1" fill="none" />
<path d="M48.09383011680942,240.23318568569053 L-207.1710208579474,-130.7867276013737" stroke="#0d6d4d" stroke-width="0.1" fill="none" />
<path d="M45.718204769014534,240.69658442258472 L-175.78927797586115,-170.65500212043426" stroke="#0d6d4d" stroke-width="0.1" fill="none" />
<path d="M43.338117405030424,241.1364915971612 L-136.8684576218949,-203.2043929352994" stroke="#0d6d4d" stroke-width="0.1" fill="none" />
<path d="M40.95380031718798,241.55286427525527 L-92.07775761798841,-227.03895382079918" stroke="#0d6d4d" stroke-width="0.1" fill="none" />
<path d="M38.565486210631676,241.94566181962753 L-43.33811740503046,-241.13649159716118" stroke="#0d6d4d" stroke-width="0.1" fill="none" />
<path d="M36.17340818060798,242.31484589393017 L7.260165316527137,-244.89240494465463" stroke="#0d6d4d" stroke-width="0.1" fill="none" />
<path d="M33.77779968971566,242.6603804664483 L57.547081216341,-238.14561394970065" stroke="#0d6d4d" stroke-width="0.1" fill="none" />
<path d="M31.378894545120097,242.98223181361683 L105.3659745577475,-221.18546834160716" stroke="#0d6d4d" stroke-width="0.1" fill="none" />
<path d="M28.976926875734627,243.28036852331164 L148.6660357255554,-194.73933814627154" stroke="#0d6d4d" stroke-width="0.1" fill="none" />
<path d="M26.572131109369266,243.55476149791548 L185.59025432959692,-159.9414189566778" stroke="#0d6d4d" stroke-width="0.1" fill="none" />
<path d="M24.164741949851408,243.80538395715772 L214.55506083793102,-118.2840896690325" stroke="#0d6d4d" stroke-width="0.1" fill="none" />
<path d="M21.754994354119063,244.03221144072813 L234.31824114774798,-71.55390880605908" stroke="#0d6d4d" stroke-width="0.1" fill="none" />
<path d="M19.343123509289452,244.23522181066426 L244.03221144072813,-21.75499435411905" stroke="#0d6d4d" stroke-width="0.1" fill="none" />
<path d="M16.92936480970516,244.41439525351186 L243.28036852331167,28.976926875734584" stroke="#0d6d4d" stroke-width="0.1" fill="none" />
<path d="M14.513953833960073,244.56971428225873 L232.0949566942769,78.46611419639522" stroke="#0d6d4d" stroke-width="0.1" fill="none" />
<path d="M12.097126321907318,244.70116373804154 L210.95568488300214,124.59012406905894" stroke="#0d6d4d" stroke-width="0.1" fill="none" />
<path d="M9.679118151651464,244.8087307916251 L180.76915336522316,165.3708353719616" stroke="#0d6d4d" stroke-width="0.1" fill="none" />
<path d="M7.260165316527133,244.89240494465463 L142.82997238304563,199.05928511139192" stroke="#0d6d4d" stroke-width="0.1" fill="none" />
<path d="M4.840503902066903,244.95217803068024 L98.7652401755532,224.21067622453953" stroke="#0d6d4d" stroke-width="0.1" fill="none" />
<path d="M2.4203700629591145,244.9880442159542 L50.464761591569115,239.7463406133785" stroke="#0d6d4d" stroke-width="0.1" fill="none" />
<path d="M3.0003846579110155e-14,245.0 L3.0003846579110155e-14,245.0" stroke="#0d6d4d" stroke-width="0.1" fill="none" />
<path d="M-2.420370062959054,244.9880442159542 L-50.46476159156895,239.74634061337852" stroke="#0d6d4d" stroke-width="0.1" fill="none" />
<path d="M-4.8405039020668434,244.95217803068024 L-98.76524017555315,224.21067622453955" stroke="#0d6d4d" stroke-width="0.1" fill="none" />
<path d="M-7.260165316527074,244.89240494465463 L-142.8299723830456,199.05928511139194" stroke="#0d6d4d" stroke-width="0.1" fill="none" />
<path d="M-9.679118151651293,244.8087307916251 L-180.76915336522316,165.3708353719616" stroke="#0d6d4d" stroke-width="0.1" fill="none" />
<path d="M-12.097126321907147,244.70116373804154 L-210.95568488300202,124.5901240690591" stroke="#0d6d4d" stroke-width="0.1" fill="none" />
<path d="M-14.513953833959903,244.56971428225876 L-232.09495669427687,78.46611419639532" stroke="#0d6d4d" stroke-width="0.1" fill="none" />
<path d="M-16.929364809704992,244.41439525351188 L-243.28036852331164,28.97692687573475" stroke="#0d6d4d" stroke-width="0.1" fill="none" />
<path d="M-19.34312350928928,244.23522181066426 L-244.03221144072813,-21.7549943541191" stroke="#0d6d4d" stroke-width="0.1" fill="none" />
<path d="M-21.754994354119003,244.03221144072813 L-234.31824114774804,-71.55390880605893" stroke="#0d6d4d" stroke-width="0.1" fill="none" />
<path d="M-24.164741949851237,243.80538395715772 L-214.555060837931,-118.28408966903253" stroke="#0d6d4d" stroke-width="0.1" fill="none" />
<path d="M-26.572131109369206,243.55476149791548 L-185.59025432959703,-159.94141895667767" stroke="#0d6d4d" stroke-width="0.1" fill="none" />
<path d="M-28.97692687573446,243.28036852331167 L-148.66603572555536,-194.73933814627154" stroke="#0d6d4d" stroke-width="0.1" fill="none" />
<path d="M-31.378894545120044,242.98223181361683 L-105.3659745577475,-221.18546834160716" stroke="#0d6d4d" stroke-width="0.1" fill="none" />
<path d="M-33.7777996897156,242.66038046644832 L-57.54708121634101,-238.14561394970065" stroke="#0d6d4d" stroke-width="0.1" fill="none" />
<path d="M-36.173408180607815,242.3148458939302 L-7.260165316527163,-244.89240494465463" stroke="#0d6d4d" stroke-width="0.1" fill="none" />
<path d="M-38.56548621063162,241.94566181962756 L43.338117405030374,-241.1364915971612" stroke="#0d6d4d" stroke-width="0.1" fill="none" />
<path d="M-40.95380031718781,241.5528642752553 L92.07775761798834,-227.0389538207992" stroke="#0d6d4d" stroke-width="0.1" fill="none" />
<path d="M-43.33811740503037,241.1364915971612 L136.86845762189486,-203.20439293529947" stroke="#0d6d4d" stroke-width="0.1" fill="none" />
<path d="M-45.71820476901437,240.69658442258475 L175.7892779758611,-170.6550021204343" stroke="#0d6d4d" stroke-width="0.1" fill="none" />
<path d="M-48.09383011680937,240.23318568569056 L207.17102085794735,-130.78672760137377" stroke="#0d6d4d" stroke-width="0.1" fill="none" />
<path d="M-50.46476159156895,239.74634061337852 L229.66781697785962,-85.30940068142769" stroke="#0d6d4d" stroke-width="0.1" fill="none" />
<path d="M-52.83076779456131,239.23609672086934 L242.31484589393017,-36.173408180607915" stroke="#0d6d4d" stroke-width="0.1" fill="none" />
<path d="M-55.191617807751726,238.70250380706747 L244.56971428225876,14.513953833959919" stroke="#0d6d4d" stroke-width="0.1" fill="none" />
<path d="M-57.54708121634093,238.14561394970067 L236.3357175675479,64.57885568692154" stroke="#0d6d4d" stroke-width="0.1" fill="none" />
<path d="M-59.89692813125278,237.5654815002372 L217.96598729371306,111.8741631614597" stroke="#0d6d4d" stroke-width="0.1" fill="none" />
<path d="M-62.240929211570595,236.9621630785815 L190.2483463659204,154.37152167751918" stroke="#0d6d4d" stroke-width="0.1" fill="none" />
<path d="M-64.57885568692157,236.33571756754787 L154.37152167751924,190.24834636592038" stroke="#0d6d4d" stroke-width="0.1" fill="none" />
<path d="M-66.91047937980281,235.68620610711392 L111.87416316145973,217.96598729371306" stroke="#0d6d4d" stroke-width="0.1" fill="none" />
<path d="M-69.2355727278527,235.01369208845304 L64.57885568692163,236.33571756754787" stroke="#0d6d4d" stroke-width="0.1" fill="none" />
<path d="M-71.55390880605906,234.31824114774798 L14.513953833960073,244.56971428225873" stroke="#0d6d4d" stroke-width="0.1" fill="none" />
<path d="M-73.8652613489077,233.59992115978457 L-36.173408180607815,242.3148458939302" stroke="#0d6d4d" stroke-width="0.1" fill="none" />
<path d="M-76.16940477246513,232.85880223132725 L-85.3094006814277,229.66781697785962" stroke="#0d6d4d" stroke-width="0.1" fill="none" />
<path d="M-78.46611419639517,232.09495669427693 L-130.7867276013737,207.17102085794738" stroke="#0d6d4d" stroke-width="0.1" fill="none" />
<path d="M-80.75516546590687,231.30845909861142 L-170.65500212043432,175.78927797586104" stroke="#0d6d4d" stroke-width="0.1" fill="none" />
<path d="M-83.03633517363168,230.49938620510966 L-203.2043929352994,136.8684576218949" stroke="#0d6d4d" stroke-width="0.1" fill="none" />
<path d="M-85.3094006814277,229.66781697785962 L-227.03895382079918,92.0777576179884" stroke="#0d6d4d" stroke-width="0.1" fill="none" />
<path d="M-87.57414014210825,228.81383257655204 L-241.13649159716118,43.338117405030445" stroke="#0d6d4d" stroke-width="0.1" fill="none" />
<path d="M-89.8303325210948,227.93751634855886 L-244.89240494465463,-7.2601653165270585" stroke="#0d6d4d" stroke-width="0.1" fill="none" />
<path d="M-92.07775761798833,227.0389538207992 L-238.14561394970067,-57.54708121634091" stroke="#0d6d4d" stroke-width="0.1" fill="none" />
<path d="M-94.31619608806143,226.11823269139165 L-221.1854683416072,-105.36597455774742" stroke="#0d6d4d" stroke-width="0.1" fill="none" />
<path d="M-96.54542946366556,225.17544282109534 L-194.73933814627162,-148.66603572555528" stroke="#0d6d4d" stroke-width="0.1" fill="none" />
<path d="M-98.76524017555315,224.21067622453955 L-159.9414189566779,-185.59025432959686" stroke="#0d6d4d" stroke-width="0.1" fill="none" />
<path d="M-100.97541157411199,223.22402706124333 L-118.28408966903262,-214.55506083793094" stroke="#0d6d4d" stroke-width="0.1" fill="none" />
<path d="M-103.1757279505099,222.21559162642566 L-71.55390880605923,-234.31824114774793" stroke="#0d6d4d" stroke-width="0.1" fill="none" />
<path d="M-105.36597455774752,221.18546834160716 L-21.754994354118985,-244.03221144072813" stroke="#0d6d4d" stroke-width="0.1" fill="none" />
<path d="M-107.54593763161701,220.13375774500452 L28.97692687573462,-243.28036852331164" stroke="#0d6d4d" stroke-width="0.1" fill="none" />
<path d="M-109.71540441156546,219.06056248171794 L78.46611419639522,-232.0949566942769" stroke="#0d6d4d" stroke-width="0.1" fill="none" />
<path d="M-111.87416316145969,217.96598729371308 L124.59012406905903,-210.95568488300208" stroke="#0d6d4d" stroke-width="0.1" fill="none" />
<path d="M-114.02200319025137,216.85013900959876 L165.3708353719616,-180.76915336522316" stroke="#0d6d4d" stroke-width="0.1" fill="none" />
<path d="M-116.15871487254009,215.71312653420037 L199.05928511139192,-142.82997238304566" stroke="#0d6d4d" stroke-width="0.1" fill="none" />
<path d="M-118.28408966903245,214.55506083793102 L224.21067622453953,-98.76524017555319" stroke="#0d6d4d" stroke-width="0.1" fill="none" />
<path d="M-120.39792014689513,213.37605494596122 L239.7463406133785,-50.4647615915691" stroke="#0d6d4d" stroke-width="0.1" fill="none" />
<path d="M-122.50000000000003,212.17622392718746 L245.0,-1.5001923289555078e-14" stroke="#0d6d4d" stroke-width="0.1" fill="none" />
<path d="M-124.59012406905894,210.95568488300214 L239.7463406133785,50.46476159156908" stroke="#0d6d4d" stroke-width="0.1" fill="none" />
<path d="M-126.66808836164779,209.71455693586412 L224.21067622453953,98.7652401755532" stroke="#0d6d4d" stroke-width="0.1" fill="none" />
<path d="M-128.7336900721145,208.4529612176732 L199.05928511139194,142.8299723830456" stroke="#0d6d4d" stroke-width="0.1" fill="none" />
<path d="M-130.7867276013737,207.17102085794738 L165.37083537196156,180.76915336522322" stroke="#0d6d4d" stroke-width="0.1" fill="none" />
<path d="M-132.82700057658184,205.86886097180584 L124.590124069059,210.9556848830021" stroke="#0d6d4d" stroke-width="0.1" fill="none" />
<path d="M-134.85430987069327,204.54660864775795 L78.46611419639521,232.0949566942769" stroke="#0d6d4d" stroke-width="0.1" fill="none" />
<path d="M-136.86845762189483,203.20439293529947 L28.976926875734627,243.28036852331164" stroke="#0d6d4d" stroke-width="0.1" fill="none" />
<path d="M-138.86924725291672,201.8423448323178 L-21.754994354119003,244.03221144072813" stroke="#0d6d4d" stroke-width="0.1" fill="none" />
<path d="M-140.8564834902182,200.46059727230656 L-71.55390880605906,234.31824114774798" stroke="#0d6d4d" stroke-width="0.1" fill="none" />
<path d="M-142.8299723830456,199.05928511139194 L-118.28408966903245,214.55506083793102" stroke="#0d6d4d" stroke-width="0.1" fill="none" />
<path d="M-144.7895213223623,197.63854511517027 L-159.94141895667775,185.59025432959697" stroke="#0d6d4d" stroke-width="0.1" fill="none" />
<path d="M-146.73493905964597,196.19851594536075 L-194.73933814627154,148.66603572555536" stroke="#0d6d4d" stroke-width="0.1" fill="none" />
<path d="M-148.6660357255554,194.73933814627154 L-221.18546834160716,105.36597455774749" stroke="#0d6d4d" stroke-width="0.1" fill="none" />
<path d="M-150.58262284845998,193.26115413108363 L-238.14561394970065,57.547081216341" stroke="#0d6d4d" stroke-width="0.1" fill="none" />
<path d="M-152.48451337283532,191.76410816795098 L-244.89240494465463,7.260165316527148" stroke="#0d6d4d" stroke-width="0.1" fill="none" />
<path d="M-154.37152167751927,190.24834636592033 L-241.1364915971612,-43.33811740503035" stroke="#0d6d4d" stroke-width="0.1" fill="none" />
<path d="M-156.24346359382756,188.71401666067172 L-227.0389538207992,-92.07775761798833" stroke="#0d6d4d" stroke-width="0.1" fill="none" />
<path d="M-158.10015642352948,187.1612688000792 L-203.20439293529947,-136.8684576218948" stroke="#0d6d4d" stroke-width="0.1" fill="none" />
<path d="M-159.94141895667775,185.59025432959697 L-170.65500212043432,-175.7892779758611" stroke="#0d6d4d" stroke-width="0.1" fill="none" />
<path d="M-161.76707148929535,184.0011265774675 L-130.7867276013738,-207.17102085794733" stroke="#0d6d4d" stroke-width="0.1" fill="none" />
<path d="M-163.57693584091325,182.39404063975817 L-85.30940068142779,-229.6678169778596" stroke="#0d6d4d" stroke-width="0.1" fill="none" />
<path d="M-165.3708353719616,180.76915336522316 L-36.173408180607794,-242.3148458939302" stroke="#0d6d4d" stroke-width="0.1" fill="none" />
<path d="M-167.14859500100832,179.12662333999629 L14.51395383396,-244.56971428225876" stroke="#0d6d4d" stroke-width="0.1" fill="none" />
<path d="M-168.91004122184793,177.46661087211206 L64.57885568692157,-236.33571756754787" stroke="#0d6d4d" stroke-width="0.1" fill="none" />
<path d="M-170.65500212043432,175.78927797586104 L111.8741631614597,-217.96598729371306" stroke="#0d6d4d" stroke-width="0.1" fill="none" />
<path d="M-172.38330739165988,174.09478835597722 L154.3715216775192,-190.24834636592038" stroke="#0d6d4d" stroke-width="0.1" fill="none" />
<path d="M-174.09478835597724,172.38330739165986 L190.24834636592038,-154.37152167751924" stroke="#0d6d4d" stroke-width="0.1" fill="none" />
<path d="M-175.7892779758611,170.65500212043432 L217.96598729371306,-111.87416316145973" stroke="#0d6d4d" stroke-width="0.1" fill="none" />
<path d="M-177.46661087211206,168.9100412218479 L236.3357175675479,-64.57885568692156" stroke="#0d6d4d" stroke-width="0.1" fill="none" />
<path d="M-179.12662333999617,167.14859500100846 L244.56971428225876,-14.513953833960004" stroke="#0d6d4d" stroke-width="0.1" fill="none" />
<path d="M-180.76915336522316,165.3708353719616 L242.3148458939302,36.173408180607886" stroke="#0d6d4d" stroke-width="0.1" fill="none" />
<path d="M-182.39404063975803,163.57693584091336 L229.66781697785962,85.30940068142768" stroke="#0d6d4d" stroke-width="0.1" fill="none" />
<path d="M-184.0011265774675,161.76707148929535 L207.17102085794738,130.7867276013737" stroke="#0d6d4d" stroke-width="0.1" fill="none" />
<path d="M-185.59025432959686,159.9414189566779 L175.78927797586113,170.65500212043426" stroke="#0d6d4d" stroke-width="0.1" fill="none" />
<path d="M-187.16126880007917,158.10015642352954 L136.86845762189486,203.20439293529944" stroke="#0d6d4d" stroke-width="0.1" fill="none" />
<path d="M-188.71401666067175,156.24346359382753 L92.07775761798838,227.03895382079918" stroke="#0d6d4d" stroke-width="0.1" fill="none" />
<path d="M-190.24834636592027,154.37152167751935 L43.338117405030424,241.1364915971612" stroke="#0d6d4d" stroke-width="0.1" fill="none" />
<path d="M-191.76410816795098,152.48451337283532 L-7.260165316527074,244.89240494465463" stroke="#0d6d4d" stroke-width="0.1" fill="none" />
<path d="M-193.26115413108352,150.5826228484601 L-57.54708121634093,238.14561394970067" stroke="#0d6d4d" stroke-width="0.1" fill="none" />
<path d="M-194.73933814627154,148.66603572555536 L-105.36597455774752,221.18546834160716" stroke="#0d6d4d" stroke-width="0.1" fill="none" />
<path d="M-196.19851594536058,146.73493905964622 L-148.6660357255554,194.73933814627154" stroke="#0d6d4d" stroke-width="0.1" fill="none" />
<path d="M-197.63854511517027,144.7895213223623 L-185.59025432959686,159.9414189566779" stroke="#0d6d4d" stroke-width="0.1" fill="none" />
<path d="M-199.05928511139192,142.82997238304566 L-214.55506083793094,118.28408966903262" stroke="#0d6d4d" stroke-width="0.1" fill="none" />
<path d="M-200.4605972723066,140.8564834902182 L-234.31824114774793,71.55390880605921" stroke="#0d6d4d" stroke-width="0.1" fill="none" />
<path d="M-201.84234483231774,138.86924725291678 L-244.03221144072813,21.75499435411897" stroke="#0d6d4d" stroke-width="0.1" fill="none" />
<path d="M-203.2043929352994,136.8684576218949 L-243.28036852331167,-28.97692687573445" stroke="#0d6d4d" stroke-width="0.1" fill="none" />
<path d="M-204.5466086477579,134.85430987069333 L-232.0949566942769,-78.46611419639525" stroke="#0d6d4d" stroke-width="0.1" fill="none" />
<path d="M-205.86886097180582,132.8270005765819 L-210.9556848830022,-124.59012406905883" stroke="#0d6d4d" stroke-width="0.1" fill="none" />
<path d="M-207.17102085794733,130.7867276013738 L-180.76915336522316,-165.3708353719616" stroke="#0d6d4d" stroke-width="0.1" fill="none" />
<path d="M-208.45296121767316,128.7336900721146 L-142.82997238304566,-199.05928511139192" stroke="#0d6d4d" stroke-width="0.1" fill="none" />
<path d="M-209.71455693586407,126.66808836164785 L-98.76524017555322,-224.21067622453953" stroke="#0d6d4d" stroke-width="0.1" fill="none" />
<path d="M-210.95568488300202,124.5901240690591 L-50.46476159156915,-239.74634061337846" stroke="#0d6d4d" stroke-width="0.1" fill="none" />
<path d="M-212.1762239271874,122.50000000000011 L0.0,-245.0" stroke="#0d6d4d" stroke-width="0.1" fill="none" />
<path d="M-213.37605494596113,120.3979201468953 L50.4647615915691,-239.7463406133785" stroke="#0d6d4d" stroke-width="0.1" fill="none" />
<path d="M-214.55506083793094,118.28408966903262 L98.7652401755532,-224.21067622453953" stroke="#0d6d4d" stroke-width="0.1" fill="none" />
<path d="M-215.71312653420037,116.15871487254006 L142.82997238304566,-199.05928511139192" stroke="#0d6d4d" stroke-width="0.1" fill="none" />
<path d="M-216.85013900959868,114.02200319025152 L180.76915336522316,-165.3708353719616" stroke="#0d6d4d" stroke-width="0.1" fill="none" />
<path d="M-217.9659872937131,111.87416316145965 L210.95568488300208,-124.59012406905906" stroke="#0d6d4d" stroke-width="0.1" fill="none" />
<path d="M-219.06056248171797,109.71540441156542 L232.0949566942769,-78.4661141963952" stroke="#0d6d4d" stroke-width="0.1" fill="none" />
<path d="M-220.13375774500454,107.54593763161698 L243.28036852331164,-28.976926875734613" stroke="#0d6d4d" stroke-width="0.1" fill="none" />
<path d="M-221.18546834160716,105.36597455774749 L244.03221144072813,21.75499435411902" stroke="#0d6d4d" stroke-width="0.1" fill="none" />
<path d="M-222.21559162642563,103.17572795050995 L234.31824114774798,71.55390880605907" stroke="#0d6d4d" stroke-width="0.1" fill="none" />
<path d="M-223.2240270612433,100.97541157411206 L214.55506083793102,118.28408966903245" stroke="#0d6d4d" stroke-width="0.1" fill="none" />
<path d="M-224.21067622453953,98.7652401755532 L185.5902543295969,159.94141895667784" stroke="#0d6d4d" stroke-width="0.1" fill="none" />
<path d="M-225.17544282109532,96.54542946366563 L148.66603572555533,194.73933814627156" stroke="#0d6d4d" stroke-width="0.1" fill="none" />
<path d="M-226.11823269139163,94.3161960880615 L105.36597455774748,221.18546834160716" stroke="#0d6d4d" stroke-width="0.1" fill="none" />
<path d="M-227.03895382079918,92.0777576179884 L57.547081216340985,238.14561394970065" stroke="#0d6d4d" stroke-width="0.1" fill="none" />
<path d="M-227.93751634855886,89.83033252109486 L7.260165316527133,244.89240494465463" stroke="#0d6d4d" stroke-width="0.1" fill="none" />
<path d="M-228.813832576552,87.5741401421084 L-43.33811740503037,241.1364915971612" stroke="#0d6d4d" stroke-width="0.1" fill="none" />
<path d="M-229.6678169778596,85.30940068142777 L-92.07775761798833,227.0389538207992" stroke="#0d6d4d" stroke-width="0.1" fill="none" />
<path d="M-230.4993862051096,83.03633517363185 L-136.86845762189483,203.20439293529947" stroke="#0d6d4d" stroke-width="0.1" fill="none" />
<path d="M-231.3084590986114,80.75516546590703 L-175.7892779758611,170.65500212043432" stroke="#0d6d4d" stroke-width="0.1" fill="none" />
<path d="M-232.09495669427687,78.46611419639532 L-207.17102085794733,130.7867276013738" stroke="#0d6d4d" stroke-width="0.1" fill="none" />
<path d="M-232.8588022313272,76.16940477246528 L-229.6678169778596,85.30940068142777" stroke="#0d6d4d" stroke-width="0.1" fill="none" />
<path d="M-233.59992115978457,73.86526134890767 L-242.3148458939302,36.17340818060778" stroke="#0d6d4d" stroke-width="0.1" fill="none" />
<path d="M-234.31824114774793,71.55390880605921 L-244.56971428225876,-14.51395383395989" stroke="#0d6d4d" stroke-width="0.1" fill="none" />
<path d="M-235.01369208845307,69.23557272785266 L-236.33571756754785,-64.57885568692166" stroke="#0d6d4d" stroke-width="0.1" fill="none" />
<path d="M-235.68620610711392,66.91047937980288 L-217.96598729371314,-111.87416316145958" stroke="#0d6d4d" stroke-width="0.1" fill="none" />
<path d="M-236.3357175675479,64.57885568692154 L-190.24834636592036,-154.37152167751924" stroke="#0d6d4d" stroke-width="0.1" fill="none" />
<path d="M-236.96216307858148,62.24092921157066 L-154.37152167751935,-190.24834636592027" stroke="#0d6d4d" stroke-width="0.1" fill="none" />
<path d="M-237.5654815002372,59.89692813125274 L-111.87416316145966,-217.96598729371308" stroke="#0d6d4d" stroke-width="0.1" fill="none" />
<path d="M-238.14561394970065,57.547081216341 L-64.57885568692156,-236.3357175675479" stroke="#0d6d4d" stroke-width="0.1" fill="none" />
<path d="M-238.70250380706747,55.1916178077518 L-14.513953833959993,-244.56971428225876" stroke="#0d6d4d" stroke-width="0.1" fill="none" />
<path d="M-239.2360967208693,52.83076779456139 L36.1734081806079,-242.3148458939302" stroke="#0d6d4d" stroke-width="0.1" fill="none" />
<path d="M-239.74634061337846,50.464761591569136 L85.30940068142769,-229.66781697785962" stroke="#0d6d4d" stroke-width="0.1" fill="none" />
<path d="M-240.23318568569053,48.09383011680944 L130.7867276013737,-207.17102085794738" stroke="#0d6d4d" stroke-width="0.1" fill="none" />
<path d="M-240.69658442258472,45.718204769014555 L170.65500212043426,-175.78927797586113" stroke="#0d6d4d" stroke-width="0.1" fill="none" />
<path d="M-241.13649159716118,43.338117405030445 L203.20439293529947,-136.86845762189486" stroke="#0d6d4d" stroke-width="0.1" fill="none" />
<path d="M-241.55286427525527,40.95380031718799 L227.03895382079918,-92.07775761798837" stroke="#0d6d4d" stroke-width="0.1" fill="none" />
<path d="M-241.94566181962753,38.5654862106317 L241.1364915971612,-43.33811740503041" stroke="#0d6d4d" stroke-width="0.1" fill="none" />
<path d="M-242.3148458939302,36.17340818060778 L244.89240494465463,7.260165316527088" stroke="#0d6d4d" stroke-width="0.1" fill="none" />
<path d="M-242.6603804664483,33.77779968971568 L238.14561394970065,57.547081216341" stroke="#0d6d4d" stroke-width="0.1" fill="none" />
<path d="M-242.98223181361683,31.37889454512001 L221.1854683416072,105.36597455774745" stroke="#0d6d4d" stroke-width="0.1" fill="none" />
<path d="M-243.28036852331164,28.97692687573475 L194.73933814627154,148.6660357255554" stroke="#0d6d4d" stroke-width="0.1" fill="none" />
<path d="M-243.55476149791548,26.57213110936917 L159.94141895667778,185.59025432959695" stroke="#0d6d4d" stroke-width="0.1" fill="none" />
<path d="M-243.8053839571577,24.164741949851532 L118.2840896690325,214.55506083793102" stroke="#0d6d4d" stroke-width="0.1" fill="none" />
<path d="M-244.03221144072813,21.75499435411897 L71.55390880605908,234.31824114774798" stroke="#0d6d4d" stroke-width="0.1" fill="none" />
<path d="M-244.23522181066426,19.343123509289576 L21.754994354119063,244.03221144072813" stroke="#0d6d4d" stroke-width="0.1" fill="none" />
<path d="M-244.41439525351186,16.929364809705067 L-28.97692687573446,243.28036852331167" stroke="#0d6d4d" stroke-width="0.1" fill="none" />
<path d="M-244.56971428225876,14.513953833959977 L-78.46611419639517,232.09495669427693" stroke="#0d6d4d" stroke-width="0.1" fill="none" />
<path d="M-244.70116373804154,12.097126321907222 L-124.59012406905894,210.95568488300214" stroke="#0d6d4d" stroke-width="0.1" fill="none" />
<path d="M-244.8087307916251,9.679118151651368 L-165.3708353719616,180.76915336522316" stroke="#0d6d4d" stroke-width="0.1" fill="none" />
<path d="M-244.89240494465463,7.260165316527148 L-199.05928511139192,142.82997238304566" stroke="#0d6d4d" stroke-width="0.1" fill="none" />
<path d="M-244.95217803068024,4.840503902066918 L-224.21067622453953,98.7652401755532" stroke="#0d6d4d" stroke-width="0.1" fill="none" />
<path d="M-244.9880442159542,2.420370062959129 L-239.74634061337846,50.464761591569136" stroke="#0d6d4d" stroke-width="0.1" fill="none" />
<path d="M-245.0,4.500576986866523e-14 L-245.0,4.500576986866523e-14" stroke="#0d6d4d" stroke-width="0.1" fill="none" />
<path d="M-244.9880442159542,-2.420370062959039 L-239.7463406133785,-50.464761591569044" stroke="#0d6d4d" stroke-width="0.1" fill="none" />
<path d="M-244.95217803068024,-4.840503902066828 L-224.21067622453955,-98.76524017555313" stroke="#0d6d4d" stroke-width="0.1" fill="none" />
<path d="M-244.89240494465463,-7.2601653165270585 L-199.05928511139197,-142.8299723830456" stroke="#0d6d4d" stroke-width="0.1" fill="none" />
<path d="M-244.8087307916251,-9.679118151651279 L-165.37083537196165,-180.76915336522313" stroke="#0d6d4d" stroke-width="0.1" fill="none" />
<path d="M-244.70116373804154,-12.097126321907352 L-124.5901240690591,-210.95568488300202" stroke="#0d6d4d" stroke-width="0.1" fill="none" />
<path d="M-244.56971428225876,-14.51395383395989 L-78.46611419639514,-232.09495669427693" stroke="#0d6d4d" stroke-width="0.1" fill="none" />
<path d="M-244.41439525351186,-16.929364809705195 L-28.97692687573477,-243.28036852331164" stroke="#0d6d4d" stroke-width="0.1" fill="none" />
<path d="M-244.23522181066426,-19.343123509289267 L21.754994354119024,-244.03221144072813" stroke="#0d6d4d" stroke-width="0.1" fill="none" />
<path d="M-244.03221144072813,-21.7549943541191 L71.55390880605908,-234.31824114774798" stroke="#0d6d4d" stroke-width="0.1" fill="none" />
<path d="M-243.80538395715772,-24.164741949851226 L118.28408966903248,-214.55506083793102" stroke="#0d6d4d" stroke-width="0.1" fill="none" />
<path d="M-243.55476149791548,-26.5721311093693 L159.94141895667778,-185.59025432959695" stroke="#0d6d4d" stroke-width="0.1" fill="none" />
<path d="M-243.28036852331167,-28.97692687573445 L194.73933814627154,-148.6660357255554" stroke="#0d6d4d" stroke-width="0.1" fill="none" />
<path d="M-242.98223181361683,-31.37889454512013 L221.18546834160716,-105.36597455774752" stroke="#0d6d4d" stroke-width="0.1" fill="none" />
<path d="M-242.66038046644832,-33.77779968971558 L238.14561394970065,-57.54708121634102" stroke="#0d6d4d" stroke-width="0.1" fill="none" />
<path d="M-242.31484589393017,-36.17340818060791 L244.89240494465463,-7.260165316527173" stroke="#0d6d4d" stroke-width="0.1" fill="none" />
<path d="M-241.94566181962756,-38.5654862106316 L241.1364915971612,43.33811740503038" stroke="#0d6d4d" stroke-width="0.1" fill="none" />
<path d="M-241.55286427525527,-40.9538003171879 L227.03895382079918,92.0777576179884" stroke="#0d6d4d" stroke-width="0.1" fill="none" />
<path d="M-241.1364915971612,-43.33811740503035 L203.20439293529947,136.86845762189483" stroke="#0d6d4d" stroke-width="0.1" fill="none" />
<path d="M-240.69658442258472,-45.71820476901446 L170.6550021204343,175.7892779758611" stroke="#0d6d4d" stroke-width="0.1" fill="none" />
<path d="M-240.23318568569056,-48.09383011680935 L130.78672760137377,207.17102085794735" stroke="#0d6d4d" stroke-width="0.1" fill="none" />
<path d="M-239.7463406133785,-50.464761591569044 L85.30940068142776,229.6678169778596" stroke="#0d6d4d" stroke-width="0.1" fill="none" />
<path d="M-239.23609672086934,-52.83076779456129 L36.17340818060798,242.31484589393017" stroke="#0d6d4d" stroke-width="0.1" fill="none" />
<path d="M-238.70250380706747,-55.191617807751705 L-14.513953833959903,244.56971428225876" stroke="#0d6d4d" stroke-width="0.1" fill="none" />
<path d="M-238.14561394970067,-57.54708121634091 L-64.57885568692157,236.33571756754787" stroke="#0d6d4d" stroke-width="0.1" fill="none" />
<path d="M-237.56548150023718,-59.89692813125287 L-111.87416316145969,217.96598729371308" stroke="#0d6d4d" stroke-width="0.1" fill="none" />
<path d="M-236.9621630785815,-62.24092921157058 L-154.37152167751927,190.24834636592033" stroke="#0d6d4d" stroke-width="0.1" fill="none" />
<path d="M-236.33571756754785,-64.57885568692166 L-190.24834636592027,154.37152167751935" stroke="#0d6d4d" stroke-width="0.1" fill="none" />
<path d="M-235.68620610711395,-66.9104793798028 L-217.9659872937131,111.87416316145965" stroke="#0d6d4d" stroke-width="0.1" fill="none" />
<path d="M-235.013692088453,-69.2355727278528 L-236.3357175675479,64.57885568692154" stroke="#0d6d4d" stroke-width="0.1" fill="none" />
<path d="M-234.31824114774804,-71.55390880605893 L-244.56971428225876,14.513953833959977" stroke="#0d6d4d" stroke-width="0.1" fill="none" />
<path d="M-233.59992115978451,-73.86526134890778 L-242.31484589393017,-36.17340818060791" stroke="#0d6d4d" stroke-width="0.1" fill="none" />
<path d="M-232.85880223132727,-76.169404772465 L-229.66781697785962,-85.30940068142769" stroke="#0d6d4d" stroke-width="0.1" fill="none" />
<path d="M-232.0949566942769,-78.46611419639525 L-207.1710208579474,-130.7867276013737" stroke="#0d6d4d" stroke-width="0.1" fill="none" />
<path d="M-231.30845909861148,-80.75516546590674 L-175.78927797586115,-170.65500212043426" stroke="#0d6d4d" stroke-width="0.1" fill="none" />
<path d="M-230.49938620510963,-83.03633517363177 L-136.8684576218949,-203.2043929352994" stroke="#0d6d4d" stroke-width="0.1" fill="none" />
<path d="M-229.66781697785962,-85.30940068142769 L-92.07775761798841,-227.03895382079918" stroke="#0d6d4d" stroke-width="0.1" fill="none" />
<path d="M-228.81383257655202,-87.57414014210832 L-43.33811740503046,-241.13649159716118" stroke="#0d6d4d" stroke-width="0.1" fill="none" />
<path d="M-227.93751634855886,-89.8303325210948 L7.260165316527137,-244.89240494465463" stroke="#0d6d4d" stroke-width="0.1" fill="none" />
<path d="M-227.0389538207992,-92.07775761798833 L57.547081216341,-238.14561394970065" stroke="#0d6d4d" stroke-width="0.1" fill="none" />
<path d="M-226.11823269139165,-94.31619608806142 L105.3659745577475,-221.18546834160716" stroke="#0d6d4d" stroke-width="0.1" fill="none" />
<path d="M-225.17544282109534,-96.54542946366554 L148.6660357255554,-194.73933814627154" stroke="#0d6d4d" stroke-width="0.1" fill="none" />
<path d="M-224.21067622453955,-98.76524017555313 L185.59025432959692,-159.9414189566778" stroke="#0d6d4d" stroke-width="0.1" fill="none" />
<path d="M-223.22402706124333,-100.97541157411197 L214.55506083793102,-118.2840896690325" stroke="#0d6d4d" stroke-width="0.1" fill="none" />
<path d="M-222.21559162642566,-103.17572795050988 L234.31824114774798,-71.55390880605908" stroke="#0d6d4d" stroke-width="0.1" fill="none" />
<path d="M-221.1854683416072,-105.36597455774742 L244.03221144072813,-21.75499435411905" stroke="#0d6d4d" stroke-width="0.1" fill="none" />
<path d="M-220.13375774500457,-107.5459376316169 L243.28036852331167,28.976926875734584" stroke="#0d6d4d" stroke-width="0.1" fill="none" />
<path d="M-219.06056248171788,-109.71540441156554 L232.0949566942769,78.46611419639522" stroke="#0d6d4d" stroke-width="0.1" fill="none" />
<path d="M-217.96598729371314,-111.87416316145958 L210.95568488300214,124.59012406905894" stroke="#0d6d4d" stroke-width="0.1" fill="none" />
<path d="M-216.85013900959873,-114.02200319025145 L180.76915336522316,165.3708353719616" stroke="#0d6d4d" stroke-width="0.1" fill="none" />
<path d="M-215.71312653420043,-116.15871487253997 L142.82997238304563,199.05928511139192" stroke="#0d6d4d" stroke-width="0.1" fill="none" />
<path d="M-214.555060837931,-118.28408966903253 L98.7652401755532,224.21067622453953" stroke="#0d6d4d" stroke-width="0.1" fill="none" />
<path d="M-213.37605494596127,-120.39792014689502 L50.464761591569115,239.7463406133785" stroke="#0d6d4d" stroke-width="0.1" fill="none" />
<path d="M-212.17622392718746,-122.5 L3.0003846579110155e-14,245.0" stroke="#0d6d4d" stroke-width="0.1" fill="none" />
<path d="M-210.9556848830022,-124.59012406905883 L-50.46476159156895,239.74634061337852" stroke="#0d6d4d" stroke-width="0.1" fill="none" />
<path d="M-209.71455693586415,-126.66808836164776 L-98.76524017555315,224.21067622453955" stroke="#0d6d4d" stroke-width="0.1" fill="none" />
<path d="M-208.45296121767333,-128.73369007211429 L-142.8299723830456,199.05928511139194" stroke="#0d6d4d" stroke-width="0.1" fill="none" />
<path d="M-207.1710208579474,-130.7867276013737 L-180.76915336522316,165.3708353719616" stroke="#0d6d4d" stroke-width="0.1" fill="none" />
<path d="M-205.86886097180587,-132.82700057658184 L-210.95568488300202,124.5901240690591" stroke="#0d6d4d" stroke-width="0.1" fill="none" />
<path d="M-204.54660864775795,-134.85430987069324 L-232.09495669427687,78.46611419639532" stroke="#0d6d4d" stroke-width="0.1" fill="none" />
<path d="M-203.20439293529947,-136.8684576218948 L-243.28036852331164,28.97692687573475" stroke="#0d6d4d" stroke-width="0.1" fill="none" />
<path d="M-201.8423448323178,-138.8692472529167 L-244.03221144072813,-21.7549943541191" stroke="#0d6d4d" stroke-width="0.1" fill="none" />
<path d="M-200.46059727230664,-140.8564834902181 L-234.31824114774804,-71.55390880605893" stroke="#0d6d4d" stroke-width="0.1" fill="none" />
<path d="M-199.05928511139197,-142.8299723830456 L-214.555060837931,-118.28408966903253" stroke="#0d6d4d" stroke-width="0.1" fill="none" />
<path d="M-197.63854511517033,-144.7895213223622 L-185.59025432959703,-159.94141895667767" stroke="#0d6d4d" stroke-width="0.1" fill="none" />
<path d="M-196.19851594536078,-146.73493905964594 L-148.66603572555536,-194.73933814627154" stroke="#0d6d4d" stroke-width="0.1" fill="none" />
<path d="M-194.73933814627162,-148.66603572555528 L-105.3659745577475,-221.18546834160716" stroke="#0d6d4d" stroke-width="0.1" fill="none" />
<path d="M-193.26115413108357,-150.58262284846003 L-57.54708121634101,-238.14561394970065" stroke="#0d6d4d" stroke-width="0.1" fill="none" />
<path d="M-191.76410816795106,-152.48451337283527 L-7.260165316527163,-244.89240494465463" stroke="#0d6d4d" stroke-width="0.1" fill="none" />
<path d="M-190.24834636592036,-154.37152167751924 L43.338117405030374,-241.1364915971612" stroke="#0d6d4d" stroke-width="0.1" fill="none" />
<path d="M-188.71401666067183,-156.24346359382744 L92.07775761798834,-227.0389538207992" stroke="#0d6d4d" stroke-width="0.1" fill="none" />
<path d="M-187.16126880007923,-158.10015642352946 L136.86845762189486,-203.20439293529947" stroke="#0d6d4d" stroke-width="0.1" fill="none" />
<path d="M-185.59025432959703,-159.94141895667767 L175.7892779758611,-170.6550021204343" stroke="#0d6d4d" stroke-width="0.1" fill="none" />
<path d="M-184.0011265774675,-161.76707148929535 L207.17102085794735,-130.78672760137377" stroke="#0d6d4d" stroke-width="0.1" fill="none" />
<path d="M-182.3940406397583,-163.57693584091314 L229.66781697785962,-85.30940068142769" stroke="#0d6d4d" stroke-width="0.1" fill="none" />
<path d="M-180.76915336522316,-165.3708353719616 L242.31484589393017,-36.173408180607915" stroke="#0d6d4d" stroke-width="0.1" fill="none" />
<path d="M-179.12662333999637,-167.1485950010082 L244.56971428225876,14.513953833959919" stroke="#0d6d4d" stroke-width="0.1" fill="none" />
<path d="M-177.46661087211206,-168.9100412218479 L236.3357175675479,64.57885568692154" stroke="#0d6d4d" stroke-width="0.1" fill="none" />
<path d="M-175.78927797586115,-170.65500212043426 L217.96598729371306,111.8741631614597" stroke="#0d6d4d" stroke-width="0.1" fill="none" />
<path d="M-174.09478835597724,-172.38330739165986 L190.2483463659204,154.37152167751918" stroke="#0d6d4d" stroke-width="0.1" fill="none" />
<path d="M-172.38330739165994,-174.09478835597716 L154.37152167751924,190.24834636592038" stroke="#0d6d4d" stroke-width="0.1" fill="none" />
<path d="M-170.65500212043432,-175.7892779758611 L111.87416316145973,217.96598729371306" stroke="#0d6d4d" stroke-width="0.1" fill="none" />
<path d="M-168.910041221848,-177.46661087211197 L64.57885568692163,236.33571756754787" stroke="#0d6d4d" stroke-width="0.1" fill="none" />
<path d="M-167.14859500100846,-179.12662333999617 L14.513953833960073,244.56971428225873" stroke="#0d6d4d" stroke-width="0.1" fill="none" />
<path d="M-165.37083537196165,-180.76915336522313 L-36.173408180607815,242.3148458939302" stroke="#0d6d4d" stroke-width="0.1" fill="none" />
<path d="M-163.57693584091336,-182.39404063975803 L-85.3094006814277,229.66781697785962" stroke="#0d6d4d" stroke-width="0.1" fill="none" />
<path d="M-161.7670714892954,-184.00112657746743 L-130.7867276013737,207.17102085794738" stroke="#0d6d4d" stroke-width="0.1" fill="none" />
<path d="M-159.9414189566779,-185.59025432959686 L-170.65500212043432,175.78927797586104" stroke="#0d6d4d" stroke-width="0.1" fill="none" />
<path d="M-158.10015642352954,-187.16126880007917 L-203.2043929352994,136.8684576218949" stroke="#0d6d4d" stroke-width="0.1" fill="none" />
<path d="M-156.24346359382753,-188.71401666067175 L-227.03895382079918,92.0777576179884" stroke="#0d6d4d" stroke-width="0.1" fill="none" />
<path d="M-154.37152167751935,-190.24834636592027 L-241.13649159716118,43.338117405030445" stroke="#0d6d4d" stroke-width="0.1" fill="none" />
<path d="M-152.48451337283532,-191.76410816795098 L-244.89240494465463,-7.2601653165270585" stroke="#0d6d4d" stroke-width="0.1" fill="none" />
<path d="M-150.5826228484601,-193.26115413108352 L-238.14561394970067,-57.54708121634091" stroke="#0d6d4d" stroke-width="0.1" fill="none" />
<path d="M-148.66603572555536,-194.73933814627154 L-221.1854683416072,-105.36597455774742" stroke="#0d6d4d" stroke-width="0.1" fill="none" />
<path d="M-146.73493905964605,-196.19851594536073 L-194.73933814627162,-148.66603572555528" stroke="#0d6d4d" stroke-width="0.1" fill="none" />
<path d="M-144.7895213223623,-197.63854511517027 L-159.9414189566779,-185.59025432959686" stroke="#0d6d4d" stroke-width="0.1" fill="none" />
<path d="M-142.82997238304566,-199.05928511139192 L-118.28408966903262,-214.55506083793094" stroke="#0d6d4d" stroke-width="0.1" fill="none" />
<path d="M-140.8564834902182,-200.4605972723066 L-71.55390880605923,-234.31824114774793" stroke="#0d6d4d" stroke-width="0.1" fill="none" />
<path d="M-138.86924725291678,-201.84234483231774 L-21.754994354118985,-244.03221144072813" stroke="#0d6d4d" stroke-width="0.1" fill="none" />
<path d="M-136.8684576218949,-203.2043929352994 L28.97692687573462,-243.28036852331164" stroke="#0d6d4d" stroke-width="0.1" fill="none" />
<path d="M-134.85430987069333,-204.5466086477579 L78.46611419639522,-232.0949566942769" stroke="#0d6d4d" stroke-width="0.1" fill="none" />
<path d="M-132.8270005765819,-205.86886097180582 L124.59012406905903,-210.95568488300208" stroke="#0d6d4d" stroke-width="0.1" fill="none" />
<path d="M-130.7867276013738,-207.17102085794733 L165.3708353719616,-180.76915336522316" stroke="#0d6d4d" stroke-width="0.1" fill="none" />
<path d="M-128.7336900721146,-208.45296121767316 L199.05928511139192,-142.82997238304566" stroke="#0d6d4d" stroke-width="0.1" fill="none" />
<path d="M-126.66808836164785,-209.71455693586407 L224.21067622453953,-98.76524017555319" stroke="#0d6d4d" stroke-width="0.1" fill="none" />
<path d="M-124.5901240690591,-210.95568488300202 L239.7463406133785,-50.4647615915691" stroke="#0d6d4d" stroke-width="0.1" fill="none" />
<path d="M-122.50000000000011,-212.1762239271874 L245.0,-1.5001923289555078e-14" stroke="#0d6d4d" stroke-width="0.1" fill="none" />
<path d="M-120.3979201468953,-213.37605494596113 L239.7463406133785,50.46476159156908" stroke="#0d6d4d" stroke-width="0.1" fill="none" />
<path d="M-118.28408966903262,-214.55506083793094 L224.21067622453953,98.7652401755532" stroke="#0d6d4d" stroke-width="0.1" fill="none" />
<path d="M-116.15871487254026,-215.71312653420026 L199.05928511139194,142.8299723830456" stroke="#0d6d4d" stroke-width="0.1" fill="none" />
<path d="M-114.02200319025134,-216.8501390095988 L165.37083537196156,180.76915336522322" stroke="#0d6d4d" stroke-width="0.1" fill="none" />
<path d="M-111.87416316145966,-217.96598729371308 L124.590124069059,210.9556848830021" stroke="#0d6d4d" stroke-width="0.1" fill="none" />
<path d="M-109.71540441156543,-219.06056248171794 L78.46611419639521,232.0949566942769" stroke="#0d6d4d" stroke-width="0.1" fill="none" />
<path d="M-107.545937631617,-220.13375774500454 L28.976926875734627,243.28036852331164" stroke="#0d6d4d" stroke-width="0.1" fill="none" />
<path d="M-105.3659745577475,-221.18546834160716 L-21.754994354119003,244.03221144072813" stroke="#0d6d4d" stroke-width="0.1" fill="none" />
<path d="M-103.17572795050997,-222.2155916264256 L-71.55390880605906,234.31824114774798" stroke="#0d6d4d" stroke-width="0.1" fill="none" />
<path d="M-100.97541157411207,-223.22402706124328 L-118.28408966903245,214.55506083793102" stroke="#0d6d4d" stroke-width="0.1" fill="none" />
<path d="M-98.76524017555322,-224.21067622453953 L-159.94141895667775,185.59025432959697" stroke="#0d6d4d" stroke-width="0.1" fill="none" />
<path d="M-96.54542946366564,-225.17544282109532 L-194.73933814627154,148.66603572555536" stroke="#0d6d4d" stroke-width="0.1" fill="none" />
<path d="M-94.31619608806152,-226.11823269139163 L-221.18546834160716,105.36597455774749" stroke="#0d6d4d" stroke-width="0.1" fill="none" />
<path d="M-92.07775761798841,-227.03895382079918 L-238.14561394970065,57.547081216341" stroke="#0d6d4d" stroke-width="0.1" fill="none" />
<path d="M-89.83033252109487,-227.93751634855886 L-244.89240494465463,7.260165316527148" stroke="#0d6d4d" stroke-width="0.1" fill="none" />
<path d="M-87.57414014210842,-228.813832576552 L-241.1364915971612,-43.33811740503035" stroke="#0d6d4d" stroke-width="0.1" fill="none" />
<path d="M-85.30940068142779,-229.6678169778596 L-227.0389538207992,-92.07775761798833" stroke="#0d6d4d" stroke-width="0.1" fill="none" />
<path d="M-83.03633517363167,-230.4993862051097 L-203.20439293529947,-136.8684576218948" stroke="#0d6d4d" stroke-width="0.1" fill="none" />
<path d="M-80.75516546590704,-231.3084590986114 L-170.65500212043432,-175.7892779758611" stroke="#0d6d4d" stroke-width="0.1" fill="none" />
<path d="M-78.46611419639514,-232.09495669427693 L-130.7867276013738,-207.17102085794733" stroke="#0d6d4d" stroke-width="0.1" fill="none" />
<path d="M-76.1694047724653,-232.8588022313272 L-85.30940068142779,-229.6678169778596" stroke="#0d6d4d" stroke-width="0.1" fill="none" />
<path d="M-73.86526134890767,-233.59992115978457 L-36.173408180607794,-242.3148458939302" stroke="#0d6d4d" stroke-width="0.1" fill="none" />
<path d="M-71.55390880605923,-234.31824114774793 L14.51395383396,-244.56971428225876" stroke="#0d6d4d" stroke-width="0.1" fill="none" />
<path d="M-69.23557272785267,-235.01369208845304 L64.57885568692157,-236.33571756754787" stroke="#0d6d4d" stroke-width="0.1" fill="none" />
<path d="M-66.91047937980309,-235.68620610711383 L111.8741631614597,-217.96598729371306" stroke="#0d6d4d" stroke-width="0.1" fill="none" />
<path d="M-64.57885568692156,-236.3357175675479 L154.3715216775192,-190.24834636592038" stroke="#0d6d4d" stroke-width="0.1" fill="none" />
<path d="M-62.24092921157067,-236.96216307858148 L190.24834636592038,-154.37152167751924" stroke="#0d6d4d" stroke-width="0.1" fill="none" />
<path d="M-59.89692813125276,-237.5654815002372 L217.96598729371306,-111.87416316145973" stroke="#0d6d4d" stroke-width="0.1" fill="none" />
<path d="M-57.54708121634101,-238.14561394970065 L236.3357175675479,-64.57885568692156" stroke="#0d6d4d" stroke-width="0.1" fill="none" />
<path d="M-55.19161780775181,-238.70250380706747 L244.56971428225876,-14.513953833960004" stroke="#0d6d4d" stroke-width="0.1" fill="none" />
<path d="M-52.8307677945614,-239.2360967208693 L242.3148458939302,36.173408180607886" stroke="#0d6d4d" stroke-width="0.1" fill="none" />
<path d="M-50.46476159156915,-239.74634061337846 L229.66781697785962,85.30940068142768" stroke="#0d6d4d" stroke-width="0.1" fill="none" />
<path d="M-48.09383011680946,-240.23318568569053 L207.17102085794738,130.7867276013737" stroke="#0d6d4d" stroke-width="0.1" fill="none" />
<path d="M-45.71820476901457,-240.69658442258472 L175.78927797586113,170.65500212043426" stroke="#0d6d4d" stroke-width="0.1" fill="none" />
<path d="M-43.33811740503046,-241.13649159716118 L136.86845762189486,203.20439293529944" stroke="#0d6d4d" stroke-width="0.1" fill="none" />
<path d="M-40.95380031718779,-241.5528642752553 L92.07775761798838,227.03895382079918" stroke="#0d6d4d" stroke-width="0.1" fill="none" />
<path d="M-38.56548621063171,-241.94566181962753 L43.338117405030424,241.1364915971612" stroke="#0d6d4d" stroke-width="0.1" fill="none" />
<path d="M-36.173408180607794,-242.3148458939302 L-7.260165316527074,244.89240494465463" stroke="#0d6d4d" stroke-width="0.1" fill="none" />
<path d="M-33.77779968971569,-242.6603804664483 L-57.54708121634093,238.14561394970067" stroke="#0d6d4d" stroke-width="0.1" fill="none" />
<path d="M-31.378894545120023,-242.98223181361683 L-105.36597455774752,221.18546834160716" stroke="#0d6d4d" stroke-width="0.1" fill="none" />
<path d="M-28.97692687573477,-243.28036852331164 L-148.6660357255554,194.73933814627154" stroke="#0d6d4d" stroke-width="0.1" fill="none" />
<path d="M-26.572131109369188,-243.55476149791548 L-185.59025432959686,159.9414189566779" stroke="#0d6d4d" stroke-width="0.1" fill="none" />
<path d="M-24.16474194985155,-243.8053839571577 L-214.55506083793094,118.28408966903262" stroke="#0d6d4d" stroke-width="0.1" fill="none" />
<path d="M-21.754994354118985,-244.03221144072813 L-234.31824114774793,71.55390880605921" stroke="#0d6d4d" stroke-width="0.1" fill="none" />
<path d="M-19.34312350928959,-244.23522181066426 L-244.03221144072813,21.75499435411897" stroke="#0d6d4d" stroke-width="0.1" fill="none" />
<path d="M-16.92936480970508,-244.41439525351186 L-243.28036852331167,-28.97692687573445" stroke="#0d6d4d" stroke-width="0.1" fill="none" />
<path d="M-14.513953833959993,-244.56971428225876 L-232.0949566942769,-78.46611419639525" stroke="#0d6d4d" stroke-width="0.1" fill="none" />
<path d="M-12.097126321907238,-244.70116373804154 L-210.9556848830022,-124.59012406905883" stroke="#0d6d4d" stroke-width="0.1" fill="none" />
<path d="M-9.679118151651384,-244.8087307916251 L-180.76915336522316,-165.3708353719616" stroke="#0d6d4d" stroke-width="0.1" fill="none" />
<path d="M-7.260165316527163,-244.89240494465463 L-142.82997238304566,-199.05928511139192" stroke="#0d6d4d" stroke-width="0.1" fill="none" />
<path d="M-4.840503902066934,-244.95217803068024 L-98.76524017555322,-224.21067622453953" stroke="#0d6d4d" stroke-width="0.1" fill="none" />
<path d="M-2.4203700629591443,-244.9880442159542 L-50.46476159156915,-239.74634061337846" stroke="#0d6d4d" stroke-width="0.1" fill="none" />
</svg>