<?xml version="1.0" encoding="UTF-8"?>
<svg xmlns="http://www.w3.org/2000/svg" xmlns:xlink="http://www.w3.org/1999/xlink"
     width="500.0" height="500" viewBox="-250.0 -250.0 500 500">
<defs>
</defs>
<circle cx="0" cy="0" r="245.0" fill="white" stroke-width="2" stroke="black" />
<path d="M0.0,-245.0 L0.0,-245.0" stroke="#0d6d4d" stroke-width="0.1" fill="none" />
<path d="M2.451201780277706,-244.98773767238305 L51.098198050171796,-239.61213273961195" stroke="#0d6d4d" stroke-width="0.1" fill="none" />
<path d="M4.902158193704105,-244.9509519169989 L99.94896501185914,-223.68550331449322" stroke="#0d6d4d" stroke-width="0.1" fill="none" />
<path d="M7.352623897989268,-244.889646416125 L144.4037176364276,-197.920606134831" stroke="#0d6d4d" stroke-width="0.1" fill="none" />
<path d="M9.802353599963563,-244.80382730648083 L182.5072207709419,-163.4506481065972" stroke="#0d6d4d" stroke-width="0.1" fill="none" />
<path d="M12.251102080131652,-244.6935031786136 L212.58358366401814,-121.79170725695327" stroke="#0d6d4d" stroke-width="0.1" fill="none" />
<path d="M14.698624217219123,-244.5586850760385 L233.30996998142638,-74.77605169615423" stroke="#0d6d4d" stroke-width="0.1" fill="none" />
<path d="M17.144675012709286,-244.39938649413298 L243.77477957405873,-24.47155172070379" stroke="#0d6d4d" stroke-width="0.1" fill="none" />
<path d="M19.589009615367676,-244.21562337878595 L243.51774301342263,26.90927047782315" stroke="#0d6d4d" stroke-width="0.1" fill="none" />
<path d="M22.031383345751816,-244.0074141248018 L232.55016543314895,77.10655326893466" stroke="#0d6d4d" stroke-width="0.1" fill="none" />
<path d="M24.47155172070379,-243.77477957405873 L211.35442929993576,123.91249015050283" stroke="#0d6d4d" stroke-width="0.1" fill="none" />
<path d="M26.909270477823146,-243.51774301342263 L180.8627779833501,165.26843479668287" stroke="#0d6d4d" stroke-width="0.1" fill="none" />
<path d="M29.34429559991775,-243.23633017241616 L142.41631327803532,199.355445654972" stroke="#0d6d4d" stroke-width="0.1" fill="none" />
<path d="M31.776383339430026,-242.93056922064295 L97.70601027348869,224.6742877065307" stroke="#0d6d4d" stroke-width="0.1" fill="none" />
<path d="M34.205290242836256,-242.60049076496801 L48.69834389020199,240.11137270515036" stroke="#0d6d4d" stroke-width="0.1" fill="none" />
<path d="M36.63077317501642,-242.24612784645393 L-2.4512017802777564,244.98773767238305" stroke="#0d6d4d" stroke-width="0.1" fill="none" />
<path d="M39.05258934359224,-241.86751593705333 L-53.49293724814056,239.0889074477662" stroke="#0d6d4d" stroke-width="0.1" fill="none" />
<path d="M41.470496323230726,-241.46469293605827 L-102.18191479550337,222.67432786184511" stroke="#0d6d4d" stroke-width="0.1" fill="none" />
<path d="M43.88425207991123,-241.03769916630637 L-146.3766670911891,196.46595463661177" stroke="#0d6d4d" stroke-width="0.1" fill="none" />
<path d="M46.293614995153106,-240.5865773701445 L-184.1333944700965,161.6164999030725" stroke="#0d6d4d" stroke-width="0.1" fill="none" />
<path d="M48.69834389020199,-240.11137270515036 L-213.7914582766811,119.65873293633912" stroke="#0d6d4d" stroke-width="0.1" fill="none" />
<path d="M51.098198050171796,-239.61213273961195 L-234.0464200538816,72.43806499322035" stroke="#0d6d4d" stroke-width="0.1" fill="none" />
<path d="M53.49293724814055,-239.0889074477662 L-244.0074141248018,22.031383345751717" stroke="#0d6d4d" stroke-width="0.1" fill="none" />
<path d="M55.88232176919723,-238.54174920479622 L-243.2363301724162,-29.344295599917583" stroke="#0d6d4d" stroke-width="0.1" fill="none" />
<path d="M58.266112434437325,-237.97071278158896 L-231.767082465966,-79.42933642687755" stroke="#0d6d4d" stroke-width="0.1" fill="none" />
<path d="M60.64407062490486,-237.37585533925213 L-210.10411822356463,-126.02086932527634" stroke="#0d6d4d" stroke-width="0.1" fill="none" />
<path d="M63.0159583054783,-236.75723642339258 L-179.20023071708601,-167.06967801173" stroke="#0d6d4d" stroke-width="0.1" fill="none" />
<path d="M65.38153804869792,-236.11491795815584 L-140.41465295644795,-200.77032956868973" stroke="#0d6d4d" stroke-width="0.1" fill="none" />
<path d="M67.74057305853263,-235.4489642400272 L-95.45327510158263,-225.64058206001326" stroke="#0d6d4d" stroke-width="0.1" fill="none" />
<path d="M70.09282719408321,-234.7594419313958 L-46.29361499515318,-240.5865773701445" stroke="#0d6d4d" stroke-width="0.1" fill="none" />
<path d="M72.43806499322028,-234.0464200538816 L4.902158193704105,-244.9509519169989" stroke="#0d6d4d" stroke-width="0.1" fill="none" />
<path d="M74.77605169615423,-233.30996998142638 L55.88232176919723,-238.54174920479622" stroke="#0d6d4d" stroke-width="0.1" fill="none" />
<path d="M77.10655326893466,-232.55016543314895 L104.4046361047334,-221.64086256788977" stroke="#0d6d4d" stroke-width="0.1" fill="none" />
<path d="M79.42933642687755,-231.767082465966 L148.33496414882939,-194.99163677185106" stroke="#0d6d4d" stroke-width="0.1" fill="none" />
<path d="M81.74416865791707,-230.9607994669788 L185.74113629979632,-159.76617378550597" stroke="#0d6d4d" stroke-width="0.1" fill="none" />
<path d="M84.05081824588018,-230.13139714562638 L214.97793222891062,-117.51378070074131" stroke="#0d6d4d" stroke-width="0.1" fill="none" />
<path d="M86.3490542936816,-229.27895852560658 L234.7594419313958,-70.09282719408321" stroke="#0d6d4d" stroke-width="0.1" fill="none" />
<path d="M88.6386467464368,-228.40356893656542 L244.21562337878595,-19.58900961536768" stroke="#0d6d4d" stroke-width="0.1" fill="none" />
<path d="M90.91936641449051,-227.5053160055554 L242.93056922064295,31.77638333943002" stroke="#0d6d4d" stroke-width="0.1" fill="none" />
<path d="M93.1909849963589,-226.58428964826402 L230.9607994669788,81.74416865791707" stroke="#0d6d4d" stroke-width="0.1" fill="none" />
<path d="M95.45327510158263,-225.64058206001326 L208.8327755918357,128.1166337311826" stroke="#0d6d4d" stroke-width="0.1" fill="none" />
<path d="M97.70601027348872,-224.67428770653066 L177.51974539418458,168.85419744615137" stroke="#0d6d4d" stroke-width="0.1" fill="none" />
<path d="M99.94896501185914,-223.68550331449322 L138.39893703913157,202.16511624520808" stroke="#0d6d4d" stroke-width="0.1" fill="none" />
<path d="M102.18191479550342,-222.6743278618451 L93.19098499635892,226.58428964826402" stroke="#0d6d4d" stroke-width="0.1" fill="none" />
<path d="M104.4046361047334,-221.64086256788977 L43.88425207991118,241.03769916630637" stroke="#0d6d4d" stroke-width="0.1" fill="none" />
<path d="M106.61690644373769,-220.585210883158 L-7.352623897989262,244.889646416125" stroke="#0d6d4d" stroke-width="0.1" fill="none" />
<path d="M108.81850436285364,-219.50747847905228 L-58.26611243443738,237.97071278158896" stroke="#0d6d4d" stroke-width="0.1" fill="none" />
<path d="M111.00920948073463,-218.40777323726914 L-106.61690644373759,220.58521088315806" stroke="#0d6d4d" stroke-width="0.1" fill="none" />
<path d="M113.18880250641024,-217.28620523900008 L-150.27841278257222,193.4978001207012" stroke="#0d6d4d" stroke-width="0.1" fill="none" />
<path d="M115.35706526123766,-216.1428867539123 L-187.33028532406541,157.8998549727144" stroke="#0d6d4d" stroke-width="0.1" fill="none" />
<path d="M117.51378070074128,-214.97793222891062 L-216.14288675391228,115.35706526123772" stroke="#0d6d4d" stroke-width="0.1" fill="none" />
<path d="M119.65873293633909,-213.7914582766811 L-235.44896424002718,67.74057305853273" stroke="#0d6d4d" stroke-width="0.1" fill="none" />
<path d="M121.79170725695327,-212.58358366401814 L-244.39938649413298,17.144675012709243" stroke="#0d6d4d" stroke-width="0.1" fill="none" />
<path d="M123.91249015050283,-211.35442929993576 L-242.60049076496801,-34.20529024283625" stroke="#0d6d4d" stroke-width="0.1" fill="none" />
<path d="M126.02086932527635,-210.10411822356463 L-230.1313971456264,-84.05081824588012" stroke="#0d6d4d" stroke-width="0.1" fill="none" />
<path d="M128.11663373118267,-208.83277559183566 L-207.54052866695193,-130.19957358087663" stroke="#0d6d4d" stroke-width="0.1" fill="none" />
<path d="M130.1995735808767,-207.54052866695187 L-175.8214902322912,-170.62181446842115" stroke="#0d6d4d" stroke-width="0.1" fill="none" />
<path d="M132.26948037075985,-206.2275068036492 L-136.369367300527,-203.53966606549685" stroke="#0d6d4d" stroke-width="0.1" fill="none" />
<path d="M134.3261469018509,-204.8938414362481 L-90.91936641449057,-227.50531600555536" stroke="#0d6d4d" stroke-width="0.1" fill="none" />
<path d="M136.369367300527,-203.53966606549685 L-41.470496323230854,-241.46469293605824" stroke="#0d6d4d" stroke-width="0.1" fill="none" />
<path d="M138.3989370391315,-202.16511624520814 L9.802353599963563,-244.80382730648083" stroke="#0d6d4d" stroke-width="0.1" fill="none" />
<path d="M140.4146529564478,-200.7703295686898 L60.64407062490486,-237.37585533925213" stroke="#0d6d4d" stroke-width="0.1" fill="none" />
<path d="M142.41631327803532,-199.355445654972 L108.81850436285364,-219.50747847905228" stroke="#0d6d4d" stroke-width="0.1" fill="none" />
<path d="M144.4037176364276,-197.920606134831 L152.20681845197782,-191.9845942171576" stroke="#0d6d4d" stroke-width="0.1" fill="none" />
<path d="M146.3766670911891,-196.46595463661177 L188.90068246807962,-156.01773028439348" stroke="#0d6d4d" stroke-width="0.1" fill="none" />
<path d="M148.33496414882939,-194.99163677185106 L217.28620523900005,-113.18880250641025" stroke="#0d6d4d" stroke-width="0.1" fill="none" />
<path d="M150.2784127825722,-193.4978001207012 L236.11491795815584,-65.38153804869793" stroke="#0d6d4d" stroke-width="0.1" fill="none" />
<path d="M152.20681845197782,-191.9845942171576 L244.5586850760385,-14.69862421721913" stroke="#0d6d4d" stroke-width="0.1" fill="none" />
<path d="M154.11998812241697,-190.45217053408987 L242.24612784645393,36.63077317501642" stroke="#0d6d4d" stroke-width="0.1" fill="none" />
<path d="M156.01773028439345,-188.90068246807965 L229.27895852560658,86.3490542936816" stroke="#0d6d4d" stroke-width="0.1" fill="none" />
<path d="M157.89985497271437,-187.33028532406541 L206.2275068036492,132.26948037075985" stroke="#0d6d4d" stroke-width="0.1" fill="none" />
<path d="M159.76617378550594,-185.74113629979632 L174.1056352278238,172.37235213895516" stroke="#0d6d4d" stroke-width="0.1" fill="none" />
<path d="M161.61649990307245,-184.13339447009656 L134.3261469018509,204.8938414362481" stroke="#0d6d4d" stroke-width="0.1" fill="none" />
<path d="M163.45064810659719,-182.50722077094193 L88.63864674643685,228.4035689365654" stroke="#0d6d4d" stroke-width="0.1" fill="none" />
<path d="M165.26843479668284,-180.8627779833501 L39.052589343592246,241.86751593705333" stroke="#0d6d4d" stroke-width="0.1" fill="none" />
<path d="M167.0696780117299,-179.2002307170861 L-12.251102080131588,244.6935031786136" stroke="#0d6d4d" stroke-width="0.1" fill="none" />
<path d="M168.85419744615137,-177.51974539418458 L-63.015958305478286,236.75723642339258" stroke="#0d6d4d" stroke-width="0.1" fill="none" />
<path d="M170.62181446842112,-175.82149023229124 L-111.00920948073457,218.40777323726917" stroke="#0d6d4d" stroke-width="0.1" fill="none" />
<path d="M172.3723521389552,-174.10563522782374 L-154.11998812241697,190.45217053408987" stroke="#0d6d4d" stroke-width="0.1" fill="none" />
<path d="M174.10563522782374,-172.37235213895522 L-190.45217053408982,154.11998812241706" stroke="#0d6d4d" stroke-width="0.1" fill="none" />
<path d="M175.82149023229124,-170.62181446842112 L-218.40777323726908,111.00920948073471" stroke="#0d6d4d" stroke-width="0.1" fill="none" />
<path d="M177.51974539418458,-168.8541974461514 L-236.75723642339256,63.01595830547846" stroke="#0d6d4d" stroke-width="0.1" fill="none" />
<path d="M179.20023071708607,-167.06967801172996 L-244.6935031786136,12.251102080131663" stroke="#0d6d4d" stroke-width="0.1" fill="none" />
<path d="M180.8627779833501,-165.26843479668284 L-241.86751593705333,-39.052589343592174" stroke="#0d6d4d" stroke-width="0.1" fill="none" />
<path d="M182.5072207709419,-163.4506481065972 L-228.40356893656545,-88.63864674643668" stroke="#0d6d4d" stroke-width="0.1" fill="none" />
<path d="M184.13339447009653,-161.61649990307248 L-204.8938414362482,-134.32614690185073" stroke="#0d6d4d" stroke-width="0.1" fill="none" />
<path d="M185.74113629979632,-159.76617378550597 L-172.37235213895522,-174.10563522782374" stroke="#0d6d4d" stroke-width="0.1" fill="none" />
<path d="M187.3302853240654,-157.89985497271442 L-132.26948037075994,-206.22750680364916" stroke="#0d6d4d" stroke-width="0.1" fill="none" />
<path d="M188.90068246807962,-156.01773028439348 L-86.34905429368152,-229.2789585256066" stroke="#0d6d4d" stroke-width="0.1" fill="none" />
<path d="M190.45217053408984,-154.119988122417 L-36.63077317501661,-242.2461278464539" stroke="#0d6d4d" stroke-width="0.1" fill="none" />
<path d="M191.98459421715756,-152.20681845197785 L14.698624217219123,-244.5586850760385" stroke="#0d6d4d" stroke-width="0.1" fill="none" />
<path d="M193.4978001207012,-150.27841278257222 L65.38153804869792,-236.11491795815584" stroke="#0d6d4d" stroke-width="0.1" fill="none" />
<path d="M194.99163677185103,-148.3349641488294 L113.18880250641024,-217.28620523900008" stroke="#0d6d4d" stroke-width="0.1" fill="none" />
<path d="M196.46595463661174,-146.37666709118915 L156.01773028439345,-188.90068246807965" stroke="#0d6d4d" stroke-width="0.1" fill="none" />
<path d="M197.920606134831,-144.4037176364276 L191.98459421715756,-152.20681845197785" stroke="#0d6d4d" stroke-width="0.1" fill="none" />
<path d="M199.355445654972,-142.41631327803532 L219.50747847905228,-108.81850436285364" stroke="#0d6d4d" stroke-width="0.1" fill="none" />
<path d="M200.7703295686898,-140.41465295644784 L237.37585533925213,-60.64407062490488" stroke="#0d6d4d" stroke-width="0.1" fill="none" />
<path d="M202.1651162452081,-138.39893703913154 L244.80382730648083,-9.802353599963574" stroke="#0d6d4d" stroke-width="0.1" fill="none" />
<path d="M203.53966606549682,-136.369367300527 L241.46469293605827,41.47049632323067" stroke="#0d6d4d" stroke-width="0.1" fill="none" />
<path d="M204.8938414362481,-134.3261469018509 L227.50531600555541,90.91936641449045" stroke="#0d6d4d" stroke-width="0.1" fill="none" />
<path d="M206.22750680364916,-132.2694803707599 L203.5396660654969,136.3693673005269" stroke="#0d6d4d" stroke-width="0.1" fill="none" />
<path d="M207.54052866695184,-130.19957358087672 L170.62181446842112,175.82149023229124" stroke="#0d6d4d" stroke-width="0.1" fill="none" />
<path d="M208.83277559183566,-128.1166337311827 L130.19957358087677,207.54052866695181" stroke="#0d6d4d" stroke-width="0.1" fill="none" />
<path d="M210.1041182235646,-126.02086932527638 L84.0508182458802,230.13139714562638" stroke="#0d6d4d" stroke-width="0.1" fill="none" />
<path d="M211.35442929993576,-123.91249015050283 L34.20529024283631,242.600490764968" stroke="#0d6d4d" stroke-width="0.1" fill="none" />
<path d="M212.58358366401814,-121.79170725695327 L-17.144675012709275,244.39938649413298" stroke="#0d6d4d" stroke-width="0.1" fill="none" />
<path d="M213.79145827668108,-119.65873293633915 L-67.74057305853258,235.4489642400272" stroke="#0d6d4d" stroke-width="0.1" fill="none" />
<path d="M214.97793222891062,-117.51378070074131 L-115.35706526123776,216.14288675391225" stroke="#0d6d4d" stroke-width="0.1" fill="none" />
<path d="M216.14288675391228,-115.3570652612377 L-157.89985497271434,187.33028532406547" stroke="#0d6d4d" stroke-width="0.1" fill="none" />
<path d="M217.28620523900005,-113.18880250641025 L-193.49780012070116,150.27841278257227" stroke="#0d6d4d" stroke-width="0.1" fill="none" />
<path d="M218.40777323726917,-111.0092094807346 L-220.58521088315803,106.61690644373765" stroke="#0d6d4d" stroke-width="0.1" fill="none" />
<path d="M219.50747847905228,-108.81850436285364 L-237.9707127815889,58.26611243443756" stroke="#0d6d4d" stroke-width="0.1" fill="none" />
<path d="M220.58521088315797,-106.61690644373773 L-244.889646416125,7.3526238979893375" stroke="#0d6d4d" stroke-width="0.1" fill="none" />
<path d="M221.64086256788974,-104.40463610473341 L-241.0376991663064,-43.88425207991111" stroke="#0d6d4d" stroke-width="0.1" fill="none" />
<path d="M222.6743278618451,-102.18191479550346 L-226.584289648264,-93.19098499635896" stroke="#0d6d4d" stroke-width="0.1" fill="none" />
<path d="M223.68550331449322,-99.94896501185916 L-202.16511624520814,-138.3989370391315" stroke="#0d6d4d" stroke-width="0.1" fill="none" />
<path d="M224.67428770653066,-97.70601027348872 L-168.85419744615143,-177.51974539418455" stroke="#0d6d4d" stroke-width="0.1" fill="none" />
<path d="M225.64058206001326,-95.45327510158265 L-128.11663373118276,-208.8327755918356" stroke="#0d6d4d" stroke-width="0.1" fill="none" />
<path d="M226.58428964826402,-93.1909849963589 L-81.74416865791703,-230.96079946697884" stroke="#0d6d4d" stroke-width="0.1" fill="none" />
<path d="M227.50531600555536,-90.91936641449054 L-31.77638333943004,-242.93056922064295" stroke="#0d6d4d" stroke-width="0.1" fill="none" />
<path d="M228.4035689365654,-88.63864674643685 L19.589009615367676,-244.21562337878595" stroke="#0d6d4d" stroke-width="0.1" fill="none" />
<path d="M229.27895852560658,-86.34905429368163 L70.09282719408321,-234.7594419313958" stroke="#0d6d4d" stroke-width="0.1" fill="none" />
<path d="M230.13139714562638,-84.05081824588018 L117.51378070074128,-214.97793222891062" stroke="#0d6d4d" stroke-width="0.1" fill="none" />
<path d="M230.9607994669788,-81.7441686579171 L159.76617378550594,-185.74113629979632" stroke="#0d6d4d" stroke-width="0.1" fill="none" />
<path d="M231.767082465966,-79.42933642687755 L194.99163677185103,-148.3349641488294" stroke="#0d6d4d" stroke-width="0.1" fill="none" />
<path d="M232.55016543314892,-77.10655326893469 L221.64086256788974,-104.40463610473341" stroke="#0d6d4d" stroke-width="0.1" fill="none" />
<path d="M233.30996998142638,-74.77605169615423 L238.54174920479622,-55.88232176919725" stroke="#0d6d4d" stroke-width="0.1" fill="none" />
<path d="M234.0464200538816,-72.43806499322032 L244.9509519169989,-4.902158193704118" stroke="#0d6d4d" stroke-width="0.1" fill="none" />
<path d="M234.7594419313958,-70.09282719408321 L240.58657737014454,46.29361499515306" stroke="#0d6d4d" stroke-width="0.1" fill="none" />
<path d="M235.44896424002718,-67.74057305853266 L225.6405820600133,95.45327510158258" stroke="#0d6d4d" stroke-width="0.1" fill="none" />
<path d="M236.11491795815584,-65.38153804869793 L200.77032956868982,140.41465295644778" stroke="#0d6d4d" stroke-width="0.1" fill="none" />
<path d="M236.7572364233926,-63.01595830547827 L167.06967801172996,179.20023071708604" stroke="#0d6d4d" stroke-width="0.1" fill="none" />
<path d="M237.37585533925213,-60.64407062490488 L126.02086932527638,210.1041182235646" stroke="#0d6d4d" stroke-width="0.1" fill="none" />
<path d="M237.97071278158896,-58.26611243443731 L79.42933642687763,231.767082465966" stroke="#0d6d4d" stroke-width="0.1" fill="none" />
<path d="M238.54174920479622,-55.88232176919725 L29.344295599917768,243.23633017241616" stroke="#0d6d4d" stroke-width="0.1" fill="none" />
<path d="M239.08890744776616,-53.4929372481406 L-22.03138334575175,244.0074141248018" stroke="#0d6d4d" stroke-width="0.1" fill="none" />
<path d="M239.61213273961195,-51.09819805017181 L-72.43806499322028,234.0464200538816" stroke="#0d6d4d" stroke-width="0.1" fill="none" />
<path d="M240.11137270515036,-48.698343890201976 L-119.65873293633915,213.79145827668108" stroke="#0d6d4d" stroke-width="0.1" fill="none" />
<path d="M240.5865773701445,-46.29361499515313 L-161.61649990307245,184.13339447009656" stroke="#0d6d4d" stroke-width="0.1" fill="none" />
<path d="M241.03769916630637,-43.88425207991122 L-196.4659546366118,146.3766670911891" stroke="#0d6d4d" stroke-width="0.1" fill="none" />
<path d="M241.46469293605827,-41.47049632323075 L-222.6743278618451,102.18191479550343" stroke="#0d6d4d" stroke-width="0.1" fill="none" />
<path d="M241.86751593705333,-39.05258934359229 L-239.08890744776616,53.492937248140635" stroke="#0d6d4d" stroke-width="0.1" fill="none" />
<path d="M242.2461278464539,-36.63077317501645 L-244.98773767238305,2.4512017802778314" stroke="#0d6d4d" stroke-width="0.1" fill="none" />
<path d="M242.60049076496801,-34.205290242836256 L-240.11137270515036,-48.698343890202025" stroke="#0d6d4d" stroke-width="0.1" fill="none" />
<path d="M242.93056922064295,-31.776383339430048 L-224.67428770653066,-97.70601027348872" stroke="#0d6d4d" stroke-width="0.1" fill="none" />
<path d="M243.23633017241616,-29.34429559991775 L-199.35544565497204,-142.41631327803523" stroke="#0d6d4d" stroke-width="0.1" fill="none" />
<path d="M243.51774301342263,-26.909270477823178 L-165.26843479668293,-180.86277798335004" stroke="#0d6d4d" stroke-width="0.1" fill="none" />
<path d="M243.77477957405873,-24.47155172070379 L-123.91249015050299,-211.35442929993567" stroke="#0d6d4d" stroke-width="0.1" fill="none" />
<path d="M244.0074141248018,-22.031383345751795 L-77.10655326893468,-232.55016543314895" stroke="#0d6d4d" stroke-width="0.1" fill="none" />
<path d="M244.21562337878595,-19.58900961536768 L-26.909270477823224,-243.51774301342263" stroke="#0d6d4d" stroke-width="0.1" fill="none" />
<path d="M244.39938649413298,-17.14467501270932 L24.47155172070379,-243.77477957405873" stroke="#0d6d4d" stroke-width="0.1" fill="none" />
<path d="M244.5586850760385,-14.69862421721913 L74.77605169615423,-233.30996998142638" stroke="#0d6d4d" stroke-width="0.1" fill="none" />
<path d="M244.6935031786136,-12.251102080131687 L121.79170725695327,-212.58358366401814" stroke="#0d6d4d" stroke-width="0.1" fill="none" />
<path d="M244.80382730648083,-9.802353599963574 L163.45064810659719,-182.50722077094193" stroke="#0d6d4d" stroke-width="0.1" fill="none" />
<path d="M244.889646416125,-7.352623897989253 L197.920606134831,-144.4037176364276" stroke="#0d6d4d" stroke-width="0.1" fill="none" />
<path d="M244.9509519169989,-4.902158193704118 L223.68550331449322,-99.94896501185916" stroke="#0d6d4d" stroke-width="0.1" fill="none" />
<path d="M244.98773767238305,-2.451201780277747 L239.61213273961195,-51.09819805017181" stroke="#0d6d4d" stroke-width="0.1" fill="none" />
<path d="M245.0,-1.5001923289555078e-14 L245.0,-1.5001923289555078e-14" stroke="#0d6d4d" stroke-width="0.1" fill="none" />
<path d="M244.98773767238305,2.4512017802777173 L239.61213273961195,51.09819805017178" stroke="#0d6d4d" stroke-width="0.1" fill="none" />
<path d="M244.9509519169989,4.9021581937040875 L223.68550331449322,99.94896501185913" stroke="#0d6d4d" stroke-width="0.1" fill="none" />
<path d="M244.889646416125,7.352623897989277 L197.92060613483096,144.40371763642761" stroke="#0d6d4d" stroke-width="0.1" fill="none" />
<path d="M244.80382730648083,9.802353599963542 L163.4506481065972,182.5072207709419" stroke="#0d6d4d" stroke-width="0.1" fill="none" />
<path d="M244.6935031786136,12.251102080131602 L121.79170725695323,212.58358366401816" stroke="#0d6d4d" stroke-width="0.1" fill="none" />
<path d="M244.5586850760385,14.6986242172191 L74.77605169615424,233.30996998142638" stroke="#0d6d4d" stroke-width="0.1" fill="none" />
<path d="M244.39938649413298,17.14467501270924 L24.47155172070386,243.7747795740587" stroke="#0d6d4d" stroke-width="0.1" fill="none" />
<path d="M244.21562337878598,19.589009615367598 L-26.909270477823025,243.51774301342266" stroke="#0d6d4d" stroke-width="0.1" fill="none" />
<path d="M244.0074141248018,22.03138334575182 L-77.10655326893459,232.55016543314898" stroke="#0d6d4d" stroke-width="0.1" fill="none" />
<path d="M243.7747795740587,24.47155172070382 L-123.91249015050283,211.35442929993576" stroke="#0d6d4d" stroke-width="0.1" fill="none" />
<path d="M243.51774301342263,26.90927047782315 L-165.26843479668278,180.86277798335016" stroke="#0d6d4d" stroke-width="0.1" fill="none" />
<path d="M243.23633017241616,29.34429559991778 L-199.355445654972,142.41631327803535" stroke="#0d6d4d" stroke-width="0.1" fill="none" />
<path d="M242.93056922064295,31.77638333943002 L-224.67428770653063,97.70601027348879" stroke="#0d6d4d" stroke-width="0.1" fill="none" />
<path d="M242.60049076496801,34.20529024283623 L-240.11137270515036,48.698343890201905" stroke="#0d6d4d" stroke-width="0.1" fill="none" />
<path d="M242.24612784645393,36.63077317501642 L-244.98773767238305,-2.4512017802777413" stroke="#0d6d4d" stroke-width="0.1" fill="none" />
<path d="M241.86751593705333,39.05258934359221 L-239.0889074477662,-53.492937248140535" stroke="#0d6d4d" stroke-width="0.1" fill="none" />
<path d="M241.46469293605827,41.47049632323067 L-222.67432786184511,-102.18191479550336" stroke="#0d6d4d" stroke-width="0.1" fill="none" />
<path d="M241.03769916630637,43.88425207991119 L-196.4659546366117,-146.37666709118918" stroke="#0d6d4d" stroke-width="0.1" fill="none" />
<path d="M240.58657737014454,46.29361499515306 L-161.61649990307242,-184.13339447009656" stroke="#0d6d4d" stroke-width="0.1" fill="none" />
<path d="M240.11137270515036,48.698343890202004 L-119.65873293633912,-213.7914582766811" stroke="#0d6d4d" stroke-width="0.1" fill="none" />
<path d="M239.61213273961195,51.09819805017178 L-72.43806499322035,-234.0464200538816" stroke="#0d6d4d" stroke-width="0.1" fill="none" />
<path d="M239.0889074477662,53.49293724814057 L-22.031383345751735,-244.0074141248018" stroke="#0d6d4d" stroke-width="0.1" fill="none" />
<path d="M238.54174920479622,55.88232176919722 L29.34429559991775,-243.23633017241616" stroke="#0d6d4d" stroke-width="0.1" fill="none" />
<path d="M237.97071278158896,58.26611243443734 L79.42933642687755,-231.767082465966" stroke="#0d6d4d" stroke-width="0.1" fill="none" />
<path d="M237.37585533925213,60.64407062490485 L126.02086932527635,-210.10411822356463" stroke="#0d6d4d" stroke-width="0.1" fill="none" />
<path d="M236.7572364233926,63.01595830547826 L167.0696780117299,-179.2002307170861" stroke="#0d6d4d" stroke-width="0.1" fill="none" />
<path d="M236.11491795815587,65.3815380486979 L200.7703295686898,-140.41465295644784" stroke="#0d6d4d" stroke-width="0.1" fill="none" />
<path d="M235.4489642400272,67.74057305853259 L225.64058206001326,-95.45327510158265" stroke="#0d6d4d" stroke-width="0.1" fill="none" />
<path d="M234.75944193139583,70.09282719408313 L240.5865773701445,-46.29361499515313" stroke="#0d6d4d" stroke-width="0.1" fill="none" />
<path d="M234.0464200538816,72.4380649932203 L244.9509519169989,4.9021581937040875" stroke="#0d6d4d" stroke-width="0.1" fill="none" />
<path d="M233.30996998142635,74.77605169615424 L238.54174920479622,55.88232176919722" stroke="#0d6d4d" stroke-width="0.1" fill="none" />
<path d="M232.55016543314895,77.10655326893466 L221.64086256788974,104.40463610473343" stroke="#0d6d4d" stroke-width="0.1" fill="none" />
<path d="M231.767082465966,79.42933642687758 L194.99163677185106,148.33496414882939" stroke="#0d6d4d" stroke-width="0.1" fill="none" />
<path d="M230.9607994669788,81.74416865791707 L159.76617378550594,185.74113629979635" stroke="#0d6d4d" stroke-width="0.1" fill="none" />
<path d="M230.1313971456264,84.05081824588015 L117.51378070074131,214.97793222891062" stroke="#0d6d4d" stroke-width="0.1" fill="none" />
<path d="M229.27895852560658,86.3490542936816 L70.09282719408317,234.7594419313958" stroke="#0d6d4d" stroke-width="0.1" fill="none" />
<path d="M228.40356893656542,88.63864674643676 L19.589009615367697,244.21562337878595" stroke="#0d6d4d" stroke-width="0.1" fill="none" />
<path d="M227.50531600555541,90.91936641449045 L-31.776383339430062,242.93056922064295" stroke="#0d6d4d" stroke-width="0.1" fill="none" />
<path d="M226.58428964826405,93.19098499635888 L-81.74416865791694,230.96079946697887" stroke="#0d6d4d" stroke-width="0.1" fill="none" />
<path d="M225.6405820600133,95.45327510158258 L-128.1166337311827,208.83277559183566" stroke="#0d6d4d" stroke-width="0.1" fill="none" />
<path d="M224.67428770653066,97.70601027348874 L-168.8541974461513,177.5197453941847" stroke="#0d6d4d" stroke-width="0.1" fill="none" />
<path d="M223.68550331449322,99.94896501185913 L-202.16511624520805,138.3989370391316" stroke="#0d6d4d" stroke-width="0.1" fill="none" />
<path d="M222.67432786184511,102.18191479550339 L-226.58428964826396,93.19098499635902" stroke="#0d6d4d" stroke-width="0.1" fill="none" />
<path d="M221.64086256788974,104.40463610473343 L-241.03769916630637,43.8842520799112" stroke="#0d6d4d" stroke-width="0.1" fill="none" />
<path d="M220.585210883158,106.6169064437377 L-244.889646416125,-7.352623897989247" stroke="#0d6d4d" stroke-width="0.1" fill="none" />
<path d="M219.50747847905228,108.81850436285363 L-237.970712781589,-58.26611243443726" stroke="#0d6d4d" stroke-width="0.1" fill="none" />
<path d="M218.40777323726917,111.00920948073457 L-220.58521088315806,-106.61690644373758" stroke="#0d6d4d" stroke-width="0.1" fill="none" />
<path d="M217.2862052390001,113.18880250641018 L-193.4978001207012,-150.27841278257222" stroke="#0d6d4d" stroke-width="0.1" fill="none" />
<path d="M216.1428867539123,115.35706526123768 L-157.8998549727144,-187.33028532406541" stroke="#0d6d4d" stroke-width="0.1" fill="none" />
<path d="M214.97793222891062,117.51378070074126 L-115.35706526123774,-216.14288675391225" stroke="#0d6d4d" stroke-width="0.1" fill="none" />
<path d="M213.79145827668108,119.65873293633915 L-67.74057305853275,-235.44896424002715" stroke="#0d6d4d" stroke-width="0.1" fill="none" />
<path d="M212.58358366401814,121.79170725695327 L-17.14467501270926,-244.39938649413298" stroke="#0d6d4d" stroke-width="0.1" fill="none" />
<path d="M211.35442929993576,123.91249015050283 L34.205290242836256,-242.60049076496801" stroke="#0d6d4d" stroke-width="0.1" fill="none" />
<path d="M210.10411822356463,126.02086932527635 L84.05081824588018,-230.13139714562638" stroke="#0d6d4d" stroke-width="0.1" fill="none" />
<path d="M208.8327755918357,128.1166337311826 L130.1995735808767,-207.54052866695187" stroke="#0d6d4d" stroke-width="0.1" fill="none" />
<path d="M207.54052866695184,130.19957358087672 L170.62181446842112,-175.82149023229124" stroke="#0d6d4d" stroke-width="0.1" fill="none" />
<path d="M206.2275068036492,132.26948037075985 L203.53966606549682,-136.369367300527" stroke="#0d6d4d" stroke-width="0.1" fill="none" />
<path d="M204.8938414362481,134.32614690185088 L227.50531600555536,-90.91936641449054" stroke="#0d6d4d" stroke-width="0.1" fill="none" />
<path d="M203.5396660654969,136.3693673005269 L241.46469293605827,-41.47049632323075" stroke="#0d6d4d" stroke-width="0.1" fill="none" />
<path d="M202.16511624520817,138.39893703913143 L244.80382730648083,9.802353599963542" stroke="#0d6d4d" stroke-width="0.1" fill="none" />
<path d="M200.77032956868982,140.41465295644778 L237.37585533925213,60.64407062490485" stroke="#0d6d4d" stroke-width="0.1" fill="none" />
<path d="M199.355445654972,142.41631327803535 L219.50747847905228,108.81850436285363" stroke="#0d6d4d" stroke-width="0.1" fill="none" />
<path d="M197.92060613483096,144.40371763642761 L191.98459421715765,152.20681845197777" stroke="#0d6d4d" stroke-width="0.1" fill="none" />
<path d="M196.46595463661177,146.3766670911891 L156.01773028439348,188.90068246807962" stroke="#0d6d4d" stroke-width="0.1" fill="none" />
<path d="M194.99163677185106,148.33496414882939 L113.18880250641021,217.28620523900008" stroke="#0d6d4d" stroke-width="0.1" fill="none" />
<path d="M193.49780012070127,150.27841278257213 L65.38153804869795,236.11491795815584" stroke="#0d6d4d" stroke-width="0.1" fill="none" />
<path d="M191.98459421715765,152.20681845197777 L14.698624217219091,244.5586850760385" stroke="#0d6d4d" stroke-width="0.1" fill="none" />
<path d="M190.45217053408987,154.11998812241697 L-36.63077317501641,242.24612784645393" stroke="#0d6d4d" stroke-width="0.1" fill="none" />
<path d="M188.90068246807968,156.01773028439342 L-86.34905429368153,229.2789585256066" stroke="#0d6d4d" stroke-width="0.1" fill="none" />
<path d="M187.33028532406547,157.89985497271434 L-132.26948037075985,206.2275068036492" stroke="#0d6d4d" stroke-width="0.1" fill="none" />
<path d="M185.74113629979638,159.76617378550588 L-172.37235213895516,174.1056352278238" stroke="#0d6d4d" stroke-width="0.1" fill="none" />
<path d="M184.13339447009662,161.61649990307237 L-204.89384143624812,134.32614690185085" stroke="#0d6d4d" stroke-width="0.1" fill="none" />
<path d="M182.50722077094196,163.45064810659716 L-228.40356893656534,88.63864674643696" stroke="#0d6d4d" stroke-width="0.1" fill="none" />
<path d="M180.8627779833501,165.26843479668287 L-241.86751593705333,39.05258934359227" stroke="#0d6d4d" stroke-width="0.1" fill="none" />
<path d="M179.20023071708607,167.06967801172993 L-244.6935031786136,-12.251102080131574" stroke="#0d6d4d" stroke-width="0.1" fill="none" />
<path d="M177.51974539418458,168.85419744615137 L-236.75723642339258,-63.01595830547838" stroke="#0d6d4d" stroke-width="0.1" fill="none" />
<path d="M175.82149023229127,170.62181446842106 L-218.40777323726923,-111.00920948073446" stroke="#0d6d4d" stroke-width="0.1" fill="none" />
<path d="M174.1056352278238,172.37235213895516 L-190.45217053408987,-154.11998812241697" stroke="#0d6d4d" stroke-width="0.1" fill="none" />
<path d="M172.3723521389552,174.10563522782374 L-154.11998812241706,-190.45217053408982" stroke="#0d6d4d" stroke-width="0.1" fill="none" />
<path d="M170.62181446842112,175.82149023229124 L-111.00920948073454,-218.4077732372692" stroke="#0d6d4d" stroke-width="0.1" fill="none" />
<path d="M168.8541974461514,177.51974539418458 L-63.01595830547847,-236.75723642339256" stroke="#0d6d4d" stroke-width="0.1" fill="none" />
<path d="M167.06967801172996,179.20023071708604 L-12.251102080131679,-244.6935031786136" stroke="#0d6d4d" stroke-width="0.1" fill="none" />
<path d="M165.2684347966829,180.86277798335004 L39.05258934359224,-241.86751593705333" stroke="#0d6d4d" stroke-width="0.1" fill="none" />
<path d="M163.4506481065972,182.5072207709419 L88.6386467464368,-228.40356893656542" stroke="#0d6d4d" stroke-width="0.1" fill="none" />
<path d="M161.61649990307248,184.1333944700965 L134.3261469018509,-204.8938414362481" stroke="#0d6d4d" stroke-width="0.1" fill="none" />
<path d="M159.76617378550594,185.74113629979635 L174.10563522782374,-172.37235213895522" stroke="#0d6d4d" stroke-width="0.1" fill="none" />
<path d="M157.89985497271437,187.33028532406541 L206.22750680364916,-132.2694803707599" stroke="#0d6d4d" stroke-width="0.1" fill="none" />
<path d="M156.01773028439348,188.90068246807962 L229.27895852560658,-86.34905429368163" stroke="#0d6d4d" stroke-width="0.1" fill="none" />
<path d="M154.11998812241703,190.45217053408984 L242.2461278464539,-36.63077317501645" stroke="#0d6d4d" stroke-width="0.1" fill="none" />
<path d="M152.2068184519779,191.98459421715754 L244.5586850760385,14.6986242172191" stroke="#0d6d4d" stroke-width="0.1" fill="none" />
<path d="M150.2784127825722,193.4978001207012 L236.11491795815587,65.3815380486979" stroke="#0d6d4d" stroke-width="0.1" fill="none" />
<path d="M148.3349641488294,194.99163677185103 L217.2862052390001,113.18880250641018" stroke="#0d6d4d" stroke-width="0.1" fill="none" />
<path d="M146.37666709118915,196.46595463661174 L188.90068246807968,156.01773028439342" stroke="#0d6d4d" stroke-width="0.1" fill="none" />
<path d="M144.40371763642756,197.920606134831 L152.2068184519779,191.98459421715754" stroke="#0d6d4d" stroke-width="0.1" fill="none" />
<path d="M142.41631327803532,199.355445654972 L108.81850436285366,219.50747847905225" stroke="#0d6d4d" stroke-width="0.1" fill="none" />
<path d="M140.41465295644784,200.7703295686898 L60.64407062490495,237.3758553392521" stroke="#0d6d4d" stroke-width="0.1" fill="none" />
<path d="M138.39893703913157,202.16511624520808 L9.802353599963588,244.80382730648083" stroke="#0d6d4d" stroke-width="0.1" fill="none" />
<path d="M136.36936730052696,203.53966606549687 L-41.470496323230655,241.46469293605827" stroke="#0d6d4d" stroke-width="0.1" fill="none" />
<path d="M134.3261469018509,204.8938414362481 L-90.9193664144904,227.50531600555544" stroke="#0d6d4d" stroke-width="0.1" fill="none" />
<path d="M132.2694803707599,206.22750680364916 L-136.3693673005269,203.5396660654969" stroke="#0d6d4d" stroke-width="0.1" fill="none" />
<path d="M130.19957358087677,207.54052866695181 L-175.82149023229113,170.6218144684212" stroke="#0d6d4d" stroke-width="0.1" fill="none" />
<path d="M128.11663373118276,208.83277559183563 L-207.54052866695187,130.1995735808767" stroke="#0d6d4d" stroke-width="0.1" fill="none" />
<path d="M126.02086932527638,210.1041182235646 L-230.13139714562638,84.0508182458802" stroke="#0d6d4d" stroke-width="0.1" fill="none" />
<path d="M123.91249015050286,211.35442929993573 L-242.600490764968,34.205290242836334" stroke="#0d6d4d" stroke-width="0.1" fill="none" />
<path d="M121.79170725695323,212.58358366401816 L-244.39938649413298,-17.144675012709154" stroke="#0d6d4d" stroke-width="0.1" fill="none" />
<path d="M119.65873293633909,213.7914582766811 L-235.44896424002718,-67.74057305853266" stroke="#0d6d4d" stroke-width="0.1" fill="none" />
<path d="M117.51378070074131,214.97793222891062 L-216.1428867539123,-115.35706526123765" stroke="#0d6d4d" stroke-width="0.1" fill="none" />
<path d="M115.35706526123771,216.14288675391228 L-187.33028532406547,-157.89985497271434" stroke="#0d6d4d" stroke-width="0.1" fill="none" />
<path d="M113.18880250641021,217.28620523900008 L-150.27841278257227,-193.49780012070116" stroke="#0d6d4d" stroke-width="0.1" fill="none" />
<path d="M111.00920948073461,218.40777323726917 L-106.61690644373766,-220.58521088315803" stroke="#0d6d4d" stroke-width="0.1" fill="none" />
<path d="M108.81850436285366,219.50747847905225 L-58.26611243443736,-237.97071278158896" stroke="#0d6d4d" stroke-width="0.1" fill="none" />
<path d="M106.61690644373775,220.58521088315797 L-7.352623897989353,-244.889646416125" stroke="#0d6d4d" stroke-width="0.1" fill="none" />
<path d="M104.40463610473347,221.64086256788974 L43.88425207991123,-241.03769916630637" stroke="#0d6d4d" stroke-width="0.1" fill="none" />
<path d="M102.18191479550352,222.67432786184506 L93.1909849963589,-226.58428964826402" stroke="#0d6d4d" stroke-width="0.1" fill="none" />
<path d="M99.94896501185917,223.68550331449322 L138.3989370391315,-202.16511624520814" stroke="#0d6d4d" stroke-width="0.1" fill="none" />
<path d="M97.70601027348869,224.6742877065307 L177.51974539418458,-168.8541974461514" stroke="#0d6d4d" stroke-width="0.1" fill="none" />
<path d="M95.4532751015826,225.6405820600133 L208.83277559183566,-128.1166337311827" stroke="#0d6d4d" stroke-width="0.1" fill="none" />
<path d="M93.19098499635892,226.58428964826402 L230.9607994669788,-81.7441686579171" stroke="#0d6d4d" stroke-width="0.1" fill="none" />
<path d="M90.91936641449054,227.50531600555536 L242.93056922064295,-31.776383339430048" stroke="#0d6d4d" stroke-width="0.1" fill="none" />
<path d="M88.63864674643685,228.4035689365654 L244.21562337878598,19.589009615367598" stroke="#0d6d4d" stroke-width="0.1" fill="none" />
<path d="M86.34905429368159,229.27895852560658 L234.75944193139583,70.09282719408313" stroke="#0d6d4d" stroke-width="0.1" fill="none" />
<path d="M84.0508182458802,230.13139714562638 L214.97793222891062,117.51378070074126" stroke="#0d6d4d" stroke-width="0.1" fill="none" />
<path d="M81.74416865791711,230.9607994669788 L185.74113629979638,159.76617378550588" stroke="#0d6d4d" stroke-width="0.1" fill="none" />
<path d="M79.42933642687763,231.767082465966 L148.3349641488294,194.99163677185103" stroke="#0d6d4d" stroke-width="0.1" fill="none" />
<path d="M77.10655326893475,232.55016543314892 L104.40463610473347,221.64086256788974" stroke="#0d6d4d" stroke-width="0.1" fill="none" />
<path d="M74.77605169615424,233.30996998142638 L55.88232176919726,238.54174920479622" stroke="#0d6d4d" stroke-width="0.1" fill="none" />
<path d="M72.43806499322034,234.0464200538816 L4.902158193704187,244.9509519169989" stroke="#0d6d4d" stroke-width="0.1" fill="none" />
<path d="M70.09282719408317,234.7594419313958 L-46.2936149951531,240.5865773701445" stroke="#0d6d4d" stroke-width="0.1" fill="none" />
<path d="M67.74057305853263,235.4489642400272 L-95.45327510158266,225.64058206001326" stroke="#0d6d4d" stroke-width="0.1" fill="none" />
<path d="M65.38153804869795,236.11491795815584 L-140.41465295644778,200.77032956868982" stroke="#0d6d4d" stroke-width="0.1" fill="none" />
<path d="M63.015958305478335,236.75723642339258 L-179.2002307170861,167.0696780117299" stroke="#0d6d4d" stroke-width="0.1" fill="none" />
<path d="M60.64407062490495,237.3758553392521 L-210.10411822356457,126.02086932527641" stroke="#0d6d4d" stroke-width="0.1" fill="none" />
<path d="M58.266112434437325,237.97071278158896 L-231.76708246596607,79.42933642687743" stroke="#0d6d4d" stroke-width="0.1" fill="none" />
<path d="M55.88232176919726,238.54174920479622 L-243.23633017241613,29.34429559991789" stroke="#0d6d4d" stroke-width="0.1" fill="none" />
<path d="M53.49293724814061,239.08890744776616 L-244.00741412480184,-22.031383345751628" stroke="#0d6d4d" stroke-width="0.1" fill="none" />
<path d="M51.09819805017188,239.61213273961192 L-234.04642005388163,-72.43806499322027" stroke="#0d6d4d" stroke-width="0.1" fill="none" />
<path d="M48.69834389020199,240.11137270515036 L-213.79145827668114,-119.65873293633902" stroke="#0d6d4d" stroke-width="0.1" fill="none" />
<path d="M46.29361499515314,240.5865773701445 L-184.13339447009665,-161.61649990307237" stroke="#0d6d4d" stroke-width="0.1" fill="none" />
<path d="M43.88425207991118,241.03769916630637 L-146.37666709118926,-196.46595463661163" stroke="#0d6d4d" stroke-width="0.1" fill="none" />
<path d="M41.470496323230705,241.46469293605827 L-102.18191479550345,-222.6743278618451" stroke="#0d6d4d" stroke-width="0.1" fill="none" />
<path d="M39.052589343592246,241.86751593705333 L-53.49293724814065,-239.08890744776616" stroke="#0d6d4d" stroke-width="0.1" fill="none" />
<path d="M36.630773175016465,242.2461278464539 L-2.4512017802778465,-244.98773767238305" stroke="#0d6d4d" stroke-width="0.1" fill="none" />
<path d="M34.20529024283631,242.600490764968 L48.69834389020199,-240.11137270515036" stroke="#0d6d4d" stroke-width="0.1" fill="none" />
<path d="M31.776383339430115,242.93056922064295 L97.70601027348872,-224.67428770653066" stroke="#0d6d4d" stroke-width="0.1" fill="none" />
<path d="M29.344295599917768,243.23633017241616 L142.41631327803532,-199.355445654972" stroke="#0d6d4d" stroke-width="0.1" fill="none" />
<path d="M26.909270477823195,243.51774301342263 L180.8627779833501,-165.26843479668284" stroke="#0d6d4d" stroke-width="0.1" fill="none" />
<path d="M24.47155172070386,243.7747795740587 L211.35442929993576,-123.91249015050283" stroke="#0d6d4d" stroke-width="0.1" fill="none" />
<path d="M22.031383345751813,244.0074141248018 L232.55016543314892,-77.10655326893469" stroke="#0d6d4d" stroke-width="0.1" fill="none" />
<path d="M19.589009615367697,244.21562337878595 L243.51774301342263,-26.909270477823178" stroke="#0d6d4d" stroke-width="0.1" fill="none" />
<path d="M17.14467501270934,244.39938649413295 L243.7747795740587,24.47155172070382" stroke="#0d6d4d" stroke-width="0.1" fill="none" />
<path d="M14.698624217219091,244.5586850760385 L233.30996998142635,74.77605169615424" stroke="#0d6d4d" stroke-width="0.1" fill="none" />
<path d="M12.251102080131648,244.6935031786136 L212.58358366401814,121.79170725695327" stroke="#0d6d4d" stroke-width="0.1" fill="none" />
<path d="M9.802353599963588,244.80382730648083 L182.50722077094196,163.45064810659716" stroke="#0d6d4d" stroke-width="0.1" fill="none" />
<path d="M7.3526238979893215,244.889646416125 L144.40371763642756,197.920606134831" stroke="#0d6d4d" stroke-width="0.1" fill="none" />
<path d="M4.902158193704187,244.9509519169989 L99.94896501185917,223.68550331449322" stroke="#0d6d4d" stroke-width="0.1" fill="none" />
<path d="M2.4512017802778168,244.98773767238305 L51.09819805017188,239.61213273961192" stroke="#0d6d4d" stroke-width="0.1" fill="none" />
<path d="M3.0003846579110155e-14,245.0 L3.0003846579110155e-14,245.0" stroke="#0d6d4d" stroke-width="0.1" fill="none" />
<path d="M-2.4512017802777564,244.98773767238305 L-51.09819805017172,239.61213273961195" stroke="#0d6d4d" stroke-width="0.1" fill="none" />
<path d="M-4.902158193704127,244.9509519169989 L-99.94896501185912,223.68550331449325" stroke="#0d6d4d" stroke-width="0.1" fill="none" />
<path d="M-7.352623897989262,244.889646416125 L-144.40371763642753,197.92060613483102" stroke="#0d6d4d" stroke-width="0.1" fill="none" />
<path d="M-9.802353599963528,244.80382730648083 L-182.5072207709419,163.4506481065972" stroke="#0d6d4d" stroke-width="0.1" fill="none" />
<path d="M-12.251102080131588,244.6935031786136 L-212.58358366401808,121.79170725695336" stroke="#0d6d4d" stroke-width="0.1" fill="none" />
<path d="M-14.69862421721914,244.5586850760385 L-233.3099699814264,74.77605169615414" stroke="#0d6d4d" stroke-width="0.1" fill="none" />
<path d="M-17.144675012709275,244.39938649413298 L-243.77477957405873,24.471551720703765" stroke="#0d6d4d" stroke-width="0.1" fill="none" />
<path d="M-19.589009615367637,244.21562337878595 L-243.51774301342263,-26.90927047782312" stroke="#0d6d4d" stroke-width="0.1" fill="none" />
<path d="M-22.03138334575175,244.0074141248018 L-232.55016543314898,-77.10655326893458" stroke="#0d6d4d" stroke-width="0.1" fill="none" />
<path d="M-24.47155172070369,243.77477957405873 L-211.35442929993573,-123.91249015050288" stroke="#0d6d4d" stroke-width="0.1" fill="none" />
<path d="M-26.909270477823025,243.51774301342266 L-180.8627779833501,-165.26843479668284" stroke="#0d6d4d" stroke-width="0.1" fill="none" />
<path d="M-29.344295599917707,243.23633017241616 L-142.41631327803535,-199.355445654972" stroke="#0d6d4d" stroke-width="0.1" fill="none" />
<path d="M-31.776383339430062,242.93056922064295 L-97.7060102734888,-224.67428770653063" stroke="#0d6d4d" stroke-width="0.1" fill="none" />
<path d="M-34.205290242836156,242.60049076496801 L-48.69834389020213,-240.11137270515033" stroke="#0d6d4d" stroke-width="0.1" fill="none" />
<path d="M-36.63077317501641,242.24612784645393 L2.451201780277706,-244.98773767238305" stroke="#0d6d4d" stroke-width="0.1" fill="none" />
<path d="M-39.05258934359208,241.86751593705335 L53.49293724814055,-239.0889074477662" stroke="#0d6d4d" stroke-width="0.1" fill="none" />
<path d="M-41.470496323230655,241.46469293605827 L102.18191479550342,-222.6743278618451" stroke="#0d6d4d" stroke-width="0.1" fill="none" />
<path d="M-43.88425207991123,241.03769916630637 L146.3766670911891,-196.46595463661177" stroke="#0d6d4d" stroke-width="0.1" fill="none" />
<path d="M-46.2936149951531,240.5865773701445 L184.13339447009653,-161.61649990307248" stroke="#0d6d4d" stroke-width="0.1" fill="none" />
<path d="M-48.69834389020205,240.11137270515033 L213.79145827668108,-119.65873293633915" stroke="#0d6d4d" stroke-width="0.1" fill="none" />
<path d="M-51.09819805017172,239.61213273961195 L234.0464200538816,-72.43806499322032" stroke="#0d6d4d" stroke-width="0.1" fill="none" />
<path d="M-53.49293724814056,239.0889074477662 L244.0074141248018,-22.031383345751795" stroke="#0d6d4d" stroke-width="0.1" fill="none" />
<path d="M-55.882321769197205,238.54174920479622 L243.23633017241616,29.34429559991778" stroke="#0d6d4d" stroke-width="0.1" fill="none" />
<path d="M-58.26611243443738,237.97071278158896 L231.767082465966,79.42933642687758" stroke="#0d6d4d" stroke-width="0.1" fill="none" />
<path d="M-60.64407062490479,237.37585533925213 L210.10411822356463,126.02086932527635" stroke="#0d6d4d" stroke-width="0.1" fill="none" />
<path d="M-63.015958305478286,236.75723642339258 L179.20023071708607,167.06967801172993" stroke="#0d6d4d" stroke-width="0.1" fill="none" />
<path d="M-65.38153804869779,236.1149179581559 L140.41465295644784,200.7703295686898" stroke="#0d6d4d" stroke-width="0.1" fill="none" />
<path d="M-67.74057305853258,235.4489642400272 L95.4532751015826,225.6405820600133" stroke="#0d6d4d" stroke-width="0.1" fill="none" />
<path d="M-70.09282719408323,234.7594419313958 L46.29361499515314,240.5865773701445" stroke="#0d6d4d" stroke-width="0.1" fill="none" />
<path d="M-72.43806499322028,234.0464200538816 L-4.902158193704127,244.9509519169989" stroke="#0d6d4d" stroke-width="0.1" fill="none" />
<path d="M-74.77605169615428,233.30996998142635 L-55.882321769197205,238.54174920479622" stroke="#0d6d4d" stroke-width="0.1" fill="none" />
<path d="M-77.10655326893459,232.55016543314898 L-104.40463610473341,221.64086256788974" stroke="#0d6d4d" stroke-width="0.1" fill="none" />
<path d="M-79.42933642687757,231.767082465966 L-148.33496414882939,194.99163677185106" stroke="#0d6d4d" stroke-width="0.1" fill="none" />
<path d="M-81.74416865791694,230.96079946697887 L-185.74113629979627,159.766173785506" stroke="#0d6d4d" stroke-width="0.1" fill="none" />
<path d="M-84.05081824588014,230.1313971456264 L-214.97793222891053,117.51378070074142" stroke="#0d6d4d" stroke-width="0.1" fill="none" />
<path d="M-86.34905429368153,229.2789585256066 L-234.7594419313958,70.09282719408318" stroke="#0d6d4d" stroke-width="0.1" fill="none" />
<path d="M-88.6386467464368,228.40356893656542 L-244.21562337878595,19.58900961536771" stroke="#0d6d4d" stroke-width="0.1" fill="none" />
<path d="M-90.9193664144904,227.50531600555544 L-242.93056922064298,-31.776383339429934" stroke="#0d6d4d" stroke-width="0.1" fill="none" />
<path d="M-93.19098499635886,226.58428964826405 L-230.96079946697887,-81.74416865791694" stroke="#0d6d4d" stroke-width="0.1" fill="none" />
<path d="M-95.45327510158266,225.64058206001326 L-208.83277559183566,-128.11663373118267" stroke="#0d6d4d" stroke-width="0.1" fill="none" />
<path d="M-97.70601027348863,224.6742877065307 L-177.51974539418464,-168.85419744615135" stroke="#0d6d4d" stroke-width="0.1" fill="none" />
<path d="M-99.94896501185912,223.68550331449325 L-138.3989370391316,-202.16511624520805" stroke="#0d6d4d" stroke-width="0.1" fill="none" />
<path d="M-102.18191479550337,222.67432786184511 L-93.19098499635903,-226.58428964826396" stroke="#0d6d4d" stroke-width="0.1" fill="none" />
<path d="M-104.40463610473341,221.64086256788974 L-43.884252079911214,-241.03769916630637" stroke="#0d6d4d" stroke-width="0.1" fill="none" />
<path d="M-106.61690644373759,220.58521088315806 L7.352623897989268,-244.889646416125" stroke="#0d6d4d" stroke-width="0.1" fill="none" />
<path d="M-108.81850436285363,219.50747847905228 L58.266112434437325,-237.97071278158896" stroke="#0d6d4d" stroke-width="0.1" fill="none" />
<path d="M-111.00920948073457,218.40777323726917 L106.61690644373769,-220.585210883158" stroke="#0d6d4d" stroke-width="0.1" fill="none" />
<path d="M-113.18880250641027,217.28620523900005 L150.2784127825722,-193.4978001207012" stroke="#0d6d4d" stroke-width="0.1" fill="none" />
<path d="M-115.35706526123776,216.14288675391225 L187.3302853240654,-157.89985497271442" stroke="#0d6d4d" stroke-width="0.1" fill="none" />
<path d="M-117.51378070074126,214.97793222891062 L216.14288675391228,-115.3570652612377" stroke="#0d6d4d" stroke-width="0.1" fill="none" />
<path d="M-119.65873293633915,213.79145827668108 L235.44896424002718,-67.74057305853266" stroke="#0d6d4d" stroke-width="0.1" fill="none" />
<path d="M-121.79170725695319,212.5835836640182 L244.39938649413298,-17.14467501270932" stroke="#0d6d4d" stroke-width="0.1" fill="none" />
<path d="M-123.91249015050283,211.35442929993576 L242.60049076496801,34.20529024283623" stroke="#0d6d4d" stroke-width="0.1" fill="none" />
<path d="M-126.02086932527635,210.10411822356463 L230.1313971456264,84.05081824588015" stroke="#0d6d4d" stroke-width="0.1" fill="none" />
<path d="M-128.1166337311827,208.83277559183566 L207.54052866695184,130.19957358087672" stroke="#0d6d4d" stroke-width="0.1" fill="none" />
<path d="M-130.19957358087666,207.5405286669519 L175.82149023229127,170.62181446842106" stroke="#0d6d4d" stroke-width="0.1" fill="none" />
<path d="M-132.26948037075985,206.2275068036492 L136.36936730052696,203.53966606549687" stroke="#0d6d4d" stroke-width="0.1" fill="none" />
<path d="M-134.32614690185076,204.89384143624818 L90.91936641449054,227.50531600555536" stroke="#0d6d4d" stroke-width="0.1" fill="none" />
<path d="M-136.3693673005269,203.5396660654969 L41.470496323230705,241.46469293605827" stroke="#0d6d4d" stroke-width="0.1" fill="none" />
<path d="M-138.39893703913154,202.1651162452081 L-9.802353599963528,244.80382730648083" stroke="#0d6d4d" stroke-width="0.1" fill="none" />
<path d="M-140.41465295644778,200.77032956868982 L-60.64407062490479,237.37585533925213" stroke="#0d6d4d" stroke-width="0.1" fill="none" />
<path d="M-142.41631327803535,199.355445654972 L-108.81850436285363,219.50747847905228" stroke="#0d6d4d" stroke-width="0.1" fill="none" />
<path d="M-144.40371763642753,197.92060613483102 L-152.20681845197777,191.98459421715765" stroke="#0d6d4d" stroke-width="0.1" fill="none" />
<path d="M-146.3766670911891,196.46595463661177 L-188.90068246807968,156.0177302843934" stroke="#0d6d4d" stroke-width="0.1" fill="none" />
<path d="M-148.33496414882939,194.99163677185106 L-217.28620523899997,113.18880250641043" stroke="#0d6d4d" stroke-width="0.1" fill="none" />
<path d="M-150.27841278257222,193.4978001207012 L-236.11491795815584,65.38153804869796" stroke="#0d6d4d" stroke-width="0.1" fill="none" />
<path d="M-152.20681845197777,191.98459421715765 L-244.5586850760385,14.698624217219214" stroke="#0d6d4d" stroke-width="0.1" fill="none" />
<path d="M-154.11998812241697,190.45217053408987 L-242.2461278464539,-36.6307731750165" stroke="#0d6d4d" stroke-width="0.1" fill="none" />
<path d="M-156.01773028439334,188.90068246807974 L-229.27895852560664,-86.34905429368142" stroke="#0d6d4d" stroke-width="0.1" fill="none" />
<path d="M-157.89985497271434,187.33028532406547 L-206.22750680364922,-132.26948037075985" stroke="#0d6d4d" stroke-width="0.1" fill="none" />
<path d="M-159.76617378550597,185.74113629979632 L-174.10563522782383,-172.37235213895514" stroke="#0d6d4d" stroke-width="0.1" fill="none" />
<path d="M-161.61649990307245,184.13339447009656 L-134.32614690185085,-204.89384143624812" stroke="#0d6d4d" stroke-width="0.1" fill="none" />
<path d="M-163.45064810659724,182.50722077094187 L-88.63864674643678,-228.40356893656542" stroke="#0d6d4d" stroke-width="0.1" fill="none" />
<path d="M-165.26843479668278,180.86277798335016 L-39.05258934359228,-241.86751593705333" stroke="#0d6d4d" stroke-width="0.1" fill="none" />
<path d="M-167.06967801172993,179.20023071708607 L12.251102080131652,-244.6935031786136" stroke="#0d6d4d" stroke-width="0.1" fill="none" />
<path d="M-168.8541974461513,177.5197453941847 L63.0159583054783,-236.75723642339258" stroke="#0d6d4d" stroke-width="0.1" fill="none" />
<path d="M-170.62181446842106,175.82149023229127 L111.00920948073463,-218.40777323726914" stroke="#0d6d4d" stroke-width="0.1" fill="none" />
<path d="M-172.37235213895516,174.1056352278238 L154.11998812241697,-190.45217053408987" stroke="#0d6d4d" stroke-width="0.1" fill="none" />
<path d="M-174.10563522782374,172.37235213895522 L190.45217053408984,-154.119988122417" stroke="#0d6d4d" stroke-width="0.1" fill="none" />
<path d="M-175.82149023229113,170.6218144684212 L218.40777323726917,-111.0092094807346" stroke="#0d6d4d" stroke-width="0.1" fill="none" />
<path d="M-177.51974539418455,168.85419744615143 L236.7572364233926,-63.01595830547827" stroke="#0d6d4d" stroke-width="0.1" fill="none" />
<path d="M-179.2002307170861,167.0696780117299 L244.6935031786136,-12.251102080131687" stroke="#0d6d4d" stroke-width="0.1" fill="none" />
<path d="M-180.86277798335004,165.26843479668293 L241.86751593705333,39.05258934359221" stroke="#0d6d4d" stroke-width="0.1" fill="none" />
<path d="M-182.5072207709419,163.4506481065972 L228.40356893656542,88.63864674643676" stroke="#0d6d4d" stroke-width="0.1" fill="none" />
<path d="M-184.1333944700965,161.6164999030725 L204.8938414362481,134.32614690185088" stroke="#0d6d4d" stroke-width="0.1" fill="none" />
<path d="M-185.74113629979627,159.766173785506 L172.3723521389552,174.10563522782374" stroke="#0d6d4d" stroke-width="0.1" fill="none" />
<path d="M-187.33028532406541,157.8998549727144 L132.2694803707599,206.22750680364916" stroke="#0d6d4d" stroke-width="0.1" fill="none" />
<path d="M-188.90068246807968,156.0177302843934 L86.34905429368159,229.27895852560658" stroke="#0d6d4d" stroke-width="0.1" fill="none" />
<path d="M-190.45217053408982,154.11998812241706 L36.630773175016465,242.2461278464539" stroke="#0d6d4d" stroke-width="0.1" fill="none" />
<path d="M-191.9845942171576,152.20681845197782 L-14.69862421721914,244.5586850760385" stroke="#0d6d4d" stroke-width="0.1" fill="none" />
<path d="M-193.49780012070116,150.27841278257227 L-65.38153804869779,236.1149179581559" stroke="#0d6d4d" stroke-width="0.1" fill="none" />
<path d="M-194.991636771851,148.33496414882944 L-113.18880250641027,217.28620523900005" stroke="#0d6d4d" stroke-width="0.1" fill="none" />
<path d="M-196.4659546366118,146.3766670911891 L-156.01773028439334,188.90068246807974" stroke="#0d6d4d" stroke-width="0.1" fill="none" />
<path d="M-197.9206061348309,144.40371763642767 L-191.9845942171576,152.20681845197782" stroke="#0d6d4d" stroke-width="0.1" fill="none" />
<path d="M-199.355445654972,142.41631327803535 L-219.50747847905225,108.81850436285367" stroke="#0d6d4d" stroke-width="0.1" fill="none" />
<path d="M-200.77032956868973,140.41465295644795 L-237.3758553392521,60.64407062490496" stroke="#0d6d4d" stroke-width="0.1" fill="none" />
<path d="M-202.16511624520805,138.3989370391316 L-244.80382730648083,9.80235359996371" stroke="#0d6d4d" stroke-width="0.1" fill="none" />
<path d="M-203.53966606549685,136.369367300527 L-241.46469293605827,-41.47049632323074" stroke="#0d6d4d" stroke-width="0.1" fill="none" />
<path d="M-204.89384143624812,134.32614690185085 L-227.5053160055554,-90.91936641449048" stroke="#0d6d4d" stroke-width="0.1" fill="none" />
<path d="M-206.22750680364916,132.26948037075994 L-203.53966606549693,-136.36936730052687" stroke="#0d6d4d" stroke-width="0.1" fill="none" />
<path d="M-207.54052866695187,130.1995735808767 L-170.6218144684212,-175.82149023229113" stroke="#0d6d4d" stroke-width="0.1" fill="none" />
<path d="M-208.83277559183574,128.1166337311826 L-130.1995735808767,-207.54052866695187" stroke="#0d6d4d" stroke-width="0.1" fill="none" />
<path d="M-210.10411822356457,126.02086932527641 L-84.05081824588021,-230.13139714562638" stroke="#0d6d4d" stroke-width="0.1" fill="none" />
<path d="M-211.3544292999358,123.9124901505028 L-34.20529024283635,-242.600490764968" stroke="#0d6d4d" stroke-width="0.1" fill="none" />
<path d="M-212.58358366401808,121.79170725695336 L17.144675012709286,-244.39938649413298" stroke="#0d6d4d" stroke-width="0.1" fill="none" />
<path d="M-213.7914582766811,119.65873293633912 L67.74057305853263,-235.4489642400272" stroke="#0d6d4d" stroke-width="0.1" fill="none" />
<path d="M-214.97793222891053,117.51378070074142 L115.35706526123766,-216.1428867539123" stroke="#0d6d4d" stroke-width="0.1" fill="none" />
<path d="M-216.14288675391228,115.35706526123772 L157.89985497271437,-187.33028532406541" stroke="#0d6d4d" stroke-width="0.1" fill="none" />
<path d="M-217.28620523899997,113.18880250641043 L193.4978001207012,-150.27841278257222" stroke="#0d6d4d" stroke-width="0.1" fill="none" />
<path d="M-218.40777323726908,111.00920948073471 L220.58521088315797,-106.61690644373773" stroke="#0d6d4d" stroke-width="0.1" fill="none" />
<path d="M-219.50747847905225,108.81850436285367 L237.97071278158896,-58.26611243443731" stroke="#0d6d4d" stroke-width="0.1" fill="none" />
<path d="M-220.58521088315803,106.61690644373765 L244.889646416125,-7.352623897989253" stroke="#0d6d4d" stroke-width="0.1" fill="none" />
<path d="M-221.64086256788983,104.40463610473329 L241.03769916630637,43.88425207991119" stroke="#0d6d4d" stroke-width="0.1" fill="none" />
<path d="M-222.6743278618451,102.18191479550343 L226.58428964826405,93.19098499635888" stroke="#0d6d4d" stroke-width="0.1" fill="none" />
<path d="M-223.68550331449325,99.94896501185909 L202.16511624520817,138.39893703913143" stroke="#0d6d4d" stroke-width="0.1" fill="none" />
<path d="M-224.67428770653063,97.70601027348879 L168.8541974461514,177.51974539418458" stroke="#0d6d4d" stroke-width="0.1" fill="none" />
<path d="M-225.6405820600133,95.45327510158262 L128.11663373118276,208.83277559183563" stroke="#0d6d4d" stroke-width="0.1" fill="none" />
<path d="M-226.58428964826396,93.19098499635902 L81.74416865791711,230.9607994669788" stroke="#0d6d4d" stroke-width="0.1" fill="none" />
<path d="M-227.50531600555536,90.91936641449055 L31.776383339430115,242.93056922064295" stroke="#0d6d4d" stroke-width="0.1" fill="none" />
<path d="M-228.40356893656534,88.63864674643696 L-19.589009615367637,244.21562337878595" stroke="#0d6d4d" stroke-width="0.1" fill="none" />
<path d="M-229.27895852560655,86.3490542936817 L-70.09282719408323,234.7594419313958" stroke="#0d6d4d" stroke-width="0.1" fill="none" />
<path d="M-230.13139714562638,84.0508182458802 L-117.51378070074126,214.97793222891062" stroke="#0d6d4d" stroke-width="0.1" fill="none" />
<path d="M-230.96079946697884,81.74416865791702 L-159.76617378550597,185.74113629979632" stroke="#0d6d4d" stroke-width="0.1" fill="none" />
<path d="M-231.76708246596607,79.42933642687743 L-194.991636771851,148.33496414882944" stroke="#0d6d4d" stroke-width="0.1" fill="none" />
<path d="M-232.55016543314895,77.10655326893466 L-221.64086256788983,104.40463610473329" stroke="#0d6d4d" stroke-width="0.1" fill="none" />
<path d="M-233.3099699814264,74.77605169615414 L-238.5417492047962,55.88232176919738" stroke="#0d6d4d" stroke-width="0.1" fill="none" />
<path d="M-234.0464200538816,72.43806499322035 L-244.9509519169989,4.902158193704311" stroke="#0d6d4d" stroke-width="0.1" fill="none" />
<path d="M-234.7594419313958,70.09282719408318 L-240.5865773701445,-46.29361499515308" stroke="#0d6d4d" stroke-width="0.1" fill="none" />
<path d="M-235.44896424002718,67.74057305853273 L-225.64058206001332,-95.45327510158255" stroke="#0d6d4d" stroke-width="0.1" fill="none" />
<path d="M-236.11491795815584,65.38153804869796 L-200.77032956868976,-140.41465295644784" stroke="#0d6d4d" stroke-width="0.1" fill="none" />
<path d="M-236.75723642339256,63.01595830547846 L-167.06967801173008,-179.200230717086" stroke="#0d6d4d" stroke-width="0.1" fill="none" />
<path d="M-237.3758553392521,60.64407062490496 L-126.02086932527641,-210.10411822356457" stroke="#0d6d4d" stroke-width="0.1" fill="none" />
<path d="M-237.9707127815889,58.26611243443756 L-79.42933642687765,-231.76708246596598" stroke="#0d6d4d" stroke-width="0.1" fill="none" />
<path d="M-238.5417492047962,55.88232176919738 L-29.34429559991769,-243.23633017241616" stroke="#0d6d4d" stroke-width="0.1" fill="none" />
<path d="M-239.08890744776616,53.492937248140635 L22.031383345751816,-244.0074141248018" stroke="#0d6d4d" stroke-width="0.1" fill="none" />
<path d="M-239.61213273961195,51.09819805017179 L72.43806499322028,-234.0464200538816" stroke="#0d6d4d" stroke-width="0.1" fill="none" />
<path d="M-240.11137270515036,48.698343890201905 L119.65873293633909,-213.7914582766811" stroke="#0d6d4d" stroke-width="0.1" fill="none" />
<path d="M-240.5865773701445,46.29361499515316 L161.61649990307245,-184.13339447009656" stroke="#0d6d4d" stroke-width="0.1" fill="none" />
<path d="M-241.03769916630637,43.8842520799112 L196.46595463661174,-146.37666709118915" stroke="#0d6d4d" stroke-width="0.1" fill="none" />
<path d="M-241.46469293605824,41.47049632323084 L222.6743278618451,-102.18191479550346" stroke="#0d6d4d" stroke-width="0.1" fill="none" />
<path d="M-241.86751593705333,39.05258934359227 L239.08890744776616,-53.4929372481406" stroke="#0d6d4d" stroke-width="0.1" fill="none" />
<path d="M-242.2461278464539,36.63077317501659 L244.98773767238305,-2.451201780277747" stroke="#0d6d4d" stroke-width="0.1" fill="none" />
<path d="M-242.600490764968,34.205290242836334 L240.11137270515036,48.698343890202004" stroke="#0d6d4d" stroke-width="0.1" fill="none" />
<path d="M-242.93056922064292,31.776383339430247 L224.67428770653066,97.70601027348874" stroke="#0d6d4d" stroke-width="0.1" fill="none" />
<path d="M-243.23633017241613,29.34429559991789 L199.355445654972,142.41631327803535" stroke="#0d6d4d" stroke-width="0.1" fill="none" />
<path d="M-243.51774301342263,26.909270477823206 L165.2684347966829,180.86277798335004" stroke="#0d6d4d" stroke-width="0.1" fill="none" />
<path d="M-243.77477957405873,24.471551720703765 L123.91249015050286,211.35442929993573" stroke="#0d6d4d" stroke-width="0.1" fill="none" />
<path d="M-244.0074141248018,22.031383345751717 L77.10655326893475,232.55016543314892" stroke="#0d6d4d" stroke-width="0.1" fill="none" />
<path d="M-244.21562337878595,19.58900961536771 L26.909270477823195,243.51774301342263" stroke="#0d6d4d" stroke-width="0.1" fill="none" />
<path d="M-244.39938649413298,17.144675012709243 L-24.47155172070369,243.77477957405873" stroke="#0d6d4d" stroke-width="0.1" fill="none" />
<path d="M-244.5586850760385,14.698624217219214 L-74.77605169615428,233.30996998142635" stroke="#0d6d4d" stroke-width="0.1" fill="none" />
<path d="M-244.6935031786136,12.251102080131663 L-121.79170725695319,212.5835836640182" stroke="#0d6d4d" stroke-width="0.1" fill="none" />
<path d="M-244.80382730648083,9.80235359996371 L-163.45064810659724,182.50722077094187" stroke="#0d6d4d" stroke-width="0.1" fill="none" />
<path d="M-244.889646416125,7.3526238979893375 L-197.9206061348309,144.40371763642767" stroke="#0d6d4d" stroke-width="0.1" fill="none" />
<path d="M-244.9509519169989,4.902158193704311 L-223.68550331449325,99.94896501185909" stroke="#0d6d4d" stroke-width="0.1" fill="none" />
<path d="M-244.98773767238305,2.4512017802778314 L-239.61213273961195,51.09819805017179" stroke="#0d6d4d" stroke-width="0.1" fill="none" />
<path d="M-245.0,4.500576986866523e-14 L-245.0,4.500576986866523e-14" stroke="#0d6d4d" stroke-width="0.1" fill="none" />
<path d="M-244.98773767238305,-2.4512017802777413 L-239.61213273961198,-51.0981980501717" stroke="#0d6d4d" stroke-width="0.1" fill="none" />
<path d="M-244.9509519169989,-4.902158193704221 L-223.6855033144932,-99.94896501185922" stroke="#0d6d4d" stroke-width="0.1" fill="none" />
<path d="M-244.889646416125,-7.352623897989247 L-197.920606134831,-144.4037176364276" stroke="#0d6d4d" stroke-width="0.1" fill="none" />
<path d="M-244.80382730648083,-9.802353599963622 L-163.4506481065972,-182.5072207709419" stroke="#0d6d4d" stroke-width="0.1" fill="none" />
<path d="M-244.6935031786136,-12.251102080131574 L-121.79170725695336,-212.58358366401808" stroke="#0d6d4d" stroke-width="0.1" fill="none" />
<path d="M-244.5586850760385,-14.698624217219127 L-74.77605169615435,-233.30996998142632" stroke="#0d6d4d" stroke-width="0.1" fill="none" />
<path d="M-244.39938649413298,-17.144675012709154 L-24.471551720703783,-243.77477957405873" stroke="#0d6d4d" stroke-width="0.1" fill="none" />
<path d="M-244.21562337878595,-19.589009615367623 L26.909270477823146,-243.51774301342263" stroke="#0d6d4d" stroke-width="0.1" fill="none" />
<path d="M-244.00741412480184,-22.031383345751628 L77.10655326893466,-232.55016543314895" stroke="#0d6d4d" stroke-width="0.1" fill="none" />
<path d="M-243.77477957405873,-24.471551720703676 L123.91249015050283,-211.35442929993576" stroke="#0d6d4d" stroke-width="0.1" fill="none" />
<path d="M-243.51774301342263,-26.90927047782312 L165.26843479668284,-180.8627779833501" stroke="#0d6d4d" stroke-width="0.1" fill="none" />
<path d="M-243.2363301724162,-29.344295599917583 L199.355445654972,-142.41631327803532" stroke="#0d6d4d" stroke-width="0.1" fill="none" />
<path d="M-242.93056922064298,-31.776383339429934 L224.67428770653066,-97.70601027348872" stroke="#0d6d4d" stroke-width="0.1" fill="none" />
<path d="M-242.60049076496801,-34.20529024283625 L240.11137270515036,-48.698343890201976" stroke="#0d6d4d" stroke-width="0.1" fill="none" />
<path d="M-242.2461278464539,-36.6307731750165 L244.98773767238305,2.4512017802777173" stroke="#0d6d4d" stroke-width="0.1" fill="none" />
<path d="M-241.86751593705333,-39.052589343592174 L239.0889074477662,53.49293724814057" stroke="#0d6d4d" stroke-width="0.1" fill="none" />
<path d="M-241.46469293605827,-41.47049632323074 L222.67432786184511,102.18191479550339" stroke="#0d6d4d" stroke-width="0.1" fill="none" />
<path d="M-241.0376991663064,-43.88425207991111 L196.46595463661177,146.3766670911891" stroke="#0d6d4d" stroke-width="0.1" fill="none" />
<path d="M-240.5865773701445,-46.29361499515308 L161.61649990307248,184.1333944700965" stroke="#0d6d4d" stroke-width="0.1" fill="none" />
<path d="M-240.11137270515036,-48.698343890202025 L119.65873293633909,213.7914582766811" stroke="#0d6d4d" stroke-width="0.1" fill="none" />
<path d="M-239.61213273961198,-51.0981980501717 L72.43806499322034,234.0464200538816" stroke="#0d6d4d" stroke-width="0.1" fill="none" />
<path d="M-239.0889074477662,-53.492937248140535 L22.031383345751813,244.0074141248018" stroke="#0d6d4d" stroke-width="0.1" fill="none" />
<path d="M-238.54174920479628,-55.882321769197084 L-29.344295599917707,243.23633017241616" stroke="#0d6d4d" stroke-width="0.1" fill="none" />
<path d="M-237.970712781589,-58.26611243443726 L-79.42933642687757,231.767082465966" stroke="#0d6d4d" stroke-width="0.1" fill="none" />
<path d="M-237.37585533925213,-60.64407062490488 L-126.02086932527635,210.10411822356463" stroke="#0d6d4d" stroke-width="0.1" fill="none" />
<path d="M-236.75723642339258,-63.01595830547838 L-167.06967801172993,179.20023071708607" stroke="#0d6d4d" stroke-width="0.1" fill="none" />
<path d="M-236.11491795815587,-65.38153804869788 L-200.77032956868973,140.41465295644795" stroke="#0d6d4d" stroke-width="0.1" fill="none" />
<path d="M-235.44896424002718,-67.74057305853266 L-225.6405820600133,95.45327510158262" stroke="#0d6d4d" stroke-width="0.1" fill="none" />
<path d="M-234.75944193139583,-70.0928271940831 L-240.5865773701445,46.29361499515316" stroke="#0d6d4d" stroke-width="0.1" fill="none" />
<path d="M-234.04642005388163,-72.43806499322027 L-244.9509519169989,-4.902158193704221" stroke="#0d6d4d" stroke-width="0.1" fill="none" />
<path d="M-233.30996998142635,-74.77605169615427 L-238.54174920479628,-55.882321769197084" stroke="#0d6d4d" stroke-width="0.1" fill="none" />
<path d="M-232.55016543314898,-77.10655326893458 L-221.64086256788974,-104.40463610473341" stroke="#0d6d4d" stroke-width="0.1" fill="none" />
<path d="M-231.767082465966,-79.42933642687755 L-194.9916367718511,-148.33496414882936" stroke="#0d6d4d" stroke-width="0.1" fill="none" />
<path d="M-230.96079946697887,-81.74416865791694 L-159.76617378550586,-185.74113629979638" stroke="#0d6d4d" stroke-width="0.1" fill="none" />
<path d="M-230.1313971456264,-84.05081824588012 L-117.51378070074142,-214.97793222891053" stroke="#0d6d4d" stroke-width="0.1" fill="none" />
<path d="M-229.27895852560664,-86.34905429368142 L-70.0928271940832,-234.7594419313958" stroke="#0d6d4d" stroke-width="0.1" fill="none" />
<path d="M-228.40356893656545,-88.63864674643668 L-19.58900961536773,-244.21562337878595" stroke="#0d6d4d" stroke-width="0.1" fill="none" />
<path d="M-227.5053160055554,-90.91936641449048 L31.776383339430026,-242.93056922064295" stroke="#0d6d4d" stroke-width="0.1" fill="none" />
<path d="M-226.584289648264,-93.19098499635896 L81.74416865791707,-230.9607994669788" stroke="#0d6d4d" stroke-width="0.1" fill="none" />
<path d="M-225.64058206001332,-95.45327510158255 L128.11663373118267,-208.83277559183566" stroke="#0d6d4d" stroke-width="0.1" fill="none" />
<path d="M-224.67428770653066,-97.70601027348872 L168.85419744615137,-177.51974539418458" stroke="#0d6d4d" stroke-width="0.1" fill="none" />
<path d="M-223.6855033144932,-99.94896501185922 L202.1651162452081,-138.39893703913154" stroke="#0d6d4d" stroke-width="0.1" fill="none" />
<path d="M-222.67432786184511,-102.18191479550336 L226.58428964826402,-93.1909849963589" stroke="#0d6d4d" stroke-width="0.1" fill="none" />
<path d="M-221.64086256788974,-104.40463610473341 L241.03769916630637,-43.88425207991122" stroke="#0d6d4d" stroke-width="0.1" fill="none" />
<path d="M-220.58521088315806,-106.61690644373758 L244.889646416125,7.352623897989277" stroke="#0d6d4d" stroke-width="0.1" fill="none" />
<path d="M-219.5074784790523,-108.81850436285362 L237.97071278158896,58.26611243443734" stroke="#0d6d4d" stroke-width="0.1" fill="none" />
<path d="M-218.40777323726923,-111.00920948073446 L220.585210883158,106.6169064437377" stroke="#0d6d4d" stroke-width="0.1" fill="none" />
<path d="M-217.2862052390001,-113.18880250641016 L193.49780012070127,150.27841278257213" stroke="#0d6d4d" stroke-width="0.1" fill="none" />
<path d="M-216.1428867539123,-115.35706526123765 L157.89985497271437,187.33028532406541" stroke="#0d6d4d" stroke-width="0.1" fill="none" />
<path d="M-214.9779322289106,-117.51378070074134 L115.35706526123771,216.14288675391228" stroke="#0d6d4d" stroke-width="0.1" fill="none" />
<path d="M-213.79145827668114,-119.65873293633902 L67.74057305853263,235.4489642400272" stroke="#0d6d4d" stroke-width="0.1" fill="none" />
<path d="M-212.58358366401814,-121.79170725695326 L17.14467501270934,244.39938649413295" stroke="#0d6d4d" stroke-width="0.1" fill="none" />
<path d="M-211.35442929993573,-123.91249015050288 L-34.205290242836156,242.60049076496801" stroke="#0d6d4d" stroke-width="0.1" fill="none" />
<path d="M-210.10411822356463,-126.02086932527634 L-84.05081824588014,230.1313971456264" stroke="#0d6d4d" stroke-width="0.1" fill="none" />
<path d="M-208.83277559183566,-128.11663373118267 L-130.19957358087666,207.5405286669519" stroke="#0d6d4d" stroke-width="0.1" fill="none" />
<path d="M-207.54052866695193,-130.19957358087663 L-170.62181446842106,175.82149023229127" stroke="#0d6d4d" stroke-width="0.1" fill="none" />
<path d="M-206.22750680364922,-132.26948037075985 L-203.53966606549685,136.369367300527" stroke="#0d6d4d" stroke-width="0.1" fill="none" />
<path d="M-204.8938414362482,-134.32614690185073 L-227.50531600555536,90.91936641449055" stroke="#0d6d4d" stroke-width="0.1" fill="none" />
<path d="M-203.53966606549693,-136.36936730052687 L-241.46469293605824,41.47049632323084" stroke="#0d6d4d" stroke-width="0.1" fill="none" />
<path d="M-202.16511624520814,-138.3989370391315 L-244.80382730648083,-9.802353599963622" stroke="#0d6d4d" stroke-width="0.1" fill="none" />
<path d="M-200.77032956868976,-140.41465295644784 L-237.37585533925213,-60.64407062490488" stroke="#0d6d4d" stroke-width="0.1" fill="none" />
<path d="M-199.35544565497204,-142.41631327803523 L-219.5074784790523,-108.81850436285362" stroke="#0d6d4d" stroke-width="0.1" fill="none" />
<path d="M-197.920606134831,-144.4037176364276 L-191.98459421715768,-152.20681845197774" stroke="#0d6d4d" stroke-width="0.1" fill="none" />
<path d="M-196.4659546366117,-146.37666709118918 L-156.0177302843934,-188.90068246807968" stroke="#0d6d4d" stroke-width="0.1" fill="none" />
<path d="M-194.9916367718511,-148.33496414882936 L-113.18880250641024,-217.28620523900008" stroke="#0d6d4d" stroke-width="0.1" fill="none" />
<path d="M-193.4978001207012,-150.27841278257222 L-65.38153804869798,-236.11491795815584" stroke="#0d6d4d" stroke-width="0.1" fill="none" />
<path d="M-191.98459421715768,-152.20681845197774 L-14.69862421721923,-244.5586850760385" stroke="#0d6d4d" stroke-width="0.1" fill="none" />
<path d="M-190.45217053408987,-154.11998812241697 L36.63077317501642,-242.24612784645393" stroke="#0d6d4d" stroke-width="0.1" fill="none" />
<path d="M-188.90068246807976,-156.0177302843933 L86.3490542936816,-229.27895852560658" stroke="#0d6d4d" stroke-width="0.1" fill="none" />
<path d="M-187.33028532406547,-157.89985497271434 L132.26948037075985,-206.2275068036492" stroke="#0d6d4d" stroke-width="0.1" fill="none" />
<path d="M-185.7411362997965,-159.76617378550577 L172.3723521389552,-174.10563522782374" stroke="#0d6d4d" stroke-width="0.1" fill="none" />
<path d="M-184.13339447009665,-161.61649990307237 L204.8938414362481,-134.3261469018509" stroke="#0d6d4d" stroke-width="0.1" fill="none" />
<path d="M-182.50722077094196,-163.45064810659716 L228.4035689365654,-88.63864674643685" stroke="#0d6d4d" stroke-width="0.1" fill="none" />
<path d="M-180.8627779833501,-165.26843479668284 L241.86751593705333,-39.05258934359229" stroke="#0d6d4d" stroke-width="0.1" fill="none" />
<path d="M-179.20023071708601,-167.06967801173 L244.6935031786136,12.251102080131602" stroke="#0d6d4d" stroke-width="0.1" fill="none" />
<path d="M-177.51974539418464,-168.85419744615135 L236.7572364233926,63.01595830547826" stroke="#0d6d4d" stroke-width="0.1" fill="none" />
<path d="M-175.8214902322912,-170.62181446842115 L218.40777323726917,111.00920948073457" stroke="#0d6d4d" stroke-width="0.1" fill="none" />
<path d="M-174.10563522782383,-172.37235213895514 L190.45217053408987,154.11998812241697" stroke="#0d6d4d" stroke-width="0.1" fill="none" />
<path d="M-172.37235213895522,-174.10563522782374 L154.11998812241703,190.45217053408984" stroke="#0d6d4d" stroke-width="0.1" fill="none" />
<path d="M-170.6218144684212,-175.82149023229113 L111.00920948073461,218.40777323726917" stroke="#0d6d4d" stroke-width="0.1" fill="none" />
<path d="M-168.85419744615143,-177.51974539418455 L63.015958305478335,236.75723642339258" stroke="#0d6d4d" stroke-width="0.1" fill="none" />
<path d="M-167.06967801173008,-179.200230717086 L12.251102080131648,244.6935031786136" stroke="#0d6d4d" stroke-width="0.1" fill="none" />
<path d="M-165.26843479668293,-180.86277798335004 L-39.05258934359208,241.86751593705335" stroke="#0d6d4d" stroke-width="0.1" fill="none" />
<path d="M-163.4506481065972,-182.5072207709419 L-88.6386467464368,228.40356893656542" stroke="#0d6d4d" stroke-width="0.1" fill="none" />
<path d="M-161.61649990307242,-184.13339447009656 L-134.32614690185076,204.89384143624818" stroke="#0d6d4d" stroke-width="0.1" fill="none" />
<path d="M-159.76617378550586,-185.74113629979638 L-174.10563522782374,172.37235213895522" stroke="#0d6d4d" stroke-width="0.1" fill="none" />
<path d="M-157.8998549727144,-187.33028532406541 L-206.22750680364916,132.26948037075994" stroke="#0d6d4d" stroke-width="0.1" fill="none" />
<path d="M-156.0177302843934,-188.90068246807968 L-229.27895852560655,86.3490542936817" stroke="#0d6d4d" stroke-width="0.1" fill="none" />
<path d="M-154.11998812241706,-190.45217053408982 L-242.2461278464539,36.63077317501659" stroke="#0d6d4d" stroke-width="0.1" fill="none" />
<path d="M-152.20681845197782,-191.9845942171576 L-244.5586850760385,-14.698624217219127" stroke="#0d6d4d" stroke-width="0.1" fill="none" />
<path d="M-150.27841278257227,-193.49780012070116 L-236.11491795815587,-65.38153804869788" stroke="#0d6d4d" stroke-width="0.1" fill="none" />
<path d="M-148.33496414882944,-194.991636771851 L-217.2862052390001,-113.18880250641016" stroke="#0d6d4d" stroke-width="0.1" fill="none" />
<path d="M-146.37666709118926,-196.46595463661163 L-188.90068246807976,-156.0177302843933" stroke="#0d6d4d" stroke-width="0.1" fill="none" />
<path d="M-144.40371763642767,-197.9206061348309 L-152.20681845197782,-191.9845942171576" stroke="#0d6d4d" stroke-width="0.1" fill="none" />
<path d="M-142.41631327803535,-199.355445654972 L-108.81850436285369,-219.50747847905225" stroke="#0d6d4d" stroke-width="0.1" fill="none" />
<path d="M-140.41465295644795,-200.77032956868973 L-60.64407062490498,-237.3758553392521" stroke="#0d6d4d" stroke-width="0.1" fill="none" />
<path d="M-138.3989370391316,-202.16511624520805 L-9.802353599963727,-244.8038273064808" stroke="#0d6d4d" stroke-width="0.1" fill="none" />
<path d="M-136.369367300527,-203.53966606549685 L41.470496323230726,-241.46469293605827" stroke="#0d6d4d" stroke-width="0.1" fill="none" />
<path d="M-134.32614690185085,-204.89384143624812 L90.91936641449051,-227.5053160055554" stroke="#0d6d4d" stroke-width="0.1" fill="none" />
<path d="M-132.26948037075994,-206.22750680364916 L136.369367300527,-203.53966606549685" stroke="#0d6d4d" stroke-width="0.1" fill="none" />
<path d="M-130.1995735808767,-207.54052866695187 L175.82149023229124,-170.62181446842112" stroke="#0d6d4d" stroke-width="0.1" fill="none" />
<path d="M-128.11663373118276,-208.8327755918356 L207.54052866695184,-130.19957358087672" stroke="#0d6d4d" stroke-width="0.1" fill="none" />
<path d="M-126.02086932527641,-210.10411822356457 L230.13139714562638,-84.05081824588018" stroke="#0d6d4d" stroke-width="0.1" fill="none" />
<path d="M-123.91249015050299,-211.35442929993567 L242.60049076496801,-34.205290242836256" stroke="#0d6d4d" stroke-width="0.1" fill="none" />
<path d="M-121.79170725695336,-212.58358366401808 L244.39938649413298,17.14467501270924" stroke="#0d6d4d" stroke-width="0.1" fill="none" />
<path d="M-119.65873293633912,-213.7914582766811 L235.4489642400272,67.74057305853259" stroke="#0d6d4d" stroke-width="0.1" fill="none" />
<path d="M-117.51378070074142,-214.97793222891053 L216.1428867539123,115.35706526123768" stroke="#0d6d4d" stroke-width="0.1" fill="none" />
<path d="M-115.35706526123774,-216.14288675391225 L187.33028532406547,157.89985497271434" stroke="#0d6d4d" stroke-width="0.1" fill="none" />
<path d="M-113.18880250641024,-217.28620523900008 L150.2784127825722,193.4978001207012" stroke="#0d6d4d" stroke-width="0.1" fill="none" />
<path d="M-111.00920948073454,-218.4077732372692 L106.61690644373775,220.58521088315797" stroke="#0d6d4d" stroke-width="0.1" fill="none" />
<path d="M-108.81850436285369,-219.50747847905225 L58.266112434437325,237.97071278158896" stroke="#0d6d4d" stroke-width="0.1" fill="none" />
<path d="M-106.61690644373766,-220.58521088315803 L7.3526238979893215,244.889646416125" stroke="#0d6d4d" stroke-width="0.1" fill="none" />
<path d="M-104.4046361047335,-221.6408625678897 L-43.88425207991123,241.03769916630637" stroke="#0d6d4d" stroke-width="0.1" fill="none" />
<path d="M-102.18191479550345,-222.6743278618451 L-93.19098499635886,226.58428964826405" stroke="#0d6d4d" stroke-width="0.1" fill="none" />
<path d="M-99.9489650118593,-223.68550331449316 L-138.39893703913154,202.1651162452081" stroke="#0d6d4d" stroke-width="0.1" fill="none" />
<path d="M-97.7060102734888,-224.67428770653063 L-177.51974539418455,168.85419744615143" stroke="#0d6d4d" stroke-width="0.1" fill="none" />
<path d="M-95.45327510158263,-225.64058206001326 L-208.83277559183574,128.1166337311826" stroke="#0d6d4d" stroke-width="0.1" fill="none" />
<path d="M-93.19098499635903,-226.58428964826396 L-230.96079946697884,81.74416865791702" stroke="#0d6d4d" stroke-width="0.1" fill="none" />
<path d="M-90.91936641449057,-227.50531600555536 L-242.93056922064292,31.776383339430247" stroke="#0d6d4d" stroke-width="0.1" fill="none" />
<path d="M-88.63864674643678,-228.40356893656542 L-244.21562337878595,-19.589009615367623" stroke="#0d6d4d" stroke-width="0.1" fill="none" />
<path d="M-86.34905429368152,-229.2789585256066 L-234.75944193139583,-70.0928271940831" stroke="#0d6d4d" stroke-width="0.1" fill="none" />
<path d="M-84.05081824588021,-230.13139714562638 L-214.9779322289106,-117.51378070074134" stroke="#0d6d4d" stroke-width="0.1" fill="none" />
<path d="M-81.74416865791703,-230.96079946697884 L-185.7411362997965,-159.76617378550577" stroke="#0d6d4d" stroke-width="0.1" fill="none" />
<path d="M-79.42933642687765,-231.76708246596598 L-148.33496414882944,-194.991636771851" stroke="#0d6d4d" stroke-width="0.1" fill="none" />
<path d="M-77.10655326893468,-232.55016543314895 L-104.4046361047335,-221.6408625678897" stroke="#0d6d4d" stroke-width="0.1" fill="none" />
<path d="M-74.77605169615435,-233.30996998142632 L-55.88232176919718,-238.54174920479625" stroke="#0d6d4d" stroke-width="0.1" fill="none" />
<path d="M-72.43806499322035,-234.0464200538816 L-4.902158193704326,-244.9509519169989" stroke="#0d6d4d" stroke-width="0.1" fill="none" />
<path d="M-70.0928271940832,-234.7594419313958 L46.293614995153106,-240.5865773701445" stroke="#0d6d4d" stroke-width="0.1" fill="none" />
<path d="M-67.74057305853275,-235.44896424002715 L95.45327510158263,-225.64058206001326" stroke="#0d6d4d" stroke-width="0.1" fill="none" />
<path d="M-65.38153804869798,-236.11491795815584 L140.4146529564478,-200.7703295686898" stroke="#0d6d4d" stroke-width="0.1" fill="none" />
<path d="M-63.01595830547847,-236.75723642339256 L179.20023071708607,-167.06967801172996" stroke="#0d6d4d" stroke-width="0.1" fill="none" />
<path d="M-60.64407062490498,-237.3758553392521 L210.1041182235646,-126.02086932527638" stroke="#0d6d4d" stroke-width="0.1" fill="none" />
<path d="M-58.26611243443736,-237.97071278158896 L231.767082465966,-79.42933642687755" stroke="#0d6d4d" stroke-width="0.1" fill="none" />
<path d="M-55.88232176919718,-238.54174920479625 L243.23633017241616,-29.34429559991775" stroke="#0d6d4d" stroke-width="0.1" fill="none" />
<path d="M-53.49293724814065,-239.08890744776616 L244.0074141248018,22.03138334575182" stroke="#0d6d4d" stroke-width="0.1" fill="none" />
<path d="M-51.0981980501718,-239.61213273961195 L234.0464200538816,72.4380649932203" stroke="#0d6d4d" stroke-width="0.1" fill="none" />
<path d="M-48.69834389020213,-240.11137270515033 L213.79145827668108,119.65873293633915" stroke="#0d6d4d" stroke-width="0.1" fill="none" />
<path d="M-46.29361499515318,-240.5865773701445 L184.13339447009662,161.61649990307237" stroke="#0d6d4d" stroke-width="0.1" fill="none" />
<path d="M-43.884252079911214,-241.03769916630637 L146.37666709118915,196.46595463661174" stroke="#0d6d4d" stroke-width="0.1" fill="none" />
<path d="M-41.470496323230854,-241.46469293605824 L102.18191479550352,222.67432786184506" stroke="#0d6d4d" stroke-width="0.1" fill="none" />
<path d="M-39.05258934359228,-241.86751593705333 L53.49293724814061,239.08890744776616" stroke="#0d6d4d" stroke-width="0.1" fill="none" />
<path d="M-36.63077317501661,-242.2461278464539 L2.4512017802778168,244.98773767238305" stroke="#0d6d4d" stroke-width="0.1" fill="none" />
<path d="M-34.20529024283635,-242.600490764968 L-48.69834389020205,240.11137270515033" stroke="#0d6d4d" stroke-width="0.1" fill="none" />
<path d="M-31.77638333943004,-242.93056922064295 L-97.70601027348863,224.6742877065307" stroke="#0d6d4d" stroke-width="0.1" fill="none" />
<path d="M-29.34429559991769,-243.23633017241616 L-142.41631327803535,199.355445654972" stroke="#0d6d4d" stroke-width="0.1" fill="none" />
<path d="M-26.909270477823224,-243.51774301342263 L-180.86277798335004,165.26843479668293" stroke="#0d6d4d" stroke-width="0.1" fill="none" />
<path d="M-24.471551720703783,-243.77477957405873 L-211.3544292999358,123.9124901505028" stroke="#0d6d4d" stroke-width="0.1" fill="none" />
<path d="M-22.031383345751735,-244.0074141248018 L-232.55016543314895,77.10655326893466" stroke="#0d6d4d" stroke-width="0.1" fill="none" />
<path d="M-19.58900961536773,-244.21562337878595 L-243.51774301342263,26.909270477823206" stroke="#0d6d4d" stroke-width="0.1" fill="none" />
<path d="M-17.14467501270926,-244.39938649413298 L-243.77477957405873,-24.471551720703676" stroke="#0d6d4d" stroke-width="0.1" fill="none" />
<path d="M-14.69862421721923,-244.5586850760385 L-233.30996998142635,-74.77605169615427" stroke="#0d6d4d" stroke-width="0.1" fill="none" />
<path d="M-12.251102080131679,-244.6935031786136 L-212.58358366401814,-121.79170725695326" stroke="#0d6d4d" stroke-width="0.1" fill="none" />
<path d="M-9.802353599963727,-244.8038273064808 L-182.50722077094196,-163.45064810659716" stroke="#0d6d4d" stroke-width="0.1" fill="none" />
<path d="M-7.352623897989353,-244.889646416125 L-144.40371763642767,-197.9206061348309" stroke="#0d6d4d" stroke-width="0.1" fill="none" />
<path d="M-4.902158193704326,-244.9509519169989 L-99.9489650118593,-223.68550331449316" stroke="#0d6d4d" stroke-width="0.1" fill="none" />
<path d="M-2.4512017802778465,-244.98773767238305 L-51.0981980501718,-239.61213273961195" stroke="#0d6d4d" stroke-width="0.1" fill="none" />
</svg>