<?xml version="1.0" encoding="UTF-8"?>
<svg xmlns="http://www.w3.org/2000/svg" xmlns:xlink="http://www.w3.org/1999/xlink"
     width="500" height="500" viewBox="-250.0 -250.0 500 500">
<defs>
</defs>
<circle cx="0" cy="0" r="245.0" fill="white" stroke-width="2" stroke="black" />
<path d="M0.0,-245.0 L0.0,-245.0" stroke="#4c0618" stroke-width="0.1" fill="none" />
<path d="M4.072247390332907,-244.96615439932089 L109.95579914911323,-218.93999687923602" stroke="#4c0618" stroke-width="0.1" fill="none" />
<path d="M8.143369656918551,-244.8646269485055 L196.52018222498572,-146.30385496718262" stroke="#4c0618" stroke-width="0.1" fill="none" />
<path d="M12.212241986870804,-244.69544569863598 L241.27789948799096,-42.54380352839795" stroke="#4c0618" stroke-width="0.1" fill="none" />
<path d="M16.277740188939923,-244.4586573929043 L234.70743051729477,70.2667920142171" stroke="#4c0618" stroke-width="0.1" fill="none" />
<path d="M20.338741004116034,-244.1543274536978 L178.20654218539698,168.12920127783968" stroke="#4c0618" stroke-width="0.1" fill="none" />
<path d="M24.394122415975083,-243.78253996452335 L83.79493511478887,230.22469209254754" stroke="#4c0618" stroke-width="0.1" fill="none" />
<path d="M28.442763960681408,-243.34339764677605 L-28.442763960681273,243.34339764677605" stroke="#4c0618" stroke-width="0.1" fill="none" />
<path d="M32.48354703656142,-242.83702183135813 L-134.62969962734746,204.69451379616945" stroke="#4c0618" stroke-width="0.1" fill="none" />
<path d="M36.515355213162735,-242.2635524251565 L-212.17622392718752,122.49999999999991" stroke="#4c0618" stroke-width="0.1" fill="none" />
<path d="M40.53707453971344,-241.62314787238768 L-244.5854987764607,14.245483083066679" stroke="#4c0618" stroke-width="0.1" fill="none" />
<path d="M44.54759385289623,-240.91598511082114 L-224.96294618566716,-97.03954267959334" stroke="#4c0618" stroke-width="0.1" fill="none" />
<path d="M48.54580508385241,-240.14225952289323 L-157.4829643732022,-187.6808885641496" stroke="#4c0618" stroke-width="0.1" fill="none" />
<path d="M52.530603564330924,-239.3021848817246 L-56.50088833189791,-238.39599329205683" stroke="#4c0618" stroke-width="0.1" fill="none" />
<path d="M56.50088833189784,-238.39599329205683 L56.50088833189784,-238.39599329205683" stroke="#4c0618" stroke-width="0.1" fill="none" />
<path d="M60.45556243412194,-237.4239351261241 L157.48296437320212,-187.68088856414965" stroke="#4c0618" stroke-width="0.1" fill="none" />
<path d="M64.39353323165236,-236.38627895447755 L224.96294618566714,-97.03954267959344" stroke="#4c0618" stroke-width="0.1" fill="none" />
<path d="M68.31371270010462,-235.28331147178196 L244.5854987764607,14.24548308306651" stroke="#4c0618" stroke-width="0.1" fill="none" />
<path d="M72.21501773067153,-234.11533741760448 L212.17622392718746,122.50000000000003" stroke="#4c0618" stroke-width="0.1" fill="none" />
<path d="M76.09637042937601,-232.88267949221813 L134.62969962734752,204.6945137961694" stroke="#4c0618" stroke-width="0.1" fill="none" />
<path d="M79.95669841488312,-231.58567826744257 L28.44276396068144,243.34339764677605" stroke="#4c0618" stroke-width="0.1" fill="none" />
<path d="M83.79493511478883,-230.22469209254757 L-83.79493511478883,230.22469209254757" stroke="#4c0618" stroke-width="0.1" fill="none" />
<path d="M87.61002006030412,-228.8000969952441 L-178.20654218539684,168.12920127783983" stroke="#4c0618" stroke-width="0.1" fill="none" />
<path d="M91.40089917925249,-227.31228657779175 L-234.70743051729477,70.2667920142172" stroke="#4c0618" stroke-width="0.1" fill="none" />
<path d="M95.16652508730022,-225.76167190824987 L-241.27789948799096,-42.54380352839805" stroke="#4c0618" stroke-width="0.1" fill="none" />
<path d="M98.90585737733875,-224.1486814069035 L-196.52018222498577,-146.30385496718253" stroke="#4c0618" stroke-width="0.1" fill="none" />
<path d="M102.6178629069396,-222.4737607278947 L-109.95579914911329,-218.939996879236" stroke="#4c0618" stroke-width="0.1" fill="none" />
<path d="M106.30151608380174,-220.7373726360927 L0.0,-245.0" stroke="#4c0618" stroke-width="0.1" fill="none" />
<path d="M109.95579914911323,-218.93999687923602 L109.95579914911323,-218.93999687923602" stroke="#4c0618" stroke-width="0.1" fill="none" />
<path d="M113.57970245874839,-217.08213005538292 L196.52018222498572,-146.30385496718262" stroke="#4c0618" stroke-width="0.1" fill="none" />
<path d="M117.17222476222295,-215.16428547570598 L241.27789948799096,-42.54380352839795" stroke="#4c0618" stroke-width="0.1" fill="none" />
<path d="M120.7323734793303,-213.18699302266896 L234.70743051729477,70.2667920142171" stroke="#4c0618" stroke-width="0.1" fill="none" />
<path d="M124.25916497438202,-211.15079900362517 L178.20654218539698,168.12920127783968" stroke="#4c0618" stroke-width="0.1" fill="none" />
<path d="M127.75162482797704,-209.05626599987812 L83.79493511478887,230.22469209254754" stroke="#4c0618" stroke-width="0.1" fill="none" />
<path d="M131.20878810622483,-206.90397271124542 L-28.442763960681273,243.34339764677605" stroke="#4c0618" stroke-width="0.1" fill="none" />
<path d="M134.62969962734746,-204.69451379616945 L-134.62969962734746,204.69451379616945" stroke="#4c0618" stroke-width="0.1" fill="none" />
<path d="M138.0134142255874,-202.42849970741875 L-212.17622392718752,122.49999999999991" stroke="#4c0618" stroke-width="0.1" fill="none" />
<path d="M141.35899701234783,-200.1065565234259 L-244.5854987764607,14.245483083066679" stroke="#4c0618" stroke-width="0.1" fill="none" />
<path d="M144.66552363449372,-197.72932577530764 L-224.96294618566716,-97.03954267959334" stroke="#4c0618" stroke-width="0.1" fill="none" />
<path d="M147.93208052974197,-195.297464269616 L-157.4829643732022,-187.6808885641496" stroke="#4c0618" stroke-width="0.1" fill="none" />
<path d="M151.15776517906986,-192.8116439068688 L-56.50088833189791,-238.39599329205683" stroke="#4c0618" stroke-width="0.1" fill="none" />
<path d="M154.34168635607293,-190.27255149590974 L56.50088833189784,-238.39599329205683" stroke="#4c0618" stroke-width="0.1" fill="none" />
<path d="M157.48296437320212,-187.68088856414965 L157.48296437320212,-187.68088856414965" stroke="#4c0618" stroke-width="0.1" fill="none" />
<path d="M160.58073132481348,-185.03737116374103 L224.96294618566714,-97.03954267959344" stroke="#4c0618" stroke-width="0.1" fill="none" />
<path d="M163.63413132696215,-182.34272967373968 L244.5854987764607,14.24548308306651" stroke="#4c0618" stroke-width="0.1" fill="none" />
<path d="M166.64232075387528,-179.59770859830743 L212.17622392718746,122.50000000000003" stroke="#4c0618" stroke-width="0.1" fill="none" />
<path d="M169.60446847103748,-176.80306636101324 L134.62969962734752,204.6945137961694" stroke="#4c0618" stroke-width="0.1" fill="none" />
<path d="M172.51975606482623,-173.95957509528716 L28.44276396068144,243.34339764677605" stroke="#4c0618" stroke-width="0.1" fill="none" />
<path d="M175.38737806863102,-171.06802043108786 L-83.79493511478883,230.22469209254757" stroke="#4c0618" stroke-width="0.1" fill="none" />
<path d="M178.2065421853969,-168.12920127783977 L-178.20654218539684,168.12920127783983" stroke="#4c0618" stroke-width="0.1" fill="none" />
<path d="M180.9764695065285,-165.14392960370228 L-234.70743051729477,70.2667920142172" stroke="#4c0618" stroke-width="0.1" fill="none" />
<path d="M183.69639472709488,-162.11303021123058 L-241.27789948799096,-42.54380352839805" stroke="#4c0618" stroke-width="0.1" fill="none" />
<path d="M186.3655663572766,-159.0373405094902 L-196.52018222498577,-146.30385496718253" stroke="#4c0618" stroke-width="0.1" fill="none" />
<path d="M188.98324692999492,-155.91771028268906 L-109.95579914911329,-218.939996879236" stroke="#4c0618" stroke-width="0.1" fill="none" />
<path d="M191.54871320466728,-152.75500145538973 L0.0,-245.0" stroke="#4c0618" stroke-width="0.1" fill="none" />
<path d="M194.06125636703177,-149.55008785436797 L109.95579914911323,-218.93999687923602" stroke="#4c0618" stroke-width="0.1" fill="none" />
<path d="M196.52018222498572,-146.30385496718262 L196.52018222498572,-146.30385496718262" stroke="#4c0618" stroke-width="0.1" fill="none" />
<path d="M198.9248114003848,-143.01719969752355 L241.27789948799096,-42.54380352839795" stroke="#4c0618" stroke-width="0.1" fill="none" />
<path d="M201.27447951674864,-139.6910301174056 L234.70743051729477,70.2667920142171" stroke="#4c0618" stroke-width="0.1" fill="none" />
<path d="M203.56853738282175,-136.32626521627705 L178.20654218539698,168.12920127783968" stroke="#4c0618" stroke-width="0.1" fill="none" />
<path d="M205.80635117193899,-132.92383464711108 L83.79493511478887,230.22469209254754" stroke="#4c0618" stroke-width="0.1" fill="none" />
<path d="M207.98730259714614,-129.4846784695516 L-28.442763960681273,243.34339764677605" stroke="#4c0618" stroke-width="0.1" fill="none" />
<path d="M210.11078908202654,-126.00974689018368 L-134.62969962734746,204.69451379616945" stroke="#4c0618" stroke-width="0.1" fill="none" />
<path d="M212.1762239271875,-122.49999999999999 L-212.17622392718752,122.49999999999991" stroke="#4c0618" stroke-width="0.1" fill="none" />
<path d="M214.18303647235948,-118.95640750913729 L-244.5854987764607,14.245483083066679" stroke="#4c0618" stroke-width="0.1" fill="none" />
<path d="M216.13067225406468,-115.37994847895398 L-224.96294618566716,-97.03954267959334" stroke="#4c0618" stroke-width="0.1" fill="none" />
<path d="M218.0185931588098,-111.77161105152491 L-157.4829643732022,-187.6808885641496" stroke="#4c0618" stroke-width="0.1" fill="none" />
<path d="M219.84627757176165,-108.13239217662729 L-56.50088833189791,-238.39599329205683" stroke="#4c0618" stroke-width="0.1" fill="none" />
<path d="M221.61322052086473,-104.46329733629219 L56.50088833189784,-238.39599329205683" stroke="#4c0618" stroke-width="0.1" fill="none" />
<path d="M223.31893381635993,-100.76534026699981 L157.48296437320212,-187.68088856414965" stroke="#4c0618" stroke-width="0.1" fill="none" />
<path d="M224.96294618566714,-97.03954267959344 L224.96294618566714,-97.03954267959344" stroke="#4c0618" stroke-width="0.1" fill="none" />
<path d="M226.54480340359316,-93.28693397699016 L244.5854987764607,14.24548308306651" stroke="#4c0618" stroke-width="0.1" fill="none" />
<path d="M228.06406841783004,-89.50855096976677 L212.17622392718746,122.50000000000003" stroke="#4c0618" stroke-width="0.1" fill="none" />
<path d="M229.52032146970836,-85.70543758969865 L134.62969962734752,204.6945137961694" stroke="#4c0618" stroke-width="0.1" fill="none" />
<path d="M230.91316021017283,-81.87864460133095 L28.44276396068144,243.34339764677605" stroke="#4c0618" stroke-width="0.1" fill="none" />
<path d="M232.24219981094728,-78.02922931166269 L-83.79493511478883,230.22469209254757" stroke="#4c0618" stroke-width="0.1" fill="none" />
<path d="M233.5070730708594,-74.15825527802237 L-178.20654218539684,168.12920127783983" stroke="#4c0618" stroke-width="0.1" fill="none" />
<path d="M234.70743051729477,-70.26679201421713 L-234.70743051729477,70.2667920142172" stroke="#4c0618" stroke-width="0.1" fill="none" />
<path d="M235.84294050275295,-66.35591469503625 L-241.27789948799096,-42.54380352839805" stroke="#4c0618" stroke-width="0.1" fill="none" />
<path d="M236.91328929647858,-62.426703859190376 L-196.52018222498577,-146.30385496718253" stroke="#4c0618" stroke-width="0.1" fill="none" />
<path d="M237.9181811711421,-58.48024511076877 L-109.95579914911329,-218.939996879236" stroke="#4c0618" stroke-width="0.1" fill="none" />
<path d="M238.85733848454677,-54.51762881929704 L0.0,-245.0" stroke="#4c0618" stroke-width="0.1" fill="none" />
<path d="M239.7305017563382,-50.53994981847851 L109.95579914911323,-218.93999687923602" stroke="#4c0618" stroke-width="0.1" fill="none" />
<path d="M240.53742973969662,-46.548307103701525 L196.52018222498572,-146.30385496718262" stroke="#4c0618" stroke-width="0.1" fill="none" />
<path d="M241.27789948799096,-42.54380352839795 L241.27789948799096,-42.54380352839795" stroke="#4c0618" stroke-width="0.1" fill="none" />
<path d="M241.95170641637705,-38.52754549933439 L234.70743051729477,70.2667920142171" stroke="#4c0618" stroke-width="0.1" fill="none" />
<path d="M242.55866435832235,-34.50064267092299 L178.20654218539698,168.12920127783968" stroke="#4c0618" stroke-width="0.1" fill="none" />
<path d="M243.09860561704215,-30.46420763863389 L83.79493511478887,230.22469209254754" stroke="#4c0618" stroke-width="0.1" fill="none" />
<path d="M243.57138101183247,-26.419355631595923 L-28.442763960681273,243.34339764677605" stroke="#4c0618" stroke-width="0.1" fill="none" />
<path d="M243.97685991928742,-22.367204204468827 L-134.62969962734746,204.69451379616945" stroke="#4c0618" stroke-width="0.1" fill="none" />
<path d="M244.31493030938913,-18.308872928673917 L-212.17622392718752,122.49999999999991" stroke="#4c0618" stroke-width="0.1" fill="none" />
<path d="M244.5854987764607,-14.245483083066595 L-244.5854987764607,14.245483083066679" stroke="#4c0618" stroke-width="0.1" fill="none" />
<path d="M244.78849056497322,-10.178157344137553 L-224.96294618566716,-97.03954267959334" stroke="#4c0618" stroke-width="0.1" fill="none" />
<path d="M244.92384959019998,-6.108019475827893 L-157.4829643732022,-187.6808885641496" stroke="#4c0618" stroke-width="0.1" fill="none" />
<path d="M244.99153845371234,-2.0361940190437395 L-56.50088833189791,-238.39599329205683" stroke="#4c0618" stroke-width="0.1" fill="none" />
<path d="M244.99153845371234,2.036194019043764 L56.50088833189784,-238.39599329205683" stroke="#4c0618" stroke-width="0.1" fill="none" />
<path d="M244.92384959019998,6.108019475827863 L157.48296437320212,-187.68088856414965" stroke="#4c0618" stroke-width="0.1" fill="none" />
<path d="M244.78849056497322,10.178157344137468 L224.96294618566714,-97.03954267959344" stroke="#4c0618" stroke-width="0.1" fill="none" />
<path d="M244.5854987764607,14.24548308306651 L244.5854987764607,14.24548308306651" stroke="#4c0618" stroke-width="0.1" fill="none" />
<path d="M244.31493030938913,18.308872928673946 L212.17622392718746,122.50000000000003" stroke="#4c0618" stroke-width="0.1" fill="none" />
<path d="M243.97685991928742,22.36720420446885 L134.62969962734752,204.6945137961694" stroke="#4c0618" stroke-width="0.1" fill="none" />
<path d="M243.57138101183247,26.419355631595845 L28.44276396068144,243.34339764677605" stroke="#4c0618" stroke-width="0.1" fill="none" />
<path d="M243.09860561704215,30.464207638633866 L-83.79493511478883,230.22469209254757" stroke="#4c0618" stroke-width="0.1" fill="none" />
<path d="M242.55866435832237,34.500642670922915 L-178.20654218539684,168.12920127783983" stroke="#4c0618" stroke-width="0.1" fill="none" />
<path d="M241.95170641637705,38.527545499334416 L-234.70743051729477,70.2667920142172" stroke="#4c0618" stroke-width="0.1" fill="none" />
<path d="M241.27789948799096,42.54380352839792 L-241.27789948799096,-42.54380352839805" stroke="#4c0618" stroke-width="0.1" fill="none" />
<path d="M240.53742973969662,46.54830710370155 L-196.52018222498577,-146.30385496718253" stroke="#4c0618" stroke-width="0.1" fill="none" />
<path d="M239.7305017563382,50.53994981847843 L-109.95579914911329,-218.939996879236" stroke="#4c0618" stroke-width="0.1" fill="none" />
<path d="M238.85733848454677,54.517628819297016 L0.0,-245.0" stroke="#4c0618" stroke-width="0.1" fill="none" />
<path d="M237.91818117114212,58.48024511076869 L109.95579914911323,-218.93999687923602" stroke="#4c0618" stroke-width="0.1" fill="none" />
<path d="M236.91328929647858,62.426703859190404 L196.52018222498572,-146.30385496718262" stroke="#4c0618" stroke-width="0.1" fill="none" />
<path d="M235.84294050275298,66.35591469503623 L241.27789948799096,-42.54380352839795" stroke="#4c0618" stroke-width="0.1" fill="none" />
<path d="M234.70743051729477,70.2667920142171 L234.70743051729477,70.2667920142171" stroke="#4c0618" stroke-width="0.1" fill="none" />
<path d="M233.50707307085943,74.15825527802231 L178.20654218539698,168.12920127783968" stroke="#4c0618" stroke-width="0.1" fill="none" />
<path d="M232.24219981094728,78.02922931166266 L83.79493511478887,230.22469209254754" stroke="#4c0618" stroke-width="0.1" fill="none" />
<path d="M230.9131602101728,81.87864460133098 L-28.442763960681273,243.34339764677605" stroke="#4c0618" stroke-width="0.1" fill="none" />
<path d="M229.5203214697084,85.70543758969862 L-134.62969962734746,204.69451379616945" stroke="#4c0618" stroke-width="0.1" fill="none" />
<path d="M228.06406841783004,89.50855096976674 L-212.17622392718752,122.49999999999991" stroke="#4c0618" stroke-width="0.1" fill="none" />
<path d="M226.54480340359316,93.28693397699013 L-244.5854987764607,14.245483083066679" stroke="#4c0618" stroke-width="0.1" fill="none" />
<path d="M224.96294618566716,97.03954267959337 L-224.96294618566716,-97.03954267959334" stroke="#4c0618" stroke-width="0.1" fill="none" />
<path d="M223.31893381635996,100.76534026699979 L-157.4829643732022,-187.6808885641496" stroke="#4c0618" stroke-width="0.1" fill="none" />
<path d="M221.61322052086473,104.46329733629216 L-56.50088833189791,-238.39599329205683" stroke="#4c0618" stroke-width="0.1" fill="none" />
<path d="M219.84627757176168,108.13239217662726 L56.50088833189784,-238.39599329205683" stroke="#4c0618" stroke-width="0.1" fill="none" />
<path d="M218.0185931588098,111.77161105152494 L157.48296437320212,-187.68088856414965" stroke="#4c0618" stroke-width="0.1" fill="none" />
<path d="M216.13067225406476,115.37994847895385 L224.96294618566714,-97.03954267959344" stroke="#4c0618" stroke-width="0.1" fill="none" />
<path d="M214.1830364723595,118.9564075091372 L244.5854987764607,14.24548308306651" stroke="#4c0618" stroke-width="0.1" fill="none" />
<path d="M212.17622392718746,122.50000000000003 L212.17622392718746,122.50000000000003" stroke="#4c0618" stroke-width="0.1" fill="none" />
<path d="M210.1107890820266,126.00974689018359 L134.62969962734752,204.6945137961694" stroke="#4c0618" stroke-width="0.1" fill="none" />
<path d="M207.9873025971462,129.48467846955157 L28.44276396068144,243.34339764677605" stroke="#4c0618" stroke-width="0.1" fill="none" />
<path d="M205.806351171939,132.92383464711102 L-83.79493511478883,230.22469209254757" stroke="#4c0618" stroke-width="0.1" fill="none" />
<path d="M203.56853738282183,136.32626521627694 L-178.20654218539684,168.12920127783983" stroke="#4c0618" stroke-width="0.1" fill="none" />
<path d="M201.27447951674864,139.6910301174056 L-234.70743051729477,70.2667920142172" stroke="#4c0618" stroke-width="0.1" fill="none" />
<path d="M198.9248114003848,143.01719969752355 L-241.27789948799096,-42.54380352839805" stroke="#4c0618" stroke-width="0.1" fill="none" />
<path d="M196.52018222498577,146.30385496718256 L-196.52018222498577,-146.30385496718253" stroke="#4c0618" stroke-width="0.1" fill="none" />
<path d="M194.06125636703177,149.55008785436792 L-109.95579914911329,-218.939996879236" stroke="#4c0618" stroke-width="0.1" fill="none" />
<path d="M191.54871320466734,152.75500145538967 L0.0,-245.0" stroke="#4c0618" stroke-width="0.1" fill="none" />
<path d="M188.98324692999495,155.91771028268903 L109.95579914911323,-218.93999687923602" stroke="#4c0618" stroke-width="0.1" fill="none" />
<path d="M186.3655663572766,159.0373405094902 L196.52018222498572,-146.30385496718262" stroke="#4c0618" stroke-width="0.1" fill="none" />
<path d="M183.69639472709488,162.11303021123058 L241.27789948799096,-42.54380352839795" stroke="#4c0618" stroke-width="0.1" fill="none" />
<path d="M180.97646950652853,165.14392960370222 L234.70743051729477,70.2667920142171" stroke="#4c0618" stroke-width="0.1" fill="none" />
<path d="M178.20654218539698,168.12920127783968 L178.20654218539698,168.12920127783968" stroke="#4c0618" stroke-width="0.1" fill="none" />
<path d="M175.38737806863105,171.06802043108783 L83.79493511478887,230.22469209254754" stroke="#4c0618" stroke-width="0.1" fill="none" />
<path d="M172.51975606482623,173.95957509528716 L-28.442763960681273,243.34339764677605" stroke="#4c0618" stroke-width="0.1" fill="none" />
<path d="M169.6044684710375,176.80306636101324 L-134.62969962734746,204.69451379616945" stroke="#4c0618" stroke-width="0.1" fill="none" />
<path d="M166.64232075387525,179.59770859830746 L-212.17622392718752,122.49999999999991" stroke="#4c0618" stroke-width="0.1" fill="none" />
<path d="M163.63413132696223,182.34272967373957 L-244.5854987764607,14.245483083066679" stroke="#4c0618" stroke-width="0.1" fill="none" />
<path d="M160.58073132481354,185.037371163741 L-224.96294618566716,-97.03954267959334" stroke="#4c0618" stroke-width="0.1" fill="none" />
<path d="M157.4829643732021,187.68088856414965 L-157.4829643732022,-187.6808885641496" stroke="#4c0618" stroke-width="0.1" fill="none" />
<path d="M154.34168635607296,190.2725514959097 L-56.50088833189791,-238.39599329205683" stroke="#4c0618" stroke-width="0.1" fill="none" />
<path d="M151.15776517906988,192.81164390686877 L56.50088833189784,-238.39599329205683" stroke="#4c0618" stroke-width="0.1" fill="none" />
<path d="M147.93208052974197,195.297464269616 L157.48296437320212,-187.68088856414965" stroke="#4c0618" stroke-width="0.1" fill="none" />
<path d="M144.6655236344938,197.7293257753076 L224.96294618566714,-97.03954267959344" stroke="#4c0618" stroke-width="0.1" fill="none" />
<path d="M141.35899701234786,200.10655652342584 L244.5854987764607,14.24548308306651" stroke="#4c0618" stroke-width="0.1" fill="none" />
<path d="M138.01341422558735,202.42849970741878 L212.17622392718746,122.50000000000003" stroke="#4c0618" stroke-width="0.1" fill="none" />
<path d="M134.62969962734752,204.6945137961694 L134.62969962734752,204.6945137961694" stroke="#4c0618" stroke-width="0.1" fill="none" />
<path d="M131.20878810622486,206.90397271124542 L28.44276396068144,243.34339764677605" stroke="#4c0618" stroke-width="0.1" fill="none" />
<path d="M127.75162482797704,209.05626599987812 L-83.79493511478883,230.22469209254757" stroke="#4c0618" stroke-width="0.1" fill="none" />
<path d="M124.25916497438209,211.1507990036251 L-178.20654218539684,168.12920127783983" stroke="#4c0618" stroke-width="0.1" fill="none" />
<path d="M120.7323734793303,213.18699302266896 L-234.70743051729477,70.2667920142172" stroke="#4c0618" stroke-width="0.1" fill="none" />
<path d="M117.17222476222292,215.164285475706 L-241.27789948799096,-42.54380352839805" stroke="#4c0618" stroke-width="0.1" fill="none" />
<path d="M113.57970245874843,217.0821300553829 L-196.52018222498577,-146.30385496718253" stroke="#4c0618" stroke-width="0.1" fill="none" />
<path d="M109.95579914911328,218.939996879236 L-109.95579914911329,-218.939996879236" stroke="#4c0618" stroke-width="0.1" fill="none" />
<path d="M106.30151608380177,220.73737263609266 L0.0,-245.0" stroke="#4c0618" stroke-width="0.1" fill="none" />
<path d="M102.61786290693969,222.47376072789467 L109.95579914911323,-218.93999687923602" stroke="#4c0618" stroke-width="0.1" fill="none" />
<path d="M98.90585737733883,224.14868140690348 L196.52018222498572,-146.30385496718262" stroke="#4c0618" stroke-width="0.1" fill="none" />
<path d="M95.16652508730027,225.76167190824984 L241.27789948799096,-42.54380352839795" stroke="#4c0618" stroke-width="0.1" fill="none" />
<path d="M91.40089917925246,227.31228657779175 L234.70743051729477,70.2667920142171" stroke="#4c0618" stroke-width="0.1" fill="none" />
<path d="M87.61002006030408,228.80009699524413 L178.20654218539698,168.12920127783968" stroke="#4c0618" stroke-width="0.1" fill="none" />
<path d="M83.79493511478887,230.22469209254754 L83.79493511478887,230.22469209254754" stroke="#4c0618" stroke-width="0.1" fill="none" />
<path d="M79.95669841488315,231.58567826744255 L-28.442763960681273,243.34339764677605" stroke="#4c0618" stroke-width="0.1" fill="none" />
<path d="M76.09637042937602,232.88267949221813 L-134.62969962734746,204.69451379616945" stroke="#4c0618" stroke-width="0.1" fill="none" />
<path d="M72.21501773067152,234.11533741760448 L-212.17622392718752,122.49999999999991" stroke="#4c0618" stroke-width="0.1" fill="none" />
<path d="M68.31371270010469,235.28331147178193 L-244.5854987764607,14.245483083066679" stroke="#4c0618" stroke-width="0.1" fill="none" />
<path d="M64.39353323165243,236.38627895447755 L-224.96294618566716,-97.03954267959334" stroke="#4c0618" stroke-width="0.1" fill="none" />
<path d="M60.455562434121994,237.42393512612406 L-157.4829643732022,-187.6808885641496" stroke="#4c0618" stroke-width="0.1" fill="none" />
<path d="M56.500888331897876,238.39599329205683 L-56.50088833189791,-238.39599329205683" stroke="#4c0618" stroke-width="0.1" fill="none" />
<path d="M52.530603564331045,239.30218488172457 L56.50088833189784,-238.39599329205683" stroke="#4c0618" stroke-width="0.1" fill="none" />
<path d="M48.54580508385241,240.14225952289323 L157.48296437320212,-187.68088856414965" stroke="#4c0618" stroke-width="0.1" fill="none" />
<path d="M44.54759385289622,240.91598511082114 L224.96294618566714,-97.03954267959344" stroke="#4c0618" stroke-width="0.1" fill="none" />
<path d="M40.53707453971341,241.62314787238768 L244.5854987764607,14.24548308306651" stroke="#4c0618" stroke-width="0.1" fill="none" />
<path d="M36.51535521316269,242.2635524251565 L212.17622392718746,122.50000000000003" stroke="#4c0618" stroke-width="0.1" fill="none" />
<path d="M32.48354703656147,242.8370218313581 L134.62969962734752,204.6945137961694" stroke="#4c0618" stroke-width="0.1" fill="none" />
<path d="M28.44276396068144,243.34339764677605 L28.44276396068144,243.34339764677605" stroke="#4c0618" stroke-width="0.1" fill="none" />
<path d="M24.394122415975097,243.78253996452335 L-83.79493511478883,230.22469209254757" stroke="#4c0618" stroke-width="0.1" fill="none" />
<path d="M20.338741004116144,244.1543274536978 L-178.20654218539684,168.12920127783983" stroke="#4c0618" stroke-width="0.1" fill="none" />
<path d="M16.277740188940015,244.45865739290429 L-234.70743051729477,70.2667920142172" stroke="#4c0618" stroke-width="0.1" fill="none" />
<path d="M12.212241986870882,244.69544569863598 L-241.27789948799096,-42.54380352839805" stroke="#4c0618" stroke-width="0.1" fill="none" />
<path d="M8.143369656918505,244.86462694850553 L-196.52018222498577,-146.30385496718253" stroke="#4c0618" stroke-width="0.1" fill="none" />
<path d="M4.072247390332844,244.9661543993209 L-109.95579914911329,-218.939996879236" stroke="#4c0618" stroke-width="0.1" fill="none" />
<path d="M3.0003846579110155e-14,245.0 L0.0,-245.0" stroke="#4c0618" stroke-width="0.1" fill="none" />
<path d="M-4.072247390332894,244.96615439932089 L109.95579914911323,-218.93999687923602" stroke="#4c0618" stroke-width="0.1" fill="none" />
<path d="M-8.143369656918553,244.8646269485055 L196.52018222498572,-146.30385496718262" stroke="#4c0618" stroke-width="0.1" fill="none" />
<path d="M-12.212241986870822,244.69544569863598 L241.27789948799096,-42.54380352839795" stroke="#4c0618" stroke-width="0.1" fill="none" />
<path d="M-16.27774018893985,244.4586573929043 L234.70743051729477,70.2667920142171" stroke="#4c0618" stroke-width="0.1" fill="none" />
<path d="M-20.338741004115978,244.1543274536978 L178.20654218539698,168.12920127783968" stroke="#4c0618" stroke-width="0.1" fill="none" />
<path d="M-24.394122415975037,243.78253996452335 L83.79493511478887,230.22469209254754" stroke="#4c0618" stroke-width="0.1" fill="none" />
<path d="M-28.442763960681273,243.34339764677605 L-28.442763960681273,243.34339764677605" stroke="#4c0618" stroke-width="0.1" fill="none" />
<path d="M-32.483547036561305,242.83702183135813 L-134.62969962734746,204.69451379616945" stroke="#4c0618" stroke-width="0.1" fill="none" />
<path d="M-36.51535521316274,242.2635524251565 L-212.17622392718752,122.49999999999991" stroke="#4c0618" stroke-width="0.1" fill="none" />
<path d="M-40.537074539713466,241.62314787238768 L-244.5854987764607,14.245483083066679" stroke="#4c0618" stroke-width="0.1" fill="none" />
<path d="M-44.54759385289628,240.91598511082114 L-224.96294618566716,-97.03954267959334" stroke="#4c0618" stroke-width="0.1" fill="none" />
<path d="M-48.54580508385236,240.14225952289323 L-157.4829643732022,-187.6808885641496" stroke="#4c0618" stroke-width="0.1" fill="none" />
<path d="M-52.53060356433088,239.30218488172463 L-56.50088833189791,-238.39599329205683" stroke="#4c0618" stroke-width="0.1" fill="none" />
<path d="M-56.50088833189782,238.39599329205683 L56.50088833189784,-238.39599329205683" stroke="#4c0618" stroke-width="0.1" fill="none" />
<path d="M-60.45556243412194,237.4239351261241 L157.48296437320212,-187.68088856414965" stroke="#4c0618" stroke-width="0.1" fill="none" />
<path d="M-64.39353323165226,236.38627895447758 L224.96294618566714,-97.03954267959344" stroke="#4c0618" stroke-width="0.1" fill="none" />
<path d="M-68.31371270010455,235.28331147178199 L244.5854987764607,14.24548308306651" stroke="#4c0618" stroke-width="0.1" fill="none" />
<path d="M-72.21501773067146,234.11533741760448 L212.17622392718746,122.50000000000003" stroke="#4c0618" stroke-width="0.1" fill="none" />
<path d="M-76.09637042937608,232.8826794922181 L134.62969962734752,204.6945137961694" stroke="#4c0618" stroke-width="0.1" fill="none" />
<path d="M-79.95669841488319,231.58567826744255 L28.44276396068144,243.34339764677605" stroke="#4c0618" stroke-width="0.1" fill="none" />
<path d="M-83.79493511478883,230.22469209254757 L-83.79493511478883,230.22469209254757" stroke="#4c0618" stroke-width="0.1" fill="none" />
<path d="M-87.61002006030414,228.8000969952441 L-178.20654218539684,168.12920127783983" stroke="#4c0618" stroke-width="0.1" fill="none" />
<path d="M-91.40089917925252,227.31228657779175 L-234.70743051729477,70.2667920142172" stroke="#4c0618" stroke-width="0.1" fill="none" />
<path d="M-95.16652508730013,225.7616719082499 L-241.27789948799096,-42.54380352839805" stroke="#4c0618" stroke-width="0.1" fill="none" />
<path d="M-98.90585737733868,224.14868140690353 L-196.52018222498577,-146.30385496718253" stroke="#4c0618" stroke-width="0.1" fill="none" />
<path d="M-102.61786290693955,222.47376072789473 L-109.95579914911329,-218.939996879236" stroke="#4c0618" stroke-width="0.1" fill="none" />
<path d="M-106.30151608380172,220.7373726360927 L0.0,-245.0" stroke="#4c0618" stroke-width="0.1" fill="none" />
<path d="M-109.95579914911312,218.93999687923605 L109.95579914911323,-218.93999687923602" stroke="#4c0618" stroke-width="0.1" fill="none" />
<path d="M-113.57970245874829,217.08213005538298 L196.52018222498572,-146.30385496718262" stroke="#4c0618" stroke-width="0.1" fill="none" />
<path d="M-117.17222476222298,215.16428547570598 L241.27789948799096,-42.54380352839795" stroke="#4c0618" stroke-width="0.1" fill="none" />
<path d="M-120.73237347933036,213.18699302266893 L234.70743051729477,70.2667920142171" stroke="#4c0618" stroke-width="0.1" fill="none" />
<path d="M-124.25916497438205,211.15079900362514 L178.20654218539698,168.12920127783968" stroke="#4c0618" stroke-width="0.1" fill="none" />
<path d="M-127.75162482797698,209.05626599987815 L83.79493511478887,230.22469209254754" stroke="#4c0618" stroke-width="0.1" fill="none" />
<path d="M-131.2087881062248,206.90397271124544 L-28.442763960681273,243.34339764677605" stroke="#4c0618" stroke-width="0.1" fill="none" />
<path d="M-134.62969962734746,204.69451379616945 L-134.62969962734746,204.69451379616945" stroke="#4c0618" stroke-width="0.1" fill="none" />
<path d="M-138.0134142255874,202.42849970741875 L-212.17622392718752,122.49999999999991" stroke="#4c0618" stroke-width="0.1" fill="none" />
<path d="M-141.35899701234774,200.10655652342592 L-244.5854987764607,14.245483083066679" stroke="#4c0618" stroke-width="0.1" fill="none" />
<path d="M-144.66552363449367,197.72932577530767 L-224.96294618566716,-97.03954267959334" stroke="#4c0618" stroke-width="0.1" fill="none" />
<path d="M-147.9320805297419,195.29746426961603 L-157.4829643732022,-187.6808885641496" stroke="#4c0618" stroke-width="0.1" fill="none" />
<path d="M-151.15776517906974,192.81164390686888 L-56.50088833189791,-238.39599329205683" stroke="#4c0618" stroke-width="0.1" fill="none" />
<path d="M-154.341686356073,190.27255149590965 L56.50088833189784,-238.39599329205683" stroke="#4c0618" stroke-width="0.1" fill="none" />
<path d="M-157.48296437320212,187.68088856414965 L157.48296437320212,-187.68088856414965" stroke="#4c0618" stroke-width="0.1" fill="none" />
<path d="M-160.5807313248135,185.03737116374103 L224.96294618566714,-97.03954267959344" stroke="#4c0618" stroke-width="0.1" fill="none" />
<path d="M-163.6341313269622,182.34272967373963 L244.5854987764607,14.24548308306651" stroke="#4c0618" stroke-width="0.1" fill="none" />
<path d="M-166.64232075387523,179.5977085983075 L212.17622392718746,122.50000000000003" stroke="#4c0618" stroke-width="0.1" fill="none" />
<path d="M-169.60446847103745,176.80306636101326 L134.62969962734752,204.6945137961694" stroke="#4c0618" stroke-width="0.1" fill="none" />
<path d="M-172.51975606482617,173.95957509528722 L28.44276396068144,243.34339764677605" stroke="#4c0618" stroke-width="0.1" fill="none" />
<path d="M-175.38737806863102,171.0680204310879 L-83.79493511478883,230.22469209254757" stroke="#4c0618" stroke-width="0.1" fill="none" />
<path d="M-178.20654218539684,168.12920127783983 L-178.20654218539684,168.12920127783983" stroke="#4c0618" stroke-width="0.1" fill="none" />
<path d="M-180.9764695065284,165.14392960370233 L-234.70743051729477,70.2667920142172" stroke="#4c0618" stroke-width="0.1" fill="none" />
<path d="M-183.6963947270948,162.11303021123064 L-241.27789948799096,-42.54380352839805" stroke="#4c0618" stroke-width="0.1" fill="none" />
<path d="M-186.36556635727655,159.03734050949026 L-196.52018222498577,-146.30385496718253" stroke="#4c0618" stroke-width="0.1" fill="none" />
<path d="M-188.9832469299949,155.9177102826891 L-109.95579914911329,-218.939996879236" stroke="#4c0618" stroke-width="0.1" fill="none" />
<path d="M-191.54871320466728,152.75500145538976 L0.0,-245.0" stroke="#4c0618" stroke-width="0.1" fill="none" />
<path d="M-194.06125636703175,149.550087854368 L109.95579914911323,-218.93999687923602" stroke="#4c0618" stroke-width="0.1" fill="none" />
<path d="M-196.52018222498572,146.30385496718262 L196.52018222498572,-146.30385496718262" stroke="#4c0618" stroke-width="0.1" fill="none" />
<path d="M-198.92481140038484,143.01719969752352 L241.27789948799096,-42.54380352839795" stroke="#4c0618" stroke-width="0.1" fill="none" />
<path d="M-201.27447951674867,139.6910301174056 L234.70743051729477,70.2667920142171" stroke="#4c0618" stroke-width="0.1" fill="none" />
<path d="M-203.56853738282166,136.3262652162772 L178.20654218539698,168.12920127783968" stroke="#4c0618" stroke-width="0.1" fill="none" />
<path d="M-205.8063511719389,132.9238346471112 L83.79493511478887,230.22469209254754" stroke="#4c0618" stroke-width="0.1" fill="none" />
<path d="M-207.98730259714608,129.48467846955174 L-28.442763960681273,243.34339764677605" stroke="#4c0618" stroke-width="0.1" fill="none" />
<path d="M-210.1107890820266,126.00974689018358 L-134.62969962734746,204.69451379616945" stroke="#4c0618" stroke-width="0.1" fill="none" />
<path d="M-212.17622392718752,122.49999999999991 L-212.17622392718752,122.49999999999991" stroke="#4c0618" stroke-width="0.1" fill="none" />
<path d="M-214.18303647235945,118.95640750913736 L-244.5854987764607,14.245483083066679" stroke="#4c0618" stroke-width="0.1" fill="none" />
<path d="M-216.13067225406468,115.37994847895399 L-224.96294618566716,-97.03954267959334" stroke="#4c0618" stroke-width="0.1" fill="none" />
<path d="M-218.0185931588098,111.77161105152499 L-157.4829643732022,-187.6808885641496" stroke="#4c0618" stroke-width="0.1" fill="none" />
<path d="M-219.84627757176165,108.13239217662732 L-56.50088833189791,-238.39599329205683" stroke="#4c0618" stroke-width="0.1" fill="none" />
<path d="M-221.6132205208647,104.46329733629221 L56.50088833189784,-238.39599329205683" stroke="#4c0618" stroke-width="0.1" fill="none" />
<path d="M-223.31893381635993,100.76534026699983 L157.48296437320212,-187.68088856414965" stroke="#4c0618" stroke-width="0.1" fill="none" />
<path d="M-224.96294618566714,97.03954267959341 L224.96294618566714,-97.03954267959344" stroke="#4c0618" stroke-width="0.1" fill="none" />
<path d="M-226.54480340359308,93.28693397699033 L244.5854987764607,14.24548308306651" stroke="#4c0618" stroke-width="0.1" fill="none" />
<path d="M-228.06406841783,89.50855096976694 L212.17622392718746,122.50000000000003" stroke="#4c0618" stroke-width="0.1" fill="none" />
<path d="M-229.5203214697084,85.70543758969856 L134.62969962734752,204.6945137961694" stroke="#4c0618" stroke-width="0.1" fill="none" />
<path d="M-230.91316021017286,81.87864460133088 L28.44276396068144,243.34339764677605" stroke="#4c0618" stroke-width="0.1" fill="none" />
<path d="M-232.24219981094728,78.0292293116626 L-83.79493511478883,230.22469209254757" stroke="#4c0618" stroke-width="0.1" fill="none" />
<path d="M-233.50707307085938,74.15825527802245 L-178.20654218539684,168.12920127783983" stroke="#4c0618" stroke-width="0.1" fill="none" />
<path d="M-234.70743051729477,70.2667920142172 L-234.70743051729477,70.2667920142172" stroke="#4c0618" stroke-width="0.1" fill="none" />
<path d="M-235.84294050275292,66.35591469503633 L-241.27789948799096,-42.54380352839805" stroke="#4c0618" stroke-width="0.1" fill="none" />
<path d="M-236.91328929647855,62.42670385919044 L-196.52018222498577,-146.30385496718253" stroke="#4c0618" stroke-width="0.1" fill="none" />
<path d="M-237.9181811711421,58.480245110768806 L-109.95579914911329,-218.939996879236" stroke="#4c0618" stroke-width="0.1" fill="none" />
<path d="M-238.85733848454677,54.51762881929707 L0.0,-245.0" stroke="#4c0618" stroke-width="0.1" fill="none" />
<path d="M-239.7305017563382,50.5399498184785 L109.95579914911323,-218.93999687923602" stroke="#4c0618" stroke-width="0.1" fill="none" />
<path d="M-240.53742973969662,46.54830710370156 L196.52018222498572,-146.30385496718262" stroke="#4c0618" stroke-width="0.1" fill="none" />
<path d="M-241.27789948799096,42.54380352839793 L241.27789948799096,-42.54380352839795" stroke="#4c0618" stroke-width="0.1" fill="none" />
<path d="M-241.95170641637705,38.527545499334366 L234.70743051729477,70.2667920142171" stroke="#4c0618" stroke-width="0.1" fill="none" />
<path d="M-242.55866435832237,34.50064267092292 L178.20654218539698,168.12920127783968" stroke="#4c0618" stroke-width="0.1" fill="none" />
<path d="M-243.09860561704215,30.464207638633813 L83.79493511478887,230.22469209254754" stroke="#4c0618" stroke-width="0.1" fill="none" />
<path d="M-243.57138101183247,26.419355631595796 L-28.442763960681273,243.34339764677605" stroke="#4c0618" stroke-width="0.1" fill="none" />
<path d="M-243.9768599192874,22.367204204468962 L-134.62969962734746,204.69451379616945" stroke="#4c0618" stroke-width="0.1" fill="none" />
<path d="M-244.31493030938913,18.30887292867406 L-212.17622392718752,122.49999999999991" stroke="#4c0618" stroke-width="0.1" fill="none" />
<path d="M-244.5854987764607,14.245483083066679 L-244.5854987764607,14.245483083066679" stroke="#4c0618" stroke-width="0.1" fill="none" />
<path d="M-244.78849056497322,10.178157344137581 L-224.96294618566716,-97.03954267959334" stroke="#4c0618" stroke-width="0.1" fill="none" />
<path d="M-244.92384959019998,6.108019475827923 L-157.4829643732022,-187.6808885641496" stroke="#4c0618" stroke-width="0.1" fill="none" />
<path d="M-244.99153845371234,2.036194019043824 L-56.50088833189791,-238.39599329205683" stroke="#4c0618" stroke-width="0.1" fill="none" />
<path d="M-244.99153845371234,-2.0361940190437338 L56.50088833189784,-238.39599329205683" stroke="#4c0618" stroke-width="0.1" fill="none" />
<path d="M-244.92384959019998,-6.108019475827833 L157.48296437320212,-187.68088856414965" stroke="#4c0618" stroke-width="0.1" fill="none" />
<path d="M-244.78849056497322,-10.178157344137492 L224.96294618566714,-97.03954267959344" stroke="#4c0618" stroke-width="0.1" fill="none" />
<path d="M-244.5854987764607,-14.24548308306659 L244.5854987764607,14.24548308306651" stroke="#4c0618" stroke-width="0.1" fill="none" />
<path d="M-244.31493030938913,-18.30887292867397 L212.17622392718746,122.50000000000003" stroke="#4c0618" stroke-width="0.1" fill="none" />
<path d="M-243.97685991928742,-22.367204204468877 L134.62969962734752,204.6945137961694" stroke="#4c0618" stroke-width="0.1" fill="none" />
<path d="M-243.5713810118325,-26.419355631595707 L28.44276396068144,243.34339764677605" stroke="#4c0618" stroke-width="0.1" fill="none" />
<path d="M-243.09860561704218,-30.464207638633724 L-83.79493511478883,230.22469209254757" stroke="#4c0618" stroke-width="0.1" fill="none" />
<path d="M-242.55866435832237,-34.50064267092282 L-178.20654218539684,168.12920127783983" stroke="#4c0618" stroke-width="0.1" fill="none" />
<path d="M-241.95170641637708,-38.52754549933428 L-234.70743051729477,70.2667920142172" stroke="#4c0618" stroke-width="0.1" fill="none" />
<path d="M-241.27789948799096,-42.54380352839805 L-241.27789948799096,-42.54380352839805" stroke="#4c0618" stroke-width="0.1" fill="none" />
<path d="M-240.53742973969665,-46.54830710370147 L-196.52018222498577,-146.30385496718253" stroke="#4c0618" stroke-width="0.1" fill="none" />
<path d="M-239.73050175633824,-50.5399498184784 L-109.95579914911329,-218.939996879236" stroke="#4c0618" stroke-width="0.1" fill="none" />
<path d="M-238.85733848454677,-54.51762881929698 L0.0,-245.0" stroke="#4c0618" stroke-width="0.1" fill="none" />
<path d="M-237.91818117114212,-58.48024511076871 L109.95579914911323,-218.93999687923602" stroke="#4c0618" stroke-width="0.1" fill="none" />
<path d="M-236.91328929647858,-62.426703859190376 L196.52018222498572,-146.30385496718262" stroke="#4c0618" stroke-width="0.1" fill="none" />
<path d="M-235.84294050275295,-66.35591469503625 L241.27789948799096,-42.54380352839795" stroke="#4c0618" stroke-width="0.1" fill="none" />
<path d="M-234.70743051729477,-70.26679201421713 L234.70743051729477,70.2667920142171" stroke="#4c0618" stroke-width="0.1" fill="none" />
<path d="M-233.50707307085946,-74.15825527802217 L178.20654218539698,168.12920127783968" stroke="#4c0618" stroke-width="0.1" fill="none" />
<path d="M-232.2421998109473,-78.02922931166252 L83.79493511478887,230.22469209254754" stroke="#4c0618" stroke-width="0.1" fill="none" />
<path d="M-230.91316021017286,-81.8786446013308 L-28.442763960681273,243.34339764677605" stroke="#4c0618" stroke-width="0.1" fill="none" />
<path d="M-229.52032146970836,-85.70543758969868 L-134.62969962734746,204.69451379616945" stroke="#4c0618" stroke-width="0.1" fill="none" />
<path d="M-228.06406841783001,-89.50855096976687 L-212.17622392718752,122.49999999999991" stroke="#4c0618" stroke-width="0.1" fill="none" />
<path d="M-226.5448034035932,-93.28693397699006 L-244.5854987764607,14.245483083066679" stroke="#4c0618" stroke-width="0.1" fill="none" />
<path d="M-224.96294618566716,-97.03954267959334 L-224.96294618566716,-97.03954267959334" stroke="#4c0618" stroke-width="0.1" fill="none" />
<path d="M-223.31893381635996,-100.76534026699977 L-157.4829643732022,-187.6808885641496" stroke="#4c0618" stroke-width="0.1" fill="none" />
<path d="M-221.61322052086473,-104.46329733629213 L-56.50088833189791,-238.39599329205683" stroke="#4c0618" stroke-width="0.1" fill="none" />
<path d="M-219.84627757176168,-108.13239217662723 L56.50088833189784,-238.39599329205683" stroke="#4c0618" stroke-width="0.1" fill="none" />
<path d="M-218.0185931588098,-111.77161105152491 L157.48296437320212,-187.68088856414965" stroke="#4c0618" stroke-width="0.1" fill="none" />
<path d="M-216.1306722540647,-115.37994847895392 L224.96294618566714,-97.03954267959344" stroke="#4c0618" stroke-width="0.1" fill="none" />
<path d="M-214.18303647235956,-118.95640750913707 L244.5854987764607,14.24548308306651" stroke="#4c0618" stroke-width="0.1" fill="none" />
<path d="M-212.17622392718746,-122.5 L212.17622392718746,122.50000000000003" stroke="#4c0618" stroke-width="0.1" fill="none" />
<path d="M-210.11078908202654,-126.00974689018365 L134.62969962734752,204.6945137961694" stroke="#4c0618" stroke-width="0.1" fill="none" />
<path d="M-207.98730259714614,-129.48467846955162 L28.44276396068144,243.34339764677605" stroke="#4c0618" stroke-width="0.1" fill="none" />
<path d="M-205.80635117193896,-132.9238346471111 L-83.79493511478883,230.22469209254757" stroke="#4c0618" stroke-width="0.1" fill="none" />
<path d="M-203.56853738282183,-136.3262652162769 L-178.20654218539684,168.12920127783983" stroke="#4c0618" stroke-width="0.1" fill="none" />
<path d="M-201.27447951674873,-139.6910301174055 L-234.70743051729477,70.2667920142172" stroke="#4c0618" stroke-width="0.1" fill="none" />
<path d="M-198.9248114003849,-143.01719969752344 L-241.27789948799096,-42.54380352839805" stroke="#4c0618" stroke-width="0.1" fill="none" />
<path d="M-196.52018222498577,-146.30385496718253 L-196.52018222498577,-146.30385496718253" stroke="#4c0618" stroke-width="0.1" fill="none" />
<path d="M-194.0612563670318,-149.55008785436792 L-109.95579914911329,-218.939996879236" stroke="#4c0618" stroke-width="0.1" fill="none" />
<path d="M-191.54871320466734,-152.75500145538967 L0.0,-245.0" stroke="#4c0618" stroke-width="0.1" fill="none" />
<path d="M-188.98324692999498,-155.91771028268903 L109.95579914911323,-218.93999687923602" stroke="#4c0618" stroke-width="0.1" fill="none" />
<path d="M-186.36556635727675,-159.03734050949004 L196.52018222498572,-146.30385496718262" stroke="#4c0618" stroke-width="0.1" fill="none" />
<path d="M-183.69639472709488,-162.11303021123055 L241.27789948799096,-42.54380352839795" stroke="#4c0618" stroke-width="0.1" fill="none" />
<path d="M-180.97646950652862,-165.1439296037021 L234.70743051729477,70.2667920142171" stroke="#4c0618" stroke-width="0.1" fill="none" />
<path d="M-178.20654218539693,-168.12920127783974 L178.20654218539698,168.12920127783968" stroke="#4c0618" stroke-width="0.1" fill="none" />
<path d="M-175.38737806863114,-171.06802043108772 L83.79493511478887,230.22469209254754" stroke="#4c0618" stroke-width="0.1" fill="none" />
<path d="M-172.5197560648263,-173.95957509528708 L-28.442763960681273,243.34339764677605" stroke="#4c0618" stroke-width="0.1" fill="none" />
<path d="M-169.60446847103745,-176.8030663610133 L-134.62969962734746,204.69451379616945" stroke="#4c0618" stroke-width="0.1" fill="none" />
<path d="M-166.64232075387534,-179.59770859830738 L-212.17622392718752,122.49999999999991" stroke="#4c0618" stroke-width="0.1" fill="none" />
<path d="M-163.6341313269621,-182.3427296737397 L-244.5854987764607,14.245483083066679" stroke="#4c0618" stroke-width="0.1" fill="none" />
<path d="M-160.58073132481357,-185.037371163741 L-224.96294618566716,-97.03954267959334" stroke="#4c0618" stroke-width="0.1" fill="none" />
<path d="M-157.4829643732022,-187.6808885641496 L-157.4829643732022,-187.6808885641496" stroke="#4c0618" stroke-width="0.1" fill="none" />
<path d="M-154.34168635607298,-190.27255149590968 L-56.50088833189791,-238.39599329205683" stroke="#4c0618" stroke-width="0.1" fill="none" />
<path d="M-151.1577651790699,-192.81164390686877 L56.50088833189784,-238.39599329205683" stroke="#4c0618" stroke-width="0.1" fill="none" />
<path d="M-147.93208052974214,-195.29746426961586 L157.48296437320212,-187.68088856414965" stroke="#4c0618" stroke-width="0.1" fill="none" />
<path d="M-144.66552363449372,-197.72932577530761 L224.96294618566714,-97.03954267959344" stroke="#4c0618" stroke-width="0.1" fill="none" />
<path d="M-141.35899701234797,-200.10655652342578 L244.5854987764607,14.24548308306651" stroke="#4c0618" stroke-width="0.1" fill="none" />
<path d="M-138.01341422558738,-202.42849970741875 L212.17622392718746,122.50000000000003" stroke="#4c0618" stroke-width="0.1" fill="none" />
<path d="M-134.62969962734743,-204.69451379616945 L134.62969962734752,204.6945137961694" stroke="#4c0618" stroke-width="0.1" fill="none" />
<path d="M-131.20878810622497,-206.90397271124533 L28.44276396068144,243.34339764677605" stroke="#4c0618" stroke-width="0.1" fill="none" />
<path d="M-127.75162482797695,-209.05626599987818 L-83.79493511478883,230.22469209254757" stroke="#4c0618" stroke-width="0.1" fill="none" />
<path d="M-124.25916497438212,-211.1507990036251 L-178.20654218539684,168.12920127783983" stroke="#4c0618" stroke-width="0.1" fill="none" />
<path d="M-120.73237347933023,-213.186993022669 L-234.70743051729477,70.2667920142172" stroke="#4c0618" stroke-width="0.1" fill="none" />
<path d="M-117.17222476222305,-215.16428547570595 L-241.27789948799096,-42.54380352839805" stroke="#4c0618" stroke-width="0.1" fill="none" />
<path d="M-113.57970245874846,-217.0821300553829 L-196.52018222498577,-146.30385496718253" stroke="#4c0618" stroke-width="0.1" fill="none" />
<path d="M-109.95579914911329,-218.939996879236 L-109.95579914911329,-218.939996879236" stroke="#4c0618" stroke-width="0.1" fill="none" />
<path d="M-106.30151608380179,-220.73737263609266 L0.0,-245.0" stroke="#4c0618" stroke-width="0.1" fill="none" />
<path d="M-102.61786290693982,-222.47376072789461 L109.95579914911323,-218.93999687923602" stroke="#4c0618" stroke-width="0.1" fill="none" />
<path d="M-98.90585737733876,-224.1486814069035 L196.52018222498572,-146.30385496718262" stroke="#4c0618" stroke-width="0.1" fill="none" />
<path d="M-95.16652508730022,-225.76167190824987 L241.27789948799096,-42.54380352839795" stroke="#4c0618" stroke-width="0.1" fill="none" />
<path d="M-91.40089917925249,-227.31228657779175 L234.70743051729477,70.2667920142171" stroke="#4c0618" stroke-width="0.1" fill="none" />
<path d="M-87.61002006030411,-228.8000969952441 L178.20654218539698,168.12920127783968" stroke="#4c0618" stroke-width="0.1" fill="none" />
<path d="M-83.794935114789,-230.2246920925475 L83.79493511478887,230.22469209254754" stroke="#4c0618" stroke-width="0.1" fill="none" />
<path d="M-79.95669841488306,-231.5856782674426 L-28.442763960681273,243.34339764677605" stroke="#4c0618" stroke-width="0.1" fill="none" />
<path d="M-76.09637042937617,-232.88267949221807 L-134.62969962734746,204.69451379616945" stroke="#4c0618" stroke-width="0.1" fill="none" />
<path d="M-72.21501773067145,-234.1153374176045 L-212.17622392718752,122.49999999999991" stroke="#4c0618" stroke-width="0.1" fill="none" />
<path d="M-68.31371270010472,-235.28331147178193 L-244.5854987764607,14.245483083066679" stroke="#4c0618" stroke-width="0.1" fill="none" />
<path d="M-64.39353323165246,-236.38627895447752 L-224.96294618566716,-97.03954267959334" stroke="#4c0618" stroke-width="0.1" fill="none" />
<path d="M-60.455562434121816,-237.42393512612412 L-157.4829643732022,-187.6808885641496" stroke="#4c0618" stroke-width="0.1" fill="none" />
<path d="M-56.50088833189791,-238.39599329205683 L-56.50088833189791,-238.39599329205683" stroke="#4c0618" stroke-width="0.1" fill="none" />
<path d="M-52.530603564330974,-239.3021848817246 L56.50088833189784,-238.39599329205683" stroke="#4c0618" stroke-width="0.1" fill="none" />
<path d="M-48.54580508385244,-240.14225952289323 L157.48296437320212,-187.68088856414965" stroke="#4c0618" stroke-width="0.1" fill="none" />
<path d="M-44.547593852896256,-240.91598511082114 L224.96294618566714,-97.03954267959344" stroke="#4c0618" stroke-width="0.1" fill="none" />
<path d="M-40.537074539713664,-241.62314787238765 L244.5854987764607,14.24548308306651" stroke="#4c0618" stroke-width="0.1" fill="none" />
<path d="M-36.51535521316273,-242.2635524251565 L212.17622392718746,122.50000000000003" stroke="#4c0618" stroke-width="0.1" fill="none" />
<path d="M-32.48354703656161,-242.8370218313581 L134.62969962734752,204.6945137961694" stroke="#4c0618" stroke-width="0.1" fill="none" />
<path d="M-28.442763960681365,-243.34339764677605 L28.44276396068144,243.34339764677605" stroke="#4c0618" stroke-width="0.1" fill="none" />
<path d="M-24.39412241597524,-243.78253996452332 L-83.79493511478883,230.22469209254757" stroke="#4c0618" stroke-width="0.1" fill="none" />
<path d="M-20.338741004116176,-244.1543274536978 L-178.20654218539684,168.12920127783983" stroke="#4c0618" stroke-width="0.1" fill="none" />
<path d="M-16.27774018893983,-244.4586573929043 L-234.70743051729477,70.2667920142172" stroke="#4c0618" stroke-width="0.1" fill="none" />
<path d="M-12.212241986870913,-244.69544569863598 L-241.27789948799096,-42.54380352839805" stroke="#4c0618" stroke-width="0.1" fill="none" />
<path d="M-8.143369656918425,-244.86462694850553 L-196.52018222498577,-146.30385496718253" stroke="#4c0618" stroke-width="0.1" fill="none" />
<path d="M-4.072247390332984,-244.96615439932089 L-109.95579914911329,-218.939996879236" stroke="#4c0618" stroke-width="0.1" fill="none" />
</svg>